<?xml version="1.0" encoding="UTF-8" standalone="no"?>
<!DOCTYPE svg PUBLIC "-//W3C//DTD SVG 1.1//EN"
 "http://www.w3.org/Graphics/SVG/1.1/DTD/svg11.dtd">
<!-- Generated by graphviz version 2.40.1 (20161225.0304)
 -->
<!-- Title: getpnorad1 Pages: 1 -->
<svg width="1567pt" height="601pt"
 viewBox="0.00 0.00 1567.00 601.22" xmlns="http://www.w3.org/2000/svg" xmlns:xlink="http://www.w3.org/1999/xlink">
<g id="graph0" class="graph" transform="scale(1 1) rotate(0) translate(4 597.2169)">
<title>getpnorad1</title>
<!-- Node1 -->
<g id="node1" class="node">
<title>Node1</title>
<polygon fill="#bfbfbf" stroke="#000000" points="0,-163 0,-183 75,-183 75,-163 0,-163"/>
<text text-anchor="middle" x="37.5" y="-170" font-family="FreeSans" font-size="10.00" fill="#000000">getpnorad1</text>
</g>
<!-- Node2 -->
<g id="node2" class="node">
<title>Node2</title>
<g id="a_node2"><a xlink:href="../../d2/d18/medium-simple_8f.html#a77babe6c173e1a2ea1e75a219a2d9fcd" target="_top" xlink:title="avscatcen">
<polygon fill="none" stroke="#000000" points="213.5,-529 213.5,-549 280.5,-549 280.5,-529 213.5,-529"/>
<text text-anchor="middle" x="247" y="-536" font-family="FreeSans" font-size="10.00" fill="#000000">avscatcen</text>
</a>
</g>
</g>
<!-- Node1&#45;&gt;Node2 -->
<g id="edge1" class="edge">
<title>Node1&#45;&gt;Node2</title>
<path fill="none" stroke="#191970" d="M40.2222,-183.1226C52.5118,-227.2399 106.5879,-405.3634 206,-514 209.1237,-517.4135 212.8199,-520.5219 216.6938,-523.2972"/>
<polygon fill="#191970" stroke="#191970" points="214.9993,-526.3686 225.3044,-528.8294 218.7831,-520.4794 214.9993,-526.3686"/>
</g>
<!-- Node6 -->
<g id="node6" class="node">
<title>Node6</title>
<g id="a_node6"><a xlink:href="../../d2/d18/medium-simple_8f.html#a8777bb16180dbd5994f789bf75917d59" target="_top" xlink:title="getmd">
<polygon fill="none" stroke="#000000" points="543,-510 543,-530 592,-530 592,-510 543,-510"/>
<text text-anchor="middle" x="567.5" y="-517" font-family="FreeSans" font-size="10.00" fill="#000000">getmd</text>
</a>
</g>
</g>
<!-- Node1&#45;&gt;Node6 -->
<g id="edge18" class="edge">
<title>Node1&#45;&gt;Node6</title>
<path fill="none" stroke="#191970" d="M37.7411,-183.1946C39.6417,-236.6777 56.5056,-485.2074 206,-559 321.5754,-616.0497 371.1075,-590.8468 496,-559 513.7004,-554.4865 531.7443,-544.5966 545.2776,-535.9061"/>
<polygon fill="#191970" stroke="#191970" points="547.4998,-538.6305 553.8664,-530.1619 543.6083,-532.8118 547.4998,-538.6305"/>
</g>
<!-- Node12 -->
<g id="node12" class="node">
<title>Node12</title>
<g id="a_node12"><a xlink:href="../../dc/db0/classActs_1_1IVisualization.html#a9e155efef029673b4b9830ef5dfc1af3" target="_top" xlink:title="Acts::IVisualization\l::line">
<polygon fill="none" stroke="#000000" points="1186,-23 1186,-55 1298,-55 1298,-23 1186,-23"/>
<text text-anchor="start" x="1194" y="-42" font-family="FreeSans" font-size="10.00" fill="#000000">Acts::IVisualization</text>
<text text-anchor="middle" x="1242" y="-30" font-family="FreeSans" font-size="10.00" fill="#000000">::line</text>
</a>
</g>
</g>
<!-- Node1&#45;&gt;Node12 -->
<g id="edge47" class="edge">
<title>Node1&#45;&gt;Node12</title>
<path fill="none" stroke="#191970" d="M42.2398,-162.9822C52.3279,-142.564 77.7462,-95.6481 111,-67 162.0497,-23.0207 179.6186,0 247,0 247,0 247,0 912,0 1004.0502,0 1109.5515,-15.1505 1175.9772,-26.5656"/>
<polygon fill="#191970" stroke="#191970" points="1175.4388,-30.0245 1185.891,-28.2915 1176.6394,-23.1282 1175.4388,-30.0245"/>
</g>
<!-- Node14 -->
<g id="node14" class="node">
<title>Node14</title>
<g id="a_node14"><a xlink:href="../../db/d4e/predicates_8cxx.html#a0e05cf94eeeea515483f825d7a3b7dd6" target="_top" xlink:title="compress">
<polygon fill="none" stroke="#000000" points="377.5,-107 377.5,-127 442.5,-127 442.5,-107 377.5,-107"/>
<text text-anchor="middle" x="410" y="-114" font-family="FreeSans" font-size="10.00" fill="#000000">compress</text>
</a>
</g>
</g>
<!-- Node1&#45;&gt;Node14 -->
<g id="edge17" class="edge">
<title>Node1&#45;&gt;Node14</title>
<path fill="none" stroke="#191970" d="M46.8532,-162.8433C70.5151,-138.0697 135.8813,-75.2364 206,-57 241.2711,-47.8267 252.5031,-48.7435 288,-57 324.5321,-65.4973 362.7182,-86.5637 386.429,-101.3213"/>
<polygon fill="#191970" stroke="#191970" points="384.753,-104.4033 395.0684,-106.8205 388.5118,-98.4981 384.753,-104.4033"/>
</g>
<!-- Node15 -->
<g id="node15" class="node">
<title>Node15</title>
<g id="a_node15"><a xlink:href="../../d3/dd5/jewel-2_82_80_8f.html#a7ebfd60d4aa3c140a9ed244bd615c609" target="_top" xlink:title="getsscat">
<polygon fill="none" stroke="#000000" points="111,-279 111,-299 170,-299 170,-279 111,-279"/>
<text text-anchor="middle" x="140.5" y="-286" font-family="FreeSans" font-size="10.00" fill="#000000">getsscat</text>
</a>
</g>
</g>
<!-- Node1&#45;&gt;Node15 -->
<g id="edge19" class="edge">
<title>Node1&#45;&gt;Node15</title>
<path fill="none" stroke="#191970" d="M46.6406,-183.2942C64.2457,-203.1213 103.0406,-246.8127 124.8406,-271.3642"/>
<polygon fill="#191970" stroke="#191970" points="122.2701,-273.7407 131.527,-278.8945 127.5045,-269.0929 122.2701,-273.7407"/>
</g>
<!-- Node16 -->
<g id="node16" class="node">
<title>Node16</title>
<g id="a_node16"><a xlink:href="../../d0/d83/classActsFatras_1_1LandauDistribution.html#a692e73569c82329696eadc0fe9ff5bdf" target="_top" xlink:title="Return the currently configured distribution parameters.">
<polygon fill="none" stroke="#000000" points="324,-157 324,-189 496,-189 496,-157 324,-157"/>
<text text-anchor="start" x="332" y="-176" font-family="FreeSans" font-size="10.00" fill="#000000">ActsFatras::LandauDistribution</text>
<text text-anchor="middle" x="410" y="-164" font-family="FreeSans" font-size="10.00" fill="#000000">::param</text>
</a>
</g>
</g>
<!-- Node1&#45;&gt;Node16 -->
<g id="edge48" class="edge">
<title>Node1&#45;&gt;Node16</title>
<path fill="none" stroke="#191970" d="M75.2672,-173C130.6726,-173 235.8245,-173 313.5485,-173"/>
<polygon fill="#191970" stroke="#191970" points="313.8446,-176.5001 323.8446,-173 313.8446,-169.5001 313.8446,-176.5001"/>
</g>
<!-- Node18 -->
<g id="node18" class="node">
<title>Node18</title>
<g id="a_node18"><a xlink:href="../../d3/dd5/jewel-2_82_80_8f.html#a64def7a06e5aeca064f464e05345627f" target="_top" xlink:title="getxsecint">
<polygon fill="none" stroke="#000000" points="212.5,-183 212.5,-203 281.5,-203 281.5,-183 212.5,-183"/>
<text text-anchor="middle" x="247" y="-190" font-family="FreeSans" font-size="10.00" fill="#000000">getxsecint</text>
</a>
</g>
</g>
<!-- Node1&#45;&gt;Node18 -->
<g id="edge46" class="edge">
<title>Node1&#45;&gt;Node18</title>
<path fill="none" stroke="#191970" d="M75.4389,-176.6218C111.1144,-180.0276 164.5349,-185.1274 202.2707,-188.7299"/>
<polygon fill="#191970" stroke="#191970" points="202.1831,-192.2374 212.4705,-189.7036 202.8484,-185.269 202.1831,-192.2374"/>
</g>
<!-- Node24 -->
<g id="node24" class="node">
<title>Node24</title>
<g id="a_node24"><a xlink:href="../../d3/dd5/jewel-2_82_80_8f.html#a6348b7eb6b53f7651b114766f802ce0a" target="_top" xlink:title="scatprimfunc">
<polygon fill="none" stroke="#000000" points="206,-67 206,-87 288,-87 288,-67 206,-67"/>
<text text-anchor="middle" x="247" y="-74" font-family="FreeSans" font-size="10.00" fill="#000000">scatprimfunc</text>
</a>
</g>
</g>
<!-- Node1&#45;&gt;Node24 -->
<g id="edge49" class="edge">
<title>Node1&#45;&gt;Node24</title>
<path fill="none" stroke="#191970" d="M59.5242,-162.9078C96.9313,-145.7666 172.9816,-110.9177 215.8344,-91.2811"/>
<polygon fill="#191970" stroke="#191970" points="217.3236,-94.4488 224.9565,-87.1011 214.4075,-88.0851 217.3236,-94.4488"/>
</g>
<!-- Node3 -->
<g id="node3" class="node">
<title>Node3</title>
<g id="a_node3"><a xlink:href="../../d4/d3e/classActs_1_1Logger.html#aee9e687247532b5175713e66b2d2121e" target="_top" xlink:title="create output stream object with internal cache">
<polygon fill="none" stroke="#000000" points="861,-254 861,-274 963,-274 963,-254 861,-254"/>
<text text-anchor="middle" x="912" y="-261" font-family="FreeSans" font-size="10.00" fill="#000000">Acts::Logger::log</text>
</a>
</g>
</g>
<!-- Node2&#45;&gt;Node3 -->
<g id="edge2" class="edge">
<title>Node2&#45;&gt;Node3</title>
<path fill="none" stroke="#191970" d="M280.7549,-530.203C366.7435,-507.7396 588.3089,-449.5008 603,-442 621.2986,-432.6573 621.9148,-424.4113 639,-413 722.7326,-357.0744 829.3381,-303.5622 881.0624,-278.6232"/>
<polygon fill="#191970" stroke="#191970" points="882.8556,-281.6449 890.3584,-274.1644 879.8283,-275.3334 882.8556,-281.6449"/>
</g>
<!-- Node5 -->
<g id="node5" class="node">
<title>Node5</title>
<g id="a_node5"><a xlink:href="../../d2/d18/medium-simple_8f.html#a92675ba51aed5c86cce56798dfad307b" target="_top" xlink:title="getms">
<polygon fill="none" stroke="#000000" points="386,-529 386,-549 434,-549 434,-529 386,-529"/>
<text text-anchor="middle" x="410" y="-536" font-family="FreeSans" font-size="10.00" fill="#000000">getms</text>
</a>
</g>
</g>
<!-- Node2&#45;&gt;Node5 -->
<g id="edge4" class="edge">
<title>Node2&#45;&gt;Node5</title>
<path fill="none" stroke="#191970" d="M280.7737,-539C308.5562,-539 347.7633,-539 375.6912,-539"/>
<polygon fill="#191970" stroke="#191970" points="375.7953,-542.5001 385.7952,-539 375.7952,-535.5001 375.7953,-542.5001"/>
</g>
<!-- Node4 -->
<g id="node4" class="node">
<title>Node4</title>
<g id="a_node4"><a xlink:href="../../df/dce/classActs_1_1Logging_1_1OutputPrintPolicy.html#ab113823970013e1e7f310b36509136ac" target="_top" xlink:title="handle output of debug message">
<polygon fill="none" stroke="#000000" points="999,-248 999,-280 1150,-280 1150,-248 999,-248"/>
<text text-anchor="start" x="1007" y="-267" font-family="FreeSans" font-size="10.00" fill="#000000">Acts::Logging::OutputPrint</text>
<text text-anchor="middle" x="1074.5" y="-255" font-family="FreeSans" font-size="10.00" fill="#000000">Policy::flush</text>
</a>
</g>
</g>
<!-- Node3&#45;&gt;Node4 -->
<g id="edge3" class="edge">
<title>Node3&#45;&gt;Node4</title>
<path fill="none" stroke="#191970" d="M963.416,-264C971.5027,-264 980.0472,-264 988.6607,-264"/>
<polygon fill="#191970" stroke="#191970" points="988.7806,-267.5001 998.7806,-264 988.7805,-260.5001 988.7806,-267.5001"/>
</g>
<!-- Node5&#45;&gt;Node6 -->
<g id="edge5" class="edge">
<title>Node5&#45;&gt;Node6</title>
<path fill="none" stroke="#191970" d="M434.2642,-536.0729C460.6626,-532.8883 503.0829,-527.7709 532.9534,-524.1675"/>
<polygon fill="#191970" stroke="#191970" points="533.4399,-527.6343 542.9487,-522.9617 532.6015,-520.6847 533.4399,-527.6343"/>
</g>
<!-- Node7 -->
<g id="node7" class="node">
<title>Node7</title>
<g id="a_node7"><a xlink:href="../../d2/d18/medium-simple_8f.html#a4c3c426f7b73441851ebd368f54397fb" target="_top" xlink:title="gettemp">
<polygon fill="none" stroke="#000000" points="761,-408 761,-428 820,-428 820,-408 761,-408"/>
<text text-anchor="middle" x="790.5" y="-415" font-family="FreeSans" font-size="10.00" fill="#000000">gettemp</text>
</a>
</g>
</g>
<!-- Node6&#45;&gt;Node7 -->
<g id="edge6" class="edge">
<title>Node6&#45;&gt;Node7</title>
<path fill="none" stroke="#191970" d="M575.5697,-509.8343C592.4688,-488.6671 630.7032,-441.4492 639,-437 673.4212,-418.5415 718.4069,-415.0369 750.3934,-415.3871"/>
<polygon fill="#191970" stroke="#191970" points="750.6265,-418.8937 760.7085,-415.6376 750.7965,-411.8958 750.6265,-418.8937"/>
</g>
<!-- Node7&#45;&gt;Node3 -->
<g id="edge13" class="edge">
<title>Node7&#45;&gt;Node3</title>
<path fill="none" stroke="#191970" d="M798.472,-407.8956C818.6326,-382.3422 871.8743,-314.8589 897.6349,-282.2076"/>
<polygon fill="#191970" stroke="#191970" points="900.3932,-284.3622 903.8394,-274.3435 894.8976,-280.0264 900.3932,-284.3622"/>
</g>
<!-- Node8 -->
<g id="node8" class="node">
<title>Node8</title>
<g id="a_node8"><a xlink:href="../../d8/d1a/classHiMain1.html#afa91501b2c79bdaf9274e067b9d97e31" target="_top" xlink:title="HiMain1::n0">
<polygon fill="none" stroke="#000000" points="1203.5,-409 1203.5,-429 1280.5,-429 1280.5,-409 1203.5,-409"/>
<text text-anchor="middle" x="1242" y="-416" font-family="FreeSans" font-size="10.00" fill="#000000">HiMain1::n0</text>
</a>
</g>
</g>
<!-- Node7&#45;&gt;Node8 -->
<g id="edge7" class="edge">
<title>Node7&#45;&gt;Node8</title>
<path fill="none" stroke="#191970" d="M820.3361,-427.9068C832.7599,-431.5409 847.428,-435.2032 861,-437 899.791,-442.1355 1113.959,-436.1145 1150,-433 1164.118,-431.78 1179.3616,-429.7525 1193.3021,-427.6141"/>
<polygon fill="#191970" stroke="#191970" points="1193.8591,-431.0696 1203.188,-426.0474 1192.7634,-424.1559 1193.8591,-431.0696"/>
</g>
<!-- Node11 -->
<g id="node11" class="node">
<title>Node11</title>
<g id="a_node11"><a xlink:href="../../d2/d18/medium-simple_8f.html#a1fdcab7823056a622e99f159e74b0a1e" target="_top" xlink:title="nthick">
<polygon fill="none" stroke="#000000" points="1050.5,-370 1050.5,-390 1098.5,-390 1098.5,-370 1050.5,-370"/>
<text text-anchor="middle" x="1074.5" y="-377" font-family="FreeSans" font-size="10.00" fill="#000000">nthick</text>
</a>
</g>
</g>
<!-- Node7&#45;&gt;Node11 -->
<g id="edge10" class="edge">
<title>Node7&#45;&gt;Node11</title>
<path fill="none" stroke="#191970" d="M820.0457,-408.2493C832.5511,-404.4812 847.3571,-400.4864 861,-398 923.5798,-386.5951 997.8217,-382.3951 1040.2206,-380.8634"/>
<polygon fill="#191970" stroke="#191970" points="1040.4093,-384.3592 1050.2874,-380.5287 1040.1766,-377.363 1040.4093,-384.3592"/>
</g>
<!-- Node13 -->
<g id="node13" class="node">
<title>Node13</title>
<g id="a_node13"><a xlink:href="../../d2/d18/medium-simple_8f.html#a58e0410e81664819969cd2981fd7cd27" target="_top" xlink:title="npart">
<polygon fill="none" stroke="#000000" points="890,-408 890,-428 934,-428 934,-408 890,-408"/>
<text text-anchor="middle" x="912" y="-415" font-family="FreeSans" font-size="10.00" fill="#000000">npart</text>
</a>
</g>
</g>
<!-- Node7&#45;&gt;Node13 -->
<g id="edge14" class="edge">
<title>Node7&#45;&gt;Node13</title>
<path fill="none" stroke="#191970" d="M820.2222,-418C838.2769,-418 861.3296,-418 879.8141,-418"/>
<polygon fill="#191970" stroke="#191970" points="879.8244,-421.5001 889.8243,-418 879.8243,-414.5001 879.8244,-421.5001"/>
</g>
<!-- Node9 -->
<g id="node9" class="node">
<title>Node9</title>
<g id="a_node9"><a xlink:href="../../d8/d1a/classHiMain1.html#abdd4d6ac793897447c6d9f7b9e6d20ca" target="_top" xlink:title="HiMain1::init">
<polygon fill="none" stroke="#000000" points="1334,-409 1334,-429 1415,-429 1415,-409 1334,-409"/>
<text text-anchor="middle" x="1374.5" y="-416" font-family="FreeSans" font-size="10.00" fill="#000000">HiMain1::init</text>
</a>
</g>
</g>
<!-- Node8&#45;&gt;Node9 -->
<g id="edge8" class="edge">
<title>Node8&#45;&gt;Node9</title>
<path fill="none" stroke="#191970" d="M1280.6807,-419C1294.0803,-419 1309.3113,-419 1323.5458,-419"/>
<polygon fill="#191970" stroke="#191970" points="1323.6942,-422.5001 1333.6941,-419 1323.6941,-415.5001 1323.6942,-422.5001"/>
</g>
<!-- Node10 -->
<g id="node10" class="node">
<title>Node10</title>
<g id="a_node10"><a xlink:href="../../d7/dc3/HiMain1_8h.html#af413dd2854a4d96511498e79f1519c57" target="_top" xlink:title="himain1_address_">
<polygon fill="none" stroke="#000000" points="1451,-409 1451,-429 1559,-429 1559,-409 1451,-409"/>
<text text-anchor="middle" x="1505" y="-416" font-family="FreeSans" font-size="10.00" fill="#000000">himain1_address_</text>
</a>
</g>
</g>
<!-- Node9&#45;&gt;Node10 -->
<g id="edge9" class="edge">
<title>Node9&#45;&gt;Node10</title>
<path fill="none" stroke="#191970" d="M1415.0757,-419C1423.1424,-419 1431.7991,-419 1440.4397,-419"/>
<polygon fill="#191970" stroke="#191970" points="1440.5393,-422.5001 1450.5393,-419 1440.5392,-415.5001 1440.5393,-422.5001"/>
</g>
<!-- Node11&#45;&gt;Node8 -->
<g id="edge11" class="edge">
<title>Node11&#45;&gt;Node8</title>
<path fill="none" stroke="#191970" d="M1098.8559,-385.6709C1123.5816,-391.428 1162.5373,-400.4982 1193.571,-407.724"/>
<polygon fill="#191970" stroke="#191970" points="1192.8072,-411.1397 1203.3404,-409.9987 1194.3947,-404.3221 1192.8072,-411.1397"/>
</g>
<!-- Node11&#45;&gt;Node12 -->
<g id="edge12" class="edge">
<title>Node11&#45;&gt;Node12</title>
<path fill="none" stroke="#191970" d="M1084.8423,-369.9622C1100.7256,-354.0662 1131.2493,-321.5524 1150,-289 1193.9025,-212.7823 1223.3501,-111.8311 1235.5896,-64.962"/>
<polygon fill="#191970" stroke="#191970" points="1239.0425,-65.587 1238.1353,-55.0311 1232.2617,-63.8488 1239.0425,-65.587"/>
</g>
<!-- Node13&#45;&gt;Node8 -->
<g id="edge15" class="edge">
<title>Node13&#45;&gt;Node8</title>
<path fill="none" stroke="#191970" d="M934.1646,-418.0672C986.8494,-418.2268 1120.5835,-418.6321 1193.2322,-418.8522"/>
<polygon fill="#191970" stroke="#191970" points="1193.4801,-422.3529 1203.4907,-418.8833 1193.5014,-415.3529 1193.4801,-422.3529"/>
</g>
<!-- Node13&#45;&gt;Node11 -->
<g id="edge16" class="edge">
<title>Node13&#45;&gt;Node11</title>
<path fill="none" stroke="#191970" d="M934.2542,-412.7959C961.7063,-406.3764 1008.6532,-395.398 1040.5996,-387.9275"/>
<polygon fill="#191970" stroke="#191970" points="1041.4606,-391.3206 1050.4009,-385.6355 1039.8666,-384.5045 1041.4606,-391.3206"/>
</g>
<!-- Node15&#45;&gt;Node2 -->
<g id="edge36" class="edge">
<title>Node15&#45;&gt;Node2</title>
<path fill="none" stroke="#191970" d="M142.4599,-299.2551C150.1077,-338.4753 178.8623,-478.5425 206,-514 208.6222,-517.4261 211.8596,-520.4886 215.3565,-523.1946"/>
<polygon fill="#191970" stroke="#191970" points="213.5632,-526.206 223.819,-528.8646 217.4596,-520.3906 213.5632,-526.206"/>
</g>
<!-- Node15&#45;&gt;Node6 -->
<g id="edge29" class="edge">
<title>Node15&#45;&gt;Node6</title>
<path fill="none" stroke="#191970" d="M143.7768,-299.1464C153.602,-328.9744 183.5249,-415.4492 206,-434 256.2342,-475.4629 452.1477,-505.0238 532.6596,-515.6607"/>
<polygon fill="#191970" stroke="#191970" points="532.4144,-519.1582 542.7826,-516.9783 533.318,-512.2168 532.4144,-519.1582"/>
</g>
<!-- Node15&#45;&gt;Node7 -->
<g id="edge28" class="edge">
<title>Node15&#45;&gt;Node7</title>
<path fill="none" stroke="#191970" d="M169.2904,-299.1064C180.6363,-302.8581 193.8402,-306.9406 206,-310 232.768,-316.7348 623.1705,-387.6692 750.598,-410.7717"/>
<polygon fill="#191970" stroke="#191970" points="750.2435,-414.2644 760.7074,-412.6042 751.4921,-407.3767 750.2435,-414.2644"/>
</g>
<!-- Node15&#45;&gt;Node14 -->
<g id="edge21" class="edge">
<title>Node15&#45;&gt;Node14</title>
<path fill="none" stroke="#191970" d="M143.2955,-278.8596C150.0643,-256.2456 169.5252,-201.4453 206,-173 253.0545,-136.304 322.5527,-123.6305 367.0524,-119.2682"/>
<polygon fill="#191970" stroke="#191970" points="367.5937,-122.7342 377.2484,-118.3712 366.9802,-115.7612 367.5937,-122.7342"/>
</g>
<!-- Node15&#45;&gt;Node16 -->
<g id="edge20" class="edge">
<title>Node15&#45;&gt;Node16</title>
<path fill="none" stroke="#191970" d="M159.5066,-278.916C172.4765,-272.1609 190.1186,-263.2174 206,-256 257.1864,-232.7381 316.8764,-208.8149 358.4131,-192.665"/>
<polygon fill="#191970" stroke="#191970" points="359.7168,-195.9135 367.7765,-189.0365 357.1874,-189.3864 359.7168,-195.9135"/>
</g>
<!-- Node17 -->
<g id="node17" class="node">
<title>Node17</title>
<g id="a_node17"><a xlink:href="../../d3/dd5/jewel-2_82_80_8f.html#afeb1988452cd18836a52e75834188ccb" target="_top" xlink:title="getpdfxint">
<polygon fill="none" stroke="#000000" points="756,-254 756,-274 825,-274 825,-254 756,-254"/>
<text text-anchor="middle" x="790.5" y="-261" font-family="FreeSans" font-size="10.00" fill="#000000">getpdfxint</text>
</a>
</g>
</g>
<!-- Node15&#45;&gt;Node17 -->
<g id="edge22" class="edge">
<title>Node15&#45;&gt;Node17</title>
<path fill="none" stroke="#191970" d="M170.1182,-287.8608C273.7668,-283.8744 620.6299,-270.5335 745.3496,-265.7366"/>
<polygon fill="#191970" stroke="#191970" points="745.8191,-269.2212 755.6771,-265.3393 745.55,-262.2264 745.8191,-269.2212"/>
</g>
<!-- Node15&#45;&gt;Node18 -->
<g id="edge24" class="edge">
<title>Node15&#45;&gt;Node18</title>
<path fill="none" stroke="#191970" d="M148.6067,-278.5131C160.2647,-263.8572 182.9129,-236.9236 206,-218 210.0863,-214.6506 214.6621,-211.4275 219.2346,-208.4733"/>
<polygon fill="#191970" stroke="#191970" points="221.2001,-211.3737 227.894,-203.1614 217.5398,-205.4069 221.2001,-211.3737"/>
</g>
<!-- Node19 -->
<g id="node19" class="node">
<title>Node19</title>
<g id="a_node19"><a xlink:href="../../d2/d18/medium-simple_8f.html#aa87aedbcb3800107b08929a99afa868e" target="_top" xlink:title="getmdmin">
<polygon fill="none" stroke="#000000" points="533.5,-305 533.5,-325 601.5,-325 601.5,-305 533.5,-305"/>
<text text-anchor="middle" x="567.5" y="-312" font-family="FreeSans" font-size="10.00" fill="#000000">getmdmin</text>
</a>
</g>
</g>
<!-- Node15&#45;&gt;Node19 -->
<g id="edge30" class="edge">
<title>Node15&#45;&gt;Node19</title>
<path fill="none" stroke="#191970" d="M170.1868,-290.8076C243.9737,-295.3005 436.0039,-306.9932 523.233,-312.3046"/>
<polygon fill="#191970" stroke="#191970" points="523.1419,-315.8054 533.3361,-312.9198 523.5674,-308.8184 523.1419,-315.8054"/>
</g>
<!-- Node20 -->
<g id="node20" class="node">
<title>Node20</title>
<g id="a_node20"><a xlink:href="../../d2/d18/medium-simple_8f.html#ab3342672f50a3d009d7f2563a1fb5fb9" target="_top" xlink:title="getmdmax">
<polygon fill="none" stroke="#000000" points="532,-413 532,-433 603,-433 603,-413 532,-413"/>
<text text-anchor="middle" x="567.5" y="-420" font-family="FreeSans" font-size="10.00" fill="#000000">getmdmax</text>
</a>
</g>
</g>
<!-- Node15&#45;&gt;Node20 -->
<g id="edge32" class="edge">
<title>Node15&#45;&gt;Node20</title>
<path fill="none" stroke="#191970" d="M142.8283,-299.2858C148.7324,-322.6865 166.6952,-379.7513 206,-404 304.6459,-464.8587 448.7819,-447.8901 521.6643,-433.6454"/>
<polygon fill="#191970" stroke="#191970" points="522.7814,-436.9902 531.8866,-431.5731 521.3905,-430.1298 522.7814,-436.9902"/>
</g>
<!-- Node22 -->
<g id="node22" class="node">
<title>Node22</title>
<g id="a_node22"><a xlink:href="../../d2/d18/medium-simple_8f.html#aed8592c455e0f22092a5f434795d7026" target="_top" xlink:title="maxscatcen">
<polygon fill="none" stroke="#000000" points="208.5,-375 208.5,-395 285.5,-395 285.5,-375 208.5,-375"/>
<text text-anchor="middle" x="247" y="-382" font-family="FreeSans" font-size="10.00" fill="#000000">maxscatcen</text>
</a>
</g>
</g>
<!-- Node15&#45;&gt;Node22 -->
<g id="edge37" class="edge">
<title>Node15&#45;&gt;Node22</title>
<path fill="none" stroke="#191970" d="M148.6067,-299.4869C160.2647,-314.1428 182.9129,-341.0764 206,-360 210.0863,-363.3494 214.6621,-366.5725 219.2346,-369.5267"/>
<polygon fill="#191970" stroke="#191970" points="217.5398,-372.5931 227.894,-374.8386 221.2001,-366.6263 217.5398,-372.5931"/>
</g>
<!-- Node15&#45;&gt;Node24 -->
<g id="edge40" class="edge">
<title>Node15&#45;&gt;Node24</title>
<path fill="none" stroke="#191970" d="M141.6291,-278.9283C145.4569,-248.8763 160.3566,-158.4347 206,-102 208.8491,-98.4773 212.3361,-95.3237 216.0619,-92.5411"/>
<polygon fill="#191970" stroke="#191970" points="218.0022,-95.4542 224.4446,-87.0432 214.1631,-89.6009 218.0022,-95.4542"/>
</g>
<!-- Node17&#45;&gt;Node3 -->
<g id="edge23" class="edge">
<title>Node17&#45;&gt;Node3</title>
<path fill="none" stroke="#191970" d="M825.317,-264C833.2804,-264 841.9756,-264 850.6863,-264"/>
<polygon fill="#191970" stroke="#191970" points="850.8761,-267.5001 860.8761,-264 850.876,-260.5001 850.8761,-267.5001"/>
</g>
<!-- Node18&#45;&gt;Node3 -->
<g id="edge27" class="edge">
<title>Node18&#45;&gt;Node3</title>
<path fill="none" stroke="#191970" d="M281.5161,-198.5422C340.1343,-207.4589 462.9632,-224 567.5,-224 567.5,-224 567.5,-224 679.5,-224 745.1314,-224 819.6948,-239.6723 866.2934,-251.3969"/>
<polygon fill="#191970" stroke="#191970" points="865.5288,-254.814 876.0847,-253.9063 867.2667,-248.0332 865.5288,-254.814"/>
</g>
<!-- Node18&#45;&gt;Node14 -->
<g id="edge26" class="edge">
<title>Node18&#45;&gt;Node14</title>
<path fill="none" stroke="#191970" d="M261.8404,-182.8945C276.9922,-172.8784 301.4272,-157.5462 324,-147 337.7187,-140.5905 353.2071,-134.7785 367.2218,-130.0138"/>
<polygon fill="#191970" stroke="#191970" points="368.7273,-133.2023 377.1199,-126.7359 366.5266,-126.5572 368.7273,-133.2023"/>
</g>
<!-- Node18&#45;&gt;Node16 -->
<g id="edge25" class="edge">
<title>Node18&#45;&gt;Node16</title>
<path fill="none" stroke="#191970" d="M281.5681,-188.7585C291.2535,-187.5701 302.2803,-186.2171 313.7086,-184.8149"/>
<polygon fill="#191970" stroke="#191970" points="314.3321,-188.2647 323.8313,-183.5728 313.4795,-181.3168 314.3321,-188.2647"/>
</g>
<!-- Node19&#45;&gt;Node8 -->
<g id="edge31" class="edge">
<title>Node19&#45;&gt;Node8</title>
<path fill="none" stroke="#191970" d="M601.7377,-321.4938C645.387,-329.1948 723.2638,-341 790.5,-341 790.5,-341 790.5,-341 912,-341 1018.1143,-341 1049.439,-326.1217 1150,-360 1177.5061,-369.2666 1204.9889,-388.5248 1222.6552,-402.5253"/>
<polygon fill="#191970" stroke="#191970" points="1220.5316,-405.3096 1230.4963,-408.9091 1224.9512,-399.8812 1220.5316,-405.3096"/>
</g>
<!-- Node21 -->
<g id="node21" class="node">
<title>Node21</title>
<g id="a_node21"><a xlink:href="../../d2/d18/medium-simple_8f.html#a1cd3c6e61d77c5039b408b84094b6d01" target="_top" xlink:title="gettempmax">
<polygon fill="none" stroke="#000000" points="639,-447 639,-467 720,-467 720,-447 639,-447"/>
<text text-anchor="middle" x="679.5" y="-454" font-family="FreeSans" font-size="10.00" fill="#000000">gettempmax</text>
</a>
</g>
</g>
<!-- Node20&#45;&gt;Node21 -->
<g id="edge33" class="edge">
<title>Node20&#45;&gt;Node21</title>
<path fill="none" stroke="#191970" d="M600.4979,-433.0172C611.7899,-436.4452 624.5922,-440.3316 636.5532,-443.9626"/>
<polygon fill="#191970" stroke="#191970" points="635.7654,-447.3811 646.3509,-446.9369 637.7988,-440.6829 635.7654,-447.3811"/>
</g>
<!-- Node21&#45;&gt;Node7 -->
<g id="edge35" class="edge">
<title>Node21&#45;&gt;Node7</title>
<path fill="none" stroke="#191970" d="M708.0853,-446.9565C721.5506,-442.2255 737.8049,-436.5145 752.3072,-431.4191"/>
<polygon fill="#191970" stroke="#191970" points="753.7372,-434.6265 762.0116,-428.0094 751.4168,-428.0222 753.7372,-434.6265"/>
</g>
<!-- Node21&#45;&gt;Node8 -->
<g id="edge34" class="edge">
<title>Node21&#45;&gt;Node8</title>
<path fill="none" stroke="#191970" d="M720.1676,-460.5862C802.1851,-466.901 992.9933,-476.9419 1150,-450 1170.1353,-446.5448 1191.8282,-439.4119 1209.0896,-432.8585"/>
<polygon fill="#191970" stroke="#191970" points="1210.6589,-436.0029 1218.6956,-429.099 1208.1077,-429.4843 1210.6589,-436.0029"/>
</g>
<!-- Node23 -->
<g id="node23" class="node">
<title>Node23</title>
<g id="a_node23"><a xlink:href="../../d2/d18/medium-simple_8f.html#a41d995c162bbb4ad580e4e406343026a" target="_top" xlink:title="getmsmax">
<polygon fill="none" stroke="#000000" points="375,-375 375,-395 445,-395 445,-375 375,-375"/>
<text text-anchor="middle" x="410" y="-382" font-family="FreeSans" font-size="10.00" fill="#000000">getmsmax</text>
</a>
</g>
</g>
<!-- Node22&#45;&gt;Node23 -->
<g id="edge38" class="edge">
<title>Node22&#45;&gt;Node23</title>
<path fill="none" stroke="#191970" d="M285.6287,-385C309.3528,-385 339.8523,-385 364.7104,-385"/>
<polygon fill="#191970" stroke="#191970" points="364.9824,-388.5001 374.9824,-385 364.9823,-381.5001 364.9824,-388.5001"/>
</g>
<!-- Node23&#45;&gt;Node20 -->
<g id="edge39" class="edge">
<title>Node23&#45;&gt;Node20</title>
<path fill="none" stroke="#191970" d="M445.3461,-393.5279C468.0643,-399.0092 497.7911,-406.1813 522.2311,-412.078"/>
<polygon fill="#191970" stroke="#191970" points="521.4578,-415.4918 531.9998,-414.4349 523.0996,-408.687 521.4578,-415.4918"/>
</g>
<!-- Node24&#45;&gt;Node3 -->
<g id="edge45" class="edge">
<title>Node24&#45;&gt;Node3</title>
<path fill="none" stroke="#191970" d="M288.2337,-77.2109C349.2545,-77.5042 467.2042,-78 567.5,-78 567.5,-78 567.5,-78 679.5,-78 785.8924,-78 871.4952,-198.2291 900.9662,-245.3623"/>
<polygon fill="#191970" stroke="#191970" points="898.0444,-247.2933 906.2465,-253.9998 904.0169,-243.6422 898.0444,-247.2933"/>
</g>
<!-- Node24&#45;&gt;Node14 -->
<g id="edge42" class="edge">
<title>Node24&#45;&gt;Node14</title>
<path fill="none" stroke="#191970" d="M288.1318,-87.0937C312.4188,-93.0537 343.1044,-100.5839 367.6081,-106.5971"/>
<polygon fill="#191970" stroke="#191970" points="366.8053,-110.0038 377.3513,-108.988 368.4736,-103.2055 366.8053,-110.0038"/>
</g>
<!-- Node24&#45;&gt;Node16 -->
<g id="edge41" class="edge">
<title>Node24&#45;&gt;Node16</title>
<path fill="none" stroke="#191970" d="M258.358,-87.1579C272.84,-99.7557 299.008,-121.355 324,-136 334.5176,-142.1632 346.2539,-147.8908 357.5922,-152.9092"/>
<polygon fill="#191970" stroke="#191970" points="356.4181,-156.2142 366.9873,-156.9518 359.1849,-149.7842 356.4181,-156.2142"/>
</g>
<!-- Node25 -->
<g id="node25" class="node">
<title>Node25</title>
<g id="a_node25"><a xlink:href="../../d3/dd5/jewel-2_82_80_8f.html#a128c80a01e220038eb138a985885083a" target="_top" xlink:title="ei">
<polygon fill="none" stroke="#000000" points="665,-29 665,-49 694,-49 694,-29 665,-29"/>
<text text-anchor="middle" x="679.5" y="-36" font-family="FreeSans" font-size="10.00" fill="#000000">ei</text>
</a>
</g>
</g>
<!-- Node24&#45;&gt;Node25 -->
<g id="edge43" class="edge">
<title>Node24&#45;&gt;Node25</title>
<path fill="none" stroke="#191970" d="M288.0532,-69.3104C299.6438,-67.3461 312.2882,-65.3971 324,-64 447.8005,-49.2316 596.9743,-42.2229 654.8666,-39.9084"/>
<polygon fill="#191970" stroke="#191970" points="655.0348,-43.4046 664.8912,-39.5186 654.7627,-36.4099 655.0348,-43.4046"/>
</g>
<!-- Node25&#45;&gt;Node12 -->
<g id="edge44" class="edge">
<title>Node25&#45;&gt;Node12</title>
<path fill="none" stroke="#191970" d="M694.2564,-39C761.9334,-39 1044.9011,-39 1175.4655,-39"/>
<polygon fill="#191970" stroke="#191970" points="1175.7304,-42.5001 1185.7304,-39 1175.7303,-35.5001 1175.7304,-42.5001"/>
</g>
</g>
</svg>
