<?xml version="1.0" encoding="UTF-8" standalone="no"?>
<!DOCTYPE svg PUBLIC "-//W3C//DTD SVG 1.1//EN"
 "http://www.w3.org/Graphics/SVG/1.1/DTD/svg11.dtd">
<!-- Generated by graphviz version 2.40.1 (20161225.0304)
 -->
<!-- Title: makestrings_vac Pages: 1 -->
<svg width="1005pt" height="382pt"
 viewBox="0.00 0.00 1005.00 382.00" xmlns="http://www.w3.org/2000/svg" xmlns:xlink="http://www.w3.org/1999/xlink">
<g id="graph0" class="graph" transform="scale(1 1) rotate(0) translate(4 378)">
<title>makestrings_vac</title>
<!-- Node1 -->
<g id="node1" class="node">
<title>Node1</title>
<polygon fill="#bfbfbf" stroke="#000000" points="0,-97.5 0,-117.5 101,-117.5 101,-97.5 0,-97.5"/>
<text text-anchor="middle" x="50.5" y="-104.5" font-family="FreeSans" font-size="10.00" fill="#000000">makestrings_vac</text>
</g>
<!-- Node2 -->
<g id="node2" class="node">
<title>Node2</title>
<g id="a_node2"><a xlink:href="../../d3/dd5/jewel-2_82_80_8f.html#af2a855ea607d8089b0254268b557100b" target="_top" xlink:title="makestrings">
<polygon fill="none" stroke="#000000" points="137,-97.5 137,-117.5 215,-117.5 215,-97.5 137,-97.5"/>
<text text-anchor="middle" x="176" y="-104.5" font-family="FreeSans" font-size="10.00" fill="#000000">makestrings</text>
</a>
</g>
</g>
<!-- Node1&#45;&gt;Node2 -->
<g id="edge1" class="edge">
<title>Node1&#45;&gt;Node2</title>
<path fill="none" stroke="#191970" d="M111.2733,-107.5C119.9211,-107.5 128.619,-107.5 136.7092,-107.5"/>
<polygon fill="#191970" stroke="#191970" points="111.1839,-104.0001 101.1839,-107.5 111.1839,-111.0001 111.1839,-104.0001"/>
</g>
<!-- Node3 -->
<g id="node3" class="node">
<title>Node3</title>
<g id="a_node3"><a xlink:href="../../d3/dd5/jewel-2_82_80_8f.html#aeb24fa7919aa21c652e9c8f2ec45cb91" target="_top" xlink:title="genevent">
<polygon fill="none" stroke="#000000" points="251,-97.5 251,-117.5 316,-117.5 316,-97.5 251,-97.5"/>
<text text-anchor="middle" x="283.5" y="-104.5" font-family="FreeSans" font-size="10.00" fill="#000000">genevent</text>
</a>
</g>
</g>
<!-- Node2&#45;&gt;Node3 -->
<g id="edge2" class="edge">
<title>Node2&#45;&gt;Node3</title>
<path fill="none" stroke="#191970" d="M225.2268,-107.5C233.9513,-107.5 242.836,-107.5 250.9524,-107.5"/>
<polygon fill="#191970" stroke="#191970" points="225.1141,-104.0001 215.1141,-107.5 225.114,-111.0001 225.1141,-104.0001"/>
</g>
<!-- Node4 -->
<g id="node4" class="node">
<title>Node4</title>
<g id="a_node4"><a xlink:href="../../dd/d2a/classPHHepMCGenHelper.html#ab0c755f6e53c0bf57ccd314a0017d227" target="_top" xlink:title="send HepMC::GenEvent to DST tree. This function takes ownership of evt">
<polygon fill="none" stroke="#000000" points="381,-200.5 381,-232.5 537,-232.5 537,-200.5 381,-200.5"/>
<text text-anchor="start" x="389" y="-219.5" font-family="FreeSans" font-size="10.00" fill="#000000">PHHepMCGenHelper::insert</text>
<text text-anchor="middle" x="459" y="-207.5" font-family="FreeSans" font-size="10.00" fill="#000000">_event</text>
</a>
</g>
</g>
<!-- Node3&#45;&gt;Node4 -->
<g id="edge3" class="edge">
<title>Node3&#45;&gt;Node4</title>
<path fill="none" stroke="#191970" d="M296.7159,-125.7086C309.2974,-141.8683 329.5948,-165.0879 352,-179.5 365.4728,-188.1663 381.2119,-195.0647 396.4089,-200.4424"/>
<polygon fill="#191970" stroke="#191970" points="299.3775,-123.4254 290.5557,-117.5581 293.7932,-127.6462 299.3775,-123.4254"/>
</g>
<!-- Node9 -->
<g id="node9" class="node">
<title>Node9</title>
<g id="a_node9"><a xlink:href="../../d9/d3a/classPHPythia8.html#a5cc4124cc6be2fb2467714e3d3bc5a6a" target="_top" xlink:title="PHPythia8::process\l_event">
<polygon fill="none" stroke="#000000" points="637,-149.5 637,-181.5 750,-181.5 750,-149.5 637,-149.5"/>
<text text-anchor="start" x="645" y="-168.5" font-family="FreeSans" font-size="10.00" fill="#000000">PHPythia8::process</text>
<text text-anchor="middle" x="693.5" y="-156.5" font-family="FreeSans" font-size="10.00" fill="#000000">_event</text>
</a>
</g>
</g>
<!-- Node3&#45;&gt;Node9 -->
<g id="edge14" class="edge">
<title>Node3&#45;&gt;Node9</title>
<path fill="none" stroke="#191970" d="M323.377,-120.4043C332.6935,-123.0664 342.6326,-125.626 352,-127.5 451.1492,-147.335 568.7129,-157.5629 636.8404,-162.2102"/>
<polygon fill="#191970" stroke="#191970" points="324.1506,-116.9832 313.5685,-117.5029 322.1649,-123.6957 324.1506,-116.9832"/>
</g>
<!-- Node10 -->
<g id="node10" class="node">
<title>Node10</title>
<g id="a_node10"><a xlink:href="../../da/df0/classPHSartre.html#aafe9fd92317ab1f7eee67a9354696c4e" target="_top" xlink:title="PHSartre::process_event">
<polygon fill="none" stroke="#000000" points="623.5,-110.5 623.5,-130.5 763.5,-130.5 763.5,-110.5 623.5,-110.5"/>
<text text-anchor="middle" x="693.5" y="-117.5" font-family="FreeSans" font-size="10.00" fill="#000000">PHSartre::process_event</text>
</a>
</g>
</g>
<!-- Node3&#45;&gt;Node10 -->
<g id="edge13" class="edge">
<title>Node3&#45;&gt;Node10</title>
<path fill="none" stroke="#191970" d="M326.2904,-108.8568C396.752,-111.0909 537.8743,-115.5655 623.1815,-118.2704"/>
<polygon fill="#191970" stroke="#191970" points="326.1206,-105.3497 316.0147,-108.531 325.8987,-112.3462 326.1206,-105.3497"/>
</g>
<!-- Node12 -->
<g id="node12" class="node">
<title>Node12</title>
<g id="a_node12"><a xlink:href="../../d3/dd5/jewel-2_82_80_8f.html#a15e2df3184692bfe4ca2261638190094" target="_top" xlink:title="jewel">
<polygon fill="none" stroke="#000000" points="437.5,-78.5 437.5,-98.5 480.5,-98.5 480.5,-78.5 437.5,-78.5"/>
<text text-anchor="middle" x="459" y="-85.5" font-family="FreeSans" font-size="10.00" fill="#000000">jewel</text>
</a>
</g>
</g>
<!-- Node3&#45;&gt;Node12 -->
<g id="edge11" class="edge">
<title>Node3&#45;&gt;Node12</title>
<path fill="none" stroke="#191970" d="M326.0917,-102.8889C361.2596,-99.0816 409.7295,-93.8341 437.3696,-90.8418"/>
<polygon fill="#191970" stroke="#191970" points="325.6641,-99.4147 316.0989,-103.9708 326.4176,-106.374 325.6641,-99.4147"/>
</g>
<!-- Node13 -->
<g id="node13" class="node">
<title>Node13</title>
<g id="a_node13"><a xlink:href="../../d7/df5/pepsiMaineRHIC__noradcorr_8f.html#ac2ed0c0080f3e6d946824efb82e28ab5" target="_top" xlink:title="pepsimainerhic">
<polygon fill="none" stroke="#000000" points="412,-39.5 412,-59.5 506,-59.5 506,-39.5 412,-39.5"/>
<text text-anchor="middle" x="459" y="-46.5" font-family="FreeSans" font-size="10.00" fill="#000000">pepsimainerhic</text>
</a>
</g>
</g>
<!-- Node3&#45;&gt;Node13 -->
<g id="edge12" class="edge">
<title>Node3&#45;&gt;Node13</title>
<path fill="none" stroke="#191970" d="M306.4,-91.8268C319.276,-83.7051 335.9468,-74.2991 352,-68.5 370.9868,-61.6412 392.7945,-57.1966 411.748,-54.3464"/>
<polygon fill="#191970" stroke="#191970" points="304.2353,-89.0594 297.7581,-97.4437 308.0501,-94.9286 304.2353,-89.0594"/>
</g>
<!-- Node14 -->
<g id="node14" class="node">
<title>Node14</title>
<g id="a_node14"><a xlink:href="../../de/d99/classFun4AllHepMCPileupInputManager.html#a81bf2b69c3c4d3aae0aadebafe1c2c2e" target="_top" xlink:title="Fun4AllHepMCPileupInputManager::run">
<polygon fill="none" stroke="#000000" points="352,-.5 352,-20.5 566,-20.5 566,-.5 352,-.5"/>
<text text-anchor="middle" x="459" y="-7.5" font-family="FreeSans" font-size="10.00" fill="#000000">Fun4AllHepMCPileupInputManager::run</text>
</a>
</g>
</g>
<!-- Node3&#45;&gt;Node14 -->
<g id="edge15" class="edge">
<title>Node3&#45;&gt;Node14</title>
<path fill="none" stroke="#191970" d="M294.5536,-88.8223C306.3747,-70.6136 326.8606,-43.6593 352,-29.5 358.4112,-25.889 365.3522,-22.9373 372.513,-20.5278"/>
<polygon fill="#191970" stroke="#191970" points="291.5054,-87.0958 289.183,-97.433 297.4449,-90.8003 291.5054,-87.0958"/>
</g>
<!-- Node5 -->
<g id="node5" class="node">
<title>Node5</title>
<g id="a_node5"><a xlink:href="../../d6/d6f/classFun4AllHepMCInputManager.html#ab6c80a8ee0701bfff5eee3ec3623015c" target="_top" xlink:title="Fun4AllHepMCInputManager::run">
<polygon fill="none" stroke="#000000" points="602,-251.5 602,-271.5 785,-271.5 785,-251.5 602,-251.5"/>
<text text-anchor="middle" x="693.5" y="-258.5" font-family="FreeSans" font-size="10.00" fill="#000000">Fun4AllHepMCInputManager::run</text>
</a>
</g>
</g>
<!-- Node4&#45;&gt;Node5 -->
<g id="edge4" class="edge">
<title>Node4&#45;&gt;Node5</title>
<path fill="none" stroke="#191970" d="M547.248,-233.4346C578.9151,-239.5114 613.5936,-246.1662 641.2316,-251.4698"/>
<polygon fill="#191970" stroke="#191970" points="547.5656,-229.9317 537.0851,-231.4843 546.2463,-236.8063 547.5656,-229.9317"/>
</g>
<!-- Node6 -->
<g id="node6" class="node">
<title>Node6</title>
<g id="a_node6"><a xlink:href="../../db/d1f/classFun4AllOscarInputManager.html#a1537e89c4e652f70747fbbef18ceadc4" target="_top" xlink:title="Fun4AllOscarInputManager\l::ConvertFromOscar">
<polygon fill="none" stroke="#000000" points="616.5,-200.5 616.5,-232.5 770.5,-232.5 770.5,-200.5 616.5,-200.5"/>
<text text-anchor="start" x="624.5" y="-219.5" font-family="FreeSans" font-size="10.00" fill="#000000">Fun4AllOscarInputManager</text>
<text text-anchor="middle" x="693.5" y="-207.5" font-family="FreeSans" font-size="10.00" fill="#000000">::ConvertFromOscar</text>
</a>
</g>
</g>
<!-- Node4&#45;&gt;Node6 -->
<g id="edge5" class="edge">
<title>Node4&#45;&gt;Node6</title>
<path fill="none" stroke="#191970" d="M547.3585,-216.5C569.9812,-216.5 594.1342,-216.5 616.155,-216.5"/>
<polygon fill="#191970" stroke="#191970" points="547.0851,-213.0001 537.0851,-216.5 547.0851,-220.0001 547.0851,-213.0001"/>
</g>
<!-- Node8 -->
<g id="node8" class="node">
<title>Node8</title>
<g id="a_node8"><a xlink:href="../../dd/da8/classPHPythia6.html#a7a70bdd1c198a83ed143d3e2c4516d0d" target="_top" xlink:title="PHPythia6::process\l_event">
<polygon fill="none" stroke="#000000" points="637,-341.5 637,-373.5 750,-373.5 750,-341.5 637,-341.5"/>
<text text-anchor="start" x="645" y="-360.5" font-family="FreeSans" font-size="10.00" fill="#000000">PHPythia6::process</text>
<text text-anchor="middle" x="693.5" y="-348.5" font-family="FreeSans" font-size="10.00" fill="#000000">_event</text>
</a>
</g>
</g>
<!-- Node4&#45;&gt;Node8 -->
<g id="edge7" class="edge">
<title>Node4&#45;&gt;Node8</title>
<path fill="none" stroke="#191970" d="M481.8219,-240.1829C508.3659,-266.4102 554.6285,-308.1908 602,-332.5 612.8419,-338.0636 625.0613,-342.4997 636.9559,-345.9952"/>
<polygon fill="#191970" stroke="#191970" points="484.0971,-237.5079 474.5556,-232.9025 479.1425,-242.4529 484.0971,-237.5079"/>
</g>
<!-- Node4&#45;&gt;Node9 -->
<g id="edge8" class="edge">
<title>Node4&#45;&gt;Node9</title>
<path fill="none" stroke="#191970" d="M542.8537,-198.2632C573.9964,-191.4901 608.5685,-183.9712 636.7306,-177.8464"/>
<polygon fill="#191970" stroke="#191970" points="541.9031,-194.888 532.8754,-200.4333 543.3908,-201.7281 541.9031,-194.888"/>
</g>
<!-- Node4&#45;&gt;Node10 -->
<g id="edge9" class="edge">
<title>Node4&#45;&gt;Node10</title>
<path fill="none" stroke="#191970" d="M492.1818,-195.0439C520.3679,-177.7131 562.435,-153.9128 602,-139.5 611.7564,-135.9459 622.3533,-132.9814 632.7607,-130.5338"/>
<polygon fill="#191970" stroke="#191970" points="490.1793,-192.1676 483.539,-200.4233 493.8783,-198.1105 490.1793,-192.1676"/>
</g>
<!-- Node11 -->
<g id="node11" class="node">
<title>Node11</title>
<g id="a_node11"><a xlink:href="../../d3/d49/classReadEICFiles.html#a49106bf9561329777334154092890af2" target="_top" xlink:title="ReadEICFiles::process\l_event">
<polygon fill="none" stroke="#000000" points="630.5,-290.5 630.5,-322.5 756.5,-322.5 756.5,-290.5 630.5,-290.5"/>
<text text-anchor="start" x="638.5" y="-309.5" font-family="FreeSans" font-size="10.00" fill="#000000">ReadEICFiles::process</text>
<text text-anchor="middle" x="693.5" y="-297.5" font-family="FreeSans" font-size="10.00" fill="#000000">_event</text>
</a>
</g>
</g>
<!-- Node4&#45;&gt;Node11 -->
<g id="edge10" class="edge">
<title>Node4&#45;&gt;Node11</title>
<path fill="none" stroke="#191970" d="M499.633,-237.0759C527.8668,-250.8473 566.6283,-268.7216 602,-281.5 610.983,-284.7452 620.5924,-287.8032 630.0831,-290.5922"/>
<polygon fill="#191970" stroke="#191970" points="501,-233.8479 490.4818,-232.5762 497.9113,-240.1296 501,-233.8479"/>
</g>
<!-- Node7 -->
<g id="node7" class="node">
<title>Node7</title>
<g id="a_node7"><a xlink:href="../../db/d1f/classFun4AllOscarInputManager.html#a4be602bd8c9fe73f9dcc81c8871784a6" target="_top" xlink:title="Fun4AllOscarInputManager::run">
<polygon fill="none" stroke="#000000" points="821,-206.5 821,-226.5 997,-226.5 997,-206.5 821,-206.5"/>
<text text-anchor="middle" x="909" y="-213.5" font-family="FreeSans" font-size="10.00" fill="#000000">Fun4AllOscarInputManager::run</text>
</a>
</g>
</g>
<!-- Node6&#45;&gt;Node7 -->
<g id="edge6" class="edge">
<title>Node6&#45;&gt;Node7</title>
<path fill="none" stroke="#191970" d="M780.7391,-216.5C794.0061,-216.5 807.7039,-216.5 820.9873,-216.5"/>
<polygon fill="#191970" stroke="#191970" points="780.6918,-213.0001 770.6918,-216.5 780.6917,-220.0001 780.6918,-213.0001"/>
</g>
</g>
</svg>
