<?xml version="1.0" encoding="UTF-8" standalone="no"?>
<!DOCTYPE svg PUBLIC "-//W3C//DTD SVG 1.1//EN"
 "http://www.w3.org/Graphics/SVG/1.1/DTD/svg11.dtd">
<!-- Generated by graphviz version 2.40.1 (20161225.0304)
 -->
<!-- Title: getqvec Pages: 1 -->
<svg width="1204pt" height="382pt"
 viewBox="0.00 0.00 1204.00 382.00" xmlns="http://www.w3.org/2000/svg" xmlns:xlink="http://www.w3.org/1999/xlink">
<g id="graph0" class="graph" transform="scale(1 1) rotate(0) translate(4 378)">
<title>getqvec</title>
<!-- Node1 -->
<g id="node1" class="node">
<title>Node1</title>
<polygon fill="#bfbfbf" stroke="#000000" points="0,-97.5 0,-117.5 57,-117.5 57,-97.5 0,-97.5"/>
<text text-anchor="middle" x="28.5" y="-104.5" font-family="FreeSans" font-size="10.00" fill="#000000">getqvec</text>
</g>
<!-- Node2 -->
<g id="node2" class="node">
<title>Node2</title>
<g id="a_node2"><a xlink:href="../../d3/dd5/jewel-2_82_80_8f.html#ab7f466da83baa6283c73d34d5b154f96" target="_top" xlink:title="dofistatescat">
<polygon fill="none" stroke="#000000" points="94.5,-117.5 94.5,-137.5 176.5,-137.5 176.5,-117.5 94.5,-117.5"/>
<text text-anchor="middle" x="135.5" y="-124.5" font-family="FreeSans" font-size="10.00" fill="#000000">dofistatescat</text>
</a>
</g>
</g>
<!-- Node1&#45;&gt;Node2 -->
<g id="edge1" class="edge">
<title>Node1&#45;&gt;Node2</title>
<path fill="none" stroke="#191970" d="M67.1788,-114.7297C75.983,-116.3753 85.3686,-118.1296 94.2745,-119.7943"/>
<polygon fill="#191970" stroke="#191970" points="67.6469,-111.2566 57.174,-112.8596 66.3607,-118.1375 67.6469,-111.2566"/>
</g>
<!-- Node17 -->
<g id="node17" class="node">
<title>Node17</title>
<g id="a_node17"><a xlink:href="../../d3/dd5/jewel-2_82_80_8f.html#ae04a1cde872f06c87fe7d114e5b49d38" target="_top" xlink:title="doinstatescat">
<polygon fill="none" stroke="#000000" points="93,-78.5 93,-98.5 178,-98.5 178,-78.5 93,-78.5"/>
<text text-anchor="middle" x="135.5" y="-85.5" font-family="FreeSans" font-size="10.00" fill="#000000">doinstatescat</text>
</a>
</g>
</g>
<!-- Node1&#45;&gt;Node17 -->
<g id="edge18" class="edge">
<title>Node1&#45;&gt;Node17</title>
<path fill="none" stroke="#191970" d="M67.2787,-100.6141C75.5211,-99.1505 84.2691,-97.5971 92.6533,-96.1083"/>
<polygon fill="#191970" stroke="#191970" points="66.4081,-97.2138 57.174,-102.4083 67.632,-104.106 66.4081,-97.2138"/>
</g>
<!-- Node3 -->
<g id="node3" class="node">
<title>Node3</title>
<g id="a_node3"><a xlink:href="../../d3/dd5/jewel-2_82_80_8f.html#a044420a55f044d6181e574828f502681" target="_top" xlink:title="makebranch">
<polygon fill="none" stroke="#000000" points="214,-97.5 214,-117.5 293,-117.5 293,-97.5 214,-97.5"/>
<text text-anchor="middle" x="253.5" y="-104.5" font-family="FreeSans" font-size="10.00" fill="#000000">makebranch</text>
</a>
</g>
</g>
<!-- Node2&#45;&gt;Node3 -->
<g id="edge2" class="edge">
<title>Node2&#45;&gt;Node3</title>
<path fill="none" stroke="#191970" d="M186.7788,-118.8087C195.7753,-117.2838 205.0155,-115.7177 213.6431,-114.2554"/>
<polygon fill="#191970" stroke="#191970" points="186.0452,-115.383 176.7707,-120.505 187.215,-122.2846 186.0452,-115.383"/>
</g>
<!-- Node4 -->
<g id="node4" class="node">
<title>Node4</title>
<g id="a_node4"><a xlink:href="../../d3/dd5/jewel-2_82_80_8f.html#ae4babd1fd98f3de7eb1da1c259c99065" target="_top" xlink:title="makecascade">
<polygon fill="none" stroke="#000000" points="329,-97.5 329,-117.5 414,-117.5 414,-97.5 329,-97.5"/>
<text text-anchor="middle" x="371.5" y="-104.5" font-family="FreeSans" font-size="10.00" fill="#000000">makecascade</text>
</a>
</g>
</g>
<!-- Node3&#45;&gt;Node4 -->
<g id="edge3" class="edge">
<title>Node3&#45;&gt;Node4</title>
<path fill="none" stroke="#191970" d="M303.3355,-107.5C311.8567,-107.5 320.6393,-107.5 328.9488,-107.5"/>
<polygon fill="#191970" stroke="#191970" points="303.1206,-104.0001 293.1206,-107.5 303.1205,-111.0001 303.1206,-104.0001"/>
</g>
<!-- Node5 -->
<g id="node5" class="node">
<title>Node5</title>
<g id="a_node5"><a xlink:href="../../d3/dd5/jewel-2_82_80_8f.html#aeb24fa7919aa21c652e9c8f2ec45cb91" target="_top" xlink:title="genevent">
<polygon fill="none" stroke="#000000" points="450,-97.5 450,-117.5 515,-117.5 515,-97.5 450,-97.5"/>
<text text-anchor="middle" x="482.5" y="-104.5" font-family="FreeSans" font-size="10.00" fill="#000000">genevent</text>
</a>
</g>
</g>
<!-- Node4&#45;&gt;Node5 -->
<g id="edge4" class="edge">
<title>Node4&#45;&gt;Node5</title>
<path fill="none" stroke="#191970" d="M424.2511,-107.5C432.9798,-107.5 441.7994,-107.5 449.8435,-107.5"/>
<polygon fill="#191970" stroke="#191970" points="424.0981,-104.0001 414.098,-107.5 424.098,-111.0001 424.0981,-104.0001"/>
</g>
<!-- Node6 -->
<g id="node6" class="node">
<title>Node6</title>
<g id="a_node6"><a xlink:href="../../dd/d2a/classPHHepMCGenHelper.html#ab0c755f6e53c0bf57ccd314a0017d227" target="_top" xlink:title="send HepMC::GenEvent to DST tree. This function takes ownership of evt">
<polygon fill="none" stroke="#000000" points="580,-200.5 580,-232.5 736,-232.5 736,-200.5 580,-200.5"/>
<text text-anchor="start" x="588" y="-219.5" font-family="FreeSans" font-size="10.00" fill="#000000">PHHepMCGenHelper::insert</text>
<text text-anchor="middle" x="658" y="-207.5" font-family="FreeSans" font-size="10.00" fill="#000000">_event</text>
</a>
</g>
</g>
<!-- Node5&#45;&gt;Node6 -->
<g id="edge5" class="edge">
<title>Node5&#45;&gt;Node6</title>
<path fill="none" stroke="#191970" d="M495.7159,-125.7086C508.2974,-141.8683 528.5948,-165.0879 551,-179.5 564.4728,-188.1663 580.2119,-195.0647 595.4089,-200.4424"/>
<polygon fill="#191970" stroke="#191970" points="498.3775,-123.4254 489.5557,-117.5581 492.7932,-127.6462 498.3775,-123.4254"/>
</g>
<!-- Node11 -->
<g id="node11" class="node">
<title>Node11</title>
<g id="a_node11"><a xlink:href="../../d9/d3a/classPHPythia8.html#a5cc4124cc6be2fb2467714e3d3bc5a6a" target="_top" xlink:title="PHPythia8::process\l_event">
<polygon fill="none" stroke="#000000" points="836,-149.5 836,-181.5 949,-181.5 949,-149.5 836,-149.5"/>
<text text-anchor="start" x="844" y="-168.5" font-family="FreeSans" font-size="10.00" fill="#000000">PHPythia8::process</text>
<text text-anchor="middle" x="892.5" y="-156.5" font-family="FreeSans" font-size="10.00" fill="#000000">_event</text>
</a>
</g>
</g>
<!-- Node5&#45;&gt;Node11 -->
<g id="edge16" class="edge">
<title>Node5&#45;&gt;Node11</title>
<path fill="none" stroke="#191970" d="M522.377,-120.4043C531.6935,-123.0664 541.6326,-125.626 551,-127.5 650.1492,-147.335 767.7129,-157.5629 835.8404,-162.2102"/>
<polygon fill="#191970" stroke="#191970" points="523.1506,-116.9832 512.5685,-117.5029 521.1649,-123.6957 523.1506,-116.9832"/>
</g>
<!-- Node12 -->
<g id="node12" class="node">
<title>Node12</title>
<g id="a_node12"><a xlink:href="../../da/df0/classPHSartre.html#aafe9fd92317ab1f7eee67a9354696c4e" target="_top" xlink:title="PHSartre::process_event">
<polygon fill="none" stroke="#000000" points="822.5,-110.5 822.5,-130.5 962.5,-130.5 962.5,-110.5 822.5,-110.5"/>
<text text-anchor="middle" x="892.5" y="-117.5" font-family="FreeSans" font-size="10.00" fill="#000000">PHSartre::process_event</text>
</a>
</g>
</g>
<!-- Node5&#45;&gt;Node12 -->
<g id="edge15" class="edge">
<title>Node5&#45;&gt;Node12</title>
<path fill="none" stroke="#191970" d="M525.2904,-108.8568C595.752,-111.0909 736.8743,-115.5655 822.1815,-118.2704"/>
<polygon fill="#191970" stroke="#191970" points="525.1206,-105.3497 515.0147,-108.531 524.8987,-112.3462 525.1206,-105.3497"/>
</g>
<!-- Node14 -->
<g id="node14" class="node">
<title>Node14</title>
<g id="a_node14"><a xlink:href="../../d3/dd5/jewel-2_82_80_8f.html#a15e2df3184692bfe4ca2261638190094" target="_top" xlink:title="jewel">
<polygon fill="none" stroke="#000000" points="636.5,-78.5 636.5,-98.5 679.5,-98.5 679.5,-78.5 636.5,-78.5"/>
<text text-anchor="middle" x="658" y="-85.5" font-family="FreeSans" font-size="10.00" fill="#000000">jewel</text>
</a>
</g>
</g>
<!-- Node5&#45;&gt;Node14 -->
<g id="edge13" class="edge">
<title>Node5&#45;&gt;Node14</title>
<path fill="none" stroke="#191970" d="M525.0917,-102.8889C560.2596,-99.0816 608.7295,-93.8341 636.3696,-90.8418"/>
<polygon fill="#191970" stroke="#191970" points="524.6641,-99.4147 515.0989,-103.9708 525.4176,-106.374 524.6641,-99.4147"/>
</g>
<!-- Node15 -->
<g id="node15" class="node">
<title>Node15</title>
<g id="a_node15"><a xlink:href="../../d7/df5/pepsiMaineRHIC__noradcorr_8f.html#ac2ed0c0080f3e6d946824efb82e28ab5" target="_top" xlink:title="pepsimainerhic">
<polygon fill="none" stroke="#000000" points="611,-39.5 611,-59.5 705,-59.5 705,-39.5 611,-39.5"/>
<text text-anchor="middle" x="658" y="-46.5" font-family="FreeSans" font-size="10.00" fill="#000000">pepsimainerhic</text>
</a>
</g>
</g>
<!-- Node5&#45;&gt;Node15 -->
<g id="edge14" class="edge">
<title>Node5&#45;&gt;Node15</title>
<path fill="none" stroke="#191970" d="M505.4,-91.8268C518.276,-83.7051 534.9468,-74.2991 551,-68.5 569.9868,-61.6412 591.7945,-57.1966 610.748,-54.3464"/>
<polygon fill="#191970" stroke="#191970" points="503.2353,-89.0594 496.7581,-97.4437 507.0501,-94.9286 503.2353,-89.0594"/>
</g>
<!-- Node16 -->
<g id="node16" class="node">
<title>Node16</title>
<g id="a_node16"><a xlink:href="../../de/d99/classFun4AllHepMCPileupInputManager.html#a81bf2b69c3c4d3aae0aadebafe1c2c2e" target="_top" xlink:title="Fun4AllHepMCPileupInputManager::run">
<polygon fill="none" stroke="#000000" points="551,-.5 551,-20.5 765,-20.5 765,-.5 551,-.5"/>
<text text-anchor="middle" x="658" y="-7.5" font-family="FreeSans" font-size="10.00" fill="#000000">Fun4AllHepMCPileupInputManager::run</text>
</a>
</g>
</g>
<!-- Node5&#45;&gt;Node16 -->
<g id="edge17" class="edge">
<title>Node5&#45;&gt;Node16</title>
<path fill="none" stroke="#191970" d="M493.5536,-88.8223C505.3747,-70.6136 525.8606,-43.6593 551,-29.5 557.4112,-25.889 564.3522,-22.9373 571.513,-20.5278"/>
<polygon fill="#191970" stroke="#191970" points="490.5054,-87.0958 488.183,-97.433 496.4449,-90.8003 490.5054,-87.0958"/>
</g>
<!-- Node7 -->
<g id="node7" class="node">
<title>Node7</title>
<g id="a_node7"><a xlink:href="../../d6/d6f/classFun4AllHepMCInputManager.html#ab6c80a8ee0701bfff5eee3ec3623015c" target="_top" xlink:title="Fun4AllHepMCInputManager::run">
<polygon fill="none" stroke="#000000" points="801,-251.5 801,-271.5 984,-271.5 984,-251.5 801,-251.5"/>
<text text-anchor="middle" x="892.5" y="-258.5" font-family="FreeSans" font-size="10.00" fill="#000000">Fun4AllHepMCInputManager::run</text>
</a>
</g>
</g>
<!-- Node6&#45;&gt;Node7 -->
<g id="edge6" class="edge">
<title>Node6&#45;&gt;Node7</title>
<path fill="none" stroke="#191970" d="M746.248,-233.4346C777.9151,-239.5114 812.5936,-246.1662 840.2316,-251.4698"/>
<polygon fill="#191970" stroke="#191970" points="746.5656,-229.9317 736.0851,-231.4843 745.2463,-236.8063 746.5656,-229.9317"/>
</g>
<!-- Node8 -->
<g id="node8" class="node">
<title>Node8</title>
<g id="a_node8"><a xlink:href="../../db/d1f/classFun4AllOscarInputManager.html#a1537e89c4e652f70747fbbef18ceadc4" target="_top" xlink:title="Fun4AllOscarInputManager\l::ConvertFromOscar">
<polygon fill="none" stroke="#000000" points="815.5,-200.5 815.5,-232.5 969.5,-232.5 969.5,-200.5 815.5,-200.5"/>
<text text-anchor="start" x="823.5" y="-219.5" font-family="FreeSans" font-size="10.00" fill="#000000">Fun4AllOscarInputManager</text>
<text text-anchor="middle" x="892.5" y="-207.5" font-family="FreeSans" font-size="10.00" fill="#000000">::ConvertFromOscar</text>
</a>
</g>
</g>
<!-- Node6&#45;&gt;Node8 -->
<g id="edge7" class="edge">
<title>Node6&#45;&gt;Node8</title>
<path fill="none" stroke="#191970" d="M746.3585,-216.5C768.9812,-216.5 793.1342,-216.5 815.155,-216.5"/>
<polygon fill="#191970" stroke="#191970" points="746.0851,-213.0001 736.0851,-216.5 746.0851,-220.0001 746.0851,-213.0001"/>
</g>
<!-- Node10 -->
<g id="node10" class="node">
<title>Node10</title>
<g id="a_node10"><a xlink:href="../../dd/da8/classPHPythia6.html#a7a70bdd1c198a83ed143d3e2c4516d0d" target="_top" xlink:title="PHPythia6::process\l_event">
<polygon fill="none" stroke="#000000" points="836,-341.5 836,-373.5 949,-373.5 949,-341.5 836,-341.5"/>
<text text-anchor="start" x="844" y="-360.5" font-family="FreeSans" font-size="10.00" fill="#000000">PHPythia6::process</text>
<text text-anchor="middle" x="892.5" y="-348.5" font-family="FreeSans" font-size="10.00" fill="#000000">_event</text>
</a>
</g>
</g>
<!-- Node6&#45;&gt;Node10 -->
<g id="edge9" class="edge">
<title>Node6&#45;&gt;Node10</title>
<path fill="none" stroke="#191970" d="M680.8219,-240.1829C707.3659,-266.4102 753.6285,-308.1908 801,-332.5 811.8419,-338.0636 824.0613,-342.4997 835.9559,-345.9952"/>
<polygon fill="#191970" stroke="#191970" points="683.0971,-237.5079 673.5556,-232.9025 678.1425,-242.4529 683.0971,-237.5079"/>
</g>
<!-- Node6&#45;&gt;Node11 -->
<g id="edge10" class="edge">
<title>Node6&#45;&gt;Node11</title>
<path fill="none" stroke="#191970" d="M741.8537,-198.2632C772.9964,-191.4901 807.5685,-183.9712 835.7306,-177.8464"/>
<polygon fill="#191970" stroke="#191970" points="740.9031,-194.888 731.8754,-200.4333 742.3908,-201.7281 740.9031,-194.888"/>
</g>
<!-- Node6&#45;&gt;Node12 -->
<g id="edge11" class="edge">
<title>Node6&#45;&gt;Node12</title>
<path fill="none" stroke="#191970" d="M691.1818,-195.0439C719.3679,-177.7131 761.435,-153.9128 801,-139.5 810.7564,-135.9459 821.3533,-132.9814 831.7607,-130.5338"/>
<polygon fill="#191970" stroke="#191970" points="689.1793,-192.1676 682.539,-200.4233 692.8783,-198.1105 689.1793,-192.1676"/>
</g>
<!-- Node13 -->
<g id="node13" class="node">
<title>Node13</title>
<g id="a_node13"><a xlink:href="../../d3/d49/classReadEICFiles.html#a49106bf9561329777334154092890af2" target="_top" xlink:title="ReadEICFiles::process\l_event">
<polygon fill="none" stroke="#000000" points="829.5,-290.5 829.5,-322.5 955.5,-322.5 955.5,-290.5 829.5,-290.5"/>
<text text-anchor="start" x="837.5" y="-309.5" font-family="FreeSans" font-size="10.00" fill="#000000">ReadEICFiles::process</text>
<text text-anchor="middle" x="892.5" y="-297.5" font-family="FreeSans" font-size="10.00" fill="#000000">_event</text>
</a>
</g>
</g>
<!-- Node6&#45;&gt;Node13 -->
<g id="edge12" class="edge">
<title>Node6&#45;&gt;Node13</title>
<path fill="none" stroke="#191970" d="M699.5415,-237.0032C727.7351,-250.441 766.093,-267.804 801,-280.5 810.6222,-283.9997 820.9505,-287.3292 831.0786,-290.3658"/>
<polygon fill="#191970" stroke="#191970" points="700.9192,-233.7821 690.3895,-232.6089 697.8893,-240.0925 700.9192,-233.7821"/>
</g>
<!-- Node9 -->
<g id="node9" class="node">
<title>Node9</title>
<g id="a_node9"><a xlink:href="../../db/d1f/classFun4AllOscarInputManager.html#a4be602bd8c9fe73f9dcc81c8871784a6" target="_top" xlink:title="Fun4AllOscarInputManager::run">
<polygon fill="none" stroke="#000000" points="1020,-206.5 1020,-226.5 1196,-226.5 1196,-206.5 1020,-206.5"/>
<text text-anchor="middle" x="1108" y="-213.5" font-family="FreeSans" font-size="10.00" fill="#000000">Fun4AllOscarInputManager::run</text>
</a>
</g>
</g>
<!-- Node8&#45;&gt;Node9 -->
<g id="edge8" class="edge">
<title>Node8&#45;&gt;Node9</title>
<path fill="none" stroke="#191970" d="M979.7391,-216.5C993.0061,-216.5 1006.7039,-216.5 1019.9873,-216.5"/>
<polygon fill="#191970" stroke="#191970" points="979.6918,-213.0001 969.6918,-216.5 979.6917,-220.0001 979.6918,-213.0001"/>
</g>
<!-- Node17&#45;&gt;Node3 -->
<g id="edge19" class="edge">
<title>Node17&#45;&gt;Node3</title>
<path fill="none" stroke="#191970" d="M188.078,-96.966C196.6875,-98.3522 205.4815,-99.7682 213.7151,-101.094"/>
<polygon fill="#191970" stroke="#191970" points="188.53,-93.4937 178.1007,-95.3594 187.4171,-100.4047 188.53,-93.4937"/>
</g>
</g>
</svg>
