<?xml version="1.0" encoding="UTF-8" standalone="no"?>
<!DOCTYPE svg PUBLIC "-//W3C//DTD SVG 1.1//EN"
 "http://www.w3.org/Graphics/SVG/1.1/DTD/svg11.dtd">
<!-- Generated by graphviz version 2.40.1 (20161225.0304)
 -->
<!-- Title: getsscat Pages: 1 -->
<svg width="1317pt" height="382pt"
 viewBox="0.00 0.00 1317.00 382.00" xmlns="http://www.w3.org/2000/svg" xmlns:xlink="http://www.w3.org/1999/xlink">
<g id="graph0" class="graph" transform="scale(1 1) rotate(0) translate(4 378)">
<title>getsscat</title>
<!-- Node1 -->
<g id="node1" class="node">
<title>Node1</title>
<polygon fill="#bfbfbf" stroke="#000000" points="0,-117.5 0,-137.5 59,-137.5 59,-117.5 0,-117.5"/>
<text text-anchor="middle" x="29.5" y="-124.5" font-family="FreeSans" font-size="10.00" fill="#000000">getsscat</text>
</g>
<!-- Node2 -->
<g id="node2" class="node">
<title>Node2</title>
<g id="a_node2"><a xlink:href="../../d3/dd5/jewel-2_82_80_8f.html#ae04a1cde872f06c87fe7d114e5b49d38" target="_top" xlink:title="doinstatescat">
<polygon fill="none" stroke="#000000" points="206,-117.5 206,-137.5 291,-137.5 291,-117.5 206,-117.5"/>
<text text-anchor="middle" x="248.5" y="-124.5" font-family="FreeSans" font-size="10.00" fill="#000000">doinstatescat</text>
</a>
</g>
</g>
<!-- Node1&#45;&gt;Node2 -->
<g id="edge1" class="edge">
<title>Node1&#45;&gt;Node2</title>
<path fill="none" stroke="#191970" d="M69.376,-127.5C108.0099,-127.5 166.4026,-127.5 205.9255,-127.5"/>
<polygon fill="#191970" stroke="#191970" points="69.0353,-124.0001 59.0353,-127.5 69.0353,-131.0001 69.0353,-124.0001"/>
</g>
<!-- Node17 -->
<g id="node17" class="node">
<title>Node17</title>
<g id="a_node17"><a xlink:href="../../d3/dd5/jewel-2_82_80_8f.html#a923a1f45be3eceaecbfd953ac461db5b" target="_top" xlink:title="getdeltat">
<polygon fill="none" stroke="#000000" points="101,-78.5 101,-98.5 164,-98.5 164,-78.5 101,-78.5"/>
<text text-anchor="middle" x="132.5" y="-85.5" font-family="FreeSans" font-size="10.00" fill="#000000">getdeltat</text>
</a>
</g>
</g>
<!-- Node1&#45;&gt;Node17 -->
<g id="edge18" class="edge">
<title>Node1&#45;&gt;Node17</title>
<path fill="none" stroke="#191970" d="M65.4259,-113.897C78.7917,-108.8362 93.7024,-103.1903 106.0648,-98.5094"/>
<polygon fill="#191970" stroke="#191970" points="64.1377,-110.6422 56.0251,-117.4565 66.6165,-117.1886 64.1377,-110.6422"/>
</g>
<!-- Node19 -->
<g id="node19" class="node">
<title>Node19</title>
<g id="a_node19"><a xlink:href="../../d3/dd5/jewel-2_82_80_8f.html#a514f8effde5f4e2d9bfcffd5104a7266" target="_top" xlink:title="getpnorad1">
<polygon fill="none" stroke="#000000" points="95,-156.5 95,-176.5 170,-176.5 170,-156.5 95,-156.5"/>
<text text-anchor="middle" x="132.5" y="-163.5" font-family="FreeSans" font-size="10.00" fill="#000000">getpnorad1</text>
</a>
</g>
</g>
<!-- Node1&#45;&gt;Node19 -->
<g id="edge22" class="edge">
<title>Node1&#45;&gt;Node19</title>
<path fill="none" stroke="#191970" d="M65.4259,-141.103C78.7917,-146.1638 93.7024,-151.8097 106.0648,-156.4906"/>
<polygon fill="#191970" stroke="#191970" points="66.6165,-137.8114 56.0251,-137.5435 64.1377,-144.3578 66.6165,-137.8114"/>
</g>
<!-- Node3 -->
<g id="node3" class="node">
<title>Node3</title>
<g id="a_node3"><a xlink:href="../../d3/dd5/jewel-2_82_80_8f.html#a044420a55f044d6181e574828f502681" target="_top" xlink:title="makebranch">
<polygon fill="none" stroke="#000000" points="327,-97.5 327,-117.5 406,-117.5 406,-97.5 327,-97.5"/>
<text text-anchor="middle" x="366.5" y="-104.5" font-family="FreeSans" font-size="10.00" fill="#000000">makebranch</text>
</a>
</g>
</g>
<!-- Node2&#45;&gt;Node3 -->
<g id="edge2" class="edge">
<title>Node2&#45;&gt;Node3</title>
<path fill="none" stroke="#191970" d="M301.078,-118.5885C309.6875,-117.1292 318.4815,-115.6387 326.7151,-114.2432"/>
<polygon fill="#191970" stroke="#191970" points="300.3752,-115.1576 291.1007,-120.2795 301.545,-122.0592 300.3752,-115.1576"/>
</g>
<!-- Node4 -->
<g id="node4" class="node">
<title>Node4</title>
<g id="a_node4"><a xlink:href="../../d3/dd5/jewel-2_82_80_8f.html#ae4babd1fd98f3de7eb1da1c259c99065" target="_top" xlink:title="makecascade">
<polygon fill="none" stroke="#000000" points="442,-97.5 442,-117.5 527,-117.5 527,-97.5 442,-97.5"/>
<text text-anchor="middle" x="484.5" y="-104.5" font-family="FreeSans" font-size="10.00" fill="#000000">makecascade</text>
</a>
</g>
</g>
<!-- Node3&#45;&gt;Node4 -->
<g id="edge3" class="edge">
<title>Node3&#45;&gt;Node4</title>
<path fill="none" stroke="#191970" d="M416.3355,-107.5C424.8567,-107.5 433.6393,-107.5 441.9488,-107.5"/>
<polygon fill="#191970" stroke="#191970" points="416.1206,-104.0001 406.1206,-107.5 416.1205,-111.0001 416.1206,-104.0001"/>
</g>
<!-- Node5 -->
<g id="node5" class="node">
<title>Node5</title>
<g id="a_node5"><a xlink:href="../../d3/dd5/jewel-2_82_80_8f.html#aeb24fa7919aa21c652e9c8f2ec45cb91" target="_top" xlink:title="genevent">
<polygon fill="none" stroke="#000000" points="563,-97.5 563,-117.5 628,-117.5 628,-97.5 563,-97.5"/>
<text text-anchor="middle" x="595.5" y="-104.5" font-family="FreeSans" font-size="10.00" fill="#000000">genevent</text>
</a>
</g>
</g>
<!-- Node4&#45;&gt;Node5 -->
<g id="edge4" class="edge">
<title>Node4&#45;&gt;Node5</title>
<path fill="none" stroke="#191970" d="M537.2511,-107.5C545.9798,-107.5 554.7994,-107.5 562.8435,-107.5"/>
<polygon fill="#191970" stroke="#191970" points="537.0981,-104.0001 527.098,-107.5 537.098,-111.0001 537.0981,-104.0001"/>
</g>
<!-- Node6 -->
<g id="node6" class="node">
<title>Node6</title>
<g id="a_node6"><a xlink:href="../../dd/d2a/classPHHepMCGenHelper.html#ab0c755f6e53c0bf57ccd314a0017d227" target="_top" xlink:title="send HepMC::GenEvent to DST tree. This function takes ownership of evt">
<polygon fill="none" stroke="#000000" points="693,-200.5 693,-232.5 849,-232.5 849,-200.5 693,-200.5"/>
<text text-anchor="start" x="701" y="-219.5" font-family="FreeSans" font-size="10.00" fill="#000000">PHHepMCGenHelper::insert</text>
<text text-anchor="middle" x="771" y="-207.5" font-family="FreeSans" font-size="10.00" fill="#000000">_event</text>
</a>
</g>
</g>
<!-- Node5&#45;&gt;Node6 -->
<g id="edge5" class="edge">
<title>Node5&#45;&gt;Node6</title>
<path fill="none" stroke="#191970" d="M608.7159,-125.7086C621.2974,-141.8683 641.5948,-165.0879 664,-179.5 677.4728,-188.1663 693.2119,-195.0647 708.4089,-200.4424"/>
<polygon fill="#191970" stroke="#191970" points="611.3775,-123.4254 602.5557,-117.5581 605.7932,-127.6462 611.3775,-123.4254"/>
</g>
<!-- Node11 -->
<g id="node11" class="node">
<title>Node11</title>
<g id="a_node11"><a xlink:href="../../d9/d3a/classPHPythia8.html#a5cc4124cc6be2fb2467714e3d3bc5a6a" target="_top" xlink:title="PHPythia8::process\l_event">
<polygon fill="none" stroke="#000000" points="949,-149.5 949,-181.5 1062,-181.5 1062,-149.5 949,-149.5"/>
<text text-anchor="start" x="957" y="-168.5" font-family="FreeSans" font-size="10.00" fill="#000000">PHPythia8::process</text>
<text text-anchor="middle" x="1005.5" y="-156.5" font-family="FreeSans" font-size="10.00" fill="#000000">_event</text>
</a>
</g>
</g>
<!-- Node5&#45;&gt;Node11 -->
<g id="edge16" class="edge">
<title>Node5&#45;&gt;Node11</title>
<path fill="none" stroke="#191970" d="M637.3004,-120.2137C646.0613,-122.5623 655.2863,-124.8048 664,-126.5 763.2854,-145.815 880.805,-156.6498 948.8871,-161.7667"/>
<polygon fill="#191970" stroke="#191970" points="638.2298,-116.8395 627.6582,-117.5407 636.3597,-123.585 638.2298,-116.8395"/>
</g>
<!-- Node12 -->
<g id="node12" class="node">
<title>Node12</title>
<g id="a_node12"><a xlink:href="../../da/df0/classPHSartre.html#aafe9fd92317ab1f7eee67a9354696c4e" target="_top" xlink:title="PHSartre::process_event">
<polygon fill="none" stroke="#000000" points="935.5,-110.5 935.5,-130.5 1075.5,-130.5 1075.5,-110.5 935.5,-110.5"/>
<text text-anchor="middle" x="1005.5" y="-117.5" font-family="FreeSans" font-size="10.00" fill="#000000">PHSartre::process_event</text>
</a>
</g>
</g>
<!-- Node5&#45;&gt;Node12 -->
<g id="edge15" class="edge">
<title>Node5&#45;&gt;Node12</title>
<path fill="none" stroke="#191970" d="M638.2904,-108.8568C708.752,-111.0909 849.8743,-115.5655 935.1815,-118.2704"/>
<polygon fill="#191970" stroke="#191970" points="638.1206,-105.3497 628.0147,-108.531 637.8987,-112.3462 638.1206,-105.3497"/>
</g>
<!-- Node14 -->
<g id="node14" class="node">
<title>Node14</title>
<g id="a_node14"><a xlink:href="../../d3/dd5/jewel-2_82_80_8f.html#a15e2df3184692bfe4ca2261638190094" target="_top" xlink:title="jewel">
<polygon fill="none" stroke="#000000" points="749.5,-78.5 749.5,-98.5 792.5,-98.5 792.5,-78.5 749.5,-78.5"/>
<text text-anchor="middle" x="771" y="-85.5" font-family="FreeSans" font-size="10.00" fill="#000000">jewel</text>
</a>
</g>
</g>
<!-- Node5&#45;&gt;Node14 -->
<g id="edge13" class="edge">
<title>Node5&#45;&gt;Node14</title>
<path fill="none" stroke="#191970" d="M638.0917,-102.8889C673.2596,-99.0816 721.7295,-93.8341 749.3696,-90.8418"/>
<polygon fill="#191970" stroke="#191970" points="637.6641,-99.4147 628.0989,-103.9708 638.4176,-106.374 637.6641,-99.4147"/>
</g>
<!-- Node15 -->
<g id="node15" class="node">
<title>Node15</title>
<g id="a_node15"><a xlink:href="../../d7/df5/pepsiMaineRHIC__noradcorr_8f.html#ac2ed0c0080f3e6d946824efb82e28ab5" target="_top" xlink:title="pepsimainerhic">
<polygon fill="none" stroke="#000000" points="724,-39.5 724,-59.5 818,-59.5 818,-39.5 724,-39.5"/>
<text text-anchor="middle" x="771" y="-46.5" font-family="FreeSans" font-size="10.00" fill="#000000">pepsimainerhic</text>
</a>
</g>
</g>
<!-- Node5&#45;&gt;Node15 -->
<g id="edge14" class="edge">
<title>Node5&#45;&gt;Node15</title>
<path fill="none" stroke="#191970" d="M618.4,-91.8268C631.276,-83.7051 647.9468,-74.2991 664,-68.5 682.9868,-61.6412 704.7945,-57.1966 723.748,-54.3464"/>
<polygon fill="#191970" stroke="#191970" points="616.2353,-89.0594 609.7581,-97.4437 620.0501,-94.9286 616.2353,-89.0594"/>
</g>
<!-- Node16 -->
<g id="node16" class="node">
<title>Node16</title>
<g id="a_node16"><a xlink:href="../../de/d99/classFun4AllHepMCPileupInputManager.html#a81bf2b69c3c4d3aae0aadebafe1c2c2e" target="_top" xlink:title="Fun4AllHepMCPileupInputManager::run">
<polygon fill="none" stroke="#000000" points="664,-.5 664,-20.5 878,-20.5 878,-.5 664,-.5"/>
<text text-anchor="middle" x="771" y="-7.5" font-family="FreeSans" font-size="10.00" fill="#000000">Fun4AllHepMCPileupInputManager::run</text>
</a>
</g>
</g>
<!-- Node5&#45;&gt;Node16 -->
<g id="edge17" class="edge">
<title>Node5&#45;&gt;Node16</title>
<path fill="none" stroke="#191970" d="M606.5536,-88.8223C618.3747,-70.6136 638.8606,-43.6593 664,-29.5 670.4112,-25.889 677.3522,-22.9373 684.513,-20.5278"/>
<polygon fill="#191970" stroke="#191970" points="603.5054,-87.0958 601.183,-97.433 609.4449,-90.8003 603.5054,-87.0958"/>
</g>
<!-- Node7 -->
<g id="node7" class="node">
<title>Node7</title>
<g id="a_node7"><a xlink:href="../../d6/d6f/classFun4AllHepMCInputManager.html#ab6c80a8ee0701bfff5eee3ec3623015c" target="_top" xlink:title="Fun4AllHepMCInputManager::run">
<polygon fill="none" stroke="#000000" points="914,-251.5 914,-271.5 1097,-271.5 1097,-251.5 914,-251.5"/>
<text text-anchor="middle" x="1005.5" y="-258.5" font-family="FreeSans" font-size="10.00" fill="#000000">Fun4AllHepMCInputManager::run</text>
</a>
</g>
</g>
<!-- Node6&#45;&gt;Node7 -->
<g id="edge6" class="edge">
<title>Node6&#45;&gt;Node7</title>
<path fill="none" stroke="#191970" d="M859.248,-233.4346C890.9151,-239.5114 925.5936,-246.1662 953.2316,-251.4698"/>
<polygon fill="#191970" stroke="#191970" points="859.5656,-229.9317 849.0851,-231.4843 858.2463,-236.8063 859.5656,-229.9317"/>
</g>
<!-- Node8 -->
<g id="node8" class="node">
<title>Node8</title>
<g id="a_node8"><a xlink:href="../../db/d1f/classFun4AllOscarInputManager.html#a1537e89c4e652f70747fbbef18ceadc4" target="_top" xlink:title="Fun4AllOscarInputManager\l::ConvertFromOscar">
<polygon fill="none" stroke="#000000" points="928.5,-200.5 928.5,-232.5 1082.5,-232.5 1082.5,-200.5 928.5,-200.5"/>
<text text-anchor="start" x="936.5" y="-219.5" font-family="FreeSans" font-size="10.00" fill="#000000">Fun4AllOscarInputManager</text>
<text text-anchor="middle" x="1005.5" y="-207.5" font-family="FreeSans" font-size="10.00" fill="#000000">::ConvertFromOscar</text>
</a>
</g>
</g>
<!-- Node6&#45;&gt;Node8 -->
<g id="edge7" class="edge">
<title>Node6&#45;&gt;Node8</title>
<path fill="none" stroke="#191970" d="M859.3585,-216.5C881.9812,-216.5 906.1342,-216.5 928.155,-216.5"/>
<polygon fill="#191970" stroke="#191970" points="859.0851,-213.0001 849.0851,-216.5 859.0851,-220.0001 859.0851,-213.0001"/>
</g>
<!-- Node10 -->
<g id="node10" class="node">
<title>Node10</title>
<g id="a_node10"><a xlink:href="../../dd/da8/classPHPythia6.html#a7a70bdd1c198a83ed143d3e2c4516d0d" target="_top" xlink:title="PHPythia6::process\l_event">
<polygon fill="none" stroke="#000000" points="949,-341.5 949,-373.5 1062,-373.5 1062,-341.5 949,-341.5"/>
<text text-anchor="start" x="957" y="-360.5" font-family="FreeSans" font-size="10.00" fill="#000000">PHPythia6::process</text>
<text text-anchor="middle" x="1005.5" y="-348.5" font-family="FreeSans" font-size="10.00" fill="#000000">_event</text>
</a>
</g>
</g>
<!-- Node6&#45;&gt;Node10 -->
<g id="edge9" class="edge">
<title>Node6&#45;&gt;Node10</title>
<path fill="none" stroke="#191970" d="M793.8219,-240.1829C820.3659,-266.4102 866.6285,-308.1908 914,-332.5 924.8419,-338.0636 937.0613,-342.4997 948.9559,-345.9952"/>
<polygon fill="#191970" stroke="#191970" points="796.0971,-237.5079 786.5556,-232.9025 791.1425,-242.4529 796.0971,-237.5079"/>
</g>
<!-- Node6&#45;&gt;Node11 -->
<g id="edge10" class="edge">
<title>Node6&#45;&gt;Node11</title>
<path fill="none" stroke="#191970" d="M854.8537,-198.2632C885.9964,-191.4901 920.5685,-183.9712 948.7306,-177.8464"/>
<polygon fill="#191970" stroke="#191970" points="853.9031,-194.888 844.8754,-200.4333 855.3908,-201.7281 853.9031,-194.888"/>
</g>
<!-- Node6&#45;&gt;Node12 -->
<g id="edge11" class="edge">
<title>Node6&#45;&gt;Node12</title>
<path fill="none" stroke="#191970" d="M804.7738,-195.1404C833.0024,-178.1373 874.8243,-154.8824 914,-140.5 924.8377,-136.5212 936.7019,-133.211 948.1898,-130.5046"/>
<polygon fill="#191970" stroke="#191970" points="802.8248,-192.2293 796.1069,-200.422 806.4676,-198.2068 802.8248,-192.2293"/>
</g>
<!-- Node13 -->
<g id="node13" class="node">
<title>Node13</title>
<g id="a_node13"><a xlink:href="../../d3/d49/classReadEICFiles.html#a49106bf9561329777334154092890af2" target="_top" xlink:title="ReadEICFiles::process\l_event">
<polygon fill="none" stroke="#000000" points="942.5,-290.5 942.5,-322.5 1068.5,-322.5 1068.5,-290.5 942.5,-290.5"/>
<text text-anchor="start" x="950.5" y="-309.5" font-family="FreeSans" font-size="10.00" fill="#000000">ReadEICFiles::process</text>
<text text-anchor="middle" x="1005.5" y="-297.5" font-family="FreeSans" font-size="10.00" fill="#000000">_event</text>
</a>
</g>
</g>
<!-- Node6&#45;&gt;Node13 -->
<g id="edge12" class="edge">
<title>Node6&#45;&gt;Node13</title>
<path fill="none" stroke="#191970" d="M811.633,-237.0759C839.8668,-250.8473 878.6283,-268.7216 914,-281.5 922.983,-284.7452 932.5924,-287.8032 942.0831,-290.5922"/>
<polygon fill="#191970" stroke="#191970" points="813,-233.8479 802.4818,-232.5762 809.9113,-240.1296 813,-233.8479"/>
</g>
<!-- Node9 -->
<g id="node9" class="node">
<title>Node9</title>
<g id="a_node9"><a xlink:href="../../db/d1f/classFun4AllOscarInputManager.html#a4be602bd8c9fe73f9dcc81c8871784a6" target="_top" xlink:title="Fun4AllOscarInputManager::run">
<polygon fill="none" stroke="#000000" points="1133,-206.5 1133,-226.5 1309,-226.5 1309,-206.5 1133,-206.5"/>
<text text-anchor="middle" x="1221" y="-213.5" font-family="FreeSans" font-size="10.00" fill="#000000">Fun4AllOscarInputManager::run</text>
</a>
</g>
</g>
<!-- Node8&#45;&gt;Node9 -->
<g id="edge8" class="edge">
<title>Node8&#45;&gt;Node9</title>
<path fill="none" stroke="#191970" d="M1092.7391,-216.5C1106.0061,-216.5 1119.7039,-216.5 1132.9873,-216.5"/>
<polygon fill="#191970" stroke="#191970" points="1092.6918,-213.0001 1082.6918,-216.5 1092.6917,-220.0001 1092.6918,-213.0001"/>
</g>
<!-- Node17&#45;&gt;Node2 -->
<g id="edge21" class="edge">
<title>Node17&#45;&gt;Node2</title>
<path fill="none" stroke="#191970" d="M172.0854,-101.8089C187.3598,-106.9442 204.5353,-112.7188 218.7283,-117.4906"/>
<polygon fill="#191970" stroke="#191970" points="172.9669,-98.4128 162.3729,-98.5435 170.7361,-105.0478 172.9669,-98.4128"/>
</g>
<!-- Node18 -->
<g id="node18" class="node">
<title>Node18</title>
<g id="a_node18"><a xlink:href="../../d3/dd5/jewel-2_82_80_8f.html#ab7f466da83baa6283c73d34d5b154f96" target="_top" xlink:title="dofistatescat">
<polygon fill="none" stroke="#000000" points="207.5,-78.5 207.5,-98.5 289.5,-98.5 289.5,-78.5 207.5,-78.5"/>
<text text-anchor="middle" x="248.5" y="-85.5" font-family="FreeSans" font-size="10.00" fill="#000000">dofistatescat</text>
</a>
</g>
</g>
<!-- Node17&#45;&gt;Node18 -->
<g id="edge19" class="edge">
<title>Node17&#45;&gt;Node18</title>
<path fill="none" stroke="#191970" d="M174.2047,-88.5C184.9584,-88.5 196.5255,-88.5 207.2557,-88.5"/>
<polygon fill="#191970" stroke="#191970" points="174.1975,-85.0001 164.1975,-88.5 174.1975,-92.0001 174.1975,-85.0001"/>
</g>
<!-- Node18&#45;&gt;Node3 -->
<g id="edge20" class="edge">
<title>Node18&#45;&gt;Node3</title>
<path fill="none" stroke="#191970" d="M299.7788,-96.7568C308.7753,-98.2053 318.0155,-99.6932 326.6431,-101.0824"/>
<polygon fill="#191970" stroke="#191970" points="300.1999,-93.2796 289.7707,-95.1453 299.0871,-100.1905 300.1999,-93.2796"/>
</g>
<!-- Node19&#45;&gt;Node2 -->
<g id="edge23" class="edge">
<title>Node19&#45;&gt;Node2</title>
<path fill="none" stroke="#191970" d="M172.0854,-153.1911C187.3598,-148.0558 204.5353,-142.2812 218.7283,-137.5094"/>
<polygon fill="#191970" stroke="#191970" points="170.7361,-149.9522 162.3729,-156.4565 172.9669,-156.5872 170.7361,-149.9522"/>
</g>
</g>
</svg>
