<?xml version="1.0" encoding="UTF-8" standalone="no"?>
<!DOCTYPE svg PUBLIC "-//W3C//DTD SVG 1.1//EN"
 "http://www.w3.org/Graphics/SVG/1.1/DTD/svg11.dtd">
<!-- Generated by graphviz version 2.40.1 (20161225.0304)
 -->
<!-- Title: dokinematics Pages: 1 -->
<svg width="1518pt" height="647pt"
 viewBox="0.00 0.00 1518.00 646.87" xmlns="http://www.w3.org/2000/svg" xmlns:xlink="http://www.w3.org/1999/xlink">
<g id="graph0" class="graph" transform="scale(1 1) rotate(0) translate(4 642.8687)">
<title>dokinematics</title>
<!-- Node1 -->
<g id="node1" class="node">
<title>Node1</title>
<polygon fill="#bfbfbf" stroke="#000000" points="0,-326.3687 0,-346.3687 84,-346.3687 84,-326.3687 0,-326.3687"/>
<text text-anchor="middle" x="42" y="-333.3687" font-family="FreeSans" font-size="10.00" fill="#000000">dokinematics</text>
</g>
<!-- Node2 -->
<g id="node2" class="node">
<title>Node2</title>
<g id="a_node2"><a xlink:href="../../df/d1d/classFairParTSQLIo.html#a06c4cab2789b4f18c25fafe39338ca4e" target="_top" xlink:title="FairParTSQLIo::check">
<polygon fill="none" stroke="#000000" points="145,-578.3687 145,-598.3687 267,-598.3687 267,-578.3687 145,-578.3687"/>
<text text-anchor="middle" x="206" y="-585.3687" font-family="FreeSans" font-size="10.00" fill="#000000">FairParTSQLIo::check</text>
</a>
</g>
</g>
<!-- Node1&#45;&gt;Node2 -->
<g id="edge1" class="edge">
<title>Node1&#45;&gt;Node2</title>
<path fill="none" stroke="#191970" d="M44.0102,-346.4757C52.288,-387.1042 84.9566,-537.8434 120,-569.3687 124.5151,-573.4305 129.6993,-576.6893 135.2364,-579.2964"/>
<polygon fill="#191970" stroke="#191970" points="134.2458,-582.6685 144.832,-583.0956 136.8227,-576.1601 134.2458,-582.6685"/>
</g>
<!-- Node5 -->
<g id="node5" class="node">
<title>Node5</title>
<g id="a_node5"><a xlink:href="../../db/d4e/predicates_8cxx.html#a0e05cf94eeeea515483f825d7a3b7dd6" target="_top" xlink:title="compress">
<polygon fill="none" stroke="#000000" points="173.5,-539.3687 173.5,-559.3687 238.5,-559.3687 238.5,-539.3687 173.5,-539.3687"/>
<text text-anchor="middle" x="206" y="-546.3687" font-family="FreeSans" font-size="10.00" fill="#000000">compress</text>
</a>
</g>
</g>
<!-- Node1&#45;&gt;Node5 -->
<g id="edge5" class="edge">
<title>Node1&#45;&gt;Node5</title>
<path fill="none" stroke="#191970" d="M43.1742,-346.6923C47.3225,-378.2631 64.1868,-474.3995 120,-524.3687 131.8594,-534.9863 147.9869,-541.11 163.0722,-544.636"/>
<polygon fill="#191970" stroke="#191970" points="162.791,-548.1492 173.2842,-546.6853 164.1683,-541.2861 162.791,-548.1492"/>
</g>
<!-- Node6 -->
<g id="node6" class="node">
<title>Node6</title>
<g id="a_node6"><a xlink:href="../../df/de8/cemc_8C.html#a72d4716092b469b4bc1d816359a90e14" target="_top" xlink:title="cos">
<polygon fill="none" stroke="#000000" points="373,-306.3687 373,-326.3687 406,-326.3687 406,-306.3687 373,-306.3687"/>
<text text-anchor="middle" x="389.5" y="-313.3687" font-family="FreeSans" font-size="10.00" fill="#000000">cos</text>
</a>
</g>
</g>
<!-- Node1&#45;&gt;Node6 -->
<g id="edge6" class="edge">
<title>Node1&#45;&gt;Node6</title>
<path fill="none" stroke="#191970" d="M84.2629,-333.9363C156.6316,-329.7712 302.2895,-321.388 362.5024,-317.9225"/>
<polygon fill="#191970" stroke="#191970" points="362.9318,-321.4037 372.7142,-317.3348 362.5295,-314.4152 362.9318,-321.4037"/>
</g>
<!-- Node7 -->
<g id="node7" class="node">
<title>Node7</title>
<g id="a_node7"><a xlink:href="../../dc/d33/classActs_1_1Frustum.html#a2eb94728422fe7a45439bfed71d41e4a" target="_top" xlink:title="Acts::Frustum::dir">
<polygon fill="none" stroke="#000000" points="152.5,-461.3687 152.5,-481.3687 259.5,-481.3687 259.5,-461.3687 152.5,-461.3687"/>
<text text-anchor="middle" x="206" y="-468.3687" font-family="FreeSans" font-size="10.00" fill="#000000">Acts::Frustum::dir</text>
</a>
</g>
</g>
<!-- Node1&#45;&gt;Node7 -->
<g id="edge7" class="edge">
<title>Node1&#45;&gt;Node7</title>
<path fill="none" stroke="#191970" d="M45.8063,-346.6691C54.8444,-369.6106 79.8898,-425.0377 120,-452.3687 126.8274,-457.0208 134.6038,-460.5556 142.6244,-463.2374"/>
<polygon fill="#191970" stroke="#191970" points="141.9021,-466.6723 152.4816,-466.1034 143.8564,-459.9506 141.9021,-466.6723"/>
</g>
<!-- Node8 -->
<g id="node8" class="node">
<title>Node8</title>
<g id="a_node8"><a xlink:href="../../db/da1/classFairLogger.html#aca7a4fd0af5e622c9635f62996a7334d" target="_top" xlink:title="Flush the streams.">
<polygon fill="none" stroke="#000000" points="156,-422.3687 156,-442.3687 256,-442.3687 256,-422.3687 156,-422.3687"/>
<text text-anchor="middle" x="206" y="-429.3687" font-family="FreeSans" font-size="10.00" fill="#000000">FairLogger::flush</text>
</a>
</g>
</g>
<!-- Node1&#45;&gt;Node8 -->
<g id="edge8" class="edge">
<title>Node1&#45;&gt;Node8</title>
<path fill="none" stroke="#191970" d="M50.2787,-346.4005C63.4689,-361.7466 90.7651,-390.9899 120,-407.3687 128.4568,-412.1066 137.8951,-416.0195 147.3352,-419.2283"/>
<polygon fill="#191970" stroke="#191970" points="146.5425,-422.6483 157.1324,-422.3224 148.6506,-415.9733 146.5425,-422.6483"/>
</g>
<!-- Node9 -->
<g id="node9" class="node">
<title>Node9</title>
<g id="a_node9"><a xlink:href="../../d2/d18/medium-simple_8f.html#a4c3c426f7b73441851ebd368f54397fb" target="_top" xlink:title="gettemp">
<polygon fill="none" stroke="#000000" points="360,-498.3687 360,-518.3687 419,-518.3687 419,-498.3687 360,-498.3687"/>
<text text-anchor="middle" x="389.5" y="-505.3687" font-family="FreeSans" font-size="10.00" fill="#000000">gettemp</text>
</a>
</g>
</g>
<!-- Node1&#45;&gt;Node9 -->
<g id="edge9" class="edge">
<title>Node1&#45;&gt;Node9</title>
<path fill="none" stroke="#191970" d="M43.6098,-346.6147C48.7218,-375.3156 67.4664,-456.6655 120,-491.3687 189.9672,-537.5883 293.7272,-527.5197 349.9012,-517.2565"/>
<polygon fill="#191970" stroke="#191970" points="350.6575,-520.6753 359.8175,-515.3514 349.3367,-513.801 350.6575,-520.6753"/>
</g>
<!-- Node14 -->
<g id="node14" class="node">
<title>Node14</title>
<g id="a_node14"><a xlink:href="../../dc/db0/classActs_1_1IVisualization.html#a9e155efef029673b4b9830ef5dfc1af3" target="_top" xlink:title="Acts::IVisualization\l::line">
<polygon fill="none" stroke="#000000" points="739,-415.3687 739,-447.3687 851,-447.3687 851,-415.3687 739,-415.3687"/>
<text text-anchor="start" x="747" y="-434.3687" font-family="FreeSans" font-size="10.00" fill="#000000">Acts::IVisualization</text>
<text text-anchor="middle" x="795" y="-422.3687" font-family="FreeSans" font-size="10.00" fill="#000000">::line</text>
</a>
</g>
</g>
<!-- Node1&#45;&gt;Node14 -->
<g id="edge21" class="edge">
<title>Node1&#45;&gt;Node14</title>
<path fill="none" stroke="#191970" d="M68.7045,-346.4416C83.5989,-351.6738 102.6033,-357.7198 120,-361.3687 339.8811,-407.4884 606.7196,-423.7402 728.5554,-429.0306"/>
<polygon fill="#191970" stroke="#191970" points="728.695,-432.5396 738.8341,-429.4657 728.9911,-425.5458 728.695,-432.5396"/>
</g>
<!-- Node15 -->
<g id="node15" class="node">
<title>Node15</title>
<g id="a_node15"><a xlink:href="../../d4/d3e/classActs_1_1Logger.html#aee9e687247532b5175713e66b2d2121e" target="_top" xlink:title="create output stream object with internal cache">
<polygon fill="none" stroke="#000000" points="744,-345.3687 744,-365.3687 846,-365.3687 846,-345.3687 744,-345.3687"/>
<text text-anchor="middle" x="795" y="-352.3687" font-family="FreeSans" font-size="10.00" fill="#000000">Acts::Logger::log</text>
</a>
</g>
</g>
<!-- Node1&#45;&gt;Node15 -->
<g id="edge22" class="edge">
<title>Node1&#45;&gt;Node15</title>
<path fill="none" stroke="#191970" d="M84.2182,-340.168C149.5789,-345.7126 279.2336,-355.3687 389.5,-355.3687 389.5,-355.3687 389.5,-355.3687 548.5,-355.3687 611.4264,-355.3687 683.3887,-355.3687 733.2467,-355.3687"/>
<polygon fill="#191970" stroke="#191970" points="733.5392,-358.8688 743.5392,-355.3687 733.5391,-351.8688 733.5392,-358.8688"/>
</g>
<!-- Node18 -->
<g id="node18" class="node">
<title>Node18</title>
<g id="a_node18"><a xlink:href="../../d0/d83/classActsFatras_1_1LandauDistribution.html#a692e73569c82329696eadc0fe9ff5bdf" target="_top" xlink:title="Return the currently configured distribution parameters.">
<polygon fill="none" stroke="#000000" points="120,-256.3687 120,-288.3687 292,-288.3687 292,-256.3687 120,-256.3687"/>
<text text-anchor="start" x="128" y="-275.3687" font-family="FreeSans" font-size="10.00" fill="#000000">ActsFatras::LandauDistribution</text>
<text text-anchor="middle" x="206" y="-263.3687" font-family="FreeSans" font-size="10.00" fill="#000000">::param</text>
</a>
</g>
</g>
<!-- Node1&#45;&gt;Node18 -->
<g id="edge23" class="edge">
<title>Node1&#45;&gt;Node18</title>
<path fill="none" stroke="#191970" d="M64.7337,-326.3659C80.2221,-319.646 101.2418,-310.7114 120,-303.3687 129.7438,-299.5546 140.1728,-295.649 150.2878,-291.9519"/>
<polygon fill="#191970" stroke="#191970" points="151.6496,-295.1811 159.8569,-288.481 149.2627,-288.6006 151.6496,-295.1811"/>
</g>
<!-- Node19 -->
<g id="node19" class="node">
<title>Node19</title>
<g id="a_node19"><a xlink:href="../../db/dc0/classHiStrng.html#a9c8d7f68590dc5bf34483b740c49ba0b" target="_top" xlink:title="HiStrng::pt">
<polygon fill="none" stroke="#000000" points="170.5,-178.3687 170.5,-198.3687 241.5,-198.3687 241.5,-178.3687 170.5,-178.3687"/>
<text text-anchor="middle" x="206" y="-185.3687" font-family="FreeSans" font-size="10.00" fill="#000000">HiStrng::pt</text>
</a>
</g>
</g>
<!-- Node1&#45;&gt;Node19 -->
<g id="edge24" class="edge">
<title>Node1&#45;&gt;Node19</title>
<path fill="none" stroke="#191970" d="M45.1407,-326.1614C53.2278,-301.671 77.1903,-239.3206 120,-208.3687 131.6953,-199.9128 146.4201,-194.9715 160.3642,-192.1033"/>
<polygon fill="#191970" stroke="#191970" points="161.078,-195.5316 170.3252,-190.3606 159.8716,-188.6364 161.078,-195.5316"/>
</g>
<!-- Node24 -->
<g id="node24" class="node">
<title>Node24</title>
<g id="a_node24"><a xlink:href="../../d6/dcf/pythia6425mod_8f.html#a6cee1eea51c820d9e90932c9eca205b7" target="_top" xlink:title="pyp">
<polygon fill="none" stroke="#000000" points="657,-150.3687 657,-170.3687 692,-170.3687 692,-150.3687 657,-150.3687"/>
<text text-anchor="middle" x="674.5" y="-157.3687" font-family="FreeSans" font-size="10.00" fill="#000000">pyp</text>
</a>
</g>
</g>
<!-- Node1&#45;&gt;Node24 -->
<g id="edge29" class="edge">
<title>Node1&#45;&gt;Node24</title>
<path fill="none" stroke="#191970" d="M43.3194,-326.3512C47.8072,-296.6462 65.3736,-208.6148 120,-168.3687 285.3549,-46.5431 560.1757,-122.1999 647.1995,-150.8068"/>
<polygon fill="#191970" stroke="#191970" points="646.2673,-154.1857 656.8612,-154.0458 648.4923,-147.5487 646.2673,-154.1857"/>
</g>
<!-- Node27 -->
<g id="node27" class="node">
<title>Node27</title>
<g id="a_node27"><a xlink:href="../../da/d0a/CylinderKalman_8cpp.html#ab74daa0c9784c63e060bfb98cc06fbf5" target="_top" xlink:title="sign">
<polygon fill="none" stroke="#000000" points="944,-111.3687 944,-131.3687 981,-131.3687 981,-111.3687 944,-111.3687"/>
<text text-anchor="middle" x="962.5" y="-118.3687" font-family="FreeSans" font-size="10.00" fill="#000000">sign</text>
</a>
</g>
</g>
<!-- Node1&#45;&gt;Node27 -->
<g id="edge55" class="edge">
<title>Node1&#45;&gt;Node27</title>
<path fill="none" stroke="#191970" d="M43.8262,-326.3483C51.5063,-285.3827 82.5256,-131.4356 120,-102.3687 214.8793,-28.7757 269.4249,-83.3687 389.5,-83.3687 389.5,-83.3687 389.5,-83.3687 674.5,-83.3687 770.0811,-83.3687 881.984,-104.195 933.6582,-115.0117"/>
<polygon fill="#191970" stroke="#191970" points="933.2338,-118.4996 943.7432,-117.1568 934.6902,-111.6528 933.2338,-118.4996"/>
</g>
<!-- Node29 -->
<g id="node29" class="node">
<title>Node29</title>
<g id="a_node29"><a xlink:href="../../d6/dcf/pythia6425mod_8f.html#ac28b7ef95cee2881a46f71d3a88d05ac" target="_top" xlink:title="pyr">
<polygon fill="none" stroke="#000000" points="946,-15.3687 946,-35.3687 979,-35.3687 979,-15.3687 946,-15.3687"/>
<text text-anchor="middle" x="962.5" y="-22.3687" font-family="FreeSans" font-size="10.00" fill="#000000">pyr</text>
</a>
</g>
</g>
<!-- Node1&#45;&gt;Node29 -->
<g id="edge37" class="edge">
<title>Node1&#45;&gt;Node29</title>
<path fill="none" stroke="#191970" d="M43.4359,-326.288C50.0642,-281.1678 79.1318,-98.3151 120,-60.3687 209.5844,22.8111 267.2533,-5.3687 389.5,-5.3687 389.5,-5.3687 389.5,-5.3687 674.5,-5.3687 770.9236,-5.3687 885.071,-16.6637 935.848,-22.2774"/>
<polygon fill="#191970" stroke="#191970" points="935.6415,-25.7761 945.9697,-23.4146 936.4231,-18.8199 935.6415,-25.7761"/>
</g>
<!-- Node30 -->
<g id="node30" class="node">
<title>Node30</title>
<g id="a_node30"><a xlink:href="../../d6/dcf/pythia6425mod_8f.html#a98ffa3df00dbe1c8a9944e3453e44580" target="_top" xlink:title="pyrobo">
<polygon fill="none" stroke="#000000" points="180.5,-217.3687 180.5,-237.3687 231.5,-237.3687 231.5,-217.3687 180.5,-217.3687"/>
<text text-anchor="middle" x="206" y="-224.3687" font-family="FreeSans" font-size="10.00" fill="#000000">pyrobo</text>
</a>
</g>
</g>
<!-- Node1&#45;&gt;Node30 -->
<g id="edge38" class="edge">
<title>Node1&#45;&gt;Node30</title>
<path fill="none" stroke="#191970" d="M47.8429,-326.2641C59.2061,-307.5691 86.1621,-267.6445 120,-247.3687 135.1009,-238.3201 153.9605,-233.3651 170.1674,-230.6518"/>
<polygon fill="#191970" stroke="#191970" points="170.9744,-234.0715 180.3683,-229.1721 169.9694,-227.144 170.9744,-234.0715"/>
</g>
<!-- Node3 -->
<g id="node3" class="node">
<title>Node3</title>
<g id="a_node3"><a xlink:href="../../d4/d94/classFairDbMultConnector.html#a2399ff488644824095dccd650220143b" target="_top" xlink:title="FairDbMultConnector\l::GetStatus">
<polygon fill="none" stroke="#000000" points="328,-606.3687 328,-638.3687 451,-638.3687 451,-606.3687 328,-606.3687"/>
<text text-anchor="start" x="336" y="-625.3687" font-family="FreeSans" font-size="10.00" fill="#000000">FairDbMultConnector</text>
<text text-anchor="middle" x="389.5" y="-613.3687" font-family="FreeSans" font-size="10.00" fill="#000000">::GetStatus</text>
</a>
</g>
</g>
<!-- Node2&#45;&gt;Node3 -->
<g id="edge2" class="edge">
<title>Node2&#45;&gt;Node3</title>
<path fill="none" stroke="#191970" d="M260.0636,-598.3859C278.1588,-601.7387 298.6212,-605.5301 317.8457,-609.0921"/>
<polygon fill="#191970" stroke="#191970" points="317.2966,-612.5499 327.7669,-610.9304 318.5719,-605.667 317.2966,-612.5499"/>
</g>
<!-- Node4 -->
<g id="node4" class="node">
<title>Node4</title>
<g id="a_node4"><a xlink:href="../../d4/d94/classFairDbMultConnector.html#a00e82f4de0cf48347c851be1b22ba1fd" target="_top" xlink:title="FairDbMultConnector\l::GetNumDb">
<polygon fill="none" stroke="#000000" points="487,-586.3687 487,-618.3687 610,-618.3687 610,-586.3687 487,-586.3687"/>
<text text-anchor="start" x="495" y="-605.3687" font-family="FreeSans" font-size="10.00" fill="#000000">FairDbMultConnector</text>
<text text-anchor="middle" x="548.5" y="-593.3687" font-family="FreeSans" font-size="10.00" fill="#000000">::GetNumDb</text>
</a>
</g>
</g>
<!-- Node2&#45;&gt;Node4 -->
<g id="edge4" class="edge">
<title>Node2&#45;&gt;Node4</title>
<path fill="none" stroke="#191970" d="M267.1763,-590.3695C316.7444,-592.05 388.386,-594.6133 451,-597.3687 459.3368,-597.7356 468.0732,-598.1463 476.7472,-598.5703"/>
<polygon fill="#191970" stroke="#191970" points="476.7122,-602.0728 486.8733,-599.0725 477.0589,-595.0814 476.7122,-602.0728"/>
</g>
<!-- Node3&#45;&gt;Node4 -->
<g id="edge3" class="edge">
<title>Node3&#45;&gt;Node4</title>
<path fill="none" stroke="#191970" d="M451.4288,-614.5789C459.6737,-613.5418 468.1839,-612.4713 476.5803,-611.4152"/>
<polygon fill="#191970" stroke="#191970" points="477.2552,-614.858 486.7402,-610.1372 476.3815,-607.9127 477.2552,-614.858"/>
</g>
<!-- Node10 -->
<g id="node10" class="node">
<title>Node10</title>
<g id="a_node10"><a xlink:href="../../d8/d1a/classHiMain1.html#afa91501b2c79bdaf9274e067b9d97e31" target="_top" xlink:title="HiMain1::n0">
<polygon fill="none" stroke="#000000" points="756.5,-499.3687 756.5,-519.3687 833.5,-519.3687 833.5,-499.3687 756.5,-499.3687"/>
<text text-anchor="middle" x="795" y="-506.3687" font-family="FreeSans" font-size="10.00" fill="#000000">HiMain1::n0</text>
</a>
</g>
</g>
<!-- Node9&#45;&gt;Node10 -->
<g id="edge10" class="edge">
<title>Node9&#45;&gt;Node10</title>
<path fill="none" stroke="#191970" d="M419.1294,-516.0729C438.3299,-520.6602 463.9638,-526.0303 487,-528.3687 578.1971,-537.6259 685.0756,-526.0211 745.9349,-517.306"/>
<polygon fill="#191970" stroke="#191970" points="746.6367,-520.7406 756.0232,-515.827 745.6213,-513.8146 746.6367,-520.7406"/>
</g>
<!-- Node13 -->
<g id="node13" class="node">
<title>Node13</title>
<g id="a_node13"><a xlink:href="../../d2/d18/medium-simple_8f.html#a1fdcab7823056a622e99f159e74b0a1e" target="_top" xlink:title="nthick">
<polygon fill="none" stroke="#000000" points="650.5,-460.3687 650.5,-480.3687 698.5,-480.3687 698.5,-460.3687 650.5,-460.3687"/>
<text text-anchor="middle" x="674.5" y="-467.3687" font-family="FreeSans" font-size="10.00" fill="#000000">nthick</text>
</a>
</g>
</g>
<!-- Node9&#45;&gt;Node13 -->
<g id="edge13" class="edge">
<title>Node9&#45;&gt;Node13</title>
<path fill="none" stroke="#191970" d="M419.249,-501.8381C438.4972,-497.7946 464.1393,-492.7472 487,-489.3687 540.1739,-481.5103 602.3172,-475.9133 640.0199,-472.9115"/>
<polygon fill="#191970" stroke="#191970" points="640.7411,-476.366 650.4385,-472.0988 640.1966,-469.3872 640.7411,-476.366"/>
</g>
<!-- Node9&#45;&gt;Node15 -->
<g id="edge16" class="edge">
<title>Node9&#45;&gt;Node15</title>
<path fill="none" stroke="#191970" d="M415.9775,-498.3003C435.5837,-490.8498 462.9521,-480.4601 487,-471.3687 585.2693,-434.2175 701.2584,-390.5947 758.8233,-368.9602"/>
<polygon fill="#191970" stroke="#191970" points="760.083,-372.2258 768.2126,-365.4317 757.6205,-365.6733 760.083,-372.2258"/>
</g>
<!-- Node17 -->
<g id="node17" class="node">
<title>Node17</title>
<g id="a_node17"><a xlink:href="../../d2/d18/medium-simple_8f.html#a58e0410e81664819969cd2981fd7cd27" target="_top" xlink:title="npart">
<polygon fill="none" stroke="#000000" points="526.5,-498.3687 526.5,-518.3687 570.5,-518.3687 570.5,-498.3687 526.5,-498.3687"/>
<text text-anchor="middle" x="548.5" y="-505.3687" font-family="FreeSans" font-size="10.00" fill="#000000">npart</text>
</a>
</g>
</g>
<!-- Node9&#45;&gt;Node17 -->
<g id="edge18" class="edge">
<title>Node9&#45;&gt;Node17</title>
<path fill="none" stroke="#191970" d="M419.034,-508.3687C446.5875,-508.3687 487.6072,-508.3687 516.0608,-508.3687"/>
<polygon fill="#191970" stroke="#191970" points="516.2963,-511.8688 526.2963,-508.3687 516.2963,-504.8688 516.2963,-511.8688"/>
</g>
<!-- Node11 -->
<g id="node11" class="node">
<title>Node11</title>
<g id="a_node11"><a xlink:href="../../d8/d1a/classHiMain1.html#abdd4d6ac793897447c6d9f7b9e6d20ca" target="_top" xlink:title="HiMain1::init">
<polygon fill="none" stroke="#000000" points="922,-499.3687 922,-519.3687 1003,-519.3687 1003,-499.3687 922,-499.3687"/>
<text text-anchor="middle" x="962.5" y="-506.3687" font-family="FreeSans" font-size="10.00" fill="#000000">HiMain1::init</text>
</a>
</g>
</g>
<!-- Node10&#45;&gt;Node11 -->
<g id="edge11" class="edge">
<title>Node10&#45;&gt;Node11</title>
<path fill="none" stroke="#191970" d="M833.8489,-509.3687C857.0375,-509.3687 886.7464,-509.3687 911.7716,-509.3687"/>
<polygon fill="#191970" stroke="#191970" points="911.8193,-512.8688 921.8193,-509.3687 911.8193,-505.8688 911.8193,-512.8688"/>
</g>
<!-- Node12 -->
<g id="node12" class="node">
<title>Node12</title>
<g id="a_node12"><a xlink:href="../../d7/dc3/HiMain1_8h.html#af413dd2854a4d96511498e79f1519c57" target="_top" xlink:title="himain1_address_">
<polygon fill="none" stroke="#000000" points="1074,-499.3687 1074,-519.3687 1182,-519.3687 1182,-499.3687 1074,-499.3687"/>
<text text-anchor="middle" x="1128" y="-506.3687" font-family="FreeSans" font-size="10.00" fill="#000000">himain1_address_</text>
</a>
</g>
</g>
<!-- Node11&#45;&gt;Node12 -->
<g id="edge12" class="edge">
<title>Node11&#45;&gt;Node12</title>
<path fill="none" stroke="#191970" d="M1003.4101,-509.3687C1021.5889,-509.3687 1043.4236,-509.3687 1063.7008,-509.3687"/>
<polygon fill="#191970" stroke="#191970" points="1063.8199,-512.8688 1073.8198,-509.3687 1063.8198,-505.8688 1063.8199,-512.8688"/>
</g>
<!-- Node13&#45;&gt;Node10 -->
<g id="edge14" class="edge">
<title>Node13&#45;&gt;Node10</title>
<path fill="none" stroke="#191970" d="M698.5954,-478.1672C714.5472,-483.33 735.8646,-490.2294 754.3972,-496.2275"/>
<polygon fill="#191970" stroke="#191970" points="753.4803,-499.6095 764.0722,-499.3589 755.6358,-492.9496 753.4803,-499.6095"/>
</g>
<!-- Node13&#45;&gt;Node14 -->
<g id="edge15" class="edge">
<title>Node13&#45;&gt;Node14</title>
<path fill="none" stroke="#191970" d="M698.5954,-462.5702C709.4277,-459.0643 722.7344,-454.7576 735.963,-450.4761"/>
<polygon fill="#191970" stroke="#191970" points="737.1089,-453.7841 745.5452,-447.3748 734.9534,-447.1242 737.1089,-453.7841"/>
</g>
<!-- Node16 -->
<g id="node16" class="node">
<title>Node16</title>
<g id="a_node16"><a xlink:href="../../df/dce/classActs_1_1Logging_1_1OutputPrintPolicy.html#ab113823970013e1e7f310b36509136ac" target="_top" xlink:title="handle output of debug message">
<polygon fill="none" stroke="#000000" points="887,-339.3687 887,-371.3687 1038,-371.3687 1038,-339.3687 887,-339.3687"/>
<text text-anchor="start" x="895" y="-358.3687" font-family="FreeSans" font-size="10.00" fill="#000000">Acts::Logging::OutputPrint</text>
<text text-anchor="middle" x="962.5" y="-346.3687" font-family="FreeSans" font-size="10.00" fill="#000000">Policy::flush</text>
</a>
</g>
</g>
<!-- Node15&#45;&gt;Node16 -->
<g id="edge17" class="edge">
<title>Node15&#45;&gt;Node16</title>
<path fill="none" stroke="#191970" d="M846.1657,-355.3687C855.9353,-355.3687 866.4058,-355.3687 876.9149,-355.3687"/>
<polygon fill="#191970" stroke="#191970" points="876.9808,-358.8688 886.9808,-355.3687 876.9807,-351.8688 876.9808,-358.8688"/>
</g>
<!-- Node17&#45;&gt;Node10 -->
<g id="edge19" class="edge">
<title>Node17&#45;&gt;Node10</title>
<path fill="none" stroke="#191970" d="M570.81,-508.4592C610.1412,-508.6188 692.6784,-508.9536 745.8848,-509.1694"/>
<polygon fill="#191970" stroke="#191970" points="746.0993,-512.6702 756.1135,-509.2109 746.1278,-505.6703 746.0993,-512.6702"/>
</g>
<!-- Node17&#45;&gt;Node13 -->
<g id="edge20" class="edge">
<title>Node17&#45;&gt;Node13</title>
<path fill="none" stroke="#191970" d="M570.7362,-501.6625C590.0962,-495.8238 618.4565,-487.2707 640.637,-480.5813"/>
<polygon fill="#191970" stroke="#191970" points="641.7753,-483.8938 650.3387,-477.6554 639.754,-477.192 641.7753,-483.8938"/>
</g>
<!-- Node20 -->
<g id="node20" class="node">
<title>Node20</title>
<g id="a_node20"><a xlink:href="../../db/dc0/classHiStrng.html#ae9b634a387f81c6ae391eb695acce897" target="_top" xlink:title="HiStrng::init">
<polygon fill="none" stroke="#000000" points="351,-228.3687 351,-248.3687 428,-248.3687 428,-228.3687 351,-228.3687"/>
<text text-anchor="middle" x="389.5" y="-235.3687" font-family="FreeSans" font-size="10.00" fill="#000000">HiStrng::init</text>
</a>
</g>
</g>
<!-- Node19&#45;&gt;Node20 -->
<g id="edge25" class="edge">
<title>Node19&#45;&gt;Node20</title>
<path fill="none" stroke="#191970" d="M241.705,-196.0838C257.222,-199.5883 275.5721,-203.9369 292,-208.3687 293.4736,-208.7662 321.6448,-217.4386 347.3269,-225.3567"/>
<polygon fill="#191970" stroke="#191970" points="346.3997,-228.7333 356.9871,-228.3356 348.4625,-222.0441 346.3997,-228.7333"/>
</g>
<!-- Node22 -->
<g id="node22" class="node">
<title>Node22</title>
<g id="a_node22"><a xlink:href="../../db/dc0/classHiStrng.html#a38019be113af95d58e24f9b442003a42" target="_top" xlink:title="HiStrng::lenI">
<polygon fill="none" stroke="#000000" points="350,-189.3687 350,-209.3687 429,-209.3687 429,-189.3687 350,-189.3687"/>
<text text-anchor="middle" x="389.5" y="-196.3687" font-family="FreeSans" font-size="10.00" fill="#000000">HiStrng::lenI</text>
</a>
</g>
</g>
<!-- Node19&#45;&gt;Node22 -->
<g id="edge27" class="edge">
<title>Node19&#45;&gt;Node22</title>
<path fill="none" stroke="#191970" d="M241.8163,-190.5157C269.7411,-192.1897 308.8443,-194.5337 339.7993,-196.3894"/>
<polygon fill="#191970" stroke="#191970" points="339.7652,-199.8935 349.9568,-196.9982 340.1841,-192.906 339.7652,-199.8935"/>
</g>
<!-- Node23 -->
<g id="node23" class="node">
<title>Node23</title>
<g id="a_node23"><a xlink:href="../../db/dc0/classHiStrng.html#ab8cb049ff2a23c6a47aa48163d605c06" target="_top" xlink:title="HiStrng::lenJ">
<polygon fill="none" stroke="#000000" points="350,-150.3687 350,-170.3687 429,-170.3687 429,-150.3687 350,-150.3687"/>
<text text-anchor="middle" x="389.5" y="-157.3687" font-family="FreeSans" font-size="10.00" fill="#000000">HiStrng::lenJ</text>
</a>
</g>
</g>
<!-- Node19&#45;&gt;Node23 -->
<g id="edge28" class="edge">
<title>Node19&#45;&gt;Node23</title>
<path fill="none" stroke="#191970" d="M241.8163,-182.9035C269.7411,-178.6425 308.8443,-172.6758 339.7993,-167.9524"/>
<polygon fill="#191970" stroke="#191970" points="340.5991,-171.371 349.9568,-166.4025 339.5432,-164.4511 340.5991,-171.371"/>
</g>
<!-- Node21 -->
<g id="node21" class="node">
<title>Node21</title>
<g id="a_node21"><a xlink:href="../../d7/ddd/HiStrng_8h.html#a4f3643d4eb276c559bd3ef28e3a09c4c" target="_top" xlink:title="histrng_address_">
<polygon fill="none" stroke="#000000" points="497.5,-189.3687 497.5,-209.3687 599.5,-209.3687 599.5,-189.3687 497.5,-189.3687"/>
<text text-anchor="middle" x="548.5" y="-196.3687" font-family="FreeSans" font-size="10.00" fill="#000000">histrng_address_</text>
</a>
</g>
</g>
<!-- Node20&#45;&gt;Node21 -->
<g id="edge26" class="edge">
<title>Node20&#45;&gt;Node21</title>
<path fill="none" stroke="#191970" d="M428.3958,-228.8282C449.2981,-223.7012 475.3196,-217.3186 497.7921,-211.8065"/>
<polygon fill="#191970" stroke="#191970" points="498.6292,-215.205 507.5075,-209.4234 496.9616,-208.4065 498.6292,-215.205"/>
</g>
<!-- Node24&#45;&gt;Node15 -->
<g id="edge36" class="edge">
<title>Node24&#45;&gt;Node15</title>
<path fill="none" stroke="#191970" d="M677.6551,-170.5197C688.8061,-206.1516 726.3664,-324.0369 739,-336.3687 740.288,-337.6259 741.6622,-338.8 743.1048,-339.8965"/>
<polygon fill="#191970" stroke="#191970" points="741.6395,-343.1045 751.9901,-345.3663 745.3091,-337.1435 741.6395,-343.1045"/>
</g>
<!-- Node25 -->
<g id="node25" class="node">
<title>Node25</title>
<g id="a_node25"><a xlink:href="../../d6/dcf/pythia6425mod_8f.html#a27f75936fde97780175fa2c990bc61cd" target="_top" xlink:title="pychge">
<polygon fill="none" stroke="#000000" points="768.5,-150.3687 768.5,-170.3687 821.5,-170.3687 821.5,-150.3687 768.5,-150.3687"/>
<text text-anchor="middle" x="795" y="-157.3687" font-family="FreeSans" font-size="10.00" fill="#000000">pychge</text>
</a>
</g>
</g>
<!-- Node24&#45;&gt;Node25 -->
<g id="edge30" class="edge">
<title>Node24&#45;&gt;Node25</title>
<path fill="none" stroke="#191970" d="M692.0217,-160.3687C709.2648,-160.3687 736.1277,-160.3687 758.0937,-160.3687"/>
<polygon fill="#191970" stroke="#191970" points="758.104,-163.8688 768.1039,-160.3687 758.1039,-156.8688 758.104,-163.8688"/>
</g>
<!-- Node26 -->
<g id="node26" class="node">
<title>Node26</title>
<g id="a_node26"><a xlink:href="../../d6/dcf/pythia6425mod_8f.html#aa8c99978a55999fa0b1fd2a946d8553a" target="_top" xlink:title="pyangl">
<polygon fill="none" stroke="#000000" points="770,-189.3687 770,-209.3687 820,-209.3687 820,-189.3687 770,-189.3687"/>
<text text-anchor="middle" x="795" y="-196.3687" font-family="FreeSans" font-size="10.00" fill="#000000">pyangl</text>
</a>
</g>
</g>
<!-- Node24&#45;&gt;Node26 -->
<g id="edge31" class="edge">
<title>Node24&#45;&gt;Node26</title>
<path fill="none" stroke="#191970" d="M692.0217,-166.0396C709.7957,-171.7922 737.7909,-180.8529 760.1082,-188.0759"/>
<polygon fill="#191970" stroke="#191970" points="759.3135,-191.4974 769.9054,-191.2468 761.469,-184.8375 759.3135,-191.4974"/>
</g>
<!-- Node24&#45;&gt;Node27 -->
<g id="edge35" class="edge">
<title>Node24&#45;&gt;Node27</title>
<path fill="none" stroke="#191970" d="M692.0316,-153.8038C704.8565,-149.2808 722.7754,-143.5352 739,-140.3687 807.9141,-126.9191 890.6231,-122.9899 933.5096,-121.8421"/>
<polygon fill="#191970" stroke="#191970" points="933.8535,-125.3351 943.7686,-121.6012 933.6891,-118.337 933.8535,-125.3351"/>
</g>
<!-- Node28 -->
<g id="node28" class="node">
<title>Node28</title>
<g id="a_node28"><a xlink:href="../../d6/dcf/pythia6425mod_8f.html#ad69903a1054f4f77d45fd8fe4c687aa9" target="_top" xlink:title="pymass">
<polygon fill="none" stroke="#000000" points="767.5,-34.3687 767.5,-54.3687 822.5,-54.3687 822.5,-34.3687 767.5,-34.3687"/>
<text text-anchor="middle" x="795" y="-41.3687" font-family="FreeSans" font-size="10.00" fill="#000000">pymass</text>
</a>
</g>
</g>
<!-- Node24&#45;&gt;Node28 -->
<g id="edge33" class="edge">
<title>Node24&#45;&gt;Node28</title>
<path fill="none" stroke="#191970" d="M685.1936,-150.0745C705.8794,-130.1611 751.5713,-86.1756 777.0116,-61.6853"/>
<polygon fill="#191970" stroke="#191970" points="779.7255,-63.931 784.5024,-54.4742 774.8708,-58.888 779.7255,-63.931"/>
</g>
<!-- Node26&#45;&gt;Node27 -->
<g id="edge32" class="edge">
<title>Node26&#45;&gt;Node27</title>
<path fill="none" stroke="#191970" d="M820.0954,-191.2262C829.8583,-187.8463 841.0644,-183.7029 851,-179.3687 880.9248,-166.3146 913.9585,-148.7068 936.2444,-136.3276"/>
<polygon fill="#191970" stroke="#191970" points="938.0815,-139.3103 945.097,-131.3709 934.6617,-133.2025 938.0815,-139.3103"/>
</g>
<!-- Node28&#45;&gt;Node29 -->
<g id="edge34" class="edge">
<title>Node28&#45;&gt;Node29</title>
<path fill="none" stroke="#191970" d="M822.6592,-41.2312C854.0783,-37.6673 904.9895,-31.8923 935.9436,-28.3811"/>
<polygon fill="#191970" stroke="#191970" points="936.4537,-31.8457 945.9955,-27.2408 935.6647,-24.8903 936.4537,-31.8457"/>
</g>
<!-- Node30&#45;&gt;Node6 -->
<g id="edge54" class="edge">
<title>Node30&#45;&gt;Node6</title>
<path fill="none" stroke="#191970" d="M231.5818,-228.5963C249.7497,-230.5359 274.0118,-235.3861 292,-247.3687 314.7896,-262.5496 305.7647,-281.3868 328,-297.3687 338.2128,-304.7092 351.3324,-309.2678 362.8292,-312.0716"/>
<polygon fill="#191970" stroke="#191970" points="362.293,-315.5356 372.8011,-314.1828 363.7429,-308.6874 362.293,-315.5356"/>
</g>
<!-- Node31 -->
<g id="node31" class="node">
<title>Node31</title>
<g id="a_node31"><a xlink:href="../../d6/dcf/pythia6425mod_8f.html#a8a7efe2037220dc632000fb06895ebca" target="_top" xlink:title="pyerrm">
<polygon fill="none" stroke="#000000" points="363.5,-267.3687 363.5,-287.3687 415.5,-287.3687 415.5,-267.3687 363.5,-267.3687"/>
<text text-anchor="middle" x="389.5" y="-274.3687" font-family="FreeSans" font-size="10.00" fill="#000000">pyerrm</text>
</a>
</g>
</g>
<!-- Node30&#45;&gt;Node31 -->
<g id="edge39" class="edge">
<title>Node30&#45;&gt;Node31</title>
<path fill="none" stroke="#191970" d="M231.7061,-232.8531C248.8586,-236.6336 271.8721,-241.9388 292,-247.3687 293.599,-247.8001 326.6357,-257.9754 353.8149,-266.3572"/>
<polygon fill="#191970" stroke="#191970" points="352.9068,-269.7398 363.4941,-269.3428 354.97,-263.0507 352.9068,-269.7398"/>
</g>
<!-- Node32 -->
<g id="node32" class="node">
<title>Node32</title>
<g id="a_node32"><a xlink:href="../../d6/dcf/pythia6425mod_8f.html#acc54128638bbd93cf630e1576f91d443" target="_top" xlink:title="pylist">
<polygon fill="none" stroke="#000000" points="526.5,-267.3687 526.5,-287.3687 570.5,-287.3687 570.5,-267.3687 526.5,-267.3687"/>
<text text-anchor="middle" x="548.5" y="-274.3687" font-family="FreeSans" font-size="10.00" fill="#000000">pylist</text>
</a>
</g>
</g>
<!-- Node31&#45;&gt;Node32 -->
<g id="edge40" class="edge">
<title>Node31&#45;&gt;Node32</title>
<path fill="none" stroke="#191970" d="M415.7556,-277.3687C443.2505,-277.3687 486.4704,-277.3687 516.0762,-277.3687"/>
<polygon fill="#191970" stroke="#191970" points="516.3133,-280.8688 526.3133,-277.3687 516.3133,-273.8688 516.3133,-280.8688"/>
</g>
<!-- Node34 -->
<g id="node34" class="node">
<title>Node34</title>
<g id="a_node34"><a xlink:href="../../d6/dcf/pythia6425mod_8f.html#a4140396b9ec9bafcebf4c7ebecb462e7" target="_top" xlink:title="pystop">
<polygon fill="none" stroke="#000000" points="770,-248.3687 770,-268.3687 820,-268.3687 820,-248.3687 770,-248.3687"/>
<text text-anchor="middle" x="795" y="-255.3687" font-family="FreeSans" font-size="10.00" fill="#000000">pystop</text>
</a>
</g>
</g>
<!-- Node31&#45;&gt;Node34 -->
<g id="edge53" class="edge">
<title>Node31&#45;&gt;Node34</title>
<path fill="none" stroke="#191970" d="M415.7827,-270.8208C435.2921,-266.3101 462.6247,-260.7216 487,-258.3687 585.4587,-248.8647 702.448,-253.0959 759.7767,-256.1747"/>
<polygon fill="#191970" stroke="#191970" points="759.5894,-259.6696 769.769,-256.7326 759.9797,-252.6805 759.5894,-259.6696"/>
</g>
<!-- Node32&#45;&gt;Node24 -->
<g id="edge52" class="edge">
<title>Node32&#45;&gt;Node24</title>
<path fill="none" stroke="#191970" d="M559.6817,-266.9857C581.4053,-246.8138 629.5032,-202.1515 656.0348,-177.5149"/>
<polygon fill="#191970" stroke="#191970" points="658.5769,-179.9307 663.5233,-170.5613 653.8138,-174.8011 658.5769,-179.9307"/>
</g>
<!-- Node33 -->
<g id="node33" class="node">
<title>Node33</title>
<g id="a_node33"><a xlink:href="../../d6/dcf/pythia6425mod_8f.html#a56718d08dbb42b3b978fc9b5bd6970e6" target="_top" xlink:title="pylogo">
<polygon fill="none" stroke="#000000" points="649.5,-306.3687 649.5,-326.3687 699.5,-326.3687 699.5,-306.3687 649.5,-306.3687"/>
<text text-anchor="middle" x="674.5" y="-313.3687" font-family="FreeSans" font-size="10.00" fill="#000000">pylogo</text>
</a>
</g>
</g>
<!-- Node32&#45;&gt;Node33 -->
<g id="edge41" class="edge">
<title>Node32&#45;&gt;Node33</title>
<path fill="none" stroke="#191970" d="M570.7362,-284.2513C589.8511,-290.1678 617.7399,-298.8001 639.7918,-305.6257"/>
<polygon fill="#191970" stroke="#191970" points="638.8727,-309.005 649.4605,-308.6184 640.9426,-302.318 638.8727,-309.005"/>
</g>
<!-- Node41 -->
<g id="node41" class="node">
<title>Node41</title>
<g id="a_node41"><a xlink:href="../../d6/dcf/pythia6425mod_8f.html#ab0dbe916b7d36854c02faf180f41d585" target="_top" xlink:title="pyname">
<polygon fill="none" stroke="#000000" points="646,-267.3687 646,-287.3687 703,-287.3687 703,-267.3687 646,-267.3687"/>
<text text-anchor="middle" x="674.5" y="-274.3687" font-family="FreeSans" font-size="10.00" fill="#000000">pyname</text>
</a>
</g>
</g>
<!-- Node32&#45;&gt;Node41 -->
<g id="edge51" class="edge">
<title>Node32&#45;&gt;Node41</title>
<path fill="none" stroke="#191970" d="M570.7362,-277.3687C588.7075,-277.3687 614.4342,-277.3687 635.7742,-277.3687"/>
<polygon fill="#191970" stroke="#191970" points="635.8447,-280.8688 645.8446,-277.3687 635.8446,-273.8688 635.8447,-280.8688"/>
</g>
<!-- Node33&#45;&gt;Node14 -->
<g id="edge50" class="edge">
<title>Node33&#45;&gt;Node14</title>
<path fill="none" stroke="#191970" d="M685.1936,-326.5742C704.2761,-344.7857 744.6384,-383.3058 770.7521,-408.2275"/>
<polygon fill="#191970" stroke="#191970" points="768.384,-410.8056 778.0346,-415.1777 773.2168,-405.7416 768.384,-410.8056"/>
</g>
<!-- Node33&#45;&gt;Node34 -->
<g id="edge42" class="edge">
<title>Node33&#45;&gt;Node34</title>
<path fill="none" stroke="#191970" d="M695.4895,-306.2659C714.638,-297.0492 743.1575,-283.3219 764.7624,-272.9229"/>
<polygon fill="#191970" stroke="#191970" points="766.3541,-276.0411 773.8467,-268.5503 763.3182,-269.7337 766.3541,-276.0411"/>
</g>
<!-- Node40 -->
<g id="node40" class="node">
<title>Node40</title>
<g id="a_node40"><a xlink:href="../../d6/dcf/pythia6425mod_8f.html#a523e4acf745637220400daf831c34a23" target="_top" xlink:title="pytime">
<polygon fill="none" stroke="#000000" points="769.5,-306.3687 769.5,-326.3687 820.5,-326.3687 820.5,-306.3687 769.5,-306.3687"/>
<text text-anchor="middle" x="795" y="-313.3687" font-family="FreeSans" font-size="10.00" fill="#000000">pytime</text>
</a>
</g>
</g>
<!-- Node33&#45;&gt;Node40 -->
<g id="edge49" class="edge">
<title>Node33&#45;&gt;Node40</title>
<path fill="none" stroke="#191970" d="M699.7607,-316.3687C716.9967,-316.3687 740.0789,-316.3687 759.2027,-316.3687"/>
<polygon fill="#191970" stroke="#191970" points="759.3575,-319.8688 769.3575,-316.3687 759.3575,-312.8688 759.3575,-319.8688"/>
</g>
<!-- Node35 -->
<g id="node35" class="node">
<title>Node35</title>
<g id="a_node35"><a xlink:href="../../d0/d5e/classPHTimer.html#adce6f9a85834e59bd154b9c624ee4e41" target="_top" xlink:title="stops the counter">
<polygon fill="none" stroke="#000000" points="919,-248.3687 919,-268.3687 1006,-268.3687 1006,-248.3687 919,-248.3687"/>
<text text-anchor="middle" x="962.5" y="-255.3687" font-family="FreeSans" font-size="10.00" fill="#000000">PHTimer::stop</text>
</a>
</g>
</g>
<!-- Node34&#45;&gt;Node35 -->
<g id="edge43" class="edge">
<title>Node34&#45;&gt;Node35</title>
<path fill="none" stroke="#191970" d="M820.0764,-258.3687C843.3433,-258.3687 878.7515,-258.3687 908.4413,-258.3687"/>
<polygon fill="#191970" stroke="#191970" points="908.6751,-261.8688 918.6751,-258.3687 908.6751,-254.8688 908.6751,-261.8688"/>
</g>
<!-- Node36 -->
<g id="node36" class="node">
<title>Node36</title>
<g id="a_node36"><a xlink:href="../../d0/d5e/classPHTimer.html#aa92e3fe4a0a1799f39743eda9ef9d497" target="_top" xlink:title="gets time from cpu clock counts">
<polygon fill="none" stroke="#000000" points="1230.5,-261.3687 1230.5,-293.3687 1343.5,-293.3687 1343.5,-261.3687 1230.5,-261.3687"/>
<text text-anchor="start" x="1238.5" y="-280.3687" font-family="FreeSans" font-size="10.00" fill="#000000">PHTimer::get_clock</text>
<text text-anchor="middle" x="1287" y="-268.3687" font-family="FreeSans" font-size="10.00" fill="#000000">_counts</text>
</a>
</g>
</g>
<!-- Node35&#45;&gt;Node36 -->
<g id="edge44" class="edge">
<title>Node35&#45;&gt;Node36</title>
<path fill="none" stroke="#191970" d="M1006.2635,-260.9311C1061.2746,-264.1521 1156.2423,-269.7126 1220.3155,-273.4642"/>
<polygon fill="#191970" stroke="#191970" points="1220.1352,-276.9595 1230.3228,-274.0501 1220.5445,-269.9715 1220.1352,-276.9595"/>
</g>
<!-- Node37 -->
<g id="node37" class="node">
<title>Node37</title>
<g id="a_node37"><a xlink:href="../../d0/d5e/classPHTimer.html#a976738876ad978116fdc4549a3765685" target="_top" xlink:title="retrieve elapsed value since last restart (in ms)">
<polygon fill="none" stroke="#000000" points="1075.5,-228.3687 1075.5,-248.3687 1180.5,-248.3687 1180.5,-228.3687 1075.5,-228.3687"/>
<text text-anchor="middle" x="1128" y="-235.3687" font-family="FreeSans" font-size="10.00" fill="#000000">PHTimer::elapsed</text>
</a>
</g>
</g>
<!-- Node35&#45;&gt;Node37 -->
<g id="edge45" class="edge">
<title>Node35&#45;&gt;Node37</title>
<path fill="none" stroke="#191970" d="M1006.4165,-253.0616C1024.4384,-250.8837 1045.6386,-248.3217 1065.2455,-245.9523"/>
<polygon fill="#191970" stroke="#191970" points="1065.8204,-249.4084 1075.3283,-244.7339 1064.9805,-242.4589 1065.8204,-249.4084"/>
</g>
<!-- Node37&#45;&gt;Node36 -->
<g id="edge48" class="edge">
<title>Node37&#45;&gt;Node36</title>
<path fill="none" stroke="#191970" d="M1168.9465,-248.4122C1184.5606,-252.242 1202.7927,-256.7141 1220.1923,-260.9819"/>
<polygon fill="#191970" stroke="#191970" points="1219.7686,-264.4817 1230.3145,-263.4647 1221.4362,-257.6832 1219.7686,-264.4817"/>
</g>
<!-- Node38 -->
<g id="node38" class="node">
<title>Node38</title>
<g id="a_node38"><a xlink:href="../../d0/d5e/classPHTimer.html#aa75ff2c27aba40e7ef0a934f9a3355c2" target="_top" xlink:title="returns difference between to time">
<polygon fill="none" stroke="#000000" points="1218,-222.3687 1218,-242.3687 1356,-242.3687 1356,-222.3687 1218,-222.3687"/>
<text text-anchor="middle" x="1287" y="-229.3687" font-family="FreeSans" font-size="10.00" fill="#000000">PHTimer::get_difference</text>
</a>
</g>
</g>
<!-- Node37&#45;&gt;Node38 -->
<g id="edge46" class="edge">
<title>Node37&#45;&gt;Node38</title>
<path fill="none" stroke="#191970" d="M1180.5032,-236.3874C1189.2717,-236.0565 1198.5375,-235.7069 1207.7978,-235.3574"/>
<polygon fill="#191970" stroke="#191970" points="1207.9595,-238.8539 1217.8203,-234.9792 1207.6954,-231.8589 1207.9595,-238.8539"/>
</g>
<!-- Node39 -->
<g id="node39" class="node">
<title>Node39</title>
<g id="a_node39"><a xlink:href="../../d2/db1/classPHTimer_1_1Frequency.html#a023a2d706df9a8bd303810a9ed017f61" target="_top" xlink:title="period accessor">
<polygon fill="none" stroke="#000000" points="1392,-216.3687 1392,-248.3687 1510,-248.3687 1510,-216.3687 1392,-216.3687"/>
<text text-anchor="start" x="1400" y="-235.3687" font-family="FreeSans" font-size="10.00" fill="#000000">PHTimer::Frequency</text>
<text text-anchor="middle" x="1451" y="-223.3687" font-family="FreeSans" font-size="10.00" fill="#000000">::period</text>
</a>
</g>
</g>
<!-- Node38&#45;&gt;Node39 -->
<g id="edge47" class="edge">
<title>Node38&#45;&gt;Node39</title>
<path fill="none" stroke="#191970" d="M1356.0754,-232.3687C1364.5394,-232.3687 1373.1918,-232.3687 1381.6596,-232.3687"/>
<polygon fill="#191970" stroke="#191970" points="1381.8719,-235.8688 1391.8719,-232.3687 1381.8719,-228.8688 1381.8719,-235.8688"/>
</g>
</g>
</svg>
