<?xml version="1.0" encoding="UTF-8" standalone="no"?>
<!DOCTYPE svg PUBLIC "-//W3C//DTD SVG 1.1//EN"
 "http://www.w3.org/Graphics/SVG/1.1/DTD/svg11.dtd">
<!-- Generated by graphviz version 2.40.1 (20161225.0304)
 -->
<!-- Title: Global_FastSim Pages: 1 -->
<svg width="276pt" height="185pt"
 viewBox="0.00 0.00 276.00 185.00" xmlns="http://www.w3.org/2000/svg" xmlns:xlink="http://www.w3.org/1999/xlink">
<g id="graph0" class="graph" transform="scale(1 1) rotate(0) translate(4 181)">
<title>Global_FastSim</title>
<!-- Node1 -->
<g id="node1" class="node">
<title>Node1</title>
<polygon fill="#bfbfbf" stroke="#000000" points="0,-78.5 0,-98.5 93,-98.5 93,-78.5 0,-78.5"/>
<text text-anchor="middle" x="46.5" y="-85.5" font-family="FreeSans" font-size="10.00" fill="#000000">Global_FastSim</text>
</g>
<!-- Node2 -->
<g id="node2" class="node">
<title>Node2</title>
<g id="a_node2"><a xlink:href="../../db/dc0/Fun4All__AnaTutorial_8C.html#a8c484ea6d7477278e981ef056b17eac9" target="_top" xlink:title="Fun4All_AnaTutorial">
<polygon fill="none" stroke="#000000" points="141,-156.5 141,-176.5 256,-176.5 256,-156.5 141,-156.5"/>
<text text-anchor="middle" x="198.5" y="-163.5" font-family="FreeSans" font-size="10.00" fill="#000000">Fun4All_AnaTutorial</text>
</a>
</g>
</g>
<!-- Node1&#45;&gt;Node2 -->
<g id="edge1" class="edge">
<title>Node1&#45;&gt;Node2</title>
<path fill="none" stroke="#191970" d="M65.7055,-105.2589C81.6788,-118.4217 105.5189,-136.3351 129,-147.5 136.4559,-151.0451 144.6868,-154.0252 152.7975,-156.4959"/>
<polygon fill="#191970" stroke="#191970" points="67.5957,-102.2747 57.6931,-98.508 63.0854,-107.628 67.5957,-102.2747"/>
</g>
<!-- Node3 -->
<g id="node3" class="node">
<title>Node3</title>
<g id="a_node3"><a xlink:href="../../dd/d28/Fun4All__AnaTutorial__Jets_8C.html#a55eaaeb770a3177f917012de87877d28" target="_top" xlink:title="Fun4All_AnaTutorial_Jets">
<polygon fill="none" stroke="#000000" points="129,-117.5 129,-137.5 268,-137.5 268,-117.5 129,-117.5"/>
<text text-anchor="middle" x="198.5" y="-124.5" font-family="FreeSans" font-size="10.00" fill="#000000">Fun4All_AnaTutorial_Jets</text>
</a>
</g>
</g>
<!-- Node1&#45;&gt;Node3 -->
<g id="edge2" class="edge">
<title>Node1&#45;&gt;Node3</title>
<path fill="none" stroke="#191970" d="M95.5289,-101.0798C116.2329,-106.392 140.0055,-112.4915 159.4889,-117.4906"/>
<polygon fill="#191970" stroke="#191970" points="96.1999,-97.6386 85.6438,-98.5435 94.4601,-104.419 96.1999,-97.6386"/>
</g>
<!-- Node4 -->
<g id="node4" class="node">
<title>Node4</title>
<g id="a_node4"><a xlink:href="../../da/d02/Fun4All__G4__EICDetector_8C.html#afbe82cefa1d1fd031d9a8586b7bb68c6" target="_top" xlink:title="Fun4All_G4_EICDetector">
<polygon fill="none" stroke="#000000" points="129,-78.5 129,-98.5 268,-98.5 268,-78.5 129,-78.5"/>
<text text-anchor="middle" x="198.5" y="-85.5" font-family="FreeSans" font-size="10.00" fill="#000000">Fun4All_G4_EICDetector</text>
</a>
</g>
</g>
<!-- Node1&#45;&gt;Node4 -->
<g id="edge3" class="edge">
<title>Node1&#45;&gt;Node4</title>
<path fill="none" stroke="#191970" d="M103.6009,-88.5C111.8567,-88.5 120.4303,-88.5 128.8972,-88.5"/>
<polygon fill="#191970" stroke="#191970" points="103.3453,-85.0001 93.3453,-88.5 103.3452,-92.0001 103.3453,-85.0001"/>
</g>
<!-- Node5 -->
<g id="node5" class="node">
<title>Node5</title>
<g id="a_node5"><a xlink:href="../../d7/d9e/Fun4All__G4__fsPHENIX_8C.html#a72c444217210a14ab1b4e66d9818b1ff" target="_top" xlink:title="Fun4All_G4_fsPHENIX">
<polygon fill="none" stroke="#000000" points="136.5,-39.5 136.5,-59.5 260.5,-59.5 260.5,-39.5 136.5,-39.5"/>
<text text-anchor="middle" x="198.5" y="-46.5" font-family="FreeSans" font-size="10.00" fill="#000000">Fun4All_G4_fsPHENIX</text>
</a>
</g>
</g>
<!-- Node1&#45;&gt;Node5 -->
<g id="edge4" class="edge">
<title>Node1&#45;&gt;Node5</title>
<path fill="none" stroke="#191970" d="M95.5289,-75.9202C116.2329,-70.608 140.0055,-64.5085 159.4889,-59.5094"/>
<polygon fill="#191970" stroke="#191970" points="94.4601,-72.581 85.6438,-78.4565 96.1999,-79.3614 94.4601,-72.581"/>
</g>
<!-- Node6 -->
<g id="node6" class="node">
<title>Node6</title>
<g id="a_node6"><a xlink:href="../../d0/d13/Fun4All__G4__sPHENIX_8C.html#a536fa7366e3aeaf273cca94ced704c46" target="_top" xlink:title="Fun4All_G4_sPHENIX">
<polygon fill="none" stroke="#000000" points="138,-.5 138,-20.5 259,-20.5 259,-.5 138,-.5"/>
<text text-anchor="middle" x="198.5" y="-7.5" font-family="FreeSans" font-size="10.00" fill="#000000">Fun4All_G4_sPHENIX</text>
</a>
</g>
</g>
<!-- Node1&#45;&gt;Node6 -->
<g id="edge5" class="edge">
<title>Node1&#45;&gt;Node6</title>
<path fill="none" stroke="#191970" d="M66.3457,-71.6822C82.3624,-58.8428 105.9486,-41.5351 129,-30.5 137.1539,-26.5966 146.2188,-23.3068 155.0372,-20.5943"/>
<polygon fill="#191970" stroke="#191970" points="63.7983,-69.2444 58.2778,-78.2873 68.2326,-74.6608 63.7983,-69.2444"/>
</g>
</g>
</svg>
