<?xml version="1.0" encoding="UTF-8" standalone="no"?>
<!DOCTYPE svg PUBLIC "-//W3C//DTD SVG 1.1//EN"
 "http://www.w3.org/Graphics/SVG/1.1/DTD/svg11.dtd">
<!-- Generated by graphviz version 2.40.1 (20161225.0304)
 -->
<!-- Title: eic&#45;smear/blob/master/include/eicsmear/functions.h Pages: 1 -->
<svg width="1508pt" height="497pt"
 viewBox="0.00 0.00 1507.50 497.00" xmlns="http://www.w3.org/2000/svg" xmlns:xlink="http://www.w3.org/1999/xlink">
<g id="graph0" class="graph" transform="scale(1 1) rotate(0) translate(4 493)">
<title>eic&#45;smear/blob/master/include/eicsmear/functions.h</title>
<!-- Node1 -->
<g id="node1" class="node">
<title>Node1</title>
<polygon fill="#bfbfbf" stroke="#000000" points="574,-456.5 574,-488.5 740,-488.5 740,-456.5 574,-456.5"/>
<text text-anchor="start" x="582" y="-475.5" font-family="FreeSans" font-size="10.00" fill="#000000">eic&#45;smear/blob/master</text>
<text text-anchor="middle" x="657" y="-463.5" font-family="FreeSans" font-size="10.00" fill="#000000">/include/eicsmear/functions.h</text>
</g>
<!-- Node2 -->
<g id="node2" class="node">
<title>Node2</title>
<polygon fill="none" stroke="#bfbfbf" points="231.5,-114.5 231.5,-134.5 276.5,-134.5 276.5,-114.5 231.5,-114.5"/>
<text text-anchor="middle" x="254" y="-121.5" font-family="FreeSans" font-size="10.00" fill="#000000">string</text>
</g>
<!-- Node1&#45;&gt;Node2 -->
<g id="edge1" class="edge">
<title>Node1&#45;&gt;Node2</title>
<path fill="none" stroke="#191970" d="M573.9394,-468.8223C432.5909,-460.6318 154.7352,-435.4973 95,-363 30.2846,-284.4585 170.4272,-179.2045 229.4294,-140.0361"/>
<polygon fill="#191970" stroke="#191970" points="231.3819,-142.9413 237.8358,-134.539 227.5508,-137.0827 231.3819,-142.9413"/>
</g>
<!-- Node3 -->
<g id="node3" class="node">
<title>Node3</title>
<polygon fill="none" stroke="#bfbfbf" points="563,-.5 563,-20.5 623,-20.5 623,-.5 563,-.5"/>
<text text-anchor="middle" x="593" y="-7.5" font-family="FreeSans" font-size="10.00" fill="#000000">Rtypes.h</text>
</g>
<!-- Node1&#45;&gt;Node3 -->
<g id="edge2" class="edge">
<title>Node1&#45;&gt;Node3</title>
<path fill="none" stroke="#191970" d="M573.8927,-467.1241C451.2079,-458.6393 227.7579,-440.9368 150,-420 79.4084,-400.9928 0,-425.6057 0,-352.5 0,-352.5 0,-352.5 0,-124.5 0,-68.1051 418.938,-25.9743 552.5633,-13.9706"/>
<polygon fill="#191970" stroke="#191970" points="553.1273,-17.4343 562.7778,-13.062 552.507,-10.4619 553.1273,-17.4343"/>
</g>
<!-- Node4 -->
<g id="node4" class="node">
<title>Node4</title>
<polygon fill="none" stroke="#bfbfbf" points="1331.5,-342.5 1331.5,-362.5 1394.5,-362.5 1394.5,-342.5 1331.5,-342.5"/>
<text text-anchor="middle" x="1363" y="-349.5" font-family="FreeSans" font-size="10.00" fill="#000000">TString.h</text>
</g>
<!-- Node1&#45;&gt;Node4 -->
<g id="edge3" class="edge">
<title>Node1&#45;&gt;Node4</title>
<path fill="none" stroke="#191970" d="M740.0099,-461.4043C864.5626,-444.1902 1107.2147,-408.4633 1321.3356,-363.2306"/>
<polygon fill="#191970" stroke="#191970" points="1322.1328,-366.6394 1331.1875,-361.1383 1320.6786,-359.7922 1322.1328,-366.6394"/>
</g>
<!-- Node5 -->
<g id="node5" class="node">
<title>Node5</title>
<g id="a_node5"><a xlink:href="../../d4/d9c/Smear_8h.html" target="_top" xlink:title="eicsmear/smear/Smear.h">
<polygon fill="none" stroke="#000000" points="586,-399.5 586,-419.5 728,-419.5 728,-399.5 586,-399.5"/>
<text text-anchor="middle" x="657" y="-406.5" font-family="FreeSans" font-size="10.00" fill="#000000">eicsmear/smear/Smear.h</text>
</a>
</g>
</g>
<!-- Node1&#45;&gt;Node5 -->
<g id="edge4" class="edge">
<title>Node1&#45;&gt;Node5</title>
<path fill="none" stroke="#191970" d="M657,-456.2759C657,-448.2654 657,-438.5159 657,-429.9952"/>
<polygon fill="#191970" stroke="#191970" points="660.5001,-429.7512 657,-419.7513 653.5001,-429.7513 660.5001,-429.7512"/>
</g>
<!-- Node34 -->
<g id="node34" class="node">
<title>Node34</title>
<g id="a_node34"><a xlink:href="../../d4/d43/eic-smear_2blob_2master_2include_2eicsmear_2smear_2Detector_8h.html" target="_top" xlink:title="eicsmear/smear/Detector.h">
<polygon fill="none" stroke="#000000" points="1346.5,-399.5 1346.5,-419.5 1499.5,-419.5 1499.5,-399.5 1346.5,-399.5"/>
<text text-anchor="middle" x="1423" y="-406.5" font-family="FreeSans" font-size="10.00" fill="#000000">eicsmear/smear/Detector.h</text>
</a>
</g>
</g>
<!-- Node1&#45;&gt;Node34 -->
<g id="edge56" class="edge">
<title>Node1&#45;&gt;Node34</title>
<path fill="none" stroke="#191970" d="M740.0681,-465.668C886.2106,-453.6485 1187.8671,-428.8386 1336.4442,-416.6188"/>
<polygon fill="#191970" stroke="#191970" points="1336.7601,-420.1047 1346.4395,-415.7967 1336.1863,-413.1283 1336.7601,-420.1047"/>
</g>
<!-- Node5&#45;&gt;Node4 -->
<g id="edge16" class="edge">
<title>Node5&#45;&gt;Node4</title>
<path fill="none" stroke="#191970" d="M728.027,-406.2252C871.527,-399.3401 1192.6137,-382.5049 1321.2211,-363.0006"/>
<polygon fill="#191970" stroke="#191970" points="1321.9113,-366.4349 1331.2389,-361.4102 1320.8137,-359.5215 1321.9113,-366.4349"/>
</g>
<!-- Node6 -->
<g id="node6" class="node">
<title>Node6</title>
<polygon fill="none" stroke="#bfbfbf" points="558,-228.5 558,-248.5 606,-248.5 606,-228.5 558,-228.5"/>
<text text-anchor="middle" x="582" y="-235.5" font-family="FreeSans" font-size="10.00" fill="#000000">cmath</text>
</g>
<!-- Node5&#45;&gt;Node6 -->
<g id="edge5" class="edge">
<title>Node5&#45;&gt;Node6</title>
<path fill="none" stroke="#191970" d="M654.8503,-399.2026C651.8761,-385.7595 645.9588,-361.631 638,-342 625.4758,-311.1081 606.1685,-277.5512 593.8117,-257.275"/>
<polygon fill="#191970" stroke="#191970" points="596.7509,-255.3732 588.5185,-248.704 590.7952,-259.0514 596.7509,-255.3732"/>
</g>
<!-- Node7 -->
<g id="node7" class="node">
<title>Node7</title>
<polygon fill="none" stroke="#bfbfbf" points="104.5,-342.5 104.5,-362.5 159.5,-362.5 159.5,-342.5 104.5,-342.5"/>
<text text-anchor="middle" x="132" y="-349.5" font-family="FreeSans" font-size="10.00" fill="#000000">fstream</text>
</g>
<!-- Node5&#45;&gt;Node7 -->
<g id="edge6" class="edge">
<title>Node5&#45;&gt;Node7</title>
<path fill="none" stroke="#191970" d="M585.7218,-406.7613C492.2204,-402.2681 323.0476,-391.0425 169.8202,-362.8418"/>
<polygon fill="#191970" stroke="#191970" points="170.2243,-359.3568 159.7514,-360.9596 168.938,-366.2376 170.2243,-359.3568"/>
</g>
<!-- Node8 -->
<g id="node8" class="node">
<title>Node8</title>
<polygon fill="none" stroke="#bfbfbf" points="178,-342.5 178,-362.5 238,-362.5 238,-342.5 178,-342.5"/>
<text text-anchor="middle" x="208" y="-349.5" font-family="FreeSans" font-size="10.00" fill="#000000">iostream</text>
</g>
<!-- Node5&#45;&gt;Node8 -->
<g id="edge7" class="edge">
<title>Node5&#45;&gt;Node8</title>
<path fill="none" stroke="#191970" d="M585.7754,-404.6811C505.7758,-398.5368 371.9881,-386.068 248.1666,-362.9896"/>
<polygon fill="#191970" stroke="#191970" points="248.6064,-359.5108 238.1301,-361.0912 247.3054,-366.3889 248.6064,-359.5108"/>
</g>
<!-- Node9 -->
<g id="node9" class="node">
<title>Node9</title>
<polygon fill="none" stroke="#bfbfbf" points="256,-342.5 256,-362.5 314,-362.5 314,-342.5 256,-342.5"/>
<text text-anchor="middle" x="285" y="-349.5" font-family="FreeSans" font-size="10.00" fill="#000000">memory</text>
</g>
<!-- Node5&#45;&gt;Node9 -->
<g id="edge8" class="edge">
<title>Node5&#45;&gt;Node9</title>
<path fill="none" stroke="#191970" d="M585.747,-401.4967C518.8805,-393.4982 416.2295,-379.964 328,-363 326.7265,-362.7552 325.4341,-362.497 324.1308,-362.2282"/>
<polygon fill="#191970" stroke="#191970" points="324.5775,-358.7428 314.0586,-360.0091 323.0713,-365.5788 324.5775,-358.7428"/>
</g>
<!-- Node10 -->
<g id="node10" class="node">
<title>Node10</title>
<polygon fill="none" stroke="#bfbfbf" points="370,-342.5 370,-362.5 426,-362.5 426,-342.5 370,-342.5"/>
<text text-anchor="middle" x="398" y="-349.5" font-family="FreeSans" font-size="10.00" fill="#000000">sstream</text>
</g>
<!-- Node5&#45;&gt;Node10 -->
<g id="edge9" class="edge">
<title>Node5&#45;&gt;Node10</title>
<path fill="none" stroke="#191970" d="M603.8346,-399.4508C561.0045,-391.109 499.038,-378.4887 436.3003,-363.2059"/>
<polygon fill="#191970" stroke="#191970" points="436.7739,-359.7182 426.2275,-360.7305 435.1033,-366.516 436.7739,-359.7182"/>
</g>
<!-- Node11 -->
<g id="node11" class="node">
<title>Node11</title>
<polygon fill="none" stroke="#bfbfbf" points="444.5,-342.5 444.5,-362.5 489.5,-362.5 489.5,-342.5 444.5,-342.5"/>
<text text-anchor="middle" x="467" y="-349.5" font-family="FreeSans" font-size="10.00" fill="#000000">TF1.h</text>
</g>
<!-- Node5&#45;&gt;Node11 -->
<g id="edge10" class="edge">
<title>Node5&#45;&gt;Node11</title>
<path fill="none" stroke="#191970" d="M621.7642,-399.467C591.6875,-390.828 547.0612,-377.8339 499.2906,-363.028"/>
<polygon fill="#191970" stroke="#191970" points="500.2863,-359.6724 489.6979,-360.0434 498.2066,-366.3563 500.2863,-359.6724"/>
</g>
<!-- Node12 -->
<g id="node12" class="node">
<title>Node12</title>
<polygon fill="none" stroke="#bfbfbf" points="507.5,-342.5 507.5,-362.5 552.5,-362.5 552.5,-342.5 507.5,-342.5"/>
<text text-anchor="middle" x="530" y="-349.5" font-family="FreeSans" font-size="10.00" fill="#000000">TF2.h</text>
</g>
<!-- Node5&#45;&gt;Node12 -->
<g id="edge11" class="edge">
<title>Node5&#45;&gt;Node12</title>
<path fill="none" stroke="#191970" d="M634.5873,-399.4408C614.3994,-390.3801 584.502,-376.9615 561.8372,-366.7891"/>
<polygon fill="#191970" stroke="#191970" points="563.1722,-363.552 552.6158,-362.6504 560.3059,-369.9383 563.1722,-363.552"/>
</g>
<!-- Node13 -->
<g id="node13" class="node">
<title>Node13</title>
<polygon fill="none" stroke="#bfbfbf" points="215.5,-57.5 215.5,-77.5 316.5,-77.5 316.5,-57.5 215.5,-57.5"/>
<text text-anchor="middle" x="266" y="-64.5" font-family="FreeSans" font-size="10.00" fill="#000000">TLorentzVector.h</text>
</g>
<!-- Node5&#45;&gt;Node13 -->
<g id="edge12" class="edge">
<title>Node5&#45;&gt;Node13</title>
<path fill="none" stroke="#191970" d="M585.776,-408.0834C442.9709,-404.6045 132.0851,-393.5755 95,-363 70.9532,-343.1742 76,-326.6658 76,-295.5 76,-295.5 76,-295.5 76,-181.5 76,-120.1712 149.6888,-91.0159 205.2848,-77.7466"/>
<polygon fill="#191970" stroke="#191970" points="206.1051,-81.1496 215.0835,-75.5248 204.5571,-74.3229 206.1051,-81.1496"/>
</g>
<!-- Node14 -->
<g id="node14" class="node">
<title>Node14</title>
<polygon fill="none" stroke="#bfbfbf" points="571,-342.5 571,-362.5 629,-362.5 629,-342.5 571,-342.5"/>
<text text-anchor="middle" x="600" y="-349.5" font-family="FreeSans" font-size="10.00" fill="#000000">TMath.h</text>
</g>
<!-- Node5&#45;&gt;Node14 -->
<g id="edge13" class="edge">
<title>Node5&#45;&gt;Node14</title>
<path fill="none" stroke="#191970" d="M646.8095,-399.3095C638.6229,-391.1229 626.941,-379.441 617.2955,-369.7955"/>
<polygon fill="#191970" stroke="#191970" points="619.6482,-367.1984 610.1022,-362.6022 614.6984,-372.1482 619.6482,-367.1984"/>
</g>
<!-- Node15 -->
<g id="node15" class="node">
<title>Node15</title>
<polygon fill="none" stroke="#bfbfbf" points="761.5,-342.5 761.5,-362.5 842.5,-362.5 842.5,-342.5 761.5,-342.5"/>
<text text-anchor="middle" x="802" y="-349.5" font-family="FreeSans" font-size="10.00" fill="#000000">TRandom3.h</text>
</g>
<!-- Node5&#45;&gt;Node15 -->
<g id="edge14" class="edge">
<title>Node5&#45;&gt;Node15</title>
<path fill="none" stroke="#191970" d="M682.5893,-399.4408C705.9471,-390.2587 740.6896,-376.6013 766.6857,-366.3822"/>
<polygon fill="#191970" stroke="#191970" points="768.1525,-369.5663 776.1788,-362.6504 765.5915,-363.0516 768.1525,-369.5663"/>
</g>
<!-- Node16 -->
<g id="node16" class="node">
<title>Node16</title>
<polygon fill="none" stroke="#bfbfbf" points="861,-342.5 861,-362.5 921,-362.5 921,-342.5 861,-342.5"/>
<text text-anchor="middle" x="891" y="-349.5" font-family="FreeSans" font-size="10.00" fill="#000000">TROOT.h</text>
</g>
<!-- Node5&#45;&gt;Node16 -->
<g id="edge15" class="edge">
<title>Node5&#45;&gt;Node16</title>
<path fill="none" stroke="#191970" d="M700.846,-399.4262C738.2611,-390.7441 793.739,-377.6691 850.8617,-363.2429"/>
<polygon fill="#191970" stroke="#191970" points="851.9557,-366.5763 860.7889,-360.7262 850.2354,-359.791 851.9557,-366.5763"/>
</g>
<!-- Node17 -->
<g id="node17" class="node">
<title>Node17</title>
<polygon fill="none" stroke="#bfbfbf" points="939,-342.5 939,-362.5 1009,-362.5 1009,-342.5 939,-342.5"/>
<text text-anchor="middle" x="974" y="-349.5" font-family="FreeSans" font-size="10.00" fill="#000000">TSystem.h</text>
</g>
<!-- Node5&#45;&gt;Node17 -->
<g id="edge17" class="edge">
<title>Node5&#45;&gt;Node17</title>
<path fill="none" stroke="#191970" d="M723.1459,-399.4776C776.1924,-391.1551 852.7707,-378.5049 928.753,-363.1586"/>
<polygon fill="#191970" stroke="#191970" points="929.8812,-366.5007 938.9815,-361.0754 928.4842,-359.6415 929.8812,-366.5007"/>
</g>
<!-- Node18 -->
<g id="node18" class="node">
<title>Node18</title>
<polygon fill="none" stroke="#bfbfbf" points="1027.5,-342.5 1027.5,-362.5 1098.5,-362.5 1098.5,-342.5 1027.5,-342.5"/>
<text text-anchor="middle" x="1063" y="-349.5" font-family="FreeSans" font-size="10.00" fill="#000000">TVector2.h</text>
</g>
<!-- Node5&#45;&gt;Node18 -->
<g id="edge18" class="edge">
<title>Node5&#45;&gt;Node18</title>
<path fill="none" stroke="#191970" d="M728.2221,-402.4758C799.0611,-395.0018 911.0072,-381.8776 1017.2723,-362.9825"/>
<polygon fill="#191970" stroke="#191970" points="1017.9839,-366.4108 1027.2065,-361.196 1016.7449,-359.5213 1017.9839,-366.4108"/>
</g>
<!-- Node19 -->
<g id="node19" class="node">
<title>Node19</title>
<g id="a_node19"><a xlink:href="../../dd/d12/Kinematics_8h.html" target="_top" xlink:title="eicsmear/erhic/Kinematics.h">
<polygon fill="none" stroke="#000000" points="1154.5,-342.5 1154.5,-362.5 1313.5,-362.5 1313.5,-342.5 1154.5,-342.5"/>
<text text-anchor="middle" x="1234" y="-349.5" font-family="FreeSans" font-size="10.00" fill="#000000">eicsmear/erhic/Kinematics.h</text>
</a>
</g>
</g>
<!-- Node5&#45;&gt;Node19 -->
<g id="edge19" class="edge">
<title>Node5&#45;&gt;Node19</title>
<path fill="none" stroke="#191970" d="M728.3837,-403.0164C822.834,-394.3518 994.4939,-378.3072 1141,-363 1142.0908,-362.886 1143.1888,-362.7708 1144.2928,-362.6544"/>
<polygon fill="#191970" stroke="#191970" points="1144.7877,-366.1215 1154.3597,-361.5799 1144.0447,-359.161 1144.7877,-366.1215"/>
</g>
<!-- Node26 -->
<g id="node26" class="node">
<title>Node26</title>
<g id="a_node26"><a xlink:href="../../d3/d44/VirtualParticle_8h.html" target="_top" xlink:title="eicsmear/erhic/VirtualParticle.h">
<polygon fill="none" stroke="#000000" points="513,-114.5 513,-134.5 687,-134.5 687,-114.5 513,-114.5"/>
<text text-anchor="middle" x="600" y="-121.5" font-family="FreeSans" font-size="10.00" fill="#000000">eicsmear/erhic/VirtualParticle.h</text>
</a>
</g>
</g>
<!-- Node5&#45;&gt;Node26 -->
<g id="edge50" class="edge">
<title>Node5&#45;&gt;Node26</title>
<path fill="none" stroke="#191970" d="M669.964,-399.4771C711.0608,-367.1435 834.3894,-265.5248 811,-228 779.2992,-177.1409 714.5156,-150.5715 665.0476,-137.1617"/>
<polygon fill="#191970" stroke="#191970" points="665.6156,-133.6933 655.0574,-134.5738 663.8602,-140.4697 665.6156,-133.6933"/>
</g>
<!-- Node27 -->
<g id="node27" class="node">
<title>Node27</title>
<g id="a_node27"><a xlink:href="../../df/d17/ParticleIdentifier_8h.html" target="_top" xlink:title="eicsmear/erhic/ParticleIdentifier.h">
<polygon fill="none" stroke="#000000" points="871.5,-285.5 871.5,-305.5 1056.5,-305.5 1056.5,-285.5 871.5,-285.5"/>
<text text-anchor="middle" x="964" y="-292.5" font-family="FreeSans" font-size="10.00" fill="#000000">eicsmear/erhic/ParticleIdentifier.h</text>
</a>
</g>
</g>
<!-- Node5&#45;&gt;Node27 -->
<g id="edge49" class="edge">
<title>Node5&#45;&gt;Node27</title>
<path fill="none" stroke="#191970" d="M728.3865,-407.2864C849.1375,-402.7998 1083.0862,-390.6146 1108,-363 1133.1571,-335.1158 1090.9286,-317.807 1045.82,-307.7076"/>
<polygon fill="#191970" stroke="#191970" points="1046.3777,-304.2482 1035.8694,-305.5996 1044.9269,-311.0962 1046.3777,-304.2482"/>
</g>
<!-- Node30 -->
<g id="node30" class="node">
<title>Node30</title>
<g id="a_node30"><a xlink:href="../../db/d8e/Particle_8h.html" target="_top" xlink:title="eicsmear/erhic/Particle.h">
<polygon fill="none" stroke="#000000" points="662,-228.5 662,-248.5 802,-248.5 802,-228.5 662,-228.5"/>
<text text-anchor="middle" x="732" y="-235.5" font-family="FreeSans" font-size="10.00" fill="#000000">eicsmear/erhic/Particle.h</text>
</a>
</g>
</g>
<!-- Node5&#45;&gt;Node30 -->
<g id="edge48" class="edge">
<title>Node5&#45;&gt;Node30</title>
<path fill="none" stroke="#191970" d="M661.467,-399.3153C673.5793,-371.6992 707.2116,-295.0174 723.2605,-258.426"/>
<polygon fill="#191970" stroke="#191970" points="726.6502,-259.4113 727.4616,-248.8476 720.2397,-256.5996 726.6502,-259.4113"/>
</g>
<!-- Node33 -->
<g id="node33" class="node">
<title>Node33</title>
<g id="a_node33"><a xlink:href="../../d8/dbc/ParticleMCS_8h.html" target="_top" xlink:title="eicsmear/smear/ParticleMCS.h">
<polygon fill="none" stroke="#000000" points="257.5,-285.5 257.5,-305.5 426.5,-305.5 426.5,-285.5 257.5,-285.5"/>
<text text-anchor="middle" x="342" y="-292.5" font-family="FreeSans" font-size="10.00" fill="#000000">eicsmear/smear/ParticleMCS.h</text>
</a>
</g>
</g>
<!-- Node5&#45;&gt;Node33 -->
<g id="edge51" class="edge">
<title>Node5&#45;&gt;Node33</title>
<path fill="none" stroke="#191970" d="M585.9793,-406.9857C509.1996,-402.8082 393.431,-391.7971 361,-363 347.8144,-351.2919 343.4672,-331.2241 342.1779,-316.0045"/>
<polygon fill="#191970" stroke="#191970" points="345.6717,-315.7889 341.6969,-305.968 338.6797,-316.1241 345.6717,-315.7889"/>
</g>
<!-- Node19&#45;&gt;Node3 -->
<g id="edge22" class="edge">
<title>Node19&#45;&gt;Node3</title>
<path fill="none" stroke="#191970" d="M1261.6544,-342.4079C1298.3345,-327.6011 1362.5602,-296.4899 1398,-249 1416.6397,-224.0226 1417,-212.6658 1417,-181.5 1417,-181.5 1417,-181.5 1417,-124.5 1417,-44.4801 799.383,-17.5688 633.5615,-11.7855"/>
<polygon fill="#191970" stroke="#191970" points="633.4176,-8.2786 623.3038,-11.4348 633.1784,-15.2745 633.4176,-8.2786"/>
</g>
<!-- Node19&#45;&gt;Node13 -->
<g id="edge23" class="edge">
<title>Node19&#45;&gt;Node13</title>
<path fill="none" stroke="#191970" d="M1154.3873,-345.3642C1139.0042,-344.1272 1123.007,-342.939 1108,-342 1012.5474,-336.0275 337.4306,-339.8973 248,-306 203.5389,-289.1477 165,-286.0478 165,-238.5 165,-238.5 165,-238.5 165,-181.5 165,-137.1684 208.3193,-102.008 238.2176,-83.0202"/>
<polygon fill="#191970" stroke="#191970" points="240.293,-85.8538 247.0027,-77.6544 236.6442,-79.88 240.293,-85.8538"/>
</g>
<!-- Node20 -->
<g id="node20" class="node">
<title>Node20</title>
<polygon fill="none" stroke="#bfbfbf" points="1401,-285.5 1401,-305.5 1433,-305.5 1433,-285.5 1401,-285.5"/>
<text text-anchor="middle" x="1417" y="-292.5" font-family="FreeSans" font-size="10.00" fill="#000000">list</text>
</g>
<!-- Node19&#45;&gt;Node20 -->
<g id="edge20" class="edge">
<title>Node19&#45;&gt;Node20</title>
<path fill="none" stroke="#191970" d="M1268.4609,-342.4724C1299.5547,-333.3188 1346.4933,-319.2378 1387,-306 1388.4096,-305.5393 1389.8539,-305.0597 1391.3101,-304.5701"/>
<polygon fill="#191970" stroke="#191970" points="1392.5305,-307.8516 1400.8497,-301.291 1390.255,-301.2318 1392.5305,-307.8516"/>
</g>
<!-- Node21 -->
<g id="node21" class="node">
<title>Node21</title>
<polygon fill="none" stroke="#bfbfbf" points="1151.5,-171.5 1151.5,-191.5 1200.5,-191.5 1200.5,-171.5 1151.5,-171.5"/>
<text text-anchor="middle" x="1176" y="-178.5" font-family="FreeSans" font-size="10.00" fill="#000000">vector</text>
</g>
<!-- Node19&#45;&gt;Node21 -->
<g id="edge21" class="edge">
<title>Node19&#45;&gt;Node21</title>
<path fill="none" stroke="#191970" d="M1227.1278,-342.4914C1215.2845,-324.6424 1191.3094,-285.7355 1181,-249 1176.6839,-233.6203 1175.5417,-215.5413 1175.4197,-201.9662"/>
<polygon fill="#191970" stroke="#191970" points="1178.9211,-201.8112 1175.5099,-191.7805 1171.9214,-201.7491 1178.9211,-201.8112"/>
</g>
<!-- Node22 -->
<g id="node22" class="node">
<title>Node22</title>
<g id="a_node22"><a xlink:href="../../db/d19/erhic_2ParticleMC_8h.html" target="_top" xlink:title="eicsmear/erhic/ParticleMC.h">
<polygon fill="none" stroke="#000000" points="346,-171.5 346,-191.5 502,-191.5 502,-171.5 346,-171.5"/>
<text text-anchor="middle" x="424" y="-178.5" font-family="FreeSans" font-size="10.00" fill="#000000">eicsmear/erhic/ParticleMC.h</text>
</a>
</g>
</g>
<!-- Node19&#45;&gt;Node22 -->
<g id="edge24" class="edge">
<title>Node19&#45;&gt;Node22</title>
<path fill="none" stroke="#191970" d="M1154.2372,-345.7675C1078.7545,-338.6279 962.508,-325.6398 863,-306 768.12,-287.2736 742.6327,-285.3162 653,-249 635.1159,-241.754 632.9776,-235.0108 615,-228 575.6189,-212.6423 529.6359,-201.2607 492.6572,-193.6026"/>
<polygon fill="#191970" stroke="#191970" points="492.9749,-190.0959 482.4791,-191.5411 491.5853,-196.9566 492.9749,-190.0959"/>
</g>
<!-- Node19&#45;&gt;Node26 -->
<g id="edge47" class="edge">
<title>Node19&#45;&gt;Node26</title>
<path fill="none" stroke="#191970" d="M1217.2763,-342.2873C1164.6331,-310.685 996.751,-214.0376 844,-171 790.0391,-155.7965 727.9595,-144.0427 679.9226,-136.1558"/>
<polygon fill="#191970" stroke="#191970" points="680.3242,-132.6753 669.8932,-134.5316 679.2051,-139.5852 680.3242,-132.6753"/>
</g>
<!-- Node19&#45;&gt;Node27 -->
<g id="edge35" class="edge">
<title>Node19&#45;&gt;Node27</title>
<path fill="none" stroke="#191970" d="M1186.3509,-342.4408C1140.3204,-332.7232 1070.546,-317.9931 1021.4617,-307.6308"/>
<polygon fill="#191970" stroke="#191970" points="1022.1334,-304.1955 1011.6261,-305.5544 1020.6874,-311.0446 1022.1334,-304.1955"/>
</g>
<!-- Node22&#45;&gt;Node2 -->
<g id="edge25" class="edge">
<title>Node22&#45;&gt;Node2</title>
<path fill="none" stroke="#191970" d="M393.9987,-171.4408C363.8539,-161.3334 317.5358,-145.8032 286.525,-135.4054"/>
<polygon fill="#191970" stroke="#191970" points="287.2345,-131.9519 276.6406,-132.0913 285.0091,-138.5888 287.2345,-131.9519"/>
</g>
<!-- Node22&#45;&gt;Node13 -->
<g id="edge26" class="edge">
<title>Node22&#45;&gt;Node13</title>
<path fill="none" stroke="#191970" d="M409.9786,-171.3833C382.5242,-151.5744 321.4767,-107.5275 288.3772,-83.6456"/>
<polygon fill="#191970" stroke="#191970" points="290.3746,-80.7708 280.2171,-77.7579 286.2787,-86.4475 290.3746,-80.7708"/>
</g>
<!-- Node23 -->
<g id="node23" class="node">
<title>Node23</title>
<polygon fill="none" stroke="#bfbfbf" points="371,-114.5 371,-134.5 419,-134.5 419,-114.5 371,-114.5"/>
<text text-anchor="middle" x="395" y="-121.5" font-family="FreeSans" font-size="10.00" fill="#000000">TRef.h</text>
</g>
<!-- Node22&#45;&gt;Node23 -->
<g id="edge27" class="edge">
<title>Node22&#45;&gt;Node23</title>
<path fill="none" stroke="#191970" d="M418.8154,-171.3095C414.8977,-163.6093 409.4067,-152.8166 404.6844,-143.5349"/>
<polygon fill="#191970" stroke="#191970" points="407.7938,-141.9279 400.1397,-134.6022 401.5549,-145.1021 407.7938,-141.9279"/>
</g>
<!-- Node24 -->
<g id="node24" class="node">
<title>Node24</title>
<polygon fill="none" stroke="#bfbfbf" points="554.5,-57.5 554.5,-77.5 625.5,-77.5 625.5,-57.5 554.5,-57.5"/>
<text text-anchor="middle" x="590" y="-64.5" font-family="FreeSans" font-size="10.00" fill="#000000">TVector3.h</text>
</g>
<!-- Node22&#45;&gt;Node24 -->
<g id="edge28" class="edge">
<title>Node22&#45;&gt;Node24</title>
<path fill="none" stroke="#191970" d="M434.8121,-171.1218C449.6699,-157.1625 477.5719,-132.0132 504,-114 521.4692,-102.0932 542.2975,-90.7651 559.081,-82.2712"/>
<polygon fill="#191970" stroke="#191970" points="561.0457,-85.203 568.4394,-77.6146 557.9273,-78.9359 561.0457,-85.203"/>
</g>
<!-- Node25 -->
<g id="node25" class="node">
<title>Node25</title>
<g id="a_node25"><a xlink:href="../../d8/da3/Pid_8h.html" target="_top" xlink:title="eicsmear/erhic/Pid.h">
<polygon fill="none" stroke="#000000" points="398,-57.5 398,-77.5 516,-77.5 516,-57.5 398,-57.5"/>
<text text-anchor="middle" x="457" y="-64.5" font-family="FreeSans" font-size="10.00" fill="#000000">eicsmear/erhic/Pid.h</text>
</a>
</g>
</g>
<!-- Node22&#45;&gt;Node25 -->
<g id="edge29" class="edge">
<title>Node22&#45;&gt;Node25</title>
<path fill="none" stroke="#191970" d="M426.9285,-171.3833C432.3699,-152.586 444.1292,-111.9627 451.2233,-87.4559"/>
<polygon fill="#191970" stroke="#191970" points="454.6119,-88.3368 454.0306,-77.7579 447.888,-86.3904 454.6119,-88.3368"/>
</g>
<!-- Node22&#45;&gt;Node26 -->
<g id="edge31" class="edge">
<title>Node22&#45;&gt;Node26</title>
<path fill="none" stroke="#191970" d="M455.0601,-171.4408C484.0003,-162.0681 527.3389,-148.0323 559.0872,-137.7502"/>
<polygon fill="#191970" stroke="#191970" points="560.5198,-140.9653 568.9549,-134.5544 558.3629,-134.3058 560.5198,-140.9653"/>
</g>
<!-- Node25&#45;&gt;Node3 -->
<g id="edge30" class="edge">
<title>Node25&#45;&gt;Node3</title>
<path fill="none" stroke="#191970" d="M481.001,-57.4408C502.8125,-48.2992 535.2082,-34.7216 559.5549,-24.5174"/>
<polygon fill="#191970" stroke="#191970" points="560.9116,-27.7438 568.7815,-20.6504 558.2058,-21.2879 560.9116,-27.7438"/>
</g>
<!-- Node26&#45;&gt;Node13 -->
<g id="edge32" class="edge">
<title>Node26&#45;&gt;Node13</title>
<path fill="none" stroke="#191970" d="M541.0563,-114.4408C480.7406,-104.1474 387.4687,-88.2297 326.569,-77.8366"/>
<polygon fill="#191970" stroke="#191970" points="327.1567,-74.3864 316.7104,-76.1542 325.9791,-81.2866 327.1567,-74.3864"/>
</g>
<!-- Node26&#45;&gt;Node24 -->
<g id="edge33" class="edge">
<title>Node26&#45;&gt;Node24</title>
<path fill="none" stroke="#191970" d="M598.2122,-114.3095C596.9182,-106.9335 595.1263,-96.72 593.5465,-87.715"/>
<polygon fill="#191970" stroke="#191970" points="596.9477,-86.847 591.7723,-77.6022 590.053,-88.0566 596.9477,-86.847"/>
</g>
<!-- Node26&#45;&gt;Node25 -->
<g id="edge34" class="edge">
<title>Node26&#45;&gt;Node25</title>
<path fill="none" stroke="#191970" d="M574.7636,-114.4408C551.728,-105.2587 517.4648,-91.6013 491.8272,-81.3822"/>
<polygon fill="#191970" stroke="#191970" points="493.0503,-78.1019 482.4651,-77.6504 490.4584,-84.6044 493.0503,-78.1019"/>
</g>
<!-- Node27&#45;&gt;Node6 -->
<g id="edge36" class="edge">
<title>Node27&#45;&gt;Node6</title>
<path fill="none" stroke="#191970" d="M896.5854,-285.4408C814.5829,-273.2048 679.3189,-253.0214 616.2976,-243.6177"/>
<polygon fill="#191970" stroke="#191970" points="616.5167,-240.1117 606.1096,-242.0975 615.4836,-247.0351 616.5167,-240.1117"/>
</g>
<!-- Node27&#45;&gt;Node21 -->
<g id="edge38" class="edge">
<title>Node27&#45;&gt;Node21</title>
<path fill="none" stroke="#191970" d="M1003.3961,-285.4782C1030.2572,-277.712 1066.0637,-265.4878 1095,-249 1119.3788,-235.1091 1143.6028,-213.6534 1159.1175,-198.6719"/>
<polygon fill="#191970" stroke="#191970" points="1161.7266,-201.0146 1166.3914,-191.502 1156.8126,-196.0293 1161.7266,-201.0146"/>
</g>
<!-- Node28 -->
<g id="node28" class="node">
<title>Node28</title>
<polygon fill="none" stroke="#bfbfbf" points="942,-228.5 942,-248.5 986,-248.5 986,-228.5 942,-228.5"/>
<text text-anchor="middle" x="964" y="-235.5" font-family="FreeSans" font-size="10.00" fill="#000000">limits</text>
</g>
<!-- Node27&#45;&gt;Node28 -->
<g id="edge37" class="edge">
<title>Node27&#45;&gt;Node28</title>
<path fill="none" stroke="#191970" d="M964,-285.3095C964,-277.9335 964,-267.72 964,-258.715"/>
<polygon fill="#191970" stroke="#191970" points="967.5001,-258.6022 964,-248.6022 960.5001,-258.6023 967.5001,-258.6022"/>
</g>
<!-- Node29 -->
<g id="node29" class="node">
<title>Node29</title>
<g id="a_node29"><a xlink:href="../../d3/d7d/BeamParticles_8h.html" target="_top" xlink:title="eicsmear/erhic/BeamParticles.h">
<polygon fill="none" stroke="#000000" points="705.5,-114.5 705.5,-134.5 880.5,-134.5 880.5,-114.5 705.5,-114.5"/>
<text text-anchor="middle" x="793" y="-121.5" font-family="FreeSans" font-size="10.00" fill="#000000">eicsmear/erhic/BeamParticles.h</text>
</a>
</g>
</g>
<!-- Node27&#45;&gt;Node29 -->
<g id="edge39" class="edge">
<title>Node27&#45;&gt;Node29</title>
<path fill="none" stroke="#191970" d="M975.1062,-285.053C988.1756,-271.4481 1006.7023,-247.145 995,-228 964.302,-177.778 900.6538,-150.9263 852.9598,-137.2709"/>
<polygon fill="#191970" stroke="#191970" points="853.6116,-133.8205 843.0421,-134.5536 851.7618,-140.5717 853.6116,-133.8205"/>
</g>
<!-- Node27&#45;&gt;Node30 -->
<g id="edge42" class="edge">
<title>Node27&#45;&gt;Node30</title>
<path fill="none" stroke="#191970" d="M923.0571,-285.4408C883.9178,-275.8246 824.8001,-261.3 782.701,-250.9567"/>
<polygon fill="#191970" stroke="#191970" points="783.4694,-247.5415 772.9231,-248.5544 781.7992,-254.3393 783.4694,-247.5415"/>
</g>
<!-- Node31 -->
<g id="node31" class="node">
<title>Node31</title>
<g id="a_node31"><a xlink:href="../../d4/dc7/VirtualEvent_8h.html" target="_top" xlink:title="eicsmear/erhic/VirtualEvent.h">
<polygon fill="none" stroke="#000000" points="1223.5,-228.5 1223.5,-248.5 1388.5,-248.5 1388.5,-228.5 1223.5,-228.5"/>
<text text-anchor="middle" x="1306" y="-235.5" font-family="FreeSans" font-size="10.00" fill="#000000">eicsmear/erhic/VirtualEvent.h</text>
</a>
</g>
</g>
<!-- Node27&#45;&gt;Node31 -->
<g id="edge44" class="edge">
<title>Node27&#45;&gt;Node31</title>
<path fill="none" stroke="#191970" d="M1024.3555,-285.4408C1083.482,-275.5863 1173.5371,-260.5771 1235.8264,-250.1956"/>
<polygon fill="#191970" stroke="#191970" points="1236.6725,-253.6029 1245.961,-248.5065 1235.5216,-246.6982 1236.6725,-253.6029"/>
</g>
<!-- Node29&#45;&gt;Node3 -->
<g id="edge40" class="edge">
<title>Node29&#45;&gt;Node3</title>
<path fill="none" stroke="#191970" d="M775.2513,-114.3833C739.9665,-94.2709 660.8455,-49.1719 619.4247,-25.5621"/>
<polygon fill="#191970" stroke="#191970" points="621.1299,-22.5054 610.7089,-20.5941 617.6634,-28.5869 621.1299,-22.5054"/>
</g>
<!-- Node29&#45;&gt;Node13 -->
<g id="edge41" class="edge">
<title>Node29&#45;&gt;Node13</title>
<path fill="none" stroke="#191970" d="M705.4909,-115.0269C702.2872,-114.6803 699.1155,-114.3371 696,-114 564.3186,-99.7529 409.9528,-83.0626 326.6814,-74.06"/>
<polygon fill="#191970" stroke="#191970" points="326.9581,-70.5696 316.6398,-72.9744 326.2056,-77.529 326.9581,-70.5696"/>
</g>
<!-- Node30&#45;&gt;Node22 -->
<g id="edge43" class="edge">
<title>Node30&#45;&gt;Node22</title>
<path fill="none" stroke="#191970" d="M677.6448,-228.4408C624.7257,-218.6473 544.2963,-203.7626 488.2411,-193.3888"/>
<polygon fill="#191970" stroke="#191970" points="488.5402,-189.8848 478.0702,-191.5065 487.2663,-196.7679 488.5402,-189.8848"/>
</g>
<!-- Node31&#45;&gt;Node21 -->
<g id="edge46" class="edge">
<title>Node31&#45;&gt;Node21</title>
<path fill="none" stroke="#191970" d="M1283.0579,-228.4408C1262.3931,-219.3801 1231.7895,-205.9615 1208.5892,-195.7891"/>
<polygon fill="#191970" stroke="#191970" points="1209.7139,-192.4606 1199.1501,-191.6504 1206.9029,-198.8715 1209.7139,-192.4606"/>
</g>
<!-- Node32 -->
<g id="node32" class="node">
<title>Node32</title>
<polygon fill="none" stroke="#bfbfbf" points="1298.5,-171.5 1298.5,-191.5 1363.5,-191.5 1363.5,-171.5 1298.5,-171.5"/>
<text text-anchor="middle" x="1331" y="-178.5" font-family="FreeSans" font-size="10.00" fill="#000000">TObject.h</text>
</g>
<!-- Node31&#45;&gt;Node32 -->
<g id="edge45" class="edge">
<title>Node31&#45;&gt;Node32</title>
<path fill="none" stroke="#191970" d="M1310.4695,-228.3095C1313.8113,-220.6903 1318.4809,-210.0435 1322.5226,-200.8285"/>
<polygon fill="#191970" stroke="#191970" points="1325.7578,-202.166 1326.5692,-191.6022 1319.3473,-199.3543 1325.7578,-202.166"/>
</g>
<!-- Node33&#45;&gt;Node6 -->
<g id="edge52" class="edge">
<title>Node33&#45;&gt;Node6</title>
<path fill="none" stroke="#191970" d="M388.2677,-285.4475C429.2993,-276.3904 490.7984,-262.467 544,-249 545.269,-248.6788 546.5604,-248.347 547.8639,-248.0079"/>
<polygon fill="#191970" stroke="#191970" points="549.1603,-251.2844 557.919,-245.3232 547.3546,-244.5214 549.1603,-251.2844"/>
</g>
<!-- Node33&#45;&gt;Node13 -->
<g id="edge53" class="edge">
<title>Node33&#45;&gt;Node13</title>
<path fill="none" stroke="#191970" d="M328.8788,-285.3271C317.9595,-276.4635 302.4113,-262.8856 291,-249 253.3973,-203.2442 237.9192,-192.045 222,-135 219.4913,-126.0102 218.5477,-122.6714 222,-114 226.5953,-102.4576 235.5666,-92.1294 244.2162,-84.1557"/>
<polygon fill="#191970" stroke="#191970" points="246.6282,-86.6979 251.9346,-77.5276 242.0677,-81.3873 246.6282,-86.6979"/>
</g>
<!-- Node33&#45;&gt;Node25 -->
<g id="edge54" class="edge">
<title>Node33&#45;&gt;Node25</title>
<path fill="none" stroke="#191970" d="M339.345,-285.1223C332.1367,-254.2721 315.7023,-162.2775 362,-114 376.0484,-99.3509 395.6754,-88.6832 413.445,-81.2897"/>
<polygon fill="#191970" stroke="#191970" points="415.0449,-84.4219 423.0786,-77.5146 412.4909,-77.9044 415.0449,-84.4219"/>
</g>
<!-- Node33&#45;&gt;Node26 -->
<g id="edge55" class="edge">
<title>Node33&#45;&gt;Node26</title>
<path fill="none" stroke="#191970" d="M359.6341,-285.4786C390.7774,-267.6096 457.3019,-228.673 511,-192 535.2216,-175.4579 561.8891,-154.9005 579.6573,-140.8467"/>
<polygon fill="#191970" stroke="#191970" points="581.9684,-143.4807 587.6153,-134.5162 577.6105,-138.0026 581.9684,-143.4807"/>
</g>
<!-- Node34&#45;&gt;Node4 -->
<g id="edge60" class="edge">
<title>Node34&#45;&gt;Node4</title>
<path fill="none" stroke="#191970" d="M1412.2732,-399.3095C1403.5704,-391.0419 1391.1151,-379.2093 1380.9048,-369.5096"/>
<polygon fill="#191970" stroke="#191970" points="1383.2946,-366.9523 1373.6339,-362.6022 1378.4733,-372.0273 1383.2946,-366.9523"/>
</g>
<!-- Node34&#45;&gt;Node20 -->
<g id="edge57" class="edge">
<title>Node34&#45;&gt;Node20</title>
<path fill="none" stroke="#191970" d="M1422.4675,-399.3833C1421.4826,-380.6703 1419.3593,-340.3266 1418.0677,-315.7866"/>
<polygon fill="#191970" stroke="#191970" points="1421.5607,-315.5601 1417.5399,-305.7579 1414.5704,-315.9281 1421.5607,-315.5601"/>
</g>
<!-- Node34&#45;&gt;Node21 -->
<g id="edge58" class="edge">
<title>Node34&#45;&gt;Node21</title>
<path fill="none" stroke="#191970" d="M1429.206,-399.3573C1442.5498,-376.1113 1470.5388,-318.4214 1442,-285 1375.6669,-207.3181 1299.1877,-306.8532 1215,-249 1198.5056,-237.6651 1188.0538,-216.9028 1182.1674,-201.3864"/>
<polygon fill="#191970" stroke="#191970" points="1185.3806,-199.9687 1178.8034,-191.6626 1178.7652,-202.2574 1185.3806,-199.9687"/>
</g>
<!-- Node34&#45;&gt;Node32 -->
<g id="edge59" class="edge">
<title>Node34&#45;&gt;Node32</title>
<path fill="none" stroke="#191970" d="M1440.5741,-399.3885C1452.7471,-391.2886 1467.9783,-378.6986 1475,-363 1489.1543,-331.3546 1490.6004,-315.9581 1475,-285 1452.8377,-241.0203 1402.149,-211.5919 1367.2361,-195.7012"/>
<polygon fill="#191970" stroke="#191970" points="1368.4074,-192.3931 1357.844,-191.5774 1365.5932,-198.8024 1368.4074,-192.3931"/>
</g>
</g>
</svg>
