<?xml version="1.0" encoding="UTF-8" standalone="no"?>
<!DOCTYPE svg PUBLIC "-//W3C//DTD SVG 1.1//EN"
 "http://www.w3.org/Graphics/SVG/1.1/DTD/svg11.dtd">
<!-- Generated by graphviz version 2.40.1 (20161225.0304)
 -->
<!-- Title: parpol Pages: 1 -->
<svg width="1355pt" height="714pt"
 viewBox="0.00 0.00 1355.00 714.00" xmlns="http://www.w3.org/2000/svg" xmlns:xlink="http://www.w3.org/1999/xlink">
<g id="graph0" class="graph" transform="scale(1 1) rotate(0) translate(4 710)">
<title>parpol</title>
<!-- Node1 -->
<g id="node1" class="node">
<title>Node1</title>
<polygon fill="#bfbfbf" stroke="#000000" points="0,-90.5 0,-110.5 48,-110.5 48,-90.5 0,-90.5"/>
<text text-anchor="middle" x="24" y="-97.5" font-family="FreeSans" font-size="10.00" fill="#000000">parpol</text>
</g>
<!-- Node2 -->
<g id="node2" class="node">
<title>Node2</title>
<g id="a_node2"><a xlink:href="../../d1/dfc/dfint_8F.html#ad10798dfb39a3a38013704684cf73c15" target="_top" xlink:title="dfint">
<polygon fill="none" stroke="#000000" points="140,-362.5 140,-382.5 180,-382.5 180,-362.5 140,-362.5"/>
<text text-anchor="middle" x="160" y="-369.5" font-family="FreeSans" font-size="10.00" fill="#000000">dfint</text>
</a>
</g>
</g>
<!-- Node1&#45;&gt;Node2 -->
<g id="edge1" class="edge">
<title>Node1&#45;&gt;Node2</title>
<path fill="none" stroke="#191970" d="M29.0016,-110.5032C49.0358,-150.5717 123.6901,-299.8802 150.4112,-353.3224"/>
<polygon fill="#191970" stroke="#191970" points="147.3502,-355.0268 154.9529,-362.4058 153.6112,-351.8963 147.3502,-355.0268"/>
</g>
<!-- Node27 -->
<g id="node27" class="node">
<title>Node27</title>
<g id="a_node27"><a xlink:href="../../d2/d18/medium-simple_8f.html#a58e0410e81664819969cd2981fd7cd27" target="_top" xlink:title="npart">
<polygon fill="none" stroke="#000000" points="138,-90.5 138,-110.5 182,-110.5 182,-90.5 138,-90.5"/>
<text text-anchor="middle" x="160" y="-97.5" font-family="FreeSans" font-size="10.00" fill="#000000">npart</text>
</a>
</g>
</g>
<!-- Node1&#45;&gt;Node27 -->
<g id="edge29" class="edge">
<title>Node1&#45;&gt;Node27</title>
<path fill="none" stroke="#191970" d="M48.001,-100.5C70.0544,-100.5 102.9279,-100.5 127.3619,-100.5"/>
<polygon fill="#191970" stroke="#191970" points="127.5924,-104.0001 137.5924,-100.5 127.5923,-97.0001 127.5924,-104.0001"/>
</g>
<!-- Node33 -->
<g id="node33" class="node">
<title>Node33</title>
<g id="a_node33"><a xlink:href="../../db/d20/parton_8f.html#aa0edf2e3bc4c9634a0c0e2ee25615ad2" target="_top" xlink:title="parton">
<polygon fill="none" stroke="#000000" points="135.5,-187.5 135.5,-207.5 184.5,-207.5 184.5,-187.5 135.5,-187.5"/>
<text text-anchor="middle" x="160" y="-194.5" font-family="FreeSans" font-size="10.00" fill="#000000">parton</text>
</a>
</g>
</g>
<!-- Node1&#45;&gt;Node33 -->
<g id="edge36" class="edge">
<title>Node1&#45;&gt;Node33</title>
<path fill="none" stroke="#191970" d="M38.0421,-110.5154C61.558,-127.2877 109.1016,-161.1975 137.3807,-181.3671"/>
<polygon fill="#191970" stroke="#191970" points="135.6567,-184.4365 145.8305,-187.3938 139.7215,-178.7376 135.6567,-184.4365"/>
</g>
<!-- Node46 -->
<g id="node46" class="node">
<title>Node46</title>
<g id="a_node46"><a xlink:href="../../d1/d40/structActs_1_1detail_1_1VoidNavigator.html#a8546b6149743722f397087658a21bfa6" target="_top" xlink:title="Acts::detail::VoidNavigator\l::status">
<polygon fill="none" stroke="#000000" points="84,-39.5 84,-71.5 236,-71.5 236,-39.5 84,-39.5"/>
<text text-anchor="start" x="92" y="-58.5" font-family="FreeSans" font-size="10.00" fill="#000000">Acts::detail::VoidNavigator</text>
<text text-anchor="middle" x="160" y="-46.5" font-family="FreeSans" font-size="10.00" fill="#000000">::status</text>
</a>
</g>
</g>
<!-- Node1&#45;&gt;Node46 -->
<g id="edge54" class="edge">
<title>Node1&#45;&gt;Node46</title>
<path fill="none" stroke="#191970" d="M48.2236,-92.4013C59.1508,-88.7542 72.2214,-84.4003 84,-80.5 89.5751,-78.6539 95.3818,-76.7356 101.1915,-74.8194"/>
<polygon fill="#191970" stroke="#191970" points="102.5292,-78.0637 110.9312,-71.6095 100.3382,-71.4155 102.5292,-78.0637"/>
</g>
<!-- Node47 -->
<g id="node47" class="node">
<title>Node47</title>
<g id="a_node47"><a xlink:href="../../de/d50/classFun4AllFileOutStream.html#ad23d8e6e6b621202575374a2155ce229" target="_top" xlink:title="Fun4AllFileOutStream::xb">
<polygon fill="none" stroke="#000000" points="87.5,-.5 87.5,-20.5 232.5,-20.5 232.5,-.5 87.5,-.5"/>
<text text-anchor="middle" x="160" y="-7.5" font-family="FreeSans" font-size="10.00" fill="#000000">Fun4AllFileOutStream::xb</text>
</a>
</g>
</g>
<!-- Node1&#45;&gt;Node47 -->
<g id="edge55" class="edge">
<title>Node1&#45;&gt;Node47</title>
<path fill="none" stroke="#191970" d="M29.7389,-90.2817C39.0433,-74.6862 58.9321,-45.1144 84,-29.5 86.9762,-27.6462 90.1238,-25.973 93.378,-24.463"/>
<polygon fill="#191970" stroke="#191970" points="94.843,-27.6454 102.7777,-20.6246 92.1966,-21.1649 94.843,-27.6454"/>
</g>
<!-- Node3 -->
<g id="node3" class="node">
<title>Node3</title>
<g id="a_node3"><a xlink:href="../../dc/d40/classHijJet4.html#a0ecd6bde8301b8e4ff42fcd86c5afb14" target="_top" xlink:title="HijJet4::iadr">
<polygon fill="none" stroke="#000000" points="283.5,-401.5 283.5,-421.5 359.5,-421.5 359.5,-401.5 283.5,-401.5"/>
<text text-anchor="middle" x="321.5" y="-408.5" font-family="FreeSans" font-size="10.00" fill="#000000">HijJet4::iadr</text>
</a>
</g>
</g>
<!-- Node2&#45;&gt;Node3 -->
<g id="edge2" class="edge">
<title>Node2&#45;&gt;Node3</title>
<path fill="none" stroke="#191970" d="M180.1275,-377.3605C203.3224,-382.9618 242.2436,-392.3607 273.3818,-399.8801"/>
<polygon fill="#191970" stroke="#191970" points="272.6462,-403.303 283.1884,-402.2483 274.2894,-396.4986 272.6462,-403.303"/>
</g>
<!-- Node8 -->
<g id="node8" class="node">
<title>Node8</title>
<g id="a_node8"><a xlink:href="../../d3/df2/classgenfit_1_1GFRavePropagator.html#a0534e516b69488120356d8bfa53f6f5b" target="_top" xlink:title="genfit::GFRavePropagator::to">
<polygon fill="none" stroke="#000000" points="407,-323.5 407,-343.5 570,-343.5 570,-323.5 407,-323.5"/>
<text text-anchor="middle" x="488.5" y="-330.5" font-family="FreeSans" font-size="10.00" fill="#000000">genfit::GFRavePropagator::to</text>
</a>
</g>
</g>
<!-- Node2&#45;&gt;Node8 -->
<g id="edge7" class="edge">
<title>Node2&#45;&gt;Node8</title>
<path fill="none" stroke="#191970" d="M180.0848,-370.3083C217.6092,-366.1928 300.9062,-356.96 371,-348.5 380.7234,-347.3264 390.8957,-346.0704 401.0131,-344.8031"/>
<polygon fill="#191970" stroke="#191970" points="401.6089,-348.2558 411.0937,-343.5348 400.735,-341.3106 401.6089,-348.2558"/>
</g>
<!-- Node4 -->
<g id="node4" class="node">
<title>Node4</title>
<g id="a_node4"><a xlink:href="../../dc/d40/classHijJet4.html#a0bd4e1a7267a3cdceb5ef65f77c47fe5" target="_top" xlink:title="HijJet4::init">
<polygon fill="none" stroke="#000000" points="452.5,-401.5 452.5,-421.5 524.5,-421.5 524.5,-401.5 452.5,-401.5"/>
<text text-anchor="middle" x="488.5" y="-408.5" font-family="FreeSans" font-size="10.00" fill="#000000">HijJet4::init</text>
</a>
</g>
</g>
<!-- Node3&#45;&gt;Node4 -->
<g id="edge3" class="edge">
<title>Node3&#45;&gt;Node4</title>
<path fill="none" stroke="#191970" d="M359.8132,-411.5C384.273,-411.5 416.1357,-411.5 442.0361,-411.5"/>
<polygon fill="#191970" stroke="#191970" points="442.3672,-415.0001 452.3671,-411.5 442.3671,-408.0001 442.3672,-415.0001"/>
</g>
<!-- Node6 -->
<g id="node6" class="node">
<title>Node6</title>
<g id="a_node6"><a xlink:href="../../dc/d40/classHijJet4.html#a8d54acc34a181a6c99c50c7ad77c0331" target="_top" xlink:title="HijJet4::lenI">
<polygon fill="none" stroke="#000000" points="451.5,-362.5 451.5,-382.5 525.5,-382.5 525.5,-362.5 451.5,-362.5"/>
<text text-anchor="middle" x="488.5" y="-369.5" font-family="FreeSans" font-size="10.00" fill="#000000">HijJet4::lenI</text>
</a>
</g>
</g>
<!-- Node3&#45;&gt;Node6 -->
<g id="edge5" class="edge">
<title>Node3&#45;&gt;Node6</title>
<path fill="none" stroke="#191970" d="M359.8132,-402.5526C384.0417,-396.8945 415.5336,-389.54 441.2996,-383.5228"/>
<polygon fill="#191970" stroke="#191970" points="442.2854,-386.8869 451.2274,-381.2044 440.6934,-380.0703 442.2854,-386.8869"/>
</g>
<!-- Node7 -->
<g id="node7" class="node">
<title>Node7</title>
<g id="a_node7"><a xlink:href="../../dc/d40/classHijJet4.html#a84ee5f674ba2f17640145e692edeee38" target="_top" xlink:title="HijJet4::lenJ">
<polygon fill="none" stroke="#000000" points="451.5,-440.5 451.5,-460.5 525.5,-460.5 525.5,-440.5 451.5,-440.5"/>
<text text-anchor="middle" x="488.5" y="-447.5" font-family="FreeSans" font-size="10.00" fill="#000000">HijJet4::lenJ</text>
</a>
</g>
</g>
<!-- Node3&#45;&gt;Node7 -->
<g id="edge6" class="edge">
<title>Node3&#45;&gt;Node7</title>
<path fill="none" stroke="#191970" d="M359.8041,-420.4665C374.5555,-423.9179 391.5611,-427.8947 407,-431.5 418.0488,-434.0801 429.9408,-436.8542 441.1334,-439.4638"/>
<polygon fill="#191970" stroke="#191970" points="440.638,-442.9421 451.1715,-441.8038 442.2273,-436.1249 440.638,-442.9421"/>
</g>
<!-- Node5 -->
<g id="node5" class="node">
<title>Node5</title>
<g id="a_node5"><a xlink:href="../../d7/d28/HijJet4_8h.html#a38665552d98e808cd3aeaa4c9bebfb0a" target="_top" xlink:title="hijjet4_address_">
<polygon fill="none" stroke="#000000" points="632,-401.5 632,-421.5 730,-421.5 730,-401.5 632,-401.5"/>
<text text-anchor="middle" x="681" y="-408.5" font-family="FreeSans" font-size="10.00" fill="#000000">hijjet4_address_</text>
</a>
</g>
</g>
<!-- Node4&#45;&gt;Node5 -->
<g id="edge4" class="edge">
<title>Node4&#45;&gt;Node5</title>
<path fill="none" stroke="#191970" d="M524.7078,-411.5C552.0283,-411.5 590.095,-411.5 621.8197,-411.5"/>
<polygon fill="#191970" stroke="#191970" points="621.8754,-415.0001 631.8754,-411.5 621.8753,-408.0001 621.8754,-415.0001"/>
</g>
<!-- Node9 -->
<g id="node9" class="node">
<title>Node9</title>
<g id="a_node9"><a xlink:href="../../dc/d22/namespacegenfit.html#aec5c8cb927a354edfb23af80108b69d4" target="_top" xlink:title="genfit::PlaneToGFDetPlane">
<polygon fill="none" stroke="#000000" points="606,-212.5 606,-232.5 756,-232.5 756,-212.5 606,-212.5"/>
<text text-anchor="middle" x="681" y="-219.5" font-family="FreeSans" font-size="10.00" fill="#000000">genfit::PlaneToGFDetPlane</text>
</a>
</g>
</g>
<!-- Node8&#45;&gt;Node9 -->
<g id="edge8" class="edge">
<title>Node8&#45;&gt;Node9</title>
<path fill="none" stroke="#191970" d="M505.9226,-323.4537C539.7666,-303.9385 614.5763,-260.8014 654.5697,-237.7403"/>
<polygon fill="#191970" stroke="#191970" points="656.5634,-240.6309 663.4781,-232.6036 653.0667,-234.5668 656.5634,-240.6309"/>
</g>
<!-- Node12 -->
<g id="node12" class="node">
<title>Node12</title>
<g id="a_node12"><a xlink:href="../../dc/d22/namespacegenfit.html#a16248965fc33843bb4f2d9bd8b0a7ce7" target="_top" xlink:title="genfit::GFTrackToTrack">
<polygon fill="none" stroke="#000000" points="616,-352.5 616,-372.5 746,-372.5 746,-352.5 616,-352.5"/>
<text text-anchor="middle" x="681" y="-359.5" font-family="FreeSans" font-size="10.00" fill="#000000">genfit::GFTrackToTrack</text>
</a>
</g>
</g>
<!-- Node8&#45;&gt;Node12 -->
<g id="edge11" class="edge">
<title>Node8&#45;&gt;Node12</title>
<path fill="none" stroke="#191970" d="M555.0171,-343.5208C571.3064,-345.9747 588.8556,-348.6185 605.5309,-351.1306"/>
<polygon fill="#191970" stroke="#191970" points="605.3718,-354.6461 615.7816,-352.6749 606.4146,-347.7242 605.3718,-354.6461"/>
</g>
<!-- Node10 -->
<g id="node10" class="node">
<title>Node10</title>
<g id="a_node10"><a xlink:href="../../dc/d22/namespacegenfit.html#ad8550f9eaa6237f8ddf48aefd57dfe58" target="_top" xlink:title="genfit::Point3DToTVector3">
<polygon fill="none" stroke="#000000" points="803.5,-173.5 803.5,-193.5 950.5,-193.5 950.5,-173.5 803.5,-173.5"/>
<text text-anchor="middle" x="877" y="-180.5" font-family="FreeSans" font-size="10.00" fill="#000000">genfit::Point3DToTVector3</text>
</a>
</g>
</g>
<!-- Node9&#45;&gt;Node10 -->
<g id="edge9" class="edge">
<title>Node9&#45;&gt;Node10</title>
<path fill="none" stroke="#191970" d="M731.4749,-212.4565C757.5377,-207.2706 789.5178,-200.9072 816.8544,-195.4677"/>
<polygon fill="#191970" stroke="#191970" points="817.5715,-198.8938 826.6962,-193.5094 816.2054,-192.0283 817.5715,-198.8938"/>
</g>
<!-- Node11 -->
<g id="node11" class="node">
<title>Node11</title>
<g id="a_node11"><a xlink:href="../../dc/d22/namespacegenfit.html#ad3ecb92a152c9ea7f5290e3653910473" target="_top" xlink:title="genfit::Vector3DToTVector3">
<polygon fill="none" stroke="#000000" points="800,-212.5 800,-232.5 954,-232.5 954,-212.5 800,-212.5"/>
<text text-anchor="middle" x="877" y="-219.5" font-family="FreeSans" font-size="10.00" fill="#000000">genfit::Vector3DToTVector3</text>
</a>
</g>
</g>
<!-- Node9&#45;&gt;Node11 -->
<g id="edge10" class="edge">
<title>Node9&#45;&gt;Node11</title>
<path fill="none" stroke="#191970" d="M756.2182,-222.5C767.1284,-222.5 778.4374,-222.5 789.5627,-222.5"/>
<polygon fill="#191970" stroke="#191970" points="789.7115,-226.0001 799.7115,-222.5 789.7114,-219.0001 789.7115,-226.0001"/>
</g>
<!-- Node13 -->
<g id="node13" class="node">
<title>Node13</title>
<g id="a_node13"><a xlink:href="../../d6/d8a/classgenfit_1_1Track.html#ad06e7a012624bdb03960826b5c9fcd93" target="_top" xlink:title="Get FitStatus for a AbsTrackRep. Per default, return FitStatus for cardinalRep.">
<polygon fill="none" stroke="#000000" points="1000,-302.5 1000,-322.5 1146,-322.5 1146,-302.5 1000,-302.5"/>
<text text-anchor="middle" x="1073" y="-309.5" font-family="FreeSans" font-size="10.00" fill="#000000">genfit::Track::getFitStatus</text>
</a>
</g>
</g>
<!-- Node12&#45;&gt;Node13 -->
<g id="edge12" class="edge">
<title>Node12&#45;&gt;Node13</title>
<path fill="none" stroke="#191970" d="M690.4557,-352.2179C708.2125,-333.7623 748.6794,-295.6256 792,-281.5 876.7821,-253.855 982.7643,-281.0664 1037.1473,-299.1928"/>
<polygon fill="#191970" stroke="#191970" points="1036.0901,-302.5302 1046.6846,-302.4564 1038.3564,-295.9072 1036.0901,-302.5302"/>
</g>
<!-- Node15 -->
<g id="node15" class="node">
<title>Node15</title>
<g id="a_node15"><a xlink:href="../../d0/d8d/classgenfit_1_1FitStatus.html#a56371ce504bee72fcf2f9324ddcb91a8" target="_top" xlink:title="Did the fit converge (in all Points or only partially)?">
<polygon fill="none" stroke="#000000" points="826,-494.5 826,-526.5 928,-526.5 928,-494.5 826,-494.5"/>
<text text-anchor="start" x="834" y="-513.5" font-family="FreeSans" font-size="10.00" fill="#000000">genfit::FitStatus::</text>
<text text-anchor="middle" x="877" y="-501.5" font-family="FreeSans" font-size="10.00" fill="#000000">isFitConverged</text>
</a>
</g>
</g>
<!-- Node12&#45;&gt;Node15 -->
<g id="edge14" class="edge">
<title>Node12&#45;&gt;Node15</title>
<path fill="none" stroke="#191970" d="M723.1238,-372.514C734.9559,-377.0121 747.0267,-383.4258 756,-392.5 787.1649,-424.015 759.3821,-455.4914 792,-485.5 798.8999,-491.848 807.3329,-496.5903 816.1776,-500.1318"/>
<polygon fill="#191970" stroke="#191970" points="815.2888,-503.5287 825.8837,-503.5224 817.5974,-496.9203 815.2888,-503.5287"/>
</g>
<!-- Node16 -->
<g id="node16" class="node">
<title>Node16</title>
<g id="a_node16"><a xlink:href="../../d6/d8a/classgenfit_1_1Track.html#abf156957d701a9a10a02fef8ac54e4d9" target="_top" xlink:title="Shortcut to get FittedStates.">
<polygon fill="none" stroke="#000000" points="812,-570.5 812,-602.5 942,-602.5 942,-570.5 812,-570.5"/>
<text text-anchor="start" x="820" y="-589.5" font-family="FreeSans" font-size="10.00" fill="#000000">genfit::Track::getFitted</text>
<text text-anchor="middle" x="877" y="-577.5" font-family="FreeSans" font-size="10.00" fill="#000000">State</text>
</a>
</g>
</g>
<!-- Node12&#45;&gt;Node16 -->
<g id="edge15" class="edge">
<title>Node12&#45;&gt;Node16</title>
<path fill="none" stroke="#191970" d="M725.8023,-372.5977C737.0025,-377.0471 748.0689,-383.414 756,-392.5 799.382,-442.1992 752.4961,-483.6659 792,-536.5 800.913,-548.4206 813.5752,-558.0112 826.4122,-565.4794"/>
<polygon fill="#191970" stroke="#191970" points="824.8276,-568.6019 835.2833,-570.3133 828.177,-562.4551 824.8276,-568.6019"/>
</g>
<!-- Node21 -->
<g id="node21" class="node">
<title>Node21</title>
<g id="a_node21"><a xlink:href="../../d2/d74/classgenfit_1_1MeasuredStateOnPlane.html#a3aab44a6c7155b8258fa34469bc45bc0" target="_top" xlink:title="genfit::MeasuredStateOnPlane\l::getPosMomCov">
<polygon fill="none" stroke="#000000" points="792,-443.5 792,-475.5 962,-475.5 962,-443.5 792,-443.5"/>
<text text-anchor="start" x="800" y="-462.5" font-family="FreeSans" font-size="10.00" fill="#000000">genfit::MeasuredStateOnPlane</text>
<text text-anchor="middle" x="877" y="-450.5" font-family="FreeSans" font-size="10.00" fill="#000000">::getPosMomCov</text>
</a>
</g>
</g>
<!-- Node12&#45;&gt;Node21 -->
<g id="edge23" class="edge">
<title>Node12&#45;&gt;Node21</title>
<path fill="none" stroke="#191970" d="M716.0019,-372.5527C729.2586,-377.3411 744.0271,-383.9282 756,-392.5 775.9904,-406.8118 771.3562,-421.1479 792,-434.5 794.565,-436.159 797.2436,-437.7111 800.0027,-439.1628"/>
<polygon fill="#191970" stroke="#191970" points="798.5139,-442.3304 809.0478,-443.4658 801.5211,-436.0092 798.5139,-442.3304"/>
</g>
<!-- Node24 -->
<g id="node24" class="node">
<title>Node24</title>
<g id="a_node24"><a xlink:href="../../d0/d8d/classgenfit_1_1FitStatus.html#a7e8ed1d97eec3e3164dc2dd782f5cb85" target="_top" xlink:title="Get the fitted charge.">
<polygon fill="none" stroke="#000000" points="826,-392.5 826,-424.5 928,-424.5 928,-392.5 826,-392.5"/>
<text text-anchor="start" x="834" y="-411.5" font-family="FreeSans" font-size="10.00" fill="#000000">genfit::FitStatus::</text>
<text text-anchor="middle" x="877" y="-399.5" font-family="FreeSans" font-size="10.00" fill="#000000">getCharge</text>
</a>
</g>
</g>
<!-- Node12&#45;&gt;Node24 -->
<g id="edge26" class="edge">
<title>Node12&#45;&gt;Node24</title>
<path fill="none" stroke="#191970" d="M724.013,-372.5949C750.9435,-378.9153 786.0649,-387.1581 815.8633,-394.1516"/>
<polygon fill="#191970" stroke="#191970" points="815.2101,-397.5933 825.7453,-396.4708 816.8096,-390.7785 815.2101,-397.5933"/>
</g>
<!-- Node25 -->
<g id="node25" class="node">
<title>Node25</title>
<g id="a_node25"><a xlink:href="../../d0/d8d/classgenfit_1_1FitStatus.html#abbeeda61574c284f1d762088b3644770" target="_top" xlink:title="Get chi^2 of the fit.">
<polygon fill="none" stroke="#000000" points="826,-341.5 826,-373.5 928,-373.5 928,-341.5 826,-341.5"/>
<text text-anchor="start" x="834" y="-360.5" font-family="FreeSans" font-size="10.00" fill="#000000">genfit::FitStatus::</text>
<text text-anchor="middle" x="877" y="-348.5" font-family="FreeSans" font-size="10.00" fill="#000000">getChi2</text>
</a>
</g>
</g>
<!-- Node12&#45;&gt;Node25 -->
<g id="edge27" class="edge">
<title>Node12&#45;&gt;Node25</title>
<path fill="none" stroke="#191970" d="M746.2652,-360.8351C768.6647,-360.2637 793.642,-359.6265 815.7145,-359.0634"/>
<polygon fill="#191970" stroke="#191970" points="816.0536,-362.556 825.9611,-358.802 815.875,-355.5583 816.0536,-362.556"/>
</g>
<!-- Node26 -->
<g id="node26" class="node">
<title>Node26</title>
<g id="a_node26"><a xlink:href="../../d0/d8d/classgenfit_1_1FitStatus.html#aa73b3566657ea37bf8ab5102d465025d" target="_top" xlink:title="Get the degrees of freedom of the fit.">
<polygon fill="none" stroke="#000000" points="826,-290.5 826,-322.5 928,-322.5 928,-290.5 826,-290.5"/>
<text text-anchor="start" x="834" y="-309.5" font-family="FreeSans" font-size="10.00" fill="#000000">genfit::FitStatus::</text>
<text text-anchor="middle" x="877" y="-297.5" font-family="FreeSans" font-size="10.00" fill="#000000">getNdf</text>
</a>
</g>
</g>
<!-- Node12&#45;&gt;Node26 -->
<g id="edge28" class="edge">
<title>Node12&#45;&gt;Node26</title>
<path fill="none" stroke="#191970" d="M716.0409,-352.4883C743.682,-344.5908 782.9114,-333.3824 815.7211,-324.0083"/>
<polygon fill="#191970" stroke="#191970" points="817.0237,-327.2762 825.6774,-321.1636 815.1006,-320.5456 817.0237,-327.2762"/>
</g>
<!-- Node14 -->
<g id="node14" class="node">
<title>Node14</title>
<g id="a_node14"><a xlink:href="../../d6/d8a/classgenfit_1_1Track.html#a402b35300e81a48c7f0b9eb082b1cf24" target="_top" xlink:title="Get cardinal track representation.">
<polygon fill="none" stroke="#000000" points="1184,-563.5 1184,-583.5 1347,-583.5 1347,-563.5 1184,-563.5"/>
<text text-anchor="middle" x="1265.5" y="-570.5" font-family="FreeSans" font-size="10.00" fill="#000000">genfit::Track::getCardinalRep</text>
</a>
</g>
</g>
<!-- Node13&#45;&gt;Node14 -->
<g id="edge13" class="edge">
<title>Node13&#45;&gt;Node14</title>
<path fill="none" stroke="#191970" d="M1089.7222,-322.6859C1106.0112,-333.1973 1130.7701,-350.8001 1148,-370.5 1199.9496,-429.8969 1240.5777,-515.6879 1257.2577,-553.881"/>
<polygon fill="#191970" stroke="#191970" points="1254.1538,-555.5232 1261.3168,-563.3298 1260.5854,-552.7602 1254.1538,-555.5232"/>
</g>
<!-- Node16&#45;&gt;Node14 -->
<g id="edge16" class="edge">
<title>Node16&#45;&gt;Node14</title>
<path fill="none" stroke="#191970" d="M916.0245,-602.5075C939.3687,-611.2108 969.8735,-621.0792 998,-625.5 1063.8581,-635.8513 1082.7747,-639.2879 1148,-625.5 1181.3775,-618.4444 1216.8084,-601.2616 1239.9281,-588.5691"/>
<polygon fill="#191970" stroke="#191970" points="1241.7406,-591.5654 1248.7456,-583.6168 1238.3127,-585.4622 1241.7406,-591.5654"/>
</g>
<!-- Node17 -->
<g id="node17" class="node">
<title>Node17</title>
<g id="a_node17"><a xlink:href="../../d6/d8a/classgenfit_1_1Track.html#ad8961b1ff4809ccde5f6f100ffbccb9d" target="_top" xlink:title="genfit::Track::getPointWith\lFitterInfo">
<polygon fill="none" stroke="#000000" points="998,-583.5 998,-615.5 1148,-615.5 1148,-583.5 998,-583.5"/>
<text text-anchor="start" x="1006" y="-602.5" font-family="FreeSans" font-size="10.00" fill="#000000">genfit::Track::getPointWith</text>
<text text-anchor="middle" x="1073" y="-590.5" font-family="FreeSans" font-size="10.00" fill="#000000">FitterInfo</text>
</a>
</g>
</g>
<!-- Node16&#45;&gt;Node17 -->
<g id="edge17" class="edge">
<title>Node16&#45;&gt;Node17</title>
<path fill="none" stroke="#191970" d="M942.2652,-590.8288C956.742,-591.789 972.2956,-592.8206 987.4458,-593.8255"/>
<polygon fill="#191970" stroke="#191970" points="987.6421,-597.3461 997.8518,-594.5157 988.1054,-590.3615 987.6421,-597.3461"/>
</g>
<!-- Node18 -->
<g id="node18" class="node">
<title>Node18</title>
<g id="a_node18"><a xlink:href="../../d8/db3/classgenfit_1_1Exception.html#a13619975a1e1be5c1bd504b254e01f7a" target="_top" xlink:title="Set fatal flag.">
<polygon fill="none" stroke="#000000" points="1019,-481.5 1019,-513.5 1127,-513.5 1127,-481.5 1019,-481.5"/>
<text text-anchor="start" x="1027" y="-500.5" font-family="FreeSans" font-size="10.00" fill="#000000">genfit::Exception::</text>
<text text-anchor="middle" x="1073" y="-488.5" font-family="FreeSans" font-size="10.00" fill="#000000">setFatal</text>
</a>
</g>
</g>
<!-- Node16&#45;&gt;Node18 -->
<g id="edge19" class="edge">
<title>Node16&#45;&gt;Node18</title>
<path fill="none" stroke="#191970" d="M905.2752,-570.2722C929.44,-556.7718 965.3745,-537.5588 998,-523.5 1003.0624,-521.3185 1008.3739,-519.184 1013.733,-517.135"/>
<polygon fill="#191970" stroke="#191970" points="1015.2326,-520.3116 1023.3872,-513.5475 1012.7943,-513.75 1015.2326,-520.3116"/>
</g>
<!-- Node19 -->
<g id="node19" class="node">
<title>Node19</title>
<g id="a_node19"><a xlink:href="../../db/d40/classgenfit_1_1TrackPoint.html#ae8b3e743fb436dd6689e0dad4c35ffd9" target="_top" xlink:title="Get fitterInfo for rep. Per default, use cardinal rep.">
<polygon fill="none" stroke="#000000" points="1021,-532.5 1021,-564.5 1125,-564.5 1125,-532.5 1021,-532.5"/>
<text text-anchor="start" x="1029" y="-551.5" font-family="FreeSans" font-size="10.00" fill="#000000">genfit::TrackPoint</text>
<text text-anchor="middle" x="1073" y="-539.5" font-family="FreeSans" font-size="10.00" fill="#000000">::getFitterInfo</text>
</a>
</g>
</g>
<!-- Node16&#45;&gt;Node19 -->
<g id="edge20" class="edge">
<title>Node16&#45;&gt;Node19</title>
<path fill="none" stroke="#191970" d="M942.2652,-573.8466C964.3798,-569.559 989.007,-564.7844 1010.8708,-560.5455"/>
<polygon fill="#191970" stroke="#191970" points="1011.5519,-563.9787 1020.7029,-558.6392 1010.2195,-557.1066 1011.5519,-563.9787"/>
</g>
<!-- Node20 -->
<g id="node20" class="node">
<title>Node20</title>
<g id="a_node20"><a xlink:href="../../d9/d8c/classgenfit_1_1AbsFitterInfo.html#a985d0203f46dfbd5dc253bb03b21d76f" target="_top" xlink:title="genfit::AbsFitterInfo\l::getFittedState">
<polygon fill="none" stroke="#000000" points="1015,-673.5 1015,-705.5 1131,-705.5 1131,-673.5 1015,-673.5"/>
<text text-anchor="start" x="1023" y="-692.5" font-family="FreeSans" font-size="10.00" fill="#000000">genfit::AbsFitterInfo</text>
<text text-anchor="middle" x="1073" y="-680.5" font-family="FreeSans" font-size="10.00" fill="#000000">::getFittedState</text>
</a>
</g>
</g>
<!-- Node16&#45;&gt;Node20 -->
<g id="edge22" class="edge">
<title>Node16&#45;&gt;Node20</title>
<path fill="none" stroke="#191970" d="M901.896,-602.7637C925.9503,-618.1263 963.6857,-641.3125 998,-658.5 1005.5151,-662.2642 1013.6005,-665.9575 1021.5823,-669.4085"/>
<polygon fill="#191970" stroke="#191970" points="1020.2909,-672.6625 1030.8642,-673.3381 1023.02,-666.2163 1020.2909,-672.6625"/>
</g>
<!-- Node17&#45;&gt;Node14 -->
<g id="edge18" class="edge">
<title>Node17&#45;&gt;Node14</title>
<path fill="none" stroke="#191970" d="M1148.2526,-589.336C1159.0711,-587.8748 1170.2618,-586.3633 1181.2409,-584.8804"/>
<polygon fill="#191970" stroke="#191970" points="1181.8062,-588.336 1191.2477,-583.5289 1180.8691,-581.399 1181.8062,-588.336"/>
</g>
<!-- Node19&#45;&gt;Node14 -->
<g id="edge21" class="edge">
<title>Node19&#45;&gt;Node14</title>
<path fill="none" stroke="#191970" d="M1125.0933,-555.2654C1141.5344,-557.4006 1160.1701,-559.8208 1178.3672,-562.1841"/>
<polygon fill="#191970" stroke="#191970" points="1178.0473,-565.6718 1188.4148,-563.4889 1178.9489,-558.7301 1178.0473,-565.6718"/>
</g>
<!-- Node22 -->
<g id="node22" class="node">
<title>Node22</title>
<g id="a_node22"><a xlink:href="../../de/dd5/classgenfit_1_1StateOnPlane.html#a14f25e4575846dcb14bd91ddb2a534d2" target="_top" xlink:title="genfit::StateOnPlane\l::getRep">
<polygon fill="none" stroke="#000000" points="1012.5,-430.5 1012.5,-462.5 1133.5,-462.5 1133.5,-430.5 1012.5,-430.5"/>
<text text-anchor="start" x="1020.5" y="-449.5" font-family="FreeSans" font-size="10.00" fill="#000000">genfit::StateOnPlane</text>
<text text-anchor="middle" x="1073" y="-437.5" font-family="FreeSans" font-size="10.00" fill="#000000">::getRep</text>
</a>
</g>
</g>
<!-- Node21&#45;&gt;Node22 -->
<g id="edge24" class="edge">
<title>Node21&#45;&gt;Node22</title>
<path fill="none" stroke="#191970" d="M962.1133,-453.8547C975.4823,-452.968 989.1769,-452.0597 1002.1785,-451.1973"/>
<polygon fill="#191970" stroke="#191970" points="1002.6911,-454.6711 1012.4375,-450.5169 1002.2277,-447.6865 1002.6911,-454.6711"/>
</g>
<!-- Node23 -->
<g id="node23" class="node">
<title>Node23</title>
<g id="a_node23"><a xlink:href="../../d1/d25/classgenfit_1_1AbsTrackRep.html#ae6f4c4eeb3e4fbadcc930f53e2ca4ad7" target="_top" xlink:title="Translates MeasuredStateOnPlane into 3D position, momentum and 6x6 covariance.">
<polygon fill="none" stroke="#000000" points="1014.5,-379.5 1014.5,-411.5 1131.5,-411.5 1131.5,-379.5 1014.5,-379.5"/>
<text text-anchor="start" x="1022.5" y="-398.5" font-family="FreeSans" font-size="10.00" fill="#000000">genfit::AbsTrackRep</text>
<text text-anchor="middle" x="1073" y="-386.5" font-family="FreeSans" font-size="10.00" fill="#000000">::getPosMomCov</text>
</a>
</g>
</g>
<!-- Node21&#45;&gt;Node23 -->
<g id="edge25" class="edge">
<title>Node21&#45;&gt;Node23</title>
<path fill="none" stroke="#191970" d="M933.3862,-443.4366C942.9654,-440.559 952.7901,-437.5143 962,-434.5 978.1674,-429.2087 981.9632,-427.175 998,-421.5 1003.968,-419.3881 1010.2092,-417.1969 1016.4333,-415.0229"/>
<polygon fill="#191970" stroke="#191970" points="1017.8666,-418.23 1026.1583,-411.6347 1015.5635,-411.6197 1017.8666,-418.23"/>
</g>
<!-- Node28 -->
<g id="node28" class="node">
<title>Node28</title>
<g id="a_node28"><a xlink:href="../../d8/d1a/classHiMain1.html#afa91501b2c79bdaf9274e067b9d97e31" target="_top" xlink:title="HiMain1::n0">
<polygon fill="none" stroke="#000000" points="450,-51.5 450,-71.5 527,-71.5 527,-51.5 450,-51.5"/>
<text text-anchor="middle" x="488.5" y="-58.5" font-family="FreeSans" font-size="10.00" fill="#000000">HiMain1::n0</text>
</a>
</g>
</g>
<!-- Node27&#45;&gt;Node28 -->
<g id="edge30" class="edge">
<title>Node27&#45;&gt;Node28</title>
<path fill="none" stroke="#191970" d="M182.2211,-95.9283C204.7541,-91.435 240.6722,-84.6634 272,-80.5 329.3068,-72.8841 395.5686,-67.5786 439.5386,-64.546"/>
<polygon fill="#191970" stroke="#191970" points="439.9269,-68.0278 449.6677,-63.8604 439.4542,-61.0437 439.9269,-68.0278"/>
</g>
<!-- Node31 -->
<g id="node31" class="node">
<title>Node31</title>
<g id="a_node31"><a xlink:href="../../d2/d18/medium-simple_8f.html#a1fdcab7823056a622e99f159e74b0a1e" target="_top" xlink:title="nthick">
<polygon fill="none" stroke="#000000" points="297.5,-12.5 297.5,-32.5 345.5,-32.5 345.5,-12.5 297.5,-12.5"/>
<text text-anchor="middle" x="321.5" y="-19.5" font-family="FreeSans" font-size="10.00" fill="#000000">nthick</text>
</a>
</g>
</g>
<!-- Node27&#45;&gt;Node31 -->
<g id="edge33" class="edge">
<title>Node27&#45;&gt;Node31</title>
<path fill="none" stroke="#191970" d="M182.0082,-97.598C197.7737,-94.8479 219.1141,-89.7168 236,-80.5 255.0518,-70.101 254.1452,-59.8417 272,-47.5 277.3532,-43.7997 283.3305,-40.3105 289.2291,-37.179"/>
<polygon fill="#191970" stroke="#191970" points="290.9894,-40.2109 298.3324,-32.5734 287.8294,-33.9647 290.9894,-40.2109"/>
</g>
<!-- Node29 -->
<g id="node29" class="node">
<title>Node29</title>
<g id="a_node29"><a xlink:href="../../d8/d1a/classHiMain1.html#abdd4d6ac793897447c6d9f7b9e6d20ca" target="_top" xlink:title="HiMain1::init">
<polygon fill="none" stroke="#000000" points="640.5,-51.5 640.5,-71.5 721.5,-71.5 721.5,-51.5 640.5,-51.5"/>
<text text-anchor="middle" x="681" y="-58.5" font-family="FreeSans" font-size="10.00" fill="#000000">HiMain1::init</text>
</a>
</g>
</g>
<!-- Node28&#45;&gt;Node29 -->
<g id="edge31" class="edge">
<title>Node28&#45;&gt;Node29</title>
<path fill="none" stroke="#191970" d="M527.4552,-61.5C557.096,-61.5 598.1345,-61.5 630.328,-61.5"/>
<polygon fill="#191970" stroke="#191970" points="630.444,-65.0001 640.444,-61.5 630.4439,-58.0001 630.444,-65.0001"/>
</g>
<!-- Node30 -->
<g id="node30" class="node">
<title>Node30</title>
<g id="a_node30"><a xlink:href="../../d7/dc3/HiMain1_8h.html#af413dd2854a4d96511498e79f1519c57" target="_top" xlink:title="himain1_address_">
<polygon fill="none" stroke="#000000" points="823,-51.5 823,-71.5 931,-71.5 931,-51.5 823,-51.5"/>
<text text-anchor="middle" x="877" y="-58.5" font-family="FreeSans" font-size="10.00" fill="#000000">himain1_address_</text>
</a>
</g>
</g>
<!-- Node29&#45;&gt;Node30 -->
<g id="edge32" class="edge">
<title>Node29&#45;&gt;Node30</title>
<path fill="none" stroke="#191970" d="M721.6113,-61.5C747.7902,-61.5 782.4049,-61.5 812.3185,-61.5"/>
<polygon fill="#191970" stroke="#191970" points="812.6817,-65.0001 822.6816,-61.5 812.6816,-58.0001 812.6817,-65.0001"/>
</g>
<!-- Node31&#45;&gt;Node28 -->
<g id="edge35" class="edge">
<title>Node31&#45;&gt;Node28</title>
<path fill="none" stroke="#191970" d="M345.7832,-28.1709C370.4351,-33.928 409.2745,-42.9982 440.2155,-50.224"/>
<polygon fill="#191970" stroke="#191970" points="439.4219,-53.6327 449.9558,-52.4987 441.0138,-46.8162 439.4219,-53.6327"/>
</g>
<!-- Node32 -->
<g id="node32" class="node">
<title>Node32</title>
<g id="a_node32"><a xlink:href="../../dc/db0/classActs_1_1IVisualization.html#a9e155efef029673b4b9830ef5dfc1af3" target="_top" xlink:title="Acts::IVisualization\l::line">
<polygon fill="none" stroke="#000000" points="432.5,-.5 432.5,-32.5 544.5,-32.5 544.5,-.5 432.5,-.5"/>
<text text-anchor="start" x="440.5" y="-19.5" font-family="FreeSans" font-size="10.00" fill="#000000">Acts::IVisualization</text>
<text text-anchor="middle" x="488.5" y="-7.5" font-family="FreeSans" font-size="10.00" fill="#000000">::line</text>
</a>
</g>
</g>
<!-- Node31&#45;&gt;Node32 -->
<g id="edge34" class="edge">
<title>Node31&#45;&gt;Node32</title>
<path fill="none" stroke="#191970" d="M345.7832,-21.6275C365.837,-20.9071 395.2794,-19.8492 422.2211,-18.8813"/>
<polygon fill="#191970" stroke="#191970" points="422.5317,-22.3725 432.3996,-18.5156 422.2803,-15.377 422.5317,-22.3725"/>
</g>
<!-- Node33&#45;&gt;Node8 -->
<g id="edge53" class="edge">
<title>Node33&#45;&gt;Node8</title>
<path fill="none" stroke="#191970" d="M165.981,-207.7426C180.5639,-231.6217 220.5566,-290.8265 272,-315.5 310.2475,-333.8445 356.6755,-339.5445 396.7138,-340.1697"/>
<polygon fill="#191970" stroke="#191970" points="396.7277,-343.6697 406.7465,-340.2239 396.7655,-336.6698 396.7277,-343.6697"/>
</g>
<!-- Node34 -->
<g id="node34" class="node">
<title>Node34</title>
<g id="a_node34"><a xlink:href="../../de/dd7/exceptiondfe_1_1Variable.html#ad546b80a148ce91384638a73e6293e3f" target="_top" xlink:title="dfe::Variable::as">
<polygon fill="none" stroke="#000000" points="272,-285.5 272,-305.5 371,-305.5 371,-285.5 272,-285.5"/>
<text text-anchor="middle" x="321.5" y="-292.5" font-family="FreeSans" font-size="10.00" fill="#000000">dfe::Variable::as</text>
</a>
</g>
</g>
<!-- Node33&#45;&gt;Node34 -->
<g id="edge37" class="edge">
<title>Node33&#45;&gt;Node34</title>
<path fill="none" stroke="#191970" d="M172.1054,-207.575C191.9702,-223.7434 233.1677,-255.7671 272,-276.5 275.2785,-278.2504 278.7542,-279.9213 282.2832,-281.4942"/>
<polygon fill="#191970" stroke="#191970" points="281.0748,-284.7827 291.6507,-285.4163 283.7783,-278.3258 281.0748,-284.7827"/>
</g>
<!-- Node35 -->
<g id="node35" class="node">
<title>Node35</title>
<g id="a_node35"><a xlink:href="../../dc/dc6/gmre_8f.html#aa6e860c7d81623b3000169df288e5688" target="_top" xlink:title="gmre">
<polygon fill="none" stroke="#000000" points="300.5,-246.5 300.5,-266.5 342.5,-266.5 342.5,-246.5 300.5,-246.5"/>
<text text-anchor="middle" x="321.5" y="-253.5" font-family="FreeSans" font-size="10.00" fill="#000000">gmre</text>
</a>
</g>
</g>
<!-- Node33&#45;&gt;Node35 -->
<g id="edge38" class="edge">
<title>Node33&#45;&gt;Node35</title>
<path fill="none" stroke="#191970" d="M184.5284,-206.4608C213.0335,-216.8745 260.0945,-234.067 290.9489,-245.3389"/>
<polygon fill="#191970" stroke="#191970" points="289.7591,-248.6305 300.353,-248.7745 292.1612,-242.0555 289.7591,-248.6305"/>
</g>
<!-- Node36 -->
<g id="node36" class="node">
<title>Node36</title>
<g id="a_node36"><a xlink:href="../../db/da1/classHiParnt.html#ac653b598baeeca89d06693fdf4688f38" target="_top" xlink:title="HiParnt::hint1">
<polygon fill="none" stroke="#000000" points="279,-168.5 279,-188.5 364,-188.5 364,-168.5 279,-168.5"/>
<text text-anchor="middle" x="321.5" y="-175.5" font-family="FreeSans" font-size="10.00" fill="#000000">HiParnt::hint1</text>
</a>
</g>
</g>
<!-- Node33&#45;&gt;Node36 -->
<g id="edge40" class="edge">
<title>Node33&#45;&gt;Node36</title>
<path fill="none" stroke="#191970" d="M184.5284,-194.6143C206.7691,-191.9978 240.3061,-188.0522 268.6277,-184.7203"/>
<polygon fill="#191970" stroke="#191970" points="269.2729,-188.1686 278.7954,-183.5241 268.4549,-181.2165 269.2729,-188.1686"/>
</g>
<!-- Node40 -->
<g id="node40" class="node">
<title>Node40</title>
<g id="a_node40"><a xlink:href="../../db/da1/classHiParnt.html#a28a5a24ec376a6790e610d7fcc0f5b8e" target="_top" xlink:title="HiParnt::hipr1">
<polygon fill="none" stroke="#000000" points="279,-207.5 279,-227.5 364,-227.5 364,-207.5 279,-207.5"/>
<text text-anchor="middle" x="321.5" y="-214.5" font-family="FreeSans" font-size="10.00" fill="#000000">HiParnt::hipr1</text>
</a>
</g>
</g>
<!-- Node33&#45;&gt;Node40 -->
<g id="edge44" class="edge">
<title>Node33&#45;&gt;Node40</title>
<path fill="none" stroke="#191970" d="M184.5284,-200.5376C206.7691,-203.2918 240.3061,-207.445 268.6277,-210.9523"/>
<polygon fill="#191970" stroke="#191970" points="268.441,-214.4559 278.7954,-212.2115 269.3014,-207.509 268.441,-214.4559"/>
</g>
<!-- Node42 -->
<g id="node42" class="node">
<title>Node42</title>
<g id="a_node42"><a xlink:href="../../db/da1/classHiParnt.html#a0d759f134daae3226a7744c9920bd769" target="_top" xlink:title="HiParnt::ihnt2">
<polygon fill="none" stroke="#000000" points="279,-129.5 279,-149.5 364,-149.5 364,-129.5 279,-129.5"/>
<text text-anchor="middle" x="321.5" y="-136.5" font-family="FreeSans" font-size="10.00" fill="#000000">HiParnt::ihnt2</text>
</a>
</g>
</g>
<!-- Node33&#45;&gt;Node42 -->
<g id="edge47" class="edge">
<title>Node33&#45;&gt;Node42</title>
<path fill="none" stroke="#191970" d="M184.5284,-188.691C210.9633,-179.1974 253.3567,-163.9725 283.9833,-152.9735"/>
<polygon fill="#191970" stroke="#191970" points="285.2499,-156.2375 293.4784,-149.5635 282.8839,-149.6495 285.2499,-156.2375"/>
</g>
<!-- Node44 -->
<g id="node44" class="node">
<title>Node44</title>
<g id="a_node44"><a xlink:href="../../db/da1/classHiParnt.html#a1c6a5924524a08fe9641adc64095c0b9" target="_top" xlink:title="HiParnt::ihpr2">
<polygon fill="none" stroke="#000000" points="279,-90.5 279,-110.5 364,-110.5 364,-90.5 279,-90.5"/>
<text text-anchor="middle" x="321.5" y="-97.5" font-family="FreeSans" font-size="10.00" fill="#000000">HiParnt::ihpr2</text>
</a>
</g>
</g>
<!-- Node33&#45;&gt;Node44 -->
<g id="edge50" class="edge">
<title>Node33&#45;&gt;Node44</title>
<path fill="none" stroke="#191970" d="M172.8489,-187.2739C193.0751,-171.5053 233.9635,-140.9417 272,-120.5 275.8117,-118.4515 279.8795,-116.485 283.9832,-114.6387"/>
<polygon fill="#191970" stroke="#191970" points="285.6975,-117.7124 293.5199,-110.5668 282.9488,-111.2747 285.6975,-117.7124"/>
</g>
<!-- Node35&#45;&gt;Node8 -->
<g id="edge39" class="edge">
<title>Node35&#45;&gt;Node8</title>
<path fill="none" stroke="#191970" d="M342.8299,-264.7519C351.6115,-268.2439 361.8509,-272.4381 371,-276.5 401.598,-290.0844 435.9888,-306.9609 459.618,-318.8127"/>
<polygon fill="#191970" stroke="#191970" points="458.2282,-322.0315 468.7338,-323.4035 461.3767,-315.7796 458.2282,-322.0315"/>
</g>
<!-- Node37 -->
<g id="node37" class="node">
<title>Node37</title>
<g id="a_node37"><a xlink:href="../../db/da1/classHiParnt.html#aec7bbf54e836c6b58a40be4e79292972" target="_top" xlink:title="HiParnt::init">
<polygon fill="none" stroke="#000000" points="450.5,-168.5 450.5,-188.5 526.5,-188.5 526.5,-168.5 450.5,-168.5"/>
<text text-anchor="middle" x="488.5" y="-175.5" font-family="FreeSans" font-size="10.00" fill="#000000">HiParnt::init</text>
</a>
</g>
</g>
<!-- Node36&#45;&gt;Node37 -->
<g id="edge41" class="edge">
<title>Node36&#45;&gt;Node37</title>
<path fill="none" stroke="#191970" d="M364.0733,-178.5C387.2226,-178.5 415.9477,-178.5 439.9635,-178.5"/>
<polygon fill="#191970" stroke="#191970" points="440.2826,-182.0001 450.2825,-178.5 440.2825,-175.0001 440.2826,-182.0001"/>
</g>
<!-- Node39 -->
<g id="node39" class="node">
<title>Node39</title>
<g id="a_node39"><a xlink:href="../../db/da1/classHiParnt.html#a1074072a5774a085cecf879899a44ab3" target="_top" xlink:title="HiParnt::lenHint1">
<polygon fill="none" stroke="#000000" points="437.5,-207.5 437.5,-227.5 539.5,-227.5 539.5,-207.5 437.5,-207.5"/>
<text text-anchor="middle" x="488.5" y="-214.5" font-family="FreeSans" font-size="10.00" fill="#000000">HiParnt::lenHint1</text>
</a>
</g>
</g>
<!-- Node36&#45;&gt;Node39 -->
<g id="edge43" class="edge">
<title>Node36&#45;&gt;Node39</title>
<path fill="none" stroke="#191970" d="M364.1185,-188.4759C377.8114,-191.6792 393.0457,-195.2413 407,-198.5 416.2405,-200.6579 426.0708,-202.9514 435.5885,-205.1709"/>
<polygon fill="#191970" stroke="#191970" points="434.8224,-208.5861 445.3559,-207.4482 436.4119,-201.7689 434.8224,-208.5861"/>
</g>
<!-- Node38 -->
<g id="node38" class="node">
<title>Node38</title>
<g id="a_node38"><a xlink:href="../../d4/d0f/HiParnt_8h.html#ae387711cf1ed2f3d5908e93a113f27e7" target="_top" xlink:title="hiparnt_address_">
<polygon fill="none" stroke="#000000" points="629.5,-168.5 629.5,-188.5 732.5,-188.5 732.5,-168.5 629.5,-168.5"/>
<text text-anchor="middle" x="681" y="-175.5" font-family="FreeSans" font-size="10.00" fill="#000000">hiparnt_address_</text>
</a>
</g>
</g>
<!-- Node37&#45;&gt;Node38 -->
<g id="edge42" class="edge">
<title>Node37&#45;&gt;Node38</title>
<path fill="none" stroke="#191970" d="M526.5318,-178.5C552.9145,-178.5 588.645,-178.5 619.0964,-178.5"/>
<polygon fill="#191970" stroke="#191970" points="619.1999,-182.0001 629.1999,-178.5 619.1999,-175.0001 619.1999,-182.0001"/>
</g>
<!-- Node40&#45;&gt;Node37 -->
<g id="edge45" class="edge">
<title>Node40&#45;&gt;Node37</title>
<path fill="none" stroke="#191970" d="M364.0733,-207.5577C387.3264,-202.1274 416.2054,-195.3832 440.2863,-189.7595"/>
<polygon fill="#191970" stroke="#191970" points="441.3405,-193.1075 450.2825,-187.425 439.7486,-186.291 441.3405,-193.1075"/>
</g>
<!-- Node41 -->
<g id="node41" class="node">
<title>Node41</title>
<g id="a_node41"><a xlink:href="../../db/da1/classHiParnt.html#a976a341872dd6ef684a319c5e262be46" target="_top" xlink:title="HiParnt::lenHipr1">
<polygon fill="none" stroke="#000000" points="437.5,-246.5 437.5,-266.5 539.5,-266.5 539.5,-246.5 437.5,-246.5"/>
<text text-anchor="middle" x="488.5" y="-253.5" font-family="FreeSans" font-size="10.00" fill="#000000">HiParnt::lenHipr1</text>
</a>
</g>
</g>
<!-- Node40&#45;&gt;Node41 -->
<g id="edge46" class="edge">
<title>Node40&#45;&gt;Node41</title>
<path fill="none" stroke="#191970" d="M364.1185,-227.4759C377.8114,-230.6792 393.0457,-234.2413 407,-237.5 416.2405,-239.6579 426.0708,-241.9514 435.5885,-244.1709"/>
<polygon fill="#191970" stroke="#191970" points="434.8224,-247.5861 445.3559,-246.4482 436.4119,-240.7689 434.8224,-247.5861"/>
</g>
<!-- Node42&#45;&gt;Node37 -->
<g id="edge48" class="edge">
<title>Node42&#45;&gt;Node37</title>
<path fill="none" stroke="#191970" d="M364.1185,-149.4759C377.8114,-152.6792 393.0457,-156.2413 407,-159.5 417.8321,-162.0296 429.4748,-164.7455 440.4743,-167.3101"/>
<polygon fill="#191970" stroke="#191970" points="439.8198,-170.7513 450.3533,-169.6131 441.4091,-163.9341 439.8198,-170.7513"/>
</g>
<!-- Node43 -->
<g id="node43" class="node">
<title>Node43</title>
<g id="a_node43"><a xlink:href="../../db/da1/classHiParnt.html#a2583f210ac7e15c429d879a65e9626b2" target="_top" xlink:title="HiParnt::lenIhnt2">
<polygon fill="none" stroke="#000000" points="438,-129.5 438,-149.5 539,-149.5 539,-129.5 438,-129.5"/>
<text text-anchor="middle" x="488.5" y="-136.5" font-family="FreeSans" font-size="10.00" fill="#000000">HiParnt::lenIhnt2</text>
</a>
</g>
</g>
<!-- Node42&#45;&gt;Node43 -->
<g id="edge49" class="edge">
<title>Node42&#45;&gt;Node43</title>
<path fill="none" stroke="#191970" d="M364.0733,-139.5C383.4232,-139.5 406.6688,-139.5 427.8036,-139.5"/>
<polygon fill="#191970" stroke="#191970" points="427.983,-143.0001 437.9829,-139.5 427.9829,-136.0001 427.983,-143.0001"/>
</g>
<!-- Node44&#45;&gt;Node37 -->
<g id="edge51" class="edge">
<title>Node44&#45;&gt;Node37</title>
<path fill="none" stroke="#191970" d="M352.427,-110.5403C358.8408,-113.2846 365.3573,-116.6008 371,-120.5 390.4063,-133.9104 386.614,-147.6318 407,-159.5 417.0997,-165.3798 428.8988,-169.4404 440.3323,-172.2446"/>
<polygon fill="#191970" stroke="#191970" points="439.7183,-175.6928 450.2339,-174.3996 441.207,-168.8529 439.7183,-175.6928"/>
</g>
<!-- Node45 -->
<g id="node45" class="node">
<title>Node45</title>
<g id="a_node45"><a xlink:href="../../db/da1/classHiParnt.html#aa2f216c88e3e9ec0634df4755e281c85" target="_top" xlink:title="HiParnt::lenIhpr2">
<polygon fill="none" stroke="#000000" points="438,-90.5 438,-110.5 539,-110.5 539,-90.5 438,-90.5"/>
<text text-anchor="middle" x="488.5" y="-97.5" font-family="FreeSans" font-size="10.00" fill="#000000">HiParnt::lenIhpr2</text>
</a>
</g>
</g>
<!-- Node44&#45;&gt;Node45 -->
<g id="edge52" class="edge">
<title>Node44&#45;&gt;Node45</title>
<path fill="none" stroke="#191970" d="M364.0733,-100.5C383.4232,-100.5 406.6688,-100.5 427.8036,-100.5"/>
<polygon fill="#191970" stroke="#191970" points="427.983,-104.0001 437.9829,-100.5 427.9829,-97.0001 427.983,-104.0001"/>
</g>
</g>
</svg>
