<?xml version="1.0" encoding="UTF-8" standalone="no"?>
<!DOCTYPE svg PUBLIC "-//W3C//DTD SVG 1.1//EN"
 "http://www.w3.org/Graphics/SVG/1.1/DTD/svg11.dtd">
<!-- Generated by graphviz version 2.40.1 (20161225.0304)
 -->
<!-- Title: fun4all_coresoftware/blob/master/simulation/g4simulation/g4tpc/PHG4TpcPadPlane.h Pages: 1 -->
<svg width="1026pt" height="413pt"
 viewBox="0.00 0.00 1025.50 413.00" xmlns="http://www.w3.org/2000/svg" xmlns:xlink="http://www.w3.org/1999/xlink">
<g id="graph0" class="graph" transform="scale(1 1) rotate(0) translate(4 409)">
<title>fun4all_coresoftware/blob/master/simulation/g4simulation/g4tpc/PHG4TpcPadPlane.h</title>
<!-- Node1 -->
<g id="node1" class="node">
<title>Node1</title>
<polygon fill="#bfbfbf" stroke="#000000" points="509.5,-348.5 509.5,-404.5 695.5,-404.5 695.5,-348.5 509.5,-348.5"/>
<text text-anchor="start" x="517.5" y="-391.5" font-family="FreeSans" font-size="10.00" fill="#000000">fun4all_coresoftware</text>
<text text-anchor="start" x="517.5" y="-379.5" font-family="FreeSans" font-size="10.00" fill="#000000">/blob/master/simulation</text>
<text text-anchor="start" x="517.5" y="-367.5" font-family="FreeSans" font-size="10.00" fill="#000000">/g4simulation/g4tpc/PHG4TpcPad</text>
<text text-anchor="middle" x="602.5" y="-355.5" font-family="FreeSans" font-size="10.00" fill="#000000">Plane.h</text>
</g>
<!-- Node2 -->
<g id="node2" class="node">
<title>Node2</title>
<g id="a_node2"><a xlink:href="../../d6/d40/PHG4TpcElectronDrift_8cc.html" target="_top" xlink:title="fun4all_coresoftware\l/blob/master/simulation\l/g4simulation/g4tpc/PHG4TpcElectron\lDrift.cc">
<polygon fill="none" stroke="#000000" points="101,-255.5 101,-311.5 310,-311.5 310,-255.5 101,-255.5"/>
<text text-anchor="start" x="109" y="-298.5" font-family="FreeSans" font-size="10.00" fill="#000000">fun4all_coresoftware</text>
<text text-anchor="start" x="109" y="-286.5" font-family="FreeSans" font-size="10.00" fill="#000000">/blob/master/simulation</text>
<text text-anchor="start" x="109" y="-274.5" font-family="FreeSans" font-size="10.00" fill="#000000">/g4simulation/g4tpc/PHG4TpcElectron</text>
<text text-anchor="middle" x="205.5" y="-262.5" font-family="FreeSans" font-size="10.00" fill="#000000">Drift.cc</text>
</a>
</g>
</g>
<!-- Node1&#45;&gt;Node2 -->
<g id="edge1" class="edge">
<title>Node1&#45;&gt;Node2</title>
<path fill="none" stroke="#191970" d="M499.4669,-353.5606C445.7565,-341.465 379.0212,-326.2214 319.5,-312 316.4244,-311.2652 313.3034,-310.5148 310.1537,-309.7536"/>
<polygon fill="#191970" stroke="#191970" points="498.8152,-357.0014 509.3395,-355.7815 500.3515,-350.172 498.8152,-357.0014"/>
</g>
<!-- Node3 -->
<g id="node3" class="node">
<title>Node3</title>
<g id="a_node3"><a xlink:href="../../dd/dfa/PHG4TpcPadPlane_8cc.html" target="_top" xlink:title="fun4all_coresoftware\l/blob/master/simulation\l/g4simulation/g4tpc/PHG4TpcPad\lPlane.cc">
<polygon fill="none" stroke="#000000" points="328.5,-255.5 328.5,-311.5 514.5,-311.5 514.5,-255.5 328.5,-255.5"/>
<text text-anchor="start" x="336.5" y="-298.5" font-family="FreeSans" font-size="10.00" fill="#000000">fun4all_coresoftware</text>
<text text-anchor="start" x="336.5" y="-286.5" font-family="FreeSans" font-size="10.00" fill="#000000">/blob/master/simulation</text>
<text text-anchor="start" x="336.5" y="-274.5" font-family="FreeSans" font-size="10.00" fill="#000000">/g4simulation/g4tpc/PHG4TpcPad</text>
<text text-anchor="middle" x="421.5" y="-262.5" font-family="FreeSans" font-size="10.00" fill="#000000">Plane.cc</text>
</a>
</g>
</g>
<!-- Node1&#45;&gt;Node3 -->
<g id="edge2" class="edge">
<title>Node1&#45;&gt;Node3</title>
<path fill="none" stroke="#191970" d="M538.7687,-343.7541C518.3131,-333.2438 495.8526,-321.7033 476.1109,-311.5597"/>
<polygon fill="#191970" stroke="#191970" points="537.2087,-346.8875 547.7028,-348.3446 540.4078,-340.6612 537.2087,-346.8875"/>
</g>
<!-- Node4 -->
<g id="node4" class="node">
<title>Node4</title>
<g id="a_node4"><a xlink:href="../../d1/d4a/PHG4TpcPadPlaneReadout_8h.html" target="_top" xlink:title="fun4all_coresoftware\l/blob/master/simulation\l/g4simulation/g4tpc/PHG4TpcPad\lPlaneReadout.h">
<polygon fill="none" stroke="#000000" points="570.5,-255.5 570.5,-311.5 756.5,-311.5 756.5,-255.5 570.5,-255.5"/>
<text text-anchor="start" x="578.5" y="-298.5" font-family="FreeSans" font-size="10.00" fill="#000000">fun4all_coresoftware</text>
<text text-anchor="start" x="578.5" y="-286.5" font-family="FreeSans" font-size="10.00" fill="#000000">/blob/master/simulation</text>
<text text-anchor="start" x="578.5" y="-274.5" font-family="FreeSans" font-size="10.00" fill="#000000">/g4simulation/g4tpc/PHG4TpcPad</text>
<text text-anchor="middle" x="663.5" y="-262.5" font-family="FreeSans" font-size="10.00" fill="#000000">PlaneReadout.h</text>
</a>
</g>
</g>
<!-- Node1&#45;&gt;Node4 -->
<g id="edge3" class="edge">
<title>Node1&#45;&gt;Node4</title>
<path fill="none" stroke="#191970" d="M626.5094,-339.8954C632.6919,-330.4697 639.2475,-320.4751 645.0952,-311.5597"/>
<polygon fill="#191970" stroke="#191970" points="623.5256,-338.0631 620.9676,-348.3446 629.3788,-341.9024 623.5256,-338.0631"/>
</g>
<!-- Node6 -->
<g id="node6" class="node">
<title>Node6</title>
<g id="a_node6"><a xlink:href="../../da/d3c/G4__Tracking_8C.html" target="_top" xlink:title="fun4all_macros/blob\l/master/macros/g4simulations\l/G4_Tracking.C">
<polygon fill="none" stroke="#000000" points="362,-168.5 362,-212.5 533,-212.5 533,-168.5 362,-168.5"/>
<text text-anchor="start" x="370" y="-199.5" font-family="FreeSans" font-size="10.00" fill="#000000">fun4all_macros/blob</text>
<text text-anchor="start" x="370" y="-187.5" font-family="FreeSans" font-size="10.00" fill="#000000">/master/macros/g4simulations</text>
<text text-anchor="middle" x="447.5" y="-175.5" font-family="FreeSans" font-size="10.00" fill="#000000">/G4_Tracking.C</text>
</a>
</g>
</g>
<!-- Node1&#45;&gt;Node6 -->
<g id="edge16" class="edge">
<title>Node1&#45;&gt;Node6</title>
<path fill="none" stroke="#191970" d="M579.0744,-339.9116C557.0057,-305.5303 526.8333,-258.7868 523.5,-255 509.7787,-239.412 492.2219,-224.2654 477.4403,-212.5714"/>
<polygon fill="#191970" stroke="#191970" points="576.1438,-341.8254 584.4893,-348.3526 582.0357,-338.0458 576.1438,-341.8254"/>
</g>
<!-- Node11 -->
<g id="node11" class="node">
<title>Node11</title>
<g id="a_node11"><a xlink:href="../../de/da9/ReadClustersRunTracking_8C.html" target="_top" xlink:title="fun4all_macros/blob\l/master/macros/g4simulations\l/ReadClustersRunTracking.C">
<polygon fill="none" stroke="#000000" points="718,-.5 718,-44.5 889,-44.5 889,-.5 718,-.5"/>
<text text-anchor="start" x="726" y="-31.5" font-family="FreeSans" font-size="10.00" fill="#000000">fun4all_macros/blob</text>
<text text-anchor="start" x="726" y="-19.5" font-family="FreeSans" font-size="10.00" fill="#000000">/master/macros/g4simulations</text>
<text text-anchor="middle" x="803.5" y="-7.5" font-family="FreeSans" font-size="10.00" fill="#000000">/ReadClustersRunTracking.C</text>
</a>
</g>
</g>
<!-- Node1&#45;&gt;Node11 -->
<g id="edge17" class="edge">
<title>Node1&#45;&gt;Node11</title>
<path fill="none" stroke="#191970" d="M705.3685,-354.6438C728.2962,-345.1358 750.2861,-331.5118 765.5,-312 828.6195,-231.0492 815.6588,-97.0233 807.4849,-44.5401"/>
<polygon fill="#191970" stroke="#191970" points="703.9051,-351.4574 695.8536,-358.3439 706.4422,-357.9815 703.9051,-351.4574"/>
</g>
<!-- Node14 -->
<g id="node14" class="node">
<title>Node14</title>
<g id="a_node14"><a xlink:href="../../dc/db9/PHG4TpcPadPlaneSimple_8h.html" target="_top" xlink:title="fun4all_coresoftware\l/blob/master/simulation\l/g4simulation/g4tpc/PHG4TpcPad\lPlaneSimple.h">
<polygon fill="none" stroke="#000000" points="831.5,-255.5 831.5,-311.5 1017.5,-311.5 1017.5,-255.5 831.5,-255.5"/>
<text text-anchor="start" x="839.5" y="-298.5" font-family="FreeSans" font-size="10.00" fill="#000000">fun4all_coresoftware</text>
<text text-anchor="start" x="839.5" y="-286.5" font-family="FreeSans" font-size="10.00" fill="#000000">/blob/master/simulation</text>
<text text-anchor="start" x="839.5" y="-274.5" font-family="FreeSans" font-size="10.00" fill="#000000">/g4simulation/g4tpc/PHG4TpcPad</text>
<text text-anchor="middle" x="924.5" y="-262.5" font-family="FreeSans" font-size="10.00" fill="#000000">PlaneSimple.h</text>
</a>
</g>
</g>
<!-- Node1&#45;&gt;Node14 -->
<g id="edge14" class="edge">
<title>Node1&#45;&gt;Node14</title>
<path fill="none" stroke="#191970" d="M705.249,-346.824C745.701,-335.1407 791.8237,-321.8196 831.295,-310.4195"/>
<polygon fill="#191970" stroke="#191970" points="704.2719,-343.4631 695.6357,-349.6005 706.2143,-350.1883 704.2719,-343.4631"/>
</g>
<!-- Node5 -->
<g id="node5" class="node">
<title>Node5</title>
<g id="a_node5"><a xlink:href="../../d1/d25/PHG4TpcPadPlaneReadout_8cc.html" target="_top" xlink:title="fun4all_coresoftware\l/blob/master/simulation\l/g4simulation/g4tpc/PHG4TpcPad\lPlaneReadout.cc">
<polygon fill="none" stroke="#000000" points="551.5,-162.5 551.5,-218.5 737.5,-218.5 737.5,-162.5 551.5,-162.5"/>
<text text-anchor="start" x="559.5" y="-205.5" font-family="FreeSans" font-size="10.00" fill="#000000">fun4all_coresoftware</text>
<text text-anchor="start" x="559.5" y="-193.5" font-family="FreeSans" font-size="10.00" fill="#000000">/blob/master/simulation</text>
<text text-anchor="start" x="559.5" y="-181.5" font-family="FreeSans" font-size="10.00" fill="#000000">/g4simulation/g4tpc/PHG4TpcPad</text>
<text text-anchor="middle" x="644.5" y="-169.5" font-family="FreeSans" font-size="10.00" fill="#000000">PlaneReadout.cc</text>
</a>
</g>
</g>
<!-- Node4&#45;&gt;Node5 -->
<g id="edge4" class="edge">
<title>Node4&#45;&gt;Node5</title>
<path fill="none" stroke="#191970" d="M655.726,-245.4485C653.8882,-236.4526 651.9611,-227.0203 650.2326,-218.5597"/>
<polygon fill="#191970" stroke="#191970" points="652.3169,-246.2475 657.7478,-255.3446 659.1752,-244.8463 652.3169,-246.2475"/>
</g>
<!-- Node4&#45;&gt;Node6 -->
<g id="edge5" class="edge">
<title>Node4&#45;&gt;Node6</title>
<path fill="none" stroke="#191970" d="M588.8894,-251.376C559.1514,-238.5721 525.6674,-224.1554 498.7516,-212.5666"/>
<polygon fill="#191970" stroke="#191970" points="587.831,-254.7309 598.4,-255.4708 590.5992,-248.3015 587.831,-254.7309"/>
</g>
<!-- Node4&#45;&gt;Node11 -->
<g id="edge13" class="edge">
<title>Node4&#45;&gt;Node11</title>
<path fill="none" stroke="#191970" d="M718.1583,-249.0346C728.7523,-240.3076 738.9055,-230.1907 746.5,-219 756.4483,-204.3409 785.5076,-93.1942 797.8499,-44.8474"/>
<polygon fill="#191970" stroke="#191970" points="715.7123,-246.505 710.0061,-255.432 720.0338,-252.0118 715.7123,-246.505"/>
</g>
<!-- Node7 -->
<g id="node7" class="node">
<title>Node7</title>
<g id="a_node7"><a xlink:href="../../d6/d41/G4Setup__fsPHENIX_8C.html" target="_top" xlink:title="fun4all_macros/blob\l/master/macros/g4simulations\l/G4Setup_fsPHENIX.C">
<polygon fill="none" stroke="#000000" points="86,-81.5 86,-125.5 257,-125.5 257,-81.5 86,-81.5"/>
<text text-anchor="start" x="94" y="-112.5" font-family="FreeSans" font-size="10.00" fill="#000000">fun4all_macros/blob</text>
<text text-anchor="start" x="94" y="-100.5" font-family="FreeSans" font-size="10.00" fill="#000000">/master/macros/g4simulations</text>
<text text-anchor="middle" x="171.5" y="-88.5" font-family="FreeSans" font-size="10.00" fill="#000000">/G4Setup_fsPHENIX.C</text>
</a>
</g>
</g>
<!-- Node6&#45;&gt;Node7 -->
<g id="edge6" class="edge">
<title>Node6&#45;&gt;Node7</title>
<path fill="none" stroke="#191970" d="M367.7894,-165.3738C327.8474,-152.7834 279.9239,-137.6771 241.4286,-125.5427"/>
<polygon fill="#191970" stroke="#191970" points="366.9071,-168.7654 377.4968,-168.4338 369.0116,-162.0892 366.9071,-168.7654"/>
</g>
<!-- Node9 -->
<g id="node9" class="node">
<title>Node9</title>
<g id="a_node9"><a xlink:href="../../d0/daa/G4Setup__sPHENIX_8C.html" target="_top" xlink:title="fun4all_macros/blob\l/master/macros/g4simulations\l/G4Setup_sPHENIX.C">
<polygon fill="none" stroke="#000000" points="362,-81.5 362,-125.5 533,-125.5 533,-81.5 362,-81.5"/>
<text text-anchor="start" x="370" y="-112.5" font-family="FreeSans" font-size="10.00" fill="#000000">fun4all_macros/blob</text>
<text text-anchor="start" x="370" y="-100.5" font-family="FreeSans" font-size="10.00" fill="#000000">/master/macros/g4simulations</text>
<text text-anchor="middle" x="447.5" y="-88.5" font-family="FreeSans" font-size="10.00" fill="#000000">/G4Setup_sPHENIX.C</text>
</a>
</g>
</g>
<!-- Node6&#45;&gt;Node9 -->
<g id="edge8" class="edge">
<title>Node6&#45;&gt;Node9</title>
<path fill="none" stroke="#191970" d="M447.5,-158.0893C447.5,-147.2369 447.5,-135.3979 447.5,-125.5276"/>
<polygon fill="#191970" stroke="#191970" points="444.0001,-158.0953 447.5,-168.0953 451.0001,-158.0954 444.0001,-158.0953"/>
</g>
<!-- Node8 -->
<g id="node8" class="node">
<title>Node8</title>
<g id="a_node8"><a xlink:href="../../d7/d9e/Fun4All__G4__fsPHENIX_8C.html" target="_top" xlink:title="fun4all_macros/blob\l/master/macros/g4simulations\l/Fun4All_G4_fsPHENIX.C">
<polygon fill="none" stroke="#000000" points="0,-.5 0,-44.5 171,-44.5 171,-.5 0,-.5"/>
<text text-anchor="start" x="8" y="-31.5" font-family="FreeSans" font-size="10.00" fill="#000000">fun4all_macros/blob</text>
<text text-anchor="start" x="8" y="-19.5" font-family="FreeSans" font-size="10.00" fill="#000000">/master/macros/g4simulations</text>
<text text-anchor="middle" x="85.5" y="-7.5" font-family="FreeSans" font-size="10.00" fill="#000000">/Fun4All_G4_fsPHENIX.C</text>
</a>
</g>
</g>
<!-- Node7&#45;&gt;Node8 -->
<g id="edge7" class="edge">
<title>Node7&#45;&gt;Node8</title>
<path fill="none" stroke="#191970" d="M140.6283,-74.4232C130.1989,-64.6001 118.7328,-53.8007 108.9715,-44.6068"/>
<polygon fill="#191970" stroke="#191970" points="138.3209,-77.0579 148.0001,-81.3664 143.1203,-71.9622 138.3209,-77.0579"/>
</g>
<!-- Node10 -->
<g id="node10" class="node">
<title>Node10</title>
<g id="a_node10"><a xlink:href="../../d0/d13/Fun4All__G4__sPHENIX_8C.html" target="_top" xlink:title="fun4all_macros/blob\l/master/macros/g4simulations\l/Fun4All_G4_sPHENIX.C">
<polygon fill="none" stroke="#000000" points="529,-.5 529,-44.5 700,-44.5 700,-.5 529,-.5"/>
<text text-anchor="start" x="537" y="-31.5" font-family="FreeSans" font-size="10.00" fill="#000000">fun4all_macros/blob</text>
<text text-anchor="start" x="537" y="-19.5" font-family="FreeSans" font-size="10.00" fill="#000000">/master/macros/g4simulations</text>
<text text-anchor="middle" x="614.5" y="-7.5" font-family="FreeSans" font-size="10.00" fill="#000000">/Fun4All_G4_sPHENIX.C</text>
</a>
</g>
</g>
<!-- Node9&#45;&gt;Node10 -->
<g id="edge9" class="edge">
<title>Node9&#45;&gt;Node10</title>
<path fill="none" stroke="#191970" d="M502.1893,-76.9741C523.7846,-66.4997 548.3102,-54.604 568.9217,-44.6068"/>
<polygon fill="#191970" stroke="#191970" points="500.6036,-73.8532 493.1335,-81.3664 503.6584,-80.1514 500.6036,-73.8532"/>
</g>
<!-- Node9&#45;&gt;Node11 -->
<g id="edge10" class="edge">
<title>Node9&#45;&gt;Node11</title>
<path fill="none" stroke="#191970" d="M542.8986,-82.5661C592.6074,-71.5653 654.3727,-57.7514 709.5,-45 712.2793,-44.3571 715.104,-43.7004 717.9558,-43.0345"/>
<polygon fill="#191970" stroke="#191970" points="542.1316,-79.151 533.1231,-84.7275 543.643,-85.9859 542.1316,-79.151"/>
</g>
<!-- Node12 -->
<g id="node12" class="node">
<title>Node12</title>
<g id="a_node12"><a xlink:href="../../db/dc0/Fun4All__AnaTutorial_8C.html" target="_top" xlink:title="fun4all_tutorials/blob\l/master/AnaTutorial/macro\l/Fun4All_AnaTutorial.C">
<polygon fill="none" stroke="#000000" points="189,-.5 189,-44.5 340,-44.5 340,-.5 189,-.5"/>
<text text-anchor="start" x="197" y="-31.5" font-family="FreeSans" font-size="10.00" fill="#000000">fun4all_tutorials/blob</text>
<text text-anchor="start" x="197" y="-19.5" font-family="FreeSans" font-size="10.00" fill="#000000">/master/AnaTutorial/macro</text>
<text text-anchor="middle" x="264.5" y="-7.5" font-family="FreeSans" font-size="10.00" fill="#000000">/Fun4All_AnaTutorial.C</text>
</a>
</g>
</g>
<!-- Node9&#45;&gt;Node12 -->
<g id="edge11" class="edge">
<title>Node9&#45;&gt;Node12</title>
<path fill="none" stroke="#191970" d="M388.2041,-77.2543C364.3869,-66.7123 337.233,-54.6933 314.4451,-44.6068"/>
<polygon fill="#191970" stroke="#191970" points="386.9335,-80.5194 397.4944,-81.3664 389.7668,-74.1184 386.9335,-80.5194"/>
</g>
<!-- Node13 -->
<g id="node13" class="node">
<title>Node13</title>
<g id="a_node13"><a xlink:href="../../dd/d28/Fun4All__AnaTutorial__Jets_8C.html" target="_top" xlink:title="fun4all_tutorials/blob\l/master/AnaTutorial/macro\l/Fun4All_AnaTutorial_Jets.C">
<polygon fill="none" stroke="#000000" points="358,-.5 358,-44.5 511,-44.5 511,-.5 358,-.5"/>
<text text-anchor="start" x="366" y="-31.5" font-family="FreeSans" font-size="10.00" fill="#000000">fun4all_tutorials/blob</text>
<text text-anchor="start" x="366" y="-19.5" font-family="FreeSans" font-size="10.00" fill="#000000">/master/AnaTutorial/macro</text>
<text text-anchor="middle" x="434.5" y="-7.5" font-family="FreeSans" font-size="10.00" fill="#000000">/Fun4All_AnaTutorial_Jets.C</text>
</a>
</g>
</g>
<!-- Node9&#45;&gt;Node13 -->
<g id="edge12" class="edge">
<title>Node9&#45;&gt;Node13</title>
<path fill="none" stroke="#191970" d="M442.3234,-71.2457C440.8895,-62.3118 439.366,-52.8188 438.048,-44.6068"/>
<polygon fill="#191970" stroke="#191970" points="438.9072,-72.0474 443.9477,-81.3664 445.8187,-70.9381 438.9072,-72.0474"/>
</g>
<!-- Node15 -->
<g id="node15" class="node">
<title>Node15</title>
<g id="a_node15"><a xlink:href="../../dc/d03/PHG4TpcPadPlaneSimple_8cc.html" target="_top" xlink:title="fun4all_coresoftware\l/blob/master/simulation\l/g4simulation/g4tpc/PHG4TpcPad\lPlaneSimple.cc">
<polygon fill="none" stroke="#000000" points="831.5,-162.5 831.5,-218.5 1017.5,-218.5 1017.5,-162.5 831.5,-162.5"/>
<text text-anchor="start" x="839.5" y="-205.5" font-family="FreeSans" font-size="10.00" fill="#000000">fun4all_coresoftware</text>
<text text-anchor="start" x="839.5" y="-193.5" font-family="FreeSans" font-size="10.00" fill="#000000">/blob/master/simulation</text>
<text text-anchor="start" x="839.5" y="-181.5" font-family="FreeSans" font-size="10.00" fill="#000000">/g4simulation/g4tpc/PHG4TpcPad</text>
<text text-anchor="middle" x="924.5" y="-169.5" font-family="FreeSans" font-size="10.00" fill="#000000">PlaneSimple.cc</text>
</a>
</g>
</g>
<!-- Node14&#45;&gt;Node15 -->
<g id="edge15" class="edge">
<title>Node14&#45;&gt;Node15</title>
<path fill="none" stroke="#191970" d="M924.5,-245.1582C924.5,-236.2499 924.5,-226.9293 924.5,-218.5597"/>
<polygon fill="#191970" stroke="#191970" points="921.0001,-245.3445 924.5,-255.3446 928.0001,-245.3446 921.0001,-245.3445"/>
</g>
</g>
</svg>
