<?xml version="1.0" encoding="UTF-8" standalone="no"?>
<!DOCTYPE svg PUBLIC "-//W3C//DTD SVG 1.1//EN"
 "http://www.w3.org/Graphics/SVG/1.1/DTD/svg11.dtd">
<!-- Generated by graphviz version 2.40.1 (20161225.0304)
 -->
<!-- Title: EicFluxMonitorTask::FinishTask Pages: 1 -->
<svg width="625pt" height="404pt"
 viewBox="0.00 0.00 625.00 404.00" xmlns="http://www.w3.org/2000/svg" xmlns:xlink="http://www.w3.org/1999/xlink">
<g id="graph0" class="graph" transform="scale(1 1) rotate(0) translate(4 400)">
<title>EicFluxMonitorTask::FinishTask</title>
<!-- Node1 -->
<g id="node1" class="node">
<title>Node1</title>
<polygon fill="#bfbfbf" stroke="#000000" points="0,-72.5 0,-104.5 113,-104.5 113,-72.5 0,-72.5"/>
<text text-anchor="start" x="8" y="-91.5" font-family="FreeSans" font-size="10.00" fill="#000000">EicFluxMonitorTask</text>
<text text-anchor="middle" x="56.5" y="-79.5" font-family="FreeSans" font-size="10.00" fill="#000000">::FinishTask</text>
</g>
<!-- Node2 -->
<g id="node2" class="node">
<title>Node2</title>
<g id="a_node2"><a xlink:href="../../d9/dec/classFluxMonitorGrid.html#a237f67bd91cd9739ee6e4252458f5710" target="_top" xlink:title="FluxMonitorGrid::FillOut\lHistograms">
<polygon fill="none" stroke="#000000" points="168.5,-208.5 168.5,-240.5 304.5,-240.5 304.5,-208.5 168.5,-208.5"/>
<text text-anchor="start" x="176.5" y="-227.5" font-family="FreeSans" font-size="10.00" fill="#000000">FluxMonitorGrid::FillOut</text>
<text text-anchor="middle" x="236.5" y="-215.5" font-family="FreeSans" font-size="10.00" fill="#000000">Histograms</text>
</a>
</g>
</g>
<!-- Node1&#45;&gt;Node2 -->
<g id="edge1" class="edge">
<title>Node1&#45;&gt;Node2</title>
<path fill="none" stroke="#191970" d="M77.8552,-104.635C109.9267,-128.8668 170.6307,-174.7321 206.9381,-202.1644"/>
<polygon fill="#191970" stroke="#191970" points="205.084,-205.1501 215.1726,-208.3859 209.3038,-199.565 205.084,-205.1501"/>
</g>
<!-- Node6 -->
<g id="node6" class="node">
<title>Node6</title>
<g id="a_node6"><a xlink:href="../../da/d23/msg__buffer_8cc.html#a98631211a4a8aee62f572375d5b637be" target="_top" xlink:title="printf">
<polygon fill="none" stroke="#000000" points="403,-117.5 403,-137.5 447,-137.5 447,-117.5 403,-117.5"/>
<text text-anchor="middle" x="425" y="-124.5" font-family="FreeSans" font-size="10.00" fill="#000000">printf</text>
</a>
</g>
</g>
<!-- Node1&#45;&gt;Node6 -->
<g id="edge16" class="edge">
<title>Node1&#45;&gt;Node6</title>
<path fill="none" stroke="#191970" d="M113.0129,-102.0703C124.8463,-104.531 137.2874,-106.8395 149,-108.5 236.4613,-120.8997 340.708,-125.2895 392.4794,-126.7784"/>
<polygon fill="#191970" stroke="#191970" points="392.6148,-130.2833 402.7055,-127.054 392.8034,-123.2858 392.6148,-130.2833"/>
</g>
<!-- Node10 -->
<g id="node10" class="node">
<title>Node10</title>
<g id="a_node10"><a xlink:href="../../d2/d9e/classFairTask.html#a6ec7acd9772463226e1f3e2424fa402a" target="_top" xlink:title="FairTask::FinishTask">
<polygon fill="none" stroke="#000000" points="179.5,-78.5 179.5,-98.5 293.5,-98.5 293.5,-78.5 179.5,-78.5"/>
<text text-anchor="middle" x="236.5" y="-85.5" font-family="FreeSans" font-size="10.00" fill="#000000">FairTask::FinishTask</text>
</a>
</g>
</g>
<!-- Node1&#45;&gt;Node10 -->
<g id="edge9" class="edge">
<title>Node1&#45;&gt;Node10</title>
<path fill="none" stroke="#191970" d="M113.4531,-88.5C131.1815,-88.5 150.8964,-88.5 169.2587,-88.5"/>
<polygon fill="#191970" stroke="#191970" points="169.2996,-92.0001 179.2996,-88.5 169.2995,-85.0001 169.2996,-92.0001"/>
</g>
<!-- Node13 -->
<g id="node13" class="node">
<title>Node13</title>
<g id="a_node13"><a xlink:href="../../d3/d61/classEicRunSim.html#abbdde0d94378cf88cfa946ed77e07692" target="_top" xlink:title="EicRunSim::GetFluxMonitorGrid">
<polygon fill="none" stroke="#000000" points="149,-39.5 149,-59.5 324,-59.5 324,-39.5 149,-39.5"/>
<text text-anchor="middle" x="236.5" y="-46.5" font-family="FreeSans" font-size="10.00" fill="#000000">EicRunSim::GetFluxMonitorGrid</text>
</a>
</g>
</g>
<!-- Node1&#45;&gt;Node13 -->
<g id="edge14" class="edge">
<title>Node1&#45;&gt;Node13</title>
<path fill="none" stroke="#191970" d="M113.4531,-76.1602C134.7928,-71.5366 159.0109,-66.2893 180.2834,-61.6803"/>
<polygon fill="#191970" stroke="#191970" points="181.1135,-65.0817 190.1455,-59.5435 179.6311,-58.2404 181.1135,-65.0817"/>
</g>
<!-- Node14 -->
<g id="node14" class="node">
<title>Node14</title>
<g id="a_node14"><a xlink:href="../../d3/d61/classEicRunSim.html#a183b9a7441d4e73ef1fea42e84345f7f" target="_top" xlink:title="EicRunSim::Instance">
<polygon fill="none" stroke="#000000" points="177,-.5 177,-20.5 296,-20.5 296,-.5 177,-.5"/>
<text text-anchor="middle" x="236.5" y="-7.5" font-family="FreeSans" font-size="10.00" fill="#000000">EicRunSim::Instance</text>
</a>
</g>
</g>
<!-- Node1&#45;&gt;Node14 -->
<g id="edge15" class="edge">
<title>Node1&#45;&gt;Node14</title>
<path fill="none" stroke="#191970" d="M76.9971,-72.395C95.0029,-59.0146 122.4066,-40.4562 149,-29.5 154.7537,-27.1295 160.8475,-25.0358 167.0344,-23.1903"/>
<polygon fill="#191970" stroke="#191970" points="168.0924,-26.5291 176.7977,-20.4903 166.2266,-19.7824 168.0924,-26.5291"/>
</g>
<!-- Node3 -->
<g id="node3" class="node">
<title>Node3</title>
<g id="a_node3"><a xlink:href="../../dd/d7e/namespaceActs_1_1Test.html#adabd7b0a1454c86f076c8a465eb9e04b" target="_top" xlink:title="Acts::Test::generator">
<polygon fill="none" stroke="#000000" points="364,-375.5 364,-395.5 486,-395.5 486,-375.5 364,-375.5"/>
<text text-anchor="middle" x="425" y="-382.5" font-family="FreeSans" font-size="10.00" fill="#000000">Acts::Test::generator</text>
</a>
</g>
</g>
<!-- Node2&#45;&gt;Node3 -->
<g id="edge2" class="edge">
<title>Node2&#45;&gt;Node3</title>
<path fill="none" stroke="#191970" d="M246.1792,-240.8051C264.568,-270.3629 307.4511,-332.8419 360,-366.5 362.9097,-368.3637 366.0081,-370.0499 369.2134,-371.5748"/>
<polygon fill="#191970" stroke="#191970" points="367.8869,-374.8138 378.4621,-375.4587 370.5972,-368.3598 367.8869,-374.8138"/>
</g>
<!-- Node4 -->
<g id="node4" class="node">
<title>Node4</title>
<g id="a_node4"><a xlink:href="../../dd/df6/classEicEventGenerator.html#a5a1dba1a8c82a9551c2ee619dafd5020" target="_top" xlink:title="EicEventGenerator::\lInstance">
<polygon fill="none" stroke="#000000" points="366.5,-324.5 366.5,-356.5 483.5,-356.5 483.5,-324.5 366.5,-324.5"/>
<text text-anchor="start" x="374.5" y="-343.5" font-family="FreeSans" font-size="10.00" fill="#000000">EicEventGenerator::</text>
<text text-anchor="middle" x="425" y="-331.5" font-family="FreeSans" font-size="10.00" fill="#000000">Instance</text>
</a>
</g>
</g>
<!-- Node2&#45;&gt;Node4 -->
<g id="edge3" class="edge">
<title>Node2&#45;&gt;Node4</title>
<path fill="none" stroke="#191970" d="M255.0938,-240.6989C278.3718,-260.369 320.057,-293.6219 360,-315.5 363.0073,-317.1472 366.1459,-318.7362 369.35,-320.2598"/>
<polygon fill="#191970" stroke="#191970" points="367.9422,-323.4642 378.4979,-324.374 370.8134,-317.0802 367.9422,-323.4642"/>
</g>
<!-- Node5 -->
<g id="node5" class="node">
<title>Node5</title>
<g id="a_node5"><a xlink:href="../../dd/df6/classEicEventGenerator.html#a2d3e6a74ac607e3d15500df4452e4cfe" target="_top" xlink:title="EicEventGenerator::\lGetInputTree">
<polygon fill="none" stroke="#000000" points="366.5,-273.5 366.5,-305.5 483.5,-305.5 483.5,-273.5 366.5,-273.5"/>
<text text-anchor="start" x="374.5" y="-292.5" font-family="FreeSans" font-size="10.00" fill="#000000">EicEventGenerator::</text>
<text text-anchor="middle" x="425" y="-280.5" font-family="FreeSans" font-size="10.00" fill="#000000">GetInputTree</text>
</a>
</g>
</g>
<!-- Node2&#45;&gt;Node5 -->
<g id="edge4" class="edge">
<title>Node2&#45;&gt;Node5</title>
<path fill="none" stroke="#191970" d="M283.0955,-240.5674C308.924,-249.4738 341.2319,-260.6144 368.4932,-270.0149"/>
<polygon fill="#191970" stroke="#191970" points="367.6925,-273.441 378.2872,-273.3921 369.9745,-266.8234 367.6925,-273.441"/>
</g>
<!-- Node2&#45;&gt;Node6 -->
<g id="edge5" class="edge">
<title>Node2&#45;&gt;Node6</title>
<path fill="none" stroke="#191970" d="M258.2792,-208.4777C282.2187,-191.4626 322.3,-164.699 360,-147.5 370.4196,-142.7465 382.2751,-138.7239 392.9825,-135.5607"/>
<polygon fill="#191970" stroke="#191970" points="394.1336,-138.8728 402.8121,-132.7955 392.238,-132.1344 394.1336,-138.8728"/>
</g>
<!-- Node7 -->
<g id="node7" class="node">
<title>Node7</title>
<g id="a_node7"><a xlink:href="../../dd/dd2/classFairRun.html#a32e8a29a693ab357d4ce2b56a6cbc3a0" target="_top" xlink:title="FairRun::Instance">
<polygon fill="none" stroke="#000000" points="373.5,-234.5 373.5,-254.5 476.5,-254.5 476.5,-234.5 373.5,-234.5"/>
<text text-anchor="middle" x="425" y="-241.5" font-family="FreeSans" font-size="10.00" fill="#000000">FairRun::Instance</text>
</a>
</g>
</g>
<!-- Node2&#45;&gt;Node7 -->
<g id="edge6" class="edge">
<title>Node2&#45;&gt;Node7</title>
<path fill="none" stroke="#191970" d="M304.5528,-231.7205C323.6832,-233.7502 344.3778,-235.9459 363.1266,-237.9352"/>
<polygon fill="#191970" stroke="#191970" points="363.0067,-241.442 373.3202,-239.0167 363.7453,-234.4811 363.0067,-241.442"/>
</g>
<!-- Node8 -->
<g id="node8" class="node">
<title>Node8</title>
<g id="a_node8"><a xlink:href="../../dd/dd2/classFairRun.html#a09dacf683861bbef4409df4bd012353c" target="_top" xlink:title="FairRun::GetOutputFile">
<polygon fill="none" stroke="#000000" points="360,-195.5 360,-215.5 490,-215.5 490,-195.5 360,-195.5"/>
<text text-anchor="middle" x="425" y="-202.5" font-family="FreeSans" font-size="10.00" fill="#000000">FairRun::GetOutputFile</text>
</a>
</g>
</g>
<!-- Node2&#45;&gt;Node8 -->
<g id="edge7" class="edge">
<title>Node2&#45;&gt;Node8</title>
<path fill="none" stroke="#191970" d="M304.5528,-217.6406C319.2046,-216.1637 334.774,-214.5944 349.684,-213.0915"/>
<polygon fill="#191970" stroke="#191970" points="350.283,-216.549 359.8815,-212.0637 349.5809,-209.5843 350.283,-216.549"/>
</g>
<!-- Node9 -->
<g id="node9" class="node">
<title>Node9</title>
<g id="a_node9"><a xlink:href="../../d8/d7e/pmonitor_8h.html#a0ed5f59873a9d7cfded6e67cfdfa7d4e" target="_top" xlink:title="pname">
<polygon fill="none" stroke="#000000" points="399.5,-156.5 399.5,-176.5 450.5,-176.5 450.5,-156.5 399.5,-156.5"/>
<text text-anchor="middle" x="425" y="-163.5" font-family="FreeSans" font-size="10.00" fill="#000000">pname</text>
</a>
</g>
</g>
<!-- Node2&#45;&gt;Node9 -->
<g id="edge8" class="edge">
<title>Node2&#45;&gt;Node9</title>
<path fill="none" stroke="#191970" d="M288.5074,-208.4977C320.6327,-198.613 361.0138,-186.1881 389.4935,-177.4251"/>
<polygon fill="#191970" stroke="#191970" points="390.8818,-180.6599 399.4103,-174.3738 388.8231,-173.9695 390.8818,-180.6599"/>
</g>
<!-- Node11 -->
<g id="node11" class="node">
<title>Node11</title>
<g id="a_node11"><a xlink:href="../../d2/d9e/classFairTask.html#a3094b770cf88328da72b5b85eb1c2d77" target="_top" xlink:title="FairTask::Finish">
<polygon fill="none" stroke="#000000" points="526,-58.5 526,-78.5 617,-78.5 617,-58.5 526,-58.5"/>
<text text-anchor="middle" x="571.5" y="-65.5" font-family="FreeSans" font-size="10.00" fill="#000000">FairTask::Finish</text>
</a>
</g>
</g>
<!-- Node10&#45;&gt;Node11 -->
<g id="edge10" class="edge">
<title>Node10&#45;&gt;Node11</title>
<path fill="none" stroke="#191970" d="M293.7079,-85.0846C355.7139,-81.3828 454.0194,-75.5138 515.535,-71.8412"/>
<polygon fill="#191970" stroke="#191970" points="516.0542,-75.3165 525.8278,-71.2267 515.6369,-68.329 516.0542,-75.3165"/>
</g>
<!-- Node12 -->
<g id="node12" class="node">
<title>Node12</title>
<g id="a_node12"><a xlink:href="../../d2/d9e/classFairTask.html#a014044eefffd7fdd7b51bf2cc775c127" target="_top" xlink:title="FairTask::FinishTasks">
<polygon fill="none" stroke="#000000" points="365.5,-39.5 365.5,-59.5 484.5,-59.5 484.5,-39.5 365.5,-39.5"/>
<text text-anchor="middle" x="425" y="-46.5" font-family="FreeSans" font-size="10.00" fill="#000000">FairTask::FinishTasks</text>
</a>
</g>
</g>
<!-- Node10&#45;&gt;Node12 -->
<g id="edge11" class="edge">
<title>Node10&#45;&gt;Node12</title>
<path fill="none" stroke="#191970" d="M261.9219,-78.4518C285.7828,-71.7837 322.5844,-63.5844 355.1929,-57.3988"/>
<polygon fill="#191970" stroke="#191970" points="355.9665,-60.8151 365.1591,-55.5477 354.6881,-53.9328 355.9665,-60.8151"/>
</g>
<!-- Node12&#45;&gt;Node10 -->
<g id="edge12" class="edge">
<title>Node12&#45;&gt;Node10</title>
<path fill="none" stroke="#191970" d="M399.552,-59.5555C375.0524,-66.4006 336.927,-74.8573 303.7014,-81.0929"/>
<polygon fill="#191970" stroke="#191970" points="302.7717,-77.7049 293.5678,-82.9525 304.0353,-84.59 302.7717,-77.7049"/>
</g>
<!-- Node12&#45;&gt;Node11 -->
<g id="edge13" class="edge">
<title>Node12&#45;&gt;Node11</title>
<path fill="none" stroke="#191970" d="M484.5872,-57.228C494.925,-58.5688 505.6393,-59.9583 515.8666,-61.2847"/>
<polygon fill="#191970" stroke="#191970" points="515.5323,-64.7706 525.8994,-62.5859 516.4327,-57.8288 515.5323,-64.7706"/>
</g>
</g>
</svg>
