<?xml version="1.0" encoding="UTF-8" standalone="no"?>
<!DOCTYPE svg PUBLIC "-//W3C//DTD SVG 1.1//EN"
 "http://www.w3.org/Graphics/SVG/1.1/DTD/svg11.dtd">
<!-- Generated by graphviz version 2.40.1 (20161225.0304)
 -->
<!-- Title: fun4all_coresoftware/blob/master/simulation/g4simulation/g4detectors/PHG4EventActionClearZeroEdep.h Pages: 1 -->
<svg width="931pt" height="158pt"
 viewBox="0.00 0.00 930.50 158.00" xmlns="http://www.w3.org/2000/svg" xmlns:xlink="http://www.w3.org/1999/xlink">
<g id="graph0" class="graph" transform="scale(1 1) rotate(0) translate(4 154)">
<title>fun4all_coresoftware/blob/master/simulation/g4simulation/g4detectors/PHG4EventActionClearZeroEdep.h</title>
<!-- Node1 -->
<g id="node1" class="node">
<title>Node1</title>
<polygon fill="#bfbfbf" stroke="#000000" points="386,-93.5 386,-149.5 580,-149.5 580,-93.5 386,-93.5"/>
<text text-anchor="start" x="394" y="-136.5" font-family="FreeSans" font-size="10.00" fill="#000000">fun4all_coresoftware</text>
<text text-anchor="start" x="394" y="-124.5" font-family="FreeSans" font-size="10.00" fill="#000000">/blob/master/simulation</text>
<text text-anchor="start" x="394" y="-112.5" font-family="FreeSans" font-size="10.00" fill="#000000">/g4simulation/g4detectors</text>
<text text-anchor="middle" x="483" y="-100.5" font-family="FreeSans" font-size="10.00" fill="#000000">/PHG4EventActionClearZeroEdep.h</text>
</g>
<!-- Node2 -->
<g id="node2" class="node">
<title>Node2</title>
<g id="a_node2"><a xlink:href="../../d9/d7c/PHG4CEmcTestBeamSubsystem_8cc.html" target="_top" xlink:title="fun4all_coresoftware\l/blob/master/simulation\l/g4simulation/g4detectors\l/PHG4CEmcTestBeamSubsystem.cc">
<polygon fill="none" stroke="#000000" points="0,-.5 0,-56.5 196,-56.5 196,-.5 0,-.5"/>
<text text-anchor="start" x="8" y="-43.5" font-family="FreeSans" font-size="10.00" fill="#000000">fun4all_coresoftware</text>
<text text-anchor="start" x="8" y="-31.5" font-family="FreeSans" font-size="10.00" fill="#000000">/blob/master/simulation</text>
<text text-anchor="start" x="8" y="-19.5" font-family="FreeSans" font-size="10.00" fill="#000000">/g4simulation/g4detectors</text>
<text text-anchor="middle" x="98" y="-7.5" font-family="FreeSans" font-size="10.00" fill="#000000">/PHG4CEmcTestBeamSubsystem.cc</text>
</a>
</g>
</g>
<!-- Node1&#45;&gt;Node2 -->
<g id="edge1" class="edge">
<title>Node1&#45;&gt;Node2</title>
<path fill="none" stroke="#191970" d="M375.8253,-97.4849C324.1105,-85.6799 261.2313,-71.0081 205,-57 202.1086,-56.2797 199.1751,-55.5422 196.2152,-54.7921"/>
<polygon fill="#191970" stroke="#191970" points="375.1526,-100.9213 385.6803,-99.7307 376.708,-94.0962 375.1526,-100.9213"/>
</g>
<!-- Node3 -->
<g id="node3" class="node">
<title>Node3</title>
<g id="a_node3"><a xlink:href="../../d4/de9/PHG4ConeSubsystem_8cc.html" target="_top" xlink:title="fun4all_coresoftware\l/blob/master/simulation\l/g4simulation/g4detectors\l/PHG4ConeSubsystem.cc">
<polygon fill="none" stroke="#000000" points="214.5,-.5 214.5,-56.5 365.5,-56.5 365.5,-.5 214.5,-.5"/>
<text text-anchor="start" x="222.5" y="-43.5" font-family="FreeSans" font-size="10.00" fill="#000000">fun4all_coresoftware</text>
<text text-anchor="start" x="222.5" y="-31.5" font-family="FreeSans" font-size="10.00" fill="#000000">/blob/master/simulation</text>
<text text-anchor="start" x="222.5" y="-19.5" font-family="FreeSans" font-size="10.00" fill="#000000">/g4simulation/g4detectors</text>
<text text-anchor="middle" x="290" y="-7.5" font-family="FreeSans" font-size="10.00" fill="#000000">/PHG4ConeSubsystem.cc</text>
</a>
</g>
</g>
<!-- Node1&#45;&gt;Node3 -->
<g id="edge2" class="edge">
<title>Node1&#45;&gt;Node3</title>
<path fill="none" stroke="#191970" d="M415.5934,-89.0191C393.6867,-78.463 369.5733,-66.8436 348.382,-56.6323"/>
<polygon fill="#191970" stroke="#191970" points="414.3039,-92.2828 424.8319,-93.4708 417.3426,-85.9768 414.3039,-92.2828"/>
</g>
<!-- Node4 -->
<g id="node4" class="node">
<title>Node4</title>
<g id="a_node4"><a xlink:href="../../d8/dfd/PHG4EventActionClearZeroEdep_8cc.html" target="_top" xlink:title="fun4all_coresoftware\l/blob/master/simulation\l/g4simulation/g4detectors\l/PHG4EventActionClearZeroEdep.cc">
<polygon fill="none" stroke="#000000" points="383.5,-.5 383.5,-56.5 582.5,-56.5 582.5,-.5 383.5,-.5"/>
<text text-anchor="start" x="391.5" y="-43.5" font-family="FreeSans" font-size="10.00" fill="#000000">fun4all_coresoftware</text>
<text text-anchor="start" x="391.5" y="-31.5" font-family="FreeSans" font-size="10.00" fill="#000000">/blob/master/simulation</text>
<text text-anchor="start" x="391.5" y="-19.5" font-family="FreeSans" font-size="10.00" fill="#000000">/g4simulation/g4detectors</text>
<text text-anchor="middle" x="483" y="-7.5" font-family="FreeSans" font-size="10.00" fill="#000000">/PHG4EventActionClearZeroEdep.cc</text>
</a>
</g>
</g>
<!-- Node1&#45;&gt;Node4 -->
<g id="edge3" class="edge">
<title>Node1&#45;&gt;Node4</title>
<path fill="none" stroke="#191970" d="M483,-83.1582C483,-74.2499 483,-64.9293 483,-56.5597"/>
<polygon fill="#191970" stroke="#191970" points="479.5001,-83.3445 483,-93.3446 486.5001,-83.3446 479.5001,-83.3445"/>
</g>
<!-- Node5 -->
<g id="node5" class="node">
<title>Node5</title>
<g id="a_node5"><a xlink:href="../../df/da5/PHG4FPbScSubsystem_8cc.html" target="_top" xlink:title="fun4all_coresoftware\l/blob/master/simulation\l/g4simulation/g4detectors\l/PHG4FPbScSubsystem.cc">
<polygon fill="none" stroke="#000000" points="600.5,-.5 600.5,-56.5 751.5,-56.5 751.5,-.5 600.5,-.5"/>
<text text-anchor="start" x="608.5" y="-43.5" font-family="FreeSans" font-size="10.00" fill="#000000">fun4all_coresoftware</text>
<text text-anchor="start" x="608.5" y="-31.5" font-family="FreeSans" font-size="10.00" fill="#000000">/blob/master/simulation</text>
<text text-anchor="start" x="608.5" y="-19.5" font-family="FreeSans" font-size="10.00" fill="#000000">/g4simulation/g4detectors</text>
<text text-anchor="middle" x="676" y="-7.5" font-family="FreeSans" font-size="10.00" fill="#000000">/PHG4FPbScSubsystem.cc</text>
</a>
</g>
</g>
<!-- Node1&#45;&gt;Node5 -->
<g id="edge4" class="edge">
<title>Node1&#45;&gt;Node5</title>
<path fill="none" stroke="#191970" d="M550.4066,-89.0191C572.3133,-78.463 596.4267,-66.8436 617.618,-56.6323"/>
<polygon fill="#191970" stroke="#191970" points="548.6574,-85.9768 541.1681,-93.4708 551.6961,-92.2828 548.6574,-85.9768"/>
</g>
<!-- Node6 -->
<g id="node6" class="node">
<title>Node6</title>
<g id="a_node6"><a xlink:href="../../dc/d41/PHG4mRICHSubsystem_8cc.html" target="_top" xlink:title="fun4all_coresoftware\l/blob/master/simulation\l/g4simulation/g4detectors\l/PHG4mRICHSubsystem.cc">
<polygon fill="none" stroke="#000000" points="769.5,-.5 769.5,-56.5 922.5,-56.5 922.5,-.5 769.5,-.5"/>
<text text-anchor="start" x="777.5" y="-43.5" font-family="FreeSans" font-size="10.00" fill="#000000">fun4all_coresoftware</text>
<text text-anchor="start" x="777.5" y="-31.5" font-family="FreeSans" font-size="10.00" fill="#000000">/blob/master/simulation</text>
<text text-anchor="start" x="777.5" y="-19.5" font-family="FreeSans" font-size="10.00" fill="#000000">/g4simulation/g4detectors</text>
<text text-anchor="middle" x="846" y="-7.5" font-family="FreeSans" font-size="10.00" fill="#000000">/PHG4mRICHSubsystem.cc</text>
</a>
</g>
</g>
<!-- Node1&#45;&gt;Node6 -->
<g id="edge5" class="edge">
<title>Node1&#45;&gt;Node6</title>
<path fill="none" stroke="#191970" d="M589.9675,-99.1887C641.8959,-87.7213 705.0155,-72.8411 761,-57 763.6957,-56.2372 766.4326,-55.4408 769.1915,-54.6193"/>
<polygon fill="#191970" stroke="#191970" points="589.0877,-95.7985 580.0717,-101.3627 590.5898,-102.6354 589.0877,-95.7985"/>
</g>
</g>
</svg>
