<?xml version="1.0" encoding="UTF-8" standalone="no"?>
<!DOCTYPE svg PUBLIC "-//W3C//DTD SVG 1.1//EN"
 "http://www.w3.org/Graphics/SVG/1.1/DTD/svg11.dtd">
<!-- Generated by graphviz version 2.40.1 (20161225.0304)
 -->
<!-- Title: SvtxEvalStack::set_verbosity Pages: 1 -->
<svg width="842pt" height="86pt"
 viewBox="0.00 0.00 842.00 86.00" xmlns="http://www.w3.org/2000/svg" xmlns:xlink="http://www.w3.org/1999/xlink">
<g id="graph0" class="graph" transform="scale(1 1) rotate(0) translate(4 82)">
<title>SvtxEvalStack::set_verbosity</title>
<!-- Node1 -->
<g id="node1" class="node">
<title>Node1</title>
<polygon fill="#bfbfbf" stroke="#000000" points="0,-22.5 0,-54.5 110,-54.5 110,-22.5 0,-22.5"/>
<text text-anchor="start" x="8" y="-41.5" font-family="FreeSans" font-size="10.00" fill="#000000">SvtxEvalStack::set</text>
<text text-anchor="middle" x="55" y="-29.5" font-family="FreeSans" font-size="10.00" fill="#000000">_verbosity</text>
</g>
<!-- Node2 -->
<g id="node2" class="node">
<title>Node2</title>
<g id="a_node2"><a xlink:href="../../d6/d11/classSvtxEvaluator.html#ac66ea4145deb621d9e4fb38cf852dc33" target="_top" xlink:title="SvtxEvaluator::process\l_event">
<polygon fill="none" stroke="#000000" points="156,-45.5 156,-77.5 288,-77.5 288,-45.5 156,-45.5"/>
<text text-anchor="start" x="164" y="-64.5" font-family="FreeSans" font-size="10.00" fill="#000000">SvtxEvaluator::process</text>
<text text-anchor="middle" x="222" y="-52.5" font-family="FreeSans" font-size="10.00" fill="#000000">_event</text>
</a>
</g>
</g>
<!-- Node1&#45;&gt;Node2 -->
<g id="edge1" class="edge">
<title>Node1&#45;&gt;Node2</title>
<path fill="none" stroke="#191970" d="M120.2677,-47.489C131.9618,-49.0995 144.1574,-50.7792 155.8754,-52.393"/>
<polygon fill="#191970" stroke="#191970" points="120.5289,-43.992 110.1449,-46.0948 119.5738,-50.9265 120.5289,-43.992"/>
</g>
<!-- Node3 -->
<g id="node3" class="node">
<title>Node3</title>
<g id="a_node3"><a xlink:href="../../d3/d22/classJetTruthEval.html#ae2c0ff4358c7ccc3cc1c8230656788a2" target="_top" xlink:title="adjust the messaging from the evalutaion module">
<polygon fill="none" stroke="#000000" points="146,-6.5 146,-26.5 298,-26.5 298,-6.5 146,-6.5"/>
<text text-anchor="middle" x="222" y="-13.5" font-family="FreeSans" font-size="10.00" fill="#000000">JetTruthEval::set_verbosity</text>
</a>
</g>
</g>
<!-- Node1&#45;&gt;Node3 -->
<g id="edge2" class="edge">
<title>Node1&#45;&gt;Node3</title>
<path fill="none" stroke="#191970" d="M120.2931,-29.8985C128.7393,-28.7858 137.4468,-27.6387 146.0466,-26.5058"/>
<polygon fill="#191970" stroke="#191970" points="119.6021,-26.4592 110.1449,-31.2354 120.5164,-33.3993 119.6021,-26.4592"/>
</g>
<!-- Node4 -->
<g id="node4" class="node">
<title>Node4</title>
<g id="a_node4"><a xlink:href="../../dd/d75/classJetRecoEval.html#a3f012a8be0d53f5520bb74ca1fe6b319" target="_top" xlink:title="adjust the messaging from the evalutaion module">
<polygon fill="none" stroke="#000000" points="334,-6.5 334,-26.5 484,-26.5 484,-6.5 334,-6.5"/>
<text text-anchor="middle" x="409" y="-13.5" font-family="FreeSans" font-size="10.00" fill="#000000">JetRecoEval::set_verbosity</text>
</a>
</g>
</g>
<!-- Node3&#45;&gt;Node4 -->
<g id="edge3" class="edge">
<title>Node3&#45;&gt;Node4</title>
<path fill="none" stroke="#191970" d="M308.1162,-16.5C316.7305,-16.5 325.4289,-16.5 333.9165,-16.5"/>
<polygon fill="#191970" stroke="#191970" points="308.0601,-13.0001 298.0601,-16.5 308.06,-20.0001 308.0601,-13.0001"/>
</g>
<!-- Node5 -->
<g id="node5" class="node">
<title>Node5</title>
<g id="a_node5"><a xlink:href="../../dd/df3/classJetEvalStack.html#a8793633ca70ac30154989399a07cf8de" target="_top" xlink:title="JetEvalStack::set_verbosity">
<polygon fill="none" stroke="#000000" points="520,-6.5 520,-26.5 674,-26.5 674,-6.5 520,-6.5"/>
<text text-anchor="middle" x="597" y="-13.5" font-family="FreeSans" font-size="10.00" fill="#000000">JetEvalStack::set_verbosity</text>
</a>
</g>
</g>
<!-- Node4&#45;&gt;Node5 -->
<g id="edge4" class="edge">
<title>Node4&#45;&gt;Node5</title>
<path fill="none" stroke="#191970" d="M494.1174,-16.5C502.6933,-16.5 511.3686,-16.5 519.8545,-16.5"/>
<polygon fill="#191970" stroke="#191970" points="494.1131,-13.0001 484.1131,-16.5 494.113,-20.0001 494.1131,-13.0001"/>
</g>
<!-- Node6 -->
<g id="node6" class="node">
<title>Node6</title>
<g id="a_node6"><a xlink:href="../../d1/df4/classJetEvaluator.html#ad83508ae828d1f2e4a83a948465a0cd2" target="_top" xlink:title="JetEvaluator::process\l_event">
<polygon fill="none" stroke="#000000" points="710,-.5 710,-32.5 834,-32.5 834,-.5 710,-.5"/>
<text text-anchor="start" x="718" y="-19.5" font-family="FreeSans" font-size="10.00" fill="#000000">JetEvaluator::process</text>
<text text-anchor="middle" x="772" y="-7.5" font-family="FreeSans" font-size="10.00" fill="#000000">_event</text>
</a>
</g>
</g>
<!-- Node5&#45;&gt;Node6 -->
<g id="edge5" class="edge">
<title>Node5&#45;&gt;Node6</title>
<path fill="none" stroke="#191970" d="M684.1909,-16.5C692.8807,-16.5 701.5746,-16.5 709.9297,-16.5"/>
<polygon fill="#191970" stroke="#191970" points="684.0122,-13.0001 674.0122,-16.5 684.0122,-20.0001 684.0122,-13.0001"/>
</g>
</g>
</svg>
