<?xml version="1.0" encoding="UTF-8" standalone="no"?>
<!DOCTYPE svg PUBLIC "-//W3C//DTD SVG 1.1//EN"
 "http://www.w3.org/Graphics/SVG/1.1/DTD/svg11.dtd">
<!-- Generated by graphviz version 2.40.1 (20161225.0304)
 -->
<!-- Title: SvtxEvaluator::scan_for_embedded Pages: 1 -->
<svg width="304pt" height="68pt"
 viewBox="0.00 0.00 304.00 68.00" xmlns="http://www.w3.org/2000/svg" xmlns:xlink="http://www.w3.org/1999/xlink">
<g id="graph0" class="graph" transform="scale(1 1) rotate(0) translate(4 64)">
<title>SvtxEvaluator::scan_for_embedded</title>
<!-- Node1 -->
<g id="node1" class="node">
<title>Node1</title>
<polygon fill="#bfbfbf" stroke="#000000" points="0,-13.5 0,-45.5 116,-45.5 116,-13.5 0,-13.5"/>
<text text-anchor="start" x="8" y="-32.5" font-family="FreeSans" font-size="10.00" fill="#000000">SvtxEvaluator::scan</text>
<text text-anchor="middle" x="58" y="-20.5" font-family="FreeSans" font-size="10.00" fill="#000000">_for_embedded</text>
</g>
<!-- Node2 -->
<g id="node2" class="node">
<title>Node2</title>
<g id="a_node2"><a xlink:href="../../de/da9/ReadClustersRunTracking_8C.html#ae0216e7ee610ee6cb8ebc2392d00431b" target="_top" xlink:title="ReadClustersRunTracking">
<polygon fill="none" stroke="#000000" points="152,-39.5 152,-59.5 296,-59.5 296,-39.5 152,-39.5"/>
<text text-anchor="middle" x="224" y="-46.5" font-family="FreeSans" font-size="10.00" fill="#000000">ReadClustersRunTracking</text>
</a>
</g>
</g>
<!-- Node1&#45;&gt;Node2 -->
<g id="edge1" class="edge">
<title>Node1&#45;&gt;Node2</title>
<path fill="none" stroke="#191970" d="M125.9877,-37.6913C134.5514,-38.7231 143.3358,-39.7814 151.9594,-40.8204"/>
<polygon fill="#191970" stroke="#191970" points="126.4056,-34.2164 116.0587,-36.495 125.5683,-41.1662 126.4056,-34.2164"/>
</g>
<!-- Node3 -->
<g id="node3" class="node">
<title>Node3</title>
<g id="a_node3"><a xlink:href="../../da/d3c/G4__Tracking_8C.html#ae9df33fc97bec89b2ab88ec6ea2b8ef6" target="_top" xlink:title="Tracking_Eval">
<polygon fill="none" stroke="#000000" points="181,-.5 181,-20.5 267,-20.5 267,-.5 181,-.5"/>
<text text-anchor="middle" x="224" y="-7.5" font-family="FreeSans" font-size="10.00" fill="#000000">Tracking_Eval</text>
</a>
</g>
</g>
<!-- Node1&#45;&gt;Node3 -->
<g id="edge2" class="edge">
<title>Node1&#45;&gt;Node3</title>
<path fill="none" stroke="#191970" d="M126.2039,-21.6935C144.6966,-19.5769 164.202,-17.3443 180.8864,-15.4347"/>
<polygon fill="#191970" stroke="#191970" points="125.5958,-18.2402 116.0587,-22.8547 126.3919,-25.1948 125.5958,-18.2402"/>
</g>
</g>
</svg>
