<?xml version="1.0" encoding="UTF-8" standalone="no"?>
<!DOCTYPE svg PUBLIC "-//W3C//DTD SVG 1.1//EN"
 "http://www.w3.org/Graphics/SVG/1.1/DTD/svg11.dtd">
<!-- Generated by graphviz version 2.40.1 (20161225.0304)
 -->
<!-- Title: TrkrHitSet::getHitSetKey Pages: 1 -->
<svg width="870pt" height="247pt"
 viewBox="0.00 0.00 870.00 247.00" xmlns="http://www.w3.org/2000/svg" xmlns:xlink="http://www.w3.org/1999/xlink">
<g id="graph0" class="graph" transform="scale(1 1) rotate(0) translate(4 243)">
<title>TrkrHitSet::getHitSetKey</title>
<!-- Node1 -->
<g id="node1" class="node">
<title>Node1</title>
<polygon fill="#bfbfbf" stroke="#000000" points="0,-129.5 0,-149.5 140,-149.5 140,-129.5 0,-129.5"/>
<text text-anchor="middle" x="70" y="-136.5" font-family="FreeSans" font-size="10.00" fill="#000000">TrkrHitSet::getHitSetKey</text>
</g>
<!-- Node2 -->
<g id="node2" class="node">
<title>Node2</title>
<g id="a_node2"><a xlink:href="../../d5/d76/classTrkrHitSetContainer.html#a2567a166e32460d6b765c81b123dd27d" target="_top" xlink:title="Add a TrkrHitSet to the container.">
<polygon fill="none" stroke="#000000" points="176,-206.5 176,-238.5 293,-238.5 293,-206.5 176,-206.5"/>
<text text-anchor="start" x="184" y="-225.5" font-family="FreeSans" font-size="10.00" fill="#000000">TrkrHitSetContainer</text>
<text text-anchor="middle" x="234.5" y="-213.5" font-family="FreeSans" font-size="10.00" fill="#000000">::addHitSet</text>
</a>
</g>
</g>
<!-- Node1&#45;&gt;Node2 -->
<g id="edge1" class="edge">
<title>Node1&#45;&gt;Node2</title>
<path fill="none" stroke="#191970" d="M99.0648,-154.1649C128.1422,-168.8362 172.7462,-191.3415 202.7401,-206.4753"/>
<polygon fill="#191970" stroke="#191970" points="100.3471,-150.8917 89.8425,-149.5117 97.1938,-157.1412 100.3471,-150.8917"/>
</g>
<!-- Node3 -->
<g id="node3" class="node">
<title>Node3</title>
<g id="a_node3"><a xlink:href="../../d5/d86/classInttClusterizer.html#aa896d5f1adf8ac34a5ae766fd4d557bc" target="_top" xlink:title="InttClusterizer::Cluster\lLadderCells">
<polygon fill="none" stroke="#000000" points="345,-168.5 345,-200.5 475,-200.5 475,-168.5 345,-168.5"/>
<text text-anchor="start" x="353" y="-187.5" font-family="FreeSans" font-size="10.00" fill="#000000">InttClusterizer::Cluster</text>
<text text-anchor="middle" x="410" y="-175.5" font-family="FreeSans" font-size="10.00" fill="#000000">LadderCells</text>
</a>
</g>
</g>
<!-- Node1&#45;&gt;Node3 -->
<g id="edge2" class="edge">
<title>Node1&#45;&gt;Node3</title>
<path fill="none" stroke="#191970" d="M150.1306,-150.1055C209.5338,-157.9677 289.4843,-168.5494 344.9501,-175.8904"/>
<polygon fill="#191970" stroke="#191970" points="150.4088,-146.6119 140.036,-148.7695 149.4903,-153.5514 150.4088,-146.6119"/>
</g>
<!-- Node5 -->
<g id="node5" class="node">
<title>Node5</title>
<g id="a_node5"><a xlink:href="../../dc/d12/classMvtxClusterizer.html#a1aa96e33d67d25815d5b5812566cc5b7" target="_top" xlink:title="MvtxClusterizer::ClusterMvtx">
<polygon fill="none" stroke="#000000" points="329,-129.5 329,-149.5 491,-149.5 491,-129.5 329,-129.5"/>
<text text-anchor="middle" x="410" y="-136.5" font-family="FreeSans" font-size="10.00" fill="#000000">MvtxClusterizer::ClusterMvtx</text>
</a>
</g>
</g>
<!-- Node1&#45;&gt;Node5 -->
<g id="edge4" class="edge">
<title>Node1&#45;&gt;Node5</title>
<path fill="none" stroke="#191970" d="M150.221,-139.5C204.0295,-139.5 274.6665,-139.5 328.6983,-139.5"/>
<polygon fill="#191970" stroke="#191970" points="150.036,-136.0001 140.036,-139.5 150.0359,-143.0001 150.036,-136.0001"/>
</g>
<!-- Node7 -->
<g id="node7" class="node">
<title>Node7</title>
<g id="a_node7"><a xlink:href="../../d9/dc1/classTrkrHitSet.html#af1ecf88b6afbf636a82d40b56020089a" target="_top" xlink:title="TObject functions.">
<polygon fill="none" stroke="#000000" points="178.5,-90.5 178.5,-110.5 290.5,-110.5 290.5,-90.5 178.5,-90.5"/>
<text text-anchor="middle" x="234.5" y="-97.5" font-family="FreeSans" font-size="10.00" fill="#000000">TrkrHitSet::identify</text>
</a>
</g>
</g>
<!-- Node1&#45;&gt;Node7 -->
<g id="edge6" class="edge">
<title>Node1&#45;&gt;Node7</title>
<path fill="none" stroke="#191970" d="M122.1461,-127.1371C144.765,-121.7746 170.9075,-115.5766 192.2807,-110.5094"/>
<polygon fill="#191970" stroke="#191970" points="121.2857,-123.744 112.3628,-129.4565 122.9006,-130.5552 121.2857,-123.744"/>
</g>
<!-- Node8 -->
<g id="node8" class="node">
<title>Node8</title>
<g id="a_node8"><a xlink:href="../../de/d25/classTpcClusterizer.html#a8dd29d5451a29cd488440e096a9f53d1" target="_top" xlink:title="TpcClusterizer::process\l_event">
<polygon fill="none" stroke="#000000" points="342.5,-.5 342.5,-32.5 477.5,-32.5 477.5,-.5 342.5,-.5"/>
<text text-anchor="start" x="350.5" y="-19.5" font-family="FreeSans" font-size="10.00" fill="#000000">TpcClusterizer::process</text>
<text text-anchor="middle" x="410" y="-7.5" font-family="FreeSans" font-size="10.00" fill="#000000">_event</text>
</a>
</g>
</g>
<!-- Node1&#45;&gt;Node8 -->
<g id="edge16" class="edge">
<title>Node1&#45;&gt;Node8</title>
<path fill="none" stroke="#191970" d="M93.7709,-124.0773C114.7278,-111.0224 146.4433,-92.561 176,-80.5 230.301,-58.3418 294.7636,-41.3532 342.2666,-30.4663"/>
<polygon fill="#191970" stroke="#191970" points="91.8024,-121.1808 85.2158,-129.4795 95.5399,-127.0996 91.8024,-121.1808"/>
</g>
<!-- Node4 -->
<g id="node4" class="node">
<title>Node4</title>
<g id="a_node4"><a xlink:href="../../d5/d86/classInttClusterizer.html#abd6df1fa3454cf1d42afb35c6d6a0073" target="_top" xlink:title="event processing">
<polygon fill="none" stroke="#000000" points="535,-180.5 535,-212.5 668,-212.5 668,-180.5 535,-180.5"/>
<text text-anchor="start" x="543" y="-199.5" font-family="FreeSans" font-size="10.00" fill="#000000">InttClusterizer::process</text>
<text text-anchor="middle" x="601.5" y="-187.5" font-family="FreeSans" font-size="10.00" fill="#000000">_event</text>
</a>
</g>
</g>
<!-- Node3&#45;&gt;Node4 -->
<g id="edge3" class="edge">
<title>Node3&#45;&gt;Node4</title>
<path fill="none" stroke="#191970" d="M485.1984,-189.2122C501.6218,-190.2413 518.8917,-191.3235 534.9499,-192.3298"/>
<polygon fill="#191970" stroke="#191970" points="485.2997,-185.7117 475.1004,-188.5794 484.8619,-192.698 485.2997,-185.7117"/>
</g>
<!-- Node6 -->
<g id="node6" class="node">
<title>Node6</title>
<g id="a_node6"><a xlink:href="../../dc/d12/classMvtxClusterizer.html#a2b88d21ed3595b07eb7f807003ec2843" target="_top" xlink:title="event processing">
<polygon fill="none" stroke="#000000" points="531.5,-129.5 531.5,-161.5 671.5,-161.5 671.5,-129.5 531.5,-129.5"/>
<text text-anchor="start" x="539.5" y="-148.5" font-family="FreeSans" font-size="10.00" fill="#000000">MvtxClusterizer::process</text>
<text text-anchor="middle" x="601.5" y="-136.5" font-family="FreeSans" font-size="10.00" fill="#000000">_event</text>
</a>
</g>
</g>
<!-- Node5&#45;&gt;Node6 -->
<g id="edge5" class="edge">
<title>Node5&#45;&gt;Node6</title>
<path fill="none" stroke="#191970" d="M501.2845,-142.3601C511.3947,-142.6769 521.5715,-142.9957 531.3626,-143.3025"/>
<polygon fill="#191970" stroke="#191970" points="501.318,-138.8595 491.2132,-142.0445 501.0987,-145.8561 501.318,-138.8595"/>
</g>
<!-- Node7&#45;&gt;Node3 -->
<g id="edge7" class="edge">
<title>Node7&#45;&gt;Node3</title>
<path fill="none" stroke="#191970" d="M256.6128,-116.6121C275.1992,-129.5774 302.8476,-147.5457 329,-159.5 336.094,-162.7427 343.7225,-165.7143 351.3601,-168.388"/>
<polygon fill="#191970" stroke="#191970" points="258.4461,-113.6217 248.2628,-110.6976 254.4,-119.3338 258.4461,-113.6217"/>
</g>
<!-- Node7&#45;&gt;Node5 -->
<g id="edge8" class="edge">
<title>Node7&#45;&gt;Node5</title>
<path fill="none" stroke="#191970" d="M289.4847,-112.7188C313.7638,-118.1142 341.9507,-124.3779 364.9575,-129.4906"/>
<polygon fill="#191970" stroke="#191970" points="290.2168,-109.2962 279.6956,-110.5435 288.6982,-116.1295 290.2168,-109.2962"/>
</g>
<!-- Node7&#45;&gt;Node8 -->
<g id="edge9" class="edge">
<title>Node7&#45;&gt;Node8</title>
<path fill="none" stroke="#191970" d="M256.6128,-84.3879C275.1992,-71.4226 302.8476,-53.4543 329,-41.5 336.094,-38.2573 343.7225,-35.2857 351.3601,-32.612"/>
<polygon fill="#191970" stroke="#191970" points="254.4,-81.6662 248.2628,-90.3024 258.4461,-87.3783 254.4,-81.6662"/>
</g>
<!-- Node9 -->
<g id="node9" class="node">
<title>Node9</title>
<g id="a_node9"><a xlink:href="../../d9/dc1/classTrkrHitSet.html#a342a246e983e0d16e794cee8bb4fef99" target="_top" xlink:title="TrkrHitSet::print">
<polygon fill="none" stroke="#000000" points="361,-51.5 361,-71.5 459,-71.5 459,-51.5 361,-51.5"/>
<text text-anchor="middle" x="410" y="-58.5" font-family="FreeSans" font-size="10.00" fill="#000000">TrkrHitSet::print</text>
</a>
</g>
</g>
<!-- Node7&#45;&gt;Node9 -->
<g id="edge10" class="edge">
<title>Node7&#45;&gt;Node9</title>
<path fill="none" stroke="#191970" d="M289.4847,-88.2812C313.7638,-82.8858 341.9507,-76.6221 364.9575,-71.5094"/>
<polygon fill="#191970" stroke="#191970" points="288.6982,-84.8705 279.6956,-90.4565 290.2168,-91.7038 288.6982,-84.8705"/>
</g>
<!-- Node10 -->
<g id="node10" class="node">
<title>Node10</title>
<g id="a_node10"><a xlink:href="../../d9/dc1/classTrkrHitSet.html#a65f3c9f0e92bb01592fc44975b19fd8e" target="_top" xlink:title="Remove a hit using its key.">
<polygon fill="none" stroke="#000000" points="346.5,-90.5 346.5,-110.5 473.5,-110.5 473.5,-90.5 346.5,-90.5"/>
<text text-anchor="middle" x="410" y="-97.5" font-family="FreeSans" font-size="10.00" fill="#000000">TrkrHitSet::removeHit</text>
</a>
</g>
</g>
<!-- Node7&#45;&gt;Node10 -->
<g id="edge11" class="edge">
<title>Node7&#45;&gt;Node10</title>
<path fill="none" stroke="#191970" d="M300.6876,-100.5C315.6245,-100.5 331.45,-100.5 346.2827,-100.5"/>
<polygon fill="#191970" stroke="#191970" points="300.5119,-97.0001 290.5118,-100.5 300.5118,-104.0001 300.5119,-97.0001"/>
</g>
<!-- Node11 -->
<g id="node11" class="node">
<title>Node11</title>
<g id="a_node11"><a xlink:href="../../d5/d21/classPHG4MvtxDigitizer.html#a0d6851617a0a95e6cfab450d5e8534b2" target="_top" xlink:title="PHG4MvtxDigitizer::\lDigitizeMvtxLadderCells">
<polygon fill="none" stroke="#000000" points="532.5,-78.5 532.5,-110.5 670.5,-110.5 670.5,-78.5 532.5,-78.5"/>
<text text-anchor="start" x="540.5" y="-97.5" font-family="FreeSans" font-size="10.00" fill="#000000">PHG4MvtxDigitizer::</text>
<text text-anchor="middle" x="601.5" y="-85.5" font-family="FreeSans" font-size="10.00" fill="#000000">DigitizeMvtxLadderCells</text>
</a>
</g>
</g>
<!-- Node10&#45;&gt;Node11 -->
<g id="edge12" class="edge">
<title>Node10&#45;&gt;Node11</title>
<path fill="none" stroke="#191970" d="M483.8169,-98.1872C499.7328,-97.6885 516.5032,-97.1631 532.2377,-96.6701"/>
<polygon fill="#191970" stroke="#191970" points="483.3862,-94.6989 473.5007,-98.5104 483.6055,-101.6954 483.3862,-94.6989"/>
</g>
<!-- Node13 -->
<g id="node13" class="node">
<title>Node13</title>
<g id="a_node13"><a xlink:href="../../d1/dc5/classPHG4TpcDigitizer.html#a885fb5ebbc80c8a2ed915f762b90ad79" target="_top" xlink:title="PHG4TpcDigitizer::Digitize\lCylinderCells">
<polygon fill="none" stroke="#000000" points="527,-27.5 527,-59.5 676,-59.5 676,-27.5 527,-27.5"/>
<text text-anchor="start" x="535" y="-46.5" font-family="FreeSans" font-size="10.00" fill="#000000">PHG4TpcDigitizer::Digitize</text>
<text text-anchor="middle" x="601.5" y="-34.5" font-family="FreeSans" font-size="10.00" fill="#000000">CylinderCells</text>
</a>
</g>
</g>
<!-- Node10&#45;&gt;Node13 -->
<g id="edge14" class="edge">
<title>Node10&#45;&gt;Node13</title>
<path fill="none" stroke="#191970" d="M463.3681,-87.975C472.6161,-85.6187 482.1126,-83.0805 491,-80.5 492.6757,-80.0134 524.6548,-69.2997 553.7795,-59.5263"/>
<polygon fill="#191970" stroke="#191970" points="462.3212,-84.6291 453.4711,-90.4538 464.0219,-91.4193 462.3212,-84.6291"/>
</g>
<!-- Node12 -->
<g id="node12" class="node">
<title>Node12</title>
<g id="a_node12"><a xlink:href="../../d5/d21/classPHG4MvtxDigitizer.html#a44e5c36ab4feebccbeffbfca87e7e35c" target="_top" xlink:title="event processing">
<polygon fill="none" stroke="#000000" points="728.5,-78.5 728.5,-110.5 845.5,-110.5 845.5,-78.5 728.5,-78.5"/>
<text text-anchor="start" x="736.5" y="-97.5" font-family="FreeSans" font-size="10.00" fill="#000000">PHG4MvtxDigitizer::</text>
<text text-anchor="middle" x="787" y="-85.5" font-family="FreeSans" font-size="10.00" fill="#000000">process_event</text>
</a>
</g>
</g>
<!-- Node11&#45;&gt;Node12 -->
<g id="edge13" class="edge">
<title>Node11&#45;&gt;Node12</title>
<path fill="none" stroke="#191970" d="M680.9073,-94.5C696.7802,-94.5 713.1855,-94.5 728.2111,-94.5"/>
<polygon fill="#191970" stroke="#191970" points="680.5734,-91.0001 670.5734,-94.5 680.5733,-98.0001 680.5734,-91.0001"/>
</g>
<!-- Node14 -->
<g id="node14" class="node">
<title>Node14</title>
<g id="a_node14"><a xlink:href="../../d1/dc5/classPHG4TpcDigitizer.html#a3a1281c04ddb169c704cc2c03a327e04" target="_top" xlink:title="event processing">
<polygon fill="none" stroke="#000000" points="712,-27.5 712,-59.5 862,-59.5 862,-27.5 712,-27.5"/>
<text text-anchor="start" x="720" y="-46.5" font-family="FreeSans" font-size="10.00" fill="#000000">PHG4TpcDigitizer::process</text>
<text text-anchor="middle" x="787" y="-34.5" font-family="FreeSans" font-size="10.00" fill="#000000">_event</text>
</a>
</g>
</g>
<!-- Node13&#45;&gt;Node14 -->
<g id="edge15" class="edge">
<title>Node13&#45;&gt;Node14</title>
<path fill="none" stroke="#191970" d="M686.165,-43.5C694.7495,-43.5 703.427,-43.5 711.9005,-43.5"/>
<polygon fill="#191970" stroke="#191970" points="686.1481,-40.0001 676.1481,-43.5 686.1481,-47.0001 686.1481,-40.0001"/>
</g>
</g>
</svg>
