<?xml version="1.0" encoding="UTF-8" standalone="no"?>
<!DOCTYPE svg PUBLIC "-//W3C//DTD SVG 1.1//EN"
 "http://www.w3.org/Graphics/SVG/1.1/DTD/svg11.dtd">
<!-- Generated by graphviz version 2.40.1 (20161225.0304)
 -->
<!-- Title: BuildEphoenix Pages: 1 -->
<svg width="479pt" height="170pt"
 viewBox="0.00 0.00 479.00 170.00" xmlns="http://www.w3.org/2000/svg" xmlns:xlink="http://www.w3.org/1999/xlink">
<g id="graph0" class="graph" transform="scale(1 1) rotate(0) translate(4 166)">
<title>BuildEphoenix</title>
<!-- Node1 -->
<g id="node1" class="node">
<title>Node1</title>
<polygon fill="#bfbfbf" stroke="#000000" points="0,-73.5 0,-93.5 89,-93.5 89,-73.5 0,-73.5"/>
<text text-anchor="middle" x="44.5" y="-80.5" font-family="FreeSans" font-size="10.00" fill="#000000">BuildEphoenix</text>
</g>
<!-- Node2 -->
<g id="node2" class="node">
<title>Node2</title>
<g id="a_node2"><a xlink:href="../../d2/d7d/classSmear_1_1Detector.html#a24002b3325179692dcf687c9ac6ef4f4" target="_top" xlink:title="Smear::Detector::AddDevice">
<polygon fill="none" stroke="#000000" points="133,-141.5 133,-161.5 293,-161.5 293,-141.5 133,-141.5"/>
<text text-anchor="middle" x="213" y="-148.5" font-family="FreeSans" font-size="10.00" fill="#000000">Smear::Detector::AddDevice</text>
</a>
</g>
</g>
<!-- Node1&#45;&gt;Node2 -->
<g id="edge1" class="edge">
<title>Node1&#45;&gt;Node2</title>
<path fill="none" stroke="#191970" d="M57.9996,-93.6777C73.4158,-104.8186 99.775,-122.4331 125,-132.5 130.9064,-134.8572 137.1583,-136.945 143.4966,-138.7896"/>
<polygon fill="#191970" stroke="#191970" points="142.9237,-142.2603 153.4907,-141.4917 144.7508,-135.5029 142.9237,-142.2603"/>
</g>
<!-- Node4 -->
<g id="node4" class="node">
<title>Node4</title>
<g id="a_node4"><a xlink:href="../../d2/d55/classSmear_1_1Acceptance.html#a77ce79bbc82ad642fc2da89768b1a064" target="_top" xlink:title="Smear::Acceptance::\lAddZone">
<polygon fill="none" stroke="#000000" points="153,-90.5 153,-122.5 273,-122.5 273,-90.5 153,-90.5"/>
<text text-anchor="start" x="161" y="-109.5" font-family="FreeSans" font-size="10.00" fill="#000000">Smear::Acceptance::</text>
<text text-anchor="middle" x="213" y="-97.5" font-family="FreeSans" font-size="10.00" fill="#000000">AddZone</text>
</a>
</g>
</g>
<!-- Node1&#45;&gt;Node4 -->
<g id="edge3" class="edge">
<title>Node1&#45;&gt;Node4</title>
<path fill="none" stroke="#191970" d="M89.2125,-89.6032C105.6653,-91.849 124.7197,-94.4499 142.8736,-96.9278"/>
<polygon fill="#191970" stroke="#191970" points="142.4626,-100.4041 152.8441,-98.2888 143.4094,-93.4684 142.4626,-100.4041"/>
</g>
<!-- Node5 -->
<g id="node5" class="node">
<title>Node5</title>
<g id="a_node5"><a xlink:href="../../d2/d4a/classEPhenixMomentum.html#a3221f4ff0709ffe46ff64326d8f419d8" target="_top" xlink:title="EPhenixMomentum::etaToTheta">
<polygon fill="none" stroke="#000000" points="125,-51.5 125,-71.5 301,-71.5 301,-51.5 125,-51.5"/>
<text text-anchor="middle" x="213" y="-58.5" font-family="FreeSans" font-size="10.00" fill="#000000">EPhenixMomentum::etaToTheta</text>
</a>
</g>
</g>
<!-- Node1&#45;&gt;Node5 -->
<g id="edge4" class="edge">
<title>Node1&#45;&gt;Node5</title>
<path fill="none" stroke="#191970" d="M89.2125,-77.6622C100.5985,-76.1756 113.2304,-74.5263 125.9475,-72.8659"/>
<polygon fill="#191970" stroke="#191970" points="126.6798,-76.3001 136.1425,-71.5348 125.7735,-69.359 126.6798,-76.3001"/>
</g>
<!-- Node6 -->
<g id="node6" class="node">
<title>Node6</title>
<g id="a_node6"><a xlink:href="../../d2/d7d/classSmear_1_1Detector.html#a5b428e506b13f0d13c8604f3906339da" target="_top" xlink:title="Smear::Detector::SetEvent\lKinematicsCalculator">
<polygon fill="none" stroke="#000000" points="137,-.5 137,-32.5 289,-32.5 289,-.5 137,-.5"/>
<text text-anchor="start" x="145" y="-19.5" font-family="FreeSans" font-size="10.00" fill="#000000">Smear::Detector::SetEvent</text>
<text text-anchor="middle" x="213" y="-7.5" font-family="FreeSans" font-size="10.00" fill="#000000">KinematicsCalculator</text>
</a>
</g>
</g>
<!-- Node1&#45;&gt;Node6 -->
<g id="edge5" class="edge">
<title>Node1&#45;&gt;Node6</title>
<path fill="none" stroke="#191970" d="M61.9689,-73.4182C77.9888,-64.4614 102.5623,-51.4405 125,-42.5 130.9243,-40.1394 137.1475,-37.8813 143.4315,-35.7514"/>
<polygon fill="#191970" stroke="#191970" points="144.9071,-38.9512 153.3218,-32.5136 142.7292,-32.2986 144.9071,-38.9512"/>
</g>
<!-- Node3 -->
<g id="node3" class="node">
<title>Node3</title>
<g id="a_node3"><a xlink:href="../../d1/d9f/classSmear_1_1Smearer.html#ab7f0eb6bd118335376b94d622c2f74f5" target="_top" xlink:title="Smear::Smearer::Clone">
<polygon fill="none" stroke="#000000" points="337,-141.5 337,-161.5 471,-161.5 471,-141.5 337,-141.5"/>
<text text-anchor="middle" x="404" y="-148.5" font-family="FreeSans" font-size="10.00" fill="#000000">Smear::Smearer::Clone</text>
</a>
</g>
</g>
<!-- Node2&#45;&gt;Node3 -->
<g id="edge2" class="edge">
<title>Node2&#45;&gt;Node3</title>
<path fill="none" stroke="#191970" d="M293.171,-151.5C304.2699,-151.5 315.6525,-151.5 326.6978,-151.5"/>
<polygon fill="#191970" stroke="#191970" points="326.7288,-155.0001 336.7288,-151.5 326.7287,-148.0001 326.7288,-155.0001"/>
</g>
</g>
</svg>
