<?xml version="1.0" encoding="UTF-8" standalone="no"?>
<!DOCTYPE svg PUBLIC "-//W3C//DTD SVG 1.1//EN"
 "http://www.w3.org/Graphics/SVG/1.1/DTD/svg11.dtd">
<!-- Generated by graphviz version 2.40.1 (20161225.0304)
 -->
<!-- Title: fun4all_coresoftware/blob/master/simulation/g4simulation/g4detectors/BeamLineMagnetDetector.cc Pages: 1 -->
<svg width="4637pt" height="293pt"
 viewBox="0.00 0.00 4636.50 293.00" xmlns="http://www.w3.org/2000/svg" xmlns:xlink="http://www.w3.org/1999/xlink">
<g id="graph0" class="graph" transform="scale(1 1) rotate(0) translate(4 289)">
<title>fun4all_coresoftware/blob/master/simulation/g4simulation/g4detectors/BeamLineMagnetDetector.cc</title>
<!-- Node1 -->
<g id="node1" class="node">
<title>Node1</title>
<polygon fill="#bfbfbf" stroke="#000000" points="2127,-228.5 2127,-284.5 2292,-284.5 2292,-228.5 2127,-228.5"/>
<text text-anchor="start" x="2135" y="-271.5" font-family="FreeSans" font-size="10.00" fill="#000000">fun4all_coresoftware</text>
<text text-anchor="start" x="2135" y="-259.5" font-family="FreeSans" font-size="10.00" fill="#000000">/blob/master/simulation</text>
<text text-anchor="start" x="2135" y="-247.5" font-family="FreeSans" font-size="10.00" fill="#000000">/g4simulation/g4detectors</text>
<text text-anchor="middle" x="2209.5" y="-235.5" font-family="FreeSans" font-size="10.00" fill="#000000">/BeamLineMagnetDetector.cc</text>
</g>
<!-- Node2 -->
<g id="node2" class="node">
<title>Node2</title>
<g id="a_node2"><a xlink:href="../../d8/d94/BeamLineMagnetDetector_8h.html" target="_top" xlink:title="BeamLineMagnetDetector.h">
<polygon fill="none" stroke="#000000" points="163.5,-171.5 163.5,-191.5 319.5,-191.5 319.5,-171.5 163.5,-171.5"/>
<text text-anchor="middle" x="241.5" y="-178.5" font-family="FreeSans" font-size="10.00" fill="#000000">BeamLineMagnetDetector.h</text>
</a>
</g>
</g>
<!-- Node1&#45;&gt;Node2 -->
<g id="edge1" class="edge">
<title>Node1&#45;&gt;Node2</title>
<path fill="none" stroke="#191970" d="M2126.6241,-255.9922C1863.7742,-253.8803 1025.333,-243.2917 333.5,-192 332.3778,-191.9168 331.2481,-191.8303 330.1123,-191.7407"/>
<polygon fill="#191970" stroke="#191970" points="330.0179,-188.2201 319.757,-190.8587 329.4238,-195.1949 330.0179,-188.2201"/>
</g>
<!-- Node3 -->
<g id="node3" class="node">
<title>Node3</title>
<g id="a_node3"><a xlink:href="../../dd/dcc/PHG4Detector_8h.html" target="_top" xlink:title="g4main/PHG4Detector.h">
<polygon fill="none" stroke="#000000" points="96.5,-114.5 96.5,-134.5 234.5,-134.5 234.5,-114.5 96.5,-114.5"/>
<text text-anchor="middle" x="165.5" y="-121.5" font-family="FreeSans" font-size="10.00" fill="#000000">g4main/PHG4Detector.h</text>
</a>
</g>
</g>
<!-- Node1&#45;&gt;Node3 -->
<g id="edge14" class="edge">
<title>Node1&#45;&gt;Node3</title>
<path fill="none" stroke="#191970" d="M2126.9868,-255.465C1747.7982,-250.5171 189.4034,-228.0161 154.5,-192 142.2992,-179.4102 147.8323,-158.8878 154.701,-143.7719"/>
<polygon fill="#191970" stroke="#191970" points="157.8685,-145.2635 159.2346,-134.7571 151.6148,-142.1184 157.8685,-145.2635"/>
</g>
<!-- Node4 -->
<g id="node4" class="node">
<title>Node4</title>
<polygon fill="none" stroke="#bfbfbf" points="0,-57.5 0,-77.5 161,-77.5 161,-57.5 0,-57.5"/>
<text text-anchor="middle" x="80.5" y="-64.5" font-family="FreeSans" font-size="10.00" fill="#000000">Geant4/G4RotationMatrix.hh</text>
</g>
<!-- Node1&#45;&gt;Node4 -->
<g id="edge40" class="edge">
<title>Node1&#45;&gt;Node4</title>
<path fill="none" stroke="#191970" d="M2126.9236,-255.6385C1753.3608,-251.5227 235.6963,-232.3708 143.5,-192 110.9682,-177.755 102.6249,-167.1321 87.5,-135 80.5318,-120.1963 79.0638,-101.5898 79.1792,-87.6629"/>
<polygon fill="#191970" stroke="#191970" points="82.6772,-87.7776 79.5363,-77.6591 75.6817,-87.5278 82.6772,-87.7776"/>
</g>
<!-- Node5 -->
<g id="node5" class="node">
<title>Node5</title>
<polygon fill="none" stroke="#bfbfbf" points="316.5,-57.5 316.5,-77.5 376.5,-77.5 376.5,-57.5 316.5,-57.5"/>
<text text-anchor="middle" x="346.5" y="-64.5" font-family="FreeSans" font-size="10.00" fill="#000000">iostream</text>
</g>
<!-- Node1&#45;&gt;Node5 -->
<g id="edge51" class="edge">
<title>Node1&#45;&gt;Node5</title>
<path fill="none" stroke="#191970" d="M2126.8591,-256.0805C1831.4696,-254.1568 828.7184,-243.8691 512.5,-192 424.239,-177.5226 373.0433,-206.643 319.5,-135 308.3835,-120.1257 318.9622,-100.0537 329.9711,-85.6711"/>
<polygon fill="#191970" stroke="#191970" points="332.6818,-87.8852 336.3418,-77.9426 327.2804,-83.4326 332.6818,-87.8852"/>
</g>
<!-- Node7 -->
<g id="node7" class="node">
<title>Node7</title>
<g id="a_node7"><a xlink:href="../../d6/d3d/BeamLineMagnetDisplayAction_8h.html" target="_top" xlink:title="BeamLineMagnetDisplayAction.h">
<polygon fill="none" stroke="#000000" points="826,-171.5 826,-191.5 1009,-191.5 1009,-171.5 826,-171.5"/>
<text text-anchor="middle" x="917.5" y="-178.5" font-family="FreeSans" font-size="10.00" fill="#000000">BeamLineMagnetDisplayAction.h</text>
</a>
</g>
</g>
<!-- Node1&#45;&gt;Node7 -->
<g id="edge7" class="edge">
<title>Node1&#45;&gt;Node7</title>
<path fill="none" stroke="#191970" d="M2126.7421,-253.4294C1934.376,-245.986 1441.9724,-225.1728 1019.116,-192.0124"/>
<polygon fill="#191970" stroke="#191970" points="1019.3843,-188.5228 1009.1404,-191.2268 1018.8347,-195.5012 1019.3843,-188.5228"/>
</g>
<!-- Node8 -->
<g id="node8" class="node">
<title>Node8</title>
<g id="a_node8"><a xlink:href="../../df/dad/PHG4DisplayAction_8h.html" target="_top" xlink:title="g4main/PHG4DisplayAction.h">
<polygon fill="none" stroke="#000000" points="834.5,-114.5 834.5,-134.5 998.5,-134.5 998.5,-114.5 834.5,-114.5"/>
<text text-anchor="middle" x="916.5" y="-121.5" font-family="FreeSans" font-size="10.00" fill="#000000">g4main/PHG4DisplayAction.h</text>
</a>
</g>
</g>
<!-- Node1&#45;&gt;Node8 -->
<g id="edge15" class="edge">
<title>Node1&#45;&gt;Node8</title>
<path fill="none" stroke="#191970" d="M2126.8456,-255.7827C1834.2803,-252.8446 862.8807,-239.5322 817.5,-192 795.7689,-169.2387 834.2911,-149.8073 869.4444,-137.7184"/>
<polygon fill="#191970" stroke="#191970" points="870.8097,-140.954 879.2172,-134.5068 868.6243,-134.3038 870.8097,-140.954"/>
</g>
<!-- Node11 -->
<g id="node11" class="node">
<title>Node11</title>
<polygon fill="none" stroke="#bfbfbf" points="1162.5,-171.5 1162.5,-191.5 1328.5,-191.5 1328.5,-171.5 1162.5,-171.5"/>
<text text-anchor="middle" x="1245.5" y="-178.5" font-family="FreeSans" font-size="10.00" fill="#000000">phparameter/PHParameters.h</text>
</g>
<!-- Node1&#45;&gt;Node11 -->
<g id="edge13" class="edge">
<title>Node1&#45;&gt;Node11</title>
<path fill="none" stroke="#191970" d="M2126.8493,-251.4436C1973.7616,-241.8444 1635.5071,-219.5413 1338.7324,-191.9878"/>
<polygon fill="#191970" stroke="#191970" points="1338.9181,-188.49 1328.6365,-191.0469 1338.2685,-195.4598 1338.9181,-188.49"/>
</g>
<!-- Node12 -->
<g id="node12" class="node">
<title>Node12</title>
<g id="a_node12"><a xlink:href="../../df/d1c/PHG4Subsystem_8h.html" target="_top" xlink:title="g4main/PHG4Subsystem.h">
<polygon fill="none" stroke="#000000" points="618,-171.5 618,-191.5 769,-191.5 769,-171.5 618,-171.5"/>
<text text-anchor="middle" x="693.5" y="-178.5" font-family="FreeSans" font-size="10.00" fill="#000000">g4main/PHG4Subsystem.h</text>
</a>
</g>
</g>
<!-- Node1&#45;&gt;Node12 -->
<g id="edge16" class="edge">
<title>Node1&#45;&gt;Node12</title>
<path fill="none" stroke="#191970" d="M2126.9884,-254.8146C1907.8707,-249.8958 1293.2805,-233.214 783.5,-192 782.03,-191.8812 780.547,-191.7569 779.0539,-191.6279"/>
<polygon fill="#191970" stroke="#191970" points="779.3619,-188.1415 769.0836,-190.712 778.7215,-195.1122 779.3619,-188.1415"/>
</g>
<!-- Node17 -->
<g id="node17" class="node">
<title>Node17</title>
<g id="a_node17"><a xlink:href="../../d6/d5e/PHG4Utils_8h.html" target="_top" xlink:title="g4main/PHG4Utils.h">
<polygon fill="none" stroke="#000000" points="1027,-171.5 1027,-191.5 1144,-191.5 1144,-171.5 1027,-171.5"/>
<text text-anchor="middle" x="1085.5" y="-178.5" font-family="FreeSans" font-size="10.00" fill="#000000">g4main/PHG4Utils.h</text>
</a>
</g>
</g>
<!-- Node1&#45;&gt;Node17 -->
<g id="edge25" class="edge">
<title>Node1&#45;&gt;Node17</title>
<path fill="none" stroke="#191970" d="M2126.7911,-254.0433C1950.1143,-248.2312 1522.6778,-231.1639 1154.1241,-191.9704"/>
<polygon fill="#191970" stroke="#191970" points="1154.3761,-188.4775 1144.0604,-190.8931 1153.631,-195.4377 1154.3761,-188.4775"/>
</g>
<!-- Node19 -->
<g id="node19" class="node">
<title>Node19</title>
<g id="a_node19"><a xlink:href="../../d5/d6f/phool_8h.html" target="_top" xlink:title="phool/phool.h">
<polygon fill="none" stroke="#000000" points="329,-114.5 329,-134.5 414,-134.5 414,-114.5 329,-114.5"/>
<text text-anchor="middle" x="371.5" y="-121.5" font-family="FreeSans" font-size="10.00" fill="#000000">phool/phool.h</text>
</a>
</g>
</g>
<!-- Node1&#45;&gt;Node19 -->
<g id="edge28" class="edge">
<title>Node1&#45;&gt;Node19</title>
<path fill="none" stroke="#191970" d="M2126.7292,-255.7403C1842.2978,-252.7268 906.1601,-239.3647 609.5,-192 536.7967,-180.3922 454.7441,-154.0639 408.4623,-137.934"/>
<polygon fill="#191970" stroke="#191970" points="409.4648,-134.5765 398.87,-134.558 407.1408,-141.1795 409.4648,-134.5765"/>
</g>
<!-- Node20 -->
<g id="node20" class="node">
<title>Node20</title>
<polygon fill="none" stroke="#bfbfbf" points="1347,-171.5 1347,-191.5 1494,-191.5 1494,-171.5 1347,-171.5"/>
<text text-anchor="middle" x="1420.5" y="-178.5" font-family="FreeSans" font-size="10.00" fill="#000000">Geant4/G4ChordFinder.hh</text>
</g>
<!-- Node1&#45;&gt;Node20 -->
<g id="edge30" class="edge">
<title>Node1&#45;&gt;Node20</title>
<path fill="none" stroke="#191970" d="M2126.8019,-249.8818C1996.728,-239.2643 1736.1486,-217.1547 1504.2261,-192.0485"/>
<polygon fill="#191970" stroke="#191970" points="1504.5701,-188.5654 1494.2506,-190.9649 1503.8141,-195.5245 1504.5701,-188.5654"/>
</g>
<!-- Node21 -->
<g id="node21" class="node">
<title>Node21</title>
<polygon fill="none" stroke="#bfbfbf" points="1512,-171.5 1512,-191.5 1663,-191.5 1663,-171.5 1512,-171.5"/>
<text text-anchor="middle" x="1587.5" y="-178.5" font-family="FreeSans" font-size="10.00" fill="#000000">Geant4/G4ClassicalRK4.hh</text>
</g>
<!-- Node1&#45;&gt;Node21 -->
<g id="edge31" class="edge">
<title>Node1&#45;&gt;Node21</title>
<path fill="none" stroke="#191970" d="M2126.6951,-246.6418C2023.2708,-234.3091 1840.5969,-212.4614 1673.0369,-192.0623"/>
<polygon fill="#191970" stroke="#191970" points="1673.3919,-188.5798 1663.0421,-190.8451 1672.5456,-195.5284 1673.3919,-188.5798"/>
</g>
<!-- Node22 -->
<g id="node22" class="node">
<title>Node22</title>
<polygon fill="none" stroke="#bfbfbf" points="1681.5,-171.5 1681.5,-191.5 1835.5,-191.5 1835.5,-171.5 1681.5,-171.5"/>
<text text-anchor="middle" x="1758.5" y="-178.5" font-family="FreeSans" font-size="10.00" fill="#000000">Geant4/G4FieldManager.hh</text>
</g>
<!-- Node1&#45;&gt;Node22 -->
<g id="edge32" class="edge">
<title>Node1&#45;&gt;Node22</title>
<path fill="none" stroke="#191970" d="M2126.7796,-242.7438C2041.3044,-228.5296 1909.3349,-206.5834 1828.7557,-193.1833"/>
<polygon fill="#191970" stroke="#191970" points="1829.145,-189.7001 1818.7063,-191.5121 1827.9966,-196.6052 1829.145,-189.7001"/>
</g>
<!-- Node23 -->
<g id="node23" class="node">
<title>Node23</title>
<polygon fill="none" stroke="#bfbfbf" points="1853.5,-171.5 1853.5,-191.5 2013.5,-191.5 2013.5,-171.5 1853.5,-171.5"/>
<text text-anchor="middle" x="1933.5" y="-178.5" font-family="FreeSans" font-size="10.00" fill="#000000">Geant4/G4LogicalVolume.hh</text>
</g>
<!-- Node1&#45;&gt;Node23 -->
<g id="edge33" class="edge">
<title>Node1&#45;&gt;Node23</title>
<path fill="none" stroke="#191970" d="M2126.6909,-233.9975C2078.8249,-220.9905 2020.3526,-205.1013 1980.3566,-194.2328"/>
<polygon fill="#191970" stroke="#191970" points="1981.1718,-190.8274 1970.6039,-191.5826 1979.3361,-197.5825 1981.1718,-190.8274"/>
</g>
<!-- Node24 -->
<g id="node24" class="node">
<title>Node24</title>
<polygon fill="none" stroke="#bfbfbf" points="2032,-171.5 2032,-191.5 2205,-191.5 2205,-171.5 2032,-171.5"/>
<text text-anchor="middle" x="2118.5" y="-178.5" font-family="FreeSans" font-size="10.00" fill="#000000">Geant4/G4Mag_UsualEqRhs.hh</text>
</g>
<!-- Node1&#45;&gt;Node24 -->
<g id="edge34" class="edge">
<title>Node1&#45;&gt;Node24</title>
<path fill="none" stroke="#191970" d="M2175.3561,-228.3594C2163.0993,-218.2577 2149.668,-207.1879 2138.9389,-198.3452"/>
<polygon fill="#191970" stroke="#191970" points="2140.9305,-195.4512 2130.9876,-191.792 2136.4785,-200.853 2140.9305,-195.4512"/>
</g>
<!-- Node25 -->
<g id="node25" class="node">
<title>Node25</title>
<polygon fill="none" stroke="#bfbfbf" points="2223,-171.5 2223,-191.5 2380,-191.5 2380,-171.5 2223,-171.5"/>
<text text-anchor="middle" x="2301.5" y="-178.5" font-family="FreeSans" font-size="10.00" fill="#000000">Geant4/G4MagneticField.hh</text>
</g>
<!-- Node1&#45;&gt;Node25 -->
<g id="edge35" class="edge">
<title>Node1&#45;&gt;Node25</title>
<path fill="none" stroke="#191970" d="M2244.0192,-228.3594C2256.4106,-218.2577 2269.9895,-207.1879 2280.8365,-198.3452"/>
<polygon fill="#191970" stroke="#191970" points="2283.3358,-200.8234 2288.8751,-191.792 2278.9128,-195.3978 2283.3358,-200.8234"/>
</g>
<!-- Node26 -->
<g id="node26" class="node">
<title>Node26</title>
<polygon fill="none" stroke="#bfbfbf" points="2398.5,-171.5 2398.5,-191.5 2526.5,-191.5 2526.5,-171.5 2398.5,-171.5"/>
<text text-anchor="middle" x="2462.5" y="-178.5" font-family="FreeSans" font-size="10.00" fill="#000000">Geant4/G4Material.hh</text>
</g>
<!-- Node1&#45;&gt;Node26 -->
<g id="edge36" class="edge">
<title>Node1&#45;&gt;Node26</title>
<path fill="none" stroke="#191970" d="M2292.3417,-231.9422C2334.5767,-219.4219 2384.2124,-204.7078 2418.9383,-194.4136"/>
<polygon fill="#191970" stroke="#191970" points="2420.1718,-197.6985 2428.7646,-191.5006 2418.1822,-190.9872 2420.1718,-197.6985"/>
</g>
<!-- Node27 -->
<g id="node27" class="node">
<title>Node27</title>
<polygon fill="none" stroke="#bfbfbf" points="2545,-171.5 2545,-191.5 2698,-191.5 2698,-171.5 2545,-171.5"/>
<text text-anchor="middle" x="2621.5" y="-178.5" font-family="FreeSans" font-size="10.00" fill="#000000">Geant4/G4PVPlacement.hh</text>
</g>
<!-- Node1&#45;&gt;Node27 -->
<g id="edge37" class="edge">
<title>Node1&#45;&gt;Node27</title>
<path fill="none" stroke="#191970" d="M2292.3787,-241.4129C2370.0953,-227.2654 2484.7404,-206.3956 2556.1759,-193.3915"/>
<polygon fill="#191970" stroke="#191970" points="2557.1811,-196.7661 2566.3925,-191.5317 2555.9273,-189.8793 2557.1811,-196.7661"/>
</g>
<!-- Node28 -->
<g id="node28" class="node">
<title>Node28</title>
<polygon fill="none" stroke="#bfbfbf" points="2716,-171.5 2716,-191.5 2895,-191.5 2895,-171.5 2716,-171.5"/>
<text text-anchor="middle" x="2805.5" y="-178.5" font-family="FreeSans" font-size="10.00" fill="#000000">Geant4/G4PhysicalConstants.hh</text>
</g>
<!-- Node1&#45;&gt;Node28 -->
<g id="edge38" class="edge">
<title>Node1&#45;&gt;Node28</title>
<path fill="none" stroke="#191970" d="M2292.0581,-246.111C2403.2757,-232.1155 2600.5015,-207.2968 2715.4402,-192.833"/>
<polygon fill="#191970" stroke="#191970" points="2716.1329,-196.2735 2725.6177,-191.5523 2715.2589,-189.3283 2716.1329,-196.2735"/>
</g>
<!-- Node29 -->
<g id="node29" class="node">
<title>Node29</title>
<polygon fill="none" stroke="#bfbfbf" points="2913,-171.5 2913,-191.5 3104,-191.5 3104,-171.5 2913,-171.5"/>
<text text-anchor="middle" x="3008.5" y="-178.5" font-family="FreeSans" font-size="10.00" fill="#000000">Geant4/G4QuadrupoleMagField.hh</text>
</g>
<!-- Node1&#45;&gt;Node29 -->
<g id="edge39" class="edge">
<title>Node1&#45;&gt;Node29</title>
<path fill="none" stroke="#191970" d="M2292.1654,-249.0459C2420.4982,-237.4254 2675.7089,-214.1233 2902.6318,-192.1761"/>
<polygon fill="#191970" stroke="#191970" points="2903.1168,-195.6456 2912.7329,-191.1982 2902.4422,-188.6781 2903.1168,-195.6456"/>
</g>
<!-- Node30 -->
<g id="node30" class="node">
<title>Node30</title>
<polygon fill="none" stroke="#bfbfbf" points="3122,-171.5 3122,-191.5 3239,-191.5 3239,-171.5 3122,-171.5"/>
<text text-anchor="middle" x="3180.5" y="-178.5" font-family="FreeSans" font-size="10.00" fill="#000000">Geant4/G4String.hh</text>
</g>
<!-- Node1&#45;&gt;Node30 -->
<g id="edge41" class="edge">
<title>Node1&#45;&gt;Node30</title>
<path fill="none" stroke="#191970" d="M2292.2885,-252.9295C2449.9395,-245.6187 2804.253,-226.734 3111.7128,-192.1326"/>
<polygon fill="#191970" stroke="#191970" points="3112.1695,-195.6033 3121.7119,-190.9998 3111.3814,-188.6478 3112.1695,-195.6033"/>
</g>
<!-- Node31 -->
<g id="node31" class="node">
<title>Node31</title>
<polygon fill="none" stroke="#bfbfbf" points="3257.5,-171.5 3257.5,-191.5 3419.5,-191.5 3419.5,-171.5 3257.5,-171.5"/>
<text text-anchor="middle" x="3338.5" y="-178.5" font-family="FreeSans" font-size="10.00" fill="#000000">Geant4/G4SystemOfUnits.hh</text>
</g>
<!-- Node1&#45;&gt;Node31 -->
<g id="edge42" class="edge">
<title>Node1&#45;&gt;Node31</title>
<path fill="none" stroke="#191970" d="M2292.1094,-252.8937C2466.5186,-244.9484 2885.3346,-224.1219 3246.9421,-192.101"/>
<polygon fill="#191970" stroke="#191970" points="3247.4349,-195.571 3257.0853,-191.1985 3246.8144,-188.5986 3247.4349,-195.571"/>
</g>
<!-- Node32 -->
<g id="node32" class="node">
<title>Node32</title>
<polygon fill="none" stroke="#bfbfbf" points="3438,-171.5 3438,-191.5 3585,-191.5 3585,-171.5 3438,-171.5"/>
<text text-anchor="middle" x="3511.5" y="-178.5" font-family="FreeSans" font-size="10.00" fill="#000000">Geant4/G4ThreeVector.hh</text>
</g>
<!-- Node1&#45;&gt;Node32 -->
<g id="edge43" class="edge">
<title>Node1&#45;&gt;Node32</title>
<path fill="none" stroke="#191970" d="M2292.0533,-254.211C2487.4717,-248.3429 2993.8555,-230.5048 3427.5333,-192.0244"/>
<polygon fill="#191970" stroke="#191970" points="3428.1146,-195.4865 3437.764,-191.1116 3427.4925,-188.5142 3428.1146,-195.4865"/>
</g>
<!-- Node33 -->
<g id="node33" class="node">
<title>Node33</title>
<polygon fill="none" stroke="#bfbfbf" points="3603,-171.5 3603,-191.5 3754,-191.5 3754,-171.5 3603,-171.5"/>
<text text-anchor="middle" x="3678.5" y="-178.5" font-family="FreeSans" font-size="10.00" fill="#000000">Geant4/G4Transform3D.hh</text>
</g>
<!-- Node1&#45;&gt;Node33 -->
<g id="edge44" class="edge">
<title>Node1&#45;&gt;Node33</title>
<path fill="none" stroke="#191970" d="M2292.3862,-254.8887C2506.1111,-250.2499 3093.5373,-234.4338 3592.679,-192.1002"/>
<polygon fill="#191970" stroke="#191970" points="3593.3067,-195.5595 3602.9731,-191.2223 3592.7118,-188.5848 3593.3067,-195.5595"/>
</g>
<!-- Node34 -->
<g id="node34" class="node">
<title>Node34</title>
<polygon fill="none" stroke="#bfbfbf" points="3772.5,-171.5 3772.5,-191.5 3882.5,-191.5 3882.5,-171.5 3772.5,-171.5"/>
<text text-anchor="middle" x="3827.5" y="-178.5" font-family="FreeSans" font-size="10.00" fill="#000000">Geant4/G4Tubs.hh</text>
</g>
<!-- Node1&#45;&gt;Node34 -->
<g id="edge45" class="edge">
<title>Node1&#45;&gt;Node34</title>
<path fill="none" stroke="#191970" d="M2292.143,-254.3933C2567.5931,-247.1663 3453.8517,-222.2086 3762.1201,-192.006"/>
<polygon fill="#191970" stroke="#191970" points="3762.798,-195.4557 3772.3987,-190.9749 3762.0992,-188.4907 3762.798,-195.4557"/>
</g>
<!-- Node35 -->
<g id="node35" class="node">
<title>Node35</title>
<polygon fill="none" stroke="#bfbfbf" points="3901,-171.5 3901,-191.5 4016,-191.5 4016,-171.5 3901,-171.5"/>
<text text-anchor="middle" x="3958.5" y="-178.5" font-family="FreeSans" font-size="10.00" fill="#000000">Geant4/G4Types.hh</text>
</g>
<!-- Node1&#45;&gt;Node35 -->
<g id="edge46" class="edge">
<title>Node1&#45;&gt;Node35</title>
<path fill="none" stroke="#191970" d="M2292.2366,-254.6128C2582.6455,-247.7897 3555.5062,-223.2018 3890.603,-191.9533"/>
<polygon fill="#191970" stroke="#191970" points="3891.1885,-195.4134 3900.8111,-190.98 3890.524,-188.445 3891.1885,-195.4134"/>
</g>
<!-- Node36 -->
<g id="node36" class="node">
<title>Node36</title>
<polygon fill="none" stroke="#bfbfbf" points="4034.5,-171.5 4034.5,-191.5 4206.5,-191.5 4206.5,-171.5 4034.5,-171.5"/>
<text text-anchor="middle" x="4120.5" y="-178.5" font-family="FreeSans" font-size="10.00" fill="#000000">Geant4/G4UniformMagField.hh</text>
</g>
<!-- Node1&#45;&gt;Node36 -->
<g id="edge47" class="edge">
<title>Node1&#45;&gt;Node36</title>
<path fill="none" stroke="#191970" d="M2292.4278,-255.7544C2548.5365,-252.9825 3349.7946,-240.795 4023.9008,-192.0659"/>
<polygon fill="#191970" stroke="#191970" points="4024.5922,-195.525 4034.3123,-191.3096 4024.085,-188.5434 4024.5922,-195.525"/>
</g>
<!-- Node37 -->
<g id="node37" class="node">
<title>Node37</title>
<polygon fill="none" stroke="#bfbfbf" points="4225,-171.5 4225,-191.5 4376,-191.5 4376,-171.5 4225,-171.5"/>
<text text-anchor="middle" x="4300.5" y="-178.5" font-family="FreeSans" font-size="10.00" fill="#000000">Geant4/G4VisAttributes.hh</text>
</g>
<!-- Node1&#45;&gt;Node37 -->
<g id="edge48" class="edge">
<title>Node1&#45;&gt;Node37</title>
<path fill="none" stroke="#191970" d="M2292.1522,-254.8451C2617.5608,-248.1756 3811.7372,-222.2094 4214.7493,-191.9711"/>
<polygon fill="#191970" stroke="#191970" points="4215.2879,-195.4402 4224.9921,-191.1883 4214.7544,-188.4605 4215.2879,-195.4402"/>
</g>
<!-- Node38 -->
<g id="node38" class="node">
<title>Node38</title>
<polygon fill="none" stroke="#bfbfbf" points="4394.5,-171.5 4394.5,-191.5 4560.5,-191.5 4560.5,-171.5 4394.5,-171.5"/>
<text text-anchor="middle" x="4477.5" y="-178.5" font-family="FreeSans" font-size="10.00" fill="#000000">CLHEP/Units/SystemOfUnits.h</text>
</g>
<!-- Node1&#45;&gt;Node38 -->
<g id="edge49" class="edge">
<title>Node1&#45;&gt;Node38</title>
<path fill="none" stroke="#191970" d="M2292.0184,-254.9835C2634.5233,-248.5464 3946.2238,-222.4475 4384.1042,-192.0338"/>
<polygon fill="#191970" stroke="#191970" points="4384.556,-195.5107 4394.2844,-191.3145 4384.0626,-188.5281 4384.556,-195.5107"/>
</g>
<!-- Node39 -->
<g id="node39" class="node">
<title>Node39</title>
<polygon fill="none" stroke="#bfbfbf" points="4578.5,-171.5 4578.5,-191.5 4628.5,-191.5 4628.5,-171.5 4578.5,-171.5"/>
<text text-anchor="middle" x="4603.5" y="-178.5" font-family="FreeSans" font-size="10.00" fill="#000000">cstdlib</text>
</g>
<!-- Node1&#45;&gt;Node39 -->
<g id="edge50" class="edge">
<title>Node1&#45;&gt;Node39</title>
<path fill="none" stroke="#191970" d="M2292.3063,-255.5724C2678.8552,-251.0648 4298.0283,-230.1565 4568.3273,-191.6291"/>
<polygon fill="#191970" stroke="#191970" points="4569.0803,-195.0545 4578.4323,-190.0755 4568.0165,-188.1358 4569.0803,-195.0545"/>
</g>
<!-- Node2&#45;&gt;Node3 -->
<g id="edge2" class="edge">
<title>Node2&#45;&gt;Node3</title>
<path fill="none" stroke="#191970" d="M227.9127,-171.3095C216.565,-162.7987 200.1802,-150.5102 187.0458,-140.6594"/>
<polygon fill="#191970" stroke="#191970" points="189.0697,-137.8023 178.9696,-134.6022 184.8697,-143.4023 189.0697,-137.8023"/>
</g>
<!-- Node6 -->
<g id="node6" class="node">
<title>Node6</title>
<polygon fill="none" stroke="#bfbfbf" points="754,-.5 754,-20.5 799,-20.5 799,-.5 754,-.5"/>
<text text-anchor="middle" x="776.5" y="-7.5" font-family="FreeSans" font-size="10.00" fill="#000000">string</text>
</g>
<!-- Node2&#45;&gt;Node6 -->
<g id="edge6" class="edge">
<title>Node2&#45;&gt;Node6</title>
<path fill="none" stroke="#191970" d="M243.513,-171.2592C248.925,-146.7445 266.264,-84.6746 307.5,-57 325.6476,-44.8207 640.2764,-20.5749 743.7858,-12.8928"/>
<polygon fill="#191970" stroke="#191970" points="744.2447,-16.3685 753.9595,-12.1407 743.7286,-9.3876 744.2447,-16.3685"/>
</g>
<!-- Node3&#45;&gt;Node4 -->
<g id="edge3" class="edge">
<title>Node3&#45;&gt;Node4</title>
<path fill="none" stroke="#191970" d="M150.3037,-114.3095C137.4913,-105.7177 118.9376,-93.2758 104.1786,-83.3786"/>
<polygon fill="#191970" stroke="#191970" points="105.8195,-80.2649 95.5647,-77.6022 101.9208,-86.0787 105.8195,-80.2649"/>
</g>
<!-- Node3&#45;&gt;Node5 -->
<g id="edge4" class="edge">
<title>Node3&#45;&gt;Node5</title>
<path fill="none" stroke="#191970" d="M197.4425,-114.4408C227.8855,-104.8537 273.821,-90.3879 306.646,-80.0507"/>
<polygon fill="#191970" stroke="#191970" points="307.8937,-83.3273 316.3805,-76.9851 305.791,-76.6506 307.8937,-83.3273"/>
</g>
<!-- Node3&#45;&gt;Node6 -->
<g id="edge5" class="edge">
<title>Node3&#45;&gt;Node6</title>
<path fill="none" stroke="#191970" d="M174.2146,-114.2804C188.1236,-98.7781 217.0027,-69.7746 248.5,-57 294.3539,-38.4027 635.8781,-18.2308 743.8676,-12.2583"/>
<polygon fill="#191970" stroke="#191970" points="744.0663,-15.7528 753.8592,-11.7095 743.6823,-8.7633 744.0663,-15.7528"/>
</g>
<!-- Node7&#45;&gt;Node6 -->
<g id="edge11" class="edge">
<title>Node7&#45;&gt;Node6</title>
<path fill="none" stroke="#191970" d="M952.5458,-171.4161C984.5908,-160.2859 1024.5953,-140.3924 1007.5,-114 963.1327,-45.5041 861.5766,-21.9196 809.15,-14.1321"/>
<polygon fill="#191970" stroke="#191970" points="809.4334,-10.6381 799.0488,-12.738 808.4763,-17.5724 809.4334,-10.6381"/>
</g>
<!-- Node7&#45;&gt;Node8 -->
<g id="edge8" class="edge">
<title>Node7&#45;&gt;Node8</title>
<path fill="none" stroke="#191970" d="M917.3212,-171.3095C917.1918,-163.9335 917.0126,-153.72 916.8546,-144.715"/>
<polygon fill="#191970" stroke="#191970" points="920.3522,-144.5393 916.6772,-134.6022 913.3533,-144.6621 920.3522,-144.5393"/>
</g>
<!-- Node9 -->
<g id="node9" class="node">
<title>Node9</title>
<polygon fill="none" stroke="#bfbfbf" points="1055,-114.5 1055,-134.5 1094,-134.5 1094,-114.5 1055,-114.5"/>
<text text-anchor="middle" x="1074.5" y="-121.5" font-family="FreeSans" font-size="10.00" fill="#000000">map</text>
</g>
<!-- Node7&#45;&gt;Node9 -->
<g id="edge10" class="edge">
<title>Node7&#45;&gt;Node9</title>
<path fill="none" stroke="#191970" d="M945.207,-171.4408C973.3981,-161.2058 1016.9052,-145.4102 1045.54,-135.0141"/>
<polygon fill="#191970" stroke="#191970" points="1046.7935,-138.2826 1054.9988,-131.5801 1044.4046,-131.7029 1046.7935,-138.2826"/>
</g>
<!-- Node10 -->
<g id="node10" class="node">
<title>Node10</title>
<polygon fill="none" stroke="#bfbfbf" points="1112,-114.5 1112,-134.5 1161,-134.5 1161,-114.5 1112,-114.5"/>
<text text-anchor="middle" x="1136.5" y="-121.5" font-family="FreeSans" font-size="10.00" fill="#000000">vector</text>
</g>
<!-- Node7&#45;&gt;Node10 -->
<g id="edge12" class="edge">
<title>Node7&#45;&gt;Node10</title>
<path fill="none" stroke="#191970" d="M960.9258,-171.4629C996.6104,-163.0311 1048.6768,-150.31 1102.0582,-135.3072"/>
<polygon fill="#191970" stroke="#191970" points="1103.0169,-138.6734 1111.6845,-132.5806 1101.1092,-131.9384 1103.0169,-138.6734"/>
</g>
<!-- Node8&#45;&gt;Node6 -->
<g id="edge9" class="edge">
<title>Node8&#45;&gt;Node6</title>
<path fill="none" stroke="#191970" d="M904.0759,-114.3833C879.9564,-94.743 826.5752,-51.2755 797.0821,-27.2597"/>
<polygon fill="#191970" stroke="#191970" points="799.0619,-24.3582 789.0975,-20.7579 794.6418,-29.7863 799.0619,-24.3582"/>
</g>
<!-- Node12&#45;&gt;Node5 -->
<g id="edge23" class="edge">
<title>Node12&#45;&gt;Node5</title>
<path fill="none" stroke="#191970" d="M617.8061,-172.8202C571.5814,-165.9447 511.8778,-154.2096 461.5,-135 452.0991,-131.4153 402.4364,-101.5731 371.5274,-82.7874"/>
<polygon fill="#191970" stroke="#191970" points="373.3408,-79.7938 362.9791,-77.5833 369.7007,-85.773 373.3408,-79.7938"/>
</g>
<!-- Node12&#45;&gt;Node6 -->
<g id="edge24" class="edge">
<title>Node12&#45;&gt;Node6</title>
<path fill="none" stroke="#191970" d="M736.1161,-171.442C755.3091,-164.557 776.1661,-153.2515 787.5,-135 807.5212,-102.759 795.0504,-56.4589 785.1399,-30.3598"/>
<polygon fill="#191970" stroke="#191970" points="788.2733,-28.7721 781.2811,-20.8122 781.7834,-31.3952 788.2733,-28.7721"/>
</g>
<!-- Node13 -->
<g id="node13" class="node">
<title>Node13</title>
<g id="a_node13"><a xlink:href="../../da/dc1/Fun4AllReturnCodes_8h.html" target="_top" xlink:title="fun4all/Fun4AllReturnCodes.h">
<polygon fill="none" stroke="#000000" points="612.5,-114.5 612.5,-134.5 778.5,-134.5 778.5,-114.5 612.5,-114.5"/>
<text text-anchor="middle" x="695.5" y="-121.5" font-family="FreeSans" font-size="10.00" fill="#000000">fun4all/Fun4AllReturnCodes.h</text>
</a>
</g>
</g>
<!-- Node12&#45;&gt;Node13 -->
<g id="edge17" class="edge">
<title>Node12&#45;&gt;Node13</title>
<path fill="none" stroke="#191970" d="M693.8576,-171.3095C694.1164,-163.9335 694.4747,-153.72 694.7907,-144.715"/>
<polygon fill="#191970" stroke="#191970" points="698.2926,-144.7188 695.1455,-134.6022 691.2969,-144.4733 698.2926,-144.7188"/>
</g>
<!-- Node14 -->
<g id="node14" class="node">
<title>Node14</title>
<g id="a_node14"><a xlink:href="../../d5/dc2/SubsysReco_8h.html" target="_top" xlink:title="fun4all/SubsysReco.h">
<polygon fill="none" stroke="#000000" points="470.5,-114.5 470.5,-134.5 594.5,-134.5 594.5,-114.5 470.5,-114.5"/>
<text text-anchor="middle" x="532.5" y="-121.5" font-family="FreeSans" font-size="10.00" fill="#000000">fun4all/SubsysReco.h</text>
</a>
</g>
</g>
<!-- Node12&#45;&gt;Node14 -->
<g id="edge18" class="edge">
<title>Node12&#45;&gt;Node14</title>
<path fill="none" stroke="#191970" d="M665.087,-171.4408C638.8426,-162.1492 599.6539,-148.275 570.6827,-138.0181"/>
<polygon fill="#191970" stroke="#191970" points="571.494,-134.5925 560.8992,-134.5544 569.1578,-141.1912 571.494,-134.5925"/>
</g>
<!-- Node14&#45;&gt;Node6 -->
<g id="edge22" class="edge">
<title>Node14&#45;&gt;Node6</title>
<path fill="none" stroke="#191970" d="M554.1534,-114.3833C597.5626,-94.1019 695.3546,-48.4122 745.526,-24.9714"/>
<polygon fill="#191970" stroke="#191970" points="747.3168,-27.998 754.8952,-20.5941 744.3537,-21.6561 747.3168,-27.998"/>
</g>
<!-- Node15 -->
<g id="node15" class="node">
<title>Node15</title>
<g id="a_node15"><a xlink:href="../../d2/de7/Fun4AllBase_8h.html" target="_top" xlink:title="Fun4AllBase.h">
<polygon fill="none" stroke="#000000" points="519,-57.5 519,-77.5 606,-77.5 606,-57.5 519,-57.5"/>
<text text-anchor="middle" x="562.5" y="-64.5" font-family="FreeSans" font-size="10.00" fill="#000000">Fun4AllBase.h</text>
</a>
</g>
</g>
<!-- Node14&#45;&gt;Node15 -->
<g id="edge19" class="edge">
<title>Node14&#45;&gt;Node15</title>
<path fill="none" stroke="#191970" d="M537.8634,-114.3095C541.9162,-106.6093 547.5965,-95.8166 552.4817,-86.5349"/>
<polygon fill="#191970" stroke="#191970" points="555.6227,-88.0816 557.183,-77.6022 549.4283,-84.8213 555.6227,-88.0816"/>
</g>
<!-- Node15&#45;&gt;Node6 -->
<g id="edge21" class="edge">
<title>Node15&#45;&gt;Node6</title>
<path fill="none" stroke="#191970" d="M600.2663,-57.4408C641.131,-46.5562 705.6064,-29.3829 744.2017,-19.1028"/>
<polygon fill="#191970" stroke="#191970" points="745.131,-22.4774 753.8932,-16.5214 743.3292,-15.7132 745.131,-22.4774"/>
</g>
<!-- Node16 -->
<g id="node16" class="node">
<title>Node16</title>
<polygon fill="none" stroke="#bfbfbf" points="538,-.5 538,-20.5 587,-20.5 587,-.5 538,-.5"/>
<text text-anchor="middle" x="562.5" y="-7.5" font-family="FreeSans" font-size="10.00" fill="#000000">climits</text>
</g>
<!-- Node15&#45;&gt;Node16 -->
<g id="edge20" class="edge">
<title>Node15&#45;&gt;Node16</title>
<path fill="none" stroke="#191970" d="M562.5,-57.3095C562.5,-49.9335 562.5,-39.72 562.5,-30.715"/>
<polygon fill="#191970" stroke="#191970" points="566.0001,-30.6022 562.5,-20.6022 559.0001,-30.6023 566.0001,-30.6022"/>
</g>
<!-- Node17&#45;&gt;Node6 -->
<g id="edge26" class="edge">
<title>Node17&#45;&gt;Node6</title>
<path fill="none" stroke="#191970" d="M1139.4996,-171.4778C1176.9466,-163.3027 1222.0655,-150.5782 1233.5,-135 1239.0227,-127.476 1239.3254,-121.2922 1233.5,-114 1180.0267,-47.062 905.1714,-20.2083 809.4325,-12.7927"/>
<polygon fill="#191970" stroke="#191970" points="809.419,-9.2819 799.1843,-12.0208 808.8931,-16.2621 809.419,-9.2819"/>
</g>
<!-- Node18 -->
<g id="node18" class="node">
<title>Node18</title>
<polygon fill="none" stroke="#bfbfbf" points="1179,-114.5 1179,-134.5 1224,-134.5 1224,-114.5 1179,-114.5"/>
<text text-anchor="middle" x="1201.5" y="-121.5" font-family="FreeSans" font-size="10.00" fill="#000000">utility</text>
</g>
<!-- Node17&#45;&gt;Node18 -->
<g id="edge27" class="edge">
<title>Node17&#45;&gt;Node18</title>
<path fill="none" stroke="#191970" d="M1105.9714,-171.4408C1124.2461,-162.461 1151.2317,-149.2008 1171.8643,-139.0624"/>
<polygon fill="#191970" stroke="#191970" points="1173.4116,-142.2019 1180.843,-134.6504 1170.3244,-135.9193 1173.4116,-142.2019"/>
</g>
<!-- Node19&#45;&gt;Node5 -->
<g id="edge29" class="edge">
<title>Node19&#45;&gt;Node5</title>
<path fill="none" stroke="#191970" d="M367.0305,-114.3095C363.6887,-106.6903 359.0191,-96.0435 354.9774,-86.8285"/>
<polygon fill="#191970" stroke="#191970" points="358.1527,-85.3543 350.9308,-77.6022 351.7422,-88.166 358.1527,-85.3543"/>
</g>
</g>
</svg>
