<?xml version="1.0" encoding="UTF-8" standalone="no"?>
<!DOCTYPE svg PUBLIC "-//W3C//DTD SVG 1.1//EN"
 "http://www.w3.org/Graphics/SVG/1.1/DTD/svg11.dtd">
<!-- Generated by graphviz version 2.40.1 (20161225.0304)
 -->
<!-- Title: PHG4Sector::Sector_Geometry::ConeEdge Pages: 1 -->
<svg width="421pt" height="41pt"
 viewBox="0.00 0.00 421.00 41.00" xmlns="http://www.w3.org/2000/svg" xmlns:xlink="http://www.w3.org/1999/xlink">
<g id="graph0" class="graph" transform="scale(1 1) rotate(0) translate(4 37)">
<title>PHG4Sector::Sector_Geometry::ConeEdge</title>
<!-- Node1 -->
<g id="node1" class="node">
<title>Node1</title>
<polygon fill="#bfbfbf" stroke="#000000" points="0,-.5 0,-32.5 130,-32.5 130,-.5 0,-.5"/>
<text text-anchor="start" x="8" y="-19.5" font-family="FreeSans" font-size="10.00" fill="#000000">PHG4Sector::Sector</text>
<text text-anchor="middle" x="65" y="-7.5" font-family="FreeSans" font-size="10.00" fill="#000000">_Geometry::ConeEdge</text>
</g>
<!-- Node2 -->
<g id="node2" class="node">
<title>Node2</title>
<g id="a_node2"><a xlink:href="../../de/d55/G4__GEM__EIC_8C.html#a5c9797b8007dda401ba2b3949d5647eb" target="_top" xlink:title="make_LANL_FST_station">
<polygon fill="none" stroke="#000000" points="166,-6.5 166,-26.5 303,-26.5 303,-6.5 166,-6.5"/>
<text text-anchor="middle" x="234.5" y="-13.5" font-family="FreeSans" font-size="10.00" fill="#000000">make_LANL_FST_station</text>
</a>
</g>
</g>
<!-- Node1&#45;&gt;Node2 -->
<g id="edge1" class="edge">
<title>Node1&#45;&gt;Node2</title>
<path fill="none" stroke="#191970" d="M140.0791,-16.5C148.6952,-16.5 157.4464,-16.5 165.9701,-16.5"/>
<polygon fill="#191970" stroke="#191970" points="140.0484,-13.0001 130.0484,-16.5 140.0483,-20.0001 140.0484,-13.0001"/>
</g>
<!-- Node3 -->
<g id="node3" class="node">
<title>Node3</title>
<g id="a_node3"><a xlink:href="../../de/d55/G4__GEM__EIC_8C.html#a7be3dff0a6b7e1a41e670fcb9341b22b" target="_top" xlink:title="FGEMSetup">
<polygon fill="none" stroke="#000000" points="339,-6.5 339,-26.5 413,-26.5 413,-6.5 339,-6.5"/>
<text text-anchor="middle" x="376" y="-13.5" font-family="FreeSans" font-size="10.00" fill="#000000">FGEMSetup</text>
</a>
</g>
</g>
<!-- Node2&#45;&gt;Node3 -->
<g id="edge2" class="edge">
<title>Node2&#45;&gt;Node3</title>
<path fill="none" stroke="#191970" d="M313.2166,-16.5C322.0715,-16.5 330.7579,-16.5 338.7112,-16.5"/>
<polygon fill="#191970" stroke="#191970" points="313.1775,-13.0001 303.1775,-16.5 313.1775,-20.0001 313.1775,-13.0001"/>
</g>
</g>
</svg>
