<?xml version="1.0" encoding="UTF-8" standalone="no"?>
<!DOCTYPE svg PUBLIC "-//W3C//DTD SVG 1.1//EN"
 "http://www.w3.org/Graphics/SVG/1.1/DTD/svg11.dtd">
<!-- Generated by graphviz version 2.40.1 (20161225.0304)
 -->
<!-- Title: PHG4Sector::Sector_Geometry::AddLayer Pages: 1 -->
<svg width="673pt" height="360pt"
 viewBox="0.00 0.00 673.00 360.00" xmlns="http://www.w3.org/2000/svg" xmlns:xlink="http://www.w3.org/1999/xlink">
<g id="graph0" class="graph" transform="scale(1 1) rotate(0) translate(4 356)">
<title>PHG4Sector::Sector_Geometry::AddLayer</title>
<!-- Node1 -->
<g id="node1" class="node">
<title>Node1</title>
<polygon fill="#bfbfbf" stroke="#000000" points="0,-159.5 0,-191.5 127,-191.5 127,-159.5 0,-159.5"/>
<text text-anchor="start" x="8" y="-178.5" font-family="FreeSans" font-size="10.00" fill="#000000">PHG4Sector::Sector</text>
<text text-anchor="middle" x="63.5" y="-166.5" font-family="FreeSans" font-size="10.00" fill="#000000">_Geometry::AddLayer</text>
</g>
<!-- Node2 -->
<g id="node2" class="node">
<title>Node2</title>
<g id="a_node2"><a xlink:href="../../d9/de6/classPHG4Sector_1_1Sector__Geometry.html#ac5533363def013da20bbfb6cb5b4ee1d" target="_top" xlink:title="PHG4Sector::Sector\l_Geometry::AddLayers\l_AeroGel_ePHENIX">
<polygon fill="none" stroke="#000000" points="166,-307.5 166,-351.5 298,-351.5 298,-307.5 166,-307.5"/>
<text text-anchor="start" x="174" y="-338.5" font-family="FreeSans" font-size="10.00" fill="#000000">PHG4Sector::Sector</text>
<text text-anchor="start" x="174" y="-326.5" font-family="FreeSans" font-size="10.00" fill="#000000">_Geometry::AddLayers</text>
<text text-anchor="middle" x="232" y="-314.5" font-family="FreeSans" font-size="10.00" fill="#000000">_AeroGel_ePHENIX</text>
</a>
</g>
</g>
<!-- Node1&#45;&gt;Node2 -->
<g id="edge1" class="edge">
<title>Node1&#45;&gt;Node2</title>
<path fill="none" stroke="#191970" d="M78.6794,-200.1478C96.2285,-226.9886 127.3182,-269.7822 163,-297.5 167.5884,-301.0643 172.6378,-304.3486 177.8543,-307.344"/>
<polygon fill="#191970" stroke="#191970" points="81.6061,-198.228 73.26,-191.7017 75.7146,-202.0083 81.6061,-198.228"/>
</g>
<!-- Node5 -->
<g id="node5" class="node">
<title>Node5</title>
<g id="a_node5"><a xlink:href="../../d9/de6/classPHG4Sector_1_1Sector__Geometry.html#a28dd95a8f2a2b2b1d26e65a1b584702c" target="_top" xlink:title="PHG4Sector::Sector\l_Geometry::AddLayers\l_DriftVol_COMPASS">
<polygon fill="none" stroke="#000000" points="166,-102.5 166,-146.5 298,-146.5 298,-102.5 166,-102.5"/>
<text text-anchor="start" x="174" y="-133.5" font-family="FreeSans" font-size="10.00" fill="#000000">PHG4Sector::Sector</text>
<text text-anchor="start" x="174" y="-121.5" font-family="FreeSans" font-size="10.00" fill="#000000">_Geometry::AddLayers</text>
<text text-anchor="middle" x="232" y="-109.5" font-family="FreeSans" font-size="10.00" fill="#000000">_DriftVol_COMPASS</text>
</a>
</g>
</g>
<!-- Node1&#45;&gt;Node5 -->
<g id="edge4" class="edge">
<title>Node1&#45;&gt;Node5</title>
<path fill="none" stroke="#191970" d="M126.4538,-156.4457C139.2663,-152.5678 152.7821,-148.4769 165.7067,-144.565"/>
<polygon fill="#191970" stroke="#191970" points="125.3717,-153.1164 116.8145,-159.3633 127.3996,-159.8162 125.3717,-153.1164"/>
</g>
<!-- Node6 -->
<g id="node6" class="node">
<title>Node6</title>
<g id="a_node6"><a xlink:href="../../d9/de6/classPHG4Sector_1_1Sector__Geometry.html#ab051a45fb6288d8421b723c1a37f0ec5" target="_top" xlink:title="PHG4Sector::Sector\l_Geometry::AddLayers\l_HBD_GEM">
<polygon fill="none" stroke="#000000" points="166,-204.5 166,-248.5 298,-248.5 298,-204.5 166,-204.5"/>
<text text-anchor="start" x="174" y="-235.5" font-family="FreeSans" font-size="10.00" fill="#000000">PHG4Sector::Sector</text>
<text text-anchor="start" x="174" y="-223.5" font-family="FreeSans" font-size="10.00" fill="#000000">_Geometry::AddLayers</text>
<text text-anchor="middle" x="232" y="-211.5" font-family="FreeSans" font-size="10.00" fill="#000000">_HBD_GEM</text>
</a>
</g>
</g>
<!-- Node1&#45;&gt;Node6 -->
<g id="edge5" class="edge">
<title>Node1&#45;&gt;Node6</title>
<path fill="none" stroke="#191970" d="M126.4538,-194.5543C139.2663,-198.4322 152.7821,-202.5231 165.7067,-206.435"/>
<polygon fill="#191970" stroke="#191970" points="127.3996,-191.1838 116.8145,-191.6367 125.3717,-197.8836 127.3996,-191.1838"/>
</g>
<!-- Node10 -->
<g id="node10" class="node">
<title>Node10</title>
<g id="a_node10"><a xlink:href="../../d9/de6/classPHG4Sector_1_1Sector__Geometry.html#a73532bacff4db207c02e2929c91b8b62" target="_top" xlink:title="PHG4Sector::Sector\l_Geometry::AddLayers\l_HBD_Readout">
<polygon fill="none" stroke="#000000" points="166,-39.5 166,-83.5 298,-83.5 298,-39.5 166,-39.5"/>
<text text-anchor="start" x="174" y="-70.5" font-family="FreeSans" font-size="10.00" fill="#000000">PHG4Sector::Sector</text>
<text text-anchor="start" x="174" y="-58.5" font-family="FreeSans" font-size="10.00" fill="#000000">_Geometry::AddLayers</text>
<text text-anchor="middle" x="232" y="-46.5" font-family="FreeSans" font-size="10.00" fill="#000000">_HBD_Readout</text>
</a>
</g>
</g>
<!-- Node1&#45;&gt;Node10 -->
<g id="edge12" class="edge">
<title>Node1&#45;&gt;Node10</title>
<path fill="none" stroke="#191970" d="M87.8962,-152.3785C107.25,-134.8066 135.5268,-110.7917 163,-93.5 168.4759,-90.0534 174.3835,-86.7539 180.3569,-83.6713"/>
<polygon fill="#191970" stroke="#191970" points="85.4246,-149.8963 80.4303,-159.2402 90.1614,-155.0503 85.4246,-149.8963"/>
</g>
<!-- Node11 -->
<g id="node11" class="node">
<title>Node11</title>
<g id="a_node11"><a xlink:href="../../da/d9b/G4__FGEM__fsPHENIX_8C.html#adedab66f745dff8069bd1f750680c423" target="_top" xlink:title="Add drift layers to mini TPC.">
<polygon fill="none" stroke="#000000" points="163,-267.5 163,-287.5 301,-287.5 301,-267.5 163,-267.5"/>
<text text-anchor="middle" x="232" y="-274.5" font-family="FreeSans" font-size="10.00" fill="#000000">AddLayers_MiniTPCDrift</text>
</a>
</g>
</g>
<!-- Node1&#45;&gt;Node11 -->
<g id="edge13" class="edge">
<title>Node1&#45;&gt;Node11</title>
<path fill="none" stroke="#191970" d="M85.9813,-199.16C104.9016,-217.7809 133.5244,-243.0809 163,-258.5 169.826,-262.0708 177.3928,-265.0264 184.9412,-267.4554"/>
<polygon fill="#191970" stroke="#191970" points="88.0279,-196.2549 78.4925,-191.6368 83.0668,-201.1933 88.0279,-196.2549"/>
</g>
<!-- Node12 -->
<g id="node12" class="node">
<title>Node12</title>
<g id="a_node12"><a xlink:href="../../d8/d50/G4__DIRC_8C.html#acbdf429e4e41a2057e053691cc0b4128" target="_top" xlink:title="DIRCSetup">
<polygon fill="none" stroke="#000000" points="357.5,-164.5 357.5,-184.5 427.5,-184.5 427.5,-164.5 357.5,-164.5"/>
<text text-anchor="middle" x="392.5" y="-171.5" font-family="FreeSans" font-size="10.00" fill="#000000">DIRCSetup</text>
</a>
</g>
</g>
<!-- Node1&#45;&gt;Node12 -->
<g id="edge16" class="edge">
<title>Node1&#45;&gt;Node12</title>
<path fill="none" stroke="#191970" d="M137.6313,-175.2747C206.1824,-175.0663 305.0922,-174.7657 357.2431,-174.6072"/>
<polygon fill="#191970" stroke="#191970" points="137.3139,-171.7755 127.3246,-175.306 137.3352,-178.7755 137.3139,-171.7755"/>
</g>
<!-- Node13 -->
<g id="node13" class="node">
<title>Node13</title>
<g id="a_node13"><a xlink:href="../../de/d55/G4__GEM__EIC_8C.html#a5c9797b8007dda401ba2b3949d5647eb" target="_top" xlink:title="make_LANL_FST_station">
<polygon fill="none" stroke="#000000" points="163.5,-.5 163.5,-20.5 300.5,-20.5 300.5,-.5 163.5,-.5"/>
<text text-anchor="middle" x="232" y="-7.5" font-family="FreeSans" font-size="10.00" fill="#000000">make_LANL_FST_station</text>
</a>
</g>
</g>
<!-- Node1&#45;&gt;Node13 -->
<g id="edge18" class="edge">
<title>Node1&#45;&gt;Node13</title>
<path fill="none" stroke="#191970" d="M74.3331,-149.9767C89.4498,-117.4193 119.9426,-61.6147 163,-30.5 168.661,-26.4091 175.1471,-23.151 181.8264,-20.557"/>
<polygon fill="#191970" stroke="#191970" points="71.0576,-148.7264 70.1385,-159.2813 77.4391,-151.6033 71.0576,-148.7264"/>
</g>
<!-- Node3 -->
<g id="node3" class="node">
<title>Node3</title>
<g id="a_node3"><a xlink:href="../../de/d75/G4__Aerogel_8C.html#a400136ba4928234f7c9990b4065328f1" target="_top" xlink:title="AerogelSetup">
<polygon fill="none" stroke="#000000" points="484,-314.5 484,-334.5 569,-334.5 569,-314.5 484,-314.5"/>
<text text-anchor="middle" x="526.5" y="-321.5" font-family="FreeSans" font-size="10.00" fill="#000000">AerogelSetup</text>
</a>
</g>
</g>
<!-- Node2&#45;&gt;Node3 -->
<g id="edge2" class="edge">
<title>Node2&#45;&gt;Node3</title>
<path fill="none" stroke="#191970" d="M308.3083,-328.2044C364.1992,-327.2555 438.0074,-326.0024 483.8505,-325.2241"/>
<polygon fill="#191970" stroke="#191970" points="308.0307,-324.7086 298.0915,-328.3779 308.1496,-331.7075 308.0307,-324.7086"/>
</g>
<!-- Node4 -->
<g id="node4" class="node">
<title>Node4</title>
<g id="a_node4"><a xlink:href="../../d6/d6e/G4Setup__EICDetector_8C.html#af15ee6d4dd2044e228fb457a2ec81b4c" target="_top" xlink:title="G4Setup">
<polygon fill="none" stroke="#000000" points="605,-250.5 605,-270.5 665,-270.5 665,-250.5 605,-250.5"/>
<text text-anchor="middle" x="635" y="-257.5" font-family="FreeSans" font-size="10.00" fill="#000000">G4Setup</text>
</a>
</g>
</g>
<!-- Node3&#45;&gt;Node4 -->
<g id="edge3" class="edge">
<title>Node3&#45;&gt;Node4</title>
<path fill="none" stroke="#191970" d="M553.6645,-309.3246C558.7754,-306.4229 564.0634,-303.3889 569,-300.5 586.1146,-290.4846 605.4995,-278.6804 618.8095,-270.5031"/>
<polygon fill="#191970" stroke="#191970" points="551.7583,-306.3814 544.7702,-314.345 555.1992,-312.4774 551.7583,-306.3814"/>
</g>
<!-- Node7 -->
<g id="node7" class="node">
<title>Node7</title>
<g id="a_node7"><a xlink:href="../../da/d9b/G4__FGEM__fsPHENIX_8C.html#ac44d1ef8dd3931eed6dd2ae0110ed8d1" target="_top" xlink:title="FGEMSetup">
<polygon fill="none" stroke="#000000" points="489.5,-231.5 489.5,-251.5 563.5,-251.5 563.5,-231.5 489.5,-231.5"/>
<text text-anchor="middle" x="526.5" y="-238.5" font-family="FreeSans" font-size="10.00" fill="#000000">FGEMSetup</text>
</a>
</g>
</g>
<!-- Node6&#45;&gt;Node7 -->
<g id="edge6" class="edge">
<title>Node6&#45;&gt;Node7</title>
<path fill="none" stroke="#191970" d="M308.2434,-227.6853C349.6256,-228.6524 401.6574,-230.3914 448,-233.5 461.5317,-234.4077 476.3372,-235.8097 489.4077,-237.1881"/>
<polygon fill="#191970" stroke="#191970" points="308.3093,-224.186 298.2335,-227.4615 308.1528,-231.1842 308.3093,-224.186"/>
</g>
<!-- Node8 -->
<g id="node8" class="node">
<title>Node8</title>
<g id="a_node8"><a xlink:href="../../da/d9b/G4__FGEM__fsPHENIX_8C.html#a75ea364f15ac3286c935ec8dc4cc2830" target="_top" xlink:title="make_GEM_station">
<polygon fill="none" stroke="#000000" points="337,-242.5 337,-262.5 448,-262.5 448,-242.5 337,-242.5"/>
<text text-anchor="middle" x="392.5" y="-249.5" font-family="FreeSans" font-size="10.00" fill="#000000">make_GEM_station</text>
</a>
</g>
</g>
<!-- Node6&#45;&gt;Node8 -->
<g id="edge8" class="edge">
<title>Node6&#45;&gt;Node8</title>
<path fill="none" stroke="#191970" d="M308.2348,-238.8496C317.9062,-240.4163 327.6555,-241.9956 336.919,-243.4962"/>
<polygon fill="#191970" stroke="#191970" points="308.6392,-235.3695 298.2081,-237.2253 307.5197,-242.2794 308.6392,-235.3695"/>
</g>
<!-- Node7&#45;&gt;Node4 -->
<g id="edge7" class="edge">
<title>Node7&#45;&gt;Node4</title>
<path fill="none" stroke="#191970" d="M573.5735,-249.7433C584.2197,-251.6076 595.2413,-253.5376 604.959,-255.2394"/>
<polygon fill="#191970" stroke="#191970" points="573.9899,-246.263 563.5361,-247.9856 572.7824,-253.1581 573.9899,-246.263"/>
</g>
<!-- Node8&#45;&gt;Node7 -->
<g id="edge11" class="edge">
<title>Node8&#45;&gt;Node7</title>
<path fill="none" stroke="#191970" d="M458.2767,-247.1004C468.8736,-246.2305 479.5113,-245.3573 489.129,-244.5678"/>
<polygon fill="#191970" stroke="#191970" points="457.844,-243.6241 448.1639,-247.9306 458.4168,-250.6006 457.844,-243.6241"/>
</g>
<!-- Node9 -->
<g id="node9" class="node">
<title>Node9</title>
<g id="a_node9"><a xlink:href="../../de/d55/G4__GEM__EIC_8C.html#a04d0a097375d8e3f53970b906caf0d75" target="_top" xlink:title="EGEMSetup">
<polygon fill="none" stroke="#000000" points="489,-270.5 489,-290.5 564,-290.5 564,-270.5 489,-270.5"/>
<text text-anchor="middle" x="526.5" y="-277.5" font-family="FreeSans" font-size="10.00" fill="#000000">EGEMSetup</text>
</a>
</g>
</g>
<!-- Node8&#45;&gt;Node9 -->
<g id="edge9" class="edge">
<title>Node8&#45;&gt;Node9</title>
<path fill="none" stroke="#191970" d="M450.3597,-264.5901C463.4194,-267.319 476.9512,-270.1465 488.9201,-272.6475"/>
<polygon fill="#191970" stroke="#191970" points="451.0031,-261.149 440.4986,-262.5296 449.5713,-268.001 451.0031,-261.149"/>
</g>
<!-- Node9&#45;&gt;Node4 -->
<g id="edge10" class="edge">
<title>Node9&#45;&gt;Node4</title>
<path fill="none" stroke="#191970" d="M574.0467,-271.7356C584.5388,-269.8016 595.3707,-267.8049 604.9399,-266.041"/>
<polygon fill="#191970" stroke="#191970" points="573.3434,-268.3062 564.1435,-273.5611 574.6124,-275.1903 573.3434,-268.3062"/>
</g>
<!-- Node11&#45;&gt;Node7 -->
<g id="edge14" class="edge">
<title>Node11&#45;&gt;Node7</title>
<path fill="none" stroke="#191970" d="M311.5065,-282.2993C352.6363,-283.1156 403.4309,-281.5172 448,-272.5 468.8244,-268.2868 491.2427,-258.9011 506.7686,-251.554"/>
<polygon fill="#191970" stroke="#191970" points="311.3522,-278.7945 301.2676,-282.0428 311.1768,-285.7923 311.3522,-278.7945"/>
</g>
<!-- Node11&#45;&gt;Node8 -->
<g id="edge15" class="edge">
<title>Node11&#45;&gt;Node8</title>
<path fill="none" stroke="#191970" d="M306.5208,-265.8924C316.7514,-264.2989 327.1067,-262.6859 336.9173,-261.1577"/>
<polygon fill="#191970" stroke="#191970" points="305.6988,-262.4781 296.3567,-267.4756 306.7763,-269.3947 305.6988,-262.4781"/>
</g>
<!-- Node12&#45;&gt;Node4 -->
<g id="edge17" class="edge">
<title>Node12&#45;&gt;Node4</title>
<path fill="none" stroke="#191970" d="M437.3426,-183.3495C473.6593,-191.3032 525.7136,-204.5058 569,-222.5 587.4355,-230.1637 607.0853,-242.0074 620.1029,-250.4337"/>
<polygon fill="#191970" stroke="#191970" points="438.0489,-179.9215 427.5371,-181.2457 436.5804,-186.7657 438.0489,-179.9215"/>
</g>
<!-- Node14 -->
<g id="node14" class="node">
<title>Node14</title>
<g id="a_node14"><a xlink:href="../../de/d55/G4__GEM__EIC_8C.html#a7be3dff0a6b7e1a41e670fcb9341b22b" target="_top" xlink:title="FGEMSetup">
<polygon fill="none" stroke="#000000" points="355.5,-.5 355.5,-20.5 429.5,-20.5 429.5,-.5 355.5,-.5"/>
<text text-anchor="middle" x="392.5" y="-7.5" font-family="FreeSans" font-size="10.00" fill="#000000">FGEMSetup</text>
</a>
</g>
</g>
<!-- Node13&#45;&gt;Node14 -->
<g id="edge19" class="edge">
<title>Node13&#45;&gt;Node14</title>
<path fill="none" stroke="#191970" d="M310.6964,-10.5C326.2182,-10.5 341.8175,-10.5 355.1704,-10.5"/>
<polygon fill="#191970" stroke="#191970" points="310.532,-7.0001 300.532,-10.5 310.532,-14.0001 310.532,-7.0001"/>
</g>
</g>
</svg>
