<?xml version="1.0" encoding="UTF-8" standalone="no"?>
<!DOCTYPE svg PUBLIC "-//W3C//DTD SVG 1.1//EN"
 "http://www.w3.org/Graphics/SVG/1.1/DTD/svg11.dtd">
<!-- Generated by graphviz version 2.40.1 (20161225.0304)
 -->
<!-- Title: SvtxTrack::get_quality Pages: 1 -->
<svg width="744pt" height="233pt"
 viewBox="0.00 0.00 744.00 233.00" xmlns="http://www.w3.org/2000/svg" xmlns:xlink="http://www.w3.org/1999/xlink">
<g id="graph0" class="graph" transform="scale(1 1) rotate(0) translate(4 229)">
<title>SvtxTrack::get_quality</title>
<!-- Node1 -->
<g id="node1" class="node">
<title>Node1</title>
<polygon fill="#bfbfbf" stroke="#000000" points="0,-102.5 0,-122.5 128,-122.5 128,-102.5 0,-102.5"/>
<text text-anchor="middle" x="64" y="-109.5" font-family="FreeSans" font-size="10.00" fill="#000000">SvtxTrack::get_quality</text>
</g>
<!-- Node2 -->
<g id="node2" class="node">
<title>Node2</title>
<g id="a_node2"><a xlink:href="../../df/dad/classSvtxTrackEval.html#af3f25868e55ca177f57b0ef31231fbfa" target="_top" xlink:title="SvtxTrackEval::best\l_track_from">
<polygon fill="none" stroke="#000000" points="193.5,-192.5 193.5,-224.5 309.5,-224.5 309.5,-192.5 193.5,-192.5"/>
<text text-anchor="start" x="201.5" y="-211.5" font-family="FreeSans" font-size="10.00" fill="#000000">SvtxTrackEval::best</text>
<text text-anchor="middle" x="251.5" y="-199.5" font-family="FreeSans" font-size="10.00" fill="#000000">_track_from</text>
</a>
</g>
</g>
<!-- Node1&#45;&gt;Node2 -->
<g id="edge1" class="edge">
<title>Node1&#45;&gt;Node2</title>
<path fill="none" stroke="#191970" d="M83.2155,-129.1805C102.48,-145.1399 133.573,-168.8826 164,-183.5 173.1141,-187.8785 183.1399,-191.6302 193.0519,-194.795"/>
<polygon fill="#191970" stroke="#191970" points="85.3827,-126.4298 75.4806,-122.6615 80.8715,-131.7823 85.3827,-126.4298"/>
</g>
<!-- Node3 -->
<g id="node3" class="node">
<title>Node3</title>
<g id="a_node3"><a xlink:href="../../d6/d11/classSvtxEvaluator.html#ace95fef2b7b4ad8b797f6695e053dd6e" target="_top" xlink:title="dump the evaluator information into ntuple for external analysis">
<polygon fill="none" stroke="#000000" points="181,-141.5 181,-173.5 322,-173.5 322,-141.5 181,-141.5"/>
<text text-anchor="start" x="189" y="-160.5" font-family="FreeSans" font-size="10.00" fill="#000000">SvtxEvaluator::fillOutput</text>
<text text-anchor="middle" x="251.5" y="-148.5" font-family="FreeSans" font-size="10.00" fill="#000000">Ntuples</text>
</a>
</g>
</g>
<!-- Node1&#45;&gt;Node3 -->
<g id="edge2" class="edge">
<title>Node1&#45;&gt;Node3</title>
<path fill="none" stroke="#191970" d="M115.8738,-124.9497C137.1109,-130.0466 161.9564,-136.0095 184.5383,-141.4292"/>
<polygon fill="#191970" stroke="#191970" points="116.6194,-121.5293 106.0787,-122.5989 114.9857,-128.336 116.6194,-121.5293"/>
</g>
<!-- Node5 -->
<g id="node5" class="node">
<title>Node5</title>
<g id="a_node5"><a xlink:href="../../d0/d22/classPHGenFitTrkProp.html#a425f22248030483cb56cdb867c3077c8" target="_top" xlink:title="ExportOutput Call. Make SvtxTrack from PHGenFit::Track and set of clusters.">
<polygon fill="none" stroke="#000000" points="164,-51.5 164,-83.5 339,-83.5 339,-51.5 164,-51.5"/>
<text text-anchor="start" x="172" y="-70.5" font-family="FreeSans" font-size="10.00" fill="#000000">PHGenFitTrkProp::OutputPHGen</text>
<text text-anchor="middle" x="251.5" y="-58.5" font-family="FreeSans" font-size="10.00" fill="#000000">FitTrack</text>
</a>
</g>
</g>
<!-- Node1&#45;&gt;Node5 -->
<g id="edge4" class="edge">
<title>Node1&#45;&gt;Node5</title>
<path fill="none" stroke="#191970" d="M115.8738,-100.0503C137.1109,-94.9534 161.9564,-88.9905 184.5383,-83.5708"/>
<polygon fill="#191970" stroke="#191970" points="114.9857,-96.664 106.0787,-102.4011 116.6194,-103.4707 114.9857,-96.664"/>
</g>
<!-- Node8 -->
<g id="node8" class="node">
<title>Node8</title>
<g id="a_node8"><a xlink:href="../../d6/d11/classSvtxEvaluator.html#aef548ddeafdf0ebc949f29e88a741db8" target="_top" xlink:title="print out the ancestry information for detailed diagnosis">
<polygon fill="none" stroke="#000000" points="166,-102.5 166,-122.5 337,-122.5 337,-102.5 166,-102.5"/>
<text text-anchor="middle" x="251.5" y="-109.5" font-family="FreeSans" font-size="10.00" fill="#000000">SvtxEvaluator::printOutputInfo</text>
</a>
</g>
</g>
<!-- Node1&#45;&gt;Node8 -->
<g id="edge7" class="edge">
<title>Node1&#45;&gt;Node8</title>
<path fill="none" stroke="#191970" d="M138.1591,-112.5C147.2695,-112.5 156.6383,-112.5 165.9001,-112.5"/>
<polygon fill="#191970" stroke="#191970" points="138.0025,-109.0001 128.0024,-112.5 138.0024,-116.0001 138.0025,-109.0001"/>
</g>
<!-- Node9 -->
<g id="node9" class="node">
<title>Node9</title>
<g id="a_node9"><a xlink:href="../../d8/dc7/classMomentumEvaluator.html#a19c5f2c6d74578feea3513322e9f1fe3" target="_top" xlink:title="MomentumEvaluator::\lprocess_event">
<polygon fill="none" stroke="#000000" points="187.5,-.5 187.5,-32.5 315.5,-32.5 315.5,-.5 187.5,-.5"/>
<text text-anchor="start" x="195.5" y="-19.5" font-family="FreeSans" font-size="10.00" fill="#000000">MomentumEvaluator::</text>
<text text-anchor="middle" x="251.5" y="-7.5" font-family="FreeSans" font-size="10.00" fill="#000000">process_event</text>
</a>
</g>
</g>
<!-- Node1&#45;&gt;Node9 -->
<g id="edge9" class="edge">
<title>Node1&#45;&gt;Node9</title>
<path fill="none" stroke="#191970" d="M83.6094,-95.8805C102.9524,-80.2123 133.9103,-57.0268 164,-42.5 171.7065,-38.7794 180.0551,-35.4716 188.432,-32.568"/>
<polygon fill="#191970" stroke="#191970" points="81.3204,-93.2314 75.8256,-102.29 85.7701,-98.6351 81.3204,-93.2314"/>
</g>
<!-- Node4 -->
<g id="node4" class="node">
<title>Node4</title>
<g id="a_node4"><a xlink:href="../../d6/d11/classSvtxEvaluator.html#ac66ea4145deb621d9e4fb38cf852dc33" target="_top" xlink:title="SvtxEvaluator::process\l_event">
<polygon fill="none" stroke="#000000" points="399.5,-118.5 399.5,-150.5 531.5,-150.5 531.5,-118.5 399.5,-118.5"/>
<text text-anchor="start" x="407.5" y="-137.5" font-family="FreeSans" font-size="10.00" fill="#000000">SvtxEvaluator::process</text>
<text text-anchor="middle" x="465.5" y="-125.5" font-family="FreeSans" font-size="10.00" fill="#000000">_event</text>
</a>
</g>
</g>
<!-- Node3&#45;&gt;Node4 -->
<g id="edge3" class="edge">
<title>Node3&#45;&gt;Node4</title>
<path fill="none" stroke="#191970" d="M332.2023,-148.8264C354.326,-146.4486 378.0488,-143.899 399.2592,-141.6193"/>
<polygon fill="#191970" stroke="#191970" points="331.7334,-145.3565 322.1647,-149.9052 332.4815,-152.3165 331.7334,-145.3565"/>
</g>
<!-- Node6 -->
<g id="node6" class="node">
<title>Node6</title>
<g id="a_node6"><a xlink:href="../../d0/d22/classPHGenFitTrkProp.html#ab11c2e61a1b78278fa4af7cf624c2538" target="_top" xlink:title="Main function.">
<polygon fill="none" stroke="#000000" points="375,-57.5 375,-77.5 556,-77.5 556,-57.5 375,-57.5"/>
<text text-anchor="middle" x="465.5" y="-64.5" font-family="FreeSans" font-size="10.00" fill="#000000">PHGenFitTrkProp::KalmanTrkProp</text>
</a>
</g>
</g>
<!-- Node5&#45;&gt;Node6 -->
<g id="edge5" class="edge">
<title>Node5&#45;&gt;Node6</title>
<path fill="none" stroke="#191970" d="M349.436,-67.5C357.9037,-67.5 366.4477,-67.5 374.8538,-67.5"/>
<polygon fill="#191970" stroke="#191970" points="349.1595,-64.0001 339.1595,-67.5 349.1594,-71.0001 349.1595,-64.0001"/>
</g>
<!-- Node7 -->
<g id="node7" class="node">
<title>Node7</title>
<g id="a_node7"><a xlink:href="../../d0/d22/classPHGenFitTrkProp.html#a31e50e42d62a2bf32763652b39dc95b8" target="_top" xlink:title="PHGenFitTrkProp::Process">
<polygon fill="none" stroke="#000000" points="592,-57.5 592,-77.5 736,-77.5 736,-57.5 592,-57.5"/>
<text text-anchor="middle" x="664" y="-64.5" font-family="FreeSans" font-size="10.00" fill="#000000">PHGenFitTrkProp::Process</text>
</a>
</g>
</g>
<!-- Node6&#45;&gt;Node7 -->
<g id="edge6" class="edge">
<title>Node6&#45;&gt;Node7</title>
<path fill="none" stroke="#191970" d="M566.1556,-67.5C574.7831,-67.5 583.3965,-67.5 591.7348,-67.5"/>
<polygon fill="#191970" stroke="#191970" points="566.0369,-64.0001 556.0368,-67.5 566.0368,-71.0001 566.0369,-64.0001"/>
</g>
<!-- Node8&#45;&gt;Node4 -->
<g id="edge8" class="edge">
<title>Node8&#45;&gt;Node4</title>
<path fill="none" stroke="#191970" d="M347.2767,-122.3462C364.8336,-124.1511 382.7981,-125.9979 399.2512,-127.6894"/>
<polygon fill="#191970" stroke="#191970" points="347.3066,-118.8309 337.0011,-121.2898 346.5907,-125.7942 347.3066,-118.8309"/>
</g>
</g>
</svg>
