<?xml version="1.0" encoding="UTF-8" standalone="no"?>
<!DOCTYPE svg PUBLIC "-//W3C//DTD SVG 1.1//EN"
 "http://www.w3.org/Graphics/SVG/1.1/DTD/svg11.dtd">
<!-- Generated by graphviz version 2.40.1 (20161225.0304)
 -->
<!-- Title: SvtxTrack::get_eta Pages: 1 -->
<svg width="447pt" height="86pt"
 viewBox="0.00 0.00 447.00 86.00" xmlns="http://www.w3.org/2000/svg" xmlns:xlink="http://www.w3.org/1999/xlink">
<g id="graph0" class="graph" transform="scale(1 1) rotate(0) translate(4 82)">
<title>SvtxTrack::get_eta</title>
<!-- Node1 -->
<g id="node1" class="node">
<title>Node1</title>
<polygon fill="#bfbfbf" stroke="#000000" points="0,-28.5 0,-48.5 109,-48.5 109,-28.5 0,-28.5"/>
<text text-anchor="middle" x="54.5" y="-35.5" font-family="FreeSans" font-size="10.00" fill="#000000">SvtxTrack::get_eta</text>
</g>
<!-- Node2 -->
<g id="node2" class="node">
<title>Node2</title>
<g id="a_node2"><a xlink:href="../../d0/da9/classAnaTutorial.html#a54c32a62e705c4464d9652e91c7d46fa" target="_top" xlink:title="Methods for grabbing the data.">
<polygon fill="none" stroke="#000000" points="149.5,-51.5 149.5,-71.5 278.5,-71.5 278.5,-51.5 149.5,-51.5"/>
<text text-anchor="middle" x="214" y="-58.5" font-family="FreeSans" font-size="10.00" fill="#000000">AnaTutorial::getTracks</text>
</a>
</g>
</g>
<!-- Node1&#45;&gt;Node2 -->
<g id="edge1" class="edge">
<title>Node1&#45;&gt;Node2</title>
<path fill="none" stroke="#191970" d="M119.5229,-47.8763C129.3789,-49.2976 139.5458,-50.7637 149.3929,-52.1836"/>
<polygon fill="#191970" stroke="#191970" points="119.788,-44.3785 109.3909,-46.4153 118.7889,-51.3068 119.788,-44.3785"/>
</g>
<!-- Node4 -->
<g id="node4" class="node">
<title>Node4</title>
<g id="a_node4"><a xlink:href="../../db/dc4/classPHGenFitTrackProjection.html#a8f12e9c6ccc546498672eb6d45daef82" target="_top" xlink:title="PHGenFitTrackProjection\l::process_event">
<polygon fill="none" stroke="#000000" points="145,-.5 145,-32.5 283,-32.5 283,-.5 145,-.5"/>
<text text-anchor="start" x="153" y="-19.5" font-family="FreeSans" font-size="10.00" fill="#000000">PHGenFitTrackProjection</text>
<text text-anchor="middle" x="214" y="-7.5" font-family="FreeSans" font-size="10.00" fill="#000000">::process_event</text>
</a>
</g>
</g>
<!-- Node1&#45;&gt;Node4 -->
<g id="edge3" class="edge">
<title>Node1&#45;&gt;Node4</title>
<path fill="none" stroke="#191970" d="M119.4793,-29.5373C127.8632,-28.3809 136.4728,-27.1934 144.9198,-26.0283"/>
<polygon fill="#191970" stroke="#191970" points="118.8188,-26.0952 109.3909,-30.9288 119.7753,-33.0296 118.8188,-26.0952"/>
</g>
<!-- Node3 -->
<g id="node3" class="node">
<title>Node3</title>
<g id="a_node3"><a xlink:href="../../d0/da9/classAnaTutorial.html#a3b64c061aaffaf4a42631434fb7eb6f9" target="_top" xlink:title="SubsysReco event processing method.">
<polygon fill="none" stroke="#000000" points="319,-45.5 319,-77.5 439,-77.5 439,-45.5 319,-45.5"/>
<text text-anchor="start" x="327" y="-64.5" font-family="FreeSans" font-size="10.00" fill="#000000">AnaTutorial::process</text>
<text text-anchor="middle" x="379" y="-52.5" font-family="FreeSans" font-size="10.00" fill="#000000">_event</text>
</a>
</g>
</g>
<!-- Node2&#45;&gt;Node3 -->
<g id="edge2" class="edge">
<title>Node2&#45;&gt;Node3</title>
<path fill="none" stroke="#191970" d="M289.036,-61.5C298.9914,-61.5 309.093,-61.5 318.7546,-61.5"/>
<polygon fill="#191970" stroke="#191970" points="288.7388,-58.0001 278.7388,-61.5 288.7388,-65.0001 288.7388,-58.0001"/>
</g>
</g>
</svg>
