<?xml version="1.0" encoding="UTF-8" standalone="no"?>
<!DOCTYPE svg PUBLIC "-//W3C//DTD SVG 1.1//EN"
 "http://www.w3.org/Graphics/SVG/1.1/DTD/svg11.dtd">
<!-- Generated by graphviz version 2.40.1 (20161225.0304)
 -->
<!-- Title: SvtxTrack::get_id Pages: 1 -->
<svg width="718pt" height="527pt"
 viewBox="0.00 0.00 718.00 527.00" xmlns="http://www.w3.org/2000/svg" xmlns:xlink="http://www.w3.org/1999/xlink">
<g id="graph0" class="graph" transform="scale(1 1) rotate(0) translate(4 523)">
<title>SvtxTrack::get_id</title>
<!-- Node1 -->
<g id="node1" class="node">
<title>Node1</title>
<polygon fill="#bfbfbf" stroke="#000000" points="0,-261.5 0,-281.5 102,-281.5 102,-261.5 0,-261.5"/>
<text text-anchor="middle" x="51" y="-268.5" font-family="FreeSans" font-size="10.00" fill="#000000">SvtxTrack::get_id</text>
</g>
<!-- Node2 -->
<g id="node2" class="node">
<title>Node2</title>
<g id="a_node2"><a xlink:href="../../d6/d11/classSvtxEvaluator.html#ace95fef2b7b4ad8b797f6695e053dd6e" target="_top" xlink:title="dump the evaluator information into ntuple for external analysis">
<polygon fill="none" stroke="#000000" points="155,-486.5 155,-518.5 296,-518.5 296,-486.5 155,-486.5"/>
<text text-anchor="start" x="163" y="-505.5" font-family="FreeSans" font-size="10.00" fill="#000000">SvtxEvaluator::fillOutput</text>
<text text-anchor="middle" x="225.5" y="-493.5" font-family="FreeSans" font-size="10.00" fill="#000000">Ntuples</text>
</a>
</g>
</g>
<!-- Node1&#45;&gt;Node2 -->
<g id="edge1" class="edge">
<title>Node1&#45;&gt;Node2</title>
<path fill="none" stroke="#191970" d="M53.7062,-291.8131C60.2927,-333.0743 81.0242,-427.0481 138,-477.5 142.9678,-481.899 148.6607,-485.5275 154.7072,-488.5198"/>
<polygon fill="#191970" stroke="#191970" points="57.1607,-291.2473 52.2342,-281.8675 50.2361,-292.2722 57.1607,-291.2473"/>
</g>
<!-- Node4 -->
<g id="node4" class="node">
<title>Node4</title>
<g id="a_node4"><a xlink:href="../../d0/d02/classTrackJetInput.html#a0cceae03123381b77ed599c1ed6296eb" target="_top" xlink:title="TrackJetInput::get\l_input">
<polygon fill="none" stroke="#000000" points="172.5,-435.5 172.5,-467.5 278.5,-467.5 278.5,-435.5 172.5,-435.5"/>
<text text-anchor="start" x="180.5" y="-454.5" font-family="FreeSans" font-size="10.00" fill="#000000">TrackJetInput::get</text>
<text text-anchor="middle" x="225.5" y="-442.5" font-family="FreeSans" font-size="10.00" fill="#000000">_input</text>
</a>
</g>
</g>
<!-- Node1&#45;&gt;Node4 -->
<g id="edge3" class="edge">
<title>Node1&#45;&gt;Node4</title>
<path fill="none" stroke="#191970" d="M56.7079,-291.4792C67.2069,-324.5947 92.7565,-390.743 138,-426.5 147.9161,-434.3369 160.1796,-439.7172 172.3549,-443.4109"/>
<polygon fill="#191970" stroke="#191970" points="59.9662,-290.1626 53.7176,-281.6066 53.2668,-292.1919 59.9662,-290.1626"/>
</g>
<!-- Node5 -->
<g id="node5" class="node">
<title>Node5</title>
<g id="a_node5"><a xlink:href="../../d2/dbf/classSvtxTrackMap__v1.html#a7a864482336c27d8d986a7b1a043185a" target="_top" xlink:title="SvtxTrackMap_v1::operator=">
<polygon fill="none" stroke="#000000" points="144.5,-396.5 144.5,-416.5 306.5,-416.5 306.5,-396.5 144.5,-396.5"/>
<text text-anchor="middle" x="225.5" y="-403.5" font-family="FreeSans" font-size="10.00" fill="#000000">SvtxTrackMap_v1::operator=</text>
</a>
</g>
</g>
<!-- Node1&#45;&gt;Node5 -->
<g id="edge4" class="edge">
<title>Node1&#45;&gt;Node5</title>
<path fill="none" stroke="#191970" d="M60.1269,-291.1419C73.4008,-317.4226 100.5933,-363.494 138,-387.5 143.6255,-391.1102 149.8299,-394.0437 156.26,-396.4259"/>
<polygon fill="#191970" stroke="#191970" points="63.1116,-289.277 55.5852,-281.8202 56.8188,-292.343 63.1116,-289.277"/>
</g>
<!-- Node6 -->
<g id="node6" class="node">
<title>Node6</title>
<g id="a_node6"><a xlink:href="../../d0/d22/classPHGenFitTrkProp.html#a425f22248030483cb56cdb867c3077c8" target="_top" xlink:title="ExportOutput Call. Make SvtxTrack from PHGenFit::Track and set of clusters.">
<polygon fill="none" stroke="#000000" points="138,-306.5 138,-338.5 313,-338.5 313,-306.5 138,-306.5"/>
<text text-anchor="start" x="146" y="-325.5" font-family="FreeSans" font-size="10.00" fill="#000000">PHGenFitTrkProp::OutputPHGen</text>
<text text-anchor="middle" x="225.5" y="-313.5" font-family="FreeSans" font-size="10.00" fill="#000000">FitTrack</text>
</a>
</g>
</g>
<!-- Node1&#45;&gt;Node6 -->
<g id="edge5" class="edge">
<title>Node1&#45;&gt;Node6</title>
<path fill="none" stroke="#191970" d="M94.2711,-284.544C108.2197,-288.7187 123.7542,-293.3364 138,-297.5 148.0085,-300.4252 158.6723,-303.5038 168.9882,-306.4622"/>
<polygon fill="#191970" stroke="#191970" points="95.0198,-281.1146 84.4358,-281.5953 93.0095,-287.8197 95.0198,-281.1146"/>
</g>
<!-- Node9 -->
<g id="node9" class="node">
<title>Node9</title>
<g id="a_node9"><a xlink:href="../../d6/d11/classSvtxEvaluator.html#aef548ddeafdf0ebc949f29e88a741db8" target="_top" xlink:title="print out the ancestry information for detailed diagnosis">
<polygon fill="none" stroke="#000000" points="140,-357.5 140,-377.5 311,-377.5 311,-357.5 140,-357.5"/>
<text text-anchor="middle" x="225.5" y="-364.5" font-family="FreeSans" font-size="10.00" fill="#000000">SvtxEvaluator::printOutputInfo</text>
</a>
</g>
</g>
<!-- Node1&#45;&gt;Node9 -->
<g id="edge8" class="edge">
<title>Node1&#45;&gt;Node9</title>
<path fill="none" stroke="#191970" d="M66.1726,-289.4737C82.1912,-307.2456 109.0881,-333.8443 138,-348.5 145.21,-352.1548 153.1011,-355.1088 161.0992,-357.4958"/>
<polygon fill="#191970" stroke="#191970" points="68.4472,-286.759 59.2217,-281.5493 63.1848,-291.375 68.4472,-286.759"/>
</g>
<!-- Node10 -->
<g id="node10" class="node">
<title>Node10</title>
<g id="a_node10"><a xlink:href="../../d5/da2/classPHTruthTrackSeeding.html#ab0ab67b0de3435bad2eeba92a482753c" target="_top" xlink:title="PHTruthTrackSeeding\l::Process">
<polygon fill="none" stroke="#000000" points="164,-255.5 164,-287.5 287,-287.5 287,-255.5 164,-255.5"/>
<text text-anchor="start" x="172" y="-274.5" font-family="FreeSans" font-size="10.00" fill="#000000">PHTruthTrackSeeding</text>
<text text-anchor="middle" x="225.5" y="-262.5" font-family="FreeSans" font-size="10.00" fill="#000000">::Process</text>
</a>
</g>
</g>
<!-- Node1&#45;&gt;Node10 -->
<g id="edge10" class="edge">
<title>Node1&#45;&gt;Node10</title>
<path fill="none" stroke="#191970" d="M112.5912,-271.5C129.264,-271.5 147.3089,-271.5 163.9778,-271.5"/>
<polygon fill="#191970" stroke="#191970" points="112.412,-268.0001 102.4119,-271.5 112.4119,-275.0001 112.412,-268.0001"/>
</g>
<!-- Node11 -->
<g id="node11" class="node">
<title>Node11</title>
<g id="a_node11"><a xlink:href="../../db/dc4/classPHGenFitTrackProjection.html#a8f12e9c6ccc546498672eb6d45daef82" target="_top" xlink:title="PHGenFitTrackProjection\l::process_event">
<polygon fill="none" stroke="#000000" points="156.5,-204.5 156.5,-236.5 294.5,-236.5 294.5,-204.5 156.5,-204.5"/>
<text text-anchor="start" x="164.5" y="-223.5" font-family="FreeSans" font-size="10.00" fill="#000000">PHGenFitTrackProjection</text>
<text text-anchor="middle" x="225.5" y="-211.5" font-family="FreeSans" font-size="10.00" fill="#000000">::process_event</text>
</a>
</g>
</g>
<!-- Node1&#45;&gt;Node11 -->
<g id="edge11" class="edge">
<title>Node1&#45;&gt;Node11</title>
<path fill="none" stroke="#191970" d="M95.2521,-258.5667C118.1179,-251.8839 146.2371,-243.6657 170.4892,-236.5777"/>
<polygon fill="#191970" stroke="#191970" points="94.0922,-255.2592 85.4756,-261.424 96.0559,-261.9782 94.0922,-255.2592"/>
</g>
<!-- Node12 -->
<g id="node12" class="node">
<title>Node12</title>
<g id="a_node12"><a xlink:href="../../d9/d91/classPHG4TrackFastSim.html#a8bb22ab279c5f433069774bd2ab0a7ae" target="_top" xlink:title="Process Event, called for each event.">
<polygon fill="none" stroke="#000000" points="147.5,-153.5 147.5,-185.5 303.5,-185.5 303.5,-153.5 147.5,-153.5"/>
<text text-anchor="start" x="155.5" y="-172.5" font-family="FreeSans" font-size="10.00" fill="#000000">PHG4TrackFastSim::process</text>
<text text-anchor="middle" x="225.5" y="-160.5" font-family="FreeSans" font-size="10.00" fill="#000000">_event</text>
</a>
</g>
</g>
<!-- Node1&#45;&gt;Node12 -->
<g id="edge12" class="edge">
<title>Node1&#45;&gt;Node12</title>
<path fill="none" stroke="#191970" d="M66.9803,-253.6557C83.277,-236.4706 110.0705,-210.8824 138,-195.5 144.8018,-191.7538 152.2055,-188.4892 159.7315,-185.659"/>
<polygon fill="#191970" stroke="#191970" points="64.0938,-251.6214 59.8644,-261.3354 69.2285,-256.3791 64.0938,-251.6214"/>
</g>
<!-- Node13 -->
<g id="node13" class="node">
<title>Node13</title>
<g id="a_node13"><a xlink:href="../../de/d25/classPHGenFitTrkFitter.html#a2e088a68ab24c5b89b902205f877f9d6" target="_top" xlink:title="Process Event, called for each event.">
<polygon fill="none" stroke="#000000" points="171,-102.5 171,-134.5 280,-134.5 280,-102.5 171,-102.5"/>
<text text-anchor="start" x="179" y="-121.5" font-family="FreeSans" font-size="10.00" fill="#000000">PHGenFitTrkFitter::</text>
<text text-anchor="middle" x="225.5" y="-109.5" font-family="FreeSans" font-size="10.00" fill="#000000">process_event</text>
</a>
</g>
</g>
<!-- Node1&#45;&gt;Node13 -->
<g id="edge13" class="edge">
<title>Node1&#45;&gt;Node13</title>
<path fill="none" stroke="#191970" d="M59.1889,-252.0115C71.9286,-224.05 99.1347,-172.8079 138,-144.5 147.7354,-137.4091 159.4022,-132.2369 170.9956,-128.4692"/>
<polygon fill="#191970" stroke="#191970" points="55.9811,-250.6116 55.155,-261.1742 62.3877,-253.4321 55.9811,-250.6116"/>
</g>
<!-- Node14 -->
<g id="node14" class="node">
<title>Node14</title>
<g id="a_node14"><a xlink:href="../../d2/dbf/classSvtxTrackMap__v1.html#a684ab020fe1103e99cee2e4d9056acfe" target="_top" xlink:title="SvtxTrackMap_v1::SvtxTrack\lMap_v1">
<polygon fill="none" stroke="#000000" points="145.5,-51.5 145.5,-83.5 305.5,-83.5 305.5,-51.5 145.5,-51.5"/>
<text text-anchor="start" x="153.5" y="-70.5" font-family="FreeSans" font-size="10.00" fill="#000000">SvtxTrackMap_v1::SvtxTrack</text>
<text text-anchor="middle" x="225.5" y="-58.5" font-family="FreeSans" font-size="10.00" fill="#000000">Map_v1</text>
</a>
</g>
</g>
<!-- Node1&#45;&gt;Node14 -->
<g id="edge14" class="edge">
<title>Node1&#45;&gt;Node14</title>
<path fill="none" stroke="#191970" d="M55.2501,-251.238C64.0539,-214.3201 87.8007,-135.9977 138,-93.5 142.4752,-89.7114 147.4846,-86.4748 152.7803,-83.7098"/>
<polygon fill="#191970" stroke="#191970" points="51.7711,-250.7554 52.9849,-261.2805 58.5995,-252.2957 51.7711,-250.7554"/>
</g>
<!-- Node15 -->
<g id="node15" class="node">
<title>Node15</title>
<g id="a_node15"><a xlink:href="../../d0/d22/classPHGenFitTrkProp.html#ac159ce1352f6004a2f51a520c287c339" target="_top" xlink:title="KalmanTrkProp Call.">
<polygon fill="none" stroke="#000000" points="148,-.5 148,-32.5 303,-32.5 303,-.5 148,-.5"/>
<text text-anchor="start" x="156" y="-19.5" font-family="FreeSans" font-size="10.00" fill="#000000">PHGenFitTrkProp::SvtxTrack</text>
<text text-anchor="middle" x="225.5" y="-7.5" font-family="FreeSans" font-size="10.00" fill="#000000">ToPHGenFitTracks</text>
</a>
</g>
</g>
<!-- Node1&#45;&gt;Node15 -->
<g id="edge15" class="edge">
<title>Node1&#45;&gt;Node15</title>
<path fill="none" stroke="#191970" d="M52.8164,-250.8614C57.8631,-206.2012 76.068,-99.997 138,-42.5 142.181,-38.6184 146.9165,-35.3143 151.9678,-32.5021"/>
<polygon fill="#191970" stroke="#191970" points="49.3098,-250.749 51.7774,-261.0525 56.2737,-251.459 49.3098,-250.749"/>
</g>
<!-- Node3 -->
<g id="node3" class="node">
<title>Node3</title>
<g id="a_node3"><a xlink:href="../../d6/d11/classSvtxEvaluator.html#ac66ea4145deb621d9e4fb38cf852dc33" target="_top" xlink:title="SvtxEvaluator::process\l_event">
<polygon fill="none" stroke="#000000" points="373.5,-418.5 373.5,-450.5 505.5,-450.5 505.5,-418.5 373.5,-418.5"/>
<text text-anchor="start" x="381.5" y="-437.5" font-family="FreeSans" font-size="10.00" fill="#000000">SvtxEvaluator::process</text>
<text text-anchor="middle" x="439.5" y="-425.5" font-family="FreeSans" font-size="10.00" fill="#000000">_event</text>
</a>
</g>
</g>
<!-- Node2&#45;&gt;Node3 -->
<g id="edge2" class="edge">
<title>Node2&#45;&gt;Node3</title>
<path fill="none" stroke="#191970" d="M292.957,-483.5887C299.7414,-481.5783 306.5159,-479.527 313,-477.5 340.01,-469.0564 370.0058,-458.8948 394.0072,-450.5703"/>
<polygon fill="#191970" stroke="#191970" points="291.6529,-480.3237 283.0426,-486.4973 293.6235,-487.0407 291.6529,-480.3237"/>
</g>
<!-- Node7 -->
<g id="node7" class="node">
<title>Node7</title>
<g id="a_node7"><a xlink:href="../../d0/d22/classPHGenFitTrkProp.html#ab11c2e61a1b78278fa4af7cf624c2538" target="_top" xlink:title="Main function.">
<polygon fill="none" stroke="#000000" points="349,-226.5 349,-246.5 530,-246.5 530,-226.5 349,-226.5"/>
<text text-anchor="middle" x="439.5" y="-233.5" font-family="FreeSans" font-size="10.00" fill="#000000">PHGenFitTrkProp::KalmanTrkProp</text>
</a>
</g>
</g>
<!-- Node6&#45;&gt;Node7 -->
<g id="edge6" class="edge">
<title>Node6&#45;&gt;Node7</title>
<path fill="none" stroke="#191970" d="M296.2778,-303.4078C301.9749,-301.5287 307.6085,-299.5528 313,-297.5 352.6477,-282.4039 396.8391,-259.6486 421.0814,-246.6198"/>
<polygon fill="#191970" stroke="#191970" points="295.1251,-300.1016 286.6618,-306.4752 297.2525,-306.7706 295.1251,-300.1016"/>
</g>
<!-- Node8 -->
<g id="node8" class="node">
<title>Node8</title>
<g id="a_node8"><a xlink:href="../../d0/d22/classPHGenFitTrkProp.html#a31e50e42d62a2bf32763652b39dc95b8" target="_top" xlink:title="PHGenFitTrkProp::Process">
<polygon fill="none" stroke="#000000" points="566,-226.5 566,-246.5 710,-246.5 710,-226.5 566,-226.5"/>
<text text-anchor="middle" x="638" y="-233.5" font-family="FreeSans" font-size="10.00" fill="#000000">PHGenFitTrkProp::Process</text>
</a>
</g>
</g>
<!-- Node7&#45;&gt;Node8 -->
<g id="edge7" class="edge">
<title>Node7&#45;&gt;Node8</title>
<path fill="none" stroke="#191970" d="M540.1556,-236.5C548.7831,-236.5 557.3965,-236.5 565.7348,-236.5"/>
<polygon fill="#191970" stroke="#191970" points="540.0369,-233.0001 530.0368,-236.5 540.0368,-240.0001 540.0369,-233.0001"/>
</g>
<!-- Node9&#45;&gt;Node3 -->
<g id="edge9" class="edge">
<title>Node9&#45;&gt;Node3</title>
<path fill="none" stroke="#191970" d="M284.6757,-379.9157C294.2014,-382.2323 303.913,-384.7861 313,-387.5 342.7448,-396.3834 375.5868,-408.6618 400.3516,-418.4411"/>
<polygon fill="#191970" stroke="#191970" points="285.3874,-376.4876 274.8501,-377.5908 283.7755,-383.2995 285.3874,-376.4876"/>
</g>
<!-- Node15&#45;&gt;Node7 -->
<g id="edge16" class="edge">
<title>Node15&#45;&gt;Node7</title>
<path fill="none" stroke="#191970" d="M305.2642,-37.3703C307.9491,-38.9572 310.5389,-40.6641 313,-42.5 381.6481,-93.7079 423.6344,-194.0042 435.8023,-226.2527"/>
<polygon fill="#191970" stroke="#191970" points="306.8851,-34.2682 296.4071,-32.6992 303.6197,-40.4599 306.8851,-34.2682"/>
</g>
</g>
</svg>
