<?xml version="1.0" encoding="UTF-8" standalone="no"?>
<!DOCTYPE svg PUBLIC "-//W3C//DTD SVG 1.1//EN"
 "http://www.w3.org/Graphics/SVG/1.1/DTD/svg11.dtd">
<!-- Generated by graphviz version 2.40.1 (20161225.0304)
 -->
<!-- Title: SvtxTrack::get_chisq Pages: 1 -->
<svg width="504pt" height="143pt"
 viewBox="0.00 0.00 504.00 143.00" xmlns="http://www.w3.org/2000/svg" xmlns:xlink="http://www.w3.org/1999/xlink">
<g id="graph0" class="graph" transform="scale(1 1) rotate(0) translate(4 139)">
<title>SvtxTrack::get_chisq</title>
<!-- Node1 -->
<g id="node1" class="node">
<title>Node1</title>
<polygon fill="#bfbfbf" stroke="#000000" points="0,-57.5 0,-77.5 119,-77.5 119,-57.5 0,-57.5"/>
<text text-anchor="middle" x="59.5" y="-64.5" font-family="FreeSans" font-size="10.00" fill="#000000">SvtxTrack::get_chisq</text>
</g>
<!-- Node2 -->
<g id="node2" class="node">
<title>Node2</title>
<g id="a_node2"><a xlink:href="../../d6/d11/classSvtxEvaluator.html#ace95fef2b7b4ad8b797f6695e053dd6e" target="_top" xlink:title="dump the evaluator information into ntuple for external analysis">
<polygon fill="none" stroke="#000000" points="162.5,-99.5 162.5,-131.5 303.5,-131.5 303.5,-99.5 162.5,-99.5"/>
<text text-anchor="start" x="170.5" y="-118.5" font-family="FreeSans" font-size="10.00" fill="#000000">SvtxEvaluator::fillOutput</text>
<text text-anchor="middle" x="233" y="-106.5" font-family="FreeSans" font-size="10.00" fill="#000000">Ntuples</text>
</a>
</g>
</g>
<!-- Node1&#45;&gt;Node2 -->
<g id="edge1" class="edge">
<title>Node1&#45;&gt;Node2</title>
<path fill="none" stroke="#191970" d="M105.6612,-80.2708C126.9963,-86.1733 152.56,-93.2457 175.1658,-99.4998"/>
<polygon fill="#191970" stroke="#191970" points="106.4425,-76.8556 95.8713,-77.5624 104.576,-83.6021 106.4425,-76.8556"/>
</g>
<!-- Node4 -->
<g id="node4" class="node">
<title>Node4</title>
<g id="a_node4"><a xlink:href="../../d0/da9/classAnaTutorial.html#a54c32a62e705c4464d9652e91c7d46fa" target="_top" xlink:title="Methods for grabbing the data.">
<polygon fill="none" stroke="#000000" points="168.5,-57.5 168.5,-77.5 297.5,-77.5 297.5,-57.5 168.5,-57.5"/>
<text text-anchor="middle" x="233" y="-64.5" font-family="FreeSans" font-size="10.00" fill="#000000">AnaTutorial::getTracks</text>
</a>
</g>
</g>
<!-- Node1&#45;&gt;Node4 -->
<g id="edge3" class="edge">
<title>Node1&#45;&gt;Node4</title>
<path fill="none" stroke="#191970" d="M129.4141,-67.5C142.3055,-67.5 155.7128,-67.5 168.4374,-67.5"/>
<polygon fill="#191970" stroke="#191970" points="129.2089,-64.0001 119.2089,-67.5 129.2088,-71.0001 129.2089,-64.0001"/>
</g>
<!-- Node6 -->
<g id="node6" class="node">
<title>Node6</title>
<g id="a_node6"><a xlink:href="../../d5/daa/classPHRaveVertexing.html#af3ca2c60b8b69efdf6fdaf781f19948c" target="_top" xlink:title="PHRaveVertexing::Translate\lSvtxToGenFitTrack">
<polygon fill="none" stroke="#000000" points="155,-3.5 155,-35.5 311,-35.5 311,-3.5 155,-3.5"/>
<text text-anchor="start" x="163" y="-22.5" font-family="FreeSans" font-size="10.00" fill="#000000">PHRaveVertexing::Translate</text>
<text text-anchor="middle" x="233" y="-10.5" font-family="FreeSans" font-size="10.00" fill="#000000">SvtxToGenFitTrack</text>
</a>
</g>
</g>
<!-- Node1&#45;&gt;Node6 -->
<g id="edge5" class="edge">
<title>Node1&#45;&gt;Node6</title>
<path fill="none" stroke="#191970" d="M105.6612,-54.7292C126.9963,-48.8267 152.56,-41.7543 175.1658,-35.5002"/>
<polygon fill="#191970" stroke="#191970" points="104.576,-51.3979 95.8713,-57.4376 106.4425,-58.1444 104.576,-51.3979"/>
</g>
<!-- Node3 -->
<g id="node3" class="node">
<title>Node3</title>
<g id="a_node3"><a xlink:href="../../d6/d11/classSvtxEvaluator.html#ac66ea4145deb621d9e4fb38cf852dc33" target="_top" xlink:title="SvtxEvaluator::process\l_event">
<polygon fill="none" stroke="#000000" points="355.5,-102.5 355.5,-134.5 487.5,-134.5 487.5,-102.5 355.5,-102.5"/>
<text text-anchor="start" x="363.5" y="-121.5" font-family="FreeSans" font-size="10.00" fill="#000000">SvtxEvaluator::process</text>
<text text-anchor="middle" x="421.5" y="-109.5" font-family="FreeSans" font-size="10.00" fill="#000000">_event</text>
</a>
</g>
</g>
<!-- Node2&#45;&gt;Node3 -->
<g id="edge2" class="edge">
<title>Node2&#45;&gt;Node3</title>
<path fill="none" stroke="#191970" d="M313.749,-116.7851C327.6342,-117.0061 341.9186,-117.2335 355.3629,-117.4474"/>
<polygon fill="#191970" stroke="#191970" points="313.7812,-113.2853 303.7267,-116.6256 313.6697,-120.2844 313.7812,-113.2853"/>
</g>
<!-- Node5 -->
<g id="node5" class="node">
<title>Node5</title>
<g id="a_node5"><a xlink:href="../../d0/da9/classAnaTutorial.html#a3b64c061aaffaf4a42631434fb7eb6f9" target="_top" xlink:title="SubsysReco event processing method.">
<polygon fill="none" stroke="#000000" points="361.5,-51.5 361.5,-83.5 481.5,-83.5 481.5,-51.5 361.5,-51.5"/>
<text text-anchor="start" x="369.5" y="-70.5" font-family="FreeSans" font-size="10.00" fill="#000000">AnaTutorial::process</text>
<text text-anchor="middle" x="421.5" y="-58.5" font-family="FreeSans" font-size="10.00" fill="#000000">_event</text>
</a>
</g>
</g>
<!-- Node4&#45;&gt;Node5 -->
<g id="edge4" class="edge">
<title>Node4&#45;&gt;Node5</title>
<path fill="none" stroke="#191970" d="M307.9345,-67.5C325.6965,-67.5 344.4147,-67.5 361.4172,-67.5"/>
<polygon fill="#191970" stroke="#191970" points="307.6073,-64.0001 297.6073,-67.5 307.6072,-71.0001 307.6073,-64.0001"/>
</g>
<!-- Node7 -->
<g id="node7" class="node">
<title>Node7</title>
<g id="a_node7"><a xlink:href="../../d5/daa/classPHRaveVertexing.html#afefcb6ce27ac34016e62172d8519fae8" target="_top" xlink:title="Process Event, called for each event.">
<polygon fill="none" stroke="#000000" points="347,-.5 347,-32.5 496,-32.5 496,-.5 347,-.5"/>
<text text-anchor="start" x="355" y="-19.5" font-family="FreeSans" font-size="10.00" fill="#000000">PHRaveVertexing::process</text>
<text text-anchor="middle" x="421.5" y="-7.5" font-family="FreeSans" font-size="10.00" fill="#000000">_event</text>
</a>
</g>
</g>
<!-- Node6&#45;&gt;Node7 -->
<g id="edge6" class="edge">
<title>Node6&#45;&gt;Node7</title>
<path fill="none" stroke="#191970" d="M321.0958,-18.0979C329.7115,-17.9608 338.396,-17.8226 346.8597,-17.6879"/>
<polygon fill="#191970" stroke="#191970" points="320.9739,-14.5993 311.0309,-18.2581 321.0853,-21.5985 320.9739,-14.5993"/>
</g>
</g>
</svg>
