<?xml version="1.0" encoding="UTF-8" standalone="no"?>
<!DOCTYPE svg PUBLIC "-//W3C//DTD SVG 1.1//EN"
 "http://www.w3.org/Graphics/SVG/1.1/DTD/svg11.dtd">
<!-- Generated by graphviz version 2.40.1 (20161225.0304)
 -->
<!-- Title: PHG4CrystalCalorimeterDetector::ParseParametersFromTable Pages: 1 -->
<svg width="369pt" height="68pt"
 viewBox="0.00 0.00 369.00 68.00" xmlns="http://www.w3.org/2000/svg" xmlns:xlink="http://www.w3.org/1999/xlink">
<g id="graph0" class="graph" transform="scale(1 1) rotate(0) translate(4 64)">
<title>PHG4CrystalCalorimeterDetector::ParseParametersFromTable</title>
<!-- Node1 -->
<g id="node1" class="node">
<title>Node1</title>
<polygon fill="#bfbfbf" stroke="#000000" points="0,-13.5 0,-45.5 183,-45.5 183,-13.5 0,-13.5"/>
<text text-anchor="start" x="8" y="-32.5" font-family="FreeSans" font-size="10.00" fill="#000000">PHG4CrystalCalorimeterDetector</text>
<text text-anchor="middle" x="91.5" y="-20.5" font-family="FreeSans" font-size="10.00" fill="#000000">::ParseParametersFromTable</text>
</g>
<!-- Node2 -->
<g id="node2" class="node">
<title>Node2</title>
<g id="a_node2"><a xlink:href="../../df/de8/cemc_8C.html#adf5c804dfce7a70e36dda02995fad481" target="_top" xlink:title="exit">
<polygon fill="none" stroke="#000000" points="272.5,-39.5 272.5,-59.5 307.5,-59.5 307.5,-39.5 272.5,-39.5"/>
<text text-anchor="middle" x="290" y="-46.5" font-family="FreeSans" font-size="10.00" fill="#000000">exit</text>
</a>
</g>
</g>
<!-- Node1&#45;&gt;Node2 -->
<g id="edge1" class="edge">
<title>Node1&#45;&gt;Node2</title>
<path fill="none" stroke="#191970" d="M183.1964,-38.7389C211.9159,-41.6326 241.4837,-44.6117 262.2062,-46.6996"/>
<polygon fill="#191970" stroke="#191970" points="261.8846,-50.1848 272.1851,-47.7051 262.5864,-43.2201 261.8846,-50.1848"/>
</g>
<!-- Node3 -->
<g id="node3" class="node">
<title>Node3</title>
<g id="a_node3"><a xlink:href="../../d3/de7/classPHG4Detector.html#af5eefc46de6e61b788946ca0d0a7427c" target="_top" xlink:title="PHG4Detector::Verbosity">
<polygon fill="none" stroke="#000000" points="219,-.5 219,-20.5 361,-20.5 361,-.5 219,-.5"/>
<text text-anchor="middle" x="290" y="-7.5" font-family="FreeSans" font-size="10.00" fill="#000000">PHG4Detector::Verbosity</text>
</a>
</g>
</g>
<!-- Node1&#45;&gt;Node3 -->
<g id="edge2" class="edge">
<title>Node1&#45;&gt;Node3</title>
<path fill="none" stroke="#191970" d="M183.1964,-20.723C191.7183,-19.9073 200.3149,-19.0845 208.7329,-18.2787"/>
<polygon fill="#191970" stroke="#191970" points="209.2744,-21.743 218.8954,-17.306 208.6074,-14.7748 209.2744,-21.743"/>
</g>
</g>
</svg>
