<?xml version="1.0" encoding="UTF-8" standalone="no"?>
<!DOCTYPE svg PUBLIC "-//W3C//DTD SVG 1.1//EN"
 "http://www.w3.org/Graphics/SVG/1.1/DTD/svg11.dtd">
<!-- Generated by graphviz version 2.40.1 (20161225.0304)
 -->
<!-- Title: PHActsSourceLinks::getTpcLocalCoords Pages: 1 -->
<svg width="489pt" height="416pt"
 viewBox="0.00 0.00 489.00 416.00" xmlns="http://www.w3.org/2000/svg" xmlns:xlink="http://www.w3.org/1999/xlink">
<g id="graph0" class="graph" transform="scale(1 1) rotate(0) translate(4 412)">
<title>PHActsSourceLinks::getTpcLocalCoords</title>
<!-- Node1 -->
<g id="node1" class="node">
<title>Node1</title>
<polygon fill="#bfbfbf" stroke="#000000" points="0,-193.5 0,-225.5 118,-225.5 118,-193.5 0,-193.5"/>
<text text-anchor="start" x="8" y="-212.5" font-family="FreeSans" font-size="10.00" fill="#000000">PHActsSourceLinks::</text>
<text text-anchor="middle" x="59" y="-200.5" font-family="FreeSans" font-size="10.00" fill="#000000">getTpcLocalCoords</text>
</g>
<!-- Node2 -->
<g id="node2" class="node">
<title>Node2</title>
<g id="a_node2"><a xlink:href="../../d7/db0/namespaceTpcDefs.html#a30fc79495c9e8d14327d1026cd7325c7" target="_top" xlink:title="Generate a hitsetkey for the tpc.">
<polygon fill="none" stroke="#000000" points="165.5,-387.5 165.5,-407.5 299.5,-407.5 299.5,-387.5 165.5,-387.5"/>
<text text-anchor="middle" x="232.5" y="-394.5" font-family="FreeSans" font-size="10.00" fill="#000000">TpcDefs::genHitSetKey</text>
</a>
</g>
</g>
<!-- Node1&#45;&gt;Node2 -->
<g id="edge1" class="edge">
<title>Node1&#45;&gt;Node2</title>
<path fill="none" stroke="#191970" d="M63.3129,-225.6555C73.236,-259.5735 101.0033,-338.372 154,-378.5 156.103,-380.0924 158.3209,-381.5533 160.6254,-382.8936"/>
<polygon fill="#191970" stroke="#191970" points="159.3699,-386.1777 169.8835,-387.4872 162.4812,-379.9071 159.3699,-386.1777"/>
</g>
<!-- Node4 -->
<g id="node4" class="node">
<title>Node4</title>
<g id="a_node4"><a xlink:href="../../d6/dfa/classTrkrCluster.html#a464d9b621b9f222a845107e17970fa0d" target="_top" xlink:title="TrkrCluster::getError">
<polygon fill="none" stroke="#000000" points="172.5,-348.5 172.5,-368.5 292.5,-368.5 292.5,-348.5 172.5,-348.5"/>
<text text-anchor="middle" x="232.5" y="-355.5" font-family="FreeSans" font-size="10.00" fill="#000000">TrkrCluster::getError</text>
</a>
</g>
</g>
<!-- Node1&#45;&gt;Node4 -->
<g id="edge3" class="edge">
<title>Node1&#45;&gt;Node4</title>
<path fill="none" stroke="#191970" d="M66.0859,-225.5253C79.2186,-253.2888 110.0583,-310.168 154,-339.5 156.8864,-341.4268 159.9485,-343.1586 163.1252,-344.7151"/>
<polygon fill="#191970" stroke="#191970" points="161.7603,-347.9379 172.3309,-348.6539 164.514,-341.5023 161.7603,-347.9379"/>
</g>
<!-- Node5 -->
<g id="node5" class="node">
<title>Node5</title>
<g id="a_node5"><a xlink:href="../../da/db1/classMakeActsGeometry.html#a41e08a6ce9af433580730f4e469e2332" target="_top" xlink:title="MakeActsGeometry::getGeo\lContext">
<polygon fill="none" stroke="#000000" points="154,-297.5 154,-329.5 311,-329.5 311,-297.5 154,-297.5"/>
<text text-anchor="start" x="162" y="-316.5" font-family="FreeSans" font-size="10.00" fill="#000000">MakeActsGeometry::getGeo</text>
<text text-anchor="middle" x="232.5" y="-304.5" font-family="FreeSans" font-size="10.00" fill="#000000">Context</text>
</a>
</g>
</g>
<!-- Node1&#45;&gt;Node5 -->
<g id="edge4" class="edge">
<title>Node1&#45;&gt;Node5</title>
<path fill="none" stroke="#191970" d="M74.3887,-225.5853C92.0954,-243.2573 122.7682,-271.3971 154,-288.5 157.2656,-290.2883 160.6788,-291.9714 164.1758,-293.5522"/>
<polygon fill="#191970" stroke="#191970" points="163.0088,-296.8582 173.5842,-297.4999 165.7172,-290.4033 163.0088,-296.8582"/>
</g>
<!-- Node6 -->
<g id="node6" class="node">
<title>Node6</title>
<g id="a_node6"><a xlink:href="../../d6/d3f/namespaceTrkrDefs.html#ad4a7fd368bbf1d5d97ff4fd3e81a6100" target="_top" xlink:title="Get the layer number from either key type.">
<polygon fill="none" stroke="#000000" points="177,-258.5 177,-278.5 288,-278.5 288,-258.5 177,-258.5"/>
<text text-anchor="middle" x="232.5" y="-265.5" font-family="FreeSans" font-size="10.00" fill="#000000">TrkrDefs::getLayer</text>
</a>
</g>
</g>
<!-- Node1&#45;&gt;Node6 -->
<g id="edge5" class="edge">
<title>Node1&#45;&gt;Node6</title>
<path fill="none" stroke="#191970" d="M93.6769,-225.6877C111.4533,-233.577 133.6021,-242.7857 154,-249.5 161.0382,-251.8168 168.5157,-253.9867 175.951,-255.9716"/>
<polygon fill="#191970" stroke="#191970" points="175.1041,-259.3676 185.6609,-258.4712 176.8493,-252.5886 175.1041,-259.3676"/>
</g>
<!-- Node7 -->
<g id="node7" class="node">
<title>Node7</title>
<g id="a_node7"><a xlink:href="../../d6/dfa/classTrkrCluster.html#a081b3050a772ea32f6bf3b09d0407e4f" target="_top" xlink:title="TrkrCluster::getPosition">
<polygon fill="none" stroke="#000000" points="165.5,-219.5 165.5,-239.5 299.5,-239.5 299.5,-219.5 165.5,-219.5"/>
<text text-anchor="middle" x="232.5" y="-226.5" font-family="FreeSans" font-size="10.00" fill="#000000">TrkrCluster::getPosition</text>
</a>
</g>
</g>
<!-- Node1&#45;&gt;Node7 -->
<g id="edge6" class="edge">
<title>Node1&#45;&gt;Node7</title>
<path fill="none" stroke="#191970" d="M118.2236,-216.3269C130.2299,-217.7109 143.021,-219.1854 155.5368,-220.6282"/>
<polygon fill="#191970" stroke="#191970" points="155.16,-224.1078 165.495,-221.7761 155.9617,-217.1539 155.16,-224.1078"/>
</g>
<!-- Node8 -->
<g id="node8" class="node">
<title>Node8</title>
<g id="a_node8"><a xlink:href="../../d7/db0/namespaceTpcDefs.html#aaee8d42aaa9f7331459a8589f9550086" target="_top" xlink:title="Get the sector id from hitsetkey.">
<polygon fill="none" stroke="#000000" points="171,-180.5 171,-200.5 294,-200.5 294,-180.5 171,-180.5"/>
<text text-anchor="middle" x="232.5" y="-187.5" font-family="FreeSans" font-size="10.00" fill="#000000">TpcDefs::getSectorId</text>
</a>
</g>
</g>
<!-- Node1&#45;&gt;Node8 -->
<g id="edge7" class="edge">
<title>Node1&#45;&gt;Node8</title>
<path fill="none" stroke="#191970" d="M118.2236,-203.0144C131.8895,-201.5179 146.5722,-199.91 160.7085,-198.3619"/>
<polygon fill="#191970" stroke="#191970" points="161.3234,-201.8156 170.8829,-197.2477 160.5613,-194.8572 161.3234,-201.8156"/>
</g>
<!-- Node9 -->
<g id="node9" class="node">
<title>Node9</title>
<g id="a_node9"><a xlink:href="../../d7/db0/namespaceTpcDefs.html#aafa0c31bf0892588a224d8f0726bff11" target="_top" xlink:title="Get the side from hitsetkey.">
<polygon fill="none" stroke="#000000" points="181,-141.5 181,-161.5 284,-161.5 284,-141.5 181,-141.5"/>
<text text-anchor="middle" x="232.5" y="-148.5" font-family="FreeSans" font-size="10.00" fill="#000000">TpcDefs::getSide</text>
</a>
</g>
</g>
<!-- Node1&#45;&gt;Node9 -->
<g id="edge8" class="edge">
<title>Node1&#45;&gt;Node9</title>
<path fill="none" stroke="#191970" d="M96.0349,-193.3751C113.4335,-186.1398 134.577,-177.8287 154,-171.5 161.9772,-168.9007 170.4993,-166.4268 178.8793,-164.161"/>
<polygon fill="#191970" stroke="#191970" points="179.8294,-167.5302 188.6101,-161.6016 178.0488,-160.7605 179.8294,-167.5302"/>
</g>
<!-- Node10 -->
<g id="node10" class="node">
<title>Node10</title>
<g id="a_node10"><a xlink:href="../../da/db1/classMakeActsGeometry.html#a867a31bf129ec4182f2d7ed9295a7465" target="_top" xlink:title="MakeActsGeometry::getTpc\lSurfaceFromCoords">
<polygon fill="none" stroke="#000000" points="155,-90.5 155,-122.5 310,-122.5 310,-90.5 155,-90.5"/>
<text text-anchor="start" x="163" y="-109.5" font-family="FreeSans" font-size="10.00" fill="#000000">MakeActsGeometry::getTpc</text>
<text text-anchor="middle" x="232.5" y="-97.5" font-family="FreeSans" font-size="10.00" fill="#000000">SurfaceFromCoords</text>
</a>
</g>
</g>
<!-- Node1&#45;&gt;Node10 -->
<g id="edge9" class="edge">
<title>Node1&#45;&gt;Node10</title>
<path fill="none" stroke="#191970" d="M75.1537,-193.2872C93.0561,-176.1092 123.4527,-149.2072 154,-132.5 157.9322,-130.3493 162.0728,-128.3366 166.3124,-126.46"/>
<polygon fill="#191970" stroke="#191970" points="167.8093,-129.6285 175.7096,-122.5689 165.1313,-123.161 167.8093,-129.6285"/>
</g>
<!-- Node12 -->
<g id="node12" class="node">
<title>Node12</title>
<g id="a_node12"><a xlink:href="../../d7/df2/classPHActsSourceLinks.html#a2cd69d1ef6fd6dbe683b59b49b06a711" target="_top" xlink:title="Transform the covariance to the local coordinate frame.">
<polygon fill="none" stroke="#000000" points="166.5,-39.5 166.5,-71.5 298.5,-71.5 298.5,-39.5 166.5,-39.5"/>
<text text-anchor="start" x="174.5" y="-58.5" font-family="FreeSans" font-size="10.00" fill="#000000">PHActsSourceLinks::</text>
<text text-anchor="middle" x="232.5" y="-46.5" font-family="FreeSans" font-size="10.00" fill="#000000">transformCovarToLocal</text>
</a>
</g>
</g>
<!-- Node1&#45;&gt;Node12 -->
<g id="edge11" class="edge">
<title>Node1&#45;&gt;Node12</title>
<path fill="none" stroke="#191970" d="M66.8447,-193.225C80.7039,-166.1454 112.065,-111.8241 154,-81.5 156.5358,-79.6663 159.2088,-77.9564 161.9773,-76.3625"/>
<polygon fill="#191970" stroke="#191970" points="163.8125,-79.3541 171.0932,-71.6572 160.6018,-73.1338 163.8125,-79.3541"/>
</g>
<!-- Node14 -->
<g id="node14" class="node">
<title>Node14</title>
<g id="a_node14"><a xlink:href="../../d5/dec/classFun4AllBase.html#a8a5c77a92bdac6bc043476e132379a40" target="_top" xlink:title="Gets the verbosity of this module.">
<polygon fill="none" stroke="#000000" points="166.5,-.5 166.5,-20.5 298.5,-20.5 298.5,-.5 166.5,-.5"/>
<text text-anchor="middle" x="232.5" y="-7.5" font-family="FreeSans" font-size="10.00" fill="#000000">Fun4AllBase::Verbosity</text>
</a>
</g>
</g>
<!-- Node1&#45;&gt;Node14 -->
<g id="edge13" class="edge">
<title>Node1&#45;&gt;Node14</title>
<path fill="none" stroke="#191970" d="M62.8454,-193.2644C72.0837,-157.93 98.9571,-73.7659 154,-30.5 156.5984,-28.4576 159.3812,-26.6216 162.2927,-24.9714"/>
<polygon fill="#191970" stroke="#191970" points="163.8992,-28.0821 171.3575,-20.5572 160.8345,-21.7886 163.8992,-28.0821"/>
</g>
<!-- Node3 -->
<g id="node3" class="node">
<title>Node3</title>
<g id="a_node3"><a xlink:href="../../d6/d3f/namespaceTrkrDefs.html#a418e306477093b8d17d587be70b908a3" target="_top" xlink:title="generate the common upper 16 bits for hitsetkey">
<polygon fill="none" stroke="#000000" points="347,-387.5 347,-407.5 481,-407.5 481,-387.5 347,-387.5"/>
<text text-anchor="middle" x="414" y="-394.5" font-family="FreeSans" font-size="10.00" fill="#000000">TrkrDefs::genHitSetKey</text>
</a>
</g>
</g>
<!-- Node2&#45;&gt;Node3 -->
<g id="edge2" class="edge">
<title>Node2&#45;&gt;Node3</title>
<path fill="none" stroke="#191970" d="M299.5682,-397.5C311.6387,-397.5 324.3101,-397.5 336.6441,-397.5"/>
<polygon fill="#191970" stroke="#191970" points="336.9046,-401.0001 346.9046,-397.5 336.9046,-394.0001 336.9046,-401.0001"/>
</g>
<!-- Node11 -->
<g id="node11" class="node">
<title>Node11</title>
<g id="a_node11"><a xlink:href="../../df/de8/cemc_8C.html#adf5c804dfce7a70e36dda02995fad481" target="_top" xlink:title="exit">
<polygon fill="none" stroke="#000000" points="396.5,-96.5 396.5,-116.5 431.5,-116.5 431.5,-96.5 396.5,-96.5"/>
<text text-anchor="middle" x="414" y="-103.5" font-family="FreeSans" font-size="10.00" fill="#000000">exit</text>
</a>
</g>
</g>
<!-- Node10&#45;&gt;Node11 -->
<g id="edge10" class="edge">
<title>Node10&#45;&gt;Node11</title>
<path fill="none" stroke="#191970" d="M310.2622,-106.5C337.3392,-106.5 365.9914,-106.5 386.3066,-106.5"/>
<polygon fill="#191970" stroke="#191970" points="386.3947,-110.0001 396.3947,-106.5 386.3946,-103.0001 386.3947,-110.0001"/>
</g>
<!-- Node13 -->
<g id="node13" class="node">
<title>Node13</title>
<g id="a_node13"><a xlink:href="../../df/de8/cemc_8C.html#a72d4716092b469b4bc1d816359a90e14" target="_top" xlink:title="cos">
<polygon fill="none" stroke="#000000" points="397.5,-45.5 397.5,-65.5 430.5,-65.5 430.5,-45.5 397.5,-45.5"/>
<text text-anchor="middle" x="414" y="-52.5" font-family="FreeSans" font-size="10.00" fill="#000000">cos</text>
</a>
</g>
</g>
<!-- Node12&#45;&gt;Node13 -->
<g id="edge12" class="edge">
<title>Node12&#45;&gt;Node13</title>
<path fill="none" stroke="#191970" d="M298.5391,-55.5C329.1643,-55.5 363.8537,-55.5 387.145,-55.5"/>
<polygon fill="#191970" stroke="#191970" points="387.292,-59.0001 397.292,-55.5 387.292,-52.0001 387.292,-59.0001"/>
</g>
</g>
</svg>
