<?xml version="1.0" encoding="UTF-8" standalone="no"?>
<!DOCTYPE svg PUBLIC "-//W3C//DTD SVG 1.1//EN"
 "http://www.w3.org/Graphics/SVG/1.1/DTD/svg11.dtd">
<!-- Generated by graphviz version 2.40.1 (20161225.0304)
 -->
<!-- Title: PHG4DSTReader::set_tower_zero_sup Pages: 1 -->
<svg width="490pt" height="185pt"
 viewBox="0.00 0.00 490.00 185.00" xmlns="http://www.w3.org/2000/svg" xmlns:xlink="http://www.w3.org/1999/xlink">
<g id="graph0" class="graph" transform="scale(1 1) rotate(0) translate(4 181)">
<title>PHG4DSTReader::set_tower_zero_sup</title>
<!-- Node1 -->
<g id="node1" class="node">
<title>Node1</title>
<polygon fill="#bfbfbf" stroke="#000000" points="0,-33.5 0,-65.5 123,-65.5 123,-33.5 0,-33.5"/>
<text text-anchor="start" x="8" y="-52.5" font-family="FreeSans" font-size="10.00" fill="#000000">PHG4DSTReader::set</text>
<text text-anchor="middle" x="61.5" y="-40.5" font-family="FreeSans" font-size="10.00" fill="#000000">_tower_zero_sup</text>
</g>
<!-- Node2 -->
<g id="node2" class="node">
<title>Node2</title>
<g id="a_node2"><a xlink:href="../../d1/d05/G4__DSTReader_8C.html#aae87b67a3fc1892b475dc629db854fb1" target="_top" xlink:title="G4DSTreader">
<polygon fill="none" stroke="#000000" points="191.5,-97.5 191.5,-117.5 274.5,-117.5 274.5,-97.5 191.5,-97.5"/>
<text text-anchor="middle" x="233" y="-104.5" font-family="FreeSans" font-size="10.00" fill="#000000">G4DSTreader</text>
</a>
</g>
</g>
<!-- Node1&#45;&gt;Node2 -->
<g id="edge1" class="edge">
<title>Node1&#45;&gt;Node2</title>
<path fill="none" stroke="#191970" d="M118.6296,-68.8208C146.9949,-78.4137 180.0798,-89.6028 203.3464,-97.4714"/>
<polygon fill="#191970" stroke="#191970" points="119.4114,-65.3905 108.8171,-65.5023 117.1687,-72.0216 119.4114,-65.3905"/>
</g>
<!-- Node6 -->
<g id="node6" class="node">
<title>Node6</title>
<g id="a_node6"><a xlink:href="../../d0/d9a/G4__DSTReader__EICDetector_8C.html#a3c95a5ba8e13c6b9f5ac978dbf2abeda" target="_top" xlink:title="G4DSTreader_EICDetector">
<polygon fill="none" stroke="#000000" points="159,-39.5 159,-59.5 307,-59.5 307,-39.5 159,-39.5"/>
<text text-anchor="middle" x="233" y="-46.5" font-family="FreeSans" font-size="10.00" fill="#000000">G4DSTreader_EICDetector</text>
</a>
</g>
</g>
<!-- Node1&#45;&gt;Node6 -->
<g id="edge5" class="edge">
<title>Node1&#45;&gt;Node6</title>
<path fill="none" stroke="#191970" d="M133.5335,-49.5C141.9199,-49.5 150.486,-49.5 158.8996,-49.5"/>
<polygon fill="#191970" stroke="#191970" points="133.4155,-46.0001 123.4154,-49.5 133.4154,-53.0001 133.4155,-46.0001"/>
</g>
<!-- Node8 -->
<g id="node8" class="node">
<title>Node8</title>
<g id="a_node8"><a xlink:href="../../d7/dfd/G4__DSTReader__fsPHENIX_8C.html#a369eb57e3fef872b2b1c43dbe2ed571c" target="_top" xlink:title="G4DSTreader_fsPHENIX">
<polygon fill="none" stroke="#000000" points="166,-.5 166,-20.5 300,-20.5 300,-.5 166,-.5"/>
<text text-anchor="middle" x="233" y="-7.5" font-family="FreeSans" font-size="10.00" fill="#000000">G4DSTreader_fsPHENIX</text>
</a>
</g>
</g>
<!-- Node1&#45;&gt;Node8 -->
<g id="edge7" class="edge">
<title>Node1&#45;&gt;Node8</title>
<path fill="none" stroke="#191970" d="M133.1973,-33.1957C152.1048,-28.896 171.9494,-24.3832 188.918,-20.5245"/>
<polygon fill="#191970" stroke="#191970" points="132.3904,-29.7897 123.4154,-35.4201 133.9426,-36.6155 132.3904,-29.7897"/>
</g>
<!-- Node3 -->
<g id="node3" class="node">
<title>Node3</title>
<g id="a_node3"><a xlink:href="../../db/dc0/Fun4All__AnaTutorial_8C.html#a8c484ea6d7477278e981ef056b17eac9" target="_top" xlink:title="Fun4All_AnaTutorial">
<polygon fill="none" stroke="#000000" points="355,-156.5 355,-176.5 470,-176.5 470,-156.5 355,-156.5"/>
<text text-anchor="middle" x="412.5" y="-163.5" font-family="FreeSans" font-size="10.00" fill="#000000">Fun4All_AnaTutorial</text>
</a>
</g>
</g>
<!-- Node2&#45;&gt;Node3 -->
<g id="edge2" class="edge">
<title>Node2&#45;&gt;Node3</title>
<path fill="none" stroke="#191970" d="M268.3764,-121.2C289.8185,-129.2941 317.8097,-139.4915 343,-147.5 352.7751,-150.6077 363.4187,-153.6739 373.3715,-156.4064"/>
<polygon fill="#191970" stroke="#191970" points="269.6103,-117.9248 259.0191,-117.6445 267.1239,-124.4683 269.6103,-117.9248"/>
</g>
<!-- Node4 -->
<g id="node4" class="node">
<title>Node4</title>
<g id="a_node4"><a xlink:href="../../dd/d28/Fun4All__AnaTutorial__Jets_8C.html#a55eaaeb770a3177f917012de87877d28" target="_top" xlink:title="Fun4All_AnaTutorial_Jets">
<polygon fill="none" stroke="#000000" points="343,-117.5 343,-137.5 482,-137.5 482,-117.5 343,-117.5"/>
<text text-anchor="middle" x="412.5" y="-124.5" font-family="FreeSans" font-size="10.00" fill="#000000">Fun4All_AnaTutorial_Jets</text>
</a>
</g>
</g>
<!-- Node2&#45;&gt;Node4 -->
<g id="edge3" class="edge">
<title>Node2&#45;&gt;Node4</title>
<path fill="none" stroke="#191970" d="M284.717,-113.2623C302.8784,-115.2859 323.589,-117.5935 342.9722,-119.7532"/>
<polygon fill="#191970" stroke="#191970" points="284.9582,-109.7676 274.6321,-112.1387 284.183,-116.7246 284.9582,-109.7676"/>
</g>
<!-- Node5 -->
<g id="node5" class="node">
<title>Node5</title>
<g id="a_node5"><a xlink:href="../../d0/d13/Fun4All__G4__sPHENIX_8C.html#a536fa7366e3aeaf273cca94ced704c46" target="_top" xlink:title="Fun4All_G4_sPHENIX">
<polygon fill="none" stroke="#000000" points="352,-78.5 352,-98.5 473,-98.5 473,-78.5 352,-78.5"/>
<text text-anchor="middle" x="412.5" y="-85.5" font-family="FreeSans" font-size="10.00" fill="#000000">Fun4All_G4_sPHENIX</text>
</a>
</g>
</g>
<!-- Node2&#45;&gt;Node5 -->
<g id="edge4" class="edge">
<title>Node2&#45;&gt;Node5</title>
<path fill="none" stroke="#191970" d="M284.6136,-102.0367C305.5565,-99.8199 329.9028,-97.2429 351.6982,-94.9358"/>
<polygon fill="#191970" stroke="#191970" points="284.2081,-98.56 274.6321,-103.0933 284.945,-105.5211 284.2081,-98.56"/>
</g>
<!-- Node7 -->
<g id="node7" class="node">
<title>Node7</title>
<g id="a_node7"><a xlink:href="../../da/d02/Fun4All__G4__EICDetector_8C.html#afbe82cefa1d1fd031d9a8586b7bb68c6" target="_top" xlink:title="Fun4All_G4_EICDetector">
<polygon fill="none" stroke="#000000" points="343,-39.5 343,-59.5 482,-59.5 482,-39.5 343,-39.5"/>
<text text-anchor="middle" x="412.5" y="-46.5" font-family="FreeSans" font-size="10.00" fill="#000000">Fun4All_G4_EICDetector</text>
</a>
</g>
</g>
<!-- Node6&#45;&gt;Node7 -->
<g id="edge6" class="edge">
<title>Node6&#45;&gt;Node7</title>
<path fill="none" stroke="#191970" d="M317.1389,-49.5C325.7804,-49.5 334.4915,-49.5 342.9501,-49.5"/>
<polygon fill="#191970" stroke="#191970" points="317.0459,-46.0001 307.0459,-49.5 317.0458,-53.0001 317.0459,-46.0001"/>
</g>
<!-- Node9 -->
<g id="node9" class="node">
<title>Node9</title>
<g id="a_node9"><a xlink:href="../../d7/d9e/Fun4All__G4__fsPHENIX_8C.html#a72c444217210a14ab1b4e66d9818b1ff" target="_top" xlink:title="Fun4All_G4_fsPHENIX">
<polygon fill="none" stroke="#000000" points="350.5,-.5 350.5,-20.5 474.5,-20.5 474.5,-.5 350.5,-.5"/>
<text text-anchor="middle" x="412.5" y="-7.5" font-family="FreeSans" font-size="10.00" fill="#000000">Fun4All_G4_fsPHENIX</text>
</a>
</g>
</g>
<!-- Node8&#45;&gt;Node9 -->
<g id="edge8" class="edge">
<title>Node8&#45;&gt;Node9</title>
<path fill="none" stroke="#191970" d="M310.2208,-10.5C323.5857,-10.5 337.3286,-10.5 350.2327,-10.5"/>
<polygon fill="#191970" stroke="#191970" points="310.0945,-7.0001 300.0944,-10.5 310.0944,-14.0001 310.0945,-7.0001"/>
</g>
</g>
</svg>
