<?xml version="1.0" encoding="UTF-8" standalone="no"?>
<!DOCTYPE svg PUBLIC "-//W3C//DTD SVG 1.1//EN"
 "http://www.w3.org/Graphics/SVG/1.1/DTD/svg11.dtd">
<!-- Generated by graphviz version 2.40.1 (20161225.0304)
 -->
<!-- Title: main Pages: 1 -->
<svg width="1017pt" height="798pt"
 viewBox="0.00 0.00 1017.00 798.00" xmlns="http://www.w3.org/2000/svg" xmlns:xlink="http://www.w3.org/1999/xlink">
<g id="graph0" class="graph" transform="scale(1 1) rotate(0) translate(4 794)">
<title>main</title>
<!-- Node1 -->
<g id="node1" class="node">
<title>Node1</title>
<polygon fill="#bfbfbf" stroke="#000000" points="0,-280.5 0,-300.5 41,-300.5 41,-280.5 0,-280.5"/>
<text text-anchor="middle" x="20.5" y="-287.5" font-family="FreeSans" font-size="10.00" fill="#000000">main</text>
</g>
<!-- Node2 -->
<g id="node2" class="node">
<title>Node2</title>
<g id="a_node2"><a xlink:href="../../df/de8/cemc_8C.html#adf5c804dfce7a70e36dda02995fad481" target="_top" xlink:title="exit">
<polygon fill="none" stroke="#000000" points="275,-769.5 275,-789.5 310,-789.5 310,-769.5 275,-769.5"/>
<text text-anchor="middle" x="292.5" y="-776.5" font-family="FreeSans" font-size="10.00" fill="#000000">exit</text>
</a>
</g>
</g>
<!-- Node1&#45;&gt;Node2 -->
<g id="edge1" class="edge">
<title>Node1&#45;&gt;Node2</title>
<path fill="none" stroke="#191970" d="M21.1978,-300.5797C25.5948,-355.9343 54.3825,-625.1756 205,-754.5 221.6103,-768.7621 245.8766,-774.9092 264.6435,-777.5477"/>
<polygon fill="#191970" stroke="#191970" points="264.3534,-781.0374 274.6886,-778.7063 265.1556,-774.0835 264.3534,-781.0374"/>
</g>
<!-- Node3 -->
<g id="node3" class="node">
<title>Node3</title>
<g id="a_node3"><a xlink:href="../../da/d40/classbuffer.html#a849bbe592eb218e755e0d28cfefcec96" target="_top" xlink:title="buffer::i4swap">
<polygon fill="none" stroke="#000000" points="78.5,-280.5 78.5,-300.5 167.5,-300.5 167.5,-280.5 78.5,-280.5"/>
<text text-anchor="middle" x="123" y="-287.5" font-family="FreeSans" font-size="10.00" fill="#000000">buffer::i4swap</text>
</a>
</g>
</g>
<!-- Node1&#45;&gt;Node3 -->
<g id="edge2" class="edge">
<title>Node1&#45;&gt;Node3</title>
<path fill="none" stroke="#191970" d="M41.2424,-290.5C49.061,-290.5 58.369,-290.5 67.8559,-290.5"/>
<polygon fill="#191970" stroke="#191970" points="68.1585,-294.0001 78.1585,-290.5 68.1585,-287.0001 68.1585,-294.0001"/>
</g>
<!-- Node4 -->
<g id="node4" class="node">
<title>Node4</title>
<g id="a_node4"><a xlink:href="../../d0/d95/ip_8C.html#a292ff32a75b66b513d1f0ce00f9a4dc4" target="_top" xlink:title="ip">
<polygon fill="none" stroke="#000000" points="108.5,-445.5 108.5,-465.5 137.5,-465.5 137.5,-445.5 108.5,-445.5"/>
<text text-anchor="middle" x="123" y="-452.5" font-family="FreeSans" font-size="10.00" fill="#000000">ip</text>
</a>
</g>
</g>
<!-- Node1&#45;&gt;Node4 -->
<g id="edge3" class="edge">
<title>Node1&#45;&gt;Node4</title>
<path fill="none" stroke="#191970" d="M26.9118,-300.8215C43.7375,-327.9068 89.3541,-401.3382 111.1259,-436.3855"/>
<polygon fill="#191970" stroke="#191970" points="108.3407,-438.5349 116.5906,-445.1824 114.2868,-434.8411 108.3407,-438.5349"/>
</g>
<!-- Node35 -->
<g id="node35" class="node">
<title>Node35</title>
<g id="a_node35"><a xlink:href="../../d3/ded/read_8cxx.html#adc13fae4527b0f50f12b1b164ac15ec2" target="_top" xlink:title="read">
<polygon fill="none" stroke="#000000" points="104,-135.5 104,-155.5 142,-155.5 142,-135.5 104,-135.5"/>
<text text-anchor="middle" x="123" y="-142.5" font-family="FreeSans" font-size="10.00" fill="#000000">read</text>
</a>
</g>
</g>
<!-- Node1&#45;&gt;Node35 -->
<g id="edge44" class="edge">
<title>Node1&#45;&gt;Node35</title>
<path fill="none" stroke="#191970" d="M27.8715,-280.072C45.0844,-255.722 88.1108,-194.8554 109.9066,-164.0224"/>
<polygon fill="#191970" stroke="#191970" points="112.7809,-166.0197 115.6952,-155.8336 107.0648,-161.979 112.7809,-166.0197"/>
</g>
<!-- Node43 -->
<g id="node43" class="node">
<title>Node43</title>
<g id="a_node43"><a xlink:href="../../da/d40/classbuffer.html#a64cad9a58ad2640b9dc371ff4e181c78" target="_top" xlink:title="buffer::u4swap">
<polygon fill="none" stroke="#000000" points="77,-96.5 77,-116.5 169,-116.5 169,-96.5 77,-96.5"/>
<text text-anchor="middle" x="123" y="-103.5" font-family="FreeSans" font-size="10.00" fill="#000000">buffer::u4swap</text>
</a>
</g>
</g>
<!-- Node1&#45;&gt;Node43 -->
<g id="edge52" class="edge">
<title>Node1&#45;&gt;Node43</title>
<path fill="none" stroke="#191970" d="M21.1646,-280.1127C23.525,-251.6337 33.8635,-171.3878 77,-125.5 78.0357,-124.3983 79.1447,-123.3584 80.3122,-122.377"/>
<polygon fill="#191970" stroke="#191970" points="82.3747,-125.2077 88.7089,-116.7148 78.461,-119.404 82.3747,-125.2077"/>
</g>
<!-- Node4&#45;&gt;Node2 -->
<g id="edge12" class="edge">
<title>Node4&#45;&gt;Node2</title>
<path fill="none" stroke="#191970" d="M125.6225,-465.59C139.043,-517.1571 199.617,-749.0595 205,-754.5 220.6574,-770.3248 245.5874,-776.3031 264.8389,-778.48"/>
<polygon fill="#191970" stroke="#191970" points="264.5931,-781.9716 274.855,-779.3367 265.1897,-774.9971 264.5931,-781.9716"/>
</g>
<!-- Node5 -->
<g id="node5" class="node">
<title>Node5</title>
<g id="a_node5"><a xlink:href="../../da/d86/classEicGeoMap.html#a4138a501100028aef473a4b9508d36d3" target="_top" xlink:title="EicGeoMap::AddGeantVolume\lLevel">
<polygon fill="none" stroke="#000000" points="654,-738.5 654,-770.5 822,-770.5 822,-738.5 654,-738.5"/>
<text text-anchor="start" x="662" y="-757.5" font-family="FreeSans" font-size="10.00" fill="#000000">EicGeoMap::AddGeantVolume</text>
<text text-anchor="middle" x="738" y="-745.5" font-family="FreeSans" font-size="10.00" fill="#000000">Level</text>
</a>
</g>
</g>
<!-- Node4&#45;&gt;Node5 -->
<g id="edge4" class="edge">
<title>Node4&#45;&gt;Node5</title>
<path fill="none" stroke="#191970" d="M127.8136,-465.5827C136.6273,-484.2514 155.6752,-525.5752 169,-561.5 187.7724,-612.112 163.9459,-642.4495 205,-677.5 327.638,-782.2038 526.9582,-780.7753 643.9696,-768.6968"/>
<polygon fill="#191970" stroke="#191970" points="644.4203,-772.1686 653.9871,-767.6159 643.6693,-765.209 644.4203,-772.1686"/>
</g>
<!-- Node7 -->
<g id="node7" class="node">
<title>Node7</title>
<g id="a_node7"><a xlink:href="../../df/de0/classEicGeoParData.html#a131e36442e699277af7e0e05dd70d7c7" target="_top" xlink:title="EicGeoParData::AddLogical\lVolumeGroup">
<polygon fill="none" stroke="#000000" points="661.5,-610.5 661.5,-642.5 814.5,-642.5 814.5,-610.5 661.5,-610.5"/>
<text text-anchor="start" x="669.5" y="-629.5" font-family="FreeSans" font-size="10.00" fill="#000000">EicGeoParData::AddLogical</text>
<text text-anchor="middle" x="738" y="-617.5" font-family="FreeSans" font-size="10.00" fill="#000000">VolumeGroup</text>
</a>
</g>
</g>
<!-- Node4&#45;&gt;Node7 -->
<g id="edge6" class="edge">
<title>Node4&#45;&gt;Node7</title>
<path fill="none" stroke="#191970" d="M127.3984,-465.5843C143.8591,-503.2754 201.087,-633.8571 205,-636.5 353.5997,-736.864 582.5709,-679.5818 685.1396,-645.7895"/>
<polygon fill="#191970" stroke="#191970" points="686.2938,-649.0941 694.6641,-642.5987 684.0702,-642.4566 686.2938,-649.0941"/>
</g>
<!-- Node10 -->
<g id="node10" class="node">
<title>Node10</title>
<g id="a_node10"><a xlink:href="../../dd/d0b/classEicNamePatternHub.html#abe35bc0e1b9b51fa1f2c0c45bcf78dec" target="_top" xlink:title="EicNamePatternHub::\lAddPatternMatch">
<polygon fill="none" stroke="#000000" points="231,-543.5 231,-575.5 354,-575.5 354,-543.5 231,-543.5"/>
<text text-anchor="start" x="239" y="-562.5" font-family="FreeSans" font-size="10.00" fill="#000000">EicNamePatternHub::</text>
<text text-anchor="middle" x="292.5" y="-550.5" font-family="FreeSans" font-size="10.00" fill="#000000">AddPatternMatch</text>
</a>
</g>
</g>
<!-- Node4&#45;&gt;Node10 -->
<g id="edge10" class="edge">
<title>Node4&#45;&gt;Node10</title>
<path fill="none" stroke="#191970" d="M130.6786,-465.6028C143.9781,-482.4017 172.9666,-516.051 205,-534.5 210.0869,-537.4297 215.5405,-540.0356 221.1471,-542.35"/>
<polygon fill="#191970" stroke="#191970" points="220.0982,-545.6956 230.6894,-545.9755 222.5844,-539.1519 220.0982,-545.6956"/>
</g>
<!-- Node11 -->
<g id="node11" class="node">
<title>Node11</title>
<g id="a_node11"><a xlink:href="../../df/de0/classEicGeoParData.html#a0a19d07a4f67c4a5cb0884a9992f44d7" target="_top" xlink:title="EicGeoParData::CreateNewMap">
<polygon fill="none" stroke="#000000" points="205,-504.5 205,-524.5 380,-524.5 380,-504.5 205,-504.5"/>
<text text-anchor="middle" x="292.5" y="-511.5" font-family="FreeSans" font-size="10.00" fill="#000000">EicGeoParData::CreateNewMap</text>
</a>
</g>
</g>
<!-- Node4&#45;&gt;Node11 -->
<g id="edge11" class="edge">
<title>Node4&#45;&gt;Node11</title>
<path fill="none" stroke="#191970" d="M137.6164,-462.1589C153.8663,-469.4205 180.9905,-481.1235 205,-489.5 217.4767,-493.8529 231.141,-498.0301 243.8849,-501.6818"/>
<polygon fill="#191970" stroke="#191970" points="243.2935,-505.1512 253.8677,-504.491 245.1897,-498.4129 243.2935,-505.1512"/>
</g>
<!-- Node12 -->
<g id="node12" class="node">
<title>Node12</title>
<g id="a_node12"><a xlink:href="../../df/de0/classEicGeoParData.html#a5464c1947d87d36569891ada6aafb22c" target="_top" xlink:title="EicGeoParData::FinalizeOutput">
<polygon fill="none" stroke="#000000" points="207,-426.5 207,-446.5 378,-446.5 378,-426.5 207,-426.5"/>
<text text-anchor="middle" x="292.5" y="-433.5" font-family="FreeSans" font-size="10.00" fill="#000000">EicGeoParData::FinalizeOutput</text>
</a>
</g>
</g>
<!-- Node4&#45;&gt;Node12 -->
<g id="edge13" class="edge">
<title>Node4&#45;&gt;Node12</title>
<path fill="none" stroke="#191970" d="M137.7455,-453.8471C151.6292,-452.2908 173.7053,-449.8162 196.884,-447.218"/>
<polygon fill="#191970" stroke="#191970" points="197.3167,-450.6915 206.8645,-446.0993 196.5368,-443.7351 197.3167,-450.6915"/>
</g>
<!-- Node13 -->
<g id="node13" class="node">
<title>Node13</title>
<g id="a_node13"><a xlink:href="../../df/de0/classEicGeoParData.html#a98e43e3d66fdb531cabaccd39f09ebc3" target="_top" xlink:title="EicGeoParData::GetColorTable">
<polygon fill="none" stroke="#000000" points="423.5,-486.5 423.5,-506.5 592.5,-506.5 592.5,-486.5 423.5,-486.5"/>
<text text-anchor="middle" x="508" y="-493.5" font-family="FreeSans" font-size="10.00" fill="#000000">EicGeoParData::GetColorTable</text>
</a>
</g>
</g>
<!-- Node4&#45;&gt;Node13 -->
<g id="edge24" class="edge">
<title>Node4&#45;&gt;Node13</title>
<path fill="none" stroke="#191970" d="M137.6223,-457.0572C182.1505,-461.7991 318.7802,-476.3493 413.0259,-486.3859"/>
<polygon fill="#191970" stroke="#191970" points="412.8383,-489.8856 423.1527,-487.4643 413.5796,-482.925 412.8383,-489.8856"/>
</g>
<!-- Node15 -->
<g id="node15" class="node">
<title>Node15</title>
<g id="a_node15"><a xlink:href="../../df/de0/classEicGeoParData.html#a75991633a97d0a9b3140ba103f225691" target="_top" xlink:title="EicGeoParData::GetTransparency\lTable">
<polygon fill="none" stroke="#000000" points="416,-294.5 416,-326.5 600,-326.5 600,-294.5 416,-294.5"/>
<text text-anchor="start" x="424" y="-313.5" font-family="FreeSans" font-size="10.00" fill="#000000">EicGeoParData::GetTransparency</text>
<text text-anchor="middle" x="508" y="-301.5" font-family="FreeSans" font-size="10.00" fill="#000000">Table</text>
</a>
</g>
</g>
<!-- Node4&#45;&gt;Node15 -->
<g id="edge29" class="edge">
<title>Node4&#45;&gt;Node15</title>
<path fill="none" stroke="#191970" d="M137.7162,-447.503C153.8298,-439.0291 180.628,-425.7559 205,-417.5 280.4732,-391.9338 311.6824,-419.5187 380,-378.5 401.078,-365.8445 395.2856,-349.7422 416,-336.5 419.1946,-334.4578 422.5516,-332.573 426.0166,-330.8339"/>
<polygon fill="#191970" stroke="#191970" points="427.7514,-333.8898 435.4036,-326.5621 424.852,-327.5185 427.7514,-333.8898"/>
</g>
<!-- Node23 -->
<g id="node23" class="node">
<title>Node23</title>
<g id="a_node23"><a xlink:href="../../df/de0/classEicGeoParData.html#af50661ee10308b08071f9feb1b57493b" target="_top" xlink:title="EicGeoParData::GetMedium">
<polygon fill="none" stroke="#000000" points="214.5,-348.5 214.5,-368.5 370.5,-368.5 370.5,-348.5 214.5,-348.5"/>
<text text-anchor="middle" x="292.5" y="-355.5" font-family="FreeSans" font-size="10.00" fill="#000000">EicGeoParData::GetMedium</text>
</a>
</g>
</g>
<!-- Node4&#45;&gt;Node23 -->
<g id="edge25" class="edge">
<title>Node4&#45;&gt;Node23</title>
<path fill="none" stroke="#191970" d="M131.7762,-445.3255C145.7405,-429.7616 174.5651,-400.104 205,-383.5 213.7376,-378.7332 223.4738,-374.7984 233.188,-371.575"/>
<polygon fill="#191970" stroke="#191970" points="234.3379,-374.883 242.857,-368.5841 232.2693,-368.1956 234.3379,-374.883"/>
</g>
<!-- Node26 -->
<g id="node26" class="node">
<title>Node26</title>
<g id="a_node26"><a xlink:href="../../df/de0/classEicGeoParData.html#a37c307a8b444e89fd125f6d273a1c894" target="_top" xlink:title="EicGeoParData::GetTopVolume">
<polygon fill="none" stroke="#000000" points="207,-309.5 207,-329.5 378,-329.5 378,-309.5 207,-309.5"/>
<text text-anchor="middle" x="292.5" y="-316.5" font-family="FreeSans" font-size="10.00" fill="#000000">EicGeoParData::GetTopVolume</text>
</a>
</g>
</g>
<!-- Node4&#45;&gt;Node26 -->
<g id="edge28" class="edge">
<title>Node4&#45;&gt;Node26</title>
<path fill="none" stroke="#191970" d="M127.1714,-445.2161C137.0207,-422.3084 164.0161,-366.946 205,-339.5 208.3279,-337.2714 211.8697,-335.2886 215.5487,-333.5249"/>
<polygon fill="#191970" stroke="#191970" points="217.0731,-336.6808 224.9331,-329.5765 214.3583,-330.2286 217.0731,-336.6808"/>
</g>
<!-- Node27 -->
<g id="node27" class="node">
<title>Node27</title>
<g id="a_node27"><a xlink:href="../../df/de0/classEicGeoParData.html#a304fa90a3bc1944d2c997257ed56b6a7" target="_top" xlink:title="EicGeoParData::SetFileName">
<polygon fill="none" stroke="#000000" points="212,-270.5 212,-290.5 373,-290.5 373,-270.5 212,-270.5"/>
<text text-anchor="middle" x="292.5" y="-277.5" font-family="FreeSans" font-size="10.00" fill="#000000">EicGeoParData::SetFileName</text>
</a>
</g>
</g>
<!-- Node4&#45;&gt;Node27 -->
<g id="edge30" class="edge">
<title>Node4&#45;&gt;Node27</title>
<path fill="none" stroke="#191970" d="M125.2688,-445.2612C132.0277,-417.2789 154.7613,-339.0458 205,-300.5 207.6581,-298.4606 210.4868,-296.6227 213.4389,-294.9668"/>
<polygon fill="#191970" stroke="#191970" points="215.1401,-298.0319 222.6174,-290.5258 212.0913,-291.7307 215.1401,-298.0319"/>
</g>
<!-- Node28 -->
<g id="node28" class="node">
<title>Node28</title>
<g id="a_node28"><a xlink:href="../../df/de0/classEicGeoParData.html#a85796e06ee06c2b0973409350d2c054d" target="_top" xlink:title="EicGeoParData::SetMapping\lTableEntry">
<polygon fill="none" stroke="#000000" points="213.5,-594.5 213.5,-626.5 371.5,-626.5 371.5,-594.5 213.5,-594.5"/>
<text text-anchor="start" x="221.5" y="-613.5" font-family="FreeSans" font-size="10.00" fill="#000000">EicGeoParData::SetMapping</text>
<text text-anchor="middle" x="292.5" y="-601.5" font-family="FreeSans" font-size="10.00" fill="#000000">TableEntry</text>
</a>
</g>
</g>
<!-- Node4&#45;&gt;Node28 -->
<g id="edge31" class="edge">
<title>Node4&#45;&gt;Node28</title>
<path fill="none" stroke="#191970" d="M126.5151,-465.7316C135.4907,-490.3043 161.6544,-553.0126 205,-585.5 206.8489,-586.8858 208.7721,-588.1948 210.7552,-589.4313"/>
<polygon fill="#191970" stroke="#191970" points="209.3393,-592.647 219.7878,-594.4016 212.714,-586.5142 209.3393,-592.647"/>
</g>
<!-- Node34 -->
<g id="node34" class="node">
<title>Node34</title>
<g id="a_node34"><a xlink:href="../../da/d86/classEicGeoMap.html#a77e724ceee76044c2346a4b35be1f90e" target="_top" xlink:title="EicGeoMap::SetSingleSensor\lContainerVolume">
<polygon fill="none" stroke="#000000" points="211,-219.5 211,-251.5 374,-251.5 374,-219.5 211,-219.5"/>
<text text-anchor="start" x="219" y="-238.5" font-family="FreeSans" font-size="10.00" fill="#000000">EicGeoMap::SetSingleSensor</text>
<text text-anchor="middle" x="292.5" y="-226.5" font-family="FreeSans" font-size="10.00" fill="#000000">ContainerVolume</text>
</a>
</g>
</g>
<!-- Node4&#45;&gt;Node34 -->
<g id="edge43" class="edge">
<title>Node4&#45;&gt;Node34</title>
<path fill="none" stroke="#191970" d="M126.0708,-445.2063C137.0724,-408.953 175.4325,-287.9531 205,-261.5 206.7273,-259.9546 208.5428,-258.501 210.4308,-257.1336"/>
<polygon fill="#191970" stroke="#191970" points="212.5173,-259.9563 219.1246,-251.6742 208.7946,-254.0283 212.5173,-259.9563"/>
</g>
<!-- Node6 -->
<g id="node6" class="node">
<title>Node6</title>
<g id="a_node6"><a xlink:href="../../da/d23/msg__buffer_8cc.html#a98631211a4a8aee62f572375d5b637be" target="_top" xlink:title="printf">
<polygon fill="none" stroke="#000000" points="920.5,-661.5 920.5,-681.5 964.5,-681.5 964.5,-661.5 920.5,-661.5"/>
<text text-anchor="middle" x="942.5" y="-668.5" font-family="FreeSans" font-size="10.00" fill="#000000">printf</text>
</a>
</g>
</g>
<!-- Node5&#45;&gt;Node6 -->
<g id="edge5" class="edge">
<title>Node5&#45;&gt;Node6</title>
<path fill="none" stroke="#191970" d="M797.131,-738.4391C811.3385,-734.058 826.3481,-728.9887 840,-723.5 866.5313,-712.8333 895.4782,-697.814 915.8225,-686.6577"/>
<polygon fill="#191970" stroke="#191970" points="917.7495,-689.5913 924.7972,-681.6805 914.3546,-683.4697 917.7495,-689.5913"/>
</g>
<!-- Node7&#45;&gt;Node6 -->
<g id="edge7" class="edge">
<title>Node7&#45;&gt;Node6</title>
<path fill="none" stroke="#191970" d="M810.9631,-642.5555C844.9878,-650.0425 883.7376,-658.5694 910.3175,-664.4183"/>
<polygon fill="#191970" stroke="#191970" points="909.701,-667.8663 920.2195,-666.5972 911.2054,-661.0298 909.701,-667.8663"/>
</g>
<!-- Node8 -->
<g id="node8" class="node">
<title>Node8</title>
<g id="a_node8"><a xlink:href="../../dd/d20/classEicBitMask.html#a23ae6782cbc30f5fe572692893d5e3bf" target="_top" xlink:title="EicBitMask::SetShift">
<polygon fill="none" stroke="#000000" points="884,-613.5 884,-633.5 1001,-633.5 1001,-613.5 884,-613.5"/>
<text text-anchor="middle" x="942.5" y="-620.5" font-family="FreeSans" font-size="10.00" fill="#000000">EicBitMask::SetShift</text>
</a>
</g>
</g>
<!-- Node7&#45;&gt;Node8 -->
<g id="edge8" class="edge">
<title>Node7&#45;&gt;Node8</title>
<path fill="none" stroke="#191970" d="M814.7301,-625.3744C834.1361,-625.0897 854.8523,-624.7858 873.8319,-624.5074"/>
<polygon fill="#191970" stroke="#191970" points="873.9317,-628.0064 883.8793,-624.36 873.829,-621.0071 873.9317,-628.0064"/>
</g>
<!-- Node9 -->
<g id="node9" class="node">
<title>Node9</title>
<g id="a_node9"><a xlink:href="../../dd/d20/classEicBitMask.html#a577897e58c312fcaa8722bea72257e26" target="_top" xlink:title="EicBitMask::GetBitNum">
<polygon fill="none" stroke="#000000" points="876,-573.5 876,-593.5 1009,-593.5 1009,-573.5 876,-573.5"/>
<text text-anchor="middle" x="942.5" y="-580.5" font-family="FreeSans" font-size="10.00" fill="#000000">EicBitMask::GetBitNum</text>
</a>
</g>
</g>
<!-- Node7&#45;&gt;Node9 -->
<g id="edge9" class="edge">
<title>Node7&#45;&gt;Node9</title>
<path fill="none" stroke="#191970" d="M814.1483,-610.4884C837.5858,-605.5602 862.9842,-600.2197 884.9541,-595.6001"/>
<polygon fill="#191970" stroke="#191970" points="885.722,-599.0153 894.7877,-593.5324 884.2815,-592.1651 885.722,-599.0153"/>
</g>
<!-- Node12&#45;&gt;Node13 -->
<g id="edge14" class="edge">
<title>Node12&#45;&gt;Node13</title>
<path fill="none" stroke="#191970" d="M332.0762,-446.5441C347.2188,-450.7154 364.5556,-455.8927 380,-461.5 396.458,-467.4752 399.3306,-472.143 416,-477.5 423.6168,-479.9478 431.6926,-482.1551 439.7719,-484.1243"/>
<polygon fill="#191970" stroke="#191970" points="439.0651,-487.5532 449.5978,-486.4083 440.65,-480.735 439.0651,-487.5532"/>
</g>
<!-- Node14 -->
<g id="node14" class="node">
<title>Node14</title>
<g id="a_node14"><a xlink:href="../../dd/d0b/classEicNamePatternHub.html#a8baac9dd7e44ee789555cb040763f903" target="_top" xlink:title="EicNamePatternHub::\lAnyMatch">
<polygon fill="none" stroke="#000000" points="446.5,-435.5 446.5,-467.5 569.5,-467.5 569.5,-435.5 446.5,-435.5"/>
<text text-anchor="start" x="454.5" y="-454.5" font-family="FreeSans" font-size="10.00" fill="#000000">EicNamePatternHub::</text>
<text text-anchor="middle" x="508" y="-442.5" font-family="FreeSans" font-size="10.00" fill="#000000">AnyMatch</text>
</a>
</g>
</g>
<!-- Node12&#45;&gt;Node14 -->
<g id="edge15" class="edge">
<title>Node12&#45;&gt;Node14</title>
<path fill="none" stroke="#191970" d="M378.2905,-442.4715C397.5033,-443.8088 417.6889,-445.2138 436.2616,-446.5066"/>
<polygon fill="#191970" stroke="#191970" points="436.1784,-450.0092 446.3974,-447.2121 436.6646,-443.0261 436.1784,-450.0092"/>
</g>
<!-- Node12&#45;&gt;Node15 -->
<g id="edge16" class="edge">
<title>Node12&#45;&gt;Node15</title>
<path fill="none" stroke="#191970" d="M353.2865,-426.4087C362.9387,-422.8424 372.2716,-418.0199 380,-411.5 408.2609,-387.6581 387.7049,-360.3013 416,-336.5 418.0005,-334.8172 420.1031,-333.2431 422.2876,-331.7706"/>
<polygon fill="#191970" stroke="#191970" points="424.2461,-334.6788 431.0772,-326.5802 420.6868,-328.6512 424.2461,-334.6788"/>
</g>
<!-- Node16 -->
<g id="node16" class="node">
<title>Node16</title>
<g id="a_node16"><a xlink:href="../../df/de0/classEicGeoParData.html#a24162311dd8c038e330afbee7a132352" target="_top" xlink:title="EicGeoParData::GetGeometry\lFileName">
<polygon fill="none" stroke="#000000" points="425,-384.5 425,-416.5 591,-416.5 591,-384.5 425,-384.5"/>
<text text-anchor="start" x="433" y="-403.5" font-family="FreeSans" font-size="10.00" fill="#000000">EicGeoParData::GetGeometry</text>
<text text-anchor="middle" x="508" y="-391.5" font-family="FreeSans" font-size="10.00" fill="#000000">FileName</text>
</a>
</g>
</g>
<!-- Node12&#45;&gt;Node16 -->
<g id="edge17" class="edge">
<title>Node12&#45;&gt;Node16</title>
<path fill="none" stroke="#191970" d="M352.5288,-426.472C371.8812,-423.2391 393.8073,-419.5763 414.9624,-416.0422"/>
<polygon fill="#191970" stroke="#191970" points="415.6556,-419.475 424.9422,-414.3751 414.5021,-412.5707 415.6556,-419.475"/>
</g>
<!-- Node22 -->
<g id="node22" class="node">
<title>Node22</title>
<g id="a_node22"><a xlink:href="../../d0/d2f/classEicDetName.html#aef29cb1ffe2ea071a03f4aa098408595" target="_top" xlink:title="EicDetName::Name">
<polygon fill="none" stroke="#000000" points="450.5,-345.5 450.5,-365.5 565.5,-365.5 565.5,-345.5 450.5,-345.5"/>
<text text-anchor="middle" x="508" y="-352.5" font-family="FreeSans" font-size="10.00" fill="#000000">EicDetName::Name</text>
</a>
</g>
</g>
<!-- Node12&#45;&gt;Node22 -->
<g id="edge23" class="edge">
<title>Node12&#45;&gt;Node22</title>
<path fill="none" stroke="#191970" d="M344.2595,-426.387C356.4769,-422.7546 369.1067,-417.9096 380,-411.5 399.5019,-400.025 396.1396,-386.3428 416,-375.5 423.6092,-371.3457 432.0145,-368.0544 440.5595,-365.4466"/>
<polygon fill="#191970" stroke="#191970" points="441.5193,-368.8127 450.2313,-362.7834 439.6609,-362.0639 441.5193,-368.8127"/>
</g>
<!-- Node17 -->
<g id="node17" class="node">
<title>Node17</title>
<g id="a_node17"><a xlink:href="../../df/de0/classEicGeoParData.html#a27907f2aba8817ceb2d97e1a29ecaf40" target="_top" xlink:title="EicGeoParData::GetVersion">
<polygon fill="none" stroke="#000000" points="661.5,-454.5 661.5,-474.5 814.5,-474.5 814.5,-454.5 661.5,-454.5"/>
<text text-anchor="middle" x="738" y="-461.5" font-family="FreeSans" font-size="10.00" fill="#000000">EicGeoParData::GetVersion</text>
</a>
</g>
</g>
<!-- Node16&#45;&gt;Node17 -->
<g id="edge18" class="edge">
<title>Node16&#45;&gt;Node17</title>
<path fill="none" stroke="#191970" d="M571.4398,-416.5321C581.1198,-419.5213 590.9078,-422.8629 600,-426.5 616.7976,-433.2194 618.9134,-439.5538 636,-445.5 643.2368,-448.0184 650.885,-450.2245 658.608,-452.1525"/>
<polygon fill="#191970" stroke="#191970" points="657.8704,-455.5744 668.4052,-454.4485 659.4676,-448.7591 657.8704,-455.5744"/>
</g>
<!-- Node18 -->
<g id="node18" class="node">
<title>Node18</title>
<g id="a_node18"><a xlink:href="../../df/de0/classEicGeoParData.html#ae6acf5e5d790c629031c2d7cf12718ef" target="_top" xlink:title="EicGeoParData::GetSubVersion">
<polygon fill="none" stroke="#000000" points="652,-415.5 652,-435.5 824,-435.5 824,-415.5 652,-415.5"/>
<text text-anchor="middle" x="738" y="-422.5" font-family="FreeSans" font-size="10.00" fill="#000000">EicGeoParData::GetSubVersion</text>
</a>
</g>
</g>
<!-- Node16&#45;&gt;Node18 -->
<g id="edge19" class="edge">
<title>Node16&#45;&gt;Node18</title>
<path fill="none" stroke="#191970" d="M591.0353,-409.5256C607.4451,-411.3093 624.7983,-413.1955 641.6066,-415.0225"/>
<polygon fill="#191970" stroke="#191970" points="641.6688,-418.5498 651.9885,-416.1509 642.4253,-411.5907 641.6688,-418.5498"/>
</g>
<!-- Node19 -->
<g id="node19" class="node">
<title>Node19</title>
<g id="a_node19"><a xlink:href="../../df/de0/classEicGeoParData.html#a09fe5b3481f26b4a771cb7c476d64a1f" target="_top" xlink:title="EicGeoParData::IsTestGeometry">
<polygon fill="none" stroke="#000000" points="650,-376.5 650,-396.5 826,-396.5 826,-376.5 650,-376.5"/>
<text text-anchor="middle" x="738" y="-383.5" font-family="FreeSans" font-size="10.00" fill="#000000">EicGeoParData::IsTestGeometry</text>
</a>
</g>
</g>
<!-- Node16&#45;&gt;Node19 -->
<g id="edge20" class="edge">
<title>Node16&#45;&gt;Node19</title>
<path fill="none" stroke="#191970" d="M591.0353,-395.4457C606.8058,-394.4857 623.4475,-393.4728 639.6396,-392.4872"/>
<polygon fill="#191970" stroke="#191970" points="639.8828,-395.9789 649.6516,-391.8777 639.4574,-388.9919 639.8828,-395.9789"/>
</g>
<!-- Node20 -->
<g id="node20" class="node">
<title>Node20</title>
<g id="a_node20"><a xlink:href="../../d0/d2f/classEicDetName.html#afac87377442f69796e0e335e81b96067" target="_top" xlink:title="EicDetName::name">
<polygon fill="none" stroke="#000000" points="681,-337.5 681,-357.5 795,-357.5 795,-337.5 681,-337.5"/>
<text text-anchor="middle" x="738" y="-344.5" font-family="FreeSans" font-size="10.00" fill="#000000">EicDetName::name</text>
</a>
</g>
</g>
<!-- Node16&#45;&gt;Node20 -->
<g id="edge21" class="edge">
<title>Node16&#45;&gt;Node20</title>
<path fill="none" stroke="#191970" d="M567.0897,-384.4935C588.7034,-378.8431 613.3954,-372.6254 636,-367.5 648.1507,-364.7449 661.1666,-362.0212 673.6972,-359.5123"/>
<polygon fill="#191970" stroke="#191970" points="674.4861,-362.9241 683.6166,-357.5497 673.1274,-356.0572 674.4861,-362.9241"/>
</g>
<!-- Node21 -->
<g id="node21" class="node">
<title>Node21</title>
<g id="a_node21"><a xlink:href="../../df/de0/classEicGeoParData.html#a7f5db7c4ddc258264f0258a6d8d946b6" target="_top" xlink:title="EicGeoParData::GetGeometryType">
<polygon fill="none" stroke="#000000" points="643.5,-298.5 643.5,-318.5 832.5,-318.5 832.5,-298.5 643.5,-298.5"/>
<text text-anchor="middle" x="738" y="-305.5" font-family="FreeSans" font-size="10.00" fill="#000000">EicGeoParData::GetGeometryType</text>
</a>
</g>
</g>
<!-- Node16&#45;&gt;Node21 -->
<g id="edge22" class="edge">
<title>Node16&#45;&gt;Node21</title>
<path fill="none" stroke="#191970" d="M583.6273,-384.41C589.379,-381.8625 594.9155,-378.9135 600,-375.5 621.8458,-360.8335 613.6425,-342.3739 636,-328.5 639.6656,-326.2253 643.5361,-324.2011 647.5412,-322.4003"/>
<polygon fill="#191970" stroke="#191970" points="649.1042,-325.5452 657.0978,-318.5915 646.5126,-319.0426 649.1042,-325.5452"/>
</g>
<!-- Node24 -->
<g id="node24" class="node">
<title>Node24</title>
<g id="a_node24"><a xlink:href="../../d9/d1e/classFairGeoMedia.html#a0dc27e89d61b8ff40498a48e39b2a2c0" target="_top" xlink:title="FairGeoMedia::getMedium">
<polygon fill="none" stroke="#000000" points="433.5,-255.5 433.5,-275.5 582.5,-275.5 582.5,-255.5 433.5,-255.5"/>
<text text-anchor="middle" x="508" y="-262.5" font-family="FreeSans" font-size="10.00" fill="#000000">FairGeoMedia::getMedium</text>
</a>
</g>
</g>
<!-- Node23&#45;&gt;Node24 -->
<g id="edge26" class="edge">
<title>Node23&#45;&gt;Node24</title>
<path fill="none" stroke="#191970" d="M362.8422,-348.402C368.9099,-346.0171 374.7337,-343.0898 380,-339.5 403.8338,-323.2535 392.1681,-301.7493 416,-285.5 419.1568,-283.3476 422.5041,-281.4216 425.9808,-279.6984"/>
<polygon fill="#191970" stroke="#191970" points="427.6619,-282.7844 435.4443,-275.5951 424.8772,-276.3621 427.6619,-282.7844"/>
</g>
<!-- Node25 -->
<g id="node25" class="node">
<title>Node25</title>
<g id="a_node25"><a xlink:href="../../de/d6a/classFairGeoBuilder.html#a852b0d5861a7a6c1033aab59417d1c79" target="_top" xlink:title="FairGeoBuilder::createMedium">
<polygon fill="none" stroke="#000000" points="423.5,-216.5 423.5,-236.5 592.5,-236.5 592.5,-216.5 423.5,-216.5"/>
<text text-anchor="middle" x="508" y="-223.5" font-family="FreeSans" font-size="10.00" fill="#000000">FairGeoBuilder::createMedium</text>
</a>
</g>
</g>
<!-- Node23&#45;&gt;Node25 -->
<g id="edge27" class="edge">
<title>Node23&#45;&gt;Node25</title>
<path fill="none" stroke="#191970" d="M366.297,-348.3756C371.2261,-345.9615 375.8656,-343.0367 380,-339.5 413.6802,-310.6887 382.3233,-275.3153 416,-246.5 418.0647,-244.7333 420.2493,-243.1118 422.5294,-241.6239"/>
<polygon fill="#191970" stroke="#191970" points="424.6911,-244.4279 431.7464,-236.524 421.302,-238.303 424.6911,-244.4279"/>
</g>
<!-- Node28&#45;&gt;Node6 -->
<g id="edge32" class="edge">
<title>Node28&#45;&gt;Node6</title>
<path fill="none" stroke="#191970" d="M342.864,-626.5625C365.1001,-633.1883 391.6651,-640.4755 416,-645.5 600.9829,-683.6938 651.1355,-677.2633 840,-674.5 863.388,-674.1578 889.7681,-673.3767 909.9086,-672.6972"/>
<polygon fill="#191970" stroke="#191970" points="910.2367,-676.1881 920.1095,-672.3439 909.9943,-669.1923 910.2367,-676.1881"/>
</g>
<!-- Node29 -->
<g id="node29" class="node">
<title>Node29</title>
<g id="a_node29"><a xlink:href="../../dd/d20/classEicBitMask.html#aba6083955032532d7dfc95069338dd27" target="_top" xlink:title="EicBitMask::GetBitMask">
<polygon fill="none" stroke="#000000" points="440.5,-525.5 440.5,-545.5 575.5,-545.5 575.5,-525.5 440.5,-525.5"/>
<text text-anchor="middle" x="508" y="-532.5" font-family="FreeSans" font-size="10.00" fill="#000000">EicBitMask::GetBitMask</text>
</a>
</g>
</g>
<!-- Node28&#45;&gt;Node29 -->
<g id="edge33" class="edge">
<title>Node28&#45;&gt;Node29</title>
<path fill="none" stroke="#191970" d="M357.889,-594.4011C365.4815,-591.7783 373.0047,-588.8159 380,-585.5 397.6022,-577.1563 398.344,-568.7294 416,-560.5 426.3267,-555.6867 437.7517,-551.6544 448.9377,-548.3311"/>
<polygon fill="#191970" stroke="#191970" points="449.9949,-551.6696 458.6727,-545.5912 448.0984,-544.9314 449.9949,-551.6696"/>
</g>
<!-- Node30 -->
<g id="node30" class="node">
<title>Node30</title>
<g id="a_node30"><a xlink:href="../../dd/d20/classEicBitMask.html#a862ce5875cf47f78ff18aaed935966d9" target="_top" xlink:title="EicBitMask::GetShift">
<polygon fill="none" stroke="#000000" points="678.5,-493.5 678.5,-513.5 797.5,-513.5 797.5,-493.5 678.5,-493.5"/>
<text text-anchor="middle" x="738" y="-500.5" font-family="FreeSans" font-size="10.00" fill="#000000">EicBitMask::GetShift</text>
</a>
</g>
</g>
<!-- Node28&#45;&gt;Node30 -->
<g id="edge34" class="edge">
<title>Node28&#45;&gt;Node30</title>
<path fill="none" stroke="#191970" d="M371.5273,-598.6471C455.7245,-585.6569 579.6909,-565.356 600,-555.5 619.2592,-546.1536 616.8192,-533.0063 636,-523.5 646.0669,-518.5107 657.2705,-514.7653 668.4623,-511.9538"/>
<polygon fill="#191970" stroke="#191970" points="669.2956,-515.3537 678.2657,-509.7158 667.7376,-508.5293 669.2956,-515.3537"/>
</g>
<!-- Node31 -->
<g id="node31" class="node">
<title>Node31</title>
<g id="a_node31"><a xlink:href="../../da/d86/classEicGeoMap.html#a9c17af03744fe42ae8daf66f9bda7f06" target="_top" xlink:title="EicGeoMap::SetMappingTable\lEntry">
<polygon fill="none" stroke="#000000" points="425,-603.5 425,-635.5 591,-635.5 591,-603.5 425,-603.5"/>
<text text-anchor="start" x="433" y="-622.5" font-family="FreeSans" font-size="10.00" fill="#000000">EicGeoMap::SetMappingTable</text>
<text text-anchor="middle" x="508" y="-610.5" font-family="FreeSans" font-size="10.00" fill="#000000">Entry</text>
</a>
</g>
</g>
<!-- Node28&#45;&gt;Node31 -->
<g id="edge35" class="edge">
<title>Node28&#45;&gt;Node31</title>
<path fill="none" stroke="#191970" d="M371.5206,-613.8002C385.44,-614.3815 400.0494,-614.9916 414.3236,-615.5878"/>
<polygon fill="#191970" stroke="#191970" points="414.5062,-619.0983 424.6435,-616.0188 414.7983,-612.1044 414.5062,-619.0983"/>
</g>
<!-- Node31&#45;&gt;Node6 -->
<g id="edge36" class="edge">
<title>Node31&#45;&gt;Node6</title>
<path fill="none" stroke="#191970" d="M560.7711,-635.5175C583.6814,-641.8414 610.9538,-648.5322 636,-652.5 735.1854,-668.213 854.3448,-671.0894 910.3885,-671.5125"/>
<polygon fill="#191970" stroke="#191970" points="910.397,-675.0125 920.4157,-671.5665 910.4347,-668.0126 910.397,-675.0125"/>
</g>
<!-- Node31&#45;&gt;Node30 -->
<g id="edge42" class="edge">
<title>Node31&#45;&gt;Node30</title>
<path fill="none" stroke="#191970" d="M575.4451,-603.3688C584.2706,-599.4277 592.7507,-594.5444 600,-588.5 625.3639,-567.3519 609.3026,-542.9374 636,-523.5 645.5738,-516.5297 656.9419,-511.8187 668.5554,-508.6668"/>
<polygon fill="#191970" stroke="#191970" points="669.3993,-512.064 678.3344,-506.3706 667.7991,-505.2493 669.3993,-512.064"/>
</g>
<!-- Node32 -->
<g id="node32" class="node">
<title>Node32</title>
<g id="a_node32"><a xlink:href="../../da/d86/classEicGeoMap.html#ad01497111125dccc306dac986d6d10e1" target="_top" xlink:title="EicGeoMap::CalculateBitPattern">
<polygon fill="none" stroke="#000000" points="650,-571.5 650,-591.5 826,-591.5 826,-571.5 650,-571.5"/>
<text text-anchor="middle" x="738" y="-578.5" font-family="FreeSans" font-size="10.00" fill="#000000">EicGeoMap::CalculateBitPattern</text>
</a>
</g>
</g>
<!-- Node31&#45;&gt;Node32 -->
<g id="edge37" class="edge">
<title>Node31&#45;&gt;Node32</title>
<path fill="none" stroke="#191970" d="M591.0353,-605.7811C616.0301,-601.6516 643.2132,-597.1604 667.3265,-593.1765"/>
<polygon fill="#191970" stroke="#191970" points="668.1617,-596.586 677.4574,-591.5027 667.0206,-589.6797 668.1617,-596.586"/>
</g>
<!-- Node33 -->
<g id="node33" class="node">
<title>Node33</title>
<g id="a_node33"><a xlink:href="../../d1/d24/classGeantVolumeLevel.html#a4aba5288354c7287b6fc03cd9d30b2a2" target="_top" xlink:title="GeantVolumeLevel::GetVolumeName">
<polygon fill="none" stroke="#000000" points="636,-532.5 636,-552.5 840,-552.5 840,-532.5 636,-532.5"/>
<text text-anchor="middle" x="738" y="-539.5" font-family="FreeSans" font-size="10.00" fill="#000000">GeantVolumeLevel::GetVolumeName</text>
</a>
</g>
</g>
<!-- Node31&#45;&gt;Node33 -->
<g id="edge41" class="edge">
<title>Node31&#45;&gt;Node33</title>
<path fill="none" stroke="#191970" d="M564.5664,-603.4266C576.5439,-599.2047 588.9098,-594.2068 600,-588.5 617.5493,-579.4694 617.8957,-570.3591 636,-562.5 642.3393,-559.7481 649.0647,-557.372 655.9186,-555.3207"/>
<polygon fill="#191970" stroke="#191970" points="657.3087,-558.5685 666.0226,-552.542 655.4524,-551.8191 657.3087,-558.5685"/>
</g>
<!-- Node32&#45;&gt;Node6 -->
<g id="edge40" class="edge">
<title>Node32&#45;&gt;Node6</title>
<path fill="none" stroke="#191970" d="M817.3562,-591.527C825.2844,-594.1392 832.985,-597.4096 840,-601.5 861.2386,-613.8841 856.1393,-629.0087 876,-643.5 886.3313,-651.0382 898.9988,-657.0171 910.4959,-661.4815"/>
<polygon fill="#191970" stroke="#191970" points="909.6159,-664.8858 920.21,-665.0161 912.0095,-658.3077 909.6159,-664.8858"/>
</g>
<!-- Node32&#45;&gt;Node8 -->
<g id="edge38" class="edge">
<title>Node32&#45;&gt;Node8</title>
<path fill="none" stroke="#191970" d="M790.1879,-591.5474C806.1831,-594.6767 823.8258,-598.1788 840,-601.5 855.065,-604.5934 871.3523,-608.0417 886.4136,-611.2734"/>
<polygon fill="#191970" stroke="#191970" points="886.1021,-614.7865 896.6147,-613.4692 887.5752,-607.9432 886.1021,-614.7865"/>
</g>
<!-- Node32&#45;&gt;Node9 -->
<g id="edge39" class="edge">
<title>Node32&#45;&gt;Node9</title>
<path fill="none" stroke="#191970" d="M826.2102,-582.3627C839.3462,-582.4912 852.7973,-582.6227 865.674,-582.7486"/>
<polygon fill="#191970" stroke="#191970" points="865.8269,-586.2502 875.8607,-582.8483 865.8954,-579.2505 865.8269,-586.2502"/>
</g>
<!-- Node36 -->
<g id="node36" class="node">
<title>Node36</title>
<g id="a_node36"><a xlink:href="../../df/d28/namespacekdfinder.html#ab72d428625e99a2d7380eb7691c246c7" target="_top" xlink:title="kdfinder::abs">
<polygon fill="none" stroke="#000000" points="251,-180.5 251,-200.5 334,-200.5 334,-180.5 251,-180.5"/>
<text text-anchor="middle" x="292.5" y="-187.5" font-family="FreeSans" font-size="10.00" fill="#000000">kdfinder::abs</text>
</a>
</g>
</g>
<!-- Node35&#45;&gt;Node36 -->
<g id="edge45" class="edge">
<title>Node35&#45;&gt;Node36</title>
<path fill="none" stroke="#191970" d="M142.1083,-151.7478C158.6568,-157.0571 183.2838,-164.7156 205,-170.5 216.6462,-173.6021 229.2421,-176.6554 241.1508,-179.4061"/>
<polygon fill="#191970" stroke="#191970" points="240.4289,-182.8313 250.9566,-181.64 241.9839,-176.0061 240.4289,-182.8313"/>
</g>
<!-- Node38 -->
<g id="node38" class="node">
<title>Node38</title>
<g id="a_node38"><a xlink:href="../../de/d3c/classerhic_1_1ParticleMCbase.html#a33b38996faa1c81295941c5205383db2" target="_top" xlink:title="erhic::ParticleMCbase\l::GetPdgCode">
<polygon fill="none" stroke="#000000" points="230,-129.5 230,-161.5 355,-161.5 355,-129.5 230,-129.5"/>
<text text-anchor="start" x="238" y="-148.5" font-family="FreeSans" font-size="10.00" fill="#000000">erhic::ParticleMCbase</text>
<text text-anchor="middle" x="292.5" y="-136.5" font-family="FreeSans" font-size="10.00" fill="#000000">::GetPdgCode</text>
</a>
</g>
</g>
<!-- Node35&#45;&gt;Node38 -->
<g id="edge47" class="edge">
<title>Node35&#45;&gt;Node38</title>
<path fill="none" stroke="#191970" d="M142.1143,-145.5C161.0062,-145.5 191.1096,-145.5 219.4372,-145.5"/>
<polygon fill="#191970" stroke="#191970" points="219.7692,-149.0001 229.7692,-145.5 219.7692,-142.0001 219.7692,-149.0001"/>
</g>
<!-- Node40 -->
<g id="node40" class="node">
<title>Node40</title>
<g id="a_node40"><a xlink:href="../../de/d3c/classerhic_1_1ParticleMCbase.html#abec875dbcad86309ebf3da30fb91be8c" target="_top" xlink:title="erhic::ParticleMCbase\l::GetPt">
<polygon fill="none" stroke="#000000" points="230,-78.5 230,-110.5 355,-110.5 355,-78.5 230,-78.5"/>
<text text-anchor="start" x="238" y="-97.5" font-family="FreeSans" font-size="10.00" fill="#000000">erhic::ParticleMCbase</text>
<text text-anchor="middle" x="292.5" y="-85.5" font-family="FreeSans" font-size="10.00" fill="#000000">::GetPt</text>
</a>
</g>
</g>
<!-- Node35&#45;&gt;Node40 -->
<g id="edge49" class="edge">
<title>Node35&#45;&gt;Node40</title>
<path fill="none" stroke="#191970" d="M142.1709,-139.2498C158.7585,-133.883 183.4077,-126.0063 205,-119.5 211.6063,-117.5094 218.505,-115.4704 225.4041,-113.4574"/>
<polygon fill="#191970" stroke="#191970" points="226.8492,-116.6826 235.4785,-110.5355 224.8993,-109.9597 226.8492,-116.6826"/>
</g>
<!-- Node41 -->
<g id="node41" class="node">
<title>Node41</title>
<g id="a_node41"><a xlink:href="../../dc/db4/classerhic_1_1EventDis.html#a64b2de754abd17753622235fb195bdf9" target="_top" xlink:title="erhic::EventDis::GetQ2">
<polygon fill="none" stroke="#000000" points="227,-39.5 227,-59.5 358,-59.5 358,-39.5 227,-39.5"/>
<text text-anchor="middle" x="292.5" y="-46.5" font-family="FreeSans" font-size="10.00" fill="#000000">erhic::EventDis::GetQ2</text>
</a>
</g>
</g>
<!-- Node35&#45;&gt;Node41 -->
<g id="edge50" class="edge">
<title>Node35&#45;&gt;Node41</title>
<path fill="none" stroke="#191970" d="M142.3445,-139.9974C151.1677,-136.7983 161.3314,-132.0754 169,-125.5 191.7461,-105.9963 180.4521,-85.6808 205,-68.5 208.9321,-65.748 213.1885,-63.3834 217.6338,-61.3528"/>
<polygon fill="#191970" stroke="#191970" points="218.9808,-64.5838 226.9801,-57.6368 216.3945,-58.0791 218.9808,-64.5838"/>
</g>
<!-- Node42 -->
<g id="node42" class="node">
<title>Node42</title>
<g id="a_node42"><a xlink:href="../../dc/db4/classerhic_1_1EventDis.html#a46b5447d280d08f297e5265f97d9c56c" target="_top" xlink:title="erhic::EventDis::GetX">
<polygon fill="none" stroke="#000000" points="230.5,-.5 230.5,-20.5 354.5,-20.5 354.5,-.5 230.5,-.5"/>
<text text-anchor="middle" x="292.5" y="-7.5" font-family="FreeSans" font-size="10.00" fill="#000000">erhic::EventDis::GetX</text>
</a>
</g>
</g>
<!-- Node35&#45;&gt;Node42 -->
<g id="edge51" class="edge">
<title>Node35&#45;&gt;Node42</title>
<path fill="none" stroke="#191970" d="M142.0598,-140.9786C151.2457,-137.9446 161.8029,-133.0765 169,-125.5 200.3835,-92.4619 170.53,-59.3037 205,-29.5 209.7845,-25.3632 215.2584,-22.0615 221.0817,-19.4338"/>
<polygon fill="#191970" stroke="#191970" points="222.3856,-22.6824 230.4715,-15.8363 219.8811,-16.1457 222.3856,-22.6824"/>
</g>
<!-- Node37 -->
<g id="node37" class="node">
<title>Node37</title>
<g id="a_node37"><a xlink:href="../../d8/dc7/classkdfinder_1_1TVector.html#ac9649c7577f12a7502ed523260f4ee90" target="_top" xlink:title="kdfinder::TVector::mag">
<polygon fill="none" stroke="#000000" points="442,-177.5 442,-197.5 574,-197.5 574,-177.5 442,-177.5"/>
<text text-anchor="middle" x="508" y="-184.5" font-family="FreeSans" font-size="10.00" fill="#000000">kdfinder::TVector::mag</text>
</a>
</g>
</g>
<!-- Node36&#45;&gt;Node37 -->
<g id="edge46" class="edge">
<title>Node36&#45;&gt;Node37</title>
<path fill="none" stroke="#191970" d="M334.0506,-189.9216C361.761,-189.5358 399.0086,-189.0173 431.9268,-188.559"/>
<polygon fill="#191970" stroke="#191970" points="432.0382,-192.0579 441.9885,-188.419 431.9407,-185.0586 432.0382,-192.0579"/>
</g>
<!-- Node39 -->
<g id="node39" class="node">
<title>Node39</title>
<g id="a_node39"><a xlink:href="../../de/d3c/classerhic_1_1ParticleMCbase.html#a0c85145c4eda948f67bc96fa78b4e69e" target="_top" xlink:title="erhic::ParticleMCbase::Id">
<polygon fill="none" stroke="#000000" points="438,-135.5 438,-155.5 578,-155.5 578,-135.5 438,-135.5"/>
<text text-anchor="middle" x="508" y="-142.5" font-family="FreeSans" font-size="10.00" fill="#000000">erhic::ParticleMCbase::Id</text>
</a>
</g>
</g>
<!-- Node38&#45;&gt;Node39 -->
<g id="edge48" class="edge">
<title>Node38&#45;&gt;Node39</title>
<path fill="none" stroke="#191970" d="M355.121,-145.5C377.7384,-145.5 403.5937,-145.5 427.5271,-145.5"/>
<polygon fill="#191970" stroke="#191970" points="427.6516,-149.0001 437.6516,-145.5 427.6516,-142.0001 427.6516,-149.0001"/>
</g>
</g>
</svg>
