<?xml version="1.0" encoding="UTF-8" standalone="no"?>
<!DOCTYPE svg PUBLIC "-//W3C//DTD SVG 1.1//EN"
 "http://www.w3.org/Graphics/SVG/1.1/DTD/svg11.dtd">
<!-- Generated by graphviz version 2.40.1 (20161225.0304)
 -->
<!-- Title: EicDetName::Name Pages: 1 -->
<svg width="666pt" height="1225pt"
 viewBox="0.00 0.00 666.00 1225.00" xmlns="http://www.w3.org/2000/svg" xmlns:xlink="http://www.w3.org/1999/xlink">
<g id="graph0" class="graph" transform="scale(1 1) rotate(0) translate(4 1221)">
<title>EicDetName::Name</title>
<!-- Node1 -->
<g id="node1" class="node">
<title>Node1</title>
<polygon fill="#bfbfbf" stroke="#000000" points="0,-613.5 0,-633.5 115,-633.5 115,-613.5 0,-613.5"/>
<text text-anchor="middle" x="57.5" y="-620.5" font-family="FreeSans" font-size="10.00" fill="#000000">EicDetName::Name</text>
</g>
<!-- Node2 -->
<g id="node2" class="node">
<title>Node2</title>
<g id="a_node2"><a xlink:href="../../d7/d9f/classEicHtcTask.html#a25703479e0b0d5a3da9d4e233b20c187" target="_top" xlink:title="EicHtcTask::ConfigureKalman\lFilter">
<polygon fill="none" stroke="#000000" points="159,-1184.5 159,-1216.5 323,-1216.5 323,-1184.5 159,-1184.5"/>
<text text-anchor="start" x="167" y="-1203.5" font-family="FreeSans" font-size="10.00" fill="#000000">EicHtcTask::ConfigureKalman</text>
<text text-anchor="middle" x="241" y="-1191.5" font-family="FreeSans" font-size="10.00" fill="#000000">Filter</text>
</a>
</g>
</g>
<!-- Node1&#45;&gt;Node2 -->
<g id="edge1" class="edge">
<title>Node1&#45;&gt;Node2</title>
<path fill="none" stroke="#191970" d="M58.2879,-644.0457C62.1129,-733.441 81.4973,-1087.7065 151,-1169.5 156.1365,-1175.5448 162.5109,-1180.4127 169.4783,-1184.3324"/>
<polygon fill="#191970" stroke="#191970" points="61.7773,-643.711 57.8717,-633.8623 54.7831,-643.997 61.7773,-643.711"/>
</g>
<!-- Node3 -->
<g id="node3" class="node">
<title>Node3</title>
<g id="a_node3"><a xlink:href="../../d7/d9f/classEicHtcTask.html#a87172e2c8a22bbee83d4624f2e131034" target="_top" xlink:title="EicHtcTask::Init">
<polygon fill="none" stroke="#ff0000" points="403.5,-1145.5 403.5,-1165.5 496.5,-1165.5 496.5,-1145.5 403.5,-1145.5"/>
<text text-anchor="middle" x="450" y="-1152.5" font-family="FreeSans" font-size="10.00" fill="#000000">EicHtcTask::Init</text>
</a>
</g>
</g>
<!-- Node1&#45;&gt;Node3 -->
<g id="edge53" class="edge">
<title>Node1&#45;&gt;Node3</title>
<path fill="none" stroke="#191970" d="M58.0181,-644.1048C60.6735,-731.4287 75.745,-1069.5602 151,-1136.5 187.1437,-1168.65 328.6061,-1164.112 403.266,-1159.2265"/>
<polygon fill="#191970" stroke="#191970" points="61.5111,-643.8044 57.7312,-633.9068 54.5139,-644.0013 61.5111,-643.8044"/>
</g>
<!-- Node4 -->
<g id="node4" class="node">
<title>Node4</title>
<g id="a_node4"><a xlink:href="../../d7/d90/classFstGeoParData.html#a1c1190cd28956325afa784e237217a5e" target="_top" xlink:title="FstGeoParData::Construct\lGeometry">
<polygon fill="none" stroke="#000000" points="376.5,-1041.5 376.5,-1073.5 523.5,-1073.5 523.5,-1041.5 376.5,-1041.5"/>
<text text-anchor="start" x="384.5" y="-1060.5" font-family="FreeSans" font-size="10.00" fill="#000000">FstGeoParData::Construct</text>
<text text-anchor="middle" x="450" y="-1048.5" font-family="FreeSans" font-size="10.00" fill="#000000">Geometry</text>
</a>
</g>
</g>
<!-- Node1&#45;&gt;Node4 -->
<g id="edge3" class="edge">
<title>Node1&#45;&gt;Node4</title>
<path fill="none" stroke="#191970" d="M60.3144,-643.8585C69.9136,-710.3803 103.43,-919.6876 151,-965.5 210.1709,-1022.4847 255.9276,-974.1448 331,-1007.5 348.8016,-1015.4094 349.4577,-1024.031 367,-1032.5 373.7762,-1035.7714 381.0717,-1038.7186 388.4251,-1041.3434"/>
<polygon fill="#191970" stroke="#191970" points="63.7584,-643.2165 58.8904,-633.8062 56.8276,-644.1983 63.7584,-643.2165"/>
</g>
<!-- Node6 -->
<g id="node6" class="node">
<title>Node6</title>
<g id="a_node6"><a xlink:href="../../d8/d7b/classEicCadFile.html#a8e8bf4dd75c81efa51b8bc49696ff960" target="_top" xlink:title="EicCadFile::ConstructGeometry">
<polygon fill="none" stroke="#000000" points="154,-1055.5 154,-1075.5 328,-1075.5 328,-1055.5 154,-1055.5"/>
<text text-anchor="middle" x="241" y="-1062.5" font-family="FreeSans" font-size="10.00" fill="#000000">EicCadFile::ConstructGeometry</text>
</a>
</g>
</g>
<!-- Node1&#45;&gt;Node6 -->
<g id="edge5" class="edge">
<title>Node1&#45;&gt;Node6</title>
<path fill="none" stroke="#191970" d="M59.1489,-644.064C65.7178,-720.7487 92.5522,-988.604 151,-1046.5 154.5171,-1049.9839 158.5021,-1052.9026 162.7902,-1055.342"/>
<polygon fill="#191970" stroke="#191970" points="62.6137,-643.4949 58.2959,-633.8198 55.6379,-644.0758 62.6137,-643.4949"/>
</g>
<!-- Node7 -->
<g id="node7" class="node">
<title>Node7</title>
<g id="a_node7"><a xlink:href="../../dd/dac/classEicDetector.html#a52d5d3a030ed4ab74e36989b4a563f73" target="_top" xlink:title="EicDetector::ConstructGeometry">
<polygon fill="none" stroke="#000000" points="151,-1016.5 151,-1036.5 331,-1036.5 331,-1016.5 151,-1016.5"/>
<text text-anchor="middle" x="241" y="-1023.5" font-family="FreeSans" font-size="10.00" fill="#000000">EicDetector::ConstructGeometry</text>
</a>
</g>
</g>
<!-- Node1&#45;&gt;Node7 -->
<g id="edge6" class="edge">
<title>Node1&#45;&gt;Node7</title>
<path fill="none" stroke="#191970" d="M59.8541,-644.0216C68.4024,-715.0627 100.0072,-949.0349 151,-1001.5 157.3294,-1008.0122 165.1964,-1012.8716 173.6253,-1016.4896"/>
<polygon fill="#191970" stroke="#191970" points="63.2878,-643.2529 58.6415,-633.7312 56.3359,-644.0722 63.2878,-643.2529"/>
</g>
<!-- Node8 -->
<g id="node8" class="node">
<title>Node8</title>
<g id="a_node8"><a xlink:href="../../d5/da5/classBeamPipeGeoParData.html#a517333ed4031326081436c355d6df9ca" target="_top" xlink:title="BeamPipeGeoParData\l::ConstructGeometry">
<polygon fill="none" stroke="#000000" points="387,-990.5 387,-1022.5 513,-1022.5 513,-990.5 387,-990.5"/>
<text text-anchor="start" x="395" y="-1009.5" font-family="FreeSans" font-size="10.00" fill="#000000">BeamPipeGeoParData</text>
<text text-anchor="middle" x="450" y="-997.5" font-family="FreeSans" font-size="10.00" fill="#000000">::ConstructGeometry</text>
</a>
</g>
</g>
<!-- Node1&#45;&gt;Node8 -->
<g id="edge7" class="edge">
<title>Node1&#45;&gt;Node8</title>
<path fill="none" stroke="#191970" d="M60.9796,-643.7522C71.994,-705.5538 107.924,-889.9804 151,-930.5 210.9108,-986.8554 251.3571,-952.9513 331,-973.5 351.552,-978.8026 374.0049,-984.9392 393.8149,-990.4717"/>
<polygon fill="#191970" stroke="#191970" points="64.3919,-642.9469 59.2168,-633.7019 57.4971,-644.1562 64.3919,-642.9469"/>
</g>
<!-- Node10 -->
<g id="node10" class="node">
<title>Node10</title>
<g id="a_node10"><a xlink:href="../../d7/d9f/classEicHtcTask.html#a67b47ff02df77671eb038adb1ac75ee2" target="_top" xlink:title="EicHtcTask::DeclareSensitive\lVolumes">
<polygon fill="none" stroke="#000000" points="160.5,-1094.5 160.5,-1126.5 321.5,-1126.5 321.5,-1094.5 160.5,-1094.5"/>
<text text-anchor="start" x="168.5" y="-1113.5" font-family="FreeSans" font-size="10.00" fill="#000000">EicHtcTask::DeclareSensitive</text>
<text text-anchor="middle" x="241" y="-1101.5" font-family="FreeSans" font-size="10.00" fill="#000000">Volumes</text>
</a>
</g>
</g>
<!-- Node1&#45;&gt;Node10 -->
<g id="edge9" class="edge">
<title>Node1&#45;&gt;Node10</title>
<path fill="none" stroke="#191970" d="M58.8741,-644.2405C64.6558,-725.3134 89.6078,-1019.5691 151,-1085.5 154.0943,-1088.8231 157.5884,-1091.7183 161.3578,-1094.2395"/>
<polygon fill="#191970" stroke="#191970" points="62.3392,-643.6132 58.1581,-633.8783 55.3558,-644.0958 62.3392,-643.6132"/>
</g>
<!-- Node11 -->
<g id="node11" class="node">
<title>Node11</title>
<g id="a_node11"><a xlink:href="../../dd/dac/classEicDetector.html#a8cc324ebc7bbf1d39d3f467281ce2bc7" target="_top" xlink:title="EicDetector::EicDetector">
<polygon fill="none" stroke="#000000" points="171,-900.5 171,-920.5 311,-920.5 311,-900.5 171,-900.5"/>
<text text-anchor="middle" x="241" y="-907.5" font-family="FreeSans" font-size="10.00" fill="#000000">EicDetector::EicDetector</text>
</a>
</g>
</g>
<!-- Node1&#45;&gt;Node11 -->
<g id="edge11" class="edge">
<title>Node1&#45;&gt;Node11</title>
<path fill="none" stroke="#191970" d="M61.7926,-643.4142C74.2923,-699.5828 112.241,-857.3967 151,-891.5 156.7548,-896.5635 163.5156,-900.3962 170.7028,-903.2816"/>
<polygon fill="#191970" stroke="#191970" points="65.2016,-642.6198 59.6392,-633.6026 58.3643,-644.1204 65.2016,-642.6198"/>
</g>
<!-- Node12 -->
<g id="node12" class="node">
<title>Node12</title>
<g id="a_node12"><a xlink:href="../../df/de0/classEicGeoParData.html#af8e11f1e854d2bbd845f030f659a5de2" target="_top" xlink:title="EicGeoParData::EicGeoParData">
<polygon fill="none" stroke="#000000" points="155,-861.5 155,-881.5 327,-881.5 327,-861.5 155,-861.5"/>
<text text-anchor="middle" x="241" y="-868.5" font-family="FreeSans" font-size="10.00" fill="#000000">EicGeoParData::EicGeoParData</text>
</a>
</g>
</g>
<!-- Node1&#45;&gt;Node12 -->
<g id="edge12" class="edge">
<title>Node1&#45;&gt;Node12</title>
<path fill="none" stroke="#191970" d="M59.4962,-643.647C65.0776,-688.5983 85.0527,-797.4467 151,-852.5 155.2907,-856.0819 160.0904,-859.0395 165.1798,-861.4766"/>
<polygon fill="#191970" stroke="#191970" points="62.9692,-643.2106 58.3681,-633.667 56.0135,-643.9969 62.9692,-643.2106"/>
</g>
<!-- Node13 -->
<g id="node13" class="node">
<title>Node13</title>
<g id="a_node13"><a xlink:href="../../dc/de8/classEicEventAssembler.html#aba255fa1954102969e3cb0c71d6f6277" target="_top" xlink:title="EicEventAssembler::Exec">
<polygon fill="none" stroke="#000000" points="169,-822.5 169,-842.5 313,-842.5 313,-822.5 169,-822.5"/>
<text text-anchor="middle" x="241" y="-829.5" font-family="FreeSans" font-size="10.00" fill="#000000">EicEventAssembler::Exec</text>
</a>
</g>
</g>
<!-- Node1&#45;&gt;Node13 -->
<g id="edge13" class="edge">
<title>Node1&#45;&gt;Node13</title>
<path fill="none" stroke="#191970" d="M61.3505,-643.6632C69.9587,-682.9355 94.6089,-769.6649 151,-813.5 156.2954,-817.6163 162.2758,-820.8934 168.5738,-823.4958"/>
<polygon fill="#191970" stroke="#191970" points="64.7458,-642.7982 59.2948,-633.7131 57.8905,-644.2145 64.7458,-642.7982"/>
</g>
<!-- Node14 -->
<g id="node14" class="node">
<title>Node14</title>
<g id="a_node14"><a xlink:href="../../de/d93/classEicDigiHitProducer.html#abe7ed06b208d9a396f18aa34c1411bc1" target="_top" xlink:title="EicDigiHitProducer\l::Exec">
<polygon fill="none" stroke="#000000" points="186,-771.5 186,-803.5 296,-803.5 296,-771.5 186,-771.5"/>
<text text-anchor="start" x="194" y="-790.5" font-family="FreeSans" font-size="10.00" fill="#000000">EicDigiHitProducer</text>
<text text-anchor="middle" x="241" y="-778.5" font-family="FreeSans" font-size="10.00" fill="#000000">::Exec</text>
</a>
</g>
</g>
<!-- Node1&#45;&gt;Node14 -->
<g id="edge14" class="edge">
<title>Node1&#45;&gt;Node14</title>
<path fill="none" stroke="#191970" d="M65.3606,-643.1794C78.4812,-673.477 107.7427,-731.3036 151,-762.5 161.2593,-769.8988 173.622,-775.1099 185.8538,-778.7794"/>
<polygon fill="#191970" stroke="#191970" points="68.4835,-641.5751 61.3963,-633.6996 62.0254,-644.2757 68.4835,-641.5751"/>
</g>
<!-- Node15 -->
<g id="node15" class="node">
<title>Node15</title>
<g id="a_node15"><a xlink:href="../../d7/d9f/classEicHtcTask.html#a51f6768289f97ee2cd68730b840c5ef2" target="_top" xlink:title="EicHtcTask::Exec">
<polygon fill="none" stroke="#000000" points="191,-732.5 191,-752.5 291,-752.5 291,-732.5 191,-732.5"/>
<text text-anchor="middle" x="241" y="-739.5" font-family="FreeSans" font-size="10.00" fill="#000000">EicHtcTask::Exec</text>
</a>
</g>
</g>
<!-- Node1&#45;&gt;Node15 -->
<g id="edge15" class="edge">
<title>Node1&#45;&gt;Node15</title>
<path fill="none" stroke="#191970" d="M69.5195,-642.1415C85.3324,-665.0612 115.3371,-703.3867 151,-723.5 163.1014,-730.325 177.3721,-734.7055 190.94,-737.5148"/>
<polygon fill="#191970" stroke="#191970" points="72.2905,-639.9894 63.814,-633.6333 66.4766,-643.8881 72.2905,-639.9894"/>
</g>
<!-- Node16 -->
<g id="node16" class="node">
<title>Node16</title>
<g id="a_node16"><a xlink:href="../../dd/df6/classEicCalorimeterDigiHitProducer.html#a69502d8d811b7f7fa6189488dda1df73" target="_top" xlink:title="EicCalorimeterDigiHitProducer\l::ExtraInit">
<polygon fill="none" stroke="#000000" points="156,-681.5 156,-713.5 326,-713.5 326,-681.5 156,-681.5"/>
<text text-anchor="start" x="164" y="-700.5" font-family="FreeSans" font-size="10.00" fill="#000000">EicCalorimeterDigiHitProducer</text>
<text text-anchor="middle" x="241" y="-688.5" font-family="FreeSans" font-size="10.00" fill="#000000">::ExtraInit</text>
</a>
</g>
</g>
<!-- Node1&#45;&gt;Node16 -->
<g id="edge16" class="edge">
<title>Node1&#45;&gt;Node16</title>
<path fill="none" stroke="#191970" d="M82.8828,-638.6823C101.3071,-649.2309 127.0923,-663.0387 151,-672.5 159.1425,-675.7223 167.8545,-678.6976 176.5333,-681.3867"/>
<polygon fill="#191970" stroke="#191970" points="84.6246,-635.6465 74.2193,-633.6515 81.1095,-641.6999 84.6246,-635.6465"/>
</g>
<!-- Node17 -->
<g id="node17" class="node">
<title>Node17</title>
<g id="a_node17"><a xlink:href="../../df/dca/classEicTrackingDigiHitProducer.html#a1ff9471b61292aedf9956e36ae86d19b" target="_top" xlink:title="EicTrackingDigiHitProducer\l::ExtraInit">
<polygon fill="none" stroke="#000000" points="164.5,-630.5 164.5,-662.5 317.5,-662.5 317.5,-630.5 164.5,-630.5"/>
<text text-anchor="start" x="172.5" y="-649.5" font-family="FreeSans" font-size="10.00" fill="#000000">EicTrackingDigiHitProducer</text>
<text text-anchor="middle" x="241" y="-637.5" font-family="FreeSans" font-size="10.00" fill="#000000">::ExtraInit</text>
</a>
</g>
</g>
<!-- Node1&#45;&gt;Node17 -->
<g id="edge17" class="edge">
<title>Node1&#45;&gt;Node17</title>
<path fill="none" stroke="#191970" d="M125.1536,-631.9797C137.949,-633.5835 151.4174,-635.2717 164.4636,-636.9069"/>
<polygon fill="#191970" stroke="#191970" points="125.4148,-628.4852 115.0571,-630.7142 124.5441,-635.4308 125.4148,-628.4852"/>
</g>
<!-- Node18 -->
<g id="node18" class="node">
<title>Node18</title>
<g id="a_node18"><a xlink:href="../../df/d7c/femc_8C.html#a601c0d58d41a3646eddbf354a4ff08d7" target="_top" xlink:title="femc">
<polygon fill="none" stroke="#000000" points="429.5,-318.5 429.5,-338.5 470.5,-338.5 470.5,-318.5 429.5,-318.5"/>
<text text-anchor="middle" x="450" y="-325.5" font-family="FreeSans" font-size="10.00" fill="#000000">femc</text>
</a>
</g>
</g>
<!-- Node1&#45;&gt;Node18 -->
<g id="edge18" class="edge">
<title>Node1&#45;&gt;Node18</title>
<path fill="none" stroke="#191970" d="M86.8984,-608.7961C105.0252,-600.1895 128.9479,-589.6445 151,-582.5 228.8714,-557.2711 274.0174,-602.2658 331,-543.5 392.3509,-480.2293 306.3836,-412.4747 367,-348.5 382.9036,-331.7153 410.2458,-327.9602 429.1801,-327.5876"/>
<polygon fill="#191970" stroke="#191970" points="84.9581,-605.8461 77.4729,-613.3442 88.0003,-612.1505 84.9581,-605.8461"/>
</g>
<!-- Node22 -->
<g id="node22" class="node">
<title>Node22</title>
<g id="a_node22"><a xlink:href="../../df/de0/classEicGeoParData.html#a5464c1947d87d36569891ada6aafb22c" target="_top" xlink:title="EicGeoParData::FinalizeOutput">
<polygon fill="none" stroke="#000000" points="155.5,-591.5 155.5,-611.5 326.5,-611.5 326.5,-591.5 155.5,-591.5"/>
<text text-anchor="middle" x="241" y="-598.5" font-family="FreeSans" font-size="10.00" fill="#000000">EicGeoParData::FinalizeOutput</text>
</a>
</g>
</g>
<!-- Node1&#45;&gt;Node22 -->
<g id="edge22" class="edge">
<title>Node1&#45;&gt;Node22</title>
<path fill="none" stroke="#191970" d="M125.0133,-615.4058C135.566,-614.1406 146.5794,-612.8202 157.4387,-611.5183"/>
<polygon fill="#191970" stroke="#191970" points="124.5693,-611.9338 115.0571,-616.5994 125.4026,-618.8841 124.5693,-611.9338"/>
</g>
<!-- Node30 -->
<g id="node30" class="node">
<title>Node30</title>
<g id="a_node30"><a xlink:href="../../d1/dd5/HCAL_2hcal_8C.html#ae16e3709bf92cc3517979d9d0977830b" target="_top" xlink:title="hcal">
<polygon fill="none" stroke="#ff0000" points="431.5,-279.5 431.5,-299.5 468.5,-299.5 468.5,-279.5 431.5,-279.5"/>
<text text-anchor="middle" x="450" y="-286.5" font-family="FreeSans" font-size="10.00" fill="#000000">hcal</text>
</a>
</g>
</g>
<!-- Node1&#45;&gt;Node30 -->
<g id="edge50" class="edge">
<title>Node1&#45;&gt;Node30</title>
<path fill="none" stroke="#191970" d="M60.6029,-603.0963C70.6357,-540.0138 104.2793,-350.1085 151,-312.5 194.1922,-277.7318 372.5004,-284.8977 431.1822,-288.2859"/>
<polygon fill="#191970" stroke="#191970" points="57.0891,-602.9142 59.0065,-613.3341 64.0055,-603.9927 57.0891,-602.9142"/>
</g>
<!-- Node39 -->
<g id="node39" class="node">
<title>Node39</title>
<g id="a_node39"><a xlink:href="../../d0/dd5/classEicCalorimeterReconstruction.html#af95bd9ff660679c0b0b1d7fca13ba839" target="_top" xlink:title="EicCalorimeterReconstruction\l::Finish">
<polygon fill="none" stroke="#000000" points="158,-462.5 158,-494.5 324,-494.5 324,-462.5 158,-462.5"/>
<text text-anchor="start" x="166" y="-481.5" font-family="FreeSans" font-size="10.00" fill="#000000">EicCalorimeterReconstruction</text>
<text text-anchor="middle" x="241" y="-469.5" font-family="FreeSans" font-size="10.00" fill="#000000">::Finish</text>
</a>
</g>
</g>
<!-- Node1&#45;&gt;Node39 -->
<g id="edge43" class="edge">
<title>Node1&#45;&gt;Node39</title>
<path fill="none" stroke="#191970" d="M67.3926,-604.4719C82.0858,-578.0817 112.1676,-530.6712 151,-504.5 156.6645,-500.6824 162.8928,-497.4176 169.3475,-494.627"/>
<polygon fill="#191970" stroke="#191970" points="64.2056,-603.0075 62.5286,-613.4688 70.3633,-606.3366 64.2056,-603.0075"/>
</g>
<!-- Node40 -->
<g id="node40" class="node">
<title>Node40</title>
<g id="a_node40"><a xlink:href="../../dd/df6/classEicCalorimeterDigiHitProducer.html#a3e04c9540ac79b05e69a3d0ebe98f7fc" target="_top" xlink:title="EicCalorimeterDigiHitProducer\l::Finish">
<polygon fill="none" stroke="#000000" points="156,-411.5 156,-443.5 326,-443.5 326,-411.5 156,-411.5"/>
<text text-anchor="start" x="164" y="-430.5" font-family="FreeSans" font-size="10.00" fill="#000000">EicCalorimeterDigiHitProducer</text>
<text text-anchor="middle" x="241" y="-418.5" font-family="FreeSans" font-size="10.00" fill="#000000">::Finish</text>
</a>
</g>
</g>
<!-- Node1&#45;&gt;Node40 -->
<g id="edge44" class="edge">
<title>Node1&#45;&gt;Node40</title>
<path fill="none" stroke="#191970" d="M62.9206,-603.574C73.6355,-567.9982 100.9375,-493.5378 151,-453.5 155.8266,-449.6399 161.2033,-446.3529 166.8605,-443.5539"/>
<polygon fill="#191970" stroke="#191970" points="59.528,-602.707 60.1209,-613.2853 66.2541,-604.6461 59.528,-602.707"/>
</g>
<!-- Node41 -->
<g id="node41" class="node">
<title>Node41</title>
<g id="a_node41"><a xlink:href="../../df/dca/classEicTrackingDigiHitProducer.html#a4adeff93b9d60817a191e4790753f019" target="_top" xlink:title="EicTrackingDigiHitProducer\l::Finish">
<polygon fill="none" stroke="#000000" points="164.5,-360.5 164.5,-392.5 317.5,-392.5 317.5,-360.5 164.5,-360.5"/>
<text text-anchor="start" x="172.5" y="-379.5" font-family="FreeSans" font-size="10.00" fill="#000000">EicTrackingDigiHitProducer</text>
<text text-anchor="middle" x="241" y="-367.5" font-family="FreeSans" font-size="10.00" fill="#000000">::Finish</text>
</a>
</g>
</g>
<!-- Node1&#45;&gt;Node41 -->
<g id="edge45" class="edge">
<title>Node1&#45;&gt;Node41</title>
<path fill="none" stroke="#191970" d="M60.194,-603.2252C67.05,-559.8053 89.2191,-457.3337 151,-402.5 155.2574,-398.7214 160.0329,-395.49 165.1053,-392.7268"/>
<polygon fill="#191970" stroke="#191970" points="56.6937,-602.9725 58.7055,-613.3746 63.6196,-603.9883 56.6937,-602.9725"/>
</g>
<!-- Node42 -->
<g id="node42" class="node">
<title>Node42</title>
<g id="a_node42"><a xlink:href="../../dd/dac/classEicDetector.html#a266e20045e4ac91b713ad76ed897a985" target="_top" xlink:title="EicDetector::FinishRun">
<polygon fill="none" stroke="#000000" points="176.5,-321.5 176.5,-341.5 305.5,-341.5 305.5,-321.5 176.5,-321.5"/>
<text text-anchor="middle" x="241" y="-328.5" font-family="FreeSans" font-size="10.00" fill="#000000">EicDetector::FinishRun</text>
</a>
</g>
</g>
<!-- Node1&#45;&gt;Node42 -->
<g id="edge46" class="edge">
<title>Node1&#45;&gt;Node42</title>
<path fill="none" stroke="#191970" d="M61.7676,-603.3125C74.2006,-546.3696 111.9885,-386.3548 151,-351.5 158.1616,-345.1014 166.9101,-340.6036 176.1082,-337.4669"/>
<polygon fill="#191970" stroke="#191970" points="58.3093,-602.7465 59.6262,-613.2592 65.1525,-604.2198 58.3093,-602.7465"/>
</g>
<!-- Node43 -->
<g id="node43" class="node">
<title>Node43</title>
<g id="a_node43"><a xlink:href="../../dd/dac/classEicDetector.html#a07cbc95f9c21475def3c27195d757726" target="_top" xlink:title="EicDetector::GetNodeMulti\lIndex">
<polygon fill="none" stroke="#000000" points="166,-78.5 166,-110.5 316,-110.5 316,-78.5 166,-78.5"/>
<text text-anchor="start" x="174" y="-97.5" font-family="FreeSans" font-size="10.00" fill="#000000">EicDetector::GetNodeMulti</text>
<text text-anchor="middle" x="241" y="-85.5" font-family="FreeSans" font-size="10.00" fill="#000000">Index</text>
</a>
</g>
</g>
<!-- Node1&#45;&gt;Node43 -->
<g id="edge47" class="edge">
<title>Node1&#45;&gt;Node43</title>
<path fill="none" stroke="#191970" d="M58.4616,-603.3697C62.9081,-518.6923 84.1878,-192.431 151,-119.5 155.2722,-114.8366 160.3314,-111.0138 165.8388,-107.8838"/>
<polygon fill="#191970" stroke="#191970" points="54.9606,-603.3034 57.9524,-613.4671 61.9517,-603.6561 54.9606,-603.3034"/>
</g>
<!-- Node45 -->
<g id="node45" class="node">
<title>Node45</title>
<g id="a_node45"><a xlink:href="../../df/dca/classEicTrackingDigiHitProducer.html#a13bf30baf1c24ee624646ff43681a477" target="_top" xlink:title="EicTrackingDigiHitProducer\l::HandleHit">
<polygon fill="none" stroke="#000000" points="164.5,-231.5 164.5,-263.5 317.5,-263.5 317.5,-231.5 164.5,-231.5"/>
<text text-anchor="start" x="172.5" y="-250.5" font-family="FreeSans" font-size="10.00" fill="#000000">EicTrackingDigiHitProducer</text>
<text text-anchor="middle" x="241" y="-238.5" font-family="FreeSans" font-size="10.00" fill="#000000">::HandleHit</text>
</a>
</g>
</g>
<!-- Node1&#45;&gt;Node45 -->
<g id="edge49" class="edge">
<title>Node1&#45;&gt;Node45</title>
<path fill="none" stroke="#191970" d="M60.4788,-603.1528C70.5911,-536.64 105.524,-327.1326 151,-278.5 156.6436,-272.4646 163.516,-267.6043 170.9217,-263.6901"/>
<polygon fill="#191970" stroke="#191970" points="56.9936,-602.7941 58.9757,-613.2018 63.9166,-603.8296 56.9936,-602.7941"/>
</g>
<!-- Node46 -->
<g id="node46" class="node">
<title>Node46</title>
<g id="a_node46"><a xlink:href="../../de/d93/classEicDigiHitProducer.html#a09862b32b794944e02723bdce363a565" target="_top" xlink:title="EicDigiHitProducer\l::Init">
<polygon fill="none" stroke="#000000" points="186,-180.5 186,-212.5 296,-212.5 296,-180.5 186,-180.5"/>
<text text-anchor="start" x="194" y="-199.5" font-family="FreeSans" font-size="10.00" fill="#000000">EicDigiHitProducer</text>
<text text-anchor="middle" x="241" y="-187.5" font-family="FreeSans" font-size="10.00" fill="#000000">::Init</text>
</a>
</g>
</g>
<!-- Node1&#45;&gt;Node46 -->
<g id="edge51" class="edge">
<title>Node1&#45;&gt;Node46</title>
<path fill="none" stroke="#191970" d="M59.5396,-603.1963C67.3154,-529.7113 97.3962,-278.9751 151,-222.5 160.2931,-212.7091 173.0209,-206.5339 185.9792,-202.659"/>
<polygon fill="#191970" stroke="#191970" points="56.0305,-603.1044 58.4829,-613.4115 62.9933,-603.8247 56.0305,-603.1044"/>
</g>
<!-- Node47 -->
<g id="node47" class="node">
<title>Node47</title>
<g id="a_node47"><a xlink:href="../../d0/dd5/classEicCalorimeterReconstruction.html#a4e370cb1dcee2d8570124b7c9fcdd865" target="_top" xlink:title="EicCalorimeterReconstruction\l::Init">
<polygon fill="none" stroke="#000000" points="158,-129.5 158,-161.5 324,-161.5 324,-129.5 158,-129.5"/>
<text text-anchor="start" x="166" y="-148.5" font-family="FreeSans" font-size="10.00" fill="#000000">EicCalorimeterReconstruction</text>
<text text-anchor="middle" x="241" y="-136.5" font-family="FreeSans" font-size="10.00" fill="#000000">::Init</text>
</a>
</g>
</g>
<!-- Node1&#45;&gt;Node47 -->
<g id="edge52" class="edge">
<title>Node1&#45;&gt;Node47</title>
<path fill="none" stroke="#191970" d="M58.9604,-603.2223C65.0671,-523.9565 91.0773,-236.2402 151,-171.5 154.5353,-167.6805 158.5929,-164.4097 162.9872,-161.61"/>
<polygon fill="#191970" stroke="#191970" points="55.4584,-603.1201 58.2022,-613.3534 62.4389,-603.6426 55.4584,-603.1201"/>
</g>
<!-- Node48 -->
<g id="node48" class="node">
<title>Node48</title>
<g id="a_node48"><a xlink:href="../../d6/d0f/femc-lib_8C.html#a95082d6d875317b195048aefd399fb55" target="_top" xlink:title="make_single_tower">
<polygon fill="none" stroke="#000000" points="184.5,-513.5 184.5,-533.5 297.5,-533.5 297.5,-513.5 184.5,-513.5"/>
<text text-anchor="middle" x="241" y="-520.5" font-family="FreeSans" font-size="10.00" fill="#000000">make_single_tower</text>
</a>
</g>
</g>
<!-- Node1&#45;&gt;Node48 -->
<g id="edge54" class="edge">
<title>Node1&#45;&gt;Node48</title>
<path fill="none" stroke="#191970" d="M74.4408,-606.3114C92.096,-589.3209 121.2882,-563.7235 151,-548.5 163.4119,-542.1405 177.6414,-537.2324 191.0666,-533.5183"/>
<polygon fill="#191970" stroke="#191970" points="71.8611,-603.9393 67.1803,-613.444 76.7667,-608.9328 71.8611,-603.9393"/>
</g>
<!-- Node49 -->
<g id="node49" class="node">
<title>Node49</title>
<g id="a_node49"><a xlink:href="../../dd/dac/classEicDetector.html#a6f6476ea0c24770f0c6572db020974f8" target="_top" xlink:title="EicDetector::Print">
<polygon fill="none" stroke="#ff0000" points="188.5,-39.5 188.5,-59.5 293.5,-59.5 293.5,-39.5 188.5,-39.5"/>
<text text-anchor="middle" x="241" y="-46.5" font-family="FreeSans" font-size="10.00" fill="#000000">EicDetector::Print</text>
</a>
</g>
</g>
<!-- Node1&#45;&gt;Node49 -->
<g id="edge57" class="edge">
<title>Node1&#45;&gt;Node49</title>
<path fill="none" stroke="#191970" d="M57.9682,-603.2603C60.4804,-512.9099 75.2508,-147.4326 151,-68.5 160.7304,-58.3606 174.406,-52.947 188.1646,-50.2082"/>
<polygon fill="#191970" stroke="#191970" points="54.4684,-603.2124 57.7093,-613.2993 61.466,-603.3929 54.4684,-603.2124"/>
</g>
<!-- Node50 -->
<g id="node50" class="node">
<title>Node50</title>
<g id="a_node50"><a xlink:href="../../dd/dac/classEicDetector.html#a006cd2146093b94dffb08e205e44b534" target="_top" xlink:title="EicDetector::Register">
<polygon fill="none" stroke="#000000" points="179.5,-.5 179.5,-20.5 302.5,-20.5 302.5,-.5 179.5,-.5"/>
<text text-anchor="middle" x="241" y="-7.5" font-family="FreeSans" font-size="10.00" fill="#000000">EicDetector::Register</text>
</a>
</g>
</g>
<!-- Node1&#45;&gt;Node50 -->
<g id="edge58" class="edge">
<title>Node1&#45;&gt;Node50</title>
<path fill="none" stroke="#191970" d="M57.7267,-603.0486C59.2035,-508.4861 70.189,-114.6203 151,-29.5 158.5866,-21.5088 168.6218,-16.4451 179.2345,-13.3113"/>
<polygon fill="#191970" stroke="#191970" points="54.227,-603.009 57.5897,-613.056 61.2263,-603.1049 54.227,-603.009"/>
</g>
<!-- Node2&#45;&gt;Node3 -->
<g id="edge2" class="edge">
<title>Node2&#45;&gt;Node3</title>
<path fill="none" stroke="#191970" d="M325.6457,-1182.2749C352.2047,-1176.5564 380.5401,-1170.4555 403.4448,-1165.5239"/>
<polygon fill="#191970" stroke="#191970" points="324.6079,-1178.918 315.5686,-1184.4445 326.0813,-1185.7612 324.6079,-1178.918"/>
</g>
<!-- Node5 -->
<g id="node5" class="node">
<title>Node5</title>
<g id="a_node5"><a xlink:href="../../da/d04/geometry_2MAPS_2fbst_8C.html#ae3a999f2ba24d7baedd44fc7f3406858" target="_top" xlink:title="fbst">
<polygon fill="none" stroke="#ff0000" points="595.5,-1047.5 595.5,-1067.5 631.5,-1067.5 631.5,-1047.5 595.5,-1047.5"/>
<text text-anchor="middle" x="613.5" y="-1054.5" font-family="FreeSans" font-size="10.00" fill="#000000">fbst</text>
</a>
</g>
</g>
<!-- Node4&#45;&gt;Node5 -->
<g id="edge4" class="edge">
<title>Node4&#45;&gt;Node5</title>
<path fill="none" stroke="#191970" d="M533.8788,-1057.5C557.0101,-1057.5 579.9139,-1057.5 595.176,-1057.5"/>
<polygon fill="#191970" stroke="#191970" points="533.6189,-1054.0001 523.6189,-1057.5 533.6189,-1061.0001 533.6189,-1054.0001"/>
</g>
<!-- Node9 -->
<g id="node9" class="node">
<title>Node9</title>
<g id="a_node9"><a xlink:href="../../d7/da5/beampipe_8C.html#a31f2b254b45d0630b2d4302228e2e41f" target="_top" xlink:title="beampipe">
<polygon fill="none" stroke="#ff0000" points="580,-973.5 580,-993.5 647,-993.5 647,-973.5 580,-973.5"/>
<text text-anchor="middle" x="613.5" y="-980.5" font-family="FreeSans" font-size="10.00" fill="#000000">beampipe</text>
</a>
</g>
</g>
<!-- Node8&#45;&gt;Node9 -->
<g id="edge8" class="edge">
<title>Node8&#45;&gt;Node9</title>
<path fill="none" stroke="#191970" d="M523.1351,-996.2119C542.8693,-993.4358 563.2806,-990.5645 579.7002,-988.2547"/>
<polygon fill="#191970" stroke="#191970" points="522.6283,-992.7486 513.2134,-997.6076 523.6035,-999.6804 522.6283,-992.7486"/>
</g>
<!-- Node10&#45;&gt;Node3 -->
<g id="edge10" class="edge">
<title>Node10&#45;&gt;Node3</title>
<path fill="none" stroke="#191970" d="M325.6457,-1128.7251C352.2047,-1134.4436 380.5401,-1140.5445 403.4448,-1145.4761"/>
<polygon fill="#191970" stroke="#191970" points="326.0813,-1125.2388 315.5686,-1126.5555 324.6079,-1132.082 326.0813,-1125.2388"/>
</g>
<!-- Node19 -->
<g id="node19" class="node">
<title>Node19</title>
<g id="a_node19"><a xlink:href="../../d8/d11/examples_2physics_2config_82_2digitization_8C.html#afd97e93afdacaf415631892fe39fdf2c" target="_top" xlink:title="digitization">
<polygon fill="none" stroke="#000000" points="577.5,-279.5 577.5,-299.5 649.5,-299.5 649.5,-279.5 577.5,-279.5"/>
<text text-anchor="middle" x="613.5" y="-286.5" font-family="FreeSans" font-size="10.00" fill="#000000">digitization</text>
</a>
</g>
</g>
<!-- Node18&#45;&gt;Node19 -->
<g id="edge19" class="edge">
<title>Node18&#45;&gt;Node19</title>
<path fill="none" stroke="#191970" d="M480.997,-321.5472C496.611,-318.0086 515.8265,-313.5986 533,-309.5 547.5675,-306.0233 563.5845,-302.0707 577.4691,-298.6026"/>
<polygon fill="#191970" stroke="#191970" points="479.8152,-318.2259 470.8321,-323.8432 481.3575,-325.0538 479.8152,-318.2259"/>
</g>
<!-- Node20 -->
<g id="node20" class="node">
<title>Node20</title>
<g id="a_node20"><a xlink:href="../../d5/dcb/G4__FEMC_8C.html#a46bf470cecae66db11fccb5925a48429" target="_top" xlink:title="FEMCSetup">
<polygon fill="none" stroke="#ff0000" points="576.5,-357.5 576.5,-377.5 650.5,-377.5 650.5,-357.5 576.5,-357.5"/>
<text text-anchor="middle" x="613.5" y="-364.5" font-family="FreeSans" font-size="10.00" fill="#000000">FEMCSetup</text>
</a>
</g>
</g>
<!-- Node18&#45;&gt;Node20 -->
<g id="edge20" class="edge">
<title>Node18&#45;&gt;Node20</title>
<path fill="none" stroke="#191970" d="M480.4503,-335.7634C507.6202,-342.2443 547.4771,-351.7514 576.4807,-358.6697"/>
<polygon fill="#191970" stroke="#191970" points="481.2466,-332.3552 470.7074,-333.4394 479.6224,-339.1642 481.2466,-332.3552"/>
</g>
<!-- Node21 -->
<g id="node21" class="node">
<title>Node21</title>
<g id="a_node21"><a xlink:href="../../de/d0b/examples_2physics_2config_82_2reconstruction_8C.html#a3d26f5f344cf2281e72b22d404fd8c51" target="_top" xlink:title="reconstruction">
<polygon fill="none" stroke="#000000" points="569,-318.5 569,-338.5 658,-338.5 658,-318.5 569,-318.5"/>
<text text-anchor="middle" x="613.5" y="-325.5" font-family="FreeSans" font-size="10.00" fill="#000000">reconstruction</text>
</a>
</g>
</g>
<!-- Node18&#45;&gt;Node21 -->
<g id="edge21" class="edge">
<title>Node18&#45;&gt;Node21</title>
<path fill="none" stroke="#191970" d="M481.0063,-328.5C505.8667,-328.5 541.0836,-328.5 568.9613,-328.5"/>
<polygon fill="#191970" stroke="#191970" points="480.7074,-325.0001 470.7074,-328.5 480.7074,-332.0001 480.7074,-325.0001"/>
</g>
<!-- Node22&#45;&gt;Node4 -->
<g id="edge27" class="edge">
<title>Node22&#45;&gt;Node4</title>
<path fill="none" stroke="#191970" d="M327.206,-617.6446C328.5356,-618.851 329.8031,-620.1346 331,-621.5 391.437,-690.4431 309.1509,-961.3716 367,-1032.5 369.7537,-1035.8858 372.9487,-1038.8254 376.4495,-1041.3763"/>
<polygon fill="#191970" stroke="#191970" points="329.0919,-614.686 318.9728,-611.5469 324.9258,-620.3112 329.0919,-614.686"/>
</g>
<!-- Node22&#45;&gt;Node8 -->
<g id="edge28" class="edge">
<title>Node22&#45;&gt;Node8</title>
<path fill="none" stroke="#191970" d="M327.183,-617.6648C328.5196,-618.8651 329.7947,-620.142 331,-621.5 384.3694,-681.6307 315.8881,-919.439 367,-981.5 372.3576,-988.0053 379.343,-992.8609 386.9875,-996.4771"/>
<polygon fill="#191970" stroke="#191970" points="329.0494,-614.693 318.9173,-611.5958 324.9065,-620.3354 329.0494,-614.693"/>
</g>
<!-- Node22&#45;&gt;Node18 -->
<g id="edge33" class="edge">
<title>Node22&#45;&gt;Node18</title>
<path fill="none" stroke="#191970" d="M319.0789,-586.548C323.4755,-583.7296 327.5142,-580.409 331,-576.5 399.2776,-499.9322 297.4122,-423.879 367,-348.5 382.785,-331.4014 410.4262,-327.753 429.4442,-327.4883"/>
<polygon fill="#191970" stroke="#191970" points="317.3374,-583.5111 310.2339,-591.3718 320.689,-589.6566 317.3374,-583.5111"/>
</g>
<!-- Node23 -->
<g id="node23" class="node">
<title>Node23</title>
<g id="a_node23"><a xlink:href="../../d3/d74/classEicCadWizard.html#a9460bc1e33f37cde74228402569b31b8" target="_top" xlink:title="EicCadWizard::AssembleRoot\lFiles">
<polygon fill="none" stroke="#000000" points="368,-783.5 368,-815.5 532,-815.5 532,-783.5 368,-783.5"/>
<text text-anchor="start" x="376" y="-802.5" font-family="FreeSans" font-size="10.00" fill="#000000">EicCadWizard::AssembleRoot</text>
<text text-anchor="middle" x="450" y="-790.5" font-family="FreeSans" font-size="10.00" fill="#000000">Files</text>
</a>
</g>
</g>
<!-- Node22&#45;&gt;Node23 -->
<g id="edge23" class="edge">
<title>Node22&#45;&gt;Node23</title>
<path fill="none" stroke="#191970" d="M326.2785,-617.3614C327.9273,-618.6463 329.5053,-620.0238 331,-621.5 380.7022,-670.5886 319.145,-723.609 367,-774.5 370.1959,-777.8986 373.8349,-780.8408 377.7628,-783.3871"/>
<polygon fill="#191970" stroke="#191970" points="327.7982,-614.1759 317.5017,-611.6793 323.994,-620.052 327.7982,-614.1759"/>
</g>
<!-- Node24 -->
<g id="node24" class="node">
<title>Node24</title>
<g id="a_node24"><a xlink:href="../../d3/d74/classEicCadWizard.html#aa3d8913ceadf362918c9dfa6e5768fa5" target="_top" xlink:title="EicCadWizard::CreateStlSolid\lRootFile">
<polygon fill="none" stroke="#ff0000" points="368.5,-732.5 368.5,-764.5 531.5,-764.5 531.5,-732.5 368.5,-732.5"/>
<text text-anchor="start" x="376.5" y="-751.5" font-family="FreeSans" font-size="10.00" fill="#000000">EicCadWizard::CreateStlSolid</text>
<text text-anchor="middle" x="450" y="-739.5" font-family="FreeSans" font-size="10.00" fill="#000000">RootFile</text>
</a>
</g>
</g>
<!-- Node22&#45;&gt;Node24 -->
<g id="edge24" class="edge">
<title>Node22&#45;&gt;Node24</title>
<path fill="none" stroke="#191970" d="M324.6866,-616.6289C326.8959,-618.1153 329.0084,-619.7352 331,-621.5 366.9806,-653.3827 332.2216,-690.31 367,-723.5 370.5927,-726.9287 374.6384,-729.8888 378.9606,-732.4442"/>
<polygon fill="#191970" stroke="#191970" points="326.1583,-613.4393 315.7362,-611.5334 322.695,-619.5225 326.1583,-613.4393"/>
</g>
<!-- Node25 -->
<g id="node25" class="node">
<title>Node25</title>
<g id="a_node25"><a xlink:href="../../d3/d74/classEicCadWizard.html#a49e48737f82f804deb1834754213f6c0" target="_top" xlink:title="EicCadWizard::CreateBoolean\lSolidRootFile">
<polygon fill="none" stroke="#ff0000" points="367,-681.5 367,-713.5 533,-713.5 533,-681.5 367,-681.5"/>
<text text-anchor="start" x="375" y="-700.5" font-family="FreeSans" font-size="10.00" fill="#000000">EicCadWizard::CreateBoolean</text>
<text text-anchor="middle" x="450" y="-688.5" font-family="FreeSans" font-size="10.00" fill="#000000">SolidRootFile</text>
</a>
</g>
</g>
<!-- Node22&#45;&gt;Node25 -->
<g id="edge25" class="edge">
<title>Node22&#45;&gt;Node25</title>
<path fill="none" stroke="#191970" d="M320.3877,-615.5151C324.0864,-617.2824 327.6484,-619.2685 331,-621.5 354.0944,-636.8762 344.4893,-656.2812 367,-672.5 371.7619,-675.9309 376.9993,-678.8967 382.4567,-681.4595"/>
<polygon fill="#191970" stroke="#191970" points="321.5298,-612.1988 310.9544,-611.5574 318.8216,-618.6537 321.5298,-612.1988"/>
</g>
<!-- Node26 -->
<g id="node26" class="node">
<title>Node26</title>
<g id="a_node26"><a xlink:href="../../d3/d74/classEicCadWizard.html#a2c043cddfa85265bc3d030b949a9255f" target="_top" xlink:title="EicCadWizard::CreateGhost\lSolidRootFile">
<polygon fill="none" stroke="#ff0000" points="372,-630.5 372,-662.5 528,-662.5 528,-630.5 372,-630.5"/>
<text text-anchor="start" x="380" y="-649.5" font-family="FreeSans" font-size="10.00" fill="#000000">EicCadWizard::CreateGhost</text>
<text text-anchor="middle" x="450" y="-637.5" font-family="FreeSans" font-size="10.00" fill="#000000">SolidRootFile</text>
</a>
</g>
</g>
<!-- Node22&#45;&gt;Node26 -->
<g id="edge26" class="edge">
<title>Node22&#45;&gt;Node26</title>
<path fill="none" stroke="#191970" d="M297.6467,-613.6967C321.6484,-618.8645 349.9457,-624.9572 375.5977,-630.4804"/>
<polygon fill="#191970" stroke="#191970" points="298.1562,-610.2262 287.6435,-611.5429 296.6828,-617.0694 298.1562,-610.2262"/>
</g>
<!-- Node27 -->
<g id="node27" class="node">
<title>Node27</title>
<g id="a_node27"><a xlink:href="../../d3/db3/config_81a_2tracker_8C.html#a890a5afd16f942935543675545b4bd62" target="_top" xlink:title="tracker">
<polygon fill="none" stroke="#000000" points="424,-591.5 424,-611.5 476,-611.5 476,-591.5 424,-591.5"/>
<text text-anchor="middle" x="450" y="-598.5" font-family="FreeSans" font-size="10.00" fill="#000000">tracker</text>
</a>
</g>
</g>
<!-- Node22&#45;&gt;Node27 -->
<g id="edge29" class="edge">
<title>Node22&#45;&gt;Node27</title>
<path fill="none" stroke="#191970" d="M336.9178,-601.5C368.8247,-601.5 401.806,-601.5 423.8554,-601.5"/>
<polygon fill="#191970" stroke="#191970" points="336.6114,-598.0001 326.6113,-601.5 336.6113,-605.0001 336.6114,-598.0001"/>
</g>
<!-- Node28 -->
<g id="node28" class="node">
<title>Node28</title>
<g id="a_node28"><a xlink:href="../../d0/d95/ip_8C.html#a292ff32a75b66b513d1f0ce00f9a4dc4" target="_top" xlink:title="ip">
<polygon fill="none" stroke="#ff0000" points="435.5,-951.5 435.5,-971.5 464.5,-971.5 464.5,-951.5 435.5,-951.5"/>
<text text-anchor="middle" x="450" y="-958.5" font-family="FreeSans" font-size="10.00" fill="#000000">ip</text>
</a>
</g>
</g>
<!-- Node22&#45;&gt;Node28 -->
<g id="edge30" class="edge">
<title>Node22&#45;&gt;Node28</title>
<path fill="none" stroke="#191970" d="M327.1607,-617.6847C328.504,-618.879 329.7866,-620.1493 331,-621.5 426.9401,-728.2954 271.4005,-835.3996 367,-942.5 384.1283,-961.6889 416.3168,-963.5704 435.1801,-962.807"/>
<polygon fill="#191970" stroke="#191970" points="329.0079,-614.7002 318.8635,-611.6439 324.8878,-620.3593 329.0079,-614.7002"/>
</g>
<!-- Node29 -->
<g id="node29" class="node">
<title>Node29</title>
<g id="a_node29"><a xlink:href="../../d3/db9/rich_8C.html#aea082dab4a933202625508305cc26f50" target="_top" xlink:title="rich">
<polygon fill="none" stroke="#ff0000" points="432.5,-552.5 432.5,-572.5 467.5,-572.5 467.5,-552.5 432.5,-552.5"/>
<text text-anchor="middle" x="450" y="-559.5" font-family="FreeSans" font-size="10.00" fill="#000000">rich</text>
</a>
</g>
</g>
<!-- Node22&#45;&gt;Node29 -->
<g id="edge32" class="edge">
<title>Node22&#45;&gt;Node29</title>
<path fill="none" stroke="#191970" d="M304.8729,-589.5811C348.8446,-581.3759 404.1829,-571.0496 432.1159,-565.8372"/>
<polygon fill="#191970" stroke="#191970" points="304.011,-586.1815 294.8227,-591.4565 305.2951,-593.0627 304.011,-586.1815"/>
</g>
<!-- Node22&#45;&gt;Node30 -->
<g id="edge34" class="edge">
<title>Node22&#45;&gt;Node30</title>
<path fill="none" stroke="#191970" d="M277.0443,-587.0954C296.1366,-577.5811 318.2196,-563.2001 331,-543.5 388.2678,-455.2254 295.7779,-386.9559 367,-309.5 383.2528,-291.8247 412.1731,-288.5106 431.2202,-288.46"/>
<polygon fill="#191970" stroke="#191970" points="275.5174,-583.9458 267.9658,-591.3771 278.5034,-590.277 275.5174,-583.9458"/>
</g>
<!-- Node31 -->
<g id="node31" class="node">
<title>Node31</title>
<g id="a_node31"><a xlink:href="../../d1/d76/aerogel_8C.html#a56726089ae862a842963a7b0f01b5fc7" target="_top" xlink:title="aerogel">
<polygon fill="none" stroke="#ff0000" points="423,-513.5 423,-533.5 477,-533.5 477,-513.5 423,-513.5"/>
<text text-anchor="middle" x="450" y="-520.5" font-family="FreeSans" font-size="10.00" fill="#000000">aerogel</text>
</a>
</g>
</g>
<!-- Node22&#45;&gt;Node31 -->
<g id="edge35" class="edge">
<title>Node22&#45;&gt;Node31</title>
<path fill="none" stroke="#191970" d="M302.8103,-588.5129C312.5536,-585.2939 322.2787,-581.3377 331,-576.5 349.9805,-565.9714 347.8407,-553.6997 367,-543.5 384.4012,-534.2362 406.1243,-529.1998 422.9816,-526.4987"/>
<polygon fill="#191970" stroke="#191970" points="301.6318,-585.2133 293.0974,-591.4915 303.6841,-591.9057 301.6318,-585.2133"/>
</g>
<!-- Node32 -->
<g id="node32" class="node">
<title>Node32</title>
<g id="a_node32"><a xlink:href="../../da/ddc/romanPot__v2_8C.html#ac8016c32e351e993b5a66769fca3410e" target="_top" xlink:title="romanPot_v2">
<polygon fill="none" stroke="#000000" points="409,-474.5 409,-494.5 491,-494.5 491,-474.5 409,-474.5"/>
<text text-anchor="middle" x="450" y="-481.5" font-family="FreeSans" font-size="10.00" fill="#000000">romanPot_v2</text>
</a>
</g>
</g>
<!-- Node22&#45;&gt;Node32 -->
<g id="edge36" class="edge">
<title>Node22&#45;&gt;Node32</title>
<path fill="none" stroke="#191970" d="M313.3594,-587.4455C319.6953,-584.4688 325.7019,-580.8643 331,-576.5 358.6146,-553.7528 338.9972,-526.7676 367,-504.5 378.8333,-495.0902 394.4134,-490.0038 408.876,-487.2894"/>
<polygon fill="#191970" stroke="#191970" points="311.7825,-584.3103 303.885,-591.3729 314.4631,-590.7767 311.7825,-584.3103"/>
</g>
<!-- Node33 -->
<g id="node33" class="node">
<title>Node33</title>
<g id="a_node33"><a xlink:href="../../d9/d66/tpc_8C.html#ab423a18ea04a750c739676903c95ff3a" target="_top" xlink:title="tpc">
<polygon fill="none" stroke="#ff0000" points="434,-435.5 434,-455.5 466,-455.5 466,-435.5 434,-435.5"/>
<text text-anchor="middle" x="450" y="-442.5" font-family="FreeSans" font-size="10.00" fill="#000000">tpc</text>
</a>
</g>
</g>
<!-- Node22&#45;&gt;Node33 -->
<g id="edge37" class="edge">
<title>Node22&#45;&gt;Node33</title>
<path fill="none" stroke="#191970" d="M316.3245,-587.0665C321.6658,-584.1541 326.6494,-580.6688 331,-576.5 368.4468,-540.618 328.94,-500.7309 367,-465.5 385.2739,-448.5845 415.3084,-445.2573 433.7978,-444.9687"/>
<polygon fill="#191970" stroke="#191970" points="314.5953,-584.0124 307.0465,-591.4466 317.5837,-590.3425 314.5953,-584.0124"/>
</g>
<!-- Node34 -->
<g id="node34" class="node">
<title>Node34</title>
<g id="a_node34"><a xlink:href="../../d3/db4/b0tracker_8C.html#a3dcb82e6e9188403537a4bbe381b8366" target="_top" xlink:title="b0tracker">
<polygon fill="none" stroke="#ff0000" points="417.5,-396.5 417.5,-416.5 482.5,-416.5 482.5,-396.5 417.5,-396.5"/>
<text text-anchor="middle" x="450" y="-403.5" font-family="FreeSans" font-size="10.00" fill="#000000">b0tracker</text>
</a>
</g>
</g>
<!-- Node22&#45;&gt;Node34 -->
<g id="edge38" class="edge">
<title>Node22&#45;&gt;Node34</title>
<path fill="none" stroke="#191970" d="M317.8631,-586.7494C322.6742,-583.8954 327.1286,-580.5109 331,-576.5 378.6134,-527.1704 318.543,-475.0012 367,-426.5 380.0951,-413.393 400.1908,-408.3174 417.3284,-406.555"/>
<polygon fill="#191970" stroke="#191970" points="316.1871,-583.6752 308.8668,-591.3345 319.3657,-589.9119 316.1871,-583.6752"/>
</g>
<!-- Node35 -->
<g id="node35" class="node">
<title>Node35</title>
<g id="a_node35"><a xlink:href="../../d6/db2/ippt_8C.html#abf4122f40eae398e07b200d1469922ba" target="_top" xlink:title="ippt">
<polygon fill="none" stroke="#ff0000" points="432,-357.5 432,-377.5 468,-377.5 468,-357.5 432,-357.5"/>
<text text-anchor="middle" x="450" y="-364.5" font-family="FreeSans" font-size="10.00" fill="#000000">ippt</text>
</a>
</g>
</g>
<!-- Node22&#45;&gt;Node35 -->
<g id="edge39" class="edge">
<title>Node22&#45;&gt;Node35</title>
<path fill="none" stroke="#191970" d="M318.6872,-586.578C323.2139,-583.756 327.3859,-580.4261 331,-576.5 388.9129,-513.5866 308.0108,-449.4054 367,-387.5 383.6668,-370.0092 412.7586,-366.6836 431.696,-366.5757"/>
<polygon fill="#191970" stroke="#191970" points="316.7901,-583.6224 309.598,-591.4022 320.0719,-589.8055 316.7901,-583.6224"/>
</g>
<!-- Node36 -->
<g id="node36" class="node">
<title>Node36</title>
<g id="a_node36"><a xlink:href="../../d7/d49/lqst_8C.html#a45f63200c92ba341ee0a5c0c8824e059" target="_top" xlink:title="lqst">
<polygon fill="none" stroke="#ff0000" points="432.5,-912.5 432.5,-932.5 467.5,-932.5 467.5,-912.5 432.5,-912.5"/>
<text text-anchor="middle" x="450" y="-919.5" font-family="FreeSans" font-size="10.00" fill="#000000">lqst</text>
</a>
</g>
</g>
<!-- Node22&#45;&gt;Node36 -->
<g id="edge40" class="edge">
<title>Node22&#45;&gt;Node36</title>
<path fill="none" stroke="#191970" d="M327.1325,-617.7102C328.4843,-618.8968 329.7763,-620.1586 331,-621.5 416.1546,-714.8442 282.1431,-809.8851 367,-903.5 383.381,-921.5717 413.1258,-924.2408 432.2026,-923.8549"/>
<polygon fill="#191970" stroke="#191970" points="328.9553,-614.7098 318.7953,-611.7056 324.8644,-620.39 328.9553,-614.7098"/>
</g>
<!-- Node37 -->
<g id="node37" class="node">
<title>Node37</title>
<g id="a_node37"><a xlink:href="../../da/d73/rp_8C.html#aae474c3ddcb876dab382631ee176559a" target="_top" xlink:title="rp">
<polygon fill="none" stroke="#ff0000" points="435.5,-873.5 435.5,-893.5 464.5,-893.5 464.5,-873.5 435.5,-873.5"/>
<text text-anchor="middle" x="450" y="-880.5" font-family="FreeSans" font-size="10.00" fill="#000000">rp</text>
</a>
</g>
</g>
<!-- Node22&#45;&gt;Node37 -->
<g id="edge41" class="edge">
<title>Node22&#45;&gt;Node37</title>
<path fill="none" stroke="#191970" d="M326.5862,-617.3101C328.1343,-618.6116 329.6095,-620.0062 331,-621.5 405.3887,-701.4144 292.8661,-784.3491 367,-864.5 384.4652,-883.3828 416.5326,-885.3743 435.2838,-884.7128"/>
<polygon fill="#191970" stroke="#191970" points="328.5033,-614.3802 318.2938,-611.5487 324.5092,-620.1289 328.5033,-614.3802"/>
</g>
<!-- Node38 -->
<g id="node38" class="node">
<title>Node38</title>
<g id="a_node38"><a xlink:href="../../d6/d25/zdc_8C.html#aebe1fdfd97b7da27cc60e7e18f2d863a" target="_top" xlink:title="zdc">
<polygon fill="none" stroke="#000000" points="433.5,-834.5 433.5,-854.5 466.5,-854.5 466.5,-834.5 433.5,-834.5"/>
<text text-anchor="middle" x="450" y="-841.5" font-family="FreeSans" font-size="10.00" fill="#000000">zdc</text>
</a>
</g>
</g>
<!-- Node22&#45;&gt;Node38 -->
<g id="edge42" class="edge">
<title>Node22&#45;&gt;Node38</title>
<path fill="none" stroke="#191970" d="M326.5308,-617.3624C328.0954,-618.6484 329.589,-620.0256 331,-621.5 394.6539,-688.0179 303.5583,-758.7797 367,-825.5 384.1129,-843.4973 414.5102,-846.0557 433.3863,-845.6881"/>
<polygon fill="#191970" stroke="#191970" points="328.4052,-614.4044 318.1706,-611.6649 324.463,-620.1888 328.4052,-614.4044"/>
</g>
<!-- Node28&#45;&gt;Node9 -->
<g id="edge31" class="edge">
<title>Node28&#45;&gt;Node9</title>
<path fill="none" stroke="#191970" d="M474.6462,-964.8163C502.6648,-968.5864 548.5635,-974.7624 579.8596,-978.9735"/>
<polygon fill="#191970" stroke="#191970" points="474.887,-961.3172 464.5095,-963.4524 473.9534,-968.2547 474.887,-961.3172"/>
</g>
<!-- Node44 -->
<g id="node44" class="node">
<title>Node44</title>
<g id="a_node44"><a xlink:href="../../dd/dac/classEicDetector.html#adc3de28f6738a336d9964256bb696dd7" target="_top" xlink:title="EicDetector::ProcessHits">
<polygon fill="none" stroke="#000000" points="380.5,-84.5 380.5,-104.5 519.5,-104.5 519.5,-84.5 380.5,-84.5"/>
<text text-anchor="middle" x="450" y="-91.5" font-family="FreeSans" font-size="10.00" fill="#000000">EicDetector::ProcessHits</text>
</a>
</g>
</g>
<!-- Node43&#45;&gt;Node44 -->
<g id="edge48" class="edge">
<title>Node43&#45;&gt;Node44</title>
<path fill="none" stroke="#191970" d="M326.3397,-94.5C344.3122,-94.5 363.0678,-94.5 380.3805,-94.5"/>
<polygon fill="#191970" stroke="#191970" points="326.1586,-91.0001 316.1585,-94.5 326.1585,-98.0001 326.1586,-91.0001"/>
</g>
<!-- Node48&#45;&gt;Node18 -->
<g id="edge55" class="edge">
<title>Node48&#45;&gt;Node18</title>
<path fill="none" stroke="#191970" d="M307.3637,-518.6294C316.1502,-515.5134 324.3877,-510.9895 331,-504.5 381.7839,-454.6592 316.929,-399.0569 367,-348.5 383.271,-332.0711 410.5328,-328.2382 429.3483,-327.7505"/>
<polygon fill="#191970" stroke="#191970" points="306.2695,-515.303 297.6648,-521.4844 308.2462,-522.0181 306.2695,-515.303"/>
</g>
<!-- Node48&#45;&gt;Node30 -->
<g id="edge56" class="edge">
<title>Node48&#45;&gt;Node30</title>
<path fill="none" stroke="#191970" d="M307.6241,-518.889C316.3747,-515.7372 324.5329,-511.1341 331,-504.5 392.5187,-441.3925 306.3836,-373.4747 367,-309.5 383.5153,-292.0697 412.3659,-288.6906 431.3264,-288.5591"/>
<polygon fill="#191970" stroke="#191970" points="306.5354,-515.5612 297.9483,-521.7669 308.5311,-522.2707 306.5354,-515.5612"/>
</g>
</g>
</svg>
