<?xml version="1.0" encoding="UTF-8" standalone="no"?>
<!DOCTYPE svg PUBLIC "-//W3C//DTD SVG 1.1//EN"
 "http://www.w3.org/Graphics/SVG/1.1/DTD/svg11.dtd">
<!-- Generated by graphviz version 2.40.1 (20161225.0304)
 -->
<!-- Title: fun4all_coresoftware/blob/master/generators Pages: 1 -->
<svg width="925pt" height="184pt"
 viewBox="0.00 0.00 925.00 184.00" xmlns="http://www.w3.org/2000/svg" xmlns:xlink="http://www.w3.org/1999/xlink">
<g id="graph0" class="graph" transform="scale(1 1) rotate(0) translate(4 180)">
<title>fun4all_coresoftware/blob/master/generators</title>
<g id="clust1" class="cluster">
<title>clusterdir_e9f0e1e6ebc192d3819310a4ae234669</title>
<g id="a_clust1"><a xlink:href="dir_e9f0e1e6ebc192d3819310a4ae234669.html" target="_top" xlink:title="master">
<polygon fill="#ddddee" stroke="#000000" points="8,-8 8,-168 855,-168 855,-8 8,-8"/>
<text text-anchor="middle" x="431.5" y="-155" font-family="FreeSans" font-size="10.00" fill="#000000">master</text>
</a>
</g>
</g>
<g id="clust2" class="cluster">
<title>clusterdir_41f9a0531296679c444225dd08cb7e1c</title>
<g id="a_clust2"><a xlink:href="dir_41f9a0531296679c444225dd08cb7e1c.html" target="_top">
<polygon fill="#eeeeff" stroke="#000000" points="16,-16 16,-140 847,-140 847,-16 16,-16"/>
</a>
</g>
</g>
<!-- dir_41f9a0531296679c444225dd08cb7e1c -->
<g id="node1" class="node">
<title>dir_41f9a0531296679c444225dd08cb7e1c</title>
<text text-anchor="middle" x="803" y="-111" font-family="FreeSans" font-size="10.00" fill="#000000">generators</text>
</g>
<!-- dir_67ba09f9b0ce8786145af7a3239ea6ee -->
<g id="node2" class="node">
<title>dir_67ba09f9b0ce8786145af7a3239ea6ee</title>
<g id="a_node2"><a xlink:href="dir_67ba09f9b0ce8786145af7a3239ea6ee.html" target="_top" xlink:title="flowAfterburner">
<polygon fill="#ffffff" stroke="#000000" points="749.5,-132 654.5,-132 654.5,-96 749.5,-96 749.5,-132"/>
<text text-anchor="middle" x="702" y="-111" font-family="FreeSans" font-size="10.00" fill="#000000">flowAfterburner</text>
</a>
</g>
</g>
<!-- dir_cc79d56558aa128620cb9c561be16ffa -->
<g id="node3" class="node">
<title>dir_cc79d56558aa128620cb9c561be16ffa</title>
<g id="a_node3"><a xlink:href="dir_cc79d56558aa128620cb9c561be16ffa.html" target="_top" xlink:title="hijing">
<polygon fill="#ffffff" stroke="#ff0000" points="636,-132 582,-132 582,-96 636,-96 636,-132"/>
<text text-anchor="middle" x="609" y="-111" font-family="FreeSans" font-size="10.00" fill="#000000">hijing</text>
</a>
</g>
</g>
<!-- dir_52ae70c619e90aa2d06437a57d59352c -->
<g id="node4" class="node">
<title>dir_52ae70c619e90aa2d06437a57d59352c</title>
<g id="a_node4"><a xlink:href="dir_52ae70c619e90aa2d06437a57d59352c.html" target="_top" xlink:title="JETSCAPE">
<polygon fill="#ffffff" stroke="#000000" points="563.5,-132 498.5,-132 498.5,-96 563.5,-96 563.5,-132"/>
<text text-anchor="middle" x="531" y="-111" font-family="FreeSans" font-size="10.00" fill="#000000">JETSCAPE</text>
</a>
</g>
</g>
<!-- dir_9474b908408ce0816ef20b15b7087dc3 -->
<g id="node5" class="node">
<title>dir_9474b908408ce0816ef20b15b7087dc3</title>
<g id="a_node5"><a xlink:href="dir_9474b908408ce0816ef20b15b7087dc3.html" target="_top" xlink:title="JEWEL">
<polygon fill="#ffffff" stroke="#000000" points="480,-132 426,-132 426,-96 480,-96 480,-132"/>
<text text-anchor="middle" x="453" y="-111" font-family="FreeSans" font-size="10.00" fill="#000000">JEWEL</text>
</a>
</g>
</g>
<!-- dir_1d2c19c7d3e3deba45cc6ef4cc0c9805 -->
<g id="node6" class="node">
<title>dir_1d2c19c7d3e3deba45cc6ef4cc0c9805</title>
<g id="a_node6"><a xlink:href="dir_1d2c19c7d3e3deba45cc6ef4cc0c9805.html" target="_top" xlink:title="phhepmc">
<polygon fill="#ffffff" stroke="#000000" points="319.5,-60 256.5,-60 256.5,-24 319.5,-24 319.5,-60"/>
<text text-anchor="middle" x="288" y="-39" font-family="FreeSans" font-size="10.00" fill="#000000">phhepmc</text>
</a>
</g>
</g>
<!-- dir_5d75cb921eccf16b65a5eb6e6584c79f -->
<g id="node12" class="node">
<title>dir_5d75cb921eccf16b65a5eb6e6584c79f</title>
<g id="a_node12"><a xlink:href="dir_5d75cb921eccf16b65a5eb6e6584c79f.html" target="_top" xlink:title="offline">
<polygon fill="none" stroke="#ff0000" points="917,-60 863,-60 863,-24 917,-24 917,-60"/>
<text text-anchor="middle" x="890" y="-39" font-family="FreeSans" font-size="10.00" fill="#000000">offline</text>
</a>
</g>
</g>
<!-- dir_1d2c19c7d3e3deba45cc6ef4cc0c9805&#45;&gt;dir_5d75cb921eccf16b65a5eb6e6584c79f -->
<g id="edge1" class="edge">
<title>dir_1d2c19c7d3e3deba45cc6ef4cc0c9805&#45;&gt;dir_5d75cb921eccf16b65a5eb6e6584c79f</title>
<path fill="none" stroke="#000000" d="M319.7461,-42C497.4678,-42 675.1895,-42 852.9112,-42"/>
<polygon fill="#000000" stroke="#000000" points="852.9909,-45.5001 862.9909,-42 852.9909,-38.5001 852.9909,-45.5001"/>
<g id="a_edge1&#45;headlabel"><a xlink:href="dir_000476_000482.html" target="_top" xlink:title="61">
<text text-anchor="middle" x="849.3963" y="-45.3393" font-family="FreeSans" font-size="10.00" fill="#000000">61</text>
</a>
</g>
</g>
<!-- dir_575dd48ad53436a56d4ceee6c8cd14ba -->
<g id="node7" class="node">
<title>dir_575dd48ad53436a56d4ceee6c8cd14ba</title>
<g id="a_node7"><a xlink:href="dir_575dd48ad53436a56d4ceee6c8cd14ba.html" target="_top" xlink:title="PHPythia6">
<polygon fill="#ffffff" stroke="#000000" points="408,-132 340,-132 340,-96 408,-96 408,-132"/>
<text text-anchor="middle" x="374" y="-111" font-family="FreeSans" font-size="10.00" fill="#000000">PHPythia6</text>
</a>
</g>
</g>
<!-- dir_575dd48ad53436a56d4ceee6c8cd14ba&#45;&gt;dir_1d2c19c7d3e3deba45cc6ef4cc0c9805 -->
<g id="edge7" class="edge">
<title>dir_575dd48ad53436a56d4ceee6c8cd14ba&#45;&gt;dir_1d2c19c7d3e3deba45cc6ef4cc0c9805</title>
<path fill="none" stroke="#000000" d="M352.2986,-95.8314C341.8079,-87.0485 329.0545,-76.3712 317.6806,-66.8489"/>
<polygon fill="#000000" stroke="#000000" points="319.6089,-63.8986 309.6945,-60.1628 315.1153,-69.2659 319.6089,-63.8986"/>
<g id="a_edge7&#45;headlabel"><a xlink:href="dir_000477_000476.html" target="_top" xlink:title="2">
<text text-anchor="middle" x="324.1877" y="-61.029" font-family="FreeSans" font-size="10.00" fill="#000000">2</text>
</a>
</g>
</g>
<!-- dir_575dd48ad53436a56d4ceee6c8cd14ba&#45;&gt;dir_5d75cb921eccf16b65a5eb6e6584c79f -->
<g id="edge8" class="edge">
<title>dir_575dd48ad53436a56d4ceee6c8cd14ba&#45;&gt;dir_5d75cb921eccf16b65a5eb6e6584c79f</title>
<path fill="none" stroke="#000000" d="M408.4175,-98.4996C411.2852,-97.5443 414.1698,-96.6914 417,-96 605.0221,-50.0674 663.8342,-109.3062 851,-60 851.7301,-59.8077 852.4635,-59.6024 853.1987,-59.3855"/>
<polygon fill="#000000" stroke="#000000" points="854.48,-62.645 862.7473,-56.0191 852.1525,-56.0432 854.48,-62.645"/>
<g id="a_edge8&#45;headlabel"><a xlink:href="dir_000477_000482.html" target="_top" xlink:title="5">
<text text-anchor="middle" x="852.034" y="-63.5178" font-family="FreeSans" font-size="10.00" fill="#000000">5</text>
</a>
</g>
</g>
<!-- dir_7edffafebcb9543c443ebe461b67e409 -->
<g id="node8" class="node">
<title>dir_7edffafebcb9543c443ebe461b67e409</title>
<g id="a_node8"><a xlink:href="dir_7edffafebcb9543c443ebe461b67e409.html" target="_top" xlink:title="PHPythia8">
<polygon fill="#ffffff" stroke="#000000" points="322,-132 254,-132 254,-96 322,-96 322,-132"/>
<text text-anchor="middle" x="288" y="-111" font-family="FreeSans" font-size="10.00" fill="#000000">PHPythia8</text>
</a>
</g>
</g>
<!-- dir_7edffafebcb9543c443ebe461b67e409&#45;&gt;dir_1d2c19c7d3e3deba45cc6ef4cc0c9805 -->
<g id="edge5" class="edge">
<title>dir_7edffafebcb9543c443ebe461b67e409&#45;&gt;dir_1d2c19c7d3e3deba45cc6ef4cc0c9805</title>
<path fill="none" stroke="#000000" d="M288,-95.8314C288,-88.131 288,-78.9743 288,-70.4166"/>
<polygon fill="#000000" stroke="#000000" points="291.5001,-70.4132 288,-60.4133 284.5001,-70.4133 291.5001,-70.4132"/>
<g id="a_edge5&#45;headlabel"><a xlink:href="dir_000478_000476.html" target="_top" xlink:title="4">
<text text-anchor="middle" x="294.3393" y="-71.0079" font-family="FreeSans" font-size="10.00" fill="#000000">4</text>
</a>
</g>
</g>
<!-- dir_7edffafebcb9543c443ebe461b67e409&#45;&gt;dir_5d75cb921eccf16b65a5eb6e6584c79f -->
<g id="edge6" class="edge">
<title>dir_7edffafebcb9543c443ebe461b67e409&#45;&gt;dir_5d75cb921eccf16b65a5eb6e6584c79f</title>
<path fill="none" stroke="#000000" d="M322.4072,-98.4568C325.2772,-97.5111 328.1651,-96.6721 331,-96 556.416,-42.5587 626.5814,-117.4862 851,-60 851.7314,-59.8126 852.466,-59.6119 853.2023,-59.3993"/>
<polygon fill="#000000" stroke="#000000" points="854.4688,-62.6644 862.7602,-56.0687 852.1654,-56.0542 854.4688,-62.6644"/>
<g id="a_edge6&#45;headlabel"><a xlink:href="dir_000478_000482.html" target="_top" xlink:title="12">
<text text-anchor="middle" x="852.0086" y="-63.5283" font-family="FreeSans" font-size="10.00" fill="#000000">12</text>
</a>
</g>
</g>
<!-- dir_41b6e1feb1f6262d90beead918aa029b -->
<g id="node9" class="node">
<title>dir_41b6e1feb1f6262d90beead918aa029b</title>
<g id="a_node9"><a xlink:href="dir_41b6e1feb1f6262d90beead918aa029b.html" target="_top" xlink:title="PHSartre">
<polygon fill="#ffffff" stroke="#000000" points="236,-132 176,-132 176,-96 236,-96 236,-132"/>
<text text-anchor="middle" x="206" y="-111" font-family="FreeSans" font-size="10.00" fill="#000000">PHSartre</text>
</a>
</g>
</g>
<!-- dir_41b6e1feb1f6262d90beead918aa029b&#45;&gt;dir_1d2c19c7d3e3deba45cc6ef4cc0c9805 -->
<g id="edge3" class="edge">
<title>dir_41b6e1feb1f6262d90beead918aa029b&#45;&gt;dir_1d2c19c7d3e3deba45cc6ef4cc0c9805</title>
<path fill="none" stroke="#000000" d="M226.6921,-95.8314C236.6948,-87.0485 248.855,-76.3712 259.6999,-66.8489"/>
<polygon fill="#000000" stroke="#000000" points="262.1094,-69.3909 267.3146,-60.1628 257.4908,-64.1308 262.1094,-69.3909"/>
<g id="a_edge3&#45;headlabel"><a xlink:href="dir_000479_000476.html" target="_top" xlink:title="2">
<text text-anchor="middle" x="261.2817" y="-70.8962" font-family="FreeSans" font-size="10.00" fill="#000000">2</text>
</a>
</g>
</g>
<!-- dir_41b6e1feb1f6262d90beead918aa029b&#45;&gt;dir_5d75cb921eccf16b65a5eb6e6584c79f -->
<g id="edge4" class="edge">
<title>dir_41b6e1feb1f6262d90beead918aa029b&#45;&gt;dir_5d75cb921eccf16b65a5eb6e6584c79f</title>
<path fill="none" stroke="#000000" d="M236.262,-98.7317C239.1656,-97.6646 242.1068,-96.726 245,-96 506.6938,-30.3281 589.3062,-125.6719 851,-60 851.7323,-59.8162 852.4677,-59.6188 853.2048,-59.4092"/>
<polygon fill="#000000" stroke="#000000" points="854.4606,-62.6784 862.7692,-56.1044 852.1745,-56.0622 854.4606,-62.6784"/>
<g id="a_edge4&#45;headlabel"><a xlink:href="dir_000479_000482.html" target="_top" xlink:title="3">
<text text-anchor="middle" x="851.9903" y="-63.5358" font-family="FreeSans" font-size="10.00" fill="#000000">3</text>
</a>
</g>
</g>
<!-- dir_1250a6039d4c1aba52496129aea625a1 -->
<g id="node10" class="node">
<title>dir_1250a6039d4c1aba52496129aea625a1</title>
<g id="a_node10"><a xlink:href="dir_1250a6039d4c1aba52496129aea625a1.html" target="_top" xlink:title="sHEPGen">
<polygon fill="#ffffff" stroke="#000000" points="158,-132 96,-132 96,-96 158,-96 158,-132"/>
<text text-anchor="middle" x="127" y="-111" font-family="FreeSans" font-size="10.00" fill="#000000">sHEPGen</text>
</a>
</g>
</g>
<!-- dir_1250a6039d4c1aba52496129aea625a1&#45;&gt;dir_1d2c19c7d3e3deba45cc6ef4cc0c9805 -->
<g id="edge9" class="edge">
<title>dir_1250a6039d4c1aba52496129aea625a1&#45;&gt;dir_1d2c19c7d3e3deba45cc6ef4cc0c9805</title>
<path fill="none" stroke="#000000" d="M158.0046,-100.0365C161.0436,-98.6713 164.0813,-97.308 167,-96 193.6608,-84.0523 223.6487,-70.6688 247.101,-60.2147"/>
<polygon fill="#000000" stroke="#000000" points="248.6875,-63.3396 256.3966,-56.0719 245.8379,-56.9458 248.6875,-63.3396"/>
<g id="a_edge9&#45;headlabel"><a xlink:href="dir_000480_000476.html" target="_top" xlink:title="2">
<text text-anchor="middle" x="246.5599" y="-64.3962" font-family="FreeSans" font-size="10.00" fill="#000000">2</text>
</a>
</g>
</g>
<!-- dir_1250a6039d4c1aba52496129aea625a1&#45;&gt;dir_5d75cb921eccf16b65a5eb6e6584c79f -->
<g id="edge10" class="edge">
<title>dir_1250a6039d4c1aba52496129aea625a1&#45;&gt;dir_5d75cb921eccf16b65a5eb6e6584c79f</title>
<path fill="none" stroke="#000000" d="M158.0528,-98.713C161.0277,-97.6499 164.0396,-96.7173 167,-96 462.8598,-24.3132 555.486,-133.0993 851,-60 851.733,-59.8187 852.4689,-59.6236 853.2066,-59.416"/>
<polygon fill="#000000" stroke="#000000" points="854.4549,-62.688 862.7754,-56.129 852.1807,-56.0677 854.4549,-62.688"/>
<g id="a_edge10&#45;headlabel"><a xlink:href="dir_000480_000482.html" target="_top" xlink:title="6">
<text text-anchor="middle" x="851.9777" y="-63.541" font-family="FreeSans" font-size="10.00" fill="#000000">6</text>
</a>
</g>
</g>
<!-- dir_bfe15cc6d9a9c189261685156236abe7 -->
<g id="node11" class="node">
<title>dir_bfe15cc6d9a9c189261685156236abe7</title>
<g id="a_node11"><a xlink:href="dir_bfe15cc6d9a9c189261685156236abe7.html" target="_top" xlink:title="sHijing">
<polygon fill="#ffffff" stroke="#000000" points="78,-132 24,-132 24,-96 78,-96 78,-132"/>
<text text-anchor="middle" x="51" y="-111" font-family="FreeSans" font-size="10.00" fill="#000000">sHijing</text>
</a>
</g>
</g>
<!-- dir_5d75cb921eccf16b65a5eb6e6584c79f&#45;&gt;dir_1d2c19c7d3e3deba45cc6ef4cc0c9805 -->
<g id="edge2" class="edge">
<title>dir_5d75cb921eccf16b65a5eb6e6584c79f&#45;&gt;dir_1d2c19c7d3e3deba45cc6ef4cc0c9805</title>
<path fill="none" stroke="#000000" d="M862.9909,-42C685.2692,-42 507.5475,-42 329.8258,-42"/>
<polygon fill="#000000" stroke="#000000" points="329.7461,-38.5001 319.7461,-42 329.7461,-45.5001 329.7461,-38.5001"/>
<g id="a_edge2&#45;headlabel"><a xlink:href="dir_000482_000476.html" target="_top" xlink:title="6">
<text text-anchor="middle" x="333.3407" y="-32.6607" font-family="FreeSans" font-size="10.00" fill="#000000">6</text>
</a>
</g>
</g>
</g>
</svg>
