<?xml version="1.0" encoding="UTF-8" standalone="no"?>
<!DOCTYPE svg PUBLIC "-//W3C//DTD SVG 1.1//EN"
 "http://www.w3.org/Graphics/SVG/1.1/DTD/svg11.dtd">
<!-- Generated by graphviz version 2.40.1 (20161225.0304)
 -->
<!-- Title: fun4all_coresoftware/blob/master/offline/packages/PHTpcTracker/externals/kdfinder.hpp Pages: 1 -->
<svg width="545pt" height="251pt"
 viewBox="0.00 0.00 545.00 251.00" xmlns="http://www.w3.org/2000/svg" xmlns:xlink="http://www.w3.org/1999/xlink">
<g id="graph0" class="graph" transform="scale(1 1) rotate(0) translate(4 247)">
<title>fun4all_coresoftware/blob/master/offline/packages/PHTpcTracker/externals/kdfinder.hpp</title>
<!-- Node1 -->
<g id="node1" class="node">
<title>Node1</title>
<polygon fill="#bfbfbf" stroke="#000000" points="198,-186.5 198,-242.5 339,-242.5 339,-186.5 198,-186.5"/>
<text text-anchor="start" x="206" y="-229.5" font-family="FreeSans" font-size="10.00" fill="#000000">fun4all_coresoftware</text>
<text text-anchor="start" x="206" y="-217.5" font-family="FreeSans" font-size="10.00" fill="#000000">/blob/master/offline</text>
<text text-anchor="start" x="206" y="-205.5" font-family="FreeSans" font-size="10.00" fill="#000000">/packages/PHTpcTracker</text>
<text text-anchor="middle" x="268.5" y="-193.5" font-family="FreeSans" font-size="10.00" fill="#000000">/externals/kdfinder.hpp</text>
</g>
<!-- Node2 -->
<g id="node2" class="node">
<title>Node2</title>
<g id="a_node2"><a xlink:href="../../d0/d60/PHTpcEventExporter_8cc.html" target="_top" xlink:title="fun4all_coresoftware\l/blob/master/offline\l/packages/PHTpcTracker\l/PHTpcEventExporter.cc">
<polygon fill="none" stroke="#000000" points="0,-93.5 0,-149.5 141,-149.5 141,-93.5 0,-93.5"/>
<text text-anchor="start" x="8" y="-136.5" font-family="FreeSans" font-size="10.00" fill="#000000">fun4all_coresoftware</text>
<text text-anchor="start" x="8" y="-124.5" font-family="FreeSans" font-size="10.00" fill="#000000">/blob/master/offline</text>
<text text-anchor="start" x="8" y="-112.5" font-family="FreeSans" font-size="10.00" fill="#000000">/packages/PHTpcTracker</text>
<text text-anchor="middle" x="70.5" y="-100.5" font-family="FreeSans" font-size="10.00" fill="#000000">/PHTpcEventExporter.cc</text>
</a>
</g>
</g>
<!-- Node1&#45;&gt;Node2 -->
<g id="edge1" class="edge">
<title>Node1&#45;&gt;Node2</title>
<path fill="none" stroke="#191970" d="M199.6479,-182.1604C177.0938,-171.5668 152.2318,-159.8892 130.3945,-149.6323"/>
<polygon fill="#191970" stroke="#191970" points="198.2857,-185.3874 208.825,-186.4708 201.2617,-179.0514 198.2857,-185.3874"/>
</g>
<!-- Node3 -->
<g id="node3" class="node">
<title>Node3</title>
<g id="a_node3"><a xlink:href="../../d1/d04/PHTpcLookup_8h.html" target="_top" xlink:title="fun4all_coresoftware\l/blob/master/offline\l/packages/PHTpcTracker\l/PHTpcLookup.h">
<polygon fill="none" stroke="#000000" points="198,-93.5 198,-149.5 339,-149.5 339,-93.5 198,-93.5"/>
<text text-anchor="start" x="206" y="-136.5" font-family="FreeSans" font-size="10.00" fill="#000000">fun4all_coresoftware</text>
<text text-anchor="start" x="206" y="-124.5" font-family="FreeSans" font-size="10.00" fill="#000000">/blob/master/offline</text>
<text text-anchor="start" x="206" y="-112.5" font-family="FreeSans" font-size="10.00" fill="#000000">/packages/PHTpcTracker</text>
<text text-anchor="middle" x="268.5" y="-100.5" font-family="FreeSans" font-size="10.00" fill="#000000">/PHTpcLookup.h</text>
</a>
</g>
</g>
<!-- Node1&#45;&gt;Node3 -->
<g id="edge2" class="edge">
<title>Node1&#45;&gt;Node3</title>
<path fill="none" stroke="#191970" d="M268.5,-176.1582C268.5,-167.2499 268.5,-157.9293 268.5,-149.5597"/>
<polygon fill="#191970" stroke="#191970" points="265.0001,-176.3445 268.5,-186.3446 272.0001,-176.3446 265.0001,-176.3445"/>
</g>
<!-- Node5 -->
<g id="node5" class="node">
<title>Node5</title>
<g id="a_node5"><a xlink:href="../../d2/d22/PHTpcTracker_8cc.html" target="_top" xlink:title="fun4all_coresoftware\l/blob/master/offline\l/packages/PHTpcTracker\l/PHTpcTracker.cc">
<polygon fill="none" stroke="#000000" points="39,-.5 39,-56.5 180,-56.5 180,-.5 39,-.5"/>
<text text-anchor="start" x="47" y="-43.5" font-family="FreeSans" font-size="10.00" fill="#000000">fun4all_coresoftware</text>
<text text-anchor="start" x="47" y="-31.5" font-family="FreeSans" font-size="10.00" fill="#000000">/blob/master/offline</text>
<text text-anchor="start" x="47" y="-19.5" font-family="FreeSans" font-size="10.00" fill="#000000">/packages/PHTpcTracker</text>
<text text-anchor="middle" x="109.5" y="-7.5" font-family="FreeSans" font-size="10.00" fill="#000000">/PHTpcTracker.cc</text>
</a>
</g>
</g>
<!-- Node1&#45;&gt;Node5 -->
<g id="edge7" class="edge">
<title>Node1&#45;&gt;Node5</title>
<path fill="none" stroke="#191970" d="M221.4732,-180.0305C210.3961,-170.8777 199.0458,-160.5772 189.5,-150 182.224,-141.9379 148.6118,-89.8622 127.3372,-56.5555"/>
<polygon fill="#191970" stroke="#191970" points="219.4818,-182.9211 229.4611,-186.4798 223.8792,-177.4747 219.4818,-182.9211"/>
</g>
<!-- Node6 -->
<g id="node6" class="node">
<title>Node6</title>
<g id="a_node6"><a xlink:href="../../d1/d0b/PHTpcTrackFollower_8cc.html" target="_top" xlink:title="fun4all_coresoftware\l/blob/master/offline\l/packages/PHTpcTracker\l/PHTpcTrackFollower.cc">
<polygon fill="none" stroke="#000000" points="357,-.5 357,-56.5 498,-56.5 498,-.5 357,-.5"/>
<text text-anchor="start" x="365" y="-43.5" font-family="FreeSans" font-size="10.00" fill="#000000">fun4all_coresoftware</text>
<text text-anchor="start" x="365" y="-31.5" font-family="FreeSans" font-size="10.00" fill="#000000">/blob/master/offline</text>
<text text-anchor="start" x="365" y="-19.5" font-family="FreeSans" font-size="10.00" fill="#000000">/packages/PHTpcTracker</text>
<text text-anchor="middle" x="427.5" y="-7.5" font-family="FreeSans" font-size="10.00" fill="#000000">/PHTpcTrackFollower.cc</text>
</a>
</g>
</g>
<!-- Node1&#45;&gt;Node6 -->
<g id="edge8" class="edge">
<title>Node1&#45;&gt;Node6</title>
<path fill="none" stroke="#191970" d="M316.5236,-179.8664C327.6319,-170.779 338.9756,-160.5493 348.5,-150 355.7502,-141.9697 388.9198,-89.883 409.9068,-56.5658"/>
<polygon fill="#191970" stroke="#191970" points="314.1355,-177.2944 308.5059,-186.2699 318.5039,-182.764 314.1355,-177.2944"/>
</g>
<!-- Node7 -->
<g id="node7" class="node">
<title>Node7</title>
<g id="a_node7"><a xlink:href="../../df/dcd/PHTpcSeedFinder_8cc.html" target="_top" xlink:title="fun4all_coresoftware\l/blob/master/offline\l/packages/PHTpcTracker\l/PHTpcSeedFinder.cc">
<polygon fill="none" stroke="#000000" points="396,-93.5 396,-149.5 537,-149.5 537,-93.5 396,-93.5"/>
<text text-anchor="start" x="404" y="-136.5" font-family="FreeSans" font-size="10.00" fill="#000000">fun4all_coresoftware</text>
<text text-anchor="start" x="404" y="-124.5" font-family="FreeSans" font-size="10.00" fill="#000000">/blob/master/offline</text>
<text text-anchor="start" x="404" y="-112.5" font-family="FreeSans" font-size="10.00" fill="#000000">/packages/PHTpcTracker</text>
<text text-anchor="middle" x="466.5" y="-100.5" font-family="FreeSans" font-size="10.00" fill="#000000">/PHTpcSeedFinder.cc</text>
</a>
</g>
</g>
<!-- Node1&#45;&gt;Node7 -->
<g id="edge6" class="edge">
<title>Node1&#45;&gt;Node7</title>
<path fill="none" stroke="#191970" d="M337.3521,-182.1604C359.9062,-171.5668 384.7682,-159.8892 406.6055,-149.6323"/>
<polygon fill="#191970" stroke="#191970" points="335.7383,-179.0514 328.175,-186.4708 338.7143,-185.3874 335.7383,-179.0514"/>
</g>
<!-- Node4 -->
<g id="node4" class="node">
<title>Node4</title>
<g id="a_node4"><a xlink:href="../../d6/d95/PHTpcLookup_8cc.html" target="_top" xlink:title="fun4all_coresoftware\l/blob/master/offline\l/packages/PHTpcTracker\l/PHTpcLookup.cc">
<polygon fill="none" stroke="#000000" points="198,-.5 198,-56.5 339,-56.5 339,-.5 198,-.5"/>
<text text-anchor="start" x="206" y="-43.5" font-family="FreeSans" font-size="10.00" fill="#000000">fun4all_coresoftware</text>
<text text-anchor="start" x="206" y="-31.5" font-family="FreeSans" font-size="10.00" fill="#000000">/blob/master/offline</text>
<text text-anchor="start" x="206" y="-19.5" font-family="FreeSans" font-size="10.00" fill="#000000">/packages/PHTpcTracker</text>
<text text-anchor="middle" x="268.5" y="-7.5" font-family="FreeSans" font-size="10.00" fill="#000000">/PHTpcLookup.cc</text>
</a>
</g>
</g>
<!-- Node3&#45;&gt;Node4 -->
<g id="edge3" class="edge">
<title>Node3&#45;&gt;Node4</title>
<path fill="none" stroke="#191970" d="M268.5,-83.1582C268.5,-74.2499 268.5,-64.9293 268.5,-56.5597"/>
<polygon fill="#191970" stroke="#191970" points="265.0001,-83.3445 268.5,-93.3446 272.0001,-83.3446 265.0001,-83.3445"/>
</g>
<!-- Node3&#45;&gt;Node5 -->
<g id="edge4" class="edge">
<title>Node3&#45;&gt;Node5</title>
<path fill="none" stroke="#191970" d="M211.3037,-88.0456C193.6622,-77.727 174.4264,-66.4758 157.4731,-56.5597"/>
<polygon fill="#191970" stroke="#191970" points="209.9643,-91.3168 220.3633,-93.3446 213.4985,-85.2745 209.9643,-91.3168"/>
</g>
<!-- Node3&#45;&gt;Node6 -->
<g id="edge5" class="edge">
<title>Node3&#45;&gt;Node6</title>
<path fill="none" stroke="#191970" d="M325.6963,-88.0456C343.3378,-77.727 362.5736,-66.4758 379.5269,-56.5597"/>
<polygon fill="#191970" stroke="#191970" points="323.5015,-85.2745 316.6367,-93.3446 327.0357,-91.3168 323.5015,-85.2745"/>
</g>
</g>
</svg>
