<?xml version="1.0" encoding="UTF-8" standalone="no"?>
<!DOCTYPE svg PUBLIC "-//W3C//DTD SVG 1.1//EN"
 "http://www.w3.org/Graphics/SVG/1.1/DTD/svg11.dtd">
<!-- Generated by graphviz version 2.40.1 (20161225.0304)
 -->
<!-- Title: fun4all_coresoftware/blob/master/simulation/g4simulation/g4eval/SvtxEvaluator.cc Pages: 1 -->
<svg width="4344pt" height="533pt"
 viewBox="0.00 0.00 4343.63 533.00" xmlns="http://www.w3.org/2000/svg" xmlns:xlink="http://www.w3.org/1999/xlink">
<g id="graph0" class="graph" transform="scale(1 1) rotate(0) translate(4 529)">
<title>fun4all_coresoftware/blob/master/simulation/g4simulation/g4eval/SvtxEvaluator.cc</title>
<!-- Node1 -->
<g id="node1" class="node">
<title>Node1</title>
<polygon fill="#bfbfbf" stroke="#000000" points="2448.1261,-480.5 2448.1261,-524.5 2659.1261,-524.5 2659.1261,-480.5 2448.1261,-480.5"/>
<text text-anchor="start" x="2456.1261" y="-511.5" font-family="FreeSans" font-size="10.00" fill="#000000">fun4all_coresoftware</text>
<text text-anchor="start" x="2456.1261" y="-499.5" font-family="FreeSans" font-size="10.00" fill="#000000">/blob/master/simulation</text>
<text text-anchor="middle" x="2553.6261" y="-487.5" font-family="FreeSans" font-size="10.00" fill="#000000">/g4simulation/g4eval/SvtxEvaluator.cc</text>
</g>
<!-- Node2 -->
<g id="node2" class="node">
<title>Node2</title>
<g id="a_node2"><a xlink:href="../../d6/dff/SvtxEvaluator_8h.html" target="_top" xlink:title="Compares reconstructed tracks to truth particles.">
<polygon fill="none" stroke="#000000" points="3744.1261,-246.5 3744.1261,-266.5 3839.1261,-266.5 3839.1261,-246.5 3744.1261,-246.5"/>
<text text-anchor="middle" x="3791.6261" y="-253.5" font-family="FreeSans" font-size="10.00" fill="#000000">SvtxEvaluator.h</text>
</a>
</g>
</g>
<!-- Node1&#45;&gt;Node2 -->
<g id="edge1" class="edge">
<title>Node1&#45;&gt;Node2</title>
<path fill="none" stroke="#191970" d="M2659.278,-499.9965C2934.7412,-493.0844 3656.6144,-472.3537 3699.6261,-444 3758.7173,-405.0464 3781.183,-316.4904 3788.5217,-276.6181"/>
<polygon fill="#191970" stroke="#191970" points="3792.0101,-276.982 3790.241,-266.536 3785.1097,-275.8053 3792.0101,-276.982"/>
</g>
<!-- Node3 -->
<g id="node3" class="node">
<title>Node3</title>
<g id="a_node3"><a xlink:href="../../d5/dc2/SubsysReco_8h.html" target="_top" xlink:title="fun4all/SubsysReco.h">
<polygon fill="none" stroke="#ff0000" points="3833.6261,-177.5 3833.6261,-197.5 3957.6261,-197.5 3957.6261,-177.5 3833.6261,-177.5"/>
<text text-anchor="middle" x="3895.6261" y="-184.5" font-family="FreeSans" font-size="10.00" fill="#000000">fun4all/SubsysReco.h</text>
</a>
</g>
</g>
<!-- Node1&#45;&gt;Node3 -->
<g id="edge147" class="edge">
<title>Node1&#45;&gt;Node3</title>
<path fill="none" stroke="#191970" d="M2659.1503,-501.9436C2973.2245,-499.7743 3882.9586,-489.5676 3926.6261,-444 3933.0837,-437.2613 3927.2364,-432.3134 3926.6261,-423 3921.3756,-342.8832 3906.1809,-248.4145 3899.2046,-207.7639"/>
<polygon fill="#191970" stroke="#191970" points="3902.6305,-207.0352 3897.4699,-197.7821 3895.7338,-208.2337 3902.6305,-207.0352"/>
</g>
<!-- Node6 -->
<g id="node6" class="node">
<title>Node6</title>
<polygon fill="none" stroke="#bfbfbf" points="3496.1261,-114.5 3496.1261,-134.5 3545.1261,-134.5 3545.1261,-114.5 3496.1261,-114.5"/>
<text text-anchor="middle" x="3520.6261" y="-121.5" font-family="FreeSans" font-size="10.00" fill="#000000">vector</text>
</g>
<!-- Node1&#45;&gt;Node6 -->
<g id="edge164" class="edge">
<title>Node1&#45;&gt;Node6</title>
<path fill="none" stroke="#191970" d="M2659.1455,-500.1855C2817.6309,-495.507 3108.8675,-481.9042 3205.6261,-444 3286.9088,-412.1582 3476.1662,-281.355 3516.6261,-204 3526.1495,-185.7922 3525.9596,-161.9164 3524.1271,-145.0989"/>
<polygon fill="#191970" stroke="#191970" points="3527.5315,-144.1665 3522.6951,-134.74 3520.5975,-145.1251 3527.5315,-144.1665"/>
</g>
<!-- Node7 -->
<g id="node7" class="node">
<title>Node7</title>
<g id="a_node7"><a xlink:href="../../d3/d59/SvtxEvalStack_8h.html" target="_top" xlink:title="SvtxEvalStack.h">
<polygon fill="none" stroke="#000000" points="595.1261,-423.5 595.1261,-443.5 692.1261,-443.5 692.1261,-423.5 595.1261,-423.5"/>
<text text-anchor="middle" x="643.6261" y="-430.5" font-family="FreeSans" font-size="10.00" fill="#000000">SvtxEvalStack.h</text>
</a>
</g>
</g>
<!-- Node1&#45;&gt;Node7 -->
<g id="edge7" class="edge">
<title>Node1&#45;&gt;Node7</title>
<path fill="none" stroke="#191970" d="M2447.9157,-500.4924C2110.5809,-493.8696 1062.1311,-471.5575 723.6261,-444 716.7782,-443.4425 709.6178,-442.7132 702.516,-441.8984"/>
<polygon fill="#191970" stroke="#191970" points="702.5433,-438.3765 692.1961,-440.6536 701.7049,-445.3261 702.5433,-438.3765"/>
</g>
<!-- Node8 -->
<g id="node8" class="node">
<title>Node8</title>
<g id="a_node8"><a xlink:href="../../d5/d9c/SvtxVertexEval_8h.html" target="_top" xlink:title="SvtxVertexEval.h">
<polygon fill="none" stroke="#000000" points="587.6261,-366.5 587.6261,-386.5 689.6261,-386.5 689.6261,-366.5 587.6261,-366.5"/>
<text text-anchor="middle" x="638.6261" y="-373.5" font-family="FreeSans" font-size="10.00" fill="#000000">SvtxVertexEval.h</text>
</a>
</g>
</g>
<!-- Node1&#45;&gt;Node8 -->
<g id="edge38" class="edge">
<title>Node1&#45;&gt;Node8</title>
<path fill="none" stroke="#191970" d="M2448.1152,-501.848C2088.8875,-499.2422 926.697,-487.5048 764.6261,-444 725.5212,-433.5031 685.0819,-408.9684 660.8931,-392.5531"/>
<polygon fill="#191970" stroke="#191970" points="662.6677,-389.5246 652.4548,-386.7055 658.6806,-395.2781 662.6677,-389.5246"/>
</g>
<!-- Node9 -->
<g id="node9" class="node">
<title>Node9</title>
<g id="a_node9"><a xlink:href="../../df/d8a/SvtxTrackEval_8h.html" target="_top" xlink:title="SvtxTrackEval.h">
<polygon fill="none" stroke="#000000" points="500.6261,-309.5 500.6261,-329.5 596.6261,-329.5 596.6261,-309.5 500.6261,-309.5"/>
<text text-anchor="middle" x="548.6261" y="-316.5" font-family="FreeSans" font-size="10.00" fill="#000000">SvtxTrackEval.h</text>
</a>
</g>
</g>
<!-- Node1&#45;&gt;Node9 -->
<g id="edge36" class="edge">
<title>Node1&#45;&gt;Node9</title>
<path fill="none" stroke="#191970" d="M2447.9707,-501.0254C2044.661,-495.1875 622.8123,-472.6121 585.6261,-444 553.5991,-419.3576 548.2804,-368.2042 547.9712,-339.7337"/>
<polygon fill="#191970" stroke="#191970" points="551.4712,-339.7415 548.0622,-329.7101 544.4715,-339.6779 551.4712,-339.7415"/>
</g>
<!-- Node10 -->
<g id="node10" class="node">
<title>Node10</title>
<g id="a_node10"><a xlink:href="../../d7/dcd/SvtxClusterEval_8h.html" target="_top" xlink:title="SvtxClusterEval.h">
<polygon fill="none" stroke="#000000" points="417.1261,-246.5 417.1261,-266.5 522.1261,-266.5 522.1261,-246.5 417.1261,-246.5"/>
<text text-anchor="middle" x="469.6261" y="-253.5" font-family="FreeSans" font-size="10.00" fill="#000000">SvtxClusterEval.h</text>
</a>
</g>
</g>
<!-- Node1&#45;&gt;Node10 -->
<g id="edge34" class="edge">
<title>Node1&#45;&gt;Node10</title>
<path fill="none" stroke="#191970" d="M2447.8621,-502.1156C2048.006,-500.3113 647.0324,-490.6718 564.6261,-444 502.5144,-408.8223 479.8562,-317.9317 472.6224,-277.007"/>
<polygon fill="#191970" stroke="#191970" points="476.0345,-276.1835 470.9712,-266.8769 469.1257,-277.3097 476.0345,-276.1835"/>
</g>
<!-- Node11 -->
<g id="node11" class="node">
<title>Node11</title>
<g id="a_node11"><a xlink:href="../../d7/d98/SvtxHitEval_8h.html" target="_top" xlink:title="SvtxHitEval.h">
<polygon fill="none" stroke="#000000" points="286.6261,-177.5 286.6261,-197.5 370.6261,-197.5 370.6261,-177.5 286.6261,-177.5"/>
<text text-anchor="middle" x="328.6261" y="-184.5" font-family="FreeSans" font-size="10.00" fill="#000000">SvtxHitEval.h</text>
</a>
</g>
</g>
<!-- Node1&#45;&gt;Node11 -->
<g id="edge35" class="edge">
<title>Node1&#45;&gt;Node11</title>
<path fill="none" stroke="#191970" d="M2448.0983,-501.4636C2017.504,-497.0108 414.3644,-478.1626 374.6261,-444 304.7644,-383.9406 316.9402,-257.1289 324.8439,-207.7654"/>
<polygon fill="#191970" stroke="#191970" points="328.328,-208.1562 326.5723,-197.7079 321.4291,-206.9706 328.328,-208.1562"/>
</g>
<!-- Node12 -->
<g id="node12" class="node">
<title>Node12</title>
<g id="a_node12"><a xlink:href="../../d7/d20/SvtxTruthEval_8h.html" target="_top" xlink:title="SvtxTruthEval.h">
<polygon fill="none" stroke="#000000" points="53.1261,-114.5 53.1261,-134.5 148.1261,-134.5 148.1261,-114.5 53.1261,-114.5"/>
<text text-anchor="middle" x="100.6261" y="-121.5" font-family="FreeSans" font-size="10.00" fill="#000000">SvtxTruthEval.h</text>
</a>
</g>
</g>
<!-- Node1&#45;&gt;Node12 -->
<g id="edge37" class="edge">
<title>Node1&#45;&gt;Node12</title>
<path fill="none" stroke="#191970" d="M2448.1036,-501.8352C2022.8451,-498.8849 447.0907,-485.2469 227.6261,-444 140.7866,-427.6791 40.6261,-464.8598 40.6261,-376.5 40.6261,-376.5 40.6261,-376.5 40.6261,-256.5 40.6261,-212.5574 68.5241,-167.1667 86.2736,-142.7347"/>
<polygon fill="#191970" stroke="#191970" points="89.0824,-144.823 92.2833,-134.7232 83.4828,-140.6225 89.0824,-144.823"/>
</g>
<!-- Node14 -->
<g id="node14" class="node">
<title>Node14</title>
<polygon fill="none" stroke="#bfbfbf" points="1107.1261,-57.5 1107.1261,-77.5 1146.1261,-77.5 1146.1261,-57.5 1107.1261,-57.5"/>
<text text-anchor="middle" x="1126.6261" y="-64.5" font-family="FreeSans" font-size="10.00" fill="#000000">map</text>
</g>
<!-- Node1&#45;&gt;Node14 -->
<g id="edge162" class="edge">
<title>Node1&#45;&gt;Node14</title>
<path fill="none" stroke="#191970" d="M2448.019,-501.9231C2059.3073,-499.4591 721.0365,-487.846 534.6261,-444 465.0369,-427.6318 388.6261,-447.9882 388.6261,-376.5 388.6261,-376.5 388.6261,-376.5 388.6261,-319.5 388.6261,-284.4633 441.699,-116.3507 444.6261,-114 470.4194,-93.2855 968.7826,-73.3751 1096.8364,-68.5862"/>
<polygon fill="#191970" stroke="#191970" points="1097.2052,-72.075 1107.0685,-68.2063 1096.9455,-65.0798 1097.2052,-72.075"/>
</g>
<!-- Node15 -->
<g id="node15" class="node">
<title>Node15</title>
<g id="a_node15"><a xlink:href="../../d8/d00/TrkrDefs_8h.html" target="_top" xlink:title="Namespace with Trkr key types and utility functions.">
<polygon fill="none" stroke="#000000" points="898.6261,-114.5 898.6261,-134.5 1018.6261,-134.5 1018.6261,-114.5 898.6261,-114.5"/>
<text text-anchor="middle" x="958.6261" y="-121.5" font-family="FreeSans" font-size="10.00" fill="#000000">trackbase/TrkrDefs.h</text>
</a>
</g>
</g>
<!-- Node1&#45;&gt;Node15 -->
<g id="edge49" class="edge">
<title>Node1&#45;&gt;Node15</title>
<path fill="none" stroke="#191970" d="M2447.914,-501.6779C2013.728,-498.0544 388.6031,-481.9724 351.6261,-444 330.1027,-421.8972 250.1785,-427.2615 407.6261,-240 451.2449,-188.1216 478.688,-190.4171 543.6261,-171 606.4155,-152.2254 787.4962,-136.7772 888.4744,-129.3207"/>
<polygon fill="#191970" stroke="#191970" points="888.8688,-132.8013 898.5868,-128.581 888.358,-125.82 888.8688,-132.8013"/>
</g>
<!-- Node17 -->
<g id="node17" class="node">
<title>Node17</title>
<polygon fill="none" stroke="#bfbfbf" points="2532.6261,-57.5 2532.6261,-77.5 2592.6261,-77.5 2592.6261,-57.5 2532.6261,-57.5"/>
<text text-anchor="middle" x="2562.6261" y="-64.5" font-family="FreeSans" font-size="10.00" fill="#000000">iostream</text>
</g>
<!-- Node1&#45;&gt;Node17 -->
<g id="edge160" class="edge">
<title>Node1&#45;&gt;Node17</title>
<path fill="none" stroke="#191970" d="M2659.3693,-500.1548C2979.4691,-492.7935 3919.8541,-469.1363 3980.6261,-444 4041.6274,-418.7688 4061.6261,-385.5135 4061.6261,-319.5 4061.6261,-319.5 4061.6261,-319.5 4061.6261,-187.5 4061.6261,-74.7391 3746.6242,-110.7403 2845.6261,-78 2759.079,-74.8551 2657.6479,-71.0668 2602.791,-69.0095"/>
<polygon fill="#191970" stroke="#191970" points="2602.9057,-65.5115 2592.7814,-68.634 2602.6431,-72.5065 2602.9057,-65.5115"/>
</g>
<!-- Node18 -->
<g id="node18" class="node">
<title>Node18</title>
<polygon fill="none" stroke="#bfbfbf" points="1113.1261,-114.5 1113.1261,-134.5 1158.1261,-134.5 1158.1261,-114.5 1113.1261,-114.5"/>
<text text-anchor="middle" x="1135.6261" y="-121.5" font-family="FreeSans" font-size="10.00" fill="#000000">utility</text>
</g>
<!-- Node1&#45;&gt;Node18 -->
<g id="edge163" class="edge">
<title>Node1&#45;&gt;Node18</title>
<path fill="none" stroke="#191970" d="M2447.9979,-501.1064C2153.2488,-496.7822 1325.817,-481.5581 1056.6261,-444 930.7003,-426.4306 778.6261,-503.6455 778.6261,-376.5 778.6261,-376.5 778.6261,-376.5 778.6261,-256.5 778.6261,-217.573 768.9961,-197.3748 797.6261,-171 808.8294,-160.6791 1020.3195,-136.9153 1102.9434,-127.9807"/>
<polygon fill="#191970" stroke="#191970" points="1103.47,-131.4444 1113.0378,-126.8937 1102.7205,-124.4846 1103.47,-131.4444"/>
</g>
<!-- Node19 -->
<g id="node19" class="node">
<title>Node19</title>
<g id="a_node19"><a xlink:href="../../d1/d4a/TrkrCluster_8h.html" target="_top" xlink:title="Base class for cluster object.">
<polygon fill="none" stroke="#000000" points="2739.6261,-177.5 2739.6261,-197.5 2871.6261,-197.5 2871.6261,-177.5 2739.6261,-177.5"/>
<text text-anchor="middle" x="2805.6261" y="-184.5" font-family="FreeSans" font-size="10.00" fill="#000000">trackbase/TrkrCluster.h</text>
</a>
</g>
</g>
<!-- Node1&#45;&gt;Node19 -->
<g id="edge39" class="edge">
<title>Node1&#45;&gt;Node19</title>
<path fill="none" stroke="#191970" d="M2633.8057,-480.4438C2682.22,-461.7057 2734.6261,-429.2415 2734.6261,-376.5 2734.6261,-376.5 2734.6261,-376.5 2734.6261,-319.5 2734.6261,-274.1099 2767.59,-229.2907 2788.5958,-205.3382"/>
<polygon fill="#191970" stroke="#191970" points="2791.3328,-207.53 2795.4535,-197.7693 2786.1454,-202.83 2791.3328,-207.53"/>
</g>
<!-- Node21 -->
<g id="node21" class="node">
<title>Node21</title>
<polygon fill="none" stroke="#bfbfbf" points="3063.6261,-114.5 3063.6261,-134.5 3111.6261,-134.5 3111.6261,-114.5 3063.6261,-114.5"/>
<text text-anchor="middle" x="3087.6261" y="-121.5" font-family="FreeSans" font-size="10.00" fill="#000000">cmath</text>
</g>
<!-- Node1&#45;&gt;Node21 -->
<g id="edge159" class="edge">
<title>Node1&#45;&gt;Node21</title>
<path fill="none" stroke="#191970" d="M2659.2998,-496.0904C2786.367,-487.3909 2991.5484,-469.8989 3063.6261,-444 3115.4843,-425.3663 3167.6261,-431.6044 3167.6261,-376.5 3167.6261,-376.5 3167.6261,-376.5 3167.6261,-319.5 3167.6261,-277.5212 3187.4014,-268.0579 3218.6261,-240 3245.2377,-216.0873 3271.8169,-234.4338 3290.6261,-204 3298.3368,-191.5238 3299.7661,-182.4704 3290.6261,-171 3280.0952,-157.7842 3176.6841,-139.0721 3121.6658,-129.9394"/>
<polygon fill="#191970" stroke="#191970" points="3122.1041,-126.4646 3111.669,-128.297 3120.9693,-133.372 3122.1041,-126.4646"/>
</g>
<!-- Node23 -->
<g id="node23" class="node">
<title>Node23</title>
<g id="a_node23"><a xlink:href="../../d9/d1a/TrkrHit_8h.html" target="_top" xlink:title="Base class for hit object.">
<polygon fill="none" stroke="#000000" points="2610.1261,-177.5 2610.1261,-197.5 2721.1261,-197.5 2721.1261,-177.5 2610.1261,-177.5"/>
<text text-anchor="middle" x="2665.6261" y="-184.5" font-family="FreeSans" font-size="10.00" fill="#000000">trackbase/TrkrHit.h</text>
</a>
</g>
</g>
<!-- Node1&#45;&gt;Node23 -->
<g id="edge46" class="edge">
<title>Node1&#45;&gt;Node23</title>
<path fill="none" stroke="#191970" d="M2583.2418,-480.4882C2610.1364,-457.7414 2645.6261,-419.566 2645.6261,-376.5 2645.6261,-376.5 2645.6261,-376.5 2645.6261,-319.5 2645.6261,-279.523 2654.7045,-233.4964 2660.6284,-207.7182"/>
<polygon fill="#191970" stroke="#191970" points="2664.1047,-208.2278 2663.0114,-197.6896 2657.2943,-206.6095 2664.1047,-208.2278"/>
</g>
<!-- Node24 -->
<g id="node24" class="node">
<title>Node24</title>
<g id="a_node24"><a xlink:href="../../d4/de3/TpcDefs_8h.html" target="_top" xlink:title="Utility functions for TPC.">
<polygon fill="none" stroke="#000000" points="182.6261,-177.5 182.6261,-197.5 268.6261,-197.5 268.6261,-177.5 182.6261,-177.5"/>
<text text-anchor="middle" x="225.6261" y="-184.5" font-family="FreeSans" font-size="10.00" fill="#000000">tpc/TpcDefs.h</text>
</a>
</g>
</g>
<!-- Node1&#45;&gt;Node24 -->
<g id="edge50" class="edge">
<title>Node1&#45;&gt;Node24</title>
<path fill="none" stroke="#191970" d="M2447.904,-501.4347C2001.8706,-496.7388 294.676,-476.6595 249.6261,-444 223.8477,-425.3117 225.6261,-408.3399 225.6261,-376.5 225.6261,-376.5 225.6261,-376.5 225.6261,-319.5 225.6261,-279.9741 225.6261,-233.7907 225.6261,-207.8623"/>
<polygon fill="#191970" stroke="#191970" points="229.1262,-207.7693 225.6261,-197.7693 222.1262,-207.7694 229.1262,-207.7693"/>
</g>
<!-- Node25 -->
<g id="node25" class="node">
<title>Node25</title>
<g id="a_node25"><a xlink:href="../../d2/d44/TrkrClusterContainer_8h.html" target="_top" xlink:title="Cluster container object.">
<polygon fill="none" stroke="#000000" points="1304.1261,-177.5 1304.1261,-197.5 1485.1261,-197.5 1485.1261,-177.5 1304.1261,-177.5"/>
<text text-anchor="middle" x="1394.6261" y="-184.5" font-family="FreeSans" font-size="10.00" fill="#000000">trackbase/TrkrClusterContainer.h</text>
</a>
</g>
</g>
<!-- Node1&#45;&gt;Node25 -->
<g id="edge53" class="edge">
<title>Node1&#45;&gt;Node25</title>
<path fill="none" stroke="#191970" d="M2447.7225,-501.2183C2174.0628,-496.5075 1464.6261,-474.8141 1464.6261,-376.5 1464.6261,-376.5 1464.6261,-376.5 1464.6261,-319.5 1464.6261,-274.2526 1432.1264,-229.3816 1411.4165,-205.3816"/>
<polygon fill="#191970" stroke="#191970" points="1413.9221,-202.9325 1404.6554,-197.7965 1408.6966,-207.5903 1413.9221,-202.9325"/>
</g>
<!-- Node26 -->
<g id="node26" class="node">
<title>Node26</title>
<g id="a_node26"><a xlink:href="../../d8/d2e/TrkrHitSet_8h.html" target="_top" xlink:title="Container for storing TrkrHit&#39;s.">
<polygon fill="none" stroke="#000000" points="806.6261,-177.5 806.6261,-197.5 934.6261,-197.5 934.6261,-177.5 806.6261,-177.5"/>
<text text-anchor="middle" x="870.6261" y="-184.5" font-family="FreeSans" font-size="10.00" fill="#000000">trackbase/TrkrHitSet.h</text>
</a>
</g>
</g>
<!-- Node1&#45;&gt;Node26 -->
<g id="edge59" class="edge">
<title>Node1&#45;&gt;Node26</title>
<path fill="none" stroke="#191970" d="M2447.6487,-501.5936C2178.4792,-498.678 1473.5497,-487.0425 1243.6261,-444 1151.4131,-426.7374 1043.6261,-470.3149 1043.6261,-376.5 1043.6261,-376.5 1043.6261,-376.5 1043.6261,-319.5 1043.6261,-255.615 968.1409,-218.5333 916.8945,-200.7198"/>
<polygon fill="#191970" stroke="#191970" points="917.9088,-197.3685 907.3149,-197.5137 915.6871,-204.0066 917.9088,-197.3685"/>
</g>
<!-- Node27 -->
<g id="node27" class="node">
<title>Node27</title>
<g id="a_node27"><a xlink:href="../../d4/dbe/TrkrHitSetContainer_8h.html" target="_top" xlink:title="trackbase/TrkrHitSetContainer.h">
<polygon fill="none" stroke="#000000" points="952.6261,-177.5 952.6261,-197.5 1128.6261,-197.5 1128.6261,-177.5 952.6261,-177.5"/>
<text text-anchor="middle" x="1040.6261" y="-184.5" font-family="FreeSans" font-size="10.00" fill="#000000">trackbase/TrkrHitSetContainer.h</text>
</a>
</g>
</g>
<!-- Node1&#45;&gt;Node27 -->
<g id="edge65" class="edge">
<title>Node1&#45;&gt;Node27</title>
<path fill="none" stroke="#191970" d="M2447.9967,-500.2066C2171.7179,-493.8142 1441.7591,-474.2555 1336.6261,-444 1277.8208,-427.0769 1216.6261,-437.6919 1216.6261,-376.5 1216.6261,-376.5 1216.6261,-376.5 1216.6261,-319.5 1216.6261,-255.2714 1140.6828,-218.4668 1088.568,-200.7718"/>
<polygon fill="#191970" stroke="#191970" points="1089.4079,-197.3642 1078.8154,-197.5864 1087.2346,-204.0183 1089.4079,-197.3642"/>
</g>
<!-- Node28 -->
<g id="node28" class="node">
<title>Node28</title>
<g id="a_node28"><a xlink:href="../../d7/d04/TrkrClusterHitAssoc_8h.html" target="_top" xlink:title="Class for associating clusters to the hits that went into them.">
<polygon fill="none" stroke="#000000" points="1147.1261,-171.5 1147.1261,-203.5 1286.1261,-203.5 1286.1261,-171.5 1147.1261,-171.5"/>
<text text-anchor="start" x="1155.1261" y="-190.5" font-family="FreeSans" font-size="10.00" fill="#000000">trackbase/TrkrClusterHit</text>
<text text-anchor="middle" x="1216.6261" y="-178.5" font-family="FreeSans" font-size="10.00" fill="#000000">Assoc.h</text>
</a>
</g>
</g>
<!-- Node1&#45;&gt;Node28 -->
<g id="edge71" class="edge">
<title>Node1&#45;&gt;Node28</title>
<path fill="none" stroke="#191970" d="M2447.9339,-499.7471C2224.0091,-493.3721 1708.2232,-475.6701 1535.6261,-444 1437.5335,-426.0008 1321.6261,-476.2303 1321.6261,-376.5 1321.6261,-376.5 1321.6261,-376.5 1321.6261,-319.5 1321.6261,-272.793 1280.8644,-233.0454 1250.1351,-209.717"/>
<polygon fill="#191970" stroke="#191970" points="1251.9084,-206.6769 1241.7762,-203.5804 1247.7659,-212.3196 1251.9084,-206.6769"/>
</g>
<!-- Node29 -->
<g id="node29" class="node">
<title>Node29</title>
<g id="a_node29"><a xlink:href="../../d0/d87/SvtxTrack_8h.html" target="_top" xlink:title="trackbase_historic\l/SvtxTrack.h">
<polygon fill="none" stroke="#ff0000" points="1879.6261,-171.5 1879.6261,-203.5 1987.6261,-203.5 1987.6261,-171.5 1879.6261,-171.5"/>
<text text-anchor="start" x="1887.6261" y="-190.5" font-family="FreeSans" font-size="10.00" fill="#000000">trackbase_historic</text>
<text text-anchor="middle" x="1933.6261" y="-178.5" font-family="FreeSans" font-size="10.00" fill="#000000">/SvtxTrack.h</text>
</a>
</g>
</g>
<!-- Node1&#45;&gt;Node29 -->
<g id="edge77" class="edge">
<title>Node1&#45;&gt;Node29</title>
<path fill="none" stroke="#191970" d="M2448.1003,-491.7519C2271.1159,-472.2852 1933.6261,-428.3647 1933.6261,-376.5 1933.6261,-376.5 1933.6261,-376.5 1933.6261,-319.5 1933.6261,-282.8423 1933.6261,-240.4582 1933.6261,-213.8164"/>
<polygon fill="#191970" stroke="#191970" points="1937.1262,-213.757 1933.6261,-203.7571 1930.1262,-213.7571 1937.1262,-213.757"/>
</g>
<!-- Node30 -->
<g id="node30" class="node">
<title>Node30</title>
<g id="a_node30"><a xlink:href="../../d7/d9f/SvtxTrackMap_8h.html" target="_top" xlink:title="trackbase_historic\l/SvtxTrackMap.h">
<polygon fill="none" stroke="#000000" points="1961.6261,-240.5 1961.6261,-272.5 2069.6261,-272.5 2069.6261,-240.5 1961.6261,-240.5"/>
<text text-anchor="start" x="1969.6261" y="-259.5" font-family="FreeSans" font-size="10.00" fill="#000000">trackbase_historic</text>
<text text-anchor="middle" x="2015.6261" y="-247.5" font-family="FreeSans" font-size="10.00" fill="#000000">/SvtxTrackMap.h</text>
</a>
</g>
</g>
<!-- Node1&#45;&gt;Node30 -->
<g id="edge84" class="edge">
<title>Node1&#45;&gt;Node30</title>
<path fill="none" stroke="#191970" d="M2448.008,-495.238C2349.989,-486.9599 2212.4004,-470.9585 2165.6261,-444 2098.2505,-405.1679 2049.4183,-323.3682 2027.8805,-281.8407"/>
<polygon fill="#191970" stroke="#191970" points="2030.8756,-280.0083 2023.2313,-272.6724 2024.6324,-283.1742 2030.8756,-280.0083"/>
</g>
<!-- Node31 -->
<g id="node31" class="node">
<title>Node31</title>
<g id="a_node31"><a xlink:href="../../dc/dc1/SvtxVertex_8h.html" target="_top" xlink:title="trackbase_historic\l/SvtxVertex.h">
<polygon fill="none" stroke="#000000" points="3173.6261,-171.5 3173.6261,-203.5 3281.6261,-203.5 3281.6261,-171.5 3173.6261,-171.5"/>
<text text-anchor="start" x="3181.6261" y="-190.5" font-family="FreeSans" font-size="10.00" fill="#000000">trackbase_historic</text>
<text text-anchor="middle" x="3227.6261" y="-178.5" font-family="FreeSans" font-size="10.00" fill="#000000">/SvtxVertex.h</text>
</a>
</g>
</g>
<!-- Node1&#45;&gt;Node31 -->
<g id="edge89" class="edge">
<title>Node1&#45;&gt;Node31</title>
<path fill="none" stroke="#191970" d="M2659.286,-499.5187C2818.5284,-492.1108 3101.6261,-466.3116 3101.6261,-376.5 3101.6261,-376.5 3101.6261,-376.5 3101.6261,-319.5 3101.6261,-269.5578 3149.4039,-231.0698 3186.118,-208.8669"/>
<polygon fill="#191970" stroke="#191970" points="3188.3077,-211.6413 3195.1779,-203.5759 3184.7776,-205.5966 3188.3077,-211.6413"/>
</g>
<!-- Node32 -->
<g id="node32" class="node">
<title>Node32</title>
<g id="a_node32"><a xlink:href="../../d0/d19/SvtxVertexMap_8h.html" target="_top" xlink:title="trackbase_historic\l/SvtxVertexMap.h">
<polygon fill="none" stroke="#000000" points="2499.6261,-240.5 2499.6261,-272.5 2607.6261,-272.5 2607.6261,-240.5 2499.6261,-240.5"/>
<text text-anchor="start" x="2507.6261" y="-259.5" font-family="FreeSans" font-size="10.00" fill="#000000">trackbase_historic</text>
<text text-anchor="middle" x="2553.6261" y="-247.5" font-family="FreeSans" font-size="10.00" fill="#000000">/SvtxVertexMap.h</text>
</a>
</g>
</g>
<!-- Node1&#45;&gt;Node32 -->
<g id="edge96" class="edge">
<title>Node1&#45;&gt;Node32</title>
<path fill="none" stroke="#191970" d="M2553.6261,-480.2353C2553.6261,-434.7136 2553.6261,-331.1972 2553.6261,-282.6049"/>
<polygon fill="#191970" stroke="#191970" points="2557.1262,-282.571 2553.6261,-272.571 2550.1262,-282.5711 2557.1262,-282.571"/>
</g>
<!-- Node33 -->
<g id="node33" class="node">
<title>Node33</title>
<g id="a_node33"><a xlink:href="../../de/d83/PHG4Hit_8h.html" target="_top" xlink:title="g4main/PHG4Hit.h">
<polygon fill="none" stroke="#ff0000" points="2889.6261,-177.5 2889.6261,-197.5 2999.6261,-197.5 2999.6261,-177.5 2889.6261,-177.5"/>
<text text-anchor="middle" x="2944.6261" y="-184.5" font-family="FreeSans" font-size="10.00" fill="#000000">g4main/PHG4Hit.h</text>
</a>
</g>
</g>
<!-- Node1&#45;&gt;Node33 -->
<g id="edge101" class="edge">
<title>Node1&#45;&gt;Node33</title>
<path fill="none" stroke="#191970" d="M2656.4599,-480.4047C2745.0047,-458.3195 2858.6261,-421.2593 2858.6261,-376.5 2858.6261,-376.5 2858.6261,-376.5 2858.6261,-319.5 2858.6261,-271.6202 2898.839,-227.4993 2924.2691,-204.3848"/>
<polygon fill="#191970" stroke="#191970" points="2926.7398,-206.8729 2931.9365,-197.6401 2922.1163,-201.6171 2926.7398,-206.8729"/>
</g>
<!-- Node34 -->
<g id="node34" class="node">
<title>Node34</title>
<g id="a_node34"><a xlink:href="../../dd/d05/PHG4Particle_8h.html" target="_top" xlink:title="g4main/PHG4Particle.h">
<polygon fill="none" stroke="#000000" points="3375.6261,-177.5 3375.6261,-197.5 3507.6261,-197.5 3507.6261,-177.5 3375.6261,-177.5"/>
<text text-anchor="middle" x="3441.6261" y="-184.5" font-family="FreeSans" font-size="10.00" fill="#000000">g4main/PHG4Particle.h</text>
</a>
</g>
</g>
<!-- Node1&#45;&gt;Node34 -->
<g id="edge108" class="edge">
<title>Node1&#45;&gt;Node34</title>
<path fill="none" stroke="#191970" d="M2659.4565,-498.7956C2827.7079,-491.9994 3141.407,-475.2809 3181.6261,-444 3206.7591,-424.4525 3205.6261,-408.3399 3205.6261,-376.5 3205.6261,-376.5 3205.6261,-376.5 3205.6261,-319.5 3205.6261,-244.8875 3296.5888,-212.0416 3365.5687,-197.8602"/>
<polygon fill="#191970" stroke="#191970" points="3366.4324,-201.2577 3375.5731,-195.9006 3365.0868,-194.3882 3366.4324,-201.2577"/>
</g>
<!-- Node35 -->
<g id="node35" class="node">
<title>Node35</title>
<g id="a_node35"><a xlink:href="../../d0/d25/PHG4TruthInfoContainer_8h.html" target="_top" xlink:title="g4main/PHG4TruthInfoContainer.h">
<polygon fill="none" stroke="#000000" points="2043.6261,-177.5 2043.6261,-197.5 2231.6261,-197.5 2231.6261,-177.5 2043.6261,-177.5"/>
<text text-anchor="middle" x="2137.6261" y="-184.5" font-family="FreeSans" font-size="10.00" fill="#000000">g4main/PHG4TruthInfoContainer.h</text>
</a>
</g>
</g>
<!-- Node1&#45;&gt;Node35 -->
<g id="edge113" class="edge">
<title>Node1&#45;&gt;Node35</title>
<path fill="none" stroke="#191970" d="M2447.7923,-489.2837C2372.9759,-478.6567 2280.1032,-462.4857 2245.6261,-444 2208.6483,-424.1735 2179.6261,-418.4577 2179.6261,-376.5 2179.6261,-376.5 2179.6261,-376.5 2179.6261,-319.5 2179.6261,-277.8609 2160.4134,-232.1641 2147.9769,-206.946"/>
<polygon fill="#191970" stroke="#191970" points="2150.9504,-205.0723 2143.2904,-197.7529 2144.714,-208.2516 2150.9504,-205.0723"/>
</g>
<!-- Node36 -->
<g id="node36" class="node">
<title>Node36</title>
<polygon fill="none" stroke="#bfbfbf" points="2190.6261,-114.5 2190.6261,-134.5 2244.6261,-134.5 2244.6261,-114.5 2190.6261,-114.5"/>
<text text-anchor="middle" x="2217.6261" y="-121.5" font-family="FreeSans" font-size="10.00" fill="#000000">iterator</text>
</g>
<!-- Node1&#45;&gt;Node36 -->
<g id="edge161" class="edge">
<title>Node1&#45;&gt;Node36</title>
<path fill="none" stroke="#191970" d="M2456.9523,-480.4231C2371.2625,-457.9646 2259.6261,-420.3006 2259.6261,-376.5 2259.6261,-376.5 2259.6261,-376.5 2259.6261,-256.5 2259.6261,-217.573 2253.5711,-207.7115 2240.6261,-171 2237.3109,-161.5983 2232.5627,-151.6337 2228.2405,-143.3506"/>
<polygon fill="#191970" stroke="#191970" points="2231.3085,-141.6658 2223.4736,-134.5337 2225.1508,-144.995 2231.3085,-141.6658"/>
</g>
<!-- Node37 -->
<g id="node37" class="node">
<title>Node37</title>
<g id="a_node37"><a xlink:href="../../d4/d2a/PHG4VtxPoint_8h.html" target="_top" xlink:title="g4main/PHG4VtxPoint.h">
<polygon fill="none" stroke="#000000" points="3018.1261,-177.5 3018.1261,-197.5 3155.1261,-197.5 3155.1261,-177.5 3018.1261,-177.5"/>
<text text-anchor="middle" x="3086.6261" y="-184.5" font-family="FreeSans" font-size="10.00" fill="#000000">g4main/PHG4VtxPoint.h</text>
</a>
</g>
</g>
<!-- Node1&#45;&gt;Node37 -->
<g id="edge119" class="edge">
<title>Node1&#45;&gt;Node37</title>
<path fill="none" stroke="#191970" d="M2659.2193,-489.8464C2776.2278,-472.8052 2948.6261,-437.3688 2948.6261,-376.5 2948.6261,-376.5 2948.6261,-376.5 2948.6261,-319.5 2948.6261,-261.9827 3012.0028,-221.8009 3052.8578,-201.8737"/>
<polygon fill="#191970" stroke="#191970" points="3054.4004,-205.016 3061.9544,-197.5871 3051.4165,-198.6838 3054.4004,-205.016"/>
</g>
<!-- Node38 -->
<g id="node38" class="node">
<title>Node38</title>
<g id="a_node38"><a xlink:href="../../d4/da1/PHG4CylinderCellGeom_8h.html" target="_top" xlink:title="g4detectors/PHG4Cylinder\lCellGeom.h">
<polygon fill="none" stroke="#000000" points="2364.1261,-171.5 2364.1261,-203.5 2515.1261,-203.5 2515.1261,-171.5 2364.1261,-171.5"/>
<text text-anchor="start" x="2372.1261" y="-190.5" font-family="FreeSans" font-size="10.00" fill="#000000">g4detectors/PHG4Cylinder</text>
<text text-anchor="middle" x="2439.6261" y="-178.5" font-family="FreeSans" font-size="10.00" fill="#000000">CellGeom.h</text>
</a>
</g>
</g>
<!-- Node1&#45;&gt;Node38 -->
<g id="edge124" class="edge">
<title>Node1&#45;&gt;Node38</title>
<path fill="none" stroke="#191970" d="M2521.5372,-480.4928C2492.9563,-458.0196 2455.6261,-420.2859 2455.6261,-376.5 2455.6261,-376.5 2455.6261,-376.5 2455.6261,-319.5 2455.6261,-282.574 2449.3791,-240.2569 2444.692,-213.7031"/>
<polygon fill="#191970" stroke="#191970" points="2448.1015,-212.8902 2442.8639,-203.6806 2441.2152,-214.1463 2448.1015,-212.8902"/>
</g>
<!-- Node39 -->
<g id="node39" class="node">
<title>Node39</title>
<g id="a_node39"><a xlink:href="../../d4/d90/PHG4CylinderCellGeomContainer_8h.html" target="_top" xlink:title="g4detectors/PHG4Cylinder\lCellGeomContainer.h">
<polygon fill="none" stroke="#000000" points="1672.1261,-171.5 1672.1261,-203.5 1823.1261,-203.5 1823.1261,-171.5 1672.1261,-171.5"/>
<text text-anchor="start" x="1680.1261" y="-190.5" font-family="FreeSans" font-size="10.00" fill="#000000">g4detectors/PHG4Cylinder</text>
<text text-anchor="middle" x="1747.6261" y="-178.5" font-family="FreeSans" font-size="10.00" fill="#000000">CellGeomContainer.h</text>
</a>
</g>
</g>
<!-- Node1&#45;&gt;Node39 -->
<g id="edge129" class="edge">
<title>Node1&#45;&gt;Node39</title>
<path fill="none" stroke="#191970" d="M2447.9687,-495.0951C2245.2554,-479.4628 1821.6261,-439.2836 1821.6261,-376.5 1821.6261,-376.5 1821.6261,-376.5 1821.6261,-319.5 1821.6261,-277.3024 1792.4964,-236.0942 1770.7896,-211.2448"/>
<polygon fill="#191970" stroke="#191970" points="1773.3456,-208.8529 1764.0491,-203.771 1768.1474,-213.5411 1773.3456,-208.8529"/>
</g>
<!-- Node40 -->
<g id="node40" class="node">
<title>Node40</title>
<g id="a_node40"><a xlink:href="../../d6/db8/PHG4CylinderGeomContainer_8h.html" target="_top" xlink:title="g4detectors/PHG4Cylinder\lGeomContainer.h">
<polygon fill="none" stroke="#000000" points="1503.1261,-171.5 1503.1261,-203.5 1654.1261,-203.5 1654.1261,-171.5 1503.1261,-171.5"/>
<text text-anchor="start" x="1511.1261" y="-190.5" font-family="FreeSans" font-size="10.00" fill="#000000">g4detectors/PHG4Cylinder</text>
<text text-anchor="middle" x="1578.6261" y="-178.5" font-family="FreeSans" font-size="10.00" fill="#000000">GeomContainer.h</text>
</a>
</g>
</g>
<!-- Node1&#45;&gt;Node40 -->
<g id="edge134" class="edge">
<title>Node1&#45;&gt;Node40</title>
<path fill="none" stroke="#191970" d="M2447.7912,-497.4634C2222.2401,-485.3135 1714.6261,-449.8244 1714.6261,-376.5 1714.6261,-376.5 1714.6261,-376.5 1714.6261,-319.5 1714.6261,-268.0197 1663.8278,-230.1606 1624.323,-208.502"/>
<polygon fill="#191970" stroke="#191970" points="1625.5474,-205.1902 1615.0716,-203.6067 1622.2734,-211.3774 1625.5474,-205.1902"/>
</g>
<!-- Node41 -->
<g id="node41" class="node">
<title>Node41</title>
<g id="a_node41"><a xlink:href="../../d8/df2/CylinderGeom__Mvtx_8h.html" target="_top" xlink:title="mvtx/CylinderGeom_Mvtx.h">
<polygon fill="none" stroke="#ff0000" points="3309.6261,-423.5 3309.6261,-443.5 3465.6261,-443.5 3465.6261,-423.5 3309.6261,-423.5"/>
<text text-anchor="middle" x="3387.6261" y="-430.5" font-family="FreeSans" font-size="10.00" fill="#000000">mvtx/CylinderGeom_Mvtx.h</text>
</a>
</g>
</g>
<!-- Node1&#45;&gt;Node41 -->
<g id="edge139" class="edge">
<title>Node1&#45;&gt;Node41</title>
<path fill="none" stroke="#191970" d="M2659.3999,-495.3289C2803.4307,-485.2974 3069.2509,-465.8352 3295.6261,-444 3296.7462,-443.892 3297.8738,-443.782 3299.0077,-443.6702"/>
<polygon fill="#191970" stroke="#191970" points="3299.7528,-447.1127 3309.3489,-442.6222 3299.047,-440.1484 3299.7528,-447.1127"/>
</g>
<!-- Node42 -->
<g id="node42" class="node">
<title>Node42</title>
<polygon fill="none" stroke="#bfbfbf" points="3458.1261,-366.5 3458.1261,-386.5 3529.1261,-386.5 3529.1261,-366.5 3458.1261,-366.5"/>
<text text-anchor="middle" x="3493.6261" y="-373.5" font-family="FreeSans" font-size="10.00" fill="#000000">TVector3.h</text>
</g>
<!-- Node1&#45;&gt;Node42 -->
<g id="edge158" class="edge">
<title>Node1&#45;&gt;Node42</title>
<path fill="none" stroke="#191970" d="M2659.4367,-499.0339C2894.7735,-490.8849 3443.362,-469.2781 3474.6261,-444 3488.4906,-432.79 3492.7101,-412.3148 3493.7825,-396.8441"/>
<polygon fill="#191970" stroke="#191970" points="3497.2864,-396.7719 3494.1001,-386.6676 3490.2898,-396.5535 3497.2864,-396.7719"/>
</g>
<!-- Node43 -->
<g id="node43" class="node">
<title>Node43</title>
<g id="a_node43"><a xlink:href="../../d1/df9/CylinderGeomIntt_8h.html" target="_top" xlink:title="intt/CylinderGeomIntt.h">
<polygon fill="none" stroke="#ff0000" points="3522.1261,-423.5 3522.1261,-443.5 3657.1261,-443.5 3657.1261,-423.5 3522.1261,-423.5"/>
<text text-anchor="middle" x="3589.6261" y="-430.5" font-family="FreeSans" font-size="10.00" fill="#000000">intt/CylinderGeomIntt.h</text>
</a>
</g>
</g>
<!-- Node1&#45;&gt;Node43 -->
<g id="edge142" class="edge">
<title>Node1&#45;&gt;Node43</title>
<path fill="none" stroke="#191970" d="M2659.3273,-498.304C2835.4881,-490.7987 3200.1497,-473.0812 3507.6261,-444 3509.0996,-443.8606 3510.5874,-443.7155 3512.0861,-443.5652"/>
<polygon fill="#191970" stroke="#191970" points="3512.52,-447.0389 3522.0963,-442.5063 3511.7836,-440.0777 3512.52,-447.0389"/>
</g>
<!-- Node44 -->
<g id="node44" class="node">
<title>Node44</title>
<g id="a_node44"><a xlink:href="../../da/dc1/Fun4AllReturnCodes_8h.html" target="_top" xlink:title="fun4all/Fun4AllReturnCodes.h">
<polygon fill="none" stroke="#000000" points="3751.6261,-423.5 3751.6261,-443.5 3917.6261,-443.5 3917.6261,-423.5 3751.6261,-423.5"/>
<text text-anchor="middle" x="3834.6261" y="-430.5" font-family="FreeSans" font-size="10.00" fill="#000000">fun4all/Fun4AllReturnCodes.h</text>
</a>
</g>
</g>
<!-- Node1&#45;&gt;Node44 -->
<g id="edge146" class="edge">
<title>Node1&#45;&gt;Node44</title>
<path fill="none" stroke="#191970" d="M2659.491,-499.346C2866.7172,-492.7127 3340.3638,-475.2885 3737.6261,-444 3738.9084,-443.899 3740.2,-443.7948 3741.4991,-443.6876"/>
<polygon fill="#191970" stroke="#191970" points="3741.9206,-447.1642 3751.5803,-442.8122 3741.315,-440.1905 3741.9206,-447.1642"/>
</g>
<!-- Node45 -->
<g id="node45" class="node">
<title>Node45</title>
<g id="a_node45"><a xlink:href="../../dc/d26/PHTimer_8h.html" target="_top" xlink:title="high precision timer">
<polygon fill="none" stroke="#ff0000" points="3678.1261,-177.5 3678.1261,-197.5 3777.1261,-197.5 3777.1261,-177.5 3678.1261,-177.5"/>
<text text-anchor="middle" x="3727.6261" y="-184.5" font-family="FreeSans" font-size="10.00" fill="#000000">phool/PHTimer.h</text>
</a>
</g>
</g>
<!-- Node1&#45;&gt;Node45 -->
<g id="edge148" class="edge">
<title>Node1&#45;&gt;Node45</title>
<path fill="none" stroke="#191970" d="M2659.3487,-500.2156C2929.4663,-493.9428 3626.5107,-474.84 3665.6261,-444 3690.1968,-424.6275 3685.6261,-407.7892 3685.6261,-376.5 3685.6261,-376.5 3685.6261,-376.5 3685.6261,-319.5 3685.6261,-277.8609 3704.8387,-232.1641 3717.2752,-206.946"/>
<polygon fill="#191970" stroke="#191970" points="3720.5381,-208.2516 3721.9618,-197.7529 3714.3017,-205.0723 3720.5381,-208.2516"/>
</g>
<!-- Node46 -->
<g id="node46" class="node">
<title>Node46</title>
<g id="a_node46"><a xlink:href="../../dd/dd4/getClass_8h.html" target="_top" xlink:title="phool/getClass.h">
<polygon fill="none" stroke="#ff0000" points="3933.6261,-366.5 3933.6261,-386.5 4033.6261,-386.5 4033.6261,-366.5 3933.6261,-366.5"/>
<text text-anchor="middle" x="3983.6261" y="-373.5" font-family="FreeSans" font-size="10.00" fill="#000000">phool/getClass.h</text>
</a>
</g>
</g>
<!-- Node1&#45;&gt;Node46 -->
<g id="edge151" class="edge">
<title>Node1&#45;&gt;Node46</title>
<path fill="none" stroke="#191970" d="M2659.3346,-501.3148C2977.4921,-497.3268 3907.519,-482.4233 3959.6261,-444 3974.3669,-433.1302 3980.0903,-412.4309 3982.293,-396.8071"/>
<polygon fill="#191970" stroke="#191970" points="3985.8073,-396.8473 3983.3531,-386.5406 3978.8444,-396.1282 3985.8073,-396.8473"/>
</g>
<!-- Node47 -->
<g id="node47" class="node">
<title>Node47</title>
<g id="a_node47"><a xlink:href="../../d5/d6f/phool_8h.html" target="_top" xlink:title="phool/phool.h">
<polygon fill="none" stroke="#000000" points="3458.1261,-309.5 3458.1261,-329.5 3543.1261,-329.5 3543.1261,-309.5 3458.1261,-309.5"/>
<text text-anchor="middle" x="3500.6261" y="-316.5" font-family="FreeSans" font-size="10.00" fill="#000000">phool/phool.h</text>
</a>
</g>
</g>
<!-- Node1&#45;&gt;Node47 -->
<g id="edge153" class="edge">
<title>Node1&#45;&gt;Node47</title>
<path fill="none" stroke="#191970" d="M2659.1675,-498.7548C2827.309,-491.9438 3148.1739,-475.2592 3257.6261,-444 3263.3434,-442.3671 3409.4476,-366.775 3472.3055,-334.1914"/>
<polygon fill="#191970" stroke="#191970" points="3474.0309,-337.2394 3481.2975,-329.5292 3470.8088,-331.025 3474.0309,-337.2394"/>
</g>
<!-- Node48 -->
<g id="node48" class="node">
<title>Node48</title>
<g id="a_node48"><a xlink:href="../../d2/dcb/recoConsts_8h.html" target="_top" xlink:title="phool/recoConsts.h">
<polygon fill="none" stroke="#ff0000" points="4070.1261,-423.5 4070.1261,-443.5 4183.1261,-443.5 4183.1261,-423.5 4070.1261,-423.5"/>
<text text-anchor="middle" x="4126.6261" y="-430.5" font-family="FreeSans" font-size="10.00" fill="#000000">phool/recoConsts.h</text>
</a>
</g>
</g>
<!-- Node1&#45;&gt;Node48 -->
<g id="edge155" class="edge">
<title>Node1&#45;&gt;Node48</title>
<path fill="none" stroke="#191970" d="M2659.1966,-499.8728C2954.316,-492.2918 3784.0153,-469.2988 4055.6261,-444 4057.0994,-443.8628 4058.5888,-443.7157 4060.0896,-443.5599"/>
<polygon fill="#191970" stroke="#191970" points="4060.5712,-447.0278 4070.1112,-442.4193 4059.7795,-440.0727 4060.5712,-447.0278"/>
</g>
<!-- Node49 -->
<g id="node49" class="node">
<title>Node49</title>
<polygon fill="none" stroke="#bfbfbf" points="4201.6261,-423.5 4201.6261,-443.5 4251.6261,-443.5 4251.6261,-423.5 4201.6261,-423.5"/>
<text text-anchor="middle" x="4226.6261" y="-430.5" font-family="FreeSans" font-size="10.00" fill="#000000">TFile.h</text>
</g>
<!-- Node1&#45;&gt;Node49 -->
<g id="edge156" class="edge">
<title>Node1&#45;&gt;Node49</title>
<path fill="none" stroke="#191970" d="M2659.3707,-500.3448C2991.5748,-493.3533 4002.9089,-470.3125 4191.5116,-443.6104"/>
<polygon fill="#191970" stroke="#191970" points="4192.2096,-447.0441 4201.5543,-442.0513 4191.1357,-440.1269 4192.2096,-447.0441"/>
</g>
<!-- Node50 -->
<g id="node50" class="node">
<title>Node50</title>
<polygon fill="none" stroke="#bfbfbf" points="4269.6261,-423.5 4269.6261,-443.5 4335.6261,-443.5 4335.6261,-423.5 4269.6261,-423.5"/>
<text text-anchor="middle" x="4302.6261" y="-430.5" font-family="FreeSans" font-size="10.00" fill="#000000">TNtuple.h</text>
</g>
<!-- Node1&#45;&gt;Node50 -->
<g id="edge157" class="edge">
<title>Node1&#45;&gt;Node50</title>
<path fill="none" stroke="#191970" d="M2659.1311,-501.7931C2977.9716,-499.2022 3929.3096,-488.0137 4259.228,-443.8919"/>
<polygon fill="#191970" stroke="#191970" points="4259.8504,-447.3393 4269.2805,-442.5099 4258.897,-440.4046 4259.8504,-447.3393"/>
</g>
<!-- Node2&#45;&gt;Node3 -->
<g id="edge2" class="edge">
<title>Node2&#45;&gt;Node3</title>
<path fill="none" stroke="#191970" d="M3806.9716,-246.3188C3824.023,-235.0058 3851.7733,-216.5946 3871.6864,-203.3831"/>
<polygon fill="#191970" stroke="#191970" points="3873.8197,-206.168 3880.2175,-197.723 3869.9497,-200.335 3873.8197,-206.168"/>
</g>
<!-- Node4 -->
<g id="node4" class="node">
<title>Node4</title>
<polygon fill="none" stroke="#bfbfbf" points="3705.1261,-114.5 3705.1261,-134.5 3750.1261,-134.5 3750.1261,-114.5 3705.1261,-114.5"/>
<text text-anchor="middle" x="3727.6261" y="-121.5" font-family="FreeSans" font-size="10.00" fill="#000000">string</text>
</g>
<!-- Node2&#45;&gt;Node4 -->
<g id="edge4" class="edge">
<title>Node2&#45;&gt;Node4</title>
<path fill="none" stroke="#191970" d="M3793.4063,-246.3173C3795.8169,-229.5427 3798.469,-195.5172 3785.6261,-171 3779.0104,-158.3707 3767.3042,-147.9823 3756.1327,-140.2524"/>
<polygon fill="#191970" stroke="#191970" points="3757.6991,-137.0984 3747.3955,-134.6312 3753.9116,-142.9853 3757.6991,-137.0984"/>
</g>
<!-- Node5 -->
<g id="node5" class="node">
<title>Node5</title>
<polygon fill="none" stroke="#bfbfbf" points="198.6261,-.5 198.6261,-20.5 230.6261,-20.5 230.6261,-.5 198.6261,-.5"/>
<text text-anchor="middle" x="214.6261" y="-7.5" font-family="FreeSans" font-size="10.00" fill="#000000">set</text>
</g>
<!-- Node2&#45;&gt;Node5 -->
<g id="edge5" class="edge">
<title>Node2&#45;&gt;Node5</title>
<path fill="none" stroke="#191970" d="M3839.2957,-251.0477C3902.8708,-241.8142 4003.3877,-219.1911 3966.6261,-171 3849.2243,-17.0972 3866.0529,-97.816 2849.6261,-57 2303.6897,-35.0772 482.9415,-13.587 241.2166,-10.8035"/>
<polygon fill="#191970" stroke="#191970" points="240.9503,-7.3003 230.9108,-10.6851 240.8699,-14.2998 240.9503,-7.3003"/>
</g>
<!-- Node2&#45;&gt;Node6 -->
<g id="edge6" class="edge">
<title>Node2&#45;&gt;Node6</title>
<path fill="none" stroke="#191970" d="M3766.3611,-246.4897C3741.2872,-236.3749 3701.8968,-219.9968 3668.6261,-204 3625.2199,-183.13 3576.2323,-156.1062 3546.9238,-139.5508"/>
<polygon fill="#191970" stroke="#191970" points="3548.5567,-136.4532 3538.1315,-134.5646 3545.1035,-142.5422 3548.5567,-136.4532"/>
</g>
<!-- Node3&#45;&gt;Node4 -->
<g id="edge3" class="edge">
<title>Node3&#45;&gt;Node4</title>
<path fill="none" stroke="#191970" d="M3868.634,-177.378C3839.0058,-166.2674 3791.4618,-148.4384 3759.8891,-136.5986"/>
<polygon fill="#191970" stroke="#191970" points="3760.8346,-133.2153 3750.2424,-132.9811 3758.3767,-139.7696 3760.8346,-133.2153"/>
</g>
<!-- Node7&#45;&gt;Node8 -->
<g id="edge8" class="edge">
<title>Node7&#45;&gt;Node8</title>
<path fill="none" stroke="#191970" d="M642.7322,-423.3095C642.0851,-415.9335 641.1892,-405.72 640.3993,-396.715"/>
<polygon fill="#191970" stroke="#191970" points="643.8728,-396.2581 639.5122,-386.6022 636.8995,-396.8699 643.8728,-396.2581"/>
</g>
<!-- Node8&#45;&gt;Node5 -->
<g id="edge32" class="edge">
<title>Node8&#45;&gt;Node5</title>
<path fill="none" stroke="#191970" d="M587.5804,-374.4035C450.5517,-365.5497 79.8517,-319.3203 3.6261,-78 .8149,-69.1001 -2.2205,-64.2753 3.6261,-57 26.5502,-28.4738 137.1067,-16.4189 188.3928,-12.2987"/>
<polygon fill="#191970" stroke="#191970" points="188.6793,-15.7871 198.3842,-11.5368 188.147,-8.8073 188.6793,-15.7871"/>
</g>
<!-- Node8&#45;&gt;Node9 -->
<g id="edge9" class="edge">
<title>Node8&#45;&gt;Node9</title>
<path fill="none" stroke="#191970" d="M622.5359,-366.3095C608.8418,-357.6366 588.9534,-345.0407 573.2563,-335.0992"/>
<polygon fill="#191970" stroke="#191970" points="574.8979,-331.9959 564.577,-329.6022 571.1525,-337.9097 574.8979,-331.9959"/>
</g>
<!-- Node8&#45;&gt;Node14 -->
<g id="edge31" class="edge">
<title>Node8&#45;&gt;Node14</title>
<path fill="none" stroke="#191970" d="M639.409,-366.3443C642.6035,-332.4687 657.7699,-222.5803 722.6261,-171 778.7688,-126.3495 804.5175,-133.2273 873.6261,-114 953.026,-91.9095 1049.4244,-77.5038 1097.0533,-71.1829"/>
<polygon fill="#191970" stroke="#191970" points="1097.5306,-74.6504 1106.9946,-69.8876 1096.6261,-67.7091 1097.5306,-74.6504"/>
</g>
<!-- Node8&#45;&gt;Node18 -->
<g id="edge33" class="edge">
<title>Node8&#45;&gt;Node18</title>
<path fill="none" stroke="#191970" d="M641.4677,-366.1273C651.5321,-331.5655 689.0079,-219.7606 764.6261,-171 778.8133,-161.8517 1014.9607,-136.8625 1102.9388,-127.821"/>
<polygon fill="#191970" stroke="#191970" points="1103.3173,-131.3006 1112.9084,-126.7996 1102.6038,-124.3371 1103.3173,-131.3006"/>
</g>
<!-- Node9&#45;&gt;Node5 -->
<g id="edge29" class="edge">
<title>Node9&#45;&gt;Node5</title>
<path fill="none" stroke="#191970" d="M500.2696,-312.1514C406.5777,-296.82 205.9561,-258.2862 165.6261,-204 144.8675,-176.058 186.8646,-72.8088 205.9067,-29.6535"/>
<polygon fill="#191970" stroke="#191970" points="209.1115,-31.0604 209.9997,-20.5028 202.7216,-28.2022 209.1115,-31.0604"/>
</g>
<!-- Node9&#45;&gt;Node10 -->
<g id="edge10" class="edge">
<title>Node9&#45;&gt;Node10</title>
<path fill="none" stroke="#191970" d="M535.9333,-309.378C523.6097,-299.5503 504.6946,-284.4661 490.216,-272.9198"/>
<polygon fill="#191970" stroke="#191970" points="492.2879,-270.0954 482.2873,-266.5969 487.9234,-275.5683 492.2879,-270.0954"/>
</g>
<!-- Node9&#45;&gt;Node14 -->
<g id="edge28" class="edge">
<title>Node9&#45;&gt;Node14</title>
<path fill="none" stroke="#191970" d="M546.1191,-309.4933C538.4131,-276.0889 518.8236,-167.5167 574.6261,-114 612.5375,-77.6414 987.7737,-69.474 1096.9653,-67.8608"/>
<polygon fill="#191970" stroke="#191970" points="1097.0162,-71.3605 1106.9662,-67.7207 1096.9181,-64.3612 1097.0162,-71.3605"/>
</g>
<!-- Node9&#45;&gt;Node15 -->
<g id="edge27" class="edge">
<title>Node9&#45;&gt;Node15</title>
<path fill="none" stroke="#191970" d="M554.6976,-309.4723C571.8543,-282.1057 623.6931,-205.86 688.6261,-171 722.3089,-152.9169 820.1486,-139.2091 888.2935,-131.5118"/>
<polygon fill="#191970" stroke="#191970" points="888.9879,-134.9562 898.5406,-130.3741 888.2154,-127.999 888.9879,-134.9562"/>
</g>
<!-- Node9&#45;&gt;Node18 -->
<g id="edge30" class="edge">
<title>Node9&#45;&gt;Node18</title>
<path fill="none" stroke="#191970" d="M561.8722,-309.3109C573.9117,-299.9909 592.1109,-285.7543 607.6261,-273 661.4367,-228.7647 662.766,-198.8252 726.6261,-171 743.8559,-163.4926 1009.014,-136.9178 1102.9471,-127.687"/>
<polygon fill="#191970" stroke="#191970" points="1103.4099,-131.1585 1113.0205,-126.6991 1102.7266,-124.1919 1103.4099,-131.1585"/>
</g>
<!-- Node10&#45;&gt;Node5 -->
<g id="edge25" class="edge">
<title>Node10&#45;&gt;Node5</title>
<path fill="none" stroke="#191970" d="M416.8868,-248.0235C332.8456,-234.395 177.5341,-208.6622 173.6261,-204 164.2042,-192.7599 170.4169,-185.3113 173.6261,-171 177.4977,-153.7345 185.1305,-151.8192 190.6261,-135 202.3057,-99.2544 209.0849,-55.7737 212.3028,-30.8001"/>
<polygon fill="#191970" stroke="#191970" points="215.7953,-31.0733 213.5355,-20.7223 208.8471,-30.2233 215.7953,-31.0733"/>
</g>
<!-- Node10&#45;&gt;Node11 -->
<g id="edge11" class="edge">
<title>Node10&#45;&gt;Node11</title>
<path fill="none" stroke="#191970" d="M449.1234,-246.4668C425.2103,-234.7646 385.4855,-215.3248 358.2283,-201.9862"/>
<polygon fill="#191970" stroke="#191970" points="359.674,-198.7971 349.1534,-197.5453 356.5971,-205.0846 359.674,-198.7971"/>
</g>
<!-- Node10&#45;&gt;Node14 -->
<g id="edge24" class="edge">
<title>Node10&#45;&gt;Node14</title>
<path fill="none" stroke="#191970" d="M464.5701,-246.2116C452.5878,-220.1855 425.9668,-151.1635 460.6261,-114 482.638,-90.3976 970.6082,-72.6626 1096.966,-68.4547"/>
<polygon fill="#191970" stroke="#191970" points="1097.1932,-71.9492 1107.0724,-68.1214 1096.9624,-64.953 1097.1932,-71.9492"/>
</g>
<!-- Node10&#45;&gt;Node15 -->
<g id="edge23" class="edge">
<title>Node10&#45;&gt;Node15</title>
<path fill="none" stroke="#191970" d="M482.5146,-246.2884C506.5398,-227.8506 560.472,-189.2281 612.6261,-171 662.0399,-153.7296 802.2885,-138.5956 888.3001,-130.5773"/>
<polygon fill="#191970" stroke="#191970" points="888.8746,-134.0392 898.5107,-129.6351 888.2314,-127.0689 888.8746,-134.0392"/>
</g>
<!-- Node10&#45;&gt;Node18 -->
<g id="edge26" class="edge">
<title>Node10&#45;&gt;Node18</title>
<path fill="none" stroke="#191970" d="M492.9355,-246.479C540.9298,-225.999 649.5552,-180.4757 688.6261,-171 708.7448,-166.1207 1002.8174,-137.3636 1102.7074,-127.6805"/>
<polygon fill="#191970" stroke="#191970" points="1103.2145,-131.1478 1112.8305,-126.7 1102.5396,-124.1804 1103.2145,-131.1478"/>
</g>
<!-- Node11&#45;&gt;Node5 -->
<g id="edge21" class="edge">
<title>Node11&#45;&gt;Node5</title>
<path fill="none" stroke="#191970" d="M329.3848,-177.1723C330.5803,-153.4449 330.3812,-94.226 302.6261,-57 287.41,-36.5918 260.5641,-24.273 240.5127,-17.4917"/>
<polygon fill="#191970" stroke="#191970" points="241.3329,-14.0811 230.744,-14.4368 239.2435,-20.762 241.3329,-14.0811"/>
</g>
<!-- Node11&#45;&gt;Node12 -->
<g id="edge12" class="edge">
<title>Node11&#45;&gt;Node12</title>
<path fill="none" stroke="#191970" d="M298.5087,-177.4475C291.6658,-175.2496 284.4135,-172.9879 277.6261,-171 235.4435,-158.6459 187.1616,-146.0645 151.6915,-137.1093"/>
<polygon fill="#191970" stroke="#191970" points="152.1318,-133.6112 141.5802,-134.5671 150.4249,-140.3999 152.1318,-133.6112"/>
</g>
<!-- Node11&#45;&gt;Node14 -->
<g id="edge20" class="edge">
<title>Node11&#45;&gt;Node14</title>
<path fill="none" stroke="#191970" d="M332.8726,-177.4433C340.4857,-160.8455 358.1734,-128.1487 384.6261,-114 448.2107,-79.9905 966.184,-69.9236 1096.8042,-67.9143"/>
<polygon fill="#191970" stroke="#191970" points="1096.9368,-71.4128 1106.8833,-67.7636 1096.832,-64.4136 1096.9368,-71.4128"/>
</g>
<!-- Node11&#45;&gt;Node15 -->
<g id="edge17" class="edge">
<title>Node11&#45;&gt;Node15</title>
<path fill="none" stroke="#191970" d="M370.9404,-183.2686C477.4174,-172.6209 757.3008,-144.6325 888.6616,-131.4964"/>
<polygon fill="#191970" stroke="#191970" points="889.0181,-134.9783 898.6202,-130.5006 888.3215,-128.0131 889.0181,-134.9783"/>
</g>
<!-- Node11&#45;&gt;Node18 -->
<g id="edge22" class="edge">
<title>Node11&#45;&gt;Node18</title>
<path fill="none" stroke="#191970" d="M370.8059,-184.6561C479.6292,-177.2486 778.767,-156.4403 1027.6261,-135 1052.8343,-132.8282 1081.3189,-130.0451 1102.7035,-127.8899"/>
<polygon fill="#191970" stroke="#191970" points="1103.2884,-131.3487 1112.8842,-126.8573 1102.582,-124.3844 1103.2884,-131.3487"/>
</g>
<!-- Node12&#45;&gt;Node5 -->
<g id="edge16" class="edge">
<title>Node12&#45;&gt;Node5</title>
<path fill="none" stroke="#191970" d="M109.5685,-114.1458C121.3584,-100.6413 142.9184,-76.4466 162.6261,-57 172.9977,-46.7658 185.106,-35.8805 195.0277,-27.2167"/>
<polygon fill="#191970" stroke="#191970" points="197.4898,-29.7147 202.7616,-20.5246 192.9094,-24.4213 197.4898,-29.7147"/>
</g>
<!-- Node13 -->
<g id="node13" class="node">
<title>Node13</title>
<g id="a_node13"><a xlink:href="../../d8/d89/BaseTruthEval_8h.html" target="_top" xlink:title="BaseTruthEval.h">
<polygon fill="none" stroke="#000000" points="13.1261,-57.5 13.1261,-77.5 110.1261,-77.5 110.1261,-57.5 13.1261,-57.5"/>
<text text-anchor="middle" x="61.6261" y="-64.5" font-family="FreeSans" font-size="10.00" fill="#000000">BaseTruthEval.h</text>
</a>
</g>
</g>
<!-- Node12&#45;&gt;Node13 -->
<g id="edge13" class="edge">
<title>Node12&#45;&gt;Node13</title>
<path fill="none" stroke="#191970" d="M93.6536,-114.3095C88.2741,-106.4472 80.6887,-95.3608 74.2502,-85.9507"/>
<polygon fill="#191970" stroke="#191970" points="77.0736,-83.8789 68.5381,-77.6022 71.2964,-87.8317 77.0736,-83.8789"/>
</g>
<!-- Node12&#45;&gt;Node14 -->
<g id="edge15" class="edge">
<title>Node12&#45;&gt;Node14</title>
<path fill="none" stroke="#191970" d="M148.3947,-121.8462C326.8942,-111.9295 951.9044,-77.2068 1096.5736,-69.1696"/>
<polygon fill="#191970" stroke="#191970" points="1097.0955,-72.6461 1106.8859,-68.5967 1096.7072,-65.6569 1097.0955,-72.6461"/>
</g>
<!-- Node13&#45;&gt;Node5 -->
<g id="edge14" class="edge">
<title>Node13&#45;&gt;Node5</title>
<path fill="none" stroke="#191970" d="M88.6272,-57.4408C116.8969,-46.9089 160.9709,-30.4892 188.7949,-20.1234"/>
<polygon fill="#191970" stroke="#191970" points="190.1023,-23.3714 198.2512,-16.6004 187.6585,-16.8118 190.1023,-23.3714"/>
</g>
<!-- Node16 -->
<g id="node16" class="node">
<title>Node16</title>
<polygon fill="none" stroke="#bfbfbf" points="243.1261,-57.5 243.1261,-77.5 294.1261,-77.5 294.1261,-57.5 243.1261,-57.5"/>
<text text-anchor="middle" x="268.6261" y="-64.5" font-family="FreeSans" font-size="10.00" fill="#000000">cstdint</text>
</g>
<!-- Node15&#45;&gt;Node16 -->
<g id="edge18" class="edge">
<title>Node15&#45;&gt;Node16</title>
<path fill="none" stroke="#191970" d="M898.6001,-119.5413C759.0016,-108.0093 415.9398,-79.6694 304.3384,-70.4502"/>
<polygon fill="#191970" stroke="#191970" points="304.5297,-66.9541 294.2754,-69.6189 303.9533,-73.9304 304.5297,-66.9541"/>
</g>
<!-- Node15&#45;&gt;Node17 -->
<g id="edge19" class="edge">
<title>Node15&#45;&gt;Node17</title>
<path fill="none" stroke="#191970" d="M1018.9104,-119.5869C1044.9508,-117.6064 1075.7742,-115.4517 1103.6261,-114 1666.0344,-84.6867 2351.4261,-71.2258 2522.5018,-68.184"/>
<polygon fill="#191970" stroke="#191970" points="2522.6284,-71.6824 2532.5652,-68.0066 2522.505,-64.6835 2522.6284,-71.6824"/>
</g>
<!-- Node19&#45;&gt;Node15 -->
<g id="edge40" class="edge">
<title>Node19&#45;&gt;Node15</title>
<path fill="none" stroke="#191970" d="M2766.423,-177.4881C2754.669,-174.894 2741.6933,-172.4301 2729.6261,-171 2370.7159,-128.4647 1464.6452,-152.0572 1103.6261,-135 1079.2498,-133.8483 1052.6029,-132.0688 1028.8778,-130.2999"/>
<polygon fill="#191970" stroke="#191970" points="1029.1397,-126.8098 1018.9039,-129.5444 1028.6109,-133.7898 1029.1397,-126.8098"/>
</g>
<!-- Node19&#45;&gt;Node17 -->
<g id="edge44" class="edge">
<title>Node19&#45;&gt;Node17</title>
<path fill="none" stroke="#191970" d="M2785.326,-177.4753C2742.3544,-156.2547 2642.0539,-106.7236 2592.0515,-82.0311"/>
<polygon fill="#191970" stroke="#191970" points="2593.5553,-78.8702 2583.0393,-77.5806 2590.4558,-85.1467 2593.5553,-78.8702"/>
</g>
<!-- Node20 -->
<g id="node20" class="node">
<title>Node20</title>
<g id="a_node20"><a xlink:href="../../df/d32/PHObject_8h.html" target="_top" xlink:title="phool/PHObject.h">
<polygon fill="none" stroke="#ff0000" points="2264.6261,-114.5 2264.6261,-134.5 2368.6261,-134.5 2368.6261,-114.5 2264.6261,-114.5"/>
<text text-anchor="middle" x="2316.6261" y="-121.5" font-family="FreeSans" font-size="10.00" fill="#000000">phool/PHObject.h</text>
</a>
</g>
</g>
<!-- Node19&#45;&gt;Node20 -->
<g id="edge41" class="edge">
<title>Node19&#45;&gt;Node20</title>
<path fill="none" stroke="#191970" d="M2763.1645,-177.4835C2752.2746,-175.1346 2740.5509,-172.7962 2729.6261,-171 2605.8716,-150.6534 2459.7757,-136.4998 2378.7271,-129.5092"/>
<polygon fill="#191970" stroke="#191970" points="2378.9534,-126.0159 2368.6916,-128.6517 2378.3573,-132.9905 2378.9534,-126.0159"/>
</g>
<!-- Node19&#45;&gt;Node21 -->
<g id="edge43" class="edge">
<title>Node19&#45;&gt;Node21</title>
<path fill="none" stroke="#191970" d="M2850.6216,-177.4478C2907.0671,-164.8376 3002.6036,-143.4944 3053.4309,-132.1393"/>
<polygon fill="#191970" stroke="#191970" points="3054.2756,-135.537 3063.2719,-129.9408 3052.7494,-128.7054 3054.2756,-135.537"/>
</g>
<!-- Node22 -->
<g id="node22" class="node">
<title>Node22</title>
<polygon fill="none" stroke="#bfbfbf" points="2922.1261,-114.5 2922.1261,-134.5 2971.1261,-134.5 2971.1261,-114.5 2922.1261,-114.5"/>
<text text-anchor="middle" x="2946.6261" y="-121.5" font-family="FreeSans" font-size="10.00" fill="#000000">climits</text>
</g>
<!-- Node19&#45;&gt;Node22 -->
<g id="edge45" class="edge">
<title>Node19&#45;&gt;Node22</title>
<path fill="none" stroke="#191970" d="M2828.2801,-177.378C2851.7144,-166.9073 2888.5029,-150.4699 2914.8414,-138.7016"/>
<polygon fill="#191970" stroke="#191970" points="2916.3259,-141.8719 2924.0282,-134.5969 2913.4703,-135.4808 2916.3259,-141.8719"/>
</g>
<!-- Node20&#45;&gt;Node17 -->
<g id="edge42" class="edge">
<title>Node20&#45;&gt;Node17</title>
<path fill="none" stroke="#191970" d="M2360.0397,-114.4408C2405.9792,-103.7962 2477.8761,-87.1372 2522.5204,-76.7928"/>
<polygon fill="#191970" stroke="#191970" points="2523.48,-80.1632 2532.4318,-74.4962 2521.8998,-73.3439 2523.48,-80.1632"/>
</g>
<!-- Node23&#45;&gt;Node17 -->
<g id="edge48" class="edge">
<title>Node23&#45;&gt;Node17</title>
<path fill="none" stroke="#191970" d="M2656.8443,-177.2689C2639.3611,-156.9001 2600.0025,-111.0454 2578.0908,-85.5172"/>
<polygon fill="#191970" stroke="#191970" points="2580.5546,-83.0138 2571.3856,-77.7052 2575.2429,-87.573 2580.5546,-83.0138"/>
</g>
<!-- Node23&#45;&gt;Node20 -->
<g id="edge47" class="edge">
<title>Node23&#45;&gt;Node20</title>
<path fill="none" stroke="#191970" d="M2609.9401,-177.4478C2546.9179,-166.0713 2444.5198,-147.5868 2378.8988,-135.7412"/>
<polygon fill="#191970" stroke="#191970" points="2379.1572,-132.2314 2368.6944,-133.8992 2377.9136,-139.12 2379.1572,-132.2314"/>
</g>
<!-- Node24&#45;&gt;Node15 -->
<g id="edge51" class="edge">
<title>Node24&#45;&gt;Node15</title>
<path fill="none" stroke="#191970" d="M253.107,-177.4322C260.932,-174.9359 269.5307,-172.5377 277.6261,-171 393.0965,-149.0659 738.4983,-133.2045 888.1726,-127.1743"/>
<polygon fill="#191970" stroke="#191970" points="888.7529,-130.654 898.605,-126.7571 888.4731,-123.6596 888.7529,-130.654"/>
</g>
<!-- Node24&#45;&gt;Node16 -->
<g id="edge52" class="edge">
<title>Node24&#45;&gt;Node16</title>
<path fill="none" stroke="#191970" d="M229.2922,-177.2689C236.4324,-157.3429 252.3122,-113.027 261.5632,-87.2104"/>
<polygon fill="#191970" stroke="#191970" points="264.8907,-88.2998 264.9692,-77.7052 258.301,-85.9384 264.8907,-88.2998"/>
</g>
<!-- Node25&#45;&gt;Node14 -->
<g id="edge56" class="edge">
<title>Node25&#45;&gt;Node14</title>
<path fill="none" stroke="#191970" d="M1372.2375,-177.4753C1323.799,-155.7864 1209.3118,-104.5235 1155.5098,-80.433"/>
<polygon fill="#191970" stroke="#191970" points="1156.7568,-77.1566 1146.1996,-76.2643 1153.8961,-83.5454 1156.7568,-77.1566"/>
</g>
<!-- Node25&#45;&gt;Node15 -->
<g id="edge54" class="edge">
<title>Node25&#45;&gt;Node15</title>
<path fill="none" stroke="#191970" d="M1335.4432,-177.4734C1322.0325,-175.2742 1307.8477,-173.0053 1294.6261,-171 1202.9714,-157.0987 1096.9872,-142.711 1028.9534,-133.6914"/>
<polygon fill="#191970" stroke="#191970" points="1029.1557,-130.1878 1018.783,-132.3456 1028.2374,-137.1273 1029.1557,-130.1878"/>
</g>
<!-- Node25&#45;&gt;Node17 -->
<g id="edge57" class="edge">
<title>Node25&#45;&gt;Node17</title>
<path fill="none" stroke="#191970" d="M1438.3699,-177.493C1510.788,-161.3439 1660.3401,-129.7572 1788.6261,-114 2068.1695,-79.6639 2407.7588,-70.3929 2522.537,-68.1511"/>
<polygon fill="#191970" stroke="#191970" points="2522.6884,-71.6489 2532.6206,-67.9611 2522.5565,-64.6502 2522.6884,-71.6489"/>
</g>
<!-- Node25&#45;&gt;Node18 -->
<g id="edge58" class="edge">
<title>Node25&#45;&gt;Node18</title>
<path fill="none" stroke="#191970" d="M1353.3003,-177.4478C1301.916,-164.9489 1215.2598,-143.8704 1168.2776,-132.4423"/>
<polygon fill="#191970" stroke="#191970" points="1168.8749,-128.9856 1158.331,-130.0228 1167.2204,-135.7872 1168.8749,-128.9856"/>
</g>
<!-- Node25&#45;&gt;Node20 -->
<g id="edge55" class="edge">
<title>Node25&#45;&gt;Node20</title>
<path fill="none" stroke="#191970" d="M1447.645,-177.4804C1462.4768,-175.0003 1478.6388,-172.5983 1493.6261,-171 1829.876,-135.1415 1917.3762,-170.8585 2253.6261,-135 2253.8466,-134.9765 2254.0675,-134.9527 2254.2888,-134.9286"/>
<polygon fill="#191970" stroke="#191970" points="2254.9373,-138.3754 2264.4371,-133.6846 2254.0855,-131.4274 2254.9373,-138.3754"/>
</g>
<!-- Node26&#45;&gt;Node14 -->
<g id="edge63" class="edge">
<title>Node26&#45;&gt;Node14</title>
<path fill="none" stroke="#191970" d="M870.1014,-177.2755C869.8835,-161.3262 871.9778,-130.6328 889.6261,-114 919.2243,-86.1048 1040.0636,-73.7844 1096.8616,-69.4528"/>
<polygon fill="#191970" stroke="#191970" points="1097.285,-72.9313 1107.0038,-68.7128 1096.7756,-65.9499 1097.285,-72.9313"/>
</g>
<!-- Node26&#45;&gt;Node15 -->
<g id="edge60" class="edge">
<title>Node26&#45;&gt;Node15</title>
<path fill="none" stroke="#191970" d="M884.7648,-177.378C898.6206,-167.4584 919.9568,-152.1837 936.1413,-140.597"/>
<polygon fill="#191970" stroke="#191970" points="938.4287,-143.264 944.5224,-134.5969 934.3539,-137.5722 938.4287,-143.264"/>
</g>
<!-- Node26&#45;&gt;Node17 -->
<g id="edge62" class="edge">
<title>Node26&#45;&gt;Node17</title>
<path fill="none" stroke="#191970" d="M912.5866,-177.4254C922.7175,-175.1566 933.533,-172.8696 943.6261,-171 1030.397,-154.9266 1248.7438,-122.0169 1336.6261,-114 1574.7477,-92.2777 2338.1858,-72.8911 2522.363,-68.4513"/>
<polygon fill="#191970" stroke="#191970" points="2522.5131,-71.9488 2532.4262,-68.2097 2522.345,-64.9508 2522.5131,-71.9488"/>
</g>
<!-- Node26&#45;&gt;Node18 -->
<g id="edge64" class="edge">
<title>Node26&#45;&gt;Node18</title>
<path fill="none" stroke="#191970" d="M912.9091,-177.4478C965.8665,-164.8579 1055.4403,-143.563 1103.2615,-132.1942"/>
<polygon fill="#191970" stroke="#191970" points="1104.1635,-135.5774 1113.0828,-129.8593 1102.5444,-128.7672 1104.1635,-135.5774"/>
</g>
<!-- Node26&#45;&gt;Node20 -->
<g id="edge61" class="edge">
<title>Node26&#45;&gt;Node20</title>
<path fill="none" stroke="#191970" d="M908.6431,-177.4351C919.8329,-174.8735 932.1521,-172.4404 943.6261,-171 1521.5322,-98.4518 1673.8833,-191.0091 2253.6261,-135 2253.8468,-134.9787 2254.0679,-134.957 2254.2894,-134.9351"/>
<polygon fill="#191970" stroke="#191970" points="2254.9116,-138.3867 2264.4453,-133.7651 2254.1104,-131.4327 2254.9116,-138.3867"/>
</g>
<!-- Node27&#45;&gt;Node14 -->
<g id="edge69" class="edge">
<title>Node27&#45;&gt;Node14</title>
<path fill="none" stroke="#191970" d="M1047.9584,-177.2689C1062.4925,-156.9886 1095.1331,-111.4436 1113.4743,-85.8513"/>
<polygon fill="#191970" stroke="#191970" points="1116.3319,-87.8723 1119.3123,-77.7052 1110.6422,-83.7946 1116.3319,-87.8723"/>
</g>
<!-- Node27&#45;&gt;Node15 -->
<g id="edge66" class="edge">
<title>Node27&#45;&gt;Node15</title>
<path fill="none" stroke="#191970" d="M1027.4513,-177.378C1014.6597,-167.5503 995.0263,-152.4661 979.9979,-140.9198"/>
<polygon fill="#191970" stroke="#191970" points="981.8303,-137.9139 971.7681,-134.5969 977.5656,-143.4648 981.8303,-137.9139"/>
</g>
<!-- Node27&#45;&gt;Node17 -->
<g id="edge68" class="edge">
<title>Node27&#45;&gt;Node17</title>
<path fill="none" stroke="#191970" d="M1089.753,-177.4375C1171.9173,-161.0599 1342.5932,-128.9662 1488.6261,-114 1694.9264,-92.8573 2352.4135,-73.3802 2522.2681,-68.61"/>
<polygon fill="#191970" stroke="#191970" points="2522.6161,-72.1018 2532.5143,-68.3236 2522.4203,-65.1045 2522.6161,-72.1018"/>
</g>
<!-- Node27&#45;&gt;Node18 -->
<g id="edge70" class="edge">
<title>Node27&#45;&gt;Node18</title>
<path fill="none" stroke="#191970" d="M1055.8895,-177.378C1070.986,-167.3666 1094.3081,-151.9003 1111.8366,-140.2762"/>
<polygon fill="#191970" stroke="#191970" points="1114.0009,-143.0406 1120.4005,-134.5969 1110.1322,-137.2068 1114.0009,-143.0406"/>
</g>
<!-- Node27&#45;&gt;Node20 -->
<g id="edge67" class="edge">
<title>Node27&#45;&gt;Node20</title>
<path fill="none" stroke="#191970" d="M1091.5454,-177.4979C1106.3501,-174.9542 1122.5844,-172.5148 1137.6261,-171 1631.3865,-121.2749 1759.7832,-183.9001 2253.6261,-135 2253.8467,-134.9781 2254.0678,-134.956 2254.2893,-134.9336"/>
<polygon fill="#191970" stroke="#191970" points="2254.9178,-138.384 2264.4434,-133.7458 2254.1044,-131.4314 2254.9178,-138.384"/>
</g>
<!-- Node28&#45;&gt;Node14 -->
<g id="edge75" class="edge">
<title>Node28&#45;&gt;Node14</title>
<path fill="none" stroke="#191970" d="M1206.402,-171.3639C1196.6339,-156.2227 1181.2705,-133.1096 1166.6261,-114 1159.0668,-104.1359 1150.0869,-93.6018 1142.5525,-85.0584"/>
<polygon fill="#191970" stroke="#191970" points="1145.1348,-82.6954 1135.8654,-77.5642 1139.9118,-87.3559 1145.1348,-82.6954"/>
</g>
<!-- Node28&#45;&gt;Node15 -->
<g id="edge72" class="edge">
<title>Node28&#45;&gt;Node15</title>
<path fill="none" stroke="#191970" d="M1150.8542,-171.4394C1106.9499,-160.7186 1050.0638,-146.8278 1009.5928,-136.9454"/>
<polygon fill="#191970" stroke="#191970" points="1010.22,-133.4957 999.6751,-134.5236 1008.5594,-140.2959 1010.22,-133.4957"/>
</g>
<!-- Node28&#45;&gt;Node17 -->
<g id="edge74" class="edge">
<title>Node28&#45;&gt;Node17</title>
<path fill="none" stroke="#191970" d="M1286.3319,-172.569C1289.131,-172.0283 1291.9039,-171.5031 1294.6261,-171 1453.9217,-141.5607 1493.5098,-130.8328 1654.6261,-114 1988.6535,-79.1022 2394.6637,-70.0925 2522.2661,-68.0447"/>
<polygon fill="#191970" stroke="#191970" points="2522.4154,-71.5429 2532.3598,-67.8881 2522.3067,-64.5438 2522.4154,-71.5429"/>
</g>
<!-- Node28&#45;&gt;Node18 -->
<g id="edge76" class="edge">
<title>Node28&#45;&gt;Node18</title>
<path fill="none" stroke="#191970" d="M1195.7665,-171.2759C1183.8472,-162.0054 1168.9333,-150.4056 1156.9392,-141.0769"/>
<polygon fill="#191970" stroke="#191970" points="1158.8486,-138.128 1148.8063,-134.7513 1154.551,-143.6535 1158.8486,-138.128"/>
</g>
<!-- Node28&#45;&gt;Node20 -->
<g id="edge73" class="edge">
<title>Node28&#45;&gt;Node20</title>
<path fill="none" stroke="#191970" d="M1286.2677,-172.1523C1289.0845,-171.7269 1291.8787,-171.3396 1294.6261,-171 1717.9265,-118.6727 1829.2917,-178.1478 2253.6261,-135 2253.8467,-134.9776 2254.0677,-134.9548 2254.2891,-134.9318"/>
<polygon fill="#191970" stroke="#191970" points="2254.9246,-138.381 2264.4412,-133.7244 2254.0978,-131.43 2254.9246,-138.381"/>
</g>
<!-- Node29&#45;&gt;Node5 -->
<g id="edge83" class="edge">
<title>Node29&#45;&gt;Node5</title>
<path fill="none" stroke="#191970" d="M1915.55,-171.3115C1894.7755,-153.7738 1858.8602,-126.6139 1822.6261,-114 1667.1286,-59.868 437.6691,-17.7655 241.0921,-11.3489"/>
<polygon fill="#191970" stroke="#191970" points="240.9354,-7.842 230.827,-11.0157 240.7082,-14.8383 240.9354,-7.842"/>
</g>
<!-- Node29&#45;&gt;Node14 -->
<g id="edge82" class="edge">
<title>Node29&#45;&gt;Node14</title>
<path fill="none" stroke="#191970" d="M1907.8059,-171.4488C1878.1156,-153.8975 1827.3169,-126.5947 1779.6261,-114 1659.4546,-82.2639 1267.9754,-70.8141 1156.4961,-68.1522"/>
<polygon fill="#191970" stroke="#191970" points="1156.3901,-64.6488 1146.3113,-67.915 1156.2271,-71.6469 1156.3901,-64.6488"/>
</g>
<!-- Node29&#45;&gt;Node15 -->
<g id="edge78" class="edge">
<title>Node29&#45;&gt;Node15</title>
<path fill="none" stroke="#191970" d="M1879.5169,-177.6011C1864.0912,-175.091 1847.236,-172.6434 1831.6261,-171 1509.4556,-137.0821 1426.9774,-154.6999 1103.6261,-135 1079.2678,-133.516 1052.6253,-131.6552 1028.8987,-129.9139"/>
<polygon fill="#191970" stroke="#191970" points="1029.1547,-126.4233 1018.9238,-129.1764 1028.6385,-133.4043 1029.1547,-126.4233"/>
</g>
<!-- Node29&#45;&gt;Node17 -->
<g id="edge81" class="edge">
<title>Node29&#45;&gt;Node17</title>
<path fill="none" stroke="#191970" d="M1946.4959,-171.3008C1961.4917,-153.7534 1988.0228,-126.5849 2017.6261,-114 2063.7536,-94.3903 2404.4842,-75.4981 2522.5145,-69.4777"/>
<polygon fill="#191970" stroke="#191970" points="2522.7684,-72.9694 2532.5786,-68.9681 2522.4143,-65.9783 2522.7684,-72.9694"/>
</g>
<!-- Node29&#45;&gt;Node20 -->
<g id="edge79" class="edge">
<title>Node29&#45;&gt;Node20</title>
<path fill="none" stroke="#191970" d="M1987.7045,-178.6706C2051.3369,-168.2715 2160.1733,-150.4537 2253.6261,-135 2253.8449,-134.9638 2254.0641,-134.9276 2254.2837,-134.8912"/>
<polygon fill="#191970" stroke="#191970" points="2255.0806,-138.307 2264.3738,-133.2192 2253.9362,-131.4012 2255.0806,-138.307"/>
</g>
<!-- Node29&#45;&gt;Node21 -->
<g id="edge80" class="edge">
<title>Node29&#45;&gt;Node21</title>
<path fill="none" stroke="#191970" d="M1987.7138,-177.3964C2002.8452,-174.9157 2019.3342,-172.5344 2034.6261,-171 2452.8307,-129.0369 2560.2785,-163.3479 2979.6261,-135 3004.2269,-133.337 3031.9036,-130.6298 3053.0803,-128.3808"/>
<polygon fill="#191970" stroke="#191970" points="3053.6442,-131.8403 3063.2109,-127.2874 3052.893,-124.8808 3053.6442,-131.8403"/>
</g>
<!-- Node30&#45;&gt;Node14 -->
<g id="edge88" class="edge">
<title>Node30&#45;&gt;Node14</title>
<path fill="none" stroke="#191970" d="M1961.6118,-241.9659C1933.4301,-233.1605 1899.0088,-220.4331 1870.6261,-204 1850.9761,-192.623 1852.3212,-180.3417 1831.6261,-171 1707.3891,-114.9202 1274.629,-78.6949 1156.5739,-69.6976"/>
<polygon fill="#191970" stroke="#191970" points="1156.6914,-66.1966 1146.4565,-68.9348 1156.165,-73.1768 1156.6914,-66.1966"/>
</g>
<!-- Node30&#45;&gt;Node17 -->
<g id="edge87" class="edge">
<title>Node30&#45;&gt;Node17</title>
<path fill="none" stroke="#191970" d="M2015.1286,-240.1823C2015.4097,-221.4859 2018.577,-190.875 2034.6261,-171 2072.7322,-123.8096 2100.2131,-130.3383 2158.6261,-114 2226.4943,-95.017 2434.1943,-77.363 2522.3656,-70.5092"/>
<polygon fill="#191970" stroke="#191970" points="2522.8068,-73.9857 2532.5083,-69.7276 2522.2689,-67.0064 2522.8068,-73.9857"/>
</g>
<!-- Node30&#45;&gt;Node20 -->
<g id="edge86" class="edge">
<title>Node30&#45;&gt;Node20</title>
<path fill="none" stroke="#191970" d="M2069.7002,-252.6147C2117.3657,-247.2294 2187.3235,-234.4177 2240.6261,-204 2267.4195,-188.71 2290.6642,-161.055 2304.1679,-142.732"/>
<polygon fill="#191970" stroke="#191970" points="2307.0247,-144.754 2309.9873,-134.5818 2301.3278,-140.6863 2307.0247,-144.754"/>
</g>
<!-- Node30&#45;&gt;Node29 -->
<g id="edge85" class="edge">
<title>Node30&#45;&gt;Node29</title>
<path fill="none" stroke="#191970" d="M1996.6075,-240.4966C1985.921,-231.5042 1972.4057,-220.1317 1960.6374,-210.2291"/>
<polygon fill="#191970" stroke="#191970" points="1962.7306,-207.4161 1952.8255,-203.6557 1958.2236,-212.7722 1962.7306,-207.4161"/>
</g>
<!-- Node31&#45;&gt;Node5 -->
<g id="edge94" class="edge">
<title>Node31&#45;&gt;Node5</title>
<path fill="none" stroke="#191970" d="M3217.0907,-171.408C3204.6816,-153.9567 3182.3377,-126.8741 3155.6261,-114 2932.6506,-6.5332 2848.6877,-72.0901 2601.6261,-57 2109.0943,-26.9169 467.8775,-12.5684 240.779,-10.709"/>
<polygon fill="#191970" stroke="#191970" points="240.7985,-7.2091 230.7704,-10.6277 240.7416,-14.2089 240.7985,-7.2091"/>
</g>
<!-- Node31&#45;&gt;Node6 -->
<g id="edge95" class="edge">
<title>Node31&#45;&gt;Node6</title>
<path fill="none" stroke="#191970" d="M3281.7082,-175.8714C3341.296,-163.059 3435.3614,-142.8334 3485.8514,-131.9771"/>
<polygon fill="#191970" stroke="#191970" points="3486.8951,-135.3328 3495.9359,-129.8088 3485.4236,-128.4892 3486.8951,-135.3328"/>
</g>
<!-- Node31&#45;&gt;Node17 -->
<g id="edge92" class="edge">
<title>Node31&#45;&gt;Node17</title>
<path fill="none" stroke="#191970" d="M3210.3162,-171.2934C3190.3933,-153.7393 3155.8641,-126.5648 3120.6261,-114 3025.0489,-79.92 2714.2723,-70.5002 2602.8438,-68.1843"/>
<polygon fill="#191970" stroke="#191970" points="2602.7645,-64.6821 2592.6966,-67.9818 2602.6247,-71.6807 2602.7645,-64.6821"/>
</g>
<!-- Node31&#45;&gt;Node20 -->
<g id="edge90" class="edge">
<title>Node31&#45;&gt;Node20</title>
<path fill="none" stroke="#191970" d="M3173.3109,-172.7186C3170.0472,-172.0729 3166.8011,-171.4915 3163.6261,-171 3012.3428,-147.5813 2548.1735,-131.5322 2379.0786,-126.3278"/>
<polygon fill="#191970" stroke="#191970" points="2378.9534,-122.8224 2368.8511,-126.0152 2378.7395,-129.8192 2378.9534,-122.8224"/>
</g>
<!-- Node31&#45;&gt;Node21 -->
<g id="edge91" class="edge">
<title>Node31&#45;&gt;Node21</title>
<path fill="none" stroke="#191970" d="M3191.9359,-171.4394C3169.5954,-161.3862 3141.0605,-148.5455 3119.4848,-138.8364"/>
<polygon fill="#191970" stroke="#191970" points="3120.6641,-135.5291 3110.1086,-134.6171 3117.7915,-141.9126 3120.6641,-135.5291"/>
</g>
<!-- Node31&#45;&gt;Node22 -->
<g id="edge93" class="edge">
<title>Node31&#45;&gt;Node22</title>
<path fill="none" stroke="#191970" d="M3173.5432,-173.3897C3170.1909,-172.5669 3166.8647,-171.7641 3163.6261,-171 3099.5368,-155.8786 3024.3032,-140.2224 2981.3702,-131.4851"/>
<polygon fill="#191970" stroke="#191970" points="2981.9298,-128.0274 2971.4336,-129.4692 2980.538,-134.8877 2981.9298,-128.0274"/>
</g>
<!-- Node32&#45;&gt;Node14 -->
<g id="edge100" class="edge">
<title>Node32&#45;&gt;Node14</title>
<path fill="none" stroke="#191970" d="M2551.9858,-240.2132C2549.2535,-221.2588 2542.0952,-190.1225 2523.6261,-171 2475.2332,-120.8953 2445.8307,-128.1586 2377.6261,-114 2254.7787,-88.4981 1335.7036,-71.1686 1156.7679,-68.0173"/>
<polygon fill="#191970" stroke="#191970" points="1156.5759,-64.5135 1146.5162,-67.8381 1156.4534,-71.5125 1156.5759,-64.5135"/>
</g>
<!-- Node32&#45;&gt;Node17 -->
<g id="edge99" class="edge">
<title>Node32&#45;&gt;Node17</title>
<path fill="none" stroke="#191970" d="M2555.0157,-240.4268C2555.8728,-230.0406 2556.9365,-216.2295 2557.6261,-204 2559.9507,-162.7738 2561.4262,-114.4795 2562.1322,-87.805"/>
<polygon fill="#191970" stroke="#191970" points="2565.6317,-87.8665 2562.3879,-77.7804 2558.634,-87.6879 2565.6317,-87.8665"/>
</g>
<!-- Node32&#45;&gt;Node20 -->
<g id="edge98" class="edge">
<title>Node32&#45;&gt;Node20</title>
<path fill="none" stroke="#191970" d="M2499.4713,-247.4897C2448.4243,-238.078 2376.577,-222.1696 2354.6261,-204 2336.2907,-188.8231 2326.2061,-162.7281 2321.1159,-144.5926"/>
<polygon fill="#191970" stroke="#191970" points="2324.4676,-143.5705 2318.617,-134.7376 2317.6823,-145.2911 2324.4676,-143.5705"/>
</g>
<!-- Node32&#45;&gt;Node31 -->
<g id="edge97" class="edge">
<title>Node32&#45;&gt;Node31</title>
<path fill="none" stroke="#191970" d="M2607.8654,-254.8597C2713.1847,-251.0192 2952.7179,-239.0825 3163.2873,-203.8594"/>
<polygon fill="#191970" stroke="#191970" points="3164.017,-207.2857 3173.2918,-202.1644 3162.8477,-200.3841 3164.017,-207.2857"/>
</g>
<!-- Node33&#45;&gt;Node4 -->
<g id="edge106" class="edge">
<title>Node33&#45;&gt;Node4</title>
<path fill="none" stroke="#191970" d="M2978.5871,-177.4811C2988.2192,-174.9854 2998.7684,-172.5752 3008.6261,-171 3025.7996,-168.2558 3556.0416,-135.1688 3694.7091,-126.5447"/>
<polygon fill="#191970" stroke="#191970" points="3694.9701,-130.0353 3704.7336,-125.9214 3694.5356,-123.0488 3694.9701,-130.0353"/>
</g>
<!-- Node33&#45;&gt;Node17 -->
<g id="edge105" class="edge">
<title>Node33&#45;&gt;Node17</title>
<path fill="none" stroke="#191970" d="M2912.714,-177.4753C2843.2973,-155.669 2678.7148,-103.9677 2602.5586,-80.0442"/>
<polygon fill="#191970" stroke="#191970" points="2603.4415,-76.653 2592.8522,-76.9951 2601.3435,-83.3313 2603.4415,-76.653"/>
</g>
<!-- Node33&#45;&gt;Node18 -->
<g id="edge107" class="edge">
<title>Node33&#45;&gt;Node18</title>
<path fill="none" stroke="#191970" d="M2911.6948,-177.4952C2901.799,-174.9013 2890.8528,-172.4357 2880.6261,-171 2705.1191,-146.3604 1393.3928,-127.9251 1168.4162,-124.9282"/>
<polygon fill="#191970" stroke="#191970" points="1168.2925,-121.4264 1158.2469,-124.7934 1168.1996,-128.4258 1168.2925,-121.4264"/>
</g>
<!-- Node33&#45;&gt;Node20 -->
<g id="edge102" class="edge">
<title>Node33&#45;&gt;Node20</title>
<path fill="none" stroke="#191970" d="M2909.9806,-177.423C2900.5296,-174.9886 2890.2432,-172.624 2880.6261,-171 2699.9127,-140.4834 2483.1009,-129.7502 2378.7483,-126.1724"/>
<polygon fill="#191970" stroke="#191970" points="2378.814,-122.6728 2368.7032,-125.8383 2378.5813,-129.6689 2378.814,-122.6728"/>
</g>
<!-- Node33&#45;&gt;Node21 -->
<g id="edge103" class="edge">
<title>Node33&#45;&gt;Node21</title>
<path fill="none" stroke="#191970" d="M2967.6015,-177.378C2991.3681,-166.9073 3028.6784,-150.4699 3055.3906,-138.7016"/>
<polygon fill="#191970" stroke="#191970" points="3056.9675,-141.8316 3064.7077,-134.5969 3054.1453,-135.4257 3056.9675,-141.8316"/>
</g>
<!-- Node33&#45;&gt;Node22 -->
<g id="edge104" class="edge">
<title>Node33&#45;&gt;Node22</title>
<path fill="none" stroke="#191970" d="M2944.9474,-177.378C2945.2228,-168.7041 2945.6281,-155.9355 2945.9715,-145.1186"/>
<polygon fill="#191970" stroke="#191970" points="2949.4797,-144.9123 2946.2989,-134.8062 2942.4832,-144.6901 2949.4797,-144.9123"/>
</g>
<!-- Node34&#45;&gt;Node4 -->
<g id="edge112" class="edge">
<title>Node34&#45;&gt;Node4</title>
<path fill="none" stroke="#191970" d="M3487.2599,-177.4478C3545.3912,-164.6426 3644.4038,-142.8322 3695.3044,-131.6198"/>
<polygon fill="#191970" stroke="#191970" points="3696.0975,-135.0291 3705.1105,-129.4597 3694.5916,-128.193 3696.0975,-135.0291"/>
</g>
<!-- Node34&#45;&gt;Node17 -->
<g id="edge111" class="edge">
<title>Node34&#45;&gt;Node17</title>
<path fill="none" stroke="#191970" d="M3409.8453,-177.3993C3357.461,-161.1901 3249.4349,-129.611 3155.6261,-114 2949.6813,-79.7281 2699.1791,-70.5865 2602.9389,-68.2573"/>
<polygon fill="#191970" stroke="#191970" points="2602.8544,-64.7546 2592.7764,-68.0232 2602.6931,-71.7527 2602.8544,-64.7546"/>
</g>
<!-- Node34&#45;&gt;Node20 -->
<g id="edge109" class="edge">
<title>Node34&#45;&gt;Node20</title>
<path fill="none" stroke="#191970" d="M3375.5561,-179.3953C3349.1725,-176.3903 3318.4941,-173.1858 3290.6261,-171 2946.8475,-144.0365 2533.4964,-130.5421 2378.9379,-126.1535"/>
<polygon fill="#191970" stroke="#191970" points="2378.7924,-122.6481 2368.6979,-125.8653 2378.5954,-129.6453 2378.7924,-122.6481"/>
</g>
<!-- Node34&#45;&gt;Node21 -->
<g id="edge110" class="edge">
<title>Node34&#45;&gt;Node21</title>
<path fill="none" stroke="#191970" d="M3394.3021,-177.4514C3383.5723,-175.2534 3372.2184,-172.9905 3361.6261,-171 3275.5613,-154.8269 3173.8085,-138.2136 3121.8716,-129.9135"/>
<polygon fill="#191970" stroke="#191970" points="3122.2943,-126.4368 3111.868,-128.3193 3121.1926,-133.3495 3122.2943,-126.4368"/>
</g>
<!-- Node35&#45;&gt;Node14 -->
<g id="edge117" class="edge">
<title>Node35&#45;&gt;Node14</title>
<path fill="none" stroke="#191970" d="M2103.023,-177.4731C2045.4098,-161.2217 1925.9357,-129.3994 1822.6261,-114 1566.8721,-75.877 1253.5656,-68.9997 1156.6314,-67.7671"/>
<polygon fill="#191970" stroke="#191970" points="1156.4439,-64.2647 1146.4038,-67.6482 1156.3625,-71.2643 1156.4439,-64.2647"/>
</g>
<!-- Node35&#45;&gt;Node17 -->
<g id="edge115" class="edge">
<title>Node35&#45;&gt;Node17</title>
<path fill="none" stroke="#191970" d="M2140.4941,-177.4007C2145.7153,-161.0451 2158.4334,-129.0764 2181.6261,-114 2237.136,-77.9156 2436.0285,-69.833 2522.2656,-68.0226"/>
<polygon fill="#191970" stroke="#191970" points="2522.5187,-71.5185 2532.4497,-67.8272 2522.3844,-64.5198 2522.5187,-71.5185"/>
</g>
<!-- Node35&#45;&gt;Node18 -->
<g id="edge118" class="edge">
<title>Node35&#45;&gt;Node18</title>
<path fill="none" stroke="#191970" d="M2059.4043,-177.4642C2038.9954,-175.0878 2017.0082,-172.7412 1996.6261,-171 1674.4074,-143.4729 1282.876,-129.2909 1168.4724,-125.5335"/>
<polygon fill="#191970" stroke="#191970" points="1168.3863,-122.029 1158.2779,-125.2023 1168.1589,-129.0253 1168.3863,-122.029"/>
</g>
<!-- Node35&#45;&gt;Node20 -->
<g id="edge114" class="edge">
<title>Node35&#45;&gt;Node20</title>
<path fill="none" stroke="#191970" d="M2166.3855,-177.378C2196.7878,-166.6777 2244.895,-149.7461 2278.4557,-137.9343"/>
<polygon fill="#191970" stroke="#191970" points="2279.6672,-141.2184 2287.938,-134.5969 2277.3432,-134.6154 2279.6672,-141.2184"/>
</g>
<!-- Node35&#45;&gt;Node36 -->
<g id="edge116" class="edge">
<title>Node35&#45;&gt;Node36</title>
<path fill="none" stroke="#191970" d="M2150.4794,-177.378C2162.959,-167.5503 2182.1136,-152.4661 2196.7755,-140.9198"/>
<polygon fill="#191970" stroke="#191970" points="2199.1136,-143.5336 2204.8046,-134.5969 2194.7828,-138.0341 2199.1136,-143.5336"/>
</g>
<!-- Node37&#45;&gt;Node17 -->
<g id="edge123" class="edge">
<title>Node37&#45;&gt;Node17</title>
<path fill="none" stroke="#191970" d="M3075.812,-177.3002C3057.5937,-160.8 3018.9094,-128.6283 2979.6261,-114 2911.088,-88.4778 2693.5131,-74.3848 2602.8699,-69.4937"/>
<polygon fill="#191970" stroke="#191970" points="2602.8884,-65.9899 2592.7172,-68.9559 2602.518,-72.9801 2602.8884,-65.9899"/>
</g>
<!-- Node37&#45;&gt;Node20 -->
<g id="edge120" class="edge">
<title>Node37&#45;&gt;Node20</title>
<path fill="none" stroke="#191970" d="M3044.718,-177.498C3033.0883,-175.0334 3020.4168,-172.6349 3008.6261,-171 2778.003,-139.022 2500.9713,-128.8226 2379.2141,-125.7459"/>
<polygon fill="#191970" stroke="#191970" points="2379.0515,-122.2409 2368.9687,-125.4946 2378.8798,-129.2388 2379.0515,-122.2409"/>
</g>
<!-- Node37&#45;&gt;Node21 -->
<g id="edge121" class="edge">
<title>Node37&#45;&gt;Node21</title>
<path fill="none" stroke="#191970" d="M3086.7867,-177.378C3086.9244,-168.7041 3087.1271,-155.9355 3087.2988,-145.1186"/>
<polygon fill="#191970" stroke="#191970" points="3090.8032,-144.8605 3087.4625,-134.8062 3083.8041,-144.7494 3090.8032,-144.8605"/>
</g>
<!-- Node37&#45;&gt;Node22 -->
<g id="edge122" class="edge">
<title>Node37&#45;&gt;Node22</title>
<path fill="none" stroke="#191970" d="M3064.1326,-177.378C3040.8646,-166.9073 3004.337,-150.4699 2978.1853,-138.7016"/>
<polygon fill="#191970" stroke="#191970" points="2979.6192,-135.5089 2969.0637,-134.5969 2976.7466,-141.8924 2979.6192,-135.5089"/>
</g>
<!-- Node38&#45;&gt;Node4 -->
<g id="edge127" class="edge">
<title>Node38&#45;&gt;Node4</title>
<path fill="none" stroke="#191970" d="M2515.2994,-178.7307C2542.2059,-175.8814 2572.7371,-172.9538 2600.6261,-171 3023.4474,-141.3784 3130.2775,-155.7669 3553.6261,-135 3602.9338,-132.5813 3660.0527,-128.9817 3695.0077,-126.6882"/>
<polygon fill="#191970" stroke="#191970" points="3695.3633,-130.1724 3705.111,-126.0211 3694.9021,-123.1876 3695.3633,-130.1724"/>
</g>
<!-- Node38&#45;&gt;Node17 -->
<g id="edge126" class="edge">
<title>Node38&#45;&gt;Node17</title>
<path fill="none" stroke="#191970" d="M2456.2144,-171.3163C2479.3086,-148.7853 2520.9811,-108.1292 2544.7459,-84.9441"/>
<polygon fill="#191970" stroke="#191970" points="2547.3523,-87.291 2552.066,-77.8025 2542.464,-82.2805 2547.3523,-87.291"/>
</g>
<!-- Node38&#45;&gt;Node18 -->
<g id="edge128" class="edge">
<title>Node38&#45;&gt;Node18</title>
<path fill="none" stroke="#191970" d="M2364.0818,-180.5087C2326.9236,-177.2555 2281.4537,-173.5506 2240.6261,-171 1817.5062,-144.5668 1302.2808,-129.14 1168.5683,-125.3967"/>
<polygon fill="#191970" stroke="#191970" points="1168.2998,-121.888 1158.2064,-125.1087 1168.1053,-128.8853 1168.2998,-121.888"/>
</g>
<!-- Node38&#45;&gt;Node20 -->
<g id="edge125" class="edge">
<title>Node38&#45;&gt;Node20</title>
<path fill="none" stroke="#191970" d="M2408.2697,-171.4394C2388.9072,-161.5221 2364.2486,-148.892 2345.388,-139.2317"/>
<polygon fill="#191970" stroke="#191970" points="2346.8746,-136.0608 2336.3785,-134.6171 2343.6834,-142.2911 2346.8746,-136.0608"/>
</g>
<!-- Node39&#45;&gt;Node14 -->
<g id="edge132" class="edge">
<title>Node39&#45;&gt;Node14</title>
<path fill="none" stroke="#191970" d="M1672.0831,-172.8318C1668.8881,-172.2127 1665.7253,-171.6 1662.6261,-171 1469.8358,-133.6744 1238.0028,-88.969 1156.6179,-73.2806"/>
<polygon fill="#191970" stroke="#191970" points="1157.0646,-69.8024 1146.5828,-71.3463 1155.7396,-76.6758 1157.0646,-69.8024"/>
</g>
<!-- Node39&#45;&gt;Node17 -->
<g id="edge131" class="edge">
<title>Node39&#45;&gt;Node17</title>
<path fill="none" stroke="#191970" d="M1788.5624,-171.4769C1834.5309,-154.2214 1911.7257,-127.4403 1980.6261,-114 2084.8208,-93.6749 2408.1369,-75.4801 2522.2468,-69.5364"/>
<polygon fill="#191970" stroke="#191970" points="2522.5033,-73.0279 2532.3091,-69.0159 2522.1416,-66.0373 2522.5033,-73.0279"/>
</g>
<!-- Node39&#45;&gt;Node18 -->
<g id="edge133" class="edge">
<title>Node39&#45;&gt;Node18</title>
<path fill="none" stroke="#191970" d="M1671.6917,-172.355C1668.6339,-171.8735 1665.6032,-171.4191 1662.6261,-171 1476.5986,-144.8093 1251.4228,-130.7865 1168.4042,-126.2068"/>
<polygon fill="#191970" stroke="#191970" points="1168.4973,-122.7068 1158.322,-125.6588 1168.1173,-129.6965 1168.4973,-122.7068"/>
</g>
<!-- Node39&#45;&gt;Node20 -->
<g id="edge130" class="edge">
<title>Node39&#45;&gt;Node20</title>
<path fill="none" stroke="#191970" d="M1823.3511,-176.8619C1838.9693,-174.8027 1855.3202,-172.7452 1870.6261,-171 2040.4978,-151.6303 2084.0837,-157.0679 2253.6261,-135 2253.846,-134.9714 2254.0663,-134.9426 2254.287,-134.9136"/>
<polygon fill="#191970" stroke="#191970" points="2254.9962,-138.3485 2264.4149,-133.4969 2254.0264,-131.416 2254.9962,-138.3485"/>
</g>
<!-- Node40&#45;&gt;Node14 -->
<g id="edge137" class="edge">
<title>Node40&#45;&gt;Node14</title>
<path fill="none" stroke="#191970" d="M1518.1363,-171.4408C1420.0036,-145.3878 1229.7092,-94.8672 1156.4095,-75.4071"/>
<polygon fill="#191970" stroke="#191970" points="1157.0319,-71.9512 1146.4686,-72.7679 1155.2357,-78.7168 1157.0319,-71.9512"/>
</g>
<!-- Node40&#45;&gt;Node17 -->
<g id="edge136" class="edge">
<title>Node40&#45;&gt;Node17</title>
<path fill="none" stroke="#191970" d="M1635.919,-171.4927C1699.5547,-154.3832 1805.5985,-127.8546 1898.6261,-114 2133.1716,-79.069 2418.3391,-70.2604 2522.2742,-68.1399"/>
<polygon fill="#191970" stroke="#191970" points="2522.402,-71.6382 2532.332,-67.9444 2522.2658,-64.6395 2522.402,-71.6382"/>
</g>
<!-- Node40&#45;&gt;Node18 -->
<g id="edge138" class="edge">
<title>Node40&#45;&gt;Node18</title>
<path fill="none" stroke="#191970" d="M1503.126,-172.5898C1499.9193,-172.037 1496.7423,-171.5043 1493.6261,-171 1374.3139,-151.6905 1231.6077,-135.0859 1168.4569,-128.0683"/>
<polygon fill="#191970" stroke="#191970" points="1168.6395,-124.5672 1158.3156,-126.9479 1167.8708,-131.5249 1168.6395,-124.5672"/>
</g>
<!-- Node40&#45;&gt;Node20 -->
<g id="edge135" class="edge">
<title>Node40&#45;&gt;Node20</title>
<path fill="none" stroke="#191970" d="M1654.5582,-172.1146C1657.277,-171.7136 1659.9726,-171.3399 1662.6261,-171 1923.6469,-137.5652 1992.1507,-164.6714 2253.6261,-135 2253.8464,-134.975 2254.0672,-134.9497 2254.2883,-134.9242"/>
<polygon fill="#191970" stroke="#191970" points="2254.9546,-138.3677 2264.4311,-133.6299 2254.0684,-131.424 2254.9546,-138.3677"/>
</g>
<!-- Node41&#45;&gt;Node17 -->
<g id="edge141" class="edge">
<title>Node41&#45;&gt;Node17</title>
<path fill="none" stroke="#191970" d="M3394.2999,-423.3429C3404.4049,-408.708 3424.9399,-381.7255 3448.6261,-366 3489.0263,-339.1779 3518.7364,-365.6353 3551.6261,-330 3617.1043,-259.0557 3647.1105,-177.7691 3574.6261,-114 3565.3409,-105.8313 2790.5831,-76.0997 2603.1251,-69.0204"/>
<polygon fill="#191970" stroke="#191970" points="2603.0066,-65.5136 2592.8818,-68.6341 2602.7427,-72.5086 2603.0066,-65.5136"/>
</g>
<!-- Node41&#45;&gt;Node42 -->
<g id="edge140" class="edge">
<title>Node41&#45;&gt;Node42</title>
<path fill="none" stroke="#191970" d="M3406.5767,-423.3095C3423.0822,-414.434 3447.2279,-401.4499 3465.9047,-391.4068"/>
<polygon fill="#191970" stroke="#191970" points="3467.6897,-394.4209 3474.8394,-386.6022 3464.3744,-388.2557 3467.6897,-394.4209"/>
</g>
<!-- Node43&#45;&gt;Node17 -->
<g id="edge144" class="edge">
<title>Node43&#45;&gt;Node17</title>
<path fill="none" stroke="#191970" d="M3634.1638,-423.3971C3753.9759,-394.1881 4067.4812,-303.2118 3966.6261,-171 3908.4905,-94.7897 3853.3567,-128.6241 3758.6261,-114 3744.0153,-111.7445 2809.482,-76.7241 2602.7974,-68.9998"/>
<polygon fill="#191970" stroke="#191970" points="2602.8091,-65.4979 2592.6853,-68.622 2602.5476,-72.493 2602.8091,-65.4979"/>
</g>
<!-- Node43&#45;&gt;Node21 -->
<g id="edge143" class="edge">
<title>Node43&#45;&gt;Node21</title>
<path fill="none" stroke="#191970" d="M3584.2055,-423.4422C3575.926,-408.9311 3558.8335,-382.1013 3537.6261,-366 3503.642,-340.1984 3482.7366,-355.6342 3448.6261,-330 3376.766,-275.997 3400.2808,-217.9495 3323.6261,-171 3315.024,-165.7314 3184.9353,-141.9211 3121.6703,-130.5636"/>
<polygon fill="#191970" stroke="#191970" points="3122.2187,-127.1062 3111.7582,-128.7879 3120.9843,-133.9965 3122.2187,-127.1062"/>
</g>
<!-- Node43&#45;&gt;Node42 -->
<g id="edge145" class="edge">
<title>Node43&#45;&gt;Node42</title>
<path fill="none" stroke="#191970" d="M3572.4632,-423.3095C3557.7196,-414.5556 3536.2448,-401.8049 3519.4301,-391.8211"/>
<polygon fill="#191970" stroke="#191970" points="3521.0258,-388.6982 3510.6403,-386.6022 3517.452,-394.7172 3521.0258,-388.6982"/>
</g>
<!-- Node45&#45;&gt;Node4 -->
<g id="edge150" class="edge">
<title>Node45&#45;&gt;Node4</title>
<path fill="none" stroke="#191970" d="M3727.6261,-177.378C3727.6261,-168.7041 3727.6261,-155.9355 3727.6261,-145.1186"/>
<polygon fill="#191970" stroke="#191970" points="3731.1262,-144.8062 3727.6261,-134.8062 3724.1262,-144.8062 3731.1262,-144.8062"/>
</g>
<!-- Node45&#45;&gt;Node17 -->
<g id="edge149" class="edge">
<title>Node45&#45;&gt;Node17</title>
<path fill="none" stroke="#191970" d="M3717.7943,-177.2764C3700.8379,-160.4328 3664.1859,-127.383 3625.6261,-114 3527.7756,-80.0389 2785.4677,-69.8933 2603.0295,-67.9006"/>
<polygon fill="#191970" stroke="#191970" points="2602.8398,-64.3984 2592.8028,-67.7911 2602.7648,-71.398 2602.8398,-64.3984"/>
</g>
<!-- Node46&#45;&gt;Node4 -->
<g id="edge152" class="edge">
<title>Node46&#45;&gt;Node4</title>
<path fill="none" stroke="#191970" d="M3986.5316,-366.3283C3995.28,-333.3237 4017.7483,-228.0576 3966.6261,-171 3939.6727,-140.9173 3819.7733,-129.8353 3760.7177,-126.15"/>
<polygon fill="#191970" stroke="#191970" points="3760.6232,-122.6385 3750.4349,-125.545 3760.212,-129.6264 3760.6232,-122.6385"/>
</g>
<!-- Node47&#45;&gt;Node17 -->
<g id="edge154" class="edge">
<title>Node47&#45;&gt;Node17</title>
<path fill="none" stroke="#191970" d="M3508.833,-309.3273C3534.4503,-276.3196 3608.0572,-171.0451 3553.6261,-114 3520.2915,-79.0646 2784.7184,-69.6519 2602.9587,-67.8557"/>
<polygon fill="#191970" stroke="#191970" points="2602.7992,-64.3541 2592.7658,-67.7573 2602.7315,-71.3538 2602.7992,-64.3541"/>
</g>
</g>
</svg>
