<?xml version="1.0" encoding="UTF-8" standalone="no"?>
<!DOCTYPE svg PUBLIC "-//W3C//DTD SVG 1.1//EN"
 "http://www.w3.org/Graphics/SVG/1.1/DTD/svg11.dtd">
<!-- Generated by graphviz version 2.40.1 (20161225.0304)
 -->
<!-- Title: Jet_FwdReco Pages: 1 -->
<svg width="263pt" height="68pt"
 viewBox="0.00 0.00 263.00 68.00" xmlns="http://www.w3.org/2000/svg" xmlns:xlink="http://www.w3.org/1999/xlink">
<g id="graph0" class="graph" transform="scale(1 1) rotate(0) translate(4 64)">
<title>Jet_FwdReco</title>
<!-- Node1 -->
<g id="node1" class="node">
<title>Node1</title>
<polygon fill="#bfbfbf" stroke="#000000" points="0,-19.5 0,-39.5 80,-39.5 80,-19.5 0,-19.5"/>
<text text-anchor="middle" x="40" y="-26.5" font-family="FreeSans" font-size="10.00" fill="#000000">Jet_FwdReco</text>
</g>
<!-- Node2 -->
<g id="node2" class="node">
<title>Node2</title>
<g id="a_node2"><a xlink:href="../../da/d02/Fun4All__G4__EICDetector_8C.html#afbe82cefa1d1fd031d9a8586b7bb68c6" target="_top" xlink:title="Fun4All_G4_EICDetector">
<polygon fill="none" stroke="#000000" points="116,-39.5 116,-59.5 255,-59.5 255,-39.5 116,-39.5"/>
<text text-anchor="middle" x="185.5" y="-46.5" font-family="FreeSans" font-size="10.00" fill="#000000">Fun4All_G4_EICDetector</text>
</a>
</g>
</g>
<!-- Node1&#45;&gt;Node2 -->
<g id="edge1" class="edge">
<title>Node1&#45;&gt;Node2</title>
<path fill="none" stroke="#191970" d="M90.0588,-36.3809C98.3947,-37.5268 107.1722,-38.7333 115.8895,-39.9316"/>
<polygon fill="#191970" stroke="#191970" points="90.5272,-32.9125 80.1437,-35.018 89.5739,-39.8473 90.5272,-32.9125"/>
</g>
<!-- Node3 -->
<g id="node3" class="node">
<title>Node3</title>
<g id="a_node3"><a xlink:href="../../d7/d9e/Fun4All__G4__fsPHENIX_8C.html#a72c444217210a14ab1b4e66d9818b1ff" target="_top" xlink:title="Fun4All_G4_fsPHENIX">
<polygon fill="none" stroke="#000000" points="123.5,-.5 123.5,-20.5 247.5,-20.5 247.5,-.5 123.5,-.5"/>
<text text-anchor="middle" x="185.5" y="-7.5" font-family="FreeSans" font-size="10.00" fill="#000000">Fun4All_G4_fsPHENIX</text>
</a>
</g>
</g>
<!-- Node1&#45;&gt;Node3 -->
<g id="edge2" class="edge">
<title>Node1&#45;&gt;Node3</title>
<path fill="none" stroke="#191970" d="M90.1525,-22.9509C100.8597,-21.5527 112.292,-20.0598 123.3869,-18.611"/>
<polygon fill="#191970" stroke="#191970" points="89.6063,-19.4924 80.1437,-24.2579 90.5127,-26.4335 89.6063,-19.4924"/>
</g>
</g>
</svg>
