<?xml version="1.0" encoding="UTF-8" standalone="no"?>
<!DOCTYPE svg PUBLIC "-//W3C//DTD SVG 1.1//EN"
 "http://www.w3.org/Graphics/SVG/1.1/DTD/svg11.dtd">
<!-- Generated by graphviz version 2.40.1 (20161225.0304)
 -->
<!-- Title: PHG4ParticleGenerator::set_eta_range Pages: 1 -->
<svg width="338pt" height="575pt"
 viewBox="0.00 0.00 338.00 575.00" xmlns="http://www.w3.org/2000/svg" xmlns:xlink="http://www.w3.org/1999/xlink">
<g id="graph0" class="graph" transform="scale(1 1) rotate(0) translate(4 571)">
<title>PHG4ParticleGenerator::set_eta_range</title>
<!-- Node1 -->
<g id="node1" class="node">
<title>Node1</title>
<polygon fill="#bfbfbf" stroke="#000000" points="0,-267.5 0,-299.5 133,-299.5 133,-267.5 0,-267.5"/>
<text text-anchor="start" x="8" y="-286.5" font-family="FreeSans" font-size="10.00" fill="#000000">PHG4ParticleGenerator</text>
<text text-anchor="middle" x="66.5" y="-274.5" font-family="FreeSans" font-size="10.00" fill="#000000">::set_eta_range</text>
</g>
<!-- Node2 -->
<g id="node2" class="node">
<title>Node2</title>
<g id="a_node2"><a xlink:href="../../db/dc0/Fun4All__AnaTutorial_8C.html#a8c484ea6d7477278e981ef056b17eac9" target="_top" xlink:title="Fun4All_AnaTutorial">
<polygon fill="none" stroke="#000000" points="192,-546.5 192,-566.5 307,-566.5 307,-546.5 192,-546.5"/>
<text text-anchor="middle" x="249.5" y="-553.5" font-family="FreeSans" font-size="10.00" fill="#000000">Fun4All_AnaTutorial</text>
</a>
</g>
</g>
<!-- Node1&#45;&gt;Node2 -->
<g id="edge1" class="edge">
<title>Node1&#45;&gt;Node2</title>
<path fill="none" stroke="#191970" d="M69.239,-309.8782C76.082,-361.7472 98.7744,-477.1988 169,-537.5 175.5367,-543.1129 183.4312,-547.1384 191.6882,-550.0124"/>
<polygon fill="#191970" stroke="#191970" points="72.6967,-309.3185 68.008,-299.8177 65.7486,-310.1688 72.6967,-309.3185"/>
</g>
<!-- Node3 -->
<g id="node3" class="node">
<title>Node3</title>
<g id="a_node3"><a xlink:href="../../dd/d28/Fun4All__AnaTutorial__Jets_8C.html#a55eaaeb770a3177f917012de87877d28" target="_top" xlink:title="Fun4All_AnaTutorial_Jets">
<polygon fill="none" stroke="#000000" points="180,-507.5 180,-527.5 319,-527.5 319,-507.5 180,-507.5"/>
<text text-anchor="middle" x="249.5" y="-514.5" font-family="FreeSans" font-size="10.00" fill="#000000">Fun4All_AnaTutorial_Jets</text>
</a>
</g>
</g>
<!-- Node1&#45;&gt;Node3 -->
<g id="edge2" class="edge">
<title>Node1&#45;&gt;Node3</title>
<path fill="none" stroke="#191970" d="M71.338,-309.6543C81.2009,-355.3056 108.0697,-449.3434 169,-498.5 173.4704,-502.1066 178.5092,-505.05 183.8295,-507.4494"/>
<polygon fill="#191970" stroke="#191970" points="74.7249,-308.7475 69.2849,-299.6558 67.8679,-310.1555 74.7249,-308.7475"/>
</g>
<!-- Node4 -->
<g id="node4" class="node">
<title>Node4</title>
<g id="a_node4"><a xlink:href="../../d2/dee/Fun4All__G4__Cylinder_8C.html#a271dc4f10f6f77107705e0efef0c97e5" target="_top" xlink:title="Fun4All_G4_Cylinder">
<polygon fill="none" stroke="#000000" points="189,-468.5 189,-488.5 310,-488.5 310,-468.5 189,-468.5"/>
<text text-anchor="middle" x="249.5" y="-475.5" font-family="FreeSans" font-size="10.00" fill="#000000">Fun4All_G4_Cylinder</text>
</a>
</g>
</g>
<!-- Node1&#45;&gt;Node4 -->
<g id="edge3" class="edge">
<title>Node1&#45;&gt;Node4</title>
<path fill="none" stroke="#191970" d="M74.1358,-309.0816C87.0757,-347.8557 117.0975,-421.0491 169,-459.5 174.8846,-463.8595 181.6194,-467.236 188.6321,-469.8483"/>
<polygon fill="#191970" stroke="#191970" points="77.4672,-308.0082 71.0726,-299.5608 70.8036,-310.1522 77.4672,-308.0082"/>
</g>
<!-- Node5 -->
<g id="node5" class="node">
<title>Node5</title>
<g id="a_node5"><a xlink:href="../../da/d02/Fun4All__G4__EICDetector_8C.html#afbe82cefa1d1fd031d9a8586b7bb68c6" target="_top" xlink:title="Fun4All_G4_EICDetector">
<polygon fill="none" stroke="#000000" points="180,-429.5 180,-449.5 319,-449.5 319,-429.5 180,-429.5"/>
<text text-anchor="middle" x="249.5" y="-436.5" font-family="FreeSans" font-size="10.00" fill="#000000">Fun4All_G4_EICDetector</text>
</a>
</g>
</g>
<!-- Node1&#45;&gt;Node5 -->
<g id="edge4" class="edge">
<title>Node1&#45;&gt;Node5</title>
<path fill="none" stroke="#191970" d="M78.5096,-308.9231C94.6172,-340.1638 126.22,-392.4643 169,-420.5 174.5248,-424.1206 180.6632,-427.0536 187.0165,-429.429"/>
<polygon fill="#191970" stroke="#191970" points="81.6236,-307.3249 74.0129,-299.9541 75.366,-310.4622 81.6236,-307.3249"/>
</g>
<!-- Node6 -->
<g id="node6" class="node">
<title>Node6</title>
<g id="a_node6"><a xlink:href="../../d2/de6/Fun4All__G4__FAIR_8C.html#a0f795c46d42e46f79023437a1db4dc29" target="_top" xlink:title="Fun4All_G4_FAIR">
<polygon fill="none" stroke="#000000" points="199.5,-390.5 199.5,-410.5 299.5,-410.5 299.5,-390.5 199.5,-390.5"/>
<text text-anchor="middle" x="249.5" y="-397.5" font-family="FreeSans" font-size="10.00" fill="#000000">Fun4All_G4_FAIR</text>
</a>
</g>
</g>
<!-- Node1&#45;&gt;Node6 -->
<g id="edge5" class="edge">
<title>Node1&#45;&gt;Node6</title>
<path fill="none" stroke="#191970" d="M85.1609,-307.5833C103.9229,-330.1101 134.8914,-362.9827 169,-381.5 178.3387,-386.5699 189.0048,-390.2964 199.4506,-393.0324"/>
<polygon fill="#191970" stroke="#191970" points="87.8475,-305.3397 78.8176,-299.7978 82.4207,-309.7612 87.8475,-305.3397"/>
</g>
<!-- Node7 -->
<g id="node7" class="node">
<title>Node7</title>
<g id="a_node7"><a xlink:href="../../da/de9/Fun4All__G4__FAIR__barrel__only_8C.html#ad17d6575f5ac06812f55b6cef25e64ba" target="_top" xlink:title="Fun4All_G4_FAIR_barrel_only">
<polygon fill="none" stroke="#000000" points="169,-351.5 169,-371.5 330,-371.5 330,-351.5 169,-351.5"/>
<text text-anchor="middle" x="249.5" y="-358.5" font-family="FreeSans" font-size="10.00" fill="#000000">Fun4All_G4_FAIR_barrel_only</text>
</a>
</g>
</g>
<!-- Node1&#45;&gt;Node7 -->
<g id="edge6" class="edge">
<title>Node1&#45;&gt;Node7</title>
<path fill="none" stroke="#191970" d="M98.4776,-305.1443C118.107,-317.5936 144.1676,-332.6668 169,-342.5 177.8117,-345.9893 187.4305,-348.9423 196.8545,-351.4036"/>
<polygon fill="#191970" stroke="#191970" points="100.2395,-302.1159 89.9387,-299.6372 96.4455,-307.9986 100.2395,-302.1159"/>
</g>
<!-- Node8 -->
<g id="node8" class="node">
<title>Node8</title>
<g id="a_node8"><a xlink:href="../../d7/dc5/Fun4All__G4__FastMom_8C.html#ab9349be2377fe9e9a634a8607cff2555" target="_top" xlink:title="Fun4All_G4_FastMom">
<polygon fill="none" stroke="#000000" points="188,-312.5 188,-332.5 311,-332.5 311,-312.5 188,-312.5"/>
<text text-anchor="middle" x="249.5" y="-319.5" font-family="FreeSans" font-size="10.00" fill="#000000">Fun4All_G4_FastMom</text>
</a>
</g>
</g>
<!-- Node1&#45;&gt;Node8 -->
<g id="edge7" class="edge">
<title>Node1&#45;&gt;Node8</title>
<path fill="none" stroke="#191970" d="M142.9024,-299.7825C163.1027,-304.0875 184.3127,-308.6076 202.4463,-312.4722"/>
<polygon fill="#191970" stroke="#191970" points="143.5948,-296.3515 133.0849,-297.6902 142.1357,-303.1978 143.5948,-296.3515"/>
</g>
<!-- Node9 -->
<g id="node9" class="node">
<title>Node9</title>
<g id="a_node9"><a xlink:href="../../dc/d3f/Fun4All__G4__Geantino_8C.html#a2a4c70246a9a6288b367a2fa7c1d1087" target="_top" xlink:title="Fun4All_G4_Geantino">
<polygon fill="none" stroke="#000000" points="187.5,-273.5 187.5,-293.5 311.5,-293.5 311.5,-273.5 187.5,-273.5"/>
<text text-anchor="middle" x="249.5" y="-280.5" font-family="FreeSans" font-size="10.00" fill="#000000">Fun4All_G4_Geantino</text>
</a>
</g>
</g>
<!-- Node1&#45;&gt;Node9 -->
<g id="edge8" class="edge">
<title>Node1&#45;&gt;Node9</title>
<path fill="none" stroke="#191970" d="M143.1522,-283.5C157.8428,-283.5 173.0581,-283.5 187.2283,-283.5"/>
<polygon fill="#191970" stroke="#191970" points="143.0849,-280.0001 133.0849,-283.5 143.0848,-287.0001 143.0849,-280.0001"/>
</g>
<!-- Node10 -->
<g id="node10" class="node">
<title>Node10</title>
<g id="a_node10"><a xlink:href="../../d0/d87/Fun4All__G4__JLeic_8C.html#a66e8fc0b01ee0a8e805c7b99c4698974" target="_top" xlink:title="Fun4All_G4_JLeic">
<polygon fill="none" stroke="#000000" points="199,-234.5 199,-254.5 300,-254.5 300,-234.5 199,-234.5"/>
<text text-anchor="middle" x="249.5" y="-241.5" font-family="FreeSans" font-size="10.00" fill="#000000">Fun4All_G4_JLeic</text>
</a>
</g>
</g>
<!-- Node1&#45;&gt;Node10 -->
<g id="edge9" class="edge">
<title>Node1&#45;&gt;Node10</title>
<path fill="none" stroke="#191970" d="M142.9024,-267.2175C163.1027,-262.9125 184.3127,-258.3924 202.4463,-254.5278"/>
<polygon fill="#191970" stroke="#191970" points="142.1357,-263.8022 133.0849,-269.3098 143.5948,-270.6485 142.1357,-263.8022"/>
</g>
<!-- Node11 -->
<g id="node11" class="node">
<title>Node11</title>
<g id="a_node11"><a xlink:href="../../d9/d1f/Fun4All__G4__Lmon_8C.html#a4f09ca292c4b3a82ce38b19ac3858d74" target="_top" xlink:title="Fun4All_G4_Lmon">
<polygon fill="none" stroke="#000000" points="196.5,-195.5 196.5,-215.5 302.5,-215.5 302.5,-195.5 196.5,-195.5"/>
<text text-anchor="middle" x="249.5" y="-202.5" font-family="FreeSans" font-size="10.00" fill="#000000">Fun4All_G4_Lmon</text>
</a>
</g>
</g>
<!-- Node1&#45;&gt;Node11 -->
<g id="edge10" class="edge">
<title>Node1&#45;&gt;Node11</title>
<path fill="none" stroke="#191970" d="M98.9628,-262.1087C118.5779,-249.9635 144.4579,-235.2804 169,-225.5 178.7655,-221.6083 189.5074,-218.3098 199.8748,-215.5826"/>
<polygon fill="#191970" stroke="#191970" points="97.0194,-259.1962 90.4186,-267.4836 100.7467,-265.1214 97.0194,-259.1962"/>
</g>
<!-- Node12 -->
<g id="node12" class="node">
<title>Node12</title>
<g id="a_node12"><a xlink:href="../../d9/d8f/Fun4All__G4__Momentum_8C.html#afbd7a4eecd7792e9216ce80b5514123e" target="_top" xlink:title="Fun4All_G4_Momentum">
<polygon fill="none" stroke="#000000" points="182,-156.5 182,-176.5 317,-176.5 317,-156.5 182,-156.5"/>
<text text-anchor="middle" x="249.5" y="-163.5" font-family="FreeSans" font-size="10.00" fill="#000000">Fun4All_G4_Momentum</text>
</a>
</g>
</g>
<!-- Node1&#45;&gt;Node12 -->
<g id="edge11" class="edge">
<title>Node1&#45;&gt;Node12</title>
<path fill="none" stroke="#191970" d="M85.5099,-259.4628C104.3694,-237.243 135.2668,-204.9581 169,-186.5 176.4535,-182.4216 184.7472,-179.1608 193.098,-176.5573"/>
<polygon fill="#191970" stroke="#191970" points="82.5851,-257.5064 78.8904,-267.4362 87.971,-261.9778 82.5851,-257.5064"/>
</g>
<!-- Node13 -->
<g id="node13" class="node">
<title>Node13</title>
<g id="a_node13"><a xlink:href="../../d1/d54/Fun4All__G4__MyDetector_8C.html#a42ff88b75bd8510ae12cc9757b9a693b" target="_top" xlink:title="Fun4All_G4_MyDetector">
<polygon fill="none" stroke="#000000" points="181,-117.5 181,-137.5 318,-137.5 318,-117.5 181,-117.5"/>
<text text-anchor="middle" x="249.5" y="-124.5" font-family="FreeSans" font-size="10.00" fill="#000000">Fun4All_G4_MyDetector</text>
</a>
</g>
</g>
<!-- Node1&#45;&gt;Node13 -->
<g id="edge12" class="edge">
<title>Node1&#45;&gt;Node13</title>
<path fill="none" stroke="#191970" d="M78.8214,-257.9411C95.097,-226.966 126.718,-175.4583 169,-147.5 175.1261,-143.4492 182.0063,-140.2186 189.0969,-137.6422"/>
<polygon fill="#191970" stroke="#191970" points="75.5135,-256.7229 74.0822,-267.2206 81.7476,-259.9068 75.5135,-256.7229"/>
</g>
<!-- Node14 -->
<g id="node14" class="node">
<title>Node14</title>
<g id="a_node14"><a xlink:href="../../d0/d13/Fun4All__G4__sPHENIX_8C.html#a536fa7366e3aeaf273cca94ced704c46" target="_top" xlink:title="Fun4All_G4_sPHENIX">
<polygon fill="none" stroke="#000000" points="189,-78.5 189,-98.5 310,-98.5 310,-78.5 189,-78.5"/>
<text text-anchor="middle" x="249.5" y="-85.5" font-family="FreeSans" font-size="10.00" fill="#000000">Fun4All_G4_sPHENIX</text>
</a>
</g>
</g>
<!-- Node1&#45;&gt;Node14 -->
<g id="edge13" class="edge">
<title>Node1&#45;&gt;Node14</title>
<path fill="none" stroke="#191970" d="M74.5009,-257.3519C87.7125,-218.6981 117.8433,-146.7662 169,-108.5 174.881,-104.1009 181.6137,-100.6608 188.6253,-97.9722"/>
<polygon fill="#191970" stroke="#191970" points="71.0232,-256.7231 71.2198,-267.3161 77.672,-258.9125 71.0232,-256.7231"/>
</g>
<!-- Node15 -->
<g id="node15" class="node">
<title>Node15</title>
<g id="a_node15"><a xlink:href="../../d1/d9c/Fun4All__G4__Write__Dst_8C.html#a97c6c9ea797219c94a95ae2fe4bc79c3" target="_top" xlink:title="Fun4All_G4_Write_Dst">
<polygon fill="none" stroke="#000000" points="186,-39.5 186,-59.5 313,-59.5 313,-39.5 186,-39.5"/>
<text text-anchor="middle" x="249.5" y="-46.5" font-family="FreeSans" font-size="10.00" fill="#000000">Fun4All_G4_Write_Dst</text>
</a>
</g>
</g>
<!-- Node1&#45;&gt;Node15 -->
<g id="edge14" class="edge">
<title>Node1&#45;&gt;Node15</title>
<path fill="none" stroke="#191970" d="M71.4345,-257.5372C81.4481,-212.207 108.5442,-118.7709 169,-69.5 174.0233,-65.4061 179.768,-62.1334 185.8252,-59.5198"/>
<polygon fill="#191970" stroke="#191970" points="67.9798,-256.9581 69.3472,-267.4643 74.83,-258.3985 67.9798,-256.9581"/>
</g>
<!-- Node16 -->
<g id="node16" class="node">
<title>Node16</title>
<g id="a_node16"><a xlink:href="../../d4/dfa/Fun4All__Generator__Display_8C.html#af87924a94b22e18901f0d64805565f09" target="_top" xlink:title="Fun4All_Generator_Display">
<polygon fill="none" stroke="#000000" points="173.5,-.5 173.5,-20.5 325.5,-20.5 325.5,-.5 173.5,-.5"/>
<text text-anchor="middle" x="249.5" y="-7.5" font-family="FreeSans" font-size="10.00" fill="#000000">Fun4All_Generator_Display</text>
</a>
</g>
</g>
<!-- Node1&#45;&gt;Node16 -->
<g id="edge15" class="edge">
<title>Node1&#45;&gt;Node16</title>
<path fill="none" stroke="#191970" d="M69.3338,-257.2937C76.3456,-205.7502 99.3244,-90.959 169,-30.5 173.677,-26.4417 179.054,-23.1825 184.7638,-20.5683"/>
<polygon fill="#191970" stroke="#191970" points="65.852,-256.93 68.0688,-267.2903 72.7966,-257.8088 65.852,-256.93"/>
</g>
</g>
</svg>
