<?xml version="1.0" encoding="UTF-8" standalone="no"?>
<!DOCTYPE svg PUBLIC "-//W3C//DTD SVG 1.1//EN"
 "http://www.w3.org/Graphics/SVG/1.1/DTD/svg11.dtd">
<!-- Generated by graphviz version 2.40.1 (20161225.0304)
 -->
<!-- Title: SvtxHitEval::next_event Pages: 1 -->
<svg width="1419pt" height="137pt"
 viewBox="0.00 0.00 1419.00 137.00" xmlns="http://www.w3.org/2000/svg" xmlns:xlink="http://www.w3.org/1999/xlink">
<g id="graph0" class="graph" transform="scale(1 1) rotate(0) translate(4 133)">
<title>SvtxHitEval::next_event</title>
<!-- Node1 -->
<g id="node1" class="node">
<title>Node1</title>
<polygon fill="#bfbfbf" stroke="#000000" points="0,-57.5 0,-77.5 138,-77.5 138,-57.5 0,-57.5"/>
<text text-anchor="middle" x="69" y="-64.5" font-family="FreeSans" font-size="10.00" fill="#000000">SvtxHitEval::next_event</text>
</g>
<!-- Node2 -->
<g id="node2" class="node">
<title>Node2</title>
<g id="a_node2"><a xlink:href="../../d1/d1e/classSvtxClusterEval.html#a0f23d4c63d0e893560d423db7e02578d" target="_top" xlink:title="SvtxClusterEval::next\l_event">
<polygon fill="none" stroke="#000000" points="174,-51.5 174,-83.5 299,-83.5 299,-51.5 174,-51.5"/>
<text text-anchor="start" x="182" y="-70.5" font-family="FreeSans" font-size="10.00" fill="#000000">SvtxClusterEval::next</text>
<text text-anchor="middle" x="236.5" y="-58.5" font-family="FreeSans" font-size="10.00" fill="#000000">_event</text>
</a>
</g>
</g>
<!-- Node1&#45;&gt;Node2 -->
<g id="edge1" class="edge">
<title>Node1&#45;&gt;Node2</title>
<path fill="none" stroke="#191970" d="M148.1298,-67.5C156.7214,-67.5 165.378,-67.5 173.7364,-67.5"/>
<polygon fill="#191970" stroke="#191970" points="148.0957,-64.0001 138.0957,-67.5 148.0957,-71.0001 148.0957,-64.0001"/>
</g>
<!-- Node3 -->
<g id="node3" class="node">
<title>Node3</title>
<g id="a_node3"><a xlink:href="../../df/dad/classSvtxTrackEval.html#aff069c6fdb0f6d80147b65a98878d90f" target="_top" xlink:title="SvtxTrackEval::next\l_event">
<polygon fill="none" stroke="#000000" points="335,-51.5 335,-83.5 451,-83.5 451,-51.5 335,-51.5"/>
<text text-anchor="start" x="343" y="-70.5" font-family="FreeSans" font-size="10.00" fill="#000000">SvtxTrackEval::next</text>
<text text-anchor="middle" x="393" y="-58.5" font-family="FreeSans" font-size="10.00" fill="#000000">_event</text>
</a>
</g>
</g>
<!-- Node2&#45;&gt;Node3 -->
<g id="edge2" class="edge">
<title>Node2&#45;&gt;Node3</title>
<path fill="none" stroke="#191970" d="M309.524,-67.5C318,-67.5 326.5581,-67.5 334.7982,-67.5"/>
<polygon fill="#191970" stroke="#191970" points="309.2528,-64.0001 299.2528,-67.5 309.2528,-71.0001 309.2528,-64.0001"/>
</g>
<!-- Node4 -->
<g id="node4" class="node">
<title>Node4</title>
<g id="a_node4"><a xlink:href="../../d4/d21/classSvtxVertexEval.html#ad872cdf8407f2f483af522aed6786a40" target="_top" xlink:title="SvtxVertexEval::next\l_event">
<polygon fill="none" stroke="#000000" points="487,-51.5 487,-83.5 609,-83.5 609,-51.5 487,-51.5"/>
<text text-anchor="start" x="495" y="-70.5" font-family="FreeSans" font-size="10.00" fill="#000000">SvtxVertexEval::next</text>
<text text-anchor="middle" x="548" y="-58.5" font-family="FreeSans" font-size="10.00" fill="#000000">_event</text>
</a>
</g>
</g>
<!-- Node3&#45;&gt;Node4 -->
<g id="edge3" class="edge">
<title>Node3&#45;&gt;Node4</title>
<path fill="none" stroke="#191970" d="M461.4174,-67.5C469.9118,-67.5 478.5538,-67.5 486.9276,-67.5"/>
<polygon fill="#191970" stroke="#191970" points="461.1573,-64.0001 451.1573,-67.5 461.1572,-71.0001 461.1573,-64.0001"/>
</g>
<!-- Node5 -->
<g id="node5" class="node">
<title>Node5</title>
<g id="a_node5"><a xlink:href="../../d3/ded/classSvtxEvalStack.html#a8a929a1f521c9e8596ecb1ca108281cf" target="_top" xlink:title="SvtxEvalStack::next\l_event">
<polygon fill="none" stroke="#000000" points="645,-51.5 645,-83.5 762,-83.5 762,-51.5 645,-51.5"/>
<text text-anchor="start" x="653" y="-70.5" font-family="FreeSans" font-size="10.00" fill="#000000">SvtxEvalStack::next</text>
<text text-anchor="middle" x="703.5" y="-58.5" font-family="FreeSans" font-size="10.00" fill="#000000">_event</text>
</a>
</g>
</g>
<!-- Node4&#45;&gt;Node5 -->
<g id="edge4" class="edge">
<title>Node4&#45;&gt;Node5</title>
<path fill="none" stroke="#191970" d="M619.0932,-67.5C627.7469,-67.5 636.5114,-67.5 644.9536,-67.5"/>
<polygon fill="#191970" stroke="#191970" points="619.0114,-64.0001 609.0114,-67.5 619.0114,-71.0001 619.0114,-64.0001"/>
</g>
<!-- Node6 -->
<g id="node6" class="node">
<title>Node6</title>
<g id="a_node6"><a xlink:href="../../d0/da9/classAnaTutorial.html#a54c32a62e705c4464d9652e91c7d46fa" target="_top" xlink:title="Methods for grabbing the data.">
<polygon fill="none" stroke="#000000" points="799.5,-102.5 799.5,-122.5 928.5,-122.5 928.5,-102.5 799.5,-102.5"/>
<text text-anchor="middle" x="864" y="-109.5" font-family="FreeSans" font-size="10.00" fill="#000000">AnaTutorial::getTracks</text>
</a>
</g>
</g>
<!-- Node5&#45;&gt;Node6 -->
<g id="edge5" class="edge">
<title>Node5&#45;&gt;Node6</title>
<path fill="none" stroke="#191970" d="M770.8002,-86.3692C790.378,-91.8583 811.0121,-97.6436 827.8744,-102.3713"/>
<polygon fill="#191970" stroke="#191970" points="771.5645,-82.9486 760.9908,-83.6189 769.6747,-89.6887 771.5645,-82.9486"/>
</g>
<!-- Node8 -->
<g id="node8" class="node">
<title>Node8</title>
<g id="a_node8"><a xlink:href="../../d3/d22/classJetTruthEval.html#ac29b8d18ee116903ed233388eb253256" target="_top" xlink:title="reinitialize the eval for a new event">
<polygon fill="none" stroke="#000000" points="810.5,-51.5 810.5,-83.5 917.5,-83.5 917.5,-51.5 810.5,-51.5"/>
<text text-anchor="start" x="818.5" y="-70.5" font-family="FreeSans" font-size="10.00" fill="#000000">JetTruthEval::next</text>
<text text-anchor="middle" x="864" y="-58.5" font-family="FreeSans" font-size="10.00" fill="#000000">_event</text>
</a>
</g>
</g>
<!-- Node5&#45;&gt;Node8 -->
<g id="edge7" class="edge">
<title>Node5&#45;&gt;Node8</title>
<path fill="none" stroke="#191970" d="M772.4503,-67.5C785.1757,-67.5 798.2878,-67.5 810.4722,-67.5"/>
<polygon fill="#191970" stroke="#191970" points="772.3529,-64.0001 762.3529,-67.5 772.3529,-71.0001 772.3529,-64.0001"/>
</g>
<!-- Node12 -->
<g id="node12" class="node">
<title>Node12</title>
<g id="a_node12"><a xlink:href="../../d6/d11/classSvtxEvaluator.html#ac66ea4145deb621d9e4fb38cf852dc33" target="_top" xlink:title="SvtxEvaluator::process\l_event">
<polygon fill="none" stroke="#000000" points="798,-.5 798,-32.5 930,-32.5 930,-.5 798,-.5"/>
<text text-anchor="start" x="806" y="-19.5" font-family="FreeSans" font-size="10.00" fill="#000000">SvtxEvaluator::process</text>
<text text-anchor="middle" x="864" y="-7.5" font-family="FreeSans" font-size="10.00" fill="#000000">_event</text>
</a>
</g>
</g>
<!-- Node5&#45;&gt;Node12 -->
<g id="edge11" class="edge">
<title>Node5&#45;&gt;Node12</title>
<path fill="none" stroke="#191970" d="M764.2372,-48.2003C780.5017,-43.0322 797.9046,-37.5023 813.5472,-32.5317"/>
<polygon fill="#191970" stroke="#191970" points="762.7537,-44.9992 754.2832,-51.3633 764.8736,-51.6705 762.7537,-44.9992"/>
</g>
<!-- Node7 -->
<g id="node7" class="node">
<title>Node7</title>
<g id="a_node7"><a xlink:href="../../d0/da9/classAnaTutorial.html#a3b64c061aaffaf4a42631434fb7eb6f9" target="_top" xlink:title="SubsysReco event processing method.">
<polygon fill="none" stroke="#000000" points="976,-96.5 976,-128.5 1096,-128.5 1096,-96.5 976,-96.5"/>
<text text-anchor="start" x="984" y="-115.5" font-family="FreeSans" font-size="10.00" fill="#000000">AnaTutorial::process</text>
<text text-anchor="middle" x="1036" y="-103.5" font-family="FreeSans" font-size="10.00" fill="#000000">_event</text>
</a>
</g>
</g>
<!-- Node6&#45;&gt;Node7 -->
<g id="edge6" class="edge">
<title>Node6&#45;&gt;Node7</title>
<path fill="none" stroke="#191970" d="M938.8527,-112.5C951.2502,-112.5 963.9621,-112.5 975.9343,-112.5"/>
<polygon fill="#191970" stroke="#191970" points="938.5358,-109.0001 928.5358,-112.5 938.5358,-116.0001 938.5358,-109.0001"/>
</g>
<!-- Node9 -->
<g id="node9" class="node">
<title>Node9</title>
<g id="a_node9"><a xlink:href="../../dd/d75/classJetRecoEval.html#ae02e058aa7f403d5853482b5d06c01c9" target="_top" xlink:title="reinitialize the eval for a new event">
<polygon fill="none" stroke="#000000" points="966,-57.5 966,-77.5 1106,-77.5 1106,-57.5 966,-57.5"/>
<text text-anchor="middle" x="1036" y="-64.5" font-family="FreeSans" font-size="10.00" fill="#000000">JetRecoEval::next_event</text>
</a>
</g>
</g>
<!-- Node8&#45;&gt;Node9 -->
<g id="edge8" class="edge">
<title>Node8&#45;&gt;Node9</title>
<path fill="none" stroke="#191970" d="M928.1054,-67.5C940.4031,-67.5 953.3407,-67.5 965.8181,-67.5"/>
<polygon fill="#191970" stroke="#191970" points="927.95,-64.0001 917.95,-67.5 927.9499,-71.0001 927.95,-64.0001"/>
</g>
<!-- Node10 -->
<g id="node10" class="node">
<title>Node10</title>
<g id="a_node10"><a xlink:href="../../dd/df3/classJetEvalStack.html#ab85ba05ab4fea5909c8faa238ba5f8e6" target="_top" xlink:title="JetEvalStack::next\l_event">
<polygon fill="none" stroke="#000000" points="1142,-51.5 1142,-83.5 1251,-83.5 1251,-51.5 1142,-51.5"/>
<text text-anchor="start" x="1150" y="-70.5" font-family="FreeSans" font-size="10.00" fill="#000000">JetEvalStack::next</text>
<text text-anchor="middle" x="1196.5" y="-58.5" font-family="FreeSans" font-size="10.00" fill="#000000">_event</text>
</a>
</g>
</g>
<!-- Node9&#45;&gt;Node10 -->
<g id="edge9" class="edge">
<title>Node9&#45;&gt;Node10</title>
<path fill="none" stroke="#191970" d="M1116.6705,-67.5C1125.1104,-67.5 1133.5441,-67.5 1141.5983,-67.5"/>
<polygon fill="#191970" stroke="#191970" points="1116.3977,-64.0001 1106.3976,-67.5 1116.3976,-71.0001 1116.3977,-64.0001"/>
</g>
<!-- Node11 -->
<g id="node11" class="node">
<title>Node11</title>
<g id="a_node11"><a xlink:href="../../d1/df4/classJetEvaluator.html#ad83508ae828d1f2e4a83a948465a0cd2" target="_top" xlink:title="JetEvaluator::process\l_event">
<polygon fill="none" stroke="#000000" points="1287,-51.5 1287,-83.5 1411,-83.5 1411,-51.5 1287,-51.5"/>
<text text-anchor="start" x="1295" y="-70.5" font-family="FreeSans" font-size="10.00" fill="#000000">JetEvaluator::process</text>
<text text-anchor="middle" x="1349" y="-58.5" font-family="FreeSans" font-size="10.00" fill="#000000">_event</text>
</a>
</g>
</g>
<!-- Node10&#45;&gt;Node11 -->
<g id="edge10" class="edge">
<title>Node10&#45;&gt;Node11</title>
<path fill="none" stroke="#191970" d="M1261.3588,-67.5C1269.8509,-67.5 1278.5358,-67.5 1286.9793,-67.5"/>
<polygon fill="#191970" stroke="#191970" points="1261.1253,-64.0001 1251.1253,-67.5 1261.1252,-71.0001 1261.1253,-64.0001"/>
</g>
</g>
</svg>
