<?xml version="1.0" encoding="UTF-8" standalone="no"?>
<!DOCTYPE svg PUBLIC "-//W3C//DTD SVG 1.1//EN"
 "http://www.w3.org/Graphics/SVG/1.1/DTD/svg11.dtd">
<!-- Generated by graphviz version 2.40.1 (20161225.0304)
 -->
<!-- Title: fun4all_coresoftware/blob/master/simulation/g4simulation/g4detectors/PHG4ForwardCalCellReco.h Pages: 1 -->
<svg width="1391pt" height="401pt"
 viewBox="0.00 0.00 1390.50 401.00" xmlns="http://www.w3.org/2000/svg" xmlns:xlink="http://www.w3.org/1999/xlink">
<g id="graph0" class="graph" transform="scale(1 1) rotate(0) translate(4 397)">
<title>fun4all_coresoftware/blob/master/simulation/g4simulation/g4detectors/PHG4ForwardCalCellReco.h</title>
<!-- Node1 -->
<g id="node1" class="node">
<title>Node1</title>
<polygon fill="#bfbfbf" stroke="#000000" points="225,-336.5 225,-392.5 383,-392.5 383,-336.5 225,-336.5"/>
<text text-anchor="start" x="233" y="-379.5" font-family="FreeSans" font-size="10.00" fill="#000000">fun4all_coresoftware</text>
<text text-anchor="start" x="233" y="-367.5" font-family="FreeSans" font-size="10.00" fill="#000000">/blob/master/simulation</text>
<text text-anchor="start" x="233" y="-355.5" font-family="FreeSans" font-size="10.00" fill="#000000">/g4simulation/g4detectors</text>
<text text-anchor="middle" x="304" y="-343.5" font-family="FreeSans" font-size="10.00" fill="#000000">/PHG4ForwardCalCellReco.h</text>
</g>
<!-- Node2 -->
<g id="node2" class="node">
<title>Node2</title>
<g id="a_node2"><a xlink:href="../../d8/dc1/PHG4ForwardCalCellReco_8cc.html" target="_top" xlink:title="fun4all_coresoftware\l/blob/master/simulation\l/g4simulation/g4detectors\l/PHG4ForwardCalCellReco.cc">
<polygon fill="none" stroke="#000000" points="0,-243.5 0,-299.5 162,-299.5 162,-243.5 0,-243.5"/>
<text text-anchor="start" x="8" y="-286.5" font-family="FreeSans" font-size="10.00" fill="#000000">fun4all_coresoftware</text>
<text text-anchor="start" x="8" y="-274.5" font-family="FreeSans" font-size="10.00" fill="#000000">/blob/master/simulation</text>
<text text-anchor="start" x="8" y="-262.5" font-family="FreeSans" font-size="10.00" fill="#000000">/g4simulation/g4detectors</text>
<text text-anchor="middle" x="81" y="-250.5" font-family="FreeSans" font-size="10.00" fill="#000000">/PHG4ForwardCalCellReco.cc</text>
</a>
</g>
</g>
<!-- Node1&#45;&gt;Node2 -->
<g id="edge1" class="edge">
<title>Node1&#45;&gt;Node2</title>
<path fill="none" stroke="#191970" d="M227.4692,-332.5836C201.7999,-321.8784 173.3794,-310.0259 148.4569,-299.6323"/>
<polygon fill="#191970" stroke="#191970" points="226.2135,-335.852 236.7902,-336.4708 228.9079,-329.3913 226.2135,-335.852"/>
</g>
<!-- Node3 -->
<g id="node3" class="node">
<title>Node3</title>
<g id="a_node3"><a xlink:href="../../d1/d38/G4__EEMC_8C.html" target="_top" xlink:title="fun4all_macros/blob\l/master/macros/g4simulations\l/G4_EEMC.C">
<polygon fill="none" stroke="#000000" points="85.5,-162.5 85.5,-206.5 256.5,-206.5 256.5,-162.5 85.5,-162.5"/>
<text text-anchor="start" x="93.5" y="-193.5" font-family="FreeSans" font-size="10.00" fill="#000000">fun4all_macros/blob</text>
<text text-anchor="start" x="93.5" y="-181.5" font-family="FreeSans" font-size="10.00" fill="#000000">/master/macros/g4simulations</text>
<text text-anchor="middle" x="171" y="-169.5" font-family="FreeSans" font-size="10.00" fill="#000000">/G4_EEMC.C</text>
</a>
</g>
</g>
<!-- Node1&#45;&gt;Node3 -->
<g id="edge2" class="edge">
<title>Node1&#45;&gt;Node3</title>
<path fill="none" stroke="#191970" d="M241.2622,-330.6005C229.2908,-321.8921 217.7768,-311.6394 209,-300 187.9023,-272.0213 178.1878,-231.763 173.9649,-206.9145"/>
<polygon fill="#191970" stroke="#191970" points="239.3836,-333.557 249.5951,-336.3809 243.3733,-327.8053 239.3836,-333.557"/>
</g>
<!-- Node6 -->
<g id="node6" class="node">
<title>Node6</title>
<g id="a_node6"><a xlink:href="../../dd/dc8/G4__FEMC__EIC_8C.html" target="_top" xlink:title="fun4all_macros/blob\l/master/macros/g4simulations\l/G4_FEMC_EIC.C">
<polygon fill="none" stroke="#000000" points="218.5,-249.5 218.5,-293.5 389.5,-293.5 389.5,-249.5 218.5,-249.5"/>
<text text-anchor="start" x="226.5" y="-280.5" font-family="FreeSans" font-size="10.00" fill="#000000">fun4all_macros/blob</text>
<text text-anchor="start" x="226.5" y="-268.5" font-family="FreeSans" font-size="10.00" fill="#000000">/master/macros/g4simulations</text>
<text text-anchor="middle" x="304" y="-256.5" font-family="FreeSans" font-size="10.00" fill="#000000">/G4_FEMC_EIC.C</text>
</a>
</g>
</g>
<!-- Node1&#45;&gt;Node6 -->
<g id="edge5" class="edge">
<title>Node1&#45;&gt;Node6</title>
<path fill="none" stroke="#191970" d="M304,-326.0409C304,-315.0068 304,-303.3498 304,-293.6577"/>
<polygon fill="#191970" stroke="#191970" points="300.5001,-326.3445 304,-336.3446 307.5001,-326.3446 300.5001,-326.3445"/>
</g>
<!-- Node8 -->
<g id="node8" class="node">
<title>Node8</title>
<g id="a_node8"><a xlink:href="../../d8/dc2/G4__FHCAL_8C.html" target="_top" xlink:title="fun4all_macros/blob\l/master/macros/g4simulations\l/G4_FHCAL.C">
<polygon fill="none" stroke="#000000" points="407.5,-249.5 407.5,-293.5 578.5,-293.5 578.5,-249.5 407.5,-249.5"/>
<text text-anchor="start" x="415.5" y="-280.5" font-family="FreeSans" font-size="10.00" fill="#000000">fun4all_macros/blob</text>
<text text-anchor="start" x="415.5" y="-268.5" font-family="FreeSans" font-size="10.00" fill="#000000">/master/macros/g4simulations</text>
<text text-anchor="middle" x="493" y="-256.5" font-family="FreeSans" font-size="10.00" fill="#000000">/G4_FHCAL.C</text>
</a>
</g>
</g>
<!-- Node1&#45;&gt;Node8 -->
<g id="edge9" class="edge">
<title>Node1&#45;&gt;Node8</title>
<path fill="none" stroke="#191970" d="M369.9608,-332.0431C395.812,-319.3227 424.8075,-305.0551 448.1549,-293.5666"/>
<polygon fill="#191970" stroke="#191970" points="368.3898,-328.9153 360.9625,-336.4708 371.4804,-335.1961 368.3898,-328.9153"/>
</g>
<!-- Node11 -->
<g id="node11" class="node">
<title>Node11</title>
<g id="a_node11"><a xlink:href="../../d5/dcb/G4__FEMC_8C.html" target="_top" xlink:title="fun4all_macros/blob\l/master/macros/g4simulations\l/G4_FEMC.C">
<polygon fill="none" stroke="#000000" points="596.5,-249.5 596.5,-293.5 767.5,-293.5 767.5,-249.5 596.5,-249.5"/>
<text text-anchor="start" x="604.5" y="-280.5" font-family="FreeSans" font-size="10.00" fill="#000000">fun4all_macros/blob</text>
<text text-anchor="start" x="604.5" y="-268.5" font-family="FreeSans" font-size="10.00" fill="#000000">/master/macros/g4simulations</text>
<text text-anchor="middle" x="682" y="-256.5" font-family="FreeSans" font-size="10.00" fill="#000000">/G4_FEMC.C</text>
</a>
</g>
</g>
<!-- Node1&#45;&gt;Node11 -->
<g id="edge14" class="edge">
<title>Node1&#45;&gt;Node11</title>
<path fill="none" stroke="#191970" d="M392.9104,-345.8456C448.8479,-333.7122 522.4163,-317.0267 587,-300 594.5759,-298.0027 602.4598,-295.8151 610.3029,-293.5679"/>
<polygon fill="#191970" stroke="#191970" points="392.066,-342.4473 383.0312,-347.981 393.5449,-349.2893 392.066,-342.4473"/>
</g>
<!-- Node4 -->
<g id="node4" class="node">
<title>Node4</title>
<g id="a_node4"><a xlink:href="../../d6/d6e/G4Setup__EICDetector_8C.html" target="_top" xlink:title="fun4all_macros/blob\l/master/macros/g4simulations\l/G4Setup_EICDetector.C">
<polygon fill="none" stroke="#000000" points="256.5,-81.5 256.5,-125.5 427.5,-125.5 427.5,-81.5 256.5,-81.5"/>
<text text-anchor="start" x="264.5" y="-112.5" font-family="FreeSans" font-size="10.00" fill="#000000">fun4all_macros/blob</text>
<text text-anchor="start" x="264.5" y="-100.5" font-family="FreeSans" font-size="10.00" fill="#000000">/master/macros/g4simulations</text>
<text text-anchor="middle" x="342" y="-88.5" font-family="FreeSans" font-size="10.00" fill="#000000">/G4Setup_EICDetector.C</text>
</a>
</g>
</g>
<!-- Node3&#45;&gt;Node4 -->
<g id="edge3" class="edge">
<title>Node3&#45;&gt;Node4</title>
<path fill="none" stroke="#191970" d="M226.9992,-157.9741C249.1118,-147.4997 274.2249,-135.604 295.33,-125.6068"/>
<polygon fill="#191970" stroke="#191970" points="225.2656,-154.9224 217.7265,-162.3664 228.2622,-161.2486 225.2656,-154.9224"/>
</g>
<!-- Node5 -->
<g id="node5" class="node">
<title>Node5</title>
<g id="a_node5"><a xlink:href="../../da/d02/Fun4All__G4__EICDetector_8C.html" target="_top" xlink:title="fun4all_macros/blob\l/master/macros/g4simulations\l/Fun4All_G4_EICDetector.C">
<polygon fill="none" stroke="#000000" points="256.5,-.5 256.5,-44.5 427.5,-44.5 427.5,-.5 256.5,-.5"/>
<text text-anchor="start" x="264.5" y="-31.5" font-family="FreeSans" font-size="10.00" fill="#000000">fun4all_macros/blob</text>
<text text-anchor="start" x="264.5" y="-19.5" font-family="FreeSans" font-size="10.00" fill="#000000">/master/macros/g4simulations</text>
<text text-anchor="middle" x="342" y="-7.5" font-family="FreeSans" font-size="10.00" fill="#000000">/Fun4All_G4_EICDetector.C</text>
</a>
</g>
</g>
<!-- Node4&#45;&gt;Node5 -->
<g id="edge4" class="edge">
<title>Node4&#45;&gt;Node5</title>
<path fill="none" stroke="#191970" d="M342,-71.2457C342,-62.3118 342,-52.8188 342,-44.6068"/>
<polygon fill="#191970" stroke="#191970" points="338.5001,-71.3664 342,-81.3664 345.5001,-71.3664 338.5001,-71.3664"/>
</g>
<!-- Node6&#45;&gt;Node4 -->
<g id="edge6" class="edge">
<title>Node6&#45;&gt;Node4</title>
<path fill="none" stroke="#191970" d="M299.2269,-238.9443C297.1257,-216.7916 296.5746,-187.0625 304,-162 307.8876,-148.8785 315.7471,-135.9427 323.3145,-125.5853"/>
<polygon fill="#191970" stroke="#191970" points="295.7781,-239.6016 300.3548,-249.1569 302.7358,-238.8331 295.7781,-239.6016"/>
</g>
<!-- Node7 -->
<g id="node7" class="node">
<title>Node7</title>
<g id="a_node7"><a xlink:href="../../d9/d63/fun4all__macros_2blob_2master_2macros_2g4simulations_2G4__Tracking__EIC_8C.html" target="_top" xlink:title="fun4all_macros/blob\l/master/macros/g4simulations\l/G4_Tracking_EIC.C">
<polygon fill="none" stroke="#000000" points="313.5,-162.5 313.5,-206.5 484.5,-206.5 484.5,-162.5 313.5,-162.5"/>
<text text-anchor="start" x="321.5" y="-193.5" font-family="FreeSans" font-size="10.00" fill="#000000">fun4all_macros/blob</text>
<text text-anchor="start" x="321.5" y="-181.5" font-family="FreeSans" font-size="10.00" fill="#000000">/master/macros/g4simulations</text>
<text text-anchor="middle" x="399" y="-169.5" font-family="FreeSans" font-size="10.00" fill="#000000">/G4_Tracking_EIC.C</text>
</a>
</g>
</g>
<!-- Node6&#45;&gt;Node7 -->
<g id="edge7" class="edge">
<title>Node6&#45;&gt;Node7</title>
<path fill="none" stroke="#191970" d="M336.1229,-242.0822C348.8238,-230.4508 363.169,-217.3137 374.9469,-206.5276"/>
<polygon fill="#191970" stroke="#191970" points="333.4758,-239.7604 328.4649,-249.0953 338.2035,-244.9228 333.4758,-239.7604"/>
</g>
<!-- Node7&#45;&gt;Node4 -->
<g id="edge8" class="edge">
<title>Node7&#45;&gt;Node4</title>
<path fill="none" stroke="#191970" d="M377.5272,-153.986C370.8909,-144.5554 363.7123,-134.3544 357.5567,-125.6068"/>
<polygon fill="#191970" stroke="#191970" points="374.8072,-156.2026 383.4245,-162.3664 380.5319,-152.1741 374.8072,-156.2026"/>
</g>
<!-- Node8&#45;&gt;Node4 -->
<g id="edge10" class="edge">
<title>Node8&#45;&gt;Node4</title>
<path fill="none" stroke="#191970" d="M501.9935,-239.37C506.5662,-215.9043 508.3479,-184.4055 493,-162 484.0233,-148.8954 453.5505,-135.9616 422.3078,-125.6011"/>
<polygon fill="#191970" stroke="#191970" points="498.5604,-238.6854 499.8266,-249.2043 505.3965,-240.1917 498.5604,-238.6854"/>
</g>
<!-- Node8&#45;&gt;Node7 -->
<g id="edge11" class="edge">
<title>Node8&#45;&gt;Node7</title>
<path fill="none" stroke="#191970" d="M461.2153,-242.0822C448.648,-230.4508 434.4539,-217.3137 422.7999,-206.5276"/>
<polygon fill="#191970" stroke="#191970" points="459.0762,-244.8715 468.7927,-249.0953 463.831,-239.7341 459.0762,-244.8715"/>
</g>
<!-- Node9 -->
<g id="node9" class="node">
<title>Node9</title>
<g id="a_node9"><a xlink:href="../../d6/d41/G4Setup__fsPHENIX_8C.html" target="_top" xlink:title="fun4all_macros/blob\l/master/macros/g4simulations\l/G4Setup_fsPHENIX.C">
<polygon fill="none" stroke="#000000" points="541.5,-162.5 541.5,-206.5 712.5,-206.5 712.5,-162.5 541.5,-162.5"/>
<text text-anchor="start" x="549.5" y="-193.5" font-family="FreeSans" font-size="10.00" fill="#000000">fun4all_macros/blob</text>
<text text-anchor="start" x="549.5" y="-181.5" font-family="FreeSans" font-size="10.00" fill="#000000">/master/macros/g4simulations</text>
<text text-anchor="middle" x="627" y="-169.5" font-family="FreeSans" font-size="10.00" fill="#000000">/G4Setup_fsPHENIX.C</text>
</a>
</g>
</g>
<!-- Node8&#45;&gt;Node9 -->
<g id="edge12" class="edge">
<title>Node8&#45;&gt;Node9</title>
<path fill="none" stroke="#191970" d="M535.6981,-243.7781C554.1762,-231.7811 575.5069,-217.9321 592.9018,-206.6384"/>
<polygon fill="#191970" stroke="#191970" points="533.6419,-240.94 527.1606,-249.3211 537.4538,-246.8112 533.6419,-240.94"/>
</g>
<!-- Node10 -->
<g id="node10" class="node">
<title>Node10</title>
<g id="a_node10"><a xlink:href="../../d7/d9e/Fun4All__G4__fsPHENIX_8C.html" target="_top" xlink:title="fun4all_macros/blob\l/master/macros/g4simulations\l/Fun4All_G4_fsPHENIX.C">
<polygon fill="none" stroke="#000000" points="493.5,-81.5 493.5,-125.5 664.5,-125.5 664.5,-81.5 493.5,-81.5"/>
<text text-anchor="start" x="501.5" y="-112.5" font-family="FreeSans" font-size="10.00" fill="#000000">fun4all_macros/blob</text>
<text text-anchor="start" x="501.5" y="-100.5" font-family="FreeSans" font-size="10.00" fill="#000000">/master/macros/g4simulations</text>
<text text-anchor="middle" x="579" y="-88.5" font-family="FreeSans" font-size="10.00" fill="#000000">/Fun4All_G4_fsPHENIX.C</text>
</a>
</g>
</g>
<!-- Node9&#45;&gt;Node10 -->
<g id="edge13" class="edge">
<title>Node9&#45;&gt;Node10</title>
<path fill="none" stroke="#191970" d="M608.7464,-153.6971C603.2059,-144.3474 597.2312,-134.2651 592.1004,-125.6068"/>
<polygon fill="#191970" stroke="#191970" points="605.7747,-155.5478 613.8838,-162.3664 611.7967,-151.9791 605.7747,-155.5478"/>
</g>
<!-- Node11&#45;&gt;Node9 -->
<g id="edge15" class="edge">
<title>Node11&#45;&gt;Node9</title>
<path fill="none" stroke="#191970" d="M662.3559,-240.4266C655.2692,-229.2167 647.4226,-216.8049 640.9255,-206.5276"/>
<polygon fill="#191970" stroke="#191970" points="659.5341,-242.513 667.8361,-249.0953 665.4509,-238.7725 659.5341,-242.513"/>
</g>
<!-- Node12 -->
<g id="node12" class="node">
<title>Node12</title>
<g id="a_node12"><a xlink:href="../../d0/daa/G4Setup__sPHENIX_8C.html" target="_top" xlink:title="fun4all_macros/blob\l/master/macros/g4simulations\l/G4Setup_sPHENIX.C">
<polygon fill="none" stroke="#000000" points="871.5,-162.5 871.5,-206.5 1042.5,-206.5 1042.5,-162.5 871.5,-162.5"/>
<text text-anchor="start" x="879.5" y="-193.5" font-family="FreeSans" font-size="10.00" fill="#000000">fun4all_macros/blob</text>
<text text-anchor="start" x="879.5" y="-181.5" font-family="FreeSans" font-size="10.00" fill="#000000">/master/macros/g4simulations</text>
<text text-anchor="middle" x="957" y="-169.5" font-family="FreeSans" font-size="10.00" fill="#000000">/G4Setup_sPHENIX.C</text>
</a>
</g>
</g>
<!-- Node11&#45;&gt;Node12 -->
<g id="edge16" class="edge">
<title>Node11&#45;&gt;Node12</title>
<path fill="none" stroke="#191970" d="M761.4218,-246.3738C801.2191,-233.7834 848.969,-218.6771 887.3247,-206.5427"/>
<polygon fill="#191970" stroke="#191970" points="760.2281,-243.0804 751.7496,-249.4338 762.3396,-249.7544 760.2281,-243.0804"/>
</g>
<!-- Node13 -->
<g id="node13" class="node">
<title>Node13</title>
<g id="a_node13"><a xlink:href="../../d0/d13/Fun4All__G4__sPHENIX_8C.html" target="_top" xlink:title="fun4all_macros/blob\l/master/macros/g4simulations\l/Fun4All_G4_sPHENIX.C">
<polygon fill="none" stroke="#000000" points="682.5,-81.5 682.5,-125.5 853.5,-125.5 853.5,-81.5 682.5,-81.5"/>
<text text-anchor="start" x="690.5" y="-112.5" font-family="FreeSans" font-size="10.00" fill="#000000">fun4all_macros/blob</text>
<text text-anchor="start" x="690.5" y="-100.5" font-family="FreeSans" font-size="10.00" fill="#000000">/master/macros/g4simulations</text>
<text text-anchor="middle" x="768" y="-88.5" font-family="FreeSans" font-size="10.00" fill="#000000">/Fun4All_G4_sPHENIX.C</text>
</a>
</g>
</g>
<!-- Node12&#45;&gt;Node13 -->
<g id="edge17" class="edge">
<title>Node12&#45;&gt;Node13</title>
<path fill="none" stroke="#191970" d="M896.0863,-158.3941C871.4102,-147.8187 843.2218,-135.7379 819.5826,-125.6068"/>
<polygon fill="#191970" stroke="#191970" points="894.7847,-161.6442 905.3549,-162.3664 897.5422,-155.2101 894.7847,-161.6442"/>
</g>
<!-- Node14 -->
<g id="node14" class="node">
<title>Node14</title>
<g id="a_node14"><a xlink:href="../../de/da9/ReadClustersRunTracking_8C.html" target="_top" xlink:title="fun4all_macros/blob\l/master/macros/g4simulations\l/ReadClustersRunTracking.C">
<polygon fill="none" stroke="#000000" points="871.5,-81.5 871.5,-125.5 1042.5,-125.5 1042.5,-81.5 871.5,-81.5"/>
<text text-anchor="start" x="879.5" y="-112.5" font-family="FreeSans" font-size="10.00" fill="#000000">fun4all_macros/blob</text>
<text text-anchor="start" x="879.5" y="-100.5" font-family="FreeSans" font-size="10.00" fill="#000000">/master/macros/g4simulations</text>
<text text-anchor="middle" x="957" y="-88.5" font-family="FreeSans" font-size="10.00" fill="#000000">/ReadClustersRunTracking.C</text>
</a>
</g>
</g>
<!-- Node12&#45;&gt;Node14 -->
<g id="edge18" class="edge">
<title>Node12&#45;&gt;Node14</title>
<path fill="none" stroke="#191970" d="M957,-152.2457C957,-143.3118 957,-133.8188 957,-125.6068"/>
<polygon fill="#191970" stroke="#191970" points="953.5001,-152.3664 957,-162.3664 960.5001,-152.3664 953.5001,-152.3664"/>
</g>
<!-- Node15 -->
<g id="node15" class="node">
<title>Node15</title>
<g id="a_node15"><a xlink:href="../../db/dc0/Fun4All__AnaTutorial_8C.html" target="_top" xlink:title="fun4all_tutorials/blob\l/master/AnaTutorial/macro\l/Fun4All_AnaTutorial.C">
<polygon fill="none" stroke="#000000" points="1060.5,-81.5 1060.5,-125.5 1211.5,-125.5 1211.5,-81.5 1060.5,-81.5"/>
<text text-anchor="start" x="1068.5" y="-112.5" font-family="FreeSans" font-size="10.00" fill="#000000">fun4all_tutorials/blob</text>
<text text-anchor="start" x="1068.5" y="-100.5" font-family="FreeSans" font-size="10.00" fill="#000000">/master/AnaTutorial/macro</text>
<text text-anchor="middle" x="1136" y="-88.5" font-family="FreeSans" font-size="10.00" fill="#000000">/Fun4All_AnaTutorial.C</text>
</a>
</g>
</g>
<!-- Node12&#45;&gt;Node15 -->
<g id="edge19" class="edge">
<title>Node12&#45;&gt;Node15</title>
<path fill="none" stroke="#191970" d="M1015.3092,-158.1143C1038.5313,-147.6059 1064.9555,-135.6486 1087.1466,-125.6068"/>
<polygon fill="#191970" stroke="#191970" points="1013.5802,-155.0549 1005.9125,-162.3664 1016.4661,-161.4324 1013.5802,-155.0549"/>
</g>
<!-- Node16 -->
<g id="node16" class="node">
<title>Node16</title>
<g id="a_node16"><a xlink:href="../../dd/d28/Fun4All__AnaTutorial__Jets_8C.html" target="_top" xlink:title="fun4all_tutorials/blob\l/master/AnaTutorial/macro\l/Fun4All_AnaTutorial_Jets.C">
<polygon fill="none" stroke="#000000" points="1229.5,-81.5 1229.5,-125.5 1382.5,-125.5 1382.5,-81.5 1229.5,-81.5"/>
<text text-anchor="start" x="1237.5" y="-112.5" font-family="FreeSans" font-size="10.00" fill="#000000">fun4all_tutorials/blob</text>
<text text-anchor="start" x="1237.5" y="-100.5" font-family="FreeSans" font-size="10.00" fill="#000000">/master/AnaTutorial/macro</text>
<text text-anchor="middle" x="1306" y="-88.5" font-family="FreeSans" font-size="10.00" fill="#000000">/Fun4All_AnaTutorial_Jets.C</text>
</a>
</g>
</g>
<!-- Node12&#45;&gt;Node16 -->
<g id="edge20" class="edge">
<title>Node12&#45;&gt;Node16</title>
<path fill="none" stroke="#191970" d="M1052.3948,-164.3419C1102.6686,-153.471 1165.2972,-139.5381 1221,-126 1223.67,-125.3511 1226.3848,-124.6822 1229.1248,-123.9993"/>
<polygon fill="#191970" stroke="#191970" points="1051.5475,-160.9441 1042.5105,-166.4742 1053.0237,-167.7867 1051.5475,-160.9441"/>
</g>
</g>
</svg>
