<?xml version="1.0" encoding="UTF-8" standalone="no"?>
<!DOCTYPE svg PUBLIC "-//W3C//DTD SVG 1.1//EN"
 "http://www.w3.org/Graphics/SVG/1.1/DTD/svg11.dtd">
<!-- Generated by graphviz version 2.40.1 (20161225.0304)
 -->
<!-- Title: fileEventiterator::read_next_buffer Pages: 1 -->
<svg width="1100pt" height="880pt"
 viewBox="0.00 0.00 1100.00 880.00" xmlns="http://www.w3.org/2000/svg" xmlns:xlink="http://www.w3.org/1999/xlink">
<g id="graph0" class="graph" transform="scale(1 1) rotate(0) translate(4 876)">
<title>fileEventiterator::read_next_buffer</title>
<!-- Node1 -->
<g id="node1" class="node">
<title>Node1</title>
<polygon fill="#bfbfbf" stroke="#000000" points="0,-212.5 0,-244.5 104,-244.5 104,-212.5 0,-212.5"/>
<text text-anchor="start" x="8" y="-231.5" font-family="FreeSans" font-size="10.00" fill="#000000">fileEventiterator::</text>
<text text-anchor="middle" x="52" y="-219.5" font-family="FreeSans" font-size="10.00" fill="#000000">read_next_buffer</text>
</g>
<!-- Node2 -->
<g id="node2" class="node">
<title>Node2</title>
<g id="a_node2"><a xlink:href="../../d0/d95/ip_8C.html#a292ff32a75b66b513d1f0ce00f9a4dc4" target="_top" xlink:title="ip">
<polygon fill="none" stroke="#000000" points="181.5,-484.5 181.5,-504.5 210.5,-504.5 210.5,-484.5 181.5,-484.5"/>
<text text-anchor="middle" x="196" y="-491.5" font-family="FreeSans" font-size="10.00" fill="#000000">ip</text>
</a>
</g>
</g>
<!-- Node1&#45;&gt;Node2 -->
<g id="edge1" class="edge">
<title>Node1&#45;&gt;Node2</title>
<path fill="none" stroke="#191970" d="M60.7911,-244.7391C86.037,-291.374 158.6738,-425.5502 185.7041,-475.4811"/>
<polygon fill="#191970" stroke="#191970" points="182.6358,-477.1653 190.4745,-484.2931 188.7917,-473.8328 182.6358,-477.1653"/>
</g>
<!-- Node34 -->
<g id="node34" class="node">
<title>Node34</title>
<g id="a_node34"><a xlink:href="../../da/d40/classbuffer.html#acfbe49cbf8808faa93a94ff4dd34bf33" target="_top" xlink:title="buffer::makeBuffer">
<polygon fill="none" stroke="#000000" points="140,-199.5 140,-219.5 252,-219.5 252,-199.5 140,-199.5"/>
<text text-anchor="middle" x="196" y="-206.5" font-family="FreeSans" font-size="10.00" fill="#000000">buffer::makeBuffer</text>
</a>
</g>
</g>
<!-- Node1&#45;&gt;Node34 -->
<g id="edge42" class="edge">
<title>Node1&#45;&gt;Node34</title>
<path fill="none" stroke="#191970" d="M104.3947,-221.5868C112.5129,-220.5157 120.9912,-219.397 129.3718,-218.2912"/>
<polygon fill="#191970" stroke="#191970" points="130.059,-221.731 139.5152,-216.9529 129.1433,-214.7911 130.059,-221.731"/>
</g>
<!-- Node35 -->
<g id="node35" class="node">
<title>Node35</title>
<g id="a_node35"><a xlink:href="../../da/d40/classbuffer.html#a64cad9a58ad2640b9dc371ff4e181c78" target="_top" xlink:title="buffer::u4swap">
<polygon fill="none" stroke="#000000" points="329.5,-219.5 329.5,-239.5 421.5,-239.5 421.5,-219.5 329.5,-219.5"/>
<text text-anchor="middle" x="375.5" y="-226.5" font-family="FreeSans" font-size="10.00" fill="#000000">buffer::u4swap</text>
</a>
</g>
</g>
<!-- Node1&#45;&gt;Node35 -->
<g id="edge52" class="edge">
<title>Node1&#45;&gt;Node35</title>
<path fill="none" stroke="#191970" d="M104.1156,-229.1901C115.9152,-229.3191 128.3883,-229.434 140,-229.5 201.3247,-229.8484 271.6335,-229.7886 319.3461,-229.6792"/>
<polygon fill="#191970" stroke="#191970" points="319.48,-233.179 329.4714,-229.6545 319.4629,-226.179 319.48,-233.179"/>
</g>
<!-- Node36 -->
<g id="node36" class="node">
<title>Node36</title>
<g id="a_node36"><a xlink:href="../../d3/ded/read_8cxx.html#adc13fae4527b0f50f12b1b164ac15ec2" target="_top" xlink:title="read">
<polygon fill="none" stroke="#000000" points="177,-110.5 177,-130.5 215,-130.5 215,-110.5 177,-110.5"/>
<text text-anchor="middle" x="196" y="-117.5" font-family="FreeSans" font-size="10.00" fill="#000000">read</text>
</a>
</g>
</g>
<!-- Node1&#45;&gt;Node36 -->
<g id="edge44" class="edge">
<title>Node1&#45;&gt;Node36</title>
<path fill="none" stroke="#191970" d="M73.5583,-212.3313C100.7444,-191.9417 147.2121,-157.0909 174.4122,-136.6908"/>
<polygon fill="#191970" stroke="#191970" points="176.6175,-139.4119 182.5175,-130.6118 172.4175,-133.8119 176.6175,-139.4119"/>
</g>
<!-- Node3 -->
<g id="node3" class="node">
<title>Node3</title>
<g id="a_node3"><a xlink:href="../../da/d86/classEicGeoMap.html#a4138a501100028aef473a4b9508d36d3" target="_top" xlink:title="EicGeoMap::AddGeantVolume\lLevel">
<polygon fill="none" stroke="#000000" points="737,-839.5 737,-871.5 905,-871.5 905,-839.5 737,-839.5"/>
<text text-anchor="start" x="745" y="-858.5" font-family="FreeSans" font-size="10.00" fill="#000000">EicGeoMap::AddGeantVolume</text>
<text text-anchor="middle" x="821" y="-846.5" font-family="FreeSans" font-size="10.00" fill="#000000">Level</text>
</a>
</g>
</g>
<!-- Node2&#45;&gt;Node3 -->
<g id="edge2" class="edge">
<title>Node2&#45;&gt;Node3</title>
<path fill="none" stroke="#191970" d="M198.1497,-504.7353C207.6272,-548.891 247.0293,-722.4223 288,-757.5 411.0926,-862.8876 609.8074,-870.8284 726.6762,-864.7406"/>
<polygon fill="#191970" stroke="#191970" points="726.8961,-868.2339 736.6824,-864.1746 726.5007,-861.245 726.8961,-868.2339"/>
</g>
<!-- Node5 -->
<g id="node5" class="node">
<title>Node5</title>
<g id="a_node5"><a xlink:href="../../df/de0/classEicGeoParData.html#a131e36442e699277af7e0e05dd70d7c7" target="_top" xlink:title="EicGeoParData::AddLogical\lVolumeGroup">
<polygon fill="none" stroke="#000000" points="744.5,-711.5 744.5,-743.5 897.5,-743.5 897.5,-711.5 744.5,-711.5"/>
<text text-anchor="start" x="752.5" y="-730.5" font-family="FreeSans" font-size="10.00" fill="#000000">EicGeoParData::AddLogical</text>
<text text-anchor="middle" x="821" y="-718.5" font-family="FreeSans" font-size="10.00" fill="#000000">VolumeGroup</text>
</a>
</g>
</g>
<!-- Node2&#45;&gt;Node5 -->
<g id="edge4" class="edge">
<title>Node2&#45;&gt;Node5</title>
<path fill="none" stroke="#191970" d="M196.5981,-504.722C199.3291,-540.9343 213.934,-663.6577 288,-714.5 431.3797,-812.9225 651.3972,-773.8781 758.3293,-746.1326"/>
<polygon fill="#191970" stroke="#191970" points="759.2357,-749.5133 768.0076,-743.5716 757.445,-742.7462 759.2357,-749.5133"/>
</g>
<!-- Node8 -->
<g id="node8" class="node">
<title>Node8</title>
<g id="a_node8"><a xlink:href="../../dd/d0b/classEicNamePatternHub.html#abe35bc0e1b9b51fa1f2c0c45bcf78dec" target="_top" xlink:title="EicNamePatternHub::\lAddPatternMatch">
<polygon fill="none" stroke="#000000" points="314,-621.5 314,-653.5 437,-653.5 437,-621.5 314,-621.5"/>
<text text-anchor="start" x="322" y="-640.5" font-family="FreeSans" font-size="10.00" fill="#000000">EicNamePatternHub::</text>
<text text-anchor="middle" x="375.5" y="-628.5" font-family="FreeSans" font-size="10.00" fill="#000000">AddPatternMatch</text>
</a>
</g>
</g>
<!-- Node2&#45;&gt;Node8 -->
<g id="edge8" class="edge">
<title>Node2&#45;&gt;Node8</title>
<path fill="none" stroke="#191970" d="M201.098,-504.7984C213.0043,-527.7677 244.9294,-583.4467 288,-612.5 293.1572,-615.9788 298.7979,-618.9788 304.6514,-621.5652"/>
<polygon fill="#191970" stroke="#191970" points="303.4014,-624.8347 313.9861,-625.2982 306.0007,-618.3352 303.4014,-624.8347"/>
</g>
<!-- Node9 -->
<g id="node9" class="node">
<title>Node9</title>
<g id="a_node9"><a xlink:href="../../df/de0/classEicGeoParData.html#a0a19d07a4f67c4a5cb0884a9992f44d7" target="_top" xlink:title="EicGeoParData::CreateNewMap">
<polygon fill="none" stroke="#000000" points="288,-582.5 288,-602.5 463,-602.5 463,-582.5 288,-582.5"/>
<text text-anchor="middle" x="375.5" y="-589.5" font-family="FreeSans" font-size="10.00" fill="#000000">EicGeoParData::CreateNewMap</text>
</a>
</g>
</g>
<!-- Node2&#45;&gt;Node9 -->
<g id="edge9" class="edge">
<title>Node2&#45;&gt;Node9</title>
<path fill="none" stroke="#191970" d="M204.5245,-504.5289C219.5586,-521.5286 252.5643,-555.8696 288,-573.5 292.297,-575.6379 296.8303,-577.5365 301.4804,-579.2224"/>
<polygon fill="#191970" stroke="#191970" points="300.5582,-582.6033 311.151,-582.3928 302.7389,-575.9517 300.5582,-582.6033"/>
</g>
<!-- Node10 -->
<g id="node10" class="node">
<title>Node10</title>
<g id="a_node10"><a xlink:href="../../df/de8/cemc_8C.html#adf5c804dfce7a70e36dda02995fad481" target="_top" xlink:title="exit">
<polygon fill="none" stroke="#000000" points="358,-543.5 358,-563.5 393,-563.5 393,-543.5 358,-543.5"/>
<text text-anchor="middle" x="375.5" y="-550.5" font-family="FreeSans" font-size="10.00" fill="#000000">exit</text>
</a>
</g>
</g>
<!-- Node2&#45;&gt;Node10 -->
<g id="edge10" class="edge">
<title>Node2&#45;&gt;Node10</title>
<path fill="none" stroke="#191970" d="M210.5393,-500.2617C228.5734,-507.318 260.3251,-519.447 288,-528.5 307.896,-535.0084 330.6367,-541.4768 347.9474,-546.203"/>
<polygon fill="#191970" stroke="#191970" points="347.3834,-549.6761 357.9502,-548.9054 349.2092,-542.9183 347.3834,-549.6761"/>
</g>
<!-- Node11 -->
<g id="node11" class="node">
<title>Node11</title>
<g id="a_node11"><a xlink:href="../../df/de0/classEicGeoParData.html#a5464c1947d87d36569891ada6aafb22c" target="_top" xlink:title="EicGeoParData::FinalizeOutput">
<polygon fill="none" stroke="#000000" points="290,-465.5 290,-485.5 461,-485.5 461,-465.5 290,-465.5"/>
<text text-anchor="middle" x="375.5" y="-472.5" font-family="FreeSans" font-size="10.00" fill="#000000">EicGeoParData::FinalizeOutput</text>
</a>
</g>
</g>
<!-- Node2&#45;&gt;Node11 -->
<g id="edge11" class="edge">
<title>Node2&#45;&gt;Node11</title>
<path fill="none" stroke="#191970" d="M210.6892,-492.9452C226.424,-491.2796 252.8107,-488.4866 279.9105,-485.6181"/>
<polygon fill="#191970" stroke="#191970" points="280.3325,-489.0931 289.9085,-484.5598 279.5956,-482.132 280.3325,-489.0931"/>
</g>
<!-- Node13 -->
<g id="node13" class="node">
<title>Node13</title>
<g id="a_node13"><a xlink:href="../../df/de0/classEicGeoParData.html#a98e43e3d66fdb531cabaccd39f09ebc3" target="_top" xlink:title="EicGeoParData::GetColorTable">
<polygon fill="none" stroke="#000000" points="506.5,-561.5 506.5,-581.5 675.5,-581.5 675.5,-561.5 506.5,-561.5"/>
<text text-anchor="middle" x="591" y="-568.5" font-family="FreeSans" font-size="10.00" fill="#000000">EicGeoParData::GetColorTable</text>
</a>
</g>
</g>
<!-- Node2&#45;&gt;Node13 -->
<g id="edge22" class="edge">
<title>Node2&#45;&gt;Node13</title>
<path fill="none" stroke="#191970" d="M210.5413,-495.0779C251.3106,-497.0355 369.818,-505.0435 463,-534.5 480.0566,-539.8919 482.098,-546.6416 499,-552.5 506.0717,-554.9511 513.5644,-557.134 521.0999,-559.0661"/>
<polygon fill="#191970" stroke="#191970" points="520.4561,-562.5113 530.999,-561.463 522.1035,-555.7079 520.4561,-562.5113"/>
</g>
<!-- Node20 -->
<g id="node20" class="node">
<title>Node20</title>
<g id="a_node20"><a xlink:href="../../df/de0/classEicGeoParData.html#a75991633a97d0a9b3140ba103f225691" target="_top" xlink:title="EicGeoParData::GetTransparency\lTable">
<polygon fill="none" stroke="#000000" points="499,-369.5 499,-401.5 683,-401.5 683,-369.5 499,-369.5"/>
<text text-anchor="start" x="507" y="-388.5" font-family="FreeSans" font-size="10.00" fill="#000000">EicGeoParData::GetTransparency</text>
<text text-anchor="middle" x="591" y="-376.5" font-family="FreeSans" font-size="10.00" fill="#000000">Table</text>
</a>
</g>
</g>
<!-- Node2&#45;&gt;Node20 -->
<g id="edge27" class="edge">
<title>Node2&#45;&gt;Node20</title>
<path fill="none" stroke="#191970" d="M210.6862,-487.5073C228.6056,-479.1936 259.9824,-465.3356 288,-456.5 363.9964,-432.5339 385.4514,-435.8315 463,-417.5 480.9623,-413.2539 500.2984,-408.5105 518.3638,-404.0035"/>
<polygon fill="#191970" stroke="#191970" points="519.4016,-407.3518 528.2526,-401.5286 517.702,-400.5612 519.4016,-407.3518"/>
</g>
<!-- Node22 -->
<g id="node22" class="node">
<title>Node22</title>
<g id="a_node22"><a xlink:href="../../df/de0/classEicGeoParData.html#af50661ee10308b08071f9feb1b57493b" target="_top" xlink:title="EicGeoParData::GetMedium">
<polygon fill="none" stroke="#000000" points="297.5,-387.5 297.5,-407.5 453.5,-407.5 453.5,-387.5 297.5,-387.5"/>
<text text-anchor="middle" x="375.5" y="-394.5" font-family="FreeSans" font-size="10.00" fill="#000000">EicGeoParData::GetMedium</text>
</a>
</g>
</g>
<!-- Node2&#45;&gt;Node22 -->
<g id="edge23" class="edge">
<title>Node2&#45;&gt;Node22</title>
<path fill="none" stroke="#191970" d="M206.1086,-484.3851C222.1266,-468.9009 254.9281,-439.3482 288,-422.5 297.3878,-417.7174 307.8223,-413.7301 318.1211,-410.4482"/>
<polygon fill="#191970" stroke="#191970" points="319.3397,-413.7369 327.915,-407.5149 317.3313,-407.0312 319.3397,-413.7369"/>
</g>
<!-- Node25 -->
<g id="node25" class="node">
<title>Node25</title>
<g id="a_node25"><a xlink:href="../../df/de0/classEicGeoParData.html#a37c307a8b444e89fd125f6d273a1c894" target="_top" xlink:title="EicGeoParData::GetTopVolume">
<polygon fill="none" stroke="#000000" points="290,-348.5 290,-368.5 461,-368.5 461,-348.5 290,-348.5"/>
<text text-anchor="middle" x="375.5" y="-355.5" font-family="FreeSans" font-size="10.00" fill="#000000">EicGeoParData::GetTopVolume</text>
</a>
</g>
</g>
<!-- Node2&#45;&gt;Node25 -->
<g id="edge26" class="edge">
<title>Node2&#45;&gt;Node25</title>
<path fill="none" stroke="#191970" d="M201.0382,-484.2118C212.822,-461.2951 244.5128,-405.9155 288,-378.5 291.6333,-376.2095 295.4985,-374.1804 299.5035,-372.3829"/>
<polygon fill="#191970" stroke="#191970" points="301.0527,-375.5338 309.0593,-368.5952 298.4732,-369.0264 301.0527,-375.5338"/>
</g>
<!-- Node26 -->
<g id="node26" class="node">
<title>Node26</title>
<g id="a_node26"><a xlink:href="../../df/de0/classEicGeoParData.html#a304fa90a3bc1944d2c997257ed56b6a7" target="_top" xlink:title="EicGeoParData::SetFileName">
<polygon fill="none" stroke="#000000" points="295,-309.5 295,-329.5 456,-329.5 456,-309.5 295,-309.5"/>
<text text-anchor="middle" x="375.5" y="-316.5" font-family="FreeSans" font-size="10.00" fill="#000000">EicGeoParData::SetFileName</text>
</a>
</g>
</g>
<!-- Node2&#45;&gt;Node26 -->
<g id="edge28" class="edge">
<title>Node2&#45;&gt;Node26</title>
<path fill="none" stroke="#191970" d="M198.9429,-484.2398C207.5418,-456.2028 235.4032,-377.8429 288,-339.5 290.8568,-337.4174 293.8945,-335.5468 297.0585,-333.8671"/>
<polygon fill="#191970" stroke="#191970" points="298.65,-336.9875 306.2648,-329.6209 295.7182,-330.631 298.65,-336.9875"/>
</g>
<!-- Node27 -->
<g id="node27" class="node">
<title>Node27</title>
<g id="a_node27"><a xlink:href="../../df/de0/classEicGeoParData.html#a85796e06ee06c2b0973409350d2c054d" target="_top" xlink:title="EicGeoParData::SetMapping\lTableEntry">
<polygon fill="none" stroke="#000000" points="296.5,-672.5 296.5,-704.5 454.5,-704.5 454.5,-672.5 296.5,-672.5"/>
<text text-anchor="start" x="304.5" y="-691.5" font-family="FreeSans" font-size="10.00" fill="#000000">EicGeoParData::SetMapping</text>
<text text-anchor="middle" x="375.5" y="-679.5" font-family="FreeSans" font-size="10.00" fill="#000000">TableEntry</text>
</a>
</g>
</g>
<!-- Node2&#45;&gt;Node27 -->
<g id="edge29" class="edge">
<title>Node2&#45;&gt;Node27</title>
<path fill="none" stroke="#191970" d="M198.54,-504.661C206.4141,-534.0177 233.244,-619.6459 288,-663.5 289.5723,-664.7592 291.2049,-665.955 292.8881,-667.0906"/>
<polygon fill="#191970" stroke="#191970" points="291.2886,-670.2107 301.6792,-672.2814 294.8478,-664.1831 291.2886,-670.2107"/>
</g>
<!-- Node33 -->
<g id="node33" class="node">
<title>Node33</title>
<g id="a_node33"><a xlink:href="../../da/d86/classEicGeoMap.html#a77e724ceee76044c2346a4b35be1f90e" target="_top" xlink:title="EicGeoMap::SetSingleSensor\lContainerVolume">
<polygon fill="none" stroke="#000000" points="294,-258.5 294,-290.5 457,-290.5 457,-258.5 294,-258.5"/>
<text text-anchor="start" x="302" y="-277.5" font-family="FreeSans" font-size="10.00" fill="#000000">EicGeoMap::SetSingleSensor</text>
<text text-anchor="middle" x="375.5" y="-265.5" font-family="FreeSans" font-size="10.00" fill="#000000">ContainerVolume</text>
</a>
</g>
</g>
<!-- Node2&#45;&gt;Node33 -->
<g id="edge41" class="edge">
<title>Node2&#45;&gt;Node33</title>
<path fill="none" stroke="#191970" d="M197.8116,-484.2908C204.0554,-452.1554 227.7055,-352.158 288,-300.5 289.9481,-298.831 291.9997,-297.269 294.1339,-295.8073"/>
<polygon fill="#191970" stroke="#191970" points="295.9548,-298.7965 302.7311,-290.6519 292.3548,-292.7931 295.9548,-298.7965"/>
</g>
<!-- Node4 -->
<g id="node4" class="node">
<title>Node4</title>
<g id="a_node4"><a xlink:href="../../da/d23/msg__buffer_8cc.html#a98631211a4a8aee62f572375d5b637be" target="_top" xlink:title="printf">
<polygon fill="none" stroke="#000000" points="1003.5,-762.5 1003.5,-782.5 1047.5,-782.5 1047.5,-762.5 1003.5,-762.5"/>
<text text-anchor="middle" x="1025.5" y="-769.5" font-family="FreeSans" font-size="10.00" fill="#000000">printf</text>
</a>
</g>
</g>
<!-- Node3&#45;&gt;Node4 -->
<g id="edge3" class="edge">
<title>Node3&#45;&gt;Node4</title>
<path fill="none" stroke="#191970" d="M880.131,-839.4391C894.3385,-835.058 909.3481,-829.9887 923,-824.5 949.5313,-813.8333 978.4782,-798.814 998.8225,-787.6577"/>
<polygon fill="#191970" stroke="#191970" points="1000.7495,-790.5913 1007.7972,-782.6805 997.3546,-784.4697 1000.7495,-790.5913"/>
</g>
<!-- Node5&#45;&gt;Node4 -->
<g id="edge6" class="edge">
<title>Node5&#45;&gt;Node4</title>
<path fill="none" stroke="#191970" d="M893.9631,-743.5555C927.9878,-751.0425 966.7376,-759.5694 993.3175,-765.4183"/>
<polygon fill="#191970" stroke="#191970" points="992.701,-768.8663 1003.2195,-767.5972 994.2054,-762.0298 992.701,-768.8663"/>
</g>
<!-- Node6 -->
<g id="node6" class="node">
<title>Node6</title>
<g id="a_node6"><a xlink:href="../../dd/d20/classEicBitMask.html#a577897e58c312fcaa8722bea72257e26" target="_top" xlink:title="EicBitMask::GetBitNum">
<polygon fill="none" stroke="#000000" points="959,-714.5 959,-734.5 1092,-734.5 1092,-714.5 959,-714.5"/>
<text text-anchor="middle" x="1025.5" y="-721.5" font-family="FreeSans" font-size="10.00" fill="#000000">EicBitMask::GetBitNum</text>
</a>
</g>
</g>
<!-- Node5&#45;&gt;Node6 -->
<g id="edge5" class="edge">
<title>Node5&#45;&gt;Node6</title>
<path fill="none" stroke="#191970" d="M897.7301,-726.3744C914.3426,-726.1307 931.9152,-725.8729 948.5366,-725.629"/>
<polygon fill="#191970" stroke="#191970" points="948.7982,-729.1257 958.7458,-725.4793 948.6955,-722.1264 948.7982,-729.1257"/>
</g>
<!-- Node7 -->
<g id="node7" class="node">
<title>Node7</title>
<g id="a_node7"><a xlink:href="../../dd/d20/classEicBitMask.html#a23ae6782cbc30f5fe572692893d5e3bf" target="_top" xlink:title="EicBitMask::SetShift">
<polygon fill="none" stroke="#000000" points="967,-674.5 967,-694.5 1084,-694.5 1084,-674.5 967,-674.5"/>
<text text-anchor="middle" x="1025.5" y="-681.5" font-family="FreeSans" font-size="10.00" fill="#000000">EicBitMask::SetShift</text>
</a>
</g>
</g>
<!-- Node5&#45;&gt;Node7 -->
<g id="edge7" class="edge">
<title>Node5&#45;&gt;Node7</title>
<path fill="none" stroke="#191970" d="M897.1483,-711.4884C920.5858,-706.5602 945.9842,-701.2197 967.9541,-696.6001"/>
<polygon fill="#191970" stroke="#191970" points="968.722,-700.0153 977.7877,-694.5324 967.2815,-693.1651 968.722,-700.0153"/>
</g>
<!-- Node12 -->
<g id="node12" class="node">
<title>Node12</title>
<g id="a_node12"><a xlink:href="../../dd/d0b/classEicNamePatternHub.html#a8baac9dd7e44ee789555cb040763f903" target="_top" xlink:title="EicNamePatternHub::\lAnyMatch">
<polygon fill="none" stroke="#000000" points="529.5,-510.5 529.5,-542.5 652.5,-542.5 652.5,-510.5 529.5,-510.5"/>
<text text-anchor="start" x="537.5" y="-529.5" font-family="FreeSans" font-size="10.00" fill="#000000">EicNamePatternHub::</text>
<text text-anchor="middle" x="591" y="-517.5" font-family="FreeSans" font-size="10.00" fill="#000000">AnyMatch</text>
</a>
</g>
</g>
<!-- Node11&#45;&gt;Node12 -->
<g id="edge12" class="edge">
<title>Node11&#45;&gt;Node12</title>
<path fill="none" stroke="#191970" d="M417.8187,-485.5151C446.7138,-492.3534 485.7124,-501.5827 519.3857,-509.5518"/>
<polygon fill="#191970" stroke="#191970" points="518.6499,-512.9743 529.1872,-511.8714 520.262,-506.1625 518.6499,-512.9743"/>
</g>
<!-- Node11&#45;&gt;Node13 -->
<g id="edge13" class="edge">
<title>Node11&#45;&gt;Node13</title>
<path fill="none" stroke="#191970" d="M432.257,-485.5612C443.0914,-489.1337 453.8822,-493.9662 463,-500.5 485.8484,-516.873 475.5566,-536.9909 499,-552.5 501.6354,-554.2435 504.3989,-555.8319 507.256,-557.2787"/>
<polygon fill="#191970" stroke="#191970" points="506.0953,-560.5923 516.6567,-561.4341 508.9254,-554.1899 506.0953,-560.5923"/>
</g>
<!-- Node14 -->
<g id="node14" class="node">
<title>Node14</title>
<g id="a_node14"><a xlink:href="../../df/de0/classEicGeoParData.html#a24162311dd8c038e330afbee7a132352" target="_top" xlink:title="EicGeoParData::GetGeometry\lFileName">
<polygon fill="none" stroke="#000000" points="508,-459.5 508,-491.5 674,-491.5 674,-459.5 508,-459.5"/>
<text text-anchor="start" x="516" y="-478.5" font-family="FreeSans" font-size="10.00" fill="#000000">EicGeoParData::GetGeometry</text>
<text text-anchor="middle" x="591" y="-466.5" font-family="FreeSans" font-size="10.00" fill="#000000">FileName</text>
</a>
</g>
</g>
<!-- Node11&#45;&gt;Node14 -->
<g id="edge14" class="edge">
<title>Node11&#45;&gt;Node14</title>
<path fill="none" stroke="#191970" d="M461.2905,-475.5C473.3031,-475.5 485.696,-475.5 497.8371,-475.5"/>
<polygon fill="#191970" stroke="#191970" points="497.9627,-479.0001 507.9626,-475.5 497.9626,-472.0001 497.9627,-479.0001"/>
</g>
<!-- Node11&#45;&gt;Node20 -->
<g id="edge20" class="edge">
<title>Node11&#45;&gt;Node20</title>
<path fill="none" stroke="#191970" d="M428.3608,-465.4184C440.2839,-461.8049 452.5061,-456.9604 463,-450.5 483.0876,-438.1333 478.8947,-423.8378 499,-411.5 502.404,-409.4111 505.9809,-407.4852 509.6682,-405.7101"/>
<polygon fill="#191970" stroke="#191970" points="511.2762,-408.8266 519.0252,-401.6013 508.4618,-402.4173 511.2762,-408.8266"/>
</g>
<!-- Node21 -->
<g id="node21" class="node">
<title>Node21</title>
<g id="a_node21"><a xlink:href="../../d0/d2f/classEicDetName.html#aef29cb1ffe2ea071a03f4aa098408595" target="_top" xlink:title="EicDetName::Name">
<polygon fill="none" stroke="#000000" points="533.5,-420.5 533.5,-440.5 648.5,-440.5 648.5,-420.5 533.5,-420.5"/>
<text text-anchor="middle" x="591" y="-427.5" font-family="FreeSans" font-size="10.00" fill="#000000">EicDetName::Name</text>
</a>
</g>
</g>
<!-- Node11&#45;&gt;Node21 -->
<g id="edge21" class="edge">
<title>Node11&#45;&gt;Node21</title>
<path fill="none" stroke="#191970" d="M423.5942,-465.4571C455.9975,-458.6908 498.9113,-449.7297 533.1768,-442.5745"/>
<polygon fill="#191970" stroke="#191970" points="533.9794,-445.9824 543.0528,-440.5122 532.5485,-439.1302 533.9794,-445.9824"/>
</g>
<!-- Node15 -->
<g id="node15" class="node">
<title>Node15</title>
<g id="a_node15"><a xlink:href="../../df/de0/classEicGeoParData.html#a7f5db7c4ddc258264f0258a6d8d946b6" target="_top" xlink:title="EicGeoParData::GetGeometryType">
<polygon fill="none" stroke="#000000" points="726.5,-543.5 726.5,-563.5 915.5,-563.5 915.5,-543.5 726.5,-543.5"/>
<text text-anchor="middle" x="821" y="-550.5" font-family="FreeSans" font-size="10.00" fill="#000000">EicGeoParData::GetGeometryType</text>
</a>
</g>
</g>
<!-- Node14&#45;&gt;Node15 -->
<g id="edge15" class="edge">
<title>Node14&#45;&gt;Node15</title>
<path fill="none" stroke="#191970" d="M661.2121,-491.5957C668.7742,-494.4201 676.1868,-497.7007 683,-501.5 701.9569,-512.071 699.5806,-524.8047 719,-534.5 723.306,-536.6498 727.8243,-538.5578 732.4636,-540.2511"/>
<polygon fill="#191970" stroke="#191970" points="731.5341,-543.6299 742.1272,-543.434 733.724,-536.9813 731.5341,-543.6299"/>
</g>
<!-- Node16 -->
<g id="node16" class="node">
<title>Node16</title>
<g id="a_node16"><a xlink:href="../../df/de0/classEicGeoParData.html#ae6acf5e5d790c629031c2d7cf12718ef" target="_top" xlink:title="EicGeoParData::GetSubVersion">
<polygon fill="none" stroke="#000000" points="735,-504.5 735,-524.5 907,-524.5 907,-504.5 735,-504.5"/>
<text text-anchor="middle" x="821" y="-511.5" font-family="FreeSans" font-size="10.00" fill="#000000">EicGeoParData::GetSubVersion</text>
</a>
</g>
</g>
<!-- Node14&#45;&gt;Node16 -->
<g id="edge16" class="edge">
<title>Node14&#45;&gt;Node16</title>
<path fill="none" stroke="#191970" d="M674.0353,-489.5799C699.594,-493.9138 727.441,-498.6356 751.9539,-502.7922"/>
<polygon fill="#191970" stroke="#191970" points="751.4369,-506.2544 761.8813,-504.4755 752.6072,-499.3529 751.4369,-506.2544"/>
</g>
<!-- Node17 -->
<g id="node17" class="node">
<title>Node17</title>
<g id="a_node17"><a xlink:href="../../df/de0/classEicGeoParData.html#a27907f2aba8817ceb2d97e1a29ecaf40" target="_top" xlink:title="EicGeoParData::GetVersion">
<polygon fill="none" stroke="#000000" points="744.5,-465.5 744.5,-485.5 897.5,-485.5 897.5,-465.5 744.5,-465.5"/>
<text text-anchor="middle" x="821" y="-472.5" font-family="FreeSans" font-size="10.00" fill="#000000">EicGeoParData::GetVersion</text>
</a>
</g>
</g>
<!-- Node14&#45;&gt;Node17 -->
<g id="edge17" class="edge">
<title>Node14&#45;&gt;Node17</title>
<path fill="none" stroke="#191970" d="M674.0353,-475.5C693.5393,-475.5 714.3759,-475.5 734.0465,-475.5"/>
<polygon fill="#191970" stroke="#191970" points="734.2135,-479.0001 744.2135,-475.5 734.2135,-472.0001 734.2135,-479.0001"/>
</g>
<!-- Node18 -->
<g id="node18" class="node">
<title>Node18</title>
<g id="a_node18"><a xlink:href="../../df/de0/classEicGeoParData.html#a09fe5b3481f26b4a771cb7c476d64a1f" target="_top" xlink:title="EicGeoParData::IsTestGeometry">
<polygon fill="none" stroke="#000000" points="733,-426.5 733,-446.5 909,-446.5 909,-426.5 733,-426.5"/>
<text text-anchor="middle" x="821" y="-433.5" font-family="FreeSans" font-size="10.00" fill="#000000">EicGeoParData::IsTestGeometry</text>
</a>
</g>
</g>
<!-- Node14&#45;&gt;Node18 -->
<g id="edge18" class="edge">
<title>Node14&#45;&gt;Node18</title>
<path fill="none" stroke="#191970" d="M674.0353,-461.4201C699.594,-457.0862 727.441,-452.3644 751.9539,-448.2078"/>
<polygon fill="#191970" stroke="#191970" points="752.6072,-451.6471 761.8813,-446.5245 751.4369,-444.7456 752.6072,-451.6471"/>
</g>
<!-- Node19 -->
<g id="node19" class="node">
<title>Node19</title>
<g id="a_node19"><a xlink:href="../../d0/d2f/classEicDetName.html#afac87377442f69796e0e335e81b96067" target="_top" xlink:title="EicDetName::name">
<polygon fill="none" stroke="#000000" points="764,-387.5 764,-407.5 878,-407.5 878,-387.5 764,-387.5"/>
<text text-anchor="middle" x="821" y="-394.5" font-family="FreeSans" font-size="10.00" fill="#000000">EicDetName::name</text>
</a>
</g>
</g>
<!-- Node14&#45;&gt;Node19 -->
<g id="edge19" class="edge">
<title>Node14&#45;&gt;Node19</title>
<path fill="none" stroke="#191970" d="M663.62,-459.3312C670.3446,-456.782 676.9116,-453.855 683,-450.5 702.01,-440.0248 699.6267,-427.287 719,-417.5 729.7589,-412.0648 741.8476,-408.1043 753.8397,-405.219"/>
<polygon fill="#191970" stroke="#191970" points="754.8316,-408.5852 763.859,-403.0395 753.3436,-401.7452 754.8316,-408.5852"/>
</g>
<!-- Node23 -->
<g id="node23" class="node">
<title>Node23</title>
<g id="a_node23"><a xlink:href="../../de/d6a/classFairGeoBuilder.html#a852b0d5861a7a6c1033aab59417d1c79" target="_top" xlink:title="FairGeoBuilder::createMedium">
<polygon fill="none" stroke="#000000" points="506.5,-330.5 506.5,-350.5 675.5,-350.5 675.5,-330.5 506.5,-330.5"/>
<text text-anchor="middle" x="591" y="-337.5" font-family="FreeSans" font-size="10.00" fill="#000000">FairGeoBuilder::createMedium</text>
</a>
</g>
</g>
<!-- Node22&#45;&gt;Node23 -->
<g id="edge24" class="edge">
<title>Node22&#45;&gt;Node23</title>
<path fill="none" stroke="#191970" d="M431.6281,-387.4926C442.183,-384.9996 453.0301,-382.0126 463,-378.5 479.872,-372.5557 482.1287,-366.4463 499,-360.5 506.9777,-357.6883 515.4895,-355.196 523.9935,-353.009"/>
<polygon fill="#191970" stroke="#191970" points="525.0556,-356.3526 533.9404,-350.581 523.3957,-349.5523 525.0556,-356.3526"/>
</g>
<!-- Node24 -->
<g id="node24" class="node">
<title>Node24</title>
<g id="a_node24"><a xlink:href="../../d9/d1e/classFairGeoMedia.html#a0dc27e89d61b8ff40498a48e39b2a2c0" target="_top" xlink:title="FairGeoMedia::getMedium">
<polygon fill="none" stroke="#000000" points="516.5,-291.5 516.5,-311.5 665.5,-311.5 665.5,-291.5 516.5,-291.5"/>
<text text-anchor="middle" x="591" y="-298.5" font-family="FreeSans" font-size="10.00" fill="#000000">FairGeoMedia::getMedium</text>
</a>
</g>
</g>
<!-- Node22&#45;&gt;Node24 -->
<g id="edge25" class="edge">
<title>Node22&#45;&gt;Node24</title>
<path fill="none" stroke="#191970" d="M446.3789,-387.3614C452.2672,-384.9805 457.9058,-382.0654 463,-378.5 487.5479,-361.3192 474.4542,-338.6837 499,-321.5 502.0588,-319.3586 505.3043,-317.4402 508.6788,-315.7219"/>
<polygon fill="#191970" stroke="#191970" points="510.163,-318.8924 517.8728,-311.6254 507.314,-312.4983 510.163,-318.8924"/>
</g>
<!-- Node27&#45;&gt;Node4 -->
<g id="edge32" class="edge">
<title>Node27&#45;&gt;Node4</title>
<path fill="none" stroke="#191970" d="M421.423,-704.569C486.6105,-726.4445 610.1653,-764.4788 719,-778.5 808.9235,-790.0849 832.3721,-781.1503 923,-778.5 946.4105,-777.8154 972.79,-776.2531 992.9246,-774.8943"/>
<polygon fill="#191970" stroke="#191970" points="993.3878,-778.3707 1003.1219,-774.1877 992.9038,-771.3875 993.3878,-778.3707"/>
</g>
<!-- Node28 -->
<g id="node28" class="node">
<title>Node28</title>
<g id="a_node28"><a xlink:href="../../dd/d20/classEicBitMask.html#aba6083955032532d7dfc95069338dd27" target="_top" xlink:title="EicBitMask::GetBitMask">
<polygon fill="none" stroke="#000000" points="523.5,-600.5 523.5,-620.5 658.5,-620.5 658.5,-600.5 523.5,-600.5"/>
<text text-anchor="middle" x="591" y="-607.5" font-family="FreeSans" font-size="10.00" fill="#000000">EicBitMask::GetBitMask</text>
</a>
</g>
</g>
<!-- Node27&#45;&gt;Node28 -->
<g id="edge30" class="edge">
<title>Node27&#45;&gt;Node28</title>
<path fill="none" stroke="#191970" d="M441.9951,-672.4385C449.2391,-669.8301 456.3786,-666.8607 463,-663.5 481.0749,-654.326 480.866,-644.5566 499,-635.5 508.7498,-630.6307 519.5703,-626.6124 530.2658,-623.3294"/>
<polygon fill="#191970" stroke="#191970" points="531.3796,-626.6509 540.0187,-620.5178 529.4405,-619.9248 531.3796,-626.6509"/>
</g>
<!-- Node29 -->
<g id="node29" class="node">
<title>Node29</title>
<g id="a_node29"><a xlink:href="../../dd/d20/classEicBitMask.html#a862ce5875cf47f78ff18aaed935966d9" target="_top" xlink:title="EicBitMask::GetShift">
<polygon fill="none" stroke="#000000" points="761.5,-594.5 761.5,-614.5 880.5,-614.5 880.5,-594.5 761.5,-594.5"/>
<text text-anchor="middle" x="821" y="-601.5" font-family="FreeSans" font-size="10.00" fill="#000000">EicBitMask::GetShift</text>
</a>
</g>
</g>
<!-- Node27&#45;&gt;Node29 -->
<g id="edge31" class="edge">
<title>Node27&#45;&gt;Node29</title>
<path fill="none" stroke="#191970" d="M454.6331,-673.5793C541.1943,-657.258 678.1968,-631.4259 757.853,-616.4065"/>
<polygon fill="#191970" stroke="#191970" points="758.5722,-619.8327 767.7505,-614.5403 757.2751,-612.9539 758.5722,-619.8327"/>
</g>
<!-- Node30 -->
<g id="node30" class="node">
<title>Node30</title>
<g id="a_node30"><a xlink:href="../../da/d86/classEicGeoMap.html#a9c17af03744fe42ae8daf66f9bda7f06" target="_top" xlink:title="EicGeoMap::SetMappingTable\lEntry">
<polygon fill="none" stroke="#000000" points="508,-678.5 508,-710.5 674,-710.5 674,-678.5 508,-678.5"/>
<text text-anchor="start" x="516" y="-697.5" font-family="FreeSans" font-size="10.00" fill="#000000">EicGeoMap::SetMappingTable</text>
<text text-anchor="middle" x="591" y="-685.5" font-family="FreeSans" font-size="10.00" fill="#000000">Entry</text>
</a>
</g>
</g>
<!-- Node27&#45;&gt;Node30 -->
<g id="edge33" class="edge">
<title>Node27&#45;&gt;Node30</title>
<path fill="none" stroke="#191970" d="M454.5206,-690.7001C468.44,-691.0877 483.0494,-691.4944 497.3236,-691.8918"/>
<polygon fill="#191970" stroke="#191970" points="497.55,-695.3994 507.6435,-692.1792 497.7448,-688.4021 497.55,-695.3994"/>
</g>
<!-- Node30&#45;&gt;Node4 -->
<g id="edge40" class="edge">
<title>Node30&#45;&gt;Node4</title>
<path fill="none" stroke="#191970" d="M618.3658,-710.749C643.562,-724.81 682.4601,-744.2899 719,-753.5 816.3767,-778.0443 936.389,-776.7562 993.0097,-774.3621"/>
<polygon fill="#191970" stroke="#191970" points="993.3172,-777.8517 1003.1442,-773.892 992.9928,-770.8592 993.3172,-777.8517"/>
</g>
<!-- Node30&#45;&gt;Node29 -->
<g id="edge38" class="edge">
<title>Node30&#45;&gt;Node29</title>
<path fill="none" stroke="#191970" d="M652.8672,-678.4333C663.3518,-674.3916 673.8074,-669.4597 683,-663.5 702.7933,-650.6676 698.407,-636.0053 719,-624.5 728.9303,-618.9519 740.1545,-614.9235 751.4334,-612.0027"/>
<polygon fill="#191970" stroke="#191970" points="752.3758,-615.3771 761.328,-609.7107 750.7961,-608.5577 752.3758,-615.3771"/>
</g>
<!-- Node31 -->
<g id="node31" class="node">
<title>Node31</title>
<g id="a_node31"><a xlink:href="../../da/d86/classEicGeoMap.html#ad01497111125dccc306dac986d6d10e1" target="_top" xlink:title="EicGeoMap::CalculateBitPattern">
<polygon fill="none" stroke="#000000" points="733,-672.5 733,-692.5 909,-692.5 909,-672.5 733,-672.5"/>
<text text-anchor="middle" x="821" y="-679.5" font-family="FreeSans" font-size="10.00" fill="#000000">EicGeoMap::CalculateBitPattern</text>
</a>
</g>
</g>
<!-- Node30&#45;&gt;Node31 -->
<g id="edge34" class="edge">
<title>Node30&#45;&gt;Node31</title>
<path fill="none" stroke="#191970" d="M674.0353,-690.1677C689.8058,-689.3449 706.4475,-688.4767 722.6396,-687.6318"/>
<polygon fill="#191970" stroke="#191970" points="722.8476,-691.1259 732.6516,-687.1095 722.4828,-684.1354 722.8476,-691.1259"/>
</g>
<!-- Node32 -->
<g id="node32" class="node">
<title>Node32</title>
<g id="a_node32"><a xlink:href="../../d1/d24/classGeantVolumeLevel.html#a4aba5288354c7287b6fc03cd9d30b2a2" target="_top" xlink:title="GeantVolumeLevel::GetVolumeName">
<polygon fill="none" stroke="#000000" points="719,-633.5 719,-653.5 923,-653.5 923,-633.5 719,-633.5"/>
<text text-anchor="middle" x="821" y="-640.5" font-family="FreeSans" font-size="10.00" fill="#000000">GeantVolumeLevel::GetVolumeName</text>
</a>
</g>
</g>
<!-- Node30&#45;&gt;Node32 -->
<g id="edge39" class="edge">
<title>Node30&#45;&gt;Node32</title>
<path fill="none" stroke="#191970" d="M654.6777,-678.4938C675.1703,-673.4995 698.0049,-668.0984 719,-663.5 731.3793,-660.7887 744.6426,-658.0598 757.3732,-655.5271"/>
<polygon fill="#191970" stroke="#191970" points="758.3076,-658.9104 767.4417,-653.5421 756.9535,-652.0426 758.3076,-658.9104"/>
</g>
<!-- Node31&#45;&gt;Node4 -->
<g id="edge36" class="edge">
<title>Node31&#45;&gt;Node4</title>
<path fill="none" stroke="#191970" d="M900.3562,-692.527C908.2844,-695.1392 915.985,-698.4096 923,-702.5 944.2386,-714.8841 939.1393,-730.0087 959,-744.5 969.3313,-752.0382 981.9988,-758.0171 993.4959,-762.4815"/>
<polygon fill="#191970" stroke="#191970" points="992.6159,-765.8858 1003.21,-766.0161 995.0095,-759.3077 992.6159,-765.8858"/>
</g>
<!-- Node31&#45;&gt;Node6 -->
<g id="edge35" class="edge">
<title>Node31&#45;&gt;Node6</title>
<path fill="none" stroke="#191970" d="M873.1879,-692.5474C889.1831,-695.6767 906.8258,-699.1788 923,-702.5 938.065,-705.5934 954.3523,-709.0417 969.4136,-712.2734"/>
<polygon fill="#191970" stroke="#191970" points="969.1021,-715.7865 979.6147,-714.4692 970.5752,-708.9432 969.1021,-715.7865"/>
</g>
<!-- Node31&#45;&gt;Node7 -->
<g id="edge37" class="edge">
<title>Node31&#45;&gt;Node7</title>
<path fill="none" stroke="#191970" d="M909.2102,-683.3627C925.02,-683.5173 941.2862,-683.6764 956.4582,-683.8248"/>
<polygon fill="#191970" stroke="#191970" points="956.7342,-687.3275 966.768,-683.9256 956.8027,-680.3279 956.7342,-687.3275"/>
</g>
<!-- Node34&#45;&gt;Node35 -->
<g id="edge43" class="edge">
<title>Node34&#45;&gt;Node35</title>
<path fill="none" stroke="#191970" d="M252.3024,-215.7733C273.5965,-218.1458 297.8218,-220.8451 319.1227,-223.2184"/>
<polygon fill="#191970" stroke="#191970" points="318.9928,-226.7255 329.3189,-224.3545 319.768,-219.7686 318.9928,-226.7255"/>
</g>
<!-- Node37 -->
<g id="node37" class="node">
<title>Node37</title>
<g id="a_node37"><a xlink:href="../../df/d28/namespacekdfinder.html#ab72d428625e99a2d7380eb7691c246c7" target="_top" xlink:title="kdfinder::abs">
<polygon fill="none" stroke="#000000" points="334,-180.5 334,-200.5 417,-200.5 417,-180.5 334,-180.5"/>
<text text-anchor="middle" x="375.5" y="-187.5" font-family="FreeSans" font-size="10.00" fill="#000000">kdfinder::abs</text>
</a>
</g>
</g>
<!-- Node36&#45;&gt;Node37 -->
<g id="edge45" class="edge">
<title>Node36&#45;&gt;Node37</title>
<path fill="none" stroke="#191970" d="M211.3299,-130.537C229.1032,-141.7614 259.6013,-159.7695 288,-170.5 299.3882,-174.803 311.9746,-178.3423 323.9674,-181.1833"/>
<polygon fill="#191970" stroke="#191970" points="323.3383,-184.6291 333.8623,-183.4069 324.8731,-177.7995 323.3383,-184.6291"/>
</g>
<!-- Node39 -->
<g id="node39" class="node">
<title>Node39</title>
<g id="a_node39"><a xlink:href="../../de/d3c/classerhic_1_1ParticleMCbase.html#a33b38996faa1c81295941c5205383db2" target="_top" xlink:title="erhic::ParticleMCbase\l::GetPdgCode">
<polygon fill="none" stroke="#000000" points="313,-129.5 313,-161.5 438,-161.5 438,-129.5 313,-129.5"/>
<text text-anchor="start" x="321" y="-148.5" font-family="FreeSans" font-size="10.00" fill="#000000">erhic::ParticleMCbase</text>
<text text-anchor="middle" x="375.5" y="-136.5" font-family="FreeSans" font-size="10.00" fill="#000000">::GetPdgCode</text>
</a>
</g>
</g>
<!-- Node36&#45;&gt;Node39 -->
<g id="edge47" class="edge">
<title>Node36&#45;&gt;Node39</title>
<path fill="none" stroke="#191970" d="M215.2096,-123.1754C236.1017,-126.0852 270.77,-130.9136 302.5309,-135.3372"/>
<polygon fill="#191970" stroke="#191970" points="302.3324,-138.8432 312.7196,-136.7562 303.298,-131.9101 302.3324,-138.8432"/>
</g>
<!-- Node41 -->
<g id="node41" class="node">
<title>Node41</title>
<g id="a_node41"><a xlink:href="../../de/d3c/classerhic_1_1ParticleMCbase.html#abec875dbcad86309ebf3da30fb91be8c" target="_top" xlink:title="erhic::ParticleMCbase\l::GetPt">
<polygon fill="none" stroke="#000000" points="313,-78.5 313,-110.5 438,-110.5 438,-78.5 313,-78.5"/>
<text text-anchor="start" x="321" y="-97.5" font-family="FreeSans" font-size="10.00" fill="#000000">erhic::ParticleMCbase</text>
<text text-anchor="middle" x="375.5" y="-85.5" font-family="FreeSans" font-size="10.00" fill="#000000">::GetPt</text>
</a>
</g>
</g>
<!-- Node36&#45;&gt;Node41 -->
<g id="edge49" class="edge">
<title>Node36&#45;&gt;Node41</title>
<path fill="none" stroke="#191970" d="M215.2096,-117.7175C236.1017,-114.6914 270.77,-109.6698 302.5309,-105.0693"/>
<polygon fill="#191970" stroke="#191970" points="303.3246,-108.491 312.7196,-103.5935 302.3211,-101.5633 303.3246,-108.491"/>
</g>
<!-- Node42 -->
<g id="node42" class="node">
<title>Node42</title>
<g id="a_node42"><a xlink:href="../../dc/db4/classerhic_1_1EventDis.html#a64b2de754abd17753622235fb195bdf9" target="_top" xlink:title="erhic::EventDis::GetQ2">
<polygon fill="none" stroke="#000000" points="310,-39.5 310,-59.5 441,-59.5 441,-39.5 310,-39.5"/>
<text text-anchor="middle" x="375.5" y="-46.5" font-family="FreeSans" font-size="10.00" fill="#000000">erhic::EventDis::GetQ2</text>
</a>
</g>
</g>
<!-- Node36&#45;&gt;Node42 -->
<g id="edge50" class="edge">
<title>Node36&#45;&gt;Node42</title>
<path fill="none" stroke="#191970" d="M210.6156,-110.3911C228.213,-98.6675 259.0266,-79.5427 288,-68.5 294.2461,-66.1194 300.8625,-64.0025 307.5487,-62.1278"/>
<polygon fill="#191970" stroke="#191970" points="308.5762,-65.4768 317.3597,-59.5521 306.7986,-58.7062 308.5762,-65.4768"/>
</g>
<!-- Node43 -->
<g id="node43" class="node">
<title>Node43</title>
<g id="a_node43"><a xlink:href="../../dc/db4/classerhic_1_1EventDis.html#a46b5447d280d08f297e5265f97d9c56c" target="_top" xlink:title="erhic::EventDis::GetX">
<polygon fill="none" stroke="#000000" points="313.5,-.5 313.5,-20.5 437.5,-20.5 437.5,-.5 313.5,-.5"/>
<text text-anchor="middle" x="375.5" y="-7.5" font-family="FreeSans" font-size="10.00" fill="#000000">erhic::EventDis::GetX</text>
</a>
</g>
</g>
<!-- Node36&#45;&gt;Node43 -->
<g id="edge51" class="edge">
<title>Node36&#45;&gt;Node43</title>
<path fill="none" stroke="#191970" d="M203.0477,-110.4342C216.9495,-91.3948 249.8844,-50.1684 288,-29.5 292.8682,-26.8602 298.076,-24.5871 303.4346,-22.6299"/>
<polygon fill="#191970" stroke="#191970" points="304.7846,-25.8709 313.2021,-19.4369 302.6095,-19.2174 304.7846,-25.8709"/>
</g>
<!-- Node38 -->
<g id="node38" class="node">
<title>Node38</title>
<g id="a_node38"><a xlink:href="../../d8/dc7/classkdfinder_1_1TVector.html#ac9649c7577f12a7502ed523260f4ee90" target="_top" xlink:title="kdfinder::TVector::mag">
<polygon fill="none" stroke="#000000" points="525,-180.5 525,-200.5 657,-200.5 657,-180.5 525,-180.5"/>
<text text-anchor="middle" x="591" y="-187.5" font-family="FreeSans" font-size="10.00" fill="#000000">kdfinder::TVector::mag</text>
</a>
</g>
</g>
<!-- Node37&#45;&gt;Node38 -->
<g id="edge46" class="edge">
<title>Node37&#45;&gt;Node38</title>
<path fill="none" stroke="#191970" d="M417.0506,-190.5C444.761,-190.5 482.0086,-190.5 514.9268,-190.5"/>
<polygon fill="#191970" stroke="#191970" points="514.9885,-194.0001 524.9885,-190.5 514.9885,-187.0001 514.9885,-194.0001"/>
</g>
<!-- Node40 -->
<g id="node40" class="node">
<title>Node40</title>
<g id="a_node40"><a xlink:href="../../de/d3c/classerhic_1_1ParticleMCbase.html#a0c85145c4eda948f67bc96fa78b4e69e" target="_top" xlink:title="erhic::ParticleMCbase::Id">
<polygon fill="none" stroke="#000000" points="521,-135.5 521,-155.5 661,-155.5 661,-135.5 521,-135.5"/>
<text text-anchor="middle" x="591" y="-142.5" font-family="FreeSans" font-size="10.00" fill="#000000">erhic::ParticleMCbase::Id</text>
</a>
</g>
</g>
<!-- Node39&#45;&gt;Node40 -->
<g id="edge48" class="edge">
<title>Node39&#45;&gt;Node40</title>
<path fill="none" stroke="#191970" d="M438.121,-145.5C460.7384,-145.5 486.5937,-145.5 510.5271,-145.5"/>
<polygon fill="#191970" stroke="#191970" points="510.6516,-149.0001 520.6516,-145.5 510.6516,-142.0001 510.6516,-149.0001"/>
</g>
</g>
</svg>
