<?xml version="1.0" encoding="UTF-8" standalone="no"?>
<!DOCTYPE svg PUBLIC "-//W3C//DTD SVG 1.1//EN"
 "http://www.w3.org/Graphics/SVG/1.1/DTD/svg11.dtd">
<!-- Generated by graphviz version 2.40.1 (20161225.0304)
 -->
<!-- Title: CylinderGeom_Mvtx::get_sensor_indices_from_world_coords Pages: 1 -->
<svg width="1343pt" height="92pt"
 viewBox="0.00 0.00 1343.00 92.00" xmlns="http://www.w3.org/2000/svg" xmlns:xlink="http://www.w3.org/1999/xlink">
<g id="graph0" class="graph" transform="scale(1 1) rotate(0) translate(4 88)">
<title>CylinderGeom_Mvtx::get_sensor_indices_from_world_coords</title>
<!-- Node1 -->
<g id="node1" class="node">
<title>Node1</title>
<polygon fill="#bfbfbf" stroke="#000000" points="0,-19.5 0,-63.5 140,-63.5 140,-19.5 0,-19.5"/>
<text text-anchor="start" x="8" y="-50.5" font-family="FreeSans" font-size="10.00" fill="#000000">CylinderGeom_Mvtx::</text>
<text text-anchor="start" x="8" y="-38.5" font-family="FreeSans" font-size="10.00" fill="#000000">get_sensor_indices_from</text>
<text text-anchor="middle" x="70" y="-26.5" font-family="FreeSans" font-size="10.00" fill="#000000">_world_coords</text>
</g>
<!-- Node2 -->
<g id="node2" class="node">
<title>Node2</title>
<g id="a_node2"><a xlink:href="../../d6/d11/classSvtxEvaluator.html#a6594ca430b1b489a3c637f88d1e46c41" target="_top" xlink:title="SvtxEvaluator::G4ClusterSize">
<polygon fill="none" stroke="#000000" points="176,-55.5 176,-75.5 340,-75.5 340,-55.5 176,-55.5"/>
<text text-anchor="middle" x="258" y="-62.5" font-family="FreeSans" font-size="10.00" fill="#000000">SvtxEvaluator::G4ClusterSize</text>
</a>
</g>
</g>
<!-- Node1&#45;&gt;Node2 -->
<g id="edge1" class="edge">
<title>Node1&#45;&gt;Node2</title>
<path fill="none" stroke="#191970" d="M150.0455,-51.7186C159.769,-52.9599 169.6963,-54.2272 179.3986,-55.4658"/>
<polygon fill="#191970" stroke="#191970" points="150.367,-48.2313 140.0043,-50.4367 149.4805,-55.1749 150.367,-48.2313"/>
</g>
<!-- Node5 -->
<g id="node5" class="node">
<title>Node5</title>
<g id="a_node5"><a xlink:href="../../da/db1/classMakeActsGeometry.html#ad1297a652617e697364fc272f4d5a2e6" target="_top" xlink:title="Get subdetector hitsetkey from the local sensor unit coordinates.">
<polygon fill="none" stroke="#000000" points="177,-3.5 177,-35.5 339,-35.5 339,-3.5 177,-3.5"/>
<text text-anchor="start" x="185" y="-22.5" font-family="FreeSans" font-size="10.00" fill="#000000">MakeActsGeometry::getMvtx</text>
<text text-anchor="middle" x="258" y="-10.5" font-family="FreeSans" font-size="10.00" fill="#000000">HitSetKeyFromCoords</text>
</a>
</g>
</g>
<!-- Node1&#45;&gt;Node5 -->
<g id="edge4" class="edge">
<title>Node1&#45;&gt;Node5</title>
<path fill="none" stroke="#191970" d="M149.9606,-32.1429C158.8593,-31.1016 167.9296,-30.0401 176.843,-28.9971"/>
<polygon fill="#191970" stroke="#191970" points="149.5297,-28.6694 140.0043,-33.308 150.3433,-35.6219 149.5297,-28.6694"/>
</g>
<!-- Node3 -->
<g id="node3" class="node">
<title>Node3</title>
<g id="a_node3"><a xlink:href="../../d6/d11/classSvtxEvaluator.html#ace95fef2b7b4ad8b797f6695e053dd6e" target="_top" xlink:title="dump the evaluator information into ntuple for external analysis">
<polygon fill="none" stroke="#000000" points="392,-51.5 392,-83.5 533,-83.5 533,-51.5 392,-51.5"/>
<text text-anchor="start" x="400" y="-70.5" font-family="FreeSans" font-size="10.00" fill="#000000">SvtxEvaluator::fillOutput</text>
<text text-anchor="middle" x="462.5" y="-58.5" font-family="FreeSans" font-size="10.00" fill="#000000">Ntuples</text>
</a>
</g>
</g>
<!-- Node2&#45;&gt;Node3 -->
<g id="edge2" class="edge">
<title>Node2&#45;&gt;Node3</title>
<path fill="none" stroke="#191970" d="M350.3824,-66.4035C364.3176,-66.5398 378.4996,-66.6785 391.88,-66.8093"/>
<polygon fill="#191970" stroke="#191970" points="350.3278,-62.9029 340.294,-66.3048 350.2593,-69.9026 350.3278,-62.9029"/>
</g>
<!-- Node4 -->
<g id="node4" class="node">
<title>Node4</title>
<g id="a_node4"><a xlink:href="../../d6/d11/classSvtxEvaluator.html#ac66ea4145deb621d9e4fb38cf852dc33" target="_top" xlink:title="SvtxEvaluator::process\l_event">
<polygon fill="none" stroke="#000000" points="618.5,-51.5 618.5,-83.5 750.5,-83.5 750.5,-51.5 618.5,-51.5"/>
<text text-anchor="start" x="626.5" y="-70.5" font-family="FreeSans" font-size="10.00" fill="#000000">SvtxEvaluator::process</text>
<text text-anchor="middle" x="684.5" y="-58.5" font-family="FreeSans" font-size="10.00" fill="#000000">_event</text>
</a>
</g>
</g>
<!-- Node3&#45;&gt;Node4 -->
<g id="edge3" class="edge">
<title>Node3&#45;&gt;Node4</title>
<path fill="none" stroke="#191970" d="M543.1158,-67.5C567.8092,-67.5 594.6761,-67.5 618.2926,-67.5"/>
<polygon fill="#191970" stroke="#191970" points="543.0473,-64.0001 533.0472,-67.5 543.0472,-71.0001 543.0473,-64.0001"/>
</g>
<!-- Node6 -->
<g id="node6" class="node">
<title>Node6</title>
<g id="a_node6"><a xlink:href="../../da/db1/classMakeActsGeometry.html#ab9b4afbf5dfd3c6f7fa38830a6560377" target="_top" xlink:title="MakeActsGeometry::makeMvtx\lMapPairs">
<polygon fill="none" stroke="#000000" points="376,-.5 376,-32.5 549,-32.5 549,-.5 376,-.5"/>
<text text-anchor="start" x="384" y="-19.5" font-family="FreeSans" font-size="10.00" fill="#000000">MakeActsGeometry::makeMvtx</text>
<text text-anchor="middle" x="462.5" y="-7.5" font-family="FreeSans" font-size="10.00" fill="#000000">MapPairs</text>
</a>
</g>
</g>
<!-- Node5&#45;&gt;Node6 -->
<g id="edge5" class="edge">
<title>Node5&#45;&gt;Node6</title>
<path fill="none" stroke="#191970" d="M349.3605,-18.1597C358.1419,-18.0309 367.0316,-17.9005 375.7666,-17.7724"/>
<polygon fill="#191970" stroke="#191970" points="349.0651,-14.6636 339.1175,-18.31 349.1678,-21.6629 349.0651,-14.6636"/>
</g>
<!-- Node7 -->
<g id="node7" class="node">
<title>Node7</title>
<g id="a_node7"><a xlink:href="../../da/db1/classMakeActsGeometry.html#aad73a55543beffeb8ef3f2cb8d893934" target="_top" xlink:title="Function that mimics ActsFW::GeometryExampleBase.">
<polygon fill="none" stroke="#000000" points="585,-6.5 585,-26.5 784,-26.5 784,-6.5 585,-6.5"/>
<text text-anchor="middle" x="684.5" y="-13.5" font-family="FreeSans" font-size="10.00" fill="#000000">MakeActsGeometry::makeGeometry</text>
</a>
</g>
</g>
<!-- Node6&#45;&gt;Node7 -->
<g id="edge6" class="edge">
<title>Node6&#45;&gt;Node7</title>
<path fill="none" stroke="#191970" d="M559.4897,-16.5C567.9113,-16.5 576.4422,-16.5 584.8843,-16.5"/>
<polygon fill="#191970" stroke="#191970" points="559.2848,-13.0001 549.2848,-16.5 559.2848,-20.0001 559.2848,-13.0001"/>
</g>
<!-- Node8 -->
<g id="node8" class="node">
<title>Node8</title>
<g id="a_node8"><a xlink:href="../../da/db1/classMakeActsGeometry.html#a6f8433331336def2c6ea713b281da9ed" target="_top" xlink:title="Silicon layers made by BuildSiliconLayers and its helper functions.">
<polygon fill="none" stroke="#000000" points="820,-.5 820,-32.5 987,-32.5 987,-.5 820,-.5"/>
<text text-anchor="start" x="828" y="-19.5" font-family="FreeSans" font-size="10.00" fill="#000000">MakeActsGeometry::buildActs</text>
<text text-anchor="middle" x="903.5" y="-7.5" font-family="FreeSans" font-size="10.00" fill="#000000">Surfaces</text>
</a>
</g>
</g>
<!-- Node7&#45;&gt;Node8 -->
<g id="edge7" class="edge">
<title>Node7&#45;&gt;Node8</title>
<path fill="none" stroke="#191970" d="M794.1981,-16.5C802.8384,-16.5 811.477,-16.5 819.8988,-16.5"/>
<polygon fill="#191970" stroke="#191970" points="794.0674,-13.0001 784.0673,-16.5 794.0673,-20.0001 794.0674,-13.0001"/>
</g>
<!-- Node9 -->
<g id="node9" class="node">
<title>Node9</title>
<g id="a_node9"><a xlink:href="../../da/db1/classMakeActsGeometry.html#aa809a1c2b47d8c089a0dc4a6a96d1cc8" target="_top" xlink:title="Main function to build all acts geometry for use in the fitting modules.">
<polygon fill="none" stroke="#000000" points="1023,-.5 1023,-32.5 1181,-32.5 1181,-.5 1023,-.5"/>
<text text-anchor="start" x="1031" y="-19.5" font-family="FreeSans" font-size="10.00" fill="#000000">MakeActsGeometry::buildAll</text>
<text text-anchor="middle" x="1102" y="-7.5" font-family="FreeSans" font-size="10.00" fill="#000000">Geometry</text>
</a>
</g>
</g>
<!-- Node8&#45;&gt;Node9 -->
<g id="edge8" class="edge">
<title>Node8&#45;&gt;Node9</title>
<path fill="none" stroke="#191970" d="M997.1763,-16.5C1005.7894,-16.5 1014.4588,-16.5 1022.9237,-16.5"/>
<polygon fill="#191970" stroke="#191970" points="997.1066,-13.0001 987.1066,-16.5 997.1065,-20.0001 997.1066,-13.0001"/>
</g>
<!-- Node10 -->
<g id="node10" class="node">
<title>Node10</title>
<g id="a_node10"><a xlink:href="../../d7/df2/classPHActsSourceLinks.html#a8d10b5904edcf4c6a90411e0f259e663" target="_top" xlink:title="PHActsSourceLinks::\lInitRun">
<polygon fill="none" stroke="#000000" points="1217,-.5 1217,-32.5 1335,-32.5 1335,-.5 1217,-.5"/>
<text text-anchor="start" x="1225" y="-19.5" font-family="FreeSans" font-size="10.00" fill="#000000">PHActsSourceLinks::</text>
<text text-anchor="middle" x="1276" y="-7.5" font-family="FreeSans" font-size="10.00" fill="#000000">InitRun</text>
</a>
</g>
</g>
<!-- Node9&#45;&gt;Node10 -->
<g id="edge9" class="edge">
<title>Node9&#45;&gt;Node10</title>
<path fill="none" stroke="#191970" d="M1191.2859,-16.5C1199.9615,-16.5 1208.6067,-16.5 1216.8763,-16.5"/>
<polygon fill="#191970" stroke="#191970" points="1191.1083,-13.0001 1181.1083,-16.5 1191.1083,-20.0001 1191.1083,-13.0001"/>
</g>
</g>
</svg>
