<?xml version="1.0" encoding="UTF-8" standalone="no"?>
<!DOCTYPE svg PUBLIC "-//W3C//DTD SVG 1.1//EN"
 "http://www.w3.org/Graphics/SVG/1.1/DTD/svg11.dtd">
<!-- Generated by graphviz version 2.40.1 (20161225.0304)
 -->
<!-- Title: BEmcRecFEMC::CorrectPosition Pages: 1 -->
<svg width="733pt" height="126pt"
 viewBox="0.00 0.00 733.00 126.00" xmlns="http://www.w3.org/2000/svg" xmlns:xlink="http://www.w3.org/1999/xlink">
<g id="graph0" class="graph" transform="scale(1 1) rotate(0) translate(4 122)">
<title>BEmcRecFEMC::CorrectPosition</title>
<!-- Node1 -->
<g id="node1" class="node">
<title>Node1</title>
<polygon fill="#bfbfbf" stroke="#000000" points="0,-58.5 0,-78.5 173,-78.5 173,-58.5 0,-58.5"/>
<text text-anchor="middle" x="86.5" y="-65.5" font-family="FreeSans" font-size="10.00" fill="#000000">BEmcRecFEMC::CorrectPosition</text>
</g>
<!-- Node2 -->
<g id="node2" class="node">
<title>Node2</title>
<g id="a_node2"><a xlink:href="../../d9/d04/classEmcCluster.html#aa7a15cfe3a8d3216d001e205e1001151" target="_top" xlink:title="EmcCluster::ABS">
<polygon fill="none" stroke="#000000" points="228,-97.5 228,-117.5 328,-117.5 328,-97.5 228,-97.5"/>
<text text-anchor="middle" x="278" y="-104.5" font-family="FreeSans" font-size="10.00" fill="#000000">EmcCluster::ABS</text>
</a>
</g>
</g>
<!-- Node1&#45;&gt;Node2 -->
<g id="edge1" class="edge">
<title>Node1&#45;&gt;Node2</title>
<path fill="none" stroke="#191970" d="M135.816,-78.5435C161.1688,-83.7067 192.2523,-90.037 218.8836,-95.4606"/>
<polygon fill="#191970" stroke="#191970" points="218.3538,-98.9245 228.8511,-97.4906 219.7507,-92.0653 218.3538,-98.9245"/>
</g>
<!-- Node5 -->
<g id="node5" class="node">
<title>Node5</title>
<g id="a_node5"><a xlink:href="../../d9/d04/classEmcCluster.html#ae3825e6596e83cb4b5272da3981bb121" target="_top" xlink:title="EmcCluster::lowint">
<polygon fill="none" stroke="#000000" points="222.5,-58.5 222.5,-78.5 333.5,-78.5 333.5,-58.5 222.5,-58.5"/>
<text text-anchor="middle" x="278" y="-65.5" font-family="FreeSans" font-size="10.00" fill="#000000">EmcCluster::lowint</text>
</a>
</g>
</g>
<!-- Node1&#45;&gt;Node5 -->
<g id="edge4" class="edge">
<title>Node1&#45;&gt;Node5</title>
<path fill="none" stroke="#191970" d="M173.0057,-68.5C186.0926,-68.5 199.4119,-68.5 211.9735,-68.5"/>
<polygon fill="#191970" stroke="#191970" points="212.3254,-72.0001 222.3254,-68.5 212.3253,-65.0001 212.3254,-72.0001"/>
</g>
<!-- Node6 -->
<g id="node6" class="node">
<title>Node6</title>
<g id="a_node6"><a xlink:href="../../df/d23/classBEmcRec.html#ac115997c94dd0b83b134d54b052d9031" target="_top" xlink:title="BEmcRec::Tower2Global">
<polygon fill="none" stroke="#000000" points="209,-19.5 209,-39.5 347,-39.5 347,-19.5 209,-19.5"/>
<text text-anchor="middle" x="278" y="-26.5" font-family="FreeSans" font-size="10.00" fill="#000000">BEmcRec::Tower2Global</text>
</a>
</g>
</g>
<!-- Node1&#45;&gt;Node6 -->
<g id="edge5" class="edge">
<title>Node1&#45;&gt;Node6</title>
<path fill="none" stroke="#191970" d="M135.816,-58.4565C161.1688,-53.2933 192.2523,-46.963 218.8836,-41.5394"/>
<polygon fill="#191970" stroke="#191970" points="219.7507,-44.9347 228.8511,-39.5094 218.3538,-38.0755 219.7507,-44.9347"/>
</g>
<!-- Node3 -->
<g id="node3" class="node">
<title>Node3</title>
<g id="a_node3"><a xlink:href="../../df/d28/namespacekdfinder.html#ab72d428625e99a2d7380eb7691c246c7" target="_top" xlink:title="kdfinder::abs">
<polygon fill="none" stroke="#000000" points="428.5,-97.5 428.5,-117.5 511.5,-117.5 511.5,-97.5 428.5,-97.5"/>
<text text-anchor="middle" x="470" y="-104.5" font-family="FreeSans" font-size="10.00" fill="#000000">kdfinder::abs</text>
</a>
</g>
</g>
<!-- Node2&#45;&gt;Node3 -->
<g id="edge2" class="edge">
<title>Node2&#45;&gt;Node3</title>
<path fill="none" stroke="#191970" d="M328.4457,-107.5C356.0313,-107.5 390.1497,-107.5 417.9784,-107.5"/>
<polygon fill="#191970" stroke="#191970" points="418.3093,-111.0001 428.3093,-107.5 418.3092,-104.0001 418.3093,-111.0001"/>
</g>
<!-- Node4 -->
<g id="node4" class="node">
<title>Node4</title>
<g id="a_node4"><a xlink:href="../../d8/dc7/classkdfinder_1_1TVector.html#ac9649c7577f12a7502ed523260f4ee90" target="_top" xlink:title="kdfinder::TVector::mag">
<polygon fill="none" stroke="#000000" points="593,-97.5 593,-117.5 725,-117.5 725,-97.5 593,-97.5"/>
<text text-anchor="middle" x="659" y="-104.5" font-family="FreeSans" font-size="10.00" fill="#000000">kdfinder::TVector::mag</text>
</a>
</g>
</g>
<!-- Node3&#45;&gt;Node4 -->
<g id="edge3" class="edge">
<title>Node3&#45;&gt;Node4</title>
<path fill="none" stroke="#191970" d="M511.9452,-107.5C532.6896,-107.5 558.3882,-107.5 582.4702,-107.5"/>
<polygon fill="#191970" stroke="#191970" points="582.673,-111.0001 592.6729,-107.5 582.6729,-104.0001 582.673,-111.0001"/>
</g>
<!-- Node7 -->
<g id="node7" class="node">
<title>Node7</title>
<g id="a_node7"><a xlink:href="../../df/d23/classBEmcRec.html#acf2da5a9fd023639d89c4e63c4e0d099" target="_top" xlink:title="BEmcRec::CorrectShowerDepth">
<polygon fill="none" stroke="#000000" points="383,-39.5 383,-59.5 557,-59.5 557,-39.5 383,-39.5"/>
<text text-anchor="middle" x="470" y="-46.5" font-family="FreeSans" font-size="10.00" fill="#000000">BEmcRec::CorrectShowerDepth</text>
</a>
</g>
</g>
<!-- Node6&#45;&gt;Node7 -->
<g id="edge6" class="edge">
<title>Node6&#45;&gt;Node7</title>
<path fill="none" stroke="#191970" d="M347.0451,-36.6922C355.3905,-37.5615 364.0316,-38.4616 372.687,-39.3632"/>
<polygon fill="#191970" stroke="#191970" points="372.5284,-42.8656 382.8373,-40.4205 373.2537,-35.9032 372.5284,-42.8656"/>
</g>
<!-- Node8 -->
<g id="node8" class="node">
<title>Node8</title>
<g id="a_node8"><a xlink:href="../../df/d23/classBEmcRec.html#a8b3cf9ce5eaa158a9793e350809d7a4b" target="_top" xlink:title="BEmcRec::GetTowerGeometry">
<polygon fill="none" stroke="#000000" points="386,-.5 386,-20.5 554,-20.5 554,-.5 386,-.5"/>
<text text-anchor="middle" x="470" y="-7.5" font-family="FreeSans" font-size="10.00" fill="#000000">BEmcRec::GetTowerGeometry</text>
</a>
</g>
</g>
<!-- Node6&#45;&gt;Node8 -->
<g id="edge7" class="edge">
<title>Node6&#45;&gt;Node8</title>
<path fill="none" stroke="#191970" d="M347.0451,-22.6674C356.3808,-21.7436 366.0865,-20.7831 375.7682,-19.825"/>
<polygon fill="#191970" stroke="#191970" points="376.2257,-23.2969 385.8324,-18.8291 375.5363,-16.331 376.2257,-23.2969"/>
</g>
</g>
</svg>
