<?xml version="1.0" encoding="UTF-8" standalone="no"?>
<!DOCTYPE svg PUBLIC "-//W3C//DTD SVG 1.1//EN"
 "http://www.w3.org/Graphics/SVG/1.1/DTD/svg11.dtd">
<!-- Generated by graphviz version 2.40.1 (20161225.0304)
 -->
<!-- Title: HCALOuter_Towers Pages: 1 -->
<svg width="698pt" height="845pt"
 viewBox="0.00 0.00 698.00 845.00" xmlns="http://www.w3.org/2000/svg" xmlns:xlink="http://www.w3.org/1999/xlink">
<g id="graph0" class="graph" transform="scale(1 1) rotate(0) translate(4 841)">
<title>HCALOuter_Towers</title>
<!-- Node1 -->
<g id="node1" class="node">
<title>Node1</title>
<polygon fill="#bfbfbf" stroke="#000000" points="0,-426.5 0,-446.5 111,-446.5 111,-426.5 0,-426.5"/>
<text text-anchor="middle" x="55.5" y="-433.5" font-family="FreeSans" font-size="10.00" fill="#000000">HCALOuter_Towers</text>
</g>
<!-- Node2 -->
<g id="node2" class="node">
<title>Node2</title>
<g id="a_node2"><a xlink:href="../../d1/dec/classHcalRawTowerBuilder.html#ae609ca82dee508d26d983d194f3845da" target="_top" xlink:title="HcalRawTowerBuilder\l::Detector">
<polygon fill="none" stroke="#000000" points="178.5,-804.5 178.5,-836.5 303.5,-836.5 303.5,-804.5 178.5,-804.5"/>
<text text-anchor="start" x="186.5" y="-823.5" font-family="FreeSans" font-size="10.00" fill="#000000">HcalRawTowerBuilder</text>
<text text-anchor="middle" x="241" y="-811.5" font-family="FreeSans" font-size="10.00" fill="#000000">::Detector</text>
</a>
</g>
</g>
<!-- Node1&#45;&gt;Node2 -->
<g id="edge1" class="edge">
<title>Node1&#45;&gt;Node2</title>
<path fill="none" stroke="#191970" d="M56.6933,-446.5742C63.1384,-499.3362 95.4222,-743.384 147,-795.5 153.214,-801.7788 160.8136,-806.5355 168.9729,-810.1299"/>
<polygon fill="#191970" stroke="#191970" points="167.7881,-813.4238 178.379,-813.7134 170.2803,-806.8825 167.7881,-813.4238"/>
</g>
<!-- Node3 -->
<g id="node3" class="node">
<title>Node3</title>
<g id="a_node3"><a xlink:href="../../d3/df2/classRawTowerCalibration.html#af8e00011f5c1b79388eafb58f35d00f4" target="_top" xlink:title="RawTowerCalibration\l::Detector">
<polygon fill="none" stroke="#000000" points="180.5,-753.5 180.5,-785.5 301.5,-785.5 301.5,-753.5 180.5,-753.5"/>
<text text-anchor="start" x="188.5" y="-772.5" font-family="FreeSans" font-size="10.00" fill="#000000">RawTowerCalibration</text>
<text text-anchor="middle" x="241" y="-760.5" font-family="FreeSans" font-size="10.00" fill="#000000">::Detector</text>
</a>
</g>
</g>
<!-- Node1&#45;&gt;Node3 -->
<g id="edge2" class="edge">
<title>Node1&#45;&gt;Node3</title>
<path fill="none" stroke="#191970" d="M57.166,-446.7077C65.2552,-495.0755 101.8906,-700.6729 147,-744.5 153.6709,-750.9812 161.8224,-755.8308 170.5088,-759.4509"/>
<polygon fill="#191970" stroke="#191970" points="169.5052,-762.8097 180.0995,-762.9155 171.8835,-756.2261 169.5052,-762.8097"/>
</g>
<!-- Node5 -->
<g id="node5" class="node">
<title>Node5</title>
<g id="a_node5"><a xlink:href="../../d0/db9/classRawTowerDigitizer.html#a220c6a1663cfb78a11d536564c9c9e11" target="_top" xlink:title="RawTowerDigitizer::\lDetector">
<polygon fill="none" stroke="#000000" points="183.5,-702.5 183.5,-734.5 298.5,-734.5 298.5,-702.5 183.5,-702.5"/>
<text text-anchor="start" x="191.5" y="-721.5" font-family="FreeSans" font-size="10.00" fill="#000000">RawTowerDigitizer::</text>
<text text-anchor="middle" x="241" y="-709.5" font-family="FreeSans" font-size="10.00" fill="#000000">Detector</text>
</a>
</g>
</g>
<!-- Node1&#45;&gt;Node5 -->
<g id="edge4" class="edge">
<title>Node1&#45;&gt;Node5</title>
<path fill="none" stroke="#191970" d="M56.1309,-446.5388C59.0259,-483.983 74.2366,-616.959 147,-687.5 154.5733,-694.842 163.9192,-700.4454 173.7521,-704.7219"/>
<polygon fill="#191970" stroke="#191970" points="172.6982,-708.0673 183.2868,-708.4288 175.2347,-701.543 172.6982,-708.0673"/>
</g>
<!-- Node6 -->
<g id="node6" class="node">
<title>Node6</title>
<g id="a_node6"><a xlink:href="../../da/d29/classFun4AllServer.html#a3e55156f91b2c94bb6c4ef33ffce587a" target="_top" xlink:title="Fun4AllServer::instance">
<polygon fill="none" stroke="#000000" points="374.5,-734.5 374.5,-754.5 510.5,-754.5 510.5,-734.5 374.5,-734.5"/>
<text text-anchor="middle" x="442.5" y="-741.5" font-family="FreeSans" font-size="10.00" fill="#000000">Fun4AllServer::instance</text>
</a>
</g>
</g>
<!-- Node1&#45;&gt;Node6 -->
<g id="edge5" class="edge">
<title>Node1&#45;&gt;Node6</title>
<path fill="none" stroke="#191970" d="M56.4912,-446.6753C60.4737,-481.6888 78.5643,-598.1355 147,-654.5 212.8696,-708.751 258.7489,-655.1888 335,-693.5 354.1286,-703.1109 352.1439,-715.365 371,-725.5 374.7546,-727.5181 378.7374,-729.3322 382.8261,-730.9614"/>
<polygon fill="#191970" stroke="#191970" points="381.9065,-734.35 392.501,-734.4361 384.2726,-727.7619 381.9065,-734.35"/>
</g>
<!-- Node7 -->
<g id="node7" class="node">
<title>Node7</title>
<g id="a_node7"><a xlink:href="../../da/d29/classFun4AllServer.html#a0a9947db0ede1e55622001eb7515f8c0" target="_top" xlink:title="Fun4AllServer::registerSubsystem">
<polygon fill="none" stroke="#000000" points="147,-624.5 147,-644.5 335,-644.5 335,-624.5 147,-624.5"/>
<text text-anchor="middle" x="241" y="-631.5" font-family="FreeSans" font-size="10.00" fill="#000000">Fun4AllServer::registerSubsystem</text>
</a>
</g>
</g>
<!-- Node1&#45;&gt;Node7 -->
<g id="edge6" class="edge">
<title>Node1&#45;&gt;Node7</title>
<path fill="none" stroke="#191970" d="M57.4552,-446.5835C63.9846,-477.3744 88.0458,-570.7901 147,-615.5 148.8863,-616.9305 150.853,-618.2607 152.8854,-619.4974"/>
<polygon fill="#191970" stroke="#191970" points="151.6866,-622.8195 162.1716,-624.341 154.9239,-616.6131 151.6866,-622.8195"/>
</g>
<!-- Node17 -->
<g id="node17" class="node">
<title>Node17</title>
<g id="a_node17"><a xlink:href="../../d3/df2/classRawTowerCalibration.html#a1a08275ee4f0a49e707ac76e574a1dde" target="_top" xlink:title="RawTowerCalibration\l::set_calib_algorithm">
<polygon fill="none" stroke="#000000" points="180.5,-573.5 180.5,-605.5 301.5,-605.5 301.5,-573.5 180.5,-573.5"/>
<text text-anchor="start" x="188.5" y="-592.5" font-family="FreeSans" font-size="10.00" fill="#000000">RawTowerCalibration</text>
<text text-anchor="middle" x="241" y="-580.5" font-family="FreeSans" font-size="10.00" fill="#000000">::set_calib_algorithm</text>
</a>
</g>
</g>
<!-- Node1&#45;&gt;Node17 -->
<g id="edge21" class="edge">
<title>Node1&#45;&gt;Node17</title>
<path fill="none" stroke="#191970" d="M59.82,-446.5236C70.7184,-470.5916 101.7255,-531.9809 147,-563.5 154.1685,-568.4906 162.265,-572.5256 170.6242,-575.7876"/>
<polygon fill="#191970" stroke="#191970" points="169.5435,-579.1177 180.1383,-579.1516 171.8771,-572.5181 169.5435,-579.1177"/>
</g>
<!-- Node18 -->
<g id="node18" class="node">
<title>Node18</title>
<g id="a_node18"><a xlink:href="../../d3/df2/classRawTowerCalibration.html#a94fed2422b5dcd0b5190c62027329663" target="_top" xlink:title="RawTowerCalibration\l::set_calib_const_GeV_ADC">
<polygon fill="none" stroke="#000000" points="165,-522.5 165,-554.5 317,-554.5 317,-522.5 165,-522.5"/>
<text text-anchor="start" x="173" y="-541.5" font-family="FreeSans" font-size="10.00" fill="#000000">RawTowerCalibration</text>
<text text-anchor="middle" x="241" y="-529.5" font-family="FreeSans" font-size="10.00" fill="#000000">::set_calib_const_GeV_ADC</text>
</a>
</g>
</g>
<!-- Node1&#45;&gt;Node18 -->
<g id="edge22" class="edge">
<title>Node1&#45;&gt;Node18</title>
<path fill="none" stroke="#191970" d="M64.897,-446.7125C80.4341,-462.9969 113.1401,-494.8082 147,-512.5 151.277,-514.7348 155.7668,-516.7942 160.3689,-518.6896"/>
<polygon fill="#191970" stroke="#191970" points="159.3505,-522.0474 169.941,-522.3535 161.8529,-515.5099 159.3505,-522.0474"/>
</g>
<!-- Node19 -->
<g id="node19" class="node">
<title>Node19</title>
<g id="a_node19"><a xlink:href="../../d0/db9/classRawTowerDigitizer.html#a77d8b741ec7a7752327e0639ca235306" target="_top" xlink:title="RawTowerDigitizer::\lset_digi_algorithm">
<polygon fill="none" stroke="#000000" points="183.5,-471.5 183.5,-503.5 298.5,-503.5 298.5,-471.5 183.5,-471.5"/>
<text text-anchor="start" x="191.5" y="-490.5" font-family="FreeSans" font-size="10.00" fill="#000000">RawTowerDigitizer::</text>
<text text-anchor="middle" x="241" y="-478.5" font-family="FreeSans" font-size="10.00" fill="#000000">set_digi_algorithm</text>
</a>
</g>
</g>
<!-- Node1&#45;&gt;Node19 -->
<g id="edge23" class="edge">
<title>Node1&#45;&gt;Node19</title>
<path fill="none" stroke="#191970" d="M92.1488,-446.576C115.2822,-452.9361 145.8739,-461.3467 173.3047,-468.8884"/>
<polygon fill="#191970" stroke="#191970" points="172.6781,-472.3459 183.2482,-471.6221 174.5338,-465.5963 172.6781,-472.3459"/>
</g>
<!-- Node20 -->
<g id="node20" class="node">
<title>Node20</title>
<g id="a_node20"><a xlink:href="../../d3/df2/classRawTowerCalibration.html#a8bc95ccdde558f2b66fdf8dd83409645" target="_top" xlink:title="RawTowerCalibration\l::set_pedstal_ADC">
<polygon fill="none" stroke="#000000" points="180.5,-420.5 180.5,-452.5 301.5,-452.5 301.5,-420.5 180.5,-420.5"/>
<text text-anchor="start" x="188.5" y="-439.5" font-family="FreeSans" font-size="10.00" fill="#000000">RawTowerCalibration</text>
<text text-anchor="middle" x="241" y="-427.5" font-family="FreeSans" font-size="10.00" fill="#000000">::set_pedstal_ADC</text>
</a>
</g>
</g>
<!-- Node1&#45;&gt;Node20 -->
<g id="edge24" class="edge">
<title>Node1&#45;&gt;Node20</title>
<path fill="none" stroke="#191970" d="M111.1561,-436.5C129.6952,-436.5 150.6016,-436.5 170.1347,-436.5"/>
<polygon fill="#191970" stroke="#191970" points="170.2042,-440.0001 180.2042,-436.5 170.2041,-433.0001 170.2042,-440.0001"/>
</g>
<!-- Node21 -->
<g id="node21" class="node">
<title>Node21</title>
<g id="a_node21"><a xlink:href="../../d0/db9/classRawTowerDigitizer.html#a1af888f55f816d27c55820d32174dd3c" target="_top" xlink:title="RawTowerDigitizer::\lset_pedstal_central_ADC">
<polygon fill="none" stroke="#000000" points="170.5,-369.5 170.5,-401.5 311.5,-401.5 311.5,-369.5 170.5,-369.5"/>
<text text-anchor="start" x="178.5" y="-388.5" font-family="FreeSans" font-size="10.00" fill="#000000">RawTowerDigitizer::</text>
<text text-anchor="middle" x="241" y="-376.5" font-family="FreeSans" font-size="10.00" fill="#000000">set_pedstal_central_ADC</text>
</a>
</g>
</g>
<!-- Node1&#45;&gt;Node21 -->
<g id="edge25" class="edge">
<title>Node1&#45;&gt;Node21</title>
<path fill="none" stroke="#191970" d="M90.2207,-426.4846C107.3025,-421.5954 128.2108,-415.6677 147,-410.5 154.4987,-408.4376 162.3416,-406.3082 170.1622,-404.2025"/>
<polygon fill="#191970" stroke="#191970" points="171.2775,-407.5271 180.0287,-401.555 169.4633,-400.7663 171.2775,-407.5271"/>
</g>
<!-- Node22 -->
<g id="node22" class="node">
<title>Node22</title>
<g id="a_node22"><a xlink:href="../../d0/db9/classRawTowerDigitizer.html#a38faf191c86807ce4f46383ca1f042a3" target="_top" xlink:title="RawTowerDigitizer::\lset_pedstal_width_ADC">
<polygon fill="none" stroke="#000000" points="174,-318.5 174,-350.5 308,-350.5 308,-318.5 174,-318.5"/>
<text text-anchor="start" x="182" y="-337.5" font-family="FreeSans" font-size="10.00" fill="#000000">RawTowerDigitizer::</text>
<text text-anchor="middle" x="241" y="-325.5" font-family="FreeSans" font-size="10.00" fill="#000000">set_pedstal_width_ADC</text>
</a>
</g>
</g>
<!-- Node1&#45;&gt;Node22 -->
<g id="edge26" class="edge">
<title>Node1&#45;&gt;Node22</title>
<path fill="none" stroke="#191970" d="M64.5984,-426.375C79.9632,-409.8952 112.7425,-377.3239 147,-359.5 152.5053,-356.6356 158.3671,-354.0785 164.3697,-351.7993"/>
<polygon fill="#191970" stroke="#191970" points="165.6207,-355.0695 173.887,-348.4424 163.2922,-348.4681 165.6207,-355.0695"/>
</g>
<!-- Node23 -->
<g id="node23" class="node">
<title>Node23</title>
<g id="a_node23"><a xlink:href="../../d0/db9/classRawTowerDigitizer.html#ae420c9dd5c83c2cd0aa5b409de93d51b" target="_top" xlink:title="RawTowerDigitizer::\lset_photonelec_ADC">
<polygon fill="none" stroke="#000000" points="181,-267.5 181,-299.5 301,-299.5 301,-267.5 181,-267.5"/>
<text text-anchor="start" x="189" y="-286.5" font-family="FreeSans" font-size="10.00" fill="#000000">RawTowerDigitizer::</text>
<text text-anchor="middle" x="241" y="-274.5" font-family="FreeSans" font-size="10.00" fill="#000000">set_photonelec_ADC</text>
</a>
</g>
</g>
<!-- Node1&#45;&gt;Node23 -->
<g id="edge27" class="edge">
<title>Node1&#45;&gt;Node23</title>
<path fill="none" stroke="#191970" d="M59.7772,-426.3685C70.5805,-402.0465 101.3926,-340.0416 147,-308.5 154.2656,-303.4752 162.487,-299.4601 170.9701,-296.2518"/>
<polygon fill="#191970" stroke="#191970" points="172.2863,-299.501 180.6221,-292.9615 170.0276,-292.8753 172.2863,-299.501"/>
</g>
<!-- Node24 -->
<g id="node24" class="node">
<title>Node24</title>
<g id="a_node24"><a xlink:href="../../d0/db9/classRawTowerDigitizer.html#a663bc836d0e296f52000ec4d68e9ecfc" target="_top" xlink:title="RawTowerDigitizer::\lset_photonelec_yield\l_visible_GeV">
<polygon fill="none" stroke="#000000" points="180,-204.5 180,-248.5 302,-248.5 302,-204.5 180,-204.5"/>
<text text-anchor="start" x="188" y="-235.5" font-family="FreeSans" font-size="10.00" fill="#000000">RawTowerDigitizer::</text>
<text text-anchor="start" x="188" y="-223.5" font-family="FreeSans" font-size="10.00" fill="#000000">set_photonelec_yield</text>
<text text-anchor="middle" x="241" y="-211.5" font-family="FreeSans" font-size="10.00" fill="#000000">_visible_GeV</text>
</a>
</g>
</g>
<!-- Node1&#45;&gt;Node24 -->
<g id="edge28" class="edge">
<title>Node1&#45;&gt;Node24</title>
<path fill="none" stroke="#191970" d="M57.8039,-426.293C65.1801,-395.9455 91.0766,-305.4127 147,-257.5 153.9,-251.5884 161.9597,-246.7964 170.4057,-242.9136"/>
<polygon fill="#191970" stroke="#191970" points="171.8008,-246.124 179.6856,-239.0473 169.1086,-239.6624 171.8008,-246.124"/>
</g>
<!-- Node25 -->
<g id="node25" class="node">
<title>Node25</title>
<g id="a_node25"><a xlink:href="../../d1/dec/classHcalRawTowerBuilder.html#acd7fad02ce73f5cfe1634b27c4046db7" target="_top" xlink:title="HcalRawTowerBuilder\l::set_sim_tower_node\l_prefix">
<polygon fill="none" stroke="#000000" points="178.5,-141.5 178.5,-185.5 303.5,-185.5 303.5,-141.5 178.5,-141.5"/>
<text text-anchor="start" x="186.5" y="-172.5" font-family="FreeSans" font-size="10.00" fill="#000000">HcalRawTowerBuilder</text>
<text text-anchor="start" x="186.5" y="-160.5" font-family="FreeSans" font-size="10.00" fill="#000000">::set_sim_tower_node</text>
<text text-anchor="middle" x="241" y="-148.5" font-family="FreeSans" font-size="10.00" fill="#000000">_prefix</text>
</a>
</g>
</g>
<!-- Node1&#45;&gt;Node25 -->
<g id="edge29" class="edge">
<title>Node1&#45;&gt;Node25</title>
<path fill="none" stroke="#191970" d="M56.2993,-426.3116C59.7329,-389.5116 76.4532,-262.0814 147,-194.5 153.4013,-188.3678 161.0396,-183.4482 169.1566,-179.5015"/>
<polygon fill="#191970" stroke="#191970" points="170.7086,-182.6433 178.4838,-175.4462 167.9175,-176.2238 170.7086,-182.6433"/>
</g>
<!-- Node26 -->
<g id="node26" class="node">
<title>Node26</title>
<g id="a_node26"><a xlink:href="../../d0/db9/classRawTowerDigitizer.html#a48d48eb4f5e96560929f4c284b21b755" target="_top" xlink:title="RawTowerDigitizer::\lset_zero_suppression_ADC">
<polygon fill="none" stroke="#000000" points="165.5,-90.5 165.5,-122.5 316.5,-122.5 316.5,-90.5 165.5,-90.5"/>
<text text-anchor="start" x="173.5" y="-109.5" font-family="FreeSans" font-size="10.00" fill="#000000">RawTowerDigitizer::</text>
<text text-anchor="middle" x="241" y="-97.5" font-family="FreeSans" font-size="10.00" fill="#000000">set_zero_suppression_ADC</text>
</a>
</g>
</g>
<!-- Node1&#45;&gt;Node26 -->
<g id="edge30" class="edge">
<title>Node1&#45;&gt;Node26</title>
<path fill="none" stroke="#191970" d="M57.1807,-426.3907C65.3375,-378.489 102.236,-174.875 147,-131.5 149.9182,-128.6724 153.1182,-126.1555 156.5214,-123.9158"/>
<polygon fill="#191970" stroke="#191970" points="158.3863,-126.8818 165.3543,-118.9007 154.9301,-120.7945 158.3863,-126.8818"/>
</g>
<!-- Node27 -->
<g id="node27" class="node">
<title>Node27</title>
<g id="a_node27"><a xlink:href="../../d3/df2/classRawTowerCalibration.html#a7568c99acb5d7d1fd49384a4c9822c24" target="_top" xlink:title="RawTowerCalibration\l::set_zero_suppression_GeV">
<polygon fill="none" stroke="#000000" points="162.5,-39.5 162.5,-71.5 319.5,-71.5 319.5,-39.5 162.5,-39.5"/>
<text text-anchor="start" x="170.5" y="-58.5" font-family="FreeSans" font-size="10.00" fill="#000000">RawTowerCalibration</text>
<text text-anchor="middle" x="241" y="-46.5" font-family="FreeSans" font-size="10.00" fill="#000000">::set_zero_suppression_GeV</text>
</a>
</g>
</g>
<!-- Node1&#45;&gt;Node27 -->
<g id="edge31" class="edge">
<title>Node1&#45;&gt;Node27</title>
<path fill="none" stroke="#191970" d="M56.7492,-426.1621C63.3584,-373.1228 95.887,-132.0422 147,-80.5 149.118,-78.3642 151.3964,-76.4045 153.8026,-74.6069"/>
<polygon fill="#191970" stroke="#191970" points="155.884,-77.4306 162.4284,-69.0986 152.1165,-71.5308 155.884,-77.4306"/>
</g>
<!-- Node28 -->
<g id="node28" class="node">
<title>Node28</title>
<g id="a_node28"><a xlink:href="../../d5/dec/classFun4AllBase.html#a05da2261577843028cf78e99171343b9" target="_top" xlink:title="Sets the verbosity of this module (0 by default=quiet).">
<polygon fill="none" stroke="#000000" points="175,-.5 175,-20.5 307,-20.5 307,-.5 175,-.5"/>
<text text-anchor="middle" x="241" y="-7.5" font-family="FreeSans" font-size="10.00" fill="#000000">Fun4AllBase::Verbosity</text>
</a>
</g>
</g>
<!-- Node1&#45;&gt;Node28 -->
<g id="edge32" class="edge">
<title>Node1&#45;&gt;Node28</title>
<path fill="none" stroke="#191970" d="M56.329,-426.1878C61.1655,-368.6329 87.6012,-87.6237 147,-29.5 152.236,-24.3764 158.449,-20.4528 165.1484,-17.4679"/>
<polygon fill="#191970" stroke="#191970" points="166.3995,-20.7369 174.5395,-13.9551 163.947,-14.1805 166.3995,-20.7369"/>
</g>
<!-- Node4 -->
<g id="node4" class="node">
<title>Node4</title>
<g id="a_node4"><a xlink:href="../../dd/dae/classPHParameters.html#a40d6bab1351b6291cfe471f561afb5f7" target="_top" xlink:title="PHParameters::set_name">
<polygon fill="none" stroke="#000000" points="371,-773.5 371,-793.5 514,-793.5 514,-773.5 371,-773.5"/>
<text text-anchor="middle" x="442.5" y="-780.5" font-family="FreeSans" font-size="10.00" fill="#000000">PHParameters::set_name</text>
</a>
</g>
</g>
<!-- Node3&#45;&gt;Node4 -->
<g id="edge3" class="edge">
<title>Node3&#45;&gt;Node4</title>
<path fill="none" stroke="#191970" d="M301.7299,-773.7194C320.2815,-775.0084 340.9947,-776.4475 360.704,-777.8169"/>
<polygon fill="#191970" stroke="#191970" points="360.6838,-781.3238 370.9024,-778.5255 361.169,-774.3407 360.6838,-781.3238"/>
</g>
<!-- Node7&#45;&gt;Node6 -->
<g id="edge7" class="edge">
<title>Node7&#45;&gt;Node6</title>
<path fill="none" stroke="#191970" d="M306.9435,-644.6709C317.0063,-648.2333 326.7656,-653.0338 335,-659.5 361.2791,-680.1362 344.7187,-704.8665 371,-725.5 373.0331,-727.0962 375.1885,-728.5589 377.4342,-729.8991"/>
<polygon fill="#191970" stroke="#191970" points="375.9757,-733.0837 386.4774,-734.4852 379.1418,-726.8407 375.9757,-733.0837"/>
</g>
<!-- Node8 -->
<g id="node8" class="node">
<title>Node8</title>
<g id="a_node8"><a xlink:href="../../df/de8/cemc_8C.html#adf5c804dfce7a70e36dda02995fad481" target="_top" xlink:title="exit">
<polygon fill="none" stroke="#000000" points="425,-437.5 425,-457.5 460,-457.5 460,-437.5 425,-437.5"/>
<text text-anchor="middle" x="442.5" y="-444.5" font-family="FreeSans" font-size="10.00" fill="#000000">exit</text>
</a>
</g>
</g>
<!-- Node7&#45;&gt;Node8 -->
<g id="edge8" class="edge">
<title>Node7&#45;&gt;Node8</title>
<path fill="none" stroke="#191970" d="M323.0182,-624.3226C327.3569,-621.8785 331.4023,-618.9648 335,-615.5 384.0713,-568.2412 323.3754,-515.2164 371,-466.5 382.2709,-454.9707 399.6804,-450.1798 414.4983,-448.2911"/>
<polygon fill="#191970" stroke="#191970" points="415.0585,-451.7549 424.7051,-447.3738 414.4319,-444.783 415.0585,-451.7549"/>
</g>
<!-- Node9 -->
<g id="node9" class="node">
<title>Node9</title>
<g id="a_node9"><a xlink:href="../../d5/dec/classFun4AllBase.html#a41f9ac377743d046f590617fd6f4f0ed" target="_top" xlink:title="Returns the name of this module.">
<polygon fill="none" stroke="#000000" points="385,-695.5 385,-715.5 500,-715.5 500,-695.5 385,-695.5"/>
<text text-anchor="middle" x="442.5" y="-702.5" font-family="FreeSans" font-size="10.00" fill="#000000">Fun4AllBase::Name</text>
</a>
</g>
</g>
<!-- Node7&#45;&gt;Node9 -->
<g id="edge9" class="edge">
<title>Node7&#45;&gt;Node9</title>
<path fill="none" stroke="#191970" d="M293.0172,-644.545C307.0385,-648.2592 321.9341,-653.1607 335,-659.5 352.9939,-668.2303 353.0051,-677.7716 371,-686.5 375.3228,-688.5968 379.9088,-690.4864 384.589,-692.1848"/>
<polygon fill="#191970" stroke="#191970" points="383.6798,-695.5709 394.2734,-695.4072 385.8899,-688.9289 383.6798,-695.5709"/>
</g>
<!-- Node10 -->
<g id="node10" class="node">
<title>Node10</title>
<g id="a_node10"><a xlink:href="../../da/d29/classFun4AllServer.html#abcaf6825367e5db292ff795237bdcf62" target="_top" xlink:title="Fun4AllServer::topNode">
<polygon fill="none" stroke="#000000" points="374.5,-656.5 374.5,-676.5 510.5,-676.5 510.5,-656.5 374.5,-656.5"/>
<text text-anchor="middle" x="442.5" y="-663.5" font-family="FreeSans" font-size="10.00" fill="#000000">Fun4AllServer::topNode</text>
</a>
</g>
</g>
<!-- Node7&#45;&gt;Node10 -->
<g id="edge10" class="edge">
<title>Node7&#45;&gt;Node10</title>
<path fill="none" stroke="#191970" d="M304.203,-644.5372C324.9275,-647.8284 348.1255,-651.5125 369.513,-654.909"/>
<polygon fill="#191970" stroke="#191970" points="369.096,-658.3866 379.5213,-656.4984 370.194,-651.4732 369.096,-658.3866"/>
</g>
<!-- Node11 -->
<g id="node11" class="node">
<title>Node11</title>
<g id="a_node11"><a xlink:href="../../d7/d96/classFun4AllMemoryTracker.html#a3841cc0bc6c4047da2b4868ba39dbb8c" target="_top" xlink:title="Fun4AllMemoryTracker\l::Start">
<polygon fill="none" stroke="#000000" points="376.5,-554.5 376.5,-586.5 508.5,-586.5 508.5,-554.5 376.5,-554.5"/>
<text text-anchor="start" x="384.5" y="-573.5" font-family="FreeSans" font-size="10.00" fill="#000000">Fun4AllMemoryTracker</text>
<text text-anchor="middle" x="442.5" y="-561.5" font-family="FreeSans" font-size="10.00" fill="#000000">::Start</text>
</a>
</g>
</g>
<!-- Node7&#45;&gt;Node11 -->
<g id="edge11" class="edge">
<title>Node7&#45;&gt;Node11</title>
<path fill="none" stroke="#191970" d="M303.6263,-624.4506C314.2402,-622.0094 325.0418,-619.051 335,-615.5 352.0407,-609.4235 354.4601,-603.8307 371,-596.5 375.9057,-594.3257 381.055,-592.1868 386.247,-590.1267"/>
<polygon fill="#191970" stroke="#191970" points="387.5299,-593.3832 395.5954,-586.5131 385.0061,-586.854 387.5299,-593.3832"/>
</g>
<!-- Node14 -->
<g id="node14" class="node">
<title>Node14</title>
<g id="a_node14"><a xlink:href="../../d5/dec/classFun4AllBase.html#a8a5c77a92bdac6bc043476e132379a40" target="_top" xlink:title="Gets the verbosity of this module.">
<polygon fill="none" stroke="#000000" points="554,-515.5 554,-535.5 686,-535.5 686,-515.5 554,-515.5"/>
<text text-anchor="middle" x="620" y="-522.5" font-family="FreeSans" font-size="10.00" fill="#000000">Fun4AllBase::Verbosity</text>
</a>
</g>
</g>
<!-- Node7&#45;&gt;Node14 -->
<g id="edge20" class="edge">
<title>Node7&#45;&gt;Node14</title>
<path fill="none" stroke="#191970" d="M319.8413,-624.358C325.2363,-621.948 330.3627,-619.0289 335,-615.5 363.1551,-594.0748 341.5785,-564.1501 371,-544.5 425.7851,-507.9099 503.2636,-508.0637 557.1918,-514.2326"/>
<polygon fill="#191970" stroke="#191970" points="556.9572,-517.7303 567.3129,-515.4921 557.8217,-510.7839 556.9572,-517.7303"/>
</g>
<!-- Node15 -->
<g id="node15" class="node">
<title>Node15</title>
<g id="a_node15"><a xlink:href="../../d0/d32/classSubsysReco.html#a6670c0a093dd2c2bdd44f8fc6f9ba8e8" target="_top" xlink:title="SubsysReco::Init">
<polygon fill="none" stroke="#000000" points="392.5,-476.5 392.5,-496.5 492.5,-496.5 492.5,-476.5 392.5,-476.5"/>
<text text-anchor="middle" x="442.5" y="-483.5" font-family="FreeSans" font-size="10.00" fill="#000000">SubsysReco::Init</text>
</a>
</g>
</g>
<!-- Node7&#45;&gt;Node15 -->
<g id="edge15" class="edge">
<title>Node7&#45;&gt;Node15</title>
<path fill="none" stroke="#191970" d="M321.7487,-624.3717C326.5124,-621.9342 330.9892,-619.0071 335,-615.5 371.8216,-583.3028 336.4672,-546.1407 371,-511.5 375.1633,-507.3237 380.062,-503.8434 385.3107,-500.9434"/>
<polygon fill="#191970" stroke="#191970" points="386.897,-504.0645 394.4062,-496.5904 383.8751,-497.7503 386.897,-504.0645"/>
</g>
<!-- Node16 -->
<g id="node16" class="node">
<title>Node16</title>
<g id="a_node16"><a xlink:href="../../d7/d96/classFun4AllMemoryTracker.html#a766ac66dd36ffa4e3fbe6e622923565f" target="_top" xlink:title="Fun4AllMemoryTracker\l::Stop">
<polygon fill="none" stroke="#000000" points="376.5,-605.5 376.5,-637.5 508.5,-637.5 508.5,-605.5 376.5,-605.5"/>
<text text-anchor="start" x="384.5" y="-624.5" font-family="FreeSans" font-size="10.00" fill="#000000">Fun4AllMemoryTracker</text>
<text text-anchor="middle" x="442.5" y="-612.5" font-family="FreeSans" font-size="10.00" fill="#000000">::Stop</text>
</a>
</g>
</g>
<!-- Node7&#45;&gt;Node16 -->
<g id="edge16" class="edge">
<title>Node7&#45;&gt;Node16</title>
<path fill="none" stroke="#191970" d="M335.2603,-628.4187C345.7079,-627.7447 356.2489,-627.0646 366.4314,-626.4076"/>
<polygon fill="#191970" stroke="#191970" points="366.7239,-629.8962 376.4778,-625.7595 366.2732,-622.9107 366.7239,-629.8962"/>
</g>
<!-- Node12 -->
<g id="node12" class="node">
<title>Node12</title>
<g id="a_node12"><a xlink:href="../../d7/d96/classFun4AllMemoryTracker.html#aa8eb9ed150f51165b9abfd456c18a432" target="_top" xlink:title="Fun4AllMemoryTracker\l::CreateFullTrackerName">
<polygon fill="none" stroke="#000000" points="550,-605.5 550,-637.5 690,-637.5 690,-605.5 550,-605.5"/>
<text text-anchor="start" x="558" y="-624.5" font-family="FreeSans" font-size="10.00" fill="#000000">Fun4AllMemoryTracker</text>
<text text-anchor="middle" x="620" y="-612.5" font-family="FreeSans" font-size="10.00" fill="#000000">::CreateFullTrackerName</text>
</a>
</g>
</g>
<!-- Node11&#45;&gt;Node12 -->
<g id="edge12" class="edge">
<title>Node11&#45;&gt;Node12</title>
<path fill="none" stroke="#191970" d="M498.6621,-586.6367C516.3973,-591.7325 536.1488,-597.4075 554.4783,-602.674"/>
<polygon fill="#191970" stroke="#191970" points="553.6255,-606.0706 564.2032,-605.4683 555.5587,-599.3428 553.6255,-606.0706"/>
</g>
<!-- Node13 -->
<g id="node13" class="node">
<title>Node13</title>
<g id="a_node13"><a xlink:href="../../d7/d96/classFun4AllMemoryTracker.html#a4059a8c86c92e1708e5bbdc585af99ed" target="_top" xlink:title="Fun4AllMemoryTracker\l::GetRSSMemory">
<polygon fill="none" stroke="#000000" points="554,-554.5 554,-586.5 686,-586.5 686,-554.5 554,-554.5"/>
<text text-anchor="start" x="562" y="-573.5" font-family="FreeSans" font-size="10.00" fill="#000000">Fun4AllMemoryTracker</text>
<text text-anchor="middle" x="620" y="-561.5" font-family="FreeSans" font-size="10.00" fill="#000000">::GetRSSMemory</text>
</a>
</g>
</g>
<!-- Node11&#45;&gt;Node13 -->
<g id="edge13" class="edge">
<title>Node11&#45;&gt;Node13</title>
<path fill="none" stroke="#191970" d="M508.5944,-570.5C520.0296,-570.5 532.0026,-570.5 543.6825,-570.5"/>
<polygon fill="#191970" stroke="#191970" points="543.8504,-574.0001 553.8504,-570.5 543.8503,-567.0001 543.8504,-574.0001"/>
</g>
<!-- Node11&#45;&gt;Node14 -->
<g id="edge14" class="edge">
<title>Node11&#45;&gt;Node14</title>
<path fill="none" stroke="#191970" d="M505.8298,-554.4445C527.1227,-549.0463 550.5477,-543.1076 570.6083,-538.0218"/>
<polygon fill="#191970" stroke="#191970" points="571.6283,-541.3741 580.4615,-535.5239 569.908,-534.5887 571.6283,-541.3741"/>
</g>
<!-- Node16&#45;&gt;Node12 -->
<g id="edge17" class="edge">
<title>Node16&#45;&gt;Node12</title>
<path fill="none" stroke="#191970" d="M508.5944,-621.5C518.7221,-621.5 529.2716,-621.5 539.6657,-621.5"/>
<polygon fill="#191970" stroke="#191970" points="539.9867,-625.0001 549.9867,-621.5 539.9866,-618.0001 539.9867,-625.0001"/>
</g>
<!-- Node16&#45;&gt;Node13 -->
<g id="edge18" class="edge">
<title>Node16&#45;&gt;Node13</title>
<path fill="none" stroke="#191970" d="M498.6621,-605.3633C516.3973,-600.2675 536.1488,-594.5925 554.4783,-589.326"/>
<polygon fill="#191970" stroke="#191970" points="555.5587,-592.6572 564.2032,-586.5317 553.6255,-585.9294 555.5587,-592.6572"/>
</g>
<!-- Node16&#45;&gt;Node14 -->
<g id="edge19" class="edge">
<title>Node16&#45;&gt;Node14</title>
<path fill="none" stroke="#191970" d="M499.2828,-605.4936C504.4966,-602.9059 509.5013,-599.9257 514,-596.5 536.3635,-579.4707 527.0436,-560.7212 550,-544.5 552.4103,-542.7968 554.9661,-541.2463 557.6204,-539.8346"/>
<polygon fill="#191970" stroke="#191970" points="559.3275,-542.9023 566.9566,-535.5506 556.4081,-536.5401 559.3275,-542.9023"/>
</g>
</g>
</svg>
