<?xml version="1.0" encoding="UTF-8" standalone="no"?>
<!DOCTYPE svg PUBLIC "-//W3C//DTD SVG 1.1//EN"
 "http://www.w3.org/Graphics/SVG/1.1/DTD/svg11.dtd">
<!-- Generated by graphviz version 2.40.1 (20161225.0304)
 -->
<!-- Title: pyxtot Pages: 1 -->
<svg width="1208pt" height="297pt"
 viewBox="0.00 0.00 1208.00 297.15" xmlns="http://www.w3.org/2000/svg" xmlns:xlink="http://www.w3.org/1999/xlink">
<g id="graph0" class="graph" transform="scale(1 1) rotate(0) translate(4 293.1534)">
<title>pyxtot</title>
<!-- Node1 -->
<g id="node1" class="node">
<title>Node1</title>
<polygon fill="#bfbfbf" stroke="#000000" points="0,-242.5 0,-262.5 49,-262.5 49,-242.5 0,-242.5"/>
<text text-anchor="middle" x="24.5" y="-249.5" font-family="FreeSans" font-size="10.00" fill="#000000">pyxtot</text>
</g>
<!-- Node2 -->
<g id="node2" class="node">
<title>Node2</title>
<g id="a_node2"><a xlink:href="../../d6/dcf/pythia6425mod_8f.html#ac81fa418f8cd77b0873b2de2a4140933" target="_top" xlink:title="pyevnt">
<polygon fill="none" stroke="#000000" points="360.5,-127.5 360.5,-147.5 412.5,-147.5 412.5,-127.5 360.5,-127.5"/>
<text text-anchor="middle" x="386.5" y="-134.5" font-family="FreeSans" font-size="10.00" fill="#000000">pyevnt</text>
</a>
</g>
</g>
<!-- Node1&#45;&gt;Node2 -->
<g id="edge1" class="edge">
<title>Node1&#45;&gt;Node2</title>
<path fill="none" stroke="#191970" d="M46.5256,-268.4954C57.5094,-275.4982 71.3408,-282.9248 85,-286.5 101.4149,-290.7965 211.6342,-288.5208 227,-284.5 271.8179,-272.7726 284.4327,-266.3428 319,-235.5 348.7511,-208.9545 372.0084,-166.7339 381.6536,-147.5611"/>
<polygon fill="#191970" stroke="#191970" points="48.2911,-265.4654 38.0353,-262.8066 44.3946,-271.2807 48.2911,-265.4654"/>
</g>
<!-- Node16 -->
<g id="node16" class="node">
<title>Node16</title>
<g id="a_node16"><a xlink:href="../../d6/dcf/pythia6425mod_8f.html#a83ae6561ab82fd7af8b1b3e511f477ac" target="_top" xlink:title="pyevnw">
<polygon fill="none" stroke="#000000" points="263,-166.5 263,-186.5 319,-186.5 319,-166.5 263,-166.5"/>
<text text-anchor="middle" x="291" y="-173.5" font-family="FreeSans" font-size="10.00" fill="#000000">pyevnw</text>
</a>
</g>
</g>
<!-- Node1&#45;&gt;Node16 -->
<g id="edge17" class="edge">
<title>Node1&#45;&gt;Node16</title>
<path fill="none" stroke="#191970" d="M58.7619,-242.7292C112.0222,-227.5406 213.6596,-198.5558 262.8894,-184.5165"/>
<polygon fill="#191970" stroke="#191970" points="57.7507,-239.378 49.094,-245.4863 59.6705,-246.1096 57.7507,-239.378"/>
</g>
<!-- Node17 -->
<g id="node17" class="node">
<title>Node17</title>
<g id="a_node17"><a xlink:href="../../d6/dcf/pythia6425mod_8f.html#ae0f16bcefd12eb1fa5d163c95050c8bb" target="_top" xlink:title="pygaga">
<polygon fill="none" stroke="#000000" points="85,-127.5 85,-147.5 138,-147.5 138,-127.5 85,-127.5"/>
<text text-anchor="middle" x="111.5" y="-134.5" font-family="FreeSans" font-size="10.00" fill="#000000">pygaga</text>
</a>
</g>
</g>
<!-- Node1&#45;&gt;Node17 -->
<g id="edge19" class="edge">
<title>Node1&#45;&gt;Node17</title>
<path fill="none" stroke="#191970" d="M38.3892,-234.1408C56.9763,-209.5716 89.2932,-166.8539 103.9209,-147.5184"/>
<polygon fill="#191970" stroke="#191970" points="35.4627,-232.2079 32.2207,-242.2945 41.0452,-236.4312 35.4627,-232.2079"/>
</g>
<!-- Node18 -->
<g id="node18" class="node">
<title>Node18</title>
<g id="a_node18"><a xlink:href="../../d6/dcf/pythia6425mod_8f.html#aac00ac3ccd923c2c3dc37e2b89a9f025" target="_top" xlink:title="pyinit">
<polygon fill="none" stroke="#000000" points="268.5,-27.5 268.5,-47.5 313.5,-47.5 313.5,-27.5 268.5,-27.5"/>
<text text-anchor="middle" x="291" y="-34.5" font-family="FreeSans" font-size="10.00" fill="#000000">pyinit</text>
</a>
</g>
</g>
<!-- Node1&#45;&gt;Node18 -->
<g id="edge33" class="edge">
<title>Node1&#45;&gt;Node18</title>
<path fill="none" stroke="#191970" d="M29.5797,-232.538C43.1413,-184.2574 85.3583,-62.3629 174,-24.5 204.8233,-11.334 244.1711,-20.3721 268.4715,-28.5687"/>
<polygon fill="#191970" stroke="#191970" points="26.1431,-231.8399 26.9238,-242.4059 32.9026,-233.6592 26.1431,-231.8399"/>
</g>
<!-- Node22 -->
<g id="node22" class="node">
<title>Node22</title>
<g id="a_node22"><a xlink:href="../../d6/dcf/pythia6425mod_8f.html#ae7cb37215e5a38b3fb0529c9996646e6" target="_top" xlink:title="pyupev">
<polygon fill="none" stroke="#000000" points="264,-205.5 264,-225.5 318,-225.5 318,-205.5 264,-205.5"/>
<text text-anchor="middle" x="291" y="-212.5" font-family="FreeSans" font-size="10.00" fill="#000000">pyupev</text>
</a>
</g>
</g>
<!-- Node1&#45;&gt;Node22 -->
<g id="edge34" class="edge">
<title>Node1&#45;&gt;Node22</title>
<path fill="none" stroke="#191970" d="M58.8315,-262.9449C100.0192,-273.6691 170.5747,-286.2325 227,-266.5 250.0671,-258.4332 271.0284,-238.184 282.3007,-225.7639"/>
<polygon fill="#191970" stroke="#191970" points="59.5872,-259.5234 49.0193,-260.2788 57.7517,-266.2784 59.5872,-259.5234"/>
</g>
<!-- Node3 -->
<g id="node3" class="node">
<title>Node3</title>
<g id="a_node3"><a xlink:href="../../d3/dd5/jewel-2_82_80_8f.html#aeb24fa7919aa21c652e9c8f2ec45cb91" target="_top" xlink:title="genevent">
<polygon fill="none" stroke="#000000" points="454,-127.5 454,-147.5 519,-147.5 519,-127.5 454,-127.5"/>
<text text-anchor="middle" x="486.5" y="-134.5" font-family="FreeSans" font-size="10.00" fill="#000000">genevent</text>
</a>
</g>
</g>
<!-- Node2&#45;&gt;Node3 -->
<g id="edge2" class="edge">
<title>Node2&#45;&gt;Node3</title>
<path fill="none" stroke="#191970" d="M422.7245,-137.5C432.8845,-137.5 443.8676,-137.5 453.8092,-137.5"/>
<polygon fill="#191970" stroke="#191970" points="422.5128,-134.0001 412.5128,-137.5 422.5127,-141.0001 422.5128,-134.0001"/>
</g>
<!-- Node15 -->
<g id="node15" class="node">
<title>Node15</title>
<g id="a_node15"><a xlink:href="../../d6/dcf/pythia6425mod_8f.html#a4cc0e611278607d6b413b5cecdfe16c3" target="_top" xlink:title="pytest">
<polygon fill="none" stroke="#000000" points="462.5,-88.5 462.5,-108.5 510.5,-108.5 510.5,-88.5 462.5,-88.5"/>
<text text-anchor="middle" x="486.5" y="-95.5" font-family="FreeSans" font-size="10.00" fill="#000000">pytest</text>
</a>
</g>
</g>
<!-- Node2&#45;&gt;Node15 -->
<g id="edge16" class="edge">
<title>Node2&#45;&gt;Node15</title>
<path fill="none" stroke="#191970" d="M421.6727,-123.7826C435.0747,-118.5559 450.0392,-112.7197 462.211,-107.9727"/>
<polygon fill="#191970" stroke="#191970" points="420.2973,-120.5622 412.2525,-127.4565 422.8408,-127.0838 420.2973,-120.5622"/>
</g>
<!-- Node4 -->
<g id="node4" class="node">
<title>Node4</title>
<g id="a_node4"><a xlink:href="../../dd/d2a/classPHHepMCGenHelper.html#ab0c755f6e53c0bf57ccd314a0017d227" target="_top" xlink:title="send HepMC::GenEvent to DST tree. This function takes ownership of evt">
<polygon fill="none" stroke="#000000" points="584,-105.5 584,-137.5 740,-137.5 740,-105.5 584,-105.5"/>
<text text-anchor="start" x="592" y="-124.5" font-family="FreeSans" font-size="10.00" fill="#000000">PHHepMCGenHelper::insert</text>
<text text-anchor="middle" x="662" y="-112.5" font-family="FreeSans" font-size="10.00" fill="#000000">_event</text>
</a>
</g>
</g>
<!-- Node3&#45;&gt;Node4 -->
<g id="edge3" class="edge">
<title>Node3&#45;&gt;Node4</title>
<path fill="none" stroke="#191970" d="M529.413,-133.5877C545.7869,-132.0949 565.0089,-130.3425 583.6575,-128.6423"/>
<polygon fill="#191970" stroke="#191970" points="528.7398,-130.1345 519.0989,-134.528 529.3754,-137.1056 528.7398,-130.1345"/>
</g>
<!-- Node9 -->
<g id="node9" class="node">
<title>Node9</title>
<g id="a_node9"><a xlink:href="../../d9/d3a/classPHPythia8.html#a5cc4124cc6be2fb2467714e3d3bc5a6a" target="_top" xlink:title="PHPythia8::process\l_event">
<polygon fill="none" stroke="#000000" points="840,-.5 840,-32.5 953,-32.5 953,-.5 840,-.5"/>
<text text-anchor="start" x="848" y="-19.5" font-family="FreeSans" font-size="10.00" fill="#000000">PHPythia8::process</text>
<text text-anchor="middle" x="896.5" y="-7.5" font-family="FreeSans" font-size="10.00" fill="#000000">_event</text>
</a>
</g>
</g>
<!-- Node3&#45;&gt;Node9 -->
<g id="edge14" class="edge">
<title>Node3&#45;&gt;Node9</title>
<path fill="none" stroke="#191970" d="M511.6114,-122.0309C530.9107,-110.1534 554.3884,-95.7338 555,-95.5 645.3039,-60.9779 676.2912,-83.9161 769,-56.5 785.6218,-51.5846 788.6062,-47.1291 805,-41.5 816.0583,-37.7029 828.0209,-34.0891 839.5355,-30.8489"/>
<polygon fill="#191970" stroke="#191970" points="509.5445,-119.1932 502.8639,-127.4163 513.2144,-125.1541 509.5445,-119.1932"/>
</g>
<!-- Node10 -->
<g id="node10" class="node">
<title>Node10</title>
<g id="a_node10"><a xlink:href="../../da/df0/classPHSartre.html#aafe9fd92317ab1f7eee67a9354696c4e" target="_top" xlink:title="PHSartre::process_event">
<polygon fill="none" stroke="#000000" points="826.5,-243.5 826.5,-263.5 966.5,-263.5 966.5,-243.5 826.5,-243.5"/>
<text text-anchor="middle" x="896.5" y="-250.5" font-family="FreeSans" font-size="10.00" fill="#000000">PHSartre::process_event</text>
</a>
</g>
</g>
<!-- Node3&#45;&gt;Node10 -->
<g id="edge13" class="edge">
<title>Node3&#45;&gt;Node10</title>
<path fill="none" stroke="#191970" d="M495.4907,-156.8682C506.3534,-177.8073 526.7517,-210.2295 555,-225.5 639.7751,-271.3279 754.011,-270.3675 826.473,-263.4834"/>
<polygon fill="#191970" stroke="#191970" points="498.4979,-155.0531 490.9315,-147.6369 492.2216,-158.1529 498.4979,-155.0531"/>
</g>
<!-- Node12 -->
<g id="node12" class="node">
<title>Node12</title>
<g id="a_node12"><a xlink:href="../../d3/dd5/jewel-2_82_80_8f.html#a15e2df3184692bfe4ca2261638190094" target="_top" xlink:title="jewel">
<polygon fill="none" stroke="#000000" points="640.5,-27.5 640.5,-47.5 683.5,-47.5 683.5,-27.5 640.5,-27.5"/>
<text text-anchor="middle" x="662" y="-34.5" font-family="FreeSans" font-size="10.00" fill="#000000">jewel</text>
</a>
</g>
</g>
<!-- Node3&#45;&gt;Node12 -->
<g id="edge11" class="edge">
<title>Node3&#45;&gt;Node12</title>
<path fill="none" stroke="#191970" d="M514.4342,-121.4994C516.0379,-120.2212 517.5751,-118.8857 519,-117.5 539.9446,-97.132 531.0601,-79.2456 555,-62.5 580.6365,-44.5677 617.3391,-39.3511 640.4081,-37.9177"/>
<polygon fill="#191970" stroke="#191970" points="512.241,-118.7629 506.0743,-127.3782 516.2676,-124.4888 512.241,-118.7629"/>
</g>
<!-- Node13 -->
<g id="node13" class="node">
<title>Node13</title>
<g id="a_node13"><a xlink:href="../../d7/df5/pepsiMaineRHIC__noradcorr_8f.html#ac2ed0c0080f3e6d946824efb82e28ab5" target="_top" xlink:title="pepsimainerhic">
<polygon fill="none" stroke="#000000" points="615,-195.5 615,-215.5 709,-215.5 709,-195.5 615,-195.5"/>
<text text-anchor="middle" x="662" y="-202.5" font-family="FreeSans" font-size="10.00" fill="#000000">pepsimainerhic</text>
</a>
</g>
</g>
<!-- Node3&#45;&gt;Node13 -->
<g id="edge12" class="edge">
<title>Node3&#45;&gt;Node13</title>
<path fill="none" stroke="#191970" d="M505.493,-154.1673C518.5538,-164.7442 536.7714,-177.836 555,-185.5 573.8147,-193.4104 595.7982,-198.206 614.9282,-201.107"/>
<polygon fill="#191970" stroke="#191970" points="507.6249,-151.3877 497.7067,-147.6623 503.137,-156.7597 507.6249,-151.3877"/>
</g>
<!-- Node14 -->
<g id="node14" class="node">
<title>Node14</title>
<g id="a_node14"><a xlink:href="../../de/d99/classFun4AllHepMCPileupInputManager.html#a81bf2b69c3c4d3aae0aadebafe1c2c2e" target="_top" xlink:title="Fun4AllHepMCPileupInputManager::run">
<polygon fill="none" stroke="#000000" points="555,-156.5 555,-176.5 769,-176.5 769,-156.5 555,-156.5"/>
<text text-anchor="middle" x="662" y="-163.5" font-family="FreeSans" font-size="10.00" fill="#000000">Fun4AllHepMCPileupInputManager::run</text>
</a>
</g>
</g>
<!-- Node3&#45;&gt;Node14 -->
<g id="edge15" class="edge">
<title>Node3&#45;&gt;Node14</title>
<path fill="none" stroke="#191970" d="M528.9764,-144.5189C550.6355,-148.0979 577.3629,-152.5144 601.165,-156.4475"/>
<polygon fill="#191970" stroke="#191970" points="529.5358,-141.0639 519.0989,-142.8867 528.3945,-147.9703 529.5358,-141.0639"/>
</g>
<!-- Node5 -->
<g id="node5" class="node">
<title>Node5</title>
<g id="a_node5"><a xlink:href="../../d6/d6f/classFun4AllHepMCInputManager.html#ab6c80a8ee0701bfff5eee3ec3623015c" target="_top" xlink:title="Fun4AllHepMCInputManager::run">
<polygon fill="none" stroke="#000000" points="805,-153.5 805,-173.5 988,-173.5 988,-153.5 805,-153.5"/>
<text text-anchor="middle" x="896.5" y="-160.5" font-family="FreeSans" font-size="10.00" fill="#000000">Fun4AllHepMCInputManager::run</text>
</a>
</g>
</g>
<!-- Node4&#45;&gt;Node5 -->
<g id="edge4" class="edge">
<title>Node4&#45;&gt;Node5</title>
<path fill="none" stroke="#191970" d="M750.2432,-137.3048C780.5461,-142.7321 813.607,-148.6535 840.6177,-153.4912"/>
<polygon fill="#191970" stroke="#191970" points="750.5455,-133.8033 740.0851,-135.4854 749.3114,-140.6936 750.5455,-133.8033"/>
</g>
<!-- Node6 -->
<g id="node6" class="node">
<title>Node6</title>
<g id="a_node6"><a xlink:href="../../db/d1f/classFun4AllOscarInputManager.html#a1537e89c4e652f70747fbbef18ceadc4" target="_top" xlink:title="Fun4AllOscarInputManager\l::ConvertFromOscar">
<polygon fill="none" stroke="#000000" points="819.5,-102.5 819.5,-134.5 973.5,-134.5 973.5,-102.5 819.5,-102.5"/>
<text text-anchor="start" x="827.5" y="-121.5" font-family="FreeSans" font-size="10.00" fill="#000000">Fun4AllOscarInputManager</text>
<text text-anchor="middle" x="896.5" y="-109.5" font-family="FreeSans" font-size="10.00" fill="#000000">::ConvertFromOscar</text>
</a>
</g>
</g>
<!-- Node4&#45;&gt;Node6 -->
<g id="edge5" class="edge">
<title>Node4&#45;&gt;Node6</title>
<path fill="none" stroke="#191970" d="M750.3585,-120.3696C772.9812,-120.0802 797.1342,-119.7712 819.155,-119.4895"/>
<polygon fill="#191970" stroke="#191970" points="750.0395,-116.8733 740.0851,-120.501 750.1291,-123.8727 750.0395,-116.8733"/>
</g>
<!-- Node8 -->
<g id="node8" class="node">
<title>Node8</title>
<g id="a_node8"><a xlink:href="../../dd/da8/classPHPythia6.html#a7a70bdd1c198a83ed143d3e2c4516d0d" target="_top" xlink:title="PHPythia6::process\l_event">
<polygon fill="none" stroke="#000000" points="840,-51.5 840,-83.5 953,-83.5 953,-51.5 840,-51.5"/>
<text text-anchor="start" x="848" y="-70.5" font-family="FreeSans" font-size="10.00" fill="#000000">PHPythia6::process</text>
<text text-anchor="middle" x="896.5" y="-58.5" font-family="FreeSans" font-size="10.00" fill="#000000">_event</text>
</a>
</g>
</g>
<!-- Node4&#45;&gt;Node8 -->
<g id="edge7" class="edge">
<title>Node4&#45;&gt;Node8</title>
<path fill="none" stroke="#191970" d="M741.5665,-103.1776C773.764,-95.7633 810.2038,-87.3721 839.6511,-80.591"/>
<polygon fill="#191970" stroke="#191970" points="740.6823,-99.7896 731.7228,-105.4444 742.2532,-106.611 740.6823,-99.7896"/>
</g>
<!-- Node4&#45;&gt;Node9 -->
<g id="edge8" class="edge">
<title>Node4&#45;&gt;Node9</title>
<path fill="none" stroke="#191970" d="M749.6201,-101.4533C756.4451,-98.3133 763.0041,-94.6869 769,-90.5 791.1563,-75.0284 782.7261,-56.8019 805,-41.5 815.3157,-34.4132 827.5708,-29.3309 839.7046,-25.6874"/>
<polygon fill="#191970" stroke="#191970" points="748.0273,-98.3266 740.1763,-105.4408 750.7502,-104.7753 748.0273,-98.3266"/>
</g>
<!-- Node4&#45;&gt;Node10 -->
<g id="edge9" class="edge">
<title>Node4&#45;&gt;Node10</title>
<path fill="none" stroke="#191970" d="M749.8242,-134.4007C756.7437,-137.6294 763.2614,-141.6073 769,-146.5 801.1562,-173.9164 772.5065,-207.4842 805,-234.5 811.2378,-239.6862 818.5294,-243.5714 826.2252,-246.4658"/>
<polygon fill="#191970" stroke="#191970" points="750.7555,-130.9999 740.1751,-130.4465 748.1011,-137.4771 750.7555,-130.9999"/>
</g>
<!-- Node11 -->
<g id="node11" class="node">
<title>Node11</title>
<g id="a_node11"><a xlink:href="../../d3/d49/classReadEICFiles.html#a49106bf9561329777334154092890af2" target="_top" xlink:title="ReadEICFiles::process\l_event">
<polygon fill="none" stroke="#000000" points="833.5,-192.5 833.5,-224.5 959.5,-224.5 959.5,-192.5 833.5,-192.5"/>
<text text-anchor="start" x="841.5" y="-211.5" font-family="FreeSans" font-size="10.00" fill="#000000">ReadEICFiles::process</text>
<text text-anchor="middle" x="896.5" y="-199.5" font-family="FreeSans" font-size="10.00" fill="#000000">_event</text>
</a>
</g>
</g>
<!-- Node4&#45;&gt;Node11 -->
<g id="edge10" class="edge">
<title>Node4&#45;&gt;Node11</title>
<path fill="none" stroke="#191970" d="M749.9791,-137.7731C756.5874,-140.2783 763.007,-143.1677 769,-146.5 788.7759,-157.496 785.4898,-171.0391 805,-182.5 813.6859,-187.6024 823.4277,-191.7494 833.2288,-195.1066"/>
<polygon fill="#191970" stroke="#191970" points="750.7849,-134.3478 740.1901,-134.3708 748.4868,-140.9598 750.7849,-134.3478"/>
</g>
<!-- Node7 -->
<g id="node7" class="node">
<title>Node7</title>
<g id="a_node7"><a xlink:href="../../db/d1f/classFun4AllOscarInputManager.html#a4be602bd8c9fe73f9dcc81c8871784a6" target="_top" xlink:title="Fun4AllOscarInputManager::run">
<polygon fill="none" stroke="#000000" points="1024,-108.5 1024,-128.5 1200,-128.5 1200,-108.5 1024,-108.5"/>
<text text-anchor="middle" x="1112" y="-115.5" font-family="FreeSans" font-size="10.00" fill="#000000">Fun4AllOscarInputManager::run</text>
</a>
</g>
</g>
<!-- Node6&#45;&gt;Node7 -->
<g id="edge6" class="edge">
<title>Node6&#45;&gt;Node7</title>
<path fill="none" stroke="#191970" d="M983.7391,-118.5C997.0061,-118.5 1010.7039,-118.5 1023.9873,-118.5"/>
<polygon fill="#191970" stroke="#191970" points="983.6918,-115.0001 973.6918,-118.5 983.6917,-122.0001 983.6918,-115.0001"/>
</g>
<!-- Node16&#45;&gt;Node2 -->
<g id="edge18" class="edge">
<title>Node16&#45;&gt;Node2</title>
<path fill="none" stroke="#191970" d="M325.0334,-162.6015C337.2385,-157.6173 350.7501,-152.0995 361.9897,-147.5094"/>
<polygon fill="#191970" stroke="#191970" points="323.5282,-159.4356 315.5936,-166.4565 326.1747,-165.916 323.5282,-159.4356"/>
</g>
<!-- Node17&#45;&gt;Node2 -->
<g id="edge20" class="edge">
<title>Node17&#45;&gt;Node2</title>
<path fill="none" stroke="#191970" d="M146.5218,-124.1987C155.3607,-121.4263 164.9219,-118.9171 174,-117.5 240.6339,-107.0984 319.927,-121.5952 360.2007,-130.8453"/>
<polygon fill="#191970" stroke="#191970" points="145.2965,-120.9177 136.9136,-127.3967 147.5072,-127.5595 145.2965,-120.9177"/>
</g>
<!-- Node17&#45;&gt;Node16 -->
<g id="edge21" class="edge">
<title>Node17&#45;&gt;Node16</title>
<path fill="none" stroke="#191970" d="M147.7674,-149.3678C156.3147,-151.9298 165.4328,-154.474 174,-156.5 204.081,-163.6135 239.0796,-169.2574 262.9055,-172.7115"/>
<polygon fill="#191970" stroke="#191970" points="148.6502,-145.9776 138.0631,-146.3822 146.5917,-152.6681 148.6502,-145.9776"/>
</g>
<!-- Node17&#45;&gt;Node18 -->
<g id="edge22" class="edge">
<title>Node17&#45;&gt;Node18</title>
<path fill="none" stroke="#191970" d="M117.6599,-117.7673C126.15,-94.341 143.9147,-56.3318 174,-39.5 203.2535,-23.1336 243.4016,-27.0336 268.248,-31.8744"/>
<polygon fill="#191970" stroke="#191970" points="114.2984,-116.7818 114.4008,-127.3762 120.9275,-119.0303 114.2984,-116.7818"/>
</g>
<!-- Node20 -->
<g id="node20" class="node">
<title>Node20</title>
<g id="a_node20"><a xlink:href="../../d6/dcf/pythia6425mod_8f.html#aa9cb6f1467302508501201a0e38959d1" target="_top" xlink:title="pymaxi">
<polygon fill="none" stroke="#000000" points="174,-49.5 174,-69.5 227,-69.5 227,-49.5 174,-49.5"/>
<text text-anchor="middle" x="200.5" y="-56.5" font-family="FreeSans" font-size="10.00" fill="#000000">pymaxi</text>
</a>
</g>
</g>
<!-- Node17&#45;&gt;Node20 -->
<g id="edge26" class="edge">
<title>Node17&#45;&gt;Node20</title>
<path fill="none" stroke="#191970" d="M131.1136,-120.3106C148.7949,-104.8146 174.2024,-82.5474 188.8619,-69.6996"/>
<polygon fill="#191970" stroke="#191970" points="128.3489,-118.0796 123.1352,-127.3029 132.9626,-123.344 128.3489,-118.0796"/>
</g>
<!-- Node21 -->
<g id="node21" class="node">
<title>Node21</title>
<g id="a_node21"><a xlink:href="../../d6/dcf/pythia6425mod_8f.html#a2d74d5dd64881524212b3720af2696de" target="_top" xlink:title="pyrand">
<polygon fill="none" stroke="#000000" points="175,-127.5 175,-147.5 226,-147.5 226,-127.5 175,-127.5"/>
<text text-anchor="middle" x="200.5" y="-134.5" font-family="FreeSans" font-size="10.00" fill="#000000">pyrand</text>
</a>
</g>
</g>
<!-- Node17&#45;&gt;Node21 -->
<g id="edge28" class="edge">
<title>Node17&#45;&gt;Node21</title>
<path fill="none" stroke="#191970" d="M148.3348,-137.5C157.2045,-137.5 166.493,-137.5 174.7332,-137.5"/>
<polygon fill="#191970" stroke="#191970" points="148.203,-134.0001 138.2029,-137.5 148.2029,-141.0001 148.203,-134.0001"/>
</g>
<!-- Node17&#45;&gt;Node22 -->
<g id="edge32" class="edge">
<title>Node17&#45;&gt;Node22</title>
<path fill="none" stroke="#191970" d="M134.395,-153.6093C145.911,-161.2326 160.3026,-170.0546 174,-176.5 203.6415,-190.448 239.6438,-201.6543 263.8159,-208.414"/>
<polygon fill="#191970" stroke="#191970" points="136.0873,-150.5283 125.8442,-147.8208 132.1632,-156.325 136.0873,-150.5283"/>
</g>
<!-- Node18&#45;&gt;Node15 -->
<g id="edge25" class="edge">
<title>Node18&#45;&gt;Node15</title>
<path fill="none" stroke="#191970" d="M323.3961,-47.6082C362.4883,-59.8058 427.3146,-80.0329 462.3095,-90.9521"/>
<polygon fill="#191970" stroke="#191970" points="324.3976,-44.2544 313.8089,-44.6169 322.3125,-50.9366 324.3976,-44.2544"/>
</g>
<!-- Node19 -->
<g id="node19" class="node">
<title>Node19</title>
<g id="a_node19"><a xlink:href="../../d3/dd5/jewel-2_82_80_8f.html#a2cba90a4cdaaf1d5de1cf1bfe9afaa2e" target="_top" xlink:title="initpythia">
<polygon fill="none" stroke="#000000" points="355,-27.5 355,-47.5 418,-47.5 418,-27.5 355,-27.5"/>
<text text-anchor="middle" x="386.5" y="-34.5" font-family="FreeSans" font-size="10.00" fill="#000000">initpythia</text>
</a>
</g>
</g>
<!-- Node18&#45;&gt;Node19 -->
<g id="edge23" class="edge">
<title>Node18&#45;&gt;Node19</title>
<path fill="none" stroke="#191970" d="M323.7261,-37.5C333.8443,-37.5 344.9646,-37.5 354.9982,-37.5"/>
<polygon fill="#191970" stroke="#191970" points="323.6322,-34.0001 313.6322,-37.5 323.6321,-41.0001 323.6322,-34.0001"/>
</g>
<!-- Node19&#45;&gt;Node12 -->
<g id="edge24" class="edge">
<title>Node19&#45;&gt;Node12</title>
<path fill="none" stroke="#191970" d="M428.269,-37.5C487.6794,-37.5 594.4478,-37.5 640.2094,-37.5"/>
<polygon fill="#191970" stroke="#191970" points="428.1034,-34.0001 418.1034,-37.5 428.1033,-41.0001 428.1034,-34.0001"/>
</g>
<!-- Node20&#45;&gt;Node18 -->
<g id="edge27" class="edge">
<title>Node20&#45;&gt;Node18</title>
<path fill="none" stroke="#191970" d="M237.0745,-50.609C247.7082,-48.024 259.0059,-45.2776 268.4984,-42.97"/>
<polygon fill="#191970" stroke="#191970" points="236.0537,-47.2551 227.1635,-53.0183 237.7073,-54.057 236.0537,-47.2551"/>
</g>
<!-- Node21&#45;&gt;Node2 -->
<g id="edge29" class="edge">
<title>Node21&#45;&gt;Node2</title>
<path fill="none" stroke="#191970" d="M236.5172,-137.5C272.8017,-137.5 327.9166,-137.5 360.2575,-137.5"/>
<polygon fill="#191970" stroke="#191970" points="236.3625,-134.0001 226.3625,-137.5 236.3625,-141.0001 236.3625,-134.0001"/>
</g>
<!-- Node21&#45;&gt;Node16 -->
<g id="edge30" class="edge">
<title>Node21&#45;&gt;Node16</title>
<path fill="none" stroke="#191970" d="M233.0955,-151.5467C244.571,-156.4919 257.2272,-161.946 267.773,-166.4906"/>
<polygon fill="#191970" stroke="#191970" points="234.3747,-148.2868 223.806,-147.5435 231.6044,-154.7153 234.3747,-148.2868"/>
</g>
<!-- Node21&#45;&gt;Node22 -->
<g id="edge31" class="edge">
<title>Node21&#45;&gt;Node22</title>
<path fill="none" stroke="#191970" d="M217.4769,-154.9517C229.6783,-167.1318 246.7726,-183.4739 263,-196.5 266.8482,-199.5891 271.1857,-202.6966 275.277,-205.4779"/>
<polygon fill="#191970" stroke="#191970" points="219.7465,-152.2694 210.2237,-147.6254 214.772,-157.1943 219.7465,-152.2694"/>
</g>
</g>
</svg>
