<?xml version="1.0" encoding="UTF-8" standalone="no"?>
<!DOCTYPE svg PUBLIC "-//W3C//DTD SVG 1.1//EN"
 "http://www.w3.org/Graphics/SVG/1.1/DTD/svg11.dtd">
<!-- Generated by graphviz version 2.40.1 (20161225.0304)
 -->
<!-- Title: upevnt Pages: 1 -->
<svg width="1109pt" height="382pt"
 viewBox="0.00 0.00 1109.00 382.00" xmlns="http://www.w3.org/2000/svg" xmlns:xlink="http://www.w3.org/1999/xlink">
<g id="graph0" class="graph" transform="scale(1 1) rotate(0) translate(4 378)">
<title>upevnt</title>
<!-- Node1 -->
<g id="node1" class="node">
<title>Node1</title>
<polygon fill="#bfbfbf" stroke="#000000" points="0,-58.5 0,-78.5 52,-78.5 52,-58.5 0,-58.5"/>
<text text-anchor="middle" x="26" y="-65.5" font-family="FreeSans" font-size="10.00" fill="#000000">upevnt</text>
</g>
<!-- Node2 -->
<g id="node2" class="node">
<title>Node2</title>
<g id="a_node2"><a xlink:href="../../d6/dcf/pythia6425mod_8f.html#a2d74d5dd64881524212b3720af2696de" target="_top" xlink:title="pyrand">
<polygon fill="none" stroke="#000000" points="88,-58.5 88,-78.5 139,-78.5 139,-58.5 88,-58.5"/>
<text text-anchor="middle" x="113.5" y="-65.5" font-family="FreeSans" font-size="10.00" fill="#000000">pyrand</text>
</a>
</g>
</g>
<!-- Node1&#45;&gt;Node2 -->
<g id="edge1" class="edge">
<title>Node1&#45;&gt;Node2</title>
<path fill="none" stroke="#191970" d="M62.4053,-68.5C70.9602,-68.5 79.9008,-68.5 87.8678,-68.5"/>
<polygon fill="#191970" stroke="#191970" points="62.2529,-65.0001 52.2529,-68.5 62.2529,-72.0001 62.2529,-65.0001"/>
</g>
<!-- Node3 -->
<g id="node3" class="node">
<title>Node3</title>
<g id="a_node3"><a xlink:href="../../d6/dcf/pythia6425mod_8f.html#ac81fa418f8cd77b0873b2de2a4140933" target="_top" xlink:title="pyevnt">
<polygon fill="none" stroke="#000000" points="267,-77.5 267,-97.5 319,-97.5 319,-77.5 267,-77.5"/>
<text text-anchor="middle" x="293" y="-84.5" font-family="FreeSans" font-size="10.00" fill="#000000">pyevnt</text>
</a>
</g>
</g>
<!-- Node2&#45;&gt;Node3 -->
<g id="edge2" class="edge">
<title>Node2&#45;&gt;Node3</title>
<path fill="none" stroke="#191970" d="M149.3905,-72.299C184.0637,-75.9691 235.7569,-81.4408 266.746,-84.721"/>
<polygon fill="#191970" stroke="#191970" points="149.5309,-68.7944 139.218,-71.2222 148.794,-75.7555 149.5309,-68.7944"/>
</g>
<!-- Node17 -->
<g id="node17" class="node">
<title>Node17</title>
<g id="a_node17"><a xlink:href="../../d6/dcf/pythia6425mod_8f.html#a83ae6561ab82fd7af8b1b3e511f477ac" target="_top" xlink:title="pyevnw">
<polygon fill="none" stroke="#000000" points="175,-97.5 175,-117.5 231,-117.5 231,-97.5 175,-97.5"/>
<text text-anchor="middle" x="203" y="-104.5" font-family="FreeSans" font-size="10.00" fill="#000000">pyevnw</text>
</a>
</g>
</g>
<!-- Node2&#45;&gt;Node17 -->
<g id="edge18" class="edge">
<title>Node2&#45;&gt;Node17</title>
<path fill="none" stroke="#191970" d="M145.7353,-82.5467C157.084,-87.4919 169.6004,-92.946 180.0296,-97.4906"/>
<polygon fill="#191970" stroke="#191970" points="147.1141,-79.3297 136.5485,-78.5435 144.3177,-85.7469 147.1141,-79.3297"/>
</g>
<!-- Node18 -->
<g id="node18" class="node">
<title>Node18</title>
<g id="a_node18"><a xlink:href="../../d6/dcf/pythia6425mod_8f.html#ae7cb37215e5a38b3fb0529c9996646e6" target="_top" xlink:title="pyupev">
<polygon fill="none" stroke="#000000" points="176,-19.5 176,-39.5 230,-39.5 230,-19.5 176,-19.5"/>
<text text-anchor="middle" x="203" y="-26.5" font-family="FreeSans" font-size="10.00" fill="#000000">pyupev</text>
</a>
</g>
</g>
<!-- Node2&#45;&gt;Node18 -->
<g id="edge20" class="edge">
<title>Node2&#45;&gt;Node18</title>
<path fill="none" stroke="#191970" d="M145.7353,-54.4533C157.084,-49.5081 169.6004,-44.054 180.0296,-39.5094"/>
<polygon fill="#191970" stroke="#191970" points="144.3177,-51.2531 136.5485,-58.4565 147.1141,-57.6703 144.3177,-51.2531"/>
</g>
<!-- Node4 -->
<g id="node4" class="node">
<title>Node4</title>
<g id="a_node4"><a xlink:href="../../d3/dd5/jewel-2_82_80_8f.html#aeb24fa7919aa21c652e9c8f2ec45cb91" target="_top" xlink:title="genevent">
<polygon fill="none" stroke="#000000" points="355,-97.5 355,-117.5 420,-117.5 420,-97.5 355,-97.5"/>
<text text-anchor="middle" x="387.5" y="-104.5" font-family="FreeSans" font-size="10.00" fill="#000000">genevent</text>
</a>
</g>
</g>
<!-- Node3&#45;&gt;Node4 -->
<g id="edge3" class="edge">
<title>Node3&#45;&gt;Node4</title>
<path fill="none" stroke="#191970" d="M329.0512,-95.1299C337.5024,-96.9185 346.4608,-98.8145 354.7582,-100.5705"/>
<polygon fill="#191970" stroke="#191970" points="329.5807,-91.6645 319.0727,-93.018 328.1313,-98.5128 329.5807,-91.6645"/>
</g>
<!-- Node16 -->
<g id="node16" class="node">
<title>Node16</title>
<g id="a_node16"><a xlink:href="../../d6/dcf/pythia6425mod_8f.html#a4cc0e611278607d6b413b5cecdfe16c3" target="_top" xlink:title="pytest">
<polygon fill="none" stroke="#000000" points="363.5,-58.5 363.5,-78.5 411.5,-78.5 411.5,-58.5 363.5,-58.5"/>
<text text-anchor="middle" x="387.5" y="-65.5" font-family="FreeSans" font-size="10.00" fill="#000000">pytest</text>
</a>
</g>
</g>
<!-- Node3&#45;&gt;Node16 -->
<g id="edge17" class="edge">
<title>Node3&#45;&gt;Node16</title>
<path fill="none" stroke="#191970" d="M328.9023,-80.2815C340.4551,-77.9588 352.9698,-75.4426 363.456,-73.3342"/>
<polygon fill="#191970" stroke="#191970" points="328.1866,-76.8553 319.0727,-82.2579 329.5664,-83.718 328.1866,-76.8553"/>
</g>
<!-- Node5 -->
<g id="node5" class="node">
<title>Node5</title>
<g id="a_node5"><a xlink:href="../../dd/d2a/classPHHepMCGenHelper.html#ab0c755f6e53c0bf57ccd314a0017d227" target="_top" xlink:title="send HepMC::GenEvent to DST tree. This function takes ownership of evt">
<polygon fill="none" stroke="#000000" points="485,-200.5 485,-232.5 641,-232.5 641,-200.5 485,-200.5"/>
<text text-anchor="start" x="493" y="-219.5" font-family="FreeSans" font-size="10.00" fill="#000000">PHHepMCGenHelper::insert</text>
<text text-anchor="middle" x="563" y="-207.5" font-family="FreeSans" font-size="10.00" fill="#000000">_event</text>
</a>
</g>
</g>
<!-- Node4&#45;&gt;Node5 -->
<g id="edge4" class="edge">
<title>Node4&#45;&gt;Node5</title>
<path fill="none" stroke="#191970" d="M400.7159,-125.7086C413.2974,-141.8683 433.5948,-165.0879 456,-179.5 469.4728,-188.1663 485.2119,-195.0647 500.4089,-200.4424"/>
<polygon fill="#191970" stroke="#191970" points="403.3775,-123.4254 394.5557,-117.5581 397.7932,-127.6462 403.3775,-123.4254"/>
</g>
<!-- Node10 -->
<g id="node10" class="node">
<title>Node10</title>
<g id="a_node10"><a xlink:href="../../d9/d3a/classPHPythia8.html#a5cc4124cc6be2fb2467714e3d3bc5a6a" target="_top" xlink:title="PHPythia8::process\l_event">
<polygon fill="none" stroke="#000000" points="741,-149.5 741,-181.5 854,-181.5 854,-149.5 741,-149.5"/>
<text text-anchor="start" x="749" y="-168.5" font-family="FreeSans" font-size="10.00" fill="#000000">PHPythia8::process</text>
<text text-anchor="middle" x="797.5" y="-156.5" font-family="FreeSans" font-size="10.00" fill="#000000">_event</text>
</a>
</g>
</g>
<!-- Node4&#45;&gt;Node10 -->
<g id="edge15" class="edge">
<title>Node4&#45;&gt;Node10</title>
<path fill="none" stroke="#191970" d="M427.377,-120.4043C436.6935,-123.0664 446.6326,-125.626 456,-127.5 555.1492,-147.335 672.7129,-157.5629 740.8404,-162.2102"/>
<polygon fill="#191970" stroke="#191970" points="428.1506,-116.9832 417.5685,-117.5029 426.1649,-123.6957 428.1506,-116.9832"/>
</g>
<!-- Node11 -->
<g id="node11" class="node">
<title>Node11</title>
<g id="a_node11"><a xlink:href="../../da/df0/classPHSartre.html#aafe9fd92317ab1f7eee67a9354696c4e" target="_top" xlink:title="PHSartre::process_event">
<polygon fill="none" stroke="#000000" points="727.5,-110.5 727.5,-130.5 867.5,-130.5 867.5,-110.5 727.5,-110.5"/>
<text text-anchor="middle" x="797.5" y="-117.5" font-family="FreeSans" font-size="10.00" fill="#000000">PHSartre::process_event</text>
</a>
</g>
</g>
<!-- Node4&#45;&gt;Node11 -->
<g id="edge14" class="edge">
<title>Node4&#45;&gt;Node11</title>
<path fill="none" stroke="#191970" d="M430.2904,-108.8568C500.752,-111.0909 641.8743,-115.5655 727.1815,-118.2704"/>
<polygon fill="#191970" stroke="#191970" points="430.1206,-105.3497 420.0147,-108.531 429.8987,-112.3462 430.1206,-105.3497"/>
</g>
<!-- Node13 -->
<g id="node13" class="node">
<title>Node13</title>
<g id="a_node13"><a xlink:href="../../d3/dd5/jewel-2_82_80_8f.html#a15e2df3184692bfe4ca2261638190094" target="_top" xlink:title="jewel">
<polygon fill="none" stroke="#000000" points="541.5,-78.5 541.5,-98.5 584.5,-98.5 584.5,-78.5 541.5,-78.5"/>
<text text-anchor="middle" x="563" y="-85.5" font-family="FreeSans" font-size="10.00" fill="#000000">jewel</text>
</a>
</g>
</g>
<!-- Node4&#45;&gt;Node13 -->
<g id="edge12" class="edge">
<title>Node4&#45;&gt;Node13</title>
<path fill="none" stroke="#191970" d="M430.0917,-102.8889C465.2596,-99.0816 513.7295,-93.8341 541.3696,-90.8418"/>
<polygon fill="#191970" stroke="#191970" points="429.6641,-99.4147 420.0989,-103.9708 430.4176,-106.374 429.6641,-99.4147"/>
</g>
<!-- Node14 -->
<g id="node14" class="node">
<title>Node14</title>
<g id="a_node14"><a xlink:href="../../d7/df5/pepsiMaineRHIC__noradcorr_8f.html#ac2ed0c0080f3e6d946824efb82e28ab5" target="_top" xlink:title="pepsimainerhic">
<polygon fill="none" stroke="#000000" points="516,-39.5 516,-59.5 610,-59.5 610,-39.5 516,-39.5"/>
<text text-anchor="middle" x="563" y="-46.5" font-family="FreeSans" font-size="10.00" fill="#000000">pepsimainerhic</text>
</a>
</g>
</g>
<!-- Node4&#45;&gt;Node14 -->
<g id="edge13" class="edge">
<title>Node4&#45;&gt;Node14</title>
<path fill="none" stroke="#191970" d="M412.3961,-92.1373C428.1596,-82.6452 447.1775,-71.6871 456,-68.5 474.9868,-61.6412 496.7945,-57.1966 515.748,-54.3464"/>
<polygon fill="#191970" stroke="#191970" points="410.321,-89.3027 403.5926,-97.4868 413.9561,-95.2849 410.321,-89.3027"/>
</g>
<!-- Node15 -->
<g id="node15" class="node">
<title>Node15</title>
<g id="a_node15"><a xlink:href="../../de/d99/classFun4AllHepMCPileupInputManager.html#a81bf2b69c3c4d3aae0aadebafe1c2c2e" target="_top" xlink:title="Fun4AllHepMCPileupInputManager::run">
<polygon fill="none" stroke="#000000" points="456,-.5 456,-20.5 670,-20.5 670,-.5 456,-.5"/>
<text text-anchor="middle" x="563" y="-7.5" font-family="FreeSans" font-size="10.00" fill="#000000">Fun4AllHepMCPileupInputManager::run</text>
</a>
</g>
</g>
<!-- Node4&#45;&gt;Node15 -->
<g id="edge16" class="edge">
<title>Node4&#45;&gt;Node15</title>
<path fill="none" stroke="#191970" d="M415.4734,-91.5392C417.0675,-90.2513 418.5919,-88.9027 420,-87.5 441.4945,-66.0879 430.8831,-46.5187 456,-29.5 461.2324,-25.9546 466.9277,-23.0118 472.8751,-20.5745"/>
<polygon fill="#191970" stroke="#191970" points="413.2756,-88.8068 407.1378,-97.4427 417.3213,-94.5193 413.2756,-88.8068"/>
</g>
<!-- Node6 -->
<g id="node6" class="node">
<title>Node6</title>
<g id="a_node6"><a xlink:href="../../d6/d6f/classFun4AllHepMCInputManager.html#ab6c80a8ee0701bfff5eee3ec3623015c" target="_top" xlink:title="Fun4AllHepMCInputManager::run">
<polygon fill="none" stroke="#000000" points="706,-251.5 706,-271.5 889,-271.5 889,-251.5 706,-251.5"/>
<text text-anchor="middle" x="797.5" y="-258.5" font-family="FreeSans" font-size="10.00" fill="#000000">Fun4AllHepMCInputManager::run</text>
</a>
</g>
</g>
<!-- Node5&#45;&gt;Node6 -->
<g id="edge5" class="edge">
<title>Node5&#45;&gt;Node6</title>
<path fill="none" stroke="#191970" d="M651.248,-233.4346C682.9151,-239.5114 717.5936,-246.1662 745.2316,-251.4698"/>
<polygon fill="#191970" stroke="#191970" points="651.5656,-229.9317 641.0851,-231.4843 650.2463,-236.8063 651.5656,-229.9317"/>
</g>
<!-- Node7 -->
<g id="node7" class="node">
<title>Node7</title>
<g id="a_node7"><a xlink:href="../../db/d1f/classFun4AllOscarInputManager.html#a1537e89c4e652f70747fbbef18ceadc4" target="_top" xlink:title="Fun4AllOscarInputManager\l::ConvertFromOscar">
<polygon fill="none" stroke="#000000" points="720.5,-200.5 720.5,-232.5 874.5,-232.5 874.5,-200.5 720.5,-200.5"/>
<text text-anchor="start" x="728.5" y="-219.5" font-family="FreeSans" font-size="10.00" fill="#000000">Fun4AllOscarInputManager</text>
<text text-anchor="middle" x="797.5" y="-207.5" font-family="FreeSans" font-size="10.00" fill="#000000">::ConvertFromOscar</text>
</a>
</g>
</g>
<!-- Node5&#45;&gt;Node7 -->
<g id="edge6" class="edge">
<title>Node5&#45;&gt;Node7</title>
<path fill="none" stroke="#191970" d="M651.3585,-216.5C673.9812,-216.5 698.1342,-216.5 720.155,-216.5"/>
<polygon fill="#191970" stroke="#191970" points="651.0851,-213.0001 641.0851,-216.5 651.0851,-220.0001 651.0851,-213.0001"/>
</g>
<!-- Node9 -->
<g id="node9" class="node">
<title>Node9</title>
<g id="a_node9"><a xlink:href="../../dd/da8/classPHPythia6.html#a7a70bdd1c198a83ed143d3e2c4516d0d" target="_top" xlink:title="PHPythia6::process\l_event">
<polygon fill="none" stroke="#000000" points="741,-341.5 741,-373.5 854,-373.5 854,-341.5 741,-341.5"/>
<text text-anchor="start" x="749" y="-360.5" font-family="FreeSans" font-size="10.00" fill="#000000">PHPythia6::process</text>
<text text-anchor="middle" x="797.5" y="-348.5" font-family="FreeSans" font-size="10.00" fill="#000000">_event</text>
</a>
</g>
</g>
<!-- Node5&#45;&gt;Node9 -->
<g id="edge8" class="edge">
<title>Node5&#45;&gt;Node9</title>
<path fill="none" stroke="#191970" d="M585.8219,-240.1829C612.3659,-266.4102 658.6285,-308.1908 706,-332.5 716.8419,-338.0636 729.0613,-342.4997 740.9559,-345.9952"/>
<polygon fill="#191970" stroke="#191970" points="588.0971,-237.5079 578.5556,-232.9025 583.1425,-242.4529 588.0971,-237.5079"/>
</g>
<!-- Node5&#45;&gt;Node10 -->
<g id="edge9" class="edge">
<title>Node5&#45;&gt;Node10</title>
<path fill="none" stroke="#191970" d="M646.8537,-198.2632C677.9964,-191.4901 712.5685,-183.9712 740.7306,-177.8464"/>
<polygon fill="#191970" stroke="#191970" points="645.9031,-194.888 636.8754,-200.4333 647.3908,-201.7281 645.9031,-194.888"/>
</g>
<!-- Node5&#45;&gt;Node11 -->
<g id="edge10" class="edge">
<title>Node5&#45;&gt;Node11</title>
<path fill="none" stroke="#191970" d="M596.1818,-195.0439C624.3679,-177.7131 666.435,-153.9128 706,-139.5 715.7564,-135.9459 726.3533,-132.9814 736.7607,-130.5338"/>
<polygon fill="#191970" stroke="#191970" points="594.1793,-192.1676 587.539,-200.4233 597.8783,-198.1105 594.1793,-192.1676"/>
</g>
<!-- Node12 -->
<g id="node12" class="node">
<title>Node12</title>
<g id="a_node12"><a xlink:href="../../d3/d49/classReadEICFiles.html#a49106bf9561329777334154092890af2" target="_top" xlink:title="ReadEICFiles::process\l_event">
<polygon fill="none" stroke="#000000" points="734.5,-290.5 734.5,-322.5 860.5,-322.5 860.5,-290.5 734.5,-290.5"/>
<text text-anchor="start" x="742.5" y="-309.5" font-family="FreeSans" font-size="10.00" fill="#000000">ReadEICFiles::process</text>
<text text-anchor="middle" x="797.5" y="-297.5" font-family="FreeSans" font-size="10.00" fill="#000000">_event</text>
</a>
</g>
</g>
<!-- Node5&#45;&gt;Node12 -->
<g id="edge11" class="edge">
<title>Node5&#45;&gt;Node12</title>
<path fill="none" stroke="#191970" d="M603.633,-237.0759C631.8668,-250.8473 670.6283,-268.7216 706,-281.5 714.983,-284.7452 724.5924,-287.8032 734.0831,-290.5922"/>
<polygon fill="#191970" stroke="#191970" points="605,-233.8479 594.4818,-232.5762 601.9113,-240.1296 605,-233.8479"/>
</g>
<!-- Node8 -->
<g id="node8" class="node">
<title>Node8</title>
<g id="a_node8"><a xlink:href="../../db/d1f/classFun4AllOscarInputManager.html#a4be602bd8c9fe73f9dcc81c8871784a6" target="_top" xlink:title="Fun4AllOscarInputManager::run">
<polygon fill="none" stroke="#000000" points="925,-206.5 925,-226.5 1101,-226.5 1101,-206.5 925,-206.5"/>
<text text-anchor="middle" x="1013" y="-213.5" font-family="FreeSans" font-size="10.00" fill="#000000">Fun4AllOscarInputManager::run</text>
</a>
</g>
</g>
<!-- Node7&#45;&gt;Node8 -->
<g id="edge7" class="edge">
<title>Node7&#45;&gt;Node8</title>
<path fill="none" stroke="#191970" d="M884.7391,-216.5C898.0061,-216.5 911.7039,-216.5 924.9873,-216.5"/>
<polygon fill="#191970" stroke="#191970" points="884.6918,-213.0001 874.6918,-216.5 884.6917,-220.0001 884.6918,-213.0001"/>
</g>
<!-- Node17&#45;&gt;Node3 -->
<g id="edge19" class="edge">
<title>Node17&#45;&gt;Node3</title>
<path fill="none" stroke="#191970" d="M241.3435,-98.9792C249.9445,-97.0679 258.8773,-95.0828 266.8474,-93.3117"/>
<polygon fill="#191970" stroke="#191970" points="240.4792,-95.5858 231.4766,-101.1719 241.9977,-102.4191 240.4792,-95.5858"/>
</g>
</g>
</svg>
