<?xml version="1.0" encoding="UTF-8" standalone="no"?>
<!DOCTYPE svg PUBLIC "-//W3C//DTD SVG 1.1//EN"
 "http://www.w3.org/Graphics/SVG/1.1/DTD/svg11.dtd">
<!-- Generated by graphviz version 2.40.1 (20161225.0304)
 -->
<!-- Title: pycjdc Pages: 1 -->
<svg width="1625pt" height="498pt"
 viewBox="0.00 0.00 1625.00 498.18" xmlns="http://www.w3.org/2000/svg" xmlns:xlink="http://www.w3.org/1999/xlink">
<g id="graph0" class="graph" transform="scale(1 1) rotate(0) translate(4 494.1785)">
<title>pycjdc</title>
<!-- Node1 -->
<g id="node1" class="node">
<title>Node1</title>
<polygon fill="#bfbfbf" stroke="#000000" points="0,-218.6785 0,-238.6785 49,-238.6785 49,-218.6785 0,-218.6785"/>
<text text-anchor="middle" x="24.5" y="-225.6785" font-family="FreeSans" font-size="10.00" fill="#000000">pycjdc</text>
</g>
<!-- Node2 -->
<g id="node2" class="node">
<title>Node2</title>
<g id="a_node2"><a xlink:href="../../de/dd7/exceptiondfe_1_1Variable.html#ad546b80a148ce91384638a73e6293e3f" target="_top" xlink:title="dfe::Variable::as">
<polygon fill="none" stroke="#000000" points="355,-352.6785 355,-372.6785 454,-372.6785 454,-352.6785 355,-352.6785"/>
<text text-anchor="middle" x="404.5" y="-359.6785" font-family="FreeSans" font-size="10.00" fill="#000000">dfe::Variable::as</text>
</a>
</g>
</g>
<!-- Node1&#45;&gt;Node2 -->
<g id="edge1" class="edge">
<title>Node1&#45;&gt;Node2</title>
<path fill="none" stroke="#191970" d="M26.6196,-238.8792C31.9247,-261.537 48.088,-315.9244 85,-339.6785 163.622,-390.2742 276.7723,-384.3351 345.1924,-374.2952"/>
<polygon fill="#191970" stroke="#191970" points="346.0166,-377.7095 355.365,-372.7237 344.9479,-370.7915 346.0166,-377.7095"/>
</g>
<!-- Node3 -->
<g id="node3" class="node">
<title>Node3</title>
<g id="a_node3"><a xlink:href="../../df/de8/cemc_8C.html#a72d4716092b469b4bc1d816359a90e14" target="_top" xlink:title="cos">
<polygon fill="none" stroke="#000000" points="95,-430.6785 95,-450.6785 128,-450.6785 128,-430.6785 95,-430.6785"/>
<text text-anchor="middle" x="111.5" y="-437.6785" font-family="FreeSans" font-size="10.00" fill="#000000">cos</text>
</a>
</g>
</g>
<!-- Node1&#45;&gt;Node3 -->
<g id="edge2" class="edge">
<title>Node1&#45;&gt;Node3</title>
<path fill="none" stroke="#191970" d="M25.9495,-238.755C30.5291,-268.0766 46.7122,-355.1088 85,-415.6785 86.6475,-418.2848 88.6286,-420.8051 90.7563,-423.1775"/>
<polygon fill="#191970" stroke="#191970" points="88.7015,-426.0658 98.2844,-430.5846 93.611,-421.0761 88.7015,-426.0658"/>
</g>
<!-- Node4 -->
<g id="node4" class="node">
<title>Node4</title>
<g id="a_node4"><a xlink:href="../../d3/dd5/jewel-2_82_80_8f.html#a128c80a01e220038eb138a985885083a" target="_top" xlink:title="ei">
<polygon fill="none" stroke="#000000" points="502.5,-43.6785 502.5,-63.6785 531.5,-63.6785 531.5,-43.6785 502.5,-43.6785"/>
<text text-anchor="middle" x="517" y="-50.6785" font-family="FreeSans" font-size="10.00" fill="#000000">ei</text>
</a>
</g>
</g>
<!-- Node1&#45;&gt;Node4 -->
<g id="edge3" class="edge">
<title>Node1&#45;&gt;Node4</title>
<path fill="none" stroke="#191970" d="M25.1345,-218.2969C27.465,-189.9381 38.0785,-110.7458 85,-72.6785 125.57,-39.7641 148.7575,-53.6785 201,-53.6785 201,-53.6785 201,-53.6785 291.5,-53.6785 364.4779,-53.6785 450.7407,-53.6785 492.2471,-53.6785"/>
<polygon fill="#191970" stroke="#191970" points="492.4902,-57.1786 502.4902,-53.6785 492.4902,-50.1786 492.4902,-57.1786"/>
</g>
<!-- Node6 -->
<g id="node6" class="node">
<title>Node6</title>
<g id="a_node6"><a xlink:href="../../d6/dcf/pythia6425mod_8f.html#ad950c8536b8d340b350441139b4b309e" target="_top" xlink:title="pyalem">
<polygon fill="none" stroke="#000000" points="174,-469.6785 174,-489.6785 228,-489.6785 228,-469.6785 174,-469.6785"/>
<text text-anchor="middle" x="201" y="-476.6785" font-family="FreeSans" font-size="10.00" fill="#000000">pyalem</text>
</a>
</g>
</g>
<!-- Node1&#45;&gt;Node6 -->
<g id="edge5" class="edge">
<title>Node1&#45;&gt;Node6</title>
<path fill="none" stroke="#191970" d="M25.677,-238.765C30.6162,-279.308 51.0037,-429.6974 85,-460.6785 105.9849,-479.8021 138.4211,-483.7516 163.6642,-483.3718"/>
<polygon fill="#191970" stroke="#191970" points="164.1296,-486.8566 173.988,-482.9756 163.8611,-479.8618 164.1296,-486.8566"/>
</g>
<!-- Node9 -->
<g id="node9" class="node">
<title>Node9</title>
<g id="a_node9"><a xlink:href="../../d6/dcf/pythia6425mod_8f.html#a29c95baea28af87f8639a7f77a68edc5" target="_top" xlink:title="pyalps">
<polygon fill="none" stroke="#000000" points="379.5,-430.6785 379.5,-450.6785 429.5,-450.6785 429.5,-430.6785 379.5,-430.6785"/>
<text text-anchor="middle" x="404.5" y="-437.6785" font-family="FreeSans" font-size="10.00" fill="#000000">pyalps</text>
</a>
</g>
</g>
<!-- Node1&#45;&gt;Node9 -->
<g id="edge8" class="edge">
<title>Node1&#45;&gt;Node9</title>
<path fill="none" stroke="#191970" d="M25.8872,-238.7421C29.9426,-264.1678 44.1861,-331.3963 85,-365.6785 168.2745,-435.626 304.9868,-442.9617 369.1562,-442.1671"/>
<polygon fill="#191970" stroke="#191970" points="369.2484,-445.6661 379.1769,-441.9683 369.1094,-438.6675 369.2484,-445.6661"/>
</g>
<!-- Node10 -->
<g id="node10" class="node">
<title>Node10</title>
<g id="a_node10"><a xlink:href="../../d6/dcf/pythia6425mod_8f.html#a54737ed1fa8203d34f6b7e41f8edaf45" target="_top" xlink:title="pygaus">
<polygon fill="none" stroke="#000000" points="378,-159.6785 378,-179.6785 431,-179.6785 431,-159.6785 378,-159.6785"/>
<text text-anchor="middle" x="404.5" y="-166.6785" font-family="FreeSans" font-size="10.00" fill="#000000">pygaus</text>
</a>
</g>
</g>
<!-- Node1&#45;&gt;Node10 -->
<g id="edge10" class="edge">
<title>Node1&#45;&gt;Node10</title>
<path fill="none" stroke="#191970" d="M49.2005,-220.4026C108.1537,-200.682 253.0139,-152.4224 264,-150.6785 288.1422,-146.8462 294.7015,-148.0112 319,-150.6785 335.2109,-152.458 352.8454,-156.0812 367.8654,-159.691"/>
<polygon fill="#191970" stroke="#191970" points="367.247,-163.1439 377.7965,-162.1652 368.9392,-156.3515 367.247,-163.1439"/>
</g>
<!-- Node25 -->
<g id="node25" class="node">
<title>Node25</title>
<g id="a_node25"><a xlink:href="../../da/d0a/CylinderKalman_8cpp.html#ab74daa0c9784c63e060bfb98cc06fbf5" target="_top" xlink:title="sign">
<polygon fill="none" stroke="#000000" points="1054,-205.6785 1054,-225.6785 1091,-225.6785 1091,-205.6785 1054,-205.6785"/>
<text text-anchor="middle" x="1072.5" y="-212.6785" font-family="FreeSans" font-size="10.00" fill="#000000">sign</text>
</a>
</g>
</g>
<!-- Node1&#45;&gt;Node25 -->
<g id="edge64" class="edge">
<title>Node1&#45;&gt;Node25</title>
<path fill="none" stroke="#191970" d="M24.8726,-218.4528C26.5364,-188.0326 35.6098,-97.1554 85,-47.6785 123.4267,-9.1842 146.6086,-8.6785 201,-8.6785 201,-8.6785 201,-8.6785 784.5,-8.6785 863.3977,-8.6785 898.1318,19.9916 961,-27.6785 995.3286,-53.7082 975.651,-80.259 997,-117.6785 1014.2445,-147.9037 1039.9036,-179.1252 1056.4185,-197.9747"/>
<polygon fill="#191970" stroke="#191970" points="1053.8342,-200.3356 1063.0926,-205.4867 1059.0672,-195.6863 1053.8342,-200.3356"/>
</g>
<!-- Node28 -->
<g id="node28" class="node">
<title>Node28</title>
<g id="a_node28"><a xlink:href="../../d6/dcf/pythia6425mod_8f.html#a9a5e0b1d8e92be18ecc53d89aba71c09" target="_top" xlink:title="pylamf">
<polygon fill="none" stroke="#000000" points="175,-121.6785 175,-141.6785 227,-141.6785 227,-121.6785 175,-121.6785"/>
<text text-anchor="middle" x="201" y="-128.6785" font-family="FreeSans" font-size="10.00" fill="#000000">pylamf</text>
</a>
</g>
</g>
<!-- Node1&#45;&gt;Node28 -->
<g id="edge33" class="edge">
<title>Node1&#45;&gt;Node28</title>
<path fill="none" stroke="#191970" d="M29.3655,-218.4615C37.9995,-201.5429 57.6959,-167.9631 85,-151.6785 109.0036,-137.3623 140.4666,-132.6343 164.5684,-131.3358"/>
<polygon fill="#191970" stroke="#191970" points="164.871,-134.8272 174.7367,-130.9647 164.6156,-127.8318 164.871,-134.8272"/>
</g>
<!-- Node29 -->
<g id="node29" class="node">
<title>Node29</title>
<g id="a_node29"><a xlink:href="../../d6/dcf/pythia6425mod_8f.html#a7452e5c7a826962ce1c001af995ed6ef" target="_top" xlink:title="pyrvch">
<polygon fill="none" stroke="#000000" points="86.5,-238.6785 86.5,-258.6785 136.5,-258.6785 136.5,-238.6785 86.5,-238.6785"/>
<text text-anchor="middle" x="111.5" y="-245.6785" font-family="FreeSans" font-size="10.00" fill="#000000">pyrvch</text>
</a>
</g>
</g>
<!-- Node1&#45;&gt;Node29 -->
<g id="edge34" class="edge">
<title>Node1&#45;&gt;Node29</title>
<path fill="none" stroke="#191970" d="M49.198,-234.3562C57.666,-236.3028 67.311,-238.5201 76.4403,-240.6188"/>
<polygon fill="#191970" stroke="#191970" points="75.9082,-244.0876 86.4381,-242.9171 77.4765,-237.2656 75.9082,-244.0876"/>
</g>
<!-- Node42 -->
<g id="node42" class="node">
<title>Node42</title>
<g id="a_node42"><a xlink:href="../../d6/dcf/pythia6425mod_8f.html#a628cca4ef6ca74365a47cbb6aec90a5f" target="_top" xlink:title="pyx2xg">
<polygon fill="none" stroke="#000000" points="85,-82.6785 85,-102.6785 138,-102.6785 138,-82.6785 85,-82.6785"/>
<text text-anchor="middle" x="111.5" y="-89.6785" font-family="FreeSans" font-size="10.00" fill="#000000">pyx2xg</text>
</a>
</g>
</g>
<!-- Node1&#45;&gt;Node42 -->
<g id="edge58" class="edge">
<title>Node1&#45;&gt;Node42</title>
<path fill="none" stroke="#191970" d="M28.7172,-218.5482C37.4441,-198.235 58.8694,-151.5726 85,-117.6785 87.0467,-115.0236 89.3818,-112.3965 91.7982,-109.8994"/>
<polygon fill="#191970" stroke="#191970" points="94.2969,-112.3524 99.0838,-102.9006 89.4475,-107.3043 94.2969,-112.3524"/>
</g>
<!-- Node43 -->
<g id="node43" class="node">
<title>Node43</title>
<g id="a_node43"><a xlink:href="../../d6/dcf/pythia6425mod_8f.html#a172c02bb050da4b11542b15cb94e94f2" target="_top" xlink:title="pyx2xh">
<polygon fill="none" stroke="#000000" points="85,-160.6785 85,-180.6785 138,-180.6785 138,-160.6785 85,-160.6785"/>
<text text-anchor="middle" x="111.5" y="-167.6785" font-family="FreeSans" font-size="10.00" fill="#000000">pyx2xh</text>
</a>
</g>
</g>
<!-- Node1&#45;&gt;Node43 -->
<g id="edge60" class="edge">
<title>Node1&#45;&gt;Node43</title>
<path fill="none" stroke="#191970" d="M39.6542,-218.5756C52.9213,-209.7309 72.4191,-196.7324 87.7565,-186.5075"/>
<polygon fill="#191970" stroke="#191970" points="89.8485,-189.3193 96.2275,-180.8601 85.9655,-183.495 89.8485,-189.3193"/>
</g>
<!-- Node44 -->
<g id="node44" class="node">
<title>Node44</title>
<g id="a_node44"><a xlink:href="../../d6/dcf/pythia6425mod_8f.html#ad3802fc93d4a590b18e75cf9ffc0c04c" target="_top" xlink:title="pyxxz6">
<polygon fill="none" stroke="#000000" points="668,-391.6785 668,-411.6785 720,-411.6785 720,-391.6785 668,-391.6785"/>
<text text-anchor="middle" x="694" y="-398.6785" font-family="FreeSans" font-size="10.00" fill="#000000">pyxxz6</text>
</a>
</g>
</g>
<!-- Node1&#45;&gt;Node44 -->
<g id="edge62" class="edge">
<title>Node1&#45;&gt;Node44</title>
<path fill="none" stroke="#191970" d="M38.4649,-238.9852C50.4419,-247.559 68.3515,-259.7588 85,-268.6785 199.8174,-330.1934 228.1059,-353.2678 355,-382.6785 462.7536,-407.6529 594.6776,-406.2236 657.4461,-403.6797"/>
<polygon fill="#191970" stroke="#191970" points="657.7909,-407.168 667.6274,-403.2319 657.4833,-400.1748 657.7909,-407.168"/>
</g>
<!-- Node5 -->
<g id="node5" class="node">
<title>Node5</title>
<g id="a_node5"><a xlink:href="../../dc/db0/classActs_1_1IVisualization.html#a9e155efef029673b4b9830ef5dfc1af3" target="_top" xlink:title="Acts::IVisualization\l::line">
<polygon fill="none" stroke="#000000" points="849,-37.6785 849,-69.6785 961,-69.6785 961,-37.6785 849,-37.6785"/>
<text text-anchor="start" x="857" y="-56.6785" font-family="FreeSans" font-size="10.00" fill="#000000">Acts::IVisualization</text>
<text text-anchor="middle" x="905" y="-44.6785" font-family="FreeSans" font-size="10.00" fill="#000000">::line</text>
</a>
</g>
</g>
<!-- Node4&#45;&gt;Node5 -->
<g id="edge4" class="edge">
<title>Node4&#45;&gt;Node5</title>
<path fill="none" stroke="#191970" d="M531.7363,-53.6785C581.5026,-53.6785 745.4245,-53.6785 838.6452,-53.6785"/>
<polygon fill="#191970" stroke="#191970" points="838.8212,-57.1786 848.8212,-53.6785 838.8211,-50.1786 838.8212,-57.1786"/>
</g>
<!-- Node7 -->
<g id="node7" class="node">
<title>Node7</title>
<g id="a_node7"><a xlink:href="../../d4/d3e/classActs_1_1Logger.html#aee9e687247532b5175713e66b2d2121e" target="_top" xlink:title="create output stream object with internal cache">
<polygon fill="none" stroke="#000000" points="854,-391.6785 854,-411.6785 956,-411.6785 956,-391.6785 854,-391.6785"/>
<text text-anchor="middle" x="905" y="-398.6785" font-family="FreeSans" font-size="10.00" fill="#000000">Acts::Logger::log</text>
</a>
</g>
</g>
<!-- Node6&#45;&gt;Node7 -->
<g id="edge6" class="edge">
<title>Node6&#45;&gt;Node7</title>
<path fill="none" stroke="#191970" d="M228.3199,-479.6785C267.3793,-479.6785 341.4362,-479.6785 404.5,-479.6785 404.5,-479.6785 404.5,-479.6785 694,-479.6785 765.4672,-479.6785 842.5751,-439.8237 880.7429,-417.0917"/>
<polygon fill="#191970" stroke="#191970" points="882.8558,-419.9031 889.5805,-411.7159 879.218,-413.9226 882.8558,-419.9031"/>
</g>
<!-- Node8 -->
<g id="node8" class="node">
<title>Node8</title>
<g id="a_node8"><a xlink:href="../../df/dce/classActs_1_1Logging_1_1OutputPrintPolicy.html#ab113823970013e1e7f310b36509136ac" target="_top" xlink:title="handle output of debug message">
<polygon fill="none" stroke="#000000" points="997,-385.6785 997,-417.6785 1148,-417.6785 1148,-385.6785 997,-385.6785"/>
<text text-anchor="start" x="1005" y="-404.6785" font-family="FreeSans" font-size="10.00" fill="#000000">Acts::Logging::OutputPrint</text>
<text text-anchor="middle" x="1072.5" y="-392.6785" font-family="FreeSans" font-size="10.00" fill="#000000">Policy::flush</text>
</a>
</g>
</g>
<!-- Node7&#45;&gt;Node8 -->
<g id="edge7" class="edge">
<title>Node7&#45;&gt;Node8</title>
<path fill="none" stroke="#191970" d="M956.1657,-401.6785C965.9353,-401.6785 976.4058,-401.6785 986.9149,-401.6785"/>
<polygon fill="#191970" stroke="#191970" points="986.9808,-405.1786 996.9808,-401.6785 986.9807,-398.1786 986.9808,-405.1786"/>
</g>
<!-- Node9&#45;&gt;Node7 -->
<g id="edge9" class="edge">
<title>Node9&#45;&gt;Node7</title>
<path fill="none" stroke="#191970" d="M429.631,-440.6785C467.759,-440.6785 542.5065,-440.6785 606,-440.6785 606,-440.6785 606,-440.6785 694,-440.6785 752.9738,-440.6785 819.6981,-425.7645 862.035,-414.3819"/>
<polygon fill="#191970" stroke="#191970" points="863.013,-417.743 871.7306,-411.7219 861.1609,-410.9925 863.013,-417.743"/>
</g>
<!-- Node11 -->
<g id="node11" class="node">
<title>Node11</title>
<g id="a_node11"><a xlink:href="../../d6/dcf/pythia6425mod_8f.html#a8a7efe2037220dc632000fb06895ebca" target="_top" xlink:title="pyerrm">
<polygon fill="none" stroke="#000000" points="580,-150.6785 580,-170.6785 632,-170.6785 632,-150.6785 580,-150.6785"/>
<text text-anchor="middle" x="606" y="-157.6785" font-family="FreeSans" font-size="10.00" fill="#000000">pyerrm</text>
</a>
</g>
</g>
<!-- Node10&#45;&gt;Node11 -->
<g id="edge11" class="edge">
<title>Node10&#45;&gt;Node11</title>
<path fill="none" stroke="#191970" d="M431.2035,-162.1652C447.9398,-157.8517 470.0481,-152.8686 490,-150.6785 513.8567,-148.0597 520.0767,-148.7615 544,-150.6785 552.422,-151.3533 561.4263,-152.5359 569.8886,-153.857"/>
<polygon fill="#191970" stroke="#191970" points="569.4285,-157.3284 579.8665,-155.5123 570.5742,-150.4228 569.4285,-157.3284"/>
</g>
<!-- Node12 -->
<g id="node12" class="node">
<title>Node12</title>
<g id="a_node12"><a xlink:href="../../d6/dcf/pythia6425mod_8f.html#acc54128638bbd93cf630e1576f91d443" target="_top" xlink:title="pylist">
<polygon fill="none" stroke="#000000" points="672,-190.6785 672,-210.6785 716,-210.6785 716,-190.6785 672,-190.6785"/>
<text text-anchor="middle" x="694" y="-197.6785" font-family="FreeSans" font-size="10.00" fill="#000000">pylist</text>
</a>
</g>
</g>
<!-- Node11&#45;&gt;Node12 -->
<g id="edge12" class="edge">
<title>Node11&#45;&gt;Node12</title>
<path fill="none" stroke="#191970" d="M628.2061,-170.7721C638.6281,-175.5094 651.2325,-181.2387 662.6087,-186.4097"/>
<polygon fill="#191970" stroke="#191970" points="661.249,-189.6362 671.801,-190.588 664.1456,-183.2636 661.249,-189.6362"/>
</g>
<!-- Node14 -->
<g id="node14" class="node">
<title>Node14</title>
<g id="a_node14"><a xlink:href="../../d6/dcf/pythia6425mod_8f.html#a4140396b9ec9bafcebf4c7ebecb462e7" target="_top" xlink:title="pystop">
<polygon fill="none" stroke="#000000" points="880,-88.6785 880,-108.6785 930,-108.6785 930,-88.6785 880,-88.6785"/>
<text text-anchor="middle" x="905" y="-95.6785" font-family="FreeSans" font-size="10.00" fill="#000000">pystop</text>
</a>
</g>
</g>
<!-- Node11&#45;&gt;Node14 -->
<g id="edge32" class="edge">
<title>Node11&#45;&gt;Node14</title>
<path fill="none" stroke="#191970" d="M626.8371,-150.6703C638.6847,-145.3046 653.9241,-138.9396 668,-134.6785 737.6585,-113.5911 822.7429,-104.5146 869.6718,-100.8798"/>
<polygon fill="#191970" stroke="#191970" points="870.2021,-104.3503 879.9185,-100.1263 869.6887,-97.3692 870.2021,-104.3503"/>
</g>
<!-- Node13 -->
<g id="node13" class="node">
<title>Node13</title>
<g id="a_node13"><a xlink:href="../../d6/dcf/pythia6425mod_8f.html#a56718d08dbb42b3b978fc9b5bd6970e6" target="_top" xlink:title="pylogo">
<polygon fill="none" stroke="#000000" points="759.5,-127.6785 759.5,-147.6785 809.5,-147.6785 809.5,-127.6785 759.5,-127.6785"/>
<text text-anchor="middle" x="784.5" y="-134.6785" font-family="FreeSans" font-size="10.00" fill="#000000">pylogo</text>
</a>
</g>
</g>
<!-- Node12&#45;&gt;Node13 -->
<g id="edge13" class="edge">
<title>Node12&#45;&gt;Node13</title>
<path fill="none" stroke="#191970" d="M708.5404,-190.5564C722.7899,-180.6369 744.7322,-165.3621 761.3765,-153.7755"/>
<polygon fill="#191970" stroke="#191970" points="763.7881,-156.3612 769.9957,-147.7754 759.7888,-150.6162 763.7881,-156.3612"/>
</g>
<!-- Node21 -->
<g id="node21" class="node">
<title>Node21</title>
<g id="a_node21"><a xlink:href="../../d6/dcf/pythia6425mod_8f.html#ab0dbe916b7d36854c02faf180f41d585" target="_top" xlink:title="pyname">
<polygon fill="none" stroke="#000000" points="756,-237.6785 756,-257.6785 813,-257.6785 813,-237.6785 756,-237.6785"/>
<text text-anchor="middle" x="784.5" y="-244.6785" font-family="FreeSans" font-size="10.00" fill="#000000">pyname</text>
</a>
</g>
</g>
<!-- Node12&#45;&gt;Node21 -->
<g id="edge23" class="edge">
<title>Node12&#45;&gt;Node21</title>
<path fill="none" stroke="#191970" d="M713.6372,-210.8768C726.0553,-217.326 742.3108,-225.768 756.12,-232.9397"/>
<polygon fill="#191970" stroke="#191970" points="754.7244,-236.1587 765.2121,-237.6615 757.9506,-229.9465 754.7244,-236.1587"/>
</g>
<!-- Node22 -->
<g id="node22" class="node">
<title>Node22</title>
<g id="a_node22"><a xlink:href="../../d6/dcf/pythia6425mod_8f.html#a6cee1eea51c820d9e90932c9eca205b7" target="_top" xlink:title="pyp">
<polygon fill="none" stroke="#000000" points="767,-198.6785 767,-218.6785 802,-218.6785 802,-198.6785 767,-198.6785"/>
<text text-anchor="middle" x="784.5" y="-205.6785" font-family="FreeSans" font-size="10.00" fill="#000000">pyp</text>
</a>
</g>
</g>
<!-- Node12&#45;&gt;Node22 -->
<g id="edge24" class="edge">
<title>Node12&#45;&gt;Node22</title>
<path fill="none" stroke="#191970" d="M716.3708,-202.656C728.5569,-203.7332 743.7473,-205.076 756.6901,-206.2201"/>
<polygon fill="#191970" stroke="#191970" points="756.6488,-209.73 766.9182,-207.1243 757.2653,-202.7572 756.6488,-209.73"/>
</g>
<!-- Node13&#45;&gt;Node5 -->
<g id="edge22" class="edge">
<title>Node13&#45;&gt;Node5</title>
<path fill="none" stroke="#191970" d="M793.7255,-127.4135C805.5587,-114.7052 827.1715,-92.9919 849,-78.6785 851.1424,-77.2736 853.3769,-75.912 855.6671,-74.5979"/>
<polygon fill="#191970" stroke="#191970" points="857.5281,-77.5719 864.7004,-69.7739 854.2306,-71.3972 857.5281,-77.5719"/>
</g>
<!-- Node13&#45;&gt;Node14 -->
<g id="edge14" class="edge">
<title>Node13&#45;&gt;Node14</title>
<path fill="none" stroke="#191970" d="M809.7607,-129.5028C827.2738,-123.8347 850.8226,-116.213 870.122,-109.9668"/>
<polygon fill="#191970" stroke="#191970" points="871.3362,-113.2526 879.7725,-106.8434 869.1806,-106.5928 871.3362,-113.2526"/>
</g>
<!-- Node20 -->
<g id="node20" class="node">
<title>Node20</title>
<g id="a_node20"><a xlink:href="../../d6/dcf/pythia6425mod_8f.html#a523e4acf745637220400daf831c34a23" target="_top" xlink:title="pytime">
<polygon fill="none" stroke="#000000" points="879.5,-127.6785 879.5,-147.6785 930.5,-147.6785 930.5,-127.6785 879.5,-127.6785"/>
<text text-anchor="middle" x="905" y="-134.6785" font-family="FreeSans" font-size="10.00" fill="#000000">pytime</text>
</a>
</g>
</g>
<!-- Node13&#45;&gt;Node20 -->
<g id="edge21" class="edge">
<title>Node13&#45;&gt;Node20</title>
<path fill="none" stroke="#191970" d="M809.7607,-137.6785C826.9967,-137.6785 850.0789,-137.6785 869.2027,-137.6785"/>
<polygon fill="#191970" stroke="#191970" points="869.3575,-141.1786 879.3575,-137.6785 869.3575,-134.1786 869.3575,-141.1786"/>
</g>
<!-- Node15 -->
<g id="node15" class="node">
<title>Node15</title>
<g id="a_node15"><a xlink:href="../../d0/d5e/classPHTimer.html#adce6f9a85834e59bd154b9c624ee4e41" target="_top" xlink:title="stops the counter">
<polygon fill="none" stroke="#000000" points="1029,-88.6785 1029,-108.6785 1116,-108.6785 1116,-88.6785 1029,-88.6785"/>
<text text-anchor="middle" x="1072.5" y="-95.6785" font-family="FreeSans" font-size="10.00" fill="#000000">PHTimer::stop</text>
</a>
</g>
</g>
<!-- Node14&#45;&gt;Node15 -->
<g id="edge15" class="edge">
<title>Node14&#45;&gt;Node15</title>
<path fill="none" stroke="#191970" d="M930.0764,-98.6785C953.3433,-98.6785 988.7515,-98.6785 1018.4413,-98.6785"/>
<polygon fill="#191970" stroke="#191970" points="1018.6751,-102.1786 1028.6751,-98.6785 1018.6751,-95.1786 1018.6751,-102.1786"/>
</g>
<!-- Node16 -->
<g id="node16" class="node">
<title>Node16</title>
<g id="a_node16"><a xlink:href="../../d0/d5e/classPHTimer.html#aa92e3fe4a0a1799f39743eda9ef9d497" target="_top" xlink:title="gets time from cpu clock counts">
<polygon fill="none" stroke="#000000" points="1337.5,-102.6785 1337.5,-134.6785 1450.5,-134.6785 1450.5,-102.6785 1337.5,-102.6785"/>
<text text-anchor="start" x="1345.5" y="-121.6785" font-family="FreeSans" font-size="10.00" fill="#000000">PHTimer::get_clock</text>
<text text-anchor="middle" x="1394" y="-109.6785" font-family="FreeSans" font-size="10.00" fill="#000000">_counts</text>
</a>
</g>
</g>
<!-- Node15&#45;&gt;Node16 -->
<g id="edge16" class="edge">
<title>Node15&#45;&gt;Node16</title>
<path fill="none" stroke="#191970" d="M1116.1935,-101.3966C1170.5132,-104.7757 1263.7813,-110.5778 1327.1199,-114.518"/>
<polygon fill="#191970" stroke="#191970" points="1327.2099,-118.0302 1337.4079,-115.158 1327.6445,-111.0437 1327.2099,-118.0302"/>
</g>
<!-- Node17 -->
<g id="node17" class="node">
<title>Node17</title>
<g id="a_node17"><a xlink:href="../../d0/d5e/classPHTimer.html#a976738876ad978116fdc4549a3765685" target="_top" xlink:title="retrieve elapsed value since last restart (in ms)">
<polygon fill="none" stroke="#000000" points="1184,-69.6785 1184,-89.6785 1289,-89.6785 1289,-69.6785 1184,-69.6785"/>
<text text-anchor="middle" x="1236.5" y="-76.6785" font-family="FreeSans" font-size="10.00" fill="#000000">PHTimer::elapsed</text>
</a>
</g>
</g>
<!-- Node15&#45;&gt;Node17 -->
<g id="edge17" class="edge">
<title>Node15&#45;&gt;Node17</title>
<path fill="none" stroke="#191970" d="M1116.0184,-93.6367C1133.6343,-91.5958 1154.3144,-89.2 1173.521,-86.9748"/>
<polygon fill="#191970" stroke="#191970" points="1174.1768,-90.4223 1183.7075,-85.7947 1173.3711,-83.4688 1174.1768,-90.4223"/>
</g>
<!-- Node17&#45;&gt;Node16 -->
<g id="edge20" class="edge">
<title>Node17&#45;&gt;Node16</title>
<path fill="none" stroke="#191970" d="M1277.0602,-89.7219C1292.3746,-93.5141 1310.2315,-97.9358 1327.3129,-102.1654"/>
<polygon fill="#191970" stroke="#191970" points="1326.7073,-105.6211 1337.2554,-104.6274 1328.3898,-98.8263 1326.7073,-105.6211"/>
</g>
<!-- Node18 -->
<g id="node18" class="node">
<title>Node18</title>
<g id="a_node18"><a xlink:href="../../d0/d5e/classPHTimer.html#aa75ff2c27aba40e7ef0a934f9a3355c2" target="_top" xlink:title="returns difference between to time">
<polygon fill="none" stroke="#000000" points="1325,-63.6785 1325,-83.6785 1463,-83.6785 1463,-63.6785 1325,-63.6785"/>
<text text-anchor="middle" x="1394" y="-70.6785" font-family="FreeSans" font-size="10.00" fill="#000000">PHTimer::get_difference</text>
</a>
</g>
</g>
<!-- Node17&#45;&gt;Node18 -->
<g id="edge18" class="edge">
<title>Node17&#45;&gt;Node18</title>
<path fill="none" stroke="#191970" d="M1289.3834,-77.6639C1297.5408,-77.3531 1306.1148,-77.0265 1314.6976,-76.6995"/>
<polygon fill="#191970" stroke="#191970" points="1314.8931,-80.1947 1324.7526,-76.3165 1314.6266,-73.1998 1314.8931,-80.1947"/>
</g>
<!-- Node19 -->
<g id="node19" class="node">
<title>Node19</title>
<g id="a_node19"><a xlink:href="../../d2/db1/classPHTimer_1_1Frequency.html#a023a2d706df9a8bd303810a9ed017f61" target="_top" xlink:title="period accessor">
<polygon fill="none" stroke="#000000" points="1499,-57.6785 1499,-89.6785 1617,-89.6785 1617,-57.6785 1499,-57.6785"/>
<text text-anchor="start" x="1507" y="-76.6785" font-family="FreeSans" font-size="10.00" fill="#000000">PHTimer::Frequency</text>
<text text-anchor="middle" x="1558" y="-64.6785" font-family="FreeSans" font-size="10.00" fill="#000000">::period</text>
</a>
</g>
</g>
<!-- Node18&#45;&gt;Node19 -->
<g id="edge19" class="edge">
<title>Node18&#45;&gt;Node19</title>
<path fill="none" stroke="#191970" d="M1463.0754,-73.6785C1471.5394,-73.6785 1480.1918,-73.6785 1488.6596,-73.6785"/>
<polygon fill="#191970" stroke="#191970" points="1488.8719,-77.1786 1498.8719,-73.6785 1488.8719,-70.1786 1488.8719,-77.1786"/>
</g>
<!-- Node22&#45;&gt;Node7 -->
<g id="edge31" class="edge">
<title>Node22&#45;&gt;Node7</title>
<path fill="none" stroke="#191970" d="M802.0796,-218.707C806.0371,-221.5541 809.9602,-224.9176 813,-228.6785 838.7894,-260.5856 829.9212,-277.3582 849,-313.6785 862.003,-338.4323 879.6927,-365.3391 891.6852,-382.7965"/>
<polygon fill="#191970" stroke="#191970" points="889.116,-385.233 897.6956,-391.4492 894.8652,-381.2395 889.116,-385.233"/>
</g>
<!-- Node23 -->
<g id="node23" class="node">
<title>Node23</title>
<g id="a_node23"><a xlink:href="../../d6/dcf/pythia6425mod_8f.html#a27f75936fde97780175fa2c990bc61cd" target="_top" xlink:title="pychge">
<polygon fill="none" stroke="#000000" points="878.5,-166.6785 878.5,-186.6785 931.5,-186.6785 931.5,-166.6785 878.5,-166.6785"/>
<text text-anchor="middle" x="905" y="-173.6785" font-family="FreeSans" font-size="10.00" fill="#000000">pychge</text>
</a>
</g>
</g>
<!-- Node22&#45;&gt;Node23 -->
<g id="edge25" class="edge">
<title>Node22&#45;&gt;Node23</title>
<path fill="none" stroke="#191970" d="M802.0217,-204.0254C819.3429,-199.4256 846.371,-192.248 868.3916,-186.4002"/>
<polygon fill="#191970" stroke="#191970" points="869.3373,-189.7705 878.1039,-183.821 867.5406,-183.0049 869.3373,-189.7705"/>
</g>
<!-- Node24 -->
<g id="node24" class="node">
<title>Node24</title>
<g id="a_node24"><a xlink:href="../../d6/dcf/pythia6425mod_8f.html#aa8c99978a55999fa0b1fd2a946d8553a" target="_top" xlink:title="pyangl">
<polygon fill="none" stroke="#000000" points="880,-205.6785 880,-225.6785 930,-225.6785 930,-205.6785 880,-205.6785"/>
<text text-anchor="middle" x="905" y="-212.6785" font-family="FreeSans" font-size="10.00" fill="#000000">pyangl</text>
</a>
</g>
</g>
<!-- Node22&#45;&gt;Node24 -->
<g id="edge26" class="edge">
<title>Node22&#45;&gt;Node24</title>
<path fill="none" stroke="#191970" d="M802.0217,-209.6963C819.7156,-210.7242 847.5389,-212.3405 869.8062,-213.634"/>
<polygon fill="#191970" stroke="#191970" points="869.7192,-217.1348 879.9054,-214.2207 870.1252,-210.1465 869.7192,-217.1348"/>
</g>
<!-- Node22&#45;&gt;Node25 -->
<g id="edge30" class="edge">
<title>Node22&#45;&gt;Node25</title>
<path fill="none" stroke="#191970" d="M802.2364,-218.3603C814.8627,-224.6811 832.4566,-232.3556 849,-235.6785 918.1585,-249.5695 1001.2975,-233.8045 1044.0413,-223.3858"/>
<polygon fill="#191970" stroke="#191970" points="1044.9181,-226.7743 1053.76,-220.9373 1043.2079,-219.9865 1044.9181,-226.7743"/>
</g>
<!-- Node26 -->
<g id="node26" class="node">
<title>Node26</title>
<g id="a_node26"><a xlink:href="../../d6/dcf/pythia6425mod_8f.html#ad69903a1054f4f77d45fd8fe4c687aa9" target="_top" xlink:title="pymass">
<polygon fill="none" stroke="#000000" points="877.5,-283.6785 877.5,-303.6785 932.5,-303.6785 932.5,-283.6785 877.5,-283.6785"/>
<text text-anchor="middle" x="905" y="-290.6785" font-family="FreeSans" font-size="10.00" fill="#000000">pymass</text>
</a>
</g>
</g>
<!-- Node22&#45;&gt;Node26 -->
<g id="edge28" class="edge">
<title>Node22&#45;&gt;Node26</title>
<path fill="none" stroke="#191970" d="M800.3641,-218.8635C804.6156,-221.8433 809.1088,-225.2314 813,-228.6785 830.9032,-244.538 829.6589,-254.6082 849,-268.6785 854.7269,-272.8446 861.2583,-276.5336 867.7896,-279.712"/>
<polygon fill="#191970" stroke="#191970" points="866.7113,-283.0657 877.2648,-283.9997 869.5972,-276.6883 866.7113,-283.0657"/>
</g>
<!-- Node24&#45;&gt;Node25 -->
<g id="edge27" class="edge">
<title>Node24&#45;&gt;Node25</title>
<path fill="none" stroke="#191970" d="M930.0764,-215.6785C960.5784,-215.6785 1011.9469,-215.6785 1043.9426,-215.6785"/>
<polygon fill="#191970" stroke="#191970" points="1043.9925,-219.1786 1053.9925,-215.6785 1043.9924,-212.1786 1043.9925,-219.1786"/>
</g>
<!-- Node27 -->
<g id="node27" class="node">
<title>Node27</title>
<g id="a_node27"><a xlink:href="../../d6/dcf/pythia6425mod_8f.html#ac28b7ef95cee2881a46f71d3a88d05ac" target="_top" xlink:title="pyr">
<polygon fill="none" stroke="#000000" points="1056,-283.6785 1056,-303.6785 1089,-303.6785 1089,-283.6785 1056,-283.6785"/>
<text text-anchor="middle" x="1072.5" y="-290.6785" font-family="FreeSans" font-size="10.00" fill="#000000">pyr</text>
</a>
</g>
</g>
<!-- Node26&#45;&gt;Node27 -->
<g id="edge29" class="edge">
<title>Node26&#45;&gt;Node27</title>
<path fill="none" stroke="#191970" d="M932.6592,-293.6785C964.0783,-293.6785 1014.9895,-293.6785 1045.9436,-293.6785"/>
<polygon fill="#191970" stroke="#191970" points="1045.9955,-297.1786 1055.9955,-293.6785 1045.9954,-290.1786 1045.9955,-297.1786"/>
</g>
<!-- Node30 -->
<g id="node30" class="node">
<title>Node30</title>
<g id="a_node30"><a xlink:href="../../d6/dcf/pythia6425mod_8f.html#a342cc0b3b1534ea728c6cc519dfc55dc" target="_top" xlink:title="pymrun">
<polygon fill="none" stroke="#000000" points="264,-276.6785 264,-296.6785 319,-296.6785 319,-276.6785 264,-276.6785"/>
<text text-anchor="middle" x="291.5" y="-283.6785" font-family="FreeSans" font-size="10.00" fill="#000000">pymrun</text>
</a>
</g>
</g>
<!-- Node29&#45;&gt;Node30 -->
<g id="edge35" class="edge">
<title>Node29&#45;&gt;Node30</title>
<path fill="none" stroke="#191970" d="M136.5315,-257.1325C147.875,-260.7443 161.5155,-264.7853 174,-267.6785 200.3604,-273.7872 230.4962,-278.6177 253.6483,-281.8794"/>
<polygon fill="#191970" stroke="#191970" points="253.3726,-285.3743 263.7557,-283.2666 254.3245,-278.4393 253.3726,-285.3743"/>
</g>
<!-- Node31 -->
<g id="node31" class="node">
<title>Node31</title>
<g id="a_node31"><a xlink:href="../../d6/dcf/pythia6425mod_8f.html#a615871b7d284b85342c32545140f6435" target="_top" xlink:title="pyrvgw">
<polygon fill="none" stroke="#000000" points="174,-237.6785 174,-257.6785 228,-257.6785 228,-237.6785 174,-237.6785"/>
<text text-anchor="middle" x="201" y="-244.6785" font-family="FreeSans" font-size="10.00" fill="#000000">pyrvgw</text>
</a>
</g>
</g>
<!-- Node29&#45;&gt;Node31 -->
<g id="edge40" class="edge">
<title>Node29&#45;&gt;Node31</title>
<path fill="none" stroke="#191970" d="M136.9077,-248.3946C145.3186,-248.3006 154.8584,-248.194 163.9595,-248.0923"/>
<polygon fill="#191970" stroke="#191970" points="164.0047,-251.5921 173.9649,-247.9805 163.9264,-244.5926 164.0047,-251.5921"/>
</g>
<!-- Node30&#45;&gt;Node2 -->
<g id="edge37" class="edge">
<title>Node30&#45;&gt;Node2</title>
<path fill="none" stroke="#191970" d="M302.655,-296.8395C314.927,-307.7235 335.5042,-325.1225 355,-337.6785 360.5243,-341.2363 366.6213,-344.674 372.593,-347.8027"/>
<polygon fill="#191970" stroke="#191970" points="371.2694,-351.0552 381.7736,-352.4378 374.4243,-344.8064 371.2694,-351.0552"/>
</g>
<!-- Node30&#45;&gt;Node7 -->
<g id="edge39" class="edge">
<title>Node30&#45;&gt;Node7</title>
<path fill="none" stroke="#191970" d="M319.1799,-293.5485C330.2606,-296.0972 343.1792,-298.8173 355,-300.6785 465.7007,-318.1079 493.9356,-324.6785 606,-324.6785 606,-324.6785 606,-324.6785 694,-324.6785 765.1779,-324.6785 842.124,-363.8243 880.4268,-386.293"/>
<polygon fill="#191970" stroke="#191970" points="878.928,-389.4751 889.3051,-391.6121 882.5256,-383.4703 878.928,-389.4751"/>
</g>
<!-- Node30&#45;&gt;Node9 -->
<g id="edge38" class="edge">
<title>Node30&#45;&gt;Node9</title>
<path fill="none" stroke="#191970" d="M297.6034,-296.7639C308.4967,-314.5607 332.2809,-352.5084 355,-382.6785 365.5091,-396.6342 378.3376,-411.6146 388.3014,-422.8546"/>
<polygon fill="#191970" stroke="#191970" points="385.6982,-425.1941 394.9762,-430.3098 390.9134,-420.5249 385.6982,-425.1941"/>
</g>
<!-- Node30&#45;&gt;Node26 -->
<g id="edge36" class="edge">
<title>Node30&#45;&gt;Node26</title>
<path fill="none" stroke="#191970" d="M319.2665,-286.6785C374.0814,-286.6785 500.0747,-286.6785 606,-286.6785 606,-286.6785 606,-286.6785 694,-286.6785 754.6506,-286.6785 825.0538,-289.6032 867.2603,-291.6717"/>
<polygon fill="#191970" stroke="#191970" points="867.1978,-295.1728 877.3601,-292.1768 867.5475,-288.1816 867.1978,-295.1728"/>
</g>
<!-- Node31&#45;&gt;Node30 -->
<g id="edge41" class="edge">
<title>Node31&#45;&gt;Node30</title>
<path fill="none" stroke="#191970" d="M224.306,-257.7219C234.8622,-262.271 247.5208,-267.7261 258.9904,-272.6688"/>
<polygon fill="#191970" stroke="#191970" points="257.7042,-275.9257 268.273,-276.669 260.4746,-269.4972 257.7042,-275.9257"/>
</g>
<!-- Node32 -->
<g id="node32" class="node">
<title>Node32</title>
<g id="a_node32"><a xlink:href="../../d6/dcf/pythia6425mod_8f.html#a42b2d221de531f661ead0e1bef14807b" target="_top" xlink:title="pyrvi1">
<polygon fill="none" stroke="#000000" points="267.5,-159.6785 267.5,-179.6785 315.5,-179.6785 315.5,-159.6785 267.5,-159.6785"/>
<text text-anchor="middle" x="291.5" y="-166.6785" font-family="FreeSans" font-size="10.00" fill="#000000">pyrvi1</text>
</a>
</g>
</g>
<!-- Node31&#45;&gt;Node32 -->
<g id="edge42" class="edge">
<title>Node31&#45;&gt;Node32</title>
<path fill="none" stroke="#191970" d="M211.3665,-237.4412C223.5862,-225.54 244.6808,-205.5083 264,-189.6785 265.5411,-188.4157 267.1539,-187.1383 268.7926,-185.872"/>
<polygon fill="#191970" stroke="#191970" points="271.0703,-188.5394 276.9908,-179.7531 266.8834,-182.9296 271.0703,-188.5394"/>
</g>
<!-- Node35 -->
<g id="node35" class="node">
<title>Node35</title>
<g id="a_node35"><a xlink:href="../../d6/dcf/pythia6425mod_8f.html#a9e6ea2faa5ba1af425bd3782c8069d02" target="_top" xlink:title="pyrvi2">
<polygon fill="none" stroke="#000000" points="267.5,-237.6785 267.5,-257.6785 315.5,-257.6785 315.5,-237.6785 267.5,-237.6785"/>
<text text-anchor="middle" x="291.5" y="-244.6785" font-family="FreeSans" font-size="10.00" fill="#000000">pyrvi2</text>
</a>
</g>
</g>
<!-- Node31&#45;&gt;Node35 -->
<g id="edge46" class="edge">
<title>Node31&#45;&gt;Node35</title>
<path fill="none" stroke="#191970" d="M228.153,-247.6785C237.3295,-247.6785 247.6948,-247.6785 257.343,-247.6785"/>
<polygon fill="#191970" stroke="#191970" points="257.4408,-251.1786 267.4408,-247.6785 257.4407,-244.1786 257.4408,-251.1786"/>
</g>
<!-- Node38 -->
<g id="node38" class="node">
<title>Node38</title>
<g id="a_node38"><a xlink:href="../../d6/dcf/pythia6425mod_8f.html#a797da463f08ad3ff91ca5d428c5f5cc7" target="_top" xlink:title="pyrvi3">
<polygon fill="none" stroke="#000000" points="267.5,-198.6785 267.5,-218.6785 315.5,-218.6785 315.5,-198.6785 267.5,-198.6785"/>
<text text-anchor="middle" x="291.5" y="-205.6785" font-family="FreeSans" font-size="10.00" fill="#000000">pyrvi3</text>
</a>
</g>
</g>
<!-- Node31&#45;&gt;Node38 -->
<g id="edge51" class="edge">
<title>Node31&#45;&gt;Node38</title>
<path fill="none" stroke="#191970" d="M224.306,-237.635C234.8622,-233.0859 247.5208,-227.6308 258.9904,-222.6881"/>
<polygon fill="#191970" stroke="#191970" points="260.4746,-225.8598 268.273,-218.6879 257.7042,-219.4313 260.4746,-225.8598"/>
</g>
<!-- Node32&#45;&gt;Node10 -->
<g id="edge45" class="edge">
<title>Node32&#45;&gt;Node10</title>
<path fill="none" stroke="#191970" d="M315.7413,-169.6785C330.8858,-169.6785 350.6805,-169.6785 367.7327,-169.6785"/>
<polygon fill="#191970" stroke="#191970" points="367.9296,-173.1786 377.9295,-169.6785 367.9295,-166.1786 367.9296,-173.1786"/>
</g>
<!-- Node33 -->
<g id="node33" class="node">
<title>Node33</title>
<g id="a_node33"><a xlink:href="../../d6/dcf/pythia6425mod_8f.html#a2fc031269f435aa5547d90d480213f0d" target="_top" xlink:title="pyrvg1">
<polygon fill="none" stroke="#000000" points="580.5,-92.6785 580.5,-112.6785 631.5,-112.6785 631.5,-92.6785 580.5,-92.6785"/>
<text text-anchor="middle" x="606" y="-99.6785" font-family="FreeSans" font-size="10.00" fill="#000000">pyrvg1</text>
</a>
</g>
</g>
<!-- Node32&#45;&gt;Node33 -->
<g id="edge43" class="edge">
<title>Node32&#45;&gt;Node33</title>
<path fill="none" stroke="#191970" d="M315.7659,-161.7855C327.5343,-158.1202 341.9219,-153.8767 355,-150.6785 430.8836,-132.121 521.1245,-116.3835 570.0729,-108.366"/>
<polygon fill="#191970" stroke="#191970" points="570.8493,-111.7859 580.1588,-106.7278 569.727,-104.8764 570.8493,-111.7859"/>
</g>
<!-- Node34 -->
<g id="node34" class="node">
<title>Node34</title>
<g id="a_node34"><a xlink:href="../../d6/dcf/pythia6425mod_8f.html#a5168f5ce45865125ee90d4a1967db80d" target="_top" xlink:title="pyrvr">
<polygon fill="none" stroke="#000000" points="672.5,-143.6785 672.5,-163.6785 715.5,-163.6785 715.5,-143.6785 672.5,-143.6785"/>
<text text-anchor="middle" x="694" y="-150.6785" font-family="FreeSans" font-size="10.00" fill="#000000">pyrvr</text>
</a>
</g>
</g>
<!-- Node33&#45;&gt;Node34 -->
<g id="edge44" class="edge">
<title>Node33&#45;&gt;Node34</title>
<path fill="none" stroke="#191970" d="M623.386,-112.7544C636.0414,-120.0888 653.4021,-130.1501 667.7424,-138.461"/>
<polygon fill="#191970" stroke="#191970" points="666.2431,-141.6374 676.6501,-143.6234 669.7531,-135.5809 666.2431,-141.6374"/>
</g>
<!-- Node35&#45;&gt;Node10 -->
<g id="edge50" class="edge">
<title>Node35&#45;&gt;Node10</title>
<path fill="none" stroke="#191970" d="M307.3632,-237.6015C311.2941,-234.8687 315.4069,-231.7981 319,-228.6785 336.8121,-213.2133 335.5937,-203.0888 355,-189.6785 359.2284,-186.7565 363.9476,-184.162 368.7465,-181.8901"/>
<polygon fill="#191970" stroke="#191970" points="370.1666,-185.0894 377.9652,-177.9178 367.3964,-178.6608 370.1666,-185.0894"/>
</g>
<!-- Node36 -->
<g id="node36" class="node">
<title>Node36</title>
<g id="a_node36"><a xlink:href="../../d6/dcf/pythia6425mod_8f.html#a371f64ca765777a5a87c152e18482a4a" target="_top" xlink:title="pyrvg2">
<polygon fill="none" stroke="#000000" points="491.5,-237.6785 491.5,-257.6785 542.5,-257.6785 542.5,-237.6785 491.5,-237.6785"/>
<text text-anchor="middle" x="517" y="-244.6785" font-family="FreeSans" font-size="10.00" fill="#000000">pyrvg2</text>
</a>
</g>
</g>
<!-- Node35&#45;&gt;Node36 -->
<g id="edge47" class="edge">
<title>Node35&#45;&gt;Node36</title>
<path fill="none" stroke="#191970" d="M315.6325,-247.6785C355.3713,-247.6785 434.7855,-247.6785 481.1252,-247.6785"/>
<polygon fill="#191970" stroke="#191970" points="481.3176,-251.1786 491.3176,-247.6785 481.3175,-244.1786 481.3176,-251.1786"/>
</g>
<!-- Node37 -->
<g id="node37" class="node">
<title>Node37</title>
<g id="a_node37"><a xlink:href="../../d6/dcf/pythia6425mod_8f.html#a78f4bff902221f0851a474a0642ca924" target="_top" xlink:title="pyrvs">
<polygon fill="none" stroke="#000000" points="584,-198.6785 584,-218.6785 628,-218.6785 628,-198.6785 584,-198.6785"/>
<text text-anchor="middle" x="606" y="-205.6785" font-family="FreeSans" font-size="10.00" fill="#000000">pyrvs</text>
</a>
</g>
</g>
<!-- Node36&#45;&gt;Node37 -->
<g id="edge48" class="edge">
<title>Node36&#45;&gt;Node37</title>
<path fill="none" stroke="#191970" d="M539.9197,-237.635C550.4619,-233.0154 563.1363,-227.4614 574.553,-222.4586"/>
<polygon fill="#191970" stroke="#191970" points="576.0185,-225.6378 583.7729,-218.4184 573.2089,-219.2263 576.0185,-225.6378"/>
</g>
<!-- Node37&#45;&gt;Node34 -->
<g id="edge49" class="edge">
<title>Node37&#45;&gt;Node34</title>
<path fill="none" stroke="#191970" d="M622.1406,-198.5906C635.2896,-190.3725 654.0775,-178.63 669.1448,-169.213"/>
<polygon fill="#191970" stroke="#191970" points="671.3368,-171.9704 677.9618,-163.7024 667.6268,-166.0344 671.3368,-171.9704"/>
</g>
<!-- Node38&#45;&gt;Node10 -->
<g id="edge57" class="edge">
<title>Node38&#45;&gt;Node10</title>
<path fill="none" stroke="#191970" d="M315.7413,-200.312C331.0287,-195.0358 351.0544,-188.1243 368.2145,-182.2018"/>
<polygon fill="#191970" stroke="#191970" points="369.6186,-185.4198 377.9295,-178.8488 367.3348,-178.8028 369.6186,-185.4198"/>
</g>
<!-- Node39 -->
<g id="node39" class="node">
<title>Node39</title>
<g id="a_node39"><a xlink:href="../../d6/dcf/pythia6425mod_8f.html#a23fb42dd91c099fbcd5cd2001c74e98d" target="_top" xlink:title="pyrvg3">
<polygon fill="none" stroke="#000000" points="379,-198.6785 379,-218.6785 430,-218.6785 430,-198.6785 379,-198.6785"/>
<text text-anchor="middle" x="404.5" y="-205.6785" font-family="FreeSans" font-size="10.00" fill="#000000">pyrvg3</text>
</a>
</g>
</g>
<!-- Node38&#45;&gt;Node39 -->
<g id="edge52" class="edge">
<title>Node38&#45;&gt;Node39</title>
<path fill="none" stroke="#191970" d="M315.7413,-208.6785C331.1006,-208.6785 351.243,-208.6785 368.4566,-208.6785"/>
<polygon fill="#191970" stroke="#191970" points="368.7271,-212.1786 378.7271,-208.6785 368.7271,-205.1786 368.7271,-212.1786"/>
</g>
<!-- Node40 -->
<g id="node40" class="node">
<title>Node40</title>
<g id="a_node40"><a xlink:href="../../d6/dcf/pythia6425mod_8f.html#ad2bff8fc5a17d91922af88f41b6e22f3" target="_top" xlink:title="pygau2">
<polygon fill="none" stroke="#000000" points="490,-159.6785 490,-179.6785 544,-179.6785 544,-159.6785 490,-159.6785"/>
<text text-anchor="middle" x="517" y="-166.6785" font-family="FreeSans" font-size="10.00" fill="#000000">pygau2</text>
</a>
</g>
</g>
<!-- Node39&#45;&gt;Node40 -->
<g id="edge53" class="edge">
<title>Node39&#45;&gt;Node40</title>
<path fill="none" stroke="#191970" d="M430.028,-199.8288C444.738,-194.7293 463.4915,-188.2281 479.8154,-182.5691"/>
<polygon fill="#191970" stroke="#191970" points="481.3056,-185.7569 489.6075,-179.1745 479.0127,-179.1431 481.3056,-185.7569"/>
</g>
<!-- Node41 -->
<g id="node41" class="node">
<title>Node41</title>
<g id="a_node41"><a xlink:href="../../d6/dcf/pythia6425mod_8f.html#a4de5cb4846e35b7378ff15e9a97710c4" target="_top" xlink:title="pyrvg4">
<polygon fill="none" stroke="#000000" points="491.5,-198.6785 491.5,-218.6785 542.5,-218.6785 542.5,-198.6785 491.5,-198.6785"/>
<text text-anchor="middle" x="517" y="-205.6785" font-family="FreeSans" font-size="10.00" fill="#000000">pyrvg4</text>
</a>
</g>
</g>
<!-- Node39&#45;&gt;Node41 -->
<g id="edge55" class="edge">
<title>Node39&#45;&gt;Node41</title>
<path fill="none" stroke="#191970" d="M430.028,-208.6785C445.0247,-208.6785 464.224,-208.6785 480.767,-208.6785"/>
<polygon fill="#191970" stroke="#191970" points="481.1836,-212.1786 491.1836,-208.6785 481.1836,-205.1786 481.1836,-212.1786"/>
</g>
<!-- Node40&#45;&gt;Node11 -->
<g id="edge54" class="edge">
<title>Node40&#45;&gt;Node11</title>
<path fill="none" stroke="#191970" d="M544.1865,-166.9293C552.2547,-166.1134 561.2224,-165.2065 569.7684,-164.3423"/>
<polygon fill="#191970" stroke="#191970" points="570.2976,-167.8068 579.8947,-163.3183 569.5932,-160.8423 570.2976,-167.8068"/>
</g>
<!-- Node41&#45;&gt;Node37 -->
<g id="edge56" class="edge">
<title>Node41&#45;&gt;Node37</title>
<path fill="none" stroke="#191970" d="M542.7425,-208.6785C552.4205,-208.6785 563.5474,-208.6785 573.7442,-208.6785"/>
<polygon fill="#191970" stroke="#191970" points="573.9339,-212.1786 583.9339,-208.6785 573.9339,-205.1786 573.9339,-212.1786"/>
</g>
<!-- Node42&#45;&gt;Node28 -->
<g id="edge59" class="edge">
<title>Node42&#45;&gt;Node28</title>
<path fill="none" stroke="#191970" d="M134.5485,-102.7219C144.9881,-107.271 157.5068,-112.7261 168.8496,-117.6688"/>
<polygon fill="#191970" stroke="#191970" points="167.464,-120.8828 178.0296,-121.669 170.2604,-114.4656 167.464,-120.8828"/>
</g>
<!-- Node43&#45;&gt;Node28 -->
<g id="edge61" class="edge">
<title>Node43&#45;&gt;Node28</title>
<path fill="none" stroke="#191970" d="M134.5485,-160.635C144.9881,-156.0859 157.5068,-150.6308 168.8496,-145.6881"/>
<polygon fill="#191970" stroke="#191970" points="170.2604,-148.8913 178.0296,-141.6879 167.464,-142.4741 170.2604,-148.8913"/>
</g>
<!-- Node44&#45;&gt;Node7 -->
<g id="edge63" class="edge">
<title>Node44&#45;&gt;Node7</title>
<path fill="none" stroke="#191970" d="M720.2967,-401.6785C750.9513,-401.6785 802.6301,-401.6785 843.5406,-401.6785"/>
<polygon fill="#191970" stroke="#191970" points="843.6903,-405.1786 853.6903,-401.6785 843.6902,-398.1786 843.6903,-405.1786"/>
</g>
</g>
</svg>
