<?xml version="1.0" encoding="UTF-8" standalone="no"?>
<!DOCTYPE svg PUBLIC "-//W3C//DTD SVG 1.1//EN"
 "http://www.w3.org/Graphics/SVG/1.1/DTD/svg11.dtd">
<!-- Generated by graphviz version 2.40.1 (20161225.0304)
 -->
<!-- Title: pymemx Pages: 1 -->
<svg width="1295pt" height="340pt"
 viewBox="0.00 0.00 1295.00 340.00" xmlns="http://www.w3.org/2000/svg" xmlns:xlink="http://www.w3.org/1999/xlink">
<g id="graph0" class="graph" transform="scale(1 1) rotate(0) translate(4 336)">
<title>pymemx</title>
<!-- Node1 -->
<g id="node1" class="node">
<title>Node1</title>
<polygon fill="#bfbfbf" stroke="#000000" points="0,-78.5 0,-98.5 61,-98.5 61,-78.5 0,-78.5"/>
<text text-anchor="middle" x="30.5" y="-85.5" font-family="FreeSans" font-size="10.00" fill="#000000">pymemx</text>
</g>
<!-- Node2 -->
<g id="node2" class="node">
<title>Node2</title>
<g id="a_node2"><a xlink:href="../../d6/dcf/pythia6425mod_8f.html#ac00de061be805868aa61d626239f5fa9" target="_top" xlink:title="pyptis">
<polygon fill="none" stroke="#000000" points="99,-59.5 99,-79.5 146,-79.5 146,-59.5 99,-59.5"/>
<text text-anchor="middle" x="122.5" y="-66.5" font-family="FreeSans" font-size="10.00" fill="#000000">pyptis</text>
</a>
</g>
</g>
<!-- Node1&#45;&gt;Node2 -->
<g id="edge1" class="edge">
<title>Node1&#45;&gt;Node2</title>
<path fill="none" stroke="#191970" d="M70.9367,-80.1489C80.5247,-78.1688 90.4399,-76.1211 98.9831,-74.3567"/>
<polygon fill="#191970" stroke="#191970" points="70.2201,-76.723 61.1347,-82.1733 71.6359,-83.5783 70.2201,-76.723"/>
</g>
<!-- Node19 -->
<g id="node19" class="node">
<title>Node19</title>
<g id="a_node19"><a xlink:href="../../d6/dcf/pythia6425mod_8f.html#a9f8a08b43157ca5aa62d84247ff26109" target="_top" xlink:title="pysspa">
<polygon fill="none" stroke="#000000" points="97,-117.5 97,-137.5 148,-137.5 148,-117.5 97,-117.5"/>
<text text-anchor="middle" x="122.5" y="-124.5" font-family="FreeSans" font-size="10.00" fill="#000000">pysspa</text>
</a>
</g>
</g>
<!-- Node1&#45;&gt;Node19 -->
<g id="edge20" class="edge">
<title>Node1&#45;&gt;Node19</title>
<path fill="none" stroke="#191970" d="M63.6357,-102.5467C75.3014,-107.4919 88.1675,-112.946 98.888,-117.4906"/>
<polygon fill="#191970" stroke="#191970" points="64.7652,-99.224 54.1923,-98.5435 62.0332,-105.6689 64.7652,-99.224"/>
</g>
<!-- Node3 -->
<g id="node3" class="node">
<title>Node3</title>
<g id="a_node3"><a xlink:href="../../d6/dcf/pythia6425mod_8f.html#a15448b25c4eb515f33e35f86f376af68" target="_top" xlink:title="pyevol">
<polygon fill="none" stroke="#000000" points="274.5,-.5 274.5,-20.5 324.5,-20.5 324.5,-.5 274.5,-.5"/>
<text text-anchor="middle" x="299.5" y="-7.5" font-family="FreeSans" font-size="10.00" fill="#000000">pyevol</text>
</a>
</g>
</g>
<!-- Node2&#45;&gt;Node3 -->
<g id="edge2" class="edge">
<title>Node2&#45;&gt;Node3</title>
<path fill="none" stroke="#191970" d="M155.6287,-58.4571C190.1122,-46.9626 243.343,-29.219 274.4696,-18.8435"/>
<polygon fill="#191970" stroke="#191970" points="154.3843,-55.1825 146.0042,-61.6653 156.5979,-61.8233 154.3843,-55.1825"/>
</g>
<!-- Node4 -->
<g id="node4" class="node">
<title>Node4</title>
<g id="a_node4"><a xlink:href="../../d6/dcf/pythia6425mod_8f.html#a83ae6561ab82fd7af8b1b3e511f477ac" target="_top" xlink:title="pyevnw">
<polygon fill="none" stroke="#000000" points="361,-78.5 361,-98.5 417,-98.5 417,-78.5 361,-78.5"/>
<text text-anchor="middle" x="389" y="-85.5" font-family="FreeSans" font-size="10.00" fill="#000000">pyevnw</text>
</a>
</g>
</g>
<!-- Node3&#45;&gt;Node4 -->
<g id="edge3" class="edge">
<title>Node3&#45;&gt;Node4</title>
<path fill="none" stroke="#191970" d="M318.7408,-27.2685C336.539,-42.7798 362.4206,-65.3359 377.2966,-78.3004"/>
<polygon fill="#191970" stroke="#191970" points="321.0389,-24.6287 311.2006,-20.6971 316.4398,-29.9059 321.0389,-24.6287"/>
</g>
<!-- Node5 -->
<g id="node5" class="node">
<title>Node5</title>
<g id="a_node5"><a xlink:href="../../d6/dcf/pythia6425mod_8f.html#ac81fa418f8cd77b0873b2de2a4140933" target="_top" xlink:title="pyevnt">
<polygon fill="none" stroke="#000000" points="453,-117.5 453,-137.5 505,-137.5 505,-117.5 453,-117.5"/>
<text text-anchor="middle" x="479" y="-124.5" font-family="FreeSans" font-size="10.00" fill="#000000">pyevnt</text>
</a>
</g>
</g>
<!-- Node4&#45;&gt;Node5 -->
<g id="edge4" class="edge">
<title>Node4&#45;&gt;Node5</title>
<path fill="none" stroke="#191970" d="M421.4154,-102.5467C432.8275,-107.4919 445.4138,-112.946 455.9013,-117.4906"/>
<polygon fill="#191970" stroke="#191970" points="422.7444,-99.3082 412.1772,-98.5435 419.9612,-105.7311 422.7444,-99.3082"/>
</g>
<!-- Node6 -->
<g id="node6" class="node">
<title>Node6</title>
<g id="a_node6"><a xlink:href="../../d3/dd5/jewel-2_82_80_8f.html#aeb24fa7919aa21c652e9c8f2ec45cb91" target="_top" xlink:title="genevent">
<polygon fill="none" stroke="#000000" points="541,-117.5 541,-137.5 606,-137.5 606,-117.5 541,-117.5"/>
<text text-anchor="middle" x="573.5" y="-124.5" font-family="FreeSans" font-size="10.00" fill="#000000">genevent</text>
</a>
</g>
</g>
<!-- Node5&#45;&gt;Node6 -->
<g id="edge5" class="edge">
<title>Node5&#45;&gt;Node6</title>
<path fill="none" stroke="#191970" d="M515.33,-127.5C523.6992,-127.5 532.552,-127.5 540.7582,-127.5"/>
<polygon fill="#191970" stroke="#191970" points="515.0727,-124.0001 505.0727,-127.5 515.0727,-131.0001 515.0727,-124.0001"/>
</g>
<!-- Node18 -->
<g id="node18" class="node">
<title>Node18</title>
<g id="a_node18"><a xlink:href="../../d6/dcf/pythia6425mod_8f.html#a4cc0e611278607d6b413b5cecdfe16c3" target="_top" xlink:title="pytest">
<polygon fill="none" stroke="#000000" points="549.5,-78.5 549.5,-98.5 597.5,-98.5 597.5,-78.5 549.5,-78.5"/>
<text text-anchor="middle" x="573.5" y="-85.5" font-family="FreeSans" font-size="10.00" fill="#000000">pytest</text>
</a>
</g>
</g>
<!-- Node5&#45;&gt;Node18 -->
<g id="edge19" class="edge">
<title>Node5&#45;&gt;Node18</title>
<path fill="none" stroke="#191970" d="M512.677,-113.6015C524.7543,-108.6173 538.1244,-103.0995 549.2464,-98.5094"/>
<polygon fill="#191970" stroke="#191970" points="511.2446,-110.4063 503.3361,-117.4565 513.9151,-116.8769 511.2446,-110.4063"/>
</g>
<!-- Node7 -->
<g id="node7" class="node">
<title>Node7</title>
<g id="a_node7"><a xlink:href="../../dd/d2a/classPHHepMCGenHelper.html#ab0c755f6e53c0bf57ccd314a0017d227" target="_top" xlink:title="send HepMC::GenEvent to DST tree. This function takes ownership of evt">
<polygon fill="none" stroke="#000000" points="671,-155.5 671,-187.5 827,-187.5 827,-155.5 671,-155.5"/>
<text text-anchor="start" x="679" y="-174.5" font-family="FreeSans" font-size="10.00" fill="#000000">PHHepMCGenHelper::insert</text>
<text text-anchor="middle" x="749" y="-162.5" font-family="FreeSans" font-size="10.00" fill="#000000">_event</text>
</a>
</g>
</g>
<!-- Node6&#45;&gt;Node7 -->
<g id="edge6" class="edge">
<title>Node6&#45;&gt;Node7</title>
<path fill="none" stroke="#191970" d="M615.8598,-138.1201C636.5671,-143.3117 661.9279,-149.6699 684.9392,-155.4392"/>
<polygon fill="#191970" stroke="#191970" points="616.6499,-134.7099 606.0989,-135.6729 614.9475,-141.4998 616.6499,-134.7099"/>
</g>
<!-- Node12 -->
<g id="node12" class="node">
<title>Node12</title>
<g id="a_node12"><a xlink:href="../../d9/d3a/classPHPythia8.html#a5cc4124cc6be2fb2467714e3d3bc5a6a" target="_top" xlink:title="PHPythia8::process\l_event">
<polygon fill="none" stroke="#000000" points="927,-107.5 927,-139.5 1040,-139.5 1040,-107.5 927,-107.5"/>
<text text-anchor="start" x="935" y="-126.5" font-family="FreeSans" font-size="10.00" fill="#000000">PHPythia8::process</text>
<text text-anchor="middle" x="983.5" y="-114.5" font-family="FreeSans" font-size="10.00" fill="#000000">_event</text>
</a>
</g>
</g>
<!-- Node6&#45;&gt;Node12 -->
<g id="edge17" class="edge">
<title>Node6&#45;&gt;Node12</title>
<path fill="none" stroke="#191970" d="M616.4086,-127.0814C690.8409,-126.3552 843.8672,-124.8623 926.902,-124.0522"/>
<polygon fill="#191970" stroke="#191970" points="615.9801,-123.5853 606.0147,-127.1828 616.0484,-130.585 615.9801,-123.5853"/>
</g>
<!-- Node13 -->
<g id="node13" class="node">
<title>Node13</title>
<g id="a_node13"><a xlink:href="../../da/df0/classPHSartre.html#aafe9fd92317ab1f7eee67a9354696c4e" target="_top" xlink:title="PHSartre::process_event">
<polygon fill="none" stroke="#000000" points="913.5,-68.5 913.5,-88.5 1053.5,-88.5 1053.5,-68.5 913.5,-68.5"/>
<text text-anchor="middle" x="983.5" y="-75.5" font-family="FreeSans" font-size="10.00" fill="#000000">PHSartre::process_event</text>
</a>
</g>
</g>
<!-- Node6&#45;&gt;Node13 -->
<g id="edge16" class="edge">
<title>Node6&#45;&gt;Node13</title>
<path fill="none" stroke="#191970" d="M616.2904,-122.386C686.752,-113.965 827.8743,-97.0992 913.1815,-86.9039"/>
<polygon fill="#191970" stroke="#191970" points="615.5287,-118.9521 606.0147,-123.6141 616.3594,-125.9026 615.5287,-118.9521"/>
</g>
<!-- Node15 -->
<g id="node15" class="node">
<title>Node15</title>
<g id="a_node15"><a xlink:href="../../d3/dd5/jewel-2_82_80_8f.html#a15e2df3184692bfe4ca2261638190094" target="_top" xlink:title="jewel">
<polygon fill="none" stroke="#000000" points="727.5,-39.5 727.5,-59.5 770.5,-59.5 770.5,-39.5 727.5,-39.5"/>
<text text-anchor="middle" x="749" y="-46.5" font-family="FreeSans" font-size="10.00" fill="#000000">jewel</text>
</a>
</g>
</g>
<!-- Node6&#45;&gt;Node15 -->
<g id="edge14" class="edge">
<title>Node6&#45;&gt;Node15</title>
<path fill="none" stroke="#191970" d="M600.2172,-111.6363C602.2046,-110.2816 604.1529,-108.8949 606,-107.5 623.321,-94.4197 622.8055,-84.6333 642,-74.5 669.3296,-60.072 704.9185,-53.8932 727.3693,-51.3008"/>
<polygon fill="#191970" stroke="#191970" points="597.95,-108.9338 591.4459,-117.2972 601.7459,-114.8152 597.95,-108.9338"/>
</g>
<!-- Node16 -->
<g id="node16" class="node">
<title>Node16</title>
<g id="a_node16"><a xlink:href="../../d7/df5/pepsiMaineRHIC__noradcorr_8f.html#ac2ed0c0080f3e6d946824efb82e28ab5" target="_top" xlink:title="pepsimainerhic">
<polygon fill="none" stroke="#000000" points="702,-245.5 702,-265.5 796,-265.5 796,-245.5 702,-245.5"/>
<text text-anchor="middle" x="749" y="-252.5" font-family="FreeSans" font-size="10.00" fill="#000000">pepsimainerhic</text>
</a>
</g>
</g>
<!-- Node6&#45;&gt;Node16 -->
<g id="edge15" class="edge">
<title>Node6&#45;&gt;Node16</title>
<path fill="none" stroke="#191970" d="M580.1332,-147.1451C589.6622,-172.1662 609.7213,-214.7597 642,-236.5 659.4482,-248.2517 681.9954,-253.3709 701.8899,-255.4058"/>
<polygon fill="#191970" stroke="#191970" points="583.3781,-145.8259 576.689,-137.6096 576.7944,-148.2039 583.3781,-145.8259"/>
</g>
<!-- Node17 -->
<g id="node17" class="node">
<title>Node17</title>
<g id="a_node17"><a xlink:href="../../de/d99/classFun4AllHepMCPileupInputManager.html#a81bf2b69c3c4d3aae0aadebafe1c2c2e" target="_top" xlink:title="Fun4AllHepMCPileupInputManager::run">
<polygon fill="none" stroke="#000000" points="642,-206.5 642,-226.5 856,-226.5 856,-206.5 642,-206.5"/>
<text text-anchor="middle" x="749" y="-213.5" font-family="FreeSans" font-size="10.00" fill="#000000">Fun4AllHepMCPileupInputManager::run</text>
</a>
</g>
</g>
<!-- Node6&#45;&gt;Node17 -->
<g id="edge18" class="edge">
<title>Node6&#45;&gt;Node17</title>
<path fill="none" stroke="#191970" d="M586.4186,-145.7137C598.7979,-161.7193 618.9655,-184.305 642,-196.5 649.6828,-200.5675 658.0594,-203.819 666.6324,-206.4164"/>
<polygon fill="#191970" stroke="#191970" points="589.1571,-143.5312 580.3737,-137.6064 583.5453,-147.7154 589.1571,-143.5312"/>
</g>
<!-- Node8 -->
<g id="node8" class="node">
<title>Node8</title>
<g id="a_node8"><a xlink:href="../../d6/d6f/classFun4AllHepMCInputManager.html#ab6c80a8ee0701bfff5eee3ec3623015c" target="_top" xlink:title="Fun4AllHepMCInputManager::run">
<polygon fill="none" stroke="#000000" points="892,-209.5 892,-229.5 1075,-229.5 1075,-209.5 892,-209.5"/>
<text text-anchor="middle" x="983.5" y="-216.5" font-family="FreeSans" font-size="10.00" fill="#000000">Fun4AllHepMCInputManager::run</text>
</a>
</g>
</g>
<!-- Node7&#45;&gt;Node8 -->
<g id="edge7" class="edge">
<title>Node7&#45;&gt;Node8</title>
<path fill="none" stroke="#191970" d="M837.1824,-189.5501C870.096,-196.2872 906.2712,-203.692 934.417,-209.4532"/>
<polygon fill="#191970" stroke="#191970" points="837.5839,-186.0598 827.0851,-187.4833 836.1801,-192.9176 837.5839,-186.0598"/>
</g>
<!-- Node9 -->
<g id="node9" class="node">
<title>Node9</title>
<g id="a_node9"><a xlink:href="../../db/d1f/classFun4AllOscarInputManager.html#a1537e89c4e652f70747fbbef18ceadc4" target="_top" xlink:title="Fun4AllOscarInputManager\l::ConvertFromOscar">
<polygon fill="none" stroke="#000000" points="906.5,-158.5 906.5,-190.5 1060.5,-190.5 1060.5,-158.5 906.5,-158.5"/>
<text text-anchor="start" x="914.5" y="-177.5" font-family="FreeSans" font-size="10.00" fill="#000000">Fun4AllOscarInputManager</text>
<text text-anchor="middle" x="983.5" y="-165.5" font-family="FreeSans" font-size="10.00" fill="#000000">::ConvertFromOscar</text>
</a>
</g>
</g>
<!-- Node7&#45;&gt;Node9 -->
<g id="edge8" class="edge">
<title>Node7&#45;&gt;Node9</title>
<path fill="none" stroke="#191970" d="M837.3585,-172.6304C859.9812,-172.9198 884.1342,-173.2288 906.155,-173.5105"/>
<polygon fill="#191970" stroke="#191970" points="837.1291,-169.1273 827.0851,-172.499 837.0395,-176.1267 837.1291,-169.1273"/>
</g>
<!-- Node11 -->
<g id="node11" class="node">
<title>Node11</title>
<g id="a_node11"><a xlink:href="../../dd/da8/classPHPythia6.html#a7a70bdd1c198a83ed143d3e2c4516d0d" target="_top" xlink:title="PHPythia6::process\l_event">
<polygon fill="none" stroke="#000000" points="927,-299.5 927,-331.5 1040,-331.5 1040,-299.5 927,-299.5"/>
<text text-anchor="start" x="935" y="-318.5" font-family="FreeSans" font-size="10.00" fill="#000000">PHPythia6::process</text>
<text text-anchor="middle" x="983.5" y="-306.5" font-family="FreeSans" font-size="10.00" fill="#000000">_event</text>
</a>
</g>
</g>
<!-- Node7&#45;&gt;Node11 -->
<g id="edge10" class="edge">
<title>Node7&#45;&gt;Node11</title>
<path fill="none" stroke="#191970" d="M836.7635,-184.1776C843.7249,-187.4506 850.2676,-191.4997 856,-196.5 889.7133,-225.9075 858.8393,-260.4708 892,-290.5 901.6431,-299.2325 914.0482,-304.9561 926.5922,-308.6964"/>
<polygon fill="#191970" stroke="#191970" points="837.6275,-180.7484 827.0479,-180.1791 834.9634,-187.2216 837.6275,-180.7484"/>
</g>
<!-- Node7&#45;&gt;Node12 -->
<g id="edge11" class="edge">
<title>Node7&#45;&gt;Node12</title>
<path fill="none" stroke="#191970" d="M837.16,-153.4544C867.2125,-147.303 899.9865,-140.5945 926.8859,-135.0884"/>
<polygon fill="#191970" stroke="#191970" points="836.1801,-150.0824 827.0851,-155.5167 837.5839,-156.9402 836.1801,-150.0824"/>
</g>
<!-- Node7&#45;&gt;Node13 -->
<g id="edge12" class="edge">
<title>Node7&#45;&gt;Node13</title>
<path fill="none" stroke="#191970" d="M783.3296,-150.3345C811.5729,-133.7691 853.1358,-111.2975 892,-97.5 901.9381,-93.9718 912.7283,-91.0104 923.2973,-88.5553"/>
<polygon fill="#191970" stroke="#191970" points="781.4613,-147.3733 774.648,-155.4869 785.0339,-153.393 781.4613,-147.3733"/>
</g>
<!-- Node14 -->
<g id="node14" class="node">
<title>Node14</title>
<g id="a_node14"><a xlink:href="../../d3/d49/classReadEICFiles.html#a49106bf9561329777334154092890af2" target="_top" xlink:title="ReadEICFiles::process\l_event">
<polygon fill="none" stroke="#000000" points="920.5,-248.5 920.5,-280.5 1046.5,-280.5 1046.5,-248.5 920.5,-248.5"/>
<text text-anchor="start" x="928.5" y="-267.5" font-family="FreeSans" font-size="10.00" fill="#000000">ReadEICFiles::process</text>
<text text-anchor="middle" x="983.5" y="-255.5" font-family="FreeSans" font-size="10.00" fill="#000000">_event</text>
</a>
</g>
</g>
<!-- Node7&#45;&gt;Node14 -->
<g id="edge13" class="edge">
<title>Node7&#45;&gt;Node14</title>
<path fill="none" stroke="#191970" d="M836.4867,-186.8608C843.3148,-189.5688 849.9125,-192.7539 856,-196.5 877.2273,-209.5628 871.0193,-226.0448 892,-239.5 900.5944,-245.0117 910.3928,-249.3201 920.308,-252.6847"/>
<polygon fill="#191970" stroke="#191970" points="837.6534,-183.5609 827.0591,-183.4558 835.2755,-190.1447 837.6534,-183.5609"/>
</g>
<!-- Node10 -->
<g id="node10" class="node">
<title>Node10</title>
<g id="a_node10"><a xlink:href="../../db/d1f/classFun4AllOscarInputManager.html#a4be602bd8c9fe73f9dcc81c8871784a6" target="_top" xlink:title="Fun4AllOscarInputManager::run">
<polygon fill="none" stroke="#000000" points="1111,-164.5 1111,-184.5 1287,-184.5 1287,-164.5 1111,-164.5"/>
<text text-anchor="middle" x="1199" y="-171.5" font-family="FreeSans" font-size="10.00" fill="#000000">Fun4AllOscarInputManager::run</text>
</a>
</g>
</g>
<!-- Node9&#45;&gt;Node10 -->
<g id="edge9" class="edge">
<title>Node9&#45;&gt;Node10</title>
<path fill="none" stroke="#191970" d="M1070.7391,-174.5C1084.0061,-174.5 1097.7039,-174.5 1110.9873,-174.5"/>
<polygon fill="#191970" stroke="#191970" points="1070.6918,-171.0001 1060.6918,-174.5 1070.6917,-178.0001 1070.6918,-171.0001"/>
</g>
<!-- Node19&#45;&gt;Node5 -->
<g id="edge21" class="edge">
<title>Node19&#45;&gt;Node5</title>
<path fill="none" stroke="#191970" d="M144.8791,-143.2964C195.4518,-176.8937 321.5753,-248.8036 417,-203.5 446.0729,-189.6974 466.0115,-154.8507 474.4567,-137.5561"/>
<polygon fill="#191970" stroke="#191970" points="146.5806,-140.2215 136.3397,-137.5059 142.652,-146.0151 146.5806,-140.2215"/>
</g>
<!-- Node20 -->
<g id="node20" class="node">
<title>Node20</title>
<g id="a_node20"><a xlink:href="../../d6/dcf/pythia6425mod_8f.html#a5c7e2372fde451d6f2253ef044e01364" target="_top" xlink:title="pymign">
<polygon fill="none" stroke="#000000" points="184,-117.5 184,-137.5 238,-137.5 238,-117.5 184,-117.5"/>
<text text-anchor="middle" x="211" y="-124.5" font-family="FreeSans" font-size="10.00" fill="#000000">pymign</text>
</a>
</g>
</g>
<!-- Node19&#45;&gt;Node20 -->
<g id="edge22" class="edge">
<title>Node19&#45;&gt;Node20</title>
<path fill="none" stroke="#191970" d="M158.2382,-127.5C166.8058,-127.5 175.8158,-127.5 183.9172,-127.5"/>
<polygon fill="#191970" stroke="#191970" points="158.0979,-124.0001 148.0979,-127.5 158.0978,-131.0001 158.0979,-124.0001"/>
</g>
<!-- Node20&#45;&gt;Node5 -->
<g id="edge27" class="edge">
<title>Node20&#45;&gt;Node5</title>
<path fill="none" stroke="#191970" d="M233.4545,-143.2426C271.8417,-168.091 352.2133,-211.0795 417,-185.5 441.4032,-175.865 461.8452,-151.588 472.0366,-137.6887"/>
<polygon fill="#191970" stroke="#191970" points="235.3262,-140.2841 225.0613,-137.6608 231.4499,-146.1128 235.3262,-140.2841"/>
</g>
<!-- Node21 -->
<g id="node21" class="node">
<title>Node21</title>
<g id="a_node21"><a xlink:href="../../d6/dcf/pythia6425mod_8f.html#aac00ac3ccd923c2c3dc37e2b89a9f025" target="_top" xlink:title="pyinit">
<polygon fill="none" stroke="#000000" points="456.5,-39.5 456.5,-59.5 501.5,-59.5 501.5,-39.5 456.5,-39.5"/>
<text text-anchor="middle" x="479" y="-46.5" font-family="FreeSans" font-size="10.00" fill="#000000">pyinit</text>
</a>
</g>
</g>
<!-- Node20&#45;&gt;Node21 -->
<g id="edge23" class="edge">
<title>Node20&#45;&gt;Node21</title>
<path fill="none" stroke="#191970" d="M241.8067,-113.1162C271.673,-99.719 318.5634,-80.1167 361,-68.5 393.4221,-59.6247 432.0633,-54.3736 456.069,-51.714"/>
<polygon fill="#191970" stroke="#191970" points="240.0224,-110.0823 232.3618,-117.4012 242.9145,-116.4569 240.0224,-110.0823"/>
</g>
<!-- Node23 -->
<g id="node23" class="node">
<title>Node23</title>
<g id="a_node23"><a xlink:href="../../d6/dcf/pythia6425mod_8f.html#a2d74d5dd64881524212b3720af2696de" target="_top" xlink:title="pyrand">
<polygon fill="none" stroke="#000000" points="274,-117.5 274,-137.5 325,-137.5 325,-117.5 274,-117.5"/>
<text text-anchor="middle" x="299.5" y="-124.5" font-family="FreeSans" font-size="10.00" fill="#000000">pyrand</text>
</a>
</g>
</g>
<!-- Node20&#45;&gt;Node23 -->
<g id="edge28" class="edge">
<title>Node20&#45;&gt;Node23</title>
<path fill="none" stroke="#191970" d="M248.269,-127.5C256.8815,-127.5 265.856,-127.5 273.8427,-127.5"/>
<polygon fill="#191970" stroke="#191970" points="248.0338,-124.0001 238.0338,-127.5 248.0338,-131.0001 248.0338,-124.0001"/>
</g>
<!-- Node21&#45;&gt;Node18 -->
<g id="edge26" class="edge">
<title>Node21&#45;&gt;Node18</title>
<path fill="none" stroke="#191970" d="M511.4061,-62.8739C523.7872,-67.9836 537.6817,-73.7179 549.1831,-78.4644"/>
<polygon fill="#191970" stroke="#191970" points="512.4548,-59.5204 501.8758,-58.9408 509.7843,-65.9911 512.4548,-59.5204"/>
</g>
<!-- Node22 -->
<g id="node22" class="node">
<title>Node22</title>
<g id="a_node22"><a xlink:href="../../d3/dd5/jewel-2_82_80_8f.html#a2cba90a4cdaaf1d5de1cf1bfe9afaa2e" target="_top" xlink:title="initpythia">
<polygon fill="none" stroke="#000000" points="542,-39.5 542,-59.5 605,-59.5 605,-39.5 542,-39.5"/>
<text text-anchor="middle" x="573.5" y="-46.5" font-family="FreeSans" font-size="10.00" fill="#000000">initpythia</text>
</a>
</g>
</g>
<!-- Node21&#45;&gt;Node22 -->
<g id="edge24" class="edge">
<title>Node21&#45;&gt;Node22</title>
<path fill="none" stroke="#191970" d="M511.977,-49.5C521.6884,-49.5 532.2875,-49.5 541.9097,-49.5"/>
<polygon fill="#191970" stroke="#191970" points="511.8758,-46.0001 501.8758,-49.5 511.8758,-53.0001 511.8758,-46.0001"/>
</g>
<!-- Node22&#45;&gt;Node15 -->
<g id="edge25" class="edge">
<title>Node22&#45;&gt;Node15</title>
<path fill="none" stroke="#191970" d="M615.2834,-49.5C650.5317,-49.5 699.568,-49.5 727.4129,-49.5"/>
<polygon fill="#191970" stroke="#191970" points="615.2818,-46.0001 605.2817,-49.5 615.2817,-53.0001 615.2818,-46.0001"/>
</g>
<!-- Node23&#45;&gt;Node4 -->
<g id="edge30" class="edge">
<title>Node23&#45;&gt;Node4</title>
<path fill="none" stroke="#191970" d="M331.7353,-113.4533C343.084,-108.5081 355.6004,-103.054 366.0296,-98.5094"/>
<polygon fill="#191970" stroke="#191970" points="330.3177,-110.2531 322.5485,-117.4565 333.1141,-116.6703 330.3177,-110.2531"/>
</g>
<!-- Node23&#45;&gt;Node5 -->
<g id="edge29" class="edge">
<title>Node23&#45;&gt;Node5</title>
<path fill="none" stroke="#191970" d="M335.3905,-127.5C370.0637,-127.5 421.7569,-127.5 452.746,-127.5"/>
<polygon fill="#191970" stroke="#191970" points="335.218,-124.0001 325.218,-127.5 335.2179,-131.0001 335.218,-124.0001"/>
</g>
<!-- Node24 -->
<g id="node24" class="node">
<title>Node24</title>
<g id="a_node24"><a xlink:href="../../d6/dcf/pythia6425mod_8f.html#ae7cb37215e5a38b3fb0529c9996646e6" target="_top" xlink:title="pyupev">
<polygon fill="none" stroke="#000000" points="362,-156.5 362,-176.5 416,-176.5 416,-156.5 362,-156.5"/>
<text text-anchor="middle" x="389" y="-163.5" font-family="FreeSans" font-size="10.00" fill="#000000">pyupev</text>
</a>
</g>
</g>
<!-- Node23&#45;&gt;Node24 -->
<g id="edge31" class="edge">
<title>Node23&#45;&gt;Node24</title>
<path fill="none" stroke="#191970" d="M331.7353,-141.5467C343.084,-146.4919 355.6004,-151.946 366.0296,-156.4906"/>
<polygon fill="#191970" stroke="#191970" points="333.1141,-138.3297 322.5485,-137.5435 330.3177,-144.7469 333.1141,-138.3297"/>
</g>
</g>
</svg>
