<?xml version="1.0" encoding="UTF-8" standalone="no"?>
<!DOCTYPE svg PUBLIC "-//W3C//DTD SVG 1.1//EN"
 "http://www.w3.org/Graphics/SVG/1.1/DTD/svg11.dtd">
<!-- Generated by graphviz version 2.40.1 (20161225.0304)
 -->
<!-- Title: pywaux Pages: 1 -->
<svg width="1477pt" height="305pt"
 viewBox="0.00 0.00 1477.00 305.00" xmlns="http://www.w3.org/2000/svg" xmlns:xlink="http://www.w3.org/1999/xlink">
<g id="graph0" class="graph" transform="scale(1 1) rotate(0) translate(4 301)">
<title>pywaux</title>
<!-- Node1 -->
<g id="node1" class="node">
<title>Node1</title>
<polygon fill="#bfbfbf" stroke="#000000" points="0,-161.5 0,-181.5 56,-181.5 56,-161.5 0,-161.5"/>
<text text-anchor="middle" x="28" y="-168.5" font-family="FreeSans" font-size="10.00" fill="#000000">pywaux</text>
</g>
<!-- Node2 -->
<g id="node2" class="node">
<title>Node2</title>
<g id="a_node2"><a xlink:href="../../d6/dcf/pythia6425mod_8f.html#a57a12a8bdfcf423e5b0ed01349b0ff46" target="_top" xlink:title="pysghg">
<polygon fill="none" stroke="#000000" points="92,-181.5 92,-201.5 145,-201.5 145,-181.5 92,-181.5"/>
<text text-anchor="middle" x="118.5" y="-188.5" font-family="FreeSans" font-size="10.00" fill="#000000">pysghg</text>
</a>
</g>
</g>
<!-- Node1&#45;&gt;Node2 -->
<g id="edge1" class="edge">
<title>Node1&#45;&gt;Node2</title>
<path fill="none" stroke="#191970" d="M66.0952,-179.9188C74.7857,-181.8394 83.8375,-183.8398 91.9242,-185.6269"/>
<polygon fill="#191970" stroke="#191970" points="66.6584,-176.4589 56.1387,-177.7185 65.1478,-183.294 66.6584,-176.4589"/>
</g>
<!-- Node29 -->
<g id="node29" class="node">
<title>Node29</title>
<g id="a_node29"><a xlink:href="../../d6/dcf/pythia6425mod_8f.html#a370a25c3139b210db10c7b1a02289deb" target="_top" xlink:title="pysgqc">
<polygon fill="none" stroke="#000000" points="92.5,-142.5 92.5,-162.5 144.5,-162.5 144.5,-142.5 92.5,-142.5"/>
<text text-anchor="middle" x="118.5" y="-149.5" font-family="FreeSans" font-size="10.00" fill="#000000">pysgqc</text>
</a>
</g>
</g>
<!-- Node1&#45;&gt;Node29 -->
<g id="edge41" class="edge">
<title>Node1&#45;&gt;Node29</title>
<path fill="none" stroke="#191970" d="M66.188,-163.4826C74.9601,-161.641 84.0952,-159.7231 92.2306,-158.0151"/>
<polygon fill="#191970" stroke="#191970" points="65.2062,-160.1124 56.1387,-165.5924 66.6445,-166.963 65.2062,-160.1124"/>
</g>
<!-- Node3 -->
<g id="node3" class="node">
<title>Node3</title>
<g id="a_node3"><a xlink:href="../../d6/dcf/pythia6425mod_8f.html#a3ccdee32be69df9daf5605283165a012" target="_top" xlink:title="pysigh">
<polygon fill="none" stroke="#000000" points="181,-161.5 181,-181.5 230,-181.5 230,-161.5 181,-161.5"/>
<text text-anchor="middle" x="205.5" y="-168.5" font-family="FreeSans" font-size="10.00" fill="#000000">pysigh</text>
</a>
</g>
</g>
<!-- Node2&#45;&gt;Node3 -->
<g id="edge2" class="edge">
<title>Node2&#45;&gt;Node3</title>
<path fill="none" stroke="#191970" d="M155.0376,-183.1005C163.7472,-181.0984 172.839,-179.0083 180.8673,-177.1627"/>
<polygon fill="#191970" stroke="#191970" points="154.0372,-179.7391 145.0756,-185.3907 155.6056,-186.5612 154.0372,-179.7391"/>
</g>
<!-- Node4 -->
<g id="node4" class="node">
<title>Node4</title>
<g id="a_node4"><a xlink:href="../../d6/dcf/pythia6425mod_8f.html#aa9cb6f1467302508501201a0e38959d1" target="_top" xlink:title="pymaxi">
<polygon fill="none" stroke="#000000" points="266,-238.5 266,-258.5 319,-258.5 319,-238.5 266,-238.5"/>
<text text-anchor="middle" x="292.5" y="-245.5" font-family="FreeSans" font-size="10.00" fill="#000000">pymaxi</text>
</a>
</g>
</g>
<!-- Node3&#45;&gt;Node4 -->
<g id="edge3" class="edge">
<title>Node3&#45;&gt;Node4</title>
<path fill="none" stroke="#191970" d="M224.6728,-188.469C241.9568,-203.7664 266.7933,-225.7481 281.1235,-238.4311"/>
<polygon fill="#191970" stroke="#191970" points="226.6817,-185.5731 216.8737,-181.5664 222.0424,-190.815 226.6817,-185.5731"/>
</g>
<!-- Node9 -->
<g id="node9" class="node">
<title>Node9</title>
<g id="a_node9"><a xlink:href="../../d6/dcf/pythia6425mod_8f.html#a5c7e2372fde451d6f2253ef044e01364" target="_top" xlink:title="pymign">
<polygon fill="none" stroke="#000000" points="355,-200.5 355,-220.5 409,-220.5 409,-200.5 355,-200.5"/>
<text text-anchor="middle" x="382" y="-207.5" font-family="FreeSans" font-size="10.00" fill="#000000">pymign</text>
</a>
</g>
</g>
<!-- Node3&#45;&gt;Node9 -->
<g id="edge8" class="edge">
<title>Node3&#45;&gt;Node9</title>
<path fill="none" stroke="#191970" d="M240.152,-179.6136C248.603,-181.5661 257.6222,-183.628 266,-185.5 296.3593,-192.2837 331.2623,-199.7627 354.7864,-204.7565"/>
<polygon fill="#191970" stroke="#191970" points="240.7389,-176.1568 230.2066,-177.3062 239.1569,-182.9757 240.7389,-176.1568"/>
</g>
<!-- Node22 -->
<g id="node22" class="node">
<title>Node22</title>
<g id="a_node22"><a xlink:href="../../d6/dcf/pythia6425mod_8f.html#a2d74d5dd64881524212b3720af2696de" target="_top" xlink:title="pyrand">
<polygon fill="none" stroke="#000000" points="445,-122.5 445,-142.5 496,-142.5 496,-122.5 445,-122.5"/>
<text text-anchor="middle" x="470.5" y="-129.5" font-family="FreeSans" font-size="10.00" fill="#000000">pyrand</text>
</a>
</g>
</g>
<!-- Node3&#45;&gt;Node22 -->
<g id="edge40" class="edge">
<title>Node3&#45;&gt;Node22</title>
<path fill="none" stroke="#191970" d="M240.5571,-166.3407C294.5612,-158.3929 396.8565,-143.3381 444.663,-136.3024"/>
<polygon fill="#191970" stroke="#191970" points="239.8144,-162.9122 230.4306,-167.831 240.8336,-169.8376 239.8144,-162.9122"/>
</g>
<!-- Node25 -->
<g id="node25" class="node">
<title>Node25</title>
<g id="a_node25"><a xlink:href="../../d6/dcf/pythia6425mod_8f.html#a4ae1a9148440832c122abdaedf3555a7" target="_top" xlink:title="pymult">
<polygon fill="none" stroke="#000000" points="356,-161.5 356,-181.5 408,-181.5 408,-161.5 356,-161.5"/>
<text text-anchor="middle" x="382" y="-168.5" font-family="FreeSans" font-size="10.00" fill="#000000">pymult</text>
</a>
</g>
</g>
<!-- Node3&#45;&gt;Node25 -->
<g id="edge31" class="edge">
<title>Node3&#45;&gt;Node25</title>
<path fill="none" stroke="#191970" d="M240.4419,-171.5C274.448,-171.5 325.343,-171.5 355.945,-171.5"/>
<polygon fill="#191970" stroke="#191970" points="240.0416,-168.0001 230.0416,-171.5 240.0415,-175.0001 240.0416,-168.0001"/>
</g>
<!-- Node26 -->
<g id="node26" class="node">
<title>Node26</title>
<g id="a_node26"><a xlink:href="../../d6/dcf/pythia6425mod_8f.html#af1b5061d1d80462745ef6b9ab52500f2" target="_top" xlink:title="pyptmi">
<polygon fill="none" stroke="#000000" points="267,-83.5 267,-103.5 318,-103.5 318,-83.5 267,-83.5"/>
<text text-anchor="middle" x="292.5" y="-90.5" font-family="FreeSans" font-size="10.00" fill="#000000">pyptmi</text>
</a>
</g>
</g>
<!-- Node3&#45;&gt;Node26 -->
<g id="edge35" class="edge">
<title>Node3&#45;&gt;Node26</title>
<path fill="none" stroke="#191970" d="M224.6728,-154.3106C241.9568,-138.8146 266.7933,-116.5474 281.1235,-103.6996"/>
<polygon fill="#191970" stroke="#191970" points="221.983,-152.0214 216.8737,-161.3029 226.6559,-157.2334 221.983,-152.0214"/>
</g>
<!-- Node5 -->
<g id="node5" class="node">
<title>Node5</title>
<g id="a_node5"><a xlink:href="../../d6/dcf/pythia6425mod_8f.html#aac00ac3ccd923c2c3dc37e2b89a9f025" target="_top" xlink:title="pyinit">
<polygon fill="none" stroke="#000000" points="448,-238.5 448,-258.5 493,-258.5 493,-238.5 448,-238.5"/>
<text text-anchor="middle" x="470.5" y="-245.5" font-family="FreeSans" font-size="10.00" fill="#000000">pyinit</text>
</a>
</g>
</g>
<!-- Node4&#45;&gt;Node5 -->
<g id="edge4" class="edge">
<title>Node4&#45;&gt;Node5</title>
<path fill="none" stroke="#191970" d="M329.1725,-248.5C364.8734,-248.5 417.9946,-248.5 447.9075,-248.5"/>
<polygon fill="#191970" stroke="#191970" points="329.1484,-245.0001 319.1484,-248.5 329.1484,-252.0001 329.1484,-245.0001"/>
</g>
<!-- Node6 -->
<g id="node6" class="node">
<title>Node6</title>
<g id="a_node6"><a xlink:href="../../d3/dd5/jewel-2_82_80_8f.html#a2cba90a4cdaaf1d5de1cf1bfe9afaa2e" target="_top" xlink:title="initpythia">
<polygon fill="none" stroke="#000000" points="624,-276.5 624,-296.5 687,-296.5 687,-276.5 624,-276.5"/>
<text text-anchor="middle" x="655.5" y="-283.5" font-family="FreeSans" font-size="10.00" fill="#000000">initpythia</text>
</a>
</g>
</g>
<!-- Node5&#45;&gt;Node6 -->
<g id="edge5" class="edge">
<title>Node5&#45;&gt;Node6</title>
<path fill="none" stroke="#191970" d="M503.3037,-255.4886C512.5782,-257.4496 522.6826,-259.5722 532,-261.5 563.1692,-267.949 598.8023,-275.1431 623.7564,-280.1521"/>
<polygon fill="#191970" stroke="#191970" points="503.7797,-252.0118 493.2712,-253.3621 502.3281,-258.8596 503.7797,-252.0118"/>
</g>
<!-- Node8 -->
<g id="node8" class="node">
<title>Node8</title>
<g id="a_node8"><a xlink:href="../../d6/dcf/pythia6425mod_8f.html#a4cc0e611278607d6b413b5cecdfe16c3" target="_top" xlink:title="pytest">
<polygon fill="none" stroke="#000000" points="731.5,-219.5 731.5,-239.5 779.5,-239.5 779.5,-219.5 731.5,-219.5"/>
<text text-anchor="middle" x="755.5" y="-226.5" font-family="FreeSans" font-size="10.00" fill="#000000">pytest</text>
</a>
</g>
</g>
<!-- Node5&#45;&gt;Node8 -->
<g id="edge7" class="edge">
<title>Node5&#45;&gt;Node8</title>
<path fill="none" stroke="#191970" d="M503.4224,-246.3052C561.3748,-242.4417 680.2951,-234.5137 731.3461,-231.1103"/>
<polygon fill="#191970" stroke="#191970" points="503.086,-242.8197 493.341,-246.9773 503.5517,-249.8042 503.086,-242.8197"/>
</g>
<!-- Node7 -->
<g id="node7" class="node">
<title>Node7</title>
<g id="a_node7"><a xlink:href="../../d3/dd5/jewel-2_82_80_8f.html#a15e2df3184692bfe4ca2261638190094" target="_top" xlink:title="jewel">
<polygon fill="none" stroke="#000000" points="909.5,-276.5 909.5,-296.5 952.5,-296.5 952.5,-276.5 909.5,-276.5"/>
<text text-anchor="middle" x="931" y="-283.5" font-family="FreeSans" font-size="10.00" fill="#000000">jewel</text>
</a>
</g>
</g>
<!-- Node6&#45;&gt;Node7 -->
<g id="edge6" class="edge">
<title>Node6&#45;&gt;Node7</title>
<path fill="none" stroke="#191970" d="M697.269,-286.5C756.6794,-286.5 863.4478,-286.5 909.2094,-286.5"/>
<polygon fill="#191970" stroke="#191970" points="697.1034,-283.0001 687.1034,-286.5 697.1033,-290.0001 697.1034,-283.0001"/>
</g>
<!-- Node9&#45;&gt;Node5 -->
<g id="edge25" class="edge">
<title>Node9&#45;&gt;Node5</title>
<path fill="none" stroke="#191970" d="M415.0269,-224.681C425.9943,-229.3902 437.9466,-234.5223 447.9387,-238.8127"/>
<polygon fill="#191970" stroke="#191970" points="416.2861,-221.4128 405.7164,-220.6833 413.5242,-227.8449 416.2861,-221.4128"/>
</g>
<!-- Node10 -->
<g id="node10" class="node">
<title>Node10</title>
<g id="a_node10"><a xlink:href="../../d6/dcf/pythia6425mod_8f.html#ac81fa418f8cd77b0873b2de2a4140933" target="_top" xlink:title="pyevnt">
<polygon fill="none" stroke="#000000" points="629.5,-161.5 629.5,-181.5 681.5,-181.5 681.5,-161.5 629.5,-161.5"/>
<text text-anchor="middle" x="655.5" y="-168.5" font-family="FreeSans" font-size="10.00" fill="#000000">pyevnt</text>
</a>
</g>
</g>
<!-- Node9&#45;&gt;Node10 -->
<g id="edge9" class="edge">
<title>Node9&#45;&gt;Node10</title>
<path fill="none" stroke="#191970" d="M419.2529,-206.9272C460.6157,-202.74 529.2963,-195.1326 588,-185.5 601.6999,-183.252 616.8435,-180.1668 629.3095,-177.4646"/>
<polygon fill="#191970" stroke="#191970" points="418.6992,-203.465 409.0968,-207.942 419.3952,-210.4303 418.6992,-203.465"/>
</g>
<!-- Node9&#45;&gt;Node22 -->
<g id="edge26" class="edge">
<title>Node9&#45;&gt;Node22</title>
<path fill="none" stroke="#191970" d="M404.302,-194.3082C405.9092,-193.0416 407.4902,-191.7636 409,-190.5 427.9083,-174.6758 448.4853,-154.6424 460.3977,-142.7392"/>
<polygon fill="#191970" stroke="#191970" points="402.0967,-191.5882 396.2564,-200.428 406.3346,-197.1596 402.0967,-191.5882"/>
</g>
<!-- Node10&#45;&gt;Node8 -->
<g id="edge24" class="edge">
<title>Node10&#45;&gt;Node8</title>
<path fill="none" stroke="#191970" d="M681.6528,-186.6686C699.3947,-196.9589 722.3677,-210.2832 737.9454,-219.3183"/>
<polygon fill="#191970" stroke="#191970" points="683.325,-183.5924 672.9187,-181.6028 679.813,-189.6477 683.325,-183.5924"/>
</g>
<!-- Node11 -->
<g id="node11" class="node">
<title>Node11</title>
<g id="a_node11"><a xlink:href="../../d3/dd5/jewel-2_82_80_8f.html#aeb24fa7919aa21c652e9c8f2ec45cb91" target="_top" xlink:title="genevent">
<polygon fill="none" stroke="#000000" points="723,-161.5 723,-181.5 788,-181.5 788,-161.5 723,-161.5"/>
<text text-anchor="middle" x="755.5" y="-168.5" font-family="FreeSans" font-size="10.00" fill="#000000">genevent</text>
</a>
</g>
</g>
<!-- Node10&#45;&gt;Node11 -->
<g id="edge10" class="edge">
<title>Node10&#45;&gt;Node11</title>
<path fill="none" stroke="#191970" d="M691.7245,-171.5C701.8845,-171.5 712.8676,-171.5 722.8092,-171.5"/>
<polygon fill="#191970" stroke="#191970" points="691.5128,-168.0001 681.5128,-171.5 691.5127,-175.0001 691.5128,-168.0001"/>
</g>
<!-- Node11&#45;&gt;Node7 -->
<g id="edge19" class="edge">
<title>Node11&#45;&gt;Node7</title>
<path fill="none" stroke="#191970" d="M771.4863,-189.4285C776.8732,-195.6678 782.8271,-202.787 788,-209.5 805.1573,-231.7654 800.7592,-245.689 824,-261.5 849.8673,-279.0978 886.505,-284.4084 909.4975,-285.9527"/>
<polygon fill="#191970" stroke="#191970" points="773.8398,-186.8034 764.6184,-181.5864 768.5737,-191.4152 773.8398,-186.8034"/>
</g>
<!-- Node12 -->
<g id="node12" class="node">
<title>Node12</title>
<g id="a_node12"><a xlink:href="../../dd/d2a/classPHHepMCGenHelper.html#ab0c755f6e53c0bf57ccd314a0017d227" target="_top" xlink:title="send HepMC::GenEvent to DST tree. This function takes ownership of evt">
<polygon fill="none" stroke="#000000" points="853,-108.5 853,-140.5 1009,-140.5 1009,-108.5 853,-108.5"/>
<text text-anchor="start" x="861" y="-127.5" font-family="FreeSans" font-size="10.00" fill="#000000">PHHepMCGenHelper::insert</text>
<text text-anchor="middle" x="931" y="-115.5" font-family="FreeSans" font-size="10.00" fill="#000000">_event</text>
</a>
</g>
</g>
<!-- Node11&#45;&gt;Node12 -->
<g id="edge11" class="edge">
<title>Node11&#45;&gt;Node12</title>
<path fill="none" stroke="#191970" d="M794.6687,-158.3164C804.22,-155.2691 814.4404,-152.1472 824,-149.5 835.2147,-146.3945 847.1602,-143.3495 858.8514,-140.5125"/>
<polygon fill="#191970" stroke="#191970" points="793.4491,-155.0323 785.0131,-161.4421 795.605,-161.6921 793.4491,-155.0323"/>
</g>
<!-- Node17 -->
<g id="node17" class="node">
<title>Node17</title>
<g id="a_node17"><a xlink:href="../../d9/d3a/classPHPythia8.html#a5cc4124cc6be2fb2467714e3d3bc5a6a" target="_top" xlink:title="PHPythia8::process\l_event">
<polygon fill="none" stroke="#000000" points="1109,-.5 1109,-32.5 1222,-32.5 1222,-.5 1109,-.5"/>
<text text-anchor="start" x="1117" y="-19.5" font-family="FreeSans" font-size="10.00" fill="#000000">PHPythia8::process</text>
<text text-anchor="middle" x="1165.5" y="-7.5" font-family="FreeSans" font-size="10.00" fill="#000000">_event</text>
</a>
</g>
</g>
<!-- Node11&#45;&gt;Node17 -->
<g id="edge22" class="edge">
<title>Node11&#45;&gt;Node17</title>
<path fill="none" stroke="#191970" d="M767.9382,-153.0516C780.2254,-136.2791 800.5445,-112.1305 824,-98.5 914.8071,-45.73 1038.0219,-26.849 1108.9221,-20.1429"/>
<polygon fill="#191970" stroke="#191970" points="764.8827,-151.3106 761.9694,-161.4971 770.5992,-155.3507 764.8827,-151.3106"/>
</g>
<!-- Node18 -->
<g id="node18" class="node">
<title>Node18</title>
<g id="a_node18"><a xlink:href="../../da/df0/classPHSartre.html#aafe9fd92317ab1f7eee67a9354696c4e" target="_top" xlink:title="PHSartre::process_event">
<polygon fill="none" stroke="#000000" points="1095.5,-243.5 1095.5,-263.5 1235.5,-263.5 1235.5,-243.5 1095.5,-243.5"/>
<text text-anchor="middle" x="1165.5" y="-250.5" font-family="FreeSans" font-size="10.00" fill="#000000">PHSartre::process_event</text>
</a>
</g>
</g>
<!-- Node11&#45;&gt;Node18 -->
<g id="edge21" class="edge">
<title>Node11&#45;&gt;Node18</title>
<path fill="none" stroke="#191970" d="M771.106,-189.0849C783.8929,-202.1835 803.2144,-219.1821 824,-227.5 912.6018,-262.9565 1024.3387,-264.1737 1095.3748,-260.1476"/>
<polygon fill="#191970" stroke="#191970" points="773.4282,-186.4446 764.0341,-181.5456 768.3227,-191.2336 773.4282,-186.4446"/>
</g>
<!-- Node20 -->
<g id="node20" class="node">
<title>Node20</title>
<g id="a_node20"><a xlink:href="../../d7/df5/pepsiMaineRHIC__noradcorr_8f.html#ac2ed0c0080f3e6d946824efb82e28ab5" target="_top" xlink:title="pepsimainerhic">
<polygon fill="none" stroke="#000000" points="884,-198.5 884,-218.5 978,-218.5 978,-198.5 884,-198.5"/>
<text text-anchor="middle" x="931" y="-205.5" font-family="FreeSans" font-size="10.00" fill="#000000">pepsimainerhic</text>
</a>
</g>
</g>
<!-- Node11&#45;&gt;Node20 -->
<g id="edge20" class="edge">
<title>Node11&#45;&gt;Node20</title>
<path fill="none" stroke="#191970" d="M798.0024,-182.4578C806.5875,-184.5555 815.5661,-186.6669 824,-188.5 843.4826,-192.7346 865.0796,-196.8756 883.7393,-200.281"/>
<polygon fill="#191970" stroke="#191970" points="798.7096,-179.0273 788.1613,-180.0191 797.0258,-185.8217 798.7096,-179.0273"/>
</g>
<!-- Node21 -->
<g id="node21" class="node">
<title>Node21</title>
<g id="a_node21"><a xlink:href="../../de/d99/classFun4AllHepMCPileupInputManager.html#a81bf2b69c3c4d3aae0aadebafe1c2c2e" target="_top" xlink:title="Fun4AllHepMCPileupInputManager::run">
<polygon fill="none" stroke="#000000" points="824,-159.5 824,-179.5 1038,-179.5 1038,-159.5 824,-159.5"/>
<text text-anchor="middle" x="931" y="-166.5" font-family="FreeSans" font-size="10.00" fill="#000000">Fun4AllHepMCPileupInputManager::run</text>
</a>
</g>
</g>
<!-- Node11&#45;&gt;Node21 -->
<g id="edge23" class="edge">
<title>Node11&#45;&gt;Node21</title>
<path fill="none" stroke="#191970" d="M798.164,-171.0138C806.1453,-170.9228 814.8098,-170.8241 823.7592,-170.7221"/>
<polygon fill="#191970" stroke="#191970" points="798.0583,-167.5147 788.0989,-171.1285 798.1382,-174.5142 798.0583,-167.5147"/>
</g>
<!-- Node13 -->
<g id="node13" class="node">
<title>Node13</title>
<g id="a_node13"><a xlink:href="../../d6/d6f/classFun4AllHepMCInputManager.html#ab6c80a8ee0701bfff5eee3ec3623015c" target="_top" xlink:title="Fun4AllHepMCInputManager::run">
<polygon fill="none" stroke="#000000" points="1074,-153.5 1074,-173.5 1257,-173.5 1257,-153.5 1074,-153.5"/>
<text text-anchor="middle" x="1165.5" y="-160.5" font-family="FreeSans" font-size="10.00" fill="#000000">Fun4AllHepMCInputManager::run</text>
</a>
</g>
</g>
<!-- Node12&#45;&gt;Node13 -->
<g id="edge12" class="edge">
<title>Node12&#45;&gt;Node13</title>
<path fill="none" stroke="#191970" d="M1019.12,-139.1554C1047.8182,-143.9282 1079.0021,-149.1144 1105.1842,-153.4688"/>
<polygon fill="#191970" stroke="#191970" points="1019.5238,-135.6745 1009.0851,-137.4864 1018.3754,-142.5797 1019.5238,-135.6745"/>
</g>
<!-- Node14 -->
<g id="node14" class="node">
<title>Node14</title>
<g id="a_node14"><a xlink:href="../../db/d1f/classFun4AllOscarInputManager.html#a1537e89c4e652f70747fbbef18ceadc4" target="_top" xlink:title="Fun4AllOscarInputManager\l::ConvertFromOscar">
<polygon fill="none" stroke="#000000" points="1088.5,-102.5 1088.5,-134.5 1242.5,-134.5 1242.5,-102.5 1088.5,-102.5"/>
<text text-anchor="start" x="1096.5" y="-121.5" font-family="FreeSans" font-size="10.00" fill="#000000">Fun4AllOscarInputManager</text>
<text text-anchor="middle" x="1165.5" y="-109.5" font-family="FreeSans" font-size="10.00" fill="#000000">::ConvertFromOscar</text>
</a>
</g>
</g>
<!-- Node12&#45;&gt;Node14 -->
<g id="edge13" class="edge">
<title>Node12&#45;&gt;Node14</title>
<path fill="none" stroke="#191970" d="M1019.3585,-122.2392C1041.9812,-121.6604 1066.1342,-121.0424 1088.155,-120.479"/>
<polygon fill="#191970" stroke="#191970" points="1018.9923,-118.7474 1009.0851,-122.5021 1019.1714,-125.7451 1018.9923,-118.7474"/>
</g>
<!-- Node16 -->
<g id="node16" class="node">
<title>Node16</title>
<g id="a_node16"><a xlink:href="../../dd/da8/classPHPythia6.html#a7a70bdd1c198a83ed143d3e2c4516d0d" target="_top" xlink:title="PHPythia6::process\l_event">
<polygon fill="none" stroke="#000000" points="1109,-51.5 1109,-83.5 1222,-83.5 1222,-51.5 1109,-51.5"/>
<text text-anchor="start" x="1117" y="-70.5" font-family="FreeSans" font-size="10.00" fill="#000000">PHPythia6::process</text>
<text text-anchor="middle" x="1165.5" y="-58.5" font-family="FreeSans" font-size="10.00" fill="#000000">_event</text>
</a>
</g>
</g>
<!-- Node12&#45;&gt;Node16 -->
<g id="edge15" class="edge">
<title>Node12&#45;&gt;Node16</title>
<path fill="none" stroke="#191970" d="M1007.0404,-106.0168C1040.1326,-97.9731 1078.2429,-88.7096 1108.7948,-81.2833"/>
<polygon fill="#191970" stroke="#191970" points="1005.8357,-102.7077 996.9454,-108.4706 1007.4891,-109.5096 1005.8357,-102.7077"/>
</g>
<!-- Node12&#45;&gt;Node17 -->
<g id="edge16" class="edge">
<title>Node12&#45;&gt;Node17</title>
<path fill="none" stroke="#191970" d="M970.8162,-103.5762C991.1507,-92.6316 1016.1469,-78.7771 1038,-65.5 1054.4342,-55.5152 1056.4998,-49.4701 1074,-41.5 1084.9402,-36.5175 1097.0814,-32.3437 1108.8489,-28.9226"/>
<polygon fill="#191970" stroke="#191970" points="968.9935,-100.5819 961.8294,-108.3874 972.2974,-106.7531 968.9935,-100.5819"/>
</g>
<!-- Node12&#45;&gt;Node18 -->
<g id="edge17" class="edge">
<title>Node12&#45;&gt;Node18</title>
<path fill="none" stroke="#191970" d="M1018.7377,-137.503C1025.6754,-140.7101 1032.221,-144.655 1038,-149.5 1069.1256,-175.5955 1042.6882,-207.6283 1074,-233.5 1080.2676,-238.6786 1087.5773,-242.5973 1095.283,-245.5506"/>
<polygon fill="#191970" stroke="#191970" points="1019.6511,-134.0962 1009.0693,-133.5717 1017.0144,-140.5807 1019.6511,-134.0962"/>
</g>
<!-- Node19 -->
<g id="node19" class="node">
<title>Node19</title>
<g id="a_node19"><a xlink:href="../../d3/d49/classReadEICFiles.html#a49106bf9561329777334154092890af2" target="_top" xlink:title="ReadEICFiles::process\l_event">
<polygon fill="none" stroke="#000000" points="1102.5,-192.5 1102.5,-224.5 1228.5,-224.5 1228.5,-192.5 1102.5,-192.5"/>
<text text-anchor="start" x="1110.5" y="-211.5" font-family="FreeSans" font-size="10.00" fill="#000000">ReadEICFiles::process</text>
<text text-anchor="middle" x="1165.5" y="-199.5" font-family="FreeSans" font-size="10.00" fill="#000000">_event</text>
</a>
</g>
</g>
<!-- Node12&#45;&gt;Node19 -->
<g id="edge18" class="edge">
<title>Node12&#45;&gt;Node19</title>
<path fill="none" stroke="#191970" d="M1019.008,-141.1319C1025.5863,-143.5557 1031.9927,-146.3286 1038,-149.5 1057.1945,-159.6333 1055.0507,-171.9154 1074,-182.5 1082.7947,-187.4125 1092.5934,-191.4601 1102.4182,-194.7761"/>
<polygon fill="#191970" stroke="#191970" points="1019.8681,-137.7277 1009.2737,-137.8247 1017.6163,-144.3556 1019.8681,-137.7277"/>
</g>
<!-- Node15 -->
<g id="node15" class="node">
<title>Node15</title>
<g id="a_node15"><a xlink:href="../../db/d1f/classFun4AllOscarInputManager.html#a4be602bd8c9fe73f9dcc81c8871784a6" target="_top" xlink:title="Fun4AllOscarInputManager::run">
<polygon fill="none" stroke="#000000" points="1293,-108.5 1293,-128.5 1469,-128.5 1469,-108.5 1293,-108.5"/>
<text text-anchor="middle" x="1381" y="-115.5" font-family="FreeSans" font-size="10.00" fill="#000000">Fun4AllOscarInputManager::run</text>
</a>
</g>
</g>
<!-- Node14&#45;&gt;Node15 -->
<g id="edge14" class="edge">
<title>Node14&#45;&gt;Node15</title>
<path fill="none" stroke="#191970" d="M1252.7391,-118.5C1266.0061,-118.5 1279.7039,-118.5 1292.9873,-118.5"/>
<polygon fill="#191970" stroke="#191970" points="1252.6918,-115.0001 1242.6918,-118.5 1252.6917,-122.0001 1252.6918,-115.0001"/>
</g>
<!-- Node22&#45;&gt;Node10 -->
<g id="edge27" class="edge">
<title>Node22&#45;&gt;Node10</title>
<path fill="none" stroke="#191970" d="M506.3236,-140.052C542.4129,-147.66 597.2315,-159.2164 629.3986,-165.9975"/>
<polygon fill="#191970" stroke="#191970" points="506.7304,-136.5609 496.2235,-137.9228 505.2864,-143.4104 506.7304,-136.5609"/>
</g>
<!-- Node23 -->
<g id="node23" class="node">
<title>Node23</title>
<g id="a_node23"><a xlink:href="../../d6/dcf/pythia6425mod_8f.html#a83ae6561ab82fd7af8b1b3e511f477ac" target="_top" xlink:title="pyevnw">
<polygon fill="none" stroke="#000000" points="532,-45.5 532,-65.5 588,-65.5 588,-45.5 532,-45.5"/>
<text text-anchor="middle" x="560" y="-52.5" font-family="FreeSans" font-size="10.00" fill="#000000">pyevnw</text>
</a>
</g>
</g>
<!-- Node22&#45;&gt;Node23 -->
<g id="edge28" class="edge">
<title>Node22&#45;&gt;Node23</title>
<path fill="none" stroke="#191970" d="M487.6337,-114.9215C499.611,-102.9954 516.2242,-87.1573 532,-74.5 535.849,-71.4119 540.1867,-68.3047 544.278,-65.5234"/>
<polygon fill="#191970" stroke="#191970" points="485.0483,-112.5579 480.4878,-122.121 490.0165,-117.4892 485.0483,-112.5579"/>
</g>
<!-- Node24 -->
<g id="node24" class="node">
<title>Node24</title>
<g id="a_node24"><a xlink:href="../../d6/dcf/pythia6425mod_8f.html#ae7cb37215e5a38b3fb0529c9996646e6" target="_top" xlink:title="pyupev">
<polygon fill="none" stroke="#000000" points="533,-84.5 533,-104.5 587,-104.5 587,-84.5 533,-84.5"/>
<text text-anchor="middle" x="560" y="-91.5" font-family="FreeSans" font-size="10.00" fill="#000000">pyupev</text>
</a>
</g>
</g>
<!-- Node22&#45;&gt;Node24 -->
<g id="edge30" class="edge">
<title>Node22&#45;&gt;Node24</title>
<path fill="none" stroke="#191970" d="M503.9999,-118.2766C514.7276,-113.7218 526.3778,-108.7753 536.2598,-104.5796"/>
<polygon fill="#191970" stroke="#191970" points="502.3212,-115.1869 494.4844,-122.3167 505.0569,-121.6301 502.3212,-115.1869"/>
</g>
<!-- Node23&#45;&gt;Node10 -->
<g id="edge29" class="edge">
<title>Node23&#45;&gt;Node10</title>
<path fill="none" stroke="#191970" d="M585.1196,-71.8334C586.1182,-72.7039 587.0834,-73.5941 588,-74.5 615.8713,-102.0456 639.7277,-142.4836 650.0454,-161.2427"/>
<polygon fill="#191970" stroke="#191970" points="587.1137,-68.9513 577.059,-65.6116 582.8365,-74.4925 587.1137,-68.9513"/>
</g>
<!-- Node25&#45;&gt;Node5 -->
<g id="edge33" class="edge">
<title>Node25&#45;&gt;Node5</title>
<path fill="none" stroke="#191970" d="M405.3903,-187.6425C406.6241,-188.5923 407.8345,-189.5485 409,-190.5 428.0995,-206.0929 448.6167,-226.1986 460.4655,-238.1788"/>
<polygon fill="#191970" stroke="#191970" points="407.268,-184.679 397.1359,-181.582 403.1252,-190.3215 407.268,-184.679"/>
</g>
<!-- Node25&#45;&gt;Node10 -->
<g id="edge32" class="edge">
<title>Node25&#45;&gt;Node10</title>
<path fill="none" stroke="#191970" d="M418.3992,-171.5C474.3898,-171.5 580.3045,-171.5 629.3551,-171.5"/>
<polygon fill="#191970" stroke="#191970" points="418.2244,-168.0001 408.2243,-171.5 418.2243,-175.0001 418.2244,-168.0001"/>
</g>
<!-- Node25&#45;&gt;Node22 -->
<g id="edge34" class="edge">
<title>Node25&#45;&gt;Node22</title>
<path fill="none" stroke="#191970" d="M414.2121,-157.3048C425.3444,-152.3991 437.5767,-147.0086 447.7863,-142.5094"/>
<polygon fill="#191970" stroke="#191970" points="412.5304,-154.2211 404.7909,-161.4565 415.3532,-160.6267 412.5304,-154.2211"/>
</g>
<!-- Node27 -->
<g id="node27" class="node">
<title>Node27</title>
<g id="a_node27"><a xlink:href="../../d6/dcf/pythia6425mod_8f.html#a15448b25c4eb515f33e35f86f376af68" target="_top" xlink:title="pyevol">
<polygon fill="none" stroke="#000000" points="445.5,-45.5 445.5,-65.5 495.5,-65.5 495.5,-45.5 445.5,-45.5"/>
<text text-anchor="middle" x="470.5" y="-52.5" font-family="FreeSans" font-size="10.00" fill="#000000">pyevol</text>
</a>
</g>
</g>
<!-- Node26&#45;&gt;Node27 -->
<g id="edge36" class="edge">
<title>Node26&#45;&gt;Node27</title>
<path fill="none" stroke="#191970" d="M328.2285,-88.9749C351.4108,-85.7197 382.1841,-80.7973 409,-74.5 421.0758,-71.6642 434.2418,-67.7155 445.2823,-64.1521"/>
<polygon fill="#191970" stroke="#191970" points="327.5866,-85.53 318.1528,-90.3522 328.5347,-92.4655 327.5866,-85.53"/>
</g>
<!-- Node28 -->
<g id="node28" class="node">
<title>Node28</title>
<g id="a_node28"><a xlink:href="../../d6/dcf/pythia6425mod_8f.html#ac00de061be805868aa61d626239f5fa9" target="_top" xlink:title="pyptis">
<polygon fill="none" stroke="#000000" points="358.5,-45.5 358.5,-65.5 405.5,-65.5 405.5,-45.5 358.5,-45.5"/>
<text text-anchor="middle" x="382" y="-52.5" font-family="FreeSans" font-size="10.00" fill="#000000">pyptis</text>
</a>
</g>
</g>
<!-- Node26&#45;&gt;Node28 -->
<g id="edge38" class="edge">
<title>Node26&#45;&gt;Node28</title>
<path fill="none" stroke="#191970" d="M325.9999,-79.2766C336.7276,-74.7218 348.3778,-69.7753 358.2598,-65.5796"/>
<polygon fill="#191970" stroke="#191970" points="324.3212,-76.1869 316.4844,-83.3167 327.0569,-82.6301 324.3212,-76.1869"/>
</g>
<!-- Node27&#45;&gt;Node23 -->
<g id="edge37" class="edge">
<title>Node27&#45;&gt;Node23</title>
<path fill="none" stroke="#191970" d="M505.9979,-55.5C514.5336,-55.5 523.5389,-55.5 531.697,-55.5"/>
<polygon fill="#191970" stroke="#191970" points="505.9077,-52.0001 495.9077,-55.5 505.9077,-59.0001 505.9077,-52.0001"/>
</g>
<!-- Node28&#45;&gt;Node27 -->
<g id="edge39" class="edge">
<title>Node28&#45;&gt;Node27</title>
<path fill="none" stroke="#191970" d="M415.9848,-55.5C425.7962,-55.5 436.3202,-55.5 445.4796,-55.5"/>
<polygon fill="#191970" stroke="#191970" points="415.7164,-52.0001 405.7164,-55.5 415.7163,-59.0001 415.7164,-52.0001"/>
</g>
<!-- Node29&#45;&gt;Node3 -->
<g id="edge42" class="edge">
<title>Node29&#45;&gt;Node3</title>
<path fill="none" stroke="#191970" d="M154.3995,-160.3401C163.3157,-162.2873 172.6716,-164.3306 180.9054,-166.1288"/>
<polygon fill="#191970" stroke="#191970" points="155.1194,-156.9149 144.6029,-158.2006 153.6258,-163.7537 155.1194,-156.9149"/>
</g>
</g>
</svg>
