<?xml version="1.0" encoding="UTF-8" standalone="no"?>
<!DOCTYPE svg PUBLIC "-//W3C//DTD SVG 1.1//EN"
 "http://www.w3.org/Graphics/SVG/1.1/DTD/svg11.dtd">
<!-- Generated by graphviz version 2.40.1 (20161225.0304)
 -->
<!-- Title: pynjdc Pages: 1 -->
<svg width="1626pt" height="685pt"
 viewBox="0.00 0.00 1626.00 685.18" xmlns="http://www.w3.org/2000/svg" xmlns:xlink="http://www.w3.org/1999/xlink">
<g id="graph0" class="graph" transform="scale(1 1) rotate(0) translate(4 681.1785)">
<title>pynjdc</title>
<!-- Node1 -->
<g id="node1" class="node">
<title>Node1</title>
<polygon fill="#bfbfbf" stroke="#000000" points="0,-233.5 0,-253.5 50,-253.5 50,-233.5 0,-233.5"/>
<text text-anchor="middle" x="25" y="-240.5" font-family="FreeSans" font-size="10.00" fill="#000000">pynjdc</text>
</g>
<!-- Node2 -->
<g id="node2" class="node">
<title>Node2</title>
<g id="a_node2"><a xlink:href="../../de/dd7/exceptiondfe_1_1Variable.html#ad546b80a148ce91384638a73e6293e3f" target="_top" xlink:title="dfe::Variable::as">
<polygon fill="none" stroke="#000000" points="356,-310.5 356,-330.5 455,-330.5 455,-310.5 356,-310.5"/>
<text text-anchor="middle" x="405.5" y="-317.5" font-family="FreeSans" font-size="10.00" fill="#000000">dfe::Variable::as</text>
</a>
</g>
</g>
<!-- Node1&#45;&gt;Node2 -->
<g id="edge1" class="edge">
<title>Node1&#45;&gt;Node2</title>
<path fill="none" stroke="#191970" d="M33.2482,-253.6682C43.9475,-266.0254 63.8801,-286.3557 86,-295.5 171.0459,-330.6579 279.569,-330.8209 345.7302,-326.5329"/>
<polygon fill="#191970" stroke="#191970" points="346.2456,-330.0054 355.9749,-325.8112 345.7536,-323.0227 346.2456,-330.0054"/>
</g>
<!-- Node3 -->
<g id="node3" class="node">
<title>Node3</title>
<g id="a_node3"><a xlink:href="../../df/de8/cemc_8C.html#a72d4716092b469b4bc1d816359a90e14" target="_top" xlink:title="cos">
<polygon fill="none" stroke="#000000" points="96,-117.5 96,-137.5 129,-137.5 129,-117.5 96,-117.5"/>
<text text-anchor="middle" x="112.5" y="-124.5" font-family="FreeSans" font-size="10.00" fill="#000000">cos</text>
</a>
</g>
</g>
<!-- Node1&#45;&gt;Node3 -->
<g id="edge2" class="edge">
<title>Node1&#45;&gt;Node3</title>
<path fill="none" stroke="#191970" d="M29.7643,-233.2668C38.8203,-214.5468 59.9595,-174.1699 86,-146.5 86.7565,-145.6961 87.5516,-144.9045 88.3749,-144.1278"/>
<polygon fill="#191970" stroke="#191970" points="90.7802,-146.681 96.2703,-137.6195 86.3277,-141.2795 90.7802,-146.681"/>
</g>
<!-- Node4 -->
<g id="node4" class="node">
<title>Node4</title>
<g id="a_node4"><a xlink:href="../../d3/dd5/jewel-2_82_80_8f.html#a128c80a01e220038eb138a985885083a" target="_top" xlink:title="ei">
<polygon fill="none" stroke="#000000" points="592.5,-618.5 592.5,-638.5 621.5,-638.5 621.5,-618.5 592.5,-618.5"/>
<text text-anchor="middle" x="607" y="-625.5" font-family="FreeSans" font-size="10.00" fill="#000000">ei</text>
</a>
</g>
</g>
<!-- Node1&#45;&gt;Node4 -->
<g id="edge3" class="edge">
<title>Node1&#45;&gt;Node4</title>
<path fill="none" stroke="#191970" d="M25.2158,-253.6945C26.5589,-307.0857 35.4622,-554.029 86,-606.5 122.5223,-644.4193 149.3526,-630.5 202,-630.5 202,-630.5 202,-630.5 405.5,-630.5 469.1825,-630.5 544.1804,-629.4888 582.2037,-628.9044"/>
<polygon fill="#191970" stroke="#191970" points="582.3927,-632.402 592.3365,-628.7452 582.2827,-625.4029 582.3927,-632.402"/>
</g>
<!-- Node6 -->
<g id="node6" class="node">
<title>Node6</title>
<g id="a_node6"><a xlink:href="../../d6/dcf/pythia6425mod_8f.html#ad950c8536b8d340b350441139b4b309e" target="_top" xlink:title="pyalem">
<polygon fill="none" stroke="#000000" points="491,-272.5 491,-292.5 545,-292.5 545,-272.5 491,-272.5"/>
<text text-anchor="middle" x="518" y="-279.5" font-family="FreeSans" font-size="10.00" fill="#000000">pyalem</text>
</a>
</g>
</g>
<!-- Node1&#45;&gt;Node6 -->
<g id="edge5" class="edge">
<title>Node1&#45;&gt;Node6</title>
<path fill="none" stroke="#191970" d="M50.1363,-252.4093C84.125,-263.641 146.8415,-281.5 202,-281.5 202,-281.5 202,-281.5 292.5,-281.5 358.8266,-281.5 436.1258,-281.938 480.8258,-282.2342"/>
<polygon fill="#191970" stroke="#191970" points="480.902,-285.7347 490.9254,-282.3024 480.9493,-278.7349 480.902,-285.7347"/>
</g>
<!-- Node9 -->
<g id="node9" class="node">
<title>Node9</title>
<g id="a_node9"><a xlink:href="../../d6/dcf/pythia6425mod_8f.html#a29c95baea28af87f8639a7f77a68edc5" target="_top" xlink:title="pyalps">
<polygon fill="none" stroke="#000000" points="380.5,-194.5 380.5,-214.5 430.5,-214.5 430.5,-194.5 380.5,-194.5"/>
<text text-anchor="middle" x="405.5" y="-201.5" font-family="FreeSans" font-size="10.00" fill="#000000">pyalps</text>
</a>
</g>
</g>
<!-- Node1&#45;&gt;Node9 -->
<g id="edge8" class="edge">
<title>Node1&#45;&gt;Node9</title>
<path fill="none" stroke="#191970" d="M50.0661,-236.8695C61.0263,-234.1987 74.0779,-231.3243 86,-229.5 188.2567,-213.8524 310.5102,-207.7468 369.7752,-205.5767"/>
<polygon fill="#191970" stroke="#191970" points="370.2178,-209.0635 380.0893,-205.2159 369.973,-202.0678 370.2178,-209.0635"/>
</g>
<!-- Node10 -->
<g id="node10" class="node">
<title>Node10</title>
<g id="a_node10"><a xlink:href="../../d6/dcf/pythia6425mod_8f.html#a54737ed1fa8203d34f6b7e41f8edaf45" target="_top" xlink:title="pygaus">
<polygon fill="none" stroke="#000000" points="379,-543.5 379,-563.5 432,-563.5 432,-543.5 379,-543.5"/>
<text text-anchor="middle" x="405.5" y="-550.5" font-family="FreeSans" font-size="10.00" fill="#000000">pygaus</text>
</a>
</g>
</g>
<!-- Node1&#45;&gt;Node10 -->
<g id="edge10" class="edge">
<title>Node1&#45;&gt;Node10</title>
<path fill="none" stroke="#191970" d="M27.834,-253.5017C34.8616,-277.1275 54.8092,-337.5533 86,-379.5 148.7946,-463.9488 169.0837,-491.2007 265,-534.5 297.968,-549.3827 339.3835,-553.4398 368.6847,-554.1958"/>
<polygon fill="#191970" stroke="#191970" points="368.8456,-557.6983 378.8937,-554.3389 368.9437,-550.699 368.8456,-557.6983"/>
</g>
<!-- Node25 -->
<g id="node25" class="node">
<title>Node25</title>
<g id="a_node25"><a xlink:href="../../da/d0a/CylinderKalman_8cpp.html#ab74daa0c9784c63e060bfb98cc06fbf5" target="_top" xlink:title="sign">
<polygon fill="none" stroke="#000000" points="1055,-490.5 1055,-510.5 1092,-510.5 1092,-490.5 1055,-490.5"/>
<text text-anchor="middle" x="1073.5" y="-497.5" font-family="FreeSans" font-size="10.00" fill="#000000">sign</text>
</a>
</g>
</g>
<!-- Node1&#45;&gt;Node25 -->
<g id="edge67" class="edge">
<title>Node1&#45;&gt;Node25</title>
<path fill="none" stroke="#191970" d="M26.6582,-253.7406C31.7068,-282.742 48.8649,-367.1706 86,-426.5 202.7611,-613.045 297.9268,-668.5 518,-668.5 518,-668.5 518,-668.5 785.5,-668.5 864.3977,-668.5 899.1318,-697.17 962,-649.5 996.3286,-623.4702 972.1345,-593.9525 998,-559.5 1011.3147,-541.765 1031.2364,-526.5013 1047.2731,-515.9444"/>
<polygon fill="#191970" stroke="#191970" points="1049.1541,-518.8961 1055.7161,-510.578 1045.3991,-512.9884 1049.1541,-518.8961"/>
</g>
<!-- Node28 -->
<g id="node28" class="node">
<title>Node28</title>
<g id="a_node28"><a xlink:href="../../d6/dcf/pythia6425mod_8f.html#a9a5e0b1d8e92be18ecc53d89aba71c09" target="_top" xlink:title="pylamf">
<polygon fill="none" stroke="#000000" points="176,-39.5 176,-59.5 228,-59.5 228,-39.5 176,-39.5"/>
<text text-anchor="middle" x="202" y="-46.5" font-family="FreeSans" font-size="10.00" fill="#000000">pylamf</text>
</a>
</g>
</g>
<!-- Node1&#45;&gt;Node28 -->
<g id="edge33" class="edge">
<title>Node1&#45;&gt;Node28</title>
<path fill="none" stroke="#191970" d="M27.0862,-233.3016C32.5893,-208.7168 49.6434,-145.4172 86,-107.5 108.0113,-84.5439 141.0474,-69.2629 166.2413,-60.176"/>
<polygon fill="#191970" stroke="#191970" points="167.4986,-63.4449 175.8155,-56.8814 165.2209,-56.8258 167.4986,-63.4449"/>
</g>
<!-- Node29 -->
<g id="node29" class="node">
<title>Node29</title>
<g id="a_node29"><a xlink:href="../../d6/dcf/pythia6425mod_8f.html#af64d7b9f2943cb831c935b51901191a5" target="_top" xlink:title="pyrvne">
<polygon fill="none" stroke="#000000" points="87,-349.5 87,-369.5 138,-369.5 138,-349.5 87,-349.5"/>
<text text-anchor="middle" x="112.5" y="-356.5" font-family="FreeSans" font-size="10.00" fill="#000000">pyrvne</text>
</a>
</g>
</g>
<!-- Node1&#45;&gt;Node29 -->
<g id="edge34" class="edge">
<title>Node1&#45;&gt;Node29</title>
<path fill="none" stroke="#191970" d="M30.7349,-253.5745C40.8281,-270.9251 62.8957,-307.2097 86,-334.5 88.2069,-337.1067 90.6618,-339.7261 93.162,-342.2368"/>
<polygon fill="#191970" stroke="#191970" points="90.9419,-344.9558 100.5954,-349.3216 95.7714,-339.8887 90.9419,-344.9558"/>
</g>
<!-- Node42 -->
<g id="node42" class="node">
<title>Node42</title>
<g id="a_node42"><a xlink:href="../../d6/dcf/pythia6425mod_8f.html#a628cca4ef6ca74365a47cbb6aec90a5f" target="_top" xlink:title="pyx2xg">
<polygon fill="none" stroke="#000000" points="86,-39.5 86,-59.5 139,-59.5 139,-39.5 86,-39.5"/>
<text text-anchor="middle" x="112.5" y="-46.5" font-family="FreeSans" font-size="10.00" fill="#000000">pyx2xg</text>
</a>
</g>
</g>
<!-- Node1&#45;&gt;Node42 -->
<g id="edge58" class="edge">
<title>Node1&#45;&gt;Node42</title>
<path fill="none" stroke="#191970" d="M26.957,-233.23C32.5613,-205.6658 50.5898,-128.494 86,-74.5 87.6909,-71.9216 89.6989,-69.4187 91.8417,-67.0559"/>
<polygon fill="#191970" stroke="#191970" points="94.6958,-69.1589 99.3823,-59.657 89.7932,-64.1625 94.6958,-69.1589"/>
</g>
<!-- Node43 -->
<g id="node43" class="node">
<title>Node43</title>
<g id="a_node43"><a xlink:href="../../d6/dcf/pythia6425mod_8f.html#a172c02bb050da4b11542b15cb94e94f2" target="_top" xlink:title="pyx2xh">
<polygon fill="none" stroke="#000000" points="86,-.5 86,-20.5 139,-20.5 139,-.5 86,-.5"/>
<text text-anchor="middle" x="112.5" y="-7.5" font-family="FreeSans" font-size="10.00" fill="#000000">pyx2xh</text>
</a>
</g>
</g>
<!-- Node1&#45;&gt;Node43 -->
<g id="edge60" class="edge">
<title>Node1&#45;&gt;Node43</title>
<path fill="none" stroke="#191970" d="M25.5766,-233.1111C27.8622,-200.2538 38.643,-96.7946 86,-29.5 86.4398,-28.875 86.907,-28.2631 87.3973,-27.6646"/>
<polygon fill="#191970" stroke="#191970" points="89.9148,-30.1004 94.7449,-20.6707 85.0885,-25.0302 89.9148,-30.1004"/>
</g>
<!-- Node44 -->
<g id="node44" class="node">
<title>Node44</title>
<g id="a_node44"><a xlink:href="../../d6/dcf/pythia6425mod_8f.html#aa378166597fcb20d89584665eaf754c5" target="_top" xlink:title="pyxxga">
<polygon fill="none" stroke="#000000" points="86,-156.5 86,-176.5 139,-176.5 139,-156.5 86,-156.5"/>
<text text-anchor="middle" x="112.5" y="-163.5" font-family="FreeSans" font-size="10.00" fill="#000000">pyxxga</text>
</a>
</g>
</g>
<!-- Node1&#45;&gt;Node44 -->
<g id="edge62" class="edge">
<title>Node1&#45;&gt;Node44</title>
<path fill="none" stroke="#191970" d="M36.4391,-233.4336C50.8502,-220.7518 75.8293,-198.7703 93.2136,-183.472"/>
<polygon fill="#191970" stroke="#191970" points="95.8631,-185.8027 101.0581,-176.5689 91.2387,-180.5477 95.8631,-185.8027"/>
</g>
<!-- Node46 -->
<g id="node46" class="node">
<title>Node46</title>
<g id="a_node46"><a xlink:href="../../d6/dcf/pythia6425mod_8f.html#ad3802fc93d4a590b18e75cf9ffc0c04c" target="_top" xlink:title="pyxxz6">
<polygon fill="none" stroke="#000000" points="669,-233.5 669,-253.5 721,-253.5 721,-233.5 669,-233.5"/>
<text text-anchor="middle" x="695" y="-240.5" font-family="FreeSans" font-size="10.00" fill="#000000">pyxxz6</text>
</a>
</g>
</g>
<!-- Node1&#45;&gt;Node46 -->
<g id="edge65" class="edge">
<title>Node1&#45;&gt;Node46</title>
<path fill="none" stroke="#191970" d="M50.2075,-243.5C84.5378,-243.5 147.9167,-243.5 202,-243.5 202,-243.5 202,-243.5 518,-243.5 566.5953,-243.5 622.6954,-243.5 658.4844,-243.5"/>
<polygon fill="#191970" stroke="#191970" points="658.9084,-247.0001 668.9084,-243.5 658.9084,-240.0001 658.9084,-247.0001"/>
</g>
<!-- Node5 -->
<g id="node5" class="node">
<title>Node5</title>
<g id="a_node5"><a xlink:href="../../dc/db0/classActs_1_1IVisualization.html#a9e155efef029673b4b9830ef5dfc1af3" target="_top" xlink:title="Acts::IVisualization\l::line">
<polygon fill="none" stroke="#000000" points="850,-607.5 850,-639.5 962,-639.5 962,-607.5 850,-607.5"/>
<text text-anchor="start" x="858" y="-626.5" font-family="FreeSans" font-size="10.00" fill="#000000">Acts::IVisualization</text>
<text text-anchor="middle" x="906" y="-614.5" font-family="FreeSans" font-size="10.00" fill="#000000">::line</text>
</a>
</g>
</g>
<!-- Node4&#45;&gt;Node5 -->
<g id="edge4" class="edge">
<title>Node4&#45;&gt;Node5</title>
<path fill="none" stroke="#191970" d="M621.8275,-628.252C660.9122,-627.5985 768.6181,-625.7974 839.6329,-624.6098"/>
<polygon fill="#191970" stroke="#191970" points="839.8916,-628.1061 849.8317,-624.4393 839.7745,-621.1071 839.8916,-628.1061"/>
</g>
<!-- Node7 -->
<g id="node7" class="node">
<title>Node7</title>
<g id="a_node7"><a xlink:href="../../d4/d3e/classActs_1_1Logger.html#aee9e687247532b5175713e66b2d2121e" target="_top" xlink:title="create output stream object with internal cache">
<polygon fill="none" stroke="#000000" points="855,-253.5 855,-273.5 957,-273.5 957,-253.5 855,-253.5"/>
<text text-anchor="middle" x="906" y="-260.5" font-family="FreeSans" font-size="10.00" fill="#000000">Acts::Logger::log</text>
</a>
</g>
</g>
<!-- Node6&#45;&gt;Node7 -->
<g id="edge6" class="edge">
<title>Node6&#45;&gt;Node7</title>
<path fill="none" stroke="#191970" d="M545.2834,-281.164C607.1105,-278.1363 759.1529,-270.691 844.7984,-266.497"/>
<polygon fill="#191970" stroke="#191970" points="845.0865,-269.9872 854.9033,-266.0022 844.7441,-262.9955 845.0865,-269.9872"/>
</g>
<!-- Node8 -->
<g id="node8" class="node">
<title>Node8</title>
<g id="a_node8"><a xlink:href="../../df/dce/classActs_1_1Logging_1_1OutputPrintPolicy.html#ab113823970013e1e7f310b36509136ac" target="_top" xlink:title="handle output of debug message">
<polygon fill="none" stroke="#000000" points="998,-247.5 998,-279.5 1149,-279.5 1149,-247.5 998,-247.5"/>
<text text-anchor="start" x="1006" y="-266.5" font-family="FreeSans" font-size="10.00" fill="#000000">Acts::Logging::OutputPrint</text>
<text text-anchor="middle" x="1073.5" y="-254.5" font-family="FreeSans" font-size="10.00" fill="#000000">Policy::flush</text>
</a>
</g>
</g>
<!-- Node7&#45;&gt;Node8 -->
<g id="edge7" class="edge">
<title>Node7&#45;&gt;Node8</title>
<path fill="none" stroke="#191970" d="M957.1657,-263.5C966.9353,-263.5 977.4058,-263.5 987.9149,-263.5"/>
<polygon fill="#191970" stroke="#191970" points="987.9808,-267.0001 997.9808,-263.5 987.9807,-260.0001 987.9808,-267.0001"/>
</g>
<!-- Node9&#45;&gt;Node7 -->
<g id="edge9" class="edge">
<title>Node9&#45;&gt;Node7</title>
<path fill="none" stroke="#191970" d="M430.631,-204.5C468.759,-204.5 543.5065,-204.5 607,-204.5 607,-204.5 607,-204.5 695,-204.5 761.4141,-204.5 835.3875,-231.9459 875.7138,-249.3991"/>
<polygon fill="#191970" stroke="#191970" points="874.4178,-252.6528 884.9794,-253.4915 877.246,-246.2496 874.4178,-252.6528"/>
</g>
<!-- Node11 -->
<g id="node11" class="node">
<title>Node11</title>
<g id="a_node11"><a xlink:href="../../d6/dcf/pythia6425mod_8f.html#a8a7efe2037220dc632000fb06895ebca" target="_top" xlink:title="pyerrm">
<polygon fill="none" stroke="#000000" points="581,-556.5 581,-576.5 633,-576.5 633,-556.5 581,-556.5"/>
<text text-anchor="middle" x="607" y="-563.5" font-family="FreeSans" font-size="10.00" fill="#000000">pyerrm</text>
</a>
</g>
</g>
<!-- Node10&#45;&gt;Node11 -->
<g id="edge11" class="edge">
<title>Node10&#45;&gt;Node11</title>
<path fill="none" stroke="#191970" d="M432.1766,-561.4077C448.9029,-565.9478 471.01,-571.1931 491,-573.5 514.8418,-576.2514 521.0379,-574.8484 545,-573.5 553.3809,-573.0284 562.369,-572.2009 570.8287,-571.2762"/>
<polygon fill="#191970" stroke="#191970" points="571.2798,-574.7474 580.8093,-570.1174 570.4724,-567.7941 571.2798,-574.7474"/>
</g>
<!-- Node12 -->
<g id="node12" class="node">
<title>Node12</title>
<g id="a_node12"><a xlink:href="../../d6/dcf/pythia6425mod_8f.html#acc54128638bbd93cf630e1576f91d443" target="_top" xlink:title="pylist">
<polygon fill="none" stroke="#000000" points="673,-497.5 673,-517.5 717,-517.5 717,-497.5 673,-497.5"/>
<text text-anchor="middle" x="695" y="-504.5" font-family="FreeSans" font-size="10.00" fill="#000000">pylist</text>
</a>
</g>
</g>
<!-- Node11&#45;&gt;Node12 -->
<g id="edge12" class="edge">
<title>Node11&#45;&gt;Node12</title>
<path fill="none" stroke="#191970" d="M621.928,-556.4915C635.4552,-547.4221 655.6181,-533.9038 671.3393,-523.3634"/>
<polygon fill="#191970" stroke="#191970" points="673.6419,-526.0335 679.9988,-517.5576 669.7437,-520.2194 673.6419,-526.0335"/>
</g>
<!-- Node14 -->
<g id="node14" class="node">
<title>Node14</title>
<g id="a_node14"><a xlink:href="../../d6/dcf/pythia6425mod_8f.html#a4140396b9ec9bafcebf4c7ebecb462e7" target="_top" xlink:title="pystop">
<polygon fill="none" stroke="#000000" points="881,-568.5 881,-588.5 931,-588.5 931,-568.5 881,-568.5"/>
<text text-anchor="middle" x="906" y="-575.5" font-family="FreeSans" font-size="10.00" fill="#000000">pystop</text>
</a>
</g>
</g>
<!-- Node11&#45;&gt;Node14 -->
<g id="edge32" class="edge">
<title>Node11&#45;&gt;Node14</title>
<path fill="none" stroke="#191970" d="M633.0112,-567.5439C686.6242,-569.6956 809.4905,-574.6267 870.41,-577.0716"/>
<polygon fill="#191970" stroke="#191970" points="870.5524,-580.5801 880.6847,-577.484 870.8331,-573.5857 870.5524,-580.5801"/>
</g>
<!-- Node13 -->
<g id="node13" class="node">
<title>Node13</title>
<g id="a_node13"><a xlink:href="../../d6/dcf/pythia6425mod_8f.html#a56718d08dbb42b3b978fc9b5bd6970e6" target="_top" xlink:title="pylogo">
<polygon fill="none" stroke="#000000" points="760.5,-529.5 760.5,-549.5 810.5,-549.5 810.5,-529.5 760.5,-529.5"/>
<text text-anchor="middle" x="785.5" y="-536.5" font-family="FreeSans" font-size="10.00" fill="#000000">pylogo</text>
</a>
</g>
</g>
<!-- Node12&#45;&gt;Node13 -->
<g id="edge13" class="edge">
<title>Node12&#45;&gt;Node13</title>
<path fill="none" stroke="#191970" d="M717.3708,-515.4101C727.4108,-518.9602 739.4902,-523.2313 750.6717,-527.185"/>
<polygon fill="#191970" stroke="#191970" points="749.5982,-530.5177 760.1929,-530.5516 751.9318,-523.9181 749.5982,-530.5177"/>
</g>
<!-- Node21 -->
<g id="node21" class="node">
<title>Node21</title>
<g id="a_node21"><a xlink:href="../../d6/dcf/pythia6425mod_8f.html#ab0dbe916b7d36854c02faf180f41d585" target="_top" xlink:title="pyname">
<polygon fill="none" stroke="#000000" points="757,-426.5 757,-446.5 814,-446.5 814,-426.5 757,-426.5"/>
<text text-anchor="middle" x="785.5" y="-433.5" font-family="FreeSans" font-size="10.00" fill="#000000">pyname</text>
</a>
</g>
</g>
<!-- Node12&#45;&gt;Node21 -->
<g id="edge23" class="edge">
<title>Node12&#45;&gt;Node21</title>
<path fill="none" stroke="#191970" d="M706.6692,-497.4492C718.9731,-486.9596 739.027,-470.1668 757,-456.5 758.6239,-455.2652 760.315,-454.0083 762.0273,-452.7567"/>
<polygon fill="#191970" stroke="#191970" points="764.449,-455.3282 770.5532,-446.6686 760.3811,-449.6315 764.449,-455.3282"/>
</g>
<!-- Node22 -->
<g id="node22" class="node">
<title>Node22</title>
<g id="a_node22"><a xlink:href="../../d6/dcf/pythia6425mod_8f.html#a6cee1eea51c820d9e90932c9eca205b7" target="_top" xlink:title="pyp">
<polygon fill="none" stroke="#000000" points="768,-465.5 768,-485.5 803,-485.5 803,-465.5 768,-465.5"/>
<text text-anchor="middle" x="785.5" y="-472.5" font-family="FreeSans" font-size="10.00" fill="#000000">pyp</text>
</a>
</g>
</g>
<!-- Node12&#45;&gt;Node22 -->
<g id="edge24" class="edge">
<title>Node12&#45;&gt;Node22</title>
<path fill="none" stroke="#191970" d="M717.3708,-499.5899C729.8006,-495.1948 745.3561,-489.6945 758.4639,-485.0597"/>
<polygon fill="#191970" stroke="#191970" points="759.657,-488.3503 767.9182,-481.7168 757.3234,-481.7507 759.657,-488.3503"/>
</g>
<!-- Node13&#45;&gt;Node5 -->
<g id="edge14" class="edge">
<title>Node13&#45;&gt;Node5</title>
<path fill="none" stroke="#191970" d="M794.7255,-549.765C806.5587,-562.4733 828.1715,-584.1866 850,-598.5 852.1424,-599.9048 854.3769,-601.2665 856.6671,-602.5806"/>
<polygon fill="#191970" stroke="#191970" points="855.2306,-605.7812 865.7004,-607.4046 858.5281,-599.6065 855.2306,-605.7812"/>
</g>
<!-- Node13&#45;&gt;Node14 -->
<g id="edge15" class="edge">
<title>Node13&#45;&gt;Node14</title>
<path fill="none" stroke="#191970" d="M810.7607,-547.6757C828.2738,-553.3438 851.8226,-560.9654 871.122,-567.2117"/>
<polygon fill="#191970" stroke="#191970" points="870.1806,-570.5857 880.7725,-570.3351 872.3362,-563.9258 870.1806,-570.5857"/>
</g>
<!-- Node20 -->
<g id="node20" class="node">
<title>Node20</title>
<g id="a_node20"><a xlink:href="../../d6/dcf/pythia6425mod_8f.html#a523e4acf745637220400daf831c34a23" target="_top" xlink:title="pytime">
<polygon fill="none" stroke="#000000" points="880.5,-529.5 880.5,-549.5 931.5,-549.5 931.5,-529.5 880.5,-529.5"/>
<text text-anchor="middle" x="906" y="-536.5" font-family="FreeSans" font-size="10.00" fill="#000000">pytime</text>
</a>
</g>
</g>
<!-- Node13&#45;&gt;Node20 -->
<g id="edge22" class="edge">
<title>Node13&#45;&gt;Node20</title>
<path fill="none" stroke="#191970" d="M810.7607,-539.5C827.9967,-539.5 851.0789,-539.5 870.2027,-539.5"/>
<polygon fill="#191970" stroke="#191970" points="870.3575,-543.0001 880.3575,-539.5 870.3575,-536.0001 870.3575,-543.0001"/>
</g>
<!-- Node15 -->
<g id="node15" class="node">
<title>Node15</title>
<g id="a_node15"><a xlink:href="../../d0/d5e/classPHTimer.html#adce6f9a85834e59bd154b9c624ee4e41" target="_top" xlink:title="stops the counter">
<polygon fill="none" stroke="#000000" points="1030,-568.5 1030,-588.5 1117,-588.5 1117,-568.5 1030,-568.5"/>
<text text-anchor="middle" x="1073.5" y="-575.5" font-family="FreeSans" font-size="10.00" fill="#000000">PHTimer::stop</text>
</a>
</g>
</g>
<!-- Node14&#45;&gt;Node15 -->
<g id="edge16" class="edge">
<title>Node14&#45;&gt;Node15</title>
<path fill="none" stroke="#191970" d="M931.0764,-578.5C954.3433,-578.5 989.7515,-578.5 1019.4413,-578.5"/>
<polygon fill="#191970" stroke="#191970" points="1019.6751,-582.0001 1029.6751,-578.5 1019.6751,-575.0001 1019.6751,-582.0001"/>
</g>
<!-- Node16 -->
<g id="node16" class="node">
<title>Node16</title>
<g id="a_node16"><a xlink:href="../../d0/d5e/classPHTimer.html#aa92e3fe4a0a1799f39743eda9ef9d497" target="_top" xlink:title="gets time from cpu clock counts">
<polygon fill="none" stroke="#000000" points="1338.5,-581.5 1338.5,-613.5 1451.5,-613.5 1451.5,-581.5 1338.5,-581.5"/>
<text text-anchor="start" x="1346.5" y="-600.5" font-family="FreeSans" font-size="10.00" fill="#000000">PHTimer::get_clock</text>
<text text-anchor="middle" x="1395" y="-588.5" font-family="FreeSans" font-size="10.00" fill="#000000">_counts</text>
</a>
</g>
</g>
<!-- Node15&#45;&gt;Node16 -->
<g id="edge17" class="edge">
<title>Node15&#45;&gt;Node16</title>
<path fill="none" stroke="#191970" d="M1117.1935,-581.0822C1171.5132,-584.2924 1264.7813,-589.8043 1328.1199,-593.5475"/>
<polygon fill="#191970" stroke="#191970" points="1328.2188,-597.0594 1338.4079,-594.1555 1328.6318,-590.0716 1328.2188,-597.0594"/>
</g>
<!-- Node17 -->
<g id="node17" class="node">
<title>Node17</title>
<g id="a_node17"><a xlink:href="../../d0/d5e/classPHTimer.html#a976738876ad978116fdc4549a3765685" target="_top" xlink:title="retrieve elapsed value since last restart (in ms)">
<polygon fill="none" stroke="#000000" points="1185,-548.5 1185,-568.5 1290,-568.5 1290,-548.5 1185,-548.5"/>
<text text-anchor="middle" x="1237.5" y="-555.5" font-family="FreeSans" font-size="10.00" fill="#000000">PHTimer::elapsed</text>
</a>
</g>
</g>
<!-- Node15&#45;&gt;Node17 -->
<g id="edge18" class="edge">
<title>Node15&#45;&gt;Node17</title>
<path fill="none" stroke="#191970" d="M1117.0184,-573.1929C1134.6343,-571.0446 1155.3144,-568.5226 1174.521,-566.1804"/>
<polygon fill="#191970" stroke="#191970" points="1175.2048,-569.623 1184.7075,-564.9381 1174.3573,-562.6745 1175.2048,-569.623"/>
</g>
<!-- Node17&#45;&gt;Node16 -->
<g id="edge21" class="edge">
<title>Node17&#45;&gt;Node16</title>
<path fill="none" stroke="#191970" d="M1278.0602,-568.5435C1293.3746,-572.3356 1311.2315,-576.7573 1328.3129,-580.987"/>
<polygon fill="#191970" stroke="#191970" points="1327.7073,-584.4427 1338.2554,-583.449 1329.3898,-577.6479 1327.7073,-584.4427"/>
</g>
<!-- Node18 -->
<g id="node18" class="node">
<title>Node18</title>
<g id="a_node18"><a xlink:href="../../d0/d5e/classPHTimer.html#aa75ff2c27aba40e7ef0a934f9a3355c2" target="_top" xlink:title="returns difference between to time">
<polygon fill="none" stroke="#000000" points="1326,-542.5 1326,-562.5 1464,-562.5 1464,-542.5 1326,-542.5"/>
<text text-anchor="middle" x="1395" y="-549.5" font-family="FreeSans" font-size="10.00" fill="#000000">PHTimer::get_difference</text>
</a>
</g>
</g>
<!-- Node17&#45;&gt;Node18 -->
<g id="edge19" class="edge">
<title>Node17&#45;&gt;Node18</title>
<path fill="none" stroke="#191970" d="M1290.3834,-556.4854C1298.5408,-556.1746 1307.1148,-555.848 1315.6976,-555.521"/>
<polygon fill="#191970" stroke="#191970" points="1315.8931,-559.0162 1325.7526,-555.138 1315.6266,-552.0213 1315.8931,-559.0162"/>
</g>
<!-- Node19 -->
<g id="node19" class="node">
<title>Node19</title>
<g id="a_node19"><a xlink:href="../../d2/db1/classPHTimer_1_1Frequency.html#a023a2d706df9a8bd303810a9ed017f61" target="_top" xlink:title="period accessor">
<polygon fill="none" stroke="#000000" points="1500,-536.5 1500,-568.5 1618,-568.5 1618,-536.5 1500,-536.5"/>
<text text-anchor="start" x="1508" y="-555.5" font-family="FreeSans" font-size="10.00" fill="#000000">PHTimer::Frequency</text>
<text text-anchor="middle" x="1559" y="-543.5" font-family="FreeSans" font-size="10.00" fill="#000000">::period</text>
</a>
</g>
</g>
<!-- Node18&#45;&gt;Node19 -->
<g id="edge20" class="edge">
<title>Node18&#45;&gt;Node19</title>
<path fill="none" stroke="#191970" d="M1464.0754,-552.5C1472.5394,-552.5 1481.1918,-552.5 1489.6596,-552.5"/>
<polygon fill="#191970" stroke="#191970" points="1489.8719,-556.0001 1499.8719,-552.5 1489.8719,-549.0001 1489.8719,-556.0001"/>
</g>
<!-- Node22&#45;&gt;Node7 -->
<g id="edge31" class="edge">
<title>Node22&#45;&gt;Node7</title>
<path fill="none" stroke="#191970" d="M803.1593,-466.161C807.1144,-463.4505 811.0164,-460.2055 814,-456.5 841.5369,-422.3003 831.3129,-404.2328 850,-364.5 863.8596,-335.0315 882.6747,-302.2997 894.5781,-282.3076"/>
<polygon fill="#191970" stroke="#191970" points="897.6673,-283.9619 899.8144,-273.5869 891.666,-280.3585 897.6673,-283.9619"/>
</g>
<!-- Node23 -->
<g id="node23" class="node">
<title>Node23</title>
<g id="a_node23"><a xlink:href="../../d6/dcf/pythia6425mod_8f.html#a27f75936fde97780175fa2c990bc61cd" target="_top" xlink:title="pychge">
<polygon fill="none" stroke="#000000" points="879.5,-412.5 879.5,-432.5 932.5,-432.5 932.5,-412.5 879.5,-412.5"/>
<text text-anchor="middle" x="906" y="-419.5" font-family="FreeSans" font-size="10.00" fill="#000000">pychge</text>
</a>
</g>
</g>
<!-- Node22&#45;&gt;Node23 -->
<g id="edge25" class="edge">
<title>Node22&#45;&gt;Node23</title>
<path fill="none" stroke="#191970" d="M803.2713,-465.617C816.0607,-458.7009 833.8354,-449.4866 850,-442.5 856.3033,-439.7756 863.1116,-437.1168 869.737,-434.6734"/>
<polygon fill="#191970" stroke="#191970" points="871.0032,-437.9376 879.2329,-431.265 868.6384,-431.3491 871.0032,-437.9376"/>
</g>
<!-- Node24 -->
<g id="node24" class="node">
<title>Node24</title>
<g id="a_node24"><a xlink:href="../../d6/dcf/pythia6425mod_8f.html#aa8c99978a55999fa0b1fd2a946d8553a" target="_top" xlink:title="pyangl">
<polygon fill="none" stroke="#000000" points="881,-451.5 881,-471.5 931,-471.5 931,-451.5 881,-451.5"/>
<text text-anchor="middle" x="906" y="-458.5" font-family="FreeSans" font-size="10.00" fill="#000000">pyangl</text>
</a>
</g>
</g>
<!-- Node22&#45;&gt;Node24 -->
<g id="edge26" class="edge">
<title>Node22&#45;&gt;Node24</title>
<path fill="none" stroke="#191970" d="M803.0217,-473.4643C820.7156,-471.4086 848.5389,-468.176 870.8062,-465.5889"/>
<polygon fill="#191970" stroke="#191970" points="871.3762,-469.0463 880.9054,-464.4156 870.5683,-462.0931 871.3762,-469.0463"/>
</g>
<!-- Node22&#45;&gt;Node25 -->
<g id="edge30" class="edge">
<title>Node22&#45;&gt;Node25</title>
<path fill="none" stroke="#191970" d="M803.017,-477.1674C815.9878,-478.3928 834.0932,-480.084 850,-481.5 919.9378,-487.7256 1002.2285,-494.6067 1044.778,-498.1318"/>
<polygon fill="#191970" stroke="#191970" points="1044.6974,-501.637 1054.9519,-498.9734 1045.2746,-494.6608 1044.6974,-501.637"/>
</g>
<!-- Node26 -->
<g id="node26" class="node">
<title>Node26</title>
<g id="a_node26"><a xlink:href="../../d6/dcf/pythia6425mod_8f.html#ad69903a1054f4f77d45fd8fe4c687aa9" target="_top" xlink:title="pymass">
<polygon fill="none" stroke="#000000" points="878.5,-373.5 878.5,-393.5 933.5,-393.5 933.5,-373.5 878.5,-373.5"/>
<text text-anchor="middle" x="906" y="-380.5" font-family="FreeSans" font-size="10.00" fill="#000000">pymass</text>
</a>
</g>
</g>
<!-- Node22&#45;&gt;Node26 -->
<g id="edge28" class="edge">
<title>Node22&#45;&gt;Node26</title>
<path fill="none" stroke="#191970" d="M802.8974,-465.4531C806.7735,-462.8051 810.706,-459.7656 814,-456.5 834.2223,-436.452 827.4797,-420.927 850,-403.5 855.5404,-399.2126 862.0785,-395.7929 868.6959,-393.0821"/>
<polygon fill="#191970" stroke="#191970" points="870.1242,-396.2876 878.341,-389.5992 867.7467,-389.7037 870.1242,-396.2876"/>
</g>
<!-- Node24&#45;&gt;Node25 -->
<g id="edge27" class="edge">
<title>Node24&#45;&gt;Node25</title>
<path fill="none" stroke="#191970" d="M931.0764,-467.3387C961.5784,-474.4406 1012.9469,-486.4011 1044.9426,-493.8508"/>
<polygon fill="#191970" stroke="#191970" points="1044.4592,-497.3318 1054.9925,-496.1908 1046.0467,-490.5142 1044.4592,-497.3318"/>
</g>
<!-- Node27 -->
<g id="node27" class="node">
<title>Node27</title>
<g id="a_node27"><a xlink:href="../../d6/dcf/pythia6425mod_8f.html#ac28b7ef95cee2881a46f71d3a88d05ac" target="_top" xlink:title="pyr">
<polygon fill="none" stroke="#000000" points="1057,-373.5 1057,-393.5 1090,-393.5 1090,-373.5 1057,-373.5"/>
<text text-anchor="middle" x="1073.5" y="-380.5" font-family="FreeSans" font-size="10.00" fill="#000000">pyr</text>
</a>
</g>
</g>
<!-- Node26&#45;&gt;Node27 -->
<g id="edge29" class="edge">
<title>Node26&#45;&gt;Node27</title>
<path fill="none" stroke="#191970" d="M933.6592,-383.5C965.0783,-383.5 1015.9895,-383.5 1046.9436,-383.5"/>
<polygon fill="#191970" stroke="#191970" points="1046.9955,-387.0001 1056.9955,-383.5 1046.9954,-380.0001 1046.9955,-387.0001"/>
</g>
<!-- Node30 -->
<g id="node30" class="node">
<title>Node30</title>
<g id="a_node30"><a xlink:href="../../d6/dcf/pythia6425mod_8f.html#a342cc0b3b1534ea728c6cc519dfc55dc" target="_top" xlink:title="pymrun">
<polygon fill="none" stroke="#000000" points="265,-349.5 265,-369.5 320,-369.5 320,-349.5 265,-349.5"/>
<text text-anchor="middle" x="292.5" y="-356.5" font-family="FreeSans" font-size="10.00" fill="#000000">pymrun</text>
</a>
</g>
</g>
<!-- Node29&#45;&gt;Node30 -->
<g id="edge35" class="edge">
<title>Node29&#45;&gt;Node30</title>
<path fill="none" stroke="#191970" d="M138.2896,-359.5C168.7711,-359.5 219.7564,-359.5 254.6987,-359.5"/>
<polygon fill="#191970" stroke="#191970" points="254.9874,-363.0001 264.9874,-359.5 254.9874,-356.0001 254.9874,-363.0001"/>
</g>
<!-- Node31 -->
<g id="node31" class="node">
<title>Node31</title>
<g id="a_node31"><a xlink:href="../../d6/dcf/pythia6425mod_8f.html#a615871b7d284b85342c32545140f6435" target="_top" xlink:title="pyrvgw">
<polygon fill="none" stroke="#000000" points="175,-426.5 175,-446.5 229,-446.5 229,-426.5 175,-426.5"/>
<text text-anchor="middle" x="202" y="-433.5" font-family="FreeSans" font-size="10.00" fill="#000000">pyrvgw</text>
</a>
</g>
</g>
<!-- Node29&#45;&gt;Node31 -->
<g id="edge40" class="edge">
<title>Node29&#45;&gt;Node31</title>
<path fill="none" stroke="#191970" d="M124.2006,-369.5664C138.9411,-382.2482 164.4911,-404.2297 182.2728,-419.528"/>
<polygon fill="#191970" stroke="#191970" points="180.4333,-422.5625 190.2966,-426.4311 184.9986,-417.256 180.4333,-422.5625"/>
</g>
<!-- Node30&#45;&gt;Node2 -->
<g id="edge36" class="edge">
<title>Node30&#45;&gt;Node2</title>
<path fill="none" stroke="#191970" d="M320.1429,-349.9595C334.0785,-345.1499 351.2156,-339.2353 366.4688,-333.9709"/>
<polygon fill="#191970" stroke="#191970" points="367.8567,-337.1946 376.1677,-330.6235 365.5729,-330.5776 367.8567,-337.1946"/>
</g>
<!-- Node30&#45;&gt;Node7 -->
<g id="edge37" class="edge">
<title>Node30&#45;&gt;Node7</title>
<path fill="none" stroke="#191970" d="M320.2725,-359.5C362.8326,-359.5 446.7483,-359.5 518,-359.5 518,-359.5 518,-359.5 695,-359.5 770.6862,-359.5 849.0407,-307.6921 885.2979,-280.1945"/>
<polygon fill="#191970" stroke="#191970" points="887.8221,-282.6663 893.5816,-273.7737 883.5337,-277.1337 887.8221,-282.6663"/>
</g>
<!-- Node30&#45;&gt;Node9 -->
<g id="edge38" class="edge">
<title>Node30&#45;&gt;Node9</title>
<path fill="none" stroke="#191970" d="M299.9142,-349.33C318.6745,-323.597 368.2342,-255.6168 392.1781,-222.7734"/>
<polygon fill="#191970" stroke="#191970" points="395.1425,-224.6484 398.2054,-214.5059 389.4861,-220.5247 395.1425,-224.6484"/>
</g>
<!-- Node30&#45;&gt;Node26 -->
<g id="edge39" class="edge">
<title>Node30&#45;&gt;Node26</title>
<path fill="none" stroke="#191970" d="M320.0207,-367.1899C362.2519,-378.2936 445.7437,-397.5 518,-397.5 518,-397.5 518,-397.5 695,-397.5 755.7506,-397.5 826.1245,-391.6505 868.2978,-387.5136"/>
<polygon fill="#191970" stroke="#191970" points="868.7876,-390.9821 878.3892,-386.5034 868.0902,-384.017 868.7876,-390.9821"/>
</g>
<!-- Node31&#45;&gt;Node30 -->
<g id="edge41" class="edge">
<title>Node31&#45;&gt;Node30</title>
<path fill="none" stroke="#191970" d="M213.8313,-426.4336C228.872,-413.6365 255.0426,-391.3698 273.0408,-376.0565"/>
<polygon fill="#191970" stroke="#191970" points="275.3176,-378.7148 280.6658,-369.5689 270.7814,-373.3834 275.3176,-378.7148"/>
</g>
<!-- Node32 -->
<g id="node32" class="node">
<title>Node32</title>
<g id="a_node32"><a xlink:href="../../d6/dcf/pythia6425mod_8f.html#a42b2d221de531f661ead0e1bef14807b" target="_top" xlink:title="pyrvi1">
<polygon fill="none" stroke="#000000" points="268.5,-426.5 268.5,-446.5 316.5,-446.5 316.5,-426.5 268.5,-426.5"/>
<text text-anchor="middle" x="292.5" y="-433.5" font-family="FreeSans" font-size="10.00" fill="#000000">pyrvi1</text>
</a>
</g>
</g>
<!-- Node31&#45;&gt;Node32 -->
<g id="edge42" class="edge">
<title>Node31&#45;&gt;Node32</title>
<path fill="none" stroke="#191970" d="M229.153,-436.5C238.3295,-436.5 248.6948,-436.5 258.343,-436.5"/>
<polygon fill="#191970" stroke="#191970" points="258.4408,-440.0001 268.4408,-436.5 258.4407,-433.0001 258.4408,-440.0001"/>
</g>
<!-- Node35 -->
<g id="node35" class="node">
<title>Node35</title>
<g id="a_node35"><a xlink:href="../../d6/dcf/pythia6425mod_8f.html#a9e6ea2faa5ba1af425bd3782c8069d02" target="_top" xlink:title="pyrvi2">
<polygon fill="none" stroke="#000000" points="268.5,-465.5 268.5,-485.5 316.5,-485.5 316.5,-465.5 268.5,-465.5"/>
<text text-anchor="middle" x="292.5" y="-472.5" font-family="FreeSans" font-size="10.00" fill="#000000">pyrvi2</text>
</a>
</g>
</g>
<!-- Node31&#45;&gt;Node35 -->
<g id="edge46" class="edge">
<title>Node31&#45;&gt;Node35</title>
<path fill="none" stroke="#191970" d="M225.306,-446.5435C235.8622,-451.0926 248.5208,-456.5476 259.9904,-461.4903"/>
<polygon fill="#191970" stroke="#191970" points="258.7042,-464.7472 269.273,-465.4906 261.4746,-458.3187 258.7042,-464.7472"/>
</g>
<!-- Node38 -->
<g id="node38" class="node">
<title>Node38</title>
<g id="a_node38"><a xlink:href="../../d6/dcf/pythia6425mod_8f.html#a797da463f08ad3ff91ca5d428c5f5cc7" target="_top" xlink:title="pyrvi3">
<polygon fill="none" stroke="#000000" points="268.5,-504.5 268.5,-524.5 316.5,-524.5 316.5,-504.5 268.5,-504.5"/>
<text text-anchor="middle" x="292.5" y="-511.5" font-family="FreeSans" font-size="10.00" fill="#000000">pyrvi3</text>
</a>
</g>
</g>
<!-- Node31&#45;&gt;Node38 -->
<g id="edge51" class="edge">
<title>Node31&#45;&gt;Node38</title>
<path fill="none" stroke="#191970" d="M211.8387,-446.5877C223.8947,-458.7385 245.1695,-479.5094 265,-495.5 266.1858,-496.4562 267.4176,-497.4161 268.6734,-498.3688"/>
<polygon fill="#191970" stroke="#191970" points="266.922,-501.4212 277.0782,-504.4382 271.0201,-495.7462 266.922,-501.4212"/>
</g>
<!-- Node32&#45;&gt;Node10 -->
<g id="edge45" class="edge">
<title>Node32&#45;&gt;Node10</title>
<path fill="none" stroke="#191970" d="M309.3736,-446.6846C313.195,-449.5271 317.004,-452.8492 320,-456.5 344.2211,-486.0147 328.1271,-508.4063 356,-534.5 359.8902,-538.1419 364.5523,-541.1083 369.4382,-543.5184"/>
<polygon fill="#191970" stroke="#191970" points="368.3894,-546.8734 378.9657,-547.499 371.088,-540.4144 368.3894,-546.8734"/>
</g>
<!-- Node33 -->
<g id="node33" class="node">
<title>Node33</title>
<g id="a_node33"><a xlink:href="../../d6/dcf/pythia6425mod_8f.html#a2fc031269f435aa5547d90d480213f0d" target="_top" xlink:title="pyrvg1">
<polygon fill="none" stroke="#000000" points="492.5,-426.5 492.5,-446.5 543.5,-446.5 543.5,-426.5 492.5,-426.5"/>
<text text-anchor="middle" x="518" y="-433.5" font-family="FreeSans" font-size="10.00" fill="#000000">pyrvg1</text>
</a>
</g>
</g>
<!-- Node32&#45;&gt;Node33 -->
<g id="edge43" class="edge">
<title>Node32&#45;&gt;Node33</title>
<path fill="none" stroke="#191970" d="M316.6325,-436.5C356.3713,-436.5 435.7855,-436.5 482.1252,-436.5"/>
<polygon fill="#191970" stroke="#191970" points="482.3176,-440.0001 492.3176,-436.5 482.3175,-433.0001 482.3176,-440.0001"/>
</g>
<!-- Node34 -->
<g id="node34" class="node">
<title>Node34</title>
<g id="a_node34"><a xlink:href="../../d6/dcf/pythia6425mod_8f.html#a5168f5ce45865125ee90d4a1967db80d" target="_top" xlink:title="pyrvr">
<polygon fill="none" stroke="#000000" points="673.5,-446.5 673.5,-466.5 716.5,-466.5 716.5,-446.5 673.5,-446.5"/>
<text text-anchor="middle" x="695" y="-453.5" font-family="FreeSans" font-size="10.00" fill="#000000">pyrvr</text>
</a>
</g>
</g>
<!-- Node33&#45;&gt;Node34 -->
<g id="edge44" class="edge">
<title>Node33&#45;&gt;Node34</title>
<path fill="none" stroke="#191970" d="M543.7373,-439.4082C575.3159,-442.9764 628.8596,-449.0265 663.0422,-452.8889"/>
<polygon fill="#191970" stroke="#191970" points="663.0779,-456.4152 673.4077,-454.0602 663.8639,-449.4594 663.0779,-456.4152"/>
</g>
<!-- Node35&#45;&gt;Node10 -->
<g id="edge50" class="edge">
<title>Node35&#45;&gt;Node10</title>
<path fill="none" stroke="#191970" d="M307.4709,-485.5735C311.6563,-488.6045 316.1187,-492.0469 320,-495.5 337.6237,-511.1796 336.4771,-521.2598 356,-534.5 360.1163,-537.2916 364.7,-539.7512 369.3706,-541.8946"/>
<polygon fill="#191970" stroke="#191970" points="368.3786,-545.2717 378.9574,-545.8551 371.0514,-538.802 368.3786,-545.2717"/>
</g>
<!-- Node36 -->
<g id="node36" class="node">
<title>Node36</title>
<g id="a_node36"><a xlink:href="../../d6/dcf/pythia6425mod_8f.html#a371f64ca765777a5a87c152e18482a4a" target="_top" xlink:title="pyrvg2">
<polygon fill="none" stroke="#000000" points="492.5,-465.5 492.5,-485.5 543.5,-485.5 543.5,-465.5 492.5,-465.5"/>
<text text-anchor="middle" x="518" y="-472.5" font-family="FreeSans" font-size="10.00" fill="#000000">pyrvg2</text>
</a>
</g>
</g>
<!-- Node35&#45;&gt;Node36 -->
<g id="edge47" class="edge">
<title>Node35&#45;&gt;Node36</title>
<path fill="none" stroke="#191970" d="M316.6325,-475.5C356.3713,-475.5 435.7855,-475.5 482.1252,-475.5"/>
<polygon fill="#191970" stroke="#191970" points="482.3176,-479.0001 492.3176,-475.5 482.3175,-472.0001 482.3176,-479.0001"/>
</g>
<!-- Node37 -->
<g id="node37" class="node">
<title>Node37</title>
<g id="a_node37"><a xlink:href="../../d6/dcf/pythia6425mod_8f.html#a78f4bff902221f0851a474a0642ca924" target="_top" xlink:title="pyrvs">
<polygon fill="none" stroke="#000000" points="585,-465.5 585,-485.5 629,-485.5 629,-465.5 585,-465.5"/>
<text text-anchor="middle" x="607" y="-472.5" font-family="FreeSans" font-size="10.00" fill="#000000">pyrvs</text>
</a>
</g>
</g>
<!-- Node36&#45;&gt;Node37 -->
<g id="edge48" class="edge">
<title>Node36&#45;&gt;Node37</title>
<path fill="none" stroke="#191970" d="M543.7425,-475.5C553.4205,-475.5 564.5474,-475.5 574.7442,-475.5"/>
<polygon fill="#191970" stroke="#191970" points="574.9339,-479.0001 584.9339,-475.5 574.9339,-472.0001 574.9339,-479.0001"/>
</g>
<!-- Node37&#45;&gt;Node34 -->
<g id="edge49" class="edge">
<title>Node37&#45;&gt;Node34</title>
<path fill="none" stroke="#191970" d="M629.2061,-470.7055C639.5756,-468.4666 652.1056,-465.7613 663.4367,-463.3148"/>
<polygon fill="#191970" stroke="#191970" points="664.3733,-466.6933 673.4094,-461.1616 662.896,-459.851 664.3733,-466.6933"/>
</g>
<!-- Node38&#45;&gt;Node10 -->
<g id="edge57" class="edge">
<title>Node38&#45;&gt;Node10</title>
<path fill="none" stroke="#191970" d="M316.7413,-522.8665C332.0287,-528.1426 352.0544,-535.0542 369.2145,-540.9767"/>
<polygon fill="#191970" stroke="#191970" points="368.3348,-544.3756 378.9295,-544.3297 370.6186,-537.7586 368.3348,-544.3756"/>
</g>
<!-- Node39 -->
<g id="node39" class="node">
<title>Node39</title>
<g id="a_node39"><a xlink:href="../../d6/dcf/pythia6425mod_8f.html#a23fb42dd91c099fbcd5cd2001c74e98d" target="_top" xlink:title="pyrvg3">
<polygon fill="none" stroke="#000000" points="380,-504.5 380,-524.5 431,-524.5 431,-504.5 380,-504.5"/>
<text text-anchor="middle" x="405.5" y="-511.5" font-family="FreeSans" font-size="10.00" fill="#000000">pyrvg3</text>
</a>
</g>
</g>
<!-- Node38&#45;&gt;Node39 -->
<g id="edge52" class="edge">
<title>Node38&#45;&gt;Node39</title>
<path fill="none" stroke="#191970" d="M316.7413,-514.5C332.1006,-514.5 352.243,-514.5 369.4566,-514.5"/>
<polygon fill="#191970" stroke="#191970" points="369.7271,-518.0001 379.7271,-514.5 369.7271,-511.0001 369.7271,-518.0001"/>
</g>
<!-- Node40 -->
<g id="node40" class="node">
<title>Node40</title>
<g id="a_node40"><a xlink:href="../../d6/dcf/pythia6425mod_8f.html#ad2bff8fc5a17d91922af88f41b6e22f3" target="_top" xlink:title="pygau2">
<polygon fill="none" stroke="#000000" points="491,-543.5 491,-563.5 545,-563.5 545,-543.5 491,-543.5"/>
<text text-anchor="middle" x="518" y="-550.5" font-family="FreeSans" font-size="10.00" fill="#000000">pygau2</text>
</a>
</g>
</g>
<!-- Node39&#45;&gt;Node40 -->
<g id="edge53" class="edge">
<title>Node39&#45;&gt;Node40</title>
<path fill="none" stroke="#191970" d="M431.028,-523.3497C445.738,-528.4492 464.4915,-534.9504 480.8154,-540.6093"/>
<polygon fill="#191970" stroke="#191970" points="480.0127,-544.0354 490.6075,-544.0039 482.3056,-537.4215 480.0127,-544.0354"/>
</g>
<!-- Node41 -->
<g id="node41" class="node">
<title>Node41</title>
<g id="a_node41"><a xlink:href="../../d6/dcf/pythia6425mod_8f.html#a4de5cb4846e35b7378ff15e9a97710c4" target="_top" xlink:title="pyrvg4">
<polygon fill="none" stroke="#000000" points="492.5,-504.5 492.5,-524.5 543.5,-524.5 543.5,-504.5 492.5,-504.5"/>
<text text-anchor="middle" x="518" y="-511.5" font-family="FreeSans" font-size="10.00" fill="#000000">pyrvg4</text>
</a>
</g>
</g>
<!-- Node39&#45;&gt;Node41 -->
<g id="edge55" class="edge">
<title>Node39&#45;&gt;Node41</title>
<path fill="none" stroke="#191970" d="M431.028,-514.5C446.0247,-514.5 465.224,-514.5 481.767,-514.5"/>
<polygon fill="#191970" stroke="#191970" points="482.1836,-518.0001 492.1836,-514.5 482.1836,-511.0001 482.1836,-518.0001"/>
</g>
<!-- Node40&#45;&gt;Node11 -->
<g id="edge54" class="edge">
<title>Node40&#45;&gt;Node11</title>
<path fill="none" stroke="#191970" d="M545.1865,-557.4711C553.2547,-558.6496 562.2224,-559.9594 570.7684,-561.2077"/>
<polygon fill="#191970" stroke="#191970" points="570.4938,-564.7047 580.8947,-562.6869 571.5056,-557.7782 570.4938,-564.7047"/>
</g>
<!-- Node41&#45;&gt;Node37 -->
<g id="edge56" class="edge">
<title>Node41&#45;&gt;Node37</title>
<path fill="none" stroke="#191970" d="M540.9197,-504.4565C551.4619,-499.8369 564.1363,-494.283 575.553,-489.2801"/>
<polygon fill="#191970" stroke="#191970" points="577.0185,-492.4593 584.7729,-485.24 574.2089,-486.0479 577.0185,-492.4593"/>
</g>
<!-- Node42&#45;&gt;Node28 -->
<g id="edge59" class="edge">
<title>Node42&#45;&gt;Node28</title>
<path fill="none" stroke="#191970" d="M139.353,-49.5C147.6428,-49.5 156.9137,-49.5 165.729,-49.5"/>
<polygon fill="#191970" stroke="#191970" points="165.782,-53.0001 175.7819,-49.5 165.7819,-46.0001 165.782,-53.0001"/>
</g>
<!-- Node43&#45;&gt;Node28 -->
<g id="edge61" class="edge">
<title>Node43&#45;&gt;Node28</title>
<path fill="none" stroke="#191970" d="M135.5485,-20.5435C145.9881,-25.0926 158.5068,-30.5476 169.8496,-35.4903"/>
<polygon fill="#191970" stroke="#191970" points="168.464,-38.7044 179.0296,-39.4906 171.2604,-32.2871 168.464,-38.7044"/>
</g>
<!-- Node44&#45;&gt;Node7 -->
<g id="edge63" class="edge">
<title>Node44&#45;&gt;Node7</title>
<path fill="none" stroke="#191970" d="M139.2483,-156.9595C174.0652,-145.4136 237.0232,-127.5 292.5,-127.5 292.5,-127.5 292.5,-127.5 695,-127.5 780.9398,-127.5 859.6769,-208.1928 891.3169,-245.2665"/>
<polygon fill="#191970" stroke="#191970" points="888.9053,-247.8395 897.9978,-253.2779 894.2812,-243.3563 888.9053,-247.8395"/>
</g>
<!-- Node45 -->
<g id="node45" class="node">
<title>Node45</title>
<g id="a_node45"><a xlink:href="../../db/d5d/test__style_8C.html#a2513fe0eb0478642e44ad1201af61a46" target="_top" xlink:title="f2">
<polygon fill="none" stroke="#000000" points="187.5,-156.5 187.5,-176.5 216.5,-176.5 216.5,-156.5 187.5,-156.5"/>
<text text-anchor="middle" x="202" y="-163.5" font-family="FreeSans" font-size="10.00" fill="#000000">f2</text>
</a>
</g>
</g>
<!-- Node44&#45;&gt;Node45 -->
<g id="edge64" class="edge">
<title>Node44&#45;&gt;Node45</title>
<path fill="none" stroke="#191970" d="M139.353,-166.5C151.416,-166.5 165.5565,-166.5 177.3474,-166.5"/>
<polygon fill="#191970" stroke="#191970" points="177.3883,-170.0001 187.3883,-166.5 177.3883,-163.0001 177.3883,-170.0001"/>
</g>
<!-- Node46&#45;&gt;Node7 -->
<g id="edge66" class="edge">
<title>Node46&#45;&gt;Node7</title>
<path fill="none" stroke="#191970" d="M721.2967,-245.9926C751.9513,-248.8982 803.6301,-253.7967 844.5406,-257.6745"/>
<polygon fill="#191970" stroke="#191970" points="844.4046,-261.1772 854.6903,-258.6365 845.0652,-254.2084 844.4046,-261.1772"/>
</g>
</g>
</svg>
