<?xml version="1.0" encoding="UTF-8" standalone="no"?>
<!DOCTYPE svg PUBLIC "-//W3C//DTD SVG 1.1//EN"
 "http://www.w3.org/Graphics/SVG/1.1/DTD/svg11.dtd">
<!-- Generated by graphviz version 2.40.1 (20161225.0304)
 -->
<!-- Title: pypdpi Pages: 1 -->
<svg width="1091pt" height="625pt"
 viewBox="0.00 0.00 1091.00 625.00" xmlns="http://www.w3.org/2000/svg" xmlns:xlink="http://www.w3.org/1999/xlink">
<g id="graph0" class="graph" transform="scale(1 1) rotate(0) translate(4 621)">
<title>pypdpi</title>
<!-- Node1 -->
<g id="node1" class="node">
<title>Node1</title>
<polygon fill="#bfbfbf" stroke="#000000" points="0,-112.5 0,-132.5 50,-132.5 50,-112.5 0,-112.5"/>
<text text-anchor="middle" x="25" y="-119.5" font-family="FreeSans" font-size="10.00" fill="#000000">pypdpi</text>
</g>
<!-- Node2 -->
<g id="node2" class="node">
<title>Node2</title>
<g id="a_node2"><a xlink:href="../../d0/d95/ip_8C.html#a292ff32a75b66b513d1f0ce00f9a4dc4" target="_top" xlink:title="ip">
<polygon fill="none" stroke="#000000" points="150,-276.5 150,-296.5 179,-296.5 179,-276.5 150,-276.5"/>
<text text-anchor="middle" x="164.5" y="-283.5" font-family="FreeSans" font-size="10.00" fill="#000000">ip</text>
</a>
</g>
</g>
<!-- Node1&#45;&gt;Node2 -->
<g id="edge1" class="edge">
<title>Node1&#45;&gt;Node2</title>
<path fill="none" stroke="#191970" d="M33.7263,-132.7589C56.8214,-159.9102 119.7728,-233.9175 149.0922,-268.3862"/>
<polygon fill="#191970" stroke="#191970" points="146.6317,-270.8955 155.7769,-276.2449 151.9637,-266.3601 146.6317,-270.8955"/>
</g>
<!-- Node34 -->
<g id="node34" class="node">
<title>Node34</title>
<g id="a_node34"><a xlink:href="../../dd/db6/classActs_1_1FiniteStateMachine.html#accf83819414f8d062810932538205f10" target="_top" xlink:title="Acts::FiniteStateMachine::is">
<polygon fill="none" stroke="#000000" points="86,-132.5 86,-152.5 243,-152.5 243,-132.5 86,-132.5"/>
<text text-anchor="middle" x="164.5" y="-139.5" font-family="FreeSans" font-size="10.00" fill="#000000">Acts::FiniteStateMachine::is</text>
</a>
</g>
</g>
<!-- Node1&#45;&gt;Node34 -->
<g id="edge42" class="edge">
<title>Node1&#45;&gt;Node34</title>
<path fill="none" stroke="#191970" d="M50.2624,-126.1218C60.175,-127.543 72.145,-129.2591 84.5551,-131.0384"/>
<polygon fill="#191970" stroke="#191970" points="84.1757,-134.5197 94.5712,-132.4744 85.1692,-127.5905 84.1757,-134.5197"/>
</g>
<!-- Node35 -->
<g id="node35" class="node">
<title>Node35</title>
<g id="a_node35"><a xlink:href="../../d4/d3e/classActs_1_1Logger.html#aee9e687247532b5175713e66b2d2121e" target="_top" xlink:title="create output stream object with internal cache">
<polygon fill="none" stroke="#000000" points="113.5,-93.5 113.5,-113.5 215.5,-113.5 215.5,-93.5 113.5,-93.5"/>
<text text-anchor="middle" x="164.5" y="-100.5" font-family="FreeSans" font-size="10.00" fill="#000000">Acts::Logger::log</text>
</a>
</g>
</g>
<!-- Node1&#45;&gt;Node35 -->
<g id="edge43" class="edge">
<title>Node1&#45;&gt;Node35</title>
<path fill="none" stroke="#191970" d="M50.2624,-119.0592C65.1706,-117.0287 84.7324,-114.3644 103.446,-111.8156"/>
<polygon fill="#191970" stroke="#191970" points="103.9855,-115.2745 113.4216,-110.4569 103.0407,-108.3386 103.9855,-115.2745"/>
</g>
<!-- Node37 -->
<g id="node37" class="node">
<title>Node37</title>
<g id="a_node37"><a xlink:href="../../d6/dcf/pythia6425mod_8f.html#a06d78ee8406e4a1ebe6e3704ba3d4ee0" target="_top" xlink:title="pygamm">
<polygon fill="none" stroke="#000000" points="134,-54.5 134,-74.5 195,-74.5 195,-54.5 134,-54.5"/>
<text text-anchor="middle" x="164.5" y="-61.5" font-family="FreeSans" font-size="10.00" fill="#000000">pygamm</text>
</a>
</g>
</g>
<!-- Node1&#45;&gt;Node37 -->
<g id="edge45" class="edge">
<title>Node1&#45;&gt;Node37</title>
<path fill="none" stroke="#191970" d="M38.3858,-112.4663C50.3222,-103.9439 68.5564,-91.9429 86,-84.5 97.9249,-79.4118 111.441,-75.3947 123.8559,-72.337"/>
<polygon fill="#191970" stroke="#191970" points="125.0158,-75.6609 133.9663,-69.9918 123.434,-68.842 125.0158,-75.6609"/>
</g>
<!-- Node3 -->
<g id="node3" class="node">
<title>Node3</title>
<g id="a_node3"><a xlink:href="../../da/d86/classEicGeoMap.html#a4138a501100028aef473a4b9508d36d3" target="_top" xlink:title="EicGeoMap::AddGeantVolume\lLevel">
<polygon fill="none" stroke="#000000" points="498,-584.5 498,-616.5 666,-616.5 666,-584.5 498,-584.5"/>
<text text-anchor="start" x="506" y="-603.5" font-family="FreeSans" font-size="10.00" fill="#000000">EicGeoMap::AddGeantVolume</text>
<text text-anchor="middle" x="582" y="-591.5" font-family="FreeSans" font-size="10.00" fill="#000000">Level</text>
</a>
</g>
</g>
<!-- Node2&#45;&gt;Node3 -->
<g id="edge2" class="edge">
<title>Node2&#45;&gt;Node3</title>
<path fill="none" stroke="#191970" d="M169.8185,-296.8598C183.8125,-323.0071 224.3759,-391.9713 279,-425.5 346.9129,-467.1854 394.6141,-411.3667 454,-464.5 490.7657,-497.3947 455.0239,-534.7084 490,-569.5 493.7137,-573.1941 497.8815,-576.4481 502.3386,-579.3145"/>
<polygon fill="#191970" stroke="#191970" points="500.7993,-582.4654 511.2229,-584.3627 504.2576,-576.3793 500.7993,-582.4654"/>
</g>
<!-- Node5 -->
<g id="node5" class="node">
<title>Node5</title>
<g id="a_node5"><a xlink:href="../../df/de0/classEicGeoParData.html#a131e36442e699277af7e0e05dd70d7c7" target="_top" xlink:title="EicGeoParData::AddLogical\lVolumeGroup">
<polygon fill="none" stroke="#000000" points="735.5,-338.5 735.5,-370.5 888.5,-370.5 888.5,-338.5 735.5,-338.5"/>
<text text-anchor="start" x="743.5" y="-357.5" font-family="FreeSans" font-size="10.00" fill="#000000">EicGeoParData::AddLogical</text>
<text text-anchor="middle" x="812" y="-345.5" font-family="FreeSans" font-size="10.00" fill="#000000">VolumeGroup</text>
</a>
</g>
</g>
<!-- Node2&#45;&gt;Node5 -->
<g id="edge4" class="edge">
<title>Node2&#45;&gt;Node5</title>
<path fill="none" stroke="#191970" d="M179.0934,-294.8399C200.2986,-306.4626 241.229,-327.0537 279,-335.5 433.2857,-370.001 618.8647,-366.9322 725.362,-361.0615"/>
<polygon fill="#191970" stroke="#191970" points="725.634,-364.5518 735.4176,-360.4858 725.2339,-357.5632 725.634,-364.5518"/>
</g>
<!-- Node8 -->
<g id="node8" class="node">
<title>Node8</title>
<g id="a_node8"><a xlink:href="../../dd/d0b/classEicNamePatternHub.html#abe35bc0e1b9b51fa1f2c0c45bcf78dec" target="_top" xlink:title="EicNamePatternHub::\lAddPatternMatch">
<polygon fill="none" stroke="#000000" points="305,-293.5 305,-325.5 428,-325.5 428,-293.5 305,-293.5"/>
<text text-anchor="start" x="313" y="-312.5" font-family="FreeSans" font-size="10.00" fill="#000000">EicNamePatternHub::</text>
<text text-anchor="middle" x="366.5" y="-300.5" font-family="FreeSans" font-size="10.00" fill="#000000">AddPatternMatch</text>
</a>
</g>
</g>
<!-- Node2&#45;&gt;Node8 -->
<g id="edge8" class="edge">
<title>Node2&#45;&gt;Node8</title>
<path fill="none" stroke="#191970" d="M179.0273,-288.1541C203.0631,-290.8909 252.6394,-296.5357 294.775,-301.3333"/>
<polygon fill="#191970" stroke="#191970" points="294.4167,-304.815 304.7485,-302.4689 295.2086,-297.86 294.4167,-304.815"/>
</g>
<!-- Node9 -->
<g id="node9" class="node">
<title>Node9</title>
<g id="a_node9"><a xlink:href="../../df/de0/classEicGeoParData.html#a0a19d07a4f67c4a5cb0884a9992f44d7" target="_top" xlink:title="EicGeoParData::CreateNewMap">
<polygon fill="none" stroke="#000000" points="279,-254.5 279,-274.5 454,-274.5 454,-254.5 279,-254.5"/>
<text text-anchor="middle" x="366.5" y="-261.5" font-family="FreeSans" font-size="10.00" fill="#000000">EicGeoParData::CreateNewMap</text>
</a>
</g>
</g>
<!-- Node2&#45;&gt;Node9 -->
<g id="edge9" class="edge">
<title>Node2&#45;&gt;Node9</title>
<path fill="none" stroke="#191970" d="M179.0273,-284.9178C198.2114,-282.8285 233.6656,-278.9671 268.6208,-275.1601"/>
<polygon fill="#191970" stroke="#191970" points="269.3795,-278.5983 278.9417,-274.0361 268.6215,-271.6394 269.3795,-278.5983"/>
</g>
<!-- Node10 -->
<g id="node10" class="node">
<title>Node10</title>
<g id="a_node10"><a xlink:href="../../df/de8/cemc_8C.html#adf5c804dfce7a70e36dda02995fad481" target="_top" xlink:title="exit">
<polygon fill="none" stroke="#000000" points="349,-215.5 349,-235.5 384,-235.5 384,-215.5 349,-215.5"/>
<text text-anchor="middle" x="366.5" y="-222.5" font-family="FreeSans" font-size="10.00" fill="#000000">exit</text>
</a>
</g>
</g>
<!-- Node2&#45;&gt;Node10 -->
<g id="edge10" class="edge">
<title>Node2&#45;&gt;Node10</title>
<path fill="none" stroke="#191970" d="M179.1369,-280.6234C200.7326,-272.0989 242.5194,-256.1595 279,-245.5 298.8184,-239.7091 321.5618,-234.555 338.8933,-230.9297"/>
<polygon fill="#191970" stroke="#191970" points="339.8163,-234.3134 348.9106,-228.8781 338.4117,-227.4558 339.8163,-234.3134"/>
</g>
<!-- Node11 -->
<g id="node11" class="node">
<title>Node11</title>
<g id="a_node11"><a xlink:href="../../df/de0/classEicGeoParData.html#a5464c1947d87d36569891ada6aafb22c" target="_top" xlink:title="EicGeoParData::FinalizeOutput">
<polygon fill="none" stroke="#000000" points="281,-137.5 281,-157.5 452,-157.5 452,-137.5 281,-137.5"/>
<text text-anchor="middle" x="366.5" y="-144.5" font-family="FreeSans" font-size="10.00" fill="#000000">EicGeoParData::FinalizeOutput</text>
</a>
</g>
</g>
<!-- Node2&#45;&gt;Node11 -->
<g id="edge11" class="edge">
<title>Node2&#45;&gt;Node11</title>
<path fill="none" stroke="#191970" d="M171.8415,-276.2643C188.3736,-253.9688 230.858,-200.7561 279,-172.5 287.0049,-167.8017 295.944,-163.9432 304.9669,-160.7864"/>
<polygon fill="#191970" stroke="#191970" points="306.3082,-164.0314 314.7504,-157.6299 304.1588,-157.3695 306.3082,-164.0314"/>
</g>
<!-- Node12 -->
<g id="node12" class="node">
<title>Node12</title>
<g id="a_node12"><a xlink:href="../../df/de0/classEicGeoParData.html#a98e43e3d66fdb531cabaccd39f09ebc3" target="_top" xlink:title="EicGeoParData::GetColorTable">
<polygon fill="none" stroke="#000000" points="497.5,-278.5 497.5,-298.5 666.5,-298.5 666.5,-278.5 497.5,-278.5"/>
<text text-anchor="middle" x="582" y="-285.5" font-family="FreeSans" font-size="10.00" fill="#000000">EicGeoParData::GetColorTable</text>
</a>
</g>
</g>
<!-- Node2&#45;&gt;Node12 -->
<g id="edge22" class="edge">
<title>Node2&#45;&gt;Node12</title>
<path fill="none" stroke="#191970" d="M174.3517,-276.336C192.8274,-258.0938 234.8194,-220.4053 279,-206.5 353.1899,-183.1496 386.7292,-167.4612 454,-206.5 481.8925,-222.6867 463.8974,-250.5618 490,-269.5 492.1369,-271.0504 494.3714,-272.4806 496.6826,-273.7998"/>
<polygon fill="#191970" stroke="#191970" points="495.4159,-277.0774 505.9333,-278.3561 498.5089,-270.7978 495.4159,-277.0774"/>
</g>
<!-- Node14 -->
<g id="node14" class="node">
<title>Node14</title>
<g id="a_node14"><a xlink:href="../../df/de0/classEicGeoParData.html#a75991633a97d0a9b3140ba103f225691" target="_top" xlink:title="EicGeoParData::GetTransparency\lTable">
<polygon fill="none" stroke="#000000" points="490,-86.5 490,-118.5 674,-118.5 674,-86.5 490,-86.5"/>
<text text-anchor="start" x="498" y="-105.5" font-family="FreeSans" font-size="10.00" fill="#000000">EicGeoParData::GetTransparency</text>
<text text-anchor="middle" x="582" y="-93.5" font-family="FreeSans" font-size="10.00" fill="#000000">Table</text>
</a>
</g>
</g>
<!-- Node2&#45;&gt;Node14 -->
<g id="edge27" class="edge">
<title>Node2&#45;&gt;Node14</title>
<path fill="none" stroke="#191970" d="M170.448,-276.1274C189.1844,-243.8454 247.5953,-146.2586 279,-128.5 339.4046,-94.3427 417.6524,-88.4054 479.4995,-90.7149"/>
<polygon fill="#191970" stroke="#191970" points="479.5226,-94.2194 489.6702,-91.1738 479.8382,-87.2265 479.5226,-94.2194"/>
</g>
<!-- Node22 -->
<g id="node22" class="node">
<title>Node22</title>
<g id="a_node22"><a xlink:href="../../df/de0/classEicGeoParData.html#af50661ee10308b08071f9feb1b57493b" target="_top" xlink:title="EicGeoParData::GetMedium">
<polygon fill="none" stroke="#000000" points="288.5,-51.5 288.5,-71.5 444.5,-71.5 444.5,-51.5 288.5,-51.5"/>
<text text-anchor="middle" x="366.5" y="-58.5" font-family="FreeSans" font-size="10.00" fill="#000000">EicGeoParData::GetMedium</text>
</a>
</g>
</g>
<!-- Node2&#45;&gt;Node22 -->
<g id="edge23" class="edge">
<title>Node2&#45;&gt;Node22</title>
<path fill="none" stroke="#191970" d="M171.3486,-276.4132C185.418,-255.538 218.3242,-205.9166 243,-162.5 260.482,-131.7407 252.3059,-114.7202 279,-91.5 286.8965,-84.6311 296.4433,-79.3153 306.2884,-75.2069"/>
<polygon fill="#191970" stroke="#191970" points="307.6548,-78.4322 315.7748,-71.6266 305.183,-71.8831 307.6548,-78.4322"/>
</g>
<!-- Node25 -->
<g id="node25" class="node">
<title>Node25</title>
<g id="a_node25"><a xlink:href="../../df/de0/classEicGeoParData.html#a37c307a8b444e89fd125f6d273a1c894" target="_top" xlink:title="EicGeoParData::GetTopVolume">
<polygon fill="none" stroke="#000000" points="281,-563.5 281,-583.5 452,-583.5 452,-563.5 281,-563.5"/>
<text text-anchor="middle" x="366.5" y="-570.5" font-family="FreeSans" font-size="10.00" fill="#000000">EicGeoParData::GetTopVolume</text>
</a>
</g>
</g>
<!-- Node2&#45;&gt;Node25 -->
<g id="edge26" class="edge">
<title>Node2&#45;&gt;Node25</title>
<path fill="none" stroke="#191970" d="M165.5647,-296.7032C170.3024,-336.6371 193.1814,-483.6092 279,-554.5 280.7528,-555.9479 282.5909,-557.2924 284.4988,-558.5405"/>
<polygon fill="#191970" stroke="#191970" points="282.8234,-561.6136 293.2635,-563.4179 286.2273,-555.4969 282.8234,-561.6136"/>
</g>
<!-- Node26 -->
<g id="node26" class="node">
<title>Node26</title>
<g id="a_node26"><a xlink:href="../../df/de0/classEicGeoParData.html#a304fa90a3bc1944d2c997257ed56b6a7" target="_top" xlink:title="EicGeoParData::SetFileName">
<polygon fill="none" stroke="#000000" points="286,-524.5 286,-544.5 447,-544.5 447,-524.5 286,-524.5"/>
<text text-anchor="middle" x="366.5" y="-531.5" font-family="FreeSans" font-size="10.00" fill="#000000">EicGeoParData::SetFileName</text>
</a>
</g>
</g>
<!-- Node2&#45;&gt;Node26 -->
<g id="edge28" class="edge">
<title>Node2&#45;&gt;Node26</title>
<path fill="none" stroke="#191970" d="M166.3591,-296.7048C173.5211,-332.9286 202.8295,-456.3244 279,-515.5 280.8452,-516.9335 282.7754,-518.2642 284.7742,-519.4992"/>
<polygon fill="#191970" stroke="#191970" points="283.4486,-522.7568 293.927,-524.323 286.7123,-516.5642 283.4486,-522.7568"/>
</g>
<!-- Node27 -->
<g id="node27" class="node">
<title>Node27</title>
<g id="a_node27"><a xlink:href="../../df/de0/classEicGeoParData.html#a85796e06ee06c2b0973409350d2c054d" target="_top" xlink:title="EicGeoParData::SetMapping\lTableEntry">
<polygon fill="none" stroke="#000000" points="287.5,-383.5 287.5,-415.5 445.5,-415.5 445.5,-383.5 287.5,-383.5"/>
<text text-anchor="start" x="295.5" y="-402.5" font-family="FreeSans" font-size="10.00" fill="#000000">EicGeoParData::SetMapping</text>
<text text-anchor="middle" x="366.5" y="-390.5" font-family="FreeSans" font-size="10.00" fill="#000000">TableEntry</text>
</a>
</g>
</g>
<!-- Node2&#45;&gt;Node27 -->
<g id="edge29" class="edge">
<title>Node2&#45;&gt;Node27</title>
<path fill="none" stroke="#191970" d="M176.1362,-296.5497C196.0539,-313.343 238.4655,-347.3464 279,-368.5 286.9743,-372.6615 295.6305,-376.4819 304.2923,-379.9122"/>
<polygon fill="#191970" stroke="#191970" points="303.0705,-383.1921 313.6614,-383.4789 305.561,-376.6501 303.0705,-383.1921"/>
</g>
<!-- Node33 -->
<g id="node33" class="node">
<title>Node33</title>
<g id="a_node33"><a xlink:href="../../da/d86/classEicGeoMap.html#a77e724ceee76044c2346a4b35be1f90e" target="_top" xlink:title="EicGeoMap::SetSingleSensor\lContainerVolume">
<polygon fill="none" stroke="#000000" points="285,-473.5 285,-505.5 448,-505.5 448,-473.5 285,-473.5"/>
<text text-anchor="start" x="293" y="-492.5" font-family="FreeSans" font-size="10.00" fill="#000000">EicGeoMap::SetSingleSensor</text>
<text text-anchor="middle" x="366.5" y="-480.5" font-family="FreeSans" font-size="10.00" fill="#000000">ContainerVolume</text>
</a>
</g>
</g>
<!-- Node2&#45;&gt;Node33 -->
<g id="edge41" class="edge">
<title>Node2&#45;&gt;Node33</title>
<path fill="none" stroke="#191970" d="M168.5066,-296.6794C180.5972,-326.1182 219.5794,-412.1949 279,-458.5 284.0888,-462.4656 289.7257,-465.949 295.6148,-469.004"/>
<polygon fill="#191970" stroke="#191970" points="294.498,-472.3475 305.0342,-473.4599 297.4914,-466.0198 294.498,-472.3475"/>
</g>
<!-- Node4 -->
<g id="node4" class="node">
<title>Node4</title>
<g id="a_node4"><a xlink:href="../../da/d23/msg__buffer_8cc.html#a98631211a4a8aee62f572375d5b637be" target="_top" xlink:title="printf">
<polygon fill="none" stroke="#000000" points="994.5,-467.5 994.5,-487.5 1038.5,-487.5 1038.5,-467.5 994.5,-467.5"/>
<text text-anchor="middle" x="1016.5" y="-474.5" font-family="FreeSans" font-size="10.00" fill="#000000">printf</text>
</a>
</g>
</g>
<!-- Node3&#45;&gt;Node4 -->
<g id="edge3" class="edge">
<title>Node3&#45;&gt;Node4</title>
<path fill="none" stroke="#191970" d="M666.0969,-606.8944C735.4691,-608.894 834.972,-604.0629 914,-569.5 951.5213,-553.09 984.7145,-517.4604 1002.5773,-495.6719"/>
<polygon fill="#191970" stroke="#191970" points="1005.3538,-497.8038 1008.8546,-487.804 999.882,-493.4381 1005.3538,-497.8038"/>
</g>
<!-- Node5&#45;&gt;Node4 -->
<g id="edge5" class="edge">
<title>Node5&#45;&gt;Node4</title>
<path fill="none" stroke="#191970" d="M888.5629,-366.4643C897.6946,-370.0104 906.4423,-374.5899 914,-380.5 940.6288,-401.3236 925.2836,-424.4388 950,-447.5 959.7671,-456.613 972.7736,-463.3091 984.6926,-468.033"/>
<polygon fill="#191970" stroke="#191970" points="983.7597,-471.418 994.3537,-471.547 986.1524,-464.8396 983.7597,-471.418"/>
</g>
<!-- Node6 -->
<g id="node6" class="node">
<title>Node6</title>
<g id="a_node6"><a xlink:href="../../dd/d20/classEicBitMask.html#a23ae6782cbc30f5fe572692893d5e3bf" target="_top" xlink:title="EicBitMask::SetShift">
<polygon fill="none" stroke="#000000" points="958,-417.5 958,-437.5 1075,-437.5 1075,-417.5 958,-417.5"/>
<text text-anchor="middle" x="1016.5" y="-424.5" font-family="FreeSans" font-size="10.00" fill="#000000">EicBitMask::SetShift</text>
</a>
</g>
</g>
<!-- Node5&#45;&gt;Node6 -->
<g id="edge6" class="edge">
<title>Node5&#45;&gt;Node6</title>
<path fill="none" stroke="#191970" d="M881.9109,-370.5344C892.7519,-373.5326 903.7482,-376.8763 914,-380.5 939.8133,-389.6241 968.0131,-402.8059 988.2884,-412.889"/>
<polygon fill="#191970" stroke="#191970" points="986.7784,-416.0473 997.2842,-417.4181 989.9262,-409.795 986.7784,-416.0473"/>
</g>
<!-- Node7 -->
<g id="node7" class="node">
<title>Node7</title>
<g id="a_node7"><a xlink:href="../../dd/d20/classEicBitMask.html#a577897e58c312fcaa8722bea72257e26" target="_top" xlink:title="EicBitMask::GetBitNum">
<polygon fill="none" stroke="#000000" points="950,-356.5 950,-376.5 1083,-376.5 1083,-356.5 950,-356.5"/>
<text text-anchor="middle" x="1016.5" y="-363.5" font-family="FreeSans" font-size="10.00" fill="#000000">EicBitMask::GetBitNum</text>
</a>
</g>
</g>
<!-- Node5&#45;&gt;Node7 -->
<g id="edge7" class="edge">
<title>Node5&#45;&gt;Node7</title>
<path fill="none" stroke="#191970" d="M888.7301,-359.0025C905.3426,-359.9773 922.9152,-361.0085 939.5366,-361.9838"/>
<polygon fill="#191970" stroke="#191970" points="939.5579,-365.491 949.7458,-362.5829 939.968,-358.503 939.5579,-365.491"/>
</g>
<!-- Node11&#45;&gt;Node12 -->
<g id="edge12" class="edge">
<title>Node11&#45;&gt;Node12</title>
<path fill="none" stroke="#191970" d="M429.1534,-157.5221C438.258,-161.1066 446.9279,-165.953 454,-172.5 487.7446,-203.7389 455.1133,-239.5419 490,-269.5 491.5312,-270.8149 493.1293,-272.047 494.7844,-273.2014"/>
<polygon fill="#191970" stroke="#191970" points="493.0979,-276.2702 503.4871,-278.3476 496.6609,-270.2449 493.0979,-276.2702"/>
</g>
<!-- Node13 -->
<g id="node13" class="node">
<title>Node13</title>
<g id="a_node13"><a xlink:href="../../dd/d0b/classEicNamePatternHub.html#a8baac9dd7e44ee789555cb040763f903" target="_top" xlink:title="EicNamePatternHub::\lAnyMatch">
<polygon fill="none" stroke="#000000" points="520.5,-227.5 520.5,-259.5 643.5,-259.5 643.5,-227.5 520.5,-227.5"/>
<text text-anchor="start" x="528.5" y="-246.5" font-family="FreeSans" font-size="10.00" fill="#000000">EicNamePatternHub::</text>
<text text-anchor="middle" x="582" y="-234.5" font-family="FreeSans" font-size="10.00" fill="#000000">AnyMatch</text>
</a>
</g>
</g>
<!-- Node11&#45;&gt;Node13 -->
<g id="edge13" class="edge">
<title>Node11&#45;&gt;Node13</title>
<path fill="none" stroke="#191970" d="M421.5877,-157.541C432.8991,-161.1276 444.3018,-165.971 454,-172.5 475.5355,-186.9981 468.3709,-204.1418 490,-218.5 496.257,-222.6537 503.1863,-226.1203 510.3529,-229.0129"/>
<polygon fill="#191970" stroke="#191970" points="509.6378,-232.4774 520.2318,-232.6123 512.0342,-225.9003 509.6378,-232.4774"/>
</g>
<!-- Node11&#45;&gt;Node14 -->
<g id="edge14" class="edge">
<title>Node11&#45;&gt;Node14</title>
<path fill="none" stroke="#191970" d="M414.5942,-137.4571C438.3475,-132.497 467.7488,-126.3576 495.2512,-120.6146"/>
<polygon fill="#191970" stroke="#191970" points="496.2103,-123.9899 505.2837,-118.5196 494.7794,-117.1377 496.2103,-123.9899"/>
</g>
<!-- Node15 -->
<g id="node15" class="node">
<title>Node15</title>
<g id="a_node15"><a xlink:href="../../df/de0/classEicGeoParData.html#a24162311dd8c038e330afbee7a132352" target="_top" xlink:title="EicGeoParData::GetGeometry\lFileName">
<polygon fill="none" stroke="#000000" points="499,-176.5 499,-208.5 665,-208.5 665,-176.5 499,-176.5"/>
<text text-anchor="start" x="507" y="-195.5" font-family="FreeSans" font-size="10.00" fill="#000000">EicGeoParData::GetGeometry</text>
<text text-anchor="middle" x="582" y="-183.5" font-family="FreeSans" font-size="10.00" fill="#000000">FileName</text>
</a>
</g>
</g>
<!-- Node11&#45;&gt;Node15 -->
<g id="edge15" class="edge">
<title>Node11&#45;&gt;Node15</title>
<path fill="none" stroke="#191970" d="M414.5942,-157.5429C438.3475,-162.503 467.7488,-168.6424 495.2512,-174.3854"/>
<polygon fill="#191970" stroke="#191970" points="494.7794,-177.8623 505.2837,-176.4804 496.2103,-171.0101 494.7794,-177.8623"/>
</g>
<!-- Node21 -->
<g id="node21" class="node">
<title>Node21</title>
<g id="a_node21"><a xlink:href="../../d0/d2f/classEicDetName.html#aef29cb1ffe2ea071a03f4aa098408595" target="_top" xlink:title="EicDetName::Name">
<polygon fill="none" stroke="#000000" points="524.5,-137.5 524.5,-157.5 639.5,-157.5 639.5,-137.5 524.5,-137.5"/>
<text text-anchor="middle" x="582" y="-144.5" font-family="FreeSans" font-size="10.00" fill="#000000">EicDetName::Name</text>
</a>
</g>
</g>
<!-- Node11&#45;&gt;Node21 -->
<g id="edge21" class="edge">
<title>Node11&#45;&gt;Node21</title>
<path fill="none" stroke="#191970" d="M452.2905,-147.5C472.8807,-147.5 494.5881,-147.5 514.23,-147.5"/>
<polygon fill="#191970" stroke="#191970" points="514.2965,-151.0001 524.2964,-147.5 514.2964,-144.0001 514.2965,-151.0001"/>
</g>
<!-- Node16 -->
<g id="node16" class="node">
<title>Node16</title>
<g id="a_node16"><a xlink:href="../../df/de0/classEicGeoParData.html#a27907f2aba8817ceb2d97e1a29ecaf40" target="_top" xlink:title="EicGeoParData::GetVersion">
<polygon fill="none" stroke="#000000" points="735.5,-221.5 735.5,-241.5 888.5,-241.5 888.5,-221.5 735.5,-221.5"/>
<text text-anchor="middle" x="812" y="-228.5" font-family="FreeSans" font-size="10.00" fill="#000000">EicGeoParData::GetVersion</text>
</a>
</g>
</g>
<!-- Node15&#45;&gt;Node16 -->
<g id="edge16" class="edge">
<title>Node15&#45;&gt;Node16</title>
<path fill="none" stroke="#191970" d="M665.0353,-206.5799C690.594,-210.9138 718.441,-215.6356 742.9539,-219.7922"/>
<polygon fill="#191970" stroke="#191970" points="742.4369,-223.2544 752.8813,-221.4755 743.6072,-216.3529 742.4369,-223.2544"/>
</g>
<!-- Node17 -->
<g id="node17" class="node">
<title>Node17</title>
<g id="a_node17"><a xlink:href="../../df/de0/classEicGeoParData.html#ae6acf5e5d790c629031c2d7cf12718ef" target="_top" xlink:title="EicGeoParData::GetSubVersion">
<polygon fill="none" stroke="#000000" points="726,-182.5 726,-202.5 898,-202.5 898,-182.5 726,-182.5"/>
<text text-anchor="middle" x="812" y="-189.5" font-family="FreeSans" font-size="10.00" fill="#000000">EicGeoParData::GetSubVersion</text>
</a>
</g>
</g>
<!-- Node15&#45;&gt;Node17 -->
<g id="edge17" class="edge">
<title>Node15&#45;&gt;Node17</title>
<path fill="none" stroke="#191970" d="M665.0353,-192.5C681.4451,-192.5 698.7983,-192.5 715.6066,-192.5"/>
<polygon fill="#191970" stroke="#191970" points="715.9885,-196.0001 725.9885,-192.5 715.9885,-189.0001 715.9885,-196.0001"/>
</g>
<!-- Node18 -->
<g id="node18" class="node">
<title>Node18</title>
<g id="a_node18"><a xlink:href="../../df/de0/classEicGeoParData.html#a09fe5b3481f26b4a771cb7c476d64a1f" target="_top" xlink:title="EicGeoParData::IsTestGeometry">
<polygon fill="none" stroke="#000000" points="724,-143.5 724,-163.5 900,-163.5 900,-143.5 724,-143.5"/>
<text text-anchor="middle" x="812" y="-150.5" font-family="FreeSans" font-size="10.00" fill="#000000">EicGeoParData::IsTestGeometry</text>
</a>
</g>
</g>
<!-- Node15&#45;&gt;Node18 -->
<g id="edge18" class="edge">
<title>Node15&#45;&gt;Node18</title>
<path fill="none" stroke="#191970" d="M665.0353,-178.4201C690.594,-174.0862 718.441,-169.3644 742.9539,-165.2078"/>
<polygon fill="#191970" stroke="#191970" points="743.6072,-168.6471 752.8813,-163.5245 742.4369,-161.7456 743.6072,-168.6471"/>
</g>
<!-- Node19 -->
<g id="node19" class="node">
<title>Node19</title>
<g id="a_node19"><a xlink:href="../../d0/d2f/classEicDetName.html#afac87377442f69796e0e335e81b96067" target="_top" xlink:title="EicDetName::name">
<polygon fill="none" stroke="#000000" points="755,-104.5 755,-124.5 869,-124.5 869,-104.5 755,-104.5"/>
<text text-anchor="middle" x="812" y="-111.5" font-family="FreeSans" font-size="10.00" fill="#000000">EicDetName::name</text>
</a>
</g>
</g>
<!-- Node15&#45;&gt;Node19 -->
<g id="edge19" class="edge">
<title>Node15&#45;&gt;Node19</title>
<path fill="none" stroke="#191970" d="M654.62,-176.3312C661.3446,-173.782 667.9116,-170.855 674,-167.5 693.01,-157.0248 690.6267,-144.287 710,-134.5 720.7589,-129.0648 732.8476,-125.1043 744.8397,-122.219"/>
<polygon fill="#191970" stroke="#191970" points="745.8316,-125.5852 754.859,-120.0395 744.3436,-118.7452 745.8316,-125.5852"/>
</g>
<!-- Node20 -->
<g id="node20" class="node">
<title>Node20</title>
<g id="a_node20"><a xlink:href="../../df/de0/classEicGeoParData.html#a7f5db7c4ddc258264f0258a6d8d946b6" target="_top" xlink:title="EicGeoParData::GetGeometryType">
<polygon fill="none" stroke="#000000" points="717.5,-260.5 717.5,-280.5 906.5,-280.5 906.5,-260.5 717.5,-260.5"/>
<text text-anchor="middle" x="812" y="-267.5" font-family="FreeSans" font-size="10.00" fill="#000000">EicGeoParData::GetGeometryType</text>
</a>
</g>
</g>
<!-- Node15&#45;&gt;Node20 -->
<g id="edge20" class="edge">
<title>Node15&#45;&gt;Node20</title>
<path fill="none" stroke="#191970" d="M652.2121,-208.5957C659.7742,-211.4201 667.1868,-214.7007 674,-218.5 692.9569,-229.071 690.5806,-241.8047 710,-251.5 714.306,-253.6498 718.8243,-255.5578 723.4636,-257.2511"/>
<polygon fill="#191970" stroke="#191970" points="722.5341,-260.6299 733.1272,-260.434 724.724,-253.9813 722.5341,-260.6299"/>
</g>
<!-- Node23 -->
<g id="node23" class="node">
<title>Node23</title>
<g id="a_node23"><a xlink:href="../../d9/d1e/classFairGeoMedia.html#a0dc27e89d61b8ff40498a48e39b2a2c0" target="_top" xlink:title="FairGeoMedia::getMedium">
<polygon fill="none" stroke="#000000" points="507.5,-8.5 507.5,-28.5 656.5,-28.5 656.5,-8.5 507.5,-8.5"/>
<text text-anchor="middle" x="582" y="-15.5" font-family="FreeSans" font-size="10.00" fill="#000000">FairGeoMedia::getMedium</text>
</a>
</g>
</g>
<!-- Node22&#45;&gt;Node23 -->
<g id="edge24" class="edge">
<title>Node22&#45;&gt;Node23</title>
<path fill="none" stroke="#191970" d="M416.7532,-51.4727C448.0872,-45.2204 488.5954,-37.1376 521.6623,-30.5395"/>
<polygon fill="#191970" stroke="#191970" points="522.5454,-33.9324 531.6672,-28.5432 521.1756,-27.0677 522.5454,-33.9324"/>
</g>
<!-- Node24 -->
<g id="node24" class="node">
<title>Node24</title>
<g id="a_node24"><a xlink:href="../../de/d6a/classFairGeoBuilder.html#a852b0d5861a7a6c1033aab59417d1c79" target="_top" xlink:title="FairGeoBuilder::createMedium">
<polygon fill="none" stroke="#000000" points="497.5,-47.5 497.5,-67.5 666.5,-67.5 666.5,-47.5 497.5,-47.5"/>
<text text-anchor="middle" x="582" y="-54.5" font-family="FreeSans" font-size="10.00" fill="#000000">FairGeoBuilder::createMedium</text>
</a>
</g>
</g>
<!-- Node22&#45;&gt;Node24 -->
<g id="edge25" class="edge">
<title>Node22&#45;&gt;Node24</title>
<path fill="none" stroke="#191970" d="M444.6051,-60.0503C458.3689,-59.7948 472.8324,-59.5263 486.9979,-59.2634"/>
<polygon fill="#191970" stroke="#191970" points="487.3123,-62.7582 497.2455,-59.0732 487.1823,-55.7594 487.3123,-62.7582"/>
</g>
<!-- Node27&#45;&gt;Node4 -->
<g id="edge30" class="edge">
<title>Node27&#45;&gt;Node4</title>
<path fill="none" stroke="#191970" d="M445.5756,-415.4647C448.5424,-417.2708 451.3681,-419.2755 454,-421.5 484.3982,-447.1933 458.3867,-479.3175 490,-503.5 568.5304,-563.5715 611.4022,-529.1463 710,-536.5 800.4155,-543.2434 826.4074,-559.9091 914,-536.5 944.7914,-528.271 975.9275,-508.3292 995.6693,-493.9042"/>
<polygon fill="#191970" stroke="#191970" points="998.0012,-496.5302 1003.896,-487.7267 993.7978,-490.9327 998.0012,-496.5302"/>
</g>
<!-- Node28 -->
<g id="node28" class="node">
<title>Node28</title>
<g id="a_node28"><a xlink:href="../../dd/d20/classEicBitMask.html#aba6083955032532d7dfc95069338dd27" target="_top" xlink:title="EicBitMask::GetBitMask">
<polygon fill="none" stroke="#000000" points="514.5,-383.5 514.5,-403.5 649.5,-403.5 649.5,-383.5 514.5,-383.5"/>
<text text-anchor="middle" x="582" y="-390.5" font-family="FreeSans" font-size="10.00" fill="#000000">EicBitMask::GetBitMask</text>
</a>
</g>
</g>
<!-- Node27&#45;&gt;Node28 -->
<g id="edge31" class="edge">
<title>Node27&#45;&gt;Node28</title>
<path fill="none" stroke="#191970" d="M445.5206,-397.2999C464.6635,-396.7669 485.1115,-396.1976 504.1978,-395.6662"/>
<polygon fill="#191970" stroke="#191970" points="504.4424,-399.1608 514.3411,-395.3838 504.2475,-392.1635 504.4424,-399.1608"/>
</g>
<!-- Node29 -->
<g id="node29" class="node">
<title>Node29</title>
<g id="a_node29"><a xlink:href="../../dd/d20/classEicBitMask.html#a862ce5875cf47f78ff18aaed935966d9" target="_top" xlink:title="EicBitMask::GetShift">
<polygon fill="none" stroke="#000000" points="752.5,-389.5 752.5,-409.5 871.5,-409.5 871.5,-389.5 752.5,-389.5"/>
<text text-anchor="middle" x="812" y="-396.5" font-family="FreeSans" font-size="10.00" fill="#000000">EicBitMask::GetShift</text>
</a>
</g>
</g>
<!-- Node27&#45;&gt;Node29 -->
<g id="edge32" class="edge">
<title>Node27&#45;&gt;Node29</title>
<path fill="none" stroke="#191970" d="M445.778,-409.8261C460.4562,-411.3569 475.6733,-412.6906 490,-413.5 571.6476,-418.113 592.3267,-417.6322 674,-413.5 696.2158,-412.376 720.3663,-410.2404 742.1631,-407.9696"/>
<polygon fill="#191970" stroke="#191970" points="742.7533,-411.4265 752.3249,-406.884 742.0097,-404.4661 742.7533,-411.4265"/>
</g>
<!-- Node30 -->
<g id="node30" class="node">
<title>Node30</title>
<g id="a_node30"><a xlink:href="../../da/d86/classEicGeoMap.html#a9c17af03744fe42ae8daf66f9bda7f06" target="_top" xlink:title="EicGeoMap::SetMappingTable\lEntry">
<polygon fill="none" stroke="#000000" points="499,-461.5 499,-493.5 665,-493.5 665,-461.5 499,-461.5"/>
<text text-anchor="start" x="507" y="-480.5" font-family="FreeSans" font-size="10.00" fill="#000000">EicGeoMap::SetMappingTable</text>
<text text-anchor="middle" x="582" y="-468.5" font-family="FreeSans" font-size="10.00" fill="#000000">Entry</text>
</a>
</g>
</g>
<!-- Node27&#45;&gt;Node30 -->
<g id="edge33" class="edge">
<title>Node27&#45;&gt;Node30</title>
<path fill="none" stroke="#191970" d="M413.9782,-415.565C427.0263,-420.1847 441.1255,-425.3674 454,-430.5 470.2642,-436.984 473.6861,-440.1421 490,-446.5 500.2199,-450.483 511.1892,-454.4442 521.8663,-458.1374"/>
<polygon fill="#191970" stroke="#191970" points="520.9654,-461.5281 531.5599,-461.4467 523.227,-454.9035 520.9654,-461.5281"/>
</g>
<!-- Node30&#45;&gt;Node4 -->
<g id="edge34" class="edge">
<title>Node30&#45;&gt;Node4</title>
<path fill="none" stroke="#191970" d="M665.0052,-477.5C761.8371,-477.5 917.1872,-477.5 984.11,-477.5"/>
<polygon fill="#191970" stroke="#191970" points="984.4393,-481.0001 994.4393,-477.5 984.4393,-474.0001 984.4393,-481.0001"/>
</g>
<!-- Node30&#45;&gt;Node29 -->
<g id="edge40" class="edge">
<title>Node30&#45;&gt;Node29</title>
<path fill="none" stroke="#191970" d="M639.1306,-461.4057C650.951,-457.21 663.1108,-452.228 674,-446.5 691.7004,-437.189 691.7265,-427.6289 710,-419.5 720.2018,-414.9617 731.4307,-411.4489 742.5944,-408.7309"/>
<polygon fill="#191970" stroke="#191970" points="743.3685,-412.1443 752.3605,-406.5412 741.837,-405.3139 743.3685,-412.1443"/>
</g>
<!-- Node31 -->
<g id="node31" class="node">
<title>Node31</title>
<g id="a_node31"><a xlink:href="../../da/d86/classEicGeoMap.html#ad01497111125dccc306dac986d6d10e1" target="_top" xlink:title="EicGeoMap::CalculateBitPattern">
<polygon fill="none" stroke="#000000" points="724,-428.5 724,-448.5 900,-448.5 900,-428.5 724,-428.5"/>
<text text-anchor="middle" x="812" y="-435.5" font-family="FreeSans" font-size="10.00" fill="#000000">EicGeoMap::CalculateBitPattern</text>
</a>
</g>
</g>
<!-- Node30&#45;&gt;Node31 -->
<g id="edge35" class="edge">
<title>Node30&#45;&gt;Node31</title>
<path fill="none" stroke="#191970" d="M665.0353,-463.4201C690.594,-459.0862 718.441,-454.3644 742.9539,-450.2078"/>
<polygon fill="#191970" stroke="#191970" points="743.6072,-453.6471 752.8813,-448.5245 742.4369,-446.7456 743.6072,-453.6471"/>
</g>
<!-- Node32 -->
<g id="node32" class="node">
<title>Node32</title>
<g id="a_node32"><a xlink:href="../../d1/d24/classGeantVolumeLevel.html#a4aba5288354c7287b6fc03cd9d30b2a2" target="_top" xlink:title="GeantVolumeLevel::GetVolumeName">
<polygon fill="none" stroke="#000000" points="710,-506.5 710,-526.5 914,-526.5 914,-506.5 710,-506.5"/>
<text text-anchor="middle" x="812" y="-513.5" font-family="FreeSans" font-size="10.00" fill="#000000">GeantVolumeLevel::GetVolumeName</text>
</a>
</g>
</g>
<!-- Node30&#45;&gt;Node32 -->
<g id="edge39" class="edge">
<title>Node30&#45;&gt;Node32</title>
<path fill="none" stroke="#191970" d="M665.0353,-491.5799C690.594,-495.9138 718.441,-500.6356 742.9539,-504.7922"/>
<polygon fill="#191970" stroke="#191970" points="742.4369,-508.2544 752.8813,-506.4755 743.6072,-501.3529 742.4369,-508.2544"/>
</g>
<!-- Node31&#45;&gt;Node4 -->
<g id="edge38" class="edge">
<title>Node31&#45;&gt;Node4</title>
<path fill="none" stroke="#191970" d="M864.6638,-448.5435C902.409,-455.7418 952.0489,-465.2086 984.1169,-471.3243"/>
<polygon fill="#191970" stroke="#191970" points="983.7973,-474.8263 994.276,-473.2617 985.1087,-467.9502 983.7973,-474.8263"/>
</g>
<!-- Node31&#45;&gt;Node6 -->
<g id="edge36" class="edge">
<title>Node31&#45;&gt;Node6</title>
<path fill="none" stroke="#191970" d="M900.2102,-433.7552C916.02,-432.9048 932.2862,-432.0298 947.4582,-431.2137"/>
<polygon fill="#191970" stroke="#191970" points="947.9704,-434.6913 957.768,-430.6592 947.5944,-427.7014 947.9704,-434.6913"/>
</g>
<!-- Node31&#45;&gt;Node7 -->
<g id="edge37" class="edge">
<title>Node31&#45;&gt;Node7</title>
<path fill="none" stroke="#191970" d="M881.0237,-428.4917C892.1921,-426.0622 903.5223,-423.0969 914,-419.5 941.9333,-409.9107 971.6862,-393.7897 991.8997,-381.8398"/>
<polygon fill="#191970" stroke="#191970" points="993.71,-384.8353 1000.4749,-376.6813 990.1016,-378.837 993.71,-384.8353"/>
</g>
<!-- Node36 -->
<g id="node36" class="node">
<title>Node36</title>
<g id="a_node36"><a xlink:href="../../df/dce/classActs_1_1Logging_1_1OutputPrintPolicy.html#ab113823970013e1e7f310b36509136ac" target="_top" xlink:title="handle output of debug message">
<polygon fill="none" stroke="#000000" points="291,-.5 291,-32.5 442,-32.5 442,-.5 291,-.5"/>
<text text-anchor="start" x="299" y="-19.5" font-family="FreeSans" font-size="10.00" fill="#000000">Acts::Logging::OutputPrint</text>
<text text-anchor="middle" x="366.5" y="-7.5" font-family="FreeSans" font-size="10.00" fill="#000000">Policy::flush</text>
</a>
</g>
</g>
<!-- Node35&#45;&gt;Node36 -->
<g id="edge44" class="edge">
<title>Node35&#45;&gt;Node36</title>
<path fill="none" stroke="#191970" d="M215.808,-96.0661C225.2887,-93.336 234.7802,-89.6034 243,-84.5 264.1752,-71.353 258.0976,-55.0765 279,-41.5 281.5671,-39.8326 284.2468,-38.2745 287.0073,-36.8185"/>
<polygon fill="#191970" stroke="#191970" points="288.5361,-39.9672 296.06,-32.5078 285.5266,-33.6471 288.5361,-39.9672"/>
</g>
</g>
</svg>
