<?xml version="1.0" encoding="UTF-8" standalone="no"?>
<!DOCTYPE svg PUBLIC "-//W3C//DTD SVG 1.1//EN"
 "http://www.w3.org/Graphics/SVG/1.1/DTD/svg11.dtd">
<!-- Generated by graphviz version 2.40.1 (20161225.0304)
 -->
<!-- Title: pytbhb Pages: 1 -->
<svg width="1646pt" height="305pt"
 viewBox="0.00 0.00 1646.00 305.00" xmlns="http://www.w3.org/2000/svg" xmlns:xlink="http://www.w3.org/1999/xlink">
<g id="graph0" class="graph" transform="scale(1 1) rotate(0) translate(4 301)">
<title>pytbhb</title>
<!-- Node1 -->
<g id="node1" class="node">
<title>Node1</title>
<polygon fill="#bfbfbf" stroke="#000000" points="0,-161.5 0,-181.5 52,-181.5 52,-161.5 0,-161.5"/>
<text text-anchor="middle" x="26" y="-168.5" font-family="FreeSans" font-size="10.00" fill="#000000">pytbhb</text>
</g>
<!-- Node2 -->
<g id="node2" class="node">
<title>Node2</title>
<g id="a_node2"><a xlink:href="../../d6/dcf/pythia6425mod_8f.html#ab37c75f11d388ab995e98e3eca29e81b" target="_top" xlink:title="pytbhg">
<polygon fill="none" stroke="#000000" points="88,-181.5 88,-201.5 139,-201.5 139,-181.5 88,-181.5"/>
<text text-anchor="middle" x="113.5" y="-188.5" font-family="FreeSans" font-size="10.00" fill="#000000">pytbhg</text>
</a>
</g>
</g>
<!-- Node1&#45;&gt;Node2 -->
<g id="edge1" class="edge">
<title>Node1&#45;&gt;Node2</title>
<path fill="none" stroke="#191970" d="M62.1234,-179.7568C70.7636,-181.7317 79.8132,-183.8002 87.8678,-185.6412"/>
<polygon fill="#191970" stroke="#191970" points="62.7814,-176.317 52.2529,-177.5007 61.2216,-183.141 62.7814,-176.317"/>
</g>
<!-- Node31 -->
<g id="node31" class="node">
<title>Node31</title>
<g id="a_node31"><a xlink:href="../../d6/dcf/pythia6425mod_8f.html#a8d44a8d8b3450950fbf946b1c29fb42d" target="_top" xlink:title="pytbhq">
<polygon fill="none" stroke="#000000" points="88,-142.5 88,-162.5 139,-162.5 139,-142.5 88,-142.5"/>
<text text-anchor="middle" x="113.5" y="-149.5" font-family="FreeSans" font-size="10.00" fill="#000000">pytbhq</text>
</a>
</g>
</g>
<!-- Node1&#45;&gt;Node31 -->
<g id="edge43" class="edge">
<title>Node1&#45;&gt;Node31</title>
<path fill="none" stroke="#191970" d="M62.1234,-163.6561C70.7636,-161.7799 79.8132,-159.8148 87.8678,-158.0658"/>
<polygon fill="#191970" stroke="#191970" points="61.2824,-160.257 52.2529,-165.7994 62.7679,-167.0976 61.2824,-160.257"/>
</g>
<!-- Node3 -->
<g id="node3" class="node">
<title>Node3</title>
<g id="a_node3"><a xlink:href="../../d6/dcf/pythia6425mod_8f.html#a8e204cdd8fb7ba8d843c00f6da2ec7e9" target="_top" xlink:title="pystbh">
<polygon fill="none" stroke="#000000" points="175,-161.5 175,-181.5 225,-181.5 225,-161.5 175,-161.5"/>
<text text-anchor="middle" x="200" y="-168.5" font-family="FreeSans" font-size="10.00" fill="#000000">pystbh</text>
</a>
</g>
</g>
<!-- Node2&#45;&gt;Node3 -->
<g id="edge2" class="edge">
<title>Node2&#45;&gt;Node3</title>
<path fill="none" stroke="#191970" d="M149.3001,-183.2225C157.9206,-181.2293 166.9483,-179.142 174.957,-177.2903"/>
<polygon fill="#191970" stroke="#191970" points="148.4073,-179.8365 139.4529,-185.4993 149.9843,-186.6566 148.4073,-179.8365"/>
</g>
<!-- Node4 -->
<g id="node4" class="node">
<title>Node4</title>
<g id="a_node4"><a xlink:href="../../d6/dcf/pythia6425mod_8f.html#a57a12a8bdfcf423e5b0ed01349b0ff46" target="_top" xlink:title="pysghg">
<polygon fill="none" stroke="#000000" points="261,-161.5 261,-181.5 314,-181.5 314,-161.5 261,-161.5"/>
<text text-anchor="middle" x="287.5" y="-168.5" font-family="FreeSans" font-size="10.00" fill="#000000">pysghg</text>
</a>
</g>
</g>
<!-- Node3&#45;&gt;Node4 -->
<g id="edge3" class="edge">
<title>Node3&#45;&gt;Node4</title>
<path fill="none" stroke="#191970" d="M235.3344,-171.5C243.8052,-171.5 252.7134,-171.5 260.7233,-171.5"/>
<polygon fill="#191970" stroke="#191970" points="235.3087,-168.0001 225.3086,-171.5 235.3086,-175.0001 235.3087,-168.0001"/>
</g>
<!-- Node5 -->
<g id="node5" class="node">
<title>Node5</title>
<g id="a_node5"><a xlink:href="../../d6/dcf/pythia6425mod_8f.html#a3ccdee32be69df9daf5605283165a012" target="_top" xlink:title="pysigh">
<polygon fill="none" stroke="#000000" points="350,-161.5 350,-181.5 399,-181.5 399,-161.5 350,-161.5"/>
<text text-anchor="middle" x="374.5" y="-168.5" font-family="FreeSans" font-size="10.00" fill="#000000">pysigh</text>
</a>
</g>
</g>
<!-- Node4&#45;&gt;Node5 -->
<g id="edge4" class="edge">
<title>Node4&#45;&gt;Node5</title>
<path fill="none" stroke="#191970" d="M324.3218,-171.5C332.9447,-171.5 341.9263,-171.5 349.8673,-171.5"/>
<polygon fill="#191970" stroke="#191970" points="324.0756,-168.0001 314.0756,-171.5 324.0756,-175.0001 324.0756,-168.0001"/>
</g>
<!-- Node6 -->
<g id="node6" class="node">
<title>Node6</title>
<g id="a_node6"><a xlink:href="../../d6/dcf/pythia6425mod_8f.html#aa9cb6f1467302508501201a0e38959d1" target="_top" xlink:title="pymaxi">
<polygon fill="none" stroke="#000000" points="435,-238.5 435,-258.5 488,-258.5 488,-238.5 435,-238.5"/>
<text text-anchor="middle" x="461.5" y="-245.5" font-family="FreeSans" font-size="10.00" fill="#000000">pymaxi</text>
</a>
</g>
</g>
<!-- Node5&#45;&gt;Node6 -->
<g id="edge5" class="edge">
<title>Node5&#45;&gt;Node6</title>
<path fill="none" stroke="#191970" d="M393.6728,-188.469C410.9568,-203.7664 435.7933,-225.7481 450.1235,-238.4311"/>
<polygon fill="#191970" stroke="#191970" points="395.6817,-185.5731 385.8737,-181.5664 391.0424,-190.815 395.6817,-185.5731"/>
</g>
<!-- Node11 -->
<g id="node11" class="node">
<title>Node11</title>
<g id="a_node11"><a xlink:href="../../d6/dcf/pythia6425mod_8f.html#a5c7e2372fde451d6f2253ef044e01364" target="_top" xlink:title="pymign">
<polygon fill="none" stroke="#000000" points="524,-200.5 524,-220.5 578,-220.5 578,-200.5 524,-200.5"/>
<text text-anchor="middle" x="551" y="-207.5" font-family="FreeSans" font-size="10.00" fill="#000000">pymign</text>
</a>
</g>
</g>
<!-- Node5&#45;&gt;Node11 -->
<g id="edge10" class="edge">
<title>Node5&#45;&gt;Node11</title>
<path fill="none" stroke="#191970" d="M409.152,-179.6136C417.603,-181.5661 426.6222,-183.628 435,-185.5 465.3593,-192.2837 500.2623,-199.7627 523.7864,-204.7565"/>
<polygon fill="#191970" stroke="#191970" points="409.7389,-176.1568 399.2066,-177.3062 408.1569,-182.9757 409.7389,-176.1568"/>
</g>
<!-- Node24 -->
<g id="node24" class="node">
<title>Node24</title>
<g id="a_node24"><a xlink:href="../../d6/dcf/pythia6425mod_8f.html#a2d74d5dd64881524212b3720af2696de" target="_top" xlink:title="pyrand">
<polygon fill="none" stroke="#000000" points="614,-122.5 614,-142.5 665,-142.5 665,-122.5 614,-122.5"/>
<text text-anchor="middle" x="639.5" y="-129.5" font-family="FreeSans" font-size="10.00" fill="#000000">pyrand</text>
</a>
</g>
</g>
<!-- Node5&#45;&gt;Node24 -->
<g id="edge42" class="edge">
<title>Node5&#45;&gt;Node24</title>
<path fill="none" stroke="#191970" d="M409.5571,-166.3407C463.5612,-158.3929 565.8565,-143.3381 613.663,-136.3024"/>
<polygon fill="#191970" stroke="#191970" points="408.8144,-162.9122 399.4306,-167.831 409.8336,-169.8376 408.8144,-162.9122"/>
</g>
<!-- Node27 -->
<g id="node27" class="node">
<title>Node27</title>
<g id="a_node27"><a xlink:href="../../d6/dcf/pythia6425mod_8f.html#a4ae1a9148440832c122abdaedf3555a7" target="_top" xlink:title="pymult">
<polygon fill="none" stroke="#000000" points="525,-161.5 525,-181.5 577,-181.5 577,-161.5 525,-161.5"/>
<text text-anchor="middle" x="551" y="-168.5" font-family="FreeSans" font-size="10.00" fill="#000000">pymult</text>
</a>
</g>
</g>
<!-- Node5&#45;&gt;Node27 -->
<g id="edge33" class="edge">
<title>Node5&#45;&gt;Node27</title>
<path fill="none" stroke="#191970" d="M409.4419,-171.5C443.448,-171.5 494.343,-171.5 524.945,-171.5"/>
<polygon fill="#191970" stroke="#191970" points="409.0416,-168.0001 399.0416,-171.5 409.0415,-175.0001 409.0416,-168.0001"/>
</g>
<!-- Node28 -->
<g id="node28" class="node">
<title>Node28</title>
<g id="a_node28"><a xlink:href="../../d6/dcf/pythia6425mod_8f.html#af1b5061d1d80462745ef6b9ab52500f2" target="_top" xlink:title="pyptmi">
<polygon fill="none" stroke="#000000" points="436,-83.5 436,-103.5 487,-103.5 487,-83.5 436,-83.5"/>
<text text-anchor="middle" x="461.5" y="-90.5" font-family="FreeSans" font-size="10.00" fill="#000000">pyptmi</text>
</a>
</g>
</g>
<!-- Node5&#45;&gt;Node28 -->
<g id="edge37" class="edge">
<title>Node5&#45;&gt;Node28</title>
<path fill="none" stroke="#191970" d="M393.6728,-154.3106C410.9568,-138.8146 435.7933,-116.5474 450.1235,-103.6996"/>
<polygon fill="#191970" stroke="#191970" points="390.983,-152.0214 385.8737,-161.3029 395.6559,-157.2334 390.983,-152.0214"/>
</g>
<!-- Node7 -->
<g id="node7" class="node">
<title>Node7</title>
<g id="a_node7"><a xlink:href="../../d6/dcf/pythia6425mod_8f.html#aac00ac3ccd923c2c3dc37e2b89a9f025" target="_top" xlink:title="pyinit">
<polygon fill="none" stroke="#000000" points="617,-238.5 617,-258.5 662,-258.5 662,-238.5 617,-238.5"/>
<text text-anchor="middle" x="639.5" y="-245.5" font-family="FreeSans" font-size="10.00" fill="#000000">pyinit</text>
</a>
</g>
</g>
<!-- Node6&#45;&gt;Node7 -->
<g id="edge6" class="edge">
<title>Node6&#45;&gt;Node7</title>
<path fill="none" stroke="#191970" d="M498.1725,-248.5C533.8734,-248.5 586.9946,-248.5 616.9075,-248.5"/>
<polygon fill="#191970" stroke="#191970" points="498.1484,-245.0001 488.1484,-248.5 498.1484,-252.0001 498.1484,-245.0001"/>
</g>
<!-- Node8 -->
<g id="node8" class="node">
<title>Node8</title>
<g id="a_node8"><a xlink:href="../../d3/dd5/jewel-2_82_80_8f.html#a2cba90a4cdaaf1d5de1cf1bfe9afaa2e" target="_top" xlink:title="initpythia">
<polygon fill="none" stroke="#000000" points="793,-276.5 793,-296.5 856,-296.5 856,-276.5 793,-276.5"/>
<text text-anchor="middle" x="824.5" y="-283.5" font-family="FreeSans" font-size="10.00" fill="#000000">initpythia</text>
</a>
</g>
</g>
<!-- Node7&#45;&gt;Node8 -->
<g id="edge7" class="edge">
<title>Node7&#45;&gt;Node8</title>
<path fill="none" stroke="#191970" d="M672.3037,-255.4886C681.5782,-257.4496 691.6826,-259.5722 701,-261.5 732.1692,-267.949 767.8023,-275.1431 792.7564,-280.1521"/>
<polygon fill="#191970" stroke="#191970" points="672.7797,-252.0118 662.2712,-253.3621 671.3281,-258.8596 672.7797,-252.0118"/>
</g>
<!-- Node10 -->
<g id="node10" class="node">
<title>Node10</title>
<g id="a_node10"><a xlink:href="../../d6/dcf/pythia6425mod_8f.html#a4cc0e611278607d6b413b5cecdfe16c3" target="_top" xlink:title="pytest">
<polygon fill="none" stroke="#000000" points="900.5,-219.5 900.5,-239.5 948.5,-239.5 948.5,-219.5 900.5,-219.5"/>
<text text-anchor="middle" x="924.5" y="-226.5" font-family="FreeSans" font-size="10.00" fill="#000000">pytest</text>
</a>
</g>
</g>
<!-- Node7&#45;&gt;Node10 -->
<g id="edge9" class="edge">
<title>Node7&#45;&gt;Node10</title>
<path fill="none" stroke="#191970" d="M672.4224,-246.3052C730.3748,-242.4417 849.2951,-234.5137 900.3461,-231.1103"/>
<polygon fill="#191970" stroke="#191970" points="672.086,-242.8197 662.341,-246.9773 672.5517,-249.8042 672.086,-242.8197"/>
</g>
<!-- Node9 -->
<g id="node9" class="node">
<title>Node9</title>
<g id="a_node9"><a xlink:href="../../d3/dd5/jewel-2_82_80_8f.html#a15e2df3184692bfe4ca2261638190094" target="_top" xlink:title="jewel">
<polygon fill="none" stroke="#000000" points="1078.5,-276.5 1078.5,-296.5 1121.5,-296.5 1121.5,-276.5 1078.5,-276.5"/>
<text text-anchor="middle" x="1100" y="-283.5" font-family="FreeSans" font-size="10.00" fill="#000000">jewel</text>
</a>
</g>
</g>
<!-- Node8&#45;&gt;Node9 -->
<g id="edge8" class="edge">
<title>Node8&#45;&gt;Node9</title>
<path fill="none" stroke="#191970" d="M866.269,-286.5C925.6794,-286.5 1032.4478,-286.5 1078.2094,-286.5"/>
<polygon fill="#191970" stroke="#191970" points="866.1034,-283.0001 856.1034,-286.5 866.1033,-290.0001 866.1034,-283.0001"/>
</g>
<!-- Node11&#45;&gt;Node7 -->
<g id="edge27" class="edge">
<title>Node11&#45;&gt;Node7</title>
<path fill="none" stroke="#191970" d="M584.0269,-224.681C594.9943,-229.3902 606.9466,-234.5223 616.9387,-238.8127"/>
<polygon fill="#191970" stroke="#191970" points="585.2861,-221.4128 574.7164,-220.6833 582.5242,-227.8449 585.2861,-221.4128"/>
</g>
<!-- Node12 -->
<g id="node12" class="node">
<title>Node12</title>
<g id="a_node12"><a xlink:href="../../d6/dcf/pythia6425mod_8f.html#ac81fa418f8cd77b0873b2de2a4140933" target="_top" xlink:title="pyevnt">
<polygon fill="none" stroke="#000000" points="798.5,-161.5 798.5,-181.5 850.5,-181.5 850.5,-161.5 798.5,-161.5"/>
<text text-anchor="middle" x="824.5" y="-168.5" font-family="FreeSans" font-size="10.00" fill="#000000">pyevnt</text>
</a>
</g>
</g>
<!-- Node11&#45;&gt;Node12 -->
<g id="edge11" class="edge">
<title>Node11&#45;&gt;Node12</title>
<path fill="none" stroke="#191970" d="M588.2529,-206.9272C629.6157,-202.74 698.2963,-195.1326 757,-185.5 770.6999,-183.252 785.8435,-180.1668 798.3095,-177.4646"/>
<polygon fill="#191970" stroke="#191970" points="587.6992,-203.465 578.0968,-207.942 588.3952,-210.4303 587.6992,-203.465"/>
</g>
<!-- Node11&#45;&gt;Node24 -->
<g id="edge28" class="edge">
<title>Node11&#45;&gt;Node24</title>
<path fill="none" stroke="#191970" d="M573.302,-194.3082C574.9092,-193.0416 576.4902,-191.7636 578,-190.5 596.9083,-174.6758 617.4853,-154.6424 629.3977,-142.7392"/>
<polygon fill="#191970" stroke="#191970" points="571.0967,-191.5882 565.2564,-200.428 575.3346,-197.1596 571.0967,-191.5882"/>
</g>
<!-- Node12&#45;&gt;Node10 -->
<g id="edge26" class="edge">
<title>Node12&#45;&gt;Node10</title>
<path fill="none" stroke="#191970" d="M850.6528,-186.6686C868.3947,-196.9589 891.3677,-210.2832 906.9454,-219.3183"/>
<polygon fill="#191970" stroke="#191970" points="852.325,-183.5924 841.9187,-181.6028 848.813,-189.6477 852.325,-183.5924"/>
</g>
<!-- Node13 -->
<g id="node13" class="node">
<title>Node13</title>
<g id="a_node13"><a xlink:href="../../d3/dd5/jewel-2_82_80_8f.html#aeb24fa7919aa21c652e9c8f2ec45cb91" target="_top" xlink:title="genevent">
<polygon fill="none" stroke="#000000" points="892,-161.5 892,-181.5 957,-181.5 957,-161.5 892,-161.5"/>
<text text-anchor="middle" x="924.5" y="-168.5" font-family="FreeSans" font-size="10.00" fill="#000000">genevent</text>
</a>
</g>
</g>
<!-- Node12&#45;&gt;Node13 -->
<g id="edge12" class="edge">
<title>Node12&#45;&gt;Node13</title>
<path fill="none" stroke="#191970" d="M860.7245,-171.5C870.8845,-171.5 881.8676,-171.5 891.8092,-171.5"/>
<polygon fill="#191970" stroke="#191970" points="860.5128,-168.0001 850.5128,-171.5 860.5127,-175.0001 860.5128,-168.0001"/>
</g>
<!-- Node13&#45;&gt;Node9 -->
<g id="edge21" class="edge">
<title>Node13&#45;&gt;Node9</title>
<path fill="none" stroke="#191970" d="M940.4863,-189.4285C945.8732,-195.6678 951.8271,-202.787 957,-209.5 974.1573,-231.7654 969.7592,-245.689 993,-261.5 1018.8673,-279.0978 1055.505,-284.4084 1078.4975,-285.9527"/>
<polygon fill="#191970" stroke="#191970" points="942.8398,-186.8034 933.6184,-181.5864 937.5737,-191.4152 942.8398,-186.8034"/>
</g>
<!-- Node14 -->
<g id="node14" class="node">
<title>Node14</title>
<g id="a_node14"><a xlink:href="../../dd/d2a/classPHHepMCGenHelper.html#ab0c755f6e53c0bf57ccd314a0017d227" target="_top" xlink:title="send HepMC::GenEvent to DST tree. This function takes ownership of evt">
<polygon fill="none" stroke="#000000" points="1022,-108.5 1022,-140.5 1178,-140.5 1178,-108.5 1022,-108.5"/>
<text text-anchor="start" x="1030" y="-127.5" font-family="FreeSans" font-size="10.00" fill="#000000">PHHepMCGenHelper::insert</text>
<text text-anchor="middle" x="1100" y="-115.5" font-family="FreeSans" font-size="10.00" fill="#000000">_event</text>
</a>
</g>
</g>
<!-- Node13&#45;&gt;Node14 -->
<g id="edge13" class="edge">
<title>Node13&#45;&gt;Node14</title>
<path fill="none" stroke="#191970" d="M963.6687,-158.3164C973.22,-155.2691 983.4404,-152.1472 993,-149.5 1004.2147,-146.3945 1016.1602,-143.3495 1027.8514,-140.5125"/>
<polygon fill="#191970" stroke="#191970" points="962.4491,-155.0323 954.0131,-161.4421 964.605,-161.6921 962.4491,-155.0323"/>
</g>
<!-- Node19 -->
<g id="node19" class="node">
<title>Node19</title>
<g id="a_node19"><a xlink:href="../../d9/d3a/classPHPythia8.html#a5cc4124cc6be2fb2467714e3d3bc5a6a" target="_top" xlink:title="PHPythia8::process\l_event">
<polygon fill="none" stroke="#000000" points="1278,-.5 1278,-32.5 1391,-32.5 1391,-.5 1278,-.5"/>
<text text-anchor="start" x="1286" y="-19.5" font-family="FreeSans" font-size="10.00" fill="#000000">PHPythia8::process</text>
<text text-anchor="middle" x="1334.5" y="-7.5" font-family="FreeSans" font-size="10.00" fill="#000000">_event</text>
</a>
</g>
</g>
<!-- Node13&#45;&gt;Node19 -->
<g id="edge24" class="edge">
<title>Node13&#45;&gt;Node19</title>
<path fill="none" stroke="#191970" d="M936.9382,-153.0516C949.2254,-136.2791 969.5445,-112.1305 993,-98.5 1083.8071,-45.73 1207.0219,-26.849 1277.9221,-20.1429"/>
<polygon fill="#191970" stroke="#191970" points="933.8827,-151.3106 930.9694,-161.4971 939.5992,-155.3507 933.8827,-151.3106"/>
</g>
<!-- Node20 -->
<g id="node20" class="node">
<title>Node20</title>
<g id="a_node20"><a xlink:href="../../da/df0/classPHSartre.html#aafe9fd92317ab1f7eee67a9354696c4e" target="_top" xlink:title="PHSartre::process_event">
<polygon fill="none" stroke="#000000" points="1264.5,-243.5 1264.5,-263.5 1404.5,-263.5 1404.5,-243.5 1264.5,-243.5"/>
<text text-anchor="middle" x="1334.5" y="-250.5" font-family="FreeSans" font-size="10.00" fill="#000000">PHSartre::process_event</text>
</a>
</g>
</g>
<!-- Node13&#45;&gt;Node20 -->
<g id="edge23" class="edge">
<title>Node13&#45;&gt;Node20</title>
<path fill="none" stroke="#191970" d="M940.106,-189.0849C952.8929,-202.1835 972.2144,-219.1821 993,-227.5 1081.6018,-262.9565 1193.3387,-264.1737 1264.3748,-260.1476"/>
<polygon fill="#191970" stroke="#191970" points="942.4282,-186.4446 933.0341,-181.5456 937.3227,-191.2336 942.4282,-186.4446"/>
</g>
<!-- Node22 -->
<g id="node22" class="node">
<title>Node22</title>
<g id="a_node22"><a xlink:href="../../d7/df5/pepsiMaineRHIC__noradcorr_8f.html#ac2ed0c0080f3e6d946824efb82e28ab5" target="_top" xlink:title="pepsimainerhic">
<polygon fill="none" stroke="#000000" points="1053,-198.5 1053,-218.5 1147,-218.5 1147,-198.5 1053,-198.5"/>
<text text-anchor="middle" x="1100" y="-205.5" font-family="FreeSans" font-size="10.00" fill="#000000">pepsimainerhic</text>
</a>
</g>
</g>
<!-- Node13&#45;&gt;Node22 -->
<g id="edge22" class="edge">
<title>Node13&#45;&gt;Node22</title>
<path fill="none" stroke="#191970" d="M967.0024,-182.4578C975.5875,-184.5555 984.5661,-186.6669 993,-188.5 1012.4826,-192.7346 1034.0796,-196.8756 1052.7393,-200.281"/>
<polygon fill="#191970" stroke="#191970" points="967.7096,-179.0273 957.1613,-180.0191 966.0258,-185.8217 967.7096,-179.0273"/>
</g>
<!-- Node23 -->
<g id="node23" class="node">
<title>Node23</title>
<g id="a_node23"><a xlink:href="../../de/d99/classFun4AllHepMCPileupInputManager.html#a81bf2b69c3c4d3aae0aadebafe1c2c2e" target="_top" xlink:title="Fun4AllHepMCPileupInputManager::run">
<polygon fill="none" stroke="#000000" points="993,-159.5 993,-179.5 1207,-179.5 1207,-159.5 993,-159.5"/>
<text text-anchor="middle" x="1100" y="-166.5" font-family="FreeSans" font-size="10.00" fill="#000000">Fun4AllHepMCPileupInputManager::run</text>
</a>
</g>
</g>
<!-- Node13&#45;&gt;Node23 -->
<g id="edge25" class="edge">
<title>Node13&#45;&gt;Node23</title>
<path fill="none" stroke="#191970" d="M967.164,-171.0138C975.1453,-170.9228 983.8098,-170.8241 992.7592,-170.7221"/>
<polygon fill="#191970" stroke="#191970" points="967.0583,-167.5147 957.0989,-171.1285 967.1382,-174.5142 967.0583,-167.5147"/>
</g>
<!-- Node15 -->
<g id="node15" class="node">
<title>Node15</title>
<g id="a_node15"><a xlink:href="../../d6/d6f/classFun4AllHepMCInputManager.html#ab6c80a8ee0701bfff5eee3ec3623015c" target="_top" xlink:title="Fun4AllHepMCInputManager::run">
<polygon fill="none" stroke="#000000" points="1243,-153.5 1243,-173.5 1426,-173.5 1426,-153.5 1243,-153.5"/>
<text text-anchor="middle" x="1334.5" y="-160.5" font-family="FreeSans" font-size="10.00" fill="#000000">Fun4AllHepMCInputManager::run</text>
</a>
</g>
</g>
<!-- Node14&#45;&gt;Node15 -->
<g id="edge14" class="edge">
<title>Node14&#45;&gt;Node15</title>
<path fill="none" stroke="#191970" d="M1188.12,-139.1554C1216.8182,-143.9282 1248.0021,-149.1144 1274.1842,-153.4688"/>
<polygon fill="#191970" stroke="#191970" points="1188.5238,-135.6745 1178.0851,-137.4864 1187.3754,-142.5797 1188.5238,-135.6745"/>
</g>
<!-- Node16 -->
<g id="node16" class="node">
<title>Node16</title>
<g id="a_node16"><a xlink:href="../../db/d1f/classFun4AllOscarInputManager.html#a1537e89c4e652f70747fbbef18ceadc4" target="_top" xlink:title="Fun4AllOscarInputManager\l::ConvertFromOscar">
<polygon fill="none" stroke="#000000" points="1257.5,-102.5 1257.5,-134.5 1411.5,-134.5 1411.5,-102.5 1257.5,-102.5"/>
<text text-anchor="start" x="1265.5" y="-121.5" font-family="FreeSans" font-size="10.00" fill="#000000">Fun4AllOscarInputManager</text>
<text text-anchor="middle" x="1334.5" y="-109.5" font-family="FreeSans" font-size="10.00" fill="#000000">::ConvertFromOscar</text>
</a>
</g>
</g>
<!-- Node14&#45;&gt;Node16 -->
<g id="edge15" class="edge">
<title>Node14&#45;&gt;Node16</title>
<path fill="none" stroke="#191970" d="M1188.3585,-122.2392C1210.9812,-121.6604 1235.1342,-121.0424 1257.155,-120.479"/>
<polygon fill="#191970" stroke="#191970" points="1187.9923,-118.7474 1178.0851,-122.5021 1188.1714,-125.7451 1187.9923,-118.7474"/>
</g>
<!-- Node18 -->
<g id="node18" class="node">
<title>Node18</title>
<g id="a_node18"><a xlink:href="../../dd/da8/classPHPythia6.html#a7a70bdd1c198a83ed143d3e2c4516d0d" target="_top" xlink:title="PHPythia6::process\l_event">
<polygon fill="none" stroke="#000000" points="1278,-51.5 1278,-83.5 1391,-83.5 1391,-51.5 1278,-51.5"/>
<text text-anchor="start" x="1286" y="-70.5" font-family="FreeSans" font-size="10.00" fill="#000000">PHPythia6::process</text>
<text text-anchor="middle" x="1334.5" y="-58.5" font-family="FreeSans" font-size="10.00" fill="#000000">_event</text>
</a>
</g>
</g>
<!-- Node14&#45;&gt;Node18 -->
<g id="edge17" class="edge">
<title>Node14&#45;&gt;Node18</title>
<path fill="none" stroke="#191970" d="M1176.0404,-106.0168C1209.1326,-97.9731 1247.2429,-88.7096 1277.7948,-81.2833"/>
<polygon fill="#191970" stroke="#191970" points="1174.8357,-102.7077 1165.9454,-108.4706 1176.4891,-109.5096 1174.8357,-102.7077"/>
</g>
<!-- Node14&#45;&gt;Node19 -->
<g id="edge18" class="edge">
<title>Node14&#45;&gt;Node19</title>
<path fill="none" stroke="#191970" d="M1139.8162,-103.5762C1160.1507,-92.6316 1185.1469,-78.7771 1207,-65.5 1223.4342,-55.5152 1225.4998,-49.4701 1243,-41.5 1253.9402,-36.5175 1266.0814,-32.3437 1277.8489,-28.9226"/>
<polygon fill="#191970" stroke="#191970" points="1137.9935,-100.5819 1130.8294,-108.3874 1141.2974,-106.7531 1137.9935,-100.5819"/>
</g>
<!-- Node14&#45;&gt;Node20 -->
<g id="edge19" class="edge">
<title>Node14&#45;&gt;Node20</title>
<path fill="none" stroke="#191970" d="M1187.7377,-137.503C1194.6754,-140.7101 1201.221,-144.655 1207,-149.5 1238.1256,-175.5955 1211.6882,-207.6283 1243,-233.5 1249.2676,-238.6786 1256.5773,-242.5973 1264.283,-245.5506"/>
<polygon fill="#191970" stroke="#191970" points="1188.6511,-134.0962 1178.0693,-133.5717 1186.0144,-140.5807 1188.6511,-134.0962"/>
</g>
<!-- Node21 -->
<g id="node21" class="node">
<title>Node21</title>
<g id="a_node21"><a xlink:href="../../d3/d49/classReadEICFiles.html#a49106bf9561329777334154092890af2" target="_top" xlink:title="ReadEICFiles::process\l_event">
<polygon fill="none" stroke="#000000" points="1271.5,-192.5 1271.5,-224.5 1397.5,-224.5 1397.5,-192.5 1271.5,-192.5"/>
<text text-anchor="start" x="1279.5" y="-211.5" font-family="FreeSans" font-size="10.00" fill="#000000">ReadEICFiles::process</text>
<text text-anchor="middle" x="1334.5" y="-199.5" font-family="FreeSans" font-size="10.00" fill="#000000">_event</text>
</a>
</g>
</g>
<!-- Node14&#45;&gt;Node21 -->
<g id="edge20" class="edge">
<title>Node14&#45;&gt;Node21</title>
<path fill="none" stroke="#191970" d="M1188.008,-141.1319C1194.5863,-143.5557 1200.9927,-146.3286 1207,-149.5 1226.1945,-159.6333 1224.0507,-171.9154 1243,-182.5 1251.7947,-187.4125 1261.5934,-191.4601 1271.4182,-194.7761"/>
<polygon fill="#191970" stroke="#191970" points="1188.8681,-137.7277 1178.2737,-137.8247 1186.6163,-144.3556 1188.8681,-137.7277"/>
</g>
<!-- Node17 -->
<g id="node17" class="node">
<title>Node17</title>
<g id="a_node17"><a xlink:href="../../db/d1f/classFun4AllOscarInputManager.html#a4be602bd8c9fe73f9dcc81c8871784a6" target="_top" xlink:title="Fun4AllOscarInputManager::run">
<polygon fill="none" stroke="#000000" points="1462,-108.5 1462,-128.5 1638,-128.5 1638,-108.5 1462,-108.5"/>
<text text-anchor="middle" x="1550" y="-115.5" font-family="FreeSans" font-size="10.00" fill="#000000">Fun4AllOscarInputManager::run</text>
</a>
</g>
</g>
<!-- Node16&#45;&gt;Node17 -->
<g id="edge16" class="edge">
<title>Node16&#45;&gt;Node17</title>
<path fill="none" stroke="#191970" d="M1421.7391,-118.5C1435.0061,-118.5 1448.7039,-118.5 1461.9873,-118.5"/>
<polygon fill="#191970" stroke="#191970" points="1421.6918,-115.0001 1411.6918,-118.5 1421.6917,-122.0001 1421.6918,-115.0001"/>
</g>
<!-- Node24&#45;&gt;Node12 -->
<g id="edge29" class="edge">
<title>Node24&#45;&gt;Node12</title>
<path fill="none" stroke="#191970" d="M675.3236,-140.052C711.4129,-147.66 766.2315,-159.2164 798.3986,-165.9975"/>
<polygon fill="#191970" stroke="#191970" points="675.7304,-136.5609 665.2235,-137.9228 674.2864,-143.4104 675.7304,-136.5609"/>
</g>
<!-- Node25 -->
<g id="node25" class="node">
<title>Node25</title>
<g id="a_node25"><a xlink:href="../../d6/dcf/pythia6425mod_8f.html#a83ae6561ab82fd7af8b1b3e511f477ac" target="_top" xlink:title="pyevnw">
<polygon fill="none" stroke="#000000" points="701,-45.5 701,-65.5 757,-65.5 757,-45.5 701,-45.5"/>
<text text-anchor="middle" x="729" y="-52.5" font-family="FreeSans" font-size="10.00" fill="#000000">pyevnw</text>
</a>
</g>
</g>
<!-- Node24&#45;&gt;Node25 -->
<g id="edge30" class="edge">
<title>Node24&#45;&gt;Node25</title>
<path fill="none" stroke="#191970" d="M656.6337,-114.9215C668.611,-102.9954 685.2242,-87.1573 701,-74.5 704.849,-71.4119 709.1867,-68.3047 713.278,-65.5234"/>
<polygon fill="#191970" stroke="#191970" points="654.0483,-112.5579 649.4878,-122.121 659.0165,-117.4892 654.0483,-112.5579"/>
</g>
<!-- Node26 -->
<g id="node26" class="node">
<title>Node26</title>
<g id="a_node26"><a xlink:href="../../d6/dcf/pythia6425mod_8f.html#ae7cb37215e5a38b3fb0529c9996646e6" target="_top" xlink:title="pyupev">
<polygon fill="none" stroke="#000000" points="702,-84.5 702,-104.5 756,-104.5 756,-84.5 702,-84.5"/>
<text text-anchor="middle" x="729" y="-91.5" font-family="FreeSans" font-size="10.00" fill="#000000">pyupev</text>
</a>
</g>
</g>
<!-- Node24&#45;&gt;Node26 -->
<g id="edge32" class="edge">
<title>Node24&#45;&gt;Node26</title>
<path fill="none" stroke="#191970" d="M672.9999,-118.2766C683.7276,-113.7218 695.3778,-108.7753 705.2598,-104.5796"/>
<polygon fill="#191970" stroke="#191970" points="671.3212,-115.1869 663.4844,-122.3167 674.0569,-121.6301 671.3212,-115.1869"/>
</g>
<!-- Node25&#45;&gt;Node12 -->
<g id="edge31" class="edge">
<title>Node25&#45;&gt;Node12</title>
<path fill="none" stroke="#191970" d="M754.1196,-71.8334C755.1182,-72.7039 756.0834,-73.5941 757,-74.5 784.8713,-102.0456 808.7277,-142.4836 819.0454,-161.2427"/>
<polygon fill="#191970" stroke="#191970" points="756.1137,-68.9513 746.059,-65.6116 751.8365,-74.4925 756.1137,-68.9513"/>
</g>
<!-- Node27&#45;&gt;Node7 -->
<g id="edge35" class="edge">
<title>Node27&#45;&gt;Node7</title>
<path fill="none" stroke="#191970" d="M574.3903,-187.6425C575.6241,-188.5923 576.8345,-189.5485 578,-190.5 597.0995,-206.0929 617.6167,-226.1986 629.4655,-238.1788"/>
<polygon fill="#191970" stroke="#191970" points="576.268,-184.679 566.1359,-181.582 572.1252,-190.3215 576.268,-184.679"/>
</g>
<!-- Node27&#45;&gt;Node12 -->
<g id="edge34" class="edge">
<title>Node27&#45;&gt;Node12</title>
<path fill="none" stroke="#191970" d="M587.3992,-171.5C643.3898,-171.5 749.3045,-171.5 798.3551,-171.5"/>
<polygon fill="#191970" stroke="#191970" points="587.2244,-168.0001 577.2243,-171.5 587.2243,-175.0001 587.2244,-168.0001"/>
</g>
<!-- Node27&#45;&gt;Node24 -->
<g id="edge36" class="edge">
<title>Node27&#45;&gt;Node24</title>
<path fill="none" stroke="#191970" d="M583.2121,-157.3048C594.3444,-152.3991 606.5767,-147.0086 616.7863,-142.5094"/>
<polygon fill="#191970" stroke="#191970" points="581.5304,-154.2211 573.7909,-161.4565 584.3532,-160.6267 581.5304,-154.2211"/>
</g>
<!-- Node29 -->
<g id="node29" class="node">
<title>Node29</title>
<g id="a_node29"><a xlink:href="../../d6/dcf/pythia6425mod_8f.html#a15448b25c4eb515f33e35f86f376af68" target="_top" xlink:title="pyevol">
<polygon fill="none" stroke="#000000" points="614.5,-45.5 614.5,-65.5 664.5,-65.5 664.5,-45.5 614.5,-45.5"/>
<text text-anchor="middle" x="639.5" y="-52.5" font-family="FreeSans" font-size="10.00" fill="#000000">pyevol</text>
</a>
</g>
</g>
<!-- Node28&#45;&gt;Node29 -->
<g id="edge38" class="edge">
<title>Node28&#45;&gt;Node29</title>
<path fill="none" stroke="#191970" d="M497.2285,-88.9749C520.4108,-85.7197 551.1841,-80.7973 578,-74.5 590.0758,-71.6642 603.2418,-67.7155 614.2823,-64.1521"/>
<polygon fill="#191970" stroke="#191970" points="496.5866,-85.53 487.1528,-90.3522 497.5347,-92.4655 496.5866,-85.53"/>
</g>
<!-- Node30 -->
<g id="node30" class="node">
<title>Node30</title>
<g id="a_node30"><a xlink:href="../../d6/dcf/pythia6425mod_8f.html#ac00de061be805868aa61d626239f5fa9" target="_top" xlink:title="pyptis">
<polygon fill="none" stroke="#000000" points="527.5,-45.5 527.5,-65.5 574.5,-65.5 574.5,-45.5 527.5,-45.5"/>
<text text-anchor="middle" x="551" y="-52.5" font-family="FreeSans" font-size="10.00" fill="#000000">pyptis</text>
</a>
</g>
</g>
<!-- Node28&#45;&gt;Node30 -->
<g id="edge40" class="edge">
<title>Node28&#45;&gt;Node30</title>
<path fill="none" stroke="#191970" d="M494.9999,-79.2766C505.7276,-74.7218 517.3778,-69.7753 527.2598,-65.5796"/>
<polygon fill="#191970" stroke="#191970" points="493.3212,-76.1869 485.4844,-83.3167 496.0569,-82.6301 493.3212,-76.1869"/>
</g>
<!-- Node29&#45;&gt;Node25 -->
<g id="edge39" class="edge">
<title>Node29&#45;&gt;Node25</title>
<path fill="none" stroke="#191970" d="M674.9979,-55.5C683.5336,-55.5 692.5389,-55.5 700.697,-55.5"/>
<polygon fill="#191970" stroke="#191970" points="674.9077,-52.0001 664.9077,-55.5 674.9077,-59.0001 674.9077,-52.0001"/>
</g>
<!-- Node30&#45;&gt;Node29 -->
<g id="edge41" class="edge">
<title>Node30&#45;&gt;Node29</title>
<path fill="none" stroke="#191970" d="M584.9848,-55.5C594.7962,-55.5 605.3202,-55.5 614.4796,-55.5"/>
<polygon fill="#191970" stroke="#191970" points="584.7164,-52.0001 574.7164,-55.5 584.7163,-59.0001 584.7164,-52.0001"/>
</g>
<!-- Node31&#45;&gt;Node3 -->
<g id="edge44" class="edge">
<title>Node31&#45;&gt;Node3</title>
<path fill="none" stroke="#191970" d="M149.3001,-160.3636C157.9206,-162.2571 166.9483,-164.2401 174.957,-165.9992"/>
<polygon fill="#191970" stroke="#191970" points="149.9709,-156.9276 139.4529,-158.2006 148.4691,-163.7646 149.9709,-156.9276"/>
</g>
</g>
</svg>
