<?xml version="1.0" encoding="UTF-8" standalone="no"?>
<!DOCTYPE svg PUBLIC "-//W3C//DTD SVG 1.1//EN"
 "http://www.w3.org/Graphics/SVG/1.1/DTD/svg11.dtd">
<!-- Generated by graphviz version 2.40.1 (20161225.0304)
 -->
<!-- Title: pypcmp Pages: 1 -->
<svg width="1559pt" height="408pt"
 viewBox="0.00 0.00 1559.00 407.76" xmlns="http://www.w3.org/2000/svg" xmlns:xlink="http://www.w3.org/1999/xlink">
<g id="graph0" class="graph" transform="scale(1 1) rotate(0) translate(4 403.7603)">
<title>pypcmp</title>
<!-- Node1 -->
<g id="node1" class="node">
<title>Node1</title>
<polygon fill="#bfbfbf" stroke="#000000" points="0,-182.2603 0,-202.2603 57,-202.2603 57,-182.2603 0,-182.2603"/>
<text text-anchor="middle" x="28.5" y="-189.2603" font-family="FreeSans" font-size="10.00" fill="#000000">pypcmp</text>
</g>
<!-- Node2 -->
<g id="node2" class="node">
<title>Node2</title>
<g id="a_node2"><a xlink:href="../../d6/dcf/pythia6425mod_8f.html#a18485907fca6114e02a4ea4be006a91e" target="_top" xlink:title="pypdfu">
<polygon fill="none" stroke="#000000" points="93,-182.2603 93,-202.2603 144,-202.2603 144,-182.2603 93,-182.2603"/>
<text text-anchor="middle" x="118.5" y="-189.2603" font-family="FreeSans" font-size="10.00" fill="#000000">pypdfu</text>
</a>
</g>
</g>
<!-- Node1&#45;&gt;Node2 -->
<g id="edge1" class="edge">
<title>Node1&#45;&gt;Node2</title>
<path fill="none" stroke="#191970" d="M67.676,-192.2603C76.2271,-192.2603 85.0636,-192.2603 92.9222,-192.2603"/>
<polygon fill="#191970" stroke="#191970" points="67.472,-188.7604 57.472,-192.2603 67.4719,-195.7604 67.472,-188.7604"/>
</g>
<!-- Node3 -->
<g id="node3" class="node">
<title>Node3</title>
<g id="a_node3"><a xlink:href="../../d6/dcf/pythia6425mod_8f.html#a2d74d5dd64881524212b3720af2696de" target="_top" xlink:title="pyrand">
<polygon fill="none" stroke="#000000" points="441,-202.2603 441,-222.2603 492,-222.2603 492,-202.2603 441,-202.2603"/>
<text text-anchor="middle" x="466.5" y="-209.2603" font-family="FreeSans" font-size="10.00" fill="#000000">pyrand</text>
</a>
</g>
</g>
<!-- Node2&#45;&gt;Node3 -->
<g id="edge2" class="edge">
<title>Node2&#45;&gt;Node3</title>
<path fill="none" stroke="#191970" d="M153.7377,-205.5415C162.2241,-208.2296 171.3424,-210.7057 180,-212.2603 278.4735,-229.9419 305.1122,-224.9266 405,-219.2603 416.8017,-218.5908 429.8161,-217.2042 440.8221,-215.8404"/>
<polygon fill="#191970" stroke="#191970" points="154.7252,-202.1812 144.1314,-202.331 152.5064,-208.8203 154.7252,-202.1812"/>
</g>
<!-- Node20 -->
<g id="node20" class="node">
<title>Node20</title>
<g id="a_node20"><a xlink:href="../../d6/dcf/pythia6425mod_8f.html#a9f8a08b43157ca5aa62d84247ff26109" target="_top" xlink:title="pysspa">
<polygon fill="none" stroke="#000000" points="264,-65.2603 264,-85.2603 315,-85.2603 315,-65.2603 264,-65.2603"/>
<text text-anchor="middle" x="289.5" y="-72.2603" font-family="FreeSans" font-size="10.00" fill="#000000">pysspa</text>
</a>
</g>
</g>
<!-- Node2&#45;&gt;Node20 -->
<g id="edge22" class="edge">
<title>Node2&#45;&gt;Node20</title>
<path fill="none" stroke="#191970" d="M126.2432,-172.7953C135.7021,-151.6044 153.7545,-118.3317 180,-100.2603 205.0545,-83.0089 240.2353,-77.4992 263.8973,-75.8271"/>
<polygon fill="#191970" stroke="#191970" points="122.9758,-171.5353 122.2918,-182.108 129.4198,-174.2695 122.9758,-171.5353"/>
</g>
<!-- Node21 -->
<g id="node21" class="node">
<title>Node21</title>
<g id="a_node21"><a xlink:href="../../d6/dcf/pythia6425mod_8f.html#a5c7e2372fde451d6f2253ef044e01364" target="_top" xlink:title="pymign">
<polygon fill="none" stroke="#000000" points="351,-47.2603 351,-67.2603 405,-67.2603 405,-47.2603 351,-47.2603"/>
<text text-anchor="middle" x="378" y="-54.2603" font-family="FreeSans" font-size="10.00" fill="#000000">pymign</text>
</a>
</g>
</g>
<!-- Node2&#45;&gt;Node21 -->
<g id="edge37" class="edge">
<title>Node2&#45;&gt;Node21</title>
<path fill="none" stroke="#191970" d="M145.0067,-177.0873C155.7765,-171.0588 168.3951,-164.1672 180,-158.2603 239.0075,-128.2251 256.5695,-126.4031 315,-95.2603 331.4571,-86.4888 349.634,-75.3625 362.2162,-67.4204"/>
<polygon fill="#191970" stroke="#191970" points="143.0809,-174.1551 136.0902,-182.1163 146.5198,-180.2521 143.0809,-174.1551"/>
</g>
<!-- Node24 -->
<g id="node24" class="node">
<title>Node24</title>
<g id="a_node24"><a xlink:href="../../d6/dcf/pythia6425mod_8f.html#ac00de061be805868aa61d626239f5fa9" target="_top" xlink:title="pyptis">
<polygon fill="none" stroke="#000000" points="443,-318.2603 443,-338.2603 490,-338.2603 490,-318.2603 443,-318.2603"/>
<text text-anchor="middle" x="466.5" y="-325.2603" font-family="FreeSans" font-size="10.00" fill="#000000">pyptis</text>
</a>
</g>
</g>
<!-- Node2&#45;&gt;Node24 -->
<g id="edge31" class="edge">
<title>Node2&#45;&gt;Node24</title>
<path fill="none" stroke="#191970" d="M125.9401,-211.874C135.2155,-233.5641 153.1888,-267.8679 180,-286.2603 262.7021,-342.9935 390.4977,-336.8094 442.8791,-331.3162"/>
<polygon fill="#191970" stroke="#191970" points="129.0855,-210.3167 122.0847,-202.3643 122.5983,-212.9467 129.0855,-210.3167"/>
</g>
<!-- Node26 -->
<g id="node26" class="node">
<title>Node26</title>
<g id="a_node26"><a xlink:href="../../d6/dcf/pythia6425mod_8f.html#af1b5061d1d80462745ef6b9ab52500f2" target="_top" xlink:title="pyptmi">
<polygon fill="none" stroke="#000000" points="352.5,-279.2603 352.5,-299.2603 403.5,-299.2603 403.5,-279.2603 352.5,-279.2603"/>
<text text-anchor="middle" x="378" y="-286.2603" font-family="FreeSans" font-size="10.00" fill="#000000">pyptmi</text>
</a>
</g>
</g>
<!-- Node2&#45;&gt;Node26 -->
<g id="edge34" class="edge">
<title>Node2&#45;&gt;Node26</title>
<path fill="none" stroke="#191970" d="M129.2649,-211.5043C139.8403,-228.4272 157.6254,-252.1892 180,-264.2603 235.8028,-294.3656 313.0033,-294.2048 352.4942,-291.665"/>
<polygon fill="#191970" stroke="#191970" points="132.0117,-209.2757 123.8912,-202.4707 125.9956,-212.8545 132.0117,-209.2757"/>
</g>
<!-- Node27 -->
<g id="node27" class="node">
<title>Node27</title>
<g id="a_node27"><a xlink:href="../../d6/dcf/pythia6425mod_8f.html#a3ccdee32be69df9daf5605283165a012" target="_top" xlink:title="pysigh">
<polygon fill="none" stroke="#000000" points="265,-143.2603 265,-163.2603 314,-163.2603 314,-143.2603 265,-143.2603"/>
<text text-anchor="middle" x="289.5" y="-150.2603" font-family="FreeSans" font-size="10.00" fill="#000000">pysigh</text>
</a>
</g>
</g>
<!-- Node2&#45;&gt;Node27 -->
<g id="edge38" class="edge">
<title>Node2&#45;&gt;Node27</title>
<path fill="none" stroke="#191970" d="M153.7269,-180.5892C162.2714,-177.9774 171.4183,-175.3617 180,-173.2603 208.9063,-166.1818 242.6603,-160.3821 264.9691,-156.8841"/>
<polygon fill="#191970" stroke="#191970" points="152.5397,-177.2933 144.0431,-183.6225 154.6322,-183.9733 152.5397,-177.2933"/>
</g>
<!-- Node30 -->
<g id="node30" class="node">
<title>Node30</title>
<g id="a_node30"><a xlink:href="../../d6/dcf/pythia6425mod_8f.html#aeceae4435f53744a1fd6d16580b88e9b" target="_top" xlink:title="pypdfl">
<polygon fill="none" stroke="#000000" points="180,-182.2603 180,-202.2603 228,-202.2603 228,-182.2603 180,-182.2603"/>
<text text-anchor="middle" x="204" y="-189.2603" font-family="FreeSans" font-size="10.00" fill="#000000">pypdfl</text>
</a>
</g>
</g>
<!-- Node2&#45;&gt;Node30 -->
<g id="edge48" class="edge">
<title>Node2&#45;&gt;Node30</title>
<path fill="none" stroke="#191970" d="M154.3464,-192.2603C162.938,-192.2603 171.9116,-192.2603 179.8295,-192.2603"/>
<polygon fill="#191970" stroke="#191970" points="154.1529,-188.7604 144.1528,-192.2603 154.1528,-195.7604 154.1529,-188.7604"/>
</g>
<!-- Node4 -->
<g id="node4" class="node">
<title>Node4</title>
<g id="a_node4"><a xlink:href="../../d6/dcf/pythia6425mod_8f.html#ac81fa418f8cd77b0873b2de2a4140933" target="_top" xlink:title="pyevnt">
<polygon fill="none" stroke="#000000" points="717,-145.2603 717,-165.2603 769,-165.2603 769,-145.2603 717,-145.2603"/>
<text text-anchor="middle" x="743" y="-152.2603" font-family="FreeSans" font-size="10.00" fill="#000000">pyevnt</text>
</a>
</g>
</g>
<!-- Node3&#45;&gt;Node4 -->
<g id="edge3" class="edge">
<title>Node3&#45;&gt;Node4</title>
<path fill="none" stroke="#191970" d="M502.1404,-204.9989C544.7102,-196.3143 618.0709,-181.3119 681,-168.2603 692.738,-165.8258 705.7203,-163.1076 716.7593,-160.7887"/>
<polygon fill="#191970" stroke="#191970" points="501.3604,-201.5859 492.2615,-207.0136 502.7592,-208.4447 501.3604,-201.5859"/>
</g>
<!-- Node18 -->
<g id="node18" class="node">
<title>Node18</title>
<g id="a_node18"><a xlink:href="../../d6/dcf/pythia6425mod_8f.html#a83ae6561ab82fd7af8b1b3e511f477ac" target="_top" xlink:title="pyevnw">
<polygon fill="none" stroke="#000000" points="621.5,-260.2603 621.5,-280.2603 677.5,-280.2603 677.5,-260.2603 621.5,-260.2603"/>
<text text-anchor="middle" x="649.5" y="-267.2603" font-family="FreeSans" font-size="10.00" fill="#000000">pyevnw</text>
</a>
</g>
</g>
<!-- Node3&#45;&gt;Node18 -->
<g id="edge19" class="edge">
<title>Node3&#45;&gt;Node18</title>
<path fill="none" stroke="#191970" d="M487.2404,-228.4463C498.6585,-236.5488 513.4357,-245.7759 528,-251.2603 558.5701,-262.7717 595.9983,-267.31 621.1677,-269.0985"/>
<polygon fill="#191970" stroke="#191970" points="488.9992,-225.3947 478.8718,-222.2822 484.8477,-231.0309 488.9992,-225.3947"/>
</g>
<!-- Node19 -->
<g id="node19" class="node">
<title>Node19</title>
<g id="a_node19"><a xlink:href="../../d6/dcf/pythia6425mod_8f.html#ae7cb37215e5a38b3fb0529c9996646e6" target="_top" xlink:title="pyupev">
<polygon fill="none" stroke="#000000" points="528,-221.2603 528,-241.2603 582,-241.2603 582,-221.2603 528,-221.2603"/>
<text text-anchor="middle" x="555" y="-228.2603" font-family="FreeSans" font-size="10.00" fill="#000000">pyupev</text>
</a>
</g>
</g>
<!-- Node3&#45;&gt;Node19 -->
<g id="edge21" class="edge">
<title>Node3&#45;&gt;Node19</title>
<path fill="none" stroke="#191970" d="M501.9559,-219.8723C510.6077,-221.7297 519.7268,-223.6875 527.9172,-225.4459"/>
<polygon fill="#191970" stroke="#191970" points="502.6098,-216.433 492.0979,-217.7558 501.1404,-223.277 502.6098,-216.433"/>
</g>
<!-- Node5 -->
<g id="node5" class="node">
<title>Node5</title>
<g id="a_node5"><a xlink:href="../../d3/dd5/jewel-2_82_80_8f.html#aeb24fa7919aa21c652e9c8f2ec45cb91" target="_top" xlink:title="genevent">
<polygon fill="none" stroke="#000000" points="805,-145.2603 805,-165.2603 870,-165.2603 870,-145.2603 805,-145.2603"/>
<text text-anchor="middle" x="837.5" y="-152.2603" font-family="FreeSans" font-size="10.00" fill="#000000">genevent</text>
</a>
</g>
</g>
<!-- Node4&#45;&gt;Node5 -->
<g id="edge4" class="edge">
<title>Node4&#45;&gt;Node5</title>
<path fill="none" stroke="#191970" d="M779.33,-155.2603C787.6992,-155.2603 796.552,-155.2603 804.7582,-155.2603"/>
<polygon fill="#191970" stroke="#191970" points="779.0727,-151.7604 769.0727,-155.2603 779.0727,-158.7604 779.0727,-151.7604"/>
</g>
<!-- Node17 -->
<g id="node17" class="node">
<title>Node17</title>
<g id="a_node17"><a xlink:href="../../d6/dcf/pythia6425mod_8f.html#a4cc0e611278607d6b413b5cecdfe16c3" target="_top" xlink:title="pytest">
<polygon fill="none" stroke="#000000" points="813.5,-106.2603 813.5,-126.2603 861.5,-126.2603 861.5,-106.2603 813.5,-106.2603"/>
<text text-anchor="middle" x="837.5" y="-113.2603" font-family="FreeSans" font-size="10.00" fill="#000000">pytest</text>
</a>
</g>
</g>
<!-- Node4&#45;&gt;Node17 -->
<g id="edge18" class="edge">
<title>Node4&#45;&gt;Node17</title>
<path fill="none" stroke="#191970" d="M776.677,-141.3618C788.7543,-136.3775 802.1244,-130.8597 813.2464,-126.2697"/>
<polygon fill="#191970" stroke="#191970" points="775.2446,-138.1665 767.3361,-145.2168 777.9151,-144.6372 775.2446,-138.1665"/>
</g>
<!-- Node6 -->
<g id="node6" class="node">
<title>Node6</title>
<g id="a_node6"><a xlink:href="../../dd/d2a/classPHHepMCGenHelper.html#ab0c755f6e53c0bf57ccd314a0017d227" target="_top" xlink:title="send HepMC::GenEvent to DST tree. This function takes ownership of evt">
<polygon fill="none" stroke="#000000" points="935,-225.2603 935,-257.2603 1091,-257.2603 1091,-225.2603 935,-225.2603"/>
<text text-anchor="start" x="943" y="-244.2603" font-family="FreeSans" font-size="10.00" fill="#000000">PHHepMCGenHelper::insert</text>
<text text-anchor="middle" x="1013" y="-232.2603" font-family="FreeSans" font-size="10.00" fill="#000000">_event</text>
</a>
</g>
</g>
<!-- Node5&#45;&gt;Node6 -->
<g id="edge5" class="edge">
<title>Node5&#45;&gt;Node6</title>
<path fill="none" stroke="#191970" d="M856.14,-172.2184C869.2834,-183.4427 887.7344,-197.786 906,-207.2603 919.7555,-214.3952 935.2866,-220.3776 950.1639,-225.2352"/>
<polygon fill="#191970" stroke="#191970" points="858.1538,-169.3296 848.3246,-165.3752 853.5425,-174.5961 858.1538,-169.3296"/>
</g>
<!-- Node11 -->
<g id="node11" class="node">
<title>Node11</title>
<g id="a_node11"><a xlink:href="../../d9/d3a/classPHPythia8.html#a5cc4124cc6be2fb2467714e3d3bc5a6a" target="_top" xlink:title="PHPythia8::process\l_event">
<polygon fill="none" stroke="#000000" points="1191,-175.2603 1191,-207.2603 1304,-207.2603 1304,-175.2603 1191,-175.2603"/>
<text text-anchor="start" x="1199" y="-194.2603" font-family="FreeSans" font-size="10.00" fill="#000000">PHPythia8::process</text>
<text text-anchor="middle" x="1247.5" y="-182.2603" font-family="FreeSans" font-size="10.00" fill="#000000">_event</text>
</a>
</g>
</g>
<!-- Node5&#45;&gt;Node11 -->
<g id="edge16" class="edge">
<title>Node5&#45;&gt;Node11</title>
<path fill="none" stroke="#191970" d="M880.314,-161.9742C888.8115,-163.1757 897.6776,-164.3371 906,-165.2603 1006.0222,-176.3554 1123.057,-184.1443 1190.8898,-188.1491"/>
<polygon fill="#191970" stroke="#191970" points="880.5928,-158.478 870.1931,-160.502 879.5851,-165.4051 880.5928,-158.478"/>
</g>
<!-- Node12 -->
<g id="node12" class="node">
<title>Node12</title>
<g id="a_node12"><a xlink:href="../../da/df0/classPHSartre.html#aafe9fd92317ab1f7eee67a9354696c4e" target="_top" xlink:title="PHSartre::process_event">
<polygon fill="none" stroke="#000000" points="1177.5,-136.2603 1177.5,-156.2603 1317.5,-156.2603 1317.5,-136.2603 1177.5,-136.2603"/>
<text text-anchor="middle" x="1247.5" y="-143.2603" font-family="FreeSans" font-size="10.00" fill="#000000">PHSartre::process_event</text>
</a>
</g>
</g>
<!-- Node5&#45;&gt;Node12 -->
<g id="edge15" class="edge">
<title>Node5&#45;&gt;Node12</title>
<path fill="none" stroke="#191970" d="M880.2904,-154.321C950.752,-152.7742 1091.8743,-149.6764 1177.1815,-147.8038"/>
<polygon fill="#191970" stroke="#191970" points="879.9355,-150.8278 870.0147,-154.5465 880.0892,-157.8261 879.9355,-150.8278"/>
</g>
<!-- Node14 -->
<g id="node14" class="node">
<title>Node14</title>
<g id="a_node14"><a xlink:href="../../d3/dd5/jewel-2_82_80_8f.html#a15e2df3184692bfe4ca2261638190094" target="_top" xlink:title="jewel">
<polygon fill="none" stroke="#000000" points="991.5,-67.2603 991.5,-87.2603 1034.5,-87.2603 1034.5,-67.2603 991.5,-67.2603"/>
<text text-anchor="middle" x="1013" y="-74.2603" font-family="FreeSans" font-size="10.00" fill="#000000">jewel</text>
</a>
</g>
</g>
<!-- Node5&#45;&gt;Node14 -->
<g id="edge13" class="edge">
<title>Node5&#45;&gt;Node14</title>
<path fill="none" stroke="#191970" d="M865.7213,-139.4822C867.1981,-138.4348 868.6343,-137.3583 870,-136.2603 888.3836,-121.479 885.3564,-108.6745 906,-97.2603 932.7922,-82.4464 968.5239,-78.3723 991.152,-77.3777"/>
<polygon fill="#191970" stroke="#191970" points="863.5186,-136.7386 857.0249,-145.1101 867.3218,-142.6154 863.5186,-136.7386"/>
</g>
<!-- Node15 -->
<g id="node15" class="node">
<title>Node15</title>
<g id="a_node15"><a xlink:href="../../d7/df5/pepsiMaineRHIC__noradcorr_8f.html#ac2ed0c0080f3e6d946824efb82e28ab5" target="_top" xlink:title="pepsimainerhic">
<polygon fill="none" stroke="#000000" points="966,-106.2603 966,-126.2603 1060,-126.2603 1060,-106.2603 966,-106.2603"/>
<text text-anchor="middle" x="1013" y="-113.2603" font-family="FreeSans" font-size="10.00" fill="#000000">pepsimainerhic</text>
</a>
</g>
</g>
<!-- Node5&#45;&gt;Node15 -->
<g id="edge14" class="edge">
<title>Node5&#45;&gt;Node15</title>
<path fill="none" stroke="#191970" d="M879.8661,-145.8456C906.4074,-139.9475 940.5916,-132.351 967.6752,-126.3324"/>
<polygon fill="#191970" stroke="#191970" points="879.1015,-142.43 870.0989,-148.0161 880.6201,-149.2633 879.1015,-142.43"/>
</g>
<!-- Node16 -->
<g id="node16" class="node">
<title>Node16</title>
<g id="a_node16"><a xlink:href="../../de/d99/classFun4AllHepMCPileupInputManager.html#a81bf2b69c3c4d3aae0aadebafe1c2c2e" target="_top" xlink:title="Fun4AllHepMCPileupInputManager::run">
<polygon fill="none" stroke="#000000" points="906,-276.2603 906,-296.2603 1120,-296.2603 1120,-276.2603 906,-276.2603"/>
<text text-anchor="middle" x="1013" y="-283.2603" font-family="FreeSans" font-size="10.00" fill="#000000">Fun4AllHepMCPileupInputManager::run</text>
</a>
</g>
</g>
<!-- Node5&#45;&gt;Node16 -->
<g id="edge17" class="edge">
<title>Node5&#45;&gt;Node16</title>
<path fill="none" stroke="#191970" d="M843.8382,-175.0502C853.1404,-200.695 873.0527,-244.7772 906,-267.2603 911.2207,-270.8228 916.9074,-273.7784 922.8486,-276.2248"/>
<polygon fill="#191970" stroke="#191970" points="847.0504,-173.6275 840.494,-165.305 840.4294,-175.8997 847.0504,-173.6275"/>
</g>
<!-- Node7 -->
<g id="node7" class="node">
<title>Node7</title>
<g id="a_node7"><a xlink:href="../../d6/d6f/classFun4AllHepMCInputManager.html#ab6c80a8ee0701bfff5eee3ec3623015c" target="_top" xlink:title="Fun4AllHepMCInputManager::run">
<polygon fill="none" stroke="#000000" points="1156,-277.2603 1156,-297.2603 1339,-297.2603 1339,-277.2603 1156,-277.2603"/>
<text text-anchor="middle" x="1247.5" y="-284.2603" font-family="FreeSans" font-size="10.00" fill="#000000">Fun4AllHepMCInputManager::run</text>
</a>
</g>
</g>
<!-- Node6&#45;&gt;Node7 -->
<g id="edge6" class="edge">
<title>Node6&#45;&gt;Node7</title>
<path fill="none" stroke="#191970" d="M1100.9521,-258.5131C1133.1083,-264.8209 1168.4058,-271.745 1196.3006,-277.2169"/>
<polygon fill="#191970" stroke="#191970" points="1101.5718,-255.0681 1091.0851,-256.5776 1100.2243,-261.9371 1101.5718,-255.0681"/>
</g>
<!-- Node8 -->
<g id="node8" class="node">
<title>Node8</title>
<g id="a_node8"><a xlink:href="../../db/d1f/classFun4AllOscarInputManager.html#a1537e89c4e652f70747fbbef18ceadc4" target="_top" xlink:title="Fun4AllOscarInputManager\l::ConvertFromOscar">
<polygon fill="none" stroke="#000000" points="1170.5,-226.2603 1170.5,-258.2603 1324.5,-258.2603 1324.5,-226.2603 1170.5,-226.2603"/>
<text text-anchor="start" x="1178.5" y="-245.2603" font-family="FreeSans" font-size="10.00" fill="#000000">Fun4AllOscarInputManager</text>
<text text-anchor="middle" x="1247.5" y="-233.2603" font-family="FreeSans" font-size="10.00" fill="#000000">::ConvertFromOscar</text>
</a>
</g>
</g>
<!-- Node6&#45;&gt;Node8 -->
<g id="edge7" class="edge">
<title>Node6&#45;&gt;Node8</title>
<path fill="none" stroke="#191970" d="M1101.3585,-241.637C1123.9812,-241.7335 1148.1342,-241.8365 1170.155,-241.9304"/>
<polygon fill="#191970" stroke="#191970" points="1101.1,-238.136 1091.0851,-241.5932 1101.0701,-245.1359 1101.1,-238.136"/>
</g>
<!-- Node10 -->
<g id="node10" class="node">
<title>Node10</title>
<g id="a_node10"><a xlink:href="../../dd/da8/classPHPythia6.html#a7a70bdd1c198a83ed143d3e2c4516d0d" target="_top" xlink:title="PHPythia6::process\l_event">
<polygon fill="none" stroke="#000000" points="1191,-367.2603 1191,-399.2603 1304,-399.2603 1304,-367.2603 1191,-367.2603"/>
<text text-anchor="start" x="1199" y="-386.2603" font-family="FreeSans" font-size="10.00" fill="#000000">PHPythia6::process</text>
<text text-anchor="middle" x="1247.5" y="-374.2603" font-family="FreeSans" font-size="10.00" fill="#000000">_event</text>
</a>
</g>
</g>
<!-- Node6&#45;&gt;Node10 -->
<g id="edge9" class="edge">
<title>Node6&#45;&gt;Node10</title>
<path fill="none" stroke="#191970" d="M1100.2505,-254.6382C1107.3972,-257.9942 1114.1195,-262.1418 1120,-267.2603 1152.8072,-295.8162 1123.6008,-329.2423 1156,-358.2603 1165.6909,-366.9397 1178.1142,-372.6431 1190.6607,-376.3806"/>
<polygon fill="#191970" stroke="#191970" points="1101.5801,-251.4006 1091.0025,-250.797 1098.895,-257.8652 1101.5801,-251.4006"/>
</g>
<!-- Node6&#45;&gt;Node11 -->
<g id="edge10" class="edge">
<title>Node6&#45;&gt;Node11</title>
<path fill="none" stroke="#191970" d="M1098.0754,-223.1205C1128.9869,-216.5296 1163.1323,-209.2491 1190.9706,-203.3134"/>
<polygon fill="#191970" stroke="#191970" points="1097.2151,-219.7252 1088.1649,-225.2336 1098.6749,-226.5713 1097.2151,-219.7252"/>
</g>
<!-- Node6&#45;&gt;Node12 -->
<g id="edge11" class="edge">
<title>Node6&#45;&gt;Node12</title>
<path fill="none" stroke="#191970" d="M1047.0709,-220.0503C1075.3188,-203.2973 1117.017,-180.4511 1156,-166.2603 1166.8485,-162.3111 1178.7176,-159.0141 1190.2067,-156.3113"/>
<polygon fill="#191970" stroke="#191970" points="1045.1672,-217.1108 1038.3926,-225.2567 1048.7684,-223.1134 1045.1672,-217.1108"/>
</g>
<!-- Node13 -->
<g id="node13" class="node">
<title>Node13</title>
<g id="a_node13"><a xlink:href="../../d3/d49/classReadEICFiles.html#a49106bf9561329777334154092890af2" target="_top" xlink:title="ReadEICFiles::process\l_event">
<polygon fill="none" stroke="#000000" points="1184.5,-316.2603 1184.5,-348.2603 1310.5,-348.2603 1310.5,-316.2603 1184.5,-316.2603"/>
<text text-anchor="start" x="1192.5" y="-335.2603" font-family="FreeSans" font-size="10.00" fill="#000000">ReadEICFiles::process</text>
<text text-anchor="middle" x="1247.5" y="-323.2603" font-family="FreeSans" font-size="10.00" fill="#000000">_event</text>
</a>
</g>
</g>
<!-- Node6&#45;&gt;Node13 -->
<g id="edge12" class="edge">
<title>Node6&#45;&gt;Node13</title>
<path fill="none" stroke="#191970" d="M1101.0007,-257.9851C1107.628,-260.6355 1114.0446,-263.7051 1120,-267.2603 1140.5367,-279.5197 1135.6391,-294.711 1156,-307.2603 1164.6917,-312.6173 1174.5403,-316.8459 1184.4755,-320.1784"/>
<polygon fill="#191970" stroke="#191970" points="1101.7631,-254.5374 1091.1692,-254.3942 1099.3615,-261.1126 1101.7631,-254.5374"/>
</g>
<!-- Node9 -->
<g id="node9" class="node">
<title>Node9</title>
<g id="a_node9"><a xlink:href="../../db/d1f/classFun4AllOscarInputManager.html#a4be602bd8c9fe73f9dcc81c8871784a6" target="_top" xlink:title="Fun4AllOscarInputManager::run">
<polygon fill="none" stroke="#000000" points="1375,-232.2603 1375,-252.2603 1551,-252.2603 1551,-232.2603 1375,-232.2603"/>
<text text-anchor="middle" x="1463" y="-239.2603" font-family="FreeSans" font-size="10.00" fill="#000000">Fun4AllOscarInputManager::run</text>
</a>
</g>
</g>
<!-- Node8&#45;&gt;Node9 -->
<g id="edge8" class="edge">
<title>Node8&#45;&gt;Node9</title>
<path fill="none" stroke="#191970" d="M1334.7391,-242.2603C1348.0061,-242.2603 1361.7039,-242.2603 1374.9873,-242.2603"/>
<polygon fill="#191970" stroke="#191970" points="1334.6918,-238.7604 1324.6918,-242.2603 1334.6917,-245.7604 1334.6918,-238.7604"/>
</g>
<!-- Node18&#45;&gt;Node4 -->
<g id="edge20" class="edge">
<title>Node18&#45;&gt;Node4</title>
<path fill="none" stroke="#191970" d="M664.1649,-252.2232C684.0976,-227.707 719.0651,-184.6989 734.8546,-165.2787"/>
<polygon fill="#191970" stroke="#191970" points="661.3903,-250.0877 657.7975,-260.0548 666.8217,-254.5036 661.3903,-250.0877"/>
</g>
<!-- Node20&#45;&gt;Node4 -->
<g id="edge23" class="edge">
<title>Node20&#45;&gt;Node4</title>
<path fill="none" stroke="#191970" d="M311.1158,-59.3805C343.2761,-37.3681 406.4033,-.2603 466.5,-.2603 466.5,-.2603 466.5,-.2603 555,-.2603 612.7778,-.2603 635.9397,3.9038 681,-32.2603 718.673,-62.4955 735.4957,-121.598 740.9166,-145.1865"/>
<polygon fill="#191970" stroke="#191970" points="309.0726,-56.5384 302.8944,-65.1454 313.0916,-62.2698 309.0726,-56.5384"/>
</g>
<!-- Node20&#45;&gt;Node21 -->
<g id="edge24" class="edge">
<title>Node20&#45;&gt;Node21</title>
<path fill="none" stroke="#191970" d="M324.9559,-68.0489C333.6077,-66.2892 342.7268,-64.4345 350.9172,-62.7686"/>
<polygon fill="#191970" stroke="#191970" points="324.1996,-64.631 315.0979,-70.0539 325.5948,-71.4905 324.1996,-64.631"/>
</g>
<!-- Node21&#45;&gt;Node3 -->
<g id="edge30" class="edge">
<title>Node21&#45;&gt;Node3</title>
<path fill="none" stroke="#191970" d="M401.958,-73.8762C403.037,-74.9685 404.0597,-76.0983 405,-77.2603 437.7273,-117.7018 457.0979,-178.3752 463.8137,-202.1723"/>
<polygon fill="#191970" stroke="#191970" points="404.1521,-71.1465 394.2937,-67.2654 399.5801,-76.4472 404.1521,-71.1465"/>
</g>
<!-- Node21&#45;&gt;Node4 -->
<g id="edge25" class="edge">
<title>Node21&#45;&gt;Node4</title>
<path fill="none" stroke="#191970" d="M415.0465,-46.4971C475.1123,-31.2853 595.6232,-10.2459 681,-57.2603 715.7425,-76.3919 733.7292,-124.1122 740.1745,-145.0921"/>
<polygon fill="#191970" stroke="#191970" points="414.0337,-43.1442 405.2472,-49.0643 415.8078,-49.9157 414.0337,-43.1442"/>
</g>
<!-- Node22 -->
<g id="node22" class="node">
<title>Node22</title>
<g id="a_node22"><a xlink:href="../../d6/dcf/pythia6425mod_8f.html#aac00ac3ccd923c2c3dc37e2b89a9f025" target="_top" xlink:title="pyinit">
<polygon fill="none" stroke="#000000" points="444,-86.2603 444,-106.2603 489,-106.2603 489,-86.2603 444,-86.2603"/>
<text text-anchor="middle" x="466.5" y="-93.2603" font-family="FreeSans" font-size="10.00" fill="#000000">pyinit</text>
</a>
</g>
</g>
<!-- Node21&#45;&gt;Node22 -->
<g id="edge26" class="edge">
<title>Node21&#45;&gt;Node22</title>
<path fill="none" stroke="#191970" d="M410.2121,-71.4554C421.3444,-76.3612 433.5767,-81.7517 443.7863,-86.2508"/>
<polygon fill="#191970" stroke="#191970" points="411.3532,-68.1336 400.7909,-67.3037 408.5304,-74.5392 411.3532,-68.1336"/>
</g>
<!-- Node22&#45;&gt;Node17 -->
<g id="edge29" class="edge">
<title>Node22&#45;&gt;Node17</title>
<path fill="none" stroke="#191970" d="M499.3096,-98.4753C508.5842,-99.0794 518.6871,-99.7167 528,-100.2603 634.3517,-106.4676 761.3352,-112.6442 813.4156,-115.1244"/>
<polygon fill="#191970" stroke="#191970" points="499.4851,-94.9794 489.2765,-97.8141 499.0247,-101.9642 499.4851,-94.9794"/>
</g>
<!-- Node23 -->
<g id="node23" class="node">
<title>Node23</title>
<g id="a_node23"><a xlink:href="../../d3/dd5/jewel-2_82_80_8f.html#a2cba90a4cdaaf1d5de1cf1bfe9afaa2e" target="_top" xlink:title="initpythia">
<polygon fill="none" stroke="#000000" points="618,-67.2603 618,-87.2603 681,-87.2603 681,-67.2603 618,-67.2603"/>
<text text-anchor="middle" x="649.5" y="-74.2603" font-family="FreeSans" font-size="10.00" fill="#000000">initpythia</text>
</a>
</g>
</g>
<!-- Node22&#45;&gt;Node23 -->
<g id="edge27" class="edge">
<title>Node22&#45;&gt;Node23</title>
<path fill="none" stroke="#191970" d="M499.5225,-92.8317C533.084,-89.3472 584.7118,-83.9869 617.792,-80.5523"/>
<polygon fill="#191970" stroke="#191970" points="498.8921,-89.3782 489.3071,-93.8923 499.6151,-96.3408 498.8921,-89.3782"/>
</g>
<!-- Node23&#45;&gt;Node14 -->
<g id="edge28" class="edge">
<title>Node23&#45;&gt;Node14</title>
<path fill="none" stroke="#191970" d="M691.4845,-77.2603C769.0934,-77.2603 932.4446,-77.2603 991.2921,-77.2603"/>
<polygon fill="#191970" stroke="#191970" points="691.1224,-73.7604 681.1224,-77.2603 691.1223,-80.7604 691.1224,-73.7604"/>
</g>
<!-- Node25 -->
<g id="node25" class="node">
<title>Node25</title>
<g id="a_node25"><a xlink:href="../../d6/dcf/pythia6425mod_8f.html#a15448b25c4eb515f33e35f86f376af68" target="_top" xlink:title="pyevol">
<polygon fill="none" stroke="#000000" points="530,-299.2603 530,-319.2603 580,-319.2603 580,-299.2603 530,-299.2603"/>
<text text-anchor="middle" x="555" y="-306.2603" font-family="FreeSans" font-size="10.00" fill="#000000">pyevol</text>
</a>
</g>
</g>
<!-- Node24&#45;&gt;Node25 -->
<g id="edge32" class="edge">
<title>Node24&#45;&gt;Node25</title>
<path fill="none" stroke="#191970" d="M500.1719,-321.0313C510.0721,-318.9058 520.7228,-316.6192 529.9796,-314.6319"/>
<polygon fill="#191970" stroke="#191970" points="499.2589,-317.6474 490.2164,-323.1686 500.7283,-324.4915 499.2589,-317.6474"/>
</g>
<!-- Node25&#45;&gt;Node18 -->
<g id="edge33" class="edge">
<title>Node25&#45;&gt;Node18</title>
<path fill="none" stroke="#191970" d="M588.677,-295.3618C600.7543,-290.3775 614.1244,-284.8597 625.2464,-280.2697"/>
<polygon fill="#191970" stroke="#191970" points="587.2446,-292.1665 579.3361,-299.2168 589.9151,-298.6372 587.2446,-292.1665"/>
</g>
<!-- Node26&#45;&gt;Node24 -->
<g id="edge36" class="edge">
<title>Node26&#45;&gt;Node24</title>
<path fill="none" stroke="#191970" d="M410.2121,-303.4554C421.3444,-308.3612 433.5767,-313.7517 443.7863,-318.2508"/>
<polygon fill="#191970" stroke="#191970" points="411.3532,-300.1336 400.7909,-299.3037 408.5304,-306.5392 411.3532,-300.1336"/>
</g>
<!-- Node26&#45;&gt;Node25 -->
<g id="edge35" class="edge">
<title>Node26&#45;&gt;Node25</title>
<path fill="none" stroke="#191970" d="M413.8494,-293.311C448.2965,-297.2034 499.4648,-302.9851 529.8047,-306.4133"/>
<polygon fill="#191970" stroke="#191970" points="414.0671,-289.8134 403.7373,-292.1684 413.2811,-296.7692 414.0671,-289.8134"/>
</g>
<!-- Node27&#45;&gt;Node3 -->
<g id="edge41" class="edge">
<title>Node27&#45;&gt;Node3</title>
<path fill="none" stroke="#191970" d="M323.7167,-164.6658C358.0305,-176.1037 410.0835,-193.4547 440.9517,-203.7442"/>
<polygon fill="#191970" stroke="#191970" points="324.7048,-161.3059 314.1111,-161.464 322.4911,-167.9467 324.7048,-161.3059"/>
</g>
<!-- Node27&#45;&gt;Node21 -->
<g id="edge47" class="edge">
<title>Node27&#45;&gt;Node21</title>
<path fill="none" stroke="#191970" d="M307.8881,-136.0292C310.3531,-133.4924 312.7903,-130.8573 315,-128.2603 332.9792,-107.1291 331.6072,-97.102 351,-77.2603 354.425,-73.7559 358.5093,-70.398 362.4516,-67.4677"/>
<polygon fill="#191970" stroke="#191970" points="305.2708,-133.6948 300.6095,-143.2091 310.1866,-138.6782 305.2708,-133.6948"/>
</g>
<!-- Node27&#45;&gt;Node26 -->
<g id="edge42" class="edge">
<title>Node27&#45;&gt;Node26</title>
<path fill="none" stroke="#191970" d="M301.648,-171.9283C320.5566,-200.9856 356.3987,-256.065 371.2709,-278.9195"/>
<polygon fill="#191970" stroke="#191970" points="304.5397,-169.955 296.1519,-163.4824 298.6726,-173.773 304.5397,-169.955"/>
</g>
<!-- Node28 -->
<g id="node28" class="node">
<title>Node28</title>
<g id="a_node28"><a xlink:href="../../d6/dcf/pythia6425mod_8f.html#aa9cb6f1467302508501201a0e38959d1" target="_top" xlink:title="pymaxi">
<polygon fill="none" stroke="#000000" points="351.5,-86.2603 351.5,-106.2603 404.5,-106.2603 404.5,-86.2603 351.5,-86.2603"/>
<text text-anchor="middle" x="378" y="-93.2603" font-family="FreeSans" font-size="10.00" fill="#000000">pymaxi</text>
</a>
</g>
</g>
<!-- Node27&#45;&gt;Node28 -->
<g id="edge39" class="edge">
<title>Node27&#45;&gt;Node28</title>
<path fill="none" stroke="#191970" d="M313.8772,-137.5597C329.3405,-127.6002 348.8906,-115.0087 362.315,-106.3625"/>
<polygon fill="#191970" stroke="#191970" points="311.834,-134.7125 305.322,-143.0698 315.6244,-140.5975 311.834,-134.7125"/>
</g>
<!-- Node29 -->
<g id="node29" class="node">
<title>Node29</title>
<g id="a_node29"><a xlink:href="../../d6/dcf/pythia6425mod_8f.html#a4ae1a9148440832c122abdaedf3555a7" target="_top" xlink:title="pymult">
<polygon fill="none" stroke="#000000" points="352,-125.2603 352,-145.2603 404,-145.2603 404,-125.2603 352,-125.2603"/>
<text text-anchor="middle" x="378" y="-132.2603" font-family="FreeSans" font-size="10.00" fill="#000000">pymult</text>
</a>
</g>
</g>
<!-- Node27&#45;&gt;Node29 -->
<g id="edge43" class="edge">
<title>Node27&#45;&gt;Node29</title>
<path fill="none" stroke="#191970" d="M324.2302,-146.1965C333.4552,-144.3202 343.2596,-142.3261 351.9351,-140.5616"/>
<polygon fill="#191970" stroke="#191970" points="323.2539,-142.8233 314.1522,-148.2463 324.6492,-149.6829 323.2539,-142.8233"/>
</g>
<!-- Node28&#45;&gt;Node22 -->
<g id="edge40" class="edge">
<title>Node28&#45;&gt;Node22</title>
<path fill="none" stroke="#191970" d="M414.605,-96.2603C424.5176,-96.2603 434.958,-96.2603 443.8545,-96.2603"/>
<polygon fill="#191970" stroke="#191970" points="414.553,-92.7604 404.5529,-96.2603 414.5529,-99.7604 414.553,-92.7604"/>
</g>
<!-- Node29&#45;&gt;Node3 -->
<g id="edge46" class="edge">
<title>Node29&#45;&gt;Node3</title>
<path fill="none" stroke="#191970" d="M397.5034,-152.2293C415.0854,-167.5267 440.3501,-189.5084 454.9273,-202.1914"/>
<polygon fill="#191970" stroke="#191970" points="399.4114,-149.2501 389.5698,-145.3267 394.8167,-154.5311 399.4114,-149.2501"/>
</g>
<!-- Node29&#45;&gt;Node4 -->
<g id="edge44" class="edge">
<title>Node29&#45;&gt;Node4</title>
<path fill="none" stroke="#191970" d="M414.4289,-137.2564C488.0673,-141.2913 653.0493,-150.3314 716.988,-153.8349"/>
<polygon fill="#191970" stroke="#191970" points="414.4264,-133.7511 404.2499,-136.6986 414.0434,-140.7406 414.4264,-133.7511"/>
</g>
<!-- Node29&#45;&gt;Node22 -->
<g id="edge45" class="edge">
<title>Node29&#45;&gt;Node22</title>
<path fill="none" stroke="#191970" d="M410.2121,-121.0651C421.3444,-116.1594 433.5767,-110.7688 443.7863,-106.2697"/>
<polygon fill="#191970" stroke="#191970" points="408.5304,-117.9813 400.7909,-125.2168 411.3532,-124.3869 408.5304,-117.9813"/>
</g>
<!-- Node30&#45;&gt;Node3 -->
<g id="edge49" class="edge">
<title>Node30&#45;&gt;Node3</title>
<path fill="none" stroke="#191970" d="M238.2121,-194.8669C291.5264,-198.9289 393.2359,-206.6782 440.7924,-210.3016"/>
<polygon fill="#191970" stroke="#191970" points="238.4619,-191.3759 228.2249,-194.106 237.93,-198.3556 238.4619,-191.3759"/>
</g>
<!-- Node30&#45;&gt;Node20 -->
<g id="edge50" class="edge">
<title>Node30&#45;&gt;Node20</title>
<path fill="none" stroke="#191970" d="M217.6497,-173.5817C235.9163,-148.5853 267.676,-105.1246 282.0515,-85.4529"/>
<polygon fill="#191970" stroke="#191970" points="214.6619,-171.7383 211.5876,-181.8773 220.3136,-175.8684 214.6619,-171.7383"/>
</g>
<!-- Node30&#45;&gt;Node27 -->
<g id="edge51" class="edge">
<title>Node30&#45;&gt;Node27</title>
<path fill="none" stroke="#191970" d="M235.1202,-178.0651C245.8751,-173.1594 257.6928,-167.7688 267.5562,-163.2697"/>
<polygon fill="#191970" stroke="#191970" points="233.664,-174.8823 226.0184,-182.2168 236.5691,-181.251 233.664,-174.8823"/>
</g>
</g>
</svg>
