<?xml version="1.0" encoding="UTF-8" standalone="no"?>
<!DOCTYPE svg PUBLIC "-//W3C//DTD SVG 1.1//EN"
 "http://www.w3.org/Graphics/SVG/1.1/DTD/svg11.dtd">
<!-- Generated by graphviz version 2.40.1 (20161225.0304)
 -->
<!-- Title: PHG4TpcDigitizer::SetTpcMinLayer Pages: 1 -->
<svg width="451pt" height="146pt"
 viewBox="0.00 0.00 451.00 146.00" xmlns="http://www.w3.org/2000/svg" xmlns:xlink="http://www.w3.org/1999/xlink">
<g id="graph0" class="graph" transform="scale(1 1) rotate(0) translate(4 142)">
<title>PHG4TpcDigitizer::SetTpcMinLayer</title>
<!-- Node1 -->
<g id="node1" class="node">
<title>Node1</title>
<polygon fill="#bfbfbf" stroke="#000000" points="0,-52.5 0,-84.5 146,-84.5 146,-52.5 0,-52.5"/>
<text text-anchor="start" x="8" y="-71.5" font-family="FreeSans" font-size="10.00" fill="#000000">PHG4TpcDigitizer::SetTpc</text>
<text text-anchor="middle" x="73" y="-59.5" font-family="FreeSans" font-size="10.00" fill="#000000">MinLayer</text>
</g>
<!-- Node2 -->
<g id="node2" class="node">
<title>Node2</title>
<g id="a_node2"><a xlink:href="../../da/d3c/G4__Tracking_8C.html#af2e3ad3bfe6a11f216bd8aed180c4b0e" target="_top" xlink:title="Tracking_Clus">
<polygon fill="none" stroke="#000000" points="182,-58.5 182,-78.5 268,-78.5 268,-58.5 182,-58.5"/>
<text text-anchor="middle" x="225" y="-65.5" font-family="FreeSans" font-size="10.00" fill="#000000">Tracking_Clus</text>
</a>
</g>
</g>
<!-- Node1&#45;&gt;Node2 -->
<g id="edge1" class="edge">
<title>Node1&#45;&gt;Node2</title>
<path fill="none" stroke="#191970" d="M156.5713,-68.5C165.2679,-68.5 173.8309,-68.5 181.7987,-68.5"/>
<polygon fill="#191970" stroke="#191970" points="156.3286,-65.0001 146.3286,-68.5 156.3286,-72.0001 156.3286,-65.0001"/>
</g>
<!-- Node3 -->
<g id="node3" class="node">
<title>Node3</title>
<g id="a_node3"><a xlink:href="../../db/dc0/Fun4All__AnaTutorial_8C.html#a8c484ea6d7477278e981ef056b17eac9" target="_top" xlink:title="Fun4All_AnaTutorial">
<polygon fill="none" stroke="#000000" points="316,-117.5 316,-137.5 431,-137.5 431,-117.5 316,-117.5"/>
<text text-anchor="middle" x="373.5" y="-124.5" font-family="FreeSans" font-size="10.00" fill="#000000">Fun4All_AnaTutorial</text>
</a>
</g>
</g>
<!-- Node2&#45;&gt;Node3 -->
<g id="edge2" class="edge">
<title>Node2&#45;&gt;Node3</title>
<path fill="none" stroke="#191970" d="M251.1909,-83.4445C266.2883,-91.6274 285.8243,-101.4967 304,-108.5 312.7542,-111.8731 322.3442,-114.9005 331.5289,-117.4954"/>
<polygon fill="#191970" stroke="#191970" points="252.8633,-80.3699 242.416,-78.6081 249.4844,-86.5004 252.8633,-80.3699"/>
</g>
<!-- Node4 -->
<g id="node4" class="node">
<title>Node4</title>
<g id="a_node4"><a xlink:href="../../dd/d28/Fun4All__AnaTutorial__Jets_8C.html#a55eaaeb770a3177f917012de87877d28" target="_top" xlink:title="Fun4All_AnaTutorial_Jets">
<polygon fill="none" stroke="#000000" points="304,-78.5 304,-98.5 443,-98.5 443,-78.5 304,-78.5"/>
<text text-anchor="middle" x="373.5" y="-85.5" font-family="FreeSans" font-size="10.00" fill="#000000">Fun4All_AnaTutorial_Jets</text>
</a>
</g>
</g>
<!-- Node2&#45;&gt;Node4 -->
<g id="edge3" class="edge">
<title>Node2&#45;&gt;Node4</title>
<path fill="none" stroke="#191970" d="M278.5278,-75.7091C286.7436,-76.8156 295.3274,-77.9717 303.8308,-79.1169"/>
<polygon fill="#191970" stroke="#191970" points="278.7293,-72.2047 268.3515,-74.3386 277.7949,-79.1421 278.7293,-72.2047"/>
</g>
<!-- Node5 -->
<g id="node5" class="node">
<title>Node5</title>
<g id="a_node5"><a xlink:href="../../d7/d9e/Fun4All__G4__fsPHENIX_8C.html#a72c444217210a14ab1b4e66d9818b1ff" target="_top" xlink:title="Fun4All_G4_fsPHENIX">
<polygon fill="none" stroke="#000000" points="311.5,-39.5 311.5,-59.5 435.5,-59.5 435.5,-39.5 311.5,-39.5"/>
<text text-anchor="middle" x="373.5" y="-46.5" font-family="FreeSans" font-size="10.00" fill="#000000">Fun4All_G4_fsPHENIX</text>
</a>
</g>
</g>
<!-- Node2&#45;&gt;Node5 -->
<g id="edge4" class="edge">
<title>Node2&#45;&gt;Node5</title>
<path fill="none" stroke="#191970" d="M278.374,-61.671C289.062,-60.3035 300.3781,-58.8557 311.3335,-57.454"/>
<polygon fill="#191970" stroke="#191970" points="277.8265,-58.2124 268.3515,-62.9533 278.7149,-65.1558 277.8265,-58.2124"/>
</g>
<!-- Node6 -->
<g id="node6" class="node">
<title>Node6</title>
<g id="a_node6"><a xlink:href="../../d0/d13/Fun4All__G4__sPHENIX_8C.html#a536fa7366e3aeaf273cca94ced704c46" target="_top" xlink:title="Fun4All_G4_sPHENIX">
<polygon fill="none" stroke="#000000" points="313,-.5 313,-20.5 434,-20.5 434,-.5 313,-.5"/>
<text text-anchor="middle" x="373.5" y="-7.5" font-family="FreeSans" font-size="10.00" fill="#000000">Fun4All_G4_sPHENIX</text>
</a>
</g>
</g>
<!-- Node2&#45;&gt;Node6 -->
<g id="edge5" class="edge">
<title>Node2&#45;&gt;Node6</title>
<path fill="none" stroke="#191970" d="M252.9319,-53.6444C267.8258,-46.0886 286.6184,-37.1274 304,-30.5 313.6201,-26.832 324.208,-23.4618 334.1567,-20.575"/>
<polygon fill="#191970" stroke="#191970" points="251.0487,-50.6773 243.7615,-58.368 254.2542,-56.9003 251.0487,-50.6773"/>
</g>
</g>
</svg>
