<?xml version="1.0" encoding="UTF-8" standalone="no"?>
<!DOCTYPE svg PUBLIC "-//W3C//DTD SVG 1.1//EN"
 "http://www.w3.org/Graphics/SVG/1.1/DTD/svg11.dtd">
<!-- Generated by graphviz version 2.40.1 (20161225.0304)
 -->
<!-- Title: SavePad Pages: 1 -->
<svg width="573pt" height="494pt"
 viewBox="0.00 0.00 573.00 494.00" xmlns="http://www.w3.org/2000/svg" xmlns:xlink="http://www.w3.org/1999/xlink">
<g id="graph0" class="graph" transform="scale(1 1) rotate(0) translate(4 490)">
<title>SavePad</title>
<!-- Node1 -->
<g id="node1" class="node">
<title>Node1</title>
<polygon fill="#bfbfbf" stroke="#000000" points="0,-214.5 0,-234.5 59,-234.5 59,-214.5 0,-214.5"/>
<text text-anchor="middle" x="29.5" y="-221.5" font-family="FreeSans" font-size="10.00" fill="#000000">SavePad</text>
</g>
<!-- Node2 -->
<g id="node2" class="node">
<title>Node2</title>
<g id="a_node2"><a xlink:href="../../d1/d31/QA__Draw__Utility_8C.html#acb5d1d0f06c58ad966ad06c5c7b36861" target="_top" xlink:title="Save canvas to multiple formats.">
<polygon fill="none" stroke="#000000" points="95,-214.5 95,-234.5 173,-234.5 173,-214.5 95,-214.5"/>
<text text-anchor="middle" x="134" y="-221.5" font-family="FreeSans" font-size="10.00" fill="#000000">SaveCanvas</text>
</a>
</g>
</g>
<!-- Node1&#45;&gt;Node2 -->
<g id="edge1" class="edge">
<title>Node1&#45;&gt;Node2</title>
<path fill="none" stroke="#191970" d="M69.4307,-224.5C77.7768,-224.5 86.5676,-224.5 94.8837,-224.5"/>
<polygon fill="#191970" stroke="#191970" points="69.166,-221.0001 59.166,-224.5 69.1659,-228.0001 69.166,-221.0001"/>
</g>
<!-- Node3 -->
<g id="node3" class="node">
<title>Node3</title>
<g id="a_node3"><a xlink:href="../../de/ddf/QA__Draw__Calorimeter__Sum__Cluster_8C.html#a8a2dccd5034a18d435992655f5bfb2fe" target="_top" xlink:title="QA_Draw_Calorimeter\l_Sum_Cluster">
<polygon fill="none" stroke="#000000" points="238.5,-453.5 238.5,-485.5 365.5,-485.5 365.5,-453.5 238.5,-453.5"/>
<text text-anchor="start" x="246.5" y="-472.5" font-family="FreeSans" font-size="10.00" fill="#000000">QA_Draw_Calorimeter</text>
<text text-anchor="middle" x="302" y="-460.5" font-family="FreeSans" font-size="10.00" fill="#000000">_Sum_Cluster</text>
</a>
</g>
</g>
<!-- Node2&#45;&gt;Node3 -->
<g id="edge2" class="edge">
<title>Node2&#45;&gt;Node3</title>
<path fill="none" stroke="#191970" d="M138.2908,-244.4892C149.1376,-293.2479 178.9369,-416.3568 209,-444.5 217.1776,-452.1554 227.445,-457.5161 238.1481,-461.2589"/>
<polygon fill="#191970" stroke="#191970" points="141.6678,-243.5484 136.1099,-234.5285 134.8298,-245.0457 141.6678,-243.5484"/>
</g>
<!-- Node4 -->
<g id="node4" class="node">
<title>Node4</title>
<g id="a_node4"><a xlink:href="../../d7/dc3/QA__Draw__Calorimeter__Sum__TrackProj_8C.html#a39f1a2eeab72ccaea9d12f16b17ead6d" target="_top" xlink:title="QA_Draw_Calorimeter\l_Sum_TrackProj">
<polygon fill="none" stroke="#000000" points="238.5,-402.5 238.5,-434.5 365.5,-434.5 365.5,-402.5 238.5,-402.5"/>
<text text-anchor="start" x="246.5" y="-421.5" font-family="FreeSans" font-size="10.00" fill="#000000">QA_Draw_Calorimeter</text>
<text text-anchor="middle" x="302" y="-409.5" font-family="FreeSans" font-size="10.00" fill="#000000">_Sum_TrackProj</text>
</a>
</g>
</g>
<!-- Node2&#45;&gt;Node4 -->
<g id="edge3" class="edge">
<title>Node2&#45;&gt;Node4</title>
<path fill="none" stroke="#191970" d="M137.1986,-244.7845C143.8954,-280.3546 162.7869,-353.9498 209,-393.5 217.3835,-400.6748 227.6258,-405.8118 238.2111,-409.4848"/>
<polygon fill="#191970" stroke="#191970" points="140.5996,-243.9133 135.4337,-234.6633 133.7037,-245.1159 140.5996,-243.9133"/>
</g>
<!-- Node5 -->
<g id="node5" class="node">
<title>Node5</title>
<g id="a_node5"><a xlink:href="../../dd/d0c/QA__Draw__Calorimeter__Sum__TrackProjEP_8C.html#aa29f3825348bb34a4ec840727f883cdc" target="_top" xlink:title="QA_Draw_Calorimeter\l_Sum_TrackProjEP">
<polygon fill="none" stroke="#000000" points="238.5,-351.5 238.5,-383.5 365.5,-383.5 365.5,-351.5 238.5,-351.5"/>
<text text-anchor="start" x="246.5" y="-370.5" font-family="FreeSans" font-size="10.00" fill="#000000">QA_Draw_Calorimeter</text>
<text text-anchor="middle" x="302" y="-358.5" font-family="FreeSans" font-size="10.00" fill="#000000">_Sum_TrackProjEP</text>
</a>
</g>
</g>
<!-- Node2&#45;&gt;Node5 -->
<g id="edge4" class="edge">
<title>Node2&#45;&gt;Node5</title>
<path fill="none" stroke="#191970" d="M141.2058,-244.2047C151.8884,-270.6217 174.4605,-317.1251 209,-342.5 217.6232,-348.8351 227.7473,-353.5652 238.0829,-357.0968"/>
<polygon fill="#191970" stroke="#191970" points="144.4554,-242.9039 137.58,-234.8429 137.9279,-245.432 144.4554,-242.9039"/>
</g>
<!-- Node6 -->
<g id="node6" class="node">
<title>Node6</title>
<g id="a_node6"><a xlink:href="../../d5/d7a/QA__Draw__CEMC__G4Hit_8C.html#adbb9a1605d8b9d5e1c765c7eb3326dd8" target="_top" xlink:title="QA_Draw_CEMC_G4Hit">
<polygon fill="none" stroke="#000000" points="236.5,-312.5 236.5,-332.5 367.5,-332.5 367.5,-312.5 236.5,-312.5"/>
<text text-anchor="middle" x="302" y="-319.5" font-family="FreeSans" font-size="10.00" fill="#000000">QA_Draw_CEMC_G4Hit</text>
</a>
</g>
</g>
<!-- Node2&#45;&gt;Node6 -->
<g id="edge5" class="edge">
<title>Node2&#45;&gt;Node6</title>
<path fill="none" stroke="#191970" d="M146.3619,-243.0201C159.6231,-261.3506 182.4027,-288.7464 209,-303.5 217.3582,-308.1363 226.7029,-311.6471 236.158,-314.3044"/>
<polygon fill="#191970" stroke="#191970" points="149.081,-240.8009 140.483,-234.6102 143.3438,-244.8115 149.081,-240.8009"/>
</g>
<!-- Node7 -->
<g id="node7" class="node">
<title>Node7</title>
<g id="a_node7"><a xlink:href="../../da/d1e/QA__Draw__CEMC__TowerCluster_8C.html#abfab074ad9ce54a54b5a0325b3366089" target="_top" xlink:title="QA_Draw_CEMC_TowerCluster">
<polygon fill="none" stroke="#000000" points="218.5,-273.5 218.5,-293.5 385.5,-293.5 385.5,-273.5 218.5,-273.5"/>
<text text-anchor="middle" x="302" y="-280.5" font-family="FreeSans" font-size="10.00" fill="#000000">QA_Draw_CEMC_TowerCluster</text>
</a>
</g>
</g>
<!-- Node2&#45;&gt;Node7 -->
<g id="edge6" class="edge">
<title>Node2&#45;&gt;Node7</title>
<path fill="none" stroke="#191970" d="M158.4578,-239.8668C172.7283,-248.2315 191.3471,-258.1412 209,-264.5 218.7676,-268.0184 229.36,-270.9558 239.7797,-273.385"/>
<polygon fill="#191970" stroke="#191970" points="160.1369,-236.7926 149.7618,-234.646 156.5337,-242.7941 160.1369,-236.7926"/>
</g>
<!-- Node8 -->
<g id="node8" class="node">
<title>Node8</title>
<g id="a_node8"><a xlink:href="../../d6/dd1/QA__Draw__HCALIN__G4Hit_8C.html#a00a56e0ee90caba9ef04b4c103a1112a" target="_top" xlink:title="QA_Draw_HCALIN_G4Hit">
<polygon fill="none" stroke="#000000" points="232.5,-234.5 232.5,-254.5 371.5,-254.5 371.5,-234.5 232.5,-234.5"/>
<text text-anchor="middle" x="302" y="-241.5" font-family="FreeSans" font-size="10.00" fill="#000000">QA_Draw_HCALIN_G4Hit</text>
</a>
</g>
</g>
<!-- Node2&#45;&gt;Node8 -->
<g id="edge7" class="edge">
<title>Node2&#45;&gt;Node8</title>
<path fill="none" stroke="#191970" d="M183.6174,-230.4068C198.8591,-232.2213 215.9262,-234.2531 232.2532,-236.1968"/>
<polygon fill="#191970" stroke="#191970" points="183.7322,-226.8959 173.3885,-229.1891 182.9046,-233.8468 183.7322,-226.8959"/>
</g>
<!-- Node9 -->
<g id="node9" class="node">
<title>Node9</title>
<g id="a_node9"><a xlink:href="../../da/dec/QA__Draw__HCALIN__TowerCluster_8C.html#ab478ea7c1602fa2ddf015530b7679140" target="_top" xlink:title="QA_Draw_HCALIN_TowerCluster">
<polygon fill="none" stroke="#000000" points="214.5,-195.5 214.5,-215.5 389.5,-215.5 389.5,-195.5 214.5,-195.5"/>
<text text-anchor="middle" x="302" y="-202.5" font-family="FreeSans" font-size="10.00" fill="#000000">QA_Draw_HCALIN_TowerCluster</text>
</a>
</g>
</g>
<!-- Node2&#45;&gt;Node9 -->
<g id="edge8" class="edge">
<title>Node2&#45;&gt;Node9</title>
<path fill="none" stroke="#191970" d="M183.3261,-218.9215C193.1569,-217.8096 203.7563,-216.6109 214.4326,-215.4035"/>
<polygon fill="#191970" stroke="#191970" points="182.9318,-215.4436 173.3885,-220.0453 183.7185,-222.3993 182.9318,-215.4436"/>
</g>
<!-- Node10 -->
<g id="node10" class="node">
<title>Node10</title>
<g id="a_node10"><a xlink:href="../../dc/d1b/QA__Draw__HCALOUT__G4Hit_8C.html#a7504e190f62782bdf942a295a198efbb" target="_top" xlink:title="QA_Draw_HCALOUT_G4Hit">
<polygon fill="none" stroke="#000000" points="227,-156.5 227,-176.5 377,-176.5 377,-156.5 227,-156.5"/>
<text text-anchor="middle" x="302" y="-163.5" font-family="FreeSans" font-size="10.00" fill="#000000">QA_Draw_HCALOUT_G4Hit</text>
</a>
</g>
</g>
<!-- Node2&#45;&gt;Node10 -->
<g id="edge9" class="edge">
<title>Node2&#45;&gt;Node10</title>
<path fill="none" stroke="#191970" d="M159.8204,-209.3353C173.9551,-201.5739 192.0074,-192.5185 209,-186.5 220.0528,-182.5853 232.1283,-179.3036 243.809,-176.605"/>
<polygon fill="#191970" stroke="#191970" points="157.7247,-206.4982 150.7218,-214.4487 161.1542,-212.6005 157.7247,-206.4982"/>
</g>
<!-- Node11 -->
<g id="node11" class="node">
<title>Node11</title>
<g id="a_node11"><a xlink:href="../../dc/d41/QA__Draw__HCALOUT__TowerCluster_8C.html#ae8bc3f24e717f257ed70355ac238953e" target="_top" xlink:title="QA_Draw_HCALOUT_TowerCluster">
<polygon fill="none" stroke="#000000" points="209,-117.5 209,-137.5 395,-137.5 395,-117.5 209,-117.5"/>
<text text-anchor="middle" x="302" y="-124.5" font-family="FreeSans" font-size="10.00" fill="#000000">QA_Draw_HCALOUT_TowerCluster</text>
</a>
</g>
</g>
<!-- Node2&#45;&gt;Node11 -->
<g id="edge10" class="edge">
<title>Node2&#45;&gt;Node11</title>
<path fill="none" stroke="#191970" d="M146.8986,-205.9793C160.3226,-188.1657 182.9954,-161.8822 209,-147.5 216.3705,-143.4237 224.4953,-140.1777 232.7814,-137.5931"/>
<polygon fill="#191970" stroke="#191970" points="143.8126,-204.2713 140.7531,-214.4148 149.4704,-208.3932 143.8126,-204.2713"/>
</g>
<!-- Node12 -->
<g id="node12" class="node">
<title>Node12</title>
<g id="a_node12"><a xlink:href="../../d5/dd9/QA__Draw__Jet__Spectrum_8C.html#a6e1498e10413b9978e8af297aa233c27" target="_top" xlink:title="QA_Draw_Jet_Spectrum">
<polygon fill="none" stroke="#000000" points="235,-78.5 235,-98.5 369,-98.5 369,-78.5 235,-78.5"/>
<text text-anchor="middle" x="302" y="-85.5" font-family="FreeSans" font-size="10.00" fill="#000000">QA_Draw_Jet_Spectrum</text>
</a>
</g>
</g>
<!-- Node2&#45;&gt;Node12 -->
<g id="edge11" class="edge">
<title>Node2&#45;&gt;Node12</title>
<path fill="none" stroke="#191970" d="M141.2594,-204.5238C151.8992,-178.2037 174.3114,-132.4533 209,-108.5 216.7462,-103.1511 225.6535,-99.1926 234.8207,-96.2705"/>
<polygon fill="#191970" stroke="#191970" points="137.8648,-203.5989 137.5307,-214.1885 144.3956,-206.1186 137.8648,-203.5989"/>
</g>
<!-- Node13 -->
<g id="node13" class="node">
<title>Node13</title>
<g id="a_node13"><a xlink:href="../../d8/dd7/QA__Draw__Jet__Summary_8C.html#acacbd134301d2f3505da62a6ad275175" target="_top" xlink:title="QA_Draw_Jet_Summary">
<polygon fill="none" stroke="#000000" points="431,-19.5 431,-39.5 565,-39.5 565,-19.5 431,-19.5"/>
<text text-anchor="middle" x="498" y="-26.5" font-family="FreeSans" font-size="10.00" fill="#000000">QA_Draw_Jet_Summary</text>
</a>
</g>
</g>
<!-- Node2&#45;&gt;Node13 -->
<g id="edge12" class="edge">
<title>Node2&#45;&gt;Node13</title>
<path fill="none" stroke="#191970" d="M137.4686,-204.3759C144.4524,-170.4904 163.6039,-102.518 209,-69.5 243.3576,-44.5106 356.7797,-35.0957 430.896,-31.5741"/>
<polygon fill="#191970" stroke="#191970" points="133.9807,-203.9825 135.5464,-214.461 140.8569,-205.2932 133.9807,-203.9825"/>
</g>
<!-- Node14 -->
<g id="node14" class="node">
<title>Node14</title>
<g id="a_node14"><a xlink:href="../../df/d0c/QA__Draw__Jet__TruthMatching_8C.html#a00615499842f35e63121a7847acfb6dd" target="_top" xlink:title="QA_Draw_Jet_TruthMatching">
<polygon fill="none" stroke="#000000" points="223.5,-.5 223.5,-20.5 380.5,-20.5 380.5,-.5 223.5,-.5"/>
<text text-anchor="middle" x="302" y="-7.5" font-family="FreeSans" font-size="10.00" fill="#000000">QA_Draw_Jet_TruthMatching</text>
</a>
</g>
</g>
<!-- Node2&#45;&gt;Node14 -->
<g id="edge13" class="edge">
<title>Node2&#45;&gt;Node14</title>
<path fill="none" stroke="#191970" d="M136.1524,-204.0015C141.3429,-165.1899 158.1431,-80.8134 209,-35.5 216.2401,-29.0491 224.9732,-24.238 234.1513,-20.6548"/>
<polygon fill="#191970" stroke="#191970" points="132.6594,-203.7337 134.9331,-214.0817 139.6087,-204.5744 132.6594,-203.7337"/>
</g>
<!-- Node14&#45;&gt;Node13 -->
<g id="edge14" class="edge">
<title>Node14&#45;&gt;Node13</title>
<path fill="none" stroke="#191970" d="M390.7947,-19.1077C404.2189,-20.409 417.8755,-21.7328 430.745,-22.9804"/>
<polygon fill="#191970" stroke="#191970" points="390.8824,-15.5998 380.5914,-18.1185 390.207,-22.5672 390.8824,-15.5998"/>
</g>
</g>
</svg>
