<?xml version="1.0" encoding="UTF-8" standalone="no"?>
<!DOCTYPE svg PUBLIC "-//W3C//DTD SVG 1.1//EN"
 "http://www.w3.org/Graphics/SVG/1.1/DTD/svg11.dtd">
<!-- Generated by graphviz version 2.40.1 (20161225.0304)
 -->
<!-- Title: ParticleFlowReco::process_event Pages: 1 -->
<svg width="601pt" height="1172pt"
 viewBox="0.00 0.00 601.00 1172.00" xmlns="http://www.w3.org/2000/svg" xmlns:xlink="http://www.w3.org/1999/xlink">
<g id="graph0" class="graph" transform="scale(1 1) rotate(0) translate(4 1168)">
<title>ParticleFlowReco::process_event</title>
<!-- Node1 -->
<g id="node1" class="node">
<title>Node1</title>
<polygon fill="#bfbfbf" stroke="#000000" points="0,-610.5 0,-642.5 146,-642.5 146,-610.5 0,-610.5"/>
<text text-anchor="start" x="8" y="-629.5" font-family="FreeSans" font-size="10.00" fill="#000000">ParticleFlowReco::process</text>
<text text-anchor="middle" x="73" y="-617.5" font-family="FreeSans" font-size="10.00" fill="#000000">_event</text>
</g>
<!-- Node2 -->
<g id="node2" class="node">
<title>Node2</title>
<g id="a_node2"><a xlink:href="../../df/d28/namespacekdfinder.html#ab72d428625e99a2d7380eb7691c246c7" target="_top" xlink:title="kdfinder::abs">
<polygon fill="none" stroke="#000000" points="226.5,-1143.5 226.5,-1163.5 309.5,-1163.5 309.5,-1143.5 226.5,-1143.5"/>
<text text-anchor="middle" x="268" y="-1150.5" font-family="FreeSans" font-size="10.00" fill="#000000">kdfinder::abs</text>
</a>
</g>
</g>
<!-- Node1&#45;&gt;Node2 -->
<g id="edge1" class="edge">
<title>Node1&#45;&gt;Node2</title>
<path fill="none" stroke="#191970" d="M74.1596,-642.5549C80.1429,-720.8888 110.0658,-1062.1274 182,-1134.5 191.1008,-1143.6563 203.5529,-1148.8397 216.1559,-1151.6748"/>
<polygon fill="#191970" stroke="#191970" points="215.7746,-1155.162 226.2344,-1153.476 217.0062,-1148.2712 215.7746,-1155.162"/>
</g>
<!-- Node4 -->
<g id="node4" class="node">
<title>Node4</title>
<g id="a_node4"><a xlink:href="../../dd/dc1/classParticleFlowElementContainer.html#a322a009f005d0e6ef84b620c11317cb2" target="_top" xlink:title="ParticleFlowElementContainer\l::AddParticleFlowElement">
<polygon fill="none" stroke="#000000" points="184,-1092.5 184,-1124.5 352,-1124.5 352,-1092.5 184,-1092.5"/>
<text text-anchor="start" x="192" y="-1111.5" font-family="FreeSans" font-size="10.00" fill="#000000">ParticleFlowElementContainer</text>
<text text-anchor="middle" x="268" y="-1099.5" font-family="FreeSans" font-size="10.00" fill="#000000">::AddParticleFlowElement</text>
</a>
</g>
</g>
<!-- Node1&#45;&gt;Node4 -->
<g id="edge3" class="edge">
<title>Node1&#45;&gt;Node4</title>
<path fill="none" stroke="#191970" d="M74.6767,-642.5434C82.6347,-715.7296 118.8566,-1017.1999 182,-1083.5 182.9048,-1084.45 183.8433,-1085.3645 184.8124,-1086.2449"/>
<polygon fill="#191970" stroke="#191970" points="182.719,-1089.0501 192.7878,-1092.347 186.9726,-1083.4907 182.719,-1089.0501"/>
</g>
<!-- Node5 -->
<g id="node5" class="node">
<title>Node5</title>
<g id="a_node5"><a xlink:href="../../d6/df9/classParticleFlowReco.html#a969dcb214e6118f53e764d7d2d426747" target="_top" xlink:title="ParticleFlowReco::calculate_dR">
<polygon fill="none" stroke="#000000" points="182,-1053.5 182,-1073.5 354,-1073.5 354,-1053.5 182,-1053.5"/>
<text text-anchor="middle" x="268" y="-1060.5" font-family="FreeSans" font-size="10.00" fill="#000000">ParticleFlowReco::calculate_dR</text>
</a>
</g>
</g>
<!-- Node1&#45;&gt;Node5 -->
<g id="edge4" class="edge">
<title>Node1&#45;&gt;Node5</title>
<path fill="none" stroke="#191970" d="M74.9642,-642.6552C83.762,-712.3653 121.7687,-986.4946 182,-1044.5 183.1358,-1045.5938 184.3196,-1046.6303 185.5458,-1047.6124"/>
<polygon fill="#191970" stroke="#191970" points="183.9213,-1050.7343 194.1924,-1053.3337 187.7841,-1044.8966 183.9213,-1050.7343"/>
</g>
<!-- Node6 -->
<g id="node6" class="node">
<title>Node6</title>
<g id="a_node6"><a xlink:href="../../da/d58/namespaceRawTowerDefs.html#afefd6e46416b49770fdbb506daa2f9ce" target="_top" xlink:title="RawTowerDefs::decode\l_caloid">
<polygon fill="none" stroke="#000000" points="201.5,-1002.5 201.5,-1034.5 334.5,-1034.5 334.5,-1002.5 201.5,-1002.5"/>
<text text-anchor="start" x="209.5" y="-1021.5" font-family="FreeSans" font-size="10.00" fill="#000000">RawTowerDefs::decode</text>
<text text-anchor="middle" x="268" y="-1009.5" font-family="FreeSans" font-size="10.00" fill="#000000">_caloid</text>
</a>
</g>
</g>
<!-- Node1&#45;&gt;Node6 -->
<g id="edge5" class="edge">
<title>Node1&#45;&gt;Node6</title>
<path fill="none" stroke="#191970" d="M75.7089,-642.7342C86.7219,-706.8987 130.0339,-941.8346 182,-993.5 185.1012,-996.5832 188.559,-999.2907 192.2575,-1001.6679"/>
<polygon fill="#191970" stroke="#191970" points="190.823,-1004.8736 201.2702,-1006.6363 194.2024,-998.7434 190.823,-1004.8736"/>
</g>
<!-- Node7 -->
<g id="node7" class="node">
<title>Node7</title>
<g id="a_node7"><a xlink:href="../../de/dc9/classPHG4Particle.html#ac4a56068140437bf45a67dae571cae48" target="_top" xlink:title="PHG4Particle::get_e">
<polygon fill="none" stroke="#000000" points="210,-963.5 210,-983.5 326,-983.5 326,-963.5 210,-963.5"/>
<text text-anchor="middle" x="268" y="-970.5" font-family="FreeSans" font-size="10.00" fill="#000000">PHG4Particle::get_e</text>
</a>
</g>
</g>
<!-- Node1&#45;&gt;Node7 -->
<g id="edge6" class="edge">
<title>Node1&#45;&gt;Node7</title>
<path fill="none" stroke="#191970" d="M76.1972,-642.7265C88.3302,-702.6948 133.3106,-910.6016 182,-954.5 187.2647,-959.2467 193.443,-962.8973 200.0312,-965.6932"/>
<polygon fill="#191970" stroke="#191970" points="199.3237,-969.1561 209.9184,-969.2059 201.6672,-962.56 199.3237,-969.1561"/>
</g>
<!-- Node8 -->
<g id="node8" class="node">
<title>Node8</title>
<g id="a_node8"><a xlink:href="../../d8/dc4/classRawTowerGeom.html#aed31c4e7b05d1f434c0cdc26fe438d46" target="_top" xlink:title="RawTowerGeom::get_eta">
<polygon fill="none" stroke="#000000" points="197.5,-924.5 197.5,-944.5 338.5,-944.5 338.5,-924.5 197.5,-924.5"/>
<text text-anchor="middle" x="268" y="-931.5" font-family="FreeSans" font-size="10.00" fill="#000000">RawTowerGeom::get_eta</text>
</a>
</g>
</g>
<!-- Node1&#45;&gt;Node8 -->
<g id="edge7" class="edge">
<title>Node1&#45;&gt;Node8</title>
<path fill="none" stroke="#191970" d="M73.9376,-642.5813C77.7099,-691.7219 96.0689,-841.0724 182,-915.5 183.9721,-917.2081 186.0633,-918.7729 188.2491,-920.2059"/>
<polygon fill="#191970" stroke="#191970" points="186.6522,-923.3224 197.0961,-925.1043 190.0429,-917.1984 186.6522,-923.3224"/>
</g>
<!-- Node9 -->
<g id="node9" class="node">
<title>Node9</title>
<g id="a_node9"><a xlink:href="../../d6/df9/classParticleFlowReco.html#a4fd2027a4fd643fbd3d49a843a4639f6" target="_top" xlink:title="ParticleFlowReco::get\l_expected_signature">
<polygon fill="none" stroke="#000000" points="205.5,-873.5 205.5,-905.5 330.5,-905.5 330.5,-873.5 205.5,-873.5"/>
<text text-anchor="start" x="213.5" y="-892.5" font-family="FreeSans" font-size="10.00" fill="#000000">ParticleFlowReco::get</text>
<text text-anchor="middle" x="268" y="-880.5" font-family="FreeSans" font-size="10.00" fill="#000000">_expected_signature</text>
</a>
</g>
</g>
<!-- Node1&#45;&gt;Node9 -->
<g id="edge8" class="edge">
<title>Node1&#45;&gt;Node9</title>
<path fill="none" stroke="#191970" d="M75.6244,-642.5642C83.472,-685.3578 110.7871,-803.0284 182,-864.5 186.2666,-868.183 191.0493,-871.3242 196.1164,-874.0033"/>
<polygon fill="#191970" stroke="#191970" points="194.9489,-877.3196 205.4942,-878.3436 197.8892,-870.967 194.9489,-877.3196"/>
</g>
<!-- Node10 -->
<g id="node10" class="node">
<title>Node10</title>
<g id="a_node10"><a xlink:href="../../d9/dd8/classRawTower.html#ae6569757f62f3bee755ebf8872f15008" target="_top" xlink:title="RawTower::get_key">
<polygon fill="none" stroke="#000000" points="212,-834.5 212,-854.5 324,-854.5 324,-834.5 212,-834.5"/>
<text text-anchor="middle" x="268" y="-841.5" font-family="FreeSans" font-size="10.00" fill="#000000">RawTower::get_key</text>
</a>
</g>
</g>
<!-- Node1&#45;&gt;Node10 -->
<g id="edge9" class="edge">
<title>Node1&#45;&gt;Node10</title>
<path fill="none" stroke="#191970" d="M76.931,-642.6696C87.1268,-680.9785 118.1884,-777.635 182,-825.5 187.9707,-829.9786 194.7911,-833.4401 201.9202,-836.1095"/>
<polygon fill="#191970" stroke="#191970" points="201.1908,-839.5513 211.7821,-839.2797 203.3331,-832.8872 201.1908,-839.5513"/>
</g>
<!-- Node12 -->
<g id="node12" class="node">
<title>Node12</title>
<g id="a_node12"><a xlink:href="../../d8/dc4/classRawTowerGeom.html#a39490c6ecb489ef5a99cf26a8f25ecfc" target="_top" xlink:title="RawTowerGeom::get_phi">
<polygon fill="none" stroke="#000000" points="198,-795.5 198,-815.5 338,-815.5 338,-795.5 198,-795.5"/>
<text text-anchor="middle" x="268" y="-802.5" font-family="FreeSans" font-size="10.00" fill="#000000">RawTowerGeom::get_phi</text>
</a>
</g>
</g>
<!-- Node1&#45;&gt;Node12 -->
<g id="edge11" class="edge">
<title>Node1&#45;&gt;Node12</title>
<path fill="none" stroke="#191970" d="M79.1659,-642.6613C92.5345,-675.3997 127.4471,-749.5694 182,-786.5 184.5759,-788.2438 187.2856,-789.8305 190.0914,-791.2739"/>
<polygon fill="#191970" stroke="#191970" points="188.7764,-794.52 199.3335,-795.4137 191.638,-788.1316 188.7764,-794.52"/>
</g>
<!-- Node13 -->
<g id="node13" class="node">
<title>Node13</title>
<g id="a_node13"><a xlink:href="../../de/dc9/classPHG4Particle.html#a474033dbd058eea155c71fc4d17aaf4d" target="_top" xlink:title="PHG4Particle::get_pid">
<polygon fill="none" stroke="#000000" points="205.5,-756.5 205.5,-776.5 330.5,-776.5 330.5,-756.5 205.5,-756.5"/>
<text text-anchor="middle" x="268" y="-763.5" font-family="FreeSans" font-size="10.00" fill="#000000">PHG4Particle::get_pid</text>
</a>
</g>
</g>
<!-- Node1&#45;&gt;Node13 -->
<g id="edge12" class="edge">
<title>Node1&#45;&gt;Node13</title>
<path fill="none" stroke="#191970" d="M82.7997,-642.7557C99.6092,-669.1486 136.5592,-721.029 182,-747.5 186.2362,-749.9677 190.7603,-752.1154 195.4337,-753.9844"/>
<polygon fill="#191970" stroke="#191970" points="194.597,-757.4011 205.1918,-757.4427 196.9354,-750.8032 194.597,-757.4011"/>
</g>
<!-- Node14 -->
<g id="node14" class="node">
<title>Node14</title>
<g id="a_node14"><a xlink:href="../../de/dc9/classPHG4Particle.html#a44b98bfd72a04825791d1e4c4cb150a1" target="_top" xlink:title="PHG4Particle::get_px">
<polygon fill="none" stroke="#000000" points="207,-717.5 207,-737.5 329,-737.5 329,-717.5 207,-717.5"/>
<text text-anchor="middle" x="268" y="-724.5" font-family="FreeSans" font-size="10.00" fill="#000000">PHG4Particle::get_px</text>
</a>
</g>
</g>
<!-- Node1&#45;&gt;Node14 -->
<g id="edge13" class="edge">
<title>Node1&#45;&gt;Node14</title>
<path fill="none" stroke="#191970" d="M89.613,-642.6789C109.7858,-661.3948 145.6431,-691.773 182,-708.5 186.7403,-710.6809 191.745,-712.618 196.8593,-714.3375"/>
<polygon fill="#191970" stroke="#191970" points="196.2022,-717.7968 206.7889,-717.383 198.2548,-711.1045 196.2022,-717.7968"/>
</g>
<!-- Node15 -->
<g id="node15" class="node">
<title>Node15</title>
<g id="a_node15"><a xlink:href="../../de/dc9/classPHG4Particle.html#a3df4379f9e46224a8cca7f86c11e99e5" target="_top" xlink:title="PHG4Particle::get_py">
<polygon fill="none" stroke="#000000" points="207,-678.5 207,-698.5 329,-698.5 329,-678.5 207,-678.5"/>
<text text-anchor="middle" x="268" y="-685.5" font-family="FreeSans" font-size="10.00" fill="#000000">PHG4Particle::get_py</text>
</a>
</g>
</g>
<!-- Node1&#45;&gt;Node15 -->
<g id="edge14" class="edge">
<title>Node1&#45;&gt;Node15</title>
<path fill="none" stroke="#191970" d="M109.3174,-642.5C130.2737,-651.3075 157.2926,-661.9492 182,-669.5 189.797,-671.8828 198.0769,-674.0973 206.3002,-676.1102"/>
<polygon fill="#191970" stroke="#191970" points="205.7299,-679.5717 216.2666,-678.4633 207.3384,-672.759 205.7299,-679.5717"/>
</g>
<!-- Node16 -->
<g id="node16" class="node">
<title>Node16</title>
<g id="a_node16"><a xlink:href="../../de/dc9/classPHG4Particle.html#a533e9bda40b15f62802b187e6a743e74" target="_top" xlink:title="PHG4Particle::get_pz">
<polygon fill="none" stroke="#000000" points="207,-639.5 207,-659.5 329,-659.5 329,-639.5 207,-639.5"/>
<text text-anchor="middle" x="268" y="-646.5" font-family="FreeSans" font-size="10.00" fill="#000000">PHG4Particle::get_pz</text>
</a>
</g>
</g>
<!-- Node1&#45;&gt;Node16 -->
<g id="edge15" class="edge">
<title>Node1&#45;&gt;Node16</title>
<path fill="none" stroke="#191970" d="M146.1656,-635.1298C162.7223,-637.0826 180.2792,-639.1534 196.7552,-641.0968"/>
<polygon fill="#191970" stroke="#191970" points="196.5145,-644.5926 206.8556,-642.2881 197.3345,-637.6407 196.5145,-644.5926"/>
</g>
<!-- Node17 -->
<g id="node17" class="node">
<title>Node17</title>
<g id="a_node17"><a xlink:href="../../df/d49/classRawTowerGeomContainer.html#a46e80e9792b3323f3197a1d9af1cd049" target="_top" xlink:title="RawTowerGeomContainer\l::get_tower_geometry">
<polygon fill="none" stroke="#000000" points="194.5,-588.5 194.5,-620.5 341.5,-620.5 341.5,-588.5 194.5,-588.5"/>
<text text-anchor="start" x="202.5" y="-607.5" font-family="FreeSans" font-size="10.00" fill="#000000">RawTowerGeomContainer</text>
<text text-anchor="middle" x="268" y="-595.5" font-family="FreeSans" font-size="10.00" fill="#000000">::get_tower_geometry</text>
</a>
</g>
</g>
<!-- Node1&#45;&gt;Node17 -->
<g id="edge16" class="edge">
<title>Node1&#45;&gt;Node17</title>
<path fill="none" stroke="#191970" d="M146.1656,-618.2454C158.6156,-616.8408 171.6312,-615.3724 184.3275,-613.94"/>
<polygon fill="#191970" stroke="#191970" points="184.8798,-617.4 194.4243,-612.8008 184.095,-610.4441 184.8798,-617.4"/>
</g>
<!-- Node18 -->
<g id="node18" class="node">
<title>Node18</title>
<g id="a_node18"><a xlink:href="../../d6/d12/classRawClusterContainer.html#ad46de2d53756226cbd310e45a2e475d0" target="_top" xlink:title="return all clusters">
<polygon fill="none" stroke="#000000" points="206.5,-537.5 206.5,-569.5 329.5,-569.5 329.5,-537.5 206.5,-537.5"/>
<text text-anchor="start" x="214.5" y="-556.5" font-family="FreeSans" font-size="10.00" fill="#000000">RawClusterContainer</text>
<text text-anchor="middle" x="268" y="-544.5" font-family="FreeSans" font-size="10.00" fill="#000000">::getClusters</text>
</a>
</g>
</g>
<!-- Node1&#45;&gt;Node18 -->
<g id="edge17" class="edge">
<title>Node1&#45;&gt;Node18</title>
<path fill="none" stroke="#191970" d="M107.448,-610.4534C128.6956,-600.8558 156.6436,-588.7658 182,-579.5 188.3981,-577.162 195.1161,-574.865 201.8585,-572.6631"/>
<polygon fill="#191970" stroke="#191970" points="203.2603,-575.8896 211.7201,-569.5114 201.1293,-569.2219 203.2603,-575.8896"/>
</g>
<!-- Node19 -->
<g id="node19" class="node">
<title>Node19</title>
<g id="a_node19"><a xlink:href="../../dd/dc1/classParticleFlowElementContainer.html#a95750576b9afe628ae17c9e90b5fbf8f" target="_top" xlink:title="return all elements">
<polygon fill="none" stroke="#000000" points="184,-486.5 184,-518.5 352,-518.5 352,-486.5 184,-486.5"/>
<text text-anchor="start" x="192" y="-505.5" font-family="FreeSans" font-size="10.00" fill="#000000">ParticleFlowElementContainer</text>
<text text-anchor="middle" x="268" y="-493.5" font-family="FreeSans" font-size="10.00" fill="#000000">::getParticleFlowElements</text>
</a>
</g>
</g>
<!-- Node1&#45;&gt;Node19 -->
<g id="edge18" class="edge">
<title>Node1&#45;&gt;Node19</title>
<path fill="none" stroke="#191970" d="M86.8481,-610.2098C106.0908,-588.5575 142.9765,-550.4794 182,-528.5 185.8499,-526.3316 189.9009,-524.3247 194.0613,-522.4701"/>
<polygon fill="#191970" stroke="#191970" points="195.4023,-525.7031 203.3082,-518.6499 192.7294,-519.2335 195.4023,-525.7031"/>
</g>
<!-- Node20 -->
<g id="node20" class="node">
<title>Node20</title>
<g id="a_node20"><a xlink:href="../../da/d6c/classPHG4TruthInfoContainer.html#a2817b4438bb80cacb28f457975342cf2" target="_top" xlink:title="PHG4TruthInfoContainer\l::GetPrimaryParticleRange">
<polygon fill="none" stroke="#000000" points="193.5,-435.5 193.5,-467.5 342.5,-467.5 342.5,-435.5 193.5,-435.5"/>
<text text-anchor="start" x="201.5" y="-454.5" font-family="FreeSans" font-size="10.00" fill="#000000">PHG4TruthInfoContainer</text>
<text text-anchor="middle" x="268" y="-442.5" font-family="FreeSans" font-size="10.00" fill="#000000">::GetPrimaryParticleRange</text>
</a>
</g>
</g>
<!-- Node1&#45;&gt;Node20 -->
<g id="edge19" class="edge">
<title>Node1&#45;&gt;Node20</title>
<path fill="none" stroke="#191970" d="M80.3843,-610.3673C95.2044,-579.7886 131.5259,-513.2604 182,-477.5 184.6728,-475.6064 187.4857,-473.8485 190.3979,-472.2168"/>
<polygon fill="#191970" stroke="#191970" points="192.032,-475.3127 199.3911,-467.6907 188.8851,-469.0599 192.032,-475.3127"/>
</g>
<!-- Node21 -->
<g id="node21" class="node">
<title>Node21</title>
<g id="a_node21"><a xlink:href="../../d3/dc7/classRawTowerContainer.html#a94a3368d6cd85ea4c3f204cd1065da26" target="_top" xlink:title="RawTowerContainer::\lgetTower">
<polygon fill="none" stroke="#000000" points="207,-384.5 207,-416.5 329,-416.5 329,-384.5 207,-384.5"/>
<text text-anchor="start" x="215" y="-403.5" font-family="FreeSans" font-size="10.00" fill="#000000">RawTowerContainer::</text>
<text text-anchor="middle" x="268" y="-391.5" font-family="FreeSans" font-size="10.00" fill="#000000">getTower</text>
</a>
</g>
</g>
<!-- Node1&#45;&gt;Node21 -->
<g id="edge20" class="edge">
<title>Node1&#45;&gt;Node21</title>
<path fill="none" stroke="#191970" d="M77.2309,-610.2843C87.9882,-572.2841 120.0238,-476.8946 182,-426.5 186.6517,-422.7175 191.8454,-419.4848 197.3133,-416.7219"/>
<polygon fill="#191970" stroke="#191970" points="199.0339,-419.7863 206.7272,-412.5018 196.1704,-413.3988 199.0339,-419.7863"/>
</g>
<!-- Node22 -->
<g id="node22" class="node">
<title>Node22</title>
<g id="a_node22"><a xlink:href="../../d5/d27/classParticleFlowElement.html#a87373c2caa6c2793e1316233d0eb9df1" target="_top" xlink:title="ParticleFlowElement\l::set_e">
<polygon fill="none" stroke="#000000" points="208.5,-333.5 208.5,-365.5 327.5,-365.5 327.5,-333.5 208.5,-333.5"/>
<text text-anchor="start" x="216.5" y="-352.5" font-family="FreeSans" font-size="10.00" fill="#000000">ParticleFlowElement</text>
<text text-anchor="middle" x="268" y="-340.5" font-family="FreeSans" font-size="10.00" fill="#000000">::set_e</text>
</a>
</g>
</g>
<!-- Node1&#45;&gt;Node22 -->
<g id="edge21" class="edge">
<title>Node1&#45;&gt;Node22</title>
<path fill="none" stroke="#191970" d="M75.2744,-610.266C82.3642,-565.8375 108.1899,-441.2022 182,-375.5 187.0881,-370.9708 192.943,-367.2303 199.155,-364.1411"/>
<polygon fill="#191970" stroke="#191970" points="200.7074,-367.2822 208.464,-360.0652 197.8998,-360.8699 200.7074,-367.2822"/>
</g>
<!-- Node23 -->
<g id="node23" class="node">
<title>Node23</title>
<g id="a_node23"><a xlink:href="../../d5/d27/classParticleFlowElement.html#a1c201bb67c36139217eb8fa5f511230d" target="_top" xlink:title="ParticleFlowElement\l::set_id">
<polygon fill="none" stroke="#000000" points="208.5,-282.5 208.5,-314.5 327.5,-314.5 327.5,-282.5 208.5,-282.5"/>
<text text-anchor="start" x="216.5" y="-301.5" font-family="FreeSans" font-size="10.00" fill="#000000">ParticleFlowElement</text>
<text text-anchor="middle" x="268" y="-289.5" font-family="FreeSans" font-size="10.00" fill="#000000">::set_id</text>
</a>
</g>
</g>
<!-- Node1&#45;&gt;Node23 -->
<g id="edge22" class="edge">
<title>Node1&#45;&gt;Node23</title>
<path fill="none" stroke="#191970" d="M73.9281,-610.3651C77.6903,-560.29 96.0622,-406.0171 182,-324.5 186.9422,-319.812 192.701,-315.9669 198.8539,-312.8134"/>
<polygon fill="#191970" stroke="#191970" points="200.4063,-315.9532 208.1014,-308.6706 197.5444,-309.5649 200.4063,-315.9532"/>
</g>
<!-- Node24 -->
<g id="node24" class="node">
<title>Node24</title>
<g id="a_node24"><a xlink:href="../../d5/d27/classParticleFlowElement.html#af0fc17dbb5a53b58b6caea549f09016d" target="_top" xlink:title="ParticleFlowElement\l::set_px">
<polygon fill="none" stroke="#000000" points="208.5,-231.5 208.5,-263.5 327.5,-263.5 327.5,-231.5 208.5,-231.5"/>
<text text-anchor="start" x="216.5" y="-250.5" font-family="FreeSans" font-size="10.00" fill="#000000">ParticleFlowElement</text>
<text text-anchor="middle" x="268" y="-238.5" font-family="FreeSans" font-size="10.00" fill="#000000">::set_px</text>
</a>
</g>
</g>
<!-- Node1&#45;&gt;Node24 -->
<g id="edge23" class="edge">
<title>Node1&#45;&gt;Node24</title>
<path fill="none" stroke="#191970" d="M75.8919,-610.4722C87.4281,-548.1893 131.9638,-323.2416 182,-273.5 186.9053,-268.6236 192.6916,-264.6564 198.9065,-261.4298"/>
<polygon fill="#191970" stroke="#191970" points="200.5866,-264.5118 208.2661,-257.2128 197.711,-258.1297 200.5866,-264.5118"/>
</g>
<!-- Node25 -->
<g id="node25" class="node">
<title>Node25</title>
<g id="a_node25"><a xlink:href="../../d5/d27/classParticleFlowElement.html#aa070873b84775bfb58605b0e697f3bb8" target="_top" xlink:title="ParticleFlowElement\l::set_py">
<polygon fill="none" stroke="#000000" points="208.5,-180.5 208.5,-212.5 327.5,-212.5 327.5,-180.5 208.5,-180.5"/>
<text text-anchor="start" x="216.5" y="-199.5" font-family="FreeSans" font-size="10.00" fill="#000000">ParticleFlowElement</text>
<text text-anchor="middle" x="268" y="-187.5" font-family="FreeSans" font-size="10.00" fill="#000000">::set_py</text>
</a>
</g>
</g>
<!-- Node1&#45;&gt;Node25 -->
<g id="edge24" class="edge">
<title>Node1&#45;&gt;Node25</title>
<path fill="none" stroke="#191970" d="M75.2857,-610.0766C85.114,-541.6855 125.8438,-280.3703 182,-222.5 186.8898,-217.461 192.7191,-213.3902 199.0063,-210.1029"/>
<polygon fill="#191970" stroke="#191970" points="200.8126,-213.1277 208.4892,-205.8257 197.9345,-206.7468 200.8126,-213.1277"/>
</g>
<!-- Node26 -->
<g id="node26" class="node">
<title>Node26</title>
<g id="a_node26"><a xlink:href="../../d5/d27/classParticleFlowElement.html#a1ac5fd09faf97df5aea054beb345d2c3" target="_top" xlink:title="ParticleFlowElement\l::set_pz">
<polygon fill="none" stroke="#000000" points="208.5,-129.5 208.5,-161.5 327.5,-161.5 327.5,-129.5 208.5,-129.5"/>
<text text-anchor="start" x="216.5" y="-148.5" font-family="FreeSans" font-size="10.00" fill="#000000">ParticleFlowElement</text>
<text text-anchor="middle" x="268" y="-136.5" font-family="FreeSans" font-size="10.00" fill="#000000">::set_pz</text>
</a>
</g>
</g>
<!-- Node1&#45;&gt;Node26 -->
<g id="edge25" class="edge">
<title>Node1&#45;&gt;Node26</title>
<path fill="none" stroke="#191970" d="M74.7576,-610.0515C82.9414,-536.4049 119.5782,-237.682 182,-171.5 186.8177,-166.392 192.6003,-162.2766 198.8595,-158.9624"/>
<polygon fill="#191970" stroke="#191970" points="200.6631,-161.987 208.3139,-154.658 197.7625,-155.6162 200.6631,-161.987"/>
</g>
<!-- Node27 -->
<g id="node27" class="node">
<title>Node27</title>
<g id="a_node27"><a xlink:href="../../d4/d4a/ParticleFlowReco_8cc.html#a5fad907e2375e702ba1e32023dbd1cc3" target="_top" xlink:title="sort_by_pair_second\l_lowest">
<polygon fill="none" stroke="#000000" points="208.5,-78.5 208.5,-110.5 327.5,-110.5 327.5,-78.5 208.5,-78.5"/>
<text text-anchor="start" x="216.5" y="-97.5" font-family="FreeSans" font-size="10.00" fill="#000000">sort_by_pair_second</text>
<text text-anchor="middle" x="268" y="-85.5" font-family="FreeSans" font-size="10.00" fill="#000000">_lowest</text>
</a>
</g>
</g>
<!-- Node1&#45;&gt;Node27 -->
<g id="edge26" class="edge">
<title>Node1&#45;&gt;Node27</title>
<path fill="none" stroke="#191970" d="M74.3045,-610.3582C80.92,-532.3548 113.1789,-195.1654 182,-120.5 186.7588,-115.3371 192.5032,-111.186 198.7393,-107.8504"/>
<polygon fill="#191970" stroke="#191970" points="200.5404,-110.875 208.1705,-103.5242 197.6218,-104.5124 200.5404,-110.875"/>
</g>
<!-- Node28 -->
<g id="node28" class="node">
<title>Node28</title>
<g id="a_node28"><a xlink:href="../../d7/ddb/egutils_8cpp.html#a6898c4326d3dbd8ba593c91b6a00ac31" target="_top" xlink:title="vector">
<polygon fill="none" stroke="#000000" points="243.5,-39.5 243.5,-59.5 292.5,-59.5 292.5,-39.5 243.5,-39.5"/>
<text text-anchor="middle" x="268" y="-46.5" font-family="FreeSans" font-size="10.00" fill="#000000">vector</text>
</a>
</g>
</g>
<!-- Node1&#45;&gt;Node28 -->
<g id="edge27" class="edge">
<title>Node1&#45;&gt;Node28</title>
<path fill="none" stroke="#191970" d="M73.8575,-610.3251C78.5856,-527.3389 104.1535,-150.1399 182,-69.5 195.1718,-55.8556 215.6981,-50.7281 233.3942,-49.0722"/>
<polygon fill="#191970" stroke="#191970" points="233.6414,-52.5637 243.4093,-48.4603 233.2144,-45.5768 233.6414,-52.5637"/>
</g>
<!-- Node31 -->
<g id="node31" class="node">
<title>Node31</title>
<g id="a_node31"><a xlink:href="../../d5/dec/classFun4AllBase.html#a8a5c77a92bdac6bc043476e132379a40" target="_top" xlink:title="Gets the verbosity of this module.">
<polygon fill="none" stroke="#000000" points="202,-.5 202,-20.5 334,-20.5 334,-.5 202,-.5"/>
<text text-anchor="middle" x="268" y="-7.5" font-family="FreeSans" font-size="10.00" fill="#000000">Fun4AllBase::Verbosity</text>
</a>
</g>
</g>
<!-- Node1&#45;&gt;Node31 -->
<g id="edge30" class="edge">
<title>Node1&#45;&gt;Node31</title>
<path fill="none" stroke="#191970" d="M73.6322,-610.356C77.3428,-524.0171 99.0683,-117.4772 182,-30.5 185.1801,-27.1648 188.7992,-24.3371 192.7104,-21.9438"/>
<polygon fill="#191970" stroke="#191970" points="194.3631,-25.0299 201.6824,-17.3696 191.1837,-18.7936 194.3631,-25.0299"/>
</g>
<!-- Node3 -->
<g id="node3" class="node">
<title>Node3</title>
<g id="a_node3"><a xlink:href="../../d8/dc7/classkdfinder_1_1TVector.html#ac9649c7577f12a7502ed523260f4ee90" target="_top" xlink:title="kdfinder::TVector::mag">
<polygon fill="none" stroke="#000000" points="390,-1143.5 390,-1163.5 522,-1163.5 522,-1143.5 390,-1143.5"/>
<text text-anchor="middle" x="456" y="-1150.5" font-family="FreeSans" font-size="10.00" fill="#000000">kdfinder::TVector::mag</text>
</a>
</g>
</g>
<!-- Node2&#45;&gt;Node3 -->
<g id="edge2" class="edge">
<title>Node2&#45;&gt;Node3</title>
<path fill="none" stroke="#191970" d="M309.7233,-1153.5C330.2633,-1153.5 355.6861,-1153.5 379.5454,-1153.5"/>
<polygon fill="#191970" stroke="#191970" points="379.6563,-1157.0001 389.6562,-1153.5 379.6562,-1150.0001 379.6563,-1157.0001"/>
</g>
<!-- Node11 -->
<g id="node11" class="node">
<title>Node11</title>
<g id="a_node11"><a xlink:href="../../d9/dd8/classRawTower.html#acb57721d39800bb8a23ffc10ae66d198" target="_top" xlink:title="RawTower::get_id">
<polygon fill="none" stroke="#000000" points="404,-834.5 404,-854.5 508,-854.5 508,-834.5 404,-834.5"/>
<text text-anchor="middle" x="456" y="-841.5" font-family="FreeSans" font-size="10.00" fill="#000000">RawTower::get_id</text>
</a>
</g>
</g>
<!-- Node10&#45;&gt;Node11 -->
<g id="edge10" class="edge">
<title>Node10&#45;&gt;Node11</title>
<path fill="none" stroke="#191970" d="M324.1515,-844.5C346.1072,-844.5 371.3701,-844.5 393.8698,-844.5"/>
<polygon fill="#191970" stroke="#191970" points="393.9913,-848.0001 403.9913,-844.5 393.9912,-841.0001 393.9913,-848.0001"/>
</g>
<!-- Node29 -->
<g id="node29" class="node">
<title>Node29</title>
<g id="a_node29"><a xlink:href="../../d7/ddb/egutils_8cpp.html#a0669a7d0e70f2da34b4a11d9c669d6b6" target="_top" xlink:title="nrerror">
<polygon fill="none" stroke="#000000" points="430.5,-39.5 430.5,-59.5 481.5,-59.5 481.5,-39.5 430.5,-39.5"/>
<text text-anchor="middle" x="456" y="-46.5" font-family="FreeSans" font-size="10.00" fill="#000000">nrerror</text>
</a>
</g>
</g>
<!-- Node28&#45;&gt;Node29 -->
<g id="edge28" class="edge">
<title>Node28&#45;&gt;Node29</title>
<path fill="none" stroke="#191970" d="M292.5777,-49.5C325.0083,-49.5 382.3479,-49.5 419.7578,-49.5"/>
<polygon fill="#191970" stroke="#191970" points="420.2106,-53.0001 430.2106,-49.5 420.2106,-46.0001 420.2106,-53.0001"/>
</g>
<!-- Node30 -->
<g id="node30" class="node">
<title>Node30</title>
<g id="a_node30"><a xlink:href="../../df/de8/cemc_8C.html#adf5c804dfce7a70e36dda02995fad481" target="_top" xlink:title="exit">
<polygon fill="none" stroke="#000000" points="558,-39.5 558,-59.5 593,-59.5 593,-39.5 558,-39.5"/>
<text text-anchor="middle" x="575.5" y="-46.5" font-family="FreeSans" font-size="10.00" fill="#000000">exit</text>
</a>
</g>
</g>
<!-- Node29&#45;&gt;Node30 -->
<g id="edge29" class="edge">
<title>Node29&#45;&gt;Node30</title>
<path fill="none" stroke="#191970" d="M481.6357,-49.5C501.052,-49.5 527.696,-49.5 547.6375,-49.5"/>
<polygon fill="#191970" stroke="#191970" points="547.6591,-53.0001 557.6591,-49.5 547.659,-46.0001 547.6591,-53.0001"/>
</g>
</g>
</svg>
