<?xml version="1.0" encoding="UTF-8" standalone="no"?>
<!DOCTYPE svg PUBLIC "-//W3C//DTD SVG 1.1//EN"
 "http://www.w3.org/Graphics/SVG/1.1/DTD/svg11.dtd">
<!-- Generated by graphviz version 2.40.1 (20161225.0304)
 -->
<!-- Title: DRich Pages: 1 -->
<svg width="324pt" height="224pt"
 viewBox="0.00 0.00 324.00 224.00" xmlns="http://www.w3.org/2000/svg" xmlns:xlink="http://www.w3.org/1999/xlink">
<g id="graph0" class="graph" transform="scale(1 1) rotate(0) translate(4 220)">
<title>DRich</title>
<!-- Node1 -->
<g id="node1" class="node">
<title>Node1</title>
<polygon fill="#bfbfbf" stroke="#000000" points="0,-97.5 0,-117.5 45,-117.5 45,-97.5 0,-97.5"/>
<text text-anchor="middle" x="22.5" y="-104.5" font-family="FreeSans" font-size="10.00" fill="#000000">DRich</text>
</g>
<!-- Node2 -->
<g id="node2" class="node">
<title>Node2</title>
<g id="a_node2"><a xlink:href="../../d0/dd0/G4Setup__JLeic_8C.html#ae51ed477963c36fe17047cf934f36ef0" target="_top" xlink:title="G4Setup">
<polygon fill="none" stroke="#000000" points="81,-97.5 81,-117.5 141,-117.5 141,-97.5 81,-97.5"/>
<text text-anchor="middle" x="111" y="-104.5" font-family="FreeSans" font-size="10.00" fill="#000000">G4Setup</text>
</a>
</g>
</g>
<!-- Node1&#45;&gt;Node2 -->
<g id="edge1" class="edge">
<title>Node1&#45;&gt;Node2</title>
<path fill="none" stroke="#191970" d="M55.4643,-107.5C63.8159,-107.5 72.7422,-107.5 80.9415,-107.5"/>
<polygon fill="#191970" stroke="#191970" points="55.291,-104.0001 45.2909,-107.5 55.2909,-111.0001 55.291,-104.0001"/>
</g>
<!-- Node3 -->
<g id="node3" class="node">
<title>Node3</title>
<g id="a_node3"><a xlink:href="../../d0/d87/Fun4All__G4__JLeic_8C.html#a66e8fc0b01ee0a8e805c7b99c4698974" target="_top" xlink:title="Fun4All_G4_JLeic">
<polygon fill="none" stroke="#000000" points="196,-195.5 196,-215.5 297,-215.5 297,-195.5 196,-195.5"/>
<text text-anchor="middle" x="246.5" y="-202.5" font-family="FreeSans" font-size="10.00" fill="#000000">Fun4All_G4_JLeic</text>
</a>
</g>
</g>
<!-- Node2&#45;&gt;Node3 -->
<g id="edge2" class="edge">
<title>Node2&#45;&gt;Node3</title>
<path fill="none" stroke="#191970" d="M121.8951,-126.2352C133.3602,-144.3079 153.0528,-171.1223 177,-186.5 182.789,-190.2174 189.2985,-193.2145 195.9517,-195.6292"/>
<polygon fill="#191970" stroke="#191970" points="124.8724,-124.3949 116.6706,-117.688 118.8998,-128.0457 124.8724,-124.3949"/>
</g>
<!-- Node4 -->
<g id="node4" class="node">
<title>Node4</title>
<g id="a_node4"><a xlink:href="../../da/d02/Fun4All__G4__EICDetector_8C.html#afbe82cefa1d1fd031d9a8586b7bb68c6" target="_top" xlink:title="Fun4All_G4_EICDetector">
<polygon fill="none" stroke="#000000" points="177,-156.5 177,-176.5 316,-176.5 316,-156.5 177,-156.5"/>
<text text-anchor="middle" x="246.5" y="-163.5" font-family="FreeSans" font-size="10.00" fill="#000000">Fun4All_G4_EICDetector</text>
</a>
</g>
</g>
<!-- Node2&#45;&gt;Node4 -->
<g id="edge3" class="edge">
<title>Node2&#45;&gt;Node4</title>
<path fill="none" stroke="#191970" d="M133.3948,-123.2207C145.7938,-131.3629 161.7452,-140.9447 177,-147.5 185.0448,-150.957 193.8865,-153.9441 202.4877,-156.4597"/>
<polygon fill="#191970" stroke="#191970" points="135.3059,-120.2881 125.055,-117.6103 131.3986,-126.0961 135.3059,-120.2881"/>
</g>
<!-- Node5 -->
<g id="node5" class="node">
<title>Node5</title>
<g id="a_node5"><a xlink:href="../../d7/d9e/Fun4All__G4__fsPHENIX_8C.html#a72c444217210a14ab1b4e66d9818b1ff" target="_top" xlink:title="Fun4All_G4_fsPHENIX">
<polygon fill="none" stroke="#000000" points="184.5,-117.5 184.5,-137.5 308.5,-137.5 308.5,-117.5 184.5,-117.5"/>
<text text-anchor="middle" x="246.5" y="-124.5" font-family="FreeSans" font-size="10.00" fill="#000000">Fun4All_G4_fsPHENIX</text>
</a>
</g>
</g>
<!-- Node2&#45;&gt;Node5 -->
<g id="edge4" class="edge">
<title>Node2&#45;&gt;Node5</title>
<path fill="none" stroke="#191970" d="M151.1074,-113.4199C161.5416,-114.96 173.0316,-116.656 184.3144,-118.3213"/>
<polygon fill="#191970" stroke="#191970" points="151.4758,-109.9364 141.0718,-111.9386 150.4536,-116.8614 151.4758,-109.9364"/>
</g>
<!-- Node6 -->
<g id="node6" class="node">
<title>Node6</title>
<g id="a_node6"><a xlink:href="../../d0/d13/Fun4All__G4__sPHENIX_8C.html#a536fa7366e3aeaf273cca94ced704c46" target="_top" xlink:title="Fun4All_G4_sPHENIX">
<polygon fill="none" stroke="#000000" points="186,-78.5 186,-98.5 307,-98.5 307,-78.5 186,-78.5"/>
<text text-anchor="middle" x="246.5" y="-85.5" font-family="FreeSans" font-size="10.00" fill="#000000">Fun4All_G4_sPHENIX</text>
</a>
</g>
</g>
<!-- Node2&#45;&gt;Node6 -->
<g id="edge5" class="edge">
<title>Node2&#45;&gt;Node6</title>
<path fill="none" stroke="#191970" d="M151.1511,-101.87C162.0828,-100.3371 174.1708,-98.6421 185.964,-96.9884"/>
<polygon fill="#191970" stroke="#191970" points="150.4889,-98.4285 141.0718,-103.2833 151.461,-105.3607 150.4889,-98.4285"/>
</g>
<!-- Node7 -->
<g id="node7" class="node">
<title>Node7</title>
<g id="a_node7"><a xlink:href="../../db/dc0/Fun4All__AnaTutorial_8C.html#a8c484ea6d7477278e981ef056b17eac9" target="_top" xlink:title="Fun4All_AnaTutorial">
<polygon fill="none" stroke="#000000" points="189,-39.5 189,-59.5 304,-59.5 304,-39.5 189,-39.5"/>
<text text-anchor="middle" x="246.5" y="-46.5" font-family="FreeSans" font-size="10.00" fill="#000000">Fun4All_AnaTutorial</text>
</a>
</g>
</g>
<!-- Node2&#45;&gt;Node7 -->
<g id="edge6" class="edge">
<title>Node2&#45;&gt;Node7</title>
<path fill="none" stroke="#191970" d="M134.8672,-91.8801C147.0999,-84.3663 162.4514,-75.6734 177,-69.5 186.0153,-65.6745 195.989,-62.3235 205.5,-59.513"/>
<polygon fill="#191970" stroke="#191970" points="132.7909,-89.0511 126.1855,-97.3348 136.515,-94.9783 132.7909,-89.0511"/>
</g>
<!-- Node8 -->
<g id="node8" class="node">
<title>Node8</title>
<g id="a_node8"><a xlink:href="../../dd/d28/Fun4All__AnaTutorial__Jets_8C.html#a55eaaeb770a3177f917012de87877d28" target="_top" xlink:title="Fun4All_AnaTutorial_Jets">
<polygon fill="none" stroke="#000000" points="177,-.5 177,-20.5 316,-20.5 316,-.5 177,-.5"/>
<text text-anchor="middle" x="246.5" y="-7.5" font-family="FreeSans" font-size="10.00" fill="#000000">Fun4All_AnaTutorial_Jets</text>
</a>
</g>
</g>
<!-- Node2&#45;&gt;Node8 -->
<g id="edge7" class="edge">
<title>Node2&#45;&gt;Node8</title>
<path fill="none" stroke="#191970" d="M122.5577,-88.544C134.206,-70.999 153.7546,-45.4385 177,-30.5 183.3375,-26.4272 190.5221,-23.1649 197.8085,-20.5569"/>
<polygon fill="#191970" stroke="#191970" points="119.366,-87.0383 116.9258,-97.3483 125.2628,-90.8103 119.366,-87.0383"/>
</g>
</g>
</svg>
