<?xml version="1.0" encoding="UTF-8" standalone="no"?>
<!DOCTYPE svg PUBLIC "-//W3C//DTD SVG 1.1//EN"
 "http://www.w3.org/Graphics/SVG/1.1/DTD/svg11.dtd">
<!-- Generated by graphviz version 2.40.1 (20161225.0304)
 -->
<!-- Title: PHDataNode::getData Pages: 1 -->
<svg width="596pt" height="1902pt"
 viewBox="0.00 0.00 596.00 1902.00" xmlns="http://www.w3.org/2000/svg" xmlns:xlink="http://www.w3.org/1999/xlink">
<g id="graph0" class="graph" transform="scale(1 1) rotate(0) translate(4 1898)">
<title>PHDataNode::getData</title>
<!-- Node1 -->
<g id="node1" class="node">
<title>Node1</title>
<polygon fill="#bfbfbf" stroke="#000000" points="0,-813.5 0,-833.5 127,-833.5 127,-813.5 0,-813.5"/>
<text text-anchor="middle" x="63.5" y="-820.5" font-family="FreeSans" font-size="10.00" fill="#000000">PHDataNode::getData</text>
</g>
<!-- Node2 -->
<g id="node2" class="node">
<title>Node2</title>
<g id="a_node2"><a xlink:href="../../d7/df3/classJetReco.html#a4eb9e0148803537afd75d99352f56fda" target="_top" xlink:title="JetReco::FillJetNode">
<polygon fill="none" stroke="#000000" points="208,-1743.5 208,-1763.5 322,-1763.5 322,-1743.5 208,-1743.5"/>
<text text-anchor="middle" x="265" y="-1750.5" font-family="FreeSans" font-size="10.00" fill="#000000">JetReco::FillJetNode</text>
</a>
</g>
</g>
<!-- Node1&#45;&gt;Node2 -->
<g id="edge1" class="edge">
<title>Node1&#45;&gt;Node2</title>
<path fill="none" stroke="#191970" d="M64.7724,-843.68C71.7606,-951.4296 107.2057,-1459.4863 163,-1605.5 185.166,-1663.5084 234.5057,-1720.7628 255.3783,-1743.3831"/>
<polygon fill="#191970" stroke="#191970" points="68.2546,-843.2887 64.1223,-833.533 61.269,-843.7364 68.2546,-843.2887"/>
</g>
<!-- Node4 -->
<g id="node4" class="node">
<title>Node4</title>
<g id="a_node4"><a xlink:href="../../da/dc3/namespacefindNode.html#af4793f47e215cb6b0d51e0a9303a4382" target="_top" xlink:title="findNode::getClass">
<polygon fill="none" stroke="#ff0000" points="209,-1575.5 209,-1595.5 321,-1595.5 321,-1575.5 209,-1575.5"/>
<text text-anchor="middle" x="265" y="-1582.5" font-family="FreeSans" font-size="10.00" fill="#000000">findNode::getClass</text>
</a>
</g>
</g>
<!-- Node1&#45;&gt;Node4 -->
<g id="edge3" class="edge">
<title>Node1&#45;&gt;Node4</title>
<path fill="none" stroke="#191970" d="M64.8131,-843.8262C72.3457,-957.604 111.5389,-1512.343 163,-1566.5 174.8496,-1578.9703 192.053,-1584.7807 208.9667,-1587.1647"/>
<polygon fill="#191970" stroke="#191970" points="68.2962,-843.4519 64.1498,-833.7021 61.3111,-843.9096 68.2962,-843.4519"/>
</g>
<!-- Node18 -->
<g id="node18" class="node">
<title>Node18</title>
<g id="a_node18"><a xlink:href="../../d9/dde/classPHIODataNode.html#a07cd6c9e2bfc7b5c31f903283d8ebe13" target="_top" xlink:title="PHIODataNode::operator*">
<polygon fill="none" stroke="#000000" points="192,-1536.5 192,-1556.5 338,-1556.5 338,-1536.5 192,-1536.5"/>
<text text-anchor="middle" x="265" y="-1543.5" font-family="FreeSans" font-size="10.00" fill="#000000">PHIODataNode::operator*</text>
</a>
</g>
</g>
<!-- Node1&#45;&gt;Node18 -->
<g id="edge17" class="edge">
<title>Node1&#45;&gt;Node18</title>
<path fill="none" stroke="#191970" d="M64.967,-843.7826C73.1102,-953.8598 114.1571,-1476.4716 163,-1527.5 170.8469,-1535.698 181.009,-1541.0117 191.8715,-1544.3643"/>
<polygon fill="#191970" stroke="#191970" points="68.4486,-843.4025 64.2272,-833.6851 61.4674,-843.9141 68.4486,-843.4025"/>
</g>
<!-- Node19 -->
<g id="node19" class="node">
<title>Node19</title>
<g id="a_node19"><a xlink:href="../../d5/dc8/classDumpCaloTriggerInfo.html#a148ccc45924511c38a2c3a1aa2e3fb4c" target="_top" xlink:title="DumpCaloTriggerInfo\l::process_Node">
<polygon fill="none" stroke="#000000" points="203.5,-1485.5 203.5,-1517.5 326.5,-1517.5 326.5,-1485.5 203.5,-1485.5"/>
<text text-anchor="start" x="211.5" y="-1504.5" font-family="FreeSans" font-size="10.00" fill="#000000">DumpCaloTriggerInfo</text>
<text text-anchor="middle" x="265" y="-1492.5" font-family="FreeSans" font-size="10.00" fill="#000000">::process_Node</text>
</a>
</g>
</g>
<!-- Node1&#45;&gt;Node19 -->
<g id="edge18" class="edge">
<title>Node1&#45;&gt;Node19</title>
<path fill="none" stroke="#191970" d="M63.6712,-843.9893C64.9303,-944.0904 75.4359,-1380.7597 163,-1476.5 173.4593,-1487.9359 188.2179,-1494.5337 203.2678,-1498.2456"/>
<polygon fill="#191970" stroke="#191970" points="67.1707,-843.9158 63.563,-833.9542 60.1712,-843.9914 67.1707,-843.9158"/>
</g>
<!-- Node20 -->
<g id="node20" class="node">
<title>Node20</title>
<g id="a_node20"><a xlink:href="../../de/d20/classDumpTowerBackground.html#a5d82f1b76ef2611d95d8acb7218d5d8b" target="_top" xlink:title="DumpTowerBackground\l::process_Node">
<polygon fill="none" stroke="#000000" points="197,-1434.5 197,-1466.5 333,-1466.5 333,-1434.5 197,-1434.5"/>
<text text-anchor="start" x="205" y="-1453.5" font-family="FreeSans" font-size="10.00" fill="#000000">DumpTowerBackground</text>
<text text-anchor="middle" x="265" y="-1441.5" font-family="FreeSans" font-size="10.00" fill="#000000">::process_Node</text>
</a>
</g>
</g>
<!-- Node1&#45;&gt;Node20 -->
<g id="edge19" class="edge">
<title>Node1&#45;&gt;Node20</title>
<path fill="none" stroke="#191970" d="M63.9575,-843.8579C66.5106,-938.9016 81.9785,-1338.0255 163,-1425.5 171.9824,-1435.1978 184.0579,-1441.4078 196.7541,-1445.3277"/>
<polygon fill="#191970" stroke="#191970" points="67.4499,-843.5066 63.7016,-833.597 60.4521,-843.6812 67.4499,-843.5066"/>
</g>
<!-- Node21 -->
<g id="node21" class="node">
<title>Node21</title>
<g id="a_node21"><a xlink:href="../../da/d35/classDumpTrkrHitSetContainer.html#ae41c8e5d93695049077e3fd2b5a0cb60" target="_top" xlink:title="DumpTrkrHitSetContainer\l::process_Node">
<polygon fill="none" stroke="#000000" points="192,-1383.5 192,-1415.5 338,-1415.5 338,-1383.5 192,-1383.5"/>
<text text-anchor="start" x="200" y="-1402.5" font-family="FreeSans" font-size="10.00" fill="#000000">DumpTrkrHitSetContainer</text>
<text text-anchor="middle" x="265" y="-1390.5" font-family="FreeSans" font-size="10.00" fill="#000000">::process_Node</text>
</a>
</g>
</g>
<!-- Node1&#45;&gt;Node21 -->
<g id="edge20" class="edge">
<title>Node1&#45;&gt;Node21</title>
<path fill="none" stroke="#191970" d="M64.2958,-843.8243C68.2324,-933.797 88.529,-1295.286 163,-1374.5 170.8677,-1382.8688 181.0404,-1388.6327 191.9071,-1392.5669"/>
<polygon fill="#191970" stroke="#191970" points="67.7833,-843.45 63.8693,-833.6047 60.7894,-843.7419 67.7833,-843.45"/>
</g>
<!-- Node22 -->
<g id="node22" class="node">
<title>Node22</title>
<g id="a_node22"><a xlink:href="../../dd/d60/classDumpTrkrClusterContainer.html#a2d4908a1a9a430bfb4921f0768568f27" target="_top" xlink:title="DumpTrkrClusterContainer\l::process_Node">
<polygon fill="none" stroke="#000000" points="189.5,-1332.5 189.5,-1364.5 340.5,-1364.5 340.5,-1332.5 189.5,-1332.5"/>
<text text-anchor="start" x="197.5" y="-1351.5" font-family="FreeSans" font-size="10.00" fill="#000000">DumpTrkrClusterContainer</text>
<text text-anchor="middle" x="265" y="-1339.5" font-family="FreeSans" font-size="10.00" fill="#000000">::process_Node</text>
</a>
</g>
</g>
<!-- Node1&#45;&gt;Node22 -->
<g id="edge21" class="edge">
<title>Node1&#45;&gt;Node22</title>
<path fill="none" stroke="#191970" d="M64.719,-844.0844C70.1756,-929.2092 95.1335,-1252.5849 163,-1323.5 170.3115,-1331.1399 179.5457,-1336.6013 189.4561,-1340.4791"/>
<polygon fill="#191970" stroke="#191970" points="68.2,-843.6681 64.0879,-833.9038 61.2134,-844.1013 68.2,-843.6681"/>
</g>
<!-- Node23 -->
<g id="node23" class="node">
<title>Node23</title>
<g id="a_node23"><a xlink:href="../../d7/d98/classDumpPHG4CylinderCellContainer.html#a998bc107ee07c8f8408cbe73446f1058" target="_top" xlink:title="DumpPHG4CylinderCellContainer\l::process_Node">
<polygon fill="none" stroke="#000000" points="172,-1281.5 172,-1313.5 358,-1313.5 358,-1281.5 172,-1281.5"/>
<text text-anchor="start" x="180" y="-1300.5" font-family="FreeSans" font-size="10.00" fill="#000000">DumpPHG4CylinderCellContainer</text>
<text text-anchor="middle" x="265" y="-1288.5" font-family="FreeSans" font-size="10.00" fill="#000000">::process_Node</text>
</a>
</g>
</g>
<!-- Node1&#45;&gt;Node23 -->
<g id="edge22" class="edge">
<title>Node1&#45;&gt;Node23</title>
<path fill="none" stroke="#191970" d="M65.19,-843.7295C72.2001,-922.7944 101.5448,-1209.6601 163,-1272.5 166.3145,-1275.8891 170.0078,-1278.8477 173.9688,-1281.4283"/>
<polygon fill="#191970" stroke="#191970" points="68.6648,-843.2849 64.3167,-833.6234 61.6907,-843.8876 68.6648,-843.2849"/>
</g>
<!-- Node24 -->
<g id="node24" class="node">
<title>Node24</title>
<g id="a_node24"><a xlink:href="../../de/dbe/classDumpPHG4HitContainer.html#a0a80f6d20b63c934a0d23c50eb540291" target="_top" xlink:title="DumpPHG4HitContainer\l::process_Node">
<polygon fill="none" stroke="#000000" points="195.5,-1230.5 195.5,-1262.5 334.5,-1262.5 334.5,-1230.5 195.5,-1230.5"/>
<text text-anchor="start" x="203.5" y="-1249.5" font-family="FreeSans" font-size="10.00" fill="#000000">DumpPHG4HitContainer</text>
<text text-anchor="middle" x="265" y="-1237.5" font-family="FreeSans" font-size="10.00" fill="#000000">::process_Node</text>
</a>
</g>
</g>
<!-- Node1&#45;&gt;Node24 -->
<g id="edge23" class="edge">
<title>Node1&#45;&gt;Node24</title>
<path fill="none" stroke="#191970" d="M65.8077,-843.7399C74.5594,-916.9814 108.0168,-1166.7702 163,-1221.5 171.8516,-1230.3108 183.2692,-1236.1964 195.2459,-1240.0914"/>
<polygon fill="#191970" stroke="#191970" points="69.2548,-843.083 64.6158,-833.5579 62.3023,-843.897 69.2548,-843.083"/>
</g>
<!-- Node25 -->
<g id="node25" class="node">
<title>Node25</title>
<g id="a_node25"><a xlink:href="../../dc/df0/classDumpSvtxVertexMap.html#a2448628d42c6dfe99f0e936f27154d16" target="_top" xlink:title="DumpSvtxVertexMap::\lprocess_Node">
<polygon fill="none" stroke="#000000" points="200.5,-1179.5 200.5,-1211.5 329.5,-1211.5 329.5,-1179.5 200.5,-1179.5"/>
<text text-anchor="start" x="208.5" y="-1198.5" font-family="FreeSans" font-size="10.00" fill="#000000">DumpSvtxVertexMap::</text>
<text text-anchor="middle" x="265" y="-1186.5" font-family="FreeSans" font-size="10.00" fill="#000000">process_Node</text>
</a>
</g>
</g>
<!-- Node1&#45;&gt;Node25 -->
<g id="edge24" class="edge">
<title>Node1&#45;&gt;Node25</title>
<path fill="none" stroke="#191970" d="M66.5939,-843.7021C77.2456,-910.6721 114.4309,-1123.784 163,-1170.5 173.1839,-1180.2954 186.5499,-1186.4512 200.238,-1190.2733"/>
<polygon fill="#191970" stroke="#191970" points="70.0183,-842.9459 65.0147,-833.6071 63.1024,-844.0279 70.0183,-842.9459"/>
</g>
<!-- Node26 -->
<g id="node26" class="node">
<title>Node26</title>
<g id="a_node26"><a xlink:href="../../d1/d8e/classDumpSvtxTrackMap.html#ae048789c86df0598862ab8223a390a94" target="_top" xlink:title="DumpSvtxTrackMap::process_Node">
<polygon fill="none" stroke="#000000" points="168,-1140.5 168,-1160.5 362,-1160.5 362,-1140.5 168,-1140.5"/>
<text text-anchor="middle" x="265" y="-1147.5" font-family="FreeSans" font-size="10.00" fill="#000000">DumpSvtxTrackMap::process_Node</text>
</a>
</g>
</g>
<!-- Node1&#45;&gt;Node26 -->
<g id="edge25" class="edge">
<title>Node1&#45;&gt;Node26</title>
<path fill="none" stroke="#191970" d="M67.2945,-843.929C79.2818,-906.2536 118.2072,-1092.1148 163,-1131.5 166.923,-1134.9494 171.266,-1137.861 175.8837,-1140.3126"/>
<polygon fill="#191970" stroke="#191970" points="70.6745,-842.9663 65.3744,-833.7924 63.7968,-844.2691 70.6745,-842.9663"/>
</g>
<!-- Node27 -->
<g id="node27" class="node">
<title>Node27</title>
<g id="a_node27"><a xlink:href="../../d4/df6/classDumpJetMap.html#a0318eb1fd99502149f6b94697419c4da" target="_top" xlink:title="DumpJetMap::process_Node">
<polygon fill="none" stroke="#000000" points="186,-1101.5 186,-1121.5 344,-1121.5 344,-1101.5 186,-1101.5"/>
<text text-anchor="middle" x="265" y="-1108.5" font-family="FreeSans" font-size="10.00" fill="#000000">DumpJetMap::process_Node</text>
</a>
</g>
</g>
<!-- Node1&#45;&gt;Node27 -->
<g id="edge26" class="edge">
<title>Node1&#45;&gt;Node27</title>
<path fill="none" stroke="#191970" d="M64.5036,-843.763C68.169,-894.355 85.1148,-1026.853 163,-1092.5 169.68,-1098.1303 177.4899,-1102.3092 185.7618,-1105.3846"/>
<polygon fill="#191970" stroke="#191970" points="67.9795,-843.2655 63.8663,-833.5017 60.993,-843.6995 67.9795,-843.2655"/>
</g>
<!-- Node28 -->
<g id="node28" class="node">
<title>Node28</title>
<g id="a_node28"><a xlink:href="../../d2/d47/classDumpVariableArray.html#aa574394bcbdd5ecfdeb316c89c5880d8" target="_top" xlink:title="DumpVariableArray::\lprocess_Node">
<polygon fill="none" stroke="#000000" points="205,-1050.5 205,-1082.5 325,-1082.5 325,-1050.5 205,-1050.5"/>
<text text-anchor="start" x="213" y="-1069.5" font-family="FreeSans" font-size="10.00" fill="#000000">DumpVariableArray::</text>
<text text-anchor="middle" x="265" y="-1057.5" font-family="FreeSans" font-size="10.00" fill="#000000">process_Node</text>
</a>
</g>
</g>
<!-- Node1&#45;&gt;Node28 -->
<g id="edge27" class="edge">
<title>Node1&#45;&gt;Node28</title>
<path fill="none" stroke="#191970" d="M66.7028,-843.7262C74.6562,-887.0002 99.4573,-988.8968 163,-1041.5 174.8676,-1051.3244 190.0137,-1057.387 204.9811,-1061.1007"/>
<polygon fill="#191970" stroke="#191970" points="70.1063,-842.8667 64.9586,-833.6065 63.208,-844.0557 70.1063,-842.8667"/>
</g>
<!-- Node29 -->
<g id="node29" class="node">
<title>Node29</title>
<g id="a_node29"><a xlink:href="../../d8/d29/classDumpRawTowerGeom.html#a3cfc9506e3a7452467fa9bb3a5f2a470" target="_top" xlink:title="DumpRawTowerGeom::process_Node">
<polygon fill="none" stroke="#000000" points="163,-1011.5 163,-1031.5 367,-1031.5 367,-1011.5 163,-1011.5"/>
<text text-anchor="middle" x="265" y="-1018.5" font-family="FreeSans" font-size="10.00" fill="#000000">DumpRawTowerGeom::process_Node</text>
</a>
</g>
</g>
<!-- Node1&#45;&gt;Node29 -->
<g id="edge28" class="edge">
<title>Node1&#45;&gt;Node29</title>
<path fill="none" stroke="#191970" d="M68.5003,-843.431C79.0473,-881.0718 107.317,-962.426 163,-1002.5 167.9709,-1006.0775 173.4206,-1009.0398 179.1343,-1011.4873"/>
<polygon fill="#191970" stroke="#191970" points="71.8481,-842.4016 65.8857,-833.6438 65.0853,-844.2083 71.8481,-842.4016"/>
</g>
<!-- Node30 -->
<g id="node30" class="node">
<title>Node30</title>
<g id="a_node30"><a xlink:href="../../d1/d2e/classDumpRawTowerContainer.html#a9629228eaea3c76679c0134b3b635c9d" target="_top" xlink:title="DumpRawTowerContainer\l::process_Node">
<polygon fill="none" stroke="#000000" points="191.5,-960.5 191.5,-992.5 338.5,-992.5 338.5,-960.5 191.5,-960.5"/>
<text text-anchor="start" x="199.5" y="-979.5" font-family="FreeSans" font-size="10.00" fill="#000000">DumpRawTowerContainer</text>
<text text-anchor="middle" x="265" y="-967.5" font-family="FreeSans" font-size="10.00" fill="#000000">::process_Node</text>
</a>
</g>
</g>
<!-- Node1&#45;&gt;Node30 -->
<g id="edge29" class="edge">
<title>Node1&#45;&gt;Node30</title>
<path fill="none" stroke="#191970" d="M72.9622,-842.6088C88.0045,-870.9325 120.1131,-923.6957 163,-951.5 171.6437,-957.1039 181.4405,-961.4519 191.4603,-964.8255"/>
<polygon fill="#191970" stroke="#191970" points="76.0574,-840.9744 68.3636,-833.6905 69.8358,-844.1826 76.0574,-840.9744"/>
</g>
<!-- Node31 -->
<g id="node31" class="node">
<title>Node31</title>
<g id="a_node31"><a xlink:href="../../d9/d80/classDumpRawClusterContainer.html#aff8ac41c50b61aee6f49625c10710147" target="_top" xlink:title="DumpRawClusterContainer\l::process_Node">
<polygon fill="none" stroke="#000000" points="188.5,-909.5 188.5,-941.5 341.5,-941.5 341.5,-909.5 188.5,-909.5"/>
<text text-anchor="start" x="196.5" y="-928.5" font-family="FreeSans" font-size="10.00" fill="#000000">DumpRawClusterContainer</text>
<text text-anchor="middle" x="265" y="-916.5" font-family="FreeSans" font-size="10.00" fill="#000000">::process_Node</text>
</a>
</g>
</g>
<!-- Node1&#45;&gt;Node31 -->
<g id="edge30" class="edge">
<title>Node1&#45;&gt;Node31</title>
<path fill="none" stroke="#191970" d="M80.9948,-840.7945C99.741,-858.3666 131.1248,-885.1229 163,-900.5 170.9644,-904.3422 179.5721,-907.6258 188.2935,-910.4247"/>
<polygon fill="#191970" stroke="#191970" points="83.1871,-838.048 73.5421,-833.6634 78.3477,-843.1057 83.1871,-838.048"/>
</g>
<!-- Node32 -->
<g id="node32" class="node">
<title>Node32</title>
<g id="a_node32"><a xlink:href="../../d3/d80/classDumpPHG4TruthInfoContainer.html#aebe4df79d71ebc60b516662624194295" target="_top" xlink:title="DumpPHG4TruthInfoContainer\l::process_Node">
<polygon fill="none" stroke="#000000" points="180,-858.5 180,-890.5 350,-890.5 350,-858.5 180,-858.5"/>
<text text-anchor="start" x="188" y="-877.5" font-family="FreeSans" font-size="10.00" fill="#000000">DumpPHG4TruthInfoContainer</text>
<text text-anchor="middle" x="265" y="-865.5" font-family="FreeSans" font-size="10.00" fill="#000000">::process_Node</text>
</a>
</g>
</g>
<!-- Node1&#45;&gt;Node32 -->
<g id="edge31" class="edge">
<title>Node1&#45;&gt;Node32</title>
<path fill="none" stroke="#191970" d="M111.1781,-836.1161C127.5877,-840.4164 146.0867,-845.2178 163,-849.5 174.577,-852.4311 186.9071,-855.499 198.8472,-858.4416"/>
<polygon fill="#191970" stroke="#191970" points="111.8247,-832.6673 101.2636,-833.5124 110.0466,-839.4377 111.8247,-832.6673"/>
</g>
<!-- Node33 -->
<g id="node33" class="node">
<title>Node33</title>
<g id="a_node33"><a xlink:href="../../de/d47/classDumpPHG4ScintillatorSlatContainer.html#a85bff056a5be747011be98dc146c498c" target="_top" xlink:title="DumpPHG4ScintillatorSlat\lContainer::process_Node">
<polygon fill="none" stroke="#000000" points="190.5,-807.5 190.5,-839.5 339.5,-839.5 339.5,-807.5 190.5,-807.5"/>
<text text-anchor="start" x="198.5" y="-826.5" font-family="FreeSans" font-size="10.00" fill="#000000">DumpPHG4ScintillatorSlat</text>
<text text-anchor="middle" x="265" y="-814.5" font-family="FreeSans" font-size="10.00" fill="#000000">Container::process_Node</text>
</a>
</g>
</g>
<!-- Node1&#45;&gt;Node33 -->
<g id="edge32" class="edge">
<title>Node1&#45;&gt;Node33</title>
<path fill="none" stroke="#191970" d="M137.2966,-823.5C154.6037,-823.5 173.0562,-823.5 190.3983,-823.5"/>
<polygon fill="#191970" stroke="#191970" points="137.2559,-820.0001 127.2559,-823.5 137.2558,-827.0001 137.2559,-820.0001"/>
</g>
<!-- Node34 -->
<g id="node34" class="node">
<title>Node34</title>
<g id="a_node34"><a xlink:href="../../df/d2e/classDumpPHG4CylinderGeomContainer.html#a40b75fecd2112279045a53fc7aed6eab" target="_top" xlink:title="DumpPHG4CylinderGeomContainer\l::process_Node">
<polygon fill="none" stroke="#000000" points="166.5,-756.5 166.5,-788.5 363.5,-788.5 363.5,-756.5 166.5,-756.5"/>
<text text-anchor="start" x="174.5" y="-775.5" font-family="FreeSans" font-size="10.00" fill="#000000">DumpPHG4CylinderGeomContainer</text>
<text text-anchor="middle" x="265" y="-763.5" font-family="FreeSans" font-size="10.00" fill="#000000">::process_Node</text>
</a>
</g>
</g>
<!-- Node1&#45;&gt;Node34 -->
<g id="edge33" class="edge">
<title>Node1&#45;&gt;Node34</title>
<path fill="none" stroke="#191970" d="M113.1842,-810.9248C139.8367,-804.1791 172.9706,-795.7928 201.4775,-788.5777"/>
<polygon fill="#191970" stroke="#191970" points="112.1454,-807.5773 103.3099,-813.424 113.863,-814.3633 112.1454,-807.5773"/>
</g>
<!-- Node35 -->
<g id="node35" class="node">
<title>Node35</title>
<g id="a_node35"><a xlink:href="../../de/d8b/classDumpPdbParameterMap.html#a0cccfe25375750b2fd1ecfce9f64ee6d" target="_top" xlink:title="DumpPdbParameterMap\l::process_Node">
<polygon fill="none" stroke="#000000" points="195.5,-705.5 195.5,-737.5 334.5,-737.5 334.5,-705.5 195.5,-705.5"/>
<text text-anchor="start" x="203.5" y="-724.5" font-family="FreeSans" font-size="10.00" fill="#000000">DumpPdbParameterMap</text>
<text text-anchor="middle" x="265" y="-712.5" font-family="FreeSans" font-size="10.00" fill="#000000">::process_Node</text>
</a>
</g>
</g>
<!-- Node1&#45;&gt;Node35 -->
<g id="edge34" class="edge">
<title>Node1&#45;&gt;Node35</title>
<path fill="none" stroke="#191970" d="M81.3706,-806.2198C100.2088,-788.9289 131.472,-762.7662 163,-747.5 173.1154,-742.602 184.2574,-738.5568 195.3489,-735.2374"/>
<polygon fill="#191970" stroke="#191970" points="78.7707,-803.8594 73.8632,-813.2491 83.5551,-808.9692 78.7707,-803.8594"/>
</g>
<!-- Node36 -->
<g id="node36" class="node">
<title>Node36</title>
<g id="a_node36"><a xlink:href="../../de/d3a/classDumpPHG4InEvent.html#a67cb97f8fb8fbf08e703c051c6928271" target="_top" xlink:title="DumpPHG4InEvent::process_Node">
<polygon fill="none" stroke="#000000" points="170,-666.5 170,-686.5 360,-686.5 360,-666.5 170,-666.5"/>
<text text-anchor="middle" x="265" y="-673.5" font-family="FreeSans" font-size="10.00" fill="#000000">DumpPHG4InEvent::process_Node</text>
</a>
</g>
</g>
<!-- Node1&#45;&gt;Node36 -->
<g id="edge35" class="edge">
<title>Node1&#45;&gt;Node36</title>
<path fill="none" stroke="#191970" d="M72.8413,-804.2857C87.7272,-775.8537 119.6361,-723.0819 163,-696.5 169.6156,-692.4447 176.8865,-689.1874 184.4059,-686.5746"/>
<polygon fill="#191970" stroke="#191970" points="69.6992,-802.7432 68.295,-813.2446 75.9415,-805.911 69.6992,-802.7432"/>
</g>
<!-- Node37 -->
<g id="node37" class="node">
<title>Node37</title>
<g id="a_node37"><a xlink:href="../../da/dd3/classDumpPHG4CylinderCellGeomContainer.html#a150a37fef8469d5d97316141395ff41b" target="_top" xlink:title="DumpPHG4CylinderCellGeom\lContainer::process_Node">
<polygon fill="none" stroke="#000000" points="182,-615.5 182,-647.5 348,-647.5 348,-615.5 182,-615.5"/>
<text text-anchor="start" x="190" y="-634.5" font-family="FreeSans" font-size="10.00" fill="#000000">DumpPHG4CylinderCellGeom</text>
<text text-anchor="middle" x="265" y="-622.5" font-family="FreeSans" font-size="10.00" fill="#000000">Container::process_Node</text>
</a>
</g>
</g>
<!-- Node1&#45;&gt;Node37 -->
<g id="edge36" class="edge">
<title>Node1&#45;&gt;Node37</title>
<path fill="none" stroke="#191970" d="M69.662,-803.8656C81.6935,-768.8435 111.7177,-695.6981 163,-657.5 168.789,-653.188 175.2199,-649.5876 181.9569,-646.582"/>
<polygon fill="#191970" stroke="#191970" points="66.316,-802.8365 66.5021,-813.4297 72.9626,-805.0325 66.316,-802.8365"/>
</g>
<!-- Node38 -->
<g id="node38" class="node">
<title>Node38</title>
<g id="a_node38"><a xlink:href="../../d2/dc3/classDumpSyncObject.html#a6139cf5773c1c12b20bfb2466db5de27" target="_top" xlink:title="DumpSyncObject::process_Node">
<polygon fill="none" stroke="#000000" points="174.5,-576.5 174.5,-596.5 355.5,-596.5 355.5,-576.5 174.5,-576.5"/>
<text text-anchor="middle" x="265" y="-583.5" font-family="FreeSans" font-size="10.00" fill="#000000">DumpSyncObject::process_Node</text>
</a>
</g>
</g>
<!-- Node1&#45;&gt;Node38 -->
<g id="edge37" class="edge">
<title>Node1&#45;&gt;Node38</title>
<path fill="none" stroke="#191970" d="M66.5001,-803.4136C74.0976,-760.0465 98.3096,-657.4622 163,-606.5 168.1031,-602.4799 173.788,-599.1949 179.7903,-596.5178"/>
<polygon fill="#191970" stroke="#191970" points="63.04,-802.8853 64.878,-813.3195 69.948,-804.0166 63.04,-802.8853"/>
</g>
<!-- Node39 -->
<g id="node39" class="node">
<title>Node39</title>
<g id="a_node39"><a xlink:href="../../d3/d0b/classDumpPHG4CellContainer.html#a03d218ddb510a07f1301dff310550601" target="_top" xlink:title="DumpPHG4CellContainer\l::process_Node">
<polygon fill="none" stroke="#000000" points="193,-525.5 193,-557.5 337,-557.5 337,-525.5 193,-525.5"/>
<text text-anchor="start" x="201" y="-544.5" font-family="FreeSans" font-size="10.00" fill="#000000">DumpPHG4CellContainer</text>
<text text-anchor="middle" x="265" y="-532.5" font-family="FreeSans" font-size="10.00" fill="#000000">::process_Node</text>
</a>
</g>
</g>
<!-- Node1&#45;&gt;Node39 -->
<g id="edge38" class="edge">
<title>Node1&#45;&gt;Node39</title>
<path fill="none" stroke="#191970" d="M65.2303,-803.1961C70.4806,-754.7379 90.6276,-631.5979 163,-567.5 171.5503,-559.9273 182.0053,-554.5025 192.9254,-550.6281"/>
<polygon fill="#191970" stroke="#191970" points="61.7282,-803.0479 64.2356,-813.3417 68.6948,-803.731 61.7282,-803.0479"/>
</g>
<!-- Node40 -->
<g id="node40" class="node">
<title>Node40</title>
<g id="a_node40"><a xlink:href="../../d8/d22/classDumpRunHeader.html#af04cb97c4779944a149cb9d6ece48b9b" target="_top" xlink:title="DumpRunHeader::process_Node">
<polygon fill="none" stroke="#000000" points="175,-486.5 175,-506.5 355,-506.5 355,-486.5 175,-486.5"/>
<text text-anchor="middle" x="265" y="-493.5" font-family="FreeSans" font-size="10.00" fill="#000000">DumpRunHeader::process_Node</text>
</a>
</g>
</g>
<!-- Node1&#45;&gt;Node40 -->
<g id="edge39" class="edge">
<title>Node1&#45;&gt;Node40</title>
<path fill="none" stroke="#191970" d="M67.3207,-803.155C79.3839,-741.084 118.5063,-555.959 163,-516.5 167.4554,-512.5488 172.457,-509.2839 177.79,-506.5941"/>
<polygon fill="#191970" stroke="#191970" points="63.8308,-802.7703 65.3879,-813.2501 70.7059,-804.0867 63.8308,-802.7703"/>
</g>
<!-- Node41 -->
<g id="node41" class="node">
<title>Node41</title>
<g id="a_node41"><a xlink:href="../../d4/d01/classDumpPHG4BlockCellGeomContainer.html#a12786f3a316a02044a09a0683713941f" target="_top" xlink:title="DumpPHG4BlockCellGeomContainer\l::process_Node">
<polygon fill="none" stroke="#000000" points="164.5,-435.5 164.5,-467.5 365.5,-467.5 365.5,-435.5 164.5,-435.5"/>
<text text-anchor="start" x="172.5" y="-454.5" font-family="FreeSans" font-size="10.00" fill="#000000">DumpPHG4BlockCellGeomContainer</text>
<text text-anchor="middle" x="265" y="-442.5" font-family="FreeSans" font-size="10.00" fill="#000000">::process_Node</text>
</a>
</g>
</g>
<!-- Node1&#45;&gt;Node41 -->
<g id="edge40" class="edge">
<title>Node1&#45;&gt;Node41</title>
<path fill="none" stroke="#191970" d="M66.619,-803.3726C77.3502,-736.6478 114.7578,-524.2961 163,-477.5 166.9352,-473.6828 171.3488,-470.4032 176.0747,-467.5876"/>
<polygon fill="#191970" stroke="#191970" points="63.1335,-803.0064 65.0275,-813.4305 70.0475,-804.1005 63.1335,-803.0064"/>
</g>
<!-- Node42 -->
<g id="node42" class="node">
<title>Node42</title>
<g id="a_node42"><a xlink:href="../../d2/d03/classDumpBbcVertexMap.html#a3babadfa865e2ca02955de52b99ca46e" target="_top" xlink:title="DumpBbcVertexMap::process_Node">
<polygon fill="none" stroke="#000000" points="167,-396.5 167,-416.5 363,-416.5 363,-396.5 167,-396.5"/>
<text text-anchor="middle" x="265" y="-403.5" font-family="FreeSans" font-size="10.00" fill="#000000">DumpBbcVertexMap::process_Node</text>
</a>
</g>
</g>
<!-- Node1&#45;&gt;Node42 -->
<g id="edge41" class="edge">
<title>Node1&#45;&gt;Node42</title>
<path fill="none" stroke="#191970" d="M65.7313,-803.224C74.2176,-729.8645 106.8702,-479.7871 163,-426.5 167.1879,-422.5242 171.9226,-419.2298 177.0019,-416.5087"/>
<polygon fill="#191970" stroke="#191970" points="62.2239,-803.093 64.5769,-813.4232 69.1795,-803.8803 62.2239,-803.093"/>
</g>
<!-- Node43 -->
<g id="node43" class="node">
<title>Node43</title>
<g id="a_node43"><a xlink:href="../../d0/d7c/classDumpPdbParameterMapContainer.html#a4771dc99bfc0e6e2a05f671a7579433b" target="_top" xlink:title="DumpPdbParameterMapContainer\l::process_Node">
<polygon fill="none" stroke="#000000" points="170.5,-345.5 170.5,-377.5 359.5,-377.5 359.5,-345.5 170.5,-345.5"/>
<text text-anchor="start" x="178.5" y="-364.5" font-family="FreeSans" font-size="10.00" fill="#000000">DumpPdbParameterMapContainer</text>
<text text-anchor="middle" x="265" y="-352.5" font-family="FreeSans" font-size="10.00" fill="#000000">::process_Node</text>
</a>
</g>
</g>
<!-- Node1&#45;&gt;Node43 -->
<g id="edge42" class="edge">
<title>Node1&#45;&gt;Node43</title>
<path fill="none" stroke="#191970" d="M65.3897,-802.8867C72.958,-724.789 103.5807,-448.437 163,-387.5 166.6999,-383.7056 170.8704,-380.4373 175.3575,-377.6245"/>
<polygon fill="#191970" stroke="#191970" points="61.8629,-803.0056 64.4056,-813.2908 68.8318,-803.6648 61.8629,-803.0056"/>
</g>
<!-- Node44 -->
<g id="node44" class="node">
<title>Node44</title>
<g id="a_node44"><a xlink:href="../../dc/d4d/classDumpPHG4BlockGeomContainer.html#a3c4de1e774d52e19652af8cc8e48c923" target="_top" xlink:title="DumpPHG4BlockGeomContainer\l::process_Node">
<polygon fill="none" stroke="#000000" points="174,-294.5 174,-326.5 356,-326.5 356,-294.5 174,-294.5"/>
<text text-anchor="start" x="182" y="-313.5" font-family="FreeSans" font-size="10.00" fill="#000000">DumpPHG4BlockGeomContainer</text>
<text text-anchor="middle" x="265" y="-301.5" font-family="FreeSans" font-size="10.00" fill="#000000">::process_Node</text>
</a>
</g>
</g>
<!-- Node1&#45;&gt;Node44 -->
<g id="edge43" class="edge">
<title>Node1&#45;&gt;Node44</title>
<path fill="none" stroke="#191970" d="M64.8354,-803.2072C70.7207,-719.9517 97.04,-405.7079 163,-336.5 166.6563,-332.6637 170.7932,-329.3628 175.2548,-326.5254"/>
<polygon fill="#191970" stroke="#191970" points="61.3308,-803.1564 64.1386,-813.3724 68.3144,-803.6352 61.3308,-803.1564"/>
</g>
<!-- Node45 -->
<g id="node45" class="node">
<title>Node45</title>
<g id="a_node45"><a xlink:href="../../dc/d8e/classDumpGlobalVertexMap.html#ab903bd3141851ad9b266064be24644ef" target="_top" xlink:title="DumpGlobalVertexMap\l::process_Node">
<polygon fill="none" stroke="#000000" points="198.5,-243.5 198.5,-275.5 331.5,-275.5 331.5,-243.5 198.5,-243.5"/>
<text text-anchor="start" x="206.5" y="-262.5" font-family="FreeSans" font-size="10.00" fill="#000000">DumpGlobalVertexMap</text>
<text text-anchor="middle" x="265" y="-250.5" font-family="FreeSans" font-size="10.00" fill="#000000">::process_Node</text>
</a>
</g>
</g>
<!-- Node1&#45;&gt;Node45 -->
<g id="edge44" class="edge">
<title>Node1&#45;&gt;Node45</title>
<path fill="none" stroke="#191970" d="M64.4144,-803.0991C68.8039,-714.3567 90.5793,-362.9205 163,-285.5 172.4254,-275.4239 185.1631,-269.0297 198.4396,-265.022"/>
<polygon fill="#191970" stroke="#191970" points="60.9126,-803.0545 63.9346,-813.2092 67.9048,-803.3864 60.9126,-803.0545"/>
</g>
<!-- Node46 -->
<g id="node46" class="node">
<title>Node46</title>
<g id="a_node46"><a xlink:href="../../dc/df3/classDumpRawTowerGeomContainer.html#aa7d2180a2e3cac8886789e080206ce96" target="_top" xlink:title="DumpRawTowerGeomContainer\l::process_Node">
<polygon fill="none" stroke="#000000" points="176.5,-192.5 176.5,-224.5 353.5,-224.5 353.5,-192.5 176.5,-192.5"/>
<text text-anchor="start" x="184.5" y="-211.5" font-family="FreeSans" font-size="10.00" fill="#000000">DumpRawTowerGeomContainer</text>
<text text-anchor="middle" x="265" y="-199.5" font-family="FreeSans" font-size="10.00" fill="#000000">::process_Node</text>
</a>
</g>
</g>
<!-- Node1&#45;&gt;Node46 -->
<g id="edge45" class="edge">
<title>Node1&#45;&gt;Node46</title>
<path fill="none" stroke="#191970" d="M64.0384,-802.9443C66.927,-708.7118 83.5797,-318.965 163,-233.5 166.8475,-229.3596 171.2589,-225.8554 176.0412,-222.894"/>
<polygon fill="#191970" stroke="#191970" points="60.5339,-803.0531 63.7452,-813.1495 67.531,-803.2542 60.5339,-803.0531"/>
</g>
<!-- Node47 -->
<g id="node47" class="node">
<title>Node47</title>
<g id="a_node47"><a xlink:href="../../d7/d4d/classPHNodeIOManager.html#a3882997324989c7dd04e9f6b728af7db" target="_top" xlink:title="PHNodeIOManager::reconstruct\lNodeTree">
<polygon fill="none" stroke="#ff0000" points="177,-141.5 177,-173.5 353,-173.5 353,-141.5 177,-141.5"/>
<text text-anchor="start" x="185" y="-160.5" font-family="FreeSans" font-size="10.00" fill="#000000">PHNodeIOManager::reconstruct</text>
<text text-anchor="middle" x="265" y="-148.5" font-family="FreeSans" font-size="10.00" fill="#000000">NodeTree</text>
</a>
</g>
</g>
<!-- Node1&#45;&gt;Node47 -->
<g id="edge46" class="edge">
<title>Node1&#45;&gt;Node47</title>
<path fill="none" stroke="#191970" d="M63.7342,-803.084C65.2886,-704.2379 76.9646,-276.306 163,-182.5 167.0668,-178.0658 171.7801,-174.3595 176.9056,-171.2669"/>
<polygon fill="#191970" stroke="#191970" points="60.2325,-803.1885 63.5932,-813.2362 67.2319,-803.2858 60.2325,-803.1885"/>
</g>
<!-- Node48 -->
<g id="node48" class="node">
<title>Node48</title>
<g id="a_node48"><a xlink:href="../../df/df1/classPHG4DstCompressReco.html#ac7416ba5fa41828ae966d4bc7a2b5682" target="_top" xlink:title="PHG4DstCompressReco\l::SearchG4HitNodes">
<polygon fill="none" stroke="#ff0000" points="197.5,-90.5 197.5,-122.5 332.5,-122.5 332.5,-90.5 197.5,-90.5"/>
<text text-anchor="start" x="205.5" y="-109.5" font-family="FreeSans" font-size="10.00" fill="#000000">PHG4DstCompressReco</text>
<text text-anchor="middle" x="265" y="-97.5" font-family="FreeSans" font-size="10.00" fill="#000000">::SearchG4HitNodes</text>
</a>
</g>
</g>
<!-- Node1&#45;&gt;Node48 -->
<g id="edge47" class="edge">
<title>Node1&#45;&gt;Node48</title>
<path fill="none" stroke="#191970" d="M65.0675,-803.2635C73.6626,-694.5544 116.3892,-182.895 163,-131.5 172.0638,-121.5059 184.4104,-115.2007 197.3846,-111.2868"/>
<polygon fill="#191970" stroke="#191970" points="61.5768,-803.0098 64.2846,-813.2527 68.5554,-803.5568 61.5768,-803.0098"/>
</g>
<!-- Node49 -->
<g id="node49" class="node">
<title>Node49</title>
<g id="a_node49"><a xlink:href="../../dd/d9d/classPHG4TruthEventAction.html#a8140dbcb21650639a4d51d11cd23951b" target="_top" xlink:title="PHG4TruthEventAction\l::SearchNode">
<polygon fill="none" stroke="#ff0000" points="200,-39.5 200,-71.5 330,-71.5 330,-39.5 200,-39.5"/>
<text text-anchor="start" x="208" y="-58.5" font-family="FreeSans" font-size="10.00" fill="#000000">PHG4TruthEventAction</text>
<text text-anchor="middle" x="265" y="-46.5" font-family="FreeSans" font-size="10.00" fill="#000000">::SearchNode</text>
</a>
</g>
</g>
<!-- Node1&#45;&gt;Node49 -->
<g id="edge48" class="edge">
<title>Node1&#45;&gt;Node49</title>
<path fill="none" stroke="#191970" d="M64.8622,-803.2191C72.6635,-689.6896 113.0807,-136.0814 163,-80.5 172.6245,-69.7839 186.0223,-63.3009 199.9481,-59.4588"/>
<polygon fill="#191970" stroke="#191970" points="61.3619,-803.1064 64.1748,-813.321 68.3458,-803.5817 61.3619,-803.1064"/>
</g>
<!-- Node50 -->
<g id="node50" class="node">
<title>Node50</title>
<g id="a_node50"><a xlink:href="../../df/d36/classPHRawOManager.html#aa67d8808f730acc0b88554b5ce09e3bc" target="_top" xlink:title="PHRawOManager::write">
<polygon fill="none" stroke="#000000" points="197.5,-.5 197.5,-20.5 332.5,-20.5 332.5,-.5 197.5,-.5"/>
<text text-anchor="middle" x="265" y="-7.5" font-family="FreeSans" font-size="10.00" fill="#000000">PHRawOManager::write</text>
</a>
</g>
</g>
<!-- Node1&#45;&gt;Node50 -->
<g id="edge49" class="edge">
<title>Node1&#45;&gt;Node50</title>
<path fill="none" stroke="#191970" d="M64.6246,-803.2804C71.3752,-685.1794 108.0837,-87.7849 163,-29.5 172.0791,-19.8639 184.3529,-14.1949 197.2385,-11.0092"/>
<polygon fill="#191970" stroke="#191970" points="61.12,-803.265 64.0503,-813.4465 68.1088,-803.6599 61.12,-803.265"/>
</g>
<!-- Node3 -->
<g id="node3" class="node">
<title>Node3</title>
<g id="a_node3"><a xlink:href="../../d7/df3/classJetReco.html#aa8a680f10310539941f0db1fc38e2e91" target="_top" xlink:title="JetReco::process_event">
<polygon fill="none" stroke="#000000" points="428,-1873.5 428,-1893.5 563,-1893.5 563,-1873.5 428,-1873.5"/>
<text text-anchor="middle" x="495.5" y="-1880.5" font-family="FreeSans" font-size="10.00" fill="#000000">JetReco::process_event</text>
</a>
</g>
</g>
<!-- Node2&#45;&gt;Node3 -->
<g id="edge2" class="edge">
<title>Node2&#45;&gt;Node3</title>
<path fill="none" stroke="#191970" d="M281.2007,-1770.9872C305.2747,-1795.8451 353.0475,-1840.9841 403,-1864.5 410.7131,-1868.1311 419.1093,-1871.0709 427.5928,-1873.4506"/>
<polygon fill="#191970" stroke="#191970" points="283.6752,-1768.5105 274.2445,-1763.6823 278.6059,-1773.3378 283.6752,-1768.5105"/>
</g>
<!-- Node5 -->
<g id="node5" class="node">
<title>Node5</title>
<g id="a_node5"><a xlink:href="../../df/d0d/classRawTowerCombiner.html#a9dbc0b9dfed20dcd3a9a5f6dcf53636d" target="_top" xlink:title="RawTowerCombiner::Create\lNodes">
<polygon fill="none" stroke="#ff0000" points="418,-1822.5 418,-1854.5 573,-1854.5 573,-1822.5 418,-1822.5"/>
<text text-anchor="start" x="426" y="-1841.5" font-family="FreeSans" font-size="10.00" fill="#000000">RawTowerCombiner::Create</text>
<text text-anchor="middle" x="495.5" y="-1829.5" font-family="FreeSans" font-size="10.00" fill="#000000">Nodes</text>
</a>
</g>
</g>
<!-- Node4&#45;&gt;Node5 -->
<g id="edge4" class="edge">
<title>Node4&#45;&gt;Node5</title>
<path fill="none" stroke="#191970" d="M279.0943,-1603.8385C299.8469,-1631.3112 339.1694,-1685.2019 367,-1734.5 385.9686,-1768.1003 373.5781,-1788.5372 403,-1813.5 407.4397,-1817.2668 412.3944,-1820.4709 417.6403,-1823.1958"/>
<polygon fill="#191970" stroke="#191970" points="281.6517,-1601.4193 272.8118,-1595.5792 276.0803,-1605.6573 281.6517,-1601.4193"/>
</g>
<!-- Node6 -->
<g id="node6" class="node">
<title>Node6</title>
<g id="a_node6"><a xlink:href="../../da/db1/classMakeActsGeometry.html#ae7edb37e3cecad3ff0a12590a7ad1ac0" target="_top" xlink:title="Get all the nodes.">
<polygon fill="none" stroke="#ff0000" points="411,-1783.5 411,-1803.5 580,-1803.5 580,-1783.5 411,-1783.5"/>
<text text-anchor="middle" x="495.5" y="-1790.5" font-family="FreeSans" font-size="10.00" fill="#000000">MakeActsGeometry::getNodes</text>
</a>
</g>
</g>
<!-- Node4&#45;&gt;Node6 -->
<g id="edge5" class="edge">
<title>Node4&#45;&gt;Node6</title>
<path fill="none" stroke="#191970" d="M277.4235,-1604.0606C307.9717,-1649.4673 385.5349,-1763.2721 403,-1774.5 408.6541,-1778.1349 414.8697,-1781.0928 421.322,-1783.4974"/>
<polygon fill="#191970" stroke="#191970" points="280.2942,-1602.0573 271.8142,-1595.7058 274.4825,-1605.9592 280.2942,-1602.0573"/>
</g>
<!-- Node7 -->
<g id="node7" class="node">
<title>Node7</title>
<g id="a_node7"><a xlink:href="../../d7/df2/classPHActsSourceLinks.html#a5feb2a69875bdbad5bde01db3386eb8b" target="_top" xlink:title="Function to get necessary nodes off node tree.">
<polygon fill="none" stroke="#ff0000" points="436.5,-1732.5 436.5,-1764.5 554.5,-1764.5 554.5,-1732.5 436.5,-1732.5"/>
<text text-anchor="start" x="444.5" y="-1751.5" font-family="FreeSans" font-size="10.00" fill="#000000">PHActsSourceLinks::</text>
<text text-anchor="middle" x="495.5" y="-1739.5" font-family="FreeSans" font-size="10.00" fill="#000000">getNodes</text>
</a>
</g>
</g>
<!-- Node4&#45;&gt;Node7 -->
<g id="edge6" class="edge">
<title>Node4&#45;&gt;Node7</title>
<path fill="none" stroke="#191970" d="M278.1556,-1603.8349C300.4355,-1633.5239 348.5206,-1691.9676 403,-1723.5 413.2222,-1729.4166 424.8894,-1733.9743 436.4137,-1737.4718"/>
<polygon fill="#191970" stroke="#191970" points="280.8413,-1601.5796 272.0911,-1595.6059 275.2062,-1605.7324 280.8413,-1601.5796"/>
</g>
<!-- Node8 -->
<g id="node8" class="node">
<title>Node8</title>
<g id="a_node8"><a xlink:href="../../d1/d08/classPHCASeeding.html#acde49a5aa36a8e09c9f47581c297eea5" target="_top" xlink:title="PHCASeeding::InitializeGeometry">
<polygon fill="none" stroke="#ff0000" points="403,-1693.5 403,-1713.5 588,-1713.5 588,-1693.5 403,-1693.5"/>
<text text-anchor="middle" x="495.5" y="-1700.5" font-family="FreeSans" font-size="10.00" fill="#000000">PHCASeeding::InitializeGeometry</text>
</a>
</g>
</g>
<!-- Node4&#45;&gt;Node8 -->
<g id="edge7" class="edge">
<title>Node4&#45;&gt;Node8</title>
<path fill="none" stroke="#191970" d="M283.4222,-1602.6745C308.4923,-1625.0619 355.6741,-1663.793 403,-1684.5 411.2607,-1688.1144 420.2415,-1691.0528 429.2517,-1693.4387"/>
<polygon fill="#191970" stroke="#191970" points="285.5574,-1599.8859 275.7996,-1595.7585 280.8538,-1605.0701 285.5574,-1599.8859"/>
</g>
<!-- Node9 -->
<g id="node9" class="node">
<title>Node9</title>
<g id="a_node9"><a xlink:href="../../db/dc4/classPHGenFitTrackProjection.html#a8f12e9c6ccc546498672eb6d45daef82" target="_top" xlink:title="PHGenFitTrackProjection\l::process_event">
<polygon fill="none" stroke="#000000" points="426.5,-1642.5 426.5,-1674.5 564.5,-1674.5 564.5,-1642.5 426.5,-1642.5"/>
<text text-anchor="start" x="434.5" y="-1661.5" font-family="FreeSans" font-size="10.00" fill="#000000">PHGenFitTrackProjection</text>
<text text-anchor="middle" x="495.5" y="-1649.5" font-family="FreeSans" font-size="10.00" fill="#000000">::process_event</text>
</a>
</g>
</g>
<!-- Node4&#45;&gt;Node9 -->
<g id="edge8" class="edge">
<title>Node4&#45;&gt;Node9</title>
<path fill="none" stroke="#191970" d="M301.6986,-1599.0594C329.3713,-1609.0897 368.3527,-1622.807 403,-1633.5 412.8552,-1636.5415 423.3623,-1639.5762 433.6276,-1642.4289"/>
<polygon fill="#191970" stroke="#191970" points="302.6381,-1595.6767 292.0441,-1595.5433 300.2426,-1602.2541 302.6381,-1595.6767"/>
</g>
<!-- Node10 -->
<g id="node10" class="node">
<title>Node10</title>
<g id="a_node10"><a xlink:href="../../de/d25/classPHGenFitTrkFitter.html#af07c5ea2636426357d02b5b697376db2" target="_top" xlink:title="PHGenFitTrkFitter::\lReFitTrack">
<polygon fill="none" stroke="#ff0000" points="441,-1591.5 441,-1623.5 550,-1623.5 550,-1591.5 441,-1591.5"/>
<text text-anchor="start" x="449" y="-1610.5" font-family="FreeSans" font-size="10.00" fill="#000000">PHGenFitTrkFitter::</text>
<text text-anchor="middle" x="495.5" y="-1598.5" font-family="FreeSans" font-size="10.00" fill="#000000">ReFitTrack</text>
</a>
</g>
</g>
<!-- Node4&#45;&gt;Node10 -->
<g id="edge9" class="edge">
<title>Node4&#45;&gt;Node10</title>
<path fill="none" stroke="#191970" d="M331.1428,-1591.813C365.8581,-1595.1264 407.8852,-1599.1376 440.7509,-1602.2745"/>
<polygon fill="#191970" stroke="#191970" points="331.3792,-1588.3197 321.0919,-1590.8537 330.7141,-1595.2881 331.3792,-1588.3197"/>
</g>
<!-- Node11 -->
<g id="node11" class="node">
<title>Node11</title>
<g id="a_node11"><a xlink:href="../../d0/d22/classPHGenFitTrkProp.html#a1ece69dc50aa3d04327447cc7eae2d3b" target="_top" xlink:title="fetch node pointers">
<polygon fill="none" stroke="#ff0000" points="417.5,-1552.5 417.5,-1572.5 573.5,-1572.5 573.5,-1552.5 417.5,-1552.5"/>
<text text-anchor="middle" x="495.5" y="-1559.5" font-family="FreeSans" font-size="10.00" fill="#000000">PHGenFitTrkProp::GetNodes</text>
</a>
</g>
</g>
<!-- Node4&#45;&gt;Node11 -->
<g id="edge10" class="edge">
<title>Node4&#45;&gt;Node11</title>
<path fill="none" stroke="#191970" d="M331.1657,-1578.8978C358.0518,-1576.215 389.3207,-1573.0949 417.3219,-1570.3009"/>
<polygon fill="#191970" stroke="#191970" points="330.6949,-1575.4273 321.0919,-1579.903 331.39,-1582.3927 330.6949,-1575.4273"/>
</g>
<!-- Node12 -->
<g id="node12" class="node">
<title>Node12</title>
<g id="a_node12"><a xlink:href="../../d0/d22/classPHGenFitTrkProp.html#af5e0adefe0afd02444c636f417ec82ce" target="_top" xlink:title="Init projection r.">
<polygon fill="none" stroke="#ff0000" points="421.5,-1501.5 421.5,-1533.5 569.5,-1533.5 569.5,-1501.5 421.5,-1501.5"/>
<text text-anchor="start" x="429.5" y="-1520.5" font-family="FreeSans" font-size="10.00" fill="#000000">PHGenFitTrkProp::Initialize</text>
<text text-anchor="middle" x="495.5" y="-1508.5" font-family="FreeSans" font-size="10.00" fill="#000000">Geometry</text>
</a>
</g>
</g>
<!-- Node4&#45;&gt;Node12 -->
<g id="edge11" class="edge">
<title>Node4&#45;&gt;Node12</title>
<path fill="none" stroke="#191970" d="M331.2422,-1576.998C343.3713,-1574.3699 355.7446,-1570.9479 367,-1566.5 384.6579,-1559.522 385.6733,-1551.264 403,-1543.5 411.2204,-1539.8165 420.0885,-1536.5301 428.9654,-1533.6372"/>
<polygon fill="#191970" stroke="#191970" points="330.2576,-1573.6257 321.1412,-1579.024 331.6342,-1580.489 330.2576,-1573.6257"/>
</g>
<!-- Node13 -->
<g id="node13" class="node">
<title>Node13</title>
<g id="a_node13"><a xlink:href="../../d8/dd4/classPHHoughSeeding.html#aa37236d12ed871a287dfb8c9cb52d35a" target="_top" xlink:title="create new node output pointers">
<polygon fill="none" stroke="#ff0000" points="419,-1450.5 419,-1482.5 572,-1482.5 572,-1450.5 419,-1450.5"/>
<text text-anchor="start" x="427" y="-1469.5" font-family="FreeSans" font-size="10.00" fill="#000000">PHHoughSeeding::Initialize</text>
<text text-anchor="middle" x="495.5" y="-1457.5" font-family="FreeSans" font-size="10.00" fill="#000000">Geometry</text>
</a>
</g>
</g>
<!-- Node4&#45;&gt;Node13 -->
<g id="edge12" class="edge">
<title>Node4&#45;&gt;Node13</title>
<path fill="none" stroke="#191970" d="M331.0713,-1582.4101C343.9219,-1579.3725 356.61,-1574.4164 367,-1566.5 396.092,-1544.334 374.9328,-1515.9501 403,-1492.5 407.7365,-1488.5427 413.0361,-1485.1861 418.6371,-1482.3394"/>
<polygon fill="#191970" stroke="#191970" points="330.3667,-1578.9817 321.2481,-1584.3763 331.7406,-1585.8455 330.3667,-1578.9817"/>
</g>
<!-- Node14 -->
<g id="node14" class="node">
<title>Node14</title>
<g id="a_node14"><a xlink:href="../../d2/d8f/classPHInitZVertexing.html#a79f883be9e36cb8e9fcf7f4f72726794" target="_top" xlink:title="PHInitZVertexing::initialize\l_geometry">
<polygon fill="none" stroke="#ff0000" points="420.5,-1399.5 420.5,-1431.5 570.5,-1431.5 570.5,-1399.5 420.5,-1399.5"/>
<text text-anchor="start" x="428.5" y="-1418.5" font-family="FreeSans" font-size="10.00" fill="#000000">PHInitZVertexing::initialize</text>
<text text-anchor="middle" x="495.5" y="-1406.5" font-family="FreeSans" font-size="10.00" fill="#000000">_geometry</text>
</a>
</g>
</g>
<!-- Node4&#45;&gt;Node14 -->
<g id="edge13" class="edge">
<title>Node4&#45;&gt;Node14</title>
<path fill="none" stroke="#191970" d="M331.1274,-1583.9962C344.272,-1580.9027 357.0643,-1575.5226 367,-1566.5 409.7997,-1527.6335 361.9889,-1482.2494 403,-1441.5 407.9699,-1436.5618 413.7989,-1432.5441 420.0712,-1429.2778"/>
<polygon fill="#191970" stroke="#191970" points="330.2054,-1580.6094 321.0484,-1585.9386 331.5301,-1587.4829 330.2054,-1580.6094"/>
</g>
<!-- Node15 -->
<g id="node15" class="node">
<title>Node15</title>
<g id="a_node15"><a xlink:href="../../d1/d97/classPHPatternReco.html#ad261733deca3b8c36ac1fff124a79070" target="_top" xlink:title="PHPatternReco::initialize\l_geometry">
<polygon fill="none" stroke="#ff0000" points="426,-1348.5 426,-1380.5 565,-1380.5 565,-1348.5 426,-1348.5"/>
<text text-anchor="start" x="434" y="-1367.5" font-family="FreeSans" font-size="10.00" fill="#000000">PHPatternReco::initialize</text>
<text text-anchor="middle" x="495.5" y="-1355.5" font-family="FreeSans" font-size="10.00" fill="#000000">_geometry</text>
</a>
</g>
</g>
<!-- Node4&#45;&gt;Node15 -->
<g id="edge14" class="edge">
<title>Node4&#45;&gt;Node15</title>
<path fill="none" stroke="#191970" d="M331.2529,-1584.6742C344.5151,-1581.5647 357.3244,-1576.0068 367,-1566.5 423.9513,-1510.5423 348.6192,-1448.9589 403,-1390.5 409.3626,-1383.6603 417.3678,-1378.5688 425.9926,-1374.788"/>
<polygon fill="#191970" stroke="#191970" points="330.2432,-1581.303 321.0674,-1586.5997 331.5436,-1588.1812 330.2432,-1581.303"/>
</g>
<!-- Node16 -->
<g id="node16" class="node">
<title>Node16</title>
<g id="a_node16"><a xlink:href="../../da/df1/classPHRTreeSeeding.html#ad4cd308ecaab071637bdf37673be5807" target="_top" xlink:title="PHRTreeSeeding::Initialize\lGeometry">
<polygon fill="none" stroke="#ff0000" points="422,-1297.5 422,-1329.5 569,-1329.5 569,-1297.5 422,-1297.5"/>
<text text-anchor="start" x="430" y="-1316.5" font-family="FreeSans" font-size="10.00" fill="#000000">PHRTreeSeeding::Initialize</text>
<text text-anchor="middle" x="495.5" y="-1304.5" font-family="FreeSans" font-size="10.00" fill="#000000">Geometry</text>
</a>
</g>
</g>
<!-- Node4&#45;&gt;Node16 -->
<g id="edge15" class="edge">
<title>Node4&#45;&gt;Node16</title>
<path fill="none" stroke="#191970" d="M330.9703,-1585.1327C344.4308,-1582.0352 357.3949,-1576.3669 367,-1566.5 438.2534,-1493.3049 335.1056,-1415.8211 403,-1339.5 408.2111,-1333.6422 414.6265,-1329.0589 421.6286,-1325.4796"/>
<polygon fill="#191970" stroke="#191970" points="330.3174,-1581.694 321.1222,-1586.957 331.5925,-1588.5769 330.3174,-1581.694"/>
</g>
<!-- Node17 -->
<g id="node17" class="node">
<title>Node17</title>
<g id="a_node17"><a xlink:href="../../d7/d10/classRawTowerBuilder.html#a4b0df4f724072bb2c3f2e59e44ef134c" target="_top" xlink:title="RawTowerBuilder::InitRun">
<polygon fill="none" stroke="#000000" points="423.5,-1258.5 423.5,-1278.5 567.5,-1278.5 567.5,-1258.5 423.5,-1258.5"/>
<text text-anchor="middle" x="495.5" y="-1265.5" font-family="FreeSans" font-size="10.00" fill="#000000">RawTowerBuilder::InitRun</text>
</a>
</g>
</g>
<!-- Node4&#45;&gt;Node17 -->
<g id="edge16" class="edge">
<title>Node4&#45;&gt;Node17</title>
<path fill="none" stroke="#191970" d="M330.9669,-1585.382C344.4934,-1582.2859 357.4866,-1576.5554 367,-1566.5 452.6234,-1475.998 318.6875,-1380.2244 403,-1288.5 408.6706,-1282.3309 415.753,-1277.826 423.4596,-1274.5671"/>
<polygon fill="#191970" stroke="#191970" points="330.2713,-1581.9511 321.0653,-1587.1951 331.5322,-1588.8366 330.2713,-1581.9511"/>
</g>
</g>
</svg>
