<?xml version="1.0" encoding="UTF-8" standalone="no"?>
<!DOCTYPE svg PUBLIC "-//W3C//DTD SVG 1.1//EN"
 "http://www.w3.org/Graphics/SVG/1.1/DTD/svg11.dtd">
<!-- Generated by graphviz version 2.40.1 (20161225.0304)
 -->
<!-- Title: PHCASeeding::QueryTree Pages: 1 -->
<svg width="546pt" height="68pt"
 viewBox="0.00 0.00 546.00 68.00" xmlns="http://www.w3.org/2000/svg" xmlns:xlink="http://www.w3.org/1999/xlink">
<g id="graph0" class="graph" transform="scale(1 1) rotate(0) translate(4 64)">
<title>PHCASeeding::QueryTree</title>
<!-- Node1 -->
<g id="node1" class="node">
<title>Node1</title>
<polygon fill="#bfbfbf" stroke="#000000" points="0,-19.5 0,-39.5 143,-39.5 143,-19.5 0,-19.5"/>
<text text-anchor="middle" x="71.5" y="-26.5" font-family="FreeSans" font-size="10.00" fill="#000000">PHCASeeding::QueryTree</text>
</g>
<!-- Node2 -->
<g id="node2" class="node">
<title>Node2</title>
<g id="a_node2"><a xlink:href="../../d1/d08/classPHCASeeding.html#ad6b8c71cbacac88f6ac48ecf89a5ebbd" target="_top" xlink:title="PHCASeeding::FillTree">
<polygon fill="none" stroke="#000000" points="212.5,-39.5 212.5,-59.5 338.5,-59.5 338.5,-39.5 212.5,-39.5"/>
<text text-anchor="middle" x="275.5" y="-46.5" font-family="FreeSans" font-size="10.00" fill="#000000">PHCASeeding::FillTree</text>
</a>
</g>
</g>
<!-- Node1&#45;&gt;Node2 -->
<g id="edge1" class="edge">
<title>Node1&#45;&gt;Node2</title>
<path fill="none" stroke="#191970" d="M153.2835,-37.518C172.9007,-39.4412 193.5572,-41.4664 212.1912,-43.2933"/>
<polygon fill="#191970" stroke="#191970" points="153.4297,-34.0156 143.1359,-36.5231 152.7467,-40.9822 153.4297,-34.0156"/>
</g>
<!-- Node4 -->
<g id="node4" class="node">
<title>Node4</title>
<g id="a_node4"><a xlink:href="../../d1/d08/classPHCASeeding.html#af376b7d45ef271961bb0a2fc4a24631a" target="_top" xlink:title="PHCASeeding::FindSeedsLayerSkip">
<polygon fill="none" stroke="#000000" points="179,-.5 179,-20.5 372,-20.5 372,-.5 179,-.5"/>
<text text-anchor="middle" x="275.5" y="-7.5" font-family="FreeSans" font-size="10.00" fill="#000000">PHCASeeding::FindSeedsLayerSkip</text>
</a>
</g>
</g>
<!-- Node1&#45;&gt;Node4 -->
<g id="edge3" class="edge">
<title>Node1&#45;&gt;Node4</title>
<path fill="none" stroke="#191970" d="M153.3193,-21.8796C161.7593,-21.0935 170.3914,-20.2895 178.9717,-19.4904"/>
<polygon fill="#191970" stroke="#191970" points="152.7682,-18.4157 143.1359,-22.828 153.4174,-25.3855 152.7682,-18.4157"/>
</g>
<!-- Node3 -->
<g id="node3" class="node">
<title>Node3</title>
<g id="a_node3"><a xlink:href="../../d1/d08/classPHCASeeding.html#aaa4eca2abbf1065bb9b48de9cb683494" target="_top" xlink:title="PHCASeeding::Process">
<polygon fill="none" stroke="#000000" points="408,-19.5 408,-39.5 538,-39.5 538,-19.5 408,-19.5"/>
<text text-anchor="middle" x="473" y="-26.5" font-family="FreeSans" font-size="10.00" fill="#000000">PHCASeeding::Process</text>
</a>
</g>
</g>
<!-- Node2&#45;&gt;Node3 -->
<g id="edge2" class="edge">
<title>Node2&#45;&gt;Node3</title>
<path fill="none" stroke="#191970" d="M348.5517,-42.1024C367.9922,-40.1337 388.8608,-38.0204 407.848,-36.0977"/>
<polygon fill="#191970" stroke="#191970" points="348.1297,-38.6271 338.5332,-43.1169 348.835,-45.5915 348.1297,-38.6271"/>
</g>
<!-- Node4&#45;&gt;Node3 -->
<g id="edge4" class="edge">
<title>Node4&#45;&gt;Node3</title>
<path fill="none" stroke="#191970" d="M382.444,-20.7883C391.1296,-21.6239 399.7301,-22.4512 407.9742,-23.2444"/>
<polygon fill="#191970" stroke="#191970" points="382.5142,-17.279 372.225,-19.8052 381.8438,-24.2468 382.5142,-17.279"/>
</g>
</g>
</svg>
