<?xml version="1.0" encoding="UTF-8" standalone="no"?>
<!DOCTYPE svg PUBLIC "-//W3C//DTD SVG 1.1//EN"
 "http://www.w3.org/Graphics/SVG/1.1/DTD/svg11.dtd">
<!-- Generated by graphviz version 2.40.1 (20161225.0304)
 -->
<!-- Title: fun4all_macros/blob/master/macros/g4simulations/G4_DSTReader.C Pages: 1 -->
<svg width="1068pt" height="281pt"
 viewBox="0.00 0.00 1068.24 281.00" xmlns="http://www.w3.org/2000/svg" xmlns:xlink="http://www.w3.org/1999/xlink">
<g id="graph0" class="graph" transform="scale(1 1) rotate(0) translate(4 277)">
<title>fun4all_macros/blob/master/macros/g4simulations/G4_DSTReader.C</title>
<!-- Node1 -->
<g id="node1" class="node">
<title>Node1</title>
<polygon fill="#bfbfbf" stroke="#000000" points="323.7404,-228.5 323.7404,-272.5 494.7404,-272.5 494.7404,-228.5 323.7404,-228.5"/>
<text text-anchor="start" x="331.7404" y="-259.5" font-family="FreeSans" font-size="10.00" fill="#000000">fun4all_macros/blob</text>
<text text-anchor="start" x="331.7404" y="-247.5" font-family="FreeSans" font-size="10.00" fill="#000000">/master/macros/g4simulations</text>
<text text-anchor="middle" x="409.2404" y="-235.5" font-family="FreeSans" font-size="10.00" fill="#000000">/G4_DSTReader.C</text>
</g>
<!-- Node2 -->
<g id="node2" class="node">
<title>Node2</title>
<g id="a_node2"><a xlink:href="../../dc/da2/Fun4AllServer_8h.html" target="_top" xlink:title="fun4all/Fun4AllServer.h">
<polygon fill="none" stroke="#000000" points="342.7404,-171.5 342.7404,-191.5 475.7404,-191.5 475.7404,-171.5 342.7404,-171.5"/>
<text text-anchor="middle" x="409.2404" y="-178.5" font-family="FreeSans" font-size="10.00" fill="#000000">fun4all/Fun4AllServer.h</text>
</a>
</g>
</g>
<!-- Node1&#45;&gt;Node2 -->
<g id="edge1" class="edge">
<title>Node1&#45;&gt;Node2</title>
<path fill="none" stroke="#191970" d="M409.2404,-228.2882C409.2404,-219.8377 409.2404,-210.2557 409.2404,-201.9736"/>
<polygon fill="#191970" stroke="#191970" points="412.7405,-201.7136 409.2404,-191.7137 405.7405,-201.7137 412.7405,-201.7136"/>
</g>
<!-- Node5 -->
<g id="node5" class="node">
<title>Node5</title>
<polygon fill="none" stroke="#bfbfbf" points="499.7404,-.5 499.7404,-20.5 544.7404,-20.5 544.7404,-.5 499.7404,-.5"/>
<text text-anchor="middle" x="522.2404" y="-7.5" font-family="FreeSans" font-size="10.00" fill="#000000">string</text>
</g>
<!-- Node1&#45;&gt;Node5 -->
<g id="edge28" class="edge">
<title>Node1&#45;&gt;Node5</title>
<path fill="none" stroke="#191970" d="M323.7281,-239.2813C182.559,-217.5049 -74.596,-162.1433 21.2404,-57 52.7792,-22.3984 382.8563,-13.1395 489.331,-11.0437"/>
<polygon fill="#191970" stroke="#191970" points="489.5565,-14.5402 499.4888,-10.8524 489.4246,-7.5414 489.5565,-14.5402"/>
</g>
<!-- Node15 -->
<g id="node15" class="node">
<title>Node15</title>
<g id="a_node15"><a xlink:href="../../d9/d70/PHG4DSTReader_8h.html" target="_top" xlink:title="g4eval/PHG4DSTReader.h">
<polygon fill="none" stroke="#000000" points="694.2404,-171.5 694.2404,-191.5 840.2404,-191.5 840.2404,-171.5 694.2404,-171.5"/>
<text text-anchor="middle" x="767.2404" y="-178.5" font-family="FreeSans" font-size="10.00" fill="#000000">g4eval/PHG4DSTReader.h</text>
</a>
</g>
</g>
<!-- Node1&#45;&gt;Node15 -->
<g id="edge20" class="edge">
<title>Node1&#45;&gt;Node15</title>
<path fill="none" stroke="#191970" d="M494.9903,-233.9728C559.6796,-221.5047 646.9123,-204.6917 705.0167,-193.4928"/>
<polygon fill="#191970" stroke="#191970" points="705.9996,-196.8679 715.1565,-191.5385 704.6748,-189.9944 705.9996,-196.8679"/>
</g>
<!-- Node3 -->
<g id="node3" class="node">
<title>Node3</title>
<g id="a_node3"><a xlink:href="../../d2/de7/Fun4AllBase_8h.html" target="_top" xlink:title="Fun4AllBase.h">
<polygon fill="none" stroke="#000000" points="561.7404,-57.5 561.7404,-77.5 648.7404,-77.5 648.7404,-57.5 561.7404,-57.5"/>
<text text-anchor="middle" x="605.2404" y="-64.5" font-family="FreeSans" font-size="10.00" fill="#000000">Fun4AllBase.h</text>
</a>
</g>
</g>
<!-- Node2&#45;&gt;Node3 -->
<g id="edge2" class="edge">
<title>Node2&#45;&gt;Node3</title>
<path fill="none" stroke="#191970" d="M476.0168,-173.0855C523.3392,-165.6801 581.1651,-153.2126 597.2404,-135 608.4416,-122.3096 609.6022,-102.6492 608.4572,-87.8135"/>
<polygon fill="#191970" stroke="#191970" points="611.901,-87.1287 607.2604,-77.6043 604.9486,-87.9438 611.901,-87.1287"/>
</g>
<!-- Node2&#45;&gt;Node5 -->
<g id="edge17" class="edge">
<title>Node2&#45;&gt;Node5</title>
<path fill="none" stroke="#191970" d="M407.7555,-171.3019C405.0022,-148.4343 401.5217,-92.304 427.2404,-57 442.175,-36.4994 468.6495,-24.5842 489.8636,-17.9579"/>
<polygon fill="#191970" stroke="#191970" points="490.8357,-21.3203 499.4802,-15.1945 488.9024,-14.5925 490.8357,-21.3203"/>
</g>
<!-- Node6 -->
<g id="node6" class="node">
<title>Node6</title>
<g id="a_node6"><a xlink:href="../../d0/d59/Fun4AllHistoManager_8h.html" target="_top" xlink:title="Fun4AllHistoManager.h">
<polygon fill="none" stroke="#000000" points="456.2404,-114.5 456.2404,-134.5 588.2404,-134.5 588.2404,-114.5 456.2404,-114.5"/>
<text text-anchor="middle" x="522.2404" y="-121.5" font-family="FreeSans" font-size="10.00" fill="#000000">Fun4AllHistoManager.h</text>
</a>
</g>
</g>
<!-- Node2&#45;&gt;Node6 -->
<g id="edge5" class="edge">
<title>Node2&#45;&gt;Node6</title>
<path fill="none" stroke="#191970" d="M429.1824,-171.4408C446.9043,-162.5014 473.0355,-149.3202 493.0992,-139.1996"/>
<polygon fill="#191970" stroke="#191970" points="494.7656,-142.2791 502.1177,-134.6504 491.6129,-136.0292 494.7656,-142.2791"/>
</g>
<!-- Node7 -->
<g id="node7" class="node">
<title>Node7</title>
<polygon fill="none" stroke="#bfbfbf" points="436.7404,-57.5 436.7404,-77.5 475.7404,-77.5 475.7404,-57.5 436.7404,-57.5"/>
<text text-anchor="middle" x="456.2404" y="-64.5" font-family="FreeSans" font-size="10.00" fill="#000000">map</text>
</g>
<!-- Node2&#45;&gt;Node7 -->
<g id="edge16" class="edge">
<title>Node2&#45;&gt;Node7</title>
<path fill="none" stroke="#191970" d="M413.4114,-171.3833C421.1959,-152.5017 438.0597,-111.598 448.1485,-87.1272"/>
<polygon fill="#191970" stroke="#191970" points="451.4354,-88.3371 452.0113,-77.7579 444.9638,-85.669 451.4354,-88.3371"/>
</g>
<!-- Node8 -->
<g id="node8" class="node">
<title>Node8</title>
<g id="a_node8"><a xlink:href="../../dc/d26/PHTimer_8h.html" target="_top" xlink:title="high precision timer">
<polygon fill="none" stroke="#000000" points="160.7404,-114.5 160.7404,-134.5 259.7404,-134.5 259.7404,-114.5 160.7404,-114.5"/>
<text text-anchor="middle" x="210.2404" y="-121.5" font-family="FreeSans" font-size="10.00" fill="#000000">phool/PHTimer.h</text>
</a>
</g>
</g>
<!-- Node2&#45;&gt;Node8 -->
<g id="edge9" class="edge">
<title>Node2&#45;&gt;Node8</title>
<path fill="none" stroke="#191970" d="M374.1213,-171.4408C340.9742,-161.9464 291.1215,-147.6669 255.1079,-137.3515"/>
<polygon fill="#191970" stroke="#191970" points="255.9198,-133.9434 245.3426,-134.5544 253.9922,-140.6727 255.9198,-133.9434"/>
</g>
<!-- Node11 -->
<g id="node11" class="node">
<title>Node11</title>
<polygon fill="none" stroke="#bfbfbf" points="302.2404,-57.5 302.2404,-77.5 362.2404,-77.5 362.2404,-57.5 302.2404,-57.5"/>
<text text-anchor="middle" x="332.2404" y="-64.5" font-family="FreeSans" font-size="10.00" fill="#000000">iostream</text>
</g>
<!-- Node2&#45;&gt;Node11 -->
<g id="edge15" class="edge">
<title>Node2&#45;&gt;Node11</title>
<path fill="none" stroke="#191970" d="M360.452,-171.4962C340.4038,-164.7243 319.1362,-153.4966 307.2404,-135 297.3881,-119.6807 306.858,-99.9254 316.8419,-85.7509"/>
<polygon fill="#191970" stroke="#191970" points="319.6737,-87.8094 322.9566,-77.736 314.1084,-83.5635 319.6737,-87.8094"/>
</g>
<!-- Node13 -->
<g id="node13" class="node">
<title>Node13</title>
<polygon fill="none" stroke="#bfbfbf" points="316.7404,-114.5 316.7404,-134.5 361.7404,-134.5 361.7404,-114.5 316.7404,-114.5"/>
<text text-anchor="middle" x="339.2404" y="-121.5" font-family="FreeSans" font-size="10.00" fill="#000000">utility</text>
</g>
<!-- Node2&#45;&gt;Node13 -->
<g id="edge18" class="edge">
<title>Node2&#45;&gt;Node13</title>
<path fill="none" stroke="#191970" d="M396.7258,-171.3095C386.3735,-162.8798 371.4698,-150.7439 359.4317,-140.9415"/>
<polygon fill="#191970" stroke="#191970" points="361.6111,-138.2025 351.6467,-134.6022 357.191,-143.6306 361.6111,-138.2025"/>
</g>
<!-- Node14 -->
<g id="node14" class="node">
<title>Node14</title>
<polygon fill="none" stroke="#bfbfbf" points="644.7404,-114.5 644.7404,-134.5 693.7404,-134.5 693.7404,-114.5 644.7404,-114.5"/>
<text text-anchor="middle" x="669.2404" y="-121.5" font-family="FreeSans" font-size="10.00" fill="#000000">vector</text>
</g>
<!-- Node2&#45;&gt;Node14 -->
<g id="edge19" class="edge">
<title>Node2&#45;&gt;Node14</title>
<path fill="none" stroke="#191970" d="M461.2208,-171.4119C506.122,-162.4952 572.666,-148.7962 630.2404,-135 631.6894,-134.6528 633.1666,-134.2909 634.6573,-133.9191"/>
<polygon fill="#191970" stroke="#191970" points="635.7256,-137.2582 644.5358,-131.3734 633.9787,-130.4797 635.7256,-137.2582"/>
</g>
<!-- Node4 -->
<g id="node4" class="node">
<title>Node4</title>
<polygon fill="none" stroke="#bfbfbf" points="580.7404,-.5 580.7404,-20.5 629.7404,-20.5 629.7404,-.5 580.7404,-.5"/>
<text text-anchor="middle" x="605.2404" y="-7.5" font-family="FreeSans" font-size="10.00" fill="#000000">climits</text>
</g>
<!-- Node3&#45;&gt;Node4 -->
<g id="edge3" class="edge">
<title>Node3&#45;&gt;Node4</title>
<path fill="none" stroke="#191970" d="M605.2404,-57.3095C605.2404,-49.9335 605.2404,-39.72 605.2404,-30.715"/>
<polygon fill="#191970" stroke="#191970" points="608.7405,-30.6022 605.2404,-20.6022 601.7405,-30.6023 608.7405,-30.6022"/>
</g>
<!-- Node3&#45;&gt;Node5 -->
<g id="edge4" class="edge">
<title>Node3&#45;&gt;Node5</title>
<path fill="none" stroke="#191970" d="M590.4017,-57.3095C577.8907,-48.7177 559.7736,-36.2758 545.3619,-26.3786"/>
<polygon fill="#191970" stroke="#191970" points="547.1754,-23.3782 536.9507,-20.6022 543.2126,-29.1485 547.1754,-23.3782"/>
</g>
<!-- Node6&#45;&gt;Node3 -->
<g id="edge6" class="edge">
<title>Node6&#45;&gt;Node3</title>
<path fill="none" stroke="#191970" d="M537.0792,-114.3095C549.5901,-105.7177 567.7073,-93.2758 582.1189,-83.3786"/>
<polygon fill="#191970" stroke="#191970" points="584.2682,-86.1485 590.5301,-77.6022 580.3054,-80.3782 584.2682,-86.1485"/>
</g>
<!-- Node6&#45;&gt;Node5 -->
<g id="edge8" class="edge">
<title>Node6&#45;&gt;Node5</title>
<path fill="none" stroke="#191970" d="M522.2404,-114.3833C522.2404,-95.6703 522.2404,-55.3266 522.2404,-30.7866"/>
<polygon fill="#191970" stroke="#191970" points="525.7405,-30.7579 522.2404,-20.7579 518.7405,-30.758 525.7405,-30.7579"/>
</g>
<!-- Node6&#45;&gt;Node7 -->
<g id="edge7" class="edge">
<title>Node6&#45;&gt;Node7</title>
<path fill="none" stroke="#191970" d="M510.4409,-114.3095C500.774,-105.9608 486.8979,-93.9769 475.6061,-84.2249"/>
<polygon fill="#191970" stroke="#191970" points="477.7937,-81.4896 467.9377,-77.6022 473.2183,-86.7874 477.7937,-81.4896"/>
</g>
<!-- Node8&#45;&gt;Node5 -->
<g id="edge13" class="edge">
<title>Node8&#45;&gt;Node5</title>
<path fill="none" stroke="#191970" d="M219.3758,-114.4615C233.6213,-99.4681 262.679,-71.4457 293.2404,-57 358.4345,-26.1843 443.4968,-15.7437 489.4067,-12.2402"/>
<polygon fill="#191970" stroke="#191970" points="489.931,-15.7123 499.663,-11.5245 489.4436,-8.7292 489.931,-15.7123"/>
</g>
<!-- Node9 -->
<g id="node9" class="node">
<title>Node9</title>
<polygon fill="none" stroke="#bfbfbf" points="188.7404,-57.5 188.7404,-77.5 245.7404,-77.5 245.7404,-57.5 188.7404,-57.5"/>
<text text-anchor="middle" x="217.2404" y="-64.5" font-family="FreeSans" font-size="10.00" fill="#000000">unistd.h</text>
</g>
<!-- Node8&#45;&gt;Node9 -->
<g id="edge10" class="edge">
<title>Node8&#45;&gt;Node9</title>
<path fill="none" stroke="#191970" d="M211.4919,-114.3095C212.3977,-106.9335 213.652,-96.72 214.7579,-87.715"/>
<polygon fill="#191970" stroke="#191970" points="218.2547,-87.9543 215.9998,-77.6022 211.3069,-87.101 218.2547,-87.9543"/>
</g>
<!-- Node10 -->
<g id="node10" class="node">
<title>Node10</title>
<polygon fill="none" stroke="#bfbfbf" points="30.7404,-57.5 30.7404,-77.5 95.7404,-77.5 95.7404,-57.5 30.7404,-57.5"/>
<text text-anchor="middle" x="63.2404" y="-64.5" font-family="FreeSans" font-size="10.00" fill="#000000">exception</text>
</g>
<!-- Node8&#45;&gt;Node10 -->
<g id="edge11" class="edge">
<title>Node8&#45;&gt;Node10</title>
<path fill="none" stroke="#191970" d="M184.2982,-114.4408C160.6182,-105.2587 125.3965,-91.6013 99.0418,-81.3822"/>
<polygon fill="#191970" stroke="#191970" points="100.0068,-78.0025 89.4178,-77.6504 97.4761,-84.529 100.0068,-78.0025"/>
</g>
<!-- Node8&#45;&gt;Node11 -->
<g id="edge12" class="edge">
<title>Node8&#45;&gt;Node11</title>
<path fill="none" stroke="#191970" d="M231.7707,-114.4408C251.0772,-105.4205 279.6279,-92.0813 301.3647,-81.9255"/>
<polygon fill="#191970" stroke="#191970" points="302.9366,-85.0544 310.515,-77.6504 299.9735,-78.7124 302.9366,-85.0544"/>
</g>
<!-- Node12 -->
<g id="node12" class="node">
<title>Node12</title>
<polygon fill="none" stroke="#bfbfbf" points="114.2404,-57.5 114.2404,-77.5 170.2404,-77.5 170.2404,-57.5 114.2404,-57.5"/>
<text text-anchor="middle" x="142.2404" y="-64.5" font-family="FreeSans" font-size="10.00" fill="#000000">sstream</text>
</g>
<!-- Node8&#45;&gt;Node12 -->
<g id="edge14" class="edge">
<title>Node8&#45;&gt;Node12</title>
<path fill="none" stroke="#191970" d="M198.0834,-114.3095C188.1235,-105.9608 173.827,-93.9769 162.1929,-84.2249"/>
<polygon fill="#191970" stroke="#191970" points="164.2043,-81.344 154.2922,-77.6022 159.7075,-86.7086 164.2043,-81.344"/>
</g>
<!-- Node15&#45;&gt;Node5 -->
<g id="edge26" class="edge">
<title>Node15&#45;&gt;Node5</title>
<path fill="none" stroke="#191970" d="M760.8632,-171.1919C745.7591,-147.5981 705.4312,-89.227 657.2404,-57 640.247,-45.6359 589.1116,-29.6128 554.8827,-19.6516"/>
<polygon fill="#191970" stroke="#191970" points="555.4372,-16.1691 544.8593,-16.7666 553.501,-22.8961 555.4372,-16.1691"/>
</g>
<!-- Node15&#45;&gt;Node14 -->
<g id="edge27" class="edge">
<title>Node15&#45;&gt;Node14</title>
<path fill="none" stroke="#191970" d="M749.72,-171.3095C734.6693,-162.5556 712.7471,-149.8049 695.582,-139.8211"/>
<polygon fill="#191970" stroke="#191970" points="697.0131,-136.6046 686.6092,-134.6022 693.4936,-142.6555 697.0131,-136.6046"/>
</g>
<!-- Node16 -->
<g id="node16" class="node">
<title>Node16</title>
<g id="a_node16"><a xlink:href="../../d5/dc2/SubsysReco_8h.html" target="_top" xlink:title="fun4all/SubsysReco.h">
<polygon fill="none" stroke="#000000" points="750.2404,-114.5 750.2404,-134.5 874.2404,-134.5 874.2404,-114.5 750.2404,-114.5"/>
<text text-anchor="middle" x="812.2404" y="-121.5" font-family="FreeSans" font-size="10.00" fill="#000000">fun4all/SubsysReco.h</text>
</a>
</g>
</g>
<!-- Node15&#45;&gt;Node16 -->
<g id="edge21" class="edge">
<title>Node15&#45;&gt;Node16</title>
<path fill="none" stroke="#191970" d="M775.2855,-171.3095C781.5567,-163.3661 790.4258,-152.1319 797.9034,-142.6602"/>
<polygon fill="#191970" stroke="#191970" points="800.8156,-144.6199 804.265,-134.6022 795.3214,-140.2823 800.8156,-144.6199"/>
</g>
<!-- Node17 -->
<g id="node17" class="node">
<title>Node17</title>
<polygon fill="none" stroke="#bfbfbf" points="892.2404,-114.5 892.2404,-134.5 1010.2404,-134.5 1010.2404,-114.5 892.2404,-114.5"/>
<text text-anchor="middle" x="951.2404" y="-121.5" font-family="FreeSans" font-size="10.00" fill="#000000">boost/smart_ptr.hpp</text>
</g>
<!-- Node15&#45;&gt;Node17 -->
<g id="edge24" class="edge">
<title>Node15&#45;&gt;Node17</title>
<path fill="none" stroke="#191970" d="M799.7124,-171.4408C830.099,-162.0275 875.6691,-147.9107 908.8983,-137.6169"/>
<polygon fill="#191970" stroke="#191970" points="910.2677,-140.8568 918.7841,-134.5544 908.1963,-134.1703 910.2677,-140.8568"/>
</g>
<!-- Node18 -->
<g id="node18" class="node">
<title>Node18</title>
<polygon fill="none" stroke="#bfbfbf" points="1028.2404,-114.5 1028.2404,-134.5 1060.2404,-134.5 1060.2404,-114.5 1028.2404,-114.5"/>
<text text-anchor="middle" x="1044.2404" y="-121.5" font-family="FreeSans" font-size="10.00" fill="#000000">set</text>
</g>
<!-- Node15&#45;&gt;Node18 -->
<g id="edge25" class="edge">
<title>Node15&#45;&gt;Node18</title>
<path fill="none" stroke="#191970" d="M840.4562,-172.2418C888.7993,-165.1512 953.5105,-153.7991 1018.0781,-134.8793"/>
<polygon fill="#191970" stroke="#191970" points="1019.4413,-138.1248 1028.0185,-131.9053 1017.4348,-131.4186 1019.4413,-138.1248"/>
</g>
<!-- Node16&#45;&gt;Node3 -->
<g id="edge22" class="edge">
<title>Node16&#45;&gt;Node3</title>
<path fill="none" stroke="#191970" d="M775.7095,-114.4408C741.0825,-104.9058 688.9295,-90.5448 651.4321,-80.2195"/>
<polygon fill="#191970" stroke="#191970" points="652.3241,-76.8349 641.7537,-77.5544 650.4657,-83.5837 652.3241,-76.8349"/>
</g>
<!-- Node16&#45;&gt;Node5 -->
<g id="edge23" class="edge">
<title>Node16&#45;&gt;Node5</title>
<path fill="none" stroke="#191970" d="M804.0384,-114.4873C791.2072,-99.5276 764.8742,-71.5486 736.2404,-57 735.2212,-56.4821 614.8003,-30.4652 555.0717,-17.5791"/>
<polygon fill="#191970" stroke="#191970" points="555.5216,-14.0957 545.0084,-15.4084 554.0456,-20.9383 555.5216,-14.0957"/>
</g>
</g>
</svg>
