<?xml version="1.0" encoding="UTF-8" standalone="no"?>
<!DOCTYPE svg PUBLIC "-//W3C//DTD SVG 1.1//EN"
 "http://www.w3.org/Graphics/SVG/1.1/DTD/svg11.dtd">
<!-- Generated by graphviz version 2.40.1 (20161225.0304)
 -->
<!-- Title: GPUTPCTrackParam::SetNDF Pages: 1 -->
<svg width="768pt" height="29pt"
 viewBox="0.00 0.00 768.00 29.00" xmlns="http://www.w3.org/2000/svg" xmlns:xlink="http://www.w3.org/1999/xlink">
<g id="graph0" class="graph" transform="scale(1 1) rotate(0) translate(4 25)">
<title>GPUTPCTrackParam::SetNDF</title>
<!-- Node1 -->
<g id="node1" class="node">
<title>Node1</title>
<polygon fill="#bfbfbf" stroke="#000000" points="0,-.5 0,-20.5 159,-20.5 159,-.5 0,-.5"/>
<text text-anchor="middle" x="79.5" y="-7.5" font-family="FreeSans" font-size="10.00" fill="#000000">GPUTPCTrackParam::SetNDF</text>
</g>
<!-- Node2 -->
<g id="node2" class="node">
<title>Node2</title>
<g id="a_node2"><a xlink:href="../../d4/d60/classGPUTPCTrackParam.html#ab8f13d83726bd39db53e7b3903431d7a" target="_top" xlink:title="GPUTPCTrackParam::InitParam">
<polygon fill="none" stroke="#000000" points="195,-.5 195,-20.5 365,-20.5 365,-.5 195,-.5"/>
<text text-anchor="middle" x="280" y="-7.5" font-family="FreeSans" font-size="10.00" fill="#000000">GPUTPCTrackParam::InitParam</text>
</a>
</g>
</g>
<!-- Node1&#45;&gt;Node2 -->
<g id="edge1" class="edge">
<title>Node1&#45;&gt;Node2</title>
<path fill="none" stroke="#191970" d="M169.0735,-10.5C177.6831,-10.5 186.399,-10.5 194.9631,-10.5"/>
<polygon fill="#191970" stroke="#191970" points="169.0309,-7.0001 159.0309,-10.5 169.0308,-14.0001 169.0309,-7.0001"/>
</g>
<!-- Node3 -->
<g id="node3" class="node">
<title>Node3</title>
<g id="a_node3"><a xlink:href="../../d1/d08/classPHCASeeding.html#af376b7d45ef271961bb0a2fc4a24631a" target="_top" xlink:title="PHCASeeding::FindSeedsLayerSkip">
<polygon fill="none" stroke="#000000" points="401,-.5 401,-20.5 594,-20.5 594,-.5 401,-.5"/>
<text text-anchor="middle" x="497.5" y="-7.5" font-family="FreeSans" font-size="10.00" fill="#000000">PHCASeeding::FindSeedsLayerSkip</text>
</a>
</g>
</g>
<!-- Node2&#45;&gt;Node3 -->
<g id="edge2" class="edge">
<title>Node2&#45;&gt;Node3</title>
<path fill="none" stroke="#191970" d="M375.0577,-10.5C383.6602,-10.5 392.3789,-10.5 400.9937,-10.5"/>
<polygon fill="#191970" stroke="#191970" points="375.0257,-7.0001 365.0256,-10.5 375.0256,-14.0001 375.0257,-7.0001"/>
</g>
<!-- Node4 -->
<g id="node4" class="node">
<title>Node4</title>
<g id="a_node4"><a xlink:href="../../d1/d08/classPHCASeeding.html#aaa4eca2abbf1065bb9b48de9cb683494" target="_top" xlink:title="PHCASeeding::Process">
<polygon fill="none" stroke="#000000" points="630,-.5 630,-20.5 760,-20.5 760,-.5 630,-.5"/>
<text text-anchor="middle" x="695" y="-7.5" font-family="FreeSans" font-size="10.00" fill="#000000">PHCASeeding::Process</text>
</a>
</g>
</g>
<!-- Node3&#45;&gt;Node4 -->
<g id="edge3" class="edge">
<title>Node3&#45;&gt;Node4</title>
<path fill="none" stroke="#191970" d="M604.444,-10.5C613.1296,-10.5 621.7301,-10.5 629.9742,-10.5"/>
<polygon fill="#191970" stroke="#191970" points="604.225,-7.0001 594.225,-10.5 604.2249,-14.0001 604.225,-7.0001"/>
</g>
</g>
</svg>
