<?xml version="1.0" encoding="UTF-8" standalone="no"?>
<!DOCTYPE svg PUBLIC "-//W3C//DTD SVG 1.1//EN"
 "http://www.w3.org/Graphics/SVG/1.1/DTD/svg11.dtd">
<!-- Generated by graphviz version 2.40.1 (20161225.0304)
 -->
<!-- Title: GPUTPCTrackParam::GetKappa Pages: 1 -->
<svg width="631pt" height="107pt"
 viewBox="0.00 0.00 631.00 107.00" xmlns="http://www.w3.org/2000/svg" xmlns:xlink="http://www.w3.org/1999/xlink">
<g id="graph0" class="graph" transform="scale(1 1) rotate(0) translate(4 103)">
<title>GPUTPCTrackParam::GetKappa</title>
<!-- Node1 -->
<g id="node1" class="node">
<title>Node1</title>
<polygon fill="#bfbfbf" stroke="#000000" points="0,-39.5 0,-59.5 171,-59.5 171,-39.5 0,-39.5"/>
<text text-anchor="middle" x="85.5" y="-46.5" font-family="FreeSans" font-size="10.00" fill="#000000">GPUTPCTrackParam::GetKappa</text>
</g>
<!-- Node2 -->
<g id="node2" class="node">
<title>Node2</title>
<g id="a_node2"><a xlink:href="../../d1/d08/classPHCASeeding.html#af376b7d45ef271961bb0a2fc4a24631a" target="_top" xlink:title="PHCASeeding::FindSeedsLayerSkip">
<polygon fill="none" stroke="#000000" points="207,-78.5 207,-98.5 400,-98.5 400,-78.5 207,-78.5"/>
<text text-anchor="middle" x="303.5" y="-85.5" font-family="FreeSans" font-size="10.00" fill="#000000">PHCASeeding::FindSeedsLayerSkip</text>
</a>
</g>
</g>
<!-- Node1&#45;&gt;Node2 -->
<g id="edge1" class="edge">
<title>Node1&#45;&gt;Node2</title>
<path fill="none" stroke="#191970" d="M151.7968,-61.3604C182.3994,-66.8352 218.3364,-73.2643 247.5498,-78.4906"/>
<polygon fill="#191970" stroke="#191970" points="152.1005,-57.8593 141.6404,-59.5435 150.8677,-64.7499 152.1005,-57.8593"/>
</g>
<!-- Node4 -->
<g id="node4" class="node">
<title>Node4</title>
<g id="a_node4"><a xlink:href="../../d4/d60/classGPUTPCTrackParam.html#abd0a5cf5fa4e93b6f1eb06e16ef23fd5" target="_top" xlink:title="GPUTPCTrackParam::GetDCAPoint">
<polygon fill="none" stroke="#000000" points="436,-20.5 436,-40.5 623,-40.5 623,-20.5 436,-20.5"/>
<text text-anchor="middle" x="529.5" y="-27.5" font-family="FreeSans" font-size="10.00" fill="#000000">GPUTPCTrackParam::GetDCAPoint</text>
</a>
</g>
</g>
<!-- Node1&#45;&gt;Node4 -->
<g id="edge3" class="edge">
<title>Node1&#45;&gt;Node4</title>
<path fill="none" stroke="#191970" d="M181.5336,-45.3905C256.8235,-42.1686 361.0047,-37.7104 435.7121,-34.5134"/>
<polygon fill="#191970" stroke="#191970" points="180.9489,-41.9122 171.1077,-45.8366 181.2482,-48.9058 180.9489,-41.9122"/>
</g>
<!-- Node5 -->
<g id="node5" class="node">
<title>Node5</title>
<g id="a_node5"><a xlink:href="../../d4/d60/classGPUTPCTrackParam.html#a95928c289f2f8b400a972a2f401ef15d" target="_top" xlink:title="GPUTPCTrackParam::GetS">
<polygon fill="none" stroke="#000000" points="230.5,-.5 230.5,-20.5 376.5,-20.5 376.5,-.5 230.5,-.5"/>
<text text-anchor="middle" x="303.5" y="-7.5" font-family="FreeSans" font-size="10.00" fill="#000000">GPUTPCTrackParam::GetS</text>
</a>
</g>
</g>
<!-- Node1&#45;&gt;Node5 -->
<g id="edge4" class="edge">
<title>Node1&#45;&gt;Node5</title>
<path fill="none" stroke="#191970" d="M151.7968,-37.6396C182.3994,-32.1648 218.3364,-25.7357 247.5498,-20.5094"/>
<polygon fill="#191970" stroke="#191970" points="150.8677,-34.2501 141.6404,-39.4565 152.1005,-41.1407 150.8677,-34.2501"/>
</g>
<!-- Node3 -->
<g id="node3" class="node">
<title>Node3</title>
<g id="a_node3"><a xlink:href="../../d1/d08/classPHCASeeding.html#aaa4eca2abbf1065bb9b48de9cb683494" target="_top" xlink:title="PHCASeeding::Process">
<polygon fill="none" stroke="#000000" points="464.5,-78.5 464.5,-98.5 594.5,-98.5 594.5,-78.5 464.5,-78.5"/>
<text text-anchor="middle" x="529.5" y="-85.5" font-family="FreeSans" font-size="10.00" fill="#000000">PHCASeeding::Process</text>
</a>
</g>
</g>
<!-- Node2&#45;&gt;Node3 -->
<g id="edge2" class="edge">
<title>Node2&#45;&gt;Node3</title>
<path fill="none" stroke="#191970" d="M410.4828,-88.5C428.8233,-88.5 447.3757,-88.5 464.2002,-88.5"/>
<polygon fill="#191970" stroke="#191970" points="410.3279,-85.0001 400.3278,-88.5 410.3278,-92.0001 410.3279,-85.0001"/>
</g>
<!-- Node5&#45;&gt;Node4 -->
<g id="edge5" class="edge">
<title>Node5&#45;&gt;Node4</title>
<path fill="none" stroke="#191970" d="M386.8634,-17.8773C402.743,-19.2826 419.4628,-20.7622 435.6433,-22.1941"/>
<polygon fill="#191970" stroke="#191970" points="386.8333,-14.361 376.5636,-16.9658 386.2161,-21.3338 386.8333,-14.361"/>
</g>
</g>
</svg>
