<?xml version="1.0" encoding="UTF-8" standalone="no"?>
<!DOCTYPE svg PUBLIC "-//W3C//DTD SVG 1.1//EN"
 "http://www.w3.org/Graphics/SVG/1.1/DTD/svg11.dtd">
<!-- Generated by graphviz version 2.40.1 (20161225.0304)
 -->
<!-- Title: GPUTPCTrackParam::InitParam Pages: 1 -->
<svg width="573pt" height="29pt"
 viewBox="0.00 0.00 573.00 29.00" xmlns="http://www.w3.org/2000/svg" xmlns:xlink="http://www.w3.org/1999/xlink">
<g id="graph0" class="graph" transform="scale(1 1) rotate(0) translate(4 25)">
<title>GPUTPCTrackParam::InitParam</title>
<!-- Node1 -->
<g id="node1" class="node">
<title>Node1</title>
<polygon fill="#bfbfbf" stroke="#000000" points="0,-.5 0,-20.5 170,-20.5 170,-.5 0,-.5"/>
<text text-anchor="middle" x="85" y="-7.5" font-family="FreeSans" font-size="10.00" fill="#000000">GPUTPCTrackParam::InitParam</text>
</g>
<!-- Node2 -->
<g id="node2" class="node">
<title>Node2</title>
<g id="a_node2"><a xlink:href="../../d1/d08/classPHCASeeding.html#af376b7d45ef271961bb0a2fc4a24631a" target="_top" xlink:title="PHCASeeding::FindSeedsLayerSkip">
<polygon fill="none" stroke="#000000" points="206,-.5 206,-20.5 399,-20.5 399,-.5 206,-.5"/>
<text text-anchor="middle" x="302.5" y="-7.5" font-family="FreeSans" font-size="10.00" fill="#000000">PHCASeeding::FindSeedsLayerSkip</text>
</a>
</g>
</g>
<!-- Node1&#45;&gt;Node2 -->
<g id="edge1" class="edge">
<title>Node1&#45;&gt;Node2</title>
<path fill="none" stroke="#191970" d="M180.0577,-10.5C188.6602,-10.5 197.3789,-10.5 205.9937,-10.5"/>
<polygon fill="#191970" stroke="#191970" points="180.0257,-7.0001 170.0256,-10.5 180.0256,-14.0001 180.0257,-7.0001"/>
</g>
<!-- Node3 -->
<g id="node3" class="node">
<title>Node3</title>
<g id="a_node3"><a xlink:href="../../d1/d08/classPHCASeeding.html#aaa4eca2abbf1065bb9b48de9cb683494" target="_top" xlink:title="PHCASeeding::Process">
<polygon fill="none" stroke="#000000" points="435,-.5 435,-20.5 565,-20.5 565,-.5 435,-.5"/>
<text text-anchor="middle" x="500" y="-7.5" font-family="FreeSans" font-size="10.00" fill="#000000">PHCASeeding::Process</text>
</a>
</g>
</g>
<!-- Node2&#45;&gt;Node3 -->
<g id="edge2" class="edge">
<title>Node2&#45;&gt;Node3</title>
<path fill="none" stroke="#191970" d="M409.444,-10.5C418.1296,-10.5 426.7301,-10.5 434.9742,-10.5"/>
<polygon fill="#191970" stroke="#191970" points="409.225,-7.0001 399.225,-10.5 409.2249,-14.0001 409.225,-7.0001"/>
</g>
</g>
</svg>
