<?xml version="1.0" encoding="UTF-8" standalone="no"?>
<!DOCTYPE svg PUBLIC "-//W3C//DTD SVG 1.1//EN"
 "http://www.w3.org/Graphics/SVG/1.1/DTD/svg11.dtd">
<!-- Generated by graphviz version 2.40.1 (20161225.0304)
 -->
<!-- Title: GPUTPCTrackParam::TransportToX Pages: 1 -->
<svg width="590pt" height="80pt"
 viewBox="0.00 0.00 590.00 80.00" xmlns="http://www.w3.org/2000/svg" xmlns:xlink="http://www.w3.org/1999/xlink">
<g id="graph0" class="graph" transform="scale(1 1) rotate(0) translate(4 76)">
<title>GPUTPCTrackParam::TransportToX</title>
<!-- Node1 -->
<g id="node1" class="node">
<title>Node1</title>
<polygon fill="#bfbfbf" stroke="#000000" points="0,-28.5 0,-48.5 187,-48.5 187,-28.5 0,-28.5"/>
<text text-anchor="middle" x="93.5" y="-35.5" font-family="FreeSans" font-size="10.00" fill="#000000">GPUTPCTrackParam::TransportToX</text>
</g>
<!-- Node2 -->
<g id="node2" class="node">
<title>Node2</title>
<g id="a_node2"><a xlink:href="../../d1/d08/classPHCASeeding.html#af376b7d45ef271961bb0a2fc4a24631a" target="_top" xlink:title="PHCASeeding::FindSeedsLayerSkip">
<polygon fill="none" stroke="#000000" points="223,-51.5 223,-71.5 416,-71.5 416,-51.5 223,-51.5"/>
<text text-anchor="middle" x="319.5" y="-58.5" font-family="FreeSans" font-size="10.00" fill="#000000">PHCASeeding::FindSeedsLayerSkip</text>
</a>
</g>
</g>
<!-- Node1&#45;&gt;Node2 -->
<g id="edge1" class="edge">
<title>Node1&#45;&gt;Node2</title>
<path fill="none" stroke="#191970" d="M197.0499,-49.0383C205.6033,-49.9087 214.2295,-50.7866 222.7305,-51.6518"/>
<polygon fill="#191970" stroke="#191970" points="197.3572,-45.5515 187.0542,-48.021 196.6484,-52.5156 197.3572,-45.5515"/>
</g>
<!-- Node4 -->
<g id="node4" class="node">
<title>Node4</title>
<g id="a_node4"><a xlink:href="../../d4/d60/classGPUTPCTrackParam.html#a246446e01187092b92bbf11da4df98fa" target="_top" xlink:title="GPUTPCTrackParam::Transport\lToXWithMaterial">
<polygon fill="none" stroke="#000000" points="234.5,-.5 234.5,-32.5 404.5,-32.5 404.5,-.5 234.5,-.5"/>
<text text-anchor="start" x="242.5" y="-19.5" font-family="FreeSans" font-size="10.00" fill="#000000">GPUTPCTrackParam::Transport</text>
<text text-anchor="middle" x="319.5" y="-7.5" font-family="FreeSans" font-size="10.00" fill="#000000">ToXWithMaterial</text>
</a>
</g>
</g>
<!-- Node1&#45;&gt;Node4 -->
<g id="edge3" class="edge">
<title>Node1&#45;&gt;Node4</title>
<path fill="none" stroke="#191970" d="M197.0241,-28.4224C209.5118,-27.2068 222.1549,-25.9761 234.3377,-24.7901"/>
<polygon fill="#191970" stroke="#191970" points="196.668,-24.9405 187.0542,-29.393 197.3463,-31.9075 196.668,-24.9405"/>
</g>
<!-- Node3 -->
<g id="node3" class="node">
<title>Node3</title>
<g id="a_node3"><a xlink:href="../../d1/d08/classPHCASeeding.html#aaa4eca2abbf1065bb9b48de9cb683494" target="_top" xlink:title="PHCASeeding::Process">
<polygon fill="none" stroke="#000000" points="452,-51.5 452,-71.5 582,-71.5 582,-51.5 452,-51.5"/>
<text text-anchor="middle" x="517" y="-58.5" font-family="FreeSans" font-size="10.00" fill="#000000">PHCASeeding::Process</text>
</a>
</g>
</g>
<!-- Node2&#45;&gt;Node3 -->
<g id="edge2" class="edge">
<title>Node2&#45;&gt;Node3</title>
<path fill="none" stroke="#191970" d="M426.444,-61.5C435.1296,-61.5 443.7301,-61.5 451.9742,-61.5"/>
<polygon fill="#191970" stroke="#191970" points="426.225,-58.0001 416.225,-61.5 426.2249,-65.0001 426.225,-58.0001"/>
</g>
</g>
</svg>
