<?xml version="1.0" encoding="UTF-8" standalone="no"?>
<!DOCTYPE svg PUBLIC "-//W3C//DTD SVG 1.1//EN"
 "http://www.w3.org/Graphics/SVG/1.1/DTD/svg11.dtd">
<!-- Generated by graphviz version 2.40.1 (20161225.0304)
 -->
<!-- Title: oBuffer::addEvent Pages: 1 -->
<svg width="1256pt" height="695pt"
 viewBox="0.00 0.00 1256.00 695.00" xmlns="http://www.w3.org/2000/svg" xmlns:xlink="http://www.w3.org/1999/xlink">
<g id="graph0" class="graph" transform="scale(1 1) rotate(0) translate(4 691)">
<title>oBuffer::addEvent</title>
<!-- Node1 -->
<g id="node1" class="node">
<title>Node1</title>
<polygon fill="#bfbfbf" stroke="#000000" points="0,-324.5 0,-344.5 109,-344.5 109,-324.5 0,-324.5"/>
<text text-anchor="middle" x="54.5" y="-331.5" font-family="FreeSans" font-size="10.00" fill="#000000">oBuffer::addEvent</text>
</g>
<!-- Node2 -->
<g id="node2" class="node">
<title>Node2</title>
<g id="a_node2"><a xlink:href="../../d5/da5/classEvent.html#a3a8043c33a54a23662e90b50cf80440f" target="_top" xlink:title="Event::Copy">
<polygon fill="none" stroke="#000000" points="170.5,-402.5 170.5,-422.5 248.5,-422.5 248.5,-402.5 170.5,-402.5"/>
<text text-anchor="middle" x="209.5" y="-409.5" font-family="FreeSans" font-size="10.00" fill="#000000">Event::Copy</text>
</a>
</g>
</g>
<!-- Node1&#45;&gt;Node2 -->
<g id="edge1" class="edge">
<title>Node1&#45;&gt;Node2</title>
<path fill="none" stroke="#191970" d="M67.2857,-344.5756C84.206,-357.4881 115.3644,-379.833 145,-393.5 149.9691,-395.7916 155.281,-397.881 160.6435,-399.7654"/>
<polygon fill="#191970" stroke="#191970" points="159.6948,-403.1377 170.2877,-402.9354 161.8806,-396.4878 159.6948,-403.1377"/>
</g>
<!-- Node3 -->
<g id="node3" class="node">
<title>Node3</title>
<g id="a_node3"><a xlink:href="../../d5/da5/classEvent.html#a4d541637983b2bbb8fc19aaae736b126" target="_top" xlink:title="Event::getEvtLength">
<polygon fill="none" stroke="#000000" points="150,-363.5 150,-383.5 269,-383.5 269,-363.5 150,-363.5"/>
<text text-anchor="middle" x="209.5" y="-370.5" font-family="FreeSans" font-size="10.00" fill="#000000">Event::getEvtLength</text>
</a>
</g>
</g>
<!-- Node1&#45;&gt;Node3 -->
<g id="edge2" class="edge">
<title>Node1&#45;&gt;Node3</title>
<path fill="none" stroke="#191970" d="M94.4164,-344.5435C114.3945,-349.5702 138.7691,-355.7032 159.9346,-361.0287"/>
<polygon fill="#191970" stroke="#191970" points="159.1671,-364.4446 169.7189,-363.4906 160.8752,-357.6562 159.1671,-364.4446"/>
</g>
<!-- Node4 -->
<g id="node4" class="node">
<title>Node4</title>
<g id="a_node4"><a xlink:href="../../d5/da5/classEvent.html#ac29bc493653870268773c6d08238e585" target="_top" xlink:title="Event::getRunNumber">
<polygon fill="none" stroke="#000000" points="145,-324.5 145,-344.5 274,-344.5 274,-324.5 145,-324.5"/>
<text text-anchor="middle" x="209.5" y="-331.5" font-family="FreeSans" font-size="10.00" fill="#000000">Event::getRunNumber</text>
</a>
</g>
</g>
<!-- Node1&#45;&gt;Node4 -->
<g id="edge3" class="edge">
<title>Node1&#45;&gt;Node4</title>
<path fill="none" stroke="#191970" d="M109.1472,-334.5C117.4791,-334.5 126.1979,-334.5 134.8688,-334.5"/>
<polygon fill="#191970" stroke="#191970" points="134.9997,-338.0001 144.9997,-334.5 134.9996,-331.0001 134.9997,-338.0001"/>
</g>
<!-- Node5 -->
<g id="node5" class="node">
<title>Node5</title>
<g id="a_node5"><a xlink:href="../../de/dc8/classoBuffer.html#a20807b66941831cf3aacf5c42b38d8f8" target="_top" xlink:title="oBuffer::prepare_next">
<polygon fill="none" stroke="#000000" points="146,-285.5 146,-305.5 273,-305.5 273,-285.5 146,-285.5"/>
<text text-anchor="middle" x="209.5" y="-292.5" font-family="FreeSans" font-size="10.00" fill="#000000">oBuffer::prepare_next</text>
</a>
</g>
</g>
<!-- Node1&#45;&gt;Node5 -->
<g id="edge4" class="edge">
<title>Node1&#45;&gt;Node5</title>
<path fill="none" stroke="#191970" d="M94.4164,-324.4565C114.3945,-319.4298 138.7691,-313.2968 159.9346,-307.9713"/>
<polygon fill="#191970" stroke="#191970" points="160.8752,-311.3438 169.7189,-305.5094 159.1671,-304.5554 160.8752,-311.3438"/>
</g>
<!-- Node6 -->
<g id="node6" class="node">
<title>Node6</title>
<g id="a_node6"><a xlink:href="../../de/dc8/classoBuffer.html#a1ea4e9f4322874047c2d8c749ee62df5" target="_top" xlink:title="oBuffer::writeout">
<polygon fill="none" stroke="#000000" points="158.5,-246.5 158.5,-266.5 260.5,-266.5 260.5,-246.5 158.5,-246.5"/>
<text text-anchor="middle" x="209.5" y="-253.5" font-family="FreeSans" font-size="10.00" fill="#000000">oBuffer::writeout</text>
</a>
</g>
</g>
<!-- Node1&#45;&gt;Node6 -->
<g id="edge5" class="edge">
<title>Node1&#45;&gt;Node6</title>
<path fill="none" stroke="#191970" d="M67.6392,-324.4562C84.6883,-311.8153 115.7263,-290.1141 145,-276.5 150.2438,-274.0613 155.8616,-271.8198 161.5146,-269.7901"/>
<polygon fill="#191970" stroke="#191970" points="162.6528,-273.1 171.0014,-266.5768 160.4071,-266.47 162.6528,-273.1"/>
</g>
<!-- Node7 -->
<g id="node7" class="node">
<title>Node7</title>
<g id="a_node7"><a xlink:href="../../de/dc8/classoBuffer.html#a0c22585dd84cfc620cb6e8071f2143a4" target="_top" xlink:title="oBuffer::addEoB">
<polygon fill="none" stroke="#000000" points="310,-285.5 310,-305.5 408,-305.5 408,-285.5 310,-285.5"/>
<text text-anchor="middle" x="359" y="-292.5" font-family="FreeSans" font-size="10.00" fill="#000000">oBuffer::addEoB</text>
</a>
</g>
</g>
<!-- Node6&#45;&gt;Node7 -->
<g id="edge6" class="edge">
<title>Node6&#45;&gt;Node7</title>
<path fill="none" stroke="#191970" d="M248,-266.5435C267.182,-271.5475 290.5663,-277.6477 310.9161,-282.9564"/>
<polygon fill="#191970" stroke="#191970" points="310.0708,-286.3529 320.6305,-285.4906 311.8378,-279.5796 310.0708,-286.3529"/>
</g>
<!-- Node8 -->
<g id="node8" class="node">
<title>Node8</title>
<g id="a_node8"><a xlink:href="../../d0/d95/ip_8C.html#a292ff32a75b66b513d1f0ce00f9a4dc4" target="_top" xlink:title="ip">
<polygon fill="none" stroke="#000000" points="344.5,-246.5 344.5,-266.5 373.5,-266.5 373.5,-246.5 344.5,-246.5"/>
<text text-anchor="middle" x="359" y="-253.5" font-family="FreeSans" font-size="10.00" fill="#000000">ip</text>
</a>
</g>
</g>
<!-- Node6&#45;&gt;Node8 -->
<g id="edge7" class="edge">
<title>Node6&#45;&gt;Node8</title>
<path fill="none" stroke="#191970" d="M260.5313,-256.5C285.3684,-256.5 314.1031,-256.5 334.0963,-256.5"/>
<polygon fill="#191970" stroke="#191970" points="334.2241,-260.0001 344.2241,-256.5 334.224,-253.0001 334.2241,-260.0001"/>
</g>
<!-- Node40 -->
<g id="node40" class="node">
<title>Node40</title>
<g id="a_node40"><a xlink:href="../../d3/df0/namespacetree.html#aaf4844be1074debf13e3c5d15c4dd43b" target="_top" xlink:title="tree.write">
<polygon fill="none" stroke="#000000" points="327,-207.5 327,-227.5 391,-227.5 391,-207.5 327,-207.5"/>
<text text-anchor="middle" x="359" y="-214.5" font-family="FreeSans" font-size="10.00" fill="#000000">tree.write</text>
</a>
</g>
</g>
<!-- Node6&#45;&gt;Node40 -->
<g id="edge48" class="edge">
<title>Node6&#45;&gt;Node40</title>
<path fill="none" stroke="#191970" d="M248,-246.4565C269.0617,-240.9622 295.1895,-234.1462 316.8042,-228.5076"/>
<polygon fill="#191970" stroke="#191970" points="317.9033,-231.8381 326.6959,-225.9271 316.1362,-225.0648 317.9033,-231.8381"/>
</g>
<!-- Node9 -->
<g id="node9" class="node">
<title>Node9</title>
<g id="a_node9"><a xlink:href="../../da/d86/classEicGeoMap.html#a4138a501100028aef473a4b9508d36d3" target="_top" xlink:title="EicGeoMap::AddGeantVolume\lLevel">
<polygon fill="none" stroke="#000000" points="663,-654.5 663,-686.5 831,-686.5 831,-654.5 663,-654.5"/>
<text text-anchor="start" x="671" y="-673.5" font-family="FreeSans" font-size="10.00" fill="#000000">EicGeoMap::AddGeantVolume</text>
<text text-anchor="middle" x="747" y="-661.5" font-family="FreeSans" font-size="10.00" fill="#000000">Level</text>
</a>
</g>
</g>
<!-- Node8&#45;&gt;Node9 -->
<g id="edge8" class="edge">
<title>Node8&#45;&gt;Node9</title>
<path fill="none" stroke="#191970" d="M373.7952,-258.5463C384.9707,-260.9058 399.7477,-265.9236 408,-276.5 477.597,-365.6978 378.798,-436.0408 444,-528.5 492.5046,-597.2817 583.1497,-633.6912 652.7049,-652.3402"/>
<polygon fill="#191970" stroke="#191970" points="652.2478,-655.8376 662.8066,-654.9646 654.008,-649.0625 652.2478,-655.8376"/>
</g>
<!-- Node11 -->
<g id="node11" class="node">
<title>Node11</title>
<g id="a_node11"><a xlink:href="../../df/de0/classEicGeoParData.html#a131e36442e699277af7e0e05dd70d7c7" target="_top" xlink:title="EicGeoParData::AddLogical\lVolumeGroup">
<polygon fill="none" stroke="#000000" points="900.5,-408.5 900.5,-440.5 1053.5,-440.5 1053.5,-408.5 900.5,-408.5"/>
<text text-anchor="start" x="908.5" y="-427.5" font-family="FreeSans" font-size="10.00" fill="#000000">EicGeoParData::AddLogical</text>
<text text-anchor="middle" x="977" y="-415.5" font-family="FreeSans" font-size="10.00" fill="#000000">VolumeGroup</text>
</a>
</g>
</g>
<!-- Node8&#45;&gt;Node11 -->
<g id="edge10" class="edge">
<title>Node8&#45;&gt;Node11</title>
<path fill="none" stroke="#191970" d="M373.8766,-258.9617C384.7954,-261.5272 399.1992,-266.6203 408,-276.5 447.5931,-320.9466 397.2383,-368.6699 444,-405.5 510.9505,-458.231 757.2043,-444.9524 890.2852,-433.3295"/>
<polygon fill="#191970" stroke="#191970" points="890.8,-436.7976 900.4507,-432.4257 890.18,-429.8251 890.8,-436.7976"/>
</g>
<!-- Node14 -->
<g id="node14" class="node">
<title>Node14</title>
<g id="a_node14"><a xlink:href="../../dd/d0b/classEicNamePatternHub.html#abe35bc0e1b9b51fa1f2c0c45bcf78dec" target="_top" xlink:title="EicNamePatternHub::\lAddPatternMatch">
<polygon fill="none" stroke="#000000" points="470,-363.5 470,-395.5 593,-395.5 593,-363.5 470,-363.5"/>
<text text-anchor="start" x="478" y="-382.5" font-family="FreeSans" font-size="10.00" fill="#000000">EicNamePatternHub::</text>
<text text-anchor="middle" x="531.5" y="-370.5" font-family="FreeSans" font-size="10.00" fill="#000000">AddPatternMatch</text>
</a>
</g>
</g>
<!-- Node8&#45;&gt;Node14 -->
<g id="edge14" class="edge">
<title>Node8&#45;&gt;Node14</title>
<path fill="none" stroke="#191970" d="M373.8862,-259.5019C384.5247,-262.3161 398.5694,-267.4835 408,-276.5 435.597,-302.8853 415.0039,-329.6604 444,-354.5 448.8818,-358.682 454.4221,-362.1662 460.2883,-365.0687"/>
<polygon fill="#191970" stroke="#191970" points="459.1604,-368.3947 469.727,-369.1678 461.9488,-361.974 459.1604,-368.3947"/>
</g>
<!-- Node15 -->
<g id="node15" class="node">
<title>Node15</title>
<g id="a_node15"><a xlink:href="../../df/de0/classEicGeoParData.html#a0a19d07a4f67c4a5cb0884a9992f44d7" target="_top" xlink:title="EicGeoParData::CreateNewMap">
<polygon fill="none" stroke="#000000" points="444,-324.5 444,-344.5 619,-344.5 619,-324.5 444,-324.5"/>
<text text-anchor="middle" x="531.5" y="-331.5" font-family="FreeSans" font-size="10.00" fill="#000000">EicGeoParData::CreateNewMap</text>
</a>
</g>
</g>
<!-- Node8&#45;&gt;Node15 -->
<g id="edge15" class="edge">
<title>Node8&#45;&gt;Node15</title>
<path fill="none" stroke="#191970" d="M373.5542,-260.5818C383.7667,-263.8742 397.4303,-269.1683 408,-276.5 427.3826,-289.9447 423.5243,-303.7872 444,-315.5 447.4682,-317.4839 451.122,-319.261 454.8893,-320.8528"/>
<polygon fill="#191970" stroke="#191970" points="453.8538,-324.2025 464.446,-324.44 456.3138,-317.6489 453.8538,-324.2025"/>
</g>
<!-- Node16 -->
<g id="node16" class="node">
<title>Node16</title>
<g id="a_node16"><a xlink:href="../../df/de8/cemc_8C.html#adf5c804dfce7a70e36dda02995fad481" target="_top" xlink:title="exit">
<polygon fill="none" stroke="#000000" points="514,-285.5 514,-305.5 549,-305.5 549,-285.5 514,-285.5"/>
<text text-anchor="middle" x="531.5" y="-292.5" font-family="FreeSans" font-size="10.00" fill="#000000">exit</text>
</a>
</g>
</g>
<!-- Node8&#45;&gt;Node16 -->
<g id="edge16" class="edge">
<title>Node8&#45;&gt;Node16</title>
<path fill="none" stroke="#191970" d="M373.7073,-259.8251C402.4795,-266.3301 466.6276,-280.8332 503.6644,-289.2067"/>
<polygon fill="#191970" stroke="#191970" points="503.2541,-292.7022 513.7798,-291.4937 504.7978,-285.8746 503.2541,-292.7022"/>
</g>
<!-- Node17 -->
<g id="node17" class="node">
<title>Node17</title>
<g id="a_node17"><a xlink:href="../../df/de0/classEicGeoParData.html#a5464c1947d87d36569891ada6aafb22c" target="_top" xlink:title="EicGeoParData::FinalizeOutput">
<polygon fill="none" stroke="#000000" points="446,-207.5 446,-227.5 617,-227.5 617,-207.5 446,-207.5"/>
<text text-anchor="middle" x="531.5" y="-214.5" font-family="FreeSans" font-size="10.00" fill="#000000">EicGeoParData::FinalizeOutput</text>
</a>
</g>
</g>
<!-- Node8&#45;&gt;Node17 -->
<g id="edge17" class="edge">
<title>Node8&#45;&gt;Node17</title>
<path fill="none" stroke="#191970" d="M373.7073,-253.1749C396.4217,-248.0395 441.1838,-237.9193 477.2486,-229.7655"/>
<polygon fill="#191970" stroke="#191970" points="478.1825,-233.1428 487.1645,-227.5237 476.6388,-226.3151 478.1825,-233.1428"/>
</g>
<!-- Node19 -->
<g id="node19" class="node">
<title>Node19</title>
<g id="a_node19"><a xlink:href="../../df/de0/classEicGeoParData.html#a98e43e3d66fdb531cabaccd39f09ebc3" target="_top" xlink:title="EicGeoParData::GetColorTable">
<polygon fill="none" stroke="#000000" points="662.5,-348.5 662.5,-368.5 831.5,-368.5 831.5,-348.5 662.5,-348.5"/>
<text text-anchor="middle" x="747" y="-355.5" font-family="FreeSans" font-size="10.00" fill="#000000">EicGeoParData::GetColorTable</text>
</a>
</g>
</g>
<!-- Node8&#45;&gt;Node19 -->
<g id="edge28" class="edge">
<title>Node8&#45;&gt;Node19</title>
<path fill="none" stroke="#191970" d="M373.6857,-253.2198C415.7596,-244.6807 538.8547,-225.7815 619,-276.5 646.2508,-293.7451 628.8974,-320.5618 655,-339.5 657.1369,-341.0504 659.3714,-342.4806 661.6826,-343.7998"/>
<polygon fill="#191970" stroke="#191970" points="660.4159,-347.0774 670.9333,-348.3561 663.5089,-340.7978 660.4159,-347.0774"/>
</g>
<!-- Node26 -->
<g id="node26" class="node">
<title>Node26</title>
<g id="a_node26"><a xlink:href="../../df/de0/classEicGeoParData.html#a75991633a97d0a9b3140ba103f225691" target="_top" xlink:title="EicGeoParData::GetTransparency\lTable">
<polygon fill="none" stroke="#000000" points="655,-156.5 655,-188.5 839,-188.5 839,-156.5 655,-156.5"/>
<text text-anchor="start" x="663" y="-175.5" font-family="FreeSans" font-size="10.00" fill="#000000">EicGeoParData::GetTransparency</text>
<text text-anchor="middle" x="747" y="-163.5" font-family="FreeSans" font-size="10.00" fill="#000000">Table</text>
</a>
</g>
</g>
<!-- Node8&#45;&gt;Node26 -->
<g id="edge33" class="edge">
<title>Node8&#45;&gt;Node26</title>
<path fill="none" stroke="#191970" d="M373.5604,-252.7594C383.7758,-249.6962 397.4404,-244.6877 408,-237.5 427.5003,-224.2266 422.8159,-208.8768 444,-198.5 505.9816,-168.1388 583.67,-162.0052 644.8627,-163.2728"/>
<polygon fill="#191970" stroke="#191970" points="644.8308,-166.7732 654.9236,-163.5504 645.024,-159.7758 644.8308,-166.7732"/>
</g>
<!-- Node28 -->
<g id="node28" class="node">
<title>Node28</title>
<g id="a_node28"><a xlink:href="../../df/de0/classEicGeoParData.html#af50661ee10308b08071f9feb1b57493b" target="_top" xlink:title="EicGeoParData::GetMedium">
<polygon fill="none" stroke="#000000" points="453.5,-129.5 453.5,-149.5 609.5,-149.5 609.5,-129.5 453.5,-129.5"/>
<text text-anchor="middle" x="531.5" y="-136.5" font-family="FreeSans" font-size="10.00" fill="#000000">EicGeoParData::GetMedium</text>
</a>
</g>
</g>
<!-- Node8&#45;&gt;Node28 -->
<g id="edge29" class="edge">
<title>Node8&#45;&gt;Node28</title>
<path fill="none" stroke="#191970" d="M373.8112,-253.7569C384.4124,-251.1374 398.4434,-246.2484 408,-237.5 434.6831,-213.0735 416.2265,-187.6791 444,-164.5 449.2157,-160.1471 455.148,-156.5511 461.4089,-153.5807"/>
<polygon fill="#191970" stroke="#191970" points="462.8992,-156.7511 470.7718,-149.6608 460.1959,-150.2942 462.8992,-156.7511"/>
</g>
<!-- Node31 -->
<g id="node31" class="node">
<title>Node31</title>
<g id="a_node31"><a xlink:href="../../df/de0/classEicGeoParData.html#a37c307a8b444e89fd125f6d273a1c894" target="_top" xlink:title="EicGeoParData::GetTopVolume">
<polygon fill="none" stroke="#000000" points="446,-90.5 446,-110.5 617,-110.5 617,-90.5 446,-90.5"/>
<text text-anchor="middle" x="531.5" y="-97.5" font-family="FreeSans" font-size="10.00" fill="#000000">EicGeoParData::GetTopVolume</text>
</a>
</g>
</g>
<!-- Node8&#45;&gt;Node31 -->
<g id="edge32" class="edge">
<title>Node8&#45;&gt;Node31</title>
<path fill="none" stroke="#191970" d="M373.7893,-254.2938C384.6623,-251.9259 399.0471,-247.1162 408,-237.5 445.073,-197.6805 404.1364,-157.5256 444,-120.5 445.8982,-118.737 447.9188,-117.1186 450.0381,-115.6335"/>
<polygon fill="#191970" stroke="#191970" points="451.8232,-118.6441 458.6502,-110.5421 448.2608,-112.6183 451.8232,-118.6441"/>
</g>
<!-- Node32 -->
<g id="node32" class="node">
<title>Node32</title>
<g id="a_node32"><a xlink:href="../../df/de0/classEicGeoParData.html#a304fa90a3bc1944d2c997257ed56b6a7" target="_top" xlink:title="EicGeoParData::SetFileName">
<polygon fill="none" stroke="#000000" points="451,-51.5 451,-71.5 612,-71.5 612,-51.5 451,-51.5"/>
<text text-anchor="middle" x="531.5" y="-58.5" font-family="FreeSans" font-size="10.00" fill="#000000">EicGeoParData::SetFileName</text>
</a>
</g>
</g>
<!-- Node8&#45;&gt;Node32 -->
<g id="edge34" class="edge">
<title>Node8&#45;&gt;Node32</title>
<path fill="none" stroke="#191970" d="M373.5389,-254.5711C384.573,-252.338 399.2851,-247.5749 408,-237.5 454.8345,-183.357 393.0869,-130.8269 444,-80.5 445.1055,-79.4072 446.2582,-78.3708 447.4527,-77.388"/>
<polygon fill="#191970" stroke="#191970" points="449.5859,-80.17 455.8855,-71.6514 445.6486,-74.3822 449.5859,-80.17"/>
</g>
<!-- Node33 -->
<g id="node33" class="node">
<title>Node33</title>
<g id="a_node33"><a xlink:href="../../df/de0/classEicGeoParData.html#a85796e06ee06c2b0973409350d2c054d" target="_top" xlink:title="EicGeoParData::SetMapping\lTableEntry">
<polygon fill="none" stroke="#000000" points="452.5,-486.5 452.5,-518.5 610.5,-518.5 610.5,-486.5 452.5,-486.5"/>
<text text-anchor="start" x="460.5" y="-505.5" font-family="FreeSans" font-size="10.00" fill="#000000">EicGeoParData::SetMapping</text>
<text text-anchor="middle" x="531.5" y="-493.5" font-family="FreeSans" font-size="10.00" fill="#000000">TableEntry</text>
</a>
</g>
</g>
<!-- Node8&#45;&gt;Node33 -->
<g id="edge35" class="edge">
<title>Node8&#45;&gt;Node33</title>
<path fill="none" stroke="#191970" d="M373.5738,-258.7261C384.6271,-261.1847 399.3479,-266.2481 408,-276.5 455.5699,-332.8658 403.6428,-376.7643 444,-438.5 455.4881,-456.0737 473.5792,-470.4843 490.3372,-481.1515"/>
<polygon fill="#191970" stroke="#191970" points="488.5751,-484.1763 498.937,-486.3855 492.2144,-478.1967 488.5751,-484.1763"/>
</g>
<!-- Node39 -->
<g id="node39" class="node">
<title>Node39</title>
<g id="a_node39"><a xlink:href="../../da/d86/classEicGeoMap.html#a77e724ceee76044c2346a4b35be1f90e" target="_top" xlink:title="EicGeoMap::SetSingleSensor\lContainerVolume">
<polygon fill="none" stroke="#000000" points="450,-.5 450,-32.5 613,-32.5 613,-.5 450,-.5"/>
<text text-anchor="start" x="458" y="-19.5" font-family="FreeSans" font-size="10.00" fill="#000000">EicGeoMap::SetSingleSensor</text>
<text text-anchor="middle" x="531.5" y="-7.5" font-family="FreeSans" font-size="10.00" fill="#000000">ContainerVolume</text>
</a>
</g>
</g>
<!-- Node8&#45;&gt;Node39 -->
<g id="edge47" class="edge">
<title>Node8&#45;&gt;Node39</title>
<path fill="none" stroke="#191970" d="M373.6622,-254.6754C384.7642,-252.4997 399.5075,-247.7631 408,-237.5 464.4637,-169.2637 384.4712,-107.0794 444,-41.5 444.7699,-40.6519 445.5663,-39.8318 446.3872,-39.0387"/>
<polygon fill="#191970" stroke="#191970" points="448.7817,-41.6043 454.378,-32.6081 444.393,-36.1509 448.7817,-41.6043"/>
</g>
<!-- Node10 -->
<g id="node10" class="node">
<title>Node10</title>
<g id="a_node10"><a xlink:href="../../da/d23/msg__buffer_8cc.html#a98631211a4a8aee62f572375d5b637be" target="_top" xlink:title="printf">
<polygon fill="none" stroke="#000000" points="1159.5,-537.5 1159.5,-557.5 1203.5,-557.5 1203.5,-537.5 1159.5,-537.5"/>
<text text-anchor="middle" x="1181.5" y="-544.5" font-family="FreeSans" font-size="10.00" fill="#000000">printf</text>
</a>
</g>
</g>
<!-- Node9&#45;&gt;Node10 -->
<g id="edge9" class="edge">
<title>Node9&#45;&gt;Node10</title>
<path fill="none" stroke="#191970" d="M831.0969,-676.8944C900.4691,-678.894 999.972,-674.0629 1079,-639.5 1116.5213,-623.09 1149.7145,-587.4604 1167.5773,-565.6719"/>
<polygon fill="#191970" stroke="#191970" points="1170.3538,-567.8038 1173.8546,-557.804 1164.882,-563.4381 1170.3538,-567.8038"/>
</g>
<!-- Node11&#45;&gt;Node10 -->
<g id="edge12" class="edge">
<title>Node11&#45;&gt;Node10</title>
<path fill="none" stroke="#191970" d="M1053.5629,-436.4643C1062.6946,-440.0104 1071.4423,-444.5899 1079,-450.5 1105.6288,-471.3236 1090.2836,-494.4388 1115,-517.5 1124.7671,-526.613 1137.7736,-533.3091 1149.6926,-538.033"/>
<polygon fill="#191970" stroke="#191970" points="1148.7597,-541.418 1159.3537,-541.547 1151.1524,-534.8396 1148.7597,-541.418"/>
</g>
<!-- Node12 -->
<g id="node12" class="node">
<title>Node12</title>
<g id="a_node12"><a xlink:href="../../dd/d20/classEicBitMask.html#a577897e58c312fcaa8722bea72257e26" target="_top" xlink:title="EicBitMask::GetBitNum">
<polygon fill="none" stroke="#000000" points="1115,-487.5 1115,-507.5 1248,-507.5 1248,-487.5 1115,-487.5"/>
<text text-anchor="middle" x="1181.5" y="-494.5" font-family="FreeSans" font-size="10.00" fill="#000000">EicBitMask::GetBitNum</text>
</a>
</g>
</g>
<!-- Node11&#45;&gt;Node12 -->
<g id="edge11" class="edge">
<title>Node11&#45;&gt;Node12</title>
<path fill="none" stroke="#191970" d="M1046.9109,-440.5344C1057.7519,-443.5326 1068.7482,-446.8763 1079,-450.5 1104.8133,-459.6241 1133.0131,-472.8059 1153.2884,-482.889"/>
<polygon fill="#191970" stroke="#191970" points="1151.7784,-486.0473 1162.2842,-487.4181 1154.9262,-479.795 1151.7784,-486.0473"/>
</g>
<!-- Node13 -->
<g id="node13" class="node">
<title>Node13</title>
<g id="a_node13"><a xlink:href="../../dd/d20/classEicBitMask.html#a23ae6782cbc30f5fe572692893d5e3bf" target="_top" xlink:title="EicBitMask::SetShift">
<polygon fill="none" stroke="#000000" points="1123,-426.5 1123,-446.5 1240,-446.5 1240,-426.5 1123,-426.5"/>
<text text-anchor="middle" x="1181.5" y="-433.5" font-family="FreeSans" font-size="10.00" fill="#000000">EicBitMask::SetShift</text>
</a>
</g>
</g>
<!-- Node11&#45;&gt;Node13 -->
<g id="edge13" class="edge">
<title>Node11&#45;&gt;Node13</title>
<path fill="none" stroke="#191970" d="M1053.7301,-429.0025C1073.1361,-430.1412 1093.8523,-431.3569 1112.8319,-432.4706"/>
<polygon fill="#191970" stroke="#191970" points="1112.6914,-435.9683 1122.8793,-433.0602 1113.1015,-428.9803 1112.6914,-435.9683"/>
</g>
<!-- Node18 -->
<g id="node18" class="node">
<title>Node18</title>
<g id="a_node18"><a xlink:href="../../dd/d0b/classEicNamePatternHub.html#a8baac9dd7e44ee789555cb040763f903" target="_top" xlink:title="EicNamePatternHub::\lAnyMatch">
<polygon fill="none" stroke="#000000" points="685.5,-297.5 685.5,-329.5 808.5,-329.5 808.5,-297.5 685.5,-297.5"/>
<text text-anchor="start" x="693.5" y="-316.5" font-family="FreeSans" font-size="10.00" fill="#000000">EicNamePatternHub::</text>
<text text-anchor="middle" x="747" y="-304.5" font-family="FreeSans" font-size="10.00" fill="#000000">AnyMatch</text>
</a>
</g>
</g>
<!-- Node17&#45;&gt;Node18 -->
<g id="edge18" class="edge">
<title>Node17&#45;&gt;Node18</title>
<path fill="none" stroke="#191970" d="M586.5877,-227.541C597.8991,-231.1276 609.3018,-235.971 619,-242.5 640.5355,-256.9981 633.3709,-274.1418 655,-288.5 661.257,-292.6537 668.1863,-296.1203 675.3529,-299.0129"/>
<polygon fill="#191970" stroke="#191970" points="674.6378,-302.4774 685.2318,-302.6123 677.0342,-295.9003 674.6378,-302.4774"/>
</g>
<!-- Node17&#45;&gt;Node19 -->
<g id="edge19" class="edge">
<title>Node17&#45;&gt;Node19</title>
<path fill="none" stroke="#191970" d="M594.1534,-227.5221C603.258,-231.1066 611.9279,-235.953 619,-242.5 652.7446,-273.7389 620.1133,-309.5419 655,-339.5 656.5312,-340.8149 658.1293,-342.047 659.7844,-343.2014"/>
<polygon fill="#191970" stroke="#191970" points="658.0979,-346.2702 668.4871,-348.3476 661.6609,-340.2449 658.0979,-346.2702"/>
</g>
<!-- Node20 -->
<g id="node20" class="node">
<title>Node20</title>
<g id="a_node20"><a xlink:href="../../df/de0/classEicGeoParData.html#a24162311dd8c038e330afbee7a132352" target="_top" xlink:title="EicGeoParData::GetGeometry\lFileName">
<polygon fill="none" stroke="#000000" points="664,-246.5 664,-278.5 830,-278.5 830,-246.5 664,-246.5"/>
<text text-anchor="start" x="672" y="-265.5" font-family="FreeSans" font-size="10.00" fill="#000000">EicGeoParData::GetGeometry</text>
<text text-anchor="middle" x="747" y="-253.5" font-family="FreeSans" font-size="10.00" fill="#000000">FileName</text>
</a>
</g>
</g>
<!-- Node17&#45;&gt;Node20 -->
<g id="edge20" class="edge">
<title>Node17&#45;&gt;Node20</title>
<path fill="none" stroke="#191970" d="M579.5942,-227.5429C603.3475,-232.503 632.7488,-238.6424 660.2512,-244.3854"/>
<polygon fill="#191970" stroke="#191970" points="659.7794,-247.8623 670.2837,-246.4804 661.2103,-241.0101 659.7794,-247.8623"/>
</g>
<!-- Node17&#45;&gt;Node26 -->
<g id="edge26" class="edge">
<title>Node17&#45;&gt;Node26</title>
<path fill="none" stroke="#191970" d="M579.5942,-207.4571C603.3475,-202.497 632.7488,-196.3576 660.2512,-190.6146"/>
<polygon fill="#191970" stroke="#191970" points="661.2103,-193.9899 670.2837,-188.5196 659.7794,-187.1377 661.2103,-193.9899"/>
</g>
<!-- Node27 -->
<g id="node27" class="node">
<title>Node27</title>
<g id="a_node27"><a xlink:href="../../d0/d2f/classEicDetName.html#aef29cb1ffe2ea071a03f4aa098408595" target="_top" xlink:title="EicDetName::Name">
<polygon fill="none" stroke="#000000" points="689.5,-207.5 689.5,-227.5 804.5,-227.5 804.5,-207.5 689.5,-207.5"/>
<text text-anchor="middle" x="747" y="-214.5" font-family="FreeSans" font-size="10.00" fill="#000000">EicDetName::Name</text>
</a>
</g>
</g>
<!-- Node17&#45;&gt;Node27 -->
<g id="edge27" class="edge">
<title>Node17&#45;&gt;Node27</title>
<path fill="none" stroke="#191970" d="M617.2905,-217.5C637.8807,-217.5 659.5881,-217.5 679.23,-217.5"/>
<polygon fill="#191970" stroke="#191970" points="679.2965,-221.0001 689.2964,-217.5 679.2964,-214.0001 679.2965,-221.0001"/>
</g>
<!-- Node21 -->
<g id="node21" class="node">
<title>Node21</title>
<g id="a_node21"><a xlink:href="../../df/de0/classEicGeoParData.html#a7f5db7c4ddc258264f0258a6d8d946b6" target="_top" xlink:title="EicGeoParData::GetGeometryType">
<polygon fill="none" stroke="#000000" points="882.5,-291.5 882.5,-311.5 1071.5,-311.5 1071.5,-291.5 882.5,-291.5"/>
<text text-anchor="middle" x="977" y="-298.5" font-family="FreeSans" font-size="10.00" fill="#000000">EicGeoParData::GetGeometryType</text>
</a>
</g>
</g>
<!-- Node20&#45;&gt;Node21 -->
<g id="edge21" class="edge">
<title>Node20&#45;&gt;Node21</title>
<path fill="none" stroke="#191970" d="M830.0353,-276.5799C855.594,-280.9138 883.441,-285.6356 907.9539,-289.7922"/>
<polygon fill="#191970" stroke="#191970" points="907.4369,-293.2544 917.8813,-291.4755 908.6072,-286.3529 907.4369,-293.2544"/>
</g>
<!-- Node22 -->
<g id="node22" class="node">
<title>Node22</title>
<g id="a_node22"><a xlink:href="../../df/de0/classEicGeoParData.html#ae6acf5e5d790c629031c2d7cf12718ef" target="_top" xlink:title="EicGeoParData::GetSubVersion">
<polygon fill="none" stroke="#000000" points="891,-252.5 891,-272.5 1063,-272.5 1063,-252.5 891,-252.5"/>
<text text-anchor="middle" x="977" y="-259.5" font-family="FreeSans" font-size="10.00" fill="#000000">EicGeoParData::GetSubVersion</text>
</a>
</g>
</g>
<!-- Node20&#45;&gt;Node22 -->
<g id="edge22" class="edge">
<title>Node20&#45;&gt;Node22</title>
<path fill="none" stroke="#191970" d="M830.0353,-262.5C846.4451,-262.5 863.7983,-262.5 880.6066,-262.5"/>
<polygon fill="#191970" stroke="#191970" points="880.9885,-266.0001 890.9885,-262.5 880.9885,-259.0001 880.9885,-266.0001"/>
</g>
<!-- Node23 -->
<g id="node23" class="node">
<title>Node23</title>
<g id="a_node23"><a xlink:href="../../df/de0/classEicGeoParData.html#a27907f2aba8817ceb2d97e1a29ecaf40" target="_top" xlink:title="EicGeoParData::GetVersion">
<polygon fill="none" stroke="#000000" points="900.5,-213.5 900.5,-233.5 1053.5,-233.5 1053.5,-213.5 900.5,-213.5"/>
<text text-anchor="middle" x="977" y="-220.5" font-family="FreeSans" font-size="10.00" fill="#000000">EicGeoParData::GetVersion</text>
</a>
</g>
</g>
<!-- Node20&#45;&gt;Node23 -->
<g id="edge23" class="edge">
<title>Node20&#45;&gt;Node23</title>
<path fill="none" stroke="#191970" d="M830.0353,-248.4201C855.594,-244.0862 883.441,-239.3644 907.9539,-235.2078"/>
<polygon fill="#191970" stroke="#191970" points="908.6072,-238.6471 917.8813,-233.5245 907.4369,-231.7456 908.6072,-238.6471"/>
</g>
<!-- Node24 -->
<g id="node24" class="node">
<title>Node24</title>
<g id="a_node24"><a xlink:href="../../df/de0/classEicGeoParData.html#a09fe5b3481f26b4a771cb7c476d64a1f" target="_top" xlink:title="EicGeoParData::IsTestGeometry">
<polygon fill="none" stroke="#000000" points="889,-174.5 889,-194.5 1065,-194.5 1065,-174.5 889,-174.5"/>
<text text-anchor="middle" x="977" y="-181.5" font-family="FreeSans" font-size="10.00" fill="#000000">EicGeoParData::IsTestGeometry</text>
</a>
</g>
</g>
<!-- Node20&#45;&gt;Node24 -->
<g id="edge24" class="edge">
<title>Node20&#45;&gt;Node24</title>
<path fill="none" stroke="#191970" d="M819.62,-246.3312C826.3446,-243.782 832.9116,-240.855 839,-237.5 858.01,-227.0248 855.6267,-214.287 875,-204.5 880.2108,-201.8676 885.7336,-199.5811 891.4063,-197.5951"/>
<polygon fill="#191970" stroke="#191970" points="892.5936,-200.8904 901.0658,-194.5287 890.4755,-194.2185 892.5936,-200.8904"/>
</g>
<!-- Node25 -->
<g id="node25" class="node">
<title>Node25</title>
<g id="a_node25"><a xlink:href="../../d0/d2f/classEicDetName.html#afac87377442f69796e0e335e81b96067" target="_top" xlink:title="EicDetName::name">
<polygon fill="none" stroke="#000000" points="920,-330.5 920,-350.5 1034,-350.5 1034,-330.5 920,-330.5"/>
<text text-anchor="middle" x="977" y="-337.5" font-family="FreeSans" font-size="10.00" fill="#000000">EicDetName::name</text>
</a>
</g>
</g>
<!-- Node20&#45;&gt;Node25 -->
<g id="edge25" class="edge">
<title>Node20&#45;&gt;Node25</title>
<path fill="none" stroke="#191970" d="M817.2121,-278.5957C824.7742,-281.4201 832.1868,-284.7007 839,-288.5 857.9569,-299.071 855.5806,-311.8047 875,-321.5 885.765,-326.8745 897.8566,-330.7379 909.8497,-333.5129"/>
<polygon fill="#191970" stroke="#191970" points="909.3662,-336.9871 919.8694,-335.5971 910.7918,-330.1338 909.3662,-336.9871"/>
</g>
<!-- Node29 -->
<g id="node29" class="node">
<title>Node29</title>
<g id="a_node29"><a xlink:href="../../de/d6a/classFairGeoBuilder.html#a852b0d5861a7a6c1033aab59417d1c79" target="_top" xlink:title="FairGeoBuilder::createMedium">
<polygon fill="none" stroke="#000000" points="662.5,-78.5 662.5,-98.5 831.5,-98.5 831.5,-78.5 662.5,-78.5"/>
<text text-anchor="middle" x="747" y="-85.5" font-family="FreeSans" font-size="10.00" fill="#000000">FairGeoBuilder::createMedium</text>
</a>
</g>
</g>
<!-- Node28&#45;&gt;Node29 -->
<g id="edge30" class="edge">
<title>Node28&#45;&gt;Node29</title>
<path fill="none" stroke="#191970" d="M582.1607,-129.4715C594.2909,-126.8027 607.1572,-123.7494 619,-120.5 635.2644,-116.0374 638.7362,-112.9645 655,-108.5 665.0336,-105.7457 675.7658,-103.1246 686.2287,-100.7407"/>
<polygon fill="#191970" stroke="#191970" points="687.1465,-104.1221 696.1461,-98.5311 685.6242,-97.2896 687.1465,-104.1221"/>
</g>
<!-- Node30 -->
<g id="node30" class="node">
<title>Node30</title>
<g id="a_node30"><a xlink:href="../../d9/d1e/classFairGeoMedia.html#a0dc27e89d61b8ff40498a48e39b2a2c0" target="_top" xlink:title="FairGeoMedia::getMedium">
<polygon fill="none" stroke="#000000" points="672.5,-117.5 672.5,-137.5 821.5,-137.5 821.5,-117.5 672.5,-117.5"/>
<text text-anchor="middle" x="747" y="-124.5" font-family="FreeSans" font-size="10.00" fill="#000000">FairGeoMedia::getMedium</text>
</a>
</g>
</g>
<!-- Node28&#45;&gt;Node30 -->
<g id="edge31" class="edge">
<title>Node28&#45;&gt;Node30</title>
<path fill="none" stroke="#191970" d="M609.6051,-135.1508C626.7228,-134.1976 644.9228,-133.1841 662.2856,-132.2173"/>
<polygon fill="#191970" stroke="#191970" points="662.6075,-135.7049 672.3974,-131.6542 662.2182,-128.7157 662.6075,-135.7049"/>
</g>
<!-- Node33&#45;&gt;Node10 -->
<g id="edge38" class="edge">
<title>Node33&#45;&gt;Node10</title>
<path fill="none" stroke="#191970" d="M608.7206,-518.5759C612.3001,-520.3481 615.7499,-522.3157 619,-524.5 641.4287,-539.574 631.8638,-559.5361 655,-573.5 735.9122,-622.3347 987.6971,-630.9006 1079,-606.5 1109.7914,-598.271 1140.9275,-578.3292 1160.6693,-563.9042"/>
<polygon fill="#191970" stroke="#191970" points="1163.0012,-566.5302 1168.896,-557.7267 1158.7978,-560.9327 1163.0012,-566.5302"/>
</g>
<!-- Node34 -->
<g id="node34" class="node">
<title>Node34</title>
<g id="a_node34"><a xlink:href="../../dd/d20/classEicBitMask.html#aba6083955032532d7dfc95069338dd27" target="_top" xlink:title="EicBitMask::GetBitMask">
<polygon fill="none" stroke="#000000" points="679.5,-453.5 679.5,-473.5 814.5,-473.5 814.5,-453.5 679.5,-453.5"/>
<text text-anchor="middle" x="747" y="-460.5" font-family="FreeSans" font-size="10.00" fill="#000000">EicBitMask::GetBitMask</text>
</a>
</g>
</g>
<!-- Node33&#45;&gt;Node34 -->
<g id="edge36" class="edge">
<title>Node33&#45;&gt;Node34</title>
<path fill="none" stroke="#191970" d="M610.5206,-488.1993C633.8547,-483.9764 659.128,-479.4026 681.5104,-475.3519"/>
<polygon fill="#191970" stroke="#191970" points="682.3566,-478.7558 691.5734,-473.5308 681.1099,-471.8676 682.3566,-478.7558"/>
</g>
<!-- Node35 -->
<g id="node35" class="node">
<title>Node35</title>
<g id="a_node35"><a xlink:href="../../dd/d20/classEicBitMask.html#a862ce5875cf47f78ff18aaed935966d9" target="_top" xlink:title="EicBitMask::GetShift">
<polygon fill="none" stroke="#000000" points="917.5,-459.5 917.5,-479.5 1036.5,-479.5 1036.5,-459.5 917.5,-459.5"/>
<text text-anchor="middle" x="977" y="-466.5" font-family="FreeSans" font-size="10.00" fill="#000000">EicBitMask::GetShift</text>
</a>
</g>
</g>
<!-- Node33&#45;&gt;Node35 -->
<g id="edge37" class="edge">
<title>Node33&#45;&gt;Node35</title>
<path fill="none" stroke="#191970" d="M610.5608,-498.4733C672.7061,-495.1008 761.4338,-489.8284 839,-483.5 861.1705,-481.6912 885.3085,-479.365 907.1077,-477.1302"/>
<polygon fill="#191970" stroke="#191970" points="907.6854,-480.5892 917.2717,-476.0778 906.9643,-473.6265 907.6854,-480.5892"/>
</g>
<!-- Node36 -->
<g id="node36" class="node">
<title>Node36</title>
<g id="a_node36"><a xlink:href="../../da/d86/classEicGeoMap.html#a9c17af03744fe42ae8daf66f9bda7f06" target="_top" xlink:title="EicGeoMap::SetMappingTable\lEntry">
<polygon fill="none" stroke="#000000" points="664,-531.5 664,-563.5 830,-563.5 830,-531.5 664,-531.5"/>
<text text-anchor="start" x="672" y="-550.5" font-family="FreeSans" font-size="10.00" fill="#000000">EicGeoMap::SetMappingTable</text>
<text text-anchor="middle" x="747" y="-538.5" font-family="FreeSans" font-size="10.00" fill="#000000">Entry</text>
</a>
</g>
</g>
<!-- Node33&#45;&gt;Node36 -->
<g id="edge39" class="edge">
<title>Node33&#45;&gt;Node36</title>
<path fill="none" stroke="#191970" d="M608.3878,-518.5555C625.1612,-522.058 643.0244,-525.7881 660.1544,-529.3652"/>
<polygon fill="#191970" stroke="#191970" points="659.6376,-532.8327 670.1419,-531.4507 661.0685,-525.9805 659.6376,-532.8327"/>
</g>
<!-- Node36&#45;&gt;Node10 -->
<g id="edge46" class="edge">
<title>Node36&#45;&gt;Node10</title>
<path fill="none" stroke="#191970" d="M830.0052,-547.5C926.8371,-547.5 1082.1872,-547.5 1149.11,-547.5"/>
<polygon fill="#191970" stroke="#191970" points="1149.4393,-551.0001 1159.4393,-547.5 1149.4393,-544.0001 1149.4393,-551.0001"/>
</g>
<!-- Node36&#45;&gt;Node35 -->
<g id="edge44" class="edge">
<title>Node36&#45;&gt;Node35</title>
<path fill="none" stroke="#191970" d="M804.1306,-531.4057C815.951,-527.21 828.1108,-522.228 839,-516.5 856.7004,-507.189 856.7265,-497.6289 875,-489.5 885.2018,-484.9617 896.4307,-481.4489 907.5944,-478.7309"/>
<polygon fill="#191970" stroke="#191970" points="908.3685,-482.1443 917.3605,-476.5412 906.837,-475.3139 908.3685,-482.1443"/>
</g>
<!-- Node37 -->
<g id="node37" class="node">
<title>Node37</title>
<g id="a_node37"><a xlink:href="../../da/d86/classEicGeoMap.html#ad01497111125dccc306dac986d6d10e1" target="_top" xlink:title="EicGeoMap::CalculateBitPattern">
<polygon fill="none" stroke="#000000" points="889,-498.5 889,-518.5 1065,-518.5 1065,-498.5 889,-498.5"/>
<text text-anchor="middle" x="977" y="-505.5" font-family="FreeSans" font-size="10.00" fill="#000000">EicGeoMap::CalculateBitPattern</text>
</a>
</g>
</g>
<!-- Node36&#45;&gt;Node37 -->
<g id="edge40" class="edge">
<title>Node36&#45;&gt;Node37</title>
<path fill="none" stroke="#191970" d="M830.0353,-533.4201C855.594,-529.0862 883.441,-524.3644 907.9539,-520.2078"/>
<polygon fill="#191970" stroke="#191970" points="908.6072,-523.6471 917.8813,-518.5245 907.4369,-516.7456 908.6072,-523.6471"/>
</g>
<!-- Node38 -->
<g id="node38" class="node">
<title>Node38</title>
<g id="a_node38"><a xlink:href="../../d1/d24/classGeantVolumeLevel.html#a4aba5288354c7287b6fc03cd9d30b2a2" target="_top" xlink:title="GeantVolumeLevel::GetVolumeName">
<polygon fill="none" stroke="#000000" points="875,-576.5 875,-596.5 1079,-596.5 1079,-576.5 875,-576.5"/>
<text text-anchor="middle" x="977" y="-583.5" font-family="FreeSans" font-size="10.00" fill="#000000">GeantVolumeLevel::GetVolumeName</text>
</a>
</g>
</g>
<!-- Node36&#45;&gt;Node38 -->
<g id="edge45" class="edge">
<title>Node36&#45;&gt;Node38</title>
<path fill="none" stroke="#191970" d="M830.0353,-561.5799C855.594,-565.9138 883.441,-570.6356 907.9539,-574.7922"/>
<polygon fill="#191970" stroke="#191970" points="907.4369,-578.2544 917.8813,-576.4755 908.6072,-571.3529 907.4369,-578.2544"/>
</g>
<!-- Node37&#45;&gt;Node10 -->
<g id="edge42" class="edge">
<title>Node37&#45;&gt;Node10</title>
<path fill="none" stroke="#191970" d="M1029.6638,-518.5435C1067.409,-525.7418 1117.0489,-535.2086 1149.1169,-541.3243"/>
<polygon fill="#191970" stroke="#191970" points="1148.7973,-544.8263 1159.276,-543.2617 1150.1087,-537.9502 1148.7973,-544.8263"/>
</g>
<!-- Node37&#45;&gt;Node12 -->
<g id="edge41" class="edge">
<title>Node37&#45;&gt;Node12</title>
<path fill="none" stroke="#191970" d="M1065.2102,-503.7552C1078.3462,-503.0486 1091.7973,-502.3251 1104.674,-501.6325"/>
<polygon fill="#191970" stroke="#191970" points="1105.0631,-505.1167 1114.8607,-501.0845 1104.6871,-498.1268 1105.0631,-505.1167"/>
</g>
<!-- Node37&#45;&gt;Node13 -->
<g id="edge43" class="edge">
<title>Node37&#45;&gt;Node13</title>
<path fill="none" stroke="#191970" d="M1046.0237,-498.4917C1057.1921,-496.0622 1068.5223,-493.0969 1079,-489.5 1106.9333,-479.9107 1136.6862,-463.7897 1156.8997,-451.8398"/>
<polygon fill="#191970" stroke="#191970" points="1158.71,-454.8353 1165.4749,-446.6813 1155.1016,-448.837 1158.71,-454.8353"/>
</g>
</g>
</svg>
