<?xml version="1.0" encoding="UTF-8" standalone="no"?>
<!DOCTYPE svg PUBLIC "-//W3C//DTD SVG 1.1//EN"
 "http://www.w3.org/Graphics/SVG/1.1/DTD/svg11.dtd">
<!-- Generated by graphviz version 2.40.1 (20161225.0304)
 -->
<!-- Title: oBuffer::writeout Pages: 1 -->
<svg width="1084pt" height="695pt"
 viewBox="0.00 0.00 1084.00 695.00" xmlns="http://www.w3.org/2000/svg" xmlns:xlink="http://www.w3.org/1999/xlink">
<g id="graph0" class="graph" transform="scale(1 1) rotate(0) translate(4 691)">
<title>oBuffer::writeout</title>
<!-- Node1 -->
<g id="node1" class="node">
<title>Node1</title>
<polygon fill="#bfbfbf" stroke="#000000" points="0,-246.5 0,-266.5 102,-266.5 102,-246.5 0,-246.5"/>
<text text-anchor="middle" x="51" y="-253.5" font-family="FreeSans" font-size="10.00" fill="#000000">oBuffer::writeout</text>
</g>
<!-- Node2 -->
<g id="node2" class="node">
<title>Node2</title>
<g id="a_node2"><a xlink:href="../../de/dc8/classoBuffer.html#a0c22585dd84cfc620cb6e8071f2143a4" target="_top" xlink:title="oBuffer::addEoB">
<polygon fill="none" stroke="#000000" points="138,-285.5 138,-305.5 236,-305.5 236,-285.5 138,-285.5"/>
<text text-anchor="middle" x="187" y="-292.5" font-family="FreeSans" font-size="10.00" fill="#000000">oBuffer::addEoB</text>
</a>
</g>
</g>
<!-- Node1&#45;&gt;Node2 -->
<g id="edge1" class="edge">
<title>Node1&#45;&gt;Node2</title>
<path fill="none" stroke="#191970" d="M86.0234,-266.5435C103.156,-271.4565 123.9736,-277.4263 142.2456,-282.666"/>
<polygon fill="#191970" stroke="#191970" points="141.5179,-286.0983 152.0953,-285.4906 143.4476,-279.3695 141.5179,-286.0983"/>
</g>
<!-- Node3 -->
<g id="node3" class="node">
<title>Node3</title>
<g id="a_node3"><a xlink:href="../../d0/d95/ip_8C.html#a292ff32a75b66b513d1f0ce00f9a4dc4" target="_top" xlink:title="ip">
<polygon fill="none" stroke="#000000" points="172.5,-246.5 172.5,-266.5 201.5,-266.5 201.5,-246.5 172.5,-246.5"/>
<text text-anchor="middle" x="187" y="-253.5" font-family="FreeSans" font-size="10.00" fill="#000000">ip</text>
</a>
</g>
</g>
<!-- Node1&#45;&gt;Node3 -->
<g id="edge2" class="edge">
<title>Node1&#45;&gt;Node3</title>
<path fill="none" stroke="#191970" d="M102.0283,-256.5C122.6791,-256.5 145.5608,-256.5 162.3722,-256.5"/>
<polygon fill="#191970" stroke="#191970" points="162.4588,-260.0001 172.4587,-256.5 162.4587,-253.0001 162.4588,-260.0001"/>
</g>
<!-- Node35 -->
<g id="node35" class="node">
<title>Node35</title>
<g id="a_node35"><a xlink:href="../../d3/df0/namespacetree.html#aaf4844be1074debf13e3c5d15c4dd43b" target="_top" xlink:title="tree.write">
<polygon fill="none" stroke="#000000" points="155,-207.5 155,-227.5 219,-227.5 219,-207.5 155,-207.5"/>
<text text-anchor="middle" x="187" y="-214.5" font-family="FreeSans" font-size="10.00" fill="#000000">tree.write</text>
</a>
</g>
</g>
<!-- Node1&#45;&gt;Node35 -->
<g id="edge43" class="edge">
<title>Node1&#45;&gt;Node35</title>
<path fill="none" stroke="#191970" d="M86.0234,-246.4565C104.0359,-241.2912 126.1216,-234.9578 145.0398,-229.5327"/>
<polygon fill="#191970" stroke="#191970" points="146.2433,-232.8287 154.891,-226.7077 144.3136,-226.0999 146.2433,-232.8287"/>
</g>
<!-- Node4 -->
<g id="node4" class="node">
<title>Node4</title>
<g id="a_node4"><a xlink:href="../../da/d86/classEicGeoMap.html#a4138a501100028aef473a4b9508d36d3" target="_top" xlink:title="EicGeoMap::AddGeantVolume\lLevel">
<polygon fill="none" stroke="#000000" points="491,-654.5 491,-686.5 659,-686.5 659,-654.5 491,-654.5"/>
<text text-anchor="start" x="499" y="-673.5" font-family="FreeSans" font-size="10.00" fill="#000000">EicGeoMap::AddGeantVolume</text>
<text text-anchor="middle" x="575" y="-661.5" font-family="FreeSans" font-size="10.00" fill="#000000">Level</text>
</a>
</g>
</g>
<!-- Node3&#45;&gt;Node4 -->
<g id="edge3" class="edge">
<title>Node3&#45;&gt;Node4</title>
<path fill="none" stroke="#191970" d="M201.7952,-258.5463C212.9707,-260.9058 227.7477,-265.9236 236,-276.5 305.597,-365.6978 206.798,-436.0408 272,-528.5 320.5046,-597.2817 411.1497,-633.6912 480.7049,-652.3402"/>
<polygon fill="#191970" stroke="#191970" points="480.2478,-655.8376 490.8066,-654.9646 482.008,-649.0625 480.2478,-655.8376"/>
</g>
<!-- Node6 -->
<g id="node6" class="node">
<title>Node6</title>
<g id="a_node6"><a xlink:href="../../df/de0/classEicGeoParData.html#a131e36442e699277af7e0e05dd70d7c7" target="_top" xlink:title="EicGeoParData::AddLogical\lVolumeGroup">
<polygon fill="none" stroke="#000000" points="728.5,-408.5 728.5,-440.5 881.5,-440.5 881.5,-408.5 728.5,-408.5"/>
<text text-anchor="start" x="736.5" y="-427.5" font-family="FreeSans" font-size="10.00" fill="#000000">EicGeoParData::AddLogical</text>
<text text-anchor="middle" x="805" y="-415.5" font-family="FreeSans" font-size="10.00" fill="#000000">VolumeGroup</text>
</a>
</g>
</g>
<!-- Node3&#45;&gt;Node6 -->
<g id="edge5" class="edge">
<title>Node3&#45;&gt;Node6</title>
<path fill="none" stroke="#191970" d="M201.8766,-258.9617C212.7954,-261.5272 227.1992,-266.6203 236,-276.5 275.5931,-320.9466 225.2383,-368.6699 272,-405.5 338.9505,-458.231 585.2043,-444.9524 718.2852,-433.3295"/>
<polygon fill="#191970" stroke="#191970" points="718.8,-436.7976 728.4507,-432.4257 718.18,-429.8251 718.8,-436.7976"/>
</g>
<!-- Node9 -->
<g id="node9" class="node">
<title>Node9</title>
<g id="a_node9"><a xlink:href="../../dd/d0b/classEicNamePatternHub.html#abe35bc0e1b9b51fa1f2c0c45bcf78dec" target="_top" xlink:title="EicNamePatternHub::\lAddPatternMatch">
<polygon fill="none" stroke="#000000" points="298,-363.5 298,-395.5 421,-395.5 421,-363.5 298,-363.5"/>
<text text-anchor="start" x="306" y="-382.5" font-family="FreeSans" font-size="10.00" fill="#000000">EicNamePatternHub::</text>
<text text-anchor="middle" x="359.5" y="-370.5" font-family="FreeSans" font-size="10.00" fill="#000000">AddPatternMatch</text>
</a>
</g>
</g>
<!-- Node3&#45;&gt;Node9 -->
<g id="edge9" class="edge">
<title>Node3&#45;&gt;Node9</title>
<path fill="none" stroke="#191970" d="M201.8862,-259.5019C212.5247,-262.3161 226.5694,-267.4835 236,-276.5 263.597,-302.8853 243.0039,-329.6604 272,-354.5 276.8818,-358.682 282.4221,-362.1662 288.2883,-365.0687"/>
<polygon fill="#191970" stroke="#191970" points="287.1604,-368.3947 297.727,-369.1678 289.9488,-361.974 287.1604,-368.3947"/>
</g>
<!-- Node10 -->
<g id="node10" class="node">
<title>Node10</title>
<g id="a_node10"><a xlink:href="../../df/de0/classEicGeoParData.html#a0a19d07a4f67c4a5cb0884a9992f44d7" target="_top" xlink:title="EicGeoParData::CreateNewMap">
<polygon fill="none" stroke="#000000" points="272,-324.5 272,-344.5 447,-344.5 447,-324.5 272,-324.5"/>
<text text-anchor="middle" x="359.5" y="-331.5" font-family="FreeSans" font-size="10.00" fill="#000000">EicGeoParData::CreateNewMap</text>
</a>
</g>
</g>
<!-- Node3&#45;&gt;Node10 -->
<g id="edge10" class="edge">
<title>Node3&#45;&gt;Node10</title>
<path fill="none" stroke="#191970" d="M201.5542,-260.5818C211.7667,-263.8742 225.4303,-269.1683 236,-276.5 255.3826,-289.9447 251.5243,-303.7872 272,-315.5 275.4682,-317.4839 279.122,-319.261 282.8893,-320.8528"/>
<polygon fill="#191970" stroke="#191970" points="281.8538,-324.2025 292.446,-324.44 284.3138,-317.6489 281.8538,-324.2025"/>
</g>
<!-- Node11 -->
<g id="node11" class="node">
<title>Node11</title>
<g id="a_node11"><a xlink:href="../../df/de8/cemc_8C.html#adf5c804dfce7a70e36dda02995fad481" target="_top" xlink:title="exit">
<polygon fill="none" stroke="#000000" points="342,-285.5 342,-305.5 377,-305.5 377,-285.5 342,-285.5"/>
<text text-anchor="middle" x="359.5" y="-292.5" font-family="FreeSans" font-size="10.00" fill="#000000">exit</text>
</a>
</g>
</g>
<!-- Node3&#45;&gt;Node11 -->
<g id="edge11" class="edge">
<title>Node3&#45;&gt;Node11</title>
<path fill="none" stroke="#191970" d="M201.7073,-259.8251C230.4795,-266.3301 294.6276,-280.8332 331.6644,-289.2067"/>
<polygon fill="#191970" stroke="#191970" points="331.2541,-292.7022 341.7798,-291.4937 332.7978,-285.8746 331.2541,-292.7022"/>
</g>
<!-- Node12 -->
<g id="node12" class="node">
<title>Node12</title>
<g id="a_node12"><a xlink:href="../../df/de0/classEicGeoParData.html#a5464c1947d87d36569891ada6aafb22c" target="_top" xlink:title="EicGeoParData::FinalizeOutput">
<polygon fill="none" stroke="#000000" points="274,-207.5 274,-227.5 445,-227.5 445,-207.5 274,-207.5"/>
<text text-anchor="middle" x="359.5" y="-214.5" font-family="FreeSans" font-size="10.00" fill="#000000">EicGeoParData::FinalizeOutput</text>
</a>
</g>
</g>
<!-- Node3&#45;&gt;Node12 -->
<g id="edge12" class="edge">
<title>Node3&#45;&gt;Node12</title>
<path fill="none" stroke="#191970" d="M201.7073,-253.1749C224.4217,-248.0395 269.1838,-237.9193 305.2486,-229.7655"/>
<polygon fill="#191970" stroke="#191970" points="306.1825,-233.1428 315.1645,-227.5237 304.6388,-226.3151 306.1825,-233.1428"/>
</g>
<!-- Node14 -->
<g id="node14" class="node">
<title>Node14</title>
<g id="a_node14"><a xlink:href="../../df/de0/classEicGeoParData.html#a98e43e3d66fdb531cabaccd39f09ebc3" target="_top" xlink:title="EicGeoParData::GetColorTable">
<polygon fill="none" stroke="#000000" points="490.5,-348.5 490.5,-368.5 659.5,-368.5 659.5,-348.5 490.5,-348.5"/>
<text text-anchor="middle" x="575" y="-355.5" font-family="FreeSans" font-size="10.00" fill="#000000">EicGeoParData::GetColorTable</text>
</a>
</g>
</g>
<!-- Node3&#45;&gt;Node14 -->
<g id="edge23" class="edge">
<title>Node3&#45;&gt;Node14</title>
<path fill="none" stroke="#191970" d="M201.6857,-253.2198C243.7596,-244.6807 366.8547,-225.7815 447,-276.5 474.2508,-293.7451 456.8974,-320.5618 483,-339.5 485.1369,-341.0504 487.3714,-342.4806 489.6826,-343.7998"/>
<polygon fill="#191970" stroke="#191970" points="488.4159,-347.0774 498.9333,-348.3561 491.5089,-340.7978 488.4159,-347.0774"/>
</g>
<!-- Node21 -->
<g id="node21" class="node">
<title>Node21</title>
<g id="a_node21"><a xlink:href="../../df/de0/classEicGeoParData.html#a75991633a97d0a9b3140ba103f225691" target="_top" xlink:title="EicGeoParData::GetTransparency\lTable">
<polygon fill="none" stroke="#000000" points="483,-156.5 483,-188.5 667,-188.5 667,-156.5 483,-156.5"/>
<text text-anchor="start" x="491" y="-175.5" font-family="FreeSans" font-size="10.00" fill="#000000">EicGeoParData::GetTransparency</text>
<text text-anchor="middle" x="575" y="-163.5" font-family="FreeSans" font-size="10.00" fill="#000000">Table</text>
</a>
</g>
</g>
<!-- Node3&#45;&gt;Node21 -->
<g id="edge28" class="edge">
<title>Node3&#45;&gt;Node21</title>
<path fill="none" stroke="#191970" d="M201.5604,-252.7594C211.7758,-249.6962 225.4404,-244.6877 236,-237.5 255.5003,-224.2266 250.8159,-208.8768 272,-198.5 333.9816,-168.1388 411.67,-162.0052 472.8627,-163.2728"/>
<polygon fill="#191970" stroke="#191970" points="472.8308,-166.7732 482.9236,-163.5504 473.024,-159.7758 472.8308,-166.7732"/>
</g>
<!-- Node23 -->
<g id="node23" class="node">
<title>Node23</title>
<g id="a_node23"><a xlink:href="../../df/de0/classEicGeoParData.html#af50661ee10308b08071f9feb1b57493b" target="_top" xlink:title="EicGeoParData::GetMedium">
<polygon fill="none" stroke="#000000" points="281.5,-129.5 281.5,-149.5 437.5,-149.5 437.5,-129.5 281.5,-129.5"/>
<text text-anchor="middle" x="359.5" y="-136.5" font-family="FreeSans" font-size="10.00" fill="#000000">EicGeoParData::GetMedium</text>
</a>
</g>
</g>
<!-- Node3&#45;&gt;Node23 -->
<g id="edge24" class="edge">
<title>Node3&#45;&gt;Node23</title>
<path fill="none" stroke="#191970" d="M201.8112,-253.7569C212.4124,-251.1374 226.4434,-246.2484 236,-237.5 262.6831,-213.0735 244.2265,-187.6791 272,-164.5 277.2157,-160.1471 283.148,-156.5511 289.4089,-153.5807"/>
<polygon fill="#191970" stroke="#191970" points="290.8992,-156.7511 298.7718,-149.6608 288.1959,-150.2942 290.8992,-156.7511"/>
</g>
<!-- Node26 -->
<g id="node26" class="node">
<title>Node26</title>
<g id="a_node26"><a xlink:href="../../df/de0/classEicGeoParData.html#a37c307a8b444e89fd125f6d273a1c894" target="_top" xlink:title="EicGeoParData::GetTopVolume">
<polygon fill="none" stroke="#000000" points="274,-90.5 274,-110.5 445,-110.5 445,-90.5 274,-90.5"/>
<text text-anchor="middle" x="359.5" y="-97.5" font-family="FreeSans" font-size="10.00" fill="#000000">EicGeoParData::GetTopVolume</text>
</a>
</g>
</g>
<!-- Node3&#45;&gt;Node26 -->
<g id="edge27" class="edge">
<title>Node3&#45;&gt;Node26</title>
<path fill="none" stroke="#191970" d="M201.7893,-254.2938C212.6623,-251.9259 227.0471,-247.1162 236,-237.5 273.073,-197.6805 232.1364,-157.5256 272,-120.5 273.8982,-118.737 275.9188,-117.1186 278.0381,-115.6335"/>
<polygon fill="#191970" stroke="#191970" points="279.8232,-118.6441 286.6502,-110.5421 276.2608,-112.6183 279.8232,-118.6441"/>
</g>
<!-- Node27 -->
<g id="node27" class="node">
<title>Node27</title>
<g id="a_node27"><a xlink:href="../../df/de0/classEicGeoParData.html#a304fa90a3bc1944d2c997257ed56b6a7" target="_top" xlink:title="EicGeoParData::SetFileName">
<polygon fill="none" stroke="#000000" points="279,-51.5 279,-71.5 440,-71.5 440,-51.5 279,-51.5"/>
<text text-anchor="middle" x="359.5" y="-58.5" font-family="FreeSans" font-size="10.00" fill="#000000">EicGeoParData::SetFileName</text>
</a>
</g>
</g>
<!-- Node3&#45;&gt;Node27 -->
<g id="edge29" class="edge">
<title>Node3&#45;&gt;Node27</title>
<path fill="none" stroke="#191970" d="M201.5389,-254.5711C212.573,-252.338 227.2851,-247.5749 236,-237.5 282.8345,-183.357 221.0869,-130.8269 272,-80.5 273.1055,-79.4072 274.2582,-78.3708 275.4527,-77.388"/>
<polygon fill="#191970" stroke="#191970" points="277.5859,-80.17 283.8855,-71.6514 273.6486,-74.3822 277.5859,-80.17"/>
</g>
<!-- Node28 -->
<g id="node28" class="node">
<title>Node28</title>
<g id="a_node28"><a xlink:href="../../df/de0/classEicGeoParData.html#a85796e06ee06c2b0973409350d2c054d" target="_top" xlink:title="EicGeoParData::SetMapping\lTableEntry">
<polygon fill="none" stroke="#000000" points="280.5,-486.5 280.5,-518.5 438.5,-518.5 438.5,-486.5 280.5,-486.5"/>
<text text-anchor="start" x="288.5" y="-505.5" font-family="FreeSans" font-size="10.00" fill="#000000">EicGeoParData::SetMapping</text>
<text text-anchor="middle" x="359.5" y="-493.5" font-family="FreeSans" font-size="10.00" fill="#000000">TableEntry</text>
</a>
</g>
</g>
<!-- Node3&#45;&gt;Node28 -->
<g id="edge30" class="edge">
<title>Node3&#45;&gt;Node28</title>
<path fill="none" stroke="#191970" d="M201.5738,-258.7261C212.6271,-261.1847 227.3479,-266.2481 236,-276.5 283.5699,-332.8658 231.6428,-376.7643 272,-438.5 283.4881,-456.0737 301.5792,-470.4843 318.3372,-481.1515"/>
<polygon fill="#191970" stroke="#191970" points="316.5751,-484.1763 326.937,-486.3855 320.2144,-478.1967 316.5751,-484.1763"/>
</g>
<!-- Node34 -->
<g id="node34" class="node">
<title>Node34</title>
<g id="a_node34"><a xlink:href="../../da/d86/classEicGeoMap.html#a77e724ceee76044c2346a4b35be1f90e" target="_top" xlink:title="EicGeoMap::SetSingleSensor\lContainerVolume">
<polygon fill="none" stroke="#000000" points="278,-.5 278,-32.5 441,-32.5 441,-.5 278,-.5"/>
<text text-anchor="start" x="286" y="-19.5" font-family="FreeSans" font-size="10.00" fill="#000000">EicGeoMap::SetSingleSensor</text>
<text text-anchor="middle" x="359.5" y="-7.5" font-family="FreeSans" font-size="10.00" fill="#000000">ContainerVolume</text>
</a>
</g>
</g>
<!-- Node3&#45;&gt;Node34 -->
<g id="edge42" class="edge">
<title>Node3&#45;&gt;Node34</title>
<path fill="none" stroke="#191970" d="M201.6622,-254.6754C212.7642,-252.4997 227.5075,-247.7631 236,-237.5 292.4637,-169.2637 212.4712,-107.0794 272,-41.5 272.7699,-40.6519 273.5663,-39.8318 274.3872,-39.0387"/>
<polygon fill="#191970" stroke="#191970" points="276.7817,-41.6043 282.378,-32.6081 272.393,-36.1509 276.7817,-41.6043"/>
</g>
<!-- Node5 -->
<g id="node5" class="node">
<title>Node5</title>
<g id="a_node5"><a xlink:href="../../da/d23/msg__buffer_8cc.html#a98631211a4a8aee62f572375d5b637be" target="_top" xlink:title="printf">
<polygon fill="none" stroke="#000000" points="987.5,-537.5 987.5,-557.5 1031.5,-557.5 1031.5,-537.5 987.5,-537.5"/>
<text text-anchor="middle" x="1009.5" y="-544.5" font-family="FreeSans" font-size="10.00" fill="#000000">printf</text>
</a>
</g>
</g>
<!-- Node4&#45;&gt;Node5 -->
<g id="edge4" class="edge">
<title>Node4&#45;&gt;Node5</title>
<path fill="none" stroke="#191970" d="M659.0969,-676.8944C728.4691,-678.894 827.972,-674.0629 907,-639.5 944.5213,-623.09 977.7145,-587.4604 995.5773,-565.6719"/>
<polygon fill="#191970" stroke="#191970" points="998.3538,-567.8038 1001.8546,-557.804 992.882,-563.4381 998.3538,-567.8038"/>
</g>
<!-- Node6&#45;&gt;Node5 -->
<g id="edge7" class="edge">
<title>Node6&#45;&gt;Node5</title>
<path fill="none" stroke="#191970" d="M881.5629,-436.4643C890.6946,-440.0104 899.4423,-444.5899 907,-450.5 933.6288,-471.3236 918.2836,-494.4388 943,-517.5 952.7671,-526.613 965.7736,-533.3091 977.6926,-538.033"/>
<polygon fill="#191970" stroke="#191970" points="976.7597,-541.418 987.3537,-541.547 979.1524,-534.8396 976.7597,-541.418"/>
</g>
<!-- Node7 -->
<g id="node7" class="node">
<title>Node7</title>
<g id="a_node7"><a xlink:href="../../dd/d20/classEicBitMask.html#a577897e58c312fcaa8722bea72257e26" target="_top" xlink:title="EicBitMask::GetBitNum">
<polygon fill="none" stroke="#000000" points="943,-487.5 943,-507.5 1076,-507.5 1076,-487.5 943,-487.5"/>
<text text-anchor="middle" x="1009.5" y="-494.5" font-family="FreeSans" font-size="10.00" fill="#000000">EicBitMask::GetBitNum</text>
</a>
</g>
</g>
<!-- Node6&#45;&gt;Node7 -->
<g id="edge6" class="edge">
<title>Node6&#45;&gt;Node7</title>
<path fill="none" stroke="#191970" d="M874.9109,-440.5344C885.7519,-443.5326 896.7482,-446.8763 907,-450.5 932.8133,-459.6241 961.0131,-472.8059 981.2884,-482.889"/>
<polygon fill="#191970" stroke="#191970" points="979.7784,-486.0473 990.2842,-487.4181 982.9262,-479.795 979.7784,-486.0473"/>
</g>
<!-- Node8 -->
<g id="node8" class="node">
<title>Node8</title>
<g id="a_node8"><a xlink:href="../../dd/d20/classEicBitMask.html#a23ae6782cbc30f5fe572692893d5e3bf" target="_top" xlink:title="EicBitMask::SetShift">
<polygon fill="none" stroke="#000000" points="951,-426.5 951,-446.5 1068,-446.5 1068,-426.5 951,-426.5"/>
<text text-anchor="middle" x="1009.5" y="-433.5" font-family="FreeSans" font-size="10.00" fill="#000000">EicBitMask::SetShift</text>
</a>
</g>
</g>
<!-- Node6&#45;&gt;Node8 -->
<g id="edge8" class="edge">
<title>Node6&#45;&gt;Node8</title>
<path fill="none" stroke="#191970" d="M881.7301,-429.0025C901.1361,-430.1412 921.8523,-431.3569 940.8319,-432.4706"/>
<polygon fill="#191970" stroke="#191970" points="940.6914,-435.9683 950.8793,-433.0602 941.1015,-428.9803 940.6914,-435.9683"/>
</g>
<!-- Node13 -->
<g id="node13" class="node">
<title>Node13</title>
<g id="a_node13"><a xlink:href="../../dd/d0b/classEicNamePatternHub.html#a8baac9dd7e44ee789555cb040763f903" target="_top" xlink:title="EicNamePatternHub::\lAnyMatch">
<polygon fill="none" stroke="#000000" points="513.5,-297.5 513.5,-329.5 636.5,-329.5 636.5,-297.5 513.5,-297.5"/>
<text text-anchor="start" x="521.5" y="-316.5" font-family="FreeSans" font-size="10.00" fill="#000000">EicNamePatternHub::</text>
<text text-anchor="middle" x="575" y="-304.5" font-family="FreeSans" font-size="10.00" fill="#000000">AnyMatch</text>
</a>
</g>
</g>
<!-- Node12&#45;&gt;Node13 -->
<g id="edge13" class="edge">
<title>Node12&#45;&gt;Node13</title>
<path fill="none" stroke="#191970" d="M414.5877,-227.541C425.8991,-231.1276 437.3018,-235.971 447,-242.5 468.5355,-256.9981 461.3709,-274.1418 483,-288.5 489.257,-292.6537 496.1863,-296.1203 503.3529,-299.0129"/>
<polygon fill="#191970" stroke="#191970" points="502.6378,-302.4774 513.2318,-302.6123 505.0342,-295.9003 502.6378,-302.4774"/>
</g>
<!-- Node12&#45;&gt;Node14 -->
<g id="edge14" class="edge">
<title>Node12&#45;&gt;Node14</title>
<path fill="none" stroke="#191970" d="M422.1534,-227.5221C431.258,-231.1066 439.9279,-235.953 447,-242.5 480.7446,-273.7389 448.1133,-309.5419 483,-339.5 484.5312,-340.8149 486.1293,-342.047 487.7844,-343.2014"/>
<polygon fill="#191970" stroke="#191970" points="486.0979,-346.2702 496.4871,-348.3476 489.6609,-340.2449 486.0979,-346.2702"/>
</g>
<!-- Node15 -->
<g id="node15" class="node">
<title>Node15</title>
<g id="a_node15"><a xlink:href="../../df/de0/classEicGeoParData.html#a24162311dd8c038e330afbee7a132352" target="_top" xlink:title="EicGeoParData::GetGeometry\lFileName">
<polygon fill="none" stroke="#000000" points="492,-246.5 492,-278.5 658,-278.5 658,-246.5 492,-246.5"/>
<text text-anchor="start" x="500" y="-265.5" font-family="FreeSans" font-size="10.00" fill="#000000">EicGeoParData::GetGeometry</text>
<text text-anchor="middle" x="575" y="-253.5" font-family="FreeSans" font-size="10.00" fill="#000000">FileName</text>
</a>
</g>
</g>
<!-- Node12&#45;&gt;Node15 -->
<g id="edge15" class="edge">
<title>Node12&#45;&gt;Node15</title>
<path fill="none" stroke="#191970" d="M407.5942,-227.5429C431.3475,-232.503 460.7488,-238.6424 488.2512,-244.3854"/>
<polygon fill="#191970" stroke="#191970" points="487.7794,-247.8623 498.2837,-246.4804 489.2103,-241.0101 487.7794,-247.8623"/>
</g>
<!-- Node12&#45;&gt;Node21 -->
<g id="edge21" class="edge">
<title>Node12&#45;&gt;Node21</title>
<path fill="none" stroke="#191970" d="M407.5942,-207.4571C431.3475,-202.497 460.7488,-196.3576 488.2512,-190.6146"/>
<polygon fill="#191970" stroke="#191970" points="489.2103,-193.9899 498.2837,-188.5196 487.7794,-187.1377 489.2103,-193.9899"/>
</g>
<!-- Node22 -->
<g id="node22" class="node">
<title>Node22</title>
<g id="a_node22"><a xlink:href="../../d0/d2f/classEicDetName.html#aef29cb1ffe2ea071a03f4aa098408595" target="_top" xlink:title="EicDetName::Name">
<polygon fill="none" stroke="#000000" points="517.5,-207.5 517.5,-227.5 632.5,-227.5 632.5,-207.5 517.5,-207.5"/>
<text text-anchor="middle" x="575" y="-214.5" font-family="FreeSans" font-size="10.00" fill="#000000">EicDetName::Name</text>
</a>
</g>
</g>
<!-- Node12&#45;&gt;Node22 -->
<g id="edge22" class="edge">
<title>Node12&#45;&gt;Node22</title>
<path fill="none" stroke="#191970" d="M445.2905,-217.5C465.8807,-217.5 487.5881,-217.5 507.23,-217.5"/>
<polygon fill="#191970" stroke="#191970" points="507.2965,-221.0001 517.2964,-217.5 507.2964,-214.0001 507.2965,-221.0001"/>
</g>
<!-- Node16 -->
<g id="node16" class="node">
<title>Node16</title>
<g id="a_node16"><a xlink:href="../../df/de0/classEicGeoParData.html#a7f5db7c4ddc258264f0258a6d8d946b6" target="_top" xlink:title="EicGeoParData::GetGeometryType">
<polygon fill="none" stroke="#000000" points="710.5,-291.5 710.5,-311.5 899.5,-311.5 899.5,-291.5 710.5,-291.5"/>
<text text-anchor="middle" x="805" y="-298.5" font-family="FreeSans" font-size="10.00" fill="#000000">EicGeoParData::GetGeometryType</text>
</a>
</g>
</g>
<!-- Node15&#45;&gt;Node16 -->
<g id="edge16" class="edge">
<title>Node15&#45;&gt;Node16</title>
<path fill="none" stroke="#191970" d="M658.0353,-276.5799C683.594,-280.9138 711.441,-285.6356 735.9539,-289.7922"/>
<polygon fill="#191970" stroke="#191970" points="735.4369,-293.2544 745.8813,-291.4755 736.6072,-286.3529 735.4369,-293.2544"/>
</g>
<!-- Node17 -->
<g id="node17" class="node">
<title>Node17</title>
<g id="a_node17"><a xlink:href="../../df/de0/classEicGeoParData.html#ae6acf5e5d790c629031c2d7cf12718ef" target="_top" xlink:title="EicGeoParData::GetSubVersion">
<polygon fill="none" stroke="#000000" points="719,-252.5 719,-272.5 891,-272.5 891,-252.5 719,-252.5"/>
<text text-anchor="middle" x="805" y="-259.5" font-family="FreeSans" font-size="10.00" fill="#000000">EicGeoParData::GetSubVersion</text>
</a>
</g>
</g>
<!-- Node15&#45;&gt;Node17 -->
<g id="edge17" class="edge">
<title>Node15&#45;&gt;Node17</title>
<path fill="none" stroke="#191970" d="M658.0353,-262.5C674.4451,-262.5 691.7983,-262.5 708.6066,-262.5"/>
<polygon fill="#191970" stroke="#191970" points="708.9885,-266.0001 718.9885,-262.5 708.9885,-259.0001 708.9885,-266.0001"/>
</g>
<!-- Node18 -->
<g id="node18" class="node">
<title>Node18</title>
<g id="a_node18"><a xlink:href="../../df/de0/classEicGeoParData.html#a27907f2aba8817ceb2d97e1a29ecaf40" target="_top" xlink:title="EicGeoParData::GetVersion">
<polygon fill="none" stroke="#000000" points="728.5,-213.5 728.5,-233.5 881.5,-233.5 881.5,-213.5 728.5,-213.5"/>
<text text-anchor="middle" x="805" y="-220.5" font-family="FreeSans" font-size="10.00" fill="#000000">EicGeoParData::GetVersion</text>
</a>
</g>
</g>
<!-- Node15&#45;&gt;Node18 -->
<g id="edge18" class="edge">
<title>Node15&#45;&gt;Node18</title>
<path fill="none" stroke="#191970" d="M658.0353,-248.4201C683.594,-244.0862 711.441,-239.3644 735.9539,-235.2078"/>
<polygon fill="#191970" stroke="#191970" points="736.6072,-238.6471 745.8813,-233.5245 735.4369,-231.7456 736.6072,-238.6471"/>
</g>
<!-- Node19 -->
<g id="node19" class="node">
<title>Node19</title>
<g id="a_node19"><a xlink:href="../../df/de0/classEicGeoParData.html#a09fe5b3481f26b4a771cb7c476d64a1f" target="_top" xlink:title="EicGeoParData::IsTestGeometry">
<polygon fill="none" stroke="#000000" points="717,-174.5 717,-194.5 893,-194.5 893,-174.5 717,-174.5"/>
<text text-anchor="middle" x="805" y="-181.5" font-family="FreeSans" font-size="10.00" fill="#000000">EicGeoParData::IsTestGeometry</text>
</a>
</g>
</g>
<!-- Node15&#45;&gt;Node19 -->
<g id="edge19" class="edge">
<title>Node15&#45;&gt;Node19</title>
<path fill="none" stroke="#191970" d="M647.62,-246.3312C654.3446,-243.782 660.9116,-240.855 667,-237.5 686.01,-227.0248 683.6267,-214.287 703,-204.5 708.2108,-201.8676 713.7336,-199.5811 719.4063,-197.5951"/>
<polygon fill="#191970" stroke="#191970" points="720.5936,-200.8904 729.0658,-194.5287 718.4755,-194.2185 720.5936,-200.8904"/>
</g>
<!-- Node20 -->
<g id="node20" class="node">
<title>Node20</title>
<g id="a_node20"><a xlink:href="../../d0/d2f/classEicDetName.html#afac87377442f69796e0e335e81b96067" target="_top" xlink:title="EicDetName::name">
<polygon fill="none" stroke="#000000" points="748,-330.5 748,-350.5 862,-350.5 862,-330.5 748,-330.5"/>
<text text-anchor="middle" x="805" y="-337.5" font-family="FreeSans" font-size="10.00" fill="#000000">EicDetName::name</text>
</a>
</g>
</g>
<!-- Node15&#45;&gt;Node20 -->
<g id="edge20" class="edge">
<title>Node15&#45;&gt;Node20</title>
<path fill="none" stroke="#191970" d="M645.2121,-278.5957C652.7742,-281.4201 660.1868,-284.7007 667,-288.5 685.9569,-299.071 683.5806,-311.8047 703,-321.5 713.765,-326.8745 725.8566,-330.7379 737.8497,-333.5129"/>
<polygon fill="#191970" stroke="#191970" points="737.3662,-336.9871 747.8694,-335.5971 738.7918,-330.1338 737.3662,-336.9871"/>
</g>
<!-- Node24 -->
<g id="node24" class="node">
<title>Node24</title>
<g id="a_node24"><a xlink:href="../../de/d6a/classFairGeoBuilder.html#a852b0d5861a7a6c1033aab59417d1c79" target="_top" xlink:title="FairGeoBuilder::createMedium">
<polygon fill="none" stroke="#000000" points="490.5,-78.5 490.5,-98.5 659.5,-98.5 659.5,-78.5 490.5,-78.5"/>
<text text-anchor="middle" x="575" y="-85.5" font-family="FreeSans" font-size="10.00" fill="#000000">FairGeoBuilder::createMedium</text>
</a>
</g>
</g>
<!-- Node23&#45;&gt;Node24 -->
<g id="edge25" class="edge">
<title>Node23&#45;&gt;Node24</title>
<path fill="none" stroke="#191970" d="M410.1607,-129.4715C422.2909,-126.8027 435.1572,-123.7494 447,-120.5 463.2644,-116.0374 466.7362,-112.9645 483,-108.5 493.0336,-105.7457 503.7658,-103.1246 514.2287,-100.7407"/>
<polygon fill="#191970" stroke="#191970" points="515.1465,-104.1221 524.1461,-98.5311 513.6242,-97.2896 515.1465,-104.1221"/>
</g>
<!-- Node25 -->
<g id="node25" class="node">
<title>Node25</title>
<g id="a_node25"><a xlink:href="../../d9/d1e/classFairGeoMedia.html#a0dc27e89d61b8ff40498a48e39b2a2c0" target="_top" xlink:title="FairGeoMedia::getMedium">
<polygon fill="none" stroke="#000000" points="500.5,-117.5 500.5,-137.5 649.5,-137.5 649.5,-117.5 500.5,-117.5"/>
<text text-anchor="middle" x="575" y="-124.5" font-family="FreeSans" font-size="10.00" fill="#000000">FairGeoMedia::getMedium</text>
</a>
</g>
</g>
<!-- Node23&#45;&gt;Node25 -->
<g id="edge26" class="edge">
<title>Node23&#45;&gt;Node25</title>
<path fill="none" stroke="#191970" d="M437.6051,-135.1508C454.7228,-134.1976 472.9228,-133.1841 490.2856,-132.2173"/>
<polygon fill="#191970" stroke="#191970" points="490.6075,-135.7049 500.3974,-131.6542 490.2182,-128.7157 490.6075,-135.7049"/>
</g>
<!-- Node28&#45;&gt;Node5 -->
<g id="edge33" class="edge">
<title>Node28&#45;&gt;Node5</title>
<path fill="none" stroke="#191970" d="M436.7206,-518.5759C440.3001,-520.3481 443.7499,-522.3157 447,-524.5 469.4287,-539.574 459.8638,-559.5361 483,-573.5 563.9122,-622.3347 815.6971,-630.9006 907,-606.5 937.7914,-598.271 968.9275,-578.3292 988.6693,-563.9042"/>
<polygon fill="#191970" stroke="#191970" points="991.0012,-566.5302 996.896,-557.7267 986.7978,-560.9327 991.0012,-566.5302"/>
</g>
<!-- Node29 -->
<g id="node29" class="node">
<title>Node29</title>
<g id="a_node29"><a xlink:href="../../dd/d20/classEicBitMask.html#aba6083955032532d7dfc95069338dd27" target="_top" xlink:title="EicBitMask::GetBitMask">
<polygon fill="none" stroke="#000000" points="507.5,-453.5 507.5,-473.5 642.5,-473.5 642.5,-453.5 507.5,-453.5"/>
<text text-anchor="middle" x="575" y="-460.5" font-family="FreeSans" font-size="10.00" fill="#000000">EicBitMask::GetBitMask</text>
</a>
</g>
</g>
<!-- Node28&#45;&gt;Node29 -->
<g id="edge31" class="edge">
<title>Node28&#45;&gt;Node29</title>
<path fill="none" stroke="#191970" d="M438.5206,-488.1993C461.8547,-483.9764 487.128,-479.4026 509.5104,-475.3519"/>
<polygon fill="#191970" stroke="#191970" points="510.3566,-478.7558 519.5734,-473.5308 509.1099,-471.8676 510.3566,-478.7558"/>
</g>
<!-- Node30 -->
<g id="node30" class="node">
<title>Node30</title>
<g id="a_node30"><a xlink:href="../../dd/d20/classEicBitMask.html#a862ce5875cf47f78ff18aaed935966d9" target="_top" xlink:title="EicBitMask::GetShift">
<polygon fill="none" stroke="#000000" points="745.5,-459.5 745.5,-479.5 864.5,-479.5 864.5,-459.5 745.5,-459.5"/>
<text text-anchor="middle" x="805" y="-466.5" font-family="FreeSans" font-size="10.00" fill="#000000">EicBitMask::GetShift</text>
</a>
</g>
</g>
<!-- Node28&#45;&gt;Node30 -->
<g id="edge32" class="edge">
<title>Node28&#45;&gt;Node30</title>
<path fill="none" stroke="#191970" d="M438.5608,-498.4733C500.7061,-495.1008 589.4338,-489.8284 667,-483.5 689.1705,-481.6912 713.3085,-479.365 735.1077,-477.1302"/>
<polygon fill="#191970" stroke="#191970" points="735.6854,-480.5892 745.2717,-476.0778 734.9643,-473.6265 735.6854,-480.5892"/>
</g>
<!-- Node31 -->
<g id="node31" class="node">
<title>Node31</title>
<g id="a_node31"><a xlink:href="../../da/d86/classEicGeoMap.html#a9c17af03744fe42ae8daf66f9bda7f06" target="_top" xlink:title="EicGeoMap::SetMappingTable\lEntry">
<polygon fill="none" stroke="#000000" points="492,-531.5 492,-563.5 658,-563.5 658,-531.5 492,-531.5"/>
<text text-anchor="start" x="500" y="-550.5" font-family="FreeSans" font-size="10.00" fill="#000000">EicGeoMap::SetMappingTable</text>
<text text-anchor="middle" x="575" y="-538.5" font-family="FreeSans" font-size="10.00" fill="#000000">Entry</text>
</a>
</g>
</g>
<!-- Node28&#45;&gt;Node31 -->
<g id="edge34" class="edge">
<title>Node28&#45;&gt;Node31</title>
<path fill="none" stroke="#191970" d="M436.3878,-518.5555C453.1612,-522.058 471.0244,-525.7881 488.1544,-529.3652"/>
<polygon fill="#191970" stroke="#191970" points="487.6376,-532.8327 498.1419,-531.4507 489.0685,-525.9805 487.6376,-532.8327"/>
</g>
<!-- Node31&#45;&gt;Node5 -->
<g id="edge41" class="edge">
<title>Node31&#45;&gt;Node5</title>
<path fill="none" stroke="#191970" d="M658.0052,-547.5C754.8371,-547.5 910.1872,-547.5 977.11,-547.5"/>
<polygon fill="#191970" stroke="#191970" points="977.4393,-551.0001 987.4393,-547.5 977.4393,-544.0001 977.4393,-551.0001"/>
</g>
<!-- Node31&#45;&gt;Node30 -->
<g id="edge39" class="edge">
<title>Node31&#45;&gt;Node30</title>
<path fill="none" stroke="#191970" d="M632.1306,-531.4057C643.951,-527.21 656.1108,-522.228 667,-516.5 684.7004,-507.189 684.7265,-497.6289 703,-489.5 713.2018,-484.9617 724.4307,-481.4489 735.5944,-478.7309"/>
<polygon fill="#191970" stroke="#191970" points="736.3685,-482.1443 745.3605,-476.5412 734.837,-475.3139 736.3685,-482.1443"/>
</g>
<!-- Node32 -->
<g id="node32" class="node">
<title>Node32</title>
<g id="a_node32"><a xlink:href="../../da/d86/classEicGeoMap.html#ad01497111125dccc306dac986d6d10e1" target="_top" xlink:title="EicGeoMap::CalculateBitPattern">
<polygon fill="none" stroke="#000000" points="717,-498.5 717,-518.5 893,-518.5 893,-498.5 717,-498.5"/>
<text text-anchor="middle" x="805" y="-505.5" font-family="FreeSans" font-size="10.00" fill="#000000">EicGeoMap::CalculateBitPattern</text>
</a>
</g>
</g>
<!-- Node31&#45;&gt;Node32 -->
<g id="edge35" class="edge">
<title>Node31&#45;&gt;Node32</title>
<path fill="none" stroke="#191970" d="M658.0353,-533.4201C683.594,-529.0862 711.441,-524.3644 735.9539,-520.2078"/>
<polygon fill="#191970" stroke="#191970" points="736.6072,-523.6471 745.8813,-518.5245 735.4369,-516.7456 736.6072,-523.6471"/>
</g>
<!-- Node33 -->
<g id="node33" class="node">
<title>Node33</title>
<g id="a_node33"><a xlink:href="../../d1/d24/classGeantVolumeLevel.html#a4aba5288354c7287b6fc03cd9d30b2a2" target="_top" xlink:title="GeantVolumeLevel::GetVolumeName">
<polygon fill="none" stroke="#000000" points="703,-576.5 703,-596.5 907,-596.5 907,-576.5 703,-576.5"/>
<text text-anchor="middle" x="805" y="-583.5" font-family="FreeSans" font-size="10.00" fill="#000000">GeantVolumeLevel::GetVolumeName</text>
</a>
</g>
</g>
<!-- Node31&#45;&gt;Node33 -->
<g id="edge40" class="edge">
<title>Node31&#45;&gt;Node33</title>
<path fill="none" stroke="#191970" d="M658.0353,-561.5799C683.594,-565.9138 711.441,-570.6356 735.9539,-574.7922"/>
<polygon fill="#191970" stroke="#191970" points="735.4369,-578.2544 745.8813,-576.4755 736.6072,-571.3529 735.4369,-578.2544"/>
</g>
<!-- Node32&#45;&gt;Node5 -->
<g id="edge37" class="edge">
<title>Node32&#45;&gt;Node5</title>
<path fill="none" stroke="#191970" d="M857.6638,-518.5435C895.409,-525.7418 945.0489,-535.2086 977.1169,-541.3243"/>
<polygon fill="#191970" stroke="#191970" points="976.7973,-544.8263 987.276,-543.2617 978.1087,-537.9502 976.7973,-544.8263"/>
</g>
<!-- Node32&#45;&gt;Node7 -->
<g id="edge36" class="edge">
<title>Node32&#45;&gt;Node7</title>
<path fill="none" stroke="#191970" d="M893.2102,-503.7552C906.3462,-503.0486 919.7973,-502.3251 932.674,-501.6325"/>
<polygon fill="#191970" stroke="#191970" points="933.0631,-505.1167 942.8607,-501.0845 932.6871,-498.1268 933.0631,-505.1167"/>
</g>
<!-- Node32&#45;&gt;Node8 -->
<g id="edge38" class="edge">
<title>Node32&#45;&gt;Node8</title>
<path fill="none" stroke="#191970" d="M874.0237,-498.4917C885.1921,-496.0622 896.5223,-493.0969 907,-489.5 934.9333,-479.9107 964.6862,-463.7897 984.8997,-451.8398"/>
<polygon fill="#191970" stroke="#191970" points="986.71,-454.8353 993.4749,-446.6813 983.1016,-448.837 986.71,-454.8353"/>
</g>
</g>
</svg>
