<?xml version="1.0" encoding="UTF-8" standalone="no"?>
<!DOCTYPE svg PUBLIC "-//W3C//DTD SVG 1.1//EN"
 "http://www.w3.org/Graphics/SVG/1.1/DTD/svg11.dtd">
<!-- Generated by graphviz version 2.40.1 (20161225.0304)
 -->
<!-- Title: TrackFastSimEval::fill_vertex_tree Pages: 1 -->
<svg width="309pt" height="701pt"
 viewBox="0.00 0.00 309.00 701.00" xmlns="http://www.w3.org/2000/svg" xmlns:xlink="http://www.w3.org/1999/xlink">
<g id="graph0" class="graph" transform="scale(1 1) rotate(0) translate(4 697)">
<title>TrackFastSimEval::fill_vertex_tree</title>
<!-- Node1 -->
<g id="node1" class="node">
<title>Node1</title>
<polygon fill="#bfbfbf" stroke="#000000" points="0,-348.5 0,-380.5 123,-380.5 123,-348.5 0,-348.5"/>
<text text-anchor="start" x="8" y="-367.5" font-family="FreeSans" font-size="10.00" fill="#000000">TrackFastSimEval::fill</text>
<text text-anchor="middle" x="61.5" y="-355.5" font-family="FreeSans" font-size="10.00" fill="#000000">_vertex_tree</text>
</g>
<!-- Node2 -->
<g id="node2" class="node">
<title>Node2</title>
<g id="a_node2"><a xlink:href="../../db/dd7/classSvtxVertexMap.html#a65e7d8369010442e979db996dab6d3f7" target="_top" xlink:title="SvtxVertexMap::begin">
<polygon fill="none" stroke="#000000" points="166.5,-672.5 166.5,-692.5 293.5,-692.5 293.5,-672.5 166.5,-672.5"/>
<text text-anchor="middle" x="230" y="-679.5" font-family="FreeSans" font-size="10.00" fill="#000000">SvtxVertexMap::begin</text>
</a>
</g>
</g>
<!-- Node1&#45;&gt;Node2 -->
<g id="edge1" class="edge">
<title>Node1&#45;&gt;Node2</title>
<path fill="none" stroke="#191970" d="M64.6833,-380.7549C76.0277,-437.1051 116.0992,-622.8448 159,-663.5 160.3053,-664.737 161.6822,-665.8954 163.1186,-666.9801"/>
<polygon fill="#191970" stroke="#191970" points="161.5695,-670.1373 171.9154,-672.4207 165.2516,-664.1839 161.5695,-670.1373"/>
</g>
<!-- Node3 -->
<g id="node3" class="node">
<title>Node3</title>
<g id="a_node3"><a xlink:href="../../d2/d6d/classSvtxVertex.html#a33456699a625f4d2b8315e1c12abe1af" target="_top" xlink:title="SvtxVertex::begin_tracks">
<polygon fill="none" stroke="#000000" points="159,-633.5 159,-653.5 301,-653.5 301,-633.5 159,-633.5"/>
<text text-anchor="middle" x="230" y="-640.5" font-family="FreeSans" font-size="10.00" fill="#000000">SvtxVertex::begin_tracks</text>
</a>
</g>
</g>
<!-- Node1&#45;&gt;Node3 -->
<g id="edge2" class="edge">
<title>Node1&#45;&gt;Node3</title>
<path fill="none" stroke="#191970" d="M62.6064,-380.7278C66.613,-426.3478 84.375,-556.8038 159,-624.5 160.4885,-625.8503 162.0626,-627.1064 163.7061,-628.2747"/>
<polygon fill="#191970" stroke="#191970" points="162.0352,-631.3526 172.4274,-633.4151 165.5897,-625.3221 162.0352,-631.3526"/>
</g>
<!-- Node4 -->
<g id="node4" class="node">
<title>Node4</title>
<g id="a_node4"><a xlink:href="../../d7/d8b/classSvtxTrackMap.html#a1c7ae993700819b7d0a8e3f3d74fa99c" target="_top" xlink:title="SvtxTrackMap::end">
<polygon fill="none" stroke="#000000" points="174,-594.5 174,-614.5 286,-614.5 286,-594.5 174,-594.5"/>
<text text-anchor="middle" x="230" y="-601.5" font-family="FreeSans" font-size="10.00" fill="#000000">SvtxTrackMap::end</text>
</a>
</g>
</g>
<!-- Node1&#45;&gt;Node4 -->
<g id="edge3" class="edge">
<title>Node1&#45;&gt;Node4</title>
<path fill="none" stroke="#191970" d="M63.7938,-380.6589C70.4658,-421.498 93.7144,-529.5675 159,-585.5 160.7715,-587.0177 162.652,-588.4155 164.617,-589.7028"/>
<polygon fill="#191970" stroke="#191970" points="163.244,-592.9412 173.6971,-594.6686 166.6028,-586.7996 163.244,-592.9412"/>
</g>
<!-- Node5 -->
<g id="node5" class="node">
<title>Node5</title>
<g id="a_node5"><a xlink:href="../../db/dd7/classSvtxVertexMap.html#adfc0da95a91d44a58eb1d48fd10841a6" target="_top" xlink:title="SvtxVertexMap::end">
<polygon fill="none" stroke="#000000" points="171,-555.5 171,-575.5 289,-575.5 289,-555.5 171,-555.5"/>
<text text-anchor="middle" x="230" y="-562.5" font-family="FreeSans" font-size="10.00" fill="#000000">SvtxVertexMap::end</text>
</a>
</g>
</g>
<!-- Node1&#45;&gt;Node5 -->
<g id="edge4" class="edge">
<title>Node1&#45;&gt;Node5</title>
<path fill="none" stroke="#191970" d="M65.4619,-380.6912C75.0504,-416.363 102.9576,-502.0789 159,-546.5 161.0125,-548.0951 163.1473,-549.5569 165.3728,-550.8964"/>
<polygon fill="#191970" stroke="#191970" points="163.8423,-554.0448 174.3394,-555.4803 167.0287,-547.812 163.8423,-554.0448"/>
</g>
<!-- Node6 -->
<g id="node6" class="node">
<title>Node6</title>
<g id="a_node6"><a xlink:href="../../d2/d6d/classSvtxVertex.html#ac608dfaaecfeefaf84dabdcaf285069c" target="_top" xlink:title="SvtxVertex::end_tracks">
<polygon fill="none" stroke="#000000" points="163.5,-516.5 163.5,-536.5 296.5,-536.5 296.5,-516.5 163.5,-516.5"/>
<text text-anchor="middle" x="230" y="-523.5" font-family="FreeSans" font-size="10.00" fill="#000000">SvtxVertex::end_tracks</text>
</a>
</g>
</g>
<!-- Node1&#45;&gt;Node6 -->
<g id="edge5" class="edge">
<title>Node1&#45;&gt;Node6</title>
<path fill="none" stroke="#191970" d="M67.9112,-380.5856C80.6278,-410.3742 111.943,-474.1233 159,-507.5 161.3906,-509.1956 163.9237,-510.7399 166.5546,-512.1463"/>
<polygon fill="#191970" stroke="#191970" points="165.2646,-515.4057 175.811,-516.4169 168.1971,-509.0495 165.2646,-515.4057"/>
</g>
<!-- Node7 -->
<g id="node7" class="node">
<title>Node7</title>
<g id="a_node7"><a xlink:href="../../d7/d8b/classSvtxTrackMap.html#a3ee54a615443da184e8cfb267075fd34" target="_top" xlink:title="SvtxTrackMap::find">
<polygon fill="none" stroke="#000000" points="174,-477.5 174,-497.5 286,-497.5 286,-477.5 174,-477.5"/>
<text text-anchor="middle" x="230" y="-484.5" font-family="FreeSans" font-size="10.00" fill="#000000">SvtxTrackMap::find</text>
</a>
</g>
</g>
<!-- Node1&#45;&gt;Node7 -->
<g id="edge6" class="edge">
<title>Node1&#45;&gt;Node7</title>
<path fill="none" stroke="#191970" d="M72.0717,-380.5042C88.1044,-403.4946 120.7801,-445.6126 159,-468.5 162.1987,-470.4155 165.5921,-472.1412 169.0941,-473.6956"/>
<polygon fill="#191970" stroke="#191970" points="167.9718,-477.0152 178.5588,-477.4224 170.5365,-470.5019 167.9718,-477.0152"/>
</g>
<!-- Node8 -->
<g id="node8" class="node">
<title>Node8</title>
<g id="a_node8"><a xlink:href="../../d2/d6d/classSvtxVertex.html#a100758a84d82009a10de89721db160c6" target="_top" xlink:title="SvtxVertex::get_error">
<polygon fill="none" stroke="#000000" points="168,-438.5 168,-458.5 292,-458.5 292,-438.5 168,-438.5"/>
<text text-anchor="middle" x="230" y="-445.5" font-family="FreeSans" font-size="10.00" fill="#000000">SvtxVertex::get_error</text>
</a>
</g>
</g>
<!-- Node1&#45;&gt;Node8 -->
<g id="edge7" class="edge">
<title>Node1&#45;&gt;Node8</title>
<path fill="none" stroke="#191970" d="M81.2722,-380.5194C100.2036,-395.1458 130.0836,-416.4219 159,-429.5 163.7468,-431.6468 168.7854,-433.5922 173.9021,-435.3457"/>
<polygon fill="#191970" stroke="#191970" points="173.1913,-438.7922 183.7816,-438.4839 175.3105,-432.1207 173.1913,-438.7922"/>
</g>
<!-- Node9 -->
<g id="node9" class="node">
<title>Node9</title>
<g id="a_node9"><a xlink:href="../../d2/d6d/classSvtxVertex.html#a003785d2b54f368a5cd25c8db293bef1" target="_top" xlink:title="SvtxVertex::get_id">
<polygon fill="none" stroke="#000000" points="176,-399.5 176,-419.5 284,-419.5 284,-399.5 176,-399.5"/>
<text text-anchor="middle" x="230" y="-406.5" font-family="FreeSans" font-size="10.00" fill="#000000">SvtxVertex::get_id</text>
</a>
</g>
</g>
<!-- Node1&#45;&gt;Node9 -->
<g id="edge8" class="edge">
<title>Node1&#45;&gt;Node9</title>
<path fill="none" stroke="#191970" d="M121.8564,-380.6189C141.7079,-385.9205 163.4887,-391.7373 182.268,-396.7526"/>
<polygon fill="#191970" stroke="#191970" points="181.5092,-400.1725 192.0737,-399.3713 183.3154,-393.4096 181.5092,-400.1725"/>
</g>
<!-- Node10 -->
<g id="node10" class="node">
<title>Node10</title>
<g id="a_node10"><a xlink:href="../../d9/da8/classSvtxTrack__FastSim.html#af1b86b45118d363b82feb567c314bdd7" target="_top" xlink:title="SvtxTrack_FastSim::\lget_truth_track_id">
<polygon fill="none" stroke="#000000" points="172.5,-348.5 172.5,-380.5 287.5,-380.5 287.5,-348.5 172.5,-348.5"/>
<text text-anchor="start" x="180.5" y="-367.5" font-family="FreeSans" font-size="10.00" fill="#000000">SvtxTrack_FastSim::</text>
<text text-anchor="middle" x="230" y="-355.5" font-family="FreeSans" font-size="10.00" fill="#000000">get_truth_track_id</text>
</a>
</g>
</g>
<!-- Node1&#45;&gt;Node10 -->
<g id="edge9" class="edge">
<title>Node1&#45;&gt;Node10</title>
<path fill="none" stroke="#191970" d="M123.2864,-364.5C135.9597,-364.5 149.3646,-364.5 162.2354,-364.5"/>
<polygon fill="#191970" stroke="#191970" points="162.4188,-368.0001 172.4188,-364.5 162.4187,-361.0001 162.4188,-368.0001"/>
</g>
<!-- Node11 -->
<g id="node11" class="node">
<title>Node11</title>
<g id="a_node11"><a xlink:href="../../de/dc9/classPHG4Particle.html#a02ca717804f76c532efaf6d1cdebda3e" target="_top" xlink:title="PHG4Particle::get_vtx_id">
<polygon fill="none" stroke="#000000" points="160,-309.5 160,-329.5 300,-329.5 300,-309.5 160,-309.5"/>
<text text-anchor="middle" x="230" y="-316.5" font-family="FreeSans" font-size="10.00" fill="#000000">PHG4Particle::get_vtx_id</text>
</a>
</g>
</g>
<!-- Node1&#45;&gt;Node11 -->
<g id="edge10" class="edge">
<title>Node1&#45;&gt;Node11</title>
<path fill="none" stroke="#191970" d="M121.8564,-348.3811C141.7079,-343.0795 163.4887,-337.2627 182.268,-332.2474"/>
<polygon fill="#191970" stroke="#191970" points="183.3154,-335.5904 192.0737,-329.6287 181.5092,-328.8275 183.3154,-335.5904"/>
</g>
<!-- Node12 -->
<g id="node12" class="node">
<title>Node12</title>
<g id="a_node12"><a xlink:href="../../d2/d6d/classSvtxVertex.html#a233c6da9e4f023ee15b8d1298cde9ac3" target="_top" xlink:title="SvtxVertex::get_x">
<polygon fill="none" stroke="#000000" points="177.5,-270.5 177.5,-290.5 282.5,-290.5 282.5,-270.5 177.5,-270.5"/>
<text text-anchor="middle" x="230" y="-277.5" font-family="FreeSans" font-size="10.00" fill="#000000">SvtxVertex::get_x</text>
</a>
</g>
</g>
<!-- Node1&#45;&gt;Node12 -->
<g id="edge11" class="edge">
<title>Node1&#45;&gt;Node12</title>
<path fill="none" stroke="#191970" d="M82.088,-348.2759C101.1073,-333.9671 130.6271,-313.4342 159,-300.5 164.4493,-298.0158 170.2771,-295.7718 176.1631,-293.7632"/>
<polygon fill="#191970" stroke="#191970" points="177.604,-296.9774 186.0675,-290.6041 175.4768,-290.3084 177.604,-296.9774"/>
</g>
<!-- Node13 -->
<g id="node13" class="node">
<title>Node13</title>
<g id="a_node13"><a xlink:href="../../d2/d6d/classSvtxVertex.html#a2b5eda5e1b6f143c4963c63b249a432c" target="_top" xlink:title="SvtxVertex::get_y">
<polygon fill="none" stroke="#000000" points="177.5,-231.5 177.5,-251.5 282.5,-251.5 282.5,-231.5 177.5,-231.5"/>
<text text-anchor="middle" x="230" y="-238.5" font-family="FreeSans" font-size="10.00" fill="#000000">SvtxVertex::get_y</text>
</a>
</g>
</g>
<!-- Node1&#45;&gt;Node13 -->
<g id="edge12" class="edge">
<title>Node1&#45;&gt;Node13</title>
<path fill="none" stroke="#191970" d="M72.4187,-348.3387C88.6409,-325.5732 121.2805,-284.3003 159,-261.5 162.8649,-259.1638 167.0124,-257.0917 171.2912,-255.2553"/>
<polygon fill="#191970" stroke="#191970" points="172.7285,-258.4526 180.8093,-251.6005 170.2192,-251.9178 172.7285,-258.4526"/>
</g>
<!-- Node14 -->
<g id="node14" class="node">
<title>Node14</title>
<g id="a_node14"><a xlink:href="../../d2/d6d/classSvtxVertex.html#acd46c82a2b067db8482f53280197239f" target="_top" xlink:title="SvtxVertex::get_z">
<polygon fill="none" stroke="#000000" points="178,-192.5 178,-212.5 282,-212.5 282,-192.5 178,-192.5"/>
<text text-anchor="middle" x="230" y="-199.5" font-family="FreeSans" font-size="10.00" fill="#000000">SvtxVertex::get_z</text>
</a>
</g>
</g>
<!-- Node1&#45;&gt;Node14 -->
<g id="edge13" class="edge">
<title>Node1&#45;&gt;Node14</title>
<path fill="none" stroke="#191970" d="M68.1861,-348.1204C81.1505,-318.4416 112.5742,-255.773 159,-222.5 162.0413,-220.3203 165.3134,-218.3776 168.7238,-216.6462"/>
<polygon fill="#191970" stroke="#191970" points="170.2811,-219.7846 178.0111,-212.5391 167.4499,-213.3826 170.2811,-219.7846"/>
</g>
<!-- Node15 -->
<g id="node15" class="node">
<title>Node15</title>
<g id="a_node15"><a xlink:href="../../da/d6c/classPHG4TruthInfoContainer.html#a175e3e0bbb61b850bf184368d920152f" target="_top" xlink:title="PHG4TruthInfoContainer\l::GetParticle">
<polygon fill="none" stroke="#000000" points="160.5,-141.5 160.5,-173.5 299.5,-173.5 299.5,-141.5 160.5,-141.5"/>
<text text-anchor="start" x="168.5" y="-160.5" font-family="FreeSans" font-size="10.00" fill="#000000">PHG4TruthInfoContainer</text>
<text text-anchor="middle" x="230" y="-148.5" font-family="FreeSans" font-size="10.00" fill="#000000">::GetParticle</text>
</a>
</g>
</g>
<!-- Node1&#45;&gt;Node15 -->
<g id="edge14" class="edge">
<title>Node1&#45;&gt;Node15</title>
<path fill="none" stroke="#191970" d="M65.8638,-348.493C76.1772,-313.5815 105.3138,-230.0064 159,-183.5 160.7735,-181.9637 162.6455,-180.5151 164.5936,-179.1496"/>
<polygon fill="#191970" stroke="#191970" points="166.8419,-181.8777 173.5529,-173.6793 163.1941,-175.9033 166.8419,-181.8777"/>
</g>
<!-- Node16 -->
<g id="node16" class="node">
<title>Node16</title>
<g id="a_node16"><a xlink:href="../../da/d6c/classPHG4TruthInfoContainer.html#a5f3f30ff74c7397069c6f0041849b53c" target="_top" xlink:title="PHG4TruthInfoContainer\l::GetVtx">
<polygon fill="none" stroke="#000000" points="160.5,-90.5 160.5,-122.5 299.5,-122.5 299.5,-90.5 160.5,-90.5"/>
<text text-anchor="start" x="168.5" y="-109.5" font-family="FreeSans" font-size="10.00" fill="#000000">PHG4TruthInfoContainer</text>
<text text-anchor="middle" x="230" y="-97.5" font-family="FreeSans" font-size="10.00" fill="#000000">::GetVtx</text>
</a>
</g>
</g>
<!-- Node1&#45;&gt;Node16 -->
<g id="edge15" class="edge">
<title>Node1&#45;&gt;Node16</title>
<path fill="none" stroke="#191970" d="M63.8025,-348.2138C70.546,-306.4509 94.0451,-194.4829 159,-132.5 160.4957,-131.0727 162.0762,-129.7226 163.7253,-128.4456"/>
<polygon fill="#191970" stroke="#191970" points="166.0662,-131.0931 172.4679,-122.651 162.1989,-125.2583 166.0662,-131.0931"/>
</g>
<!-- Node17 -->
<g id="node17" class="node">
<title>Node17</title>
<g id="a_node17"><a xlink:href="../../d8/d97/classTrackFastSimEval.html#aca2ac20c9cc58d2a963ef699fc893eeb" target="_top" xlink:title="TrackFastSimEval::reset\l_variables">
<polygon fill="none" stroke="#000000" points="161.5,-39.5 161.5,-71.5 298.5,-71.5 298.5,-39.5 161.5,-39.5"/>
<text text-anchor="start" x="169.5" y="-58.5" font-family="FreeSans" font-size="10.00" fill="#000000">TrackFastSimEval::reset</text>
<text text-anchor="middle" x="230" y="-46.5" font-family="FreeSans" font-size="10.00" fill="#000000">_variables</text>
</a>
</g>
</g>
<!-- Node1&#45;&gt;Node17 -->
<g id="edge16" class="edge">
<title>Node1&#45;&gt;Node17</title>
<path fill="none" stroke="#191970" d="M62.3857,-348.2588C65.8487,-300.6008 82.3984,-159.5901 159,-81.5 160.4133,-80.0592 161.913,-78.6977 163.4835,-77.4111"/>
<polygon fill="#191970" stroke="#191970" points="165.6479,-80.1691 171.8551,-71.583 161.6483,-74.4242 165.6479,-80.1691"/>
</g>
<!-- Node18 -->
<g id="node18" class="node">
<title>Node18</title>
<g id="a_node18"><a xlink:href="../../d2/d6d/classSvtxVertex.html#a030ba465f57960fb04b4752ed3a3edf8" target="_top" xlink:title="SvtxVertex::size_tracks">
<polygon fill="none" stroke="#000000" points="163.5,-.5 163.5,-20.5 296.5,-20.5 296.5,-.5 163.5,-.5"/>
<text text-anchor="middle" x="230" y="-7.5" font-family="FreeSans" font-size="10.00" fill="#000000">SvtxVertex::size_tracks</text>
</a>
</g>
</g>
<!-- Node1&#45;&gt;Node18 -->
<g id="edge17" class="edge">
<title>Node1&#45;&gt;Node18</title>
<path fill="none" stroke="#191970" d="M64.1453,-348.0888C74.2366,-287.4219 112.1154,-76.9437 159,-30.5 160.6632,-28.8524 162.451,-27.3382 164.337,-25.9466"/>
<polygon fill="#191970" stroke="#191970" points="166.4194,-28.777 173.154,-20.598 162.7888,-22.7921 166.4194,-28.777"/>
</g>
</g>
</svg>
