<?xml version="1.0" encoding="UTF-8" standalone="no"?>
<!DOCTYPE svg PUBLIC "-//W3C//DTD SVG 1.1//EN"
 "http://www.w3.org/Graphics/SVG/1.1/DTD/svg11.dtd">
<!-- Generated by graphviz version 2.40.1 (20161225.0304)
 -->
<!-- Title: eic&#45;smear/blob/master/include/eicsmear/smear/Device.h Pages: 1 -->
<svg width="3183pt" height="203pt"
 viewBox="0.00 0.00 3183.00 203.00" xmlns="http://www.w3.org/2000/svg" xmlns:xlink="http://www.w3.org/1999/xlink">
<g id="graph0" class="graph" transform="scale(1 1) rotate(0) translate(4 199)">
<title>eic&#45;smear/blob/master/include/eicsmear/smear/Device.h</title>
<!-- Node1 -->
<g id="node1" class="node">
<title>Node1</title>
<polygon fill="#bfbfbf" stroke="#000000" points="1499,-150.5 1499,-194.5 1642,-194.5 1642,-150.5 1499,-150.5"/>
<text text-anchor="start" x="1507" y="-181.5" font-family="FreeSans" font-size="10.00" fill="#000000">eic&#45;smear/blob/master</text>
<text text-anchor="start" x="1507" y="-169.5" font-family="FreeSans" font-size="10.00" fill="#000000">/include/eicsmear/smear</text>
<text text-anchor="middle" x="1570.5" y="-157.5" font-family="FreeSans" font-size="10.00" fill="#000000">/Device.h</text>
</g>
<!-- Node2 -->
<g id="node2" class="node">
<title>Node2</title>
<g id="a_node2"><a xlink:href="../../d1/db0/EicSmearTask_8cxx.html" target="_top" xlink:title="EicRoot/blob/master\l/eic/event/EicSmearTask.cxx">
<polygon fill="none" stroke="#000000" points="0,-75.5 0,-107.5 161,-107.5 161,-75.5 0,-75.5"/>
<text text-anchor="start" x="8" y="-94.5" font-family="FreeSans" font-size="10.00" fill="#000000">EicRoot/blob/master</text>
<text text-anchor="middle" x="80.5" y="-82.5" font-family="FreeSans" font-size="10.00" fill="#000000">/eic/event/EicSmearTask.cxx</text>
</a>
</g>
</g>
<!-- Node1&#45;&gt;Node2 -->
<g id="edge1" class="edge">
<title>Node1&#45;&gt;Node2</title>
<path fill="none" stroke="#191970" d="M1488.8255,-171.2975C1229.4905,-167.1318 426.6854,-151.4704 169.5,-114 158.7757,-112.4375 147.4692,-110.1176 136.6464,-107.5529"/>
<polygon fill="#191970" stroke="#191970" points="1488.8714,-174.7986 1498.9259,-171.4584 1488.9829,-167.7995 1488.8714,-174.7986"/>
</g>
<!-- Node3 -->
<g id="node3" class="node">
<title>Node3</title>
<g id="a_node3"><a xlink:href="../../d1/df9/deprecated_2smearBeAST_8cxx.html" target="_top" xlink:title="eic&#45;smear/blob/master\l/deprecated/smearBeAST.cxx">
<polygon fill="none" stroke="#000000" points="179,-75.5 179,-107.5 344,-107.5 344,-75.5 179,-75.5"/>
<text text-anchor="start" x="187" y="-94.5" font-family="FreeSans" font-size="10.00" fill="#000000">eic&#45;smear/blob/master</text>
<text text-anchor="middle" x="261.5" y="-82.5" font-family="FreeSans" font-size="10.00" fill="#000000">/deprecated/smearBeAST.cxx</text>
</a>
</g>
</g>
<!-- Node1&#45;&gt;Node3 -->
<g id="edge2" class="edge">
<title>Node1&#45;&gt;Node3</title>
<path fill="none" stroke="#191970" d="M1488.3853,-170.6378C1251.9675,-164.9458 572.5805,-146.1804 352.5,-114 341.7109,-112.4224 330.336,-110.1294 319.421,-107.6035"/>
<polygon fill="#191970" stroke="#191970" points="1488.5517,-174.1427 1498.6326,-170.883 1488.7192,-167.1447 1488.5517,-174.1427"/>
</g>
<!-- Node4 -->
<g id="node4" class="node">
<title>Node4</title>
<g id="a_node4"><a xlink:href="../../da/d5b/Bremsstrahlung_8h.html" target="_top" xlink:title="eic&#45;smear/blob/master\l/include/eicsmear/smear\l/Bremsstrahlung.h">
<polygon fill="none" stroke="#000000" points="362,-69.5 362,-113.5 505,-113.5 505,-69.5 362,-69.5"/>
<text text-anchor="start" x="370" y="-100.5" font-family="FreeSans" font-size="10.00" fill="#000000">eic&#45;smear/blob/master</text>
<text text-anchor="start" x="370" y="-88.5" font-family="FreeSans" font-size="10.00" fill="#000000">/include/eicsmear/smear</text>
<text text-anchor="middle" x="433.5" y="-76.5" font-family="FreeSans" font-size="10.00" fill="#000000">/Bremsstrahlung.h</text>
</a>
</g>
</g>
<!-- Node1&#45;&gt;Node4 -->
<g id="edge3" class="edge">
<title>Node1&#45;&gt;Node4</title>
<path fill="none" stroke="#191970" d="M1488.5839,-170.285C1274.2929,-164.1193 700.7974,-145.1353 513.5,-114 510.7958,-113.5505 508.0524,-113.0437 505.2904,-112.4908"/>
<polygon fill="#191970" stroke="#191970" points="1488.7241,-173.7903 1498.82,-170.5776 1488.9242,-166.7932 1488.7241,-173.7903"/>
</g>
<!-- Node6 -->
<g id="node6" class="node">
<title>Node6</title>
<g id="a_node6"><a xlink:href="../../d5/d02/ParticleID_8h.html" target="_top" xlink:title="eic&#45;smear/blob/master\l/include/eicsmear/smear\l/ParticleID.h">
<polygon fill="none" stroke="#000000" points="523,-69.5 523,-113.5 666,-113.5 666,-69.5 523,-69.5"/>
<text text-anchor="start" x="531" y="-100.5" font-family="FreeSans" font-size="10.00" fill="#000000">eic&#45;smear/blob/master</text>
<text text-anchor="start" x="531" y="-88.5" font-family="FreeSans" font-size="10.00" fill="#000000">/include/eicsmear/smear</text>
<text text-anchor="middle" x="594.5" y="-76.5" font-family="FreeSans" font-size="10.00" fill="#000000">/ParticleID.h</text>
</a>
</g>
</g>
<!-- Node1&#45;&gt;Node6 -->
<g id="edge5" class="edge">
<title>Node1&#45;&gt;Node6</title>
<path fill="none" stroke="#191970" d="M1488.525,-169.3421C1297.9878,-161.6468 829.7097,-140.5921 674.5,-114 671.7981,-113.5371 669.0566,-113.0189 666.2962,-112.4563"/>
<polygon fill="#191970" stroke="#191970" points="1488.6237,-172.8488 1498.7562,-169.7532 1488.9048,-165.8544 1488.6237,-172.8488"/>
</g>
<!-- Node8 -->
<g id="node8" class="node">
<title>Node8</title>
<g id="a_node8"><a xlink:href="../../d9/dad/ePHENIXDetector_8cpp.html" target="_top" xlink:title="eic&#45;smear/blob/master\l/scripts/ePHENIXDetector.cpp">
<polygon fill="none" stroke="#000000" points="684,-75.5 684,-107.5 849,-107.5 849,-75.5 684,-75.5"/>
<text text-anchor="start" x="692" y="-94.5" font-family="FreeSans" font-size="10.00" fill="#000000">eic&#45;smear/blob/master</text>
<text text-anchor="middle" x="766.5" y="-82.5" font-family="FreeSans" font-size="10.00" fill="#000000">/scripts/ePHENIXDetector.cpp</text>
</a>
</g>
</g>
<!-- Node1&#45;&gt;Node8 -->
<g id="edge7" class="edge">
<title>Node1&#45;&gt;Node8</title>
<path fill="none" stroke="#191970" d="M1488.6957,-169.9746C1355.7598,-164.9325 1084.9037,-150.7502 858.5,-114 847.9502,-112.2875 836.8266,-109.9941 826.1007,-107.5252"/>
<polygon fill="#191970" stroke="#191970" points="1488.6783,-173.4763 1498.8015,-170.3503 1488.9384,-166.4811 1488.6783,-173.4763"/>
</g>
<!-- Node9 -->
<g id="node9" class="node">
<title>Node9</title>
<g id="a_node9"><a xlink:href="../../d6/dcd/PerfectDetector_8cxx.html" target="_top" xlink:title="eic&#45;smear/blob/master\l/scripts/PerfectDetector.cxx">
<polygon fill="none" stroke="#000000" points="867.5,-75.5 867.5,-107.5 1023.5,-107.5 1023.5,-75.5 867.5,-75.5"/>
<text text-anchor="start" x="875.5" y="-94.5" font-family="FreeSans" font-size="10.00" fill="#000000">eic&#45;smear/blob/master</text>
<text text-anchor="middle" x="945.5" y="-82.5" font-family="FreeSans" font-size="10.00" fill="#000000">/scripts/PerfectDetector.cxx</text>
</a>
</g>
</g>
<!-- Node1&#45;&gt;Node9 -->
<g id="edge8" class="edge">
<title>Node1&#45;&gt;Node9</title>
<path fill="none" stroke="#191970" d="M1488.6798,-167.3042C1382.7647,-159.7339 1192.7685,-143.2788 1032.5,-114 1022.8313,-112.2337 1012.6525,-109.9741 1002.8003,-107.5709"/>
<polygon fill="#191970" stroke="#191970" points="1488.4416,-170.796 1498.6633,-168.0092 1488.9348,-163.8134 1488.4416,-170.796"/>
</g>
<!-- Node10 -->
<g id="node10" class="node">
<title>Node10</title>
<g id="a_node10"><a xlink:href="../../d0/d53/scripts_2smearBeAST_8cxx.html" target="_top" xlink:title="eic&#45;smear/blob/master\l/scripts/smearBeAST.cxx">
<polygon fill="none" stroke="#000000" points="1042,-75.5 1042,-107.5 1183,-107.5 1183,-75.5 1042,-75.5"/>
<text text-anchor="start" x="1050" y="-94.5" font-family="FreeSans" font-size="10.00" fill="#000000">eic&#45;smear/blob/master</text>
<text text-anchor="middle" x="1112.5" y="-82.5" font-family="FreeSans" font-size="10.00" fill="#000000">/scripts/smearBeAST.cxx</text>
</a>
</g>
</g>
<!-- Node1&#45;&gt;Node10 -->
<g id="edge9" class="edge">
<title>Node1&#45;&gt;Node10</title>
<path fill="none" stroke="#191970" d="M1488.8619,-162.758C1411.9488,-152.8987 1293.7313,-135.9851 1192.5,-114 1183.8996,-112.1322 1174.8555,-109.877 1166.0676,-107.5251"/>
<polygon fill="#191970" stroke="#191970" points="1488.6048,-166.2535 1498.9665,-164.0432 1489.488,-159.3094 1488.6048,-166.2535"/>
</g>
<!-- Node11 -->
<g id="node11" class="node">
<title>Node11</title>
<g id="a_node11"><a xlink:href="../../d1/d9b/smearHandBook_8cxx.html" target="_top" xlink:title="eic&#45;smear/blob/master\l/scripts/smearHandBook.cxx">
<polygon fill="none" stroke="#000000" points="1201.5,-75.5 1201.5,-107.5 1363.5,-107.5 1363.5,-75.5 1201.5,-75.5"/>
<text text-anchor="start" x="1209.5" y="-94.5" font-family="FreeSans" font-size="10.00" fill="#000000">eic&#45;smear/blob/master</text>
<text text-anchor="middle" x="1282.5" y="-82.5" font-family="FreeSans" font-size="10.00" fill="#000000">/scripts/smearHandBook.cxx</text>
</a>
</g>
</g>
<!-- Node1&#45;&gt;Node11 -->
<g id="edge10" class="edge">
<title>Node1&#45;&gt;Node11</title>
<path fill="none" stroke="#191970" d="M1489.2558,-149.6501C1441.5748,-136.2398 1382.4816,-119.6198 1339.6974,-107.5868"/>
<polygon fill="#191970" stroke="#191970" points="1488.3648,-153.0352 1498.9389,-152.3735 1490.2601,-146.2966 1488.3648,-153.0352"/>
</g>
<!-- Node12 -->
<g id="node12" class="node">
<title>Node12</title>
<g id="a_node12"><a xlink:href="../../de/ddb/smearNaiveHandBook_8cxx.html" target="_top" xlink:title="eic&#45;smear/blob/master\l/scripts/smearNaiveHandBook.cxx">
<polygon fill="none" stroke="#000000" points="1381.5,-75.5 1381.5,-107.5 1571.5,-107.5 1571.5,-75.5 1381.5,-75.5"/>
<text text-anchor="start" x="1389.5" y="-94.5" font-family="FreeSans" font-size="10.00" fill="#000000">eic&#45;smear/blob/master</text>
<text text-anchor="middle" x="1476.5" y="-82.5" font-family="FreeSans" font-size="10.00" fill="#000000">/scripts/smearNaiveHandBook.cxx</text>
</a>
</g>
</g>
<!-- Node1&#45;&gt;Node12 -->
<g id="edge11" class="edge">
<title>Node1&#45;&gt;Node12</title>
<path fill="none" stroke="#191970" d="M1537.2186,-143.8213C1523.1488,-131.6973 1507.2813,-118.0243 1495.2964,-107.6969"/>
<polygon fill="#191970" stroke="#191970" points="1534.9538,-146.49 1544.8141,-150.3664 1539.5233,-141.1871 1534.9538,-146.49"/>
</g>
<!-- Node13 -->
<g id="node13" class="node">
<title>Node13</title>
<g id="a_node13"><a xlink:href="../../d7/d9e/ZEUSDetector_8cpp.html" target="_top" xlink:title="eic&#45;smear/blob/master\l/scripts/ZEUSDetector.cpp">
<polygon fill="none" stroke="#000000" points="1590,-75.5 1590,-107.5 1739,-107.5 1739,-75.5 1590,-75.5"/>
<text text-anchor="start" x="1598" y="-94.5" font-family="FreeSans" font-size="10.00" fill="#000000">eic&#45;smear/blob/master</text>
<text text-anchor="middle" x="1664.5" y="-82.5" font-family="FreeSans" font-size="10.00" fill="#000000">/scripts/ZEUSDetector.cpp</text>
</a>
</g>
</g>
<!-- Node1&#45;&gt;Node13 -->
<g id="edge12" class="edge">
<title>Node1&#45;&gt;Node13</title>
<path fill="none" stroke="#191970" d="M1603.7814,-143.8213C1617.8512,-131.6973 1633.7187,-118.0243 1645.7036,-107.6969"/>
<polygon fill="#191970" stroke="#191970" points="1601.4767,-141.1871 1596.1859,-150.3664 1606.0462,-146.49 1601.4767,-141.1871"/>
</g>
<!-- Node14 -->
<g id="node14" class="node">
<title>Node14</title>
<g id="a_node14"><a xlink:href="../../de/d46/Device_8cxx.html" target="_top" xlink:title="eic&#45;smear/blob/master\l/src/smear/Device.cxx">
<polygon fill="none" stroke="#000000" points="1757,-75.5 1757,-107.5 1888,-107.5 1888,-75.5 1757,-75.5"/>
<text text-anchor="start" x="1765" y="-94.5" font-family="FreeSans" font-size="10.00" fill="#000000">eic&#45;smear/blob/master</text>
<text text-anchor="middle" x="1822.5" y="-82.5" font-family="FreeSans" font-size="10.00" fill="#000000">/src/smear/Device.cxx</text>
</a>
</g>
</g>
<!-- Node1&#45;&gt;Node14 -->
<g id="edge13" class="edge">
<title>Node1&#45;&gt;Node14</title>
<path fill="none" stroke="#191970" d="M1648.5754,-147.4043C1688.9374,-134.4308 1737.0093,-118.9792 1772.3745,-107.6118"/>
<polygon fill="#191970" stroke="#191970" points="1647.4765,-144.0811 1639.0272,-150.4734 1649.6186,-150.7453 1647.4765,-144.0811"/>
</g>
<!-- Node15 -->
<g id="node15" class="node">
<title>Node15</title>
<g id="a_node15"><a xlink:href="../../d5/d90/ePHENIXDetector_8h.html" target="_top" xlink:title="eic&#45;smear/blob/master\l/tests/ePHENIXDetector.h">
<polygon fill="none" stroke="#000000" points="1906.5,-75.5 1906.5,-107.5 2050.5,-107.5 2050.5,-75.5 1906.5,-75.5"/>
<text text-anchor="start" x="1914.5" y="-94.5" font-family="FreeSans" font-size="10.00" fill="#000000">eic&#45;smear/blob/master</text>
<text text-anchor="middle" x="1978.5" y="-82.5" font-family="FreeSans" font-size="10.00" fill="#000000">/tests/ePHENIXDetector.h</text>
</a>
</g>
</g>
<!-- Node1&#45;&gt;Node15 -->
<g id="edge14" class="edge">
<title>Node1&#45;&gt;Node15</title>
<path fill="none" stroke="#191970" d="M1652.0016,-160.1012C1718.4183,-149.4748 1814.4633,-132.9165 1897.5,-114 1905.8959,-112.0873 1914.7242,-109.8612 1923.3397,-107.5676"/>
<polygon fill="#191970" stroke="#191970" points="1651.339,-156.6625 1642.0132,-161.6904 1652.4389,-163.5756 1651.339,-156.6625"/>
</g>
<!-- Node18 -->
<g id="node18" class="node">
<title>Node18</title>
<g id="a_node18"><a xlink:href="../../d3/d5d/SmearBeAST__0__0_8cxx.html" target="_top" xlink:title="eicsmeardetectors/blob\l/master/SmearBeAST_0_0.cxx">
<polygon fill="none" stroke="#000000" points="2069,-75.5 2069,-107.5 2238,-107.5 2238,-75.5 2069,-75.5"/>
<text text-anchor="start" x="2077" y="-94.5" font-family="FreeSans" font-size="10.00" fill="#000000">eicsmeardetectors/blob</text>
<text text-anchor="middle" x="2153.5" y="-82.5" font-family="FreeSans" font-size="10.00" fill="#000000">/master/SmearBeAST_0_0.cxx</text>
</a>
</g>
</g>
<!-- Node1&#45;&gt;Node18 -->
<g id="edge17" class="edge">
<title>Node1&#45;&gt;Node18</title>
<path fill="none" stroke="#191970" d="M1652.2277,-165.6416C1749.6756,-156.7919 1917.2451,-139.446 2059.5,-114 2069.7413,-112.1681 2080.5355,-109.9038 2091.0142,-107.5239"/>
<polygon fill="#191970" stroke="#191970" points="1651.7952,-162.1663 1642.1495,-166.5492 1652.4232,-169.138 1651.7952,-162.1663"/>
</g>
<!-- Node19 -->
<g id="node19" class="node">
<title>Node19</title>
<g id="a_node19"><a xlink:href="../../da/d4a/SmearBeAST__0__1_8cxx.html" target="_top" xlink:title="eicsmeardetectors/blob\l/master/SmearBeAST_0_1.cxx">
<polygon fill="none" stroke="#000000" points="2256,-75.5 2256,-107.5 2425,-107.5 2425,-75.5 2256,-75.5"/>
<text text-anchor="start" x="2264" y="-94.5" font-family="FreeSans" font-size="10.00" fill="#000000">eicsmeardetectors/blob</text>
<text text-anchor="middle" x="2340.5" y="-82.5" font-family="FreeSans" font-size="10.00" fill="#000000">/master/SmearBeAST_0_1.cxx</text>
</a>
</g>
</g>
<!-- Node1&#45;&gt;Node19 -->
<g id="edge18" class="edge">
<title>Node1&#45;&gt;Node19</title>
<path fill="none" stroke="#191970" d="M1652.1865,-169.4296C1779.9155,-163.7336 2034.3792,-148.7839 2247.5,-114 2258.0746,-112.2741 2269.2243,-109.9896 2279.9879,-107.5375"/>
<polygon fill="#191970" stroke="#191970" points="1651.9285,-165.9374 1642.0915,-169.8722 1652.2352,-172.9307 1651.9285,-165.9374"/>
</g>
<!-- Node20 -->
<g id="node20" class="node">
<title>Node20</title>
<g id="a_node20"><a xlink:href="../../d2/dd3/SmearePHENIX__0__0_8cxx.html" target="_top" xlink:title="eicsmeardetectors/blob\l/master/SmearePHENIX_0_0.cxx">
<polygon fill="none" stroke="#000000" points="2443,-75.5 2443,-107.5 2622,-107.5 2622,-75.5 2443,-75.5"/>
<text text-anchor="start" x="2451" y="-94.5" font-family="FreeSans" font-size="10.00" fill="#000000">eicsmeardetectors/blob</text>
<text text-anchor="middle" x="2532.5" y="-82.5" font-family="FreeSans" font-size="10.00" fill="#000000">/master/SmearePHENIX_0_0.cxx</text>
</a>
</g>
</g>
<!-- Node1&#45;&gt;Node20 -->
<g id="edge19" class="edge">
<title>Node1&#45;&gt;Node20</title>
<path fill="none" stroke="#191970" d="M1652.3371,-171.2597C1806.2841,-167.9759 2149.1737,-156.1436 2434.5,-114 2445.8977,-112.3165 2457.9322,-110.0056 2469.5177,-107.5026"/>
<polygon fill="#191970" stroke="#191970" points="1651.9532,-167.7668 1642.0277,-171.4728 1652.0979,-174.7653 1651.9532,-167.7668"/>
</g>
<!-- Node21 -->
<g id="node21" class="node">
<title>Node21</title>
<g id="a_node21"><a xlink:href="../../d6/da3/SmearHandBook__1__2_8cxx.html" target="_top" xlink:title="eicsmeardetectors/blob\l/master/SmearHandBook\l_1_2.cxx">
<polygon fill="none" stroke="#000000" points="2640,-69.5 2640,-113.5 2785,-113.5 2785,-69.5 2640,-69.5"/>
<text text-anchor="start" x="2648" y="-100.5" font-family="FreeSans" font-size="10.00" fill="#000000">eicsmeardetectors/blob</text>
<text text-anchor="start" x="2648" y="-88.5" font-family="FreeSans" font-size="10.00" fill="#000000">/master/SmearHandBook</text>
<text text-anchor="middle" x="2712.5" y="-76.5" font-family="FreeSans" font-size="10.00" fill="#000000">_1_2.cxx</text>
</a>
</g>
</g>
<!-- Node1&#45;&gt;Node21 -->
<g id="edge20" class="edge">
<title>Node1&#45;&gt;Node21</title>
<path fill="none" stroke="#191970" d="M1652.3367,-170.2732C1867.1229,-164.063 2443.3307,-144.9488 2631.5,-114 2634.2363,-113.55 2637.0126,-113.0428 2639.8079,-112.4894"/>
<polygon fill="#191970" stroke="#191970" points="1651.9733,-166.7821 1642.078,-170.5679 1652.1744,-173.7792 1651.9733,-166.7821"/>
</g>
<!-- Node22 -->
<g id="node22" class="node">
<title>Node22</title>
<g id="a_node22"><a xlink:href="../../dd/d18/SmearPerfectDetector_8cxx.html" target="_top" xlink:title="eicsmeardetectors/blob\l/master/SmearPerfectDetector.cxx">
<polygon fill="none" stroke="#000000" points="2803,-75.5 2803,-107.5 2994,-107.5 2994,-75.5 2803,-75.5"/>
<text text-anchor="start" x="2811" y="-94.5" font-family="FreeSans" font-size="10.00" fill="#000000">eicsmeardetectors/blob</text>
<text text-anchor="middle" x="2898.5" y="-82.5" font-family="FreeSans" font-size="10.00" fill="#000000">/master/SmearPerfectDetector.cxx</text>
</a>
</g>
</g>
<!-- Node1&#45;&gt;Node22 -->
<g id="edge21" class="edge">
<title>Node1&#45;&gt;Node22</title>
<path fill="none" stroke="#191970" d="M1652.5586,-170.3492C1889.6396,-163.854 2572.7541,-143.083 2794.5,-114 2806.772,-112.3905 2819.744,-110.0823 2832.2091,-107.5513"/>
<polygon fill="#191970" stroke="#191970" points="1652.1846,-166.858 1642.2838,-170.6294 1652.3755,-173.8554 1652.1846,-166.858"/>
</g>
<!-- Node23 -->
<g id="node23" class="node">
<title>Node23</title>
<g id="a_node23"><a xlink:href="../../d2/db1/SmearZEUS__0__0_8cxx.html" target="_top" xlink:title="eicsmeardetectors/blob\l/master/SmearZEUS_0_0.cxx">
<polygon fill="none" stroke="#000000" points="3012,-75.5 3012,-107.5 3175,-107.5 3175,-75.5 3012,-75.5"/>
<text text-anchor="start" x="3020" y="-94.5" font-family="FreeSans" font-size="10.00" fill="#000000">eicsmeardetectors/blob</text>
<text text-anchor="middle" x="3093.5" y="-82.5" font-family="FreeSans" font-size="10.00" fill="#000000">/master/SmearZEUS_0_0.cxx</text>
</a>
</g>
</g>
<!-- Node1&#45;&gt;Node23 -->
<g id="edge22" class="edge">
<title>Node1&#45;&gt;Node23</title>
<path fill="none" stroke="#191970" d="M1652.6611,-171.3503C1916.4314,-167.3127 2739.9263,-151.9204 3003.5,-114 3014.3404,-112.4404 3025.7719,-110.1218 3036.7157,-107.5575"/>
<polygon fill="#191970" stroke="#191970" points="1652.3375,-167.8547 1642.3918,-171.5061 1652.4438,-174.8539 1652.3375,-167.8547"/>
</g>
<!-- Node5 -->
<g id="node5" class="node">
<title>Node5</title>
<g id="a_node5"><a xlink:href="../../d9/d66/Bremsstrahlung_8cxx.html" target="_top" xlink:title="eic&#45;smear/blob/master\l/src/smear/Bremsstrahlung.cxx">
<polygon fill="none" stroke="#000000" points="338,-.5 338,-32.5 513,-32.5 513,-.5 338,-.5"/>
<text text-anchor="start" x="346" y="-19.5" font-family="FreeSans" font-size="10.00" fill="#000000">eic&#45;smear/blob/master</text>
<text text-anchor="middle" x="425.5" y="-7.5" font-family="FreeSans" font-size="10.00" fill="#000000">/src/smear/Bremsstrahlung.cxx</text>
</a>
</g>
</g>
<!-- Node4&#45;&gt;Node5 -->
<g id="edge4" class="edge">
<title>Node4&#45;&gt;Node5</title>
<path fill="none" stroke="#191970" d="M430.0691,-59.335C429.0889,-50.1462 428.0623,-40.5211 427.231,-32.7277"/>
<polygon fill="#191970" stroke="#191970" points="426.602,-59.8308 431.143,-69.4032 433.5625,-59.0883 426.602,-59.8308"/>
</g>
<!-- Node7 -->
<g id="node7" class="node">
<title>Node7</title>
<g id="a_node7"><a xlink:href="../../d6/d3c/ParticleID_8cxx.html" target="_top" xlink:title="eic&#45;smear/blob/master\l/src/smear/ParticleID.cxx">
<polygon fill="none" stroke="#000000" points="531.5,-.5 531.5,-32.5 673.5,-32.5 673.5,-.5 531.5,-.5"/>
<text text-anchor="start" x="539.5" y="-19.5" font-family="FreeSans" font-size="10.00" fill="#000000">eic&#45;smear/blob/master</text>
<text text-anchor="middle" x="602.5" y="-7.5" font-family="FreeSans" font-size="10.00" fill="#000000">/src/smear/ParticleID.cxx</text>
</a>
</g>
</g>
<!-- Node6&#45;&gt;Node7 -->
<g id="edge6" class="edge">
<title>Node6&#45;&gt;Node7</title>
<path fill="none" stroke="#191970" d="M597.9309,-59.335C598.9111,-50.1462 599.9377,-40.5211 600.769,-32.7277"/>
<polygon fill="#191970" stroke="#191970" points="594.4375,-59.0883 596.857,-69.4032 601.398,-59.8308 594.4375,-59.0883"/>
</g>
<!-- Node16 -->
<g id="node16" class="node">
<title>Node16</title>
<g id="a_node16"><a xlink:href="../../d0/d1d/particlegun_8cxx.html" target="_top" xlink:title="eic&#45;smear/blob/master\l/tests/particlegun.cxx">
<polygon fill="none" stroke="#000000" points="1838,-.5 1838,-32.5 1969,-32.5 1969,-.5 1838,-.5"/>
<text text-anchor="start" x="1846" y="-19.5" font-family="FreeSans" font-size="10.00" fill="#000000">eic&#45;smear/blob/master</text>
<text text-anchor="middle" x="1903.5" y="-7.5" font-family="FreeSans" font-size="10.00" fill="#000000">/tests/particlegun.cxx</text>
</a>
</g>
</g>
<!-- Node15&#45;&gt;Node16 -->
<g id="edge15" class="edge">
<title>Node15&#45;&gt;Node16</title>
<path fill="none" stroke="#191970" d="M1955.0396,-68.0396C1943.5711,-56.5711 1930.0551,-43.0551 1919.7421,-32.7421"/>
<polygon fill="#191970" stroke="#191970" points="1952.6801,-70.6299 1962.2261,-75.2261 1957.6299,-65.6801 1952.6801,-70.6299"/>
</g>
<!-- Node17 -->
<g id="node17" class="node">
<title>Node17</title>
<g id="a_node17"><a xlink:href="../../d4/d3f/qaplots_8cxx.html" target="_top" xlink:title="eic&#45;smear/blob/master\l/tests/qaplots.cxx">
<polygon fill="none" stroke="#000000" points="1987,-.5 1987,-32.5 2118,-32.5 2118,-.5 1987,-.5"/>
<text text-anchor="start" x="1995" y="-19.5" font-family="FreeSans" font-size="10.00" fill="#000000">eic&#45;smear/blob/master</text>
<text text-anchor="middle" x="2052.5" y="-7.5" font-family="FreeSans" font-size="10.00" fill="#000000">/tests/qaplots.cxx</text>
</a>
</g>
</g>
<!-- Node15&#45;&gt;Node17 -->
<g id="edge16" class="edge">
<title>Node15&#45;&gt;Node17</title>
<path fill="none" stroke="#191970" d="M2001.6476,-68.0396C2012.9632,-56.5711 2026.299,-43.0551 2036.4744,-32.7421"/>
<polygon fill="#191970" stroke="#191970" points="1999.0889,-65.6495 1994.5569,-75.2261 2004.0718,-70.5659 1999.0889,-65.6495"/>
</g>
</g>
</svg>
