<?xml version="1.0" encoding="UTF-8" standalone="no"?>
<!DOCTYPE svg PUBLIC "-//W3C//DTD SVG 1.1//EN"
 "http://www.w3.org/Graphics/SVG/1.1/DTD/svg11.dtd">
<!-- Generated by graphviz version 2.40.1 (20161225.0304)
 -->
<!-- Title: DumpObject Pages: 1 -->
<svg width="325pt" height="1106pt"
 viewBox="0.00 0.00 325.00 1106.00" xmlns="http://www.w3.org/2000/svg" xmlns:xlink="http://www.w3.org/1999/xlink">
<g id="graph0" class="graph" transform="scale(1 1) rotate(0) translate(4 1102)">
<title>DumpObject</title>
<!-- Node1 -->
<g id="node1" class="node">
<title>Node1</title>
<polygon fill="#bfbfbf" stroke="#000000" points="0,-535.5 0,-555.5 80,-555.5 80,-535.5 0,-535.5"/>
<text text-anchor="middle" x="40" y="-542.5" font-family="FreeSans" font-size="10.00" fill="#000000">DumpObject</text>
</g>
<!-- Node2 -->
<g id="node2" class="node">
<title>Node2</title>
<g id="a_node2"><a xlink:href="../../d2/d03/classDumpBbcVertexMap.html" target="_top" xlink:title="DumpBbcVertexMap">
<polygon fill="none" stroke="#000000" points="157,-1077.5 157,-1097.5 276,-1097.5 276,-1077.5 157,-1077.5"/>
<text text-anchor="middle" x="216.5" y="-1084.5" font-family="FreeSans" font-size="10.00" fill="#000000">DumpBbcVertexMap</text>
</a>
</g>
</g>
<!-- Node1&#45;&gt;Node2 -->
<g id="edge1" class="edge">
<title>Node1&#45;&gt;Node2</title>
<path fill="none" stroke="#191970" d="M41.5599,-565.7376C48.8115,-657.4644 80.3851,-1031.3367 116,-1068.5 126.689,-1079.6537 141.7199,-1085.4207 156.9071,-1088.1742"/>
<polygon fill="#191970" stroke="#191970" points="45.0335,-565.2617 40.7645,-555.565 38.0548,-565.8074 45.0335,-565.2617"/>
</g>
<!-- Node3 -->
<g id="node3" class="node">
<title>Node3</title>
<g id="a_node3"><a xlink:href="../../d5/dc8/classDumpCaloTriggerInfo.html" target="_top" xlink:title="DumpCaloTriggerInfo">
<polygon fill="none" stroke="#000000" points="155,-1038.5 155,-1058.5 278,-1058.5 278,-1038.5 155,-1038.5"/>
<text text-anchor="middle" x="216.5" y="-1045.5" font-family="FreeSans" font-size="10.00" fill="#000000">DumpCaloTriggerInfo</text>
</a>
</g>
</g>
<!-- Node1&#45;&gt;Node3 -->
<g id="edge2" class="edge">
<title>Node1&#45;&gt;Node3</title>
<path fill="none" stroke="#191970" d="M40.1951,-565.7285C41.4255,-648.7116 50.4103,-961.8384 116,-1029.5 126.2583,-1040.0823 140.429,-1045.7999 154.8969,-1048.6948"/>
<polygon fill="#191970" stroke="#191970" points="43.6933,-565.5514 40.0679,-555.5962 36.6938,-565.6393 43.6933,-565.5514"/>
</g>
<!-- Node4 -->
<g id="node4" class="node">
<title>Node4</title>
<g id="a_node4"><a xlink:href="../../dc/d8e/classDumpGlobalVertexMap.html" target="_top" xlink:title="DumpGlobalVertexMap">
<polygon fill="none" stroke="#000000" points="150,-999.5 150,-1019.5 283,-1019.5 283,-999.5 150,-999.5"/>
<text text-anchor="middle" x="216.5" y="-1006.5" font-family="FreeSans" font-size="10.00" fill="#000000">DumpGlobalVertexMap</text>
</a>
</g>
</g>
<!-- Node1&#45;&gt;Node4 -->
<g id="edge3" class="edge">
<title>Node1&#45;&gt;Node4</title>
<path fill="none" stroke="#191970" d="M40.496,-565.5924C42.8591,-644.1151 55.5327,-928.9531 116,-990.5 125.0845,-999.7467 137.16,-1005.2648 149.7821,-1008.429"/>
<polygon fill="#191970" stroke="#191970" points="43.9937,-565.4543 40.2178,-555.5552 36.9963,-565.6484 43.9937,-565.4543"/>
</g>
<!-- Node5 -->
<g id="node5" class="node">
<title>Node5</title>
<g id="a_node5"><a xlink:href="../../d4/df6/classDumpJetMap.html" target="_top" xlink:title="DumpJetMap">
<polygon fill="none" stroke="#000000" points="176,-960.5 176,-980.5 257,-980.5 257,-960.5 176,-960.5"/>
<text text-anchor="middle" x="216.5" y="-967.5" font-family="FreeSans" font-size="10.00" fill="#000000">DumpJetMap</text>
</a>
</g>
</g>
<!-- Node1&#45;&gt;Node5 -->
<g id="edge4" class="edge">
<title>Node1&#45;&gt;Node5</title>
<path fill="none" stroke="#191970" d="M40.8841,-566.1833C44.5173,-641.024 60.8183,-896.2189 116,-951.5 131.4301,-966.9579 155.2333,-971.9478 175.8015,-972.9605"/>
<polygon fill="#191970" stroke="#191970" points="44.3614,-565.6073 40.4057,-555.7786 37.3688,-565.9288 44.3614,-565.6073"/>
</g>
<!-- Node6 -->
<g id="node6" class="node">
<title>Node6</title>
<g id="a_node6"><a xlink:href="../../de/d8b/classDumpPdbParameterMap.html" target="_top" xlink:title="DumpPdbParameterMap">
<polygon fill="none" stroke="#000000" points="147,-921.5 147,-941.5 286,-941.5 286,-921.5 147,-921.5"/>
<text text-anchor="middle" x="216.5" y="-928.5" font-family="FreeSans" font-size="10.00" fill="#000000">DumpPdbParameterMap</text>
</a>
</g>
</g>
<!-- Node1&#45;&gt;Node6 -->
<g id="edge5" class="edge">
<title>Node1&#45;&gt;Node6</title>
<path fill="none" stroke="#191970" d="M41.3173,-565.9949C46.2365,-635.884 65.8861,-863.2481 116,-912.5 124.4852,-920.8393 135.4129,-926.1149 146.9233,-929.3593"/>
<polygon fill="#191970" stroke="#191970" points="44.7977,-565.5854 40.63,-555.8448 37.8137,-566.0584 44.7977,-565.5854"/>
</g>
<!-- Node7 -->
<g id="node7" class="node">
<title>Node7</title>
<g id="a_node7"><a xlink:href="../../d0/d7c/classDumpPdbParameterMapContainer.html" target="_top" xlink:title="DumpPdbParameterMapContainer">
<polygon fill="none" stroke="#000000" points="122,-882.5 122,-902.5 311,-902.5 311,-882.5 122,-882.5"/>
<text text-anchor="middle" x="216.5" y="-889.5" font-family="FreeSans" font-size="10.00" fill="#000000">DumpPdbParameterMapContainer</text>
</a>
</g>
</g>
<!-- Node1&#45;&gt;Node7 -->
<g id="edge6" class="edge">
<title>Node1&#45;&gt;Node7</title>
<path fill="none" stroke="#191970" d="M41.8514,-565.8899C48.1571,-630.6992 70.9497,-830.253 116,-873.5 119.5868,-876.9432 123.5912,-879.8605 127.879,-882.3257"/>
<polygon fill="#191970" stroke="#191970" points="45.3173,-565.3631 40.8926,-555.7364 38.3483,-566.0212 45.3173,-565.3631"/>
</g>
<!-- Node8 -->
<g id="node8" class="node">
<title>Node8</title>
<g id="a_node8"><a xlink:href="../../d4/d01/classDumpPHG4BlockCellGeomContainer.html" target="_top" xlink:title="DumpPHG4BlockCellGeomContainer">
<polygon fill="none" stroke="#000000" points="116,-843.5 116,-863.5 317,-863.5 317,-843.5 116,-843.5"/>
<text text-anchor="middle" x="216.5" y="-850.5" font-family="FreeSans" font-size="10.00" fill="#000000">DumpPHG4BlockCellGeomContainer</text>
</a>
</g>
</g>
<!-- Node1&#45;&gt;Node8 -->
<g id="edge7" class="edge">
<title>Node1&#45;&gt;Node8</title>
<path fill="none" stroke="#191970" d="M42.5182,-565.7692C50.317,-625.2035 75.9793,-797.1985 116,-834.5 119.767,-838.011 123.9702,-840.9704 128.4625,-843.4581"/>
<polygon fill="#191970" stroke="#191970" points="45.9767,-565.2205 41.2339,-555.7465 39.0334,-566.1103 45.9767,-565.2205"/>
</g>
<!-- Node9 -->
<g id="node9" class="node">
<title>Node9</title>
<g id="a_node9"><a xlink:href="../../dc/d4d/classDumpPHG4BlockGeomContainer.html" target="_top" xlink:title="DumpPHG4BlockGeomContainer">
<polygon fill="none" stroke="#000000" points="125.5,-804.5 125.5,-824.5 307.5,-824.5 307.5,-804.5 125.5,-804.5"/>
<text text-anchor="middle" x="216.5" y="-811.5" font-family="FreeSans" font-size="10.00" fill="#000000">DumpPHG4BlockGeomContainer</text>
</a>
</g>
</g>
<!-- Node1&#45;&gt;Node9 -->
<g id="edge8" class="edge">
<title>Node1&#45;&gt;Node9</title>
<path fill="none" stroke="#191970" d="M43.4108,-565.8235C52.8609,-619.6819 81.0088,-764.1061 116,-795.5 119.833,-798.9389 124.0872,-801.8425 128.6181,-804.2879"/>
<polygon fill="#191970" stroke="#191970" points="46.8275,-565.0402 41.6823,-555.7786 39.9289,-566.2273 46.8275,-565.0402"/>
</g>
<!-- Node10 -->
<g id="node10" class="node">
<title>Node10</title>
<g id="a_node10"><a xlink:href="../../d3/d0b/classDumpPHG4CellContainer.html" target="_top" xlink:title="DumpPHG4CellContainer">
<polygon fill="none" stroke="#000000" points="144.5,-765.5 144.5,-785.5 288.5,-785.5 288.5,-765.5 144.5,-765.5"/>
<text text-anchor="middle" x="216.5" y="-772.5" font-family="FreeSans" font-size="10.00" fill="#000000">DumpPHG4CellContainer</text>
</a>
</g>
</g>
<!-- Node1&#45;&gt;Node10 -->
<g id="edge9" class="edge">
<title>Node1&#45;&gt;Node10</title>
<path fill="none" stroke="#191970" d="M40.9512,-566.0636C44.0971,-608.6694 57.6464,-706.7518 116,-756.5 124.1753,-763.4697 134.0995,-768.2063 144.4894,-771.376"/>
<polygon fill="#191970" stroke="#191970" points="44.4288,-565.5902 40.3218,-555.8238 37.442,-566.0197 44.4288,-565.5902"/>
</g>
<!-- Node11 -->
<g id="node11" class="node">
<title>Node11</title>
<g id="a_node11"><a xlink:href="../../d7/d98/classDumpPHG4CylinderCellContainer.html" target="_top" xlink:title="DumpPHG4CylinderCellContainer">
<polygon fill="none" stroke="#000000" points="123.5,-726.5 123.5,-746.5 309.5,-746.5 309.5,-726.5 123.5,-726.5"/>
<text text-anchor="middle" x="216.5" y="-733.5" font-family="FreeSans" font-size="10.00" fill="#000000">DumpPHG4CylinderCellContainer</text>
</a>
</g>
</g>
<!-- Node1&#45;&gt;Node11 -->
<g id="edge10" class="edge">
<title>Node1&#45;&gt;Node11</title>
<path fill="none" stroke="#191970" d="M42.743,-565.5134C48.8487,-601.8968 67.1,-678.6958 116,-717.5 120.4511,-721.0321 125.3597,-723.9781 130.5419,-726.4292"/>
<polygon fill="#191970" stroke="#191970" points="46.1987,-564.9572 41.2176,-555.6063 39.2802,-566.0225 46.1987,-564.9572"/>
</g>
<!-- Node12 -->
<g id="node12" class="node">
<title>Node12</title>
<g id="a_node12"><a xlink:href="../../da/dd3/classDumpPHG4CylinderCellGeomContainer.html" target="_top" xlink:title="DumpPHG4CylinderCellGeom\lContainer">
<polygon fill="none" stroke="#000000" points="133.5,-675.5 133.5,-707.5 299.5,-707.5 299.5,-675.5 133.5,-675.5"/>
<text text-anchor="start" x="141.5" y="-694.5" font-family="FreeSans" font-size="10.00" fill="#000000">DumpPHG4CylinderCellGeom</text>
<text text-anchor="middle" x="216.5" y="-682.5" font-family="FreeSans" font-size="10.00" fill="#000000">Container</text>
</a>
</g>
</g>
<!-- Node1&#45;&gt;Node12 -->
<g id="edge11" class="edge">
<title>Node1&#45;&gt;Node12</title>
<path fill="none" stroke="#191970" d="M47.0066,-565.3934C57.6077,-592.5178 80.3511,-640.6773 116,-666.5 121.3147,-670.3498 127.157,-673.61 133.2682,-676.3705"/>
<polygon fill="#191970" stroke="#191970" points="50.203,-563.9481 43.4249,-555.805 43.6455,-566.3976 50.203,-563.9481"/>
</g>
<!-- Node13 -->
<g id="node13" class="node">
<title>Node13</title>
<g id="a_node13"><a xlink:href="../../df/d2e/classDumpPHG4CylinderGeomContainer.html" target="_top" xlink:title="DumpPHG4CylinderGeomContainer">
<polygon fill="none" stroke="#000000" points="118,-636.5 118,-656.5 315,-656.5 315,-636.5 118,-636.5"/>
<text text-anchor="middle" x="216.5" y="-643.5" font-family="FreeSans" font-size="10.00" fill="#000000">DumpPHG4CylinderGeomContainer</text>
</a>
</g>
</g>
<!-- Node1&#45;&gt;Node13 -->
<g id="edge12" class="edge">
<title>Node1&#45;&gt;Node13</title>
<path fill="none" stroke="#191970" d="M51.9815,-564.2447C65.2367,-583.3387 88.4103,-612.2444 116,-627.5 122.5266,-631.1089 129.6168,-634.045 136.91,-636.432"/>
<polygon fill="#191970" stroke="#191970" points="54.7707,-562.1198 46.2952,-555.7623 48.9563,-566.0176 54.7707,-562.1198"/>
</g>
<!-- Node14 -->
<g id="node14" class="node">
<title>Node14</title>
<g id="a_node14"><a xlink:href="../../de/dbe/classDumpPHG4HitContainer.html" target="_top" xlink:title="DumpPHG4HitContainer">
<polygon fill="none" stroke="#000000" points="147,-597.5 147,-617.5 286,-617.5 286,-597.5 147,-597.5"/>
<text text-anchor="middle" x="216.5" y="-604.5" font-family="FreeSans" font-size="10.00" fill="#000000">DumpPHG4HitContainer</text>
</a>
</g>
</g>
<!-- Node1&#45;&gt;Node14 -->
<g id="edge13" class="edge">
<title>Node1&#45;&gt;Node14</title>
<path fill="none" stroke="#191970" d="M62.8268,-561.0463C77.4406,-570.3195 97.1369,-581.5959 116,-588.5 125.8383,-592.1009 136.48,-595.0513 147.032,-597.4596"/>
<polygon fill="#191970" stroke="#191970" points="64.7283,-558.1078 54.4374,-555.5883 60.9109,-563.9754 64.7283,-558.1078"/>
</g>
<!-- Node15 -->
<g id="node15" class="node">
<title>Node15</title>
<g id="a_node15"><a xlink:href="../../de/d3a/classDumpPHG4InEvent.html" target="_top" xlink:title="DumpPHG4InEvent">
<polygon fill="none" stroke="#000000" points="159.5,-558.5 159.5,-578.5 273.5,-578.5 273.5,-558.5 159.5,-558.5"/>
<text text-anchor="middle" x="216.5" y="-565.5" font-family="FreeSans" font-size="10.00" fill="#000000">DumpPHG4InEvent</text>
</a>
</g>
</g>
<!-- Node1&#45;&gt;Node15 -->
<g id="edge14" class="edge">
<title>Node1&#45;&gt;Node15</title>
<path fill="none" stroke="#191970" d="M89.9838,-552.0135C111.5465,-554.8233 136.8891,-558.1258 159.2069,-561.034"/>
<polygon fill="#191970" stroke="#191970" points="90.419,-548.5407 80.0506,-550.7191 89.5144,-555.482 90.419,-548.5407"/>
</g>
<!-- Node16 -->
<g id="node16" class="node">
<title>Node16</title>
<g id="a_node16"><a xlink:href="../../de/d47/classDumpPHG4ScintillatorSlatContainer.html" target="_top" xlink:title="DumpPHG4ScintillatorSlat\lContainer">
<polygon fill="none" stroke="#000000" points="142,-507.5 142,-539.5 291,-539.5 291,-507.5 142,-507.5"/>
<text text-anchor="start" x="150" y="-526.5" font-family="FreeSans" font-size="10.00" fill="#000000">DumpPHG4ScintillatorSlat</text>
<text text-anchor="middle" x="216.5" y="-514.5" font-family="FreeSans" font-size="10.00" fill="#000000">Container</text>
</a>
</g>
</g>
<!-- Node1&#45;&gt;Node16 -->
<g id="edge15" class="edge">
<title>Node1&#45;&gt;Node16</title>
<path fill="none" stroke="#191970" d="M90.2768,-539.2332C106.3373,-537.2313 124.4712,-534.971 141.88,-532.8011"/>
<polygon fill="#191970" stroke="#191970" points="89.5409,-535.7978 80.0506,-540.5079 90.4067,-542.744 89.5409,-535.7978"/>
</g>
<!-- Node17 -->
<g id="node17" class="node">
<title>Node17</title>
<g id="a_node17"><a xlink:href="../../d3/d80/classDumpPHG4TruthInfoContainer.html" target="_top" xlink:title="DumpPHG4TruthInfoContainer">
<polygon fill="none" stroke="#000000" points="131.5,-468.5 131.5,-488.5 301.5,-488.5 301.5,-468.5 131.5,-468.5"/>
<text text-anchor="middle" x="216.5" y="-475.5" font-family="FreeSans" font-size="10.00" fill="#000000">DumpPHG4TruthInfoContainer</text>
</a>
</g>
</g>
<!-- Node1&#45;&gt;Node17 -->
<g id="edge16" class="edge">
<title>Node1&#45;&gt;Node17</title>
<path fill="none" stroke="#191970" d="M61.295,-529.4413C75.9559,-519.1327 96.2762,-506.2671 116,-498.5 126.3455,-494.426 137.6298,-491.1491 148.7778,-488.523"/>
<polygon fill="#191970" stroke="#191970" points="59.0145,-526.7709 52.9538,-535.4611 63.1109,-532.4471 59.0145,-526.7709"/>
</g>
<!-- Node18 -->
<g id="node18" class="node">
<title>Node18</title>
<g id="a_node18"><a xlink:href="../../d9/d80/classDumpRawClusterContainer.html" target="_top" xlink:title="DumpRawClusterContainer">
<polygon fill="none" stroke="#000000" points="140,-429.5 140,-449.5 293,-449.5 293,-429.5 140,-429.5"/>
<text text-anchor="middle" x="216.5" y="-436.5" font-family="FreeSans" font-size="10.00" fill="#000000">DumpRawClusterContainer</text>
</a>
</g>
</g>
<!-- Node1&#45;&gt;Node18 -->
<g id="edge17" class="edge">
<title>Node1&#45;&gt;Node18</title>
<path fill="none" stroke="#191970" d="M51.2046,-526.7954C64.1966,-506.8327 87.5171,-475.8742 116,-459.5 123.4031,-455.2441 131.5632,-451.8811 139.9363,-449.2256"/>
<polygon fill="#191970" stroke="#191970" points="48.1857,-525.0215 45.8296,-535.351 54.113,-528.7453 48.1857,-525.0215"/>
</g>
<!-- Node19 -->
<g id="node19" class="node">
<title>Node19</title>
<g id="a_node19"><a xlink:href="../../d1/d2e/classDumpRawTowerContainer.html" target="_top" xlink:title="DumpRawTowerContainer">
<polygon fill="none" stroke="#000000" points="143,-390.5 143,-410.5 290,-410.5 290,-390.5 143,-390.5"/>
<text text-anchor="middle" x="216.5" y="-397.5" font-family="FreeSans" font-size="10.00" fill="#000000">DumpRawTowerContainer</text>
</a>
</g>
</g>
<!-- Node1&#45;&gt;Node19 -->
<g id="edge18" class="edge">
<title>Node1&#45;&gt;Node19</title>
<path fill="none" stroke="#191970" d="M46.2128,-525.9218C56.1848,-497.8607 78.5408,-446.7076 116,-420.5 124.0172,-414.8909 133.2284,-410.7689 142.7504,-407.7537"/>
<polygon fill="#191970" stroke="#191970" points="42.8801,-524.8514 42.9916,-535.4457 49.5111,-527.0942 42.8801,-524.8514"/>
</g>
<!-- Node20 -->
<g id="node20" class="node">
<title>Node20</title>
<g id="a_node20"><a xlink:href="../../d8/d29/classDumpRawTowerGeom.html" target="_top" xlink:title="DumpRawTowerGeom">
<polygon fill="none" stroke="#000000" points="153,-351.5 153,-371.5 280,-371.5 280,-351.5 153,-351.5"/>
<text text-anchor="middle" x="216.5" y="-358.5" font-family="FreeSans" font-size="10.00" fill="#000000">DumpRawTowerGeom</text>
</a>
</g>
</g>
<!-- Node1&#45;&gt;Node20 -->
<g id="edge19" class="edge">
<title>Node1&#45;&gt;Node20</title>
<path fill="none" stroke="#191970" d="M43.2607,-525.4895C50.0772,-490.4612 69.2668,-418.2697 116,-381.5 126.5559,-373.1946 139.6268,-368.0486 152.8112,-364.9207"/>
<polygon fill="#191970" stroke="#191970" points="39.7922,-525.0023 41.4631,-535.4645 46.6813,-526.2438 39.7922,-525.0023"/>
</g>
<!-- Node21 -->
<g id="node21" class="node">
<title>Node21</title>
<g id="a_node21"><a xlink:href="../../dc/df3/classDumpRawTowerGeomContainer.html" target="_top" xlink:title="DumpRawTowerGeomContainer">
<polygon fill="none" stroke="#000000" points="128,-312.5 128,-332.5 305,-332.5 305,-312.5 128,-312.5"/>
<text text-anchor="middle" x="216.5" y="-319.5" font-family="FreeSans" font-size="10.00" fill="#000000">DumpRawTowerGeomContainer</text>
</a>
</g>
</g>
<!-- Node1&#45;&gt;Node21 -->
<g id="edge20" class="edge">
<title>Node1&#45;&gt;Node21</title>
<path fill="none" stroke="#191970" d="M41.329,-524.8987C45.1655,-483.5142 59.9127,-390.1749 116,-342.5 120.6086,-338.5826 125.7659,-335.3529 131.2446,-332.6975"/>
<polygon fill="#191970" stroke="#191970" points="37.8206,-524.8649 40.5109,-535.1124 44.7982,-525.4238 37.8206,-524.8649"/>
</g>
<!-- Node22 -->
<g id="node22" class="node">
<title>Node22</title>
<g id="a_node22"><a xlink:href="../../d8/d22/classDumpRunHeader.html" target="_top" xlink:title="DumpRunHeader">
<polygon fill="none" stroke="#000000" points="164.5,-273.5 164.5,-293.5 268.5,-293.5 268.5,-273.5 164.5,-273.5"/>
<text text-anchor="middle" x="216.5" y="-280.5" font-family="FreeSans" font-size="10.00" fill="#000000">DumpRunHeader</text>
</a>
</g>
</g>
<!-- Node1&#45;&gt;Node22 -->
<g id="edge21" class="edge">
<title>Node1&#45;&gt;Node22</title>
<path fill="none" stroke="#191970" d="M43.6505,-525.1537C53.503,-472.5167 82.186,-333.8503 116,-303.5 129.1069,-291.7357 147.1063,-286.0793 164.2541,-283.5662"/>
<polygon fill="#191970" stroke="#191970" points="40.1559,-524.8063 41.7913,-535.2742 47.0406,-526.0712 40.1559,-524.8063"/>
</g>
<!-- Node23 -->
<g id="node23" class="node">
<title>Node23</title>
<g id="a_node23"><a xlink:href="../../d1/d8e/classDumpSvtxTrackMap.html" target="_top" xlink:title="DumpSvtxTrackMap">
<polygon fill="none" stroke="#000000" points="158,-234.5 158,-254.5 275,-254.5 275,-234.5 158,-234.5"/>
<text text-anchor="middle" x="216.5" y="-241.5" font-family="FreeSans" font-size="10.00" fill="#000000">DumpSvtxTrackMap</text>
</a>
</g>
</g>
<!-- Node1&#45;&gt;Node23 -->
<g id="edge22" class="edge">
<title>Node1&#45;&gt;Node23</title>
<path fill="none" stroke="#191970" d="M42.7243,-525.0515C50.9254,-466.6089 77.2293,-300.7307 116,-264.5 127.3733,-253.8718 142.7128,-248.1725 157.9785,-245.2743"/>
<polygon fill="#191970" stroke="#191970" points="39.2186,-524.8544 41.3271,-535.2373 46.1537,-525.8058 39.2186,-524.8544"/>
</g>
<!-- Node24 -->
<g id="node24" class="node">
<title>Node24</title>
<g id="a_node24"><a xlink:href="../../dc/df0/classDumpSvtxVertexMap.html" target="_top" xlink:title="DumpSvtxVertexMap">
<polygon fill="none" stroke="#000000" points="155,-195.5 155,-215.5 278,-215.5 278,-195.5 155,-195.5"/>
<text text-anchor="middle" x="216.5" y="-202.5" font-family="FreeSans" font-size="10.00" fill="#000000">DumpSvtxVertexMap</text>
</a>
</g>
</g>
<!-- Node1&#45;&gt;Node24 -->
<g id="edge23" class="edge">
<title>Node1&#45;&gt;Node24</title>
<path fill="none" stroke="#191970" d="M41.9878,-525.1989C48.6345,-461.5682 72.1755,-267.7432 116,-225.5 126.5029,-215.3761 140.5887,-209.6858 154.8845,-206.6275"/>
<polygon fill="#191970" stroke="#191970" points="38.5014,-524.8886 40.9726,-535.1912 45.4655,-525.5963 38.5014,-524.8886"/>
</g>
<!-- Node25 -->
<g id="node25" class="node">
<title>Node25</title>
<g id="a_node25"><a xlink:href="../../d2/dc3/classDumpSyncObject.html" target="_top" xlink:title="DumpSyncObject">
<polygon fill="none" stroke="#000000" points="164.5,-156.5 164.5,-176.5 268.5,-176.5 268.5,-156.5 164.5,-156.5"/>
<text text-anchor="middle" x="216.5" y="-163.5" font-family="FreeSans" font-size="10.00" fill="#000000">DumpSyncObject</text>
</a>
</g>
</g>
<!-- Node1&#45;&gt;Node25 -->
<g id="edge24" class="edge">
<title>Node1&#45;&gt;Node25</title>
<path fill="none" stroke="#191970" d="M41.4356,-525.0398C46.6874,-456.2239 67.1588,-234.7499 116,-186.5 128.7191,-173.9349 146.9406,-168.153 164.3839,-165.7649"/>
<polygon fill="#191970" stroke="#191970" points="37.9176,-525.1574 40.6744,-535.3872 44.8987,-525.671 37.9176,-525.1574"/>
</g>
<!-- Node26 -->
<g id="node26" class="node">
<title>Node26</title>
<g id="a_node26"><a xlink:href="../../de/d20/classDumpTowerBackground.html" target="_top" xlink:title="DumpTowerBackground">
<polygon fill="none" stroke="#000000" points="148.5,-117.5 148.5,-137.5 284.5,-137.5 284.5,-117.5 148.5,-117.5"/>
<text text-anchor="middle" x="216.5" y="-124.5" font-family="FreeSans" font-size="10.00" fill="#000000">DumpTowerBackground</text>
</a>
</g>
</g>
<!-- Node1&#45;&gt;Node26 -->
<g id="edge25" class="edge">
<title>Node1&#45;&gt;Node26</title>
<path fill="none" stroke="#191970" d="M40.9649,-525.2374C44.8786,-451.9174 62.0302,-201.89 116,-147.5 124.7714,-138.6603 136.2602,-133.1594 148.3244,-129.8324"/>
<polygon fill="#191970" stroke="#191970" points="37.459,-525.2658 40.4468,-535.4306 44.45,-525.6212 37.459,-525.2658"/>
</g>
<!-- Node27 -->
<g id="node27" class="node">
<title>Node27</title>
<g id="a_node27"><a xlink:href="../../dd/d60/classDumpTrkrClusterContainer.html" target="_top" xlink:title="DumpTrkrClusterContainer">
<polygon fill="none" stroke="#000000" points="141,-78.5 141,-98.5 292,-98.5 292,-78.5 141,-78.5"/>
<text text-anchor="middle" x="216.5" y="-85.5" font-family="FreeSans" font-size="10.00" fill="#000000">DumpTrkrClusterContainer</text>
</a>
</g>
</g>
<!-- Node1&#45;&gt;Node27 -->
<g id="edge26" class="edge">
<title>Node1&#45;&gt;Node27</title>
<path fill="none" stroke="#191970" d="M40.6037,-524.7983C43.3253,-446.3715 57.0363,-168.911 116,-108.5 122.8965,-101.4343 131.5262,-96.4922 140.8136,-93.085"/>
<polygon fill="#191970" stroke="#191970" points="37.091,-525.1389 40.2668,-535.2465 44.0873,-525.3646 37.091,-525.1389"/>
</g>
<!-- Node28 -->
<g id="node28" class="node">
<title>Node28</title>
<g id="a_node28"><a xlink:href="../../da/d35/classDumpTrkrHitSetContainer.html" target="_top" xlink:title="DumpTrkrHitSetContainer">
<polygon fill="none" stroke="#000000" points="143.5,-39.5 143.5,-59.5 289.5,-59.5 289.5,-39.5 143.5,-39.5"/>
<text text-anchor="middle" x="216.5" y="-46.5" font-family="FreeSans" font-size="10.00" fill="#000000">DumpTrkrHitSetContainer</text>
</a>
</g>
</g>
<!-- Node1&#45;&gt;Node28 -->
<g id="edge27" class="edge">
<title>Node1&#45;&gt;Node28</title>
<path fill="none" stroke="#191970" d="M40.2751,-525.0891C41.8159,-442.737 51.8406,-136.1524 116,-69.5 123.5259,-61.6817 133.1714,-56.4538 143.4991,-53.0256"/>
<polygon fill="#191970" stroke="#191970" points="36.7742,-525.1166 40.1092,-535.1729 43.7733,-525.2318 36.7742,-525.1166"/>
</g>
<!-- Node29 -->
<g id="node29" class="node">
<title>Node29</title>
<g id="a_node29"><a xlink:href="../../d2/d47/classDumpVariableArray.html" target="_top" xlink:title="DumpVariableArray">
<polygon fill="none" stroke="#000000" points="159,-.5 159,-20.5 274,-20.5 274,-.5 159,-.5"/>
<text text-anchor="middle" x="216.5" y="-7.5" font-family="FreeSans" font-size="10.00" fill="#000000">DumpVariableArray</text>
</a>
</g>
</g>
<!-- Node1&#45;&gt;Node29 -->
<g id="edge28" class="edge">
<title>Node1&#45;&gt;Node29</title>
<path fill="none" stroke="#191970" d="M41.6382,-524.9957C49.1137,-433.7117 81.1285,-67.1573 116,-30.5 127.158,-18.7705 143.0824,-12.8528 158.9746,-10.0972"/>
<polygon fill="#191970" stroke="#191970" points="38.1345,-524.9003 40.8154,-535.1504 45.1117,-525.4658 38.1345,-524.9003"/>
</g>
</g>
</svg>
