<?xml version="1.0" encoding="UTF-8" standalone="no"?>
<!DOCTYPE svg PUBLIC "-//W3C//DTD SVG 1.1//EN"
 "http://www.w3.org/Graphics/SVG/1.1/DTD/svg11.dtd">
<!-- Generated by graphviz version 2.40.1 (20161225.0304)
 -->
<!-- Title: BeastMagnetSubsystem::InitRunSubsystem Pages: 1 -->
<svg width="584pt" height="348pt"
 viewBox="0.00 0.00 584.00 348.00" xmlns="http://www.w3.org/2000/svg" xmlns:xlink="http://www.w3.org/1999/xlink">
<g id="graph0" class="graph" transform="scale(1 1) rotate(0) translate(4 344)">
<title>BeastMagnetSubsystem::InitRunSubsystem</title>
<!-- Node1 -->
<g id="node1" class="node">
<title>Node1</title>
<polygon fill="#bfbfbf" stroke="#000000" points="0,-129.5 0,-161.5 138,-161.5 138,-129.5 0,-129.5"/>
<text text-anchor="start" x="8" y="-148.5" font-family="FreeSans" font-size="10.00" fill="#000000">BeastMagnetSubsystem</text>
<text text-anchor="middle" x="69" y="-136.5" font-family="FreeSans" font-size="10.00" fill="#000000">::InitRunSubsystem</text>
</g>
<!-- Node2 -->
<g id="node2" class="node">
<title>Node2</title>
<g id="a_node2"><a xlink:href="../../d5/dca/classPHCompositeNode.html#a15a0c4804399a9de4267647f05bd1ba4" target="_top" xlink:title="PHCompositeNode::addNode">
<polygon fill="none" stroke="#000000" points="176,-288.5 176,-308.5 338,-308.5 338,-288.5 176,-288.5"/>
<text text-anchor="middle" x="257" y="-295.5" font-family="FreeSans" font-size="10.00" fill="#000000">PHCompositeNode::addNode</text>
</a>
</g>
</g>
<!-- Node1&#45;&gt;Node2 -->
<g id="edge1" class="edge">
<title>Node1&#45;&gt;Node2</title>
<path fill="none" stroke="#191970" d="M76.885,-161.6265C91.7158,-190.1697 126.59,-249.4057 174,-279.5 176.9602,-281.379 180.0844,-283.073 183.3167,-284.6"/>
<polygon fill="#191970" stroke="#191970" points="182.0881,-287.8795 192.6661,-288.4766 184.7692,-281.4133 182.0881,-287.8795"/>
</g>
<!-- Node6 -->
<g id="node6" class="node">
<title>Node6</title>
<g id="a_node6"><a xlink:href="../../d5/d29/classPHG4DetectorSubsystem.html#a3a654db38f49eafe08c5fb725f63c959" target="_top" xlink:title="PHG4DetectorSubsystem\l::CheckOverlap">
<polygon fill="none" stroke="#000000" points="185,-237.5 185,-269.5 329,-269.5 329,-237.5 185,-237.5"/>
<text text-anchor="start" x="193" y="-256.5" font-family="FreeSans" font-size="10.00" fill="#000000">PHG4DetectorSubsystem</text>
<text text-anchor="middle" x="257" y="-244.5" font-family="FreeSans" font-size="10.00" fill="#000000">::CheckOverlap</text>
</a>
</g>
</g>
<!-- Node1&#45;&gt;Node6 -->
<g id="edge5" class="edge">
<title>Node1&#45;&gt;Node6</title>
<path fill="none" stroke="#191970" d="M85.4217,-161.7808C104.9839,-180.344 139.3871,-210.4478 174,-228.5 177.5027,-230.3268 181.1597,-232.0418 184.9026,-233.6488"/>
<polygon fill="#191970" stroke="#191970" points="183.7595,-236.961 194.3443,-237.4227 186.3577,-230.4611 183.7595,-236.961"/>
</g>
<!-- Node7 -->
<g id="node7" class="node">
<title>Node7</title>
<g id="a_node7"><a xlink:href="../../d5/d07/classPHNodeIterator.html#aea98bf8619af59b1212a94fb32106baa" target="_top" xlink:title="PHNodeIterator::findFirst">
<polygon fill="none" stroke="#000000" points="186.5,-180.5 186.5,-200.5 327.5,-200.5 327.5,-180.5 186.5,-180.5"/>
<text text-anchor="middle" x="257" y="-187.5" font-family="FreeSans" font-size="10.00" fill="#000000">PHNodeIterator::findFirst</text>
</a>
</g>
</g>
<!-- Node1&#45;&gt;Node7 -->
<g id="edge6" class="edge">
<title>Node1&#45;&gt;Node7</title>
<path fill="none" stroke="#191970" d="M133.0906,-161.5614C146.5912,-164.891 160.7554,-168.3445 174,-171.5 183.2852,-173.7122 193.1668,-176.0172 202.7532,-178.2274"/>
<polygon fill="#191970" stroke="#191970" points="202.0693,-181.6614 212.599,-180.4886 203.6362,-174.839 202.0693,-181.6614"/>
</g>
<!-- Node9 -->
<g id="node9" class="node">
<title>Node9</title>
<g id="a_node9"><a xlink:href="../../d5/d29/classPHG4DetectorSubsystem.html#a0782302d2c93bb541eb2bc6c642b047b" target="_top" xlink:title="PHG4DetectorSubsystem\l::get_int_param">
<polygon fill="none" stroke="#000000" points="185,-129.5 185,-161.5 329,-161.5 329,-129.5 185,-129.5"/>
<text text-anchor="start" x="193" y="-148.5" font-family="FreeSans" font-size="10.00" fill="#000000">PHG4DetectorSubsystem</text>
<text text-anchor="middle" x="257" y="-136.5" font-family="FreeSans" font-size="10.00" fill="#000000">::get_int_param</text>
</a>
</g>
</g>
<!-- Node1&#45;&gt;Node9 -->
<g id="edge10" class="edge">
<title>Node1&#45;&gt;Node9</title>
<path fill="none" stroke="#191970" d="M138.2033,-145.5C150.0636,-145.5 162.491,-145.5 174.654,-145.5"/>
<polygon fill="#191970" stroke="#191970" points="174.7906,-149.0001 184.7906,-145.5 174.7905,-142.0001 174.7906,-149.0001"/>
</g>
<!-- Node12 -->
<g id="node12" class="node">
<title>Node12</title>
<g id="a_node12"><a xlink:href="../../d5/d29/classPHG4DetectorSubsystem.html#a6ce8e425ac50e6f13d44075bd6843dcf" target="_top" xlink:title="PHG4DetectorSubsystem\l::GetParams">
<polygon fill="none" stroke="#000000" points="185,-78.5 185,-110.5 329,-110.5 329,-78.5 185,-78.5"/>
<text text-anchor="start" x="193" y="-97.5" font-family="FreeSans" font-size="10.00" fill="#000000">PHG4DetectorSubsystem</text>
<text text-anchor="middle" x="257" y="-85.5" font-family="FreeSans" font-size="10.00" fill="#000000">::GetParams</text>
</a>
</g>
</g>
<!-- Node1&#45;&gt;Node12 -->
<g id="edge13" class="edge">
<title>Node1&#45;&gt;Node12</title>
<path fill="none" stroke="#191970" d="M128.2263,-129.4333C147.1936,-124.2879 168.3597,-118.546 187.9639,-113.2279"/>
<polygon fill="#191970" stroke="#191970" points="189.0137,-116.5697 197.7485,-110.5736 187.1809,-109.8138 189.0137,-116.5697"/>
</g>
<!-- Node13 -->
<g id="node13" class="node">
<title>Node13</title>
<g id="a_node13"><a xlink:href="../../d5/dec/classFun4AllBase.html#a41f9ac377743d046f590617fd6f4f0ed" target="_top" xlink:title="Returns the name of this module.">
<polygon fill="none" stroke="#000000" points="199.5,-39.5 199.5,-59.5 314.5,-59.5 314.5,-39.5 199.5,-39.5"/>
<text text-anchor="middle" x="257" y="-46.5" font-family="FreeSans" font-size="10.00" fill="#000000">Fun4AllBase::Name</text>
</a>
</g>
</g>
<!-- Node1&#45;&gt;Node13 -->
<g id="edge14" class="edge">
<title>Node1&#45;&gt;Node13</title>
<path fill="none" stroke="#191970" d="M86.5853,-129.4043C106.403,-112.112 140.2729,-85.0289 174,-69.5 179.7431,-66.8557 185.8767,-64.5374 192.1112,-62.5098"/>
<polygon fill="#191970" stroke="#191970" points="193.3776,-65.784 201.9498,-59.5578 191.3658,-59.0793 193.3776,-65.784"/>
</g>
<!-- Node14 -->
<g id="node14" class="node">
<title>Node14</title>
<g id="a_node14"><a xlink:href="../../d3/de7/classPHG4Detector.html#a1a914e84447dd5ab89745cb9fcd1942e" target="_top" xlink:title="PHG4Detector::OverlapCheck">
<polygon fill="none" stroke="#000000" points="174,-.5 174,-20.5 340,-20.5 340,-.5 174,-.5"/>
<text text-anchor="middle" x="257" y="-7.5" font-family="FreeSans" font-size="10.00" fill="#000000">PHG4Detector::OverlapCheck</text>
</a>
</g>
</g>
<!-- Node1&#45;&gt;Node14 -->
<g id="edge15" class="edge">
<title>Node1&#45;&gt;Node14</title>
<path fill="none" stroke="#191970" d="M79.0119,-129.131C95.5005,-103.6407 130.8777,-54.771 174,-29.5 177.2522,-27.5941 180.6801,-25.8794 184.2163,-24.3367"/>
<polygon fill="#191970" stroke="#191970" points="185.7163,-27.5094 193.7837,-20.6415 183.1943,-20.9794 185.7163,-27.5094"/>
</g>
<!-- Node3 -->
<g id="node3" class="node">
<title>Node3</title>
<g id="a_node3"><a xlink:href="../../dc/d82/classPHNode.html#aca3576f926a4401eddc3d88bf0ce0de3" target="_top" xlink:title="PHNode::getName">
<polygon fill="none" stroke="#000000" points="386,-234.5 386,-254.5 495,-254.5 495,-234.5 386,-234.5"/>
<text text-anchor="middle" x="440.5" y="-241.5" font-family="FreeSans" font-size="10.00" fill="#000000">PHNode::getName</text>
</a>
</g>
</g>
<!-- Node2&#45;&gt;Node3 -->
<g id="edge2" class="edge">
<title>Node2&#45;&gt;Node3</title>
<path fill="none" stroke="#191970" d="M305.0707,-288.4411C316.5765,-285.7734 328.7769,-282.7282 340,-279.5 361.773,-273.2372 385.7465,-264.9436 404.8167,-258.0018"/>
<polygon fill="#191970" stroke="#191970" points="406.1271,-261.2491 414.3046,-254.5127 403.7111,-254.6792 406.1271,-261.2491"/>
</g>
<!-- Node4 -->
<g id="node4" class="node">
<title>Node4</title>
<g id="a_node4"><a xlink:href="../../dc/d82/classPHNode.html#adda2bd6cef2d5067bbe3016a990b7198" target="_top" xlink:title="PHNode::setParent">
<polygon fill="none" stroke="#000000" points="385,-319.5 385,-339.5 496,-339.5 496,-319.5 385,-319.5"/>
<text text-anchor="middle" x="440.5" y="-326.5" font-family="FreeSans" font-size="10.00" fill="#000000">PHNode::setParent</text>
</a>
</g>
</g>
<!-- Node2&#45;&gt;Node4 -->
<g id="edge3" class="edge">
<title>Node2&#45;&gt;Node4</title>
<path fill="none" stroke="#191970" d="M316.3238,-308.522C334.9632,-311.6709 355.6517,-315.166 374.7114,-318.3858"/>
<polygon fill="#191970" stroke="#191970" points="374.3653,-321.8769 384.8086,-320.0917 375.5314,-314.9747 374.3653,-321.8769"/>
</g>
<!-- Node5 -->
<g id="node5" class="node">
<title>Node5</title>
<g id="a_node5"><a xlink:href="../../d6/d86/classPHPointerList.html#ac2176735e9d046a034f1686fd2c477eb" target="_top" xlink:title="PHPointerList::append">
<polygon fill="none" stroke="#000000" points="376.5,-280.5 376.5,-300.5 504.5,-300.5 504.5,-280.5 376.5,-280.5"/>
<text text-anchor="middle" x="440.5" y="-287.5" font-family="FreeSans" font-size="10.00" fill="#000000">PHPointerList::append</text>
</a>
</g>
</g>
<!-- Node2&#45;&gt;Node5 -->
<g id="edge4" class="edge">
<title>Node2&#45;&gt;Node5</title>
<path fill="none" stroke="#191970" d="M338.0199,-294.9678C347.4679,-294.5559 357.0698,-294.1373 366.4174,-293.7298"/>
<polygon fill="#191970" stroke="#191970" points="366.6033,-297.2251 376.4414,-293.2927 366.2984,-290.2317 366.6033,-297.2251"/>
</g>
<!-- Node7&#45;&gt;Node3 -->
<g id="edge8" class="edge">
<title>Node7&#45;&gt;Node3</title>
<path fill="none" stroke="#191970" d="M291.0849,-200.5304C320.8605,-209.2927 364.2623,-222.0649 396.6249,-231.5885"/>
<polygon fill="#191970" stroke="#191970" points="395.7054,-234.9663 406.2868,-234.4318 397.6817,-228.251 395.7054,-234.9663"/>
</g>
<!-- Node7&#45;&gt;Node7 -->
<g id="edge9" class="edge">
<title>Node7&#45;&gt;Node7</title>
<path fill="none" stroke="#191970" d="M228.507,-200.7271C215.5101,-209.6067 225.0078,-219 257,-219 278.4948,-219 289.8351,-214.7597 291.0211,-209.2839"/>
<polygon fill="#191970" stroke="#191970" points="293.8595,-207.2274 285.493,-200.7271 287.9797,-211.026 293.8595,-207.2274"/>
</g>
<!-- Node8 -->
<g id="node8" class="node">
<title>Node8</title>
<g id="a_node8"><a xlink:href="../../dc/d82/classPHNode.html#a4ab1f90aed955a652813bfe377087bda" target="_top" xlink:title="PHNode::getType">
<polygon fill="none" stroke="#000000" points="389,-180.5 389,-200.5 492,-200.5 492,-180.5 389,-180.5"/>
<text text-anchor="middle" x="440.5" y="-187.5" font-family="FreeSans" font-size="10.00" fill="#000000">PHNode::getType</text>
</a>
</g>
</g>
<!-- Node7&#45;&gt;Node8 -->
<g id="edge7" class="edge">
<title>Node7&#45;&gt;Node8</title>
<path fill="none" stroke="#191970" d="M327.6834,-190.5C344.5725,-190.5 362.4684,-190.5 378.9102,-190.5"/>
<polygon fill="#191970" stroke="#191970" points="378.9378,-194.0001 388.9378,-190.5 378.9377,-187.0001 378.9378,-194.0001"/>
</g>
<!-- Node10 -->
<g id="node10" class="node">
<title>Node10</title>
<g id="a_node10"><a xlink:href="../../dd/dae/classPHParameters.html#a0241ca27a369ab4865ac3d79620ac27c" target="_top" xlink:title="PHParameters::get_int\l_param">
<polygon fill="none" stroke="#000000" points="376,-129.5 376,-161.5 505,-161.5 505,-129.5 376,-129.5"/>
<text text-anchor="start" x="384" y="-148.5" font-family="FreeSans" font-size="10.00" fill="#000000">PHParameters::get_int</text>
<text text-anchor="middle" x="440.5" y="-136.5" font-family="FreeSans" font-size="10.00" fill="#000000">_param</text>
</a>
</g>
</g>
<!-- Node9&#45;&gt;Node10 -->
<g id="edge11" class="edge">
<title>Node9&#45;&gt;Node10</title>
<path fill="none" stroke="#191970" d="M329.2606,-145.5C341.2488,-145.5 353.7024,-145.5 365.7507,-145.5"/>
<polygon fill="#191970" stroke="#191970" points="365.7569,-149.0001 375.7569,-145.5 365.7568,-142.0001 365.7569,-149.0001"/>
</g>
<!-- Node11 -->
<g id="node11" class="node">
<title>Node11</title>
<g id="a_node11"><a xlink:href="../../df/de8/cemc_8C.html#adf5c804dfce7a70e36dda02995fad481" target="_top" xlink:title="exit">
<polygon fill="none" stroke="#000000" points="541,-135.5 541,-155.5 576,-155.5 576,-135.5 541,-135.5"/>
<text text-anchor="middle" x="558.5" y="-142.5" font-family="FreeSans" font-size="10.00" fill="#000000">exit</text>
</a>
</g>
</g>
<!-- Node10&#45;&gt;Node11 -->
<g id="edge12" class="edge">
<title>Node10&#45;&gt;Node11</title>
<path fill="none" stroke="#191970" d="M505.024,-145.5C513.9473,-145.5 522.7005,-145.5 530.4576,-145.5"/>
<polygon fill="#191970" stroke="#191970" points="530.6745,-149.0001 540.6745,-145.5 530.6744,-142.0001 530.6745,-149.0001"/>
</g>
</g>
</svg>
