<?xml version="1.0" encoding="UTF-8" standalone="no"?>
<!DOCTYPE svg PUBLIC "-//W3C//DTD SVG 1.1//EN"
 "http://www.w3.org/Graphics/SVG/1.1/DTD/svg11.dtd">
<!-- Generated by graphviz version 2.40.1 (20161225.0304)
 -->
<!-- Title: lu2ent Pages: 1 -->
<svg width="1248pt" height="2015pt"
 viewBox="0.00 0.00 1248.00 2014.62" xmlns="http://www.w3.org/2000/svg" xmlns:xlink="http://www.w3.org/1999/xlink">
<g id="graph0" class="graph" transform="scale(1 1) rotate(0) translate(4 2010.6249)">
<title>lu2ent</title>
<!-- Node1 -->
<g id="node1" class="node">
<title>Node1</title>
<polygon fill="#bfbfbf" stroke="#000000" points="0,-1672.6249 0,-1692.6249 49,-1692.6249 49,-1672.6249 0,-1672.6249"/>
<text text-anchor="middle" x="24.5" y="-1679.6249" font-family="FreeSans" font-size="10.00" fill="#000000">lu2ent</text>
</g>
<!-- Node2 -->
<g id="node2" class="node">
<title>Node2</title>
<g id="a_node2"><a xlink:href="../../d0/d95/ip_8C.html#a292ff32a75b66b513d1f0ce00f9a4dc4" target="_top" xlink:title="ip">
<polygon fill="none" stroke="#000000" points="322,-706.6249 322,-726.6249 351,-726.6249 351,-706.6249 322,-706.6249"/>
<text text-anchor="middle" x="336.5" y="-713.6249" font-family="FreeSans" font-size="10.00" fill="#000000">ip</text>
</a>
</g>
</g>
<!-- Node1&#45;&gt;Node2 -->
<g id="edge1" class="edge">
<title>Node1&#45;&gt;Node2</title>
<path fill="none" stroke="#191970" d="M25.614,-1672.5098C34.6509,-1591.4727 97.4673,-1047.1206 170,-900.6249 205.9248,-828.0667 278.8348,-762.8784 315.0664,-733.3427"/>
<polygon fill="#191970" stroke="#191970" points="317.4311,-735.9326 323.0352,-726.9412 313.0472,-730.4754 317.4311,-735.9326"/>
</g>
<!-- Node27 -->
<g id="node27" class="node">
<title>Node27</title>
<g id="a_node27"><a xlink:href="../../d0/da8/lucomp_8f.html#af4e2c29d51aeb470efbf59be26e18d04" target="_top" xlink:title="lucomp">
<polygon fill="none" stroke="#000000" points="1186,-1766.6249 1186,-1786.6249 1240,-1786.6249 1240,-1766.6249 1186,-1766.6249"/>
<text text-anchor="middle" x="1213" y="-1773.6249" font-family="FreeSans" font-size="10.00" fill="#000000">lucomp</text>
</a>
</g>
</g>
<!-- Node1&#45;&gt;Node27 -->
<g id="edge32" class="edge">
<title>Node1&#45;&gt;Node27</title>
<path fill="none" stroke="#191970" d="M24.9571,-1692.6768C28.025,-1747.3646 50.255,-2006.6249 196,-2006.6249 196,-2006.6249 196,-2006.6249 941.5,-2006.6249 1041.0756,-2006.6249 1078.6197,-1994.0522 1150,-1924.6249 1186.7273,-1888.9025 1203.1698,-1828.3666 1209.5387,-1796.9315"/>
<polygon fill="#191970" stroke="#191970" points="1213.0417,-1797.2409 1211.4483,-1786.7666 1206.162,-1795.9485 1213.0417,-1797.2409"/>
</g>
<!-- Node28 -->
<g id="node28" class="node">
<title>Node28</title>
<g id="a_node28"><a xlink:href="../../df/dd0/luerrm_8f.html#ab2b89149ed6c532c613c12ae6c351b5d" target="_top" xlink:title="luerrm">
<polygon fill="none" stroke="#000000" points="514,-1346.6249 514,-1366.6249 563,-1366.6249 563,-1346.6249 514,-1346.6249"/>
<text text-anchor="middle" x="538.5" y="-1353.6249" font-family="FreeSans" font-size="10.00" fill="#000000">luerrm</text>
</a>
</g>
</g>
<!-- Node1&#45;&gt;Node28 -->
<g id="edge33" class="edge">
<title>Node1&#45;&gt;Node28</title>
<path fill="none" stroke="#191970" d="M49.4729,-1678.8686C115.4685,-1667.8794 297.4851,-1630.5734 415,-1538.6249 473.0017,-1493.242 513.7056,-1412.939 530.2542,-1376.0917"/>
<polygon fill="#191970" stroke="#191970" points="533.467,-1377.4803 534.2756,-1366.9163 527.0557,-1374.6703 533.467,-1377.4803"/>
</g>
<!-- Node29 -->
<g id="node29" class="node">
<title>Node29</title>
<g id="a_node29"><a xlink:href="../../d7/dda/lulist_8f.html#a69a9c5efe2681d7e19be2b4ed218153e" target="_top" xlink:title="lulist">
<polygon fill="none" stroke="#000000" points="733.5,-1843.6249 733.5,-1863.6249 774.5,-1863.6249 774.5,-1843.6249 733.5,-1843.6249"/>
<text text-anchor="middle" x="754" y="-1850.6249" font-family="FreeSans" font-size="10.00" fill="#000000">lulist</text>
</a>
</g>
</g>
<!-- Node1&#45;&gt;Node29 -->
<g id="edge112" class="edge">
<title>Node1&#45;&gt;Node29</title>
<path fill="none" stroke="#191970" d="M26.254,-1692.6539C34.9949,-1739.0508 78.2175,-1930.6249 196,-1930.6249 196,-1930.6249 196,-1930.6249 336.5,-1930.6249 483.723,-1930.6249 655.3773,-1883.7471 723.7077,-1863.145"/>
<polygon fill="#191970" stroke="#191970" points="724.8528,-1866.455 733.3967,-1860.1899 722.8106,-1859.7595 724.8528,-1866.455"/>
</g>
<!-- Node34 -->
<g id="node34" class="node">
<title>Node34</title>
<g id="a_node34"><a xlink:href="../../d7/ded/ulmass_8f.html#aa951cb677600842104db95323a7647b2" target="_top" xlink:title="ulmass">
<polygon fill="none" stroke="#000000" points="1067.5,-1231.6249 1067.5,-1251.6249 1119.5,-1251.6249 1119.5,-1231.6249 1067.5,-1231.6249"/>
<text text-anchor="middle" x="1093.5" y="-1238.6249" font-family="FreeSans" font-size="10.00" fill="#000000">ulmass</text>
</a>
</g>
</g>
<!-- Node1&#45;&gt;Node34 -->
<g id="edge113" class="edge">
<title>Node1&#45;&gt;Node34</title>
<path fill="none" stroke="#191970" d="M24.996,-1672.5343C31.8246,-1534.9051 108.2277,-35.6249 196,-35.6249 196,-35.6249 196,-35.6249 336.5,-35.6249 637.8665,-35.6249 805.846,59.0198 1001,-170.6249 1068.4683,-250.0173 1014.3941,-1005.919 1037,-1107.6249 1046.5753,-1150.705 1069.4158,-1197.4279 1082.9424,-1222.7343"/>
<polygon fill="#191970" stroke="#191970" points="1079.9263,-1224.5143 1087.7839,-1231.6213 1086.0733,-1221.1655 1079.9263,-1224.5143"/>
</g>
<!-- Node39 -->
<g id="node39" class="node">
<title>Node39</title>
<g id="a_node39"><a xlink:href="../../db/d08/luexec_8f.html#a5b4b744833efbda90c865012826ff281" target="_top" xlink:title="luexec">
<polygon fill="none" stroke="#000000" points="85,-1424.6249 85,-1444.6249 134,-1444.6249 134,-1424.6249 85,-1424.6249"/>
<text text-anchor="middle" x="109.5" y="-1431.6249" font-family="FreeSans" font-size="10.00" fill="#000000">luexec</text>
</a>
</g>
</g>
<!-- Node1&#45;&gt;Node39 -->
<g id="edge51" class="edge">
<title>Node1&#45;&gt;Node39</title>
<path fill="none" stroke="#191970" d="M27.9374,-1672.5958C40.698,-1635.3648 85.4992,-1504.6507 102.7023,-1454.4581"/>
<polygon fill="#191970" stroke="#191970" points="106.0884,-1455.3733 106.0198,-1444.7787 99.4666,-1453.1037 106.0884,-1455.3733"/>
</g>
<!-- Node3 -->
<g id="node3" class="node">
<title>Node3</title>
<g id="a_node3"><a xlink:href="../../da/d86/classEicGeoMap.html#a4138a501100028aef473a4b9508d36d3" target="_top" xlink:title="EicGeoMap::AddGeantVolume\lLevel">
<polygon fill="none" stroke="#000000" points="454.5,-370.6249 454.5,-402.6249 622.5,-402.6249 622.5,-370.6249 454.5,-370.6249"/>
<text text-anchor="start" x="462.5" y="-389.6249" font-family="FreeSans" font-size="10.00" fill="#000000">EicGeoMap::AddGeantVolume</text>
<text text-anchor="middle" x="538.5" y="-377.6249" font-family="FreeSans" font-size="10.00" fill="#000000">Level</text>
</a>
</g>
</g>
<!-- Node2&#45;&gt;Node3 -->
<g id="edge2" class="edge">
<title>Node2&#45;&gt;Node3</title>
<path fill="none" stroke="#191970" d="M351.1365,-717.4341C369.0548,-717.5512 398.9863,-714.7552 415,-696.6249 499.5201,-600.9337 367.868,-508.5244 451,-411.6249 451.6301,-410.8904 452.2801,-410.1768 452.9488,-409.4835"/>
<polygon fill="#191970" stroke="#191970" points="455.4371,-411.961 460.7656,-402.8036 450.8895,-406.6394 455.4371,-411.961"/>
</g>
<!-- Node5 -->
<g id="node5" class="node">
<title>Node5</title>
<g id="a_node5"><a xlink:href="../../df/de0/classEicGeoParData.html#a131e36442e699277af7e0e05dd70d7c7" target="_top" xlink:title="EicGeoParData::AddLogical\lVolumeGroup">
<polygon fill="none" stroke="#000000" points="462,-655.6249 462,-687.6249 615,-687.6249 615,-655.6249 462,-655.6249"/>
<text text-anchor="start" x="470" y="-674.6249" font-family="FreeSans" font-size="10.00" fill="#000000">EicGeoParData::AddLogical</text>
<text text-anchor="middle" x="538.5" y="-662.6249" font-family="FreeSans" font-size="10.00" fill="#000000">VolumeGroup</text>
</a>
</g>
</g>
<!-- Node2&#45;&gt;Node5 -->
<g id="edge4" class="edge">
<title>Node2&#45;&gt;Node5</title>
<path fill="none" stroke="#191970" d="M351.0273,-713.3886C373.127,-708.4654 416.8183,-698.7322 456.4652,-689.9"/>
<polygon fill="#191970" stroke="#191970" points="457.4426,-693.2681 466.4422,-687.6774 455.9204,-686.4356 457.4426,-693.2681"/>
</g>
<!-- Node8 -->
<g id="node8" class="node">
<title>Node8</title>
<g id="a_node8"><a xlink:href="../../dd/d0b/classEicNamePatternHub.html#abe35bc0e1b9b51fa1f2c0c45bcf78dec" target="_top" xlink:title="EicNamePatternHub::\lAddPatternMatch">
<polygon fill="none" stroke="#000000" points="477,-784.6249 477,-816.6249 600,-816.6249 600,-784.6249 477,-784.6249"/>
<text text-anchor="start" x="485" y="-803.6249" font-family="FreeSans" font-size="10.00" fill="#000000">EicNamePatternHub::</text>
<text text-anchor="middle" x="538.5" y="-791.6249" font-family="FreeSans" font-size="10.00" fill="#000000">AddPatternMatch</text>
</a>
</g>
</g>
<!-- Node2&#45;&gt;Node8 -->
<g id="edge8" class="edge">
<title>Node2&#45;&gt;Node8</title>
<path fill="none" stroke="#191970" d="M351.2868,-725.2061C372.727,-737.3937 413.9412,-759.8724 451,-774.6249 456.8941,-776.9712 463.0844,-779.2195 469.3341,-781.343"/>
<polygon fill="#191970" stroke="#191970" points="468.5773,-784.7783 479.1701,-784.5735 470.7616,-778.1278 468.5773,-784.7783"/>
</g>
<!-- Node9 -->
<g id="node9" class="node">
<title>Node9</title>
<g id="a_node9"><a xlink:href="../../df/de0/classEicGeoParData.html#a0a19d07a4f67c4a5cb0884a9992f44d7" target="_top" xlink:title="EicGeoParData::CreateNewMap">
<polygon fill="none" stroke="#000000" points="451,-745.6249 451,-765.6249 626,-765.6249 626,-745.6249 451,-745.6249"/>
<text text-anchor="middle" x="538.5" y="-752.6249" font-family="FreeSans" font-size="10.00" fill="#000000">EicGeoParData::CreateNewMap</text>
</a>
</g>
</g>
<!-- Node2&#45;&gt;Node9 -->
<g id="edge9" class="edge">
<title>Node2&#45;&gt;Node9</title>
<path fill="none" stroke="#191970" d="M351.0273,-719.4297C376.9602,-724.4365 432.6242,-735.1835 476.5966,-743.6732"/>
<polygon fill="#191970" stroke="#191970" points="476.1577,-747.1531 486.6399,-745.6123 477.4847,-740.28 476.1577,-747.1531"/>
</g>
<!-- Node10 -->
<g id="node10" class="node">
<title>Node10</title>
<g id="a_node10"><a xlink:href="../../df/de8/cemc_8C.html#adf5c804dfce7a70e36dda02995fad481" target="_top" xlink:title="exit">
<polygon fill="none" stroke="#000000" points="521,-706.6249 521,-726.6249 556,-726.6249 556,-706.6249 521,-706.6249"/>
<text text-anchor="middle" x="538.5" y="-713.6249" font-family="FreeSans" font-size="10.00" fill="#000000">exit</text>
</a>
</g>
</g>
<!-- Node2&#45;&gt;Node10 -->
<g id="edge10" class="edge">
<title>Node2&#45;&gt;Node10</title>
<path fill="none" stroke="#191970" d="M351.0273,-716.6249C384.3854,-716.6249 466.9373,-716.6249 510.5197,-716.6249"/>
<polygon fill="#191970" stroke="#191970" points="510.7067,-720.125 520.7067,-716.6249 510.7067,-713.125 510.7067,-720.125"/>
</g>
<!-- Node11 -->
<g id="node11" class="node">
<title>Node11</title>
<g id="a_node11"><a xlink:href="../../df/de0/classEicGeoParData.html#a5464c1947d87d36569891ada6aafb22c" target="_top" xlink:title="EicGeoParData::FinalizeOutput">
<polygon fill="none" stroke="#000000" points="453,-577.6249 453,-597.6249 624,-597.6249 624,-577.6249 453,-577.6249"/>
<text text-anchor="middle" x="538.5" y="-584.6249" font-family="FreeSans" font-size="10.00" fill="#000000">EicGeoParData::FinalizeOutput</text>
</a>
</g>
</g>
<!-- Node2&#45;&gt;Node11 -->
<g id="edge11" class="edge">
<title>Node2&#45;&gt;Node11</title>
<path fill="none" stroke="#191970" d="M351.279,-716.6187C368.5137,-715.8428 396.9396,-712.0759 415,-696.6249 445.8639,-670.2204 420.5199,-639.4715 451,-612.6249 455.8238,-608.3761 461.3246,-604.8464 467.1652,-601.9145"/>
<polygon fill="#191970" stroke="#191970" points="468.8263,-605.0077 476.5748,-597.7818 466.0114,-598.5985 468.8263,-605.0077"/>
</g>
<!-- Node12 -->
<g id="node12" class="node">
<title>Node12</title>
<g id="a_node12"><a xlink:href="../../df/de0/classEicGeoParData.html#a98e43e3d66fdb531cabaccd39f09ebc3" target="_top" xlink:title="EicGeoParData::GetColorTable">
<polygon fill="none" stroke="#000000" points="669.5,-730.6249 669.5,-750.6249 838.5,-750.6249 838.5,-730.6249 669.5,-730.6249"/>
<text text-anchor="middle" x="754" y="-737.6249" font-family="FreeSans" font-size="10.00" fill="#000000">EicGeoParData::GetColorTable</text>
</a>
</g>
</g>
<!-- Node2&#45;&gt;Node12 -->
<g id="edge17" class="edge">
<title>Node2&#45;&gt;Node12</title>
<path fill="none" stroke="#191970" d="M351.051,-715.9084C367.8121,-714.4476 395.537,-710.0204 415,-696.6249 437.8549,-680.8949 426.3657,-658.3893 451,-645.6249 520.0578,-609.8422 560.1701,-604.2025 626,-645.6249 657.2946,-665.3165 632.9881,-697.7029 662,-720.6249 664.4849,-722.5882 667.1206,-724.3688 669.8702,-725.9833"/>
<polygon fill="#191970" stroke="#191970" points="668.4893,-729.207 678.993,-730.5938 671.6467,-722.9595 668.4893,-729.207"/>
</g>
<!-- Node14 -->
<g id="node14" class="node">
<title>Node14</title>
<g id="a_node14"><a xlink:href="../../df/de0/classEicGeoParData.html#a75991633a97d0a9b3140ba103f225691" target="_top" xlink:title="EicGeoParData::GetTransparency\lTable">
<polygon fill="none" stroke="#000000" points="662,-538.6249 662,-570.6249 846,-570.6249 846,-538.6249 662,-538.6249"/>
<text text-anchor="start" x="670" y="-557.6249" font-family="FreeSans" font-size="10.00" fill="#000000">EicGeoParData::GetTransparency</text>
<text text-anchor="middle" x="754" y="-545.6249" font-family="FreeSans" font-size="10.00" fill="#000000">Table</text>
</a>
</g>
</g>
<!-- Node2&#45;&gt;Node14 -->
<g id="edge22" class="edge">
<title>Node2&#45;&gt;Node14</title>
<path fill="none" stroke="#191970" d="M351.0281,-717.0345C368.5548,-716.7124 397.803,-713.4363 415,-696.6249 457.5644,-655.0149 404.372,-604.6241 451,-567.6249 481.1968,-543.6637 575.9783,-542.86 651.5836,-546.5617"/>
<polygon fill="#191970" stroke="#191970" points="651.475,-550.0607 661.6436,-547.0858 651.8393,-543.0701 651.475,-550.0607"/>
</g>
<!-- Node17 -->
<g id="node17" class="node">
<title>Node17</title>
<g id="a_node17"><a xlink:href="../../df/de0/classEicGeoParData.html#af50661ee10308b08071f9feb1b57493b" target="_top" xlink:title="EicGeoParData::GetMedium">
<polygon fill="none" stroke="#000000" points="460.5,-499.6249 460.5,-519.6249 616.5,-519.6249 616.5,-499.6249 460.5,-499.6249"/>
<text text-anchor="middle" x="538.5" y="-506.6249" font-family="FreeSans" font-size="10.00" fill="#000000">EicGeoParData::GetMedium</text>
</a>
</g>
</g>
<!-- Node2&#45;&gt;Node17 -->
<g id="edge18" class="edge">
<title>Node2&#45;&gt;Node17</title>
<path fill="none" stroke="#191970" d="M351.1787,-717.1846C368.8573,-717.0137 398.2586,-713.8901 415,-696.6249 466.3443,-643.6743 400.4243,-588.3101 451,-534.6249 454.7917,-530.6 459.1822,-527.2084 463.9368,-524.3522"/>
<polygon fill="#191970" stroke="#191970" points="465.5502,-527.4582 472.8378,-519.7679 462.345,-521.2351 465.5502,-527.4582"/>
</g>
<!-- Node20 -->
<g id="node20" class="node">
<title>Node20</title>
<g id="a_node20"><a xlink:href="../../df/de0/classEicGeoParData.html#a37c307a8b444e89fd125f6d273a1c894" target="_top" xlink:title="EicGeoParData::GetTopVolume">
<polygon fill="none" stroke="#000000" points="453,-460.6249 453,-480.6249 624,-480.6249 624,-460.6249 453,-460.6249"/>
<text text-anchor="middle" x="538.5" y="-467.6249" font-family="FreeSans" font-size="10.00" fill="#000000">EicGeoParData::GetTopVolume</text>
</a>
</g>
</g>
<!-- Node2&#45;&gt;Node20 -->
<g id="edge21" class="edge">
<title>Node2&#45;&gt;Node20</title>
<path fill="none" stroke="#191970" d="M351.0016,-717.3121C368.7808,-717.3034 398.5687,-714.3776 415,-696.6249 478.4303,-628.0931 386.3584,-557.0153 451,-489.6249 451.9382,-488.6468 452.914,-487.7133 453.9237,-486.8224"/>
<polygon fill="#191970" stroke="#191970" points="456.2101,-489.4886 462.2691,-480.7972 452.1125,-483.8132 456.2101,-489.4886"/>
</g>
<!-- Node21 -->
<g id="node21" class="node">
<title>Node21</title>
<g id="a_node21"><a xlink:href="../../df/de0/classEicGeoParData.html#a304fa90a3bc1944d2c997257ed56b6a7" target="_top" xlink:title="EicGeoParData::SetFileName">
<polygon fill="none" stroke="#000000" points="458,-421.6249 458,-441.6249 619,-441.6249 619,-421.6249 458,-421.6249"/>
<text text-anchor="middle" x="538.5" y="-428.6249" font-family="FreeSans" font-size="10.00" fill="#000000">EicGeoParData::SetFileName</text>
</a>
</g>
</g>
<!-- Node2&#45;&gt;Node21 -->
<g id="edge23" class="edge">
<title>Node2&#45;&gt;Node21</title>
<path fill="none" stroke="#191970" d="M351.0791,-717.383C368.9384,-717.4473 398.8088,-714.5969 415,-696.6249 488.9605,-614.5297 375.5881,-531.3889 451,-450.6249 451.925,-449.6343 452.8884,-448.6891 453.8867,-447.7874"/>
<polygon fill="#191970" stroke="#191970" points="456.1837,-450.4425 462.16,-441.694 452.0326,-444.8061 456.1837,-450.4425"/>
</g>
<!-- Node22 -->
<g id="node22" class="node">
<title>Node22</title>
<g id="a_node22"><a xlink:href="../../df/de0/classEicGeoParData.html#a85796e06ee06c2b0973409350d2c054d" target="_top" xlink:title="EicGeoParData::SetMapping\lTableEntry">
<polygon fill="none" stroke="#000000" points="459.5,-319.6249 459.5,-351.6249 617.5,-351.6249 617.5,-319.6249 459.5,-319.6249"/>
<text text-anchor="start" x="467.5" y="-338.6249" font-family="FreeSans" font-size="10.00" fill="#000000">EicGeoParData::SetMapping</text>
<text text-anchor="middle" x="538.5" y="-326.6249" font-family="FreeSans" font-size="10.00" fill="#000000">TableEntry</text>
</a>
</g>
</g>
<!-- Node2&#45;&gt;Node22 -->
<g id="edge24" class="edge">
<title>Node2&#45;&gt;Node22</title>
<path fill="none" stroke="#191970" d="M351.1921,-717.4827C369.1678,-717.65 399.1584,-714.9058 415,-696.6249 513.356,-583.1236 354.2903,-475.5322 451,-360.6249 451.6231,-359.8845 452.2665,-359.1653 452.9288,-358.4666"/>
<polygon fill="#191970" stroke="#191970" points="455.4259,-360.9339 460.6897,-351.7392 450.8409,-355.6445 455.4259,-360.9339"/>
</g>
<!-- Node26 -->
<g id="node26" class="node">
<title>Node26</title>
<g id="a_node26"><a xlink:href="../../da/d86/classEicGeoMap.html#a77e724ceee76044c2346a4b35be1f90e" target="_top" xlink:title="EicGeoMap::SetSingleSensor\lContainerVolume">
<polygon fill="none" stroke="#000000" points="457,-835.6249 457,-867.6249 620,-867.6249 620,-835.6249 457,-835.6249"/>
<text text-anchor="start" x="465" y="-854.6249" font-family="FreeSans" font-size="10.00" fill="#000000">EicGeoMap::SetSingleSensor</text>
<text text-anchor="middle" x="538.5" y="-842.6249" font-family="FreeSans" font-size="10.00" fill="#000000">ContainerVolume</text>
</a>
</g>
</g>
<!-- Node2&#45;&gt;Node26 -->
<g id="edge31" class="edge">
<title>Node2&#45;&gt;Node26</title>
<path fill="none" stroke="#191970" d="M344.2269,-726.6818C361.1956,-748.0827 403.9714,-798.3966 451,-825.6249 454.703,-827.7688 458.5981,-829.7497 462.6038,-831.5781"/>
<polygon fill="#191970" stroke="#191970" points="461.5373,-834.9263 472.1124,-835.5726 464.2485,-828.4727 461.5373,-834.9263"/>
</g>
<!-- Node4 -->
<g id="node4" class="node">
<title>Node4</title>
<g id="a_node4"><a xlink:href="../../da/d23/msg__buffer_8cc.html#a98631211a4a8aee62f572375d5b637be" target="_top" xlink:title="printf">
<polygon fill="none" stroke="#000000" points="919.5,-382.6249 919.5,-402.6249 963.5,-402.6249 963.5,-382.6249 919.5,-382.6249"/>
<text text-anchor="middle" x="941.5" y="-389.6249" font-family="FreeSans" font-size="10.00" fill="#000000">printf</text>
</a>
</g>
</g>
<!-- Node3&#45;&gt;Node4 -->
<g id="edge3" class="edge">
<title>Node3&#45;&gt;Node4</title>
<path fill="none" stroke="#191970" d="M605.1084,-402.6402C623.4341,-406.3523 643.3893,-409.7601 662,-411.6249 743.3703,-419.7781 764.6162,-419.6421 846,-411.6249 867.3348,-409.5232 890.9676,-404.8412 909.3861,-400.6511"/>
<polygon fill="#191970" stroke="#191970" points="910.3637,-404.0169 919.3023,-398.3289 908.7676,-397.2013 910.3637,-404.0169"/>
</g>
<!-- Node5&#45;&gt;Node4 -->
<g id="edge5" class="edge">
<title>Node5&#45;&gt;Node4</title>
<path fill="none" stroke="#191970" d="M611.8118,-687.7224C616.8515,-690.2666 621.6486,-693.2129 626,-696.6249 651.3778,-716.5238 634.1075,-743.4382 662,-759.6249 732.7304,-800.6713 781.3016,-809.6422 846,-759.6249 902.3711,-716.0452 931.6892,-483.7968 939.4025,-413.0762"/>
<polygon fill="#191970" stroke="#191970" points="942.9153,-413.141 940.4908,-402.8273 935.9544,-412.4018 942.9153,-413.141"/>
</g>
<!-- Node6 -->
<g id="node6" class="node">
<title>Node6</title>
<g id="a_node6"><a xlink:href="../../dd/d20/classEicBitMask.html#a23ae6782cbc30f5fe572692893d5e3bf" target="_top" xlink:title="EicBitMask::SetShift">
<polygon fill="none" stroke="#000000" points="695.5,-808.6249 695.5,-828.6249 812.5,-828.6249 812.5,-808.6249 695.5,-808.6249"/>
<text text-anchor="middle" x="754" y="-815.6249" font-family="FreeSans" font-size="10.00" fill="#000000">EicBitMask::SetShift</text>
</a>
</g>
</g>
<!-- Node5&#45;&gt;Node6 -->
<g id="edge6" class="edge">
<title>Node5&#45;&gt;Node6</title>
<path fill="none" stroke="#191970" d="M613.7189,-687.6621C618.1404,-690.2239 622.29,-693.1904 626,-696.6249 659.7446,-727.8638 628.0536,-762.6054 662,-793.6249 668.8195,-799.8564 677.0383,-804.559 685.7222,-808.1032"/>
<polygon fill="#191970" stroke="#191970" points="684.6889,-811.4505 695.2835,-811.5119 687.0396,-804.857 684.6889,-811.4505"/>
</g>
<!-- Node7 -->
<g id="node7" class="node">
<title>Node7</title>
<g id="a_node7"><a xlink:href="../../dd/d20/classEicBitMask.html#a577897e58c312fcaa8722bea72257e26" target="_top" xlink:title="EicBitMask::GetBitNum">
<polygon fill="none" stroke="#000000" points="687.5,-847.6249 687.5,-867.6249 820.5,-867.6249 820.5,-847.6249 687.5,-847.6249"/>
<text text-anchor="middle" x="754" y="-854.6249" font-family="FreeSans" font-size="10.00" fill="#000000">EicBitMask::GetBitNum</text>
</a>
</g>
</g>
<!-- Node5&#45;&gt;Node7 -->
<g id="edge7" class="edge">
<title>Node5&#45;&gt;Node7</title>
<path fill="none" stroke="#191970" d="M614.9526,-687.7293C618.9654,-690.281 622.6964,-693.2263 626,-696.6249 671.0814,-743.0014 615.4526,-792.72 662,-837.6249 666.6319,-842.0933 672.0154,-845.6603 677.8097,-848.4975"/>
<polygon fill="#191970" stroke="#191970" points="676.6255,-851.7952 687.2042,-852.3798 679.2991,-845.3258 676.6255,-851.7952"/>
</g>
<!-- Node11&#45;&gt;Node12 -->
<g id="edge12" class="edge">
<title>Node11&#45;&gt;Node12</title>
<path fill="none" stroke="#191970" d="M602.2383,-597.801C610.9902,-601.3755 619.2672,-606.1785 626,-612.6249 662.5459,-647.6163 624.3493,-686.8251 662,-720.6249 663.7789,-722.2218 665.6547,-723.7015 667.6107,-725.0722"/>
<polygon fill="#191970" stroke="#191970" points="666.2574,-728.3378 676.6477,-730.4093 669.817,-722.3104 666.2574,-728.3378"/>
</g>
<!-- Node13 -->
<g id="node13" class="node">
<title>Node13</title>
<g id="a_node13"><a xlink:href="../../dd/d0b/classEicNamePatternHub.html#a8baac9dd7e44ee789555cb040763f903" target="_top" xlink:title="EicNamePatternHub::\lAnyMatch">
<polygon fill="none" stroke="#000000" points="692.5,-679.6249 692.5,-711.6249 815.5,-711.6249 815.5,-679.6249 692.5,-679.6249"/>
<text text-anchor="start" x="700.5" y="-698.6249" font-family="FreeSans" font-size="10.00" fill="#000000">EicNamePatternHub::</text>
<text text-anchor="middle" x="754" y="-686.6249" font-family="FreeSans" font-size="10.00" fill="#000000">AnyMatch</text>
</a>
</g>
</g>
<!-- Node11&#45;&gt;Node13 -->
<g id="edge13" class="edge">
<title>Node11&#45;&gt;Node13</title>
<path fill="none" stroke="#191970" d="M596.3902,-597.6938C606.8968,-601.2609 617.275,-606.0895 626,-612.6249 649.9813,-630.588 637.9929,-651.6962 662,-669.6249 668.2649,-674.3035 675.3395,-678.1407 682.7137,-681.2877"/>
<polygon fill="#191970" stroke="#191970" points="681.5859,-684.6036 692.1761,-684.916 684.0921,-678.0677 681.5859,-684.6036"/>
</g>
<!-- Node11&#45;&gt;Node14 -->
<g id="edge14" class="edge">
<title>Node11&#45;&gt;Node14</title>
<path fill="none" stroke="#191970" d="M604.0348,-577.5894C619.1093,-575.281 635.4931,-572.7721 651.7115,-570.2885"/>
<polygon fill="#191970" stroke="#191970" points="652.4203,-573.7209 661.7753,-568.7475 651.3607,-566.8016 652.4203,-573.7209"/>
</g>
<!-- Node15 -->
<g id="node15" class="node">
<title>Node15</title>
<g id="a_node15"><a xlink:href="../../df/de0/classEicGeoParData.html#a24162311dd8c038e330afbee7a132352" target="_top" xlink:title="EicGeoParData::GetGeometry\lFileName">
<polygon fill="none" stroke="#ff0000" points="671,-628.6249 671,-660.6249 837,-660.6249 837,-628.6249 671,-628.6249"/>
<text text-anchor="start" x="679" y="-647.6249" font-family="FreeSans" font-size="10.00" fill="#000000">EicGeoParData::GetGeometry</text>
<text text-anchor="middle" x="754" y="-635.6249" font-family="FreeSans" font-size="10.00" fill="#000000">FileName</text>
</a>
</g>
</g>
<!-- Node11&#45;&gt;Node15 -->
<g id="edge15" class="edge">
<title>Node11&#45;&gt;Node15</title>
<path fill="none" stroke="#191970" d="M576.531,-597.6841C606.0205,-605.4841 647.7199,-616.5137 683.2886,-625.9216"/>
<polygon fill="#191970" stroke="#191970" points="682.5805,-629.3546 693.143,-628.5281 684.3705,-622.5873 682.5805,-629.3546"/>
</g>
<!-- Node16 -->
<g id="node16" class="node">
<title>Node16</title>
<g id="a_node16"><a xlink:href="../../d0/d2f/classEicDetName.html#aef29cb1ffe2ea071a03f4aa098408595" target="_top" xlink:title="EicDetName::Name">
<polygon fill="none" stroke="#000000" points="696.5,-589.6249 696.5,-609.6249 811.5,-609.6249 811.5,-589.6249 696.5,-589.6249"/>
<text text-anchor="middle" x="754" y="-596.6249" font-family="FreeSans" font-size="10.00" fill="#000000">EicDetName::Name</text>
</a>
</g>
</g>
<!-- Node11&#45;&gt;Node16 -->
<g id="edge16" class="edge">
<title>Node11&#45;&gt;Node16</title>
<path fill="none" stroke="#191970" d="M624.2905,-592.4021C644.8807,-593.5486 666.5881,-594.7574 686.23,-595.8511"/>
<polygon fill="#191970" stroke="#191970" points="686.1173,-599.3502 696.2964,-596.4117 686.5065,-592.361 686.1173,-599.3502"/>
</g>
<!-- Node18 -->
<g id="node18" class="node">
<title>Node18</title>
<g id="a_node18"><a xlink:href="../../d9/d1e/classFairGeoMedia.html#a0dc27e89d61b8ff40498a48e39b2a2c0" target="_top" xlink:title="FairGeoMedia::getMedium">
<polygon fill="none" stroke="#000000" points="679.5,-499.6249 679.5,-519.6249 828.5,-519.6249 828.5,-499.6249 679.5,-499.6249"/>
<text text-anchor="middle" x="754" y="-506.6249" font-family="FreeSans" font-size="10.00" fill="#000000">FairGeoMedia::getMedium</text>
</a>
</g>
</g>
<!-- Node17&#45;&gt;Node18 -->
<g id="edge19" class="edge">
<title>Node17&#45;&gt;Node18</title>
<path fill="none" stroke="#191970" d="M616.6051,-509.6249C633.7228,-509.6249 651.9228,-509.6249 669.2856,-509.6249"/>
<polygon fill="#191970" stroke="#191970" points="669.3974,-513.125 679.3974,-509.6249 669.3973,-506.125 669.3974,-513.125"/>
</g>
<!-- Node19 -->
<g id="node19" class="node">
<title>Node19</title>
<g id="a_node19"><a xlink:href="../../de/d6a/classFairGeoBuilder.html#a852b0d5861a7a6c1033aab59417d1c79" target="_top" xlink:title="FairGeoBuilder::createMedium">
<polygon fill="none" stroke="#000000" points="669.5,-460.6249 669.5,-480.6249 838.5,-480.6249 838.5,-460.6249 669.5,-460.6249"/>
<text text-anchor="middle" x="754" y="-467.6249" font-family="FreeSans" font-size="10.00" fill="#000000">FairGeoBuilder::createMedium</text>
</a>
</g>
</g>
<!-- Node17&#45;&gt;Node19 -->
<g id="edge20" class="edge">
<title>Node17&#45;&gt;Node19</title>
<path fill="none" stroke="#191970" d="M593.9966,-499.5814C622.9038,-494.3499 658.4316,-487.9203 688.6603,-482.4497"/>
<polygon fill="#191970" stroke="#191970" points="689.4746,-485.8593 698.6915,-480.6343 688.228,-478.9712 689.4746,-485.8593"/>
</g>
<!-- Node22&#45;&gt;Node4 -->
<g id="edge25" class="edge">
<title>Node22&#45;&gt;Node4</title>
<path fill="none" stroke="#191970" d="M617.7667,-343.2541C680.0241,-349.7061 768.8022,-359.9215 846,-372.6249 867.197,-376.113 890.8286,-381.0532 909.2809,-385.1509"/>
<polygon fill="#191970" stroke="#191970" points="908.695,-388.6065 919.2195,-387.3873 910.2318,-381.7773 908.695,-388.6065"/>
</g>
<!-- Node23 -->
<g id="node23" class="node">
<title>Node23</title>
<g id="a_node23"><a xlink:href="../../dd/d20/classEicBitMask.html#aba6083955032532d7dfc95069338dd27" target="_top" xlink:title="EicBitMask::GetBitMask">
<polygon fill="none" stroke="#000000" points="686.5,-382.6249 686.5,-402.6249 821.5,-402.6249 821.5,-382.6249 686.5,-382.6249"/>
<text text-anchor="middle" x="754" y="-389.6249" font-family="FreeSans" font-size="10.00" fill="#000000">EicBitMask::GetBitMask</text>
</a>
</g>
</g>
<!-- Node22&#45;&gt;Node23 -->
<g id="edge26" class="edge">
<title>Node22&#45;&gt;Node23</title>
<path fill="none" stroke="#191970" d="M599.1022,-351.6542C633.0271,-360.6274 674.7191,-371.655 706.3001,-380.0082"/>
<polygon fill="#191970" stroke="#191970" points="705.6131,-383.4468 716.1757,-382.6203 707.4031,-376.6795 705.6131,-383.4468"/>
</g>
<!-- Node24 -->
<g id="node24" class="node">
<title>Node24</title>
<g id="a_node24"><a xlink:href="../../dd/d20/classEicBitMask.html#a862ce5875cf47f78ff18aaed935966d9" target="_top" xlink:title="EicBitMask::GetShift">
<polygon fill="none" stroke="#000000" points="882,-276.6249 882,-296.6249 1001,-296.6249 1001,-276.6249 882,-276.6249"/>
<text text-anchor="middle" x="941.5" y="-283.6249" font-family="FreeSans" font-size="10.00" fill="#000000">EicBitMask::GetShift</text>
</a>
</g>
</g>
<!-- Node22&#45;&gt;Node24 -->
<g id="edge27" class="edge">
<title>Node22&#45;&gt;Node24</title>
<path fill="none" stroke="#191970" d="M566.8544,-319.5133C591.2103,-306.6553 627.7185,-289.6701 662,-282.6249 732.4041,-268.156 814.8969,-271.7677 871.9255,-277.3822"/>
<polygon fill="#191970" stroke="#191970" points="871.608,-280.8679 881.9142,-278.4116 872.3257,-273.9048 871.608,-280.8679"/>
</g>
<!-- Node25 -->
<g id="node25" class="node">
<title>Node25</title>
<g id="a_node25"><a xlink:href="../../da/d86/classEicGeoMap.html#a9c17af03744fe42ae8daf66f9bda7f06" target="_top" xlink:title="EicGeoMap::SetMappingTable\lEntry">
<polygon fill="none" stroke="#ff0000" points="671,-292.6249 671,-324.6249 837,-324.6249 837,-292.6249 671,-292.6249"/>
<text text-anchor="start" x="679" y="-311.6249" font-family="FreeSans" font-size="10.00" fill="#000000">EicGeoMap::SetMappingTable</text>
<text text-anchor="middle" x="754" y="-299.6249" font-family="FreeSans" font-size="10.00" fill="#000000">Entry</text>
</a>
</g>
</g>
<!-- Node22&#45;&gt;Node25 -->
<g id="edge28" class="edge">
<title>Node22&#45;&gt;Node25</title>
<path fill="none" stroke="#191970" d="M617.5206,-325.7244C631.44,-323.9804 646.0494,-322.15 660.3236,-320.3616"/>
<polygon fill="#191970" stroke="#191970" points="661.1562,-323.7847 670.6435,-319.0686 660.286,-316.839 661.1562,-323.7847"/>
</g>
<!-- Node25&#45;&gt;Node4 -->
<g id="edge29" class="edge">
<title>Node25&#45;&gt;Node4</title>
<path fill="none" stroke="#191970" d="M807.172,-324.7116C820.0555,-329.1083 833.6654,-334.1781 846,-339.6249 870.8943,-350.6177 897.8906,-365.9421 916.8083,-377.2866"/>
<polygon fill="#191970" stroke="#191970" points="915.0364,-380.3054 925.4015,-382.4996 918.6671,-374.3205 915.0364,-380.3054"/>
</g>
<!-- Node25&#45;&gt;Node24 -->
<g id="edge30" class="edge">
<title>Node25&#45;&gt;Node24</title>
<path fill="none" stroke="#191970" d="M837.059,-298.8793C848.6085,-297.5241 860.3773,-296.1433 871.6519,-294.8204"/>
<polygon fill="#191970" stroke="#191970" points="872.3227,-298.2658 881.8467,-293.6242 871.507,-291.3135 872.3227,-298.2658"/>
</g>
<!-- Node28&#45;&gt;Node29 -->
<g id="edge34" class="edge">
<title>Node28&#45;&gt;Node29</title>
<path fill="none" stroke="#191970" d="M543.001,-1367.0054C569.896,-1429.0324 709.4106,-1750.79 745.4802,-1833.9761"/>
<polygon fill="#191970" stroke="#191970" points="742.3344,-1835.5191 749.5237,-1843.3014 748.7567,-1832.7344 742.3344,-1835.5191"/>
</g>
<!-- Node36 -->
<g id="node36" class="node">
<title>Node36</title>
<g id="a_node36"><a xlink:href="../../d0/d5e/classPHTimer.html#adce6f9a85834e59bd154b9c624ee4e41" target="_top" xlink:title="stops the counter">
<polygon fill="none" stroke="#000000" points="710.5,-1384.6249 710.5,-1404.6249 797.5,-1404.6249 797.5,-1384.6249 710.5,-1384.6249"/>
<text text-anchor="middle" x="754" y="-1391.6249" font-family="FreeSans" font-size="10.00" fill="#000000">PHTimer::stop</text>
</a>
</g>
</g>
<!-- Node28&#45;&gt;Node36 -->
<g id="edge47" class="edge">
<title>Node28&#45;&gt;Node36</title>
<path fill="none" stroke="#191970" d="M563.2206,-1360.984C596.4523,-1366.8438 656.4195,-1377.4181 700.2766,-1385.1516"/>
<polygon fill="#191970" stroke="#191970" points="699.7559,-1388.6137 710.2118,-1386.9035 700.9716,-1381.7201 699.7559,-1388.6137"/>
</g>
<!-- Node29&#45;&gt;Node27 -->
<g id="edge35" class="edge">
<title>Node29&#45;&gt;Node27</title>
<path fill="none" stroke="#191970" d="M774.3725,-1863.726C836.1213,-1892.7778 1024.6321,-1969.8081 1150,-1894.6249 1185.5162,-1873.3258 1202.122,-1824.4416 1208.9291,-1796.7388"/>
<polygon fill="#191970" stroke="#191970" points="1212.353,-1797.466 1211.1433,-1786.9405 1205.5251,-1795.9231 1212.353,-1797.466"/>
</g>
<!-- Node30 -->
<g id="node30" class="node">
<title>Node30</title>
<g id="a_node30"><a xlink:href="../../d6/d80/luname_8f.html#a87cfaa02a00bc60d5b1ce6c2fce29432" target="_top" xlink:title="luname">
<polygon fill="none" stroke="#000000" points="914.5,-1843.6249 914.5,-1863.6249 968.5,-1863.6249 968.5,-1843.6249 914.5,-1843.6249"/>
<text text-anchor="middle" x="941.5" y="-1850.6249" font-family="FreeSans" font-size="10.00" fill="#000000">luname</text>
</a>
</g>
</g>
<!-- Node29&#45;&gt;Node30 -->
<g id="edge36" class="edge">
<title>Node29&#45;&gt;Node30</title>
<path fill="none" stroke="#191970" d="M774.7822,-1853.6249C805.896,-1853.6249 865.0715,-1853.6249 903.9,-1853.6249"/>
<polygon fill="#191970" stroke="#191970" points="904.2719,-1857.125 914.2719,-1853.6249 904.2719,-1850.125 904.2719,-1857.125"/>
</g>
<!-- Node32 -->
<g id="node32" class="node">
<title>Node32</title>
<g id="a_node32"><a xlink:href="../../d0/d38/plu_8f.html#ab4b095f080a22e776f5a9cc25e23cc54" target="_top" xlink:title="plu">
<polygon fill="none" stroke="#ff0000" points="925.5,-1500.6249 925.5,-1520.6249 957.5,-1520.6249 957.5,-1500.6249 925.5,-1500.6249"/>
<text text-anchor="middle" x="941.5" y="-1507.6249" font-family="FreeSans" font-size="10.00" fill="#000000">plu</text>
</a>
</g>
</g>
<!-- Node29&#45;&gt;Node32 -->
<g id="edge40" class="edge">
<title>Node29&#45;&gt;Node32</title>
<path fill="none" stroke="#191970" d="M759.6115,-1843.3596C785.8125,-1795.4293 896.2948,-1593.3202 931.0133,-1529.8085"/>
<polygon fill="#191970" stroke="#191970" points="934.1848,-1531.3035 935.9104,-1520.8502 928.0426,-1527.9459 934.1848,-1531.3035"/>
</g>
<!-- Node29&#45;&gt;Node34 -->
<g id="edge46" class="edge">
<title>Node29&#45;&gt;Node34</title>
<path fill="none" stroke="#191970" d="M755.1552,-1843.5367C760.8279,-1797.9308 789.3116,-1608.1609 882,-1490.6249 921.0078,-1441.1599 958.2931,-1459.9338 1001,-1413.6249 1044.1415,-1366.8448 1073.7444,-1296.2061 1086.4713,-1261.8379"/>
<polygon fill="#191970" stroke="#191970" points="1089.9081,-1262.6245 1090.0061,-1252.0301 1083.3228,-1260.251 1089.9081,-1262.6245"/>
</g>
<!-- Node30&#45;&gt;Node27 -->
<g id="edge39" class="edge">
<title>Node30&#45;&gt;Node27</title>
<path fill="none" stroke="#191970" d="M964.7676,-1863.6797C1005.1615,-1879.4877 1089.7089,-1905.1733 1150,-1872.6249 1179.816,-1856.5286 1197.8114,-1819.4878 1206.5391,-1796.4099"/>
<polygon fill="#191970" stroke="#191970" points="1209.8628,-1797.5092 1209.9062,-1786.9144 1203.2653,-1795.1697 1209.8628,-1797.5092"/>
</g>
<!-- Node31 -->
<g id="node31" class="node">
<title>Node31</title>
<g id="a_node31"><a xlink:href="../../df/d5f/luchge_8f.html#a86938fb3242850e133e3b60d256582b7" target="_top" xlink:title="luchge">
<polygon fill="none" stroke="#000000" points="1068.5,-1843.6249 1068.5,-1863.6249 1118.5,-1863.6249 1118.5,-1843.6249 1068.5,-1843.6249"/>
<text text-anchor="middle" x="1093.5" y="-1850.6249" font-family="FreeSans" font-size="10.00" fill="#000000">luchge</text>
</a>
</g>
</g>
<!-- Node30&#45;&gt;Node31 -->
<g id="edge37" class="edge">
<title>Node30&#45;&gt;Node31</title>
<path fill="none" stroke="#191970" d="M968.6746,-1853.6249C993.5516,-1853.6249 1030.5322,-1853.6249 1057.7883,-1853.6249"/>
<polygon fill="#191970" stroke="#191970" points="1058.0774,-1857.125 1068.0773,-1853.6249 1058.0773,-1850.125 1058.0774,-1857.125"/>
</g>
<!-- Node31&#45;&gt;Node27 -->
<g id="edge38" class="edge">
<title>Node31&#45;&gt;Node27</title>
<path fill="none" stroke="#191970" d="M1118.7161,-1844.2058C1128.7628,-1840.0132 1140.2353,-1834.6562 1150,-1828.6249 1166.2739,-1818.573 1182.8872,-1804.6789 1194.9649,-1793.7814"/>
<polygon fill="#191970" stroke="#191970" points="1197.5595,-1796.1499 1202.5419,-1786.7997 1192.8161,-1791.002 1197.5595,-1796.1499"/>
</g>
<!-- Node32&#45;&gt;Node31 -->
<g id="edge42" class="edge">
<title>Node32&#45;&gt;Node31</title>
<path fill="none" stroke="#191970" d="M946.0491,-1520.8902C967.2456,-1568.7219 1056.4854,-1770.0985 1084.8243,-1834.0474"/>
<polygon fill="#191970" stroke="#191970" points="1081.7173,-1835.6751 1088.9687,-1843.3996 1088.117,-1832.839 1081.7173,-1835.6751"/>
</g>
<!-- Node33 -->
<g id="node33" class="node">
<title>Node33</title>
<g id="a_node33"><a xlink:href="../../d4/d3e/classActs_1_1Logger.html#aee9e687247532b5175713e66b2d2121e" target="_top" xlink:title="create output stream object with internal cache">
<polygon fill="none" stroke="#ff0000" points="1042.5,-1078.6249 1042.5,-1098.6249 1144.5,-1098.6249 1144.5,-1078.6249 1042.5,-1078.6249"/>
<text text-anchor="middle" x="1093.5" y="-1085.6249" font-family="FreeSans" font-size="10.00" fill="#000000">Acts::Logger::log</text>
</a>
</g>
</g>
<!-- Node32&#45;&gt;Node33 -->
<g id="edge41" class="edge">
<title>Node32&#45;&gt;Node33</title>
<path fill="none" stroke="#191970" d="M949.4497,-1500.5247C962.3651,-1483.5823 987.788,-1447.9138 1001,-1413.6249 1032.216,-1332.6104 1011.88,-1304.7318 1037,-1221.6249 1049.6317,-1179.8342 1071.1985,-1133.4012 1083.7155,-1107.9487"/>
<polygon fill="#191970" stroke="#191970" points="1087.0014,-1109.2019 1088.3268,-1098.6902 1080.7356,-1106.0811 1087.0014,-1109.2019"/>
</g>
<!-- Node32&#45;&gt;Node34 -->
<g id="edge43" class="edge">
<title>Node32&#45;&gt;Node34</title>
<path fill="none" stroke="#191970" d="M957.6739,-1507.5566C970.9414,-1504.256 989.3702,-1497.7584 1001,-1485.6249 1032.8194,-1452.4271 1020.7509,-1431.6427 1037,-1388.6249 1054.2193,-1343.0386 1074.8482,-1289.6751 1085.7927,-1261.4598"/>
<polygon fill="#191970" stroke="#191970" points="1089.1298,-1262.5349 1089.4859,-1251.946 1082.6042,-1260.0017 1089.1298,-1262.5349"/>
</g>
<!-- Node34&#45;&gt;Node27 -->
<g id="edge44" class="edge">
<title>Node34&#45;&gt;Node27</title>
<path fill="none" stroke="#191970" d="M1106.7314,-1251.9129C1120.0622,-1263.0903 1140.0428,-1282.2372 1150,-1303.6249 1188.4913,-1386.3028 1207.3738,-1676.6356 1211.9052,-1756.2824"/>
<polygon fill="#191970" stroke="#191970" points="1208.421,-1756.6646 1212.4703,-1766.455 1215.4102,-1756.2763 1208.421,-1756.6646"/>
</g>
<!-- Node35 -->
<g id="node35" class="node">
<title>Node35</title>
<g id="a_node35"><a xlink:href="../../d5/dae/rlu_8f.html#a722544a6fb4dd0f67ceda726148484f5" target="_top" xlink:title="rlu">
<polygon fill="none" stroke="#000000" points="1198.5,-1040.6249 1198.5,-1060.6249 1227.5,-1060.6249 1227.5,-1040.6249 1198.5,-1040.6249"/>
<text text-anchor="middle" x="1213" y="-1047.6249" font-family="FreeSans" font-size="10.00" fill="#000000">rlu</text>
</a>
</g>
</g>
<!-- Node34&#45;&gt;Node35 -->
<g id="edge45" class="edge">
<title>Node34&#45;&gt;Node35</title>
<path fill="none" stroke="#191970" d="M1099.7566,-1231.6248C1118.7851,-1201.211 1176.1845,-1109.468 1201.1683,-1069.5358"/>
<polygon fill="#191970" stroke="#191970" points="1204.1786,-1071.3231 1206.5155,-1060.9892 1198.2444,-1067.6103 1204.1786,-1071.3231"/>
</g>
<!-- Node37 -->
<g id="node37" class="node">
<title>Node37</title>
<g id="a_node37"><a xlink:href="../../d0/d5e/classPHTimer.html#aa92e3fe4a0a1799f39743eda9ef9d497" target="_top" xlink:title="gets time from cpu clock counts">
<polygon fill="none" stroke="#000000" points="1037,-1398.6249 1037,-1430.6249 1150,-1430.6249 1150,-1398.6249 1037,-1398.6249"/>
<text text-anchor="start" x="1045" y="-1417.6249" font-family="FreeSans" font-size="10.00" fill="#000000">PHTimer::get_clock</text>
<text text-anchor="middle" x="1093.5" y="-1405.6249" font-family="FreeSans" font-size="10.00" fill="#000000">_counts</text>
</a>
</g>
</g>
<!-- Node36&#45;&gt;Node37 -->
<g id="edge48" class="edge">
<title>Node36&#45;&gt;Node37</title>
<path fill="none" stroke="#191970" d="M797.6644,-1402.6838C822.3262,-1406.838 853.775,-1411.4744 882,-1413.6249 930.3685,-1417.3102 985.1393,-1417.4582 1026.824,-1416.7384"/>
<polygon fill="#191970" stroke="#191970" points="1026.9269,-1420.2371 1036.8572,-1416.5441 1026.7913,-1413.2384 1026.9269,-1420.2371"/>
</g>
<!-- Node38 -->
<g id="node38" class="node">
<title>Node38</title>
<g id="a_node38"><a xlink:href="../../d0/d5e/classPHTimer.html#a976738876ad978116fdc4549a3765685" target="_top" xlink:title="retrieve elapsed value since last restart (in ms)">
<polygon fill="none" stroke="#ff0000" points="889,-1384.6249 889,-1404.6249 994,-1404.6249 994,-1384.6249 889,-1384.6249"/>
<text text-anchor="middle" x="941.5" y="-1391.6249" font-family="FreeSans" font-size="10.00" fill="#000000">PHTimer::elapsed</text>
</a>
</g>
</g>
<!-- Node36&#45;&gt;Node38 -->
<g id="edge49" class="edge">
<title>Node36&#45;&gt;Node38</title>
<path fill="none" stroke="#191970" d="M797.9604,-1394.6249C821.9451,-1394.6249 852.0547,-1394.6249 878.4953,-1394.6249"/>
<polygon fill="#191970" stroke="#191970" points="878.808,-1398.125 888.8079,-1394.6249 878.8079,-1391.125 878.808,-1398.125"/>
</g>
<!-- Node38&#45;&gt;Node37 -->
<g id="edge50" class="edge">
<title>Node38&#45;&gt;Node37</title>
<path fill="none" stroke="#191970" d="M994.2356,-1401.5638C1004.805,-1402.9545 1016.0387,-1404.4326 1027.0043,-1405.8754"/>
<polygon fill="#191970" stroke="#191970" points="1026.6014,-1409.3525 1036.9725,-1407.1871 1027.5146,-1402.4123 1026.6014,-1409.3525"/>
</g>
<!-- Node39&#45;&gt;Node2 -->
<g id="edge52" class="edge">
<title>Node39&#45;&gt;Node2</title>
<path fill="none" stroke="#191970" d="M109.7402,-1424.6127C111.1179,-1377.4562 119.8436,-1173.2045 170,-1015.6249 196.0439,-933.801 215.8362,-918.4289 258,-843.6249 280.1353,-804.3541 308.4245,-759.8278 324.2904,-735.3108"/>
<polygon fill="#191970" stroke="#191970" points="327.395,-736.9567 329.9086,-726.6643 321.5252,-733.1427 327.395,-736.9567"/>
</g>
<!-- Node39&#45;&gt;Node27 -->
<g id="edge57" class="edge">
<title>Node39&#45;&gt;Node27</title>
<path fill="none" stroke="#191970" d="M110.1345,-1444.7403C113.7531,-1492.8974 136.1954,-1700.2067 258,-1787.6249 327.8709,-1837.7707 365.0532,-1798.5117 451,-1801.6249 644.8963,-1808.6482 1110.6723,-1795.3602 1150,-1790.6249 1158.462,-1789.606 1167.4579,-1787.9565 1175.9231,-1786.141"/>
<polygon fill="#191970" stroke="#191970" points="1176.9356,-1789.5004 1185.914,-1783.8756 1175.3876,-1782.6737 1176.9356,-1789.5004"/>
</g>
<!-- Node39&#45;&gt;Node28 -->
<g id="edge72" class="edge">
<title>Node39&#45;&gt;Node28</title>
<path fill="none" stroke="#191970" d="M116.8688,-1444.6287C127.1895,-1457.8543 147.2564,-1480.8545 170,-1492.6249 266.9384,-1542.7928 316.5191,-1556.6927 415,-1509.6249 473.6149,-1481.6105 513.3332,-1410.692 529.8568,-1376.1423"/>
<polygon fill="#191970" stroke="#191970" points="533.2142,-1377.2208 534.2354,-1366.6753 526.8608,-1374.2823 533.2142,-1377.2208"/>
</g>
<!-- Node39&#45;&gt;Node29 -->
<g id="edge84" class="edge">
<title>Node39&#45;&gt;Node29</title>
<path fill="none" stroke="#191970" d="M110.6291,-1444.7878C116.8611,-1500.1922 147.5877,-1764.3413 170,-1792.6249 238.8534,-1879.5157 612.2857,-1862.7901 723.0298,-1855.7957"/>
<polygon fill="#191970" stroke="#191970" points="723.4468,-1859.2761 733.1982,-1855.1336 722.9919,-1852.2909 723.4468,-1859.2761"/>
</g>
<!-- Node39&#45;&gt;Node31 -->
<g id="edge56" class="edge">
<title>Node39&#45;&gt;Node31</title>
<path fill="none" stroke="#191970" d="M109.8138,-1444.9474C111.6803,-1500.1793 122.8976,-1760.5908 170,-1822.6249 214.0581,-1880.6497 349.0209,-1968.6249 538.5,-1968.6249 538.5,-1968.6249 538.5,-1968.6249 754,-1968.6249 877.2434,-1968.6249 1012.9822,-1899.8014 1068.1265,-1868.6388"/>
<polygon fill="#191970" stroke="#191970" points="1069.9332,-1871.6376 1076.8698,-1863.6292 1066.4531,-1865.5639 1069.9332,-1871.6376"/>
</g>
<!-- Node40 -->
<g id="node40" class="node">
<title>Node40</title>
<g id="a_node40"><a xlink:href="../../da/da6/luboei_8f.html#a762ad9eeab644f704f5de8395bd89997" target="_top" xlink:title="luboei">
<polygon fill="none" stroke="#000000" points="313,-667.6249 313,-687.6249 360,-687.6249 360,-667.6249 313,-667.6249"/>
<text text-anchor="middle" x="336.5" y="-674.6249" font-family="FreeSans" font-size="10.00" fill="#000000">luboei</text>
</a>
</g>
</g>
<!-- Node39&#45;&gt;Node40 -->
<g id="edge53" class="edge">
<title>Node39&#45;&gt;Node40</title>
<path fill="none" stroke="#191970" d="M110.2308,-1424.6013C114.9777,-1360.3293 142.1126,-1005.4414 170,-900.6249 195.3882,-805.2018 182.5096,-760.2749 258,-696.6249 270.3682,-686.1966 287.5327,-681.3088 302.6581,-679.0856"/>
<polygon fill="#191970" stroke="#191970" points="303.1813,-682.5487 312.7198,-677.9369 302.3873,-675.5939 303.1813,-682.5487"/>
</g>
<!-- Node41 -->
<g id="node41" class="node">
<title>Node41</title>
<g id="a_node41"><a xlink:href="../../d6/d6b/ludecy_8f.html#ac4ce13e6008631f348288f05b28e3df9" target="_top" xlink:title="ludecy">
<polygon fill="none" stroke="#000000" points="171,-1191.6249 171,-1211.6249 221,-1211.6249 221,-1191.6249 171,-1191.6249"/>
<text text-anchor="middle" x="196" y="-1198.6249" font-family="FreeSans" font-size="10.00" fill="#000000">ludecy</text>
</a>
</g>
</g>
<!-- Node39&#45;&gt;Node41 -->
<g id="edge58" class="edge">
<title>Node39&#45;&gt;Node41</title>
<path fill="none" stroke="#191970" d="M113.2168,-1424.6132C126.3846,-1389.1438 170.9702,-1269.0462 188.6702,-1221.3686"/>
<polygon fill="#191970" stroke="#191970" points="192.0004,-1222.4547 192.1996,-1211.8617 185.438,-1220.0184 192.0004,-1222.4547"/>
</g>
<!-- Node46 -->
<g id="node46" class="node">
<title>Node46</title>
<g id="a_node46"><a xlink:href="../../d9/dc0/luindf_8f.html#a0eb013ccdb0ba3b352ebfd4ed8aafa72" target="_top" xlink:title="luindf">
<polygon fill="none" stroke="#ff0000" points="173,-1025.6249 173,-1045.6249 219,-1045.6249 219,-1025.6249 173,-1025.6249"/>
<text text-anchor="middle" x="196" y="-1032.6249" font-family="FreeSans" font-size="10.00" fill="#000000">luindf</text>
</a>
</g>
</g>
<!-- Node39&#45;&gt;Node46 -->
<g id="edge73" class="edge">
<title>Node39&#45;&gt;Node46</title>
<path fill="none" stroke="#191970" d="M111.7251,-1424.3609C123.2214,-1371.332 175.9551,-1128.0862 191.6078,-1055.8849"/>
<polygon fill="#191970" stroke="#191970" points="195.0913,-1056.3355 193.7896,-1045.821 188.2503,-1054.8524 195.0913,-1056.3355"/>
</g>
<!-- Node48 -->
<g id="node48" class="node">
<title>Node48</title>
<g id="a_node48"><a xlink:href="../../da/d22/luprep_8f.html#aad1b09d3910be6e5fd985cf9a9860fc5" target="_top" xlink:title="luprep">
<polygon fill="none" stroke="#ff0000" points="171.5,-1463.6249 171.5,-1483.6249 220.5,-1483.6249 220.5,-1463.6249 171.5,-1463.6249"/>
<text text-anchor="middle" x="196" y="-1470.6249" font-family="FreeSans" font-size="10.00" fill="#000000">luprep</text>
</a>
</g>
</g>
<!-- Node39&#45;&gt;Node48 -->
<g id="edge85" class="edge">
<title>Node39&#45;&gt;Node48</title>
<path fill="none" stroke="#191970" d="M131.7759,-1444.6683C141.7647,-1449.172 153.7229,-1454.5635 164.5981,-1459.4668"/>
<polygon fill="#191970" stroke="#191970" points="163.2447,-1462.6959 173.7996,-1463.6154 166.1219,-1456.3145 163.2447,-1462.6959"/>
</g>
<!-- Node49 -->
<g id="node49" class="node">
<title>Node49</title>
<g id="a_node49"><a xlink:href="../../d8/d7b/lushow_8f.html#a0bdbe298274d1bf15e7098046b96239e" target="_top" xlink:title="lushow">
<polygon fill="none" stroke="#ff0000" points="170,-215.6249 170,-235.6249 222,-235.6249 222,-215.6249 170,-215.6249"/>
<text text-anchor="middle" x="196" y="-222.6249" font-family="FreeSans" font-size="10.00" fill="#000000">lushow</text>
</a>
</g>
</g>
<!-- Node39&#45;&gt;Node49 -->
<g id="edge94" class="edge">
<title>Node39&#45;&gt;Node49</title>
<path fill="none" stroke="#191970" d="M110.2218,-1424.5361C117.8719,-1317.6123 183.964,-393.851 194.5674,-245.6479"/>
<polygon fill="#191970" stroke="#191970" points="198.0585,-245.8965 195.2811,-235.6722 191.0763,-245.3969 198.0585,-245.8965"/>
</g>
<!-- Node50 -->
<g id="node50" class="node">
<title>Node50</title>
<g id="a_node50"><a xlink:href="../../d9/d23/lustrf_8f.html#a5941611caddf798b636f4885a175c69e" target="_top" xlink:title="lustrf">
<polygon fill="none" stroke="#ff0000" points="174.5,-1385.6249 174.5,-1405.6249 217.5,-1405.6249 217.5,-1385.6249 174.5,-1385.6249"/>
<text text-anchor="middle" x="196" y="-1392.6249" font-family="FreeSans" font-size="10.00" fill="#000000">lustrf</text>
</a>
</g>
</g>
<!-- Node39&#45;&gt;Node50 -->
<g id="edge101" class="edge">
<title>Node39&#45;&gt;Node50</title>
<path fill="none" stroke="#191970" d="M131.7759,-1424.5814C141.9195,-1420.008 154.0941,-1414.5189 165.1031,-1409.5553"/>
<polygon fill="#191970" stroke="#191970" points="166.7196,-1412.6658 174.3973,-1405.3648 163.8424,-1406.2844 166.7196,-1412.6658"/>
</g>
<!-- Node40&#45;&gt;Node28 -->
<g id="edge54" class="edge">
<title>Node40&#45;&gt;Node28</title>
<path fill="none" stroke="#191970" d="M360.0918,-676.5712C377.9343,-677.1593 401.5797,-681.1652 415,-696.6249 469.4446,-759.343 434.8488,-987.1576 451,-1068.6249 471.4625,-1171.8388 513.8685,-1290.8619 531.0392,-1336.9698"/>
<polygon fill="#191970" stroke="#191970" points="527.866,-1338.476 534.6579,-1346.6074 534.4193,-1336.0153 527.866,-1338.476"/>
</g>
<!-- Node40&#45;&gt;Node34 -->
<g id="edge55" class="edge">
<title>Node40&#45;&gt;Node34</title>
<path fill="none" stroke="#191970" d="M338.2089,-667.5635C347.5457,-613.7679 394.0627,-360.634 451,-309.6249 542.311,-227.821 912.4778,-181.8109 1001,-266.6249 1034.7676,-298.9779 1026.7534,-1061.9962 1037,-1107.6249 1046.6696,-1150.684 1069.4756,-1197.4145 1082.9708,-1222.7279"/>
<polygon fill="#191970" stroke="#191970" points="1079.9511,-1224.5014 1087.8003,-1231.6176 1086.102,-1221.1598 1079.9511,-1224.5014"/>
</g>
<!-- Node41&#45;&gt;Node2 -->
<g id="edge60" class="edge">
<title>Node41&#45;&gt;Node2</title>
<path fill="none" stroke="#191970" d="M197.8499,-1191.2918C202.1402,-1167.2994 213.0828,-1105.9491 222,-1054.6249 238.2846,-960.8961 224.3706,-932.6155 258,-843.6249 273.8436,-801.6993 304.0969,-758.4712 322.0664,-734.8268"/>
<polygon fill="#191970" stroke="#191970" points="324.9497,-736.8196 328.2963,-726.7672 319.4114,-732.5386 324.9497,-736.8196"/>
</g>
<!-- Node41&#45;&gt;Node27 -->
<g id="edge63" class="edge">
<title>Node41&#45;&gt;Node27</title>
<path fill="none" stroke="#191970" d="M221.2542,-1202.6594C359.1688,-1208.8576 1019.8495,-1245.7745 1150,-1388.6249 1199.8499,-1443.3391 1210.4534,-1683.9187 1212.5289,-1756.0886"/>
<polygon fill="#191970" stroke="#191970" points="1209.0413,-1756.6098 1212.8016,-1766.5149 1216.0389,-1756.4267 1209.0413,-1756.6098"/>
</g>
<!-- Node41&#45;&gt;Node28 -->
<g id="edge64" class="edge">
<title>Node41&#45;&gt;Node28</title>
<path fill="none" stroke="#191970" d="M204.0723,-1211.8958C214.9214,-1224.9854 235.4655,-1247.3792 258,-1259.6249 321.1732,-1293.9546 351.6537,-1264.6156 415,-1298.6249 434.1233,-1308.8918 432.0583,-1321.0266 451,-1331.6249 467.3273,-1340.7603 487.2728,-1346.7936 503.9952,-1350.6398"/>
<polygon fill="#191970" stroke="#191970" points="503.4193,-1354.0957 513.9296,-1352.7602 504.8805,-1347.2499 503.4193,-1354.0957"/>
</g>
<!-- Node41&#45;&gt;Node33 -->
<g id="edge62" class="edge">
<title>Node41&#45;&gt;Node33</title>
<path fill="none" stroke="#191970" d="M221.0624,-1192.1024C232.2427,-1188.1241 245.6532,-1183.7179 258,-1180.6249 541.4475,-1109.6169 892.6473,-1093.4049 1032.1936,-1089.7113"/>
<polygon fill="#191970" stroke="#191970" points="1032.3596,-1093.2083 1042.268,-1089.4568 1032.1828,-1086.2105 1032.3596,-1093.2083"/>
</g>
<!-- Node41&#45;&gt;Node34 -->
<g id="edge71" class="edge">
<title>Node41&#45;&gt;Node34</title>
<path fill="none" stroke="#191970" d="M221.123,-1194.6192C232.3145,-1191.8453 245.717,-1188.9944 258,-1187.6249 327.348,-1179.8926 345.2224,-1187.4595 415,-1187.6249 508.7786,-1187.8471 532.3833,-1183.1126 626,-1188.6249 787.4039,-1198.1285 978.7034,-1224.6213 1057.1736,-1236.1495"/>
<polygon fill="#191970" stroke="#191970" points="1057.078,-1239.6733 1067.4824,-1237.6735 1058.1018,-1232.7486 1057.078,-1239.6733"/>
</g>
<!-- Node41&#45;&gt;Node35 -->
<g id="edge70" class="edge">
<title>Node41&#45;&gt;Node35</title>
<path fill="none" stroke="#191970" d="M197.8393,-1191.4392C206.9156,-1141.427 246.935,-923.8911 258,-914.6249 342.5598,-843.8112 643.7052,-896.6249 754,-896.6249 754,-896.6249 754,-896.6249 941.5,-896.6249 966.914,-896.6249 1072.0395,-928.2607 1150,-982.6249 1169.8631,-996.476 1188.1411,-1017.5367 1199.8352,-1032.5467"/>
<polygon fill="#191970" stroke="#191970" points="1197.0948,-1034.7255 1205.922,-1040.5849 1202.6754,-1030.4997 1197.0948,-1034.7255"/>
</g>
<!-- Node42 -->
<g id="node42" class="node">
<title>Node42</title>
<g id="a_node42"><a xlink:href="../../df/de8/cemc_8C.html#a72d4716092b469b4bc1d816359a90e14" target="_top" xlink:title="cos">
<polygon fill="none" stroke="#000000" points="522,-1039.6249 522,-1059.6249 555,-1059.6249 555,-1039.6249 522,-1039.6249"/>
<text text-anchor="middle" x="538.5" y="-1046.6249" font-family="FreeSans" font-size="10.00" fill="#000000">cos</text>
</a>
</g>
</g>
<!-- Node41&#45;&gt;Node42 -->
<g id="edge59" class="edge">
<title>Node41&#45;&gt;Node42</title>
<path fill="none" stroke="#191970" d="M197.4981,-1191.4602C201.7696,-1166.5035 216.4991,-1102.1722 258,-1073.6249 336.5488,-1019.5933 458.2488,-1033.9675 511.7371,-1043.8724"/>
<polygon fill="#191970" stroke="#191970" points="511.2993,-1047.3529 521.7844,-1045.832 512.6395,-1040.4823 511.2993,-1047.3529"/>
</g>
<!-- Node43 -->
<g id="node43" class="node">
<title>Node43</title>
<g id="a_node43"><a xlink:href="../../dd/db6/classActs_1_1FiniteStateMachine.html#accf83819414f8d062810932538205f10" target="_top" xlink:title="Acts::FiniteStateMachine::is">
<polygon fill="none" stroke="#000000" points="258,-1308.6249 258,-1328.6249 415,-1328.6249 415,-1308.6249 258,-1308.6249"/>
<text text-anchor="middle" x="336.5" y="-1315.6249" font-family="FreeSans" font-size="10.00" fill="#000000">Acts::FiniteStateMachine::is</text>
</a>
</g>
</g>
<!-- Node41&#45;&gt;Node43 -->
<g id="edge61" class="edge">
<title>Node41&#45;&gt;Node43</title>
<path fill="none" stroke="#191970" d="M200.1386,-1211.8421C208.3279,-1230.7873 228.4057,-1271.4498 258,-1293.6249 263.9806,-1298.1062 270.79,-1301.7996 277.8408,-1304.8402"/>
<polygon fill="#191970" stroke="#191970" points="276.9606,-1308.2523 287.5499,-1308.5943 279.4851,-1301.7234 276.9606,-1308.2523"/>
</g>
<!-- Node44 -->
<g id="node44" class="node">
<title>Node44</title>
<g id="a_node44"><a xlink:href="../../da/d2d/lukfdi_8f.html#a46954bb4ec2e8b9e55b3dd72f4b8df11" target="_top" xlink:title="lukfdi">
<polygon fill="none" stroke="#000000" points="314.5,-1230.6249 314.5,-1250.6249 358.5,-1250.6249 358.5,-1230.6249 314.5,-1230.6249"/>
<text text-anchor="middle" x="336.5" y="-1237.6249" font-family="FreeSans" font-size="10.00" fill="#000000">lukfdi</text>
</a>
</g>
</g>
<!-- Node41&#45;&gt;Node44 -->
<g id="edge65" class="edge">
<title>Node41&#45;&gt;Node44</title>
<path fill="none" stroke="#191970" d="M221.1186,-1208.5973C244.428,-1215.0675 279.2333,-1224.7288 304.5188,-1231.7475"/>
<polygon fill="#191970" stroke="#191970" points="303.8011,-1235.1806 314.373,-1234.4829 305.6735,-1228.4356 303.8011,-1235.1806"/>
</g>
<!-- Node45 -->
<g id="node45" class="node">
<title>Node45</title>
<g id="a_node45"><a xlink:href="../../d8/d1a/classHiMain1.html#a676ccaef5fa9c10e945e6d1477aeb366" target="_top" xlink:title="HiMain1::np">
<polygon fill="none" stroke="#ff0000" points="298,-1424.6249 298,-1444.6249 375,-1444.6249 375,-1424.6249 298,-1424.6249"/>
<text text-anchor="middle" x="336.5" y="-1431.6249" font-family="FreeSans" font-size="10.00" fill="#000000">HiMain1::np</text>
</a>
</g>
</g>
<!-- Node41&#45;&gt;Node45 -->
<g id="edge69" class="edge">
<title>Node41&#45;&gt;Node45</title>
<path fill="none" stroke="#191970" d="M199.6826,-1211.9655C208.2121,-1235.3085 230.6945,-1293.491 258,-1337.6249 276.4679,-1367.4746 303.0035,-1398.3953 319.9971,-1417.0746"/>
<polygon fill="#191970" stroke="#191970" points="317.5071,-1419.5374 326.8573,-1424.5198 322.655,-1414.794 317.5071,-1419.5374"/>
</g>
<!-- Node44&#45;&gt;Node27 -->
<g id="edge66" class="edge">
<title>Node44&#45;&gt;Node27</title>
<path fill="none" stroke="#191970" d="M358.8669,-1241.8742C412.0656,-1246.0077 547.5429,-1263.5347 626,-1336.6249 653.6416,-1362.3756 635.9343,-1386.28 662,-1413.6249 830.8468,-1590.7576 972.7218,-1499.9308 1150,-1668.6249 1176.7278,-1694.0585 1195.7357,-1733.3275 1205.4928,-1756.8486"/>
<polygon fill="#191970" stroke="#191970" points="1202.3632,-1758.4497 1209.3193,-1766.4412 1208.865,-1755.8561 1202.3632,-1758.4497"/>
</g>
<!-- Node44&#45;&gt;Node28 -->
<g id="edge67" class="edge">
<title>Node44&#45;&gt;Node28</title>
<path fill="none" stroke="#191970" d="M358.6038,-1243.144C375.6255,-1246.072 398.8931,-1252.3344 415,-1265.6249 440.7723,-1286.8906 424.9114,-1310.7483 451,-1331.6249 465.9144,-1343.5597 486.2585,-1349.7975 503.5768,-1353.0575"/>
<polygon fill="#191970" stroke="#191970" points="503.4625,-1356.5845 513.8932,-1354.7268 504.5807,-1349.6744 503.4625,-1356.5845"/>
</g>
<!-- Node44&#45;&gt;Node35 -->
<g id="edge68" class="edge">
<title>Node44&#45;&gt;Node35</title>
<path fill="none" stroke="#191970" d="M358.571,-1241.4477C456.7713,-1244.2313 861.8219,-1246.3862 1150,-1107.6249 1168.9686,-1098.4913 1186.3698,-1081.8231 1198.0547,-1068.8617"/>
<polygon fill="#191970" stroke="#191970" points="1200.966,-1070.8464 1204.8669,-1060.9958 1195.6745,-1066.2637 1200.966,-1070.8464"/>
</g>
<!-- Node46&#45;&gt;Node2 -->
<g id="edge74" class="edge">
<title>Node46&#45;&gt;Node2</title>
<path fill="none" stroke="#191970" d="M199.3968,-1025.4087C204.3917,-1010.3623 213.9927,-981.3508 222,-956.6249 238.2391,-906.4795 235.978,-891.5133 258,-843.6249 276.8216,-802.696 306.2679,-758.8059 323.238,-734.8393"/>
<polygon fill="#191970" stroke="#191970" points="326.1063,-736.8453 329.0829,-726.6771 320.4151,-732.7698 326.1063,-736.8453"/>
</g>
<!-- Node46&#45;&gt;Node27 -->
<g id="edge75" class="edge">
<title>Node46&#45;&gt;Node27</title>
<path fill="none" stroke="#191970" d="M200.438,-1025.5373C212.8119,-997.6355 247.4769,-921.057 258,-914.6249 317.5368,-878.2338 345.4447,-909.0568 415,-914.6249 581.3479,-927.9414 1040.3123,-942.857 1150,-1068.6249 1196.4153,-1121.8447 1210.1947,-1645.927 1212.5919,-1756.291"/>
<polygon fill="#191970" stroke="#191970" points="1209.0952,-1756.4902 1212.8046,-1766.4145 1216.0937,-1756.3431 1209.0952,-1756.4902"/>
</g>
<!-- Node46&#45;&gt;Node28 -->
<g id="edge76" class="edge">
<title>Node46&#45;&gt;Node28</title>
<path fill="none" stroke="#191970" d="M209.1013,-1045.6962C243.9,-1072.6545 341.0354,-1149.264 415,-1220.6249 456.4221,-1260.5889 500.8176,-1311.7941 523.409,-1338.5308"/>
<polygon fill="#191970" stroke="#191970" points="520.8321,-1340.9046 529.9464,-1346.3065 526.1901,-1336.3999 520.8321,-1340.9046"/>
</g>
<!-- Node46&#45;&gt;Node34 -->
<g id="edge83" class="edge">
<title>Node46&#45;&gt;Node34</title>
<path fill="none" stroke="#191970" d="M219.3029,-1039.6015C316.1496,-1056.3501 696.0156,-1124.2431 1001,-1209.6249 1020.0138,-1214.9479 1040.8237,-1222.0313 1057.8821,-1228.1804"/>
<polygon fill="#191970" stroke="#191970" points="1056.8564,-1231.5318 1067.4503,-1231.6725 1059.2564,-1224.9561 1056.8564,-1231.5318"/>
</g>
<!-- Node46&#45;&gt;Node35 -->
<g id="edge82" class="edge">
<title>Node46&#45;&gt;Node35</title>
<path fill="none" stroke="#191970" d="M196.6608,-1025.4696C199.7609,-981.0111 214.5839,-799.4265 258,-657.6249 318.0241,-461.5798 295.8383,-372.645 451,-238.6249 557.2188,-146.8789 613.6442,-149.6249 754,-149.6249 754,-149.6249 754,-149.6249 941.5,-149.6249 969.5432,-149.6249 982.2164,-149.8019 1001,-170.6249 1122.3499,-305.1497 1197.0834,-911.2138 1210.7324,-1030.2849"/>
<polygon fill="#191970" stroke="#191970" points="1207.2889,-1030.9821 1211.8922,-1040.5246 1214.2445,-1030.1942 1207.2889,-1030.9821"/>
</g>
<!-- Node46&#45;&gt;Node44 -->
<g id="edge77" class="edge">
<title>Node46&#45;&gt;Node44</title>
<path fill="none" stroke="#191970" d="M201.42,-1045.6256C211.7449,-1064.4601 235.2399,-1106.2952 258,-1139.6249 278.619,-1169.8191 305.1844,-1202.9497 321.5199,-1222.7517"/>
<polygon fill="#191970" stroke="#191970" points="318.967,-1225.156 328.0476,-1230.6144 324.3528,-1220.6846 318.967,-1225.156"/>
</g>
<!-- Node47 -->
<g id="node47" class="node">
<title>Node47</title>
<g id="a_node47"><a xlink:href="../../d7/d1a/luptdi_8f.html#adec49ca8d72a0d30c298eb014457d5fd" target="_top" xlink:title="luptdi">
<polygon fill="none" stroke="#ff0000" points="314,-924.6249 314,-944.6249 359,-944.6249 359,-924.6249 314,-924.6249"/>
<text text-anchor="middle" x="336.5" y="-931.6249" font-family="FreeSans" font-size="10.00" fill="#000000">luptdi</text>
</a>
</g>
</g>
<!-- Node46&#45;&gt;Node47 -->
<g id="edge78" class="edge">
<title>Node46&#45;&gt;Node47</title>
<path fill="none" stroke="#191970" d="M209.9853,-1025.5714C234.3916,-1008.0267 284.9456,-971.6854 314.2213,-950.6402"/>
<polygon fill="#191970" stroke="#191970" points="316.4944,-953.3166 322.5712,-944.6377 312.4085,-947.6328 316.4944,-953.3166"/>
</g>
<!-- Node47&#45;&gt;Node33 -->
<g id="edge80" class="edge">
<title>Node47&#45;&gt;Node33</title>
<path fill="none" stroke="#191970" d="M359.0161,-935.3422C375.3972,-936.6902 397.6526,-940.2837 415,-949.6249 435.2013,-960.5028 430.6306,-976.0651 451,-986.6249 476.7907,-999.9951 876.2328,-1057.7725 1031.9836,-1079.9301"/>
<polygon fill="#191970" stroke="#191970" points="1031.9332,-1083.458 1042.3262,-1081.4 1032.9182,-1076.5277 1031.9332,-1083.458"/>
</g>
<!-- Node47&#45;&gt;Node35 -->
<g id="edge81" class="edge">
<title>Node47&#45;&gt;Node35</title>
<path fill="none" stroke="#191970" d="M359.0624,-938.1317C421.6146,-947.5389 602.6129,-972.6249 754,-972.6249 754,-972.6249 754,-972.6249 941.5,-972.6249 1036.3059,-972.6249 1142.7472,-1017.1031 1189.1896,-1038.8852"/>
<polygon fill="#191970" stroke="#191970" points="1187.8829,-1042.1396 1198.4154,-1043.2868 1190.8972,-1035.8218 1187.8829,-1042.1396"/>
</g>
<!-- Node47&#45;&gt;Node42 -->
<g id="edge79" class="edge">
<title>Node47&#45;&gt;Node42</title>
<path fill="none" stroke="#191970" d="M359.2826,-937.2957C376.2247,-940.2897 399.0716,-946.5678 415,-959.6249 440.5395,-980.5605 425.1492,-1004.0749 451,-1024.6249 468.4494,-1038.4962 493.2437,-1044.6714 511.9862,-1047.4202"/>
<polygon fill="#191970" stroke="#191970" points="511.6025,-1050.8993 521.9555,-1048.6485 512.4586,-1043.9518 511.6025,-1050.8993"/>
</g>
<!-- Node48&#45;&gt;Node2 -->
<g id="edge87" class="edge">
<title>Node48&#45;&gt;Node2</title>
<path fill="none" stroke="#191970" d="M201.7201,-1463.5622C207.9181,-1452.1123 217.5205,-1432.6581 222,-1414.6249 275.7113,-1198.3986 208.3651,-1131.8232 258,-914.6249 273.5955,-846.3801 309.054,-770.7907 326.4694,-736.04"/>
<polygon fill="#191970" stroke="#191970" points="329.6581,-737.4905 331.0628,-726.9891 323.416,-734.3225 329.6581,-737.4905"/>
</g>
<!-- Node48&#45;&gt;Node27 -->
<g id="edge88" class="edge">
<title>Node48&#45;&gt;Node27</title>
<path fill="none" stroke="#191970" d="M196.6429,-1483.6651C199.7963,-1529.4356 215.2407,-1717.6377 258,-1753.6249 342.4209,-1824.6754 643.6593,-1776.6249 754,-1776.6249 754,-1776.6249 754,-1776.6249 941.5,-1776.6249 1025.0646,-1776.6249 1123.0967,-1776.6249 1175.4815,-1776.6249"/>
<polygon fill="#191970" stroke="#191970" points="1175.6388,-1780.125 1185.6388,-1776.6249 1175.6387,-1773.125 1175.6388,-1780.125"/>
</g>
<!-- Node48&#45;&gt;Node28 -->
<g id="edge89" class="edge">
<title>Node48&#45;&gt;Node28</title>
<path fill="none" stroke="#191970" d="M220.561,-1482.1755C262.4199,-1495.2628 349.4129,-1515.9309 415,-1487.6249 468.3443,-1464.6026 509.3342,-1405.9466 527.7862,-1375.5425"/>
<polygon fill="#191970" stroke="#191970" points="530.9092,-1377.1368 532.9723,-1366.7448 524.879,-1373.5821 530.9092,-1377.1368"/>
</g>
<!-- Node48&#45;&gt;Node34 -->
<g id="edge93" class="edge">
<title>Node48&#45;&gt;Node34</title>
<path fill="none" stroke="#191970" d="M208.8696,-1483.8423C220.8144,-1492.6257 239.4911,-1504.641 258,-1509.6249 325.3778,-1527.7678 345.9997,-1520.012 415,-1509.6249 512.0333,-1495.0177 550.7787,-1507.6376 626,-1444.6249 652.818,-1422.1595 635.1837,-1397.0924 662,-1374.6249 665.9525,-1371.3133 955.1257,-1283.5314 1057.8137,-1252.4259"/>
<polygon fill="#191970" stroke="#191970" points="1058.8782,-1255.7606 1067.4344,-1249.5122 1056.8492,-1249.0611 1058.8782,-1255.7606"/>
</g>
<!-- Node48&#45;&gt;Node35 -->
<g id="edge92" class="edge">
<title>Node48&#45;&gt;Node35</title>
<path fill="none" stroke="#191970" d="M197.8118,-1483.8682C202.6458,-1507.7491 218.292,-1566.9571 258,-1591.6249 538.5024,-1765.8808 684.2224,-1684.8914 1001,-1591.6249 1073.7173,-1570.2153 1107.2214,-1571.2041 1150,-1508.6249 1199.8635,-1435.6814 1210.557,-1149.4341 1212.5735,-1070.7402"/>
<polygon fill="#191970" stroke="#191970" points="1216.0738,-1070.7658 1212.8117,-1060.6857 1209.0757,-1070.6 1216.0738,-1070.7658"/>
</g>
<!-- Node48&#45;&gt;Node42 -->
<g id="edge86" class="edge">
<title>Node48&#45;&gt;Node42</title>
<path fill="none" stroke="#191970" d="M220.5902,-1479.3774C264.8511,-1488.1772 358.5653,-1499.5045 415,-1453.6249 415.4925,-1453.2245 507.6324,-1150.9264 532.4202,-1069.5794"/>
<polygon fill="#191970" stroke="#191970" points="535.7704,-1070.5919 535.3372,-1060.0059 529.0744,-1068.5516 535.7704,-1070.5919"/>
</g>
<!-- Node48&#45;&gt;Node44 -->
<g id="edge90" class="edge">
<title>Node48&#45;&gt;Node44</title>
<path fill="none" stroke="#191970" d="M200.9669,-1463.3286C206.4898,-1451.6693 215.4891,-1432.0281 222,-1414.6249 240.915,-1364.066 226.7364,-1342.6313 258,-1298.6249 270.7517,-1280.6756 290.7823,-1266.0051 307.4176,-1255.909"/>
<polygon fill="#191970" stroke="#191970" points="309.356,-1258.8307 316.2423,-1250.779 305.8379,-1252.7789 309.356,-1258.8307"/>
</g>
<!-- Node48&#45;&gt;Node45 -->
<g id="edge91" class="edge">
<title>Node48&#45;&gt;Node45</title>
<path fill="none" stroke="#191970" d="M220.7952,-1466.7422C240.096,-1461.3847 267.4191,-1453.8004 290.6674,-1447.3471"/>
<polygon fill="#191970" stroke="#191970" points="291.6468,-1450.7077 300.3463,-1444.6604 289.7745,-1443.9627 291.6468,-1450.7077"/>
</g>
<!-- Node49&#45;&gt;Node2 -->
<g id="edge96" class="edge">
<title>Node49&#45;&gt;Node2</title>
<path fill="none" stroke="#191970" d="M196.6668,-235.8969C201.0166,-301.5472 226.1701,-660.7775 258,-696.6249 271.3006,-711.6043 294.1022,-716.1062 311.7146,-717.1527"/>
<polygon fill="#191970" stroke="#191970" points="311.7901,-720.6558 321.8788,-717.4205 311.9745,-713.6583 311.7901,-720.6558"/>
</g>
<!-- Node49&#45;&gt;Node28 -->
<g id="edge98" class="edge">
<title>Node49&#45;&gt;Node28</title>
<path fill="none" stroke="#191970" d="M196.3877,-235.6959C199.6399,-318.5954 223.119,-886.9635 258,-953.6249 300.0013,-1033.8938 360.0287,-1011.6154 415,-1083.6249 478.9858,-1167.4429 519.0741,-1289.6928 532.9913,-1336.9568"/>
<polygon fill="#191970" stroke="#191970" points="529.6332,-1337.9438 535.7661,-1346.5832 536.3594,-1336.0049 529.6332,-1337.9438"/>
</g>
<!-- Node49&#45;&gt;Node33 -->
<g id="edge97" class="edge">
<title>Node49&#45;&gt;Node33</title>
<path fill="none" stroke="#191970" d="M205.0364,-215.5356C216.265,-203.6466 236.5759,-184.1787 258,-173.6249 372.5331,-117.2045 410.8243,-111.6249 538.5,-111.6249 538.5,-111.6249 538.5,-111.6249 754,-111.6249 867.1833,-111.6249 926.9825,-87.9984 1001,-173.6249 1061.6252,-243.7586 1088.3818,-939.735 1092.8247,-1068.2702"/>
<polygon fill="#191970" stroke="#191970" points="1089.3384,-1068.7375 1093.1759,-1078.6129 1096.3344,-1068.4999 1089.3384,-1068.7375"/>
</g>
<!-- Node49&#45;&gt;Node34 -->
<g id="edge100" class="edge">
<title>Node49&#45;&gt;Node34</title>
<path fill="none" stroke="#191970" d="M222.1012,-220.7348C279.2311,-210.4716 419.7441,-187.6249 538.5,-187.6249 538.5,-187.6249 538.5,-187.6249 754,-187.6249 864.8744,-187.6249 926.6207,-140.4004 1001,-222.6249 1067.0207,-295.6092 1015.5385,-1011.5788 1037,-1107.6249 1046.6239,-1150.6942 1069.4466,-1197.421 1082.957,-1222.731"/>
<polygon fill="#191970" stroke="#191970" points="1079.9391,-1224.5077 1087.7923,-1231.6194 1086.0881,-1221.1626 1079.9391,-1224.5077"/>
</g>
<!-- Node49&#45;&gt;Node35 -->
<g id="edge99" class="edge">
<title>Node49&#45;&gt;Node35</title>
<path fill="none" stroke="#191970" d="M198.2053,-215.3359C203.71,-192.4976 220.4041,-137.7647 258,-114.6249 539.2441,58.4776 692.9628,13.4373 1001,-105.6249 1080.8328,-136.4818 1110.4351,-151.7299 1150,-227.6249 1188.1844,-300.8718 1208.6918,-909.8016 1212.389,-1030.0466"/>
<polygon fill="#191970" stroke="#191970" points="1208.9012,-1030.506 1212.7024,-1040.3955 1215.898,-1030.2941 1208.9012,-1030.506"/>
</g>
<!-- Node49&#45;&gt;Node42 -->
<g id="edge95" class="edge">
<title>Node49&#45;&gt;Node42</title>
<path fill="none" stroke="#191970" d="M202.6659,-235.7956C232.692,-282.1187 356.4554,-478.6 415,-657.6249 445.6593,-751.3787 420.3841,-782.8568 451,-876.6249 470.3245,-935.8104 507.4076,-999.7905 526.4956,-1030.7341"/>
<polygon fill="#191970" stroke="#191970" points="523.7495,-1032.9444 532.0154,-1039.572 529.6866,-1029.2362 523.7495,-1032.9444"/>
</g>
<!-- Node50&#45;&gt;Node2 -->
<g id="edge102" class="edge">
<title>Node50&#45;&gt;Node2</title>
<path fill="none" stroke="#191970" d="M197.6328,-1385.3833C201.904,-1358.4416 213.6532,-1283.3457 222,-1220.6249 240.0642,-1084.8836 224.4818,-1047.3974 258,-914.6249 275.1349,-846.7502 309.8559,-770.9836 326.7827,-736.1153"/>
<polygon fill="#191970" stroke="#191970" points="329.9768,-737.5512 331.2412,-727.032 323.693,-734.4668 329.9768,-737.5512"/>
</g>
<!-- Node50&#45;&gt;Node27 -->
<g id="edge105" class="edge">
<title>Node50&#45;&gt;Node27</title>
<path fill="none" stroke="#191970" d="M200.654,-1405.8696C205.8965,-1417.4415 214.6453,-1436.8483 222,-1453.6249 238.308,-1490.8247 227.9606,-1510.286 258,-1537.6249 398.7061,-1665.6816 1016.9623,-1751.7654 1175.7316,-1772.0294"/>
<polygon fill="#191970" stroke="#191970" points="1175.5762,-1775.5376 1185.9367,-1773.3217 1176.4556,-1768.593 1175.5762,-1775.5376"/>
</g>
<!-- Node50&#45;&gt;Node28 -->
<g id="edge106" class="edge">
<title>Node50&#45;&gt;Node28</title>
<path fill="none" stroke="#191970" d="M217.6704,-1389.987C229.513,-1387.0948 244.4818,-1383.7439 258,-1381.6249 345.8906,-1367.8478 450.554,-1361.0254 503.741,-1358.2315"/>
<polygon fill="#191970" stroke="#191970" points="504.1693,-1361.7143 513.9784,-1357.7104 503.8134,-1354.7233 504.1693,-1361.7143"/>
</g>
<!-- Node50&#45;&gt;Node33 -->
<g id="edge104" class="edge">
<title>Node50&#45;&gt;Node33</title>
<path fill="none" stroke="#191970" d="M217.623,-1397.7573C295.6792,-1404.9907 561.6909,-1425.4724 626,-1375.6249 669.0006,-1342.294 625.0346,-1298.5442 662,-1258.6249 716.4108,-1199.8661 946.7904,-1129.7808 1046.823,-1101.4477"/>
<polygon fill="#191970" stroke="#191970" points="1047.979,-1104.7583 1056.6557,-1098.6784 1046.0813,-1098.0205 1047.979,-1104.7583"/>
</g>
<!-- Node50&#45;&gt;Node34 -->
<g id="edge111" class="edge">
<title>Node50&#45;&gt;Node34</title>
<path fill="none" stroke="#191970" d="M202.9634,-1405.8136C213.1548,-1419.7129 233.5968,-1443.9898 258,-1453.6249 322.9022,-1479.25 345.5905,-1460.7849 415,-1453.6249 510.2894,-1443.7952 549.4353,-1467.1969 626,-1409.6249 653.3315,-1389.0732 634.8977,-1362.4779 662,-1341.6249 783.4668,-1248.1662 977.3353,-1239.6171 1057.2521,-1240.4147"/>
<polygon fill="#191970" stroke="#191970" points="1057.2569,-1243.9151 1067.3104,-1240.5718 1057.3663,-1236.9159 1057.2569,-1243.9151"/>
</g>
<!-- Node50&#45;&gt;Node35 -->
<g id="edge110" class="edge">
<title>Node50&#45;&gt;Node35</title>
<path fill="none" stroke="#191970" d="M201.5556,-1405.7465C211.0903,-1422.2711 232.0702,-1455.1502 258,-1474.6249 365.4677,-1555.3388 404.0974,-1587.6249 538.5,-1587.6249 538.5,-1587.6249 538.5,-1587.6249 754,-1587.6249 941.8902,-1587.6249 1044.8431,-1595.3321 1150,-1439.6249 1191.4392,-1378.2654 1207.8417,-1142.5757 1211.9208,-1071.2161"/>
<polygon fill="#191970" stroke="#191970" points="1215.4345,-1071.0619 1212.4896,-1060.8846 1208.4451,-1070.677 1215.4345,-1071.0619"/>
</g>
<!-- Node50&#45;&gt;Node43 -->
<g id="edge103" class="edge">
<title>Node50&#45;&gt;Node43</title>
<path fill="none" stroke="#191970" d="M205.6119,-1385.4496C217.0834,-1373.8428 237.3229,-1355.0044 258,-1343.6249 266.3701,-1339.0185 275.7166,-1335.1138 284.9603,-1331.8584"/>
<polygon fill="#191970" stroke="#191970" points="286.1161,-1335.1627 294.5106,-1328.6987 283.9173,-1328.5169 286.1161,-1335.1627"/>
</g>
<!-- Node50&#45;&gt;Node44 -->
<g id="edge107" class="edge">
<title>Node50&#45;&gt;Node44</title>
<path fill="none" stroke="#191970" d="M200.9202,-1385.4342C210.251,-1366.7833 231.9345,-1326.5148 258,-1298.6249 273.522,-1282.0165 294.3336,-1266.8869 310.6281,-1256.2474"/>
<polygon fill="#191970" stroke="#191970" points="312.5991,-1259.1417 319.1535,-1250.8176 308.8387,-1253.2374 312.5991,-1259.1417"/>
</g>
<!-- Node50&#45;&gt;Node45 -->
<g id="edge109" class="edge">
<title>Node50&#45;&gt;Node45</title>
<path fill="none" stroke="#191970" d="M217.6452,-1401.6332C236.9943,-1407.0041 265.9924,-1415.0534 290.5014,-1421.8566"/>
<polygon fill="#191970" stroke="#191970" points="289.7673,-1425.2851 300.3392,-1424.5873 291.6396,-1418.5401 289.7673,-1425.2851"/>
</g>
<!-- Node50&#45;&gt;Node47 -->
<g id="edge108" class="edge">
<title>Node50&#45;&gt;Node47</title>
<path fill="none" stroke="#191970" d="M199.0652,-1385.5675C216.7726,-1327.4672 306.034,-1034.588 330.3661,-954.7509"/>
<polygon fill="#191970" stroke="#191970" points="333.787,-955.5321 333.3544,-944.9461 327.091,-953.4913 333.787,-955.5321"/>
</g>
</g>
</svg>
