<?xml version="1.0" encoding="UTF-8" standalone="no"?>
<!DOCTYPE svg PUBLIC "-//W3C//DTD SVG 1.1//EN"
 "http://www.w3.org/Graphics/SVG/1.1/DTD/svg11.dtd">
<!-- Generated by graphviz version 2.40.1 (20161225.0304)
 -->
<!-- Title: fun4all_coresoftware/blob/master/simulation/g4simulation/g4vertex/GlobalVertexMap.h Pages: 1 -->
<svg width="1453pt" height="251pt"
 viewBox="0.00 0.00 1453.00 251.00" xmlns="http://www.w3.org/2000/svg" xmlns:xlink="http://www.w3.org/1999/xlink">
<g id="graph0" class="graph" transform="scale(1 1) rotate(0) translate(4 247)">
<title>fun4all_coresoftware/blob/master/simulation/g4simulation/g4vertex/GlobalVertexMap.h</title>
<!-- Node1 -->
<g id="node1" class="node">
<title>Node1</title>
<polygon fill="#bfbfbf" stroke="#000000" points="916.5,-186.5 916.5,-242.5 1053.5,-242.5 1053.5,-186.5 916.5,-186.5"/>
<text text-anchor="start" x="924.5" y="-229.5" font-family="FreeSans" font-size="10.00" fill="#000000">fun4all_coresoftware</text>
<text text-anchor="start" x="924.5" y="-217.5" font-family="FreeSans" font-size="10.00" fill="#000000">/blob/master/simulation</text>
<text text-anchor="start" x="924.5" y="-205.5" font-family="FreeSans" font-size="10.00" fill="#000000">/g4simulation/g4vertex</text>
<text text-anchor="middle" x="985" y="-193.5" font-family="FreeSans" font-size="10.00" fill="#000000">/GlobalVertexMap.h</text>
</g>
<!-- Node2 -->
<g id="node2" class="node">
<title>Node2</title>
<g id="a_node2"><a xlink:href="../../d6/d12/ClusterIso_8cc.html" target="_top" xlink:title="fun4all_coresoftware\l/blob/master/offline\l/packages/ClusterIso/Cluster\lIso.cc">
<polygon fill="none" stroke="#000000" points="0,-93.5 0,-149.5 162,-149.5 162,-93.5 0,-93.5"/>
<text text-anchor="start" x="8" y="-136.5" font-family="FreeSans" font-size="10.00" fill="#000000">fun4all_coresoftware</text>
<text text-anchor="start" x="8" y="-124.5" font-family="FreeSans" font-size="10.00" fill="#000000">/blob/master/offline</text>
<text text-anchor="start" x="8" y="-112.5" font-family="FreeSans" font-size="10.00" fill="#000000">/packages/ClusterIso/Cluster</text>
<text text-anchor="middle" x="81" y="-100.5" font-family="FreeSans" font-size="10.00" fill="#000000">Iso.cc</text>
</a>
</g>
</g>
<!-- Node1&#45;&gt;Node2 -->
<g id="edge1" class="edge">
<title>Node1&#45;&gt;Node2</title>
<path fill="none" stroke="#191970" d="M906.1728,-210.5448C730.3026,-201.3482 310.4004,-177.2252 171,-150 168.1046,-149.4345 165.1713,-148.8076 162.22,-148.1308"/>
<polygon fill="#191970" stroke="#191970" points="906.2199,-214.0519 916.3884,-211.0765 906.5838,-207.0614 906.2199,-214.0519"/>
</g>
<!-- Node3 -->
<g id="node3" class="node">
<title>Node3</title>
<g id="a_node3"><a xlink:href="../../de/dfa/DumpGlobalVertexMap_8cc.html" target="_top" xlink:title="fun4all_coresoftware\l/blob/master/offline\l/packages/NodeDump/DumpGlobal\lVertexMap.cc">
<polygon fill="none" stroke="#000000" points="180.5,-93.5 180.5,-149.5 375.5,-149.5 375.5,-93.5 180.5,-93.5"/>
<text text-anchor="start" x="188.5" y="-136.5" font-family="FreeSans" font-size="10.00" fill="#000000">fun4all_coresoftware</text>
<text text-anchor="start" x="188.5" y="-124.5" font-family="FreeSans" font-size="10.00" fill="#000000">/blob/master/offline</text>
<text text-anchor="start" x="188.5" y="-112.5" font-family="FreeSans" font-size="10.00" fill="#000000">/packages/NodeDump/DumpGlobal</text>
<text text-anchor="middle" x="278" y="-100.5" font-family="FreeSans" font-size="10.00" fill="#000000">VertexMap.cc</text>
</a>
</g>
</g>
<!-- Node1&#45;&gt;Node3 -->
<g id="edge2" class="edge">
<title>Node1&#45;&gt;Node3</title>
<path fill="none" stroke="#191970" d="M906.2959,-209.9754C790.9334,-202.4593 569.4925,-184.6716 384,-150 381.2839,-149.4923 378.5354,-148.9507 375.7669,-148.3806"/>
<polygon fill="#191970" stroke="#191970" points="906.2434,-213.4791 916.4474,-210.628 906.6926,-206.4936 906.2434,-213.4791"/>
</g>
<!-- Node4 -->
<g id="node4" class="node">
<title>Node4</title>
<g id="a_node4"><a xlink:href="../../d0/d13/CaloEvaluator_8cc.html" target="_top" xlink:title="fun4all_coresoftware\l/blob/master/simulation\l/g4simulation/g4eval/CaloEvaluator.cc">
<polygon fill="none" stroke="#000000" points="393.5,-99.5 393.5,-143.5 604.5,-143.5 604.5,-99.5 393.5,-99.5"/>
<text text-anchor="start" x="401.5" y="-130.5" font-family="FreeSans" font-size="10.00" fill="#000000">fun4all_coresoftware</text>
<text text-anchor="start" x="401.5" y="-118.5" font-family="FreeSans" font-size="10.00" fill="#000000">/blob/master/simulation</text>
<text text-anchor="middle" x="499" y="-106.5" font-family="FreeSans" font-size="10.00" fill="#000000">/g4simulation/g4eval/CaloEvaluator.cc</text>
</a>
</g>
</g>
<!-- Node1&#45;&gt;Node4 -->
<g id="edge3" class="edge">
<title>Node1&#45;&gt;Node4</title>
<path fill="none" stroke="#191970" d="M906.4567,-202.5002C831.1508,-190.6049 714.4077,-171.1423 614,-150 604.6405,-148.0292 594.887,-145.8341 585.1912,-143.5611"/>
<polygon fill="#191970" stroke="#191970" points="905.9216,-205.959 916.3441,-204.0561 907.0098,-199.0441 905.9216,-205.959"/>
</g>
<!-- Node5 -->
<g id="node5" class="node">
<title>Node5</title>
<g id="a_node5"><a xlink:href="../../d3/d8a/ClusterJetInput_8cc.html" target="_top" xlink:title="fun4all_coresoftware\l/blob/master/simulation\l/g4simulation/g4jets/ClusterJet\lInput.cc">
<polygon fill="none" stroke="#000000" points="623,-93.5 623,-149.5 797,-149.5 797,-93.5 623,-93.5"/>
<text text-anchor="start" x="631" y="-136.5" font-family="FreeSans" font-size="10.00" fill="#000000">fun4all_coresoftware</text>
<text text-anchor="start" x="631" y="-124.5" font-family="FreeSans" font-size="10.00" fill="#000000">/blob/master/simulation</text>
<text text-anchor="start" x="631" y="-112.5" font-family="FreeSans" font-size="10.00" fill="#000000">/g4simulation/g4jets/ClusterJet</text>
<text text-anchor="middle" x="710" y="-100.5" font-family="FreeSans" font-size="10.00" fill="#000000">Input.cc</text>
</a>
</g>
</g>
<!-- Node1&#45;&gt;Node5 -->
<g id="edge4" class="edge">
<title>Node1&#45;&gt;Node5</title>
<path fill="none" stroke="#191970" d="M906.4845,-187.9475C870.9848,-175.9421 829.0127,-161.7479 792.9942,-149.5671"/>
<polygon fill="#191970" stroke="#191970" points="905.721,-191.384 916.3153,-191.2721 907.9636,-184.7529 905.721,-191.384"/>
</g>
<!-- Node6 -->
<g id="node6" class="node">
<title>Node6</title>
<g id="a_node6"><a xlink:href="../../d4/d53/TowerJetInput_8cc.html" target="_top" xlink:title="fun4all_coresoftware\l/blob/master/simulation\l/g4simulation/g4jets/TowerJetInput.cc">
<polygon fill="none" stroke="#000000" points="815.5,-99.5 815.5,-143.5 1022.5,-143.5 1022.5,-99.5 815.5,-99.5"/>
<text text-anchor="start" x="823.5" y="-130.5" font-family="FreeSans" font-size="10.00" fill="#000000">fun4all_coresoftware</text>
<text text-anchor="start" x="823.5" y="-118.5" font-family="FreeSans" font-size="10.00" fill="#000000">/blob/master/simulation</text>
<text text-anchor="middle" x="919" y="-106.5" font-family="FreeSans" font-size="10.00" fill="#000000">/g4simulation/g4jets/TowerJetInput.cc</text>
</a>
</g>
</g>
<!-- Node1&#45;&gt;Node6 -->
<g id="edge5" class="edge">
<title>Node1&#45;&gt;Node6</title>
<path fill="none" stroke="#191970" d="M959.154,-178.0807C950.9046,-166.4564 942.0285,-153.9493 934.7248,-143.6577"/>
<polygon fill="#191970" stroke="#191970" points="956.3769,-180.2151 965.0187,-186.3446 962.0855,-176.1638 956.3769,-180.2151"/>
</g>
<!-- Node7 -->
<g id="node7" class="node">
<title>Node7</title>
<g id="a_node7"><a xlink:href="../../d4/db0/GlobalVertexFastSimReco_8cc.html" target="_top" xlink:title="fun4all_coresoftware\l/blob/master/simulation\l/g4simulation/g4vertex\l/GlobalVertexFastSimReco.cc">
<polygon fill="none" stroke="#000000" points="933.5,-.5 933.5,-56.5 1096.5,-56.5 1096.5,-.5 933.5,-.5"/>
<text text-anchor="start" x="941.5" y="-43.5" font-family="FreeSans" font-size="10.00" fill="#000000">fun4all_coresoftware</text>
<text text-anchor="start" x="941.5" y="-31.5" font-family="FreeSans" font-size="10.00" fill="#000000">/blob/master/simulation</text>
<text text-anchor="start" x="941.5" y="-19.5" font-family="FreeSans" font-size="10.00" fill="#000000">/g4simulation/g4vertex</text>
<text text-anchor="middle" x="1015" y="-7.5" font-family="FreeSans" font-size="10.00" fill="#000000">/GlobalVertexFastSimReco.cc</text>
</a>
</g>
</g>
<!-- Node1&#45;&gt;Node7 -->
<g id="edge6" class="edge">
<title>Node1&#45;&gt;Node7</title>
<path fill="none" stroke="#191970" d="M1016.7531,-178.0981C1022.6053,-169.4286 1027.8556,-159.8245 1031,-150 1040.9228,-118.9972 1033.2697,-81.6535 1025.505,-56.6222"/>
<polygon fill="#191970" stroke="#191970" points="1013.7574,-176.2688 1010.7559,-186.4296 1019.4386,-180.3583 1013.7574,-176.2688"/>
</g>
<!-- Node8 -->
<g id="node8" class="node">
<title>Node8</title>
<g id="a_node8"><a xlink:href="../../d5/d49/GlobalVertexMapv1_8h.html" target="_top" xlink:title="fun4all_coresoftware\l/blob/master/simulation\l/g4simulation/g4vertex\l/GlobalVertexMapv1.h">
<polygon fill="none" stroke="#000000" points="1079.5,-93.5 1079.5,-149.5 1216.5,-149.5 1216.5,-93.5 1079.5,-93.5"/>
<text text-anchor="start" x="1087.5" y="-136.5" font-family="FreeSans" font-size="10.00" fill="#000000">fun4all_coresoftware</text>
<text text-anchor="start" x="1087.5" y="-124.5" font-family="FreeSans" font-size="10.00" fill="#000000">/blob/master/simulation</text>
<text text-anchor="start" x="1087.5" y="-112.5" font-family="FreeSans" font-size="10.00" fill="#000000">/g4simulation/g4vertex</text>
<text text-anchor="middle" x="1148" y="-100.5" font-family="FreeSans" font-size="10.00" fill="#000000">/GlobalVertexMapv1.h</text>
</a>
</g>
</g>
<!-- Node1&#45;&gt;Node8 -->
<g id="edge7" class="edge">
<title>Node1&#45;&gt;Node8</title>
<path fill="none" stroke="#191970" d="M1043.1378,-181.3293C1061.3585,-170.9335 1081.2808,-159.5668 1098.82,-149.5597"/>
<polygon fill="#191970" stroke="#191970" points="1041.2989,-178.3489 1034.3477,-186.3446 1044.7679,-184.4289 1041.2989,-178.3489"/>
</g>
<!-- Node9 -->
<g id="node9" class="node">
<title>Node9</title>
<g id="a_node9"><a xlink:href="../../d5/d5d/GlobalVertexMapv1_8cc.html" target="_top" xlink:title="fun4all_coresoftware\l/blob/master/simulation\l/g4simulation/g4vertex\l/GlobalVertexMapv1.cc">
<polygon fill="none" stroke="#000000" points="1114.5,-.5 1114.5,-56.5 1251.5,-56.5 1251.5,-.5 1114.5,-.5"/>
<text text-anchor="start" x="1122.5" y="-43.5" font-family="FreeSans" font-size="10.00" fill="#000000">fun4all_coresoftware</text>
<text text-anchor="start" x="1122.5" y="-31.5" font-family="FreeSans" font-size="10.00" fill="#000000">/blob/master/simulation</text>
<text text-anchor="start" x="1122.5" y="-19.5" font-family="FreeSans" font-size="10.00" fill="#000000">/g4simulation/g4vertex</text>
<text text-anchor="middle" x="1183" y="-7.5" font-family="FreeSans" font-size="10.00" fill="#000000">/GlobalVertexMapv1.cc</text>
</a>
</g>
</g>
<!-- Node1&#45;&gt;Node9 -->
<g id="edge11" class="edge">
<title>Node1&#45;&gt;Node9</title>
<path fill="none" stroke="#191970" d="M1063.8003,-203.8624C1126.2277,-193.6294 1206.1397,-175.8746 1226,-150 1247.3218,-122.2214 1226.5043,-82.9992 1207.101,-56.7065"/>
<polygon fill="#191970" stroke="#191970" points="1062.8721,-200.4663 1053.5503,-205.5016 1063.9775,-207.3785 1062.8721,-200.4663"/>
</g>
<!-- Node10 -->
<g id="node10" class="node">
<title>Node10</title>
<g id="a_node10"><a xlink:href="../../d5/d60/GlobalVertexReco_8cc.html" target="_top" xlink:title="fun4all_coresoftware\l/blob/master/simulation\l/g4simulation/g4vertex\l/GlobalVertexReco.cc">
<polygon fill="none" stroke="#000000" points="1269.5,-.5 1269.5,-56.5 1406.5,-56.5 1406.5,-.5 1269.5,-.5"/>
<text text-anchor="start" x="1277.5" y="-43.5" font-family="FreeSans" font-size="10.00" fill="#000000">fun4all_coresoftware</text>
<text text-anchor="start" x="1277.5" y="-31.5" font-family="FreeSans" font-size="10.00" fill="#000000">/blob/master/simulation</text>
<text text-anchor="start" x="1277.5" y="-19.5" font-family="FreeSans" font-size="10.00" fill="#000000">/g4simulation/g4vertex</text>
<text text-anchor="middle" x="1338" y="-7.5" font-family="FreeSans" font-size="10.00" fill="#000000">/GlobalVertexReco.cc</text>
</a>
</g>
</g>
<!-- Node1&#45;&gt;Node10 -->
<g id="edge12" class="edge">
<title>Node1&#45;&gt;Node10</title>
<path fill="none" stroke="#191970" d="M1063.7589,-200.7708C1128.6027,-188.4051 1214.4854,-169.261 1244,-150 1279.9585,-126.5337 1307.8671,-84.5275 1323.6287,-56.5827"/>
<polygon fill="#191970" stroke="#191970" points="1062.723,-197.4044 1053.5444,-202.6962 1064.0197,-204.2832 1062.723,-197.4044"/>
</g>
<!-- Node11 -->
<g id="node11" class="node">
<title>Node11</title>
<g id="a_node11"><a xlink:href="../../d0/d67/AnaTutorial_8cc.html" target="_top" xlink:title="fun4all_tutorials/blob\l/master/AnaTutorial/src\l/AnaTutorial.cc">
<polygon fill="none" stroke="#000000" points="1311,-99.5 1311,-143.5 1445,-143.5 1445,-99.5 1311,-99.5"/>
<text text-anchor="start" x="1319" y="-130.5" font-family="FreeSans" font-size="10.00" fill="#000000">fun4all_tutorials/blob</text>
<text text-anchor="start" x="1319" y="-118.5" font-family="FreeSans" font-size="10.00" fill="#000000">/master/AnaTutorial/src</text>
<text text-anchor="middle" x="1378" y="-106.5" font-family="FreeSans" font-size="10.00" fill="#000000">/AnaTutorial.cc</text>
</a>
</g>
</g>
<!-- Node1&#45;&gt;Node11 -->
<g id="edge13" class="edge">
<title>Node1&#45;&gt;Node11</title>
<path fill="none" stroke="#191970" d="M1063.7475,-201.2496C1127.2543,-189.8402 1218.5921,-171.7922 1297,-150 1303.8943,-148.0838 1311.0509,-145.8843 1318.1291,-143.575"/>
<polygon fill="#191970" stroke="#191970" points="1063.0305,-197.8222 1053.8002,-203.0233 1064.2594,-204.7135 1063.0305,-197.8222"/>
</g>
<!-- Node8&#45;&gt;Node7 -->
<g id="edge8" class="edge">
<title>Node8&#45;&gt;Node7</title>
<path fill="none" stroke="#191970" d="M1099.343,-87.4767C1084.81,-77.3145 1069.0493,-66.2939 1055.1285,-56.5597"/>
<polygon fill="#191970" stroke="#191970" points="1097.5338,-90.4824 1107.7347,-93.3446 1101.5451,-84.7457 1097.5338,-90.4824"/>
</g>
<!-- Node8&#45;&gt;Node9 -->
<g id="edge9" class="edge">
<title>Node8&#45;&gt;Node9</title>
<path fill="none" stroke="#191970" d="M1162.2113,-83.7385C1165.6296,-74.6556 1169.2216,-65.1112 1172.4399,-56.5597"/>
<polygon fill="#191970" stroke="#191970" points="1158.8428,-82.7526 1158.5961,-93.3446 1165.3942,-85.2182 1158.8428,-82.7526"/>
</g>
<!-- Node8&#45;&gt;Node10 -->
<g id="edge10" class="edge">
<title>Node8&#45;&gt;Node10</title>
<path fill="none" stroke="#191970" d="M1214.3589,-89.0191C1235.925,-78.463 1259.6636,-66.8436 1280.5255,-56.6323"/>
<polygon fill="#191970" stroke="#191970" points="1212.707,-85.9308 1205.2639,-93.4708 1215.7844,-92.218 1212.707,-85.9308"/>
</g>
</g>
</svg>
