<?xml version="1.0" encoding="UTF-8" standalone="no"?>
<!DOCTYPE svg PUBLIC "-//W3C//DTD SVG 1.1//EN"
 "http://www.w3.org/Graphics/SVG/1.1/DTD/svg11.dtd">
<!-- Generated by graphviz version 2.40.1 (20161225.0304)
 -->
<!-- Title: fun4all_coresoftware/blob/master/simulation/g4simulation/g4jets/JetInput.h Pages: 1 -->
<svg width="1569pt" height="320pt"
 viewBox="0.00 0.00 1569.00 320.00" xmlns="http://www.w3.org/2000/svg" xmlns:xlink="http://www.w3.org/1999/xlink">
<g id="graph0" class="graph" transform="scale(1 1) rotate(0) translate(4 316)">
<title>fun4all_coresoftware/blob/master/simulation/g4simulation/g4jets/JetInput.h</title>
<!-- Node1 -->
<g id="node1" class="node">
<title>Node1</title>
<polygon fill="#bfbfbf" stroke="#000000" points="677.5,-267.5 677.5,-311.5 850.5,-311.5 850.5,-267.5 677.5,-267.5"/>
<text text-anchor="start" x="685.5" y="-298.5" font-family="FreeSans" font-size="10.00" fill="#000000">fun4all_coresoftware</text>
<text text-anchor="start" x="685.5" y="-286.5" font-family="FreeSans" font-size="10.00" fill="#000000">/blob/master/simulation</text>
<text text-anchor="middle" x="764" y="-274.5" font-family="FreeSans" font-size="10.00" fill="#000000">/g4simulation/g4jets/JetInput.h</text>
</g>
<!-- Node2 -->
<g id="node2" class="node">
<title>Node2</title>
<g id="a_node2"><a xlink:href="../../df/d4e/ParticleFlowJetInput_8h.html" target="_top" xlink:title="Connective tissue between jet reco and PFlow elements.">
<polygon fill="none" stroke="#000000" points="107.5,-174.5 107.5,-230.5 238.5,-230.5 238.5,-174.5 107.5,-174.5"/>
<text text-anchor="start" x="115.5" y="-217.5" font-family="FreeSans" font-size="10.00" fill="#000000">fun4all_coresoftware</text>
<text text-anchor="start" x="115.5" y="-205.5" font-family="FreeSans" font-size="10.00" fill="#000000">/blob/master/offline</text>
<text text-anchor="start" x="115.5" y="-193.5" font-family="FreeSans" font-size="10.00" fill="#000000">/packages/particleflow</text>
<text text-anchor="middle" x="173" y="-181.5" font-family="FreeSans" font-size="10.00" fill="#000000">/ParticleFlowJetInput.h</text>
</a>
</g>
</g>
<!-- Node1&#45;&gt;Node2 -->
<g id="edge1" class="edge">
<title>Node1&#45;&gt;Node2</title>
<path fill="none" stroke="#191970" d="M667.3875,-276.1832C584.0591,-264.5936 460.5269,-247.164 353,-231 315.1418,-225.309 272.8588,-218.6307 238.7914,-213.1699"/>
<polygon fill="#191970" stroke="#191970" points="666.9598,-279.6574 677.3464,-277.5672 667.9234,-272.724 666.9598,-279.6574"/>
</g>
<!-- Node4 -->
<g id="node4" class="node">
<title>Node4</title>
<g id="a_node4"><a xlink:href="../../d0/d45/ClusterJetInput_8h.html" target="_top" xlink:title="fun4all_coresoftware\l/blob/master/simulation\l/g4simulation/g4jets/ClusterJet\lInput.h">
<polygon fill="none" stroke="#000000" points="362,-174.5 362,-230.5 536,-230.5 536,-174.5 362,-174.5"/>
<text text-anchor="start" x="370" y="-217.5" font-family="FreeSans" font-size="10.00" fill="#000000">fun4all_coresoftware</text>
<text text-anchor="start" x="370" y="-205.5" font-family="FreeSans" font-size="10.00" fill="#000000">/blob/master/simulation</text>
<text text-anchor="start" x="370" y="-193.5" font-family="FreeSans" font-size="10.00" fill="#000000">/g4simulation/g4jets/ClusterJet</text>
<text text-anchor="middle" x="449" y="-181.5" font-family="FreeSans" font-size="10.00" fill="#000000">Input.h</text>
</a>
</g>
</g>
<!-- Node1&#45;&gt;Node4 -->
<g id="edge3" class="edge">
<title>Node1&#45;&gt;Node4</title>
<path fill="none" stroke="#191970" d="M669.6621,-264.9089C630.9648,-254.6634 585.7669,-242.4939 545,-231 542.0717,-230.1744 539.0951,-229.3285 536.0906,-228.4689"/>
<polygon fill="#191970" stroke="#191970" points="668.7912,-268.2988 679.3536,-267.4706 670.5801,-261.5313 668.7912,-268.2988"/>
</g>
<!-- Node13 -->
<g id="node13" class="node">
<title>Node13</title>
<g id="a_node13"><a xlink:href="../../da/de5/JetReco_8cc.html" target="_top" xlink:title="fun4all_coresoftware\l/blob/master/simulation\l/g4simulation/g4jets/JetReco.cc">
<polygon fill="none" stroke="#000000" points="1208,-180.5 1208,-224.5 1384,-224.5 1384,-180.5 1208,-180.5"/>
<text text-anchor="start" x="1216" y="-211.5" font-family="FreeSans" font-size="10.00" fill="#000000">fun4all_coresoftware</text>
<text text-anchor="start" x="1216" y="-199.5" font-family="FreeSans" font-size="10.00" fill="#000000">/blob/master/simulation</text>
<text text-anchor="middle" x="1296" y="-187.5" font-family="FreeSans" font-size="10.00" fill="#000000">/g4simulation/g4jets/JetReco.cc</text>
</a>
</g>
</g>
<!-- Node1&#45;&gt;Node13 -->
<g id="edge12" class="edge">
<title>Node1&#45;&gt;Node13</title>
<path fill="none" stroke="#191970" d="M860.5406,-280.7706C949.1723,-271.7528 1083.8169,-255.5175 1199,-231 1207.6696,-229.1546 1216.6934,-226.9283 1225.5943,-224.543"/>
<polygon fill="#191970" stroke="#191970" points="860.101,-277.297 850.5019,-281.7811 860.8022,-284.2618 860.101,-277.297"/>
</g>
<!-- Node14 -->
<g id="node14" class="node">
<title>Node14</title>
<g id="a_node14"><a xlink:href="../../da/da8/TowerJetInput_8h.html" target="_top" xlink:title="fun4all_coresoftware\l/blob/master/simulation\l/g4simulation/g4jets/TowerJetInput.h">
<polygon fill="none" stroke="#000000" points="554,-180.5 554,-224.5 756,-224.5 756,-180.5 554,-180.5"/>
<text text-anchor="start" x="562" y="-211.5" font-family="FreeSans" font-size="10.00" fill="#000000">fun4all_coresoftware</text>
<text text-anchor="start" x="562" y="-199.5" font-family="FreeSans" font-size="10.00" fill="#000000">/blob/master/simulation</text>
<text text-anchor="middle" x="655" y="-187.5" font-family="FreeSans" font-size="10.00" fill="#000000">/g4simulation/g4jets/TowerJetInput.h</text>
</a>
</g>
</g>
<!-- Node1&#45;&gt;Node14 -->
<g id="edge13" class="edge">
<title>Node1&#45;&gt;Node14</title>
<path fill="none" stroke="#191970" d="M728.2443,-260.961C713.4538,-249.1558 696.566,-235.6765 682.7366,-224.6384"/>
<polygon fill="#191970" stroke="#191970" points="726.2136,-263.8184 736.2127,-267.3211 730.5804,-258.3474 726.2136,-263.8184"/>
</g>
<!-- Node18 -->
<g id="node18" class="node">
<title>Node18</title>
<g id="a_node18"><a xlink:href="../../d6/d09/TrackJetInput_8h.html" target="_top" xlink:title="fun4all_coresoftware\l/blob/master/simulation\l/g4simulation/g4jets/TrackJetInput.h">
<polygon fill="none" stroke="#000000" points="990.5,-180.5 990.5,-224.5 1189.5,-224.5 1189.5,-180.5 990.5,-180.5"/>
<text text-anchor="start" x="998.5" y="-211.5" font-family="FreeSans" font-size="10.00" fill="#000000">fun4all_coresoftware</text>
<text text-anchor="start" x="998.5" y="-199.5" font-family="FreeSans" font-size="10.00" fill="#000000">/blob/master/simulation</text>
<text text-anchor="middle" x="1090" y="-187.5" font-family="FreeSans" font-size="10.00" fill="#000000">/g4simulation/g4jets/TrackJetInput.h</text>
</a>
</g>
</g>
<!-- Node1&#45;&gt;Node18 -->
<g id="edge25" class="edge">
<title>Node1&#45;&gt;Node18</title>
<path fill="none" stroke="#191970" d="M856.3602,-264.8517C903.8909,-252.1671 961.3573,-236.831 1007.4031,-224.5427"/>
<polygon fill="#191970" stroke="#191970" points="855.4444,-261.4736 846.685,-267.4338 857.2493,-268.2369 855.4444,-261.4736"/>
</g>
<!-- Node20 -->
<g id="node20" class="node">
<title>Node20</title>
<g id="a_node20"><a xlink:href="../../df/d12/TruthJetInput_8h.html" target="_top" xlink:title="fun4all_coresoftware\l/blob/master/simulation\l/g4simulation/g4jets/TruthJetInput.h">
<polygon fill="none" stroke="#000000" points="774,-180.5 774,-224.5 972,-224.5 972,-180.5 774,-180.5"/>
<text text-anchor="start" x="782" y="-211.5" font-family="FreeSans" font-size="10.00" fill="#000000">fun4all_coresoftware</text>
<text text-anchor="start" x="782" y="-199.5" font-family="FreeSans" font-size="10.00" fill="#000000">/blob/master/simulation</text>
<text text-anchor="middle" x="873" y="-187.5" font-family="FreeSans" font-size="10.00" fill="#000000">/g4simulation/g4jets/TruthJetInput.h</text>
</a>
</g>
</g>
<!-- Node1&#45;&gt;Node20 -->
<g id="edge28" class="edge">
<title>Node1&#45;&gt;Node20</title>
<path fill="none" stroke="#191970" d="M799.7557,-260.961C814.5462,-249.1558 831.434,-235.6765 845.2634,-224.6384"/>
<polygon fill="#191970" stroke="#191970" points="797.4196,-258.3474 791.7873,-267.3211 801.7864,-263.8184 797.4196,-258.3474"/>
</g>
<!-- Node3 -->
<g id="node3" class="node">
<title>Node3</title>
<g id="a_node3"><a xlink:href="../../d4/dc7/ParticleFlowJetInput_8cc.html" target="_top" xlink:title="fun4all_coresoftware\l/blob/master/offline\l/packages/particleflow\l/ParticleFlowJetInput.cc">
<polygon fill="none" stroke="#000000" points="0,-81.5 0,-137.5 134,-137.5 134,-81.5 0,-81.5"/>
<text text-anchor="start" x="8" y="-124.5" font-family="FreeSans" font-size="10.00" fill="#000000">fun4all_coresoftware</text>
<text text-anchor="start" x="8" y="-112.5" font-family="FreeSans" font-size="10.00" fill="#000000">/blob/master/offline</text>
<text text-anchor="start" x="8" y="-100.5" font-family="FreeSans" font-size="10.00" fill="#000000">/packages/particleflow</text>
<text text-anchor="middle" x="67" y="-88.5" font-family="FreeSans" font-size="10.00" fill="#000000">/ParticleFlowJetInput.cc</text>
</a>
</g>
</g>
<!-- Node2&#45;&gt;Node3 -->
<g id="edge2" class="edge">
<title>Node2&#45;&gt;Node3</title>
<path fill="none" stroke="#191970" d="M133.2442,-167.6199C121.9348,-157.6976 109.7658,-147.021 98.9821,-137.5597"/>
<polygon fill="#191970" stroke="#191970" points="131.0836,-170.3804 140.9088,-174.3446 135.7001,-165.1185 131.0836,-170.3804"/>
</g>
<!-- Node5 -->
<g id="node5" class="node">
<title>Node5</title>
<g id="a_node5"><a xlink:href="../../d3/d8a/ClusterJetInput_8cc.html" target="_top" xlink:title="fun4all_coresoftware\l/blob/master/simulation\l/g4simulation/g4jets/ClusterJet\lInput.cc">
<polygon fill="none" stroke="#000000" points="152,-81.5 152,-137.5 326,-137.5 326,-81.5 152,-81.5"/>
<text text-anchor="start" x="160" y="-124.5" font-family="FreeSans" font-size="10.00" fill="#000000">fun4all_coresoftware</text>
<text text-anchor="start" x="160" y="-112.5" font-family="FreeSans" font-size="10.00" fill="#000000">/blob/master/simulation</text>
<text text-anchor="start" x="160" y="-100.5" font-family="FreeSans" font-size="10.00" fill="#000000">/g4simulation/g4jets/ClusterJet</text>
<text text-anchor="middle" x="239" y="-88.5" font-family="FreeSans" font-size="10.00" fill="#000000">Input.cc</text>
</a>
</g>
</g>
<!-- Node4&#45;&gt;Node5 -->
<g id="edge4" class="edge">
<title>Node4&#45;&gt;Node5</title>
<path fill="none" stroke="#191970" d="M376.2939,-170.3016C352.2885,-159.6706 325.7882,-147.9348 302.5244,-137.6323"/>
<polygon fill="#191970" stroke="#191970" points="375.1475,-173.6217 385.7083,-174.4708 377.9821,-167.2213 375.1475,-173.6217"/>
</g>
<!-- Node6 -->
<g id="node6" class="node">
<title>Node6</title>
<g id="a_node6"><a xlink:href="../../d5/d1a/G4__Jets_8C.html" target="_top" xlink:title="fun4all_macros/blob\l/master/macros/g4simulations\l/G4_Jets.C">
<polygon fill="none" stroke="#000000" points="758.5,-87.5 758.5,-131.5 929.5,-131.5 929.5,-87.5 758.5,-87.5"/>
<text text-anchor="start" x="766.5" y="-118.5" font-family="FreeSans" font-size="10.00" fill="#000000">fun4all_macros/blob</text>
<text text-anchor="start" x="766.5" y="-106.5" font-family="FreeSans" font-size="10.00" fill="#000000">/master/macros/g4simulations</text>
<text text-anchor="middle" x="844" y="-94.5" font-family="FreeSans" font-size="10.00" fill="#000000">/G4_Jets.C</text>
</a>
</g>
</g>
<!-- Node4&#45;&gt;Node6 -->
<g id="edge5" class="edge">
<title>Node4&#45;&gt;Node6</title>
<path fill="none" stroke="#191970" d="M545.8625,-173.9091C636.3807,-153.2697 662.4834,-158.5372 749,-138 757.1255,-136.0712 765.5821,-133.8503 773.9525,-131.5172"/>
<polygon fill="#191970" stroke="#191970" points="544.953,-170.5271 536.0049,-176.2 546.5376,-177.3454 544.953,-170.5271"/>
</g>
<!-- Node7 -->
<g id="node7" class="node">
<title>Node7</title>
<g id="a_node7"><a xlink:href="../../da/d02/Fun4All__G4__EICDetector_8C.html" target="_top" xlink:title="fun4all_macros/blob\l/master/macros/g4simulations\l/Fun4All_G4_EICDetector.C">
<polygon fill="none" stroke="#000000" points="938.5,-.5 938.5,-44.5 1109.5,-44.5 1109.5,-.5 938.5,-.5"/>
<text text-anchor="start" x="946.5" y="-31.5" font-family="FreeSans" font-size="10.00" fill="#000000">fun4all_macros/blob</text>
<text text-anchor="start" x="946.5" y="-19.5" font-family="FreeSans" font-size="10.00" fill="#000000">/master/macros/g4simulations</text>
<text text-anchor="middle" x="1024" y="-7.5" font-family="FreeSans" font-size="10.00" fill="#000000">/Fun4All_G4_EICDetector.C</text>
</a>
</g>
</g>
<!-- Node6&#45;&gt;Node7 -->
<g id="edge6" class="edge">
<title>Node6&#45;&gt;Node7</title>
<path fill="none" stroke="#191970" d="M899.0089,-82.9123C924.3566,-70.661 954.0901,-56.2898 978.1965,-44.6384"/>
<polygon fill="#191970" stroke="#191970" points="897.3677,-79.8182 889.8873,-87.3211 900.4139,-86.1206 897.3677,-79.8182"/>
</g>
<!-- Node8 -->
<g id="node8" class="node">
<title>Node8</title>
<g id="a_node8"><a xlink:href="../../d7/d9e/Fun4All__G4__fsPHENIX_8C.html" target="_top" xlink:title="fun4all_macros/blob\l/master/macros/g4simulations\l/Fun4All_G4_fsPHENIX.C">
<polygon fill="none" stroke="#000000" points="1127.5,-.5 1127.5,-44.5 1298.5,-44.5 1298.5,-.5 1127.5,-.5"/>
<text text-anchor="start" x="1135.5" y="-31.5" font-family="FreeSans" font-size="10.00" fill="#000000">fun4all_macros/blob</text>
<text text-anchor="start" x="1135.5" y="-19.5" font-family="FreeSans" font-size="10.00" fill="#000000">/master/macros/g4simulations</text>
<text text-anchor="middle" x="1213" y="-7.5" font-family="FreeSans" font-size="10.00" fill="#000000">/Fun4All_G4_fsPHENIX.C</text>
</a>
</g>
</g>
<!-- Node6&#45;&gt;Node8 -->
<g id="edge7" class="edge">
<title>Node6&#45;&gt;Node8</title>
<path fill="none" stroke="#191970" d="M923.7464,-84.7365C928.5562,-83.425 933.3346,-82.1682 938,-81 1017.5637,-61.077 1038.8794,-62.5498 1119,-45 1121.7866,-44.3896 1124.6176,-43.7611 1127.4749,-43.1195"/>
<polygon fill="#191970" stroke="#191970" points="922.5479,-81.4372 913.8557,-87.4949 924.4284,-88.1799 922.5479,-81.4372"/>
</g>
<!-- Node9 -->
<g id="node9" class="node">
<title>Node9</title>
<g id="a_node9"><a xlink:href="../../d0/d13/Fun4All__G4__sPHENIX_8C.html" target="_top" xlink:title="fun4all_macros/blob\l/master/macros/g4simulations\l/Fun4All_G4_sPHENIX.C">
<polygon fill="none" stroke="#000000" points="220.5,-.5 220.5,-44.5 391.5,-44.5 391.5,-.5 220.5,-.5"/>
<text text-anchor="start" x="228.5" y="-31.5" font-family="FreeSans" font-size="10.00" fill="#000000">fun4all_macros/blob</text>
<text text-anchor="start" x="228.5" y="-19.5" font-family="FreeSans" font-size="10.00" fill="#000000">/master/macros/g4simulations</text>
<text text-anchor="middle" x="306" y="-7.5" font-family="FreeSans" font-size="10.00" fill="#000000">/Fun4All_G4_sPHENIX.C</text>
</a>
</g>
</g>
<!-- Node6&#45;&gt;Node9 -->
<g id="edge8" class="edge">
<title>Node6&#45;&gt;Node9</title>
<path fill="none" stroke="#191970" d="M766.3432,-84.9138C760.5058,-83.4623 754.6792,-82.1342 749,-81 596.0857,-50.4605 553.7162,-71.2068 400,-45 397.2706,-44.5347 394.5026,-44.0359 391.7122,-43.5098"/>
<polygon fill="#191970" stroke="#191970" points="765.5943,-88.3354 776.153,-87.4606 767.3534,-81.56 765.5943,-88.3354"/>
</g>
<!-- Node10 -->
<g id="node10" class="node">
<title>Node10</title>
<g id="a_node10"><a xlink:href="../../de/da9/ReadClustersRunTracking_8C.html" target="_top" xlink:title="fun4all_macros/blob\l/master/macros/g4simulations\l/ReadClustersRunTracking.C">
<polygon fill="none" stroke="#000000" points="409.5,-.5 409.5,-44.5 580.5,-44.5 580.5,-.5 409.5,-.5"/>
<text text-anchor="start" x="417.5" y="-31.5" font-family="FreeSans" font-size="10.00" fill="#000000">fun4all_macros/blob</text>
<text text-anchor="start" x="417.5" y="-19.5" font-family="FreeSans" font-size="10.00" fill="#000000">/master/macros/g4simulations</text>
<text text-anchor="middle" x="495" y="-7.5" font-family="FreeSans" font-size="10.00" fill="#000000">/ReadClustersRunTracking.C</text>
</a>
</g>
</g>
<!-- Node6&#45;&gt;Node10 -->
<g id="edge9" class="edge">
<title>Node6&#45;&gt;Node10</title>
<path fill="none" stroke="#191970" d="M762.9043,-84.7591C758.2092,-83.4552 753.5493,-82.1926 749,-81 678.4936,-62.5164 660.0004,-61.4841 589,-45 586.2212,-44.3549 583.397,-43.6962 580.5456,-43.0286"/>
<polygon fill="#191970" stroke="#191970" points="761.9925,-88.1384 772.5671,-87.4848 763.8929,-81.4013 761.9925,-88.1384"/>
</g>
<!-- Node11 -->
<g id="node11" class="node">
<title>Node11</title>
<g id="a_node11"><a xlink:href="../../db/dc0/Fun4All__AnaTutorial_8C.html" target="_top" xlink:title="fun4all_tutorials/blob\l/master/AnaTutorial/macro\l/Fun4All_AnaTutorial.C">
<polygon fill="none" stroke="#000000" points="598.5,-.5 598.5,-44.5 749.5,-44.5 749.5,-.5 598.5,-.5"/>
<text text-anchor="start" x="606.5" y="-31.5" font-family="FreeSans" font-size="10.00" fill="#000000">fun4all_tutorials/blob</text>
<text text-anchor="start" x="606.5" y="-19.5" font-family="FreeSans" font-size="10.00" fill="#000000">/master/AnaTutorial/macro</text>
<text text-anchor="middle" x="674" y="-7.5" font-family="FreeSans" font-size="10.00" fill="#000000">/Fun4All_AnaTutorial.C</text>
</a>
</g>
</g>
<!-- Node6&#45;&gt;Node11 -->
<g id="edge10" class="edge">
<title>Node6&#45;&gt;Node11</title>
<path fill="none" stroke="#191970" d="M791.7319,-82.751C767.8615,-70.535 739.9261,-56.2387 717.2589,-44.6384"/>
<polygon fill="#191970" stroke="#191970" points="790.1654,-85.881 800.662,-87.3211 793.3545,-79.6496 790.1654,-85.881"/>
</g>
<!-- Node12 -->
<g id="node12" class="node">
<title>Node12</title>
<g id="a_node12"><a xlink:href="../../dd/d28/Fun4All__AnaTutorial__Jets_8C.html" target="_top" xlink:title="fun4all_tutorials/blob\l/master/AnaTutorial/macro\l/Fun4All_AnaTutorial_Jets.C">
<polygon fill="none" stroke="#000000" points="767.5,-.5 767.5,-44.5 920.5,-44.5 920.5,-.5 767.5,-.5"/>
<text text-anchor="start" x="775.5" y="-31.5" font-family="FreeSans" font-size="10.00" fill="#000000">fun4all_tutorials/blob</text>
<text text-anchor="start" x="775.5" y="-19.5" font-family="FreeSans" font-size="10.00" fill="#000000">/master/AnaTutorial/macro</text>
<text text-anchor="middle" x="844" y="-7.5" font-family="FreeSans" font-size="10.00" fill="#000000">/Fun4All_AnaTutorial_Jets.C</text>
</a>
</g>
</g>
<!-- Node6&#45;&gt;Node12 -->
<g id="edge11" class="edge">
<title>Node6&#45;&gt;Node12</title>
<path fill="none" stroke="#191970" d="M844,-77.0893C844,-66.2369 844,-54.3979 844,-44.5276"/>
<polygon fill="#191970" stroke="#191970" points="840.5001,-77.0953 844,-87.0953 847.5001,-77.0954 840.5001,-77.0953"/>
</g>
<!-- Node14&#45;&gt;Node6 -->
<g id="edge24" class="edge">
<title>Node14&#45;&gt;Node6</title>
<path fill="none" stroke="#191970" d="M708.8352,-176.0097C737.4105,-161.9488 772.1155,-144.8717 799.204,-131.5425"/>
<polygon fill="#191970" stroke="#191970" points="707.2177,-172.9048 699.7904,-180.4603 710.3082,-179.1856 707.2177,-172.9048"/>
</g>
<!-- Node15 -->
<g id="node15" class="node">
<title>Node15</title>
<g id="a_node15"><a xlink:href="../../d4/d53/TowerJetInput_8cc.html" target="_top" xlink:title="fun4all_coresoftware\l/blob/master/simulation\l/g4simulation/g4jets/TowerJetInput.cc">
<polygon fill="none" stroke="#000000" points="344.5,-87.5 344.5,-131.5 551.5,-131.5 551.5,-87.5 344.5,-87.5"/>
<text text-anchor="start" x="352.5" y="-118.5" font-family="FreeSans" font-size="10.00" fill="#000000">fun4all_coresoftware</text>
<text text-anchor="start" x="352.5" y="-106.5" font-family="FreeSans" font-size="10.00" fill="#000000">/blob/master/simulation</text>
<text text-anchor="middle" x="448" y="-94.5" font-family="FreeSans" font-size="10.00" fill="#000000">/g4simulation/g4jets/TowerJetInput.cc</text>
</a>
</g>
</g>
<!-- Node14&#45;&gt;Node15 -->
<g id="edge14" class="edge">
<title>Node14&#45;&gt;Node15</title>
<path fill="none" stroke="#191970" d="M596.4437,-176.1921C565.0702,-162.0967 526.859,-144.9294 497.0623,-131.5425"/>
<polygon fill="#191970" stroke="#191970" points="595.3878,-179.5547 605.9439,-180.4603 598.2566,-173.1695 595.3878,-179.5547"/>
</g>
<!-- Node16 -->
<g id="node16" class="node">
<title>Node16</title>
<g id="a_node16"><a xlink:href="../../db/d19/G4__FwdJets_8C.html" target="_top" xlink:title="fun4all_macros/blob\l/master/macros/g4simulations\l/G4_FwdJets.C">
<polygon fill="none" stroke="#000000" points="947.5,-87.5 947.5,-131.5 1118.5,-131.5 1118.5,-87.5 947.5,-87.5"/>
<text text-anchor="start" x="955.5" y="-118.5" font-family="FreeSans" font-size="10.00" fill="#000000">fun4all_macros/blob</text>
<text text-anchor="start" x="955.5" y="-106.5" font-family="FreeSans" font-size="10.00" fill="#000000">/master/macros/g4simulations</text>
<text text-anchor="middle" x="1033" y="-94.5" font-family="FreeSans" font-size="10.00" fill="#000000">/G4_FwdJets.C</text>
</a>
</g>
</g>
<!-- Node14&#45;&gt;Node16 -->
<g id="edge15" class="edge">
<title>Node14&#45;&gt;Node16</title>
<path fill="none" stroke="#191970" d="M748.4652,-177.9547C754.0532,-176.5896 759.5968,-175.2614 765,-174 841.4796,-156.146 861.8728,-157.3015 938,-138 945.7614,-136.0322 953.8375,-133.8389 961.8581,-131.567"/>
<polygon fill="#191970" stroke="#191970" points="747.2487,-174.6499 738.3795,-180.4453 748.927,-181.4457 747.2487,-174.6499"/>
</g>
<!-- Node17 -->
<g id="node17" class="node">
<title>Node17</title>
<g id="a_node17"><a xlink:href="../../d4/d40/G4__HIJetReco_8C.html" target="_top" xlink:title="fun4all_macros/blob\l/master/macros/g4simulations\l/G4_HIJetReco.C">
<polygon fill="none" stroke="#000000" points="569.5,-87.5 569.5,-131.5 740.5,-131.5 740.5,-87.5 569.5,-87.5"/>
<text text-anchor="start" x="577.5" y="-118.5" font-family="FreeSans" font-size="10.00" fill="#000000">fun4all_macros/blob</text>
<text text-anchor="start" x="577.5" y="-106.5" font-family="FreeSans" font-size="10.00" fill="#000000">/master/macros/g4simulations</text>
<text text-anchor="middle" x="655" y="-94.5" font-family="FreeSans" font-size="10.00" fill="#000000">/G4_HIJetReco.C</text>
</a>
</g>
</g>
<!-- Node14&#45;&gt;Node17 -->
<g id="edge18" class="edge">
<title>Node14&#45;&gt;Node17</title>
<path fill="none" stroke="#191970" d="M655,-170.2412C655,-157.5215 655,-143.2283 655,-131.7038"/>
<polygon fill="#191970" stroke="#191970" points="651.5001,-170.4603 655,-180.4603 658.5001,-170.4603 651.5001,-170.4603"/>
</g>
<!-- Node16&#45;&gt;Node7 -->
<g id="edge16" class="edge">
<title>Node16&#45;&gt;Node7</title>
<path fill="none" stroke="#191970" d="M1029.6472,-77.0893C1028.5245,-66.2369 1027.2998,-54.3979 1026.2787,-44.5276"/>
<polygon fill="#191970" stroke="#191970" points="1026.1718,-77.5086 1030.6823,-87.0953 1033.1346,-76.7882 1026.1718,-77.5086"/>
</g>
<!-- Node16&#45;&gt;Node8 -->
<g id="edge17" class="edge">
<title>Node16&#45;&gt;Node8</title>
<path fill="none" stroke="#191970" d="M1088.0089,-82.9123C1113.3566,-70.661 1143.0901,-56.2898 1167.1965,-44.6384"/>
<polygon fill="#191970" stroke="#191970" points="1086.3677,-79.8182 1078.8873,-87.3211 1089.4139,-86.1206 1086.3677,-79.8182"/>
</g>
<!-- Node17&#45;&gt;Node7 -->
<g id="edge19" class="edge">
<title>Node17&#45;&gt;Node7</title>
<path fill="none" stroke="#191970" d="M734.8998,-84.701C739.6579,-83.4029 744.3843,-82.1584 749,-81 828.1304,-61.1409 849.2936,-62.4039 929,-45 932.0634,-44.3311 935.1803,-43.6414 938.3267,-42.9373"/>
<polygon fill="#191970" stroke="#191970" points="733.806,-81.3724 725.1139,-87.4303 735.6865,-88.1151 733.806,-81.3724"/>
</g>
<!-- Node17&#45;&gt;Node9 -->
<g id="edge20" class="edge">
<title>Node17&#45;&gt;Node9</title>
<path fill="none" stroke="#191970" d="M573.9043,-84.7591C569.2092,-83.4552 564.5493,-82.1926 560,-81 489.4936,-62.5164 471.0004,-61.4841 400,-45 397.2212,-44.3549 394.397,-43.6962 391.5456,-43.0286"/>
<polygon fill="#191970" stroke="#191970" points="572.9925,-88.1384 583.5671,-87.4848 574.8929,-81.4013 572.9925,-88.1384"/>
</g>
<!-- Node17&#45;&gt;Node10 -->
<g id="edge21" class="edge">
<title>Node17&#45;&gt;Node10</title>
<path fill="none" stroke="#191970" d="M605.2118,-82.4276C582.8773,-70.2833 556.8602,-56.1365 535.7143,-44.6384"/>
<polygon fill="#191970" stroke="#191970" points="603.754,-85.6189 614.2113,-87.3211 607.098,-79.4693 603.754,-85.6189"/>
</g>
<!-- Node17&#45;&gt;Node11 -->
<g id="edge22" class="edge">
<title>Node17&#45;&gt;Node11</title>
<path fill="none" stroke="#191970" d="M662.0782,-77.0893C664.4483,-66.2369 667.0338,-54.3979 669.1894,-44.5276"/>
<polygon fill="#191970" stroke="#191970" points="658.6073,-76.5788 659.893,-87.0953 665.4461,-78.0724 658.6073,-76.5788"/>
</g>
<!-- Node17&#45;&gt;Node12 -->
<g id="edge23" class="edge">
<title>Node17&#45;&gt;Node12</title>
<path fill="none" stroke="#191970" d="M712.4095,-83.0734C739.1004,-70.7871 770.4836,-56.3409 795.9063,-44.6384"/>
<polygon fill="#191970" stroke="#191970" points="710.802,-79.9603 703.1817,-87.3211 713.729,-86.319 710.802,-79.9603"/>
</g>
<!-- Node18&#45;&gt;Node6 -->
<g id="edge27" class="edge">
<title>Node18&#45;&gt;Node6</title>
<path fill="none" stroke="#191970" d="M1022.3325,-176.9184C984.6957,-162.6898 938.3271,-145.1602 902.3059,-131.5425"/>
<polygon fill="#191970" stroke="#191970" points="1021.1098,-180.1979 1031.7014,-180.4603 1023.5852,-173.6501 1021.1098,-180.1979"/>
</g>
<!-- Node19 -->
<g id="node19" class="node">
<title>Node19</title>
<g id="a_node19"><a xlink:href="../../d0/d48/TrackJetInput_8cc.html" target="_top" xlink:title="fun4all_coresoftware\l/blob/master/simulation\l/g4simulation/g4jets/TrackJetInput.cc">
<polygon fill="none" stroke="#000000" points="1357,-87.5 1357,-131.5 1561,-131.5 1561,-87.5 1357,-87.5"/>
<text text-anchor="start" x="1365" y="-118.5" font-family="FreeSans" font-size="10.00" fill="#000000">fun4all_coresoftware</text>
<text text-anchor="start" x="1365" y="-106.5" font-family="FreeSans" font-size="10.00" fill="#000000">/blob/master/simulation</text>
<text text-anchor="middle" x="1459" y="-94.5" font-family="FreeSans" font-size="10.00" fill="#000000">/g4simulation/g4jets/TrackJetInput.cc</text>
</a>
</g>
</g>
<!-- Node18&#45;&gt;Node19 -->
<g id="edge26" class="edge">
<title>Node18&#45;&gt;Node19</title>
<path fill="none" stroke="#191970" d="M1183.6111,-177.8932C1188.8144,-176.5662 1193.9708,-175.2609 1199,-174 1265.5017,-157.3276 1282.4798,-154.5984 1349,-138 1357.3263,-135.9224 1365.999,-133.7279 1374.6601,-131.5164"/>
<polygon fill="#191970" stroke="#191970" points="1182.3866,-174.5938 1173.5681,-180.466 1184.1239,-181.3748 1182.3866,-174.5938"/>
</g>
<!-- Node20&#45;&gt;Node6 -->
<g id="edge32" class="edge">
<title>Node20&#45;&gt;Node6</title>
<path fill="none" stroke="#191970" d="M863.0596,-170.6223C859.0637,-157.8076 854.5534,-143.3435 850.9238,-131.7038"/>
<polygon fill="#191970" stroke="#191970" points="859.8091,-171.9556 866.1274,-180.4603 866.4918,-169.8717 859.8091,-171.9556"/>
</g>
<!-- Node20&#45;&gt;Node16 -->
<g id="edge30" class="edge">
<title>Node20&#45;&gt;Node16</title>
<path fill="none" stroke="#191970" d="M919.8361,-175.2765C943.781,-161.3585 972.5425,-144.6409 995.0775,-131.5425"/>
<polygon fill="#191970" stroke="#191970" points="917.8045,-172.409 910.9178,-180.4603 921.3223,-178.461 917.8045,-172.409"/>
</g>
<!-- Node20&#45;&gt;Node17 -->
<g id="edge31" class="edge">
<title>Node20&#45;&gt;Node17</title>
<path fill="none" stroke="#191970" d="M811.7588,-176.3742C778.6384,-162.2448 738.1849,-144.9871 706.6694,-131.5425"/>
<polygon fill="#191970" stroke="#191970" points="810.7657,-179.7556 821.337,-180.4603 813.5124,-173.317 810.7657,-179.7556"/>
</g>
<!-- Node21 -->
<g id="node21" class="node">
<title>Node21</title>
<g id="a_node21"><a xlink:href="../../d6/dbb/TruthJetInput_8cc.html" target="_top" xlink:title="fun4all_coresoftware\l/blob/master/simulation\l/g4simulation/g4jets/TruthJetInput.cc">
<polygon fill="none" stroke="#000000" points="1136.5,-87.5 1136.5,-131.5 1339.5,-131.5 1339.5,-87.5 1136.5,-87.5"/>
<text text-anchor="start" x="1144.5" y="-118.5" font-family="FreeSans" font-size="10.00" fill="#000000">fun4all_coresoftware</text>
<text text-anchor="start" x="1144.5" y="-106.5" font-family="FreeSans" font-size="10.00" fill="#000000">/blob/master/simulation</text>
<text text-anchor="middle" x="1238" y="-94.5" font-family="FreeSans" font-size="10.00" fill="#000000">/g4simulation/g4jets/TruthJetInput.cc</text>
</a>
</g>
</g>
<!-- Node20&#45;&gt;Node21 -->
<g id="edge29" class="edge">
<title>Node20&#45;&gt;Node21</title>
<path fill="none" stroke="#191970" d="M965.7556,-177.9085C970.9103,-176.5776 976.0183,-175.2672 981,-174 1046.188,-157.418 1062.7749,-154.4356 1128,-138 1136.2258,-135.9272 1144.7918,-133.7467 1153.3515,-131.5531"/>
<polygon fill="#191970" stroke="#191970" points="964.6079,-174.5903 955.806,-180.4876 966.3644,-181.3663 964.6079,-174.5903"/>
</g>
</g>
</svg>
