<?xml version="1.0" encoding="UTF-8" standalone="no"?>
<!DOCTYPE svg PUBLIC "-//W3C//DTD SVG 1.1//EN"
 "http://www.w3.org/Graphics/SVG/1.1/DTD/svg11.dtd">
<!-- Generated by graphviz version 2.40.1 (20161225.0304)
 -->
<!-- Title: PHGeomUtility::GenerateGeometryFileName Pages: 1 -->
<svg width="711pt" height="275pt"
 viewBox="0.00 0.00 711.00 275.00" xmlns="http://www.w3.org/2000/svg" xmlns:xlink="http://www.w3.org/1999/xlink">
<g id="graph0" class="graph" transform="scale(1 1) rotate(0) translate(4 271)">
<title>PHGeomUtility::GenerateGeometryFileName</title>
<!-- Node1 -->
<g id="node1" class="node">
<title>Node1</title>
<polygon fill="#bfbfbf" stroke="#000000" points="0,-72.5 0,-104.5 194,-104.5 194,-72.5 0,-72.5"/>
<text text-anchor="start" x="8" y="-91.5" font-family="FreeSans" font-size="10.00" fill="#000000">PHGeomUtility::GenerateGeometry</text>
<text text-anchor="middle" x="97" y="-79.5" font-family="FreeSans" font-size="10.00" fill="#000000">FileName</text>
</g>
<!-- Node2 -->
<g id="node2" class="node">
<title>Node2</title>
<g id="a_node2"><a xlink:href="../../d0/d78/classPHG4Reco.html#a9d8228ce8682c19cd6be2f6b44ec847b" target="_top" xlink:title="PHG4Reco::InitRun">
<polygon fill="none" stroke="#000000" points="230,-78.5 230,-98.5 340,-98.5 340,-78.5 230,-78.5"/>
<text text-anchor="middle" x="285" y="-85.5" font-family="FreeSans" font-size="10.00" fill="#000000">PHG4Reco::InitRun</text>
</a>
</g>
</g>
<!-- Node1&#45;&gt;Node2 -->
<g id="edge1" class="edge">
<title>Node1&#45;&gt;Node2</title>
<path fill="none" stroke="#191970" d="M204.2969,-88.5C212.9987,-88.5 221.5454,-88.5 229.6304,-88.5"/>
<polygon fill="#191970" stroke="#191970" points="204.0289,-85.0001 194.0288,-88.5 204.0288,-92.0001 204.0289,-85.0001"/>
</g>
<!-- Node3 -->
<g id="node3" class="node">
<title>Node3</title>
<g id="a_node3"><a xlink:href="../../d5/d57/fun4all__eic__tutorials_2blob_2master_2MagneticField_2DisplayOn_8C.html#a8ac4d6fb78f920957b354f88d6195f54" target="_top" xlink:title="DisplayOn">
<polygon fill="none" stroke="#000000" points="418,-168.5 418,-188.5 486,-188.5 486,-168.5 418,-168.5"/>
<text text-anchor="middle" x="452" y="-175.5" font-family="FreeSans" font-size="10.00" fill="#000000">DisplayOn</text>
</a>
</g>
</g>
<!-- Node2&#45;&gt;Node3 -->
<g id="edge2" class="edge">
<title>Node2&#45;&gt;Node3</title>
<path fill="none" stroke="#191970" d="M302.5277,-105.8726C319.8094,-122.0497 347.6757,-145.6858 376,-159.5 388.9576,-165.8196 404.2147,-170.1633 417.6455,-173.0839"/>
<polygon fill="#191970" stroke="#191970" points="304.582,-102.9939 294.9385,-98.606 299.7409,-108.05 304.582,-102.9939"/>
</g>
<!-- Node9 -->
<g id="node9" class="node">
<title>Node9</title>
<g id="a_node9"><a xlink:href="../../d5/df2/Fun4All__EIC__Generator__Display_8C.html#a276181099936efe81415286b29f36e51" target="_top" xlink:title="Fun4All_EIC_Generator\l_Display">
<polygon fill="none" stroke="#000000" points="386,-117.5 386,-149.5 518,-149.5 518,-117.5 386,-117.5"/>
<text text-anchor="start" x="394" y="-136.5" font-family="FreeSans" font-size="10.00" fill="#000000">Fun4All_EIC_Generator</text>
<text text-anchor="middle" x="452" y="-124.5" font-family="FreeSans" font-size="10.00" fill="#000000">_Display</text>
</a>
</g>
</g>
<!-- Node2&#45;&gt;Node9 -->
<g id="edge8" class="edge">
<title>Node2&#45;&gt;Node9</title>
<path fill="none" stroke="#191970" d="M332.2325,-101.2273C350.9178,-106.2623 372.6105,-112.1076 392.3594,-117.4292"/>
<polygon fill="#191970" stroke="#191970" points="333.0443,-97.8213 322.4781,-98.5989 331.223,-104.5802 333.0443,-97.8213"/>
</g>
<!-- Node10 -->
<g id="node10" class="node">
<title>Node10</title>
<g id="a_node10"><a xlink:href="../../d4/dfa/Fun4All__Generator__Display_8C.html#af87924a94b22e18901f0d64805565f09" target="_top" xlink:title="Fun4All_Generator_Display">
<polygon fill="none" stroke="#000000" points="376,-78.5 376,-98.5 528,-98.5 528,-78.5 376,-78.5"/>
<text text-anchor="middle" x="452" y="-85.5" font-family="FreeSans" font-size="10.00" fill="#000000">Fun4All_Generator_Display</text>
</a>
</g>
</g>
<!-- Node2&#45;&gt;Node10 -->
<g id="edge9" class="edge">
<title>Node2&#45;&gt;Node10</title>
<path fill="none" stroke="#191970" d="M350.2079,-88.5C358.5826,-88.5 367.2155,-88.5 375.7467,-88.5"/>
<polygon fill="#191970" stroke="#191970" points="350.1449,-85.0001 340.1449,-88.5 350.1448,-92.0001 350.1449,-85.0001"/>
</g>
<!-- Node11 -->
<g id="node11" class="node">
<title>Node11</title>
<g id="a_node11"><a xlink:href="../../d9/d1d/matscan_8C.html#a98ccbc6135fead542f3c4d1dd6882d63" target="_top" xlink:title="matscan">
<polygon fill="none" stroke="#000000" points="422.5,-39.5 422.5,-59.5 481.5,-59.5 481.5,-39.5 422.5,-39.5"/>
<text text-anchor="middle" x="452" y="-46.5" font-family="FreeSans" font-size="10.00" fill="#000000">matscan</text>
</a>
</g>
</g>
<!-- Node2&#45;&gt;Node11 -->
<g id="edge10" class="edge">
<title>Node2&#45;&gt;Node11</title>
<path fill="none" stroke="#191970" d="M338.0032,-76.122C365.8568,-69.6173 398.959,-61.8868 422.2971,-56.4366"/>
<polygon fill="#191970" stroke="#191970" points="336.9487,-72.774 328.0066,-78.4565 338.5406,-79.5906 336.9487,-72.774"/>
</g>
<!-- Node12 -->
<g id="node12" class="node">
<title>Node12</title>
<g id="a_node12"><a xlink:href="../../d5/d57/fun4all__eic__tutorials_2blob_2master_2MagneticField_2DisplayOn_8C.html#a36f5cc4ebb7cd23dac7e492d5c38fbc0" target="_top" xlink:title="QTGui">
<polygon fill="none" stroke="#000000" points="428.5,-.5 428.5,-20.5 475.5,-20.5 475.5,-.5 428.5,-.5"/>
<text text-anchor="middle" x="452" y="-7.5" font-family="FreeSans" font-size="10.00" fill="#000000">QTGui</text>
</a>
</g>
</g>
<!-- Node2&#45;&gt;Node12 -->
<g id="edge11" class="edge">
<title>Node2&#45;&gt;Node12</title>
<path fill="none" stroke="#191970" d="M305.9107,-72.063C323.6571,-58.8428 350.2676,-40.6871 376,-29.5 392.8383,-22.1796 413.0524,-17.2962 428.3993,-14.3153"/>
<polygon fill="#191970" stroke="#191970" points="303.3335,-69.6257 297.4901,-78.4634 307.5694,-75.1986 303.3335,-69.6257"/>
</g>
<!-- Node4 -->
<g id="node4" class="node">
<title>Node4</title>
<g id="a_node4"><a xlink:href="../../db/dc0/Fun4All__AnaTutorial_8C.html#a8c484ea6d7477278e981ef056b17eac9" target="_top" xlink:title="Fun4All_AnaTutorial">
<polygon fill="none" stroke="#000000" points="576,-246.5 576,-266.5 691,-266.5 691,-246.5 576,-246.5"/>
<text text-anchor="middle" x="633.5" y="-253.5" font-family="FreeSans" font-size="10.00" fill="#000000">Fun4All_AnaTutorial</text>
</a>
</g>
</g>
<!-- Node3&#45;&gt;Node4 -->
<g id="edge3" class="edge">
<title>Node3&#45;&gt;Node4</title>
<path fill="none" stroke="#191970" d="M477.3241,-193.8899C499.5449,-206.8893 533.054,-225.2883 564,-237.5 572.6103,-240.8977 582.05,-243.9187 591.1202,-246.4969"/>
<polygon fill="#191970" stroke="#191970" points="478.9201,-190.7674 468.5323,-188.6831 475.3531,-196.7904 478.9201,-190.7674"/>
</g>
<!-- Node5 -->
<g id="node5" class="node">
<title>Node5</title>
<g id="a_node5"><a xlink:href="../../dd/d28/Fun4All__AnaTutorial__Jets_8C.html#a55eaaeb770a3177f917012de87877d28" target="_top" xlink:title="Fun4All_AnaTutorial_Jets">
<polygon fill="none" stroke="#000000" points="564,-207.5 564,-227.5 703,-227.5 703,-207.5 564,-207.5"/>
<text text-anchor="middle" x="633.5" y="-214.5" font-family="FreeSans" font-size="10.00" fill="#000000">Fun4All_AnaTutorial_Jets</text>
</a>
</g>
</g>
<!-- Node3&#45;&gt;Node5 -->
<g id="edge4" class="edge">
<title>Node3&#45;&gt;Node5</title>
<path fill="none" stroke="#191970" d="M496.2495,-188.0082C523.7069,-193.9081 558.9461,-201.4801 586.8421,-207.4743"/>
<polygon fill="#191970" stroke="#191970" points="496.6509,-184.5146 486.1388,-185.8356 495.1803,-191.3584 496.6509,-184.5146"/>
</g>
<!-- Node6 -->
<g id="node6" class="node">
<title>Node6</title>
<g id="a_node6"><a xlink:href="../../d7/d9e/Fun4All__G4__fsPHENIX_8C.html#a72c444217210a14ab1b4e66d9818b1ff" target="_top" xlink:title="Fun4All_G4_fsPHENIX">
<polygon fill="none" stroke="#000000" points="571.5,-168.5 571.5,-188.5 695.5,-188.5 695.5,-168.5 571.5,-168.5"/>
<text text-anchor="middle" x="633.5" y="-175.5" font-family="FreeSans" font-size="10.00" fill="#000000">Fun4All_G4_fsPHENIX</text>
</a>
</g>
</g>
<!-- Node3&#45;&gt;Node6 -->
<g id="edge5" class="edge">
<title>Node3&#45;&gt;Node6</title>
<path fill="none" stroke="#191970" d="M496.4094,-178.5C518.9196,-178.5 546.6288,-178.5 571.2304,-178.5"/>
<polygon fill="#191970" stroke="#191970" points="496.1388,-175.0001 486.1388,-178.5 496.1387,-182.0001 496.1388,-175.0001"/>
</g>
<!-- Node7 -->
<g id="node7" class="node">
<title>Node7</title>
<g id="a_node7"><a xlink:href="../../d0/d87/Fun4All__G4__JLeic_8C.html#a66e8fc0b01ee0a8e805c7b99c4698974" target="_top" xlink:title="Fun4All_G4_JLeic">
<polygon fill="none" stroke="#000000" points="583,-129.5 583,-149.5 684,-149.5 684,-129.5 583,-129.5"/>
<text text-anchor="middle" x="633.5" y="-136.5" font-family="FreeSans" font-size="10.00" fill="#000000">Fun4All_G4_JLeic</text>
</a>
</g>
</g>
<!-- Node3&#45;&gt;Node7 -->
<g id="edge6" class="edge">
<title>Node3&#45;&gt;Node7</title>
<path fill="none" stroke="#191970" d="M496.2495,-168.9918C523.7069,-163.0919 558.9461,-155.5199 586.8421,-149.5257"/>
<polygon fill="#191970" stroke="#191970" points="495.1803,-165.6416 486.1388,-171.1644 496.6509,-172.4854 495.1803,-165.6416"/>
</g>
<!-- Node8 -->
<g id="node8" class="node">
<title>Node8</title>
<g id="a_node8"><a xlink:href="../../d0/d13/Fun4All__G4__sPHENIX_8C.html#a536fa7366e3aeaf273cca94ced704c46" target="_top" xlink:title="Fun4All_G4_sPHENIX">
<polygon fill="none" stroke="#000000" points="573,-90.5 573,-110.5 694,-110.5 694,-90.5 573,-90.5"/>
<text text-anchor="middle" x="633.5" y="-97.5" font-family="FreeSans" font-size="10.00" fill="#000000">Fun4All_G4_sPHENIX</text>
</a>
</g>
</g>
<!-- Node3&#45;&gt;Node8 -->
<g id="edge7" class="edge">
<title>Node3&#45;&gt;Node8</title>
<path fill="none" stroke="#191970" d="M496.0343,-172.0523C506.9731,-169.2479 518.3265,-165.2354 528,-159.5 548.2908,-147.4697 543.9242,-132.8857 564,-120.5 570.6251,-116.4127 578.1177,-113.132 585.669,-110.5071"/>
<polygon fill="#191970" stroke="#191970" points="495.1366,-168.667 486.1651,-174.3028 496.693,-175.4918 495.1366,-168.667"/>
</g>
</g>
</svg>
