<?xml version="1.0" encoding="UTF-8" standalone="no"?>
<!DOCTYPE svg PUBLIC "-//W3C//DTD SVG 1.1//EN"
 "http://www.w3.org/Graphics/SVG/1.1/DTD/svg11.dtd">
<!-- Generated by graphviz version 2.40.1 (20161225.0304)
 -->
<!-- Title: PHGeomTGeo::ConsistencyCheck Pages: 1 -->
<svg width="1222pt" height="570pt"
 viewBox="0.00 0.00 1222.00 570.00" xmlns="http://www.w3.org/2000/svg" xmlns:xlink="http://www.w3.org/1999/xlink">
<g id="graph0" class="graph" transform="scale(1 1) rotate(0) translate(4 566)">
<title>PHGeomTGeo::ConsistencyCheck</title>
<!-- Node1 -->
<g id="node1" class="node">
<title>Node1</title>
<polygon fill="#bfbfbf" stroke="#000000" points="0,-192.5 0,-212.5 186,-212.5 186,-192.5 0,-192.5"/>
<text text-anchor="middle" x="93" y="-199.5" font-family="FreeSans" font-size="10.00" fill="#000000">PHGeomTGeo::ConsistencyCheck</text>
</g>
<!-- Node2 -->
<g id="node2" class="node">
<title>Node2</title>
<g id="a_node2"><a xlink:href="../../d7/d6d/classPHGeomTGeo.html#a3e111f6229f7ce6392b14a98fdf5bea9" target="_top" xlink:title="PHGeomTGeo::GetGeometry">
<polygon fill="none" stroke="#000000" points="227,-251.5 227,-271.5 389,-271.5 389,-251.5 227,-251.5"/>
<text text-anchor="middle" x="308" y="-258.5" font-family="FreeSans" font-size="10.00" fill="#000000">PHGeomTGeo::GetGeometry</text>
</a>
</g>
</g>
<!-- Node1&#45;&gt;Node2 -->
<g id="edge1" class="edge">
<title>Node1&#45;&gt;Node2</title>
<path fill="none" stroke="#191970" d="M133.7416,-215.5591C159.0306,-223.48 192.2665,-233.557 222,-241.5 235.0325,-244.9815 249.2673,-248.4327 262.3378,-251.4631"/>
<polygon fill="#191970" stroke="#191970" points="134.7072,-212.1938 124.1177,-212.5288 132.6048,-218.8706 134.7072,-212.1938"/>
</g>
<!-- Node29 -->
<g id="node29" class="node">
<title>Node29</title>
<g id="a_node29"><a xlink:href="../../d7/d6d/classPHGeomTGeo.html#a6f9c494a30dab6ed3b5a221c95d150d5" target="_top" xlink:title="PHGeomTGeo::identify">
<polygon fill="none" stroke="#000000" points="242,-134.5 242,-154.5 374,-154.5 374,-134.5 242,-134.5"/>
<text text-anchor="middle" x="308" y="-141.5" font-family="FreeSans" font-size="10.00" fill="#000000">PHGeomTGeo::identify</text>
</a>
</g>
</g>
<!-- Node1&#45;&gt;Node29 -->
<g id="edge28" class="edge">
<title>Node1&#45;&gt;Node29</title>
<path fill="none" stroke="#191970" d="M133.4566,-189.4043C158.7653,-181.4277 192.1231,-171.3045 222,-163.5 234.1312,-160.331 247.3145,-157.2428 259.6312,-154.5087"/>
<polygon fill="#191970" stroke="#191970" points="132.3046,-186.0978 123.8304,-192.4569 134.4206,-192.7703 132.3046,-186.0978"/>
</g>
<!-- Node30 -->
<g id="node30" class="node">
<title>Node30</title>
<g id="a_node30"><a xlink:href="../../d7/d6d/classPHGeomTGeo.html#a69190f7dbaee394d90516bce19e224a0" target="_top" xlink:title="isValid returns non zero if object contains vailid data">
<polygon fill="none" stroke="#000000" points="245,-290.5 245,-310.5 371,-310.5 371,-290.5 245,-290.5"/>
<text text-anchor="middle" x="308" y="-297.5" font-family="FreeSans" font-size="10.00" fill="#000000">PHGeomTGeo::isValid</text>
</a>
</g>
</g>
<!-- Node1&#45;&gt;Node30 -->
<g id="edge29" class="edge">
<title>Node1&#45;&gt;Node30</title>
<path fill="none" stroke="#191970" d="M114.8526,-218.6854C139.6367,-236.3137 181.8378,-264.1709 222,-280.5 231.7981,-284.4837 242.5621,-287.7729 253.0594,-290.4525"/>
<polygon fill="#191970" stroke="#191970" points="116.7037,-215.7051 106.5457,-212.6939 112.6088,-221.3824 116.7037,-215.7051"/>
</g>
<!-- Node32 -->
<g id="node32" class="node">
<title>Node32</title>
<g id="a_node32"><a xlink:href="../../d7/d6d/classPHGeomTGeo.html#af0772491188524c7674c1ef004d49ad5" target="_top" xlink:title="Clear Event.">
<polygon fill="none" stroke="#000000" points="247,-173.5 247,-193.5 369,-193.5 369,-173.5 247,-173.5"/>
<text text-anchor="middle" x="308" y="-180.5" font-family="FreeSans" font-size="10.00" fill="#000000">PHGeomTGeo::Reset</text>
</a>
</g>
</g>
<!-- Node1&#45;&gt;Node32 -->
<g id="edge34" class="edge">
<title>Node1&#45;&gt;Node32</title>
<path fill="none" stroke="#191970" d="M196.2062,-193.3794C213.5051,-191.8507 230.9524,-190.3089 246.7526,-188.9126"/>
<polygon fill="#191970" stroke="#191970" points="195.7047,-189.91 186.0517,-194.2768 196.321,-196.8829 195.7047,-189.91"/>
</g>
<!-- Node33 -->
<g id="node33" class="node">
<title>Node33</title>
<g id="a_node33"><a xlink:href="../../d7/d6d/classPHGeomTGeo.html#a8b2df41583e27a653458c6aae76a2926" target="_top" xlink:title="PHGeomTGeo::SetGeometry">
<polygon fill="none" stroke="#000000" points="228,-212.5 228,-232.5 388,-232.5 388,-212.5 228,-212.5"/>
<text text-anchor="middle" x="308" y="-219.5" font-family="FreeSans" font-size="10.00" fill="#000000">PHGeomTGeo::SetGeometry</text>
</a>
</g>
</g>
<!-- Node1&#45;&gt;Node33 -->
<g id="edge37" class="edge">
<title>Node1&#45;&gt;Node33</title>
<path fill="none" stroke="#191970" d="M196.2384,-212.1036C206.8954,-213.0949 217.6084,-214.0915 227.9575,-215.0542"/>
<polygon fill="#191970" stroke="#191970" points="196.3329,-208.5973 186.0517,-211.156 195.6845,-215.5672 196.3329,-208.5973"/>
</g>
<!-- Node35 -->
<g id="node35" class="node">
<title>Node35</title>
<g id="a_node35"><a xlink:href="../../d7/d6d/classPHGeomTGeo.html#a7d42ff78b39b8bf5c73361483a45ba11" target="_top" xlink:title="PHGeomTGeo::~PHGeomTGeo">
<polygon fill="none" stroke="#000000" points="222,-95.5 222,-115.5 394,-115.5 394,-95.5 222,-95.5"/>
<text text-anchor="middle" x="308" y="-102.5" font-family="FreeSans" font-size="10.00" fill="#000000">PHGeomTGeo::~PHGeomTGeo</text>
</a>
</g>
</g>
<!-- Node1&#45;&gt;Node35 -->
<g id="edge42" class="edge">
<title>Node1&#45;&gt;Node35</title>
<path fill="none" stroke="#191970" d="M114.8191,-186.2315C139.5734,-168.5294 181.7481,-140.6067 222,-124.5 230.9436,-120.9212 240.6937,-117.9532 250.3115,-115.512"/>
<polygon fill="#191970" stroke="#191970" points="112.5621,-183.5448 106.5231,-192.2501 116.6727,-189.2108 112.5621,-183.5448"/>
</g>
<!-- Node3 -->
<g id="node3" class="node">
<title>Node3</title>
<g id="a_node3"><a xlink:href="../../d2/da1/classPHGeomUtility.html#aa80925b14430021ea70d0b906af8e885" target="_top" xlink:title="Main user interface: DST node &#45;&gt; TGeoManager for downstream use.">
<polygon fill="none" stroke="#000000" points="442.5,-350.5 442.5,-370.5 627.5,-370.5 627.5,-350.5 442.5,-350.5"/>
<text text-anchor="middle" x="535" y="-357.5" font-family="FreeSans" font-size="10.00" fill="#000000">PHGeomUtility::GetTGeoManager</text>
</a>
</g>
</g>
<!-- Node2&#45;&gt;Node3 -->
<g id="edge2" class="edge">
<title>Node2&#45;&gt;Node3</title>
<path fill="none" stroke="#191970" d="M379.8107,-274.5899C384.7059,-276.3236 389.4828,-278.2839 394,-280.5 412.6984,-289.6732 412.4607,-299.2683 430,-310.5 455.6745,-326.9413 487.5922,-341.3828 509.4556,-350.4634"/>
<polygon fill="#191970" stroke="#191970" points="380.8798,-271.2573 370.2884,-271.5277 378.7367,-277.9212 380.8798,-271.2573"/>
</g>
<!-- Node15 -->
<g id="node15" class="node">
<title>Node15</title>
<g id="a_node15"><a xlink:href="../../d2/da1/classPHGeomUtility.html#a4a80252bedb22198d011065e41aa669e" target="_top" xlink:title="TGeo ROOT/GDML/Macro file &#45;&gt; DST node with automatic file type discrimination based on file names...">
<polygon fill="none" stroke="#000000" points="447,-151.5 447,-171.5 623,-171.5 623,-151.5 447,-151.5"/>
<text text-anchor="middle" x="535" y="-158.5" font-family="FreeSans" font-size="10.00" fill="#000000">PHGeomUtility::ImportGeomFile</text>
</a>
</g>
</g>
<!-- Node2&#45;&gt;Node15 -->
<g id="edge14" class="edge">
<title>Node2&#45;&gt;Node15</title>
<path fill="none" stroke="#191970" d="M384.8947,-247.1835C388.0782,-245.4914 391.1324,-243.6043 394,-241.5 419.38,-222.8755 404.1671,-198.4909 430,-180.5 435.2446,-176.8475 440.9827,-173.8343 446.9859,-171.3546"/>
<polygon fill="#191970" stroke="#191970" points="383.2453,-244.0897 375.6283,-251.4539 386.1752,-250.4471 383.2453,-244.0897"/>
</g>
<!-- Node28 -->
<g id="node28" class="node">
<title>Node28</title>
<g id="a_node28"><a xlink:href="../../d2/da1/classPHGeomUtility.html#ae053065752b1bff9f63f585b6fefc68b" target="_top" xlink:title="gGeoManager &#45;&gt; DST node">
<polygon fill="none" stroke="#000000" points="451.5,-268.5 451.5,-300.5 618.5,-300.5 618.5,-268.5 451.5,-268.5"/>
<text text-anchor="start" x="459.5" y="-287.5" font-family="FreeSans" font-size="10.00" fill="#000000">PHGeomUtility::ImportCurrent</text>
<text text-anchor="middle" x="535" y="-275.5" font-family="FreeSans" font-size="10.00" fill="#000000">TGeoManager</text>
</a>
</g>
</g>
<!-- Node2&#45;&gt;Node28 -->
<g id="edge27" class="edge">
<title>Node2&#45;&gt;Node28</title>
<path fill="none" stroke="#191970" d="M399.3103,-270.7517C416.4522,-272.4885 434.2968,-274.2966 451.1966,-276.0089"/>
<polygon fill="#191970" stroke="#191970" points="399.613,-267.2645 389.311,-269.7386 398.9073,-274.2289 399.613,-267.2645"/>
</g>
<!-- Node4 -->
<g id="node4" class="node">
<title>Node4</title>
<g id="a_node4"><a xlink:href="../../d6/deb/PHGeom__DSTInspection_8C.html#a004a4f91a64bef884a2708f11f6094ec" target="_top" xlink:title="PHGeom_DSTInspection">
<polygon fill="none" stroke="#000000" points="692,-412.5 692,-432.5 829,-432.5 829,-412.5 692,-412.5"/>
<text text-anchor="middle" x="760.5" y="-419.5" font-family="FreeSans" font-size="10.00" fill="#000000">PHGeom_DSTInspection</text>
</a>
</g>
</g>
<!-- Node3&#45;&gt;Node4 -->
<g id="edge3" class="edge">
<title>Node3&#45;&gt;Node4</title>
<path fill="none" stroke="#191970" d="M575.4641,-373.7201C603.5255,-382.671 641.8454,-394.4657 676,-403.5 687.9199,-406.653 700.8733,-409.7355 712.9752,-412.4691"/>
<polygon fill="#191970" stroke="#191970" points="576.2078,-370.283 565.6166,-370.5614 574.0697,-376.9485 576.2078,-370.283"/>
</g>
<!-- Node5 -->
<g id="node5" class="node">
<title>Node5</title>
<g id="a_node5"><a xlink:href="../../dd/d22/classPHTpcTracker.html#aa579cb8953a6aa2d57a99dc2c2e91df7" target="_top" xlink:title="PHTpcTracker::Process">
<polygon fill="none" stroke="#000000" points="696,-373.5 696,-393.5 825,-393.5 825,-373.5 696,-373.5"/>
<text text-anchor="middle" x="760.5" y="-380.5" font-family="FreeSans" font-size="10.00" fill="#000000">PHTpcTracker::Process</text>
</a>
</g>
</g>
<!-- Node3&#45;&gt;Node5 -->
<g id="edge4" class="edge">
<title>Node3&#45;&gt;Node5</title>
<path fill="none" stroke="#191970" d="M637.6572,-370.9706C657.4046,-372.9847 677.5683,-375.0413 695.699,-376.8906"/>
<polygon fill="#191970" stroke="#191970" points="637.9992,-367.4874 627.6957,-369.9545 637.2889,-374.4513 637.9992,-367.4874"/>
</g>
<!-- Node6 -->
<g id="node6" class="node">
<title>Node6</title>
<g id="a_node6"><a xlink:href="../../da/db1/classMakeActsGeometry.html#ae7edb37e3cecad3ff0a12590a7ad1ac0" target="_top" xlink:title="Get all the nodes.">
<polygon fill="none" stroke="#000000" points="676,-232.5 676,-252.5 845,-252.5 845,-232.5 676,-232.5"/>
<text text-anchor="middle" x="760.5" y="-239.5" font-family="FreeSans" font-size="10.00" fill="#000000">MakeActsGeometry::getNodes</text>
</a>
</g>
</g>
<!-- Node3&#45;&gt;Node6 -->
<g id="edge5" class="edge">
<title>Node3&#45;&gt;Node6</title>
<path fill="none" stroke="#191970" d="M575.2857,-346.7638C596.0404,-338.4018 620.9236,-326.2698 640,-310.5 660.8282,-293.282 653.3835,-276.2907 676,-261.5 681.5371,-257.8789 687.667,-254.9412 694.0224,-252.5591"/>
<polygon fill="#191970" stroke="#191970" points="573.8327,-343.5733 565.775,-350.4526 576.364,-350.0996 573.8327,-343.5733"/>
</g>
<!-- Node9 -->
<g id="node9" class="node">
<title>Node9</title>
<g id="a_node9"><a xlink:href="../../db/dc4/classPHGenFitTrackProjection.html#ae2e85a8af68c6564ef33a4b85ecc17bd" target="_top" xlink:title="PHGenFitTrackProjection\l::InitRun">
<polygon fill="none" stroke="#000000" points="691.5,-322.5 691.5,-354.5 829.5,-354.5 829.5,-322.5 691.5,-322.5"/>
<text text-anchor="start" x="699.5" y="-341.5" font-family="FreeSans" font-size="10.00" fill="#000000">PHGenFitTrackProjection</text>
<text text-anchor="middle" x="760.5" y="-329.5" font-family="FreeSans" font-size="10.00" fill="#000000">::InitRun</text>
</a>
</g>
</g>
<!-- Node3&#45;&gt;Node9 -->
<g id="edge8" class="edge">
<title>Node3&#45;&gt;Node9</title>
<path fill="none" stroke="#191970" d="M637.7205,-350.4785C655.8514,-348.7096 674.331,-346.9067 691.2639,-345.2547"/>
<polygon fill="#191970" stroke="#191970" points="637.3085,-347.002 627.6957,-351.4565 637.9883,-353.9689 637.3085,-347.002"/>
</g>
<!-- Node10 -->
<g id="node10" class="node">
<title>Node10</title>
<g id="a_node10"><a xlink:href="../../de/d25/classPHGenFitTrkFitter.html#a536b356cbf3e4a2dacccd5e0f630f8fe" target="_top" xlink:title="Initialization Run, called for initialization of a run.">
<polygon fill="none" stroke="#000000" points="706,-271.5 706,-303.5 815,-303.5 815,-271.5 706,-271.5"/>
<text text-anchor="start" x="714" y="-290.5" font-family="FreeSans" font-size="10.00" fill="#000000">PHGenFitTrkFitter::</text>
<text text-anchor="middle" x="760.5" y="-278.5" font-family="FreeSans" font-size="10.00" fill="#000000">InitRun</text>
</a>
</g>
</g>
<!-- Node3&#45;&gt;Node10 -->
<g id="edge9" class="edge">
<title>Node3&#45;&gt;Node10</title>
<path fill="none" stroke="#191970" d="M573.8886,-347.2669C602.16,-337.7127 641.3803,-324.5944 676,-313.5 686.2317,-310.2211 697.1858,-306.7914 707.7023,-303.5385"/>
<polygon fill="#191970" stroke="#191970" points="572.7207,-343.9671 564.3708,-350.4885 574.9651,-350.5975 572.7207,-343.9671"/>
</g>
<!-- Node11 -->
<g id="node11" class="node">
<title>Node11</title>
<g id="a_node11"><a xlink:href="../../d0/d22/classPHGenFitTrkProp.html#afd241a99a51303034f264a659ade7c16" target="_top" xlink:title="track propagation">
<polygon fill="none" stroke="#000000" points="686.5,-529.5 686.5,-561.5 834.5,-561.5 834.5,-529.5 686.5,-529.5"/>
<text text-anchor="start" x="694.5" y="-548.5" font-family="FreeSans" font-size="10.00" fill="#000000">PHGenFitTrkProp::Initialize</text>
<text text-anchor="middle" x="760.5" y="-536.5" font-family="FreeSans" font-size="10.00" fill="#000000">PHGenFit</text>
</a>
</g>
</g>
<!-- Node3&#45;&gt;Node11 -->
<g id="edge10" class="edge">
<title>Node3&#45;&gt;Node11</title>
<path fill="none" stroke="#191970" d="M546.6911,-379.7391C568.1093,-413.3558 616.9152,-482.7913 676,-520.5 681.2874,-523.8745 687.0486,-526.8094 692.9963,-529.3588"/>
<polygon fill="#191970" stroke="#191970" points="549.4328,-377.5218 541.1655,-370.8959 543.4964,-381.2312 549.4328,-377.5218"/>
</g>
<!-- Node13 -->
<g id="node13" class="node">
<title>Node13</title>
<g id="a_node13"><a xlink:href="../../d5/daa/classPHRaveVertexing.html#a4b74b109c0056a629fedf577a71dfbeb" target="_top" xlink:title="Initialization Run, called for initialization of a run.">
<polygon fill="none" stroke="#000000" points="688,-490.5 688,-510.5 833,-510.5 833,-490.5 688,-490.5"/>
<text text-anchor="middle" x="760.5" y="-497.5" font-family="FreeSans" font-size="10.00" fill="#000000">PHRaveVertexing::InitRun</text>
</a>
</g>
</g>
<!-- Node3&#45;&gt;Node13 -->
<g id="edge12" class="edge">
<title>Node3&#45;&gt;Node13</title>
<path fill="none" stroke="#191970" d="M550.6308,-378.6624C574.7398,-405.4628 623.7119,-455.255 676,-481.5 683.2568,-485.1424 691.212,-488.0936 699.248,-490.4831"/>
<polygon fill="#191970" stroke="#191970" points="552.95,-376.0014 543.7041,-370.8279 547.7057,-380.638 552.95,-376.0014"/>
</g>
<!-- Node14 -->
<g id="node14" class="node">
<title>Node14</title>
<g id="a_node14"><a xlink:href="../../d9/d91/classPHG4TrackFastSim.html#a17dc5842cbcfb29af50a12af173c82c8" target="_top" xlink:title="Initialization Run, called for initialization of a run.">
<polygon fill="none" stroke="#000000" points="684.5,-451.5 684.5,-471.5 836.5,-471.5 836.5,-451.5 684.5,-451.5"/>
<text text-anchor="middle" x="760.5" y="-458.5" font-family="FreeSans" font-size="10.00" fill="#000000">PHG4TrackFastSim::InitRun</text>
</a>
</g>
</g>
<!-- Node3&#45;&gt;Node14 -->
<g id="edge13" class="edge">
<title>Node3&#45;&gt;Node14</title>
<path fill="none" stroke="#191970" d="M557.3947,-376.4479C584.3239,-394.9147 631.4752,-425.0272 676,-442.5 684.9582,-446.0155 694.7186,-448.9607 704.3201,-451.4011"/>
<polygon fill="#191970" stroke="#191970" points="559.2804,-373.4963 549.0704,-370.6668 555.2874,-379.2457 559.2804,-373.4963"/>
</g>
<!-- Node7 -->
<g id="node7" class="node">
<title>Node7</title>
<g id="a_node7"><a xlink:href="../../da/db1/classMakeActsGeometry.html#aa809a1c2b47d8c089a0dc4a6a96d1cc8" target="_top" xlink:title="Main function to build all acts geometry for use in the fitting modules.">
<polygon fill="none" stroke="#000000" points="881,-226.5 881,-258.5 1039,-258.5 1039,-226.5 881,-226.5"/>
<text text-anchor="start" x="889" y="-245.5" font-family="FreeSans" font-size="10.00" fill="#000000">MakeActsGeometry::buildAll</text>
<text text-anchor="middle" x="960" y="-233.5" font-family="FreeSans" font-size="10.00" fill="#000000">Geometry</text>
</a>
</g>
</g>
<!-- Node6&#45;&gt;Node7 -->
<g id="edge6" class="edge">
<title>Node6&#45;&gt;Node7</title>
<path fill="none" stroke="#191970" d="M855.196,-242.5C863.8242,-242.5 872.503,-242.5 880.9733,-242.5"/>
<polygon fill="#191970" stroke="#191970" points="855.106,-239.0001 845.106,-242.5 855.1059,-246.0001 855.106,-239.0001"/>
</g>
<!-- Node8 -->
<g id="node8" class="node">
<title>Node8</title>
<g id="a_node8"><a xlink:href="../../d7/df2/classPHActsSourceLinks.html#a8d10b5904edcf4c6a90411e0f259e663" target="_top" xlink:title="PHActsSourceLinks::\lInitRun">
<polygon fill="none" stroke="#000000" points="1085.5,-226.5 1085.5,-258.5 1203.5,-258.5 1203.5,-226.5 1085.5,-226.5"/>
<text text-anchor="start" x="1093.5" y="-245.5" font-family="FreeSans" font-size="10.00" fill="#000000">PHActsSourceLinks::</text>
<text text-anchor="middle" x="1144.5" y="-233.5" font-family="FreeSans" font-size="10.00" fill="#000000">InitRun</text>
</a>
</g>
</g>
<!-- Node7&#45;&gt;Node8 -->
<g id="edge7" class="edge">
<title>Node7&#45;&gt;Node8</title>
<path fill="none" stroke="#191970" d="M1049.3073,-242.5C1061.5633,-242.5 1073.8886,-242.5 1085.4168,-242.5"/>
<polygon fill="#191970" stroke="#191970" points="1049.0475,-239.0001 1039.0475,-242.5 1049.0475,-246.0001 1049.0475,-239.0001"/>
</g>
<!-- Node12 -->
<g id="node12" class="node">
<title>Node12</title>
<g id="a_node12"><a xlink:href="../../d0/d22/classPHGenFitTrkProp.html#a42d0f2ddae533d29e577380295a737d3" target="_top" xlink:title="PHGenFitTrkProp::Setup">
<polygon fill="none" stroke="#000000" points="892.5,-535.5 892.5,-555.5 1027.5,-555.5 1027.5,-535.5 892.5,-535.5"/>
<text text-anchor="middle" x="960" y="-542.5" font-family="FreeSans" font-size="10.00" fill="#000000">PHGenFitTrkProp::Setup</text>
</a>
</g>
</g>
<!-- Node11&#45;&gt;Node12 -->
<g id="edge11" class="edge">
<title>Node11&#45;&gt;Node12</title>
<path fill="none" stroke="#191970" d="M844.8364,-545.5C860.7045,-545.5 877.1059,-545.5 892.3818,-545.5"/>
<polygon fill="#191970" stroke="#191970" points="844.503,-542.0001 834.5029,-545.5 844.5029,-549.0001 844.503,-542.0001"/>
</g>
<!-- Node16 -->
<g id="node16" class="node">
<title>Node16</title>
<g id="a_node16"><a xlink:href="../../de/d0f/classPHGeomFileImport.html#aec25f7186f832f7d3bf4c5cce29fcd3b" target="_top" xlink:title="PHGeomFileImport::InitRun">
<polygon fill="none" stroke="#000000" points="684.5,-151.5 684.5,-171.5 836.5,-171.5 836.5,-151.5 684.5,-151.5"/>
<text text-anchor="middle" x="760.5" y="-158.5" font-family="FreeSans" font-size="10.00" fill="#000000">PHGeomFileImport::InitRun</text>
</a>
</g>
</g>
<!-- Node15&#45;&gt;Node16 -->
<g id="edge15" class="edge">
<title>Node15&#45;&gt;Node16</title>
<path fill="none" stroke="#191970" d="M633.2016,-161.5C650.3792,-161.5 668.0148,-161.5 684.4777,-161.5"/>
<polygon fill="#191970" stroke="#191970" points="633.1531,-158.0001 623.153,-161.5 633.153,-165.0001 633.1531,-158.0001"/>
</g>
<!-- Node17 -->
<g id="node17" class="node">
<title>Node17</title>
<g id="a_node17"><a xlink:href="../../d0/d78/classPHG4Reco.html#a9d8228ce8682c19cd6be2f6b44ec847b" target="_top" xlink:title="PHG4Reco::InitRun">
<polygon fill="none" stroke="#000000" points="705.5,-106.5 705.5,-126.5 815.5,-126.5 815.5,-106.5 705.5,-106.5"/>
<text text-anchor="middle" x="760.5" y="-113.5" font-family="FreeSans" font-size="10.00" fill="#000000">PHG4Reco::InitRun</text>
</a>
</g>
</g>
<!-- Node15&#45;&gt;Node17 -->
<g id="edge16" class="edge">
<title>Node15&#45;&gt;Node17</title>
<path fill="none" stroke="#191970" d="M595.2077,-149.4852C631.1665,-142.3093 676.3089,-133.3009 710.3279,-126.5122"/>
<polygon fill="#191970" stroke="#191970" points="594.4476,-146.0677 585.3259,-151.4571 595.8175,-152.9324 594.4476,-146.0677"/>
</g>
<!-- Node18 -->
<g id="node18" class="node">
<title>Node18</title>
<g id="a_node18"><a xlink:href="../../d5/d57/fun4all__eic__tutorials_2blob_2master_2MagneticField_2DisplayOn_8C.html#a8ac4d6fb78f920957b354f88d6195f54" target="_top" xlink:title="DisplayOn">
<polygon fill="none" stroke="#000000" points="926,-129.5 926,-149.5 994,-149.5 994,-129.5 926,-129.5"/>
<text text-anchor="middle" x="960" y="-136.5" font-family="FreeSans" font-size="10.00" fill="#000000">DisplayOn</text>
</a>
</g>
</g>
<!-- Node17&#45;&gt;Node18 -->
<g id="edge17" class="edge">
<title>Node17&#45;&gt;Node18</title>
<path fill="none" stroke="#191970" d="M825.6968,-124.0164C859.0899,-127.8663 898.3777,-132.3957 925.8022,-135.5574"/>
<polygon fill="#191970" stroke="#191970" points="825.8774,-120.5141 815.5424,-122.8457 825.0757,-127.4681 825.8774,-120.5141"/>
</g>
<!-- Node24 -->
<g id="node24" class="node">
<title>Node24</title>
<g id="a_node24"><a xlink:href="../../d5/df2/Fun4All__EIC__Generator__Display_8C.html#a276181099936efe81415286b29f36e51" target="_top" xlink:title="Fun4All_EIC_Generator\l_Display">
<polygon fill="none" stroke="#000000" points="894,-78.5 894,-110.5 1026,-110.5 1026,-78.5 894,-78.5"/>
<text text-anchor="start" x="902" y="-97.5" font-family="FreeSans" font-size="10.00" fill="#000000">Fun4All_EIC_Generator</text>
<text text-anchor="middle" x="960" y="-85.5" font-family="FreeSans" font-size="10.00" fill="#000000">_Display</text>
</a>
</g>
</g>
<!-- Node17&#45;&gt;Node24 -->
<g id="edge23" class="edge">
<title>Node17&#45;&gt;Node24</title>
<path fill="none" stroke="#191970" d="M825.7053,-109.3094C847.5362,-106.902 871.8857,-104.2169 893.7924,-101.8011"/>
<polygon fill="#191970" stroke="#191970" points="825.0984,-105.8551 815.5424,-110.4302 825.8658,-112.8129 825.0984,-105.8551"/>
</g>
<!-- Node25 -->
<g id="node25" class="node">
<title>Node25</title>
<g id="a_node25"><a xlink:href="../../d4/dfa/Fun4All__Generator__Display_8C.html#af87924a94b22e18901f0d64805565f09" target="_top" xlink:title="Fun4All_Generator_Display">
<polygon fill="none" stroke="#000000" points="884,-39.5 884,-59.5 1036,-59.5 1036,-39.5 884,-39.5"/>
<text text-anchor="middle" x="960" y="-46.5" font-family="FreeSans" font-size="10.00" fill="#000000">Fun4All_Generator_Display</text>
</a>
</g>
</g>
<!-- Node17&#45;&gt;Node25 -->
<g id="edge24" class="edge">
<title>Node17&#45;&gt;Node25</title>
<path fill="none" stroke="#191970" d="M792.1364,-102.4541C816.1819,-92.1339 850.2529,-78.2661 881,-68.5 891.3522,-65.2118 902.624,-62.1828 913.3257,-59.5545"/>
<polygon fill="#191970" stroke="#191970" points="790.5877,-99.3106 782.8034,-106.4977 793.3706,-105.7337 790.5877,-99.3106"/>
</g>
<!-- Node26 -->
<g id="node26" class="node">
<title>Node26</title>
<g id="a_node26"><a xlink:href="../../d9/d1d/matscan_8C.html#a98ccbc6135fead542f3c4d1dd6882d63" target="_top" xlink:title="matscan">
<polygon fill="none" stroke="#000000" points="930.5,-.5 930.5,-20.5 989.5,-20.5 989.5,-.5 930.5,-.5"/>
<text text-anchor="middle" x="960" y="-7.5" font-family="FreeSans" font-size="10.00" fill="#000000">matscan</text>
</a>
</g>
</g>
<!-- Node17&#45;&gt;Node26 -->
<g id="edge25" class="edge">
<title>Node17&#45;&gt;Node26</title>
<path fill="none" stroke="#191970" d="M779.272,-99.31C801.7996,-79.5905 841.4979,-47.6489 881,-29.5 896.51,-22.374 915.0072,-17.7397 930.2026,-14.8335"/>
<polygon fill="#191970" stroke="#191970" points="776.6573,-96.9517 771.5151,-106.215 781.3116,-102.1802 776.6573,-96.9517"/>
</g>
<!-- Node27 -->
<g id="node27" class="node">
<title>Node27</title>
<g id="a_node27"><a xlink:href="../../d5/d57/fun4all__eic__tutorials_2blob_2master_2MagneticField_2DisplayOn_8C.html#a36f5cc4ebb7cd23dac7e492d5c38fbc0" target="_top" xlink:title="QTGui">
<polygon fill="none" stroke="#000000" points="936.5,-168.5 936.5,-188.5 983.5,-188.5 983.5,-168.5 936.5,-168.5"/>
<text text-anchor="middle" x="960" y="-175.5" font-family="FreeSans" font-size="10.00" fill="#000000">QTGui</text>
</a>
</g>
</g>
<!-- Node17&#45;&gt;Node27 -->
<g id="edge26" class="edge">
<title>Node17&#45;&gt;Node27</title>
<path fill="none" stroke="#191970" d="M808.9787,-129.4542C820.8776,-133.0131 833.4977,-137.1124 845,-141.5 861.5323,-147.8063 864.3458,-152.5231 881,-158.5 899.2434,-165.0473 920.5857,-170.3148 936.4853,-173.7972"/>
<polygon fill="#191970" stroke="#191970" points="809.7739,-126.0403 799.1938,-126.5975 807.8121,-132.7598 809.7739,-126.0403"/>
</g>
<!-- Node19 -->
<g id="node19" class="node">
<title>Node19</title>
<g id="a_node19"><a xlink:href="../../db/dc0/Fun4All__AnaTutorial_8C.html#a8c484ea6d7477278e981ef056b17eac9" target="_top" xlink:title="Fun4All_AnaTutorial">
<polygon fill="none" stroke="#000000" points="1087,-148.5 1087,-168.5 1202,-168.5 1202,-148.5 1087,-148.5"/>
<text text-anchor="middle" x="1144.5" y="-155.5" font-family="FreeSans" font-size="10.00" fill="#000000">Fun4All_AnaTutorial</text>
</a>
</g>
</g>
<!-- Node18&#45;&gt;Node19 -->
<g id="edge18" class="edge">
<title>Node18&#45;&gt;Node19</title>
<path fill="none" stroke="#191970" d="M1004.4523,-144.0777C1029.1879,-146.625 1060.2584,-149.8247 1086.8455,-152.5627"/>
<polygon fill="#191970" stroke="#191970" points="1004.5766,-140.5721 994.2706,-143.0292 1003.8595,-147.5353 1004.5766,-140.5721"/>
</g>
<!-- Node20 -->
<g id="node20" class="node">
<title>Node20</title>
<g id="a_node20"><a xlink:href="../../dd/d28/Fun4All__AnaTutorial__Jets_8C.html#a55eaaeb770a3177f917012de87877d28" target="_top" xlink:title="Fun4All_AnaTutorial_Jets">
<polygon fill="none" stroke="#000000" points="1075,-109.5 1075,-129.5 1214,-129.5 1214,-109.5 1075,-109.5"/>
<text text-anchor="middle" x="1144.5" y="-116.5" font-family="FreeSans" font-size="10.00" fill="#000000">Fun4All_AnaTutorial_Jets</text>
</a>
</g>
</g>
<!-- Node18&#45;&gt;Node20 -->
<g id="edge19" class="edge">
<title>Node18&#45;&gt;Node20</title>
<path fill="none" stroke="#191970" d="M1004.2449,-134.7038C1025.3863,-132.4121 1051.1908,-129.6148 1074.8748,-127.0474"/>
<polygon fill="#191970" stroke="#191970" points="1003.8352,-131.2276 994.2706,-135.785 1004.5896,-138.1869 1003.8352,-131.2276"/>
</g>
<!-- Node21 -->
<g id="node21" class="node">
<title>Node21</title>
<g id="a_node21"><a xlink:href="../../d7/d9e/Fun4All__G4__fsPHENIX_8C.html#a72c444217210a14ab1b4e66d9818b1ff" target="_top" xlink:title="Fun4All_G4_fsPHENIX">
<polygon fill="none" stroke="#000000" points="1082.5,-70.5 1082.5,-90.5 1206.5,-90.5 1206.5,-70.5 1082.5,-70.5"/>
<text text-anchor="middle" x="1144.5" y="-77.5" font-family="FreeSans" font-size="10.00" fill="#000000">Fun4All_G4_fsPHENIX</text>
</a>
</g>
</g>
<!-- Node18&#45;&gt;Node21 -->
<g id="edge20" class="edge">
<title>Node18&#45;&gt;Node21</title>
<path fill="none" stroke="#191970" d="M1003.9784,-130.5115C1015.5602,-127.5666 1027.9125,-123.8967 1039,-119.5 1056.0144,-112.753 1058.0501,-106.4076 1075,-99.5 1083.3403,-96.1011 1092.4867,-93.1111 1101.3261,-90.569"/>
<polygon fill="#191970" stroke="#191970" points="1002.947,-127.16 994.0501,-132.9129 1004.5927,-133.9638 1002.947,-127.16"/>
</g>
<!-- Node22 -->
<g id="node22" class="node">
<title>Node22</title>
<g id="a_node22"><a xlink:href="../../d0/d87/Fun4All__G4__JLeic_8C.html#a66e8fc0b01ee0a8e805c7b99c4698974" target="_top" xlink:title="Fun4All_G4_JLeic">
<polygon fill="none" stroke="#000000" points="1094,-31.5 1094,-51.5 1195,-51.5 1195,-31.5 1094,-31.5"/>
<text text-anchor="middle" x="1144.5" y="-38.5" font-family="FreeSans" font-size="10.00" fill="#000000">Fun4All_G4_JLeic</text>
</a>
</g>
</g>
<!-- Node18&#45;&gt;Node22 -->
<g id="edge21" class="edge">
<title>Node18&#45;&gt;Node22</title>
<path fill="none" stroke="#191970" d="M1004.3516,-134.5407C1016.434,-131.592 1028.9479,-126.9133 1039,-119.5 1063.7222,-101.2677 1050.4512,-78.9652 1075,-60.5 1080.598,-56.2892 1087.0726,-53.0115 1093.7724,-50.4601"/>
<polygon fill="#191970" stroke="#191970" points="1003.437,-131.1562 994.3674,-136.6327 1004.8726,-138.0074 1003.437,-131.1562"/>
</g>
<!-- Node23 -->
<g id="node23" class="node">
<title>Node23</title>
<g id="a_node23"><a xlink:href="../../d0/d13/Fun4All__G4__sPHENIX_8C.html#a536fa7366e3aeaf273cca94ced704c46" target="_top" xlink:title="Fun4All_G4_sPHENIX">
<polygon fill="none" stroke="#000000" points="1084,-187.5 1084,-207.5 1205,-207.5 1205,-187.5 1084,-187.5"/>
<text text-anchor="middle" x="1144.5" y="-194.5" font-family="FreeSans" font-size="10.00" fill="#000000">Fun4All_G4_sPHENIX</text>
</a>
</g>
</g>
<!-- Node18&#45;&gt;Node23 -->
<g id="edge22" class="edge">
<title>Node18&#45;&gt;Node23</title>
<path fill="none" stroke="#191970" d="M1003.9257,-148.0098C1015.5078,-150.8077 1027.8735,-154.3015 1039,-158.5 1055.9267,-164.8872 1058.2185,-170.7406 1075,-177.5 1084.3171,-181.2528 1094.5981,-184.6133 1104.3307,-187.4601"/>
<polygon fill="#191970" stroke="#191970" points="1004.5299,-144.5575 994.0001,-145.73 1002.9628,-151.3799 1004.5299,-144.5575"/>
</g>
<!-- Node30&#45;&gt;Node3 -->
<g id="edge30" class="edge">
<title>Node30&#45;&gt;Node3</title>
<path fill="none" stroke="#191970" d="M355.7194,-313.113C397.7094,-324.2117 458.0426,-340.1588 496.8813,-350.4246"/>
<polygon fill="#191970" stroke="#191970" points="356.5571,-309.7143 345.9947,-310.5427 354.7683,-316.4819 356.5571,-309.7143"/>
</g>
<!-- Node30&#45;&gt;Node28 -->
<g id="edge31" class="edge">
<title>Node30&#45;&gt;Node28</title>
<path fill="none" stroke="#191970" d="M381.3085,-295.3329C403.6366,-293.7591 428.3476,-292.0173 451.3073,-290.399"/>
<polygon fill="#191970" stroke="#191970" points="380.9613,-291.8486 371.2322,-296.0431 381.4535,-298.8313 380.9613,-291.8486"/>
</g>
<!-- Node31 -->
<g id="node31" class="node">
<title>Node31</title>
<g id="a_node31"><a xlink:href="../../da/db1/classMakeActsGeometry.html#af83635dc26165004c52f8bc8260a4b88" target="_top" xlink:title="Functions to edit TGeoManager to include TPC boxes.">
<polygon fill="none" stroke="#000000" points="430,-229.5 430,-249.5 640,-249.5 640,-229.5 430,-229.5"/>
<text text-anchor="middle" x="535" y="-236.5" font-family="FreeSans" font-size="10.00" fill="#000000">MakeActsGeometry::editTPCGeometry</text>
</a>
</g>
</g>
<!-- Node30&#45;&gt;Node31 -->
<g id="edge32" class="edge">
<title>Node30&#45;&gt;Node31</title>
<path fill="none" stroke="#191970" d="M372.8352,-287.7908C380.0816,-285.6752 387.2703,-283.2547 394,-280.5 411.3536,-273.3967 412.476,-265.1719 430,-258.5 439.5221,-254.8747 449.7992,-251.9301 460.0675,-249.5411"/>
<polygon fill="#191970" stroke="#191970" points="371.6799,-284.4781 362.9556,-290.4895 373.5245,-291.2307 371.6799,-284.4781"/>
</g>
<!-- Node31&#45;&gt;Node7 -->
<g id="edge33" class="edge">
<title>Node31&#45;&gt;Node7</title>
<path fill="none" stroke="#191970" d="M614.121,-228.2687C634.259,-225.876 655.8926,-223.7078 676,-222.5 750.976,-217.9965 770.1671,-216.0413 845,-222.5 856.6092,-223.502 868.805,-225.0628 880.7382,-226.881"/>
<polygon fill="#191970" stroke="#191970" points="613.559,-224.8112 604.0568,-229.4971 614.4072,-231.7597 613.559,-224.8112"/>
</g>
<!-- Node32&#45;&gt;Node15 -->
<g id="edge35" class="edge">
<title>Node32&#45;&gt;Node15</title>
<path fill="none" stroke="#191970" d="M379.1406,-176.6053C400.615,-174.5241 424.4514,-172.214 446.8919,-170.0391"/>
<polygon fill="#191970" stroke="#191970" points="378.7462,-173.1271 369.1304,-177.5755 379.4215,-180.0944 378.7462,-173.1271"/>
</g>
<!-- Node32&#45;&gt;Node31 -->
<g id="edge36" class="edge">
<title>Node32&#45;&gt;Node31</title>
<path fill="none" stroke="#191970" d="M371.9989,-195.965C379.4845,-197.9149 386.9577,-200.0933 394,-202.5 410.7435,-208.2221 413.1747,-214.0231 430,-219.5 442.2637,-223.492 455.6074,-226.7906 468.541,-229.478"/>
<polygon fill="#191970" stroke="#191970" points="372.7346,-192.5416 362.1863,-193.5334 371.0509,-199.3361 372.7346,-192.5416"/>
</g>
<!-- Node33&#45;&gt;Node15 -->
<g id="edge38" class="edge">
<title>Node33&#45;&gt;Node15</title>
<path fill="none" stroke="#191970" d="M372.8352,-209.7908C380.0816,-207.6752 387.2703,-205.2547 394,-202.5 411.3536,-195.3967 412.476,-187.1719 430,-180.5 439.5221,-176.8747 449.7992,-173.9301 460.0675,-171.5411"/>
<polygon fill="#191970" stroke="#191970" points="371.6799,-206.4781 362.9556,-212.4895 373.5245,-213.2307 371.6799,-206.4781"/>
</g>
<!-- Node33&#45;&gt;Node28 -->
<g id="edge39" class="edge">
<title>Node33&#45;&gt;Node28</title>
<path fill="none" stroke="#191970" d="M371.9989,-234.965C379.4845,-236.9149 386.9577,-239.0933 394,-241.5 410.7435,-247.2221 413.3303,-252.5665 430,-258.5 440.2616,-262.1525 451.2631,-265.4846 462.1425,-268.4539"/>
<polygon fill="#191970" stroke="#191970" points="372.7346,-231.5416 362.1863,-232.5334 371.0509,-238.3361 372.7346,-231.5416"/>
</g>
<!-- Node33&#45;&gt;Node31 -->
<g id="edge41" class="edge">
<title>Node33&#45;&gt;Node31</title>
<path fill="none" stroke="#191970" d="M398.2966,-229.2623C408.6651,-230.0388 419.3034,-230.8355 429.8453,-231.625"/>
<polygon fill="#191970" stroke="#191970" points="398.2652,-225.7502 388.0317,-228.4936 397.7424,-232.7307 398.2652,-225.7502"/>
</g>
<!-- Node34 -->
<g id="node34" class="node">
<title>Node34</title>
<g id="a_node34"><a xlink:href="../../d2/da1/classPHGeomUtility.html#ae062424701e91fed6173ca3aa29779e4" target="_top" xlink:title="PHGeomUtility::LoadFromIONode">
<polygon fill="none" stroke="#000000" points="444,-190.5 444,-210.5 626,-210.5 626,-190.5 444,-190.5"/>
<text text-anchor="middle" x="535" y="-197.5" font-family="FreeSans" font-size="10.00" fill="#000000">PHGeomUtility::LoadFromIONode</text>
</a>
</g>
</g>
<!-- Node33&#45;&gt;Node34 -->
<g id="edge40" class="edge">
<title>Node33&#45;&gt;Node34</title>
<path fill="none" stroke="#191970" d="M398.2722,-213.7512C413.2129,-212.3032 428.7147,-210.8008 443.681,-209.3503"/>
<polygon fill="#191970" stroke="#191970" points="397.6474,-210.2952 388.0317,-214.7436 398.3227,-217.2626 397.6474,-210.2952"/>
</g>
</g>
</svg>
