<?xml version="1.0" encoding="UTF-8" standalone="no"?>
<!DOCTYPE svg PUBLIC "-//W3C//DTD SVG 1.1//EN"
 "http://www.w3.org/Graphics/SVG/1.1/DTD/svg11.dtd">
<!-- Generated by graphviz version 2.40.1 (20161225.0304)
 -->
<!-- Title: CylinderGeomIntt::get_strip_phi_tilt Pages: 1 -->
<svg width="922pt" height="194pt"
 viewBox="0.00 0.00 922.00 194.00" xmlns="http://www.w3.org/2000/svg" xmlns:xlink="http://www.w3.org/1999/xlink">
<g id="graph0" class="graph" transform="scale(1 1) rotate(0) translate(4 190)">
<title>CylinderGeomIntt::get_strip_phi_tilt</title>
<!-- Node1 -->
<g id="node1" class="node">
<title>Node1</title>
<polygon fill="#bfbfbf" stroke="#000000" points="0,-102.5 0,-134.5 129,-134.5 129,-102.5 0,-102.5"/>
<text text-anchor="start" x="8" y="-121.5" font-family="FreeSans" font-size="10.00" fill="#000000">CylinderGeomIntt::get</text>
<text text-anchor="middle" x="64.5" y="-109.5" font-family="FreeSans" font-size="10.00" fill="#000000">_strip_phi_tilt</text>
</g>
<!-- Node2 -->
<g id="node2" class="node">
<title>Node2</title>
<g id="a_node2"><a xlink:href="../../d5/d86/classInttClusterizer.html#aa896d5f1adf8ac34a5ae766fd4d557bc" target="_top" xlink:title="InttClusterizer::Cluster\lLadderCells">
<polygon fill="none" stroke="#000000" points="180.5,-153.5 180.5,-185.5 310.5,-185.5 310.5,-153.5 180.5,-153.5"/>
<text text-anchor="start" x="188.5" y="-172.5" font-family="FreeSans" font-size="10.00" fill="#000000">InttClusterizer::Cluster</text>
<text text-anchor="middle" x="245.5" y="-160.5" font-family="FreeSans" font-size="10.00" fill="#000000">LadderCells</text>
</a>
</g>
</g>
<!-- Node1&#45;&gt;Node2 -->
<g id="edge1" class="edge">
<title>Node1&#45;&gt;Node2</title>
<path fill="none" stroke="#191970" d="M131.4407,-137.3617C150.2243,-142.6544 170.4633,-148.3571 188.603,-153.4683"/>
<polygon fill="#191970" stroke="#191970" points="132.344,-133.98 121.7695,-134.6367 130.4455,-140.7177 132.344,-133.98"/>
</g>
<!-- Node4 -->
<g id="node4" class="node">
<title>Node4</title>
<g id="a_node4"><a xlink:href="../../de/d25/classPHGenFitTrkFitter.html#af07c5ea2636426357d02b5b697376db2" target="_top" xlink:title="PHGenFitTrkFitter::\lReFitTrack">
<polygon fill="none" stroke="#000000" points="191,-102.5 191,-134.5 300,-134.5 300,-102.5 191,-102.5"/>
<text text-anchor="start" x="199" y="-121.5" font-family="FreeSans" font-size="10.00" fill="#000000">PHGenFitTrkFitter::</text>
<text text-anchor="middle" x="245.5" y="-109.5" font-family="FreeSans" font-size="10.00" fill="#000000">ReFitTrack</text>
</a>
</g>
</g>
<!-- Node1&#45;&gt;Node4 -->
<g id="edge3" class="edge">
<title>Node1&#45;&gt;Node4</title>
<path fill="none" stroke="#191970" d="M139.1545,-118.5C156.458,-118.5 174.5592,-118.5 190.8205,-118.5"/>
<polygon fill="#191970" stroke="#191970" points="139.0786,-115.0001 129.0786,-118.5 139.0786,-122.0001 139.0786,-115.0001"/>
</g>
<!-- Node6 -->
<g id="node6" class="node">
<title>Node6</title>
<g id="a_node6"><a xlink:href="../../d0/d22/classPHGenFitTrkProp.html#a203b7ffdfbb9841ea1f10baa7ba7b59f" target="_top" xlink:title="PHGenFitTrkProp::TrkrCluster\lToPHGenFitMeasurement">
<polygon fill="none" stroke="#000000" points="165,-51.5 165,-83.5 326,-83.5 326,-51.5 165,-51.5"/>
<text text-anchor="start" x="173" y="-70.5" font-family="FreeSans" font-size="10.00" fill="#000000">PHGenFitTrkProp::TrkrCluster</text>
<text text-anchor="middle" x="245.5" y="-58.5" font-family="FreeSans" font-size="10.00" fill="#000000">ToPHGenFitMeasurement</text>
</a>
</g>
</g>
<!-- Node1&#45;&gt;Node6 -->
<g id="edge5" class="edge">
<title>Node1&#45;&gt;Node6</title>
<path fill="none" stroke="#191970" d="M131.4407,-99.6383C150.2243,-94.3456 170.4633,-88.6429 188.603,-83.5317"/>
<polygon fill="#191970" stroke="#191970" points="130.4455,-96.2823 121.7695,-102.3633 132.344,-103.02 130.4455,-96.2823"/>
</g>
<!-- Node3 -->
<g id="node3" class="node">
<title>Node3</title>
<g id="a_node3"><a xlink:href="../../d5/d86/classInttClusterizer.html#abd6df1fa3454cf1d42afb35c6d6a0073" target="_top" xlink:title="event processing">
<polygon fill="none" stroke="#000000" points="373,-153.5 373,-185.5 506,-185.5 506,-153.5 373,-153.5"/>
<text text-anchor="start" x="381" y="-172.5" font-family="FreeSans" font-size="10.00" fill="#000000">InttClusterizer::process</text>
<text text-anchor="middle" x="439.5" y="-160.5" font-family="FreeSans" font-size="10.00" fill="#000000">_event</text>
</a>
</g>
</g>
<!-- Node2&#45;&gt;Node3 -->
<g id="edge2" class="edge">
<title>Node2&#45;&gt;Node3</title>
<path fill="none" stroke="#191970" d="M320.6464,-169.5C337.8634,-169.5 356.0493,-169.5 372.8783,-169.5"/>
<polygon fill="#191970" stroke="#191970" points="320.6389,-166.0001 310.6389,-169.5 320.6388,-173.0001 320.6389,-166.0001"/>
</g>
<!-- Node5 -->
<g id="node5" class="node">
<title>Node5</title>
<g id="a_node5"><a xlink:href="../../de/d25/classPHGenFitTrkFitter.html#a2e088a68ab24c5b89b902205f877f9d6" target="_top" xlink:title="Process Event, called for each event.">
<polygon fill="none" stroke="#000000" points="385,-102.5 385,-134.5 494,-134.5 494,-102.5 385,-102.5"/>
<text text-anchor="start" x="393" y="-121.5" font-family="FreeSans" font-size="10.00" fill="#000000">PHGenFitTrkFitter::</text>
<text text-anchor="middle" x="439.5" y="-109.5" font-family="FreeSans" font-size="10.00" fill="#000000">process_event</text>
</a>
</g>
</g>
<!-- Node4&#45;&gt;Node5 -->
<g id="edge4" class="edge">
<title>Node4&#45;&gt;Node5</title>
<path fill="none" stroke="#191970" d="M310.1998,-118.5C334.3467,-118.5 361.5083,-118.5 384.6812,-118.5"/>
<polygon fill="#191970" stroke="#191970" points="310.0561,-115.0001 300.0561,-118.5 310.0561,-122.0001 310.0561,-115.0001"/>
</g>
<!-- Node7 -->
<g id="node7" class="node">
<title>Node7</title>
<g id="a_node7"><a xlink:href="../../d0/d22/classPHGenFitTrkProp.html#ac159ce1352f6004a2f51a520c287c339" target="_top" xlink:title="KalmanTrkProp Call.">
<polygon fill="none" stroke="#000000" points="362,-51.5 362,-83.5 517,-83.5 517,-51.5 362,-51.5"/>
<text text-anchor="start" x="370" y="-70.5" font-family="FreeSans" font-size="10.00" fill="#000000">PHGenFitTrkProp::SvtxTrack</text>
<text text-anchor="middle" x="439.5" y="-58.5" font-family="FreeSans" font-size="10.00" fill="#000000">ToPHGenFitTracks</text>
</a>
</g>
</g>
<!-- Node6&#45;&gt;Node7 -->
<g id="edge6" class="edge">
<title>Node6&#45;&gt;Node7</title>
<path fill="none" stroke="#191970" d="M336.1653,-67.5C344.7898,-67.5 353.4813,-67.5 361.9657,-67.5"/>
<polygon fill="#191970" stroke="#191970" points="336.0881,-64.0001 326.0881,-67.5 336.088,-71.0001 336.0881,-64.0001"/>
</g>
<!-- Node10 -->
<g id="node10" class="node">
<title>Node10</title>
<g id="a_node10"><a xlink:href="../../d0/d22/classPHGenFitTrkProp.html#a8de33eaa04103e00006e98f15ba808a0" target="_top" xlink:title="PHGenFitTrkProp::TrackProp\lPatRec">
<polygon fill="none" stroke="#000000" points="362,-.5 362,-32.5 517,-32.5 517,-.5 362,-.5"/>
<text text-anchor="start" x="370" y="-19.5" font-family="FreeSans" font-size="10.00" fill="#000000">PHGenFitTrkProp::TrackProp</text>
<text text-anchor="middle" x="439.5" y="-7.5" font-family="FreeSans" font-size="10.00" fill="#000000">PatRec</text>
</a>
</g>
</g>
<!-- Node6&#45;&gt;Node10 -->
<g id="edge9" class="edge">
<title>Node6&#45;&gt;Node10</title>
<path fill="none" stroke="#191970" d="M316.4355,-48.852C336.7415,-43.5138 358.6935,-37.7429 378.3575,-32.5736"/>
<polygon fill="#191970" stroke="#191970" points="315.398,-45.5057 306.6165,-51.4333 317.1778,-52.2757 315.398,-45.5057"/>
</g>
<!-- Node8 -->
<g id="node8" class="node">
<title>Node8</title>
<g id="a_node8"><a xlink:href="../../d0/d22/classPHGenFitTrkProp.html#ab11c2e61a1b78278fa4af7cf624c2538" target="_top" xlink:title="Main function.">
<polygon fill="none" stroke="#000000" points="553,-31.5 553,-51.5 734,-51.5 734,-31.5 553,-31.5"/>
<text text-anchor="middle" x="643.5" y="-38.5" font-family="FreeSans" font-size="10.00" fill="#000000">PHGenFitTrkProp::KalmanTrkProp</text>
</a>
</g>
</g>
<!-- Node7&#45;&gt;Node8 -->
<g id="edge7" class="edge">
<title>Node7&#45;&gt;Node8</title>
<path fill="none" stroke="#191970" d="M527.2031,-56.3222C539.7666,-54.7209 552.6253,-53.0821 564.9964,-51.5054"/>
<polygon fill="#191970" stroke="#191970" points="526.6828,-52.8601 517.2056,-57.5963 527.5679,-59.8039 526.6828,-52.8601"/>
</g>
<!-- Node9 -->
<g id="node9" class="node">
<title>Node9</title>
<g id="a_node9"><a xlink:href="../../d0/d22/classPHGenFitTrkProp.html#a31e50e42d62a2bf32763652b39dc95b8" target="_top" xlink:title="PHGenFitTrkProp::Process">
<polygon fill="none" stroke="#000000" points="770,-31.5 770,-51.5 914,-51.5 914,-31.5 770,-31.5"/>
<text text-anchor="middle" x="842" y="-38.5" font-family="FreeSans" font-size="10.00" fill="#000000">PHGenFitTrkProp::Process</text>
</a>
</g>
</g>
<!-- Node8&#45;&gt;Node9 -->
<g id="edge8" class="edge">
<title>Node8&#45;&gt;Node9</title>
<path fill="none" stroke="#191970" d="M744.1556,-41.5C752.7831,-41.5 761.3965,-41.5 769.7348,-41.5"/>
<polygon fill="#191970" stroke="#191970" points="744.0369,-38.0001 734.0368,-41.5 744.0368,-45.0001 744.0369,-38.0001"/>
</g>
<!-- Node10&#45;&gt;Node8 -->
<g id="edge10" class="edge">
<title>Node10&#45;&gt;Node8</title>
<path fill="none" stroke="#191970" d="M527.1708,-27.244C538.5992,-28.6445 550.2724,-30.075 561.6011,-31.4634"/>
<polygon fill="#191970" stroke="#191970" points="527.5571,-23.7652 517.2056,-26.0227 526.7056,-30.7132 527.5571,-23.7652"/>
</g>
</g>
</svg>
