<?xml version="1.0" encoding="UTF-8" standalone="no"?>
<!DOCTYPE svg PUBLIC "-//W3C//DTD SVG 1.1//EN"
 "http://www.w3.org/Graphics/SVG/1.1/DTD/svg11.dtd">
<!-- Generated by graphviz version 2.40.1 (20161225.0304)
 -->
<!-- Title: fun4all_macros/blob/master/macros/g4simulations/G4_Global.C Pages: 1 -->
<svg width="1086pt" height="134pt"
 viewBox="0.00 0.00 1086.00 134.00" xmlns="http://www.w3.org/2000/svg" xmlns:xlink="http://www.w3.org/1999/xlink">
<g id="graph0" class="graph" transform="scale(1 1) rotate(0) translate(4 130)">
<title>fun4all_macros/blob/master/macros/g4simulations/G4_Global.C</title>
<!-- Node1 -->
<g id="node1" class="node">
<title>Node1</title>
<polygon fill="#bfbfbf" stroke="#000000" points="472,-81.5 472,-125.5 643,-125.5 643,-81.5 472,-81.5"/>
<text text-anchor="start" x="480" y="-112.5" font-family="FreeSans" font-size="10.00" fill="#000000">fun4all_macros/blob</text>
<text text-anchor="start" x="480" y="-100.5" font-family="FreeSans" font-size="10.00" fill="#000000">/master/macros/g4simulations</text>
<text text-anchor="middle" x="557.5" y="-88.5" font-family="FreeSans" font-size="10.00" fill="#000000">/G4_Global.C</text>
</g>
<!-- Node2 -->
<g id="node2" class="node">
<title>Node2</title>
<g id="a_node2"><a xlink:href="../../da/d02/Fun4All__G4__EICDetector_8C.html" target="_top" xlink:title="fun4all_macros/blob\l/master/macros/g4simulations\l/Fun4All_G4_EICDetector.C">
<polygon fill="none" stroke="#000000" points="0,-.5 0,-44.5 171,-44.5 171,-.5 0,-.5"/>
<text text-anchor="start" x="8" y="-31.5" font-family="FreeSans" font-size="10.00" fill="#000000">fun4all_macros/blob</text>
<text text-anchor="start" x="8" y="-19.5" font-family="FreeSans" font-size="10.00" fill="#000000">/master/macros/g4simulations</text>
<text text-anchor="middle" x="85.5" y="-7.5" font-family="FreeSans" font-size="10.00" fill="#000000">/Fun4All_G4_EICDetector.C</text>
</a>
</g>
</g>
<!-- Node1&#45;&gt;Node2 -->
<g id="edge1" class="edge">
<title>Node1&#45;&gt;Node2</title>
<path fill="none" stroke="#191970" d="M461.8409,-90.8899C385.1976,-80.2594 275.0632,-63.7995 179.5,-45 176.7833,-44.4656 174.0263,-43.9065 171.2455,-43.3283"/>
<polygon fill="#191970" stroke="#191970" points="461.5727,-94.386 471.9574,-92.2862 462.5299,-87.4517 461.5727,-94.386"/>
</g>
<!-- Node3 -->
<g id="node3" class="node">
<title>Node3</title>
<g id="a_node3"><a xlink:href="../../d7/d9e/Fun4All__G4__fsPHENIX_8C.html" target="_top" xlink:title="fun4all_macros/blob\l/master/macros/g4simulations\l/Fun4All_G4_fsPHENIX.C">
<polygon fill="none" stroke="#000000" points="189,-.5 189,-44.5 360,-44.5 360,-.5 189,-.5"/>
<text text-anchor="start" x="197" y="-31.5" font-family="FreeSans" font-size="10.00" fill="#000000">fun4all_macros/blob</text>
<text text-anchor="start" x="197" y="-19.5" font-family="FreeSans" font-size="10.00" fill="#000000">/master/macros/g4simulations</text>
<text text-anchor="middle" x="274.5" y="-7.5" font-family="FreeSans" font-size="10.00" fill="#000000">/Fun4All_G4_fsPHENIX.C</text>
</a>
</g>
</g>
<!-- Node1&#45;&gt;Node3 -->
<g id="edge2" class="edge">
<title>Node1&#45;&gt;Node3</title>
<path fill="none" stroke="#191970" d="M470.5064,-78.6008C432.4785,-67.7165 388.2508,-55.0577 351.4419,-44.5222"/>
<polygon fill="#191970" stroke="#191970" points="469.9657,-82.0865 480.5428,-81.4734 471.892,-75.3567 469.9657,-82.0865"/>
</g>
<!-- Node4 -->
<g id="node4" class="node">
<title>Node4</title>
<g id="a_node4"><a xlink:href="../../d0/d13/Fun4All__G4__sPHENIX_8C.html" target="_top" xlink:title="fun4all_macros/blob\l/master/macros/g4simulations\l/Fun4All_G4_sPHENIX.C">
<polygon fill="none" stroke="#000000" points="378,-.5 378,-44.5 549,-44.5 549,-.5 378,-.5"/>
<text text-anchor="start" x="386" y="-31.5" font-family="FreeSans" font-size="10.00" fill="#000000">fun4all_macros/blob</text>
<text text-anchor="start" x="386" y="-19.5" font-family="FreeSans" font-size="10.00" fill="#000000">/master/macros/g4simulations</text>
<text text-anchor="middle" x="463.5" y="-7.5" font-family="FreeSans" font-size="10.00" fill="#000000">/Fun4All_G4_sPHENIX.C</text>
</a>
</g>
</g>
<!-- Node1&#45;&gt;Node4 -->
<g id="edge3" class="edge">
<title>Node1&#45;&gt;Node4</title>
<path fill="none" stroke="#191970" d="M524.0882,-74.709C512.6005,-64.81 499.9278,-53.8899 489.1549,-44.6068"/>
<polygon fill="#191970" stroke="#191970" points="521.9538,-77.49 531.8141,-81.3664 526.5233,-72.1871 521.9538,-77.49"/>
</g>
<!-- Node5 -->
<g id="node5" class="node">
<title>Node5</title>
<g id="a_node5"><a xlink:href="../../de/da9/ReadClustersRunTracking_8C.html" target="_top" xlink:title="fun4all_macros/blob\l/master/macros/g4simulations\l/ReadClustersRunTracking.C">
<polygon fill="none" stroke="#000000" points="567,-.5 567,-44.5 738,-44.5 738,-.5 567,-.5"/>
<text text-anchor="start" x="575" y="-31.5" font-family="FreeSans" font-size="10.00" fill="#000000">fun4all_macros/blob</text>
<text text-anchor="start" x="575" y="-19.5" font-family="FreeSans" font-size="10.00" fill="#000000">/master/macros/g4simulations</text>
<text text-anchor="middle" x="652.5" y="-7.5" font-family="FreeSans" font-size="10.00" fill="#000000">/ReadClustersRunTracking.C</text>
</a>
</g>
</g>
<!-- Node1&#45;&gt;Node5 -->
<g id="edge4" class="edge">
<title>Node1&#45;&gt;Node5</title>
<path fill="none" stroke="#191970" d="M591.2672,-74.709C602.8772,-64.81 615.6846,-53.8899 626.5722,-44.6068"/>
<polygon fill="#191970" stroke="#191970" points="588.7978,-72.2149 583.4592,-81.3664 593.3395,-77.5416 588.7978,-72.2149"/>
</g>
<!-- Node6 -->
<g id="node6" class="node">
<title>Node6</title>
<g id="a_node6"><a xlink:href="../../db/dc0/Fun4All__AnaTutorial_8C.html" target="_top" xlink:title="fun4all_tutorials/blob\l/master/AnaTutorial/macro\l/Fun4All_AnaTutorial.C">
<polygon fill="none" stroke="#000000" points="756,-.5 756,-44.5 907,-44.5 907,-.5 756,-.5"/>
<text text-anchor="start" x="764" y="-31.5" font-family="FreeSans" font-size="10.00" fill="#000000">fun4all_tutorials/blob</text>
<text text-anchor="start" x="764" y="-19.5" font-family="FreeSans" font-size="10.00" fill="#000000">/master/AnaTutorial/macro</text>
<text text-anchor="middle" x="831.5" y="-7.5" font-family="FreeSans" font-size="10.00" fill="#000000">/Fun4All_AnaTutorial.C</text>
</a>
</g>
</g>
<!-- Node1&#45;&gt;Node6 -->
<g id="edge5" class="edge">
<title>Node1&#45;&gt;Node6</title>
<path fill="none" stroke="#191970" d="M641.727,-78.6008C678.5455,-67.7165 721.3667,-55.0577 757.0051,-44.5222"/>
<polygon fill="#191970" stroke="#191970" points="640.6073,-75.282 632.0098,-81.4734 642.5918,-81.9948 640.6073,-75.282"/>
</g>
<!-- Node7 -->
<g id="node7" class="node">
<title>Node7</title>
<g id="a_node7"><a xlink:href="../../dd/d28/Fun4All__AnaTutorial__Jets_8C.html" target="_top" xlink:title="fun4all_tutorials/blob\l/master/AnaTutorial/macro\l/Fun4All_AnaTutorial_Jets.C">
<polygon fill="none" stroke="#000000" points="925,-.5 925,-44.5 1078,-44.5 1078,-.5 925,-.5"/>
<text text-anchor="start" x="933" y="-31.5" font-family="FreeSans" font-size="10.00" fill="#000000">fun4all_tutorials/blob</text>
<text text-anchor="start" x="933" y="-19.5" font-family="FreeSans" font-size="10.00" fill="#000000">/master/AnaTutorial/macro</text>
<text text-anchor="middle" x="1001.5" y="-7.5" font-family="FreeSans" font-size="10.00" fill="#000000">/Fun4All_AnaTutorial_Jets.C</text>
</a>
</g>
</g>
<!-- Node1&#45;&gt;Node7 -->
<g id="edge6" class="edge">
<title>Node1&#45;&gt;Node7</title>
<path fill="none" stroke="#191970" d="M653.209,-90.4891C725.8044,-79.9961 827.8753,-63.9038 916.5,-45 919.1873,-44.4268 921.9169,-43.823 924.6696,-43.1956"/>
<polygon fill="#191970" stroke="#191970" points="652.566,-87.0455 643.1655,-91.9323 653.5617,-93.9743 652.566,-87.0455"/>
</g>
</g>
</svg>
