<?xml version="1.0" encoding="UTF-8" standalone="no"?>
<!DOCTYPE svg PUBLIC "-//W3C//DTD SVG 1.1//EN"
 "http://www.w3.org/Graphics/SVG/1.1/DTD/svg11.dtd">
<!-- Generated by graphviz version 2.40.1 (20161225.0304)
 -->
<!-- Title: PHG4Hitv1::get_property_int Pages: 1 -->
<svg width="434pt" height="146pt"
 viewBox="0.00 0.00 434.00 146.00" xmlns="http://www.w3.org/2000/svg" xmlns:xlink="http://www.w3.org/1999/xlink">
<g id="graph0" class="graph" transform="scale(1 1) rotate(0) translate(4 142)">
<title>PHG4Hitv1::get_property_int</title>
<!-- Node1 -->
<g id="node1" class="node">
<title>Node1</title>
<polygon fill="#bfbfbf" stroke="#000000" points="0,-58.5 0,-78.5 161,-78.5 161,-58.5 0,-58.5"/>
<text text-anchor="middle" x="80.5" y="-65.5" font-family="FreeSans" font-size="10.00" fill="#000000">PHG4Hitv1::get_property_int</text>
</g>
<!-- Node2 -->
<g id="node2" class="node">
<title>Node2</title>
<g id="a_node2"><a xlink:href="../../d3/d9e/classPHG4Hit.html#a6bb2ccb530b208b6413261924d130c2d" target="_top" xlink:title="PHG4Hit::check_property">
<polygon fill="none" stroke="#000000" points="204.5,-117.5 204.5,-137.5 347.5,-137.5 347.5,-117.5 204.5,-117.5"/>
<text text-anchor="middle" x="276" y="-124.5" font-family="FreeSans" font-size="10.00" fill="#000000">PHG4Hit::check_property</text>
</a>
</g>
</g>
<!-- Node1&#45;&gt;Node2 -->
<g id="edge1" class="edge">
<title>Node1&#45;&gt;Node2</title>
<path fill="none" stroke="#191970" d="M113.6639,-78.5085C146.5245,-88.4255 197.0109,-103.6619 232.9494,-114.5078"/>
<polygon fill="#191970" stroke="#191970" points="232.0886,-117.9038 242.6734,-117.4424 234.1111,-111.2023 232.0886,-117.9038"/>
</g>
<!-- Node3 -->
<g id="node3" class="node">
<title>Node3</title>
<g id="a_node3"><a xlink:href="../../df/de8/cemc_8C.html#adf5c804dfce7a70e36dda02995fad481" target="_top" xlink:title="exit">
<polygon fill="none" stroke="#000000" points="391,-58.5 391,-78.5 426,-78.5 426,-58.5 391,-58.5"/>
<text text-anchor="middle" x="408.5" y="-65.5" font-family="FreeSans" font-size="10.00" fill="#000000">exit</text>
</a>
</g>
</g>
<!-- Node1&#45;&gt;Node3 -->
<g id="edge2" class="edge">
<title>Node1&#45;&gt;Node3</title>
<path fill="none" stroke="#191970" d="M161.2766,-69.3452C215.9593,-69.782 289.8325,-70.109 355,-69.5 363.2676,-69.4227 372.2529,-69.2783 380.4576,-69.1228"/>
<polygon fill="#191970" stroke="#191970" points="380.7406,-72.6179 390.6678,-68.9167 380.5992,-65.6193 380.7406,-72.6179"/>
</g>
<!-- Node4 -->
<g id="node4" class="node">
<title>Node4</title>
<g id="a_node4"><a xlink:href="../../d3/d9e/classPHG4Hit.html#a68bf050da73e1a551dc6c6dfed28197d" target="_top" xlink:title="PHG4Hit::get_property_info">
<polygon fill="none" stroke="#000000" points="199,-39.5 199,-59.5 353,-59.5 353,-39.5 199,-39.5"/>
<text text-anchor="middle" x="276" y="-46.5" font-family="FreeSans" font-size="10.00" fill="#000000">PHG4Hit::get_property_info</text>
</a>
</g>
</g>
<!-- Node1&#45;&gt;Node4 -->
<g id="edge3" class="edge">
<title>Node1&#45;&gt;Node4</title>
<path fill="none" stroke="#191970" d="M161.146,-60.6623C170.3379,-59.769 179.738,-58.8554 189.0074,-57.9545"/>
<polygon fill="#191970" stroke="#191970" points="189.384,-61.4345 198.9985,-56.9835 188.7068,-54.4673 189.384,-61.4345"/>
</g>
<!-- Node5 -->
<g id="node5" class="node">
<title>Node5</title>
<g id="a_node5"><a xlink:href="../../d3/d9e/classPHG4Hit.html#a28a104e5abe55cd6f59edf728a97b655" target="_top" xlink:title="PHG4Hit::get_property_type">
<polygon fill="none" stroke="#000000" points="197,-.5 197,-20.5 355,-20.5 355,-.5 197,-.5"/>
<text text-anchor="middle" x="276" y="-7.5" font-family="FreeSans" font-size="10.00" fill="#000000">PHG4Hit::get_property_type</text>
</a>
</g>
</g>
<!-- Node1&#45;&gt;Node5 -->
<g id="edge5" class="edge">
<title>Node1&#45;&gt;Node5</title>
<path fill="none" stroke="#191970" d="M109.5369,-58.4264C133.0047,-50.431 166.9586,-39.1915 197,-30.5 205.7829,-27.959 215.1659,-25.4263 224.2863,-23.0597"/>
<polygon fill="#191970" stroke="#191970" points="225.2186,-26.434 234.039,-20.5644 223.4835,-19.6525 225.2186,-26.434"/>
</g>
<!-- Node4&#45;&gt;Node3 -->
<g id="edge4" class="edge">
<title>Node4&#45;&gt;Node3</title>
<path fill="none" stroke="#191970" d="M345.7422,-59.5008C358.2357,-61.2923 370.5631,-63.06 380.9406,-64.5481"/>
<polygon fill="#191970" stroke="#191970" points="380.5789,-68.0319 390.9745,-65.9869 381.5726,-61.1028 380.5789,-68.0319"/>
</g>
</g>
</svg>
