<?xml version="1.0" encoding="UTF-8" standalone="no"?>
<!DOCTYPE svg PUBLIC "-//W3C//DTD SVG 1.1//EN"
 "http://www.w3.org/Graphics/SVG/1.1/DTD/svg11.dtd">
<!-- Generated by graphviz version 2.40.1 (20161225.0304)
 -->
<!-- Title: PHG4Hitv1::set_ladder_z_index Pages: 1 -->
<svg width="581pt" height="197pt"
 viewBox="0.00 0.00 581.00 197.00" xmlns="http://www.w3.org/2000/svg" xmlns:xlink="http://www.w3.org/1999/xlink">
<g id="graph0" class="graph" transform="scale(1 1) rotate(0) translate(4 193)">
<title>PHG4Hitv1::set_ladder_z_index</title>
<!-- Node1 -->
<g id="node1" class="node">
<title>Node1</title>
<polygon fill="#bfbfbf" stroke="#000000" points="0,-84.5 0,-116.5 131,-116.5 131,-84.5 0,-84.5"/>
<text text-anchor="start" x="8" y="-103.5" font-family="FreeSans" font-size="10.00" fill="#000000">PHG4Hitv1::set_ladder</text>
<text text-anchor="middle" x="65.5" y="-91.5" font-family="FreeSans" font-size="10.00" fill="#000000">_z_index</text>
</g>
<!-- Node2 -->
<g id="node2" class="node">
<title>Node2</title>
<g id="a_node2"><a xlink:href="../../d9/d35/classPHG4Hitv1.html#a2e368cbc62c536203702a7f9835be77b" target="_top" xlink:title="PHG4Hitv1::set_property">
<polygon fill="none" stroke="#000000" points="167,-90.5 167,-110.5 308,-110.5 308,-90.5 167,-90.5"/>
<text text-anchor="middle" x="237.5" y="-97.5" font-family="FreeSans" font-size="10.00" fill="#000000">PHG4Hitv1::set_property</text>
</a>
</g>
</g>
<!-- Node1&#45;&gt;Node2 -->
<g id="edge1" class="edge">
<title>Node1&#45;&gt;Node2</title>
<path fill="none" stroke="#191970" d="M131.0165,-100.5C139.4094,-100.5 148.0787,-100.5 156.6786,-100.5"/>
<polygon fill="#191970" stroke="#191970" points="156.7217,-104.0001 166.7217,-100.5 156.7217,-97.0001 156.7217,-104.0001"/>
</g>
<!-- Node3 -->
<g id="node3" class="node">
<title>Node3</title>
<g id="a_node3"><a xlink:href="../../d3/d9e/classPHG4Hit.html#a6bb2ccb530b208b6413261924d130c2d" target="_top" xlink:title="PHG4Hit::check_property">
<polygon fill="none" stroke="#000000" points="351.5,-168.5 351.5,-188.5 494.5,-188.5 494.5,-168.5 351.5,-168.5"/>
<text text-anchor="middle" x="423" y="-175.5" font-family="FreeSans" font-size="10.00" fill="#000000">PHG4Hit::check_property</text>
</a>
</g>
</g>
<!-- Node2&#45;&gt;Node3 -->
<g id="edge2" class="edge">
<title>Node2&#45;&gt;Node3</title>
<path fill="none" stroke="#191970" d="M252.7302,-110.6784C272.8409,-123.7021 309.7229,-146.1672 344,-159.5 349.8668,-161.782 356.0887,-163.8458 362.3637,-165.698"/>
<polygon fill="#191970" stroke="#191970" points="361.6529,-169.133 372.2247,-168.4356 363.5254,-162.3881 361.6529,-169.133"/>
</g>
<!-- Node4 -->
<g id="node4" class="node">
<title>Node4</title>
<g id="a_node4"><a xlink:href="../../d3/d9e/classPHG4Hit.html#a68bf050da73e1a551dc6c6dfed28197d" target="_top" xlink:title="PHG4Hit::get_property_info">
<polygon fill="none" stroke="#000000" points="346,-129.5 346,-149.5 500,-149.5 500,-129.5 346,-129.5"/>
<text text-anchor="middle" x="423" y="-136.5" font-family="FreeSans" font-size="10.00" fill="#000000">PHG4Hit::get_property_info</text>
</a>
</g>
</g>
<!-- Node2&#45;&gt;Node4 -->
<g id="edge3" class="edge">
<title>Node2&#45;&gt;Node4</title>
<path fill="none" stroke="#191970" d="M285.2709,-110.5435C309.7211,-115.684 339.6738,-121.9813 365.3947,-127.3889"/>
<polygon fill="#191970" stroke="#191970" points="364.8848,-130.8582 375.391,-129.4906 366.3251,-124.0079 364.8848,-130.8582"/>
</g>
<!-- Node5 -->
<g id="node5" class="node">
<title>Node5</title>
<g id="a_node5"><a xlink:href="../../df/de8/cemc_8C.html#adf5c804dfce7a70e36dda02995fad481" target="_top" xlink:title="exit">
<polygon fill="none" stroke="#000000" points="538,-109.5 538,-129.5 573,-129.5 573,-109.5 538,-109.5"/>
<text text-anchor="middle" x="555.5" y="-116.5" font-family="FreeSans" font-size="10.00" fill="#000000">exit</text>
</a>
</g>
</g>
<!-- Node2&#45;&gt;Node5 -->
<g id="edge6" class="edge">
<title>Node2&#45;&gt;Node5</title>
<path fill="none" stroke="#191970" d="M308.0745,-104.7167C377.3107,-108.8535 479.3466,-114.95 527.8881,-117.8502"/>
<polygon fill="#191970" stroke="#191970" points="527.7554,-121.3485 537.9464,-118.4512 528.173,-114.3609 527.7554,-121.3485"/>
</g>
<!-- Node6 -->
<g id="node6" class="node">
<title>Node6</title>
<g id="a_node6"><a xlink:href="../../d3/d9e/classPHG4Hit.html#a28a104e5abe55cd6f59edf728a97b655" target="_top" xlink:title="PHG4Hit::get_property_type">
<polygon fill="none" stroke="#000000" points="344,-51.5 344,-71.5 502,-71.5 502,-51.5 344,-51.5"/>
<text text-anchor="middle" x="423" y="-58.5" font-family="FreeSans" font-size="10.00" fill="#000000">PHG4Hit::get_property_type</text>
</a>
</g>
</g>
<!-- Node2&#45;&gt;Node6 -->
<g id="edge5" class="edge">
<title>Node2&#45;&gt;Node6</title>
<path fill="none" stroke="#191970" d="M285.2709,-90.4565C309.7211,-85.316 339.6738,-79.0187 365.3947,-73.6111"/>
<polygon fill="#191970" stroke="#191970" points="366.3251,-76.9921 375.391,-71.5094 364.8848,-70.1418 366.3251,-76.9921"/>
</g>
<!-- Node7 -->
<g id="node7" class="node">
<title>Node7</title>
<g id="a_node7"><a xlink:href="../../d5/d0a/unionPHG4Hitv1_1_1u__property.html#ac456fc086e69bed874ad779a59ccab9b" target="_top" xlink:title="PHG4Hitv1::u_property\l::get_storage">
<polygon fill="none" stroke="#000000" points="356.5,-.5 356.5,-32.5 489.5,-32.5 489.5,-.5 356.5,-.5"/>
<text text-anchor="start" x="364.5" y="-19.5" font-family="FreeSans" font-size="10.00" fill="#000000">PHG4Hitv1::u_property</text>
<text text-anchor="middle" x="423" y="-7.5" font-family="FreeSans" font-size="10.00" fill="#000000">::get_storage</text>
</a>
</g>
</g>
<!-- Node2&#45;&gt;Node7 -->
<g id="edge7" class="edge">
<title>Node2&#45;&gt;Node7</title>
<path fill="none" stroke="#191970" d="M253.9982,-90.2914C274.5396,-77.8714 310.9579,-56.7951 344,-42.5 349.2635,-40.2228 354.7954,-38.0264 360.3857,-35.9405"/>
<polygon fill="#191970" stroke="#191970" points="361.5933,-39.2257 369.8119,-32.5396 359.2176,-32.6412 361.5933,-39.2257"/>
</g>
<!-- Node4&#45;&gt;Node5 -->
<g id="edge4" class="edge">
<title>Node4&#45;&gt;Node5</title>
<path fill="none" stroke="#191970" d="M489.6382,-129.4414C503.117,-127.4069 516.5743,-125.3756 527.7784,-123.6844"/>
<polygon fill="#191970" stroke="#191970" points="528.3916,-127.1316 537.7572,-122.1782 527.3468,-120.21 528.3916,-127.1316"/>
</g>
</g>
</svg>
