<?xml version="1.0" encoding="UTF-8" standalone="no"?>
<!DOCTYPE svg PUBLIC "-//W3C//DTD SVG 1.1//EN"
 "http://www.w3.org/Graphics/SVG/1.1/DTD/svg11.dtd">
<!-- Generated by graphviz version 2.40.1 (20161225.0304)
 -->
<!-- Title: fun4all_coresoftware/blob/master/generators/sHijing/Hijing.cxx Pages: 1 -->
<svg width="3787pt" height="179pt"
 viewBox="0.00 0.00 3786.50 179.00" xmlns="http://www.w3.org/2000/svg" xmlns:xlink="http://www.w3.org/1999/xlink">
<g id="graph0" class="graph" transform="scale(1 1) rotate(0) translate(4 175)">
<title>fun4all_coresoftware/blob/master/generators/sHijing/Hijing.cxx</title>
<!-- Node1 -->
<g id="node1" class="node">
<title>Node1</title>
<polygon fill="#bfbfbf" stroke="#000000" points="1850,-126.5 1850,-170.5 1990,-170.5 1990,-126.5 1850,-126.5"/>
<text text-anchor="start" x="1858" y="-157.5" font-family="FreeSans" font-size="10.00" fill="#000000">fun4all_coresoftware</text>
<text text-anchor="start" x="1858" y="-145.5" font-family="FreeSans" font-size="10.00" fill="#000000">/blob/master/generators</text>
<text text-anchor="middle" x="1920" y="-133.5" font-family="FreeSans" font-size="10.00" fill="#000000">/sHijing/Hijing.cxx</text>
</g>
<!-- Node2 -->
<g id="node2" class="node">
<title>Node2</title>
<g id="a_node2"><a xlink:href="../../d4/d0f/HiParnt_8h.html" target="_top" xlink:title="HiParnt.h">
<polygon fill="none" stroke="#000000" points="0,-63.5 0,-83.5 62,-83.5 62,-63.5 0,-63.5"/>
<text text-anchor="middle" x="31" y="-70.5" font-family="FreeSans" font-size="10.00" fill="#000000">HiParnt.h</text>
</a>
</g>
</g>
<!-- Node1&#45;&gt;Node2 -->
<g id="edge1" class="edge">
<title>Node1&#45;&gt;Node2</title>
<path fill="none" stroke="#191970" d="M1849.8555,-147.7674C1533.4697,-144.2619 247.045,-127.7863 71,-90 67.5916,-89.2684 64.1044,-88.2599 60.6791,-87.0988"/>
<polygon fill="#191970" stroke="#191970" points="61.8971,-83.8175 51.3063,-83.5262 59.4039,-90.3584 61.8971,-83.8175"/>
</g>
<!-- Node3 -->
<g id="node3" class="node">
<title>Node3</title>
<g id="a_node3"><a xlink:href="../../dc/d44/RanSeed_8h.html" target="_top" xlink:title="RanSeed.h">
<polygon fill="none" stroke="#000000" points="80,-63.5 80,-83.5 150,-83.5 150,-63.5 80,-63.5"/>
<text text-anchor="middle" x="115" y="-70.5" font-family="FreeSans" font-size="10.00" fill="#000000">RanSeed.h</text>
</a>
</g>
</g>
<!-- Node1&#45;&gt;Node3 -->
<g id="edge2" class="edge">
<title>Node1&#45;&gt;Node3</title>
<path fill="none" stroke="#191970" d="M1849.9086,-147.5164C1543.1396,-143.0294 326.6013,-123.2752 159,-90 155.0614,-89.218 151.0109,-88.1269 147.0371,-86.8743"/>
<polygon fill="#191970" stroke="#191970" points="148.0193,-83.5099 137.4244,-83.5123 145.7083,-90.1175 148.0193,-83.5099"/>
</g>
<!-- Node4 -->
<g id="node4" class="node">
<title>Node4</title>
<g id="a_node4"><a xlink:href="../../d7/dc3/HiMain1_8h.html" target="_top" xlink:title="HiMain1.h">
<polygon fill="none" stroke="#000000" points="168.5,-63.5 168.5,-83.5 235.5,-83.5 235.5,-63.5 168.5,-63.5"/>
<text text-anchor="middle" x="202" y="-70.5" font-family="FreeSans" font-size="10.00" fill="#000000">HiMain1.h</text>
</a>
</g>
</g>
<!-- Node1&#45;&gt;Node4 -->
<g id="edge3" class="edge">
<title>Node1&#45;&gt;Node4</title>
<path fill="none" stroke="#191970" d="M1849.5573,-147.4474C1551.5612,-142.8035 402.5735,-122.9066 244,-90 240.3324,-89.2389 236.5698,-88.1866 232.8755,-86.9783"/>
<polygon fill="#191970" stroke="#191970" points="233.9623,-83.6492 223.3684,-83.5088 231.5625,-90.225 233.9623,-83.6492"/>
</g>
<!-- Node5 -->
<g id="node5" class="node">
<title>Node5</title>
<g id="a_node5"><a xlink:href="../../d3/ded/HiMain2_8h.html" target="_top" xlink:title="HiMain2.h">
<polygon fill="none" stroke="#000000" points="253.5,-63.5 253.5,-83.5 320.5,-83.5 320.5,-63.5 253.5,-63.5"/>
<text text-anchor="middle" x="287" y="-70.5" font-family="FreeSans" font-size="10.00" fill="#000000">HiMain2.h</text>
</a>
</g>
</g>
<!-- Node1&#45;&gt;Node5 -->
<g id="edge4" class="edge">
<title>Node1&#45;&gt;Node5</title>
<path fill="none" stroke="#191970" d="M1849.8049,-147.2765C1561.9358,-142.0738 479.9487,-120.6436 330,-90 326.3376,-89.2515 322.5788,-88.2262 318.8809,-87.05"/>
<polygon fill="#191970" stroke="#191970" points="319.9378,-83.7114 309.3431,-83.6711 317.6003,-90.3095 319.9378,-83.7114"/>
</g>
<!-- Node6 -->
<g id="node6" class="node">
<title>Node6</title>
<g id="a_node6"><a xlink:href="../../d8/da9/HijJet1_8h.html" target="_top" xlink:title="HijJet1.h">
<polygon fill="none" stroke="#000000" points="339,-63.5 339,-83.5 397,-83.5 397,-63.5 339,-63.5"/>
<text text-anchor="middle" x="368" y="-70.5" font-family="FreeSans" font-size="10.00" fill="#000000">HijJet1.h</text>
</a>
</g>
</g>
<!-- Node1&#45;&gt;Node6 -->
<g id="edge5" class="edge">
<title>Node1&#45;&gt;Node6</title>
<path fill="none" stroke="#191970" d="M1849.8395,-147.3132C1570.7417,-142.3843 547.536,-122.265 406,-90 402.943,-89.3031 399.8253,-88.3651 396.7561,-87.2883"/>
<polygon fill="#191970" stroke="#191970" points="397.8367,-83.9513 387.2514,-83.5011 395.2455,-90.4541 397.8367,-83.9513"/>
</g>
<!-- Node7 -->
<g id="node7" class="node">
<title>Node7</title>
<g id="a_node7"><a xlink:href="../../de/dd8/HijJet2_8h.html" target="_top" xlink:title="HijJet2.h">
<polygon fill="none" stroke="#000000" points="415,-63.5 415,-83.5 473,-83.5 473,-63.5 415,-63.5"/>
<text text-anchor="middle" x="444" y="-70.5" font-family="FreeSans" font-size="10.00" fill="#000000">HijJet2.h</text>
</a>
</g>
</g>
<!-- Node1&#45;&gt;Node7 -->
<g id="edge6" class="edge">
<title>Node1&#45;&gt;Node7</title>
<path fill="none" stroke="#191970" d="M1849.7143,-147.1567C1579.4803,-141.7845 615.8018,-120.6454 482,-90 479.0117,-89.3156 475.965,-88.4016 472.9622,-87.3535"/>
<polygon fill="#191970" stroke="#191970" points="474.2317,-84.0919 463.6454,-83.6657 471.6553,-90.6005 474.2317,-84.0919"/>
</g>
<!-- Node8 -->
<g id="node8" class="node">
<title>Node8</title>
<g id="a_node8"><a xlink:href="../../d7/d28/HijJet4_8h.html" target="_top" xlink:title="HijJet4.h">
<polygon fill="none" stroke="#000000" points="491,-63.5 491,-83.5 549,-83.5 549,-63.5 491,-63.5"/>
<text text-anchor="middle" x="520" y="-70.5" font-family="FreeSans" font-size="10.00" fill="#000000">HijJet4.h</text>
</a>
</g>
</g>
<!-- Node1&#45;&gt;Node8 -->
<g id="edge7" class="edge">
<title>Node1&#45;&gt;Node8</title>
<path fill="none" stroke="#191970" d="M1849.8927,-146.9892C1589.1803,-141.1651 684.1327,-119.0394 558,-90 555.0124,-89.3122 551.9663,-88.396 548.9638,-87.3465"/>
<polygon fill="#191970" stroke="#191970" points="550.2337,-84.085 539.6475,-83.6566 547.656,-90.5931 550.2337,-84.085"/>
</g>
<!-- Node9 -->
<g id="node9" class="node">
<title>Node9</title>
<g id="a_node9"><a xlink:href="../../d7/ddd/HiStrng_8h.html" target="_top" xlink:title="HiStrng.h">
<polygon fill="none" stroke="#000000" points="567.5,-63.5 567.5,-83.5 630.5,-83.5 630.5,-63.5 567.5,-63.5"/>
<text text-anchor="middle" x="599" y="-70.5" font-family="FreeSans" font-size="10.00" fill="#000000">HiStrng.h</text>
</a>
</g>
</g>
<!-- Node1&#45;&gt;Node9 -->
<g id="edge8" class="edge">
<title>Node1&#45;&gt;Node9</title>
<path fill="none" stroke="#191970" d="M1849.877,-146.6727C1599.5015,-139.9589 758.1967,-115.7047 640,-90 636.598,-89.2601 633.1139,-88.2642 629.6837,-87.1262"/>
<polygon fill="#191970" stroke="#191970" points="630.8652,-83.8315 620.2722,-83.6375 628.4321,-90.3951 630.8652,-83.8315"/>
</g>
<!-- Node10 -->
<g id="node10" class="node">
<title>Node10</title>
<g id="a_node10"><a xlink:href="../../df/d57/HijCrdn_8h.html" target="_top" xlink:title="HijCrdn.h">
<polygon fill="none" stroke="#000000" points="649,-63.5 649,-83.5 711,-83.5 711,-63.5 649,-63.5"/>
<text text-anchor="middle" x="680" y="-70.5" font-family="FreeSans" font-size="10.00" fill="#000000">HijCrdn.h</text>
</a>
</g>
</g>
<!-- Node1&#45;&gt;Node10 -->
<g id="edge9" class="edge">
<title>Node1&#45;&gt;Node10</title>
<path fill="none" stroke="#191970" d="M1849.7278,-148.2156C1626.7845,-146.8203 937.2946,-138.5852 720,-90 716.7743,-89.2788 713.4759,-88.318 710.2249,-87.2214"/>
<polygon fill="#191970" stroke="#191970" points="711.3262,-83.896 700.7348,-83.6277 708.8472,-90.4423 711.3262,-83.896"/>
</g>
<!-- Node11 -->
<g id="node11" class="node">
<title>Node11</title>
<polygon fill="none" stroke="#bfbfbf" points="729,-63.5 729,-83.5 843,-83.5 843,-63.5 729,-63.5"/>
<text text-anchor="middle" x="786" y="-70.5" font-family="FreeSans" font-size="10.00" fill="#000000">HepMC/GenEvent.h</text>
</g>
<!-- Node1&#45;&gt;Node11 -->
<g id="edge10" class="edge">
<title>Node1&#45;&gt;Node11</title>
<path fill="none" stroke="#191970" d="M1849.8276,-146.401C1644.2124,-139.9741 1045.4829,-119.2123 852,-90 845.1735,-88.9693 838.0234,-87.5491 831.0535,-85.9709"/>
<polygon fill="#191970" stroke="#191970" points="831.5693,-82.4956 821.0293,-83.5727 829.9405,-89.3035 831.5693,-82.4956"/>
</g>
<!-- Node12 -->
<g id="node12" class="node">
<title>Node12</title>
<polygon fill="none" stroke="#bfbfbf" points="861,-63.5 861,-83.5 979,-83.5 979,-63.5 861,-63.5"/>
<text text-anchor="middle" x="920" y="-70.5" font-family="FreeSans" font-size="10.00" fill="#000000">HepMC/GenVertex.h</text>
</g>
<!-- Node1&#45;&gt;Node12 -->
<g id="edge11" class="edge">
<title>Node1&#45;&gt;Node12</title>
<path fill="none" stroke="#191970" d="M1849.889,-145.6956C1662.7123,-137.9535 1154.2055,-115.1818 988,-90 980.8159,-88.9115 973.2768,-87.431 965.9407,-85.801"/>
<polygon fill="#191970" stroke="#191970" points="966.649,-82.3723 956.1152,-83.5084 965.0583,-89.1892 966.649,-82.3723"/>
</g>
<!-- Node13 -->
<g id="node13" class="node">
<title>Node13</title>
<polygon fill="none" stroke="#bfbfbf" points="997,-63.5 997,-83.5 1119,-83.5 1119,-63.5 997,-63.5"/>
<text text-anchor="middle" x="1058" y="-70.5" font-family="FreeSans" font-size="10.00" fill="#000000">HepMC/GenParticle.h</text>
</g>
<!-- Node1&#45;&gt;Node13 -->
<g id="edge12" class="edge">
<title>Node1&#45;&gt;Node13</title>
<path fill="none" stroke="#191970" d="M1849.925,-147.0302C1711.2933,-143.3069 1392.5384,-130.6874 1128,-90 1120.6206,-88.865 1112.8694,-87.36 1105.3227,-85.7198"/>
<polygon fill="#191970" stroke="#191970" points="1106.0947,-82.306 1095.568,-83.5053 1104.545,-89.1324 1106.0947,-82.306"/>
</g>
<!-- Node14 -->
<g id="node14" class="node">
<title>Node14</title>
<polygon fill="none" stroke="#bfbfbf" points="1137,-63.5 1137,-83.5 1283,-83.5 1283,-63.5 1137,-63.5"/>
<text text-anchor="middle" x="1210" y="-70.5" font-family="FreeSans" font-size="10.00" fill="#000000">HepMC/IO_AsciiParticles.h</text>
</g>
<!-- Node1&#45;&gt;Node14 -->
<g id="edge13" class="edge">
<title>Node1&#45;&gt;Node14</title>
<path fill="none" stroke="#191970" d="M1849.5452,-144.3743C1733.0725,-137.0086 1493.24,-119.5353 1292,-90 1283.3357,-88.7284 1274.2032,-87.1402 1265.3038,-85.4553"/>
<polygon fill="#191970" stroke="#191970" points="1265.8774,-82.0013 1255.3925,-83.5235 1264.5382,-88.872 1265.8774,-82.0013"/>
</g>
<!-- Node15 -->
<g id="node15" class="node">
<title>Node15</title>
<polygon fill="none" stroke="#bfbfbf" points="1301,-63.5 1301,-83.5 1431,-83.5 1431,-63.5 1301,-63.5"/>
<text text-anchor="middle" x="1366" y="-70.5" font-family="FreeSans" font-size="10.00" fill="#000000">HepMC/IO_GenEvent.h</text>
</g>
<!-- Node1&#45;&gt;Node15 -->
<g id="edge14" class="edge">
<title>Node1&#45;&gt;Node15</title>
<path fill="none" stroke="#191970" d="M1849.7317,-142.1156C1755.9268,-133.0959 1584.7864,-114.9029 1440,-90 1432.7761,-88.7575 1425.1934,-87.2748 1417.7498,-85.7152"/>
<polygon fill="#191970" stroke="#191970" points="1418.2455,-82.2417 1407.7325,-83.5561 1416.7706,-89.0846 1418.2455,-82.2417"/>
</g>
<!-- Node16 -->
<g id="node16" class="node">
<title>Node16</title>
<polygon fill="none" stroke="#bfbfbf" points="1449,-63.5 1449,-83.5 1633,-83.5 1633,-63.5 1449,-63.5"/>
<text text-anchor="middle" x="1541" y="-70.5" font-family="FreeSans" font-size="10.00" fill="#000000">CLHEP/Random/RandomEngine.h</text>
</g>
<!-- Node1&#45;&gt;Node16 -->
<g id="edge15" class="edge">
<title>Node1&#45;&gt;Node16</title>
<path fill="none" stroke="#191970" d="M1849.6012,-134.5688C1778.3351,-120.466 1669.2752,-98.8843 1601.6997,-85.5118"/>
<polygon fill="#191970" stroke="#191970" points="1602.1207,-82.0273 1591.6314,-83.5194 1600.7617,-88.8942 1602.1207,-82.0273"/>
</g>
<!-- Node17 -->
<g id="node17" class="node">
<title>Node17</title>
<polygon fill="none" stroke="#bfbfbf" points="1651.5,-63.5 1651.5,-83.5 1826.5,-83.5 1826.5,-63.5 1651.5,-63.5"/>
<text text-anchor="middle" x="1739" y="-70.5" font-family="FreeSans" font-size="10.00" fill="#000000">CLHEP/Random/MTwistEngine.h</text>
</g>
<!-- Node1&#45;&gt;Node17 -->
<g id="edge16" class="edge">
<title>Node1&#45;&gt;Node17</title>
<path fill="none" stroke="#191970" d="M1866.673,-126.4032C1836.3443,-113.836 1799.274,-98.4754 1772.908,-87.5503"/>
<polygon fill="#191970" stroke="#191970" points="1773.9416,-84.19 1763.3635,-83.5954 1771.2619,-90.6568 1773.9416,-84.19"/>
</g>
<!-- Node18 -->
<g id="node18" class="node">
<title>Node18</title>
<polygon fill="none" stroke="#bfbfbf" points="1844.5,-63.5 1844.5,-83.5 1995.5,-83.5 1995.5,-63.5 1844.5,-63.5"/>
<text text-anchor="middle" x="1920" y="-70.5" font-family="FreeSans" font-size="10.00" fill="#000000">CLHEP/Random/RandFlat.h</text>
</g>
<!-- Node1&#45;&gt;Node18 -->
<g id="edge17" class="edge">
<title>Node1&#45;&gt;Node18</title>
<path fill="none" stroke="#191970" d="M1920,-126.4032C1920,-116.1059 1920,-103.9331 1920,-93.8616"/>
<polygon fill="#191970" stroke="#191970" points="1923.5001,-93.5953 1920,-83.5954 1916.5001,-93.5954 1923.5001,-93.5953"/>
</g>
<!-- Node19 -->
<g id="node19" class="node">
<title>Node19</title>
<polygon fill="none" stroke="#bfbfbf" points="2013.5,-63.5 2013.5,-83.5 2178.5,-83.5 2178.5,-63.5 2013.5,-63.5"/>
<text text-anchor="middle" x="2096" y="-70.5" font-family="FreeSans" font-size="10.00" fill="#000000">CLHEP/Vector/LorentzVector.h</text>
</g>
<!-- Node1&#45;&gt;Node19 -->
<g id="edge18" class="edge">
<title>Node1&#45;&gt;Node19</title>
<path fill="none" stroke="#191970" d="M1971.8539,-126.4032C2001.3448,-113.836 2037.391,-98.4754 2063.0287,-87.5503"/>
<polygon fill="#191970" stroke="#191970" points="2064.4821,-90.7355 2072.3096,-83.5954 2061.7379,-84.2958 2064.4821,-90.7355"/>
</g>
<!-- Node20 -->
<g id="node20" class="node">
<title>Node20</title>
<polygon fill="none" stroke="#bfbfbf" points="2197,-63.5 2197,-83.5 2351,-83.5 2351,-63.5 2197,-63.5"/>
<text text-anchor="middle" x="2274" y="-70.5" font-family="FreeSans" font-size="10.00" fill="#000000">CLHEP/Geometry/Point3D.h</text>
</g>
<!-- Node1&#45;&gt;Node20 -->
<g id="edge19" class="edge">
<title>Node1&#45;&gt;Node20</title>
<path fill="none" stroke="#191970" d="M1990.3623,-133.5927C2056.7354,-119.5306 2155.0038,-98.7111 2216.7202,-85.6356"/>
<polygon fill="#191970" stroke="#191970" points="2217.6184,-89.023 2226.6758,-83.5263 2216.1675,-82.175 2217.6184,-89.023"/>
</g>
<!-- Node21 -->
<g id="node21" class="node">
<title>Node21</title>
<polygon fill="none" stroke="#bfbfbf" points="2369,-57.5 2369,-89.5 2485,-89.5 2485,-57.5 2369,-57.5"/>
<text text-anchor="start" x="2377" y="-76.5" font-family="FreeSans" font-size="10.00" fill="#000000">boost/property_tree</text>
<text text-anchor="middle" x="2427" y="-64.5" font-family="FreeSans" font-size="10.00" fill="#000000">/ptree.hpp</text>
</g>
<!-- Node1&#45;&gt;Node21 -->
<g id="edge20" class="edge">
<title>Node1&#45;&gt;Node21</title>
<path fill="none" stroke="#191970" d="M1990.1049,-141.5698C2075.1215,-132.6308 2222.8939,-115.3798 2358.8005,-90.1119"/>
<polygon fill="#191970" stroke="#191970" points="2359.7983,-93.4858 2368.9803,-88.1999 2358.506,-86.6061 2359.7983,-93.4858"/>
</g>
<!-- Node22 -->
<g id="node22" class="node">
<title>Node22</title>
<polygon fill="none" stroke="#bfbfbf" points="2503,-57.5 2503,-89.5 2619,-89.5 2619,-57.5 2503,-57.5"/>
<text text-anchor="start" x="2511" y="-76.5" font-family="FreeSans" font-size="10.00" fill="#000000">boost/property_tree</text>
<text text-anchor="middle" x="2561" y="-64.5" font-family="FreeSans" font-size="10.00" fill="#000000">/xml_parser.hpp</text>
</g>
<!-- Node1&#45;&gt;Node22 -->
<g id="edge21" class="edge">
<title>Node1&#45;&gt;Node22</title>
<path fill="none" stroke="#191970" d="M1990.2335,-144.5181C2096.9446,-137.7674 2306.3475,-121.776 2492.6582,-90.0986"/>
<polygon fill="#191970" stroke="#191970" points="2493.3737,-93.527 2502.6361,-88.3831 2492.1876,-86.6282 2493.3737,-93.527"/>
</g>
<!-- Node23 -->
<g id="node23" class="node">
<title>Node23</title>
<polygon fill="none" stroke="#bfbfbf" points="2637,-63.5 2637,-83.5 2745,-83.5 2745,-63.5 2637,-63.5"/>
<text text-anchor="middle" x="2691" y="-70.5" font-family="FreeSans" font-size="10.00" fill="#000000">boost/foreach.hpp</text>
</g>
<!-- Node1&#45;&gt;Node23 -->
<g id="edge22" class="edge">
<title>Node1&#45;&gt;Node23</title>
<path fill="none" stroke="#191970" d="M1990.0961,-146.7373C2117.8028,-142.6343 2396.5567,-129.561 2628,-90 2634.2167,-88.9374 2640.7153,-87.5544 2647.0779,-86.0412"/>
<polygon fill="#191970" stroke="#191970" points="2648.0524,-89.4054 2656.9042,-83.5834 2646.3537,-82.6146 2648.0524,-89.4054"/>
</g>
<!-- Node24 -->
<g id="node24" class="node">
<title>Node24</title>
<polygon fill="none" stroke="#bfbfbf" points="2763,-63.5 2763,-83.5 2891,-83.5 2891,-63.5 2763,-63.5"/>
<text text-anchor="middle" x="2827" y="-70.5" font-family="FreeSans" font-size="10.00" fill="#000000">boost/lexical_cast.hpp</text>
</g>
<!-- Node1&#45;&gt;Node24 -->
<g id="edge23" class="edge">
<title>Node1&#45;&gt;Node24</title>
<path fill="none" stroke="#191970" d="M1990.1322,-147.1804C2134.0578,-143.6821 2472.9034,-131.3804 2754,-90 2761.7731,-88.8557 2769.947,-87.3314 2777.8987,-85.6705"/>
<polygon fill="#191970" stroke="#191970" points="2778.7796,-89.0607 2787.8051,-83.5118 2777.2892,-82.2212 2778.7796,-89.0607"/>
</g>
<!-- Node25 -->
<g id="node25" class="node">
<title>Node25</title>
<polygon fill="none" stroke="#bfbfbf" points="2909,-63.5 2909,-83.5 3061,-83.5 3061,-63.5 2909,-63.5"/>
<text text-anchor="middle" x="2985" y="-70.5" font-family="FreeSans" font-size="10.00" fill="#000000">boost/algorithm/string.hpp</text>
</g>
<!-- Node1&#45;&gt;Node25 -->
<g id="edge24" class="edge">
<title>Node1&#45;&gt;Node25</title>
<path fill="none" stroke="#191970" d="M1990.1036,-147.4891C2151.3451,-144.4721 2560.7482,-132.8624 2900,-90 2909.5192,-88.7973 2919.5756,-87.1686 2929.3096,-85.4011"/>
<polygon fill="#191970" stroke="#191970" points="2930.1204,-88.8101 2939.3006,-83.521 2928.8258,-81.9308 2930.1204,-88.8101"/>
</g>
<!-- Node26 -->
<g id="node26" class="node">
<title>Node26</title>
<polygon fill="none" stroke="#bfbfbf" points="3079,-63.5 3079,-83.5 3139,-83.5 3139,-63.5 3079,-63.5"/>
<text text-anchor="middle" x="3109" y="-70.5" font-family="FreeSans" font-size="10.00" fill="#000000">iostream</text>
</g>
<!-- Node1&#45;&gt;Node26 -->
<g id="edge25" class="edge">
<title>Node1&#45;&gt;Node26</title>
<path fill="none" stroke="#191970" d="M1990.0141,-148.1241C2206.4877,-146.4611 2862.852,-137.5273 3070,-90 3073.0544,-89.2992 3076.1728,-88.3744 3079.2494,-87.3195"/>
<polygon fill="#191970" stroke="#191970" points="3080.7411,-90.4952 3088.804,-83.6221 3078.2147,-83.967 3080.7411,-90.4952"/>
</g>
<!-- Node27 -->
<g id="node27" class="node">
<title>Node27</title>
<polygon fill="none" stroke="#bfbfbf" points="3157,-63.5 3157,-83.5 3207,-83.5 3207,-63.5 3157,-63.5"/>
<text text-anchor="middle" x="3182" y="-70.5" font-family="FreeSans" font-size="10.00" fill="#000000">cstdlib</text>
</g>
<!-- Node1&#45;&gt;Node27 -->
<g id="edge26" class="edge">
<title>Node1&#45;&gt;Node27</title>
<path fill="none" stroke="#191970" d="M1990.2671,-146.8012C2234.2486,-140.6753 3035.996,-118.5645 3148,-90 3150.3603,-89.3981 3152.751,-88.6237 3155.1138,-87.7396"/>
<polygon fill="#191970" stroke="#191970" points="3156.7455,-90.8467 3164.519,-83.6478 3153.9529,-84.4278 3156.7455,-90.8467"/>
</g>
<!-- Node28 -->
<g id="node28" class="node">
<title>Node28</title>
<polygon fill="none" stroke="#bfbfbf" points="3225.5,-63.5 3225.5,-83.5 3270.5,-83.5 3270.5,-63.5 3225.5,-63.5"/>
<text text-anchor="middle" x="3248" y="-70.5" font-family="FreeSans" font-size="10.00" fill="#000000">string</text>
</g>
<!-- Node1&#45;&gt;Node28 -->
<g id="edge27" class="edge">
<title>Node1&#45;&gt;Node28</title>
<path fill="none" stroke="#191970" d="M1990.2177,-147.088C2242.9466,-141.7646 3097.5304,-121.5902 3216,-90 3218.1591,-89.4243 3220.3393,-88.6875 3222.4925,-87.846"/>
<polygon fill="#191970" stroke="#191970" points="3223.9828,-91.0131 3231.6109,-83.6603 3221.0625,-84.6514 3223.9828,-91.0131"/>
</g>
<!-- Node29 -->
<g id="node29" class="node">
<title>Node29</title>
<polygon fill="none" stroke="#bfbfbf" points="3289,-63.5 3289,-83.5 3347,-83.5 3347,-63.5 3289,-63.5"/>
<text text-anchor="middle" x="3318" y="-70.5" font-family="FreeSans" font-size="10.00" fill="#000000">memory</text>
</g>
<!-- Node1&#45;&gt;Node29 -->
<g id="edge28" class="edge">
<title>Node1&#45;&gt;Node29</title>
<path fill="none" stroke="#191970" d="M1990.3909,-146.9376C2251.0837,-140.9501 3153.0831,-118.3731 3279,-90 3282.0571,-89.3111 3285.1774,-88.3942 3288.255,-87.3443"/>
<polygon fill="#191970" stroke="#191970" points="3289.7436,-90.5215 3297.8112,-83.6539 3287.2217,-83.9915 3289.7436,-90.5215"/>
</g>
<!-- Node30 -->
<g id="node30" class="node">
<title>Node30</title>
<polygon fill="none" stroke="#bfbfbf" points="3365.5,-63.5 3365.5,-83.5 3414.5,-83.5 3414.5,-63.5 3365.5,-63.5"/>
<text text-anchor="middle" x="3390" y="-70.5" font-family="FreeSans" font-size="10.00" fill="#000000">vector</text>
</g>
<!-- Node1&#45;&gt;Node30 -->
<g id="edge29" class="edge">
<title>Node1&#45;&gt;Node30</title>
<path fill="none" stroke="#191970" d="M1990.2286,-147.3234C2260.2374,-142.5693 3223.0598,-123.4168 3356,-90 3358.5055,-89.3702 3361.0446,-88.5438 3363.5477,-87.5962"/>
<polygon fill="#191970" stroke="#191970" points="3365.1271,-90.7253 3372.876,-83.5 3362.3127,-84.316 3365.1271,-90.7253"/>
</g>
<!-- Node31 -->
<g id="node31" class="node">
<title>Node31</title>
<polygon fill="none" stroke="#bfbfbf" points="3432.5,-63.5 3432.5,-83.5 3489.5,-83.5 3489.5,-63.5 3432.5,-63.5"/>
<text text-anchor="middle" x="3461" y="-70.5" font-family="FreeSans" font-size="10.00" fill="#000000">numeric</text>
</g>
<!-- Node1&#45;&gt;Node31 -->
<g id="edge30" class="edge">
<title>Node1&#45;&gt;Node31</title>
<path fill="none" stroke="#191970" d="M1990.1223,-147.2926C2267.8716,-142.3023 3282.5749,-122.0326 3423,-90 3425.9889,-89.3182 3429.036,-88.406 3432.0391,-87.359"/>
<polygon fill="#191970" stroke="#191970" points="3433.3452,-90.6063 3441.3562,-83.6727 3430.7698,-84.0972 3433.3452,-90.6063"/>
</g>
<!-- Node32 -->
<g id="node32" class="node">
<title>Node32</title>
<polygon fill="none" stroke="#bfbfbf" points="3508,-63.5 3508,-83.5 3556,-83.5 3556,-63.5 3508,-63.5"/>
<text text-anchor="middle" x="3532" y="-70.5" font-family="FreeSans" font-size="10.00" fill="#000000">cmath</text>
</g>
<!-- Node1&#45;&gt;Node32 -->
<g id="edge31" class="edge">
<title>Node1&#45;&gt;Node32</title>
<path fill="none" stroke="#191970" d="M1990.2278,-147.6007C2276.9602,-143.6972 3350.704,-126.7389 3498,-90 3500.5067,-89.3748 3503.0466,-88.5516 3505.5502,-87.606"/>
<polygon fill="#191970" stroke="#191970" points="3507.128,-90.7359 3514.8794,-83.5133 3504.3157,-84.3256 3507.128,-90.7359"/>
</g>
<!-- Node33 -->
<g id="node33" class="node">
<title>Node33</title>
<polygon fill="none" stroke="#bfbfbf" points="3574.5,-63.5 3574.5,-83.5 3629.5,-83.5 3629.5,-63.5 3574.5,-63.5"/>
<text text-anchor="middle" x="3602" y="-70.5" font-family="FreeSans" font-size="10.00" fill="#000000">random</text>
</g>
<!-- Node1&#45;&gt;Node33 -->
<g id="edge32" class="edge">
<title>Node1&#45;&gt;Node33</title>
<path fill="none" stroke="#191970" d="M1990.1693,-147.5852C2284.3616,-143.5351 3410.3103,-125.8139 3565,-90 3567.9871,-89.3084 3571.0298,-88.3739 3574.0225,-87.2993"/>
<polygon fill="#191970" stroke="#191970" points="3575.35,-90.5378 3583.2828,-83.5149 3572.7019,-84.058 3575.35,-90.5378"/>
</g>
<!-- Node34 -->
<g id="node34" class="node">
<title>Node34</title>
<g id="a_node34"><a xlink:href="../../d0/d8e/cfortran_8h.html" target="_top" xlink:title="cfortran.h">
<polygon fill="none" stroke="#000000" points="3647.5,-63.5 3647.5,-83.5 3712.5,-83.5 3712.5,-63.5 3647.5,-63.5"/>
<text text-anchor="middle" x="3680" y="-70.5" font-family="FreeSans" font-size="10.00" fill="#000000">cfortran.h</text>
</a>
</g>
</g>
<!-- Node1&#45;&gt;Node34 -->
<g id="edge33" class="edge">
<title>Node1&#45;&gt;Node34</title>
<path fill="none" stroke="#191970" d="M1990.2093,-147.5506C2292.6238,-143.2662 3476.1238,-124.4286 3639,-90 3642.4837,-89.2636 3646.0517,-88.252 3649.5589,-87.0892"/>
<polygon fill="#191970" stroke="#191970" points="3651.0111,-90.2833 3659.1617,-83.5144 3648.569,-83.7231 3651.0111,-90.2833"/>
</g>
<!-- Node35 -->
<g id="node35" class="node">
<title>Node35</title>
<polygon fill="none" stroke="#bfbfbf" points="3585,-.5 3585,-20.5 3635,-20.5 3635,-.5 3585,-.5"/>
<text text-anchor="middle" x="3610" y="-7.5" font-family="FreeSans" font-size="10.00" fill="#000000">stdio.h</text>
</g>
<!-- Node34&#45;&gt;Node35 -->
<g id="edge34" class="edge">
<title>Node34&#45;&gt;Node35</title>
<path fill="none" stroke="#191970" d="M3668.7533,-63.378C3658.1011,-53.791 3641.8911,-39.202 3629.1941,-27.7747"/>
<polygon fill="#191970" stroke="#191970" points="3631.2257,-24.8944 3621.4513,-20.8062 3626.5429,-30.0974 3631.2257,-24.8944"/>
</g>
<!-- Node36 -->
<g id="node36" class="node">
<title>Node36</title>
<polygon fill="none" stroke="#bfbfbf" points="3653,-.5 3653,-20.5 3707,-20.5 3707,-.5 3653,-.5"/>
<text text-anchor="middle" x="3680" y="-7.5" font-family="FreeSans" font-size="10.00" fill="#000000">string.h</text>
</g>
<!-- Node34&#45;&gt;Node36 -->
<g id="edge35" class="edge">
<title>Node34&#45;&gt;Node36</title>
<path fill="none" stroke="#191970" d="M3680,-63.378C3680,-54.7041 3680,-41.9355 3680,-31.1186"/>
<polygon fill="#191970" stroke="#191970" points="3683.5001,-30.8062 3680,-20.8062 3676.5001,-30.8062 3683.5001,-30.8062"/>
</g>
<!-- Node37 -->
<g id="node37" class="node">
<title>Node37</title>
<polygon fill="none" stroke="#bfbfbf" points="3725.5,-.5 3725.5,-20.5 3778.5,-20.5 3778.5,-.5 3725.5,-.5"/>
<text text-anchor="middle" x="3752" y="-7.5" font-family="FreeSans" font-size="10.00" fill="#000000">stdlib.h</text>
</g>
<!-- Node34&#45;&gt;Node37 -->
<g id="edge36" class="edge">
<title>Node34&#45;&gt;Node37</title>
<path fill="none" stroke="#191970" d="M3691.568,-63.378C3702.6289,-53.6997 3719.5158,-38.9236 3732.6297,-27.449"/>
<polygon fill="#191970" stroke="#191970" points="3735.0005,-30.0253 3740.2215,-20.8062 3730.3909,-24.7573 3735.0005,-30.0253"/>
</g>
</g>
</svg>
