<?xml version="1.0" encoding="UTF-8" standalone="no"?>
<!DOCTYPE svg PUBLIC "-//W3C//DTD SVG 1.1//EN"
 "http://www.w3.org/Graphics/SVG/1.1/DTD/svg11.dtd">
<!-- Generated by graphviz version 2.40.1 (20161225.0304)
 -->
<!-- Title: eicsmeardetectors/blob/master/SmearPerfectDetector.cxx Pages: 1 -->
<svg width="2032pt" height="668pt"
 viewBox="0.00 0.00 2032.00 668.00" xmlns="http://www.w3.org/2000/svg" xmlns:xlink="http://www.w3.org/1999/xlink">
<g id="graph0" class="graph" transform="scale(1 1) rotate(0) translate(4 664)">
<title>eicsmeardetectors/blob/master/SmearPerfectDetector.cxx</title>
<!-- Node1 -->
<g id="node1" class="node">
<title>Node1</title>
<polygon fill="#bfbfbf" stroke="#000000" points="387.5,-627.5 387.5,-659.5 578.5,-659.5 578.5,-627.5 387.5,-627.5"/>
<text text-anchor="start" x="395.5" y="-646.5" font-family="FreeSans" font-size="10.00" fill="#000000">eicsmeardetectors/blob</text>
<text text-anchor="middle" x="483" y="-634.5" font-family="FreeSans" font-size="10.00" fill="#000000">/master/SmearPerfectDetector.cxx</text>
</g>
<!-- Node2 -->
<g id="node2" class="node">
<title>Node2</title>
<g id="a_node2"><a xlink:href="../../d3/d44/VirtualParticle_8h.html" target="_top" xlink:title="eicsmear/erhic/VirtualParticle.h">
<polygon fill="none" stroke="#000000" points="1415,-114.5 1415,-134.5 1589,-134.5 1589,-114.5 1415,-114.5"/>
<text text-anchor="middle" x="1502" y="-121.5" font-family="FreeSans" font-size="10.00" fill="#000000">eicsmear/erhic/VirtualParticle.h</text>
</a>
</g>
</g>
<!-- Node1&#45;&gt;Node2 -->
<g id="edge1" class="edge">
<title>Node1&#45;&gt;Node2</title>
<path fill="none" stroke="#191970" d="M578.5237,-641.0851C914.8447,-631.9618 2024,-596.3514 2024,-523.5 2024,-523.5 2024,-523.5 2024,-466.5 2024,-383.3319 1948,-378.6681 1948,-295.5 1948,-295.5 1948,-295.5 1948,-238.5 1948,-167.0352 1730.3352,-139.7843 1599.1255,-129.8494"/>
<polygon fill="#191970" stroke="#191970" points="1599.2821,-126.3516 1589.0521,-129.1077 1598.768,-133.3327 1599.2821,-126.3516"/>
</g>
<!-- Node7 -->
<g id="node7" class="node">
<title>Node7</title>
<g id="a_node7"><a xlink:href="../../d7/d59/Acceptance_8h.html" target="_top" xlink:title="eicsmear/smear/Acceptance.h">
<polygon fill="none" stroke="#000000" points="262.5,-456.5 262.5,-476.5 431.5,-476.5 431.5,-456.5 262.5,-456.5"/>
<text text-anchor="middle" x="347" y="-463.5" font-family="FreeSans" font-size="10.00" fill="#000000">eicsmear/smear/Acceptance.h</text>
</a>
</g>
</g>
<!-- Node1&#45;&gt;Node7 -->
<g id="edge6" class="edge">
<title>Node1&#45;&gt;Node7</title>
<path fill="none" stroke="#191970" d="M472.0578,-627.4768C454.8433,-602.5023 420.0843,-553.0072 388,-513 380.1417,-503.2012 370.9276,-492.6729 363.2269,-484.1164"/>
<polygon fill="#191970" stroke="#191970" points="365.7168,-481.6521 356.4012,-476.6053 360.5363,-486.3599 365.7168,-481.6521"/>
</g>
<!-- Node36 -->
<g id="node36" class="node">
<title>Node36</title>
<g id="a_node36"><a xlink:href="../../d8/dbc/ParticleMCS_8h.html" target="_top" xlink:title="eicsmear/smear/ParticleMCS.h">
<polygon fill="none" stroke="#000000" points="1567.5,-285.5 1567.5,-305.5 1736.5,-305.5 1736.5,-285.5 1567.5,-285.5"/>
<text text-anchor="middle" x="1652" y="-292.5" font-family="FreeSans" font-size="10.00" fill="#000000">eicsmear/smear/ParticleMCS.h</text>
</a>
</g>
</g>
<!-- Node1&#45;&gt;Node36 -->
<g id="edge80" class="edge">
<title>Node1&#45;&gt;Node36</title>
<path fill="none" stroke="#191970" d="M578.5077,-640.7638C854.3827,-632.0838 1638.6751,-601.6531 1731,-534 1804.3871,-480.224 1855.9748,-415.241 1802,-342 1791.429,-327.6557 1752.5476,-315.8369 1717.0217,-307.7041"/>
<polygon fill="#191970" stroke="#191970" points="1717.6373,-304.2557 1707.1169,-305.509 1716.1227,-311.0899 1717.6373,-304.2557"/>
</g>
<!-- Node37 -->
<g id="node37" class="node">
<title>Node37</title>
<g id="a_node37"><a xlink:href="../../de/d05/Device_8h.html" target="_top" xlink:title="eicsmear/smear/Device.h">
<polygon fill="none" stroke="#000000" points="873.5,-570.5 873.5,-590.5 1018.5,-590.5 1018.5,-570.5 873.5,-570.5"/>
<text text-anchor="middle" x="946" y="-577.5" font-family="FreeSans" font-size="10.00" fill="#000000">eicsmear/smear/Device.h</text>
</a>
</g>
</g>
<!-- Node1&#45;&gt;Node37 -->
<g id="edge59" class="edge">
<title>Node1&#45;&gt;Node37</title>
<path fill="none" stroke="#191970" d="M578.6531,-630.4846C662.5793,-619.0648 783.367,-602.6293 863.2188,-591.764"/>
<polygon fill="#191970" stroke="#191970" points="863.797,-595.2176 873.2338,-590.4012 862.8532,-588.2815 863.797,-595.2176"/>
</g>
<!-- Node40 -->
<g id="node40" class="node">
<title>Node40</title>
<g id="a_node40"><a xlink:href="../../d2/d80/Smearer_8h.html" target="_top" xlink:title="eicsmear/smear/Smearer.h">
<polygon fill="none" stroke="#000000" points="227,-513.5 227,-533.5 379,-533.5 379,-513.5 227,-513.5"/>
<text text-anchor="middle" x="303" y="-520.5" font-family="FreeSans" font-size="10.00" fill="#000000">eicsmear/smear/Smearer.h</text>
</a>
</g>
</g>
<!-- Node1&#45;&gt;Node40 -->
<g id="edge79" class="edge">
<title>Node1&#45;&gt;Node40</title>
<path fill="none" stroke="#191970" d="M453.2953,-627.3135C435.4977,-617.3361 412.5952,-604.0009 393,-591 368.3842,-574.6681 341.4392,-554.0725 323.51,-539.9523"/>
<polygon fill="#191970" stroke="#191970" points="325.4928,-537.0578 315.4823,-533.5878 321.1439,-542.5431 325.4928,-537.0578"/>
</g>
<!-- Node41 -->
<g id="node41" class="node">
<title>Node41</title>
<g id="a_node41"><a xlink:href="../../d4/d43/eic-smear_2blob_2master_2include_2eicsmear_2smear_2Detector_8h.html" target="_top" xlink:title="eicsmear/smear/Detector.h">
<polygon fill="none" stroke="#000000" points="326.5,-399.5 326.5,-419.5 479.5,-419.5 479.5,-399.5 326.5,-399.5"/>
<text text-anchor="middle" x="403" y="-406.5" font-family="FreeSans" font-size="10.00" fill="#000000">eicsmear/smear/Detector.h</text>
</a>
</g>
</g>
<!-- Node1&#45;&gt;Node41 -->
<g id="edge74" class="edge">
<title>Node1&#45;&gt;Node41</title>
<path fill="none" stroke="#191970" d="M481.7254,-627.4042C478.5697,-593.9554 468.4723,-515.1271 440,-456 434.9645,-445.5429 427.2093,-435.2966 420.0972,-427.0953"/>
<polygon fill="#191970" stroke="#191970" points="422.6402,-424.6894 413.3241,-419.6435 417.4602,-429.3977 422.6402,-424.6894"/>
</g>
<!-- Node42 -->
<g id="node42" class="node">
<title>Node42</title>
<g id="a_node42"><a xlink:href="../../d9/dca/PerfectID_8h.html" target="_top" xlink:title="eicsmear/smear/PerfectID.h">
<polygon fill="none" stroke="#000000" points="104,-570.5 104,-590.5 260,-590.5 260,-570.5 104,-570.5"/>
<text text-anchor="middle" x="182" y="-577.5" font-family="FreeSans" font-size="10.00" fill="#000000">eicsmear/smear/PerfectID.h</text>
</a>
</g>
</g>
<!-- Node1&#45;&gt;Node42 -->
<g id="edge81" class="edge">
<title>Node1&#45;&gt;Node42</title>
<path fill="none" stroke="#191970" d="M406.2662,-627.4394C354.5018,-616.605 287.2696,-602.5332 239.9672,-592.6327"/>
<polygon fill="#191970" stroke="#191970" points="240.3955,-589.1465 229.8906,-590.5236 238.9614,-595.9981 240.3955,-589.1465"/>
</g>
<!-- Node3 -->
<g id="node3" class="node">
<title>Node3</title>
<polygon fill="none" stroke="#bfbfbf" points="919.5,-57.5 919.5,-77.5 1020.5,-77.5 1020.5,-57.5 919.5,-57.5"/>
<text text-anchor="middle" x="970" y="-64.5" font-family="FreeSans" font-size="10.00" fill="#000000">TLorentzVector.h</text>
</g>
<!-- Node2&#45;&gt;Node3 -->
<g id="edge2" class="edge">
<title>Node2&#45;&gt;Node3</title>
<path fill="none" stroke="#191970" d="M1414.7467,-115.1514C1306.636,-103.5681 1125.2067,-84.1293 1030.9685,-74.0323"/>
<polygon fill="#191970" stroke="#191970" points="1031.0624,-70.5224 1020.7464,-72.9371 1030.3166,-77.4826 1031.0624,-70.5224"/>
</g>
<!-- Node4 -->
<g id="node4" class="node">
<title>Node4</title>
<polygon fill="none" stroke="#bfbfbf" points="1323.5,-57.5 1323.5,-77.5 1394.5,-77.5 1394.5,-57.5 1323.5,-57.5"/>
<text text-anchor="middle" x="1359" y="-64.5" font-family="FreeSans" font-size="10.00" fill="#000000">TVector3.h</text>
</g>
<!-- Node2&#45;&gt;Node4 -->
<g id="edge3" class="edge">
<title>Node2&#45;&gt;Node4</title>
<path fill="none" stroke="#191970" d="M1476.7636,-114.4408C1453.728,-105.2587 1419.4648,-91.6013 1393.8272,-81.3822"/>
<polygon fill="#191970" stroke="#191970" points="1395.0503,-78.1019 1384.4651,-77.6504 1392.4584,-84.6044 1395.0503,-78.1019"/>
</g>
<!-- Node5 -->
<g id="node5" class="node">
<title>Node5</title>
<g id="a_node5"><a xlink:href="../../d8/da3/Pid_8h.html" target="_top" xlink:title="eicsmear/erhic/Pid.h">
<polygon fill="none" stroke="#000000" points="1433,-57.5 1433,-77.5 1551,-77.5 1551,-57.5 1433,-57.5"/>
<text text-anchor="middle" x="1492" y="-64.5" font-family="FreeSans" font-size="10.00" fill="#000000">eicsmear/erhic/Pid.h</text>
</a>
</g>
</g>
<!-- Node2&#45;&gt;Node5 -->
<g id="edge4" class="edge">
<title>Node2&#45;&gt;Node5</title>
<path fill="none" stroke="#191970" d="M1500.2122,-114.3095C1498.9182,-106.9335 1497.1263,-96.72 1495.5465,-87.715"/>
<polygon fill="#191970" stroke="#191970" points="1498.9477,-86.847 1493.7723,-77.6022 1492.053,-88.0566 1498.9477,-86.847"/>
</g>
<!-- Node6 -->
<g id="node6" class="node">
<title>Node6</title>
<polygon fill="none" stroke="#bfbfbf" points="1181,-.5 1181,-20.5 1241,-20.5 1241,-.5 1181,-.5"/>
<text text-anchor="middle" x="1211" y="-7.5" font-family="FreeSans" font-size="10.00" fill="#000000">Rtypes.h</text>
</g>
<!-- Node5&#45;&gt;Node6 -->
<g id="edge5" class="edge">
<title>Node5&#45;&gt;Node6</title>
<path fill="none" stroke="#191970" d="M1442.4097,-57.4408C1387.8707,-46.3777 1301.3037,-28.8178 1250.9444,-18.6026"/>
<polygon fill="#191970" stroke="#191970" points="1251.5702,-15.1583 1241.074,-16.6004 1250.1786,-22.0186 1251.5702,-15.1583"/>
</g>
<!-- Node8 -->
<g id="node8" class="node">
<title>Node8</title>
<polygon fill="none" stroke="#bfbfbf" points="106,-399.5 106,-419.5 138,-419.5 138,-399.5 106,-399.5"/>
<text text-anchor="middle" x="122" y="-406.5" font-family="FreeSans" font-size="10.00" fill="#000000">set</text>
</g>
<!-- Node7&#45;&gt;Node8 -->
<g id="edge7" class="edge">
<title>Node7&#45;&gt;Node8</title>
<path fill="none" stroke="#191970" d="M307.2924,-456.4408C261.414,-444.8182 187.2307,-426.0251 148.0957,-416.1109"/>
<polygon fill="#191970" stroke="#191970" points="148.8175,-412.6833 138.2642,-413.6203 147.0984,-419.4689 148.8175,-412.6833"/>
</g>
<!-- Node9 -->
<g id="node9" class="node">
<title>Node9</title>
<polygon fill="none" stroke="#bfbfbf" points="311.5,-171.5 311.5,-191.5 360.5,-191.5 360.5,-171.5 311.5,-171.5"/>
<text text-anchor="middle" x="336" y="-178.5" font-family="FreeSans" font-size="10.00" fill="#000000">vector</text>
</g>
<!-- Node7&#45;&gt;Node9 -->
<g id="edge8" class="edge">
<title>Node7&#45;&gt;Node9</title>
<path fill="none" stroke="#191970" d="M339.1417,-456.3034C332.454,-447.2089 323.0035,-433.3119 317,-420 304.1873,-391.5897 298,-383.6658 298,-352.5 298,-352.5 298,-352.5 298,-295.5 298,-260.7644 314.0743,-222.9893 325.3138,-200.8219"/>
<polygon fill="#191970" stroke="#191970" points="328.5008,-202.2812 330.0625,-191.8021 322.3068,-199.0201 328.5008,-202.2812"/>
</g>
<!-- Node10 -->
<g id="node10" class="node">
<title>Node10</title>
<polygon fill="none" stroke="#bfbfbf" points="196,-399.5 196,-419.5 270,-419.5 270,-399.5 196,-399.5"/>
<text text-anchor="middle" x="233" y="-406.5" font-family="FreeSans" font-size="10.00" fill="#000000">TFormula.h</text>
</g>
<!-- Node7&#45;&gt;Node10 -->
<g id="edge9" class="edge">
<title>Node7&#45;&gt;Node10</title>
<path fill="none" stroke="#191970" d="M326.8815,-456.4408C309.0028,-447.5014 282.6404,-434.3202 262.3991,-424.1996"/>
<polygon fill="#191970" stroke="#191970" points="263.8104,-420.9921 253.3008,-419.6504 260.6798,-427.2531 263.8104,-420.9921"/>
</g>
<!-- Node11 -->
<g id="node11" class="node">
<title>Node11</title>
<polygon fill="none" stroke="#bfbfbf" points="522,-342.5 522,-362.5 580,-362.5 580,-342.5 522,-342.5"/>
<text text-anchor="middle" x="551" y="-349.5" font-family="FreeSans" font-size="10.00" fill="#000000">TMath.h</text>
</g>
<!-- Node7&#45;&gt;Node11 -->
<g id="edge10" class="edge">
<title>Node7&#45;&gt;Node11</title>
<path fill="none" stroke="#191970" d="M398.0684,-456.4812C426.4148,-449.3299 461.411,-437.7676 489,-420 509.1294,-407.0365 527.0152,-385.9927 538.3407,-370.8459"/>
<polygon fill="#191970" stroke="#191970" points="541.1965,-372.8695 544.2183,-362.7147 535.5234,-368.7687 541.1965,-372.8695"/>
</g>
<!-- Node12 -->
<g id="node12" class="node">
<title>Node12</title>
<g id="a_node12"><a xlink:href="../../d4/d9c/Smear_8h.html" target="_top" xlink:title="eicsmear/smear/Smear.h">
<polygon fill="none" stroke="#000000" points="981,-399.5 981,-419.5 1123,-419.5 1123,-399.5 981,-399.5"/>
<text text-anchor="middle" x="1052" y="-406.5" font-family="FreeSans" font-size="10.00" fill="#000000">eicsmear/smear/Smear.h</text>
</a>
</g>
</g>
<!-- Node7&#45;&gt;Node12 -->
<g id="edge11" class="edge">
<title>Node7&#45;&gt;Node12</title>
<path fill="none" stroke="#191970" d="M431.6891,-459.6528C568.4333,-448.5969 836.098,-426.9559 970.6658,-416.076"/>
<polygon fill="#191970" stroke="#191970" points="971.2221,-419.5425 980.9075,-415.2479 970.6579,-412.5653 971.2221,-419.5425"/>
</g>
<!-- Node12&#45;&gt;Node2 -->
<g id="edge53" class="edge">
<title>Node12&#45;&gt;Node2</title>
<path fill="none" stroke="#191970" d="M1123.2029,-407.8834C1251.6897,-404.2249 1511.5948,-393.1466 1539,-363 1568.0769,-331.0146 1526.2507,-195.6662 1508.9235,-144.343"/>
<polygon fill="#191970" stroke="#191970" points="1512.1838,-143.0602 1505.6322,-134.7339 1505.5615,-145.3285 1512.1838,-143.0602"/>
</g>
<!-- Node12&#45;&gt;Node3 -->
<g id="edge19" class="edge">
<title>Node12&#45;&gt;Node3</title>
<path fill="none" stroke="#191970" d="M980.8218,-405.3119C881.0979,-398.7071 709.8052,-384.3828 691,-363 679.5807,-350.0154 586.9039,-246.7939 706,-114 732.3412,-84.6292 839.5893,-73.7662 909.0226,-69.7788"/>
<polygon fill="#191970" stroke="#191970" points="909.6042,-73.2525 919.4006,-69.2175 909.2261,-66.2627 909.6042,-73.2525"/>
</g>
<!-- Node12&#45;&gt;Node11 -->
<g id="edge20" class="edge">
<title>Node12&#45;&gt;Node11</title>
<path fill="none" stroke="#191970" d="M980.6583,-405.9274C891.5085,-400.658 734.2321,-388.7107 590.1784,-362.7409"/>
<polygon fill="#191970" stroke="#191970" points="590.7372,-359.2851 580.2706,-360.9285 589.4775,-366.1708 590.7372,-359.2851"/>
</g>
<!-- Node13 -->
<g id="node13" class="node">
<title>Node13</title>
<polygon fill="none" stroke="#bfbfbf" points="1311,-228.5 1311,-248.5 1359,-248.5 1359,-228.5 1311,-228.5"/>
<text text-anchor="middle" x="1335" y="-235.5" font-family="FreeSans" font-size="10.00" fill="#000000">cmath</text>
</g>
<!-- Node12&#45;&gt;Node13 -->
<g id="edge12" class="edge">
<title>Node12&#45;&gt;Node13</title>
<path fill="none" stroke="#191970" d="M1052.3108,-399.4729C1053.2854,-385 1057.1336,-358.2173 1072,-342 1133.6763,-274.7191 1244.577,-250.5681 1300.6057,-242.3915"/>
<polygon fill="#191970" stroke="#191970" points="1301.2959,-245.8297 1310.7271,-241.0024 1300.344,-238.8947 1301.2959,-245.8297"/>
</g>
<!-- Node14 -->
<g id="node14" class="node">
<title>Node14</title>
<polygon fill="none" stroke="#bfbfbf" points="1080.5,-342.5 1080.5,-362.5 1135.5,-362.5 1135.5,-342.5 1080.5,-342.5"/>
<text text-anchor="middle" x="1108" y="-349.5" font-family="FreeSans" font-size="10.00" fill="#000000">fstream</text>
</g>
<!-- Node12&#45;&gt;Node14 -->
<g id="edge13" class="edge">
<title>Node12&#45;&gt;Node14</title>
<path fill="none" stroke="#191970" d="M1062.0117,-399.3095C1070.0547,-391.1229 1081.5317,-379.441 1091.008,-369.7955"/>
<polygon fill="#191970" stroke="#191970" points="1093.5634,-372.1885 1098.075,-362.6022 1088.5701,-367.2827 1093.5634,-372.1885"/>
</g>
<!-- Node15 -->
<g id="node15" class="node">
<title>Node15</title>
<polygon fill="none" stroke="#bfbfbf" points="1154,-342.5 1154,-362.5 1214,-362.5 1214,-342.5 1154,-342.5"/>
<text text-anchor="middle" x="1184" y="-349.5" font-family="FreeSans" font-size="10.00" fill="#000000">iostream</text>
</g>
<!-- Node12&#45;&gt;Node15 -->
<g id="edge14" class="edge">
<title>Node12&#45;&gt;Node15</title>
<path fill="none" stroke="#191970" d="M1075.2951,-399.4408C1096.3714,-390.3396 1127.6299,-376.8416 1151.2245,-366.6531"/>
<polygon fill="#191970" stroke="#191970" points="1152.7007,-369.8281 1160.4938,-362.6504 1149.9256,-363.4016 1152.7007,-369.8281"/>
</g>
<!-- Node16 -->
<g id="node16" class="node">
<title>Node16</title>
<polygon fill="none" stroke="#bfbfbf" points="1232,-342.5 1232,-362.5 1290,-362.5 1290,-342.5 1232,-342.5"/>
<text text-anchor="middle" x="1261" y="-349.5" font-family="FreeSans" font-size="10.00" fill="#000000">memory</text>
</g>
<!-- Node12&#45;&gt;Node16 -->
<g id="edge15" class="edge">
<title>Node12&#45;&gt;Node16</title>
<path fill="none" stroke="#191970" d="M1089.038,-399.475C1121.6519,-390.6371 1170.6933,-377.3223 1222.2955,-363.1863"/>
<polygon fill="#191970" stroke="#191970" points="1223.2382,-366.5571 1231.9572,-360.5381 1221.3877,-359.8061 1223.2382,-366.5571"/>
</g>
<!-- Node17 -->
<g id="node17" class="node">
<title>Node17</title>
<polygon fill="none" stroke="#bfbfbf" points="1308,-342.5 1308,-362.5 1364,-362.5 1364,-342.5 1308,-342.5"/>
<text text-anchor="middle" x="1336" y="-349.5" font-family="FreeSans" font-size="10.00" fill="#000000">sstream</text>
</g>
<!-- Node12&#45;&gt;Node17 -->
<g id="edge16" class="edge">
<title>Node12&#45;&gt;Node17</title>
<path fill="none" stroke="#191970" d="M1113.7362,-399.4729C1161.5471,-391.3433 1229.6085,-378.9806 1297.7371,-363.151"/>
<polygon fill="#191970" stroke="#191970" points="1298.8522,-366.4844 1307.7869,-360.7904 1297.2515,-359.6699 1298.8522,-366.4844"/>
</g>
<!-- Node18 -->
<g id="node18" class="node">
<title>Node18</title>
<polygon fill="none" stroke="#bfbfbf" points="598.5,-342.5 598.5,-362.5 643.5,-362.5 643.5,-342.5 598.5,-342.5"/>
<text text-anchor="middle" x="621" y="-349.5" font-family="FreeSans" font-size="10.00" fill="#000000">TF1.h</text>
</g>
<!-- Node12&#45;&gt;Node18 -->
<g id="edge17" class="edge">
<title>Node12&#45;&gt;Node18</title>
<path fill="none" stroke="#191970" d="M980.6471,-404.5111C901.308,-398.1699 769.6187,-385.2773 658,-363 656.5267,-362.7059 655.0265,-362.3825 653.5156,-362.037"/>
<polygon fill="#191970" stroke="#191970" points="654.1124,-358.5778 643.5593,-359.5172 652.3948,-365.3638 654.1124,-358.5778"/>
</g>
<!-- Node19 -->
<g id="node19" class="node">
<title>Node19</title>
<polygon fill="none" stroke="#bfbfbf" points="1624.5,-342.5 1624.5,-362.5 1669.5,-362.5 1669.5,-342.5 1624.5,-342.5"/>
<text text-anchor="middle" x="1647" y="-349.5" font-family="FreeSans" font-size="10.00" fill="#000000">TF2.h</text>
</g>
<!-- Node12&#45;&gt;Node19 -->
<g id="edge18" class="edge">
<title>Node12&#45;&gt;Node19</title>
<path fill="none" stroke="#191970" d="M1123.0424,-407.9686C1229.6255,-404.6849 1436.8858,-394.4707 1610,-363 1611.4782,-362.7313 1612.9823,-362.4287 1614.4964,-362.1003"/>
<polygon fill="#191970" stroke="#191970" points="1615.5932,-365.4348 1624.4647,-359.6428 1613.9176,-358.6382 1615.5932,-365.4348"/>
</g>
<!-- Node20 -->
<g id="node20" class="node">
<title>Node20</title>
<polygon fill="none" stroke="#bfbfbf" points="1687.5,-342.5 1687.5,-362.5 1768.5,-362.5 1768.5,-342.5 1687.5,-342.5"/>
<text text-anchor="middle" x="1728" y="-349.5" font-family="FreeSans" font-size="10.00" fill="#000000">TRandom3.h</text>
</g>
<!-- Node12&#45;&gt;Node20 -->
<g id="edge21" class="edge">
<title>Node12&#45;&gt;Node20</title>
<path fill="none" stroke="#191970" d="M1123.3356,-407.3911C1238.1619,-403.296 1471.1811,-392.0977 1677.329,-363.0804"/>
<polygon fill="#191970" stroke="#191970" points="1678.0289,-366.5161 1687.4351,-361.6403 1677.0414,-359.5861 1678.0289,-366.5161"/>
</g>
<!-- Node21 -->
<g id="node21" class="node">
<title>Node21</title>
<polygon fill="none" stroke="#bfbfbf" points="1382,-342.5 1382,-362.5 1442,-362.5 1442,-342.5 1382,-342.5"/>
<text text-anchor="middle" x="1412" y="-349.5" font-family="FreeSans" font-size="10.00" fill="#000000">TROOT.h</text>
</g>
<!-- Node12&#45;&gt;Node21 -->
<g id="edge22" class="edge">
<title>Node12&#45;&gt;Node21</title>
<path fill="none" stroke="#191970" d="M1123.1861,-401.6561C1186.2191,-394.1478 1280.8552,-381.5046 1371.9135,-363.0393"/>
<polygon fill="#191970" stroke="#191970" points="1372.7603,-366.4385 1381.8513,-360.9976 1371.3515,-359.5817 1372.7603,-366.4385"/>
</g>
<!-- Node22 -->
<g id="node22" class="node">
<title>Node22</title>
<polygon fill="none" stroke="#bfbfbf" points="440.5,-342.5 440.5,-362.5 503.5,-362.5 503.5,-342.5 440.5,-342.5"/>
<text text-anchor="middle" x="472" y="-349.5" font-family="FreeSans" font-size="10.00" fill="#000000">TString.h</text>
</g>
<!-- Node12&#45;&gt;Node22 -->
<g id="edge23" class="edge">
<title>Node12&#45;&gt;Node22</title>
<path fill="none" stroke="#191970" d="M980.8975,-407.0938C879.3032,-402.8305 686.7205,-391.6896 513.7253,-362.8597"/>
<polygon fill="#191970" stroke="#191970" points="514.1168,-359.3763 503.6733,-361.1606 512.9501,-366.2784 514.1168,-359.3763"/>
</g>
<!-- Node23 -->
<g id="node23" class="node">
<title>Node23</title>
<polygon fill="none" stroke="#bfbfbf" points="1460,-342.5 1460,-362.5 1530,-362.5 1530,-342.5 1460,-342.5"/>
<text text-anchor="middle" x="1495" y="-349.5" font-family="FreeSans" font-size="10.00" fill="#000000">TSystem.h</text>
</g>
<!-- Node12&#45;&gt;Node23 -->
<g id="edge24" class="edge">
<title>Node12&#45;&gt;Node23</title>
<path fill="none" stroke="#191970" d="M1123.0014,-403.7788C1200.8883,-396.9277 1329.7193,-383.9086 1449.4582,-363.1161"/>
<polygon fill="#191970" stroke="#191970" points="1450.2912,-366.5234 1459.5337,-361.344 1449.0786,-359.6292 1450.2912,-366.5234"/>
</g>
<!-- Node24 -->
<g id="node24" class="node">
<title>Node24</title>
<polygon fill="none" stroke="#bfbfbf" points="952.5,-342.5 952.5,-362.5 1023.5,-362.5 1023.5,-342.5 952.5,-342.5"/>
<text text-anchor="middle" x="988" y="-349.5" font-family="FreeSans" font-size="10.00" fill="#000000">TVector2.h</text>
</g>
<!-- Node12&#45;&gt;Node24 -->
<g id="edge25" class="edge">
<title>Node12&#45;&gt;Node24</title>
<path fill="none" stroke="#191970" d="M1040.5581,-399.3095C1031.2751,-391.0419 1017.9894,-379.2093 1007.0985,-369.5096"/>
<polygon fill="#191970" stroke="#191970" points="1009.1384,-366.6395 999.3429,-362.6022 1004.4827,-371.8668 1009.1384,-366.6395"/>
</g>
<!-- Node25 -->
<g id="node25" class="node">
<title>Node25</title>
<g id="a_node25"><a xlink:href="../../dd/d12/Kinematics_8h.html" target="_top" xlink:title="eicsmear/erhic/Kinematics.h">
<polygon fill="none" stroke="#000000" points="699.5,-342.5 699.5,-362.5 858.5,-362.5 858.5,-342.5 699.5,-342.5"/>
<text text-anchor="middle" x="779" y="-349.5" font-family="FreeSans" font-size="10.00" fill="#000000">eicsmear/erhic/Kinematics.h</text>
</a>
</g>
</g>
<!-- Node12&#45;&gt;Node25 -->
<g id="edge26" class="edge">
<title>Node12&#45;&gt;Node25</title>
<path fill="none" stroke="#191970" d="M1003.8215,-399.4408C957.2795,-389.7232 886.7299,-374.9931 837.1002,-364.6308"/>
<polygon fill="#191970" stroke="#191970" points="837.6595,-361.1722 827.1552,-362.5544 836.2288,-368.0244 837.6595,-361.1722"/>
</g>
<!-- Node30 -->
<g id="node30" class="node">
<title>Node30</title>
<g id="a_node30"><a xlink:href="../../df/d17/ParticleIdentifier_8h.html" target="_top" xlink:title="eicsmear/erhic/ParticleIdentifier.h">
<polygon fill="none" stroke="#000000" points="863.5,-285.5 863.5,-305.5 1048.5,-305.5 1048.5,-285.5 863.5,-285.5"/>
<text text-anchor="middle" x="956" y="-292.5" font-family="FreeSans" font-size="10.00" fill="#000000">eicsmear/erhic/ParticleIdentifier.h</text>
</a>
</g>
</g>
<!-- Node12&#45;&gt;Node30 -->
<g id="edge52" class="edge">
<title>Node12&#45;&gt;Node30</title>
<path fill="none" stroke="#191970" d="M1001.2864,-399.4434C965.1271,-391.1235 921.0371,-378.228 910,-363 897.5555,-345.8302 915.3432,-325.6887 932.2912,-311.9051"/>
<polygon fill="#191970" stroke="#191970" points="934.5957,-314.5487 940.4075,-305.6902 930.3399,-308.991 934.5957,-314.5487"/>
</g>
<!-- Node33 -->
<g id="node33" class="node">
<title>Node33</title>
<g id="a_node33"><a xlink:href="../../db/d8e/Particle_8h.html" target="_top" xlink:title="eicsmear/erhic/Particle.h">
<polygon fill="none" stroke="#000000" points="964,-228.5 964,-248.5 1104,-248.5 1104,-228.5 964,-228.5"/>
<text text-anchor="middle" x="1034" y="-235.5" font-family="FreeSans" font-size="10.00" fill="#000000">eicsmear/erhic/Particle.h</text>
</a>
</g>
</g>
<!-- Node12&#45;&gt;Node33 -->
<g id="edge51" class="edge">
<title>Node12&#45;&gt;Node33</title>
<path fill="none" stroke="#191970" d="M998.1661,-399.4968C977.6288,-392.7755 956.2336,-381.5866 944,-363 938.8686,-355.2038 938.4828,-349.528 944,-342 975.4085,-299.1442 1026.5915,-348.8558 1058,-306 1068.8375,-291.2126 1059.2372,-271.0747 1049.1422,-256.6509"/>
<polygon fill="#191970" stroke="#191970" points="1051.8004,-254.3635 1042.9711,-248.5073 1046.2213,-258.5913 1051.8004,-254.3635"/>
</g>
<!-- Node12&#45;&gt;Node36 -->
<g id="edge54" class="edge">
<title>Node12&#45;&gt;Node36</title>
<path fill="none" stroke="#191970" d="M1123.1272,-405.5255C1255.8651,-397.7591 1531.5828,-379.8514 1572,-363 1598.138,-352.1021 1622.0984,-329.4595 1636.8467,-313.4092"/>
<polygon fill="#191970" stroke="#191970" points="1639.6578,-315.5148 1643.6822,-305.714 1634.4243,-310.866 1639.6578,-315.5148"/>
</g>
<!-- Node25&#45;&gt;Node2 -->
<g id="edge50" class="edge">
<title>Node25&#45;&gt;Node2</title>
<path fill="none" stroke="#191970" d="M858.506,-344.0359C914.9001,-336.8776 991.9834,-324.7407 1058,-306 1079.1991,-299.982 1368.9681,-179.7977 1468.6196,-138.3832"/>
<polygon fill="#191970" stroke="#191970" points="1470.0347,-141.5854 1477.9253,-134.5151 1467.3478,-135.1216 1470.0347,-141.5854"/>
</g>
<!-- Node25&#45;&gt;Node3 -->
<g id="edge30" class="edge">
<title>Node25&#45;&gt;Node3</title>
<path fill="none" stroke="#191970" d="M783.3877,-342.1469C789.2606,-328.6435 800.3018,-304.4501 812,-285 858.7667,-207.2433 925.6253,-122.1485 955.087,-85.7061"/>
<polygon fill="#191970" stroke="#191970" points="957.833,-87.8768 961.4221,-77.9084 952.4,-83.4629 957.833,-87.8768"/>
</g>
<!-- Node25&#45;&gt;Node6 -->
<g id="edge29" class="edge">
<title>Node25&#45;&gt;Node6</title>
<path fill="none" stroke="#191970" d="M770.2673,-342.4535C741.1466,-307.6939 652.166,-190.4877 706,-114 759.7056,-37.6948 1060.9789,-17.0271 1170.8773,-11.9856"/>
<polygon fill="#191970" stroke="#191970" points="1171.0637,-15.4809 1180.9004,-11.5452 1170.7564,-8.4877 1171.0637,-15.4809"/>
</g>
<!-- Node25&#45;&gt;Node9 -->
<g id="edge28" class="edge">
<title>Node25&#45;&gt;Node9</title>
<path fill="none" stroke="#191970" d="M752.9422,-342.4416C676.9419,-313.1051 455.5226,-227.6363 370.1361,-194.6767"/>
<polygon fill="#191970" stroke="#191970" points="371.2405,-191.3514 360.651,-191.0154 368.7197,-197.8817 371.2405,-191.3514"/>
</g>
<!-- Node26 -->
<g id="node26" class="node">
<title>Node26</title>
<polygon fill="none" stroke="#bfbfbf" points="485,-285.5 485,-305.5 517,-305.5 517,-285.5 485,-285.5"/>
<text text-anchor="middle" x="501" y="-292.5" font-family="FreeSans" font-size="10.00" fill="#000000">list</text>
</g>
<!-- Node25&#45;&gt;Node26 -->
<g id="edge27" class="edge">
<title>Node25&#45;&gt;Node26</title>
<path fill="none" stroke="#191970" d="M729.9391,-342.4408C670.6486,-330.2841 573.0976,-310.2826 526.858,-300.8018"/>
<polygon fill="#191970" stroke="#191970" points="527.5282,-297.3665 517.0289,-298.7865 526.1221,-304.2238 527.5282,-297.3665"/>
</g>
<!-- Node27 -->
<g id="node27" class="node">
<title>Node27</title>
<g id="a_node27"><a xlink:href="../../db/d19/erhic_2ParticleMC_8h.html" target="_top" xlink:title="eicsmear/erhic/ParticleMC.h">
<polygon fill="none" stroke="#000000" points="948,-171.5 948,-191.5 1104,-191.5 1104,-171.5 948,-171.5"/>
<text text-anchor="middle" x="1026" y="-178.5" font-family="FreeSans" font-size="10.00" fill="#000000">eicsmear/erhic/ParticleMC.h</text>
</a>
</g>
</g>
<!-- Node25&#45;&gt;Node27 -->
<g id="edge31" class="edge">
<title>Node25&#45;&gt;Node27</title>
<path fill="none" stroke="#191970" d="M785.7147,-342.2191C801.59,-318.6826 843.8192,-260.4236 893,-228 916.3474,-212.6077 945.3664,-201.6895 970.3352,-194.3191"/>
<polygon fill="#191970" stroke="#191970" points="971.3743,-197.6625 980.0417,-191.5694 969.4663,-190.9276 971.3743,-197.6625"/>
</g>
<!-- Node25&#45;&gt;Node30 -->
<g id="edge38" class="edge">
<title>Node25&#45;&gt;Node30</title>
<path fill="none" stroke="#191970" d="M810.2366,-342.4408C839.3412,-333.0681 882.926,-319.0323 914.8547,-308.7502"/>
<polygon fill="#191970" stroke="#191970" points="916.3327,-311.9513 924.7785,-305.5544 914.187,-305.2883 916.3327,-311.9513"/>
</g>
<!-- Node27&#45;&gt;Node2 -->
<g id="edge37" class="edge">
<title>Node27&#45;&gt;Node2</title>
<path fill="none" stroke="#191970" d="M1104.0687,-172.1514C1187.3683,-162.1765 1319.3162,-146.376 1408.1988,-135.7325"/>
<polygon fill="#191970" stroke="#191970" points="1408.7652,-139.1898 1418.2781,-134.5255 1407.9329,-132.2394 1408.7652,-139.1898"/>
</g>
<!-- Node27&#45;&gt;Node3 -->
<g id="edge33" class="edge">
<title>Node27&#45;&gt;Node3</title>
<path fill="none" stroke="#191970" d="M1023.4518,-171.0633C1019.9098,-157.4697 1012.8097,-133.1787 1003,-114 997.968,-104.1622 991.0501,-94.0627 984.8477,-85.8002"/>
<polygon fill="#191970" stroke="#191970" points="987.4195,-83.4056 978.5212,-77.6549 981.8911,-87.6995 987.4195,-83.4056"/>
</g>
<!-- Node27&#45;&gt;Node4 -->
<g id="edge35" class="edge">
<title>Node27&#45;&gt;Node4</title>
<path fill="none" stroke="#191970" d="M1055.2597,-171.4832C1115.19,-150.9665 1251.9391,-104.1515 1319.5956,-80.9898"/>
<polygon fill="#191970" stroke="#191970" points="1321.1217,-84.1668 1329.449,-77.6165 1318.8545,-77.5442 1321.1217,-84.1668"/>
</g>
<!-- Node27&#45;&gt;Node5 -->
<g id="edge36" class="edge">
<title>Node27&#45;&gt;Node5</title>
<path fill="none" stroke="#191970" d="M1066.946,-171.4832C1152.125,-150.6454 1348.1956,-102.6796 1441.2312,-79.9198"/>
<polygon fill="#191970" stroke="#191970" points="1442.0985,-83.3109 1450.9804,-77.5348 1440.4351,-76.5115 1442.0985,-83.3109"/>
</g>
<!-- Node28 -->
<g id="node28" class="node">
<title>Node28</title>
<polygon fill="none" stroke="#bfbfbf" points="948.5,-114.5 948.5,-134.5 993.5,-134.5 993.5,-114.5 948.5,-114.5"/>
<text text-anchor="middle" x="971" y="-121.5" font-family="FreeSans" font-size="10.00" fill="#000000">string</text>
</g>
<!-- Node27&#45;&gt;Node28 -->
<g id="edge32" class="edge">
<title>Node27&#45;&gt;Node28</title>
<path fill="none" stroke="#191970" d="M1016.1671,-171.3095C1008.346,-163.204 997.2185,-151.672 987.9656,-142.0826"/>
<polygon fill="#191970" stroke="#191970" points="990.2102,-139.3681 980.7478,-134.6022 985.1728,-144.2288 990.2102,-139.3681"/>
</g>
<!-- Node29 -->
<g id="node29" class="node">
<title>Node29</title>
<polygon fill="none" stroke="#bfbfbf" points="1050,-114.5 1050,-134.5 1098,-134.5 1098,-114.5 1050,-114.5"/>
<text text-anchor="middle" x="1074" y="-121.5" font-family="FreeSans" font-size="10.00" fill="#000000">TRef.h</text>
</g>
<!-- Node27&#45;&gt;Node29 -->
<g id="edge34" class="edge">
<title>Node27&#45;&gt;Node29</title>
<path fill="none" stroke="#191970" d="M1034.5814,-171.3095C1041.3389,-163.2851 1050.9244,-151.9022 1058.9509,-142.3708"/>
<polygon fill="#191970" stroke="#191970" points="1061.7287,-144.5059 1065.4929,-134.6022 1056.3743,-139.9969 1061.7287,-144.5059"/>
</g>
<!-- Node30&#45;&gt;Node9 -->
<g id="edge41" class="edge">
<title>Node30&#45;&gt;Node9</title>
<path fill="none" stroke="#191970" d="M918.7452,-285.4701C852.638,-267.7146 719.7024,-232.2148 698,-228 578.9791,-204.8849 435.6393,-190.3458 370.8301,-184.4765"/>
<polygon fill="#191970" stroke="#191970" points="371.0258,-180.9801 360.7542,-183.5769 370.4033,-187.9524 371.0258,-180.9801"/>
</g>
<!-- Node30&#45;&gt;Node13 -->
<g id="edge39" class="edge">
<title>Node30&#45;&gt;Node13</title>
<path fill="none" stroke="#191970" d="M1022.8852,-285.4408C1104.0428,-273.235 1237.783,-253.121 1300.5073,-243.6876"/>
<polygon fill="#191970" stroke="#191970" points="1301.2882,-247.1096 1310.6564,-242.1612 1300.2471,-240.1874 1301.2882,-247.1096"/>
</g>
<!-- Node31 -->
<g id="node31" class="node">
<title>Node31</title>
<polygon fill="none" stroke="#bfbfbf" points="902,-228.5 902,-248.5 946,-248.5 946,-228.5 902,-228.5"/>
<text text-anchor="middle" x="924" y="-235.5" font-family="FreeSans" font-size="10.00" fill="#000000">limits</text>
</g>
<!-- Node30&#45;&gt;Node31 -->
<g id="edge40" class="edge">
<title>Node30&#45;&gt;Node31</title>
<path fill="none" stroke="#191970" d="M950.279,-285.3095C945.9561,-277.6093 939.897,-266.8166 934.6862,-257.5349"/>
<polygon fill="#191970" stroke="#191970" points="937.6188,-255.6087 929.6714,-248.6022 931.5149,-259.0355 937.6188,-255.6087"/>
</g>
<!-- Node32 -->
<g id="node32" class="node">
<title>Node32</title>
<g id="a_node32"><a xlink:href="../../d3/d7d/BeamParticles_8h.html" target="_top" xlink:title="eicsmear/erhic/BeamParticles.h">
<polygon fill="none" stroke="#000000" points="714.5,-114.5 714.5,-134.5 889.5,-134.5 889.5,-114.5 714.5,-114.5"/>
<text text-anchor="middle" x="802" y="-121.5" font-family="FreeSans" font-size="10.00" fill="#000000">eicsmear/erhic/BeamParticles.h</text>
</a>
</g>
</g>
<!-- Node30&#45;&gt;Node32 -->
<g id="edge42" class="edge">
<title>Node30&#45;&gt;Node32</title>
<path fill="none" stroke="#191970" d="M939.6713,-285.4442C926.2868,-276.753 907.2892,-263.356 893,-249 859.6723,-215.5167 829.0538,-169.0408 813.2441,-143.3919"/>
<polygon fill="#191970" stroke="#191970" points="816.1182,-141.3817 807.9352,-134.6519 810.1355,-145.0158 816.1182,-141.3817"/>
</g>
<!-- Node30&#45;&gt;Node33 -->
<g id="edge45" class="edge">
<title>Node30&#45;&gt;Node33</title>
<path fill="none" stroke="#191970" d="M969.9448,-285.3095C981.5912,-276.7987 998.4071,-264.5102 1011.8872,-254.6594"/>
<polygon fill="#191970" stroke="#191970" points="1014.167,-257.3283 1020.1759,-248.6022 1010.0369,-251.6766 1014.167,-257.3283"/>
</g>
<!-- Node34 -->
<g id="node34" class="node">
<title>Node34</title>
<g id="a_node34"><a xlink:href="../../d4/dc7/VirtualEvent_8h.html" target="_top" xlink:title="eicsmear/erhic/VirtualEvent.h">
<polygon fill="none" stroke="#000000" points="104.5,-228.5 104.5,-248.5 269.5,-248.5 269.5,-228.5 104.5,-228.5"/>
<text text-anchor="middle" x="187" y="-235.5" font-family="FreeSans" font-size="10.00" fill="#000000">eicsmear/erhic/VirtualEvent.h</text>
</a>
</g>
</g>
<!-- Node30&#45;&gt;Node34 -->
<g id="edge47" class="edge">
<title>Node30&#45;&gt;Node34</title>
<path fill="none" stroke="#191970" d="M863.2406,-288.6245C715.3885,-277.6653 427.9183,-256.3574 279.9477,-245.3895"/>
<polygon fill="#191970" stroke="#191970" points="279.7702,-241.8668 269.5388,-244.618 279.2527,-248.8477 279.7702,-241.8668"/>
</g>
<!-- Node32&#45;&gt;Node3 -->
<g id="edge44" class="edge">
<title>Node32&#45;&gt;Node3</title>
<path fill="none" stroke="#191970" d="M831.6483,-114.4408C859.1534,-105.1087 900.2837,-91.1537 930.5527,-80.8839"/>
<polygon fill="#191970" stroke="#191970" points="932.0208,-84.0818 940.366,-77.5544 929.7717,-77.453 932.0208,-84.0818"/>
</g>
<!-- Node32&#45;&gt;Node6 -->
<g id="edge43" class="edge">
<title>Node32&#45;&gt;Node6</title>
<path fill="none" stroke="#191970" d="M814.5331,-114.3617C833.9412,-99.2379 873.0035,-71.0475 911,-57 957.9036,-39.6595 1100.1064,-22.4769 1170.5573,-14.7458"/>
<polygon fill="#191970" stroke="#191970" points="1171.2538,-18.1909 1180.8172,-13.6312 1170.4977,-11.2318 1171.2538,-18.1909"/>
</g>
<!-- Node33&#45;&gt;Node27 -->
<g id="edge46" class="edge">
<title>Node33&#45;&gt;Node27</title>
<path fill="none" stroke="#191970" d="M1032.5698,-228.3095C1031.5345,-220.9335 1030.101,-210.72 1028.8372,-201.715"/>
<polygon fill="#191970" stroke="#191970" points="1032.2739,-201.0187 1027.4179,-191.6022 1025.3418,-201.9917 1032.2739,-201.0187"/>
</g>
<!-- Node34&#45;&gt;Node9 -->
<g id="edge49" class="edge">
<title>Node34&#45;&gt;Node9</title>
<path fill="none" stroke="#191970" d="M213.2952,-228.4408C237.9984,-218.9906 275.0936,-204.7998 302.0285,-194.4958"/>
<polygon fill="#191970" stroke="#191970" points="303.3611,-197.7334 311.4505,-190.8914 300.86,-191.1955 303.3611,-197.7334"/>
</g>
<!-- Node35 -->
<g id="node35" class="node">
<title>Node35</title>
<polygon fill="none" stroke="#bfbfbf" points="43.5,-171.5 43.5,-191.5 108.5,-191.5 108.5,-171.5 43.5,-171.5"/>
<text text-anchor="middle" x="76" y="-178.5" font-family="FreeSans" font-size="10.00" fill="#000000">TObject.h</text>
</g>
<!-- Node34&#45;&gt;Node35 -->
<g id="edge48" class="edge">
<title>Node34&#45;&gt;Node35</title>
<path fill="none" stroke="#191970" d="M167.4109,-228.4408C150.0815,-219.5419 124.5662,-206.4394 104.8934,-196.3371"/>
<polygon fill="#191970" stroke="#191970" points="106.2611,-193.105 95.7666,-191.6504 103.0634,-199.332 106.2611,-193.105"/>
</g>
<!-- Node36&#45;&gt;Node2 -->
<g id="edge58" class="edge">
<title>Node36&#45;&gt;Node2</title>
<path fill="none" stroke="#191970" d="M1643.066,-285.3153C1618.4256,-257.2251 1549.2545,-178.3701 1517.8573,-142.5773"/>
<polygon fill="#191970" stroke="#191970" points="1520.3024,-140.0571 1511.0768,-134.8476 1515.0401,-144.6732 1520.3024,-140.0571"/>
</g>
<!-- Node36&#45;&gt;Node3 -->
<g id="edge56" class="edge">
<title>Node36&#45;&gt;Node3</title>
<path fill="none" stroke="#191970" d="M1621.8153,-285.4089C1512.0068,-248.6987 1133.7506,-122.2436 1009.7282,-80.7816"/>
<polygon fill="#191970" stroke="#191970" points="1010.8157,-77.4548 1000.2219,-77.6035 1008.5962,-84.0936 1010.8157,-77.4548"/>
</g>
<!-- Node36&#45;&gt;Node5 -->
<g id="edge57" class="edge">
<title>Node36&#45;&gt;Node5</title>
<path fill="none" stroke="#191970" d="M1651.8368,-285.4673C1650.8247,-255.5808 1643.911,-166 1598,-114 1584.3521,-98.542 1564.6145,-88.0051 1545.8619,-80.9279"/>
<polygon fill="#191970" stroke="#191970" points="1546.7776,-77.5401 1536.1828,-77.5345 1544.4617,-84.1459 1546.7776,-77.5401"/>
</g>
<!-- Node36&#45;&gt;Node13 -->
<g id="edge55" class="edge">
<title>Node36&#45;&gt;Node13</title>
<path fill="none" stroke="#191970" d="M1596.0565,-285.4408C1530.4026,-273.6355 1423.607,-254.4325 1369.2026,-244.65"/>
<polygon fill="#191970" stroke="#191970" points="1369.5096,-241.1491 1359.048,-242.8241 1368.2707,-248.0387 1369.5096,-241.1491"/>
</g>
<!-- Node37&#45;&gt;Node7 -->
<g id="edge67" class="edge">
<title>Node37&#45;&gt;Node7</title>
<path fill="none" stroke="#191970" d="M873.3124,-577.5681C789.9347,-573.0044 649.5817,-561.6368 532,-534 476.632,-520.9861 415.1005,-496.3813 378.7976,-480.7458"/>
<polygon fill="#191970" stroke="#191970" points="379.8193,-477.3734 369.2535,-476.5907 377.0251,-483.7915 379.8193,-477.3734"/>
</g>
<!-- Node37&#45;&gt;Node9 -->
<g id="edge61" class="edge">
<title>Node37&#45;&gt;Node9</title>
<path fill="none" stroke="#191970" d="M911.7609,-570.4813C882.7577,-561.7118 840.2335,-548.1854 804,-534 761.5455,-517.3791 464.0712,-394.3837 431,-363 381.6686,-316.1858 353.0297,-238.0426 341.6944,-201.4918"/>
<polygon fill="#191970" stroke="#191970" points="344.9446,-200.1439 338.7283,-191.5644 338.2376,-202.1479 344.9446,-200.1439"/>
</g>
<!-- Node37&#45;&gt;Node12 -->
<g id="edge70" class="edge">
<title>Node37&#45;&gt;Node12</title>
<path fill="none" stroke="#191970" d="M952.3133,-570.3153C969.579,-542.4622 1017.7841,-464.6974 1040.2268,-428.4926"/>
<polygon fill="#191970" stroke="#191970" points="1043.2918,-430.1911 1045.5857,-419.8476 1037.3422,-426.503 1043.2918,-430.1911"/>
</g>
<!-- Node37&#45;&gt;Node13 -->
<g id="edge60" class="edge">
<title>Node37&#45;&gt;Node13</title>
<path fill="none" stroke="#191970" d="M1018.7694,-572.7281C1203.8361,-551.3106 1684.4328,-484.8004 1778,-363 1819.9158,-308.4364 1851.3839,-373.7834 1559,-306 1490.5405,-290.129 1412.2973,-264.8775 1368.7677,-250.1754"/>
<polygon fill="#191970" stroke="#191970" points="1369.8428,-246.8442 1359.2484,-246.9411 1367.5909,-253.4721 1369.8428,-246.8442"/>
</g>
<!-- Node37&#45;&gt;Node18 -->
<g id="edge63" class="edge">
<title>Node37&#45;&gt;Node18</title>
<path fill="none" stroke="#191970" d="M938.4909,-570.2133C915.6361,-539.6173 843.5477,-448.2592 763,-399 753.4519,-393.1608 692.2445,-374.0622 653.3674,-362.2351"/>
<polygon fill="#191970" stroke="#191970" points="654.1182,-358.8054 643.5329,-359.2533 652.0871,-365.5043 654.1182,-358.8054"/>
</g>
<!-- Node37&#45;&gt;Node19 -->
<g id="edge64" class="edge">
<title>Node37&#45;&gt;Node19</title>
<path fill="none" stroke="#191970" d="M977.0256,-570.4089C1092.5116,-532.8472 1496.8741,-401.3284 1614.608,-363.0355"/>
<polygon fill="#191970" stroke="#191970" points="1616.0418,-366.2497 1624.4689,-359.8282 1613.8767,-359.5929 1616.0418,-366.2497"/>
</g>
<!-- Node37&#45;&gt;Node20 -->
<g id="edge65" class="edge">
<title>Node37&#45;&gt;Node20</title>
<path fill="none" stroke="#191970" d="M1018.7855,-578.5856C1204.7174,-573.3607 1684.302,-557.6479 1709,-534 1753.1558,-491.7217 1741.543,-410.0658 1733.1449,-372.4101"/>
<polygon fill="#191970" stroke="#191970" points="1736.5354,-371.539 1730.8086,-362.6253 1729.7267,-373.1648 1736.5354,-371.539"/>
</g>
<!-- Node37&#45;&gt;Node22 -->
<g id="edge66" class="edge">
<title>Node37&#45;&gt;Node22</title>
<path fill="none" stroke="#191970" d="M925.0212,-570.4089C849.4681,-534.0669 591.064,-409.7713 502.2583,-367.0546"/>
<polygon fill="#191970" stroke="#191970" points="503.5335,-363.7842 493.0047,-362.6035 500.4992,-370.0924 503.5335,-363.7842"/>
</g>
<!-- Node38 -->
<g id="node38" class="node">
<title>Node38</title>
<polygon fill="none" stroke="#bfbfbf" points="1576.5,-513.5 1576.5,-533.5 1699.5,-533.5 1699.5,-513.5 1576.5,-513.5"/>
<text text-anchor="middle" x="1638" y="-520.5" font-family="FreeSans" font-size="10.00" fill="#000000">Math/ParamFunctor.h</text>
</g>
<!-- Node37&#45;&gt;Node38 -->
<g id="edge62" class="edge">
<title>Node37&#45;&gt;Node38</title>
<path fill="none" stroke="#191970" d="M1018.6764,-576.4763C1134.0292,-569.7607 1366.0432,-554.9123 1562,-534 1563.3038,-533.8609 1564.6196,-533.7169 1565.9447,-533.5687"/>
<polygon fill="#191970" stroke="#191970" points="1566.7144,-537.0024 1576.2374,-532.3588 1565.8972,-530.0503 1566.7144,-537.0024"/>
</g>
<!-- Node39 -->
<g id="node39" class="node">
<title>Node39</title>
<g id="a_node39"><a xlink:href="../../d6/d1d/Distributor_8h.html" target="_top" xlink:title="eicsmear/smear/Distributor.h">
<polygon fill="none" stroke="#000000" points="1832.5,-456.5 1832.5,-476.5 1995.5,-476.5 1995.5,-456.5 1832.5,-456.5"/>
<text text-anchor="middle" x="1914" y="-463.5" font-family="FreeSans" font-size="10.00" fill="#000000">eicsmear/smear/Distributor.h</text>
</a>
</g>
</g>
<!-- Node37&#45;&gt;Node39 -->
<g id="edge68" class="edge">
<title>Node37&#45;&gt;Node39</title>
<path fill="none" stroke="#191970" d="M1018.7679,-579.1754C1188.2675,-575.6173 1605.3549,-564.0063 1742,-534 1794.4709,-522.4778 1851.898,-497.1444 1885.3422,-481.0005"/>
<polygon fill="#191970" stroke="#191970" points="1887.0737,-484.0499 1894.5174,-476.5105 1883.9968,-477.7624 1887.0737,-484.0499"/>
</g>
<!-- Node37&#45;&gt;Node40 -->
<g id="edge71" class="edge">
<title>Node37&#45;&gt;Node40</title>
<path fill="none" stroke="#191970" d="M873.4896,-574.0722C754.212,-563.4986 517.1208,-542.4812 389.3583,-531.1554"/>
<polygon fill="#191970" stroke="#191970" points="389.4935,-527.6538 379.2235,-530.257 388.8754,-534.6264 389.4935,-527.6538"/>
</g>
<!-- Node39&#45;&gt;Node6 -->
<g id="edge69" class="edge">
<title>Node39&#45;&gt;Node6</title>
<path fill="none" stroke="#191970" d="M1926.2138,-456.2528C1946.7557,-437.7948 1986,-396.7422 1986,-352.5 1986,-352.5 1986,-352.5 1986,-124.5 1986,-49.554 1411.3769,-19.151 1251.7172,-12.1499"/>
<polygon fill="#191970" stroke="#191970" points="1251.5225,-8.6384 1241.3809,-11.7041 1251.2208,-15.6319 1251.5225,-8.6384"/>
</g>
<!-- Node40&#45;&gt;Node7 -->
<g id="edge73" class="edge">
<title>Node40&#45;&gt;Node7</title>
<path fill="none" stroke="#191970" d="M310.8663,-513.3095C316.9981,-505.3661 325.6701,-494.1319 332.9816,-484.6602"/>
<polygon fill="#191970" stroke="#191970" points="335.8618,-486.6569 339.2018,-476.6022 330.3207,-482.3795 335.8618,-486.6569"/>
</g>
<!-- Node40&#45;&gt;Node35 -->
<g id="edge72" class="edge">
<title>Node40&#45;&gt;Node35</title>
<path fill="none" stroke="#191970" d="M226.9314,-513.9766C137.177,-497.9927 0,-456.5445 0,-352.5 0,-352.5 0,-352.5 0,-295.5 0,-263.6601 6.2486,-254.4323 24,-228 31.7016,-216.5322 42.8632,-206.0523 52.8728,-197.9565"/>
<polygon fill="#191970" stroke="#191970" points="55.1354,-200.6313 60.9085,-191.7475 50.8554,-195.0922 55.1354,-200.6313"/>
</g>
<!-- Node41&#45;&gt;Node9 -->
<g id="edge76" class="edge">
<title>Node41&#45;&gt;Node9</title>
<path fill="none" stroke="#191970" d="M389.7838,-399.1712C379.8484,-390.6129 366.8217,-377.532 360,-363 334.6385,-308.9733 333.5696,-236.5543 334.8013,-201.7909"/>
<polygon fill="#191970" stroke="#191970" points="338.3102,-201.677 335.2754,-191.5262 331.3176,-201.354 338.3102,-201.677"/>
</g>
<!-- Node41&#45;&gt;Node22 -->
<g id="edge78" class="edge">
<title>Node41&#45;&gt;Node22</title>
<path fill="none" stroke="#191970" d="M415.3358,-399.3095C425.4422,-390.9608 439.949,-378.9769 451.7541,-369.2249"/>
<polygon fill="#191970" stroke="#191970" points="454.2904,-371.6695 459.771,-362.6022 449.8322,-366.2727 454.2904,-371.6695"/>
</g>
<!-- Node41&#45;&gt;Node26 -->
<g id="edge75" class="edge">
<title>Node41&#45;&gt;Node26</title>
<path fill="none" stroke="#191970" d="M405.2164,-399.3749C408.7159,-385.2572 416.6456,-359.4338 431,-342 443.0957,-327.3095 461.0368,-315.5178 475.7271,-307.4845"/>
<polygon fill="#191970" stroke="#191970" points="477.5612,-310.4757 484.8172,-302.7555 474.3305,-304.2658 477.5612,-310.4757"/>
</g>
<!-- Node41&#45;&gt;Node35 -->
<g id="edge77" class="edge">
<title>Node41&#45;&gt;Node35</title>
<path fill="none" stroke="#191970" d="M361.8384,-399.4368C295.5697,-381.0816 165.5391,-335.8034 95,-249 84.1097,-235.5987 79.4545,-216.3255 77.4683,-201.8016"/>
<polygon fill="#191970" stroke="#191970" points="80.9426,-201.3734 76.4106,-191.7968 73.9814,-202.1093 80.9426,-201.3734"/>
</g>
<!-- Node42&#45;&gt;Node8 -->
<g id="edge82" class="edge">
<title>Node42&#45;&gt;Node8</title>
<path fill="none" stroke="#191970" d="M178.4264,-570.3153C168.7366,-542.6992 141.8307,-466.0174 128.9916,-429.426"/>
<polygon fill="#191970" stroke="#191970" points="132.2443,-428.1247 125.6307,-419.8476 125.6391,-430.4424 132.2443,-428.1247"/>
</g>
<!-- Node42&#45;&gt;Node9 -->
<g id="edge83" class="edge">
<title>Node42&#45;&gt;Node9</title>
<path fill="none" stroke="#191970" d="M148.2384,-570.3721C105.6763,-555.2705 38,-522.4597 38,-466.5 38,-466.5 38,-466.5 38,-295.5 38,-256.2345 61.1229,-247.8524 95,-228 129.5237,-207.7687 243.1029,-192.1949 301.1605,-185.3337"/>
<polygon fill="#191970" stroke="#191970" points="301.7933,-188.7839 311.3234,-184.1548 300.9867,-181.8305 301.7933,-188.7839"/>
</g>
<!-- Node42&#45;&gt;Node40 -->
<g id="edge84" class="edge">
<title>Node42&#45;&gt;Node40</title>
<path fill="none" stroke="#191970" d="M203.3538,-570.4408C222.5021,-561.4205 250.8187,-548.0813 272.3773,-537.9255"/>
<polygon fill="#191970" stroke="#191970" points="273.8977,-541.0783 281.4526,-533.6504 270.9146,-534.7458 273.8977,-541.0783"/>
</g>
</g>
</svg>
