<?xml version="1.0" encoding="UTF-8" standalone="no"?>
<!DOCTYPE svg PUBLIC "-//W3C//DTD SVG 1.1//EN"
 "http://www.w3.org/Graphics/SVG/1.1/DTD/svg11.dtd">
<!-- Generated by graphviz version 2.40.1 (20161225.0304)
 -->
<!-- Title: HcalRawTowerBuilder::Detector Pages: 1 -->
<svg width="455pt" height="185pt"
 viewBox="0.00 0.00 455.00 185.00" xmlns="http://www.w3.org/2000/svg" xmlns:xlink="http://www.w3.org/1999/xlink">
<g id="graph0" class="graph" transform="scale(1 1) rotate(0) translate(4 181)">
<title>HcalRawTowerBuilder::Detector</title>
<!-- Node1 -->
<g id="node1" class="node">
<title>Node1</title>
<polygon fill="#bfbfbf" stroke="#000000" points="0,-71.5 0,-103.5 125,-103.5 125,-71.5 0,-71.5"/>
<text text-anchor="start" x="8" y="-90.5" font-family="FreeSans" font-size="10.00" fill="#000000">HcalRawTowerBuilder</text>
<text text-anchor="middle" x="62.5" y="-78.5" font-family="FreeSans" font-size="10.00" fill="#000000">::Detector</text>
</g>
<!-- Node2 -->
<g id="node2" class="node">
<title>Node2</title>
<g id="a_node2"><a xlink:href="../../dc/dda/G4__HcalIn__ref_8C.html#a4552e4b1c6ffcc08cba2296b2c45f950" target="_top" xlink:title="HCALInner_Towers">
<polygon fill="none" stroke="#000000" points="162,-97.5 162,-117.5 271,-117.5 271,-97.5 162,-97.5"/>
<text text-anchor="middle" x="216.5" y="-104.5" font-family="FreeSans" font-size="10.00" fill="#000000">HCALInner_Towers</text>
</a>
</g>
</g>
<!-- Node1&#45;&gt;Node2 -->
<g id="edge1" class="edge">
<title>Node1&#45;&gt;Node2</title>
<path fill="none" stroke="#191970" d="M135.196,-96.941C144.1572,-98.1048 153.1964,-99.2787 161.826,-100.3995"/>
<polygon fill="#191970" stroke="#191970" points="135.5052,-93.4519 125.1377,-95.6348 134.6036,-100.3936 135.5052,-93.4519"/>
</g>
<!-- Node8 -->
<g id="node8" class="node">
<title>Node8</title>
<g id="a_node8"><a xlink:href="../../d8/d93/G4__HcalOut__ref_8C.html#a4fd9d72ad1e04ebc46273f3b9fff91d6" target="_top" xlink:title="HCALOuter_Towers">
<polygon fill="none" stroke="#000000" points="161,-58.5 161,-78.5 272,-78.5 272,-58.5 161,-58.5"/>
<text text-anchor="middle" x="216.5" y="-65.5" font-family="FreeSans" font-size="10.00" fill="#000000">HCALOuter_Towers</text>
</a>
</g>
</g>
<!-- Node1&#45;&gt;Node8 -->
<g id="edge7" class="edge">
<title>Node1&#45;&gt;Node8</title>
<path fill="none" stroke="#191970" d="M135.2,-78.5305C143.822,-77.4668 152.5161,-76.3941 160.848,-75.3662"/>
<polygon fill="#191970" stroke="#191970" points="134.6338,-75.0737 125.1377,-79.772 135.491,-82.0211 134.6338,-75.0737"/>
</g>
<!-- Node3 -->
<g id="node3" class="node">
<title>Node3</title>
<g id="a_node3"><a xlink:href="../../db/dc0/Fun4All__AnaTutorial_8C.html#a8c484ea6d7477278e981ef056b17eac9" target="_top" xlink:title="Fun4All_AnaTutorial">
<polygon fill="none" stroke="#000000" points="320,-117.5 320,-137.5 435,-137.5 435,-117.5 320,-117.5"/>
<text text-anchor="middle" x="377.5" y="-124.5" font-family="FreeSans" font-size="10.00" fill="#000000">Fun4All_AnaTutorial</text>
</a>
</g>
</g>
<!-- Node2&#45;&gt;Node3 -->
<g id="edge2" class="edge">
<title>Node2&#45;&gt;Node3</title>
<path fill="none" stroke="#191970" d="M281.1076,-115.5258C293.8829,-117.1128 307.2144,-118.7689 319.7448,-120.3254"/>
<polygon fill="#191970" stroke="#191970" points="281.3625,-112.0306 271.0073,-114.2711 280.4995,-118.9772 281.3625,-112.0306"/>
</g>
<!-- Node4 -->
<g id="node4" class="node">
<title>Node4</title>
<g id="a_node4"><a xlink:href="../../dd/d28/Fun4All__AnaTutorial__Jets_8C.html#a55eaaeb770a3177f917012de87877d28" target="_top" xlink:title="Fun4All_AnaTutorial_Jets">
<polygon fill="none" stroke="#000000" points="308,-78.5 308,-98.5 447,-98.5 447,-78.5 308,-78.5"/>
<text text-anchor="middle" x="377.5" y="-85.5" font-family="FreeSans" font-size="10.00" fill="#000000">Fun4All_AnaTutorial_Jets</text>
</a>
</g>
</g>
<!-- Node2&#45;&gt;Node4 -->
<g id="edge3" class="edge">
<title>Node2&#45;&gt;Node4</title>
<path fill="none" stroke="#191970" d="M281.1871,-99.8661C289.984,-98.828 299.0432,-97.7589 307.9218,-96.7111"/>
<polygon fill="#191970" stroke="#191970" points="280.5281,-96.4195 271.0073,-101.0675 281.3486,-103.3713 280.5281,-96.4195"/>
</g>
<!-- Node5 -->
<g id="node5" class="node">
<title>Node5</title>
<g id="a_node5"><a xlink:href="../../da/d02/Fun4All__G4__EICDetector_8C.html#afbe82cefa1d1fd031d9a8586b7bb68c6" target="_top" xlink:title="Fun4All_G4_EICDetector">
<polygon fill="none" stroke="#000000" points="308,-39.5 308,-59.5 447,-59.5 447,-39.5 308,-39.5"/>
<text text-anchor="middle" x="377.5" y="-46.5" font-family="FreeSans" font-size="10.00" fill="#000000">Fun4All_G4_EICDetector</text>
</a>
</g>
</g>
<!-- Node2&#45;&gt;Node5 -->
<g id="edge4" class="edge">
<title>Node2&#45;&gt;Node5</title>
<path fill="none" stroke="#191970" d="M258.1392,-94.0369C262.8553,-92.2787 267.559,-90.4182 272,-88.5 288.6086,-81.3262 291.2185,-76.2594 308,-69.5 317.3171,-65.7472 327.5981,-62.3867 337.3307,-59.5399"/>
<polygon fill="#191970" stroke="#191970" points="256.7522,-90.816 248.5218,-97.4878 259.1163,-97.4047 256.7522,-90.816"/>
</g>
<!-- Node6 -->
<g id="node6" class="node">
<title>Node6</title>
<g id="a_node6"><a xlink:href="../../d7/d9e/Fun4All__G4__fsPHENIX_8C.html#a72c444217210a14ab1b4e66d9818b1ff" target="_top" xlink:title="Fun4All_G4_fsPHENIX">
<polygon fill="none" stroke="#000000" points="315.5,-.5 315.5,-20.5 439.5,-20.5 439.5,-.5 315.5,-.5"/>
<text text-anchor="middle" x="377.5" y="-7.5" font-family="FreeSans" font-size="10.00" fill="#000000">Fun4All_G4_fsPHENIX</text>
</a>
</g>
</g>
<!-- Node2&#45;&gt;Node6 -->
<g id="edge5" class="edge">
<title>Node2&#45;&gt;Node6</title>
<path fill="none" stroke="#191970" d="M265.6821,-92.8913C267.898,-91.5502 270.0194,-90.0898 272,-88.5 295.9553,-69.2711 283.4512,-47.9652 308,-29.5 312.7983,-25.8908 318.2406,-22.9671 323.9167,-20.5986"/>
<polygon fill="#191970" stroke="#191970" points="264.0454,-89.7973 256.7643,-97.4938 267.2558,-96.0177 264.0454,-89.7973"/>
</g>
<!-- Node7 -->
<g id="node7" class="node">
<title>Node7</title>
<g id="a_node7"><a xlink:href="../../d0/d13/Fun4All__G4__sPHENIX_8C.html#a536fa7366e3aeaf273cca94ced704c46" target="_top" xlink:title="Fun4All_G4_sPHENIX">
<polygon fill="none" stroke="#000000" points="317,-156.5 317,-176.5 438,-176.5 438,-156.5 317,-156.5"/>
<text text-anchor="middle" x="377.5" y="-163.5" font-family="FreeSans" font-size="10.00" fill="#000000">Fun4All_G4_sPHENIX</text>
</a>
</g>
</g>
<!-- Node2&#45;&gt;Node7 -->
<g id="edge6" class="edge">
<title>Node2&#45;&gt;Node7</title>
<path fill="none" stroke="#191970" d="M246.4531,-121.9098C264.1109,-130.071 287.0344,-140.0957 308,-147.5 317.1999,-150.7491 327.2457,-153.7821 336.7677,-156.4291"/>
<polygon fill="#191970" stroke="#191970" points="247.7719,-118.6627 237.2308,-117.596 244.8059,-125.0034 247.7719,-118.6627"/>
</g>
<!-- Node8&#45;&gt;Node3 -->
<g id="edge8" class="edge">
<title>Node8&#45;&gt;Node3</title>
<path fill="none" stroke="#191970" d="M256.4887,-82.0329C261.7586,-84.0713 267.0463,-86.2492 272,-88.5 288.6638,-96.0716 291.0501,-101.5924 308,-108.5 316.3403,-111.8989 325.4867,-114.8889 334.3261,-117.431"/>
<polygon fill="#191970" stroke="#191970" points="257.6909,-78.7458 247.0983,-78.529 255.2437,-85.3041 257.6909,-78.7458"/>
</g>
<!-- Node8&#45;&gt;Node4 -->
<g id="edge9" class="edge">
<title>Node8&#45;&gt;Node4</title>
<path fill="none" stroke="#191970" d="M282.4406,-76.6914C290.8158,-77.7318 299.4085,-78.7992 307.8395,-79.8465"/>
<polygon fill="#191970" stroke="#191970" points="282.7134,-73.1984 272.3581,-75.4389 281.8504,-80.1451 282.7134,-73.1984"/>
</g>
<!-- Node8&#45;&gt;Node5 -->
<g id="edge10" class="edge">
<title>Node8&#45;&gt;Node5</title>
<path fill="none" stroke="#191970" d="M282.4406,-60.7182C290.8158,-59.7298 299.4085,-58.7158 307.8395,-57.7208"/>
<polygon fill="#191970" stroke="#191970" points="281.879,-57.2601 272.3581,-61.908 282.6995,-64.2118 281.879,-57.2601"/>
</g>
<!-- Node8&#45;&gt;Node6 -->
<g id="edge11" class="edge">
<title>Node8&#45;&gt;Node6</title>
<path fill="none" stroke="#191970" d="M247.1903,-54.1804C264.7631,-46.2958 287.359,-36.6829 308,-29.5 317.3329,-26.2522 327.5242,-23.1995 337.1553,-20.5308"/>
<polygon fill="#191970" stroke="#191970" points="245.6483,-51.0366 237.9887,-58.3565 248.5412,-57.4108 245.6483,-51.0366"/>
</g>
<!-- Node8&#45;&gt;Node7 -->
<g id="edge12" class="edge">
<title>Node8&#45;&gt;Node7</title>
<path fill="none" stroke="#191970" d="M264.1863,-83.1164C266.9456,-84.7351 269.5785,-86.5241 272,-88.5 295.8003,-107.9204 283.4512,-129.0348 308,-147.5 312.7983,-151.1092 318.2406,-154.0329 323.9167,-156.4014"/>
<polygon fill="#191970" stroke="#191970" points="265.5511,-79.8849 255.0463,-78.5067 262.3989,-86.135 265.5511,-79.8849"/>
</g>
</g>
</svg>
