<?xml version="1.0" encoding="UTF-8" standalone="no"?>
<!DOCTYPE svg PUBLIC "-//W3C//DTD SVG 1.1//EN"
 "http://www.w3.org/Graphics/SVG/1.1/DTD/svg11.dtd">
<!-- Generated by graphviz version 2.40.1 (20161225.0304)
 -->
<!-- Title: SvtxTrackEval::calc_cluster_contribution Pages: 1 -->
<svg width="1644pt" height="767pt"
 viewBox="0.00 0.00 1644.00 767.00" xmlns="http://www.w3.org/2000/svg" xmlns:xlink="http://www.w3.org/1999/xlink">
<g id="graph0" class="graph" transform="scale(1 1) rotate(0) translate(4 763)">
<title>SvtxTrackEval::calc_cluster_contribution</title>
<!-- Node1 -->
<g id="node1" class="node">
<title>Node1</title>
<polygon fill="#bfbfbf" stroke="#000000" points="0,-469 0,-501 123,-501 123,-469 0,-469"/>
<text text-anchor="start" x="8" y="-488" font-family="FreeSans" font-size="10.00" fill="#000000">SvtxTrackEval::calc</text>
<text text-anchor="middle" x="61.5" y="-476" font-family="FreeSans" font-size="10.00" fill="#000000">_cluster_contribution</text>
</g>
<!-- Node2 -->
<g id="node2" class="node">
<title>Node2</title>
<g id="a_node2"><a xlink:href="../../df/dad/classSvtxTrackEval.html#a1dd0fdc1d1776c7b0b0643a9ab7cf25f" target="_top" xlink:title="SvtxTrackEval::get\l_nclusters_contribution">
<polygon fill="none" stroke="#000000" points="174.5,-444 174.5,-476 308.5,-476 308.5,-444 174.5,-444"/>
<text text-anchor="start" x="182.5" y="-463" font-family="FreeSans" font-size="10.00" fill="#000000">SvtxTrackEval::get</text>
<text text-anchor="middle" x="241.5" y="-451" font-family="FreeSans" font-size="10.00" fill="#000000">_nclusters_contribution</text>
</a>
</g>
</g>
<!-- Node1&#45;&gt;Node2 -->
<g id="edge1" class="edge">
<title>Node1&#45;&gt;Node2</title>
<path fill="none" stroke="#191970" d="M133.3939,-475.0147C146.905,-473.1382 160.9839,-471.1828 174.3437,-469.3273"/>
<polygon fill="#191970" stroke="#191970" points="132.6174,-471.5889 123.194,-476.4314 133.5804,-478.5224 132.6174,-471.5889"/>
</g>
<!-- Node31 -->
<g id="node31" class="node">
<title>Node31</title>
<g id="a_node31"><a xlink:href="../../df/dad/classSvtxTrackEval.html#a70ee478c80ed826fc8f692cdf3a13f08" target="_top" xlink:title="SvtxTrackEval::get\l_nwrongclusters_contribution">
<polygon fill="none" stroke="#000000" points="159,-630 159,-662 324,-662 324,-630 159,-630"/>
<text text-anchor="start" x="167" y="-649" font-family="FreeSans" font-size="10.00" fill="#000000">SvtxTrackEval::get</text>
<text text-anchor="middle" x="241.5" y="-637" font-family="FreeSans" font-size="10.00" fill="#000000">_nwrongclusters_contribution</text>
</a>
</g>
</g>
<!-- Node1&#45;&gt;Node31 -->
<g id="edge47" class="edge">
<title>Node1&#45;&gt;Node31</title>
<path fill="none" stroke="#191970" d="M87.2499,-508.0319C124.1764,-541.0606 191.2527,-601.0566 223.3882,-629.8"/>
<polygon fill="#191970" stroke="#191970" points="89.204,-505.0839 79.4172,-501.0259 84.5373,-510.3014 89.204,-505.0839"/>
</g>
<!-- Node3 -->
<g id="node3" class="node">
<title>Node3</title>
<g id="a_node3"><a xlink:href="../../d6/d11/classSvtxEvaluator.html#aef548ddeafdf0ebc949f29e88a741db8" target="_top" xlink:title="print out the ancestry information for detailed diagnosis">
<polygon fill="none" stroke="#000000" points="1297,-28 1297,-48 1468,-48 1468,-28 1297,-28"/>
<text text-anchor="middle" x="1382.5" y="-35" font-family="FreeSans" font-size="10.00" fill="#000000">SvtxEvaluator::printOutputInfo</text>
</a>
</g>
</g>
<!-- Node2&#45;&gt;Node3 -->
<g id="edge2" class="edge">
<title>Node2&#45;&gt;Node3</title>
<path fill="none" stroke="#191970" d="M249.4116,-434.297C280.9812,-337.4424 407.5762,0 639,0 639,0 639,0 1020.5,0 1127.7693,0 1251.9463,-16.708 1323.444,-27.9662"/>
<polygon fill="#191970" stroke="#191970" points="246.0536,-433.3071 246.3387,-443.8981 252.7205,-435.4409 246.0536,-433.3071"/>
</g>
<!-- Node5 -->
<g id="node5" class="node">
<title>Node5</title>
<g id="a_node5"><a xlink:href="../../d6/d11/classSvtxEvaluator.html#ace95fef2b7b4ad8b797f6695e053dd6e" target="_top" xlink:title="dump the evaluator information into ntuple for external analysis">
<polygon fill="none" stroke="#000000" points="1312,-453 1312,-485 1453,-485 1453,-453 1312,-453"/>
<text text-anchor="start" x="1320" y="-472" font-family="FreeSans" font-size="10.00" fill="#000000">SvtxEvaluator::fillOutput</text>
<text text-anchor="middle" x="1382.5" y="-460" font-family="FreeSans" font-size="10.00" fill="#000000">Ntuples</text>
</a>
</g>
</g>
<!-- Node2&#45;&gt;Node5 -->
<g id="edge4" class="edge">
<title>Node2&#45;&gt;Node5</title>
<path fill="none" stroke="#191970" d="M287.6159,-440.0964C360.698,-410.4135 508.2555,-358 639,-358 639,-358 639,-358 1020.5,-358 1128.5149,-358 1159.5985,-355.7852 1261,-393 1299.7729,-407.2298 1339.3494,-434.9612 1362.3845,-452.701"/>
<polygon fill="#191970" stroke="#191970" points="286.1518,-436.914 278.2309,-443.9503 288.8109,-443.3893 286.1518,-436.914"/>
</g>
<!-- Node6 -->
<g id="node6" class="node">
<title>Node6</title>
<g id="a_node6"><a xlink:href="../../df/dad/classSvtxTrackEval.html#a1cc268d4c23d35a26035905fa14abc36" target="_top" xlink:title="SvtxTrackEval::max\l_truth_particle_by_nclusters">
<polygon fill="none" stroke="#000000" points="360,-444 360,-476 519,-476 519,-444 360,-444"/>
<text text-anchor="start" x="368" y="-463" font-family="FreeSans" font-size="10.00" fill="#000000">SvtxTrackEval::max</text>
<text text-anchor="middle" x="439.5" y="-451" font-family="FreeSans" font-size="10.00" fill="#000000">_truth_particle_by_nclusters</text>
</a>
</g>
</g>
<!-- Node2&#45;&gt;Node6 -->
<g id="edge6" class="edge">
<title>Node2&#45;&gt;Node6</title>
<path fill="none" stroke="#191970" d="M318.7299,-460C332.2314,-460 346.3012,-460 359.8662,-460"/>
<polygon fill="#191970" stroke="#191970" points="318.5338,-456.5001 308.5338,-460 318.5337,-463.5001 318.5338,-456.5001"/>
</g>
<!-- Node27 -->
<g id="node27" class="node">
<title>Node27</title>
<g id="a_node27"><a xlink:href="../../df/dad/classSvtxTrackEval.html#ab2ddb740e23faee0f77302194255261f" target="_top" xlink:title="SvtxTrackEval::best\l_track_from">
<polygon fill="none" stroke="#000000" points="381.5,-602 381.5,-634 497.5,-634 497.5,-602 381.5,-602"/>
<text text-anchor="start" x="389.5" y="-621" font-family="FreeSans" font-size="10.00" fill="#000000">SvtxTrackEval::best</text>
<text text-anchor="middle" x="439.5" y="-609" font-family="FreeSans" font-size="10.00" fill="#000000">_track_from</text>
</a>
</g>
</g>
<!-- Node2&#45;&gt;Node27 -->
<g id="edge41" class="edge">
<title>Node2&#45;&gt;Node27</title>
<path fill="none" stroke="#191970" d="M269.4365,-482.2928C309.8942,-514.5772 383.83,-573.5764 419.3719,-601.9382"/>
<polygon fill="#191970" stroke="#191970" points="271.5744,-479.521 261.5749,-476.0194 267.2083,-484.9925 271.5744,-479.521"/>
</g>
<!-- Node4 -->
<g id="node4" class="node">
<title>Node4</title>
<g id="a_node4"><a xlink:href="../../d6/d11/classSvtxEvaluator.html#ac66ea4145deb621d9e4fb38cf852dc33" target="_top" xlink:title="SvtxEvaluator::process\l_event">
<polygon fill="none" stroke="#000000" points="1504,-242 1504,-274 1636,-274 1636,-242 1504,-242"/>
<text text-anchor="start" x="1512" y="-261" font-family="FreeSans" font-size="10.00" fill="#000000">SvtxEvaluator::process</text>
<text text-anchor="middle" x="1570" y="-249" font-family="FreeSans" font-size="10.00" fill="#000000">_event</text>
</a>
</g>
</g>
<!-- Node3&#45;&gt;Node4 -->
<g id="edge3" class="edge">
<title>Node3&#45;&gt;Node4</title>
<path fill="none" stroke="#191970" d="M1427.8554,-51.8389C1441.8609,-57.6816 1456.5874,-65.5981 1468,-76 1521.1388,-124.4327 1553.1965,-207.1809 1564.9165,-241.9095"/>
<polygon fill="#191970" stroke="#191970" points="1428.9122,-48.4943 1418.324,-48.1202 1426.3679,-55.0156 1428.9122,-48.4943"/>
</g>
<!-- Node5&#45;&gt;Node4 -->
<g id="edge5" class="edge">
<title>Node5&#45;&gt;Node4</title>
<path fill="none" stroke="#191970" d="M1403.5699,-445.2893C1442.0237,-402.016 1522.6456,-311.2895 1555.5495,-274.2617"/>
<polygon fill="#191970" stroke="#191970" points="1400.9278,-442.9935 1396.9015,-452.7935 1406.1603,-447.6433 1400.9278,-442.9935"/>
</g>
<!-- Node6&#45;&gt;Node5 -->
<g id="edge27" class="edge">
<title>Node6&#45;&gt;Node5</title>
<path fill="none" stroke="#191970" d="M484.9631,-440.2301C505.9004,-431.9738 531.3095,-423.1265 555,-418 678.5199,-391.271 712.1212,-396 838.5,-396 838.5,-396 838.5,-396 1020.5,-396 1127.8352,-396 1156.8525,-392.036 1261,-418 1292.9641,-425.9687 1327.4119,-441.1093 1351.4357,-452.8321"/>
<polygon fill="#191970" stroke="#191970" points="483.6501,-436.9857 475.6802,-443.9665 486.2638,-443.4794 483.6501,-436.9857"/>
</g>
<!-- Node7 -->
<g id="node7" class="node">
<title>Node7</title>
<g id="a_node7"><a xlink:href="../../de/dbf/classQAG4SimulationTracking.html#ac2aeab5238fcf828f70c61b4976b57fe" target="_top" xlink:title="QAG4SimulationTracking\l::process_event">
<polygon fill="none" stroke="#000000" points="568.5,-557 568.5,-589 709.5,-589 709.5,-557 568.5,-557"/>
<text text-anchor="start" x="576.5" y="-576" font-family="FreeSans" font-size="10.00" fill="#000000">QAG4SimulationTracking</text>
<text text-anchor="middle" x="639" y="-564" font-family="FreeSans" font-size="10.00" fill="#000000">::process_event</text>
</a>
</g>
</g>
<!-- Node6&#45;&gt;Node7 -->
<g id="edge7" class="edge">
<title>Node6&#45;&gt;Node7</title>
<path fill="none" stroke="#191970" d="M467.0069,-482.6931C489.6008,-500.533 522.9844,-525.1095 555,-542 565.5865,-547.5851 577.404,-552.615 588.7542,-556.9184"/>
<polygon fill="#191970" stroke="#191970" points="468.8982,-479.7242 458.9011,-476.2157 464.5283,-485.1927 468.8982,-479.7242"/>
</g>
<!-- Node8 -->
<g id="node8" class="node">
<title>Node8</title>
<g id="a_node8"><a xlink:href="../../dd/d75/classJetRecoEval.html#af6356d19d3ff0ee9c9849348466e7d0e" target="_top" xlink:title="what was the energy contribution to this reconstructed jet from this truth jet?">
<polygon fill="none" stroke="#000000" points="569,-201 569,-233 709,-233 709,-201 569,-201"/>
<text text-anchor="start" x="577" y="-220" font-family="FreeSans" font-size="10.00" fill="#000000">JetRecoEval::get_energy</text>
<text text-anchor="middle" x="639" y="-208" font-family="FreeSans" font-size="10.00" fill="#000000">_contribution</text>
</a>
</g>
</g>
<!-- Node6&#45;&gt;Node8 -->
<g id="edge8" class="edge">
<title>Node6&#45;&gt;Node8</title>
<path fill="none" stroke="#191970" d="M459.4137,-435.7443C500.0049,-386.3024 591.3675,-275.0185 625.6588,-233.2502"/>
<polygon fill="#191970" stroke="#191970" points="456.5398,-433.7289 452.8995,-443.6788 461.9501,-438.1707 456.5398,-433.7289"/>
</g>
<!-- Node19 -->
<g id="node19" class="node">
<title>Node19</title>
<g id="a_node19"><a xlink:href="../../d4/d21/classSvtxVertexEval.html#acd835bfba4372dee96f9314613fb955b" target="_top" xlink:title="SvtxVertexEval::all\l_truth_particles">
<polygon fill="none" stroke="#000000" points="583.5,-467 583.5,-499 694.5,-499 694.5,-467 583.5,-467"/>
<text text-anchor="start" x="591.5" y="-486" font-family="FreeSans" font-size="10.00" fill="#000000">SvtxVertexEval::all</text>
<text text-anchor="middle" x="639" y="-474" font-family="FreeSans" font-size="10.00" fill="#000000">_truth_particles</text>
</a>
</g>
</g>
<!-- Node6&#45;&gt;Node19 -->
<g id="edge28" class="edge">
<title>Node6&#45;&gt;Node19</title>
<path fill="none" stroke="#191970" d="M529.3596,-470.3598C547.7458,-472.4795 566.5846,-474.6514 583.3442,-476.5835"/>
<polygon fill="#191970" stroke="#191970" points="529.5428,-466.8578 519.2078,-469.1894 528.7411,-473.8117 529.5428,-466.8578"/>
</g>
<!-- Node24 -->
<g id="node24" class="node">
<title>Node24</title>
<g id="a_node24"><a xlink:href="../../d4/d21/classSvtxVertexEval.html#a266c840c37e717d884d65b0b77806e96" target="_top" xlink:title="SvtxVertexEval::get\l_ntracks_contribution">
<polygon fill="none" stroke="#000000" points="958,-524 958,-556 1083,-556 1083,-524 958,-524"/>
<text text-anchor="start" x="966" y="-543" font-family="FreeSans" font-size="10.00" fill="#000000">SvtxVertexEval::get</text>
<text text-anchor="middle" x="1020.5" y="-531" font-family="FreeSans" font-size="10.00" fill="#000000">_ntracks_contribution</text>
</a>
</g>
</g>
<!-- Node6&#45;&gt;Node24 -->
<g id="edge35" class="edge">
<title>Node6&#45;&gt;Node24</title>
<path fill="none" stroke="#191970" d="M479.6736,-480.492C501.4022,-490.5908 529.039,-501.8871 555,-508 696.1421,-541.2339 867.4919,-543.6373 957.8005,-542.0764"/>
<polygon fill="#191970" stroke="#191970" points="480.9747,-477.2353 470.44,-476.108 477.9724,-483.5588 480.9747,-477.2353"/>
</g>
<!-- Node25 -->
<g id="node25" class="node">
<title>Node25</title>
<g id="a_node25"><a xlink:href="../../d0/da9/classAnaTutorial.html#a54c32a62e705c4464d9652e91c7d46fa" target="_top" xlink:title="Methods for grabbing the data.">
<polygon fill="none" stroke="#000000" points="574.5,-428 574.5,-448 703.5,-448 703.5,-428 574.5,-428"/>
<text text-anchor="middle" x="639" y="-435" font-family="FreeSans" font-size="10.00" fill="#000000">AnaTutorial::getTracks</text>
</a>
</g>
</g>
<!-- Node6&#45;&gt;Node25 -->
<g id="edge39" class="edge">
<title>Node6&#45;&gt;Node25</title>
<path fill="none" stroke="#191970" d="M529.1714,-450.1114C544.4261,-448.4292 559.9984,-446.712 574.4417,-445.1192"/>
<polygon fill="#191970" stroke="#191970" points="528.7638,-446.6351 519.2078,-451.2102 529.5312,-453.5929 528.7638,-446.6351"/>
</g>
<!-- Node9 -->
<g id="node9" class="node">
<title>Node9</title>
<g id="a_node9"><a xlink:href="../../dd/d75/classJetRecoEval.html#a631b92837e600fbdb6b966a556fc9077" target="_top" xlink:title="which reconstructed jet had the largest energy contribution from this truth jet?">
<polygon fill="none" stroke="#000000" points="763,-162 763,-182 914,-182 914,-162 763,-162"/>
<text text-anchor="middle" x="838.5" y="-169" font-family="FreeSans" font-size="10.00" fill="#000000">JetRecoEval::best_jet_from</text>
</a>
</g>
</g>
<!-- Node8&#45;&gt;Node9 -->
<g id="edge9" class="edge">
<title>Node8&#45;&gt;Node9</title>
<path fill="none" stroke="#191970" d="M719.1303,-198.9255C744.7083,-193.156 772.0781,-186.9824 794.149,-182.004"/>
<polygon fill="#191970" stroke="#191970" points="718.0405,-195.5833 709.0557,-201.198 719.5808,-202.4117 718.0405,-195.5833"/>
</g>
<!-- Node10 -->
<g id="node10" class="node">
<title>Node10</title>
<g id="a_node10"><a xlink:href="../../d1/df4/classJetEvaluator.html#a0c608411c03ff1de3fca80d64e93ae5d" target="_top" xlink:title="dump the evaluator information into ntuple for external analysis">
<polygon fill="none" stroke="#000000" points="954,-246 954,-278 1087,-278 1087,-246 954,-246"/>
<text text-anchor="start" x="962" y="-265" font-family="FreeSans" font-size="10.00" fill="#000000">JetEvaluator::fillOutput</text>
<text text-anchor="middle" x="1020.5" y="-253" font-family="FreeSans" font-size="10.00" fill="#000000">Ntuples</text>
</a>
</g>
</g>
<!-- Node8&#45;&gt;Node10 -->
<g id="edge18" class="edge">
<title>Node8&#45;&gt;Node10</title>
<path fill="none" stroke="#191970" d="M718.0322,-234.9722C731.6431,-237.6346 745.6906,-240.1127 759,-242 824.9308,-251.3492 900.8766,-256.5436 953.8765,-259.2791"/>
<polygon fill="#191970" stroke="#191970" points="718.7077,-231.5381 708.2152,-233.0069 717.3335,-238.4019 718.7077,-231.5381"/>
</g>
<!-- Node16 -->
<g id="node16" class="node">
<title>Node16</title>
<g id="a_node16"><a xlink:href="../../dd/d75/classJetRecoEval.html#af4bff244a32d216f097c7fab76c9b95a" target="_top" xlink:title="which truth jet contributed the most energy to this reconstructed jet?">
<polygon fill="none" stroke="#000000" points="771.5,-201 771.5,-233 905.5,-233 905.5,-201 771.5,-201"/>
<text text-anchor="start" x="779.5" y="-220" font-family="FreeSans" font-size="10.00" fill="#000000">JetRecoEval::max_truth</text>
<text text-anchor="middle" x="838.5" y="-208" font-family="FreeSans" font-size="10.00" fill="#000000">_jet_by_energy</text>
</a>
</g>
</g>
<!-- Node8&#45;&gt;Node16 -->
<g id="edge19" class="edge">
<title>Node8&#45;&gt;Node16</title>
<path fill="none" stroke="#191970" d="M719.1303,-217C736.4302,-217 754.5498,-217 771.2952,-217"/>
<polygon fill="#191970" stroke="#191970" points="719.0557,-213.5001 709.0557,-217 719.0557,-220.5001 719.0557,-213.5001"/>
</g>
<!-- Node18 -->
<g id="node18" class="node">
<title>Node18</title>
<g id="a_node18"><a xlink:href="../../d4/d28/classQAG4SimulationJet.html#ac2803dd2fafe7d6131f3311c9f1e4e27" target="_top" xlink:title="QAG4SimulationJet::\lprocess_Spectrum">
<polygon fill="none" stroke="#000000" points="1133,-42 1133,-74 1251,-74 1251,-42 1133,-42"/>
<text text-anchor="start" x="1141" y="-61" font-family="FreeSans" font-size="10.00" fill="#000000">QAG4SimulationJet::</text>
<text text-anchor="middle" x="1192" y="-49" font-family="FreeSans" font-size="10.00" fill="#000000">process_Spectrum</text>
</a>
</g>
</g>
<!-- Node8&#45;&gt;Node18 -->
<g id="edge25" class="edge">
<title>Node8&#45;&gt;Node18</title>
<path fill="none" stroke="#191970" d="M674.9389,-195.6711C698.4092,-182.2112 729.9767,-164.9796 759,-152 843.0585,-114.4078 864.1899,-102.3262 954,-82 1013.9468,-68.4326 1084.1265,-62.531 1132.6714,-59.9663"/>
<polygon fill="#191970" stroke="#191970" points="672.9507,-192.7777 666.0453,-200.813 676.4544,-198.8377 672.9507,-192.7777"/>
</g>
<!-- Node9&#45;&gt;Node10 -->
<g id="edge10" class="edge">
<title>Node9&#45;&gt;Node10</title>
<path fill="none" stroke="#191970" d="M902.2398,-184.9792C907.6572,-186.7573 912.9794,-188.7568 918,-191 949.8204,-205.2176 982.1578,-229.6342 1001.7762,-245.7981"/>
<polygon fill="#191970" stroke="#191970" points="903.0151,-181.5572 892.4301,-182.0129 900.989,-188.2576 903.0151,-181.5572"/>
</g>
<!-- Node12 -->
<g id="node12" class="node">
<title>Node12</title>
<g id="a_node12"><a xlink:href="../../d4/d28/classQAG4SimulationJet.html#a3e5c5fe2e5e5cee7fca6173ef6e6bfa2" target="_top" xlink:title="QAG4SimulationJet::\lprocess_TruthMatching">
<polygon fill="none" stroke="#000000" points="1126,-105 1126,-137 1258,-137 1258,-105 1126,-105"/>
<text text-anchor="start" x="1134" y="-124" font-family="FreeSans" font-size="10.00" fill="#000000">QAG4SimulationJet::</text>
<text text-anchor="middle" x="1192" y="-112" font-family="FreeSans" font-size="10.00" fill="#000000">process_TruthMatching</text>
</a>
</g>
</g>
<!-- Node9&#45;&gt;Node12 -->
<g id="edge12" class="edge">
<title>Node9&#45;&gt;Node12</title>
<path fill="none" stroke="#191970" d="M856.4254,-155.0288C877.7366,-136.1341 915.3112,-106.714 954,-95 1018.0487,-75.6076 1095.6706,-90.8908 1144.4605,-104.9044"/>
<polygon fill="#191970" stroke="#191970" points="853.8785,-152.6141 848.8338,-161.9309 858.5874,-157.7935 853.8785,-152.6141"/>
</g>
<!-- Node14 -->
<g id="node14" class="node">
<title>Node14</title>
<g id="a_node14"><a xlink:href="../../dd/d75/classJetRecoEval.html#a9775ea4a0c6e28f22da7997f4886f195" target="_top" xlink:title="JetRecoEval::unique\l_reco_jet_from_truth">
<polygon fill="none" stroke="#000000" points="960.5,-105 960.5,-137 1080.5,-137 1080.5,-105 960.5,-105"/>
<text text-anchor="start" x="968.5" y="-124" font-family="FreeSans" font-size="10.00" fill="#000000">JetRecoEval::unique</text>
<text text-anchor="middle" x="1020.5" y="-112" font-family="FreeSans" font-size="10.00" fill="#000000">_reco_jet_from_truth</text>
</a>
</g>
</g>
<!-- Node9&#45;&gt;Node14 -->
<g id="edge14" class="edge">
<title>Node9&#45;&gt;Node14</title>
<path fill="none" stroke="#191970" d="M884.3336,-159.1565C908.2396,-152.4576 937.717,-144.1974 963.1249,-137.0777"/>
<polygon fill="#191970" stroke="#191970" points="883.142,-155.8555 874.4573,-161.924 885.0309,-162.5959 883.142,-155.8555"/>
</g>
<!-- Node15 -->
<g id="node15" class="node">
<title>Node15</title>
<g id="a_node15"><a xlink:href="../../dd/d75/classJetRecoEval.html#ac6030b2b14c885e19e35f86ec828d8d8" target="_top" xlink:title="JetRecoEval::unique\l_truth_jet_from_reco">
<polygon fill="none" stroke="#000000" points="960.5,-156 960.5,-188 1080.5,-188 1080.5,-156 960.5,-156"/>
<text text-anchor="start" x="968.5" y="-175" font-family="FreeSans" font-size="10.00" fill="#000000">JetRecoEval::unique</text>
<text text-anchor="middle" x="1020.5" y="-163" font-family="FreeSans" font-size="10.00" fill="#000000">_truth_jet_from_reco</text>
</a>
</g>
</g>
<!-- Node9&#45;&gt;Node15 -->
<g id="edge16" class="edge">
<title>Node9&#45;&gt;Node15</title>
<path fill="none" stroke="#191970" d="M924.2979,-172C936.4923,-172 948.8117,-172 960.3764,-172"/>
<polygon fill="#191970" stroke="#191970" points="924.1033,-168.5001 914.1033,-172 924.1032,-175.5001 924.1033,-168.5001"/>
</g>
<!-- Node11 -->
<g id="node11" class="node">
<title>Node11</title>
<g id="a_node11"><a xlink:href="../../d1/df4/classJetEvaluator.html#ad83508ae828d1f2e4a83a948465a0cd2" target="_top" xlink:title="JetEvaluator::process\l_event">
<polygon fill="none" stroke="#000000" points="1130,-246 1130,-278 1254,-278 1254,-246 1130,-246"/>
<text text-anchor="start" x="1138" y="-265" font-family="FreeSans" font-size="10.00" fill="#000000">JetEvaluator::process</text>
<text text-anchor="middle" x="1192" y="-253" font-family="FreeSans" font-size="10.00" fill="#000000">_event</text>
</a>
</g>
</g>
<!-- Node10&#45;&gt;Node11 -->
<g id="edge11" class="edge">
<title>Node10&#45;&gt;Node11</title>
<path fill="none" stroke="#191970" d="M1097.5816,-262C1108.3911,-262 1119.3863,-262 1129.8705,-262"/>
<polygon fill="#191970" stroke="#191970" points="1097.2975,-258.5001 1087.2975,-262 1097.2974,-265.5001 1097.2975,-258.5001"/>
</g>
<!-- Node13 -->
<g id="node13" class="node">
<title>Node13</title>
<g id="a_node13"><a xlink:href="../../d4/d28/classQAG4SimulationJet.html#a98c3c0fb4d213ada3475e8fb9895bc29" target="_top" xlink:title="QAG4SimulationJet::\lprocess_event">
<polygon fill="none" stroke="#000000" points="1323.5,-86 1323.5,-118 1441.5,-118 1441.5,-86 1323.5,-86"/>
<text text-anchor="start" x="1331.5" y="-105" font-family="FreeSans" font-size="10.00" fill="#000000">QAG4SimulationJet::</text>
<text text-anchor="middle" x="1382.5" y="-93" font-family="FreeSans" font-size="10.00" fill="#000000">process_event</text>
</a>
</g>
</g>
<!-- Node12&#45;&gt;Node13 -->
<g id="edge13" class="edge">
<title>Node12&#45;&gt;Node13</title>
<path fill="none" stroke="#191970" d="M1268.1541,-113.4046C1286.4789,-111.5769 1305.787,-109.6512 1323.2129,-107.9132"/>
<polygon fill="#191970" stroke="#191970" points="1267.6963,-109.9328 1258.093,-114.408 1268.391,-116.8982 1267.6963,-109.9328"/>
</g>
<!-- Node14&#45;&gt;Node12 -->
<g id="edge15" class="edge">
<title>Node14&#45;&gt;Node12</title>
<path fill="none" stroke="#191970" d="M1091.0046,-121C1102.5665,-121 1114.5106,-121 1125.9591,-121"/>
<polygon fill="#191970" stroke="#191970" points="1090.9645,-117.5001 1080.9645,-121 1090.9644,-124.5001 1090.9645,-117.5001"/>
</g>
<!-- Node15&#45;&gt;Node12 -->
<g id="edge17" class="edge">
<title>Node15&#45;&gt;Node12</title>
<path fill="none" stroke="#191970" d="M1084.4174,-152.9925C1102.0767,-147.741 1121.0594,-142.096 1138.0893,-137.0317"/>
<polygon fill="#191970" stroke="#191970" points="1083.3512,-149.658 1074.7637,-155.8633 1085.3465,-156.3676 1083.3512,-149.658"/>
</g>
<!-- Node16&#45;&gt;Node10 -->
<g id="edge20" class="edge">
<title>Node16&#45;&gt;Node10</title>
<path fill="none" stroke="#191970" d="M913.4959,-235.5429C927.4654,-238.9969 941.9543,-242.5794 955.5897,-245.9507"/>
<polygon fill="#191970" stroke="#191970" points="913.9832,-232.0581 903.4354,-233.0555 912.3029,-238.8535 913.9832,-232.0581"/>
</g>
<!-- Node16&#45;&gt;Node12 -->
<g id="edge22" class="edge">
<title>Node16&#45;&gt;Node12</title>
<path fill="none" stroke="#191970" d="M915.8802,-221.3737C966.1194,-221.676 1032.2,-217.2161 1087,-197 1122.4689,-183.9153 1156.6046,-155.2738 1175.8817,-137.1289"/>
<polygon fill="#191970" stroke="#191970" points="915.7741,-217.8722 905.7312,-221.247 915.6867,-224.8716 915.7741,-217.8722"/>
</g>
<!-- Node16&#45;&gt;Node14 -->
<g id="edge23" class="edge">
<title>Node16&#45;&gt;Node14</title>
<path fill="none" stroke="#191970" d="M909.3682,-196.32C912.3614,-194.6731 915.2549,-192.9026 918,-191 939.0508,-176.4101 933.2716,-161.0444 954,-146 958.5917,-142.6674 963.6804,-139.7252 968.9392,-137.1408"/>
<polygon fill="#191970" stroke="#191970" points="907.5418,-193.319 900.1387,-200.8983 910.6525,-199.5899 907.5418,-193.319"/>
</g>
<!-- Node16&#45;&gt;Node15 -->
<g id="edge24" class="edge">
<title>Node16&#45;&gt;Node15</title>
<path fill="none" stroke="#191970" d="M913.5841,-198.4352C929.1999,-194.5742 945.461,-190.5536 960.4503,-186.8475"/>
<polygon fill="#191970" stroke="#191970" points="912.3029,-195.1465 903.4354,-200.9445 913.9832,-201.9419 912.3029,-195.1465"/>
</g>
<!-- Node17 -->
<g id="node17" class="node">
<title>Node17</title>
<g id="a_node17"><a xlink:href="../../d5/d1f/classMyJetAnalysis.html#a309e9a46394353251b673514d6eb28ac" target="_top" xlink:title="MyJetAnalysis::process\l_event">
<polygon fill="none" stroke="#000000" points="955,-297 955,-329 1086,-329 1086,-297 955,-297"/>
<text text-anchor="start" x="963" y="-316" font-family="FreeSans" font-size="10.00" fill="#000000">MyJetAnalysis::process</text>
<text text-anchor="middle" x="1020.5" y="-304" font-family="FreeSans" font-size="10.00" fill="#000000">_event</text>
</a>
</g>
</g>
<!-- Node16&#45;&gt;Node17 -->
<g id="edge21" class="edge">
<title>Node16&#45;&gt;Node17</title>
<path fill="none" stroke="#191970" d="M871.1435,-238.863C893.8198,-253.527 925.0479,-272.6995 954,-287 961.1132,-290.5134 968.826,-293.8952 976.3941,-296.9914"/>
<polygon fill="#191970" stroke="#191970" points="872.8783,-235.8158 862.5905,-233.2836 869.0538,-241.6787 872.8783,-235.8158"/>
</g>
<!-- Node18&#45;&gt;Node13 -->
<g id="edge26" class="edge">
<title>Node18&#45;&gt;Node13</title>
<path fill="none" stroke="#191970" d="M1261.0832,-73.9562C1281.4731,-78.6657 1303.5973,-83.7758 1323.3055,-88.3278"/>
<polygon fill="#191970" stroke="#191970" points="1261.7623,-70.521 1251.2311,-71.6807 1260.1869,-77.3414 1261.7623,-70.521"/>
</g>
<!-- Node20 -->
<g id="node20" class="node">
<title>Node20</title>
<g id="a_node20"><a xlink:href="../../d4/d21/classSvtxVertexEval.html#a7ff115ef20337311f4d7edb1d2409f20" target="_top" xlink:title="SvtxVertexEval::all\l_truth_points">
<polygon fill="none" stroke="#000000" points="783,-476 783,-508 894,-508 894,-476 783,-476"/>
<text text-anchor="start" x="791" y="-495" font-family="FreeSans" font-size="10.00" fill="#000000">SvtxVertexEval::all</text>
<text text-anchor="middle" x="838.5" y="-483" font-family="FreeSans" font-size="10.00" fill="#000000">_truth_points</text>
</a>
</g>
</g>
<!-- Node19&#45;&gt;Node20 -->
<g id="edge29" class="edge">
<title>Node19&#45;&gt;Node20</title>
<path fill="none" stroke="#191970" d="M704.8101,-485.9689C730.0831,-487.109 758.6563,-488.398 782.8805,-489.4908"/>
<polygon fill="#191970" stroke="#191970" points="704.7195,-482.4613 694.5719,-485.507 704.4039,-489.4542 704.7195,-482.4613"/>
</g>
<!-- Node21 -->
<g id="node21" class="node">
<title>Node21</title>
<g id="a_node21"><a xlink:href="../../d4/d21/classSvtxVertexEval.html#aa7e59a495f87824e3f1088d1f5436ecb" target="_top" xlink:title="SvtxVertexEval::max\l_truth_point_by_ntracks">
<polygon fill="none" stroke="#000000" points="1123,-428 1123,-460 1261,-460 1261,-428 1123,-428"/>
<text text-anchor="start" x="1131" y="-447" font-family="FreeSans" font-size="10.00" fill="#000000">SvtxVertexEval::max</text>
<text text-anchor="middle" x="1192" y="-435" font-family="FreeSans" font-size="10.00" fill="#000000">_truth_point_by_ntracks</text>
</a>
</g>
</g>
<!-- Node20&#45;&gt;Node21 -->
<g id="edge30" class="edge">
<title>Node20&#45;&gt;Node21</title>
<path fill="none" stroke="#191970" d="M904.1215,-473.5151C920.317,-469.5105 937.6967,-465.6784 954,-463 1010.4456,-453.7269 1075.1958,-448.9301 1122.8948,-446.4784"/>
<polygon fill="#191970" stroke="#191970" points="903.0471,-470.1765 894.2108,-476.022 904.7638,-476.9628 903.0471,-470.1765"/>
</g>
<!-- Node22 -->
<g id="node22" class="node">
<title>Node22</title>
<g id="a_node22"><a xlink:href="../../d4/d21/classSvtxVertexEval.html#a8d536f79d01ad909dcfbf24bada4c0bf" target="_top" xlink:title="SvtxVertexEval::all\l_vertexes_from">
<polygon fill="none" stroke="#000000" points="965,-473 965,-505 1076,-505 1076,-473 965,-473"/>
<text text-anchor="start" x="973" y="-492" font-family="FreeSans" font-size="10.00" fill="#000000">SvtxVertexEval::all</text>
<text text-anchor="middle" x="1020.5" y="-480" font-family="FreeSans" font-size="10.00" fill="#000000">_vertexes_from</text>
</a>
</g>
</g>
<!-- Node20&#45;&gt;Node22 -->
<g id="edge32" class="edge">
<title>Node20&#45;&gt;Node22</title>
<path fill="none" stroke="#191970" d="M904.3068,-490.9153C924.1809,-490.5877 945.7953,-490.2314 964.9322,-489.916"/>
<polygon fill="#191970" stroke="#191970" points="904.0359,-487.4192 894.0949,-491.0836 904.1513,-494.4182 904.0359,-487.4192"/>
</g>
<!-- Node21&#45;&gt;Node5 -->
<g id="edge31" class="edge">
<title>Node21&#45;&gt;Node5</title>
<path fill="none" stroke="#191970" d="M1271.224,-454.3969C1284.6721,-456.1617 1298.559,-457.9841 1311.7705,-459.7179"/>
<polygon fill="#191970" stroke="#191970" points="1271.4146,-450.8919 1261.0442,-453.0609 1270.5038,-457.8324 1271.4146,-450.8919"/>
</g>
<!-- Node23 -->
<g id="node23" class="node">
<title>Node23</title>
<g id="a_node23"><a xlink:href="../../d4/d21/classSvtxVertexEval.html#ac76bf94cd6531f13664e0d56a052dbfe" target="_top" xlink:title="SvtxVertexEval::best\l_vertex_from">
<polygon fill="none" stroke="#000000" points="1131,-479 1131,-511 1253,-511 1253,-479 1131,-479"/>
<text text-anchor="start" x="1139" y="-498" font-family="FreeSans" font-size="10.00" fill="#000000">SvtxVertexEval::best</text>
<text text-anchor="middle" x="1192" y="-486" font-family="FreeSans" font-size="10.00" fill="#000000">_vertex_from</text>
</a>
</g>
</g>
<!-- Node22&#45;&gt;Node23 -->
<g id="edge33" class="edge">
<title>Node22&#45;&gt;Node23</title>
<path fill="none" stroke="#191970" d="M1086.208,-491.2988C1100.9168,-491.8134 1116.4589,-492.3572 1130.9686,-492.8648"/>
<polygon fill="#191970" stroke="#191970" points="1086.2974,-487.7999 1076.1811,-490.948 1086.0526,-494.7956 1086.2974,-487.7999"/>
</g>
<!-- Node23&#45;&gt;Node5 -->
<g id="edge34" class="edge">
<title>Node23&#45;&gt;Node5</title>
<path fill="none" stroke="#191970" d="M1263.3285,-485.2649C1279.1903,-483.1 1295.9984,-480.806 1311.8334,-478.6448"/>
<polygon fill="#191970" stroke="#191970" points="1262.4963,-481.8459 1253.0614,-486.6662 1263.4429,-488.7816 1262.4963,-481.8459"/>
</g>
<!-- Node24&#45;&gt;Node5 -->
<g id="edge36" class="edge">
<title>Node24&#45;&gt;Node5</title>
<path fill="none" stroke="#191970" d="M1093.1815,-539.8661C1141.3922,-538.3411 1205.721,-533.539 1261,-520 1292.9967,-512.1633 1327.4405,-497.0062 1351.4544,-485.2437"/>
<polygon fill="#191970" stroke="#191970" points="1093.0469,-536.3684 1083.1476,-540.1438 1093.2406,-543.3657 1093.0469,-536.3684"/>
</g>
<!-- Node24&#45;&gt;Node21 -->
<g id="edge37" class="edge">
<title>Node24&#45;&gt;Node21</title>
<path fill="none" stroke="#191970" d="M1079.2216,-519.1243C1081.9239,-517.5217 1084.5335,-515.8149 1087,-514 1107.6293,-498.82 1102.1818,-483.9199 1123,-469 1127.6603,-465.6601 1132.8142,-462.7219 1138.1443,-460.1473"/>
<polygon fill="#191970" stroke="#191970" points="1077.4936,-516.0794 1070.338,-523.8927 1080.8043,-522.247 1077.4936,-516.0794"/>
</g>
<!-- Node24&#45;&gt;Node23 -->
<g id="edge38" class="edge">
<title>Node24&#45;&gt;Node23</title>
<path fill="none" stroke="#191970" d="M1091.7844,-521.2956C1104.8135,-517.8769 1118.3015,-514.3378 1130.9979,-511.0064"/>
<polygon fill="#191970" stroke="#191970" points="1090.7153,-517.9576 1081.931,-523.8811 1092.4919,-524.7284 1090.7153,-517.9576"/>
</g>
<!-- Node26 -->
<g id="node26" class="node">
<title>Node26</title>
<g id="a_node26"><a xlink:href="../../d0/da9/classAnaTutorial.html#a3b64c061aaffaf4a42631434fb7eb6f9" target="_top" xlink:title="SubsysReco event processing method.">
<polygon fill="none" stroke="#000000" points="778.5,-425 778.5,-457 898.5,-457 898.5,-425 778.5,-425"/>
<text text-anchor="start" x="786.5" y="-444" font-family="FreeSans" font-size="10.00" fill="#000000">AnaTutorial::process</text>
<text text-anchor="middle" x="838.5" y="-432" font-family="FreeSans" font-size="10.00" fill="#000000">_event</text>
</a>
</g>
</g>
<!-- Node25&#45;&gt;Node26 -->
<g id="edge40" class="edge">
<title>Node25&#45;&gt;Node26</title>
<path fill="none" stroke="#191970" d="M713.775,-439.1244C735.1229,-439.4455 758.102,-439.791 778.4479,-440.097"/>
<polygon fill="#191970" stroke="#191970" points="713.8235,-435.6249 703.7719,-438.974 713.7181,-442.6241 713.8235,-435.6249"/>
</g>
<!-- Node27&#45;&gt;Node5 -->
<g id="edge42" class="edge">
<title>Node27&#45;&gt;Node5</title>
<path fill="none" stroke="#191970" d="M508.0125,-618C587.4949,-618 722.4849,-618 838.5,-618 838.5,-618 838.5,-618 1020.5,-618 1158.8041,-618 1305.9744,-523.8468 1360.5205,-485.2293"/>
<polygon fill="#191970" stroke="#191970" points="507.6492,-614.5001 497.6492,-618 507.6491,-621.5001 507.6492,-614.5001"/>
</g>
<!-- Node27&#45;&gt;Node7 -->
<g id="edge44" class="edge">
<title>Node27&#45;&gt;Node7</title>
<path fill="none" stroke="#191970" d="M507.5047,-602.6606C527.1122,-598.2379 548.5466,-593.403 568.3128,-588.9445"/>
<polygon fill="#191970" stroke="#191970" points="506.7247,-599.2485 497.74,-604.8632 508.265,-606.077 506.7247,-599.2485"/>
</g>
<!-- Node28 -->
<g id="node28" class="node">
<title>Node28</title>
<g id="a_node28"><a xlink:href="../../da/d7d/classQAG4SimulationUpsilon.html#ab79aed70b129c1906b4d1986fe2a52d9" target="_top" xlink:title="QAG4SimulationUpsilon\l::process_event">
<polygon fill="none" stroke="#000000" points="570.5,-698 570.5,-730 707.5,-730 707.5,-698 570.5,-698"/>
<text text-anchor="start" x="578.5" y="-717" font-family="FreeSans" font-size="10.00" fill="#000000">QAG4SimulationUpsilon</text>
<text text-anchor="middle" x="639" y="-705" font-family="FreeSans" font-size="10.00" fill="#000000">::process_event</text>
</a>
</g>
</g>
<!-- Node27&#45;&gt;Node28 -->
<g id="edge43" class="edge">
<title>Node27&#45;&gt;Node28</title>
<path fill="none" stroke="#191970" d="M470.9612,-639.9679C493.5583,-655.0111 525.1708,-674.5889 555,-688 563.0756,-691.6308 571.8037,-694.9509 580.4741,-697.9149"/>
<polygon fill="#191970" stroke="#191970" points="472.713,-636.9278 462.4642,-634.242 468.8011,-642.7328 472.713,-636.9278"/>
</g>
<!-- Node29 -->
<g id="node29" class="node">
<title>Node29</title>
<g id="a_node29"><a xlink:href="../../d4/d90/classQAG4SimulationCalorimeterSum.html#a552be18b8bd8920596f2020f0b49275f" target="_top" xlink:title="QAG4SimulationCalorimeter\lSum::process_event_TrackProj">
<polygon fill="none" stroke="#000000" points="555,-647 555,-679 723,-679 723,-647 555,-647"/>
<text text-anchor="start" x="563" y="-666" font-family="FreeSans" font-size="10.00" fill="#000000">QAG4SimulationCalorimeter</text>
<text text-anchor="middle" x="639" y="-654" font-family="FreeSans" font-size="10.00" fill="#000000">Sum::process_event_TrackProj</text>
</a>
</g>
</g>
<!-- Node27&#45;&gt;Node29 -->
<g id="edge45" class="edge">
<title>Node27&#45;&gt;Node29</title>
<path fill="none" stroke="#191970" d="M507.7202,-633.388C527.1497,-637.7706 548.3581,-642.5545 567.9516,-646.974"/>
<polygon fill="#191970" stroke="#191970" points="508.265,-629.923 497.74,-631.1368 506.7247,-636.7515 508.265,-629.923"/>
</g>
<!-- Node30 -->
<g id="node30" class="node">
<title>Node30</title>
<g id="a_node30"><a xlink:href="../../d4/d90/classQAG4SimulationCalorimeterSum.html#a2104cb16e224c7eb39b9c5aed8aed4f0" target="_top" xlink:title="QAG4SimulationCalorimeter\lSum::process_event">
<polygon fill="none" stroke="#000000" points="759,-647 759,-679 918,-679 918,-647 759,-647"/>
<text text-anchor="start" x="767" y="-666" font-family="FreeSans" font-size="10.00" fill="#000000">QAG4SimulationCalorimeter</text>
<text text-anchor="middle" x="838.5" y="-654" font-family="FreeSans" font-size="10.00" fill="#000000">Sum::process_event</text>
</a>
</g>
</g>
<!-- Node29&#45;&gt;Node30 -->
<g id="edge46" class="edge">
<title>Node29&#45;&gt;Node30</title>
<path fill="none" stroke="#191970" d="M733.0575,-663C741.6363,-663 750.2716,-663 758.7082,-663"/>
<polygon fill="#191970" stroke="#191970" points="733.0278,-659.5001 723.0278,-663 733.0277,-666.5001 733.0278,-659.5001"/>
</g>
<!-- Node31&#45;&gt;Node5 -->
<g id="edge48" class="edge">
<title>Node31&#45;&gt;Node5</title>
<path fill="none" stroke="#191970" d="M283.4852,-666.275C354.8025,-698.795 504.9376,-759 639,-759 639,-759 639,-759 1020.5,-759 1197.257,-759 1337.0357,-545.8 1373.3013,-485.0047"/>
<polygon fill="#191970" stroke="#191970" points="284.9112,-663.0784 274.3645,-662.0701 281.9805,-669.4354 284.9112,-663.0784"/>
</g>
</g>
</svg>
