<?xml version="1.0" encoding="UTF-8" standalone="no"?>
<!DOCTYPE svg PUBLIC "-//W3C//DTD SVG 1.1//EN"
 "http://www.w3.org/Graphics/SVG/1.1/DTD/svg11.dtd">
<!-- Generated by graphviz version 2.40.1 (20161225.0304)
 -->
<!-- Title: SvtxTrackEval::all_tracks_from Pages: 1 -->
<svg width="719pt" height="216pt"
 viewBox="0.00 0.00 719.00 216.00" xmlns="http://www.w3.org/2000/svg" xmlns:xlink="http://www.w3.org/1999/xlink">
<g id="graph0" class="graph" transform="scale(1 1) rotate(0) translate(4 212)">
<title>SvtxTrackEval::all_tracks_from</title>
<!-- Node1 -->
<g id="node1" class="node">
<title>Node1</title>
<polygon fill="#bfbfbf" stroke="#000000" points="0,-25.5 0,-57.5 105,-57.5 105,-25.5 0,-25.5"/>
<text text-anchor="start" x="8" y="-44.5" font-family="FreeSans" font-size="10.00" fill="#000000">SvtxTrackEval::all</text>
<text text-anchor="middle" x="52.5" y="-32.5" font-family="FreeSans" font-size="10.00" fill="#000000">_tracks_from</text>
</g>
<!-- Node2 -->
<g id="node2" class="node">
<title>Node2</title>
<g id="a_node2"><a xlink:href="../../df/dad/classSvtxTrackEval.html#ab2ddb740e23faee0f77302194255261f" target="_top" xlink:title="SvtxTrackEval::best\l_track_from">
<polygon fill="none" stroke="#000000" points="168.5,-73.5 168.5,-105.5 284.5,-105.5 284.5,-73.5 168.5,-73.5"/>
<text text-anchor="start" x="176.5" y="-92.5" font-family="FreeSans" font-size="10.00" fill="#000000">SvtxTrackEval::best</text>
<text text-anchor="middle" x="226.5" y="-80.5" font-family="FreeSans" font-size="10.00" fill="#000000">_track_from</text>
</a>
</g>
</g>
<!-- Node1&#45;&gt;Node2 -->
<g id="edge1" class="edge">
<title>Node1&#45;&gt;Node2</title>
<path fill="none" stroke="#191970" d="M115.1823,-58.7917C132.487,-63.5654 151.1874,-68.7241 168.2307,-73.4257"/>
<polygon fill="#191970" stroke="#191970" points="115.7486,-55.3172 105.1779,-56.0318 113.8871,-62.0652 115.7486,-55.3172"/>
</g>
<!-- Node9 -->
<g id="node9" class="node">
<title>Node9</title>
<g id="a_node9"><a xlink:href="../../d6/d11/classSvtxEvaluator.html#aef548ddeafdf0ebc949f29e88a741db8" target="_top" xlink:title="print out the ancestry information for detailed diagnosis">
<polygon fill="none" stroke="#000000" points="141,-9.5 141,-29.5 312,-29.5 312,-9.5 141,-9.5"/>
<text text-anchor="middle" x="226.5" y="-16.5" font-family="FreeSans" font-size="10.00" fill="#000000">SvtxEvaluator::printOutputInfo</text>
</a>
</g>
</g>
<!-- Node1&#45;&gt;Node9 -->
<g id="edge8" class="edge">
<title>Node1&#45;&gt;Node9</title>
<path fill="none" stroke="#191970" d="M115.3701,-33.5509C125.7526,-32.2382 136.633,-30.8625 147.353,-29.5071"/>
<polygon fill="#191970" stroke="#191970" points="114.6599,-30.1128 105.1779,-34.8396 115.538,-37.0575 114.6599,-30.1128"/>
</g>
<!-- Node3 -->
<g id="node3" class="node">
<title>Node3</title>
<g id="a_node3"><a xlink:href="../../d4/d90/classQAG4SimulationCalorimeterSum.html#a552be18b8bd8920596f2020f0b49275f" target="_top" xlink:title="QAG4SimulationCalorimeter\lSum::process_event_TrackProj">
<polygon fill="none" stroke="#000000" points="348,-175.5 348,-207.5 516,-207.5 516,-175.5 348,-175.5"/>
<text text-anchor="start" x="356" y="-194.5" font-family="FreeSans" font-size="10.00" fill="#000000">QAG4SimulationCalorimeter</text>
<text text-anchor="middle" x="432" y="-182.5" font-family="FreeSans" font-size="10.00" fill="#000000">Sum::process_event_TrackProj</text>
</a>
</g>
</g>
<!-- Node2&#45;&gt;Node3 -->
<g id="edge2" class="edge">
<title>Node2&#45;&gt;Node3</title>
<path fill="none" stroke="#191970" d="M256.108,-111.5458C279.9324,-128.4573 314.7999,-151.3914 348,-166.5 355.2014,-169.7772 362.9431,-172.7545 370.7084,-175.4186"/>
<polygon fill="#191970" stroke="#191970" points="258.0167,-108.6074 247.8537,-105.6134 253.9314,-114.2917 258.0167,-108.6074"/>
</g>
<!-- Node5 -->
<g id="node5" class="node">
<title>Node5</title>
<g id="a_node5"><a xlink:href="../../de/dbf/classQAG4SimulationTracking.html#ac2aeab5238fcf828f70c61b4976b57fe" target="_top" xlink:title="QAG4SimulationTracking\l::process_event">
<polygon fill="none" stroke="#000000" points="361.5,-124.5 361.5,-156.5 502.5,-156.5 502.5,-124.5 361.5,-124.5"/>
<text text-anchor="start" x="369.5" y="-143.5" font-family="FreeSans" font-size="10.00" fill="#000000">QAG4SimulationTracking</text>
<text text-anchor="middle" x="432" y="-131.5" font-family="FreeSans" font-size="10.00" fill="#000000">::process_event</text>
</a>
</g>
</g>
<!-- Node2&#45;&gt;Node5 -->
<g id="edge4" class="edge">
<title>Node2&#45;&gt;Node5</title>
<path fill="none" stroke="#191970" d="M294.4237,-106.357C317.8602,-112.1733 344.0384,-118.6701 367.2171,-124.4225"/>
<polygon fill="#191970" stroke="#191970" points="295.1127,-102.9219 284.564,-103.9101 293.4266,-109.7158 295.1127,-102.9219"/>
</g>
<!-- Node6 -->
<g id="node6" class="node">
<title>Node6</title>
<g id="a_node6"><a xlink:href="../../da/d7d/classQAG4SimulationUpsilon.html#ab79aed70b129c1906b4d1986fe2a52d9" target="_top" xlink:title="QAG4SimulationUpsilon\l::process_event">
<polygon fill="none" stroke="#000000" points="363.5,-73.5 363.5,-105.5 500.5,-105.5 500.5,-73.5 363.5,-73.5"/>
<text text-anchor="start" x="371.5" y="-92.5" font-family="FreeSans" font-size="10.00" fill="#000000">QAG4SimulationUpsilon</text>
<text text-anchor="middle" x="432" y="-80.5" font-family="FreeSans" font-size="10.00" fill="#000000">::process_event</text>
</a>
</g>
</g>
<!-- Node2&#45;&gt;Node6 -->
<g id="edge5" class="edge">
<title>Node2&#45;&gt;Node6</title>
<path fill="none" stroke="#191970" d="M294.8087,-89.5C316.7872,-89.5 341.1431,-89.5 363.1596,-89.5"/>
<polygon fill="#191970" stroke="#191970" points="294.5641,-86.0001 284.564,-89.5 294.564,-93.0001 294.5641,-86.0001"/>
</g>
<!-- Node7 -->
<g id="node7" class="node">
<title>Node7</title>
<g id="a_node7"><a xlink:href="../../d6/d11/classSvtxEvaluator.html#ace95fef2b7b4ad8b797f6695e053dd6e" target="_top" xlink:title="dump the evaluator information into ntuple for external analysis">
<polygon fill="none" stroke="#000000" points="361.5,-22.5 361.5,-54.5 502.5,-54.5 502.5,-22.5 361.5,-22.5"/>
<text text-anchor="start" x="369.5" y="-41.5" font-family="FreeSans" font-size="10.00" fill="#000000">SvtxEvaluator::fillOutput</text>
<text text-anchor="middle" x="432" y="-29.5" font-family="FreeSans" font-size="10.00" fill="#000000">Ntuples</text>
</a>
</g>
</g>
<!-- Node2&#45;&gt;Node7 -->
<g id="edge6" class="edge">
<title>Node2&#45;&gt;Node7</title>
<path fill="none" stroke="#191970" d="M294.4237,-72.643C317.8602,-66.8267 344.0384,-60.3299 367.2171,-54.5775"/>
<polygon fill="#191970" stroke="#191970" points="293.4266,-69.2842 284.564,-75.0899 295.1127,-76.0781 293.4266,-69.2842"/>
</g>
<!-- Node4 -->
<g id="node4" class="node">
<title>Node4</title>
<g id="a_node4"><a xlink:href="../../d4/d90/classQAG4SimulationCalorimeterSum.html#a2104cb16e224c7eb39b9c5aed8aed4f0" target="_top" xlink:title="QAG4SimulationCalorimeter\lSum::process_event">
<polygon fill="none" stroke="#000000" points="552,-175.5 552,-207.5 711,-207.5 711,-175.5 552,-175.5"/>
<text text-anchor="start" x="560" y="-194.5" font-family="FreeSans" font-size="10.00" fill="#000000">QAG4SimulationCalorimeter</text>
<text text-anchor="middle" x="631.5" y="-182.5" font-family="FreeSans" font-size="10.00" fill="#000000">Sum::process_event</text>
</a>
</g>
</g>
<!-- Node3&#45;&gt;Node4 -->
<g id="edge3" class="edge">
<title>Node3&#45;&gt;Node4</title>
<path fill="none" stroke="#191970" d="M526.0575,-191.5C534.6363,-191.5 543.2716,-191.5 551.7082,-191.5"/>
<polygon fill="#191970" stroke="#191970" points="526.0278,-188.0001 516.0278,-191.5 526.0277,-195.0001 526.0278,-188.0001"/>
</g>
<!-- Node8 -->
<g id="node8" class="node">
<title>Node8</title>
<g id="a_node8"><a xlink:href="../../d6/d11/classSvtxEvaluator.html#ac66ea4145deb621d9e4fb38cf852dc33" target="_top" xlink:title="SvtxEvaluator::process\l_event">
<polygon fill="none" stroke="#000000" points="565.5,-.5 565.5,-32.5 697.5,-32.5 697.5,-.5 565.5,-.5"/>
<text text-anchor="start" x="573.5" y="-19.5" font-family="FreeSans" font-size="10.00" fill="#000000">SvtxEvaluator::process</text>
<text text-anchor="middle" x="631.5" y="-7.5" font-family="FreeSans" font-size="10.00" fill="#000000">_event</text>
</a>
</g>
</g>
<!-- Node7&#45;&gt;Node8 -->
<g id="edge7" class="edge">
<title>Node7&#45;&gt;Node8</title>
<path fill="none" stroke="#191970" d="M512.7847,-29.5914C530.2404,-27.6665 548.5006,-25.6528 565.3194,-23.7981"/>
<polygon fill="#191970" stroke="#191970" points="512.1731,-26.1376 502.617,-30.7127 512.9404,-33.0954 512.1731,-26.1376"/>
</g>
<!-- Node9&#45;&gt;Node8 -->
<g id="edge9" class="edge">
<title>Node9&#45;&gt;Node8</title>
<path fill="none" stroke="#191970" d="M322.2944,-13.4647C330.9833,-13.0733 339.651,-12.7403 348,-12.5 422.6358,-10.3518 441.3445,-11.2077 516,-12.5 531.9486,-12.7761 549.1303,-13.2665 565.2413,-13.8114"/>
<polygon fill="#191970" stroke="#191970" points="321.9251,-9.9782 312.1025,-13.9488 322.2573,-16.9703 321.9251,-9.9782"/>
</g>
</g>
</svg>
