<?xml version="1.0" encoding="UTF-8" standalone="no"?>
<!DOCTYPE svg PUBLIC "-//W3C//DTD SVG 1.1//EN"
 "http://www.w3.org/Graphics/SVG/1.1/DTD/svg11.dtd">
<!-- Generated by graphviz version 2.40.1 (20161225.0304)
 -->
<!-- Title: SvtxTrackEval::all_tracks_from Pages: 1 -->
<svg width="842pt" height="477pt"
 viewBox="0.00 0.00 842.00 477.00" xmlns="http://www.w3.org/2000/svg" xmlns:xlink="http://www.w3.org/1999/xlink">
<g id="graph0" class="graph" transform="scale(1 1) rotate(0) translate(4 473)">
<title>SvtxTrackEval::all_tracks_from</title>
<!-- Node1 -->
<g id="node1" class="node">
<title>Node1</title>
<polygon fill="#bfbfbf" stroke="#000000" points="0,-154.5 0,-186.5 105,-186.5 105,-154.5 0,-154.5"/>
<text text-anchor="start" x="8" y="-173.5" font-family="FreeSans" font-size="10.00" fill="#000000">SvtxTrackEval::all</text>
<text text-anchor="middle" x="52.5" y="-161.5" font-family="FreeSans" font-size="10.00" fill="#000000">_tracks_from</text>
</g>
<!-- Node2 -->
<g id="node2" class="node">
<title>Node2</title>
<g id="a_node2"><a xlink:href="../../d1/d1e/classSvtxClusterEval.html#ae2d6f811db24d80dac0f4b247de56bcd" target="_top" xlink:title="SvtxClusterEval::all\l_truth_particles">
<polygon fill="none" stroke="#000000" points="168,-309.5 168,-341.5 282,-341.5 282,-309.5 168,-309.5"/>
<text text-anchor="start" x="176" y="-328.5" font-family="FreeSans" font-size="10.00" fill="#000000">SvtxClusterEval::all</text>
<text text-anchor="middle" x="225" y="-316.5" font-family="FreeSans" font-size="10.00" fill="#000000">_truth_particles</text>
</a>
</g>
</g>
<!-- Node1&#45;&gt;Node2 -->
<g id="edge1" class="edge">
<title>Node1&#45;&gt;Node2</title>
<path fill="none" stroke="#191970" d="M59.1439,-186.7329C71.2564,-214.2988 99.5601,-270.2105 141,-300.5 146.2399,-304.33 152.0657,-307.5777 158.1368,-310.3309"/>
<polygon fill="#191970" stroke="#191970" points="157.2477,-313.7472 167.83,-314.2628 159.879,-307.2605 157.2477,-313.7472"/>
</g>
<!-- Node16 -->
<g id="node16" class="node">
<title>Node16</title>
<g id="a_node16"><a xlink:href="../../d4/de4/classSvtxTruthEval.html#a45a358bb04e9d3e415b62047c653ff36" target="_top" xlink:title="SvtxTruthEval::are\l_same_particle">
<polygon fill="none" stroke="#000000" points="170.5,-51.5 170.5,-83.5 279.5,-83.5 279.5,-51.5 170.5,-51.5"/>
<text text-anchor="start" x="178.5" y="-70.5" font-family="FreeSans" font-size="10.00" fill="#000000">SvtxTruthEval::are</text>
<text text-anchor="middle" x="225" y="-58.5" font-family="FreeSans" font-size="10.00" fill="#000000">_same_particle</text>
</a>
</g>
</g>
<!-- Node1&#45;&gt;Node16 -->
<g id="edge16" class="edge">
<title>Node1&#45;&gt;Node16</title>
<path fill="none" stroke="#191970" d="M66.5966,-154.4651C82.8775,-136.8796 111.2602,-108.9734 141,-92.5 147.2224,-89.0533 153.9735,-86.0317 160.8527,-83.395"/>
<polygon fill="#191970" stroke="#191970" points="162.0322,-86.6903 170.2752,-80.0341 159.6805,-80.0971 162.0322,-86.6903"/>
</g>
<!-- Node19 -->
<g id="node19" class="node">
<title>Node19</title>
<g id="a_node19"><a xlink:href="../../d7/d8b/classSvtxTrackMap.html#a8c16bb47fdace6d5516d1803ffe54706" target="_top" xlink:title="SvtxTrackMap::begin">
<polygon fill="none" stroke="#000000" points="164.5,-219.5 164.5,-239.5 285.5,-239.5 285.5,-219.5 164.5,-219.5"/>
<text text-anchor="middle" x="225" y="-226.5" font-family="FreeSans" font-size="10.00" fill="#000000">SvtxTrackMap::begin</text>
</a>
</g>
</g>
<!-- Node1&#45;&gt;Node19 -->
<g id="edge20" class="edge">
<title>Node1&#45;&gt;Node19</title>
<path fill="none" stroke="#191970" d="M85.138,-186.5814C101.6071,-194.2563 122.0617,-203.1313 141,-209.5 149.0681,-212.2132 157.6896,-214.7068 166.2221,-216.9446"/>
<polygon fill="#191970" stroke="#191970" points="165.6068,-220.399 176.1592,-219.452 167.3194,-213.6117 165.6068,-220.399"/>
</g>
<!-- Node20 -->
<g id="node20" class="node">
<title>Node20</title>
<g id="a_node20"><a xlink:href="../../d2/db8/classSvtxTrack.html#a6d8dace95bd6d93aa08d66c5e2c3ad85" target="_top" xlink:title="SvtxTrack::begin_cluster_keys">
<polygon fill="none" stroke="#000000" points="141,-180.5 141,-200.5 309,-200.5 309,-180.5 141,-180.5"/>
<text text-anchor="middle" x="225" y="-187.5" font-family="FreeSans" font-size="10.00" fill="#000000">SvtxTrack::begin_cluster_keys</text>
</a>
</g>
</g>
<!-- Node1&#45;&gt;Node20 -->
<g id="edge21" class="edge">
<title>Node1&#45;&gt;Node20</title>
<path fill="none" stroke="#191970" d="M105.193,-176.6093C113.3996,-177.5608 122.0865,-178.568 130.8834,-179.5879"/>
<polygon fill="#191970" stroke="#191970" points="130.5058,-183.0675 140.8424,-180.7426 131.312,-176.1141 130.5058,-183.0675"/>
</g>
<!-- Node21 -->
<g id="node21" class="node">
<title>Node21</title>
<g id="a_node21"><a xlink:href="../../d7/d8b/classSvtxTrackMap.html#a1c7ae993700819b7d0a8e3f3d74fa99c" target="_top" xlink:title="SvtxTrackMap::end">
<polygon fill="none" stroke="#000000" points="169,-141.5 169,-161.5 281,-161.5 281,-141.5 169,-141.5"/>
<text text-anchor="middle" x="225" y="-148.5" font-family="FreeSans" font-size="10.00" fill="#000000">SvtxTrackMap::end</text>
</a>
</g>
</g>
<!-- Node1&#45;&gt;Node21 -->
<g id="edge22" class="edge">
<title>Node1&#45;&gt;Node21</title>
<path fill="none" stroke="#191970" d="M105.193,-164.6961C122.0065,-162.8442 140.8355,-160.7703 158.4972,-158.825"/>
<polygon fill="#191970" stroke="#191970" points="159.1804,-162.2709 168.7371,-157.6971 158.414,-155.313 159.1804,-162.2709"/>
</g>
<!-- Node22 -->
<g id="node22" class="node">
<title>Node22</title>
<g id="a_node22"><a xlink:href="../../d2/db8/classSvtxTrack.html#ac0e8c2214fa9f988c00a561ed22aa085" target="_top" xlink:title="SvtxTrack::end_cluster_keys">
<polygon fill="none" stroke="#000000" points="146,-102.5 146,-122.5 304,-122.5 304,-102.5 146,-102.5"/>
<text text-anchor="middle" x="225" y="-109.5" font-family="FreeSans" font-size="10.00" fill="#000000">SvtxTrack::end_cluster_keys</text>
</a>
</g>
</g>
<!-- Node1&#45;&gt;Node22 -->
<g id="edge23" class="edge">
<title>Node1&#45;&gt;Node22</title>
<path fill="none" stroke="#191970" d="M85.1073,-154.3266C101.5689,-146.6291 122.0261,-137.7617 141,-131.5 148.2878,-129.0949 156.0301,-126.8904 163.7516,-124.9029"/>
<polygon fill="#191970" stroke="#191970" points="164.6141,-128.2951 173.4852,-122.5024 162.938,-121.4987 164.6141,-128.2951"/>
</g>
<!-- Node23 -->
<g id="node23" class="node">
<title>Node23</title>
<g id="a_node23"><a xlink:href="../../df/dad/classSvtxTrackEval.html#aa97070c7a384cae1a38f4db39c8b5fba" target="_top" xlink:title="SvtxTrackEval::get\l_truth_eval">
<polygon fill="none" stroke="#000000" points="170,-258.5 170,-290.5 280,-290.5 280,-258.5 170,-258.5"/>
<text text-anchor="start" x="178" y="-277.5" font-family="FreeSans" font-size="10.00" fill="#000000">SvtxTrackEval::get</text>
<text text-anchor="middle" x="225" y="-265.5" font-family="FreeSans" font-size="10.00" fill="#000000">_truth_eval</text>
</a>
</g>
</g>
<!-- Node1&#45;&gt;Node23 -->
<g id="edge24" class="edge">
<title>Node1&#45;&gt;Node23</title>
<path fill="none" stroke="#191970" d="M66.5541,-186.7494C82.7968,-204.5684 111.1454,-232.8395 141,-249.5 146.9811,-252.8378 153.456,-255.7747 160.0662,-258.3486"/>
<polygon fill="#191970" stroke="#191970" points="159.2115,-261.761 169.8059,-261.8642 161.5882,-255.1768 159.2115,-261.761"/>
</g>
<!-- Node24 -->
<g id="node24" class="node">
<title>Node24</title>
<g id="a_node24"><a xlink:href="../../df/dad/classSvtxTrackEval.html#a2cad33eb7f2cc23aa534f06ef5b591e5" target="_top" xlink:title="SvtxTrackEval::has\l_node_pointers">
<polygon fill="none" stroke="#000000" points="169.5,-.5 169.5,-32.5 280.5,-32.5 280.5,-.5 169.5,-.5"/>
<text text-anchor="start" x="177.5" y="-19.5" font-family="FreeSans" font-size="10.00" fill="#000000">SvtxTrackEval::has</text>
<text text-anchor="middle" x="225" y="-7.5" font-family="FreeSans" font-size="10.00" fill="#000000">_node_pointers</text>
</a>
</g>
</g>
<!-- Node1&#45;&gt;Node24 -->
<g id="edge26" class="edge">
<title>Node1&#45;&gt;Node24</title>
<path fill="none" stroke="#191970" d="M59.1785,-154.3919C71.3432,-127.038 99.7236,-71.5563 141,-41.5 146.6196,-37.408 152.9088,-33.9803 159.4496,-31.1101"/>
<polygon fill="#191970" stroke="#191970" points="161.1377,-34.2073 169.164,-27.2915 158.5768,-27.6925 161.1377,-34.2073"/>
</g>
<!-- Node3 -->
<g id="node3" class="node">
<title>Node3</title>
<g id="a_node3"><a xlink:href="../../d1/d1e/classSvtxClusterEval.html#a19f61841db8edf09e606635a790b1d2c" target="_top" xlink:title="SvtxClusterEval::all\l_truth_hits">
<polygon fill="none" stroke="#000000" points="348,-309.5 348,-341.5 462,-341.5 462,-309.5 348,-309.5"/>
<text text-anchor="start" x="356" y="-328.5" font-family="FreeSans" font-size="10.00" fill="#000000">SvtxClusterEval::all</text>
<text text-anchor="middle" x="405" y="-316.5" font-family="FreeSans" font-size="10.00" fill="#000000">_truth_hits</text>
</a>
</g>
</g>
<!-- Node2&#45;&gt;Node3 -->
<g id="edge2" class="edge">
<title>Node2&#45;&gt;Node3</title>
<path fill="none" stroke="#191970" d="M282.448,-325.5C299.9891,-325.5 319.4368,-325.5 337.5764,-325.5"/>
<polygon fill="#191970" stroke="#191970" points="337.789,-329.0001 347.7889,-325.5 337.7889,-322.0001 337.789,-329.0001"/>
</g>
<!-- Node9 -->
<g id="node9" class="node">
<title>Node9</title>
<g id="a_node9"><a xlink:href="../../d1/d1e/classSvtxClusterEval.html#a9d557168b84ca9a814166d6523bfe2fd" target="_top" xlink:title="SvtxClusterEval::has\l_node_pointers">
<polygon fill="none" stroke="#000000" points="518.5,-363.5 518.5,-395.5 639.5,-395.5 639.5,-363.5 518.5,-363.5"/>
<text text-anchor="start" x="526.5" y="-382.5" font-family="FreeSans" font-size="10.00" fill="#000000">SvtxClusterEval::has</text>
<text text-anchor="middle" x="579" y="-370.5" font-family="FreeSans" font-size="10.00" fill="#000000">_node_pointers</text>
</a>
</g>
</g>
<!-- Node2&#45;&gt;Node9 -->
<g id="edge15" class="edge">
<title>Node2&#45;&gt;Node9</title>
<path fill="none" stroke="#191970" d="M282.1639,-339.0365C301.9834,-343.423 324.3976,-348.0434 345,-351.5 399.5091,-360.6454 461.6488,-367.9357 508.1878,-372.7822"/>
<polygon fill="#191970" stroke="#191970" points="507.8653,-376.2674 518.1711,-373.8093 508.5818,-369.3041 507.8653,-376.2674"/>
</g>
<!-- Node10 -->
<g id="node10" class="node">
<title>Node10</title>
<g id="a_node10"><a xlink:href="../../d4/de4/classSvtxTruthEval.html#ae575fcf72ce935a72f3c5a157abdd900" target="_top" xlink:title="SvtxTruthEval::get\l_particle">
<polygon fill="none" stroke="#000000" points="350,-408.5 350,-440.5 460,-440.5 460,-408.5 350,-408.5"/>
<text text-anchor="start" x="358" y="-427.5" font-family="FreeSans" font-size="10.00" fill="#000000">SvtxTruthEval::get</text>
<text text-anchor="middle" x="405" y="-415.5" font-family="FreeSans" font-size="10.00" fill="#000000">_particle</text>
</a>
</g>
</g>
<!-- Node2&#45;&gt;Node10 -->
<g id="edge9" class="edge">
<title>Node2&#45;&gt;Node10</title>
<path fill="none" stroke="#191970" d="M254.3207,-341.6264C284.9163,-358.454 333.0242,-384.9133 366.6258,-403.3942"/>
<polygon fill="#191970" stroke="#191970" points="365.2429,-406.628 375.6918,-408.3805 368.6164,-400.4945 365.2429,-406.628"/>
</g>
<!-- Node15 -->
<g id="node15" class="node">
<title>Node15</title>
<g id="a_node15"><a xlink:href="../../d1/d1e/classSvtxClusterEval.html#a71bb4c981bdde92138eda3a7db1975b8" target="_top" xlink:title="SvtxClusterEval::get\l_truth_eval">
<polygon fill="none" stroke="#000000" points="345,-258.5 345,-290.5 465,-290.5 465,-258.5 345,-258.5"/>
<text text-anchor="start" x="353" y="-277.5" font-family="FreeSans" font-size="10.00" fill="#000000">SvtxClusterEval::get</text>
<text text-anchor="middle" x="405" y="-265.5" font-family="FreeSans" font-size="10.00" fill="#000000">_truth_eval</text>
</a>
</g>
</g>
<!-- Node2&#45;&gt;Node15 -->
<g id="edge14" class="edge">
<title>Node2&#45;&gt;Node15</title>
<path fill="none" stroke="#191970" d="M281.9531,-309.3633C299.9381,-304.2675 319.9677,-298.5925 338.5554,-293.326"/>
<polygon fill="#191970" stroke="#191970" points="339.7502,-296.6253 348.4174,-290.5317 337.842,-289.8904 339.7502,-296.6253"/>
</g>
<!-- Node4 -->
<g id="node4" class="node">
<title>Node4</title>
<g id="a_node4"><a xlink:href="../../d4/d30/classPHG4HitContainer.html#a62c24ef9c00bd714f597939598a87041" target="_top" xlink:title="PHG4HitContainer::findHit">
<polygon fill="none" stroke="#000000" points="504.5,-234.5 504.5,-254.5 653.5,-254.5 653.5,-234.5 504.5,-234.5"/>
<text text-anchor="middle" x="579" y="-241.5" font-family="FreeSans" font-size="10.00" fill="#000000">PHG4HitContainer::findHit</text>
</a>
</g>
</g>
<!-- Node3&#45;&gt;Node4 -->
<g id="edge3" class="edge">
<title>Node3&#45;&gt;Node4</title>
<path fill="none" stroke="#191970" d="M449.2906,-309.3958C454.7538,-306.7354 460.1243,-303.7652 465,-300.5 483.8008,-287.9092 481.3433,-275.7078 501,-264.5 505.2543,-262.0743 509.8049,-259.9379 514.491,-258.0572"/>
<polygon fill="#191970" stroke="#191970" points="516.025,-261.2249 524.2486,-254.5449 513.6542,-254.6386 516.025,-261.2249"/>
</g>
<!-- Node5 -->
<g id="node5" class="node">
<title>Node5</title>
<g id="a_node5"><a xlink:href="../../d7/d8d/classTrkrHitTruthAssoc.html#a5dfce5df411c830647e8659c02c1f5e2" target="_top" xlink:title="Get cell keys associated with desired hit.">
<polygon fill="none" stroke="#000000" points="523.5,-183.5 523.5,-215.5 634.5,-215.5 634.5,-183.5 523.5,-183.5"/>
<text text-anchor="start" x="531.5" y="-202.5" font-family="FreeSans" font-size="10.00" fill="#000000">TrkrHitTruthAssoc::</text>
<text text-anchor="middle" x="579" y="-190.5" font-family="FreeSans" font-size="10.00" fill="#000000">getG4Hits</text>
</a>
</g>
</g>
<!-- Node3&#45;&gt;Node5 -->
<g id="edge4" class="edge">
<title>Node3&#45;&gt;Node5</title>
<path fill="none" stroke="#191970" d="M452.8806,-309.4922C457.2612,-306.8983 461.3977,-303.9172 465,-300.5 491.825,-275.0534 473.2638,-249.9502 501,-225.5 504.915,-222.0488 509.3028,-219.0531 513.9484,-216.4531"/>
<polygon fill="#191970" stroke="#191970" points="515.7184,-219.483 523.1436,-211.9253 512.626,-213.203 515.7184,-219.483"/>
</g>
<!-- Node6 -->
<g id="node6" class="node">
<title>Node6</title>
<g id="a_node6"><a xlink:href="../../d7/d4f/classTrkrClusterHitAssoc.html#ad08b0caf69a8f21fbd3d4024488c61b2" target="_top" xlink:title="Get all the hits associated with a cluster by key.">
<polygon fill="none" stroke="#000000" points="521.5,-132.5 521.5,-164.5 636.5,-164.5 636.5,-132.5 521.5,-132.5"/>
<text text-anchor="start" x="529.5" y="-151.5" font-family="FreeSans" font-size="10.00" fill="#000000">TrkrClusterHitAssoc</text>
<text text-anchor="middle" x="579" y="-139.5" font-family="FreeSans" font-size="10.00" fill="#000000">::getHits</text>
</a>
</g>
</g>
<!-- Node3&#45;&gt;Node6 -->
<g id="edge5" class="edge">
<title>Node3&#45;&gt;Node6</title>
<path fill="none" stroke="#191970" d="M454.6623,-309.3491C458.4776,-306.8062 462.0029,-303.8753 465,-300.5 503.9539,-256.6301 460.2253,-215.683 501,-173.5 504.4035,-169.979 508.3028,-166.9528 512.5029,-164.3522"/>
<polygon fill="#191970" stroke="#191970" points="514.2894,-167.3665 521.4842,-159.5893 511.0098,-161.1823 514.2894,-167.3665"/>
</g>
<!-- Node7 -->
<g id="node7" class="node">
<title>Node7</title>
<g id="a_node7"><a xlink:href="../../d6/d3f/namespaceTrkrDefs.html#aae37fbdb8f0f6f9b7b1e4173f4fcd331" target="_top" xlink:title="Get the upper 32 bits from cluster keys.">
<polygon fill="none" stroke="#000000" points="501,-312.5 501,-344.5 657,-344.5 657,-312.5 501,-312.5"/>
<text text-anchor="start" x="509" y="-331.5" font-family="FreeSans" font-size="10.00" fill="#000000">TrkrDefs::getHitSetKeyFrom</text>
<text text-anchor="middle" x="579" y="-319.5" font-family="FreeSans" font-size="10.00" fill="#000000">ClusKey</text>
</a>
</g>
</g>
<!-- Node3&#45;&gt;Node7 -->
<g id="edge6" class="edge">
<title>Node3&#45;&gt;Node7</title>
<path fill="none" stroke="#191970" d="M462.4563,-326.4906C471.5664,-326.6477 481.1669,-326.8132 490.7872,-326.9791"/>
<polygon fill="#191970" stroke="#191970" points="490.7411,-330.4787 500.8,-327.1517 490.8618,-323.4798 490.7411,-330.4787"/>
</g>
<!-- Node8 -->
<g id="node8" class="node">
<title>Node8</title>
<g id="a_node8"><a xlink:href="../../d6/d3f/namespaceTrkrDefs.html#a542bf66cb1037404f08212eeefdfde70" target="_top" xlink:title="Get the tracker ID from either key type.">
<polygon fill="none" stroke="#000000" points="524,-273.5 524,-293.5 634,-293.5 634,-273.5 524,-273.5"/>
<text text-anchor="middle" x="579" y="-280.5" font-family="FreeSans" font-size="10.00" fill="#000000">TrkrDefs::getTrkrId</text>
</a>
</g>
</g>
<!-- Node3&#45;&gt;Node8 -->
<g id="edge7" class="edge">
<title>Node3&#45;&gt;Node8</title>
<path fill="none" stroke="#191970" d="M462.4563,-311.6312C483.4683,-306.5594 507.0892,-300.8578 527.5443,-295.9204"/>
<polygon fill="#191970" stroke="#191970" points="528.4067,-299.3128 537.3062,-293.564 526.7641,-292.5082 528.4067,-299.3128"/>
</g>
<!-- Node3&#45;&gt;Node9 -->
<g id="edge8" class="edge">
<title>Node3&#45;&gt;Node9</title>
<path fill="none" stroke="#191970" d="M456.7346,-341.5556C475.8465,-347.4868 497.6914,-354.2663 517.579,-360.4383"/>
<polygon fill="#191970" stroke="#191970" points="516.5762,-363.7917 527.1642,-363.413 518.651,-357.1063 516.5762,-363.7917"/>
</g>
<!-- Node11 -->
<g id="node11" class="node">
<title>Node11</title>
<g id="a_node11"><a xlink:href="../../dc/d23/classBaseTruthEval.html#ac3045216b60b1b54d9fdd81e3a07b938" target="_top" xlink:title="which particle left this truth hit?">
<polygon fill="none" stroke="#000000" points="523,-414.5 523,-446.5 635,-446.5 635,-414.5 523,-414.5"/>
<text text-anchor="start" x="531" y="-433.5" font-family="FreeSans" font-size="10.00" fill="#000000">BaseTruthEval::get</text>
<text text-anchor="middle" x="579" y="-421.5" font-family="FreeSans" font-size="10.00" fill="#000000">_particle</text>
</a>
</g>
</g>
<!-- Node10&#45;&gt;Node11 -->
<g id="edge10" class="edge">
<title>Node10&#45;&gt;Node11</title>
<path fill="none" stroke="#191970" d="M460.0547,-426.3984C476.7837,-426.9753 495.3427,-427.6153 512.729,-428.2148"/>
<polygon fill="#191970" stroke="#191970" points="512.6928,-431.7155 522.8075,-428.5623 512.9341,-424.7197 512.6928,-431.7155"/>
</g>
<!-- Node12 -->
<g id="node12" class="node">
<title>Node12</title>
<g id="a_node12"><a xlink:href="../../d3/d9e/classPHG4Hit.html#ac19cdd97dbd9b8154b8012ec0de01f76" target="_top" xlink:title="PHG4Hit::get_trkid">
<polygon fill="none" stroke="#000000" points="708.5,-397.5 708.5,-417.5 818.5,-417.5 818.5,-397.5 708.5,-397.5"/>
<text text-anchor="middle" x="763.5" y="-404.5" font-family="FreeSans" font-size="10.00" fill="#000000">PHG4Hit::get_trkid</text>
</a>
</g>
</g>
<!-- Node11&#45;&gt;Node12 -->
<g id="edge11" class="edge">
<title>Node11&#45;&gt;Node12</title>
<path fill="none" stroke="#191970" d="M635.1075,-423.5056C655.0604,-421.0182 677.6926,-418.1969 698.3385,-415.6231"/>
<polygon fill="#191970" stroke="#191970" points="698.8036,-419.0923 708.2938,-414.3821 697.9376,-412.1461 698.8036,-419.0923"/>
</g>
<!-- Node13 -->
<g id="node13" class="node">
<title>Node13</title>
<g id="a_node13"><a xlink:href="../../da/d6c/classPHG4TruthInfoContainer.html#a175e3e0bbb61b850bf184368d920152f" target="_top" xlink:title="PHG4TruthInfoContainer\l::GetParticle">
<polygon fill="none" stroke="#000000" points="694,-436.5 694,-468.5 833,-468.5 833,-436.5 694,-436.5"/>
<text text-anchor="start" x="702" y="-455.5" font-family="FreeSans" font-size="10.00" fill="#000000">PHG4TruthInfoContainer</text>
<text text-anchor="middle" x="763.5" y="-443.5" font-family="FreeSans" font-size="10.00" fill="#000000">::GetParticle</text>
</a>
</g>
</g>
<!-- Node11&#45;&gt;Node13 -->
<g id="edge12" class="edge">
<title>Node11&#45;&gt;Node13</title>
<path fill="none" stroke="#191970" d="M635.1075,-437.1903C650.4718,-439.0224 667.4248,-441.0439 683.8363,-443.0008"/>
<polygon fill="#191970" stroke="#191970" points="683.6216,-446.4999 693.9657,-444.2086 684.4505,-439.5492 683.6216,-446.4999"/>
</g>
<!-- Node14 -->
<g id="node14" class="node">
<title>Node14</title>
<g id="a_node14"><a xlink:href="../../dc/d23/classBaseTruthEval.html#a988244333e36bcd3a7c9c68d4c345af5" target="_top" xlink:title="BaseTruthEval::has\l_reduced_node_pointers">
<polygon fill="none" stroke="#000000" points="693,-208.5 693,-240.5 834,-240.5 834,-208.5 693,-208.5"/>
<text text-anchor="start" x="701" y="-227.5" font-family="FreeSans" font-size="10.00" fill="#000000">BaseTruthEval::has</text>
<text text-anchor="middle" x="763.5" y="-215.5" font-family="FreeSans" font-size="10.00" fill="#000000">_reduced_node_pointers</text>
</a>
</g>
</g>
<!-- Node11&#45;&gt;Node14 -->
<g id="edge13" class="edge">
<title>Node11&#45;&gt;Node14</title>
<path fill="none" stroke="#191970" d="M635.2431,-418.0127C643.0323,-414.7514 650.5587,-410.6511 657,-405.5 709.0157,-363.9029 741.026,-289.5074 755.0956,-250.3029"/>
<polygon fill="#191970" stroke="#191970" points="758.4617,-251.2791 758.4392,-240.6843 751.8497,-248.9807 758.4617,-251.2791"/>
</g>
<!-- Node17 -->
<g id="node17" class="node">
<title>Node17</title>
<g id="a_node17"><a xlink:href="../../dc/d23/classBaseTruthEval.html#ac62b58b54f3e184b28ab9d44ea4292f7" target="_top" xlink:title="do these two particle pointers resolve to the same particle?">
<polygon fill="none" stroke="#000000" points="349.5,-51.5 349.5,-83.5 460.5,-83.5 460.5,-51.5 349.5,-51.5"/>
<text text-anchor="start" x="357.5" y="-70.5" font-family="FreeSans" font-size="10.00" fill="#000000">BaseTruthEval::are</text>
<text text-anchor="middle" x="405" y="-58.5" font-family="FreeSans" font-size="10.00" fill="#000000">_same_particle</text>
</a>
</g>
</g>
<!-- Node16&#45;&gt;Node17 -->
<g id="edge17" class="edge">
<title>Node16&#45;&gt;Node17</title>
<path fill="none" stroke="#191970" d="M279.984,-67.5C298.7368,-67.5 319.8926,-67.5 339.3952,-67.5"/>
<polygon fill="#191970" stroke="#191970" points="339.4217,-71.0001 349.4217,-67.5 339.4216,-64.0001 339.4217,-71.0001"/>
</g>
<!-- Node17&#45;&gt;Node14 -->
<g id="edge19" class="edge">
<title>Node17&#45;&gt;Node14</title>
<path fill="none" stroke="#191970" d="M460.6988,-58.3099C514.3091,-52.277 596.0054,-50.6794 657,-83.5 704.2503,-108.9249 736.6494,-165.4266 752.4343,-198.6717"/>
<polygon fill="#191970" stroke="#191970" points="749.4465,-200.5528 756.7978,-208.1824 755.8089,-197.6338 749.4465,-200.5528"/>
</g>
<!-- Node18 -->
<g id="node18" class="node">
<title>Node18</title>
<g id="a_node18"><a xlink:href="../../de/dc9/classPHG4Particle.html#ac29b72a8cdeebc0754b6dd42b0cfab86" target="_top" xlink:title="PHG4Particle::get_track_id">
<polygon fill="none" stroke="#000000" points="504.5,-93.5 504.5,-113.5 653.5,-113.5 653.5,-93.5 504.5,-93.5"/>
<text text-anchor="middle" x="579" y="-100.5" font-family="FreeSans" font-size="10.00" fill="#000000">PHG4Particle::get_track_id</text>
</a>
</g>
</g>
<!-- Node17&#45;&gt;Node18 -->
<g id="edge18" class="edge">
<title>Node17&#45;&gt;Node18</title>
<path fill="none" stroke="#191970" d="M460.5331,-78.9896C479.674,-82.9498 501.1635,-87.3959 520.5316,-91.4031"/>
<polygon fill="#191970" stroke="#191970" points="519.941,-94.855 530.4428,-93.4537 521.3593,-88.0001 519.941,-94.855"/>
</g>
<!-- Node23&#45;&gt;Node15 -->
<g id="edge25" class="edge">
<title>Node23&#45;&gt;Node15</title>
<path fill="none" stroke="#191970" d="M280.4747,-274.5C297.5652,-274.5 316.6134,-274.5 334.5695,-274.5"/>
<polygon fill="#191970" stroke="#191970" points="334.7018,-278.0001 344.7018,-274.5 334.7018,-271.0001 334.7018,-278.0001"/>
</g>
</g>
</svg>
