<?xml version="1.0" encoding="UTF-8" standalone="no"?>
<!DOCTYPE svg PUBLIC "-//W3C//DTD SVG 1.1//EN"
 "http://www.w3.org/Graphics/SVG/1.1/DTD/svg11.dtd">
<!-- Generated by graphviz version 2.40.1 (20161225.0304)
 -->
<!-- Title: PHNodeIterator::print Pages: 1 -->
<svg width="852pt" height="1535pt"
 viewBox="0.00 0.00 852.00 1535.00" xmlns="http://www.w3.org/2000/svg" xmlns:xlink="http://www.w3.org/1999/xlink">
<g id="graph0" class="graph" transform="scale(1 1) rotate(0) translate(4 1531)">
<title>PHNodeIterator::print</title>
<!-- Node1 -->
<g id="node1" class="node">
<title>Node1</title>
<polygon fill="#bfbfbf" stroke="#000000" points="0,-775.5 0,-795.5 124,-795.5 124,-775.5 0,-775.5"/>
<text text-anchor="middle" x="62" y="-782.5" font-family="FreeSans" font-size="10.00" fill="#000000">PHNodeIterator::print</text>
</g>
<!-- Node2 -->
<g id="node2" class="node">
<title>Node2</title>
<g id="a_node2"><a xlink:href="../../da/d29/classFun4AllServer.html#ae1b1a243ee1a67367c8da4ec3bdc003d" target="_top" xlink:title="Fun4AllServer::Print">
<polygon fill="none" stroke="#000000" points="167.5,-798.5 167.5,-818.5 284.5,-818.5 284.5,-798.5 167.5,-798.5"/>
<text text-anchor="middle" x="226" y="-805.5" font-family="FreeSans" font-size="10.00" fill="#000000">Fun4AllServer::Print</text>
</a>
</g>
</g>
<!-- Node1&#45;&gt;Node2 -->
<g id="edge1" class="edge">
<title>Node1&#45;&gt;Node2</title>
<path fill="none" stroke="#191970" d="M134.1318,-795.616C145.2642,-797.1773 156.6428,-798.7731 167.4308,-800.286"/>
<polygon fill="#191970" stroke="#191970" points="134.3906,-792.1182 124.0014,-794.1953 133.4183,-799.0503 134.3906,-792.1182"/>
</g>
<!-- Node46 -->
<g id="node46" class="node">
<title>Node46</title>
<g id="a_node46"><a xlink:href="../../da/d29/classFun4AllServer.html#a6a65a944dfb40966ace97d35ab1f7942" target="_top" xlink:title="Fun4AllServer::process\l_event">
<polygon fill="none" stroke="#000000" points="160,-747.5 160,-779.5 292,-779.5 292,-747.5 160,-747.5"/>
<text text-anchor="start" x="168" y="-766.5" font-family="FreeSans" font-size="10.00" fill="#000000">Fun4AllServer::process</text>
<text text-anchor="middle" x="226" y="-754.5" font-family="FreeSans" font-size="10.00" fill="#000000">_event</text>
</a>
</g>
</g>
<!-- Node1&#45;&gt;Node46 -->
<g id="edge45" class="edge">
<title>Node1&#45;&gt;Node46</title>
<path fill="none" stroke="#191970" d="M133.9885,-775.843C142.5739,-774.6913 151.3079,-773.5197 159.8064,-772.3796"/>
<polygon fill="#191970" stroke="#191970" points="133.4472,-772.3842 124.0014,-777.1827 134.378,-779.322 133.4472,-772.3842"/>
</g>
<!-- Node3 -->
<g id="node3" class="node">
<title>Node3</title>
<g id="a_node3"><a xlink:href="../../da/d29/classFun4AllServer.html#afcfc5583204cac58b4e66a2406187a18" target="_top" xlink:title="Fun4AllServer::BeginRun">
<polygon fill="none" stroke="#000000" points="336.5,-798.5 336.5,-818.5 477.5,-818.5 477.5,-798.5 336.5,-798.5"/>
<text text-anchor="middle" x="407" y="-805.5" font-family="FreeSans" font-size="10.00" fill="#000000">Fun4AllServer::BeginRun</text>
</a>
</g>
</g>
<!-- Node2&#45;&gt;Node3 -->
<g id="edge2" class="edge">
<title>Node2&#45;&gt;Node3</title>
<path fill="none" stroke="#191970" d="M294.9428,-808.5C308.4532,-808.5 322.6441,-808.5 336.2136,-808.5"/>
<polygon fill="#191970" stroke="#191970" points="294.7655,-805.0001 284.7655,-808.5 294.7655,-812.0001 294.7655,-805.0001"/>
</g>
<!-- Node44 -->
<g id="node44" class="node">
<title>Node44</title>
<g id="a_node44"><a xlink:href="../../d1/dec/classHcalRawTowerBuilder.html#a4d42afd3cf9d5d9f5569e87fa939d567" target="_top" xlink:title="HcalRawTowerBuilder\l::ReadParamsFromNodeTree">
<polygon fill="none" stroke="#000000" points="328,-837.5 328,-869.5 486,-869.5 486,-837.5 328,-837.5"/>
<text text-anchor="start" x="336" y="-856.5" font-family="FreeSans" font-size="10.00" fill="#000000">HcalRawTowerBuilder</text>
<text text-anchor="middle" x="407" y="-844.5" font-family="FreeSans" font-size="10.00" fill="#000000">::ReadParamsFromNodeTree</text>
</a>
</g>
</g>
<!-- Node2&#45;&gt;Node44 -->
<g id="edge43" class="edge">
<title>Node2&#45;&gt;Node44</title>
<path fill="none" stroke="#191970" d="M276.354,-821.019C296.7934,-826.1006 320.6592,-832.0341 342.3596,-837.4292"/>
<polygon fill="#191970" stroke="#191970" points="277.169,-817.6151 266.6199,-818.5989 275.48,-824.4083 277.169,-817.6151"/>
</g>
<!-- Node4 -->
<g id="node4" class="node">
<title>Node4</title>
<g id="a_node4"><a xlink:href="../../da/d29/classFun4AllServer.html#a11bbc8b2f53bc06e0b05ee202dd6372a" target="_top" xlink:title="run n events (0 means up to end of file)">
<polygon fill="none" stroke="#000000" points="529.5,-753.5 529.5,-773.5 639.5,-773.5 639.5,-753.5 529.5,-753.5"/>
<text text-anchor="middle" x="584.5" y="-760.5" font-family="FreeSans" font-size="10.00" fill="#000000">Fun4AllServer::run</text>
</a>
</g>
</g>
<!-- Node3&#45;&gt;Node4 -->
<g id="edge3" class="edge">
<title>Node3&#45;&gt;Node4</title>
<path fill="none" stroke="#191970" d="M456.7188,-795.9178C466.4294,-793.459 476.534,-790.8995 486,-788.5 505.3253,-783.6013 526.7816,-778.1563 544.7224,-773.6016"/>
<polygon fill="#191970" stroke="#191970" points="455.6204,-792.5854 446.7853,-798.4328 457.3385,-799.3713 455.6204,-792.5854"/>
</g>
<!-- Node5 -->
<g id="node5" class="node">
<title>Node5</title>
<g id="a_node5"><a xlink:href="../../dd/d9c/AnalyzeTree_8C.html#af10d516ac25cd720d54534a63ef7e2f8" target="_top" xlink:title="AnalyzeTree">
<polygon fill="none" stroke="#000000" points="724.5,-1506.5 724.5,-1526.5 802.5,-1526.5 802.5,-1506.5 724.5,-1506.5"/>
<text text-anchor="middle" x="763.5" y="-1513.5" font-family="FreeSans" font-size="10.00" fill="#000000">AnalyzeTree</text>
</a>
</g>
</g>
<!-- Node4&#45;&gt;Node5 -->
<g id="edge4" class="edge">
<title>Node4&#45;&gt;Node5</title>
<path fill="none" stroke="#191970" d="M606.8913,-779.8017C621.1328,-791.5722 638.4494,-808.8147 647,-828.5 676.6576,-896.7779 635.2499,-1440.3916 683,-1497.5 693.04,-1509.5077 709.1241,-1514.7346 724.2853,-1516.7781"/>
<polygon fill="#191970" stroke="#191970" points="608.9668,-776.9809 598.9509,-773.5266 604.6265,-782.473 608.9668,-776.9809"/>
</g>
<!-- Node6 -->
<g id="node6" class="node">
<title>Node6</title>
<g id="a_node6"><a xlink:href="../../db/dc0/Fun4All__AnaTutorial_8C.html#a8c484ea6d7477278e981ef056b17eac9" target="_top" xlink:title="Fun4All_AnaTutorial">
<polygon fill="none" stroke="#000000" points="706,-1467.5 706,-1487.5 821,-1487.5 821,-1467.5 706,-1467.5"/>
<text text-anchor="middle" x="763.5" y="-1474.5" font-family="FreeSans" font-size="10.00" fill="#000000">Fun4All_AnaTutorial</text>
</a>
</g>
</g>
<!-- Node4&#45;&gt;Node6 -->
<g id="edge5" class="edge">
<title>Node4&#45;&gt;Node6</title>
<path fill="none" stroke="#191970" d="M606.8701,-779.8109C621.1025,-791.5855 638.4167,-808.8289 647,-828.5 675.0405,-892.763 637.936,-1404.7856 683,-1458.5 688.999,-1465.6506 697.1414,-1470.395 705.9519,-1473.494"/>
<polygon fill="#191970" stroke="#191970" points="608.9497,-776.9932 598.9357,-773.5332 604.6063,-782.4828 608.9497,-776.9932"/>
</g>
<!-- Node7 -->
<g id="node7" class="node">
<title>Node7</title>
<g id="a_node7"><a xlink:href="../../dd/d28/Fun4All__AnaTutorial__Jets_8C.html#a55eaaeb770a3177f917012de87877d28" target="_top" xlink:title="Fun4All_AnaTutorial_Jets">
<polygon fill="none" stroke="#000000" points="694,-1428.5 694,-1448.5 833,-1448.5 833,-1428.5 694,-1428.5"/>
<text text-anchor="middle" x="763.5" y="-1435.5" font-family="FreeSans" font-size="10.00" fill="#000000">Fun4All_AnaTutorial_Jets</text>
</a>
</g>
</g>
<!-- Node4&#45;&gt;Node7 -->
<g id="edge6" class="edge">
<title>Node4&#45;&gt;Node7</title>
<path fill="none" stroke="#191970" d="M606.8462,-779.8214C621.0682,-791.6005 638.3798,-808.8451 647,-828.5 699.8475,-948.9972 598.2434,-1318.8583 683,-1419.5 686.145,-1423.2344 689.8745,-1426.312 693.9779,-1428.8414"/>
<polygon fill="#191970" stroke="#191970" points="608.9303,-777.0072 598.9186,-773.5407 604.5834,-782.4939 608.9303,-777.0072"/>
</g>
<!-- Node8 -->
<g id="node8" class="node">
<title>Node8</title>
<g id="a_node8"><a xlink:href="../../df/d77/Fun4All__CaloAna_8C.html#a4f0841e3d8be48f96cc4e95380315ff8" target="_top" xlink:title="Fun4All_CaloAna">
<polygon fill="none" stroke="#000000" points="713.5,-1389.5 713.5,-1409.5 813.5,-1409.5 813.5,-1389.5 713.5,-1389.5"/>
<text text-anchor="middle" x="763.5" y="-1396.5" font-family="FreeSans" font-size="10.00" fill="#000000">Fun4All_CaloAna</text>
</a>
</g>
</g>
<!-- Node4&#45;&gt;Node8 -->
<g id="edge7" class="edge">
<title>Node4&#45;&gt;Node8</title>
<path fill="none" stroke="#191970" d="M606.8189,-779.8333C621.029,-791.6177 638.3377,-808.8636 647,-828.5 696.6147,-940.97 603.6137,-1286.6441 683,-1380.5 690.697,-1389.5999 701.8649,-1394.7963 713.4441,-1397.6639"/>
<polygon fill="#191970" stroke="#191970" points="608.9082,-777.0232 598.8991,-773.5492 604.5572,-782.5067 608.9082,-777.0232"/>
</g>
<!-- Node9 -->
<g id="node9" class="node">
<title>Node9</title>
<g id="a_node9"><a xlink:href="../../d5/df2/Fun4All__EIC__Generator__Display_8C.html#a276181099936efe81415286b29f36e51" target="_top" xlink:title="Fun4All_EIC_Generator\l_Display">
<polygon fill="none" stroke="#000000" points="697.5,-1338.5 697.5,-1370.5 829.5,-1370.5 829.5,-1338.5 697.5,-1338.5"/>
<text text-anchor="start" x="705.5" y="-1357.5" font-family="FreeSans" font-size="10.00" fill="#000000">Fun4All_EIC_Generator</text>
<text text-anchor="middle" x="763.5" y="-1345.5" font-family="FreeSans" font-size="10.00" fill="#000000">_Display</text>
</a>
</g>
</g>
<!-- Node4&#45;&gt;Node9 -->
<g id="edge8" class="edge">
<title>Node4&#45;&gt;Node9</title>
<path fill="none" stroke="#191970" d="M606.777,-779.8519C620.9688,-791.6444 638.2728,-808.8923 647,-828.5 692.3883,-930.4756 613.6235,-1242.0585 683,-1329.5 686.9112,-1334.4296 691.7796,-1338.4085 697.1734,-1341.6169"/>
<polygon fill="#191970" stroke="#191970" points="608.8742,-777.0479 598.869,-773.5626 604.5169,-782.5265 608.8742,-777.0479"/>
</g>
<!-- Node10 -->
<g id="node10" class="node">
<title>Node10</title>
<g id="a_node10"><a xlink:href="../../df/d51/Fun4All__ExportGeom_8C.html#a582925c51bad38d562cf19e71211adfd" target="_top" xlink:title="get geometry from DST file and output TGeoManager ROOT files or other formats of geometry files...">
<polygon fill="none" stroke="#000000" points="702.5,-1299.5 702.5,-1319.5 824.5,-1319.5 824.5,-1299.5 702.5,-1299.5"/>
<text text-anchor="middle" x="763.5" y="-1306.5" font-family="FreeSans" font-size="10.00" fill="#000000">Fun4All_ExportGeom</text>
</a>
</g>
</g>
<!-- Node4&#45;&gt;Node10 -->
<g id="edge9" class="edge">
<title>Node4&#45;&gt;Node10</title>
<path fill="none" stroke="#191970" d="M606.7387,-779.869C620.9139,-791.6689 638.2137,-808.9187 647,-828.5 689.1575,-922.4531 616.0014,-1212.2975 683,-1290.5 688.2318,-1296.6067 695.0268,-1300.951 702.4507,-1304.0116"/>
<polygon fill="#191970" stroke="#191970" points="608.8432,-777.0706 598.8416,-773.5748 604.4802,-782.5446 608.8432,-777.0706"/>
</g>
<!-- Node11 -->
<g id="node11" class="node">
<title>Node11</title>
<g id="a_node11"><a xlink:href="../../de/d55/Fun4All__G4__block_8C.html#a6a063a649a0dd3318a517d5af98430dd" target="_top" xlink:title="Fun4All_G4_block">
<polygon fill="none" stroke="#000000" points="711,-1260.5 711,-1280.5 816,-1280.5 816,-1260.5 711,-1260.5"/>
<text text-anchor="middle" x="763.5" y="-1267.5" font-family="FreeSans" font-size="10.00" fill="#000000">Fun4All_G4_block</text>
</a>
</g>
</g>
<!-- Node4&#45;&gt;Node11 -->
<g id="edge10" class="edge">
<title>Node4&#45;&gt;Node11</title>
<path fill="none" stroke="#191970" d="M606.6935,-779.8894C620.8491,-791.6981 638.1439,-808.9502 647,-828.5 685.9281,-914.4337 621.3662,-1180.0768 683,-1251.5 690.1299,-1259.7623 700.1213,-1264.7935 710.6467,-1267.7837"/>
<polygon fill="#191970" stroke="#191970" points="608.8064,-777.0976 598.8093,-773.5894 604.4367,-782.5662 608.8064,-777.0976"/>
</g>
<!-- Node12 -->
<g id="node12" class="node">
<title>Node12</title>
<g id="a_node12"><a xlink:href="../../d8/d91/Fun4All__G4__Clusters_8C.html#ab7d8e64f12f512631d4c0e8c6683ec5b" target="_top" xlink:title="Fun4All_G4_Clusters">
<polygon fill="none" stroke="#000000" points="704,-1221.5 704,-1241.5 823,-1241.5 823,-1221.5 704,-1221.5"/>
<text text-anchor="middle" x="763.5" y="-1228.5" font-family="FreeSans" font-size="10.00" fill="#000000">Fun4All_G4_Clusters</text>
</a>
</g>
</g>
<!-- Node4&#45;&gt;Node12 -->
<g id="edge11" class="edge">
<title>Node4&#45;&gt;Node12</title>
<path fill="none" stroke="#191970" d="M606.6394,-779.9141C620.7713,-791.7336 638.0602,-808.9883 647,-828.5 682.7005,-906.4182 626.7281,-1147.8528 683,-1212.5 688.5625,-1218.8904 695.8369,-1223.3444 703.7386,-1226.4152"/>
<polygon fill="#191970" stroke="#191970" points="608.7624,-777.1302 598.7705,-773.6071 604.3844,-782.5923 608.7624,-777.1302"/>
</g>
<!-- Node13 -->
<g id="node13" class="node">
<title>Node13</title>
<g id="a_node13"><a xlink:href="../../d2/dee/Fun4All__G4__Cylinder_8C.html#a271dc4f10f6f77107705e0efef0c97e5" target="_top" xlink:title="Fun4All_G4_Cylinder">
<polygon fill="none" stroke="#000000" points="703,-1182.5 703,-1202.5 824,-1202.5 824,-1182.5 703,-1182.5"/>
<text text-anchor="middle" x="763.5" y="-1189.5" font-family="FreeSans" font-size="10.00" fill="#000000">Fun4All_G4_Cylinder</text>
</a>
</g>
</g>
<!-- Node4&#45;&gt;Node13 -->
<g id="edge12" class="edge">
<title>Node4&#45;&gt;Node13</title>
<path fill="none" stroke="#191970" d="M606.5732,-779.9446C620.6763,-791.7774 637.9579,-809.0355 647,-828.5 679.4753,-898.408 632.0863,-1115.6245 683,-1173.5 688.4063,-1179.6455 695.3959,-1183.9963 702.9958,-1187.0468"/>
<polygon fill="#191970" stroke="#191970" points="608.7085,-777.1705 598.7231,-773.6289 604.3205,-782.6245 608.7085,-777.1705"/>
</g>
<!-- Node14 -->
<g id="node14" class="node">
<title>Node14</title>
<g id="a_node14"><a xlink:href="../../da/d02/Fun4All__G4__EICDetector_8C.html#afbe82cefa1d1fd031d9a8586b7bb68c6" target="_top" xlink:title="Fun4All_G4_EICDetector">
<polygon fill="none" stroke="#000000" points="694,-1143.5 694,-1163.5 833,-1163.5 833,-1143.5 694,-1143.5"/>
<text text-anchor="middle" x="763.5" y="-1150.5" font-family="FreeSans" font-size="10.00" fill="#000000">Fun4All_G4_EICDetector</text>
</a>
</g>
</g>
<!-- Node4&#45;&gt;Node14 -->
<g id="edge13" class="edge">
<title>Node4&#45;&gt;Node14</title>
<path fill="none" stroke="#191970" d="M606.4905,-779.9833C620.5577,-791.833 637.8302,-809.0953 647,-828.5 676.2535,-890.405 637.4391,-1083.3902 683,-1134.5 686.1532,-1138.0373 689.8312,-1140.9783 693.8462,-1143.4181"/>
<polygon fill="#191970" stroke="#191970" points="608.6411,-777.2212 598.6639,-773.6567 604.2405,-782.6651 608.6411,-777.2212"/>
</g>
<!-- Node15 -->
<g id="node15" class="node">
<title>Node15</title>
<g id="a_node15"><a xlink:href="../../d5/d7d/Fun4All__G4__Example01_8C.html#ab61e640155444e40e5ff32fe50125b4d" target="_top" xlink:title="Fun4All_G4_Example01">
<polygon fill="none" stroke="#000000" points="696,-1104.5 696,-1124.5 831,-1124.5 831,-1104.5 696,-1104.5"/>
<text text-anchor="middle" x="763.5" y="-1111.5" font-family="FreeSans" font-size="10.00" fill="#000000">Fun4All_G4_Example01</text>
</a>
</g>
</g>
<!-- Node4&#45;&gt;Node15 -->
<g id="edge14" class="edge">
<title>Node4&#45;&gt;Node15</title>
<path fill="none" stroke="#191970" d="M606.3845,-780.034C620.4055,-791.9056 637.6665,-809.1736 647,-828.5 699.0731,-936.3247 602.5688,-1006.7949 683,-1095.5 686.6653,-1099.5424 691.0162,-1102.8033 695.7684,-1105.4257"/>
<polygon fill="#191970" stroke="#191970" points="608.5545,-777.2874 598.588,-773.6929 604.1376,-782.718 608.5545,-777.2874"/>
</g>
<!-- Node16 -->
<g id="node16" class="node">
<title>Node16</title>
<g id="a_node16"><a xlink:href="../../df/ddd/Fun4All__G4__Example02_8C.html#a828c51f9608f078106cef9343df49316" target="_top" xlink:title="Fun4All_G4_Example02">
<polygon fill="none" stroke="#000000" points="696,-1065.5 696,-1085.5 831,-1085.5 831,-1065.5 696,-1065.5"/>
<text text-anchor="middle" x="763.5" y="-1072.5" font-family="FreeSans" font-size="10.00" fill="#000000">Fun4All_G4_Example02</text>
</a>
</g>
</g>
<!-- Node4&#45;&gt;Node16 -->
<g id="edge15" class="edge">
<title>Node4&#45;&gt;Node16</title>
<path fill="none" stroke="#191970" d="M605.9887,-779.8859C619.9928,-791.7941 637.3906,-809.163 647,-828.5 692.6541,-920.3703 613.2363,-981.2839 683,-1056.5 686.7107,-1060.5007 691.0935,-1063.7324 695.8672,-1066.3352"/>
<polygon fill="#191970" stroke="#191970" points="608.1766,-777.1537 598.22,-773.5319 603.7448,-782.5722 608.1766,-777.1537"/>
</g>
<!-- Node17 -->
<g id="node17" class="node">
<title>Node17</title>
<g id="a_node17"><a xlink:href="../../d1/dc4/Fun4All__G4__Example03_8C.html#a6519821c64f56c74d049579392dfac3f" target="_top" xlink:title="Fun4All_G4_Example03">
<polygon fill="none" stroke="#000000" points="696,-1026.5 696,-1046.5 831,-1046.5 831,-1026.5 696,-1026.5"/>
<text text-anchor="middle" x="763.5" y="-1033.5" font-family="FreeSans" font-size="10.00" fill="#000000">Fun4All_G4_Example03</text>
</a>
</g>
</g>
<!-- Node4&#45;&gt;Node17 -->
<g id="edge16" class="edge">
<title>Node4&#45;&gt;Node17</title>
<path fill="none" stroke="#191970" d="M605.7944,-779.9843C619.7119,-791.9364 637.0861,-809.3173 647,-828.5 686.2597,-904.465 623.8663,-955.7326 683,-1017.5 686.6742,-1021.3379 690.9679,-1024.4632 695.6253,-1027.0019"/>
<polygon fill="#191970" stroke="#191970" points="608.0175,-777.281 598.0819,-773.6019 603.5546,-782.6739 608.0175,-777.281"/>
</g>
<!-- Node18 -->
<g id="node18" class="node">
<title>Node18</title>
<g id="a_node18"><a xlink:href="../../d2/de6/Fun4All__G4__FAIR_8C.html#a0f795c46d42e46f79023437a1db4dc29" target="_top" xlink:title="Fun4All_G4_FAIR">
<polygon fill="none" stroke="#000000" points="713.5,-987.5 713.5,-1007.5 813.5,-1007.5 813.5,-987.5 713.5,-987.5"/>
<text text-anchor="middle" x="763.5" y="-994.5" font-family="FreeSans" font-size="10.00" fill="#000000">Fun4All_G4_FAIR</text>
</a>
</g>
</g>
<!-- Node4&#45;&gt;Node18 -->
<g id="edge17" class="edge">
<title>Node4&#45;&gt;Node18</title>
<path fill="none" stroke="#191970" d="M605.8941,-780.4759C619.6194,-792.4831 636.7319,-809.7343 647,-828.5 679.9096,-888.6449 634.4298,-930.1122 683,-978.5 691.1383,-986.6078 702.0515,-991.5037 713.2106,-994.4033"/>
<polygon fill="#191970" stroke="#191970" points="607.7771,-777.4852 597.8774,-773.7107 603.2625,-782.8349 607.7771,-777.4852"/>
</g>
<!-- Node19 -->
<g id="node19" class="node">
<title>Node19</title>
<g id="a_node19"><a xlink:href="../../da/de9/Fun4All__G4__FAIR__barrel__only_8C.html#ad17d6575f5ac06812f55b6cef25e64ba" target="_top" xlink:title="Fun4All_G4_FAIR_barrel_only">
<polygon fill="none" stroke="#000000" points="683,-948.5 683,-968.5 844,-968.5 844,-948.5 683,-948.5"/>
<text text-anchor="middle" x="763.5" y="-955.5" font-family="FreeSans" font-size="10.00" fill="#000000">Fun4All_G4_FAIR_barrel_only</text>
</a>
</g>
</g>
<!-- Node4&#45;&gt;Node19 -->
<g id="edge18" class="edge">
<title>Node4&#45;&gt;Node19</title>
<path fill="none" stroke="#191970" d="M605.1761,-780.5267C618.7366,-792.6607 635.9408,-810.0381 647,-828.5 673.6516,-872.9912 644.8578,-904.3582 683,-939.5 686.9075,-943.1001 691.367,-946.0564 696.1374,-948.4799"/>
<polygon fill="#191970" stroke="#191970" points="607.1384,-777.5955 597.2911,-773.6863 602.5513,-782.8831 607.1384,-777.5955"/>
</g>
<!-- Node20 -->
<g id="node20" class="node">
<title>Node20</title>
<g id="a_node20"><a xlink:href="../../d7/dc5/Fun4All__G4__FastMom_8C.html#ab9349be2377fe9e9a634a8607cff2555" target="_top" xlink:title="Fun4All_G4_FastMom">
<polygon fill="none" stroke="#000000" points="702,-909.5 702,-929.5 825,-929.5 825,-909.5 702,-909.5"/>
<text text-anchor="middle" x="763.5" y="-916.5" font-family="FreeSans" font-size="10.00" fill="#000000">Fun4All_G4_FastMom</text>
</a>
</g>
</g>
<!-- Node4&#45;&gt;Node20 -->
<g id="edge19" class="edge">
<title>Node4&#45;&gt;Node20</title>
<path fill="none" stroke="#191970" d="M603.8317,-780.6478C617.0714,-793.056 634.4387,-810.707 647,-828.5 667.6337,-857.7275 654.9453,-878.2979 683,-900.5 688.6301,-904.9556 695.1318,-908.3955 701.9498,-911.0465"/>
<polygon fill="#191970" stroke="#191970" points="605.9355,-777.828 596.2013,-773.645 601.2023,-782.9853 605.9355,-777.828"/>
</g>
<!-- Node21 -->
<g id="node21" class="node">
<title>Node21</title>
<g id="a_node21"><a xlink:href="../../d7/d9e/Fun4All__G4__fsPHENIX_8C.html#a72c444217210a14ab1b4e66d9818b1ff" target="_top" xlink:title="Fun4All_G4_fsPHENIX">
<polygon fill="none" stroke="#000000" points="701.5,-870.5 701.5,-890.5 825.5,-890.5 825.5,-870.5 701.5,-870.5"/>
<text text-anchor="middle" x="763.5" y="-877.5" font-family="FreeSans" font-size="10.00" fill="#000000">Fun4All_G4_fsPHENIX</text>
</a>
</g>
</g>
<!-- Node4&#45;&gt;Node21 -->
<g id="edge20" class="edge">
<title>Node4&#45;&gt;Node21</title>
<path fill="none" stroke="#191970" d="M601.2032,-781.1297C626.675,-807.857 673.3028,-856.1099 683,-861.5 689.5266,-865.1278 696.7231,-868.0657 704.0482,-870.4443"/>
<polygon fill="#191970" stroke="#191970" points="603.4687,-778.4329 594.0417,-773.5974 598.3956,-783.2562 603.4687,-778.4329"/>
</g>
<!-- Node22 -->
<g id="node22" class="node">
<title>Node22</title>
<g id="a_node22"><a xlink:href="../../dc/d3f/Fun4All__G4__Geantino_8C.html#a2a4c70246a9a6288b367a2fa7c1d1087" target="_top" xlink:title="Fun4All_G4_Geantino">
<polygon fill="none" stroke="#000000" points="701.5,-831.5 701.5,-851.5 825.5,-851.5 825.5,-831.5 701.5,-831.5"/>
<text text-anchor="middle" x="763.5" y="-838.5" font-family="FreeSans" font-size="10.00" fill="#000000">Fun4All_G4_Geantino</text>
</a>
</g>
</g>
<!-- Node4&#45;&gt;Node22 -->
<g id="edge21" class="edge">
<title>Node4&#45;&gt;Node22</title>
<path fill="none" stroke="#191970" d="M606.5152,-779.3995C625.8244,-792.6651 655.0979,-811.1698 683,-822.5 691.648,-826.0117 701.0941,-828.965 710.3756,-831.4171"/>
<polygon fill="#191970" stroke="#191970" points="608.3368,-776.4025 598.1359,-773.5404 604.3255,-782.1392 608.3368,-776.4025"/>
</g>
<!-- Node23 -->
<g id="node23" class="node">
<title>Node23</title>
<g id="a_node23"><a xlink:href="../../df/de1/Fun4All__G4__IonGun_8C.html#ab4966a2ae337cb8f0e45f7ee488e33b7" target="_top" xlink:title="Fun4All_G4_IonGun">
<polygon fill="none" stroke="#000000" points="706.5,-792.5 706.5,-812.5 820.5,-812.5 820.5,-792.5 706.5,-792.5"/>
<text text-anchor="middle" x="763.5" y="-799.5" font-family="FreeSans" font-size="10.00" fill="#000000">Fun4All_G4_IonGun</text>
</a>
</g>
</g>
<!-- Node4&#45;&gt;Node23 -->
<g id="edge22" class="edge">
<title>Node4&#45;&gt;Node23</title>
<path fill="none" stroke="#191970" d="M640.5812,-775.7188C665.3446,-781.1142 694.0935,-787.3779 717.5593,-792.4906"/>
<polygon fill="#191970" stroke="#191970" points="641.1128,-772.2526 630.5969,-773.5435 639.6226,-779.0921 641.1128,-772.2526"/>
</g>
<!-- Node24 -->
<g id="node24" class="node">
<title>Node24</title>
<g id="a_node24"><a xlink:href="../../d0/d87/Fun4All__G4__JLeic_8C.html#a66e8fc0b01ee0a8e805c7b99c4698974" target="_top" xlink:title="Fun4All_G4_JLeic">
<polygon fill="none" stroke="#000000" points="713,-753.5 713,-773.5 814,-773.5 814,-753.5 713,-753.5"/>
<text text-anchor="middle" x="763.5" y="-760.5" font-family="FreeSans" font-size="10.00" fill="#000000">Fun4All_G4_JLeic</text>
</a>
</g>
</g>
<!-- Node4&#45;&gt;Node24 -->
<g id="edge23" class="edge">
<title>Node4&#45;&gt;Node24</title>
<path fill="none" stroke="#191970" d="M649.6995,-763.5C670.4913,-763.5 693.1762,-763.5 712.7826,-763.5"/>
<polygon fill="#191970" stroke="#191970" points="649.6665,-760.0001 639.6665,-763.5 649.6665,-767.0001 649.6665,-760.0001"/>
</g>
<!-- Node25 -->
<g id="node25" class="node">
<title>Node25</title>
<g id="a_node25"><a xlink:href="../../d9/d1f/Fun4All__G4__Lmon_8C.html#a4f09ca292c4b3a82ce38b19ac3858d74" target="_top" xlink:title="Fun4All_G4_Lmon">
<polygon fill="none" stroke="#000000" points="710.5,-714.5 710.5,-734.5 816.5,-734.5 816.5,-714.5 710.5,-714.5"/>
<text text-anchor="middle" x="763.5" y="-721.5" font-family="FreeSans" font-size="10.00" fill="#000000">Fun4All_G4_Lmon</text>
</a>
</g>
</g>
<!-- Node4&#45;&gt;Node25 -->
<g id="edge24" class="edge">
<title>Node4&#45;&gt;Node25</title>
<path fill="none" stroke="#191970" d="M640.5812,-751.2812C665.3446,-745.8858 694.0935,-739.6221 717.5593,-734.5094"/>
<polygon fill="#191970" stroke="#191970" points="639.6226,-747.9079 630.5969,-753.4565 641.1128,-754.7474 639.6226,-747.9079"/>
</g>
<!-- Node26 -->
<g id="node26" class="node">
<title>Node26</title>
<g id="a_node26"><a xlink:href="../../dd/d8d/Fun4All__G4__Magnet_8C.html#a375961511ba614ba387343e652ab0202" target="_top" xlink:title="Fun4All_G4_Magnet">
<polygon fill="none" stroke="#000000" points="705.5,-675.5 705.5,-695.5 821.5,-695.5 821.5,-675.5 705.5,-675.5"/>
<text text-anchor="middle" x="763.5" y="-682.5" font-family="FreeSans" font-size="10.00" fill="#000000">Fun4All_G4_Magnet</text>
</a>
</g>
</g>
<!-- Node4&#45;&gt;Node26 -->
<g id="edge25" class="edge">
<title>Node4&#45;&gt;Node26</title>
<path fill="none" stroke="#191970" d="M606.5152,-747.6005C625.8244,-734.3349 655.0979,-715.8302 683,-704.5 691.648,-700.9883 701.0941,-698.035 710.3756,-695.5829"/>
<polygon fill="#191970" stroke="#191970" points="604.3255,-744.8608 598.1359,-753.4596 608.3368,-750.5975 604.3255,-744.8608"/>
</g>
<!-- Node27 -->
<g id="node27" class="node">
<title>Node27</title>
<g id="a_node27"><a xlink:href="../../d9/d8f/Fun4All__G4__Momentum_8C.html#afbd7a4eecd7792e9216ce80b5514123e" target="_top" xlink:title="Fun4All_G4_Momentum">
<polygon fill="none" stroke="#000000" points="696,-636.5 696,-656.5 831,-656.5 831,-636.5 696,-636.5"/>
<text text-anchor="middle" x="763.5" y="-643.5" font-family="FreeSans" font-size="10.00" fill="#000000">Fun4All_G4_Momentum</text>
</a>
</g>
</g>
<!-- Node4&#45;&gt;Node27 -->
<g id="edge26" class="edge">
<title>Node4&#45;&gt;Node27</title>
<path fill="none" stroke="#191970" d="M597.5979,-745.3391C614.6812,-723.0318 646.7034,-685.6752 683,-665.5 689.5266,-661.8722 696.7231,-658.9343 704.0482,-656.5557"/>
<polygon fill="#191970" stroke="#191970" points="594.7925,-743.2463 591.6094,-753.3517 600.3996,-747.4369 594.7925,-743.2463"/>
</g>
<!-- Node28 -->
<g id="node28" class="node">
<title>Node28</title>
<g id="a_node28"><a xlink:href="../../d1/d54/Fun4All__G4__MyDetector_8C.html#a42ff88b75bd8510ae12cc9757b9a693b" target="_top" xlink:title="Fun4All_G4_MyDetector">
<polygon fill="none" stroke="#000000" points="695,-597.5 695,-617.5 832,-617.5 832,-597.5 695,-597.5"/>
<text text-anchor="middle" x="763.5" y="-604.5" font-family="FreeSans" font-size="10.00" fill="#000000">Fun4All_G4_MyDetector</text>
</a>
</g>
</g>
<!-- Node4&#45;&gt;Node28 -->
<g id="edge27" class="edge">
<title>Node4&#45;&gt;Node28</title>
<path fill="none" stroke="#191970" d="M593.0034,-743.892C607.126,-713.7443 638.351,-656.3701 683,-626.5 688.3708,-622.9069 694.3408,-619.99 700.5334,-617.6225"/>
<polygon fill="#191970" stroke="#191970" points="589.666,-742.7772 588.7273,-753.3304 596.0422,-745.6659 589.666,-742.7772"/>
</g>
<!-- Node29 -->
<g id="node29" class="node">
<title>Node29</title>
<g id="a_node29"><a xlink:href="../../d0/d13/Fun4All__G4__sPHENIX_8C.html#a536fa7366e3aeaf273cca94ced704c46" target="_top" xlink:title="Fun4All_G4_sPHENIX">
<polygon fill="none" stroke="#000000" points="703,-558.5 703,-578.5 824,-578.5 824,-558.5 703,-558.5"/>
<text text-anchor="middle" x="763.5" y="-565.5" font-family="FreeSans" font-size="10.00" fill="#000000">Fun4All_G4_sPHENIX</text>
</a>
</g>
</g>
<!-- Node4&#45;&gt;Node29 -->
<g id="edge28" class="edge">
<title>Node4&#45;&gt;Node29</title>
<path fill="none" stroke="#191970" d="M589.9608,-743.1384C600.9889,-706.1004 629.5429,-627.8167 683,-587.5 688.9616,-583.0038 695.8228,-579.5503 702.972,-576.9013"/>
<polygon fill="#191970" stroke="#191970" points="586.4623,-742.645 587.0927,-753.221 593.1952,-744.5602 586.4623,-742.645"/>
</g>
<!-- Node30 -->
<g id="node30" class="node">
<title>Node30</title>
<g id="a_node30"><a xlink:href="../../d1/d9c/Fun4All__G4__Write__Dst_8C.html#a97c6c9ea797219c94a95ae2fe4bc79c3" target="_top" xlink:title="Fun4All_G4_Write_Dst">
<polygon fill="none" stroke="#000000" points="700,-519.5 700,-539.5 827,-539.5 827,-519.5 700,-519.5"/>
<text text-anchor="middle" x="763.5" y="-526.5" font-family="FreeSans" font-size="10.00" fill="#000000">Fun4All_G4_Write_Dst</text>
</a>
</g>
</g>
<!-- Node4&#45;&gt;Node30 -->
<g id="edge29" class="edge">
<title>Node4&#45;&gt;Node30</title>
<path fill="none" stroke="#191970" d="M587.771,-742.9117C595.7432,-699.8163 620.3238,-599.86 683,-548.5 687.9981,-544.4043 693.7264,-541.1614 699.7738,-538.5981"/>
<polygon fill="#191970" stroke="#191970" points="584.277,-742.5764 586.0164,-753.0275 591.174,-743.7728 584.277,-742.5764"/>
</g>
<!-- Node31 -->
<g id="node31" class="node">
<title>Node31</title>
<g id="a_node31"><a xlink:href="../../d4/dfa/Fun4All__Generator__Display_8C.html#af87924a94b22e18901f0d64805565f09" target="_top" xlink:title="Fun4All_Generator_Display">
<polygon fill="none" stroke="#000000" points="687.5,-480.5 687.5,-500.5 839.5,-500.5 839.5,-480.5 687.5,-480.5"/>
<text text-anchor="middle" x="763.5" y="-487.5" font-family="FreeSans" font-size="10.00" fill="#000000">Fun4All_Generator_Display</text>
</a>
</g>
</g>
<!-- Node4&#45;&gt;Node31 -->
<g id="edge30" class="edge">
<title>Node4&#45;&gt;Node31</title>
<path fill="none" stroke="#191970" d="M586.1247,-743.2726C591.1276,-695.0119 610.6751,-572.4644 683,-509.5 687.1156,-505.9171 691.7831,-502.9792 696.7479,-500.5738"/>
<polygon fill="#191970" stroke="#191970" points="582.626,-743.0964 585.1822,-753.3783 589.5958,-743.7465 582.626,-743.0964"/>
</g>
<!-- Node32 -->
<g id="node32" class="node">
<title>Node32</title>
<g id="a_node32"><a xlink:href="../../d9/d0f/Fun4All__ImportGeom_8C.html#a3388968a8dae60e9eb62b1126f747b6a" target="_top" xlink:title="Read in a Geometry file, and output DST and ROOT TGeo files.">
<polygon fill="none" stroke="#000000" points="702.5,-441.5 702.5,-461.5 824.5,-461.5 824.5,-441.5 702.5,-441.5"/>
<text text-anchor="middle" x="763.5" y="-448.5" font-family="FreeSans" font-size="10.00" fill="#000000">Fun4All_ImportGeom</text>
</a>
</g>
</g>
<!-- Node4&#45;&gt;Node32 -->
<g id="edge31" class="edge">
<title>Node4&#45;&gt;Node32</title>
<path fill="none" stroke="#191970" d="M588.6142,-743.3791C601.2328,-683.5775 641.0823,-508.7083 683,-470.5 688.5185,-465.4698 695.1166,-461.6992 702.1279,-458.8841"/>
<polygon fill="#191970" stroke="#191970" points="585.1313,-742.937 586.5205,-753.4403 591.9845,-744.3631 585.1313,-742.937"/>
</g>
<!-- Node33 -->
<g id="node33" class="node">
<title>Node33</title>
<g id="a_node33"><a xlink:href="../../db/d96/Fun4All__JetAna_8C.html#a519de39bdb8606d50d045cc11466e2e6" target="_top" xlink:title="Fun4All_JetAna">
<polygon fill="none" stroke="#000000" points="718,-402.5 718,-422.5 809,-422.5 809,-402.5 718,-402.5"/>
<text text-anchor="middle" x="763.5" y="-409.5" font-family="FreeSans" font-size="10.00" fill="#000000">Fun4All_JetAna</text>
</a>
</g>
</g>
<!-- Node4&#45;&gt;Node33 -->
<g id="edge32" class="edge">
<title>Node4&#45;&gt;Node33</title>
<path fill="none" stroke="#191970" d="M587.7862,-743.3212C598.7766,-678.2658 636.2105,-475.712 683,-431.5 692.3935,-422.6239 705.1317,-417.6405 717.7019,-414.9098"/>
<polygon fill="#191970" stroke="#191970" points="584.2834,-743.0496 586.0962,-753.4882 591.1886,-744.1975 584.2834,-743.0496"/>
</g>
<!-- Node34 -->
<g id="node34" class="node">
<title>Node34</title>
<g id="a_node34"><a xlink:href="../../d9/dc6/Fun4All__MySimpleReco_8C.html#ad7331daaa361667fbb6d60ce362d4288" target="_top" xlink:title="Fun4All_MySimpleReco">
<polygon fill="none" stroke="#000000" points="697.5,-363.5 697.5,-383.5 829.5,-383.5 829.5,-363.5 697.5,-363.5"/>
<text text-anchor="middle" x="763.5" y="-370.5" font-family="FreeSans" font-size="10.00" fill="#000000">Fun4All_MySimpleReco</text>
</a>
</g>
</g>
<!-- Node4&#45;&gt;Node34 -->
<g id="edge33" class="edge">
<title>Node4&#45;&gt;Node34</title>
<path fill="none" stroke="#191970" d="M587.1246,-743.272C596.6093,-673.2599 631.2996,-442.7864 683,-392.5 687.2204,-388.395 692.1538,-385.1176 697.4635,-382.5079"/>
<polygon fill="#191970" stroke="#191970" points="583.6247,-743.0401 585.7763,-753.4141 590.5637,-743.9626 583.6247,-743.0401"/>
</g>
<!-- Node35 -->
<g id="node35" class="node">
<title>Node35</title>
<g id="a_node35"><a xlink:href="../../d1/d29/Fun4All__Read__Dst_8C.html#ae153a0407033e203422cedf7e2ce5b3b" target="_top" xlink:title="Fun4All_Read_Dst">
<polygon fill="none" stroke="#000000" points="710.5,-324.5 710.5,-344.5 816.5,-344.5 816.5,-324.5 710.5,-324.5"/>
<text text-anchor="middle" x="763.5" y="-331.5" font-family="FreeSans" font-size="10.00" fill="#000000">Fun4All_Read_Dst</text>
</a>
</g>
</g>
<!-- Node4&#45;&gt;Node35 -->
<g id="edge34" class="edge">
<title>Node4&#45;&gt;Node35</title>
<path fill="none" stroke="#191970" d="M586.5967,-743.1061C594.7024,-668.2276 626.3881,-409.8864 683,-353.5 690.4271,-346.1025 700.1642,-341.3789 710.29,-338.4058"/>
<polygon fill="#191970" stroke="#191970" points="583.1073,-742.8222 585.5346,-753.1352 590.0684,-743.5594 583.1073,-742.8222"/>
</g>
<!-- Node36 -->
<g id="node36" class="node">
<title>Node36</title>
<g id="a_node36"><a xlink:href="../../d9/da0/G4TTree_8C.html#a7e873c78b05882087e257d133fde3c67" target="_top" xlink:title="G4TTree">
<polygon fill="none" stroke="#000000" points="735,-285.5 735,-305.5 792,-305.5 792,-285.5 735,-285.5"/>
<text text-anchor="middle" x="763.5" y="-292.5" font-family="FreeSans" font-size="10.00" fill="#000000">G4TTree</text>
</a>
</g>
</g>
<!-- Node4&#45;&gt;Node36 -->
<g id="edge35" class="edge">
<title>Node4&#45;&gt;Node36</title>
<path fill="none" stroke="#191970" d="M586.1266,-743.2571C592.8912,-664.1418 621.3713,-377.112 683,-314.5 696.3973,-300.8889 717.602,-296.2923 734.8855,-295.0173"/>
<polygon fill="#191970" stroke="#191970" points="582.6265,-743.1139 585.2847,-753.3698 589.6023,-743.6946 582.6265,-743.1139"/>
</g>
<!-- Node37 -->
<g id="node37" class="node">
<title>Node37</title>
<g id="a_node37"><a xlink:href="../../d6/dc1/MakeTree_8C.html#a53b8088628309d5abb10a7aaf0d33b7a" target="_top" xlink:title="MakeTree">
<polygon fill="none" stroke="#000000" points="731.5,-246.5 731.5,-266.5 795.5,-266.5 795.5,-246.5 731.5,-246.5"/>
<text text-anchor="middle" x="763.5" y="-253.5" font-family="FreeSans" font-size="10.00" fill="#000000">MakeTree</text>
</a>
</g>
</g>
<!-- Node4&#45;&gt;Node37 -->
<g id="edge36" class="edge">
<title>Node4&#45;&gt;Node37</title>
<path fill="none" stroke="#191970" d="M585.7515,-743.136C591.2987,-659.5925 616.4035,-344.3048 683,-275.5 695.3838,-262.7056 714.6576,-257.848 731.2413,-256.2403"/>
<polygon fill="#191970" stroke="#191970" points="582.2446,-743.1327 585.0963,-753.3365 589.2302,-743.5815 582.2446,-743.1327"/>
</g>
<!-- Node38 -->
<g id="node38" class="node">
<title>Node38</title>
<g id="a_node38"><a xlink:href="../../d5/d5a/block_2MyHitTTree_8C.html#a9e8ef49a847a7526e0c19d923a0486a7" target="_top" xlink:title="MyHitTTree">
<polygon fill="none" stroke="#000000" points="727.5,-207.5 727.5,-227.5 799.5,-227.5 799.5,-207.5 727.5,-207.5"/>
<text text-anchor="middle" x="763.5" y="-214.5" font-family="FreeSans" font-size="10.00" fill="#000000">MyHitTTree</text>
</a>
</g>
</g>
<!-- Node4&#45;&gt;Node38 -->
<g id="edge37" class="edge">
<title>Node4&#45;&gt;Node38</title>
<path fill="none" stroke="#191970" d="M585.4177,-743.2159C589.7905,-655.7126 611.3642,-311.585 683,-236.5 694.3001,-224.6558 711.4995,-219.5926 727.1032,-217.6198"/>
<polygon fill="#191970" stroke="#191970" points="581.9123,-743.2465 584.9298,-753.4026 588.9043,-743.5815 581.9123,-743.2465"/>
</g>
<!-- Node39 -->
<g id="node39" class="node">
<title>Node39</title>
<g id="a_node39"><a xlink:href="../../d6/deb/PHGeom__DSTInspection_8C.html#a004a4f91a64bef884a2708f11f6094ec" target="_top" xlink:title="PHGeom_DSTInspection">
<polygon fill="none" stroke="#000000" points="695,-168.5 695,-188.5 832,-188.5 832,-168.5 695,-168.5"/>
<text text-anchor="middle" x="763.5" y="-175.5" font-family="FreeSans" font-size="10.00" fill="#000000">PHGeom_DSTInspection</text>
</a>
</g>
</g>
<!-- Node4&#45;&gt;Node39 -->
<g id="edge38" class="edge">
<title>Node4&#45;&gt;Node39</title>
<path fill="none" stroke="#191970" d="M585.1449,-742.8959C588.4466,-650.9134 606.4195,-278.7766 683,-197.5 686.4466,-193.8421 690.4555,-190.8292 694.8085,-188.3534"/>
<polygon fill="#191970" stroke="#191970" points="581.6393,-743.0031 584.7983,-753.116 588.6353,-743.2404 581.6393,-743.0031"/>
</g>
<!-- Node40 -->
<g id="node40" class="node">
<title>Node40</title>
<g id="a_node40"><a xlink:href="../../de/da9/ReadClustersRunTracking_8C.html#ae0216e7ee610ee6cb8ebc2392d00431b" target="_top" xlink:title="ReadClustersRunTracking">
<polygon fill="none" stroke="#000000" points="691.5,-129.5 691.5,-149.5 835.5,-149.5 835.5,-129.5 691.5,-129.5"/>
<text text-anchor="middle" x="763.5" y="-136.5" font-family="FreeSans" font-size="10.00" fill="#000000">ReadClustersRunTracking</text>
</a>
</g>
</g>
<!-- Node4&#45;&gt;Node40 -->
<g id="edge39" class="edge">
<title>Node4&#45;&gt;Node40</title>
<path fill="none" stroke="#191970" d="M584.8825,-743.3189C587.1,-648.2712 601.2531,-246.2134 683,-158.5 686.3287,-154.9284 690.1931,-151.9703 694.3923,-149.5258"/>
<polygon fill="#191970" stroke="#191970" points="581.3828,-743.2736 584.6675,-753.3464 588.3811,-743.4237 581.3828,-743.2736"/>
</g>
<!-- Node41 -->
<g id="node41" class="node">
<title>Node41</title>
<g id="a_node41"><a xlink:href="../../d3/d61/fun4all__coresoftware_2blob_2master_2offline_2packages_2NodeDump_2macro_2run__dump_8C.html#ad821e25f39e2f306bd2e7f4626bc8049" target="_top" xlink:title="run_dump">
<polygon fill="none" stroke="#000000" points="729.5,-90.5 729.5,-110.5 797.5,-110.5 797.5,-90.5 729.5,-90.5"/>
<text text-anchor="middle" x="763.5" y="-97.5" font-family="FreeSans" font-size="10.00" fill="#000000">run_dump</text>
</a>
</g>
</g>
<!-- Node4&#45;&gt;Node41 -->
<g id="edge40" class="edge">
<title>Node4&#45;&gt;Node41</title>
<path fill="none" stroke="#191970" d="M584.6688,-742.9758C585.9111,-643.6079 596.2927,-213.4378 683,-119.5 694.6875,-106.8378 713.106,-101.8716 729.3771,-100.1687"/>
<polygon fill="#191970" stroke="#191970" points="581.1669,-743.145 584.56,-753.1817 588.1665,-743.2196 581.1669,-743.145"/>
</g>
<!-- Node42 -->
<g id="node42" class="node">
<title>Node42</title>
<g id="a_node42"><a xlink:href="../../de/dcb/RunBoth_8C.html#a953c430173a95963886161f24b97640c" target="_top" xlink:title="RunBoth">
<polygon fill="none" stroke="#000000" points="734,-51.5 734,-71.5 793,-71.5 793,-51.5 734,-51.5"/>
<text text-anchor="middle" x="763.5" y="-58.5" font-family="FreeSans" font-size="10.00" fill="#000000">RunBoth</text>
</a>
</g>
</g>
<!-- Node4&#45;&gt;Node42 -->
<g id="edge41" class="edge">
<title>Node4&#45;&gt;Node42</title>
<path fill="none" stroke="#191970" d="M586.0744,-743.1929C594.626,-635.1667 636.8116,-130.971 683,-80.5 695.6997,-66.6227 716.4815,-61.9727 733.7483,-60.7403"/>
<polygon fill="#191970" stroke="#191970" points="582.568,-743.1393 585.2751,-753.3824 589.5465,-743.6868 582.568,-743.1393"/>
</g>
<!-- Node43 -->
<g id="node43" class="node">
<title>Node43</title>
<g id="a_node43"><a xlink:href="../../dc/def/classFun4AllMessenger.html#a1e488e9b2a3f69a69b6c7174918b8c67" target="_top" xlink:title="Fun4AllMessenger::SetNew\lValue">
<polygon fill="none" stroke="#000000" points="686.5,-.5 686.5,-32.5 840.5,-32.5 840.5,-.5 686.5,-.5"/>
<text text-anchor="start" x="694.5" y="-19.5" font-family="FreeSans" font-size="10.00" fill="#000000">Fun4AllMessenger::SetNew</text>
<text text-anchor="middle" x="763.5" y="-7.5" font-family="FreeSans" font-size="10.00" fill="#000000">Value</text>
</a>
</g>
</g>
<!-- Node4&#45;&gt;Node43 -->
<g id="edge42" class="edge">
<title>Node4&#45;&gt;Node43</title>
<path fill="none" stroke="#191970" d="M585.9787,-743.151C594.2574,-631.5505 636.1673,-96.8053 683,-41.5 685.8371,-38.1496 689.1148,-35.2412 692.6908,-32.7171"/>
<polygon fill="#191970" stroke="#191970" points="582.4702,-743.1398 585.2274,-753.3696 589.4513,-743.6532 582.4702,-743.1398"/>
</g>
<!-- Node45 -->
<g id="node45" class="node">
<title>Node45</title>
<g id="a_node45"><a xlink:href="../../d1/dec/classHcalRawTowerBuilder.html#a7905b60d52f4f69f900e45859a894533" target="_top" xlink:title="HcalRawTowerBuilder\l::InitRun">
<polygon fill="none" stroke="#000000" points="522,-837.5 522,-869.5 647,-869.5 647,-837.5 522,-837.5"/>
<text text-anchor="start" x="530" y="-856.5" font-family="FreeSans" font-size="10.00" fill="#000000">HcalRawTowerBuilder</text>
<text text-anchor="middle" x="584.5" y="-844.5" font-family="FreeSans" font-size="10.00" fill="#000000">::InitRun</text>
</a>
</g>
</g>
<!-- Node44&#45;&gt;Node45 -->
<g id="edge44" class="edge">
<title>Node44&#45;&gt;Node45</title>
<path fill="none" stroke="#191970" d="M496.2448,-853.5C504.8614,-853.5 513.4717,-853.5 521.7509,-853.5"/>
<polygon fill="#191970" stroke="#191970" points="496.1464,-850.0001 486.1464,-853.5 496.1464,-857.0001 496.1464,-850.0001"/>
</g>
<!-- Node46&#45;&gt;Node4 -->
<g id="edge47" class="edge">
<title>Node46&#45;&gt;Node4</title>
<path fill="none" stroke="#191970" d="M288.2532,-745.0144C301.2722,-741.8892 314.9956,-739.1313 328,-737.5 397.6761,-728.7595 416.3616,-728.4639 486,-737.5 509.5028,-740.5497 535.3888,-747.5304 554.7236,-753.4912"/>
<polygon fill="#191970" stroke="#191970" points="287.3109,-741.6422 278.4584,-747.4633 289.0088,-748.4332 287.3109,-741.6422"/>
</g>
<!-- Node47 -->
<g id="node47" class="node">
<title>Node47</title>
<g id="a_node47"><a xlink:href="../../da/d29/classFun4AllServer.html#a94738b092fa009fcea45737d8ea41224" target="_top" xlink:title="Fun4AllServer::process\l_event">
<polygon fill="none" stroke="#000000" points="341,-747.5 341,-779.5 473,-779.5 473,-747.5 341,-747.5"/>
<text text-anchor="start" x="349" y="-766.5" font-family="FreeSans" font-size="10.00" fill="#000000">Fun4AllServer::process</text>
<text text-anchor="middle" x="407" y="-754.5" font-family="FreeSans" font-size="10.00" fill="#000000">_event</text>
</a>
</g>
</g>
<!-- Node46&#45;&gt;Node47 -->
<g id="edge46" class="edge">
<title>Node46&#45;&gt;Node47</title>
<path fill="none" stroke="#191970" d="M302.2705,-763.5C315.0646,-763.5 328.2479,-763.5 340.7628,-763.5"/>
<polygon fill="#191970" stroke="#191970" points="302.1135,-760.0001 292.1135,-763.5 302.1134,-767.0001 302.1135,-760.0001"/>
</g>
</g>
</svg>
