<?xml version="1.0" encoding="UTF-8" standalone="no"?>
<!DOCTYPE svg PUBLIC "-//W3C//DTD SVG 1.1//EN"
 "http://www.w3.org/Graphics/SVG/1.1/DTD/svg11.dtd">
<!-- Generated by graphviz version 2.40.1 (20161225.0304)
 -->
<!-- Title: BuildDetector Pages: 1 -->
<svg width="460pt" height="279pt"
 viewBox="0.00 0.00 460.00 279.00" xmlns="http://www.w3.org/2000/svg" xmlns:xlink="http://www.w3.org/1999/xlink">
<g id="graph0" class="graph" transform="scale(1 1) rotate(0) translate(4 275)">
<title>BuildDetector</title>
<!-- Node1 -->
<g id="node1" class="node">
<title>Node1</title>
<polygon fill="#bfbfbf" stroke="#000000" points="0,-137.5 0,-157.5 86,-157.5 86,-137.5 0,-137.5"/>
<text text-anchor="middle" x="43" y="-144.5" font-family="FreeSans" font-size="10.00" fill="#000000">BuildDetector</text>
</g>
<!-- Node2 -->
<g id="node2" class="node">
<title>Node2</title>
<g id="a_node2"><a xlink:href="../../d2/d7d/classSmear_1_1Detector.html#a24002b3325179692dcf687c9ac6ef4f4" target="_top" xlink:title="Smear::Detector::AddDevice">
<polygon fill="none" stroke="#000000" points="122,-250.5 122,-270.5 282,-270.5 282,-250.5 122,-250.5"/>
<text text-anchor="middle" x="202" y="-257.5" font-family="FreeSans" font-size="10.00" fill="#000000">Smear::Detector::AddDevice</text>
</a>
</g>
</g>
<!-- Node1&#45;&gt;Node2 -->
<g id="edge1" class="edge">
<title>Node1&#45;&gt;Node2</title>
<path fill="none" stroke="#191970" d="M48.4624,-157.5506C59.5809,-177.0041 86.798,-219.7946 122,-241.5 125.0074,-243.3543 128.181,-245.0277 131.4606,-246.5378"/>
<polygon fill="#191970" stroke="#191970" points="130.3514,-249.8647 140.9339,-250.3758 132.9799,-243.3769 130.3514,-249.8647"/>
</g>
<!-- Node4 -->
<g id="node4" class="node">
<title>Node4</title>
<g id="a_node4"><a xlink:href="../../d2/d55/classSmear_1_1Acceptance.html#a77ce79bbc82ad642fc2da89768b1a064" target="_top" xlink:title="Smear::Acceptance::\lAddZone">
<polygon fill="none" stroke="#000000" points="142,-199.5 142,-231.5 262,-231.5 262,-199.5 142,-199.5"/>
<text text-anchor="start" x="150" y="-218.5" font-family="FreeSans" font-size="10.00" fill="#000000">Smear::Acceptance::</text>
<text text-anchor="middle" x="202" y="-206.5" font-family="FreeSans" font-size="10.00" fill="#000000">AddZone</text>
</a>
</g>
</g>
<!-- Node1&#45;&gt;Node4 -->
<g id="edge3" class="edge">
<title>Node1&#45;&gt;Node4</title>
<path fill="none" stroke="#191970" d="M59.1778,-157.5283C74.8271,-166.9313 99.4256,-180.9378 122,-190.5 126.4551,-192.3871 131.1025,-194.2058 135.817,-195.9419"/>
<polygon fill="#191970" stroke="#191970" points="134.9538,-199.349 145.5486,-199.3851 137.2887,-192.7499 134.9538,-199.349"/>
</g>
<!-- Node5 -->
<g id="node5" class="node">
<title>Node5</title>
<g id="a_node5"><a xlink:href="../../d2/d09/STARDetector_8cpp.html#a19fbfcf02f8b1658fde36ca90349574f" target="_top" xlink:title="makeZone">
<polygon fill="none" stroke="#000000" points="167,-160.5 167,-180.5 237,-180.5 237,-160.5 167,-160.5"/>
<text text-anchor="middle" x="202" y="-167.5" font-family="FreeSans" font-size="10.00" fill="#000000">makeZone</text>
</a>
</g>
</g>
<!-- Node1&#45;&gt;Node5 -->
<g id="edge4" class="edge">
<title>Node1&#45;&gt;Node5</title>
<path fill="none" stroke="#191970" d="M86.0277,-153.7241C107.9409,-156.894 134.5742,-160.7466 156.7889,-163.96"/>
<polygon fill="#191970" stroke="#191970" points="156.5765,-167.4657 166.9746,-165.4334 157.5787,-160.5378 156.5765,-167.4657"/>
</g>
<!-- Node7 -->
<g id="node7" class="node">
<title>Node7</title>
<g id="a_node7"><a xlink:href="../../d2/d55/classSmear_1_1Acceptance.html#a903b3145e29d584e59d8c558edb0afd3" target="_top" xlink:title="Smear::Acceptance::\lSetCharge">
<polygon fill="none" stroke="#000000" points="142,-109.5 142,-141.5 262,-141.5 262,-109.5 142,-109.5"/>
<text text-anchor="start" x="150" y="-128.5" font-family="FreeSans" font-size="10.00" fill="#000000">Smear::Acceptance::</text>
<text text-anchor="middle" x="202" y="-116.5" font-family="FreeSans" font-size="10.00" fill="#000000">SetCharge</text>
</a>
</g>
</g>
<!-- Node1&#45;&gt;Node7 -->
<g id="edge6" class="edge">
<title>Node1&#45;&gt;Node7</title>
<path fill="none" stroke="#191970" d="M86.0277,-141.5465C100.1357,-139.5944 116.2002,-137.3717 131.7823,-135.2157"/>
<polygon fill="#191970" stroke="#191970" points="132.5011,-138.6496 141.927,-133.812 131.5416,-131.7157 132.5011,-138.6496"/>
</g>
<!-- Node8 -->
<g id="node8" class="node">
<title>Node8</title>
<g id="a_node8"><a xlink:href="../../d2/d7d/classSmear_1_1Detector.html#a5b428e506b13f0d13c8604f3906339da" target="_top" xlink:title="Smear::Detector::SetEvent\lKinematicsCalculator">
<polygon fill="none" stroke="#000000" points="126,-58.5 126,-90.5 278,-90.5 278,-58.5 126,-58.5"/>
<text text-anchor="start" x="134" y="-77.5" font-family="FreeSans" font-size="10.00" fill="#000000">Smear::Detector::SetEvent</text>
<text text-anchor="middle" x="202" y="-65.5" font-family="FreeSans" font-size="10.00" fill="#000000">KinematicsCalculator</text>
</a>
</g>
</g>
<!-- Node1&#45;&gt;Node8 -->
<g id="edge7" class="edge">
<title>Node1&#45;&gt;Node8</title>
<path fill="none" stroke="#191970" d="M57.6069,-137.4592C73.0707,-127.1576 98.4513,-111.1708 122,-100.5 126.9883,-98.2396 132.2317,-96.0836 137.5486,-94.0498"/>
<polygon fill="#191970" stroke="#191970" points="138.9758,-97.2544 147.159,-90.5249 136.5653,-90.6825 138.9758,-97.2544"/>
</g>
<!-- Node9 -->
<g id="node9" class="node">
<title>Node9</title>
<g id="a_node9"><a xlink:href="../../d3/dc8/star_8C.html#a96b513163e69dded39452212d20f2c8c" target="_top" xlink:title="star">
<polygon fill="none" stroke="#000000" points="184,-19.5 184,-39.5 220,-39.5 220,-19.5 184,-19.5"/>
<text text-anchor="middle" x="202" y="-26.5" font-family="FreeSans" font-size="10.00" fill="#000000">star</text>
</a>
</g>
</g>
<!-- Node1&#45;&gt;Node9 -->
<g id="edge8" class="edge">
<title>Node1&#45;&gt;Node9</title>
<path fill="none" stroke="#191970" d="M48.2024,-137.3678C59.0505,-117.2972 86.0919,-72.448 122,-49.5 137.5362,-39.5712 157.6878,-34.5706 173.8788,-32.0525"/>
<polygon fill="#191970" stroke="#191970" points="174.4052,-35.5134 183.8584,-30.7293 173.4851,-28.5741 174.4052,-35.5134"/>
</g>
<!-- Node3 -->
<g id="node3" class="node">
<title>Node3</title>
<g id="a_node3"><a xlink:href="../../d1/d9f/classSmear_1_1Smearer.html#ab7f0eb6bd118335376b94d622c2f74f5" target="_top" xlink:title="Smear::Smearer::Clone">
<polygon fill="none" stroke="#000000" points="318,-250.5 318,-270.5 452,-270.5 452,-250.5 318,-250.5"/>
<text text-anchor="middle" x="385" y="-257.5" font-family="FreeSans" font-size="10.00" fill="#000000">Smear::Smearer::Clone</text>
</a>
</g>
</g>
<!-- Node2&#45;&gt;Node3 -->
<g id="edge2" class="edge">
<title>Node2&#45;&gt;Node3</title>
<path fill="none" stroke="#191970" d="M282.0002,-260.5C290.4788,-260.5 299.0913,-260.5 307.5401,-260.5"/>
<polygon fill="#191970" stroke="#191970" points="307.7447,-264.0001 317.7447,-260.5 307.7446,-257.0001 307.7447,-264.0001"/>
</g>
<!-- Node6 -->
<g id="node6" class="node">
<title>Node6</title>
<g id="a_node6"><a xlink:href="../../dc/da6/eSTARDetector_8cpp.html#a04ddaf3375f5f411da34d8a86eb5403b" target="_top" xlink:title="etaToTheta">
<polygon fill="none" stroke="#000000" points="349,-160.5 349,-180.5 421,-180.5 421,-160.5 349,-160.5"/>
<text text-anchor="middle" x="385" y="-167.5" font-family="FreeSans" font-size="10.00" fill="#000000">etaToTheta</text>
</a>
</g>
</g>
<!-- Node5&#45;&gt;Node6 -->
<g id="edge5" class="edge">
<title>Node5&#45;&gt;Node6</title>
<path fill="none" stroke="#191970" d="M237.2842,-170.5C266.1183,-170.5 307.1125,-170.5 338.6025,-170.5"/>
<polygon fill="#191970" stroke="#191970" points="338.8861,-174.0001 348.8861,-170.5 338.886,-167.0001 338.8861,-174.0001"/>
</g>
<!-- Node10 -->
<g id="node10" class="node">
<title>Node10</title>
<g id="a_node10"><a xlink:href="../../da/d23/msg__buffer_8cc.html#a98631211a4a8aee62f572375d5b637be" target="_top" xlink:title="printf">
<polygon fill="none" stroke="#000000" points="363,-39.5 363,-59.5 407,-59.5 407,-39.5 363,-39.5"/>
<text text-anchor="middle" x="385" y="-46.5" font-family="FreeSans" font-size="10.00" fill="#000000">printf</text>
</a>
</g>
</g>
<!-- Node9&#45;&gt;Node10 -->
<g id="edge9" class="edge">
<title>Node9&#45;&gt;Node10</title>
<path fill="none" stroke="#191970" d="M220.2158,-31.4908C251.1218,-34.8685 314.2196,-41.7644 352.7423,-45.9746"/>
<polygon fill="#191970" stroke="#191970" points="352.5878,-49.4784 362.9089,-47.0857 353.3483,-42.5199 352.5878,-49.4784"/>
</g>
<!-- Node11 -->
<g id="node11" class="node">
<title>Node11</title>
<g id="a_node11"><a xlink:href="../../df/de8/cemc_8C.html#adf5c804dfce7a70e36dda02995fad481" target="_top" xlink:title="exit">
<polygon fill="none" stroke="#000000" points="367.5,-.5 367.5,-20.5 402.5,-20.5 402.5,-.5 367.5,-.5"/>
<text text-anchor="middle" x="385" y="-7.5" font-family="FreeSans" font-size="10.00" fill="#000000">exit</text>
</a>
</g>
</g>
<!-- Node9&#45;&gt;Node11 -->
<g id="edge10" class="edge">
<title>Node9&#45;&gt;Node11</title>
<path fill="none" stroke="#191970" d="M220.2158,-27.6087C252.3063,-24.2769 319.1033,-17.3417 357.0599,-13.4009"/>
<polygon fill="#191970" stroke="#191970" points="357.811,-16.8418 367.3961,-12.3277 357.0881,-9.8792 357.811,-16.8418"/>
</g>
</g>
</svg>
