<?xml version="1.0" encoding="UTF-8" standalone="no"?>
<!DOCTYPE svg PUBLIC "-//W3C//DTD SVG 1.1//EN"
 "http://www.w3.org/Graphics/SVG/1.1/DTD/svg11.dtd">
<!-- Generated by graphviz version 2.40.1 (20161225.0304)
 -->
<!-- Title: fun4all_acts/blob/master/Core/include/Acts/Vertexing/ImpactPointEstimator.hpp Pages: 1 -->
<svg width="1348pt" height="401pt"
 viewBox="0.00 0.00 1348.00 401.00" xmlns="http://www.w3.org/2000/svg" xmlns:xlink="http://www.w3.org/1999/xlink">
<g id="graph0" class="graph" transform="scale(1 1) rotate(0) translate(4 397)">
<title>fun4all_acts/blob/master/Core/include/Acts/Vertexing/ImpactPointEstimator.hpp</title>
<!-- Node1 -->
<g id="node1" class="node">
<title>Node1</title>
<polygon fill="#bfbfbf" stroke="#000000" points="495.5,-348.5 495.5,-392.5 655.5,-392.5 655.5,-348.5 495.5,-348.5"/>
<text text-anchor="start" x="503.5" y="-379.5" font-family="FreeSans" font-size="10.00" fill="#000000">fun4all_acts/blob/master</text>
<text text-anchor="start" x="503.5" y="-367.5" font-family="FreeSans" font-size="10.00" fill="#000000">/Core/include/Acts/Vertexing</text>
<text text-anchor="middle" x="575.5" y="-355.5" font-family="FreeSans" font-size="10.00" fill="#000000">/ImpactPointEstimator.hpp</text>
</g>
<!-- Node2 -->
<g id="node2" class="node">
<title>Node2</title>
<g id="a_node2"><a xlink:href="../../db/d6c/AdaptiveMultiVertexFinder_8hpp.html" target="_top" xlink:title="fun4all_acts/blob/master\l/Core/include/Acts/Vertexing\l/AdaptiveMultiVertexFinder.hpp">
<polygon fill="none" stroke="#000000" points="0,-267.5 0,-311.5 175,-311.5 175,-267.5 0,-267.5"/>
<text text-anchor="start" x="8" y="-298.5" font-family="FreeSans" font-size="10.00" fill="#000000">fun4all_acts/blob/master</text>
<text text-anchor="start" x="8" y="-286.5" font-family="FreeSans" font-size="10.00" fill="#000000">/Core/include/Acts/Vertexing</text>
<text text-anchor="middle" x="87.5" y="-274.5" font-family="FreeSans" font-size="10.00" fill="#000000">/AdaptiveMultiVertexFinder.hpp</text>
</a>
</g>
</g>
<!-- Node1&#45;&gt;Node2 -->
<g id="edge1" class="edge">
<title>Node1&#45;&gt;Node2</title>
<path fill="none" stroke="#191970" d="M485.0711,-358.5325C406.6627,-347.7417 290.2639,-330.7277 189.5,-312 184.7754,-311.1219 179.9359,-310.1845 175.056,-309.2095"/>
<polygon fill="#191970" stroke="#191970" points="485.0149,-362.0575 495.3976,-359.948 485.9655,-355.1223 485.0149,-362.0575"/>
</g>
<!-- Node3 -->
<g id="node3" class="node">
<title>Node3</title>
<g id="a_node3"><a xlink:href="../../dd/df8/AdaptiveMultiVertexFinderTests_8cpp.html" target="_top" xlink:title="fun4all_acts/blob/master\l/Tests/UnitTests/Core/Vertexing\l/AdaptiveMultiVertexFinderTests.cpp">
<polygon fill="none" stroke="#000000" points="26,-186.5 26,-230.5 227,-230.5 227,-186.5 26,-186.5"/>
<text text-anchor="start" x="34" y="-217.5" font-family="FreeSans" font-size="10.00" fill="#000000">fun4all_acts/blob/master</text>
<text text-anchor="start" x="34" y="-205.5" font-family="FreeSans" font-size="10.00" fill="#000000">/Tests/UnitTests/Core/Vertexing</text>
<text text-anchor="middle" x="126.5" y="-193.5" font-family="FreeSans" font-size="10.00" fill="#000000">/AdaptiveMultiVertexFinderTests.cpp</text>
</a>
</g>
</g>
<!-- Node1&#45;&gt;Node3 -->
<g id="edge18" class="edge">
<title>Node1&#45;&gt;Node3</title>
<path fill="none" stroke="#191970" d="M485.0402,-362.5346C395.7256,-353.4317 266.3395,-336.5489 222.5,-312 199.4081,-299.0691 201.4091,-286.4861 183.5,-267 172.2733,-254.7847 159.4024,-241.5156 148.7353,-230.7074"/>
<polygon fill="#191970" stroke="#191970" points="484.8813,-366.0362 495.1809,-363.5524 485.5804,-359.0712 484.8813,-366.0362"/>
</g>
<!-- Node4 -->
<g id="node4" class="node">
<title>Node4</title>
<g id="a_node4"><a xlink:href="../../d1/d80/AdaptiveMultiVertexFitter_8hpp.html" target="_top" xlink:title="fun4all_acts/blob/master\l/Core/include/Acts/Vertexing\l/AdaptiveMultiVertexFitter.hpp">
<polygon fill="none" stroke="#000000" points="231.5,-267.5 231.5,-311.5 401.5,-311.5 401.5,-267.5 231.5,-267.5"/>
<text text-anchor="start" x="239.5" y="-298.5" font-family="FreeSans" font-size="10.00" fill="#000000">fun4all_acts/blob/master</text>
<text text-anchor="start" x="239.5" y="-286.5" font-family="FreeSans" font-size="10.00" fill="#000000">/Core/include/Acts/Vertexing</text>
<text text-anchor="middle" x="316.5" y="-274.5" font-family="FreeSans" font-size="10.00" fill="#000000">/AdaptiveMultiVertexFitter.hpp</text>
</a>
</g>
</g>
<!-- Node1&#45;&gt;Node4 -->
<g id="edge3" class="edge">
<title>Node1&#45;&gt;Node4</title>
<path fill="none" stroke="#191970" d="M495.4393,-345.4617C460.7367,-334.6088 420.4608,-322.0128 386.9168,-311.5222"/>
<polygon fill="#191970" stroke="#191970" points="494.4804,-348.8289 505.0692,-348.4734 496.5698,-342.148 494.4804,-348.8289"/>
</g>
<!-- Node5 -->
<g id="node5" class="node">
<title>Node5</title>
<g id="a_node5"><a xlink:href="../../d2/de2/AdaptiveMultiVertexFitterTests_8cpp.html" target="_top" xlink:title="fun4all_acts/blob/master\l/Tests/UnitTests/Core/Vertexing\l/AdaptiveMultiVertexFitterTests.cpp">
<polygon fill="none" stroke="#000000" points="245,-186.5 245,-230.5 440,-230.5 440,-186.5 245,-186.5"/>
<text text-anchor="start" x="253" y="-217.5" font-family="FreeSans" font-size="10.00" fill="#000000">fun4all_acts/blob/master</text>
<text text-anchor="start" x="253" y="-205.5" font-family="FreeSans" font-size="10.00" fill="#000000">/Tests/UnitTests/Core/Vertexing</text>
<text text-anchor="middle" x="342.5" y="-193.5" font-family="FreeSans" font-size="10.00" fill="#000000">/AdaptiveMultiVertexFitterTests.cpp</text>
</a>
</g>
</g>
<!-- Node1&#45;&gt;Node5 -->
<g id="edge19" class="edge">
<title>Node1&#45;&gt;Node5</title>
<path fill="none" stroke="#191970" d="M509.5957,-344.2086C490.6832,-335.2827 470.5747,-324.3873 453.5,-312 431.1089,-295.7558 430.5647,-286.0431 410.5,-267 397.3971,-254.5642 382.2067,-241.387 369.5111,-230.6936"/>
<polygon fill="#191970" stroke="#191970" points="508.2182,-347.4274 518.7655,-348.4301 511.1455,-341.0689 508.2182,-347.4274"/>
</g>
<!-- Node6 -->
<g id="node6" class="node">
<title>Node6</title>
<g id="a_node6"><a xlink:href="../../d8/ddf/IterativeVertexFinder_8hpp.html" target="_top" xlink:title="fun4all_acts/blob/master\l/Core/include/Acts/Vertexing\l/IterativeVertexFinder.hpp">
<polygon fill="none" stroke="#000000" points="533.5,-186.5 533.5,-230.5 693.5,-230.5 693.5,-186.5 533.5,-186.5"/>
<text text-anchor="start" x="541.5" y="-217.5" font-family="FreeSans" font-size="10.00" fill="#000000">fun4all_acts/blob/master</text>
<text text-anchor="start" x="541.5" y="-205.5" font-family="FreeSans" font-size="10.00" fill="#000000">/Core/include/Acts/Vertexing</text>
<text text-anchor="middle" x="613.5" y="-193.5" font-family="FreeSans" font-size="10.00" fill="#000000">/IterativeVertexFinder.hpp</text>
</a>
</g>
</g>
<!-- Node1&#45;&gt;Node6 -->
<g id="edge6" class="edge">
<title>Node1&#45;&gt;Node6</title>
<path fill="none" stroke="#191970" d="M635.8947,-342.6339C647.3744,-334.4524 657.8604,-324.3098 664.5,-312 673.9945,-294.3973 671.5175,-285.7284 664.5,-267 659.3469,-253.2472 649.3362,-240.6003 639.5386,-230.6108"/>
<polygon fill="#191970" stroke="#191970" points="633.8136,-339.8139 627.4009,-348.2476 637.6733,-345.6537 633.8136,-339.8139"/>
</g>
<!-- Node8 -->
<g id="node8" class="node">
<title>Node8</title>
<g id="a_node8"><a xlink:href="../../d7/d3d/VertexFindingAlgorithm_8cpp.html" target="_top" xlink:title="fun4all_acts/blob/master\l/Examples/Algorithms/Vertexing\l/src/VertexFindingAlgorithm.cpp">
<polygon fill="none" stroke="#000000" points="415,-6.5 415,-50.5 594,-50.5 594,-6.5 415,-6.5"/>
<text text-anchor="start" x="423" y="-37.5" font-family="FreeSans" font-size="10.00" fill="#000000">fun4all_acts/blob/master</text>
<text text-anchor="start" x="423" y="-25.5" font-family="FreeSans" font-size="10.00" fill="#000000">/Examples/Algorithms/Vertexing</text>
<text text-anchor="middle" x="504.5" y="-13.5" font-family="FreeSans" font-size="10.00" fill="#000000">/src/VertexFindingAlgorithm.cpp</text>
</a>
</g>
</g>
<!-- Node1&#45;&gt;Node8 -->
<g id="edge17" class="edge">
<title>Node1&#45;&gt;Node8</title>
<path fill="none" stroke="#191970" d="M515.1053,-342.6339C503.6256,-334.4524 493.1396,-324.3098 486.5,-312 439.6751,-225.1874 477.0004,-100.9848 495.5709,-50.8003"/>
<polygon fill="#191970" stroke="#191970" points="513.3267,-345.6537 523.5991,-348.2476 517.1864,-339.8139 513.3267,-345.6537"/>
</g>
<!-- Node11 -->
<g id="node11" class="node">
<title>Node11</title>
<g id="a_node11"><a xlink:href="../../dc/d36/IterativeVertexFinderTests_8cpp.html" target="_top" xlink:title="fun4all_acts/blob/master\l/Tests/UnitTests/Core/Vertexing\l/IterativeVertexFinderTests.cpp">
<polygon fill="none" stroke="#000000" points="821,-99.5 821,-143.5 994,-143.5 994,-99.5 821,-99.5"/>
<text text-anchor="start" x="829" y="-130.5" font-family="FreeSans" font-size="10.00" fill="#000000">fun4all_acts/blob/master</text>
<text text-anchor="start" x="829" y="-118.5" font-family="FreeSans" font-size="10.00" fill="#000000">/Tests/UnitTests/Core/Vertexing</text>
<text text-anchor="middle" x="907.5" y="-106.5" font-family="FreeSans" font-size="10.00" fill="#000000">/IterativeVertexFinderTests.cpp</text>
</a>
</g>
</g>
<!-- Node1&#45;&gt;Node11 -->
<g id="edge21" class="edge">
<title>Node1&#45;&gt;Node11</title>
<path fill="none" stroke="#191970" d="M665.5561,-356.4729C739.428,-339.8958 840.2091,-304.6056 893.5,-231 911.9323,-205.5412 912.4938,-167.7627 910.5169,-143.8973"/>
<polygon fill="#191970" stroke="#191970" points="664.8063,-353.0541 655.7755,-358.5943 666.2902,-359.895 664.8063,-353.0541"/>
</g>
<!-- Node12 -->
<g id="node12" class="node">
<title>Node12</title>
<g id="a_node12"><a xlink:href="../../dd/d43/ZScanVertexFinder_8hpp.html" target="_top" xlink:title="fun4all_acts/blob/master\l/Core/include/Acts/Vertexing\l/ZScanVertexFinder.hpp">
<polygon fill="none" stroke="#000000" points="495.5,-267.5 495.5,-311.5 655.5,-311.5 655.5,-267.5 495.5,-267.5"/>
<text text-anchor="start" x="503.5" y="-298.5" font-family="FreeSans" font-size="10.00" fill="#000000">fun4all_acts/blob/master</text>
<text text-anchor="start" x="503.5" y="-286.5" font-family="FreeSans" font-size="10.00" fill="#000000">/Core/include/Acts/Vertexing</text>
<text text-anchor="middle" x="575.5" y="-274.5" font-family="FreeSans" font-size="10.00" fill="#000000">/ZScanVertexFinder.hpp</text>
</a>
</g>
</g>
<!-- Node1&#45;&gt;Node12 -->
<g id="edge13" class="edge">
<title>Node1&#45;&gt;Node12</title>
<path fill="none" stroke="#191970" d="M575.5,-338.2457C575.5,-329.3118 575.5,-319.8188 575.5,-311.6068"/>
<polygon fill="#191970" stroke="#191970" points="572.0001,-338.3664 575.5,-348.3664 579.0001,-338.3664 572.0001,-338.3664"/>
</g>
<!-- Node13 -->
<g id="node13" class="node">
<title>Node13</title>
<g id="a_node13"><a xlink:href="../../d2/d2c/ZScanVertexFinderTests_8cpp.html" target="_top" xlink:title="fun4all_acts/blob/master\l/Tests/UnitTests/Core/Vertexing\l/ZScanVertexFinderTests.cpp">
<polygon fill="none" stroke="#000000" points="712,-186.5 712,-230.5 885,-230.5 885,-186.5 712,-186.5"/>
<text text-anchor="start" x="720" y="-217.5" font-family="FreeSans" font-size="10.00" fill="#000000">fun4all_acts/blob/master</text>
<text text-anchor="start" x="720" y="-205.5" font-family="FreeSans" font-size="10.00" fill="#000000">/Tests/UnitTests/Core/Vertexing</text>
<text text-anchor="middle" x="798.5" y="-193.5" font-family="FreeSans" font-size="10.00" fill="#000000">/ZScanVertexFinderTests.cpp</text>
</a>
</g>
</g>
<!-- Node1&#45;&gt;Node13 -->
<g id="edge23" class="edge">
<title>Node1&#45;&gt;Node13</title>
<path fill="none" stroke="#191970" d="M629.9919,-343.8069C647.2838,-334.5293 666.148,-323.5366 682.5,-312 717.7858,-287.1052 754.2768,-252.8992 776.6831,-230.7456"/>
<polygon fill="#191970" stroke="#191970" points="628.322,-340.7307 621.1143,-348.496 631.5913,-346.9203 628.322,-340.7307"/>
</g>
<!-- Node14 -->
<g id="node14" class="node">
<title>Node14</title>
<g id="a_node14"><a xlink:href="../../d3/d45/ImpactPointEstimatorTests_8cpp.html" target="_top" xlink:title="fun4all_acts/blob/master\l/Tests/UnitTests/Core/Vertexing\l/ImpactPointEstimatorTests.cpp">
<polygon fill="none" stroke="#000000" points="941.5,-267.5 941.5,-311.5 1117.5,-311.5 1117.5,-267.5 941.5,-267.5"/>
<text text-anchor="start" x="949.5" y="-298.5" font-family="FreeSans" font-size="10.00" fill="#000000">fun4all_acts/blob/master</text>
<text text-anchor="start" x="949.5" y="-286.5" font-family="FreeSans" font-size="10.00" fill="#000000">/Tests/UnitTests/Core/Vertexing</text>
<text text-anchor="middle" x="1029.5" y="-274.5" font-family="FreeSans" font-size="10.00" fill="#000000">/ImpactPointEstimatorTests.cpp</text>
</a>
</g>
</g>
<!-- Node1&#45;&gt;Node14 -->
<g id="edge20" class="edge">
<title>Node1&#45;&gt;Node14</title>
<path fill="none" stroke="#191970" d="M666.0336,-356.7911C737.2677,-345.6822 838.9465,-329.1132 927.5,-312 932.0402,-311.1226 936.6879,-310.1967 941.3767,-309.2408"/>
<polygon fill="#191970" stroke="#191970" points="665.0933,-353.3952 655.7498,-358.3899 666.1688,-360.3121 665.0933,-353.3952"/>
</g>
<!-- Node15 -->
<g id="node15" class="node">
<title>Node15</title>
<g id="a_node15"><a xlink:href="../../da/dc9/KalmanVertexTrackUpdaterTests_8cpp.html" target="_top" xlink:title="fun4all_acts/blob/master\l/Tests/UnitTests/Core/Vertexing\l/KalmanVertexTrackUpdaterTests.cpp">
<polygon fill="none" stroke="#000000" points="1135,-267.5 1135,-311.5 1340,-311.5 1340,-267.5 1135,-267.5"/>
<text text-anchor="start" x="1143" y="-298.5" font-family="FreeSans" font-size="10.00" fill="#000000">fun4all_acts/blob/master</text>
<text text-anchor="start" x="1143" y="-286.5" font-family="FreeSans" font-size="10.00" fill="#000000">/Tests/UnitTests/Core/Vertexing</text>
<text text-anchor="middle" x="1237.5" y="-274.5" font-family="FreeSans" font-size="10.00" fill="#000000">/KalmanVertexTrackUpdaterTests.cpp</text>
</a>
</g>
</g>
<!-- Node1&#45;&gt;Node15 -->
<g id="edge22" class="edge">
<title>Node1&#45;&gt;Node15</title>
<path fill="none" stroke="#191970" d="M665.6546,-363.5527C775.0506,-354.5186 964.9247,-336.8965 1126.5,-312 1129.2207,-311.5808 1131.9757,-311.1401 1134.7533,-310.6816"/>
<polygon fill="#191970" stroke="#191970" points="665.328,-360.0677 655.6477,-364.3737 665.9004,-367.0442 665.328,-360.0677"/>
</g>
<!-- Node2&#45;&gt;Node3 -->
<g id="edge2" class="edge">
<title>Node2&#45;&gt;Node3</title>
<path fill="none" stroke="#191970" d="M102.6099,-258.1179C107.0326,-248.9322 111.7731,-239.0866 115.856,-230.6068"/>
<polygon fill="#191970" stroke="#191970" points="99.3416,-256.838 98.1569,-267.3664 105.6486,-259.8747 99.3416,-256.838"/>
</g>
<!-- Node4&#45;&gt;Node3 -->
<g id="edge4" class="edge">
<title>Node4&#45;&gt;Node3</title>
<path fill="none" stroke="#191970" d="M255.4728,-263.4832C230.5474,-252.8571 202.0285,-240.699 178.1571,-230.5222"/>
<polygon fill="#191970" stroke="#191970" points="254.2611,-266.7713 264.8326,-267.4734 257.0063,-260.332 254.2611,-266.7713"/>
</g>
<!-- Node4&#45;&gt;Node5 -->
<g id="edge5" class="edge">
<title>Node4&#45;&gt;Node5</title>
<path fill="none" stroke="#191970" d="M326.6665,-257.8276C329.5882,-248.7251 332.7107,-238.9973 335.404,-230.6068"/>
<polygon fill="#191970" stroke="#191970" points="323.3284,-256.7752 323.6046,-267.3664 329.9935,-258.9146 323.3284,-256.7752"/>
</g>
<!-- Node7 -->
<g id="node7" class="node">
<title>Node7</title>
<g id="a_node7"><a xlink:href="../../d8/ddc/VertexFindingAlgorithm_8hpp.html" target="_top" xlink:title="fun4all_acts/blob/master\l/Examples/Algorithms/Vertexing\l/include/ACTFW/Vertexing/VertexFinding\lAlgorithm.hpp">
<polygon fill="none" stroke="#000000" points="576.5,-93.5 576.5,-149.5 796.5,-149.5 796.5,-93.5 576.5,-93.5"/>
<text text-anchor="start" x="584.5" y="-136.5" font-family="FreeSans" font-size="10.00" fill="#000000">fun4all_acts/blob/master</text>
<text text-anchor="start" x="584.5" y="-124.5" font-family="FreeSans" font-size="10.00" fill="#000000">/Examples/Algorithms/Vertexing</text>
<text text-anchor="start" x="584.5" y="-112.5" font-family="FreeSans" font-size="10.00" fill="#000000">/include/ACTFW/Vertexing/VertexFinding</text>
<text text-anchor="middle" x="686.5" y="-100.5" font-family="FreeSans" font-size="10.00" fill="#000000">Algorithm.hpp</text>
</a>
</g>
</g>
<!-- Node6&#45;&gt;Node7 -->
<g id="edge7" class="edge">
<title>Node6&#45;&gt;Node7</title>
<path fill="none" stroke="#191970" d="M638.8872,-178.244C646.6464,-168.9968 655.1462,-158.8668 662.7895,-149.7577"/>
<polygon fill="#191970" stroke="#191970" points="636.0459,-176.1851 632.2993,-186.0953 641.4083,-180.6845 636.0459,-176.1851"/>
</g>
<!-- Node6&#45;&gt;Node8 -->
<g id="edge11" class="edge">
<title>Node6&#45;&gt;Node8</title>
<path fill="none" stroke="#191970" d="M588.2197,-178.5794C581.1538,-169.6399 573.7147,-159.6459 567.5,-150 546.1374,-116.8431 525.9897,-75.5993 514.4637,-50.6978"/>
<polygon fill="#191970" stroke="#191970" points="585.5607,-180.858 594.558,-186.4526 591.0133,-176.4683 585.5607,-180.858"/>
</g>
<!-- Node6&#45;&gt;Node11 -->
<g id="edge12" class="edge">
<title>Node6&#45;&gt;Node11</title>
<path fill="none" stroke="#191970" d="M697.8699,-183.5334C740.5242,-170.9112 791.8316,-155.7284 833.0108,-143.5427"/>
<polygon fill="#191970" stroke="#191970" points="696.6645,-180.24 688.0687,-186.4338 698.6508,-186.9523 696.6645,-180.24"/>
</g>
<!-- Node7&#45;&gt;Node8 -->
<g id="edge8" class="edge">
<title>Node7&#45;&gt;Node8</title>
<path fill="none" stroke="#191970" d="M622.4141,-88.7528C597.6219,-76.0843 569.901,-61.9192 547.5693,-50.5079"/>
<polygon fill="#191970" stroke="#191970" points="620.9027,-91.9109 631.4001,-93.3446 624.0879,-85.6776 620.9027,-91.9109"/>
</g>
<!-- Node9 -->
<g id="node9" class="node">
<title>Node9</title>
<g id="a_node9"><a xlink:href="../../da/de2/VertexAndTracksReaderAndFinderExample_8cpp.html" target="_top" xlink:title="fun4all_acts/blob/master\l/Examples/Run/Vertexing\l/VertexAndTracksReaderAndFinder\lExample.cpp">
<polygon fill="none" stroke="#000000" points="780.5,-.5 780.5,-56.5 972.5,-56.5 972.5,-.5 780.5,-.5"/>
<text text-anchor="start" x="788.5" y="-43.5" font-family="FreeSans" font-size="10.00" fill="#000000">fun4all_acts/blob/master</text>
<text text-anchor="start" x="788.5" y="-31.5" font-family="FreeSans" font-size="10.00" fill="#000000">/Examples/Run/Vertexing</text>
<text text-anchor="start" x="788.5" y="-19.5" font-family="FreeSans" font-size="10.00" fill="#000000">/VertexAndTracksReaderAndFinder</text>
<text text-anchor="middle" x="876.5" y="-7.5" font-family="FreeSans" font-size="10.00" fill="#000000">Example.cpp</text>
</a>
</g>
</g>
<!-- Node7&#45;&gt;Node9 -->
<g id="edge9" class="edge">
<title>Node7&#45;&gt;Node9</title>
<path fill="none" stroke="#191970" d="M752.8589,-89.0191C774.425,-78.463 798.1636,-66.8436 819.0255,-56.6323"/>
<polygon fill="#191970" stroke="#191970" points="751.207,-85.9308 743.7639,-93.4708 754.2844,-92.218 751.207,-85.9308"/>
</g>
<!-- Node10 -->
<g id="node10" class="node">
<title>Node10</title>
<g id="a_node10"><a xlink:href="../../d2/d79/VertexFinderExample_8cpp.html" target="_top" xlink:title="fun4all_acts/blob/master\l/Examples/Run/Vertexing\l/VertexFinderExample.cpp">
<polygon fill="none" stroke="#000000" points="612.5,-6.5 612.5,-50.5 762.5,-50.5 762.5,-6.5 612.5,-6.5"/>
<text text-anchor="start" x="620.5" y="-37.5" font-family="FreeSans" font-size="10.00" fill="#000000">fun4all_acts/blob/master</text>
<text text-anchor="start" x="620.5" y="-25.5" font-family="FreeSans" font-size="10.00" fill="#000000">/Examples/Run/Vertexing</text>
<text text-anchor="middle" x="687.5" y="-13.5" font-family="FreeSans" font-size="10.00" fill="#000000">/VertexFinderExample.cpp</text>
</a>
</g>
</g>
<!-- Node7&#45;&gt;Node10 -->
<g id="edge10" class="edge">
<title>Node7&#45;&gt;Node10</title>
<path fill="none" stroke="#191970" d="M686.9135,-83.0409C687.0322,-72.0068 687.1575,-60.3498 687.2617,-50.6577"/>
<polygon fill="#191970" stroke="#191970" points="683.4106,-83.3075 686.8027,-93.3446 690.4102,-83.3828 683.4106,-83.3075"/>
</g>
<!-- Node12&#45;&gt;Node6 -->
<g id="edge14" class="edge">
<title>Node12&#45;&gt;Node6</title>
<path fill="none" stroke="#191970" d="M590.2225,-258.1179C594.5318,-248.9322 599.1507,-239.0866 603.1289,-230.6068"/>
<polygon fill="#191970" stroke="#191970" points="586.9623,-256.8266 585.8837,-267.3664 593.2996,-259.7997 586.9623,-256.8266"/>
</g>
<!-- Node12&#45;&gt;Node8 -->
<g id="edge15" class="edge">
<title>Node12&#45;&gt;Node8</title>
<path fill="none" stroke="#191970" d="M543.5052,-259.8999C536.0582,-251.3118 528.9996,-241.4173 524.5,-231 498.0946,-169.867 499.7317,-88.9706 502.4308,-50.5606"/>
<polygon fill="#191970" stroke="#191970" points="541.049,-262.3998 550.3912,-267.3973 546.2045,-257.6648 541.049,-262.3998"/>
</g>
<!-- Node12&#45;&gt;Node13 -->
<g id="edge16" class="edge">
<title>Node12&#45;&gt;Node13</title>
<path fill="none" stroke="#191970" d="M645.5841,-264.0434C675.1999,-253.2861 709.3597,-240.8783 737.8709,-230.5222"/>
<polygon fill="#191970" stroke="#191970" points="644.3454,-260.7696 636.1412,-267.4734 646.7353,-267.349 644.3454,-260.7696"/>
</g>
</g>
</svg>
