<?xml version="1.0" encoding="UTF-8" standalone="no"?>
<!DOCTYPE svg PUBLIC "-//W3C//DTD SVG 1.1//EN"
 "http://www.w3.org/Graphics/SVG/1.1/DTD/svg11.dtd">
<!-- Generated by graphviz version 2.40.1 (20161225.0304)
 -->
<!-- Title: FairRunSim::SetUserConfig Pages: 1 -->
<svg width="437pt" height="146pt"
 viewBox="0.00 0.00 437.00 146.00" xmlns="http://www.w3.org/2000/svg" xmlns:xlink="http://www.w3.org/1999/xlink">
<g id="graph0" class="graph" transform="scale(1 1) rotate(0) translate(4 142)">
<title>FairRunSim::SetUserConfig</title>
<!-- Node1 -->
<g id="node1" class="node">
<title>Node1</title>
<polygon fill="#bfbfbf" stroke="#000000" points="0,-58.5 0,-78.5 151,-78.5 151,-58.5 0,-58.5"/>
<text text-anchor="middle" x="75.5" y="-65.5" font-family="FreeSans" font-size="10.00" fill="#000000">FairRunSim::SetUserConfig</text>
</g>
<!-- Node2 -->
<g id="node2" class="node">
<title>Node2</title>
<g id="a_node2"><a xlink:href="../../d7/d91/g3Config_8C.html#aa58262e3cde23ab66e49f3acde7bec14" target="_top" xlink:title="Config">
<polygon fill="none" stroke="#000000" points="187,-58.5 187,-78.5 235,-78.5 235,-58.5 187,-58.5"/>
<text text-anchor="middle" x="211" y="-65.5" font-family="FreeSans" font-size="10.00" fill="#000000">Config</text>
</a>
</g>
</g>
<!-- Node1&#45;&gt;Node2 -->
<g id="edge1" class="edge">
<title>Node1&#45;&gt;Node2</title>
<path fill="none" stroke="#191970" d="M151.1733,-68.5C160.0922,-68.5 168.8253,-68.5 176.743,-68.5"/>
<polygon fill="#191970" stroke="#191970" points="176.9753,-72.0001 186.9753,-68.5 176.9753,-65.0001 176.9753,-72.0001"/>
</g>
<!-- Node3 -->
<g id="node3" class="node">
<title>Node3</title>
<g id="a_node3"><a xlink:href="../../dd/dbc/classFairRunSim.html#a5ec15ff0cc249b3a195299b6d3acb2a8" target="_top" xlink:title="FairRunSim::GetGeoModel">
<polygon fill="none" stroke="#000000" points="276,-117.5 276,-137.5 424,-137.5 424,-117.5 276,-117.5"/>
<text text-anchor="middle" x="350" y="-124.5" font-family="FreeSans" font-size="10.00" fill="#000000">FairRunSim::GetGeoModel</text>
</a>
</g>
</g>
<!-- Node2&#45;&gt;Node3 -->
<g id="edge2" class="edge">
<title>Node2&#45;&gt;Node3</title>
<path fill="none" stroke="#191970" d="M223.5714,-78.813C235.2095,-87.8725 253.3337,-100.7794 271,-108.5 276.0896,-110.7243 281.4824,-112.7138 286.9648,-114.4882"/>
<polygon fill="#191970" stroke="#191970" points="286.3002,-117.9425 296.8838,-117.454 288.3055,-111.2359 286.3002,-117.9425"/>
</g>
<!-- Node4 -->
<g id="node4" class="node">
<title>Node4</title>
<g id="a_node4"><a xlink:href="../../dd/dbc/classFairRunSim.html#a733dc616669bd5e542b5c05f6470c744" target="_top" xlink:title="FairRunSim::Instance">
<polygon fill="none" stroke="#000000" points="289,-78.5 289,-98.5 411,-98.5 411,-78.5 289,-78.5"/>
<text text-anchor="middle" x="350" y="-85.5" font-family="FreeSans" font-size="10.00" fill="#000000">FairRunSim::Instance</text>
</a>
</g>
</g>
<!-- Node2&#45;&gt;Node4 -->
<g id="edge3" class="edge">
<title>Node2&#45;&gt;Node4</title>
<path fill="none" stroke="#191970" d="M235.212,-71.9837C247.3988,-73.7372 262.8763,-75.9642 278.4892,-78.2107"/>
<polygon fill="#191970" stroke="#191970" points="278.3389,-81.725 288.7355,-79.685 279.3359,-74.7964 278.3389,-81.725"/>
</g>
<!-- Node5 -->
<g id="node5" class="node">
<title>Node5</title>
<g id="a_node5"><a xlink:href="../../d5/dd2/classPndStack.html#af5a638783c0920ca02d1a6ce97772a3a" target="_top" xlink:title="PndStack::SetMinPoints">
<polygon fill="none" stroke="#000000" points="283,-39.5 283,-59.5 417,-59.5 417,-39.5 283,-39.5"/>
<text text-anchor="middle" x="350" y="-46.5" font-family="FreeSans" font-size="10.00" fill="#000000">PndStack::SetMinPoints</text>
</a>
</g>
</g>
<!-- Node2&#45;&gt;Node5 -->
<g id="edge4" class="edge">
<title>Node2&#45;&gt;Node5</title>
<path fill="none" stroke="#191970" d="M235.212,-65.1905C245.9149,-63.7275 259.1559,-61.9175 272.7976,-60.0528"/>
<polygon fill="#191970" stroke="#191970" points="273.3374,-63.5117 282.7712,-58.6895 272.3893,-56.5762 273.3374,-63.5117"/>
</g>
<!-- Node6 -->
<g id="node6" class="node">
<title>Node6</title>
<g id="a_node6"><a xlink:href="../../d5/dd2/classPndStack.html#aced4053f774b41193f74566acdc8d462" target="_top" xlink:title="PndStack::StoreSecondaries">
<polygon fill="none" stroke="#000000" points="271,-.5 271,-20.5 429,-20.5 429,-.5 271,-.5"/>
<text text-anchor="middle" x="350" y="-7.5" font-family="FreeSans" font-size="10.00" fill="#000000">PndStack::StoreSecondaries</text>
</a>
</g>
</g>
<!-- Node2&#45;&gt;Node6 -->
<g id="edge5" class="edge">
<title>Node2&#45;&gt;Node6</title>
<path fill="none" stroke="#191970" d="M224.1373,-58.4481C235.8595,-49.9141 253.7838,-37.9063 271,-30.5 277.1997,-27.8329 283.832,-25.4654 290.5203,-23.3783"/>
<polygon fill="#191970" stroke="#191970" points="291.6972,-26.6809 300.3159,-20.519 289.7357,-19.9613 291.6972,-26.6809"/>
</g>
</g>
</svg>
