<?xml version="1.0" encoding="UTF-8" standalone="no"?>
<!DOCTYPE svg PUBLIC "-//W3C//DTD SVG 1.1//EN"
 "http://www.w3.org/Graphics/SVG/1.1/DTD/svg11.dtd">
<!-- Generated by graphviz version 2.40.1 (20161225.0304)
 -->
<!-- Title: EicRoot/blob/master/eic/calorimetry/EicCalorimeterDigiHit.h Pages: 1 -->
<svg width="1703pt" height="224pt"
 viewBox="0.00 0.00 1702.50 224.00" xmlns="http://www.w3.org/2000/svg" xmlns:xlink="http://www.w3.org/1999/xlink">
<g id="graph0" class="graph" transform="scale(1 1) rotate(0) translate(4 220)">
<title>EicRoot/blob/master/eic/calorimetry/EicCalorimeterDigiHit.h</title>
<!-- Node1 -->
<g id="node1" class="node">
<title>Node1</title>
<polygon fill="#bfbfbf" stroke="#000000" points="0,-171.5 0,-215.5 175,-215.5 175,-171.5 0,-171.5"/>
<text text-anchor="start" x="8" y="-202.5" font-family="FreeSans" font-size="10.00" fill="#000000">EicRoot/blob/master</text>
<text text-anchor="start" x="8" y="-190.5" font-family="FreeSans" font-size="10.00" fill="#000000">/eic/calorimetry/EicCalorimeter</text>
<text text-anchor="middle" x="87.5" y="-178.5" font-family="FreeSans" font-size="10.00" fill="#000000">DigiHit.h</text>
</g>
<!-- Node2 -->
<g id="node2" class="node">
<title>Node2</title>
<polygon fill="none" stroke="#bfbfbf" points="20,-114.5 20,-134.5 59,-134.5 59,-114.5 20,-114.5"/>
<text text-anchor="middle" x="39.5" y="-121.5" font-family="FreeSans" font-size="10.00" fill="#000000">map</text>
</g>
<!-- Node1&#45;&gt;Node2 -->
<g id="edge1" class="edge">
<title>Node1&#45;&gt;Node2</title>
<path fill="none" stroke="#191970" d="M72.0483,-171.2882C65.7021,-162.1655 58.4385,-151.7242 52.3856,-143.023"/>
<polygon fill="#191970" stroke="#191970" points="55.189,-140.924 46.6052,-134.7137 49.4427,-144.9215 55.189,-140.924"/>
</g>
<!-- Node3 -->
<g id="node3" class="node">
<title>Node3</title>
<polygon fill="none" stroke="#bfbfbf" points="332,-.5 332,-20.5 397,-20.5 397,-.5 332,-.5"/>
<text text-anchor="middle" x="364.5" y="-7.5" font-family="FreeSans" font-size="10.00" fill="#000000">TObject.h</text>
</g>
<!-- Node1&#45;&gt;Node3 -->
<g id="edge2" class="edge">
<title>Node1&#45;&gt;Node3</title>
<path fill="none" stroke="#191970" d="M88.9388,-171.377C92.1644,-140.8702 102.6193,-86.3383 136.5,-57 163.7253,-33.4249 263.622,-20.1328 321.758,-14.2356"/>
<polygon fill="#191970" stroke="#191970" points="322.1439,-17.7147 331.7533,-13.2528 321.4588,-10.7483 322.1439,-17.7147"/>
</g>
<!-- Node4 -->
<g id="node4" class="node">
<title>Node4</title>
<g id="a_node4"><a xlink:href="../../dc/dac/EicGeoParData_8h.html" target="_top" xlink:title="EicGeoParData.h">
<polygon fill="none" stroke="#000000" points="753.5,-114.5 753.5,-134.5 853.5,-134.5 853.5,-114.5 753.5,-114.5"/>
<text text-anchor="middle" x="803.5" y="-121.5" font-family="FreeSans" font-size="10.00" fill="#000000">EicGeoParData.h</text>
</a>
</g>
</g>
<!-- Node1&#45;&gt;Node4 -->
<g id="edge3" class="edge">
<title>Node1&#45;&gt;Node4</title>
<path fill="none" stroke="#191970" d="M175.2957,-185.0392C322.7599,-170.8283 616.4574,-142.5251 743.0891,-130.3217"/>
<polygon fill="#191970" stroke="#191970" points="743.7476,-133.7746 753.3658,-129.3314 743.0761,-126.8068 743.7476,-133.7746"/>
</g>
<!-- Node4&#45;&gt;Node3 -->
<g id="edge8" class="edge">
<title>Node4&#45;&gt;Node3</title>
<path fill="none" stroke="#191970" d="M753.36,-122.8124C603.0426,-117.5123 165.2094,-100.2222 144.5,-78 138.1368,-71.172 138.6222,-64.25 144.5,-57 166.3714,-30.0225 264.113,-18.0828 321.6966,-13.3094"/>
<polygon fill="#191970" stroke="#191970" points="322.2607,-16.7758 331.9541,-12.4994 321.7096,-9.7975 322.2607,-16.7758"/>
</g>
<!-- Node5 -->
<g id="node5" class="node">
<title>Node5</title>
<polygon fill="none" stroke="#bfbfbf" points="281,-57.5 281,-77.5 334,-77.5 334,-57.5 281,-57.5"/>
<text text-anchor="middle" x="307.5" y="-64.5" font-family="FreeSans" font-size="10.00" fill="#000000">stdlib.h</text>
</g>
<!-- Node4&#45;&gt;Node5 -->
<g id="edge4" class="edge">
<title>Node4&#45;&gt;Node5</title>
<path fill="none" stroke="#191970" d="M753.3717,-122.4378C670.1981,-118.3628 498.4213,-107.177 344.2324,-77.8092"/>
<polygon fill="#191970" stroke="#191970" points="344.5858,-74.3127 334.1028,-75.8484 343.2554,-81.1851 344.5858,-74.3127"/>
</g>
<!-- Node6 -->
<g id="node6" class="node">
<title>Node6</title>
<polygon fill="none" stroke="#bfbfbf" points="352.5,-57.5 352.5,-77.5 408.5,-77.5 408.5,-57.5 352.5,-57.5"/>
<text text-anchor="middle" x="380.5" y="-64.5" font-family="FreeSans" font-size="10.00" fill="#000000">assert.h</text>
</g>
<!-- Node4&#45;&gt;Node6 -->
<g id="edge5" class="edge">
<title>Node4&#45;&gt;Node6</title>
<path fill="none" stroke="#191970" d="M753.443,-120.988C681.4057,-115.3821 544.2598,-102.6515 418.8333,-78.0138"/>
<polygon fill="#191970" stroke="#191970" points="419.1621,-74.5105 408.6705,-75.9859 417.7922,-81.3752 419.1621,-74.5105"/>
</g>
<!-- Node7 -->
<g id="node7" class="node">
<title>Node7</title>
<polygon fill="none" stroke="#bfbfbf" points="426.5,-57.5 426.5,-77.5 458.5,-77.5 458.5,-57.5 426.5,-57.5"/>
<text text-anchor="middle" x="442.5" y="-64.5" font-family="FreeSans" font-size="10.00" fill="#000000">set</text>
</g>
<!-- Node4&#45;&gt;Node7 -->
<g id="edge6" class="edge">
<title>Node4&#45;&gt;Node7</title>
<path fill="none" stroke="#191970" d="M753.4385,-121.6434C689.0727,-117.0808 573.9824,-105.9121 468.5361,-77.7069"/>
<polygon fill="#191970" stroke="#191970" points="469.2596,-74.2763 458.6905,-75.0152 467.4135,-81.0285 469.2596,-74.2763"/>
</g>
<!-- Node8 -->
<g id="node8" class="node">
<title>Node8</title>
<polygon fill="none" stroke="#bfbfbf" points="676,-.5 676,-20.5 739,-20.5 739,-.5 676,-.5"/>
<text text-anchor="middle" x="707.5" y="-7.5" font-family="FreeSans" font-size="10.00" fill="#000000">TString.h</text>
</g>
<!-- Node4&#45;&gt;Node8 -->
<g id="edge7" class="edge">
<title>Node4&#45;&gt;Node8</title>
<path fill="none" stroke="#191970" d="M810.3658,-114.4851C819.0178,-100.4983 831.4026,-74.8294 819.5,-57 803.8834,-33.6073 774.0651,-21.9663 749.1203,-16.1823"/>
<polygon fill="#191970" stroke="#191970" points="749.6399,-12.7156 739.1372,-14.1097 748.2169,-19.5695 749.6399,-12.7156"/>
</g>
<!-- Node9 -->
<g id="node9" class="node">
<title>Node9</title>
<polygon fill="none" stroke="#bfbfbf" points="978.5,-57.5 978.5,-77.5 1028.5,-77.5 1028.5,-57.5 978.5,-57.5"/>
<text text-anchor="middle" x="1003.5" y="-64.5" font-family="FreeSans" font-size="10.00" fill="#000000">TFile.h</text>
</g>
<!-- Node4&#45;&gt;Node9 -->
<g id="edge9" class="edge">
<title>Node4&#45;&gt;Node9</title>
<path fill="none" stroke="#191970" d="M840.5016,-114.4361C872.1553,-105.7596 919.1631,-92.7166 968.6714,-78.1973"/>
<polygon fill="#191970" stroke="#191970" points="969.6662,-81.553 978.2714,-75.3723 967.6901,-74.8377 969.6662,-81.553"/>
</g>
<!-- Node10 -->
<g id="node10" class="node">
<title>Node10</title>
<polygon fill="none" stroke="#bfbfbf" points="1046.5,-57.5 1046.5,-77.5 1142.5,-77.5 1142.5,-57.5 1046.5,-57.5"/>
<text text-anchor="middle" x="1094.5" y="-64.5" font-family="FreeSans" font-size="10.00" fill="#000000">TGeoManager.h</text>
</g>
<!-- Node4&#45;&gt;Node10 -->
<g id="edge10" class="edge">
<title>Node4&#45;&gt;Node10</title>
<path fill="none" stroke="#191970" d="M853.5247,-114.7014C904.2089,-104.7735 982.5669,-89.425 1036.0734,-78.9444"/>
<polygon fill="#191970" stroke="#191970" points="1036.9543,-82.3384 1046.0951,-76.9814 1035.6087,-75.469 1036.9543,-82.3384"/>
</g>
<!-- Node11 -->
<g id="node11" class="node">
<title>Node11</title>
<polygon fill="none" stroke="#bfbfbf" points="1160.5,-57.5 1160.5,-77.5 1250.5,-77.5 1250.5,-57.5 1160.5,-57.5"/>
<text text-anchor="middle" x="1205.5" y="-64.5" font-family="FreeSans" font-size="10.00" fill="#000000">TTimeStamp.h</text>
</g>
<!-- Node4&#45;&gt;Node11 -->
<g id="edge11" class="edge">
<title>Node4&#45;&gt;Node11</title>
<path fill="none" stroke="#191970" d="M853.7754,-118.7299C919.5723,-110.9685 1038.6955,-96.1985 1150.3656,-78.1123"/>
<polygon fill="#191970" stroke="#191970" points="1151.1489,-81.5308 1160.4546,-76.4657 1150.0214,-74.6222 1151.1489,-81.5308"/>
</g>
<!-- Node12 -->
<g id="node12" class="node">
<title>Node12</title>
<polygon fill="none" stroke="#bfbfbf" points="1269,-57.5 1269,-77.5 1340,-77.5 1340,-57.5 1269,-57.5"/>
<text text-anchor="middle" x="1304.5" y="-64.5" font-family="FreeSans" font-size="10.00" fill="#000000">TVector3.h</text>
</g>
<!-- Node4&#45;&gt;Node12 -->
<g id="edge12" class="edge">
<title>Node4&#45;&gt;Node12</title>
<path fill="none" stroke="#191970" d="M853.7107,-121.483C936.1912,-116.0679 1105.6322,-103.0163 1258.6663,-77.9509"/>
<polygon fill="#191970" stroke="#191970" points="1259.4294,-81.3723 1268.7216,-76.2825 1258.2835,-74.4667 1259.4294,-81.3723"/>
</g>
<!-- Node13 -->
<g id="node13" class="node">
<title>Node13</title>
<g id="a_node13"><a xlink:href="../../d3/d52/FairGeoLoader_8h.html" target="_top" xlink:title="FairGeoLoader.h">
<polygon fill="none" stroke="#000000" points="1358,-57.5 1358,-77.5 1455,-77.5 1455,-57.5 1358,-57.5"/>
<text text-anchor="middle" x="1406.5" y="-64.5" font-family="FreeSans" font-size="10.00" fill="#000000">FairGeoLoader.h</text>
</a>
</g>
</g>
<!-- Node4&#45;&gt;Node13 -->
<g id="edge13" class="edge">
<title>Node4&#45;&gt;Node13</title>
<path fill="none" stroke="#191970" d="M853.7379,-121.859C948.4712,-116.523 1160.1485,-102.909 1347.6894,-78.1457"/>
<polygon fill="#191970" stroke="#191970" points="1348.283,-81.5976 1357.7322,-76.8057 1347.3571,-74.6591 1348.283,-81.5976"/>
</g>
<!-- Node15 -->
<g id="node15" class="node">
<title>Node15</title>
<g id="a_node15"><a xlink:href="../../d6/dd0/FairGeoInterface_8h.html" target="_top" xlink:title="FairGeoInterface.h">
<polygon fill="none" stroke="#000000" points="154,-57.5 154,-77.5 263,-77.5 263,-57.5 154,-57.5"/>
<text text-anchor="middle" x="208.5" y="-64.5" font-family="FreeSans" font-size="10.00" fill="#000000">FairGeoInterface.h</text>
</a>
</g>
</g>
<!-- Node4&#45;&gt;Node15 -->
<g id="edge15" class="edge">
<title>Node4&#45;&gt;Node15</title>
<path fill="none" stroke="#191970" d="M753.4865,-121.4342C660.7534,-115.4657 455.6788,-100.9368 273.1487,-78.1341"/>
<polygon fill="#191970" stroke="#191970" points="273.4567,-74.6453 263.0974,-76.8671 272.5811,-81.5904 273.4567,-74.6453"/>
</g>
<!-- Node16 -->
<g id="node16" class="node">
<title>Node16</title>
<g id="a_node16"><a xlink:href="../../dc/d78/FairGeoMedia_8h.html" target="_top" xlink:title="FairGeoMedia.h">
<polygon fill="none" stroke="#000000" points="866.5,-57.5 866.5,-77.5 960.5,-77.5 960.5,-57.5 866.5,-57.5"/>
<text text-anchor="middle" x="913.5" y="-64.5" font-family="FreeSans" font-size="10.00" fill="#000000">FairGeoMedia.h</text>
</a>
</g>
</g>
<!-- Node4&#45;&gt;Node16 -->
<g id="edge18" class="edge">
<title>Node4&#45;&gt;Node16</title>
<path fill="none" stroke="#191970" d="M822.9126,-114.4408C840.0859,-105.5419 865.3714,-92.4394 884.8669,-82.3371"/>
<polygon fill="#191970" stroke="#191970" points="886.643,-85.3589 893.9115,-77.6504 883.4224,-79.1437 886.643,-85.3589"/>
</g>
<!-- Node17 -->
<g id="node17" class="node">
<title>Node17</title>
<g id="a_node17"><a xlink:href="../../d4/d9e/FairGeoMedium_8h.html" target="_top" xlink:title="FairGeoMedium.h">
<polygon fill="none" stroke="#000000" points="1590.5,-57.5 1590.5,-77.5 1694.5,-77.5 1694.5,-57.5 1590.5,-57.5"/>
<text text-anchor="middle" x="1642.5" y="-64.5" font-family="FreeSans" font-size="10.00" fill="#000000">FairGeoMedium.h</text>
</a>
</g>
</g>
<!-- Node4&#45;&gt;Node17 -->
<g id="edge21" class="edge">
<title>Node4&#45;&gt;Node17</title>
<path fill="none" stroke="#191970" d="M853.7284,-123.4244C976.2362,-120.3877 1300.252,-109.8685 1580.3659,-78.0166"/>
<polygon fill="#191970" stroke="#191970" points="1580.7761,-81.4926 1590.3115,-76.8745 1579.9774,-74.5383 1580.7761,-81.4926"/>
</g>
<!-- Node19 -->
<g id="node19" class="node">
<title>Node19</title>
<g id="a_node19"><a xlink:href="../../d2/dc5/FairGeoBuilder_8h.html" target="_top" xlink:title="FairGeoBuilder.h">
<polygon fill="none" stroke="#000000" points="1473,-57.5 1473,-77.5 1572,-77.5 1572,-57.5 1473,-57.5"/>
<text text-anchor="middle" x="1522.5" y="-64.5" font-family="FreeSans" font-size="10.00" fill="#000000">FairGeoBuilder.h</text>
</a>
</g>
</g>
<!-- Node4&#45;&gt;Node19 -->
<g id="edge24" class="edge">
<title>Node4&#45;&gt;Node19</title>
<path fill="none" stroke="#191970" d="M853.8493,-122.829C963.0459,-118.8012 1229.9319,-106.7768 1462.8649,-78.0958"/>
<polygon fill="#191970" stroke="#191970" points="1463.3893,-81.5576 1472.8806,-76.8495 1462.5249,-74.6112 1463.3893,-81.5576"/>
</g>
<!-- Node20 -->
<g id="node20" class="node">
<title>Node20</title>
<g id="a_node20"><a xlink:href="../../d8/dfe/EicDetName_8h.html" target="_top" xlink:title="EicDetName.h">
<polygon fill="none" stroke="#000000" points="476.5,-57.5 476.5,-77.5 564.5,-77.5 564.5,-57.5 476.5,-57.5"/>
<text text-anchor="middle" x="520.5" y="-64.5" font-family="FreeSans" font-size="10.00" fill="#000000">EicDetName.h</text>
</a>
</g>
</g>
<!-- Node4&#45;&gt;Node20 -->
<g id="edge26" class="edge">
<title>Node4&#45;&gt;Node20</title>
<path fill="none" stroke="#191970" d="M753.5567,-114.4408C703.424,-104.3434 626.4207,-88.8339 574.7976,-78.4363"/>
<polygon fill="#191970" stroke="#191970" points="575.3211,-74.9715 564.8269,-76.428 573.9389,-81.8337 575.3211,-74.9715"/>
</g>
<!-- Node21 -->
<g id="node21" class="node">
<title>Node21</title>
<g id="a_node21"><a xlink:href="../../d7/d58/EicNamePatternHub_8h.html" target="_top" xlink:title="EicNamePatternHub.h">
<polygon fill="none" stroke="#000000" points="583,-57.5 583,-77.5 710,-77.5 710,-57.5 583,-57.5"/>
<text text-anchor="middle" x="646.5" y="-64.5" font-family="FreeSans" font-size="10.00" fill="#000000">EicNamePatternHub.h</text>
</a>
</g>
</g>
<!-- Node4&#45;&gt;Node21 -->
<g id="edge29" class="edge">
<title>Node4&#45;&gt;Node21</title>
<path fill="none" stroke="#191970" d="M775.793,-114.4408C750.2005,-105.1492 711.9855,-91.275 683.734,-81.0181"/>
<polygon fill="#191970" stroke="#191970" points="684.7878,-77.6772 674.1937,-77.5544 682.3989,-84.257 684.7878,-77.6772"/>
</g>
<!-- Node22 -->
<g id="node22" class="node">
<title>Node22</title>
<g id="a_node22"><a xlink:href="../../d6/d8d/EicGeoMap_8h.html" target="_top" xlink:title="EicGeoMap.h">
<polygon fill="none" stroke="#000000" points="728.5,-57.5 728.5,-77.5 810.5,-77.5 810.5,-57.5 728.5,-57.5"/>
<text text-anchor="middle" x="769.5" y="-64.5" font-family="FreeSans" font-size="10.00" fill="#000000">EicGeoMap.h</text>
</a>
</g>
</g>
<!-- Node4&#45;&gt;Node22 -->
<g id="edge32" class="edge">
<title>Node4&#45;&gt;Node22</title>
<path fill="none" stroke="#191970" d="M797.4215,-114.3095C792.78,-106.5282 786.2549,-95.589 780.6796,-86.2423"/>
<polygon fill="#191970" stroke="#191970" points="783.6546,-84.3975 775.5259,-77.6022 777.6429,-87.9834 783.6546,-84.3975"/>
</g>
<!-- Node14 -->
<g id="node14" class="node">
<title>Node14</title>
<polygon fill="none" stroke="#bfbfbf" points="1430,-.5 1430,-20.5 1499,-20.5 1499,-.5 1430,-.5"/>
<text text-anchor="middle" x="1464.5" y="-7.5" font-family="FreeSans" font-size="10.00" fill="#000000">TNamed.h</text>
</g>
<!-- Node13&#45;&gt;Node14 -->
<g id="edge14" class="edge">
<title>Node13&#45;&gt;Node14</title>
<path fill="none" stroke="#191970" d="M1416.8692,-57.3095C1425.1995,-49.1229 1437.0864,-37.441 1446.9011,-27.7955"/>
<polygon fill="#191970" stroke="#191970" points="1449.5415,-30.1079 1454.2205,-20.6022 1444.6349,-25.1153 1449.5415,-30.1079"/>
</g>
<!-- Node15&#45;&gt;Node3 -->
<g id="edge16" class="edge">
<title>Node15&#45;&gt;Node3</title>
<path fill="none" stroke="#191970" d="M236.0306,-57.4408C261.46,-48.1492 299.4316,-34.275 327.5031,-24.0181"/>
<polygon fill="#191970" stroke="#191970" points="328.7913,-27.2738 336.9827,-20.5544 326.3889,-20.699 328.7913,-27.2738"/>
</g>
<!-- Node15&#45;&gt;Node8 -->
<g id="edge17" class="edge">
<title>Node15&#45;&gt;Node8</title>
<path fill="none" stroke="#191970" d="M263.1058,-58.1969C265.9424,-57.7769 268.7534,-57.375 271.5,-57 415.7516,-37.3041 587.815,-21.0838 665.6219,-14.1391"/>
<polygon fill="#191970" stroke="#191970" points="666.3112,-17.5917 675.9626,-13.2213 665.6923,-10.6191 666.3112,-17.5917"/>
</g>
<!-- Node16&#45;&gt;Node8 -->
<g id="edge20" class="edge">
<title>Node16&#45;&gt;Node8</title>
<path fill="none" stroke="#191970" d="M877.1455,-57.4408C841.3543,-47.5374 786.748,-32.4278 749.2102,-22.0412"/>
<polygon fill="#191970" stroke="#191970" points="749.6764,-18.5387 739.1051,-19.2451 747.8096,-25.2852 749.6764,-18.5387"/>
</g>
<!-- Node16&#45;&gt;Node14 -->
<g id="edge19" class="edge">
<title>Node16&#45;&gt;Node14</title>
<path fill="none" stroke="#191970" d="M960.5023,-58.3636C963.5424,-57.8728 966.5613,-57.4126 969.5,-57 1134.8034,-33.7884 1332.8381,-19.11 1419.819,-13.3186"/>
<polygon fill="#191970" stroke="#191970" points="1420.118,-16.8065 1429.8662,-12.6564 1419.6576,-9.8217 1420.118,-16.8065"/>
</g>
<!-- Node17&#45;&gt;Node14 -->
<g id="edge22" class="edge">
<title>Node17&#45;&gt;Node14</title>
<path fill="none" stroke="#191970" d="M1611.0869,-57.4408C1581.6912,-48.0275 1537.6071,-33.9107 1505.4614,-23.6169"/>
<polygon fill="#191970" stroke="#191970" points="1506.489,-20.2709 1495.8979,-20.5544 1504.3541,-26.9374 1506.489,-20.2709"/>
</g>
<!-- Node18 -->
<g id="node18" class="node">
<title>Node18</title>
<polygon fill="none" stroke="#bfbfbf" points="1615,-.5 1615,-20.5 1670,-20.5 1670,-.5 1615,-.5"/>
<text text-anchor="middle" x="1642.5" y="-7.5" font-family="FreeSans" font-size="10.00" fill="#000000">fstream</text>
</g>
<!-- Node17&#45;&gt;Node18 -->
<g id="edge23" class="edge">
<title>Node17&#45;&gt;Node18</title>
<path fill="none" stroke="#191970" d="M1642.5,-57.3095C1642.5,-49.9335 1642.5,-39.72 1642.5,-30.715"/>
<polygon fill="#191970" stroke="#191970" points="1646.0001,-30.6022 1642.5,-20.6022 1639.0001,-30.6023 1646.0001,-30.6022"/>
</g>
<!-- Node19&#45;&gt;Node14 -->
<g id="edge25" class="edge">
<title>Node19&#45;&gt;Node14</title>
<path fill="none" stroke="#191970" d="M1512.1308,-57.3095C1503.8005,-49.1229 1491.9136,-37.441 1482.0989,-27.7955"/>
<polygon fill="#191970" stroke="#191970" points="1484.3651,-25.1153 1474.7795,-20.6022 1479.4585,-30.1079 1484.3651,-25.1153"/>
</g>
<!-- Node20&#45;&gt;Node3 -->
<g id="edge28" class="edge">
<title>Node20&#45;&gt;Node3</title>
<path fill="none" stroke="#191970" d="M492.9694,-57.4408C467.54,-48.1492 429.5684,-34.275 401.4969,-24.0181"/>
<polygon fill="#191970" stroke="#191970" points="402.6111,-20.699 392.0173,-20.5544 400.2087,-27.2738 402.6111,-20.699"/>
</g>
<!-- Node20&#45;&gt;Node8 -->
<g id="edge27" class="edge">
<title>Node20&#45;&gt;Node8</title>
<path fill="none" stroke="#191970" d="M553.5014,-57.4408C584.8983,-47.8706 632.245,-33.4387 666.1459,-23.1053"/>
<polygon fill="#191970" stroke="#191970" points="667.219,-26.4372 675.7639,-20.1736 665.1779,-19.7414 667.219,-26.4372"/>
</g>
<!-- Node21&#45;&gt;Node3 -->
<g id="edge30" class="edge">
<title>Node21&#45;&gt;Node3</title>
<path fill="none" stroke="#191970" d="M596.7332,-57.4408C542.8877,-46.5571 457.9342,-29.3856 407.0736,-19.1053"/>
<polygon fill="#191970" stroke="#191970" points="407.5637,-15.6336 397.0684,-17.083 406.1768,-22.4949 407.5637,-15.6336"/>
</g>
<!-- Node21&#45;&gt;Node8 -->
<g id="edge31" class="edge">
<title>Node21&#45;&gt;Node8</title>
<path fill="none" stroke="#191970" d="M657.4056,-57.3095C666.2534,-49.0419 678.9164,-37.2093 689.2968,-27.5096"/>
<polygon fill="#191970" stroke="#191970" points="691.7719,-29.987 696.6888,-20.6022 686.9926,-24.8724 691.7719,-29.987"/>
</g>
<!-- Node22&#45;&gt;Node3 -->
<g id="edge34" class="edge">
<title>Node22&#45;&gt;Node3</title>
<path fill="none" stroke="#191970" d="M728.347,-58.5967C725.358,-58.0303 722.3856,-57.4912 719.5,-57 607.5321,-37.9392 474.5424,-22.3983 407.584,-15.0633"/>
<polygon fill="#191970" stroke="#191970" points="407.7378,-11.5594 397.4179,-13.9572 406.9806,-18.5184 407.7378,-11.5594"/>
</g>
<!-- Node22&#45;&gt;Node8 -->
<g id="edge33" class="edge">
<title>Node22&#45;&gt;Node8</title>
<path fill="none" stroke="#191970" d="M758.4156,-57.3095C749.4228,-49.0419 736.5522,-37.2093 726.0016,-27.5096"/>
<polygon fill="#191970" stroke="#191970" points="728.2189,-24.7937 718.4884,-20.6022 723.4813,-29.9469 728.2189,-24.7937"/>
</g>
</g>
</svg>
