<?xml version="1.0" encoding="UTF-8" standalone="no"?>
<!DOCTYPE svg PUBLIC "-//W3C//DTD SVG 1.1//EN"
 "http://www.w3.org/Graphics/SVG/1.1/DTD/svg11.dtd">
<!-- Generated by graphviz version 2.40.1 (20161225.0304)
 -->
<!-- Title: MvtxDefs::genHitSetKey Pages: 1 -->
<svg width="1340pt" height="188pt"
 viewBox="0.00 0.00 1340.00 188.00" xmlns="http://www.w3.org/2000/svg" xmlns:xlink="http://www.w3.org/1999/xlink">
<g id="graph0" class="graph" transform="scale(1 1) rotate(0) translate(4 184)">
<title>MvtxDefs::genHitSetKey</title>
<!-- Node1 -->
<g id="node1" class="node">
<title>Node1</title>
<polygon fill="#bfbfbf" stroke="#000000" points="0,-79.5 0,-99.5 139,-99.5 139,-79.5 0,-79.5"/>
<text text-anchor="middle" x="69.5" y="-86.5" font-family="FreeSans" font-size="10.00" fill="#000000">MvtxDefs::genHitSetKey</text>
</g>
<!-- Node2 -->
<g id="node2" class="node">
<title>Node2</title>
<g id="a_node2"><a xlink:href="../../da/db1/classMakeActsGeometry.html#ad1297a652617e697364fc272f4d5a2e6" target="_top" xlink:title="Get subdetector hitsetkey from the local sensor unit coordinates.">
<polygon fill="none" stroke="#000000" points="175,-144.5 175,-176.5 337,-176.5 337,-144.5 175,-144.5"/>
<text text-anchor="start" x="183" y="-163.5" font-family="FreeSans" font-size="10.00" fill="#000000">MakeActsGeometry::getMvtx</text>
<text text-anchor="middle" x="256" y="-151.5" font-family="FreeSans" font-size="10.00" fill="#000000">HitSetKeyFromCoords</text>
</a>
</g>
</g>
<!-- Node1&#45;&gt;Node2 -->
<g id="edge1" class="edge">
<title>Node1&#45;&gt;Node2</title>
<path fill="none" stroke="#191970" d="M105.347,-103.1468C136.2656,-114.9175 180.9646,-131.9342 213.6429,-144.3748"/>
<polygon fill="#191970" stroke="#191970" points="106.4163,-99.8089 95.8253,-99.522 103.9257,-106.3509 106.4163,-99.8089"/>
</g>
<!-- Node8 -->
<g id="node8" class="node">
<title>Node8</title>
<g id="a_node8"><a xlink:href="../../da/db1/classMakeActsGeometry.html#a6a0df6f2c9c54155c51979f2a11dc2db" target="_top" xlink:title="MakeActsGeometry::getMvtx\lKeyFromNode">
<polygon fill="none" stroke="#000000" points="378.5,-96.5 378.5,-128.5 540.5,-128.5 540.5,-96.5 378.5,-96.5"/>
<text text-anchor="start" x="386.5" y="-115.5" font-family="FreeSans" font-size="10.00" fill="#000000">MakeActsGeometry::getMvtx</text>
<text text-anchor="middle" x="459.5" y="-103.5" font-family="FreeSans" font-size="10.00" fill="#000000">KeyFromNode</text>
</a>
</g>
</g>
<!-- Node1&#45;&gt;Node8 -->
<g id="edge7" class="edge">
<title>Node1&#45;&gt;Node8</title>
<path fill="none" stroke="#191970" d="M149.2826,-94.2051C216.0881,-98.1449 311.0243,-103.7437 378.2402,-107.7078"/>
<polygon fill="#191970" stroke="#191970" points="149.4129,-90.7068 139.2242,-93.6119 149.0008,-97.6947 149.4129,-90.7068"/>
</g>
<!-- Node10 -->
<g id="node10" class="node">
<title>Node10</title>
<g id="a_node10"><a xlink:href="../../d7/df2/classPHActsSourceLinks.html#a00905ab986ea210f35641915875ab7cc" target="_top" xlink:title="PHActsSourceLinks::\lgetMvtxLocalCoords">
<polygon fill="none" stroke="#000000" points="197,-51.5 197,-83.5 315,-83.5 315,-51.5 197,-51.5"/>
<text text-anchor="start" x="205" y="-70.5" font-family="FreeSans" font-size="10.00" fill="#000000">PHActsSourceLinks::</text>
<text text-anchor="middle" x="256" y="-58.5" font-family="FreeSans" font-size="10.00" fill="#000000">getMvtxLocalCoords</text>
</a>
</g>
</g>
<!-- Node1&#45;&gt;Node10 -->
<g id="edge10" class="edge">
<title>Node1&#45;&gt;Node10</title>
<path fill="none" stroke="#191970" d="M149.5317,-80.0593C165.3813,-78.1896 181.7508,-76.2586 196.7585,-74.4883"/>
<polygon fill="#191970" stroke="#191970" points="148.732,-76.6292 139.2109,-81.2767 149.5521,-83.581 148.732,-76.6292"/>
</g>
<!-- Node12 -->
<g id="node12" class="node">
<title>Node12</title>
<g id="a_node12"><a xlink:href="../../de/d4d/classPHG4MvtxHitReco.html#afae36034dbc6416433dbbd401e71f26b" target="_top" xlink:title="event processing">
<polygon fill="none" stroke="#000000" points="179.5,-.5 179.5,-32.5 332.5,-32.5 332.5,-.5 179.5,-.5"/>
<text text-anchor="start" x="187.5" y="-19.5" font-family="FreeSans" font-size="10.00" fill="#000000">PHG4MvtxHitReco::process</text>
<text text-anchor="middle" x="256" y="-7.5" font-family="FreeSans" font-size="10.00" fill="#000000">_event</text>
</a>
</g>
</g>
<!-- Node1&#45;&gt;Node12 -->
<g id="edge12" class="edge">
<title>Node1&#45;&gt;Node12</title>
<path fill="none" stroke="#191970" d="M98.8049,-74.9466C119.7416,-64.8517 148.7379,-51.4805 175,-41.5 183.2543,-38.3631 192.0888,-35.3233 200.7782,-32.5075"/>
<polygon fill="#191970" stroke="#191970" points="97.2533,-71.8092 89.7912,-79.3303 100.3148,-78.1042 97.2533,-71.8092"/>
</g>
<!-- Node3 -->
<g id="node3" class="node">
<title>Node3</title>
<g id="a_node3"><a xlink:href="../../da/db1/classMakeActsGeometry.html#ab9b4afbf5dfd3c6f7fa38830a6560377" target="_top" xlink:title="MakeActsGeometry::makeMvtx\lMapPairs">
<polygon fill="none" stroke="#000000" points="373,-147.5 373,-179.5 546,-179.5 546,-147.5 373,-147.5"/>
<text text-anchor="start" x="381" y="-166.5" font-family="FreeSans" font-size="10.00" fill="#000000">MakeActsGeometry::makeMvtx</text>
<text text-anchor="middle" x="459.5" y="-154.5" font-family="FreeSans" font-size="10.00" fill="#000000">MapPairs</text>
</a>
</g>
</g>
<!-- Node2&#45;&gt;Node3 -->
<g id="edge2" class="edge">
<title>Node2&#45;&gt;Node3</title>
<path fill="none" stroke="#191970" d="M347.2824,-161.8457C355.7541,-161.9706 364.3236,-162.0969 372.7527,-162.2212"/>
<polygon fill="#191970" stroke="#191970" points="347.0639,-158.3422 337.0133,-161.6943 346.9606,-165.3414 347.0639,-158.3422"/>
</g>
<!-- Node4 -->
<g id="node4" class="node">
<title>Node4</title>
<g id="a_node4"><a xlink:href="../../da/db1/classMakeActsGeometry.html#aad73a55543beffeb8ef3f2cb8d893934" target="_top" xlink:title="Function that mimics ActsFW::GeometryExampleBase.">
<polygon fill="none" stroke="#000000" points="582,-152.5 582,-172.5 781,-172.5 781,-152.5 582,-152.5"/>
<text text-anchor="middle" x="681.5" y="-159.5" font-family="FreeSans" font-size="10.00" fill="#000000">MakeActsGeometry::makeGeometry</text>
</a>
</g>
</g>
<!-- Node3&#45;&gt;Node4 -->
<g id="edge3" class="edge">
<title>Node3&#45;&gt;Node4</title>
<path fill="none" stroke="#191970" d="M556.4897,-163.0631C564.9113,-163.0252 573.4422,-162.9867 581.8843,-162.9487"/>
<polygon fill="#191970" stroke="#191970" points="556.2689,-159.564 546.2848,-163.1091 556.3005,-166.5639 556.2689,-159.564"/>
</g>
<!-- Node5 -->
<g id="node5" class="node">
<title>Node5</title>
<g id="a_node5"><a xlink:href="../../da/db1/classMakeActsGeometry.html#a6f8433331336def2c6ea713b281da9ed" target="_top" xlink:title="Silicon layers made by BuildSiliconLayers and its helper functions.">
<polygon fill="none" stroke="#000000" points="817,-146.5 817,-178.5 984,-178.5 984,-146.5 817,-146.5"/>
<text text-anchor="start" x="825" y="-165.5" font-family="FreeSans" font-size="10.00" fill="#000000">MakeActsGeometry::buildActs</text>
<text text-anchor="middle" x="900.5" y="-153.5" font-family="FreeSans" font-size="10.00" fill="#000000">Surfaces</text>
</a>
</g>
</g>
<!-- Node4&#45;&gt;Node5 -->
<g id="edge4" class="edge">
<title>Node4&#45;&gt;Node5</title>
<path fill="none" stroke="#191970" d="M791.1981,-162.5C799.8384,-162.5 808.477,-162.5 816.8988,-162.5"/>
<polygon fill="#191970" stroke="#191970" points="791.0674,-159.0001 781.0673,-162.5 791.0673,-166.0001 791.0674,-159.0001"/>
</g>
<!-- Node6 -->
<g id="node6" class="node">
<title>Node6</title>
<g id="a_node6"><a xlink:href="../../da/db1/classMakeActsGeometry.html#aa809a1c2b47d8c089a0dc4a6a96d1cc8" target="_top" xlink:title="Main function to build all acts geometry for use in the fitting modules.">
<polygon fill="none" stroke="#000000" points="1020,-122.5 1020,-154.5 1178,-154.5 1178,-122.5 1020,-122.5"/>
<text text-anchor="start" x="1028" y="-141.5" font-family="FreeSans" font-size="10.00" fill="#000000">MakeActsGeometry::buildAll</text>
<text text-anchor="middle" x="1099" y="-129.5" font-family="FreeSans" font-size="10.00" fill="#000000">Geometry</text>
</a>
</g>
</g>
<!-- Node5&#45;&gt;Node6 -->
<g id="edge5" class="edge">
<title>Node5&#45;&gt;Node6</title>
<path fill="none" stroke="#191970" d="M994.1763,-151.1739C1002.7894,-150.1325 1011.4588,-149.0843 1019.9237,-148.0609"/>
<polygon fill="#191970" stroke="#191970" points="993.6141,-147.7163 984.1066,-152.3914 994.4544,-154.6657 993.6141,-147.7163"/>
</g>
<!-- Node7 -->
<g id="node7" class="node">
<title>Node7</title>
<g id="a_node7"><a xlink:href="../../d7/df2/classPHActsSourceLinks.html#a8d10b5904edcf4c6a90411e0f259e663" target="_top" xlink:title="PHActsSourceLinks::\lInitRun">
<polygon fill="none" stroke="#000000" points="1214,-122.5 1214,-154.5 1332,-154.5 1332,-122.5 1214,-122.5"/>
<text text-anchor="start" x="1222" y="-141.5" font-family="FreeSans" font-size="10.00" fill="#000000">PHActsSourceLinks::</text>
<text text-anchor="middle" x="1273" y="-129.5" font-family="FreeSans" font-size="10.00" fill="#000000">InitRun</text>
</a>
</g>
</g>
<!-- Node6&#45;&gt;Node7 -->
<g id="edge6" class="edge">
<title>Node6&#45;&gt;Node7</title>
<path fill="none" stroke="#191970" d="M1188.2859,-138.5C1196.9615,-138.5 1205.6067,-138.5 1213.8763,-138.5"/>
<polygon fill="#191970" stroke="#191970" points="1188.1083,-135.0001 1178.1083,-138.5 1188.1083,-142.0001 1188.1083,-135.0001"/>
</g>
<!-- Node9 -->
<g id="node9" class="node">
<title>Node9</title>
<g id="a_node9"><a xlink:href="../../da/db1/classMakeActsGeometry.html#a4fd2c0ddf3ddceb36ae2418a310adc63" target="_top" xlink:title="Makes map of TrkrHitSetKey&lt;–&gt;TGeoNode.">
<polygon fill="none" stroke="#000000" points="594,-99.5 594,-131.5 769,-131.5 769,-99.5 594,-99.5"/>
<text text-anchor="start" x="602" y="-118.5" font-family="FreeSans" font-size="10.00" fill="#000000">MakeActsGeometry::makeTGeo</text>
<text text-anchor="middle" x="681.5" y="-106.5" font-family="FreeSans" font-size="10.00" fill="#000000">NodeMap</text>
</a>
</g>
</g>
<!-- Node8&#45;&gt;Node9 -->
<g id="edge8" class="edge">
<title>Node8&#45;&gt;Node9</title>
<path fill="none" stroke="#191970" d="M550.8565,-113.7345C565.0837,-113.9268 579.7555,-114.1251 593.8967,-114.3162"/>
<polygon fill="#191970" stroke="#191970" points="550.6359,-110.2313 540.5894,-113.5958 550.5412,-117.2307 550.6359,-110.2313"/>
</g>
<!-- Node9&#45;&gt;Node6 -->
<g id="edge9" class="edge">
<title>Node9&#45;&gt;Node6</title>
<path fill="none" stroke="#191970" d="M779.1774,-120.881C852.4022,-124.915 951.3531,-130.3662 1019.7069,-134.1318"/>
<polygon fill="#191970" stroke="#191970" points="779.1991,-117.377 769.0217,-120.3216 778.814,-124.3664 779.1991,-117.377"/>
</g>
<!-- Node11 -->
<g id="node11" class="node">
<title>Node11</title>
<g id="a_node11"><a xlink:href="../../d7/df2/classPHActsSourceLinks.html#a6f9bd92adb0405e9b210bc1cd199f9dc" target="_top" xlink:title="PHActsSourceLinks::\lprocess_event">
<polygon fill="none" stroke="#000000" points="400.5,-45.5 400.5,-77.5 518.5,-77.5 518.5,-45.5 400.5,-45.5"/>
<text text-anchor="start" x="408.5" y="-64.5" font-family="FreeSans" font-size="10.00" fill="#000000">PHActsSourceLinks::</text>
<text text-anchor="middle" x="459.5" y="-52.5" font-family="FreeSans" font-size="10.00" fill="#000000">process_event</text>
</a>
</g>
</g>
<!-- Node10&#45;&gt;Node11 -->
<g id="edge11" class="edge">
<title>Node10&#45;&gt;Node11</title>
<path fill="none" stroke="#191970" d="M325.3738,-65.4546C349.7041,-64.7372 376.7915,-63.9386 400.2185,-63.2479"/>
<polygon fill="#191970" stroke="#191970" points="325.0265,-61.9632 315.134,-65.7565 325.2328,-68.9602 325.0265,-61.9632"/>
</g>
</g>
</svg>
