<?xml version="1.0" encoding="UTF-8" standalone="no"?>
<!DOCTYPE svg PUBLIC "-//W3C//DTD SVG 1.1//EN"
 "http://www.w3.org/Graphics/SVG/1.1/DTD/svg11.dtd">
<!-- Generated by graphviz version 2.40.1 (20161225.0304)
 -->
<!-- Title: MvtxDefs::getStaveId Pages: 1 -->
<svg width="1141pt" height="333pt"
 viewBox="0.00 0.00 1141.00 333.00" xmlns="http://www.w3.org/2000/svg" xmlns:xlink="http://www.w3.org/1999/xlink">
<g id="graph0" class="graph" transform="scale(1 1) rotate(0) translate(4 329)">
<title>MvtxDefs::getStaveId</title>
<!-- Node1 -->
<g id="node1" class="node">
<title>Node1</title>
<polygon fill="#bfbfbf" stroke="#000000" points="0,-181.5 0,-201.5 124,-201.5 124,-181.5 0,-181.5"/>
<text text-anchor="middle" x="62" y="-188.5" font-family="FreeSans" font-size="10.00" fill="#000000">MvtxDefs::getStaveId</text>
</g>
<!-- Node2 -->
<g id="node2" class="node">
<title>Node2</title>
<g id="a_node2"><a xlink:href="../../dc/d12/classMvtxClusterizer.html#a1aa96e33d67d25815d5b5812566cc5b7" target="_top" xlink:title="MvtxClusterizer::ClusterMvtx">
<polygon fill="none" stroke="#000000" points="165.5,-295.5 165.5,-315.5 327.5,-315.5 327.5,-295.5 165.5,-295.5"/>
<text text-anchor="middle" x="246.5" y="-302.5" font-family="FreeSans" font-size="10.00" fill="#000000">MvtxClusterizer::ClusterMvtx</text>
</a>
</g>
</g>
<!-- Node1&#45;&gt;Node2 -->
<g id="edge1" class="edge">
<title>Node1&#45;&gt;Node2</title>
<path fill="none" stroke="#191970" d="M75.6594,-209.5488C92.9111,-231.025 124.6443,-266.3731 160,-285.5 167.5919,-289.6071 176.0014,-292.8743 184.5077,-295.4727"/>
<polygon fill="#191970" stroke="#191970" points="78.3057,-207.2515 69.3817,-201.5407 72.7967,-211.5701 78.3057,-207.2515"/>
</g>
<!-- Node4 -->
<g id="node4" class="node">
<title>Node4</title>
<g id="a_node4"><a xlink:href="../../d7/df2/classPHActsSourceLinks.html#a00905ab986ea210f35641915875ab7cc" target="_top" xlink:title="PHActsSourceLinks::\lgetMvtxLocalCoords">
<polygon fill="none" stroke="#000000" points="187.5,-243.5 187.5,-275.5 305.5,-275.5 305.5,-243.5 187.5,-243.5"/>
<text text-anchor="start" x="195.5" y="-262.5" font-family="FreeSans" font-size="10.00" fill="#000000">PHActsSourceLinks::</text>
<text text-anchor="middle" x="246.5" y="-250.5" font-family="FreeSans" font-size="10.00" fill="#000000">getMvtxLocalCoords</text>
</a>
</g>
</g>
<!-- Node1&#45;&gt;Node4 -->
<g id="edge3" class="edge">
<title>Node1&#45;&gt;Node4</title>
<path fill="none" stroke="#191970" d="M91.8434,-205.8234C111.0475,-214.7322 136.6863,-226.058 160,-234.5 168.6719,-237.6401 177.9411,-240.6607 187.0716,-243.4501"/>
<polygon fill="#191970" stroke="#191970" points="93.2434,-202.6143 82.7031,-201.5405 90.2732,-208.9529 93.2434,-202.6143"/>
</g>
<!-- Node6 -->
<g id="node6" class="node">
<title>Node6</title>
<g id="a_node6"><a xlink:href="../../d8/df1/namespaceMvtxDefs.html#a05866c2a7ccca99690180e8fa532629d" target="_top" xlink:title="Get the stave id from cluskey.">
<polygon fill="none" stroke="#000000" points="184.5,-204.5 184.5,-224.5 308.5,-224.5 308.5,-204.5 184.5,-204.5"/>
<text text-anchor="middle" x="246.5" y="-211.5" font-family="FreeSans" font-size="10.00" fill="#000000">MvtxDefs::getStaveId</text>
</a>
</g>
</g>
<!-- Node1&#45;&gt;Node6 -->
<g id="edge5" class="edge">
<title>Node1&#45;&gt;Node6</title>
<path fill="none" stroke="#191970" d="M134.3407,-200.5181C150.8348,-202.5743 168.2206,-204.7416 184.2502,-206.7399"/>
<polygon fill="#191970" stroke="#191970" points="134.5623,-197.0187 124.2061,-199.2547 133.6963,-203.9649 134.5623,-197.0187"/>
</g>
<!-- Node7 -->
<g id="node7" class="node">
<title>Node7</title>
<g id="a_node7"><a xlink:href="../../da/db1/classMakeActsGeometry.html#ab9b4afbf5dfd3c6f7fa38830a6560377" target="_top" xlink:title="MakeActsGeometry::makeMvtx\lMapPairs">
<polygon fill="none" stroke="#000000" points="160,-153.5 160,-185.5 333,-185.5 333,-153.5 160,-153.5"/>
<text text-anchor="start" x="168" y="-172.5" font-family="FreeSans" font-size="10.00" fill="#000000">MakeActsGeometry::makeMvtx</text>
<text text-anchor="middle" x="246.5" y="-160.5" font-family="FreeSans" font-size="10.00" fill="#000000">MapPairs</text>
</a>
</g>
</g>
<!-- Node1&#45;&gt;Node7 -->
<g id="edge6" class="edge">
<title>Node1&#45;&gt;Node7</title>
<path fill="none" stroke="#191970" d="M134.3407,-182.874C142.7602,-181.8701 151.412,-180.8384 159.9972,-179.8147"/>
<polygon fill="#191970" stroke="#191970" points="133.7213,-179.423 124.2061,-184.0825 134.5502,-186.3737 133.7213,-179.423"/>
</g>
<!-- Node12 -->
<g id="node12" class="node">
<title>Node12</title>
<g id="a_node12"><a xlink:href="../../de/d25/classPHGenFitTrkFitter.html#af07c5ea2636426357d02b5b697376db2" target="_top" xlink:title="PHGenFitTrkFitter::\lReFitTrack">
<polygon fill="none" stroke="#000000" points="192,-102.5 192,-134.5 301,-134.5 301,-102.5 192,-102.5"/>
<text text-anchor="start" x="200" y="-121.5" font-family="FreeSans" font-size="10.00" fill="#000000">PHGenFitTrkFitter::</text>
<text text-anchor="middle" x="246.5" y="-109.5" font-family="FreeSans" font-size="10.00" fill="#000000">ReFitTrack</text>
</a>
</g>
</g>
<!-- Node1&#45;&gt;Node12 -->
<g id="edge11" class="edge">
<title>Node1&#45;&gt;Node12</title>
<path fill="none" stroke="#191970" d="M89.9062,-176.6857C109.2417,-166.7787 135.766,-153.888 160,-144.5 170.0893,-140.5915 181.0239,-136.9011 191.615,-133.5952"/>
<polygon fill="#191970" stroke="#191970" points="88.0364,-173.7125 80.7673,-181.4203 91.2565,-179.9279 88.0364,-173.7125"/>
</g>
<!-- Node14 -->
<g id="node14" class="node">
<title>Node14</title>
<g id="a_node14"><a xlink:href="../../d0/d22/classPHGenFitTrkProp.html#a203b7ffdfbb9841ea1f10baa7ba7b59f" target="_top" xlink:title="PHGenFitTrkProp::TrkrCluster\lToPHGenFitMeasurement">
<polygon fill="none" stroke="#000000" points="166,-51.5 166,-83.5 327,-83.5 327,-51.5 166,-51.5"/>
<text text-anchor="start" x="174" y="-70.5" font-family="FreeSans" font-size="10.00" fill="#000000">PHGenFitTrkProp::TrkrCluster</text>
<text text-anchor="middle" x="246.5" y="-58.5" font-family="FreeSans" font-size="10.00" fill="#000000">ToPHGenFitMeasurement</text>
</a>
</g>
</g>
<!-- Node1&#45;&gt;Node14 -->
<g id="edge13" class="edge">
<title>Node1&#45;&gt;Node14</title>
<path fill="none" stroke="#191970" d="M75.706,-173.0533C93.0043,-151.032 124.7838,-114.5471 160,-93.5 166.3264,-89.719 173.2454,-86.45 180.3262,-83.6324"/>
<polygon fill="#191970" stroke="#191970" points="72.7237,-171.1904 69.4097,-181.2536 78.2759,-175.4535 72.7237,-171.1904"/>
</g>
<!-- Node3 -->
<g id="node3" class="node">
<title>Node3</title>
<g id="a_node3"><a xlink:href="../../dc/d12/classMvtxClusterizer.html#a2b88d21ed3595b07eb7f807003ec2843" target="_top" xlink:title="event processing">
<polygon fill="none" stroke="#000000" points="398.5,-292.5 398.5,-324.5 538.5,-324.5 538.5,-292.5 398.5,-292.5"/>
<text text-anchor="start" x="406.5" y="-311.5" font-family="FreeSans" font-size="10.00" fill="#000000">MvtxClusterizer::process</text>
<text text-anchor="middle" x="468.5" y="-299.5" font-family="FreeSans" font-size="10.00" fill="#000000">_event</text>
</a>
</g>
</g>
<!-- Node2&#45;&gt;Node3 -->
<g id="edge2" class="edge">
<title>Node2&#45;&gt;Node3</title>
<path fill="none" stroke="#191970" d="M337.7366,-306.7329C357.9357,-307.0059 379.0371,-307.291 398.2477,-307.5506"/>
<polygon fill="#191970" stroke="#191970" points="337.6359,-303.2313 327.5894,-306.5958 337.5412,-310.2307 337.6359,-303.2313"/>
</g>
<!-- Node5 -->
<g id="node5" class="node">
<title>Node5</title>
<g id="a_node5"><a xlink:href="../../d7/df2/classPHActsSourceLinks.html#a6f9bd92adb0405e9b210bc1cd199f9dc" target="_top" xlink:title="PHActsSourceLinks::\lprocess_event">
<polygon fill="none" stroke="#000000" points="409.5,-241.5 409.5,-273.5 527.5,-273.5 527.5,-241.5 409.5,-241.5"/>
<text text-anchor="start" x="417.5" y="-260.5" font-family="FreeSans" font-size="10.00" fill="#000000">PHActsSourceLinks::</text>
<text text-anchor="middle" x="468.5" y="-248.5" font-family="FreeSans" font-size="10.00" fill="#000000">process_event</text>
</a>
</g>
</g>
<!-- Node4&#45;&gt;Node5 -->
<g id="edge4" class="edge">
<title>Node4&#45;&gt;Node5</title>
<path fill="none" stroke="#191970" d="M316.0918,-258.873C346.0747,-258.6029 380.7629,-258.2904 409.4647,-258.0318"/>
<polygon fill="#191970" stroke="#191970" points="315.6683,-255.3766 305.7003,-258.9667 315.7315,-262.3763 315.6683,-255.3766"/>
</g>
<!-- Node8 -->
<g id="node8" class="node">
<title>Node8</title>
<g id="a_node8"><a xlink:href="../../da/db1/classMakeActsGeometry.html#aad73a55543beffeb8ef3f2cb8d893934" target="_top" xlink:title="Function that mimics ActsFW::GeometryExampleBase.">
<polygon fill="none" stroke="#000000" points="369,-159.5 369,-179.5 568,-179.5 568,-159.5 369,-159.5"/>
<text text-anchor="middle" x="468.5" y="-166.5" font-family="FreeSans" font-size="10.00" fill="#000000">MakeActsGeometry::makeGeometry</text>
</a>
</g>
</g>
<!-- Node7&#45;&gt;Node8 -->
<g id="edge7" class="edge">
<title>Node7&#45;&gt;Node8</title>
<path fill="none" stroke="#191970" d="M343.4897,-169.5C351.9113,-169.5 360.4422,-169.5 368.8843,-169.5"/>
<polygon fill="#191970" stroke="#191970" points="343.2848,-166.0001 333.2848,-169.5 343.2848,-173.0001 343.2848,-166.0001"/>
</g>
<!-- Node9 -->
<g id="node9" class="node">
<title>Node9</title>
<g id="a_node9"><a xlink:href="../../da/db1/classMakeActsGeometry.html#a6f8433331336def2c6ea713b281da9ed" target="_top" xlink:title="Silicon layers made by BuildSiliconLayers and its helper functions.">
<polygon fill="none" stroke="#000000" points="611,-153.5 611,-185.5 778,-185.5 778,-153.5 611,-153.5"/>
<text text-anchor="start" x="619" y="-172.5" font-family="FreeSans" font-size="10.00" fill="#000000">MakeActsGeometry::buildActs</text>
<text text-anchor="middle" x="694.5" y="-160.5" font-family="FreeSans" font-size="10.00" fill="#000000">Surfaces</text>
</a>
</g>
</g>
<!-- Node8&#45;&gt;Node9 -->
<g id="edge8" class="edge">
<title>Node8&#45;&gt;Node9</title>
<path fill="none" stroke="#191970" d="M578.2965,-169.5C589.2232,-169.5 600.1899,-169.5 610.7875,-169.5"/>
<polygon fill="#191970" stroke="#191970" points="578.2848,-166.0001 568.2848,-169.5 578.2847,-173.0001 578.2848,-166.0001"/>
</g>
<!-- Node10 -->
<g id="node10" class="node">
<title>Node10</title>
<g id="a_node10"><a xlink:href="../../da/db1/classMakeActsGeometry.html#aa809a1c2b47d8c089a0dc4a6a96d1cc8" target="_top" xlink:title="Main function to build all acts geometry for use in the fitting modules.">
<polygon fill="none" stroke="#000000" points="821,-153.5 821,-185.5 979,-185.5 979,-153.5 821,-153.5"/>
<text text-anchor="start" x="829" y="-172.5" font-family="FreeSans" font-size="10.00" fill="#000000">MakeActsGeometry::buildAll</text>
<text text-anchor="middle" x="900" y="-160.5" font-family="FreeSans" font-size="10.00" fill="#000000">Geometry</text>
</a>
</g>
</g>
<!-- Node9&#45;&gt;Node10 -->
<g id="edge9" class="edge">
<title>Node9&#45;&gt;Node10</title>
<path fill="none" stroke="#191970" d="M788.4103,-169.5C799.2388,-169.5 810.1991,-169.5 820.8055,-169.5"/>
<polygon fill="#191970" stroke="#191970" points="788.0848,-166.0001 778.0847,-169.5 788.0847,-173.0001 788.0848,-166.0001"/>
</g>
<!-- Node11 -->
<g id="node11" class="node">
<title>Node11</title>
<g id="a_node11"><a xlink:href="../../d7/df2/classPHActsSourceLinks.html#a8d10b5904edcf4c6a90411e0f259e663" target="_top" xlink:title="PHActsSourceLinks::\lInitRun">
<polygon fill="none" stroke="#000000" points="1015,-153.5 1015,-185.5 1133,-185.5 1133,-153.5 1015,-153.5"/>
<text text-anchor="start" x="1023" y="-172.5" font-family="FreeSans" font-size="10.00" fill="#000000">PHActsSourceLinks::</text>
<text text-anchor="middle" x="1074" y="-160.5" font-family="FreeSans" font-size="10.00" fill="#000000">InitRun</text>
</a>
</g>
</g>
<!-- Node10&#45;&gt;Node11 -->
<g id="edge10" class="edge">
<title>Node10&#45;&gt;Node11</title>
<path fill="none" stroke="#191970" d="M989.2859,-169.5C997.9615,-169.5 1006.6067,-169.5 1014.8763,-169.5"/>
<polygon fill="#191970" stroke="#191970" points="989.1083,-166.0001 979.1083,-169.5 989.1083,-173.0001 989.1083,-166.0001"/>
</g>
<!-- Node13 -->
<g id="node13" class="node">
<title>Node13</title>
<g id="a_node13"><a xlink:href="../../de/d25/classPHGenFitTrkFitter.html#a2e088a68ab24c5b89b902205f877f9d6" target="_top" xlink:title="Process Event, called for each event.">
<polygon fill="none" stroke="#000000" points="414,-102.5 414,-134.5 523,-134.5 523,-102.5 414,-102.5"/>
<text text-anchor="start" x="422" y="-121.5" font-family="FreeSans" font-size="10.00" fill="#000000">PHGenFitTrkFitter::</text>
<text text-anchor="middle" x="468.5" y="-109.5" font-family="FreeSans" font-size="10.00" fill="#000000">process_event</text>
</a>
</g>
</g>
<!-- Node12&#45;&gt;Node13 -->
<g id="edge12" class="edge">
<title>Node12&#45;&gt;Node13</title>
<path fill="none" stroke="#191970" d="M311.3956,-118.5C343.8811,-118.5 382.7737,-118.5 413.7343,-118.5"/>
<polygon fill="#191970" stroke="#191970" points="311.0917,-115.0001 301.0916,-118.5 311.0916,-122.0001 311.0917,-115.0001"/>
</g>
<!-- Node15 -->
<g id="node15" class="node">
<title>Node15</title>
<g id="a_node15"><a xlink:href="../../d0/d22/classPHGenFitTrkProp.html#ac159ce1352f6004a2f51a520c287c339" target="_top" xlink:title="KalmanTrkProp Call.">
<polygon fill="none" stroke="#000000" points="391,-51.5 391,-83.5 546,-83.5 546,-51.5 391,-51.5"/>
<text text-anchor="start" x="399" y="-70.5" font-family="FreeSans" font-size="10.00" fill="#000000">PHGenFitTrkProp::SvtxTrack</text>
<text text-anchor="middle" x="468.5" y="-58.5" font-family="FreeSans" font-size="10.00" fill="#000000">ToPHGenFitTracks</text>
</a>
</g>
</g>
<!-- Node14&#45;&gt;Node15 -->
<g id="edge14" class="edge">
<title>Node14&#45;&gt;Node15</title>
<path fill="none" stroke="#191970" d="M337.5738,-67.5C355.2256,-67.5 373.5725,-67.5 390.7492,-67.5"/>
<polygon fill="#191970" stroke="#191970" points="337.2751,-64.0001 327.2751,-67.5 337.2751,-71.0001 337.2751,-64.0001"/>
</g>
<!-- Node18 -->
<g id="node18" class="node">
<title>Node18</title>
<g id="a_node18"><a xlink:href="../../d0/d22/classPHGenFitTrkProp.html#a8de33eaa04103e00006e98f15ba808a0" target="_top" xlink:title="PHGenFitTrkProp::TrackProp\lPatRec">
<polygon fill="none" stroke="#000000" points="391,-.5 391,-32.5 546,-32.5 546,-.5 391,-.5"/>
<text text-anchor="start" x="399" y="-19.5" font-family="FreeSans" font-size="10.00" fill="#000000">PHGenFitTrkProp::TrackProp</text>
<text text-anchor="middle" x="468.5" y="-7.5" font-family="FreeSans" font-size="10.00" fill="#000000">PatRec</text>
</a>
</g>
</g>
<!-- Node14&#45;&gt;Node18 -->
<g id="edge17" class="edge">
<title>Node14&#45;&gt;Node18</title>
<path fill="none" stroke="#191970" d="M326.408,-49.1428C349.996,-43.7239 375.6216,-37.8369 398.5328,-32.5736"/>
<polygon fill="#191970" stroke="#191970" points="325.3999,-45.7831 316.4375,-51.4333 326.9673,-52.6054 325.3999,-45.7831"/>
</g>
<!-- Node16 -->
<g id="node16" class="node">
<title>Node16</title>
<g id="a_node16"><a xlink:href="../../d0/d22/classPHGenFitTrkProp.html#ab11c2e61a1b78278fa4af7cf624c2538" target="_top" xlink:title="Main function.">
<polygon fill="none" stroke="#000000" points="604,-32.5 604,-52.5 785,-52.5 785,-32.5 604,-32.5"/>
<text text-anchor="middle" x="694.5" y="-39.5" font-family="FreeSans" font-size="10.00" fill="#000000">PHGenFitTrkProp::KalmanTrkProp</text>
</a>
</g>
</g>
<!-- Node15&#45;&gt;Node16 -->
<g id="edge15" class="edge">
<title>Node15&#45;&gt;Node16</title>
<path fill="none" stroke="#191970" d="M556.3792,-57.7789C571.9193,-56.0598 588.1271,-54.2669 603.7447,-52.5393"/>
<polygon fill="#191970" stroke="#191970" points="555.8309,-54.3181 546.2764,-58.8964 556.6006,-61.2756 555.8309,-54.3181"/>
</g>
<!-- Node17 -->
<g id="node17" class="node">
<title>Node17</title>
<g id="a_node17"><a xlink:href="../../d0/d22/classPHGenFitTrkProp.html#a31e50e42d62a2bf32763652b39dc95b8" target="_top" xlink:title="PHGenFitTrkProp::Process">
<polygon fill="none" stroke="#000000" points="828,-32.5 828,-52.5 972,-52.5 972,-32.5 828,-32.5"/>
<text text-anchor="middle" x="900" y="-39.5" font-family="FreeSans" font-size="10.00" fill="#000000">PHGenFitTrkProp::Process</text>
</a>
</g>
</g>
<!-- Node16&#45;&gt;Node17 -->
<g id="edge16" class="edge">
<title>Node16&#45;&gt;Node17</title>
<path fill="none" stroke="#191970" d="M795.3257,-42.5C806.3398,-42.5 817.3835,-42.5 827.9502,-42.5"/>
<polygon fill="#191970" stroke="#191970" points="795.2335,-39.0001 785.2335,-42.5 795.2334,-46.0001 795.2335,-39.0001"/>
</g>
<!-- Node18&#45;&gt;Node16 -->
<g id="edge18" class="edge">
<title>Node18&#45;&gt;Node16</title>
<path fill="none" stroke="#191970" d="M556.5415,-26.6287C573.2083,-28.5461 590.6377,-30.5512 607.2791,-32.4657"/>
<polygon fill="#191970" stroke="#191970" points="556.6109,-23.1136 546.2764,-25.4477 555.8108,-30.0678 556.6109,-23.1136"/>
</g>
</g>
</svg>
