<?xml version="1.0" encoding="UTF-8" standalone="no"?>
<!DOCTYPE svg PUBLIC "-//W3C//DTD SVG 1.1//EN"
 "http://www.w3.org/Graphics/SVG/1.1/DTD/svg11.dtd">
<!-- Generated by graphviz version 2.40.1 (20161225.0304)
 -->
<!-- Title: fun4all_tutorials/blob/master/AnaTutorial/src/AnaTutorial.cc Pages: 1 -->
<svg width="3413pt" height="374pt"
 viewBox="0.00 0.00 3413.46 374.00" xmlns="http://www.w3.org/2000/svg" xmlns:xlink="http://www.w3.org/1999/xlink">
<g id="graph0" class="graph" transform="scale(1 1) rotate(0) translate(4 370)">
<title>fun4all_tutorials/blob/master/AnaTutorial/src/AnaTutorial.cc</title>
<!-- Node1 -->
<g id="node1" class="node">
<title>Node1</title>
<polygon fill="#bfbfbf" stroke="#000000" points="1893.456,-321.5 1893.456,-365.5 2027.456,-365.5 2027.456,-321.5 1893.456,-321.5"/>
<text text-anchor="start" x="1901.456" y="-352.5" font-family="FreeSans" font-size="10.00" fill="#000000">fun4all_tutorials/blob</text>
<text text-anchor="start" x="1901.456" y="-340.5" font-family="FreeSans" font-size="10.00" fill="#000000">/master/AnaTutorial/src</text>
<text text-anchor="middle" x="1960.456" y="-328.5" font-family="FreeSans" font-size="10.00" fill="#000000">/AnaTutorial.cc</text>
</g>
<!-- Node2 -->
<g id="node2" class="node">
<title>Node2</title>
<g id="a_node2"><a xlink:href="../../d9/d87/AnaTutorial_8h.html" target="_top" xlink:title="AnaTutorial.h">
<polygon fill="none" stroke="#000000" points="2631.956,-258.5 2631.956,-278.5 2714.956,-278.5 2714.956,-258.5 2631.956,-258.5"/>
<text text-anchor="middle" x="2673.456" y="-265.5" font-family="FreeSans" font-size="10.00" fill="#000000">AnaTutorial.h</text>
</a>
</g>
</g>
<!-- Node1&#45;&gt;Node2 -->
<g id="edge1" class="edge">
<title>Node1&#45;&gt;Node2</title>
<path fill="none" stroke="#191970" d="M2027.7387,-341.8892C2147.3738,-338.0557 2404.544,-325.4332 2617.456,-285 2622.8082,-283.9836 2628.3815,-282.6666 2633.8472,-281.2201"/>
<polygon fill="#191970" stroke="#191970" points="2634.8149,-284.5838 2643.4983,-278.5134 2632.9246,-277.8439 2634.8149,-284.5838"/>
</g>
<!-- Node4 -->
<g id="node4" class="node">
<title>Node4</title>
<polygon fill="none" stroke="#bfbfbf" points="2506.956,-120.5 2506.956,-140.5 2551.956,-140.5 2551.956,-120.5 2506.956,-120.5"/>
<text text-anchor="middle" x="2529.456" y="-127.5" font-family="FreeSans" font-size="10.00" fill="#000000">string</text>
</g>
<!-- Node1&#45;&gt;Node4 -->
<g id="edge107" class="edge">
<title>Node1&#45;&gt;Node4</title>
<path fill="none" stroke="#191970" d="M2027.4702,-341.7079C2205.6403,-336.494 2681.7113,-319.4685 2743.456,-285 2787.5392,-260.3909 2825.4856,-222.0262 2793.456,-183 2764.59,-147.8283 2626.8798,-135.7871 2562.6198,-132.0382"/>
<polygon fill="#191970" stroke="#191970" points="2562.4169,-128.5218 2552.24,-131.4679 2562.0329,-135.5113 2562.4169,-128.5218"/>
</g>
<!-- Node5 -->
<g id="node5" class="node">
<title>Node5</title>
<polygon fill="none" stroke="#bfbfbf" points="142.456,-258.5 142.456,-278.5 272.456,-278.5 272.456,-258.5 142.456,-258.5"/>
<text text-anchor="middle" x="207.456" y="-265.5" font-family="FreeSans" font-size="10.00" fill="#000000">calobase/RawCluster.h</text>
</g>
<!-- Node1&#45;&gt;Node5 -->
<g id="edge4" class="edge">
<title>Node1&#45;&gt;Node5</title>
<path fill="none" stroke="#191970" d="M1893.2751,-342.8147C1621.308,-339.7845 601.3321,-325.8786 281.456,-285 273.1039,-283.9326 264.3054,-282.3685 255.8049,-280.6224"/>
<polygon fill="#191970" stroke="#191970" points="256.5211,-277.1964 246.0077,-278.508 255.0443,-284.0389 256.5211,-277.1964"/>
</g>
<!-- Node6 -->
<g id="node6" class="node">
<title>Node6</title>
<polygon fill="none" stroke="#bfbfbf" points="290.956,-258.5 290.956,-278.5 469.956,-278.5 469.956,-258.5 290.956,-258.5"/>
<text text-anchor="middle" x="380.456" y="-265.5" font-family="FreeSans" font-size="10.00" fill="#000000">calobase/RawClusterContainer.h</text>
</g>
<!-- Node1&#45;&gt;Node6 -->
<g id="edge5" class="edge">
<title>Node1&#45;&gt;Node6</title>
<path fill="none" stroke="#191970" d="M1893.2479,-341.9862C1642.0724,-336.1515 758.5916,-313.9927 478.456,-285 466.7244,-283.7858 454.2703,-282.0436 442.3161,-280.1418"/>
<polygon fill="#191970" stroke="#191970" points="442.8543,-276.6834 432.419,-278.515 441.7188,-283.5907 442.8543,-276.6834"/>
</g>
<!-- Node7 -->
<g id="node7" class="node">
<title>Node7</title>
<polygon fill="none" stroke="#bfbfbf" points="487.956,-258.5 487.956,-278.5 646.956,-278.5 646.956,-258.5 487.956,-258.5"/>
<text text-anchor="middle" x="567.456" y="-265.5" font-family="FreeSans" font-size="10.00" fill="#000000">calobase/RawClusterUtility.h</text>
</g>
<!-- Node1&#45;&gt;Node7 -->
<g id="edge6" class="edge">
<title>Node1&#45;&gt;Node7</title>
<path fill="none" stroke="#191970" d="M1893.4559,-341.7432C1662.3033,-335.487 899.051,-313.1555 655.456,-285 645.3806,-283.8355 634.7244,-282.1926 624.4379,-280.391"/>
<polygon fill="#191970" stroke="#191970" points="624.775,-276.8949 614.31,-278.5482 623.5219,-283.7819 624.775,-276.8949"/>
</g>
<!-- Node8 -->
<g id="node8" class="node">
<title>Node8</title>
<polygon fill="none" stroke="#bfbfbf" points="664.956,-258.5 664.956,-278.5 787.956,-278.5 787.956,-258.5 664.956,-258.5"/>
<text text-anchor="middle" x="726.456" y="-265.5" font-family="FreeSans" font-size="10.00" fill="#000000">calobase/RawTower.h</text>
</g>
<!-- Node1&#45;&gt;Node8 -->
<g id="edge7" class="edge">
<title>Node1&#45;&gt;Node8</title>
<path fill="none" stroke="#191970" d="M1893.3019,-341.7264C1678.6222,-335.8045 1010.5636,-315.3585 796.456,-285 788.9779,-283.9397 781.1253,-282.4591 773.4928,-280.8162"/>
<polygon fill="#191970" stroke="#191970" points="774.1619,-277.3792 763.6359,-278.5845 772.6162,-284.2064 774.1619,-277.3792"/>
</g>
<!-- Node9 -->
<g id="node9" class="node">
<title>Node9</title>
<polygon fill="none" stroke="#bfbfbf" points="805.956,-258.5 805.956,-278.5 978.956,-278.5 978.956,-258.5 805.956,-258.5"/>
<text text-anchor="middle" x="892.456" y="-265.5" font-family="FreeSans" font-size="10.00" fill="#000000">calobase/RawTowerContainer.h</text>
</g>
<!-- Node1&#45;&gt;Node9 -->
<g id="edge8" class="edge">
<title>Node1&#45;&gt;Node9</title>
<path fill="none" stroke="#191970" d="M1893.3573,-342.0046C1735.2363,-337.9266 1327.0561,-324.1673 988.456,-285 977.5235,-283.7354 965.9455,-282.0475 954.7567,-280.2331"/>
<polygon fill="#191970" stroke="#191970" points="955.0603,-276.7354 944.6203,-278.5399 953.9069,-283.6398 955.0603,-276.7354"/>
</g>
<!-- Node10 -->
<g id="node10" class="node">
<title>Node10</title>
<polygon fill="none" stroke="#bfbfbf" points="997.456,-258.5 997.456,-278.5 1151.456,-278.5 1151.456,-258.5 997.456,-258.5"/>
<text text-anchor="middle" x="1074.456" y="-265.5" font-family="FreeSans" font-size="10.00" fill="#000000">calobase/RawTowerGeom.h</text>
</g>
<!-- Node1&#45;&gt;Node10 -->
<g id="edge9" class="edge">
<title>Node1&#45;&gt;Node10</title>
<path fill="none" stroke="#191970" d="M1893.2857,-341.2338C1755.4159,-336.0004 1430.7114,-320.6833 1160.456,-285 1151.0595,-283.7593 1141.1393,-282.1444 1131.5077,-280.411"/>
<polygon fill="#191970" stroke="#191970" points="1132.0801,-276.9576 1121.6091,-278.5725 1130.8018,-283.8399 1132.0801,-276.9576"/>
</g>
<!-- Node11 -->
<g id="node11" class="node">
<title>Node11</title>
<polygon fill="none" stroke="#bfbfbf" points="1169.956,-258.5 1169.956,-278.5 1372.956,-278.5 1372.956,-258.5 1169.956,-258.5"/>
<text text-anchor="middle" x="1271.456" y="-265.5" font-family="FreeSans" font-size="10.00" fill="#000000">calobase/RawTowerGeomContainer.h</text>
</g>
<!-- Node1&#45;&gt;Node11 -->
<g id="edge10" class="edge">
<title>Node1&#45;&gt;Node11</title>
<path fill="none" stroke="#191970" d="M1893.1519,-337.7158C1785.2299,-328.2097 1566.8585,-308.0246 1382.456,-285 1370.5243,-283.5102 1357.894,-281.7797 1345.5955,-280.0112"/>
<polygon fill="#191970" stroke="#191970" points="1345.7656,-276.4991 1335.3655,-278.5211 1344.7566,-283.426 1345.7656,-276.4991"/>
</g>
<!-- Node12 -->
<g id="node12" class="node">
<title>Node12</title>
<polygon fill="none" stroke="#bfbfbf" points="1391.456,-258.5 1391.456,-278.5 1551.456,-278.5 1551.456,-258.5 1391.456,-258.5"/>
<text text-anchor="middle" x="1471.456" y="-265.5" font-family="FreeSans" font-size="10.00" fill="#000000">calotrigger/CaloTriggerInfo.h</text>
</g>
<!-- Node1&#45;&gt;Node12 -->
<g id="edge11" class="edge">
<title>Node1&#45;&gt;Node12</title>
<path fill="none" stroke="#191970" d="M1893.2765,-334.1084C1814.6102,-322.9818 1680.426,-303.6006 1565.456,-285 1556.2301,-283.5074 1546.5062,-281.8714 1536.9517,-280.2278"/>
<polygon fill="#191970" stroke="#191970" points="1537.5351,-276.7768 1527.0843,-278.518 1536.3398,-283.6741 1537.5351,-276.7768"/>
</g>
<!-- Node13 -->
<g id="node13" class="node">
<title>Node13</title>
<g id="a_node13"><a xlink:href="../../da/db7/Jet_8h.html" target="_top" xlink:title="g4jets/Jet.h">
<polygon fill="none" stroke="#000000" points="936.956,-120.5 936.956,-140.5 1009.956,-140.5 1009.956,-120.5 936.956,-120.5"/>
<text text-anchor="middle" x="973.456" y="-127.5" font-family="FreeSans" font-size="10.00" fill="#000000">g4jets/Jet.h</text>
</a>
</g>
</g>
<!-- Node1&#45;&gt;Node13 -->
<g id="edge12" class="edge">
<title>Node1&#45;&gt;Node13</title>
<path fill="none" stroke="#191970" d="M1893.1933,-339.7628C1832.1091,-334.1508 1740.9113,-320.1127 1669.456,-285 1649.3805,-275.135 1651.8245,-261.2449 1631.456,-252 1524.8271,-203.6029 1485.774,-236.3411 1370.456,-216 1242.9693,-193.5124 1094.1293,-159.2987 1020.1506,-141.7482"/>
<polygon fill="#191970" stroke="#191970" points="1020.7573,-138.2949 1010.2188,-139.3852 1019.1371,-145.1048 1020.7573,-138.2949"/>
</g>
<!-- Node19 -->
<g id="node19" class="node">
<title>Node19</title>
<g id="a_node19"><a xlink:href="../../df/dd0/JetMap_8h.html" target="_top" xlink:title="g4jets/JetMap.h">
<polygon fill="none" stroke="#000000" points="1029.456,-189.5 1029.456,-209.5 1123.456,-209.5 1123.456,-189.5 1029.456,-189.5"/>
<text text-anchor="middle" x="1076.456" y="-196.5" font-family="FreeSans" font-size="10.00" fill="#000000">g4jets/JetMap.h</text>
</a>
</g>
</g>
<!-- Node1&#45;&gt;Node19 -->
<g id="edge19" class="edge">
<title>Node1&#45;&gt;Node19</title>
<path fill="none" stroke="#191970" d="M1893.4038,-339.3933C1827.2146,-333.4749 1724.1968,-319.188 1641.456,-285 1617.5294,-275.1137 1617.7596,-260.9196 1593.456,-252 1551.1339,-236.4675 1259.7248,-213.1848 1133.9959,-203.7233"/>
<polygon fill="#191970" stroke="#191970" points="1134.0279,-200.216 1123.7942,-202.9586 1133.5046,-207.1964 1134.0279,-200.216"/>
</g>
<!-- Node21 -->
<g id="node21" class="node">
<title>Node21</title>
<g id="a_node21"><a xlink:href="../../d7/de5/GlobalVertex_8h.html" target="_top" xlink:title="g4vertex/GlobalVertex.h">
<polygon fill="none" stroke="#000000" points="1256.956,-120.5 1256.956,-140.5 1395.956,-140.5 1395.956,-120.5 1256.956,-120.5"/>
<text text-anchor="middle" x="1326.456" y="-127.5" font-family="FreeSans" font-size="10.00" fill="#000000">g4vertex/GlobalVertex.h</text>
</a>
</g>
</g>
<!-- Node1&#45;&gt;Node21 -->
<g id="edge27" class="edge">
<title>Node1&#45;&gt;Node21</title>
<path fill="none" stroke="#191970" d="M1893.1279,-333.2261C1849.2192,-324.6284 1791.6951,-309.6858 1745.456,-285 1725.7236,-274.4654 1727.215,-262.4846 1707.456,-252 1652.6033,-222.8937 1631.0982,-236.4228 1572.456,-216 1537.68,-203.8889 1530.9897,-195.7857 1496.456,-183 1455.1947,-167.7235 1407.2198,-153.1936 1372.7761,-143.3088"/>
<polygon fill="#191970" stroke="#191970" points="1373.5674,-139.895 1362.9911,-140.5211 1371.6494,-146.6272 1373.5674,-139.895"/>
</g>
<!-- Node22 -->
<g id="node22" class="node">
<title>Node22</title>
<g id="a_node22"><a xlink:href="../../de/ddd/GlobalVertexMap_8h.html" target="_top" xlink:title="g4vertex/GlobalVertexMap.h">
<polygon fill="none" stroke="#000000" points="1718.456,-120.5 1718.456,-140.5 1878.456,-140.5 1878.456,-120.5 1718.456,-120.5"/>
<text text-anchor="middle" x="1798.456" y="-127.5" font-family="FreeSans" font-size="10.00" fill="#000000">g4vertex/GlobalVertexMap.h</text>
</a>
</g>
</g>
<!-- Node1&#45;&gt;Node22 -->
<g id="edge32" class="edge">
<title>Node1&#45;&gt;Node22</title>
<path fill="none" stroke="#191970" d="M1900.74,-321.4949C1882.8905,-312.4852 1864.5981,-300.466 1851.456,-285 1817.6192,-245.1798 1805.0338,-182.6339 1800.6376,-150.7114"/>
<polygon fill="#191970" stroke="#191970" points="1804.1105,-150.276 1799.4028,-140.7845 1797.1641,-151.1401 1804.1105,-150.276"/>
</g>
<!-- Node23 -->
<g id="node23" class="node">
<title>Node23</title>
<g id="a_node23"><a xlink:href="../../d0/d87/SvtxTrack_8h.html" target="_top" xlink:title="trackbase_historic\l/SvtxTrack.h">
<polygon fill="none" stroke="#000000" points="298.456,-183.5 298.456,-215.5 406.456,-215.5 406.456,-183.5 298.456,-183.5"/>
<text text-anchor="start" x="306.456" y="-202.5" font-family="FreeSans" font-size="10.00" fill="#000000">trackbase_historic</text>
<text text-anchor="middle" x="352.456" y="-190.5" font-family="FreeSans" font-size="10.00" fill="#000000">/SvtxTrack.h</text>
</a>
</g>
</g>
<!-- Node1&#45;&gt;Node23 -->
<g id="edge36" class="edge">
<title>Node1&#45;&gt;Node23</title>
<path fill="none" stroke="#191970" d="M1893.3624,-342.7604C1553.9623,-338.8638 41.0099,-319.574 7.456,-285 -2.7584,-274.475 -2.103,-263.1237 7.456,-252 25.4813,-231.0242 193.3122,-213.2617 288.0751,-204.8001"/>
<polygon fill="#191970" stroke="#191970" points="288.4784,-208.2782 298.132,-203.9124 287.863,-201.3053 288.4784,-208.2782"/>
</g>
<!-- Node27 -->
<g id="node27" class="node">
<title>Node27</title>
<g id="a_node27"><a xlink:href="../../d7/d9f/SvtxTrackMap_8h.html" target="_top" xlink:title="trackbase_historic\l/SvtxTrackMap.h">
<polygon fill="none" stroke="#000000" points="16.456,-252.5 16.456,-284.5 124.456,-284.5 124.456,-252.5 16.456,-252.5"/>
<text text-anchor="start" x="24.456" y="-271.5" font-family="FreeSans" font-size="10.00" fill="#000000">trackbase_historic</text>
<text text-anchor="middle" x="70.456" y="-259.5" font-family="FreeSans" font-size="10.00" fill="#000000">/SvtxTrackMap.h</text>
</a>
</g>
</g>
<!-- Node1&#45;&gt;Node27 -->
<g id="edge48" class="edge">
<title>Node1&#45;&gt;Node27</title>
<path fill="none" stroke="#191970" d="M1893.2199,-343.3626C1608.9477,-342.4742 503.8154,-335.8451 134.7663,-284.9435"/>
<polygon fill="#191970" stroke="#191970" points="134.9859,-281.4397 124.5937,-283.5019 134.0036,-288.3705 134.9859,-281.4397"/>
</g>
<!-- Node28 -->
<g id="node28" class="node">
<title>Node28</title>
<g id="a_node28"><a xlink:href="../../dc/dc1/SvtxVertex_8h.html" target="_top" xlink:title="trackbase_historic\l/SvtxVertex.h">
<polygon fill="none" stroke="#ff0000" points="576.456,-114.5 576.456,-146.5 684.456,-146.5 684.456,-114.5 576.456,-114.5"/>
<text text-anchor="start" x="584.456" y="-133.5" font-family="FreeSans" font-size="10.00" fill="#000000">trackbase_historic</text>
<text text-anchor="middle" x="630.456" y="-121.5" font-family="FreeSans" font-size="10.00" fill="#000000">/SvtxVertex.h</text>
</a>
</g>
</g>
<!-- Node1&#45;&gt;Node28 -->
<g id="edge53" class="edge">
<title>Node1&#45;&gt;Node28</title>
<path fill="none" stroke="#191970" d="M1893.2525,-337.7844C1802.0557,-329.1838 1644.6069,-311.0946 1593.456,-285 1574.9796,-275.5743 1579.3442,-260.5708 1560.456,-252 1450.9375,-202.304 1139.5256,-232.9243 1020.456,-216 904.3706,-199.4998 771.4181,-167.4751 694.5726,-147.646"/>
<polygon fill="#191970" stroke="#191970" points="695.1263,-144.1739 684.5679,-145.0514 693.369,-150.9498 695.1263,-144.1739"/>
</g>
<!-- Node29 -->
<g id="node29" class="node">
<title>Node29</title>
<g id="a_node29"><a xlink:href="../../d0/d19/SvtxVertexMap_8h.html" target="_top" xlink:title="trackbase_historic\l/SvtxVertexMap.h">
<polygon fill="none" stroke="#000000" points="1379.456,-183.5 1379.456,-215.5 1487.456,-215.5 1487.456,-183.5 1379.456,-183.5"/>
<text text-anchor="start" x="1387.456" y="-202.5" font-family="FreeSans" font-size="10.00" fill="#000000">trackbase_historic</text>
<text text-anchor="middle" x="1433.456" y="-190.5" font-family="FreeSans" font-size="10.00" fill="#000000">/SvtxVertexMap.h</text>
</a>
</g>
</g>
<!-- Node1&#45;&gt;Node29 -->
<g id="edge58" class="edge">
<title>Node1&#45;&gt;Node29</title>
<path fill="none" stroke="#191970" d="M1893.3446,-334.1334C1843.314,-325.554 1774.1333,-310.2607 1717.456,-285 1693.8096,-274.461 1693.1929,-262.3335 1669.456,-252 1639.0783,-238.7756 1556.4204,-221.8966 1497.5135,-210.8994"/>
<polygon fill="#191970" stroke="#191970" points="1498.0135,-207.4325 1487.5432,-209.0517 1496.738,-214.3153 1498.0135,-207.4325"/>
</g>
<!-- Node30 -->
<g id="node30" class="node">
<title>Node30</title>
<g id="a_node30"><a xlink:href="../../db/de2/JetEvalStack_8h.html" target="_top" xlink:title="g4eval/JetEvalStack.h">
<polygon fill="none" stroke="#ff0000" points="2658.956,-189.5 2658.956,-209.5 2783.956,-209.5 2783.956,-189.5 2658.956,-189.5"/>
<text text-anchor="middle" x="2721.456" y="-196.5" font-family="FreeSans" font-size="10.00" fill="#000000">g4eval/JetEvalStack.h</text>
</a>
</g>
</g>
<!-- Node1&#45;&gt;Node30 -->
<g id="edge63" class="edge">
<title>Node1&#45;&gt;Node30</title>
<path fill="none" stroke="#191970" d="M2027.4972,-340.8186C2209.5153,-333.2161 2700.909,-310.4189 2724.456,-285 2740.5523,-267.6241 2735.4309,-238.7189 2729.28,-219.3907"/>
<polygon fill="#191970" stroke="#191970" points="2732.5139,-218.0371 2725.8851,-209.7721 2725.913,-220.3669 2732.5139,-218.0371"/>
</g>
<!-- Node31 -->
<g id="node31" class="node">
<title>Node31</title>
<g id="a_node31"><a xlink:href="../../d3/d59/SvtxEvalStack_8h.html" target="_top" xlink:title="SvtxEvalStack.h">
<polygon fill="none" stroke="#ff0000" points="1911.956,-258.5 1911.956,-278.5 2008.956,-278.5 2008.956,-258.5 1911.956,-258.5"/>
<text text-anchor="middle" x="1960.456" y="-265.5" font-family="FreeSans" font-size="10.00" fill="#000000">SvtxEvalStack.h</text>
</a>
</g>
</g>
<!-- Node1&#45;&gt;Node31 -->
<g id="edge65" class="edge">
<title>Node1&#45;&gt;Node31</title>
<path fill="none" stroke="#191970" d="M1960.456,-321.4032C1960.456,-311.1059 1960.456,-298.9331 1960.456,-288.8616"/>
<polygon fill="#191970" stroke="#191970" points="1963.9561,-288.5953 1960.456,-278.5954 1956.9561,-288.5954 1963.9561,-288.5953"/>
</g>
<!-- Node32 -->
<g id="node32" class="node">
<title>Node32</title>
<polygon fill="none" stroke="#bfbfbf" points="2027.456,-258.5 2027.456,-278.5 2141.456,-278.5 2141.456,-258.5 2027.456,-258.5"/>
<text text-anchor="middle" x="2084.456" y="-265.5" font-family="FreeSans" font-size="10.00" fill="#000000">HepMC/GenEvent.h</text>
</g>
<!-- Node1&#45;&gt;Node32 -->
<g id="edge66" class="edge">
<title>Node1&#45;&gt;Node32</title>
<path fill="none" stroke="#191970" d="M1996.9894,-321.4032C2016.9433,-309.3343 2041.1568,-294.6891 2059.0439,-283.8702"/>
<polygon fill="#191970" stroke="#191970" points="2061.0198,-286.7656 2067.765,-278.5954 2057.397,-280.776 2061.0198,-286.7656"/>
</g>
<!-- Node33 -->
<g id="node33" class="node">
<title>Node33</title>
<polygon fill="none" stroke="#bfbfbf" points="2159.456,-258.5 2159.456,-278.5 2277.456,-278.5 2277.456,-258.5 2159.456,-258.5"/>
<text text-anchor="middle" x="2218.456" y="-265.5" font-family="FreeSans" font-size="10.00" fill="#000000">HepMC/GenVertex.h</text>
</g>
<!-- Node1&#45;&gt;Node33 -->
<g id="edge67" class="edge">
<title>Node1&#45;&gt;Node33</title>
<path fill="none" stroke="#191970" d="M2027.569,-323.9904C2073.6786,-310.5865 2133.6131,-293.1636 2173.9188,-281.4469"/>
<polygon fill="#191970" stroke="#191970" points="2175.0973,-284.7492 2183.7228,-278.5969 2173.1432,-278.0275 2175.0973,-284.7492"/>
</g>
<!-- Node34 -->
<g id="node34" class="node">
<title>Node34</title>
<g id="a_node34"><a xlink:href="../../d3/d8c/PHHepMCGenEvent_8h.html" target="_top" xlink:title="phhepmc/PHHepMCGenEvent.h">
<polygon fill="none" stroke="#ff0000" points="1896.456,-120.5 1896.456,-140.5 2072.456,-140.5 2072.456,-120.5 1896.456,-120.5"/>
<text text-anchor="middle" x="1984.456" y="-127.5" font-family="FreeSans" font-size="10.00" fill="#000000">phhepmc/PHHepMCGenEvent.h</text>
</a>
</g>
</g>
<!-- Node1&#45;&gt;Node34 -->
<g id="edge68" class="edge">
<title>Node1&#45;&gt;Node34</title>
<path fill="none" stroke="#191970" d="M1907.4168,-321.4856C1892.4323,-312.4991 1877.9159,-300.4957 1869.456,-285 1847.7328,-245.2104 1844.9444,-221.1352 1869.456,-183 1881.7536,-163.8675 1902.9393,-151.6219 1923.8022,-143.8226"/>
<polygon fill="#191970" stroke="#191970" points="1925.0151,-147.1067 1933.3321,-140.5432 1922.7374,-140.4876 1925.0151,-147.1067"/>
</g>
<!-- Node35 -->
<g id="node35" class="node">
<title>Node35</title>
<g id="a_node35"><a xlink:href="../../d4/dd2/PHHepMCGenEventMap_8h.html" target="_top" xlink:title="phhepmc/PHHepMCGenEventMap.h">
<polygon fill="none" stroke="#000000" points="1581.956,-189.5 1581.956,-209.5 1778.956,-209.5 1778.956,-189.5 1581.956,-189.5"/>
<text text-anchor="middle" x="1680.456" y="-196.5" font-family="FreeSans" font-size="10.00" fill="#000000">phhepmc/PHHepMCGenEventMap.h</text>
</a>
</g>
</g>
<!-- Node1&#45;&gt;Node35 -->
<g id="edge71" class="edge">
<title>Node1&#45;&gt;Node35</title>
<path fill="none" stroke="#191970" d="M1893.4238,-325.262C1862.0922,-315.4351 1824.8593,-301.8446 1793.456,-285 1774.2853,-274.7169 1727.67,-237.8344 1700.6806,-216.0132"/>
<polygon fill="#191970" stroke="#191970" points="1702.6375,-213.0938 1692.667,-209.5104 1698.2267,-218.5293 1702.6375,-213.0938"/>
</g>
<!-- Node36 -->
<g id="node36" class="node">
<title>Node36</title>
<g id="a_node36"><a xlink:href="../../d0/d59/Fun4AllHistoManager_8h.html" target="_top" xlink:title="fun4all/Fun4AllHistoManager.h">
<polygon fill="none" stroke="#ff0000" points="2210.456,-189.5 2210.456,-209.5 2380.456,-209.5 2380.456,-189.5 2210.456,-189.5"/>
<text text-anchor="middle" x="2295.456" y="-196.5" font-family="FreeSans" font-size="10.00" fill="#000000">fun4all/Fun4AllHistoManager.h</text>
</a>
</g>
</g>
<!-- Node1&#45;&gt;Node36 -->
<g id="edge77" class="edge">
<title>Node1&#45;&gt;Node36</title>
<path fill="none" stroke="#191970" d="M2027.6645,-337.7233C2130.1393,-328.2275 2315.7176,-308.0564 2335.456,-285 2352.8945,-264.6303 2331.7,-235.3706 2314.1337,-216.9068"/>
<polygon fill="#191970" stroke="#191970" points="2316.493,-214.316 2306.9507,-209.7121 2311.5392,-219.2618 2316.493,-214.316"/>
</g>
<!-- Node37 -->
<g id="node37" class="node">
<title>Node37</title>
<g id="a_node37"><a xlink:href="../../da/dc1/Fun4AllReturnCodes_8h.html" target="_top" xlink:title="fun4all/Fun4AllReturnCodes.h">
<polygon fill="none" stroke="#000000" points="2409.456,-258.5 2409.456,-278.5 2575.456,-278.5 2575.456,-258.5 2409.456,-258.5"/>
<text text-anchor="middle" x="2492.456" y="-265.5" font-family="FreeSans" font-size="10.00" fill="#000000">fun4all/Fun4AllReturnCodes.h</text>
</a>
</g>
</g>
<!-- Node1&#45;&gt;Node37 -->
<g id="edge80" class="edge">
<title>Node1&#45;&gt;Node37</title>
<path fill="none" stroke="#191970" d="M2027.6278,-335.2033C2113.1754,-324.4677 2265.5072,-304.7841 2395.456,-285 2405.2086,-283.5152 2415.4973,-281.8606 2425.584,-280.1885"/>
<polygon fill="#191970" stroke="#191970" points="2426.291,-283.6189 2435.576,-278.5161 2425.1354,-276.7149 2426.291,-283.6189"/>
</g>
<!-- Node38 -->
<g id="node38" class="node">
<title>Node38</title>
<g id="a_node38"><a xlink:href="../../de/d83/PHG4Hit_8h.html" target="_top" xlink:title="g4main/PHG4Hit.h">
<polygon fill="none" stroke="#ff0000" points="1932.456,-189.5 1932.456,-209.5 2042.456,-209.5 2042.456,-189.5 1932.456,-189.5"/>
<text text-anchor="middle" x="1987.456" y="-196.5" font-family="FreeSans" font-size="10.00" fill="#000000">g4main/PHG4Hit.h</text>
</a>
</g>
</g>
<!-- Node1&#45;&gt;Node38 -->
<g id="edge81" class="edge">
<title>Node1&#45;&gt;Node38</title>
<path fill="none" stroke="#191970" d="M2027.6509,-341.2459C2113.2856,-336.7957 2254.1273,-323.6465 2286.456,-285 2395.011,-155.2311 2505.6864,-309.1008 2051.456,-216 2045.6951,-214.8192 2039.6759,-213.4499 2033.7325,-212.0149"/>
<polygon fill="#191970" stroke="#191970" points="2034.4102,-208.5769 2023.861,-209.5596 2032.7205,-215.3699 2034.4102,-208.5769"/>
</g>
<!-- Node39 -->
<g id="node39" class="node">
<title>Node39</title>
<g id="a_node39"><a xlink:href="../../dd/d05/PHG4Particle_8h.html" target="_top" xlink:title="g4main/PHG4Particle.h">
<polygon fill="none" stroke="#000000" points="2060.456,-189.5 2060.456,-209.5 2192.456,-209.5 2192.456,-189.5 2060.456,-189.5"/>
<text text-anchor="middle" x="2126.456" y="-196.5" font-family="FreeSans" font-size="10.00" fill="#000000">g4main/PHG4Particle.h</text>
</a>
</g>
</g>
<!-- Node1&#45;&gt;Node39 -->
<g id="edge86" class="edge">
<title>Node1&#45;&gt;Node39</title>
<path fill="none" stroke="#191970" d="M2027.6582,-337.1621C2125.8463,-327.2149 2298.9297,-306.8093 2317.456,-285 2326.9514,-273.822 2326.347,-263.6646 2317.456,-252 2313.1016,-246.2872 2233.0542,-225.6641 2177.9837,-212.0296"/>
<polygon fill="#191970" stroke="#191970" points="2178.5627,-208.5675 2168.0154,-209.5702 2176.8859,-215.3638 2178.5627,-208.5675"/>
</g>
<!-- Node40 -->
<g id="node40" class="node">
<title>Node40</title>
<g id="a_node40"><a xlink:href="../../d0/d25/PHG4TruthInfoContainer_8h.html" target="_top" xlink:title="g4main/PHG4TruthInfoContainer.h">
<polygon fill="none" stroke="#ff0000" points="2090.456,-120.5 2090.456,-140.5 2278.456,-140.5 2278.456,-120.5 2090.456,-120.5"/>
<text text-anchor="middle" x="2184.456" y="-127.5" font-family="FreeSans" font-size="10.00" fill="#000000">g4main/PHG4TruthInfoContainer.h</text>
</a>
</g>
</g>
<!-- Node1&#45;&gt;Node40 -->
<g id="edge91" class="edge">
<title>Node1&#45;&gt;Node40</title>
<path fill="none" stroke="#191970" d="M1930.304,-321.4974C1919.3701,-311.6921 1908.2819,-299.1507 1902.456,-285 1884.8356,-242.2011 1889.1809,-214.1037 1923.456,-183 1930.6933,-176.4324 2042.3208,-155.6222 2117.2244,-142.2588"/>
<polygon fill="#191970" stroke="#191970" points="2117.8462,-145.7032 2127.0786,-140.5058 2116.6202,-138.8114 2117.8462,-145.7032"/>
</g>
<!-- Node41 -->
<g id="node41" class="node">
<title>Node41</title>
<g id="a_node41"><a xlink:href="../../d8/d30/PHCompositeNode_8h.html" target="_top" xlink:title="phool/PHCompositeNode.h">
<polygon fill="none" stroke="#ff0000" points="2840.956,-189.5 2840.956,-209.5 2991.956,-209.5 2991.956,-189.5 2840.956,-189.5"/>
<text text-anchor="middle" x="2916.456" y="-196.5" font-family="FreeSans" font-size="10.00" fill="#000000">phool/PHCompositeNode.h</text>
</a>
</g>
</g>
<!-- Node1&#45;&gt;Node41 -->
<g id="edge95" class="edge">
<title>Node1&#45;&gt;Node41</title>
<path fill="none" stroke="#191970" d="M2027.7101,-341.0167C2213.4533,-333.8456 2724.4964,-311.8925 2795.456,-285 2817.9829,-276.4627 2818.8985,-266.0659 2838.456,-252 2856.1805,-239.2524 2876.6756,-225.4944 2892.2081,-215.2614"/>
<polygon fill="#191970" stroke="#191970" points="2894.2788,-218.0889 2900.7214,-209.678 2890.4399,-212.2355 2894.2788,-218.0889"/>
</g>
<!-- Node42 -->
<g id="node42" class="node">
<title>Node42</title>
<g id="a_node42"><a xlink:href="../../dd/dd4/getClass_8h.html" target="_top" xlink:title="phool/getClass.h">
<polygon fill="none" stroke="#ff0000" points="2398.456,-189.5 2398.456,-209.5 2498.456,-209.5 2498.456,-189.5 2398.456,-189.5"/>
<text text-anchor="middle" x="2448.456" y="-196.5" font-family="FreeSans" font-size="10.00" fill="#000000">phool/getClass.h</text>
</a>
</g>
</g>
<!-- Node1&#45;&gt;Node42 -->
<g id="edge97" class="edge">
<title>Node1&#45;&gt;Node42</title>
<path fill="none" stroke="#191970" d="M2027.6682,-342.1988C2181.2417,-338.5308 2547.5053,-325.5769 2584.456,-285 2594.3311,-274.1559 2592.7519,-264.095 2584.456,-252 2578.756,-243.6896 2527.5086,-225.3992 2489.5937,-212.7632"/>
<polygon fill="#191970" stroke="#191970" points="2490.384,-209.3382 2479.7907,-209.5223 2488.1867,-215.9844 2490.384,-209.3382"/>
</g>
<!-- Node43 -->
<g id="node43" class="node">
<title>Node43</title>
<polygon fill="none" stroke="#bfbfbf" points="2847.456,-258.5 2847.456,-278.5 2897.456,-278.5 2897.456,-258.5 2847.456,-258.5"/>
<text text-anchor="middle" x="2872.456" y="-265.5" font-family="FreeSans" font-size="10.00" fill="#000000">TFile.h</text>
</g>
<!-- Node1&#45;&gt;Node43 -->
<g id="edge99" class="edge">
<title>Node1&#45;&gt;Node43</title>
<path fill="none" stroke="#191970" d="M2027.6729,-341.8818C2204.692,-337.16 2680.5987,-321.3675 2833.456,-285 2836.5047,-284.2747 2839.6193,-283.3334 2842.6934,-282.2683"/>
<polygon fill="#191970" stroke="#191970" points="2844.1916,-285.4412 2852.2447,-278.5566 2841.656,-278.9166 2844.1916,-285.4412"/>
</g>
<!-- Node44 -->
<g id="node44" class="node">
<title>Node44</title>
<polygon fill="none" stroke="#bfbfbf" points="2915.956,-258.5 2915.956,-278.5 2962.956,-278.5 2962.956,-258.5 2915.956,-258.5"/>
<text text-anchor="middle" x="2939.456" y="-265.5" font-family="FreeSans" font-size="10.00" fill="#000000">TH1.h</text>
</g>
<!-- Node1&#45;&gt;Node44 -->
<g id="edge100" class="edge">
<title>Node1&#45;&gt;Node44</title>
<path fill="none" stroke="#191970" d="M2027.6157,-342.8241C2214.9556,-340.3883 2740.401,-329.6554 2906.456,-285 2908.7524,-284.3824 2911.0768,-283.597 2913.3728,-282.7054"/>
<polygon fill="#191970" stroke="#191970" points="2914.8201,-285.8922 2922.5062,-278.6001 2911.9503,-279.5075 2914.8201,-285.8922"/>
</g>
<!-- Node45 -->
<g id="node45" class="node">
<title>Node45</title>
<polygon fill="none" stroke="#bfbfbf" points="2980.956,-258.5 2980.956,-278.5 3027.956,-278.5 3027.956,-258.5 2980.956,-258.5"/>
<text text-anchor="middle" x="3004.456" y="-265.5" font-family="FreeSans" font-size="10.00" fill="#000000">TH2.h</text>
</g>
<!-- Node1&#45;&gt;Node45 -->
<g id="edge101" class="edge">
<title>Node1&#45;&gt;Node45</title>
<path fill="none" stroke="#191970" d="M2027.7503,-341.2339C2239.2484,-333.8862 2881.9016,-309.7603 2972.456,-285 2974.6115,-284.4106 2976.789,-283.6641 2978.9403,-282.8158"/>
<polygon fill="#191970" stroke="#191970" points="2980.437,-285.9799 2988.0552,-278.6169 2977.5081,-279.6221 2980.437,-285.9799"/>
</g>
<!-- Node46 -->
<g id="node46" class="node">
<title>Node46</title>
<polygon fill="none" stroke="#bfbfbf" points="3046.456,-258.5 3046.456,-278.5 3104.456,-278.5 3104.456,-258.5 3046.456,-258.5"/>
<text text-anchor="middle" x="3075.456" y="-265.5" font-family="FreeSans" font-size="10.00" fill="#000000">TMath.h</text>
</g>
<!-- Node1&#45;&gt;Node46 -->
<g id="edge102" class="edge">
<title>Node1&#45;&gt;Node46</title>
<path fill="none" stroke="#191970" d="M2027.4852,-342.9572C2231.7338,-340.8157 2844.1678,-330.656 3037.456,-285 3040.4396,-284.2953 3043.4832,-283.3677 3046.484,-282.3112"/>
<polygon fill="#191970" stroke="#191970" points="3047.7964,-285.556 3055.798,-278.6115 3045.2122,-279.0504 3047.7964,-285.556"/>
</g>
<!-- Node47 -->
<g id="node47" class="node">
<title>Node47</title>
<polygon fill="none" stroke="#bfbfbf" points="3122.456,-258.5 3122.456,-278.5 3188.456,-278.5 3188.456,-258.5 3122.456,-258.5"/>
<text text-anchor="middle" x="3155.456" y="-265.5" font-family="FreeSans" font-size="10.00" fill="#000000">TNtuple.h</text>
</g>
<!-- Node1&#45;&gt;Node47 -->
<g id="edge103" class="edge">
<title>Node1&#45;&gt;Node47</title>
<path fill="none" stroke="#191970" d="M2027.5702,-342.9337C2241.2911,-340.6847 2904.1867,-330.1544 3113.456,-285 3116.9308,-284.2502 3120.4933,-283.2479 3124.0032,-282.1061"/>
<polygon fill="#191970" stroke="#191970" points="3125.4311,-285.3114 3133.6394,-278.6126 3123.0452,-278.7305 3125.4311,-285.3114"/>
</g>
<!-- Node48 -->
<g id="node48" class="node">
<title>Node48</title>
<polygon fill="none" stroke="#bfbfbf" points="3206.956,-258.5 3206.956,-278.5 3259.956,-278.5 3259.956,-258.5 3206.956,-258.5"/>
<text text-anchor="middle" x="3233.456" y="-265.5" font-family="FreeSans" font-size="10.00" fill="#000000">TTree.h</text>
</g>
<!-- Node1&#45;&gt;Node48 -->
<g id="edge104" class="edge">
<title>Node1&#45;&gt;Node48</title>
<path fill="none" stroke="#191970" d="M2027.8493,-341.8134C2269.4422,-335.5611 3083.7956,-312.6351 3197.456,-285 3200.1199,-284.3523 3202.8273,-283.5061 3205.5001,-282.5389"/>
<polygon fill="#191970" stroke="#191970" points="3206.9928,-285.7089 3214.8887,-278.6446 3204.3107,-279.2431 3206.9928,-285.7089"/>
</g>
<!-- Node49 -->
<g id="node49" class="node">
<title>Node49</title>
<polygon fill="none" stroke="#bfbfbf" points="3277.956,-258.5 3277.956,-278.5 3330.956,-278.5 3330.956,-258.5 3277.956,-258.5"/>
<text text-anchor="middle" x="3304.456" y="-265.5" font-family="FreeSans" font-size="10.00" fill="#000000">cassert</text>
</g>
<!-- Node1&#45;&gt;Node49 -->
<g id="edge105" class="edge">
<title>Node1&#45;&gt;Node49</title>
<path fill="none" stroke="#191970" d="M2027.8645,-342.0429C2278.5369,-336.4112 3148.6937,-314.885 3269.456,-285 3271.9666,-284.3787 3274.5137,-283.5711 3277.0295,-282.6473"/>
<polygon fill="#191970" stroke="#191970" points="3278.5958,-285.7848 3286.4341,-278.6565 3275.8613,-279.3409 3278.5958,-285.7848"/>
</g>
<!-- Node50 -->
<g id="node50" class="node">
<title>Node50</title>
<polygon fill="none" stroke="#bfbfbf" points="3349.456,-258.5 3349.456,-278.5 3405.456,-278.5 3405.456,-258.5 3349.456,-258.5"/>
<text text-anchor="middle" x="3377.456" y="-265.5" font-family="FreeSans" font-size="10.00" fill="#000000">sstream</text>
</g>
<!-- Node1&#45;&gt;Node50 -->
<g id="edge106" class="edge">
<title>Node1&#45;&gt;Node50</title>
<path fill="none" stroke="#191970" d="M2027.4747,-342.1363C2286.2348,-336.6691 3212.1407,-315.169 3340.456,-285 3343.2803,-284.336 3346.155,-283.4575 3348.9907,-282.451"/>
<polygon fill="#191970" stroke="#191970" points="3350.3954,-285.6584 3358.3508,-278.6611 3347.7682,-279.17 3350.3954,-285.6584"/>
</g>
<!-- Node3 -->
<g id="node3" class="node">
<title>Node3</title>
<g id="a_node3"><a xlink:href="../../d5/dc2/SubsysReco_8h.html" target="_top" xlink:title="fun4all/SubsysReco.h">
<polygon fill="none" stroke="#ff0000" points="2516.456,-189.5 2516.456,-209.5 2640.456,-209.5 2640.456,-189.5 2516.456,-189.5"/>
<text text-anchor="middle" x="2578.456" y="-196.5" font-family="FreeSans" font-size="10.00" fill="#000000">fun4all/SubsysReco.h</text>
</a>
</g>
</g>
<!-- Node2&#45;&gt;Node3 -->
<g id="edge2" class="edge">
<title>Node2&#45;&gt;Node3</title>
<path fill="none" stroke="#191970" d="M2659.4384,-258.3188C2644.0029,-247.1078 2618.9698,-228.9258 2600.8174,-215.7414"/>
<polygon fill="#191970" stroke="#191970" points="2602.679,-212.7678 2592.5311,-209.723 2598.5653,-218.4315 2602.679,-212.7678"/>
</g>
<!-- Node3&#45;&gt;Node4 -->
<g id="edge3" class="edge">
<title>Node3&#45;&gt;Node4</title>
<path fill="none" stroke="#191970" d="M2571.2259,-189.3188C2563.6987,-178.7193 2551.7464,-161.8885 2542.5522,-148.9415"/>
<polygon fill="#191970" stroke="#191970" points="2545.3595,-146.8497 2536.7158,-140.723 2539.6522,-150.9028 2545.3595,-146.8497"/>
</g>
<!-- Node14 -->
<g id="node14" class="node">
<title>Node14</title>
<g id="a_node14"><a xlink:href="../../df/d32/PHObject_8h.html" target="_top" xlink:title="phool/PHObject.h">
<polygon fill="none" stroke="#ff0000" points="1180.456,-57.5 1180.456,-77.5 1284.456,-77.5 1284.456,-57.5 1180.456,-57.5"/>
<text text-anchor="middle" x="1232.456" y="-64.5" font-family="FreeSans" font-size="10.00" fill="#000000">phool/PHObject.h</text>
</a>
</g>
</g>
<!-- Node13&#45;&gt;Node14 -->
<g id="edge13" class="edge">
<title>Node13&#45;&gt;Node14</title>
<path fill="none" stroke="#191970" d="M1010.0151,-121.6073C1054.7232,-110.7323 1130.6677,-92.2593 1181.1945,-79.969"/>
<polygon fill="#191970" stroke="#191970" points="1182.0548,-83.3619 1190.9442,-77.5975 1180.4003,-76.5602 1182.0548,-83.3619"/>
</g>
<!-- Node15 -->
<g id="node15" class="node">
<title>Node15</title>
<polygon fill="none" stroke="#bfbfbf" points="1202.456,-.5 1202.456,-20.5 1262.456,-20.5 1262.456,-.5 1202.456,-.5"/>
<text text-anchor="middle" x="1232.456" y="-7.5" font-family="FreeSans" font-size="10.00" fill="#000000">iostream</text>
</g>
<!-- Node13&#45;&gt;Node15 -->
<g id="edge17" class="edge">
<title>Node13&#45;&gt;Node15</title>
<path fill="none" stroke="#191970" d="M977.5469,-120.3755C984.5971,-104.2786 1000.6136,-73.0353 1024.456,-57 1051.5142,-38.802 1139.9065,-23.6208 1192.3532,-15.9282"/>
<polygon fill="#191970" stroke="#191970" points="1192.9354,-19.3806 1202.3344,-14.4909 1191.9376,-12.4521 1192.9354,-19.3806"/>
</g>
<!-- Node16 -->
<g id="node16" class="node">
<title>Node16</title>
<polygon fill="none" stroke="#bfbfbf" points="864.456,-57.5 864.456,-77.5 912.456,-77.5 912.456,-57.5 864.456,-57.5"/>
<text text-anchor="middle" x="888.456" y="-64.5" font-family="FreeSans" font-size="10.00" fill="#000000">cmath</text>
</g>
<!-- Node13&#45;&gt;Node16 -->
<g id="edge15" class="edge">
<title>Node13&#45;&gt;Node16</title>
<path fill="none" stroke="#191970" d="M959.7993,-120.378C946.4158,-110.4584 925.807,-95.1837 910.1743,-83.597"/>
<polygon fill="#191970" stroke="#191970" points="912.1969,-80.7396 902.0788,-77.5969 908.0287,-86.3634 912.1969,-80.7396"/>
</g>
<!-- Node17 -->
<g id="node17" class="node">
<title>Node17</title>
<polygon fill="none" stroke="#bfbfbf" points="685.456,-57.5 685.456,-77.5 739.456,-77.5 739.456,-57.5 685.456,-57.5"/>
<text text-anchor="middle" x="712.456" y="-64.5" font-family="FreeSans" font-size="10.00" fill="#000000">cstddef</text>
</g>
<!-- Node13&#45;&gt;Node17 -->
<g id="edge16" class="edge">
<title>Node13&#45;&gt;Node17</title>
<path fill="none" stroke="#191970" d="M936.8903,-121.6738C887.3805,-109.7231 799.498,-88.5101 749.6606,-76.4804"/>
<polygon fill="#191970" stroke="#191970" points="750.1729,-73.0036 739.6308,-74.0594 748.5304,-79.8082 750.1729,-73.0036"/>
</g>
<!-- Node18 -->
<g id="node18" class="node">
<title>Node18</title>
<polygon fill="none" stroke="#bfbfbf" points="1613.956,-57.5 1613.956,-77.5 1652.956,-77.5 1652.956,-57.5 1613.956,-57.5"/>
<text text-anchor="middle" x="1633.456" y="-64.5" font-family="FreeSans" font-size="10.00" fill="#000000">map</text>
</g>
<!-- Node13&#45;&gt;Node18 -->
<g id="edge18" class="edge">
<title>Node13&#45;&gt;Node18</title>
<path fill="none" stroke="#191970" d="M1010.3547,-126.9779C1128.591,-115.6917 1496.5662,-80.5668 1603.8305,-70.3279"/>
<polygon fill="#191970" stroke="#191970" points="1604.3166,-73.7975 1613.9387,-69.363 1603.6514,-66.8292 1604.3166,-73.7975"/>
</g>
<!-- Node14&#45;&gt;Node15 -->
<g id="edge14" class="edge">
<title>Node14&#45;&gt;Node15</title>
<path fill="none" stroke="#191970" d="M1232.456,-57.3095C1232.456,-49.9335 1232.456,-39.72 1232.456,-30.715"/>
<polygon fill="#191970" stroke="#191970" points="1235.9561,-30.6022 1232.456,-20.6022 1228.9561,-30.6023 1235.9561,-30.6022"/>
</g>
<!-- Node19&#45;&gt;Node13 -->
<g id="edge20" class="edge">
<title>Node19&#45;&gt;Node13</title>
<path fill="none" stroke="#191970" d="M1061.258,-189.3188C1044.3705,-178.0058 1016.8871,-159.5946 997.1655,-146.3831"/>
<polygon fill="#191970" stroke="#191970" points="998.9724,-143.3808 988.7164,-140.723 995.0765,-149.1964 998.9724,-143.3808"/>
</g>
<!-- Node19&#45;&gt;Node14 -->
<g id="edge21" class="edge">
<title>Node19&#45;&gt;Node14</title>
<path fill="none" stroke="#191970" d="M1088.11,-189.4413C1106.7169,-173.4028 1144.3156,-141.0816 1176.456,-114 1188.1991,-104.1053 1201.4114,-93.127 1212.0524,-84.3233"/>
<polygon fill="#191970" stroke="#191970" points="1214.4782,-86.8591 1219.9577,-77.7913 1210.0194,-81.4628 1214.4782,-86.8591"/>
</g>
<!-- Node19&#45;&gt;Node15 -->
<g id="edge24" class="edge">
<title>Node19&#45;&gt;Node15</title>
<path fill="none" stroke="#191970" d="M1029.1731,-198.2678C906.9528,-194.5973 587.8713,-181.7467 556.456,-147 546.6198,-136.1207 549.2298,-126.7629 556.456,-114 580.7161,-71.1521 604.5661,-72.0275 651.456,-57 752.4941,-24.6189 1077.8592,-14.0859 1192.2369,-11.3352"/>
<polygon fill="#191970" stroke="#191970" points="1192.4032,-14.8324 1202.3188,-11.0999 1192.2399,-7.8343 1192.4032,-14.8324"/>
</g>
<!-- Node19&#45;&gt;Node16 -->
<g id="edge22" class="edge">
<title>Node19&#45;&gt;Node16</title>
<path fill="none" stroke="#191970" d="M1042.1098,-189.4431C1033.4585,-187.122 1024.1568,-184.8067 1015.456,-183 961.361,-171.7672 805.5839,-188.7997 769.456,-147 759.8653,-135.9036 761.185,-126.112 769.456,-114 779.4169,-99.4134 823.0415,-84.9789 854.5886,-76.1528"/>
<polygon fill="#191970" stroke="#191970" points="855.6219,-79.4989 864.3488,-73.4912 853.7802,-72.7455 855.6219,-79.4989"/>
</g>
<!-- Node19&#45;&gt;Node17 -->
<g id="edge23" class="edge">
<title>Node19&#45;&gt;Node17</title>
<path fill="none" stroke="#191970" d="M1029.2975,-198.1617C909.0159,-194.2644 598.1024,-180.9699 567.456,-147 532.2265,-107.9499 621.6693,-84.0777 675.394,-73.6577"/>
<polygon fill="#191970" stroke="#191970" points="676.1054,-77.0854 685.2935,-71.8102 674.8211,-70.2043 676.1054,-77.0854"/>
</g>
<!-- Node19&#45;&gt;Node18 -->
<g id="edge25" class="edge">
<title>Node19&#45;&gt;Node18</title>
<path fill="none" stroke="#191970" d="M1123.6123,-196.8104C1193.5476,-191.8981 1328.3497,-178.8703 1438.456,-147 1473.0471,-136.9876 1479.1929,-127.797 1512.456,-114 1543.5154,-101.117 1579.5374,-87.4323 1604.1489,-78.2702"/>
<polygon fill="#191970" stroke="#191970" points="1605.4699,-81.5133 1613.629,-74.7547 1603.036,-74.95 1605.4699,-81.5133"/>
</g>
<!-- Node20 -->
<g id="node20" class="node">
<title>Node20</title>
<polygon fill="none" stroke="#bfbfbf" points="450.456,-57.5 450.456,-77.5 482.456,-77.5 482.456,-57.5 450.456,-57.5"/>
<text text-anchor="middle" x="466.456" y="-64.5" font-family="FreeSans" font-size="10.00" fill="#000000">set</text>
</g>
<!-- Node19&#45;&gt;Node20 -->
<g id="edge26" class="edge">
<title>Node19&#45;&gt;Node20</title>
<path fill="none" stroke="#191970" d="M1029.2372,-198.0743C898.478,-193.7333 538.5078,-178.9756 496.456,-147 477.9899,-132.9586 470.8903,-106.1699 468.1608,-87.5927"/>
<polygon fill="#191970" stroke="#191970" points="471.6207,-87.0448 466.9845,-77.5182 464.6679,-87.8567 471.6207,-87.0448"/>
</g>
<!-- Node21&#45;&gt;Node14 -->
<g id="edge28" class="edge">
<title>Node21&#45;&gt;Node14</title>
<path fill="none" stroke="#191970" d="M1311.3533,-120.378C1296.4157,-110.3666 1273.339,-94.9003 1255.995,-83.2762"/>
<polygon fill="#191970" stroke="#191970" points="1257.7768,-80.2569 1247.5213,-77.5969 1253.8796,-86.0718 1257.7768,-80.2569"/>
</g>
<!-- Node21&#45;&gt;Node15 -->
<g id="edge30" class="edge">
<title>Node21&#45;&gt;Node15</title>
<path fill="none" stroke="#191970" d="M1323.5954,-120.1274C1319.0626,-105.0479 1309.1055,-76.7232 1293.456,-57 1283.8922,-44.9467 1270.5347,-34.301 1258.7565,-26.2477"/>
<polygon fill="#191970" stroke="#191970" points="1260.4308,-23.1606 1250.1465,-20.6143 1256.5983,-29.0182 1260.4308,-23.1606"/>
</g>
<!-- Node21&#45;&gt;Node16 -->
<g id="edge29" class="edge">
<title>Node21&#45;&gt;Node16</title>
<path fill="none" stroke="#191970" d="M1256.5693,-120.4478C1161.4615,-106.7679 994.8997,-82.8104 923.0555,-72.4766"/>
<polygon fill="#191970" stroke="#191970" points="923.1589,-68.9556 912.7624,-70.9961 922.1623,-75.8843 923.1589,-68.9556"/>
</g>
<!-- Node21&#45;&gt;Node18 -->
<g id="edge31" class="edge">
<title>Node21&#45;&gt;Node18</title>
<path fill="none" stroke="#191970" d="M1375.4405,-120.4478C1439.7408,-107.2526 1550.6378,-84.4953 1603.607,-73.6254"/>
<polygon fill="#191970" stroke="#191970" points="1604.6035,-76.9939 1613.6957,-71.555 1603.1963,-70.1368 1604.6035,-76.9939"/>
</g>
<!-- Node22&#45;&gt;Node14 -->
<g id="edge33" class="edge">
<title>Node22&#45;&gt;Node14</title>
<path fill="none" stroke="#191970" d="M1718.263,-121.5739C1604.1935,-108.8771 1397.5115,-85.8719 1294.4143,-74.3964"/>
<polygon fill="#191970" stroke="#191970" points="1294.7927,-70.917 1284.4668,-73.2892 1294.0183,-77.874 1294.7927,-70.917"/>
</g>
<!-- Node22&#45;&gt;Node15 -->
<g id="edge34" class="edge">
<title>Node22&#45;&gt;Node15</title>
<path fill="none" stroke="#191970" d="M1784.0855,-120.3489C1760.005,-103.9188 1709.415,-71.8456 1661.456,-57 1589.3596,-34.6827 1365.0069,-18.6907 1272.7247,-12.8918"/>
<polygon fill="#191970" stroke="#191970" points="1272.8576,-9.3934 1262.6599,-12.267 1272.4238,-16.38 1272.8576,-9.3934"/>
</g>
<!-- Node22&#45;&gt;Node18 -->
<g id="edge35" class="edge">
<title>Node22&#45;&gt;Node18</title>
<path fill="none" stroke="#191970" d="M1771.9459,-120.378C1742.0248,-108.9535 1693.4996,-90.4257 1662.5534,-78.6099"/>
<polygon fill="#191970" stroke="#191970" points="1663.7601,-75.3242 1653.1694,-75.0269 1661.2631,-81.8638 1663.7601,-75.3242"/>
</g>
<!-- Node23&#45;&gt;Node14 -->
<g id="edge42" class="edge">
<title>Node23&#45;&gt;Node14</title>
<path fill="none" stroke="#191970" d="M406.7035,-198.2637C525.0216,-194.9133 802.5494,-183.3153 888.456,-147 909.37,-138.159 906.7868,-123.3988 927.456,-114 969.6284,-94.8232 1094.0684,-80.331 1170.3413,-72.9485"/>
<polygon fill="#191970" stroke="#191970" points="1170.6893,-76.4312 1180.3117,-71.9973 1170.0244,-69.4629 1170.6893,-76.4312"/>
</g>
<!-- Node23&#45;&gt;Node15 -->
<g id="edge45" class="edge">
<title>Node23&#45;&gt;Node15</title>
<path fill="none" stroke="#191970" d="M334.2505,-183.4701C303.8947,-154.8919 249.6397,-94.6181 285.456,-57 317.1748,-23.6856 1015.6839,-13.0951 1192.2135,-10.946"/>
<polygon fill="#191970" stroke="#191970" points="1192.4112,-14.444 1202.3686,-10.8247 1192.3275,-7.4445 1192.4112,-14.444"/>
</g>
<!-- Node23&#45;&gt;Node16 -->
<g id="edge44" class="edge">
<title>Node23&#45;&gt;Node16</title>
<path fill="none" stroke="#191970" d="M385.8762,-183.3479C427.4593,-163.9272 501.0956,-131.7372 567.456,-114 669.6271,-86.6912 794.6543,-74.4245 854.011,-69.8273"/>
<polygon fill="#191970" stroke="#191970" points="854.5989,-73.2932 864.3097,-69.0562 854.0762,-66.3127 854.5989,-73.2932"/>
</g>
<!-- Node23&#45;&gt;Node18 -->
<g id="edge46" class="edge">
<title>Node23&#45;&gt;Node18</title>
<path fill="none" stroke="#191970" d="M406.6357,-197.856C615.4019,-191.3848 1358.3653,-167.0417 1404.456,-147 1423.7677,-138.6027 1419.9986,-124.1381 1438.456,-114 1491.9665,-84.6084 1563.7021,-73.6632 1603.5616,-69.6849"/>
<polygon fill="#191970" stroke="#191970" points="1604.0437,-73.1555 1613.6826,-68.7575 1603.4049,-66.1847 1604.0437,-73.1555"/>
</g>
<!-- Node23&#45;&gt;Node20 -->
<g id="edge47" class="edge">
<title>Node23&#45;&gt;Node20</title>
<path fill="none" stroke="#191970" d="M344.9434,-183.4496C337.5315,-165.0043 329.2008,-134.6291 343.456,-114 354.7571,-97.646 407.6048,-82.0232 440.2423,-73.7051"/>
<polygon fill="#191970" stroke="#191970" points="441.1888,-77.0765 450.0504,-71.2695 439.5016,-70.2828 441.1888,-77.0765"/>
</g>
<!-- Node24 -->
<g id="node24" class="node">
<title>Node24</title>
<g id="a_node24"><a xlink:href="../../de/de6/SvtxTrackState_8h.html" target="_top" xlink:title="SvtxTrackState.h">
<polygon fill="none" stroke="#000000" points="778.956,-120.5 778.956,-140.5 879.956,-140.5 879.956,-120.5 778.956,-120.5"/>
<text text-anchor="middle" x="829.456" y="-127.5" font-family="FreeSans" font-size="10.00" fill="#000000">SvtxTrackState.h</text>
</a>
</g>
</g>
<!-- Node23&#45;&gt;Node24 -->
<g id="edge37" class="edge">
<title>Node23&#45;&gt;Node24</title>
<path fill="none" stroke="#191970" d="M406.7096,-191.652C496.3814,-178.6806 674.9011,-152.857 768.684,-139.2909"/>
<polygon fill="#191970" stroke="#191970" points="769.4688,-142.7139 778.8647,-137.8182 768.4666,-135.786 769.4688,-142.7139"/>
</g>
<!-- Node25 -->
<g id="node25" class="node">
<title>Node25</title>
<g id="a_node25"><a xlink:href="../../d8/d00/TrkrDefs_8h.html" target="_top" xlink:title="Namespace with Trkr key types and utility functions.">
<polygon fill="none" stroke="#ff0000" points="294.456,-57.5 294.456,-77.5 414.456,-77.5 414.456,-57.5 294.456,-57.5"/>
<text text-anchor="middle" x="354.456" y="-64.5" font-family="FreeSans" font-size="10.00" fill="#000000">trackbase/TrkrDefs.h</text>
</a>
</g>
</g>
<!-- Node23&#45;&gt;Node25 -->
<g id="edge40" class="edge">
<title>Node23&#45;&gt;Node25</title>
<path fill="none" stroke="#191970" d="M334.73,-183.3712C325.5747,-173.813 315.3242,-160.8781 310.456,-147 305.6013,-133.1601 305.031,-127.6264 310.456,-114 315.0514,-102.4576 324.0226,-92.1294 332.6723,-84.1557"/>
<polygon fill="#191970" stroke="#191970" points="335.0842,-86.6979 340.3906,-77.5276 330.5238,-81.3873 335.0842,-86.6979"/>
</g>
<!-- Node26 -->
<g id="node26" class="node">
<title>Node26</title>
<polygon fill="none" stroke="#bfbfbf" points="352.956,-120.5 352.956,-140.5 405.956,-140.5 405.956,-120.5 352.956,-120.5"/>
<text text-anchor="middle" x="379.456" y="-127.5" font-family="FreeSans" font-size="10.00" fill="#000000">limits.h</text>
</g>
<!-- Node23&#45;&gt;Node26 -->
<g id="edge43" class="edge">
<title>Node23&#45;&gt;Node26</title>
<path fill="none" stroke="#191970" d="M358.7182,-183.4966C362.5972,-173.5836 367.6081,-160.7781 371.7325,-150.238"/>
<polygon fill="#191970" stroke="#191970" points="375.1019,-151.232 375.4866,-140.6441 368.5832,-148.6811 375.1019,-151.232"/>
</g>
<!-- Node24&#45;&gt;Node14 -->
<g id="edge38" class="edge">
<title>Node24&#45;&gt;Node14</title>
<path fill="none" stroke="#191970" d="M866.0758,-120.4416C875.2939,-118.1205 885.2,-115.8056 894.456,-114 989.9845,-95.3648 1102.1307,-81.4948 1170.2066,-73.9502"/>
<polygon fill="#191970" stroke="#191970" points="1170.7756,-77.4088 1180.3339,-72.8385 1170.0117,-70.4506 1170.7756,-77.4088"/>
</g>
<!-- Node24&#45;&gt;Node16 -->
<g id="edge39" class="edge">
<title>Node24&#45;&gt;Node16</title>
<path fill="none" stroke="#191970" d="M838.9354,-120.378C847.7426,-110.9736 861.0576,-96.7559 871.6635,-85.431"/>
<polygon fill="#191970" stroke="#191970" points="874.5232,-87.4977 878.8042,-77.8062 869.4139,-82.7128 874.5232,-87.4977"/>
</g>
<!-- Node25&#45;&gt;Node15 -->
<g id="edge41" class="edge">
<title>Node25&#45;&gt;Node15</title>
<path fill="none" stroke="#191970" d="M414.78,-59.7336C423.7148,-58.7244 432.8188,-57.7743 441.456,-57 728.4467,-31.2705 1075.3467,-16.5151 1191.9901,-12.0006"/>
<polygon fill="#191970" stroke="#191970" points="1192.3739,-15.4885 1202.2323,-11.6077 1192.1055,-8.4937 1192.3739,-15.4885"/>
</g>
<!-- Node27&#45;&gt;Node14 -->
<g id="edge50" class="edge">
<title>Node27&#45;&gt;Node14</title>
<path fill="none" stroke="#191970" d="M124.5957,-253.5123C127.5802,-252.9391 130.5477,-252.4279 133.456,-252 243.345,-235.8316 1035.3608,-269.9399 1132.456,-216 1183.4519,-187.67 1213.4236,-121.0595 1225.788,-87.5273"/>
<polygon fill="#191970" stroke="#191970" points="1229.1605,-88.4878 1229.1881,-77.893 1222.5595,-86.1582 1229.1605,-88.4878"/>
</g>
<!-- Node27&#45;&gt;Node15 -->
<g id="edge51" class="edge">
<title>Node27&#45;&gt;Node15</title>
<path fill="none" stroke="#191970" d="M79.6067,-252.4212C104.2461,-210.9285 176.5876,-100.4626 271.456,-57 356.0072,-18.2641 1020.7735,-11.7329 1192.2245,-10.6894"/>
<polygon fill="#191970" stroke="#191970" points="1192.3554,-14.1888 1202.335,-10.6308 1192.3148,-7.1889 1192.3554,-14.1888"/>
</g>
<!-- Node27&#45;&gt;Node18 -->
<g id="edge52" class="edge">
<title>Node27&#45;&gt;Node18</title>
<path fill="none" stroke="#191970" d="M124.5908,-253.4784C127.5766,-252.914 130.5456,-252.4139 133.456,-252 283.4439,-230.6678 1358.5006,-278.6078 1496.456,-216 1557.2159,-188.4256 1603.322,-119.838 1623.0039,-86.4123"/>
<polygon fill="#191970" stroke="#191970" points="1626.1104,-88.0308 1628.0487,-77.6148 1620.0379,-84.5486 1626.1104,-88.0308"/>
</g>
<!-- Node27&#45;&gt;Node23 -->
<g id="edge49" class="edge">
<title>Node27&#45;&gt;Node23</title>
<path fill="none" stroke="#191970" d="M124.7337,-254.2076C127.6826,-253.4551 130.6047,-252.7151 133.456,-252 185.527,-238.9413 244.741,-224.788 288.4566,-214.4709"/>
<polygon fill="#191970" stroke="#191970" points="289.4491,-217.833 298.3794,-212.1321 287.8432,-211.0196 289.4491,-217.833"/>
</g>
<!-- Node28&#45;&gt;Node14 -->
<g id="edge54" class="edge">
<title>Node28&#45;&gt;Node14</title>
<path fill="none" stroke="#191970" d="M684.5591,-123.8478C710.2673,-120.7457 741.4341,-117.0701 769.456,-114 912.7497,-98.3008 1081.2258,-81.8958 1170.1637,-73.3959"/>
<polygon fill="#191970" stroke="#191970" points="1170.7252,-76.8583 1180.3474,-72.424 1170.0601,-69.89 1170.7252,-76.8583"/>
</g>
<!-- Node28&#45;&gt;Node15 -->
<g id="edge56" class="edge">
<title>Node28&#45;&gt;Node15</title>
<path fill="none" stroke="#191970" d="M635.6036,-114.4578C642.1125,-97.0511 655.1201,-70.0082 676.456,-57 720.2099,-30.3238 1071.5386,-15.9764 1192.0539,-11.8031"/>
<polygon fill="#191970" stroke="#191970" points="1192.4454,-15.2919 1202.3202,-11.453 1192.2067,-8.296 1192.4454,-15.2919"/>
</g>
<!-- Node28&#45;&gt;Node16 -->
<g id="edge55" class="edge">
<title>Node28&#45;&gt;Node16</title>
<path fill="none" stroke="#191970" d="M684.5413,-117.2931C735.8393,-104.7669 811.3244,-86.3345 854.6107,-75.7646"/>
<polygon fill="#191970" stroke="#191970" points="855.4871,-79.1535 864.3714,-73.3811 853.8266,-72.3533 855.4871,-79.1535"/>
</g>
<!-- Node28&#45;&gt;Node20 -->
<g id="edge57" class="edge">
<title>Node28&#45;&gt;Node20</title>
<path fill="none" stroke="#191970" d="M588.6476,-114.4394C558.1518,-102.7246 517.8031,-87.2248 491.9819,-77.3057"/>
<polygon fill="#191970" stroke="#191970" points="493.1142,-73.9913 482.5242,-73.6725 490.604,-80.5258 493.1142,-73.9913"/>
</g>
<!-- Node29&#45;&gt;Node14 -->
<g id="edge60" class="edge">
<title>Node29&#45;&gt;Node14</title>
<path fill="none" stroke="#191970" d="M1378.9864,-185.618C1325.7615,-171.8265 1252.0571,-152.028 1247.456,-147 1232.9195,-131.1147 1230.414,-105.7451 1230.7431,-87.9471"/>
<polygon fill="#191970" stroke="#191970" points="1234.2487,-87.9204 1231.2513,-77.7585 1227.2574,-87.5717 1234.2487,-87.9204"/>
</g>
<!-- Node29&#45;&gt;Node15 -->
<g id="edge61" class="edge">
<title>Node29&#45;&gt;Node15</title>
<path fill="none" stroke="#191970" d="M1379.393,-186.0118C1320.0633,-171.1472 1232.7153,-149.0518 1229.456,-147 1189.1846,-121.6484 1150.3412,-99.6457 1171.456,-57 1177.9537,-43.8766 1190.1251,-33.4475 1201.8968,-25.8194"/>
<polygon fill="#191970" stroke="#191970" points="1203.9401,-28.6754 1210.7202,-20.534 1200.343,-22.6704 1203.9401,-28.6754"/>
</g>
<!-- Node29&#45;&gt;Node18 -->
<g id="edge62" class="edge">
<title>Node29&#45;&gt;Node18</title>
<path fill="none" stroke="#191970" d="M1457.9799,-183.3142C1496.7031,-157.7569 1571.5255,-108.3741 1609.7398,-83.1527"/>
<polygon fill="#191970" stroke="#191970" points="1611.7692,-86.007 1618.1873,-77.5774 1607.9132,-80.1647 1611.7692,-86.007"/>
</g>
<!-- Node29&#45;&gt;Node28 -->
<g id="edge59" class="edge">
<title>Node29&#45;&gt;Node28</title>
<path fill="none" stroke="#191970" d="M1379.207,-196.1499C1220.6693,-186.2859 765.0936,-157.3903 698.456,-147 697.1732,-146.8 695.879,-146.5879 694.5765,-146.3651"/>
<polygon fill="#191970" stroke="#191970" points="694.9574,-142.8755 684.4832,-144.4701 693.6656,-149.7553 694.9574,-142.8755"/>
</g>
<!-- Node30&#45;&gt;Node4 -->
<g id="edge64" class="edge">
<title>Node30&#45;&gt;Node4</title>
<path fill="none" stroke="#191970" d="M2693.5376,-189.4668C2658.5528,-176.8941 2598.7149,-155.3899 2561.7804,-142.1166"/>
<polygon fill="#191970" stroke="#191970" points="2562.6045,-138.6936 2552.01,-138.6053 2560.237,-145.2812 2562.6045,-138.6936"/>
</g>
<!-- Node34&#45;&gt;Node14 -->
<g id="edge69" class="edge">
<title>Node34&#45;&gt;Node14</title>
<path fill="none" stroke="#191970" d="M1931.2264,-120.4838C1917.0432,-118.0786 1901.7024,-115.7132 1887.456,-114 1670.7375,-87.9382 1411.7906,-74.849 1295.0171,-69.9063"/>
<polygon fill="#191970" stroke="#191970" points="1294.9751,-66.4016 1284.8376,-69.4809 1294.6827,-73.3955 1294.9751,-66.4016"/>
</g>
<!-- Node34&#45;&gt;Node15 -->
<g id="edge70" class="edge">
<title>Node34&#45;&gt;Node15</title>
<path fill="none" stroke="#191970" d="M1952.3274,-120.4908C1899.9192,-104.5558 1792.5302,-73.535 1699.456,-57 1543.2205,-29.2441 1354.4195,-16.8071 1273.0258,-12.445"/>
<polygon fill="#191970" stroke="#191970" points="1272.8941,-8.9334 1262.7247,-11.9056 1272.528,-15.9238 1272.8941,-8.9334"/>
</g>
<!-- Node35&#45;&gt;Node14 -->
<g id="edge73" class="edge">
<title>Node35&#45;&gt;Node14</title>
<path fill="none" stroke="#191970" d="M1649.1102,-189.3819C1598.0317,-172.9864 1493.5866,-139.8444 1404.456,-114 1362.9494,-101.9647 1315.5194,-89.2165 1280.9933,-80.118"/>
<polygon fill="#191970" stroke="#191970" points="1281.7254,-76.6916 1271.1641,-77.5345 1279.9459,-83.4617 1281.7254,-76.6916"/>
</g>
<!-- Node35&#45;&gt;Node15 -->
<g id="edge75" class="edge">
<title>Node35&#45;&gt;Node15</title>
<path fill="none" stroke="#191970" d="M1778.9967,-192.6765C1948.7168,-180.6922 2278.9655,-156.2566 2287.456,-147 2297.37,-136.1915 2297.1394,-125.0156 2287.456,-114 2219.1798,-36.331 1457.5557,-15.2629 1272.699,-11.2778"/>
<polygon fill="#191970" stroke="#191970" points="1272.6663,-7.7764 1262.5947,-11.0647 1272.5187,-14.7748 1272.6663,-7.7764"/>
</g>
<!-- Node35&#45;&gt;Node17 -->
<g id="edge74" class="edge">
<title>Node35&#45;&gt;Node17</title>
<path fill="none" stroke="#191970" d="M1581.68,-189.9106C1554.1123,-187.4334 1524.1319,-184.9254 1496.456,-183 1415.7743,-177.3871 840.4661,-185.712 769.456,-147 745.4408,-133.9078 729.0824,-105.8233 720.2517,-86.7922"/>
<polygon fill="#191970" stroke="#191970" points="723.4256,-85.3144 716.2191,-77.548 717.0095,-88.1133 723.4256,-85.3144"/>
</g>
<!-- Node35&#45;&gt;Node18 -->
<g id="edge76" class="edge">
<title>Node35&#45;&gt;Node18</title>
<path fill="none" stroke="#191970" d="M1680.2625,-189.3578C1679.6319,-172.9284 1677.0289,-139.7398 1666.456,-114 1662.3127,-103.9131 1655.625,-93.8972 1649.3497,-85.7588"/>
<polygon fill="#191970" stroke="#191970" points="1651.8647,-83.3039 1642.8421,-77.7502 1646.4321,-87.7183 1651.8647,-83.3039"/>
</g>
<!-- Node35&#45;&gt;Node34 -->
<g id="edge72" class="edge">
<title>Node35&#45;&gt;Node34</title>
<path fill="none" stroke="#191970" d="M1724.6602,-189.4668C1779.1445,-177.1003 1871.6996,-156.0927 1930.3701,-142.7761"/>
<polygon fill="#191970" stroke="#191970" points="1931.2212,-146.172 1940.1985,-140.5453 1929.6718,-139.3456 1931.2212,-146.172"/>
</g>
<!-- Node36&#45;&gt;Node4 -->
<g id="edge79" class="edge">
<title>Node36&#45;&gt;Node4</title>
<path fill="none" stroke="#191970" d="M2329.4816,-189.4668C2374.4034,-176.2206 2452.9471,-153.0603 2497.0456,-140.0569"/>
<polygon fill="#191970" stroke="#191970" points="2498.0898,-143.3981 2506.6915,-137.2126 2496.1099,-136.6839 2498.0898,-143.3981"/>
</g>
<!-- Node36&#45;&gt;Node18 -->
<g id="edge78" class="edge">
<title>Node36&#45;&gt;Node18</title>
<path fill="none" stroke="#191970" d="M2298.1733,-189.3306C2302.3052,-171.309 2307.708,-133.805 2287.456,-114 2264.843,-91.886 1788.3933,-73.1158 1663.3117,-68.5561"/>
<polygon fill="#191970" stroke="#191970" points="1663.0886,-65.0459 1652.9687,-68.1824 1662.8358,-72.0413 1663.0886,-65.0459"/>
</g>
<!-- Node38&#45;&gt;Node4 -->
<g id="edge85" class="edge">
<title>Node38&#45;&gt;Node4</title>
<path fill="none" stroke="#191970" d="M2022.8006,-189.4256C2032.0664,-187.0497 2042.0876,-184.7131 2051.456,-183 2095.0855,-175.0222 2395.6583,-144.1128 2496.5307,-133.8404"/>
<polygon fill="#191970" stroke="#191970" points="2497.1453,-137.296 2506.7397,-132.8018 2496.4368,-130.332 2497.1453,-137.296"/>
</g>
<!-- Node38&#45;&gt;Node14 -->
<g id="edge82" class="edge">
<title>Node38&#45;&gt;Node14</title>
<path fill="none" stroke="#191970" d="M1932.1327,-194.2536C1833.55,-184.6408 1631.3781,-163.6602 1562.456,-147 1521.0446,-136.9898 1513.5005,-125.4218 1472.456,-114 1412.9066,-97.4287 1343.4359,-84.6624 1294.606,-76.7352"/>
<polygon fill="#191970" stroke="#191970" points="1294.9384,-73.2439 1284.5106,-75.1175 1293.8308,-80.1557 1294.9384,-73.2439"/>
</g>
<!-- Node38&#45;&gt;Node15 -->
<g id="edge84" class="edge">
<title>Node38&#45;&gt;Node15</title>
<path fill="none" stroke="#191970" d="M2023.5101,-189.4549C2032.5864,-187.1335 2042.3407,-184.8151 2051.456,-183 2166.1837,-160.1546 2373.2491,-209.3333 2305.456,-114 2260.7363,-51.1135 2217.192,-71.786 2141.456,-57 1971.6361,-23.8459 1427.1647,-13.3868 1273.3021,-11.0557"/>
<polygon fill="#191970" stroke="#191970" points="1272.9603,-7.5504 1262.9095,-10.9017 1272.8565,-14.5496 1272.9603,-7.5504"/>
</g>
<!-- Node38&#45;&gt;Node16 -->
<g id="edge83" class="edge">
<title>Node38&#45;&gt;Node16</title>
<path fill="none" stroke="#191970" d="M1932.3072,-194.5489C1892.1588,-191.0424 1836.4642,-186.3802 1787.456,-183 1499.2529,-163.1219 1422.5908,-199.1885 1138.456,-147 1096.1981,-139.2383 980.4363,-99.7354 922.4683,-79.4938"/>
<polygon fill="#191970" stroke="#191970" points="923.2752,-76.068 912.6804,-76.0671 920.9622,-82.6749 923.2752,-76.068"/>
</g>
<!-- Node39&#45;&gt;Node4 -->
<g id="edge90" class="edge">
<title>Node39&#45;&gt;Node4</title>
<path fill="none" stroke="#191970" d="M2169.9856,-189.4351C2180.2787,-187.1908 2191.2342,-184.9121 2201.456,-183 2304.4538,-163.7333 2331.0544,-163.9662 2434.456,-147 2455.2662,-143.5855 2478.6002,-139.5359 2496.9348,-136.3031"/>
<polygon fill="#191970" stroke="#191970" points="2497.5891,-139.7418 2506.8262,-134.5528 2496.3693,-132.8488 2497.5891,-139.7418"/>
</g>
<!-- Node39&#45;&gt;Node14 -->
<g id="edge87" class="edge">
<title>Node39&#45;&gt;Node14</title>
<path fill="none" stroke="#191970" d="M2084.5677,-189.4188C2073.8208,-187.071 2062.2476,-184.7494 2051.456,-183 1900.5858,-158.5422 1860.7118,-168.9472 1709.456,-147 1629.8307,-135.4464 1610.7717,-127.5169 1531.456,-114 1449.8236,-100.0883 1355.3571,-85.6786 1294.812,-76.6587"/>
<polygon fill="#191970" stroke="#191970" points="1295.0598,-73.1572 1284.6538,-75.1485 1294.0304,-80.0811 1295.0598,-73.1572"/>
</g>
<!-- Node39&#45;&gt;Node15 -->
<g id="edge89" class="edge">
<title>Node39&#45;&gt;Node15</title>
<path fill="none" stroke="#191970" d="M2169.9676,-189.497C2227.3231,-176.107 2321.5912,-153.3067 2326.456,-147 2335.4141,-135.3869 2334.0292,-126.5602 2326.456,-114 2298.4309,-67.5202 2270.8169,-71.2871 2218.456,-57 2126.3041,-31.8556 1446.7751,-15.2382 1272.8906,-11.3674"/>
<polygon fill="#191970" stroke="#191970" points="1272.7185,-7.8628 1262.6436,-11.141 1272.5639,-14.8611 1272.7185,-7.8628"/>
</g>
<!-- Node39&#45;&gt;Node16 -->
<g id="edge88" class="edge">
<title>Node39&#45;&gt;Node16</title>
<path fill="none" stroke="#191970" d="M2086.979,-189.4834C2075.5858,-186.9558 2063.0884,-184.5285 2051.456,-183 1696.813,-136.4011 1602.0667,-193.8438 1247.456,-147 1239.2841,-145.9205 1010.4822,-94.8043 922.4861,-75.1175"/>
<polygon fill="#191970" stroke="#191970" points="923.0001,-71.646 912.4771,-72.8779 921.4716,-78.4771 923.0001,-71.646"/>
</g>
<!-- Node40&#45;&gt;Node14 -->
<g id="edge92" class="edge">
<title>Node40&#45;&gt;Node14</title>
<path fill="none" stroke="#191970" d="M2128.7368,-120.4881C2113.4529,-118.0387 2096.8518,-115.6502 2081.456,-114 1788.2692,-82.5739 1435.7168,-71.8792 1294.9443,-68.6967"/>
<polygon fill="#191970" stroke="#191970" points="1294.853,-65.1939 1284.7779,-68.4717 1294.698,-72.1922 1294.853,-65.1939"/>
</g>
<!-- Node40&#45;&gt;Node15 -->
<g id="edge93" class="edge">
<title>Node40&#45;&gt;Node15</title>
<path fill="none" stroke="#191970" d="M2134.8484,-120.4794C2056.0435,-104.8782 1897.2662,-74.7359 1761.456,-57 1579.8321,-33.2811 1361.5055,-18.371 1272.8331,-12.8828"/>
<polygon fill="#191970" stroke="#191970" points="1272.8687,-9.3785 1262.6733,-12.2602 1272.4405,-16.3654 1272.8687,-9.3785"/>
</g>
<!-- Node40&#45;&gt;Node18 -->
<g id="edge94" class="edge">
<title>Node40&#45;&gt;Node18</title>
<path fill="none" stroke="#191970" d="M2125.4412,-120.4701C2111.0715,-118.1872 2095.7298,-115.8826 2081.456,-114 1924.3922,-93.2846 1735.3385,-76.2338 1663.3012,-70.0217"/>
<polygon fill="#191970" stroke="#191970" points="1663.4149,-66.5187 1653.1524,-69.1517 1662.8169,-73.4931 1663.4149,-66.5187"/>
</g>
<!-- Node41&#45;&gt;Node4 -->
<g id="edge96" class="edge">
<title>Node41&#45;&gt;Node4</title>
<path fill="none" stroke="#191970" d="M2862.2112,-189.4975C2850.4261,-187.3405 2838.0252,-185.083 2826.456,-183 2730.5558,-165.7333 2617.1385,-145.8276 2562.3476,-136.2438"/>
<polygon fill="#191970" stroke="#191970" points="2562.647,-132.7431 2552.1936,-134.4685 2561.4414,-139.6385 2562.647,-132.7431"/>
</g>
<!-- Node42&#45;&gt;Node4 -->
<g id="edge98" class="edge">
<title>Node42&#45;&gt;Node4</title>
<path fill="none" stroke="#191970" d="M2460.4078,-189.3188C2473.3294,-178.3116 2494.1393,-160.5846 2509.5401,-147.4654"/>
<polygon fill="#191970" stroke="#191970" points="2512.1123,-149.872 2517.4552,-140.723 2507.5731,-144.5433 2512.1123,-149.872"/>
</g>
</g>
</svg>
