<?xml version="1.0" encoding="UTF-8" standalone="no"?>
<!DOCTYPE svg PUBLIC "-//W3C//DTD SVG 1.1//EN"
 "http://www.w3.org/Graphics/SVG/1.1/DTD/svg11.dtd">
<!-- Generated by graphviz version 2.40.1 (20161225.0304)
 -->
<!-- Title: EicHtcTask::ConstructLinearTrackApproximation Pages: 1 -->
<svg width="1463pt" height="695pt"
 viewBox="0.00 0.00 1463.00 695.00" xmlns="http://www.w3.org/2000/svg" xmlns:xlink="http://www.w3.org/1999/xlink">
<g id="graph0" class="graph" transform="scale(1 1) rotate(0) translate(4 691)">
<title>EicHtcTask::ConstructLinearTrackApproximation</title>
<!-- Node1 -->
<g id="node1" class="node">
<title>Node1</title>
<polygon fill="#bfbfbf" stroke="#000000" points="0,-240.5 0,-272.5 157,-272.5 157,-240.5 0,-240.5"/>
<text text-anchor="start" x="8" y="-259.5" font-family="FreeSans" font-size="10.00" fill="#000000">EicHtcTask::ConstructLinear</text>
<text text-anchor="middle" x="78.5" y="-247.5" font-family="FreeSans" font-size="10.00" fill="#000000">TrackApproximation</text>
</g>
<!-- Node2 -->
<g id="node2" class="node">
<title>Node2</title>
<g id="a_node2"><a xlink:href="../../d6/d2a/classKalmanFilter.html#a9762f7041c9dccd852e813c5dd380467" target="_top" xlink:title="KalmanFilter::GetTail">
<polygon fill="none" stroke="#000000" points="218.5,-324.5 218.5,-344.5 338.5,-344.5 338.5,-324.5 218.5,-324.5"/>
<text text-anchor="middle" x="278.5" y="-331.5" font-family="FreeSans" font-size="10.00" fill="#000000">KalmanFilter::GetTail</text>
</a>
</g>
</g>
<!-- Node1&#45;&gt;Node2 -->
<g id="edge1" class="edge">
<title>Node1&#45;&gt;Node2</title>
<path fill="none" stroke="#191970" d="M110.0373,-272.6479C132.7362,-283.8851 164.2883,-298.7259 193,-309.5 204.6514,-313.8722 217.4257,-317.9659 229.4659,-321.5241"/>
<polygon fill="#191970" stroke="#191970" points="228.7877,-324.9712 239.3661,-324.3815 230.7288,-318.2457 228.7877,-324.9712"/>
</g>
<!-- Node3 -->
<g id="node3" class="node">
<title>Node3</title>
<g id="a_node3"><a xlink:href="../../d0/d95/ip_8C.html#a292ff32a75b66b513d1f0ce00f9a4dc4" target="_top" xlink:title="ip">
<polygon fill="none" stroke="#000000" points="557.5,-246.5 557.5,-266.5 586.5,-266.5 586.5,-246.5 557.5,-246.5"/>
<text text-anchor="middle" x="572" y="-253.5" font-family="FreeSans" font-size="10.00" fill="#000000">ip</text>
</a>
</g>
</g>
<!-- Node1&#45;&gt;Node3 -->
<g id="edge2" class="edge">
<title>Node1&#45;&gt;Node3</title>
<path fill="none" stroke="#191970" d="M157.2451,-267.1011C169.2061,-268.4293 181.4176,-269.6259 193,-270.5 325.9819,-280.5355 360.6636,-292.9913 493,-276.5 511.5934,-274.183 532.0919,-268.9106 547.5482,-264.3608"/>
<polygon fill="#191970" stroke="#191970" points="548.8122,-267.6346 557.3577,-261.3716 546.7717,-260.9386 548.8122,-267.6346"/>
</g>
<!-- Node35 -->
<g id="node35" class="node">
<title>Node35</title>
<g id="a_node35"><a xlink:href="../../da/dd0/classKfMatrix.html#aab4f8c3fde37cd986233dadf5ee9856d" target="_top" xlink:title="KfMatrix::KFV">
<polygon fill="none" stroke="#000000" points="404,-246.5 404,-266.5 489,-266.5 489,-246.5 404,-246.5"/>
<text text-anchor="middle" x="446.5" y="-253.5" font-family="FreeSans" font-size="10.00" fill="#000000">KfMatrix::KFV</text>
</a>
</g>
</g>
<!-- Node1&#45;&gt;Node35 -->
<g id="edge43" class="edge">
<title>Node1&#45;&gt;Node35</title>
<path fill="none" stroke="#191970" d="M157.4452,-256.5C228.7177,-256.5 331.616,-256.5 393.4839,-256.5"/>
<polygon fill="#191970" stroke="#191970" points="393.7954,-260.0001 403.7953,-256.5 393.7953,-253.0001 393.7954,-260.0001"/>
</g>
<!-- Node36 -->
<g id="node36" class="node">
<title>Node36</title>
<g id="a_node36"><a xlink:href="../../d6/da0/classTrKalmanFilter.html#ae7e3353d5077aa422969a1c625d3aaad" target="_top" xlink:title="TrKalmanFilter::ResetNode">
<polygon fill="none" stroke="#000000" points="203.5,-207.5 203.5,-227.5 353.5,-227.5 353.5,-207.5 203.5,-207.5"/>
<text text-anchor="middle" x="278.5" y="-214.5" font-family="FreeSans" font-size="10.00" fill="#000000">TrKalmanFilter::ResetNode</text>
</a>
</g>
</g>
<!-- Node1&#45;&gt;Node36 -->
<g id="edge45" class="edge">
<title>Node1&#45;&gt;Node36</title>
<path fill="none" stroke="#191970" d="M157.2582,-241.1422C177.1798,-237.2574 198.2806,-233.1428 217.197,-229.4541"/>
<polygon fill="#191970" stroke="#191970" points="218.0198,-232.8597 227.165,-227.5103 216.68,-225.9891 218.0198,-232.8597"/>
</g>
<!-- Node39 -->
<g id="node39" class="node">
<title>Node39</title>
<g id="a_node39"><a xlink:href="../../d1/d0e/classTrKalmanNode.html#ab9954dc7266484335e291516464d222c" target="_top" xlink:title="TrKalmanNode::SetMomentum">
<polygon fill="none" stroke="#000000" points="193,-168.5 193,-188.5 364,-188.5 364,-168.5 193,-168.5"/>
<text text-anchor="middle" x="278.5" y="-175.5" font-family="FreeSans" font-size="10.00" fill="#000000">TrKalmanNode::SetMomentum</text>
</a>
</g>
</g>
<!-- Node1&#45;&gt;Node39 -->
<g id="edge51" class="edge">
<title>Node1&#45;&gt;Node39</title>
<path fill="none" stroke="#191970" d="M105.8959,-240.2685C128.5852,-227.4093 162.0125,-209.7878 193,-198.5 200.5356,-195.755 208.5849,-193.2936 216.6185,-191.1151"/>
<polygon fill="#191970" stroke="#191970" points="217.5657,-194.4854 226.3743,-188.5981 215.8169,-187.7074 217.5657,-194.4854"/>
</g>
<!-- Node4 -->
<g id="node4" class="node">
<title>Node4</title>
<g id="a_node4"><a xlink:href="../../da/d86/classEicGeoMap.html#a4138a501100028aef473a4b9508d36d3" target="_top" xlink:title="EicGeoMap::AddGeantVolume\lLevel">
<polygon fill="none" stroke="#000000" points="870,-654.5 870,-686.5 1038,-686.5 1038,-654.5 870,-654.5"/>
<text text-anchor="start" x="878" y="-673.5" font-family="FreeSans" font-size="10.00" fill="#000000">EicGeoMap::AddGeantVolume</text>
<text text-anchor="middle" x="954" y="-661.5" font-family="FreeSans" font-size="10.00" fill="#000000">Level</text>
</a>
</g>
</g>
<!-- Node3&#45;&gt;Node4 -->
<g id="edge3" class="edge">
<title>Node3&#45;&gt;Node4</title>
<path fill="none" stroke="#191970" d="M573.8714,-266.7767C582.1158,-311.1547 616.3289,-486.0254 651,-528.5 705.5347,-595.3088 798.7092,-632.3845 867.3728,-651.7451"/>
<polygon fill="#191970" stroke="#191970" points="866.7483,-655.2031 877.3181,-654.4745 868.601,-648.4527 866.7483,-655.2031"/>
</g>
<!-- Node6 -->
<g id="node6" class="node">
<title>Node6</title>
<g id="a_node6"><a xlink:href="../../df/de0/classEicGeoParData.html#a131e36442e699277af7e0e05dd70d7c7" target="_top" xlink:title="EicGeoParData::AddLogical\lVolumeGroup">
<polygon fill="none" stroke="#000000" points="1107.5,-408.5 1107.5,-440.5 1260.5,-440.5 1260.5,-408.5 1107.5,-408.5"/>
<text text-anchor="start" x="1115.5" y="-427.5" font-family="FreeSans" font-size="10.00" fill="#000000">EicGeoParData::AddLogical</text>
<text text-anchor="middle" x="1184" y="-415.5" font-family="FreeSans" font-size="10.00" fill="#000000">VolumeGroup</text>
</a>
</g>
</g>
<!-- Node3&#45;&gt;Node6 -->
<g id="edge5" class="edge">
<title>Node3&#45;&gt;Node6</title>
<path fill="none" stroke="#191970" d="M573.8467,-266.8416C579.4917,-295.0162 599.3842,-373.1785 651,-405.5 722.991,-450.5802 965.5582,-440.8032 1097.2275,-431.6446"/>
<polygon fill="#191970" stroke="#191970" points="1097.5603,-435.1299 1107.2875,-430.931 1097.0649,-428.1474 1097.5603,-435.1299"/>
</g>
<!-- Node9 -->
<g id="node9" class="node">
<title>Node9</title>
<g id="a_node9"><a xlink:href="../../dd/d0b/classEicNamePatternHub.html#abe35bc0e1b9b51fa1f2c0c45bcf78dec" target="_top" xlink:title="EicNamePatternHub::\lAddPatternMatch">
<polygon fill="none" stroke="#000000" points="677,-363.5 677,-395.5 800,-395.5 800,-363.5 677,-363.5"/>
<text text-anchor="start" x="685" y="-382.5" font-family="FreeSans" font-size="10.00" fill="#000000">EicNamePatternHub::</text>
<text text-anchor="middle" x="738.5" y="-370.5" font-family="FreeSans" font-size="10.00" fill="#000000">AddPatternMatch</text>
</a>
</g>
</g>
<!-- Node3&#45;&gt;Node9 -->
<g id="edge9" class="edge">
<title>Node3&#45;&gt;Node9</title>
<path fill="none" stroke="#191970" d="M577.2684,-266.5308C588.2351,-286.4192 615.4792,-330.957 651,-354.5 655.9774,-357.799 661.3925,-360.6688 667.0074,-363.1643"/>
<polygon fill="#191970" stroke="#191970" points="666.0198,-366.5394 676.6037,-367.0202 668.6297,-360.0441 666.0198,-366.5394"/>
</g>
<!-- Node10 -->
<g id="node10" class="node">
<title>Node10</title>
<g id="a_node10"><a xlink:href="../../df/de0/classEicGeoParData.html#a0a19d07a4f67c4a5cb0884a9992f44d7" target="_top" xlink:title="EicGeoParData::CreateNewMap">
<polygon fill="none" stroke="#000000" points="651,-324.5 651,-344.5 826,-344.5 826,-324.5 651,-324.5"/>
<text text-anchor="middle" x="738.5" y="-331.5" font-family="FreeSans" font-size="10.00" fill="#000000">EicGeoParData::CreateNewMap</text>
</a>
</g>
</g>
<!-- Node3&#45;&gt;Node10 -->
<g id="edge10" class="edge">
<title>Node3&#45;&gt;Node10</title>
<path fill="none" stroke="#191970" d="M582.2911,-266.5234C596.526,-279.8039 623.5854,-303.005 651,-315.5 655.9508,-317.7564 661.1834,-319.751 666.5282,-321.5132"/>
<polygon fill="#191970" stroke="#191970" points="665.6487,-324.9036 676.2334,-324.4405 667.6701,-318.2018 665.6487,-324.9036"/>
</g>
<!-- Node11 -->
<g id="node11" class="node">
<title>Node11</title>
<g id="a_node11"><a xlink:href="../../df/de8/cemc_8C.html#adf5c804dfce7a70e36dda02995fad481" target="_top" xlink:title="exit">
<polygon fill="none" stroke="#000000" points="721,-285.5 721,-305.5 756,-305.5 756,-285.5 721,-285.5"/>
<text text-anchor="middle" x="738.5" y="-292.5" font-family="FreeSans" font-size="10.00" fill="#000000">exit</text>
</a>
</g>
</g>
<!-- Node3&#45;&gt;Node11 -->
<g id="edge11" class="edge">
<title>Node3&#45;&gt;Node11</title>
<path fill="none" stroke="#191970" d="M586.7758,-259.961C614.664,-266.4934 675.4462,-280.7306 711.0347,-289.0667"/>
<polygon fill="#191970" stroke="#191970" points="710.2467,-292.4768 720.7814,-291.3497 711.8432,-285.6612 710.2467,-292.4768"/>
</g>
<!-- Node12 -->
<g id="node12" class="node">
<title>Node12</title>
<g id="a_node12"><a xlink:href="../../df/de0/classEicGeoParData.html#a5464c1947d87d36569891ada6aafb22c" target="_top" xlink:title="EicGeoParData::FinalizeOutput">
<polygon fill="none" stroke="#000000" points="653,-207.5 653,-227.5 824,-227.5 824,-207.5 653,-207.5"/>
<text text-anchor="middle" x="738.5" y="-214.5" font-family="FreeSans" font-size="10.00" fill="#000000">EicGeoParData::FinalizeOutput</text>
</a>
</g>
</g>
<!-- Node3&#45;&gt;Node12 -->
<g id="edge12" class="edge">
<title>Node3&#45;&gt;Node12</title>
<path fill="none" stroke="#191970" d="M586.7758,-253.039C608.7966,-247.881 651.3263,-237.9191 685.7678,-229.8517"/>
<polygon fill="#191970" stroke="#191970" points="686.765,-233.2129 695.7032,-227.5245 685.1685,-226.3974 686.765,-233.2129"/>
</g>
<!-- Node14 -->
<g id="node14" class="node">
<title>Node14</title>
<g id="a_node14"><a xlink:href="../../df/de0/classEicGeoParData.html#a98e43e3d66fdb531cabaccd39f09ebc3" target="_top" xlink:title="EicGeoParData::GetColorTable">
<polygon fill="none" stroke="#000000" points="869.5,-348.5 869.5,-368.5 1038.5,-368.5 1038.5,-348.5 869.5,-348.5"/>
<text text-anchor="middle" x="954" y="-355.5" font-family="FreeSans" font-size="10.00" fill="#000000">EicGeoParData::GetColorTable</text>
</a>
</g>
</g>
<!-- Node3&#45;&gt;Node14 -->
<g id="edge23" class="edge">
<title>Node3&#45;&gt;Node14</title>
<path fill="none" stroke="#191970" d="M586.6458,-253.2687C628.0359,-244.9912 747.9247,-226.9927 826,-276.5 853.2352,-293.7697 835.8974,-320.5618 862,-339.5 864.1369,-341.0504 866.3714,-342.4806 868.6826,-343.7998"/>
<polygon fill="#191970" stroke="#191970" points="867.4159,-347.0774 877.9333,-348.3561 870.5089,-340.7978 867.4159,-347.0774"/>
</g>
<!-- Node21 -->
<g id="node21" class="node">
<title>Node21</title>
<g id="a_node21"><a xlink:href="../../df/de0/classEicGeoParData.html#a75991633a97d0a9b3140ba103f225691" target="_top" xlink:title="EicGeoParData::GetTransparency\lTable">
<polygon fill="none" stroke="#000000" points="862,-156.5 862,-188.5 1046,-188.5 1046,-156.5 862,-156.5"/>
<text text-anchor="start" x="870" y="-175.5" font-family="FreeSans" font-size="10.00" fill="#000000">EicGeoParData::GetTransparency</text>
<text text-anchor="middle" x="954" y="-163.5" font-family="FreeSans" font-size="10.00" fill="#000000">Table</text>
</a>
</g>
</g>
<!-- Node3&#45;&gt;Node21 -->
<g id="edge28" class="edge">
<title>Node3&#45;&gt;Node21</title>
<path fill="none" stroke="#191970" d="M582.1102,-246.1339C596.14,-232.4976 622.9678,-209.0337 651,-198.5 714.7734,-174.5357 791.2378,-168.1239 851.3973,-167.6586"/>
<polygon fill="#191970" stroke="#191970" points="851.6769,-171.1581 861.6689,-167.6353 851.6609,-164.1581 851.6769,-171.1581"/>
</g>
<!-- Node23 -->
<g id="node23" class="node">
<title>Node23</title>
<g id="a_node23"><a xlink:href="../../df/de0/classEicGeoParData.html#af50661ee10308b08071f9feb1b57493b" target="_top" xlink:title="EicGeoParData::GetMedium">
<polygon fill="none" stroke="#000000" points="660.5,-129.5 660.5,-149.5 816.5,-149.5 816.5,-129.5 660.5,-129.5"/>
<text text-anchor="middle" x="738.5" y="-136.5" font-family="FreeSans" font-size="10.00" fill="#000000">EicGeoParData::GetMedium</text>
</a>
</g>
</g>
<!-- Node3&#45;&gt;Node23 -->
<g id="edge24" class="edge">
<title>Node3&#45;&gt;Node23</title>
<path fill="none" stroke="#191970" d="M577.9621,-246.2135C589.5448,-227.1527 616.9646,-186.3055 651,-164.5 658.3457,-159.7938 666.5935,-155.9548 675.0124,-152.8277"/>
<polygon fill="#191970" stroke="#191970" points="676.2062,-156.1187 684.5515,-149.5913 673.9571,-149.4898 676.2062,-156.1187"/>
</g>
<!-- Node26 -->
<g id="node26" class="node">
<title>Node26</title>
<g id="a_node26"><a xlink:href="../../df/de0/classEicGeoParData.html#a37c307a8b444e89fd125f6d273a1c894" target="_top" xlink:title="EicGeoParData::GetTopVolume">
<polygon fill="none" stroke="#000000" points="653,-90.5 653,-110.5 824,-110.5 824,-90.5 653,-90.5"/>
<text text-anchor="middle" x="738.5" y="-97.5" font-family="FreeSans" font-size="10.00" fill="#000000">EicGeoParData::GetTopVolume</text>
</a>
</g>
</g>
<!-- Node3&#45;&gt;Node26 -->
<g id="edge27" class="edge">
<title>Node3&#45;&gt;Node26</title>
<path fill="none" stroke="#191970" d="M577.688,-246.3852C595.3186,-215.066 648.0483,-121.6556 651,-119.5 653.142,-117.9357 655.3871,-116.4955 657.7122,-115.1699"/>
<polygon fill="#191970" stroke="#191970" points="659.5881,-118.1483 667.027,-110.6042 656.5072,-111.8627 659.5881,-118.1483"/>
</g>
<!-- Node27 -->
<g id="node27" class="node">
<title>Node27</title>
<g id="a_node27"><a xlink:href="../../df/de0/classEicGeoParData.html#a304fa90a3bc1944d2c997257ed56b6a7" target="_top" xlink:title="EicGeoParData::SetFileName">
<polygon fill="none" stroke="#000000" points="658,-51.5 658,-71.5 819,-71.5 819,-51.5 658,-51.5"/>
<text text-anchor="middle" x="738.5" y="-58.5" font-family="FreeSans" font-size="10.00" fill="#000000">EicGeoParData::SetFileName</text>
</a>
</g>
</g>
<!-- Node3&#45;&gt;Node27 -->
<g id="edge29" class="edge">
<title>Node3&#45;&gt;Node27</title>
<path fill="none" stroke="#191970" d="M578.3855,-246.3136C587.3024,-231.8291 603.6625,-204.284 615,-179.5 634.4764,-136.9245 615.7374,-111.2985 651,-80.5 652.5367,-79.1579 654.1458,-77.9034 655.8159,-76.7311"/>
<polygon fill="#191970" stroke="#191970" points="657.7913,-79.6293 664.6212,-71.5298 654.231,-73.6023 657.7913,-79.6293"/>
</g>
<!-- Node28 -->
<g id="node28" class="node">
<title>Node28</title>
<g id="a_node28"><a xlink:href="../../df/de0/classEicGeoParData.html#a85796e06ee06c2b0973409350d2c054d" target="_top" xlink:title="EicGeoParData::SetMapping\lTableEntry">
<polygon fill="none" stroke="#000000" points="659.5,-486.5 659.5,-518.5 817.5,-518.5 817.5,-486.5 659.5,-486.5"/>
<text text-anchor="start" x="667.5" y="-505.5" font-family="FreeSans" font-size="10.00" fill="#000000">EicGeoParData::SetMapping</text>
<text text-anchor="middle" x="738.5" y="-493.5" font-family="FreeSans" font-size="10.00" fill="#000000">TableEntry</text>
</a>
</g>
</g>
<!-- Node3&#45;&gt;Node28 -->
<g id="edge30" class="edge">
<title>Node3&#45;&gt;Node28</title>
<path fill="none" stroke="#191970" d="M574.3603,-266.5445C581.6074,-295.7253 605.8313,-382.0003 651,-438.5 664.5106,-455.3998 683.5322,-470.0277 700.3906,-481.016"/>
<polygon fill="#191970" stroke="#191970" points="698.6427,-484.0515 708.9686,-486.4232 702.3755,-478.1298 698.6427,-484.0515"/>
</g>
<!-- Node34 -->
<g id="node34" class="node">
<title>Node34</title>
<g id="a_node34"><a xlink:href="../../da/d86/classEicGeoMap.html#a77e724ceee76044c2346a4b35be1f90e" target="_top" xlink:title="EicGeoMap::SetSingleSensor\lContainerVolume">
<polygon fill="none" stroke="#000000" points="657,-.5 657,-32.5 820,-32.5 820,-.5 657,-.5"/>
<text text-anchor="start" x="665" y="-19.5" font-family="FreeSans" font-size="10.00" fill="#000000">EicGeoMap::SetSingleSensor</text>
<text text-anchor="middle" x="738.5" y="-7.5" font-family="FreeSans" font-size="10.00" fill="#000000">ContainerVolume</text>
</a>
</g>
</g>
<!-- Node3&#45;&gt;Node34 -->
<g id="edge42" class="edge">
<title>Node3&#45;&gt;Node34</title>
<path fill="none" stroke="#191970" d="M578.7119,-246.4538C588.0165,-232.1357 604.8342,-204.7872 615,-179.5 638.643,-120.6886 606.7004,-86.8357 651,-41.5 651.9316,-40.5466 652.8969,-39.6288 653.8926,-38.7455"/>
<polygon fill="#191970" stroke="#191970" points="656.1607,-41.4196 662.0681,-32.6245 651.9654,-35.8161 656.1607,-41.4196"/>
</g>
<!-- Node5 -->
<g id="node5" class="node">
<title>Node5</title>
<g id="a_node5"><a xlink:href="../../da/d23/msg__buffer_8cc.html#a98631211a4a8aee62f572375d5b637be" target="_top" xlink:title="printf">
<polygon fill="none" stroke="#000000" points="1366.5,-537.5 1366.5,-557.5 1410.5,-557.5 1410.5,-537.5 1366.5,-537.5"/>
<text text-anchor="middle" x="1388.5" y="-544.5" font-family="FreeSans" font-size="10.00" fill="#000000">printf</text>
</a>
</g>
</g>
<!-- Node4&#45;&gt;Node5 -->
<g id="edge4" class="edge">
<title>Node4&#45;&gt;Node5</title>
<path fill="none" stroke="#191970" d="M1038.0969,-676.8944C1107.4691,-678.894 1206.972,-674.0629 1286,-639.5 1323.5213,-623.09 1356.7145,-587.4604 1374.5773,-565.6719"/>
<polygon fill="#191970" stroke="#191970" points="1377.3538,-567.8038 1380.8546,-557.804 1371.882,-563.4381 1377.3538,-567.8038"/>
</g>
<!-- Node6&#45;&gt;Node5 -->
<g id="edge7" class="edge">
<title>Node6&#45;&gt;Node5</title>
<path fill="none" stroke="#191970" d="M1260.5629,-436.4643C1269.6946,-440.0104 1278.4423,-444.5899 1286,-450.5 1312.6288,-471.3236 1297.2836,-494.4388 1322,-517.5 1331.7671,-526.613 1344.7736,-533.3091 1356.6926,-538.033"/>
<polygon fill="#191970" stroke="#191970" points="1355.7597,-541.418 1366.3537,-541.547 1358.1524,-534.8396 1355.7597,-541.418"/>
</g>
<!-- Node7 -->
<g id="node7" class="node">
<title>Node7</title>
<g id="a_node7"><a xlink:href="../../dd/d20/classEicBitMask.html#a577897e58c312fcaa8722bea72257e26" target="_top" xlink:title="EicBitMask::GetBitNum">
<polygon fill="none" stroke="#000000" points="1322,-487.5 1322,-507.5 1455,-507.5 1455,-487.5 1322,-487.5"/>
<text text-anchor="middle" x="1388.5" y="-494.5" font-family="FreeSans" font-size="10.00" fill="#000000">EicBitMask::GetBitNum</text>
</a>
</g>
</g>
<!-- Node6&#45;&gt;Node7 -->
<g id="edge6" class="edge">
<title>Node6&#45;&gt;Node7</title>
<path fill="none" stroke="#191970" d="M1253.9109,-440.5344C1264.7519,-443.5326 1275.7482,-446.8763 1286,-450.5 1311.8133,-459.6241 1340.0131,-472.8059 1360.2884,-482.889"/>
<polygon fill="#191970" stroke="#191970" points="1358.7784,-486.0473 1369.2842,-487.4181 1361.9262,-479.795 1358.7784,-486.0473"/>
</g>
<!-- Node8 -->
<g id="node8" class="node">
<title>Node8</title>
<g id="a_node8"><a xlink:href="../../dd/d20/classEicBitMask.html#a23ae6782cbc30f5fe572692893d5e3bf" target="_top" xlink:title="EicBitMask::SetShift">
<polygon fill="none" stroke="#000000" points="1330,-426.5 1330,-446.5 1447,-446.5 1447,-426.5 1330,-426.5"/>
<text text-anchor="middle" x="1388.5" y="-433.5" font-family="FreeSans" font-size="10.00" fill="#000000">EicBitMask::SetShift</text>
</a>
</g>
</g>
<!-- Node6&#45;&gt;Node8 -->
<g id="edge8" class="edge">
<title>Node6&#45;&gt;Node8</title>
<path fill="none" stroke="#191970" d="M1260.7301,-429.0025C1280.1361,-430.1412 1300.8523,-431.3569 1319.8319,-432.4706"/>
<polygon fill="#191970" stroke="#191970" points="1319.6914,-435.9683 1329.8793,-433.0602 1320.1015,-428.9803 1319.6914,-435.9683"/>
</g>
<!-- Node13 -->
<g id="node13" class="node">
<title>Node13</title>
<g id="a_node13"><a xlink:href="../../dd/d0b/classEicNamePatternHub.html#a8baac9dd7e44ee789555cb040763f903" target="_top" xlink:title="EicNamePatternHub::\lAnyMatch">
<polygon fill="none" stroke="#000000" points="892.5,-297.5 892.5,-329.5 1015.5,-329.5 1015.5,-297.5 892.5,-297.5"/>
<text text-anchor="start" x="900.5" y="-316.5" font-family="FreeSans" font-size="10.00" fill="#000000">EicNamePatternHub::</text>
<text text-anchor="middle" x="954" y="-304.5" font-family="FreeSans" font-size="10.00" fill="#000000">AnyMatch</text>
</a>
</g>
</g>
<!-- Node12&#45;&gt;Node13 -->
<g id="edge13" class="edge">
<title>Node12&#45;&gt;Node13</title>
<path fill="none" stroke="#191970" d="M793.5877,-227.541C804.8991,-231.1276 816.3018,-235.971 826,-242.5 847.5355,-256.9981 840.3709,-274.1418 862,-288.5 868.257,-292.6537 875.1863,-296.1203 882.3529,-299.0129"/>
<polygon fill="#191970" stroke="#191970" points="881.6378,-302.4774 892.2318,-302.6123 884.0342,-295.9003 881.6378,-302.4774"/>
</g>
<!-- Node12&#45;&gt;Node14 -->
<g id="edge14" class="edge">
<title>Node12&#45;&gt;Node14</title>
<path fill="none" stroke="#191970" d="M801.1534,-227.5221C810.258,-231.1066 818.9279,-235.953 826,-242.5 859.7446,-273.7389 827.1133,-309.5419 862,-339.5 863.5312,-340.8149 865.1293,-342.047 866.7844,-343.2014"/>
<polygon fill="#191970" stroke="#191970" points="865.0979,-346.2702 875.4871,-348.3476 868.6609,-340.2449 865.0979,-346.2702"/>
</g>
<!-- Node15 -->
<g id="node15" class="node">
<title>Node15</title>
<g id="a_node15"><a xlink:href="../../df/de0/classEicGeoParData.html#a24162311dd8c038e330afbee7a132352" target="_top" xlink:title="EicGeoParData::GetGeometry\lFileName">
<polygon fill="none" stroke="#000000" points="871,-246.5 871,-278.5 1037,-278.5 1037,-246.5 871,-246.5"/>
<text text-anchor="start" x="879" y="-265.5" font-family="FreeSans" font-size="10.00" fill="#000000">EicGeoParData::GetGeometry</text>
<text text-anchor="middle" x="954" y="-253.5" font-family="FreeSans" font-size="10.00" fill="#000000">FileName</text>
</a>
</g>
</g>
<!-- Node12&#45;&gt;Node15 -->
<g id="edge15" class="edge">
<title>Node12&#45;&gt;Node15</title>
<path fill="none" stroke="#191970" d="M786.5942,-227.5429C810.3475,-232.503 839.7488,-238.6424 867.2512,-244.3854"/>
<polygon fill="#191970" stroke="#191970" points="866.7794,-247.8623 877.2837,-246.4804 868.2103,-241.0101 866.7794,-247.8623"/>
</g>
<!-- Node12&#45;&gt;Node21 -->
<g id="edge21" class="edge">
<title>Node12&#45;&gt;Node21</title>
<path fill="none" stroke="#191970" d="M786.5942,-207.4571C810.3475,-202.497 839.7488,-196.3576 867.2512,-190.6146"/>
<polygon fill="#191970" stroke="#191970" points="868.2103,-193.9899 877.2837,-188.5196 866.7794,-187.1377 868.2103,-193.9899"/>
</g>
<!-- Node22 -->
<g id="node22" class="node">
<title>Node22</title>
<g id="a_node22"><a xlink:href="../../d0/d2f/classEicDetName.html#aef29cb1ffe2ea071a03f4aa098408595" target="_top" xlink:title="EicDetName::Name">
<polygon fill="none" stroke="#000000" points="896.5,-207.5 896.5,-227.5 1011.5,-227.5 1011.5,-207.5 896.5,-207.5"/>
<text text-anchor="middle" x="954" y="-214.5" font-family="FreeSans" font-size="10.00" fill="#000000">EicDetName::Name</text>
</a>
</g>
</g>
<!-- Node12&#45;&gt;Node22 -->
<g id="edge22" class="edge">
<title>Node12&#45;&gt;Node22</title>
<path fill="none" stroke="#191970" d="M824.2905,-217.5C844.8807,-217.5 866.5881,-217.5 886.23,-217.5"/>
<polygon fill="#191970" stroke="#191970" points="886.2965,-221.0001 896.2964,-217.5 886.2964,-214.0001 886.2965,-221.0001"/>
</g>
<!-- Node16 -->
<g id="node16" class="node">
<title>Node16</title>
<g id="a_node16"><a xlink:href="../../df/de0/classEicGeoParData.html#a7f5db7c4ddc258264f0258a6d8d946b6" target="_top" xlink:title="EicGeoParData::GetGeometryType">
<polygon fill="none" stroke="#000000" points="1089.5,-291.5 1089.5,-311.5 1278.5,-311.5 1278.5,-291.5 1089.5,-291.5"/>
<text text-anchor="middle" x="1184" y="-298.5" font-family="FreeSans" font-size="10.00" fill="#000000">EicGeoParData::GetGeometryType</text>
</a>
</g>
</g>
<!-- Node15&#45;&gt;Node16 -->
<g id="edge16" class="edge">
<title>Node15&#45;&gt;Node16</title>
<path fill="none" stroke="#191970" d="M1037.0353,-276.5799C1062.594,-280.9138 1090.441,-285.6356 1114.9539,-289.7922"/>
<polygon fill="#191970" stroke="#191970" points="1114.4369,-293.2544 1124.8813,-291.4755 1115.6072,-286.3529 1114.4369,-293.2544"/>
</g>
<!-- Node17 -->
<g id="node17" class="node">
<title>Node17</title>
<g id="a_node17"><a xlink:href="../../df/de0/classEicGeoParData.html#ae6acf5e5d790c629031c2d7cf12718ef" target="_top" xlink:title="EicGeoParData::GetSubVersion">
<polygon fill="none" stroke="#000000" points="1098,-252.5 1098,-272.5 1270,-272.5 1270,-252.5 1098,-252.5"/>
<text text-anchor="middle" x="1184" y="-259.5" font-family="FreeSans" font-size="10.00" fill="#000000">EicGeoParData::GetSubVersion</text>
</a>
</g>
</g>
<!-- Node15&#45;&gt;Node17 -->
<g id="edge17" class="edge">
<title>Node15&#45;&gt;Node17</title>
<path fill="none" stroke="#191970" d="M1037.0353,-262.5C1053.4451,-262.5 1070.7983,-262.5 1087.6066,-262.5"/>
<polygon fill="#191970" stroke="#191970" points="1087.9885,-266.0001 1097.9885,-262.5 1087.9885,-259.0001 1087.9885,-266.0001"/>
</g>
<!-- Node18 -->
<g id="node18" class="node">
<title>Node18</title>
<g id="a_node18"><a xlink:href="../../df/de0/classEicGeoParData.html#a27907f2aba8817ceb2d97e1a29ecaf40" target="_top" xlink:title="EicGeoParData::GetVersion">
<polygon fill="none" stroke="#000000" points="1107.5,-213.5 1107.5,-233.5 1260.5,-233.5 1260.5,-213.5 1107.5,-213.5"/>
<text text-anchor="middle" x="1184" y="-220.5" font-family="FreeSans" font-size="10.00" fill="#000000">EicGeoParData::GetVersion</text>
</a>
</g>
</g>
<!-- Node15&#45;&gt;Node18 -->
<g id="edge18" class="edge">
<title>Node15&#45;&gt;Node18</title>
<path fill="none" stroke="#191970" d="M1037.0353,-248.4201C1062.594,-244.0862 1090.441,-239.3644 1114.9539,-235.2078"/>
<polygon fill="#191970" stroke="#191970" points="1115.6072,-238.6471 1124.8813,-233.5245 1114.4369,-231.7456 1115.6072,-238.6471"/>
</g>
<!-- Node19 -->
<g id="node19" class="node">
<title>Node19</title>
<g id="a_node19"><a xlink:href="../../df/de0/classEicGeoParData.html#a09fe5b3481f26b4a771cb7c476d64a1f" target="_top" xlink:title="EicGeoParData::IsTestGeometry">
<polygon fill="none" stroke="#000000" points="1096,-174.5 1096,-194.5 1272,-194.5 1272,-174.5 1096,-174.5"/>
<text text-anchor="middle" x="1184" y="-181.5" font-family="FreeSans" font-size="10.00" fill="#000000">EicGeoParData::IsTestGeometry</text>
</a>
</g>
</g>
<!-- Node15&#45;&gt;Node19 -->
<g id="edge19" class="edge">
<title>Node15&#45;&gt;Node19</title>
<path fill="none" stroke="#191970" d="M1026.62,-246.3312C1033.3446,-243.782 1039.9116,-240.855 1046,-237.5 1065.01,-227.0248 1062.6267,-214.287 1082,-204.5 1087.2108,-201.8676 1092.7336,-199.5811 1098.4063,-197.5951"/>
<polygon fill="#191970" stroke="#191970" points="1099.5936,-200.8904 1108.0658,-194.5287 1097.4755,-194.2185 1099.5936,-200.8904"/>
</g>
<!-- Node20 -->
<g id="node20" class="node">
<title>Node20</title>
<g id="a_node20"><a xlink:href="../../d0/d2f/classEicDetName.html#afac87377442f69796e0e335e81b96067" target="_top" xlink:title="EicDetName::name">
<polygon fill="none" stroke="#000000" points="1127,-330.5 1127,-350.5 1241,-350.5 1241,-330.5 1127,-330.5"/>
<text text-anchor="middle" x="1184" y="-337.5" font-family="FreeSans" font-size="10.00" fill="#000000">EicDetName::name</text>
</a>
</g>
</g>
<!-- Node15&#45;&gt;Node20 -->
<g id="edge20" class="edge">
<title>Node15&#45;&gt;Node20</title>
<path fill="none" stroke="#191970" d="M1024.2121,-278.5957C1031.7742,-281.4201 1039.1868,-284.7007 1046,-288.5 1064.9569,-299.071 1062.5806,-311.8047 1082,-321.5 1092.765,-326.8745 1104.8566,-330.7379 1116.8497,-333.5129"/>
<polygon fill="#191970" stroke="#191970" points="1116.3662,-336.9871 1126.8694,-335.5971 1117.7918,-330.1338 1116.3662,-336.9871"/>
</g>
<!-- Node24 -->
<g id="node24" class="node">
<title>Node24</title>
<g id="a_node24"><a xlink:href="../../de/d6a/classFairGeoBuilder.html#a852b0d5861a7a6c1033aab59417d1c79" target="_top" xlink:title="FairGeoBuilder::createMedium">
<polygon fill="none" stroke="#000000" points="869.5,-78.5 869.5,-98.5 1038.5,-98.5 1038.5,-78.5 869.5,-78.5"/>
<text text-anchor="middle" x="954" y="-85.5" font-family="FreeSans" font-size="10.00" fill="#000000">FairGeoBuilder::createMedium</text>
</a>
</g>
</g>
<!-- Node23&#45;&gt;Node24 -->
<g id="edge25" class="edge">
<title>Node23&#45;&gt;Node24</title>
<path fill="none" stroke="#191970" d="M786.3948,-129.4347C799.3151,-126.4798 813.246,-123.0742 826,-119.5 842.2398,-114.949 845.7132,-111.8799 862,-107.5 870.906,-105.105 880.3663,-102.841 889.7015,-100.767"/>
<polygon fill="#191970" stroke="#191970" points="890.7158,-104.1287 899.75,-98.5939 889.2361,-97.2869 890.7158,-104.1287"/>
</g>
<!-- Node25 -->
<g id="node25" class="node">
<title>Node25</title>
<g id="a_node25"><a xlink:href="../../d9/d1e/classFairGeoMedia.html#a0dc27e89d61b8ff40498a48e39b2a2c0" target="_top" xlink:title="FairGeoMedia::getMedium">
<polygon fill="none" stroke="#000000" points="879.5,-117.5 879.5,-137.5 1028.5,-137.5 1028.5,-117.5 879.5,-117.5"/>
<text text-anchor="middle" x="954" y="-124.5" font-family="FreeSans" font-size="10.00" fill="#000000">FairGeoMedia::getMedium</text>
</a>
</g>
</g>
<!-- Node23&#45;&gt;Node25 -->
<g id="edge26" class="edge">
<title>Node23&#45;&gt;Node25</title>
<path fill="none" stroke="#191970" d="M816.6051,-135.1508C833.7228,-134.1976 851.9228,-133.1841 869.2856,-132.2173"/>
<polygon fill="#191970" stroke="#191970" points="869.6075,-135.7049 879.3974,-131.6542 869.2182,-128.7157 869.6075,-135.7049"/>
</g>
<!-- Node28&#45;&gt;Node5 -->
<g id="edge33" class="edge">
<title>Node28&#45;&gt;Node5</title>
<path fill="none" stroke="#191970" d="M815.7206,-518.5759C819.3001,-520.3481 822.7499,-522.3157 826,-524.5 848.4287,-539.574 838.8638,-559.5361 862,-573.5 942.9122,-622.3347 1194.6971,-630.9006 1286,-606.5 1316.7914,-598.271 1347.9275,-578.3292 1367.6693,-563.9042"/>
<polygon fill="#191970" stroke="#191970" points="1370.0012,-566.5302 1375.896,-557.7267 1365.7978,-560.9327 1370.0012,-566.5302"/>
</g>
<!-- Node29 -->
<g id="node29" class="node">
<title>Node29</title>
<g id="a_node29"><a xlink:href="../../dd/d20/classEicBitMask.html#aba6083955032532d7dfc95069338dd27" target="_top" xlink:title="EicBitMask::GetBitMask">
<polygon fill="none" stroke="#000000" points="886.5,-453.5 886.5,-473.5 1021.5,-473.5 1021.5,-453.5 886.5,-453.5"/>
<text text-anchor="middle" x="954" y="-460.5" font-family="FreeSans" font-size="10.00" fill="#000000">EicBitMask::GetBitMask</text>
</a>
</g>
</g>
<!-- Node28&#45;&gt;Node29 -->
<g id="edge31" class="edge">
<title>Node28&#45;&gt;Node29</title>
<path fill="none" stroke="#191970" d="M817.5206,-488.1993C840.8547,-483.9764 866.128,-479.4026 888.5104,-475.3519"/>
<polygon fill="#191970" stroke="#191970" points="889.3566,-478.7558 898.5734,-473.5308 888.1099,-471.8676 889.3566,-478.7558"/>
</g>
<!-- Node30 -->
<g id="node30" class="node">
<title>Node30</title>
<g id="a_node30"><a xlink:href="../../dd/d20/classEicBitMask.html#a862ce5875cf47f78ff18aaed935966d9" target="_top" xlink:title="EicBitMask::GetShift">
<polygon fill="none" stroke="#000000" points="1124.5,-459.5 1124.5,-479.5 1243.5,-479.5 1243.5,-459.5 1124.5,-459.5"/>
<text text-anchor="middle" x="1184" y="-466.5" font-family="FreeSans" font-size="10.00" fill="#000000">EicBitMask::GetShift</text>
</a>
</g>
</g>
<!-- Node28&#45;&gt;Node30 -->
<g id="edge32" class="edge">
<title>Node28&#45;&gt;Node30</title>
<path fill="none" stroke="#191970" d="M817.5608,-498.4733C879.7061,-495.1008 968.4338,-489.8284 1046,-483.5 1068.1705,-481.6912 1092.3085,-479.365 1114.1077,-477.1302"/>
<polygon fill="#191970" stroke="#191970" points="1114.6854,-480.5892 1124.2717,-476.0778 1113.9643,-473.6265 1114.6854,-480.5892"/>
</g>
<!-- Node31 -->
<g id="node31" class="node">
<title>Node31</title>
<g id="a_node31"><a xlink:href="../../da/d86/classEicGeoMap.html#a9c17af03744fe42ae8daf66f9bda7f06" target="_top" xlink:title="EicGeoMap::SetMappingTable\lEntry">
<polygon fill="none" stroke="#000000" points="871,-531.5 871,-563.5 1037,-563.5 1037,-531.5 871,-531.5"/>
<text text-anchor="start" x="879" y="-550.5" font-family="FreeSans" font-size="10.00" fill="#000000">EicGeoMap::SetMappingTable</text>
<text text-anchor="middle" x="954" y="-538.5" font-family="FreeSans" font-size="10.00" fill="#000000">Entry</text>
</a>
</g>
</g>
<!-- Node28&#45;&gt;Node31 -->
<g id="edge34" class="edge">
<title>Node28&#45;&gt;Node31</title>
<path fill="none" stroke="#191970" d="M815.3878,-518.5555C832.1612,-522.058 850.0244,-525.7881 867.1544,-529.3652"/>
<polygon fill="#191970" stroke="#191970" points="866.6376,-532.8327 877.1419,-531.4507 868.0685,-525.9805 866.6376,-532.8327"/>
</g>
<!-- Node31&#45;&gt;Node5 -->
<g id="edge41" class="edge">
<title>Node31&#45;&gt;Node5</title>
<path fill="none" stroke="#191970" d="M1037.0052,-547.5C1133.8371,-547.5 1289.1872,-547.5 1356.11,-547.5"/>
<polygon fill="#191970" stroke="#191970" points="1356.4393,-551.0001 1366.4393,-547.5 1356.4393,-544.0001 1356.4393,-551.0001"/>
</g>
<!-- Node31&#45;&gt;Node30 -->
<g id="edge39" class="edge">
<title>Node31&#45;&gt;Node30</title>
<path fill="none" stroke="#191970" d="M1011.1306,-531.4057C1022.951,-527.21 1035.1108,-522.228 1046,-516.5 1063.7004,-507.189 1063.7265,-497.6289 1082,-489.5 1092.2018,-484.9617 1103.4307,-481.4489 1114.5944,-478.7309"/>
<polygon fill="#191970" stroke="#191970" points="1115.3685,-482.1443 1124.3605,-476.5412 1113.837,-475.3139 1115.3685,-482.1443"/>
</g>
<!-- Node32 -->
<g id="node32" class="node">
<title>Node32</title>
<g id="a_node32"><a xlink:href="../../da/d86/classEicGeoMap.html#ad01497111125dccc306dac986d6d10e1" target="_top" xlink:title="EicGeoMap::CalculateBitPattern">
<polygon fill="none" stroke="#000000" points="1096,-498.5 1096,-518.5 1272,-518.5 1272,-498.5 1096,-498.5"/>
<text text-anchor="middle" x="1184" y="-505.5" font-family="FreeSans" font-size="10.00" fill="#000000">EicGeoMap::CalculateBitPattern</text>
</a>
</g>
</g>
<!-- Node31&#45;&gt;Node32 -->
<g id="edge35" class="edge">
<title>Node31&#45;&gt;Node32</title>
<path fill="none" stroke="#191970" d="M1037.0353,-533.4201C1062.594,-529.0862 1090.441,-524.3644 1114.9539,-520.2078"/>
<polygon fill="#191970" stroke="#191970" points="1115.6072,-523.6471 1124.8813,-518.5245 1114.4369,-516.7456 1115.6072,-523.6471"/>
</g>
<!-- Node33 -->
<g id="node33" class="node">
<title>Node33</title>
<g id="a_node33"><a xlink:href="../../d1/d24/classGeantVolumeLevel.html#a4aba5288354c7287b6fc03cd9d30b2a2" target="_top" xlink:title="GeantVolumeLevel::GetVolumeName">
<polygon fill="none" stroke="#000000" points="1082,-576.5 1082,-596.5 1286,-596.5 1286,-576.5 1082,-576.5"/>
<text text-anchor="middle" x="1184" y="-583.5" font-family="FreeSans" font-size="10.00" fill="#000000">GeantVolumeLevel::GetVolumeName</text>
</a>
</g>
</g>
<!-- Node31&#45;&gt;Node33 -->
<g id="edge40" class="edge">
<title>Node31&#45;&gt;Node33</title>
<path fill="none" stroke="#191970" d="M1037.0353,-561.5799C1062.594,-565.9138 1090.441,-570.6356 1114.9539,-574.7922"/>
<polygon fill="#191970" stroke="#191970" points="1114.4369,-578.2544 1124.8813,-576.4755 1115.6072,-571.3529 1114.4369,-578.2544"/>
</g>
<!-- Node32&#45;&gt;Node5 -->
<g id="edge37" class="edge">
<title>Node32&#45;&gt;Node5</title>
<path fill="none" stroke="#191970" d="M1236.6638,-518.5435C1274.409,-525.7418 1324.0489,-535.2086 1356.1169,-541.3243"/>
<polygon fill="#191970" stroke="#191970" points="1355.7973,-544.8263 1366.276,-543.2617 1357.1087,-537.9502 1355.7973,-544.8263"/>
</g>
<!-- Node32&#45;&gt;Node7 -->
<g id="edge36" class="edge">
<title>Node32&#45;&gt;Node7</title>
<path fill="none" stroke="#191970" d="M1272.2102,-503.7552C1285.3462,-503.0486 1298.7973,-502.3251 1311.674,-501.6325"/>
<polygon fill="#191970" stroke="#191970" points="1312.0631,-505.1167 1321.8607,-501.0845 1311.6871,-498.1268 1312.0631,-505.1167"/>
</g>
<!-- Node32&#45;&gt;Node8 -->
<g id="edge38" class="edge">
<title>Node32&#45;&gt;Node8</title>
<path fill="none" stroke="#191970" d="M1253.0237,-498.4917C1264.1921,-496.0622 1275.5223,-493.0969 1286,-489.5 1313.9333,-479.9107 1343.6862,-463.7897 1363.8997,-451.8398"/>
<polygon fill="#191970" stroke="#191970" points="1365.71,-454.8353 1372.4749,-446.6813 1362.1016,-448.837 1365.71,-454.8353"/>
</g>
<!-- Node35&#45;&gt;Node3 -->
<g id="edge44" class="edge">
<title>Node35&#45;&gt;Node3</title>
<path fill="none" stroke="#191970" d="M489.339,-256.5C508.4935,-256.5 530.4095,-256.5 546.8603,-256.5"/>
<polygon fill="#191970" stroke="#191970" points="547.2751,-260.0001 557.2751,-256.5 547.275,-253.0001 547.2751,-260.0001"/>
</g>
<!-- Node36&#45;&gt;Node3 -->
<g id="edge46" class="edge">
<title>Node36&#45;&gt;Node3</title>
<path fill="none" stroke="#191970" d="M353.7861,-221.8741C395.0757,-224.936 447.0642,-229.8748 493,-237.5 511.4299,-240.5593 531.9341,-245.5383 547.4339,-249.632"/>
<polygon fill="#191970" stroke="#191970" points="546.7114,-253.0622 557.278,-252.2901 548.5362,-246.3042 546.7114,-253.0622"/>
</g>
<!-- Node36&#45;&gt;Node35 -->
<g id="edge47" class="edge">
<title>Node36&#45;&gt;Node35</title>
<path fill="none" stroke="#191970" d="M321.7642,-227.5435C343.7832,-232.655 370.7297,-238.9105 393.9356,-244.2976"/>
<polygon fill="#191970" stroke="#191970" points="393.4316,-247.7735 403.964,-246.6256 395.0145,-240.9549 393.4316,-247.7735"/>
</g>
<!-- Node37 -->
<g id="node37" class="node">
<title>Node37</title>
<g id="a_node37"><a xlink:href="../../da/dd0/classKfMatrix.html#ada76cb1d1b5ce892132a53a7170f5a62" target="_top" xlink:title="KfMatrix::Reset">
<polygon fill="none" stroke="#000000" points="400,-168.5 400,-188.5 493,-188.5 493,-168.5 400,-168.5"/>
<text text-anchor="middle" x="446.5" y="-175.5" font-family="FreeSans" font-size="10.00" fill="#000000">KfMatrix::Reset</text>
</a>
</g>
</g>
<!-- Node36&#45;&gt;Node37 -->
<g id="edge48" class="edge">
<title>Node36&#45;&gt;Node37</title>
<path fill="none" stroke="#191970" d="M324.6845,-207.4066C337.4335,-204.5742 351.2621,-201.459 364,-198.5 374.3349,-196.0992 385.3815,-193.467 395.9222,-190.9235"/>
<polygon fill="#191970" stroke="#191970" points="396.9386,-194.2785 405.8334,-188.5224 395.2905,-187.4753 396.9386,-194.2785"/>
</g>
<!-- Node38 -->
<g id="node38" class="node">
<title>Node38</title>
<g id="a_node38"><a xlink:href="../../da/dd0/classKfMatrix.html#aafc1e09214bcb73c42a2b8452f2b649a" target="_top" xlink:title="KfMatrix::KFM">
<polygon fill="none" stroke="#000000" points="529,-149.5 529,-169.5 615,-169.5 615,-149.5 529,-149.5"/>
<text text-anchor="middle" x="572" y="-156.5" font-family="FreeSans" font-size="10.00" fill="#000000">KfMatrix::KFM</text>
</a>
</g>
</g>
<!-- Node36&#45;&gt;Node38 -->
<g id="edge50" class="edge">
<title>Node36&#45;&gt;Node38</title>
<path fill="none" stroke="#191970" d="M344.0706,-207.3897C351.0399,-205.0228 357.8277,-202.1026 364,-198.5 384.6565,-186.4435 378.1513,-168.2306 400,-158.5 437.2417,-141.914 483.6791,-143.3028 518.9126,-148.2119"/>
<polygon fill="#191970" stroke="#191970" points="518.5851,-151.7024 528.9994,-149.7546 519.6435,-144.7829 518.5851,-151.7024"/>
</g>
<!-- Node37&#45;&gt;Node38 -->
<g id="edge49" class="edge">
<title>Node37&#45;&gt;Node38</title>
<path fill="none" stroke="#191970" d="M493.2316,-171.4251C501.6467,-170.1511 510.4737,-168.8147 519.0502,-167.5163"/>
<polygon fill="#191970" stroke="#191970" points="519.6003,-170.973 528.9637,-166.0155 518.5524,-164.0519 519.6003,-170.973"/>
</g>
</g>
</svg>
