<?xml version="1.0" encoding="UTF-8" standalone="no"?>
<!DOCTYPE svg PUBLIC "-//W3C//DTD SVG 1.1//EN"
 "http://www.w3.org/Graphics/SVG/1.1/DTD/svg11.dtd">
<!-- Generated by graphviz version 2.40.1 (20161225.0304)
 -->
<!-- Title: SvtxVertexEval::all_truth_points Pages: 1 -->
<svg width="785pt" height="92pt"
 viewBox="0.00 0.00 785.00 92.00" xmlns="http://www.w3.org/2000/svg" xmlns:xlink="http://www.w3.org/1999/xlink">
<g id="graph0" class="graph" transform="scale(1 1) rotate(0) translate(4 88)">
<title>SvtxVertexEval::all_truth_points</title>
<!-- Node1 -->
<g id="node1" class="node">
<title>Node1</title>
<polygon fill="#bfbfbf" stroke="#000000" points="0,-25.5 0,-57.5 111,-57.5 111,-25.5 0,-25.5"/>
<text text-anchor="start" x="8" y="-44.5" font-family="FreeSans" font-size="10.00" fill="#000000">SvtxVertexEval::all</text>
<text text-anchor="middle" x="55.5" y="-32.5" font-family="FreeSans" font-size="10.00" fill="#000000">_truth_points</text>
</g>
<!-- Node2 -->
<g id="node2" class="node">
<title>Node2</title>
<g id="a_node2"><a xlink:href="../../d4/d21/classSvtxVertexEval.html#a8d536f79d01ad909dcfbf24bada4c0bf" target="_top" xlink:title="SvtxVertexEval::all\l_vertexes_from">
<polygon fill="none" stroke="#000000" points="147,-49.5 147,-81.5 258,-81.5 258,-49.5 147,-49.5"/>
<text text-anchor="start" x="155" y="-68.5" font-family="FreeSans" font-size="10.00" fill="#000000">SvtxVertexEval::all</text>
<text text-anchor="middle" x="202.5" y="-56.5" font-family="FreeSans" font-size="10.00" fill="#000000">_vertexes_from</text>
</a>
</g>
</g>
<!-- Node1&#45;&gt;Node2 -->
<g id="edge1" class="edge">
<title>Node1&#45;&gt;Node2</title>
<path fill="none" stroke="#191970" d="M121.0775,-52.2065C129.6805,-53.6111 138.4299,-55.0396 146.847,-56.4138"/>
<polygon fill="#191970" stroke="#191970" points="121.5077,-48.7305 111.0744,-50.5734 120.3797,-55.639 121.5077,-48.7305"/>
</g>
<!-- Node6 -->
<g id="node6" class="node">
<title>Node6</title>
<g id="a_node6"><a xlink:href="../../d4/d21/classSvtxVertexEval.html#aa7e59a495f87824e3f1088d1f5436ecb" target="_top" xlink:title="SvtxVertexEval::max\l_truth_point_by_ntracks">
<polygon fill="none" stroke="#000000" points="294,-.5 294,-32.5 432,-32.5 432,-.5 294,-.5"/>
<text text-anchor="start" x="302" y="-19.5" font-family="FreeSans" font-size="10.00" fill="#000000">SvtxVertexEval::max</text>
<text text-anchor="middle" x="363" y="-7.5" font-family="FreeSans" font-size="10.00" fill="#000000">_truth_point_by_ntracks</text>
</a>
</g>
</g>
<!-- Node1&#45;&gt;Node6 -->
<g id="edge5" class="edge">
<title>Node1&#45;&gt;Node6</title>
<path fill="none" stroke="#191970" d="M121.4077,-36.1416C172.2533,-32.0079 242.387,-26.3059 293.9947,-22.1102"/>
<polygon fill="#191970" stroke="#191970" points="120.8694,-32.6738 111.1859,-36.9727 121.4367,-39.6508 120.8694,-32.6738"/>
</g>
<!-- Node3 -->
<g id="node3" class="node">
<title>Node3</title>
<g id="a_node3"><a xlink:href="../../d4/d21/classSvtxVertexEval.html#ac76bf94cd6531f13664e0d56a052dbfe" target="_top" xlink:title="SvtxVertexEval::best\l_vertex_from">
<polygon fill="none" stroke="#000000" points="302,-51.5 302,-83.5 424,-83.5 424,-51.5 302,-51.5"/>
<text text-anchor="start" x="310" y="-70.5" font-family="FreeSans" font-size="10.00" fill="#000000">SvtxVertexEval::best</text>
<text text-anchor="middle" x="363" y="-58.5" font-family="FreeSans" font-size="10.00" fill="#000000">_vertex_from</text>
</a>
</g>
</g>
<!-- Node2&#45;&gt;Node3 -->
<g id="edge2" class="edge">
<title>Node2&#45;&gt;Node3</title>
<path fill="none" stroke="#191970" d="M268.2752,-66.3196C279.4083,-66.4584 290.9258,-66.6019 301.932,-66.739"/>
<polygon fill="#191970" stroke="#191970" points="268.2275,-62.8189 258.1847,-66.1939 268.1403,-69.8183 268.2275,-62.8189"/>
</g>
<!-- Node4 -->
<g id="node4" class="node">
<title>Node4</title>
<g id="a_node4"><a xlink:href="../../d6/d11/classSvtxEvaluator.html#ace95fef2b7b4ad8b797f6695e053dd6e" target="_top" xlink:title="dump the evaluator information into ntuple for external analysis">
<polygon fill="none" stroke="#000000" points="468,-25.5 468,-57.5 609,-57.5 609,-25.5 468,-25.5"/>
<text text-anchor="start" x="476" y="-44.5" font-family="FreeSans" font-size="10.00" fill="#000000">SvtxEvaluator::fillOutput</text>
<text text-anchor="middle" x="538.5" y="-32.5" font-family="FreeSans" font-size="10.00" fill="#000000">Ntuples</text>
</a>
</g>
</g>
<!-- Node3&#45;&gt;Node4 -->
<g id="edge3" class="edge">
<title>Node3&#45;&gt;Node4</title>
<path fill="none" stroke="#191970" d="M434.3931,-56.9232C445.427,-55.2886 456.8187,-53.6009 467.8366,-51.9687"/>
<polygon fill="#191970" stroke="#191970" points="433.7605,-53.4787 424.3814,-58.4065 434.7864,-60.4031 433.7605,-53.4787"/>
</g>
<!-- Node5 -->
<g id="node5" class="node">
<title>Node5</title>
<g id="a_node5"><a xlink:href="../../d6/d11/classSvtxEvaluator.html#ac66ea4145deb621d9e4fb38cf852dc33" target="_top" xlink:title="SvtxEvaluator::process\l_event">
<polygon fill="none" stroke="#000000" points="645,-25.5 645,-57.5 777,-57.5 777,-25.5 645,-25.5"/>
<text text-anchor="start" x="653" y="-44.5" font-family="FreeSans" font-size="10.00" fill="#000000">SvtxEvaluator::process</text>
<text text-anchor="middle" x="711" y="-32.5" font-family="FreeSans" font-size="10.00" fill="#000000">_event</text>
</a>
</g>
</g>
<!-- Node4&#45;&gt;Node5 -->
<g id="edge4" class="edge">
<title>Node4&#45;&gt;Node5</title>
<path fill="none" stroke="#191970" d="M619.2055,-41.5C627.8091,-41.5 636.4867,-41.5 644.8937,-41.5"/>
<polygon fill="#191970" stroke="#191970" points="619.1601,-38.0001 609.1601,-41.5 619.16,-45.0001 619.1601,-38.0001"/>
</g>
<!-- Node6&#45;&gt;Node4 -->
<g id="edge6" class="edge">
<title>Node6&#45;&gt;Node4</title>
<path fill="none" stroke="#191970" d="M442.0745,-27.7642C450.6227,-28.9819 459.2818,-30.2154 467.723,-31.4178"/>
<polygon fill="#191970" stroke="#191970" points="442.504,-24.2901 432.1103,-26.3448 441.5168,-31.2201 442.504,-24.2901"/>
</g>
</g>
</svg>
