<?xml version="1.0" encoding="UTF-8" standalone="no"?>
<!DOCTYPE svg PUBLIC "-//W3C//DTD SVG 1.1//EN"
 "http://www.w3.org/Graphics/SVG/1.1/DTD/svg11.dtd">
<!-- Generated by graphviz version 2.40.1 (20161225.0304)
 -->
<!-- Title: SvtxVertexEval::max_truth_point_by_ntracks Pages: 1 -->
<svg width="491pt" height="41pt"
 viewBox="0.00 0.00 491.00 41.00" xmlns="http://www.w3.org/2000/svg" xmlns:xlink="http://www.w3.org/1999/xlink">
<g id="graph0" class="graph" transform="scale(1 1) rotate(0) translate(4 37)">
<title>SvtxVertexEval::max_truth_point_by_ntracks</title>
<!-- Node1 -->
<g id="node1" class="node">
<title>Node1</title>
<polygon fill="#bfbfbf" stroke="#000000" points="0,-.5 0,-32.5 138,-32.5 138,-.5 0,-.5"/>
<text text-anchor="start" x="8" y="-19.5" font-family="FreeSans" font-size="10.00" fill="#000000">SvtxVertexEval::max</text>
<text text-anchor="middle" x="69" y="-7.5" font-family="FreeSans" font-size="10.00" fill="#000000">_truth_point_by_ntracks</text>
</g>
<!-- Node2 -->
<g id="node2" class="node">
<title>Node2</title>
<g id="a_node2"><a xlink:href="../../d6/d11/classSvtxEvaluator.html#ace95fef2b7b4ad8b797f6695e053dd6e" target="_top" xlink:title="dump the evaluator information into ntuple for external analysis">
<polygon fill="none" stroke="#000000" points="174,-.5 174,-32.5 315,-32.5 315,-.5 174,-.5"/>
<text text-anchor="start" x="182" y="-19.5" font-family="FreeSans" font-size="10.00" fill="#000000">SvtxEvaluator::fillOutput</text>
<text text-anchor="middle" x="244.5" y="-7.5" font-family="FreeSans" font-size="10.00" fill="#000000">Ntuples</text>
</a>
</g>
</g>
<!-- Node1&#45;&gt;Node2 -->
<g id="edge1" class="edge">
<title>Node1&#45;&gt;Node2</title>
<path fill="none" stroke="#191970" d="M148.3533,-16.5C156.8109,-16.5 165.3736,-16.5 173.723,-16.5"/>
<polygon fill="#191970" stroke="#191970" points="148.1104,-13.0001 138.1103,-16.5 148.1103,-20.0001 148.1104,-13.0001"/>
</g>
<!-- Node3 -->
<g id="node3" class="node">
<title>Node3</title>
<g id="a_node3"><a xlink:href="../../d6/d11/classSvtxEvaluator.html#ac66ea4145deb621d9e4fb38cf852dc33" target="_top" xlink:title="SvtxEvaluator::process\l_event">
<polygon fill="none" stroke="#000000" points="351,-.5 351,-32.5 483,-32.5 483,-.5 351,-.5"/>
<text text-anchor="start" x="359" y="-19.5" font-family="FreeSans" font-size="10.00" fill="#000000">SvtxEvaluator::process</text>
<text text-anchor="middle" x="417" y="-7.5" font-family="FreeSans" font-size="10.00" fill="#000000">_event</text>
</a>
</g>
</g>
<!-- Node2&#45;&gt;Node3 -->
<g id="edge2" class="edge">
<title>Node2&#45;&gt;Node3</title>
<path fill="none" stroke="#191970" d="M325.2055,-16.5C333.8091,-16.5 342.4867,-16.5 350.8937,-16.5"/>
<polygon fill="#191970" stroke="#191970" points="325.1601,-13.0001 315.1601,-16.5 325.16,-20.0001 325.1601,-13.0001"/>
</g>
</g>
</svg>
