<?xml version="1.0" encoding="UTF-8" standalone="no"?>
<!DOCTYPE svg PUBLIC "-//W3C//DTD SVG 1.1//EN"
 "http://www.w3.org/Graphics/SVG/1.1/DTD/svg11.dtd">
<!-- Generated by graphviz version 2.40.1 (20161225.0304)
 -->
<!-- Title: PHG4Subsystem::OverlapCheck Pages: 1 -->
<svg width="576pt" height="301pt"
 viewBox="0.00 0.00 576.00 301.00" xmlns="http://www.w3.org/2000/svg" xmlns:xlink="http://www.w3.org/1999/xlink">
<g id="graph0" class="graph" transform="scale(1 1) rotate(0) translate(4 297)">
<title>PHG4Subsystem::OverlapCheck</title>
<!-- Node1 -->
<g id="node1" class="node">
<title>Node1</title>
<polygon fill="#bfbfbf" stroke="#000000" points="0,-136.5 0,-156.5 178,-156.5 178,-136.5 0,-136.5"/>
<text text-anchor="middle" x="89" y="-143.5" font-family="FreeSans" font-size="10.00" fill="#000000">PHG4Subsystem::OverlapCheck</text>
</g>
<!-- Node2 -->
<g id="node2" class="node">
<title>Node2</title>
<g id="a_node2"><a xlink:href="../../de/d75/G4__Aerogel_8C.html#a400136ba4928234f7c9990b4065328f1" target="_top" xlink:title="AerogelSetup">
<polygon fill="none" stroke="#000000" points="387,-234.5 387,-254.5 472,-254.5 472,-234.5 387,-234.5"/>
<text text-anchor="middle" x="429.5" y="-241.5" font-family="FreeSans" font-size="10.00" fill="#000000">AerogelSetup</text>
</a>
</g>
</g>
<!-- Node1&#45;&gt;Node2 -->
<g id="edge1" class="edge">
<title>Node1&#45;&gt;Node2</title>
<path fill="none" stroke="#191970" d="M113.997,-161.6646C138.586,-175.9037 177.623,-196.7277 214,-208.5 272.2836,-227.3618 342.7951,-236.7527 386.9105,-241.1156"/>
<polygon fill="#191970" stroke="#191970" points="115.7108,-158.6121 105.3161,-156.5623 112.1638,-164.6469 115.7108,-158.6121"/>
</g>
<!-- Node4 -->
<g id="node4" class="node">
<title>Node4</title>
<g id="a_node4"><a xlink:href="../../d8/d50/G4__DIRC_8C.html#acbdf429e4e41a2057e053691cc0b4128" target="_top" xlink:title="DIRCSetup">
<polygon fill="none" stroke="#000000" points="394.5,-195.5 394.5,-215.5 464.5,-215.5 464.5,-195.5 394.5,-195.5"/>
<text text-anchor="middle" x="429.5" y="-202.5" font-family="FreeSans" font-size="10.00" fill="#000000">DIRCSetup</text>
</a>
</g>
</g>
<!-- Node1&#45;&gt;Node4 -->
<g id="edge3" class="edge">
<title>Node1&#45;&gt;Node4</title>
<path fill="none" stroke="#191970" d="M125.0634,-159.9648C149.7555,-168.6325 183.4366,-179.3845 214,-185.5 276.8184,-198.0696 351.5515,-202.7676 394.4638,-204.5037"/>
<polygon fill="#191970" stroke="#191970" points="125.9955,-156.5814 115.4009,-156.5184 123.6438,-163.1746 125.9955,-156.5814"/>
</g>
<!-- Node5 -->
<g id="node5" class="node">
<title>Node5</title>
<g id="a_node5"><a xlink:href="../../d1/d38/G4__EEMC_8C.html#a4d3281225ec2eab91dac27095f61eaa3" target="_top" xlink:title="EEMCSetup">
<polygon fill="none" stroke="#000000" points="245.5,-156.5 245.5,-176.5 319.5,-176.5 319.5,-156.5 245.5,-156.5"/>
<text text-anchor="middle" x="282.5" y="-163.5" font-family="FreeSans" font-size="10.00" fill="#000000">EEMCSetup</text>
</a>
</g>
</g>
<!-- Node1&#45;&gt;Node5 -->
<g id="edge5" class="edge">
<title>Node1&#45;&gt;Node5</title>
<path fill="none" stroke="#191970" d="M188.0836,-156.7412C208.422,-158.8434 228.6229,-160.9313 245.0882,-162.6332"/>
<polygon fill="#191970" stroke="#191970" points="188.4109,-153.2565 178.104,-155.7097 187.6912,-160.2194 188.4109,-153.2565"/>
</g>
<!-- Node6 -->
<g id="node6" class="node">
<title>Node6</title>
<g id="a_node6"><a xlink:href="../../da/d9b/G4__FGEM__fsPHENIX_8C.html#ac44d1ef8dd3931eed6dd2ae0110ed8d1" target="_top" xlink:title="FGEMSetup">
<polygon fill="none" stroke="#000000" points="392.5,-117.5 392.5,-137.5 466.5,-137.5 466.5,-117.5 392.5,-117.5"/>
<text text-anchor="middle" x="429.5" y="-124.5" font-family="FreeSans" font-size="10.00" fill="#000000">FGEMSetup</text>
</a>
</g>
</g>
<!-- Node1&#45;&gt;Node6 -->
<g id="edge7" class="edge">
<title>Node1&#45;&gt;Node6</title>
<path fill="none" stroke="#191970" d="M188.3977,-140.9536C256.8029,-137.1366 343.7821,-132.2831 392.3628,-129.5723"/>
<polygon fill="#191970" stroke="#191970" points="187.807,-137.481 178.0176,-141.5328 188.1971,-144.4701 187.807,-137.481"/>
</g>
<!-- Node7 -->
<g id="node7" class="node">
<title>Node7</title>
<g id="a_node7"><a xlink:href="../../d8/dc2/G4__FHCAL_8C.html#ac9e5dc66d440deeaa29ff8e40e58c532" target="_top" xlink:title="FHCALSetup">
<polygon fill="none" stroke="#000000" points="243,-39.5 243,-59.5 322,-59.5 322,-39.5 243,-39.5"/>
<text text-anchor="middle" x="282.5" y="-46.5" font-family="FreeSans" font-size="10.00" fill="#000000">FHCALSetup</text>
</a>
</g>
</g>
<!-- Node1&#45;&gt;Node7 -->
<g id="edge9" class="edge">
<title>Node1&#45;&gt;Node7</title>
<path fill="none" stroke="#191970" d="M110.5396,-130.3564C134.6385,-112.9563 175.3793,-85.4801 214,-68.5 223.0381,-64.5263 233.1168,-61.1807 242.7032,-58.4586"/>
<polygon fill="#191970" stroke="#191970" points="108.1615,-127.7595 102.1574,-136.4889 112.2947,-133.409 108.1615,-127.7595"/>
</g>
<!-- Node8 -->
<g id="node8" class="node">
<title>Node8</title>
<g id="a_node8"><a xlink:href="../../da/d9b/G4__FGEM__fsPHENIX_8C.html#a75ea364f15ac3286c935ec8dc4cc2830" target="_top" xlink:title="make_GEM_station">
<polygon fill="none" stroke="#000000" points="227,-78.5 227,-98.5 338,-98.5 338,-78.5 227,-78.5"/>
<text text-anchor="middle" x="282.5" y="-85.5" font-family="FreeSans" font-size="10.00" fill="#000000">make_GEM_station</text>
</a>
</g>
</g>
<!-- Node1&#45;&gt;Node8 -->
<g id="edge11" class="edge">
<title>Node1&#45;&gt;Node8</title>
<path fill="none" stroke="#191970" d="M132.7027,-133.4005C167.8988,-122.8507 216.6521,-108.2374 248.8571,-98.5842"/>
<polygon fill="#191970" stroke="#191970" points="131.2791,-130.1733 122.7051,-136.3972 133.289,-136.8785 131.2791,-130.1733"/>
</g>
<!-- Node10 -->
<g id="node10" class="node">
<title>Node10</title>
<g id="a_node10"><a xlink:href="../../de/d55/G4__GEM__EIC_8C.html#a5c9797b8007dda401ba2b3949d5647eb" target="_top" xlink:title="make_LANL_FST_station">
<polygon fill="none" stroke="#000000" points="214,-.5 214,-20.5 351,-20.5 351,-.5 214,-.5"/>
<text text-anchor="middle" x="282.5" y="-7.5" font-family="FreeSans" font-size="10.00" fill="#000000">make_LANL_FST_station</text>
</a>
</g>
</g>
<!-- Node1&#45;&gt;Node10 -->
<g id="edge15" class="edge">
<title>Node1&#45;&gt;Node10</title>
<path fill="none" stroke="#191970" d="M103.2842,-128.4773C124.6479,-102.7281 167.4238,-55.6423 214,-29.5 220.3496,-25.9361 227.4109,-23.0057 234.5185,-20.6062"/>
<polygon fill="#191970" stroke="#191970" points="100.4887,-126.3673 96.8854,-136.3306 105.9154,-130.789 100.4887,-126.3673"/>
</g>
<!-- Node12 -->
<g id="node12" class="node">
<title>Node12</title>
<g id="a_node12"><a xlink:href="../../df/d24/G4__RICH_8C.html#ad63ce85a564451f75078970a1511d8aa" target="_top" xlink:title="RICHSetup">
<polygon fill="none" stroke="#000000" points="247.5,-272.5 247.5,-292.5 317.5,-292.5 317.5,-272.5 247.5,-272.5"/>
<text text-anchor="middle" x="282.5" y="-279.5" font-family="FreeSans" font-size="10.00" fill="#000000">RICHSetup</text>
</a>
</g>
</g>
<!-- Node1&#45;&gt;Node12 -->
<g id="edge17" class="edge">
<title>Node1&#45;&gt;Node12</title>
<path fill="none" stroke="#191970" d="M105.0565,-164.4844C127.3958,-188.5671 170.0816,-231.2906 214,-257.5 224.2187,-263.5983 236.1687,-268.5888 247.2008,-272.4629"/>
<polygon fill="#191970" stroke="#191970" points="107.3644,-161.8217 98.0346,-156.8011 102.1972,-166.544 107.3644,-161.8217"/>
</g>
<!-- Node3 -->
<g id="node3" class="node">
<title>Node3</title>
<g id="a_node3"><a xlink:href="../../d6/d6e/G4Setup__EICDetector_8C.html#af15ee6d4dd2044e228fb457a2ec81b4c" target="_top" xlink:title="G4Setup">
<polygon fill="none" stroke="#000000" points="508,-156.5 508,-176.5 568,-176.5 568,-156.5 508,-156.5"/>
<text text-anchor="middle" x="538" y="-163.5" font-family="FreeSans" font-size="10.00" fill="#000000">G4Setup</text>
</a>
</g>
</g>
<!-- Node2&#45;&gt;Node3 -->
<g id="edge2" class="edge">
<title>Node2&#45;&gt;Node3</title>
<path fill="none" stroke="#191970" d="M463.1627,-229.7542C466.2137,-228.0925 469.2041,-226.3334 472,-224.5 493.6853,-210.2798 515.6744,-189.3691 528.0011,-176.9244"/>
<polygon fill="#191970" stroke="#191970" points="461.2956,-226.7767 453.9622,-234.4234 464.4635,-233.0189 461.2956,-226.7767"/>
</g>
<!-- Node4&#45;&gt;Node3 -->
<g id="edge4" class="edge">
<title>Node4&#45;&gt;Node3</title>
<path fill="none" stroke="#191970" d="M466.9346,-192.0442C481.1185,-186.9459 497.0043,-181.2358 510.1532,-176.5094"/>
<polygon fill="#191970" stroke="#191970" points="465.6681,-188.7802 457.4414,-195.4565 468.0359,-195.3676 465.6681,-188.7802"/>
</g>
<!-- Node5&#45;&gt;Node3 -->
<g id="edge6" class="edge">
<title>Node5&#45;&gt;Node3</title>
<path fill="none" stroke="#191970" d="M329.9712,-166.5C382.071,-166.5 464.1223,-166.5 507.9868,-166.5"/>
<polygon fill="#191970" stroke="#191970" points="329.6519,-163.0001 319.6519,-166.5 329.6519,-170.0001 329.6519,-163.0001"/>
</g>
<!-- Node6&#45;&gt;Node3 -->
<g id="edge8" class="edge">
<title>Node6&#45;&gt;Node3</title>
<path fill="none" stroke="#191970" d="M466.9346,-140.9558C481.1185,-146.0541 497.0043,-151.7642 510.1532,-156.4906"/>
<polygon fill="#191970" stroke="#191970" points="468.0359,-137.6324 457.4414,-137.5435 465.6681,-144.2198 468.0359,-137.6324"/>
</g>
<!-- Node7&#45;&gt;Node3 -->
<g id="edge10" class="edge">
<title>Node7&#45;&gt;Node3</title>
<path fill="none" stroke="#191970" d="M332.3358,-43.4083C372.7933,-40.9382 429.8422,-43.2858 472,-68.5 506.5042,-89.1367 526.8618,-135.6192 534.5091,-156.2743"/>
<polygon fill="#191970" stroke="#191970" points="331.8868,-39.9317 322.1684,-44.151 332.3969,-46.9131 331.8868,-39.9317"/>
</g>
<!-- Node8&#45;&gt;Node6 -->
<g id="edge14" class="edge">
<title>Node8&#45;&gt;Node6</title>
<path fill="none" stroke="#191970" d="M330.2677,-101.1731C350.3888,-106.5113 373.4544,-112.6308 392.281,-117.6256"/>
<polygon fill="#191970" stroke="#191970" points="330.9193,-97.7249 320.3562,-98.5435 329.1242,-104.4909 330.9193,-97.7249"/>
</g>
<!-- Node9 -->
<g id="node9" class="node">
<title>Node9</title>
<g id="a_node9"><a xlink:href="../../de/d55/G4__GEM__EIC_8C.html#a04d0a097375d8e3f53970b906caf0d75" target="_top" xlink:title="EGEMSetup">
<polygon fill="none" stroke="#000000" points="392,-78.5 392,-98.5 467,-98.5 467,-78.5 392,-78.5"/>
<text text-anchor="middle" x="429.5" y="-85.5" font-family="FreeSans" font-size="10.00" fill="#000000">EGEMSetup</text>
</a>
</g>
</g>
<!-- Node8&#45;&gt;Node9 -->
<g id="edge12" class="edge">
<title>Node8&#45;&gt;Node9</title>
<path fill="none" stroke="#191970" d="M348.2646,-88.5C363.126,-88.5 378.4139,-88.5 391.6618,-88.5"/>
<polygon fill="#191970" stroke="#191970" points="348.0744,-85.0001 338.0744,-88.5 348.0744,-92.0001 348.0744,-85.0001"/>
</g>
<!-- Node9&#45;&gt;Node3 -->
<g id="edge13" class="edge">
<title>Node9&#45;&gt;Node3</title>
<path fill="none" stroke="#191970" d="M464.388,-103.0178C467.0167,-104.4364 469.5836,-105.9343 472,-107.5 494.1851,-121.8748 516.3524,-143.567 528.5112,-156.2548"/>
<polygon fill="#191970" stroke="#191970" points="465.8534,-99.8377 455.3412,-98.5166 462.7352,-106.1048 465.8534,-99.8377"/>
</g>
<!-- Node11 -->
<g id="node11" class="node">
<title>Node11</title>
<g id="a_node11"><a xlink:href="../../de/d55/G4__GEM__EIC_8C.html#a7be3dff0a6b7e1a41e670fcb9341b22b" target="_top" xlink:title="FGEMSetup">
<polygon fill="none" stroke="#000000" points="392.5,-.5 392.5,-20.5 466.5,-20.5 466.5,-.5 392.5,-.5"/>
<text text-anchor="middle" x="429.5" y="-7.5" font-family="FreeSans" font-size="10.00" fill="#000000">FGEMSetup</text>
</a>
</g>
</g>
<!-- Node10&#45;&gt;Node11 -->
<g id="edge16" class="edge">
<title>Node10&#45;&gt;Node11</title>
<path fill="none" stroke="#191970" d="M361.5923,-10.5C372.3434,-10.5 382.934,-10.5 392.4368,-10.5"/>
<polygon fill="#191970" stroke="#191970" points="361.2656,-7.0001 351.2656,-10.5 361.2656,-14.0001 361.2656,-7.0001"/>
</g>
<!-- Node12&#45;&gt;Node3 -->
<g id="edge18" class="edge">
<title>Node12&#45;&gt;Node3</title>
<path fill="none" stroke="#191970" d="M327.8674,-288.2478C368.4844,-291.1218 428.2138,-289.5468 472,-263.5 506.3111,-243.0896 526.7713,-197.073 534.4773,-176.6239"/>
<polygon fill="#191970" stroke="#191970" points="327.9723,-284.7447 317.718,-287.4094 327.3959,-291.7209 327.9723,-284.7447"/>
</g>
</g>
</svg>
