<?xml version="1.0" encoding="UTF-8" standalone="no"?>
<!DOCTYPE svg PUBLIC "-//W3C//DTD SVG 1.1//EN"
 "http://www.w3.org/Graphics/SVG/1.1/DTD/svg11.dtd">
<!-- Generated by graphviz version 2.40.1 (20161225.0304)
 -->
<!-- Title: PHG4Subsystem::CanBeMotherSubsystem Pages: 1 -->
<svg width="783pt" height="224pt"
 viewBox="0.00 0.00 783.00 224.00" xmlns="http://www.w3.org/2000/svg" xmlns:xlink="http://www.w3.org/1999/xlink">
<g id="graph0" class="graph" transform="scale(1 1) rotate(0) translate(4 220)">
<title>PHG4Subsystem::CanBeMotherSubsystem</title>
<!-- Node1 -->
<g id="node1" class="node">
<title>Node1</title>
<polygon fill="#bfbfbf" stroke="#000000" points="0,-91.5 0,-123.5 176,-123.5 176,-91.5 0,-91.5"/>
<text text-anchor="start" x="8" y="-110.5" font-family="FreeSans" font-size="10.00" fill="#000000">PHG4Subsystem::CanBeMother</text>
<text text-anchor="middle" x="88" y="-98.5" font-family="FreeSans" font-size="10.00" fill="#000000">Subsystem</text>
</g>
<!-- Node2 -->
<g id="node2" class="node">
<title>Node2</title>
<g id="a_node2"><a xlink:href="../../db/df7/classPHG4Subsystem.html#ac78574e8db50df21c354ebb23c779dab" target="_top" xlink:title="PHG4Subsystem::SetMother\lSubsystem">
<polygon fill="none" stroke="#000000" points="212,-91.5 212,-123.5 371,-123.5 371,-91.5 212,-91.5"/>
<text text-anchor="start" x="220" y="-110.5" font-family="FreeSans" font-size="10.00" fill="#000000">PHG4Subsystem::SetMother</text>
<text text-anchor="middle" x="291.5" y="-98.5" font-family="FreeSans" font-size="10.00" fill="#000000">Subsystem</text>
</a>
</g>
</g>
<!-- Node1&#45;&gt;Node2 -->
<g id="edge1" class="edge">
<title>Node1&#45;&gt;Node2</title>
<path fill="none" stroke="#191970" d="M186.1805,-107.5C194.8155,-107.5 203.4848,-107.5 211.9393,-107.5"/>
<polygon fill="#191970" stroke="#191970" points="186.0745,-104.0001 176.0745,-107.5 186.0745,-111.0001 186.0745,-104.0001"/>
</g>
<!-- Node3 -->
<g id="node3" class="node">
<title>Node3</title>
<g id="a_node3"><a xlink:href="../../de/d43/G4__EndCap__Hadron_8C.html#a1e15e0cd45d806eb1cbd809646973159" target="_top" xlink:title="EndCap_Hadron">
<polygon fill="none" stroke="#000000" points="407,-97.5 407,-117.5 504,-117.5 504,-97.5 407,-97.5"/>
<text text-anchor="middle" x="455.5" y="-104.5" font-family="FreeSans" font-size="10.00" fill="#000000">EndCap_Hadron</text>
</a>
</g>
</g>
<!-- Node2&#45;&gt;Node3 -->
<g id="edge2" class="edge">
<title>Node2&#45;&gt;Node3</title>
<path fill="none" stroke="#191970" d="M381.1336,-107.5C389.997,-107.5 398.7404,-107.5 406.9447,-107.5"/>
<polygon fill="#191970" stroke="#191970" points="381.098,-104.0001 371.098,-107.5 381.0979,-111.0001 381.098,-104.0001"/>
</g>
<!-- Node4 -->
<g id="node4" class="node">
<title>Node4</title>
<g id="a_node4"><a xlink:href="../../d0/dd0/G4Setup__JLeic_8C.html#ae51ed477963c36fe17047cf934f36ef0" target="_top" xlink:title="G4Setup">
<polygon fill="none" stroke="#000000" points="540,-97.5 540,-117.5 600,-117.5 600,-97.5 540,-97.5"/>
<text text-anchor="middle" x="570" y="-104.5" font-family="FreeSans" font-size="10.00" fill="#000000">G4Setup</text>
</a>
</g>
</g>
<!-- Node3&#45;&gt;Node4 -->
<g id="edge3" class="edge">
<title>Node3&#45;&gt;Node4</title>
<path fill="none" stroke="#191970" d="M514.1322,-107.5C523.0792,-107.5 531.9811,-107.5 539.9632,-107.5"/>
<polygon fill="#191970" stroke="#191970" points="514.0583,-104.0001 504.0583,-107.5 514.0583,-111.0001 514.0583,-104.0001"/>
</g>
<!-- Node5 -->
<g id="node5" class="node">
<title>Node5</title>
<g id="a_node5"><a xlink:href="../../db/dc0/Fun4All__AnaTutorial_8C.html#a8c484ea6d7477278e981ef056b17eac9" target="_top" xlink:title="Fun4All_AnaTutorial">
<polygon fill="none" stroke="#000000" points="648,-195.5 648,-215.5 763,-215.5 763,-195.5 648,-195.5"/>
<text text-anchor="middle" x="705.5" y="-202.5" font-family="FreeSans" font-size="10.00" fill="#000000">Fun4All_AnaTutorial</text>
</a>
</g>
</g>
<!-- Node4&#45;&gt;Node5 -->
<g id="edge4" class="edge">
<title>Node4&#45;&gt;Node5</title>
<path fill="none" stroke="#191970" d="M580.8951,-126.2352C592.3602,-144.3079 612.0528,-171.1223 636,-186.5 641.6837,-190.1498 648.062,-193.1053 654.589,-195.4969"/>
<polygon fill="#191970" stroke="#191970" points="583.8724,-124.3949 575.6706,-117.688 577.8998,-128.0457 583.8724,-124.3949"/>
</g>
<!-- Node6 -->
<g id="node6" class="node">
<title>Node6</title>
<g id="a_node6"><a xlink:href="../../dd/d28/Fun4All__AnaTutorial__Jets_8C.html#a55eaaeb770a3177f917012de87877d28" target="_top" xlink:title="Fun4All_AnaTutorial_Jets">
<polygon fill="none" stroke="#000000" points="636,-156.5 636,-176.5 775,-176.5 775,-156.5 636,-156.5"/>
<text text-anchor="middle" x="705.5" y="-163.5" font-family="FreeSans" font-size="10.00" fill="#000000">Fun4All_AnaTutorial_Jets</text>
</a>
</g>
</g>
<!-- Node4&#45;&gt;Node6 -->
<g id="edge5" class="edge">
<title>Node4&#45;&gt;Node6</title>
<path fill="none" stroke="#191970" d="M592.3948,-123.2207C604.7938,-131.3629 620.7452,-140.9447 636,-147.5 644.0448,-150.957 652.8865,-153.9441 661.4877,-156.4597"/>
<polygon fill="#191970" stroke="#191970" points="594.3059,-120.2881 584.055,-117.6103 590.3986,-126.0961 594.3059,-120.2881"/>
</g>
<!-- Node7 -->
<g id="node7" class="node">
<title>Node7</title>
<g id="a_node7"><a xlink:href="../../da/d02/Fun4All__G4__EICDetector_8C.html#afbe82cefa1d1fd031d9a8586b7bb68c6" target="_top" xlink:title="Fun4All_G4_EICDetector">
<polygon fill="none" stroke="#000000" points="636,-117.5 636,-137.5 775,-137.5 775,-117.5 636,-117.5"/>
<text text-anchor="middle" x="705.5" y="-124.5" font-family="FreeSans" font-size="10.00" fill="#000000">Fun4All_G4_EICDetector</text>
</a>
</g>
</g>
<!-- Node4&#45;&gt;Node7 -->
<g id="edge6" class="edge">
<title>Node4&#45;&gt;Node7</title>
<path fill="none" stroke="#191970" d="M610.1929,-113.4325C618.8219,-114.7062 628.1699,-116.086 637.5236,-117.4666"/>
<polygon fill="#191970" stroke="#191970" points="610.4758,-109.9364 600.0718,-111.9386 609.4536,-116.8614 610.4758,-109.9364"/>
</g>
<!-- Node8 -->
<g id="node8" class="node">
<title>Node8</title>
<g id="a_node8"><a xlink:href="../../d7/d9e/Fun4All__G4__fsPHENIX_8C.html#a72c444217210a14ab1b4e66d9818b1ff" target="_top" xlink:title="Fun4All_G4_fsPHENIX">
<polygon fill="none" stroke="#000000" points="643.5,-78.5 643.5,-98.5 767.5,-98.5 767.5,-78.5 643.5,-78.5"/>
<text text-anchor="middle" x="705.5" y="-85.5" font-family="FreeSans" font-size="10.00" fill="#000000">Fun4All_G4_fsPHENIX</text>
</a>
</g>
</g>
<!-- Node4&#45;&gt;Node8 -->
<g id="edge7" class="edge">
<title>Node4&#45;&gt;Node8</title>
<path fill="none" stroke="#191970" d="M610.1074,-101.8761C620.5416,-100.413 632.0316,-98.8018 643.3144,-97.2197"/>
<polygon fill="#191970" stroke="#191970" points="609.4889,-98.4285 600.0718,-103.2833 610.461,-105.3607 609.4889,-98.4285"/>
</g>
<!-- Node9 -->
<g id="node9" class="node">
<title>Node9</title>
<g id="a_node9"><a xlink:href="../../d0/d87/Fun4All__G4__JLeic_8C.html#a66e8fc0b01ee0a8e805c7b99c4698974" target="_top" xlink:title="Fun4All_G4_JLeic">
<polygon fill="none" stroke="#000000" points="655,-39.5 655,-59.5 756,-59.5 756,-39.5 655,-39.5"/>
<text text-anchor="middle" x="705.5" y="-46.5" font-family="FreeSans" font-size="10.00" fill="#000000">Fun4All_G4_JLeic</text>
</a>
</g>
</g>
<!-- Node4&#45;&gt;Node9 -->
<g id="edge8" class="edge">
<title>Node4&#45;&gt;Node9</title>
<path fill="none" stroke="#191970" d="M593.8672,-91.8801C606.0999,-84.3663 621.4514,-75.6734 636,-69.5 645.0153,-65.6745 654.989,-62.3235 664.5,-59.513"/>
<polygon fill="#191970" stroke="#191970" points="591.7909,-89.0511 585.1855,-97.3348 595.515,-94.9783 591.7909,-89.0511"/>
</g>
<!-- Node10 -->
<g id="node10" class="node">
<title>Node10</title>
<g id="a_node10"><a xlink:href="../../d0/d13/Fun4All__G4__sPHENIX_8C.html#a536fa7366e3aeaf273cca94ced704c46" target="_top" xlink:title="Fun4All_G4_sPHENIX">
<polygon fill="none" stroke="#000000" points="645,-.5 645,-20.5 766,-20.5 766,-.5 645,-.5"/>
<text text-anchor="middle" x="705.5" y="-7.5" font-family="FreeSans" font-size="10.00" fill="#000000">Fun4All_G4_sPHENIX</text>
</a>
</g>
</g>
<!-- Node4&#45;&gt;Node10 -->
<g id="edge9" class="edge">
<title>Node4&#45;&gt;Node10</title>
<path fill="none" stroke="#191970" d="M581.5577,-88.544C593.206,-70.999 612.7546,-45.4385 636,-30.5 642.3375,-26.4272 649.5221,-23.1649 656.8085,-20.5569"/>
<polygon fill="#191970" stroke="#191970" points="578.366,-87.0383 575.9258,-97.3483 584.2628,-90.8103 578.366,-87.0383"/>
</g>
</g>
</svg>
