<?xml version="1.0" encoding="UTF-8" standalone="no"?>
<!DOCTYPE svg PUBLIC "-//W3C//DTD SVG 1.1//EN"
 "http://www.w3.org/Graphics/SVG/1.1/DTD/svg11.dtd">
<!-- Generated by graphviz version 2.40.1 (20161225.0304)
 -->
<!-- Title: PHG4Subsystem::GetTrackingAction Pages: 1 -->
<svg width="684pt" height="275pt"
 viewBox="0.00 0.00 684.00 275.00" xmlns="http://www.w3.org/2000/svg" xmlns:xlink="http://www.w3.org/1999/xlink">
<g id="graph0" class="graph" transform="scale(1 1) rotate(0) translate(4 271)">
<title>PHG4Subsystem::GetTrackingAction</title>
<!-- Node1 -->
<g id="node1" class="node">
<title>Node1</title>
<polygon fill="#bfbfbf" stroke="#000000" points="0,-72.5 0,-104.5 167,-104.5 167,-72.5 0,-72.5"/>
<text text-anchor="start" x="8" y="-91.5" font-family="FreeSans" font-size="10.00" fill="#000000">PHG4Subsystem::GetTracking</text>
<text text-anchor="middle" x="83.5" y="-79.5" font-family="FreeSans" font-size="10.00" fill="#000000">Action</text>
</g>
<!-- Node2 -->
<g id="node2" class="node">
<title>Node2</title>
<g id="a_node2"><a xlink:href="../../d0/d78/classPHG4Reco.html#a9d8228ce8682c19cd6be2f6b44ec847b" target="_top" xlink:title="PHG4Reco::InitRun">
<polygon fill="none" stroke="#000000" points="203,-78.5 203,-98.5 313,-98.5 313,-78.5 203,-78.5"/>
<text text-anchor="middle" x="258" y="-85.5" font-family="FreeSans" font-size="10.00" fill="#000000">PHG4Reco::InitRun</text>
</a>
</g>
</g>
<!-- Node1&#45;&gt;Node2 -->
<g id="edge1" class="edge">
<title>Node1&#45;&gt;Node2</title>
<path fill="none" stroke="#191970" d="M177.3581,-88.5C186.0183,-88.5 194.5912,-88.5 202.7328,-88.5"/>
<polygon fill="#191970" stroke="#191970" points="177.1723,-85.0001 167.1723,-88.5 177.1722,-92.0001 177.1723,-85.0001"/>
</g>
<!-- Node3 -->
<g id="node3" class="node">
<title>Node3</title>
<g id="a_node3"><a xlink:href="../../d5/d57/fun4all__eic__tutorials_2blob_2master_2MagneticField_2DisplayOn_8C.html#a8ac4d6fb78f920957b354f88d6195f54" target="_top" xlink:title="DisplayOn">
<polygon fill="none" stroke="#000000" points="391,-168.5 391,-188.5 459,-188.5 459,-168.5 391,-168.5"/>
<text text-anchor="middle" x="425" y="-175.5" font-family="FreeSans" font-size="10.00" fill="#000000">DisplayOn</text>
</a>
</g>
</g>
<!-- Node2&#45;&gt;Node3 -->
<g id="edge2" class="edge">
<title>Node2&#45;&gt;Node3</title>
<path fill="none" stroke="#191970" d="M275.5277,-105.8726C292.8094,-122.0497 320.6757,-145.6858 349,-159.5 361.9576,-165.8196 377.2147,-170.1633 390.6455,-173.0839"/>
<polygon fill="#191970" stroke="#191970" points="277.582,-102.9939 267.9385,-98.606 272.7409,-108.05 277.582,-102.9939"/>
</g>
<!-- Node9 -->
<g id="node9" class="node">
<title>Node9</title>
<g id="a_node9"><a xlink:href="../../d5/df2/Fun4All__EIC__Generator__Display_8C.html#a276181099936efe81415286b29f36e51" target="_top" xlink:title="Fun4All_EIC_Generator\l_Display">
<polygon fill="none" stroke="#000000" points="359,-117.5 359,-149.5 491,-149.5 491,-117.5 359,-117.5"/>
<text text-anchor="start" x="367" y="-136.5" font-family="FreeSans" font-size="10.00" fill="#000000">Fun4All_EIC_Generator</text>
<text text-anchor="middle" x="425" y="-124.5" font-family="FreeSans" font-size="10.00" fill="#000000">_Display</text>
</a>
</g>
</g>
<!-- Node2&#45;&gt;Node9 -->
<g id="edge8" class="edge">
<title>Node2&#45;&gt;Node9</title>
<path fill="none" stroke="#191970" d="M305.2325,-101.2273C323.9178,-106.2623 345.6105,-112.1076 365.3594,-117.4292"/>
<polygon fill="#191970" stroke="#191970" points="306.0443,-97.8213 295.4781,-98.5989 304.223,-104.5802 306.0443,-97.8213"/>
</g>
<!-- Node10 -->
<g id="node10" class="node">
<title>Node10</title>
<g id="a_node10"><a xlink:href="../../d4/dfa/Fun4All__Generator__Display_8C.html#af87924a94b22e18901f0d64805565f09" target="_top" xlink:title="Fun4All_Generator_Display">
<polygon fill="none" stroke="#000000" points="349,-78.5 349,-98.5 501,-98.5 501,-78.5 349,-78.5"/>
<text text-anchor="middle" x="425" y="-85.5" font-family="FreeSans" font-size="10.00" fill="#000000">Fun4All_Generator_Display</text>
</a>
</g>
</g>
<!-- Node2&#45;&gt;Node10 -->
<g id="edge9" class="edge">
<title>Node2&#45;&gt;Node10</title>
<path fill="none" stroke="#191970" d="M323.2079,-88.5C331.5826,-88.5 340.2155,-88.5 348.7467,-88.5"/>
<polygon fill="#191970" stroke="#191970" points="323.1449,-85.0001 313.1449,-88.5 323.1448,-92.0001 323.1449,-85.0001"/>
</g>
<!-- Node11 -->
<g id="node11" class="node">
<title>Node11</title>
<g id="a_node11"><a xlink:href="../../d9/d1d/matscan_8C.html#a98ccbc6135fead542f3c4d1dd6882d63" target="_top" xlink:title="matscan">
<polygon fill="none" stroke="#000000" points="395.5,-39.5 395.5,-59.5 454.5,-59.5 454.5,-39.5 395.5,-39.5"/>
<text text-anchor="middle" x="425" y="-46.5" font-family="FreeSans" font-size="10.00" fill="#000000">matscan</text>
</a>
</g>
</g>
<!-- Node2&#45;&gt;Node11 -->
<g id="edge10" class="edge">
<title>Node2&#45;&gt;Node11</title>
<path fill="none" stroke="#191970" d="M311.0032,-76.122C338.8568,-69.6173 371.959,-61.8868 395.2971,-56.4366"/>
<polygon fill="#191970" stroke="#191970" points="309.9487,-72.774 301.0066,-78.4565 311.5406,-79.5906 309.9487,-72.774"/>
</g>
<!-- Node12 -->
<g id="node12" class="node">
<title>Node12</title>
<g id="a_node12"><a xlink:href="../../d5/d57/fun4all__eic__tutorials_2blob_2master_2MagneticField_2DisplayOn_8C.html#a36f5cc4ebb7cd23dac7e492d5c38fbc0" target="_top" xlink:title="QTGui">
<polygon fill="none" stroke="#000000" points="401.5,-.5 401.5,-20.5 448.5,-20.5 448.5,-.5 401.5,-.5"/>
<text text-anchor="middle" x="425" y="-7.5" font-family="FreeSans" font-size="10.00" fill="#000000">QTGui</text>
</a>
</g>
</g>
<!-- Node2&#45;&gt;Node12 -->
<g id="edge11" class="edge">
<title>Node2&#45;&gt;Node12</title>
<path fill="none" stroke="#191970" d="M278.9107,-72.063C296.6571,-58.8428 323.2676,-40.6871 349,-29.5 365.8383,-22.1796 386.0524,-17.2962 401.3993,-14.3153"/>
<polygon fill="#191970" stroke="#191970" points="276.3335,-69.6257 270.4901,-78.4634 280.5694,-75.1986 276.3335,-69.6257"/>
</g>
<!-- Node4 -->
<g id="node4" class="node">
<title>Node4</title>
<g id="a_node4"><a xlink:href="../../db/dc0/Fun4All__AnaTutorial_8C.html#a8c484ea6d7477278e981ef056b17eac9" target="_top" xlink:title="Fun4All_AnaTutorial">
<polygon fill="none" stroke="#000000" points="549,-246.5 549,-266.5 664,-266.5 664,-246.5 549,-246.5"/>
<text text-anchor="middle" x="606.5" y="-253.5" font-family="FreeSans" font-size="10.00" fill="#000000">Fun4All_AnaTutorial</text>
</a>
</g>
</g>
<!-- Node3&#45;&gt;Node4 -->
<g id="edge3" class="edge">
<title>Node3&#45;&gt;Node4</title>
<path fill="none" stroke="#191970" d="M450.3241,-193.8899C472.5449,-206.8893 506.054,-225.2883 537,-237.5 545.6103,-240.8977 555.05,-243.9187 564.1202,-246.4969"/>
<polygon fill="#191970" stroke="#191970" points="451.9201,-190.7674 441.5323,-188.6831 448.3531,-196.7904 451.9201,-190.7674"/>
</g>
<!-- Node5 -->
<g id="node5" class="node">
<title>Node5</title>
<g id="a_node5"><a xlink:href="../../dd/d28/Fun4All__AnaTutorial__Jets_8C.html#a55eaaeb770a3177f917012de87877d28" target="_top" xlink:title="Fun4All_AnaTutorial_Jets">
<polygon fill="none" stroke="#000000" points="537,-207.5 537,-227.5 676,-227.5 676,-207.5 537,-207.5"/>
<text text-anchor="middle" x="606.5" y="-214.5" font-family="FreeSans" font-size="10.00" fill="#000000">Fun4All_AnaTutorial_Jets</text>
</a>
</g>
</g>
<!-- Node3&#45;&gt;Node5 -->
<g id="edge4" class="edge">
<title>Node3&#45;&gt;Node5</title>
<path fill="none" stroke="#191970" d="M469.2495,-188.0082C496.7069,-193.9081 531.9461,-201.4801 559.8421,-207.4743"/>
<polygon fill="#191970" stroke="#191970" points="469.6509,-184.5146 459.1388,-185.8356 468.1803,-191.3584 469.6509,-184.5146"/>
</g>
<!-- Node6 -->
<g id="node6" class="node">
<title>Node6</title>
<g id="a_node6"><a xlink:href="../../d7/d9e/Fun4All__G4__fsPHENIX_8C.html#a72c444217210a14ab1b4e66d9818b1ff" target="_top" xlink:title="Fun4All_G4_fsPHENIX">
<polygon fill="none" stroke="#000000" points="544.5,-168.5 544.5,-188.5 668.5,-188.5 668.5,-168.5 544.5,-168.5"/>
<text text-anchor="middle" x="606.5" y="-175.5" font-family="FreeSans" font-size="10.00" fill="#000000">Fun4All_G4_fsPHENIX</text>
</a>
</g>
</g>
<!-- Node3&#45;&gt;Node6 -->
<g id="edge5" class="edge">
<title>Node3&#45;&gt;Node6</title>
<path fill="none" stroke="#191970" d="M469.4094,-178.5C491.9196,-178.5 519.6288,-178.5 544.2304,-178.5"/>
<polygon fill="#191970" stroke="#191970" points="469.1388,-175.0001 459.1388,-178.5 469.1387,-182.0001 469.1388,-175.0001"/>
</g>
<!-- Node7 -->
<g id="node7" class="node">
<title>Node7</title>
<g id="a_node7"><a xlink:href="../../d0/d87/Fun4All__G4__JLeic_8C.html#a66e8fc0b01ee0a8e805c7b99c4698974" target="_top" xlink:title="Fun4All_G4_JLeic">
<polygon fill="none" stroke="#000000" points="556,-129.5 556,-149.5 657,-149.5 657,-129.5 556,-129.5"/>
<text text-anchor="middle" x="606.5" y="-136.5" font-family="FreeSans" font-size="10.00" fill="#000000">Fun4All_G4_JLeic</text>
</a>
</g>
</g>
<!-- Node3&#45;&gt;Node7 -->
<g id="edge6" class="edge">
<title>Node3&#45;&gt;Node7</title>
<path fill="none" stroke="#191970" d="M469.2495,-168.9918C496.7069,-163.0919 531.9461,-155.5199 559.8421,-149.5257"/>
<polygon fill="#191970" stroke="#191970" points="468.1803,-165.6416 459.1388,-171.1644 469.6509,-172.4854 468.1803,-165.6416"/>
</g>
<!-- Node8 -->
<g id="node8" class="node">
<title>Node8</title>
<g id="a_node8"><a xlink:href="../../d0/d13/Fun4All__G4__sPHENIX_8C.html#a536fa7366e3aeaf273cca94ced704c46" target="_top" xlink:title="Fun4All_G4_sPHENIX">
<polygon fill="none" stroke="#000000" points="546,-90.5 546,-110.5 667,-110.5 667,-90.5 546,-90.5"/>
<text text-anchor="middle" x="606.5" y="-97.5" font-family="FreeSans" font-size="10.00" fill="#000000">Fun4All_G4_sPHENIX</text>
</a>
</g>
</g>
<!-- Node3&#45;&gt;Node8 -->
<g id="edge7" class="edge">
<title>Node3&#45;&gt;Node8</title>
<path fill="none" stroke="#191970" d="M469.0343,-172.0523C479.9731,-169.2479 491.3265,-165.2354 501,-159.5 521.2908,-147.4697 516.9242,-132.8857 537,-120.5 543.6251,-116.4127 551.1177,-113.132 558.669,-110.5071"/>
<polygon fill="#191970" stroke="#191970" points="468.1366,-168.667 459.1651,-174.3028 469.693,-175.4918 468.1366,-168.667"/>
</g>
</g>
</svg>
