<?xml version="1.0" encoding="UTF-8" standalone="no"?>
<!DOCTYPE svg PUBLIC "-//W3C//DTD SVG 1.1//EN"
 "http://www.w3.org/Graphics/SVG/1.1/DTD/svg11.dtd">
<!-- Generated by graphviz version 2.40.1 (20161225.0304)
 -->
<!-- Title: fun4all_coresoftware/blob/master/simulation/g4simulation/g4main/HepMCNodeReader.h Pages: 1 -->
<svg width="1532pt" height="239pt"
 viewBox="0.00 0.00 1532.00 239.00" xmlns="http://www.w3.org/2000/svg" xmlns:xlink="http://www.w3.org/1999/xlink">
<g id="graph0" class="graph" transform="scale(1 1) rotate(0) translate(4 235)">
<title>fun4all_coresoftware/blob/master/simulation/g4simulation/g4main/HepMCNodeReader.h</title>
<!-- Node1 -->
<g id="node1" class="node">
<title>Node1</title>
<polygon fill="#bfbfbf" stroke="#000000" points="825,-174.5 825,-230.5 1019,-230.5 1019,-174.5 825,-174.5"/>
<text text-anchor="start" x="833" y="-217.5" font-family="FreeSans" font-size="10.00" fill="#000000">fun4all_coresoftware</text>
<text text-anchor="start" x="833" y="-205.5" font-family="FreeSans" font-size="10.00" fill="#000000">/blob/master/simulation</text>
<text text-anchor="start" x="833" y="-193.5" font-family="FreeSans" font-size="10.00" fill="#000000">/g4simulation/g4main/HepMCNode</text>
<text text-anchor="middle" x="922" y="-181.5" font-family="FreeSans" font-size="10.00" fill="#000000">Reader.h</text>
</g>
<!-- Node2 -->
<g id="node2" class="node">
<title>Node2</title>
<g id="a_node2"><a xlink:href="../../d2/d09/HepMCNodeReader_8cc.html" target="_top" xlink:title="fun4all_coresoftware\l/blob/master/simulation\l/g4simulation/g4main/HepMCNode\lReader.cc">
<polygon fill="none" stroke="#000000" points="0,-81.5 0,-137.5 194,-137.5 194,-81.5 0,-81.5"/>
<text text-anchor="start" x="8" y="-124.5" font-family="FreeSans" font-size="10.00" fill="#000000">fun4all_coresoftware</text>
<text text-anchor="start" x="8" y="-112.5" font-family="FreeSans" font-size="10.00" fill="#000000">/blob/master/simulation</text>
<text text-anchor="start" x="8" y="-100.5" font-family="FreeSans" font-size="10.00" fill="#000000">/g4simulation/g4main/HepMCNode</text>
<text text-anchor="middle" x="97" y="-88.5" font-family="FreeSans" font-size="10.00" fill="#000000">Reader.cc</text>
</a>
</g>
</g>
<!-- Node1&#45;&gt;Node2 -->
<g id="edge1" class="edge">
<title>Node1&#45;&gt;Node2</title>
<path fill="none" stroke="#191970" d="M814.3806,-198.6587C673.1181,-192.2929 417.8743,-176.2271 203,-138 200.0919,-137.4826 197.1474,-136.9235 194.1815,-136.3294"/>
<polygon fill="#191970" stroke="#191970" points="814.6243,-202.1728 824.7693,-199.1185 814.9339,-195.1796 814.6243,-202.1728"/>
</g>
<!-- Node3 -->
<g id="node3" class="node">
<title>Node3</title>
<g id="a_node3"><a xlink:href="../../d5/df2/Fun4All__EIC__Generator__Display_8C.html" target="_top" xlink:title="fun4all_eic_tutorials\l/blob/master/ReadEICGenerator\lOutput/Fun4All_EIC_Generator\l_Display.C">
<polygon fill="none" stroke="#000000" points="212,-81.5 212,-137.5 390,-137.5 390,-81.5 212,-81.5"/>
<text text-anchor="start" x="220" y="-124.5" font-family="FreeSans" font-size="10.00" fill="#000000">fun4all_eic_tutorials</text>
<text text-anchor="start" x="220" y="-112.5" font-family="FreeSans" font-size="10.00" fill="#000000">/blob/master/ReadEICGenerator</text>
<text text-anchor="start" x="220" y="-100.5" font-family="FreeSans" font-size="10.00" fill="#000000">Output/Fun4All_EIC_Generator</text>
<text text-anchor="middle" x="301" y="-88.5" font-family="FreeSans" font-size="10.00" fill="#000000">_Display.C</text>
</a>
</g>
</g>
<!-- Node1&#45;&gt;Node3 -->
<g id="edge2" class="edge">
<title>Node1&#45;&gt;Node3</title>
<path fill="none" stroke="#191970" d="M814.7578,-194.3375C708.4619,-185.0623 541.3687,-167.2835 399,-138 396.0496,-137.3931 393.0588,-136.7412 390.0462,-136.0528"/>
<polygon fill="#191970" stroke="#191970" points="814.5879,-197.8358 824.8518,-195.2087 815.1898,-190.8617 814.5879,-197.8358"/>
</g>
<!-- Node4 -->
<g id="node4" class="node">
<title>Node4</title>
<g id="a_node4"><a xlink:href="../../d0/d87/Fun4All__G4__JLeic_8C.html" target="_top" xlink:title="fun4all_g4jleic/blob\l/master/macros/Fun4All\l_G4_JLeic.C">
<polygon fill="none" stroke="#000000" points="433.5,-.5 433.5,-44.5 570.5,-44.5 570.5,-.5 433.5,-.5"/>
<text text-anchor="start" x="441.5" y="-31.5" font-family="FreeSans" font-size="10.00" fill="#000000">fun4all_g4jleic/blob</text>
<text text-anchor="start" x="441.5" y="-19.5" font-family="FreeSans" font-size="10.00" fill="#000000">/master/macros/Fun4All</text>
<text text-anchor="middle" x="502" y="-7.5" font-family="FreeSans" font-size="10.00" fill="#000000">_G4_JLeic.C</text>
</a>
</g>
</g>
<!-- Node1&#45;&gt;Node4 -->
<g id="edge3" class="edge">
<title>Node1&#45;&gt;Node4</title>
<path fill="none" stroke="#191970" d="M814.7403,-190.0332C734.8638,-179.1118 633.8602,-161.3381 599,-138 573.6995,-121.0619 580.353,-104.5047 561,-81 550.4559,-68.194 537.479,-55.0882 526.3827,-44.5362"/>
<polygon fill="#191970" stroke="#191970" points="814.4888,-193.5308 824.8664,-191.3968 815.423,-186.5934 814.4888,-193.5308"/>
</g>
<!-- Node5 -->
<g id="node5" class="node">
<title>Node5</title>
<g id="a_node5"><a xlink:href="../../d0/dd0/G4Setup__JLeic_8C.html" target="_top" xlink:title="fun4all_g4jleic/blob\l/master/macros/G4Setup\l_JLeic.C">
<polygon fill="none" stroke="#000000" points="408,-87.5 408,-131.5 552,-131.5 552,-87.5 408,-87.5"/>
<text text-anchor="start" x="416" y="-118.5" font-family="FreeSans" font-size="10.00" fill="#000000">fun4all_g4jleic/blob</text>
<text text-anchor="start" x="416" y="-106.5" font-family="FreeSans" font-size="10.00" fill="#000000">/master/macros/G4Setup</text>
<text text-anchor="middle" x="480" y="-94.5" font-family="FreeSans" font-size="10.00" fill="#000000">_JLeic.C</text>
</a>
</g>
</g>
<!-- Node1&#45;&gt;Node5 -->
<g id="edge4" class="edge">
<title>Node1&#45;&gt;Node5</title>
<path fill="none" stroke="#191970" d="M814.5736,-187.0767C743.4899,-175.8837 648.522,-159.038 566,-138 558.5316,-136.096 550.7715,-133.8768 543.105,-131.5327"/>
<polygon fill="#191970" stroke="#191970" points="814.4634,-190.6018 824.8837,-188.6869 815.5436,-183.6857 814.4634,-190.6018"/>
</g>
<!-- Node6 -->
<g id="node6" class="node">
<title>Node6</title>
<g id="a_node6"><a xlink:href="../../d6/d6e/G4Setup__EICDetector_8C.html" target="_top" xlink:title="fun4all_macros/blob\l/master/macros/g4simulations\l/G4Setup_EICDetector.C">
<polygon fill="none" stroke="#000000" points="608.5,-87.5 608.5,-131.5 779.5,-131.5 779.5,-87.5 608.5,-87.5"/>
<text text-anchor="start" x="616.5" y="-118.5" font-family="FreeSans" font-size="10.00" fill="#000000">fun4all_macros/blob</text>
<text text-anchor="start" x="616.5" y="-106.5" font-family="FreeSans" font-size="10.00" fill="#000000">/master/macros/g4simulations</text>
<text text-anchor="middle" x="694" y="-94.5" font-family="FreeSans" font-size="10.00" fill="#000000">/G4Setup_EICDetector.C</text>
</a>
</g>
</g>
<!-- Node1&#45;&gt;Node6 -->
<g id="edge6" class="edge">
<title>Node1&#45;&gt;Node6</title>
<path fill="none" stroke="#191970" d="M843.6519,-170.5422C812.1604,-157.697 776.633,-143.2056 748.0989,-131.5666"/>
<polygon fill="#191970" stroke="#191970" points="842.702,-173.9347 853.2833,-174.4708 845.3459,-167.4531 842.702,-173.9347"/>
</g>
<!-- Node7 -->
<g id="node7" class="node">
<title>Node7</title>
<g id="a_node7"><a xlink:href="../../da/d02/Fun4All__G4__EICDetector_8C.html" target="_top" xlink:title="fun4all_macros/blob\l/master/macros/g4simulations\l/Fun4All_G4_EICDetector.C">
<polygon fill="none" stroke="#000000" points="609.5,-.5 609.5,-44.5 780.5,-44.5 780.5,-.5 609.5,-.5"/>
<text text-anchor="start" x="617.5" y="-31.5" font-family="FreeSans" font-size="10.00" fill="#000000">fun4all_macros/blob</text>
<text text-anchor="start" x="617.5" y="-19.5" font-family="FreeSans" font-size="10.00" fill="#000000">/master/macros/g4simulations</text>
<text text-anchor="middle" x="695" y="-7.5" font-family="FreeSans" font-size="10.00" fill="#000000">/Fun4All_G4_EICDetector.C</text>
</a>
</g>
</g>
<!-- Node1&#45;&gt;Node7 -->
<g id="edge8" class="edge">
<title>Node1&#45;&gt;Node7</title>
<path fill="none" stroke="#191970" d="M864.432,-168.4918C851.3894,-159.448 838.1208,-149.0809 827,-138 805.2559,-116.3339 810.1195,-102.2827 788,-81 773.2926,-66.849 754.6328,-54.3076 737.8938,-44.5023"/>
<polygon fill="#191970" stroke="#191970" points="862.6987,-171.5445 872.9455,-174.2381 866.6149,-165.7425 862.6987,-171.5445"/>
</g>
<!-- Node8 -->
<g id="node8" class="node">
<title>Node8</title>
<g id="a_node8"><a xlink:href="../../d7/d9e/Fun4All__G4__fsPHENIX_8C.html" target="_top" xlink:title="fun4all_macros/blob\l/master/macros/g4simulations\l/Fun4All_G4_fsPHENIX.C">
<polygon fill="none" stroke="#000000" points="836.5,-87.5 836.5,-131.5 1007.5,-131.5 1007.5,-87.5 836.5,-87.5"/>
<text text-anchor="start" x="844.5" y="-118.5" font-family="FreeSans" font-size="10.00" fill="#000000">fun4all_macros/blob</text>
<text text-anchor="start" x="844.5" y="-106.5" font-family="FreeSans" font-size="10.00" fill="#000000">/master/macros/g4simulations</text>
<text text-anchor="middle" x="922" y="-94.5" font-family="FreeSans" font-size="10.00" fill="#000000">/Fun4All_G4_fsPHENIX.C</text>
</a>
</g>
</g>
<!-- Node1&#45;&gt;Node8 -->
<g id="edge9" class="edge">
<title>Node1&#45;&gt;Node8</title>
<path fill="none" stroke="#191970" d="M922,-164.0409C922,-153.0068 922,-141.3498 922,-131.6577"/>
<polygon fill="#191970" stroke="#191970" points="918.5001,-164.3445 922,-174.3446 925.5001,-164.3446 918.5001,-164.3445"/>
</g>
<!-- Node9 -->
<g id="node9" class="node">
<title>Node9</title>
<g id="a_node9"><a xlink:href="../../d0/d13/Fun4All__G4__sPHENIX_8C.html" target="_top" xlink:title="fun4all_macros/blob\l/master/macros/g4simulations\l/Fun4All_G4_sPHENIX.C">
<polygon fill="none" stroke="#000000" points="823.5,-.5 823.5,-44.5 994.5,-44.5 994.5,-.5 823.5,-.5"/>
<text text-anchor="start" x="831.5" y="-31.5" font-family="FreeSans" font-size="10.00" fill="#000000">fun4all_macros/blob</text>
<text text-anchor="start" x="831.5" y="-19.5" font-family="FreeSans" font-size="10.00" fill="#000000">/master/macros/g4simulations</text>
<text text-anchor="middle" x="909" y="-7.5" font-family="FreeSans" font-size="10.00" fill="#000000">/Fun4All_G4_sPHENIX.C</text>
</a>
</g>
</g>
<!-- Node1&#45;&gt;Node9 -->
<g id="edge10" class="edge">
<title>Node1&#45;&gt;Node9</title>
<path fill="none" stroke="#191970" d="M989.9802,-168.1038C1000.4555,-159.724 1009.827,-149.7221 1016,-138 1027.804,-115.5848 1028.9211,-102.7904 1016,-81 1006.6054,-65.1567 991.2384,-53.3256 975.0433,-44.6093"/>
<polygon fill="#191970" stroke="#191970" points="987.7235,-165.4203 981.7892,-174.1972 991.9016,-171.0366 987.7235,-165.4203"/>
</g>
<!-- Node10 -->
<g id="node10" class="node">
<title>Node10</title>
<g id="a_node10"><a xlink:href="../../d0/daa/G4Setup__sPHENIX_8C.html" target="_top" xlink:title="fun4all_macros/blob\l/master/macros/g4simulations\l/G4Setup_sPHENIX.C">
<polygon fill="none" stroke="#000000" points="1102.5,-87.5 1102.5,-131.5 1273.5,-131.5 1273.5,-87.5 1102.5,-87.5"/>
<text text-anchor="start" x="1110.5" y="-118.5" font-family="FreeSans" font-size="10.00" fill="#000000">fun4all_macros/blob</text>
<text text-anchor="start" x="1110.5" y="-106.5" font-family="FreeSans" font-size="10.00" fill="#000000">/master/macros/g4simulations</text>
<text text-anchor="middle" x="1188" y="-94.5" font-family="FreeSans" font-size="10.00" fill="#000000">/G4Setup_sPHENIX.C</text>
</a>
</g>
</g>
<!-- Node1&#45;&gt;Node10 -->
<g id="edge11" class="edge">
<title>Node1&#45;&gt;Node10</title>
<path fill="none" stroke="#191970" d="M1011.9833,-171.0397C1049.0729,-158.0722 1091.1644,-143.3561 1124.8847,-131.5666"/>
<polygon fill="#191970" stroke="#191970" points="1010.454,-167.8665 1002.1695,-174.4708 1012.7643,-174.4743 1010.454,-167.8665"/>
</g>
<!-- Node11 -->
<g id="node11" class="node">
<title>Node11</title>
<g id="a_node11"><a xlink:href="../../de/da9/ReadClustersRunTracking_8C.html" target="_top" xlink:title="fun4all_macros/blob\l/master/macros/g4simulations\l/ReadClustersRunTracking.C">
<polygon fill="none" stroke="#000000" points="1012.5,-.5 1012.5,-44.5 1183.5,-44.5 1183.5,-.5 1012.5,-.5"/>
<text text-anchor="start" x="1020.5" y="-31.5" font-family="FreeSans" font-size="10.00" fill="#000000">fun4all_macros/blob</text>
<text text-anchor="start" x="1020.5" y="-19.5" font-family="FreeSans" font-size="10.00" fill="#000000">/master/macros/g4simulations</text>
<text text-anchor="middle" x="1098" y="-7.5" font-family="FreeSans" font-size="10.00" fill="#000000">/ReadClustersRunTracking.C</text>
</a>
</g>
</g>
<!-- Node1&#45;&gt;Node11 -->
<g id="edge16" class="edge">
<title>Node1&#45;&gt;Node11</title>
<path fill="none" stroke="#191970" d="M994.3153,-169.189C1008.8693,-160.3904 1023.2763,-149.9524 1035,-138 1061.7105,-110.7684 1080.3819,-69.9142 1090.1361,-44.7991"/>
<polygon fill="#191970" stroke="#191970" points="992.1436,-166.403 985.2571,-174.4545 995.6615,-172.4548 992.1436,-166.403"/>
</g>
<!-- Node12 -->
<g id="node12" class="node">
<title>Node12</title>
<g id="a_node12"><a xlink:href="../../db/dc0/Fun4All__AnaTutorial_8C.html" target="_top" xlink:title="fun4all_tutorials/blob\l/master/AnaTutorial/macro\l/Fun4All_AnaTutorial.C">
<polygon fill="none" stroke="#000000" points="1201.5,-.5 1201.5,-44.5 1352.5,-44.5 1352.5,-.5 1201.5,-.5"/>
<text text-anchor="start" x="1209.5" y="-31.5" font-family="FreeSans" font-size="10.00" fill="#000000">fun4all_tutorials/blob</text>
<text text-anchor="start" x="1209.5" y="-19.5" font-family="FreeSans" font-size="10.00" fill="#000000">/master/AnaTutorial/macro</text>
<text text-anchor="middle" x="1277" y="-7.5" font-family="FreeSans" font-size="10.00" fill="#000000">/Fun4All_AnaTutorial.C</text>
</a>
</g>
</g>
<!-- Node1&#45;&gt;Node12 -->
<g id="edge17" class="edge">
<title>Node1&#45;&gt;Node12</title>
<path fill="none" stroke="#191970" d="M1029.5106,-198.1016C1123.9394,-191.7122 1251.1097,-176.0932 1283,-138 1304.6537,-112.1345 1295.303,-70.4757 1286.3156,-44.8918"/>
<polygon fill="#191970" stroke="#191970" points="1029.0768,-194.6223 1019.325,-198.7639 1029.5311,-201.6076 1029.0768,-194.6223"/>
</g>
<!-- Node13 -->
<g id="node13" class="node">
<title>Node13</title>
<g id="a_node13"><a xlink:href="../../dd/d28/Fun4All__AnaTutorial__Jets_8C.html" target="_top" xlink:title="fun4all_tutorials/blob\l/master/AnaTutorial/macro\l/Fun4All_AnaTutorial_Jets.C">
<polygon fill="none" stroke="#000000" points="1370.5,-.5 1370.5,-44.5 1523.5,-44.5 1523.5,-.5 1370.5,-.5"/>
<text text-anchor="start" x="1378.5" y="-31.5" font-family="FreeSans" font-size="10.00" fill="#000000">fun4all_tutorials/blob</text>
<text text-anchor="start" x="1378.5" y="-19.5" font-family="FreeSans" font-size="10.00" fill="#000000">/master/AnaTutorial/macro</text>
<text text-anchor="middle" x="1447" y="-7.5" font-family="FreeSans" font-size="10.00" fill="#000000">/Fun4All_AnaTutorial_Jets.C</text>
</a>
</g>
</g>
<!-- Node1&#45;&gt;Node13 -->
<g id="edge18" class="edge">
<title>Node1&#45;&gt;Node13</title>
<path fill="none" stroke="#191970" d="M1029.3466,-191.7916C1124.9043,-180.9176 1256.5432,-162.2435 1303,-138 1334.4846,-121.5698 1331.6207,-103.6187 1359,-81 1374.9821,-67.7968 1394.0009,-54.8514 1410.2616,-44.5088"/>
<polygon fill="#191970" stroke="#191970" points="1028.8885,-188.3209 1019.3423,-192.9166 1029.6709,-195.2771 1028.8885,-188.3209"/>
</g>
<!-- Node14 -->
<g id="node14" class="node">
<title>Node14</title>
<g id="a_node14"><a xlink:href="../../d4/dfa/Fun4All__Generator__Display_8C.html" target="_top" xlink:title="fun4all_tutorials/blob\l/master/eventgenerator\l_display/Fun4All_Generator\l_Display.C">
<polygon fill="none" stroke="#000000" points="1368,-81.5 1368,-137.5 1524,-137.5 1524,-81.5 1368,-81.5"/>
<text text-anchor="start" x="1376" y="-124.5" font-family="FreeSans" font-size="10.00" fill="#000000">fun4all_tutorials/blob</text>
<text text-anchor="start" x="1376" y="-112.5" font-family="FreeSans" font-size="10.00" fill="#000000">/master/eventgenerator</text>
<text text-anchor="start" x="1376" y="-100.5" font-family="FreeSans" font-size="10.00" fill="#000000">_display/Fun4All_Generator</text>
<text text-anchor="middle" x="1446" y="-88.5" font-family="FreeSans" font-size="10.00" fill="#000000">_Display.C</text>
</a>
</g>
</g>
<!-- Node1&#45;&gt;Node14 -->
<g id="edge19" class="edge">
<title>Node1&#45;&gt;Node14</title>
<path fill="none" stroke="#191970" d="M1029.2852,-191.0855C1117.2147,-180.6315 1244.5483,-162.9712 1354,-138 1358.5646,-136.9586 1363.2313,-135.8041 1367.9231,-134.5736"/>
<polygon fill="#191970" stroke="#191970" points="1028.8196,-187.6161 1019.2978,-192.2621 1029.6386,-194.568 1028.8196,-187.6161"/>
</g>
<!-- Node5&#45;&gt;Node4 -->
<g id="edge5" class="edge">
<title>Node5&#45;&gt;Node4</title>
<path fill="none" stroke="#191970" d="M488.1958,-77.0893C490.9401,-66.2369 493.9339,-54.3979 496.4298,-44.5276"/>
<polygon fill="#191970" stroke="#191970" points="484.724,-76.5424 485.6655,-87.0953 491.5104,-78.2586 484.724,-76.5424"/>
</g>
<!-- Node6&#45;&gt;Node7 -->
<g id="edge7" class="edge">
<title>Node6&#45;&gt;Node7</title>
<path fill="none" stroke="#191970" d="M694.3725,-77.0893C694.4973,-66.2369 694.6334,-54.3979 694.7468,-44.5276"/>
<polygon fill="#191970" stroke="#191970" points="690.8728,-77.0557 694.2575,-87.0953 697.8723,-77.1363 690.8728,-77.0557"/>
</g>
<!-- Node10&#45;&gt;Node9 -->
<g id="edge12" class="edge">
<title>Node10&#45;&gt;Node9</title>
<path fill="none" stroke="#191970" d="M1107.6789,-84.4536C1067.2517,-71.8473 1018.6847,-56.7027 979.6887,-44.5427"/>
<polygon fill="#191970" stroke="#191970" points="1106.6473,-87.7981 1117.2358,-87.4338 1108.7312,-81.1155 1106.6473,-87.7981"/>
</g>
<!-- Node10&#45;&gt;Node11 -->
<g id="edge13" class="edge">
<title>Node10&#45;&gt;Node11</title>
<path fill="none" stroke="#191970" d="M1157.5678,-80.0822C1145.5353,-68.4508 1131.9452,-55.3137 1120.7871,-44.5276"/>
<polygon fill="#191970" stroke="#191970" points="1155.2003,-82.6616 1164.8228,-87.0953 1160.0654,-77.6286 1155.2003,-82.6616"/>
</g>
<!-- Node10&#45;&gt;Node12 -->
<g id="edge14" class="edge">
<title>Node10&#45;&gt;Node12</title>
<path fill="none" stroke="#191970" d="M1218.0941,-80.0822C1229.9929,-68.4508 1243.432,-55.3137 1254.4661,-44.5276"/>
<polygon fill="#191970" stroke="#191970" points="1215.6241,-77.6022 1210.9197,-87.0953 1220.5173,-82.6079 1215.6241,-77.6022"/>
</g>
<!-- Node10&#45;&gt;Node13 -->
<g id="edge15" class="edge">
<title>Node10&#45;&gt;Node13</title>
<path fill="none" stroke="#191970" d="M1263.515,-84.134C1300.8528,-71.5919 1345.4835,-56.6001 1381.3786,-44.5427"/>
<polygon fill="#191970" stroke="#191970" points="1262.0564,-80.9316 1253.6915,-87.4338 1264.2854,-87.5673 1262.0564,-80.9316"/>
</g>
</g>
</svg>
