<?xml version="1.0" encoding="UTF-8" standalone="no"?>
<!DOCTYPE svg PUBLIC "-//W3C//DTD SVG 1.1//EN"
 "http://www.w3.org/Graphics/SVG/1.1/DTD/svg11.dtd">
<!-- Generated by graphviz version 2.40.1 (20161225.0304)
 -->
<!-- Title: DoSmearStep Pages: 1 -->
<svg width="703pt" height="425pt"
 viewBox="0.00 0.00 703.00 425.00" xmlns="http://www.w3.org/2000/svg" xmlns:xlink="http://www.w3.org/1999/xlink">
<g id="graph0" class="graph" transform="scale(1 1) rotate(0) translate(4 421)">
<title>DoSmearStep</title>
<!-- Node1 -->
<g id="node1" class="node">
<title>Node1</title>
<polygon fill="#bfbfbf" stroke="#000000" points="0,-186.5 0,-206.5 86,-206.5 86,-186.5 0,-186.5"/>
<text text-anchor="middle" x="43" y="-193.5" font-family="FreeSans" font-size="10.00" fill="#000000">DoSmearStep</text>
</g>
<!-- Node2 -->
<g id="node2" class="node">
<title>Node2</title>
<g id="a_node2"><a xlink:href="../../df/dba/classSmear_1_1ParticleMCS.html#a9d34701ba88010cba6333637f1580a12" target="_top" xlink:title="Smear::ParticleMCS\l::Get4Vector">
<polygon fill="none" stroke="#000000" points="134,-384.5 134,-416.5 249,-416.5 249,-384.5 134,-384.5"/>
<text text-anchor="start" x="142" y="-403.5" font-family="FreeSans" font-size="10.00" fill="#000000">Smear::ParticleMCS</text>
<text text-anchor="middle" x="191.5" y="-391.5" font-family="FreeSans" font-size="10.00" fill="#000000">::Get4Vector</text>
</a>
</g>
</g>
<!-- Node1&#45;&gt;Node2 -->
<g id="edge1" class="edge">
<title>Node1&#45;&gt;Node2</title>
<path fill="none" stroke="#191970" d="M44.6047,-206.6184C49.8996,-236.7188 69.5689,-326.6325 122,-375.5 123.1432,-376.5655 124.3351,-377.5863 125.5684,-378.564"/>
<polygon fill="#191970" stroke="#191970" points="123.9868,-381.7192 134.2333,-384.4136 127.9035,-375.9175 123.9868,-381.7192"/>
</g>
<!-- Node3 -->
<g id="node3" class="node">
<title>Node3</title>
<g id="a_node3"><a xlink:href="../../df/dba/classSmear_1_1ParticleMCS.html#a66cf73806e3361b3a4ef1c8e57d34db1" target="_top" xlink:title="Smear::ParticleMCS\l::GetE">
<polygon fill="none" stroke="#000000" points="134,-333.5 134,-365.5 249,-365.5 249,-333.5 134,-333.5"/>
<text text-anchor="start" x="142" y="-352.5" font-family="FreeSans" font-size="10.00" fill="#000000">Smear::ParticleMCS</text>
<text text-anchor="middle" x="191.5" y="-340.5" font-family="FreeSans" font-size="10.00" fill="#000000">::GetE</text>
</a>
</g>
</g>
<!-- Node1&#45;&gt;Node3 -->
<g id="edge2" class="edge">
<title>Node1&#45;&gt;Node3</title>
<path fill="none" stroke="#191970" d="M46.5941,-206.7471C55.5309,-230.7845 81.035,-291.2668 122,-324.5 123.5684,-325.7724 125.2069,-326.9828 126.9009,-328.1341"/>
<polygon fill="#191970" stroke="#191970" points="125.3829,-331.3037 135.7661,-333.4109 128.9633,-325.2886 125.3829,-331.3037"/>
</g>
<!-- Node4 -->
<g id="node4" class="node">
<title>Node4</title>
<g id="a_node4"><a xlink:href="../../df/dba/classSmear_1_1ParticleMCS.html#aff373c10e5f5783d7ea05767e95ee94e" target="_top" xlink:title="Smear::ParticleMCS\l::GetP">
<polygon fill="none" stroke="#000000" points="134,-282.5 134,-314.5 249,-314.5 249,-282.5 134,-282.5"/>
<text text-anchor="start" x="142" y="-301.5" font-family="FreeSans" font-size="10.00" fill="#000000">Smear::ParticleMCS</text>
<text text-anchor="middle" x="191.5" y="-289.5" font-family="FreeSans" font-size="10.00" fill="#000000">::GetP</text>
</a>
</g>
</g>
<!-- Node1&#45;&gt;Node4 -->
<g id="edge3" class="edge">
<title>Node1&#45;&gt;Node4</title>
<path fill="none" stroke="#191970" d="M50.9274,-206.6474C64.081,-222.8661 91.9602,-254.7109 122,-273.5 124.5803,-275.1139 127.2795,-276.6434 130.0534,-278.0903"/>
<polygon fill="#191970" stroke="#191970" points="128.5823,-281.2664 139.1127,-282.4325 131.6079,-274.9541 128.5823,-281.2664"/>
</g>
<!-- Node5 -->
<g id="node5" class="node">
<title>Node5</title>
<g id="a_node5"><a xlink:href="../../de/d3c/classerhic_1_1ParticleMCbase.html#af3dbf2a11907f0057b6cfc1af30e5b75" target="_top" xlink:title="erhic::ParticleMCbase\l::Set4Vector">
<polygon fill="none" stroke="#000000" points="129,-231.5 129,-263.5 254,-263.5 254,-231.5 129,-231.5"/>
<text text-anchor="start" x="137" y="-250.5" font-family="FreeSans" font-size="10.00" fill="#000000">erhic::ParticleMCbase</text>
<text text-anchor="middle" x="191.5" y="-238.5" font-family="FreeSans" font-size="10.00" fill="#000000">::Set4Vector</text>
</a>
</g>
</g>
<!-- Node1&#45;&gt;Node5 -->
<g id="edge4" class="edge">
<title>Node1&#45;&gt;Node5</title>
<path fill="none" stroke="#191970" d="M72.3388,-206.576C90.224,-212.7184 113.6781,-220.7733 135.0436,-228.1109"/>
<polygon fill="#191970" stroke="#191970" points="134.091,-231.4844 144.6857,-231.4223 136.3647,-224.8639 134.091,-231.4844"/>
</g>
<!-- Node12 -->
<g id="node12" class="node">
<title>Node12</title>
<g id="a_node12"><a xlink:href="../../de/d3c/classerhic_1_1ParticleMCbase.html#a7d1f67920283b17e4bf61b35ea513c82" target="_top" xlink:title="erhic::ParticleMCbase\l::SetId">
<polygon fill="none" stroke="#000000" points="129,-180.5 129,-212.5 254,-212.5 254,-180.5 129,-180.5"/>
<text text-anchor="start" x="137" y="-199.5" font-family="FreeSans" font-size="10.00" fill="#000000">erhic::ParticleMCbase</text>
<text text-anchor="middle" x="191.5" y="-187.5" font-family="FreeSans" font-size="10.00" fill="#000000">::SetId</text>
</a>
</g>
</g>
<!-- Node1&#45;&gt;Node12 -->
<g id="edge11" class="edge">
<title>Node1&#45;&gt;Node12</title>
<path fill="none" stroke="#191970" d="M86.3515,-196.5C96.5109,-196.5 107.6096,-196.5 118.6665,-196.5"/>
<polygon fill="#191970" stroke="#191970" points="118.7808,-200.0001 128.7807,-196.5 118.7807,-193.0001 118.7808,-200.0001"/>
</g>
<!-- Node13 -->
<g id="node13" class="node">
<title>Node13</title>
<g id="a_node13"><a xlink:href="../../de/d3c/classerhic_1_1ParticleMCbase.html#adcaf0731e1be1de4965aa780025ba3e1" target="_top" xlink:title="erhic::ParticleMCbase\l::SetIndex">
<polygon fill="none" stroke="#000000" points="129,-129.5 129,-161.5 254,-161.5 254,-129.5 129,-129.5"/>
<text text-anchor="start" x="137" y="-148.5" font-family="FreeSans" font-size="10.00" fill="#000000">erhic::ParticleMCbase</text>
<text text-anchor="middle" x="191.5" y="-136.5" font-family="FreeSans" font-size="10.00" fill="#000000">::SetIndex</text>
</a>
</g>
</g>
<!-- Node1&#45;&gt;Node13 -->
<g id="edge12" class="edge">
<title>Node1&#45;&gt;Node13</title>
<path fill="none" stroke="#191970" d="M72.3388,-186.424C90.224,-180.2816 113.6781,-172.2267 135.0436,-164.8891"/>
<polygon fill="#191970" stroke="#191970" points="136.3647,-168.1361 144.6857,-161.5777 134.091,-161.5156 136.3647,-168.1361"/>
</g>
<!-- Node14 -->
<g id="node14" class="node">
<title>Node14</title>
<g id="a_node14"><a xlink:href="../../de/d3c/classerhic_1_1ParticleMCbase.html#a623b39b03206ecdd44e8e3f14664c342" target="_top" xlink:title="erhic::ParticleMCbase\l::SetStatus">
<polygon fill="none" stroke="#000000" points="129,-78.5 129,-110.5 254,-110.5 254,-78.5 129,-78.5"/>
<text text-anchor="start" x="137" y="-97.5" font-family="FreeSans" font-size="10.00" fill="#000000">erhic::ParticleMCbase</text>
<text text-anchor="middle" x="191.5" y="-85.5" font-family="FreeSans" font-size="10.00" fill="#000000">::SetStatus</text>
</a>
</g>
</g>
<!-- Node1&#45;&gt;Node14 -->
<g id="edge13" class="edge">
<title>Node1&#45;&gt;Node14</title>
<path fill="none" stroke="#191970" d="M51.2002,-186.2747C64.5206,-170.2585 92.3682,-139.1609 122,-120.5 125.1273,-118.5306 128.4264,-116.6761 131.8196,-114.9354"/>
<polygon fill="#191970" stroke="#191970" points="133.4347,-118.0431 140.9679,-110.5931 130.433,-111.7193 133.4347,-118.0431"/>
</g>
<!-- Node15 -->
<g id="node15" class="node">
<title>Node15</title>
<g id="a_node15"><a xlink:href="../../d2/d7d/classSmear_1_1Detector.html#a315bbbcca627dab0cee24379642664d8" target="_top" xlink:title="Smear::Detector::Smear">
<polygon fill="none" stroke="#000000" points="122,-39.5 122,-59.5 261,-59.5 261,-39.5 122,-39.5"/>
<text text-anchor="middle" x="191.5" y="-46.5" font-family="FreeSans" font-size="10.00" fill="#000000">Smear::Detector::Smear</text>
</a>
</g>
</g>
<!-- Node1&#45;&gt;Node15 -->
<g id="edge14" class="edge">
<title>Node1&#45;&gt;Node15</title>
<path fill="none" stroke="#191970" d="M46.4769,-186.1534C55.1606,-161.9161 80.157,-101.1287 122,-69.5 124.7889,-67.3919 127.7932,-65.5058 130.9332,-63.8183"/>
<polygon fill="#191970" stroke="#191970" points="132.4821,-66.9581 140.0752,-59.5692 129.5316,-60.6102 132.4821,-66.9581"/>
</g>
<!-- Node19 -->
<g id="node19" class="node">
<title>Node19</title>
<g id="a_node19"><a xlink:href="../../dd/d7e/namespaceActs_1_1Test.html#a2ece2a4f7e271a41a607a812dafc8962" target="_top" xlink:title="Acts::Test::step">
<polygon fill="none" stroke="#000000" points="144.5,-.5 144.5,-20.5 238.5,-20.5 238.5,-.5 144.5,-.5"/>
<text text-anchor="middle" x="191.5" y="-7.5" font-family="FreeSans" font-size="10.00" fill="#000000">Acts::Test::step</text>
</a>
</g>
</g>
<!-- Node1&#45;&gt;Node19 -->
<g id="edge18" class="edge">
<title>Node1&#45;&gt;Node19</title>
<path fill="none" stroke="#191970" d="M44.7368,-186.4541C50.2938,-157.431 70.3936,-72.7825 122,-29.5 125.8127,-26.3023 130.1187,-23.6396 134.6726,-21.4228"/>
<polygon fill="#191970" stroke="#191970" points="136.3709,-24.509 144.2898,-17.4705 133.71,-18.0345 136.3709,-24.509"/>
</g>
<!-- Node6 -->
<g id="node6" class="node">
<title>Node6</title>
<g id="a_node6"><a xlink:href="../../de/d3c/classerhic_1_1ParticleMCbase.html#a2aa0d72eeb2d16912348084513d9c78e" target="_top" xlink:title="erhic::ParticleMCbase\l::ComputeDerivedQuantities">
<polygon fill="none" stroke="#000000" points="319.5,-256.5 319.5,-288.5 480.5,-288.5 480.5,-256.5 319.5,-256.5"/>
<text text-anchor="start" x="327.5" y="-275.5" font-family="FreeSans" font-size="10.00" fill="#000000">erhic::ParticleMCbase</text>
<text text-anchor="middle" x="400" y="-263.5" font-family="FreeSans" font-size="10.00" fill="#000000">::ComputeDerivedQuantities</text>
</a>
</g>
</g>
<!-- Node5&#45;&gt;Node6 -->
<g id="edge5" class="edge">
<title>Node5&#45;&gt;Node6</title>
<path fill="none" stroke="#191970" d="M254.0569,-255.0008C271.4437,-257.0856 290.683,-259.3924 309.3324,-261.6286"/>
<polygon fill="#191970" stroke="#191970" points="308.9706,-265.1102 319.3162,-262.8257 309.804,-258.16 308.9706,-265.1102"/>
</g>
<!-- Node7 -->
<g id="node7" class="node">
<title>Node7</title>
<g id="a_node7"><a xlink:href="../../de/d3c/classerhic_1_1ParticleMCbase.html#a125e0b24d1d6b1bcf440f3265d4f60a5" target="_top" xlink:title="erhic::ParticleMCbase\l::ComputeEventDependentQuantities">
<polygon fill="none" stroke="#000000" points="297,-205.5 297,-237.5 503,-237.5 503,-205.5 297,-205.5"/>
<text text-anchor="start" x="305" y="-224.5" font-family="FreeSans" font-size="10.00" fill="#000000">erhic::ParticleMCbase</text>
<text text-anchor="middle" x="400" y="-212.5" font-family="FreeSans" font-size="10.00" fill="#000000">::ComputeEventDependentQuantities</text>
</a>
</g>
</g>
<!-- Node5&#45;&gt;Node7 -->
<g id="edge6" class="edge">
<title>Node5&#45;&gt;Node7</title>
<path fill="none" stroke="#191970" d="M254.0569,-239.6991C264.5404,-238.3918 275.6974,-237.0006 286.9925,-235.5921"/>
<polygon fill="#191970" stroke="#191970" points="287.4506,-239.0621 296.9406,-234.3515 286.5844,-232.1159 287.4506,-239.0621"/>
</g>
<!-- Node8 -->
<g id="node8" class="node">
<title>Node8</title>
<g id="a_node8"><a xlink:href="../../de/d3c/classerhic_1_1ParticleMCbase.html#a5a2d65df0a991dba4645ec2b8da399e0" target="_top" xlink:title="erhic::ParticleMCbase\l::Get4Vector">
<polygon fill="none" stroke="#000000" points="554.5,-270.5 554.5,-302.5 679.5,-302.5 679.5,-270.5 554.5,-270.5"/>
<text text-anchor="start" x="562.5" y="-289.5" font-family="FreeSans" font-size="10.00" fill="#000000">erhic::ParticleMCbase</text>
<text text-anchor="middle" x="617" y="-277.5" font-family="FreeSans" font-size="10.00" fill="#000000">::Get4Vector</text>
</a>
</g>
</g>
<!-- Node7&#45;&gt;Node8 -->
<g id="edge7" class="edge">
<title>Node7&#45;&gt;Node8</title>
<path fill="none" stroke="#191970" d="M468.4835,-237.5248C480.073,-240.5964 491.9316,-243.9657 503,-247.5 519.3538,-252.7219 522.8185,-255.7664 539,-261.5 544.4096,-263.4168 550.0522,-265.3506 555.7199,-267.2484"/>
<polygon fill="#191970" stroke="#191970" points="554.6519,-270.5815 565.2451,-270.3989 556.85,-263.9356 554.6519,-270.5815"/>
</g>
<!-- Node9 -->
<g id="node9" class="node">
<title>Node9</title>
<g id="a_node9"><a xlink:href="../../d8/d5c/functions_8h.html#a5f645a6689940a1ad8500ba581abeb1e" target="_top" xlink:title="computeHermesPhiH">
<polygon fill="none" stroke="#000000" points="556,-231.5 556,-251.5 678,-251.5 678,-231.5 556,-231.5"/>
<text text-anchor="middle" x="617" y="-238.5" font-family="FreeSans" font-size="10.00" fill="#000000">computeHermesPhiH</text>
</a>
</g>
</g>
<!-- Node7&#45;&gt;Node9 -->
<g id="edge8" class="edge">
<title>Node7&#45;&gt;Node9</title>
<path fill="none" stroke="#191970" d="M503.0982,-231.0021C517.4766,-232.3273 531.9818,-233.6642 545.6004,-234.9194"/>
<polygon fill="#191970" stroke="#191970" points="545.5461,-238.4291 555.8251,-235.8618 546.1886,-231.4587 545.5461,-238.4291"/>
</g>
<!-- Node10 -->
<g id="node10" class="node">
<title>Node10</title>
<g id="a_node10"><a xlink:href="../../dc/db4/classerhic_1_1EventDis.html#a644d1c348131c2909cbb2bb3c78e9040" target="_top" xlink:title="erhic::EventDis::GetW2">
<polygon fill="none" stroke="#000000" points="550,-192.5 550,-212.5 684,-212.5 684,-192.5 550,-192.5"/>
<text text-anchor="middle" x="617" y="-199.5" font-family="FreeSans" font-size="10.00" fill="#000000">erhic::EventDis::GetW2</text>
</a>
</g>
</g>
<!-- Node7&#45;&gt;Node10 -->
<g id="edge9" class="edge">
<title>Node7&#45;&gt;Node10</title>
<path fill="none" stroke="#191970" d="M503.0982,-212.473C515.3621,-211.3992 527.7183,-210.3173 539.5379,-209.2824"/>
<polygon fill="#191970" stroke="#191970" points="540.1144,-212.7454 549.7709,-208.3864 539.5037,-205.7721 540.1144,-212.7454"/>
</g>
<!-- Node11 -->
<g id="node11" class="node">
<title>Node11</title>
<g id="a_node11"><a xlink:href="../../d6/dfb/classerhic_1_1EventMC.html#a03767ae486e1e024696c1166640fd575" target="_top" xlink:title="erhic::EventMC::GetNTracks">
<polygon fill="none" stroke="#000000" points="539,-153.5 539,-173.5 695,-173.5 695,-153.5 539,-153.5"/>
<text text-anchor="middle" x="617" y="-160.5" font-family="FreeSans" font-size="10.00" fill="#000000">erhic::EventMC::GetNTracks</text>
</a>
</g>
</g>
<!-- Node7&#45;&gt;Node11 -->
<g id="edge10" class="edge">
<title>Node7&#45;&gt;Node11</title>
<path fill="none" stroke="#191970" d="M457.7672,-205.4873C482.7261,-198.6259 512.2772,-190.5783 539,-183.5 548.2273,-181.0559 558.0814,-178.4927 567.5714,-176.048"/>
<polygon fill="#191970" stroke="#191970" points="568.4725,-179.4302 577.2877,-173.553 566.7315,-172.6502 568.4725,-179.4302"/>
</g>
<!-- Node16 -->
<g id="node16" class="node">
<title>Node16</title>
<g id="a_node16"><a xlink:href="../../d2/d7d/classSmear_1_1Detector.html#a0ab66e8cbf78f0d65231e711a3ca4a61" target="_top" xlink:title="Smear::Detector::Accept">
<polygon fill="none" stroke="#000000" points="330,-58.5 330,-78.5 470,-78.5 470,-58.5 330,-58.5"/>
<text text-anchor="middle" x="400" y="-65.5" font-family="FreeSans" font-size="10.00" fill="#000000">Smear::Detector::Accept</text>
</a>
</g>
</g>
<!-- Node15&#45;&gt;Node16 -->
<g id="edge15" class="edge">
<title>Node15&#45;&gt;Node16</title>
<path fill="none" stroke="#191970" d="M261.2174,-55.8531C280.069,-57.571 300.6191,-59.4437 319.9876,-61.2087"/>
<polygon fill="#191970" stroke="#191970" points="319.7167,-64.6984 329.9931,-62.1205 320.352,-57.7273 319.7167,-64.6984"/>
</g>
<!-- Node18 -->
<g id="node18" class="node">
<title>Node18</title>
<g id="a_node18"><a xlink:href="../../df/de8/cemc_8C.html#a72d4716092b469b4bc1d816359a90e14" target="_top" xlink:title="cos">
<polygon fill="none" stroke="#000000" points="383.5,-19.5 383.5,-39.5 416.5,-39.5 416.5,-19.5 383.5,-19.5"/>
<text text-anchor="middle" x="400" y="-26.5" font-family="FreeSans" font-size="10.00" fill="#000000">cos</text>
</a>
</g>
</g>
<!-- Node15&#45;&gt;Node18 -->
<g id="edge17" class="edge">
<title>Node15&#45;&gt;Node18</title>
<path fill="none" stroke="#191970" d="M261.2174,-42.8125C299.4682,-39.1433 344.7115,-34.8034 372.8883,-32.1006"/>
<polygon fill="#191970" stroke="#191970" points="373.5306,-35.5552 383.1506,-31.1162 372.8621,-28.5872 373.5306,-35.5552"/>
</g>
<!-- Node17 -->
<g id="node17" class="node">
<title>Node17</title>
<g id="a_node17"><a xlink:href="../../d0/d01/classerhic_1_1VirtualParticle.html#a56e48270fb8bb5e7393e9b320b32359e" target="_top" xlink:title="erhic::VirtualParticle\l::GetStatus">
<polygon fill="none" stroke="#000000" points="558,-52.5 558,-84.5 676,-84.5 676,-52.5 558,-52.5"/>
<text text-anchor="start" x="566" y="-71.5" font-family="FreeSans" font-size="10.00" fill="#000000">erhic::VirtualParticle</text>
<text text-anchor="middle" x="617" y="-59.5" font-family="FreeSans" font-size="10.00" fill="#000000">::GetStatus</text>
</a>
</g>
</g>
<!-- Node16&#45;&gt;Node17 -->
<g id="edge16" class="edge">
<title>Node16&#45;&gt;Node17</title>
<path fill="none" stroke="#191970" d="M470.154,-68.5C495.0767,-68.5 523.0972,-68.5 547.9287,-68.5"/>
<polygon fill="#191970" stroke="#191970" points="547.9944,-72.0001 557.9943,-68.5 547.9943,-65.0001 547.9944,-72.0001"/>
</g>
</g>
</svg>
