<?xml version="1.0" encoding="UTF-8" standalone="no"?>
<!DOCTYPE svg PUBLIC "-//W3C//DTD SVG 1.1//EN"
 "http://www.w3.org/Graphics/SVG/1.1/DTD/svg11.dtd">
<!-- Generated by graphviz version 2.40.1 (20161225.0304)
 -->
<!-- Title: RawTowerGeomContainer::get_etabin Pages: 1 -->
<svg width="749pt" height="143pt"
 viewBox="0.00 0.00 749.00 143.00" xmlns="http://www.w3.org/2000/svg" xmlns:xlink="http://www.w3.org/1999/xlink">
<g id="graph0" class="graph" transform="scale(1 1) rotate(0) translate(4 139)">
<title>RawTowerGeomContainer::get_etabin</title>
<!-- Node1 -->
<g id="node1" class="node">
<title>Node1</title>
<polygon fill="#bfbfbf" stroke="#000000" points="0,-51.5 0,-83.5 147,-83.5 147,-51.5 0,-51.5"/>
<text text-anchor="start" x="8" y="-70.5" font-family="FreeSans" font-size="10.00" fill="#000000">RawTowerGeomContainer</text>
<text text-anchor="middle" x="73.5" y="-58.5" font-family="FreeSans" font-size="10.00" fill="#000000">::get_etabin</text>
</g>
<!-- Node2 -->
<g id="node2" class="node">
<title>Node2</title>
<g id="a_node2"><a xlink:href="../../d4/d90/classQAG4SimulationCalorimeterSum.html#a2d446f5f510ab16326c0b748163849e1" target="_top" xlink:title="fetch tower around track and histogram energy distributions">
<polygon fill="none" stroke="#000000" points="183,-102.5 183,-134.5 342,-134.5 342,-102.5 183,-102.5"/>
<text text-anchor="start" x="191" y="-121.5" font-family="FreeSans" font-size="10.00" fill="#000000">QAG4SimulationCalorimeter</text>
<text text-anchor="middle" x="262.5" y="-109.5" font-family="FreeSans" font-size="10.00" fill="#000000">Sum::eval_trk_proj</text>
</a>
</g>
</g>
<!-- Node1&#45;&gt;Node2 -->
<g id="edge1" class="edge">
<title>Node1&#45;&gt;Node2</title>
<path fill="none" stroke="#191970" d="M142.8771,-86.2208C162.5843,-91.5386 183.8632,-97.2806 202.9333,-102.4264"/>
<polygon fill="#191970" stroke="#191970" points="143.6079,-82.7929 133.0414,-83.5667 141.7842,-89.5512 143.6079,-82.7929"/>
</g>
<!-- Node5 -->
<g id="node5" class="node">
<title>Node5</title>
<g id="a_node5"><a xlink:href="../../d6/d02/classDetermineTowerBackground.html#a1e2d3c456b619165aec9114ae37ee6bf" target="_top" xlink:title="DetermineTowerBackground\l::process_event">
<polygon fill="none" stroke="#000000" points="183,-51.5 183,-83.5 342,-83.5 342,-51.5 183,-51.5"/>
<text text-anchor="start" x="191" y="-70.5" font-family="FreeSans" font-size="10.00" fill="#000000">DetermineTowerBackground</text>
<text text-anchor="middle" x="262.5" y="-58.5" font-family="FreeSans" font-size="10.00" fill="#000000">::process_event</text>
</a>
</g>
</g>
<!-- Node1&#45;&gt;Node5 -->
<g id="edge4" class="edge">
<title>Node1&#45;&gt;Node5</title>
<path fill="none" stroke="#191970" d="M157.3646,-67.5C165.8308,-67.5 174.4123,-67.5 182.8327,-67.5"/>
<polygon fill="#191970" stroke="#191970" points="157.1136,-64.0001 147.1135,-67.5 157.1135,-71.0001 157.1136,-64.0001"/>
</g>
<!-- Node6 -->
<g id="node6" class="node">
<title>Node6</title>
<g id="a_node6"><a xlink:href="../../db/dc4/classPHGenFitTrackProjection.html#a8f12e9c6ccc546498672eb6d45daef82" target="_top" xlink:title="PHGenFitTrackProjection\l::process_event">
<polygon fill="none" stroke="#000000" points="193.5,-.5 193.5,-32.5 331.5,-32.5 331.5,-.5 193.5,-.5"/>
<text text-anchor="start" x="201.5" y="-19.5" font-family="FreeSans" font-size="10.00" fill="#000000">PHGenFitTrackProjection</text>
<text text-anchor="middle" x="262.5" y="-7.5" font-family="FreeSans" font-size="10.00" fill="#000000">::process_event</text>
</a>
</g>
</g>
<!-- Node1&#45;&gt;Node6 -->
<g id="edge5" class="edge">
<title>Node1&#45;&gt;Node6</title>
<path fill="none" stroke="#191970" d="M142.8771,-48.7792C162.5843,-43.4614 183.8632,-37.7194 202.9333,-32.5736"/>
<polygon fill="#191970" stroke="#191970" points="141.7842,-45.4488 133.0414,-51.4333 143.6079,-52.2071 141.7842,-45.4488"/>
</g>
<!-- Node3 -->
<g id="node3" class="node">
<title>Node3</title>
<g id="a_node3"><a xlink:href="../../d4/d90/classQAG4SimulationCalorimeterSum.html#a552be18b8bd8920596f2020f0b49275f" target="_top" xlink:title="QAG4SimulationCalorimeter\lSum::process_event_TrackProj">
<polygon fill="none" stroke="#000000" points="378,-102.5 378,-134.5 546,-134.5 546,-102.5 378,-102.5"/>
<text text-anchor="start" x="386" y="-121.5" font-family="FreeSans" font-size="10.00" fill="#000000">QAG4SimulationCalorimeter</text>
<text text-anchor="middle" x="462" y="-109.5" font-family="FreeSans" font-size="10.00" fill="#000000">Sum::process_event_TrackProj</text>
</a>
</g>
</g>
<!-- Node2&#45;&gt;Node3 -->
<g id="edge2" class="edge">
<title>Node2&#45;&gt;Node3</title>
<path fill="none" stroke="#191970" d="M352.4525,-118.5C360.9034,-118.5 369.449,-118.5 377.8435,-118.5"/>
<polygon fill="#191970" stroke="#191970" points="352.2078,-115.0001 342.2078,-118.5 352.2077,-122.0001 352.2078,-115.0001"/>
</g>
<!-- Node4 -->
<g id="node4" class="node">
<title>Node4</title>
<g id="a_node4"><a xlink:href="../../d4/d90/classQAG4SimulationCalorimeterSum.html#a2104cb16e224c7eb39b9c5aed8aed4f0" target="_top" xlink:title="QAG4SimulationCalorimeter\lSum::process_event">
<polygon fill="none" stroke="#000000" points="582,-102.5 582,-134.5 741,-134.5 741,-102.5 582,-102.5"/>
<text text-anchor="start" x="590" y="-121.5" font-family="FreeSans" font-size="10.00" fill="#000000">QAG4SimulationCalorimeter</text>
<text text-anchor="middle" x="661.5" y="-109.5" font-family="FreeSans" font-size="10.00" fill="#000000">Sum::process_event</text>
</a>
</g>
</g>
<!-- Node3&#45;&gt;Node4 -->
<g id="edge3" class="edge">
<title>Node3&#45;&gt;Node4</title>
<path fill="none" stroke="#191970" d="M556.0575,-118.5C564.6363,-118.5 573.2716,-118.5 581.7082,-118.5"/>
<polygon fill="#191970" stroke="#191970" points="556.0278,-115.0001 546.0278,-118.5 556.0277,-122.0001 556.0278,-115.0001"/>
</g>
</g>
</svg>
