<?xml version="1.0" encoding="UTF-8" standalone="no"?>
<!DOCTYPE svg PUBLIC "-//W3C//DTD SVG 1.1//EN"
 "http://www.w3.org/Graphics/SVG/1.1/DTD/svg11.dtd">
<!-- Generated by graphviz version 2.40.1 (20161225.0304)
 -->
<!-- Title: EicRoot/blob/master/eic/htree/FwdIdealTrackingCode.h Pages: 1 -->
<svg width="2250pt" height="452pt"
 viewBox="0.00 0.00 2250.00 452.00" xmlns="http://www.w3.org/2000/svg" xmlns:xlink="http://www.w3.org/1999/xlink">
<g id="graph0" class="graph" transform="scale(1 1) rotate(0) translate(4 448)">
<title>EicRoot/blob/master/eic/htree/FwdIdealTrackingCode.h</title>
<!-- Node1 -->
<g id="node1" class="node">
<title>Node1</title>
<polygon fill="#bfbfbf" stroke="#000000" points="1580,-399.5 1580,-443.5 1735,-443.5 1735,-399.5 1580,-399.5"/>
<text text-anchor="start" x="1588" y="-430.5" font-family="FreeSans" font-size="10.00" fill="#000000">EicRoot/blob/master</text>
<text text-anchor="start" x="1588" y="-418.5" font-family="FreeSans" font-size="10.00" fill="#000000">/eic/htree/FwdIdealTracking</text>
<text text-anchor="middle" x="1657.5" y="-406.5" font-family="FreeSans" font-size="10.00" fill="#000000">Code.h</text>
</g>
<!-- Node2 -->
<g id="node2" class="node">
<title>Node2</title>
<g id="a_node2"><a xlink:href="../../db/d94/EicIdealTrackingCode_8h.html" target="_top" xlink:title="EicIdealTrackingCode.h">
<polygon fill="none" stroke="#000000" points="1591,-342.5 1591,-362.5 1724,-362.5 1724,-342.5 1591,-342.5"/>
<text text-anchor="middle" x="1657.5" y="-349.5" font-family="FreeSans" font-size="10.00" fill="#000000">EicIdealTrackingCode.h</text>
</a>
</g>
</g>
<!-- Node1&#45;&gt;Node2 -->
<g id="edge1" class="edge">
<title>Node1&#45;&gt;Node2</title>
<path fill="none" stroke="#191970" d="M1657.5,-399.2882C1657.5,-390.8377 1657.5,-381.2557 1657.5,-372.9736"/>
<polygon fill="#191970" stroke="#191970" points="1661.0001,-372.7136 1657.5,-362.7137 1654.0001,-372.7137 1661.0001,-372.7136"/>
</g>
<!-- Node3 -->
<g id="node3" class="node">
<title>Node3</title>
<polygon fill="none" stroke="#bfbfbf" points="1407,-57.5 1407,-77.5 1478,-77.5 1478,-57.5 1407,-57.5"/>
<text text-anchor="middle" x="1442.5" y="-64.5" font-family="FreeSans" font-size="10.00" fill="#000000">TVector3.h</text>
</g>
<!-- Node2&#45;&gt;Node3 -->
<g id="edge2" class="edge">
<title>Node2&#45;&gt;Node3</title>
<path fill="none" stroke="#191970" d="M1590.798,-343.5078C1532.48,-334.8669 1452.8165,-320.9475 1424.5,-306 1386.561,-285.9731 1355.5,-281.4004 1355.5,-238.5 1355.5,-238.5 1355.5,-238.5 1355.5,-181.5 1355.5,-139.6716 1392.9713,-103.6453 1418.7305,-83.8211"/>
<polygon fill="#191970" stroke="#191970" points="1420.9946,-86.4996 1426.9461,-77.7343 1416.8275,-80.875 1420.9946,-86.4996"/>
</g>
<!-- Node4 -->
<g id="node4" class="node">
<title>Node4</title>
<polygon fill="none" stroke="#bfbfbf" points="2044.5,-285.5 2044.5,-305.5 2146.5,-305.5 2146.5,-285.5 2044.5,-285.5"/>
<text text-anchor="middle" x="2095.5" y="-292.5" font-family="FreeSans" font-size="10.00" fill="#000000">TDatabasePDG.h</text>
</g>
<!-- Node2&#45;&gt;Node4 -->
<g id="edge3" class="edge">
<title>Node2&#45;&gt;Node4</title>
<path fill="none" stroke="#191970" d="M1724.3027,-344.9092C1799.0161,-336.248 1923.5861,-321.2945 2030.5,-306 2031.773,-305.8179 2033.0597,-305.6315 2034.3563,-305.4416"/>
<polygon fill="#191970" stroke="#191970" points="2035.0628,-308.8748 2044.4319,-303.9282 2034.0229,-301.9525 2035.0628,-308.8748"/>
</g>
<!-- Node5 -->
<g id="node5" class="node">
<title>Node5</title>
<g id="a_node5"><a xlink:href="../../d8/d44/FairTask_8h.html" target="_top" xlink:title="FairTask.h">
<polygon fill="none" stroke="#000000" points="1818,-285.5 1818,-305.5 1883,-305.5 1883,-285.5 1818,-285.5"/>
<text text-anchor="middle" x="1850.5" y="-292.5" font-family="FreeSans" font-size="10.00" fill="#000000">FairTask.h</text>
</a>
</g>
</g>
<!-- Node2&#45;&gt;Node5 -->
<g id="edge4" class="edge">
<title>Node2&#45;&gt;Node5</title>
<path fill="none" stroke="#191970" d="M1691.5603,-342.4408C1723.9645,-332.8706 1772.8304,-318.4387 1807.8191,-308.1053"/>
<polygon fill="#191970" stroke="#191970" points="1809.1466,-311.3627 1817.7457,-305.1736 1807.1638,-304.6494 1809.1466,-311.3627"/>
</g>
<!-- Node18 -->
<g id="node18" class="node">
<title>Node18</title>
<polygon fill="none" stroke="#bfbfbf" points="2203,-.5 2203,-20.5 2242,-20.5 2242,-.5 2203,-.5"/>
<text text-anchor="middle" x="2222.5" y="-7.5" font-family="FreeSans" font-size="10.00" fill="#000000">map</text>
</g>
<!-- Node2&#45;&gt;Node18 -->
<g id="edge22" class="edge">
<title>Node2&#45;&gt;Node18</title>
<path fill="none" stroke="#191970" d="M1724.1838,-345.1243C1828.0039,-331.7629 2016.5,-299.1523 2016.5,-238.5 2016.5,-238.5 2016.5,-238.5 2016.5,-124.5 2016.5,-104.504 2136.8591,-48.4704 2193.5786,-23.1745"/>
<polygon fill="#191970" stroke="#191970" points="2195.0269,-26.3611 2202.7479,-19.1059 2192.1877,-19.9627 2195.0269,-26.3611"/>
</g>
<!-- Node22 -->
<g id="node22" class="node">
<title>Node22</title>
<polygon fill="none" stroke="#bfbfbf" points="2164.5,-285.5 2164.5,-305.5 2212.5,-305.5 2212.5,-285.5 2164.5,-285.5"/>
<text text-anchor="middle" x="2188.5" y="-292.5" font-family="FreeSans" font-size="10.00" fill="#000000">cmath</text>
</g>
<!-- Node2&#45;&gt;Node22 -->
<g id="edge21" class="edge">
<title>Node2&#45;&gt;Node22</title>
<path fill="none" stroke="#191970" d="M1724.2184,-350.8151C1818.4236,-347.4341 1995.7219,-337.3914 2154.2165,-305.8988"/>
<polygon fill="#191970" stroke="#191970" points="2155.0375,-309.3037 2164.1462,-303.8923 2153.651,-302.4424 2155.0375,-309.3037"/>
</g>
<!-- Node23 -->
<g id="node23" class="node">
<title>Node23</title>
<g id="a_node23"><a xlink:href="../../d8/dfe/EicDetName_8h.html" target="_top" xlink:title="EicDetName.h">
<polygon fill="none" stroke="#000000" points="1300.5,-57.5 1300.5,-77.5 1388.5,-77.5 1388.5,-57.5 1300.5,-57.5"/>
<text text-anchor="middle" x="1344.5" y="-64.5" font-family="FreeSans" font-size="10.00" fill="#000000">EicDetName.h</text>
</a>
</g>
</g>
<!-- Node2&#45;&gt;Node23 -->
<g id="edge23" class="edge">
<title>Node2&#45;&gt;Node23</title>
<path fill="none" stroke="#191970" d="M1590.7913,-346.1843C1482.275,-334.0438 1279.5,-302.7605 1279.5,-238.5 1279.5,-238.5 1279.5,-238.5 1279.5,-181.5 1279.5,-143.2854 1307.4047,-106.2076 1326.6471,-85.1826"/>
<polygon fill="#191970" stroke="#191970" points="1329.4134,-87.3525 1333.7666,-77.6932 1324.34,-82.5296 1329.4134,-87.3525"/>
</g>
<!-- Node24 -->
<g id="node24" class="node">
<title>Node24</title>
<g id="a_node24"><a xlink:href="../../dc/dac/EicGeoParData_8h.html" target="_top" xlink:title="EicGeoParData.h">
<polygon fill="none" stroke="#000000" points="775.5,-114.5 775.5,-134.5 875.5,-134.5 875.5,-114.5 775.5,-114.5"/>
<text text-anchor="middle" x="825.5" y="-121.5" font-family="FreeSans" font-size="10.00" fill="#000000">EicGeoParData.h</text>
</a>
</g>
</g>
<!-- Node2&#45;&gt;Node24 -->
<g id="edge26" class="edge">
<title>Node2&#45;&gt;Node24</title>
<path fill="none" stroke="#191970" d="M1590.9367,-350.1299C1512.1198,-346.0634 1377.4193,-335.1331 1265.5,-306 1103.5338,-263.8395 922.4359,-174.7817 853.8613,-139.4241"/>
<polygon fill="#191970" stroke="#191970" points="855.0646,-136.1055 844.5759,-134.6091 851.8421,-142.3197 855.0646,-136.1055"/>
</g>
<!-- Node38 -->
<g id="node38" class="node">
<title>Node38</title>
<g id="a_node38"><a xlink:href="../../d5/d26/EicTrackingDigiHit_8h.html" target="_top" xlink:title="EicTrackingDigiHit.h">
<polygon fill="none" stroke="#000000" points="1433,-285.5 1433,-305.5 1550,-305.5 1550,-285.5 1433,-285.5"/>
<text text-anchor="middle" x="1491.5" y="-292.5" font-family="FreeSans" font-size="10.00" fill="#000000">EicTrackingDigiHit.h</text>
</a>
</g>
</g>
<!-- Node2&#45;&gt;Node38 -->
<g id="edge56" class="edge">
<title>Node2&#45;&gt;Node38</title>
<path fill="none" stroke="#191970" d="M1628.2046,-342.4408C1601.027,-333.1087 1560.3863,-319.1537 1530.4777,-308.8839"/>
<polygon fill="#191970" stroke="#191970" points="1531.3759,-305.4918 1520.7812,-305.5544 1529.1025,-312.1124 1531.3759,-305.4918"/>
</g>
<!-- Node6 -->
<g id="node6" class="node">
<title>Node6</title>
<g id="a_node6"><a xlink:href="../../d5/de4/FairLogger_8h.html" target="_top" xlink:title="FairLogger.h">
<polygon fill="none" stroke="#000000" points="1757,-228.5 1757,-248.5 1834,-248.5 1834,-228.5 1757,-228.5"/>
<text text-anchor="middle" x="1795.5" y="-235.5" font-family="FreeSans" font-size="10.00" fill="#000000">FairLogger.h</text>
</a>
</g>
</g>
<!-- Node5&#45;&gt;Node6 -->
<g id="edge5" class="edge">
<title>Node5&#45;&gt;Node6</title>
<path fill="none" stroke="#191970" d="M1840.6671,-285.3095C1832.846,-277.204 1821.7185,-265.672 1812.4656,-256.0826"/>
<polygon fill="#191970" stroke="#191970" points="1814.7102,-253.3681 1805.2478,-248.6022 1809.6728,-258.2288 1814.7102,-253.3681"/>
</g>
<!-- Node11 -->
<g id="node11" class="node">
<title>Node11</title>
<g id="a_node11"><a xlink:href="../../d4/d92/FairRootManager_8h.html" target="_top" xlink:title="FairRootManager.h">
<polygon fill="none" stroke="#000000" points="1854.5,-57.5 1854.5,-77.5 1964.5,-77.5 1964.5,-57.5 1854.5,-57.5"/>
<text text-anchor="middle" x="1909.5" y="-64.5" font-family="FreeSans" font-size="10.00" fill="#000000">FairRootManager.h</text>
</a>
</g>
</g>
<!-- Node5&#45;&gt;Node11 -->
<g id="edge10" class="edge">
<title>Node5&#45;&gt;Node11</title>
<path fill="none" stroke="#191970" d="M1858.9413,-285.4791C1873.1206,-267.9153 1901.1815,-229.8299 1911.5,-192 1921.2181,-156.3714 1917.0752,-112.8515 1913.2433,-87.8389"/>
<polygon fill="#191970" stroke="#191970" points="1916.6567,-87.0297 1911.5555,-77.7438 1909.7525,-88.1841 1916.6567,-87.0297"/>
</g>
<!-- Node21 -->
<g id="node21" class="node">
<title>Node21</title>
<polygon fill="none" stroke="#bfbfbf" points="1934.5,-228.5 1934.5,-248.5 1988.5,-248.5 1988.5,-228.5 1934.5,-228.5"/>
<text text-anchor="middle" x="1961.5" y="-235.5" font-family="FreeSans" font-size="10.00" fill="#000000">TTask.h</text>
</g>
<!-- Node5&#45;&gt;Node21 -->
<g id="edge20" class="edge">
<title>Node5&#45;&gt;Node21</title>
<path fill="none" stroke="#191970" d="M1870.0891,-285.4408C1887.4185,-276.5419 1912.9338,-263.4394 1932.6066,-253.3371"/>
<polygon fill="#191970" stroke="#191970" points="1934.4366,-256.332 1941.7334,-248.6504 1931.2389,-250.105 1934.4366,-256.332"/>
</g>
<!-- Node7 -->
<g id="node7" class="node">
<title>Node7</title>
<polygon fill="none" stroke="#bfbfbf" points="1842.5,-171.5 1842.5,-191.5 1902.5,-191.5 1902.5,-171.5 1842.5,-171.5"/>
<text text-anchor="middle" x="1872.5" y="-178.5" font-family="FreeSans" font-size="10.00" fill="#000000">Rtypes.h</text>
</g>
<!-- Node6&#45;&gt;Node7 -->
<g id="edge6" class="edge">
<title>Node6&#45;&gt;Node7</title>
<path fill="none" stroke="#191970" d="M1809.2661,-228.3095C1820.7631,-219.7987 1837.3634,-207.5102 1850.6707,-197.6594"/>
<polygon fill="#191970" stroke="#191970" points="1852.8981,-200.3652 1858.8531,-191.6022 1848.7332,-194.7389 1852.8981,-200.3652"/>
</g>
<!-- Node8 -->
<g id="node8" class="node">
<title>Node8</title>
<polygon fill="none" stroke="#bfbfbf" points="1692,-171.5 1692,-191.5 1749,-191.5 1749,-171.5 1692,-171.5"/>
<text text-anchor="middle" x="1720.5" y="-178.5" font-family="FreeSans" font-size="10.00" fill="#000000">ostream</text>
</g>
<!-- Node6&#45;&gt;Node8 -->
<g id="edge7" class="edge">
<title>Node6&#45;&gt;Node8</title>
<path fill="none" stroke="#191970" d="M1782.0915,-228.3095C1770.893,-219.7987 1754.7239,-207.5102 1741.7623,-197.6594"/>
<polygon fill="#191970" stroke="#191970" points="1743.8719,-194.8665 1733.7924,-191.6022 1739.6362,-200.4397 1743.8719,-194.8665"/>
</g>
<!-- Node9 -->
<g id="node9" class="node">
<title>Node9</title>
<polygon fill="none" stroke="#bfbfbf" points="0,-.5 0,-20.5 55,-20.5 55,-.5 0,-.5"/>
<text text-anchor="middle" x="27.5" y="-7.5" font-family="FreeSans" font-size="10.00" fill="#000000">fstream</text>
</g>
<!-- Node6&#45;&gt;Node9 -->
<g id="edge8" class="edge">
<title>Node6&#45;&gt;Node9</title>
<path fill="none" stroke="#191970" d="M1756.7675,-234.6594C1736.1943,-232.6384 1710.4774,-230.1421 1687.5,-228 1500.7897,-210.5938 133.0669,-216.3637 6.5,-78 -5.8477,-64.5015 3.3041,-43.8372 13.1045,-28.9286"/>
<polygon fill="#191970" stroke="#191970" points="16.1534,-30.6809 19.1041,-20.5052 10.4518,-26.6199 16.1534,-30.6809"/>
</g>
<!-- Node10 -->
<g id="node10" class="node">
<title>Node10</title>
<polygon fill="none" stroke="#bfbfbf" points="1767,-171.5 1767,-191.5 1824,-191.5 1824,-171.5 1767,-171.5"/>
<text text-anchor="middle" x="1795.5" y="-178.5" font-family="FreeSans" font-size="10.00" fill="#000000">iomanip</text>
</g>
<!-- Node6&#45;&gt;Node10 -->
<g id="edge9" class="edge">
<title>Node6&#45;&gt;Node10</title>
<path fill="none" stroke="#191970" d="M1795.5,-228.3095C1795.5,-220.9335 1795.5,-210.72 1795.5,-201.715"/>
<polygon fill="#191970" stroke="#191970" points="1799.0001,-201.6022 1795.5,-191.6022 1792.0001,-201.6023 1799.0001,-201.6022"/>
</g>
<!-- Node12 -->
<g id="node12" class="node">
<title>Node12</title>
<polygon fill="none" stroke="#bfbfbf" points="1276,-.5 1276,-20.5 1341,-20.5 1341,-.5 1276,-.5"/>
<text text-anchor="middle" x="1308.5" y="-7.5" font-family="FreeSans" font-size="10.00" fill="#000000">TObject.h</text>
</g>
<!-- Node11&#45;&gt;Node12 -->
<g id="edge11" class="edge">
<title>Node11&#45;&gt;Node12</title>
<path fill="none" stroke="#191970" d="M1854.3046,-62.2652C1735.5129,-50.9987 1457.7607,-24.6562 1351.1815,-14.548"/>
<polygon fill="#191970" stroke="#191970" points="1351.4018,-11.0533 1341.116,-13.5934 1350.7408,-18.022 1351.4018,-11.0533"/>
</g>
<!-- Node13 -->
<g id="node13" class="node">
<title>Node13</title>
<polygon fill="none" stroke="#bfbfbf" points="1101,-.5 1101,-20.5 1164,-20.5 1164,-.5 1101,-.5"/>
<text text-anchor="middle" x="1132.5" y="-7.5" font-family="FreeSans" font-size="10.00" fill="#000000">TString.h</text>
</g>
<!-- Node11&#45;&gt;Node13 -->
<g id="edge12" class="edge">
<title>Node11&#45;&gt;Node13</title>
<path fill="none" stroke="#191970" d="M1854.2046,-63.3863C1827.9362,-61.4385 1796.0993,-59.0869 1767.5,-57 1545.2933,-40.7852 1489.6753,-37.6383 1267.5,-21 1236.2499,-18.6597 1200.9396,-15.9096 1174.2711,-13.8111"/>
<polygon fill="#191970" stroke="#191970" points="1174.3816,-10.309 1164.1374,-13.0123 1173.8314,-17.2874 1174.3816,-10.309"/>
</g>
<!-- Node14 -->
<g id="node14" class="node">
<title>Node14</title>
<polygon fill="none" stroke="#bfbfbf" points="1951.5,-.5 1951.5,-20.5 2013.5,-20.5 2013.5,-.5 1951.5,-.5"/>
<text text-anchor="middle" x="1982.5" y="-7.5" font-family="FreeSans" font-size="10.00" fill="#000000">TArrayI.h</text>
</g>
<!-- Node11&#45;&gt;Node14 -->
<g id="edge13" class="edge">
<title>Node11&#45;&gt;Node14</title>
<path fill="none" stroke="#191970" d="M1922.5509,-57.3095C1933.347,-48.8798 1948.8894,-36.7439 1961.4433,-26.9415"/>
<polygon fill="#191970" stroke="#191970" points="1963.8342,-29.5153 1969.5621,-20.6022 1959.5261,-23.998 1963.8342,-29.5153"/>
</g>
<!-- Node15 -->
<g id="node15" class="node">
<title>Node15</title>
<polygon fill="none" stroke="#bfbfbf" points="2031,-.5 2031,-20.5 2106,-20.5 2106,-.5 2031,-.5"/>
<text text-anchor="middle" x="2068.5" y="-7.5" font-family="FreeSans" font-size="10.00" fill="#000000">TObjArray.h</text>
</g>
<!-- Node11&#45;&gt;Node15 -->
<g id="edge14" class="edge">
<title>Node11&#45;&gt;Node15</title>
<path fill="none" stroke="#191970" d="M1937.56,-57.4408C1963.4785,-48.1492 2002.1803,-34.275 2030.7917,-24.0181"/>
<polygon fill="#191970" stroke="#191970" points="2032.2213,-27.2238 2040.4535,-20.5544 2029.859,-20.6344 2032.2213,-27.2238"/>
</g>
<!-- Node16 -->
<g id="node16" class="node">
<title>Node16</title>
<polygon fill="none" stroke="#bfbfbf" points="1767.5,-.5 1767.5,-20.5 1817.5,-20.5 1817.5,-.5 1767.5,-.5"/>
<text text-anchor="middle" x="1792.5" y="-7.5" font-family="FreeSans" font-size="10.00" fill="#000000">TFile.h</text>
</g>
<!-- Node11&#45;&gt;Node16 -->
<g id="edge15" class="edge">
<title>Node11&#45;&gt;Node16</title>
<path fill="none" stroke="#191970" d="M1888.8521,-57.4408C1870.4199,-48.461 1843.2017,-35.2008 1822.3912,-25.0624"/>
<polygon fill="#191970" stroke="#191970" points="1823.8579,-21.8837 1813.3351,-20.6504 1820.7921,-28.1766 1823.8579,-21.8837"/>
</g>
<!-- Node17 -->
<g id="node17" class="node">
<title>Node17</title>
<polygon fill="none" stroke="#bfbfbf" points="2124,-.5 2124,-20.5 2185,-20.5 2185,-.5 2124,-.5"/>
<text text-anchor="middle" x="2154.5" y="-7.5" font-family="FreeSans" font-size="10.00" fill="#000000">TChain.h</text>
</g>
<!-- Node11&#45;&gt;Node17 -->
<g id="edge16" class="edge">
<title>Node11&#45;&gt;Node17</title>
<path fill="none" stroke="#191970" d="M1956.6736,-57.4276C1996.3047,-48.8358 2054.6676,-35.882 2113.965,-21.3192"/>
<polygon fill="#191970" stroke="#191970" points="2115.0045,-24.6678 2123.8739,-18.8726 2113.3264,-17.8719 2115.0045,-24.6678"/>
</g>
<!-- Node11&#45;&gt;Node18 -->
<g id="edge17" class="edge">
<title>Node11&#45;&gt;Node18</title>
<path fill="none" stroke="#191970" d="M1964.6109,-59.8275C2030.5791,-50.4282 2138.1346,-34.3694 2192.8722,-20.9975"/>
<polygon fill="#191970" stroke="#191970" points="2193.961,-24.3314 2202.7722,-18.448 2192.2152,-17.5525 2193.961,-24.3314"/>
</g>
<!-- Node19 -->
<g id="node19" class="node">
<title>Node19</title>
<polygon fill="none" stroke="#bfbfbf" points="1835.5,-.5 1835.5,-20.5 1867.5,-20.5 1867.5,-.5 1835.5,-.5"/>
<text text-anchor="middle" x="1851.5" y="-7.5" font-family="FreeSans" font-size="10.00" fill="#000000">list</text>
</g>
<!-- Node11&#45;&gt;Node19 -->
<g id="edge18" class="edge">
<title>Node11&#45;&gt;Node19</title>
<path fill="none" stroke="#191970" d="M1899.1308,-57.3095C1890.8005,-49.1229 1878.9136,-37.441 1869.0989,-27.7955"/>
<polygon fill="#191970" stroke="#191970" points="1871.3651,-25.1153 1861.7795,-20.6022 1866.4585,-30.1079 1871.3651,-25.1153"/>
</g>
<!-- Node20 -->
<g id="node20" class="node">
<title>Node20</title>
<polygon fill="none" stroke="#bfbfbf" points="1885.5,-.5 1885.5,-20.5 1933.5,-20.5 1933.5,-.5 1885.5,-.5"/>
<text text-anchor="middle" x="1909.5" y="-7.5" font-family="FreeSans" font-size="10.00" fill="#000000">queue</text>
</g>
<!-- Node11&#45;&gt;Node20 -->
<g id="edge19" class="edge">
<title>Node11&#45;&gt;Node20</title>
<path fill="none" stroke="#191970" d="M1909.5,-57.3095C1909.5,-49.9335 1909.5,-39.72 1909.5,-30.715"/>
<polygon fill="#191970" stroke="#191970" points="1913.0001,-30.6022 1909.5,-20.6022 1906.0001,-30.6023 1913.0001,-30.6022"/>
</g>
<!-- Node23&#45;&gt;Node12 -->
<g id="edge25" class="edge">
<title>Node23&#45;&gt;Node12</title>
<path fill="none" stroke="#191970" d="M1338.0639,-57.3095C1333.1494,-49.5282 1326.2404,-38.589 1320.3372,-29.2423"/>
<polygon fill="#191970" stroke="#191970" points="1323.1796,-27.1881 1314.8804,-20.6022 1317.2611,-30.9261 1323.1796,-27.1881"/>
</g>
<!-- Node23&#45;&gt;Node13 -->
<g id="edge24" class="edge">
<title>Node23&#45;&gt;Node13</title>
<path fill="none" stroke="#191970" d="M1307.0867,-57.4408C1269.7683,-47.407 1212.5736,-32.0292 1173.9091,-21.6336"/>
<polygon fill="#191970" stroke="#191970" points="1174.5808,-18.1899 1164.015,-18.9734 1172.7632,-24.9499 1174.5808,-18.1899"/>
</g>
<!-- Node24&#45;&gt;Node3 -->
<g id="edge35" class="edge">
<title>Node24&#45;&gt;Node3</title>
<path fill="none" stroke="#191970" d="M875.5251,-122.924C973.6701,-119.2932 1198.4175,-108.3225 1396.713,-77.9068"/>
<polygon fill="#191970" stroke="#191970" points="1397.3886,-81.3439 1406.7324,-76.3496 1396.3135,-74.4269 1397.3886,-81.3439"/>
</g>
<!-- Node24&#45;&gt;Node12 -->
<g id="edge31" class="edge">
<title>Node24&#45;&gt;Node12</title>
<path fill="none" stroke="#191970" d="M875.5355,-123.7716C974.1001,-121.5809 1189.3829,-112.8322 1253.5,-78 1273.6297,-67.0643 1289.2009,-45.4213 1298.5564,-29.5804"/>
<polygon fill="#191970" stroke="#191970" points="1301.7434,-31.0518 1303.5634,-20.6145 1295.6318,-27.6388 1301.7434,-31.0518"/>
</g>
<!-- Node24&#45;&gt;Node13 -->
<g id="edge30" class="edge">
<title>Node24&#45;&gt;Node13</title>
<path fill="none" stroke="#191970" d="M775.2198,-120.5954C691.1183,-113.55 529.4078,-97.6052 512.5,-78 506.4045,-70.932 506.1519,-63.842 512.5,-57 532.1992,-35.768 954.7805,-17.4485 1090.7549,-12.0853"/>
<polygon fill="#191970" stroke="#191970" points="1090.9309,-15.5812 1100.7864,-11.6927 1090.6571,-8.5865 1090.9309,-15.5812"/>
</g>
<!-- Node24&#45;&gt;Node16 -->
<g id="edge32" class="edge">
<title>Node24&#45;&gt;Node16</title>
<path fill="none" stroke="#191970" d="M875.7241,-122.7669C1068.2532,-116.0295 1749.3644,-91.2983 1767.5,-78 1782.3402,-67.1181 1788.3796,-46.4206 1790.8327,-30.8005"/>
<polygon fill="#191970" stroke="#191970" points="1794.3478,-30.8818 1792.0596,-20.537 1787.3973,-30.0508 1794.3478,-30.8818"/>
</g>
<!-- Node24&#45;&gt;Node23 -->
<g id="edge49" class="edge">
<title>Node24&#45;&gt;Node23</title>
<path fill="none" stroke="#191970" d="M875.7942,-120.7286C960.6947,-114.0713 1137.7426,-98.9345 1286.5,-78 1287.754,-77.8235 1289.0223,-77.6396 1290.3005,-77.4493"/>
<polygon fill="#191970" stroke="#191970" points="1290.8911,-80.8995 1300.2242,-75.8852 1289.8012,-73.9849 1290.8911,-80.8995"/>
</g>
<!-- Node25 -->
<g id="node25" class="node">
<title>Node25</title>
<polygon fill="none" stroke="#bfbfbf" points="521,-57.5 521,-77.5 574,-77.5 574,-57.5 521,-57.5"/>
<text text-anchor="middle" x="547.5" y="-64.5" font-family="FreeSans" font-size="10.00" fill="#000000">stdlib.h</text>
</g>
<!-- Node24&#45;&gt;Node25 -->
<g id="edge27" class="edge">
<title>Node24&#45;&gt;Node25</title>
<path fill="none" stroke="#191970" d="M775.1485,-116.2462C728.1999,-108.2315 656.0523,-95.1047 584.2833,-78.0164"/>
<polygon fill="#191970" stroke="#191970" points="584.703,-74.5175 574.1615,-75.579 583.0642,-81.323 584.703,-74.5175"/>
</g>
<!-- Node26 -->
<g id="node26" class="node">
<title>Node26</title>
<polygon fill="none" stroke="#bfbfbf" points="592.5,-57.5 592.5,-77.5 648.5,-77.5 648.5,-57.5 592.5,-57.5"/>
<text text-anchor="middle" x="620.5" y="-64.5" font-family="FreeSans" font-size="10.00" fill="#000000">assert.h</text>
</g>
<!-- Node24&#45;&gt;Node26 -->
<g id="edge28" class="edge">
<title>Node24&#45;&gt;Node26</title>
<path fill="none" stroke="#191970" d="M789.1045,-114.4995C757.1245,-105.6959 709.0736,-92.4291 658.5684,-78.2887"/>
<polygon fill="#191970" stroke="#191970" points="659.3499,-74.8729 648.7764,-75.5448 657.4611,-81.6133 659.3499,-74.8729"/>
</g>
<!-- Node27 -->
<g id="node27" class="node">
<title>Node27</title>
<polygon fill="none" stroke="#bfbfbf" points="1496.5,-57.5 1496.5,-77.5 1528.5,-77.5 1528.5,-57.5 1496.5,-57.5"/>
<text text-anchor="middle" x="1512.5" y="-64.5" font-family="FreeSans" font-size="10.00" fill="#000000">set</text>
</g>
<!-- Node24&#45;&gt;Node27 -->
<g id="edge29" class="edge">
<title>Node24&#45;&gt;Node27</title>
<path fill="none" stroke="#191970" d="M875.7413,-123.0936C1005.9961,-119.1178 1353.126,-106.3405 1486.3804,-77.4704"/>
<polygon fill="#191970" stroke="#191970" points="1487.3887,-80.83 1496.352,-75.1811 1485.8224,-74.0075 1487.3887,-80.83"/>
</g>
<!-- Node28 -->
<g id="node28" class="node">
<title>Node28</title>
<polygon fill="none" stroke="#bfbfbf" points="666.5,-57.5 666.5,-77.5 762.5,-77.5 762.5,-57.5 666.5,-57.5"/>
<text text-anchor="middle" x="714.5" y="-64.5" font-family="FreeSans" font-size="10.00" fill="#000000">TGeoManager.h</text>
</g>
<!-- Node24&#45;&gt;Node28 -->
<g id="edge33" class="edge">
<title>Node24&#45;&gt;Node28</title>
<path fill="none" stroke="#191970" d="M805.9109,-114.4408C788.5815,-105.5419 763.0662,-92.4394 743.3934,-82.3371"/>
<polygon fill="#191970" stroke="#191970" points="744.7611,-79.105 734.2666,-77.6504 741.5634,-85.332 744.7611,-79.105"/>
</g>
<!-- Node29 -->
<g id="node29" class="node">
<title>Node29</title>
<polygon fill="none" stroke="#bfbfbf" points="780.5,-57.5 780.5,-77.5 870.5,-77.5 870.5,-57.5 780.5,-57.5"/>
<text text-anchor="middle" x="825.5" y="-64.5" font-family="FreeSans" font-size="10.00" fill="#000000">TTimeStamp.h</text>
</g>
<!-- Node24&#45;&gt;Node29 -->
<g id="edge34" class="edge">
<title>Node24&#45;&gt;Node29</title>
<path fill="none" stroke="#191970" d="M825.5,-114.3095C825.5,-106.9335 825.5,-96.72 825.5,-87.715"/>
<polygon fill="#191970" stroke="#191970" points="829.0001,-87.6022 825.5,-77.6022 822.0001,-87.6023 829.0001,-87.6022"/>
</g>
<!-- Node30 -->
<g id="node30" class="node">
<title>Node30</title>
<g id="a_node30"><a xlink:href="../../d3/d52/FairGeoLoader_8h.html" target="_top" xlink:title="FairGeoLoader.h">
<polygon fill="none" stroke="#000000" points="138,-57.5 138,-77.5 235,-77.5 235,-57.5 138,-57.5"/>
<text text-anchor="middle" x="186.5" y="-64.5" font-family="FreeSans" font-size="10.00" fill="#000000">FairGeoLoader.h</text>
</a>
</g>
</g>
<!-- Node24&#45;&gt;Node30 -->
<g id="edge36" class="edge">
<title>Node24&#45;&gt;Node30</title>
<path fill="none" stroke="#191970" d="M775.4934,-122.2339C676.2512,-117.3619 447.2362,-104.2541 245.4605,-78.1556"/>
<polygon fill="#191970" stroke="#191970" points="245.6349,-74.6486 235.2655,-76.8227 244.7274,-81.5896 245.6349,-74.6486"/>
</g>
<!-- Node32 -->
<g id="node32" class="node">
<title>Node32</title>
<g id="a_node32"><a xlink:href="../../d6/dd0/FairGeoInterface_8h.html" target="_top" xlink:title="FairGeoInterface.h">
<polygon fill="none" stroke="#000000" points="1135,-57.5 1135,-77.5 1244,-77.5 1244,-57.5 1135,-57.5"/>
<text text-anchor="middle" x="1189.5" y="-64.5" font-family="FreeSans" font-size="10.00" fill="#000000">FairGeoInterface.h</text>
</a>
</g>
</g>
<!-- Node24&#45;&gt;Node32 -->
<g id="edge38" class="edge">
<title>Node24&#45;&gt;Node32</title>
<path fill="none" stroke="#191970" d="M875.6827,-116.8603C933.2395,-108.0669 1030.7208,-93.0798 1124.727,-78.1132"/>
<polygon fill="#191970" stroke="#191970" points="1125.3681,-81.5552 1134.6924,-76.5246 1124.2661,-74.6425 1125.3681,-81.5552"/>
</g>
<!-- Node33 -->
<g id="node33" class="node">
<title>Node33</title>
<g id="a_node33"><a xlink:href="../../dc/d78/FairGeoMedia_8h.html" target="_top" xlink:title="FairGeoMedia.h">
<polygon fill="none" stroke="#000000" points="370.5,-57.5 370.5,-77.5 464.5,-77.5 464.5,-57.5 370.5,-57.5"/>
<text text-anchor="middle" x="417.5" y="-64.5" font-family="FreeSans" font-size="10.00" fill="#000000">FairGeoMedia.h</text>
</a>
</g>
</g>
<!-- Node24&#45;&gt;Node33 -->
<g id="edge41" class="edge">
<title>Node24&#45;&gt;Node33</title>
<path fill="none" stroke="#191970" d="M775.4232,-118.384C707.8958,-110.0009 583.9444,-94.1345 478.5,-78 477.2452,-77.808 475.9764,-77.6114 474.6974,-77.4109"/>
<polygon fill="#191970" stroke="#191970" points="475.189,-73.9451 464.7603,-75.8138 474.0781,-80.8564 475.189,-73.9451"/>
</g>
<!-- Node34 -->
<g id="node34" class="node">
<title>Node34</title>
<g id="a_node34"><a xlink:href="../../d4/d9e/FairGeoMedium_8h.html" target="_top" xlink:title="FairGeoMedium.h">
<polygon fill="none" stroke="#000000" points="15.5,-57.5 15.5,-77.5 119.5,-77.5 119.5,-57.5 15.5,-57.5"/>
<text text-anchor="middle" x="67.5" y="-64.5" font-family="FreeSans" font-size="10.00" fill="#000000">FairGeoMedium.h</text>
</a>
</g>
</g>
<!-- Node24&#45;&gt;Node34 -->
<g id="edge44" class="edge">
<title>Node24&#45;&gt;Node34</title>
<path fill="none" stroke="#191970" d="M775.4709,-122.9457C662.3054,-119.046 377.8701,-107.0891 129.9781,-78.0673"/>
<polygon fill="#191970" stroke="#191970" points="130.0333,-74.5495 119.6913,-76.8506 129.211,-81.501 130.0333,-74.5495"/>
</g>
<!-- Node35 -->
<g id="node35" class="node">
<title>Node35</title>
<g id="a_node35"><a xlink:href="../../d2/dc5/FairGeoBuilder_8h.html" target="_top" xlink:title="FairGeoBuilder.h">
<polygon fill="none" stroke="#000000" points="253,-57.5 253,-77.5 352,-77.5 352,-57.5 253,-57.5"/>
<text text-anchor="middle" x="302.5" y="-64.5" font-family="FreeSans" font-size="10.00" fill="#000000">FairGeoBuilder.h</text>
</a>
</g>
</g>
<!-- Node24&#45;&gt;Node35 -->
<g id="edge47" class="edge">
<title>Node24&#45;&gt;Node35</title>
<path fill="none" stroke="#191970" d="M775.2273,-120.7257C691.7507,-114.1821 519.0795,-99.4761 362.3315,-78.0203"/>
<polygon fill="#191970" stroke="#191970" points="362.4159,-74.4988 352.031,-76.5973 361.4579,-81.433 362.4159,-74.4988"/>
</g>
<!-- Node36 -->
<g id="node36" class="node">
<title>Node36</title>
<g id="a_node36"><a xlink:href="../../d7/d58/EicNamePatternHub_8h.html" target="_top" xlink:title="EicNamePatternHub.h">
<polygon fill="none" stroke="#000000" points="889,-57.5 889,-77.5 1016,-77.5 1016,-57.5 889,-57.5"/>
<text text-anchor="middle" x="952.5" y="-64.5" font-family="FreeSans" font-size="10.00" fill="#000000">EicNamePatternHub.h</text>
</a>
</g>
</g>
<!-- Node24&#45;&gt;Node36 -->
<g id="edge50" class="edge">
<title>Node24&#45;&gt;Node36</title>
<path fill="none" stroke="#191970" d="M847.9127,-114.4408C868.1006,-105.3801 897.998,-91.9615 920.6628,-81.7891"/>
<polygon fill="#191970" stroke="#191970" points="922.1941,-84.9383 929.8842,-77.6504 919.3278,-78.552 922.1941,-84.9383"/>
</g>
<!-- Node37 -->
<g id="node37" class="node">
<title>Node37</title>
<g id="a_node37"><a xlink:href="../../d6/d8d/EicGeoMap_8h.html" target="_top" xlink:title="EicGeoMap.h">
<polygon fill="none" stroke="#000000" points="1034.5,-57.5 1034.5,-77.5 1116.5,-77.5 1116.5,-57.5 1034.5,-57.5"/>
<text text-anchor="middle" x="1075.5" y="-64.5" font-family="FreeSans" font-size="10.00" fill="#000000">EicGeoMap.h</text>
</a>
</g>
</g>
<!-- Node24&#45;&gt;Node37 -->
<g id="edge53" class="edge">
<title>Node24&#45;&gt;Node37</title>
<path fill="none" stroke="#191970" d="M869.6195,-114.4408C912.8857,-104.5761 978.8076,-89.5459 1024.3457,-79.1632"/>
<polygon fill="#191970" stroke="#191970" points="1025.3378,-82.5269 1034.3095,-76.8914 1023.7817,-75.702 1025.3378,-82.5269"/>
</g>
<!-- Node31 -->
<g id="node31" class="node">
<title>Node31</title>
<polygon fill="none" stroke="#bfbfbf" points="210,-.5 210,-20.5 279,-20.5 279,-.5 210,-.5"/>
<text text-anchor="middle" x="244.5" y="-7.5" font-family="FreeSans" font-size="10.00" fill="#000000">TNamed.h</text>
</g>
<!-- Node30&#45;&gt;Node31 -->
<g id="edge37" class="edge">
<title>Node30&#45;&gt;Node31</title>
<path fill="none" stroke="#191970" d="M196.8692,-57.3095C205.1995,-49.1229 217.0864,-37.441 226.9011,-27.7955"/>
<polygon fill="#191970" stroke="#191970" points="229.5415,-30.1079 234.2205,-20.6022 224.6349,-25.1153 229.5415,-30.1079"/>
</g>
<!-- Node32&#45;&gt;Node12 -->
<g id="edge39" class="edge">
<title>Node32&#45;&gt;Node12</title>
<path fill="none" stroke="#191970" d="M1210.5009,-57.4408C1229.2482,-48.461 1256.9316,-35.2008 1278.0979,-25.0624"/>
<polygon fill="#191970" stroke="#191970" points="1279.802,-28.127 1287.3088,-20.6504 1276.778,-21.8138 1279.802,-28.127"/>
</g>
<!-- Node32&#45;&gt;Node13 -->
<g id="edge40" class="edge">
<title>Node32&#45;&gt;Node13</title>
<path fill="none" stroke="#191970" d="M1179.3095,-57.3095C1171.1229,-49.1229 1159.441,-37.441 1149.7955,-27.7955"/>
<polygon fill="#191970" stroke="#191970" points="1152.1482,-25.1984 1142.6022,-20.6022 1147.1984,-30.1482 1152.1482,-25.1984"/>
</g>
<!-- Node33&#45;&gt;Node13 -->
<g id="edge43" class="edge">
<title>Node33&#45;&gt;Node13</title>
<path fill="none" stroke="#191970" d="M464.7203,-58.8946C469.3673,-58.1913 474.0195,-57.5435 478.5,-57 708.74,-29.0694 986.7693,-16.1428 1090.6662,-12.0298"/>
<polygon fill="#191970" stroke="#191970" points="1090.8895,-15.5239 1100.7456,-11.637 1090.6168,-8.5292 1090.8895,-15.5239"/>
</g>
<!-- Node33&#45;&gt;Node31 -->
<g id="edge42" class="edge">
<title>Node33&#45;&gt;Node31</title>
<path fill="none" stroke="#191970" d="M386.9693,-57.4408C358.5224,-48.0681 315.9226,-34.0323 284.7154,-23.7502"/>
<polygon fill="#191970" stroke="#191970" points="285.609,-20.3596 275.016,-20.5544 283.4184,-27.008 285.609,-20.3596"/>
</g>
<!-- Node34&#45;&gt;Node9 -->
<g id="edge46" class="edge">
<title>Node34&#45;&gt;Node9</title>
<path fill="none" stroke="#191970" d="M60.3488,-57.3095C54.8313,-49.4472 47.0514,-38.3608 40.4479,-28.9507"/>
<polygon fill="#191970" stroke="#191970" points="43.1985,-26.7773 34.5893,-20.6022 37.4686,-30.7983 43.1985,-26.7773"/>
</g>
<!-- Node34&#45;&gt;Node31 -->
<g id="edge45" class="edge">
<title>Node34&#45;&gt;Node31</title>
<path fill="none" stroke="#191970" d="M98.7366,-57.4408C127.8412,-48.0681 171.426,-34.0323 203.3547,-23.7502"/>
<polygon fill="#191970" stroke="#191970" points="204.8327,-26.9513 213.2785,-20.5544 202.687,-20.2883 204.8327,-26.9513"/>
</g>
<!-- Node35&#45;&gt;Node31 -->
<g id="edge48" class="edge">
<title>Node35&#45;&gt;Node31</title>
<path fill="none" stroke="#191970" d="M292.1308,-57.3095C283.8005,-49.1229 271.9136,-37.441 262.0989,-27.7955"/>
<polygon fill="#191970" stroke="#191970" points="264.3651,-25.1153 254.7795,-20.6022 259.4585,-30.1079 264.3651,-25.1153"/>
</g>
<!-- Node36&#45;&gt;Node12 -->
<g id="edge51" class="edge">
<title>Node36&#45;&gt;Node12</title>
<path fill="none" stroke="#191970" d="M1015.3262,-57.4408C1087.3672,-45.9061 1203.5179,-27.3089 1265.7966,-17.3373"/>
<polygon fill="#191970" stroke="#191970" points="1266.3591,-20.7919 1275.68,-15.7549 1265.2524,-13.88 1266.3591,-20.7919"/>
</g>
<!-- Node36&#45;&gt;Node13 -->
<g id="edge52" class="edge">
<title>Node36&#45;&gt;Node13</title>
<path fill="none" stroke="#191970" d="M984.266,-57.4408C1013.9921,-48.0275 1058.5715,-33.9107 1091.0784,-23.6169"/>
<polygon fill="#191970" stroke="#191970" points="1092.2725,-26.9101 1100.7493,-20.5544 1090.1592,-20.2367 1092.2725,-26.9101"/>
</g>
<!-- Node37&#45;&gt;Node12 -->
<g id="edge55" class="edge">
<title>Node37&#45;&gt;Node12</title>
<path fill="none" stroke="#191970" d="M1116.6194,-57.4408C1158.5882,-47.1737 1223.43,-31.3111 1265.9202,-20.9165"/>
<polygon fill="#191970" stroke="#191970" points="1266.8032,-24.3038 1275.685,-18.5277 1265.1398,-17.5043 1266.8032,-24.3038"/>
</g>
<!-- Node37&#45;&gt;Node13 -->
<g id="edge54" class="edge">
<title>Node37&#45;&gt;Node13</title>
<path fill="none" stroke="#191970" d="M1085.6905,-57.3095C1093.8771,-49.1229 1105.559,-37.441 1115.2045,-27.7955"/>
<polygon fill="#191970" stroke="#191970" points="1117.8016,-30.1482 1122.3978,-20.6022 1112.8518,-25.1984 1117.8016,-30.1482"/>
</g>
<!-- Node38&#45;&gt;Node3 -->
<g id="edge58" class="edge">
<title>Node38&#45;&gt;Node3</title>
<path fill="none" stroke="#191970" d="M1486.1886,-285.2138C1476.9658,-266.9351 1457.9753,-227.3844 1447.5,-192 1440.1989,-167.3378 1439.7306,-160.6233 1437.5,-135 1436.1146,-119.0864 1437.6104,-101.0404 1439.3181,-87.6138"/>
<polygon fill="#191970" stroke="#191970" points="1442.8036,-87.9628 1440.7438,-77.5701 1435.873,-86.979 1442.8036,-87.9628"/>
</g>
<!-- Node38&#45;&gt;Node24 -->
<g id="edge73" class="edge">
<title>Node38&#45;&gt;Node24</title>
<path fill="none" stroke="#191970" d="M1452.3251,-285.4416C1337.3541,-255.922 1001.0239,-169.567 874.4397,-137.0656"/>
<polygon fill="#191970" stroke="#191970" points="875.1819,-133.6427 864.6256,-134.5458 873.441,-140.4228 875.1819,-133.6427"/>
</g>
<!-- Node39 -->
<g id="node39" class="node">
<title>Node39</title>
<polygon fill="none" stroke="#bfbfbf" points="1383.5,-228.5 1383.5,-248.5 1435.5,-248.5 1435.5,-228.5 1383.5,-228.5"/>
<text text-anchor="middle" x="1409.5" y="-235.5" font-family="FreeSans" font-size="10.00" fill="#000000">math.h</text>
</g>
<!-- Node38&#45;&gt;Node39 -->
<g id="edge57" class="edge">
<title>Node38&#45;&gt;Node39</title>
<path fill="none" stroke="#191970" d="M1476.84,-285.3095C1464.4798,-276.7177 1446.5809,-264.2758 1432.3429,-254.3786"/>
<polygon fill="#191970" stroke="#191970" points="1434.2419,-251.4361 1424.033,-248.6022 1430.2464,-257.1839 1434.2419,-251.4361"/>
</g>
<!-- Node40 -->
<g id="node40" class="node">
<title>Node40</title>
<g id="a_node40"><a xlink:href="../../d4/d88/FairHit_8h.html" target="_top" xlink:title="FairHit.h">
<polygon fill="none" stroke="#000000" points="1491.5,-228.5 1491.5,-248.5 1549.5,-248.5 1549.5,-228.5 1491.5,-228.5"/>
<text text-anchor="middle" x="1520.5" y="-235.5" font-family="FreeSans" font-size="10.00" fill="#000000">FairHit.h</text>
</a>
</g>
</g>
<!-- Node38&#45;&gt;Node40 -->
<g id="edge59" class="edge">
<title>Node38&#45;&gt;Node40</title>
<path fill="none" stroke="#191970" d="M1496.6846,-285.3095C1500.6023,-277.6093 1506.0933,-266.8166 1510.8156,-257.5349"/>
<polygon fill="#191970" stroke="#191970" points="1513.9451,-259.1021 1515.3603,-248.6022 1507.7062,-255.9279 1513.9451,-259.1021"/>
</g>
<!-- Node47 -->
<g id="node47" class="node">
<title>Node47</title>
<g id="a_node47"><a xlink:href="../../d0/db7/EicMoCaPoint_8h.html" target="_top" xlink:title="EicMoCaPoint.h">
<polygon fill="none" stroke="#000000" points="1585,-228.5 1585,-248.5 1678,-248.5 1678,-228.5 1585,-228.5"/>
<text text-anchor="middle" x="1631.5" y="-235.5" font-family="FreeSans" font-size="10.00" fill="#000000">EicMoCaPoint.h</text>
</a>
</g>
</g>
<!-- Node38&#45;&gt;Node47 -->
<g id="edge74" class="edge">
<title>Node38&#45;&gt;Node47</title>
<path fill="none" stroke="#191970" d="M1516.2069,-285.4408C1538.6599,-276.2992 1572.0084,-262.7216 1597.0712,-252.5174"/>
<polygon fill="#191970" stroke="#191970" points="1598.6272,-255.663 1606.5692,-248.6504 1595.9875,-249.1797 1598.6272,-255.663"/>
</g>
<!-- Node40&#45;&gt;Node3 -->
<g id="edge72" class="edge">
<title>Node40&#45;&gt;Node3</title>
<path fill="none" stroke="#191970" d="M1501.0815,-228.3998C1487.7131,-220.3829 1470.7548,-207.8905 1461.5,-192 1442.4247,-159.2478 1440.4708,-113.7657 1441.1976,-87.8111"/>
<polygon fill="#191970" stroke="#191970" points="1444.7005,-87.822 1441.6495,-77.676 1437.7074,-87.5101 1444.7005,-87.822"/>
</g>
<!-- Node41 -->
<g id="node41" class="node">
<title>Node41</title>
<g id="a_node41"><a xlink:href="../../d4/dd4/FairTimeStamp_8h.html" target="_top" xlink:title="FairTimeStamp.h">
<polygon fill="none" stroke="#000000" points="1470,-171.5 1470,-191.5 1571,-191.5 1571,-171.5 1470,-171.5"/>
<text text-anchor="middle" x="1520.5" y="-178.5" font-family="FreeSans" font-size="10.00" fill="#000000">FairTimeStamp.h</text>
</a>
</g>
</g>
<!-- Node40&#45;&gt;Node41 -->
<g id="edge60" class="edge">
<title>Node40&#45;&gt;Node41</title>
<path fill="none" stroke="#191970" d="M1520.5,-228.3095C1520.5,-220.9335 1520.5,-210.72 1520.5,-201.715"/>
<polygon fill="#191970" stroke="#191970" points="1524.0001,-201.6022 1520.5,-191.6022 1517.0001,-201.6023 1524.0001,-201.6022"/>
</g>
<!-- Node42 -->
<g id="node42" class="node">
<title>Node42</title>
<g id="a_node42"><a xlink:href="../../d8/d4b/FairMultiLinkedData_8h.html" target="_top" xlink:title="FairMultiLinkedData.h">
<polygon fill="none" stroke="#000000" points="1568,-114.5 1568,-134.5 1693,-134.5 1693,-114.5 1568,-114.5"/>
<text text-anchor="middle" x="1630.5" y="-121.5" font-family="FreeSans" font-size="10.00" fill="#000000">FairMultiLinkedData.h</text>
</a>
</g>
</g>
<!-- Node41&#45;&gt;Node42 -->
<g id="edge61" class="edge">
<title>Node41&#45;&gt;Node42</title>
<path fill="none" stroke="#191970" d="M1539.9126,-171.4408C1557.0859,-162.5419 1582.3714,-149.4394 1601.8669,-139.3371"/>
<polygon fill="#191970" stroke="#191970" points="1603.643,-142.3589 1610.9115,-134.6504 1600.4224,-136.1437 1603.643,-142.3589"/>
</g>
<!-- Node42&#45;&gt;Node11 -->
<g id="edge67" class="edge">
<title>Node42&#45;&gt;Node11</title>
<path fill="none" stroke="#191970" d="M1679.7374,-114.4408C1727.4015,-104.7029 1799.7036,-89.9315 1850.4403,-79.566"/>
<polygon fill="#191970" stroke="#191970" points="1851.1894,-82.9853 1860.2864,-77.5544 1849.7882,-76.127 1851.1894,-82.9853"/>
</g>
<!-- Node42&#45;&gt;Node12 -->
<g id="edge69" class="edge">
<title>Node42&#45;&gt;Node12</title>
<path fill="none" stroke="#191970" d="M1619.7426,-114.2551C1603.3602,-99.2559 1570.5583,-71.529 1537.5,-57 1476.2123,-30.0643 1398.7838,-18.5329 1351.4897,-13.7386"/>
<polygon fill="#191970" stroke="#191970" points="1351.5843,-10.2317 1341.2962,-12.7627 1350.9171,-17.1999 1351.5843,-10.2317"/>
</g>
<!-- Node42&#45;&gt;Node27 -->
<g id="edge70" class="edge">
<title>Node42&#45;&gt;Node27</title>
<path fill="none" stroke="#191970" d="M1609.6756,-114.4408C1589.5941,-104.7404 1559.1723,-90.0451 1537.7267,-79.6858"/>
<polygon fill="#191970" stroke="#191970" points="1539.1012,-76.4628 1528.5743,-75.2647 1536.0564,-82.766 1539.1012,-76.4628"/>
</g>
<!-- Node43 -->
<g id="node43" class="node">
<title>Node43</title>
<g id="a_node43"><a xlink:href="../../d2/d2b/FairLink_8h.html" target="_top" xlink:title="FairLink.h">
<polygon fill="none" stroke="#000000" points="1694.5,-57.5 1694.5,-77.5 1758.5,-77.5 1758.5,-57.5 1694.5,-57.5"/>
<text text-anchor="middle" x="1726.5" y="-64.5" font-family="FreeSans" font-size="10.00" fill="#000000">FairLink.h</text>
</a>
</g>
</g>
<!-- Node42&#45;&gt;Node43 -->
<g id="edge62" class="edge">
<title>Node42&#45;&gt;Node43</title>
<path fill="none" stroke="#191970" d="M1647.6629,-114.3095C1662.4064,-105.5556 1683.8812,-92.8049 1700.696,-82.8211"/>
<polygon fill="#191970" stroke="#191970" points="1702.6741,-85.7172 1709.4857,-77.6022 1699.1002,-79.6982 1702.6741,-85.7172"/>
</g>
<!-- Node44 -->
<g id="node44" class="node">
<title>Node44</title>
<polygon fill="none" stroke="#bfbfbf" points="1704,-.5 1704,-20.5 1749,-20.5 1749,-.5 1704,-.5"/>
<text text-anchor="middle" x="1726.5" y="-7.5" font-family="FreeSans" font-size="10.00" fill="#000000">utility</text>
</g>
<!-- Node42&#45;&gt;Node44 -->
<g id="edge71" class="edge">
<title>Node42&#45;&gt;Node44</title>
<path fill="none" stroke="#191970" d="M1678.3706,-114.4638C1713.4661,-106.0217 1756.783,-92.955 1767.5,-78 1779.402,-61.3914 1763.5536,-41.2458 1748.2299,-27.3092"/>
<polygon fill="#191970" stroke="#191970" points="1750.2927,-24.4684 1740.4141,-20.6389 1745.7485,-29.7929 1750.2927,-24.4684"/>
</g>
<!-- Node46 -->
<g id="node46" class="node">
<title>Node46</title>
<polygon fill="none" stroke="#bfbfbf" points="1584.5,-57.5 1584.5,-77.5 1676.5,-77.5 1676.5,-57.5 1584.5,-57.5"/>
<text text-anchor="middle" x="1630.5" y="-64.5" font-family="FreeSans" font-size="10.00" fill="#000000">TClonesArray.h</text>
</g>
<!-- Node42&#45;&gt;Node46 -->
<g id="edge68" class="edge">
<title>Node42&#45;&gt;Node46</title>
<path fill="none" stroke="#191970" d="M1630.5,-114.3095C1630.5,-106.9335 1630.5,-96.72 1630.5,-87.715"/>
<polygon fill="#191970" stroke="#191970" points="1634.0001,-87.6022 1630.5,-77.6022 1627.0001,-87.6023 1634.0001,-87.6022"/>
</g>
<!-- Node43&#45;&gt;Node12 -->
<g id="edge63" class="edge">
<title>Node43&#45;&gt;Node12</title>
<path fill="none" stroke="#191970" d="M1694.3582,-58.8542C1691.3745,-58.177 1688.388,-57.5456 1685.5,-57 1565.4619,-34.3228 1421.7479,-20.1169 1351.4726,-13.9962"/>
<polygon fill="#191970" stroke="#191970" points="1351.5066,-10.4864 1341.2437,-13.1175 1350.9074,-17.4607 1351.5066,-10.4864"/>
</g>
<!-- Node43&#45;&gt;Node13 -->
<g id="edge64" class="edge">
<title>Node43&#45;&gt;Node13</title>
<path fill="none" stroke="#191970" d="M1694.3797,-58.7342C1691.3915,-58.0822 1688.3981,-57.4894 1685.5,-57 1660.3743,-52.7568 1299.0284,-23.7636 1174.3956,-13.8305"/>
<polygon fill="#191970" stroke="#191970" points="1174.3618,-10.3168 1164.1155,-13.0116 1173.8059,-17.2947 1174.3618,-10.3168"/>
</g>
<!-- Node43&#45;&gt;Node44 -->
<g id="edge65" class="edge">
<title>Node43&#45;&gt;Node44</title>
<path fill="none" stroke="#191970" d="M1726.5,-57.3095C1726.5,-49.9335 1726.5,-39.72 1726.5,-30.715"/>
<polygon fill="#191970" stroke="#191970" points="1730.0001,-30.6022 1726.5,-20.6022 1723.0001,-30.6023 1730.0001,-30.6022"/>
</g>
<!-- Node45 -->
<g id="node45" class="node">
<title>Node45</title>
<polygon fill="none" stroke="#bfbfbf" points="1625.5,-.5 1625.5,-20.5 1685.5,-20.5 1685.5,-.5 1625.5,-.5"/>
<text text-anchor="middle" x="1655.5" y="-7.5" font-family="FreeSans" font-size="10.00" fill="#000000">iostream</text>
</g>
<!-- Node43&#45;&gt;Node45 -->
<g id="edge66" class="edge">
<title>Node43&#45;&gt;Node45</title>
<path fill="none" stroke="#191970" d="M1713.8066,-57.3095C1703.3064,-48.8798 1688.1898,-36.7439 1675.9798,-26.9415"/>
<polygon fill="#191970" stroke="#191970" points="1678.0726,-24.1333 1668.0835,-20.6022 1673.6903,-29.5919 1678.0726,-24.1333"/>
</g>
<!-- Node47&#45;&gt;Node8 -->
<g id="edge78" class="edge">
<title>Node47&#45;&gt;Node8</title>
<path fill="none" stroke="#191970" d="M1647.4114,-228.3095C1660.9534,-219.6366 1680.6207,-207.0407 1696.1434,-197.0992"/>
<polygon fill="#191970" stroke="#191970" points="1698.193,-199.9429 1704.7263,-191.6022 1694.4177,-194.0481 1698.193,-199.9429"/>
</g>
<!-- Node48 -->
<g id="node48" class="node">
<title>Node48</title>
<g id="a_node48"><a xlink:href="../../d1/d72/FairMCPoint_8h.html" target="_top" xlink:title="FairMCPoint.h">
<polygon fill="none" stroke="#000000" points="1589.5,-171.5 1589.5,-191.5 1673.5,-191.5 1673.5,-171.5 1589.5,-171.5"/>
<text text-anchor="middle" x="1631.5" y="-178.5" font-family="FreeSans" font-size="10.00" fill="#000000">FairMCPoint.h</text>
</a>
</g>
</g>
<!-- Node47&#45;&gt;Node48 -->
<g id="edge75" class="edge">
<title>Node47&#45;&gt;Node48</title>
<path fill="none" stroke="#191970" d="M1631.5,-228.3095C1631.5,-220.9335 1631.5,-210.72 1631.5,-201.715"/>
<polygon fill="#191970" stroke="#191970" points="1635.0001,-201.6022 1631.5,-191.6022 1628.0001,-201.6023 1635.0001,-201.6022"/>
</g>
<!-- Node48&#45;&gt;Node3 -->
<g id="edge77" class="edge">
<title>Node48&#45;&gt;Node3</title>
<path fill="none" stroke="#191970" d="M1614.7275,-171.3833C1581.5234,-151.3554 1507.2416,-106.5505 1467.9666,-82.8608"/>
<polygon fill="#191970" stroke="#191970" points="1469.6056,-79.762 1459.2349,-77.5941 1465.9901,-85.7561 1469.6056,-79.762"/>
</g>
<!-- Node48&#45;&gt;Node42 -->
<g id="edge76" class="edge">
<title>Node48&#45;&gt;Node42</title>
<path fill="none" stroke="#191970" d="M1631.3212,-171.3095C1631.1918,-163.9335 1631.0126,-153.72 1630.8546,-144.715"/>
<polygon fill="#191970" stroke="#191970" points="1634.3522,-144.5393 1630.6772,-134.6022 1627.3533,-144.6621 1634.3522,-144.5393"/>
</g>
</g>
</svg>
