<?xml version="1.0" encoding="UTF-8" standalone="no"?>
<!DOCTYPE svg PUBLIC "-//W3C//DTD SVG 1.1//EN"
 "http://www.w3.org/Graphics/SVG/1.1/DTD/svg11.dtd">
<!-- Generated by graphviz version 2.40.1 (20161225.0304)
 -->
<!-- Title: PHG4PhenixDetector::GetPhysicalVolume Pages: 1 -->
<svg width="879pt" height="197pt"
 viewBox="0.00 0.00 879.00 197.00" xmlns="http://www.w3.org/2000/svg" xmlns:xlink="http://www.w3.org/1999/xlink">
<g id="graph0" class="graph" transform="scale(1 1) rotate(0) translate(4 193)">
<title>PHG4PhenixDetector::GetPhysicalVolume</title>
<!-- Node1 -->
<g id="node1" class="node">
<title>Node1</title>
<polygon fill="#bfbfbf" stroke="#000000" points="0,-103.5 0,-135.5 122,-135.5 122,-103.5 0,-103.5"/>
<text text-anchor="start" x="8" y="-122.5" font-family="FreeSans" font-size="10.00" fill="#000000">PHG4PhenixDetector</text>
<text text-anchor="middle" x="61" y="-110.5" font-family="FreeSans" font-size="10.00" fill="#000000">::GetPhysicalVolume</text>
</g>
<!-- Node2 -->
<g id="node2" class="node">
<title>Node2</title>
<g id="a_node2"><a xlink:href="../../d0/d78/classPHG4Reco.html#abfcea42df8b2464c689c5c24a8241e32" target="_top" xlink:title="PHG4Reco::ApplyDisplayAction">
<polygon fill="none" stroke="#000000" points="335,-129.5 335,-149.5 508,-149.5 508,-129.5 335,-129.5"/>
<text text-anchor="middle" x="421.5" y="-136.5" font-family="FreeSans" font-size="10.00" fill="#000000">PHG4Reco::ApplyDisplayAction</text>
</a>
</g>
</g>
<!-- Node1&#45;&gt;Node2 -->
<g id="edge1" class="edge">
<title>Node1&#45;&gt;Node2</title>
<path fill="none" stroke="#191970" d="M132.3505,-123.4584C190.4628,-126.6824 272.7311,-131.2465 334.6656,-134.6826"/>
<polygon fill="#191970" stroke="#191970" points="132.3325,-119.9521 122.1539,-122.8927 131.9446,-126.9414 132.3325,-119.9521"/>
</g>
<!-- Node12 -->
<g id="node12" class="node">
<title>Node12</title>
<g id="a_node12"><a xlink:href="../../d0/d78/classPHG4Reco.html#a490f5037508d384c5b60855ef0f7e227" target="_top" xlink:title="PHG4Reco::Dump_GDML">
<polygon fill="none" stroke="#000000" points="158,-90.5 158,-110.5 299,-110.5 299,-90.5 158,-90.5"/>
<text text-anchor="middle" x="228.5" y="-97.5" font-family="FreeSans" font-size="10.00" fill="#000000">PHG4Reco::Dump_GDML</text>
</a>
</g>
</g>
<!-- Node1&#45;&gt;Node12 -->
<g id="edge11" class="edge">
<title>Node1&#45;&gt;Node12</title>
<path fill="none" stroke="#191970" d="M132.5072,-111.3887C140.8635,-110.4409 149.3861,-109.4741 157.7324,-108.5274"/>
<polygon fill="#191970" stroke="#191970" points="131.9615,-107.9281 122.4197,-112.533 132.7505,-114.8835 131.9615,-107.9281"/>
</g>
<!-- Node3 -->
<g id="node3" class="node">
<title>Node3</title>
<g id="a_node3"><a xlink:href="../../d5/d57/fun4all__eic__tutorials_2blob_2master_2MagneticField_2DisplayOn_8C.html#a36f5cc4ebb7cd23dac7e492d5c38fbc0" target="_top" xlink:title="QTGui">
<polygon fill="none" stroke="#000000" points="596.5,-129.5 596.5,-149.5 643.5,-149.5 643.5,-129.5 596.5,-129.5"/>
<text text-anchor="middle" x="620" y="-136.5" font-family="FreeSans" font-size="10.00" fill="#000000">QTGui</text>
</a>
</g>
</g>
<!-- Node2&#45;&gt;Node3 -->
<g id="edge2" class="edge">
<title>Node2&#45;&gt;Node3</title>
<path fill="none" stroke="#191970" d="M518.4858,-139.5C547.4259,-139.5 576.6227,-139.5 596.2273,-139.5"/>
<polygon fill="#191970" stroke="#191970" points="518.2763,-136.0001 508.2762,-139.5 518.2762,-143.0001 518.2763,-136.0001"/>
</g>
<!-- Node4 -->
<g id="node4" class="node">
<title>Node4</title>
<g id="a_node4"><a xlink:href="../../d5/d57/fun4all__eic__tutorials_2blob_2master_2MagneticField_2DisplayOn_8C.html#a8ac4d6fb78f920957b354f88d6195f54" target="_top" xlink:title="DisplayOn">
<polygon fill="none" stroke="#000000" points="586,-90.5 586,-110.5 654,-110.5 654,-90.5 586,-90.5"/>
<text text-anchor="middle" x="620" y="-97.5" font-family="FreeSans" font-size="10.00" fill="#000000">DisplayOn</text>
</a>
</g>
</g>
<!-- Node2&#45;&gt;Node4 -->
<g id="edge3" class="edge">
<title>Node2&#45;&gt;Node4</title>
<path fill="none" stroke="#191970" d="M482.4618,-127.5226C516.4634,-120.8422 557.5459,-112.7706 585.9084,-107.1981"/>
<polygon fill="#191970" stroke="#191970" points="481.7563,-124.0942 472.6187,-129.4565 483.1059,-130.9629 481.7563,-124.0942"/>
</g>
<!-- Node10 -->
<g id="node10" class="node">
<title>Node10</title>
<g id="a_node10"><a xlink:href="../../d5/df2/Fun4All__EIC__Generator__Display_8C.html#a276181099936efe81415286b29f36e51" target="_top" xlink:title="Fun4All_EIC_Generator\l_Display">
<polygon fill="none" stroke="#000000" points="554,-39.5 554,-71.5 686,-71.5 686,-39.5 554,-39.5"/>
<text text-anchor="start" x="562" y="-58.5" font-family="FreeSans" font-size="10.00" fill="#000000">Fun4All_EIC_Generator</text>
<text text-anchor="middle" x="620" y="-46.5" font-family="FreeSans" font-size="10.00" fill="#000000">_Display</text>
</a>
</g>
</g>
<!-- Node2&#45;&gt;Node10 -->
<g id="edge9" class="edge">
<title>Node2&#45;&gt;Node10</title>
<path fill="none" stroke="#191970" d="M497.2668,-125.8625C500.9828,-124.2682 504.5845,-122.4879 508,-120.5 528.6712,-108.4688 523.9662,-93.5651 544,-80.5 549.1192,-77.1615 554.7237,-74.2321 560.4956,-71.6698"/>
<polygon fill="#191970" stroke="#191970" points="495.9347,-122.6246 487.8353,-129.4547 498.4262,-129.1662 495.9347,-122.6246"/>
</g>
<!-- Node11 -->
<g id="node11" class="node">
<title>Node11</title>
<g id="a_node11"><a xlink:href="../../d4/dfa/Fun4All__Generator__Display_8C.html#af87924a94b22e18901f0d64805565f09" target="_top" xlink:title="Fun4All_Generator_Display">
<polygon fill="none" stroke="#000000" points="544,-168.5 544,-188.5 696,-188.5 696,-168.5 544,-168.5"/>
<text text-anchor="middle" x="620" y="-175.5" font-family="FreeSans" font-size="10.00" fill="#000000">Fun4All_Generator_Display</text>
</a>
</g>
</g>
<!-- Node2&#45;&gt;Node11 -->
<g id="edge10" class="edge">
<title>Node2&#45;&gt;Node11</title>
<path fill="none" stroke="#191970" d="M482.5946,-151.5035C510.3005,-156.9469 542.6855,-163.3098 569.0545,-168.4906"/>
<polygon fill="#191970" stroke="#191970" points="483.1059,-148.0371 472.6187,-149.5435 481.7563,-154.9058 483.1059,-148.0371"/>
</g>
<!-- Node5 -->
<g id="node5" class="node">
<title>Node5</title>
<g id="a_node5"><a xlink:href="../../db/dc0/Fun4All__AnaTutorial_8C.html#a8c484ea6d7477278e981ef056b17eac9" target="_top" xlink:title="Fun4All_AnaTutorial">
<polygon fill="none" stroke="#000000" points="744,-168.5 744,-188.5 859,-188.5 859,-168.5 744,-168.5"/>
<text text-anchor="middle" x="801.5" y="-175.5" font-family="FreeSans" font-size="10.00" fill="#000000">Fun4All_AnaTutorial</text>
</a>
</g>
</g>
<!-- Node4&#45;&gt;Node5 -->
<g id="edge4" class="edge">
<title>Node4&#45;&gt;Node5</title>
<path fill="none" stroke="#191970" d="M664.0412,-107.5949C674.9799,-110.5422 686.3315,-114.6867 696,-120.5 716.2162,-132.6553 711.842,-147.2484 732,-159.5 737.986,-163.1382 744.6788,-166.0938 751.4828,-168.4914"/>
<polygon fill="#191970" stroke="#191970" points="664.7138,-104.1568 654.1716,-105.2113 663.0705,-110.9612 664.7138,-104.1568"/>
</g>
<!-- Node6 -->
<g id="node6" class="node">
<title>Node6</title>
<g id="a_node6"><a xlink:href="../../dd/d28/Fun4All__AnaTutorial__Jets_8C.html#a55eaaeb770a3177f917012de87877d28" target="_top" xlink:title="Fun4All_AnaTutorial_Jets">
<polygon fill="none" stroke="#000000" points="732,-129.5 732,-149.5 871,-149.5 871,-129.5 732,-129.5"/>
<text text-anchor="middle" x="801.5" y="-136.5" font-family="FreeSans" font-size="10.00" fill="#000000">Fun4All_AnaTutorial_Jets</text>
</a>
</g>
</g>
<!-- Node4&#45;&gt;Node6 -->
<g id="edge5" class="edge">
<title>Node4&#45;&gt;Node6</title>
<path fill="none" stroke="#191970" d="M664.2495,-110.0082C691.7069,-115.9081 726.9461,-123.4801 754.8421,-129.4743"/>
<polygon fill="#191970" stroke="#191970" points="664.6509,-106.5146 654.1388,-107.8356 663.1803,-113.3584 664.6509,-106.5146"/>
</g>
<!-- Node7 -->
<g id="node7" class="node">
<title>Node7</title>
<g id="a_node7"><a xlink:href="../../d7/d9e/Fun4All__G4__fsPHENIX_8C.html#a72c444217210a14ab1b4e66d9818b1ff" target="_top" xlink:title="Fun4All_G4_fsPHENIX">
<polygon fill="none" stroke="#000000" points="739.5,-90.5 739.5,-110.5 863.5,-110.5 863.5,-90.5 739.5,-90.5"/>
<text text-anchor="middle" x="801.5" y="-97.5" font-family="FreeSans" font-size="10.00" fill="#000000">Fun4All_G4_fsPHENIX</text>
</a>
</g>
</g>
<!-- Node4&#45;&gt;Node7 -->
<g id="edge6" class="edge">
<title>Node4&#45;&gt;Node7</title>
<path fill="none" stroke="#191970" d="M664.4094,-100.5C686.9196,-100.5 714.6288,-100.5 739.2304,-100.5"/>
<polygon fill="#191970" stroke="#191970" points="664.1388,-97.0001 654.1388,-100.5 664.1387,-104.0001 664.1388,-97.0001"/>
</g>
<!-- Node8 -->
<g id="node8" class="node">
<title>Node8</title>
<g id="a_node8"><a xlink:href="../../d0/d87/Fun4All__G4__JLeic_8C.html#a66e8fc0b01ee0a8e805c7b99c4698974" target="_top" xlink:title="Fun4All_G4_JLeic">
<polygon fill="none" stroke="#000000" points="751,-51.5 751,-71.5 852,-71.5 852,-51.5 751,-51.5"/>
<text text-anchor="middle" x="801.5" y="-58.5" font-family="FreeSans" font-size="10.00" fill="#000000">Fun4All_G4_JLeic</text>
</a>
</g>
</g>
<!-- Node4&#45;&gt;Node8 -->
<g id="edge7" class="edge">
<title>Node4&#45;&gt;Node8</title>
<path fill="none" stroke="#191970" d="M664.2495,-90.9918C691.7069,-85.0919 726.9461,-77.5199 754.8421,-71.5257"/>
<polygon fill="#191970" stroke="#191970" points="663.1803,-87.6416 654.1388,-93.1644 664.6509,-94.4854 663.1803,-87.6416"/>
</g>
<!-- Node9 -->
<g id="node9" class="node">
<title>Node9</title>
<g id="a_node9"><a xlink:href="../../d0/d13/Fun4All__G4__sPHENIX_8C.html#a536fa7366e3aeaf273cca94ced704c46" target="_top" xlink:title="Fun4All_G4_sPHENIX">
<polygon fill="none" stroke="#000000" points="741,-12.5 741,-32.5 862,-32.5 862,-12.5 741,-12.5"/>
<text text-anchor="middle" x="801.5" y="-19.5" font-family="FreeSans" font-size="10.00" fill="#000000">Fun4All_G4_sPHENIX</text>
</a>
</g>
</g>
<!-- Node4&#45;&gt;Node9 -->
<g id="edge8" class="edge">
<title>Node4&#45;&gt;Node9</title>
<path fill="none" stroke="#191970" d="M664.0412,-93.4051C674.9799,-90.4578 686.3315,-86.3133 696,-80.5 716.2162,-68.3447 711.842,-53.7516 732,-41.5 737.986,-37.8618 744.6788,-34.9062 751.4828,-32.5086"/>
<polygon fill="#191970" stroke="#191970" points="663.0705,-90.0388 654.1716,-95.7887 664.7138,-96.8432 663.0705,-90.0388"/>
</g>
<!-- Node13 -->
<g id="node13" class="node">
<title>Node13</title>
<g id="a_node13"><a xlink:href="../../d0/d78/classPHG4Reco.html#a9d8228ce8682c19cd6be2f6b44ec847b" target="_top" xlink:title="PHG4Reco::InitRun">
<polygon fill="none" stroke="#000000" points="366.5,-90.5 366.5,-110.5 476.5,-110.5 476.5,-90.5 366.5,-90.5"/>
<text text-anchor="middle" x="421.5" y="-97.5" font-family="FreeSans" font-size="10.00" fill="#000000">PHG4Reco::InitRun</text>
</a>
</g>
</g>
<!-- Node12&#45;&gt;Node13 -->
<g id="edge12" class="edge">
<title>Node12&#45;&gt;Node13</title>
<path fill="none" stroke="#191970" d="M309.5166,-100.5C328.7053,-100.5 348.7326,-100.5 366.4563,-100.5"/>
<polygon fill="#191970" stroke="#191970" points="309.2702,-97.0001 299.2702,-100.5 309.2701,-104.0001 309.2702,-97.0001"/>
</g>
<!-- Node13&#45;&gt;Node3 -->
<g id="edge13" class="edge">
<title>Node13&#45;&gt;Node3</title>
<path fill="none" stroke="#191970" d="M482.6836,-112.521C521.1049,-120.0697 568.4962,-129.3809 596.3656,-134.8565"/>
<polygon fill="#191970" stroke="#191970" points="483.1059,-109.0371 472.6187,-110.5435 481.7563,-115.9058 483.1059,-109.0371"/>
</g>
<!-- Node13&#45;&gt;Node4 -->
<g id="edge14" class="edge">
<title>Node13&#45;&gt;Node4</title>
<path fill="none" stroke="#191970" d="M486.5958,-100.5C519.6898,-100.5 558.5537,-100.5 585.7694,-100.5"/>
<polygon fill="#191970" stroke="#191970" points="486.5297,-97.0001 476.5297,-100.5 486.5297,-104.0001 486.5297,-97.0001"/>
</g>
<!-- Node13&#45;&gt;Node10 -->
<g id="edge15" class="edge">
<title>Node13&#45;&gt;Node10</title>
<path fill="none" stroke="#191970" d="M476.0495,-88.1336C500.0707,-82.688 528.5078,-76.2413 553.7364,-70.522"/>
<polygon fill="#191970" stroke="#191970" points="475.026,-84.7768 466.0473,-90.4011 476.5737,-91.6035 475.026,-84.7768"/>
</g>
<!-- Node13&#45;&gt;Node11 -->
<g id="edge16" class="edge">
<title>Node13&#45;&gt;Node11</title>
<path fill="none" stroke="#191970" d="M486.7307,-111.0847C494.1619,-113.5857 501.4205,-116.6776 508,-120.5 528.3968,-132.3497 523.7092,-147.4697 544,-159.5 550.0834,-163.1068 556.8312,-166.0323 563.7224,-168.4044"/>
<polygon fill="#191970" stroke="#191970" points="487.4894,-107.6579 476.9049,-108.1254 485.4708,-114.3606 487.4894,-107.6579"/>
</g>
<!-- Node14 -->
<g id="node14" class="node">
<title>Node14</title>
<g id="a_node14"><a xlink:href="../../d9/d1d/matscan_8C.html#a98ccbc6135fead542f3c4d1dd6882d63" target="_top" xlink:title="matscan">
<polygon fill="none" stroke="#000000" points="590.5,-.5 590.5,-20.5 649.5,-20.5 649.5,-.5 590.5,-.5"/>
<text text-anchor="middle" x="620" y="-7.5" font-family="FreeSans" font-size="10.00" fill="#000000">matscan</text>
</a>
</g>
</g>
<!-- Node13&#45;&gt;Node14 -->
<g id="edge17" class="edge">
<title>Node13&#45;&gt;Node14</title>
<path fill="none" stroke="#191970" d="M444.2657,-84.6803C468.1418,-68.7322 507.2358,-44.4032 544,-29.5 558.747,-23.522 575.889,-19.0396 590.1565,-15.9344"/>
<polygon fill="#191970" stroke="#191970" points="442.216,-81.8413 435.8966,-90.3451 446.1398,-87.6382 442.216,-81.8413"/>
</g>
</g>
</svg>
