<?xml version="1.0" encoding="UTF-8" standalone="no"?>
<!DOCTYPE svg PUBLIC "-//W3C//DTD SVG 1.1//EN"
 "http://www.w3.org/Graphics/SVG/1.1/DTD/svg11.dtd">
<!-- Generated by graphviz version 2.40.1 (20161225.0304)
 -->
<!-- Title: fun4all_coresoftware/blob/master/simulation/g4simulation/g4eval/SvtxEvalStack.h Pages: 1 -->
<svg width="1504pt" height="389pt"
 viewBox="0.00 0.00 1504.00 389.00" xmlns="http://www.w3.org/2000/svg" xmlns:xlink="http://www.w3.org/1999/xlink">
<g id="graph0" class="graph" transform="scale(1 1) rotate(0) translate(4 385)">
<title>fun4all_coresoftware/blob/master/simulation/g4simulation/g4eval/SvtxEvalStack.h</title>
<!-- Node1 -->
<g id="node1" class="node">
<title>Node1</title>
<polygon fill="#bfbfbf" stroke="#000000" points="756.5,-336.5 756.5,-380.5 964.5,-380.5 964.5,-336.5 756.5,-336.5"/>
<text text-anchor="start" x="764.5" y="-367.5" font-family="FreeSans" font-size="10.00" fill="#000000">fun4all_coresoftware</text>
<text text-anchor="start" x="764.5" y="-355.5" font-family="FreeSans" font-size="10.00" fill="#000000">/blob/master/simulation</text>
<text text-anchor="middle" x="860.5" y="-343.5" font-family="FreeSans" font-size="10.00" fill="#000000">/g4simulation/g4eval/SvtxEvalStack.h</text>
</g>
<!-- Node2 -->
<g id="node2" class="node">
<title>Node2</title>
<g id="a_node2"><a xlink:href="../../d4/d11/QAG4SimulationCalorimeterSum_8cc.html" target="_top" xlink:title="fun4all_coresoftware\l/blob/master/offline\l/QA/modules/QAG4SimulationCalorimeter\lSum.cc">
<polygon fill="none" stroke="#000000" points="0,-243.5 0,-299.5 229,-299.5 229,-243.5 0,-243.5"/>
<text text-anchor="start" x="8" y="-286.5" font-family="FreeSans" font-size="10.00" fill="#000000">fun4all_coresoftware</text>
<text text-anchor="start" x="8" y="-274.5" font-family="FreeSans" font-size="10.00" fill="#000000">/blob/master/offline</text>
<text text-anchor="start" x="8" y="-262.5" font-family="FreeSans" font-size="10.00" fill="#000000">/QA/modules/QAG4SimulationCalorimeter</text>
<text text-anchor="middle" x="114.5" y="-250.5" font-family="FreeSans" font-size="10.00" fill="#000000">Sum.cc</text>
</a>
</g>
</g>
<!-- Node1&#45;&gt;Node2 -->
<g id="edge1" class="edge">
<title>Node1&#45;&gt;Node2</title>
<path fill="none" stroke="#191970" d="M746.0127,-351.8699C621.7414,-343.6907 417.7049,-327.3958 243.5,-300 238.7419,-299.2517 233.8964,-298.4345 229.0099,-297.5645"/>
<polygon fill="#191970" stroke="#191970" points="746.0953,-355.3826 756.3018,-352.5405 746.5507,-348.3974 746.0953,-355.3826"/>
</g>
<!-- Node3 -->
<g id="node3" class="node">
<title>Node3</title>
<g id="a_node3"><a xlink:href="../../d4/d03/QAG4SimulationTracking_8h.html" target="_top" xlink:title="fun4all_coresoftware\l/blob/master/offline\l/QA/modules/QAG4SimulationTracking.h">
<polygon fill="none" stroke="#000000" points="285.5,-249.5 285.5,-293.5 505.5,-293.5 505.5,-249.5 285.5,-249.5"/>
<text text-anchor="start" x="293.5" y="-280.5" font-family="FreeSans" font-size="10.00" fill="#000000">fun4all_coresoftware</text>
<text text-anchor="start" x="293.5" y="-268.5" font-family="FreeSans" font-size="10.00" fill="#000000">/blob/master/offline</text>
<text text-anchor="middle" x="395.5" y="-256.5" font-family="FreeSans" font-size="10.00" fill="#000000">/QA/modules/QAG4SimulationTracking.h</text>
</a>
</g>
</g>
<!-- Node1&#45;&gt;Node3 -->
<g id="edge2" class="edge">
<title>Node1&#45;&gt;Node3</title>
<path fill="none" stroke="#191970" d="M746.1977,-341.1642C678.6008,-330.417 591.4334,-315.6977 514.5,-300 504.821,-298.0251 494.732,-295.8273 484.7012,-293.5528"/>
<polygon fill="#191970" stroke="#191970" points="746.0248,-344.6803 756.4492,-342.7875 747.1197,-337.7665 746.0248,-344.6803"/>
</g>
<!-- Node4 -->
<g id="node4" class="node">
<title>Node4</title>
<g id="a_node4"><a xlink:href="../../d8/d04/QAG4SimulationTracking_8cc.html" target="_top" xlink:title="fun4all_coresoftware\l/blob/master/offline\l/QA/modules/QAG4SimulationTracking.cc">
<polygon fill="none" stroke="#000000" points="159,-162.5 159,-206.5 384,-206.5 384,-162.5 159,-162.5"/>
<text text-anchor="start" x="167" y="-193.5" font-family="FreeSans" font-size="10.00" fill="#000000">fun4all_coresoftware</text>
<text text-anchor="start" x="167" y="-181.5" font-family="FreeSans" font-size="10.00" fill="#000000">/blob/master/offline</text>
<text text-anchor="middle" x="271.5" y="-169.5" font-family="FreeSans" font-size="10.00" fill="#000000">/QA/modules/QAG4SimulationTracking.cc</text>
</a>
</g>
</g>
<!-- Node1&#45;&gt;Node4 -->
<g id="edge4" class="edge">
<title>Node1&#45;&gt;Node4</title>
<path fill="none" stroke="#191970" d="M745.7571,-354.9356C584.8141,-348.7594 308.0442,-333.3813 276.5,-300 253.2031,-275.3463 258.4863,-232.9076 264.768,-206.9098"/>
<polygon fill="#191970" stroke="#191970" points="746.0619,-358.4495 756.1868,-355.3292 746.326,-351.4544 746.0619,-358.4495"/>
</g>
<!-- Node5 -->
<g id="node5" class="node">
<title>Node5</title>
<g id="a_node5"><a xlink:href="../../dc/dcd/QAG4SimulationUpsilon_8cc.html" target="_top" xlink:title="fun4all_coresoftware\l/blob/master/offline\l/QA/modules/QAG4SimulationUpsilon.cc">
<polygon fill="none" stroke="#000000" points="523.5,-249.5 523.5,-293.5 743.5,-293.5 743.5,-249.5 523.5,-249.5"/>
<text text-anchor="start" x="531.5" y="-280.5" font-family="FreeSans" font-size="10.00" fill="#000000">fun4all_coresoftware</text>
<text text-anchor="start" x="531.5" y="-268.5" font-family="FreeSans" font-size="10.00" fill="#000000">/blob/master/offline</text>
<text text-anchor="middle" x="633.5" y="-256.5" font-family="FreeSans" font-size="10.00" fill="#000000">/QA/modules/QAG4SimulationUpsilon.cc</text>
</a>
</g>
</g>
<!-- Node1&#45;&gt;Node5 -->
<g id="edge5" class="edge">
<title>Node1&#45;&gt;Node5</title>
<path fill="none" stroke="#191970" d="M793.4781,-332.8132C760.9251,-320.3369 722.2062,-305.4975 691.0138,-293.5427"/>
<polygon fill="#191970" stroke="#191970" points="792.3346,-336.1231 802.9249,-336.4338 794.8398,-329.5867 792.3346,-336.1231"/>
</g>
<!-- Node6 -->
<g id="node6" class="node">
<title>Node6</title>
<g id="a_node6"><a xlink:href="../../de/d49/JetTruthEval_8h.html" target="_top" xlink:title="fun4all_coresoftware\l/blob/master/simulation\l/g4simulation/g4eval/JetTruthEval.h">
<polygon fill="none" stroke="#000000" points="762,-249.5 762,-293.5 959,-293.5 959,-249.5 762,-249.5"/>
<text text-anchor="start" x="770" y="-280.5" font-family="FreeSans" font-size="10.00" fill="#000000">fun4all_coresoftware</text>
<text text-anchor="start" x="770" y="-268.5" font-family="FreeSans" font-size="10.00" fill="#000000">/blob/master/simulation</text>
<text text-anchor="middle" x="860.5" y="-256.5" font-family="FreeSans" font-size="10.00" fill="#000000">/g4simulation/g4eval/JetTruthEval.h</text>
</a>
</g>
</g>
<!-- Node1&#45;&gt;Node6 -->
<g id="edge6" class="edge">
<title>Node1&#45;&gt;Node6</title>
<path fill="none" stroke="#191970" d="M860.5,-326.0893C860.5,-315.2369 860.5,-303.3979 860.5,-293.5276"/>
<polygon fill="#191970" stroke="#191970" points="857.0001,-326.0953 860.5,-336.0953 864.0001,-326.0954 857.0001,-326.0953"/>
</g>
<!-- Node12 -->
<g id="node12" class="node">
<title>Node12</title>
<g id="a_node12"><a xlink:href="../../d0/d67/AnaTutorial_8cc.html" target="_top" xlink:title="fun4all_tutorials/blob\l/master/AnaTutorial/src\l/AnaTutorial.cc">
<polygon fill="none" stroke="#000000" points="958.5,-.5 958.5,-44.5 1092.5,-44.5 1092.5,-.5 958.5,-.5"/>
<text text-anchor="start" x="966.5" y="-31.5" font-family="FreeSans" font-size="10.00" fill="#000000">fun4all_tutorials/blob</text>
<text text-anchor="start" x="966.5" y="-19.5" font-family="FreeSans" font-size="10.00" fill="#000000">/master/AnaTutorial/src</text>
<text text-anchor="middle" x="1025.5" y="-7.5" font-family="FreeSans" font-size="10.00" fill="#000000">/AnaTutorial.cc</text>
</a>
</g>
</g>
<!-- Node1&#45;&gt;Node12 -->
<g id="edge23" class="edge">
<title>Node1&#45;&gt;Node12</title>
<path fill="none" stroke="#191970" d="M951.2701,-331.7572C965.9948,-323.7149 979.6279,-313.3419 989.5,-300 1047.5815,-221.5044 1036.6498,-95.2009 1029.2717,-44.5531"/>
<polygon fill="#191970" stroke="#191970" points="949.3182,-328.8228 941.9846,-336.4692 952.486,-335.0651 949.3182,-328.8228"/>
</g>
<!-- Node14 -->
<g id="node14" class="node">
<title>Node14</title>
<g id="a_node14"><a xlink:href="../../d2/da2/JetRecoEval_8cc.html" target="_top" xlink:title="fun4all_coresoftware\l/blob/master/simulation\l/g4simulation/g4eval/JetRecoEval.cc">
<polygon fill="none" stroke="#000000" points="796,-81.5 796,-125.5 997,-125.5 997,-81.5 796,-81.5"/>
<text text-anchor="start" x="804" y="-112.5" font-family="FreeSans" font-size="10.00" fill="#000000">fun4all_coresoftware</text>
<text text-anchor="start" x="804" y="-100.5" font-family="FreeSans" font-size="10.00" fill="#000000">/blob/master/simulation</text>
<text text-anchor="middle" x="896.5" y="-88.5" font-family="FreeSans" font-size="10.00" fill="#000000">/g4simulation/g4eval/JetRecoEval.cc</text>
</a>
</g>
</g>
<!-- Node1&#45;&gt;Node14 -->
<g id="edge20" class="edge">
<title>Node1&#45;&gt;Node14</title>
<path fill="none" stroke="#191970" d="M935.5318,-331.1534C948.2911,-323.0967 959.8669,-312.8726 967.5,-300 999.1094,-246.693 976.0932,-216.9838 947.5,-162 940.5997,-148.7309 930.0951,-135.9704 920.409,-125.7721"/>
<polygon fill="#191970" stroke="#191970" points="933.4215,-328.3321 926.5433,-336.3907 936.9457,-334.3803 933.4215,-328.3321"/>
</g>
<!-- Node16 -->
<g id="node16" class="node">
<title>Node16</title>
<g id="a_node16"><a xlink:href="../../d7/ded/SvtxEvalStack_8cc.html" target="_top" xlink:title="fun4all_coresoftware\l/blob/master/simulation\l/g4simulation/g4eval/SvtxEvalStack.cc">
<polygon fill="none" stroke="#000000" points="1054,-249.5 1054,-293.5 1267,-293.5 1267,-249.5 1054,-249.5"/>
<text text-anchor="start" x="1062" y="-280.5" font-family="FreeSans" font-size="10.00" fill="#000000">fun4all_coresoftware</text>
<text text-anchor="start" x="1062" y="-268.5" font-family="FreeSans" font-size="10.00" fill="#000000">/blob/master/simulation</text>
<text text-anchor="middle" x="1160.5" y="-256.5" font-family="FreeSans" font-size="10.00" fill="#000000">/g4simulation/g4eval/SvtxEvalStack.cc</text>
</a>
</g>
</g>
<!-- Node1&#45;&gt;Node16 -->
<g id="edge21" class="edge">
<title>Node1&#45;&gt;Node16</title>
<path fill="none" stroke="#191970" d="M946.317,-333.6131C989.896,-320.9752 1042.3826,-305.7541 1084.4906,-293.5427"/>
<polygon fill="#191970" stroke="#191970" points="945.2199,-330.2869 936.5905,-336.4338 947.1696,-337.0099 945.2199,-330.2869"/>
</g>
<!-- Node17 -->
<g id="node17" class="node">
<title>Node17</title>
<g id="a_node17"><a xlink:href="../../d7/dd1/SvtxEvaluator_8cc.html" target="_top" xlink:title="fun4all_coresoftware\l/blob/master/simulation\l/g4simulation/g4eval/SvtxEvaluator.cc">
<polygon fill="none" stroke="#000000" points="1285,-249.5 1285,-293.5 1496,-293.5 1496,-249.5 1285,-249.5"/>
<text text-anchor="start" x="1293" y="-280.5" font-family="FreeSans" font-size="10.00" fill="#000000">fun4all_coresoftware</text>
<text text-anchor="start" x="1293" y="-268.5" font-family="FreeSans" font-size="10.00" fill="#000000">/blob/master/simulation</text>
<text text-anchor="middle" x="1390.5" y="-256.5" font-family="FreeSans" font-size="10.00" fill="#000000">/g4simulation/g4eval/SvtxEvaluator.cc</text>
</a>
</g>
</g>
<!-- Node1&#45;&gt;Node17 -->
<g id="edge22" class="edge">
<title>Node1&#45;&gt;Node17</title>
<path fill="none" stroke="#191970" d="M974.927,-345.6992C1058.7957,-335.5193 1175.2046,-319.7274 1276.5,-300 1286.312,-298.0891 1296.5445,-295.8656 1306.6768,-293.5191"/>
<polygon fill="#191970" stroke="#191970" points="974.3726,-342.2406 964.8636,-346.9128 975.2107,-349.1903 974.3726,-342.2406"/>
</g>
<!-- Node3&#45;&gt;Node4 -->
<g id="edge3" class="edge">
<title>Node3&#45;&gt;Node4</title>
<path fill="none" stroke="#191970" d="M355.2905,-243.2885C338.3539,-231.4056 318.9318,-217.7788 303.0536,-206.6384"/>
<polygon fill="#191970" stroke="#191970" points="353.6924,-246.4427 363.8887,-249.3211 357.7128,-240.7125 353.6924,-246.4427"/>
</g>
<!-- Node7 -->
<g id="node7" class="node">
<title>Node7</title>
<g id="a_node7"><a xlink:href="../../d3/d23/QAG4SimulationJet_8cc.html" target="_top" xlink:title="fun4all_coresoftware\l/blob/master/offline\l/QA/modules/QAG4SimulationJet.cc">
<polygon fill="none" stroke="#000000" points="154.5,-.5 154.5,-44.5 350.5,-44.5 350.5,-.5 154.5,-.5"/>
<text text-anchor="start" x="162.5" y="-31.5" font-family="FreeSans" font-size="10.00" fill="#000000">fun4all_coresoftware</text>
<text text-anchor="start" x="162.5" y="-19.5" font-family="FreeSans" font-size="10.00" fill="#000000">/blob/master/offline</text>
<text text-anchor="middle" x="252.5" y="-7.5" font-family="FreeSans" font-size="10.00" fill="#000000">/QA/modules/QAG4SimulationJet.cc</text>
</a>
</g>
</g>
<!-- Node6&#45;&gt;Node7 -->
<g id="edge7" class="edge">
<title>Node6&#45;&gt;Node7</title>
<path fill="none" stroke="#191970" d="M771.3979,-247.1062C765.0222,-245.6319 758.6752,-244.2444 752.5,-243 639.867,-220.302 602.6131,-251.0613 496.5,-207 402.8187,-168.1007 313.1034,-84.5434 273.5844,-44.6198"/>
<polygon fill="#191970" stroke="#191970" points="770.882,-250.5809 781.4201,-249.4861 772.4994,-243.7703 770.882,-250.5809"/>
</g>
<!-- Node8 -->
<g id="node8" class="node">
<title>Node8</title>
<g id="a_node8"><a xlink:href="../../da/d50/JetRecoEval_8h.html" target="_top" xlink:title="fun4all_coresoftware\l/blob/master/simulation\l/g4simulation/g4eval/JetRecoEval.h">
<polygon fill="none" stroke="#000000" points="505.5,-162.5 505.5,-206.5 701.5,-206.5 701.5,-162.5 505.5,-162.5"/>
<text text-anchor="start" x="513.5" y="-193.5" font-family="FreeSans" font-size="10.00" fill="#000000">fun4all_coresoftware</text>
<text text-anchor="start" x="513.5" y="-181.5" font-family="FreeSans" font-size="10.00" fill="#000000">/blob/master/simulation</text>
<text text-anchor="middle" x="603.5" y="-169.5" font-family="FreeSans" font-size="10.00" fill="#000000">/g4simulation/g4eval/JetRecoEval.h</text>
</a>
</g>
</g>
<!-- Node6&#45;&gt;Node8 -->
<g id="edge8" class="edge">
<title>Node6&#45;&gt;Node8</title>
<path fill="none" stroke="#191970" d="M785.5681,-246.134C748.5186,-233.5919 704.2326,-218.6001 668.6147,-206.5427"/>
<polygon fill="#191970" stroke="#191970" points="784.7215,-249.5424 795.3158,-249.4338 786.9661,-242.912 784.7215,-249.5424"/>
</g>
<!-- Node6&#45;&gt;Node14 -->
<g id="edge18" class="edge">
<title>Node6&#45;&gt;Node14</title>
<path fill="none" stroke="#191970" d="M902.7288,-242.8206C913.8723,-232.9041 924.4625,-220.7728 930.5,-207 942.4216,-179.8041 926.9328,-147.0379 913.1702,-125.7625"/>
<polygon fill="#191970" stroke="#191970" points="900.387,-240.2166 894.9749,-249.3249 904.8857,-245.5796 900.387,-240.2166"/>
</g>
<!-- Node15 -->
<g id="node15" class="node">
<title>Node15</title>
<g id="a_node15"><a xlink:href="../../da/dbb/JetTruthEval_8cc.html" target="_top" xlink:title="fun4all_coresoftware\l/blob/master/simulation\l/g4simulation/g4eval/JetTruthEval.cc">
<polygon fill="none" stroke="#000000" points="719.5,-162.5 719.5,-206.5 921.5,-206.5 921.5,-162.5 719.5,-162.5"/>
<text text-anchor="start" x="727.5" y="-193.5" font-family="FreeSans" font-size="10.00" fill="#000000">fun4all_coresoftware</text>
<text text-anchor="start" x="727.5" y="-181.5" font-family="FreeSans" font-size="10.00" fill="#000000">/blob/master/simulation</text>
<text text-anchor="middle" x="820.5" y="-169.5" font-family="FreeSans" font-size="10.00" fill="#000000">/g4simulation/g4eval/JetTruthEval.cc</text>
</a>
</g>
</g>
<!-- Node6&#45;&gt;Node15 -->
<g id="edge19" class="edge">
<title>Node6&#45;&gt;Node15</title>
<path fill="none" stroke="#191970" d="M845.9066,-239.7593C840.8338,-228.726 835.2593,-216.6014 830.6276,-206.5276"/>
<polygon fill="#191970" stroke="#191970" points="842.8416,-241.4717 850.199,-249.0953 849.2016,-238.5475 842.8416,-241.4717"/>
</g>
<!-- Node8&#45;&gt;Node7 -->
<g id="edge9" class="edge">
<title>Node8&#45;&gt;Node7</title>
<path fill="none" stroke="#191970" d="M560.7621,-156.898C519.1882,-130.3392 458.7201,-92.5587 433.5,-81 402.1277,-66.6217 366.208,-54.2341 334.6809,-44.6078"/>
<polygon fill="#191970" stroke="#191970" points="559.0182,-159.9374 569.3273,-162.3816 562.7926,-154.042 559.0182,-159.9374"/>
</g>
<!-- Node9 -->
<g id="node9" class="node">
<title>Node9</title>
<g id="a_node9"><a xlink:href="../../db/de2/JetEvalStack_8h.html" target="_top" xlink:title="fun4all_coresoftware\l/blob/master/simulation\l/g4simulation/g4eval/JetEvalStack.h">
<polygon fill="none" stroke="#000000" points="522,-81.5 522,-125.5 721,-125.5 721,-81.5 522,-81.5"/>
<text text-anchor="start" x="530" y="-112.5" font-family="FreeSans" font-size="10.00" fill="#000000">fun4all_coresoftware</text>
<text text-anchor="start" x="530" y="-100.5" font-family="FreeSans" font-size="10.00" fill="#000000">/blob/master/simulation</text>
<text text-anchor="middle" x="621.5" y="-88.5" font-family="FreeSans" font-size="10.00" fill="#000000">/g4simulation/g4eval/JetEvalStack.h</text>
</a>
</g>
</g>
<!-- Node8&#45;&gt;Node9 -->
<g id="edge10" class="edge">
<title>Node8&#45;&gt;Node9</title>
<path fill="none" stroke="#191970" d="M610.6029,-152.5369C612.607,-143.5183 614.7427,-133.9081 616.5874,-125.6068"/>
<polygon fill="#191970" stroke="#191970" points="607.1713,-151.8452 608.4186,-162.3664 614.0046,-153.3638 607.1713,-151.8452"/>
</g>
<!-- Node11 -->
<g id="node11" class="node">
<title>Node11</title>
<g id="a_node11"><a xlink:href="../../dd/db5/JetEvaluator_8cc.html" target="_top" xlink:title="fun4all_coresoftware\l/blob/master/simulation\l/g4simulation/g4eval/JetEvaluator.cc">
<polygon fill="none" stroke="#000000" points="738.5,-.5 738.5,-44.5 940.5,-44.5 940.5,-.5 738.5,-.5"/>
<text text-anchor="start" x="746.5" y="-31.5" font-family="FreeSans" font-size="10.00" fill="#000000">fun4all_coresoftware</text>
<text text-anchor="start" x="746.5" y="-19.5" font-family="FreeSans" font-size="10.00" fill="#000000">/blob/master/simulation</text>
<text text-anchor="middle" x="839.5" y="-7.5" font-family="FreeSans" font-size="10.00" fill="#000000">/g4simulation/g4eval/JetEvaluator.cc</text>
</a>
</g>
</g>
<!-- Node8&#45;&gt;Node11 -->
<g id="edge16" class="edge">
<title>Node8&#45;&gt;Node11</title>
<path fill="none" stroke="#191970" d="M670.3518,-158.27C690.1112,-149.2635 711.307,-138.3085 729.5,-126 764.4663,-102.3434 798.9591,-67.5057 819.744,-44.9074"/>
<polygon fill="#191970" stroke="#191970" points="668.7972,-155.131 661.0895,-162.4002 671.6481,-161.5241 668.7972,-155.131"/>
</g>
<!-- Node8&#45;&gt;Node14 -->
<g id="edge17" class="edge">
<title>Node8&#45;&gt;Node14</title>
<path fill="none" stroke="#191970" d="M693.0653,-159.7396C732.5493,-148.8242 778.5675,-136.1025 816.8393,-125.5222"/>
<polygon fill="#191970" stroke="#191970" points="691.8824,-156.4353 683.1765,-162.4734 693.7476,-163.1822 691.8824,-156.4353"/>
</g>
<!-- Node9&#45;&gt;Node7 -->
<g id="edge11" class="edge">
<title>Node9&#45;&gt;Node7</title>
<path fill="none" stroke="#191970" d="M511.8635,-79.4335C460.6574,-68.1931 400.1863,-54.9189 350.5204,-44.0167"/>
<polygon fill="#191970" stroke="#191970" points="511.1254,-82.8547 521.6433,-81.5802 512.6263,-76.0175 511.1254,-82.8547"/>
</g>
<!-- Node10 -->
<g id="node10" class="node">
<title>Node10</title>
<g id="a_node10"><a xlink:href="../../d5/dab/JetEvalStack_8cc.html" target="_top" xlink:title="fun4all_coresoftware\l/blob/master/simulation\l/g4simulation/g4eval/JetEvalStack.cc">
<polygon fill="none" stroke="#000000" points="368.5,-.5 368.5,-44.5 572.5,-44.5 572.5,-.5 368.5,-.5"/>
<text text-anchor="start" x="376.5" y="-31.5" font-family="FreeSans" font-size="10.00" fill="#000000">fun4all_coresoftware</text>
<text text-anchor="start" x="376.5" y="-19.5" font-family="FreeSans" font-size="10.00" fill="#000000">/blob/master/simulation</text>
<text text-anchor="middle" x="470.5" y="-7.5" font-family="FreeSans" font-size="10.00" fill="#000000">/g4simulation/g4eval/JetEvalStack.cc</text>
</a>
</g>
</g>
<!-- Node9&#45;&gt;Node10 -->
<g id="edge12" class="edge">
<title>Node9&#45;&gt;Node10</title>
<path fill="none" stroke="#191970" d="M571.2645,-76.5525C551.9307,-66.1814 530.0986,-54.4701 511.7115,-44.6068"/>
<polygon fill="#191970" stroke="#191970" points="569.7719,-79.7235 580.2386,-81.3664 573.0809,-73.555 569.7719,-79.7235"/>
</g>
<!-- Node9&#45;&gt;Node11 -->
<g id="edge13" class="edge">
<title>Node9&#45;&gt;Node11</title>
<path fill="none" stroke="#191970" d="M690.3889,-77.9036C719.2535,-67.1788 752.479,-54.8335 780.2303,-44.5222"/>
<polygon fill="#191970" stroke="#191970" points="688.9363,-74.7095 680.7815,-81.4734 691.3744,-81.2712 688.9363,-74.7095"/>
</g>
<!-- Node9&#45;&gt;Node12 -->
<g id="edge14" class="edge">
<title>Node9&#45;&gt;Node12</title>
<path fill="none" stroke="#191970" d="M731.2438,-87.0615C795.2621,-76.6933 877.366,-62.0545 949.5,-45 952.4461,-44.3035 955.4471,-43.5605 958.4718,-42.7842"/>
<polygon fill="#191970" stroke="#191970" points="730.446,-83.6448 721.1288,-88.6886 731.5578,-90.5559 730.446,-83.6448"/>
</g>
<!-- Node13 -->
<g id="node13" class="node">
<title>Node13</title>
<g id="a_node13"><a xlink:href="../../da/dc2/MyJetAnalysis_8cc.html" target="_top" xlink:title="fun4all_tutorials/blob\l/master/myjetanalysis\l/src/MyJetAnalysis.cc">
<polygon fill="none" stroke="#000000" points="591,-.5 591,-44.5 720,-44.5 720,-.5 591,-.5"/>
<text text-anchor="start" x="599" y="-31.5" font-family="FreeSans" font-size="10.00" fill="#000000">fun4all_tutorials/blob</text>
<text text-anchor="start" x="599" y="-19.5" font-family="FreeSans" font-size="10.00" fill="#000000">/master/myjetanalysis</text>
<text text-anchor="middle" x="655.5" y="-7.5" font-family="FreeSans" font-size="10.00" fill="#000000">/src/MyJetAnalysis.cc</text>
</a>
</g>
</g>
<!-- Node9&#45;&gt;Node13 -->
<g id="edge15" class="edge">
<title>Node9&#45;&gt;Node13</title>
<path fill="none" stroke="#191970" d="M634.6728,-72.1179C638.5284,-62.9322 642.6612,-53.0866 646.2206,-44.6068"/>
<polygon fill="#191970" stroke="#191970" points="631.4339,-70.7911 630.7906,-81.3664 637.8883,-73.5004 631.4339,-70.7911"/>
</g>
</g>
</svg>
