<?xml version="1.0" encoding="UTF-8" standalone="no"?>
<!DOCTYPE svg PUBLIC "-//W3C//DTD SVG 1.1//EN"
 "http://www.w3.org/Graphics/SVG/1.1/DTD/svg11.dtd">
<!-- Generated by graphviz version 2.40.1 (20161225.0304)
 -->
<!-- Title: fun4all_coresoftware/blob/master/offline/packages/jetbackground/FastJetAlgoSub.h Pages: 1 -->
<svg width="897pt" height="239pt"
 viewBox="0.00 0.00 897.00 239.00" xmlns="http://www.w3.org/2000/svg" xmlns:xlink="http://www.w3.org/1999/xlink">
<g id="graph0" class="graph" transform="scale(1 1) rotate(0) translate(4 235)">
<title>fun4all_coresoftware/blob/master/offline/packages/jetbackground/FastJetAlgoSub.h</title>
<!-- Node1 -->
<g id="node1" class="node">
<title>Node1</title>
<polygon fill="#bfbfbf" stroke="#000000" points="303.5,-174.5 303.5,-230.5 447.5,-230.5 447.5,-174.5 303.5,-174.5"/>
<text text-anchor="start" x="311.5" y="-217.5" font-family="FreeSans" font-size="10.00" fill="#000000">fun4all_coresoftware</text>
<text text-anchor="start" x="311.5" y="-205.5" font-family="FreeSans" font-size="10.00" fill="#000000">/blob/master/offline</text>
<text text-anchor="start" x="311.5" y="-193.5" font-family="FreeSans" font-size="10.00" fill="#000000">/packages/jetbackground</text>
<text text-anchor="middle" x="375.5" y="-181.5" font-family="FreeSans" font-size="10.00" fill="#000000">/FastJetAlgoSub.h</text>
</g>
<!-- Node2 -->
<g id="node2" class="node">
<title>Node2</title>
<g id="a_node2"><a xlink:href="../../d9/dc3/FastJetAlgoSub_8cc.html" target="_top" xlink:title="fun4all_coresoftware\l/blob/master/offline\l/packages/jetbackground\l/FastJetAlgoSub.cc">
<polygon fill="none" stroke="#000000" points="215.5,-81.5 215.5,-137.5 359.5,-137.5 359.5,-81.5 215.5,-81.5"/>
<text text-anchor="start" x="223.5" y="-124.5" font-family="FreeSans" font-size="10.00" fill="#000000">fun4all_coresoftware</text>
<text text-anchor="start" x="223.5" y="-112.5" font-family="FreeSans" font-size="10.00" fill="#000000">/blob/master/offline</text>
<text text-anchor="start" x="223.5" y="-100.5" font-family="FreeSans" font-size="10.00" fill="#000000">/packages/jetbackground</text>
<text text-anchor="middle" x="287.5" y="-88.5" font-family="FreeSans" font-size="10.00" fill="#000000">/FastJetAlgoSub.cc</text>
</a>
</g>
</g>
<!-- Node1&#45;&gt;Node2 -->
<g id="edge1" class="edge">
<title>Node1&#45;&gt;Node2</title>
<path fill="none" stroke="#191970" d="M341.9528,-167.0467C332.7182,-157.2874 322.8315,-146.839 314.0512,-137.5597"/>
<polygon fill="#191970" stroke="#191970" points="339.4429,-169.4865 348.8583,-174.3446 344.5274,-164.6753 339.4429,-169.4865"/>
</g>
<!-- Node3 -->
<g id="node3" class="node">
<title>Node3</title>
<g id="a_node3"><a xlink:href="../../d4/d40/G4__HIJetReco_8C.html" target="_top" xlink:title="fun4all_macros/blob\l/master/macros/g4simulations\l/G4_HIJetReco.C">
<polygon fill="none" stroke="#000000" points="378,-87.5 378,-131.5 549,-131.5 549,-87.5 378,-87.5"/>
<text text-anchor="start" x="386" y="-118.5" font-family="FreeSans" font-size="10.00" fill="#000000">fun4all_macros/blob</text>
<text text-anchor="start" x="386" y="-106.5" font-family="FreeSans" font-size="10.00" fill="#000000">/master/macros/g4simulations</text>
<text text-anchor="middle" x="463.5" y="-94.5" font-family="FreeSans" font-size="10.00" fill="#000000">/G4_HIJetReco.C</text>
</a>
</g>
</g>
<!-- Node1&#45;&gt;Node3 -->
<g id="edge2" class="edge">
<title>Node1&#45;&gt;Node3</title>
<path fill="none" stroke="#191970" d="M409.3215,-166.7568C420.5002,-154.943 432.6062,-142.1491 442.5336,-131.6577"/>
<polygon fill="#191970" stroke="#191970" points="406.4726,-164.6753 402.1417,-174.3446 411.5571,-169.4865 406.4726,-164.6753"/>
</g>
<!-- Node4 -->
<g id="node4" class="node">
<title>Node4</title>
<g id="a_node4"><a xlink:href="../../da/d02/Fun4All__G4__EICDetector_8C.html" target="_top" xlink:title="fun4all_macros/blob\l/master/macros/g4simulations\l/Fun4All_G4_EICDetector.C">
<polygon fill="none" stroke="#000000" points="0,-.5 0,-44.5 171,-44.5 171,-.5 0,-.5"/>
<text text-anchor="start" x="8" y="-31.5" font-family="FreeSans" font-size="10.00" fill="#000000">fun4all_macros/blob</text>
<text text-anchor="start" x="8" y="-19.5" font-family="FreeSans" font-size="10.00" fill="#000000">/master/macros/g4simulations</text>
<text text-anchor="middle" x="85.5" y="-7.5" font-family="FreeSans" font-size="10.00" fill="#000000">/Fun4All_G4_EICDetector.C</text>
</a>
</g>
</g>
<!-- Node3&#45;&gt;Node4 -->
<g id="edge3" class="edge">
<title>Node3&#45;&gt;Node4</title>
<path fill="none" stroke="#191970" d="M382.9106,-84.7018C378.0483,-83.3989 373.2174,-82.1536 368.5,-81 285.4374,-60.6874 263.1034,-62.9577 179.5,-45 176.7109,-44.4009 173.8778,-43.7822 171.0187,-43.149"/>
<polygon fill="#191970" stroke="#191970" points="382.339,-88.1743 392.9088,-87.4459 384.1918,-81.4239 382.339,-88.1743"/>
</g>
<!-- Node5 -->
<g id="node5" class="node">
<title>Node5</title>
<g id="a_node5"><a xlink:href="../../d0/d13/Fun4All__G4__sPHENIX_8C.html" target="_top" xlink:title="fun4all_macros/blob\l/master/macros/g4simulations\l/Fun4All_G4_sPHENIX.C">
<polygon fill="none" stroke="#000000" points="189,-.5 189,-44.5 360,-44.5 360,-.5 189,-.5"/>
<text text-anchor="start" x="197" y="-31.5" font-family="FreeSans" font-size="10.00" fill="#000000">fun4all_macros/blob</text>
<text text-anchor="start" x="197" y="-19.5" font-family="FreeSans" font-size="10.00" fill="#000000">/master/macros/g4simulations</text>
<text text-anchor="middle" x="274.5" y="-7.5" font-family="FreeSans" font-size="10.00" fill="#000000">/Fun4All_G4_sPHENIX.C</text>
</a>
</g>
</g>
<!-- Node3&#45;&gt;Node5 -->
<g id="edge4" class="edge">
<title>Node3&#45;&gt;Node5</title>
<path fill="none" stroke="#191970" d="M406.0905,-83.0734C379.3996,-70.7871 348.0164,-56.3409 322.5937,-44.6384"/>
<polygon fill="#191970" stroke="#191970" points="404.771,-86.319 415.3183,-87.3211 407.698,-79.9603 404.771,-86.319"/>
</g>
<!-- Node6 -->
<g id="node6" class="node">
<title>Node6</title>
<g id="a_node6"><a xlink:href="../../de/da9/ReadClustersRunTracking_8C.html" target="_top" xlink:title="fun4all_macros/blob\l/master/macros/g4simulations\l/ReadClustersRunTracking.C">
<polygon fill="none" stroke="#000000" points="378,-.5 378,-44.5 549,-44.5 549,-.5 378,-.5"/>
<text text-anchor="start" x="386" y="-31.5" font-family="FreeSans" font-size="10.00" fill="#000000">fun4all_macros/blob</text>
<text text-anchor="start" x="386" y="-19.5" font-family="FreeSans" font-size="10.00" fill="#000000">/master/macros/g4simulations</text>
<text text-anchor="middle" x="463.5" y="-7.5" font-family="FreeSans" font-size="10.00" fill="#000000">/ReadClustersRunTracking.C</text>
</a>
</g>
</g>
<!-- Node3&#45;&gt;Node6 -->
<g id="edge5" class="edge">
<title>Node3&#45;&gt;Node6</title>
<path fill="none" stroke="#191970" d="M463.5,-77.0893C463.5,-66.2369 463.5,-54.3979 463.5,-44.5276"/>
<polygon fill="#191970" stroke="#191970" points="460.0001,-77.0953 463.5,-87.0953 467.0001,-77.0954 460.0001,-77.0953"/>
</g>
<!-- Node7 -->
<g id="node7" class="node">
<title>Node7</title>
<g id="a_node7"><a xlink:href="../../db/dc0/Fun4All__AnaTutorial_8C.html" target="_top" xlink:title="fun4all_tutorials/blob\l/master/AnaTutorial/macro\l/Fun4All_AnaTutorial.C">
<polygon fill="none" stroke="#000000" points="567,-.5 567,-44.5 718,-44.5 718,-.5 567,-.5"/>
<text text-anchor="start" x="575" y="-31.5" font-family="FreeSans" font-size="10.00" fill="#000000">fun4all_tutorials/blob</text>
<text text-anchor="start" x="575" y="-19.5" font-family="FreeSans" font-size="10.00" fill="#000000">/master/AnaTutorial/macro</text>
<text text-anchor="middle" x="642.5" y="-7.5" font-family="FreeSans" font-size="10.00" fill="#000000">/Fun4All_AnaTutorial.C</text>
</a>
</g>
</g>
<!-- Node3&#45;&gt;Node7 -->
<g id="edge6" class="edge">
<title>Node3&#45;&gt;Node7</title>
<path fill="none" stroke="#191970" d="M518.2033,-82.9123C543.4101,-70.661 572.9785,-56.2898 596.9509,-44.6384"/>
<polygon fill="#191970" stroke="#191970" points="516.5964,-79.8018 509.1324,-87.3211 519.6564,-86.0976 516.5964,-79.8018"/>
</g>
<!-- Node8 -->
<g id="node8" class="node">
<title>Node8</title>
<g id="a_node8"><a xlink:href="../../dd/d28/Fun4All__AnaTutorial__Jets_8C.html" target="_top" xlink:title="fun4all_tutorials/blob\l/master/AnaTutorial/macro\l/Fun4All_AnaTutorial_Jets.C">
<polygon fill="none" stroke="#000000" points="736,-.5 736,-44.5 889,-44.5 889,-.5 736,-.5"/>
<text text-anchor="start" x="744" y="-31.5" font-family="FreeSans" font-size="10.00" fill="#000000">fun4all_tutorials/blob</text>
<text text-anchor="start" x="744" y="-19.5" font-family="FreeSans" font-size="10.00" fill="#000000">/master/AnaTutorial/macro</text>
<text text-anchor="middle" x="812.5" y="-7.5" font-family="FreeSans" font-size="10.00" fill="#000000">/Fun4All_AnaTutorial_Jets.C</text>
</a>
</g>
</g>
<!-- Node3&#45;&gt;Node8 -->
<g id="edge7" class="edge">
<title>Node3&#45;&gt;Node8</title>
<path fill="none" stroke="#191970" d="M559.0772,-86.6154C609.2725,-74.4789 671.7738,-59.1816 727.5,-45 730.1629,-44.3223 732.8715,-43.6287 735.6063,-42.9248"/>
<polygon fill="#191970" stroke="#191970" points="558.1065,-83.2491 549.2078,-88.9993 559.7501,-90.0535 558.1065,-83.2491"/>
</g>
</g>
</svg>
