<?xml version="1.0" encoding="UTF-8" standalone="no"?>
<!DOCTYPE svg PUBLIC "-//W3C//DTD SVG 1.1//EN"
 "http://www.w3.org/Graphics/SVG/1.1/DTD/svg11.dtd">
<!-- Generated by graphviz version 2.40.1 (20161225.0304)
 -->
<!-- Title: GemGeoParData Pages: 1 -->
<svg width="2084pt" height="896pt"
 viewBox="0.00 0.00 2084.00 896.00" xmlns="http://www.w3.org/2000/svg" xmlns:xlink="http://www.w3.org/1999/xlink">
<g id="graph0" class="graph" transform="scale(1 1) rotate(0) translate(4 892)">
<title>GemGeoParData</title>
<!-- Node1 -->
<g id="node1" class="node">
<title>Node1</title>
<polygon fill="#bfbfbf" stroke="#000000" points="1976,-510.5 1976,-530.5 2076,-530.5 2076,-510.5 1976,-510.5"/>
<text text-anchor="middle" x="2026" y="-517.5" font-family="FreeSans" font-size="10.00" fill="#000000">GemGeoParData</text>
</g>
<!-- Node2 -->
<g id="node2" class="node">
<title>Node2</title>
<g id="a_node2"><a xlink:href="../../df/de0/classEicGeoParData.html" target="_top" xlink:title="EicGeoParData">
<polygon fill="none" stroke="#000000" points="1848,-481.5 1848,-501.5 1939,-501.5 1939,-481.5 1848,-481.5"/>
<text text-anchor="middle" x="1893.5" y="-488.5" font-family="FreeSans" font-size="10.00" fill="#000000">EicGeoParData</text>
</a>
</g>
</g>
<!-- Node2&#45;&gt;Node1 -->
<g id="edge1" class="edge">
<title>Node2&#45;&gt;Node1</title>
<path fill="none" stroke="#191970" d="M1949.17,-503.6844C1959.3933,-505.9219 1969.9617,-508.235 1979.8672,-510.403"/>
<polygon fill="#191970" stroke="#191970" points="1949.6161,-500.1992 1939.099,-501.4802 1948.1194,-507.0374 1949.6161,-500.1992"/>
</g>
<!-- Node3 -->
<g id="node3" class="node">
<title>Node3</title>
<g id="a_node3"><a xlink:href="../../d5/d0f/classTObject.html" target="_top" xlink:title="TObject">
<polygon fill="none" stroke="#000000" points="35.5,-450.5 35.5,-470.5 92.5,-470.5 92.5,-450.5 35.5,-450.5"/>
<text text-anchor="middle" x="64" y="-457.5" font-family="FreeSans" font-size="10.00" fill="#000000">TObject</text>
</a>
</g>
</g>
<!-- Node3&#45;&gt;Node2 -->
<g id="edge2" class="edge">
<title>Node3&#45;&gt;Node2</title>
<path fill="none" stroke="#191970" d="M75.0994,-479.3493C89.0656,-501.5816 115.0122,-538.3132 146,-560.5 213.1662,-608.5901 237.8928,-624.5 320.5,-624.5 320.5,-624.5 320.5,-624.5 1572,-624.5 1629.4302,-624.5 1781.575,-640.3746 1830,-609.5 1869.6248,-584.2363 1886.253,-525.3727 1891.505,-501.6638"/>
<polygon fill="#191970" stroke="#191970" points="78.0706,-477.499 69.8677,-470.7935 72.0986,-481.1508 78.0706,-477.499"/>
</g>
<!-- Node6 -->
<g id="node6" class="node">
<title>Node6</title>
<g id="a_node6"><a xlink:href="../../dc/dc3/classFairGeoInterface.html" target="_top" xlink:title="FairGeoInterface">
<polygon fill="none" stroke="#000000" points="1134,-281.5 1134,-301.5 1233,-301.5 1233,-281.5 1134,-281.5"/>
<text text-anchor="middle" x="1183.5" y="-288.5" font-family="FreeSans" font-size="10.00" fill="#000000">FairGeoInterface</text>
</a>
</g>
</g>
<!-- Node3&#45;&gt;Node6 -->
<g id="edge7" class="edge">
<title>Node3&#45;&gt;Node6</title>
<path fill="none" stroke="#191970" d="M76.0249,-441.7001C108.8122,-392.9974 205.0811,-266.5 320.5,-266.5 320.5,-266.5 320.5,-266.5 881.5,-266.5 970.6738,-266.5 1074.1554,-277.4597 1133.9053,-284.8661"/>
<polygon fill="#191970" stroke="#191970" points="72.9091,-440.0675 70.327,-450.3429 78.7534,-443.9204 72.9091,-440.0675"/>
</g>
<!-- Node7 -->
<g id="node7" class="node">
<title>Node7</title>
<g id="a_node7"><a xlink:href="../../d4/db5/classFairGeoShapes.html" target="_top" xlink:title="FairGeoShapes">
<polygon fill="none" stroke="#000000" points="425,-318.5 425,-338.5 517,-338.5 517,-318.5 425,-318.5"/>
<text text-anchor="middle" x="471" y="-325.5" font-family="FreeSans" font-size="10.00" fill="#000000">FairGeoShapes</text>
</a>
</g>
</g>
<!-- Node3&#45;&gt;Node7 -->
<g id="edge9" class="edge">
<title>Node3&#45;&gt;Node7</title>
<path fill="none" stroke="#191970" d="M102.318,-448.0726C182.4781,-422.0747 366.5075,-362.3894 439.9262,-338.578"/>
<polygon fill="#191970" stroke="#191970" points="101.0519,-444.8036 92.6194,-451.218 103.2115,-451.4622 101.0519,-444.8036"/>
</g>
<!-- Node10 -->
<g id="node10" class="node">
<title>Node10</title>
<g id="a_node10"><a xlink:href="../../d3/d1b/classFairGeoIo.html" target="_top" xlink:title="FairGeoIo">
<polygon fill="none" stroke="#000000" points="723,-205.5 723,-225.5 786,-225.5 786,-205.5 723,-205.5"/>
<text text-anchor="middle" x="754.5" y="-212.5" font-family="FreeSans" font-size="10.00" fill="#000000">FairGeoIo</text>
</a>
</g>
</g>
<!-- Node3&#45;&gt;Node10 -->
<g id="edge15" class="edge">
<title>Node3&#45;&gt;Node10</title>
<path fill="none" stroke="#191970" d="M65.1277,-440.4435C68.7238,-397.671 83.7199,-297.719 146,-252.5 238.9238,-185.0319 611.5328,-205.358 722.9055,-213.117"/>
<polygon fill="#191970" stroke="#191970" points="61.6337,-440.2362 64.4111,-450.4604 68.6158,-440.7357 61.6337,-440.2362"/>
</g>
<!-- Node12 -->
<g id="node12" class="node">
<title>Node12</title>
<g id="a_node12"><a xlink:href="../../da/d86/classEicGeoMap.html" target="_top" xlink:title="EicGeoMap">
<polygon fill="none" stroke="#000000" points="1147,-128.5 1147,-148.5 1220,-148.5 1220,-128.5 1147,-128.5"/>
<text text-anchor="middle" x="1183.5" y="-135.5" font-family="FreeSans" font-size="10.00" fill="#000000">EicGeoMap</text>
</a>
</g>
</g>
<!-- Node3&#45;&gt;Node12 -->
<g id="edge19" class="edge">
<title>Node3&#45;&gt;Node12</title>
<path fill="none" stroke="#191970" d="M66.5275,-440.0942C74.7552,-376.9579 102.7616,-186.5208 146,-144.5 203.0601,-89.0468 240.933,-104.5 320.5,-104.5 320.5,-104.5 320.5,-104.5 881.5,-104.5 977.7903,-104.5 1090.272,-121.7792 1146.9238,-131.7013"/>
<polygon fill="#191970" stroke="#191970" points="63.0144,-439.975 65.2221,-450.3373 69.9583,-440.86 63.0144,-439.975"/>
</g>
<!-- Node14 -->
<g id="node14" class="node">
<title>Node14</title>
<g id="a_node14"><a xlink:href="../../d1/d24/classGeantVolumeLevel.html" target="_top" xlink:title="GeantVolumeLevel">
<polygon fill="none" stroke="#000000" points="564.5,-141.5 564.5,-161.5 675.5,-161.5 675.5,-141.5 564.5,-141.5"/>
<text text-anchor="middle" x="620" y="-148.5" font-family="FreeSans" font-size="10.00" fill="#000000">GeantVolumeLevel</text>
</a>
</g>
</g>
<!-- Node3&#45;&gt;Node14 -->
<g id="edge22" class="edge">
<title>Node3&#45;&gt;Node14</title>
<path fill="none" stroke="#191970" d="M67.8649,-440.362C78.5237,-387.0158 109.9464,-244.1069 146,-214.5 210.2236,-161.7601 434.7104,-179.1015 517,-167.5 532.4105,-165.3274 549.091,-162.8088 564.4492,-160.4219"/>
<polygon fill="#191970" stroke="#191970" points="64.4034,-439.8261 65.9115,-450.3131 71.2723,-441.1746 64.4034,-439.8261"/>
</g>
<!-- Node15 -->
<g id="node15" class="node">
<title>Node15</title>
<g id="a_node15"><a xlink:href="../../dd/d20/classEicBitMask.html" target="_top" xlink:title="EicBitMask\&lt; UGeantIndex_t \&gt;">
<polygon fill="none" stroke="#000000" points="236.5,-141.5 236.5,-161.5 404.5,-161.5 404.5,-141.5 236.5,-141.5"/>
<text text-anchor="middle" x="320.5" y="-148.5" font-family="FreeSans" font-size="10.00" fill="#000000">EicBitMask&lt; UGeantIndex_t &gt;</text>
</a>
</g>
</g>
<!-- Node3&#45;&gt;Node15 -->
<g id="edge24" class="edge">
<title>Node3&#45;&gt;Node15</title>
<path fill="none" stroke="#191970" d="M66.9359,-440.4759C75.9599,-381.7759 105.1712,-212.022 146,-176.5 170.4744,-155.2067 204.5986,-147.2607 236.1852,-145.2595"/>
<polygon fill="#191970" stroke="#191970" points="63.4733,-439.9662 65.445,-450.3759 70.3953,-441.0086 63.4733,-439.9662"/>
</g>
<!-- Node17 -->
<g id="node17" class="node">
<title>Node17</title>
<g id="a_node17"><a xlink:href="../../d7/dff/classLogicalVolumeGroup.html" target="_top" xlink:title="LogicalVolumeGroup">
<polygon fill="none" stroke="#000000" points="1123,-508.5 1123,-528.5 1244,-528.5 1244,-508.5 1123,-508.5"/>
<text text-anchor="middle" x="1183.5" y="-515.5" font-family="FreeSans" font-size="10.00" fill="#000000">LogicalVolumeGroup</text>
</a>
</g>
</g>
<!-- Node3&#45;&gt;Node17 -->
<g id="edge27" class="edge">
<title>Node3&#45;&gt;Node17</title>
<path fill="none" stroke="#191970" d="M98.4361,-474.1125C147.0979,-492.0905 239.1363,-521.5 320.5,-521.5 320.5,-521.5 320.5,-521.5 881.5,-521.5 965.1309,-521.5 1061.7824,-520.3354 1122.7652,-519.4575"/>
<polygon fill="#191970" stroke="#191970" points="99.6061,-470.8132 89.014,-470.5729 97.1443,-477.3661 99.6061,-470.8132"/>
</g>
<!-- Node19 -->
<g id="node19" class="node">
<title>Node19</title>
<g id="a_node19"><a xlink:href="../../de/d4a/classLogicalVolumeGroupProjection.html" target="_top" xlink:title="LogicalVolumeGroupProjection">
<polygon fill="none" stroke="#000000" points="535,-466.5 535,-486.5 705,-486.5 705,-466.5 535,-466.5"/>
<text text-anchor="middle" x="620" y="-473.5" font-family="FreeSans" font-size="10.00" fill="#000000">LogicalVolumeGroupProjection</text>
</a>
</g>
</g>
<!-- Node3&#45;&gt;Node19 -->
<g id="edge30" class="edge">
<title>Node3&#45;&gt;Node19</title>
<path fill="none" stroke="#191970" d="M102.8622,-462.5826C116.4998,-463.2638 131.9259,-463.9786 146,-464.5 281.9373,-469.5356 439.8839,-473.0703 534.7831,-474.9436"/>
<polygon fill="#191970" stroke="#191970" points="102.9993,-459.0851 92.8342,-462.0719 102.6432,-466.076 102.9993,-459.0851"/>
</g>
<!-- Node20 -->
<g id="node20" class="node">
<title>Node20</title>
<g id="a_node20"><a xlink:href="../../dd/d20/classEicBitMask.html" target="_top" xlink:title="EicBitMask\&lt; ULogicalIndex_t \&gt;">
<polygon fill="none" stroke="#000000" points="234,-430.5 234,-450.5 407,-450.5 407,-430.5 234,-430.5"/>
<text text-anchor="middle" x="320.5" y="-437.5" font-family="FreeSans" font-size="10.00" fill="#000000">EicBitMask&lt; ULogicalIndex_t &gt;</text>
</a>
</g>
</g>
<!-- Node3&#45;&gt;Node20 -->
<g id="edge32" class="edge">
<title>Node3&#45;&gt;Node20</title>
<path fill="none" stroke="#191970" d="M103.093,-457.4518C137.7189,-454.7519 189.5071,-450.7139 233.8529,-447.2561"/>
<polygon fill="#191970" stroke="#191970" points="102.6228,-453.9778 92.9252,-458.2446 103.1671,-460.9566 102.6228,-453.9778"/>
</g>
<!-- Node21 -->
<g id="node21" class="node">
<title>Node21</title>
<g id="a_node21"><a xlink:href="../../dd/db5/classLogicalVolumeLookupTableEntry.html" target="_top" xlink:title="LogicalVolumeLookupTable\lEntry">
<polygon fill="none" stroke="#000000" points="805.5,-550.5 805.5,-582.5 957.5,-582.5 957.5,-550.5 805.5,-550.5"/>
<text text-anchor="start" x="813.5" y="-569.5" font-family="FreeSans" font-size="10.00" fill="#000000">LogicalVolumeLookupTable</text>
<text text-anchor="middle" x="881.5" y="-557.5" font-family="FreeSans" font-size="10.00" fill="#000000">Entry</text>
</a>
</g>
</g>
<!-- Node3&#45;&gt;Node21 -->
<g id="edge34" class="edge">
<title>Node3&#45;&gt;Node21</title>
<path fill="none" stroke="#191970" d="M77.4814,-478.7335C92.0831,-496.8535 117.1884,-523.6069 146,-535.5 370.7523,-628.2753 667.6603,-600.2771 805.3479,-579.7754"/>
<polygon fill="#191970" stroke="#191970" points="80.087,-476.3825 71.1868,-470.6346 74.56,-480.6782 80.087,-476.3825"/>
</g>
<!-- Node25 -->
<g id="node25" class="node">
<title>Node25</title>
<g id="a_node25"><a xlink:href="../../d0/d2f/classEicDetName.html" target="_top" xlink:title="Detector name in all flavors like TPC, Tpc, tpc.">
<polygon fill="none" stroke="#000000" points="1002,-700.5 1002,-720.5 1080,-720.5 1080,-700.5 1002,-700.5"/>
<text text-anchor="middle" x="1041" y="-707.5" font-family="FreeSans" font-size="10.00" fill="#000000">EicDetName</text>
</a>
</g>
</g>
<!-- Node3&#45;&gt;Node25 -->
<g id="edge41" class="edge">
<title>Node3&#45;&gt;Node25</title>
<path fill="none" stroke="#191970" d="M67.4156,-481.0192C74.7486,-518.3575 95.6131,-597.3411 146,-638.5 207.6993,-688.8996 240.8325,-679.5 320.5,-679.5 320.5,-679.5 320.5,-679.5 754.5,-679.5 843.3031,-679.5 946.6953,-694.4032 1001.7539,-703.543"/>
<polygon fill="#191970" stroke="#191970" points="70.7989,-480.0634 65.5565,-470.8565 63.9131,-481.3231 70.7989,-480.0634"/>
</g>
<!-- Node26 -->
<g id="node26" class="node">
<title>Node26</title>
<g id="a_node26"><a xlink:href="../../dd/d0b/classEicNamePatternHub.html" target="_top" xlink:title="EicNamePatternHub\&lt;\l Char_t \&gt;">
<polygon fill="none" stroke="#000000" points="258,-43.5 258,-75.5 383,-75.5 383,-43.5 258,-43.5"/>
<text text-anchor="start" x="266" y="-62.5" font-family="FreeSans" font-size="10.00" fill="#000000">EicNamePatternHub&lt;</text>
<text text-anchor="middle" x="320.5" y="-50.5" font-family="FreeSans" font-size="10.00" fill="#000000"> Char_t &gt;</text>
</a>
</g>
</g>
<!-- Node3&#45;&gt;Node26 -->
<g id="edge43" class="edge">
<title>Node3&#45;&gt;Node26</title>
<path fill="none" stroke="#191970" d="M65.6809,-439.9987C71.8358,-370.0887 95.4698,-142.6647 146,-93.5 161.8169,-78.1105 214.4121,-69.305 257.762,-64.5299"/>
<polygon fill="#191970" stroke="#191970" points="62.1775,-439.8904 64.8139,-450.1519 69.1521,-440.486 62.1775,-439.8904"/>
</g>
<!-- Node29 -->
<g id="node29" class="node">
<title>Node29</title>
<g id="a_node29"><a xlink:href="../../dd/d0b/classEicNamePatternHub.html" target="_top" xlink:title="EicNamePatternHub\&lt;\l Color_t \&gt;">
<polygon fill="none" stroke="#000000" points="258,-738.5 258,-770.5 383,-770.5 383,-738.5 258,-738.5"/>
<text text-anchor="start" x="266" y="-757.5" font-family="FreeSans" font-size="10.00" fill="#000000">EicNamePatternHub&lt;</text>
<text text-anchor="middle" x="320.5" y="-745.5" font-family="FreeSans" font-size="10.00" fill="#000000"> Color_t &gt;</text>
</a>
</g>
</g>
<!-- Node3&#45;&gt;Node29 -->
<g id="edge47" class="edge">
<title>Node3&#45;&gt;Node29</title>
<path fill="none" stroke="#191970" d="M65.4199,-481.2454C69.5987,-526.1836 85.6837,-633.3104 146,-693.5 175.7591,-723.1966 220.7555,-738.4738 257.6022,-746.3128"/>
<polygon fill="#191970" stroke="#191970" points="68.885,-480.6755 64.578,-470.9956 61.9085,-481.2486 68.885,-480.6755"/>
</g>
<!-- Node35 -->
<g id="node35" class="node">
<title>Node35</title>
<g id="a_node35"><a xlink:href="../../dc/d89/classGemWheel.html" target="_top" xlink:title="GemWheel">
<polygon fill="none" stroke="#000000" points="584,-807.5 584,-827.5 656,-827.5 656,-807.5 584,-807.5"/>
<text text-anchor="middle" x="620" y="-814.5" font-family="FreeSans" font-size="10.00" fill="#000000">GemWheel</text>
</a>
</g>
</g>
<!-- Node3&#45;&gt;Node35 -->
<g id="edge56" class="edge">
<title>Node3&#45;&gt;Node35</title>
<path fill="none" stroke="#191970" d="M67.4448,-480.8383C78.0055,-541.3753 111.3211,-719.0708 146,-765.5 248.6723,-902.9612 495.7653,-851.9344 586.1497,-827.5155"/>
<polygon fill="#191970" stroke="#191970" points="70.8384,-479.921 65.6922,-470.66 63.94,-481.1089 70.8384,-479.921"/>
</g>
<!-- Node36 -->
<g id="node36" class="node">
<title>Node36</title>
<g id="a_node36"><a xlink:href="../../dd/dcf/classGemModule.html" target="_top" xlink:title="GemModule">
<polygon fill="none" stroke="#000000" points="282,-789.5 282,-809.5 359,-809.5 359,-789.5 282,-789.5"/>
<text text-anchor="middle" x="320.5" y="-796.5" font-family="FreeSans" font-size="10.00" fill="#000000">GemModule</text>
</a>
</g>
</g>
<!-- Node3&#45;&gt;Node36 -->
<g id="edge58" class="edge">
<title>Node3&#45;&gt;Node36</title>
<path fill="none" stroke="#191970" d="M65.3381,-480.6251C69.4549,-528.3591 85.6014,-650.2117 146,-727.5 179.0949,-769.8495 241.4018,-787.4875 281.9107,-794.6954"/>
<polygon fill="#191970" stroke="#191970" points="68.8262,-480.3344 64.5634,-470.635 61.8471,-480.8757 68.8262,-480.3344"/>
</g>
<!-- Node4 -->
<g id="node4" class="node">
<title>Node4</title>
<g id="a_node4"><a xlink:href="../../d2/dc4/classFairGeoLoader.html" target="_top" xlink:title="FairGeoLoader">
<polygon fill="none" stroke="#000000" points="1527,-367.5 1527,-387.5 1617,-387.5 1617,-367.5 1527,-367.5"/>
<text text-anchor="middle" x="1572" y="-374.5" font-family="FreeSans" font-size="10.00" fill="#000000">FairGeoLoader</text>
</a>
</g>
</g>
<!-- Node4&#45;&gt;Node2 -->
<g id="edge3" class="edge">
<title>Node4&#45;&gt;Node2</title>
<path fill="none" stroke="#9a32cd" stroke-dasharray="5,2" d="M1627.564,-376.3426C1682.2886,-377.5065 1766.6517,-385.6351 1830,-420.5 1856.6576,-435.1715 1877.7991,-465.4314 1887.5825,-481.2921"/>
<polygon fill="#9a32cd" stroke="#9a32cd" points="1627.4144,-372.8403 1617.3661,-376.1991 1627.3158,-379.8396 1627.4144,-372.8403"/>
<text text-anchor="middle" x="1749.5" y="-423.5" font-family="FreeSans" font-size="10.00" fill="#000000"> mGeoLoad</text>
</g>
<!-- Node4&#45;&gt;Node4 -->
<g id="edge5" class="edge">
<title>Node4&#45;&gt;Node4</title>
<path fill="none" stroke="#9a32cd" stroke-dasharray="5,2" d="M1539.1005,-396.2839C1540.2474,-401.7597 1551.2139,-406 1572,-406 1602.9375,-406 1612.1221,-396.6067 1599.5537,-387.7271"/>
<polygon fill="#9a32cd" stroke="#9a32cd" points="1542.1161,-398.0625 1544.4463,-387.7271 1536.1795,-394.3536 1542.1161,-398.0625"/>
<text text-anchor="middle" x="1572" y="-409" font-family="FreeSans" font-size="10.00" fill="#000000"> fgInstance</text>
</g>
<!-- Node5 -->
<g id="node5" class="node">
<title>Node5</title>
<polygon fill="none" stroke="#bfbfbf" points="590.5,-372.5 590.5,-392.5 649.5,-392.5 649.5,-372.5 590.5,-372.5"/>
<text text-anchor="middle" x="620" y="-379.5" font-family="FreeSans" font-size="10.00" fill="#000000">TNamed</text>
</g>
<!-- Node5&#45;&gt;Node4 -->
<g id="edge4" class="edge">
<title>Node5&#45;&gt;Node4</title>
<path fill="none" stroke="#191970" d="M659.8831,-382.2905C813.3094,-381.4847 1364.9515,-378.5874 1526.9614,-377.7365"/>
<polygon fill="#191970" stroke="#191970" points="659.5168,-378.7923 649.5354,-382.3449 659.5537,-385.7922 659.5168,-378.7923"/>
</g>
<!-- Node8 -->
<g id="node8" class="node">
<title>Node8</title>
<g id="a_node8"><a xlink:href="../../d9/d1e/classFairGeoMedia.html" target="_top" xlink:title="FairGeoMedia">
<polygon fill="none" stroke="#000000" points="839.5,-333.5 839.5,-353.5 923.5,-353.5 923.5,-333.5 839.5,-333.5"/>
<text text-anchor="middle" x="881.5" y="-340.5" font-family="FreeSans" font-size="10.00" fill="#000000">FairGeoMedia</text>
</a>
</g>
</g>
<!-- Node5&#45;&gt;Node8 -->
<g id="edge11" class="edge">
<title>Node5&#45;&gt;Node8</title>
<path fill="none" stroke="#191970" d="M659.8529,-376.5564C708.3185,-369.3282 789.7666,-357.1811 839.2784,-349.7969"/>
<polygon fill="#191970" stroke="#191970" points="659.1171,-373.1273 649.7428,-378.0642 660.1497,-380.0507 659.1171,-373.1273"/>
</g>
<!-- Node9 -->
<g id="node9" class="node">
<title>Node9</title>
<g id="a_node9"><a xlink:href="../../de/d6a/classFairGeoBuilder.html" target="_top" xlink:title="FairGeoBuilder">
<polygon fill="none" stroke="#000000" points="836,-416.5 836,-436.5 927,-436.5 927,-416.5 836,-416.5"/>
<text text-anchor="middle" x="881.5" y="-423.5" font-family="FreeSans" font-size="10.00" fill="#000000">FairGeoBuilder</text>
</a>
</g>
</g>
<!-- Node5&#45;&gt;Node9 -->
<g id="edge13" class="edge">
<title>Node5&#45;&gt;Node9</title>
<path fill="none" stroke="#191970" d="M659.6072,-389.1643C706.8462,-397.1128 785.6693,-410.3755 835.545,-418.7676"/>
<polygon fill="#191970" stroke="#191970" points="660.1849,-385.7124 649.7428,-387.5045 659.0234,-392.6154 660.1849,-385.7124"/>
</g>
<!-- Node6&#45;&gt;Node2 -->
<g id="edge39" class="edge">
<title>Node6&#45;&gt;Node2</title>
<path fill="none" stroke="#9a32cd" stroke-dasharray="5,2" d="M1243.72,-286.1696C1386.3944,-274.8336 1739.8094,-254.7293 1830,-324.5 1881.5214,-364.3566 1891.2455,-451.1999 1893.0765,-481.1223"/>
<polygon fill="#9a32cd" stroke="#9a32cd" points="1243.0976,-282.7084 1233.412,-287.0026 1243.6615,-289.6856 1243.0976,-282.7084"/>
<text text-anchor="middle" x="1572" y="-281.5" font-family="FreeSans" font-size="10.00" fill="#000000"> mGeoFace</text>
</g>
<!-- Node6&#45;&gt;Node4 -->
<g id="edge6" class="edge">
<title>Node6&#45;&gt;Node4</title>
<path fill="none" stroke="#9a32cd" stroke-dasharray="5,2" d="M1243.4633,-290.0285C1316.1263,-288.9638 1433.9331,-289.7483 1475,-304.5 1512.0924,-317.824 1546.7528,-350.6342 1562.7423,-367.3529"/>
<polygon fill="#9a32cd" stroke="#9a32cd" points="1243.0262,-286.535 1233.0846,-290.1975 1243.1403,-293.5341 1243.0262,-286.535"/>
<text text-anchor="middle" x="1368.5" y="-307.5" font-family="FreeSans" font-size="10.00" fill="#000000"> fInterface</text>
</g>
<!-- Node7&#45;&gt;Node6 -->
<g id="edge8" class="edge">
<title>Node7&#45;&gt;Node6</title>
<path fill="none" stroke="#9a32cd" stroke-dasharray="5,2" d="M527.3605,-325.5732C662.8422,-318.5377 1005.0647,-300.7661 1133.644,-294.089"/>
<polygon fill="#9a32cd" stroke="#9a32cd" points="527.0051,-322.0869 517.2001,-326.1008 527.3682,-329.0774 527.0051,-322.0869"/>
<text text-anchor="middle" x="754.5" y="-317.5" font-family="FreeSans" font-size="10.00" fill="#000000"> shapes</text>
</g>
<!-- Node8&#45;&gt;Node2 -->
<g id="edge49" class="edge">
<title>Node8&#45;&gt;Node2</title>
<path fill="none" stroke="#9a32cd" stroke-dasharray="5,2" d="M933.9701,-342.0077C1122.017,-337.0861 1755.037,-324.3485 1830,-373.5 1869.299,-399.2675 1886.1156,-457.8398 1891.4615,-481.4034"/>
<polygon fill="#9a32cd" stroke="#9a32cd" points="933.6923,-338.5138 923.7887,-342.278 933.8781,-345.5113 933.6923,-338.5138"/>
<text text-anchor="middle" x="1368.5" y="-340.5" font-family="FreeSans" font-size="10.00" fill="#000000"> mFairMedia</text>
</g>
<!-- Node8&#45;&gt;Node6 -->
<g id="edge10" class="edge">
<title>Node8&#45;&gt;Node6</title>
<path fill="none" stroke="#9a32cd" stroke-dasharray="5,2" d="M933.7554,-333.4251C947.7871,-330.7815 962.9617,-327.9783 977,-325.5 1030.4912,-316.0566 1091.9307,-306.0475 1133.7925,-299.354"/>
<polygon fill="#9a32cd" stroke="#9a32cd" points="932.9472,-330.0158 923.7728,-335.3149 934.2493,-336.8937 932.9472,-330.0158"/>
<text text-anchor="middle" x="1041" y="-328.5" font-family="FreeSans" font-size="10.00" fill="#000000"> media</text>
</g>
<!-- Node9&#45;&gt;Node2 -->
<g id="edge52" class="edge">
<title>Node9&#45;&gt;Node2</title>
<path fill="none" stroke="#9a32cd" stroke-dasharray="5,2" d="M937.3722,-430.8237C950.3754,-431.7666 964.1687,-432.7157 977,-433.5 1276.3558,-451.7969 1351.9474,-443.7804 1651,-466.5 1719.7896,-471.7261 1799.2921,-480.4323 1847.9772,-486.0683"/>
<polygon fill="#9a32cd" stroke="#9a32cd" points="937.3764,-427.3146 927.1467,-430.0721 936.8632,-434.2958 937.3764,-427.3146"/>
<text text-anchor="middle" x="1368.5" y="-457.5" font-family="FreeSans" font-size="10.00" fill="#000000"> mGeobuild</text>
</g>
<!-- Node9&#45;&gt;Node4 -->
<g id="edge16" class="edge">
<title>Node9&#45;&gt;Node4</title>
<path fill="none" stroke="#9a32cd" stroke-dasharray="5,2" d="M937.0774,-424.4772C1042.2703,-420.3495 1277.6271,-409.6865 1475,-390.5 1491.9111,-388.8561 1510.4115,-386.5128 1526.679,-384.2674"/>
<polygon fill="#9a32cd" stroke="#9a32cd" points="936.8647,-420.9827 927.008,-424.8679 937.1362,-427.9774 936.8647,-420.9827"/>
<text text-anchor="middle" x="1183.5" y="-418.5" font-family="FreeSans" font-size="10.00" fill="#000000"> fGeoBuilder</text>
</g>
<!-- Node9&#45;&gt;Node6 -->
<g id="edge12" class="edge">
<title>Node9&#45;&gt;Node6</title>
<path fill="none" stroke="#9a32cd" stroke-dasharray="5,2" d="M923.8004,-413.2837C969.5718,-398.3294 1044.1669,-372.0408 1105,-341.5 1128.6824,-329.6104 1154.2382,-312.4343 1169.5478,-301.6246"/>
<polygon fill="#9a32cd" stroke="#9a32cd" points="922.6429,-409.9795 914.2073,-416.3897 924.7992,-416.6392 922.6429,-409.9795"/>
<text text-anchor="middle" x="1041" y="-396.5" font-family="FreeSans" font-size="10.00" fill="#000000"> geoBuilder</text>
</g>
<!-- Node10&#45;&gt;Node6 -->
<g id="edge14" class="edge">
<title>Node10&#45;&gt;Node6</title>
<path fill="none" stroke="#9a32cd" stroke-dasharray="5,2" d="M796.183,-212.8319C837.6388,-210.8524 902.9693,-209.555 959,-216.5 1025.3248,-224.721 1042.2522,-229.4939 1105,-252.5 1126.7173,-260.4625 1150.3196,-272.7186 1165.9123,-281.3625"/>
<polygon fill="#9a32cd" stroke="#9a32cd" points="795.9854,-209.3374 786.1779,-213.3453 796.3442,-216.3282 795.9854,-209.3374"/>
<text text-anchor="middle" x="881.5" y="-243.5" font-family="FreeSans" font-size="10.00" fill="#000000"> output</text>
<text text-anchor="middle" x="881.5" y="-231.5" font-family="FreeSans" font-size="10.00" fill="#000000">oraInput</text>
<text text-anchor="middle" x="881.5" y="-219.5" font-family="FreeSans" font-size="10.00" fill="#000000">fileInput</text>
</g>
<!-- Node11 -->
<g id="node11" class="node">
<title>Node11</title>
<polygon fill="none" stroke="#bfbfbf" points="1493,-128.5 1493,-148.5 1651,-148.5 1651,-128.5 1493,-128.5"/>
<text text-anchor="middle" x="1572" y="-135.5" font-family="FreeSans" font-size="10.00" fill="#000000">std::vector&lt; EicGeoMap * &gt;</text>
</g>
<!-- Node11&#45;&gt;Node2 -->
<g id="edge17" class="edge">
<title>Node11&#45;&gt;Node2</title>
<path fill="none" stroke="#9a32cd" stroke-dasharray="5,2" d="M1621.6987,-126.5232C1679.3023,-115.8537 1773.5285,-108.8084 1830,-159.5 1879.5657,-203.9927 1891.1579,-430.6221 1893.1482,-481.3968"/>
<polygon fill="#9a32cd" stroke="#9a32cd" points="1620.877,-123.1175 1611.7351,-128.4725 1622.2211,-129.9873 1620.877,-123.1175"/>
<text text-anchor="middle" x="1749.5" y="-162.5" font-family="FreeSans" font-size="10.00" fill="#000000"> mGeantVolumeMaps</text>
</g>
<!-- Node12&#45;&gt;Node11 -->
<g id="edge18" class="edge">
<title>Node12&#45;&gt;Node11</title>
<path fill="none" stroke="#9a32cd" stroke-dasharray="5,2" d="M1230.3941,-138.5C1295.4042,-138.5 1413.8001,-138.5 1492.6922,-138.5"/>
<polygon fill="#9a32cd" stroke="#9a32cd" points="1230.0492,-135.0001 1220.0491,-138.5 1230.0491,-142.0001 1230.0492,-135.0001"/>
<text text-anchor="middle" x="1368.5" y="-141.5" font-family="FreeSans" font-size="10.00" fill="#000000"> elements</text>
</g>
<!-- Node13 -->
<g id="node13" class="node">
<title>Node13</title>
<polygon fill="none" stroke="#bfbfbf" points="806.5,-133.5 806.5,-165.5 956.5,-165.5 956.5,-133.5 806.5,-133.5"/>
<text text-anchor="start" x="814.5" y="-152.5" font-family="FreeSans" font-size="10.00" fill="#000000">std::vector&lt; GeantVolume</text>
<text text-anchor="middle" x="881.5" y="-140.5" font-family="FreeSans" font-size="10.00" fill="#000000">Level * &gt;</text>
</g>
<!-- Node13&#45;&gt;Node12 -->
<g id="edge20" class="edge">
<title>Node13&#45;&gt;Node12</title>
<path fill="none" stroke="#9a32cd" stroke-dasharray="5,2" d="M966.6734,-146.3977C1026.0957,-144.2333 1102.4285,-141.4529 1146.8655,-139.8344"/>
<polygon fill="#9a32cd" stroke="#9a32cd" points="966.4057,-142.905 956.5397,-146.7668 966.6605,-149.9004 966.4057,-142.905"/>
<text text-anchor="middle" x="1041" y="-149.5" font-family="FreeSans" font-size="10.00" fill="#000000"> mGeantVolumeLevels</text>
</g>
<!-- Node14&#45;&gt;Node13 -->
<g id="edge21" class="edge">
<title>Node14&#45;&gt;Node13</title>
<path fill="none" stroke="#9a32cd" stroke-dasharray="5,2" d="M685.8704,-150.9962C722.5621,-150.7156 768.3846,-150.3651 806.4565,-150.0739"/>
<polygon fill="#9a32cd" stroke="#9a32cd" points="685.7505,-147.4969 675.7776,-151.0734 685.8041,-154.4967 685.7505,-147.4969"/>
<text text-anchor="middle" x="754.5" y="-154.5" font-family="FreeSans" font-size="10.00" fill="#000000"> elements</text>
</g>
<!-- Node15&#45;&gt;Node14 -->
<g id="edge23" class="edge">
<title>Node15&#45;&gt;Node14</title>
<path fill="none" stroke="#9a32cd" stroke-dasharray="5,2" d="M414.7427,-151.5C463.8961,-151.5 522.3434,-151.5 564.2738,-151.5"/>
<polygon fill="#9a32cd" stroke="#9a32cd" points="414.7245,-148.0001 404.7245,-151.5 414.7244,-155.0001 414.7245,-148.0001"/>
<text text-anchor="middle" x="471" y="-154.5" font-family="FreeSans" font-size="10.00" fill="#000000"> mBitMask</text>
</g>
<!-- Node16 -->
<g id="node16" class="node">
<title>Node16</title>
<polygon fill="none" stroke="#bfbfbf" points="1494.5,-475.5 1494.5,-507.5 1649.5,-507.5 1649.5,-475.5 1494.5,-475.5"/>
<text text-anchor="start" x="1502.5" y="-494.5" font-family="FreeSans" font-size="10.00" fill="#000000">std::vector&lt; LogicalVolume</text>
<text text-anchor="middle" x="1572" y="-482.5" font-family="FreeSans" font-size="10.00" fill="#000000">Group * &gt;</text>
</g>
<!-- Node16&#45;&gt;Node2 -->
<g id="edge25" class="edge">
<title>Node16&#45;&gt;Node2</title>
<path fill="none" stroke="#9a32cd" stroke-dasharray="5,2" d="M1660.1725,-491.5C1720.8496,-491.5 1798.9886,-491.5 1847.6664,-491.5"/>
<polygon fill="#9a32cd" stroke="#9a32cd" points="1659.8262,-488.0001 1649.8262,-491.5 1659.8261,-495.0001 1659.8262,-488.0001"/>
<text text-anchor="middle" x="1749.5" y="-494.5" font-family="FreeSans" font-size="10.00" fill="#000000"> mLogicalVolumeGroups</text>
</g>
<!-- Node17&#45;&gt;Node16 -->
<g id="edge26" class="edge">
<title>Node17&#45;&gt;Node16</title>
<path fill="none" stroke="#9a32cd" stroke-dasharray="5,2" d="M1254.3698,-513.0551C1256.9451,-512.8661 1259.495,-512.6806 1262,-512.5 1341.0907,-506.7987 1431.5661,-500.7207 1494.2732,-496.5785"/>
<polygon fill="#9a32cd" stroke="#9a32cd" points="1254.0653,-509.5679 1244.3511,-513.7968 1254.5822,-516.5488 1254.0653,-509.5679"/>
<text text-anchor="middle" x="1368.5" y="-515.5" font-family="FreeSans" font-size="10.00" fill="#000000"> elements</text>
</g>
<!-- Node18 -->
<g id="node18" class="node">
<title>Node18</title>
<polygon fill="none" stroke="#bfbfbf" points="804,-460.5 804,-492.5 959,-492.5 959,-460.5 804,-460.5"/>
<text text-anchor="start" x="812" y="-479.5" font-family="FreeSans" font-size="10.00" fill="#000000">std::vector&lt; LogicalVolume</text>
<text text-anchor="middle" x="881.5" y="-467.5" font-family="FreeSans" font-size="10.00" fill="#000000">GroupProjection * &gt;</text>
</g>
<!-- Node18&#45;&gt;Node17 -->
<g id="edge28" class="edge">
<title>Node18&#45;&gt;Node17</title>
<path fill="none" stroke="#9a32cd" stroke-dasharray="5,2" d="M969.1439,-479.8843C1010.5964,-482.5196 1060.6201,-487.1988 1105,-495.5 1121.6116,-498.6072 1139.7418,-503.7955 1154.3894,-508.4587"/>
<polygon fill="#9a32cd" stroke="#9a32cd" points="969.2667,-476.3854 959.073,-479.2732 968.8427,-483.3725 969.2667,-476.3854"/>
<text text-anchor="middle" x="1041" y="-498.5" font-family="FreeSans" font-size="10.00" fill="#000000"> mProjections</text>
</g>
<!-- Node19&#45;&gt;Node18 -->
<g id="edge29" class="edge">
<title>Node19&#45;&gt;Node18</title>
<path fill="none" stroke="#9a32cd" stroke-dasharray="5,2" d="M715.4338,-476.5C744.5147,-476.5 776.1153,-476.5 803.8688,-476.5"/>
<polygon fill="#9a32cd" stroke="#9a32cd" points="715.2631,-473.0001 705.263,-476.5 715.263,-480.0001 715.2631,-473.0001"/>
<text text-anchor="middle" x="754.5" y="-479.5" font-family="FreeSans" font-size="10.00" fill="#000000"> elements</text>
</g>
<!-- Node20&#45;&gt;Node19 -->
<g id="edge31" class="edge">
<title>Node20&#45;&gt;Node19</title>
<path fill="none" stroke="#9a32cd" stroke-dasharray="5,2" d="M417.5589,-443.9583C449.356,-445.8801 484.7845,-448.8655 517,-453.5 538.5814,-456.6047 562.3551,-461.7928 581.6196,-466.4566"/>
<polygon fill="#9a32cd" stroke="#9a32cd" points="417.5564,-440.4524 407.3714,-443.3709 417.1534,-447.4408 417.5564,-440.4524"/>
<text text-anchor="middle" x="471" y="-456.5" font-family="FreeSans" font-size="10.00" fill="#000000"> mBitMask</text>
</g>
<!-- Node21&#45;&gt;Node17 -->
<g id="edge33" class="edge">
<title>Node21&#45;&gt;Node17</title>
<path fill="none" stroke="#9a32cd" stroke-dasharray="5,2" d="M967.6933,-553.9124C1009.2331,-547.7121 1059.7459,-539.9763 1105,-532.5 1112.5121,-531.2589 1120.4197,-529.905 1128.2062,-528.5438"/>
<polygon fill="#9a32cd" stroke="#9a32cd" points="966.9847,-550.4793 957.6091,-555.4138 968.0156,-557.403 966.9847,-550.4793"/>
<text text-anchor="middle" x="1041" y="-554.5" font-family="FreeSans" font-size="10.00" fill="#000000"> mLookup</text>
</g>
<!-- Node22 -->
<g id="node22" class="node">
<title>Node22</title>
<polygon fill="none" stroke="#bfbfbf" points="1262,-533.5 1262,-565.5 1475,-565.5 1475,-533.5 1262,-533.5"/>
<text text-anchor="start" x="1270" y="-552.5" font-family="FreeSans" font-size="10.00" fill="#000000">std::map&lt; const TGeoNode</text>
<text text-anchor="middle" x="1368.5" y="-540.5" font-family="FreeSans" font-size="10.00" fill="#000000"> *, LogicalVolumeLookupTableEntry * &gt;</text>
</g>
<!-- Node21&#45;&gt;Node22 -->
<g id="edge36" class="edge">
<title>Node21&#45;&gt;Node22</title>
<path fill="none" stroke="#9a32cd" stroke-dasharray="5,2" d="M967.7036,-567.4439C970.8415,-567.4652 973.9481,-567.484 977,-567.5 1033.8881,-567.7978 1048.1442,-569.4397 1105,-567.5 1156.6694,-565.7373 1213.9386,-562.0356 1261.8522,-558.4449"/>
<polygon fill="#9a32cd" stroke="#9a32cd" points="967.6311,-563.9434 957.6052,-567.3687 967.5788,-570.9432 967.6311,-563.9434"/>
<text text-anchor="middle" x="1041" y="-570.5" font-family="FreeSans" font-size="10.00" fill="#000000"> elements</text>
</g>
<!-- Node22&#45;&gt;Node2 -->
<g id="edge35" class="edge">
<title>Node22&#45;&gt;Node2</title>
<path fill="none" stroke="#9a32cd" stroke-dasharray="5,2" d="M1485.5007,-543.907C1579.1825,-538.2162 1713.688,-527.3214 1830,-507.5 1839.0779,-505.953 1848.7684,-503.7831 1857.775,-501.5395"/>
<polygon fill="#9a32cd" stroke="#9a32cd" points="1485.1993,-540.4187 1475.4257,-544.5085 1485.6165,-547.4062 1485.1993,-540.4187"/>
<text text-anchor="middle" x="1572" y="-545.5" font-family="FreeSans" font-size="10.00" fill="#000000"> mGeantToLogicalLookupTable</text>
</g>
<!-- Node23 -->
<g id="node23" class="node">
<title>Node23</title>
<polygon fill="none" stroke="#bfbfbf" points="1503.5,-218.5 1503.5,-238.5 1640.5,-238.5 1640.5,-218.5 1503.5,-218.5"/>
<text text-anchor="middle" x="1572" y="-225.5" font-family="FreeSans" font-size="10.00" fill="#000000">std::set&lt; const char * &gt;</text>
</g>
<!-- Node23&#45;&gt;Node2 -->
<g id="edge37" class="edge">
<title>Node23&#45;&gt;Node2</title>
<path fill="none" stroke="#9a32cd" stroke-dasharray="5,2" d="M1624.0129,-216.6962C1681.288,-206.9732 1772.8216,-201.5636 1830,-249.5 1866.9476,-280.4755 1887.5671,-439.7153 1892.3924,-481.467"/>
<polygon fill="#9a32cd" stroke="#9a32cd" points="1623.3035,-213.2675 1614.0816,-218.4835 1624.5435,-220.1568 1623.3035,-213.2675"/>
<text text-anchor="middle" x="1749.5" y="-252.5" font-family="FreeSans" font-size="10.00" fill="#000000"> mMediaCache</text>
</g>
<!-- Node24 -->
<g id="node24" class="node">
<title>Node24</title>
<polygon fill="none" stroke="#bfbfbf" points="1514.5,-167.5 1514.5,-199.5 1629.5,-199.5 1629.5,-167.5 1514.5,-167.5"/>
<text text-anchor="start" x="1522.5" y="-186.5" font-family="FreeSans" font-size="10.00" fill="#000000">std::set&lt; std::pair</text>
<text text-anchor="middle" x="1572" y="-174.5" font-family="FreeSans" font-size="10.00" fill="#000000">&lt; TString, Int_t &gt; &gt;</text>
</g>
<!-- Node24&#45;&gt;Node2 -->
<g id="edge38" class="edge">
<title>Node24&#45;&gt;Node2</title>
<path fill="none" stroke="#9a32cd" stroke-dasharray="5,2" d="M1639.6671,-177.3768C1706.3849,-172.8852 1802.2686,-171.0764 1830,-194.5 1875.4172,-232.8622 1890.0926,-434.0872 1892.9447,-481.4908"/>
<polygon fill="#9a32cd" stroke="#9a32cd" points="1639.364,-173.8894 1629.636,-178.0867 1639.8582,-180.872 1639.364,-173.8894"/>
<text text-anchor="middle" x="1749.5" y="-197.5" font-family="FreeSans" font-size="10.00" fill="#000000"> mWantedParticles</text>
</g>
<!-- Node25&#45;&gt;Node2 -->
<g id="edge40" class="edge">
<title>Node25&#45;&gt;Node2</title>
<path fill="none" stroke="#9a32cd" stroke-dasharray="5,2" d="M1090.3949,-714.6144C1254.0682,-727.7748 1771.5981,-765.4283 1830,-720.5 1839.1152,-713.4877 1880.5341,-544.926 1891.0609,-501.5851"/>
<polygon fill="#9a32cd" stroke="#9a32cd" points="1090.3841,-711.1022 1080.1344,-713.7841 1089.8194,-718.0793 1090.3841,-711.1022"/>
<text text-anchor="middle" x="1368.5" y="-740.5" font-family="FreeSans" font-size="10.00" fill="#000000"> mDetName</text>
</g>
<!-- Node26&#45;&gt;Node2 -->
<g id="edge42" class="edge">
<title>Node26&#45;&gt;Node2</title>
<path fill="none" stroke="#9a32cd" stroke-dasharray="5,2" d="M393.2588,-61.0148C453.9063,-62.147 542.5772,-63.5 620,-63.5 620,-63.5 620,-63.5 1572,-63.5 1688.9725,-63.5 1748.6043,-31.4922 1830,-115.5 1882.6315,-169.8205 1891.8977,-426.728 1893.2812,-481.2962"/>
<polygon fill="#9a32cd" stroke="#9a32cd" points="393.0867,-57.511 383.0222,-60.8208 392.954,-64.5098 393.0867,-57.511"/>
<text text-anchor="middle" x="1041" y="-66.5" font-family="FreeSans" font-size="10.00" fill="#000000"> mTransparencyRequests</text>
</g>
<!-- Node27 -->
<g id="node27" class="node">
<title>Node27</title>
<polygon fill="none" stroke="#bfbfbf" points="1.5,-.5 1.5,-32.5 126.5,-32.5 126.5,-.5 1.5,-.5"/>
<text text-anchor="start" x="9.5" y="-19.5" font-family="FreeSans" font-size="10.00" fill="#000000">std::vector&lt; std::pair</text>
<text text-anchor="middle" x="64" y="-7.5" font-family="FreeSans" font-size="10.00" fill="#000000">&lt; TString, Char_t &gt; &gt;</text>
</g>
<!-- Node27&#45;&gt;Node26 -->
<g id="edge44" class="edge">
<title>Node27&#45;&gt;Node26</title>
<path fill="none" stroke="#9a32cd" stroke-dasharray="5,2" d="M136.8954,-11.4682C162.1512,-11.176 190.512,-12.4826 216,-17.5 241.7075,-22.5606 269.134,-33.8308 289.4365,-43.4234"/>
<polygon fill="#9a32cd" stroke="#9a32cd" points="136.5762,-7.9738 126.6488,-11.6745 136.7172,-14.9724 136.5762,-7.9738"/>
<text text-anchor="middle" x="181" y="-56.5" font-family="FreeSans" font-size="10.00" fill="#000000"> fPrefixMatch</text>
<text text-anchor="middle" x="181" y="-44.5" font-family="FreeSans" font-size="10.00" fill="#000000">fPatternMatch</text>
<text text-anchor="middle" x="181" y="-32.5" font-family="FreeSans" font-size="10.00" fill="#000000">fSuffixMatch</text>
<text text-anchor="middle" x="181" y="-20.5" font-family="FreeSans" font-size="10.00" fill="#000000">fExactMatch</text>
</g>
<!-- Node28 -->
<g id="node28" class="node">
<title>Node28</title>
<polygon fill="none" stroke="#bfbfbf" points="1503,-692.5 1503,-712.5 1641,-712.5 1641,-692.5 1503,-692.5"/>
<text text-anchor="middle" x="1572" y="-699.5" font-family="FreeSans" font-size="10.00" fill="#000000">std::map&lt; int, double &gt;</text>
</g>
<!-- Node28&#45;&gt;Node2 -->
<g id="edge45" class="edge">
<title>Node28&#45;&gt;Node2</title>
<path fill="none" stroke="#9a32cd" stroke-dasharray="5,2" d="M1651.3981,-704.6635C1716.8319,-704.8056 1803.086,-700.6911 1830,-679.5 1844.7855,-667.8584 1880.5907,-539.1335 1890.7633,-501.6709"/>
<polygon fill="#9a32cd" stroke="#9a32cd" points="1651.1068,-701.162 1641.0874,-704.6062 1651.0678,-708.1619 1651.1068,-701.162"/>
<text text-anchor="middle" x="1749.5" y="-707.5" font-family="FreeSans" font-size="10.00" fill="#000000"> mStepEnforcedVolumesLookup</text>
</g>
<!-- Node29&#45;&gt;Node2 -->
<g id="edge46" class="edge">
<title>Node29&#45;&gt;Node2</title>
<path fill="none" stroke="#9a32cd" stroke-dasharray="5,2" d="M393.1717,-759.8085C500.0802,-767.1479 706.0668,-779.5 881.5,-779.5 881.5,-779.5 881.5,-779.5 1572,-779.5 1687.717,-779.5 1743.76,-821.6562 1830,-744.5 1832.3731,-742.3769 1879.627,-548.5493 1891.0365,-501.6379"/>
<polygon fill="#9a32cd" stroke="#9a32cd" points="393.3571,-756.3131 383.1394,-759.1145 392.874,-763.2964 393.3571,-756.3131"/>
<text text-anchor="middle" x="1041" y="-782.5" font-family="FreeSans" font-size="10.00" fill="#000000"> mColorRequests</text>
</g>
<!-- Node30 -->
<g id="node30" class="node">
<title>Node30</title>
<polygon fill="none" stroke="#bfbfbf" points="0,-855.5 0,-887.5 128,-887.5 128,-855.5 0,-855.5"/>
<text text-anchor="start" x="8" y="-874.5" font-family="FreeSans" font-size="10.00" fill="#000000">std::vector&lt; std::pair</text>
<text text-anchor="middle" x="64" y="-862.5" font-family="FreeSans" font-size="10.00" fill="#000000">&lt; TString, Color_t &gt; &gt;</text>
</g>
<!-- Node30&#45;&gt;Node29 -->
<g id="edge48" class="edge">
<title>Node30&#45;&gt;Node29</title>
<path fill="none" stroke="#9a32cd" stroke-dasharray="5,2" d="M98.967,-850.1102C132.6504,-830.1562 185.4972,-800.5357 234,-780.5 242.6959,-776.9078 252.0672,-773.5713 261.3196,-770.5679"/>
<polygon fill="#9a32cd" stroke="#9a32cd" points="96.7871,-847.3352 89.9942,-855.4659 100.3748,-853.3459 96.7871,-847.3352"/>
<text text-anchor="middle" x="181" y="-860.5" font-family="FreeSans" font-size="10.00" fill="#000000"> fPrefixMatch</text>
<text text-anchor="middle" x="181" y="-848.5" font-family="FreeSans" font-size="10.00" fill="#000000">fPatternMatch</text>
<text text-anchor="middle" x="181" y="-836.5" font-family="FreeSans" font-size="10.00" fill="#000000">fSuffixMatch</text>
<text text-anchor="middle" x="181" y="-824.5" font-family="FreeSans" font-size="10.00" fill="#000000">fExactMatch</text>
</g>
<!-- Node31 -->
<g id="node31" class="node">
<title>Node31</title>
<polygon fill="none" stroke="#bfbfbf" points="1495.5,-653.5 1495.5,-673.5 1648.5,-673.5 1648.5,-653.5 1495.5,-653.5"/>
<text text-anchor="middle" x="1572" y="-660.5" font-family="FreeSans" font-size="10.00" fill="#000000">std::vector&lt; SourceFile * &gt;</text>
</g>
<!-- Node31&#45;&gt;Node2 -->
<g id="edge50" class="edge">
<title>Node31&#45;&gt;Node2</title>
<path fill="none" stroke="#9a32cd" stroke-dasharray="5,2" d="M1658.7156,-664.3458C1722.8106,-663.2904 1803.3761,-657.9044 1830,-638.5 1876.5052,-604.6054 1889.3206,-529.4126 1892.5227,-501.8697"/>
<polygon fill="#9a32cd" stroke="#9a32cd" points="1658.5338,-660.8478 1648.5809,-664.4795 1658.6262,-667.8472 1658.5338,-660.8478"/>
<text text-anchor="middle" x="1749.5" y="-666.5" font-family="FreeSans" font-size="10.00" fill="#000000"> mSourceFiles</text>
</g>
<!-- Node32 -->
<g id="node32" class="node">
<title>Node32</title>
<g id="a_node32"><a xlink:href="../../de/d53/classSourceFile.html" target="_top" xlink:title="SourceFile">
<polygon fill="none" stroke="#000000" points="1149.5,-653.5 1149.5,-673.5 1217.5,-673.5 1217.5,-653.5 1149.5,-653.5"/>
<text text-anchor="middle" x="1183.5" y="-660.5" font-family="FreeSans" font-size="10.00" fill="#000000">SourceFile</text>
</a>
</g>
</g>
<!-- Node32&#45;&gt;Node31 -->
<g id="edge51" class="edge">
<title>Node32&#45;&gt;Node31</title>
<path fill="none" stroke="#9a32cd" stroke-dasharray="5,2" d="M1227.9714,-663.5C1293.1405,-663.5 1415.487,-663.5 1495.3351,-663.5"/>
<polygon fill="#9a32cd" stroke="#9a32cd" points="1227.6363,-660.0001 1217.6363,-663.5 1227.6363,-667.0001 1227.6363,-660.0001"/>
<text text-anchor="middle" x="1368.5" y="-666.5" font-family="FreeSans" font-size="10.00" fill="#000000"> elements</text>
</g>
<!-- Node33 -->
<g id="node33" class="node">
<title>Node33</title>
<polygon fill="none" stroke="#bfbfbf" points="1515.5,-575.5 1515.5,-595.5 1628.5,-595.5 1628.5,-575.5 1515.5,-575.5"/>
<text text-anchor="middle" x="1572" y="-582.5" font-family="FreeSans" font-size="10.00" fill="#000000">std::set&lt; TString &gt;</text>
</g>
<!-- Node33&#45;&gt;Node2 -->
<g id="edge53" class="edge">
<title>Node33&#45;&gt;Node2</title>
<path fill="none" stroke="#9a32cd" stroke-dasharray="5,2" d="M1638.9162,-583.7255C1703.9486,-581.0735 1797.5078,-574.5271 1830,-558.5 1856.3021,-545.5262 1877.449,-516.8638 1887.3706,-501.5722"/>
<polygon fill="#9a32cd" stroke="#9a32cd" points="1638.5951,-580.2352 1628.7376,-584.1185 1638.8653,-587.23 1638.5951,-580.2352"/>
<text text-anchor="middle" x="1749.5" y="-596.5" font-family="FreeSans" font-size="10.00" fill="#000000"> mStepEnforcedVolumes</text>
<text text-anchor="middle" x="1749.5" y="-584.5" font-family="FreeSans" font-size="10.00" fill="#000000">mBlackHoleVolumes</text>
</g>
<!-- Node34 -->
<g id="node34" class="node">
<title>Node34</title>
<polygon fill="none" stroke="#bfbfbf" points="1671,-801.5 1671,-821.5 1828,-821.5 1828,-801.5 1671,-801.5"/>
<text text-anchor="middle" x="1749.5" y="-808.5" font-family="FreeSans" font-size="10.00" fill="#000000">std::vector&lt; GemWheel * &gt;</text>
</g>
<!-- Node34&#45;&gt;Node1 -->
<g id="edge54" class="edge">
<title>Node34&#45;&gt;Node1</title>
<path fill="none" stroke="#9a32cd" stroke-dasharray="5,2" d="M1823.9599,-797.0848C1826.0394,-795.976 1828.0586,-794.7832 1830,-793.5 1937.3266,-722.5594 2005.176,-571.2901 2021.9298,-530.7007"/>
<polygon fill="#9a32cd" stroke="#9a32cd" points="1822.1366,-794.0708 1814.512,-801.4271 1825.0599,-800.4312 1822.1366,-794.0708"/>
<text text-anchor="middle" x="1893.5" y="-782.5" font-family="FreeSans" font-size="10.00" fill="#000000"> mWheels</text>
</g>
<!-- Node35&#45;&gt;Node34 -->
<g id="edge55" class="edge">
<title>Node35&#45;&gt;Node34</title>
<path fill="none" stroke="#9a32cd" stroke-dasharray="5,2" d="M666.6785,-817.5C718.9879,-817.5 806.3225,-817.5 881.5,-817.5 881.5,-817.5 881.5,-817.5 1368.5,-817.5 1473.0234,-817.5 1593.6564,-815.2145 1670.6986,-813.4646"/>
<polygon fill="#9a32cd" stroke="#9a32cd" points="666.3813,-814.0001 656.3812,-817.5 666.3812,-821.0001 666.3813,-814.0001"/>
<text text-anchor="middle" x="1041" y="-820.5" font-family="FreeSans" font-size="10.00" fill="#000000"> elements</text>
</g>
<!-- Node36&#45;&gt;Node35 -->
<g id="edge57" class="edge">
<title>Node36&#45;&gt;Node35</title>
<path fill="none" stroke="#9a32cd" stroke-dasharray="5,2" d="M369.0508,-802.4179C429.1912,-806.0324 530.2573,-812.1064 583.9443,-815.333"/>
<polygon fill="#9a32cd" stroke="#9a32cd" points="369.2332,-798.9227 359.0413,-801.8163 368.8132,-805.91 369.2332,-798.9227"/>
<text text-anchor="middle" x="471" y="-813.5" font-family="FreeSans" font-size="10.00" fill="#000000"> mModule</text>
</g>
</g>
</svg>
