<?xml version="1.0" encoding="UTF-8" standalone="no"?>
<!DOCTYPE svg PUBLIC "-//W3C//DTD SVG 1.1//EN"
 "http://www.w3.org/Graphics/SVG/1.1/DTD/svg11.dtd">
<!-- Generated by graphviz version 2.40.1 (20161225.0304)
 -->
<!-- Title: PHG4DetectorSubsystem::BlackHole Pages: 1 -->
<svg width="498pt" height="321pt"
 viewBox="0.00 0.00 498.00 321.00" xmlns="http://www.w3.org/2000/svg" xmlns:xlink="http://www.w3.org/1999/xlink">
<g id="graph0" class="graph" transform="scale(1 1) rotate(0) translate(4 317)">
<title>PHG4DetectorSubsystem::BlackHole</title>
<!-- Node1 -->
<g id="node1" class="node">
<title>Node1</title>
<polygon fill="#bfbfbf" stroke="#000000" points="0,-188.5 0,-220.5 144,-220.5 144,-188.5 0,-188.5"/>
<text text-anchor="start" x="8" y="-207.5" font-family="FreeSans" font-size="10.00" fill="#000000">PHG4DetectorSubsystem</text>
<text text-anchor="middle" x="72" y="-195.5" font-family="FreeSans" font-size="10.00" fill="#000000">::BlackHole</text>
</g>
<!-- Node2 -->
<g id="node2" class="node">
<title>Node2</title>
<g id="a_node2"><a xlink:href="../../d4/dcd/G4__BlackHole_8C.html#a92bea2631f85d21edb1b7b8df67d0963" target="_top" xlink:title="BlackHole">
<polygon fill="none" stroke="#000000" points="214.5,-292.5 214.5,-312.5 280.5,-312.5 280.5,-292.5 214.5,-292.5"/>
<text text-anchor="middle" x="247.5" y="-299.5" font-family="FreeSans" font-size="10.00" fill="#000000">BlackHole</text>
</a>
</g>
</g>
<!-- Node1&#45;&gt;Node2 -->
<g id="edge1" class="edge">
<title>Node1&#45;&gt;Node2</title>
<path fill="none" stroke="#191970" d="M97.5584,-227.3044C118.4332,-244.8719 149.3891,-268.6013 180,-283.5 190.7275,-288.7212 203.1336,-292.7293 214.361,-295.6879"/>
<polygon fill="#191970" stroke="#191970" points="99.6767,-224.5106 89.8028,-220.6693 95.1262,-229.8297 99.6767,-224.5106"/>
</g>
<!-- Node4 -->
<g id="node4" class="node">
<title>Node4</title>
<g id="a_node4"><a xlink:href="../../df/ddd/Fun4All__G4__Example02_8C.html#a828c51f9608f078106cef9343df49316" target="_top" xlink:title="Fun4All_G4_Example02">
<polygon fill="none" stroke="#000000" points="180,-253.5 180,-273.5 315,-273.5 315,-253.5 180,-253.5"/>
<text text-anchor="middle" x="247.5" y="-260.5" font-family="FreeSans" font-size="10.00" fill="#000000">Fun4All_G4_Example02</text>
</a>
</g>
</g>
<!-- Node1&#45;&gt;Node4 -->
<g id="edge3" class="edge">
<title>Node1&#45;&gt;Node4</title>
<path fill="none" stroke="#191970" d="M122.7216,-224.2417C140.7022,-230.9854 161.1497,-238.3671 180,-244.5 189.6088,-247.6262 200.0823,-250.7225 209.8498,-253.4796"/>
<polygon fill="#191970" stroke="#191970" points="123.6037,-220.8336 113.012,-220.5729 121.1294,-227.3817 123.6037,-220.8336"/>
</g>
<!-- Node5 -->
<g id="node5" class="node">
<title>Node5</title>
<g id="a_node5"><a xlink:href="../../d1/dc4/Fun4All__G4__Example03_8C.html#a6519821c64f56c74d049579392dfac3f" target="_top" xlink:title="Fun4All_G4_Example03">
<polygon fill="none" stroke="#000000" points="180,-214.5 180,-234.5 315,-234.5 315,-214.5 180,-214.5"/>
<text text-anchor="middle" x="247.5" y="-221.5" font-family="FreeSans" font-size="10.00" fill="#000000">Fun4All_G4_Example03</text>
</a>
</g>
</g>
<!-- Node1&#45;&gt;Node5 -->
<g id="edge4" class="edge">
<title>Node1&#45;&gt;Node5</title>
<path fill="none" stroke="#191970" d="M154.1862,-213.8659C162.7871,-214.8461 171.4595,-215.8344 179.8712,-216.793"/>
<polygon fill="#191970" stroke="#191970" points="154.4743,-210.3762 144.1423,-212.7213 153.6817,-217.3312 154.4743,-210.3762"/>
</g>
<!-- Node6 -->
<g id="node6" class="node">
<title>Node6</title>
<g id="a_node6"><a xlink:href="../../d7/dc5/Fun4All__G4__FastMom_8C.html#ab9349be2377fe9e9a634a8607cff2555" target="_top" xlink:title="Fun4All_G4_FastMom">
<polygon fill="none" stroke="#000000" points="186,-175.5 186,-195.5 309,-195.5 309,-175.5 186,-175.5"/>
<text text-anchor="middle" x="247.5" y="-182.5" font-family="FreeSans" font-size="10.00" fill="#000000">Fun4All_G4_FastMom</text>
</a>
</g>
</g>
<!-- Node1&#45;&gt;Node6 -->
<g id="edge5" class="edge">
<title>Node1&#45;&gt;Node6</title>
<path fill="none" stroke="#191970" d="M154.3141,-195.5885C164.9793,-194.4339 175.752,-193.2676 185.9987,-192.1583"/>
<polygon fill="#191970" stroke="#191970" points="153.7075,-192.1336 144.1423,-196.6897 154.461,-199.093 153.7075,-192.1336"/>
</g>
<!-- Node7 -->
<g id="node7" class="node">
<title>Node7</title>
<g id="a_node7"><a xlink:href="../../d9/d8f/Fun4All__G4__Momentum_8C.html#afbd7a4eecd7792e9216ce80b5514123e" target="_top" xlink:title="Fun4All_G4_Momentum">
<polygon fill="none" stroke="#000000" points="180,-136.5 180,-156.5 315,-156.5 315,-136.5 180,-136.5"/>
<text text-anchor="middle" x="247.5" y="-143.5" font-family="FreeSans" font-size="10.00" fill="#000000">Fun4All_G4_Momentum</text>
</a>
</g>
</g>
<!-- Node1&#45;&gt;Node7 -->
<g id="edge6" class="edge">
<title>Node1&#45;&gt;Node7</title>
<path fill="none" stroke="#191970" d="M125.8622,-184.9501C143.0957,-178.8559 162.2956,-172.2335 180,-166.5 190.465,-163.1109 201.9146,-159.6329 212.3629,-156.5473"/>
<polygon fill="#191970" stroke="#191970" points="124.219,-181.8196 115.9687,-188.4666 126.5634,-188.4153 124.219,-181.8196"/>
</g>
<!-- Node8 -->
<g id="node8" class="node">
<title>Node8</title>
<g id="a_node8"><a xlink:href="../../d0/dd0/G4Setup__JLeic_8C.html#ae51ed477963c36fe17047cf934f36ef0" target="_top" xlink:title="G4Setup">
<polygon fill="none" stroke="#000000" points="217.5,-97.5 217.5,-117.5 277.5,-117.5 277.5,-97.5 217.5,-97.5"/>
<text text-anchor="middle" x="247.5" y="-104.5" font-family="FreeSans" font-size="10.00" fill="#000000">G4Setup</text>
</a>
</g>
</g>
<!-- Node1&#45;&gt;Node8 -->
<g id="edge7" class="edge">
<title>Node1&#45;&gt;Node8</title>
<path fill="none" stroke="#191970" d="M98.4734,-181.8022C119.4186,-164.8255 150.0336,-142.113 180,-127.5 191.7547,-121.7679 205.4754,-117.3335 217.465,-114.1134"/>
<polygon fill="#191970" stroke="#191970" points="96.1642,-179.1698 90.6677,-188.2273 100.6129,-184.5744 96.1642,-179.1698"/>
</g>
<!-- Node3 -->
<g id="node3" class="node">
<title>Node3</title>
<g id="a_node3"><a xlink:href="../../d6/d6e/G4Setup__EICDetector_8C.html#af15ee6d4dd2044e228fb457a2ec81b4c" target="_top" xlink:title="G4Setup">
<polygon fill="none" stroke="#000000" points="390.5,-292.5 390.5,-312.5 450.5,-312.5 450.5,-292.5 390.5,-292.5"/>
<text text-anchor="middle" x="420.5" y="-299.5" font-family="FreeSans" font-size="10.00" fill="#000000">G4Setup</text>
</a>
</g>
</g>
<!-- Node2&#45;&gt;Node3 -->
<g id="edge2" class="edge">
<title>Node2&#45;&gt;Node3</title>
<path fill="none" stroke="#191970" d="M290.9669,-302.5C322.0012,-302.5 362.9522,-302.5 390.4275,-302.5"/>
<polygon fill="#191970" stroke="#191970" points="290.8562,-299.0001 280.8561,-302.5 290.8561,-306.0001 290.8562,-299.0001"/>
</g>
<!-- Node9 -->
<g id="node9" class="node">
<title>Node9</title>
<g id="a_node9"><a xlink:href="../../db/dc0/Fun4All__AnaTutorial_8C.html#a8c484ea6d7477278e981ef056b17eac9" target="_top" xlink:title="Fun4All_AnaTutorial">
<polygon fill="none" stroke="#000000" points="363,-195.5 363,-215.5 478,-215.5 478,-195.5 363,-195.5"/>
<text text-anchor="middle" x="420.5" y="-202.5" font-family="FreeSans" font-size="10.00" fill="#000000">Fun4All_AnaTutorial</text>
</a>
</g>
</g>
<!-- Node8&#45;&gt;Node9 -->
<g id="edge8" class="edge">
<title>Node8&#45;&gt;Node9</title>
<path fill="none" stroke="#191970" d="M287.5139,-114.1505C297.1827,-117.1038 307.0178,-121.3624 315,-127.5 339.3517,-146.2243 326.4512,-168.0348 351,-186.5 355.7983,-190.1092 361.2406,-193.0329 366.9167,-195.4014"/>
<polygon fill="#191970" stroke="#191970" points="288.1457,-110.6973 277.5829,-111.5214 286.3541,-117.4641 288.1457,-110.6973"/>
</g>
<!-- Node10 -->
<g id="node10" class="node">
<title>Node10</title>
<g id="a_node10"><a xlink:href="../../dd/d28/Fun4All__AnaTutorial__Jets_8C.html#a55eaaeb770a3177f917012de87877d28" target="_top" xlink:title="Fun4All_AnaTutorial_Jets">
<polygon fill="none" stroke="#000000" points="351,-156.5 351,-176.5 490,-176.5 490,-156.5 351,-156.5"/>
<text text-anchor="middle" x="420.5" y="-163.5" font-family="FreeSans" font-size="10.00" fill="#000000">Fun4All_AnaTutorial_Jets</text>
</a>
</g>
</g>
<!-- Node8&#45;&gt;Node10 -->
<g id="edge9" class="edge">
<title>Node8&#45;&gt;Node10</title>
<path fill="none" stroke="#191970" d="M287.3265,-117.7246C296.5492,-120.5235 306.2278,-123.8162 315,-127.5 331.8757,-134.5868 334.0501,-140.5924 351,-147.5 359.3403,-150.8989 368.4867,-153.8889 377.3261,-156.431"/>
<polygon fill="#191970" stroke="#191970" points="288.1419,-114.3168 277.5624,-114.8862 286.1878,-121.0385 288.1419,-114.3168"/>
</g>
<!-- Node11 -->
<g id="node11" class="node">
<title>Node11</title>
<g id="a_node11"><a xlink:href="../../da/d02/Fun4All__G4__EICDetector_8C.html#afbe82cefa1d1fd031d9a8586b7bb68c6" target="_top" xlink:title="Fun4All_G4_EICDetector">
<polygon fill="none" stroke="#000000" points="351,-117.5 351,-137.5 490,-137.5 490,-117.5 351,-117.5"/>
<text text-anchor="middle" x="420.5" y="-124.5" font-family="FreeSans" font-size="10.00" fill="#000000">Fun4All_G4_EICDetector</text>
</a>
</g>
</g>
<!-- Node8&#45;&gt;Node11 -->
<g id="edge10" class="edge">
<title>Node8&#45;&gt;Node11</title>
<path fill="none" stroke="#191970" d="M287.6166,-112.1378C306.4176,-114.3113 329.3698,-116.9647 350.8743,-119.4508"/>
<polygon fill="#191970" stroke="#191970" points="287.9701,-108.6554 277.6343,-110.9837 287.1662,-115.6091 287.9701,-108.6554"/>
</g>
<!-- Node12 -->
<g id="node12" class="node">
<title>Node12</title>
<g id="a_node12"><a xlink:href="../../d7/d9e/Fun4All__G4__fsPHENIX_8C.html#a72c444217210a14ab1b4e66d9818b1ff" target="_top" xlink:title="Fun4All_G4_fsPHENIX">
<polygon fill="none" stroke="#000000" points="358.5,-78.5 358.5,-98.5 482.5,-98.5 482.5,-78.5 358.5,-78.5"/>
<text text-anchor="middle" x="420.5" y="-85.5" font-family="FreeSans" font-size="10.00" fill="#000000">Fun4All_G4_fsPHENIX</text>
</a>
</g>
</g>
<!-- Node8&#45;&gt;Node12 -->
<g id="edge11" class="edge">
<title>Node8&#45;&gt;Node12</title>
<path fill="none" stroke="#191970" d="M287.8042,-103.0735C308.8123,-100.7663 334.9652,-97.894 358.4859,-95.3108"/>
<polygon fill="#191970" stroke="#191970" points="287.1924,-99.6196 277.6343,-104.1905 287.9567,-106.5777 287.1924,-99.6196"/>
</g>
<!-- Node13 -->
<g id="node13" class="node">
<title>Node13</title>
<g id="a_node13"><a xlink:href="../../d0/d87/Fun4All__G4__JLeic_8C.html#a66e8fc0b01ee0a8e805c7b99c4698974" target="_top" xlink:title="Fun4All_G4_JLeic">
<polygon fill="none" stroke="#000000" points="370,-39.5 370,-59.5 471,-59.5 471,-39.5 370,-39.5"/>
<text text-anchor="middle" x="420.5" y="-46.5" font-family="FreeSans" font-size="10.00" fill="#000000">Fun4All_G4_JLeic</text>
</a>
</g>
</g>
<!-- Node8&#45;&gt;Node13 -->
<g id="edge12" class="edge">
<title>Node8&#45;&gt;Node13</title>
<path fill="none" stroke="#191970" d="M282.8451,-93.8096C302.7445,-86.2822 328.1209,-76.9814 351,-69.5 361.5018,-66.066 372.996,-62.6296 383.5594,-59.5982"/>
<polygon fill="#191970" stroke="#191970" points="281.3673,-90.6271 273.2666,-97.4557 283.8576,-97.1692 281.3673,-90.6271"/>
</g>
<!-- Node14 -->
<g id="node14" class="node">
<title>Node14</title>
<g id="a_node14"><a xlink:href="../../d0/d13/Fun4All__G4__sPHENIX_8C.html#a536fa7366e3aeaf273cca94ced704c46" target="_top" xlink:title="Fun4All_G4_sPHENIX">
<polygon fill="none" stroke="#000000" points="360,-.5 360,-20.5 481,-20.5 481,-.5 360,-.5"/>
<text text-anchor="middle" x="420.5" y="-7.5" font-family="FreeSans" font-size="10.00" fill="#000000">Fun4All_G4_sPHENIX</text>
</a>
</g>
</g>
<!-- Node8&#45;&gt;Node14 -->
<g id="edge13" class="edge">
<title>Node8&#45;&gt;Node14</title>
<path fill="none" stroke="#191970" d="M266.0112,-90.4528C285.7282,-73.1204 318.5135,-46.5918 351,-30.5 358.9882,-26.5431 367.8914,-23.2427 376.5875,-20.5389"/>
<polygon fill="#191970" stroke="#191970" points="263.5201,-87.9851 258.4001,-97.2607 268.1869,-93.2025 263.5201,-87.9851"/>
</g>
</g>
</svg>
