<?xml version="1.0" encoding="UTF-8" standalone="no"?>
<!DOCTYPE svg PUBLIC "-//W3C//DTD SVG 1.1//EN"
 "http://www.w3.org/Graphics/SVG/1.1/DTD/svg11.dtd">
<!-- Generated by graphviz version 2.40.1 (20161225.0304)
 -->
<!-- Title: PHG4DetectorSubsystem::get_int_param Pages: 1 -->
<svg width="385pt" height="806pt"
 viewBox="0.00 0.00 385.00 806.00" xmlns="http://www.w3.org/2000/svg" xmlns:xlink="http://www.w3.org/1999/xlink">
<g id="graph0" class="graph" transform="scale(1 1) rotate(0) translate(4 802)">
<title>PHG4DetectorSubsystem::get_int_param</title>
<!-- Node1 -->
<g id="node1" class="node">
<title>Node1</title>
<polygon fill="#bfbfbf" stroke="#000000" points="0,-382.5 0,-414.5 144,-414.5 144,-382.5 0,-382.5"/>
<text text-anchor="start" x="8" y="-401.5" font-family="FreeSans" font-size="10.00" fill="#000000">PHG4DetectorSubsystem</text>
<text text-anchor="middle" x="72" y="-389.5" font-family="FreeSans" font-size="10.00" fill="#000000">::get_int_param</text>
</g>
<!-- Node2 -->
<g id="node2" class="node">
<title>Node2</title>
<g id="a_node2"><a xlink:href="../../d3/d62/classPHG4InnerHcalSubsystem.html#a931cce8701fab42687620bed5fc6d165" target="_top" xlink:title="PHG4InnerHcalSubsystem\l::InitRunSubsystem">
<polygon fill="none" stroke="#000000" points="204.5,-765.5 204.5,-797.5 352.5,-797.5 352.5,-765.5 204.5,-765.5"/>
<text text-anchor="start" x="212.5" y="-784.5" font-family="FreeSans" font-size="10.00" fill="#000000">PHG4InnerHcalSubsystem</text>
<text text-anchor="middle" x="278.5" y="-772.5" font-family="FreeSans" font-size="10.00" fill="#000000">::InitRunSubsystem</text>
</a>
</g>
</g>
<!-- Node1&#45;&gt;Node2 -->
<g id="edge1" class="edge">
<title>Node1&#45;&gt;Node2</title>
<path fill="none" stroke="#191970" d="M76.4957,-424.7911C89.7453,-499.2912 130.8142,-709.4526 180,-756.5 186.8847,-763.0854 195.2477,-768.0049 204.1589,-771.6684"/>
<polygon fill="#191970" stroke="#191970" points="79.9215,-424.0634 74.745,-414.8192 73.027,-425.2738 79.9215,-424.0634"/>
</g>
<!-- Node3 -->
<g id="node3" class="node">
<title>Node3</title>
<g id="a_node3"><a xlink:href="../../dd/d2a/classBeamLineMagnetSubsystem.html#a2fb02ea4813b6d0fbbcff6ea4f5e4c61" target="_top" xlink:title="init runwise stuff">
<polygon fill="none" stroke="#000000" points="198.5,-714.5 198.5,-746.5 358.5,-746.5 358.5,-714.5 198.5,-714.5"/>
<text text-anchor="start" x="206.5" y="-733.5" font-family="FreeSans" font-size="10.00" fill="#000000">BeamLineMagnetSubsystem</text>
<text text-anchor="middle" x="278.5" y="-721.5" font-family="FreeSans" font-size="10.00" fill="#000000">::InitRunSubsystem</text>
</a>
</g>
</g>
<!-- Node1&#45;&gt;Node3 -->
<g id="edge2" class="edge">
<title>Node1&#45;&gt;Node3</title>
<path fill="none" stroke="#191970" d="M73.2362,-424.7371C77.4935,-484.0157 96.377,-629.0615 180,-705.5 185.3391,-710.3804 191.4946,-714.3388 198.068,-717.5454"/>
<polygon fill="#191970" stroke="#191970" points="76.7258,-424.4606 72.5991,-414.7024 69.7398,-424.9041 76.7258,-424.4606"/>
</g>
<!-- Node4 -->
<g id="node4" class="node">
<title>Node4</title>
<g id="a_node4"><a xlink:href="../../d7/d0d/classPHG4TpcSubsystem.html#a62852e7494e2862bebc0ba1a7eec5562" target="_top" xlink:title="PHG4TpcSubsystem::InitRun\lSubsystem">
<polygon fill="none" stroke="#000000" points="198.5,-663.5 198.5,-695.5 358.5,-695.5 358.5,-663.5 198.5,-663.5"/>
<text text-anchor="start" x="206.5" y="-682.5" font-family="FreeSans" font-size="10.00" fill="#000000">PHG4TpcSubsystem::InitRun</text>
<text text-anchor="middle" x="278.5" y="-670.5" font-family="FreeSans" font-size="10.00" fill="#000000">Subsystem</text>
</a>
</g>
</g>
<!-- Node1&#45;&gt;Node4 -->
<g id="edge3" class="edge">
<title>Node1&#45;&gt;Node4</title>
<path fill="none" stroke="#191970" d="M75.3089,-424.6371C83.3121,-476.5981 108.6257,-593.1434 180,-654.5 185.4854,-659.2155 191.7402,-663.0618 198.3774,-666.1963"/>
<polygon fill="#191970" stroke="#191970" points="78.7488,-423.9687 73.8535,-414.5726 71.8208,-424.9706 78.7488,-423.9687"/>
</g>
<!-- Node5 -->
<g id="node5" class="node">
<title>Node5</title>
<g id="a_node5"><a xlink:href="../../db/d6c/classG4LBLVtxSubsystem.html#a8f1bde3895c9d3f816359d82f9f7b405" target="_top" xlink:title="G4LBLVtxSubsystem::\lInitRunSubsystem">
<polygon fill="none" stroke="#000000" points="215.5,-612.5 215.5,-644.5 341.5,-644.5 341.5,-612.5 215.5,-612.5"/>
<text text-anchor="start" x="223.5" y="-631.5" font-family="FreeSans" font-size="10.00" fill="#000000">G4LBLVtxSubsystem::</text>
<text text-anchor="middle" x="278.5" y="-619.5" font-family="FreeSans" font-size="10.00" fill="#000000">InitRunSubsystem</text>
</a>
</g>
</g>
<!-- Node1&#45;&gt;Node5 -->
<g id="edge4" class="edge">
<title>Node1&#45;&gt;Node5</title>
<path fill="none" stroke="#191970" d="M78.326,-424.6264C90.3444,-468.5161 120.7385,-556.8157 180,-603.5 190.2557,-611.5791 202.8127,-617.0764 215.4837,-620.8095"/>
<polygon fill="#191970" stroke="#191970" points="81.6502,-423.5051 75.722,-414.724 74.8803,-425.2853 81.6502,-423.5051"/>
</g>
<!-- Node6 -->
<g id="node6" class="node">
<title>Node6</title>
<g id="a_node6"><a xlink:href="../../da/d01/classPHG4OuterHcalSubsystem.html#a051c0a929dacf42d7d5647ecfb2d4a62" target="_top" xlink:title="PHG4OuterHcalSubsystem\l::InitRunSubsystem">
<polygon fill="none" stroke="#000000" points="203,-561.5 203,-593.5 354,-593.5 354,-561.5 203,-561.5"/>
<text text-anchor="start" x="211" y="-580.5" font-family="FreeSans" font-size="10.00" fill="#000000">PHG4OuterHcalSubsystem</text>
<text text-anchor="middle" x="278.5" y="-568.5" font-family="FreeSans" font-size="10.00" fill="#000000">::InitRunSubsystem</text>
</a>
</g>
</g>
<!-- Node1&#45;&gt;Node6 -->
<g id="edge5" class="edge">
<title>Node1&#45;&gt;Node6</title>
<path fill="none" stroke="#191970" d="M83.0319,-424.3204C99.1694,-458.9208 132.5379,-519.7584 180,-552.5 186.9708,-557.3088 194.7905,-561.1932 202.8956,-564.3308"/>
<polygon fill="#191970" stroke="#191970" points="86.0754,-422.5568 78.7597,-414.8932 79.6995,-425.4462 86.0754,-422.5568"/>
</g>
<!-- Node7 -->
<g id="node7" class="node">
<title>Node7</title>
<g id="a_node7"><a xlink:href="../../d8/dce/classPHG4ForwardEcalSubsystem.html#a7648b66bce4a75af9fd96d07a7349780" target="_top" xlink:title="PHG4ForwardEcalSubsystem\l::InitRunSubsystem">
<polygon fill="none" stroke="#000000" points="197.5,-510.5 197.5,-542.5 359.5,-542.5 359.5,-510.5 197.5,-510.5"/>
<text text-anchor="start" x="205.5" y="-529.5" font-family="FreeSans" font-size="10.00" fill="#000000">PHG4ForwardEcalSubsystem</text>
<text text-anchor="middle" x="278.5" y="-517.5" font-family="FreeSans" font-size="10.00" fill="#000000">::InitRunSubsystem</text>
</a>
</g>
</g>
<!-- Node1&#45;&gt;Node7 -->
<g id="edge6" class="edge">
<title>Node1&#45;&gt;Node7</title>
<path fill="none" stroke="#191970" d="M90.8221,-422.5729C110.5535,-446.1662 143.694,-481.4233 180,-501.5 186.1758,-504.9151 192.8264,-507.8734 199.6528,-510.4341"/>
<polygon fill="#191970" stroke="#191970" points="93.4641,-420.2749 84.4189,-414.758 88.0495,-424.7114 93.4641,-420.2749"/>
</g>
<!-- Node8 -->
<g id="node8" class="node">
<title>Node8</title>
<g id="a_node8"><a xlink:href="../../d8/d65/classG4JLeicBeamLineMagnetSubsystem.html#af1a01315ac6f33f76c549b1c499fcd09" target="_top" xlink:title="init runwise stuff">
<polygon fill="none" stroke="#000000" points="180,-459.5 180,-491.5 377,-491.5 377,-459.5 180,-459.5"/>
<text text-anchor="start" x="188" y="-478.5" font-family="FreeSans" font-size="10.00" fill="#000000">G4JLeicBeamLineMagnetSubsystem</text>
<text text-anchor="middle" x="278.5" y="-466.5" font-family="FreeSans" font-size="10.00" fill="#000000">::InitRunSubsystem</text>
</a>
</g>
</g>
<!-- Node1&#45;&gt;Node8 -->
<g id="edge7" class="edge">
<title>Node1&#45;&gt;Node8</title>
<path fill="none" stroke="#191970" d="M110.4782,-419.3499C130.742,-429.7292 156.2551,-441.869 180,-450.5 188.954,-453.7547 198.5132,-456.7487 208.024,-459.4471"/>
<polygon fill="#191970" stroke="#191970" points="112.0507,-416.2228 101.5624,-414.7238 108.8268,-422.4362 112.0507,-416.2228"/>
</g>
<!-- Node9 -->
<g id="node9" class="node">
<title>Node9</title>
<g id="a_node9"><a xlink:href="../../df/d14/classPHG4BlockSubsystem.html#ac0d173351f388609274a5105753746c3" target="_top" xlink:title="InitRunSubsystem.">
<polygon fill="none" stroke="#000000" points="215,-408.5 215,-440.5 342,-440.5 342,-408.5 215,-408.5"/>
<text text-anchor="start" x="223" y="-427.5" font-family="FreeSans" font-size="10.00" fill="#000000">PHG4BlockSubsystem</text>
<text text-anchor="middle" x="278.5" y="-415.5" font-family="FreeSans" font-size="10.00" fill="#000000">::InitRunSubsystem</text>
</a>
</g>
</g>
<!-- Node1&#45;&gt;Node9 -->
<g id="edge8" class="edge">
<title>Node1&#45;&gt;Node9</title>
<path fill="none" stroke="#191970" d="M154.3353,-408.8667C174.5039,-411.4061 195.7839,-414.0854 214.9198,-416.4948"/>
<polygon fill="#191970" stroke="#191970" points="154.5826,-405.3703 144.2237,-407.5935 153.7081,-412.3154 154.5826,-405.3703"/>
</g>
<!-- Node10 -->
<g id="node10" class="node">
<title>Node10</title>
<g id="a_node10"><a xlink:href="../../db/dc5/classPHG4CylinderSubsystem.html#a034cd0c643ec03070dcaf5f3bae175e0" target="_top" xlink:title="init runwise stuff">
<polygon fill="none" stroke="#000000" points="207.5,-357.5 207.5,-389.5 349.5,-389.5 349.5,-357.5 207.5,-357.5"/>
<text text-anchor="start" x="215.5" y="-376.5" font-family="FreeSans" font-size="10.00" fill="#000000">PHG4CylinderSubsystem</text>
<text text-anchor="middle" x="278.5" y="-364.5" font-family="FreeSans" font-size="10.00" fill="#000000">::InitRunSubsystem</text>
</a>
</g>
</g>
<!-- Node1&#45;&gt;Node10 -->
<g id="edge9" class="edge">
<title>Node1&#45;&gt;Node10</title>
<path fill="none" stroke="#191970" d="M154.4274,-388.5209C171.9487,-386.3997 190.3047,-384.1774 207.3621,-382.1123"/>
<polygon fill="#191970" stroke="#191970" points="153.7305,-385.0796 144.2237,-389.7562 154.5719,-392.0289 153.7305,-385.0796"/>
</g>
<!-- Node11 -->
<g id="node11" class="node">
<title>Node11</title>
<g id="a_node11"><a xlink:href="../../d1/dfe/classBeastMagnetSubsystem.html#ab500034facb89ac2aecf5d16176b7fff" target="_top" xlink:title="BeastMagnetSubsystem\l::InitRunSubsystem">
<polygon fill="none" stroke="#000000" points="209.5,-306.5 209.5,-338.5 347.5,-338.5 347.5,-306.5 209.5,-306.5"/>
<text text-anchor="start" x="217.5" y="-325.5" font-family="FreeSans" font-size="10.00" fill="#000000">BeastMagnetSubsystem</text>
<text text-anchor="middle" x="278.5" y="-313.5" font-family="FreeSans" font-size="10.00" fill="#000000">::InitRunSubsystem</text>
</a>
</g>
</g>
<!-- Node1&#45;&gt;Node11 -->
<g id="edge10" class="edge">
<title>Node1&#45;&gt;Node11</title>
<path fill="none" stroke="#191970" d="M112.1821,-377.8478C132.2114,-368.0849 157.01,-356.7834 180,-348.5 189.9836,-344.9028 200.6981,-341.5636 211.2526,-338.5591"/>
<polygon fill="#191970" stroke="#191970" points="110.4705,-374.7894 103.0509,-382.3524 113.5675,-381.067 110.4705,-374.7894"/>
</g>
<!-- Node12 -->
<g id="node12" class="node">
<title>Node12</title>
<g id="a_node12"><a xlink:href="../../d6/d2d/classG4Example02Subsystem.html#ae9b889ba7e741a94a4c467a0e1452355" target="_top" xlink:title="G4Example02Subsystem\l::InitRunSubsystem">
<polygon fill="none" stroke="#000000" points="207,-255.5 207,-287.5 350,-287.5 350,-255.5 207,-255.5"/>
<text text-anchor="start" x="215" y="-274.5" font-family="FreeSans" font-size="10.00" fill="#000000">G4Example02Subsystem</text>
<text text-anchor="middle" x="278.5" y="-262.5" font-family="FreeSans" font-size="10.00" fill="#000000">::InitRunSubsystem</text>
</a>
</g>
</g>
<!-- Node1&#45;&gt;Node12 -->
<g id="edge11" class="edge">
<title>Node1&#45;&gt;Node12</title>
<path fill="none" stroke="#191970" d="M91.2953,-374.5911C111.173,-351.5241 144.2263,-317.2759 180,-297.5 188.3585,-292.8794 197.5735,-289.0512 206.9117,-285.8868"/>
<polygon fill="#191970" stroke="#191970" points="88.6115,-372.3445 84.8309,-382.2419 93.9584,-376.8623 88.6115,-372.3445"/>
</g>
<!-- Node13 -->
<g id="node13" class="node">
<title>Node13</title>
<g id="a_node13"><a xlink:href="../../d7/d58/classPHG4mRICHSubsystem.html#a228a3aef199e3b37118c6e199418468d" target="_top" xlink:title="InitRunSubsystem.">
<polygon fill="none" stroke="#000000" points="211.5,-204.5 211.5,-236.5 345.5,-236.5 345.5,-204.5 211.5,-204.5"/>
<text text-anchor="start" x="219.5" y="-223.5" font-family="FreeSans" font-size="10.00" fill="#000000">PHG4mRICHSubsystem</text>
<text text-anchor="middle" x="278.5" y="-211.5" font-family="FreeSans" font-size="10.00" fill="#000000">::InitRunSubsystem</text>
</a>
</g>
</g>
<!-- Node1&#45;&gt;Node13 -->
<g id="edge12" class="edge">
<title>Node1&#45;&gt;Node13</title>
<path fill="none" stroke="#191970" d="M83.1667,-373.0784C99.4591,-339.0002 133.0047,-279.0361 180,-246.5 189.3793,-240.0065 200.2851,-235.1346 211.3528,-231.4794"/>
<polygon fill="#191970" stroke="#191970" points="79.8926,-371.8188 78.85,-382.3622 86.24,-374.7702 79.8926,-371.8188"/>
</g>
<!-- Node14 -->
<g id="node14" class="node">
<title>Node14</title>
<g id="a_node14"><a xlink:href="../../db/d23/classAllSiliconTrackerSubsystem.html#a1dd766351c2064c15b22e2b7d256225f" target="_top" xlink:title="AllSiliconTrackerSubsystem\l::InitRunSubsystem">
<polygon fill="none" stroke="#000000" points="201,-153.5 201,-185.5 356,-185.5 356,-153.5 201,-153.5"/>
<text text-anchor="start" x="209" y="-172.5" font-family="FreeSans" font-size="10.00" fill="#000000">AllSiliconTrackerSubsystem</text>
<text text-anchor="middle" x="278.5" y="-160.5" font-family="FreeSans" font-size="10.00" fill="#000000">::InitRunSubsystem</text>
</a>
</g>
</g>
<!-- Node1&#45;&gt;Node14 -->
<g id="edge13" class="edge">
<title>Node1&#45;&gt;Node14</title>
<path fill="none" stroke="#191970" d="M78.4502,-372.6842C90.6539,-329.3059 121.3173,-241.9885 180,-195.5 186.2385,-190.5578 193.3273,-186.5498 200.7748,-183.3002"/>
<polygon fill="#191970" stroke="#191970" points="75.0356,-371.9034 75.8026,-382.4705 81.7927,-373.7315 75.0356,-371.9034"/>
</g>
<!-- Node15 -->
<g id="node15" class="node">
<title>Node15</title>
<g id="a_node15"><a xlink:href="../../d6/dca/classPHG4SpacalSubsystem.html#a90194add98a02adc7715f79919371211" target="_top" xlink:title="init">
<polygon fill="none" stroke="#000000" points="211.5,-102.5 211.5,-134.5 345.5,-134.5 345.5,-102.5 211.5,-102.5"/>
<text text-anchor="start" x="219.5" y="-121.5" font-family="FreeSans" font-size="10.00" fill="#000000">PHG4SpacalSubsystem</text>
<text text-anchor="middle" x="278.5" y="-109.5" font-family="FreeSans" font-size="10.00" fill="#000000">::InitRunSubsystem</text>
</a>
</g>
</g>
<!-- Node1&#45;&gt;Node15 -->
<g id="edge14" class="edge">
<title>Node1&#45;&gt;Node15</title>
<path fill="none" stroke="#191970" d="M75.4831,-372.2492C83.7574,-320.6072 109.4724,-205.5406 180,-144.5 188.9601,-136.7452 199.977,-131.2686 211.3605,-127.409"/>
<polygon fill="#191970" stroke="#191970" points="72.0032,-371.8539 73.9723,-382.2641 78.9249,-372.8981 72.0032,-371.8539"/>
</g>
<!-- Node16 -->
<g id="node16" class="node">
<title>Node16</title>
<g id="a_node16"><a xlink:href="../../d3/d23/classG4JLeicDIRCSubsystem.html#aa626ea3c64699c4ba84886224f14c284" target="_top" xlink:title="G4JLeicDIRCSubsystem\l::InitRunSubsystem">
<polygon fill="none" stroke="#000000" points="212,-51.5 212,-83.5 345,-83.5 345,-51.5 212,-51.5"/>
<text text-anchor="start" x="220" y="-70.5" font-family="FreeSans" font-size="10.00" fill="#000000">G4JLeicDIRCSubsystem</text>
<text text-anchor="middle" x="278.5" y="-58.5" font-family="FreeSans" font-size="10.00" fill="#000000">::InitRunSubsystem</text>
</a>
</g>
</g>
<!-- Node1&#45;&gt;Node16 -->
<g id="edge15" class="edge">
<title>Node1&#45;&gt;Node16</title>
<path fill="none" stroke="#191970" d="M73.3726,-372.1183C77.9071,-313.1027 97.3177,-169.6469 180,-93.5 188.9767,-85.2328 200.2702,-79.5333 211.9794,-75.618"/>
<polygon fill="#191970" stroke="#191970" points="69.8575,-372.2207 72.6682,-382.4359 76.8413,-372.6975 69.8575,-372.2207"/>
</g>
<!-- Node17 -->
<g id="node17" class="node">
<title>Node17</title>
<g id="a_node17"><a xlink:href="../../d3/d75/classG4Example03Subsystem.html#ab0676f436b2497f0e301900a896c5a04" target="_top" xlink:title="G4Example03Subsystem\l::InitRunSubsystem">
<polygon fill="none" stroke="#000000" points="207,-.5 207,-32.5 350,-32.5 350,-.5 207,-.5"/>
<text text-anchor="start" x="215" y="-19.5" font-family="FreeSans" font-size="10.00" fill="#000000">G4Example03Subsystem</text>
<text text-anchor="middle" x="278.5" y="-7.5" font-family="FreeSans" font-size="10.00" fill="#000000">::InitRunSubsystem</text>
</a>
</g>
</g>
<!-- Node1&#45;&gt;Node17 -->
<g id="edge16" class="edge">
<title>Node1&#45;&gt;Node17</title>
<path fill="none" stroke="#191970" d="M76.5388,-372.377C89.904,-298.3502 131.2527,-89.501 180,-42.5 187.512,-35.2571 196.7933,-29.9718 206.6294,-26.1263"/>
<polygon fill="#191970" stroke="#191970" points="73.0818,-371.8263 74.7723,-382.2854 79.9732,-373.0549 73.0818,-371.8263"/>
</g>
</g>
</svg>
