<?xml version="1.0" encoding="UTF-8" standalone="no"?>
<!DOCTYPE svg PUBLIC "-//W3C//DTD SVG 1.1//EN"
 "http://www.w3.org/Graphics/SVG/1.1/DTD/svg11.dtd">
<!-- Generated by graphviz version 2.40.1 (20161225.0304)
 -->
<!-- Title: erhic::VirtualParticle::Id Pages: 1 -->
<svg width="652pt" height="566pt"
 viewBox="0.00 0.00 652.00 566.40" xmlns="http://www.w3.org/2000/svg" xmlns:xlink="http://www.w3.org/1999/xlink">
<g id="graph0" class="graph" transform="scale(1 1) rotate(0) translate(4 562.398)">
<title>erhic::VirtualParticle::Id</title>
<!-- Node1 -->
<g id="node1" class="node">
<title>Node1</title>
<polygon fill="#bfbfbf" stroke="#000000" points="0,-270.5 0,-290.5 134,-290.5 134,-270.5 0,-270.5"/>
<text text-anchor="middle" x="67" y="-277.5" font-family="FreeSans" font-size="10.00" fill="#000000">erhic::VirtualParticle::Id</text>
</g>
<!-- Node2 -->
<g id="node2" class="node">
<title>Node2</title>
<g id="a_node2"><a xlink:href="../../db/dc9/classParticleIdentifier.html#a16c07bffbed798bbbdabfbcda43acc43" target="_top" xlink:title="ParticleIdentifier\l::IdentifyBeams">
<polygon fill="none" stroke="#000000" points="362,-411.5 362,-443.5 461,-443.5 461,-411.5 362,-411.5"/>
<text text-anchor="start" x="370" y="-430.5" font-family="FreeSans" font-size="10.00" fill="#000000">ParticleIdentifier</text>
<text text-anchor="middle" x="411.5" y="-418.5" font-family="FreeSans" font-size="10.00" fill="#000000">::IdentifyBeams</text>
</a>
</g>
</g>
<!-- Node1&#45;&gt;Node2 -->
<g id="edge1" class="edge">
<title>Node1&#45;&gt;Node2</title>
<path fill="none" stroke="#191970" d="M69.1922,-300.6688C75.3852,-346.4993 97.5743,-458.0874 170,-504.5 222.7624,-538.3118 251.6517,-524.6219 311,-504.5 346.3879,-492.5018 379.0946,-462.4833 397.0758,-443.6687"/>
<polygon fill="#191970" stroke="#191970" points="72.6377,-300.0107 67.9415,-290.5135 65.6902,-300.8663 72.6377,-300.0107"/>
</g>
<!-- Node3 -->
<g id="node3" class="node">
<title>Node3</title>
<g id="a_node3"><a xlink:href="../../d2/d55/classSmear_1_1Acceptance.html#a8f4767a26d00724cba82a3aa80541f69" target="_top" xlink:title="Smear::Acceptance::Is">
<polygon fill="none" stroke="#000000" points="347,-262.5 347,-282.5 476,-282.5 476,-262.5 347,-262.5"/>
<text text-anchor="middle" x="411.5" y="-269.5" font-family="FreeSans" font-size="10.00" fill="#000000">Smear::Acceptance::Is</text>
</a>
</g>
</g>
<!-- Node1&#45;&gt;Node3 -->
<g id="edge2" class="edge">
<title>Node1&#45;&gt;Node3</title>
<path fill="none" stroke="#191970" d="M144.5777,-278.6985C205.5193,-277.2833 289.3954,-275.3355 346.7622,-274.0033"/>
<polygon fill="#191970" stroke="#191970" points="144.1569,-275.2072 134.2409,-278.9385 144.3195,-282.2053 144.1569,-275.2072"/>
</g>
<!-- Node4 -->
<g id="node4" class="node">
<title>Node4</title>
<g id="a_node4"><a xlink:href="../../d9/de1/classSmear_1_1Device.html#aeff74421cc6098556a73f48dbe80e540" target="_top" xlink:title="Smear::Device::Smear">
<polygon fill="none" stroke="#000000" points="513,-422.5 513,-442.5 643,-442.5 643,-422.5 513,-422.5"/>
<text text-anchor="middle" x="578" y="-429.5" font-family="FreeSans" font-size="10.00" fill="#000000">Smear::Device::Smear</text>
</a>
</g>
</g>
<!-- Node1&#45;&gt;Node4 -->
<g id="edge20" class="edge">
<title>Node1&#45;&gt;Node4</title>
<path fill="none" stroke="#191970" d="M68.254,-300.7668C72.5237,-350.0148 91.0366,-475.7923 170,-528.5 303.4538,-617.5797 509.7021,-481.9846 564.3375,-442.6652"/>
<polygon fill="#191970" stroke="#191970" points="71.7386,-300.4293 67.4937,-290.722 64.7586,-300.9577 71.7386,-300.4293"/>
</g>
<!-- Node5 -->
<g id="node5" class="node">
<title>Node5</title>
<g id="a_node5"><a xlink:href="../../d0/d91/structSmear_1_1ParticleID.html#a2c109c1306f27d7d427ce4c943075be1" target="_top" xlink:title="Smear::ParticleID::\lSmear">
<polygon fill="none" stroke="#000000" points="523.5,-195.5 523.5,-227.5 632.5,-227.5 632.5,-195.5 523.5,-195.5"/>
<text text-anchor="start" x="531.5" y="-214.5" font-family="FreeSans" font-size="10.00" fill="#000000">Smear::ParticleID::</text>
<text text-anchor="middle" x="578" y="-202.5" font-family="FreeSans" font-size="10.00" fill="#000000">Smear</text>
</a>
</g>
</g>
<!-- Node1&#45;&gt;Node5 -->
<g id="edge21" class="edge">
<title>Node1&#45;&gt;Node5</title>
<path fill="none" stroke="#191970" d="M88.3783,-264.3258C108.3088,-250.294 139.469,-230.9465 170,-222.5 292.5873,-188.5859 443.855,-196.8229 523.3143,-204.7744"/>
<polygon fill="#191970" stroke="#191970" points="86.1096,-261.647 80.0538,-270.3406 90.2092,-267.3209 86.1096,-261.647"/>
</g>
<!-- Node7 -->
<g id="node7" class="node">
<title>Node7</title>
<g id="a_node7"><a xlink:href="../../db/dc9/classParticleIdentifier.html#a52638868e93f0bca55acb5ba12f6b1d7" target="_top" xlink:title="ParticleIdentifier\l::isBeamLepton">
<polygon fill="none" stroke="#000000" points="191,-462.5 191,-494.5 290,-494.5 290,-462.5 191,-462.5"/>
<text text-anchor="start" x="199" y="-481.5" font-family="FreeSans" font-size="10.00" fill="#000000">ParticleIdentifier</text>
<text text-anchor="middle" x="240.5" y="-469.5" font-family="FreeSans" font-size="10.00" fill="#000000">::isBeamLepton</text>
</a>
</g>
</g>
<!-- Node1&#45;&gt;Node7 -->
<g id="edge6" class="edge">
<title>Node1&#45;&gt;Node7</title>
<path fill="none" stroke="#191970" d="M73.7076,-300.4891C86.688,-336.2316 118.5789,-411.2949 170,-453.5 176.1233,-458.5258 183.3312,-462.5759 190.7594,-465.83"/>
<polygon fill="#191970" stroke="#191970" points="76.8998,-299.0156 70.2857,-290.7389 70.2948,-301.3337 76.8998,-299.0156"/>
</g>
<!-- Node8 -->
<g id="node8" class="node">
<title>Node8</title>
<g id="a_node8"><a xlink:href="../../db/dc9/classParticleIdentifier.html#a978ddb2bc49b76540f546958245826c4" target="_top" xlink:title="ParticleIdentifier\l::isBeamNucleon">
<polygon fill="none" stroke="#000000" points="190,-411.5 190,-443.5 291,-443.5 291,-411.5 190,-411.5"/>
<text text-anchor="start" x="198" y="-430.5" font-family="FreeSans" font-size="10.00" fill="#000000">ParticleIdentifier</text>
<text text-anchor="middle" x="240.5" y="-418.5" font-family="FreeSans" font-size="10.00" fill="#000000">::isBeamNucleon</text>
</a>
</g>
</g>
<!-- Node1&#45;&gt;Node8 -->
<g id="edge8" class="edge">
<title>Node1&#45;&gt;Node8</title>
<path fill="none" stroke="#191970" d="M78.2702,-299.3035C95.0898,-325.8631 129.1913,-374.268 170,-402.5 176.0875,-406.7114 182.9592,-410.2868 189.9642,-413.3006"/>
<polygon fill="#191970" stroke="#191970" points="81.1133,-297.2465 72.875,-290.5846 75.1608,-300.93 81.1133,-297.2465"/>
</g>
<!-- Node9 -->
<g id="node9" class="node">
<title>Node9</title>
<g id="a_node9"><a xlink:href="../../db/dc9/classParticleIdentifier.html#a5f962a63f1e4f2403c7302d63cfb7fcd" target="_top" xlink:title="ParticleIdentifier\l::isScatteredLepton">
<polygon fill="none" stroke="#000000" points="183.5,-360.5 183.5,-392.5 297.5,-392.5 297.5,-360.5 183.5,-360.5"/>
<text text-anchor="start" x="191.5" y="-379.5" font-family="FreeSans" font-size="10.00" fill="#000000">ParticleIdentifier</text>
<text text-anchor="middle" x="240.5" y="-367.5" font-family="FreeSans" font-size="10.00" fill="#000000">::isScatteredLepton</text>
</a>
</g>
</g>
<!-- Node1&#45;&gt;Node9 -->
<g id="edge10" class="edge">
<title>Node1&#45;&gt;Node9</title>
<path fill="none" stroke="#191970" d="M87.417,-296.9853C107.5015,-312.604 139.503,-335.926 170,-351.5 176.3611,-354.7484 183.243,-357.755 190.1283,-360.4737"/>
<polygon fill="#191970" stroke="#191970" points="89.3469,-294.05 79.3269,-290.6076 85.0132,-299.5472 89.3469,-294.05"/>
</g>
<!-- Node10 -->
<g id="node10" class="node">
<title>Node10</title>
<g id="a_node10"><a xlink:href="../../db/dc9/classParticleIdentifier.html#ab8fe033e666fe214ffd390567c34b6f3" target="_top" xlink:title="ParticleIdentifier\l::IsVirtualPhoton">
<polygon fill="none" stroke="#000000" points="191,-309.5 191,-341.5 290,-341.5 290,-309.5 191,-309.5"/>
<text text-anchor="start" x="199" y="-328.5" font-family="FreeSans" font-size="10.00" fill="#000000">ParticleIdentifier</text>
<text text-anchor="middle" x="240.5" y="-316.5" font-family="FreeSans" font-size="10.00" fill="#000000">::IsVirtualPhoton</text>
</a>
</g>
</g>
<!-- Node1&#45;&gt;Node10 -->
<g id="edge12" class="edge">
<title>Node1&#45;&gt;Node10</title>
<path fill="none" stroke="#191970" d="M115.6775,-293.1253C139.1296,-299.208 167.2126,-306.4917 190.7973,-312.6088"/>
<polygon fill="#191970" stroke="#191970" points="116.4952,-289.7216 105.9368,-290.5989 114.7378,-296.4974 116.4952,-289.7216"/>
</g>
<!-- Node11 -->
<g id="node11" class="node">
<title>Node11</title>
<g id="a_node11"><a xlink:href="../../d9/dd8/namespaceSmear.html#abb2e999dfddf67fb47fe1e50921a8335" target="_top" xlink:title="Smear::PGenre">
<polygon fill="none" stroke="#000000" points="194.5,-231.5 194.5,-251.5 286.5,-251.5 286.5,-231.5 194.5,-231.5"/>
<text text-anchor="middle" x="240.5" y="-238.5" font-family="FreeSans" font-size="10.00" fill="#000000">Smear::PGenre</text>
</a>
</g>
</g>
<!-- Node1&#45;&gt;Node11 -->
<g id="edge14" class="edge">
<title>Node1&#45;&gt;Node11</title>
<path fill="none" stroke="#191970" d="M121.6783,-268.2092C145.6081,-262.8302 173.3272,-256.5994 195.9709,-251.5094"/>
<polygon fill="#191970" stroke="#191970" points="120.6695,-264.8485 111.6806,-270.4565 122.2047,-271.6781 120.6695,-264.8485"/>
</g>
<!-- Node12 -->
<g id="node12" class="node">
<title>Node12</title>
<g id="a_node12"><a xlink:href="../../dd/df6/classEicEventGenerator.html#a40924445938964cff3db00bb4f59debe" target="_top" xlink:title="EicEventGenerator::\lReadEvent">
<polygon fill="none" stroke="#000000" points="182,-141.5 182,-173.5 299,-173.5 299,-141.5 182,-141.5"/>
<text text-anchor="start" x="190" y="-160.5" font-family="FreeSans" font-size="10.00" fill="#000000">EicEventGenerator::</text>
<text text-anchor="middle" x="240.5" y="-148.5" font-family="FreeSans" font-size="10.00" fill="#000000">ReadEvent</text>
</a>
</g>
</g>
<!-- Node1&#45;&gt;Node12 -->
<g id="edge16" class="edge">
<title>Node1&#45;&gt;Node12</title>
<path fill="none" stroke="#191970" d="M83.4837,-262.725C102.7569,-242.7105 136.327,-210.1622 170,-188.5 178.6584,-182.9299 188.4864,-177.9061 197.997,-173.6037"/>
<polygon fill="#191970" stroke="#191970" points="80.7135,-260.5596 76.3688,-270.2227 85.7912,-265.3781 80.7135,-260.5596"/>
</g>
<!-- Node13 -->
<g id="node13" class="node">
<title>Node13</title>
<g id="a_node13"><a xlink:href="../../df/d77/classerhic_1_1EventPythia.html#a8ffbe32229a7310901b0b2f9b6c8d0bf" target="_top" xlink:title="erhic::EventPythia\l::ScatteredLepton">
<polygon fill="none" stroke="#000000" points="186.5,-90.5 186.5,-122.5 294.5,-122.5 294.5,-90.5 186.5,-90.5"/>
<text text-anchor="start" x="194.5" y="-109.5" font-family="FreeSans" font-size="10.00" fill="#000000">erhic::EventPythia</text>
<text text-anchor="middle" x="240.5" y="-97.5" font-family="FreeSans" font-size="10.00" fill="#000000">::ScatteredLepton</text>
</a>
</g>
</g>
<!-- Node1&#45;&gt;Node13 -->
<g id="edge17" class="edge">
<title>Node1&#45;&gt;Node13</title>
<path fill="none" stroke="#191970" d="M75.6947,-260.6748C90.5581,-228.9807 123.7853,-166.8785 170,-131.5 174.9496,-127.7109 180.5217,-124.4639 186.3087,-121.6887"/>
<polygon fill="#191970" stroke="#191970" points="72.3274,-259.6239 71.3659,-270.175 78.6973,-262.5264 72.3274,-259.6239"/>
</g>
<!-- Node14 -->
<g id="node14" class="node">
<title>Node14</title>
<g id="a_node14"><a xlink:href="../../db/dc9/classParticleIdentifier.html#aa26c1c2b831515568a2644431791aebc" target="_top" xlink:title="ParticleIdentifier\l::SkipParticle">
<polygon fill="none" stroke="#000000" points="191,-39.5 191,-71.5 290,-71.5 290,-39.5 191,-39.5"/>
<text text-anchor="start" x="199" y="-58.5" font-family="FreeSans" font-size="10.00" fill="#000000">ParticleIdentifier</text>
<text text-anchor="middle" x="240.5" y="-46.5" font-family="FreeSans" font-size="10.00" fill="#000000">::SkipParticle</text>
</a>
</g>
</g>
<!-- Node1&#45;&gt;Node14 -->
<g id="edge18" class="edge">
<title>Node1&#45;&gt;Node14</title>
<path fill="none" stroke="#191970" d="M72.0387,-260.1916C82.9962,-220.1402 112.7318,-130.5256 170,-80.5 176.0638,-75.2031 183.3256,-71.0055 190.8495,-67.6854"/>
<polygon fill="#191970" stroke="#191970" points="68.5916,-259.5389 69.4388,-270.0998 75.3624,-261.3156 68.5916,-259.5389"/>
</g>
<!-- Node15 -->
<g id="node15" class="node">
<title>Node15</title>
<g id="a_node15"><a xlink:href="../../db/dfd/classSmear_1_1PerfectID.html#a249a3ad5dbf893706cd03917c2495caa" target="_top" xlink:title="Smear::PerfectID::Smear">
<polygon fill="none" stroke="#000000" points="170,-.5 170,-20.5 311,-20.5 311,-.5 170,-.5"/>
<text text-anchor="middle" x="240.5" y="-7.5" font-family="FreeSans" font-size="10.00" fill="#000000">Smear::PerfectID::Smear</text>
</a>
</g>
</g>
<!-- Node1&#45;&gt;Node15 -->
<g id="edge19" class="edge">
<title>Node1&#45;&gt;Node15</title>
<path fill="none" stroke="#191970" d="M69.2593,-260.3044C75.6899,-212.6518 98.5133,-92.4928 170,-29.5 174.0896,-25.8963 178.7944,-22.9672 183.7923,-20.5877"/>
<polygon fill="#191970" stroke="#191970" points="65.7773,-259.944 68.0122,-270.3004 72.7234,-260.8107 65.7773,-259.944"/>
</g>
<!-- Node3&#45;&gt;Node4 -->
<g id="edge3" class="edge">
<title>Node3&#45;&gt;Node4</title>
<path fill="none" stroke="#191970" d="M429.4522,-289.7514C464.2553,-323.1958 539.9113,-395.8982 567.5886,-422.4951"/>
<polygon fill="#191970" stroke="#191970" points="431.5509,-286.914 421.9153,-282.5087 426.7006,-291.9613 431.5509,-286.914"/>
</g>
<!-- Node3&#45;&gt;Node5 -->
<g id="edge4" class="edge">
<title>Node3&#45;&gt;Node5</title>
<path fill="none" stroke="#191970" d="M448.5978,-258.9086C473.9082,-249.6357 507.5397,-237.3143 534.1724,-227.5569"/>
<polygon fill="#191970" stroke="#191970" points="447.1797,-255.7006 438.9941,-262.4271 449.5878,-262.2734 447.1797,-255.7006"/>
</g>
<!-- Node6 -->
<g id="node6" class="node">
<title>Node6</title>
<g id="a_node6"><a xlink:href="../../d1/df3/classSmear_1_1Tracker.html#a81a81adda8d4d3a77f9e610851555c2c" target="_top" xlink:title="Smear::Tracker::Smear">
<polygon fill="none" stroke="#000000" points="512,-262.5 512,-282.5 644,-282.5 644,-262.5 512,-262.5"/>
<text text-anchor="middle" x="578" y="-269.5" font-family="FreeSans" font-size="10.00" fill="#000000">Smear::Tracker::Smear</text>
</a>
</g>
</g>
<!-- Node3&#45;&gt;Node6 -->
<g id="edge5" class="edge">
<title>Node3&#45;&gt;Node6</title>
<path fill="none" stroke="#191970" d="M486.5892,-272.5C495.0492,-272.5 503.6227,-272.5 511.9557,-272.5"/>
<polygon fill="#191970" stroke="#191970" points="486.35,-269.0001 476.35,-272.5 486.35,-276.0001 486.35,-269.0001"/>
</g>
<!-- Node7&#45;&gt;Node2 -->
<g id="edge7" class="edge">
<title>Node7&#45;&gt;Node2</title>
<path fill="none" stroke="#191970" d="M300.1167,-460.7196C320.2611,-454.7116 342.5219,-448.0724 361.8136,-442.3187"/>
<polygon fill="#191970" stroke="#191970" points="299.0025,-457.3995 290.42,-463.6116 301.0032,-464.1075 299.0025,-457.3995"/>
</g>
<!-- Node8&#45;&gt;Node2 -->
<g id="edge9" class="edge">
<title>Node8&#45;&gt;Node2</title>
<path fill="none" stroke="#191970" d="M301.4748,-427.5C321.2308,-427.5 342.8952,-427.5 361.7364,-427.5"/>
<polygon fill="#191970" stroke="#191970" points="301.3427,-424.0001 291.3427,-427.5 301.3426,-431.0001 301.3427,-424.0001"/>
</g>
<!-- Node9&#45;&gt;Node2 -->
<g id="edge11" class="edge">
<title>Node9&#45;&gt;Node2</title>
<path fill="none" stroke="#191970" d="M304.3736,-395.55C323.3597,-401.2126 343.8687,-407.3293 361.81,-412.6802"/>
<polygon fill="#191970" stroke="#191970" points="305.1887,-392.1408 294.6055,-392.6367 303.188,-398.8488 305.1887,-392.1408"/>
</g>
<!-- Node10&#45;&gt;Node2 -->
<g id="edge13" class="edge">
<title>Node10&#45;&gt;Node2</title>
<path fill="none" stroke="#191970" d="M299.3275,-345.6769C303.3383,-347.5143 307.2658,-349.4581 311,-351.5 342.2848,-368.607 374.4742,-394.7405 393.733,-411.4705"/>
<polygon fill="#191970" stroke="#191970" points="300.4373,-342.3436 289.8695,-341.5863 297.6585,-348.7684 300.4373,-342.3436"/>
</g>
<!-- Node11&#45;&gt;Node3 -->
<g id="edge15" class="edge">
<title>Node11&#45;&gt;Node3</title>
<path fill="none" stroke="#191970" d="M296.804,-251.7072C315.8474,-255.1595 337.0868,-259.0099 356.0624,-262.4499"/>
<polygon fill="#191970" stroke="#191970" points="297.239,-248.2291 286.7751,-249.889 295.9903,-255.1168 297.239,-248.2291"/>
</g>
</g>
</svg>
