<?xml version="1.0" encoding="UTF-8" standalone="no"?>
<!DOCTYPE svg PUBLIC "-//W3C//DTD SVG 1.1//EN"
 "http://www.w3.org/Graphics/SVG/1.1/DTD/svg11.dtd">
<!-- Generated by graphviz version 2.40.1 (20161225.0304)
 -->
<!-- Title: erhic::VirtualParticle::GetP Pages: 1 -->
<svg width="685pt" height="374pt"
 viewBox="0.00 0.00 685.00 374.00" xmlns="http://www.w3.org/2000/svg" xmlns:xlink="http://www.w3.org/1999/xlink">
<g id="graph0" class="graph" transform="scale(1 1) rotate(0) translate(4 370)">
<title>erhic::VirtualParticle::GetP</title>
<!-- Node1 -->
<g id="node1" class="node">
<title>Node1</title>
<polygon fill="#bfbfbf" stroke="#000000" points="0,-175.5 0,-207.5 118,-207.5 118,-175.5 0,-175.5"/>
<text text-anchor="start" x="8" y="-194.5" font-family="FreeSans" font-size="10.00" fill="#000000">erhic::VirtualParticle</text>
<text text-anchor="middle" x="59" y="-182.5" font-family="FreeSans" font-size="10.00" fill="#000000">::GetP</text>
</g>
<!-- Node2 -->
<g id="node2" class="node">
<title>Node2</title>
<g id="a_node2"><a xlink:href="../../d2/d4a/classEPhenixMomentum.html#adf1201d21b405dd23c4986d8f0be2ebd" target="_top" xlink:title="EPhenixMomentum::compute\lMultipleScattering">
<polygon fill="none" stroke="#000000" points="154,-333.5 154,-365.5 319,-365.5 319,-333.5 154,-333.5"/>
<text text-anchor="start" x="162" y="-352.5" font-family="FreeSans" font-size="10.00" fill="#000000">EPhenixMomentum::compute</text>
<text text-anchor="middle" x="236.5" y="-340.5" font-family="FreeSans" font-size="10.00" fill="#000000">MultipleScattering</text>
</a>
</g>
</g>
<!-- Node1&#45;&gt;Node2 -->
<g id="edge1" class="edge">
<title>Node1&#45;&gt;Node2</title>
<path fill="none" stroke="#191970" d="M72.098,-216.8103C87.9657,-245.1989 117.2031,-290.8739 154,-318.5 161.9534,-324.4712 171.1866,-329.4087 180.537,-333.4524"/>
<polygon fill="#191970" stroke="#191970" points="75.0979,-215.0008 67.2377,-207.8966 68.9521,-218.3518 75.0979,-215.0008"/>
</g>
<!-- Node3 -->
<g id="node3" class="node">
<title>Node3</title>
<g id="a_node3"><a xlink:href="../../d2/d4a/classEPhenixMomentum.html#a07ea97c96bd661b66e1eff8c349b2951" target="_top" xlink:title="EPhenixMomentum::Smear">
<polygon fill="none" stroke="#000000" points="355,-316.5 355,-336.5 509,-336.5 509,-316.5 355,-316.5"/>
<text text-anchor="middle" x="432" y="-323.5" font-family="FreeSans" font-size="10.00" fill="#000000">EPhenixMomentum::Smear</text>
</a>
</g>
</g>
<!-- Node1&#45;&gt;Node3 -->
<g id="edge14" class="edge">
<title>Node1&#45;&gt;Node3</title>
<path fill="none" stroke="#191970" d="M76.2555,-215.8107C93.3325,-237.854 121.5661,-269.2985 154,-285.5 188.2604,-302.6139 285.0579,-314.1572 354.8011,-320.5258"/>
<polygon fill="#191970" stroke="#191970" points="78.8732,-213.4687 70.0609,-207.587 73.282,-217.6804 78.8732,-213.4687"/>
</g>
<!-- Node4 -->
<g id="node4" class="node">
<title>Node4</title>
<g id="a_node4"><a xlink:href="../../de/d88/classSmear_1_1Acceptance_1_1Zone.html#af532985cee1c2e8128abbc2d14eeff72" target="_top" xlink:title="Smear::Acceptance::\lZone::Contains">
<polygon fill="none" stroke="#000000" points="176.5,-243.5 176.5,-275.5 296.5,-275.5 296.5,-243.5 176.5,-243.5"/>
<text text-anchor="start" x="184.5" y="-262.5" font-family="FreeSans" font-size="10.00" fill="#000000">Smear::Acceptance::</text>
<text text-anchor="middle" x="236.5" y="-250.5" font-family="FreeSans" font-size="10.00" fill="#000000">Zone::Contains</text>
</a>
</g>
</g>
<!-- Node1&#45;&gt;Node4 -->
<g id="edge3" class="edge">
<title>Node1&#45;&gt;Node4</title>
<path fill="none" stroke="#191970" d="M101.2259,-212.043C117.5188,-219.5898 136.4347,-227.8957 154,-234.5 162.2651,-237.6076 171.1026,-240.6107 179.8095,-243.3923"/>
<polygon fill="#191970" stroke="#191970" points="102.5065,-208.778 91.966,-207.706 99.5373,-215.1171 102.5065,-208.778"/>
</g>
<!-- Node5 -->
<g id="node5" class="node">
<title>Node5</title>
<g id="a_node5"><a xlink:href="../../d9/dd8/namespaceSmear.html#a663bd2f272afd0427546f138d8dc6afb" target="_top" xlink:title="Smear::GetVariable">
<polygon fill="none" stroke="#000000" points="179,-204.5 179,-224.5 294,-224.5 294,-204.5 179,-204.5"/>
<text text-anchor="middle" x="236.5" y="-211.5" font-family="FreeSans" font-size="10.00" fill="#000000">Smear::GetVariable</text>
</a>
</g>
</g>
<!-- Node1&#45;&gt;Node5 -->
<g id="edge4" class="edge">
<title>Node1&#45;&gt;Node5</title>
<path fill="none" stroke="#191970" d="M128.3628,-200.4879C145.0741,-202.6533 162.7496,-204.9436 178.8593,-207.0311"/>
<polygon fill="#191970" stroke="#191970" points="128.4718,-196.9728 118.1049,-199.1587 127.5722,-203.9148 128.4718,-196.9728"/>
</g>
<!-- Node9 -->
<g id="node9" class="node">
<title>Node9</title>
<g id="a_node9"><a xlink:href="../../d1/df3/classSmear_1_1Tracker.html#aaf34e5e3103814db3bf9e541b406bcd0" target="_top" xlink:title="Smear::Tracker::Intrinsic\lContribution">
<polygon fill="none" stroke="#000000" points="167,-153.5 167,-185.5 306,-185.5 306,-153.5 167,-153.5"/>
<text text-anchor="start" x="175" y="-172.5" font-family="FreeSans" font-size="10.00" fill="#000000">Smear::Tracker::Intrinsic</text>
<text text-anchor="middle" x="236.5" y="-160.5" font-family="FreeSans" font-size="10.00" fill="#000000">Contribution</text>
</a>
</g>
</g>
<!-- Node1&#45;&gt;Node9 -->
<g id="edge8" class="edge">
<title>Node1&#45;&gt;Node9</title>
<path fill="none" stroke="#191970" d="M128.1605,-182.928C140.8766,-181.3519 154.1573,-179.7059 166.8866,-178.1281"/>
<polygon fill="#191970" stroke="#191970" points="127.5985,-179.4708 118.1049,-184.1743 128.4595,-186.4176 127.5985,-179.4708"/>
</g>
<!-- Node11 -->
<g id="node11" class="node">
<title>Node11</title>
<g id="a_node11"><a xlink:href="../../d1/df3/classSmear_1_1Tracker.html#a39413933c06352e5f4b53498498e6e61" target="_top" xlink:title="Smear::Tracker::Multiple\lScatteringContribution">
<polygon fill="none" stroke="#000000" points="167,-102.5 167,-134.5 306,-134.5 306,-102.5 167,-102.5"/>
<text text-anchor="start" x="175" y="-121.5" font-family="FreeSans" font-size="10.00" fill="#000000">Smear::Tracker::Multiple</text>
<text text-anchor="middle" x="236.5" y="-109.5" font-family="FreeSans" font-size="10.00" fill="#000000">ScatteringContribution</text>
</a>
</g>
</g>
<!-- Node1&#45;&gt;Node11 -->
<g id="edge11" class="edge">
<title>Node1&#45;&gt;Node11</title>
<path fill="none" stroke="#191970" d="M96.6385,-170.5846C113.8124,-161.5391 134.6059,-151.2697 154,-143.5 161.9188,-140.3275 170.4013,-137.3284 178.8039,-134.5827"/>
<polygon fill="#191970" stroke="#191970" points="94.6763,-167.6645 87.5017,-175.4604 97.9719,-173.8402 94.6763,-167.6645"/>
</g>
<!-- Node12 -->
<g id="node12" class="node">
<title>Node12</title>
<g id="a_node12"><a xlink:href="../../dd/df6/classEicEventGenerator.html#a40924445938964cff3db00bb4f59debe" target="_top" xlink:title="EicEventGenerator::\lReadEvent">
<polygon fill="none" stroke="#000000" points="178,-51.5 178,-83.5 295,-83.5 295,-51.5 178,-51.5"/>
<text text-anchor="start" x="186" y="-70.5" font-family="FreeSans" font-size="10.00" fill="#000000">EicEventGenerator::</text>
<text text-anchor="middle" x="236.5" y="-58.5" font-family="FreeSans" font-size="10.00" fill="#000000">ReadEvent</text>
</a>
</g>
</g>
<!-- Node1&#45;&gt;Node12 -->
<g id="edge13" class="edge">
<title>Node1&#45;&gt;Node12</title>
<path fill="none" stroke="#191970" d="M76.3469,-167.2846C93.6298,-144.8361 122.1295,-112.0454 154,-92.5 161.2721,-88.0402 169.3958,-84.327 177.6314,-81.2491"/>
<polygon fill="#191970" stroke="#191970" points="73.5065,-165.2383 70.2887,-175.3327 79.0991,-169.4482 73.5065,-165.2383"/>
</g>
<!-- Node13 -->
<g id="node13" class="node">
<title>Node13</title>
<g id="a_node13"><a xlink:href="../../d0/d91/structSmear_1_1ParticleID.html#a2c109c1306f27d7d427ce4c943075be1" target="_top" xlink:title="Smear::ParticleID::\lSmear">
<polygon fill="none" stroke="#000000" points="182,-.5 182,-32.5 291,-32.5 291,-.5 182,-.5"/>
<text text-anchor="start" x="190" y="-19.5" font-family="FreeSans" font-size="10.00" fill="#000000">Smear::ParticleID::</text>
<text text-anchor="middle" x="236.5" y="-7.5" font-family="FreeSans" font-size="10.00" fill="#000000">Smear</text>
</a>
</g>
</g>
<!-- Node1&#45;&gt;Node13 -->
<g id="edge15" class="edge">
<title>Node1&#45;&gt;Node13</title>
<path fill="none" stroke="#191970" d="M68.6404,-165.7061C82.4664,-132.198 111.0866,-74.1386 154,-41.5 162.2194,-35.2486 172.0014,-30.5509 181.9066,-27.0235"/>
<polygon fill="#191970" stroke="#191970" points="65.2828,-164.6767 64.8251,-175.2617 71.7838,-167.2724 65.2828,-164.6767"/>
</g>
<!-- Node2&#45;&gt;Node3 -->
<g id="edge2" class="edge">
<title>Node2&#45;&gt;Node3</title>
<path fill="none" stroke="#191970" d="M329.2065,-338.5934C337.8276,-337.5791 346.5011,-336.5587 354.958,-335.5638"/>
<polygon fill="#191970" stroke="#191970" points="328.6488,-335.1347 319.1262,-339.7793 329.4667,-342.0868 328.6488,-335.1347"/>
</g>
<!-- Node6 -->
<g id="node6" class="node">
<title>Node6</title>
<g id="a_node6"><a xlink:href="../../d2/d06/classSmear_1_1Acceptance_1_1CustomCut.html#a6a5768704901143c27cf752aa1290ec8" target="_top" xlink:title="Smear::Acceptance::\lCustomCut::Contains">
<polygon fill="none" stroke="#000000" points="370.5,-243.5 370.5,-275.5 493.5,-275.5 493.5,-243.5 370.5,-243.5"/>
<text text-anchor="start" x="378.5" y="-262.5" font-family="FreeSans" font-size="10.00" fill="#000000">Smear::Acceptance::</text>
<text text-anchor="middle" x="432" y="-250.5" font-family="FreeSans" font-size="10.00" fill="#000000">CustomCut::Contains</text>
</a>
</g>
</g>
<!-- Node5&#45;&gt;Node6 -->
<g id="edge5" class="edge">
<title>Node5&#45;&gt;Node6</title>
<path fill="none" stroke="#191970" d="M290.3429,-226.8935C315.1732,-232.6089 344.7749,-239.4226 370.4821,-245.3399"/>
<polygon fill="#191970" stroke="#191970" points="290.9043,-223.4313 280.374,-224.5989 289.3341,-230.2529 290.9043,-223.4313"/>
</g>
<!-- Node7 -->
<g id="node7" class="node">
<title>Node7</title>
<g id="a_node7"><a xlink:href="../../d9/de1/classSmear_1_1Device.html#aeff74421cc6098556a73f48dbe80e540" target="_top" xlink:title="Smear::Device::Smear">
<polygon fill="none" stroke="#000000" points="367,-204.5 367,-224.5 497,-224.5 497,-204.5 367,-204.5"/>
<text text-anchor="middle" x="432" y="-211.5" font-family="FreeSans" font-size="10.00" fill="#000000">Smear::Device::Smear</text>
</a>
</g>
</g>
<!-- Node5&#45;&gt;Node7 -->
<g id="edge6" class="edge">
<title>Node5&#45;&gt;Node7</title>
<path fill="none" stroke="#191970" d="M304.2158,-214.5C324.5383,-214.5 346.779,-214.5 366.9268,-214.5"/>
<polygon fill="#191970" stroke="#191970" points="304.0991,-211.0001 294.0991,-214.5 304.099,-218.0001 304.0991,-211.0001"/>
</g>
<!-- Node8 -->
<g id="node8" class="node">
<title>Node8</title>
<g id="a_node8"><a xlink:href="../../d1/df3/classSmear_1_1Tracker.html#a81a81adda8d4d3a77f9e610851555c2c" target="_top" xlink:title="Smear::Tracker::Smear">
<polygon fill="none" stroke="#000000" points="545,-145.5 545,-165.5 677,-165.5 677,-145.5 545,-145.5"/>
<text text-anchor="middle" x="611" y="-152.5" font-family="FreeSans" font-size="10.00" fill="#000000">Smear::Tracker::Smear</text>
</a>
</g>
</g>
<!-- Node5&#45;&gt;Node8 -->
<g id="edge7" class="edge">
<title>Node5&#45;&gt;Node8</title>
<path fill="none" stroke="#191970" d="M304.2246,-203.5935C320.8285,-200.9327 338.5541,-198.1033 355,-195.5 420.0907,-185.1966 494.52,-173.5862 546.2831,-165.539"/>
<polygon fill="#191970" stroke="#191970" points="303.3724,-200.1854 294.0528,-205.2248 304.4809,-207.097 303.3724,-200.1854"/>
</g>
<!-- Node10 -->
<g id="node10" class="node">
<title>Node10</title>
<g id="a_node10"><a xlink:href="../../d1/df3/classSmear_1_1Tracker.html#a4ab872441608d67d3ef2f73fff8fe438" target="_top" xlink:title="Smear::Tracker::Resolution">
<polygon fill="none" stroke="#000000" points="356.5,-126.5 356.5,-146.5 507.5,-146.5 507.5,-126.5 356.5,-126.5"/>
<text text-anchor="middle" x="432" y="-133.5" font-family="FreeSans" font-size="10.00" fill="#000000">Smear::Tracker::Resolution</text>
</a>
</g>
</g>
<!-- Node9&#45;&gt;Node10 -->
<g id="edge9" class="edge">
<title>Node9&#45;&gt;Node10</title>
<path fill="none" stroke="#191970" d="M316.2983,-156.0302C335.1282,-152.8518 354.8784,-149.518 372.6231,-146.5227"/>
<polygon fill="#191970" stroke="#191970" points="315.5299,-152.6103 306.252,-157.726 316.6951,-159.5127 315.5299,-152.6103"/>
</g>
<!-- Node10&#45;&gt;Node8 -->
<g id="edge10" class="edge">
<title>Node10&#45;&gt;Node8</title>
<path fill="none" stroke="#191970" d="M517.8894,-145.6167C526.9928,-146.583 536.1461,-147.5546 544.9717,-148.4914"/>
<polygon fill="#191970" stroke="#191970" points="517.9663,-142.1053 507.6527,-144.5302 517.2273,-149.0662 517.9663,-142.1053"/>
</g>
<!-- Node11&#45;&gt;Node10 -->
<g id="edge12" class="edge">
<title>Node11&#45;&gt;Node10</title>
<path fill="none" stroke="#191970" d="M316.2642,-125.844C329.495,-127.0622 343.1812,-128.3223 356.3075,-129.5309"/>
<polygon fill="#191970" stroke="#191970" points="316.5308,-122.3539 306.252,-124.9222 315.889,-129.3244 316.5308,-122.3539"/>
</g>
</g>
</svg>
