<?xml version="1.0" encoding="UTF-8" standalone="no"?>
<!DOCTYPE svg PUBLIC "-//W3C//DTD SVG 1.1//EN"
 "http://www.w3.org/Graphics/SVG/1.1/DTD/svg11.dtd">
<!-- Generated by graphviz version 2.40.1 (20161225.0304)
 -->
<!-- Title: TrkrCluster::getError Pages: 1 -->
<svg width="505pt" height="464pt"
 viewBox="0.00 0.00 505.00 464.00" xmlns="http://www.w3.org/2000/svg" xmlns:xlink="http://www.w3.org/1999/xlink">
<g id="graph0" class="graph" transform="scale(1 1) rotate(0) translate(4 460)">
<title>TrkrCluster::getError</title>
<!-- Node1 -->
<g id="node1" class="node">
<title>Node1</title>
<polygon fill="#bfbfbf" stroke="#000000" points="0,-214.5 0,-234.5 120,-234.5 120,-214.5 0,-214.5"/>
<text text-anchor="middle" x="60" y="-221.5" font-family="FreeSans" font-size="10.00" fill="#000000">TrkrCluster::getError</text>
</g>
<!-- Node2 -->
<g id="node2" class="node">
<title>Node2</title>
<g id="a_node2"><a xlink:href="../../da/df1/classPHRTreeSeeding.html#a4bd5e58d3f18d37a3ac8a29f7c4b0c6c" target="_top" xlink:title="PHRTreeSeeding::chisq">
<polygon fill="none" stroke="#000000" points="168.5,-435.5 168.5,-455.5 299.5,-455.5 299.5,-435.5 168.5,-435.5"/>
<text text-anchor="middle" x="234" y="-442.5" font-family="FreeSans" font-size="10.00" fill="#000000">PHRTreeSeeding::chisq</text>
</a>
</g>
</g>
<!-- Node1&#45;&gt;Node2 -->
<g id="edge1" class="edge">
<title>Node1&#45;&gt;Node2</title>
<path fill="none" stroke="#191970" d="M63.617,-244.6545C72.0492,-285.5498 96.9615,-378.4601 156,-426.5 160.4324,-430.1067 165.4458,-433.0455 170.7403,-435.4377"/>
<polygon fill="#191970" stroke="#191970" points="67.0438,-243.9407 61.6997,-234.7925 60.1725,-245.2767 67.0438,-243.9407"/>
</g>
<!-- Node3 -->
<g id="node3" class="node">
<title>Node3</title>
<g id="a_node3"><a xlink:href="../../d6/d11/classSvtxEvaluator.html#ace95fef2b7b4ad8b797f6695e053dd6e" target="_top" xlink:title="dump the evaluator information into ntuple for external analysis">
<polygon fill="none" stroke="#000000" points="163.5,-384.5 163.5,-416.5 304.5,-416.5 304.5,-384.5 163.5,-384.5"/>
<text text-anchor="start" x="171.5" y="-403.5" font-family="FreeSans" font-size="10.00" fill="#000000">SvtxEvaluator::fillOutput</text>
<text text-anchor="middle" x="234" y="-391.5" font-family="FreeSans" font-size="10.00" fill="#000000">Ntuples</text>
</a>
</g>
</g>
<!-- Node1&#45;&gt;Node3 -->
<g id="edge2" class="edge">
<title>Node1&#45;&gt;Node3</title>
<path fill="none" stroke="#191970" d="M67.353,-244.289C80.3155,-276.4972 110.2653,-340.2002 156,-375.5 160.3903,-378.8886 165.2531,-381.8249 170.3427,-384.3682"/>
<polygon fill="#191970" stroke="#191970" points="70.4954,-242.7126 63.61,-234.6602 63.971,-245.2489 70.4954,-242.7126"/>
</g>
<!-- Node5 -->
<g id="node5" class="node">
<title>Node5</title>
<g id="a_node5"><a xlink:href="../../d7/df2/classPHActsSourceLinks.html#affc397de4d62bdc3dfe9e6e248805dff" target="_top" xlink:title="Same as above, except for INTT.">
<polygon fill="none" stroke="#000000" points="175,-333.5 175,-365.5 293,-365.5 293,-333.5 175,-333.5"/>
<text text-anchor="start" x="183" y="-352.5" font-family="FreeSans" font-size="10.00" fill="#000000">PHActsSourceLinks::</text>
<text text-anchor="middle" x="234" y="-340.5" font-family="FreeSans" font-size="10.00" fill="#000000">getInttLocalCoords</text>
</a>
</g>
</g>
<!-- Node1&#45;&gt;Node5 -->
<g id="edge4" class="edge">
<title>Node1&#45;&gt;Node5</title>
<path fill="none" stroke="#191970" d="M73.0622,-242.8943C89.8425,-265.2432 121.0097,-302.6609 156,-324.5 161.7904,-328.1141 168.1516,-331.2518 174.666,-333.9647"/>
<polygon fill="#191970" stroke="#191970" points="75.7107,-240.5874 66.9733,-234.5951 70.0668,-244.7283 75.7107,-240.5874"/>
</g>
<!-- Node7 -->
<g id="node7" class="node">
<title>Node7</title>
<g id="a_node7"><a xlink:href="../../d7/df2/classPHActsSourceLinks.html#a00905ab986ea210f35641915875ab7cc" target="_top" xlink:title="PHActsSourceLinks::\lgetMvtxLocalCoords">
<polygon fill="none" stroke="#000000" points="175,-282.5 175,-314.5 293,-314.5 293,-282.5 175,-282.5"/>
<text text-anchor="start" x="183" y="-301.5" font-family="FreeSans" font-size="10.00" fill="#000000">PHActsSourceLinks::</text>
<text text-anchor="middle" x="234" y="-289.5" font-family="FreeSans" font-size="10.00" fill="#000000">getMvtxLocalCoords</text>
</a>
</g>
</g>
<!-- Node1&#45;&gt;Node7 -->
<g id="edge6" class="edge">
<title>Node1&#45;&gt;Node7</title>
<path fill="none" stroke="#191970" d="M86.5791,-239.5385C105.5512,-249.9056 131.8773,-263.5544 156,-273.5 163.6251,-276.6438 171.7988,-279.6463 179.8812,-282.4101"/>
<polygon fill="#191970" stroke="#191970" points="88.0844,-236.3715 77.6389,-234.5987 84.699,-242.4985 88.0844,-236.3715"/>
</g>
<!-- Node8 -->
<g id="node8" class="node">
<title>Node8</title>
<g id="a_node8"><a xlink:href="../../d7/df2/classPHActsSourceLinks.html#a5a8d1102debed8f768e86f3999782f05" target="_top" xlink:title="Same as above, except for TPC.">
<polygon fill="none" stroke="#000000" points="175,-231.5 175,-263.5 293,-263.5 293,-231.5 175,-231.5"/>
<text text-anchor="start" x="183" y="-250.5" font-family="FreeSans" font-size="10.00" fill="#000000">PHActsSourceLinks::</text>
<text text-anchor="middle" x="234" y="-238.5" font-family="FreeSans" font-size="10.00" fill="#000000">getTpcLocalCoords</text>
</a>
</g>
</g>
<!-- Node1&#45;&gt;Node8 -->
<g id="edge8" class="edge">
<title>Node1&#45;&gt;Node8</title>
<path fill="none" stroke="#191970" d="M130.4558,-233.8131C145.2101,-235.7634 160.6235,-237.8008 174.9133,-239.6897"/>
<polygon fill="#191970" stroke="#191970" points="130.7409,-230.3204 120.3684,-232.4797 129.8235,-237.2601 130.7409,-230.3204"/>
</g>
<!-- Node9 -->
<g id="node9" class="node">
<title>Node9</title>
<g id="a_node9"><a xlink:href="../../da/df1/classPHRTreeSeeding.html#a0aba948a58d39c1064797b4568d7d811" target="_top" xlink:title="PHRTreeSeeding::Process">
<polygon fill="none" stroke="#000000" points="162.5,-192.5 162.5,-212.5 305.5,-212.5 305.5,-192.5 162.5,-192.5"/>
<text text-anchor="middle" x="234" y="-199.5" font-family="FreeSans" font-size="10.00" fill="#000000">PHRTreeSeeding::Process</text>
</a>
</g>
</g>
<!-- Node1&#45;&gt;Node9 -->
<g id="edge10" class="edge">
<title>Node1&#45;&gt;Node9</title>
<path fill="none" stroke="#191970" d="M130.3565,-215.6044C140.9046,-214.2707 151.7919,-212.8941 162.3663,-211.5571"/>
<polygon fill="#191970" stroke="#191970" points="129.8504,-212.1404 120.3684,-216.8672 130.7285,-219.0851 129.8504,-212.1404"/>
</g>
<!-- Node10 -->
<g id="node10" class="node">
<title>Node10</title>
<g id="a_node10"><a xlink:href="../../d7/d3c/PHRTreeSeeding_8cc.html#a35456827f072aca76d5e96388015c02d" target="_top" xlink:title="RosenBrock">
<polygon fill="none" stroke="#000000" points="196,-153.5 196,-173.5 272,-173.5 272,-153.5 196,-153.5"/>
<text text-anchor="middle" x="234" y="-160.5" font-family="FreeSans" font-size="10.00" fill="#000000">RosenBrock</text>
</a>
</g>
</g>
<!-- Node1&#45;&gt;Node10 -->
<g id="edge11" class="edge">
<title>Node1&#45;&gt;Node10</title>
<path fill="none" stroke="#191970" d="M90.1732,-210.2074C108.8552,-201.7128 133.4952,-191.1411 156,-183.5 168.8404,-179.1403 183.1486,-175.213 195.9689,-172.0164"/>
<polygon fill="#191970" stroke="#191970" points="88.6107,-207.0735 80.9898,-214.4337 91.5372,-213.4325 88.6107,-207.0735"/>
</g>
<!-- Node11 -->
<g id="node11" class="node">
<title>Node11</title>
<g id="a_node11"><a xlink:href="../../d1/d97/classPHPatternReco.html#aceb09e501b427d8fbce29e7790bd19d4" target="_top" xlink:title="PHPatternReco::translate\l_input">
<polygon fill="none" stroke="#000000" points="163,-102.5 163,-134.5 305,-134.5 305,-102.5 163,-102.5"/>
<text text-anchor="start" x="171" y="-121.5" font-family="FreeSans" font-size="10.00" fill="#000000">PHPatternReco::translate</text>
<text text-anchor="middle" x="234" y="-109.5" font-family="FreeSans" font-size="10.00" fill="#000000">_input</text>
</a>
</g>
</g>
<!-- Node1&#45;&gt;Node11 -->
<g id="edge12" class="edge">
<title>Node1&#45;&gt;Node11</title>
<path fill="none" stroke="#191970" d="M77.1422,-206.7473C95.2716,-188.8582 125.4296,-161.5294 156,-144.5 162.7338,-140.7489 170.0973,-137.4235 177.5253,-134.511"/>
<polygon fill="#191970" stroke="#191970" points="74.2695,-204.6725 69.7006,-214.2315 79.2334,-209.6081 74.2695,-204.6725"/>
</g>
<!-- Node13 -->
<g id="node13" class="node">
<title>Node13</title>
<g id="a_node13"><a xlink:href="../../d2/d8f/classPHInitZVertexing.html#aefdd3d35e9f530093d9dc58a457b1e79" target="_top" xlink:title="PHInitZVertexing::translate\l_input">
<polygon fill="none" stroke="#000000" points="157.5,-51.5 157.5,-83.5 310.5,-83.5 310.5,-51.5 157.5,-51.5"/>
<text text-anchor="start" x="165.5" y="-70.5" font-family="FreeSans" font-size="10.00" fill="#000000">PHInitZVertexing::translate</text>
<text text-anchor="middle" x="234" y="-58.5" font-family="FreeSans" font-size="10.00" fill="#000000">_input</text>
</a>
</g>
</g>
<!-- Node1&#45;&gt;Node13 -->
<g id="edge14" class="edge">
<title>Node1&#45;&gt;Node13</title>
<path fill="none" stroke="#191970" d="M69.3225,-205.0034C83.9181,-176.486 114.8105,-123.536 156,-93.5 161.19,-89.7154 166.9656,-86.4579 172.9604,-83.6592"/>
<polygon fill="#191970" stroke="#191970" points="66.0102,-203.804 64.6937,-214.3167 72.2787,-206.9195 66.0102,-203.804"/>
</g>
<!-- Node15 -->
<g id="node15" class="node">
<title>Node15</title>
<g id="a_node15"><a xlink:href="../../d8/dd4/classPHHoughSeeding.html#a4204cf7d0291bbdbfd0d299e8435512e" target="_top" xlink:title="fetch node pointers">
<polygon fill="none" stroke="#000000" points="156,-.5 156,-32.5 312,-32.5 312,-.5 156,-.5"/>
<text text-anchor="start" x="164" y="-19.5" font-family="FreeSans" font-size="10.00" fill="#000000">PHHoughSeeding::translate</text>
<text text-anchor="middle" x="234" y="-7.5" font-family="FreeSans" font-size="10.00" fill="#000000">_input</text>
</a>
</g>
</g>
<!-- Node1&#45;&gt;Node15 -->
<g id="edge16" class="edge">
<title>Node1&#45;&gt;Node15</title>
<path fill="none" stroke="#191970" d="M65.1864,-204.4076C75.837,-167.0978 103.6872,-86.8838 156,-42.5 160.4626,-38.7138 165.4965,-35.4734 170.8043,-32.7012"/>
<polygon fill="#191970" stroke="#191970" points="61.7904,-203.5574 62.5282,-214.1266 68.5424,-205.4042 61.7904,-203.5574"/>
</g>
<!-- Node4 -->
<g id="node4" class="node">
<title>Node4</title>
<g id="a_node4"><a xlink:href="../../d6/d11/classSvtxEvaluator.html#ac66ea4145deb621d9e4fb38cf852dc33" target="_top" xlink:title="SvtxEvaluator::process\l_event">
<polygon fill="none" stroke="#000000" points="356.5,-384.5 356.5,-416.5 488.5,-416.5 488.5,-384.5 356.5,-384.5"/>
<text text-anchor="start" x="364.5" y="-403.5" font-family="FreeSans" font-size="10.00" fill="#000000">SvtxEvaluator::process</text>
<text text-anchor="middle" x="422.5" y="-391.5" font-family="FreeSans" font-size="10.00" fill="#000000">_event</text>
</a>
</g>
</g>
<!-- Node3&#45;&gt;Node4 -->
<g id="edge3" class="edge">
<title>Node3&#45;&gt;Node4</title>
<path fill="none" stroke="#191970" d="M314.749,-400.5C328.6342,-400.5 342.9186,-400.5 356.3629,-400.5"/>
<polygon fill="#191970" stroke="#191970" points="314.7268,-397.0001 304.7267,-400.5 314.7267,-404.0001 314.7268,-397.0001"/>
</g>
<!-- Node6 -->
<g id="node6" class="node">
<title>Node6</title>
<g id="a_node6"><a xlink:href="../../d7/df2/classPHActsSourceLinks.html#a6f9bd92adb0405e9b210bc1cd199f9dc" target="_top" xlink:title="PHActsSourceLinks::\lprocess_event">
<polygon fill="none" stroke="#000000" points="363.5,-282.5 363.5,-314.5 481.5,-314.5 481.5,-282.5 363.5,-282.5"/>
<text text-anchor="start" x="371.5" y="-301.5" font-family="FreeSans" font-size="10.00" fill="#000000">PHActsSourceLinks::</text>
<text text-anchor="middle" x="422.5" y="-289.5" font-family="FreeSans" font-size="10.00" fill="#000000">process_event</text>
</a>
</g>
</g>
<!-- Node5&#45;&gt;Node6 -->
<g id="edge5" class="edge">
<title>Node5&#45;&gt;Node6</title>
<path fill="none" stroke="#191970" d="M302.9903,-330.8342C322.7607,-325.4852 344.132,-319.703 363.2606,-314.5276"/>
<polygon fill="#191970" stroke="#191970" points="301.8642,-327.5129 293.1254,-333.5032 303.6924,-334.27 301.8642,-327.5129"/>
</g>
<!-- Node7&#45;&gt;Node6 -->
<g id="edge7" class="edge">
<title>Node7&#45;&gt;Node6</title>
<path fill="none" stroke="#191970" d="M303.2613,-298.5C322.9558,-298.5 344.2193,-298.5 363.2606,-298.5"/>
<polygon fill="#191970" stroke="#191970" points="303.1254,-295.0001 293.1254,-298.5 303.1254,-302.0001 303.1254,-295.0001"/>
</g>
<!-- Node8&#45;&gt;Node6 -->
<g id="edge9" class="edge">
<title>Node8&#45;&gt;Node6</title>
<path fill="none" stroke="#191970" d="M302.9903,-266.1658C322.7607,-271.5148 344.132,-277.297 363.2606,-282.4724"/>
<polygon fill="#191970" stroke="#191970" points="303.6924,-262.73 293.1254,-263.4968 301.8642,-269.4871 303.6924,-262.73"/>
</g>
<!-- Node12 -->
<g id="node12" class="node">
<title>Node12</title>
<g id="a_node12"><a xlink:href="../../d1/d97/classPHPatternReco.html#ac97e2c1e8d98ea16a11d44c134ad0299" target="_top" xlink:title="PHPatternReco::process\l_event">
<polygon fill="none" stroke="#000000" points="354.5,-102.5 354.5,-134.5 490.5,-134.5 490.5,-102.5 354.5,-102.5"/>
<text text-anchor="start" x="362.5" y="-121.5" font-family="FreeSans" font-size="10.00" fill="#000000">PHPatternReco::process</text>
<text text-anchor="middle" x="422.5" y="-109.5" font-family="FreeSans" font-size="10.00" fill="#000000">_event</text>
</a>
</g>
</g>
<!-- Node11&#45;&gt;Node12 -->
<g id="edge13" class="edge">
<title>Node11&#45;&gt;Node12</title>
<path fill="none" stroke="#191970" d="M315.5315,-118.5C328.445,-118.5 341.6828,-118.5 354.2515,-118.5"/>
<polygon fill="#191970" stroke="#191970" points="315.2638,-115.0001 305.2638,-118.5 315.2637,-122.0001 315.2638,-115.0001"/>
</g>
<!-- Node14 -->
<g id="node14" class="node">
<title>Node14</title>
<g id="a_node14"><a xlink:href="../../d2/d8f/classPHInitZVertexing.html#a50743230c0f324a28d4410227a526ec8" target="_top" xlink:title="PHInitZVertexing::Process">
<polygon fill="none" stroke="#000000" points="349.5,-57.5 349.5,-77.5 495.5,-77.5 495.5,-57.5 349.5,-57.5"/>
<text text-anchor="middle" x="422.5" y="-64.5" font-family="FreeSans" font-size="10.00" fill="#000000">PHInitZVertexing::Process</text>
</a>
</g>
</g>
<!-- Node13&#45;&gt;Node14 -->
<g id="edge15" class="edge">
<title>Node13&#45;&gt;Node14</title>
<path fill="none" stroke="#191970" d="M320.8989,-67.5C330.3784,-67.5 339.9576,-67.5 349.25,-67.5"/>
<polygon fill="#191970" stroke="#191970" points="320.6702,-64.0001 310.6702,-67.5 320.6701,-71.0001 320.6702,-64.0001"/>
</g>
<!-- Node16 -->
<g id="node16" class="node">
<title>Node16</title>
<g id="a_node16"><a xlink:href="../../d8/dd4/classPHHoughSeeding.html#a8b2c7b85b2bcbe054e071dd6ff624f7d" target="_top" xlink:title="PHHoughSeeding::Process">
<polygon fill="none" stroke="#000000" points="348,-6.5 348,-26.5 497,-26.5 497,-6.5 348,-6.5"/>
<text text-anchor="middle" x="422.5" y="-13.5" font-family="FreeSans" font-size="10.00" fill="#000000">PHHoughSeeding::Process</text>
</a>
</g>
</g>
<!-- Node15&#45;&gt;Node16 -->
<g id="edge17" class="edge">
<title>Node15&#45;&gt;Node16</title>
<path fill="none" stroke="#191970" d="M322.0958,-16.5C330.7115,-16.5 339.396,-16.5 347.8597,-16.5"/>
<polygon fill="#191970" stroke="#191970" points="322.0309,-13.0001 312.0309,-16.5 322.0308,-20.0001 322.0309,-13.0001"/>
</g>
</g>
</svg>
