<?xml version="1.0" encoding="UTF-8" standalone="no"?>
<!DOCTYPE svg PUBLIC "-//W3C//DTD SVG 1.1//EN"
 "http://www.w3.org/Graphics/SVG/1.1/DTD/svg11.dtd">
<!-- Generated by graphviz version 2.40.1 (20161225.0304)
 -->
<!-- Title: fun4all_coresoftware/blob/master/simulation/g4simulation/g4vertex/GlobalVertex.h Pages: 1 -->
<svg width="1608pt" height="251pt"
 viewBox="0.00 0.00 1608.00 251.00" xmlns="http://www.w3.org/2000/svg" xmlns:xlink="http://www.w3.org/1999/xlink">
<g id="graph0" class="graph" transform="scale(1 1) rotate(0) translate(4 247)">
<title>fun4all_coresoftware/blob/master/simulation/g4simulation/g4vertex/GlobalVertex.h</title>
<!-- Node1 -->
<g id="node1" class="node">
<title>Node1</title>
<polygon fill="#bfbfbf" stroke="#000000" points="1040.5,-186.5 1040.5,-242.5 1177.5,-242.5 1177.5,-186.5 1040.5,-186.5"/>
<text text-anchor="start" x="1048.5" y="-229.5" font-family="FreeSans" font-size="10.00" fill="#000000">fun4all_coresoftware</text>
<text text-anchor="start" x="1048.5" y="-217.5" font-family="FreeSans" font-size="10.00" fill="#000000">/blob/master/simulation</text>
<text text-anchor="start" x="1048.5" y="-205.5" font-family="FreeSans" font-size="10.00" fill="#000000">/g4simulation/g4vertex</text>
<text text-anchor="middle" x="1109" y="-193.5" font-family="FreeSans" font-size="10.00" fill="#000000">/GlobalVertex.h</text>
</g>
<!-- Node2 -->
<g id="node2" class="node">
<title>Node2</title>
<g id="a_node2"><a xlink:href="../../d6/d12/ClusterIso_8cc.html" target="_top" xlink:title="fun4all_coresoftware\l/blob/master/offline\l/packages/ClusterIso/Cluster\lIso.cc">
<polygon fill="none" stroke="#000000" points="0,-93.5 0,-149.5 162,-149.5 162,-93.5 0,-93.5"/>
<text text-anchor="start" x="8" y="-136.5" font-family="FreeSans" font-size="10.00" fill="#000000">fun4all_coresoftware</text>
<text text-anchor="start" x="8" y="-124.5" font-family="FreeSans" font-size="10.00" fill="#000000">/blob/master/offline</text>
<text text-anchor="start" x="8" y="-112.5" font-family="FreeSans" font-size="10.00" fill="#000000">/packages/ClusterIso/Cluster</text>
<text text-anchor="middle" x="81" y="-100.5" font-family="FreeSans" font-size="10.00" fill="#000000">Iso.cc</text>
</a>
</g>
</g>
<!-- Node1&#45;&gt;Node2 -->
<g id="edge1" class="edge">
<title>Node1&#45;&gt;Node2</title>
<path fill="none" stroke="#191970" d="M1030.203,-211.496C835.3727,-203.6802 334.9472,-181.1336 171,-150 168.1017,-149.4496 165.1659,-148.8357 162.2124,-148.17"/>
<polygon fill="#191970" stroke="#191970" points="1030.2323,-214.9999 1040.3639,-211.9014 1030.5114,-208.0054 1030.2323,-214.9999"/>
</g>
<!-- Node3 -->
<g id="node3" class="node">
<title>Node3</title>
<g id="a_node3"><a xlink:href="../../de/dfa/DumpGlobalVertexMap_8cc.html" target="_top" xlink:title="fun4all_coresoftware\l/blob/master/offline\l/packages/NodeDump/DumpGlobal\lVertexMap.cc">
<polygon fill="none" stroke="#000000" points="180.5,-93.5 180.5,-149.5 375.5,-149.5 375.5,-93.5 180.5,-93.5"/>
<text text-anchor="start" x="188.5" y="-136.5" font-family="FreeSans" font-size="10.00" fill="#000000">fun4all_coresoftware</text>
<text text-anchor="start" x="188.5" y="-124.5" font-family="FreeSans" font-size="10.00" fill="#000000">/blob/master/offline</text>
<text text-anchor="start" x="188.5" y="-112.5" font-family="FreeSans" font-size="10.00" fill="#000000">/packages/NodeDump/DumpGlobal</text>
<text text-anchor="middle" x="278" y="-100.5" font-family="FreeSans" font-size="10.00" fill="#000000">VertexMap.cc</text>
</a>
</g>
</g>
<!-- Node1&#45;&gt;Node3 -->
<g id="edge2" class="edge">
<title>Node1&#45;&gt;Node3</title>
<path fill="none" stroke="#191970" d="M1030.0987,-211.9708C896.2794,-206.682 616.6691,-191.3045 384,-150 381.2794,-149.517 378.5269,-148.9973 375.7548,-148.4466"/>
<polygon fill="#191970" stroke="#191970" points="1030.1294,-215.4745 1040.2572,-212.3638 1030.4001,-208.4797 1030.1294,-215.4745"/>
</g>
<!-- Node4 -->
<g id="node4" class="node">
<title>Node4</title>
<g id="a_node4"><a xlink:href="../../d0/d13/CaloEvaluator_8cc.html" target="_top" xlink:title="fun4all_coresoftware\l/blob/master/simulation\l/g4simulation/g4eval/CaloEvaluator.cc">
<polygon fill="none" stroke="#000000" points="393.5,-99.5 393.5,-143.5 604.5,-143.5 604.5,-99.5 393.5,-99.5"/>
<text text-anchor="start" x="401.5" y="-130.5" font-family="FreeSans" font-size="10.00" fill="#000000">fun4all_coresoftware</text>
<text text-anchor="start" x="401.5" y="-118.5" font-family="FreeSans" font-size="10.00" fill="#000000">/blob/master/simulation</text>
<text text-anchor="middle" x="499" y="-106.5" font-family="FreeSans" font-size="10.00" fill="#000000">/g4simulation/g4eval/CaloEvaluator.cc</text>
</a>
</g>
</g>
<!-- Node1&#45;&gt;Node4 -->
<g id="edge3" class="edge">
<title>Node1&#45;&gt;Node4</title>
<path fill="none" stroke="#191970" d="M1030.0205,-206.9993C931.9547,-197.0461 759.7956,-177.4732 614,-150 603.9943,-148.1146 593.5584,-145.8927 583.2328,-143.535"/>
<polygon fill="#191970" stroke="#191970" points="1029.8485,-210.4996 1040.1491,-208.0198 1030.5503,-203.5348 1029.8485,-210.4996"/>
</g>
<!-- Node5 -->
<g id="node5" class="node">
<title>Node5</title>
<g id="a_node5"><a xlink:href="../../d3/d8a/ClusterJetInput_8cc.html" target="_top" xlink:title="fun4all_coresoftware\l/blob/master/simulation\l/g4simulation/g4jets/ClusterJet\lInput.cc">
<polygon fill="none" stroke="#000000" points="623,-93.5 623,-149.5 797,-149.5 797,-93.5 623,-93.5"/>
<text text-anchor="start" x="631" y="-136.5" font-family="FreeSans" font-size="10.00" fill="#000000">fun4all_coresoftware</text>
<text text-anchor="start" x="631" y="-124.5" font-family="FreeSans" font-size="10.00" fill="#000000">/blob/master/simulation</text>
<text text-anchor="start" x="631" y="-112.5" font-family="FreeSans" font-size="10.00" fill="#000000">/g4simulation/g4jets/ClusterJet</text>
<text text-anchor="middle" x="710" y="-100.5" font-family="FreeSans" font-size="10.00" fill="#000000">Input.cc</text>
</a>
</g>
</g>
<!-- Node1&#45;&gt;Node5 -->
<g id="edge4" class="edge">
<title>Node1&#45;&gt;Node5</title>
<path fill="none" stroke="#191970" d="M1030.3442,-199.5255C968.9491,-187.4114 881.6646,-169.253 806,-150 803.0515,-149.2497 800.0575,-148.4689 797.0379,-147.6651"/>
<polygon fill="#191970" stroke="#191970" points="1029.8634,-202.9979 1040.3506,-201.4917 1031.213,-196.1292 1029.8634,-202.9979"/>
</g>
<!-- Node6 -->
<g id="node6" class="node">
<title>Node6</title>
<g id="a_node6"><a xlink:href="../../d4/d53/TowerJetInput_8cc.html" target="_top" xlink:title="fun4all_coresoftware\l/blob/master/simulation\l/g4simulation/g4jets/TowerJetInput.cc">
<polygon fill="none" stroke="#000000" points="815.5,-99.5 815.5,-143.5 1022.5,-143.5 1022.5,-99.5 815.5,-99.5"/>
<text text-anchor="start" x="823.5" y="-130.5" font-family="FreeSans" font-size="10.00" fill="#000000">fun4all_coresoftware</text>
<text text-anchor="start" x="823.5" y="-118.5" font-family="FreeSans" font-size="10.00" fill="#000000">/blob/master/simulation</text>
<text text-anchor="middle" x="919" y="-106.5" font-family="FreeSans" font-size="10.00" fill="#000000">/g4simulation/g4jets/TowerJetInput.cc</text>
</a>
</g>
</g>
<!-- Node1&#45;&gt;Node6 -->
<g id="edge5" class="edge">
<title>Node1&#45;&gt;Node6</title>
<path fill="none" stroke="#191970" d="M1042.6902,-182.0431C1016.7023,-169.3227 987.5533,-155.0551 964.0824,-143.5666"/>
<polygon fill="#191970" stroke="#191970" points="1041.2156,-185.218 1051.7361,-186.4708 1044.293,-178.9308 1041.2156,-185.218"/>
</g>
<!-- Node7 -->
<g id="node7" class="node">
<title>Node7</title>
<g id="a_node7"><a xlink:href="../../d5/d49/GlobalVertexMapv1_8h.html" target="_top" xlink:title="fun4all_coresoftware\l/blob/master/simulation\l/g4simulation/g4vertex\l/GlobalVertexMapv1.h">
<polygon fill="none" stroke="#000000" points="1272.5,-93.5 1272.5,-149.5 1409.5,-149.5 1409.5,-93.5 1272.5,-93.5"/>
<text text-anchor="start" x="1280.5" y="-136.5" font-family="FreeSans" font-size="10.00" fill="#000000">fun4all_coresoftware</text>
<text text-anchor="start" x="1280.5" y="-124.5" font-family="FreeSans" font-size="10.00" fill="#000000">/blob/master/simulation</text>
<text text-anchor="start" x="1280.5" y="-112.5" font-family="FreeSans" font-size="10.00" fill="#000000">/g4simulation/g4vertex</text>
<text text-anchor="middle" x="1341" y="-100.5" font-family="FreeSans" font-size="10.00" fill="#000000">/GlobalVertexMapv1.h</text>
</a>
</g>
</g>
<!-- Node1&#45;&gt;Node7 -->
<g id="edge6" class="edge">
<title>Node1&#45;&gt;Node7</title>
<path fill="none" stroke="#191970" d="M1187.2498,-183.1326C1214.7526,-172.1078 1245.4331,-159.8092 1272.1093,-149.1157"/>
<polygon fill="#191970" stroke="#191970" points="1185.6457,-180.0048 1177.666,-186.9744 1188.2503,-186.5022 1185.6457,-180.0048"/>
</g>
<!-- Node8 -->
<g id="node8" class="node">
<title>Node8</title>
<g id="a_node8"><a xlink:href="../../d4/db0/GlobalVertexFastSimReco_8cc.html" target="_top" xlink:title="fun4all_coresoftware\l/blob/master/simulation\l/g4simulation/g4vertex\l/GlobalVertexFastSimReco.cc">
<polygon fill="none" stroke="#000000" points="1033.5,-.5 1033.5,-56.5 1196.5,-56.5 1196.5,-.5 1033.5,-.5"/>
<text text-anchor="start" x="1041.5" y="-43.5" font-family="FreeSans" font-size="10.00" fill="#000000">fun4all_coresoftware</text>
<text text-anchor="start" x="1041.5" y="-31.5" font-family="FreeSans" font-size="10.00" fill="#000000">/blob/master/simulation</text>
<text text-anchor="start" x="1041.5" y="-19.5" font-family="FreeSans" font-size="10.00" fill="#000000">/g4simulation/g4vertex</text>
<text text-anchor="middle" x="1115" y="-7.5" font-family="FreeSans" font-size="10.00" fill="#000000">/GlobalVertexFastSimReco.cc</text>
</a>
</g>
</g>
<!-- Node1&#45;&gt;Node8 -->
<g id="edge10" class="edge">
<title>Node1&#45;&gt;Node8</title>
<path fill="none" stroke="#191970" d="M1163.5785,-179.4605C1172.6673,-170.9834 1180.8134,-161.1104 1186,-150 1196.716,-127.0447 1196.2528,-116.1659 1186,-93 1179.7994,-78.9898 1168.8857,-66.7192 1157.4474,-56.7473"/>
<polygon fill="#191970" stroke="#191970" points="1161.0187,-177.0481 1155.7666,-186.2495 1165.6104,-182.3317 1161.0187,-177.0481"/>
</g>
<!-- Node9 -->
<g id="node9" class="node">
<title>Node9</title>
<g id="a_node9"><a xlink:href="../../d5/d5d/GlobalVertexMapv1_8cc.html" target="_top" xlink:title="fun4all_coresoftware\l/blob/master/simulation\l/g4simulation/g4vertex\l/GlobalVertexMapv1.cc">
<polygon fill="none" stroke="#000000" points="1369.5,-.5 1369.5,-56.5 1506.5,-56.5 1506.5,-.5 1369.5,-.5"/>
<text text-anchor="start" x="1377.5" y="-43.5" font-family="FreeSans" font-size="10.00" fill="#000000">fun4all_coresoftware</text>
<text text-anchor="start" x="1377.5" y="-31.5" font-family="FreeSans" font-size="10.00" fill="#000000">/blob/master/simulation</text>
<text text-anchor="start" x="1377.5" y="-19.5" font-family="FreeSans" font-size="10.00" fill="#000000">/g4simulation/g4vertex</text>
<text text-anchor="middle" x="1438" y="-7.5" font-family="FreeSans" font-size="10.00" fill="#000000">/GlobalVertexMapv1.cc</text>
</a>
</g>
</g>
<!-- Node1&#45;&gt;Node9 -->
<g id="edge15" class="edge">
<title>Node1&#45;&gt;Node9</title>
<path fill="none" stroke="#191970" d="M1187.9611,-208.1853C1269.1194,-199.9938 1387.8899,-182.7064 1419,-150 1442.5433,-125.2487 1444.0794,-83.9756 1441.9206,-56.5014"/>
<polygon fill="#191970" stroke="#191970" points="1187.3738,-204.726 1177.7639,-209.1869 1188.0582,-211.6925 1187.3738,-204.726"/>
</g>
<!-- Node10 -->
<g id="node10" class="node">
<title>Node10</title>
<g id="a_node10"><a xlink:href="../../d5/d60/GlobalVertexReco_8cc.html" target="_top" xlink:title="fun4all_coresoftware\l/blob/master/simulation\l/g4simulation/g4vertex\l/GlobalVertexReco.cc">
<polygon fill="none" stroke="#000000" points="1214.5,-.5 1214.5,-56.5 1351.5,-56.5 1351.5,-.5 1214.5,-.5"/>
<text text-anchor="start" x="1222.5" y="-43.5" font-family="FreeSans" font-size="10.00" fill="#000000">fun4all_coresoftware</text>
<text text-anchor="start" x="1222.5" y="-31.5" font-family="FreeSans" font-size="10.00" fill="#000000">/blob/master/simulation</text>
<text text-anchor="start" x="1222.5" y="-19.5" font-family="FreeSans" font-size="10.00" fill="#000000">/g4simulation/g4vertex</text>
<text text-anchor="middle" x="1283" y="-7.5" font-family="FreeSans" font-size="10.00" fill="#000000">/GlobalVertexReco.cc</text>
</a>
</g>
</g>
<!-- Node1&#45;&gt;Node10 -->
<g id="edge16" class="edge">
<title>Node1&#45;&gt;Node10</title>
<path fill="none" stroke="#191970" d="M1166.7565,-180.6789C1179.7922,-171.6281 1193.0103,-161.211 1204,-150 1231.4763,-121.9704 1254.8015,-82.9843 1268.8318,-56.8034"/>
<polygon fill="#191970" stroke="#191970" points="1164.5739,-177.9294 1158.2419,-186.4239 1168.4891,-183.7321 1164.5739,-177.9294"/>
</g>
<!-- Node11 -->
<g id="node11" class="node">
<title>Node11</title>
<g id="a_node11"><a xlink:href="../../d2/d3d/GlobalVertexv1_8h.html" target="_top" xlink:title="fun4all_coresoftware\l/blob/master/simulation\l/g4simulation/g4vertex\l/GlobalVertexv1.h">
<polygon fill="none" stroke="#000000" points="1040.5,-93.5 1040.5,-149.5 1177.5,-149.5 1177.5,-93.5 1040.5,-93.5"/>
<text text-anchor="start" x="1048.5" y="-136.5" font-family="FreeSans" font-size="10.00" fill="#000000">fun4all_coresoftware</text>
<text text-anchor="start" x="1048.5" y="-124.5" font-family="FreeSans" font-size="10.00" fill="#000000">/blob/master/simulation</text>
<text text-anchor="start" x="1048.5" y="-112.5" font-family="FreeSans" font-size="10.00" fill="#000000">/g4simulation/g4vertex</text>
<text text-anchor="middle" x="1109" y="-100.5" font-family="FreeSans" font-size="10.00" fill="#000000">/GlobalVertexv1.h</text>
</a>
</g>
</g>
<!-- Node1&#45;&gt;Node11 -->
<g id="edge11" class="edge">
<title>Node1&#45;&gt;Node11</title>
<path fill="none" stroke="#191970" d="M1109,-176.1582C1109,-167.2499 1109,-157.9293 1109,-149.5597"/>
<polygon fill="#191970" stroke="#191970" points="1105.5001,-176.3445 1109,-186.3446 1112.5001,-176.3446 1105.5001,-176.3445"/>
</g>
<!-- Node13 -->
<g id="node13" class="node">
<title>Node13</title>
<g id="a_node13"><a xlink:href="../../d0/d67/AnaTutorial_8cc.html" target="_top" xlink:title="fun4all_tutorials/blob\l/master/AnaTutorial/src\l/AnaTutorial.cc">
<polygon fill="none" stroke="#000000" points="1466,-99.5 1466,-143.5 1600,-143.5 1600,-99.5 1466,-99.5"/>
<text text-anchor="start" x="1474" y="-130.5" font-family="FreeSans" font-size="10.00" fill="#000000">fun4all_tutorials/blob</text>
<text text-anchor="start" x="1474" y="-118.5" font-family="FreeSans" font-size="10.00" fill="#000000">/master/AnaTutorial/src</text>
<text text-anchor="middle" x="1533" y="-106.5" font-family="FreeSans" font-size="10.00" fill="#000000">/AnaTutorial.cc</text>
</a>
</g>
</g>
<!-- Node1&#45;&gt;Node13 -->
<g id="edge17" class="edge">
<title>Node1&#45;&gt;Node13</title>
<path fill="none" stroke="#191970" d="M1187.77,-203.1878C1257.7902,-192.3056 1362.613,-173.98 1452,-150 1459.0552,-148.1073 1466.3772,-145.895 1473.6053,-143.5548"/>
<polygon fill="#191970" stroke="#191970" points="1187.0483,-199.7576 1177.6976,-204.7392 1188.1139,-206.6761 1187.0483,-199.7576"/>
</g>
<!-- Node7&#45;&gt;Node8 -->
<g id="edge7" class="edge">
<title>Node7&#45;&gt;Node8</title>
<path fill="none" stroke="#191970" d="M1263.4396,-89.5836C1237.425,-78.8784 1208.6222,-67.0259 1183.3644,-56.6323"/>
<polygon fill="#191970" stroke="#191970" points="1262.3065,-92.902 1272.8861,-93.4708 1264.9704,-86.4286 1262.3065,-92.902"/>
</g>
<!-- Node7&#45;&gt;Node9 -->
<g id="edge8" class="edge">
<title>Node7&#45;&gt;Node9</title>
<path fill="none" stroke="#191970" d="M1377.679,-86.3335C1387.9435,-76.4923 1398.9601,-65.93 1408.7334,-56.5597"/>
<polygon fill="#191970" stroke="#191970" points="1375.1625,-83.8974 1370.3664,-93.3446 1380.007,-88.9503 1375.1625,-83.8974"/>
</g>
<!-- Node7&#45;&gt;Node10 -->
<g id="edge9" class="edge">
<title>Node7&#45;&gt;Node10</title>
<path fill="none" stroke="#191970" d="M1317.9913,-84.6067C1312.1658,-75.2658 1306.003,-65.3841 1300.4996,-56.5597"/>
<polygon fill="#191970" stroke="#191970" points="1315.1791,-86.7116 1323.4407,-93.3446 1321.1187,-83.0073 1315.1791,-86.7116"/>
</g>
<!-- Node11&#45;&gt;Node8 -->
<g id="edge12" class="edge">
<title>Node11&#45;&gt;Node8</title>
<path fill="none" stroke="#191970" d="M1111.4737,-83.1582C1112.0484,-74.2499 1112.6497,-64.9293 1113.1897,-56.5597"/>
<polygon fill="#191970" stroke="#191970" points="1107.9677,-83.1399 1110.8165,-93.3446 1114.9531,-83.5907 1107.9677,-83.1399"/>
</g>
<!-- Node11&#45;&gt;Node10 -->
<g id="edge13" class="edge">
<title>Node11&#45;&gt;Node10</title>
<path fill="none" stroke="#191970" d="M1170.5312,-88.6126C1190.1246,-78.1403 1211.608,-66.6578 1230.5011,-56.5597"/>
<polygon fill="#191970" stroke="#191970" points="1168.8474,-85.544 1161.6779,-93.3446 1172.1471,-91.7175 1168.8474,-85.544"/>
</g>
<!-- Node12 -->
<g id="node12" class="node">
<title>Node12</title>
<g id="a_node12"><a xlink:href="../../db/df4/GlobalVertexv1_8cc.html" target="_top" xlink:title="fun4all_coresoftware\l/blob/master/simulation\l/g4simulation/g4vertex\l/GlobalVertexv1.cc">
<polygon fill="none" stroke="#000000" points="878.5,-.5 878.5,-56.5 1015.5,-56.5 1015.5,-.5 878.5,-.5"/>
<text text-anchor="start" x="886.5" y="-43.5" font-family="FreeSans" font-size="10.00" fill="#000000">fun4all_coresoftware</text>
<text text-anchor="start" x="886.5" y="-31.5" font-family="FreeSans" font-size="10.00" fill="#000000">/blob/master/simulation</text>
<text text-anchor="start" x="886.5" y="-19.5" font-family="FreeSans" font-size="10.00" fill="#000000">/g4simulation/g4vertex</text>
<text text-anchor="middle" x="947" y="-7.5" font-family="FreeSans" font-size="10.00" fill="#000000">/GlobalVertexv1.cc</text>
</a>
</g>
</g>
<!-- Node11&#45;&gt;Node12 -->
<g id="edge14" class="edge">
<title>Node11&#45;&gt;Node12</title>
<path fill="none" stroke="#191970" d="M1051.2189,-88.3293C1033.11,-77.9335 1013.3099,-66.5668 995.8783,-56.5597"/>
<polygon fill="#191970" stroke="#191970" points="1049.5399,-91.4012 1059.955,-93.3446 1053.025,-85.3304 1049.5399,-91.4012"/>
</g>
</g>
</svg>
