<?xml version="1.0" encoding="UTF-8" standalone="no"?>
<!DOCTYPE svg PUBLIC "-//W3C//DTD SVG 1.1//EN"
 "http://www.w3.org/Graphics/SVG/1.1/DTD/svg11.dtd">
<!-- Generated by graphviz version 2.40.1 (20161225.0304)
 -->
<!-- Title: fun4all_coresoftware/blob/master/offline/packages/trackbase_historic/SvtxTrackMap_v1.h Pages: 1 -->
<svg width="1407pt" height="158pt"
 viewBox="0.00 0.00 1406.50 158.00" xmlns="http://www.w3.org/2000/svg" xmlns:xlink="http://www.w3.org/1999/xlink">
<g id="graph0" class="graph" transform="scale(1 1) rotate(0) translate(4 154)">
<title>fun4all_coresoftware/blob/master/offline/packages/trackbase_historic/SvtxTrackMap_v1.h</title>
<!-- Node1 -->
<g id="node1" class="node">
<title>Node1</title>
<polygon fill="#bfbfbf" stroke="#000000" points="613,-93.5 613,-149.5 777,-149.5 777,-93.5 613,-93.5"/>
<text text-anchor="start" x="621" y="-136.5" font-family="FreeSans" font-size="10.00" fill="#000000">fun4all_coresoftware</text>
<text text-anchor="start" x="621" y="-124.5" font-family="FreeSans" font-size="10.00" fill="#000000">/blob/master/offline</text>
<text text-anchor="start" x="621" y="-112.5" font-family="FreeSans" font-size="10.00" fill="#000000">/packages/trackbase_historic</text>
<text text-anchor="middle" x="695" y="-100.5" font-family="FreeSans" font-size="10.00" fill="#000000">/SvtxTrackMap_v1.h</text>
</g>
<!-- Node2 -->
<g id="node2" class="node">
<title>Node2</title>
<g id="a_node2"><a xlink:href="../../d6/dd0/SvtxTrackMap__v1_8cc.html" target="_top" xlink:title="fun4all_coresoftware\l/blob/master/offline\l/packages/trackbase_historic\l/SvtxTrackMap_v1.cc">
<polygon fill="none" stroke="#000000" points="0,-.5 0,-56.5 164,-56.5 164,-.5 0,-.5"/>
<text text-anchor="start" x="8" y="-43.5" font-family="FreeSans" font-size="10.00" fill="#000000">fun4all_coresoftware</text>
<text text-anchor="start" x="8" y="-31.5" font-family="FreeSans" font-size="10.00" fill="#000000">/blob/master/offline</text>
<text text-anchor="start" x="8" y="-19.5" font-family="FreeSans" font-size="10.00" fill="#000000">/packages/trackbase_historic</text>
<text text-anchor="middle" x="82" y="-7.5" font-family="FreeSans" font-size="10.00" fill="#000000">/SvtxTrackMap_v1.cc</text>
</a>
</g>
</g>
<!-- Node1&#45;&gt;Node2 -->
<g id="edge1" class="edge">
<title>Node1&#45;&gt;Node2</title>
<path fill="none" stroke="#191970" d="M602.6103,-115.1523C497.6197,-106.7711 321.5567,-89.165 173,-57 170.0875,-56.3694 167.1347,-55.6866 164.1617,-54.962"/>
<polygon fill="#191970" stroke="#191970" points="602.6148,-118.6634 612.8587,-115.9591 603.1643,-111.685 602.6148,-118.6634"/>
</g>
<!-- Node3 -->
<g id="node3" class="node">
<title>Node3</title>
<g id="a_node3"><a xlink:href="../../d0/d52/PHGenFitTrkFitter_8cc.html" target="_top" xlink:title="fun4all_coresoftware\l/blob/master/offline\l/packages/trackreco/PHGenFit\lTrkFitter.cc">
<polygon fill="none" stroke="#000000" points="182.5,-.5 182.5,-56.5 351.5,-56.5 351.5,-.5 182.5,-.5"/>
<text text-anchor="start" x="190.5" y="-43.5" font-family="FreeSans" font-size="10.00" fill="#000000">fun4all_coresoftware</text>
<text text-anchor="start" x="190.5" y="-31.5" font-family="FreeSans" font-size="10.00" fill="#000000">/blob/master/offline</text>
<text text-anchor="start" x="190.5" y="-19.5" font-family="FreeSans" font-size="10.00" fill="#000000">/packages/trackreco/PHGenFit</text>
<text text-anchor="middle" x="267" y="-7.5" font-family="FreeSans" font-size="10.00" fill="#000000">TrkFitter.cc</text>
</a>
</g>
</g>
<!-- Node1&#45;&gt;Node3 -->
<g id="edge2" class="edge">
<title>Node1&#45;&gt;Node3</title>
<path fill="none" stroke="#191970" d="M602.6909,-106.4704C535.0818,-94.7983 441.3218,-77.2276 360,-57 357.2141,-56.3071 354.3881,-55.5805 351.5396,-54.8277"/>
<polygon fill="#191970" stroke="#191970" points="602.443,-109.9789 612.891,-108.2208 603.6271,-103.0798 602.443,-109.9789"/>
</g>
<!-- Node4 -->
<g id="node4" class="node">
<title>Node4</title>
<g id="a_node4"><a xlink:href="../../d8/dda/PHInitZVertexing_8cc.html" target="_top" xlink:title="fun4all_coresoftware\l/blob/master/offline\l/packages/trackreco/PHInitZVertexing.cc">
<polygon fill="none" stroke="#000000" points="369.5,-6.5 369.5,-50.5 590.5,-50.5 590.5,-6.5 369.5,-6.5"/>
<text text-anchor="start" x="377.5" y="-37.5" font-family="FreeSans" font-size="10.00" fill="#000000">fun4all_coresoftware</text>
<text text-anchor="start" x="377.5" y="-25.5" font-family="FreeSans" font-size="10.00" fill="#000000">/blob/master/offline</text>
<text text-anchor="middle" x="480" y="-13.5" font-family="FreeSans" font-size="10.00" fill="#000000">/packages/trackreco/PHInitZVertexing.cc</text>
</a>
</g>
</g>
<!-- Node1&#45;&gt;Node4 -->
<g id="edge3" class="edge">
<title>Node1&#45;&gt;Node4</title>
<path fill="none" stroke="#191970" d="M620.7349,-89.376C591.1345,-76.5721 557.8055,-62.1554 531.0143,-50.5666"/>
<polygon fill="#191970" stroke="#191970" points="619.6336,-92.713 630.2013,-93.4708 622.4127,-86.2883 619.6336,-92.713"/>
</g>
<!-- Node5 -->
<g id="node5" class="node">
<title>Node5</title>
<g id="a_node5"><a xlink:href="../../d4/d68/PHPatternReco_8cc.html" target="_top" xlink:title="fun4all_coresoftware\l/blob/master/offline\l/packages/trackreco/PHPattern\lReco.cc">
<polygon fill="none" stroke="#000000" points="609,-.5 609,-56.5 781,-56.5 781,-.5 609,-.5"/>
<text text-anchor="start" x="617" y="-43.5" font-family="FreeSans" font-size="10.00" fill="#000000">fun4all_coresoftware</text>
<text text-anchor="start" x="617" y="-31.5" font-family="FreeSans" font-size="10.00" fill="#000000">/blob/master/offline</text>
<text text-anchor="start" x="617" y="-19.5" font-family="FreeSans" font-size="10.00" fill="#000000">/packages/trackreco/PHPattern</text>
<text text-anchor="middle" x="695" y="-7.5" font-family="FreeSans" font-size="10.00" fill="#000000">Reco.cc</text>
</a>
</g>
</g>
<!-- Node1&#45;&gt;Node5 -->
<g id="edge4" class="edge">
<title>Node1&#45;&gt;Node5</title>
<path fill="none" stroke="#191970" d="M695,-83.1582C695,-74.2499 695,-64.9293 695,-56.5597"/>
<polygon fill="#191970" stroke="#191970" points="691.5001,-83.3445 695,-93.3446 698.5001,-83.3446 691.5001,-83.3445"/>
</g>
<!-- Node6 -->
<g id="node6" class="node">
<title>Node6</title>
<g id="a_node6"><a xlink:href="../../db/dff/PHTrackSeeding_8cc.html" target="_top" xlink:title="fun4all_coresoftware\l/blob/master/offline\l/packages/trackreco/PHTrackSeeding.cc">
<polygon fill="none" stroke="#000000" points="799,-6.5 799,-50.5 1017,-50.5 1017,-6.5 799,-6.5"/>
<text text-anchor="start" x="807" y="-37.5" font-family="FreeSans" font-size="10.00" fill="#000000">fun4all_coresoftware</text>
<text text-anchor="start" x="807" y="-25.5" font-family="FreeSans" font-size="10.00" fill="#000000">/blob/master/offline</text>
<text text-anchor="middle" x="908" y="-13.5" font-family="FreeSans" font-size="10.00" fill="#000000">/packages/trackreco/PHTrackSeeding.cc</text>
</a>
</g>
</g>
<!-- Node1&#45;&gt;Node6 -->
<g id="edge5" class="edge">
<title>Node1&#45;&gt;Node6</title>
<path fill="none" stroke="#191970" d="M768.5743,-89.376C797.8993,-76.5721 830.9183,-62.1554 857.4603,-50.5666"/>
<polygon fill="#191970" stroke="#191970" points="766.9599,-86.2618 759.1959,-93.4708 769.7609,-92.6769 766.9599,-86.2618"/>
</g>
<!-- Node7 -->
<g id="node7" class="node">
<title>Node7</title>
<g id="a_node7"><a xlink:href="../../dc/dbf/PHTrackSetMerging_8cc.html" target="_top" xlink:title="fun4all_coresoftware\l/blob/master/offline\l/packages/trackreco/PHTrackSet\lMerging.cc">
<polygon fill="none" stroke="#000000" points="1035,-.5 1035,-56.5 1215,-56.5 1215,-.5 1035,-.5"/>
<text text-anchor="start" x="1043" y="-43.5" font-family="FreeSans" font-size="10.00" fill="#000000">fun4all_coresoftware</text>
<text text-anchor="start" x="1043" y="-31.5" font-family="FreeSans" font-size="10.00" fill="#000000">/blob/master/offline</text>
<text text-anchor="start" x="1043" y="-19.5" font-family="FreeSans" font-size="10.00" fill="#000000">/packages/trackreco/PHTrackSet</text>
<text text-anchor="middle" x="1125" y="-7.5" font-family="FreeSans" font-size="10.00" fill="#000000">Merging.cc</text>
</a>
</g>
</g>
<!-- Node1&#45;&gt;Node7 -->
<g id="edge6" class="edge">
<title>Node1&#45;&gt;Node7</title>
<path fill="none" stroke="#191970" d="M787.11,-105.792C853.7806,-93.8784 945.8744,-76.3006 1026,-57 1028.956,-56.288 1031.956,-55.5448 1034.981,-54.7778"/>
<polygon fill="#191970" stroke="#191970" points="786.2811,-102.3844 777.0485,-107.5814 787.5069,-109.2762 786.2811,-102.3844"/>
</g>
<!-- Node8 -->
<g id="node8" class="node">
<title>Node8</title>
<g id="a_node8"><a xlink:href="../../df/dca/PHG4TrackFastSim_8cc.html" target="_top" xlink:title="Kalman Filter based on smeared truth PHG4Hit.">
<polygon fill="none" stroke="#000000" points="1233.5,-.5 1233.5,-56.5 1398.5,-56.5 1398.5,-.5 1233.5,-.5"/>
<text text-anchor="start" x="1241.5" y="-43.5" font-family="FreeSans" font-size="10.00" fill="#000000">fun4all_coresoftware</text>
<text text-anchor="start" x="1241.5" y="-31.5" font-family="FreeSans" font-size="10.00" fill="#000000">/blob/master/simulation</text>
<text text-anchor="start" x="1241.5" y="-19.5" font-family="FreeSans" font-size="10.00" fill="#000000">/g4simulation/g4trackfastsim</text>
<text text-anchor="middle" x="1316" y="-7.5" font-family="FreeSans" font-size="10.00" fill="#000000">/PHG4TrackFastSim.cc</text>
</a>
</g>
</g>
<!-- Node1&#45;&gt;Node8 -->
<g id="edge7" class="edge">
<title>Node1&#45;&gt;Node8</title>
<path fill="none" stroke="#191970" d="M787.3641,-115.2759C893.5958,-106.9577 1072.8144,-89.3613 1224,-57 1227.1066,-56.335 1230.2589,-55.6118 1233.4329,-54.8425"/>
<polygon fill="#191970" stroke="#191970" points="787.0156,-111.7923 777.3149,-116.0521 787.5547,-118.7715 787.0156,-111.7923"/>
</g>
</g>
</svg>
