<?xml version="1.0" encoding="UTF-8" standalone="no"?>
<!DOCTYPE svg PUBLIC "-//W3C//DTD SVG 1.1//EN"
 "http://www.w3.org/Graphics/SVG/1.1/DTD/svg11.dtd">
<!-- Generated by graphviz version 2.40.1 (20161225.0304)
 -->
<!-- Title: dcross Pages: 1 -->
<svg width="986pt" height="2924pt"
 viewBox="0.00 0.00 986.00 2924.01" xmlns="http://www.w3.org/2000/svg" xmlns:xlink="http://www.w3.org/1999/xlink">
<g id="graph0" class="graph" transform="scale(1 1) rotate(0) translate(4 2920.0129)">
<title>dcross</title>
<!-- Node1 -->
<g id="node1" class="node">
<title>Node1</title>
<polygon fill="#bfbfbf" stroke="#000000" points="0,-1241.5 0,-1261.5 49,-1261.5 49,-1241.5 0,-1241.5"/>
<text text-anchor="middle" x="24.5" y="-1248.5" font-family="FreeSans" font-size="10.00" fill="#000000">dcross</text>
</g>
<!-- Node2 -->
<g id="node2" class="node">
<title>Node2</title>
<g id="a_node2"><a xlink:href="../../d3/d7e/lepto_8F.html#a92c27736bffd1a2f7b68ee52c8d3d51a" target="_top" xlink:title="lepto">
<polygon fill="none" stroke="#000000" points="85,-1241.5 85,-1261.5 127,-1261.5 127,-1241.5 85,-1241.5"/>
<text text-anchor="middle" x="106" y="-1248.5" font-family="FreeSans" font-size="10.00" fill="#000000">lepto</text>
</a>
</g>
</g>
<!-- Node1&#45;&gt;Node2 -->
<g id="edge1" class="edge">
<title>Node1&#45;&gt;Node2</title>
<path fill="none" stroke="#191970" d="M49.3955,-1251.5C57.3609,-1251.5 66.2837,-1251.5 74.6478,-1251.5"/>
<polygon fill="#191970" stroke="#191970" points="74.8295,-1255.0001 84.8295,-1251.5 74.8294,-1248.0001 74.8295,-1255.0001"/>
</g>
<!-- Node3 -->
<g id="node3" class="node">
<title>Node3</title>
<g id="a_node3"><a xlink:href="../../d7/ded/ulmass_8f.html#aa951cb677600842104db95323a7647b2" target="_top" xlink:title="ulmass">
<polygon fill="none" stroke="#000000" points="665,-1006.5 665,-1026.5 717,-1026.5 717,-1006.5 665,-1006.5"/>
<text text-anchor="middle" x="691" y="-1013.5" font-family="FreeSans" font-size="10.00" fill="#000000">ulmass</text>
</a>
</g>
</g>
<!-- Node2&#45;&gt;Node3 -->
<g id="edge2" class="edge">
<title>Node2&#45;&gt;Node3</title>
<path fill="none" stroke="#191970" d="M106.4278,-1241.4522C109.3275,-1175.6614 127.0786,-808.0587 163,-775.5 305.6134,-646.237 437.4857,-658.318 596,-767.5 635.6589,-794.8164 673.6336,-942.3403 686.4419,-996.5243"/>
<polygon fill="#191970" stroke="#191970" points="683.047,-997.3781 688.7231,-1006.3242 689.8647,-995.791 683.047,-997.3781"/>
</g>
<!-- Node5 -->
<g id="node5" class="node">
<title>Node5</title>
<g id="a_node5"><a xlink:href="../../d5/dae/rlu_8f.html#a722544a6fb4dd0f67ceda726148484f5" target="_top" xlink:title="rlu">
<polygon fill="none" stroke="#000000" points="798.5,-1234.5 798.5,-1254.5 827.5,-1254.5 827.5,-1234.5 798.5,-1234.5"/>
<text text-anchor="middle" x="813" y="-1241.5" font-family="FreeSans" font-size="10.00" fill="#000000">rlu</text>
</a>
</g>
</g>
<!-- Node2&#45;&gt;Node5 -->
<g id="edge97" class="edge">
<title>Node2&#45;&gt;Node5</title>
<path fill="none" stroke="#191970" d="M127.1591,-1251.2905C230.005,-1250.2722 677.2433,-1245.8441 788.0788,-1244.7467"/>
<polygon fill="#191970" stroke="#191970" points="788.3155,-1248.2447 798.2803,-1244.6457 788.2461,-1241.245 788.3155,-1248.2447"/>
</g>
<!-- Node6 -->
<g id="node6" class="node">
<title>Node6</title>
<g id="a_node6"><a xlink:href="../../d2/da8/ulangl_8f.html#a13a8d5a72aa20b0ae2ceca14e31467ba" target="_top" xlink:title="ulangl">
<polygon fill="none" stroke="#000000" points="667.5,-2218.5 667.5,-2238.5 714.5,-2238.5 714.5,-2218.5 667.5,-2218.5"/>
<text text-anchor="middle" x="691" y="-2225.5" font-family="FreeSans" font-size="10.00" fill="#000000">ulangl</text>
</a>
</g>
</g>
<!-- Node2&#45;&gt;Node6 -->
<g id="edge5" class="edge">
<title>Node2&#45;&gt;Node6</title>
<path fill="none" stroke="#191970" d="M106.0231,-1261.5218C106.3355,-1372.8119 110.6001,-2375.8019 163,-2495.5 205.629,-2592.8782 244.5849,-2617.6452 346,-2649.5 414.2671,-2670.9429 446.7326,-2688.075 507,-2649.5 508.2431,-2648.7043 595.476,-2457.8798 596,-2456.5 615.6164,-2404.8431 610.7397,-2388.5023 632,-2337.5 645.7132,-2304.6029 666.3796,-2268.646 679.2612,-2247.3599"/>
<polygon fill="#191970" stroke="#191970" points="682.3415,-2249.0317 684.579,-2238.6758 676.3719,-2245.3761 682.3415,-2249.0317"/>
</g>
<!-- Node8 -->
<g id="node8" class="node">
<title>Node8</title>
<g id="a_node8"><a xlink:href="../../de/d20/leptox_8F.html#a11067b9bff6d66852c24584cdc303b3c" target="_top" xlink:title="leptox">
<polygon fill="none" stroke="#000000" points="163,-2466.5 163,-2486.5 211,-2486.5 211,-2466.5 163,-2466.5"/>
<text text-anchor="middle" x="187" y="-2473.5" font-family="FreeSans" font-size="10.00" fill="#000000">leptox</text>
</a>
</g>
</g>
<!-- Node2&#45;&gt;Node8 -->
<g id="edge7" class="edge">
<title>Node2&#45;&gt;Node8</title>
<path fill="none" stroke="#191970" d="M106.6759,-1261.7223C113.8396,-1370.0611 175.7293,-2306.0476 185.6585,-2456.212"/>
<polygon fill="#191970" stroke="#191970" points="182.1746,-2456.5725 186.3269,-2466.3197 189.1594,-2456.1106 182.1746,-2456.5725"/>
</g>
<!-- Node13 -->
<g id="node13" class="node">
<title>Node13</title>
<g id="a_node13"><a xlink:href="../../d0/d38/plu_8f.html#ab4b095f080a22e776f5a9cc25e23cc54" target="_top" xlink:title="plu">
<polygon fill="none" stroke="#ff0000" points="553.5,-2582.5 553.5,-2602.5 585.5,-2602.5 585.5,-2582.5 553.5,-2582.5"/>
<text text-anchor="middle" x="569.5" y="-2589.5" font-family="FreeSans" font-size="10.00" fill="#000000">plu</text>
</a>
</g>
</g>
<!-- Node2&#45;&gt;Node13 -->
<g id="edge146" class="edge">
<title>Node2&#45;&gt;Node13</title>
<path fill="none" stroke="#191970" d="M106.2071,-1261.6074C108.8196,-1387.9778 135.7258,-2657.2899 163,-2683.5 273.2377,-2789.4371 371.7065,-2754.7088 507,-2683.5 535.5508,-2668.4729 553.5784,-2633.8596 562.5768,-2611.9169"/>
<polygon fill="#191970" stroke="#191970" points="565.8475,-2613.1628 566.1786,-2602.5731 559.316,-2610.645 565.8475,-2613.1628"/>
</g>
<!-- Node18 -->
<g id="node18" class="node">
<title>Node18</title>
<g id="a_node18"><a xlink:href="../../dd/da4/ulalps_8f.html#ab97912b68e33a5152f0271fc0dbc311d" target="_top" xlink:title="ulalps">
<polygon fill="none" stroke="#000000" points="546.5,-2803.5 546.5,-2823.5 592.5,-2823.5 592.5,-2803.5 546.5,-2803.5"/>
<text text-anchor="middle" x="569.5" y="-2810.5" font-family="FreeSans" font-size="10.00" fill="#000000">ulalps</text>
</a>
</g>
</g>
<!-- Node2&#45;&gt;Node18 -->
<g id="edge81" class="edge">
<title>Node2&#45;&gt;Node18</title>
<path fill="none" stroke="#191970" d="M106.08,-1261.6531C107.1379,-1391.3462 119.044,-2721.0739 163,-2789.5 248.5372,-2922.6552 362.0927,-2945.13 507,-2881.5 529.7048,-2871.5301 547.7861,-2848.7905 558.5442,-2832.3476"/>
<polygon fill="#191970" stroke="#191970" points="561.7122,-2833.8804 564.0118,-2823.5381 555.7646,-2830.189 561.7122,-2833.8804"/>
</g>
<!-- Node20 -->
<g id="node20" class="node">
<title>Node20</title>
<g id="a_node20"><a xlink:href="../../d6/df7/lshowr_8F.html#aa0ba547c1a303967f78477246079eab9" target="_top" xlink:title="lshowr">
<polygon fill="none" stroke="#000000" points="253.5,-1608.5 253.5,-1628.5 303.5,-1628.5 303.5,-1608.5 253.5,-1608.5"/>
<text text-anchor="middle" x="278.5" y="-1615.5" font-family="FreeSans" font-size="10.00" fill="#000000">lshowr</text>
</a>
</g>
</g>
<!-- Node2&#45;&gt;Node20 -->
<g id="edge35" class="edge">
<title>Node2&#45;&gt;Node20</title>
<path fill="none" stroke="#191970" d="M110.7937,-1261.6987C134.3432,-1311.8011 237.9066,-1532.1362 269.3896,-1599.1174"/>
<polygon fill="#191970" stroke="#191970" points="266.2263,-1600.6153 273.6477,-1608.1766 272.5614,-1597.6376 266.2263,-1600.6153"/>
</g>
<!-- Node24 -->
<g id="node24" class="node">
<title>Node24</title>
<g id="a_node24"><a xlink:href="../../db/dc0/classHiStrng.html#a9c8d7f68590dc5bf34483b740c49ba0b" target="_top" xlink:title="HiStrng::pt">
<polygon fill="none" stroke="#ff0000" points="655.5,-386.5 655.5,-406.5 726.5,-406.5 726.5,-386.5 655.5,-386.5"/>
<text text-anchor="middle" x="691" y="-393.5" font-family="FreeSans" font-size="10.00" fill="#000000">HiStrng::pt</text>
</a>
</g>
</g>
<!-- Node2&#45;&gt;Node24 -->
<g id="edge148" class="edge">
<title>Node2&#45;&gt;Node24</title>
<path fill="none" stroke="#191970" d="M106.1491,-1241.4021C107.7616,-1135.3957 122.7023,-229.689 163,-191.5 321.4132,-41.3764 602.0163,-305.6487 673.8662,-378.6134"/>
<polygon fill="#191970" stroke="#191970" points="671.7379,-381.4443 681.2242,-386.1624 676.7506,-376.5583 671.7379,-381.4443"/>
</g>
<!-- Node27 -->
<g id="node27" class="node">
<title>Node27</title>
<g id="a_node27"><a xlink:href="../../dc/da8/lprikt_8F.html#a86a7e05b81775926e5e11abdd235e202" target="_top" xlink:title="lprikt">
<polygon fill="none" stroke="#000000" points="548,-546.5 548,-566.5 591,-566.5 591,-546.5 548,-546.5"/>
<text text-anchor="middle" x="569.5" y="-553.5" font-family="FreeSans" font-size="10.00" fill="#000000">lprikt</text>
</a>
</g>
</g>
<!-- Node2&#45;&gt;Node27 -->
<g id="edge147" class="edge">
<title>Node2&#45;&gt;Node27</title>
<path fill="none" stroke="#191970" d="M106.2847,-1241.2969C108.6623,-1158.5347 126.0508,-598.5997 163,-534.5 240.6232,-399.8388 371.7434,-394.919 507,-471.5 534.0618,-486.8221 523.5068,-507.2693 543,-531.5 545.1409,-534.1612 547.5577,-536.8121 550.0387,-539.3385"/>
<polygon fill="#191970" stroke="#191970" points="547.8145,-542.0541 557.4631,-546.4308 552.6498,-536.9924 547.8145,-542.0541"/>
</g>
<!-- Node29 -->
<g id="node29" class="node">
<title>Node29</title>
<g id="a_node29"><a xlink:href="../../da/d22/luprep_8f.html#aad1b09d3910be6e5fd985cf9a9860fc5" target="_top" xlink:title="luprep">
<polygon fill="none" stroke="#ff0000" points="545,-1349.5 545,-1369.5 594,-1369.5 594,-1349.5 545,-1349.5"/>
<text text-anchor="middle" x="569.5" y="-1356.5" font-family="FreeSans" font-size="10.00" fill="#000000">luprep</text>
</a>
</g>
</g>
<!-- Node2&#45;&gt;Node29 -->
<g id="edge149" class="edge">
<title>Node2&#45;&gt;Node29</title>
<path fill="none" stroke="#191970" d="M127.1565,-1259.4051C137.797,-1263.1616 150.9601,-1267.4794 163,-1270.5 313.4586,-1308.2467 359.2109,-1282.3726 507,-1329.5 519.2393,-1333.4029 532.1372,-1339.2663 543.0169,-1344.7769"/>
<polygon fill="#191970" stroke="#191970" points="541.5077,-1347.9374 551.9911,-1349.4706 544.752,-1341.7345 541.5077,-1347.9374"/>
</g>
<!-- Node33 -->
<g id="node33" class="node">
<title>Node33</title>
<g id="a_node33"><a xlink:href="../../d3/d21/lqcdpr_8F.html#a028774669b878dc254be7adc6a8b71fc" target="_top" xlink:title="lqcdpr">
<polygon fill="none" stroke="#000000" points="254,-2164.5 254,-2184.5 303,-2184.5 303,-2164.5 254,-2164.5"/>
<text text-anchor="middle" x="278.5" y="-2171.5" font-family="FreeSans" font-size="10.00" fill="#000000">lqcdpr</text>
</a>
</g>
</g>
<!-- Node2&#45;&gt;Node33 -->
<g id="edge82" class="edge">
<title>Node2&#45;&gt;Node33</title>
<path fill="none" stroke="#191970" d="M107.8785,-1261.5511C124.8206,-1352.2038 251.1923,-2028.3842 274.7312,-2154.3343"/>
<polygon fill="#191970" stroke="#191970" points="271.351,-2155.3001 276.6287,-2164.4869 278.2319,-2154.0141 271.351,-2155.3001"/>
</g>
<!-- Node38 -->
<g id="node38" class="node">
<title>Node38</title>
<g id="a_node38"><a xlink:href="../../da/d8a/lqev_8F.html#a01abaac24ae901949706dffdf91c7743" target="_top" xlink:title="lqev">
<polygon fill="none" stroke="#000000" points="168,-785.5 168,-805.5 206,-805.5 206,-785.5 168,-785.5"/>
<text text-anchor="middle" x="187" y="-792.5" font-family="FreeSans" font-size="10.00" fill="#000000">lqev</text>
</a>
</g>
</g>
<!-- Node2&#45;&gt;Node38 -->
<g id="edge98" class="edge">
<title>Node2&#45;&gt;Node38</title>
<path fill="none" stroke="#191970" d="M107.844,-1241.119C118.2135,-1182.7427 169.2966,-895.1637 183.392,-815.8117"/>
<polygon fill="#191970" stroke="#191970" points="186.8911,-816.125 185.194,-805.6669 179.999,-814.9007 186.8911,-816.125"/>
</g>
<!-- Node41 -->
<g id="node41" class="node">
<title>Node41</title>
<g id="a_node41"><a xlink:href="../../db/d08/luexec_8f.html#a5b4b744833efbda90c865012826ff281" target="_top" xlink:title="luexec">
<polygon fill="none" stroke="#ff0000" points="402,-1261.5 402,-1281.5 451,-1281.5 451,-1261.5 402,-1261.5"/>
<text text-anchor="middle" x="426.5" y="-1268.5" font-family="FreeSans" font-size="10.00" fill="#000000">luexec</text>
</a>
</g>
</g>
<!-- Node2&#45;&gt;Node41 -->
<g id="edge169" class="edge">
<title>Node2&#45;&gt;Node41</title>
<path fill="none" stroke="#191970" d="M127.0289,-1252.8123C181.095,-1256.1861 325.3531,-1265.1882 391.9387,-1269.3433"/>
<polygon fill="#191970" stroke="#191970" points="391.7341,-1272.8372 401.9327,-1269.9669 392.1702,-1265.8508 391.7341,-1272.8372"/>
</g>
<!-- Node43 -->
<g id="node43" class="node">
<title>Node43</title>
<g id="a_node43"><a xlink:href="../../dd/d5e/lqgev_8F.html#a23666489567c7a0e59195b6fd2173242" target="_top" xlink:title="lqgev">
<polygon fill="none" stroke="#ff0000" points="256.5,-509.5 256.5,-529.5 300.5,-529.5 300.5,-509.5 256.5,-509.5"/>
<text text-anchor="middle" x="278.5" y="-516.5" font-family="FreeSans" font-size="10.00" fill="#000000">lqgev</text>
</a>
</g>
</g>
<!-- Node2&#45;&gt;Node43 -->
<g id="edge123" class="edge">
<title>Node2&#45;&gt;Node43</title>
<path fill="none" stroke="#191970" d="M106.2422,-1241.2776C108.2298,-1160.7186 122.8078,-629.7415 163,-572.5 182.336,-544.9618 219.6276,-531.4246 246.6172,-524.9801"/>
<polygon fill="#191970" stroke="#191970" points="247.3755,-528.397 256.3978,-522.843 245.8812,-521.5584 247.3755,-528.397"/>
</g>
<!-- Node45 -->
<g id="node45" class="node">
<title>Node45</title>
<g id="a_node45"><a xlink:href="../../d2/dbd/lqqbev_8F.html#a3e28d56ef10931205d7a8812c117d667" target="_top" xlink:title="lqqbev">
<polygon fill="none" stroke="#ff0000" points="253,-899.5 253,-919.5 304,-919.5 304,-899.5 253,-899.5"/>
<text text-anchor="middle" x="278.5" y="-906.5" font-family="FreeSans" font-size="10.00" fill="#000000">lqqbev</text>
</a>
</g>
</g>
<!-- Node2&#45;&gt;Node45 -->
<g id="edge136" class="edge">
<title>Node2&#45;&gt;Node45</title>
<path fill="none" stroke="#191970" d="M111.1626,-1241.2646C135.2675,-1193.4741 236.9113,-991.9542 268.8522,-928.6277"/>
<polygon fill="#191970" stroke="#191970" points="271.9791,-930.2002 273.3576,-919.6955 265.7291,-927.0478 271.9791,-930.2002"/>
</g>
<!-- Node46 -->
<g id="node46" class="node">
<title>Node46</title>
<g id="a_node46"><a xlink:href="../../d2/de3/lmeps_8F.html#aa9cff44f133170139f6af5e0b9b955fe" target="_top" xlink:title="lmeps">
<polygon fill="none" stroke="#000000" points="255,-1705.5 255,-1725.5 302,-1725.5 302,-1705.5 255,-1705.5"/>
<text text-anchor="middle" x="278.5" y="-1712.5" font-family="FreeSans" font-size="10.00" fill="#000000">lmeps</text>
</a>
</g>
</g>
<!-- Node2&#45;&gt;Node46 -->
<g id="edge150" class="edge">
<title>Node2&#45;&gt;Node46</title>
<path fill="none" stroke="#191970" d="M108.739,-1261.7516C116.4066,-1290.1416 139.0946,-1372.0756 163,-1438.5 198.3561,-1536.7418 249.1316,-1650.9094 269.5227,-1695.8737"/>
<polygon fill="#191970" stroke="#191970" points="266.3851,-1697.4292 273.713,-1705.0812 272.7564,-1694.5296 266.3851,-1697.4292"/>
</g>
<!-- Node47 -->
<g id="node47" class="node">
<title>Node47</title>
<g id="a_node47"><a xlink:href="../../dc/db6/lsci_8F.html#a0ef4bc1f4f8f3990591d560768601578" target="_top" xlink:title="lsci">
<polygon fill="none" stroke="#ff0000" points="675,-663.5 675,-683.5 707,-683.5 707,-663.5 675,-663.5"/>
<text text-anchor="middle" x="691" y="-670.5" font-family="FreeSans" font-size="10.00" fill="#000000">lsci</text>
</a>
</g>
</g>
<!-- Node2&#45;&gt;Node47 -->
<g id="edge160" class="edge">
<title>Node2&#45;&gt;Node47</title>
<path fill="none" stroke="#191970" d="M106.1805,-1241.4958C107.805,-1155.3597 120.8391,-540.4139 163,-471.5 243.7299,-339.5433 376.8983,-334.8135 507,-418.5 539.4511,-439.3738 518.6782,-467.546 543,-497.5 561.4348,-520.2039 577.1587,-514.1323 596,-536.5 619.0491,-563.8631 611.7885,-578.9789 632,-608.5 643.9782,-625.9954 660.3625,-643.6723 672.8262,-656.1662"/>
<polygon fill="#191970" stroke="#191970" points="670.4218,-658.7106 680.0055,-663.2277 675.3304,-653.72 670.4218,-658.7106"/>
</g>
<!-- Node48 -->
<g id="node48" class="node">
<title>Node48</title>
<g id="a_node48"><a xlink:href="../../de/dc0/lsmall_8F.html#abe7e3135bb62ff0df78888cff990a5dc" target="_top" xlink:title="lsmall">
<polygon fill="none" stroke="#ff0000" points="546.5,-468.5 546.5,-488.5 592.5,-488.5 592.5,-468.5 546.5,-468.5"/>
<text text-anchor="middle" x="569.5" y="-475.5" font-family="FreeSans" font-size="10.00" fill="#000000">lsmall</text>
</a>
</g>
</g>
<!-- Node2&#45;&gt;Node48 -->
<g id="edge163" class="edge">
<title>Node2&#45;&gt;Node48</title>
<path fill="none" stroke="#191970" d="M106.1695,-1241.453C107.9641,-1137.8542 124.1833,-267.2101 163,-230.5 274.0809,-125.4475 386.403,-136.5246 507,-230.5 516.2129,-237.6791 552.5118,-400.6339 565.1409,-458.4113"/>
<polygon fill="#191970" stroke="#191970" points="561.7254,-459.1764 567.2741,-468.202 568.5649,-457.6861 561.7254,-459.1764"/>
</g>
<!-- Node49 -->
<g id="node49" class="node">
<title>Node49</title>
<g id="a_node49"><a xlink:href="../../da/de2/structFW_1_1HepMC3Particle.html#aad73441900fc85b406ec7e43805e0399" target="_top" xlink:title="Returns the energy of a particle translated into Acts.">
<polygon fill="none" stroke="#000000" points="632,-.5 632,-32.5 750,-32.5 750,-.5 632,-.5"/>
<text text-anchor="start" x="640" y="-19.5" font-family="FreeSans" font-size="10.00" fill="#000000">FW::HepMC3Particle</text>
<text text-anchor="middle" x="691" y="-7.5" font-family="FreeSans" font-size="10.00" fill="#000000">::energy</text>
</a>
</g>
</g>
<!-- Node2&#45;&gt;Node49 -->
<g id="edge168" class="edge">
<title>Node2&#45;&gt;Node49</title>
<path fill="none" stroke="#191970" d="M106.1406,-1241.4425C107.641,-1137.6489 121.4718,-263.2828 163,-156.5 192.2374,-81.3209 197.8358,-16.5 278.5,-16.5 278.5,-16.5 278.5,-16.5 426.5,-16.5 492.8275,-16.5 568.5108,-16.5 621.8773,-16.5"/>
<polygon fill="#191970" stroke="#191970" points="621.909,-20.0001 631.909,-16.5 621.9089,-13.0001 621.909,-20.0001"/>
</g>
<!-- Node50 -->
<g id="node50" class="node">
<title>Node50</title>
<g id="a_node50"><a xlink:href="../../db/d0c/lframe_8F.html#a67e9a93601c3b3194942737fec7485f0" target="_top" xlink:title="lframe">
<polygon fill="none" stroke="#000000" points="402,-2774.5 402,-2794.5 451,-2794.5 451,-2774.5 402,-2774.5"/>
<text text-anchor="middle" x="426.5" y="-2781.5" font-family="FreeSans" font-size="10.00" fill="#000000">lframe</text>
</a>
</g>
</g>
<!-- Node2&#45;&gt;Node50 -->
<g id="edge170" class="edge">
<title>Node2&#45;&gt;Node50</title>
<path fill="none" stroke="#191970" d="M106.1986,-1261.7276C108.7565,-1392.3399 135.6184,-2730.5168 163,-2759.5 221.8217,-2821.7622 334.6814,-2806.6097 391.7022,-2793.768"/>
<polygon fill="#191970" stroke="#191970" points="392.7443,-2797.1184 401.6738,-2791.4163 391.1374,-2790.3053 392.7443,-2797.1184"/>
</g>
<!-- Node4 -->
<g id="node4" class="node">
<title>Node4</title>
<g id="a_node4"><a xlink:href="../../d0/da8/lucomp_8f.html#af4e2c29d51aeb470efbf59be26e18d04" target="_top" xlink:title="lucomp">
<polygon fill="none" stroke="#000000" points="786,-663.5 786,-683.5 840,-683.5 840,-663.5 786,-663.5"/>
<text text-anchor="middle" x="813" y="-670.5" font-family="FreeSans" font-size="10.00" fill="#000000">lucomp</text>
</a>
</g>
</g>
<!-- Node3&#45;&gt;Node4 -->
<g id="edge3" class="edge">
<title>Node3&#45;&gt;Node4</title>
<path fill="none" stroke="#191970" d="M695.8202,-1006.2636C706.4073,-983.57 732.1673,-927.1887 750,-878.5 774.3697,-811.9634 797.3235,-731.0601 807.4984,-693.9225"/>
<polygon fill="#191970" stroke="#191970" points="810.9863,-694.4346 810.2334,-683.8665 804.2316,-692.5975 810.9863,-694.4346"/>
</g>
<!-- Node3&#45;&gt;Node5 -->
<g id="edge4" class="edge">
<title>Node3&#45;&gt;Node5</title>
<path fill="none" stroke="#191970" d="M696.3996,-1026.5911C715.1741,-1061.6778 777.8166,-1178.7475 802.6911,-1225.2342"/>
<polygon fill="#191970" stroke="#191970" points="799.7204,-1227.101 807.5243,-1234.2668 805.8923,-1223.7984 799.7204,-1227.101"/>
</g>
<!-- Node7 -->
<g id="node7" class="node">
<title>Node7</title>
<g id="a_node7"><a xlink:href="../../da/d0a/CylinderKalman_8cpp.html#ab74daa0c9784c63e060bfb98cc06fbf5" target="_top" xlink:title="sign">
<polygon fill="none" stroke="#000000" points="794.5,-2227.5 794.5,-2247.5 831.5,-2247.5 831.5,-2227.5 794.5,-2227.5"/>
<text text-anchor="middle" x="813" y="-2234.5" font-family="FreeSans" font-size="10.00" fill="#000000">sign</text>
</a>
</g>
</g>
<!-- Node6&#45;&gt;Node7 -->
<g id="edge6" class="edge">
<title>Node6&#45;&gt;Node7</title>
<path fill="none" stroke="#191970" d="M714.5228,-2230.2353C734.4255,-2231.7035 763.0186,-2233.8128 784.2717,-2235.3807"/>
<polygon fill="#191970" stroke="#191970" points="784.1076,-2238.878 794.338,-2236.1233 784.6227,-2231.897 784.1076,-2238.878"/>
</g>
<!-- Node8&#45;&gt;Node5 -->
<g id="edge29" class="edge">
<title>Node8&#45;&gt;Node5</title>
<path fill="none" stroke="#191970" d="M187.3232,-2466.4415C190.4265,-2371.2447 215.515,-1631.6794 247,-1598.5 324.0605,-1517.2925 666.7309,-1645.328 750,-1570.5 795.8067,-1529.3368 809.0367,-1329.7816 812.1594,-1264.9149"/>
<polygon fill="#191970" stroke="#191970" points="815.6636,-1264.8983 812.6174,-1254.7509 808.6707,-1264.5831 815.6636,-1264.8983"/>
</g>
<!-- Node8&#45;&gt;Node7 -->
<g id="edge32" class="edge">
<title>Node8&#45;&gt;Node7</title>
<path fill="none" stroke="#191970" d="M191.0409,-2486.6037C199.2966,-2506.3456 219.6521,-2550.7105 247,-2580.5 283.2703,-2620.0084 294.8323,-2633.4281 346,-2649.5 517.6315,-2703.41 619.1044,-2747.9099 750,-2624.5 777.0889,-2598.9603 803.8873,-2334.4503 811.109,-2258.0542"/>
<polygon fill="#191970" stroke="#191970" points="814.6183,-2258.1161 812.0638,-2247.8339 807.6487,-2257.465 814.6183,-2258.1161"/>
</g>
<!-- Node9 -->
<g id="node9" class="node">
<title>Node9</title>
<g id="a_node9"><a xlink:href="../../d6/dce/jetseten_8F.html#a59f4ea713816e8bcd665aef916e6bad7" target="_top" xlink:title="ulalem">
<polygon fill="none" stroke="#000000" points="401.5,-2852.5 401.5,-2872.5 451.5,-2872.5 451.5,-2852.5 401.5,-2852.5"/>
<text text-anchor="middle" x="426.5" y="-2859.5" font-family="FreeSans" font-size="10.00" fill="#000000">ulalem</text>
</a>
</g>
</g>
<!-- Node8&#45;&gt;Node9 -->
<g id="edge8" class="edge">
<title>Node8&#45;&gt;Node9</title>
<path fill="none" stroke="#191970" d="M188.2364,-2486.7427C194.5839,-2534.6545 227.9412,-2738.4793 346,-2837.5 358.663,-2848.121 375.8203,-2854.2364 391.0421,-2857.7545"/>
<polygon fill="#191970" stroke="#191970" points="390.6977,-2861.2554 401.1919,-2859.7987 392.0798,-2854.3932 390.6977,-2861.2554"/>
</g>
<!-- Node11 -->
<g id="node11" class="node">
<title>Node11</title>
<g id="a_node11"><a xlink:href="../../d0/d71/polleptox_8F.html#aa2387f4273d8f1adea570935cf707ed2" target="_top" xlink:title="polleptox">
<polygon fill="none" stroke="#ff0000" points="247,-2515.5 247,-2535.5 310,-2535.5 310,-2515.5 247,-2515.5"/>
<text text-anchor="middle" x="278.5" y="-2522.5" font-family="FreeSans" font-size="10.00" fill="#000000">polleptox</text>
</a>
</g>
</g>
<!-- Node8&#45;&gt;Node11 -->
<g id="edge10" class="edge">
<title>Node8&#45;&gt;Node11</title>
<path fill="none" stroke="#191970" d="M205.9589,-2486.6528C218.8408,-2493.5513 236.0982,-2502.793 250.5488,-2510.5316"/>
<polygon fill="#191970" stroke="#191970" points="249.0976,-2513.7247 259.5654,-2515.3602 252.4022,-2507.5538 249.0976,-2513.7247"/>
</g>
<!-- Node12 -->
<g id="node12" class="node">
<title>Node12</title>
<g id="a_node12"><a xlink:href="../../d6/ddf/lkinem_8F.html#aeea1a650132e8aa165938d418990c1cd" target="_top" xlink:title="lkinem">
<polygon fill="none" stroke="#000000" points="401.5,-2427.5 401.5,-2447.5 451.5,-2447.5 451.5,-2427.5 401.5,-2427.5"/>
<text text-anchor="middle" x="426.5" y="-2434.5" font-family="FreeSans" font-size="10.00" fill="#000000">lkinem</text>
</a>
</g>
</g>
<!-- Node8&#45;&gt;Node12 -->
<g id="edge30" class="edge">
<title>Node8&#45;&gt;Node12</title>
<path fill="none" stroke="#191970" d="M211.2825,-2472.5458C253.9159,-2465.6035 342.3613,-2451.2011 391.562,-2443.1893"/>
<polygon fill="#191970" stroke="#191970" points="392.1272,-2446.6434 401.4346,-2441.5816 391.0021,-2439.7344 392.1272,-2446.6434"/>
</g>
<!-- Node14 -->
<g id="node14" class="node">
<title>Node14</title>
<g id="a_node14"><a xlink:href="../../d4/ddb/lnstrf_8F.html#aaf60c1c6a99e30d85f81058b6c04912e" target="_top" xlink:title="lnstrf">
<polygon fill="none" stroke="#000000" points="669.5,-2347.5 669.5,-2367.5 712.5,-2367.5 712.5,-2347.5 669.5,-2347.5"/>
<text text-anchor="middle" x="691" y="-2354.5" font-family="FreeSans" font-size="10.00" fill="#000000">lnstrf</text>
</a>
</g>
</g>
<!-- Node8&#45;&gt;Node14 -->
<g id="edge31" class="edge">
<title>Node8&#45;&gt;Node14</title>
<path fill="none" stroke="#191970" d="M209.9894,-2466.3914C240.513,-2453.3387 296.3546,-2430.7323 346,-2417.5 459.3272,-2387.2941 597.7724,-2368.5403 659.1217,-2361.1319"/>
<polygon fill="#191970" stroke="#191970" points="659.7993,-2364.5761 669.3162,-2359.9202 658.973,-2357.625 659.7993,-2364.5761"/>
</g>
<!-- Node16 -->
<g id="node16" class="node">
<title>Node16</title>
<g id="a_node16"><a xlink:href="../../d8/dd7/flipol_8F.html#a0226d8583377f82616c48b44ef284119" target="_top" xlink:title="flipol">
<polygon fill="none" stroke="#000000" points="406,-2620.5 406,-2640.5 447,-2640.5 447,-2620.5 406,-2620.5"/>
<text text-anchor="middle" x="426.5" y="-2627.5" font-family="FreeSans" font-size="10.00" fill="#000000">flipol</text>
</a>
</g>
</g>
<!-- Node8&#45;&gt;Node16 -->
<g id="edge33" class="edge">
<title>Node8&#45;&gt;Node16</title>
<path fill="none" stroke="#191970" d="M194.3465,-2486.5632C204.9311,-2500.6229 225.5659,-2526.4457 247,-2544.5 286.5279,-2577.7951 298.9514,-2584.112 346,-2605.5 361.9117,-2612.7333 380.4986,-2618.659 395.801,-2622.9227"/>
<polygon fill="#191970" stroke="#191970" points="395.2316,-2626.3936 405.797,-2625.6046 397.0456,-2619.6327 395.2316,-2626.3936"/>
</g>
<!-- Node17 -->
<g id="node17" class="node">
<title>Node17</title>
<g id="a_node17"><a xlink:href="../../db/d0e/flintg_8F.html#a6de15161311de51e36c1b5198994fdeb" target="_top" xlink:title="flintg">
<polygon fill="none" stroke="#ff0000" points="405.5,-2466.5 405.5,-2486.5 447.5,-2486.5 447.5,-2466.5 405.5,-2466.5"/>
<text text-anchor="middle" x="426.5" y="-2473.5" font-family="FreeSans" font-size="10.00" fill="#000000">flintg</text>
</a>
</g>
</g>
<!-- Node8&#45;&gt;Node17 -->
<g id="edge34" class="edge">
<title>Node8&#45;&gt;Node17</title>
<path fill="none" stroke="#191970" d="M211.2825,-2476.5C254.9537,-2476.5 346.6943,-2476.5 395.0839,-2476.5"/>
<polygon fill="#191970" stroke="#191970" points="395.2797,-2480.0001 405.2796,-2476.5 395.2796,-2473.0001 395.2797,-2480.0001"/>
</g>
<!-- Node10 -->
<g id="node10" class="node">
<title>Node10</title>
<g id="a_node10"><a xlink:href="../../d4/d3e/classActs_1_1Logger.html#aee9e687247532b5175713e66b2d2121e" target="_top" xlink:title="create output stream object with internal cache">
<polygon fill="none" stroke="#ff0000" points="876,-2271.5 876,-2291.5 978,-2291.5 978,-2271.5 876,-2271.5"/>
<text text-anchor="middle" x="927" y="-2278.5" font-family="FreeSans" font-size="10.00" fill="#000000">Acts::Logger::log</text>
</a>
</g>
</g>
<!-- Node9&#45;&gt;Node10 -->
<g id="edge9" class="edge">
<title>Node9&#45;&gt;Node10</title>
<path fill="none" stroke="#191970" d="M451.8788,-2864.8479C509.6098,-2868.921 653.2437,-2871.7806 750,-2811.5 809.0257,-2774.7262 812.0895,-2747.1973 840,-2683.5 900.4426,-2545.5578 920.3435,-2362.0515 925.479,-2301.6845"/>
<polygon fill="#191970" stroke="#191970" points="928.9776,-2301.8418 926.2948,-2291.5923 922.0003,-2301.2777 928.9776,-2301.8418"/>
</g>
<!-- Node11&#45;&gt;Node5 -->
<g id="edge12" class="edge">
<title>Node11&#45;&gt;Node5</title>
<path fill="none" stroke="#191970" d="M310.0214,-2530.0225C354.5409,-2535.4264 438.0956,-2541.9418 507,-2526.5 630.8472,-2498.7453 688.3295,-2487.4288 750,-2376.5 778.1096,-2325.9384 807.7287,-1413.3442 812.3723,-1264.8457"/>
<polygon fill="#191970" stroke="#191970" points="815.8713,-1264.9281 812.6839,-1254.8241 808.8747,-1264.7105 815.8713,-1264.9281"/>
</g>
<!-- Node11&#45;&gt;Node7 -->
<g id="edge23" class="edge">
<title>Node11&#45;&gt;Node7</title>
<path fill="none" stroke="#191970" d="M301.1589,-2535.6175C304.1816,-2537.1612 307.2012,-2538.8072 310,-2540.5 327.1133,-2550.8506 327.8342,-2559.1331 346,-2567.5 427.4851,-2605.0309 453.8281,-2601.6629 543,-2611.5 566.4135,-2614.0829 572.4653,-2612.4916 596,-2611.5 664.627,-2608.6085 699.328,-2644.8721 750,-2598.5 800.6832,-2552.1176 810.6886,-2327.0518 812.5783,-2257.8112"/>
<polygon fill="#191970" stroke="#191970" points="816.0787,-2257.8364 812.8241,-2247.7538 809.0808,-2257.6653 816.0787,-2257.8364"/>
</g>
<!-- Node11&#45;&gt;Node9 -->
<g id="edge11" class="edge">
<title>Node11&#45;&gt;Node9</title>
<path fill="none" stroke="#191970" d="M280.4278,-2535.8076C290.323,-2588.5138 335.3573,-2825.8763 346,-2837.5 357.5115,-2850.0725 375.2139,-2856.3796 391.0899,-2859.52"/>
<polygon fill="#191970" stroke="#191970" points="390.7434,-2863.0096 401.1756,-2861.1605 391.8672,-2856.1004 390.7434,-2863.0096"/>
</g>
<!-- Node11&#45;&gt;Node12 -->
<g id="edge13" class="edge">
<title>Node11&#45;&gt;Node12</title>
<path fill="none" stroke="#191970" d="M285.5025,-2515.2963C296.5299,-2500.0454 319.4428,-2471.4978 346,-2456.5 359.6836,-2448.7724 376.3792,-2444.1795 391.011,-2441.4535"/>
<polygon fill="#191970" stroke="#191970" points="391.925,-2444.8505 401.2278,-2439.7803 390.7936,-2437.9425 391.925,-2444.8505"/>
</g>
<!-- Node11&#45;&gt;Node14 -->
<g id="edge20" class="edge">
<title>Node11&#45;&gt;Node14</title>
<path fill="none" stroke="#191970" d="M310.03,-2526.3431C370.906,-2526.4312 506.5047,-2518.9843 596,-2456.5 629.1309,-2433.3685 660.0662,-2397.4249 677.1692,-2375.8042"/>
<polygon fill="#191970" stroke="#191970" points="680.0514,-2377.7992 683.4203,-2367.7543 674.5226,-2373.5059 680.0514,-2377.7992"/>
</g>
<!-- Node11&#45;&gt;Node16 -->
<g id="edge24" class="edge">
<title>Node11&#45;&gt;Node16</title>
<path fill="none" stroke="#191970" d="M288.0329,-2535.7741C294.3651,-2542.6755 302.8056,-2552.0237 310,-2560.5 326.5739,-2580.027 324.8407,-2591.068 346,-2605.5 360.8761,-2615.6464 380.0493,-2621.8147 395.9521,-2625.4849"/>
<polygon fill="#191970" stroke="#191970" points="395.3478,-2628.9342 405.8522,-2627.5528 396.7791,-2622.0821 395.3478,-2628.9342"/>
</g>
<!-- Node11&#45;&gt;Node17 -->
<g id="edge25" class="edge">
<title>Node11&#45;&gt;Node17</title>
<path fill="none" stroke="#191970" d="M305.9995,-2515.4382C318.2112,-2511.0437 332.7832,-2505.8999 346,-2501.5 362.2454,-2496.0918 380.4561,-2490.4051 395.4424,-2485.8241"/>
<polygon fill="#191970" stroke="#191970" points="396.6889,-2489.1034 405.2387,-2482.8463 394.653,-2482.406 396.6889,-2489.1034"/>
</g>
<!-- Node12&#45;&gt;Node3 -->
<g id="edge14" class="edge">
<title>Node12&#45;&gt;Node3</title>
<path fill="none" stroke="#191970" d="M434.1614,-2427.2412C450.087,-2405.4346 486.9482,-2352.3777 507,-2302.5 533.5413,-2236.4798 519.9878,-2213.8316 543,-2146.5 561.2007,-2093.2464 582.3907,-2086.1077 596,-2031.5 664.3574,-1757.2143 602.28,-1677.6087 632,-1396.5 646.6113,-1258.2976 676.4699,-1093.6025 687.1195,-1036.8731"/>
<polygon fill="#191970" stroke="#191970" points="690.6185,-1037.2055 689.0358,-1026.7296 683.7402,-1035.906 690.6185,-1037.2055"/>
</g>
<!-- Node12&#45;&gt;Node13 -->
<g id="edge15" class="edge">
<title>Node12&#45;&gt;Node13</title>
<path fill="none" stroke="#191970" d="M451.5238,-2437.8249C468.8261,-2439.2783 491.4429,-2443.767 507,-2456.5 543.5526,-2486.4172 559.7078,-2542.4186 566.003,-2572.377"/>
<polygon fill="#191970" stroke="#191970" points="562.6206,-2573.321 567.9549,-2582.475 569.4934,-2571.9925 562.6206,-2573.321"/>
</g>
<!-- Node13&#45;&gt;Node3 -->
<g id="edge19" class="edge">
<title>Node13&#45;&gt;Node3</title>
<path fill="none" stroke="#191970" d="M572.0521,-2582.3495C577.5792,-2559.8604 590.5929,-2504.0634 596,-2456.5 649.2445,-1988.134 587.7594,-1865.8021 632,-1396.5 645.043,-1258.1408 675.8838,-1093.5439 686.9552,-1036.8567"/>
<polygon fill="#191970" stroke="#191970" points="690.453,-1037.2086 688.9497,-1026.721 683.5847,-1035.857 690.453,-1037.2086"/>
</g>
<!-- Node13&#45;&gt;Node6 -->
<g id="edge18" class="edge">
<title>Node13&#45;&gt;Node6</title>
<path fill="none" stroke="#191970" d="M574.4982,-2582.4883C580.4158,-2570.2618 590.1979,-2548.8193 596,-2529.5 620.9727,-2446.3487 602.9862,-2419.3289 632,-2337.5 643.9105,-2303.9082 665.1069,-2268.1556 678.5873,-2247.1002"/>
<polygon fill="#191970" stroke="#191970" points="681.6506,-2248.8101 684.177,-2238.5209 675.7856,-2244.9889 681.6506,-2248.8101"/>
</g>
<!-- Node13&#45;&gt;Node7 -->
<g id="edge17" class="edge">
<title>Node13&#45;&gt;Node7</title>
<path fill="none" stroke="#191970" d="M585.573,-2595.7835C620.6077,-2601.9182 704.3629,-2610.8665 750,-2567.5 795.1715,-2524.5759 808.8266,-2323.4127 812.1073,-2258.0623"/>
<polygon fill="#191970" stroke="#191970" points="815.6151,-2257.9776 812.5906,-2247.8236 808.6229,-2257.6474 815.6151,-2257.9776"/>
</g>
<!-- Node13&#45;&gt;Node10 -->
<g id="edge16" class="edge">
<title>Node13&#45;&gt;Node10</title>
<path fill="none" stroke="#191970" d="M585.6084,-2598.376C618.9547,-2609.4624 696.866,-2629.6877 750,-2598.5 864.394,-2531.3549 910.3217,-2360.3962 923.0464,-2301.6692"/>
<polygon fill="#191970" stroke="#191970" points="926.4954,-2302.2737 925.1023,-2291.7708 919.6417,-2300.85 926.4954,-2302.2737"/>
</g>
<!-- Node15 -->
<g id="node15" class="node">
<title>Node15</title>
<g id="a_node15"><a xlink:href="../../d3/d92/lystfu_8F.html#aa9010701221260844673a27f5bbae3b7" target="_top" xlink:title="lystfu">
<polygon fill="none" stroke="#ff0000" points="791,-2001.5 791,-2021.5 835,-2021.5 835,-2001.5 791,-2001.5"/>
<text text-anchor="middle" x="813" y="-2008.5" font-family="FreeSans" font-size="10.00" fill="#000000">lystfu</text>
</a>
</g>
</g>
<!-- Node14&#45;&gt;Node15 -->
<g id="edge21" class="edge">
<title>Node14&#45;&gt;Node15</title>
<path fill="none" stroke="#191970" d="M697.5354,-2347.2709C709.4275,-2328.2782 734.7783,-2285.9907 750,-2247.5 780.5709,-2170.1961 801.2633,-2072.9028 809.2807,-2031.56"/>
<polygon fill="#191970" stroke="#191970" points="812.7338,-2032.1359 811.1641,-2021.658 805.8571,-2030.8278 812.7338,-2032.1359"/>
</g>
<!-- Node15&#45;&gt;Node10 -->
<g id="edge22" class="edge">
<title>Node15&#45;&gt;Node10</title>
<path fill="none" stroke="#191970" d="M817.3297,-2021.7546C834.259,-2061.8502 896.1482,-2208.43 918.7042,-2261.852"/>
<polygon fill="#191970" stroke="#191970" points="915.5518,-2263.3841 922.666,-2271.2351 922.0005,-2260.6612 915.5518,-2263.3841"/>
</g>
<!-- Node17&#45;&gt;Node18 -->
<g id="edge26" class="edge">
<title>Node17&#45;&gt;Node18</title>
<path fill="none" stroke="#191970" d="M433.8841,-2486.7923C449.285,-2508.6446 485.2083,-2561.6787 507,-2610.5 535.7409,-2674.8899 556.4166,-2756.3481 565.0402,-2793.4511"/>
<polygon fill="#191970" stroke="#191970" points="561.6899,-2794.502 567.3252,-2803.4739 568.5148,-2792.946 561.6899,-2794.502"/>
</g>
<!-- Node19 -->
<g id="node19" class="node">
<title>Node19</title>
<g id="a_node19"><a xlink:href="../../df/d1f/gadap_8F.html#ac99ed93f4fc7c7fd1592d1dd4f744888" target="_top" xlink:title="gadap">
<polygon fill="none" stroke="#ff0000" points="545.5,-2427.5 545.5,-2447.5 593.5,-2447.5 593.5,-2427.5 545.5,-2427.5"/>
<text text-anchor="middle" x="569.5" y="-2434.5" font-family="FreeSans" font-size="10.00" fill="#000000">gadap</text>
</a>
</g>
</g>
<!-- Node17&#45;&gt;Node19 -->
<g id="edge28" class="edge">
<title>Node17&#45;&gt;Node19</title>
<path fill="none" stroke="#191970" d="M447.7642,-2471.5335C464.0387,-2467.656 487.0107,-2462.0176 507,-2456.5 516.3129,-2453.9294 526.3485,-2450.9657 535.5946,-2448.1552"/>
<polygon fill="#191970" stroke="#191970" points="536.7142,-2451.4728 545.2463,-2445.1914 534.6594,-2444.7811 536.7142,-2451.4728"/>
</g>
<!-- Node18&#45;&gt;Node10 -->
<g id="edge27" class="edge">
<title>Node18&#45;&gt;Node10</title>
<path fill="none" stroke="#191970" d="M592.632,-2815.5676C630.061,-2817.6206 704.3087,-2816.162 750,-2778.5 828.6327,-2713.6855 904.2922,-2386.0723 922.7421,-2301.4641"/>
<polygon fill="#191970" stroke="#191970" points="926.1861,-2302.0967 924.8764,-2291.5832 919.3439,-2300.6188 926.1861,-2302.0967"/>
</g>
<!-- Node20&#45;&gt;Node3 -->
<g id="edge36" class="edge">
<title>Node20&#45;&gt;Node3</title>
<path fill="none" stroke="#191970" d="M279.391,-1608.2027C284.1145,-1555.3207 307.4733,-1314.3185 346,-1251.5 419.1032,-1132.3039 485.9896,-1146.8106 596,-1060.5 612.1644,-1047.8179 613.6224,-1040.6863 632,-1031.5 639.1788,-1027.9115 647.2902,-1025.1321 655.1491,-1022.9975"/>
<polygon fill="#191970" stroke="#191970" points="655.9926,-1026.3945 664.8795,-1020.6262 654.3352,-1019.5935 655.9926,-1026.3945"/>
</g>
<!-- Node20&#45;&gt;Node6 -->
<g id="edge55" class="edge">
<title>Node20&#45;&gt;Node6</title>
<path fill="none" stroke="#191970" d="M283.3811,-1628.7466C290.1547,-1643.3026 302.4245,-1670.9322 310,-1695.5 332.6288,-1768.8868 309.9597,-1796.6857 346,-1864.5 394.3834,-1955.5395 457.7194,-1940.9431 507,-2031.5 540.5984,-2093.2397 494.635,-2134.4954 543,-2185.5 572.5712,-2216.685 623.2952,-2225.6651 656.9884,-2228.0277"/>
<polygon fill="#191970" stroke="#191970" points="657.1072,-2231.5391 667.281,-2228.582 657.4837,-2224.5492 657.1072,-2231.5391"/>
</g>
<!-- Node20&#45;&gt;Node15 -->
<g id="edge37" class="edge">
<title>Node20&#45;&gt;Node15</title>
<path fill="none" stroke="#191970" d="M283.0049,-1628.8401C296.2804,-1659.1166 335.0079,-1745.9847 346,-1754.5 403.815,-1799.288 450.1492,-1742.4943 507,-1788.5 537.6242,-1813.2822 516.0768,-1840.74 543,-1869.5 611.319,-1942.4799 725.6731,-1985.0372 781.0375,-2002.3598"/>
<polygon fill="#191970" stroke="#191970" points="780.0781,-2005.7263 790.6644,-2005.3023 782.1243,-1999.0321 780.0781,-2005.7263"/>
</g>
<!-- Node21 -->
<g id="node21" class="node">
<title>Node21</title>
<g id="a_node21"><a xlink:href="../../d8/d53/lscale_8F.html#a831b9ccf6317253a30b5f7f08c76ef03" target="_top" xlink:title="lscale">
<polygon fill="none" stroke="#000000" points="547,-1809.5 547,-1829.5 592,-1829.5 592,-1809.5 547,-1809.5"/>
<text text-anchor="middle" x="569.5" y="-1816.5" font-family="FreeSans" font-size="10.00" fill="#000000">lscale</text>
</a>
</g>
</g>
<!-- Node20&#45;&gt;Node21 -->
<g id="edge38" class="edge">
<title>Node20&#45;&gt;Node21</title>
<path fill="none" stroke="#191970" d="M303.7867,-1617.009C356.8166,-1614.4377 477.2213,-1611.6873 507,-1637.5 561.0947,-1684.3903 507.4315,-1732.3725 543,-1794.5 544.5025,-1797.1244 546.3681,-1799.6406 548.4089,-1801.9974"/>
<polygon fill="#191970" stroke="#191970" points="546.1976,-1804.7354 555.7482,-1809.322 551.1424,-1799.7807 546.1976,-1804.7354"/>
</g>
<!-- Node22 -->
<g id="node22" class="node">
<title>Node22</title>
<g id="a_node22"><a xlink:href="../../d8/d7b/lushow_8f.html#a0bdbe298274d1bf15e7098046b96239e" target="_top" xlink:title="lushow">
<polygon fill="none" stroke="#ff0000" points="543.5,-1655.5 543.5,-1675.5 595.5,-1675.5 595.5,-1655.5 543.5,-1655.5"/>
<text text-anchor="middle" x="569.5" y="-1662.5" font-family="FreeSans" font-size="10.00" fill="#000000">lushow</text>
</a>
</g>
</g>
<!-- Node20&#45;&gt;Node22 -->
<g id="edge41" class="edge">
<title>Node20&#45;&gt;Node22</title>
<path fill="none" stroke="#191970" d="M303.6897,-1610.0089C347.0952,-1596.8597 437.968,-1575.906 507,-1604.5 527.905,-1613.1591 526.7688,-1624.7346 543,-1640.5 545.5407,-1642.9678 548.238,-1645.5522 550.9016,-1648.0842"/>
<polygon fill="#191970" stroke="#191970" points="548.9277,-1651.0339 558.602,-1655.3534 553.7329,-1645.9437 548.9277,-1651.0339"/>
</g>
<!-- Node25 -->
<g id="node25" class="node">
<title>Node25</title>
<g id="a_node25"><a xlink:href="../../de/d39/lysspa_8F.html#ad96114ee498da69ba22dcdb67af32668" target="_top" xlink:title="lysspa">
<polygon fill="none" stroke="#ff0000" points="402.5,-1725.5 402.5,-1745.5 450.5,-1745.5 450.5,-1725.5 402.5,-1725.5"/>
<text text-anchor="middle" x="426.5" y="-1732.5" font-family="FreeSans" font-size="10.00" fill="#000000">lysspa</text>
</a>
</g>
</g>
<!-- Node20&#45;&gt;Node25 -->
<g id="edge48" class="edge">
<title>Node20&#45;&gt;Node25</title>
<path fill="none" stroke="#191970" d="M289.7389,-1628.6263C302.9554,-1640.4234 325.673,-1660.3574 346,-1676.5 365.0052,-1691.593 387.311,-1707.8316 403.6168,-1719.4444"/>
<polygon fill="#191970" stroke="#191970" points="401.8162,-1722.4581 411.9992,-1725.3834 405.863,-1716.7464 401.8162,-1722.4581"/>
</g>
<!-- Node26 -->
<g id="node26" class="node">
<title>Node26</title>
<g id="a_node26"><a xlink:href="../../d9/d7a/lyremn_8F.html#a0aab017503862c0f617dc07da9bd8afe" target="_top" xlink:title="lyremn">
<polygon fill="none" stroke="#ff0000" points="401,-1339.5 401,-1359.5 452,-1359.5 452,-1339.5 401,-1339.5"/>
<text text-anchor="middle" x="426.5" y="-1346.5" font-family="FreeSans" font-size="10.00" fill="#000000">lyremn</text>
</a>
</g>
</g>
<!-- Node20&#45;&gt;Node26 -->
<g id="edge56" class="edge">
<title>Node20&#45;&gt;Node26</title>
<path fill="none" stroke="#191970" d="M280.0015,-1608.3044C286.3362,-1566.5868 312.1217,-1409.453 346,-1374.5 357.6969,-1362.432 375.0998,-1356.1604 390.7351,-1352.9132"/>
<polygon fill="#191970" stroke="#191970" points="391.4236,-1356.3461 400.6767,-1351.1856 390.2251,-1349.4494 391.4236,-1356.3461"/>
</g>
<!-- Node20&#45;&gt;Node29 -->
<g id="edge70" class="edge">
<title>Node20&#45;&gt;Node29</title>
<path fill="none" stroke="#191970" d="M280.4725,-1608.3257C287.96,-1570.722 315.7341,-1440.33 346,-1412.5 359.8806,-1399.7366 475.2559,-1376.9014 534.5716,-1365.8448"/>
<polygon fill="#191970" stroke="#191970" points="535.4197,-1369.2473 544.6154,-1363.9853 534.1453,-1362.3643 535.4197,-1369.2473"/>
</g>
<!-- Node31 -->
<g id="node31" class="node">
<title>Node31</title>
<g id="a_node31"><a xlink:href="../../d5/d11/ltimex_8F.html#a08fec3dff1a4d1cc56eb1387e95550cf" target="_top" xlink:title="ltimex">
<polygon fill="none" stroke="#000000" points="402.5,-1647.5 402.5,-1667.5 450.5,-1667.5 450.5,-1647.5 402.5,-1647.5"/>
<text text-anchor="middle" x="426.5" y="-1654.5" font-family="FreeSans" font-size="10.00" fill="#000000">ltimex</text>
</a>
</g>
</g>
<!-- Node20&#45;&gt;Node31 -->
<g id="edge76" class="edge">
<title>Node20&#45;&gt;Node31</title>
<path fill="none" stroke="#191970" d="M303.6062,-1625.1158C328.0311,-1631.5521 365.3192,-1641.378 392.4166,-1648.5186"/>
<polygon fill="#191970" stroke="#191970" points="391.6932,-1651.9474 402.255,-1651.1111 393.477,-1645.1784 391.6932,-1651.9474"/>
</g>
<!-- Node32 -->
<g id="node32" class="node">
<title>Node32</title>
<g id="a_node32"><a xlink:href="../../d0/d4a/luedit_8f.html#aaacc14ce32bf7ae36ea919afd5d45016" target="_top" xlink:title="luedit">
<polygon fill="none" stroke="#ff0000" points="547,-2156.5 547,-2176.5 592,-2176.5 592,-2156.5 547,-2156.5"/>
<text text-anchor="middle" x="569.5" y="-2163.5" font-family="FreeSans" font-size="10.00" fill="#000000">luedit</text>
</a>
</g>
</g>
<!-- Node20&#45;&gt;Node32 -->
<g id="edge77" class="edge">
<title>Node20&#45;&gt;Node32</title>
<path fill="none" stroke="#191970" d="M282.8428,-1628.9363C288.9771,-1643.7178 300.4919,-1671.6135 310,-1695.5 326.3916,-1736.6796 319.463,-1753.0003 346,-1788.5 400.0766,-1860.8405 459.2096,-1835.8612 507,-1912.5 549.4772,-1980.6185 521.8928,-2012.0472 543,-2089.5 548.376,-2109.2271 556.1354,-2131.2401 561.8695,-2146.6601"/>
<polygon fill="#191970" stroke="#191970" points="558.6546,-2148.0542 565.4615,-2156.1731 565.2034,-2145.5814 558.6546,-2148.0542"/>
</g>
<!-- Node21&#45;&gt;Node5 -->
<g id="edge40" class="edge">
<title>Node21&#45;&gt;Node5</title>
<path fill="none" stroke="#191970" d="M579.3324,-1809.4087C591.0306,-1797.8415 611.5595,-1778.8874 632,-1766.5 680.4199,-1737.1565 715.3631,-1763.2863 750,-1718.5 778.2512,-1681.9706 804.9864,-1350.8487 811.498,-1264.8384"/>
<polygon fill="#191970" stroke="#191970" points="814.9943,-1265.018 812.2511,-1254.7845 808.0138,-1264.4951 814.9943,-1265.018"/>
</g>
<!-- Node21&#45;&gt;Node10 -->
<g id="edge39" class="edge">
<title>Node21&#45;&gt;Node10</title>
<path fill="none" stroke="#191970" d="M592.2158,-1822.27C628.4148,-1827.5941 700.1765,-1841.95 750,-1876.5 885.6086,-1970.5374 918.2878,-2192.3957 925.272,-2260.953"/>
<polygon fill="#191970" stroke="#191970" points="921.8201,-2261.6294 926.2411,-2271.2577 928.7894,-2260.9739 921.8201,-2261.6294"/>
</g>
<!-- Node22&#45;&gt;Node3 -->
<g id="edge47" class="edge">
<title>Node22&#45;&gt;Node3</title>
<path fill="none" stroke="#191970" d="M571.4085,-1655.3058C585.1004,-1582.1695 668.3693,-1137.3834 687.2119,-1036.7343"/>
<polygon fill="#191970" stroke="#191970" points="690.6957,-1037.1451 689.0957,-1026.6718 683.8153,-1035.857 690.6957,-1037.1451"/>
</g>
<!-- Node22&#45;&gt;Node5 -->
<g id="edge45" class="edge">
<title>Node22&#45;&gt;Node5</title>
<path fill="none" stroke="#191970" d="M595.5805,-1660.1053C640.4934,-1650.2829 729.5927,-1628.287 750,-1604.5 794.5223,-1552.604 808.7324,-1332.9146 812.1125,-1264.7539"/>
<polygon fill="#191970" stroke="#191970" points="815.6206,-1264.661 812.5942,-1254.5076 808.6284,-1264.3322 815.6206,-1264.661"/>
</g>
<!-- Node22&#45;&gt;Node6 -->
<g id="edge46" class="edge">
<title>Node22&#45;&gt;Node6</title>
<path fill="none" stroke="#191970" d="M572.3923,-1675.7776C577.4726,-1693.9858 588.1991,-1733.1375 596,-1766.5 635.7491,-1936.4961 675.1806,-2143.7735 687.2547,-2208.3314"/>
<polygon fill="#191970" stroke="#191970" points="683.8541,-2209.1883 689.1278,-2218.3773 690.7355,-2207.9052 683.8541,-2209.1883"/>
</g>
<!-- Node22&#45;&gt;Node10 -->
<g id="edge43" class="edge">
<title>Node22&#45;&gt;Node10</title>
<path fill="none" stroke="#191970" d="M587.075,-1675.5996C635.7509,-1704.5419 773.1239,-1792.9732 840,-1905.5 876.9658,-1967.6992 913.4817,-2192.5702 923.996,-2261.3633"/>
<polygon fill="#191970" stroke="#191970" points="920.5497,-2261.9822 925.5059,-2271.3463 927.471,-2260.9353 920.5497,-2261.9822"/>
</g>
<!-- Node23 -->
<g id="node23" class="node">
<title>Node23</title>
<g id="a_node23"><a xlink:href="../../d0/d95/ip_8C.html#a292ff32a75b66b513d1f0ce00f9a4dc4" target="_top" xlink:title="ip">
<polygon fill="none" stroke="#ff0000" points="676.5,-1406.5 676.5,-1426.5 705.5,-1426.5 705.5,-1406.5 676.5,-1406.5"/>
<text text-anchor="middle" x="691" y="-1413.5" font-family="FreeSans" font-size="10.00" fill="#000000">ip</text>
</a>
</g>
</g>
<!-- Node22&#45;&gt;Node23 -->
<g id="edge42" class="edge">
<title>Node22&#45;&gt;Node23</title>
<path fill="none" stroke="#191970" d="M574.0753,-1655.3526C584.2321,-1632.9027 609.5405,-1577.381 632,-1531.5 648.6725,-1497.4408 669.0433,-1458.2352 680.9644,-1435.5196"/>
<polygon fill="#191970" stroke="#191970" points="684.1045,-1437.0682 685.6623,-1426.5885 677.9092,-1433.8095 684.1045,-1437.0682"/>
</g>
<!-- Node22&#45;&gt;Node24 -->
<g id="edge44" class="edge">
<title>Node22&#45;&gt;Node24</title>
<path fill="none" stroke="#191970" d="M570.5951,-1655.3449C574.5542,-1618.3199 588.2963,-1487.0604 596,-1378.5 618.8365,-1056.69 587.7354,-973.0681 632,-653.5 644.4228,-563.8137 672.867,-459.3066 685.1615,-416.413"/>
<polygon fill="#191970" stroke="#191970" points="688.5653,-417.2414 687.9838,-406.6625 681.8414,-415.295 688.5653,-417.2414"/>
</g>
<!-- Node25&#45;&gt;Node3 -->
<g id="edge51" class="edge">
<title>Node25&#45;&gt;Node3</title>
<path fill="none" stroke="#191970" d="M446.9751,-1725.4444C465.2749,-1715.4471 491.5203,-1698.4478 507,-1676.5 584.5686,-1566.5197 668.7674,-1135.315 687.2723,-1036.6746"/>
<polygon fill="#191970" stroke="#191970" points="690.7231,-1037.2613 689.1149,-1026.7893 683.8416,-1035.9785 690.7231,-1037.2613"/>
</g>
<!-- Node25&#45;&gt;Node5 -->
<g id="edge52" class="edge">
<title>Node25&#45;&gt;Node5</title>
<path fill="none" stroke="#191970" d="M450.8988,-1736.5936C511.7197,-1737.8695 670.8477,-1732.0349 750,-1642.5 800.3595,-1585.5347 810.6197,-1338.3582 812.5695,-1265.0603"/>
<polygon fill="#191970" stroke="#191970" points="816.0736,-1264.9266 812.8159,-1254.8451 809.0757,-1264.7577 816.0736,-1264.9266"/>
</g>
<!-- Node25&#45;&gt;Node6 -->
<g id="edge54" class="edge">
<title>Node25&#45;&gt;Node6</title>
<path fill="none" stroke="#191970" d="M446.9856,-1745.6926C465.8282,-1756.2117 492.9141,-1774.4604 507,-1798.5 559.974,-1888.9075 502.3106,-1934.9385 543,-2031.5 574.5459,-2106.3627 640.7332,-2178.5648 672.8068,-2210.8568"/>
<polygon fill="#191970" stroke="#191970" points="670.6226,-2213.6205 680.1842,-2218.1841 675.5554,-2208.6538 670.6226,-2213.6205"/>
</g>
<!-- Node25&#45;&gt;Node15 -->
<g id="edge50" class="edge">
<title>Node25&#45;&gt;Node15</title>
<path fill="none" stroke="#191970" d="M450.509,-1737.7494C467.9896,-1740.521 491.2637,-1746.7051 507,-1760.5 535.7108,-1785.6688 515.2668,-1812.2579 543,-1838.5 614.8777,-1906.5131 672.511,-1858.9561 750,-1920.5 774.5857,-1940.0267 793.452,-1971.6983 803.8841,-1992.057"/>
<polygon fill="#191970" stroke="#191970" points="800.8762,-1993.8713 808.4363,-2001.2939 807.1551,-1990.7768 800.8762,-1993.8713"/>
</g>
<!-- Node25&#45;&gt;Node21 -->
<g id="edge49" class="edge">
<title>Node25&#45;&gt;Node21</title>
<path fill="none" stroke="#191970" d="M450.5698,-1739.9601C467.2153,-1743.7465 489.4387,-1750.2347 507,-1760.5 507.0416,-1760.5243 533.1114,-1785.1386 551.5638,-1802.5626"/>
<polygon fill="#191970" stroke="#191970" points="549.2338,-1805.1763 558.9075,-1809.4972 554.0398,-1800.0867 549.2338,-1805.1763"/>
</g>
<!-- Node25&#45;&gt;Node22 -->
<g id="edge53" class="edge">
<title>Node25&#45;&gt;Node22</title>
<path fill="none" stroke="#191970" d="M450.5234,-1730.2061C466.9468,-1726.0727 488.9272,-1719.512 507,-1710.5 522.4055,-1702.818 538.1239,-1691.4808 549.9438,-1682.1081"/>
<polygon fill="#191970" stroke="#191970" points="552.2562,-1684.7387 557.8013,-1675.7108 547.8366,-1679.3103 552.2562,-1684.7387"/>
</g>
<!-- Node26&#45;&gt;Node3 -->
<g id="edge62" class="edge">
<title>Node26&#45;&gt;Node3</title>
<path fill="none" stroke="#191970" d="M443.5491,-1339.4708C460.8238,-1328.7743 487.6834,-1310.6276 507,-1290.5 587.7655,-1206.3436 656.4287,-1082.7756 681.1688,-1035.6855"/>
<polygon fill="#191970" stroke="#191970" points="684.3845,-1037.0878 685.8927,-1026.6008 678.1739,-1033.8583 684.3845,-1037.0878"/>
</g>
<!-- Node26&#45;&gt;Node4 -->
<g id="edge63" class="edge">
<title>Node26&#45;&gt;Node4</title>
<path fill="none" stroke="#191970" d="M451.6174,-1339.3335C514.1008,-1312.5985 676.7659,-1233.8442 750,-1111.5 793.1604,-1039.3966 808.5619,-770.662 812.1287,-694.022"/>
<polygon fill="#191970" stroke="#191970" points="815.6359,-693.9369 812.5866,-683.7904 808.6429,-693.6238 815.6359,-693.9369"/>
</g>
<!-- Node26&#45;&gt;Node6 -->
<g id="edge61" class="edge">
<title>Node26&#45;&gt;Node6</title>
<path fill="none" stroke="#191970" d="M434.5473,-1359.529C451.2034,-1380.8829 489.3702,-1433.0264 507,-1483.5 547.3562,-1599.0386 483.2389,-1649.6993 543,-1756.5 557.8119,-1782.9708 580.0533,-1773.6969 596,-1799.5 639.8673,-1870.4811 678.1367,-2133.439 688.34,-2208.4225"/>
<polygon fill="#191970" stroke="#191970" points="684.8845,-2208.9886 689.6864,-2218.4328 691.8221,-2208.0554 684.8845,-2208.9886"/>
</g>
<!-- Node26&#45;&gt;Node7 -->
<g id="edge69" class="edge">
<title>Node26&#45;&gt;Node7</title>
<path fill="none" stroke="#191970" d="M434.3626,-1359.5959C450.6692,-1381.0765 488.2112,-1433.4463 507,-1483.5 538.8939,-1568.466 507.1667,-1601.1188 543,-1684.5 558.6888,-1721.0065 574.3158,-1723.2035 596,-1756.5 671.1793,-1871.9394 695.7951,-1898.8509 750,-2025.5 779.1509,-2093.6109 800.1486,-2179.4852 808.723,-2217.6518"/>
<polygon fill="#191970" stroke="#191970" points="805.3227,-2218.4856 810.895,-2227.4968 812.1584,-2216.9775 805.3227,-2218.4856"/>
</g>
<!-- Node26&#45;&gt;Node23 -->
<g id="edge57" class="edge">
<title>Node26&#45;&gt;Node23</title>
<path fill="none" stroke="#191970" d="M452.343,-1356.0462C503.3279,-1368.9611 616.2521,-1397.5658 666.2976,-1410.2427"/>
<polygon fill="#191970" stroke="#191970" points="665.6957,-1413.7007 676.249,-1412.7635 667.4146,-1406.915 665.6957,-1413.7007"/>
</g>
<!-- Node26&#45;&gt;Node27 -->
<g id="edge58" class="edge">
<title>Node26&#45;&gt;Node27</title>
<path fill="none" stroke="#191970" d="M449.7534,-1339.4897C468.8102,-1329.9208 494.5869,-1313.5324 507,-1290.5 582.4765,-1150.4537 466.7929,-715.1501 543,-575.5 543.2966,-574.9565 543.6162,-574.4247 543.9564,-573.9047"/>
<polygon fill="#191970" stroke="#191970" points="546.5986,-576.2034 550.8667,-566.5063 541.4829,-571.4253 546.5986,-576.2034"/>
</g>
<!-- Node28 -->
<g id="node28" class="node">
<title>Node28</title>
<g id="a_node28"><a xlink:href="../../d9/d92/lremh_8F.html#a906c87082ea73a4b56c8e5ae5220dcce" target="_top" xlink:title="lremh">
<polygon fill="none" stroke="#ff0000" points="547,-585.5 547,-605.5 592,-605.5 592,-585.5 547,-585.5"/>
<text text-anchor="middle" x="569.5" y="-592.5" font-family="FreeSans" font-size="10.00" fill="#000000">lremh</text>
</a>
</g>
</g>
<!-- Node26&#45;&gt;Node28 -->
<g id="edge64" class="edge">
<title>Node26&#45;&gt;Node28</title>
<path fill="none" stroke="#191970" d="M449.6467,-1339.4315C468.6366,-1329.8262 494.3753,-1313.4171 507,-1290.5 563.2114,-1188.4614 530.1189,-883.2829 543,-767.5 549.156,-712.166 560.1803,-647.3731 565.8746,-615.4093"/>
<polygon fill="#191970" stroke="#191970" points="569.3238,-616.0035 567.6498,-605.5417 562.4344,-614.764 569.3238,-616.0035"/>
</g>
<!-- Node27&#45;&gt;Node5 -->
<g id="edge60" class="edge">
<title>Node27&#45;&gt;Node5</title>
<path fill="none" stroke="#191970" d="M587.2015,-566.7088C590.4821,-569.2408 593.6197,-572.1913 596,-575.5 627.7723,-619.6647 593.1853,-654.3763 632,-692.5 670.9376,-730.7444 714.6048,-684.9555 750,-726.5 782.8897,-765.1038 806.4434,-1132.4948 811.8296,-1223.9579"/>
<polygon fill="#191970" stroke="#191970" points="808.3465,-1224.3517 812.4204,-1234.132 815.3347,-1223.9459 808.3465,-1224.3517"/>
</g>
<!-- Node27&#45;&gt;Node24 -->
<g id="edge59" class="edge">
<title>Node27&#45;&gt;Node24</title>
<path fill="none" stroke="#191970" d="M577.1004,-546.4913C597.1302,-520.1145 651.58,-448.4111 677.2541,-414.6016"/>
<polygon fill="#191970" stroke="#191970" points="680.1422,-416.5857 683.4025,-406.5049 674.5674,-412.3523 680.1422,-416.5857"/>
</g>
<!-- Node28&#45;&gt;Node3 -->
<g id="edge66" class="edge">
<title>Node28&#45;&gt;Node3</title>
<path fill="none" stroke="#191970" d="M574.2575,-605.5889C579.938,-617.8914 589.4869,-639.4087 596,-658.5 639.1225,-784.9003 674.8038,-941.84 686.7347,-996.5697"/>
<polygon fill="#191970" stroke="#191970" points="683.3221,-997.3484 688.8571,-1006.3825 690.1639,-995.8686 683.3221,-997.3484"/>
</g>
<!-- Node28&#45;&gt;Node4 -->
<g id="edge67" class="edge">
<title>Node28&#45;&gt;Node4</title>
<path fill="none" stroke="#191970" d="M592.2571,-594.6996C627.5963,-594.3065 697.1029,-596.9717 750,-620.5 768.4262,-628.6959 785.6784,-643.9569 797.4535,-656.0057"/>
<polygon fill="#191970" stroke="#191970" points="794.9592,-658.4624 804.3578,-663.353 800.0604,-653.6688 794.9592,-658.4624"/>
</g>
<!-- Node28&#45;&gt;Node5 -->
<g id="edge65" class="edge">
<title>Node28&#45;&gt;Node5</title>
<path fill="none" stroke="#191970" d="M573.8995,-605.7865C586.4956,-635.0744 622.4073,-717.3897 632,-726.5 673.176,-765.6054 715.3914,-730.4785 750,-775.5 777.824,-811.6956 804.8269,-1138.628 811.4573,-1224.1195"/>
<polygon fill="#191970" stroke="#191970" points="807.9856,-1224.6235 812.2405,-1234.3263 814.9651,-1224.0878 807.9856,-1224.6235"/>
</g>
<!-- Node28&#45;&gt;Node24 -->
<g id="edge68" class="edge">
<title>Node28&#45;&gt;Node24</title>
<path fill="none" stroke="#191970" d="M585.3347,-585.3257C589.1121,-582.4407 592.9332,-579.0963 596,-575.5 639.2388,-524.7965 670.499,-451.1353 683.8367,-416.2431"/>
<polygon fill="#191970" stroke="#191970" points="687.1707,-417.32 687.394,-406.7275 680.6138,-414.8688 687.1707,-417.32"/>
</g>
<!-- Node29&#45;&gt;Node3 -->
<g id="edge75" class="edge">
<title>Node29&#45;&gt;Node3</title>
<path fill="none" stroke="#191970" d="M573.1363,-1349.2347C590.0446,-1301.5016 661.1187,-1100.8561 683.9244,-1036.4748"/>
<polygon fill="#191970" stroke="#191970" points="687.338,-1037.32 687.3779,-1026.7253 680.7397,-1034.9827 687.338,-1037.32"/>
</g>
<!-- Node29&#45;&gt;Node4 -->
<g id="edge72" class="edge">
<title>Node29&#45;&gt;Node4</title>
<path fill="none" stroke="#191970" d="M594.2458,-1356.9701C638.7967,-1351.8749 729.7579,-1338.825 750,-1315.5 791.7437,-1267.3988 809.0449,-797.89 812.3825,-693.8479"/>
<polygon fill="#191970" stroke="#191970" points="815.8845,-693.8341 812.6995,-683.7293 808.888,-693.6148 815.8845,-693.8341"/>
</g>
<!-- Node29&#45;&gt;Node5 -->
<g id="edge74" class="edge">
<title>Node29&#45;&gt;Node5</title>
<path fill="none" stroke="#191970" d="M594.061,-1365.7047C630.8606,-1373.5445 701.1891,-1382.7572 750,-1353.5 782.8077,-1333.8351 800.2011,-1290.1201 807.9233,-1264.4254"/>
<polygon fill="#191970" stroke="#191970" points="811.3374,-1265.2123 810.6575,-1254.6393 804.5956,-1263.3286 811.3374,-1265.2123"/>
</g>
<!-- Node29&#45;&gt;Node23 -->
<g id="edge71" class="edge">
<title>Node29&#45;&gt;Node23</title>
<path fill="none" stroke="#191970" d="M588.196,-1369.5209C600.5244,-1376.0171 617.0897,-1384.5351 632,-1391.5 643.3045,-1396.7805 656.0283,-1402.2327 666.7579,-1406.6925"/>
<polygon fill="#191970" stroke="#191970" points="665.743,-1410.0595 676.3227,-1410.6264 668.4057,-1403.5857 665.743,-1410.0595"/>
</g>
<!-- Node30 -->
<g id="node30" class="node">
<title>Node30</title>
<g id="a_node30"><a xlink:href="../../d8/d1a/classHiMain1.html#a676ccaef5fa9c10e945e6d1477aeb366" target="_top" xlink:title="HiMain1::np">
<polygon fill="none" stroke="#ff0000" points="652.5,-1541.5 652.5,-1561.5 729.5,-1561.5 729.5,-1541.5 652.5,-1541.5"/>
<text text-anchor="middle" x="691" y="-1548.5" font-family="FreeSans" font-size="10.00" fill="#000000">HiMain1::np</text>
</a>
</g>
</g>
<!-- Node29&#45;&gt;Node30 -->
<g id="edge73" class="edge">
<title>Node29&#45;&gt;Node30</title>
<path fill="none" stroke="#191970" d="M575.8613,-1369.5524C595.2083,-1400.1255 653.5684,-1492.3488 678.9703,-1532.49"/>
<polygon fill="#191970" stroke="#191970" points="676.102,-1534.5029 684.407,-1541.0815 682.0172,-1530.7597 676.102,-1534.5029"/>
</g>
<!-- Node32&#45;&gt;Node4 -->
<g id="edge78" class="edge">
<title>Node32&#45;&gt;Node4</title>
<path fill="none" stroke="#191970" d="M574.1869,-2156.3866C579.7979,-2144.06 589.2783,-2122.5189 596,-2103.5 678.1655,-1871.0138 706.9,-1813.2826 750,-1570.5 781.3924,-1393.6664 807.2469,-810.098 812.1592,-693.7742"/>
<polygon fill="#191970" stroke="#191970" points="815.6578,-693.878 812.5797,-683.7402 808.664,-693.5848 815.6578,-693.878"/>
</g>
<!-- Node32&#45;&gt;Node6 -->
<g id="edge80" class="edge">
<title>Node32&#45;&gt;Node6</title>
<path fill="none" stroke="#191970" d="M589.2915,-2176.5994C609.061,-2186.6875 639.6625,-2202.3031 662.1376,-2213.7719"/>
<polygon fill="#191970" stroke="#191970" points="660.7188,-2216.9772 671.217,-2218.405 663.9005,-2210.742 660.7188,-2216.9772"/>
</g>
<!-- Node32&#45;&gt;Node7 -->
<g id="edge79" class="edge">
<title>Node32&#45;&gt;Node7</title>
<path fill="none" stroke="#191970" d="M592.1405,-2170.2427C626.7432,-2176.3017 694.6032,-2189.5246 750,-2208.5 761.8937,-2212.574 774.5658,-2218.1491 785.4026,-2223.3229"/>
<polygon fill="#191970" stroke="#191970" points="783.867,-2226.468 794.3878,-2227.7186 786.9431,-2220.1801 783.867,-2226.468"/>
</g>
<!-- Node33&#45;&gt;Node10 -->
<g id="edge96" class="edge">
<title>Node33&#45;&gt;Node10</title>
<path fill="none" stroke="#191970" d="M300.9634,-2184.6048C313.9323,-2190.154 330.6645,-2196.8354 346,-2201.5 529.7835,-2257.4018 758.2362,-2274.3577 865.7013,-2279.4099"/>
<polygon fill="#191970" stroke="#191970" points="865.57,-2282.9075 875.7179,-2279.8626 865.8861,-2275.9146 865.57,-2282.9075"/>
</g>
<!-- Node33&#45;&gt;Node18 -->
<g id="edge93" class="edge">
<title>Node33&#45;&gt;Node18</title>
<path fill="none" stroke="#191970" d="M279.4872,-2184.5405C287.3792,-2264.7023 340.0785,-2797.9358 346,-2803.5 397.2657,-2851.6726 487.8624,-2836.6875 536.4771,-2823.799"/>
<polygon fill="#191970" stroke="#191970" points="537.4851,-2827.1516 546.1844,-2821.1041 535.6125,-2820.4067 537.4851,-2827.1516"/>
</g>
<!-- Node33&#45;&gt;Node19 -->
<g id="edge95" class="edge">
<title>Node33&#45;&gt;Node19</title>
<path fill="none" stroke="#191970" d="M281.7095,-2184.6C289.4976,-2207.81 311.3454,-2265.7714 346,-2302.5 401.6187,-2361.4473 488.5585,-2403.903 535.9453,-2424.1516"/>
<polygon fill="#191970" stroke="#191970" points="534.856,-2427.4902 545.4313,-2428.1333 537.5652,-2421.0357 534.856,-2427.4902"/>
</g>
<!-- Node33&#45;&gt;Node23 -->
<g id="edge92" class="edge">
<title>Node33&#45;&gt;Node23</title>
<path fill="none" stroke="#191970" d="M279.1461,-2164.3481C284.5019,-2080.8594 321.9447,-1509.9416 346,-1483.5 367.8176,-1459.5181 591.2267,-1429.1733 666.4405,-1419.5629"/>
<polygon fill="#191970" stroke="#191970" points="666.9399,-1423.0277 676.4207,-1418.2986 666.0601,-1416.0832 666.9399,-1423.0277"/>
</g>
<!-- Node33&#45;&gt;Node30 -->
<g id="edge84" class="edge">
<title>Node33&#45;&gt;Node30</title>
<path fill="none" stroke="#191970" d="M282.7117,-2164.4547C292.048,-2142.8883 316.0454,-2091.1425 346,-2054.5 438.9363,-1940.8139 526.2586,-1967.72 596,-1838.5 653.9171,-1731.1886 550.9792,-1657.6359 632,-1566.5 635.0854,-1563.0295 638.8496,-1560.3084 642.9688,-1558.1817"/>
<polygon fill="#191970" stroke="#191970" points="644.4319,-1561.3664 652.4277,-1554.4154 641.8423,-1554.863 644.4319,-1561.3664"/>
</g>
<!-- Node34 -->
<g id="node34" class="node">
<title>Node34</title>
<g id="a_node34"><a xlink:href="../../d3/dd5/jewel-2_82_80_8f.html#a9c971fc07a1a6587c5ec282bcbfd1d1a" target="_top" xlink:title="pqg">
<polygon fill="none" stroke="#000000" points="552,-2002.5 552,-2022.5 587,-2022.5 587,-2002.5 552,-2002.5"/>
<text text-anchor="middle" x="569.5" y="-2009.5" font-family="FreeSans" font-size="10.00" fill="#000000">pqg</text>
</a>
</g>
</g>
<!-- Node33&#45;&gt;Node34 -->
<g id="edge83" class="edge">
<title>Node33&#45;&gt;Node34</title>
<path fill="none" stroke="#191970" d="M303.1285,-2182.7901C348.0759,-2196.2668 444.5198,-2217.3639 507,-2174.5 531.3124,-2157.8207 554.9611,-2072.0474 564.7656,-2032.5076"/>
<polygon fill="#191970" stroke="#191970" points="568.1941,-2033.2207 567.1529,-2022.6772 561.3918,-2031.5687 568.1941,-2033.2207"/>
</g>
<!-- Node35 -->
<g id="node35" class="node">
<title>Node35</title>
<g id="a_node35"><a xlink:href="../../d2/d9e/dsigma_8F.html#a322d42c5e0ccf64f089301b4c21fa6e4" target="_top" xlink:title="dsigma">
<polygon fill="none" stroke="#ff0000" points="543,-1963.5 543,-1983.5 596,-1983.5 596,-1963.5 543,-1963.5"/>
<text text-anchor="middle" x="569.5" y="-1970.5" font-family="FreeSans" font-size="10.00" fill="#000000">dsigma</text>
</a>
</g>
</g>
<!-- Node33&#45;&gt;Node35 -->
<g id="edge85" class="edge">
<title>Node33&#45;&gt;Node35</title>
<path fill="none" stroke="#191970" d="M295.2691,-2164.4502C308.8352,-2156.4077 328.4931,-2144.9513 346,-2135.5 416.4856,-2097.4477 448.6882,-2109.4175 507,-2054.5 530.1962,-2032.6541 521.5754,-2016.0859 543,-1992.5 543.7422,-1991.6829 544.5252,-1990.88 545.3383,-1990.0939"/>
<polygon fill="#191970" stroke="#191970" points="547.7528,-1992.6376 553.1873,-1983.5428 543.2673,-1987.2635 547.7528,-1992.6376"/>
</g>
<!-- Node36 -->
<g id="node36" class="node">
<title>Node36</title>
<g id="a_node36"><a xlink:href="../../d7/dd3/dsigm2_8F.html#a3ae1de6009d8e73a2782ba12c5587ef2" target="_top" xlink:title="dsigm2">
<polygon fill="none" stroke="#000000" points="400,-2145.5 400,-2165.5 453,-2165.5 453,-2145.5 400,-2145.5"/>
<text text-anchor="middle" x="426.5" y="-2152.5" font-family="FreeSans" font-size="10.00" fill="#000000">dsigm2</text>
</a>
</g>
</g>
<!-- Node33&#45;&gt;Node36 -->
<g id="edge90" class="edge">
<title>Node33&#45;&gt;Node36</title>
<path fill="none" stroke="#191970" d="M303.2719,-2171.3198C326.8818,-2168.2888 362.7273,-2163.687 389.6813,-2160.2267"/>
<polygon fill="#191970" stroke="#191970" points="390.4228,-2163.6603 399.8957,-2158.9154 389.5314,-2156.7173 390.4228,-2163.6603"/>
</g>
<!-- Node37 -->
<g id="node37" class="node">
<title>Node37</title>
<g id="a_node37"><a xlink:href="../../d1/d34/classFitNewton_1_1NewtonMinimizerGradHessian.html#a87fdacb9c9fb955bd8af5abc596cc245" target="_top" xlink:title="FitNewton::NewtonMinimizer\lGradHessian::zoom">
<polygon fill="none" stroke="#000000" points="346,-2261.5 346,-2293.5 507,-2293.5 507,-2261.5 346,-2261.5"/>
<text text-anchor="start" x="354" y="-2280.5" font-family="FreeSans" font-size="10.00" fill="#000000">FitNewton::NewtonMinimizer</text>
<text text-anchor="middle" x="426.5" y="-2268.5" font-family="FreeSans" font-size="10.00" fill="#000000">GradHessian::zoom</text>
</a>
</g>
</g>
<!-- Node33&#45;&gt;Node37 -->
<g id="edge94" class="edge">
<title>Node33&#45;&gt;Node37</title>
<path fill="none" stroke="#191970" d="M285.6756,-2184.7042C296.9292,-2200.0394 320.1333,-2229.0826 346,-2246.5 351.9783,-2250.5255 358.5537,-2254.133 365.2905,-2257.3375"/>
<polygon fill="#191970" stroke="#191970" points="363.9775,-2260.5841 374.5362,-2261.4588 366.8275,-2254.1906 363.9775,-2260.5841"/>
</g>
<!-- Node35&#45;&gt;Node3 -->
<g id="edge86" class="edge">
<title>Node35&#45;&gt;Node3</title>
<path fill="none" stroke="#191970" d="M571.8869,-1963.4045C577.0848,-1941.0417 589.4827,-1885.5818 596,-1838.5 623.025,-1643.2666 608.8651,-1592.2325 632,-1396.5 648.3126,-1258.4881 677.1058,-1093.6737 687.2977,-1036.8931"/>
<polygon fill="#191970" stroke="#191970" points="690.7983,-1037.2025 689.1292,-1026.74 683.9095,-1035.9599 690.7983,-1037.2025"/>
</g>
<!-- Node35&#45;&gt;Node7 -->
<g id="edge89" class="edge">
<title>Node35&#45;&gt;Node7</title>
<path fill="none" stroke="#191970" d="M584.8081,-1983.5913C588.5956,-1986.3238 592.5532,-1989.3906 596,-1992.5 681.0779,-2069.2499 766.7697,-2177.108 799.3172,-2219.4418"/>
<polygon fill="#191970" stroke="#191970" points="796.5825,-2221.6274 805.4365,-2227.446 802.1435,-2217.3759 796.5825,-2221.6274"/>
</g>
<!-- Node35&#45;&gt;Node14 -->
<g id="edge87" class="edge">
<title>Node35&#45;&gt;Node14</title>
<path fill="none" stroke="#191970" d="M587.8887,-1983.647C591.0359,-1986.1538 593.9473,-1989.1104 596,-1992.5 655.2884,-2090.4047 596.3998,-2138.7201 632,-2247.5 643.2146,-2281.7672 664.7732,-2317.9559 678.4934,-2339.0943"/>
<polygon fill="#191970" stroke="#191970" points="675.5743,-2341.0254 684.0105,-2347.4348 681.4126,-2337.1634 675.5743,-2341.0254"/>
</g>
<!-- Node35&#45;&gt;Node23 -->
<g id="edge88" class="edge">
<title>Node35&#45;&gt;Node23</title>
<path fill="none" stroke="#191970" d="M571.7629,-1963.3862C576.7135,-1940.9869 588.649,-1885.4588 596,-1838.5 617.2468,-1702.7736 592.0085,-1662.9297 632,-1531.5 642.9251,-1495.5952 664.7579,-1457.5199 678.5827,-1435.4354"/>
<polygon fill="#191970" stroke="#191970" points="681.7026,-1437.0527 684.1328,-1426.7404 675.8021,-1433.2864 681.7026,-1437.0527"/>
</g>
<!-- Node36&#45;&gt;Node35 -->
<g id="edge91" class="edge">
<title>Node36&#45;&gt;Node35</title>
<path fill="none" stroke="#191970" d="M453.1522,-2153.7705C470.749,-2151.228 493.0516,-2145.1043 507,-2130.5 550.7795,-2084.6619 507.1064,-2044.7439 543,-1992.5 543.4328,-1991.8701 543.8936,-1991.2538 544.3783,-1990.6514"/>
<polygon fill="#191970" stroke="#191970" points="546.9001,-1993.0821 551.6865,-1983.6301 542.0505,-1988.0343 546.9001,-1993.0821"/>
</g>
<!-- Node38&#45;&gt;Node3 -->
<g id="edge103" class="edge">
<title>Node38&#45;&gt;Node3</title>
<path fill="none" stroke="#191970" d="M206.142,-803.8936C282.196,-837.2427 563.4939,-960.5896 659.0184,-1002.4763"/>
<polygon fill="#191970" stroke="#191970" points="657.6233,-1005.6863 668.1871,-1006.4967 660.4344,-999.2755 657.6233,-1005.6863"/>
</g>
<!-- Node38&#45;&gt;Node4 -->
<g id="edge116" class="edge">
<title>Node38&#45;&gt;Node4</title>
<path fill="none" stroke="#191970" d="M187.1705,-785.2764C188.3255,-726.9129 196.5725,-436.0047 247,-365.5 275.6763,-325.4064 298.5451,-328.8363 346,-315.5 519.1391,-266.8427 612.8479,-176.1643 750,-292.5 777.9633,-316.2191 804.1416,-577.6385 811.1645,-653.174"/>
<polygon fill="#191970" stroke="#191970" points="807.6926,-653.6418 812.0922,-663.28 814.6633,-653.0018 807.6926,-653.6418"/>
</g>
<!-- Node38&#45;&gt;Node6 -->
<g id="edge117" class="edge">
<title>Node38&#45;&gt;Node6</title>
<path fill="none" stroke="#191970" d="M187.0157,-805.6167C187.2539,-924.6916 190.9898,-2057.2888 247,-2193.5 271.8885,-2254.0263 286.1569,-2276.0109 346,-2302.5 411.432,-2331.463 436.7483,-2316.0975 507,-2302.5 565.3985,-2291.1968 628.7724,-2261.4494 663.8116,-2243.2989"/>
<polygon fill="#191970" stroke="#191970" points="665.6933,-2246.2639 672.9155,-2238.512 662.4355,-2240.0682 665.6933,-2246.2639"/>
</g>
<!-- Node38&#45;&gt;Node24 -->
<g id="edge114" class="edge">
<title>Node38&#45;&gt;Node24</title>
<path fill="none" stroke="#191970" d="M187.229,-785.3485C188.4854,-744.6516 196.5161,-590.041 247,-476.5 276.5058,-410.1398 280.9241,-378.7398 346,-346.5 445.5913,-297.1606 488.3266,-324.9459 596,-352.5 620.5917,-358.7931 646.6248,-371.3147 665.208,-381.3962"/>
<polygon fill="#191970" stroke="#191970" points="663.7596,-384.5956 674.1996,-386.3998 667.1634,-378.4788 663.7596,-384.5956"/>
</g>
<!-- Node38&#45;&gt;Node27 -->
<g id="edge113" class="edge">
<title>Node38&#45;&gt;Node27</title>
<path fill="none" stroke="#191970" d="M187.582,-785.3552C190.4973,-738.2023 205.0731,-540.994 247,-499.5 286.4267,-460.4804 506.3852,-480.1814 507,-480.5 531.6343,-493.2644 524.8186,-510.5426 543,-531.5 545.2382,-534.0799 547.7112,-536.6838 550.2205,-539.1867"/>
<polygon fill="#191970" stroke="#191970" points="548.0022,-541.9074 557.6582,-546.2678 552.829,-536.8376 548.0022,-541.9074"/>
</g>
<!-- Node38&#45;&gt;Node28 -->
<g id="edge115" class="edge">
<title>Node38&#45;&gt;Node28</title>
<path fill="none" stroke="#191970" d="M197.6797,-785.1785C222.0838,-762.0822 284.5821,-705.6634 346,-672.5 409.9897,-637.9479 492.4759,-614.3368 537.1948,-603.0746"/>
<polygon fill="#191970" stroke="#191970" points="538.0627,-606.4655 546.9308,-600.6683 536.3831,-599.67 538.0627,-606.4655"/>
</g>
<!-- Node39 -->
<g id="node39" class="node">
<title>Node39</title>
<g id="a_node39"><a xlink:href="../../d1/d2f/lflav_8F.html#a2f0e84e9b484d85d15f8ac53db3fc90c" target="_top" xlink:title="lflav">
<polygon fill="none" stroke="#000000" points="550.5,-777.5 550.5,-797.5 588.5,-797.5 588.5,-777.5 550.5,-777.5"/>
<text text-anchor="middle" x="569.5" y="-784.5" font-family="FreeSans" font-size="10.00" fill="#000000">lflav</text>
</a>
</g>
</g>
<!-- Node38&#45;&gt;Node39 -->
<g id="edge99" class="edge">
<title>Node38&#45;&gt;Node39</title>
<path fill="none" stroke="#191970" d="M206.2304,-795.0978C268.6077,-793.7932 465.5971,-789.6731 540.3471,-788.1097"/>
<polygon fill="#191970" stroke="#191970" points="540.5336,-791.6067 550.4582,-787.8983 540.3872,-784.6082 540.5336,-791.6067"/>
</g>
<!-- Node40 -->
<g id="node40" class="node">
<title>Node40</title>
<g id="a_node40"><a xlink:href="../../d1/dd6/lu2ent_8f.html#af39d115696df4bbd1a85af522582079b" target="_top" xlink:title="lu2ent">
<polygon fill="none" stroke="#ff0000" points="254,-1108.5 254,-1128.5 303,-1128.5 303,-1108.5 254,-1108.5"/>
<text text-anchor="middle" x="278.5" y="-1115.5" font-family="FreeSans" font-size="10.00" fill="#000000">lu2ent</text>
</a>
</g>
</g>
<!-- Node38&#45;&gt;Node40 -->
<g id="edge104" class="edge">
<title>Node38&#45;&gt;Node40</title>
<path fill="none" stroke="#191970" d="M188.2749,-805.9525C192.9279,-842.2622 210.6568,-965.9203 247,-1061.5 252.0971,-1074.9051 259.8766,-1089.0199 266.4288,-1099.8501"/>
<polygon fill="#191970" stroke="#191970" points="263.5121,-1101.7874 271.7727,-1108.4217 269.4522,-1098.084 263.5121,-1101.7874"/>
</g>
<!-- Node42 -->
<g id="node42" class="node">
<title>Node42</title>
<g id="a_node42"><a xlink:href="../../d3/dda/lu1ent_8f.html#a86278289cc543712468eeffdc4735d47" target="_top" xlink:title="lu1ent">
<polygon fill="none" stroke="#ff0000" points="254,-1032.5 254,-1052.5 303,-1052.5 303,-1032.5 254,-1032.5"/>
<text text-anchor="middle" x="278.5" y="-1039.5" font-family="FreeSans" font-size="10.00" fill="#000000">lu1ent</text>
</a>
</g>
</g>
<!-- Node38&#45;&gt;Node42 -->
<g id="edge118" class="edge">
<title>Node38&#45;&gt;Node42</title>
<path fill="none" stroke="#191970" d="M190.8151,-805.7988C204.7112,-843.3106 252.7678,-973.0372 271.2129,-1022.8287"/>
<polygon fill="#191970" stroke="#191970" points="268.0138,-1024.2686 274.7696,-1032.43 274.5778,-1021.8369 268.0138,-1024.2686"/>
</g>
<!-- Node39&#45;&gt;Node3 -->
<g id="edge101" class="edge">
<title>Node39&#45;&gt;Node3</title>
<path fill="none" stroke="#191970" d="M574.8775,-797.6353C593.6178,-832.9566 656.2466,-950.9976 680.9028,-997.4691"/>
<polygon fill="#191970" stroke="#191970" points="677.9059,-999.2885 685.6846,-1006.4817 684.0895,-996.0076 677.9059,-999.2885"/>
</g>
<!-- Node39&#45;&gt;Node5 -->
<g id="edge100" class="edge">
<title>Node39&#45;&gt;Node5</title>
<path fill="none" stroke="#191970" d="M588.7548,-783.5305C625.6646,-777.1573 706.5589,-769.3698 750,-812.5 779.7304,-842.0175 805.0998,-1142.7911 811.4643,-1224.2489"/>
<polygon fill="#191970" stroke="#191970" points="807.9759,-1224.5352 812.2347,-1234.2364 814.9552,-1223.9968 807.9759,-1224.5352"/>
</g>
<!-- Node39&#45;&gt;Node15 -->
<g id="edge102" class="edge">
<title>Node39&#45;&gt;Node15</title>
<path fill="none" stroke="#191970" d="M582.943,-797.6377C618.0983,-825.0577 712.6191,-904.825 750,-996.5 788.8645,-1091.8135 809.201,-1855.7522 812.5148,-1991.0543"/>
<polygon fill="#191970" stroke="#191970" points="809.0205,-1991.3381 812.7612,-2001.2506 816.0185,-1991.1689 809.0205,-1991.3381"/>
</g>
<!-- Node40&#45;&gt;Node3 -->
<g id="edge112" class="edge">
<title>Node40&#45;&gt;Node3</title>
<path fill="none" stroke="#191970" d="M303.0684,-1112.4249C372.9273,-1095.1507 572.9443,-1045.692 655.1054,-1025.3758"/>
<polygon fill="#191970" stroke="#191970" points="656.1139,-1028.7319 664.9813,-1022.9337 654.4335,-1021.9365 656.1139,-1028.7319"/>
</g>
<!-- Node40&#45;&gt;Node4 -->
<g id="edge106" class="edge">
<title>Node40&#45;&gt;Node4</title>
<path fill="none" stroke="#191970" d="M289.8821,-1108.3814C303.2332,-1096.5521 326.0771,-1076.4352 346,-1059.5 517.0428,-914.1077 727.4641,-742.8637 792.733,-689.9183"/>
<polygon fill="#191970" stroke="#191970" points="795.0667,-692.5321 800.6299,-683.5154 790.658,-687.0949 795.0667,-692.5321"/>
</g>
<!-- Node40&#45;&gt;Node23 -->
<g id="edge105" class="edge">
<title>Node40&#45;&gt;Node23</title>
<path fill="none" stroke="#191970" d="M300.9683,-1128.562C355.3871,-1153.6013 497.0559,-1222.8375 596,-1307.5 628.8339,-1335.5947 660.4678,-1375.1939 677.6682,-1398.1207"/>
<polygon fill="#191970" stroke="#191970" points="674.9618,-1400.3475 683.7239,-1406.3037 680.5886,-1396.1834 674.9618,-1400.3475"/>
</g>
<!-- Node40&#45;&gt;Node41 -->
<g id="edge107" class="edge">
<title>Node40&#45;&gt;Node41</title>
<path fill="none" stroke="#191970" d="M284.8185,-1128.6248C295.9458,-1146.028 320.304,-1182.2706 346,-1208.5 363.5559,-1226.4203 386.2687,-1243.7592 403.0903,-1255.6947"/>
<polygon fill="#191970" stroke="#191970" points="401.0879,-1258.5653 411.2915,-1261.4181 405.094,-1252.825 401.0879,-1258.5653"/>
</g>
<!-- Node41&#45;&gt;Node4 -->
<g id="edge109" class="edge">
<title>Node41&#45;&gt;Node4</title>
<path fill="none" stroke="#191970" d="M451.3925,-1261.3469C513.3557,-1234.6698 674.9139,-1156.2225 750,-1035.5 786.2284,-977.2525 806.0483,-761.3979 811.4612,-693.8455"/>
<polygon fill="#191970" stroke="#191970" points="814.9666,-693.9121 812.2564,-683.6698 807.9879,-693.3667 814.9666,-693.9121"/>
</g>
<!-- Node41&#45;&gt;Node22 -->
<g id="edge111" class="edge">
<title>Node41&#45;&gt;Node22</title>
<path fill="none" stroke="#191970" d="M448.9877,-1281.682C467.5656,-1291.3023 493.0697,-1307.5345 507,-1329.5 540.9494,-1383.0321 561.7672,-1581.2752 567.7234,-1645.3699"/>
<polygon fill="#191970" stroke="#191970" points="564.2444,-1645.7615 568.6351,-1655.4037 571.2157,-1645.128 564.2444,-1645.7615"/>
</g>
<!-- Node41&#45;&gt;Node23 -->
<g id="edge108" class="edge">
<title>Node41&#45;&gt;Node23</title>
<path fill="none" stroke="#191970" d="M451.1338,-1278.1186C467.2399,-1282.697 488.6211,-1289.253 507,-1296.5 547.868,-1312.6148 558.911,-1315.9567 596,-1339.5 624.5728,-1357.6374 654.3975,-1383.0434 672.8359,-1399.6329"/>
<polygon fill="#191970" stroke="#191970" points="670.4817,-1402.2228 680.2326,-1406.3665 675.194,-1397.0465 670.4817,-1402.2228"/>
</g>
<!-- Node41&#45;&gt;Node29 -->
<g id="edge110" class="edge">
<title>Node41&#45;&gt;Node29</title>
<path fill="none" stroke="#191970" d="M451.0371,-1275.8622C467.6898,-1279.5797 489.7332,-1286.0262 507,-1296.5 526.4174,-1308.2783 544.1955,-1327.3804 555.7843,-1341.467"/>
<polygon fill="#191970" stroke="#191970" points="553.1943,-1343.8333 562.1594,-1349.4794 558.672,-1339.4749 553.1943,-1343.8333"/>
</g>
<!-- Node42&#45;&gt;Node3 -->
<g id="edge122" class="edge">
<title>Node42&#45;&gt;Node3</title>
<path fill="none" stroke="#191970" d="M303.1133,-1036.0325C356.3578,-1022.7849 486.2909,-994.4596 596,-1002.5 615.5973,-1003.9363 637.2873,-1007.0177 654.9886,-1009.925"/>
<polygon fill="#191970" stroke="#191970" points="654.4601,-1013.3853 664.904,-1011.6029 655.6281,-1006.4834 654.4601,-1013.3853"/>
</g>
<!-- Node42&#45;&gt;Node4 -->
<g id="edge120" class="edge">
<title>Node42&#45;&gt;Node4</title>
<path fill="none" stroke="#191970" d="M281.4627,-1032.331C302.6401,-960.4053 433.3245,-529.2267 543,-458.5 585.9801,-430.7833 693.978,-434.2177 750,-481.5 776.8158,-504.1324 800.1923,-608.6358 809.1299,-653.2366"/>
<polygon fill="#191970" stroke="#191970" points="805.7246,-654.0598 811.0844,-663.1989 812.5936,-652.7121 805.7246,-654.0598"/>
</g>
<!-- Node42&#45;&gt;Node23 -->
<g id="edge119" class="edge">
<title>Node42&#45;&gt;Node23</title>
<path fill="none" stroke="#191970" d="M303.301,-1049.6459C347.6945,-1063.3268 442.1504,-1096.5555 507,-1148.5 597.0789,-1220.6532 660.6558,-1348.5428 682.5917,-1397.0827"/>
<polygon fill="#191970" stroke="#191970" points="679.4858,-1398.7125 686.7419,-1406.4326 685.8838,-1395.8725 679.4858,-1398.7125"/>
</g>
<!-- Node42&#45;&gt;Node41 -->
<g id="edge121" class="edge">
<title>Node42&#45;&gt;Node41</title>
<path fill="none" stroke="#191970" d="M285.0503,-1052.6353C307.9738,-1088.1047 384.8073,-1206.989 414.5759,-1253.0498"/>
<polygon fill="#191970" stroke="#191970" points="411.6578,-1254.9829 420.0253,-1261.4817 417.5368,-1251.1833 411.6578,-1254.9829"/>
</g>
<!-- Node43&#45;&gt;Node3 -->
<g id="edge131" class="edge">
<title>Node43&#45;&gt;Node3</title>
<path fill="none" stroke="#191970" d="M300.7456,-524.4427C357.3372,-537.0451 502.6377,-569.5913 507,-572.5 521.1102,-581.9085 588.5385,-681.2703 596,-696.5 648.3775,-803.4077 677.8672,-944.7951 687.4746,-996.4854"/>
<polygon fill="#191970" stroke="#191970" points="684.0384,-997.1526 689.2695,-1006.366 690.9257,-995.9014 684.0384,-997.1526"/>
</g>
<!-- Node43&#45;&gt;Node4 -->
<g id="edge135" class="edge">
<title>Node43&#45;&gt;Node4</title>
<path fill="none" stroke="#191970" d="M280.9375,-509.1135C289.2236,-474.7862 317.3837,-366.052 346,-346.5 494.6631,-244.9261 619.2687,-252.6966 750,-376.5 790.4488,-414.8053 807.0524,-592.3384 811.6118,-653.0657"/>
<polygon fill="#191970" stroke="#191970" points="808.1382,-653.5599 812.3464,-663.2831 815.1201,-653.0578 808.1382,-653.5599"/>
</g>
<!-- Node43&#45;&gt;Node24 -->
<g id="edge133" class="edge">
<title>Node43&#45;&gt;Node24</title>
<path fill="none" stroke="#191970" d="M279.9113,-509.1649C284.1755,-482.4807 299.6211,-411.3518 346,-382.5 443.7973,-321.6614 589.1332,-360.0319 655.5596,-382.9624"/>
<polygon fill="#191970" stroke="#191970" points="654.5539,-386.3191 665.1486,-386.3562 656.8894,-379.7202 654.5539,-386.3191"/>
</g>
<!-- Node43&#45;&gt;Node27 -->
<g id="edge132" class="edge">
<title>Node43&#45;&gt;Node27</title>
<path fill="none" stroke="#191970" d="M300.5761,-510.6275C342.5194,-495.1821 435.8864,-467.6288 507,-496.5 527.6763,-504.8943 526.8835,-516.0652 543,-531.5 545.558,-533.9499 548.265,-536.5242 550.9333,-539.0513"/>
<polygon fill="#191970" stroke="#191970" points="548.9598,-542.0014 558.6349,-546.3194 553.7643,-536.9104 548.9598,-542.0014"/>
</g>
<!-- Node43&#45;&gt;Node28 -->
<g id="edge134" class="edge">
<title>Node43&#45;&gt;Node28</title>
<path fill="none" stroke="#191970" d="M300.6999,-515.6156C343.2521,-509.28 438.1761,-500.5814 507,-534.5 528.7516,-545.2199 525.2299,-558.9993 543,-575.5 544.2777,-576.6864 545.6234,-577.8717 547.0033,-579.0396"/>
<polygon fill="#191970" stroke="#191970" points="545.0357,-581.9464 555.0435,-585.4243 549.3889,-576.4646 545.0357,-581.9464"/>
</g>
<!-- Node43&#45;&gt;Node39 -->
<g id="edge130" class="edge">
<title>Node43&#45;&gt;Node39</title>
<path fill="none" stroke="#191970" d="M289.5522,-529.6787C333.3965,-570.0576 495.3789,-719.2373 550.7781,-770.2578"/>
<polygon fill="#191970" stroke="#191970" points="548.7099,-773.1113 558.4368,-777.3112 553.452,-767.9622 548.7099,-773.1113"/>
</g>
<!-- Node44 -->
<g id="node44" class="node">
<title>Node44</title>
<g id="a_node44"><a xlink:href="../../d7/dc0/lxp_8F.html#a48c1ad848298468cd3e394bccf6f5c0c" target="_top" xlink:title="lxp">
<polygon fill="none" stroke="#000000" points="410.5,-1493.5 410.5,-1513.5 442.5,-1513.5 442.5,-1493.5 410.5,-1493.5"/>
<text text-anchor="middle" x="426.5" y="-1500.5" font-family="FreeSans" font-size="10.00" fill="#000000">lxp</text>
</a>
</g>
</g>
<!-- Node43&#45;&gt;Node44 -->
<g id="edge124" class="edge">
<title>Node43&#45;&gt;Node44</title>
<path fill="none" stroke="#191970" d="M279.3884,-529.5042C283.2056,-572.5784 298.5407,-746.5161 310,-889.5 327.0552,-1102.307 281.615,-1164.9509 346,-1368.5 360.4392,-1414.1485 392.8989,-1460.638 411.8955,-1485.3736"/>
<polygon fill="#191970" stroke="#191970" points="409.3064,-1487.7442 418.2268,-1493.4606 414.8182,-1483.429 409.3064,-1487.7442"/>
</g>
<!-- Node44&#45;&gt;Node5 -->
<g id="edge128" class="edge">
<title>Node44&#45;&gt;Node5</title>
<path fill="none" stroke="#191970" d="M442.8546,-1505.3837C495.1469,-1510.4396 660.1015,-1518.7561 750,-1435.5 775.6243,-1411.769 799.6714,-1308.4946 808.9591,-1264.4835"/>
<polygon fill="#191970" stroke="#191970" points="812.3937,-1265.1576 810.9944,-1254.6556 805.5392,-1263.738 812.3937,-1265.1576"/>
</g>
<!-- Node44&#45;&gt;Node23 -->
<g id="edge127" class="edge">
<title>Node44&#45;&gt;Node23</title>
<path fill="none" stroke="#191970" d="M442.5425,-1498.5369C458.7935,-1493.5049 484.6517,-1485.4857 507,-1478.5 546.5784,-1466.1285 556.6939,-1463.7112 596,-1450.5 620.2091,-1442.3631 647.6566,-1432.4665 666.8015,-1425.4537"/>
<polygon fill="#191970" stroke="#191970" points="668.0743,-1428.7149 676.2523,-1421.9791 665.6588,-1422.1448 668.0743,-1428.7149"/>
</g>
<!-- Node44&#45;&gt;Node30 -->
<g id="edge126" class="edge">
<title>Node44&#45;&gt;Node30</title>
<path fill="none" stroke="#191970" d="M442.5682,-1506.1189C459.5284,-1509.4058 486.5806,-1516.1694 507,-1528.5 526.3697,-1540.1967 522.095,-1555.8409 543,-1564.5 578.219,-1579.0882 622.1005,-1572.4996 652.9043,-1564.3234"/>
<polygon fill="#191970" stroke="#191970" points="654.1488,-1567.6087 662.818,-1561.518 652.2428,-1560.8732 654.1488,-1567.6087"/>
</g>
<!-- Node44&#45;&gt;Node34 -->
<g id="edge125" class="edge">
<title>Node44&#45;&gt;Node34</title>
<path fill="none" stroke="#191970" d="M434.9273,-1513.8141C451.9449,-1535.2914 490.2161,-1587.0248 507,-1637.5 557.039,-1787.9856 465.2118,-1854.3015 543,-1992.5 543.5372,-1993.4543 544.1406,-1994.3772 544.7974,-1995.268"/>
<polygon fill="#191970" stroke="#191970" points="542.3021,-1997.7223 551.8068,-2002.4033 547.2958,-1992.8168 542.3021,-1997.7223"/>
</g>
<!-- Node44&#45;&gt;Node35 -->
<g id="edge129" class="edge">
<title>Node44&#45;&gt;Node35</title>
<path fill="none" stroke="#191970" d="M434.3626,-1513.5959C450.6692,-1535.0765 488.2112,-1587.4463 507,-1637.5 538.8939,-1722.466 526.2588,-1749.3026 543,-1838.5 550.6718,-1879.3757 560.1672,-1927.1023 565.4562,-1953.4495"/>
<polygon fill="#191970" stroke="#191970" points="562.0443,-1954.2366 567.4478,-1963.35 568.9068,-1952.8561 562.0443,-1954.2366"/>
</g>
<!-- Node45&#45;&gt;Node3 -->
<g id="edge139" class="edge">
<title>Node45&#45;&gt;Node3</title>
<path fill="none" stroke="#191970" d="M296.0403,-919.5488C309.3755,-926.8202 328.3715,-936.4025 346,-942.5 375.1818,-952.5936 572.4063,-992.6913 654.8695,-1009.2692"/>
<polygon fill="#191970" stroke="#191970" points="654.305,-1012.7256 664.7984,-1011.263 655.6832,-1005.8626 654.305,-1012.7256"/>
</g>
<!-- Node45&#45;&gt;Node4 -->
<g id="edge142" class="edge">
<title>Node45&#45;&gt;Node4</title>
<path fill="none" stroke="#191970" d="M293.9552,-899.4429C307.5757,-890.6305 327.9965,-877.5416 346,-866.5 416.8247,-823.063 440.5998,-821.4392 507,-771.5 568.0579,-725.5787 561.0027,-681.7174 632,-653.5 680.0699,-634.395 740.6301,-647.8809 778.0788,-660.1022"/>
<polygon fill="#191970" stroke="#191970" points="777.4043,-663.5701 787.9989,-663.4875 779.6652,-656.9453 777.4043,-663.5701"/>
</g>
<!-- Node45&#45;&gt;Node5 -->
<g id="edge141" class="edge">
<title>Node45&#45;&gt;Node5</title>
<path fill="none" stroke="#191970" d="M304.093,-910.5929C392.8209,-914.9125 685.3332,-933.7511 750,-996.5 782.9689,-1028.4911 803.7871,-1170.6636 810.5687,-1224.1038"/>
<polygon fill="#191970" stroke="#191970" points="807.1353,-1224.8596 811.834,-1234.3555 814.0826,-1224.0021 807.1353,-1224.8596"/>
</g>
<!-- Node45&#45;&gt;Node13 -->
<g id="edge140" class="edge">
<title>Node45&#45;&gt;Node13</title>
<path fill="none" stroke="#191970" d="M282.1429,-919.6126C289.0045,-939.1762 303.7184,-983.6987 310,-1022.5 362.055,-1344.0401 273.4945,-1436.9457 346,-1754.5 386.9202,-1933.7192 460.4964,-1957.6478 507,-2135.5 543.3165,-2274.3917 521.2538,-2314.5955 543,-2456.5 549.3448,-2497.9027 559.3184,-2545.9021 565.049,-2572.3699"/>
<polygon fill="#191970" stroke="#191970" points="561.6676,-2573.2909 567.2222,-2582.3129 568.5061,-2571.7962 561.6676,-2573.2909"/>
</g>
<!-- Node45&#45;&gt;Node24 -->
<g id="edge144" class="edge">
<title>Node45&#45;&gt;Node24</title>
<path fill="none" stroke="#191970" d="M279.325,-899.2202C284.5646,-835.0778 314.0086,-491.441 346,-458.5 424.8597,-377.2994 571.2515,-381.3645 645.4119,-389.6585"/>
<polygon fill="#191970" stroke="#191970" points="645.0379,-393.1386 655.3823,-390.8484 645.8676,-386.1879 645.0379,-393.1386"/>
</g>
<!-- Node45&#45;&gt;Node27 -->
<g id="edge143" class="edge">
<title>Node45&#45;&gt;Node27</title>
<path fill="none" stroke="#191970" d="M280.3497,-899.3837C287.8252,-859.3725 316.8036,-712.6033 346,-676.5 396.8039,-613.6776 489.5677,-579.2701 538.065,-564.8138"/>
<polygon fill="#191970" stroke="#191970" points="539.0742,-568.1654 547.7108,-562.0287 537.1323,-561.4401 539.0742,-568.1654"/>
</g>
<!-- Node45&#45;&gt;Node28 -->
<g id="edge145" class="edge">
<title>Node45&#45;&gt;Node28</title>
<path fill="none" stroke="#191970" d="M288.043,-899.3211C301.0556,-885.4739 325.1358,-859.9645 346,-838.5 416.7531,-765.7113 443.4228,-755.6337 507,-676.5 525.5315,-653.434 524.0994,-643.2645 543,-620.5 545.1818,-617.8722 547.6222,-615.2407 550.1151,-612.7239"/>
<polygon fill="#191970" stroke="#191970" points="552.7251,-615.0712 557.545,-605.6362 547.8934,-610.0061 552.7251,-615.0712"/>
</g>
<!-- Node45&#45;&gt;Node39 -->
<g id="edge138" class="edge">
<title>Node45&#45;&gt;Node39</title>
<path fill="none" stroke="#191970" d="M304.1863,-910.8548C349.147,-911.9694 443.3687,-908.5906 507,-866.5 531.0575,-850.5865 524.3902,-834.538 543,-812.5 545.2036,-809.8905 547.6566,-807.2695 550.1559,-804.758"/>
<polygon fill="#191970" stroke="#191970" points="552.7653,-807.106 557.5888,-797.6728 547.9355,-802.0391 552.7653,-807.106"/>
</g>
<!-- Node45&#45;&gt;Node44 -->
<g id="edge137" class="edge">
<title>Node45&#45;&gt;Node44</title>
<path fill="none" stroke="#191970" d="M281.9511,-919.6463C288.485,-939.2676 302.6629,-983.8844 310,-1022.5 338.8599,-1174.3905 297.2654,-1221.7739 346,-1368.5 361.0917,-1413.9369 393.3096,-1460.5049 412.0893,-1485.3107"/>
<polygon fill="#191970" stroke="#191970" points="409.4658,-1487.6403 418.3436,-1493.4227 415.0095,-1483.3661 409.4658,-1487.6403"/>
</g>
<!-- Node46&#45;&gt;Node6 -->
<g id="edge155" class="edge">
<title>Node46&#45;&gt;Node6</title>
<path fill="none" stroke="#191970" d="M279.5812,-1725.8122C284.8693,-1774.7174 309.251,-1983.0813 346,-2035.5 394.3549,-2104.4733 452.0966,-2071.6164 507,-2135.5 533.4741,-2166.3043 509.7854,-2196.1212 543,-2219.5 576.3354,-2242.9639 625.0627,-2240.8423 657.3828,-2235.8107"/>
<polygon fill="#191970" stroke="#191970" points="658.0017,-2239.2557 667.2595,-2234.1036 656.8094,-2232.358 658.0017,-2239.2557"/>
</g>
<!-- Node46&#45;&gt;Node15 -->
<g id="edge151" class="edge">
<title>Node46&#45;&gt;Node15</title>
<path fill="none" stroke="#191970" d="M287.1994,-1725.7593C300.0186,-1740.8594 324.7613,-1769.9371 346,-1794.5 417.0731,-1876.6974 440.5702,-1892.5065 507,-1978.5 524.4082,-2001.0349 517.8358,-2018.1723 543,-2031.5 620.4594,-2072.5247 728.3392,-2043.1685 781.2181,-2024.1994"/>
<polygon fill="#191970" stroke="#191970" points="782.5671,-2027.4323 790.7339,-2020.6829 780.1406,-2020.8663 782.5671,-2027.4323"/>
</g>
<!-- Node46&#45;&gt;Node21 -->
<g id="edge152" class="edge">
<title>Node46&#45;&gt;Node21</title>
<path fill="none" stroke="#191970" d="M293.5014,-1725.5809C306.8311,-1734.1886 327.0799,-1746.4232 346,-1754.5 411.5447,-1782.4803 492.8533,-1802.7577 537.0985,-1812.6659"/>
<polygon fill="#191970" stroke="#191970" points="536.4789,-1816.1133 546.9979,-1814.8476 537.9855,-1809.2773 536.4789,-1816.1133"/>
</g>
<!-- Node46&#45;&gt;Node22 -->
<g id="edge153" class="edge">
<title>Node46&#45;&gt;Node22</title>
<path fill="none" stroke="#191970" d="M302.1911,-1711.4979C343.6958,-1704.4773 432.255,-1689.4561 507,-1676.5 515.5827,-1675.0123 524.8254,-1673.3943 533.5018,-1671.8684"/>
<polygon fill="#191970" stroke="#191970" points="534.1124,-1675.3148 543.3535,-1670.1328 532.8978,-1668.421 534.1124,-1675.3148"/>
</g>
<!-- Node46&#45;&gt;Node25 -->
<g id="edge154" class="edge">
<title>Node46&#45;&gt;Node25</title>
<path fill="none" stroke="#191970" d="M302.2788,-1718.7133C326.6236,-1722.0032 364.6991,-1727.1485 392.2816,-1730.8759"/>
<polygon fill="#191970" stroke="#191970" points="391.9099,-1734.3574 402.2886,-1732.2282 392.8474,-1727.4204 391.9099,-1734.3574"/>
</g>
<!-- Node46&#45;&gt;Node26 -->
<g id="edge156" class="edge">
<title>Node46&#45;&gt;Node26</title>
<path fill="none" stroke="#191970" d="M283.5511,-1705.1644C290.5268,-1690.4717 303.0352,-1662.5452 310,-1637.5 337.1331,-1539.9306 294.5677,-1499.7394 346,-1412.5 358.1266,-1391.9308 379.7427,-1375.5805 397.5237,-1364.6962"/>
<polygon fill="#191970" stroke="#191970" points="399.5331,-1367.5759 406.4019,-1359.5093 396.0019,-1361.5318 399.5331,-1367.5759"/>
</g>
<!-- Node46&#45;&gt;Node29 -->
<g id="edge157" class="edge">
<title>Node46&#45;&gt;Node29</title>
<path fill="none" stroke="#191970" d="M283.4414,-1705.133C290.2868,-1690.4029 302.6412,-1662.4323 310,-1637.5 333.959,-1556.3247 288.4877,-1512.595 346,-1450.5 396.4062,-1396.0773 440.3927,-1439.151 507,-1406.5 523.0877,-1398.6138 539.1978,-1386.3684 551.0321,-1376.3538"/>
<polygon fill="#191970" stroke="#191970" points="553.5967,-1378.7612 558.8321,-1369.5502 548.9954,-1373.486 553.5967,-1378.7612"/>
</g>
<!-- Node46&#45;&gt;Node31 -->
<g id="edge158" class="edge">
<title>Node46&#45;&gt;Node31</title>
<path fill="none" stroke="#191970" d="M297.0628,-1705.4641C310.4306,-1698.4761 329.0267,-1689.2384 346,-1682.5 360.8851,-1676.5906 377.755,-1671.1649 392.1924,-1666.8893"/>
<polygon fill="#191970" stroke="#191970" points="393.5797,-1670.1315 402.212,-1663.9888 391.6332,-1663.4076 393.5797,-1670.1315"/>
</g>
<!-- Node46&#45;&gt;Node32 -->
<g id="edge159" class="edge">
<title>Node46&#45;&gt;Node32</title>
<path fill="none" stroke="#191970" d="M280.0012,-1725.7134C286.5331,-1769.0338 313.6103,-1937.255 346,-1978.5 396.1039,-2042.3023 447.9657,-2008.8575 507,-2064.5 532.311,-2088.3568 551.2538,-2124.6535 561.328,-2146.9033"/>
<polygon fill="#191970" stroke="#191970" points="558.2274,-2148.5489 565.4371,-2156.3123 564.6423,-2145.7473 558.2274,-2148.5489"/>
</g>
<!-- Node47&#45;&gt;Node4 -->
<g id="edge161" class="edge">
<title>Node47&#45;&gt;Node4</title>
<path fill="none" stroke="#191970" d="M707.2007,-673.5C724.6253,-673.5 752.9192,-673.5 775.8648,-673.5"/>
<polygon fill="#191970" stroke="#191970" points="775.9728,-677.0001 785.9727,-673.5 775.9727,-670.0001 775.9728,-677.0001"/>
</g>
<!-- Node47&#45;&gt;Node5 -->
<g id="edge162" class="edge">
<title>Node47&#45;&gt;Node5</title>
<path fill="none" stroke="#191970" d="M707.0148,-675.7664C720.7194,-678.6044 739.802,-684.8726 750,-698.5 782.1061,-741.4029 806.3747,-1129.4035 811.8402,-1223.8471"/>
<polygon fill="#191970" stroke="#191970" points="808.3604,-1224.3021 812.4252,-1234.0862 815.349,-1223.9028 808.3604,-1224.3021"/>
</g>
<!-- Node48&#45;&gt;Node3 -->
<g id="edge165" class="edge">
<title>Node48&#45;&gt;Node3</title>
<path fill="none" stroke="#191970" d="M575.1483,-488.8933C581.1189,-500.2772 590.4271,-519.2205 596,-536.5 610.5049,-581.4742 671.5649,-910.8936 687.2926,-996.314"/>
<polygon fill="#191970" stroke="#191970" points="683.8773,-997.0943 689.1285,-1006.2962 690.7618,-995.828 683.8773,-997.0943"/>
</g>
<!-- Node48&#45;&gt;Node4 -->
<g id="edge166" class="edge">
<title>Node48&#45;&gt;Node4</title>
<path fill="none" stroke="#191970" d="M592.6501,-479.5802C630.1049,-482.5054 704.3884,-493.3454 750,-533.5 786.5253,-565.6554 802.9961,-623.1553 809.4394,-653.4928"/>
<polygon fill="#191970" stroke="#191970" points="806.0128,-654.2077 811.3781,-663.3436 812.8811,-652.8559 806.0128,-654.2077"/>
</g>
<!-- Node48&#45;&gt;Node5 -->
<g id="edge167" class="edge">
<title>Node48&#45;&gt;Node5</title>
<path fill="none" stroke="#191970" d="M581.8713,-488.5442C619.2631,-519.1825 729.777,-611.8881 750,-653.5 800.4978,-757.4071 810.856,-1131.7121 812.659,-1223.8826"/>
<polygon fill="#191970" stroke="#191970" points="809.1638,-1224.183 812.8459,-1234.1175 816.1626,-1224.0552 809.1638,-1224.183"/>
</g>
<!-- Node48&#45;&gt;Node49 -->
<g id="edge164" class="edge">
<title>Node48&#45;&gt;Node49</title>
<path fill="none" stroke="#191970" d="M572.1507,-468.4208C587.1087,-411.5436 661.1102,-130.1551 684.1441,-42.5695"/>
<polygon fill="#191970" stroke="#191970" points="687.5937,-43.2133 686.7523,-32.6519 680.8239,-41.4329 687.5937,-43.2133"/>
</g>
<!-- Node50&#45;&gt;Node7 -->
<g id="edge171" class="edge">
<title>Node50&#45;&gt;Node7</title>
<path fill="none" stroke="#191970" d="M451.0697,-2783.3169C519.3522,-2779.4959 709.0703,-2765.0887 750,-2721.5 782.3356,-2687.0637 806.1391,-2345.3961 811.7405,-2257.8512"/>
<polygon fill="#191970" stroke="#191970" points="815.2476,-2257.8475 812.384,-2247.6471 808.2614,-2257.4069 815.2476,-2257.8475"/>
</g>
<!-- Node50&#45;&gt;Node13 -->
<g id="edge172" class="edge">
<title>Node50&#45;&gt;Node13</title>
<path fill="none" stroke="#191970" d="M451.1857,-2782.5316C468.7774,-2779.9006 491.8932,-2773.7693 507,-2759.5 549.4417,-2719.411 563.2701,-2647.7572 567.6099,-2612.801"/>
<polygon fill="#191970" stroke="#191970" points="571.0924,-2613.151 568.7097,-2602.8276 564.1346,-2612.3837 571.0924,-2613.151"/>
</g>
</g>
</svg>
