<?xml version="1.0" encoding="UTF-8" standalone="no"?>
<!DOCTYPE svg PUBLIC "-//W3C//DTD SVG 1.1//EN"
 "http://www.w3.org/Graphics/SVG/1.1/DTD/svg11.dtd">
<!-- Generated by graphviz version 2.40.1 (20161225.0304)
 -->
<!-- Title: fun4all_g4jleic/blob/master/macros/GlobalVariables.C Pages: 1 -->
<svg width="1925pt" height="284pt"
 viewBox="0.00 0.00 1924.50 284.00" xmlns="http://www.w3.org/2000/svg" xmlns:xlink="http://www.w3.org/1999/xlink">
<g id="graph0" class="graph" transform="scale(1 1) rotate(0) translate(4 280)">
<title>fun4all_g4jleic/blob/master/macros/GlobalVariables.C</title>
<!-- Node1 -->
<g id="node1" class="node">
<title>Node1</title>
<polygon fill="#bfbfbf" stroke="#000000" points="846,-243.5 846,-275.5 1035,-275.5 1035,-243.5 846,-243.5"/>
<text text-anchor="start" x="854" y="-262.5" font-family="FreeSans" font-size="10.00" fill="#000000">fun4all_g4jleic/blob</text>
<text text-anchor="middle" x="940.5" y="-250.5" font-family="FreeSans" font-size="10.00" fill="#000000">/master/macros/GlobalVariables.C</text>
</g>
<!-- Node2 -->
<g id="node2" class="node">
<title>Node2</title>
<g id="a_node2"><a xlink:href="../../da/d98/fun4all__g4jleic_2blob_2master_2macros_2G4__Pipe_8C.html" target="_top" xlink:title="fun4all_g4jleic/blob\l/master/macros/G4_Pipe.C">
<polygon fill="none" stroke="#000000" points="0,-168.5 0,-200.5 151,-200.5 151,-168.5 0,-168.5"/>
<text text-anchor="start" x="8" y="-187.5" font-family="FreeSans" font-size="10.00" fill="#000000">fun4all_g4jleic/blob</text>
<text text-anchor="middle" x="75.5" y="-175.5" font-family="FreeSans" font-size="10.00" fill="#000000">/master/macros/G4_Pipe.C</text>
</a>
</g>
</g>
<!-- Node1&#45;&gt;Node2 -->
<g id="edge1" class="edge">
<title>Node1&#45;&gt;Node2</title>
<path fill="none" stroke="#191970" d="M835.6124,-254.9845C653.6013,-246.7247 286.5531,-228.08 159.5,-207 149.6701,-205.3691 139.3255,-203.0836 129.3849,-200.5894"/>
<polygon fill="#191970" stroke="#191970" points="835.5863,-258.4868 845.7341,-255.4418 835.9023,-251.4939 835.5863,-258.4868"/>
</g>
<!-- Node5 -->
<g id="node5" class="node">
<title>Node5</title>
<g id="a_node5"><a xlink:href="../../d7/d57/G4__VTX_8C.html" target="_top" xlink:title="fun4all_g4jleic/blob\l/master/macros/G4_VTX.C">
<polygon fill="none" stroke="#000000" points="169,-168.5 169,-200.5 318,-200.5 318,-168.5 169,-168.5"/>
<text text-anchor="start" x="177" y="-187.5" font-family="FreeSans" font-size="10.00" fill="#000000">fun4all_g4jleic/blob</text>
<text text-anchor="middle" x="243.5" y="-175.5" font-family="FreeSans" font-size="10.00" fill="#000000">/master/macros/G4_VTX.C</text>
</a>
</g>
</g>
<!-- Node1&#45;&gt;Node5 -->
<g id="edge4" class="edge">
<title>Node1&#45;&gt;Node5</title>
<path fill="none" stroke="#191970" d="M835.7882,-256.2616C712.9776,-251.148 503.6471,-238.3229 326.5,-207 316.9439,-205.3103 306.8896,-203.0281 297.2062,-200.5632"/>
<polygon fill="#191970" stroke="#191970" points="835.8038,-259.7651 845.938,-256.6749 836.0886,-252.7709 835.8038,-259.7651"/>
</g>
<!-- Node6 -->
<g id="node6" class="node">
<title>Node6</title>
<g id="a_node6"><a xlink:href="../../df/d7d/G4__CTD_8C.html" target="_top" xlink:title="fun4all_g4jleic/blob\l/master/macros/G4_CTD.C">
<polygon fill="none" stroke="#000000" points="335.5,-168.5 335.5,-200.5 485.5,-200.5 485.5,-168.5 335.5,-168.5"/>
<text text-anchor="start" x="343.5" y="-187.5" font-family="FreeSans" font-size="10.00" fill="#000000">fun4all_g4jleic/blob</text>
<text text-anchor="middle" x="410.5" y="-175.5" font-family="FreeSans" font-size="10.00" fill="#000000">/master/macros/G4_CTD.C</text>
</a>
</g>
</g>
<!-- Node1&#45;&gt;Node6 -->
<g id="edge6" class="edge">
<title>Node1&#45;&gt;Node6</title>
<path fill="none" stroke="#191970" d="M835.6486,-251.5942C744.6322,-243.6841 609.5972,-229.4263 493.5,-207 484.2649,-205.2161 474.5486,-202.9475 465.1472,-200.5409"/>
<polygon fill="#191970" stroke="#191970" points="835.4327,-255.0884 845.6956,-252.4571 836.0318,-248.1141 835.4327,-255.0884"/>
</g>
<!-- Node7 -->
<g id="node7" class="node">
<title>Node7</title>
<g id="a_node7"><a xlink:href="../../d4/d93/fun4all__g4jleic_2blob_2master_2macros_2G4__Magnet_8C.html" target="_top" xlink:title="fun4all_g4jleic/blob\l/master/macros/G4_Magnet.C">
<polygon fill="none" stroke="#000000" points="503,-168.5 503,-200.5 670,-200.5 670,-168.5 503,-168.5"/>
<text text-anchor="start" x="511" y="-187.5" font-family="FreeSans" font-size="10.00" fill="#000000">fun4all_g4jleic/blob</text>
<text text-anchor="middle" x="586.5" y="-175.5" font-family="FreeSans" font-size="10.00" fill="#000000">/master/macros/G4_Magnet.C</text>
</a>
</g>
</g>
<!-- Node1&#45;&gt;Node7 -->
<g id="edge8" class="edge">
<title>Node1&#45;&gt;Node7</title>
<path fill="none" stroke="#191970" d="M846.1277,-241.5857C796.1897,-231.8549 733.9024,-219.3198 678.5,-207 669.5115,-205.0012 660.0531,-202.8003 650.7606,-200.5812"/>
<polygon fill="#191970" stroke="#191970" points="845.4608,-245.0215 855.9449,-243.4936 846.7963,-238.1501 845.4608,-245.0215"/>
</g>
<!-- Node8 -->
<g id="node8" class="node">
<title>Node8</title>
<g id="a_node8"><a xlink:href="../../db/d88/G4__Gem_8C.html" target="_top" xlink:title="fun4all_g4jleic/blob\l/master/macros/G4_Gem.C">
<polygon fill="none" stroke="#000000" points="688,-168.5 688,-200.5 841,-200.5 841,-168.5 688,-168.5"/>
<text text-anchor="start" x="696" y="-187.5" font-family="FreeSans" font-size="10.00" fill="#000000">fun4all_g4jleic/blob</text>
<text text-anchor="middle" x="764.5" y="-175.5" font-family="FreeSans" font-size="10.00" fill="#000000">/master/macros/G4_Gem.C</text>
</a>
</g>
</g>
<!-- Node1&#45;&gt;Node8 -->
<g id="edge10" class="edge">
<title>Node1&#45;&gt;Node8</title>
<path fill="none" stroke="#191970" d="M893.3646,-239.4139C864.8031,-227.2428 828.859,-211.9257 802.194,-200.5628"/>
<polygon fill="#191970" stroke="#191970" points="892.1719,-242.7101 902.7436,-243.4106 894.9161,-236.2705 892.1719,-242.7101"/>
</g>
<!-- Node9 -->
<g id="node9" class="node">
<title>Node9</title>
<g id="a_node9"><a xlink:href="../../dd/d4f/G4__JLDIRC_8C.html" target="_top" xlink:title="fun4all_g4jleic/blob\l/master/macros/G4_JLDIRC.C">
<polygon fill="none" stroke="#000000" points="859.5,-168.5 859.5,-200.5 1021.5,-200.5 1021.5,-168.5 859.5,-168.5"/>
<text text-anchor="start" x="867.5" y="-187.5" font-family="FreeSans" font-size="10.00" fill="#000000">fun4all_g4jleic/blob</text>
<text text-anchor="middle" x="940.5" y="-175.5" font-family="FreeSans" font-size="10.00" fill="#000000">/master/macros/G4_JLDIRC.C</text>
</a>
</g>
</g>
<!-- Node1&#45;&gt;Node9 -->
<g id="edge12" class="edge">
<title>Node1&#45;&gt;Node9</title>
<path fill="none" stroke="#191970" d="M940.5,-233.0487C940.5,-222.2776 940.5,-210.1711 940.5,-200.7421"/>
<polygon fill="#191970" stroke="#191970" points="937.0001,-233.2261 940.5,-243.2261 944.0001,-233.2262 937.0001,-233.2261"/>
</g>
<!-- Node10 -->
<g id="node10" class="node">
<title>Node10</title>
<g id="a_node10"><a xlink:href="../../dd/d5a/G4__Barrel__Hcal_8C.html" target="_top" xlink:title="fun4all_g4jleic/blob\l/master/macros/G4_Barrel\l_Hcal.C">
<polygon fill="none" stroke="#000000" points="1040,-162.5 1040,-206.5 1189,-206.5 1189,-162.5 1040,-162.5"/>
<text text-anchor="start" x="1048" y="-193.5" font-family="FreeSans" font-size="10.00" fill="#000000">fun4all_g4jleic/blob</text>
<text text-anchor="start" x="1048" y="-181.5" font-family="FreeSans" font-size="10.00" fill="#000000">/master/macros/G4_Barrel</text>
<text text-anchor="middle" x="1114.5" y="-169.5" font-family="FreeSans" font-size="10.00" fill="#000000">_Hcal.C</text>
</a>
</g>
</g>
<!-- Node1&#45;&gt;Node10 -->
<g id="edge14" class="edge">
<title>Node1&#45;&gt;Node10</title>
<path fill="none" stroke="#191970" d="M987.2326,-239.3566C1010.7407,-229.2238 1039.2814,-216.9218 1063.3729,-206.5376"/>
<polygon fill="#191970" stroke="#191970" points="985.6252,-236.2381 977.8274,-243.4106 988.396,-242.6664 985.6252,-236.2381"/>
</g>
<!-- Node11 -->
<g id="node11" class="node">
<title>Node11</title>
<g id="a_node11"><a xlink:href="../../d7/dca/G4__BeamLine_8C.html" target="_top" xlink:title="fun4all_g4jleic/blob\l/master/macros/G4_BeamLine.C">
<polygon fill="none" stroke="#000000" points="1207.5,-168.5 1207.5,-200.5 1387.5,-200.5 1387.5,-168.5 1207.5,-168.5"/>
<text text-anchor="start" x="1215.5" y="-187.5" font-family="FreeSans" font-size="10.00" fill="#000000">fun4all_g4jleic/blob</text>
<text text-anchor="middle" x="1297.5" y="-175.5" font-family="FreeSans" font-size="10.00" fill="#000000">/master/macros/G4_BeamLine.C</text>
</a>
</g>
</g>
<!-- Node1&#45;&gt;Node11 -->
<g id="edge16" class="edge">
<title>Node1&#45;&gt;Node11</title>
<path fill="none" stroke="#191970" d="M1031.6779,-241.4717C1081.1021,-231.5669 1143.2128,-218.9062 1198.5,-207 1207.9769,-204.9591 1217.9514,-202.7566 1227.7721,-200.5562"/>
<polygon fill="#191970" stroke="#191970" points="1030.7686,-238.0841 1021.6498,-243.4784 1032.1422,-244.9481 1030.7686,-238.0841"/>
</g>
<!-- Node12 -->
<g id="node12" class="node">
<title>Node12</title>
<g id="a_node12"><a xlink:href="../../d6/daa/G4__DRich_8C.html" target="_top" xlink:title="fun4all_g4jleic/blob\l/master/macros/G4_DRich.C">
<polygon fill="none" stroke="#000000" points="1406,-168.5 1406,-200.5 1565,-200.5 1565,-168.5 1406,-168.5"/>
<text text-anchor="start" x="1414" y="-187.5" font-family="FreeSans" font-size="10.00" fill="#000000">fun4all_g4jleic/blob</text>
<text text-anchor="middle" x="1485.5" y="-175.5" font-family="FreeSans" font-size="10.00" fill="#000000">/master/macros/G4_DRich.C</text>
</a>
</g>
</g>
<!-- Node1&#45;&gt;Node12 -->
<g id="edge18" class="edge">
<title>Node1&#45;&gt;Node12</title>
<path fill="none" stroke="#191970" d="M1045.6023,-251.396C1138.4053,-243.2918 1277.1251,-228.8612 1396.5,-207 1406.2196,-205.22 1416.4516,-202.9825 1426.3776,-200.6135"/>
<polygon fill="#191970" stroke="#191970" points="1045.0241,-247.9328 1035.3625,-252.2808 1045.6267,-254.9069 1045.0241,-247.9328"/>
</g>
<!-- Node13 -->
<g id="node13" class="node">
<title>Node13</title>
<g id="a_node13"><a xlink:href="../../de/df4/G4__EndCap__Electron_8C.html" target="_top" xlink:title="fun4all_g4jleic/blob\l/master/macros/G4_EndCap\l_Electron.C">
<polygon fill="none" stroke="#000000" points="1582.5,-162.5 1582.5,-206.5 1740.5,-206.5 1740.5,-162.5 1582.5,-162.5"/>
<text text-anchor="start" x="1590.5" y="-193.5" font-family="FreeSans" font-size="10.00" fill="#000000">fun4all_g4jleic/blob</text>
<text text-anchor="start" x="1590.5" y="-181.5" font-family="FreeSans" font-size="10.00" fill="#000000">/master/macros/G4_EndCap</text>
<text text-anchor="middle" x="1661.5" y="-169.5" font-family="FreeSans" font-size="10.00" fill="#000000">_Electron.C</text>
</a>
</g>
</g>
<!-- Node1&#45;&gt;Node13 -->
<g id="edge20" class="edge">
<title>Node1&#45;&gt;Node13</title>
<path fill="none" stroke="#191970" d="M1045.1694,-256.2948C1171.4287,-251.1739 1389.7553,-238.3034 1574.5,-207 1577.1149,-206.5569 1579.7662,-206.0735 1582.4375,-205.557"/>
<polygon fill="#191970" stroke="#191970" points="1044.9699,-252.7999 1035.1167,-256.694 1045.2478,-259.7944 1044.9699,-252.7999"/>
</g>
<!-- Node14 -->
<g id="node14" class="node">
<title>Node14</title>
<g id="a_node14"><a xlink:href="../../de/d43/G4__EndCap__Hadron_8C.html" target="_top" xlink:title="fun4all_g4jleic/blob\l/master/macros/G4_EndCap\l_Hadron.C">
<polygon fill="none" stroke="#000000" points="1758.5,-162.5 1758.5,-206.5 1916.5,-206.5 1916.5,-162.5 1758.5,-162.5"/>
<text text-anchor="start" x="1766.5" y="-193.5" font-family="FreeSans" font-size="10.00" fill="#000000">fun4all_g4jleic/blob</text>
<text text-anchor="start" x="1766.5" y="-181.5" font-family="FreeSans" font-size="10.00" fill="#000000">/master/macros/G4_EndCap</text>
<text text-anchor="middle" x="1837.5" y="-169.5" font-family="FreeSans" font-size="10.00" fill="#000000">_Hadron.C</text>
</a>
</g>
</g>
<!-- Node1&#45;&gt;Node14 -->
<g id="edge22" class="edge">
<title>Node1&#45;&gt;Node14</title>
<path fill="none" stroke="#191970" d="M1045.2072,-255.1264C1232.305,-246.9077 1616.8468,-228.0757 1749.5,-207 1752.459,-206.5299 1755.4636,-206.0056 1758.4906,-205.4378"/>
<polygon fill="#191970" stroke="#191970" points="1044.9209,-251.6355 1035.0834,-255.5692 1045.2268,-258.6288 1044.9209,-251.6355"/>
</g>
<!-- Node3 -->
<g id="node3" class="node">
<title>Node3</title>
<g id="a_node3"><a xlink:href="../../d0/dd0/G4Setup__JLeic_8C.html" target="_top" xlink:title="fun4all_g4jleic/blob\l/master/macros/G4Setup\l_JLeic.C">
<polygon fill="none" stroke="#000000" points="868.5,-81.5 868.5,-125.5 1012.5,-125.5 1012.5,-81.5 868.5,-81.5"/>
<text text-anchor="start" x="876.5" y="-112.5" font-family="FreeSans" font-size="10.00" fill="#000000">fun4all_g4jleic/blob</text>
<text text-anchor="start" x="876.5" y="-100.5" font-family="FreeSans" font-size="10.00" fill="#000000">/master/macros/G4Setup</text>
<text text-anchor="middle" x="940.5" y="-88.5" font-family="FreeSans" font-size="10.00" fill="#000000">_JLeic.C</text>
</a>
</g>
</g>
<!-- Node2&#45;&gt;Node3 -->
<g id="edge2" class="edge">
<title>Node2&#45;&gt;Node3</title>
<path fill="none" stroke="#191970" d="M139.2769,-166.0903C146.0657,-164.5288 152.8998,-163.121 159.5,-162 417.8821,-118.1152 729.9284,-107.1509 868.3506,-104.4119"/>
<polygon fill="#191970" stroke="#191970" points="138.2964,-162.7263 129.3953,-168.4726 139.9371,-169.5313 138.2964,-162.7263"/>
</g>
<!-- Node4 -->
<g id="node4" class="node">
<title>Node4</title>
<g id="a_node4"><a xlink:href="../../d0/d87/Fun4All__G4__JLeic_8C.html" target="_top" xlink:title="fun4all_g4jleic/blob\l/master/macros/Fun4All\l_G4_JLeic.C">
<polygon fill="none" stroke="#000000" points="872,-.5 872,-44.5 1009,-44.5 1009,-.5 872,-.5"/>
<text text-anchor="start" x="880" y="-31.5" font-family="FreeSans" font-size="10.00" fill="#000000">fun4all_g4jleic/blob</text>
<text text-anchor="start" x="880" y="-19.5" font-family="FreeSans" font-size="10.00" fill="#000000">/master/macros/Fun4All</text>
<text text-anchor="middle" x="940.5" y="-7.5" font-family="FreeSans" font-size="10.00" fill="#000000">_G4_JLeic.C</text>
</a>
</g>
</g>
<!-- Node3&#45;&gt;Node4 -->
<g id="edge3" class="edge">
<title>Node3&#45;&gt;Node4</title>
<path fill="none" stroke="#191970" d="M940.5,-71.2457C940.5,-62.3118 940.5,-52.8188 940.5,-44.6068"/>
<polygon fill="#191970" stroke="#191970" points="937.0001,-71.3664 940.5,-81.3664 944.0001,-71.3664 937.0001,-71.3664"/>
</g>
<!-- Node5&#45;&gt;Node3 -->
<g id="edge5" class="edge">
<title>Node5&#45;&gt;Node3</title>
<path fill="none" stroke="#191970" d="M307.5975,-165.9697C313.9515,-164.481 320.3306,-163.1217 326.5,-162 520.349,-126.7542 752.7334,-111.953 868.1159,-106.4154"/>
<polygon fill="#191970" stroke="#191970" points="306.5484,-162.6231 297.6672,-168.4 308.2125,-169.4224 306.5484,-162.6231"/>
</g>
<!-- Node6&#45;&gt;Node3 -->
<g id="edge7" class="edge">
<title>Node6&#45;&gt;Node3</title>
<path fill="none" stroke="#191970" d="M475.6749,-165.9474C481.6769,-164.507 487.6853,-163.1631 493.5,-162 624.5431,-135.787 779.6374,-118.5164 868.4008,-109.9207"/>
<polygon fill="#191970" stroke="#191970" points="474.4757,-162.6389 465.6154,-168.448 476.1645,-169.4322 474.4757,-162.6389"/>
</g>
<!-- Node7&#45;&gt;Node3 -->
<g id="edge9" class="edge">
<title>Node7&#45;&gt;Node3</title>
<path fill="none" stroke="#191970" d="M661.1655,-166.1052C667.0275,-164.702 672.8587,-163.3195 678.5,-162 742.6011,-147.0068 815.7281,-130.7493 868.406,-119.1871"/>
<polygon fill="#191970" stroke="#191970" points="660.2033,-162.7367 651.2993,-168.4786 661.8406,-169.5426 660.2033,-162.7367"/>
</g>
<!-- Node8&#45;&gt;Node3 -->
<g id="edge11" class="edge">
<title>Node8&#45;&gt;Node3</title>
<path fill="none" stroke="#191970" d="M808.3665,-164.3115C833.9396,-152.542 866.2221,-137.6847 892.4763,-125.6018"/>
<polygon fill="#191970" stroke="#191970" points="806.8928,-161.1367 799.2719,-168.497 809.8194,-167.4956 806.8928,-161.1367"/>
</g>
<!-- Node9&#45;&gt;Node3 -->
<g id="edge13" class="edge">
<title>Node9&#45;&gt;Node3</title>
<path fill="none" stroke="#191970" d="M940.5,-158.1966C940.5,-147.6666 940.5,-135.6709 940.5,-125.6018"/>
<polygon fill="#191970" stroke="#191970" points="937.0001,-158.497 940.5,-168.497 944.0001,-158.497 937.0001,-158.497"/>
</g>
<!-- Node10&#45;&gt;Node3 -->
<g id="edge15" class="edge">
<title>Node10&#45;&gt;Node3</title>
<path fill="none" stroke="#191970" d="M1057.8195,-158.1143C1035.2461,-147.6059 1009.5601,-135.6486 987.9888,-125.6068"/>
<polygon fill="#191970" stroke="#191970" points="1056.4108,-161.3191 1066.9537,-162.3664 1059.365,-154.973 1056.4108,-161.3191"/>
</g>
<!-- Node11&#45;&gt;Node3 -->
<g id="edge17" class="edge">
<title>Node11&#45;&gt;Node3</title>
<path fill="none" stroke="#191970" d="M1217.0545,-166.2134C1210.7763,-164.7873 1204.5348,-163.3699 1198.5,-162 1135.6833,-147.7401 1064.2586,-131.5465 1012.5116,-119.818"/>
<polygon fill="#191970" stroke="#191970" points="1216.3989,-169.6535 1226.9258,-168.4558 1217.9496,-162.8275 1216.3989,-169.6535"/>
</g>
<!-- Node12&#45;&gt;Node3 -->
<g id="edge19" class="edge">
<title>Node12&#45;&gt;Node3</title>
<path fill="none" stroke="#191970" d="M1416.5202,-166.1975C1409.7788,-164.6692 1403.0225,-163.2382 1396.5,-162 1262.0183,-136.4701 1103.0704,-118.8918 1012.7919,-110.0688"/>
<polygon fill="#191970" stroke="#191970" points="1415.8234,-169.6289 1426.3574,-168.495 1417.4155,-162.8123 1415.8234,-169.6289"/>
</g>
<!-- Node13&#45;&gt;Node3 -->
<g id="edge21" class="edge">
<title>Node13&#45;&gt;Node3</title>
<path fill="none" stroke="#191970" d="M1572.2726,-161.7212C1365.0116,-126.3654 1129.1018,-111.845 1012.7833,-106.3791"/>
<polygon fill="#191970" stroke="#191970" points="1571.9823,-165.2228 1582.4319,-163.4751 1573.1732,-158.3248 1571.9823,-165.2228"/>
</g>
<!-- Node14&#45;&gt;Node3 -->
<g id="edge23" class="edge">
<title>Node14&#45;&gt;Node3</title>
<path fill="none" stroke="#191970" d="M1748.2682,-161.9422C1472.1158,-117.8997 1152.9851,-107.1398 1012.6976,-104.4191"/>
<polygon fill="#191970" stroke="#191970" points="1748.0563,-165.4532 1758.4861,-163.5903 1749.1711,-158.5425 1748.0563,-165.4532"/>
</g>
</g>
</svg>
