<?xml version="1.0" encoding="UTF-8" standalone="no"?>
<!DOCTYPE svg PUBLIC "-//W3C//DTD SVG 1.1//EN"
 "http://www.w3.org/Graphics/SVG/1.1/DTD/svg11.dtd">
<!-- Generated by graphviz version 2.40.1 (20161225.0304)
 -->
<!-- Title: kdfinder::Helix::valid Pages: 1 -->
<svg width="568pt" height="68pt"
 viewBox="0.00 0.00 568.00 68.00" xmlns="http://www.w3.org/2000/svg" xmlns:xlink="http://www.w3.org/1999/xlink">
<g id="graph0" class="graph" transform="scale(1 1) rotate(0) translate(4 64)">
<title>kdfinder::Helix::valid</title>
<!-- Node1 -->
<g id="node1" class="node">
<title>Node1</title>
<polygon fill="#bfbfbf" stroke="#000000" points="0,-19.5 0,-39.5 121,-39.5 121,-19.5 0,-19.5"/>
<text text-anchor="middle" x="60.5" y="-26.5" font-family="FreeSans" font-size="10.00" fill="#000000">kdfinder::Helix::valid</text>
</g>
<!-- Node2 -->
<g id="node2" class="node">
<title>Node2</title>
<g id="a_node2"><a xlink:href="../../de/d52/classkdfinder_1_1Helix.html#a26ee0b349b7da3f1b5d80e04f9514bc8" target="_top" xlink:title="kdfinder::Helix::bad">
<polygon fill="none" stroke="#000000" points="157,-19.5 157,-39.5 273,-39.5 273,-19.5 157,-19.5"/>
<text text-anchor="middle" x="215" y="-26.5" font-family="FreeSans" font-size="10.00" fill="#000000">kdfinder::Helix::bad</text>
</a>
</g>
</g>
<!-- Node1&#45;&gt;Node2 -->
<g id="edge1" class="edge">
<title>Node1&#45;&gt;Node2</title>
<path fill="none" stroke="#191970" d="M121.1191,-29.5C129.4732,-29.5 138.0999,-29.5 146.5825,-29.5"/>
<polygon fill="#191970" stroke="#191970" points="146.8301,-33.0001 156.8301,-29.5 146.8301,-26.0001 146.8301,-33.0001"/>
</g>
<!-- Node3 -->
<g id="node3" class="node">
<title>Node3</title>
<g id="a_node3"><a xlink:href="../../df/d28/namespacekdfinder.html#ab72d428625e99a2d7380eb7691c246c7" target="_top" xlink:title="kdfinder::abs">
<polygon fill="none" stroke="#000000" points="309,-39.5 309,-59.5 392,-59.5 392,-39.5 309,-39.5"/>
<text text-anchor="middle" x="350.5" y="-46.5" font-family="FreeSans" font-size="10.00" fill="#000000">kdfinder::abs</text>
</a>
</g>
</g>
<!-- Node2&#45;&gt;Node3 -->
<g id="edge2" class="edge">
<title>Node2&#45;&gt;Node3</title>
<path fill="none" stroke="#191970" d="M273.2506,-38.0979C281.7157,-39.3473 290.3827,-40.6266 298.7087,-41.8555"/>
<polygon fill="#191970" stroke="#191970" points="298.2551,-45.3264 308.659,-43.3242 299.2773,-38.4014 298.2551,-45.3264"/>
</g>
<!-- Node5 -->
<g id="node5" class="node">
<title>Node5</title>
<g id="a_node5"><a xlink:href="../../d5/db2/G4__WorldSize_8C.html#a06884d6c2d974776c4210d8c95ec8550" target="_top" xlink:title="WorldSize">
<polygon fill="none" stroke="#000000" points="317.5,-.5 317.5,-20.5 383.5,-20.5 383.5,-.5 317.5,-.5"/>
<text text-anchor="middle" x="350.5" y="-7.5" font-family="FreeSans" font-size="10.00" fill="#000000">WorldSize</text>
</a>
</g>
</g>
<!-- Node2&#45;&gt;Node5 -->
<g id="edge4" class="edge">
<title>Node2&#45;&gt;Node5</title>
<path fill="none" stroke="#191970" d="M273.2506,-21.332C284.6655,-19.7314 296.4475,-18.0793 307.2656,-16.5624"/>
<polygon fill="#191970" stroke="#191970" points="307.8817,-20.0103 317.2988,-15.1555 306.9096,-13.0781 307.8817,-20.0103"/>
</g>
<!-- Node4 -->
<g id="node4" class="node">
<title>Node4</title>
<g id="a_node4"><a xlink:href="../../d8/dc7/classkdfinder_1_1TVector.html#ac9649c7577f12a7502ed523260f4ee90" target="_top" xlink:title="kdfinder::TVector::mag">
<polygon fill="none" stroke="#000000" points="428,-39.5 428,-59.5 560,-59.5 560,-39.5 428,-39.5"/>
<text text-anchor="middle" x="494" y="-46.5" font-family="FreeSans" font-size="10.00" fill="#000000">kdfinder::TVector::mag</text>
</a>
</g>
</g>
<!-- Node3&#45;&gt;Node4 -->
<g id="edge3" class="edge">
<title>Node3&#45;&gt;Node4</title>
<path fill="none" stroke="#191970" d="M392.0061,-49.5C400.1854,-49.5 409.0065,-49.5 417.917,-49.5"/>
<polygon fill="#191970" stroke="#191970" points="417.9858,-53.0001 427.9858,-49.5 417.9857,-46.0001 417.9858,-53.0001"/>
</g>
</g>
</svg>
