<?xml version="1.0" encoding="UTF-8" standalone="no"?>
<!DOCTYPE svg PUBLIC "-//W3C//DTD SVG 1.1//EN"
 "http://www.w3.org/Graphics/SVG/1.1/DTD/svg11.dtd">
<!-- Generated by graphviz version 2.40.1 (20161225.0304)
 -->
<!-- Title: SvtxTrackMap::size Pages: 1 -->
<svg width="747pt" height="350pt"
 viewBox="0.00 0.00 747.00 350.00" xmlns="http://www.w3.org/2000/svg" xmlns:xlink="http://www.w3.org/1999/xlink">
<g id="graph0" class="graph" transform="scale(1 1) rotate(0) translate(4 346)">
<title>SvtxTrackMap::size</title>
<!-- Node1 -->
<g id="node1" class="node">
<title>Node1</title>
<polygon fill="#bfbfbf" stroke="#000000" points="0,-160.5 0,-180.5 112,-180.5 112,-160.5 0,-160.5"/>
<text text-anchor="middle" x="56" y="-167.5" font-family="FreeSans" font-size="10.00" fill="#000000">SvtxTrackMap::size</text>
</g>
<!-- Node2 -->
<g id="node2" class="node">
<title>Node2</title>
<g id="a_node2"><a xlink:href="../../d8/dd4/classPHHoughSeeding.html#a61550a59cd3a34af03c43572e28274cb" target="_top" xlink:title="code to translate back to the SVTX universe">
<polygon fill="none" stroke="#000000" points="173,-309.5 173,-341.5 317,-341.5 317,-309.5 173,-309.5"/>
<text text-anchor="start" x="181" y="-328.5" font-family="FreeSans" font-size="10.00" fill="#000000">PHHoughSeeding::export</text>
<text text-anchor="middle" x="245" y="-316.5" font-family="FreeSans" font-size="10.00" fill="#000000">_output</text>
</a>
</g>
</g>
<!-- Node1&#45;&gt;Node2 -->
<g id="edge1" class="edge">
<title>Node1&#45;&gt;Node2</title>
<path fill="none" stroke="#191970" d="M64.4983,-190.2187C77.9325,-218.9894 106.8435,-272.1262 148,-300.5 155.5168,-305.6822 164.0301,-309.7903 172.815,-313.0469"/>
<polygon fill="#191970" stroke="#191970" points="67.5576,-188.4887 60.2551,-180.8125 61.1767,-191.3671 67.5576,-188.4887"/>
</g>
<!-- Node4 -->
<g id="node4" class="node">
<title>Node4</title>
<g id="a_node4"><a xlink:href="../../d6/d11/classSvtxEvaluator.html#ace95fef2b7b4ad8b797f6695e053dd6e" target="_top" xlink:title="dump the evaluator information into ntuple for external analysis">
<polygon fill="none" stroke="#000000" points="174.5,-258.5 174.5,-290.5 315.5,-290.5 315.5,-258.5 174.5,-258.5"/>
<text text-anchor="start" x="182.5" y="-277.5" font-family="FreeSans" font-size="10.00" fill="#000000">SvtxEvaluator::fillOutput</text>
<text text-anchor="middle" x="245" y="-265.5" font-family="FreeSans" font-size="10.00" fill="#000000">Ntuples</text>
</a>
</g>
</g>
<!-- Node1&#45;&gt;Node4 -->
<g id="edge3" class="edge">
<title>Node1&#45;&gt;Node4</title>
<path fill="none" stroke="#191970" d="M71.8206,-188.1961C88.8944,-206.2233 117.7318,-233.7081 148,-249.5 156.2488,-253.8037 165.2863,-257.4004 174.4225,-260.3977"/>
<polygon fill="#191970" stroke="#191970" points="74.202,-185.6164 64.8408,-180.6548 69.0647,-190.3712 74.202,-185.6164"/>
</g>
<!-- Node6 -->
<g id="node6" class="node">
<title>Node6</title>
<g id="a_node6"><a xlink:href="../../d0/d22/classPHGenFitTrkProp.html#ab11c2e61a1b78278fa4af7cf624c2538" target="_top" xlink:title="Main function.">
<polygon fill="none" stroke="#000000" points="378,-119.5 378,-139.5 559,-139.5 559,-119.5 378,-119.5"/>
<text text-anchor="middle" x="468.5" y="-126.5" font-family="FreeSans" font-size="10.00" fill="#000000">PHGenFitTrkProp::KalmanTrkProp</text>
</a>
</g>
</g>
<!-- Node1&#45;&gt;Node6 -->
<g id="edge5" class="edge">
<title>Node1&#45;&gt;Node6</title>
<path fill="none" stroke="#191970" d="M122.3975,-163.9005C191.6188,-157.0203 300.5726,-146.191 377.7219,-138.5228"/>
<polygon fill="#191970" stroke="#191970" points="121.6656,-160.4559 112.0609,-164.9279 122.3581,-167.4216 121.6656,-160.4559"/>
</g>
<!-- Node8 -->
<g id="node8" class="node">
<title>Node8</title>
<g id="a_node8"><a xlink:href="../../d0/d22/classPHGenFitTrkProp.html#a425f22248030483cb56cdb867c3077c8" target="_top" xlink:title="ExportOutput Call. Make SvtxTrack from PHGenFit::Track and set of clusters.">
<polygon fill="none" stroke="#000000" points="157.5,-90.5 157.5,-122.5 332.5,-122.5 332.5,-90.5 157.5,-90.5"/>
<text text-anchor="start" x="165.5" y="-109.5" font-family="FreeSans" font-size="10.00" fill="#000000">PHGenFitTrkProp::OutputPHGen</text>
<text text-anchor="middle" x="245" y="-97.5" font-family="FreeSans" font-size="10.00" fill="#000000">FitTrack</text>
</a>
</g>
</g>
<!-- Node1&#45;&gt;Node8 -->
<g id="edge7" class="edge">
<title>Node1&#45;&gt;Node8</title>
<path fill="none" stroke="#191970" d="M92.7452,-156.9865C109.5433,-150.8947 129.7302,-143.6939 148,-137.5 162.7341,-132.5048 178.8004,-127.2807 193.542,-122.5753"/>
<polygon fill="#191970" stroke="#191970" points="91.4863,-153.72 83.2864,-160.4291 93.8804,-160.2979 91.4863,-153.72"/>
</g>
<!-- Node9 -->
<g id="node9" class="node">
<title>Node9</title>
<g id="a_node9"><a xlink:href="../../d6/d11/classSvtxEvaluator.html#a51a88cb55f439b7bc820fa1f727bf39a" target="_top" xlink:title="print out the input object information (debugging upstream components)">
<polygon fill="none" stroke="#000000" points="164,-219.5 164,-239.5 326,-239.5 326,-219.5 164,-219.5"/>
<text text-anchor="middle" x="245" y="-226.5" font-family="FreeSans" font-size="10.00" fill="#000000">SvtxEvaluator::printInputInfo</text>
</a>
</g>
</g>
<!-- Node1&#45;&gt;Node9 -->
<g id="edge9" class="edge">
<title>Node1&#45;&gt;Node9</title>
<path fill="none" stroke="#191970" d="M84.8909,-184.9891C102.7139,-193.4379 126.2517,-203.7301 148,-210.5 159.2236,-213.9937 171.3858,-216.9781 183.1808,-219.4756"/>
<polygon fill="#191970" stroke="#191970" points="86.1523,-181.7117 75.6248,-180.519 83.1108,-188.0164 86.1523,-181.7117"/>
</g>
<!-- Node10 -->
<g id="node10" class="node">
<title>Node10</title>
<g id="a_node10"><a xlink:href="../../d6/d11/classSvtxEvaluator.html#aef548ddeafdf0ebc949f29e88a741db8" target="_top" xlink:title="print out the ancestry information for detailed diagnosis">
<polygon fill="none" stroke="#000000" points="159.5,-180.5 159.5,-200.5 330.5,-200.5 330.5,-180.5 159.5,-180.5"/>
<text text-anchor="middle" x="245" y="-187.5" font-family="FreeSans" font-size="10.00" fill="#000000">SvtxEvaluator::printOutputInfo</text>
</a>
</g>
</g>
<!-- Node1&#45;&gt;Node10 -->
<g id="edge11" class="edge">
<title>Node1&#45;&gt;Node10</title>
<path fill="none" stroke="#191970" d="M122.4637,-177.5332C134.3649,-178.7926 146.9184,-180.121 159.2703,-181.4281"/>
<polygon fill="#191970" stroke="#191970" points="122.5073,-174.0184 112.1945,-176.4465 121.7706,-180.9795 122.5073,-174.0184"/>
</g>
<!-- Node11 -->
<g id="node11" class="node">
<title>Node11</title>
<g id="a_node11"><a xlink:href="../../d5/da2/classPHTruthTrackSeeding.html#ab0ab67b0de3435bad2eeba92a482753c" target="_top" xlink:title="PHTruthTrackSeeding\l::Process">
<polygon fill="none" stroke="#000000" points="183.5,-39.5 183.5,-71.5 306.5,-71.5 306.5,-39.5 183.5,-39.5"/>
<text text-anchor="start" x="191.5" y="-58.5" font-family="FreeSans" font-size="10.00" fill="#000000">PHTruthTrackSeeding</text>
<text text-anchor="middle" x="245" y="-46.5" font-family="FreeSans" font-size="10.00" fill="#000000">::Process</text>
</a>
</g>
</g>
<!-- Node1&#45;&gt;Node11 -->
<g id="edge13" class="edge">
<title>Node1&#45;&gt;Node11</title>
<path fill="none" stroke="#191970" d="M69.5476,-152.4418C85.8978,-131.9331 115.3002,-98.934 148,-80.5 158.8317,-74.3938 171.1795,-69.7483 183.3517,-66.2239"/>
<polygon fill="#191970" stroke="#191970" points="66.7443,-150.3452 63.3679,-160.3876 72.2699,-154.6426 66.7443,-150.3452"/>
</g>
<!-- Node12 -->
<g id="node12" class="node">
<title>Node12</title>
<g id="a_node12"><a xlink:href="../../d1/d8e/classDumpSvtxTrackMap.html#ae048789c86df0598862ab8223a390a94" target="_top" xlink:title="DumpSvtxTrackMap::process_Node">
<polygon fill="none" stroke="#000000" points="148,-.5 148,-20.5 342,-20.5 342,-.5 148,-.5"/>
<text text-anchor="middle" x="245" y="-7.5" font-family="FreeSans" font-size="10.00" fill="#000000">DumpSvtxTrackMap::process_Node</text>
</a>
</g>
</g>
<!-- Node1&#45;&gt;Node12 -->
<g id="edge14" class="edge">
<title>Node1&#45;&gt;Node12</title>
<path fill="none" stroke="#191970" d="M63.1008,-150.5856C75.3032,-119.4261 103.336,-59.6029 148,-29.5 153.2651,-25.9514 159.0345,-23.0317 165.0525,-20.6332"/>
<polygon fill="#191970" stroke="#191970" points="59.6857,-149.724 59.4436,-160.3161 66.2382,-152.1868 59.6857,-149.724"/>
</g>
<!-- Node3 -->
<g id="node3" class="node">
<title>Node3</title>
<g id="a_node3"><a xlink:href="../../d8/dd4/classPHHoughSeeding.html#a8b2c7b85b2bcbe054e071dd6ff624f7d" target="_top" xlink:title="PHHoughSeeding::Process">
<polygon fill="none" stroke="#000000" points="394,-315.5 394,-335.5 543,-335.5 543,-315.5 394,-315.5"/>
<text text-anchor="middle" x="468.5" y="-322.5" font-family="FreeSans" font-size="10.00" fill="#000000">PHHoughSeeding::Process</text>
</a>
</g>
</g>
<!-- Node2&#45;&gt;Node3 -->
<g id="edge2" class="edge">
<title>Node2&#45;&gt;Node3</title>
<path fill="none" stroke="#191970" d="M327.4474,-325.5C349.1812,-325.5 372.5062,-325.5 393.8059,-325.5"/>
<polygon fill="#191970" stroke="#191970" points="327.2554,-322.0001 317.2554,-325.5 327.2554,-329.0001 327.2554,-322.0001"/>
</g>
<!-- Node5 -->
<g id="node5" class="node">
<title>Node5</title>
<g id="a_node5"><a xlink:href="../../d6/d11/classSvtxEvaluator.html#ac66ea4145deb621d9e4fb38cf852dc33" target="_top" xlink:title="SvtxEvaluator::process\l_event">
<polygon fill="none" stroke="#000000" points="402.5,-213.5 402.5,-245.5 534.5,-245.5 534.5,-213.5 402.5,-213.5"/>
<text text-anchor="start" x="410.5" y="-232.5" font-family="FreeSans" font-size="10.00" fill="#000000">SvtxEvaluator::process</text>
<text text-anchor="middle" x="468.5" y="-220.5" font-family="FreeSans" font-size="10.00" fill="#000000">_event</text>
</a>
</g>
</g>
<!-- Node4&#45;&gt;Node5 -->
<g id="edge4" class="edge">
<title>Node4&#45;&gt;Node5</title>
<path fill="none" stroke="#191970" d="M325.6214,-258.2675C350.8314,-253.1917 378.3381,-247.6534 402.4252,-242.8036"/>
<polygon fill="#191970" stroke="#191970" points="324.8292,-254.8567 315.7168,-260.2617 326.2109,-261.719 324.8292,-254.8567"/>
</g>
<!-- Node7 -->
<g id="node7" class="node">
<title>Node7</title>
<g id="a_node7"><a xlink:href="../../d0/d22/classPHGenFitTrkProp.html#a31e50e42d62a2bf32763652b39dc95b8" target="_top" xlink:title="PHGenFitTrkProp::Process">
<polygon fill="none" stroke="#000000" points="595,-119.5 595,-139.5 739,-139.5 739,-119.5 595,-119.5"/>
<text text-anchor="middle" x="667" y="-126.5" font-family="FreeSans" font-size="10.00" fill="#000000">PHGenFitTrkProp::Process</text>
</a>
</g>
</g>
<!-- Node6&#45;&gt;Node7 -->
<g id="edge6" class="edge">
<title>Node6&#45;&gt;Node7</title>
<path fill="none" stroke="#191970" d="M569.1556,-129.5C577.7831,-129.5 586.3965,-129.5 594.7348,-129.5"/>
<polygon fill="#191970" stroke="#191970" points="569.0369,-126.0001 559.0368,-129.5 569.0368,-133.0001 569.0369,-126.0001"/>
</g>
<!-- Node8&#45;&gt;Node6 -->
<g id="edge8" class="edge">
<title>Node8&#45;&gt;Node6</title>
<path fill="none" stroke="#191970" d="M342.8275,-116.5673C354.4358,-117.7618 366.2476,-118.9774 377.7513,-120.1612"/>
<polygon fill="#191970" stroke="#191970" points="342.9974,-113.0663 332.6916,-115.5242 342.2808,-120.0296 342.9974,-113.0663"/>
</g>
<!-- Node9&#45;&gt;Node5 -->
<g id="edge10" class="edge">
<title>Node9&#45;&gt;Node5</title>
<path fill="none" stroke="#191970" d="M336.1151,-229.5C358.3213,-229.5 381.6537,-229.5 402.4388,-229.5"/>
<polygon fill="#191970" stroke="#191970" points="336.0047,-226.0001 326.0046,-229.5 336.0046,-233.0001 336.0047,-226.0001"/>
</g>
<!-- Node10&#45;&gt;Node5 -->
<g id="edge12" class="edge">
<title>Node10&#45;&gt;Node5</title>
<path fill="none" stroke="#191970" d="M312.437,-202.2675C340.9548,-207.2438 374.067,-213.0218 402.4347,-217.9718"/>
<polygon fill="#191970" stroke="#191970" points="313.0096,-198.8146 302.5568,-200.5435 311.8063,-205.7104 313.0096,-198.8146"/>
</g>
</g>
</svg>
