<?xml version="1.0" encoding="UTF-8" standalone="no"?>
<!DOCTYPE svg PUBLIC "-//W3C//DTD SVG 1.1//EN"
 "http://www.w3.org/Graphics/SVG/1.1/DTD/svg11.dtd">
<!-- Generated by graphviz version 2.40.1 (20161225.0304)
 -->
<!-- Title: create_element Pages: 1 -->
<svg width="639pt" height="314pt"
 viewBox="0.00 0.00 639.00 314.00" xmlns="http://www.w3.org/2000/svg" xmlns:xlink="http://www.w3.org/1999/xlink">
<g id="graph0" class="graph" transform="scale(1 1) rotate(0) translate(4 310)">
<title>create_element</title>
<!-- Node1 -->
<g id="node1" class="node">
<title>Node1</title>
<polygon fill="#bfbfbf" stroke="#000000" points="0,-136.5 0,-156.5 95,-156.5 95,-136.5 0,-136.5"/>
<text text-anchor="middle" x="47.5" y="-143.5" font-family="FreeSans" font-size="10.00" fill="#000000">create_element</text>
</g>
<!-- Node2 -->
<g id="node2" class="node">
<title>Node2</title>
<g id="a_node2"><a xlink:href="../../d8/d8a/classActs_1_1ActsExtension.html#a3e426a50074b542e1310f24521c89768" target="_top" xlink:title="Acts::ActsExtension\l::addType">
<polygon fill="none" stroke="#000000" points="347,-228.5 347,-260.5 463,-260.5 463,-228.5 347,-228.5"/>
<text text-anchor="start" x="355" y="-247.5" font-family="FreeSans" font-size="10.00" fill="#000000">Acts::ActsExtension</text>
<text text-anchor="middle" x="405" y="-235.5" font-family="FreeSans" font-size="10.00" fill="#000000">::addType</text>
</a>
</g>
</g>
<!-- Node1&#45;&gt;Node2 -->
<g id="edge1" class="edge">
<title>Node1&#45;&gt;Node2</title>
<path fill="none" stroke="#191970" d="M54.3647,-156.5074C67.1012,-174.128 96.2781,-210.2652 131,-225.5 196.5986,-254.2824 279.5651,-255.8269 336.9246,-252.1898"/>
<polygon fill="#191970" stroke="#191970" points="337.2404,-255.6763 346.9703,-251.4834 336.7494,-248.6936 337.2404,-255.6763"/>
</g>
<!-- Node3 -->
<g id="node3" class="node">
<title>Node3</title>
<g id="a_node3"><a xlink:href="../../de/deb/structODDModuleHelper.html#a513af05759b26aea8962dd4510a8a6bb" target="_top" xlink:title="ODDModuleHelper::assemble\lRectangularModule">
<polygon fill="none" stroke="#000000" points="138.5,-273.5 138.5,-305.5 303.5,-305.5 303.5,-273.5 138.5,-273.5"/>
<text text-anchor="start" x="146.5" y="-292.5" font-family="FreeSans" font-size="10.00" fill="#000000">ODDModuleHelper::assemble</text>
<text text-anchor="middle" x="221" y="-280.5" font-family="FreeSans" font-size="10.00" fill="#000000">RectangularModule</text>
</a>
</g>
</g>
<!-- Node1&#45;&gt;Node3 -->
<g id="edge2" class="edge">
<title>Node1&#45;&gt;Node3</title>
<path fill="none" stroke="#191970" d="M52.4449,-156.7797C63.4792,-178.6647 92.2234,-230.1717 131,-258.5 136.5587,-262.5609 142.6914,-266.1211 149.0641,-269.2359"/>
<polygon fill="#191970" stroke="#191970" points="147.9773,-272.5845 158.5336,-273.4873 150.8444,-266.1986 147.9773,-272.5845"/>
</g>
<!-- Node6 -->
<g id="node6" class="node">
<title>Node6</title>
<g id="a_node6"><a xlink:href="../../dd/d91/ODDServiceHelper_8hpp.html#a24802dacd3d198ef7d1a360ae4df4bf7" target="_top" xlink:title="buildBarrelRouting">
<polygon fill="none" stroke="#000000" points="166,-.5 166,-20.5 276,-20.5 276,-.5 166,-.5"/>
<text text-anchor="middle" x="221" y="-7.5" font-family="FreeSans" font-size="10.00" fill="#000000">buildBarrelRouting</text>
</a>
</g>
</g>
<!-- Node1&#45;&gt;Node6 -->
<g id="edge6" class="edge">
<title>Node1&#45;&gt;Node6</title>
<path fill="none" stroke="#191970" d="M51.5947,-136.4227C61.4907,-113.4296 89.0299,-56.9677 131,-29.5 138.4755,-24.6076 146.9819,-20.9461 155.7116,-18.2112"/>
<polygon fill="#191970" stroke="#191970" points="156.8974,-21.5155 165.6195,-15.5009 155.0504,-14.7636 156.8974,-21.5155"/>
</g>
<!-- Node7 -->
<g id="node7" class="node">
<title>Node7</title>
<g id="a_node7"><a xlink:href="../../df/de8/cemc_8C.html#a72d4716092b469b4bc1d816359a90e14" target="_top" xlink:title="cos">
<polygon fill="none" stroke="#000000" points="388.5,-69.5 388.5,-89.5 421.5,-89.5 421.5,-69.5 388.5,-69.5"/>
<text text-anchor="middle" x="405" y="-76.5" font-family="FreeSans" font-size="10.00" fill="#000000">cos</text>
</a>
</g>
</g>
<!-- Node1&#45;&gt;Node7 -->
<g id="edge10" class="edge">
<title>Node1&#45;&gt;Node7</title>
<path fill="none" stroke="#191970" d="M95.4852,-155.0795C149.35,-162.7693 238.6717,-169.6385 311,-146.5 341.4568,-136.7566 370.4649,-113.1302 387.998,-96.7123"/>
<polygon fill="#191970" stroke="#191970" points="390.4451,-99.2148 395.2103,-89.752 385.5841,-94.1778 390.4451,-99.2148"/>
</g>
<!-- Node8 -->
<g id="node8" class="node">
<title>Node8</title>
<g id="a_node8"><a xlink:href="../../dd/d91/ODDServiceHelper_8hpp.html#a8d6c47bdad647be2b31e3de10935e40c" target="_top" xlink:title="buildSupportCylinder">
<polygon fill="none" stroke="#000000" points="159,-117.5 159,-137.5 283,-137.5 283,-117.5 159,-117.5"/>
<text text-anchor="middle" x="221" y="-124.5" font-family="FreeSans" font-size="10.00" fill="#000000">buildSupportCylinder</text>
</a>
</g>
</g>
<!-- Node1&#45;&gt;Node8 -->
<g id="edge8" class="edge">
<title>Node1&#45;&gt;Node8</title>
<path fill="none" stroke="#191970" d="M95.3689,-141.2579C111.9565,-139.4414 130.9353,-137.363 149.0302,-135.3814"/>
<polygon fill="#191970" stroke="#191970" points="149.4116,-138.8607 158.9711,-134.2928 148.6495,-131.9023 149.4116,-138.8607"/>
</g>
<!-- Node9 -->
<g id="node9" class="node">
<title>Node9</title>
<g id="a_node9"><a xlink:href="../../d0/d64/ODDPixelBarrel__geo_8cpp.html#a0790020d2154ee4d2015ae71a8c81cf5" target="_top" xlink:title="completeStaveStructure">
<polygon fill="none" stroke="#000000" points="151.5,-78.5 151.5,-98.5 290.5,-98.5 290.5,-78.5 151.5,-78.5"/>
<text text-anchor="middle" x="221" y="-85.5" font-family="FreeSans" font-size="10.00" fill="#000000">completeStaveStructure</text>
</a>
</g>
</g>
<!-- Node1&#45;&gt;Node9 -->
<g id="edge9" class="edge">
<title>Node1&#45;&gt;Node9</title>
<path fill="none" stroke="#191970" d="M65.8986,-136.4082C82.4915,-127.6738 107.7824,-115.2587 131,-107.5 138.3482,-105.0444 146.1437,-102.8372 153.9529,-100.8724"/>
<polygon fill="#191970" stroke="#191970" points="154.9077,-104.2428 163.8193,-98.5128 153.2795,-97.4348 154.9077,-104.2428"/>
</g>
<!-- Node10 -->
<g id="node10" class="node">
<title>Node10</title>
<g id="a_node10"><a xlink:href="../../d3/d9b/namespacenlohmann.html#a6ce645a0b8717757e096a5b5773b7a16" target="_top" xlink:title="user&#45;defined to_string function for JSON values">
<polygon fill="none" stroke="#000000" points="162,-39.5 162,-59.5 280,-59.5 280,-39.5 162,-39.5"/>
<text text-anchor="middle" x="221" y="-46.5" font-family="FreeSans" font-size="10.00" fill="#000000">nlohmann::to_string</text>
</a>
</g>
</g>
<!-- Node1&#45;&gt;Node10 -->
<g id="edge11" class="edge">
<title>Node1&#45;&gt;Node10</title>
<path fill="none" stroke="#191970" d="M55.2559,-136.2864C68.7056,-119.3486 98.0909,-85.6205 131,-68.5 137.5256,-65.1051 144.6167,-62.3168 151.8585,-60.0267"/>
<polygon fill="#191970" stroke="#191970" points="153.1272,-63.3047 161.7881,-57.2024 151.2121,-56.5718 153.1272,-63.3047"/>
</g>
<!-- Node11 -->
<g id="node11" class="node">
<title>Node11</title>
<g id="a_node11"><a xlink:href="../../da/d7b/namespaceActs.html#a2e446d362171aa9b38a0d4c4192b4b4b" target="_top" xlink:title="Acts::xmlToProtoSurfaceMaterial">
<polygon fill="none" stroke="#000000" points="131,-195.5 131,-215.5 311,-215.5 311,-195.5 131,-195.5"/>
<text text-anchor="middle" x="221" y="-202.5" font-family="FreeSans" font-size="10.00" fill="#000000">Acts::xmlToProtoSurfaceMaterial</text>
</a>
</g>
</g>
<!-- Node1&#45;&gt;Node11 -->
<g id="edge12" class="edge">
<title>Node1&#45;&gt;Node11</title>
<path fill="none" stroke="#191970" d="M70.2665,-156.6046C86.9035,-163.7828 110.1127,-173.3732 131,-180.5 143.8418,-184.8817 157.9035,-189.0697 171.0158,-192.7227"/>
<polygon fill="#191970" stroke="#191970" points="170.2526,-196.1425 180.8218,-195.4062 172.1003,-189.3908 170.2526,-196.1425"/>
</g>
<!-- Node3&#45;&gt;Node2 -->
<g id="edge5" class="edge">
<title>Node3&#45;&gt;Node2</title>
<path fill="none" stroke="#191970" d="M286.649,-273.4445C302.888,-269.473 320.3233,-265.209 336.6859,-261.2072"/>
<polygon fill="#191970" stroke="#191970" points="337.8329,-264.53 346.7151,-258.7545 336.1699,-257.7304 337.8329,-264.53"/>
</g>
<!-- Node4 -->
<g id="node4" class="node">
<title>Node4</title>
<g id="a_node4"><a xlink:href="../../df/d28/namespacekdfinder.html#ab72d428625e99a2d7380eb7691c246c7" target="_top" xlink:title="kdfinder::abs">
<polygon fill="none" stroke="#000000" points="363.5,-279.5 363.5,-299.5 446.5,-299.5 446.5,-279.5 363.5,-279.5"/>
<text text-anchor="middle" x="405" y="-286.5" font-family="FreeSans" font-size="10.00" fill="#000000">kdfinder::abs</text>
</a>
</g>
</g>
<!-- Node3&#45;&gt;Node4 -->
<g id="edge3" class="edge">
<title>Node3&#45;&gt;Node4</title>
<path fill="none" stroke="#191970" d="M303.5811,-289.5C320.3478,-289.5 337.5362,-289.5 352.8873,-289.5"/>
<polygon fill="#191970" stroke="#191970" points="353.1937,-293.0001 363.1936,-289.5 353.1936,-286.0001 353.1937,-293.0001"/>
</g>
<!-- Node5 -->
<g id="node5" class="node">
<title>Node5</title>
<g id="a_node5"><a xlink:href="../../d8/dc7/classkdfinder_1_1TVector.html#ac9649c7577f12a7502ed523260f4ee90" target="_top" xlink:title="kdfinder::TVector::mag">
<polygon fill="none" stroke="#000000" points="499,-279.5 499,-299.5 631,-299.5 631,-279.5 499,-279.5"/>
<text text-anchor="middle" x="565" y="-286.5" font-family="FreeSans" font-size="10.00" fill="#000000">kdfinder::TVector::mag</text>
</a>
</g>
</g>
<!-- Node4&#45;&gt;Node5 -->
<g id="edge4" class="edge">
<title>Node4&#45;&gt;Node5</title>
<path fill="none" stroke="#191970" d="M446.6204,-289.5C459.5602,-289.5 474.2556,-289.5 488.7842,-289.5"/>
<polygon fill="#191970" stroke="#191970" points="488.7922,-293.0001 498.7922,-289.5 488.7922,-286.0001 488.7922,-293.0001"/>
</g>
<!-- Node6&#45;&gt;Node7 -->
<g id="edge7" class="edge">
<title>Node6&#45;&gt;Node7</title>
<path fill="none" stroke="#191970" d="M276.4217,-19.6442C288.0166,-22.2642 300.043,-25.5195 311,-29.5 335.8205,-38.5167 362.2128,-53.0412 380.6928,-64.1181"/>
<polygon fill="#191970" stroke="#191970" points="378.977,-67.1713 389.336,-69.394 382.6241,-61.1964 378.977,-67.1713"/>
</g>
<!-- Node11&#45;&gt;Node2 -->
<g id="edge13" class="edge">
<title>Node11&#45;&gt;Node2</title>
<path fill="none" stroke="#191970" d="M268.3846,-215.5435C289.2543,-219.9669 314.1655,-225.247 336.9658,-230.0797"/>
<polygon fill="#191970" stroke="#191970" points="336.4208,-233.5419 346.9293,-232.1915 337.8723,-226.694 336.4208,-233.5419"/>
</g>
<!-- Node12 -->
<g id="node12" class="node">
<title>Node12</title>
<g id="a_node12"><a xlink:href="../../d8/d8a/classActs_1_1ActsExtension.html#a2365dd9d389086d5e743578a63949429" target="_top" xlink:title="Acts::ActsExtension\l::addValue">
<polygon fill="none" stroke="#000000" points="347,-177.5 347,-209.5 463,-209.5 463,-177.5 347,-177.5"/>
<text text-anchor="start" x="355" y="-196.5" font-family="FreeSans" font-size="10.00" fill="#000000">Acts::ActsExtension</text>
<text text-anchor="middle" x="405" y="-184.5" font-family="FreeSans" font-size="10.00" fill="#000000">::addValue</text>
</a>
</g>
</g>
<!-- Node11&#45;&gt;Node12 -->
<g id="edge14" class="edge">
<title>Node11&#45;&gt;Node12</title>
<path fill="none" stroke="#191970" d="M311.1134,-199.623C319.7878,-199.0573 328.4846,-198.4901 336.8951,-197.9416"/>
<polygon fill="#191970" stroke="#191970" points="337.2404,-201.4266 346.9914,-197.2832 336.7848,-194.4415 337.2404,-201.4266"/>
</g>
</g>
</svg>
