<?xml version="1.0" encoding="UTF-8" standalone="no"?>
<!DOCTYPE svg PUBLIC "-//W3C//DTD SVG 1.1//EN"
 "http://www.w3.org/Graphics/SVG/1.1/DTD/svg11.dtd">
<!-- Generated by graphviz version 2.40.1 (20161225.0304)
 -->
<!-- Title: BuildHandBook_1_2 Pages: 1 -->
<svg width="490pt" height="272pt"
 viewBox="0.00 0.00 490.00 272.00" xmlns="http://www.w3.org/2000/svg" xmlns:xlink="http://www.w3.org/1999/xlink">
<g id="graph0" class="graph" transform="scale(1 1) rotate(0) translate(4 268)">
<title>BuildHandBook_1_2</title>
<!-- Node1 -->
<g id="node1" class="node">
<title>Node1</title>
<polygon fill="#bfbfbf" stroke="#000000" points="0,-121.5 0,-141.5 116,-141.5 116,-121.5 0,-121.5"/>
<text text-anchor="middle" x="58" y="-128.5" font-family="FreeSans" font-size="10.00" fill="#000000">BuildHandBook_1_2</text>
</g>
<!-- Node2 -->
<g id="node2" class="node">
<title>Node2</title>
<g id="a_node2"><a xlink:href="../../d2/d7d/classSmear_1_1Detector.html#a24002b3325179692dcf687c9ac6ef4f4" target="_top" xlink:title="Smear::Detector::AddDevice">
<polygon fill="none" stroke="#000000" points="152,-243.5 152,-263.5 312,-263.5 312,-243.5 152,-243.5"/>
<text text-anchor="middle" x="232" y="-250.5" font-family="FreeSans" font-size="10.00" fill="#000000">Smear::Detector::AddDevice</text>
</a>
</g>
</g>
<!-- Node1&#45;&gt;Node2 -->
<g id="edge1" class="edge">
<title>Node1&#45;&gt;Node2</title>
<path fill="none" stroke="#191970" d="M64.1284,-141.5353C77.3916,-162.3523 110.9019,-210.303 152,-234.5 155.2676,-236.4238 158.7184,-238.153 162.2791,-239.7071"/>
<polygon fill="#191970" stroke="#191970" points="161.3219,-243.0893 171.9114,-243.4259 163.8431,-236.5591 161.3219,-243.0893"/>
</g>
<!-- Node4 -->
<g id="node4" class="node">
<title>Node4</title>
<g id="a_node4"><a xlink:href="../../d2/d55/classSmear_1_1Acceptance.html#a77ce79bbc82ad642fc2da89768b1a064" target="_top" xlink:title="Smear::Acceptance::\lAddZone">
<polygon fill="none" stroke="#000000" points="172,-192.5 172,-224.5 292,-224.5 292,-192.5 172,-192.5"/>
<text text-anchor="start" x="180" y="-211.5" font-family="FreeSans" font-size="10.00" fill="#000000">Smear::Acceptance::</text>
<text text-anchor="middle" x="232" y="-199.5" font-family="FreeSans" font-size="10.00" fill="#000000">AddZone</text>
</a>
</g>
</g>
<!-- Node1&#45;&gt;Node4 -->
<g id="edge3" class="edge">
<title>Node1&#45;&gt;Node4</title>
<path fill="none" stroke="#191970" d="M73.8005,-141.5446C92.0863,-152.8566 123.3628,-171.2542 152,-183.5 156.4486,-185.4023 161.0912,-187.2322 165.8023,-188.9764"/>
<polygon fill="#191970" stroke="#191970" points="164.9339,-192.3822 175.5286,-192.432 167.2774,-185.7861 164.9339,-192.3822"/>
</g>
<!-- Node5 -->
<g id="node5" class="node">
<title>Node5</title>
<g id="a_node5"><a xlink:href="../../d2/d55/classSmear_1_1Acceptance.html#a903b3145e29d584e59d8c558edb0afd3" target="_top" xlink:title="Smear::Acceptance::\lSetCharge">
<polygon fill="none" stroke="#000000" points="172,-141.5 172,-173.5 292,-173.5 292,-141.5 172,-141.5"/>
<text text-anchor="start" x="180" y="-160.5" font-family="FreeSans" font-size="10.00" fill="#000000">Smear::Acceptance::</text>
<text text-anchor="middle" x="232" y="-148.5" font-family="FreeSans" font-size="10.00" fill="#000000">SetCharge</text>
</a>
</g>
</g>
<!-- Node1&#45;&gt;Node5 -->
<g id="edge4" class="edge">
<title>Node1&#45;&gt;Node5</title>
<path fill="none" stroke="#191970" d="M116.4235,-140.23C130.9427,-142.3995 146.6565,-144.7475 161.6807,-146.9925"/>
<polygon fill="#191970" stroke="#191970" points="161.5413,-150.5105 171.9487,-148.5268 162.5758,-143.5873 161.5413,-150.5105"/>
</g>
<!-- Node6 -->
<g id="node6" class="node">
<title>Node6</title>
<g id="a_node6"><a xlink:href="../../d2/d7d/classSmear_1_1Detector.html#a5b428e506b13f0d13c8604f3906339da" target="_top" xlink:title="Smear::Detector::SetEvent\lKinematicsCalculator">
<polygon fill="none" stroke="#000000" points="156,-90.5 156,-122.5 308,-122.5 308,-90.5 156,-90.5"/>
<text text-anchor="start" x="164" y="-109.5" font-family="FreeSans" font-size="10.00" fill="#000000">Smear::Detector::SetEvent</text>
<text text-anchor="middle" x="232" y="-97.5" font-family="FreeSans" font-size="10.00" fill="#000000">KinematicsCalculator</text>
</a>
</g>
</g>
<!-- Node1&#45;&gt;Node6 -->
<g id="edge5" class="edge">
<title>Node1&#45;&gt;Node6</title>
<path fill="none" stroke="#191970" d="M116.4235,-123.1058C125.9014,-121.744 135.8884,-120.3091 145.8602,-118.8764"/>
<polygon fill="#191970" stroke="#191970" points="146.4071,-122.3339 155.8076,-117.4472 145.4115,-115.405 146.4071,-122.3339"/>
</g>
<!-- Node7 -->
<g id="node7" class="node">
<title>Node7</title>
<g id="a_node7"><a xlink:href="../../d2/d55/classSmear_1_1Acceptance.html#a411867b7fb1f954336ce788a4fee977d" target="_top" xlink:title="Smear::Acceptance::\lSetGenre">
<polygon fill="none" stroke="#000000" points="172,-39.5 172,-71.5 292,-71.5 292,-39.5 172,-39.5"/>
<text text-anchor="start" x="180" y="-58.5" font-family="FreeSans" font-size="10.00" fill="#000000">Smear::Acceptance::</text>
<text text-anchor="middle" x="232" y="-46.5" font-family="FreeSans" font-size="10.00" fill="#000000">SetGenre</text>
</a>
</g>
</g>
<!-- Node1&#45;&gt;Node7 -->
<g id="edge6" class="edge">
<title>Node1&#45;&gt;Node7</title>
<path fill="none" stroke="#191970" d="M74.8835,-121.3593C93.3669,-110.5358 124.0967,-93.3481 152,-81.5 157.3391,-79.2329 162.9473,-77.0435 168.6124,-74.9621"/>
<polygon fill="#191970" stroke="#191970" points="169.9131,-78.2144 178.1629,-71.5668 167.5682,-71.6188 169.9131,-78.2144"/>
</g>
<!-- Node8 -->
<g id="node8" class="node">
<title>Node8</title>
<g id="a_node8"><a xlink:href="../../d6/da3/SmearHandBook__1__2_8cxx.html#ac8fda9b7ace75b22b8e9fe060604014b" target="_top" xlink:title="ThetaFromEta">
<polygon fill="none" stroke="#000000" points="188.5,-.5 188.5,-20.5 275.5,-20.5 275.5,-.5 188.5,-.5"/>
<text text-anchor="middle" x="232" y="-7.5" font-family="FreeSans" font-size="10.00" fill="#000000">ThetaFromEta</text>
</a>
</g>
</g>
<!-- Node1&#45;&gt;Node8 -->
<g id="edge7" class="edge">
<title>Node1&#45;&gt;Node8</title>
<path fill="none" stroke="#191970" d="M64.407,-121.3886C77.9455,-100.8893 111.5659,-54.3613 152,-30.5 160.0585,-25.7444 169.2168,-22.1135 178.3881,-19.3429"/>
<polygon fill="#191970" stroke="#191970" points="179.5554,-22.653 188.2936,-16.6617 177.7264,-15.8961 179.5554,-22.653"/>
</g>
<!-- Node3 -->
<g id="node3" class="node">
<title>Node3</title>
<g id="a_node3"><a xlink:href="../../d1/d9f/classSmear_1_1Smearer.html#ab7f0eb6bd118335376b94d622c2f74f5" target="_top" xlink:title="Smear::Smearer::Clone">
<polygon fill="none" stroke="#000000" points="348,-243.5 348,-263.5 482,-263.5 482,-243.5 348,-243.5"/>
<text text-anchor="middle" x="415" y="-250.5" font-family="FreeSans" font-size="10.00" fill="#000000">Smear::Smearer::Clone</text>
</a>
</g>
</g>
<!-- Node2&#45;&gt;Node3 -->
<g id="edge2" class="edge">
<title>Node2&#45;&gt;Node3</title>
<path fill="none" stroke="#191970" d="M312.0002,-253.5C320.4788,-253.5 329.0913,-253.5 337.5401,-253.5"/>
<polygon fill="#191970" stroke="#191970" points="337.7447,-257.0001 347.7447,-253.5 337.7446,-250.0001 337.7447,-257.0001"/>
</g>
</g>
</svg>
