<?xml version="1.0" encoding="UTF-8" standalone="no"?>
<!DOCTYPE svg PUBLIC "-//W3C//DTD SVG 1.1//EN"
 "http://www.w3.org/Graphics/SVG/1.1/DTD/svg11.dtd">
<!-- Generated by graphviz version 2.40.1 (20161225.0304)
 -->
<!-- Title: PHG4Hit::get_y Pages: 1 -->
<svg width="874pt" height="530pt"
 viewBox="0.00 0.00 874.00 530.00" xmlns="http://www.w3.org/2000/svg" xmlns:xlink="http://www.w3.org/1999/xlink">
<g id="graph0" class="graph" transform="scale(1 1) rotate(0) translate(4 526)">
<title>PHG4Hit::get_y</title>
<!-- Node1 -->
<g id="node1" class="node">
<title>Node1</title>
<polygon fill="#bfbfbf" stroke="#000000" points="0,-288.5 0,-308.5 93,-308.5 93,-288.5 0,-288.5"/>
<text text-anchor="middle" x="46.5" y="-295.5" font-family="FreeSans" font-size="10.00" fill="#000000">PHG4Hit::get_y</text>
</g>
<!-- Node2 -->
<g id="node2" class="node">
<title>Node2</title>
<g id="a_node2"><a xlink:href="../../d3/d9e/classPHG4Hit.html#acc69387d9b986d2d51a1d3aee3f31ae1" target="_top" xlink:title="PHG4Hit::CopyFrom">
<polygon fill="none" stroke="#000000" points="140.5,-462.5 140.5,-482.5 256.5,-482.5 256.5,-462.5 140.5,-462.5"/>
<text text-anchor="middle" x="198.5" y="-469.5" font-family="FreeSans" font-size="10.00" fill="#000000">PHG4Hit::CopyFrom</text>
</a>
</g>
</g>
<!-- Node1&#45;&gt;Node2 -->
<g id="edge1" class="edge">
<title>Node1&#45;&gt;Node2</title>
<path fill="none" stroke="#191970" d="M52.5288,-318.7182C63.0038,-350.5063 87.5095,-412.1817 129,-447.5 136.6161,-453.9831 146.0432,-458.8365 155.4706,-462.4513"/>
<polygon fill="#191970" stroke="#191970" points="55.7505,-317.2967 49.404,-308.813 49.0748,-319.4027 55.7505,-317.2967"/>
</g>
<!-- Node6 -->
<g id="node6" class="node">
<title>Node6</title>
<g id="a_node6"><a xlink:href="../../d6/d11/classSvtxEvaluator.html#ace95fef2b7b4ad8b797f6695e053dd6e" target="_top" xlink:title="dump the evaluator information into ntuple for external analysis">
<polygon fill="none" stroke="#000000" points="518,-327.5 518,-359.5 659,-359.5 659,-327.5 518,-327.5"/>
<text text-anchor="start" x="526" y="-346.5" font-family="FreeSans" font-size="10.00" fill="#000000">SvtxEvaluator::fillOutput</text>
<text text-anchor="middle" x="588.5" y="-334.5" font-family="FreeSans" font-size="10.00" fill="#000000">Ntuples</text>
</a>
</g>
</g>
<!-- Node1&#45;&gt;Node6 -->
<g id="edge5" class="edge">
<title>Node1&#45;&gt;Node6</title>
<path fill="none" stroke="#191970" d="M81.9527,-311.9314C96.3416,-316.7848 113.2554,-321.7436 129,-324.5 265.0582,-348.3195 427.0698,-348.6224 517.8221,-346.3149"/>
<polygon fill="#191970" stroke="#191970" points="83.0347,-308.6021 72.4398,-308.6166 80.7312,-315.2122 83.0347,-308.6021"/>
</g>
<!-- Node8 -->
<g id="node8" class="node">
<title>Node8</title>
<g id="a_node8"><a xlink:href="../../d3/d9e/classPHG4Hit.html#a880ee4134d36a1b558ec9eed831f376a" target="_top" xlink:title="PHG4Hit::get_avg_y">
<polygon fill="none" stroke="#000000" points="140,-204.5 140,-224.5 257,-224.5 257,-204.5 140,-204.5"/>
<text text-anchor="middle" x="198.5" y="-211.5" font-family="FreeSans" font-size="10.00" fill="#000000">PHG4Hit::get_avg_y</text>
</a>
</g>
</g>
<!-- Node1&#45;&gt;Node8 -->
<g id="edge7" class="edge">
<title>Node1&#45;&gt;Node8</title>
<path fill="none" stroke="#191970" d="M66.506,-281.7877C82.6111,-268.9449 106.2378,-251.4389 129,-239.5 140.2421,-233.6034 153.1829,-228.5287 164.8274,-224.522"/>
<polygon fill="#191970" stroke="#191970" points="63.9449,-279.3586 58.3859,-288.3779 68.3561,-284.7939 63.9449,-279.3586"/>
</g>
<!-- Node9 -->
<g id="node9" class="node">
<title>Node9</title>
<g id="a_node9"><a xlink:href="../../d6/d11/classSvtxEvaluator.html#ad721402a78da571aef6cefac442d0fdf" target="_top" xlink:title="SvtxEvaluator::LayerCluster\lG4Hits">
<polygon fill="none" stroke="#000000" points="306.5,-282.5 306.5,-314.5 464.5,-314.5 464.5,-282.5 306.5,-282.5"/>
<text text-anchor="start" x="314.5" y="-301.5" font-family="FreeSans" font-size="10.00" fill="#000000">SvtxEvaluator::LayerCluster</text>
<text text-anchor="middle" x="385.5" y="-289.5" font-family="FreeSans" font-size="10.00" fill="#000000">G4Hits</text>
</a>
</g>
</g>
<!-- Node1&#45;&gt;Node9 -->
<g id="edge22" class="edge">
<title>Node1&#45;&gt;Node9</title>
<path fill="none" stroke="#191970" d="M81.9395,-285.2623C96.3266,-280.5501 113.2425,-275.8351 129,-273.5 190.1104,-264.4442 206.5613,-267.0363 268,-273.5 285.7339,-275.3657 304.7288,-278.7738 322.1641,-282.4859"/>
<polygon fill="#191970" stroke="#191970" points="80.7703,-281.963 72.4285,-288.495 83.023,-288.5907 80.7703,-281.963"/>
</g>
<!-- Node17 -->
<g id="node17" class="node">
<title>Node17</title>
<g id="a_node17"><a xlink:href="../../d4/de4/classSvtxTruthEval.html#a7f911f747430e3cd66359f8740660390" target="_top" xlink:title="SvtxTruthEval::get\l_innermost_truth_hit">
<polygon fill="none" stroke="#000000" points="137.5,-282.5 137.5,-314.5 259.5,-314.5 259.5,-282.5 137.5,-282.5"/>
<text text-anchor="start" x="145.5" y="-301.5" font-family="FreeSans" font-size="10.00" fill="#000000">SvtxTruthEval::get</text>
<text text-anchor="middle" x="198.5" y="-289.5" font-family="FreeSans" font-size="10.00" fill="#000000">_innermost_truth_hit</text>
</a>
</g>
</g>
<!-- Node1&#45;&gt;Node17 -->
<g id="edge19" class="edge">
<title>Node1&#45;&gt;Node17</title>
<path fill="none" stroke="#191970" d="M103.6585,-298.5C114.6277,-298.5 126.1559,-298.5 137.2482,-298.5"/>
<polygon fill="#191970" stroke="#191970" points="103.3453,-295.0001 93.3453,-298.5 103.3452,-302.0001 103.3453,-295.0001"/>
</g>
<!-- Node18 -->
<g id="node18" class="node">
<title>Node18</title>
<g id="a_node18"><a xlink:href="../../d4/de4/classSvtxTruthEval.html#aec47c20c5c8a5c25c380ee6f0289c252" target="_top" xlink:title="SvtxTruthEval::get\l_outermost_truth_hit">
<polygon fill="none" stroke="#000000" points="137,-372.5 137,-404.5 260,-404.5 260,-372.5 137,-372.5"/>
<text text-anchor="start" x="145" y="-391.5" font-family="FreeSans" font-size="10.00" fill="#000000">SvtxTruthEval::get</text>
<text text-anchor="middle" x="198.5" y="-379.5" font-family="FreeSans" font-size="10.00" fill="#000000">_outermost_truth_hit</text>
</a>
</g>
</g>
<!-- Node1&#45;&gt;Node18 -->
<g id="edge20" class="edge">
<title>Node1&#45;&gt;Node18</title>
<path fill="none" stroke="#191970" d="M67.0428,-314.9673C83.2793,-327.5368 106.8256,-344.7982 129,-357.5 138.4007,-362.8849 148.9098,-368.0006 158.8527,-372.4672"/>
<polygon fill="#191970" stroke="#191970" points="68.8582,-311.9431 58.8296,-308.5258 64.5383,-317.4511 68.8582,-311.9431"/>
</g>
<!-- Node19 -->
<g id="node19" class="node">
<title>Node19</title>
<g id="a_node19"><a xlink:href="../../d6/d11/classSvtxEvaluator.html#aef548ddeafdf0ebc949f29e88a741db8" target="_top" xlink:title="print out the ancestry information for detailed diagnosis">
<polygon fill="none" stroke="#000000" points="503,-401.5 503,-421.5 674,-421.5 674,-401.5 503,-401.5"/>
<text text-anchor="middle" x="588.5" y="-408.5" font-family="FreeSans" font-size="10.00" fill="#000000">SvtxEvaluator::printOutputInfo</text>
</a>
</g>
</g>
<!-- Node1&#45;&gt;Node19 -->
<g id="edge23" class="edge">
<title>Node1&#45;&gt;Node19</title>
<path fill="none" stroke="#191970" d="M53.7094,-318.1118C64.984,-345.5224 89.6619,-394.2051 129,-414.5 191.8324,-446.9159 387.9382,-433.0052 502.6435,-421.3794"/>
<polygon fill="#191970" stroke="#191970" points="56.9489,-316.7855 50.042,-308.7515 50.4313,-319.3392 56.9489,-316.7855"/>
</g>
<!-- Node20 -->
<g id="node20" class="node">
<title>Node20</title>
<g id="a_node20"><a xlink:href="../../dd/d9d/classPHG4TruthEventAction.html#ae3f2e6fb721a5bf18566688160ccc273" target="_top" xlink:title="PHG4TruthEventAction\l::ProcessShowers">
<polygon fill="none" stroke="#000000" points="133.5,-153.5 133.5,-185.5 263.5,-185.5 263.5,-153.5 133.5,-153.5"/>
<text text-anchor="start" x="141.5" y="-172.5" font-family="FreeSans" font-size="10.00" fill="#000000">PHG4TruthEventAction</text>
<text text-anchor="middle" x="198.5" y="-160.5" font-family="FreeSans" font-size="10.00" fill="#000000">::ProcessShowers</text>
</a>
</g>
</g>
<!-- Node1&#45;&gt;Node20 -->
<g id="edge25" class="edge">
<title>Node1&#45;&gt;Node20</title>
<path fill="none" stroke="#191970" d="M57.0378,-279.5224C70.7797,-256.3936 96.8944,-217.5534 129,-194.5 133.6871,-191.1344 138.8739,-188.1796 144.2399,-185.5951"/>
<polygon fill="#191970" stroke="#191970" points="53.8924,-277.9706 51.9246,-288.3811 59.955,-281.4699 53.8924,-277.9706"/>
</g>
<!-- Node22 -->
<g id="node22" class="node">
<title>Node22</title>
<g id="a_node22"><a xlink:href="../../dc/d04/classPHG4TpcSteppingAction.html#a68420823833d0cacfbcd8e9244423846" target="_top" xlink:title="stepping action">
<polygon fill="none" stroke="#000000" points="129,-102.5 129,-134.5 268,-134.5 268,-102.5 129,-102.5"/>
<text text-anchor="start" x="137" y="-121.5" font-family="FreeSans" font-size="10.00" fill="#000000">PHG4TpcSteppingAction</text>
<text text-anchor="middle" x="198.5" y="-109.5" font-family="FreeSans" font-size="10.00" fill="#000000">::UserSteppingAction</text>
</a>
</g>
</g>
<!-- Node1&#45;&gt;Node22 -->
<g id="edge27" class="edge">
<title>Node1&#45;&gt;Node22</title>
<path fill="none" stroke="#191970" d="M52.0196,-278.3819C62.0103,-245.601 86.1352,-180.6043 129,-143.5 132.975,-140.0592 137.4595,-137.0792 142.1882,-134.5008"/>
<polygon fill="#191970" stroke="#191970" points="48.6028,-277.5972 49.1666,-288.1771 55.3235,-279.5548 48.6028,-277.5972"/>
</g>
<!-- Node3 -->
<g id="node3" class="node">
<title>Node3</title>
<g id="a_node3"><a xlink:href="../../d5/d60/classPHG4HitEval.html#a1578ba2c94c6f0784c2a25ea080d981e" target="_top" xlink:title="PHG4HitEval::CopyFrom">
<polygon fill="none" stroke="#000000" points="317,-501.5 317,-521.5 454,-521.5 454,-501.5 317,-501.5"/>
<text text-anchor="middle" x="385.5" y="-508.5" font-family="FreeSans" font-size="10.00" fill="#000000">PHG4HitEval::CopyFrom</text>
</a>
</g>
</g>
<!-- Node2&#45;&gt;Node3 -->
<g id="edge2" class="edge">
<title>Node2&#45;&gt;Node3</title>
<path fill="none" stroke="#191970" d="M256.743,-484.6469C282.6907,-490.0585 312.8826,-496.3552 337.506,-501.4906"/>
<polygon fill="#191970" stroke="#191970" points="257.1611,-481.1589 246.6571,-482.5435 255.7319,-488.0115 257.1611,-481.1589"/>
</g>
<!-- Node5 -->
<g id="node5" class="node">
<title>Node5</title>
<g id="a_node5"><a xlink:href="../../d9/d35/classPHG4Hitv1.html#a2bd73935561899a900c6ad37d43245e8" target="_top" xlink:title="PHG4Hitv1::PHG4Hitv1">
<polygon fill="none" stroke="#000000" points="319.5,-462.5 319.5,-482.5 451.5,-482.5 451.5,-462.5 319.5,-462.5"/>
<text text-anchor="middle" x="385.5" y="-469.5" font-family="FreeSans" font-size="10.00" fill="#000000">PHG4Hitv1::PHG4Hitv1</text>
</a>
</g>
</g>
<!-- Node2&#45;&gt;Node5 -->
<g id="edge4" class="edge">
<title>Node2&#45;&gt;Node5</title>
<path fill="none" stroke="#191970" d="M267.0686,-472.5C284.0957,-472.5 302.3127,-472.5 319.2274,-472.5"/>
<polygon fill="#191970" stroke="#191970" points="266.6429,-469.0001 256.6429,-472.5 266.6429,-476.0001 266.6429,-469.0001"/>
</g>
<!-- Node4 -->
<g id="node4" class="node">
<title>Node4</title>
<g id="a_node4"><a xlink:href="../../d5/d60/classPHG4HitEval.html#a01e507ac99396484a9e138e92bf2cead" target="_top" xlink:title="PHG4HitEval::PHG4HitEval">
<polygon fill="none" stroke="#000000" points="513,-501.5 513,-521.5 664,-521.5 664,-501.5 513,-501.5"/>
<text text-anchor="middle" x="588.5" y="-508.5" font-family="FreeSans" font-size="10.00" fill="#000000">PHG4HitEval::PHG4HitEval</text>
</a>
</g>
</g>
<!-- Node3&#45;&gt;Node4 -->
<g id="edge3" class="edge">
<title>Node3&#45;&gt;Node4</title>
<path fill="none" stroke="#191970" d="M464.5417,-511.5C480.4347,-511.5 497.1011,-511.5 512.8742,-511.5"/>
<polygon fill="#191970" stroke="#191970" points="464.2266,-508.0001 454.2265,-511.5 464.2265,-515.0001 464.2266,-508.0001"/>
</g>
<!-- Node7 -->
<g id="node7" class="node">
<title>Node7</title>
<g id="a_node7"><a xlink:href="../../d6/d11/classSvtxEvaluator.html#ac66ea4145deb621d9e4fb38cf852dc33" target="_top" xlink:title="SvtxEvaluator::process\l_event">
<polygon fill="none" stroke="#000000" points="722,-361.5 722,-393.5 854,-393.5 854,-361.5 722,-361.5"/>
<text text-anchor="start" x="730" y="-380.5" font-family="FreeSans" font-size="10.00" fill="#000000">SvtxEvaluator::process</text>
<text text-anchor="middle" x="788" y="-368.5" font-family="FreeSans" font-size="10.00" fill="#000000">_event</text>
</a>
</g>
</g>
<!-- Node6&#45;&gt;Node7 -->
<g id="edge6" class="edge">
<title>Node6&#45;&gt;Node7</title>
<path fill="none" stroke="#191970" d="M669.2847,-357.2678C686.7404,-360.2427 705.0006,-363.3547 721.8194,-366.2211"/>
<polygon fill="#191970" stroke="#191970" points="669.5629,-353.7648 659.117,-355.535 668.3868,-360.6653 669.5629,-353.7648"/>
</g>
<!-- Node8&#45;&gt;Node6 -->
<g id="edge8" class="edge">
<title>Node8&#45;&gt;Node6</title>
<path fill="none" stroke="#191970" d="M263.664,-226.4441C330.7727,-239.1675 430.5411,-259.3802 467,-273.5 503.3218,-287.5667 541.7023,-311.3938 565.3799,-327.286"/>
<polygon fill="#191970" stroke="#191970" points="264.0757,-222.9601 253.6002,-224.5457 262.7781,-229.8388 264.0757,-222.9601"/>
</g>
<!-- Node8&#45;&gt;Node9 -->
<g id="edge9" class="edge">
<title>Node8&#45;&gt;Node9</title>
<path fill="none" stroke="#191970" d="M242.6242,-227.9931C251.2577,-231.2891 260.083,-235.1422 268,-239.5 285.7575,-249.2742 286.332,-257.5649 304,-267.5 314.0283,-273.1392 325.2853,-278.1623 336.1576,-282.4381"/>
<polygon fill="#191970" stroke="#191970" points="243.6111,-224.628 233.0169,-224.5112 241.2259,-231.2091 243.6111,-224.628"/>
</g>
<!-- Node10 -->
<g id="node10" class="node">
<title>Node10</title>
<g id="a_node10"><a xlink:href="../../d5/dc4/PHG4Hit_8cc.html#afbcbcb188457ac445ab8006d1f886cca" target="_top" xlink:title="operator\&lt;\&lt;">
<polygon fill="none" stroke="#000000" points="347.5,-204.5 347.5,-224.5 423.5,-224.5 423.5,-204.5 347.5,-204.5"/>
<text text-anchor="middle" x="385.5" y="-211.5" font-family="FreeSans" font-size="10.00" fill="#000000">operator&lt;&lt;</text>
</a>
</g>
</g>
<!-- Node8&#45;&gt;Node10 -->
<g id="edge11" class="edge">
<title>Node8&#45;&gt;Node10</title>
<path fill="none" stroke="#191970" d="M267.3517,-214.5C294.3897,-214.5 324.389,-214.5 347.3927,-214.5"/>
<polygon fill="#191970" stroke="#191970" points="267.1549,-211.0001 257.1549,-214.5 267.1549,-218.0001 267.1549,-211.0001"/>
</g>
<!-- Node11 -->
<g id="node11" class="node">
<title>Node11</title>
<g id="a_node11"><a xlink:href="../../d9/d91/classPHG4TrackFastSim.html#a8719b0f3dfc22c2f7f347acd248ef0e7" target="_top" xlink:title="PHG4TrackFastSim::PHG4Hit\lToMeasurementCylinder">
<polygon fill="none" stroke="#000000" points="305.5,-51.5 305.5,-83.5 465.5,-83.5 465.5,-51.5 305.5,-51.5"/>
<text text-anchor="start" x="313.5" y="-70.5" font-family="FreeSans" font-size="10.00" fill="#000000">PHG4TrackFastSim::PHG4Hit</text>
<text text-anchor="middle" x="385.5" y="-58.5" font-family="FreeSans" font-size="10.00" fill="#000000">ToMeasurementCylinder</text>
</a>
</g>
</g>
<!-- Node8&#45;&gt;Node11 -->
<g id="edge12" class="edge">
<title>Node8&#45;&gt;Node11</title>
<path fill="none" stroke="#191970" d="M261.9598,-199.3598C264.096,-197.8862 266.1213,-196.2708 268,-194.5 302.9829,-161.5256 269.3059,-125.7781 304,-92.5 307.5247,-89.1192 311.4949,-86.1945 315.7373,-83.6646"/>
<polygon fill="#191970" stroke="#191970" points="260.1716,-196.3506 253.2458,-204.3684 263.6599,-202.4195 260.1716,-196.3506"/>
</g>
<!-- Node14 -->
<g id="node14" class="node">
<title>Node14</title>
<g id="a_node14"><a xlink:href="../../d9/d91/classPHG4TrackFastSim.html#a90d412b56b86334f4d8d2f9f773f2773" target="_top" xlink:title="PHG4TrackFastSim::PHG4Hit\lToMeasurementVerticalPlane">
<polygon fill="none" stroke="#000000" points="304,-102.5 304,-134.5 467,-134.5 467,-102.5 304,-102.5"/>
<text text-anchor="start" x="312" y="-121.5" font-family="FreeSans" font-size="10.00" fill="#000000">PHG4TrackFastSim::PHG4Hit</text>
<text text-anchor="middle" x="385.5" y="-109.5" font-family="FreeSans" font-size="10.00" fill="#000000">ToMeasurementVerticalPlane</text>
</a>
</g>
</g>
<!-- Node8&#45;&gt;Node14 -->
<g id="edge15" class="edge">
<title>Node8&#45;&gt;Node14</title>
<path fill="none" stroke="#191970" d="M258.2694,-200.3201C261.6808,-198.5965 264.9559,-196.6648 268,-194.5 290.6105,-178.4207 281.5306,-159.7758 304,-143.5 308.6745,-140.114 313.8163,-137.1794 319.1744,-134.6374"/>
<polygon fill="#191970" stroke="#191970" points="256.7238,-197.1764 248.986,-204.4137 259.5481,-203.5814 256.7238,-197.1764"/>
</g>
<!-- Node15 -->
<g id="node15" class="node">
<title>Node15</title>
<g id="a_node15"><a xlink:href="../../d9/d7b/classQAG4SimulationCalorimeter.html#a5b70cca03633b9708a6aea0b57e21272" target="_top" xlink:title="QAG4SimulationCalorimeter\l::process_event_G4Hit">
<polygon fill="none" stroke="#000000" points="306,-153.5 306,-185.5 465,-185.5 465,-153.5 306,-153.5"/>
<text text-anchor="start" x="314" y="-172.5" font-family="FreeSans" font-size="10.00" fill="#000000">QAG4SimulationCalorimeter</text>
<text text-anchor="middle" x="385.5" y="-160.5" font-family="FreeSans" font-size="10.00" fill="#000000">::process_event_G4Hit</text>
</a>
</g>
</g>
<!-- Node8&#45;&gt;Node15 -->
<g id="edge17" class="edge">
<title>Node8&#45;&gt;Node15</title>
<path fill="none" stroke="#191970" d="M250.2355,-202.0503C271.4159,-196.9534 296.1952,-190.9905 318.7168,-185.5708"/>
<polygon fill="#191970" stroke="#191970" points="249.37,-198.6586 240.4665,-204.4011 251.0078,-205.4643 249.37,-198.6586"/>
</g>
<!-- Node9&#45;&gt;Node6 -->
<g id="edge10" class="edge">
<title>Node9&#45;&gt;Node6</title>
<path fill="none" stroke="#191970" d="M468.0894,-316.808C484.5788,-320.4633 501.7586,-324.2716 517.8038,-327.8284"/>
<polygon fill="#191970" stroke="#191970" points="468.4484,-313.3027 457.9279,-314.5555 466.9334,-320.1368 468.4484,-313.3027"/>
</g>
<!-- Node12 -->
<g id="node12" class="node">
<title>Node12</title>
<g id="a_node12"><a xlink:href="../../d9/d91/classPHG4TrackFastSim.html#ad97cb78cc954aa1cb5ee600795c2ce35" target="_top" xlink:title="PHG4TrackFastSim::Pseudo\lPatternRecognition">
<polygon fill="none" stroke="#000000" points="512,-77.5 512,-109.5 665,-109.5 665,-77.5 512,-77.5"/>
<text text-anchor="start" x="520" y="-96.5" font-family="FreeSans" font-size="10.00" fill="#000000">PHG4TrackFastSim::Pseudo</text>
<text text-anchor="middle" x="588.5" y="-84.5" font-family="FreeSans" font-size="10.00" fill="#000000">PatternRecognition</text>
</a>
</g>
</g>
<!-- Node11&#45;&gt;Node12 -->
<g id="edge13" class="edge">
<title>Node11&#45;&gt;Node12</title>
<path fill="none" stroke="#191970" d="M475.7751,-79.0623C487.81,-80.6037 500.0581,-82.1725 511.8313,-83.6804"/>
<polygon fill="#191970" stroke="#191970" points="476.0946,-75.5747 465.731,-77.7759 475.2053,-82.518 476.0946,-75.5747"/>
</g>
<!-- Node13 -->
<g id="node13" class="node">
<title>Node13</title>
<g id="a_node13"><a xlink:href="../../d9/d91/classPHG4TrackFastSim.html#a8bb22ab279c5f433069774bd2ab0a7ae" target="_top" xlink:title="Process Event, called for each event.">
<polygon fill="none" stroke="#000000" points="710,-77.5 710,-109.5 866,-109.5 866,-77.5 710,-77.5"/>
<text text-anchor="start" x="718" y="-96.5" font-family="FreeSans" font-size="10.00" fill="#000000">PHG4TrackFastSim::process</text>
<text text-anchor="middle" x="788" y="-84.5" font-family="FreeSans" font-size="10.00" fill="#000000">_event</text>
</a>
</g>
</g>
<!-- Node12&#45;&gt;Node13 -->
<g id="edge14" class="edge">
<title>Node12&#45;&gt;Node13</title>
<path fill="none" stroke="#191970" d="M675.1631,-93.5C686.7467,-93.5 698.5698,-93.5 709.9931,-93.5"/>
<polygon fill="#191970" stroke="#191970" points="675.0614,-90.0001 665.0614,-93.5 675.0613,-97.0001 675.0614,-90.0001"/>
</g>
<!-- Node14&#45;&gt;Node12 -->
<g id="edge16" class="edge">
<title>Node14&#45;&gt;Node12</title>
<path fill="none" stroke="#191970" d="M477.299,-107.1947C488.869,-105.7698 500.6086,-104.3241 511.9092,-102.9324"/>
<polygon fill="#191970" stroke="#191970" points="476.6876,-103.7435 467.1904,-108.4396 477.5432,-110.691 476.6876,-103.7435"/>
</g>
<!-- Node16 -->
<g id="node16" class="node">
<title>Node16</title>
<g id="a_node16"><a xlink:href="../../d9/d7b/classQAG4SimulationCalorimeter.html#aa3467829c4182ba4e09f74fd8198cb28" target="_top" xlink:title="QAG4SimulationCalorimeter\l::process_event">
<polygon fill="none" stroke="#000000" points="509,-153.5 509,-185.5 668,-185.5 668,-153.5 509,-153.5"/>
<text text-anchor="start" x="517" y="-172.5" font-family="FreeSans" font-size="10.00" fill="#000000">QAG4SimulationCalorimeter</text>
<text text-anchor="middle" x="588.5" y="-160.5" font-family="FreeSans" font-size="10.00" fill="#000000">::process_event</text>
</a>
</g>
</g>
<!-- Node15&#45;&gt;Node16 -->
<g id="edge18" class="edge">
<title>Node15&#45;&gt;Node16</title>
<path fill="none" stroke="#191970" d="M475.3083,-169.5C486.4466,-169.5 497.7753,-169.5 508.7482,-169.5"/>
<polygon fill="#191970" stroke="#191970" points="475.1484,-166.0001 465.1483,-169.5 475.1483,-173.0001 475.1484,-166.0001"/>
</g>
<!-- Node18&#45;&gt;Node6 -->
<g id="edge21" class="edge">
<title>Node18&#45;&gt;Node6</title>
<path fill="none" stroke="#191970" d="M270.4238,-380.2011C340.9067,-372.0685 447.6738,-359.7492 517.7503,-351.6634"/>
<polygon fill="#191970" stroke="#191970" points="269.8295,-376.7464 260.2967,-381.3696 270.632,-383.7002 269.8295,-376.7464"/>
</g>
<!-- Node19&#45;&gt;Node7 -->
<g id="edge24" class="edge">
<title>Node19&#45;&gt;Node7</title>
<path fill="none" stroke="#191970" d="M657.3677,-399.7631C678.2883,-396.1977 701.2196,-392.2896 721.9503,-388.7566"/>
<polygon fill="#191970" stroke="#191970" points="656.5474,-396.3524 647.2776,-401.4828 657.7235,-403.2529 656.5474,-396.3524"/>
</g>
<!-- Node21 -->
<g id="node21" class="node">
<title>Node21</title>
<g id="a_node21"><a xlink:href="../../dd/d9d/classPHG4TruthEventAction.html#aadf84e52ab9bcf0b8fb892c626b53c27" target="_top" xlink:title="PHG4TruthEventAction\l::EndOfEventAction">
<polygon fill="none" stroke="#000000" points="320.5,-.5 320.5,-32.5 450.5,-32.5 450.5,-.5 320.5,-.5"/>
<text text-anchor="start" x="328.5" y="-19.5" font-family="FreeSans" font-size="10.00" fill="#000000">PHG4TruthEventAction</text>
<text text-anchor="middle" x="385.5" y="-7.5" font-family="FreeSans" font-size="10.00" fill="#000000">::EndOfEventAction</text>
</a>
</g>
</g>
<!-- Node20&#45;&gt;Node21 -->
<g id="edge26" class="edge">
<title>Node20&#45;&gt;Node21</title>
<path fill="none" stroke="#191970" d="M263.4879,-147.6093C265.0693,-146.3164 266.5787,-144.9481 268,-143.5 301.6743,-109.1904 269.3059,-74.7781 304,-41.5 308.8064,-36.8898 314.4413,-33.1278 320.465,-30.0584"/>
<polygon fill="#191970" stroke="#191970" points="261.2733,-144.886 255.0564,-153.4651 265.2664,-150.6354 261.2733,-144.886"/>
</g>
</g>
</svg>
