<?xml version="1.0" encoding="UTF-8" standalone="no"?>
<!DOCTYPE svg PUBLIC "-//W3C//DTD SVG 1.1//EN"
 "http://www.w3.org/Graphics/SVG/1.1/DTD/svg11.dtd">
<!-- Generated by graphviz version 2.40.1 (20161225.0304)
 -->
<!-- Title: PHG4ParticleGeneratorBase::set_mom Pages: 1 -->
<svg width="362pt" height="614pt"
 viewBox="0.00 0.00 362.00 614.00" xmlns="http://www.w3.org/2000/svg" xmlns:xlink="http://www.w3.org/1999/xlink">
<g id="graph0" class="graph" transform="scale(1 1) rotate(0) translate(4 610)">
<title>PHG4ParticleGeneratorBase::set_mom</title>
<!-- Node1 -->
<g id="node1" class="node">
<title>Node1</title>
<polygon fill="#bfbfbf" stroke="#000000" points="0,-286.5 0,-318.5 157,-318.5 157,-286.5 0,-286.5"/>
<text text-anchor="start" x="8" y="-305.5" font-family="FreeSans" font-size="10.00" fill="#000000">PHG4ParticleGeneratorBase</text>
<text text-anchor="middle" x="78.5" y="-293.5" font-family="FreeSans" font-size="10.00" fill="#000000">::set_mom</text>
</g>
<!-- Node2 -->
<g id="node2" class="node">
<title>Node2</title>
<g id="a_node2"><a xlink:href="../../db/dc0/Fun4All__AnaTutorial_8C.html#a8c484ea6d7477278e981ef056b17eac9" target="_top" xlink:title="Fun4All_AnaTutorial">
<polygon fill="none" stroke="#000000" points="216,-585.5 216,-605.5 331,-605.5 331,-585.5 216,-585.5"/>
<text text-anchor="middle" x="273.5" y="-592.5" font-family="FreeSans" font-size="10.00" fill="#000000">Fun4All_AnaTutorial</text>
</a>
</g>
</g>
<!-- Node1&#45;&gt;Node2 -->
<g id="edge1" class="edge">
<title>Node1&#45;&gt;Node2</title>
<path fill="none" stroke="#191970" d="M81.5578,-328.6979C89.4007,-383.5204 115.405,-510.6935 193,-576.5 199.571,-582.0727 207.4838,-586.0769 215.7485,-588.9417"/>
<polygon fill="#191970" stroke="#191970" points="85.0202,-328.1834 80.2215,-318.7377 78.0824,-329.1143 85.0202,-328.1834"/>
</g>
<!-- Node3 -->
<g id="node3" class="node">
<title>Node3</title>
<g id="a_node3"><a xlink:href="../../dd/d28/Fun4All__AnaTutorial__Jets_8C.html#a55eaaeb770a3177f917012de87877d28" target="_top" xlink:title="Fun4All_AnaTutorial_Jets">
<polygon fill="none" stroke="#000000" points="204,-546.5 204,-566.5 343,-566.5 343,-546.5 204,-546.5"/>
<text text-anchor="middle" x="273.5" y="-553.5" font-family="FreeSans" font-size="10.00" fill="#000000">Fun4All_AnaTutorial_Jets</text>
</a>
</g>
</g>
<!-- Node1&#45;&gt;Node3 -->
<g id="edge2" class="edge">
<title>Node1&#45;&gt;Node3</title>
<path fill="none" stroke="#191970" d="M83.5554,-328.6736C94.428,-377.6132 124.7921,-482.9496 193,-537.5 197.4857,-541.0875 202.535,-544.0178 207.8622,-546.4087"/>
<polygon fill="#191970" stroke="#191970" points="86.9141,-327.6398 81.4151,-318.5838 80.0665,-329.0924 86.9141,-327.6398"/>
</g>
<!-- Node4 -->
<g id="node4" class="node">
<title>Node4</title>
<g id="a_node4"><a xlink:href="../../de/d55/Fun4All__G4__block_8C.html#a6a063a649a0dd3318a517d5af98430dd" target="_top" xlink:title="Fun4All_G4_block">
<polygon fill="none" stroke="#000000" points="221,-507.5 221,-527.5 326,-527.5 326,-507.5 221,-507.5"/>
<text text-anchor="middle" x="273.5" y="-514.5" font-family="FreeSans" font-size="10.00" fill="#000000">Fun4All_G4_block</text>
</a>
</g>
</g>
<!-- Node1&#45;&gt;Node4 -->
<g id="edge3" class="edge">
<title>Node1&#45;&gt;Node4</title>
<path fill="none" stroke="#191970" d="M86.1451,-328.2518C100.108,-370.64 133.8781,-454.7621 193,-498.5 201.1963,-504.5635 211.0382,-508.7252 220.9825,-511.5735"/>
<polygon fill="#191970" stroke="#191970" points="89.4613,-327.1306 83.0921,-318.664 82.7913,-329.2546 89.4613,-327.1306"/>
</g>
<!-- Node5 -->
<g id="node5" class="node">
<title>Node5</title>
<g id="a_node5"><a xlink:href="../../d5/d7d/Fun4All__G4__Example01_8C.html#ab61e640155444e40e5ff32fe50125b4d" target="_top" xlink:title="Fun4All_G4_Example01">
<polygon fill="none" stroke="#000000" points="206,-468.5 206,-488.5 341,-488.5 341,-468.5 206,-468.5"/>
<text text-anchor="middle" x="273.5" y="-475.5" font-family="FreeSans" font-size="10.00" fill="#000000">Fun4All_G4_Example01</text>
</a>
</g>
</g>
<!-- Node1&#45;&gt;Node5 -->
<g id="edge4" class="edge">
<title>Node1&#45;&gt;Node5</title>
<path fill="none" stroke="#191970" d="M89.9096,-327.9475C107.0636,-363.1816 142.9088,-426.234 193,-459.5 198.5026,-463.1543 204.6268,-466.1088 210.9716,-468.497"/>
<polygon fill="#191970" stroke="#191970" points="93.0171,-326.3318 85.5706,-318.7952 86.6919,-329.3306 93.0171,-326.3318"/>
</g>
<!-- Node6 -->
<g id="node6" class="node">
<title>Node6</title>
<g id="a_node6"><a xlink:href="../../df/ddd/Fun4All__G4__Example02_8C.html#a828c51f9608f078106cef9343df49316" target="_top" xlink:title="Fun4All_G4_Example02">
<polygon fill="none" stroke="#000000" points="206,-429.5 206,-449.5 341,-449.5 341,-429.5 206,-429.5"/>
<text text-anchor="middle" x="273.5" y="-436.5" font-family="FreeSans" font-size="10.00" fill="#000000">Fun4All_G4_Example02</text>
</a>
</g>
</g>
<!-- Node1&#45;&gt;Node6 -->
<g id="edge5" class="edge">
<title>Node1&#45;&gt;Node6</title>
<path fill="none" stroke="#191970" d="M95.385,-326.8716C115.4745,-353.9613 151.5553,-396.9836 193,-420.5 199.3695,-424.1142 206.3961,-427.0424 213.5651,-429.4145"/>
<polygon fill="#191970" stroke="#191970" points="98.1455,-324.7164 89.4378,-318.681 92.4812,-328.8293 98.1455,-324.7164"/>
</g>
<!-- Node7 -->
<g id="node7" class="node">
<title>Node7</title>
<g id="a_node7"><a xlink:href="../../d1/dc4/Fun4All__G4__Example03_8C.html#a6519821c64f56c74d049579392dfac3f" target="_top" xlink:title="Fun4All_G4_Example03">
<polygon fill="none" stroke="#000000" points="206,-390.5 206,-410.5 341,-410.5 341,-390.5 206,-390.5"/>
<text text-anchor="middle" x="273.5" y="-397.5" font-family="FreeSans" font-size="10.00" fill="#000000">Fun4All_G4_Example03</text>
</a>
</g>
</g>
<!-- Node1&#45;&gt;Node7 -->
<g id="edge6" class="edge">
<title>Node1&#45;&gt;Node7</title>
<path fill="none" stroke="#191970" d="M104.9619,-325.0432C127.1307,-342.8305 160.3142,-366.9869 193,-381.5 201.0057,-385.0547 209.7668,-387.9941 218.4688,-390.4097"/>
<polygon fill="#191970" stroke="#191970" points="106.9899,-322.1807 97.0288,-318.5712 102.5649,-327.6047 106.9899,-322.1807"/>
</g>
<!-- Node8 -->
<g id="node8" class="node">
<title>Node8</title>
<g id="a_node8"><a xlink:href="../../d2/de6/Fun4All__G4__FAIR_8C.html#a0f795c46d42e46f79023437a1db4dc29" target="_top" xlink:title="Fun4All_G4_FAIR">
<polygon fill="none" stroke="#000000" points="223.5,-351.5 223.5,-371.5 323.5,-371.5 323.5,-351.5 223.5,-351.5"/>
<text text-anchor="middle" x="273.5" y="-358.5" font-family="FreeSans" font-size="10.00" fill="#000000">Fun4All_G4_FAIR</text>
</a>
</g>
</g>
<!-- Node1&#45;&gt;Node8 -->
<g id="edge7" class="edge">
<title>Node1&#45;&gt;Node8</title>
<path fill="none" stroke="#191970" d="M130.6842,-322.0186C150.1045,-328.9406 172.4225,-336.495 193,-342.5 204.0278,-345.7181 216.0245,-348.7804 227.3077,-351.47"/>
<polygon fill="#191970" stroke="#191970" points="131.7059,-318.6667 121.1115,-318.5749 129.3363,-325.2534 131.7059,-318.6667"/>
</g>
<!-- Node9 -->
<g id="node9" class="node">
<title>Node9</title>
<g id="a_node9"><a xlink:href="../../da/de9/Fun4All__G4__FAIR__barrel__only_8C.html#ad17d6575f5ac06812f55b6cef25e64ba" target="_top" xlink:title="Fun4All_G4_FAIR_barrel_only">
<polygon fill="none" stroke="#000000" points="193,-312.5 193,-332.5 354,-332.5 354,-312.5 193,-312.5"/>
<text text-anchor="middle" x="273.5" y="-319.5" font-family="FreeSans" font-size="10.00" fill="#000000">Fun4All_G4_FAIR_barrel_only</text>
</a>
</g>
</g>
<!-- Node1&#45;&gt;Node9 -->
<g id="edge8" class="edge">
<title>Node1&#45;&gt;Node9</title>
<path fill="none" stroke="#191970" d="M167.225,-311.6C175.7696,-312.4764 184.4049,-313.362 192.8654,-314.2298"/>
<polygon fill="#191970" stroke="#191970" points="167.5568,-308.1158 157.2519,-310.5771 166.8426,-315.0792 167.5568,-308.1158"/>
</g>
<!-- Node10 -->
<g id="node10" class="node">
<title>Node10</title>
<g id="a_node10"><a xlink:href="../../d7/dc5/Fun4All__G4__FastMom_8C.html#ab9349be2377fe9e9a634a8607cff2555" target="_top" xlink:title="Fun4All_G4_FastMom">
<polygon fill="none" stroke="#000000" points="212,-273.5 212,-293.5 335,-293.5 335,-273.5 212,-273.5"/>
<text text-anchor="middle" x="273.5" y="-280.5" font-family="FreeSans" font-size="10.00" fill="#000000">Fun4All_G4_FastMom</text>
</a>
</g>
</g>
<!-- Node1&#45;&gt;Node10 -->
<g id="edge9" class="edge">
<title>Node1&#45;&gt;Node10</title>
<path fill="none" stroke="#191970" d="M167.5564,-293.8227C182.5278,-292.364 197.7666,-290.8791 211.8468,-289.5072"/>
<polygon fill="#191970" stroke="#191970" points="166.8653,-290.3734 157.2519,-294.8267 167.5442,-297.3404 166.8653,-290.3734"/>
</g>
<!-- Node11 -->
<g id="node11" class="node">
<title>Node11</title>
<g id="a_node11"><a xlink:href="../../dc/d3f/Fun4All__G4__Geantino_8C.html#a2a4c70246a9a6288b367a2fa7c1d1087" target="_top" xlink:title="Fun4All_G4_Geantino">
<polygon fill="none" stroke="#000000" points="211.5,-234.5 211.5,-254.5 335.5,-254.5 335.5,-234.5 211.5,-234.5"/>
<text text-anchor="middle" x="273.5" y="-241.5" font-family="FreeSans" font-size="10.00" fill="#000000">Fun4All_G4_Geantino</text>
</a>
</g>
</g>
<!-- Node1&#45;&gt;Node11 -->
<g id="edge10" class="edge">
<title>Node1&#45;&gt;Node11</title>
<path fill="none" stroke="#191970" d="M133.7601,-283.2071C152.473,-276.929 173.556,-270.1329 193,-264.5 205.0337,-261.0139 218.1855,-257.5873 230.3056,-254.5825"/>
<polygon fill="#191970" stroke="#191970" points="132.5648,-279.9165 124.2118,-286.434 134.806,-286.548 132.5648,-279.9165"/>
</g>
<!-- Node12 -->
<g id="node12" class="node">
<title>Node12</title>
<g id="a_node12"><a xlink:href="../../d0/d87/Fun4All__G4__JLeic_8C.html#a66e8fc0b01ee0a8e805c7b99c4698974" target="_top" xlink:title="Fun4All_G4_JLeic">
<polygon fill="none" stroke="#000000" points="223,-195.5 223,-215.5 324,-215.5 324,-195.5 223,-195.5"/>
<text text-anchor="middle" x="273.5" y="-202.5" font-family="FreeSans" font-size="10.00" fill="#000000">Fun4All_G4_JLeic</text>
</a>
</g>
</g>
<!-- Node1&#45;&gt;Node12 -->
<g id="edge11" class="edge">
<title>Node1&#45;&gt;Node12</title>
<path fill="none" stroke="#191970" d="M105.9063,-280.0363C128.1482,-262.8368 160.9656,-239.7201 193,-225.5 202.3451,-221.3517 212.6986,-217.9661 222.7823,-215.2391"/>
<polygon fill="#191970" stroke="#191970" points="103.6249,-277.3776 97.9234,-286.3075 107.9492,-282.8822 103.6249,-277.3776"/>
</g>
<!-- Node13 -->
<g id="node13" class="node">
<title>Node13</title>
<g id="a_node13"><a xlink:href="../../d9/d1f/Fun4All__G4__Lmon_8C.html#a4f09ca292c4b3a82ce38b19ac3858d74" target="_top" xlink:title="Fun4All_G4_Lmon">
<polygon fill="none" stroke="#000000" points="220.5,-156.5 220.5,-176.5 326.5,-176.5 326.5,-156.5 220.5,-156.5"/>
<text text-anchor="middle" x="273.5" y="-163.5" font-family="FreeSans" font-size="10.00" fill="#000000">Fun4All_G4_Lmon</text>
</a>
</g>
</g>
<!-- Node1&#45;&gt;Node13 -->
<g id="edge12" class="edge">
<title>Node1&#45;&gt;Node13</title>
<path fill="none" stroke="#191970" d="M95.8587,-278.204C116.1426,-251.6358 152.1747,-209.7511 193,-186.5 201.384,-181.7251 210.8935,-178.0796 220.3651,-175.2994"/>
<polygon fill="#191970" stroke="#191970" points="93.0281,-276.1449 89.8402,-286.2488 98.6331,-280.3381 93.0281,-276.1449"/>
</g>
<!-- Node14 -->
<g id="node14" class="node">
<title>Node14</title>
<g id="a_node14"><a xlink:href="../../dd/d8d/Fun4All__G4__Magnet_8C.html#a375961511ba614ba387343e652ab0202" target="_top" xlink:title="Fun4All_G4_Magnet">
<polygon fill="none" stroke="#000000" points="215.5,-117.5 215.5,-137.5 331.5,-137.5 331.5,-117.5 215.5,-117.5"/>
<text text-anchor="middle" x="273.5" y="-124.5" font-family="FreeSans" font-size="10.00" fill="#000000">Fun4All_G4_Magnet</text>
</a>
</g>
</g>
<!-- Node1&#45;&gt;Node14 -->
<g id="edge13" class="edge">
<title>Node1&#45;&gt;Node14</title>
<path fill="none" stroke="#191970" d="M90.0503,-277.4561C107.3725,-242.7658 143.4173,-180.6294 193,-147.5 199.7053,-143.0198 207.3291,-139.5426 215.1486,-136.8441"/>
<polygon fill="#191970" stroke="#191970" points="86.8945,-275.9426 85.6654,-286.4659 93.1887,-279.0059 86.8945,-275.9426"/>
</g>
<!-- Node15 -->
<g id="node15" class="node">
<title>Node15</title>
<g id="a_node15"><a xlink:href="../../d1/d54/Fun4All__G4__MyDetector_8C.html#a42ff88b75bd8510ae12cc9757b9a693b" target="_top" xlink:title="Fun4All_G4_MyDetector">
<polygon fill="none" stroke="#000000" points="205,-78.5 205,-98.5 342,-98.5 342,-78.5 205,-78.5"/>
<text text-anchor="middle" x="273.5" y="-85.5" font-family="FreeSans" font-size="10.00" fill="#000000">Fun4All_G4_MyDetector</text>
</a>
</g>
</g>
<!-- Node1&#45;&gt;Node15 -->
<g id="edge14" class="edge">
<title>Node1&#45;&gt;Node15</title>
<path fill="none" stroke="#191970" d="M86.4748,-276.5048C100.7497,-234.4712 134.7534,-151.9181 193,-108.5 198.4265,-104.455 204.5739,-101.2211 210.9945,-98.6369"/>
<polygon fill="#191970" stroke="#191970" points="83.0628,-275.6769 83.2679,-286.2698 89.7134,-277.8611 83.0628,-275.6769"/>
</g>
<!-- Node16 -->
<g id="node16" class="node">
<title>Node16</title>
<g id="a_node16"><a xlink:href="../../d0/d13/Fun4All__G4__sPHENIX_8C.html#a536fa7366e3aeaf273cca94ced704c46" target="_top" xlink:title="Fun4All_G4_sPHENIX">
<polygon fill="none" stroke="#000000" points="213,-39.5 213,-59.5 334,-59.5 334,-39.5 213,-39.5"/>
<text text-anchor="middle" x="273.5" y="-46.5" font-family="FreeSans" font-size="10.00" fill="#000000">Fun4All_G4_sPHENIX</text>
</a>
</g>
</g>
<!-- Node1&#45;&gt;Node16 -->
<g id="edge15" class="edge">
<title>Node1&#45;&gt;Node16</title>
<path fill="none" stroke="#191970" d="M83.7648,-276.2662C94.922,-227.7074 125.6509,-123.8266 193,-69.5 198.8284,-64.7985 205.6105,-61.1818 212.7183,-58.4032"/>
<polygon fill="#191970" stroke="#191970" points="80.2902,-275.7708 81.5618,-286.2891 87.127,-277.2736 80.2902,-275.7708"/>
</g>
<!-- Node17 -->
<g id="node17" class="node">
<title>Node17</title>
<g id="a_node17"><a xlink:href="../../d1/d9c/Fun4All__G4__Write__Dst_8C.html#a97c6c9ea797219c94a95ae2fe4bc79c3" target="_top" xlink:title="Fun4All_G4_Write_Dst">
<polygon fill="none" stroke="#000000" points="210,-.5 210,-20.5 337,-20.5 337,-.5 210,-.5"/>
<text text-anchor="middle" x="273.5" y="-7.5" font-family="FreeSans" font-size="10.00" fill="#000000">Fun4All_G4_Write_Dst</text>
</a>
</g>
</g>
<!-- Node1&#45;&gt;Node17 -->
<g id="edge16" class="edge">
<title>Node1&#45;&gt;Node17</title>
<path fill="none" stroke="#191970" d="M81.7315,-276.2196C89.8689,-221.7398 116.3459,-96.1118 193,-30.5 197.9231,-26.2861 203.6028,-22.9357 209.6209,-20.2753"/>
<polygon fill="#191970" stroke="#191970" points="78.2233,-276.0344 80.3004,-286.4236 85.1555,-277.0066 78.2233,-276.0344"/>
</g>
</g>
</svg>
