<?xml version="1.0" encoding="UTF-8" standalone="no"?>
<!DOCTYPE svg PUBLIC "-//W3C//DTD SVG 1.1//EN"
 "http://www.w3.org/Graphics/SVG/1.1/DTD/svg11.dtd">
<!-- Generated by graphviz version 2.40.1 (20161225.0304)
 -->
<!-- Title: fun4all_coresoftware/blob/master/simulation/g4simulation/g4tpc/PHG4TpcSpaceChargeDistortion.h Pages: 1 -->
<svg width="218pt" height="179pt"
 viewBox="0.00 0.00 218.00 179.00" xmlns="http://www.w3.org/2000/svg" xmlns:xlink="http://www.w3.org/1999/xlink">
<g id="graph0" class="graph" transform="scale(1 1) rotate(0) translate(4 175)">
<title>fun4all_coresoftware/blob/master/simulation/g4simulation/g4tpc/PHG4TpcSpaceChargeDistortion.h</title>
<!-- Node1 -->
<g id="node1" class="node">
<title>Node1</title>
<polygon fill="#bfbfbf" stroke="#000000" points="11,-114.5 11,-170.5 210,-170.5 210,-114.5 11,-114.5"/>
<text text-anchor="start" x="19" y="-157.5" font-family="FreeSans" font-size="10.00" fill="#000000">fun4all_coresoftware</text>
<text text-anchor="start" x="19" y="-145.5" font-family="FreeSans" font-size="10.00" fill="#000000">/blob/master/simulation</text>
<text text-anchor="start" x="19" y="-133.5" font-family="FreeSans" font-size="10.00" fill="#000000">/g4simulation/g4tpc/PHG4TpcSpace</text>
<text text-anchor="middle" x="110.5" y="-121.5" font-family="FreeSans" font-size="10.00" fill="#000000">ChargeDistortion.h</text>
</g>
<!-- Node2 -->
<g id="node2" class="node">
<title>Node2</title>
<g id="a_node2"><a xlink:href="../../de/d9f/PHG4TpcDistortion_8h.html" target="_top" xlink:title="PHG4TpcDistortion.h">
<polygon fill="none" stroke="#000000" points="0,-57.5 0,-77.5 121,-77.5 121,-57.5 0,-57.5"/>
<text text-anchor="middle" x="60.5" y="-64.5" font-family="FreeSans" font-size="10.00" fill="#000000">PHG4TpcDistortion.h</text>
</a>
</g>
</g>
<!-- Node1&#45;&gt;Node2 -->
<g id="edge1" class="edge">
<title>Node1&#45;&gt;Node2</title>
<path fill="none" stroke="#191970" d="M91.5971,-114.1457C85.342,-104.763 78.5446,-94.5669 72.9047,-86.1071"/>
<polygon fill="#191970" stroke="#191970" points="75.7789,-84.1086 67.3197,-77.7296 69.9546,-87.9915 75.7789,-84.1086"/>
</g>
<!-- Node4 -->
<g id="node4" class="node">
<title>Node4</title>
<polygon fill="none" stroke="#bfbfbf" points="139,-57.5 139,-77.5 184,-77.5 184,-57.5 139,-57.5"/>
<text text-anchor="middle" x="161.5" y="-64.5" font-family="FreeSans" font-size="10.00" fill="#000000">string</text>
</g>
<!-- Node1&#45;&gt;Node4 -->
<g id="edge3" class="edge">
<title>Node1&#45;&gt;Node4</title>
<path fill="none" stroke="#191970" d="M129.7809,-114.1457C136.1611,-104.763 143.0945,-94.5669 148.8472,-86.1071"/>
<polygon fill="#191970" stroke="#191970" points="151.815,-87.9669 154.5439,-77.7296 146.0265,-84.0307 151.815,-87.9669"/>
</g>
<!-- Node3 -->
<g id="node3" class="node">
<title>Node3</title>
<polygon fill="none" stroke="#bfbfbf" points="20.5,-.5 20.5,-20.5 100.5,-20.5 100.5,-.5 20.5,-.5"/>
<text text-anchor="middle" x="60.5" y="-7.5" font-family="FreeSans" font-size="10.00" fill="#000000">gsl/gsl_rng.h</text>
</g>
<!-- Node2&#45;&gt;Node3 -->
<g id="edge2" class="edge">
<title>Node2&#45;&gt;Node3</title>
<path fill="none" stroke="#191970" d="M60.5,-57.3095C60.5,-49.9335 60.5,-39.72 60.5,-30.715"/>
<polygon fill="#191970" stroke="#191970" points="64.0001,-30.6022 60.5,-20.6022 57.0001,-30.6023 64.0001,-30.6022"/>
</g>
</g>
</svg>
