<?xml version="1.0" encoding="UTF-8" standalone="no"?>
<!DOCTYPE svg PUBLIC "-//W3C//DTD SVG 1.1//EN"
 "http://www.w3.org/Graphics/SVG/1.1/DTD/svg11.dtd">
<!-- Generated by graphviz version 2.40.1 (20161225.0304)
 -->
<!-- Title: fun4all_g4jleic/blob/master/macros/Fun4All_G4_JLeic.C Pages: 1 -->
<svg width="3315pt" height="374pt"
 viewBox="0.00 0.00 3314.50 374.00" xmlns="http://www.w3.org/2000/svg" xmlns:xlink="http://www.w3.org/1999/xlink">
<g id="graph0" class="graph" transform="scale(1 1) rotate(0) translate(4 370)">
<title>fun4all_g4jleic/blob/master/macros/Fun4All_G4_JLeic.C</title>
<!-- Node1 -->
<g id="node1" class="node">
<title>Node1</title>
<polygon fill="#bfbfbf" stroke="#000000" points="1396,-321.5 1396,-365.5 1533,-365.5 1533,-321.5 1396,-321.5"/>
<text text-anchor="start" x="1404" y="-352.5" font-family="FreeSans" font-size="10.00" fill="#000000">fun4all_g4jleic/blob</text>
<text text-anchor="start" x="1404" y="-340.5" font-family="FreeSans" font-size="10.00" fill="#000000">/master/macros/Fun4All</text>
<text text-anchor="middle" x="1464.5" y="-328.5" font-family="FreeSans" font-size="10.00" fill="#000000">_G4_JLeic.C</text>
</g>
<!-- Node2 -->
<g id="node2" class="node">
<title>Node2</title>
<g id="a_node2"><a xlink:href="../../d5/dc2/SubsysReco_8h.html" target="_top" xlink:title="fun4all/SubsysReco.h">
<polygon fill="none" stroke="#000000" points="1467.5,-120.5 1467.5,-140.5 1591.5,-140.5 1591.5,-120.5 1467.5,-120.5"/>
<text text-anchor="middle" x="1529.5" y="-127.5" font-family="FreeSans" font-size="10.00" fill="#000000">fun4all/SubsysReco.h</text>
</a>
</g>
</g>
<!-- Node1&#45;&gt;Node2 -->
<g id="edge1" class="edge">
<title>Node1&#45;&gt;Node2</title>
<path fill="none" stroke="#191970" d="M1533.02,-336.9263C1599.0714,-329.0051 1692.204,-313.1155 1714.5,-285 1763.6921,-222.9681 1639.1295,-168.2391 1570.7689,-143.8996"/>
<polygon fill="#191970" stroke="#191970" points="1571.7129,-140.5221 1561.1181,-140.5317 1569.4065,-147.1312 1571.7129,-140.5221"/>
</g>
<!-- Node5 -->
<g id="node5" class="node">
<title>Node5</title>
<g id="a_node5"><a xlink:href="../../dc/da2/Fun4AllServer_8h.html" target="_top" xlink:title="fun4all/Fun4AllServer.h">
<polygon fill="none" stroke="#000000" points="1834,-189.5 1834,-209.5 1967,-209.5 1967,-189.5 1834,-189.5"/>
<text text-anchor="middle" x="1900.5" y="-196.5" font-family="FreeSans" font-size="10.00" fill="#000000">fun4all/Fun4AllServer.h</text>
</a>
</g>
</g>
<!-- Node1&#45;&gt;Node5 -->
<g id="edge5" class="edge">
<title>Node1&#45;&gt;Node5</title>
<path fill="none" stroke="#191970" d="M1533.0442,-340.6719C1665.9829,-334.4803 1948.403,-317.6037 1977.5,-285 1999.5588,-260.2828 1960.7216,-231.7079 1930.631,-214.6469"/>
<polygon fill="#191970" stroke="#191970" points="1932.104,-211.4633 1921.6505,-209.7387 1928.7469,-217.6058 1932.104,-211.4633"/>
</g>
<!-- Node12 -->
<g id="node12" class="node">
<title>Node12</title>
<g id="a_node12"><a xlink:href="../../d1/de7/Fun4AllInputManager_8h.html" target="_top" xlink:title="fun4all/Fun4AllInputManager.h">
<polygon fill="none" stroke="#000000" points="1202,-120.5 1202,-140.5 1373,-140.5 1373,-120.5 1202,-120.5"/>
<text text-anchor="middle" x="1287.5" y="-127.5" font-family="FreeSans" font-size="10.00" fill="#000000">fun4all/Fun4AllInputManager.h</text>
</a>
</g>
</g>
<!-- Node1&#45;&gt;Node12 -->
<g id="edge19" class="edge">
<title>Node1&#45;&gt;Node12</title>
<path fill="none" stroke="#191970" d="M1395.8333,-337.9701C1290.0027,-328.7436 1097.0231,-308.8493 1076.5,-285 1066.9334,-273.8829 1066.9465,-263.1284 1076.5,-252 1145.326,-171.8275 1242.674,-296.1725 1311.5,-216 1327.725,-197.1002 1313.9117,-168.002 1301.5123,-149.1054"/>
<polygon fill="#191970" stroke="#191970" points="1304.268,-146.9381 1295.6768,-140.7378 1298.5263,-150.9423 1304.268,-146.9381"/>
</g>
<!-- Node16 -->
<g id="node16" class="node">
<title>Node16</title>
<g id="a_node16"><a xlink:href="../../d8/d8f/Fun4AllDummyInputManager_8h.html" target="_top" xlink:title="fun4all/Fun4AllDummyInput\lManager.h">
<polygon fill="none" stroke="#000000" points="775.5,-183.5 775.5,-215.5 933.5,-215.5 933.5,-183.5 775.5,-183.5"/>
<text text-anchor="start" x="783.5" y="-202.5" font-family="FreeSans" font-size="10.00" fill="#000000">fun4all/Fun4AllDummyInput</text>
<text text-anchor="middle" x="854.5" y="-190.5" font-family="FreeSans" font-size="10.00" fill="#000000">Manager.h</text>
</a>
</g>
</g>
<!-- Node1&#45;&gt;Node16 -->
<g id="edge27" class="edge">
<title>Node1&#45;&gt;Node16</title>
<path fill="none" stroke="#191970" d="M1395.8493,-337.2749C1289.632,-327.1609 1090.5999,-306.1536 1022.5,-285 973.2208,-269.6926 920.9135,-240.8063 888.0028,-220.8752"/>
<polygon fill="#191970" stroke="#191970" points="889.6077,-217.7538 879.2532,-215.5098 885.9484,-223.7211 889.6077,-217.7538"/>
</g>
<!-- Node17 -->
<g id="node17" class="node">
<title>Node17</title>
<g id="a_node17"><a xlink:href="../../de/df8/Fun4AllOutputManager_8h.html" target="_top" xlink:title="fun4all/Fun4AllOutputManager.h">
<polygon fill="none" stroke="#000000" points="813.5,-120.5 813.5,-140.5 993.5,-140.5 993.5,-120.5 813.5,-120.5"/>
<text text-anchor="middle" x="903.5" y="-127.5" font-family="FreeSans" font-size="10.00" fill="#000000">fun4all/Fun4AllOutputManager.h</text>
</a>
</g>
</g>
<!-- Node1&#45;&gt;Node17 -->
<g id="edge31" class="edge">
<title>Node1&#45;&gt;Node17</title>
<path fill="none" stroke="#191970" d="M1395.9271,-341.5205C1295.1762,-337.3361 1101.8388,-324.4351 942.5,-285 860.9419,-264.815 813.8423,-285.4109 766.5,-216 741.9658,-180.0292 797.6169,-156.2359 845.1945,-143.0832"/>
<polygon fill="#191970" stroke="#191970" points="846.1141,-146.4604 854.884,-140.5157 844.3211,-139.6939 846.1141,-146.4604"/>
</g>
<!-- Node19 -->
<g id="node19" class="node">
<title>Node19</title>
<g id="a_node19"><a xlink:href="../../dd/de7/Fun4AllDstInputManager_8h.html" target="_top" xlink:title="fun4all/Fun4AllDstInputManager.h">
<polygon fill="none" stroke="#000000" points="227.5,-189.5 227.5,-209.5 415.5,-209.5 415.5,-189.5 227.5,-189.5"/>
<text text-anchor="middle" x="321.5" y="-196.5" font-family="FreeSans" font-size="10.00" fill="#000000">fun4all/Fun4AllDstInputManager.h</text>
</a>
</g>
</g>
<!-- Node1&#45;&gt;Node19 -->
<g id="edge36" class="edge">
<title>Node1&#45;&gt;Node19</title>
<path fill="none" stroke="#191970" d="M1395.8827,-341.8525C1188.8162,-336.5335 579.3232,-318.2064 496.5,-285 475.4249,-276.5503 477.0293,-263.5828 457.5,-252 428.9033,-235.0393 393.8432,-221.6608 366.4834,-212.6544"/>
<polygon fill="#191970" stroke="#191970" points="367.3695,-209.2629 356.7781,-209.5354 365.2278,-215.9272 367.3695,-209.2629"/>
</g>
<!-- Node20 -->
<g id="node20" class="node">
<title>Node20</title>
<g id="a_node20"><a xlink:href="../../d2/dab/Fun4AllNoSyncDstInputManager_8h.html" target="_top" xlink:title="fun4all/Fun4AllNoSyncDst\lInputManager.h">
<polygon fill="none" stroke="#000000" points="302,-252.5 302,-284.5 449,-284.5 449,-252.5 302,-252.5"/>
<text text-anchor="start" x="310" y="-271.5" font-family="FreeSans" font-size="10.00" fill="#000000">fun4all/Fun4AllNoSyncDst</text>
<text text-anchor="middle" x="375.5" y="-259.5" font-family="FreeSans" font-size="10.00" fill="#000000">InputManager.h</text>
</a>
</g>
</g>
<!-- Node1&#45;&gt;Node20 -->
<g id="edge40" class="edge">
<title>Node1&#45;&gt;Node20</title>
<path fill="none" stroke="#191970" d="M1395.9618,-342.4895C1233.4704,-339.4422 812.3204,-327.7195 463.5,-285 462.1982,-284.8406 460.8866,-284.6737 459.5673,-284.5001"/>
<polygon fill="#191970" stroke="#191970" points="459.7283,-280.988 449.3357,-283.048 458.7446,-287.9185 459.7283,-280.988"/>
</g>
<!-- Node21 -->
<g id="node21" class="node">
<title>Node21</title>
<g id="a_node21"><a xlink:href="../../db/d22/Fun4AllDstOutputManager_8h.html" target="_top" xlink:title="fun4all/Fun4AllDstOutput\lManager.h">
<polygon fill="none" stroke="#000000" points="951.5,-183.5 951.5,-215.5 1095.5,-215.5 1095.5,-183.5 951.5,-183.5"/>
<text text-anchor="start" x="959.5" y="-202.5" font-family="FreeSans" font-size="10.00" fill="#000000">fun4all/Fun4AllDstOutput</text>
<text text-anchor="middle" x="1023.5" y="-190.5" font-family="FreeSans" font-size="10.00" fill="#000000">Manager.h</text>
</a>
</g>
</g>
<!-- Node1&#45;&gt;Node21 -->
<g id="edge44" class="edge">
<title>Node1&#45;&gt;Node21</title>
<path fill="none" stroke="#191970" d="M1395.6917,-338.1833C1283.0177,-328.8574 1069.0545,-308.312 1043.5,-285 1027.3259,-270.2452 1023.0046,-245.1374 1022.3277,-225.9358"/>
<polygon fill="#191970" stroke="#191970" points="1025.8267,-225.6918 1022.2811,-215.7079 1018.8268,-225.7238 1025.8267,-225.6918"/>
</g>
<!-- Node23 -->
<g id="node23" class="node">
<title>Node23</title>
<g id="a_node23"><a xlink:href="../../da/d29/G4HitNtuple_8h.html" target="_top" xlink:title="g4histos/G4HitNtuple.h">
<polygon fill="none" stroke="#000000" points="547.5,-189.5 547.5,-209.5 681.5,-209.5 681.5,-189.5 547.5,-189.5"/>
<text text-anchor="middle" x="614.5" y="-196.5" font-family="FreeSans" font-size="10.00" fill="#000000">g4histos/G4HitNtuple.h</text>
</a>
</g>
</g>
<!-- Node1&#45;&gt;Node23 -->
<g id="edge48" class="edge">
<title>Node1&#45;&gt;Node23</title>
<path fill="none" stroke="#191970" d="M1395.8205,-342.8503C1237.9428,-340.5811 853.5462,-330.416 733.5,-285 710.637,-276.3504 709.2933,-266.3442 689.5,-252 672.341,-239.5648 652.7118,-225.842 637.8398,-215.5458"/>
<polygon fill="#191970" stroke="#191970" points="639.4766,-212.4227 629.2592,-209.6199 635.4987,-218.1826 639.4766,-212.4227"/>
</g>
<!-- Node24 -->
<g id="node24" class="node">
<title>Node24</title>
<g id="a_node24"><a xlink:href="../../d8/d9f/PHG4ParticleGeneratorBase_8h.html" target="_top" xlink:title="g4main/PHG4ParticleGenerator\lBase.h">
<polygon fill="none" stroke="#000000" points="1430,-183.5 1430,-215.5 1605,-215.5 1605,-183.5 1430,-183.5"/>
<text text-anchor="start" x="1438" y="-202.5" font-family="FreeSans" font-size="10.00" fill="#000000">g4main/PHG4ParticleGenerator</text>
<text text-anchor="middle" x="1517.5" y="-190.5" font-family="FreeSans" font-size="10.00" fill="#000000">Base.h</text>
</a>
</g>
</g>
<!-- Node1&#45;&gt;Node24 -->
<g id="edge54" class="edge">
<title>Node1&#45;&gt;Node24</title>
<path fill="none" stroke="#191970" d="M1483.2289,-321.2403C1491.0128,-310.8491 1499.4036,-297.9351 1504.5,-285 1511.9748,-266.0281 1515.1774,-243.1221 1516.537,-225.7959"/>
<polygon fill="#191970" stroke="#191970" points="1520.0301,-226.0147 1517.1671,-215.8141 1513.044,-225.5737 1520.0301,-226.0147"/>
</g>
<!-- Node26 -->
<g id="node26" class="node">
<title>Node26</title>
<g id="a_node26"><a xlink:href="../../d4/d8b/PHG4ParticleGenerator_8h.html" target="_top" xlink:title="g4main/PHG4ParticleGenerator.h">
<polygon fill="none" stroke="#000000" points="1313,-258.5 1313,-278.5 1496,-278.5 1496,-258.5 1313,-258.5"/>
<text text-anchor="middle" x="1404.5" y="-265.5" font-family="FreeSans" font-size="10.00" fill="#000000">g4main/PHG4ParticleGenerator.h</text>
</a>
</g>
</g>
<!-- Node1&#45;&gt;Node26 -->
<g id="edge59" class="edge">
<title>Node1&#45;&gt;Node26</title>
<path fill="none" stroke="#191970" d="M1446.8225,-321.4032C1437.9646,-310.3308 1427.372,-297.09 1418.9998,-286.6248"/>
<polygon fill="#191970" stroke="#191970" points="1421.5563,-284.2176 1412.5763,-278.5954 1416.0902,-288.5905 1421.5563,-284.2176"/>
</g>
<!-- Node27 -->
<g id="node27" class="node">
<title>Node27</title>
<g id="a_node27"><a xlink:href="../../da/d45/PHG4SimpleEventGenerator_8h.html" target="_top" xlink:title="g4main/PHG4SimpleEventGenerator.h">
<polygon fill="none" stroke="#000000" points="1086,-258.5 1086,-278.5 1295,-278.5 1295,-258.5 1086,-258.5"/>
<text text-anchor="middle" x="1190.5" y="-265.5" font-family="FreeSans" font-size="10.00" fill="#000000">g4main/PHG4SimpleEventGenerator.h</text>
</a>
</g>
</g>
<!-- Node1&#45;&gt;Node27 -->
<g id="edge62" class="edge">
<title>Node1&#45;&gt;Node27</title>
<path fill="none" stroke="#191970" d="M1395.7119,-324.6711C1346.15,-311.1049 1280.5978,-293.1618 1237.0644,-281.2457"/>
<polygon fill="#191970" stroke="#191970" points="1237.8793,-277.8401 1227.31,-278.5757 1236.0312,-284.5917 1237.8793,-277.8401"/>
</g>
<!-- Node28 -->
<g id="node28" class="node">
<title>Node28</title>
<g id="a_node28"><a xlink:href="../../d8/dc1/PHG4ParticleGeneratorVectorMeson_8h.html" target="_top" xlink:title="g4main/PHG4ParticleGenerator\lVectorMeson.h">
<polygon fill="none" stroke="#000000" points="506,-252.5 506,-284.5 681,-284.5 681,-252.5 506,-252.5"/>
<text text-anchor="start" x="514" y="-271.5" font-family="FreeSans" font-size="10.00" fill="#000000">g4main/PHG4ParticleGenerator</text>
<text text-anchor="middle" x="593.5" y="-259.5" font-family="FreeSans" font-size="10.00" fill="#000000">VectorMeson.h</text>
</a>
</g>
</g>
<!-- Node1&#45;&gt;Node28 -->
<g id="edge67" class="edge">
<title>Node1&#45;&gt;Node28</title>
<path fill="none" stroke="#191970" d="M1395.8995,-340.2294C1261.266,-333.3803 953.1085,-315.5791 695.5,-285 694.0248,-284.8249 692.5383,-284.6438 691.0429,-284.4574"/>
<polygon fill="#191970" stroke="#191970" points="691.4347,-280.979 681.0658,-283.1552 690.5287,-287.9201 691.4347,-280.979"/>
</g>
<!-- Node29 -->
<g id="node29" class="node">
<title>Node29</title>
<g id="a_node29"><a xlink:href="../../de/d65/PHG4ParticleGun_8h.html" target="_top" xlink:title="g4main/PHG4ParticleGun.h">
<polygon fill="none" stroke="#000000" points="1553,-258.5 1553,-278.5 1706,-278.5 1706,-258.5 1553,-258.5"/>
<text text-anchor="middle" x="1629.5" y="-265.5" font-family="FreeSans" font-size="10.00" fill="#000000">g4main/PHG4ParticleGun.h</text>
</a>
</g>
</g>
<!-- Node1&#45;&gt;Node29 -->
<g id="edge71" class="edge">
<title>Node1&#45;&gt;Node29</title>
<path fill="none" stroke="#191970" d="M1513.113,-321.4032C1540.5171,-308.9468 1573.959,-293.7459 1597.9518,-282.8401"/>
<polygon fill="#191970" stroke="#191970" points="1599.6349,-285.9197 1607.2902,-278.5954 1596.7382,-279.5472 1599.6349,-285.9197"/>
</g>
<!-- Node30 -->
<g id="node30" class="node">
<title>Node30</title>
<g id="a_node30"><a xlink:href="../../dd/de1/HepMCNodeReader_8h.html" target="_top" xlink:title="g4main/HepMCNodeReader.h">
<polygon fill="none" stroke="#000000" points="2562.5,-189.5 2562.5,-209.5 2726.5,-209.5 2726.5,-189.5 2562.5,-189.5"/>
<text text-anchor="middle" x="2644.5" y="-196.5" font-family="FreeSans" font-size="10.00" fill="#000000">g4main/HepMCNodeReader.h</text>
</a>
</g>
</g>
<!-- Node1&#45;&gt;Node30 -->
<g id="edge74" class="edge">
<title>Node1&#45;&gt;Node30</title>
<path fill="none" stroke="#191970" d="M1533.2885,-341.9435C1753.5408,-336.6504 2432.4214,-317.8262 2525.5,-285 2566.5576,-270.5201 2605.9016,-237.1903 2627.4746,-216.684"/>
<polygon fill="#191970" stroke="#191970" points="2630.1124,-219.0008 2634.8391,-209.5187 2625.231,-213.9837 2630.1124,-219.0008"/>
</g>
<!-- Node31 -->
<g id="node31" class="node">
<title>Node31</title>
<g id="a_node31"><a xlink:href="../../d8/d3a/PHG4DetectorSubsystem_8h.html" target="_top" xlink:title="g4detectors/PHG4Detector\lSubsystem.h">
<polygon fill="none" stroke="#000000" points="131.5,-252.5 131.5,-284.5 283.5,-284.5 283.5,-252.5 131.5,-252.5"/>
<text text-anchor="start" x="139.5" y="-271.5" font-family="FreeSans" font-size="10.00" fill="#000000">g4detectors/PHG4Detector</text>
<text text-anchor="middle" x="207.5" y="-259.5" font-family="FreeSans" font-size="10.00" fill="#000000">Subsystem.h</text>
</a>
</g>
</g>
<!-- Node1&#45;&gt;Node31 -->
<g id="edge78" class="edge">
<title>Node1&#45;&gt;Node31</title>
<path fill="none" stroke="#191970" d="M1395.7895,-341.3531C1181.7406,-334.4656 527.8059,-311.8681 294.0197,-285.0544"/>
<polygon fill="#191970" stroke="#191970" points="294.2162,-281.5534 283.8746,-283.8558 293.3948,-288.505 294.2162,-281.5534"/>
</g>
<!-- Node33 -->
<g id="node33" class="node">
<title>Node33</title>
<g id="a_node33"><a xlink:href="../../d2/dcb/recoConsts_8h.html" target="_top" xlink:title="phool/recoConsts.h">
<polygon fill="none" stroke="#000000" points="0,-258.5 0,-278.5 113,-278.5 113,-258.5 0,-258.5"/>
<text text-anchor="middle" x="56.5" y="-265.5" font-family="FreeSans" font-size="10.00" fill="#000000">phool/recoConsts.h</text>
</a>
</g>
</g>
<!-- Node1&#45;&gt;Node33 -->
<g id="edge86" class="edge">
<title>Node1&#45;&gt;Node33</title>
<path fill="none" stroke="#191970" d="M1395.9425,-342.3364C1158.5024,-338.021 372.18,-321.2737 122.5,-285 115.5893,-283.996 108.3502,-282.5756 101.3031,-280.9848"/>
<polygon fill="#191970" stroke="#191970" points="101.7163,-277.4849 91.1762,-278.5607 100.0866,-284.2926 101.7163,-277.4849"/>
</g>
<!-- Node35 -->
<g id="node35" class="node">
<title>Node35</title>
<polygon fill="none" stroke="#bfbfbf" points="2711.5,-258.5 2711.5,-278.5 2843.5,-278.5 2843.5,-258.5 2711.5,-258.5"/>
<text text-anchor="middle" x="2777.5" y="-265.5" font-family="FreeSans" font-size="10.00" fill="#000000">phpythia6/PHPythia6.h</text>
</g>
<!-- Node1&#45;&gt;Node35 -->
<g id="edge90" class="edge">
<title>Node1&#45;&gt;Node35</title>
<path fill="none" stroke="#191970" d="M1533.1242,-341.7891C1758.3456,-335.9335 2473.6005,-315.3645 2702.5,-285 2710.6746,-283.9156 2719.2771,-282.392 2727.6237,-280.7048"/>
<polygon fill="#191970" stroke="#191970" points="2728.5745,-284.0811 2737.6317,-278.5841 2727.1234,-277.2332 2728.5745,-284.0811"/>
</g>
<!-- Node36 -->
<g id="node36" class="node">
<title>Node36</title>
<polygon fill="none" stroke="#bfbfbf" points="2861.5,-258.5 2861.5,-278.5 2993.5,-278.5 2993.5,-258.5 2861.5,-258.5"/>
<text text-anchor="middle" x="2927.5" y="-265.5" font-family="FreeSans" font-size="10.00" fill="#000000">phpythia8/PHPythia8.h</text>
</g>
<!-- Node1&#45;&gt;Node36 -->
<g id="edge91" class="edge">
<title>Node1&#45;&gt;Node36</title>
<path fill="none" stroke="#191970" d="M1533.2576,-342.1905C1776.1259,-337.3171 2592.9987,-318.7513 2852.5,-285 2860.8622,-283.9124 2869.6706,-282.355 2878.1942,-280.6263"/>
<polygon fill="#191970" stroke="#191970" points="2878.972,-284.0393 2888.0256,-278.5363 2877.5163,-277.1923 2878.972,-284.0393"/>
</g>
<!-- Node37 -->
<g id="node37" class="node">
<title>Node37</title>
<g id="a_node37"><a xlink:href="../../d5/db1/Fun4AllHepMCPileupInputManager_8h.html" target="_top" xlink:title="phhepmc/Fun4AllHepMCPileup\lInputManager.h">
<polygon fill="none" stroke="#000000" points="2345,-252.5 2345,-284.5 2516,-284.5 2516,-252.5 2345,-252.5"/>
<text text-anchor="start" x="2353" y="-271.5" font-family="FreeSans" font-size="10.00" fill="#000000">phhepmc/Fun4AllHepMCPileup</text>
<text text-anchor="middle" x="2430.5" y="-259.5" font-family="FreeSans" font-size="10.00" fill="#000000">InputManager.h</text>
</a>
</g>
</g>
<!-- Node1&#45;&gt;Node37 -->
<g id="edge92" class="edge">
<title>Node1&#45;&gt;Node37</title>
<path fill="none" stroke="#191970" d="M1533.1979,-338.1663C1702.4765,-325.0236 2139.9935,-291.0549 2334.6567,-275.9413"/>
<polygon fill="#191970" stroke="#191970" points="2335.1706,-279.412 2344.8696,-275.1483 2334.6287,-272.433 2335.1706,-279.412"/>
</g>
<!-- Node38 -->
<g id="node38" class="node">
<title>Node38</title>
<g id="a_node38"><a xlink:href="../../d1/d72/Fun4AllHepMCInputManager_8h.html" target="_top" xlink:title="Fun4AllHepMCInputManager.h">
<polygon fill="none" stroke="#000000" points="2257.5,-189.5 2257.5,-209.5 2425.5,-209.5 2425.5,-189.5 2257.5,-189.5"/>
<text text-anchor="middle" x="2341.5" y="-196.5" font-family="FreeSans" font-size="10.00" fill="#000000">Fun4AllHepMCInputManager.h</text>
</a>
</g>
</g>
<!-- Node1&#45;&gt;Node38 -->
<g id="edge104" class="edge">
<title>Node1&#45;&gt;Node38</title>
<path fill="none" stroke="#191970" d="M1533.0976,-338.8289C1634.5204,-331.2686 1830.2084,-314.1768 1994.5,-285 2104.6749,-265.4339 2231.8361,-231.0012 2297.3681,-212.3599"/>
<polygon fill="#191970" stroke="#191970" points="2298.6914,-215.6219 2307.3444,-209.5083 2296.7675,-208.8914 2298.6914,-215.6219"/>
</g>
<!-- Node42 -->
<g id="node42" class="node">
<title>Node42</title>
<g id="a_node42"><a xlink:href="../../d0/dd0/G4Setup__JLeic_8C.html" target="_top" xlink:title="G4Setup_JLeic.C">
<polygon fill="none" stroke="#ff0000" points="2595.5,-258.5 2595.5,-278.5 2693.5,-278.5 2693.5,-258.5 2595.5,-258.5"/>
<text text-anchor="middle" x="2644.5" y="-265.5" font-family="FreeSans" font-size="10.00" fill="#000000">G4Setup_JLeic.C</text>
</a>
</g>
</g>
<!-- Node1&#45;&gt;Node42 -->
<g id="edge105" class="edge">
<title>Node1&#45;&gt;Node42</title>
<path fill="none" stroke="#191970" d="M1533.2173,-341.4578C1742.6574,-334.9834 2371.0246,-313.6409 2573.5,-285 2581.0798,-283.9278 2589.0417,-282.441 2596.7821,-280.7955"/>
<polygon fill="#191970" stroke="#191970" points="2597.7828,-284.1583 2606.7791,-278.5622 2596.2566,-277.3267 2597.7828,-284.1583"/>
</g>
<!-- Node49 -->
<g id="node49" class="node">
<title>Node49</title>
<g id="a_node49"><a xlink:href="../../d0/d25/fun4all__g4jleic_2blob_2master_2macros_2DisplayOn_8C.html" target="_top" xlink:title="DisplayOn.C">
<polygon fill="none" stroke="#ff0000" points="1762.5,-258.5 1762.5,-278.5 1840.5,-278.5 1840.5,-258.5 1762.5,-258.5"/>
<text text-anchor="middle" x="1801.5" y="-265.5" font-family="FreeSans" font-size="10.00" fill="#000000">DisplayOn.C</text>
</a>
</g>
</g>
<!-- Node1&#45;&gt;Node49 -->
<g id="edge116" class="edge">
<title>Node1&#45;&gt;Node49</title>
<path fill="none" stroke="#191970" d="M1533.2228,-331.3114C1591.0123,-320.5929 1675.6266,-303.8001 1748.5,-285 1752.6467,-283.9302 1756.9507,-282.7347 1761.2325,-281.4893"/>
<polygon fill="#191970" stroke="#191970" points="1762.5267,-284.7552 1771.0987,-278.5285 1760.5146,-278.0506 1762.5267,-284.7552"/>
</g>
<!-- Node50 -->
<g id="node50" class="node">
<title>Node50</title>
<g id="a_node50"><a xlink:href="../../d8/d0c/fun4all__g4jleic_2blob_2master_2macros_2G4__Tracking__EIC_8C.html" target="_top" xlink:title="G4_Tracking_EIC.C">
<polygon fill="none" stroke="#ff0000" points="1859,-258.5 1859,-278.5 1968,-278.5 1968,-258.5 1859,-258.5"/>
<text text-anchor="middle" x="1913.5" y="-265.5" font-family="FreeSans" font-size="10.00" fill="#000000">G4_Tracking_EIC.C</text>
</a>
</g>
</g>
<!-- Node1&#45;&gt;Node50 -->
<g id="edge118" class="edge">
<title>Node1&#45;&gt;Node50</title>
<path fill="none" stroke="#191970" d="M1533.0251,-335.2234C1610.3054,-325.395 1739.5435,-307.4675 1849.5,-285 1855.2616,-283.8227 1861.2813,-282.4555 1867.2249,-281.0216"/>
<polygon fill="#191970" stroke="#191970" points="1868.2365,-284.3768 1877.0966,-278.5673 1866.5475,-277.5836 1868.2365,-284.3768"/>
</g>
<!-- Node3 -->
<g id="node3" class="node">
<title>Node3</title>
<g id="a_node3"><a xlink:href="../../d2/de7/Fun4AllBase_8h.html" target="_top" xlink:title="Fun4AllBase.h">
<polygon fill="none" stroke="#ff0000" points="1506,-57.5 1506,-77.5 1593,-77.5 1593,-57.5 1506,-57.5"/>
<text text-anchor="middle" x="1549.5" y="-64.5" font-family="FreeSans" font-size="10.00" fill="#000000">Fun4AllBase.h</text>
</a>
</g>
</g>
<!-- Node2&#45;&gt;Node3 -->
<g id="edge2" class="edge">
<title>Node2&#45;&gt;Node3</title>
<path fill="none" stroke="#191970" d="M1532.7133,-120.378C1535.5249,-111.5215 1539.6917,-98.396 1543.1705,-87.4381"/>
<polygon fill="#191970" stroke="#191970" points="1546.5383,-88.3965 1546.2282,-77.8062 1539.8664,-86.2784 1546.5383,-88.3965"/>
</g>
<!-- Node4 -->
<g id="node4" class="node">
<title>Node4</title>
<polygon fill="none" stroke="#bfbfbf" points="1379,-.5 1379,-20.5 1424,-20.5 1424,-.5 1379,-.5"/>
<text text-anchor="middle" x="1401.5" y="-7.5" font-family="FreeSans" font-size="10.00" fill="#000000">string</text>
</g>
<!-- Node2&#45;&gt;Node4 -->
<g id="edge4" class="edge">
<title>Node2&#45;&gt;Node4</title>
<path fill="none" stroke="#191970" d="M1519.2964,-120.3848C1504.8223,-106.0932 1477.4252,-79.2506 1453.5,-57 1442.8302,-47.077 1430.704,-36.2105 1420.847,-27.479"/>
<polygon fill="#191970" stroke="#191970" points="1422.9962,-24.7076 1413.1827,-20.7143 1418.364,-29.9558 1422.9962,-24.7076"/>
</g>
<!-- Node3&#45;&gt;Node4 -->
<g id="edge3" class="edge">
<title>Node3&#45;&gt;Node4</title>
<path fill="none" stroke="#191970" d="M1523.3813,-57.4408C1498.4004,-47.8198 1460.6619,-33.2853 1433.803,-22.941"/>
<polygon fill="#191970" stroke="#191970" points="1435.0334,-19.6643 1424.4436,-19.3364 1432.5175,-26.1966 1435.0334,-19.6643"/>
</g>
<!-- Node5&#45;&gt;Node3 -->
<g id="edge6" class="edge">
<title>Node5&#45;&gt;Node3</title>
<path fill="none" stroke="#191970" d="M1842.0156,-189.4595C1770.4441,-176.9118 1656.4995,-155.9947 1638.5,-147 1636.4305,-145.9658 1593.9001,-107.6528 1568.3926,-84.599"/>
<polygon fill="#191970" stroke="#191970" points="1570.5467,-81.828 1560.782,-77.7168 1565.8516,-87.02 1570.5467,-81.828"/>
</g>
<!-- Node5&#45;&gt;Node4 -->
<g id="edge16" class="edge">
<title>Node5&#45;&gt;Node4</title>
<path fill="none" stroke="#191970" d="M1966.234,-189.4855C2020.0083,-178.1216 2083.4227,-155.5149 2058.5,-114 2030.7665,-67.803 2003.1798,-72.2481 1951.5,-57 1853.5221,-28.0917 1537.2579,-15.0821 1434.257,-11.5404"/>
<polygon fill="#191970" stroke="#191970" points="1434.2542,-8.0384 1424.142,-11.1996 1434.0185,-15.0344 1434.2542,-8.0384"/>
</g>
<!-- Node6 -->
<g id="node6" class="node">
<title>Node6</title>
<g id="a_node6"><a xlink:href="../../d0/d59/Fun4AllHistoManager_8h.html" target="_top" xlink:title="Fun4AllHistoManager.h">
<polygon fill="none" stroke="#000000" points="1647.5,-120.5 1647.5,-140.5 1779.5,-140.5 1779.5,-120.5 1647.5,-120.5"/>
<text text-anchor="middle" x="1713.5" y="-127.5" font-family="FreeSans" font-size="10.00" fill="#000000">Fun4AllHistoManager.h</text>
</a>
</g>
</g>
<!-- Node5&#45;&gt;Node6 -->
<g id="edge7" class="edge">
<title>Node5&#45;&gt;Node6</title>
<path fill="none" stroke="#191970" d="M1873.3086,-189.4668C1840.9015,-177.5091 1786.5986,-157.4722 1750.4159,-144.1214"/>
<polygon fill="#191970" stroke="#191970" points="1751.3176,-140.7235 1740.7242,-140.5453 1748.8943,-147.2907 1751.3176,-140.7235"/>
</g>
<!-- Node7 -->
<g id="node7" class="node">
<title>Node7</title>
<polygon fill="none" stroke="#bfbfbf" points="412,-57.5 412,-77.5 451,-77.5 451,-57.5 412,-57.5"/>
<text text-anchor="middle" x="431.5" y="-64.5" font-family="FreeSans" font-size="10.00" fill="#000000">map</text>
</g>
<!-- Node5&#45;&gt;Node7 -->
<g id="edge15" class="edge">
<title>Node5&#45;&gt;Node7</title>
<path fill="none" stroke="#191970" d="M1833.8229,-195.4214C1775.6639,-191.9224 1689.0135,-186.8507 1613.5,-183 1254.0557,-164.6708 1161.4149,-193.3459 804.5,-147 735.9462,-138.0982 720.1022,-128.4502 652.5,-114 583.9277,-99.3424 503.3059,-82.4702 460.9373,-73.6313"/>
<polygon fill="#191970" stroke="#191970" points="461.5244,-70.1785 451.0205,-71.5634 460.0954,-77.0311 461.5244,-70.1785"/>
</g>
<!-- Node8 -->
<g id="node8" class="node">
<title>Node8</title>
<g id="a_node8"><a xlink:href="../../dc/d26/PHTimer_8h.html" target="_top" xlink:title="high precision timer">
<polygon fill="none" stroke="#ff0000" points="1950,-120.5 1950,-140.5 2049,-140.5 2049,-120.5 1950,-120.5"/>
<text text-anchor="middle" x="1999.5" y="-127.5" font-family="FreeSans" font-size="10.00" fill="#000000">phool/PHTimer.h</text>
</a>
</g>
</g>
<!-- Node5&#45;&gt;Node8 -->
<g id="edge11" class="edge">
<title>Node5&#45;&gt;Node8</title>
<path fill="none" stroke="#191970" d="M1915.1078,-189.3188C1931.2663,-178.0568 1957.5178,-159.7603 1976.4546,-146.5619"/>
<polygon fill="#191970" stroke="#191970" points="1978.6296,-149.3123 1984.8323,-140.723 1974.627,-143.5695 1978.6296,-149.3123"/>
</g>
<!-- Node9 -->
<g id="node9" class="node">
<title>Node9</title>
<polygon fill="none" stroke="#bfbfbf" points="1853.5,-57.5 1853.5,-77.5 1913.5,-77.5 1913.5,-57.5 1853.5,-57.5"/>
<text text-anchor="middle" x="1883.5" y="-64.5" font-family="FreeSans" font-size="10.00" fill="#000000">iostream</text>
</g>
<!-- Node5&#45;&gt;Node9 -->
<g id="edge14" class="edge">
<title>Node5&#45;&gt;Node9</title>
<path fill="none" stroke="#191970" d="M1899.166,-189.1422C1896.3606,-167.3584 1889.8057,-116.4618 1886.1258,-87.8882"/>
<polygon fill="#191970" stroke="#191970" points="1889.5765,-87.2807 1884.8278,-77.8097 1882.6338,-88.1749 1889.5765,-87.2807"/>
</g>
<!-- Node10 -->
<g id="node10" class="node">
<title>Node10</title>
<polygon fill="none" stroke="#bfbfbf" points="2119,-57.5 2119,-77.5 2164,-77.5 2164,-57.5 2119,-57.5"/>
<text text-anchor="middle" x="2141.5" y="-64.5" font-family="FreeSans" font-size="10.00" fill="#000000">utility</text>
</g>
<!-- Node5&#45;&gt;Node10 -->
<g id="edge17" class="edge">
<title>Node5&#45;&gt;Node10</title>
<path fill="none" stroke="#191970" d="M1967.2262,-193.3114C2006.5416,-186.8784 2055.4714,-173.7583 2091.5,-147 2112.0574,-131.7321 2126.2096,-105.2769 2134.0785,-87.1069"/>
<polygon fill="#191970" stroke="#191970" points="2137.3587,-88.3322 2137.8957,-77.751 2130.8774,-85.6878 2137.3587,-88.3322"/>
</g>
<!-- Node11 -->
<g id="node11" class="node">
<title>Node11</title>
<polygon fill="none" stroke="#bfbfbf" points="1003,-57.5 1003,-77.5 1052,-77.5 1052,-57.5 1003,-57.5"/>
<text text-anchor="middle" x="1027.5" y="-64.5" font-family="FreeSans" font-size="10.00" fill="#000000">vector</text>
</g>
<!-- Node5&#45;&gt;Node11 -->
<g id="edge18" class="edge">
<title>Node5&#45;&gt;Node11</title>
<path fill="none" stroke="#191970" d="M1833.7794,-195.4501C1663.2318,-184.9775 1222.6032,-157.1151 1192.5,-147 1166.9082,-138.4008 1165.4371,-126.4862 1141.5,-114 1115.5817,-100.4803 1084.8206,-88.1348 1061.788,-79.5674"/>
<polygon fill="#191970" stroke="#191970" points="1062.7049,-76.1758 1052.1112,-76.0205 1060.2959,-82.7482 1062.7049,-76.1758"/>
</g>
<!-- Node6&#45;&gt;Node3 -->
<g id="edge8" class="edge">
<title>Node6&#45;&gt;Node3</title>
<path fill="none" stroke="#191970" d="M1687.1506,-120.378C1659.5351,-109.7696 1615.9755,-93.0363 1585.2665,-81.2396"/>
<polygon fill="#191970" stroke="#191970" points="1586.3741,-77.9157 1575.784,-77.5969 1583.8639,-84.4502 1586.3741,-77.9157"/>
</g>
<!-- Node6&#45;&gt;Node4 -->
<g id="edge10" class="edge">
<title>Node6&#45;&gt;Node4</title>
<path fill="none" stroke="#191970" d="M1701.2405,-120.3261C1681.4874,-104.446 1640.8388,-73.8458 1601.5,-57 1545.3972,-32.9754 1474.8859,-20.2876 1434.3286,-14.5181"/>
<polygon fill="#191970" stroke="#191970" points="1434.587,-11.021 1424.205,-13.134 1433.6387,-17.9564 1434.587,-11.021"/>
</g>
<!-- Node6&#45;&gt;Node7 -->
<g id="edge9" class="edge">
<title>Node6&#45;&gt;Node7</title>
<path fill="none" stroke="#191970" d="M1652.9436,-120.4589C1636.0142,-117.9786 1617.5765,-115.5819 1600.5,-114 1369.6651,-92.6158 621.0191,-72.3953 461.5487,-68.2658"/>
<polygon fill="#191970" stroke="#191970" points="461.1872,-64.7554 451.1003,-67.9965 461.0067,-71.7531 461.1872,-64.7554"/>
</g>
<!-- Node8&#45;&gt;Node4 -->
<g id="edge13" class="edge">
<title>Node8&#45;&gt;Node4</title>
<path fill="none" stroke="#191970" d="M1992.5939,-120.4692C1980.5536,-103.9096 1953.9761,-71.2676 1922.5,-57 1878.1198,-36.8832 1541.9424,-17.8129 1434.445,-12.1746"/>
<polygon fill="#191970" stroke="#191970" points="1434.3681,-8.666 1424.1998,-11.6417 1434.0044,-15.6565 1434.3681,-8.666"/>
</g>
<!-- Node8&#45;&gt;Node9 -->
<g id="edge12" class="edge">
<title>Node8&#45;&gt;Node9</title>
<path fill="none" stroke="#191970" d="M1980.8626,-120.378C1962.0061,-110.137 1932.6398,-94.188 1911.0868,-82.4825"/>
<polygon fill="#191970" stroke="#191970" points="1912.5492,-79.2939 1902.0912,-77.5969 1909.2084,-85.4452 1912.5492,-79.2939"/>
</g>
<!-- Node12&#45;&gt;Node3 -->
<g id="edge20" class="edge">
<title>Node12&#45;&gt;Node3</title>
<path fill="none" stroke="#191970" d="M1329.3044,-120.4478C1375.1238,-109.4302 1448.6678,-91.7459 1498.0084,-79.8816"/>
<polygon fill="#191970" stroke="#191970" points="1498.94,-83.2574 1507.8445,-77.5164 1497.3034,-76.4514 1498.94,-83.2574"/>
</g>
<!-- Node12&#45;&gt;Node4 -->
<g id="edge23" class="edge">
<title>Node12&#45;&gt;Node4</title>
<path fill="none" stroke="#191970" d="M1273.8722,-120.3063C1255.998,-105.6897 1228.6663,-78.2032 1244.5,-57 1259.3963,-37.0521 1327.4056,-22.6328 1368.8742,-15.515"/>
<polygon fill="#191970" stroke="#191970" points="1369.5069,-18.9579 1378.7967,-13.8638 1368.3578,-12.0529 1369.5069,-18.9579"/>
</g>
<!-- Node12&#45;&gt;Node10 -->
<g id="edge24" class="edge">
<title>Node12&#45;&gt;Node10</title>
<path fill="none" stroke="#191970" d="M1373.1348,-121.7592C1400.4054,-119.1038 1430.7072,-116.2865 1458.5,-114 1708.2485,-93.4532 2009.9124,-75.2087 2108.5592,-69.412"/>
<polygon fill="#191970" stroke="#191970" points="2109.0057,-72.8919 2118.7839,-68.813 2108.5963,-65.9039 2109.0057,-72.8919"/>
</g>
<!-- Node12&#45;&gt;Node11 -->
<g id="edge25" class="edge">
<title>Node12&#45;&gt;Node11</title>
<path fill="none" stroke="#191970" d="M1238.9485,-120.46C1194.9554,-111.0959 1128.1738,-96.2194 1062.0505,-78.2946"/>
<polygon fill="#191970" stroke="#191970" points="1062.8713,-74.8906 1052.3022,-75.6282 1061.0244,-81.6426 1062.8713,-74.8906"/>
</g>
<!-- Node13 -->
<g id="node13" class="node">
<title>Node13</title>
<g id="a_node13"><a xlink:href="../../da/dc1/Fun4AllReturnCodes_8h.html" target="_top" xlink:title="Fun4AllReturnCodes.h">
<polygon fill="none" stroke="#000000" points="1070,-57.5 1070,-77.5 1197,-77.5 1197,-57.5 1070,-57.5"/>
<text text-anchor="middle" x="1133.5" y="-64.5" font-family="FreeSans" font-size="10.00" fill="#000000">Fun4AllReturnCodes.h</text>
</a>
</g>
</g>
<!-- Node12&#45;&gt;Node13 -->
<g id="edge21" class="edge">
<title>Node12&#45;&gt;Node13</title>
<path fill="none" stroke="#191970" d="M1262.7572,-120.378C1236.9379,-109.8155 1196.276,-93.1811 1167.4608,-81.393"/>
<polygon fill="#191970" stroke="#191970" points="1168.7621,-78.1439 1158.1814,-77.5969 1166.1116,-84.6227 1168.7621,-78.1439"/>
</g>
<!-- Node14 -->
<g id="node14" class="node">
<title>Node14</title>
<polygon fill="none" stroke="#bfbfbf" points="1341.5,-57.5 1341.5,-77.5 1373.5,-77.5 1373.5,-57.5 1341.5,-57.5"/>
<text text-anchor="middle" x="1357.5" y="-64.5" font-family="FreeSans" font-size="10.00" fill="#000000">list</text>
</g>
<!-- Node12&#45;&gt;Node14 -->
<g id="edge22" class="edge">
<title>Node12&#45;&gt;Node14</title>
<path fill="none" stroke="#191970" d="M1298.7467,-120.378C1309.3989,-110.791 1325.6089,-96.202 1338.3059,-84.7747"/>
<polygon fill="#191970" stroke="#191970" points="1340.9571,-87.0974 1346.0487,-77.8062 1336.2743,-81.8944 1340.9571,-87.0974"/>
</g>
<!-- Node15 -->
<g id="node15" class="node">
<title>Node15</title>
<polygon fill="none" stroke="#bfbfbf" points="1253.5,-57.5 1253.5,-77.5 1323.5,-77.5 1323.5,-57.5 1253.5,-57.5"/>
<text text-anchor="middle" x="1288.5" y="-64.5" font-family="FreeSans" font-size="10.00" fill="#000000">type_traits</text>
</g>
<!-- Node12&#45;&gt;Node15 -->
<g id="edge26" class="edge">
<title>Node12&#45;&gt;Node15</title>
<path fill="none" stroke="#191970" d="M1287.6607,-120.378C1287.7983,-111.7041 1288.001,-98.9355 1288.1727,-88.1186"/>
<polygon fill="#191970" stroke="#191970" points="1291.6772,-87.8605 1288.3364,-77.8062 1284.678,-87.7494 1291.6772,-87.8605"/>
</g>
<!-- Node16&#45;&gt;Node4 -->
<g id="edge30" class="edge">
<title>Node16&#45;&gt;Node4</title>
<path fill="none" stroke="#191970" d="M827.1888,-183.373C814.7495,-174.398 801.3062,-161.9992 794.5,-147 776.337,-106.9731 797.2376,-78.6342 835.5,-57 881.9565,-30.7326 1254.7,-15.635 1368.5756,-11.6027"/>
<polygon fill="#191970" stroke="#191970" points="1368.8962,-15.0937 1378.7681,-11.247 1368.6521,-8.098 1368.8962,-15.0937"/>
</g>
<!-- Node16&#45;&gt;Node12 -->
<g id="edge28" class="edge">
<title>Node16&#45;&gt;Node12</title>
<path fill="none" stroke="#191970" d="M933.6311,-184.5303C936.6241,-184.0062 939.5883,-183.4944 942.5,-183 1032.8775,-167.6552 1136.9419,-152.1092 1206.9415,-141.9603"/>
<polygon fill="#191970" stroke="#191970" points="1207.6207,-145.3986 1217.0165,-140.5028 1206.6184,-138.4707 1207.6207,-145.3986"/>
</g>
<!-- Node16&#45;&gt;Node13 -->
<g id="edge29" class="edge">
<title>Node16&#45;&gt;Node13</title>
<path fill="none" stroke="#191970" d="M907.9555,-183.4694C936.5691,-174.1638 972.0826,-161.4378 1002.5,-147 1042.0989,-128.2041 1084.9905,-100.6707 1110.5328,-83.433"/>
<polygon fill="#191970" stroke="#191970" points="1112.8258,-86.106 1119.1199,-77.5834 1108.8848,-80.3207 1112.8258,-86.106"/>
</g>
<!-- Node17&#45;&gt;Node3 -->
<g id="edge32" class="edge">
<title>Node17&#45;&gt;Node3</title>
<path fill="none" stroke="#191970" d="M993.6634,-121.707C1129.961,-108.4148 1384.3113,-83.6097 1495.3311,-72.7827"/>
<polygon fill="#191970" stroke="#191970" points="1496.0058,-76.2336 1505.6188,-71.7794 1495.3262,-69.2667 1496.0058,-76.2336"/>
</g>
<!-- Node17&#45;&gt;Node4 -->
<g id="edge34" class="edge">
<title>Node17&#45;&gt;Node4</title>
<path fill="none" stroke="#191970" d="M902.6456,-120.3463C901.9078,-104.2084 903.1256,-72.9087 921.5,-57 955.2756,-27.7568 1266.4152,-14.9522 1368.9205,-11.5033"/>
<polygon fill="#191970" stroke="#191970" points="1369.1183,-14.9988 1378.9979,-11.172 1368.8882,-8.0026 1369.1183,-14.9988"/>
</g>
<!-- Node17&#45;&gt;Node11 -->
<g id="edge35" class="edge">
<title>Node17&#45;&gt;Node11</title>
<path fill="none" stroke="#191970" d="M923.4227,-120.378C943.7604,-110.0451 975.5352,-93.9015 998.6285,-82.1686"/>
<polygon fill="#191970" stroke="#191970" points="1000.2967,-85.2469 1007.6267,-77.5969 997.126,-79.0062 1000.2967,-85.2469"/>
</g>
<!-- Node18 -->
<g id="node18" class="node">
<title>Node18</title>
<polygon fill="none" stroke="#bfbfbf" points="930.5,-57.5 930.5,-77.5 984.5,-77.5 984.5,-57.5 930.5,-57.5"/>
<text text-anchor="middle" x="957.5" y="-64.5" font-family="FreeSans" font-size="10.00" fill="#000000">cstddef</text>
</g>
<!-- Node17&#45;&gt;Node18 -->
<g id="edge33" class="edge">
<title>Node17&#45;&gt;Node18</title>
<path fill="none" stroke="#191970" d="M912.176,-120.378C920.2369,-110.9736 932.4235,-96.7559 942.1305,-85.431"/>
<polygon fill="#191970" stroke="#191970" points="944.8156,-87.6766 948.6661,-77.8062 939.5007,-83.121 944.8156,-87.6766"/>
</g>
<!-- Node19&#45;&gt;Node4 -->
<g id="edge39" class="edge">
<title>Node19&#45;&gt;Node4</title>
<path fill="none" stroke="#191970" d="M319.1321,-189.2763C313.6718,-162.7912 303.4129,-91.6095 341.5,-57 380.4328,-21.622 1194.1249,-12.3545 1368.7038,-10.7703"/>
<polygon fill="#191970" stroke="#191970" points="1368.8473,-14.2692 1378.8159,-10.6807 1368.7853,-7.2695 1368.8473,-14.2692"/>
</g>
<!-- Node19&#45;&gt;Node7 -->
<g id="edge38" class="edge">
<title>Node19&#45;&gt;Node7</title>
<path fill="none" stroke="#191970" d="M330.1315,-189.1422C348.7666,-166.7801 392.9676,-113.7388 416.3662,-85.6606"/>
<polygon fill="#191970" stroke="#191970" points="419.1955,-87.7326 422.9086,-77.8097 413.8179,-83.2513 419.1955,-87.7326"/>
</g>
<!-- Node19&#45;&gt;Node12 -->
<g id="edge37" class="edge">
<title>Node19&#45;&gt;Node12</title>
<path fill="none" stroke="#191970" d="M415.7532,-192.2114C453.864,-189.296 498.2746,-185.9391 538.5,-183 773.2176,-165.8505 1049.3972,-146.7783 1191.8167,-137.025"/>
<polygon fill="#191970" stroke="#191970" points="1192.0997,-140.5139 1201.8373,-136.339 1191.6216,-133.5303 1192.0997,-140.5139"/>
</g>
<!-- Node20&#45;&gt;Node4 -->
<g id="edge43" class="edge">
<title>Node20&#45;&gt;Node4</title>
<path fill="none" stroke="#191970" d="M301.6263,-252.5538C266.0727,-243.23 228.9121,-230.4606 218.5,-216 167.6955,-145.4415 220.3829,-108.0358 323.5,-57 371.4464,-33.2699 1192.4001,-14.86 1368.4367,-11.1745"/>
<polygon fill="#191970" stroke="#191970" points="1368.7077,-14.6697 1378.6327,-10.9624 1368.5621,-7.6712 1368.7077,-14.6697"/>
</g>
<!-- Node20&#45;&gt;Node13 -->
<g id="edge42" class="edge">
<title>Node20&#45;&gt;Node13</title>
<path fill="none" stroke="#191970" d="M449.1756,-258.4253C535.3732,-246.2939 669.1015,-226.2714 690.5,-216 751.7917,-186.5797 742.8391,-142.6383 804.5,-114 905.7552,-66.9722 944.5398,-92.6221 1059.5469,-78.0534"/>
<polygon fill="#191970" stroke="#191970" points="1060.3563,-81.4762 1069.8005,-76.6743 1059.4231,-74.5386 1060.3563,-81.4762"/>
</g>
<!-- Node20&#45;&gt;Node19 -->
<g id="edge41" class="edge">
<title>Node20&#45;&gt;Node19</title>
<path fill="none" stroke="#191970" d="M362.9756,-252.4966C354.8135,-242.0673 344.1458,-228.4363 335.6733,-217.6103"/>
<polygon fill="#191970" stroke="#191970" points="338.3583,-215.3621 329.4389,-209.6441 332.8457,-219.6763 338.3583,-215.3621"/>
</g>
<!-- Node21&#45;&gt;Node4 -->
<g id="edge47" class="edge">
<title>Node21&#45;&gt;Node4</title>
<path fill="none" stroke="#191970" d="M1095.7572,-188.514C1111.1571,-186.4439 1127.3453,-184.4704 1142.5,-183 1214.0531,-176.0575 1739.1011,-199.2284 1788.5,-147 1894.2715,-35.17 1545.8557,-14.8754 1434.5514,-11.2648"/>
<polygon fill="#191970" stroke="#191970" points="1434.3466,-7.7572 1424.2465,-10.9568 1434.1375,-14.7541 1434.3466,-7.7572"/>
</g>
<!-- Node21&#45;&gt;Node17 -->
<g id="edge45" class="edge">
<title>Node21&#45;&gt;Node17</title>
<path fill="none" stroke="#191970" d="M995.668,-183.4966C975.8241,-172.0863 949.3152,-156.8437 929.8215,-145.6348"/>
<polygon fill="#191970" stroke="#191970" points="931.5557,-142.5947 921.1419,-140.6441 928.0663,-148.6631 931.5557,-142.5947"/>
</g>
<!-- Node22 -->
<g id="node22" class="node">
<title>Node22</title>
<polygon fill="none" stroke="#bfbfbf" points="611.5,-120.5 611.5,-140.5 643.5,-140.5 643.5,-120.5 611.5,-120.5"/>
<text text-anchor="middle" x="627.5" y="-127.5" font-family="FreeSans" font-size="10.00" fill="#000000">set</text>
</g>
<!-- Node21&#45;&gt;Node22 -->
<g id="edge46" class="edge">
<title>Node21&#45;&gt;Node22</title>
<path fill="none" stroke="#191970" d="M951.1015,-184.6185C948.198,-184.064 945.3223,-183.5225 942.5,-183 835.6511,-163.2197 707.7704,-142.9539 653.6934,-134.5405"/>
<polygon fill="#191970" stroke="#191970" points="654.017,-131.049 643.5986,-132.9745 652.9438,-137.9662 654.017,-131.049"/>
</g>
<!-- Node23&#45;&gt;Node2 -->
<g id="edge49" class="edge">
<title>Node23&#45;&gt;Node2</title>
<path fill="none" stroke="#191970" d="M681.7744,-191.4707C708.1641,-188.5114 738.7255,-185.319 766.5,-183 1039.3518,-160.2188 1108.6815,-170.1766 1381.5,-147 1406.1821,-144.9032 1433.1201,-142.0647 1457.1679,-139.3333"/>
<polygon fill="#191970" stroke="#191970" points="1457.7468,-142.7899 1467.2822,-138.1718 1456.9481,-135.8356 1457.7468,-142.7899"/>
</g>
<!-- Node23&#45;&gt;Node4 -->
<g id="edge52" class="edge">
<title>Node23&#45;&gt;Node4</title>
<path fill="none" stroke="#191970" d="M606.3952,-189.4867C593.5707,-172.3578 571.7833,-137.0534 589.5,-114 649.4767,-35.9571 706.4744,-73.551 803.5,-57 1016.8096,-20.6129 1277.8448,-12.6597 1368.5744,-10.9548"/>
<polygon fill="#191970" stroke="#191970" points="1368.8428,-14.4507 1378.7801,-10.7763 1368.7204,-7.4518 1368.8428,-14.4507"/>
</g>
<!-- Node23&#45;&gt;Node7 -->
<g id="edge50" class="edge">
<title>Node23&#45;&gt;Node7</title>
<path fill="none" stroke="#191970" d="M597.2994,-189.3637C580.2642,-179.1531 553.5983,-162.7042 531.5,-147 502.7096,-126.54 471.0413,-100.7709 451.2168,-84.2154"/>
<polygon fill="#191970" stroke="#191970" points="453.3977,-81.4764 443.4886,-77.7266 448.8965,-86.8373 453.3977,-81.4764"/>
</g>
<!-- Node23&#45;&gt;Node11 -->
<g id="edge53" class="edge">
<title>Node23&#45;&gt;Node11</title>
<path fill="none" stroke="#191970" d="M608.5412,-189.2971C599.0474,-171.5582 583.4083,-134.9303 602.5,-114 659.3507,-51.6745 891.7396,-92.0692 992.8317,-77.4911"/>
<polygon fill="#191970" stroke="#191970" points="993.505,-80.9268 1002.7703,-75.7882 992.3228,-74.0274 993.505,-80.9268"/>
</g>
<!-- Node23&#45;&gt;Node22 -->
<g id="edge51" class="edge">
<title>Node23&#45;&gt;Node22</title>
<path fill="none" stroke="#191970" d="M616.4182,-189.3188C618.3192,-179.2289 621.284,-163.4925 623.6688,-150.8347"/>
<polygon fill="#191970" stroke="#191970" points="627.1619,-151.1981 625.5739,-140.723 620.2829,-149.902 627.1619,-151.1981"/>
</g>
<!-- Node24&#45;&gt;Node2 -->
<g id="edge55" class="edge">
<title>Node24&#45;&gt;Node2</title>
<path fill="none" stroke="#191970" d="M1520.2832,-183.4966C1521.9892,-173.6869 1524.1879,-161.0445 1526.0099,-150.5681"/>
<polygon fill="#191970" stroke="#191970" points="1529.4706,-151.096 1527.7358,-140.6441 1522.5741,-149.8965 1529.4706,-151.096"/>
</g>
<!-- Node24&#45;&gt;Node4 -->
<g id="edge57" class="edge">
<title>Node24&#45;&gt;Node4</title>
<path fill="none" stroke="#191970" d="M1494.7816,-183.2884C1482.7527,-173.797 1468.4527,-160.953 1458.5,-147 1444.5048,-127.3798 1420.3925,-63.1581 1408.5206,-30.2805"/>
<polygon fill="#191970" stroke="#191970" points="1411.7928,-29.0367 1405.1245,-20.8037 1405.2032,-31.3982 1411.7928,-29.0367"/>
</g>
<!-- Node24&#45;&gt;Node11 -->
<g id="edge58" class="edge">
<title>Node24&#45;&gt;Node11</title>
<path fill="none" stroke="#191970" d="M1429.9939,-190.671C1340.4673,-180.9254 1207.8473,-164.3119 1159.5,-147 1117.1441,-131.8335 1073.4732,-102.2855 1048.4934,-83.7961"/>
<polygon fill="#191970" stroke="#191970" points="1050.5652,-80.9748 1040.4701,-77.759 1046.3564,-86.5683 1050.5652,-80.9748"/>
</g>
<!-- Node25 -->
<g id="node25" class="node">
<title>Node25</title>
<polygon fill="none" stroke="#bfbfbf" points="2635.5,-57.5 2635.5,-77.5 2715.5,-77.5 2715.5,-57.5 2635.5,-57.5"/>
<text text-anchor="middle" x="2675.5" y="-64.5" font-family="FreeSans" font-size="10.00" fill="#000000">gsl/gsl_rng.h</text>
</g>
<!-- Node24&#45;&gt;Node25 -->
<g id="edge56" class="edge">
<title>Node24&#45;&gt;Node25</title>
<path fill="none" stroke="#191970" d="M1605.1999,-191.8424C1712.2808,-182.2958 1898.8584,-165.0264 2058.5,-147 2168.4978,-134.5793 2497.9408,-91.0768 2624.8681,-74.2326"/>
<polygon fill="#191970" stroke="#191970" points="2625.6309,-77.6622 2635.0833,-72.8765 2624.7096,-70.723 2625.6309,-77.6622"/>
</g>
<!-- Node26&#45;&gt;Node4 -->
<g id="edge61" class="edge">
<title>Node26&#45;&gt;Node4</title>
<path fill="none" stroke="#191970" d="M1404.3824,-258.3861C1403.9362,-220.0159 1402.3428,-82.9795 1401.7365,-30.8382"/>
<polygon fill="#191970" stroke="#191970" points="1405.2329,-30.5026 1401.6168,-20.544 1398.2334,-30.584 1405.2329,-30.5026"/>
</g>
<!-- Node26&#45;&gt;Node24 -->
<g id="edge60" class="edge">
<title>Node26&#45;&gt;Node24</title>
<path fill="none" stroke="#191970" d="M1421.1735,-258.3188C1437.2171,-248.5223 1461.9776,-233.403 1482.3772,-220.9467"/>
<polygon fill="#191970" stroke="#191970" points="1484.3939,-223.8162 1491.1046,-215.6175 1480.7459,-217.8419 1484.3939,-223.8162"/>
</g>
<!-- Node27&#45;&gt;Node4 -->
<g id="edge64" class="edge">
<title>Node27&#45;&gt;Node4</title>
<path fill="none" stroke="#191970" d="M1085.7734,-263.749C906.1586,-255.089 556.7657,-235.7957 538.5,-216 528.554,-205.2209 534.6152,-197.1428 538.5,-183 556.6601,-116.8876 566.2325,-87.7723 627.5,-57 694.4012,-23.3982 1229.4782,-13.0818 1368.559,-10.9552"/>
<polygon fill="#191970" stroke="#191970" points="1368.6608,-14.4541 1378.6074,-10.8054 1368.5563,-7.4549 1368.6608,-14.4541"/>
</g>
<!-- Node27&#45;&gt;Node10 -->
<g id="edge65" class="edge">
<title>Node27&#45;&gt;Node10</title>
<path fill="none" stroke="#191970" d="M1251.9532,-258.4836C1268.6396,-256.0491 1286.7307,-253.6693 1303.5,-252 1452.5328,-237.1647 1831.4424,-253.2715 1976.5,-216 2044.8473,-198.4386 2074.277,-201.1723 2119.5,-147 2133.4275,-130.3163 2138.5736,-105.4753 2140.4553,-88.0113"/>
<polygon fill="#191970" stroke="#191970" points="2143.9667,-88.0086 2141.2799,-77.7601 2136.9892,-87.4473 2143.9667,-88.0086"/>
</g>
<!-- Node27&#45;&gt;Node11 -->
<g id="edge66" class="edge">
<title>Node27&#45;&gt;Node11</title>
<path fill="none" stroke="#191970" d="M1180.6815,-258.2656C1170.7949,-247.8446 1155.2266,-231.1157 1142.5,-216 1104.2196,-170.5332 1062.1515,-114.5293 1041.0957,-86.0427"/>
<polygon fill="#191970" stroke="#191970" points="1043.7787,-83.7836 1035.0291,-77.8089 1038.1431,-87.9358 1043.7787,-83.7836"/>
</g>
<!-- Node27&#45;&gt;Node24 -->
<g id="edge63" class="edge">
<title>Node27&#45;&gt;Node24</title>
<path fill="none" stroke="#191970" d="M1238.0486,-258.4668C1288.5543,-247.8096 1369.4728,-230.7351 1431.2678,-217.6958"/>
<polygon fill="#191970" stroke="#191970" points="1432.34,-221.0467 1441.4019,-215.5574 1430.8947,-214.1975 1432.34,-221.0467"/>
</g>
<!-- Node28&#45;&gt;Node4 -->
<g id="edge70" class="edge">
<title>Node28&#45;&gt;Node4</title>
<path fill="none" stroke="#191970" d="M540.3496,-252.4258C519.276,-244.0916 495.9588,-232.194 478.5,-216 421.0752,-162.7355 348.4192,-113.6567 402.5,-57 436.6096,-21.2658 1199.8326,-12.3156 1368.6437,-10.7702"/>
<polygon fill="#191970" stroke="#191970" points="1368.7032,-14.27 1378.6716,-10.6808 1368.6408,-7.2702 1368.7032,-14.27"/>
</g>
<!-- Node28&#45;&gt;Node7 -->
<g id="edge69" class="edge">
<title>Node28&#45;&gt;Node7</title>
<path fill="none" stroke="#191970" d="M556.358,-252.3745C539.2485,-243.5415 519.6512,-231.2637 505.5,-216 469.7443,-177.4332 447.3503,-118.3435 437.446,-87.6215"/>
<polygon fill="#191970" stroke="#191970" points="440.6667,-86.1906 434.3605,-77.6769 433.9811,-88.265 440.6667,-86.1906"/>
</g>
<!-- Node28&#45;&gt;Node24 -->
<g id="edge68" class="edge">
<title>Node28&#45;&gt;Node24</title>
<path fill="none" stroke="#191970" d="M681.1074,-262.2909C816.3744,-252.6594 1084.2235,-233.4111 1311.5,-216 1346.8271,-213.2937 1385.5528,-210.22 1419.7983,-207.4652"/>
<polygon fill="#191970" stroke="#191970" points="1420.1144,-210.9511 1429.8011,-206.6593 1419.5523,-203.9737 1420.1144,-210.9511"/>
</g>
<!-- Node29&#45;&gt;Node4 -->
<g id="edge73" class="edge">
<title>Node29&#45;&gt;Node4</title>
<path fill="none" stroke="#191970" d="M1704.2387,-258.4574C1720.4759,-256.3029 1737.5612,-254.0566 1753.5,-252 1881.4355,-235.4925 1920.9634,-261.9449 2041.5,-216 2127.3221,-183.2872 2236.4618,-123.8683 2173.5,-57 2147.793,-29.698 1578.9046,-14.6324 1434.5617,-11.2408"/>
<polygon fill="#191970" stroke="#191970" points="1434.2405,-7.7325 1424.162,-10.9994 1434.078,-14.7306 1434.2405,-7.7325"/>
</g>
<!-- Node29&#45;&gt;Node24 -->
<g id="edge72" class="edge">
<title>Node29&#45;&gt;Node24</title>
<path fill="none" stroke="#191970" d="M1612.974,-258.3188C1597.0725,-248.5223 1572.531,-233.403 1552.312,-220.9467"/>
<polygon fill="#191970" stroke="#191970" points="1554.0116,-217.8829 1543.6618,-215.6175 1550.34,-223.8427 1554.0116,-217.8829"/>
</g>
<!-- Node30&#45;&gt;Node2 -->
<g id="edge75" class="edge">
<title>Node30&#45;&gt;Node2</title>
<path fill="none" stroke="#191970" d="M2562.264,-192.4028C2523.5223,-189.2223 2476.6585,-185.6088 2434.5,-183 2081.0367,-161.1271 1990.95,-181.5498 1638.5,-147 1625.4462,-145.7204 1611.5702,-143.9434 1598.2475,-142.0271"/>
<polygon fill="#191970" stroke="#191970" points="1598.5946,-138.5404 1588.1902,-140.5404 1597.5709,-145.4652 1598.5946,-138.5404"/>
</g>
<!-- Node30&#45;&gt;Node4 -->
<g id="edge77" class="edge">
<title>Node30&#45;&gt;Node4</title>
<path fill="none" stroke="#191970" d="M2689.408,-189.4799C2712.1946,-181.8779 2737.8742,-168.8631 2751.5,-147 2773.5883,-111.5584 2759.391,-79.9482 2724.5,-57 2668.966,-20.4746 1633.1587,-11.989 1434.3455,-10.6942"/>
<polygon fill="#191970" stroke="#191970" points="1434.2551,-7.1936 1424.233,-10.6299 1434.2105,-14.1935 1434.2551,-7.1936"/>
</g>
<!-- Node30&#45;&gt;Node25 -->
<g id="edge76" class="edge">
<title>Node30&#45;&gt;Node25</title>
<path fill="none" stroke="#191970" d="M2678.933,-189.3352C2699.2794,-181.3562 2723.3675,-168.0063 2735.5,-147 2742.8354,-134.2995 2741.9552,-127.1697 2735.5,-114 2729.1214,-100.9867 2717.1513,-90.573 2705.5705,-82.9269"/>
<polygon fill="#191970" stroke="#191970" points="2707.2475,-79.85 2696.8895,-77.6221 2703.5974,-85.823 2707.2475,-79.85"/>
</g>
<!-- Node31&#45;&gt;Node4 -->
<g id="edge85" class="edge">
<title>Node31&#45;&gt;Node4</title>
<path fill="none" stroke="#191970" d="M186.4072,-252.3559C160.8764,-231.3388 119.2279,-191.9398 102.5,-147 85.8996,-102.4027 116.802,-75.8409 160.5,-57 217.5503,-32.4021 1178.1546,-14.3986 1368.7731,-11.059"/>
<polygon fill="#191970" stroke="#191970" points="1369.054,-14.5548 1378.9916,-10.8812 1368.9322,-7.5558 1369.054,-14.5548"/>
</g>
<!-- Node31&#45;&gt;Node7 -->
<g id="edge84" class="edge">
<title>Node31&#45;&gt;Node7</title>
<path fill="none" stroke="#191970" d="M205.4663,-252.4883C203.989,-234.0793 204.2838,-203.7381 218.5,-183 262.6141,-118.6479 354.6112,-86.9159 401.9529,-74.316"/>
<polygon fill="#191970" stroke="#191970" points="403.0645,-77.6445 411.888,-71.7797 401.333,-70.8621 403.0645,-77.6445"/>
</g>
<!-- Node32 -->
<g id="node32" class="node">
<title>Node32</title>
<g id="a_node32"><a xlink:href="../../df/d1c/PHG4Subsystem_8h.html" target="_top" xlink:title="g4main/PHG4Subsystem.h">
<polygon fill="none" stroke="#000000" points="1152,-189.5 1152,-209.5 1303,-209.5 1303,-189.5 1152,-189.5"/>
<text text-anchor="middle" x="1227.5" y="-196.5" font-family="FreeSans" font-size="10.00" fill="#000000">g4main/PHG4Subsystem.h</text>
</a>
</g>
</g>
<!-- Node31&#45;&gt;Node32 -->
<g id="edge79" class="edge">
<title>Node31&#45;&gt;Node32</title>
<path fill="none" stroke="#191970" d="M283.8722,-253.1239C286.7802,-252.7136 289.6637,-252.3363 292.5,-252 651.2305,-209.4651 744.6809,-248.0464 1104.5,-216 1119.5517,-214.6595 1135.5883,-212.815 1150.9405,-210.8433"/>
<polygon fill="#191970" stroke="#191970" points="1151.454,-214.306 1160.9129,-209.5332 1150.5422,-207.3656 1151.454,-214.306"/>
</g>
<!-- Node32&#45;&gt;Node2 -->
<g id="edge81" class="edge">
<title>Node32&#45;&gt;Node2</title>
<path fill="none" stroke="#191970" d="M1271.4134,-189.4668C1325.5393,-177.1003 1417.4854,-156.0927 1475.7699,-142.7761"/>
<polygon fill="#191970" stroke="#191970" points="1476.5644,-146.1848 1485.5336,-140.5453 1475.0052,-139.3607 1476.5644,-146.1848"/>
</g>
<!-- Node32&#45;&gt;Node4 -->
<g id="edge83" class="edge">
<title>Node32&#45;&gt;Node4</title>
<path fill="none" stroke="#191970" d="M1154.0258,-189.4735C1137.7249,-187.2965 1120.5302,-185.0369 1104.5,-183 1037.8906,-174.5362 849.0605,-197.2275 804.5,-147 794.7665,-136.0287 797.1316,-126.6814 804.5,-114 830.2011,-69.7672 855.7141,-72.3954 904.5,-57 991.6259,-29.5057 1272.3725,-15.7579 1368.6998,-11.7635"/>
<polygon fill="#191970" stroke="#191970" points="1368.8861,-15.2589 1378.7355,-11.3552 1368.6015,-8.2647 1368.8861,-15.2589"/>
</g>
<!-- Node32&#45;&gt;Node9 -->
<g id="edge82" class="edge">
<title>Node32&#45;&gt;Node9</title>
<path fill="none" stroke="#191970" d="M1303.2109,-193.0022C1462.654,-179.2927 1818.6777,-148.5356 1821.5,-147 1846.2448,-133.5364 1864.3816,-105.579 1874.4388,-86.6736"/>
<polygon fill="#191970" stroke="#191970" points="1877.5682,-88.2411 1878.9537,-77.7372 1871.3203,-85.0844 1877.5682,-88.2411"/>
</g>
<!-- Node32&#45;&gt;Node13 -->
<g id="edge80" class="edge">
<title>Node32&#45;&gt;Node13</title>
<path fill="none" stroke="#191970" d="M1220.124,-189.1422C1204.2681,-166.8765 1166.7529,-114.1955 1146.6921,-86.0251"/>
<polygon fill="#191970" stroke="#191970" points="1149.4935,-83.9251 1140.8418,-77.8097 1143.7915,-87.9856 1149.4935,-83.9251"/>
</g>
<!-- Node34 -->
<g id="node34" class="node">
<title>Node34</title>
<g id="a_node34"><a xlink:href="../../d0/d11/PHFlag_8h.html" target="_top" xlink:title="PHFlag.h">
<polygon fill="none" stroke="#000000" points="111.5,-120.5 111.5,-140.5 171.5,-140.5 171.5,-120.5 111.5,-120.5"/>
<text text-anchor="middle" x="141.5" y="-127.5" font-family="FreeSans" font-size="10.00" fill="#000000">PHFlag.h</text>
</a>
</g>
</g>
<!-- Node33&#45;&gt;Node34 -->
<g id="edge87" class="edge">
<title>Node33&#45;&gt;Node34</title>
<path fill="none" stroke="#191970" d="M62.8888,-258.1276C77.1726,-234.9375 111.8586,-178.6236 130.0045,-149.1632"/>
<polygon fill="#191970" stroke="#191970" points="133.0037,-150.9678 135.2681,-140.6178 127.0435,-147.2967 133.0037,-150.9678"/>
</g>
<!-- Node34&#45;&gt;Node4 -->
<g id="edge89" class="edge">
<title>Node34&#45;&gt;Node4</title>
<path fill="none" stroke="#191970" d="M144.1515,-120.4489C149.1238,-103.8593 161.5723,-71.1744 185.5,-57 237.8214,-26.0057 1179.9449,-13.1463 1368.7271,-10.8752"/>
<polygon fill="#191970" stroke="#191970" points="1368.9,-14.3735 1378.8577,-10.7549 1368.8168,-7.374 1368.9,-14.3735"/>
</g>
<!-- Node34&#45;&gt;Node7 -->
<g id="edge88" class="edge">
<title>Node34&#45;&gt;Node7</title>
<path fill="none" stroke="#191970" d="M171.7144,-123.9362C227.5921,-111.7972 346.4223,-85.9824 401.8631,-73.9384"/>
<polygon fill="#191970" stroke="#191970" points="402.7296,-77.3318 411.7587,-71.7886 401.2436,-70.4914 402.7296,-77.3318"/>
</g>
<!-- Node37&#45;&gt;Node4 -->
<g id="edge102" class="edge">
<title>Node37&#45;&gt;Node4</title>
<path fill="none" stroke="#191970" d="M2516.1978,-257.7422C2600.1426,-246.5691 2717.9659,-228.9439 2735.5,-216 2792.5733,-173.8677 2806.9823,-98.5726 2749.5,-57 2694.5659,-17.2703 1635.6212,-11.3679 1434.3708,-10.6039"/>
<polygon fill="#191970" stroke="#191970" points="1434.1578,-7.1032 1424.1451,-10.5668 1434.1323,-14.1032 1434.1578,-7.1032"/>
</g>
<!-- Node37&#45;&gt;Node25 -->
<g id="edge103" class="edge">
<title>Node37&#45;&gt;Node25</title>
<path fill="none" stroke="#191970" d="M2449.1633,-252.1701C2472.1643,-232.8771 2513.1722,-201.1185 2553.5,-183 2615.6438,-155.08 2660.3613,-200.5324 2702.5,-147 2716.7035,-128.9561 2703.2008,-103.0134 2690.713,-85.7268"/>
<polygon fill="#191970" stroke="#191970" points="2693.3016,-83.3517 2684.4274,-77.5638 2687.7553,-87.6224 2693.3016,-83.3517"/>
</g>
<!-- Node37&#45;&gt;Node38 -->
<g id="edge93" class="edge">
<title>Node37&#45;&gt;Node38</title>
<path fill="none" stroke="#191970" d="M2409.8579,-252.4966C2395.7397,-241.551 2377.0727,-227.0789 2362.8133,-216.0238"/>
<polygon fill="#191970" stroke="#191970" points="2364.632,-213.0052 2354.5844,-209.6441 2360.343,-218.5373 2364.632,-213.0052"/>
</g>
<!-- Node38&#45;&gt;Node4 -->
<g id="edge99" class="edge">
<title>Node38&#45;&gt;Node4</title>
<path fill="none" stroke="#191970" d="M2338.0593,-189.1818C2328.3192,-161.8216 2297.6895,-87.4371 2243.5,-57 2172.0509,-16.8686 1581.5168,-11.366 1434.5316,-10.6171"/>
<polygon fill="#191970" stroke="#191970" points="1434.3614,-7.1163 1424.3451,-10.5693 1434.3285,-14.1162 1434.3614,-7.1163"/>
</g>
<!-- Node38&#45;&gt;Node10 -->
<g id="edge100" class="edge">
<title>Node38&#45;&gt;Node10</title>
<path fill="none" stroke="#191970" d="M2323.7165,-189.4454C2305.7599,-179.1641 2277.3465,-162.5418 2253.5,-147 2221.4029,-126.081 2185.4775,-100.1045 2163.1726,-83.6592"/>
<polygon fill="#191970" stroke="#191970" points="2165.1712,-80.784 2155.051,-77.6481 2161.0068,-86.4106 2165.1712,-80.784"/>
</g>
<!-- Node38&#45;&gt;Node12 -->
<g id="edge96" class="edge">
<title>Node38&#45;&gt;Node12</title>
<path fill="none" stroke="#191970" d="M2257.4226,-195.5335C2100.3472,-187.8938 1751.6959,-169.8538 1458.5,-147 1434.0643,-145.0953 1407.6959,-142.7132 1383.1536,-140.3565"/>
<polygon fill="#191970" stroke="#191970" points="1383.4141,-136.8654 1373.1233,-139.3851 1382.7393,-143.8328 1383.4141,-136.8654"/>
</g>
<!-- Node38&#45;&gt;Node13 -->
<g id="edge97" class="edge">
<title>Node38&#45;&gt;Node13</title>
<path fill="none" stroke="#191970" d="M2257.305,-190.4801C2176.1487,-181.3072 2050.0228,-165.7927 1941.5,-147 1872.9564,-135.1304 1857.3903,-123.6559 1788.5,-114 1548.539,-80.3663 1486.0278,-97.4114 1244.5,-78 1232.5162,-77.0369 1219.8136,-75.923 1207.4465,-74.7883"/>
<polygon fill="#191970" stroke="#191970" points="1207.4409,-71.2728 1197.16,-73.8331 1206.7935,-78.2428 1207.4409,-71.2728"/>
</g>
<!-- Node39 -->
<g id="node39" class="node">
<title>Node39</title>
<g id="a_node39"><a xlink:href="../../de/d81/PHHepMCGenHelper_8h.html" target="_top" xlink:title="PHHepMCGenHelper.h">
<polygon fill="none" stroke="#000000" points="2565.5,-120.5 2565.5,-140.5 2693.5,-140.5 2693.5,-120.5 2565.5,-120.5"/>
<text text-anchor="middle" x="2629.5" y="-127.5" font-family="FreeSans" font-size="10.00" fill="#000000">PHHepMCGenHelper.h</text>
</a>
</g>
</g>
<!-- Node38&#45;&gt;Node39 -->
<g id="edge94" class="edge">
<title>Node38&#45;&gt;Node39</title>
<path fill="none" stroke="#191970" d="M2383.3777,-189.4668C2434.7811,-177.1514 2521.9541,-156.2662 2577.57,-142.9416"/>
<polygon fill="#191970" stroke="#191970" points="2578.6625,-146.279 2587.5718,-140.5453 2577.0315,-139.4716 2578.6625,-146.279"/>
</g>
<!-- Node40 -->
<g id="node40" class="node">
<title>Node40</title>
<polygon fill="none" stroke="#bfbfbf" points="2334,-120.5 2334,-140.5 2389,-140.5 2389,-120.5 2334,-120.5"/>
<text text-anchor="middle" x="2361.5" y="-127.5" font-family="FreeSans" font-size="10.00" fill="#000000">fstream</text>
</g>
<!-- Node38&#45;&gt;Node40 -->
<g id="edge98" class="edge">
<title>Node38&#45;&gt;Node40</title>
<path fill="none" stroke="#191970" d="M2344.4511,-189.3188C2347.4052,-179.1269 2352.0293,-163.174 2355.7168,-150.4521"/>
<polygon fill="#191970" stroke="#191970" points="2359.1144,-151.302 2358.5368,-140.723 2352.3912,-149.3532 2359.1144,-151.302"/>
</g>
<!-- Node41 -->
<g id="node41" class="node">
<title>Node41</title>
<polygon fill="none" stroke="#bfbfbf" points="2407.5,-114.5 2407.5,-146.5 2547.5,-146.5 2547.5,-114.5 2407.5,-114.5"/>
<text text-anchor="start" x="2415.5" y="-133.5" font-family="FreeSans" font-size="10.00" fill="#000000">boost/iostreams/filtering</text>
<text text-anchor="middle" x="2477.5" y="-121.5" font-family="FreeSans" font-size="10.00" fill="#000000">_streambuf.hpp</text>
</g>
<!-- Node38&#45;&gt;Node41 -->
<g id="edge101" class="edge">
<title>Node38&#45;&gt;Node41</title>
<path fill="none" stroke="#191970" d="M2361.2756,-189.4668C2380.9384,-179.4908 2411.6846,-163.8916 2436.6156,-151.2428"/>
<polygon fill="#191970" stroke="#191970" points="2438.5163,-154.2032 2445.8506,-146.5574 2435.3491,-147.9607 2438.5163,-154.2032"/>
</g>
<!-- Node39&#45;&gt;Node25 -->
<g id="edge95" class="edge">
<title>Node39&#45;&gt;Node25</title>
<path fill="none" stroke="#191970" d="M2636.8907,-120.378C2643.624,-111.1563 2653.7367,-97.3063 2661.9235,-86.094"/>
<polygon fill="#191970" stroke="#191970" points="2664.9045,-87.9464 2667.9748,-77.8062 2659.2511,-83.8185 2664.9045,-87.9464"/>
</g>
<!-- Node42&#45;&gt;Node5 -->
<g id="edge112" class="edge">
<title>Node42&#45;&gt;Node5</title>
<path fill="none" stroke="#191970" d="M2595.3619,-261.0797C2573.9381,-258.0018 2548.5097,-254.5597 2525.5,-252 2328.3313,-230.0658 2095.2497,-212.7613 1977.2356,-204.6061"/>
<polygon fill="#191970" stroke="#191970" points="1977.4305,-201.1113 1967.2137,-203.9165 1976.9498,-208.0948 1977.4305,-201.1113"/>
</g>
<!-- Node42&#45;&gt;Node12 -->
<g id="edge113" class="edge">
<title>Node42&#45;&gt;Node12</title>
<path fill="none" stroke="#191970" d="M2595.3989,-260.7204C2573.9817,-257.5789 2548.5482,-254.1864 2525.5,-252 2215.37,-222.5801 2135.3231,-248.4929 1825.5,-216 1802.4933,-213.5872 1500.3252,-164.9086 1359.2028,-142.1023"/>
<polygon fill="#191970" stroke="#191970" points="1359.7567,-138.6464 1349.3264,-140.5059 1358.6398,-145.5568 1359.7567,-138.6464"/>
</g>
<!-- Node42&#45;&gt;Node21 -->
<g id="edge114" class="edge">
<title>Node42&#45;&gt;Node21</title>
<path fill="none" stroke="#191970" d="M2595.4238,-260.439C2574.011,-257.2476 2548.5741,-253.894 2525.5,-252 1912.6862,-201.6976 1755.3138,-266.3024 1142.5,-216 1130.6447,-215.0269 1118.1655,-213.6684 1105.929,-212.1446"/>
<polygon fill="#191970" stroke="#191970" points="1106.0915,-208.6367 1095.7263,-210.8306 1105.1973,-215.5794 1106.0915,-208.6367"/>
</g>
<!-- Node42&#45;&gt;Node30 -->
<g id="edge115" class="edge">
<title>Node42&#45;&gt;Node30</title>
<path fill="none" stroke="#191970" d="M2644.5,-258.3188C2644.5,-248.2289 2644.5,-232.4925 2644.5,-219.8347"/>
<polygon fill="#191970" stroke="#191970" points="2648.0001,-219.7229 2644.5,-209.723 2641.0001,-219.723 2648.0001,-219.7229"/>
</g>
<!-- Node43 -->
<g id="node43" class="node">
<title>Node43</title>
<g id="a_node43"><a xlink:href="../../da/d98/fun4all__g4jleic_2blob_2master_2macros_2G4__Pipe_8C.html" target="_top" xlink:title="G4_Pipe.C">
<polygon fill="none" stroke="#ff0000" points="2967,-189.5 2967,-209.5 3034,-209.5 3034,-189.5 2967,-189.5"/>
<text text-anchor="middle" x="3000.5" y="-196.5" font-family="FreeSans" font-size="10.00" fill="#000000">G4_Pipe.C</text>
</a>
</g>
</g>
<!-- Node42&#45;&gt;Node43 -->
<g id="edge106" class="edge">
<title>Node42&#45;&gt;Node43</title>
<path fill="none" stroke="#191970" d="M2676.8204,-258.4593C2685.1328,-256.1108 2694.1017,-253.7787 2702.5,-252 2814.4735,-228.2852 2846.6957,-244.6854 2957.5,-216 2960.8527,-215.132 2964.3019,-214.0854 2967.7188,-212.9455"/>
<polygon fill="#191970" stroke="#191970" points="2968.9276,-216.2303 2977.1564,-209.5567 2966.5619,-209.6422 2968.9276,-216.2303"/>
</g>
<!-- Node44 -->
<g id="node44" class="node">
<title>Node44</title>
<g id="a_node44"><a xlink:href="../../d7/d57/G4__VTX_8C.html" target="_top" xlink:title="G4_VTX.C">
<polygon fill="none" stroke="#ff0000" points="3052.5,-189.5 3052.5,-209.5 3118.5,-209.5 3118.5,-189.5 3052.5,-189.5"/>
<text text-anchor="middle" x="3085.5" y="-196.5" font-family="FreeSans" font-size="10.00" fill="#000000">G4_VTX.C</text>
</a>
</g>
</g>
<!-- Node42&#45;&gt;Node44 -->
<g id="edge107" class="edge">
<title>Node42&#45;&gt;Node44</title>
<path fill="none" stroke="#191970" d="M2676.1719,-258.4265C2684.6538,-256.0218 2693.8663,-253.6709 2702.5,-252 2852.1215,-223.043 2895.4615,-252.1895 3043.5,-216 3046.8746,-215.175 3050.3403,-214.1408 3053.7643,-212.9946"/>
<polygon fill="#191970" stroke="#191970" points="3055.0024,-216.2685 3063.1932,-209.5482 3052.5994,-209.6939 3055.0024,-216.2685"/>
</g>
<!-- Node45 -->
<g id="node45" class="node">
<title>Node45</title>
<g id="a_node45"><a xlink:href="../../df/d7d/G4__CTD_8C.html" target="_top" xlink:title="G4_CTD.C">
<polygon fill="none" stroke="#ff0000" points="3137,-189.5 3137,-209.5 3204,-209.5 3204,-189.5 3137,-189.5"/>
<text text-anchor="middle" x="3170.5" y="-196.5" font-family="FreeSans" font-size="10.00" fill="#000000">G4_CTD.C</text>
</a>
</g>
</g>
<!-- Node42&#45;&gt;Node45 -->
<g id="edge108" class="edge">
<title>Node42&#45;&gt;Node45</title>
<path fill="none" stroke="#191970" d="M2675.5446,-258.4773C2684.1919,-256.0126 2693.6435,-253.6192 2702.5,-252 2888.9743,-217.907 2942.7319,-258.3762 3127.5,-216 3130.956,-215.2074 3134.5049,-214.1943 3138.0108,-213.0608"/>
<polygon fill="#191970" stroke="#191970" points="3139.4135,-216.2769 3147.6648,-209.6312 3137.0701,-209.6808 3139.4135,-216.2769"/>
</g>
<!-- Node46 -->
<g id="node46" class="node">
<title>Node46</title>
<g id="a_node46"><a xlink:href="../../d4/d93/fun4all__g4jleic_2blob_2master_2macros_2G4__Magnet_8C.html" target="_top" xlink:title="G4_Magnet.C">
<polygon fill="none" stroke="#ff0000" points="3222.5,-189.5 3222.5,-209.5 3306.5,-209.5 3306.5,-189.5 3222.5,-189.5"/>
<text text-anchor="middle" x="3264.5" y="-196.5" font-family="FreeSans" font-size="10.00" fill="#000000">G4_Magnet.C</text>
</a>
</g>
</g>
<!-- Node42&#45;&gt;Node46 -->
<g id="edge109" class="edge">
<title>Node42&#45;&gt;Node46</title>
<path fill="none" stroke="#191970" d="M2675.2284,-258.4803C2683.957,-255.9845 2693.5291,-253.5745 2702.5,-252 2926.7461,-212.641 2989.993,-259.3599 3213.5,-216 3218.2192,-215.0845 3223.1104,-213.8666 3227.912,-212.5057"/>
<polygon fill="#191970" stroke="#191970" points="3229.0153,-215.8285 3237.5585,-209.5624 3226.9724,-209.1332 3229.0153,-215.8285"/>
</g>
<!-- Node47 -->
<g id="node47" class="node">
<title>Node47</title>
<g id="a_node47"><a xlink:href="../../db/d88/G4__Gem_8C.html" target="_top" xlink:title="G4_Gem.C">
<polygon fill="none" stroke="#ff0000" points="2782.5,-189.5 2782.5,-209.5 2852.5,-209.5 2852.5,-189.5 2782.5,-189.5"/>
<text text-anchor="middle" x="2817.5" y="-196.5" font-family="FreeSans" font-size="10.00" fill="#000000">G4_Gem.C</text>
</a>
</g>
</g>
<!-- Node42&#45;&gt;Node47 -->
<g id="edge110" class="edge">
<title>Node42&#45;&gt;Node47</title>
<path fill="none" stroke="#191970" d="M2669.6557,-258.4668C2699.5085,-246.5602 2749.445,-226.6433 2782.9178,-213.2929"/>
<polygon fill="#191970" stroke="#191970" points="2784.3221,-216.501 2792.314,-209.5453 2781.7288,-209.999 2784.3221,-216.501"/>
</g>
<!-- Node48 -->
<g id="node48" class="node">
<title>Node48</title>
<g id="a_node48"><a xlink:href="../../dd/d4f/G4__JLDIRC_8C.html" target="_top" xlink:title="G4_JLDIRC.C">
<polygon fill="none" stroke="#ff0000" points="2870.5,-189.5 2870.5,-209.5 2948.5,-209.5 2948.5,-189.5 2870.5,-189.5"/>
<text text-anchor="middle" x="2909.5" y="-196.5" font-family="FreeSans" font-size="10.00" fill="#000000">G4_JLDIRC.C</text>
</a>
</g>
</g>
<!-- Node42&#45;&gt;Node48 -->
<g id="edge111" class="edge">
<title>Node42&#45;&gt;Node48</title>
<path fill="none" stroke="#191970" d="M2678.7657,-258.4177C2686.547,-256.2214 2694.7907,-253.9678 2702.5,-252 2772.7045,-234.0805 2791.8042,-235.806 2861.5,-216 2865.0574,-214.9891 2868.7385,-213.8661 2872.4071,-212.6951"/>
<polygon fill="#191970" stroke="#191970" points="2873.5984,-215.9877 2881.9953,-209.5268 2871.4021,-209.3411 2873.5984,-215.9877"/>
</g>
<!-- Node49&#45;&gt;Node5 -->
<g id="edge117" class="edge">
<title>Node49&#45;&gt;Node5</title>
<path fill="none" stroke="#191970" d="M1816.1078,-258.3188C1832.2663,-247.0568 1858.5178,-228.7603 1877.4546,-215.5619"/>
<polygon fill="#191970" stroke="#191970" points="1879.6296,-218.3123 1885.8323,-209.723 1875.627,-212.5695 1879.6296,-218.3123"/>
</g>
<!-- Node50&#45;&gt;Node5 -->
<g id="edge119" class="edge">
<title>Node50&#45;&gt;Node5</title>
<path fill="none" stroke="#191970" d="M1911.5818,-258.3188C1909.6808,-248.2289 1906.716,-232.4925 1904.3312,-219.8347"/>
<polygon fill="#191970" stroke="#191970" points="1907.7171,-218.902 1902.4261,-209.723 1900.8381,-220.1981 1907.7171,-218.902"/>
</g>
</g>
</svg>
