<?xml version="1.0" encoding="UTF-8" standalone="no"?>
<!DOCTYPE svg PUBLIC "-//W3C//DTD SVG 1.1//EN"
 "http://www.w3.org/Graphics/SVG/1.1/DTD/svg11.dtd">
<!-- Generated by graphviz version 2.40.1 (20161225.0304)
 -->
<!-- Title: fun4all_coresoftware/blob/master/offline/framework/fun4all/Fun4AllInputManager.h Pages: 1 -->
<svg width="549pt" height="179pt"
 viewBox="0.00 0.00 548.50 179.00" xmlns="http://www.w3.org/2000/svg" xmlns:xlink="http://www.w3.org/1999/xlink">
<g id="graph0" class="graph" transform="scale(1 1) rotate(0) translate(4 175)">
<title>fun4all_coresoftware/blob/master/offline/framework/fun4all/Fun4AllInputManager.h</title>
<!-- Node1 -->
<g id="node1" class="node">
<title>Node1</title>
<polygon fill="#bfbfbf" stroke="#000000" points="215,-114.5 215,-170.5 396,-170.5 396,-114.5 215,-114.5"/>
<text text-anchor="start" x="223" y="-157.5" font-family="FreeSans" font-size="10.00" fill="#000000">fun4all_coresoftware</text>
<text text-anchor="start" x="223" y="-145.5" font-family="FreeSans" font-size="10.00" fill="#000000">/blob/master/offline</text>
<text text-anchor="start" x="223" y="-133.5" font-family="FreeSans" font-size="10.00" fill="#000000">/framework/fun4all/Fun4AllInput</text>
<text text-anchor="middle" x="305.5" y="-121.5" font-family="FreeSans" font-size="10.00" fill="#000000">Manager.h</text>
</g>
<!-- Node2 -->
<g id="node2" class="node">
<title>Node2</title>
<g id="a_node2"><a xlink:href="../../d2/de7/Fun4AllBase_8h.html" target="_top" xlink:title="Fun4AllBase.h">
<polygon fill="none" stroke="#000000" points="0,-57.5 0,-77.5 87,-77.5 87,-57.5 0,-57.5"/>
<text text-anchor="middle" x="43.5" y="-64.5" font-family="FreeSans" font-size="10.00" fill="#000000">Fun4AllBase.h</text>
</a>
</g>
</g>
<!-- Node1&#45;&gt;Node2 -->
<g id="edge1" class="edge">
<title>Node1&#45;&gt;Node2</title>
<path fill="none" stroke="#191970" d="M214.9676,-116.5842C172.158,-104.3296 122.9549,-90.2447 88.2667,-80.3149"/>
<polygon fill="#191970" stroke="#191970" points="89.0157,-76.8888 78.4386,-77.5015 87.0893,-83.6185 89.0157,-76.8888"/>
</g>
<!-- Node4 -->
<g id="node4" class="node">
<title>Node4</title>
<polygon fill="none" stroke="#bfbfbf" points="89,-.5 89,-20.5 134,-20.5 134,-.5 89,-.5"/>
<text text-anchor="middle" x="111.5" y="-7.5" font-family="FreeSans" font-size="10.00" fill="#000000">string</text>
</g>
<!-- Node1&#45;&gt;Node4 -->
<g id="edge6" class="edge">
<title>Node1&#45;&gt;Node4</title>
<path fill="none" stroke="#191970" d="M214.576,-123.9323C186.2131,-114.2863 156.8123,-99.765 135.5,-78 123.0185,-65.2534 116.9893,-45.5998 114.1003,-30.7809"/>
<polygon fill="#191970" stroke="#191970" points="117.5029,-29.8971 112.4484,-20.5857 110.593,-31.0168 117.5029,-29.8971"/>
</g>
<!-- Node5 -->
<g id="node5" class="node">
<title>Node5</title>
<g id="a_node5"><a xlink:href="../../da/dc1/Fun4AllReturnCodes_8h.html" target="_top" xlink:title="Fun4AllReturnCodes.h">
<polygon fill="none" stroke="#000000" points="144,-57.5 144,-77.5 271,-77.5 271,-57.5 144,-57.5"/>
<text text-anchor="middle" x="207.5" y="-64.5" font-family="FreeSans" font-size="10.00" fill="#000000">Fun4AllReturnCodes.h</text>
</a>
</g>
</g>
<!-- Node1&#45;&gt;Node5 -->
<g id="edge4" class="edge">
<title>Node1&#45;&gt;Node5</title>
<path fill="none" stroke="#191970" d="M268.7296,-114.3594C255.3993,-104.1576 240.779,-92.9686 229.1687,-84.0832"/>
<polygon fill="#191970" stroke="#191970" points="231.0167,-81.0901 220.9482,-77.792 226.7624,-86.649 231.0167,-81.0901"/>
</g>
<!-- Node6 -->
<g id="node6" class="node">
<title>Node6</title>
<polygon fill="none" stroke="#bfbfbf" points="289.5,-57.5 289.5,-77.5 321.5,-77.5 321.5,-57.5 289.5,-57.5"/>
<text text-anchor="middle" x="305.5" y="-64.5" font-family="FreeSans" font-size="10.00" fill="#000000">list</text>
</g>
<!-- Node1&#45;&gt;Node6 -->
<g id="edge5" class="edge">
<title>Node1&#45;&gt;Node6</title>
<path fill="none" stroke="#191970" d="M305.5,-114.1457C305.5,-105.3619 305.5,-95.8652 305.5,-87.7476"/>
<polygon fill="#191970" stroke="#191970" points="309.0001,-87.7295 305.5,-77.7296 302.0001,-87.7296 309.0001,-87.7295"/>
</g>
<!-- Node7 -->
<g id="node7" class="node">
<title>Node7</title>
<polygon fill="none" stroke="#bfbfbf" points="340,-57.5 340,-77.5 385,-77.5 385,-57.5 340,-57.5"/>
<text text-anchor="middle" x="362.5" y="-64.5" font-family="FreeSans" font-size="10.00" fill="#000000">utility</text>
</g>
<!-- Node1&#45;&gt;Node7 -->
<g id="edge7" class="edge">
<title>Node1&#45;&gt;Node7</title>
<path fill="none" stroke="#191970" d="M327.0493,-114.1457C334.2559,-104.6632 342.0941,-94.3498 348.5633,-85.8377"/>
<polygon fill="#191970" stroke="#191970" points="351.4612,-87.809 354.7255,-77.7296 345.8881,-83.5734 351.4612,-87.809"/>
</g>
<!-- Node8 -->
<g id="node8" class="node">
<title>Node8</title>
<polygon fill="none" stroke="#bfbfbf" points="403,-57.5 403,-77.5 452,-77.5 452,-57.5 403,-57.5"/>
<text text-anchor="middle" x="427.5" y="-64.5" font-family="FreeSans" font-size="10.00" fill="#000000">vector</text>
</g>
<!-- Node1&#45;&gt;Node8 -->
<g id="edge8" class="edge">
<title>Node1&#45;&gt;Node8</title>
<path fill="none" stroke="#191970" d="M351.2754,-114.3594C368.633,-103.6887 387.7476,-91.938 402.4934,-82.8729"/>
<polygon fill="#191970" stroke="#191970" points="404.3694,-85.8281 411.0555,-77.6094 400.7035,-79.8648 404.3694,-85.8281"/>
</g>
<!-- Node9 -->
<g id="node9" class="node">
<title>Node9</title>
<polygon fill="none" stroke="#bfbfbf" points="470.5,-57.5 470.5,-77.5 540.5,-77.5 540.5,-57.5 470.5,-57.5"/>
<text text-anchor="middle" x="505.5" y="-64.5" font-family="FreeSans" font-size="10.00" fill="#000000">type_traits</text>
</g>
<!-- Node1&#45;&gt;Node9 -->
<g id="edge9" class="edge">
<title>Node1&#45;&gt;Node9</title>
<path fill="none" stroke="#191970" d="M380.257,-114.4661C410.6213,-103.0795 444.308,-90.447 469.0901,-81.1537"/>
<polygon fill="#191970" stroke="#191970" points="470.3254,-84.4286 478.4597,-77.6401 467.8674,-77.8743 470.3254,-84.4286"/>
</g>
<!-- Node3 -->
<g id="node3" class="node">
<title>Node3</title>
<polygon fill="none" stroke="#bfbfbf" points="19,-.5 19,-20.5 68,-20.5 68,-.5 19,-.5"/>
<text text-anchor="middle" x="43.5" y="-7.5" font-family="FreeSans" font-size="10.00" fill="#000000">climits</text>
</g>
<!-- Node2&#45;&gt;Node3 -->
<g id="edge2" class="edge">
<title>Node2&#45;&gt;Node3</title>
<path fill="none" stroke="#191970" d="M43.5,-57.3095C43.5,-49.9335 43.5,-39.72 43.5,-30.715"/>
<polygon fill="#191970" stroke="#191970" points="47.0001,-30.6022 43.5,-20.6022 40.0001,-30.6023 47.0001,-30.6022"/>
</g>
<!-- Node2&#45;&gt;Node4 -->
<g id="edge3" class="edge">
<title>Node2&#45;&gt;Node4</title>
<path fill="none" stroke="#191970" d="M55.657,-57.3095C65.6169,-48.9608 79.9135,-36.9769 91.5475,-27.2249"/>
<polygon fill="#191970" stroke="#191970" points="94.0329,-29.7086 99.4482,-20.6022 89.5361,-24.344 94.0329,-29.7086"/>
</g>
</g>
</svg>
