<?xml version="1.0" encoding="UTF-8" standalone="no"?>
<!DOCTYPE svg PUBLIC "-//W3C//DTD SVG 1.1//EN"
 "http://www.w3.org/Graphics/SVG/1.1/DTD/svg11.dtd">
<!-- Generated by graphviz version 2.40.1 (20161225.0304)
 -->
<!-- Title: fun4all_coresoftware/blob/master/offline/packages/PHField/PHField2D.cc Pages: 1 -->
<svg width="1570pt" height="167pt"
 viewBox="0.00 0.00 1569.50 167.00" xmlns="http://www.w3.org/2000/svg" xmlns:xlink="http://www.w3.org/1999/xlink">
<g id="graph0" class="graph" transform="scale(1 1) rotate(0) translate(4 163)">
<title>fun4all_coresoftware/blob/master/offline/packages/PHField/PHField2D.cc</title>
<!-- Node1 -->
<g id="node1" class="node">
<title>Node1</title>
<polygon fill="#bfbfbf" stroke="#000000" points="966,-114.5 966,-158.5 1144,-158.5 1144,-114.5 966,-114.5"/>
<text text-anchor="start" x="974" y="-145.5" font-family="FreeSans" font-size="10.00" fill="#000000">fun4all_coresoftware</text>
<text text-anchor="start" x="974" y="-133.5" font-family="FreeSans" font-size="10.00" fill="#000000">/blob/master/offline</text>
<text text-anchor="middle" x="1055" y="-121.5" font-family="FreeSans" font-size="10.00" fill="#000000">/packages/PHField/PHField2D.cc</text>
</g>
<!-- Node2 -->
<g id="node2" class="node">
<title>Node2</title>
<g id="a_node2"><a xlink:href="../../da/d06/PHField2D_8h.html" target="_top" xlink:title="PHField2D.h">
<polygon fill="none" stroke="#000000" points="203.5,-57.5 203.5,-77.5 280.5,-77.5 280.5,-57.5 203.5,-57.5"/>
<text text-anchor="middle" x="242" y="-64.5" font-family="FreeSans" font-size="10.00" fill="#000000">PHField2D.h</text>
</a>
</g>
</g>
<!-- Node1&#45;&gt;Node2 -->
<g id="edge1" class="edge">
<title>Node1&#45;&gt;Node2</title>
<path fill="none" stroke="#191970" d="M965.9188,-133.7057C824.6647,-128.3865 540.5965,-114.0737 290.6852,-77.9079"/>
<polygon fill="#191970" stroke="#191970" points="291.0887,-74.4298 280.6876,-76.4467 290.0763,-81.3562 291.0887,-74.4298"/>
</g>
<!-- Node8 -->
<g id="node8" class="node">
<title>Node8</title>
<polygon fill="none" stroke="#bfbfbf" points="298.5,-57.5 298.5,-77.5 375.5,-77.5 375.5,-57.5 298.5,-57.5"/>
<text text-anchor="middle" x="337" y="-64.5" font-family="FreeSans" font-size="10.00" fill="#000000">TDirectory.h</text>
</g>
<!-- Node1&#45;&gt;Node8 -->
<g id="edge7" class="edge">
<title>Node1&#45;&gt;Node8</title>
<path fill="none" stroke="#191970" d="M965.9677,-132.3663C839.2161,-125.6707 599.4045,-110.0078 385.8423,-77.9495"/>
<polygon fill="#191970" stroke="#191970" points="386.1048,-74.4494 375.6931,-76.4105 385.0553,-81.3702 386.1048,-74.4494"/>
</g>
<!-- Node9 -->
<g id="node9" class="node">
<title>Node9</title>
<polygon fill="none" stroke="#bfbfbf" points="394,-57.5 394,-77.5 444,-77.5 444,-57.5 394,-57.5"/>
<text text-anchor="middle" x="419" y="-64.5" font-family="FreeSans" font-size="10.00" fill="#000000">TFile.h</text>
</g>
<!-- Node1&#45;&gt;Node9 -->
<g id="edge8" class="edge">
<title>Node1&#45;&gt;Node9</title>
<path fill="none" stroke="#191970" d="M965.9376,-133.4811C849.7879,-128.2874 640.4277,-114.6237 454.0842,-77.8697"/>
<polygon fill="#191970" stroke="#191970" points="454.5966,-74.403 444.1045,-75.8746 453.2243,-81.2672 454.5966,-74.403"/>
</g>
<!-- Node10 -->
<g id="node10" class="node">
<title>Node10</title>
<polygon fill="none" stroke="#bfbfbf" points="462,-57.5 462,-77.5 528,-77.5 528,-57.5 462,-57.5"/>
<text text-anchor="middle" x="495" y="-64.5" font-family="FreeSans" font-size="10.00" fill="#000000">TNtuple.h</text>
</g>
<!-- Node1&#45;&gt;Node10 -->
<g id="edge9" class="edge">
<title>Node1&#45;&gt;Node10</title>
<path fill="none" stroke="#191970" d="M965.5676,-130.0215C864.1271,-121.8555 693.6941,-105.663 538.5782,-78.102"/>
<polygon fill="#191970" stroke="#191970" points="538.8455,-74.594 528.3841,-76.2701 537.6073,-81.4836 538.8455,-74.594"/>
</g>
<!-- Node11 -->
<g id="node11" class="node">
<title>Node11</title>
<polygon fill="none" stroke="#bfbfbf" points="546,-57.5 546,-77.5 708,-77.5 708,-57.5 546,-57.5"/>
<text text-anchor="middle" x="627" y="-64.5" font-family="FreeSans" font-size="10.00" fill="#000000">Geant4/G4SystemOfUnits.hh</text>
</g>
<!-- Node1&#45;&gt;Node11 -->
<g id="edge10" class="edge">
<title>Node1&#45;&gt;Node11</title>
<path fill="none" stroke="#191970" d="M965.7982,-122.1193C886.7116,-109.3694 772.6705,-90.9843 699.1919,-79.1384"/>
<polygon fill="#191970" stroke="#191970" points="699.5304,-75.6479 689.1008,-77.5116 698.4163,-82.5586 699.5304,-75.6479"/>
</g>
<!-- Node12 -->
<g id="node12" class="node">
<title>Node12</title>
<polygon fill="none" stroke="#bfbfbf" points="726,-57.5 726,-77.5 796,-77.5 796,-57.5 726,-57.5"/>
<text text-anchor="middle" x="761" y="-64.5" font-family="FreeSans" font-size="10.00" fill="#000000">TSystem.h</text>
</g>
<!-- Node1&#45;&gt;Node12 -->
<g id="edge11" class="edge">
<title>Node1&#45;&gt;Node12</title>
<path fill="none" stroke="#191970" d="M965.8854,-115.7473C920.6718,-105.1942 864.631,-92.0777 805.8944,-78.2051"/>
<polygon fill="#191970" stroke="#191970" points="806.598,-74.7751 796.0612,-75.8815 804.9882,-81.5874 806.598,-74.7751"/>
</g>
<!-- Node13 -->
<g id="node13" class="node">
<title>Node13</title>
<polygon fill="none" stroke="#bfbfbf" points="814,-57.5 814,-77.5 1004,-77.5 1004,-57.5 814,-57.5"/>
<text text-anchor="middle" x="909" y="-64.5" font-family="FreeSans" font-size="10.00" fill="#000000">boost/tuple/tuple_comparison.hpp</text>
</g>
<!-- Node1&#45;&gt;Node13 -->
<g id="edge12" class="edge">
<title>Node1&#45;&gt;Node13</title>
<path fill="none" stroke="#191970" d="M1008.4033,-114.4783C985.884,-103.8356 959.4906,-91.362 939.5618,-81.9436"/>
<polygon fill="#191970" stroke="#191970" points="940.8799,-78.6954 930.3432,-77.5869 937.8889,-85.0242 940.8799,-78.6954"/>
</g>
<!-- Node14 -->
<g id="node14" class="node">
<title>Node14</title>
<polygon fill="none" stroke="#bfbfbf" points="1022.5,-57.5 1022.5,-77.5 1087.5,-77.5 1087.5,-57.5 1022.5,-57.5"/>
<text text-anchor="middle" x="1055" y="-64.5" font-family="FreeSans" font-size="10.00" fill="#000000">algorithm</text>
</g>
<!-- Node1&#45;&gt;Node14 -->
<g id="edge13" class="edge">
<title>Node1&#45;&gt;Node14</title>
<path fill="none" stroke="#191970" d="M1055,-114.2882C1055,-105.8377 1055,-96.2557 1055,-87.9736"/>
<polygon fill="#191970" stroke="#191970" points="1058.5001,-87.7136 1055,-77.7137 1051.5001,-87.7137 1058.5001,-87.7136"/>
</g>
<!-- Node15 -->
<g id="node15" class="node">
<title>Node15</title>
<polygon fill="none" stroke="#bfbfbf" points="1106,-57.5 1106,-77.5 1154,-77.5 1154,-57.5 1106,-57.5"/>
<text text-anchor="middle" x="1130" y="-64.5" font-family="FreeSans" font-size="10.00" fill="#000000">cmath</text>
</g>
<!-- Node1&#45;&gt;Node15 -->
<g id="edge14" class="edge">
<title>Node1&#45;&gt;Node15</title>
<path fill="none" stroke="#191970" d="M1079.1433,-114.2882C1089.5812,-104.6853 1101.6071,-93.6214 1111.3434,-84.6641"/>
<polygon fill="#191970" stroke="#191970" points="1113.9086,-87.06 1118.8982,-77.7137 1109.1691,-81.9085 1113.9086,-87.06"/>
</g>
<!-- Node16 -->
<g id="node16" class="node">
<title>Node16</title>
<polygon fill="none" stroke="#bfbfbf" points="1172,-57.5 1172,-77.5 1222,-77.5 1222,-57.5 1172,-57.5"/>
<text text-anchor="middle" x="1197" y="-64.5" font-family="FreeSans" font-size="10.00" fill="#000000">cstdlib</text>
</g>
<!-- Node1&#45;&gt;Node16 -->
<g id="edge15" class="edge">
<title>Node1&#45;&gt;Node16</title>
<path fill="none" stroke="#191970" d="M1100.3201,-114.4783C1122.1228,-103.884 1147.6594,-91.4753 1167.0108,-82.0722"/>
<polygon fill="#191970" stroke="#191970" points="1168.7768,-85.1055 1176.2415,-77.5869 1165.7175,-78.8094 1168.7768,-85.1055"/>
</g>
<!-- Node17 -->
<g id="node17" class="node">
<title>Node17</title>
<polygon fill="none" stroke="#bfbfbf" points="1240,-57.5 1240,-77.5 1300,-77.5 1300,-57.5 1240,-57.5"/>
<text text-anchor="middle" x="1270" y="-64.5" font-family="FreeSans" font-size="10.00" fill="#000000">iostream</text>
</g>
<!-- Node1&#45;&gt;Node17 -->
<g id="edge16" class="edge">
<title>Node1&#45;&gt;Node17</title>
<path fill="none" stroke="#191970" d="M1123.6185,-114.4783C1158.8398,-103.1747 1200.4969,-89.8057 1230.3483,-80.2254"/>
<polygon fill="#191970" stroke="#191970" points="1231.5408,-83.5186 1239.9929,-77.1302 1229.4017,-76.8534 1231.5408,-83.5186"/>
</g>
<!-- Node18 -->
<g id="node18" class="node">
<title>Node18</title>
<polygon fill="none" stroke="#bfbfbf" points="1318,-57.5 1318,-77.5 1372,-77.5 1372,-57.5 1318,-57.5"/>
<text text-anchor="middle" x="1345" y="-64.5" font-family="FreeSans" font-size="10.00" fill="#000000">iterator</text>
</g>
<!-- Node1&#45;&gt;Node18 -->
<g id="edge17" class="edge">
<title>Node1&#45;&gt;Node18</title>
<path fill="none" stroke="#191970" d="M1144.0546,-117.3032C1190.3423,-107.0132 1248.0267,-93.7064 1307.901,-78.1909"/>
<polygon fill="#191970" stroke="#191970" points="1309.1257,-81.4887 1317.9194,-75.5793 1307.3599,-74.7151 1309.1257,-81.4887"/>
</g>
<!-- Node19 -->
<g id="node19" class="node">
<title>Node19</title>
<polygon fill="none" stroke="#bfbfbf" points="1390,-57.5 1390,-77.5 1448,-77.5 1448,-57.5 1390,-57.5"/>
<text text-anchor="middle" x="1419" y="-64.5" font-family="FreeSans" font-size="10.00" fill="#000000">memory</text>
</g>
<!-- Node1&#45;&gt;Node19 -->
<g id="edge18" class="edge">
<title>Node1&#45;&gt;Node19</title>
<path fill="none" stroke="#191970" d="M1144.3457,-122.7432C1207.6678,-112.4624 1294.7714,-97.2514 1379.7903,-78.1361"/>
<polygon fill="#191970" stroke="#191970" points="1380.6313,-81.5344 1389.6093,-75.9087 1379.0827,-74.7078 1380.6313,-81.5344"/>
</g>
<!-- Node20 -->
<g id="node20" class="node">
<title>Node20</title>
<polygon fill="none" stroke="#bfbfbf" points="1466,-57.5 1466,-77.5 1498,-77.5 1498,-57.5 1466,-57.5"/>
<text text-anchor="middle" x="1482" y="-64.5" font-family="FreeSans" font-size="10.00" fill="#000000">set</text>
</g>
<!-- Node1&#45;&gt;Node20 -->
<g id="edge19" class="edge">
<title>Node1&#45;&gt;Node20</title>
<path fill="none" stroke="#191970" d="M1144.1626,-130.036C1224.1895,-122.7543 1344.6207,-108.1294 1456.0829,-77.6993"/>
<polygon fill="#191970" stroke="#191970" points="1457.1068,-81.0474 1465.8048,-74.998 1455.2328,-74.3029 1457.1068,-81.0474"/>
</g>
<!-- Node21 -->
<g id="node21" class="node">
<title>Node21</title>
<polygon fill="none" stroke="#bfbfbf" points="1516.5,-57.5 1516.5,-77.5 1561.5,-77.5 1561.5,-57.5 1516.5,-57.5"/>
<text text-anchor="middle" x="1539" y="-64.5" font-family="FreeSans" font-size="10.00" fill="#000000">utility</text>
</g>
<!-- Node1&#45;&gt;Node21 -->
<g id="edge20" class="edge">
<title>Node1&#45;&gt;Node21</title>
<path fill="none" stroke="#191970" d="M1144.2093,-129.9444C1233.7708,-122.2307 1375.6246,-106.93 1506.6101,-77.7117"/>
<polygon fill="#191970" stroke="#191970" points="1507.4412,-81.1122 1516.4225,-75.4919 1505.8966,-74.2848 1507.4412,-81.1122"/>
</g>
<!-- Node3 -->
<g id="node3" class="node">
<title>Node3</title>
<g id="a_node3"><a xlink:href="../../d7/d2a/PHField_8h.html" target="_top" xlink:title="PHField.h">
<polygon fill="none" stroke="#000000" points="0,-.5 0,-20.5 62,-20.5 62,-.5 0,-.5"/>
<text text-anchor="middle" x="31" y="-7.5" font-family="FreeSans" font-size="10.00" fill="#000000">PHField.h</text>
</a>
</g>
</g>
<!-- Node2&#45;&gt;Node3 -->
<g id="edge2" class="edge">
<title>Node2&#45;&gt;Node3</title>
<path fill="none" stroke="#191970" d="M204.7631,-57.4408C167.5122,-47.3777 110.3629,-31.9393 71.8766,-21.5425"/>
<polygon fill="#191970" stroke="#191970" points="72.6004,-18.1126 62.0337,-18.8835 70.7748,-24.8704 72.6004,-18.1126"/>
</g>
<!-- Node4 -->
<g id="node4" class="node">
<title>Node4</title>
<polygon fill="none" stroke="#bfbfbf" points="79.5,-.5 79.5,-20.5 204.5,-20.5 204.5,-.5 79.5,-.5"/>
<text text-anchor="middle" x="142" y="-7.5" font-family="FreeSans" font-size="10.00" fill="#000000">boost/tuple/tuple.hpp</text>
</g>
<!-- Node2&#45;&gt;Node4 -->
<g id="edge3" class="edge">
<title>Node2&#45;&gt;Node4</title>
<path fill="none" stroke="#191970" d="M224.122,-57.3095C208.7641,-48.5556 186.3946,-35.8049 168.8792,-25.8211"/>
<polygon fill="#191970" stroke="#191970" points="170.1442,-22.5136 159.7232,-20.6022 166.6778,-28.595 170.1442,-22.5136"/>
</g>
<!-- Node5 -->
<g id="node5" class="node">
<title>Node5</title>
<polygon fill="none" stroke="#bfbfbf" points="222.5,-.5 222.5,-20.5 261.5,-20.5 261.5,-.5 222.5,-.5"/>
<text text-anchor="middle" x="242" y="-7.5" font-family="FreeSans" font-size="10.00" fill="#000000">map</text>
</g>
<!-- Node2&#45;&gt;Node5 -->
<g id="edge4" class="edge">
<title>Node2&#45;&gt;Node5</title>
<path fill="none" stroke="#191970" d="M242,-57.3095C242,-49.9335 242,-39.72 242,-30.715"/>
<polygon fill="#191970" stroke="#191970" points="245.5001,-30.6022 242,-20.6022 238.5001,-30.6023 245.5001,-30.6022"/>
</g>
<!-- Node6 -->
<g id="node6" class="node">
<title>Node6</title>
<polygon fill="none" stroke="#bfbfbf" points="279.5,-.5 279.5,-20.5 324.5,-20.5 324.5,-.5 279.5,-.5"/>
<text text-anchor="middle" x="302" y="-7.5" font-family="FreeSans" font-size="10.00" fill="#000000">string</text>
</g>
<!-- Node2&#45;&gt;Node6 -->
<g id="edge5" class="edge">
<title>Node2&#45;&gt;Node6</title>
<path fill="none" stroke="#191970" d="M252.7268,-57.3095C261.4296,-49.0419 273.8849,-37.2093 284.0952,-27.5096"/>
<polygon fill="#191970" stroke="#191970" points="286.5267,-30.0273 291.3661,-20.6022 281.7054,-24.9523 286.5267,-30.0273"/>
</g>
<!-- Node7 -->
<g id="node7" class="node">
<title>Node7</title>
<polygon fill="none" stroke="#bfbfbf" points="342.5,-.5 342.5,-20.5 391.5,-20.5 391.5,-.5 342.5,-.5"/>
<text text-anchor="middle" x="367" y="-7.5" font-family="FreeSans" font-size="10.00" fill="#000000">vector</text>
</g>
<!-- Node2&#45;&gt;Node7 -->
<g id="edge6" class="edge">
<title>Node2&#45;&gt;Node7</title>
<path fill="none" stroke="#191970" d="M264.0598,-57.4408C283.841,-48.4205 313.0937,-35.0813 335.365,-24.9255"/>
<polygon fill="#191970" stroke="#191970" points="337.0938,-27.984 344.7403,-20.6504 334.1895,-21.6149 337.0938,-27.984"/>
</g>
</g>
</svg>
