<?xml version="1.0" encoding="UTF-8" standalone="no"?>
<!DOCTYPE svg PUBLIC "-//W3C//DTD SVG 1.1//EN"
 "http://www.w3.org/Graphics/SVG/1.1/DTD/svg11.dtd">
<!-- Generated by graphviz version 2.40.1 (20161225.0304)
 -->
<!-- Title: Poacher::Poacher Pages: 1 -->
<svg width="690pt" height="293pt"
 viewBox="0.00 0.00 690.00 293.00" xmlns="http://www.w3.org/2000/svg" xmlns:xlink="http://www.w3.org/1999/xlink">
<g id="graph0" class="graph" transform="scale(1 1) rotate(0) translate(4 289)">
<title>Poacher::Poacher</title>
<!-- Node1 -->
<g id="node1" class="node">
<title>Node1</title>
<polygon fill="#bfbfbf" stroke="#000000" points="0,-90.5 0,-110.5 104,-110.5 104,-90.5 0,-90.5"/>
<text text-anchor="middle" x="52" y="-97.5" font-family="FreeSans" font-size="10.00" fill="#000000">Poacher::Poacher</text>
</g>
<!-- Node2 -->
<g id="node2" class="node">
<title>Node2</title>
<g id="a_node2"><a xlink:href="../../da/d40/classerhic_1_1Forester.html#a198ab19ee5d6cf67000888c3cca70417" target="_top" xlink:title="erhic::Forester::FindFirst\lEvent">
<polygon fill="none" stroke="#000000" points="145.5,-168.5 145.5,-200.5 283.5,-200.5 283.5,-168.5 145.5,-168.5"/>
<text text-anchor="start" x="153.5" y="-187.5" font-family="FreeSans" font-size="10.00" fill="#000000">erhic::Forester::FindFirst</text>
<text text-anchor="middle" x="214.5" y="-175.5" font-family="FreeSans" font-size="10.00" fill="#000000">Event</text>
</a>
</g>
</g>
<!-- Node1&#45;&gt;Node2 -->
<g id="edge1" class="edge">
<title>Node1&#45;&gt;Node2</title>
<path fill="none" stroke="#191970" d="M64.7485,-110.6546C81.2973,-123.4474 111.447,-145.4532 140,-159.5 143.7184,-161.3293 147.6033,-163.0764 151.5627,-164.7352"/>
<polygon fill="#191970" stroke="#191970" points="150.3079,-168.0027 160.8936,-168.4422 152.8924,-161.4973 150.3079,-168.0027"/>
</g>
<!-- Node3 -->
<g id="node3" class="node">
<title>Node3</title>
<g id="a_node3"><a xlink:href="../../da/d40/classerhic_1_1Forester.html#a968a154a17b9fcc6f385c8ea0fc0394b" target="_top" xlink:title="erhic::Forester::OpenInput">
<polygon fill="none" stroke="#000000" points="140,-129.5 140,-149.5 289,-149.5 289,-129.5 140,-129.5"/>
<text text-anchor="middle" x="214.5" y="-136.5" font-family="FreeSans" font-size="10.00" fill="#000000">erhic::Forester::OpenInput</text>
</a>
</g>
</g>
<!-- Node1&#45;&gt;Node3 -->
<g id="edge2" class="edge">
<title>Node1&#45;&gt;Node3</title>
<path fill="none" stroke="#191970" d="M93.8478,-110.5435C114.8874,-115.593 140.578,-121.7587 162.8373,-127.1009"/>
<polygon fill="#191970" stroke="#191970" points="162.2533,-130.5601 172.794,-129.4906 163.887,-123.7534 162.2533,-130.5601"/>
</g>
<!-- Node14 -->
<g id="node14" class="node">
<title>Node14</title>
<g id="a_node14"><a xlink:href="../../d8/dba/classPoacher.html#a57de6abe7594aa153abdc148567ebcd5" target="_top" xlink:title="Poacher::ResetEicMC">
<polygon fill="none" stroke="#000000" points="153.5,-90.5 153.5,-110.5 275.5,-110.5 275.5,-90.5 153.5,-90.5"/>
<text text-anchor="middle" x="214.5" y="-97.5" font-family="FreeSans" font-size="10.00" fill="#000000">Poacher::ResetEicMC</text>
</a>
</g>
</g>
<!-- Node1&#45;&gt;Node14 -->
<g id="edge13" class="edge">
<title>Node1&#45;&gt;Node14</title>
<path fill="none" stroke="#191970" d="M104.3105,-100.5C116.6098,-100.5 129.9268,-100.5 142.91,-100.5"/>
<polygon fill="#191970" stroke="#191970" points="143.225,-104.0001 153.2249,-100.5 143.2249,-97.0001 143.225,-104.0001"/>
</g>
<!-- Node15 -->
<g id="node15" class="node">
<title>Node15</title>
<g id="a_node15"><a xlink:href="../../d8/dba/classPoacher.html#a5742097aa426b812b958aed72aacc2c0" target="_top" xlink:title="Poacher::ResetProMC">
<polygon fill="none" stroke="#000000" points="153,-51.5 153,-71.5 276,-71.5 276,-51.5 153,-51.5"/>
<text text-anchor="middle" x="214.5" y="-58.5" font-family="FreeSans" font-size="10.00" fill="#000000">Poacher::ResetProMC</text>
</a>
</g>
</g>
<!-- Node1&#45;&gt;Node15 -->
<g id="edge14" class="edge">
<title>Node1&#45;&gt;Node15</title>
<path fill="none" stroke="#191970" d="M93.8478,-90.4565C114.8874,-85.407 140.578,-79.2413 162.8373,-73.8991"/>
<polygon fill="#191970" stroke="#191970" points="163.887,-77.2466 172.794,-71.5094 162.2533,-70.4399 163.887,-77.2466"/>
</g>
<!-- Node16 -->
<g id="node16" class="node">
<title>Node16</title>
<g id="a_node16"><a xlink:href="../../da/d40/classerhic_1_1Forester.html#ab776909a015ba2273d1bccd4975b1ebe" target="_top" xlink:title="erhic::Forester::SetInput\lFileName">
<polygon fill="none" stroke="#000000" points="145,-.5 145,-32.5 284,-32.5 284,-.5 145,-.5"/>
<text text-anchor="start" x="153" y="-19.5" font-family="FreeSans" font-size="10.00" fill="#000000">erhic::Forester::SetInput</text>
<text text-anchor="middle" x="214.5" y="-7.5" font-family="FreeSans" font-size="10.00" fill="#000000">FileName</text>
</a>
</g>
</g>
<!-- Node1&#45;&gt;Node16 -->
<g id="edge15" class="edge">
<title>Node1&#45;&gt;Node16</title>
<path fill="none" stroke="#191970" d="M64.7485,-90.3454C81.2973,-77.5526 111.447,-55.5468 140,-41.5 143.7184,-39.6707 147.6033,-37.9236 151.5627,-36.2648"/>
<polygon fill="#191970" stroke="#191970" points="152.8924,-39.5027 160.8936,-32.5578 150.3079,-32.9973 152.8924,-39.5027"/>
</g>
<!-- Node4 -->
<g id="node4" class="node">
<title>Node4</title>
<g id="a_node4"><a xlink:href="../../da/d40/classerhic_1_1Forester.html#a263336ad44c94707f63b8be22b737547" target="_top" xlink:title="erhic::Forester::GetInput\lFileName">
<polygon fill="none" stroke="#000000" points="334,-213.5 334,-245.5 474,-245.5 474,-213.5 334,-213.5"/>
<text text-anchor="start" x="342" y="-232.5" font-family="FreeSans" font-size="10.00" fill="#000000">erhic::Forester::GetInput</text>
<text text-anchor="middle" x="404" y="-220.5" font-family="FreeSans" font-size="10.00" fill="#000000">FileName</text>
</a>
</g>
</g>
<!-- Node3&#45;&gt;Node4 -->
<g id="edge3" class="edge">
<title>Node3&#45;&gt;Node4</title>
<path fill="none" stroke="#191970" d="M268.3722,-149.5317C275.628,-152.1294 282.7235,-155.3953 289,-159.5 310.4356,-173.5183 303.8795,-190.0113 325,-204.5 327.2576,-206.0487 329.6162,-207.5054 332.0482,-208.875"/>
<polygon fill="#191970" stroke="#191970" points="330.6226,-212.0761 341.1263,-213.4631 333.7801,-205.8287 330.6226,-212.0761"/>
</g>
<!-- Node5 -->
<g id="node5" class="node">
<title>Node5</title>
<g id="a_node5"><a xlink:href="../../df/d1f/namespacemake__release.html#ac4ce10921bce3e9b69ab9d13fb74f148" target="_top" xlink:title="make_release.message">
<polygon fill="none" stroke="#000000" points="337,-174.5 337,-194.5 471,-194.5 471,-174.5 337,-174.5"/>
<text text-anchor="middle" x="404" y="-181.5" font-family="FreeSans" font-size="10.00" fill="#000000">make_release.message</text>
</a>
</g>
</g>
<!-- Node3&#45;&gt;Node5 -->
<g id="edge4" class="edge">
<title>Node3&#45;&gt;Node5</title>
<path fill="none" stroke="#191970" d="M257.0275,-149.5989C285.067,-156.2573 321.9798,-165.0229 351.7974,-172.1036"/>
<polygon fill="#191970" stroke="#191970" points="351.0763,-175.5296 361.6144,-174.4348 352.6937,-168.719 351.0763,-175.5296"/>
</g>
<!-- Node11 -->
<g id="node11" class="node">
<title>Node11</title>
<g id="a_node11"><a xlink:href="../../d4/da9/classerhic_1_1FileFactory.html#aabc884d6aa29388f65eda4bf1304c321" target="_top" xlink:title="erhic::FileFactory\l::GetInstance">
<polygon fill="none" stroke="#000000" points="353,-123.5 353,-155.5 455,-155.5 455,-123.5 353,-123.5"/>
<text text-anchor="start" x="361" y="-142.5" font-family="FreeSans" font-size="10.00" fill="#000000">erhic::FileFactory</text>
<text text-anchor="middle" x="404" y="-130.5" font-family="FreeSans" font-size="10.00" fill="#000000">::GetInstance</text>
</a>
</g>
</g>
<!-- Node3&#45;&gt;Node11 -->
<g id="edge10" class="edge">
<title>Node3&#45;&gt;Node11</title>
<path fill="none" stroke="#191970" d="M289.1234,-139.5C306.7923,-139.5 325.4401,-139.5 342.453,-139.5"/>
<polygon fill="#191970" stroke="#191970" points="342.8113,-143.0001 352.8112,-139.5 342.8112,-136.0001 342.8113,-143.0001"/>
</g>
<!-- Node12 -->
<g id="node12" class="node">
<title>Node12</title>
<g id="a_node12"><a xlink:href="../../d4/da9/classerhic_1_1FileFactory.html#ae083c8a4be0d80b045886e566069bf6a" target="_top" xlink:title="erhic::FileFactory\l::GetFile">
<polygon fill="none" stroke="#000000" points="353,-72.5 353,-104.5 455,-104.5 455,-72.5 353,-72.5"/>
<text text-anchor="start" x="361" y="-91.5" font-family="FreeSans" font-size="10.00" fill="#000000">erhic::FileFactory</text>
<text text-anchor="middle" x="404" y="-79.5" font-family="FreeSans" font-size="10.00" fill="#000000">::GetFile</text>
</a>
</g>
</g>
<!-- Node3&#45;&gt;Node12 -->
<g id="edge11" class="edge">
<title>Node3&#45;&gt;Node12</title>
<path fill="none" stroke="#191970" d="M254.7522,-129.4043C265.861,-126.5718 277.9081,-123.4572 289,-120.5 306.4924,-115.8363 325.4373,-110.6293 342.8068,-105.7929"/>
<polygon fill="#191970" stroke="#191970" points="344.1381,-109.0552 352.8287,-102.995 342.2558,-102.313 344.1381,-109.0552"/>
</g>
<!-- Node13 -->
<g id="node13" class="node">
<title>Node13</title>
<g id="a_node13"><a xlink:href="../../d0/d81/classerhic_1_1FileType.html#a439e29f1c55c9043d6bac7df8a37a2a7" target="_top" xlink:title="erhic::FileType::CreateEvent\lFactory">
<polygon fill="none" stroke="#000000" points="325,-21.5 325,-53.5 483,-53.5 483,-21.5 325,-21.5"/>
<text text-anchor="start" x="333" y="-40.5" font-family="FreeSans" font-size="10.00" fill="#000000">erhic::FileType::CreateEvent</text>
<text text-anchor="middle" x="404" y="-28.5" font-family="FreeSans" font-size="10.00" fill="#000000">Factory</text>
</a>
</g>
</g>
<!-- Node3&#45;&gt;Node13 -->
<g id="edge12" class="edge">
<title>Node3&#45;&gt;Node13</title>
<path fill="none" stroke="#191970" d="M272.6508,-129.4476C278.4697,-127.0687 284.0477,-124.1298 289,-120.5 313.4704,-102.5642 301.0486,-81.1232 325,-62.5 326.7993,-61.101 328.6785,-59.7793 330.6208,-58.5309"/>
<polygon fill="#191970" stroke="#191970" points="332.5094,-61.4838 339.489,-53.5128 329.062,-55.3915 332.5094,-61.4838"/>
</g>
<!-- Node6 -->
<g id="node6" class="node">
<title>Node6</title>
<g id="a_node6"><a xlink:href="../../df/d1f/namespacemake__release.html#ac223dbf131aeff704432dfc0df5b196f" target="_top" xlink:title="make_release.split\l_version">
<polygon fill="none" stroke="#000000" points="545,-252.5 545,-284.5 656,-284.5 656,-252.5 545,-252.5"/>
<text text-anchor="start" x="553" y="-271.5" font-family="FreeSans" font-size="10.00" fill="#000000">make_release.split</text>
<text text-anchor="middle" x="600.5" y="-259.5" font-family="FreeSans" font-size="10.00" fill="#000000">_version</text>
</a>
</g>
</g>
<!-- Node5&#45;&gt;Node6 -->
<g id="edge5" class="edge">
<title>Node5&#45;&gt;Node6</title>
<path fill="none" stroke="#191970" d="M460.8453,-194.6305C468.5806,-197.2137 476.1909,-200.4492 483,-204.5 503.2729,-216.5605 499.0329,-230.9397 519,-243.5 524.056,-246.6805 529.5435,-249.4795 535.2008,-251.9383"/>
<polygon fill="#191970" stroke="#191970" points="534.2497,-255.3264 544.8355,-255.7624 536.832,-248.8201 534.2497,-255.3264"/>
</g>
<!-- Node7 -->
<g id="node7" class="node">
<title>Node7</title>
<g id="a_node7"><a xlink:href="../../d9/d1d/matscan_8C.html#a388f572c62279f839ee138a9afbdeeb5" target="_top" xlink:title="print">
<polygon fill="none" stroke="#000000" points="580.5,-213.5 580.5,-233.5 620.5,-233.5 620.5,-213.5 580.5,-213.5"/>
<text text-anchor="middle" x="600.5" y="-220.5" font-family="FreeSans" font-size="10.00" fill="#000000">print</text>
</a>
</g>
</g>
<!-- Node5&#45;&gt;Node7 -->
<g id="edge6" class="edge">
<title>Node5&#45;&gt;Node7</title>
<path fill="none" stroke="#191970" d="M454.6036,-194.5435C491.2231,-201.8115 539.4942,-211.392 570.2734,-217.5008"/>
<polygon fill="#191970" stroke="#191970" points="569.893,-220.9935 580.3831,-219.5073 571.2558,-214.1274 569.893,-220.9935"/>
</g>
<!-- Node8 -->
<g id="node8" class="node">
<title>Node8</title>
<g id="a_node8"><a xlink:href="../../df/d1f/namespacemake__release.html#aa224e1211df20809f86838554380b725" target="_top" xlink:title="make_release.find_milestone">
<polygon fill="none" stroke="#000000" points="519,-174.5 519,-194.5 682,-194.5 682,-174.5 519,-174.5"/>
<text text-anchor="middle" x="600.5" y="-181.5" font-family="FreeSans" font-size="10.00" fill="#000000">make_release.find_milestone</text>
</a>
</g>
</g>
<!-- Node5&#45;&gt;Node8 -->
<g id="edge7" class="edge">
<title>Node5&#45;&gt;Node8</title>
<path fill="none" stroke="#191970" d="M471.0746,-184.5C483.1811,-184.5 495.9922,-184.5 508.6605,-184.5"/>
<polygon fill="#191970" stroke="#191970" points="508.7735,-188.0001 518.7735,-184.5 508.7735,-181.0001 508.7735,-188.0001"/>
</g>
<!-- Node9 -->
<g id="node9" class="node">
<title>Node9</title>
<g id="a_node9"><a xlink:href="../../df/d1f/namespacemake__release.html#aad28fb597180feb2be0df4486f1a5d13" target="_top" xlink:title="make_release.format\l_version">
<polygon fill="none" stroke="#000000" points="539,-123.5 539,-155.5 662,-155.5 662,-123.5 539,-123.5"/>
<text text-anchor="start" x="547" y="-142.5" font-family="FreeSans" font-size="10.00" fill="#000000">make_release.format</text>
<text text-anchor="middle" x="600.5" y="-130.5" font-family="FreeSans" font-size="10.00" fill="#000000">_version</text>
</a>
</g>
</g>
<!-- Node5&#45;&gt;Node9 -->
<g id="edge8" class="edge">
<title>Node5&#45;&gt;Node9</title>
<path fill="none" stroke="#191970" d="M448.0984,-174.4011C471.8819,-168.9545 501.8222,-162.098 528.8559,-155.907"/>
<polygon fill="#191970" stroke="#191970" points="529.7011,-159.3042 538.6675,-153.6601 528.1385,-152.4808 529.7011,-159.3042"/>
</g>
<!-- Node10 -->
<g id="node10" class="node">
<title>Node10</title>
<g id="a_node10"><a xlink:href="../../d6/d72/namespaceutil.html#ac8015eb2508544e525f64f4bd01fd5d8" target="_top" xlink:title="util.Spinner">
<polygon fill="none" stroke="#000000" points="563,-84.5 563,-104.5 638,-104.5 638,-84.5 563,-84.5"/>
<text text-anchor="middle" x="600.5" y="-91.5" font-family="FreeSans" font-size="10.00" fill="#000000">util.Spinner</text>
</a>
</g>
</g>
<!-- Node5&#45;&gt;Node10 -->
<g id="edge9" class="edge">
<title>Node5&#45;&gt;Node10</title>
<path fill="none" stroke="#191970" d="M465.4241,-174.474C471.6393,-172.0901 477.6301,-169.1429 483,-165.5 505.9601,-149.924 496.076,-130.129 519,-114.5 529.0627,-107.6395 541.2438,-103.1269 553.0869,-100.1603"/>
<polygon fill="#191970" stroke="#191970" points="553.88,-103.5697 562.9017,-98.0144 552.3848,-96.7312 553.88,-103.5697"/>
</g>
</g>
</svg>
