<?xml version="1.0" encoding="UTF-8" standalone="no"?>
<!DOCTYPE svg PUBLIC "-//W3C//DTD SVG 1.1//EN"
 "http://www.w3.org/Graphics/SVG/1.1/DTD/svg11.dtd">
<!-- Generated by graphviz version 2.40.1 (20161225.0304)
 -->
<!-- Title: JetTruthEval::get_truth_jet Pages: 1 -->
<svg width="1202pt" height="253pt"
 viewBox="0.00 0.00 1202.00 253.37" xmlns="http://www.w3.org/2000/svg" xmlns:xlink="http://www.w3.org/1999/xlink">
<g id="graph0" class="graph" transform="scale(1 1) rotate(0) translate(4 249.3653)">
<title>JetTruthEval::get_truth_jet</title>
<!-- Node1 -->
<g id="node1" class="node">
<title>Node1</title>
<polygon fill="#bfbfbf" stroke="#000000" points="0,-121.5 0,-141.5 149,-141.5 149,-121.5 0,-121.5"/>
<text text-anchor="middle" x="74.5" y="-128.5" font-family="FreeSans" font-size="10.00" fill="#000000">JetTruthEval::get_truth_jet</text>
</g>
<!-- Node2 -->
<g id="node2" class="node">
<title>Node2</title>
<g id="a_node2"><a xlink:href="../../dd/d75/classJetRecoEval.html#a277ecc26833b4e3e16f96018aa921702" target="_top" xlink:title="what truth jets contributed to this reconstructed jet?">
<polygon fill="none" stroke="#000000" points="185,-121.5 185,-141.5 333,-141.5 333,-121.5 185,-121.5"/>
<text text-anchor="middle" x="259" y="-128.5" font-family="FreeSans" font-size="10.00" fill="#000000">JetRecoEval::all_truth_jets</text>
</a>
</g>
</g>
<!-- Node1&#45;&gt;Node2 -->
<g id="edge1" class="edge">
<title>Node1&#45;&gt;Node2</title>
<path fill="none" stroke="#191970" d="M159.0462,-131.5C167.6449,-131.5 176.3335,-131.5 184.8103,-131.5"/>
<polygon fill="#191970" stroke="#191970" points="159.0114,-128.0001 149.0114,-131.5 159.0114,-135.0001 159.0114,-128.0001"/>
</g>
<!-- Node3 -->
<g id="node3" class="node">
<title>Node3</title>
<g id="a_node3"><a xlink:href="../../dd/d75/classJetRecoEval.html#aaa6df5bbed40bd8cf789d997c348d12f" target="_top" xlink:title="what reconstructed jets had contributions from this truth jet?">
<polygon fill="none" stroke="#000000" points="369,-142.5 369,-162.5 516,-162.5 516,-142.5 369,-142.5"/>
<text text-anchor="middle" x="442.5" y="-149.5" font-family="FreeSans" font-size="10.00" fill="#000000">JetRecoEval::all_jets_from</text>
</a>
</g>
</g>
<!-- Node2&#45;&gt;Node3 -->
<g id="edge2" class="edge">
<title>Node2&#45;&gt;Node3</title>
<path fill="none" stroke="#191970" d="M343.0879,-141.1231C351.64,-142.1019 360.2815,-143.0908 368.7124,-144.0556"/>
<polygon fill="#191970" stroke="#191970" points="343.4407,-137.6407 333.1075,-139.981 342.6447,-144.5954 343.4407,-137.6407"/>
</g>
<!-- Node11 -->
<g id="node11" class="node">
<title>Node11</title>
<g id="a_node11"><a xlink:href="../../dd/d75/classJetRecoEval.html#af4bff244a32d216f097c7fab76c9b95a" target="_top" xlink:title="which truth jet contributed the most energy to this reconstructed jet?">
<polygon fill="none" stroke="#000000" points="560.5,-93.5 560.5,-125.5 694.5,-125.5 694.5,-93.5 560.5,-93.5"/>
<text text-anchor="start" x="568.5" y="-112.5" font-family="FreeSans" font-size="10.00" fill="#000000">JetRecoEval::max_truth</text>
<text text-anchor="middle" x="627.5" y="-100.5" font-family="FreeSans" font-size="10.00" fill="#000000">_jet_by_energy</text>
</a>
</g>
</g>
<!-- Node2&#45;&gt;Node11 -->
<g id="edge12" class="edge">
<title>Node2&#45;&gt;Node11</title>
<path fill="none" stroke="#191970" d="M343.4711,-126.457C409.2666,-122.5289 499.3691,-117.1496 560.3098,-113.5114"/>
<polygon fill="#191970" stroke="#191970" points="342.9018,-122.9846 333.1282,-127.0744 343.319,-129.9722 342.9018,-122.9846"/>
</g>
<!-- Node4 -->
<g id="node4" class="node">
<title>Node4</title>
<g id="a_node4"><a xlink:href="../../dd/d75/classJetRecoEval.html#a631b92837e600fbdb6b966a556fc9077" target="_top" xlink:title="which reconstructed jet had the largest energy contribution from this truth jet?">
<polygon fill="none" stroke="#000000" points="552,-147.5 552,-167.5 703,-167.5 703,-147.5 552,-147.5"/>
<text text-anchor="middle" x="627.5" y="-154.5" font-family="FreeSans" font-size="10.00" fill="#000000">JetRecoEval::best_jet_from</text>
</a>
</g>
</g>
<!-- Node3&#45;&gt;Node4 -->
<g id="edge3" class="edge">
<title>Node3&#45;&gt;Node4</title>
<path fill="none" stroke="#191970" d="M526.1789,-154.7616C534.7788,-154.994 543.4813,-155.2292 551.9855,-155.4591"/>
<polygon fill="#191970" stroke="#191970" points="526.2394,-151.262 516.1485,-154.4905 526.0502,-158.2595 526.2394,-151.262"/>
</g>
<!-- Node5 -->
<g id="node5" class="node">
<title>Node5</title>
<g id="a_node5"><a xlink:href="../../d1/df4/classJetEvaluator.html#a0c608411c03ff1de3fca80d64e93ae5d" target="_top" xlink:title="dump the evaluator information into ntuple for external analysis">
<polygon fill="none" stroke="#000000" points="739,-90.5 739,-122.5 872,-122.5 872,-90.5 739,-90.5"/>
<text text-anchor="start" x="747" y="-109.5" font-family="FreeSans" font-size="10.00" fill="#000000">JetEvaluator::fillOutput</text>
<text text-anchor="middle" x="805.5" y="-97.5" font-family="FreeSans" font-size="10.00" fill="#000000">Ntuples</text>
</a>
</g>
</g>
<!-- Node4&#45;&gt;Node5 -->
<g id="edge4" class="edge">
<title>Node4&#45;&gt;Node5</title>
<path fill="none" stroke="#191970" d="M672.3262,-144.6565C695.7068,-137.9576 724.5364,-129.6974 749.3858,-122.5777"/>
<polygon fill="#191970" stroke="#191970" points="671.3162,-141.305 662.6671,-147.424 673.2443,-148.0342 671.3162,-141.305"/>
</g>
<!-- Node7 -->
<g id="node7" class="node">
<title>Node7</title>
<g id="a_node7"><a xlink:href="../../d4/d28/classQAG4SimulationJet.html#a3e5c5fe2e5e5cee7fca6173ef6e6bfa2" target="_top" xlink:title="QAG4SimulationJet::\lprocess_TruthMatching">
<polygon fill="none" stroke="#000000" points="908,-166.5 908,-198.5 1040,-198.5 1040,-166.5 908,-166.5"/>
<text text-anchor="start" x="916" y="-185.5" font-family="FreeSans" font-size="10.00" fill="#000000">QAG4SimulationJet::</text>
<text text-anchor="middle" x="974" y="-173.5" font-family="FreeSans" font-size="10.00" fill="#000000">process_TruthMatching</text>
</a>
</g>
</g>
<!-- Node4&#45;&gt;Node7 -->
<g id="edge6" class="edge">
<title>Node4&#45;&gt;Node7</title>
<path fill="none" stroke="#191970" d="M645.0581,-174.5395C665.6206,-193.1927 701.648,-221.9809 739,-233.5 795.486,-250.9199 814.4702,-247.081 872,-233.5 900.3253,-226.8133 929.7529,-210.9898 949.6773,-198.7273"/>
<polygon fill="#191970" stroke="#191970" points="647.4252,-171.9612 637.7201,-167.7111 642.6565,-177.0857 647.4252,-171.9612"/>
</g>
<!-- Node9 -->
<g id="node9" class="node">
<title>Node9</title>
<g id="a_node9"><a xlink:href="../../dd/d75/classJetRecoEval.html#a9775ea4a0c6e28f22da7997f4886f195" target="_top" xlink:title="JetRecoEval::unique\l_reco_jet_from_truth">
<polygon fill="none" stroke="#000000" points="745.5,-192.5 745.5,-224.5 865.5,-224.5 865.5,-192.5 745.5,-192.5"/>
<text text-anchor="start" x="753.5" y="-211.5" font-family="FreeSans" font-size="10.00" fill="#000000">JetRecoEval::unique</text>
<text text-anchor="middle" x="805.5" y="-199.5" font-family="FreeSans" font-size="10.00" fill="#000000">_reco_jet_from_truth</text>
</a>
</g>
</g>
<!-- Node4&#45;&gt;Node9 -->
<g id="edge8" class="edge">
<title>Node4&#45;&gt;Node9</title>
<path fill="none" stroke="#191970" d="M672.3262,-170.3435C695.7068,-177.0424 724.5364,-185.3026 749.3858,-192.4223"/>
<polygon fill="#191970" stroke="#191970" points="673.2443,-166.9658 662.6671,-167.576 671.3162,-173.695 673.2443,-166.9658"/>
</g>
<!-- Node10 -->
<g id="node10" class="node">
<title>Node10</title>
<g id="a_node10"><a xlink:href="../../dd/d75/classJetRecoEval.html#ac6030b2b14c885e19e35f86ec828d8d8" target="_top" xlink:title="JetRecoEval::unique\l_truth_jet_from_reco">
<polygon fill="none" stroke="#000000" points="745.5,-141.5 745.5,-173.5 865.5,-173.5 865.5,-141.5 745.5,-141.5"/>
<text text-anchor="start" x="753.5" y="-160.5" font-family="FreeSans" font-size="10.00" fill="#000000">JetRecoEval::unique</text>
<text text-anchor="middle" x="805.5" y="-148.5" font-family="FreeSans" font-size="10.00" fill="#000000">_truth_jet_from_reco</text>
</a>
</g>
</g>
<!-- Node4&#45;&gt;Node10 -->
<g id="edge10" class="edge">
<title>Node4&#45;&gt;Node10</title>
<path fill="none" stroke="#191970" d="M713.549,-157.5C724.3351,-157.5 735.179,-157.5 745.4462,-157.5"/>
<polygon fill="#191970" stroke="#191970" points="713.2462,-154.0001 703.2461,-157.5 713.2461,-161.0001 713.2462,-154.0001"/>
</g>
<!-- Node6 -->
<g id="node6" class="node">
<title>Node6</title>
<g id="a_node6"><a xlink:href="../../d1/df4/classJetEvaluator.html#ad83508ae828d1f2e4a83a948465a0cd2" target="_top" xlink:title="JetEvaluator::process\l_event">
<polygon fill="none" stroke="#000000" points="912,-90.5 912,-122.5 1036,-122.5 1036,-90.5 912,-90.5"/>
<text text-anchor="start" x="920" y="-109.5" font-family="FreeSans" font-size="10.00" fill="#000000">JetEvaluator::process</text>
<text text-anchor="middle" x="974" y="-97.5" font-family="FreeSans" font-size="10.00" fill="#000000">_event</text>
</a>
</g>
</g>
<!-- Node5&#45;&gt;Node6 -->
<g id="edge5" class="edge">
<title>Node5&#45;&gt;Node6</title>
<path fill="none" stroke="#191970" d="M882.2941,-106.5C892.15,-106.5 902.1431,-106.5 911.7281,-106.5"/>
<polygon fill="#191970" stroke="#191970" points="882.0957,-103.0001 872.0957,-106.5 882.0956,-110.0001 882.0957,-103.0001"/>
</g>
<!-- Node8 -->
<g id="node8" class="node">
<title>Node8</title>
<g id="a_node8"><a xlink:href="../../d4/d28/classQAG4SimulationJet.html#a98c3c0fb4d213ada3475e8fb9895bc29" target="_top" xlink:title="QAG4SimulationJet::\lprocess_event">
<polygon fill="none" stroke="#000000" points="1076,-166.5 1076,-198.5 1194,-198.5 1194,-166.5 1076,-166.5"/>
<text text-anchor="start" x="1084" y="-185.5" font-family="FreeSans" font-size="10.00" fill="#000000">QAG4SimulationJet::</text>
<text text-anchor="middle" x="1135" y="-173.5" font-family="FreeSans" font-size="10.00" fill="#000000">process_event</text>
</a>
</g>
</g>
<!-- Node7&#45;&gt;Node8 -->
<g id="edge7" class="edge">
<title>Node7&#45;&gt;Node8</title>
<path fill="none" stroke="#191970" d="M1050.4292,-182.5C1059.0044,-182.5 1067.6413,-182.5 1075.9495,-182.5"/>
<polygon fill="#191970" stroke="#191970" points="1050.4144,-179.0001 1040.4144,-182.5 1050.4143,-186.0001 1050.4144,-179.0001"/>
</g>
<!-- Node9&#45;&gt;Node7 -->
<g id="edge9" class="edge">
<title>Node9&#45;&gt;Node7</title>
<path fill="none" stroke="#191970" d="M875.8732,-197.6412C886.44,-196.0107 897.3062,-194.3341 907.7822,-192.7176"/>
<polygon fill="#191970" stroke="#191970" points="875.2057,-194.2027 865.8564,-199.1868 876.2732,-201.1208 875.2057,-194.2027"/>
</g>
<!-- Node10&#45;&gt;Node7 -->
<g id="edge11" class="edge">
<title>Node10&#45;&gt;Node7</title>
<path fill="none" stroke="#191970" d="M875.8732,-167.9411C886.44,-169.5089 897.3062,-171.1211 907.7822,-172.6754"/>
<polygon fill="#191970" stroke="#191970" points="876.2618,-164.4606 865.8564,-166.455 875.2345,-171.3848 876.2618,-164.4606"/>
</g>
<!-- Node11&#45;&gt;Node5 -->
<g id="edge13" class="edge">
<title>Node11&#45;&gt;Node5</title>
<path fill="none" stroke="#191970" d="M704.8415,-108.1965C716.16,-108.0057 727.7343,-107.8107 738.8154,-107.6239"/>
<polygon fill="#191970" stroke="#191970" points="704.4801,-104.702 694.5405,-108.3701 704.5981,-111.701 704.4801,-104.702"/>
</g>
<!-- Node11&#45;&gt;Node7 -->
<g id="edge15" class="edge">
<title>Node11&#45;&gt;Node7</title>
<path fill="none" stroke="#191970" d="M671.9892,-89.7562C723.1794,-70.1921 808.3556,-47.5222 872,-80.5 896.6343,-93.2644 888.81,-111.462 908,-131.5 920.5196,-144.5728 936.5487,-157.0386 949.6751,-166.3733"/>
<polygon fill="#191970" stroke="#191970" points="670.5501,-86.5613 662.5301,-93.4844 673.117,-93.0737 670.5501,-86.5613"/>
</g>
<!-- Node11&#45;&gt;Node9 -->
<g id="edge16" class="edge">
<title>Node11&#45;&gt;Node9</title>
<path fill="none" stroke="#191970" d="M691.2842,-130.2027C695.3827,-132.4218 699.3311,-134.8496 703,-137.5 723.7619,-152.4982 718.3707,-167.32 739,-182.5 744.092,-186.2469 749.7945,-189.5329 755.662,-192.3927"/>
<polygon fill="#191970" stroke="#191970" points="692.6375,-126.9674 682.1221,-125.6724 689.5348,-133.2422 692.6375,-126.9674"/>
</g>
<!-- Node11&#45;&gt;Node10 -->
<g id="edge17" class="edge">
<title>Node11&#45;&gt;Node10</title>
<path fill="none" stroke="#191970" d="M697.16,-128.2847C713.2659,-132.6279 730.2598,-137.2105 745.8911,-141.4257"/>
<polygon fill="#191970" stroke="#191970" points="697.833,-124.8412 687.2666,-125.6168 696.0104,-131.5998 697.833,-124.8412"/>
</g>
<!-- Node12 -->
<g id="node12" class="node">
<title>Node12</title>
<g id="a_node12"><a xlink:href="../../d5/d1f/classMyJetAnalysis.html#a309e9a46394353251b673514d6eb28ac" target="_top" xlink:title="MyJetAnalysis::process\l_event">
<polygon fill="none" stroke="#000000" points="740,-.5 740,-32.5 871,-32.5 871,-.5 740,-.5"/>
<text text-anchor="start" x="748" y="-19.5" font-family="FreeSans" font-size="10.00" fill="#000000">MyJetAnalysis::process</text>
<text text-anchor="middle" x="805.5" y="-7.5" font-family="FreeSans" font-size="10.00" fill="#000000">_event</text>
</a>
</g>
</g>
<!-- Node11&#45;&gt;Node12 -->
<g id="edge14" class="edge">
<title>Node11&#45;&gt;Node12</title>
<path fill="none" stroke="#191970" d="M663.995,-88.3444C685.5998,-76.0378 713.6238,-60.4493 739,-47.5 748.8711,-42.4629 759.7133,-37.2691 769.7264,-32.6069"/>
<polygon fill="#191970" stroke="#191970" points="662.0978,-85.3973 655.1551,-93.4005 665.5733,-91.4736 662.0978,-85.3973"/>
</g>
</g>
</svg>
