<?xml version="1.0" encoding="UTF-8" standalone="no"?>
<!DOCTYPE svg PUBLIC "-//W3C//DTD SVG 1.1//EN"
 "http://www.w3.org/Graphics/SVG/1.1/DTD/svg11.dtd">
<!-- Generated by graphviz version 2.40.1 (20161225.0304)
 -->
<!-- Title: JetTruthEval::get_hcalout_eval_stack Pages: 1 -->
<svg width="1560pt" height="317pt"
 viewBox="0.00 0.00 1560.00 317.00" xmlns="http://www.w3.org/2000/svg" xmlns:xlink="http://www.w3.org/1999/xlink">
<g id="graph0" class="graph" transform="scale(1 1) rotate(0) translate(4 313)">
<title>JetTruthEval::get_hcalout_eval_stack</title>
<!-- Node1 -->
<g id="node1" class="node">
<title>Node1</title>
<polygon fill="#bfbfbf" stroke="#000000" points="0,-184.5 0,-216.5 144,-216.5 144,-184.5 0,-184.5"/>
<text text-anchor="start" x="8" y="-203.5" font-family="FreeSans" font-size="10.00" fill="#000000">JetTruthEval::get_hcalout</text>
<text text-anchor="middle" x="72" y="-191.5" font-family="FreeSans" font-size="10.00" fill="#000000">_eval_stack</text>
</g>
<!-- Node2 -->
<g id="node2" class="node">
<title>Node2</title>
<g id="a_node2"><a xlink:href="../../dd/d75/classJetRecoEval.html#a8d474bf273feb5392c16e6085e4825b3" target="_top" xlink:title="get a copy of the lower level eval and its memory cache">
<polygon fill="none" stroke="#000000" points="180,-184.5 180,-216.5 323,-216.5 323,-184.5 180,-184.5"/>
<text text-anchor="start" x="188" y="-203.5" font-family="FreeSans" font-size="10.00" fill="#000000">JetRecoEval::get_hcalout</text>
<text text-anchor="middle" x="251.5" y="-191.5" font-family="FreeSans" font-size="10.00" fill="#000000">_eval_stack</text>
</a>
</g>
</g>
<!-- Node1&#45;&gt;Node2 -->
<g id="edge1" class="edge">
<title>Node1&#45;&gt;Node2</title>
<path fill="none" stroke="#191970" d="M154.2599,-200.5C162.8532,-200.5 171.5386,-200.5 179.9982,-200.5"/>
<polygon fill="#191970" stroke="#191970" points="154.2337,-197.0001 144.2336,-200.5 154.2336,-204.0001 154.2337,-197.0001"/>
</g>
<!-- Node3 -->
<g id="node3" class="node">
<title>Node3</title>
<g id="a_node3"><a xlink:href="../../dd/d75/classJetRecoEval.html#a83e004c6c55ecf277a13a046d90790a3" target="_top" xlink:title="which truth hits contributed to this reconstructed jet?">
<polygon fill="none" stroke="#000000" points="359,-274.5 359,-294.5 507,-294.5 507,-274.5 359,-274.5"/>
<text text-anchor="middle" x="433" y="-281.5" font-family="FreeSans" font-size="10.00" fill="#000000">JetRecoEval::all_truth_hits</text>
</a>
</g>
</g>
<!-- Node2&#45;&gt;Node3 -->
<g id="edge2" class="edge">
<title>Node2&#45;&gt;Node3</title>
<path fill="none" stroke="#191970" d="M286.5133,-221.7665C307.1541,-233.7793 334.0405,-248.5367 359,-259.5 371.7881,-265.1171 386.265,-270.2612 399.0015,-274.4036"/>
<polygon fill="#191970" stroke="#191970" points="288.1809,-218.6868 277.7866,-216.6349 284.6326,-224.7209 288.1809,-218.6868"/>
</g>
<!-- Node4 -->
<g id="node4" class="node">
<title>Node4</title>
<g id="a_node4"><a xlink:href="../../dd/d75/classJetRecoEval.html#a35d98fcca277d5034d66e06d7e832e87" target="_top" xlink:title="what truth particles contributed to this reconstructed jet?">
<polygon fill="none" stroke="#000000" points="371,-184.5 371,-216.5 495,-216.5 495,-184.5 371,-184.5"/>
<text text-anchor="start" x="379" y="-203.5" font-family="FreeSans" font-size="10.00" fill="#000000">JetRecoEval::all_truth</text>
<text text-anchor="middle" x="433" y="-191.5" font-family="FreeSans" font-size="10.00" fill="#000000">_particles</text>
</a>
</g>
</g>
<!-- Node2&#45;&gt;Node4 -->
<g id="edge3" class="edge">
<title>Node2&#45;&gt;Node4</title>
<path fill="none" stroke="#191970" d="M333.2914,-200.5C345.9186,-200.5 358.7794,-200.5 370.8831,-200.5"/>
<polygon fill="#191970" stroke="#191970" points="333.2336,-197.0001 323.2336,-200.5 333.2336,-204.0001 333.2336,-197.0001"/>
</g>
<!-- Node16 -->
<g id="node16" class="node">
<title>Node16</title>
<g id="a_node16"><a xlink:href="../../dd/d75/classJetRecoEval.html#a2b04ad28662aae87324971bb37e70bac" target="_top" xlink:title="what truth showers contributed to this reconstructed jet?">
<polygon fill="none" stroke="#000000" points="371,-133.5 371,-165.5 495,-165.5 495,-133.5 371,-133.5"/>
<text text-anchor="start" x="379" y="-152.5" font-family="FreeSans" font-size="10.00" fill="#000000">JetRecoEval::all_truth</text>
<text text-anchor="middle" x="433" y="-140.5" font-family="FreeSans" font-size="10.00" fill="#000000">_showers</text>
</a>
</g>
</g>
<!-- Node2&#45;&gt;Node16 -->
<g id="edge21" class="edge">
<title>Node2&#45;&gt;Node16</title>
<path fill="none" stroke="#191970" d="M318.6256,-181.6383C337.4611,-176.3456 357.756,-170.6429 375.9459,-165.5317"/>
<polygon fill="#191970" stroke="#191970" points="317.6081,-178.2886 308.9277,-184.3633 319.5017,-185.0276 317.6081,-178.2886"/>
</g>
<!-- Node17 -->
<g id="node17" class="node">
<title>Node17</title>
<g id="a_node17"><a xlink:href="../../dd/d75/classJetRecoEval.html#af6356d19d3ff0ee9c9849348466e7d0e" target="_top" xlink:title="what was the energy contribution to this reconstructed jet from this truth jet?">
<polygon fill="none" stroke="#000000" points="730.5,-229.5 730.5,-261.5 870.5,-261.5 870.5,-229.5 730.5,-229.5"/>
<text text-anchor="start" x="738.5" y="-248.5" font-family="FreeSans" font-size="10.00" fill="#000000">JetRecoEval::get_energy</text>
<text text-anchor="middle" x="800.5" y="-236.5" font-family="FreeSans" font-size="10.00" fill="#000000">_contribution</text>
</a>
</g>
</g>
<!-- Node2&#45;&gt;Node17 -->
<g id="edge22" class="edge">
<title>Node2&#45;&gt;Node17</title>
<path fill="none" stroke="#191970" d="M318.8214,-218.8982C332.0527,-221.9128 345.8944,-224.651 359,-226.5 489.0951,-244.8539 642.7031,-247.1546 730.1503,-246.6663"/>
<polygon fill="#191970" stroke="#191970" points="319.3806,-215.4342 308.8446,-216.5492 317.7763,-222.2479 319.3806,-215.4342"/>
</g>
<!-- Node19 -->
<g id="node19" class="node">
<title>Node19</title>
<g id="a_node19"><a xlink:href="../../dd/df3/classJetEvalStack.html#a77bbe38624286b5534755ddd19d73709" target="_top" xlink:title="JetEvalStack::get_hcalout\l_eval_stack">
<polygon fill="none" stroke="#000000" points="360,-82.5 360,-114.5 506,-114.5 506,-82.5 360,-82.5"/>
<text text-anchor="start" x="368" y="-101.5" font-family="FreeSans" font-size="10.00" fill="#000000">JetEvalStack::get_hcalout</text>
<text text-anchor="middle" x="433" y="-89.5" font-family="FreeSans" font-size="10.00" fill="#000000">_eval_stack</text>
</a>
</g>
</g>
<!-- Node2&#45;&gt;Node19 -->
<g id="edge28" class="edge">
<title>Node2&#45;&gt;Node19</title>
<path fill="none" stroke="#191970" d="M277.9924,-178.113C298.9163,-161.3024 329.4223,-138.6618 359,-123.5 365.3958,-120.2215 372.3151,-117.2289 379.267,-114.5444"/>
<polygon fill="#191970" stroke="#191970" points="275.7336,-175.4387 270.191,-184.4682 280.1546,-180.8659 275.7336,-175.4387"/>
</g>
<!-- Node5 -->
<g id="node5" class="node">
<title>Node5</title>
<g id="a_node5"><a xlink:href="../../dd/d75/classJetRecoEval.html#a277ecc26833b4e3e16f96018aa921702" target="_top" xlink:title="what truth jets contributed to this reconstructed jet?">
<polygon fill="none" stroke="#000000" points="543,-190.5 543,-210.5 691,-210.5 691,-190.5 543,-190.5"/>
<text text-anchor="middle" x="617" y="-197.5" font-family="FreeSans" font-size="10.00" fill="#000000">JetRecoEval::all_truth_jets</text>
</a>
</g>
</g>
<!-- Node4&#45;&gt;Node5 -->
<g id="edge4" class="edge">
<title>Node4&#45;&gt;Node5</title>
<path fill="none" stroke="#191970" d="M505.2604,-200.5C517.5943,-200.5 530.4249,-200.5 542.808,-200.5"/>
<polygon fill="#191970" stroke="#191970" points="505.0375,-197.0001 495.0375,-200.5 505.0375,-204.0001 505.0375,-197.0001"/>
</g>
<!-- Node6 -->
<g id="node6" class="node">
<title>Node6</title>
<g id="a_node6"><a xlink:href="../../dd/d75/classJetRecoEval.html#aaa6df5bbed40bd8cf789d997c348d12f" target="_top" xlink:title="what reconstructed jets had contributions from this truth jet?">
<polygon fill="none" stroke="#000000" points="727,-190.5 727,-210.5 874,-210.5 874,-190.5 727,-190.5"/>
<text text-anchor="middle" x="800.5" y="-197.5" font-family="FreeSans" font-size="10.00" fill="#000000">JetRecoEval::all_jets_from</text>
</a>
</g>
</g>
<!-- Node5&#45;&gt;Node6 -->
<g id="edge5" class="edge">
<title>Node5&#45;&gt;Node6</title>
<path fill="none" stroke="#191970" d="M701.3668,-200.5C709.8279,-200.5 718.3732,-200.5 726.7124,-200.5"/>
<polygon fill="#191970" stroke="#191970" points="701.1076,-197.0001 691.1075,-200.5 701.1075,-204.0001 701.1076,-197.0001"/>
</g>
<!-- Node14 -->
<g id="node14" class="node">
<title>Node14</title>
<g id="a_node14"><a xlink:href="../../dd/d75/classJetRecoEval.html#af4bff244a32d216f097c7fab76c9b95a" target="_top" xlink:title="which truth jet contributed the most energy to this reconstructed jet?">
<polygon fill="none" stroke="#000000" points="918.5,-141.5 918.5,-173.5 1052.5,-173.5 1052.5,-141.5 918.5,-141.5"/>
<text text-anchor="start" x="926.5" y="-160.5" font-family="FreeSans" font-size="10.00" fill="#000000">JetRecoEval::max_truth</text>
<text text-anchor="middle" x="985.5" y="-148.5" font-family="FreeSans" font-size="10.00" fill="#000000">_jet_by_energy</text>
</a>
</g>
</g>
<!-- Node5&#45;&gt;Node14 -->
<g id="edge15" class="edge">
<title>Node5&#45;&gt;Node14</title>
<path fill="none" stroke="#191970" d="M676.6166,-188.6384C692.9071,-185.6767 710.5927,-182.7168 727,-180.5 791.7426,-171.7526 866.0749,-165.5356 918.3631,-161.7888"/>
<polygon fill="#191970" stroke="#191970" points="675.8746,-185.2162 666.6776,-190.4761 677.1473,-192.0995 675.8746,-185.2162"/>
</g>
<!-- Node7 -->
<g id="node7" class="node">
<title>Node7</title>
<g id="a_node7"><a xlink:href="../../dd/d75/classJetRecoEval.html#a631b92837e600fbdb6b966a556fc9077" target="_top" xlink:title="which reconstructed jet had the largest energy contribution from this truth jet?">
<polygon fill="none" stroke="#000000" points="910,-192.5 910,-212.5 1061,-212.5 1061,-192.5 910,-192.5"/>
<text text-anchor="middle" x="985.5" y="-199.5" font-family="FreeSans" font-size="10.00" fill="#000000">JetRecoEval::best_jet_from</text>
</a>
</g>
</g>
<!-- Node6&#45;&gt;Node7 -->
<g id="edge6" class="edge">
<title>Node6&#45;&gt;Node7</title>
<path fill="none" stroke="#191970" d="M884.1789,-201.4046C892.7788,-201.4976 901.4813,-201.5917 909.9855,-201.6836"/>
<polygon fill="#191970" stroke="#191970" points="884.1858,-197.9046 874.1485,-201.2962 884.11,-204.9042 884.1858,-197.9046"/>
</g>
<!-- Node8 -->
<g id="node8" class="node">
<title>Node8</title>
<g id="a_node8"><a xlink:href="../../d1/df4/classJetEvaluator.html#a0c608411c03ff1de3fca80d64e93ae5d" target="_top" xlink:title="dump the evaluator information into ntuple for external analysis">
<polygon fill="none" stroke="#000000" points="1097,-231.5 1097,-263.5 1230,-263.5 1230,-231.5 1097,-231.5"/>
<text text-anchor="start" x="1105" y="-250.5" font-family="FreeSans" font-size="10.00" fill="#000000">JetEvaluator::fillOutput</text>
<text text-anchor="middle" x="1163.5" y="-238.5" font-family="FreeSans" font-size="10.00" fill="#000000">Ntuples</text>
</a>
</g>
</g>
<!-- Node7&#45;&gt;Node8 -->
<g id="edge7" class="edge">
<title>Node7&#45;&gt;Node8</title>
<path fill="none" stroke="#191970" d="M1035.2937,-215.0883C1055.3333,-220.1545 1078.6873,-226.0586 1099.931,-231.4292"/>
<polygon fill="#191970" stroke="#191970" points="1035.9995,-211.6567 1025.4467,-212.5989 1034.2838,-218.4432 1035.9995,-211.6567"/>
</g>
<!-- Node10 -->
<g id="node10" class="node">
<title>Node10</title>
<g id="a_node10"><a xlink:href="../../d4/d28/classQAG4SimulationJet.html#a3e5c5fe2e5e5cee7fca6173ef6e6bfa2" target="_top" xlink:title="QAG4SimulationJet::\lprocess_TruthMatching">
<polygon fill="none" stroke="#000000" points="1266,-141.5 1266,-173.5 1398,-173.5 1398,-141.5 1266,-141.5"/>
<text text-anchor="start" x="1274" y="-160.5" font-family="FreeSans" font-size="10.00" fill="#000000">QAG4SimulationJet::</text>
<text text-anchor="middle" x="1332" y="-148.5" font-family="FreeSans" font-size="10.00" fill="#000000">process_TruthMatching</text>
</a>
</g>
</g>
<!-- Node7&#45;&gt;Node10 -->
<g id="edge9" class="edge">
<title>Node7&#45;&gt;Node10</title>
<path fill="none" stroke="#191970" d="M1071.2117,-198.8253C1118.3006,-195.9707 1177.6165,-191.0068 1230,-182.5 1244.2174,-180.1912 1259.3735,-176.9266 1273.535,-173.516"/>
<polygon fill="#191970" stroke="#191970" points="1070.8296,-195.3416 1061.0513,-199.4201 1071.2388,-202.3296 1070.8296,-195.3416"/>
</g>
<!-- Node12 -->
<g id="node12" class="node">
<title>Node12</title>
<g id="a_node12"><a xlink:href="../../dd/d75/classJetRecoEval.html#a9775ea4a0c6e28f22da7997f4886f195" target="_top" xlink:title="JetRecoEval::unique\l_reco_jet_from_truth">
<polygon fill="none" stroke="#000000" points="1103.5,-90.5 1103.5,-122.5 1223.5,-122.5 1223.5,-90.5 1103.5,-90.5"/>
<text text-anchor="start" x="1111.5" y="-109.5" font-family="FreeSans" font-size="10.00" fill="#000000">JetRecoEval::unique</text>
<text text-anchor="middle" x="1163.5" y="-97.5" font-family="FreeSans" font-size="10.00" fill="#000000">_reco_jet_from_truth</text>
</a>
</g>
</g>
<!-- Node7&#45;&gt;Node12 -->
<g id="edge11" class="edge">
<title>Node7&#45;&gt;Node12</title>
<path fill="none" stroke="#191970" d="M1050.703,-188.5039C1054.3091,-186.7355 1057.7731,-184.7436 1061,-182.5 1083.78,-166.6618 1075.0455,-148.464 1097,-131.5 1101.392,-128.1064 1106.2947,-125.1334 1111.3928,-122.5379"/>
<polygon fill="#191970" stroke="#191970" points="1049.3082,-185.2938 1041.5008,-192.4558 1052.0704,-191.7258 1049.3082,-185.2938"/>
</g>
<!-- Node13 -->
<g id="node13" class="node">
<title>Node13</title>
<g id="a_node13"><a xlink:href="../../dd/d75/classJetRecoEval.html#ac6030b2b14c885e19e35f86ec828d8d8" target="_top" xlink:title="JetRecoEval::unique\l_truth_jet_from_reco">
<polygon fill="none" stroke="#000000" points="1103.5,-141.5 1103.5,-173.5 1223.5,-173.5 1223.5,-141.5 1103.5,-141.5"/>
<text text-anchor="start" x="1111.5" y="-160.5" font-family="FreeSans" font-size="10.00" fill="#000000">JetRecoEval::unique</text>
<text text-anchor="middle" x="1163.5" y="-148.5" font-family="FreeSans" font-size="10.00" fill="#000000">_truth_jet_from_reco</text>
</a>
</g>
</g>
<!-- Node7&#45;&gt;Node13 -->
<g id="edge13" class="edge">
<title>Node7&#45;&gt;Node13</title>
<path fill="none" stroke="#191970" d="M1035.1937,-189.937C1056.3496,-184.5886 1081.2136,-178.3027 1103.3924,-172.6957"/>
<polygon fill="#191970" stroke="#191970" points="1034.2838,-186.5568 1025.4467,-192.4011 1035.9995,-193.3433 1034.2838,-186.5568"/>
</g>
<!-- Node9 -->
<g id="node9" class="node">
<title>Node9</title>
<g id="a_node9"><a xlink:href="../../d1/df4/classJetEvaluator.html#ad83508ae828d1f2e4a83a948465a0cd2" target="_top" xlink:title="JetEvaluator::process\l_event">
<polygon fill="none" stroke="#000000" points="1270,-225.5 1270,-257.5 1394,-257.5 1394,-225.5 1270,-225.5"/>
<text text-anchor="start" x="1278" y="-244.5" font-family="FreeSans" font-size="10.00" fill="#000000">JetEvaluator::process</text>
<text text-anchor="middle" x="1332" y="-232.5" font-family="FreeSans" font-size="10.00" fill="#000000">_event</text>
</a>
</g>
</g>
<!-- Node8&#45;&gt;Node9 -->
<g id="edge8" class="edge">
<title>Node8&#45;&gt;Node9</title>
<path fill="none" stroke="#191970" d="M1240.2941,-244.7655C1250.15,-244.4145 1260.1431,-244.0587 1269.7281,-243.7174"/>
<polygon fill="#191970" stroke="#191970" points="1239.9647,-241.2749 1230.0957,-245.1286 1240.2139,-248.2705 1239.9647,-241.2749"/>
</g>
<!-- Node11 -->
<g id="node11" class="node">
<title>Node11</title>
<g id="a_node11"><a xlink:href="../../d4/d28/classQAG4SimulationJet.html#a98c3c0fb4d213ada3475e8fb9895bc29" target="_top" xlink:title="QAG4SimulationJet::\lprocess_event">
<polygon fill="none" stroke="#000000" points="1434,-208.5 1434,-240.5 1552,-240.5 1552,-208.5 1434,-208.5"/>
<text text-anchor="start" x="1442" y="-227.5" font-family="FreeSans" font-size="10.00" fill="#000000">QAG4SimulationJet::</text>
<text text-anchor="middle" x="1493" y="-215.5" font-family="FreeSans" font-size="10.00" fill="#000000">process_event</text>
</a>
</g>
</g>
<!-- Node10&#45;&gt;Node11 -->
<g id="edge10" class="edge">
<title>Node10&#45;&gt;Node11</title>
<path fill="none" stroke="#191970" d="M1380.1021,-177.5176C1403.8687,-187.4081 1432.1576,-199.1805 1454.4725,-208.4668"/>
<polygon fill="#191970" stroke="#191970" points="1381.1407,-174.1589 1370.5635,-173.5482 1378.4512,-180.6217 1381.1407,-174.1589"/>
</g>
<!-- Node12&#45;&gt;Node10 -->
<g id="edge12" class="edge">
<title>Node12&#45;&gt;Node10</title>
<path fill="none" stroke="#191970" d="M1226.7816,-125.6535C1243.9949,-130.8634 1262.4553,-136.4508 1279.0324,-141.4683"/>
<polygon fill="#191970" stroke="#191970" points="1227.3996,-122.1838 1216.8145,-122.6367 1225.3717,-128.8836 1227.3996,-122.1838"/>
</g>
<!-- Node13&#45;&gt;Node10 -->
<g id="edge14" class="edge">
<title>Node13&#45;&gt;Node10</title>
<path fill="none" stroke="#191970" d="M1233.8732,-157.5C1244.44,-157.5 1255.3062,-157.5 1265.7822,-157.5"/>
<polygon fill="#191970" stroke="#191970" points="1233.8565,-154.0001 1223.8564,-157.5 1233.8564,-161.0001 1233.8565,-154.0001"/>
</g>
<!-- Node14&#45;&gt;Node8 -->
<g id="edge16" class="edge">
<title>Node14&#45;&gt;Node8</title>
<path fill="none" stroke="#191970" d="M1049.0075,-177.252C1053.1097,-178.919 1057.1396,-180.671 1061,-182.5 1090.3254,-196.3939 1121.4611,-217.0937 1141.6169,-231.3832"/>
<polygon fill="#191970" stroke="#191970" points="1049.9398,-173.8601 1039.3504,-173.5206 1047.4168,-180.3897 1049.9398,-173.8601"/>
</g>
<!-- Node14&#45;&gt;Node10 -->
<g id="edge18" class="edge">
<title>Node14&#45;&gt;Node10</title>
<path fill="none" stroke="#191970" d="M1009.3782,-134.5052C1030.4998,-115.8768 1063.1449,-91.0539 1097,-80.5 1153.4326,-62.9079 1173.9516,-61.7197 1230,-80.5 1265.7646,-92.4838 1299.0092,-122.507 1317.3092,-141.3264"/>
<polygon fill="#191970" stroke="#191970" points="1006.9365,-131.9944 1001.8689,-141.2988 1011.6327,-137.1854 1006.9365,-131.9944"/>
</g>
<!-- Node14&#45;&gt;Node12 -->
<g id="edge19" class="edge">
<title>Node14&#45;&gt;Node12</title>
<path fill="none" stroke="#191970" d="M1051.5855,-138.5654C1069.986,-133.2933 1089.7888,-127.6195 1107.5461,-122.5317"/>
<polygon fill="#191970" stroke="#191970" points="1050.4695,-135.2442 1041.8203,-141.3633 1052.3976,-141.9735 1050.4695,-135.2442"/>
</g>
<!-- Node14&#45;&gt;Node13 -->
<g id="edge20" class="edge">
<title>Node14&#45;&gt;Node13</title>
<path fill="none" stroke="#191970" d="M1062.8038,-157.5C1076.3466,-157.5 1090.2571,-157.5 1103.2514,-157.5"/>
<polygon fill="#191970" stroke="#191970" points="1062.5406,-154.0001 1052.5405,-157.5 1062.5405,-161.0001 1062.5406,-154.0001"/>
</g>
<!-- Node15 -->
<g id="node15" class="node">
<title>Node15</title>
<g id="a_node15"><a xlink:href="../../d5/d1f/classMyJetAnalysis.html#a309e9a46394353251b673514d6eb28ac" target="_top" xlink:title="MyJetAnalysis::process\l_event">
<polygon fill="none" stroke="#000000" points="1098,-.5 1098,-32.5 1229,-32.5 1229,-.5 1098,-.5"/>
<text text-anchor="start" x="1106" y="-19.5" font-family="FreeSans" font-size="10.00" fill="#000000">MyJetAnalysis::process</text>
<text text-anchor="middle" x="1163.5" y="-7.5" font-family="FreeSans" font-size="10.00" fill="#000000">_event</text>
</a>
</g>
</g>
<!-- Node14&#45;&gt;Node15 -->
<g id="edge17" class="edge">
<title>Node14&#45;&gt;Node15</title>
<path fill="none" stroke="#191970" d="M1005.3867,-133.5407C1026.2964,-109.4701 1061.0917,-72.4594 1097,-47.5 1105.0538,-41.9019 1114.2789,-36.8669 1123.2421,-32.5627"/>
<polygon fill="#191970" stroke="#191970" points="1002.6966,-131.3011 998.8463,-141.1716 1008.0115,-135.8565 1002.6966,-131.3011"/>
</g>
<!-- Node17&#45;&gt;Node7 -->
<g id="edge23" class="edge">
<title>Node17&#45;&gt;Node7</title>
<path fill="none" stroke="#191970" d="M879.2362,-227.1991C900.8679,-222.1712 923.5267,-216.9046 942.3373,-212.5324"/>
<polygon fill="#191970" stroke="#191970" points="878.3351,-223.8152 869.3872,-229.4884 879.9199,-230.6335 878.3351,-223.8152"/>
</g>
<!-- Node17&#45;&gt;Node8 -->
<g id="edge24" class="edge">
<title>Node17&#45;&gt;Node8</title>
<path fill="none" stroke="#191970" d="M881.1106,-245.9441C946.0038,-246.3017 1036.1153,-246.7982 1096.9491,-247.1333"/>
<polygon fill="#191970" stroke="#191970" points="880.9396,-242.4432 870.9205,-245.888 880.901,-249.4431 880.9396,-242.4432"/>
</g>
<!-- Node17&#45;&gt;Node14 -->
<g id="edge25" class="edge">
<title>Node17&#45;&gt;Node14</title>
<path fill="none" stroke="#191970" d="M866.3681,-224.9488C868.9976,-223.5504 871.5534,-222.0687 874,-220.5 893.5846,-207.943 890.3647,-194.9776 910,-182.5 915.2441,-179.1675 920.9775,-176.2342 926.8661,-173.6625"/>
<polygon fill="#191970" stroke="#191970" points="864.6736,-221.8805 857.1969,-229.3871 867.7229,-228.1814 864.6736,-221.8805"/>
</g>
<!-- Node18 -->
<g id="node18" class="node">
<title>Node18</title>
<g id="a_node18"><a xlink:href="../../d4/d28/classQAG4SimulationJet.html#ac2803dd2fafe7d6131f3311c9f1e4e27" target="_top" xlink:title="QAG4SimulationJet::\lprocess_Spectrum">
<polygon fill="none" stroke="#000000" points="1273,-276.5 1273,-308.5 1391,-308.5 1391,-276.5 1273,-276.5"/>
<text text-anchor="start" x="1281" y="-295.5" font-family="FreeSans" font-size="10.00" fill="#000000">QAG4SimulationJet::</text>
<text text-anchor="middle" x="1332" y="-283.5" font-family="FreeSans" font-size="10.00" fill="#000000">process_Spectrum</text>
</a>
</g>
</g>
<!-- Node17&#45;&gt;Node18 -->
<g id="edge26" class="edge">
<title>Node17&#45;&gt;Node18</title>
<path fill="none" stroke="#191970" d="M880.7303,-257.0574C890.5784,-258.3086 900.512,-259.4913 910,-260.5 1039.138,-274.2286 1191.1191,-284.2541 1272.841,-289.1457"/>
<polygon fill="#191970" stroke="#191970" points="880.888,-253.5486 870.5209,-255.7332 879.9876,-260.4904 880.888,-253.5486"/>
</g>
<!-- Node18&#45;&gt;Node11 -->
<g id="edge27" class="edge">
<title>Node18&#45;&gt;Node11</title>
<path fill="none" stroke="#191970" d="M1385.0701,-272.7327C1389.4577,-270.9968 1393.8131,-269.2385 1398,-267.5 1418.3982,-259.0301 1440.93,-248.8673 1458.9291,-240.5487"/>
<polygon fill="#191970" stroke="#191970" points="1383.5093,-269.5846 1375.4662,-276.4809 1386.0543,-276.1056 1383.5093,-269.5846"/>
</g>
</g>
</svg>
