<?xml version="1.0" encoding="UTF-8" standalone="no"?>
<!DOCTYPE svg PUBLIC "-//W3C//DTD SVG 1.1//EN"
 "http://www.w3.org/Graphics/SVG/1.1/DTD/svg11.dtd">
<!-- Generated by graphviz version 2.40.1 (20161225.0304)
 -->
<!-- Title: fv Pages: 1 -->
<svg width="1547pt" height="442pt"
 viewBox="0.00 0.00 1547.00 442.00" xmlns="http://www.w3.org/2000/svg" xmlns:xlink="http://www.w3.org/1999/xlink">
<g id="graph0" class="graph" transform="scale(1 1) rotate(0) translate(4 438)">
<title>fv</title>
<!-- Node1 -->
<g id="node1" class="node">
<title>Node1</title>
<polygon fill="#bfbfbf" stroke="#000000" points="0,-262.5 0,-282.5 29,-282.5 29,-262.5 0,-262.5"/>
<text text-anchor="middle" x="14.5" y="-269.5" font-family="FreeSans" font-size="10.00" fill="#000000">fv</text>
</g>
<!-- Node2 -->
<g id="node2" class="node">
<title>Node2</title>
<g id="a_node2"><a xlink:href="../../d4/d06/classFairModule.html#a9514d3691ecbbd37e8b0495100006c59" target="_top" xlink:title="FairModule::getFairVolume">
<polygon fill="none" stroke="#000000" points="65,-360.5 65,-380.5 215,-380.5 215,-360.5 65,-360.5"/>
<text text-anchor="middle" x="140" y="-367.5" font-family="FreeSans" font-size="10.00" fill="#000000">FairModule::getFairVolume</text>
</a>
</g>
</g>
<!-- Node1&#45;&gt;Node2 -->
<g id="edge1" class="edge">
<title>Node1&#45;&gt;Node2</title>
<path fill="none" stroke="#191970" d="M22.01,-292.0789C29.968,-310.2036 44.2689,-336.5407 65,-351.5 70.0105,-355.1155 75.642,-358.0452 81.5094,-360.4187"/>
<polygon fill="#191970" stroke="#191970" points="25.2046,-290.6451 18.1486,-282.7416 18.7359,-293.3202 25.2046,-290.6451"/>
</g>
<!-- Node3 -->
<g id="node3" class="node">
<title>Node3</title>
<g id="a_node3"><a xlink:href="../../d6/da1/grv94di_8F.html#ae9316822bf38bbb4d73b1f893bbf1e62" target="_top" xlink:title="grv94di">
<polygon fill="none" stroke="#000000" points="112.5,-321.5 112.5,-341.5 167.5,-341.5 167.5,-321.5 112.5,-321.5"/>
<text text-anchor="middle" x="140" y="-328.5" font-family="FreeSans" font-size="10.00" fill="#000000">grv94di</text>
</a>
</g>
</g>
<!-- Node1&#45;&gt;Node3 -->
<g id="edge2" class="edge">
<title>Node1&#45;&gt;Node3</title>
<path fill="none" stroke="#191970" d="M32.0562,-289.4512C41.2307,-297.4787 53.0242,-306.5815 65,-312.5 79.8115,-319.82 97.7038,-324.492 112.2973,-327.3709"/>
<polygon fill="#191970" stroke="#191970" points="34.1843,-286.6551 24.4367,-282.5035 29.4678,-291.8277 34.1843,-286.6551"/>
</g>
<!-- Node4 -->
<g id="node4" class="node">
<title>Node4</title>
<g id="a_node4"><a xlink:href="../../d1/d9e/grv94ho_8F.html#a5cf1c4c7f3996a1ee8f4332aac26168f" target="_top" xlink:title="grv94ho">
<polygon fill="none" stroke="#000000" points="111,-282.5 111,-302.5 169,-302.5 169,-282.5 111,-282.5"/>
<text text-anchor="middle" x="140" y="-289.5" font-family="FreeSans" font-size="10.00" fill="#000000">grv94ho</text>
</a>
</g>
</g>
<!-- Node1&#45;&gt;Node4 -->
<g id="edge3" class="edge">
<title>Node1&#45;&gt;Node4</title>
<path fill="none" stroke="#191970" d="M39.5473,-276.4916C60.1024,-279.7673 89.2354,-284.41 110.838,-287.8527"/>
<polygon fill="#191970" stroke="#191970" points="39.8156,-272.9903 29.3893,-274.8728 38.7139,-279.903 39.8156,-272.9903"/>
</g>
<!-- Node6 -->
<g id="node6" class="node">
<title>Node6</title>
<g id="a_node6"><a xlink:href="../../d1/dfa/grv94lo_8F.html#a5a7b1f97eb6b9635e61f608e336d2312" target="_top" xlink:title="grv94lo">
<polygon fill="none" stroke="#000000" points="112.5,-243.5 112.5,-263.5 167.5,-263.5 167.5,-243.5 112.5,-243.5"/>
<text text-anchor="middle" x="140" y="-250.5" font-family="FreeSans" font-size="10.00" fill="#000000">grv94lo</text>
</a>
</g>
</g>
<!-- Node1&#45;&gt;Node6 -->
<g id="edge5" class="edge">
<title>Node1&#45;&gt;Node6</title>
<path fill="none" stroke="#191970" d="M39.4735,-268.7191C60.5046,-265.5352 90.5535,-260.9859 112.3153,-257.6913"/>
<polygon fill="#191970" stroke="#191970" points="38.7527,-265.2883 29.3893,-270.2458 39.8006,-272.2094 38.7527,-265.2883"/>
</g>
<!-- Node7 -->
<g id="node7" class="node">
<title>Node7</title>
<g id="a_node7"><a xlink:href="../../d8/def/classFairMCApplication.html#ae6ed46ec48c80c4db0483b98052e6a1a" target="_top" xlink:title="FairMCApplication::\lInitGeometry">
<polygon fill="none" stroke="#000000" points="83.5,-192.5 83.5,-224.5 196.5,-224.5 196.5,-192.5 83.5,-192.5"/>
<text text-anchor="start" x="91.5" y="-211.5" font-family="FreeSans" font-size="10.00" fill="#000000">FairMCApplication::</text>
<text text-anchor="middle" x="140" y="-199.5" font-family="FreeSans" font-size="10.00" fill="#000000">InitGeometry</text>
</a>
</g>
</g>
<!-- Node1&#45;&gt;Node7 -->
<g id="edge7" class="edge">
<title>Node1&#45;&gt;Node7</title>
<path fill="none" stroke="#191970" d="M33.7639,-255.76C42.8027,-248.5116 53.9917,-240.3631 65,-234.5 71.9331,-230.8073 79.4971,-227.4701 87.0671,-224.5131"/>
<polygon fill="#191970" stroke="#191970" points="31.3012,-253.2551 25.8328,-262.3296 35.7666,-258.6459 31.3012,-253.2551"/>
</g>
<!-- Node8 -->
<g id="node8" class="node">
<title>Node8</title>
<g id="a_node8"><a xlink:href="../../d6/dcf/pythia6425mod_8f.html#aeceae4435f53744a1fd6d16580b88e9b" target="_top" xlink:title="pypdfl">
<polygon fill="none" stroke="#000000" points="116,-153.5 116,-173.5 164,-173.5 164,-153.5 116,-153.5"/>
<text text-anchor="middle" x="140" y="-160.5" font-family="FreeSans" font-size="10.00" fill="#000000">pypdfl</text>
</a>
</g>
</g>
<!-- Node1&#45;&gt;Node8 -->
<g id="edge8" class="edge">
<title>Node1&#45;&gt;Node8</title>
<path fill="none" stroke="#191970" d="M20.6252,-252.6731C27.9366,-232.3073 42.1312,-201.1623 65,-183.5 79.6114,-172.2151 100.0635,-167.2807 115.9203,-165.1318"/>
<polygon fill="#191970" stroke="#191970" points="17.2875,-251.618 17.4198,-262.212 23.9229,-253.8478 17.2875,-251.618"/>
</g>
<!-- Node5 -->
<g id="node5" class="node">
<title>Node5</title>
<g id="a_node5"><a xlink:href="../../d9/df8/parton_8F.html#a2bafad62fff174f84acb30bc10201a98" target="_top" xlink:title="parton">
<polygon fill="none" stroke="#000000" points="251,-256.5 251,-276.5 300,-276.5 300,-256.5 251,-256.5"/>
<text text-anchor="middle" x="275.5" y="-263.5" font-family="FreeSans" font-size="10.00" fill="#000000">parton</text>
</a>
</g>
</g>
<!-- Node4&#45;&gt;Node5 -->
<g id="edge4" class="edge">
<title>Node4&#45;&gt;Node5</title>
<path fill="none" stroke="#191970" d="M178.9016,-285.0355C201.9652,-280.61 230.5134,-275.1321 250.5732,-271.283"/>
<polygon fill="#191970" stroke="#191970" points="178.2294,-281.6005 169.0681,-286.9223 179.5486,-288.4751 178.2294,-281.6005"/>
</g>
<!-- Node6&#45;&gt;Node5 -->
<g id="edge6" class="edge">
<title>Node6&#45;&gt;Node5</title>
<path fill="none" stroke="#191970" d="M178.0165,-257.1473C201.3844,-259.3893 230.6393,-262.196 250.9742,-264.147"/>
<polygon fill="#191970" stroke="#191970" points="178.036,-253.6332 167.7474,-256.1621 177.3674,-260.6012 178.036,-253.6332"/>
</g>
<!-- Node9 -->
<g id="node9" class="node">
<title>Node9</title>
<g id="a_node9"><a xlink:href="../../d6/dcf/pythia6425mod_8f.html#a2d74d5dd64881524212b3720af2696de" target="_top" xlink:title="pyrand">
<polygon fill="none" stroke="#000000" points="515,-115.5 515,-135.5 566,-135.5 566,-115.5 515,-115.5"/>
<text text-anchor="middle" x="540.5" y="-122.5" font-family="FreeSans" font-size="10.00" fill="#000000">pyrand</text>
</a>
</g>
</g>
<!-- Node8&#45;&gt;Node9 -->
<g id="edge9" class="edge">
<title>Node8&#45;&gt;Node9</title>
<path fill="none" stroke="#191970" d="M174.288,-156.8694C196.1677,-152.8273 225.1696,-147.8182 251,-144.5 327.9875,-134.6101 347.5209,-134.1781 425,-129.5 455.8426,-127.6377 491.3745,-126.5685 514.7927,-126.0121"/>
<polygon fill="#191970" stroke="#191970" points="173.3496,-153.4842 164.1642,-158.7643 174.6375,-160.3647 173.3496,-153.4842"/>
</g>
<!-- Node26 -->
<g id="node26" class="node">
<title>Node26</title>
<g id="a_node26"><a xlink:href="../../d6/dcf/pythia6425mod_8f.html#a3ccdee32be69df9daf5605283165a012" target="_top" xlink:title="pysigh">
<polygon fill="none" stroke="#000000" points="251,-153.5 251,-173.5 300,-173.5 300,-153.5 251,-153.5"/>
<text text-anchor="middle" x="275.5" y="-160.5" font-family="FreeSans" font-size="10.00" fill="#000000">pysigh</text>
</a>
</g>
</g>
<!-- Node8&#45;&gt;Node26 -->
<g id="edge29" class="edge">
<title>Node8&#45;&gt;Node26</title>
<path fill="none" stroke="#191970" d="M174.2385,-163.5C198.0079,-163.5 229.133,-163.5 250.5683,-163.5"/>
<polygon fill="#191970" stroke="#191970" points="174.2247,-160.0001 164.2247,-163.5 174.2246,-167.0001 174.2247,-160.0001"/>
</g>
<!-- Node35 -->
<g id="node35" class="node">
<title>Node35</title>
<g id="a_node35"><a xlink:href="../../d6/dcf/pythia6425mod_8f.html#a9f8a08b43157ca5aa62d84247ff26109" target="_top" xlink:title="pysspa">
<polygon fill="none" stroke="#000000" points="337,-230.5 337,-250.5 388,-250.5 388,-230.5 337,-230.5"/>
<text text-anchor="middle" x="362.5" y="-237.5" font-family="FreeSans" font-size="10.00" fill="#000000">pysspa</text>
</a>
</g>
</g>
<!-- Node8&#45;&gt;Node35 -->
<g id="edge49" class="edge">
<title>Node8&#45;&gt;Node35</title>
<path fill="none" stroke="#191970" d="M174.0657,-171.7531C186.9776,-175.0981 201.7544,-179.1886 215,-183.5 259.3787,-197.9452 309.8613,-218.3412 338.771,-230.4145"/>
<polygon fill="#191970" stroke="#191970" points="174.7292,-168.3106 164.1753,-169.2404 173.0055,-175.0951 174.7292,-168.3106"/>
</g>
<!-- Node10 -->
<g id="node10" class="node">
<title>Node10</title>
<g id="a_node10"><a xlink:href="../../d6/dcf/pythia6425mod_8f.html#ac81fa418f8cd77b0873b2de2a4140933" target="_top" xlink:title="pyevnt">
<polygon fill="none" stroke="#000000" points="699.5,-187.5 699.5,-207.5 751.5,-207.5 751.5,-187.5 699.5,-187.5"/>
<text text-anchor="middle" x="725.5" y="-194.5" font-family="FreeSans" font-size="10.00" fill="#000000">pyevnt</text>
</a>
</g>
</g>
<!-- Node9&#45;&gt;Node10 -->
<g id="edge10" class="edge">
<title>Node9&#45;&gt;Node10</title>
<path fill="none" stroke="#191970" d="M576.1569,-129.789C600.0331,-133.5191 631.7719,-140.1634 658,-151.5 679.088,-160.6149 700.517,-176.6145 713.4107,-187.1353"/>
<polygon fill="#191970" stroke="#191970" points="576.5187,-126.3048 566.1171,-128.3188 575.5044,-133.2309 576.5187,-126.3048"/>
</g>
<!-- Node24 -->
<g id="node24" class="node">
<title>Node24</title>
<g id="a_node24"><a xlink:href="../../d6/dcf/pythia6425mod_8f.html#a83ae6561ab82fd7af8b1b3e511f477ac" target="_top" xlink:title="pyevnw">
<polygon fill="none" stroke="#000000" points="602,-39.5 602,-59.5 658,-59.5 658,-39.5 602,-39.5"/>
<text text-anchor="middle" x="630" y="-46.5" font-family="FreeSans" font-size="10.00" fill="#000000">pyevnw</text>
</a>
</g>
</g>
<!-- Node9&#45;&gt;Node24 -->
<g id="edge26" class="edge">
<title>Node9&#45;&gt;Node24</title>
<path fill="none" stroke="#191970" d="M557.6804,-108.2552C569.6785,-96.5484 586.2974,-80.9871 602,-68.5 605.8623,-65.4286 610.2047,-62.3271 614.2961,-59.5461"/>
<polygon fill="#191970" stroke="#191970" points="555.1796,-105.8058 550.5194,-115.3207 560.096,-110.7888 555.1796,-105.8058"/>
</g>
<!-- Node25 -->
<g id="node25" class="node">
<title>Node25</title>
<g id="a_node25"><a xlink:href="../../d6/dcf/pythia6425mod_8f.html#ae7cb37215e5a38b3fb0529c9996646e6" target="_top" xlink:title="pyupev">
<polygon fill="none" stroke="#000000" points="603,-78.5 603,-98.5 657,-98.5 657,-78.5 603,-78.5"/>
<text text-anchor="middle" x="630" y="-85.5" font-family="FreeSans" font-size="10.00" fill="#000000">pyupev</text>
</a>
</g>
</g>
<!-- Node9&#45;&gt;Node25 -->
<g id="edge28" class="edge">
<title>Node9&#45;&gt;Node25</title>
<path fill="none" stroke="#191970" d="M574.2161,-111.5615C584.6363,-107.2537 595.9078,-102.594 605.5733,-98.5982"/>
<polygon fill="#191970" stroke="#191970" points="572.8605,-108.3345 564.9563,-115.3896 575.5349,-114.8035 572.8605,-108.3345"/>
</g>
<!-- Node11 -->
<g id="node11" class="node">
<title>Node11</title>
<g id="a_node11"><a xlink:href="../../d3/dd5/jewel-2_82_80_8f.html#aeb24fa7919aa21c652e9c8f2ec45cb91" target="_top" xlink:title="genevent">
<polygon fill="none" stroke="#000000" points="793,-187.5 793,-207.5 858,-207.5 858,-187.5 793,-187.5"/>
<text text-anchor="middle" x="825.5" y="-194.5" font-family="FreeSans" font-size="10.00" fill="#000000">genevent</text>
</a>
</g>
</g>
<!-- Node10&#45;&gt;Node11 -->
<g id="edge11" class="edge">
<title>Node10&#45;&gt;Node11</title>
<path fill="none" stroke="#191970" d="M761.7245,-197.5C771.8845,-197.5 782.8676,-197.5 792.8092,-197.5"/>
<polygon fill="#191970" stroke="#191970" points="761.5128,-194.0001 751.5128,-197.5 761.5127,-201.0001 761.5128,-194.0001"/>
</g>
<!-- Node23 -->
<g id="node23" class="node">
<title>Node23</title>
<g id="a_node23"><a xlink:href="../../d6/dcf/pythia6425mod_8f.html#a4cc0e611278607d6b413b5cecdfe16c3" target="_top" xlink:title="pytest">
<polygon fill="none" stroke="#000000" points="801.5,-246.5 801.5,-266.5 849.5,-266.5 849.5,-246.5 801.5,-246.5"/>
<text text-anchor="middle" x="825.5" y="-253.5" font-family="FreeSans" font-size="10.00" fill="#000000">pytest</text>
</a>
</g>
</g>
<!-- Node10&#45;&gt;Node23 -->
<g id="edge25" class="edge">
<title>Node10&#45;&gt;Node23</title>
<path fill="none" stroke="#191970" d="M751.2952,-212.7192C769.278,-223.329 792.7663,-237.1871 808.4531,-246.4424"/>
<polygon fill="#191970" stroke="#191970" points="752.8549,-209.5756 742.4636,-207.5085 749.2978,-215.6045 752.8549,-209.5756"/>
</g>
<!-- Node12 -->
<g id="node12" class="node">
<title>Node12</title>
<g id="a_node12"><a xlink:href="../../dd/d2a/classPHHepMCGenHelper.html#ab0c755f6e53c0bf57ccd314a0017d227" target="_top" xlink:title="send HepMC::GenEvent to DST tree. This function takes ownership of evt">
<polygon fill="none" stroke="#000000" points="923,-257.5 923,-289.5 1079,-289.5 1079,-257.5 923,-257.5"/>
<text text-anchor="start" x="931" y="-276.5" font-family="FreeSans" font-size="10.00" fill="#000000">PHHepMCGenHelper::insert</text>
<text text-anchor="middle" x="1001" y="-264.5" font-family="FreeSans" font-size="10.00" fill="#000000">_event</text>
</a>
</g>
</g>
<!-- Node11&#45;&gt;Node12 -->
<g id="edge12" class="edge">
<title>Node11&#45;&gt;Node12</title>
<path fill="none" stroke="#191970" d="M847.3822,-213.3045C860.4369,-222.1969 877.6144,-232.988 894,-240.5 908.2253,-247.0216 924.0845,-252.7048 939.1434,-257.432"/>
<polygon fill="#191970" stroke="#191970" points="849.2706,-210.3546 839.0633,-207.5151 845.272,-216.1002 849.2706,-210.3546"/>
</g>
<!-- Node17 -->
<g id="node17" class="node">
<title>Node17</title>
<g id="a_node17"><a xlink:href="../../d9/d3a/classPHPythia8.html#a5cc4124cc6be2fb2467714e3d3bc5a6a" target="_top" xlink:title="PHPythia8::process\l_event">
<polygon fill="none" stroke="#000000" points="1179,-209.5 1179,-241.5 1292,-241.5 1292,-209.5 1179,-209.5"/>
<text text-anchor="start" x="1187" y="-228.5" font-family="FreeSans" font-size="10.00" fill="#000000">PHPythia8::process</text>
<text text-anchor="middle" x="1235.5" y="-216.5" font-family="FreeSans" font-size="10.00" fill="#000000">_event</text>
</a>
</g>
</g>
<!-- Node11&#45;&gt;Node17 -->
<g id="edge23" class="edge">
<title>Node11&#45;&gt;Node17</title>
<path fill="none" stroke="#191970" d="M868.36,-201.407C876.8536,-202.1381 885.7066,-202.8697 894,-203.5 994.2642,-211.1197 1111.221,-218.2803 1178.9732,-222.2582"/>
<polygon fill="#191970" stroke="#191970" points="868.5065,-197.9065 858.2397,-200.5223 867.8968,-204.8799 868.5065,-197.9065"/>
</g>
<!-- Node18 -->
<g id="node18" class="node">
<title>Node18</title>
<g id="a_node18"><a xlink:href="../../da/df0/classPHSartre.html#aafe9fd92317ab1f7eee67a9354696c4e" target="_top" xlink:title="PHSartre::process_event">
<polygon fill="none" stroke="#000000" points="1165.5,-170.5 1165.5,-190.5 1305.5,-190.5 1305.5,-170.5 1165.5,-170.5"/>
<text text-anchor="middle" x="1235.5" y="-177.5" font-family="FreeSans" font-size="10.00" fill="#000000">PHSartre::process_event</text>
</a>
</g>
</g>
<!-- Node11&#45;&gt;Node18 -->
<g id="edge22" class="edge">
<title>Node11&#45;&gt;Node18</title>
<path fill="none" stroke="#191970" d="M868.2904,-195.7258C938.752,-192.8042 1079.8743,-186.9528 1165.1815,-183.4156"/>
<polygon fill="#191970" stroke="#191970" points="867.8611,-192.2405 858.0147,-196.1518 868.1512,-199.2345 867.8611,-192.2405"/>
</g>
<!-- Node20 -->
<g id="node20" class="node">
<title>Node20</title>
<g id="a_node20"><a xlink:href="../../d3/dd5/jewel-2_82_80_8f.html#a15e2df3184692bfe4ca2261638190094" target="_top" xlink:title="jewel">
<polygon fill="none" stroke="#000000" points="979.5,-308.5 979.5,-328.5 1022.5,-328.5 1022.5,-308.5 979.5,-308.5"/>
<text text-anchor="middle" x="1001" y="-315.5" font-family="FreeSans" font-size="10.00" fill="#000000">jewel</text>
</a>
</g>
</g>
<!-- Node11&#45;&gt;Node20 -->
<g id="edge20" class="edge">
<title>Node11&#45;&gt;Node20</title>
<path fill="none" stroke="#191970" d="M841.1278,-215.5051C846.6939,-222.2292 852.8533,-230.0443 858,-237.5 876.1018,-263.7228 867.8871,-281.2401 894,-299.5 919.3573,-317.2315 956.1384,-320.0421 979.2999,-319.7722"/>
<polygon fill="#191970" stroke="#191970" points="843.6437,-213.0597 834.5159,-207.6807 838.2971,-217.5779 843.6437,-213.0597"/>
</g>
<!-- Node21 -->
<g id="node21" class="node">
<title>Node21</title>
<g id="a_node21"><a xlink:href="../../d7/df5/pepsiMaineRHIC__noradcorr_8f.html#ac2ed0c0080f3e6d946824efb82e28ab5" target="_top" xlink:title="pepsimainerhic">
<polygon fill="none" stroke="#000000" points="954,-139.5 954,-159.5 1048,-159.5 1048,-139.5 954,-139.5"/>
<text text-anchor="middle" x="1001" y="-146.5" font-family="FreeSans" font-size="10.00" fill="#000000">pepsimainerhic</text>
</a>
</g>
</g>
<!-- Node11&#45;&gt;Node21 -->
<g id="edge21" class="edge">
<title>Node11&#45;&gt;Node21</title>
<path fill="none" stroke="#191970" d="M862.9869,-184.2028C873.0036,-180.845 883.8633,-177.379 894,-174.5 913.4519,-168.9752 935.1402,-163.7395 953.8777,-159.5006"/>
<polygon fill="#191970" stroke="#191970" points="861.6468,-180.9617 853.3091,-187.4988 863.9036,-187.588 861.6468,-180.9617"/>
</g>
<!-- Node22 -->
<g id="node22" class="node">
<title>Node22</title>
<g id="a_node22"><a xlink:href="../../de/d99/classFun4AllHepMCPileupInputManager.html#a81bf2b69c3c4d3aae0aadebafe1c2c2e" target="_top" xlink:title="Fun4AllHepMCPileupInputManager::run">
<polygon fill="none" stroke="#000000" points="894,-100.5 894,-120.5 1108,-120.5 1108,-100.5 894,-100.5"/>
<text text-anchor="middle" x="1001" y="-107.5" font-family="FreeSans" font-size="10.00" fill="#000000">Fun4AllHepMCPileupInputManager::run</text>
</a>
</g>
</g>
<!-- Node11&#45;&gt;Node22 -->
<g id="edge24" class="edge">
<title>Node11&#45;&gt;Node22</title>
<path fill="none" stroke="#191970" d="M839.0883,-179.1307C851.5871,-163.6387 871.5459,-142.1772 894,-130.5 901.8802,-126.4019 910.4735,-123.1345 919.2525,-120.5308"/>
<polygon fill="#191970" stroke="#191970" points="836.0011,-177.3994 832.6287,-187.4432 841.5284,-181.6946 836.0011,-177.3994"/>
</g>
<!-- Node13 -->
<g id="node13" class="node">
<title>Node13</title>
<g id="a_node13"><a xlink:href="../../d6/d6f/classFun4AllHepMCInputManager.html#ab6c80a8ee0701bfff5eee3ec3623015c" target="_top" xlink:title="Fun4AllHepMCInputManager::run">
<polygon fill="none" stroke="#000000" points="1144,-311.5 1144,-331.5 1327,-331.5 1327,-311.5 1144,-311.5"/>
<text text-anchor="middle" x="1235.5" y="-318.5" font-family="FreeSans" font-size="10.00" fill="#000000">Fun4AllHepMCInputManager::run</text>
</a>
</g>
</g>
<!-- Node12&#45;&gt;Node13 -->
<g id="edge13" class="edge">
<title>Node12&#45;&gt;Node13</title>
<path fill="none" stroke="#191970" d="M1089.1824,-291.5501C1122.096,-298.2872 1158.2712,-305.692 1186.417,-311.4532"/>
<polygon fill="#191970" stroke="#191970" points="1089.5839,-288.0598 1079.0851,-289.4833 1088.1801,-294.9176 1089.5839,-288.0598"/>
</g>
<!-- Node14 -->
<g id="node14" class="node">
<title>Node14</title>
<g id="a_node14"><a xlink:href="../../db/d1f/classFun4AllOscarInputManager.html#a1537e89c4e652f70747fbbef18ceadc4" target="_top" xlink:title="Fun4AllOscarInputManager\l::ConvertFromOscar">
<polygon fill="none" stroke="#000000" points="1158.5,-260.5 1158.5,-292.5 1312.5,-292.5 1312.5,-260.5 1158.5,-260.5"/>
<text text-anchor="start" x="1166.5" y="-279.5" font-family="FreeSans" font-size="10.00" fill="#000000">Fun4AllOscarInputManager</text>
<text text-anchor="middle" x="1235.5" y="-267.5" font-family="FreeSans" font-size="10.00" fill="#000000">::ConvertFromOscar</text>
</a>
</g>
</g>
<!-- Node12&#45;&gt;Node14 -->
<g id="edge14" class="edge">
<title>Node12&#45;&gt;Node14</title>
<path fill="none" stroke="#191970" d="M1089.3585,-274.6304C1111.9812,-274.9198 1136.1342,-275.2288 1158.155,-275.5105"/>
<polygon fill="#191970" stroke="#191970" points="1089.1291,-271.1273 1079.0851,-274.499 1089.0395,-278.1267 1089.1291,-271.1273"/>
</g>
<!-- Node16 -->
<g id="node16" class="node">
<title>Node16</title>
<g id="a_node16"><a xlink:href="../../dd/da8/classPHPythia6.html#a7a70bdd1c198a83ed143d3e2c4516d0d" target="_top" xlink:title="PHPythia6::process\l_event">
<polygon fill="none" stroke="#000000" points="1179,-401.5 1179,-433.5 1292,-433.5 1292,-401.5 1179,-401.5"/>
<text text-anchor="start" x="1187" y="-420.5" font-family="FreeSans" font-size="10.00" fill="#000000">PHPythia6::process</text>
<text text-anchor="middle" x="1235.5" y="-408.5" font-family="FreeSans" font-size="10.00" fill="#000000">_event</text>
</a>
</g>
</g>
<!-- Node12&#45;&gt;Node16 -->
<g id="edge16" class="edge">
<title>Node12&#45;&gt;Node16</title>
<path fill="none" stroke="#191970" d="M1088.2906,-286.832C1095.429,-290.1976 1102.1384,-294.3598 1108,-299.5 1141.324,-328.7225 1111.0935,-362.8082 1144,-392.5 1153.6588,-401.2152 1166.0698,-406.9322 1178.6147,-410.6716"/>
<polygon fill="#191970" stroke="#191970" points="1089.6277,-283.5975 1079.0508,-282.9815 1086.935,-290.0589 1089.6277,-283.5975"/>
</g>
<!-- Node12&#45;&gt;Node17 -->
<g id="edge17" class="edge">
<title>Node12&#45;&gt;Node17</title>
<path fill="none" stroke="#191970" d="M1089.16,-255.4544C1119.2125,-249.303 1151.9865,-242.5945 1178.8859,-237.0884"/>
<polygon fill="#191970" stroke="#191970" points="1088.1801,-252.0824 1079.0851,-257.5167 1089.5839,-258.9402 1088.1801,-252.0824"/>
</g>
<!-- Node12&#45;&gt;Node18 -->
<g id="edge18" class="edge">
<title>Node12&#45;&gt;Node18</title>
<path fill="none" stroke="#191970" d="M1036.1892,-252.302C1064.458,-236.0792 1105.6353,-214.2266 1144,-200.5 1155.0232,-196.556 1167.0837,-193.2484 1178.7259,-190.5313"/>
<polygon fill="#191970" stroke="#191970" points="1034.3767,-249.3072 1027.4846,-257.3539 1037.8904,-255.3615 1034.3767,-249.3072"/>
</g>
<!-- Node19 -->
<g id="node19" class="node">
<title>Node19</title>
<g id="a_node19"><a xlink:href="../../d3/d49/classReadEICFiles.html#a49106bf9561329777334154092890af2" target="_top" xlink:title="ReadEICFiles::process\l_event">
<polygon fill="none" stroke="#000000" points="1172.5,-350.5 1172.5,-382.5 1298.5,-382.5 1298.5,-350.5 1172.5,-350.5"/>
<text text-anchor="start" x="1180.5" y="-369.5" font-family="FreeSans" font-size="10.00" fill="#000000">ReadEICFiles::process</text>
<text text-anchor="middle" x="1235.5" y="-357.5" font-family="FreeSans" font-size="10.00" fill="#000000">_event</text>
</a>
</g>
</g>
<!-- Node12&#45;&gt;Node19 -->
<g id="edge19" class="edge">
<title>Node12&#45;&gt;Node19</title>
<path fill="none" stroke="#191970" d="M1088.4473,-289.8039C1095.2841,-292.5483 1101.8945,-295.7544 1108,-299.5 1128.9562,-312.3562 1123.2281,-328.3481 1144,-341.5 1152.6263,-346.9618 1162.4411,-351.2444 1172.3628,-354.5986"/>
<polygon fill="#191970" stroke="#191970" points="1089.604,-286.5002 1079.0104,-286.3405 1087.1922,-293.0716 1089.604,-286.5002"/>
</g>
<!-- Node15 -->
<g id="node15" class="node">
<title>Node15</title>
<g id="a_node15"><a xlink:href="../../db/d1f/classFun4AllOscarInputManager.html#a4be602bd8c9fe73f9dcc81c8871784a6" target="_top" xlink:title="Fun4AllOscarInputManager::run">
<polygon fill="none" stroke="#000000" points="1363,-266.5 1363,-286.5 1539,-286.5 1539,-266.5 1363,-266.5"/>
<text text-anchor="middle" x="1451" y="-273.5" font-family="FreeSans" font-size="10.00" fill="#000000">Fun4AllOscarInputManager::run</text>
</a>
</g>
</g>
<!-- Node14&#45;&gt;Node15 -->
<g id="edge15" class="edge">
<title>Node14&#45;&gt;Node15</title>
<path fill="none" stroke="#191970" d="M1322.7391,-276.5C1336.0061,-276.5 1349.7039,-276.5 1362.9873,-276.5"/>
<polygon fill="#191970" stroke="#191970" points="1322.6918,-273.0001 1312.6918,-276.5 1322.6917,-280.0001 1322.6918,-273.0001"/>
</g>
<!-- Node24&#45;&gt;Node10 -->
<g id="edge27" class="edge">
<title>Node24&#45;&gt;Node10</title>
<path fill="none" stroke="#191970" d="M655.6499,-66.0598C656.4701,-66.853 657.257,-67.667 658,-68.5 691.8179,-106.4154 714.1429,-164.3165 722.1747,-187.4457"/>
<polygon fill="#191970" stroke="#191970" points="657.6131,-63.1442 647.6542,-59.5288 653.1849,-68.5656 657.6131,-63.1442"/>
</g>
<!-- Node26&#45;&gt;Node9 -->
<g id="edge48" class="edge">
<title>Node26&#45;&gt;Node9</title>
<path fill="none" stroke="#191970" d="M310.5571,-158.473C364.5612,-150.729 466.8565,-136.0602 514.663,-129.2049"/>
<polygon fill="#191970" stroke="#191970" points="309.8325,-155.041 300.4306,-159.9251 310.8261,-161.9701 309.8325,-155.041"/>
</g>
<!-- Node27 -->
<g id="node27" class="node">
<title>Node27</title>
<g id="a_node27"><a xlink:href="../../d6/dcf/pythia6425mod_8f.html#aa9cb6f1467302508501201a0e38959d1" target="_top" xlink:title="pymaxi">
<polygon fill="none" stroke="#000000" points="336,-269.5 336,-289.5 389,-289.5 389,-269.5 336,-269.5"/>
<text text-anchor="middle" x="362.5" y="-276.5" font-family="FreeSans" font-size="10.00" fill="#000000">pymaxi</text>
</a>
</g>
</g>
<!-- Node26&#45;&gt;Node27 -->
<g id="edge30" class="edge">
<title>Node26&#45;&gt;Node27</title>
<path fill="none" stroke="#191970" d="M284.6718,-182.8253C295.1369,-203.5678 313.7173,-236.7349 336,-260.5 339.0202,-263.7211 342.6601,-266.7433 346.2617,-269.3886"/>
<polygon fill="#191970" stroke="#191970" points="287.7571,-181.1677 280.2056,-173.7363 281.4746,-184.2549 287.7571,-181.1677"/>
</g>
<!-- Node30 -->
<g id="node30" class="node">
<title>Node30</title>
<g id="a_node30"><a xlink:href="../../d6/dcf/pythia6425mod_8f.html#a5c7e2372fde451d6f2253ef044e01364" target="_top" xlink:title="pymign">
<polygon fill="none" stroke="#000000" points="425,-193.5 425,-213.5 479,-213.5 479,-193.5 425,-193.5"/>
<text text-anchor="middle" x="452" y="-200.5" font-family="FreeSans" font-size="10.00" fill="#000000">pymign</text>
</a>
</g>
</g>
<!-- Node26&#45;&gt;Node30 -->
<g id="edge35" class="edge">
<title>Node26&#45;&gt;Node30</title>
<path fill="none" stroke="#191970" d="M310.163,-171.5645C318.6138,-173.5187 327.63,-175.5936 336,-177.5 366.386,-184.421 401.2842,-192.2232 424.7999,-197.4591"/>
<polygon fill="#191970" stroke="#191970" points="310.7489,-168.1076 300.217,-169.2603 309.169,-174.927 310.7489,-168.1076"/>
</g>
<!-- Node31 -->
<g id="node31" class="node">
<title>Node31</title>
<g id="a_node31"><a xlink:href="../../d6/dcf/pythia6425mod_8f.html#a4ae1a9148440832c122abdaedf3555a7" target="_top" xlink:title="pymult">
<polygon fill="none" stroke="#000000" points="426,-154.5 426,-174.5 478,-174.5 478,-154.5 426,-154.5"/>
<text text-anchor="middle" x="452" y="-161.5" font-family="FreeSans" font-size="10.00" fill="#000000">pymult</text>
</a>
</g>
</g>
<!-- Node26&#45;&gt;Node31 -->
<g id="edge39" class="edge">
<title>Node26&#45;&gt;Node31</title>
<path fill="none" stroke="#191970" d="M310.4419,-163.698C344.448,-163.8906 395.343,-164.179 425.945,-164.3524"/>
<polygon fill="#191970" stroke="#191970" points="310.0613,-160.1959 300.0416,-163.639 310.0215,-167.1957 310.0613,-160.1959"/>
</g>
<!-- Node32 -->
<g id="node32" class="node">
<title>Node32</title>
<g id="a_node32"><a xlink:href="../../d6/dcf/pythia6425mod_8f.html#af1b5061d1d80462745ef6b9ab52500f2" target="_top" xlink:title="pyptmi">
<polygon fill="none" stroke="#000000" points="337,-38.5 337,-58.5 388,-58.5 388,-38.5 337,-38.5"/>
<text text-anchor="middle" x="362.5" y="-45.5" font-family="FreeSans" font-size="10.00" fill="#000000">pyptmi</text>
</a>
</g>
</g>
<!-- Node26&#45;&gt;Node32 -->
<g id="edge43" class="edge">
<title>Node26&#45;&gt;Node32</title>
<path fill="none" stroke="#191970" d="M289.3892,-145.1408C307.9763,-120.5716 340.2932,-77.8539 354.9209,-58.5184"/>
<polygon fill="#191970" stroke="#191970" points="286.4627,-143.2079 283.2207,-153.2945 292.0452,-147.4312 286.4627,-143.2079"/>
</g>
<!-- Node28 -->
<g id="node28" class="node">
<title>Node28</title>
<g id="a_node28"><a xlink:href="../../d6/dcf/pythia6425mod_8f.html#aac00ac3ccd923c2c3dc37e2b89a9f025" target="_top" xlink:title="pyinit">
<polygon fill="none" stroke="#000000" points="518,-270.5 518,-290.5 563,-290.5 563,-270.5 518,-270.5"/>
<text text-anchor="middle" x="540.5" y="-277.5" font-family="FreeSans" font-size="10.00" fill="#000000">pyinit</text>
</a>
</g>
</g>
<!-- Node27&#45;&gt;Node28 -->
<g id="edge31" class="edge">
<title>Node27&#45;&gt;Node28</title>
<path fill="none" stroke="#191970" d="M399.1725,-279.706C434.8734,-279.9066 487.9946,-280.205 517.9075,-280.3731"/>
<polygon fill="#191970" stroke="#191970" points="399.1679,-276.206 389.1484,-279.6497 399.1285,-283.2059 399.1679,-276.206"/>
</g>
<!-- Node28&#45;&gt;Node23 -->
<g id="edge34" class="edge">
<title>Node28&#45;&gt;Node23</title>
<path fill="none" stroke="#191970" d="M573.4224,-277.7276C631.3748,-272.8474 750.2951,-262.833 801.3461,-258.534"/>
<polygon fill="#191970" stroke="#191970" points="573.012,-274.2497 563.341,-278.5765 573.5994,-281.225 573.012,-274.2497"/>
</g>
<!-- Node29 -->
<g id="node29" class="node">
<title>Node29</title>
<g id="a_node29"><a xlink:href="../../d3/dd5/jewel-2_82_80_8f.html#a2cba90a4cdaaf1d5de1cf1bfe9afaa2e" target="_top" xlink:title="initpythia">
<polygon fill="none" stroke="#000000" points="694,-308.5 694,-328.5 757,-328.5 757,-308.5 694,-308.5"/>
<text text-anchor="middle" x="725.5" y="-315.5" font-family="FreeSans" font-size="10.00" fill="#000000">initpythia</text>
</a>
</g>
</g>
<!-- Node28&#45;&gt;Node29 -->
<g id="edge32" class="edge">
<title>Node28&#45;&gt;Node29</title>
<path fill="none" stroke="#191970" d="M573.3037,-287.4886C582.5782,-289.4496 592.6826,-291.5722 602,-293.5 633.1692,-299.949 668.8023,-307.1431 693.7564,-312.1521"/>
<polygon fill="#191970" stroke="#191970" points="573.7797,-284.0118 563.2712,-285.3621 572.3281,-290.8596 573.7797,-284.0118"/>
</g>
<!-- Node29&#45;&gt;Node20 -->
<g id="edge33" class="edge">
<title>Node29&#45;&gt;Node20</title>
<path fill="none" stroke="#191970" d="M767.269,-318.5C826.6794,-318.5 933.4478,-318.5 979.2094,-318.5"/>
<polygon fill="#191970" stroke="#191970" points="767.1034,-315.0001 757.1034,-318.5 767.1033,-322.0001 767.1034,-315.0001"/>
</g>
<!-- Node30&#45;&gt;Node9 -->
<g id="edge38" class="edge">
<title>Node30&#45;&gt;Node9</title>
<path fill="none" stroke="#191970" d="M475.4002,-187.3695C476.6314,-186.4166 477.8386,-185.4565 479,-184.5 498.4164,-168.5099 519.1656,-147.7389 530.9152,-135.5879"/>
<polygon fill="#191970" stroke="#191970" points="473.1323,-184.6928 467.1536,-193.4395 477.2819,-190.3303 473.1323,-184.6928"/>
</g>
<!-- Node30&#45;&gt;Node10 -->
<g id="edge36" class="edge">
<title>Node30&#45;&gt;Node10</title>
<path fill="none" stroke="#191970" d="M489.4563,-202.6783C545.6499,-201.4455 650.3756,-199.1481 699.1904,-198.0772"/>
<polygon fill="#191970" stroke="#191970" points="489.1449,-199.1842 479.2241,-202.9028 489.2985,-206.1825 489.1449,-199.1842"/>
</g>
<!-- Node30&#45;&gt;Node28 -->
<g id="edge37" class="edge">
<title>Node30&#45;&gt;Node28</title>
<path fill="none" stroke="#191970" d="M471.5034,-220.469C489.0854,-235.7664 514.3501,-257.7481 528.9273,-270.4311"/>
<polygon fill="#191970" stroke="#191970" points="473.4114,-217.4899 463.5698,-213.5664 468.8167,-222.7708 473.4114,-217.4899"/>
</g>
<!-- Node31&#45;&gt;Node9 -->
<g id="edge42" class="edge">
<title>Node31&#45;&gt;Node9</title>
<path fill="none" stroke="#191970" d="M484.2121,-150.3048C495.3444,-145.3991 507.5767,-140.0086 517.7863,-135.5094"/>
<polygon fill="#191970" stroke="#191970" points="482.5304,-147.2211 474.7909,-154.4565 485.3532,-153.6267 482.5304,-147.2211"/>
</g>
<!-- Node31&#45;&gt;Node10 -->
<g id="edge40" class="edge">
<title>Node31&#45;&gt;Node10</title>
<path fill="none" stroke="#191970" d="M488.3992,-168.8919C544.3898,-175.6476 650.3045,-188.4271 699.3551,-194.3454"/>
<polygon fill="#191970" stroke="#191970" points="488.5716,-165.3874 478.2243,-167.6642 487.733,-172.337 488.5716,-165.3874"/>
</g>
<!-- Node31&#45;&gt;Node28 -->
<g id="edge41" class="edge">
<title>Node31&#45;&gt;Node28</title>
<path fill="none" stroke="#191970" d="M475.6804,-181.2088C476.8396,-182.2815 477.9545,-183.3812 479,-184.5 504.8111,-212.123 526.3415,-251.9663 535.611,-270.4184"/>
<polygon fill="#191970" stroke="#191970" points="477.6015,-178.257 467.6562,-174.6045 473.1531,-183.6618 477.6015,-178.257"/>
</g>
<!-- Node33 -->
<g id="node33" class="node">
<title>Node33</title>
<g id="a_node33"><a xlink:href="../../d6/dcf/pythia6425mod_8f.html#a15448b25c4eb515f33e35f86f376af68" target="_top" xlink:title="pyevol">
<polygon fill="none" stroke="#000000" points="515.5,-39.5 515.5,-59.5 565.5,-59.5 565.5,-39.5 515.5,-39.5"/>
<text text-anchor="middle" x="540.5" y="-46.5" font-family="FreeSans" font-size="10.00" fill="#000000">pyevol</text>
</a>
</g>
</g>
<!-- Node32&#45;&gt;Node33 -->
<g id="edge44" class="edge">
<title>Node32&#45;&gt;Node33</title>
<path fill="none" stroke="#191970" d="M398.182,-48.7005C432.8904,-48.8955 484.7333,-49.1867 515.3318,-49.3586"/>
<polygon fill="#191970" stroke="#191970" points="398.0226,-45.1996 388.0031,-48.6433 397.9832,-52.1995 398.0226,-45.1996"/>
</g>
<!-- Node34 -->
<g id="node34" class="node">
<title>Node34</title>
<g id="a_node34"><a xlink:href="../../d6/dcf/pythia6425mod_8f.html#ac00de061be805868aa61d626239f5fa9" target="_top" xlink:title="pyptis">
<polygon fill="none" stroke="#000000" points="428.5,-.5 428.5,-20.5 475.5,-20.5 475.5,-.5 428.5,-.5"/>
<text text-anchor="middle" x="452" y="-7.5" font-family="FreeSans" font-size="10.00" fill="#000000">pyptis</text>
</a>
</g>
</g>
<!-- Node32&#45;&gt;Node34 -->
<g id="edge46" class="edge">
<title>Node32&#45;&gt;Node34</title>
<path fill="none" stroke="#191970" d="M395.9999,-34.2766C406.7276,-29.7218 418.3778,-24.7753 428.2598,-20.5796"/>
<polygon fill="#191970" stroke="#191970" points="394.3212,-31.1869 386.4844,-38.3167 397.0569,-37.6301 394.3212,-31.1869"/>
</g>
<!-- Node33&#45;&gt;Node24 -->
<g id="edge45" class="edge">
<title>Node33&#45;&gt;Node24</title>
<path fill="none" stroke="#191970" d="M575.9979,-49.5C584.5336,-49.5 593.5389,-49.5 601.697,-49.5"/>
<polygon fill="#191970" stroke="#191970" points="575.9077,-46.0001 565.9077,-49.5 575.9077,-53.0001 575.9077,-46.0001"/>
</g>
<!-- Node34&#45;&gt;Node33 -->
<g id="edge47" class="edge">
<title>Node34&#45;&gt;Node33</title>
<path fill="none" stroke="#191970" d="M484.2121,-24.6952C495.3444,-29.6009 507.5767,-34.9914 517.7863,-39.4906"/>
<polygon fill="#191970" stroke="#191970" points="485.3532,-21.3733 474.7909,-20.5435 482.5304,-27.7789 485.3532,-21.3733"/>
</g>
<!-- Node35&#45;&gt;Node10 -->
<g id="edge50" class="edge">
<title>Node35&#45;&gt;Node10</title>
<path fill="none" stroke="#191970" d="M398.4377,-238.8602C454.2721,-235.9433 565.0999,-228.6761 658,-213.5 671.7877,-211.2476 686.9395,-207.7513 699.3883,-204.6009"/>
<polygon fill="#191970" stroke="#191970" points="398.1574,-235.3698 388.3471,-239.3709 398.5113,-242.3608 398.1574,-235.3698"/>
</g>
<!-- Node35&#45;&gt;Node30 -->
<g id="edge51" class="edge">
<title>Node35&#45;&gt;Node30</title>
<path fill="none" stroke="#191970" d="M396.2161,-226.5615C406.6363,-222.2537 417.9078,-217.594 427.5733,-213.5982"/>
<polygon fill="#191970" stroke="#191970" points="394.8605,-223.3345 386.9563,-230.3896 397.5349,-229.8035 394.8605,-223.3345"/>
</g>
</g>
</svg>
