<?xml version="1.0" encoding="UTF-8" standalone="no"?>
<!DOCTYPE svg PUBLIC "-//W3C//DTD SVG 1.1//EN"
 "http://www.w3.org/Graphics/SVG/1.1/DTD/svg11.dtd">
<!-- Generated by graphviz version 2.40.1 (20161225.0304)
 -->
<!-- Title: PHActsTracks::process_event Pages: 1 -->
<svg width="752pt" height="582pt"
 viewBox="0.00 0.00 752.00 582.00" xmlns="http://www.w3.org/2000/svg" xmlns:xlink="http://www.w3.org/1999/xlink">
<g id="graph0" class="graph" transform="scale(1 1) rotate(0) translate(4 578)">
<title>PHActsTracks::process_event</title>
<!-- Node1 -->
<g id="node1" class="node">
<title>Node1</title>
<polygon fill="#bfbfbf" stroke="#000000" points="0,-270.5 0,-302.5 128,-302.5 128,-270.5 0,-270.5"/>
<text text-anchor="start" x="8" y="-289.5" font-family="FreeSans" font-size="10.00" fill="#000000">PHActsTracks::process</text>
<text text-anchor="middle" x="64" y="-277.5" font-family="FreeSans" font-size="10.00" fill="#000000">_event</text>
</g>
<!-- Node2 -->
<g id="node2" class="node">
<title>Node2</title>
<g id="a_node2"><a xlink:href="../../d7/d8b/classSvtxTrackMap.html#a8c16bb47fdace6d5516d1803ffe54706" target="_top" xlink:title="SvtxTrackMap::begin">
<polygon fill="none" stroke="#000000" points="187.5,-553.5 187.5,-573.5 308.5,-573.5 308.5,-553.5 187.5,-553.5"/>
<text text-anchor="middle" x="248" y="-560.5" font-family="FreeSans" font-size="10.00" fill="#000000">SvtxTrackMap::begin</text>
</a>
</g>
</g>
<!-- Node1&#45;&gt;Node2 -->
<g id="edge1" class="edge">
<title>Node1&#45;&gt;Node2</title>
<path fill="none" stroke="#191970" d="M65.1866,-302.7647C69.4322,-348.4591 87.9739,-478.9233 164,-544.5 168.1749,-548.1011 172.89,-551.059 177.903,-553.4843"/>
<polygon fill="#191970" stroke="#191970" points="176.6156,-556.7392 187.1957,-557.2984 179.2736,-550.2634 176.6156,-556.7392"/>
</g>
<!-- Node3 -->
<g id="node3" class="node">
<title>Node3</title>
<g id="a_node3"><a xlink:href="../../d2/db8/classSvtxTrack.html#a6d8dace95bd6d93aa08d66c5e2c3ad85" target="_top" xlink:title="SvtxTrack::begin_cluster_keys">
<polygon fill="none" stroke="#000000" points="164,-514.5 164,-534.5 332,-534.5 332,-514.5 164,-514.5"/>
<text text-anchor="middle" x="248" y="-521.5" font-family="FreeSans" font-size="10.00" fill="#000000">SvtxTrack::begin_cluster_keys</text>
</a>
</g>
</g>
<!-- Node1&#45;&gt;Node3 -->
<g id="edge2" class="edge">
<title>Node1&#45;&gt;Node3</title>
<path fill="none" stroke="#191970" d="M66.4081,-302.6777C73.3815,-343.5344 97.5067,-451.4596 164,-505.5 165.7912,-506.9558 167.6719,-508.305 169.6246,-509.5554"/>
<polygon fill="#191970" stroke="#191970" points="168.1369,-512.7302 178.595,-514.4272 171.4778,-506.5789 168.1369,-512.7302"/>
</g>
<!-- Node4 -->
<g id="node4" class="node">
<title>Node4</title>
<g id="a_node4"><a xlink:href="../../d7/d8b/classSvtxTrackMap.html#a1c7ae993700819b7d0a8e3f3d74fa99c" target="_top" xlink:title="SvtxTrackMap::end">
<polygon fill="none" stroke="#000000" points="192,-475.5 192,-495.5 304,-495.5 304,-475.5 192,-475.5"/>
<text text-anchor="middle" x="248" y="-482.5" font-family="FreeSans" font-size="10.00" fill="#000000">SvtxTrackMap::end</text>
</a>
</g>
</g>
<!-- Node1&#45;&gt;Node4 -->
<g id="edge3" class="edge">
<title>Node1&#45;&gt;Node4</title>
<path fill="none" stroke="#191970" d="M68.1228,-302.6837C78.0771,-338.3078 106.9267,-423.7332 164,-466.5 169.4666,-470.5963 175.6574,-473.8357 182.1399,-476.3935"/>
<polygon fill="#191970" stroke="#191970" points="181.2013,-479.771 191.7957,-479.6737 183.453,-473.143 181.2013,-479.771"/>
</g>
<!-- Node5 -->
<g id="node5" class="node">
<title>Node5</title>
<g id="a_node5"><a xlink:href="../../d2/db8/classSvtxTrack.html#ac0e8c2214fa9f988c00a561ed22aa085" target="_top" xlink:title="SvtxTrack::end_cluster_keys">
<polygon fill="none" stroke="#000000" points="169,-436.5 169,-456.5 327,-456.5 327,-436.5 169,-436.5"/>
<text text-anchor="middle" x="248" y="-443.5" font-family="FreeSans" font-size="10.00" fill="#000000">SvtxTrack::end_cluster_keys</text>
</a>
</g>
</g>
<!-- Node1&#45;&gt;Node5 -->
<g id="edge4" class="edge">
<title>Node1&#45;&gt;Node5</title>
<path fill="none" stroke="#191970" d="M71.687,-302.8999C85.864,-331.3571 118.8559,-389.8632 164,-421.5 170.4833,-426.0435 177.8011,-429.7728 185.3465,-432.8312"/>
<polygon fill="#191970" stroke="#191970" points="184.3862,-436.2067 194.9799,-436.3571 186.7922,-429.6332 184.3862,-436.2067"/>
</g>
<!-- Node6 -->
<g id="node6" class="node">
<title>Node6</title>
<g id="a_node6"><a xlink:href="../../d2/db8/classSvtxTrack.html#ab6a08270648338e6acee123ddbeea833" target="_top" xlink:title="SvtxTrack::get_charge">
<polygon fill="none" stroke="#000000" points="370.5,-477.5 370.5,-497.5 498.5,-497.5 498.5,-477.5 370.5,-477.5"/>
<text text-anchor="middle" x="434.5" y="-484.5" font-family="FreeSans" font-size="10.00" fill="#000000">SvtxTrack::get_charge</text>
</a>
</g>
</g>
<!-- Node1&#45;&gt;Node6 -->
<g id="edge5" class="edge">
<title>Node1&#45;&gt;Node6</title>
<path fill="none" stroke="#191970" d="M75.9815,-302.7056C93.0585,-324.6205 126.5118,-363.3859 164,-384.5 231.1549,-422.3229 266.3093,-387.1878 332,-427.5 352.6683,-440.1834 347.5095,-455.5312 368,-468.5 370.9296,-470.3542 374.0443,-472.0318 377.2652,-473.5491"/>
<polygon fill="#191970" stroke="#191970" points="375.9802,-476.8053 386.5576,-477.4142 378.6686,-470.3421 375.9802,-476.8053"/>
</g>
<!-- Node7 -->
<g id="node7" class="node">
<title>Node7</title>
<g id="a_node7"><a xlink:href="../../d2/db8/classSvtxTrack.html#a79f3af39b753ecee85dc1d4e3db08cdd" target="_top" xlink:title="SvtxTrack::get_px">
<polygon fill="none" stroke="#000000" points="381.5,-438.5 381.5,-458.5 487.5,-458.5 487.5,-438.5 381.5,-438.5"/>
<text text-anchor="middle" x="434.5" y="-445.5" font-family="FreeSans" font-size="10.00" fill="#000000">SvtxTrack::get_px</text>
</a>
</g>
</g>
<!-- Node1&#45;&gt;Node7 -->
<g id="edge6" class="edge">
<title>Node1&#45;&gt;Node7</title>
<path fill="none" stroke="#191970" d="M86.4398,-302.7258C106.0812,-316.294 135.8068,-335.3301 164,-347.5 235.0759,-378.1807 265.0625,-354.6096 332,-393.5 351.565,-404.8672 348.4981,-418.025 368,-429.5 371.2436,-431.4086 374.6899,-433.1346 378.2405,-434.6942"/>
<polygon fill="#191970" stroke="#191970" points="377.2277,-438.0564 387.8154,-438.4448 379.7808,-431.5386 377.2277,-438.0564"/>
</g>
<!-- Node8 -->
<g id="node8" class="node">
<title>Node8</title>
<g id="a_node8"><a xlink:href="../../d2/db8/classSvtxTrack.html#a5a9164fc95756dd9780755a55327fec5" target="_top" xlink:title="SvtxTrack::get_py">
<polygon fill="none" stroke="#000000" points="381.5,-399.5 381.5,-419.5 487.5,-419.5 487.5,-399.5 381.5,-399.5"/>
<text text-anchor="middle" x="434.5" y="-406.5" font-family="FreeSans" font-size="10.00" fill="#000000">SvtxTrack::get_py</text>
</a>
</g>
</g>
<!-- Node1&#45;&gt;Node8 -->
<g id="edge7" class="edge">
<title>Node1&#45;&gt;Node8</title>
<path fill="none" stroke="#191970" d="M125.6032,-302.556C138.2981,-305.8537 151.5807,-309.2961 164,-312.5 238.6303,-331.7528 264.7699,-317.8109 332,-355.5 351.4653,-366.4122 348.6878,-379.319 368,-390.5 371.4096,-392.474 375.0377,-394.2542 378.7722,-395.8577"/>
<polygon fill="#191970" stroke="#191970" points="377.6207,-399.1648 388.2106,-399.4896 380.1347,-392.6317 377.6207,-399.1648"/>
</g>
<!-- Node9 -->
<g id="node9" class="node">
<title>Node9</title>
<g id="a_node9"><a xlink:href="../../d2/db8/classSvtxTrack.html#a826b1ab6d05d45e5148c4645befe4def" target="_top" xlink:title="SvtxTrack::get_pz">
<polygon fill="none" stroke="#000000" points="382,-231.5 382,-251.5 487,-251.5 487,-231.5 382,-231.5"/>
<text text-anchor="middle" x="434.5" y="-238.5" font-family="FreeSans" font-size="10.00" fill="#000000">SvtxTrack::get_pz</text>
</a>
</g>
</g>
<!-- Node1&#45;&gt;Node9 -->
<g id="edge8" class="edge">
<title>Node1&#45;&gt;Node9</title>
<path fill="none" stroke="#191970" d="M121.0271,-270.4556C134.9872,-267.0246 149.9535,-263.758 164,-261.5 234.5401,-250.1604 316.4801,-245.2369 371.5303,-243.1074"/>
<polygon fill="#191970" stroke="#191970" points="371.9639,-246.5939 381.8288,-242.7295 371.7071,-239.5987 371.9639,-246.5939"/>
</g>
<!-- Node10 -->
<g id="node10" class="node">
<title>Node10</title>
<g id="a_node10"><a xlink:href="../../d2/db8/classSvtxTrack.html#af2317becf2120fcad5cefaa61a01407e" target="_top" xlink:title="SvtxTrack::get_x">
<polygon fill="none" stroke="#000000" points="385,-192.5 385,-212.5 484,-212.5 484,-192.5 385,-192.5"/>
<text text-anchor="middle" x="434.5" y="-199.5" font-family="FreeSans" font-size="10.00" fill="#000000">SvtxTrack::get_x</text>
</a>
</g>
</g>
<!-- Node1&#45;&gt;Node10 -->
<g id="edge9" class="edge">
<title>Node1&#45;&gt;Node10</title>
<path fill="none" stroke="#191970" d="M92.8797,-270.4759C112.3976,-260.3411 139.0616,-247.8159 164,-240.5 234.6842,-219.7641 319.1795,-210.2016 374.7022,-205.8875"/>
<polygon fill="#191970" stroke="#191970" points="375.0099,-209.3744 384.7225,-205.1415 374.4902,-202.3937 375.0099,-209.3744"/>
</g>
<!-- Node11 -->
<g id="node11" class="node">
<title>Node11</title>
<g id="a_node11"><a xlink:href="../../d2/db8/classSvtxTrack.html#ac4bf3bd4ecaeff1ca06c48942a8b9236" target="_top" xlink:title="SvtxTrack::get_y">
<polygon fill="none" stroke="#000000" points="385,-153.5 385,-173.5 484,-173.5 484,-153.5 385,-153.5"/>
<text text-anchor="middle" x="434.5" y="-160.5" font-family="FreeSans" font-size="10.00" fill="#000000">SvtxTrack::get_y</text>
</a>
</g>
</g>
<!-- Node1&#45;&gt;Node11 -->
<g id="edge10" class="edge">
<title>Node1&#45;&gt;Node11</title>
<path fill="none" stroke="#191970" d="M78.5189,-270.4313C96.5745,-251.5647 129.2799,-220.8979 164,-205.5 232.0958,-175.3005 318.2114,-166.3369 374.7521,-163.9259"/>
<polygon fill="#191970" stroke="#191970" points="375.0906,-167.4159 384.9543,-163.5483 374.8317,-160.4207 375.0906,-167.4159"/>
</g>
<!-- Node12 -->
<g id="node12" class="node">
<title>Node12</title>
<g id="a_node12"><a xlink:href="../../d2/db8/classSvtxTrack.html#aaaa435dd9d41dbe836f0608712ca12db" target="_top" xlink:title="SvtxTrack::get_z">
<polygon fill="none" stroke="#000000" points="385.5,-114.5 385.5,-134.5 483.5,-134.5 483.5,-114.5 385.5,-114.5"/>
<text text-anchor="middle" x="434.5" y="-121.5" font-family="FreeSans" font-size="10.00" fill="#000000">SvtxTrack::get_z</text>
</a>
</g>
</g>
<!-- Node1&#45;&gt;Node12 -->
<g id="edge11" class="edge">
<title>Node1&#45;&gt;Node12</title>
<path fill="none" stroke="#191970" d="M71.8454,-270.3295C86.0422,-242.999 118.7725,-188.147 164,-162.5 229.4752,-125.3713 317.7415,-119.675 375.3692,-120.7072"/>
<polygon fill="#191970" stroke="#191970" points="375.3213,-124.207 385.4064,-120.9605 375.498,-117.2092 375.3213,-124.207"/>
</g>
<!-- Node13 -->
<g id="node13" class="node">
<title>Node13</title>
<g id="a_node13"><a xlink:href="../../d1/d1e/classPHActsTracks.html#a81b4c6b7f62fb0c22ae19da535230dbd" target="_top" xlink:title="Get nodes off node tree needed to execute module.">
<polygon fill="none" stroke="#000000" points="179,-78.5 179,-98.5 317,-98.5 317,-78.5 179,-78.5"/>
<text text-anchor="middle" x="248" y="-85.5" font-family="FreeSans" font-size="10.00" fill="#000000">PHActsTracks::getNodes</text>
</a>
</g>
</g>
<!-- Node1&#45;&gt;Node13 -->
<g id="edge12" class="edge">
<title>Node1&#45;&gt;Node13</title>
<path fill="none" stroke="#191970" d="M68.7691,-270.435C79.7442,-236.2682 110.074,-156.0459 164,-113.5 169.6666,-109.0293 176.1174,-105.357 182.8672,-102.3407"/>
<polygon fill="#191970" stroke="#191970" points="184.215,-105.5714 192.2114,-98.621 181.626,-99.0678 184.215,-105.5714"/>
</g>
<!-- Node14 -->
<g id="node14" class="node">
<title>Node14</title>
<g id="a_node14"><a xlink:href="../../d2/db8/classSvtxTrack.html#a62d6cacd3af53d9dfea12d4c1468461a" target="_top" xlink:title="SvtxTrack::identify">
<polygon fill="none" stroke="#000000" points="193,-39.5 193,-59.5 303,-59.5 303,-39.5 193,-39.5"/>
<text text-anchor="middle" x="248" y="-46.5" font-family="FreeSans" font-size="10.00" fill="#000000">SvtxTrack::identify</text>
</a>
</g>
</g>
<!-- Node1&#45;&gt;Node14 -->
<g id="edge13" class="edge">
<title>Node1&#45;&gt;Node14</title>
<path fill="none" stroke="#191970" d="M66.4325,-270.3944C73.463,-229.7202 97.7112,-122.2789 164,-68.5 169.6677,-63.9019 176.228,-60.3665 183.1344,-57.6557"/>
<polygon fill="#191970" stroke="#191970" points="184.344,-60.9417 192.7155,-54.4479 182.1216,-54.3039 184.344,-60.9417"/>
</g>
<!-- Node15 -->
<g id="node15" class="node">
<title>Node15</title>
<g id="a_node15"><a xlink:href="../../da/dfe/classActsCovarianceRotater.html#a016b9639e412ef9de8824a4c9a7dabfd" target="_top" xlink:title="ActsCovarianceRotater\l::rotateSvtxTrackCovToActs">
<polygon fill="none" stroke="#000000" points="171.5,-270.5 171.5,-302.5 324.5,-302.5 324.5,-270.5 171.5,-270.5"/>
<text text-anchor="start" x="179.5" y="-289.5" font-family="FreeSans" font-size="10.00" fill="#000000">ActsCovarianceRotater</text>
<text text-anchor="middle" x="248" y="-277.5" font-family="FreeSans" font-size="10.00" fill="#000000">::rotateSvtxTrackCovToActs</text>
</a>
</g>
</g>
<!-- Node1&#45;&gt;Node15 -->
<g id="edge14" class="edge">
<title>Node1&#45;&gt;Node15</title>
<path fill="none" stroke="#191970" d="M128.096,-286.5C138.8159,-286.5 150.0942,-286.5 161.2684,-286.5"/>
<polygon fill="#191970" stroke="#191970" points="161.4823,-290.0001 171.4823,-286.5 161.4822,-283.0001 161.4823,-290.0001"/>
</g>
<!-- Node21 -->
<g id="node21" class="node">
<title>Node21</title>
<g id="a_node21"><a xlink:href="../../d5/dec/classFun4AllBase.html#a8a5c77a92bdac6bc043476e132379a40" target="_top" xlink:title="Gets the verbosity of this module.">
<polygon fill="none" stroke="#000000" points="182,-.5 182,-20.5 314,-20.5 314,-.5 182,-.5"/>
<text text-anchor="middle" x="248" y="-7.5" font-family="FreeSans" font-size="10.00" fill="#000000">Fun4AllBase::Verbosity</text>
</a>
</g>
</g>
<!-- Node1&#45;&gt;Node21 -->
<g id="edge28" class="edge">
<title>Node1&#45;&gt;Node21</title>
<path fill="none" stroke="#191970" d="M65.2081,-270.2967C69.5106,-224.775 88.1872,-94.8061 164,-29.5 166.6869,-27.1855 169.597,-25.1367 172.6659,-23.3243"/>
<polygon fill="#191970" stroke="#191970" points="174.3013,-26.4199 181.6814,-18.8183 171.1717,-20.1584 174.3013,-26.4199"/>
</g>
<!-- Node15&#45;&gt;Node6 -->
<g id="edge15" class="edge">
<title>Node15&#45;&gt;Node6</title>
<path fill="none" stroke="#191970" d="M262.5764,-302.7142C280.3541,-322.9876 310.6667,-359.2097 332,-393.5 351.5318,-424.8946 339.7391,-444.6581 368,-468.5 369.7523,-469.9783 371.6132,-471.3418 373.5566,-472.5994"/>
<polygon fill="#191970" stroke="#191970" points="372.067,-475.7731 382.5263,-477.4624 375.4034,-469.6193 372.067,-475.7731"/>
</g>
<!-- Node15&#45;&gt;Node7 -->
<g id="edge17" class="edge">
<title>Node15&#45;&gt;Node7</title>
<path fill="none" stroke="#191970" d="M272.8804,-302.5786C291.0329,-315.2652 315.2843,-334.3121 332,-355.5 354.6534,-384.2142 339.9831,-405.9897 368,-429.5 369.7562,-430.9737 371.6204,-432.3333 373.5666,-433.5875"/>
<polygon fill="#191970" stroke="#191970" points="372.0838,-436.7646 382.5454,-438.4397 375.4118,-430.6063 372.0838,-436.7646"/>
</g>
<!-- Node15&#45;&gt;Node8 -->
<g id="edge18" class="edge">
<title>Node15&#45;&gt;Node8</title>
<path fill="none" stroke="#191970" d="M308.9948,-302.62C317.3244,-306.5761 325.3002,-311.4668 332,-317.5 358.8821,-341.7074 340.2265,-367.3209 368,-390.5 369.7602,-391.969 371.6277,-393.3245 373.5768,-394.5754"/>
<polygon fill="#191970" stroke="#191970" points="372.101,-397.7559 382.5649,-399.4164 375.4204,-391.593 372.101,-397.7559"/>
</g>
<!-- Node15&#45;&gt;Node9 -->
<g id="edge19" class="edge">
<title>Node15&#45;&gt;Node9</title>
<path fill="none" stroke="#191970" d="M314.5409,-270.4445C337.1178,-264.997 361.9759,-258.9991 383.1806,-253.8827"/>
<polygon fill="#191970" stroke="#191970" points="384.0566,-257.2718 392.9567,-251.5239 382.4147,-250.4671 384.0566,-257.2718"/>
</g>
<!-- Node15&#45;&gt;Node10 -->
<g id="edge20" class="edge">
<title>Node15&#45;&gt;Node10</title>
<path fill="none" stroke="#191970" d="M274.426,-270.4428C298.262,-256.4405 334.6021,-236.2694 368,-222.5 373.9247,-220.0573 380.2561,-217.7668 386.5699,-215.6704"/>
<polygon fill="#191970" stroke="#191970" points="387.9454,-218.9059 396.4161,-212.5422 385.8258,-212.2345 387.9454,-218.9059"/>
</g>
<!-- Node15&#45;&gt;Node11 -->
<g id="edge21" class="edge">
<title>Node15&#45;&gt;Node11</title>
<path fill="none" stroke="#191970" d="M262.6923,-270.1749C283.8605,-247.5929 325.1293,-206.961 368,-183.5 372.4468,-181.0665 377.2269,-178.8928 382.1107,-176.9593"/>
<polygon fill="#191970" stroke="#191970" points="383.3606,-180.2291 391.5702,-173.5318 380.976,-173.6478 383.3606,-180.2291"/>
</g>
<!-- Node15&#45;&gt;Node12 -->
<g id="edge22" class="edge">
<title>Node15&#45;&gt;Node12</title>
<path fill="none" stroke="#191970" d="M257.3111,-270.226C275.0264,-240.7188 316.4556,-178.3188 368,-144.5 371.3626,-142.2937 374.9781,-140.3229 378.7234,-138.5635"/>
<polygon fill="#191970" stroke="#191970" points="380.3397,-141.6821 388.2307,-134.6122 377.6532,-135.2181 380.3397,-141.6821"/>
</g>
<!-- Node16 -->
<g id="node16" class="node">
<title>Node16</title>
<g id="a_node16"><a xlink:href="../../d2/db8/classSvtxTrack.html#a8cc6a505cb329bcc0d3203877148b39f" target="_top" xlink:title="SvtxTrack::get_error">
<polygon fill="none" stroke="#000000" points="375.5,-360.5 375.5,-380.5 493.5,-380.5 493.5,-360.5 375.5,-360.5"/>
<text text-anchor="middle" x="434.5" y="-367.5" font-family="FreeSans" font-size="10.00" fill="#000000">SvtxTrack::get_error</text>
</a>
</g>
</g>
<!-- Node15&#45;&gt;Node16 -->
<g id="edge16" class="edge">
<title>Node15&#45;&gt;Node16</title>
<path fill="none" stroke="#191970" d="M299.3129,-302.5828C310.3805,-306.8302 321.8097,-311.8361 332,-317.5 349.7171,-327.3473 350.3128,-335.5991 368,-345.5 375.5809,-349.7436 384.0244,-353.5446 392.2821,-356.8253"/>
<polygon fill="#191970" stroke="#191970" points="391.236,-360.1715 401.8276,-360.4329 393.7108,-353.6236 391.236,-360.1715"/>
</g>
<!-- Node17 -->
<g id="node17" class="node">
<title>Node17</title>
<g id="a_node17"><a xlink:href="../../d7/ddb/egutils_8cpp.html#afada8b7a957cc33c8ed7d93e67633b5e" target="_top" xlink:title="matrix">
<polygon fill="none" stroke="#000000" points="537,-298.5 537,-318.5 586,-318.5 586,-298.5 537,-298.5"/>
<text text-anchor="middle" x="561.5" y="-305.5" font-family="FreeSans" font-size="10.00" fill="#000000">matrix</text>
</a>
</g>
</g>
<!-- Node15&#45;&gt;Node17 -->
<g id="edge23" class="edge">
<title>Node15&#45;&gt;Node17</title>
<path fill="none" stroke="#191970" d="M309.8711,-302.5421C328.4293,-306.6372 348.924,-310.4571 368,-312.5 426.775,-318.7943 441.9211,-314.4509 501,-312.5 509.285,-312.2264 518.1978,-311.7426 526.5682,-311.2039"/>
<polygon fill="#191970" stroke="#191970" points="527.055,-314.6788 536.7925,-310.5037 526.5767,-307.6952 527.055,-314.6788"/>
</g>
<!-- Node20 -->
<g id="node20" class="node">
<title>Node20</title>
<g id="a_node20"><a xlink:href="../../da/dfe/classActsCovarianceRotater.html#aec0893bd6f06062ca092426415c4c7c8" target="_top" xlink:title="ActsCovarianceRotater\l::printMatrix">
<polygon fill="none" stroke="#000000" points="368,-270.5 368,-302.5 501,-302.5 501,-270.5 368,-270.5"/>
<text text-anchor="start" x="376" y="-289.5" font-family="FreeSans" font-size="10.00" fill="#000000">ActsCovarianceRotater</text>
<text text-anchor="middle" x="434.5" y="-277.5" font-family="FreeSans" font-size="10.00" fill="#000000">::printMatrix</text>
</a>
</g>
</g>
<!-- Node15&#45;&gt;Node20 -->
<g id="edge26" class="edge">
<title>Node15&#45;&gt;Node20</title>
<path fill="none" stroke="#191970" d="M324.6641,-286.5C335.5514,-286.5 346.7505,-286.5 357.6415,-286.5"/>
<polygon fill="#191970" stroke="#191970" points="357.9689,-290.0001 367.9688,-286.5 357.9688,-283.0001 357.9689,-290.0001"/>
</g>
<!-- Node18 -->
<g id="node18" class="node">
<title>Node18</title>
<g id="a_node18"><a xlink:href="../../d7/ddb/egutils_8cpp.html#a0669a7d0e70f2da34b4a11d9c669d6b6" target="_top" xlink:title="nrerror">
<polygon fill="none" stroke="#000000" points="622,-298.5 622,-318.5 673,-318.5 673,-298.5 622,-298.5"/>
<text text-anchor="middle" x="647.5" y="-305.5" font-family="FreeSans" font-size="10.00" fill="#000000">nrerror</text>
</a>
</g>
</g>
<!-- Node17&#45;&gt;Node18 -->
<g id="edge24" class="edge">
<title>Node17&#45;&gt;Node18</title>
<path fill="none" stroke="#191970" d="M586.3748,-308.5C594.2748,-308.5 603.1738,-308.5 611.6862,-308.5"/>
<polygon fill="#191970" stroke="#191970" points="611.7846,-312.0001 621.7845,-308.5 611.7845,-305.0001 611.7846,-312.0001"/>
</g>
<!-- Node19 -->
<g id="node19" class="node">
<title>Node19</title>
<g id="a_node19"><a xlink:href="../../df/de8/cemc_8C.html#adf5c804dfce7a70e36dda02995fad481" target="_top" xlink:title="exit">
<polygon fill="none" stroke="#000000" points="709,-298.5 709,-318.5 744,-318.5 744,-298.5 709,-298.5"/>
<text text-anchor="middle" x="726.5" y="-305.5" font-family="FreeSans" font-size="10.00" fill="#000000">exit</text>
</a>
</g>
</g>
<!-- Node18&#45;&gt;Node19 -->
<g id="edge25" class="edge">
<title>Node18&#45;&gt;Node19</title>
<path fill="none" stroke="#191970" d="M673.3676,-308.5C681.3775,-308.5 690.2398,-308.5 698.3938,-308.5"/>
<polygon fill="#191970" stroke="#191970" points="698.5737,-312.0001 708.5737,-308.5 698.5736,-305.0001 698.5737,-312.0001"/>
</g>
<!-- Node20&#45;&gt;Node17 -->
<g id="edge27" class="edge">
<title>Node20&#45;&gt;Node17</title>
<path fill="none" stroke="#191970" d="M501.3473,-298.0798C510.1559,-299.6057 518.8784,-301.1167 526.8343,-302.4949"/>
<polygon fill="#191970" stroke="#191970" points="526.3435,-305.9619 536.7942,-304.2203 527.5384,-299.0647 526.3435,-305.9619"/>
</g>
</g>
</svg>
