<?xml version="1.0" encoding="UTF-8" standalone="no"?>
<!DOCTYPE svg PUBLIC "-//W3C//DTD SVG 1.1//EN"
 "http://www.w3.org/Graphics/SVG/1.1/DTD/svg11.dtd">
<!-- Generated by graphviz version 2.40.1 (20161225.0304)
 -->
<!-- Title: PHG4Reco::SetWorldSizeZ Pages: 1 -->
<svg width="578pt" height="224pt"
 viewBox="0.00 0.00 578.00 224.00" xmlns="http://www.w3.org/2000/svg" xmlns:xlink="http://www.w3.org/1999/xlink">
<g id="graph0" class="graph" transform="scale(1 1) rotate(0) translate(4 220)">
<title>PHG4Reco::SetWorldSizeZ</title>
<!-- Node1 -->
<g id="node1" class="node">
<title>Node1</title>
<polygon fill="#bfbfbf" stroke="#000000" points="0,-39.5 0,-59.5 149,-59.5 149,-39.5 0,-39.5"/>
<text text-anchor="middle" x="74.5" y="-46.5" font-family="FreeSans" font-size="10.00" fill="#000000">PHG4Reco::SetWorldSizeZ</text>
</g>
<!-- Node2 -->
<g id="node2" class="node">
<title>Node2</title>
<g id="a_node2"><a xlink:href="../../d7/dca/G4__BeamLine_8C.html#ad49efbd14518ef2a970999bd9b0286c5" target="_top" xlink:title="BeamLine">
<polygon fill="none" stroke="#000000" points="209,-78.5 209,-98.5 275,-98.5 275,-78.5 209,-78.5"/>
<text text-anchor="middle" x="242" y="-85.5" font-family="FreeSans" font-size="10.00" fill="#000000">BeamLine</text>
</a>
</g>
</g>
<!-- Node1&#45;&gt;Node2 -->
<g id="edge1" class="edge">
<title>Node1&#45;&gt;Node2</title>
<path fill="none" stroke="#191970" d="M127.5766,-61.8581C154.1992,-68.0568 185.62,-75.3727 208.7932,-80.7683"/>
<polygon fill="#191970" stroke="#191970" points="128.1686,-58.4024 117.6354,-59.5435 126.5812,-65.2201 128.1686,-58.4024"/>
</g>
<!-- Node11 -->
<g id="node11" class="node">
<title>Node11</title>
<g id="a_node11"><a xlink:href="../../de/d55/Fun4All__G4__block_8C.html#a6a063a649a0dd3318a517d5af98430dd" target="_top" xlink:title="Fun4All_G4_block">
<polygon fill="none" stroke="#000000" points="189.5,-39.5 189.5,-59.5 294.5,-59.5 294.5,-39.5 189.5,-39.5"/>
<text text-anchor="middle" x="242" y="-46.5" font-family="FreeSans" font-size="10.00" fill="#000000">Fun4All_G4_block</text>
</a>
</g>
</g>
<!-- Node1&#45;&gt;Node11 -->
<g id="edge10" class="edge">
<title>Node1&#45;&gt;Node11</title>
<path fill="none" stroke="#191970" d="M159.5276,-49.5C169.6371,-49.5 179.7219,-49.5 189.1924,-49.5"/>
<polygon fill="#191970" stroke="#191970" points="159.4316,-46.0001 149.4315,-49.5 159.4315,-53.0001 159.4316,-46.0001"/>
</g>
<!-- Node12 -->
<g id="node12" class="node">
<title>Node12</title>
<g id="a_node12"><a xlink:href="../../df/de1/Fun4All__G4__IonGun_8C.html#ab4966a2ae337cb8f0e45f7ee488e33b7" target="_top" xlink:title="Fun4All_G4_IonGun">
<polygon fill="none" stroke="#000000" points="185,-.5 185,-20.5 299,-20.5 299,-.5 185,-.5"/>
<text text-anchor="middle" x="242" y="-7.5" font-family="FreeSans" font-size="10.00" fill="#000000">Fun4All_G4_IonGun</text>
</a>
</g>
</g>
<!-- Node1&#45;&gt;Node12 -->
<g id="edge11" class="edge">
<title>Node1&#45;&gt;Node12</title>
<path fill="none" stroke="#191970" d="M127.5971,-37.1371C150.6285,-31.7746 177.2478,-25.5766 199.0108,-20.5094"/>
<polygon fill="#191970" stroke="#191970" points="126.5812,-33.7799 117.6354,-39.4565 128.1686,-40.5976 126.5812,-33.7799"/>
</g>
<!-- Node3 -->
<g id="node3" class="node">
<title>Node3</title>
<g id="a_node3"><a xlink:href="../../d0/dd0/G4Setup__JLeic_8C.html#ae51ed477963c36fe17047cf934f36ef0" target="_top" xlink:title="G4Setup">
<polygon fill="none" stroke="#000000" points="335,-97.5 335,-117.5 395,-117.5 395,-97.5 335,-97.5"/>
<text text-anchor="middle" x="365" y="-104.5" font-family="FreeSans" font-size="10.00" fill="#000000">G4Setup</text>
</a>
</g>
</g>
<!-- Node2&#45;&gt;Node3 -->
<g id="edge2" class="edge">
<title>Node2&#45;&gt;Node3</title>
<path fill="none" stroke="#191970" d="M285.625,-95.2388C301.8377,-97.7432 319.8654,-100.528 334.6374,-102.8098"/>
<polygon fill="#191970" stroke="#191970" points="285.7027,-91.7094 275.2856,-93.6417 284.634,-98.6273 285.7027,-91.7094"/>
</g>
<!-- Node10 -->
<g id="node10" class="node">
<title>Node10</title>
<g id="a_node10"><a xlink:href="../../db/dde/extractor_8cc.html#a3c04138a5bfe5d72780bb7e82a18e627" target="_top" xlink:title="main">
<polygon fill="none" stroke="#000000" points="344.5,-58.5 344.5,-78.5 385.5,-78.5 385.5,-58.5 344.5,-58.5"/>
<text text-anchor="middle" x="365" y="-65.5" font-family="FreeSans" font-size="10.00" fill="#000000">main</text>
</a>
</g>
</g>
<!-- Node2&#45;&gt;Node10 -->
<g id="edge9" class="edge">
<title>Node2&#45;&gt;Node10</title>
<path fill="none" stroke="#191970" d="M285.189,-81.4774C305.3069,-78.2062 328.3013,-74.4673 344.4245,-71.8456"/>
<polygon fill="#191970" stroke="#191970" points="284.5942,-78.0281 275.2856,-83.0877 285.7177,-84.9373 284.5942,-78.0281"/>
</g>
<!-- Node4 -->
<g id="node4" class="node">
<title>Node4</title>
<g id="a_node4"><a xlink:href="../../db/dc0/Fun4All__AnaTutorial_8C.html#a8c484ea6d7477278e981ef056b17eac9" target="_top" xlink:title="Fun4All_AnaTutorial">
<polygon fill="none" stroke="#000000" points="443,-195.5 443,-215.5 558,-215.5 558,-195.5 443,-195.5"/>
<text text-anchor="middle" x="500.5" y="-202.5" font-family="FreeSans" font-size="10.00" fill="#000000">Fun4All_AnaTutorial</text>
</a>
</g>
</g>
<!-- Node3&#45;&gt;Node4 -->
<g id="edge3" class="edge">
<title>Node3&#45;&gt;Node4</title>
<path fill="none" stroke="#191970" d="M375.8951,-126.2352C387.3602,-144.3079 407.0528,-171.1223 431,-186.5 436.6837,-190.1498 443.062,-193.1053 449.589,-195.4969"/>
<polygon fill="#191970" stroke="#191970" points="378.8724,-124.3949 370.6706,-117.688 372.8998,-128.0457 378.8724,-124.3949"/>
</g>
<!-- Node5 -->
<g id="node5" class="node">
<title>Node5</title>
<g id="a_node5"><a xlink:href="../../dd/d28/Fun4All__AnaTutorial__Jets_8C.html#a55eaaeb770a3177f917012de87877d28" target="_top" xlink:title="Fun4All_AnaTutorial_Jets">
<polygon fill="none" stroke="#000000" points="431,-156.5 431,-176.5 570,-176.5 570,-156.5 431,-156.5"/>
<text text-anchor="middle" x="500.5" y="-163.5" font-family="FreeSans" font-size="10.00" fill="#000000">Fun4All_AnaTutorial_Jets</text>
</a>
</g>
</g>
<!-- Node3&#45;&gt;Node5 -->
<g id="edge4" class="edge">
<title>Node3&#45;&gt;Node5</title>
<path fill="none" stroke="#191970" d="M387.3948,-123.2207C399.7938,-131.3629 415.7452,-140.9447 431,-147.5 439.0448,-150.957 447.8865,-153.9441 456.4877,-156.4597"/>
<polygon fill="#191970" stroke="#191970" points="389.3059,-120.2881 379.055,-117.6103 385.3986,-126.0961 389.3059,-120.2881"/>
</g>
<!-- Node6 -->
<g id="node6" class="node">
<title>Node6</title>
<g id="a_node6"><a xlink:href="../../da/d02/Fun4All__G4__EICDetector_8C.html#afbe82cefa1d1fd031d9a8586b7bb68c6" target="_top" xlink:title="Fun4All_G4_EICDetector">
<polygon fill="none" stroke="#000000" points="431,-117.5 431,-137.5 570,-137.5 570,-117.5 431,-117.5"/>
<text text-anchor="middle" x="500.5" y="-124.5" font-family="FreeSans" font-size="10.00" fill="#000000">Fun4All_G4_EICDetector</text>
</a>
</g>
</g>
<!-- Node3&#45;&gt;Node6 -->
<g id="edge5" class="edge">
<title>Node3&#45;&gt;Node6</title>
<path fill="none" stroke="#191970" d="M405.1929,-113.4325C413.8219,-114.7062 423.1699,-116.086 432.5236,-117.4666"/>
<polygon fill="#191970" stroke="#191970" points="405.4758,-109.9364 395.0718,-111.9386 404.4536,-116.8614 405.4758,-109.9364"/>
</g>
<!-- Node7 -->
<g id="node7" class="node">
<title>Node7</title>
<g id="a_node7"><a xlink:href="../../d7/d9e/Fun4All__G4__fsPHENIX_8C.html#a72c444217210a14ab1b4e66d9818b1ff" target="_top" xlink:title="Fun4All_G4_fsPHENIX">
<polygon fill="none" stroke="#000000" points="438.5,-78.5 438.5,-98.5 562.5,-98.5 562.5,-78.5 438.5,-78.5"/>
<text text-anchor="middle" x="500.5" y="-85.5" font-family="FreeSans" font-size="10.00" fill="#000000">Fun4All_G4_fsPHENIX</text>
</a>
</g>
</g>
<!-- Node3&#45;&gt;Node7 -->
<g id="edge6" class="edge">
<title>Node3&#45;&gt;Node7</title>
<path fill="none" stroke="#191970" d="M405.1074,-101.8761C415.5416,-100.413 427.0316,-98.8018 438.3144,-97.2197"/>
<polygon fill="#191970" stroke="#191970" points="404.4889,-98.4285 395.0718,-103.2833 405.461,-105.3607 404.4889,-98.4285"/>
</g>
<!-- Node8 -->
<g id="node8" class="node">
<title>Node8</title>
<g id="a_node8"><a xlink:href="../../d0/d87/Fun4All__G4__JLeic_8C.html#a66e8fc0b01ee0a8e805c7b99c4698974" target="_top" xlink:title="Fun4All_G4_JLeic">
<polygon fill="none" stroke="#000000" points="450,-39.5 450,-59.5 551,-59.5 551,-39.5 450,-39.5"/>
<text text-anchor="middle" x="500.5" y="-46.5" font-family="FreeSans" font-size="10.00" fill="#000000">Fun4All_G4_JLeic</text>
</a>
</g>
</g>
<!-- Node3&#45;&gt;Node8 -->
<g id="edge7" class="edge">
<title>Node3&#45;&gt;Node8</title>
<path fill="none" stroke="#191970" d="M390.3513,-92.0574C405.3216,-83.107 422.8861,-72.943 431,-69.5 440.0153,-65.6745 449.989,-62.3235 459.5,-59.513"/>
<polygon fill="#191970" stroke="#191970" points="388.2351,-89.2461 381.4732,-97.4025 391.8456,-95.2431 388.2351,-89.2461"/>
</g>
<!-- Node9 -->
<g id="node9" class="node">
<title>Node9</title>
<g id="a_node9"><a xlink:href="../../d0/d13/Fun4All__G4__sPHENIX_8C.html#a536fa7366e3aeaf273cca94ced704c46" target="_top" xlink:title="Fun4All_G4_sPHENIX">
<polygon fill="none" stroke="#000000" points="440,-.5 440,-20.5 561,-20.5 561,-.5 440,-.5"/>
<text text-anchor="middle" x="500.5" y="-7.5" font-family="FreeSans" font-size="10.00" fill="#000000">Fun4All_G4_sPHENIX</text>
</a>
</g>
</g>
<!-- Node3&#45;&gt;Node9 -->
<g id="edge8" class="edge">
<title>Node3&#45;&gt;Node9</title>
<path fill="none" stroke="#191970" d="M392.0701,-91.234C393.0906,-90.3482 394.0724,-89.436 395,-88.5 416.3558,-66.9495 406.8059,-48.8068 431,-30.5 436.4067,-26.409 442.6248,-23.1539 449.0715,-20.5643"/>
<polygon fill="#191970" stroke="#191970" points="389.654,-88.6706 383.7463,-97.4655 393.8491,-94.2743 389.654,-88.6706"/>
</g>
</g>
</svg>
