<?xml version="1.0" encoding="UTF-8" standalone="no"?>
<!DOCTYPE svg PUBLIC "-//W3C//DTD SVG 1.1//EN"
 "http://www.w3.org/Graphics/SVG/1.1/DTD/svg11.dtd">
<!-- Generated by graphviz version 2.40.1 (20161225.0304)
 -->
<!-- Title: PHG4Reco::set_field_rescale Pages: 1 -->
<svg width="459pt" height="224pt"
 viewBox="0.00 0.00 459.00 224.00" xmlns="http://www.w3.org/2000/svg" xmlns:xlink="http://www.w3.org/1999/xlink">
<g id="graph0" class="graph" transform="scale(1 1) rotate(0) translate(4 220)">
<title>PHG4Reco::set_field_rescale</title>
<!-- Node1 -->
<g id="node1" class="node">
<title>Node1</title>
<polygon fill="#bfbfbf" stroke="#000000" points="0,-130.5 0,-162.5 117,-162.5 117,-130.5 0,-130.5"/>
<text text-anchor="start" x="8" y="-149.5" font-family="FreeSans" font-size="10.00" fill="#000000">PHG4Reco::set_field</text>
<text text-anchor="middle" x="58.5" y="-137.5" font-family="FreeSans" font-size="10.00" fill="#000000">_rescale</text>
</g>
<!-- Node2 -->
<g id="node2" class="node">
<title>Node2</title>
<g id="a_node2"><a xlink:href="../../d7/dc5/Fun4All__G4__FastMom_8C.html#ab9349be2377fe9e9a634a8607cff2555" target="_top" xlink:title="Fun4All_G4_FastMom">
<polygon fill="none" stroke="#000000" points="153,-175.5 153,-195.5 276,-195.5 276,-175.5 153,-175.5"/>
<text text-anchor="middle" x="214.5" y="-182.5" font-family="FreeSans" font-size="10.00" fill="#000000">Fun4All_G4_FastMom</text>
</a>
</g>
</g>
<!-- Node1&#45;&gt;Node2 -->
<g id="edge1" class="edge">
<title>Node1&#45;&gt;Node2</title>
<path fill="none" stroke="#191970" d="M126.9611,-163.6153C143.0614,-167.6403 159.7122,-171.803 174.1137,-175.4034"/>
<polygon fill="#191970" stroke="#191970" points="127.5828,-160.163 117.0325,-161.1331 125.885,-166.954 127.5828,-160.163"/>
</g>
<!-- Node3 -->
<g id="node3" class="node">
<title>Node3</title>
<g id="a_node3"><a xlink:href="../../dd/d8d/Fun4All__G4__Magnet_8C.html#a375961511ba614ba387343e652ab0202" target="_top" xlink:title="Fun4All_G4_Magnet">
<polygon fill="none" stroke="#000000" points="156.5,-136.5 156.5,-156.5 272.5,-156.5 272.5,-136.5 156.5,-136.5"/>
<text text-anchor="middle" x="214.5" y="-143.5" font-family="FreeSans" font-size="10.00" fill="#000000">Fun4All_G4_Magnet</text>
</a>
</g>
</g>
<!-- Node1&#45;&gt;Node3 -->
<g id="edge2" class="edge">
<title>Node1&#45;&gt;Node3</title>
<path fill="none" stroke="#191970" d="M127.1206,-146.5C136.8955,-146.5 146.8698,-146.5 156.4174,-146.5"/>
<polygon fill="#191970" stroke="#191970" points="127.0325,-143.0001 117.0325,-146.5 127.0324,-150.0001 127.0325,-143.0001"/>
</g>
<!-- Node4 -->
<g id="node4" class="node">
<title>Node4</title>
<g id="a_node4"><a xlink:href="../../d0/dd0/G4Setup__JLeic_8C.html#ae51ed477963c36fe17047cf934f36ef0" target="_top" xlink:title="G4Setup">
<polygon fill="none" stroke="#000000" points="184.5,-97.5 184.5,-117.5 244.5,-117.5 244.5,-97.5 184.5,-97.5"/>
<text text-anchor="middle" x="214.5" y="-104.5" font-family="FreeSans" font-size="10.00" fill="#000000">G4Setup</text>
</a>
</g>
</g>
<!-- Node1&#45;&gt;Node4 -->
<g id="edge3" class="edge">
<title>Node1&#45;&gt;Node4</title>
<path fill="none" stroke="#191970" d="M126.7788,-129.4303C146.8231,-124.4192 167.7373,-119.1907 184.1151,-115.0962"/>
<polygon fill="#191970" stroke="#191970" points="125.885,-126.0459 117.0325,-131.8669 127.5828,-132.8369 125.885,-126.0459"/>
</g>
<!-- Node5 -->
<g id="node5" class="node">
<title>Node5</title>
<g id="a_node5"><a xlink:href="../../db/dc0/Fun4All__AnaTutorial_8C.html#a8c484ea6d7477278e981ef056b17eac9" target="_top" xlink:title="Fun4All_AnaTutorial">
<polygon fill="none" stroke="#000000" points="324,-195.5 324,-215.5 439,-215.5 439,-195.5 324,-195.5"/>
<text text-anchor="middle" x="381.5" y="-202.5" font-family="FreeSans" font-size="10.00" fill="#000000">Fun4All_AnaTutorial</text>
</a>
</g>
</g>
<!-- Node4&#45;&gt;Node5 -->
<g id="edge4" class="edge">
<title>Node4&#45;&gt;Node5</title>
<path fill="none" stroke="#191970" d="M254.4022,-115.9102C262.077,-118.7434 269.6819,-122.5081 276,-127.5 300.1028,-146.5436 287.4512,-168.0348 312,-186.5 316.7983,-190.1092 322.2406,-193.0329 327.9167,-195.4014"/>
<polygon fill="#191970" stroke="#191970" points="255.3265,-112.5309 244.735,-112.7974 253.1809,-119.194 255.3265,-112.5309"/>
</g>
<!-- Node6 -->
<g id="node6" class="node">
<title>Node6</title>
<g id="a_node6"><a xlink:href="../../dd/d28/Fun4All__AnaTutorial__Jets_8C.html#a55eaaeb770a3177f917012de87877d28" target="_top" xlink:title="Fun4All_AnaTutorial_Jets">
<polygon fill="none" stroke="#000000" points="312,-156.5 312,-176.5 451,-176.5 451,-156.5 312,-156.5"/>
<text text-anchor="middle" x="381.5" y="-163.5" font-family="FreeSans" font-size="10.00" fill="#000000">Fun4All_AnaTutorial_Jets</text>
</a>
</g>
</g>
<!-- Node4&#45;&gt;Node6 -->
<g id="edge5" class="edge">
<title>Node4&#45;&gt;Node6</title>
<path fill="none" stroke="#191970" d="M254.3924,-119.2306C261.674,-121.721 269.1355,-124.5103 276,-127.5 292.7808,-134.8086 295.0501,-140.5924 312,-147.5 320.3403,-150.8989 329.4867,-153.8889 338.3261,-156.431"/>
<polygon fill="#191970" stroke="#191970" points="255.2403,-115.8252 244.6474,-116.0292 253.0554,-122.4755 255.2403,-115.8252"/>
</g>
<!-- Node7 -->
<g id="node7" class="node">
<title>Node7</title>
<g id="a_node7"><a xlink:href="../../da/d02/Fun4All__G4__EICDetector_8C.html#afbe82cefa1d1fd031d9a8586b7bb68c6" target="_top" xlink:title="Fun4All_G4_EICDetector">
<polygon fill="none" stroke="#000000" points="312,-117.5 312,-137.5 451,-137.5 451,-117.5 312,-117.5"/>
<text text-anchor="middle" x="381.5" y="-124.5" font-family="FreeSans" font-size="10.00" fill="#000000">Fun4All_G4_EICDetector</text>
</a>
</g>
</g>
<!-- Node4&#45;&gt;Node7 -->
<g id="edge6" class="edge">
<title>Node4&#45;&gt;Node7</title>
<path fill="none" stroke="#191970" d="M254.9442,-112.3436C272.0832,-114.3962 292.5537,-116.8478 311.9844,-119.1748"/>
<polygon fill="#191970" stroke="#191970" points="255.0877,-108.8359 244.7424,-111.1218 254.2553,-115.7862 255.0877,-108.8359"/>
</g>
<!-- Node8 -->
<g id="node8" class="node">
<title>Node8</title>
<g id="a_node8"><a xlink:href="../../d7/d9e/Fun4All__G4__fsPHENIX_8C.html#a72c444217210a14ab1b4e66d9818b1ff" target="_top" xlink:title="Fun4All_G4_fsPHENIX">
<polygon fill="none" stroke="#000000" points="319.5,-78.5 319.5,-98.5 443.5,-98.5 443.5,-78.5 319.5,-78.5"/>
<text text-anchor="middle" x="381.5" y="-85.5" font-family="FreeSans" font-size="10.00" fill="#000000">Fun4All_G4_fsPHENIX</text>
</a>
</g>
</g>
<!-- Node4&#45;&gt;Node8 -->
<g id="edge7" class="edge">
<title>Node4&#45;&gt;Node8</title>
<path fill="none" stroke="#191970" d="M254.7249,-102.9235C274.0779,-100.7217 297.7168,-98.0322 319.3163,-95.5748"/>
<polygon fill="#191970" stroke="#191970" points="254.2827,-99.4512 244.7424,-104.0592 255.074,-106.4063 254.2827,-99.4512"/>
</g>
<!-- Node9 -->
<g id="node9" class="node">
<title>Node9</title>
<g id="a_node9"><a xlink:href="../../d0/d87/Fun4All__G4__JLeic_8C.html#a66e8fc0b01ee0a8e805c7b99c4698974" target="_top" xlink:title="Fun4All_G4_JLeic">
<polygon fill="none" stroke="#000000" points="331,-39.5 331,-59.5 432,-59.5 432,-39.5 331,-39.5"/>
<text text-anchor="middle" x="381.5" y="-46.5" font-family="FreeSans" font-size="10.00" fill="#000000">Fun4All_G4_JLeic</text>
</a>
</g>
</g>
<!-- Node4&#45;&gt;Node9 -->
<g id="edge8" class="edge">
<title>Node4&#45;&gt;Node9</title>
<path fill="none" stroke="#191970" d="M247.9826,-93.5765C266.6681,-86.0278 290.4555,-76.7814 312,-69.5 322.3484,-66.0026 333.6899,-62.5724 344.1544,-59.5678"/>
<polygon fill="#191970" stroke="#191970" points="246.6572,-90.3371 238.7153,-97.3498 249.2969,-96.8203 246.6572,-90.3371"/>
</g>
<!-- Node10 -->
<g id="node10" class="node">
<title>Node10</title>
<g id="a_node10"><a xlink:href="../../d0/d13/Fun4All__G4__sPHENIX_8C.html#a536fa7366e3aeaf273cca94ced704c46" target="_top" xlink:title="Fun4All_G4_sPHENIX">
<polygon fill="none" stroke="#000000" points="321,-.5 321,-20.5 442,-20.5 442,-.5 321,-.5"/>
<text text-anchor="middle" x="381.5" y="-7.5" font-family="FreeSans" font-size="10.00" fill="#000000">Fun4All_G4_sPHENIX</text>
</a>
</g>
</g>
<!-- Node4&#45;&gt;Node10 -->
<g id="edge9" class="edge">
<title>Node4&#45;&gt;Node10</title>
<path fill="none" stroke="#191970" d="M231.7019,-90.4419C250.1194,-73.0627 280.911,-46.4618 312,-30.5 319.707,-26.5431 328.3083,-23.2662 336.7621,-20.5903"/>
<polygon fill="#191970" stroke="#191970" points="229.1583,-88.0322 224.3777,-97.4871 234.0111,-93.0771 229.1583,-88.0322"/>
</g>
</g>
</svg>
