<?xml version="1.0" encoding="UTF-8" standalone="no"?>
<!DOCTYPE svg PUBLIC "-//W3C//DTD SVG 1.1//EN"
 "http://www.w3.org/Graphics/SVG/1.1/DTD/svg11.dtd">
<!-- Generated by graphviz version 2.40.1 (20161225.0304)
 -->
<!-- Title: fun4all_coresoftware/blob/master/simulation/g4simulation/g4eval/CaloTruthEval.h Pages: 1 -->
<svg width="1665pt" height="680pt"
 viewBox="0.00 0.00 1664.50 680.00" xmlns="http://www.w3.org/2000/svg" xmlns:xlink="http://www.w3.org/1999/xlink">
<g id="graph0" class="graph" transform="scale(1 1) rotate(0) translate(4 676)">
<title>fun4all_coresoftware/blob/master/simulation/g4simulation/g4eval/CaloTruthEval.h</title>
<!-- Node1 -->
<g id="node1" class="node">
<title>Node1</title>
<polygon fill="#bfbfbf" stroke="#000000" points="1074.5,-615.5 1074.5,-671.5 1249.5,-671.5 1249.5,-615.5 1074.5,-615.5"/>
<text text-anchor="start" x="1082.5" y="-658.5" font-family="FreeSans" font-size="10.00" fill="#000000">fun4all_coresoftware</text>
<text text-anchor="start" x="1082.5" y="-646.5" font-family="FreeSans" font-size="10.00" fill="#000000">/blob/master/simulation</text>
<text text-anchor="start" x="1082.5" y="-634.5" font-family="FreeSans" font-size="10.00" fill="#000000">/g4simulation/g4eval/CaloTruth</text>
<text text-anchor="middle" x="1162" y="-622.5" font-family="FreeSans" font-size="10.00" fill="#000000">Eval.h</text>
</g>
<!-- Node2 -->
<g id="node2" class="node">
<title>Node2</title>
<g id="a_node2"><a xlink:href="../../d0/d0b/CaloRawTowerEval_8h.html" target="_top" xlink:title="fun4all_coresoftware\l/blob/master/simulation\l/g4simulation/g4eval/CaloRawTower\lEval.h">
<polygon fill="none" stroke="#000000" points="1223.5,-522.5 1223.5,-578.5 1424.5,-578.5 1424.5,-522.5 1223.5,-522.5"/>
<text text-anchor="start" x="1231.5" y="-565.5" font-family="FreeSans" font-size="10.00" fill="#000000">fun4all_coresoftware</text>
<text text-anchor="start" x="1231.5" y="-553.5" font-family="FreeSans" font-size="10.00" fill="#000000">/blob/master/simulation</text>
<text text-anchor="start" x="1231.5" y="-541.5" font-family="FreeSans" font-size="10.00" fill="#000000">/g4simulation/g4eval/CaloRawTower</text>
<text text-anchor="middle" x="1324" y="-529.5" font-family="FreeSans" font-size="10.00" fill="#000000">Eval.h</text>
</a>
</g>
</g>
<!-- Node1&#45;&gt;Node2 -->
<g id="edge1" class="edge">
<title>Node1&#45;&gt;Node2</title>
<path fill="none" stroke="#191970" d="M1219.7811,-610.3293C1237.89,-599.9335 1257.6901,-588.5668 1275.1217,-578.5597"/>
<polygon fill="#191970" stroke="#191970" points="1217.975,-607.3304 1211.045,-615.3446 1221.4601,-613.4012 1217.975,-607.3304"/>
</g>
<!-- Node3 -->
<g id="node3" class="node">
<title>Node3</title>
<g id="a_node3"><a xlink:href="../../d8/dc0/CaloRawClusterEval_8h.html" target="_top" xlink:title="fun4all_coresoftware\l/blob/master/simulation\l/g4simulation/g4eval/CaloRawCluster\lEval.h">
<polygon fill="none" stroke="#000000" points="959.5,-429.5 959.5,-485.5 1166.5,-485.5 1166.5,-429.5 959.5,-429.5"/>
<text text-anchor="start" x="967.5" y="-472.5" font-family="FreeSans" font-size="10.00" fill="#000000">fun4all_coresoftware</text>
<text text-anchor="start" x="967.5" y="-460.5" font-family="FreeSans" font-size="10.00" fill="#000000">/blob/master/simulation</text>
<text text-anchor="start" x="967.5" y="-448.5" font-family="FreeSans" font-size="10.00" fill="#000000">/g4simulation/g4eval/CaloRawCluster</text>
<text text-anchor="middle" x="1063" y="-436.5" font-family="FreeSans" font-size="10.00" fill="#000000">Eval.h</text>
</a>
</g>
</g>
<!-- Node1&#45;&gt;Node3 -->
<g id="edge31" class="edge">
<title>Node1&#45;&gt;Node3</title>
<path fill="none" stroke="#191970" d="M1142.1239,-606.1571C1123.1996,-570.6022 1095.1368,-517.8782 1078.015,-485.7099"/>
<polygon fill="#191970" stroke="#191970" points="1139.1759,-608.0676 1146.964,-615.2506 1145.3551,-604.7786 1139.1759,-608.0676"/>
</g>
<!-- Node6 -->
<g id="node6" class="node">
<title>Node6</title>
<g id="a_node6"><a xlink:href="../../dc/da9/CaloEvalStack_8h.html" target="_top" xlink:title="fun4all_coresoftware\l/blob/master/simulation\l/g4simulation/g4eval/CaloEvalStack.h">
<polygon fill="none" stroke="#000000" points="798,-342.5 798,-386.5 1006,-386.5 1006,-342.5 798,-342.5"/>
<text text-anchor="start" x="806" y="-373.5" font-family="FreeSans" font-size="10.00" fill="#000000">fun4all_coresoftware</text>
<text text-anchor="start" x="806" y="-361.5" font-family="FreeSans" font-size="10.00" fill="#000000">/blob/master/simulation</text>
<text text-anchor="middle" x="902" y="-349.5" font-family="FreeSans" font-size="10.00" fill="#000000">/g4simulation/g4eval/CaloEvalStack.h</text>
</a>
</g>
</g>
<!-- Node1&#45;&gt;Node6 -->
<g id="edge32" class="edge">
<title>Node1&#45;&gt;Node6</title>
<path fill="none" stroke="#191970" d="M1099.9472,-610.1894C1053.2155,-582.3721 990.4894,-538.8169 950,-486 926.6804,-455.5805 913.2313,-412.3738 906.7833,-386.52"/>
<polygon fill="#191970" stroke="#191970" points="1098.3772,-613.3262 1108.7731,-615.3699 1101.9207,-607.2893 1098.3772,-613.3262"/>
</g>
<!-- Node8 -->
<g id="node8" class="node">
<title>Node8</title>
<g id="a_node8"><a xlink:href="../../d0/d13/CaloEvaluator_8cc.html" target="_top" xlink:title="fun4all_coresoftware\l/blob/master/simulation\l/g4simulation/g4eval/CaloEvaluator.cc">
<polygon fill="none" stroke="#000000" points="1142.5,-249.5 1142.5,-293.5 1353.5,-293.5 1353.5,-249.5 1142.5,-249.5"/>
<text text-anchor="start" x="1150.5" y="-280.5" font-family="FreeSans" font-size="10.00" fill="#000000">fun4all_coresoftware</text>
<text text-anchor="start" x="1150.5" y="-268.5" font-family="FreeSans" font-size="10.00" fill="#000000">/blob/master/simulation</text>
<text text-anchor="middle" x="1248" y="-256.5" font-family="FreeSans" font-size="10.00" fill="#000000">/g4simulation/g4eval/CaloEvaluator.cc</text>
</a>
</g>
</g>
<!-- Node1&#45;&gt;Node8 -->
<g id="edge33" class="edge">
<title>Node1&#45;&gt;Node8</title>
<path fill="none" stroke="#191970" d="M1170.799,-605.4391C1188.635,-528.2883 1228.5643,-355.5706 1242.8195,-293.9087"/>
<polygon fill="#191970" stroke="#191970" points="1167.377,-604.7028 1168.5346,-615.2342 1174.1971,-606.2796 1167.377,-604.7028"/>
</g>
<!-- Node18 -->
<g id="node18" class="node">
<title>Node18</title>
<g id="a_node18"><a xlink:href="../../da/dbb/JetTruthEval_8cc.html" target="_top" xlink:title="fun4all_coresoftware\l/blob/master/simulation\l/g4simulation/g4eval/JetTruthEval.cc">
<polygon fill="none" stroke="#000000" points="0,-162.5 0,-206.5 202,-206.5 202,-162.5 0,-162.5"/>
<text text-anchor="start" x="8" y="-193.5" font-family="FreeSans" font-size="10.00" fill="#000000">fun4all_coresoftware</text>
<text text-anchor="start" x="8" y="-181.5" font-family="FreeSans" font-size="10.00" fill="#000000">/blob/master/simulation</text>
<text text-anchor="middle" x="101" y="-169.5" font-family="FreeSans" font-size="10.00" fill="#000000">/g4simulation/g4eval/JetTruthEval.cc</text>
</a>
</g>
</g>
<!-- Node1&#45;&gt;Node18 -->
<g id="edge37" class="edge">
<title>Node1&#45;&gt;Node18</title>
<path fill="none" stroke="#191970" d="M1064.2222,-636.8748C798.6947,-617.5841 84,-556.4686 84,-457.5 84,-457.5 84,-457.5 84,-364.5 84,-307.3719 92.5923,-240.495 97.5598,-206.6053"/>
<polygon fill="#191970" stroke="#191970" points="1064.0137,-640.3688 1074.2398,-637.5982 1064.5179,-633.387 1064.0137,-640.3688"/>
</g>
<!-- Node19 -->
<g id="node19" class="node">
<title>Node19</title>
<g id="a_node19"><a xlink:href="../../d5/d54/CaloRawClusterEval_8cc.html" target="_top" xlink:title="fun4all_coresoftware\l/blob/master/simulation\l/g4simulation/g4eval/CaloRawCluster\lEval.cc">
<polygon fill="none" stroke="#000000" points="572.5,-336.5 572.5,-392.5 779.5,-392.5 779.5,-336.5 572.5,-336.5"/>
<text text-anchor="start" x="580.5" y="-379.5" font-family="FreeSans" font-size="10.00" fill="#000000">fun4all_coresoftware</text>
<text text-anchor="start" x="580.5" y="-367.5" font-family="FreeSans" font-size="10.00" fill="#000000">/blob/master/simulation</text>
<text text-anchor="start" x="580.5" y="-355.5" font-family="FreeSans" font-size="10.00" fill="#000000">/g4simulation/g4eval/CaloRawCluster</text>
<text text-anchor="middle" x="676" y="-343.5" font-family="FreeSans" font-size="10.00" fill="#000000">Eval.cc</text>
</a>
</g>
</g>
<!-- Node1&#45;&gt;Node19 -->
<g id="edge34" class="edge">
<title>Node1&#45;&gt;Node19</title>
<path fill="none" stroke="#191970" d="M1064.6665,-614.2442C1036.9808,-604.4828 1007.2363,-592.5798 981,-579 874.9298,-524.0987 763.3289,-436.9184 709.2635,-392.5027"/>
<polygon fill="#191970" stroke="#191970" points="1063.7695,-617.6375 1074.3643,-617.6068 1066.0628,-611.0238 1063.7695,-617.6375"/>
</g>
<!-- Node20 -->
<g id="node20" class="node">
<title>Node20</title>
<g id="a_node20"><a xlink:href="../../d1/def/CaloRawTowerEval_8cc.html" target="_top" xlink:title="fun4all_coresoftware\l/blob/master/simulation\l/g4simulation/g4eval/CaloRawTower\lEval.cc">
<polygon fill="none" stroke="#000000" points="1410.5,-429.5 1410.5,-485.5 1611.5,-485.5 1611.5,-429.5 1410.5,-429.5"/>
<text text-anchor="start" x="1418.5" y="-472.5" font-family="FreeSans" font-size="10.00" fill="#000000">fun4all_coresoftware</text>
<text text-anchor="start" x="1418.5" y="-460.5" font-family="FreeSans" font-size="10.00" fill="#000000">/blob/master/simulation</text>
<text text-anchor="start" x="1418.5" y="-448.5" font-family="FreeSans" font-size="10.00" fill="#000000">/g4simulation/g4eval/CaloRawTower</text>
<text text-anchor="middle" x="1511" y="-436.5" font-family="FreeSans" font-size="10.00" fill="#000000">Eval.cc</text>
</a>
</g>
</g>
<!-- Node1&#45;&gt;Node20 -->
<g id="edge35" class="edge">
<title>Node1&#45;&gt;Node20</title>
<path fill="none" stroke="#191970" d="M1259.804,-628.2926C1325.9056,-616.5334 1406.0448,-598.9314 1434,-579 1442.7944,-572.7298 1474.867,-519.4475 1494.7396,-485.5564"/>
<polygon fill="#191970" stroke="#191970" points="1258.9891,-624.882 1249.7441,-630.0569 1260.1983,-631.7768 1258.9891,-624.882"/>
</g>
<!-- Node21 -->
<g id="node21" class="node">
<title>Node21</title>
<g id="a_node21"><a xlink:href="../../db/dc5/CaloTruthEval_8cc.html" target="_top" xlink:title="fun4all_coresoftware\l/blob/master/simulation\l/g4simulation/g4eval/CaloTruth\lEval.cc">
<polygon fill="none" stroke="#000000" points="1481.5,-522.5 1481.5,-578.5 1656.5,-578.5 1656.5,-522.5 1481.5,-522.5"/>
<text text-anchor="start" x="1489.5" y="-565.5" font-family="FreeSans" font-size="10.00" fill="#000000">fun4all_coresoftware</text>
<text text-anchor="start" x="1489.5" y="-553.5" font-family="FreeSans" font-size="10.00" fill="#000000">/blob/master/simulation</text>
<text text-anchor="start" x="1489.5" y="-541.5" font-family="FreeSans" font-size="10.00" fill="#000000">/g4simulation/g4eval/CaloTruth</text>
<text text-anchor="middle" x="1569" y="-529.5" font-family="FreeSans" font-size="10.00" fill="#000000">Eval.cc</text>
</a>
</g>
</g>
<!-- Node1&#45;&gt;Node21 -->
<g id="edge36" class="edge">
<title>Node1&#45;&gt;Node21</title>
<path fill="none" stroke="#191970" d="M1259.6169,-624.5136C1319.6523,-612.4266 1398.0358,-595.9084 1467,-579 1471.7323,-577.8398 1476.5778,-576.6143 1481.4625,-575.3496"/>
<polygon fill="#191970" stroke="#191970" points="1258.8816,-621.0913 1249.7657,-626.4904 1260.2589,-627.9545 1258.8816,-621.0913"/>
</g>
<!-- Node2&#45;&gt;Node3 -->
<g id="edge2" class="edge">
<title>Node2&#45;&gt;Node3</title>
<path fill="none" stroke="#191970" d="M1235.6123,-519.0055C1205.2607,-508.1906 1171.505,-496.1627 1141.9518,-485.6323"/>
<polygon fill="#191970" stroke="#191970" points="1234.7428,-522.4112 1245.3375,-522.4708 1237.0924,-515.8173 1234.7428,-522.4112"/>
</g>
<!-- Node2&#45;&gt;Node8 -->
<g id="edge28" class="edge">
<title>Node2&#45;&gt;Node8</title>
<path fill="none" stroke="#191970" d="M1313.7236,-512.7747C1297.6264,-453.6813 1266.9686,-341.1346 1254.0154,-293.583"/>
<polygon fill="#191970" stroke="#191970" points="1310.3596,-513.7425 1316.3649,-522.471 1317.1135,-511.9026 1310.3596,-513.7425"/>
</g>
<!-- Node17 -->
<g id="node17" class="node">
<title>Node17</title>
<g id="a_node17"><a xlink:href="../../d2/da2/JetRecoEval_8cc.html" target="_top" xlink:title="fun4all_coresoftware\l/blob/master/simulation\l/g4simulation/g4eval/JetRecoEval.cc">
<polygon fill="none" stroke="#000000" points="650.5,-81.5 650.5,-125.5 851.5,-125.5 851.5,-81.5 650.5,-81.5"/>
<text text-anchor="start" x="658.5" y="-112.5" font-family="FreeSans" font-size="10.00" fill="#000000">fun4all_coresoftware</text>
<text text-anchor="start" x="658.5" y="-100.5" font-family="FreeSans" font-size="10.00" fill="#000000">/blob/master/simulation</text>
<text text-anchor="middle" x="751" y="-88.5" font-family="FreeSans" font-size="10.00" fill="#000000">/g4simulation/g4eval/JetRecoEval.cc</text>
</a>
</g>
</g>
<!-- Node2&#45;&gt;Node17 -->
<g id="edge30" class="edge">
<title>Node2&#45;&gt;Node17</title>
<path fill="none" stroke="#191970" d="M1343.0265,-513.016C1359.9372,-476.1884 1382,-417.9068 1382,-364.5 1382,-364.5 1382,-364.5 1382,-271.5 1382,-163.0948 1029.83,-122.8991 851.6816,-109.5007"/>
<polygon fill="#191970" stroke="#191970" points="1339.7226,-511.8172 1338.6358,-522.3562 1346.0576,-514.7952 1339.7226,-511.8172"/>
</g>
<!-- Node2&#45;&gt;Node20 -->
<g id="edge29" class="edge">
<title>Node2&#45;&gt;Node20</title>
<path fill="none" stroke="#191970" d="M1389.5955,-517.8776C1410.7453,-507.3593 1433.9922,-495.798 1454.433,-485.6323"/>
<polygon fill="#191970" stroke="#191970" points="1387.755,-514.8839 1380.3598,-522.4708 1390.8722,-521.1516 1387.755,-514.8839"/>
</g>
<!-- Node4 -->
<g id="node4" class="node">
<title>Node4</title>
<g id="a_node4"><a xlink:href="../../da/d1b/QAG4SimulationCalorimeter_8cc.html" target="_top" xlink:title="fun4all_coresoftware\l/blob/master/offline\l/QA/modules/QAG4SimulationCalorimeter.cc">
<polygon fill="none" stroke="#000000" points="597.5,-249.5 597.5,-293.5 838.5,-293.5 838.5,-249.5 597.5,-249.5"/>
<text text-anchor="start" x="605.5" y="-280.5" font-family="FreeSans" font-size="10.00" fill="#000000">fun4all_coresoftware</text>
<text text-anchor="start" x="605.5" y="-268.5" font-family="FreeSans" font-size="10.00" fill="#000000">/blob/master/offline</text>
<text text-anchor="middle" x="718" y="-256.5" font-family="FreeSans" font-size="10.00" fill="#000000">/QA/modules/QAG4SimulationCalorimeter.cc</text>
</a>
</g>
</g>
<!-- Node3&#45;&gt;Node4 -->
<g id="edge3" class="edge">
<title>Node3&#45;&gt;Node4</title>
<path fill="none" stroke="#191970" d="M1052.2763,-419.4579C1042.7024,-388.1523 1028.1951,-347.1779 1015,-336 956.7345,-286.6417 921.6155,-316.2368 847,-300 837.3631,-297.903 827.324,-295.7063 817.2898,-293.5027"/>
<polygon fill="#191970" stroke="#191970" points="1048.9817,-420.6568 1055.2035,-429.2323 1055.6875,-418.6485 1048.9817,-420.6568"/>
</g>
<!-- Node5 -->
<g id="node5" class="node">
<title>Node5</title>
<g id="a_node5"><a xlink:href="../../d4/d11/QAG4SimulationCalorimeterSum_8cc.html" target="_top" xlink:title="fun4all_coresoftware\l/blob/master/offline\l/QA/modules/QAG4SimulationCalorimeter\lSum.cc">
<polygon fill="none" stroke="#000000" points="856.5,-243.5 856.5,-299.5 1085.5,-299.5 1085.5,-243.5 856.5,-243.5"/>
<text text-anchor="start" x="864.5" y="-286.5" font-family="FreeSans" font-size="10.00" fill="#000000">fun4all_coresoftware</text>
<text text-anchor="start" x="864.5" y="-274.5" font-family="FreeSans" font-size="10.00" fill="#000000">/blob/master/offline</text>
<text text-anchor="start" x="864.5" y="-262.5" font-family="FreeSans" font-size="10.00" fill="#000000">/QA/modules/QAG4SimulationCalorimeter</text>
<text text-anchor="middle" x="971" y="-250.5" font-family="FreeSans" font-size="10.00" fill="#000000">Sum.cc</text>
</a>
</g>
</g>
<!-- Node3&#45;&gt;Node5 -->
<g id="edge4" class="edge">
<title>Node3&#45;&gt;Node5</title>
<path fill="none" stroke="#191970" d="M1065.3067,-419.2104C1065.1848,-394.1257 1061.8179,-361.4037 1048,-336 1040.3342,-321.9066 1028.2336,-309.6126 1015.8757,-299.6449"/>
<polygon fill="#191970" stroke="#191970" points="1061.8041,-419.4077 1065.1812,-429.4498 1068.8036,-419.4935 1061.8041,-419.4077"/>
</g>
<!-- Node3&#45;&gt;Node6 -->
<g id="edge5" class="edge">
<title>Node3&#45;&gt;Node6</title>
<path fill="none" stroke="#191970" d="M1005.4415,-424.2519C983.7326,-411.712 959.5948,-397.769 940.0998,-386.5079"/>
<polygon fill="#191970" stroke="#191970" points="1003.8479,-427.3733 1014.2578,-429.3446 1007.3493,-421.3119 1003.8479,-427.3733"/>
</g>
<!-- Node3&#45;&gt;Node8 -->
<g id="edge25" class="edge">
<title>Node3&#45;&gt;Node8</title>
<path fill="none" stroke="#191970" d="M1098.8603,-422.4278C1108.407,-412.952 1118.66,-402.6485 1128,-393 1152.0601,-368.1453 1156.7524,-360.6717 1181,-336 1195.147,-321.6056 1211.4526,-305.8902 1224.4359,-293.5758"/>
<polygon fill="#191970" stroke="#191970" points="1096.3713,-419.9668 1091.7244,-429.4881 1101.2947,-424.9428 1096.3713,-419.9668"/>
</g>
<!-- Node3&#45;&gt;Node17 -->
<g id="edge27" class="edge">
<title>Node3&#45;&gt;Node17</title>
<path fill="none" stroke="#191970" d="M1082.7458,-420.1685C1103.9246,-374.4417 1129.9838,-296.4809 1094,-243 1040.3497,-163.2624 932.3853,-129.0811 851.8408,-114.4412"/>
<polygon fill="#191970" stroke="#191970" points="1079.4802,-418.8848 1078.3247,-429.4165 1085.7956,-421.9041 1079.4802,-418.8848"/>
</g>
<!-- Node3&#45;&gt;Node19 -->
<g id="edge26" class="edge">
<title>Node3&#45;&gt;Node19</title>
<path fill="none" stroke="#191970" d="M949.7154,-431.258C900.3131,-419.7042 841.7463,-405.8591 789,-393 785.9532,-392.2572 782.8611,-391.4999 779.7404,-390.7325"/>
<polygon fill="#191970" stroke="#191970" points="948.9351,-434.6698 959.4692,-433.5372 950.5279,-427.8535 948.9351,-434.6698"/>
</g>
<!-- Node6&#45;&gt;Node4 -->
<g id="edge6" class="edge">
<title>Node6&#45;&gt;Node4</title>
<path fill="none" stroke="#191970" d="M849.2274,-337.8269C821.4773,-323.801 787.8686,-306.814 761.6109,-293.5425"/>
<polygon fill="#191970" stroke="#191970" points="847.8909,-341.073 858.3946,-342.4603 851.0486,-334.8257 847.8909,-341.073"/>
</g>
<!-- Node6&#45;&gt;Node5 -->
<g id="edge7" class="edge">
<title>Node6&#45;&gt;Node5</title>
<path fill="none" stroke="#191970" d="M924.4114,-334.2934C932.6522,-323.1862 941.9464,-310.6593 950.0533,-299.7325"/>
<polygon fill="#191970" stroke="#191970" points="921.4997,-332.3438 918.352,-342.4603 927.1214,-336.5148 921.4997,-332.3438"/>
</g>
<!-- Node7 -->
<g id="node7" class="node">
<title>Node7</title>
<g id="a_node7"><a xlink:href="../../d0/dcc/CaloEvalStack_8cc.html" target="_top" xlink:title="fun4all_coresoftware\l/blob/master/simulation\l/g4simulation/g4eval/CaloEvalStack.cc">
<polygon fill="none" stroke="#000000" points="112.5,-249.5 112.5,-293.5 325.5,-293.5 325.5,-249.5 112.5,-249.5"/>
<text text-anchor="start" x="120.5" y="-280.5" font-family="FreeSans" font-size="10.00" fill="#000000">fun4all_coresoftware</text>
<text text-anchor="start" x="120.5" y="-268.5" font-family="FreeSans" font-size="10.00" fill="#000000">/blob/master/simulation</text>
<text text-anchor="middle" x="219" y="-256.5" font-family="FreeSans" font-size="10.00" fill="#000000">/g4simulation/g4eval/CaloEvalStack.cc</text>
</a>
</g>
</g>
<!-- Node6&#45;&gt;Node7 -->
<g id="edge8" class="edge">
<title>Node6&#45;&gt;Node7</title>
<path fill="none" stroke="#191970" d="M810.9763,-340.3225C803.2371,-338.7001 795.5029,-337.2266 788,-336 588.2409,-303.3418 533.7925,-332.4537 334,-300 323.2393,-298.2521 312.0051,-296.0063 300.9547,-293.5438"/>
<polygon fill="#191970" stroke="#191970" points="810.2496,-343.7462 820.7649,-342.4498 811.7363,-336.9058 810.2496,-343.7462"/>
</g>
<!-- Node6&#45;&gt;Node8 -->
<g id="edge9" class="edge">
<title>Node6&#45;&gt;Node8</title>
<path fill="none" stroke="#191970" d="M993.8268,-339.8182C1047.3409,-325.4344 1114.2552,-307.4487 1165.9926,-293.5425"/>
<polygon fill="#191970" stroke="#191970" points="992.7459,-336.4845 983.9972,-342.4603 994.5629,-343.2445 992.7459,-336.4845"/>
</g>
<!-- Node9 -->
<g id="node9" class="node">
<title>Node9</title>
<g id="a_node9"><a xlink:href="../../de/d49/JetTruthEval_8h.html" target="_top" xlink:title="fun4all_coresoftware\l/blob/master/simulation\l/g4simulation/g4eval/JetTruthEval.h">
<polygon fill="none" stroke="#000000" points="343.5,-249.5 343.5,-293.5 540.5,-293.5 540.5,-249.5 343.5,-249.5"/>
<text text-anchor="start" x="351.5" y="-280.5" font-family="FreeSans" font-size="10.00" fill="#000000">fun4all_coresoftware</text>
<text text-anchor="start" x="351.5" y="-268.5" font-family="FreeSans" font-size="10.00" fill="#000000">/blob/master/simulation</text>
<text text-anchor="middle" x="442" y="-256.5" font-family="FreeSans" font-size="10.00" fill="#000000">/g4simulation/g4eval/JetTruthEval.h</text>
</a>
</g>
</g>
<!-- Node6&#45;&gt;Node9 -->
<g id="edge10" class="edge">
<title>Node6&#45;&gt;Node9</title>
<path fill="none" stroke="#191970" d="M807.7518,-340.2257C801.0828,-338.7274 794.4492,-337.3015 788,-336 685.2865,-315.2713 657.6919,-320.8356 555,-300 545.4824,-298.0689 535.5612,-295.8601 525.7224,-293.5454"/>
<polygon fill="#191970" stroke="#191970" points="807.0016,-343.6445 817.5307,-342.4666 808.5652,-336.8213 807.0016,-343.6445"/>
</g>
<!-- Node6&#45;&gt;Node17 -->
<g id="edge24" class="edge">
<title>Node6&#45;&gt;Node17</title>
<path fill="none" stroke="#191970" d="M806.6395,-340.1605C800.3421,-338.7075 794.0867,-337.3071 788,-336 743.8479,-326.5184 616.9658,-334.6452 588,-300 535.1905,-236.8361 644.8321,-161.8815 708.9832,-125.5008"/>
<polygon fill="#191970" stroke="#191970" points="806.0173,-343.6094 816.5519,-342.4811 807.613,-336.7937 806.0173,-343.6094"/>
</g>
<!-- Node10 -->
<g id="node10" class="node">
<title>Node10</title>
<g id="a_node10"><a xlink:href="../../d3/d23/QAG4SimulationJet_8cc.html" target="_top" xlink:title="fun4all_coresoftware\l/blob/master/offline\l/QA/modules/QAG4SimulationJet.cc">
<polygon fill="none" stroke="#000000" points="119,-.5 119,-44.5 315,-44.5 315,-.5 119,-.5"/>
<text text-anchor="start" x="127" y="-31.5" font-family="FreeSans" font-size="10.00" fill="#000000">fun4all_coresoftware</text>
<text text-anchor="start" x="127" y="-19.5" font-family="FreeSans" font-size="10.00" fill="#000000">/blob/master/offline</text>
<text text-anchor="middle" x="217" y="-7.5" font-family="FreeSans" font-size="10.00" fill="#000000">/QA/modules/QAG4SimulationJet.cc</text>
</a>
</g>
</g>
<!-- Node9&#45;&gt;Node10 -->
<g id="edge11" class="edge">
<title>Node9&#45;&gt;Node10</title>
<path fill="none" stroke="#191970" d="M356.3354,-245.413C335.3168,-235.9075 314.2219,-223.3429 298,-207 251.6691,-160.3236 229.7029,-82.7011 221.3023,-44.7574"/>
<polygon fill="#191970" stroke="#191970" points="355.0773,-248.6821 365.6454,-249.4343 357.853,-242.2559 355.0773,-248.6821"/>
</g>
<!-- Node11 -->
<g id="node11" class="node">
<title>Node11</title>
<g id="a_node11"><a xlink:href="../../da/d50/JetRecoEval_8h.html" target="_top" xlink:title="fun4all_coresoftware\l/blob/master/simulation\l/g4simulation/g4eval/JetRecoEval.h">
<polygon fill="none" stroke="#000000" points="307,-162.5 307,-206.5 503,-206.5 503,-162.5 307,-162.5"/>
<text text-anchor="start" x="315" y="-193.5" font-family="FreeSans" font-size="10.00" fill="#000000">fun4all_coresoftware</text>
<text text-anchor="start" x="315" y="-181.5" font-family="FreeSans" font-size="10.00" fill="#000000">/blob/master/simulation</text>
<text text-anchor="middle" x="405" y="-169.5" font-family="FreeSans" font-size="10.00" fill="#000000">/g4simulation/g4eval/JetRecoEval.h</text>
</a>
</g>
</g>
<!-- Node9&#45;&gt;Node11 -->
<g id="edge12" class="edge">
<title>Node9&#45;&gt;Node11</title>
<path fill="none" stroke="#191970" d="M428.5011,-239.7593C423.8087,-228.726 418.6523,-216.6014 414.368,-206.5276"/>
<polygon fill="#191970" stroke="#191970" points="425.337,-241.2628 432.4716,-249.0953 431.7787,-238.5232 425.337,-241.2628"/>
</g>
<!-- Node9&#45;&gt;Node17 -->
<g id="edge22" class="edge">
<title>Node9&#45;&gt;Node17</title>
<path fill="none" stroke="#191970" d="M474.2716,-242.5537C486.2747,-231.5823 499.91,-218.8726 512,-207 531.7373,-187.6177 531.4035,-176.4375 555,-162 573.4775,-150.6945 618.8576,-136.8786 661.3022,-125.5125"/>
<polygon fill="#191970" stroke="#191970" points="471.6935,-240.1675 466.6523,-249.4861 476.4044,-245.3451 471.6935,-240.1675"/>
</g>
<!-- Node9&#45;&gt;Node18 -->
<g id="edge23" class="edge">
<title>Node9&#45;&gt;Node18</title>
<path fill="none" stroke="#191970" d="M349.0578,-246.8973C343.9657,-245.5731 338.9208,-244.267 334,-243 286.4412,-230.755 233.3384,-217.3979 189.8533,-206.5424"/>
<polygon fill="#191970" stroke="#191970" points="348.3287,-250.3241 358.8882,-249.4601 350.0947,-243.5505 348.3287,-250.3241"/>
</g>
<!-- Node11&#45;&gt;Node10 -->
<g id="edge13" class="edge">
<title>Node11&#45;&gt;Node10</title>
<path fill="none" stroke="#191970" d="M371.2733,-155.4376C334.3937,-123.6584 276.1083,-73.4338 242.7364,-44.6771"/>
<polygon fill="#191970" stroke="#191970" points="369.3934,-158.4379 379.2536,-162.3143 373.9628,-153.135 369.3934,-158.4379"/>
</g>
<!-- Node12 -->
<g id="node12" class="node">
<title>Node12</title>
<g id="a_node12"><a xlink:href="../../db/de2/JetEvalStack_8h.html" target="_top" xlink:title="fun4all_coresoftware\l/blob/master/simulation\l/g4simulation/g4eval/JetEvalStack.h">
<polygon fill="none" stroke="#000000" points="433.5,-81.5 433.5,-125.5 632.5,-125.5 632.5,-81.5 433.5,-81.5"/>
<text text-anchor="start" x="441.5" y="-112.5" font-family="FreeSans" font-size="10.00" fill="#000000">fun4all_coresoftware</text>
<text text-anchor="start" x="441.5" y="-100.5" font-family="FreeSans" font-size="10.00" fill="#000000">/blob/master/simulation</text>
<text text-anchor="middle" x="533" y="-88.5" font-family="FreeSans" font-size="10.00" fill="#000000">/g4simulation/g4eval/JetEvalStack.h</text>
</a>
</g>
</g>
<!-- Node11&#45;&gt;Node12 -->
<g id="edge14" class="edge">
<title>Node11&#45;&gt;Node12</title>
<path fill="none" stroke="#191970" d="M448.6993,-156.8465C464.8085,-146.6524 482.8319,-135.247 498.0657,-125.6068"/>
<polygon fill="#191970" stroke="#191970" points="446.5552,-154.0614 439.9766,-162.3664 450.2984,-159.9765 446.5552,-154.0614"/>
</g>
<!-- Node14 -->
<g id="node14" class="node">
<title>Node14</title>
<g id="a_node14"><a xlink:href="../../dd/db5/JetEvaluator_8cc.html" target="_top" xlink:title="fun4all_coresoftware\l/blob/master/simulation\l/g4simulation/g4eval/JetEvaluator.cc">
<polygon fill="none" stroke="#000000" points="333,-.5 333,-44.5 535,-44.5 535,-.5 333,-.5"/>
<text text-anchor="start" x="341" y="-31.5" font-family="FreeSans" font-size="10.00" fill="#000000">fun4all_coresoftware</text>
<text text-anchor="start" x="341" y="-19.5" font-family="FreeSans" font-size="10.00" fill="#000000">/blob/master/simulation</text>
<text text-anchor="middle" x="434" y="-7.5" font-family="FreeSans" font-size="10.00" fill="#000000">/g4simulation/g4eval/JetEvaluator.cc</text>
</a>
</g>
</g>
<!-- Node11&#45;&gt;Node14 -->
<g id="edge20" class="edge">
<title>Node11&#45;&gt;Node14</title>
<path fill="none" stroke="#191970" d="M410.7871,-152.172C416.4915,-120.3062 425.0553,-72.4671 430.03,-44.6771"/>
<polygon fill="#191970" stroke="#191970" points="407.2885,-151.854 408.9715,-162.3143 414.1789,-153.0875 407.2885,-151.854"/>
</g>
<!-- Node11&#45;&gt;Node17 -->
<g id="edge21" class="edge">
<title>Node11&#45;&gt;Node17</title>
<path fill="none" stroke="#191970" d="M508.9922,-160.155C556.0097,-149.148 611.1606,-136.237 656.9297,-125.5222"/>
<polygon fill="#191970" stroke="#191970" points="508.0279,-156.786 499.089,-162.4734 509.6236,-163.6018 508.0279,-156.786"/>
</g>
<!-- Node12&#45;&gt;Node10 -->
<g id="edge15" class="edge">
<title>Node12&#45;&gt;Node10</title>
<path fill="none" stroke="#191970" d="M437.215,-78.9475C394.4517,-67.986 344.4523,-55.1697 302.9139,-44.5222"/>
<polygon fill="#191970" stroke="#191970" points="436.5131,-82.3807 447.069,-81.4734 438.2513,-75.5999 436.5131,-82.3807"/>
</g>
<!-- Node13 -->
<g id="node13" class="node">
<title>Node13</title>
<g id="a_node13"><a xlink:href="../../d5/dab/JetEvalStack_8cc.html" target="_top" xlink:title="fun4all_coresoftware\l/blob/master/simulation\l/g4simulation/g4eval/JetEvalStack.cc">
<polygon fill="none" stroke="#000000" points="853,-.5 853,-44.5 1057,-44.5 1057,-.5 853,-.5"/>
<text text-anchor="start" x="861" y="-31.5" font-family="FreeSans" font-size="10.00" fill="#000000">fun4all_coresoftware</text>
<text text-anchor="start" x="861" y="-19.5" font-family="FreeSans" font-size="10.00" fill="#000000">/blob/master/simulation</text>
<text text-anchor="middle" x="955" y="-7.5" font-family="FreeSans" font-size="10.00" fill="#000000">/g4simulation/g4eval/JetEvalStack.cc</text>
</a>
</g>
</g>
<!-- Node12&#45;&gt;Node13 -->
<g id="edge16" class="edge">
<title>Node12&#45;&gt;Node13</title>
<path fill="none" stroke="#191970" d="M642.7649,-80.6823C732.2264,-63.559 756.5526,-61.3845 843,-45 846.2152,-44.3906 849.4812,-43.7663 852.7781,-43.1316"/>
<polygon fill="#191970" stroke="#191970" points="641.8787,-77.2886 632.7202,-82.615 643.2014,-84.1625 641.8787,-77.2886"/>
</g>
<!-- Node12&#45;&gt;Node14 -->
<g id="edge17" class="edge">
<title>Node12&#45;&gt;Node14</title>
<path fill="none" stroke="#191970" d="M498.1597,-74.9943C485.9691,-65.0201 472.4746,-53.9792 461.0195,-44.6068"/>
<polygon fill="#191970" stroke="#191970" points="495.9919,-77.7428 505.9478,-81.3664 500.4246,-72.3251 495.9919,-77.7428"/>
</g>
<!-- Node15 -->
<g id="node15" class="node">
<title>Node15</title>
<g id="a_node15"><a xlink:href="../../d0/d67/AnaTutorial_8cc.html" target="_top" xlink:title="fun4all_tutorials/blob\l/master/AnaTutorial/src\l/AnaTutorial.cc">
<polygon fill="none" stroke="#000000" points="553,-.5 553,-44.5 687,-44.5 687,-.5 553,-.5"/>
<text text-anchor="start" x="561" y="-31.5" font-family="FreeSans" font-size="10.00" fill="#000000">fun4all_tutorials/blob</text>
<text text-anchor="start" x="561" y="-19.5" font-family="FreeSans" font-size="10.00" fill="#000000">/master/AnaTutorial/src</text>
<text text-anchor="middle" x="620" y="-7.5" font-family="FreeSans" font-size="10.00" fill="#000000">/AnaTutorial.cc</text>
</a>
</g>
</g>
<!-- Node12&#45;&gt;Node15 -->
<g id="edge18" class="edge">
<title>Node12&#45;&gt;Node15</title>
<path fill="none" stroke="#191970" d="M564.2307,-74.4232C574.7813,-64.6001 586.3808,-53.8007 596.2556,-44.6068"/>
<polygon fill="#191970" stroke="#191970" points="561.7071,-71.9905 556.7731,-81.3664 566.4771,-77.1138 561.7071,-71.9905"/>
</g>
<!-- Node16 -->
<g id="node16" class="node">
<title>Node16</title>
<g id="a_node16"><a xlink:href="../../da/dc2/MyJetAnalysis_8cc.html" target="_top" xlink:title="fun4all_tutorials/blob\l/master/myjetanalysis\l/src/MyJetAnalysis.cc">
<polygon fill="none" stroke="#000000" points="705.5,-.5 705.5,-44.5 834.5,-44.5 834.5,-.5 705.5,-.5"/>
<text text-anchor="start" x="713.5" y="-31.5" font-family="FreeSans" font-size="10.00" fill="#000000">fun4all_tutorials/blob</text>
<text text-anchor="start" x="713.5" y="-19.5" font-family="FreeSans" font-size="10.00" fill="#000000">/master/myjetanalysis</text>
<text text-anchor="middle" x="770" y="-7.5" font-family="FreeSans" font-size="10.00" fill="#000000">/src/MyJetAnalysis.cc</text>
</a>
</g>
</g>
<!-- Node12&#45;&gt;Node16 -->
<g id="edge19" class="edge">
<title>Node12&#45;&gt;Node16</title>
<path fill="none" stroke="#191970" d="M607.0755,-78.1831C638.6446,-67.3936 675.1322,-54.9232 705.5646,-44.5222"/>
<polygon fill="#191970" stroke="#191970" points="605.7789,-74.9274 597.4482,-81.4734 608.0428,-81.5512 605.7789,-74.9274"/>
</g>
</g>
</svg>
