<?xml version="1.0" encoding="UTF-8" standalone="no"?>
<!DOCTYPE svg PUBLIC "-//W3C//DTD SVG 1.1//EN"
 "http://www.w3.org/Graphics/SVG/1.1/DTD/svg11.dtd">
<!-- Generated by graphviz version 2.40.1 (20161225.0304)
 -->
<!-- Title: Fun4AllDstInputManager::ReadNextEventSyncObject Pages: 1 -->
<svg width="1188pt" height="490pt"
 viewBox="0.00 0.00 1188.00 490.29" xmlns="http://www.w3.org/2000/svg" xmlns:xlink="http://www.w3.org/1999/xlink">
<g id="graph0" class="graph" transform="scale(1 1) rotate(0) translate(4 486.2912)">
<title>Fun4AllDstInputManager::ReadNextEventSyncObject</title>
<!-- Node1 -->
<g id="node1" class="node">
<title>Node1</title>
<polygon fill="#bfbfbf" stroke="#000000" points="0,-236.7912 0,-268.7912 158,-268.7912 158,-236.7912 0,-236.7912"/>
<text text-anchor="start" x="8" y="-255.7912" font-family="FreeSans" font-size="10.00" fill="#000000">Fun4AllDstInputManager</text>
<text text-anchor="middle" x="79" y="-243.7912" font-family="FreeSans" font-size="10.00" fill="#000000">::ReadNextEventSyncObject</text>
</g>
<!-- Node2 -->
<g id="node2" class="node">
<title>Node2</title>
<g id="a_node2"><a xlink:href="../../d7/d0b/classFun4AllDstInputManager.html#acc1f41cde35bb897b779bea7fb452e78" target="_top" xlink:title="Fun4AllDstInputManager\l::fileclose">
<polygon fill="none" stroke="#000000" points="220,-398.7912 220,-430.7912 361,-430.7912 361,-398.7912 220,-398.7912"/>
<text text-anchor="start" x="228" y="-417.7912" font-family="FreeSans" font-size="10.00" fill="#000000">Fun4AllDstInputManager</text>
<text text-anchor="middle" x="290.5" y="-405.7912" font-family="FreeSans" font-size="10.00" fill="#000000">::fileclose</text>
</a>
</g>
</g>
<!-- Node1&#45;&gt;Node2 -->
<g id="edge1" class="edge">
<title>Node1&#45;&gt;Node2</title>
<path fill="none" stroke="#191970" d="M88.9619,-269.004C106.7071,-296.563 146.428,-352.5835 194,-383.7912 200.4658,-388.0329 207.5554,-391.7318 214.864,-394.9492"/>
<polygon fill="#191970" stroke="#191970" points="213.6277,-398.2249 224.2084,-398.7719 216.2781,-391.7461 213.6277,-398.2249"/>
</g>
<!-- Node4 -->
<g id="node4" class="node">
<title>Node4</title>
<g id="a_node4"><a xlink:href="../../d5/dec/classFun4AllBase.html#a41f9ac377743d046f590617fd6f4f0ed" target="_top" xlink:title="Returns the name of this module.">
<polygon fill="none" stroke="#000000" points="460,-359.7912 460,-379.7912 575,-379.7912 575,-359.7912 460,-359.7912"/>
<text text-anchor="middle" x="517.5" y="-366.7912" font-family="FreeSans" font-size="10.00" fill="#000000">Fun4AllBase::Name</text>
</a>
</g>
</g>
<!-- Node1&#45;&gt;Node4 -->
<g id="edge8" class="edge">
<title>Node1&#45;&gt;Node4</title>
<path fill="none" stroke="#191970" d="M91.8051,-268.9182C111.1339,-291.8853 150.1906,-333.1808 194,-350.7912 277.2905,-384.2721 382.4265,-383.3983 449.82,-377.9883"/>
<polygon fill="#191970" stroke="#191970" points="450.2286,-381.4661 459.8925,-377.1233 449.6296,-374.4918 450.2286,-381.4661"/>
</g>
<!-- Node6 -->
<g id="node6" class="node">
<title>Node6</title>
<g id="a_node6"><a xlink:href="../../d7/d4d/classPHNodeIOManager.html#aecc6cb5d504ebfcf073084cc4dc79634" target="_top" xlink:title="PHNodeIOManager::GetBranchMap">
<polygon fill="none" stroke="#000000" points="194,-320.7912 194,-340.7912 387,-340.7912 387,-320.7912 194,-320.7912"/>
<text text-anchor="middle" x="290.5" y="-327.7912" font-family="FreeSans" font-size="10.00" fill="#000000">PHNodeIOManager::GetBranchMap</text>
</a>
</g>
</g>
<!-- Node1&#45;&gt;Node6 -->
<g id="edge5" class="edge">
<title>Node1&#45;&gt;Node6</title>
<path fill="none" stroke="#191970" d="M105.0144,-268.8162C127.7325,-282.1466 161.9912,-300.6764 194,-311.7912 201.2019,-314.292 208.8271,-316.4985 216.5087,-318.4372"/>
<polygon fill="#191970" stroke="#191970" points="215.703,-321.8431 226.2414,-320.7516 217.3225,-315.033 215.703,-321.8431"/>
</g>
<!-- Node8 -->
<g id="node8" class="node">
<title>Node8</title>
<g id="a_node8"><a xlink:href="../../d0/d36/classPHIOManager.html#aea7d5c3333137f593ad4cfc8f9c30466" target="_top" xlink:title="PHIOManager::getEventNumber">
<polygon fill="none" stroke="#000000" points="201.5,-281.7912 201.5,-301.7912 379.5,-301.7912 379.5,-281.7912 201.5,-281.7912"/>
<text text-anchor="middle" x="290.5" y="-288.7912" font-family="FreeSans" font-size="10.00" fill="#000000">PHIOManager::getEventNumber</text>
</a>
</g>
</g>
<!-- Node1&#45;&gt;Node8 -->
<g id="edge7" class="edge">
<title>Node1&#45;&gt;Node8</title>
<path fill="none" stroke="#191970" d="M158.0556,-267.3689C180.5419,-271.5153 204.7512,-275.9794 226.2431,-279.9424"/>
<polygon fill="#191970" stroke="#191970" points="225.7631,-283.4129 236.232,-281.7844 227.0325,-276.5289 225.7631,-283.4129"/>
</g>
<!-- Node9 -->
<g id="node9" class="node">
<title>Node9</title>
<g id="a_node9"><a xlink:href="../../d4/da9/classFun4AllInputManager.html#a56a5ff5007fc3dffcecda8573bb0d48f" target="_top" xlink:title="Fun4AllInputManager\l::OpenNextFile">
<polygon fill="none" stroke="#000000" points="228,-191.7912 228,-223.7912 353,-223.7912 353,-191.7912 228,-191.7912"/>
<text text-anchor="start" x="236" y="-210.7912" font-family="FreeSans" font-size="10.00" fill="#000000">Fun4AllInputManager</text>
<text text-anchor="middle" x="290.5" y="-198.7912" font-family="FreeSans" font-size="10.00" fill="#000000">::OpenNextFile</text>
</a>
</g>
</g>
<!-- Node1&#45;&gt;Node9 -->
<g id="edge9" class="edge">
<title>Node1&#45;&gt;Node9</title>
<path fill="none" stroke="#191970" d="M154.4606,-236.7358C175.1564,-232.3324 197.5425,-227.5694 218.0644,-223.2031"/>
<polygon fill="#191970" stroke="#191970" points="218.9208,-226.5993 227.9734,-221.0948 217.464,-219.7525 218.9208,-226.5993"/>
</g>
<!-- Node10 -->
<g id="node10" class="node">
<title>Node10</title>
<g id="a_node10"><a xlink:href="../../d5/dec/classFun4AllBase.html#a8a5c77a92bdac6bc043476e132379a40" target="_top" xlink:title="Gets the verbosity of this module.">
<polygon fill="none" stroke="#000000" points="451.5,-244.7912 451.5,-264.7912 583.5,-264.7912 583.5,-244.7912 451.5,-244.7912"/>
<text text-anchor="middle" x="517.5" y="-251.7912" font-family="FreeSans" font-size="10.00" fill="#000000">Fun4AllBase::Verbosity</text>
</a>
</g>
</g>
<!-- Node1&#45;&gt;Node10 -->
<g id="edge37" class="edge">
<title>Node1&#45;&gt;Node10</title>
<path fill="none" stroke="#191970" d="M158.1551,-253.1523C238.4259,-253.5184 361.8061,-254.0811 441.0801,-254.4427"/>
<polygon fill="#191970" stroke="#191970" points="441.4673,-257.9444 451.4832,-254.4901 441.4993,-250.9445 441.4673,-257.9444"/>
</g>
<!-- Node12 -->
<g id="node12" class="node">
<title>Node12</title>
<g id="a_node12"><a xlink:href="../../d7/d4d/classPHNodeIOManager.html#a9e0aa24bf4a67163e8209497ed89af73" target="_top" xlink:title="PHNodeIOManager::read">
<polygon fill="none" stroke="#000000" points="220.5,-149.7912 220.5,-169.7912 360.5,-169.7912 360.5,-149.7912 220.5,-149.7912"/>
<text text-anchor="middle" x="290.5" y="-156.7912" font-family="FreeSans" font-size="10.00" fill="#000000">PHNodeIOManager::read</text>
</a>
</g>
</g>
<!-- Node1&#45;&gt;Node12 -->
<g id="edge12" class="edge">
<title>Node1&#45;&gt;Node12</title>
<path fill="none" stroke="#191970" d="M100.7969,-236.6466C123.1406,-220.8083 159.4166,-197.0224 194,-182.7912 203.9382,-178.7016 214.7648,-175.2392 225.4563,-172.3412"/>
<polygon fill="#191970" stroke="#191970" points="226.3928,-175.7144 235.2077,-169.8366 224.6513,-168.9344 226.3928,-175.7144"/>
</g>
<!-- Node29 -->
<g id="node29" class="node">
<title>Node29</title>
<g id="a_node29"><a xlink:href="../../d7/d4d/classPHNodeIOManager.html#a46838c856432158c96650747545e0645" target="_top" xlink:title="PHNodeIOManager::readSpecific">
<polygon fill="none" stroke="#000000" points="200.5,-110.7912 200.5,-130.7912 380.5,-130.7912 380.5,-110.7912 200.5,-110.7912"/>
<text text-anchor="middle" x="290.5" y="-117.7912" font-family="FreeSans" font-size="10.00" fill="#000000">PHNodeIOManager::readSpecific</text>
</a>
</g>
</g>
<!-- Node1&#45;&gt;Node29 -->
<g id="edge34" class="edge">
<title>Node1&#45;&gt;Node29</title>
<path fill="none" stroke="#191970" d="M90.7329,-236.4998C109.5473,-211.6679 148.9589,-164.7157 194,-140.7912 198.8164,-138.2329 203.9294,-136.0016 209.1906,-134.0556"/>
<polygon fill="#191970" stroke="#191970" points="210.4113,-137.338 218.7885,-130.8517 208.1948,-130.6982 210.4113,-137.338"/>
</g>
<!-- Node30 -->
<g id="node30" class="node">
<title>Node30</title>
<g id="a_node30"><a xlink:href="../../d0/d36/classPHIOManager.html#aee0b0ab22284ccb71cdcc57d392c7432" target="_top" xlink:title="PHIOManager::setEventNumber">
<polygon fill="none" stroke="#000000" points="202,-71.7912 202,-91.7912 379,-91.7912 379,-71.7912 202,-71.7912"/>
<text text-anchor="middle" x="290.5" y="-78.7912" font-family="FreeSans" font-size="10.00" fill="#000000">PHIOManager::setEventNumber</text>
</a>
</g>
</g>
<!-- Node1&#45;&gt;Node30 -->
<g id="edge36" class="edge">
<title>Node1&#45;&gt;Node30</title>
<path fill="none" stroke="#191970" d="M86.4507,-236.5063C101.758,-205.0117 139.9099,-135.8644 194,-101.7912 197.583,-99.5342 201.3751,-97.5266 205.3025,-95.7414"/>
<polygon fill="#191970" stroke="#191970" points="206.7082,-98.9486 214.6771,-91.9666 204.0935,-92.4552 206.7082,-98.9486"/>
</g>
<!-- Node3 -->
<g id="node3" class="node">
<title>Node3</title>
<g id="a_node3"><a xlink:href="../../d4/da9/classFun4AllInputManager.html#a7e22df6cae3040d6bf3d864c75131858" target="_top" xlink:title="Fun4AllInputManager\l::IsOpen">
<polygon fill="none" stroke="#000000" points="455,-398.7912 455,-430.7912 580,-430.7912 580,-398.7912 455,-398.7912"/>
<text text-anchor="start" x="463" y="-417.7912" font-family="FreeSans" font-size="10.00" fill="#000000">Fun4AllInputManager</text>
<text text-anchor="middle" x="517.5" y="-405.7912" font-family="FreeSans" font-size="10.00" fill="#000000">::IsOpen</text>
</a>
</g>
</g>
<!-- Node2&#45;&gt;Node3 -->
<g id="edge2" class="edge">
<title>Node2&#45;&gt;Node3</title>
<path fill="none" stroke="#191970" d="M361.0799,-414.7912C387.6232,-414.7912 417.8392,-414.7912 444.5905,-414.7912"/>
<polygon fill="#191970" stroke="#191970" points="444.6587,-418.2913 454.6587,-414.7912 444.6587,-411.2913 444.6587,-418.2913"/>
</g>
<!-- Node2&#45;&gt;Node4 -->
<g id="edge3" class="edge">
<title>Node2&#45;&gt;Node4</title>
<path fill="none" stroke="#191970" d="M361.0799,-400.7996C391.699,-394.7298 427.2054,-387.691 456.6428,-381.8554"/>
<polygon fill="#191970" stroke="#191970" points="457.6557,-385.2228 466.7842,-379.845 456.2944,-378.3565 457.6557,-385.2228"/>
</g>
<!-- Node5 -->
<g id="node5" class="node">
<title>Node5</title>
<g id="a_node5"><a xlink:href="../../d4/da9/classFun4AllInputManager.html#a78a9801eec02c6002268798fddb2381a" target="_top" xlink:title="Fun4AllInputManager\l::UpdateFileList">
<polygon fill="none" stroke="#000000" points="455,-449.7912 455,-481.7912 580,-481.7912 580,-449.7912 455,-449.7912"/>
<text text-anchor="start" x="463" y="-468.7912" font-family="FreeSans" font-size="10.00" fill="#000000">Fun4AllInputManager</text>
<text text-anchor="middle" x="517.5" y="-456.7912" font-family="FreeSans" font-size="10.00" fill="#000000">::UpdateFileList</text>
</a>
</g>
</g>
<!-- Node2&#45;&gt;Node5 -->
<g id="edge4" class="edge">
<title>Node2&#45;&gt;Node5</title>
<path fill="none" stroke="#191970" d="M361.0799,-430.6484C387.6232,-436.6119 417.8392,-443.4005 444.5905,-449.4107"/>
<polygon fill="#191970" stroke="#191970" points="444.1347,-452.8955 454.6587,-451.6727 445.6692,-446.0657 444.1347,-452.8955"/>
</g>
<!-- Node7 -->
<g id="node7" class="node">
<title>Node7</title>
<g id="a_node7"><a xlink:href="../../d7/d4d/classPHNodeIOManager.html#a30f1ed446167baeafca6e05b5fe25ed9" target="_top" xlink:title="PHNodeIOManager::FillBranchMap">
<polygon fill="none" stroke="#000000" points="423,-320.7912 423,-340.7912 612,-340.7912 612,-320.7912 423,-320.7912"/>
<text text-anchor="middle" x="517.5" y="-327.7912" font-family="FreeSans" font-size="10.00" fill="#000000">PHNodeIOManager::FillBranchMap</text>
</a>
</g>
</g>
<!-- Node6&#45;&gt;Node7 -->
<g id="edge6" class="edge">
<title>Node6&#45;&gt;Node7</title>
<path fill="none" stroke="#191970" d="M387.0976,-330.7912C395.5974,-330.7912 404.2265,-330.7912 412.7886,-330.7912"/>
<polygon fill="#191970" stroke="#191970" points="412.7971,-334.2913 422.7971,-330.7912 412.797,-327.2913 412.7971,-334.2913"/>
</g>
<!-- Node9&#45;&gt;Node10 -->
<g id="edge10" class="edge">
<title>Node9&#45;&gt;Node10</title>
<path fill="none" stroke="#191970" d="M353.1568,-221.164C375.2227,-225.8385 400.2032,-231.0909 423,-235.7912 434.0286,-238.0651 445.7884,-240.4564 457.133,-242.7461"/>
<polygon fill="#191970" stroke="#191970" points="456.4727,-246.1833 466.9669,-244.7267 457.8548,-239.3211 456.4727,-246.1833"/>
</g>
<!-- Node11 -->
<g id="node11" class="node">
<title>Node11</title>
<g id="a_node11"><a xlink:href="../../d4/da9/classFun4AllInputManager.html#a8ad787f847a175450ec5beddeaa33ca6" target="_top" xlink:title="Fun4AllInputManager\l::fileopen">
<polygon fill="none" stroke="#000000" points="455,-193.7912 455,-225.7912 580,-225.7912 580,-193.7912 455,-193.7912"/>
<text text-anchor="start" x="463" y="-212.7912" font-family="FreeSans" font-size="10.00" fill="#000000">Fun4AllInputManager</text>
<text text-anchor="middle" x="517.5" y="-200.7912" font-family="FreeSans" font-size="10.00" fill="#000000">::fileopen</text>
</a>
</g>
</g>
<!-- Node9&#45;&gt;Node11 -->
<g id="edge11" class="edge">
<title>Node9&#45;&gt;Node11</title>
<path fill="none" stroke="#191970" d="M353.1296,-208.343C381.4209,-208.5923 415.0288,-208.8884 444.4605,-209.1477"/>
<polygon fill="#191970" stroke="#191970" points="444.6506,-212.6494 454.6811,-209.2378 444.7123,-205.6497 444.6506,-212.6494"/>
</g>
<!-- Node13 -->
<g id="node13" class="node">
<title>Node13</title>
<g id="a_node13"><a xlink:href="../../d7/d4d/classPHNodeIOManager.html#a3882997324989c7dd04e9f6b728af7db" target="_top" xlink:title="PHNodeIOManager::reconstruct\lNodeTree">
<polygon fill="none" stroke="#000000" points="429.5,-142.7912 429.5,-174.7912 605.5,-174.7912 605.5,-142.7912 429.5,-142.7912"/>
<text text-anchor="start" x="437.5" y="-161.7912" font-family="FreeSans" font-size="10.00" fill="#000000">PHNodeIOManager::reconstruct</text>
<text text-anchor="middle" x="517.5" y="-149.7912" font-family="FreeSans" font-size="10.00" fill="#000000">NodeTree</text>
</a>
</g>
</g>
<!-- Node12&#45;&gt;Node13 -->
<g id="edge13" class="edge">
<title>Node12&#45;&gt;Node13</title>
<path fill="none" stroke="#191970" d="M360.7696,-159.4817C379.1761,-159.4006 399.3658,-159.3116 418.9511,-159.2254"/>
<polygon fill="#191970" stroke="#191970" points="419.1408,-162.7247 429.1253,-159.1805 419.1099,-155.7247 419.1408,-162.7247"/>
</g>
<!-- Node27 -->
<g id="node27" class="node">
<title>Node27</title>
<g id="a_node27"><a xlink:href="../../d7/d4d/classPHNodeIOManager.html#acc3853e9f1987e76bee74282bd3e188b" target="_top" xlink:title="PHNodeIOManager::readEvent\lFromFile">
<polygon fill="none" stroke="#000000" points="432.5,-48.7912 432.5,-80.7912 602.5,-80.7912 602.5,-48.7912 432.5,-48.7912"/>
<text text-anchor="start" x="440.5" y="-67.7912" font-family="FreeSans" font-size="10.00" fill="#000000">PHNodeIOManager::readEvent</text>
<text text-anchor="middle" x="517.5" y="-55.7912" font-family="FreeSans" font-size="10.00" fill="#000000">FromFile</text>
</a>
</g>
</g>
<!-- Node12&#45;&gt;Node27 -->
<g id="edge31" class="edge">
<title>Node12&#45;&gt;Node27</title>
<path fill="none" stroke="#191970" d="M356.9836,-149.7341C367.195,-147.3248 377.4947,-144.3786 387,-140.7912 423.2049,-127.1271 461.0417,-103.9557 486.5936,-86.7821"/>
<polygon fill="#191970" stroke="#191970" points="488.807,-89.5092 495.0965,-80.9832 484.8628,-83.726 488.807,-89.5092"/>
</g>
<!-- Node14 -->
<g id="node14" class="node">
<title>Node14</title>
<g id="a_node14"><a xlink:href="../../d5/d07/classPHNodeIterator.html#a63d6c37796624455366e84ee121bb251" target="_top" xlink:title="PHNodeIterator::cd">
<polygon fill="none" stroke="#000000" points="677,-319.7912 677,-339.7912 789,-339.7912 789,-319.7912 677,-319.7912"/>
<text text-anchor="middle" x="733" y="-326.7912" font-family="FreeSans" font-size="10.00" fill="#000000">PHNodeIterator::cd</text>
</a>
</g>
</g>
<!-- Node13&#45;&gt;Node14 -->
<g id="edge14" class="edge">
<title>Node13&#45;&gt;Node14</title>
<path fill="none" stroke="#191970" d="M598.9848,-174.943C603.7009,-177.7327 608.1014,-180.9899 612,-184.7912 651.5627,-223.3662 608.9882,-264.6592 648,-303.7912 653.5923,-309.4008 660.3591,-313.8061 667.6046,-317.2645"/>
<polygon fill="#191970" stroke="#191970" points="666.4082,-320.5574 676.986,-321.1583 669.0917,-314.0922 666.4082,-320.5574"/>
</g>
<!-- Node18 -->
<g id="node18" class="node">
<title>Node18</title>
<g id="a_node18"><a xlink:href="../../d5/d07/classPHNodeIterator.html#a13a9a1cb24b3523b6ad7d3684dd79259" target="_top" xlink:title="PHNodeIterator::addNode">
<polygon fill="none" stroke="#000000" points="660,-216.7912 660,-236.7912 806,-236.7912 806,-216.7912 660,-216.7912"/>
<text text-anchor="middle" x="733" y="-223.7912" font-family="FreeSans" font-size="10.00" fill="#000000">PHNodeIterator::addNode</text>
</a>
</g>
</g>
<!-- Node13&#45;&gt;Node18 -->
<g id="edge18" class="edge">
<title>Node13&#45;&gt;Node18</title>
<path fill="none" stroke="#191970" d="M585.4779,-174.8337C594.546,-177.7413 603.6044,-181.057 612,-184.7912 629.3481,-192.5074 630.4697,-200.4987 648,-207.7912 653.4558,-210.0608 659.2266,-212.0802 665.0891,-213.873"/>
<polygon fill="#191970" stroke="#191970" points="664.4271,-217.3231 675.0024,-216.6802 666.3344,-210.5879 664.4271,-217.3231"/>
</g>
<!-- Node22 -->
<g id="node22" class="node">
<title>Node22</title>
<g id="a_node22"><a xlink:href="../../d7/d4d/classPHNodeIOManager.html#a8be36f2013dddcf8026b0aeb9177dc7c" target="_top" xlink:title="PHNodeIOManager::getBranch\lClassName">
<polygon fill="none" stroke="#000000" points="648,-165.7912 648,-197.7912 818,-197.7912 818,-165.7912 648,-165.7912"/>
<text text-anchor="start" x="656" y="-184.7912" font-family="FreeSans" font-size="10.00" fill="#000000">PHNodeIOManager::getBranch</text>
<text text-anchor="middle" x="733" y="-172.7912" font-family="FreeSans" font-size="10.00" fill="#000000">ClassName</text>
</a>
</g>
</g>
<!-- Node13&#45;&gt;Node22 -->
<g id="edge23" class="edge">
<title>Node13&#45;&gt;Node22</title>
<path fill="none" stroke="#191970" d="M605.7739,-168.2126C616.3442,-169.3407 627.1731,-170.4965 637.8354,-171.6345"/>
<polygon fill="#191970" stroke="#191970" points="637.6781,-175.1375 647.9931,-172.7186 638.421,-168.177 637.6781,-175.1375"/>
</g>
<!-- Node24 -->
<g id="node24" class="node">
<title>Node24</title>
<g id="a_node24"><a xlink:href="../../d5/d07/classPHNodeIterator.html#aea98bf8619af59b1212a94fb32106baa" target="_top" xlink:title="PHNodeIterator::findFirst">
<polygon fill="none" stroke="#000000" points="662.5,-255.7912 662.5,-275.7912 803.5,-275.7912 803.5,-255.7912 662.5,-255.7912"/>
<text text-anchor="middle" x="733" y="-262.7912" font-family="FreeSans" font-size="10.00" fill="#000000">PHNodeIterator::findFirst</text>
</a>
</g>
</g>
<!-- Node13&#45;&gt;Node24 -->
<g id="edge25" class="edge">
<title>Node13&#45;&gt;Node24</title>
<path fill="none" stroke="#191970" d="M595.7002,-174.8811C601.4939,-177.6726 607.0132,-180.948 612,-184.7912 637.2383,-204.2421 622.2967,-227.959 648,-246.7912 650.1346,-248.3552 652.3745,-249.7941 654.6954,-251.1178"/>
<polygon fill="#191970" stroke="#191970" points="653.4771,-254.4182 663.9974,-255.6726 656.5555,-248.1315 653.4771,-254.4182"/>
</g>
<!-- Node25 -->
<g id="node25" class="node">
<title>Node25</title>
<g id="a_node25"><a xlink:href="../../d1/d3e/classPHDataNode.html#a1f3b856fd3ce165047be8aa97f4ab9f3" target="_top" xlink:title="PHDataNode::getData">
<polygon fill="none" stroke="#000000" points="669.5,-126.7912 669.5,-146.7912 796.5,-146.7912 796.5,-126.7912 669.5,-126.7912"/>
<text text-anchor="middle" x="733" y="-133.7912" font-family="FreeSans" font-size="10.00" fill="#000000">PHDataNode::getData</text>
</a>
</g>
</g>
<!-- Node13&#45;&gt;Node25 -->
<g id="edge29" class="edge">
<title>Node13&#45;&gt;Node25</title>
<path fill="none" stroke="#191970" d="M605.7739,-149.7795C623.5554,-147.9642 642.0689,-146.0742 659.2896,-144.3162"/>
<polygon fill="#191970" stroke="#191970" points="659.6714,-147.7955 669.2642,-143.2979 658.9604,-140.8317 659.6714,-147.7955"/>
</g>
<!-- Node26 -->
<g id="node26" class="node">
<title>Node26</title>
<g id="a_node26"><a xlink:href="../../dc/d82/classPHNode.html#a5efaced7ccd6df01fc40abbb07dfe61d" target="_top" xlink:title="PHNode::setObjectType">
<polygon fill="none" stroke="#000000" points="666,-87.7912 666,-107.7912 800,-107.7912 800,-87.7912 666,-87.7912"/>
<text text-anchor="middle" x="733" y="-94.7912" font-family="FreeSans" font-size="10.00" fill="#000000">PHNode::setObjectType</text>
</a>
</g>
</g>
<!-- Node13&#45;&gt;Node26 -->
<g id="edge30" class="edge">
<title>Node13&#45;&gt;Node26</title>
<path fill="none" stroke="#191970" d="M565.5905,-142.7554C590.1257,-134.8107 620.5177,-125.3307 648,-117.7912 657.5394,-115.1742 667.738,-112.592 677.64,-110.1967"/>
<polygon fill="#191970" stroke="#191970" points="678.4912,-113.592 687.4078,-107.8695 676.8688,-106.7826 678.4912,-113.592"/>
</g>
<!-- Node15 -->
<g id="node15" class="node">
<title>Node15</title>
<g id="a_node15"><a xlink:href="../../dc/d82/classPHNode.html#a5c15cb20d02290b69eb4d7f6051c9722" target="_top" xlink:title="PHNode::getParent">
<polygon fill="none" stroke="#000000" points="879,-365.7912 879,-385.7912 991,-385.7912 991,-365.7912 879,-365.7912"/>
<text text-anchor="middle" x="935" y="-372.7912" font-family="FreeSans" font-size="10.00" fill="#000000">PHNode::getParent</text>
</a>
</g>
</g>
<!-- Node14&#45;&gt;Node15 -->
<g id="edge15" class="edge">
<title>Node14&#45;&gt;Node15</title>
<path fill="none" stroke="#191970" d="M777.3298,-339.8861C807.8519,-346.8367 848.5831,-356.1121 881.0005,-363.4943"/>
<polygon fill="#191970" stroke="#191970" points="880.2461,-366.9121 890.7737,-365.7199 881.8004,-360.0868 880.2461,-366.9121"/>
</g>
<!-- Node16 -->
<g id="node16" class="node">
<title>Node16</title>
<g id="a_node16"><a xlink:href="../../dc/d82/classPHNode.html#a4ab1f90aed955a652813bfe377087bda" target="_top" xlink:title="PHNode::getType">
<polygon fill="none" stroke="#000000" points="883.5,-287.7912 883.5,-307.7912 986.5,-307.7912 986.5,-287.7912 883.5,-287.7912"/>
<text text-anchor="middle" x="935" y="-294.7912" font-family="FreeSans" font-size="10.00" fill="#000000">PHNode::getType</text>
</a>
</g>
</g>
<!-- Node14&#45;&gt;Node16 -->
<g id="edge16" class="edge">
<title>Node14&#45;&gt;Node16</title>
<path fill="none" stroke="#191970" d="M789,-320.9199C815.1938,-316.7704 846.4634,-311.8168 873.3319,-307.5604"/>
<polygon fill="#191970" stroke="#191970" points="874.0651,-310.988 883.3943,-305.9664 872.9698,-304.0742 874.0651,-310.988"/>
</g>
<!-- Node17 -->
<g id="node17" class="node">
<title>Node17</title>
<g id="a_node17"><a xlink:href="../../dc/d82/classPHNode.html#aca3576f926a4401eddc3d88bf0ce0de3" target="_top" xlink:title="PHNode::getName">
<polygon fill="none" stroke="#000000" points="1061.5,-248.7912 1061.5,-268.7912 1170.5,-268.7912 1170.5,-248.7912 1061.5,-248.7912"/>
<text text-anchor="middle" x="1116" y="-255.7912" font-family="FreeSans" font-size="10.00" fill="#000000">PHNode::getName</text>
</a>
</g>
</g>
<!-- Node14&#45;&gt;Node17 -->
<g id="edge17" class="edge">
<title>Node14&#45;&gt;Node17</title>
<path fill="none" stroke="#191970" d="M789.0868,-335.3053C847.1468,-339.2046 939.845,-340.3267 1016,-317.7912 1046.0038,-308.9126 1076.3883,-289.1089 1095.6604,-274.8935"/>
<polygon fill="#191970" stroke="#191970" points="1097.8306,-277.6404 1103.6919,-268.8146 1093.606,-272.0589 1097.8306,-277.6404"/>
</g>
<!-- Node19 -->
<g id="node19" class="node">
<title>Node19</title>
<g id="a_node19"><a xlink:href="../../d5/dca/classPHCompositeNode.html#a15a0c4804399a9de4267647f05bd1ba4" target="_top" xlink:title="PHCompositeNode::addNode">
<polygon fill="none" stroke="#000000" points="854,-209.7912 854,-229.7912 1016,-229.7912 1016,-209.7912 854,-209.7912"/>
<text text-anchor="middle" x="935" y="-216.7912" font-family="FreeSans" font-size="10.00" fill="#000000">PHCompositeNode::addNode</text>
</a>
</g>
</g>
<!-- Node18&#45;&gt;Node19 -->
<g id="edge19" class="edge">
<title>Node18&#45;&gt;Node19</title>
<path fill="none" stroke="#191970" d="M806.2122,-224.2542C818.4178,-223.8312 831.2104,-223.3879 843.7981,-222.9517"/>
<polygon fill="#191970" stroke="#191970" points="843.9614,-226.4482 853.8341,-222.6039 843.7189,-219.4524 843.9614,-226.4482"/>
</g>
<!-- Node19&#45;&gt;Node17 -->
<g id="edge20" class="edge">
<title>Node19&#45;&gt;Node17</title>
<path fill="none" stroke="#191970" d="M981.612,-229.8347C1005.3636,-234.9524 1034.4366,-241.2168 1059.4587,-246.6083"/>
<polygon fill="#191970" stroke="#191970" points="1059.0331,-250.0968 1069.546,-248.7818 1060.5076,-243.2539 1059.0331,-250.0968"/>
</g>
<!-- Node20 -->
<g id="node20" class="node">
<title>Node20</title>
<g id="a_node20"><a xlink:href="../../dc/d82/classPHNode.html#adda2bd6cef2d5067bbe3016a990b7198" target="_top" xlink:title="PHNode::setParent">
<polygon fill="none" stroke="#000000" points="1060.5,-209.7912 1060.5,-229.7912 1171.5,-229.7912 1171.5,-209.7912 1060.5,-209.7912"/>
<text text-anchor="middle" x="1116" y="-216.7912" font-family="FreeSans" font-size="10.00" fill="#000000">PHNode::setParent</text>
</a>
</g>
</g>
<!-- Node19&#45;&gt;Node20 -->
<g id="edge21" class="edge">
<title>Node19&#45;&gt;Node20</title>
<path fill="none" stroke="#191970" d="M1016.2347,-219.7912C1027.6752,-219.7912 1039.3153,-219.7912 1050.4133,-219.7912"/>
<polygon fill="#191970" stroke="#191970" points="1050.4317,-223.2913 1060.4317,-219.7912 1050.4316,-216.2913 1050.4317,-223.2913"/>
</g>
<!-- Node21 -->
<g id="node21" class="node">
<title>Node21</title>
<g id="a_node21"><a xlink:href="../../d6/d86/classPHPointerList.html#ac2176735e9d046a034f1686fd2c477eb" target="_top" xlink:title="PHPointerList::append">
<polygon fill="none" stroke="#000000" points="1052,-170.7912 1052,-190.7912 1180,-190.7912 1180,-170.7912 1052,-170.7912"/>
<text text-anchor="middle" x="1116" y="-177.7912" font-family="FreeSans" font-size="10.00" fill="#000000">PHPointerList::append</text>
</a>
</g>
</g>
<!-- Node19&#45;&gt;Node21 -->
<g id="edge22" class="edge">
<title>Node19&#45;&gt;Node21</title>
<path fill="none" stroke="#191970" d="M981.612,-209.7478C1005.3636,-204.63 1034.4366,-198.3657 1059.4587,-192.9742"/>
<polygon fill="#191970" stroke="#191970" points="1060.5076,-196.3286 1069.546,-190.8007 1059.0331,-189.4856 1060.5076,-196.3286"/>
</g>
<!-- Node23 -->
<g id="node23" class="node">
<title>Node23</title>
<g id="a_node23"><a xlink:href="../../df/de8/cemc_8C.html#adf5c804dfce7a70e36dda02995fad481" target="_top" xlink:title="exit">
<polygon fill="none" stroke="#000000" points="917.5,-113.7912 917.5,-133.7912 952.5,-133.7912 952.5,-113.7912 917.5,-113.7912"/>
<text text-anchor="middle" x="935" y="-120.7912" font-family="FreeSans" font-size="10.00" fill="#000000">exit</text>
</a>
</g>
</g>
<!-- Node22&#45;&gt;Node23 -->
<g id="edge24" class="edge">
<title>Node22&#45;&gt;Node23</title>
<path fill="none" stroke="#191970" d="M788.7321,-165.7889C827.3832,-154.6911 877.186,-140.3913 907.5711,-131.6668"/>
<polygon fill="#191970" stroke="#191970" points="908.8131,-134.9517 917.4588,-128.8278 906.8812,-128.2236 908.8131,-134.9517"/>
</g>
<!-- Node24&#45;&gt;Node16 -->
<g id="edge26" class="edge">
<title>Node24&#45;&gt;Node16</title>
<path fill="none" stroke="#191970" d="M796.3598,-275.8284C820.86,-279.7096 848.8084,-284.1371 873.1622,-287.9951"/>
<polygon fill="#191970" stroke="#191970" points="872.9345,-291.5026 883.359,-289.6105 874.0298,-284.5889 872.9345,-291.5026"/>
</g>
<!-- Node24&#45;&gt;Node17 -->
<g id="edge27" class="edge">
<title>Node24&#45;&gt;Node17</title>
<path fill="none" stroke="#191970" d="M803.6944,-264.4992C874.4174,-263.2066 982.295,-261.2349 1050.9547,-259.9801"/>
<polygon fill="#191970" stroke="#191970" points="1051.2738,-263.4749 1061.2082,-259.7926 1051.1458,-256.4761 1051.2738,-263.4749"/>
</g>
<!-- Node24&#45;&gt;Node24 -->
<g id="edge28" class="edge">
<title>Node24&#45;&gt;Node24</title>
<path fill="none" stroke="#191970" d="M701.3759,-276.0183C686.9508,-284.8979 697.4922,-294.2912 733,-294.2912 757.4116,-294.2912 770.0227,-289.8514 770.8332,-284.1911"/>
<polygon fill="#191970" stroke="#191970" points="773.4606,-281.8637 764.6241,-276.0183 767.8867,-286.0983 773.4606,-281.8637"/>
</g>
<!-- Node27&#45;&gt;Node23 -->
<g id="edge33" class="edge">
<title>Node27&#45;&gt;Node23</title>
<path fill="none" stroke="#191970" d="M602.6053,-61.5593C663.2789,-60.9944 746.4415,-63.7735 818,-78.7912 850.0552,-85.5185 884.8575,-99.8887 908.0981,-110.5903"/>
<polygon fill="#191970" stroke="#191970" points="906.7698,-113.8333 917.3088,-114.9192 909.7472,-107.498 906.7698,-113.8333"/>
</g>
<!-- Node28 -->
<g id="node28" class="node">
<title>Node28</title>
<g id="a_node28"><a xlink:href="../../d5/d88/PHMessage_8cc.html#a04070e856fed35b20952495249e0357f" target="_top" xlink:title="PHMessage">
<polygon fill="none" stroke="#000000" points="696,-9.7912 696,-29.7912 770,-29.7912 770,-9.7912 696,-9.7912"/>
<text text-anchor="middle" x="733" y="-16.7912" font-family="FreeSans" font-size="10.00" fill="#000000">PHMessage</text>
</a>
</g>
</g>
<!-- Node27&#45;&gt;Node28 -->
<g id="edge32" class="edge">
<title>Node27&#45;&gt;Node28</title>
<path fill="none" stroke="#191970" d="M594.3878,-48.7358C624.9349,-42.357 659.0963,-35.2236 685.862,-29.6344"/>
<polygon fill="#191970" stroke="#191970" points="686.6618,-33.043 695.7352,-27.5727 685.2309,-26.1908 686.6618,-33.043"/>
</g>
<!-- Node29&#45;&gt;Node28 -->
<g id="edge35" class="edge">
<title>Node29&#45;&gt;Node28</title>
<path fill="none" stroke="#191970" d="M370.7513,-110.7595C376.5115,-108.3317 382.0079,-105.378 387,-101.7912 413.1899,-82.974 395.6159,-55.8239 423,-38.7912 504.0551,11.6242 621.2499,1.3988 685.8411,-9.7073"/>
<polygon fill="#191970" stroke="#191970" points="685.2807,-13.1626 695.7423,-11.4882 686.5199,-6.2731 685.2807,-13.1626"/>
</g>
</g>
</svg>
