<?xml version="1.0" encoding="UTF-8" standalone="no"?>
<!DOCTYPE svg PUBLIC "-//W3C//DTD SVG 1.1//EN"
 "http://www.w3.org/Graphics/SVG/1.1/DTD/svg11.dtd">
<!-- Generated by graphviz version 2.40.1 (20161225.0304)
 -->
<!-- Title: erhic::EventDis Pages: 1 -->
<svg width="779pt" height="419pt"
 viewBox="0.00 0.00 779.00 419.00" xmlns="http://www.w3.org/2000/svg" xmlns:xlink="http://www.w3.org/1999/xlink">
<g id="graph0" class="graph" transform="scale(1 1) rotate(0) translate(4 415)">
<title>erhic::EventDis</title>
<!-- Node1 -->
<g id="node1" class="node">
<title>Node1</title>
<polygon fill="#bfbfbf" stroke="#000000" points="239,-195.5 239,-215.5 332,-215.5 332,-195.5 239,-195.5"/>
<text text-anchor="middle" x="285.5" y="-202.5" font-family="FreeSans" font-size="10.00" fill="#000000">erhic::EventDis</text>
</g>
<!-- Node4 -->
<g id="node4" class="node">
<title>Node4</title>
<g id="a_node4"><a xlink:href="../../d9/d66/classEicRcEvent.html" target="_top" xlink:title="EicRcEvent">
<polygon fill="none" stroke="#000000" points="377.5,-234.5 377.5,-254.5 450.5,-254.5 450.5,-234.5 377.5,-234.5"/>
<text text-anchor="middle" x="414" y="-241.5" font-family="FreeSans" font-size="10.00" fill="#000000">EicRcEvent</text>
</a>
</g>
</g>
<!-- Node1&#45;&gt;Node4 -->
<g id="edge3" class="edge">
<title>Node1&#45;&gt;Node4</title>
<path fill="none" stroke="#191970" d="M328.3865,-218.5161C345.5454,-223.7239 364.9983,-229.6279 381.0202,-234.4906"/>
<polygon fill="#191970" stroke="#191970" points="329.1774,-215.0986 318.5919,-215.5435 327.1444,-221.7969 329.1774,-215.0986"/>
</g>
<!-- Node5 -->
<g id="node5" class="node">
<title>Node5</title>
<g id="a_node5"><a xlink:href="../../d6/dfb/classerhic_1_1EventMC.html" target="_top" xlink:title="erhic::EventMC">
<polygon fill="none" stroke="#000000" points="368,-195.5 368,-215.5 460,-215.5 460,-195.5 368,-195.5"/>
<text text-anchor="middle" x="414" y="-202.5" font-family="FreeSans" font-size="10.00" fill="#000000">erhic::EventMC</text>
</a>
</g>
</g>
<!-- Node1&#45;&gt;Node5 -->
<g id="edge4" class="edge">
<title>Node1&#45;&gt;Node5</title>
<path fill="none" stroke="#191970" d="M342.5028,-205.5C351.0073,-205.5 359.6834,-205.5 367.9247,-205.5"/>
<polygon fill="#191970" stroke="#191970" points="342.255,-202.0001 332.255,-205.5 342.2549,-209.0001 342.255,-202.0001"/>
</g>
<!-- Node18 -->
<g id="node18" class="node">
<title>Node18</title>
<g id="a_node18"><a xlink:href="../../dc/de8/classSmear_1_1Event.html" target="_top" xlink:title="Smear::Event">
<polygon fill="none" stroke="#000000" points="371.5,-156.5 371.5,-176.5 456.5,-176.5 456.5,-156.5 371.5,-156.5"/>
<text text-anchor="middle" x="414" y="-163.5" font-family="FreeSans" font-size="10.00" fill="#000000">Smear::Event</text>
</a>
</g>
</g>
<!-- Node1&#45;&gt;Node18 -->
<g id="edge17" class="edge">
<title>Node1&#45;&gt;Node18</title>
<path fill="none" stroke="#191970" d="M328.3865,-192.4839C345.5454,-187.2761 364.9983,-181.3721 381.0202,-176.5094"/>
<polygon fill="#191970" stroke="#191970" points="327.1444,-189.2031 318.5919,-195.4565 329.1774,-195.9014 327.1444,-189.2031"/>
</g>
<!-- Node2 -->
<g id="node2" class="node">
<title>Node2</title>
<g id="a_node2"><a xlink:href="../../da/d46/classerhic_1_1VirtualEvent.html" target="_top" xlink:title="Abstract base class for a physics event.">
<polygon fill="none" stroke="#000000" points="93,-195.5 93,-215.5 203,-215.5 203,-195.5 93,-195.5"/>
<text text-anchor="middle" x="148" y="-202.5" font-family="FreeSans" font-size="10.00" fill="#000000">erhic::VirtualEvent</text>
</a>
</g>
</g>
<!-- Node2&#45;&gt;Node1 -->
<g id="edge1" class="edge">
<title>Node2&#45;&gt;Node1</title>
<path fill="none" stroke="#191970" d="M213.1943,-205.5C221.8211,-205.5 230.5227,-205.5 238.7539,-205.5"/>
<polygon fill="#191970" stroke="#191970" points="213.1343,-202.0001 203.1342,-205.5 213.1342,-209.0001 213.1343,-202.0001"/>
</g>
<!-- Node3 -->
<g id="node3" class="node">
<title>Node3</title>
<g id="a_node3"><a xlink:href="../../d5/d0f/classTObject.html" target="_top" xlink:title="TObject">
<polygon fill="none" stroke="#000000" points="0,-195.5 0,-215.5 57,-215.5 57,-195.5 0,-195.5"/>
<text text-anchor="middle" x="28.5" y="-202.5" font-family="FreeSans" font-size="10.00" fill="#000000">TObject</text>
</a>
</g>
</g>
<!-- Node3&#45;&gt;Node2 -->
<g id="edge2" class="edge">
<title>Node3&#45;&gt;Node2</title>
<path fill="none" stroke="#191970" d="M67.1558,-205.5C75.3787,-205.5 84.213,-205.5 92.9147,-205.5"/>
<polygon fill="#191970" stroke="#191970" points="67.1233,-202.0001 57.1232,-205.5 67.1232,-209.0001 67.1233,-202.0001"/>
</g>
<!-- Node6 -->
<g id="node6" class="node">
<title>Node6</title>
<g id="a_node6"><a xlink:href="../../da/d61/classerhic_1_1EventDjangoh.html" target="_top" xlink:title="erhic::EventDjangoh">
<polygon fill="none" stroke="#000000" points="500,-390.5 500,-410.5 619,-410.5 619,-390.5 500,-390.5"/>
<text text-anchor="middle" x="559.5" y="-397.5" font-family="FreeSans" font-size="10.00" fill="#000000">erhic::EventDjangoh</text>
</a>
</g>
</g>
<!-- Node5&#45;&gt;Node6 -->
<g id="edge5" class="edge">
<title>Node5&#45;&gt;Node6</title>
<path fill="none" stroke="#191970" d="M457.2815,-221.6496C458.2421,-222.5495 459.1517,-223.4988 460,-224.5 505.9999,-278.7874 447.694,-328.254 496,-380.5 499.7664,-384.5736 504.3528,-387.8227 509.3193,-390.4133"/>
<polygon fill="#191970" stroke="#191970" points="459.2302,-218.7388 449.0891,-215.6713 455.1038,-224.3933 459.2302,-218.7388"/>
</g>
<!-- Node7 -->
<g id="node7" class="node">
<title>Node7</title>
<g id="a_node7"><a xlink:href="../../d9/d67/classerhic_1_1EventDpmjet.html" target="_top" xlink:title="erhic::EventDpmjet">
<polygon fill="none" stroke="#000000" points="502.5,-351.5 502.5,-371.5 616.5,-371.5 616.5,-351.5 502.5,-351.5"/>
<text text-anchor="middle" x="559.5" y="-358.5" font-family="FreeSans" font-size="10.00" fill="#000000">erhic::EventDpmjet</text>
</a>
</g>
</g>
<!-- Node5&#45;&gt;Node7 -->
<g id="edge6" class="edge">
<title>Node5&#45;&gt;Node7</title>
<path fill="none" stroke="#191970" d="M456.7331,-221.335C457.8878,-222.3283 458.9818,-223.3821 460,-224.5 496.6369,-264.7211 457.6569,-302.902 496,-341.5 500.0729,-345.6 504.9771,-348.8613 510.2326,-351.4552"/>
<polygon fill="#191970" stroke="#191970" points="458.6208,-218.3857 448.3932,-215.6203 454.664,-224.1601 458.6208,-218.3857"/>
</g>
<!-- Node8 -->
<g id="node8" class="node">
<title>Node8</title>
<g id="a_node8"><a xlink:href="../../d2/d51/classerhic_1_1EventGmcTrans.html" target="_top" xlink:title="erhic::EventGmcTrans">
<polygon fill="none" stroke="#000000" points="496,-312.5 496,-332.5 623,-332.5 623,-312.5 496,-312.5"/>
<text text-anchor="middle" x="559.5" y="-319.5" font-family="FreeSans" font-size="10.00" fill="#000000">erhic::EventGmcTrans</text>
</a>
</g>
</g>
<!-- Node5&#45;&gt;Node8 -->
<g id="edge7" class="edge">
<title>Node5&#45;&gt;Node8</title>
<path fill="none" stroke="#191970" d="M455.8922,-221.0198C457.3375,-222.1071 458.7145,-223.2658 460,-224.5 487.5418,-250.9429 467.3397,-277.2737 496,-302.5 500.6851,-306.6237 506.2191,-309.8977 512.0354,-312.4968"/>
<polygon fill="#191970" stroke="#191970" points="457.3746,-217.8216 447.0274,-215.5441 453.6959,-223.7771 457.3746,-217.8216"/>
</g>
<!-- Node9 -->
<g id="node9" class="node">
<title>Node9</title>
<g id="a_node9"><a xlink:href="../../de/ddc/classerhic_1_1EventMilou.html" target="_top" xlink:title="erhic::EventMilou">
<polygon fill="none" stroke="#000000" points="507.5,-273.5 507.5,-293.5 611.5,-293.5 611.5,-273.5 507.5,-273.5"/>
<text text-anchor="middle" x="559.5" y="-280.5" font-family="FreeSans" font-size="10.00" fill="#000000">erhic::EventMilou</text>
</a>
</g>
</g>
<!-- Node5&#45;&gt;Node9 -->
<g id="edge8" class="edge">
<title>Node5&#45;&gt;Node9</title>
<path fill="none" stroke="#191970" d="M452.8786,-220.0896C455.3537,-221.4631 457.7513,-222.9332 460,-224.5 479.3545,-237.9851 476.0801,-250.865 496,-263.5 502.3442,-267.5241 509.5605,-270.794 516.797,-273.4334"/>
<polygon fill="#191970" stroke="#191970" points="454.2176,-216.8469 443.7037,-215.5393 451.1074,-223.118 454.2176,-216.8469"/>
</g>
<!-- Node10 -->
<g id="node10" class="node">
<title>Node10</title>
<g id="a_node10"><a xlink:href="../../d3/d30/classerhic_1_1EventPepsi.html" target="_top" xlink:title="erhic::EventPepsi">
<polygon fill="none" stroke="#000000" points="508,-234.5 508,-254.5 611,-254.5 611,-234.5 508,-234.5"/>
<text text-anchor="middle" x="559.5" y="-241.5" font-family="FreeSans" font-size="10.00" fill="#000000">erhic::EventPepsi</text>
</a>
</g>
</g>
<!-- Node5&#45;&gt;Node10 -->
<g id="edge9" class="edge">
<title>Node5&#45;&gt;Node10</title>
<path fill="none" stroke="#191970" d="M461.2027,-218.1523C480.9577,-223.4474 503.5917,-229.5143 522.1571,-234.4906"/>
<polygon fill="#191970" stroke="#191970" points="462.0351,-214.7519 451.4699,-215.5435 460.2227,-221.5132 462.0351,-214.7519"/>
</g>
<!-- Node11 -->
<g id="node11" class="node">
<title>Node11</title>
<g id="a_node11"><a xlink:href="../../df/d77/classerhic_1_1EventPythia.html" target="_top" xlink:title="Pythia 6 DIS event.">
<polygon fill="none" stroke="#000000" points="505.5,-195.5 505.5,-215.5 613.5,-215.5 613.5,-195.5 505.5,-195.5"/>
<text text-anchor="middle" x="559.5" y="-202.5" font-family="FreeSans" font-size="10.00" fill="#000000">erhic::EventPythia</text>
</a>
</g>
</g>
<!-- Node5&#45;&gt;Node11 -->
<g id="edge10" class="edge">
<title>Node5&#45;&gt;Node11</title>
<path fill="none" stroke="#191970" d="M470.0448,-205.5C481.6445,-205.5 493.8432,-205.5 505.3729,-205.5"/>
<polygon fill="#191970" stroke="#191970" points="470.0371,-202.0001 460.0371,-205.5 470.0371,-209.0001 470.0371,-202.0001"/>
</g>
<!-- Node13 -->
<g id="node13" class="node">
<title>Node13</title>
<g id="a_node13"><a xlink:href="../../d2/d84/classerhic_1_1EventRapgap.html" target="_top" xlink:title="erhic::EventRapgap">
<polygon fill="none" stroke="#000000" points="501.5,-156.5 501.5,-176.5 617.5,-176.5 617.5,-156.5 501.5,-156.5"/>
<text text-anchor="middle" x="559.5" y="-163.5" font-family="FreeSans" font-size="10.00" fill="#000000">erhic::EventRapgap</text>
</a>
</g>
</g>
<!-- Node5&#45;&gt;Node13 -->
<g id="edge12" class="edge">
<title>Node5&#45;&gt;Node13</title>
<path fill="none" stroke="#191970" d="M461.2027,-192.8477C480.9577,-187.5526 503.5917,-181.4857 522.1571,-176.5094"/>
<polygon fill="#191970" stroke="#191970" points="460.2227,-189.4868 451.4699,-195.4565 462.0351,-196.2481 460.2227,-189.4868"/>
</g>
<!-- Node14 -->
<g id="node14" class="node">
<title>Node14</title>
<g id="a_node14"><a xlink:href="../../d8/d97/classerhic_1_1EventSartre.html" target="_top" xlink:title="erhic::EventSartre">
<polygon fill="none" stroke="#000000" points="506,-117.5 506,-137.5 613,-137.5 613,-117.5 506,-117.5"/>
<text text-anchor="middle" x="559.5" y="-124.5" font-family="FreeSans" font-size="10.00" fill="#000000">erhic::EventSartre</text>
</a>
</g>
</g>
<!-- Node5&#45;&gt;Node14 -->
<g id="edge13" class="edge">
<title>Node5&#45;&gt;Node14</title>
<path fill="none" stroke="#191970" d="M451.3918,-190.8609C454.3922,-189.205 457.3024,-187.4167 460,-185.5 479.2294,-171.8371 475.9897,-158.9913 496,-146.5 501.7592,-142.9048 508.2367,-139.9576 514.7954,-137.5506"/>
<polygon fill="#191970" stroke="#191970" points="449.6274,-187.8297 442.2428,-195.4269 452.7533,-194.093 449.6274,-187.8297"/>
</g>
<!-- Node15 -->
<g id="node15" class="node">
<title>Node15</title>
<g id="a_node15"><a xlink:href="../../d2/da5/classerhic_1_1EventSimple.html" target="_top" xlink:title="erhic::EventSimple">
<polygon fill="none" stroke="#000000" points="504,-78.5 504,-98.5 615,-98.5 615,-78.5 504,-78.5"/>
<text text-anchor="middle" x="559.5" y="-85.5" font-family="FreeSans" font-size="10.00" fill="#000000">erhic::EventSimple</text>
</a>
</g>
</g>
<!-- Node5&#45;&gt;Node15 -->
<g id="edge14" class="edge">
<title>Node5&#45;&gt;Node15</title>
<path fill="none" stroke="#191970" d="M454.578,-190.0376C456.5064,-188.6425 458.3307,-187.1325 460,-185.5 487.297,-158.8045 467.1589,-132.5194 496,-107.5 500.1723,-103.8805 505.0124,-100.9504 510.1233,-98.5784"/>
<polygon fill="#191970" stroke="#191970" points="452.3697,-187.2821 445.6136,-195.4434 455.9846,-193.2766 452.3697,-187.2821"/>
</g>
<!-- Node16 -->
<g id="node16" class="node">
<title>Node16</title>
<g id="a_node16"><a xlink:href="../../d1/d50/classEventEicMC.html" target="_top" xlink:title="EventEicMC">
<polygon fill="none" stroke="#000000" points="521.5,-39.5 521.5,-59.5 597.5,-59.5 597.5,-39.5 521.5,-39.5"/>
<text text-anchor="middle" x="559.5" y="-46.5" font-family="FreeSans" font-size="10.00" fill="#000000">EventEicMC</text>
</a>
</g>
</g>
<!-- Node5&#45;&gt;Node16 -->
<g id="edge15" class="edge">
<title>Node5&#45;&gt;Node16</title>
<path fill="none" stroke="#191970" d="M455.584,-189.7077C457.1666,-188.4094 458.6504,-187.0093 460,-185.5 496.2648,-144.943 457.3802,-106.8211 496,-68.5 502.8614,-61.6916 512.0568,-57.3056 521.3158,-54.4853"/>
<polygon fill="#191970" stroke="#191970" points="453.4167,-186.9451 447.0123,-195.3851 457.2821,-192.781 453.4167,-186.9451"/>
</g>
<!-- Node17 -->
<g id="node17" class="node">
<title>Node17</title>
<g id="a_node17"><a xlink:href="../../d3/db8/classEventProMC.html" target="_top" xlink:title="EventProMC">
<polygon fill="none" stroke="#000000" points="521,-.5 521,-20.5 598,-20.5 598,-.5 521,-.5"/>
<text text-anchor="middle" x="559.5" y="-7.5" font-family="FreeSans" font-size="10.00" fill="#000000">EventProMC</text>
</a>
</g>
</g>
<!-- Node5&#45;&gt;Node17 -->
<g id="edge16" class="edge">
<title>Node5&#45;&gt;Node17</title>
<path fill="none" stroke="#191970" d="M456.2398,-189.3707C457.5896,-188.1692 458.8516,-186.8809 460,-185.5 505.4977,-130.7911 447.3193,-81.397 496,-29.5 502.613,-22.4501 511.723,-17.981 520.9794,-15.1582"/>
<polygon fill="#191970" stroke="#191970" points="453.9024,-186.7352 447.7288,-195.3455 457.9244,-192.4645 453.9024,-186.7352"/>
</g>
<!-- Node12 -->
<g id="node12" class="node">
<title>Node12</title>
<g id="a_node12"><a xlink:href="../../dc/db7/classerhic_1_1EventBeagle.html" target="_top" xlink:title="erhic::EventBeagle">
<polygon fill="none" stroke="#000000" points="659,-195.5 659,-215.5 771,-215.5 771,-195.5 659,-195.5"/>
<text text-anchor="middle" x="715" y="-202.5" font-family="FreeSans" font-size="10.00" fill="#000000">erhic::EventBeagle</text>
</a>
</g>
</g>
<!-- Node11&#45;&gt;Node12 -->
<g id="edge11" class="edge">
<title>Node11&#45;&gt;Node12</title>
<path fill="none" stroke="#191970" d="M623.9262,-205.5C635.5003,-205.5 647.4805,-205.5 658.7991,-205.5"/>
<polygon fill="#191970" stroke="#191970" points="623.8864,-202.0001 613.8864,-205.5 623.8863,-209.0001 623.8864,-202.0001"/>
</g>
</g>
</svg>
