<?xml version="1.0" encoding="UTF-8" standalone="no"?>
<!DOCTYPE svg PUBLIC "-//W3C//DTD SVG 1.1//EN"
 "http://www.w3.org/Graphics/SVG/1.1/DTD/svg11.dtd">
<!-- Generated by graphviz version 2.40.1 (20161225.0304)
 -->
<!-- Title: SvtxVertex::get_z Pages: 1 -->
<svg width="527pt" height="647pt"
 viewBox="0.00 0.00 527.00 647.00" xmlns="http://www.w3.org/2000/svg" xmlns:xlink="http://www.w3.org/1999/xlink">
<g id="graph0" class="graph" transform="scale(1 1) rotate(0) translate(4 643)">
<title>SvtxVertex::get_z</title>
<!-- Node1 -->
<g id="node1" class="node">
<title>Node1</title>
<polygon fill="#bfbfbf" stroke="#000000" points="0,-309.5 0,-329.5 104,-329.5 104,-309.5 0,-309.5"/>
<text text-anchor="middle" x="52" y="-316.5" font-family="FreeSans" font-size="10.00" fill="#000000">SvtxVertex::get_z</text>
</g>
<!-- Node2 -->
<g id="node2" class="node">
<title>Node2</title>
<g id="a_node2"><a xlink:href="../../d0/d71/classPHG4TrackFastSimEval.html#abb5af30ed95d2dc6212aca004f92016d" target="_top" xlink:title="PHG4TrackFastSimEval\l::fill_vertex_tree">
<polygon fill="none" stroke="#000000" points="171,-606.5 171,-638.5 302,-638.5 302,-606.5 171,-606.5"/>
<text text-anchor="start" x="179" y="-625.5" font-family="FreeSans" font-size="10.00" fill="#000000">PHG4TrackFastSimEval</text>
<text text-anchor="middle" x="236.5" y="-613.5" font-family="FreeSans" font-size="10.00" fill="#000000">::fill_vertex_tree</text>
</a>
</g>
</g>
<!-- Node1&#45;&gt;Node2 -->
<g id="edge1" class="edge">
<title>Node1&#45;&gt;Node2</title>
<path fill="none" stroke="#191970" d="M55.7668,-339.6593C66.9224,-397.2858 101.4294,-560.924 140,-597.5 148.5394,-605.5978 159.351,-611.1576 170.6251,-614.9563"/>
<polygon fill="#191970" stroke="#191970" points="59.1631,-338.7844 53.8527,-329.6165 52.2869,-340.095 59.1631,-338.7844"/>
</g>
<!-- Node4 -->
<g id="node4" class="node">
<title>Node4</title>
<g id="a_node4"><a xlink:href="../../d8/d97/classTrackFastSimEval.html#a6169d02dfd424ec8d1a721eb40411aee" target="_top" xlink:title="TrackFastSimEval::fill\l_vertex_tree">
<polygon fill="none" stroke="#000000" points="175,-555.5 175,-587.5 298,-587.5 298,-555.5 175,-555.5"/>
<text text-anchor="start" x="183" y="-574.5" font-family="FreeSans" font-size="10.00" fill="#000000">TrackFastSimEval::fill</text>
<text text-anchor="middle" x="236.5" y="-562.5" font-family="FreeSans" font-size="10.00" fill="#000000">_vertex_tree</text>
</a>
</g>
</g>
<!-- Node1&#45;&gt;Node4 -->
<g id="edge3" class="edge">
<title>Node1&#45;&gt;Node4</title>
<path fill="none" stroke="#191970" d="M53.8229,-340.1327C58.8991,-384.7478 77.2604,-490.6653 140,-546.5 149.7609,-555.1866 162.1578,-560.924 174.787,-564.6961"/>
<polygon fill="#191970" stroke="#191970" points="57.2805,-339.5395 52.7787,-329.9487 50.317,-340.2535 57.2805,-339.5395"/>
</g>
<!-- Node6 -->
<g id="node6" class="node">
<title>Node6</title>
<g id="a_node6"><a xlink:href="../../d6/d11/classSvtxEvaluator.html#ace95fef2b7b4ad8b797f6695e053dd6e" target="_top" xlink:title="dump the evaluator information into ntuple for external analysis">
<polygon fill="none" stroke="#000000" points="166,-504.5 166,-536.5 307,-536.5 307,-504.5 166,-504.5"/>
<text text-anchor="start" x="174" y="-523.5" font-family="FreeSans" font-size="10.00" fill="#000000">SvtxEvaluator::fillOutput</text>
<text text-anchor="middle" x="236.5" y="-511.5" font-family="FreeSans" font-size="10.00" fill="#000000">Ntuples</text>
</a>
</g>
</g>
<!-- Node1&#45;&gt;Node6 -->
<g id="edge5" class="edge">
<title>Node1&#45;&gt;Node6</title>
<path fill="none" stroke="#191970" d="M56.298,-339.7127C65.2014,-376.5073 89.2187,-454.4081 140,-495.5 147.534,-501.5965 156.3896,-506.222 165.628,-509.7285"/>
<polygon fill="#191970" stroke="#191970" points="59.6493,-338.6672 54.0072,-329.6997 52.8256,-340.2284 59.6493,-338.6672"/>
</g>
<!-- Node8 -->
<g id="node8" class="node">
<title>Node8</title>
<g id="a_node8"><a xlink:href="../../da/df1/classPHRTreeSeeding.html#a302c432e1ce3a4ba3fd7a709b6039eea" target="_top" xlink:title="PHRTreeSeeding::FillTree">
<polygon fill="none" stroke="#000000" points="166.5,-426.5 166.5,-446.5 306.5,-446.5 306.5,-426.5 166.5,-426.5"/>
<text text-anchor="middle" x="236.5" y="-433.5" font-family="FreeSans" font-size="10.00" fill="#000000">PHRTreeSeeding::FillTree</text>
</a>
</g>
</g>
<!-- Node1&#45;&gt;Node8 -->
<g id="edge7" class="edge">
<title>Node1&#45;&gt;Node8</title>
<path fill="none" stroke="#191970" d="M64.6596,-337.9334C80.0424,-358.9125 107.9494,-392.6971 140,-411.5 151.1209,-418.0242 163.9417,-422.8684 176.5311,-426.4578"/>
<polygon fill="#191970" stroke="#191970" points="67.337,-335.6596 58.6804,-329.551 61.6382,-339.7247 67.337,-335.6596"/>
</g>
<!-- Node9 -->
<g id="node9" class="node">
<title>Node9</title>
<g id="a_node9"><a xlink:href="../../da/df1/classPHRTreeSeeding.html#a0aba948a58d39c1064797b4568d7d811" target="_top" xlink:title="PHRTreeSeeding::Process">
<polygon fill="none" stroke="#000000" points="372.5,-406.5 372.5,-426.5 515.5,-426.5 515.5,-406.5 372.5,-406.5"/>
<text text-anchor="middle" x="444" y="-413.5" font-family="FreeSans" font-size="10.00" fill="#000000">PHRTreeSeeding::Process</text>
</a>
</g>
</g>
<!-- Node1&#45;&gt;Node9 -->
<g id="edge18" class="edge">
<title>Node1&#45;&gt;Node9</title>
<path fill="none" stroke="#191970" d="M71.229,-336.3043C88.134,-350.0684 114.0285,-368.7987 140,-378.5 215.9845,-406.883 309.3187,-414.9351 372.368,-416.8066"/>
<polygon fill="#191970" stroke="#191970" points="73.171,-333.3657 63.2554,-329.6333 68.6793,-338.7345 73.171,-333.3657"/>
</g>
<!-- Node10 -->
<g id="node10" class="node">
<title>Node10</title>
<g id="a_node10"><a xlink:href="../../d1/d08/classPHCASeeding.html#ad6b8c71cbacac88f6ac48ecf89a5ebbd" target="_top" xlink:title="PHCASeeding::FillTree">
<polygon fill="none" stroke="#000000" points="173.5,-348.5 173.5,-368.5 299.5,-368.5 299.5,-348.5 173.5,-348.5"/>
<text text-anchor="middle" x="236.5" y="-355.5" font-family="FreeSans" font-size="10.00" fill="#000000">PHCASeeding::FillTree</text>
</a>
</g>
</g>
<!-- Node1&#45;&gt;Node10 -->
<g id="edge9" class="edge">
<title>Node1&#45;&gt;Node10</title>
<path fill="none" stroke="#191970" d="M104.8777,-331.7799C116.4385,-334.3913 128.62,-337.087 140,-339.5 154.2817,-342.5282 169.7878,-345.6531 184.1074,-348.4722"/>
<polygon fill="#191970" stroke="#191970" points="105.4408,-328.3187 94.9138,-329.5159 103.8897,-335.1447 105.4408,-328.3187"/>
</g>
<!-- Node12 -->
<g id="node12" class="node">
<title>Node12</title>
<g id="a_node12"><a xlink:href="../../d1/d08/classPHCASeeding.html#af376b7d45ef271961bb0a2fc4a24631a" target="_top" xlink:title="PHCASeeding::FindSeedsLayerSkip">
<polygon fill="none" stroke="#000000" points="140,-309.5 140,-329.5 333,-329.5 333,-309.5 140,-309.5"/>
<text text-anchor="middle" x="236.5" y="-316.5" font-family="FreeSans" font-size="10.00" fill="#000000">PHCASeeding::FindSeedsLayerSkip</text>
</a>
</g>
</g>
<!-- Node1&#45;&gt;Node12 -->
<g id="edge11" class="edge">
<title>Node1&#45;&gt;Node12</title>
<path fill="none" stroke="#191970" d="M114.5729,-319.5C122.7889,-319.5 131.3563,-319.5 139.9736,-319.5"/>
<polygon fill="#191970" stroke="#191970" points="114.3768,-316.0001 104.3768,-319.5 114.3767,-323.0001 114.3768,-316.0001"/>
</g>
<!-- Node13 -->
<g id="node13" class="node">
<title>Node13</title>
<g id="a_node13"><a xlink:href="../../de/d25/classPHGenFitTrkFitter.html#a99d09d612858e8b8d146c26bb764e62a" target="_top" xlink:title="Make SvtxTrack from PHGenFit::Track and SvtxTrack.">
<polygon fill="none" stroke="#000000" points="182,-258.5 182,-290.5 291,-290.5 291,-258.5 182,-258.5"/>
<text text-anchor="start" x="190" y="-277.5" font-family="FreeSans" font-size="10.00" fill="#000000">PHGenFitTrkFitter::</text>
<text text-anchor="middle" x="236.5" y="-265.5" font-family="FreeSans" font-size="10.00" fill="#000000">MakeSvtxTrack</text>
</a>
</g>
</g>
<!-- Node1&#45;&gt;Node13 -->
<g id="edge13" class="edge">
<title>Node1&#45;&gt;Node13</title>
<path fill="none" stroke="#191970" d="M103.2242,-307.0063C127.7049,-301.0354 157.0263,-293.8838 181.9259,-287.8108"/>
<polygon fill="#191970" stroke="#191970" points="102.2912,-303.6312 93.4054,-309.4011 103.95,-310.4318 102.2912,-303.6312"/>
</g>
<!-- Node14 -->
<g id="node14" class="node">
<title>Node14</title>
<g id="a_node14"><a xlink:href="../../de/d25/classPHGenFitTrkFitter.html#a2e088a68ab24c5b89b902205f877f9d6" target="_top" xlink:title="Process Event, called for each event.">
<polygon fill="none" stroke="#000000" points="389.5,-213.5 389.5,-245.5 498.5,-245.5 498.5,-213.5 389.5,-213.5"/>
<text text-anchor="start" x="397.5" y="-232.5" font-family="FreeSans" font-size="10.00" fill="#000000">PHGenFitTrkFitter::</text>
<text text-anchor="middle" x="444" y="-220.5" font-family="FreeSans" font-size="10.00" fill="#000000">process_event</text>
</a>
</g>
</g>
<!-- Node1&#45;&gt;Node14 -->
<g id="edge20" class="edge">
<title>Node1&#45;&gt;Node14</title>
<path fill="none" stroke="#191970" d="M67.8629,-301.7812C84.1183,-284.9786 111.0506,-260.6894 140,-249.5 222.5126,-217.6075 326.9664,-218.8505 389.4735,-223.5454"/>
<polygon fill="#191970" stroke="#191970" points="65.0645,-299.6488 60.7787,-309.3381 70.1714,-304.4363 65.0645,-299.6488"/>
</g>
<!-- Node15 -->
<g id="node15" class="node">
<title>Node15</title>
<g id="a_node15"><a xlink:href="../../d6/d11/classSvtxEvaluator.html#aef548ddeafdf0ebc949f29e88a741db8" target="_top" xlink:title="print out the ancestry information for detailed diagnosis">
<polygon fill="none" stroke="#000000" points="151,-465.5 151,-485.5 322,-485.5 322,-465.5 151,-465.5"/>
<text text-anchor="middle" x="236.5" y="-472.5" font-family="FreeSans" font-size="10.00" fill="#000000">SvtxEvaluator::printOutputInfo</text>
</a>
</g>
</g>
<!-- Node1&#45;&gt;Node15 -->
<g id="edge15" class="edge">
<title>Node1&#45;&gt;Node15</title>
<path fill="none" stroke="#191970" d="M58.8777,-339.2826C70.5238,-369.666 97.1312,-427.353 140,-456.5 145.2246,-460.0522 150.9547,-462.9746 156.9352,-465.3748"/>
<polygon fill="#191970" stroke="#191970" points="62.1149,-337.9447 55.3802,-329.7659 55.5446,-340.3594 62.1149,-337.9447"/>
</g>
<!-- Node16 -->
<g id="node16" class="node">
<title>Node16</title>
<g id="a_node16"><a xlink:href="../../d0/d22/classPHGenFitTrkProp.html#a31e50e42d62a2bf32763652b39dc95b8" target="_top" xlink:title="PHGenFitTrkProp::Process">
<polygon fill="none" stroke="#000000" points="164.5,-180.5 164.5,-200.5 308.5,-200.5 308.5,-180.5 164.5,-180.5"/>
<text text-anchor="middle" x="236.5" y="-187.5" font-family="FreeSans" font-size="10.00" fill="#000000">PHGenFitTrkProp::Process</text>
</a>
</g>
</g>
<!-- Node1&#45;&gt;Node16 -->
<g id="edge17" class="edge">
<title>Node1&#45;&gt;Node16</title>
<path fill="none" stroke="#191970" d="M62.7908,-300.7164C77.2998,-277.178 105.3253,-237.2884 140,-215.5 150.4041,-208.9624 162.46,-204.1281 174.451,-200.5552"/>
<polygon fill="#191970" stroke="#191970" points="59.7117,-299.0459 57.5815,-309.4244 65.7189,-302.6396 59.7117,-299.0459"/>
</g>
<!-- Node17 -->
<g id="node17" class="node">
<title>Node17</title>
<g id="a_node17"><a xlink:href="../../d8/d13/classGlobalVertexReco.html#aa813cd24f5a1ac6d1d0d1aba2fa3bf92" target="_top" xlink:title="GlobalVertexReco::process\l_event">
<polygon fill="none" stroke="#000000" points="161,-129.5 161,-161.5 312,-161.5 312,-129.5 161,-129.5"/>
<text text-anchor="start" x="169" y="-148.5" font-family="FreeSans" font-size="10.00" fill="#000000">GlobalVertexReco::process</text>
<text text-anchor="middle" x="236.5" y="-136.5" font-family="FreeSans" font-size="10.00" fill="#000000">_event</text>
</a>
</g>
</g>
<!-- Node1&#45;&gt;Node17 -->
<g id="edge19" class="edge">
<title>Node1&#45;&gt;Node17</title>
<path fill="none" stroke="#191970" d="M58.207,-299.878C69.3228,-267.9846 95.7006,-205.0907 140,-171.5 146.2216,-166.7824 153.2376,-162.92 160.5766,-159.7578"/>
<polygon fill="#191970" stroke="#191970" points="54.8688,-298.8246 55.0185,-309.4184 61.5078,-301.0435 54.8688,-298.8246"/>
</g>
<!-- Node18 -->
<g id="node18" class="node">
<title>Node18</title>
<g id="a_node18"><a xlink:href="../../de/d25/classPHGenFitTrkFitter.html#af07c5ea2636426357d02b5b697376db2" target="_top" xlink:title="PHGenFitTrkFitter::\lReFitTrack">
<polygon fill="none" stroke="#000000" points="182,-78.5 182,-110.5 291,-110.5 291,-78.5 182,-78.5"/>
<text text-anchor="start" x="190" y="-97.5" font-family="FreeSans" font-size="10.00" fill="#000000">PHGenFitTrkFitter::</text>
<text text-anchor="middle" x="236.5" y="-85.5" font-family="FreeSans" font-size="10.00" fill="#000000">ReFitTrack</text>
</a>
</g>
</g>
<!-- Node1&#45;&gt;Node18 -->
<g id="edge21" class="edge">
<title>Node1&#45;&gt;Node18</title>
<path fill="none" stroke="#191970" d="M55.016,-299.5323C62.1557,-259.379 83.9049,-168.5993 140,-120.5 151.7228,-110.4481 166.9581,-104.243 181.8467,-100.4248"/>
<polygon fill="#191970" stroke="#191970" points="51.5566,-298.9996 53.3732,-309.4376 58.4623,-300.145 51.5566,-298.9996"/>
</g>
<!-- Node19 -->
<g id="node19" class="node">
<title>Node19</title>
<g id="a_node19"><a xlink:href="../../d7/d3c/PHRTreeSeeding_8cc.html#a35456827f072aca76d5e96388015c02d" target="_top" xlink:title="RosenBrock">
<polygon fill="none" stroke="#000000" points="198.5,-39.5 198.5,-59.5 274.5,-59.5 274.5,-39.5 198.5,-39.5"/>
<text text-anchor="middle" x="236.5" y="-46.5" font-family="FreeSans" font-size="10.00" fill="#000000">RosenBrock</text>
</a>
</g>
</g>
<!-- Node1&#45;&gt;Node19 -->
<g id="edge23" class="edge">
<title>Node1&#45;&gt;Node19</title>
<path fill="none" stroke="#191970" d="M56.4513,-299.1753C68.6494,-245.3137 104.0999,-100.8822 140,-69.5 155.8444,-55.6496 178.7404,-50.4915 198.2541,-48.8704"/>
<polygon fill="#191970" stroke="#191970" points="52.9717,-298.6985 54.2096,-309.2208 59.8037,-300.2232 52.9717,-298.6985"/>
</g>
<!-- Node20 -->
<g id="node20" class="node">
<title>Node20</title>
<g id="a_node20"><a xlink:href="../../d8/dd4/classPHHoughSeeding.html#a1904449fa2b17c24a1a1eeb1f8bc9be1" target="_top" xlink:title="code to seed vertex from initial tracking using a broad search window">
<polygon fill="none" stroke="#000000" points="157,-.5 157,-20.5 316,-20.5 316,-.5 157,-.5"/>
<text text-anchor="middle" x="236.5" y="-7.5" font-family="FreeSans" font-size="10.00" fill="#000000">PHHoughSeeding::vertexing</text>
</a>
</g>
</g>
<!-- Node1&#45;&gt;Node20 -->
<g id="edge24" class="edge">
<title>Node1&#45;&gt;Node20</title>
<path fill="none" stroke="#191970" d="M55.3991,-299.1409C65.7748,-239.446 98.8514,-66.7186 140,-29.5 144.9388,-25.0329 150.6124,-21.4859 156.6823,-18.6824"/>
<polygon fill="#191970" stroke="#191970" points="51.9133,-298.7612 53.6797,-309.2078 58.8134,-299.9398 51.9133,-298.7612"/>
</g>
<!-- Node3 -->
<g id="node3" class="node">
<title>Node3</title>
<g id="a_node3"><a xlink:href="../../d0/d71/classPHG4TrackFastSimEval.html#ab0136bd1d81150679effd3e148c3cfc4" target="_top" xlink:title="PHG4TrackFastSimEval\l::process_event">
<polygon fill="none" stroke="#000000" points="378.5,-606.5 378.5,-638.5 509.5,-638.5 509.5,-606.5 378.5,-606.5"/>
<text text-anchor="start" x="386.5" y="-625.5" font-family="FreeSans" font-size="10.00" fill="#000000">PHG4TrackFastSimEval</text>
<text text-anchor="middle" x="444" y="-613.5" font-family="FreeSans" font-size="10.00" fill="#000000">::process_event</text>
</a>
</g>
</g>
<!-- Node2&#45;&gt;Node3 -->
<g id="edge2" class="edge">
<title>Node2&#45;&gt;Node3</title>
<path fill="none" stroke="#191970" d="M312.3031,-622.5C333.9774,-622.5 357.41,-622.5 378.4169,-622.5"/>
<polygon fill="#191970" stroke="#191970" points="312.1543,-619.0001 302.1543,-622.5 312.1543,-626.0001 312.1543,-619.0001"/>
</g>
<!-- Node5 -->
<g id="node5" class="node">
<title>Node5</title>
<g id="a_node5"><a xlink:href="../../d8/d97/classTrackFastSimEval.html#a1c1810697243f85b6963d11342852ee8" target="_top" xlink:title="TrackFastSimEval::process\l_event">
<polygon fill="none" stroke="#000000" points="369,-555.5 369,-587.5 519,-587.5 519,-555.5 369,-555.5"/>
<text text-anchor="start" x="377" y="-574.5" font-family="FreeSans" font-size="10.00" fill="#000000">TrackFastSimEval::process</text>
<text text-anchor="middle" x="444" y="-562.5" font-family="FreeSans" font-size="10.00" fill="#000000">_event</text>
</a>
</g>
</g>
<!-- Node4&#45;&gt;Node5 -->
<g id="edge4" class="edge">
<title>Node4&#45;&gt;Node5</title>
<path fill="none" stroke="#191970" d="M308.2778,-571.5C327.8857,-571.5 349.1821,-571.5 368.9663,-571.5"/>
<polygon fill="#191970" stroke="#191970" points="308.1951,-568.0001 298.195,-571.5 308.195,-575.0001 308.1951,-568.0001"/>
</g>
<!-- Node7 -->
<g id="node7" class="node">
<title>Node7</title>
<g id="a_node7"><a xlink:href="../../d6/d11/classSvtxEvaluator.html#ac66ea4145deb621d9e4fb38cf852dc33" target="_top" xlink:title="SvtxEvaluator::process\l_event">
<polygon fill="none" stroke="#000000" points="378,-481.5 378,-513.5 510,-513.5 510,-481.5 378,-481.5"/>
<text text-anchor="start" x="386" y="-500.5" font-family="FreeSans" font-size="10.00" fill="#000000">SvtxEvaluator::process</text>
<text text-anchor="middle" x="444" y="-488.5" font-family="FreeSans" font-size="10.00" fill="#000000">_event</text>
</a>
</g>
</g>
<!-- Node6&#45;&gt;Node7 -->
<g id="edge6" class="edge">
<title>Node6&#45;&gt;Node7</title>
<path fill="none" stroke="#191970" d="M317.1092,-511.565C337.2133,-509.3366 358.539,-506.9728 377.8538,-504.8319"/>
<polygon fill="#191970" stroke="#191970" points="316.5931,-508.1007 307.0396,-512.6812 317.3643,-515.0581 316.5931,-508.1007"/>
</g>
<!-- Node8&#45;&gt;Node9 -->
<g id="edge8" class="edge">
<title>Node8&#45;&gt;Node9</title>
<path fill="none" stroke="#191970" d="M316.8073,-428.7595C335.1289,-426.9936 354.4797,-425.1285 372.4087,-423.4004"/>
<polygon fill="#191970" stroke="#191970" points="316.3681,-425.2856 306.75,-429.7289 317.0397,-432.2533 316.3681,-425.2856"/>
</g>
<!-- Node11 -->
<g id="node11" class="node">
<title>Node11</title>
<g id="a_node11"><a xlink:href="../../d1/d08/classPHCASeeding.html#aaa4eca2abbf1065bb9b48de9cb683494" target="_top" xlink:title="PHCASeeding::Process">
<polygon fill="none" stroke="#000000" points="379,-328.5 379,-348.5 509,-348.5 509,-328.5 379,-328.5"/>
<text text-anchor="middle" x="444" y="-335.5" font-family="FreeSans" font-size="10.00" fill="#000000">PHCASeeding::Process</text>
</a>
</g>
</g>
<!-- Node10&#45;&gt;Node11 -->
<g id="edge10" class="edge">
<title>Node10&#45;&gt;Node11</title>
<path fill="none" stroke="#191970" d="M309.7599,-351.4388C332.2263,-349.2734 356.786,-346.9062 378.685,-344.7954"/>
<polygon fill="#191970" stroke="#191970" points="309.22,-347.9745 299.602,-352.4179 309.8917,-354.9422 309.22,-347.9745"/>
</g>
<!-- Node12&#45;&gt;Node11 -->
<g id="edge12" class="edge">
<title>Node12&#45;&gt;Node11</title>
<path fill="none" stroke="#191970" d="M343.4022,-329.2886C355.4731,-330.3939 367.4869,-331.494 378.7895,-332.5289"/>
<polygon fill="#191970" stroke="#191970" points="343.5413,-325.7868 333.2637,-328.3603 342.9029,-332.7577 343.5413,-325.7868"/>
</g>
<!-- Node13&#45;&gt;Node14 -->
<g id="edge14" class="edge">
<title>Node13&#45;&gt;Node14</title>
<path fill="none" stroke="#191970" d="M300.8578,-260.5429C329.2703,-254.3811 362.3116,-247.2156 389.4861,-241.3223"/>
<polygon fill="#191970" stroke="#191970" points="300.0492,-257.1368 291.0182,-262.6768 301.5328,-263.9778 300.0492,-257.1368"/>
</g>
<!-- Node15&#45;&gt;Node7 -->
<g id="edge16" class="edge">
<title>Node15&#45;&gt;Node7</title>
<path fill="none" stroke="#191970" d="M332.2098,-485.6475C347.6747,-487.2872 363.3793,-488.9523 377.938,-490.4958"/>
<polygon fill="#191970" stroke="#191970" points="332.4095,-482.1492 322.0962,-484.5753 331.6714,-489.1102 332.4095,-482.1492"/>
</g>
<!-- Node18&#45;&gt;Node14 -->
<g id="edge22" class="edge">
<title>Node18&#45;&gt;Node14</title>
<path fill="none" stroke="#191970" d="M300.7711,-106.8491C311.9199,-110.3645 323.0995,-114.8347 333,-120.5 375.4302,-144.7795 413.3496,-189.2146 431.9262,-213.1669"/>
<polygon fill="#191970" stroke="#191970" points="301.5947,-103.4436 291.0145,-103.9997 299.6323,-110.1629 301.5947,-103.4436"/>
</g>
<!-- Node21 -->
<g id="node21" class="node">
<title>Node21</title>
<g id="a_node21"><a xlink:href="../../d8/dd4/classPHHoughSeeding.html#a8b2c7b85b2bcbe054e071dd6ff624f7d" target="_top" xlink:title="PHHoughSeeding::Process">
<polygon fill="none" stroke="#000000" points="369.5,-.5 369.5,-20.5 518.5,-20.5 518.5,-.5 369.5,-.5"/>
<text text-anchor="middle" x="444" y="-7.5" font-family="FreeSans" font-size="10.00" fill="#000000">PHHoughSeeding::Process</text>
</a>
</g>
</g>
<!-- Node20&#45;&gt;Node21 -->
<g id="edge25" class="edge">
<title>Node20&#45;&gt;Node21</title>
<path fill="none" stroke="#191970" d="M326.4721,-10.5C340.7816,-10.5 355.447,-10.5 369.3534,-10.5"/>
<polygon fill="#191970" stroke="#191970" points="326.1315,-7.0001 316.1315,-10.5 326.1314,-14.0001 326.1315,-7.0001"/>
</g>
</g>
</svg>
