<?xml version="1.0" encoding="UTF-8" standalone="no"?>
<!DOCTYPE svg PUBLIC "-//W3C//DTD SVG 1.1//EN"
 "http://www.w3.org/Graphics/SVG/1.1/DTD/svg11.dtd">
<!-- Generated by graphviz version 2.40.1 (20161225.0304)
 -->
<!-- Title: nlohmann::basic_json::begin Pages: 1 -->
<svg width="1712pt" height="365pt"
 viewBox="0.00 0.00 1712.00 365.00" xmlns="http://www.w3.org/2000/svg" xmlns:xlink="http://www.w3.org/1999/xlink">
<g id="graph0" class="graph" transform="scale(1 1) rotate(0) translate(4 361)">
<title>nlohmann::basic_json::begin</title>
<!-- Node1 -->
<g id="node1" class="node">
<title>Node1</title>
<polygon fill="#bfbfbf" stroke="#000000" points="0,-76.5 0,-108.5 126,-108.5 126,-76.5 0,-76.5"/>
<text text-anchor="start" x="8" y="-95.5" font-family="FreeSans" font-size="10.00" fill="#000000">nlohmann::basic_json</text>
<text text-anchor="middle" x="63" y="-83.5" font-family="FreeSans" font-size="10.00" fill="#000000">::begin</text>
</g>
<!-- Node2 -->
<g id="node2" class="node">
<title>Node2</title>
<g id="a_node2"><a xlink:href="../../d9/dcc/classnlohmann_1_1basic__json.html#ac8305b8912441b11af77564542e6d93e" target="_top" xlink:title="creates a diff as a JSON patch">
<polygon fill="none" stroke="#000000" points="162,-153.5 162,-185.5 288,-185.5 288,-153.5 162,-153.5"/>
<text text-anchor="start" x="170" y="-172.5" font-family="FreeSans" font-size="10.00" fill="#000000">nlohmann::basic_json</text>
<text text-anchor="middle" x="225" y="-160.5" font-family="FreeSans" font-size="10.00" fill="#000000">::diff</text>
</a>
</g>
</g>
<!-- Node1&#45;&gt;Node2 -->
<g id="edge1" class="edge">
<title>Node1&#45;&gt;Node2</title>
<path fill="none" stroke="#191970" d="M101.6708,-113.3806C119.8107,-122.9268 141.8298,-134.1627 162,-143.5 169.3016,-146.8801 177.1693,-150.299 184.7871,-153.4976"/>
<polygon fill="#191970" stroke="#191970" points="103.0442,-110.1475 92.5688,-108.5615 99.7688,-116.3339 103.0442,-110.1475"/>
</g>
<!-- Node32 -->
<g id="node32" class="node">
<title>Node32</title>
<g id="a_node32"><a xlink:href="../../d9/dcc/classnlohmann_1_1basic__json.html#ab68414151f2f3347a71c7a9984f1d72d" target="_top" xlink:title="applies a JSON Merge Patch">
<polygon fill="none" stroke="#000000" points="162,-102.5 162,-134.5 288,-134.5 288,-102.5 162,-102.5"/>
<text text-anchor="start" x="170" y="-121.5" font-family="FreeSans" font-size="10.00" fill="#000000">nlohmann::basic_json</text>
<text text-anchor="middle" x="225" y="-109.5" font-family="FreeSans" font-size="10.00" fill="#000000">::merge_patch</text>
</a>
</g>
</g>
<!-- Node1&#45;&gt;Node32 -->
<g id="edge45" class="edge">
<title>Node1&#45;&gt;Node32</title>
<path fill="none" stroke="#191970" d="M136.0937,-104.2311C144.6759,-105.6085 153.3775,-107.005 161.8084,-108.3581"/>
<polygon fill="#191970" stroke="#191970" points="136.5256,-100.7557 126.0973,-102.6267 135.4163,-107.6672 136.5256,-100.7557"/>
</g>
<!-- Node33 -->
<g id="node33" class="node">
<title>Node33</title>
<g id="a_node33"><a xlink:href="../../d9/dcc/classnlohmann_1_1basic__json.html#a9b12c96dd09ca71d260c74e34a42f045" target="_top" xlink:title="applies a JSON patch">
<polygon fill="none" stroke="#000000" points="162,-51.5 162,-83.5 288,-83.5 288,-51.5 162,-51.5"/>
<text text-anchor="start" x="170" y="-70.5" font-family="FreeSans" font-size="10.00" fill="#000000">nlohmann::basic_json</text>
<text text-anchor="middle" x="225" y="-58.5" font-family="FreeSans" font-size="10.00" fill="#000000">::patch</text>
</a>
</g>
</g>
<!-- Node1&#45;&gt;Node33 -->
<g id="edge46" class="edge">
<title>Node1&#45;&gt;Node33</title>
<path fill="none" stroke="#191970" d="M136.0937,-81.2201C144.6759,-79.8957 153.3775,-78.5528 161.8084,-77.2518"/>
<polygon fill="#191970" stroke="#191970" points="135.4465,-77.7785 126.0973,-82.7628 136.5141,-84.6966 135.4465,-77.7785"/>
</g>
<!-- Node34 -->
<g id="node34" class="node">
<title>Node34</title>
<g id="a_node34"><a xlink:href="../../d9/dcc/classnlohmann_1_1basic__json.html#a4f811ef36976a82a8e29cb1ae7c40152" target="_top" xlink:title="add an object to an object">
<polygon fill="none" stroke="#000000" points="162,-.5 162,-32.5 288,-32.5 288,-.5 162,-.5"/>
<text text-anchor="start" x="170" y="-19.5" font-family="FreeSans" font-size="10.00" fill="#000000">nlohmann::basic_json</text>
<text text-anchor="middle" x="225" y="-7.5" font-family="FreeSans" font-size="10.00" fill="#000000">::push_back</text>
</a>
</g>
</g>
<!-- Node1&#45;&gt;Node34 -->
<g id="edge47" class="edge">
<title>Node1&#45;&gt;Node34</title>
<path fill="none" stroke="#191970" d="M101.6133,-71.494C119.7411,-61.9214 141.7666,-50.6995 162,-41.5 168.6414,-38.4803 175.7611,-35.457 182.738,-32.6088"/>
<polygon fill="#191970" stroke="#191970" points="99.7049,-68.5446 92.519,-76.3301 102.9916,-74.7251 99.7049,-68.5446"/>
</g>
<!-- Node3 -->
<g id="node3" class="node">
<title>Node3</title>
<g id="a_node3"><a xlink:href="../../d6/dcf/pythia6425mod_8f.html#a3bcc54cc63edef034e45de8d31a94568" target="_top" xlink:title="pysgsu">
<polygon fill="none" stroke="#000000" points="324,-178.5 324,-198.5 376,-198.5 376,-178.5 324,-178.5"/>
<text text-anchor="middle" x="350" y="-185.5" font-family="FreeSans" font-size="10.00" fill="#000000">pysgsu</text>
</a>
</g>
</g>
<!-- Node2&#45;&gt;Node3 -->
<g id="edge2" class="edge">
<title>Node2&#45;&gt;Node3</title>
<path fill="none" stroke="#191970" d="M298.2226,-180.6298C307.3508,-182.0173 316.1644,-183.357 323.853,-184.5257"/>
<polygon fill="#191970" stroke="#191970" points="298.6448,-177.1539 288.2324,-179.1113 297.5929,-184.0744 298.6448,-177.1539"/>
</g>
<!-- Node30 -->
<g id="node30" class="node">
<title>Node30</title>
<g id="a_node30"><a xlink:href="../../d6/dcf/pythia6425mod_8f.html#ae158d47b60e51c8ce75393f8688541f5" target="_top" xlink:title="pythrg">
<polygon fill="none" stroke="#000000" points="325.5,-139.5 325.5,-159.5 374.5,-159.5 374.5,-139.5 325.5,-139.5"/>
<text text-anchor="middle" x="350" y="-146.5" font-family="FreeSans" font-size="10.00" fill="#000000">pythrg</text>
</a>
</g>
</g>
<!-- Node2&#45;&gt;Node30 -->
<g id="edge42" class="edge">
<title>Node2&#45;&gt;Node30</title>
<path fill="none" stroke="#191970" d="M298.3934,-157.7571C308.0581,-156.2107 317.3641,-154.7217 325.3483,-153.4443"/>
<polygon fill="#191970" stroke="#191970" points="297.5538,-154.3468 288.2324,-159.3828 298.6598,-161.2589 297.5538,-154.3468"/>
</g>
<!-- Node4 -->
<g id="node4" class="node">
<title>Node4</title>
<g id="a_node4"><a xlink:href="../../d6/dcf/pythia6425mod_8f.html#a3ccdee32be69df9daf5605283165a012" target="_top" xlink:title="pysigh">
<polygon fill="none" stroke="#000000" points="414,-197.5 414,-217.5 463,-217.5 463,-197.5 414,-197.5"/>
<text text-anchor="middle" x="438.5" y="-204.5" font-family="FreeSans" font-size="10.00" fill="#000000">pysigh</text>
</a>
</g>
</g>
<!-- Node3&#45;&gt;Node4 -->
<g id="edge3" class="edge">
<title>Node3&#45;&gt;Node4</title>
<path fill="none" stroke="#191970" d="M385.9501,-196.2181C395.3141,-198.2285 405.1925,-200.3492 413.8258,-202.2027"/>
<polygon fill="#191970" stroke="#191970" points="386.5862,-192.775 376.0743,-194.0979 385.1168,-199.619 386.5862,-192.775"/>
</g>
<!-- Node5 -->
<g id="node5" class="node">
<title>Node5</title>
<g id="a_node5"><a xlink:href="../../d6/dcf/pythia6425mod_8f.html#aa9cb6f1467302508501201a0e38959d1" target="_top" xlink:title="pymaxi">
<polygon fill="none" stroke="#000000" points="501,-139.5 501,-159.5 554,-159.5 554,-139.5 501,-139.5"/>
<text text-anchor="middle" x="527.5" y="-146.5" font-family="FreeSans" font-size="10.00" fill="#000000">pymaxi</text>
</a>
</g>
</g>
<!-- Node4&#45;&gt;Node5 -->
<g id="edge4" class="edge">
<title>Node4&#45;&gt;Node5</title>
<path fill="none" stroke="#191970" d="M462.6498,-191.7619C478.3144,-181.5535 498.2666,-168.551 511.8764,-159.6817"/>
<polygon fill="#191970" stroke="#191970" points="460.4697,-189.005 454.0026,-197.3972 464.2916,-194.8696 460.4697,-189.005"/>
</g>
<!-- Node10 -->
<g id="node10" class="node">
<title>Node10</title>
<g id="a_node10"><a xlink:href="../../d6/dcf/pythia6425mod_8f.html#a5c7e2372fde451d6f2253ef044e01364" target="_top" xlink:title="pymign">
<polygon fill="none" stroke="#000000" points="590,-216.5 590,-236.5 644,-236.5 644,-216.5 590,-216.5"/>
<text text-anchor="middle" x="617" y="-223.5" font-family="FreeSans" font-size="10.00" fill="#000000">pymign</text>
</a>
</g>
</g>
<!-- Node4&#45;&gt;Node10 -->
<g id="edge9" class="edge">
<title>Node4&#45;&gt;Node10</title>
<path fill="none" stroke="#191970" d="M473.3007,-211.2043C507.3664,-214.8303 558.5611,-220.2796 589.7622,-223.6007"/>
<polygon fill="#191970" stroke="#191970" points="473.634,-207.7201 463.3197,-210.1419 472.893,-214.6807 473.634,-207.7201"/>
</g>
<!-- Node23 -->
<g id="node23" class="node">
<title>Node23</title>
<g id="a_node23"><a xlink:href="../../d6/dcf/pythia6425mod_8f.html#a2d74d5dd64881524212b3720af2696de" target="_top" xlink:title="pyrand">
<polygon fill="none" stroke="#000000" points="680,-255.5 680,-275.5 731,-275.5 731,-255.5 680,-255.5"/>
<text text-anchor="middle" x="705.5" y="-262.5" font-family="FreeSans" font-size="10.00" fill="#000000">pyrand</text>
</a>
</g>
</g>
<!-- Node4&#45;&gt;Node23 -->
<g id="edge41" class="edge">
<title>Node4&#45;&gt;Node23</title>
<path fill="none" stroke="#191970" d="M470.8269,-221.3391C480.4081,-225.0501 491.0113,-228.7818 501,-231.5 564.2048,-248.6998 640.9011,-258.6284 679.96,-262.9311"/>
<polygon fill="#191970" stroke="#191970" points="471.8657,-217.985 461.2809,-217.5226 469.267,-224.4848 471.8657,-217.985"/>
</g>
<!-- Node26 -->
<g id="node26" class="node">
<title>Node26</title>
<g id="a_node26"><a xlink:href="../../d6/dcf/pythia6425mod_8f.html#a4ae1a9148440832c122abdaedf3555a7" target="_top" xlink:title="pymult">
<polygon fill="none" stroke="#000000" points="591,-177.5 591,-197.5 643,-197.5 643,-177.5 591,-177.5"/>
<text text-anchor="middle" x="617" y="-184.5" font-family="FreeSans" font-size="10.00" fill="#000000">pymult</text>
</a>
</g>
</g>
<!-- Node4&#45;&gt;Node26 -->
<g id="edge32" class="edge">
<title>Node4&#45;&gt;Node26</title>
<path fill="none" stroke="#191970" d="M473.4227,-203.5871C507.9223,-199.7216 559.9029,-193.8974 590.9431,-190.4195"/>
<polygon fill="#191970" stroke="#191970" points="472.8677,-200.1273 463.3197,-204.7191 473.6472,-207.0838 472.8677,-200.1273"/>
</g>
<!-- Node27 -->
<g id="node27" class="node">
<title>Node27</title>
<g id="a_node27"><a xlink:href="../../d6/dcf/pythia6425mod_8f.html#af1b5061d1d80462745ef6b9ab52500f2" target="_top" xlink:title="pyptmi">
<polygon fill="none" stroke="#000000" points="502,-294.5 502,-314.5 553,-314.5 553,-294.5 502,-294.5"/>
<text text-anchor="middle" x="527.5" y="-301.5" font-family="FreeSans" font-size="10.00" fill="#000000">pyptmi</text>
</a>
</g>
</g>
<!-- Node4&#45;&gt;Node27 -->
<g id="edge36" class="edge">
<title>Node4&#45;&gt;Node27</title>
<path fill="none" stroke="#191970" d="M453.2304,-225.4536C465.604,-240.2908 483.9484,-261.7274 501,-279.5 505.8167,-284.5204 511.3868,-289.8422 516.1735,-294.2794"/>
<polygon fill="#191970" stroke="#191970" points="455.7645,-223.0262 446.6898,-217.558 450.3738,-227.4917 455.7645,-223.0262"/>
</g>
<!-- Node6 -->
<g id="node6" class="node">
<title>Node6</title>
<g id="a_node6"><a xlink:href="../../d6/dcf/pythia6425mod_8f.html#aac00ac3ccd923c2c3dc37e2b89a9f025" target="_top" xlink:title="pyinit">
<polygon fill="none" stroke="#000000" points="683,-138.5 683,-158.5 728,-158.5 728,-138.5 683,-138.5"/>
<text text-anchor="middle" x="705.5" y="-145.5" font-family="FreeSans" font-size="10.00" fill="#000000">pyinit</text>
</a>
</g>
</g>
<!-- Node5&#45;&gt;Node6 -->
<g id="edge5" class="edge">
<title>Node5&#45;&gt;Node6</title>
<path fill="none" stroke="#191970" d="M564.1725,-149.294C599.8734,-149.0934 652.9946,-148.795 682.9075,-148.6269"/>
<polygon fill="#191970" stroke="#191970" points="564.1285,-145.7941 554.1484,-149.3503 564.1679,-152.794 564.1285,-145.7941"/>
</g>
<!-- Node7 -->
<g id="node7" class="node">
<title>Node7</title>
<g id="a_node7"><a xlink:href="../../d3/dd5/jewel-2_82_80_8f.html#a2cba90a4cdaaf1d5de1cf1bfe9afaa2e" target="_top" xlink:title="initpythia">
<polygon fill="none" stroke="#000000" points="859,-100.5 859,-120.5 922,-120.5 922,-100.5 859,-100.5"/>
<text text-anchor="middle" x="890.5" y="-107.5" font-family="FreeSans" font-size="10.00" fill="#000000">initpythia</text>
</a>
</g>
</g>
<!-- Node6&#45;&gt;Node7 -->
<g id="edge6" class="edge">
<title>Node6&#45;&gt;Node7</title>
<path fill="none" stroke="#191970" d="M738.3037,-141.5114C747.5782,-139.5504 757.6826,-137.4278 767,-135.5 798.1692,-129.051 833.8023,-121.8569 858.7564,-116.8479"/>
<polygon fill="#191970" stroke="#191970" points="737.3281,-138.1404 728.2712,-143.6379 738.7797,-144.9882 737.3281,-138.1404"/>
</g>
<!-- Node9 -->
<g id="node9" class="node">
<title>Node9</title>
<g id="a_node9"><a xlink:href="../../d6/dcf/pythia6425mod_8f.html#a4cc0e611278607d6b413b5cecdfe16c3" target="_top" xlink:title="pytest">
<polygon fill="none" stroke="#000000" points="966.5,-158.5 966.5,-178.5 1014.5,-178.5 1014.5,-158.5 966.5,-158.5"/>
<text text-anchor="middle" x="990.5" y="-165.5" font-family="FreeSans" font-size="10.00" fill="#000000">pytest</text>
</a>
</g>
</g>
<!-- Node6&#45;&gt;Node9 -->
<g id="edge8" class="edge">
<title>Node6&#45;&gt;Node9</title>
<path fill="none" stroke="#191970" d="M738.4224,-150.8103C796.3748,-154.8772 915.2951,-163.2225 966.3461,-166.805"/>
<polygon fill="#191970" stroke="#191970" points="738.5615,-147.3116 728.341,-150.1029 738.0714,-154.2944 738.5615,-147.3116"/>
</g>
<!-- Node8 -->
<g id="node8" class="node">
<title>Node8</title>
<g id="a_node8"><a xlink:href="../../d3/dd5/jewel-2_82_80_8f.html#a15e2df3184692bfe4ca2261638190094" target="_top" xlink:title="jewel">
<polygon fill="none" stroke="#000000" points="1144.5,-100.5 1144.5,-120.5 1187.5,-120.5 1187.5,-100.5 1144.5,-100.5"/>
<text text-anchor="middle" x="1166" y="-107.5" font-family="FreeSans" font-size="10.00" fill="#000000">jewel</text>
</a>
</g>
</g>
<!-- Node7&#45;&gt;Node8 -->
<g id="edge7" class="edge">
<title>Node7&#45;&gt;Node8</title>
<path fill="none" stroke="#191970" d="M932.269,-110.5C991.6794,-110.5 1098.4478,-110.5 1144.2094,-110.5"/>
<polygon fill="#191970" stroke="#191970" points="932.1034,-107.0001 922.1034,-110.5 932.1033,-114.0001 932.1034,-107.0001"/>
</g>
<!-- Node10&#45;&gt;Node6 -->
<g id="edge26" class="edge">
<title>Node10&#45;&gt;Node6</title>
<path fill="none" stroke="#191970" d="M639.302,-210.3082C640.9092,-209.0416 642.4902,-207.7636 644,-206.5 662.9083,-190.6758 683.4853,-170.6424 695.3977,-158.7392"/>
<polygon fill="#191970" stroke="#191970" points="637.0967,-207.5882 631.2564,-216.428 641.3346,-213.1596 637.0967,-207.5882"/>
</g>
<!-- Node11 -->
<g id="node11" class="node">
<title>Node11</title>
<g id="a_node11"><a xlink:href="../../d6/dcf/pythia6425mod_8f.html#ac81fa418f8cd77b0873b2de2a4140933" target="_top" xlink:title="pyevnt">
<polygon fill="none" stroke="#000000" points="864.5,-215.5 864.5,-235.5 916.5,-235.5 916.5,-215.5 864.5,-215.5"/>
<text text-anchor="middle" x="890.5" y="-222.5" font-family="FreeSans" font-size="10.00" fill="#000000">pyevnt</text>
</a>
</g>
</g>
<!-- Node10&#45;&gt;Node11 -->
<g id="edge10" class="edge">
<title>Node10&#45;&gt;Node11</title>
<path fill="none" stroke="#191970" d="M654.4563,-226.363C710.6499,-226.1576 815.3756,-225.7747 864.1904,-225.5962"/>
<polygon fill="#191970" stroke="#191970" points="654.2112,-222.8638 644.2241,-226.4005 654.2369,-229.8638 654.2112,-222.8638"/>
</g>
<!-- Node10&#45;&gt;Node23 -->
<g id="edge27" class="edge">
<title>Node10&#45;&gt;Node23</title>
<path fill="none" stroke="#191970" d="M649.2121,-240.6952C660.3444,-245.6009 672.5767,-250.9914 682.7863,-255.4906"/>
<polygon fill="#191970" stroke="#191970" points="650.3532,-237.3733 639.7909,-236.5435 647.5304,-243.7789 650.3532,-237.3733"/>
</g>
<!-- Node11&#45;&gt;Node9 -->
<g id="edge25" class="edge">
<title>Node11&#45;&gt;Node9</title>
<path fill="none" stroke="#191970" d="M917.07,-210.3551C934.6893,-200.3121 957.3245,-187.4101 972.7768,-178.6022"/>
<polygon fill="#191970" stroke="#191970" points="915.3326,-207.3167 908.378,-215.3095 918.799,-213.3982 915.3326,-207.3167"/>
</g>
<!-- Node12 -->
<g id="node12" class="node">
<title>Node12</title>
<g id="a_node12"><a xlink:href="../../d3/dd5/jewel-2_82_80_8f.html#aeb24fa7919aa21c652e9c8f2ec45cb91" target="_top" xlink:title="genevent">
<polygon fill="none" stroke="#000000" points="958,-215.5 958,-235.5 1023,-235.5 1023,-215.5 958,-215.5"/>
<text text-anchor="middle" x="990.5" y="-222.5" font-family="FreeSans" font-size="10.00" fill="#000000">genevent</text>
</a>
</g>
</g>
<!-- Node11&#45;&gt;Node12 -->
<g id="edge11" class="edge">
<title>Node11&#45;&gt;Node12</title>
<path fill="none" stroke="#191970" d="M926.7245,-225.5C936.8845,-225.5 947.8676,-225.5 957.8092,-225.5"/>
<polygon fill="#191970" stroke="#191970" points="926.5128,-222.0001 916.5128,-225.5 926.5127,-229.0001 926.5128,-222.0001"/>
</g>
<!-- Node12&#45;&gt;Node8 -->
<g id="edge20" class="edge">
<title>Node12&#45;&gt;Node8</title>
<path fill="none" stroke="#191970" d="M1006.9096,-207.454C1012.2495,-201.2884 1018.0672,-194.244 1023,-187.5 1040.9116,-163.0119 1033.8831,-146.5187 1059,-129.5 1084.6154,-112.1435 1121.3239,-109.2274 1144.3999,-109.3731"/>
<polygon fill="#191970" stroke="#191970" points="1004.0561,-205.3972 1000.052,-215.2063 1009.2992,-210.0352 1004.0561,-205.3972"/>
</g>
<!-- Node13 -->
<g id="node13" class="node">
<title>Node13</title>
<g id="a_node13"><a xlink:href="../../dd/d2a/classPHHepMCGenHelper.html#ab0c755f6e53c0bf57ccd314a0017d227" target="_top" xlink:title="send HepMC::GenEvent to DST tree. This function takes ownership of evt">
<polygon fill="none" stroke="#000000" points="1088,-217.5 1088,-249.5 1244,-249.5 1244,-217.5 1088,-217.5"/>
<text text-anchor="start" x="1096" y="-236.5" font-family="FreeSans" font-size="10.00" fill="#000000">PHHepMCGenHelper::insert</text>
<text text-anchor="middle" x="1166" y="-224.5" font-family="FreeSans" font-size="10.00" fill="#000000">_event</text>
</a>
</g>
</g>
<!-- Node12&#45;&gt;Node13 -->
<g id="edge12" class="edge">
<title>Node12&#45;&gt;Node13</title>
<path fill="none" stroke="#191970" d="M1033.413,-227.4561C1049.7869,-228.2025 1069.0089,-229.0788 1087.6575,-229.9288"/>
<polygon fill="#191970" stroke="#191970" points="1033.2479,-223.9451 1023.0989,-226.986 1032.9291,-230.9378 1033.2479,-223.9451"/>
</g>
<!-- Node17 -->
<g id="node17" class="node">
<title>Node17</title>
<g id="a_node17"><a xlink:href="../../da/df0/classPHSartre.html#aafe9fd92317ab1f7eee67a9354696c4e" target="_top" xlink:title="PHSartre::process_event">
<polygon fill="none" stroke="#000000" points="1330.5,-336.5 1330.5,-356.5 1470.5,-356.5 1470.5,-336.5 1330.5,-336.5"/>
<text text-anchor="middle" x="1400.5" y="-343.5" font-family="FreeSans" font-size="10.00" fill="#000000">PHSartre::process_event</text>
</a>
</g>
</g>
<!-- Node12&#45;&gt;Node17 -->
<g id="edge22" class="edge">
<title>Node12&#45;&gt;Node17</title>
<path fill="none" stroke="#191970" d="M1016.9035,-240.2422C1029.3535,-246.6613 1044.6066,-253.7802 1059,-258.5 1150.9414,-288.6487 1185.1086,-258.0367 1273,-298.5 1291.6628,-307.092 1290.4238,-318.7222 1309,-327.5 1316.6279,-331.1044 1324.9322,-334.0285 1333.3235,-336.3998"/>
<polygon fill="#191970" stroke="#191970" points="1018.4651,-237.1088 1007.9898,-235.5214 1015.1888,-243.2948 1018.4651,-237.1088"/>
</g>
<!-- Node19 -->
<g id="node19" class="node">
<title>Node19</title>
<g id="a_node19"><a xlink:href="../../d9/d3a/classPHPythia8.html#a5cc4124cc6be2fb2467714e3d3bc5a6a" target="_top" xlink:title="PHPythia8::process\l_event">
<polygon fill="none" stroke="#000000" points="1344,-93.5 1344,-125.5 1457,-125.5 1457,-93.5 1344,-93.5"/>
<text text-anchor="start" x="1352" y="-112.5" font-family="FreeSans" font-size="10.00" fill="#000000">PHPythia8::process</text>
<text text-anchor="middle" x="1400.5" y="-100.5" font-family="FreeSans" font-size="10.00" fill="#000000">_event</text>
</a>
</g>
</g>
<!-- Node12&#45;&gt;Node19 -->
<g id="edge23" class="edge">
<title>Node12&#45;&gt;Node19</title>
<path fill="none" stroke="#191970" d="M1032.9693,-213.799C1041.557,-211.5858 1050.5451,-209.3784 1059,-207.5 1153.3766,-186.5328 1186.7419,-212.1589 1273,-168.5 1292.6359,-158.5614 1289.8119,-145.2778 1309,-134.5 1319.6248,-128.5322 1331.7526,-123.9256 1343.6267,-120.3919"/>
<polygon fill="#191970" stroke="#191970" points="1031.9126,-210.4577 1023.1278,-216.3804 1033.6886,-217.2286 1031.9126,-210.4577"/>
</g>
<!-- Node21 -->
<g id="node21" class="node">
<title>Node21</title>
<g id="a_node21"><a xlink:href="../../d7/df5/pepsiMaineRHIC__noradcorr_8f.html#ac2ed0c0080f3e6d946824efb82e28ab5" target="_top" xlink:title="pepsimainerhic">
<polygon fill="none" stroke="#000000" points="1119,-139.5 1119,-159.5 1213,-159.5 1213,-139.5 1119,-139.5"/>
<text text-anchor="middle" x="1166" y="-146.5" font-family="FreeSans" font-size="10.00" fill="#000000">pepsimainerhic</text>
</a>
</g>
</g>
<!-- Node12&#45;&gt;Node21 -->
<g id="edge21" class="edge">
<title>Node12&#45;&gt;Node21</title>
<path fill="none" stroke="#191970" d="M1008.9697,-208.4294C1022.0375,-197.2261 1040.4681,-183.1061 1059,-174.5 1077.6862,-165.8223 1099.6496,-160.0169 1118.7994,-156.2048"/>
<polygon fill="#191970" stroke="#191970" points="1006.3879,-206.04 1001.2095,-215.2831 1011.0217,-211.2867 1006.3879,-206.04"/>
</g>
<!-- Node22 -->
<g id="node22" class="node">
<title>Node22</title>
<g id="a_node22"><a xlink:href="../../de/d99/classFun4AllHepMCPileupInputManager.html#a81bf2b69c3c4d3aae0aadebafe1c2c2e" target="_top" xlink:title="Fun4AllHepMCPileupInputManager::run">
<polygon fill="none" stroke="#000000" points="1059,-307.5 1059,-327.5 1273,-327.5 1273,-307.5 1059,-307.5"/>
<text text-anchor="middle" x="1166" y="-314.5" font-family="FreeSans" font-size="10.00" fill="#000000">Fun4AllHepMCPileupInputManager::run</text>
</a>
</g>
</g>
<!-- Node12&#45;&gt;Node22 -->
<g id="edge24" class="edge">
<title>Node12&#45;&gt;Node22</title>
<path fill="none" stroke="#191970" d="M1004.6376,-244.1304C1017.2436,-259.4246 1037.0566,-280.4573 1059,-292.5 1070.9575,-299.0624 1084.5823,-303.9092 1098.0103,-307.4869"/>
<polygon fill="#191970" stroke="#191970" points="1007.0526,-241.5444 998.0865,-235.8999 1001.5757,-245.9037 1007.0526,-241.5444"/>
</g>
<!-- Node14 -->
<g id="node14" class="node">
<title>Node14</title>
<g id="a_node14"><a xlink:href="../../db/d1f/classFun4AllOscarInputManager.html#a1537e89c4e652f70747fbbef18ceadc4" target="_top" xlink:title="Fun4AllOscarInputManager\l::ConvertFromOscar">
<polygon fill="none" stroke="#000000" points="1323.5,-195.5 1323.5,-227.5 1477.5,-227.5 1477.5,-195.5 1323.5,-195.5"/>
<text text-anchor="start" x="1331.5" y="-214.5" font-family="FreeSans" font-size="10.00" fill="#000000">Fun4AllOscarInputManager</text>
<text text-anchor="middle" x="1400.5" y="-202.5" font-family="FreeSans" font-size="10.00" fill="#000000">::ConvertFromOscar</text>
</a>
</g>
</g>
<!-- Node13&#45;&gt;Node14 -->
<g id="edge13" class="edge">
<title>Node13&#45;&gt;Node14</title>
<path fill="none" stroke="#191970" d="M1254.0529,-225.2392C1276.7635,-223.1085 1301.035,-220.8315 1323.155,-218.7563"/>
<polygon fill="#191970" stroke="#191970" points="1253.7144,-221.7555 1244.0851,-226.1743 1254.3683,-228.7249 1253.7144,-221.7555"/>
</g>
<!-- Node16 -->
<g id="node16" class="node">
<title>Node16</title>
<g id="a_node16"><a xlink:href="../../dd/da8/classPHPythia6.html#a7a70bdd1c198a83ed143d3e2c4516d0d" target="_top" xlink:title="PHPythia6::process\l_event">
<polygon fill="none" stroke="#000000" points="1344,-144.5 1344,-176.5 1457,-176.5 1457,-144.5 1344,-144.5"/>
<text text-anchor="start" x="1352" y="-163.5" font-family="FreeSans" font-size="10.00" fill="#000000">PHPythia6::process</text>
<text text-anchor="middle" x="1400.5" y="-151.5" font-family="FreeSans" font-size="10.00" fill="#000000">_event</text>
</a>
</g>
</g>
<!-- Node13&#45;&gt;Node16 -->
<g id="edge15" class="edge">
<title>Node13&#45;&gt;Node16</title>
<path fill="none" stroke="#191970" d="M1237.245,-214.5798C1249.2874,-210.8928 1261.5809,-206.8189 1273,-202.5 1289.5501,-196.2405 1292.4026,-191.6329 1309,-185.5 1320.1218,-181.3904 1332.2253,-177.6149 1343.8787,-174.3107"/>
<polygon fill="#191970" stroke="#191970" points="1236.2372,-211.228 1227.6626,-217.4512 1238.2465,-217.9335 1236.2372,-211.228"/>
</g>
<!-- Node13&#45;&gt;Node17 -->
<g id="edge16" class="edge">
<title>Node13&#45;&gt;Node17</title>
<path fill="none" stroke="#191970" d="M1253.614,-252.5453C1260.5215,-255.9035 1267.0968,-259.8536 1273,-264.5 1298.341,-284.4458 1282.9077,-308.5477 1309,-327.5 1315.4322,-332.172 1322.7543,-335.7517 1330.3899,-338.4859"/>
<polygon fill="#191970" stroke="#191970" points="1254.5835,-249.1481 1244.0208,-248.3232 1251.7637,-255.555 1254.5835,-249.1481"/>
</g>
<!-- Node18 -->
<g id="node18" class="node">
<title>Node18</title>
<g id="a_node18"><a xlink:href="../../d3/d49/classReadEICFiles.html#a49106bf9561329777334154092890af2" target="_top" xlink:title="ReadEICFiles::process\l_event">
<polygon fill="none" stroke="#000000" points="1337.5,-285.5 1337.5,-317.5 1463.5,-317.5 1463.5,-285.5 1337.5,-285.5"/>
<text text-anchor="start" x="1345.5" y="-304.5" font-family="FreeSans" font-size="10.00" fill="#000000">ReadEICFiles::process</text>
<text text-anchor="middle" x="1400.5" y="-292.5" font-family="FreeSans" font-size="10.00" fill="#000000">_event</text>
</a>
</g>
</g>
<!-- Node13&#45;&gt;Node18 -->
<g id="edge17" class="edge">
<title>Node13&#45;&gt;Node18</title>
<path fill="none" stroke="#191970" d="M1232.6699,-252.3713C1246.0543,-256.2847 1259.9982,-260.4514 1273,-264.5 1289.1028,-269.5143 1292.8593,-271.6089 1309,-276.5 1318.9288,-279.5087 1329.5122,-282.5506 1339.8267,-285.4272"/>
<polygon fill="#191970" stroke="#191970" points="1233.624,-249.0038 1223.0444,-249.5718 1231.669,-255.7253 1233.624,-249.0038"/>
</g>
<!-- Node13&#45;&gt;Node19 -->
<g id="edge18" class="edge">
<title>Node13&#45;&gt;Node19</title>
<path fill="none" stroke="#191970" d="M1253.7774,-214.6588C1260.6499,-211.257 1267.1724,-207.241 1273,-202.5 1299.5266,-180.9194 1282.3093,-155.8773 1309,-134.5 1319.0256,-126.4703 1331.4362,-121.0128 1343.8477,-117.3055"/>
<polygon fill="#191970" stroke="#191970" points="1251.9244,-211.6532 1244.2214,-218.9274 1254.7794,-218.0445 1251.9244,-211.6532"/>
</g>
<!-- Node20 -->
<g id="node20" class="node">
<title>Node20</title>
<g id="a_node20"><a xlink:href="../../d6/d6f/classFun4AllHepMCInputManager.html#ab6c80a8ee0701bfff5eee3ec3623015c" target="_top" xlink:title="Fun4AllHepMCInputManager::run">
<polygon fill="none" stroke="#000000" points="1309,-246.5 1309,-266.5 1492,-266.5 1492,-246.5 1309,-246.5"/>
<text text-anchor="middle" x="1400.5" y="-253.5" font-family="FreeSans" font-size="10.00" fill="#000000">Fun4AllHepMCInputManager::run</text>
</a>
</g>
</g>
<!-- Node13&#45;&gt;Node20 -->
<g id="edge19" class="edge">
<title>Node13&#45;&gt;Node20</title>
<path fill="none" stroke="#191970" d="M1254.4513,-242.1754C1272.2659,-243.9227 1291.0261,-245.7627 1308.9442,-247.5201"/>
<polygon fill="#191970" stroke="#191970" points="1254.379,-238.6516 1244.0851,-241.1587 1253.6957,-245.6182 1254.379,-238.6516"/>
</g>
<!-- Node15 -->
<g id="node15" class="node">
<title>Node15</title>
<g id="a_node15"><a xlink:href="../../db/d1f/classFun4AllOscarInputManager.html#a4be602bd8c9fe73f9dcc81c8871784a6" target="_top" xlink:title="Fun4AllOscarInputManager::run">
<polygon fill="none" stroke="#000000" points="1528,-201.5 1528,-221.5 1704,-221.5 1704,-201.5 1528,-201.5"/>
<text text-anchor="middle" x="1616" y="-208.5" font-family="FreeSans" font-size="10.00" fill="#000000">Fun4AllOscarInputManager::run</text>
</a>
</g>
</g>
<!-- Node14&#45;&gt;Node15 -->
<g id="edge14" class="edge">
<title>Node14&#45;&gt;Node15</title>
<path fill="none" stroke="#191970" d="M1487.7391,-211.5C1501.0061,-211.5 1514.7039,-211.5 1527.9873,-211.5"/>
<polygon fill="#191970" stroke="#191970" points="1487.6918,-208.0001 1477.6918,-211.5 1487.6917,-215.0001 1487.6918,-208.0001"/>
</g>
<!-- Node23&#45;&gt;Node11 -->
<g id="edge28" class="edge">
<title>Node23&#45;&gt;Node11</title>
<path fill="none" stroke="#191970" d="M736.7837,-279.055C760.9691,-287.5353 794.9448,-295.0329 823,-284.5 848.9369,-274.7624 871.4388,-250.042 882.7431,-235.882"/>
<polygon fill="#191970" stroke="#191970" points="737.978,-275.765 727.3856,-275.5385 735.5248,-282.321 737.978,-275.765"/>
</g>
<!-- Node24 -->
<g id="node24" class="node">
<title>Node24</title>
<g id="a_node24"><a xlink:href="../../d6/dcf/pythia6425mod_8f.html#a83ae6561ab82fd7af8b1b3e511f477ac" target="_top" xlink:title="pyevnw">
<polygon fill="none" stroke="#000000" points="767,-332.5 767,-352.5 823,-352.5 823,-332.5 767,-332.5"/>
<text text-anchor="middle" x="795" y="-339.5" font-family="FreeSans" font-size="10.00" fill="#000000">pyevnw</text>
</a>
</g>
</g>
<!-- Node23&#45;&gt;Node24 -->
<g id="edge29" class="edge">
<title>Node23&#45;&gt;Node24</title>
<path fill="none" stroke="#191970" d="M725.2237,-282.469C743.0045,-297.7664 768.5546,-319.7481 783.2966,-332.4311"/>
<polygon fill="#191970" stroke="#191970" points="727.0638,-279.4351 717.2006,-275.5664 722.4985,-284.7415 727.0638,-279.4351"/>
</g>
<!-- Node25 -->
<g id="node25" class="node">
<title>Node25</title>
<g id="a_node25"><a xlink:href="../../d6/dcf/pythia6425mod_8f.html#ae7cb37215e5a38b3fb0529c9996646e6" target="_top" xlink:title="pyupev">
<polygon fill="none" stroke="#000000" points="768,-254.5 768,-274.5 822,-274.5 822,-254.5 768,-254.5"/>
<text text-anchor="middle" x="795" y="-261.5" font-family="FreeSans" font-size="10.00" fill="#000000">pyupev</text>
</a>
</g>
</g>
<!-- Node23&#45;&gt;Node25 -->
<g id="edge31" class="edge">
<title>Node23&#45;&gt;Node25</title>
<path fill="none" stroke="#191970" d="M741.45,-265.0983C750.2824,-264.9996 759.591,-264.8956 767.9251,-264.8025"/>
<polygon fill="#191970" stroke="#191970" points="741.3473,-261.5992 731.3871,-265.2108 741.4256,-268.5987 741.3473,-261.5992"/>
</g>
<!-- Node24&#45;&gt;Node11 -->
<g id="edge30" class="edge">
<title>Node24&#45;&gt;Node11</title>
<path fill="none" stroke="#191970" d="M815.3682,-325.2331C818.0199,-322.723 820.6337,-320.1047 823,-317.5 848.0427,-289.9336 872.7071,-253.2391 884.0432,-235.6902"/>
<polygon fill="#191970" stroke="#191970" points="812.5934,-323.0223 807.5093,-332.3176 817.2804,-328.2215 812.5934,-323.0223"/>
</g>
<!-- Node26&#45;&gt;Node6 -->
<g id="edge34" class="edge">
<title>Node26&#45;&gt;Node6</title>
<path fill="none" stroke="#191970" d="M649.2121,-173.3048C660.3444,-168.3991 672.5767,-163.0086 682.7863,-158.5094"/>
<polygon fill="#191970" stroke="#191970" points="647.5304,-170.2211 639.7909,-177.4565 650.3532,-176.6267 647.5304,-170.2211"/>
</g>
<!-- Node26&#45;&gt;Node11 -->
<g id="edge33" class="edge">
<title>Node26&#45;&gt;Node11</title>
<path fill="none" stroke="#191970" d="M653.3992,-192.5573C709.3898,-200.3366 815.3045,-215.0524 864.3551,-221.8674"/>
<polygon fill="#191970" stroke="#191970" points="653.6109,-189.0532 643.2243,-191.1436 652.6475,-195.9866 653.6109,-189.0532"/>
</g>
<!-- Node26&#45;&gt;Node23 -->
<g id="edge35" class="edge">
<title>Node26&#45;&gt;Node23</title>
<path fill="none" stroke="#191970" d="M640.4002,-203.6305C641.6314,-204.5834 642.8386,-205.5435 644,-206.5 663.4164,-222.4901 684.1656,-243.2611 695.9152,-255.4121"/>
<polygon fill="#191970" stroke="#191970" points="642.2819,-200.6697 632.1536,-197.5605 638.1323,-206.3072 642.2819,-200.6697"/>
</g>
<!-- Node28 -->
<g id="node28" class="node">
<title>Node28</title>
<g id="a_node28"><a xlink:href="../../d6/dcf/pythia6425mod_8f.html#a15448b25c4eb515f33e35f86f376af68" target="_top" xlink:title="pyevol">
<polygon fill="none" stroke="#000000" points="680.5,-332.5 680.5,-352.5 730.5,-352.5 730.5,-332.5 680.5,-332.5"/>
<text text-anchor="middle" x="705.5" y="-339.5" font-family="FreeSans" font-size="10.00" fill="#000000">pyevol</text>
</a>
</g>
</g>
<!-- Node27&#45;&gt;Node28 -->
<g id="edge37" class="edge">
<title>Node27&#45;&gt;Node28</title>
<path fill="none" stroke="#191970" d="M562.714,-316.8205C571.5478,-319.6192 581.0584,-322.3861 590,-324.5 620.6121,-331.7371 656.4962,-336.8092 680.0462,-339.6849"/>
<polygon fill="#191970" stroke="#191970" points="563.6869,-313.4564 553.0945,-313.6803 561.5146,-320.1108 563.6869,-313.4564"/>
</g>
<!-- Node29 -->
<g id="node29" class="node">
<title>Node29</title>
<g id="a_node29"><a xlink:href="../../d6/dcf/pythia6425mod_8f.html#ac00de061be805868aa61d626239f5fa9" target="_top" xlink:title="pyptis">
<polygon fill="none" stroke="#000000" points="593.5,-294.5 593.5,-314.5 640.5,-314.5 640.5,-294.5 593.5,-294.5"/>
<text text-anchor="middle" x="617" y="-301.5" font-family="FreeSans" font-size="10.00" fill="#000000">pyptis</text>
</a>
</g>
</g>
<!-- Node27&#45;&gt;Node29 -->
<g id="edge39" class="edge">
<title>Node27&#45;&gt;Node29</title>
<path fill="none" stroke="#191970" d="M563.5278,-304.5C573.5552,-304.5 584.1905,-304.5 593.3129,-304.5"/>
<polygon fill="#191970" stroke="#191970" points="563.3871,-301.0001 553.3871,-304.5 563.3871,-308.0001 563.3871,-301.0001"/>
</g>
<!-- Node28&#45;&gt;Node24 -->
<g id="edge38" class="edge">
<title>Node28&#45;&gt;Node24</title>
<path fill="none" stroke="#191970" d="M740.9979,-342.5C749.5336,-342.5 758.5389,-342.5 766.697,-342.5"/>
<polygon fill="#191970" stroke="#191970" points="740.9077,-339.0001 730.9077,-342.5 740.9077,-346.0001 740.9077,-339.0001"/>
</g>
<!-- Node29&#45;&gt;Node28 -->
<g id="edge40" class="edge">
<title>Node29&#45;&gt;Node28</title>
<path fill="none" stroke="#191970" d="M650.1256,-318.7234C660.7335,-323.2782 672.2535,-328.2247 682.025,-332.4204"/>
<polygon fill="#191970" stroke="#191970" points="651.2861,-315.4127 640.7164,-314.6833 648.5242,-321.8449 651.2861,-315.4127"/>
</g>
<!-- Node31 -->
<g id="node31" class="node">
<title>Node31</title>
<g id="a_node31"><a xlink:href="../../d6/dcf/pythia6425mod_8f.html#a27a2354cb3c8dc0f2fd65bc366f1cad9" target="_top" xlink:title="pymsin">
<polygon fill="none" stroke="#000000" points="412,-139.5 412,-159.5 465,-159.5 465,-139.5 412,-139.5"/>
<text text-anchor="middle" x="438.5" y="-146.5" font-family="FreeSans" font-size="10.00" fill="#000000">pymsin</text>
</a>
</g>
</g>
<!-- Node30&#45;&gt;Node31 -->
<g id="edge43" class="edge">
<title>Node30&#45;&gt;Node31</title>
<path fill="none" stroke="#191970" d="M384.8415,-149.5C393.8131,-149.5 403.3257,-149.5 411.8102,-149.5"/>
<polygon fill="#191970" stroke="#191970" points="384.6522,-146.0001 374.6522,-149.5 384.6521,-153.0001 384.6522,-146.0001"/>
</g>
<!-- Node31&#45;&gt;Node6 -->
<g id="edge44" class="edge">
<title>Node31&#45;&gt;Node6</title>
<path fill="none" stroke="#191970" d="M473.5218,-136.1987C482.3607,-133.4263 491.9219,-130.9171 501,-129.5 566.7034,-119.2436 645.2102,-134.0151 682.9944,-142.7914"/>
<polygon fill="#191970" stroke="#191970" points="472.2965,-132.9177 463.9136,-139.3967 474.5072,-139.5595 472.2965,-132.9177"/>
</g>
</g>
</svg>
