<?xml version="1.0" encoding="UTF-8" standalone="no"?>
<!DOCTYPE svg PUBLIC "-//W3C//DTD SVG 1.1//EN"
 "http://www.w3.org/Graphics/SVG/1.1/DTD/svg11.dtd">
<!-- Generated by graphviz version 2.40.1 (20161225.0304)
 -->
<!-- Title: FW::Generic::ProtoLayerCreatorT&lt; detector_element_t &gt;::Config Pages: 1 -->
<svg width="883pt" height="804pt"
 viewBox="0.00 0.00 883.00 804.21" xmlns="http://www.w3.org/2000/svg" xmlns:xlink="http://www.w3.org/1999/xlink">
<g id="graph0" class="graph" transform="scale(1 1) rotate(0) translate(4 800.2094)">
<title>FW::Generic::ProtoLayerCreatorT&lt; detector_element_t &gt;::Config</title>
<!-- Node1 -->
<g id="node1" class="node">
<title>Node1</title>
<polygon fill="#bfbfbf" stroke="#000000" points="692,-301.2094 692,-333.2094 875,-333.2094 875,-301.2094 692,-301.2094"/>
<text text-anchor="start" x="700" y="-320.2094" font-family="FreeSans" font-size="10.00" fill="#000000">FW::Generic::ProtoLayerCreator</text>
<text text-anchor="middle" x="783.5" y="-308.2094" font-family="FreeSans" font-size="10.00" fill="#000000">T&lt; detector_element_t &gt;::Config</text>
</g>
<!-- Node2 -->
<g id="node2" class="node">
<title>Node2</title>
<polygon fill="none" stroke="#bfbfbf" points="331.5,-671.2094 331.5,-703.2094 468.5,-703.2094 468.5,-671.2094 331.5,-671.2094"/>
<text text-anchor="start" x="339.5" y="-690.2094" font-family="FreeSans" font-size="10.00" fill="#000000">std::vector&lt; std::vector</text>
<text text-anchor="middle" x="400" y="-678.2094" font-family="FreeSans" font-size="10.00" fill="#000000">&lt; int &gt; &gt;</text>
</g>
<!-- Node2&#45;&gt;Node1 -->
<g id="edge1" class="edge">
<title>Node2&#45;&gt;Node1</title>
<path fill="none" stroke="#9a32cd" stroke-dasharray="5,2" d="M478.887,-698.8156C538.9193,-703.1013 620.1269,-698.5141 674,-654.2094 726.0279,-611.422 769.1744,-395.2155 780.5595,-333.6121"/>
<polygon fill="#9a32cd" stroke="#9a32cd" points="478.9404,-695.3086 468.6901,-697.9887 478.3745,-702.2857 478.9404,-695.3086"/>
<text text-anchor="middle" x="596.5" y="-702.2094" font-family="FreeSans" font-size="10.00" fill="#000000"> posnegModuleReadoutSide</text>
</g>
<!-- Node3 -->
<g id="node3" class="node">
<title>Node3</title>
<polygon fill="none" stroke="#bfbfbf" points="53,-710.2094 53,-730.2094 159,-730.2094 159,-710.2094 53,-710.2094"/>
<text text-anchor="middle" x="106" y="-717.2094" font-family="FreeSans" font-size="10.00" fill="#000000">std::vector&lt; int &gt;</text>
</g>
<!-- Node3&#45;&gt;Node1 -->
<g id="edge10" class="edge">
<title>Node3&#45;&gt;Node1</title>
<path fill="none" stroke="#9a32cd" stroke-dasharray="5,2" d="M142.8714,-733.5146C241.1133,-766.3907 512.6675,-840.1077 674,-715.2094 737.0428,-666.4037 773.2164,-401.7846 781.6041,-333.3646"/>
<polygon fill="#9a32cd" stroke="#9a32cd" points="143.9687,-730.191 133.3742,-730.2816 141.7128,-736.8176 143.9687,-730.191"/>
<text text-anchor="middle" x="400" y="-787.2094" font-family="FreeSans" font-size="10.00" fill="#000000"> centralModuleReadoutSide</text>
</g>
<!-- Node3&#45;&gt;Node2 -->
<g id="edge2" class="edge">
<title>Node3&#45;&gt;Node2</title>
<path fill="none" stroke="#9a32cd" stroke-dasharray="5,2" d="M169.4439,-713.0881C217.1439,-707.734 282.4179,-700.4073 331.339,-694.9162"/>
<polygon fill="#9a32cd" stroke="#9a32cd" points="168.7883,-709.6396 159.2412,-714.2333 169.5692,-716.5959 168.7883,-709.6396"/>
<text text-anchor="middle" x="255.5" y="-708.2094" font-family="FreeSans" font-size="10.00" fill="#000000"> elements</text>
</g>
<!-- Node4 -->
<g id="node4" class="node">
<title>Node4</title>
<polygon fill="none" stroke="#bfbfbf" points="317.5,-559.2094 317.5,-603.2094 482.5,-603.2094 482.5,-559.2094 317.5,-559.2094"/>
<text text-anchor="start" x="325.5" y="-590.2094" font-family="FreeSans" font-size="10.00" fill="#000000">std::vector&lt; std::vector</text>
<text text-anchor="start" x="325.5" y="-578.2094" font-family="FreeSans" font-size="10.00" fill="#000000">&lt; std::shared_ptr&lt; const</text>
<text text-anchor="middle" x="400" y="-566.2094" font-family="FreeSans" font-size="10.00" fill="#000000"> Acts::ISurfaceMaterial &gt; &gt; &gt;</text>
</g>
<!-- Node4&#45;&gt;Node1 -->
<g id="edge3" class="edge">
<title>Node4&#45;&gt;Node1</title>
<path fill="none" stroke="#9a32cd" stroke-dasharray="5,2" d="M486.9797,-555.8286C544.3605,-536.0479 618.8347,-504.305 674,-459.2094 719.5542,-421.9705 757.5288,-362.3187 774.2858,-333.6455"/>
<polygon fill="#9a32cd" stroke="#9a32cd" points="485.5479,-552.6182 477.1997,-559.1418 487.794,-559.2481 485.5479,-552.6182"/>
<text text-anchor="middle" x="596.5" y="-544.2094" font-family="FreeSans" font-size="10.00" fill="#000000"> posnegModuleMaterial</text>
</g>
<!-- Node5 -->
<g id="node5" class="node">
<title>Node5</title>
<polygon fill="none" stroke="#bfbfbf" points="0,-602.2094 0,-634.2094 212,-634.2094 212,-602.2094 0,-602.2094"/>
<text text-anchor="start" x="8" y="-621.2094" font-family="FreeSans" font-size="10.00" fill="#000000">std::vector&lt; std::shared</text>
<text text-anchor="middle" x="106" y="-609.2094" font-family="FreeSans" font-size="10.00" fill="#000000">_ptr&lt; const Acts::ISurfaceMaterial &gt; &gt;</text>
</g>
<!-- Node5&#45;&gt;Node1 -->
<g id="edge16" class="edge">
<title>Node5&#45;&gt;Node1</title>
<path fill="none" stroke="#9a32cd" stroke-dasharray="5,2" d="M222.5727,-617.7457C242.0817,-617.61 262.1144,-617.435 281,-617.2094 457.678,-615.0985 542.0883,-674.763 674,-557.2094 744.777,-494.1362 772.688,-376.1464 780.7797,-333.2893"/>
<polygon fill="#9a32cd" stroke="#9a32cd" points="222.4038,-614.2466 212.4273,-617.8131 222.4503,-621.2465 222.4038,-614.2466"/>
<text text-anchor="middle" x="400" y="-633.2094" font-family="FreeSans" font-size="10.00" fill="#000000"> centralModuleMaterial</text>
</g>
<!-- Node5&#45;&gt;Node4 -->
<g id="edge4" class="edge">
<title>Node5&#45;&gt;Node4</title>
<path fill="none" stroke="#9a32cd" stroke-dasharray="5,2" d="M222.3456,-603.5672C254.016,-599.5815 287.6731,-595.3457 317.0773,-591.6452"/>
<polygon fill="#9a32cd" stroke="#9a32cd" points="221.6254,-600.1302 212.1407,-604.8515 222.4995,-607.0754 221.6254,-600.1302"/>
<text text-anchor="middle" x="255.5" y="-604.2094" font-family="FreeSans" font-size="10.00" fill="#000000"> elements</text>
</g>
<!-- Node6 -->
<g id="node6" class="node">
<title>Node6</title>
<polygon fill="none" stroke="#bfbfbf" points="331.5,-339.2094 331.5,-371.2094 468.5,-371.2094 468.5,-339.2094 331.5,-339.2094"/>
<text text-anchor="start" x="339.5" y="-358.2094" font-family="FreeSans" font-size="10.00" fill="#000000">std::vector&lt; std::vector</text>
<text text-anchor="middle" x="400" y="-346.2094" font-family="FreeSans" font-size="10.00" fill="#000000">&lt; double &gt; &gt;</text>
</g>
<!-- Node6&#45;&gt;Node1 -->
<g id="edge5" class="edge">
<title>Node6&#45;&gt;Node1</title>
<path fill="none" stroke="#9a32cd" stroke-dasharray="5,2" d="M478.8617,-340.8339C492.2253,-338.72 505.9851,-336.7421 519,-335.2094 576.2523,-328.4668 640.7966,-324.0132 691.7928,-321.2228"/>
<polygon fill="#9a32cd" stroke="#9a32cd" points="478.0513,-337.4194 468.7387,-342.4719 479.1694,-344.3296 478.0513,-337.4194"/>
<text text-anchor="middle" x="596.5" y="-422.2094" font-family="FreeSans" font-size="10.00" fill="#000000"> posnegModuleLorentzAngle</text>
<text text-anchor="middle" x="596.5" y="-410.2094" font-family="FreeSans" font-size="10.00" fill="#000000">posnegModuleBacksideGap</text>
<text text-anchor="middle" x="596.5" y="-398.2094" font-family="FreeSans" font-size="10.00" fill="#000000">posnegModuleThickness</text>
<text text-anchor="middle" x="596.5" y="-386.2094" font-family="FreeSans" font-size="10.00" fill="#000000">posnegModuleHalfY</text>
<text text-anchor="middle" x="596.5" y="-374.2094" font-family="FreeSans" font-size="10.00" fill="#000000">posnegModuleBacksideStereo</text>
<text text-anchor="middle" x="596.5" y="-362.2094" font-family="FreeSans" font-size="10.00" fill="#000000">posnegModuleFrontsideStereo</text>
<text text-anchor="middle" x="596.5" y="-350.2094" font-family="FreeSans" font-size="10.00" fill="#000000">posnegModuleMinHalfX</text>
<text text-anchor="middle" x="596.5" y="-338.2094" font-family="FreeSans" font-size="10.00" fill="#000000">posnegModuleMaxHalfX</text>
</g>
<!-- Node7 -->
<g id="node7" class="node">
<title>Node7</title>
<polygon fill="none" stroke="#bfbfbf" points="42,-378.2094 42,-398.2094 170,-398.2094 170,-378.2094 42,-378.2094"/>
<text text-anchor="middle" x="106" y="-385.2094" font-family="FreeSans" font-size="10.00" fill="#000000">std::vector&lt; double &gt;</text>
</g>
<!-- Node7&#45;&gt;Node1 -->
<g id="edge17" class="edge">
<title>Node7&#45;&gt;Node1</title>
<path fill="none" stroke="#9a32cd" stroke-dasharray="5,2" d="M180.1238,-389.0601C277.8293,-391 443.9989,-397.3607 501,-418.2094 510.2678,-421.5991 509.6104,-428.1732 519,-431.2094 584.5473,-452.4043 610.6235,-458.2113 674,-431.2094 720.9591,-411.2021 757.485,-360.0881 773.9491,-333.631"/>
<polygon fill="#9a32cd" stroke="#9a32cd" points="180.0797,-385.5587 170.0157,-388.8703 179.9482,-392.5575 180.0797,-385.5587"/>
<text text-anchor="middle" x="400" y="-541.2094" font-family="FreeSans" font-size="10.00" fill="#000000"> centralModuleHalfY</text>
<text text-anchor="middle" x="400" y="-529.2094" font-family="FreeSans" font-size="10.00" fill="#000000">centralModuleTiltPhi</text>
<text text-anchor="middle" x="400" y="-517.2094" font-family="FreeSans" font-size="10.00" fill="#000000">centralModuleThickness</text>
<text text-anchor="middle" x="400" y="-505.2094" font-family="FreeSans" font-size="10.00" fill="#000000">centralModuleBacksideGap</text>
<text text-anchor="middle" x="400" y="-493.2094" font-family="FreeSans" font-size="10.00" fill="#000000">centralModuleFrontsideStereo</text>
<text text-anchor="middle" x="400" y="-481.2094" font-family="FreeSans" font-size="10.00" fill="#000000">posnegLayerPositionsZ</text>
<text text-anchor="middle" x="400" y="-469.2094" font-family="FreeSans" font-size="10.00" fill="#000000">centralModuleLorentzAngle</text>
<text text-anchor="middle" x="400" y="-457.2094" font-family="FreeSans" font-size="10.00" fill="#000000">posnegLayerEnvelopeR</text>
<text text-anchor="middle" x="400" y="-445.2094" font-family="FreeSans" font-size="10.00" fill="#000000">centralModuleBacksideStereo</text>
<text text-anchor="middle" x="400" y="-433.2094" font-family="FreeSans" font-size="10.00" fill="#000000">centralLayerRadii</text>
<text text-anchor="middle" x="400" y="-421.2094" font-family="FreeSans" font-size="10.00" fill="#000000">...</text>
</g>
<!-- Node7&#45;&gt;Node6 -->
<g id="edge6" class="edge">
<title>Node7&#45;&gt;Node6</title>
<path fill="none" stroke="#9a32cd" stroke-dasharray="5,2" d="M180.1584,-379.8854C226.5978,-374.6729 286.0165,-368.0034 331.3701,-362.9127"/>
<polygon fill="#9a32cd" stroke="#9a32cd" points="179.7034,-376.4145 170.1563,-381.0081 180.4843,-383.3708 179.7034,-376.4145"/>
<text text-anchor="middle" x="255.5" y="-376.2094" font-family="FreeSans" font-size="10.00" fill="#000000"> elements</text>
</g>
<!-- Node8 -->
<g id="node8" class="node">
<title>Node8</title>
<polygon fill="none" stroke="#bfbfbf" points="37.5,-272.2094 37.5,-304.2094 174.5,-304.2094 174.5,-272.2094 37.5,-272.2094"/>
<text text-anchor="start" x="45.5" y="-291.2094" font-family="FreeSans" font-size="10.00" fill="#000000">std::vector&lt; std::vector</text>
<text text-anchor="middle" x="106" y="-279.2094" font-family="FreeSans" font-size="10.00" fill="#000000">&lt; Acts::Vector3D &gt; &gt;</text>
</g>
<!-- Node8&#45;&gt;Node1 -->
<g id="edge7" class="edge">
<title>Node8&#45;&gt;Node1</title>
<path fill="none" stroke="#9a32cd" stroke-dasharray="5,2" d="M185.052,-291.5931C311.3526,-296.9994 558.0131,-307.5575 691.8438,-313.2861"/>
<polygon fill="#9a32cd" stroke="#9a32cd" points="184.8313,-288.0806 174.6907,-291.1496 184.5318,-295.0742 184.8313,-288.0806"/>
<text text-anchor="middle" x="400" y="-307.2094" font-family="FreeSans" font-size="10.00" fill="#000000"> centralModulePositions</text>
</g>
<!-- Node12 -->
<g id="node12" class="node">
<title>Node12</title>
<polygon fill="none" stroke="#bfbfbf" points="299,-239.2094 299,-271.2094 501,-271.2094 501,-239.2094 299,-239.2094"/>
<text text-anchor="start" x="307" y="-258.2094" font-family="FreeSans" font-size="10.00" fill="#000000">std::vector&lt; std::vector</text>
<text text-anchor="middle" x="400" y="-246.2094" font-family="FreeSans" font-size="10.00" fill="#000000">&lt; std::vector&lt; Acts::Vector3D &gt; &gt; &gt;</text>
</g>
<!-- Node8&#45;&gt;Node12 -->
<g id="edge13" class="edge">
<title>Node8&#45;&gt;Node12</title>
<path fill="none" stroke="#9a32cd" stroke-dasharray="5,2" d="M184.745,-279.3706C219.8361,-275.4318 261.597,-270.7444 298.9553,-266.5511"/>
<polygon fill="#9a32cd" stroke="#9a32cd" points="184.1061,-275.9203 174.5589,-280.514 184.8869,-282.8766 184.1061,-275.9203"/>
<text text-anchor="middle" x="255.5" y="-276.2094" font-family="FreeSans" font-size="10.00" fill="#000000"> elements</text>
</g>
<!-- Node9 -->
<g id="node9" class="node">
<title>Node9</title>
<polygon fill="none" stroke="#bfbfbf" points="338,-188.2094 338,-220.2094 462,-220.2094 462,-188.2094 338,-188.2094"/>
<text text-anchor="start" x="346" y="-207.2094" font-family="FreeSans" font-size="10.00" fill="#000000">std::vector&lt; std::pair</text>
<text text-anchor="middle" x="400" y="-195.2094" font-family="FreeSans" font-size="10.00" fill="#000000">&lt; int, int &gt; &gt;</text>
</g>
<!-- Node9&#45;&gt;Node1 -->
<g id="edge8" class="edge">
<title>Node9&#45;&gt;Node1</title>
<path fill="none" stroke="#9a32cd" stroke-dasharray="5,2" d="M472.5128,-204.3587C529.1415,-206.6688 608.8785,-214.8197 674,-240.2094 710.3763,-254.3918 746.1665,-283.1209 766.4738,-301.1963"/>
<polygon fill="#9a32cd" stroke="#9a32cd" points="472.3348,-200.8502 462.2167,-203.9925 472.0859,-207.8458 472.3348,-200.8502"/>
<text text-anchor="middle" x="596.5" y="-243.2094" font-family="FreeSans" font-size="10.00" fill="#000000"> centralModuleBinningSchema</text>
</g>
<!-- Node10 -->
<g id="node10" class="node">
<title>Node10</title>
<polygon fill="none" stroke="#bfbfbf" points="337,-137.2094 337,-169.2094 463,-169.2094 463,-137.2094 337,-137.2094"/>
<text text-anchor="start" x="345" y="-156.2094" font-family="FreeSans" font-size="10.00" fill="#000000">std::vector&lt; std::pair</text>
<text text-anchor="middle" x="400" y="-144.2094" font-family="FreeSans" font-size="10.00" fill="#000000">&lt; double, double &gt; &gt;</text>
</g>
<!-- Node10&#45;&gt;Node1 -->
<g id="edge9" class="edge">
<title>Node10&#45;&gt;Node1</title>
<path fill="none" stroke="#9a32cd" stroke-dasharray="5,2" d="M473.3258,-149.7199C531.1381,-150.0704 612.0603,-157.6463 674,-191.2094 722.1588,-217.305 758.8921,-273.5462 774.821,-301.1976"/>
<polygon fill="#9a32cd" stroke="#9a32cd" points="473.1676,-146.2199 463.1714,-149.7308 473.1752,-153.2199 473.1676,-146.2199"/>
<text text-anchor="middle" x="596.5" y="-194.2094" font-family="FreeSans" font-size="10.00" fill="#000000"> centralLayerEnvelopes</text>
</g>
<!-- Node11 -->
<g id="node11" class="node">
<title>Node11</title>
<polygon fill="none" stroke="#bfbfbf" points="45.5,-52.2094 45.5,-72.2094 166.5,-72.2094 166.5,-52.2094 45.5,-52.2094"/>
<text text-anchor="middle" x="106" y="-59.2094" font-family="FreeSans" font-size="10.00" fill="#000000">std::vector&lt; size_t &gt;</text>
</g>
<!-- Node11&#45;&gt;Node1 -->
<g id="edge11" class="edge">
<title>Node11&#45;&gt;Node1</title>
<path fill="none" stroke="#9a32cd" stroke-dasharray="5,2" d="M177.2043,-62.6691C256.8077,-64.3248 389.2217,-70.5024 501,-92.2094 580.2014,-107.59 609.9272,-98.1776 674,-147.2094 728.9232,-189.2394 764.1597,-267.2529 777.4842,-300.9798"/>
<polygon fill="#9a32cd" stroke="#9a32cd" points="176.8726,-59.1623 166.8082,-62.4724 176.7402,-66.161 176.8726,-59.1623"/>
<text text-anchor="start" x="328.5" y="-119.2094" font-family="FreeSans" font-size="10.00" fill="#000000"> centralModuleReadoutBins</text>
<text text-anchor="middle" x="400" y="-107.2094" font-family="FreeSans" font-size="10.00" fill="#000000">X</text>
<text text-anchor="middle" x="400" y="-95.2094" font-family="FreeSans" font-size="10.00" fill="#000000">centralModuleReadoutBinsY</text>
</g>
<!-- Node13 -->
<g id="node13" class="node">
<title>Node13</title>
<polygon fill="none" stroke="#bfbfbf" points="331.5,-13.2094 331.5,-45.2094 468.5,-45.2094 468.5,-13.2094 331.5,-13.2094"/>
<text text-anchor="start" x="339.5" y="-32.2094" font-family="FreeSans" font-size="10.00" fill="#000000">std::vector&lt; std::vector</text>
<text text-anchor="middle" x="400" y="-20.2094" font-family="FreeSans" font-size="10.00" fill="#000000">&lt; size_t &gt; &gt;</text>
</g>
<!-- Node11&#45;&gt;Node13 -->
<g id="edge15" class="edge">
<title>Node11&#45;&gt;Node13</title>
<path fill="none" stroke="#9a32cd" stroke-dasharray="5,2" d="M176.64,-54.2804C223.5352,-49.0166 284.7832,-42.1418 331.2796,-36.9229"/>
<polygon fill="#9a32cd" stroke="#9a32cd" points="176.1077,-50.8181 166.5605,-55.4117 176.8885,-57.7744 176.1077,-50.8181"/>
<text text-anchor="middle" x="255.5" y="-51.2094" font-family="FreeSans" font-size="10.00" fill="#000000"> elements</text>
</g>
<!-- Node12&#45;&gt;Node1 -->
<g id="edge12" class="edge">
<title>Node12&#45;&gt;Node1</title>
<path fill="none" stroke="#9a32cd" stroke-dasharray="5,2" d="M511.4639,-255.9589C561.6349,-258.1796 621.3037,-263.4498 674,-275.2094 700.0324,-281.0187 728.0955,-291.8805 749.2943,-301.1026"/>
<polygon fill="#9a32cd" stroke="#9a32cd" points="511.3694,-252.4523 501.2352,-255.5423 511.0844,-259.4465 511.3694,-252.4523"/>
<text text-anchor="middle" x="596.5" y="-278.2094" font-family="FreeSans" font-size="10.00" fill="#000000"> posnegModulePositions</text>
</g>
<!-- Node13&#45;&gt;Node1 -->
<g id="edge14" class="edge">
<title>Node13&#45;&gt;Node1</title>
<path fill="none" stroke="#9a32cd" stroke-dasharray="5,2" d="M464.625,-10.8869C524.4057,1.9757 612.9808,10.208 674,-32.2094 721.0046,-64.8845 766.6435,-245.3158 779.7581,-300.9029"/>
<polygon fill="#9a32cd" stroke="#9a32cd" points="463.536,-7.5444 454.5499,-13.1569 465.0746,-14.3733 463.536,-7.5444"/>
<text text-anchor="middle" x="596.5" y="-59.2094" font-family="FreeSans" font-size="10.00" fill="#000000"> posnegModulePhiBins</text>
<text text-anchor="middle" x="596.5" y="-47.2094" font-family="FreeSans" font-size="10.00" fill="#000000">posnegModuleReadoutBinsX</text>
<text text-anchor="middle" x="596.5" y="-35.2094" font-family="FreeSans" font-size="10.00" fill="#000000">posnegModuleReadoutBinsY</text>
</g>
</g>
</svg>
