<?xml version="1.0" encoding="UTF-8" standalone="no"?>
<!DOCTYPE svg PUBLIC "-//W3C//DTD SVG 1.1//EN"
 "http://www.w3.org/Graphics/SVG/1.1/DTD/svg11.dtd">
<!-- Generated by graphviz version 2.40.1 (20161225.0304)
 -->
<!-- Title: JetReco::add_algo Pages: 1 -->
<svg width="406pt" height="185pt"
 viewBox="0.00 0.00 406.00 185.00" xmlns="http://www.w3.org/2000/svg" xmlns:xlink="http://www.w3.org/1999/xlink">
<g id="graph0" class="graph" transform="scale(1 1) rotate(0) translate(4 181)">
<title>JetReco::add_algo</title>
<!-- Node1 -->
<g id="node1" class="node">
<title>Node1</title>
<polygon fill="#bfbfbf" stroke="#000000" points="0,-78.5 0,-98.5 107,-98.5 107,-78.5 0,-78.5"/>
<text text-anchor="middle" x="53.5" y="-85.5" font-family="FreeSans" font-size="10.00" fill="#000000">JetReco::add_algo</text>
</g>
<!-- Node2 -->
<g id="node2" class="node">
<title>Node2</title>
<g id="a_node2"><a xlink:href="../../d4/d40/G4__HIJetReco_8C.html#a9cf9382ceffe61f139e2b7ebb82609bc" target="_top" xlink:title="HIJetReco">
<polygon fill="none" stroke="#000000" points="151,-117.5 151,-137.5 215,-137.5 215,-117.5 151,-117.5"/>
<text text-anchor="middle" x="183" y="-124.5" font-family="FreeSans" font-size="10.00" fill="#000000">HIJetReco</text>
</a>
</g>
</g>
<!-- Node1&#45;&gt;Node2 -->
<g id="edge1" class="edge">
<title>Node1&#45;&gt;Node2</title>
<path fill="none" stroke="#191970" d="M96.8781,-101.5637C114.4529,-106.8565 134.3936,-112.8618 150.6583,-117.76"/>
<polygon fill="#191970" stroke="#191970" points="97.434,-98.0759 86.8495,-98.5435 95.4154,-104.7785 97.434,-98.0759"/>
</g>
<!-- Node7 -->
<g id="node7" class="node">
<title>Node7</title>
<g id="a_node7"><a xlink:href="../../db/d19/G4__FwdJets_8C.html#a3635dcde22631de66ae1b3668981a96b" target="_top" xlink:title="Jet_FwdReco">
<polygon fill="none" stroke="#000000" points="143,-39.5 143,-59.5 223,-59.5 223,-39.5 143,-39.5"/>
<text text-anchor="middle" x="183" y="-46.5" font-family="FreeSans" font-size="10.00" fill="#000000">Jet_FwdReco</text>
</a>
</g>
</g>
<!-- Node1&#45;&gt;Node7 -->
<g id="edge6" class="edge">
<title>Node1&#45;&gt;Node7</title>
<path fill="none" stroke="#191970" d="M96.7202,-75.4839C114.0126,-70.2761 133.6169,-64.3721 149.7635,-59.5094"/>
<polygon fill="#191970" stroke="#191970" points="95.4154,-72.2215 86.8495,-78.4565 97.434,-78.9241 95.4154,-72.2215"/>
</g>
<!-- Node9 -->
<g id="node9" class="node">
<title>Node9</title>
<g id="a_node9"><a xlink:href="../../d5/d1a/G4__Jets_8C.html#ae88e629b838c582762b252f4487eac6e" target="_top" xlink:title="Jet_Reco">
<polygon fill="none" stroke="#000000" points="153.5,-78.5 153.5,-98.5 212.5,-98.5 212.5,-78.5 153.5,-78.5"/>
<text text-anchor="middle" x="183" y="-85.5" font-family="FreeSans" font-size="10.00" fill="#000000">Jet_Reco</text>
</a>
</g>
</g>
<!-- Node1&#45;&gt;Node9 -->
<g id="edge9" class="edge">
<title>Node1&#45;&gt;Node9</title>
<path fill="none" stroke="#191970" d="M117.3152,-88.5C129.8676,-88.5 142.4667,-88.5 153.2253,-88.5"/>
<polygon fill="#191970" stroke="#191970" points="117.2947,-85.0001 107.2946,-88.5 117.2946,-92.0001 117.2947,-85.0001"/>
</g>
<!-- Node3 -->
<g id="node3" class="node">
<title>Node3</title>
<g id="a_node3"><a xlink:href="../../db/dc0/Fun4All__AnaTutorial_8C.html#a8c484ea6d7477278e981ef056b17eac9" target="_top" xlink:title="Fun4All_AnaTutorial">
<polygon fill="none" stroke="#000000" points="271,-156.5 271,-176.5 386,-176.5 386,-156.5 271,-156.5"/>
<text text-anchor="middle" x="328.5" y="-163.5" font-family="FreeSans" font-size="10.00" fill="#000000">Fun4All_AnaTutorial</text>
</a>
</g>
</g>
<!-- Node2&#45;&gt;Node3 -->
<g id="edge2" class="edge">
<title>Node2&#45;&gt;Node3</title>
<path fill="none" stroke="#191970" d="M225.1646,-138.8018C246.0279,-144.3941 270.9944,-151.0861 291.1601,-156.4914"/>
<polygon fill="#191970" stroke="#191970" points="225.8564,-135.3638 215.2912,-136.1554 224.044,-142.1251 225.8564,-135.3638"/>
</g>
<!-- Node4 -->
<g id="node4" class="node">
<title>Node4</title>
<g id="a_node4"><a xlink:href="../../dd/d28/Fun4All__AnaTutorial__Jets_8C.html#a55eaaeb770a3177f917012de87877d28" target="_top" xlink:title="Fun4All_AnaTutorial_Jets">
<polygon fill="none" stroke="#000000" points="259,-117.5 259,-137.5 398,-137.5 398,-117.5 259,-117.5"/>
<text text-anchor="middle" x="328.5" y="-124.5" font-family="FreeSans" font-size="10.00" fill="#000000">Fun4All_AnaTutorial_Jets</text>
</a>
</g>
</g>
<!-- Node2&#45;&gt;Node4 -->
<g id="edge3" class="edge">
<title>Node2&#45;&gt;Node4</title>
<path fill="none" stroke="#191970" d="M225.3855,-127.5C235.8628,-127.5 247.3641,-127.5 258.7664,-127.5"/>
<polygon fill="#191970" stroke="#191970" points="225.2912,-124.0001 215.2912,-127.5 225.2911,-131.0001 225.2912,-124.0001"/>
</g>
<!-- Node5 -->
<g id="node5" class="node">
<title>Node5</title>
<g id="a_node5"><a xlink:href="../../da/d02/Fun4All__G4__EICDetector_8C.html#afbe82cefa1d1fd031d9a8586b7bb68c6" target="_top" xlink:title="Fun4All_G4_EICDetector">
<polygon fill="none" stroke="#000000" points="259,-39.5 259,-59.5 398,-59.5 398,-39.5 259,-39.5"/>
<text text-anchor="middle" x="328.5" y="-46.5" font-family="FreeSans" font-size="10.00" fill="#000000">Fun4All_G4_EICDetector</text>
</a>
</g>
</g>
<!-- Node2&#45;&gt;Node5 -->
<g id="edge4" class="edge">
<title>Node2&#45;&gt;Node5</title>
<path fill="none" stroke="#191970" d="M217.1248,-112.4256C219.1626,-111.18 221.1385,-109.8699 223,-108.5 241.9991,-94.5186 238.9242,-81.8857 259,-69.5 265.6251,-65.4127 273.1177,-62.132 280.669,-59.5071"/>
<polygon fill="#191970" stroke="#191970" points="215.0394,-109.5777 207.9575,-117.4579 218.4078,-115.7139 215.0394,-109.5777"/>
</g>
<!-- Node6 -->
<g id="node6" class="node">
<title>Node6</title>
<g id="a_node6"><a xlink:href="../../d0/d13/Fun4All__G4__sPHENIX_8C.html#a536fa7366e3aeaf273cca94ced704c46" target="_top" xlink:title="Fun4All_G4_sPHENIX">
<polygon fill="none" stroke="#000000" points="268,-78.5 268,-98.5 389,-98.5 389,-78.5 268,-78.5"/>
<text text-anchor="middle" x="328.5" y="-85.5" font-family="FreeSans" font-size="10.00" fill="#000000">Fun4All_G4_sPHENIX</text>
</a>
</g>
</g>
<!-- Node2&#45;&gt;Node6 -->
<g id="edge5" class="edge">
<title>Node2&#45;&gt;Node6</title>
<path fill="none" stroke="#191970" d="M225.1646,-116.1982C246.0279,-110.6059 270.9944,-103.9139 291.1601,-98.5086"/>
<polygon fill="#191970" stroke="#191970" points="224.044,-112.8749 215.2912,-118.8446 225.8564,-119.6362 224.044,-112.8749"/>
</g>
<!-- Node7&#45;&gt;Node5 -->
<g id="edge7" class="edge">
<title>Node7&#45;&gt;Node5</title>
<path fill="none" stroke="#191970" d="M233.3338,-49.5C241.5876,-49.5 250.268,-49.5 258.8895,-49.5"/>
<polygon fill="#191970" stroke="#191970" points="233.1437,-46.0001 223.1437,-49.5 233.1436,-53.0001 233.1437,-46.0001"/>
</g>
<!-- Node8 -->
<g id="node8" class="node">
<title>Node8</title>
<g id="a_node8"><a xlink:href="../../d7/d9e/Fun4All__G4__fsPHENIX_8C.html#a72c444217210a14ab1b4e66d9818b1ff" target="_top" xlink:title="Fun4All_G4_fsPHENIX">
<polygon fill="none" stroke="#000000" points="266.5,-.5 266.5,-20.5 390.5,-20.5 390.5,-.5 266.5,-.5"/>
<text text-anchor="middle" x="328.5" y="-7.5" font-family="FreeSans" font-size="10.00" fill="#000000">Fun4All_G4_fsPHENIX</text>
</a>
</g>
</g>
<!-- Node7&#45;&gt;Node8 -->
<g id="edge8" class="edge">
<title>Node7&#45;&gt;Node8</title>
<path fill="none" stroke="#191970" d="M230.2027,-36.8477C249.9577,-31.5526 272.5917,-25.4857 291.1571,-20.5094"/>
<polygon fill="#191970" stroke="#191970" points="229.2227,-33.4868 220.4699,-39.4565 231.0351,-40.2481 229.2227,-33.4868"/>
</g>
<!-- Node9&#45;&gt;Node3 -->
<g id="edge10" class="edge">
<title>Node9&#45;&gt;Node3</title>
<path fill="none" stroke="#191970" d="M215.5899,-103.5153C218.1686,-105.0848 220.6725,-106.7507 223,-108.5 241.8569,-122.6725 238.842,-135.2484 259,-147.5 264.986,-151.1382 271.6788,-154.0938 278.4828,-156.4914"/>
<polygon fill="#191970" stroke="#191970" points="217.1239,-100.3637 206.6821,-98.5697 213.7261,-106.4838 217.1239,-100.3637"/>
</g>
<!-- Node9&#45;&gt;Node4 -->
<g id="edge11" class="edge">
<title>Node9&#45;&gt;Node4</title>
<path fill="none" stroke="#191970" d="M222.5146,-99.0915C243.8227,-104.803 269.976,-111.8132 290.971,-117.4407"/>
<polygon fill="#191970" stroke="#191970" points="223.3604,-95.6948 212.7952,-96.4863 221.5481,-102.4561 223.3604,-95.6948"/>
</g>
<!-- Node9&#45;&gt;Node5 -->
<g id="edge12" class="edge">
<title>Node9&#45;&gt;Node5</title>
<path fill="none" stroke="#191970" d="M222.5146,-77.9085C243.8227,-72.197 269.976,-65.1868 290.971,-59.5593"/>
<polygon fill="#191970" stroke="#191970" points="221.5481,-74.5439 212.7952,-80.5137 223.3604,-81.3052 221.5481,-74.5439"/>
</g>
<!-- Node9&#45;&gt;Node6 -->
<g id="edge14" class="edge">
<title>Node9&#45;&gt;Node6</title>
<path fill="none" stroke="#191970" d="M222.9534,-88.5C236.8078,-88.5 252.6692,-88.5 267.8131,-88.5"/>
<polygon fill="#191970" stroke="#191970" points="222.7952,-85.0001 212.7952,-88.5 222.7952,-92.0001 222.7952,-85.0001"/>
</g>
<!-- Node9&#45;&gt;Node8 -->
<g id="edge13" class="edge">
<title>Node9&#45;&gt;Node8</title>
<path fill="none" stroke="#191970" d="M217.1248,-73.4256C219.1626,-72.18 221.1385,-70.8699 223,-69.5 241.9991,-55.5186 238.9242,-42.8857 259,-30.5 265.6251,-26.4127 273.1177,-23.132 280.669,-20.5071"/>
<polygon fill="#191970" stroke="#191970" points="215.0394,-70.5777 207.9575,-78.4579 218.4078,-76.7139 215.0394,-70.5777"/>
</g>
</g>
</svg>
