<?xml version="1.0" encoding="UTF-8" standalone="no"?>
<!DOCTYPE svg PUBLIC "-//W3C//DTD SVG 1.1//EN"
 "http://www.w3.org/Graphics/SVG/1.1/DTD/svg11.dtd">
<!-- Generated by graphviz version 2.40.1 (20161225.0304)
 -->
<!-- Title: eic&#45;smear/blob/master/tests/ePHENIXDetector.h Pages: 1 -->
<svg width="288pt" height="110pt"
 viewBox="0.00 0.00 288.00 110.00" xmlns="http://www.w3.org/2000/svg" xmlns:xlink="http://www.w3.org/1999/xlink">
<g id="graph0" class="graph" transform="scale(1 1) rotate(0) translate(4 106)">
<title>eic&#45;smear/blob/master/tests/ePHENIXDetector.h</title>
<!-- Node1 -->
<g id="node1" class="node">
<title>Node1</title>
<polygon fill="#bfbfbf" stroke="#000000" points="67.5,-69.5 67.5,-101.5 211.5,-101.5 211.5,-69.5 67.5,-69.5"/>
<text text-anchor="start" x="75.5" y="-88.5" font-family="FreeSans" font-size="10.00" fill="#000000">eic&#45;smear/blob/master</text>
<text text-anchor="middle" x="139.5" y="-76.5" font-family="FreeSans" font-size="10.00" fill="#000000">/tests/ePHENIXDetector.h</text>
</g>
<!-- Node2 -->
<g id="node2" class="node">
<title>Node2</title>
<g id="a_node2"><a xlink:href="../../d0/d1d/particlegun_8cxx.html" target="_top" xlink:title="eic&#45;smear/blob/master\l/tests/particlegun.cxx">
<polygon fill="none" stroke="#000000" points="0,-.5 0,-32.5 131,-32.5 131,-.5 0,-.5"/>
<text text-anchor="start" x="8" y="-19.5" font-family="FreeSans" font-size="10.00" fill="#000000">eic&#45;smear/blob/master</text>
<text text-anchor="middle" x="65.5" y="-7.5" font-family="FreeSans" font-size="10.00" fill="#000000">/tests/particlegun.cxx</text>
</a>
</g>
</g>
<!-- Node1&#45;&gt;Node2 -->
<g id="edge1" class="edge">
<title>Node1&#45;&gt;Node2</title>
<path fill="none" stroke="#191970" d="M114.997,-62.6526C104.4666,-52.8337 92.4059,-41.588 82.8263,-32.6557"/>
<polygon fill="#191970" stroke="#191970" points="112.6362,-65.2367 122.3369,-69.4966 117.4099,-60.117 112.6362,-65.2367"/>
</g>
<!-- Node3 -->
<g id="node3" class="node">
<title>Node3</title>
<g id="a_node3"><a xlink:href="../../d4/d3f/qaplots_8cxx.html" target="_top" xlink:title="eic&#45;smear/blob/master\l/tests/qaplots.cxx">
<polygon fill="none" stroke="#000000" points="149,-.5 149,-32.5 280,-32.5 280,-.5 149,-.5"/>
<text text-anchor="start" x="157" y="-19.5" font-family="FreeSans" font-size="10.00" fill="#000000">eic&#45;smear/blob/master</text>
<text text-anchor="middle" x="214.5" y="-7.5" font-family="FreeSans" font-size="10.00" fill="#000000">/tests/qaplots.cxx</text>
</a>
</g>
</g>
<!-- Node1&#45;&gt;Node3 -->
<g id="edge2" class="edge">
<title>Node1&#45;&gt;Node3</title>
<path fill="none" stroke="#191970" d="M164.3342,-62.6526C175.0068,-52.8337 187.2305,-41.588 196.9395,-32.6557"/>
<polygon fill="#191970" stroke="#191970" points="161.8846,-60.1502 156.895,-69.4966 166.6241,-65.3018 161.8846,-60.1502"/>
</g>
</g>
</svg>
