<?xml version="1.0" encoding="UTF-8" standalone="no"?>
<!DOCTYPE svg PUBLIC "-//W3C//DTD SVG 1.1//EN"
 "http://www.w3.org/Graphics/SVG/1.1/DTD/svg11.dtd">
<!-- Generated by graphviz version 2.40.1 (20161225.0304)
 -->
<!-- Title: PHHepMCGenEvent::CloneMe Pages: 1 -->
<svg width="1042pt" height="272pt"
 viewBox="0.00 0.00 1042.00 272.00" xmlns="http://www.w3.org/2000/svg" xmlns:xlink="http://www.w3.org/1999/xlink">
<g id="graph0" class="graph" transform="scale(1 1) rotate(0) translate(4 268)">
<title>PHHepMCGenEvent::CloneMe</title>
<!-- Node1 -->
<g id="node1" class="node">
<title>Node1</title>
<polygon fill="#bfbfbf" stroke="#000000" points="0,-172.5 0,-192.5 166,-192.5 166,-172.5 0,-172.5"/>
<text text-anchor="middle" x="83" y="-179.5" font-family="FreeSans" font-size="10.00" fill="#000000">PHHepMCGenEvent::CloneMe</text>
</g>
<!-- Node2 -->
<g id="node2" class="node">
<title>Node2</title>
<g id="a_node2"><a xlink:href="../../d5/d41/classPHHepMCGenEventMap.html#a0aaa879be3540830d357a15423471ae3" target="_top" xlink:title="insert a event of interest, e.g. jetty event from pythia">
<polygon fill="none" stroke="#000000" points="209,-166.5 209,-198.5 346,-198.5 346,-166.5 209,-166.5"/>
<text text-anchor="start" x="217" y="-185.5" font-family="FreeSans" font-size="10.00" fill="#000000">PHHepMCGenEventMap</text>
<text text-anchor="middle" x="277.5" y="-173.5" font-family="FreeSans" font-size="10.00" fill="#000000">::insert_active_event</text>
</a>
</g>
</g>
<!-- Node1&#45;&gt;Node2 -->
<g id="edge1" class="edge">
<title>Node1&#45;&gt;Node2</title>
<path fill="none" stroke="#191970" d="M176.1205,-182.5C187.1259,-182.5 198.2018,-182.5 208.7833,-182.5"/>
<polygon fill="#191970" stroke="#191970" points="176.0497,-179.0001 166.0497,-182.5 176.0496,-186.0001 176.0497,-179.0001"/>
</g>
<!-- Node5 -->
<g id="node5" class="node">
<title>Node5</title>
<g id="a_node5"><a xlink:href="../../d5/d41/classPHHepMCGenEventMap.html#a95d0dcb2a0100f9da5da5abbf6f24b9f" target="_top" xlink:title="insert a event of background, e.g. Au+Au collision background. First event has embedding ID = 0...">
<polygon fill="none" stroke="#000000" points="202,-217.5 202,-249.5 353,-249.5 353,-217.5 202,-217.5"/>
<text text-anchor="start" x="210" y="-236.5" font-family="FreeSans" font-size="10.00" fill="#000000">PHHepMCGenEventMap</text>
<text text-anchor="middle" x="277.5" y="-224.5" font-family="FreeSans" font-size="10.00" fill="#000000">::insert_background_event</text>
</a>
</g>
</g>
<!-- Node1&#45;&gt;Node5 -->
<g id="edge4" class="edge">
<title>Node1&#45;&gt;Node5</title>
<path fill="none" stroke="#191970" d="M131.2986,-195.1644C156.9665,-201.8948 188.7889,-210.239 216.1843,-217.4223"/>
<polygon fill="#191970" stroke="#191970" points="131.9877,-191.7268 121.4269,-192.576 130.2122,-198.4979 131.9877,-191.7268"/>
</g>
<!-- Node6 -->
<g id="node6" class="node">
<title>Node6</title>
<g id="a_node6"><a xlink:href="../../d5/d41/classPHHepMCGenEventMap.html#ace1292e973fe2429bee746acb6aaddb9" target="_top" xlink:title="insert a event with specific embedding ID">
<polygon fill="none" stroke="#000000" points="209,-115.5 209,-147.5 346,-147.5 346,-115.5 209,-115.5"/>
<text text-anchor="start" x="217" y="-134.5" font-family="FreeSans" font-size="10.00" fill="#000000">PHHepMCGenEventMap</text>
<text text-anchor="middle" x="277.5" y="-122.5" font-family="FreeSans" font-size="10.00" fill="#000000">::insert_event</text>
</a>
</g>
</g>
<!-- Node1&#45;&gt;Node6 -->
<g id="edge6" class="edge">
<title>Node1&#45;&gt;Node6</title>
<path fill="none" stroke="#191970" d="M131.2986,-169.8356C156.9665,-163.1052 188.7889,-154.761 216.1843,-147.5777"/>
<polygon fill="#191970" stroke="#191970" points="130.2122,-166.5021 121.4269,-172.424 131.9877,-173.2732 130.2122,-166.5021"/>
</g>
<!-- Node3 -->
<g id="node3" class="node">
<title>Node3</title>
<g id="a_node3"><a xlink:href="../../de/d99/classFun4AllHepMCPileupInputManager.html#a81bf2b69c3c4d3aae0aadebafe1c2c2e" target="_top" xlink:title="Fun4AllHepMCPileupInputManager::run">
<polygon fill="none" stroke="#000000" points="389,-220.5 389,-240.5 603,-240.5 603,-220.5 389,-220.5"/>
<text text-anchor="middle" x="496" y="-227.5" font-family="FreeSans" font-size="10.00" fill="#000000">Fun4AllHepMCPileupInputManager::run</text>
</a>
</g>
</g>
<!-- Node2&#45;&gt;Node3 -->
<g id="edge2" class="edge">
<title>Node2&#45;&gt;Node3</title>
<path fill="none" stroke="#191970" d="M354.9086,-200.8275C366.3293,-203.451 377.9628,-206.0789 389,-208.5 407.5245,-212.5635 427.9037,-216.8093 445.8619,-220.475"/>
<polygon fill="#191970" stroke="#191970" points="355.4783,-197.3671 344.9473,-198.5285 353.904,-204.1878 355.4783,-197.3671"/>
</g>
<!-- Node4 -->
<g id="node4" class="node">
<title>Node4</title>
<g id="a_node4"><a xlink:href="../../d5/d41/classPHHepMCGenEventMap.html#a5270a36f110c2a8d36d2f0a68a0f0219" target="_top" xlink:title="insert a event of interest, e.g. jetty event from pythia">
<polygon fill="none" stroke="#000000" points="427.5,-166.5 427.5,-198.5 564.5,-198.5 564.5,-166.5 427.5,-166.5"/>
<text text-anchor="start" x="435.5" y="-185.5" font-family="FreeSans" font-size="10.00" fill="#000000">PHHepMCGenEventMap</text>
<text text-anchor="middle" x="496" y="-173.5" font-family="FreeSans" font-size="10.00" fill="#000000">::insert</text>
</a>
</g>
</g>
<!-- Node2&#45;&gt;Node4 -->
<g id="edge3" class="edge">
<title>Node2&#45;&gt;Node4</title>
<path fill="none" stroke="#191970" d="M356.2164,-182.5C379.4812,-182.5 404.7547,-182.5 427.3325,-182.5"/>
<polygon fill="#191970" stroke="#191970" points="356.0353,-179.0001 346.0353,-182.5 356.0352,-186.0001 356.0353,-179.0001"/>
</g>
<!-- Node5&#45;&gt;Node3 -->
<g id="edge5" class="edge">
<title>Node5&#45;&gt;Node3</title>
<path fill="none" stroke="#191970" d="M363.183,-232.3236C371.6221,-232.2077 380.2582,-232.0891 388.8766,-231.9708"/>
<polygon fill="#191970" stroke="#191970" points="362.9522,-228.8263 353.0013,-232.4634 363.0484,-235.8257 362.9522,-228.8263"/>
</g>
<!-- Node7 -->
<g id="node7" class="node">
<title>Node7</title>
<g id="a_node7"><a xlink:href="../../dd/d2a/classPHHepMCGenHelper.html#ab0c755f6e53c0bf57ccd314a0017d227" target="_top" xlink:title="send HepMC::GenEvent to DST tree. This function takes ownership of evt">
<polygon fill="none" stroke="#000000" points="418,-115.5 418,-147.5 574,-147.5 574,-115.5 418,-115.5"/>
<text text-anchor="start" x="426" y="-134.5" font-family="FreeSans" font-size="10.00" fill="#000000">PHHepMCGenHelper::insert</text>
<text text-anchor="middle" x="496" y="-122.5" font-family="FreeSans" font-size="10.00" fill="#000000">_event</text>
</a>
</g>
</g>
<!-- Node6&#45;&gt;Node7 -->
<g id="edge7" class="edge">
<title>Node6&#45;&gt;Node7</title>
<path fill="none" stroke="#191970" d="M356.0698,-131.5C376.1506,-131.5 397.7364,-131.5 417.7987,-131.5"/>
<polygon fill="#191970" stroke="#191970" points="356.0353,-128.0001 346.0353,-131.5 356.0352,-135.0001 356.0353,-128.0001"/>
</g>
<!-- Node8 -->
<g id="node8" class="node">
<title>Node8</title>
<g id="a_node8"><a xlink:href="../../d6/d6f/classFun4AllHepMCInputManager.html#ab6c80a8ee0701bfff5eee3ec3623015c" target="_top" xlink:title="Fun4AllHepMCInputManager::run">
<polygon fill="none" stroke="#000000" points="639,-243.5 639,-263.5 822,-263.5 822,-243.5 639,-243.5"/>
<text text-anchor="middle" x="730.5" y="-250.5" font-family="FreeSans" font-size="10.00" fill="#000000">Fun4AllHepMCInputManager::run</text>
</a>
</g>
</g>
<!-- Node7&#45;&gt;Node8 -->
<g id="edge8" class="edge">
<title>Node7&#45;&gt;Node8</title>
<path fill="none" stroke="#191970" d="M583.7712,-145.6484C590.6732,-148.8535 597.2028,-152.7551 603,-157.5 632.234,-181.4277 609.3678,-211.0672 639,-234.5 643.4541,-238.0223 648.4006,-240.9365 653.6216,-243.3433"/>
<polygon fill="#191970" stroke="#191970" points="584.7421,-142.2633 574.1624,-141.6957 582.079,-148.7369 584.7421,-142.2633"/>
</g>
<!-- Node9 -->
<g id="node9" class="node">
<title>Node9</title>
<g id="a_node9"><a xlink:href="../../db/d1f/classFun4AllOscarInputManager.html#a1537e89c4e652f70747fbbef18ceadc4" target="_top" xlink:title="Fun4AllOscarInputManager\l::ConvertFromOscar">
<polygon fill="none" stroke="#000000" points="653.5,-192.5 653.5,-224.5 807.5,-224.5 807.5,-192.5 653.5,-192.5"/>
<text text-anchor="start" x="661.5" y="-211.5" font-family="FreeSans" font-size="10.00" fill="#000000">Fun4AllOscarInputManager</text>
<text text-anchor="middle" x="730.5" y="-199.5" font-family="FreeSans" font-size="10.00" fill="#000000">::ConvertFromOscar</text>
</a>
</g>
</g>
<!-- Node7&#45;&gt;Node9 -->
<g id="edge9" class="edge">
<title>Node7&#45;&gt;Node9</title>
<path fill="none" stroke="#191970" d="M583.8078,-149.8596C590.4084,-152.1386 596.8761,-154.6771 603,-157.5 620.9239,-165.7622 621.1949,-174.9847 639,-183.5 645.9824,-186.8393 653.4851,-189.7952 661.0817,-192.3958"/>
<polygon fill="#191970" stroke="#191970" points="584.6587,-146.4562 574.0668,-146.7033 582.501,-153.1153 584.6587,-146.4562"/>
</g>
<!-- Node11 -->
<g id="node11" class="node">
<title>Node11</title>
<g id="a_node11"><a xlink:href="../../dd/da8/classPHPythia6.html#a7a70bdd1c198a83ed143d3e2c4516d0d" target="_top" xlink:title="PHPythia6::process\l_event">
<polygon fill="none" stroke="#000000" points="674,-141.5 674,-173.5 787,-173.5 787,-141.5 674,-141.5"/>
<text text-anchor="start" x="682" y="-160.5" font-family="FreeSans" font-size="10.00" fill="#000000">PHPythia6::process</text>
<text text-anchor="middle" x="730.5" y="-148.5" font-family="FreeSans" font-size="10.00" fill="#000000">_event</text>
</a>
</g>
</g>
<!-- Node7&#45;&gt;Node11 -->
<g id="edge11" class="edge">
<title>Node7&#45;&gt;Node11</title>
<path fill="none" stroke="#191970" d="M584.16,-141.2747C614.2125,-144.6067 646.9865,-148.2405 673.8859,-151.223"/>
<polygon fill="#191970" stroke="#191970" points="584.4099,-137.781 574.0851,-140.1576 583.6385,-144.7384 584.4099,-137.781"/>
</g>
<!-- Node12 -->
<g id="node12" class="node">
<title>Node12</title>
<g id="a_node12"><a xlink:href="../../d9/d3a/classPHPythia8.html#a5cc4124cc6be2fb2467714e3d3bc5a6a" target="_top" xlink:title="PHPythia8::process\l_event">
<polygon fill="none" stroke="#000000" points="674,-90.5 674,-122.5 787,-122.5 787,-90.5 674,-90.5"/>
<text text-anchor="start" x="682" y="-109.5" font-family="FreeSans" font-size="10.00" fill="#000000">PHPythia8::process</text>
<text text-anchor="middle" x="730.5" y="-97.5" font-family="FreeSans" font-size="10.00" fill="#000000">_event</text>
</a>
</g>
</g>
<!-- Node7&#45;&gt;Node12 -->
<g id="edge12" class="edge">
<title>Node7&#45;&gt;Node12</title>
<path fill="none" stroke="#191970" d="M584.16,-122.1013C614.2125,-118.8974 646.9865,-115.4034 673.8859,-112.5356"/>
<polygon fill="#191970" stroke="#191970" points="583.6577,-118.6349 574.0851,-123.1754 584.3998,-125.5955 583.6577,-118.6349"/>
</g>
<!-- Node13 -->
<g id="node13" class="node">
<title>Node13</title>
<g id="a_node13"><a xlink:href="../../da/df0/classPHSartre.html#aafe9fd92317ab1f7eee67a9354696c4e" target="_top" xlink:title="PHSartre::process_event">
<polygon fill="none" stroke="#000000" points="660.5,-51.5 660.5,-71.5 800.5,-71.5 800.5,-51.5 660.5,-51.5"/>
<text text-anchor="middle" x="730.5" y="-58.5" font-family="FreeSans" font-size="10.00" fill="#000000">PHSartre::process_event</text>
</a>
</g>
</g>
<!-- Node7&#45;&gt;Node13 -->
<g id="edge13" class="edge">
<title>Node7&#45;&gt;Node13</title>
<path fill="none" stroke="#191970" d="M547.1362,-111.9287C574.1933,-102.0051 608.1222,-90.2381 639,-81.5 651.9862,-77.825 666.17,-74.4307 679.4096,-71.5213"/>
<polygon fill="#191970" stroke="#191970" points="545.6629,-108.7418 537.4971,-115.4924 548.0903,-115.3075 545.6629,-108.7418"/>
</g>
<!-- Node14 -->
<g id="node14" class="node">
<title>Node14</title>
<g id="a_node14"><a xlink:href="../../d3/d49/classReadEICFiles.html#a49106bf9561329777334154092890af2" target="_top" xlink:title="ReadEICFiles::process\l_event">
<polygon fill="none" stroke="#000000" points="667.5,-.5 667.5,-32.5 793.5,-32.5 793.5,-.5 667.5,-.5"/>
<text text-anchor="start" x="675.5" y="-19.5" font-family="FreeSans" font-size="10.00" fill="#000000">ReadEICFiles::process</text>
<text text-anchor="middle" x="730.5" y="-7.5" font-family="FreeSans" font-size="10.00" fill="#000000">_event</text>
</a>
</g>
</g>
<!-- Node7&#45;&gt;Node14 -->
<g id="edge14" class="edge">
<title>Node7&#45;&gt;Node14</title>
<path fill="none" stroke="#191970" d="M525.876,-109.4274C553.8921,-89.5933 597.5633,-60.8449 639,-42.5 647.9094,-38.5557 657.5721,-35.0484 667.1679,-31.9863"/>
<polygon fill="#191970" stroke="#191970" points="523.7994,-106.6095 517.7038,-115.2752 527.873,-112.3022 523.7994,-106.6095"/>
</g>
<!-- Node10 -->
<g id="node10" class="node">
<title>Node10</title>
<g id="a_node10"><a xlink:href="../../db/d1f/classFun4AllOscarInputManager.html#a4be602bd8c9fe73f9dcc81c8871784a6" target="_top" xlink:title="Fun4AllOscarInputManager::run">
<polygon fill="none" stroke="#000000" points="858,-198.5 858,-218.5 1034,-218.5 1034,-198.5 858,-198.5"/>
<text text-anchor="middle" x="946" y="-205.5" font-family="FreeSans" font-size="10.00" fill="#000000">Fun4AllOscarInputManager::run</text>
</a>
</g>
</g>
<!-- Node9&#45;&gt;Node10 -->
<g id="edge10" class="edge">
<title>Node9&#45;&gt;Node10</title>
<path fill="none" stroke="#191970" d="M817.7391,-208.5C831.0061,-208.5 844.7039,-208.5 857.9873,-208.5"/>
<polygon fill="#191970" stroke="#191970" points="817.6918,-205.0001 807.6918,-208.5 817.6917,-212.0001 817.6918,-205.0001"/>
</g>
</g>
</svg>
