<?xml version="1.0" encoding="UTF-8" standalone="no"?>
<!DOCTYPE svg PUBLIC "-//W3C//DTD SVG 1.1//EN"
 "http://www.w3.org/Graphics/SVG/1.1/DTD/svg11.dtd">
<!-- Generated by graphviz version 2.40.1 (20161225.0304)
 -->
<!-- Title: PHHepMCGenEvent::size Pages: 1 -->
<svg width="743pt" height="347pt"
 viewBox="0.00 0.00 743.00 347.00" xmlns="http://www.w3.org/2000/svg" xmlns:xlink="http://www.w3.org/1999/xlink">
<g id="graph0" class="graph" transform="scale(1 1) rotate(0) translate(4 343)">
<title>PHHepMCGenEvent::size</title>
<!-- Node1 -->
<g id="node1" class="node">
<title>Node1</title>
<polygon fill="#bfbfbf" stroke="#000000" points="0,-238.5 0,-258.5 142,-258.5 142,-238.5 0,-238.5"/>
<text text-anchor="middle" x="71" y="-245.5" font-family="FreeSans" font-size="10.00" fill="#000000">PHHepMCGenEvent::size</text>
</g>
<!-- Node2 -->
<g id="node2" class="node">
<title>Node2</title>
<g id="a_node2"><a xlink:href="../../d7/d7b/classPHHepMCGenEvent.html#ac5529cd67a3f4a4aa004476356eecd4e" target="_top" xlink:title="PHHepMCGenEvent::identify">
<polygon fill="none" stroke="#000000" points="178,-238.5 178,-258.5 338,-258.5 338,-238.5 178,-238.5"/>
<text text-anchor="middle" x="258" y="-245.5" font-family="FreeSans" font-size="10.00" fill="#000000">PHHepMCGenEvent::identify</text>
</a>
</g>
</g>
<!-- Node1&#45;&gt;Node2 -->
<g id="edge1" class="edge">
<title>Node1&#45;&gt;Node2</title>
<path fill="none" stroke="#191970" d="M152.4485,-248.5C160.8955,-248.5 169.476,-248.5 177.9079,-248.5"/>
<polygon fill="#191970" stroke="#191970" points="152.2302,-245.0001 142.2301,-248.5 152.2301,-252.0001 152.2302,-245.0001"/>
</g>
<!-- Node3 -->
<g id="node3" class="node">
<title>Node3</title>
<g id="a_node3"><a xlink:href="../../d7/d7b/classPHHepMCGenEvent.html#ae92a42bd9bfdb338524ce5484592f3f1" target="_top" xlink:title="PHHepMCGenEvent::print">
<polygon fill="none" stroke="#000000" points="381,-310.5 381,-330.5 527,-330.5 527,-310.5 381,-310.5"/>
<text text-anchor="middle" x="454" y="-317.5" font-family="FreeSans" font-size="10.00" fill="#000000">PHHepMCGenEvent::print</text>
</a>
</g>
</g>
<!-- Node2&#45;&gt;Node3 -->
<g id="edge2" class="edge">
<title>Node2&#45;&gt;Node3</title>
<path fill="none" stroke="#191970" d="M286.921,-263.1854C310.0453,-274.5035 343.5242,-289.9522 374,-300.5 384.8232,-304.2459 396.6943,-307.6038 407.9016,-310.4503"/>
<polygon fill="#191970" stroke="#191970" points="288.1985,-259.9125 277.6835,-258.614 285.0937,-266.1863 288.1985,-259.9125"/>
</g>
<!-- Node5 -->
<g id="node5" class="node">
<title>Node5</title>
<g id="a_node5"><a xlink:href="../../db/d6c/classHepMCNodeReader.html#aa71e336f1ee6610de412c61a1de37470" target="_top" xlink:title="HepMCNodeReader::process\l_event">
<polygon fill="none" stroke="#000000" points="374,-258.5 374,-290.5 534,-290.5 534,-258.5 374,-258.5"/>
<text text-anchor="start" x="382" y="-277.5" font-family="FreeSans" font-size="10.00" fill="#000000">HepMCNodeReader::process</text>
<text text-anchor="middle" x="454" y="-265.5" font-family="FreeSans" font-size="10.00" fill="#000000">_event</text>
</a>
</g>
</g>
<!-- Node2&#45;&gt;Node5 -->
<g id="edge4" class="edge">
<title>Node2&#45;&gt;Node5</title>
<path fill="none" stroke="#191970" d="M343.5393,-259.847C353.6565,-261.1891 363.9539,-262.5551 373.9905,-263.8865"/>
<polygon fill="#191970" stroke="#191970" points="343.8718,-256.3606 333.4984,-258.5151 342.9512,-263.2998 343.8718,-256.3606"/>
</g>
<!-- Node6 -->
<g id="node6" class="node">
<title>Node6</title>
<g id="a_node6"><a xlink:href="../../da/daf/classJetHepMCLoader.html#ae68c17d088405b8d235bb43f8c115988" target="_top" xlink:title="JetHepMCLoader::process\l_event">
<polygon fill="none" stroke="#000000" points="381,-207.5 381,-239.5 527,-239.5 527,-207.5 381,-207.5"/>
<text text-anchor="start" x="389" y="-226.5" font-family="FreeSans" font-size="10.00" fill="#000000">JetHepMCLoader::process</text>
<text text-anchor="middle" x="454" y="-214.5" font-family="FreeSans" font-size="10.00" fill="#000000">_event</text>
</a>
</g>
</g>
<!-- Node2&#45;&gt;Node6 -->
<g id="edge5" class="edge">
<title>Node2&#45;&gt;Node6</title>
<path fill="none" stroke="#191970" d="M346.5847,-237.2009C358.025,-235.7417 369.6381,-234.2604 380.7926,-232.8377"/>
<polygon fill="#191970" stroke="#191970" points="346.0681,-233.7384 336.5914,-238.4756 346.9539,-240.6821 346.0681,-233.7384"/>
</g>
<!-- Node7 -->
<g id="node7" class="node">
<title>Node7</title>
<g id="a_node7"><a xlink:href="../../d8/d78/classPHG4ParticleGeneratorBase.html#a1c8fb7b3cb97ad9c0eb85468be4f0f1b" target="_top" xlink:title="PHG4ParticleGeneratorBase\l::ReuseExistingVertex">
<polygon fill="none" stroke="#000000" points="375.5,-153.5 375.5,-185.5 532.5,-185.5 532.5,-153.5 375.5,-153.5"/>
<text text-anchor="start" x="383.5" y="-172.5" font-family="FreeSans" font-size="10.00" fill="#000000">PHG4ParticleGeneratorBase</text>
<text text-anchor="middle" x="454" y="-160.5" font-family="FreeSans" font-size="10.00" fill="#000000">::ReuseExistingVertex</text>
</a>
</g>
</g>
<!-- Node2&#45;&gt;Node7 -->
<g id="edge6" class="edge">
<title>Node2&#45;&gt;Node7</title>
<path fill="none" stroke="#191970" d="M289.8537,-234.1658C313.0413,-223.8798 345.2798,-209.8837 374,-198.5 384.987,-194.1451 396.9197,-189.68 408.134,-185.5988"/>
<polygon fill="#191970" stroke="#191970" points="288.218,-231.0628 280.507,-238.3286 291.066,-237.4573 288.218,-231.0628"/>
</g>
<!-- Node4 -->
<g id="node4" class="node">
<title>Node4</title>
<g id="a_node4"><a xlink:href="../../d3/d49/classReadEICFiles.html#a49106bf9561329777334154092890af2" target="_top" xlink:title="ReadEICFiles::process\l_event">
<polygon fill="none" stroke="#000000" points="589.5,-306.5 589.5,-338.5 715.5,-338.5 715.5,-306.5 589.5,-306.5"/>
<text text-anchor="start" x="597.5" y="-325.5" font-family="FreeSans" font-size="10.00" fill="#000000">ReadEICFiles::process</text>
<text text-anchor="middle" x="652.5" y="-313.5" font-family="FreeSans" font-size="10.00" fill="#000000">_event</text>
</a>
</g>
</g>
<!-- Node3&#45;&gt;Node4 -->
<g id="edge3" class="edge">
<title>Node3&#45;&gt;Node4</title>
<path fill="none" stroke="#191970" d="M537.2461,-321.3388C554.6937,-321.5145 572.819,-321.6972 589.3881,-321.8641"/>
<polygon fill="#191970" stroke="#191970" points="537.1032,-317.8372 527.0684,-321.2362 537.0326,-324.8369 537.1032,-317.8372"/>
</g>
<!-- Node8 -->
<g id="node8" class="node">
<title>Node8</title>
<g id="a_node8"><a xlink:href="../../dd/d13/classPHG4ParticleGun.html#a6a76fa0b061c94d8ce36da48fd41d274" target="_top" xlink:title="PHG4ParticleGun::process\l_event">
<polygon fill="none" stroke="#000000" points="578.5,-255.5 578.5,-287.5 726.5,-287.5 726.5,-255.5 578.5,-255.5"/>
<text text-anchor="start" x="586.5" y="-274.5" font-family="FreeSans" font-size="10.00" fill="#000000">PHG4ParticleGun::process</text>
<text text-anchor="middle" x="652.5" y="-262.5" font-family="FreeSans" font-size="10.00" fill="#000000">_event</text>
</a>
</g>
</g>
<!-- Node7&#45;&gt;Node8 -->
<g id="edge7" class="edge">
<title>Node7&#45;&gt;Node8</title>
<path fill="none" stroke="#191970" d="M520.4948,-190.0675C525.2421,-192.5897 529.8042,-195.3921 534,-198.5 555.4285,-214.3724 548.1544,-231.2068 570,-246.5 574.9041,-249.9332 580.2899,-252.9039 585.887,-255.4727"/>
<polygon fill="#191970" stroke="#191970" points="521.7102,-186.7672 511.1848,-185.5561 518.6576,-193.0666 521.7102,-186.7672"/>
</g>
<!-- Node9 -->
<g id="node9" class="node">
<title>Node9</title>
<g id="a_node9"><a xlink:href="../../da/ddc/classPHG4IonGun.html#a5a16c52574396043551b429962256e43" target="_top" xlink:title="PHG4IonGun::process\l_event">
<polygon fill="none" stroke="#000000" points="589.5,-204.5 589.5,-236.5 715.5,-236.5 715.5,-204.5 589.5,-204.5"/>
<text text-anchor="start" x="597.5" y="-223.5" font-family="FreeSans" font-size="10.00" fill="#000000">PHG4IonGun::process</text>
<text text-anchor="middle" x="652.5" y="-211.5" font-family="FreeSans" font-size="10.00" fill="#000000">_event</text>
</a>
</g>
</g>
<!-- Node7&#45;&gt;Node9 -->
<g id="edge8" class="edge">
<title>Node7&#45;&gt;Node9</title>
<path fill="none" stroke="#191970" d="M526.2977,-188.0752C547.1537,-193.4337 569.7277,-199.2336 589.9392,-204.4264"/>
<polygon fill="#191970" stroke="#191970" points="527.0906,-184.6653 516.5342,-185.5667 525.3486,-191.4451 527.0906,-184.6653"/>
</g>
<!-- Node10 -->
<g id="node10" class="node">
<title>Node10</title>
<g id="a_node10"><a xlink:href="../../dd/d68/classPHG4ParticleGenerator.html#a1292dcb1c73496ea30769a4b8c355780" target="_top" xlink:title="PHG4ParticleGenerator\l::process_event">
<polygon fill="none" stroke="#000000" points="586,-153.5 586,-185.5 719,-185.5 719,-153.5 586,-153.5"/>
<text text-anchor="start" x="594" y="-172.5" font-family="FreeSans" font-size="10.00" fill="#000000">PHG4ParticleGenerator</text>
<text text-anchor="middle" x="652.5" y="-160.5" font-family="FreeSans" font-size="10.00" fill="#000000">::process_event</text>
</a>
</g>
</g>
<!-- Node7&#45;&gt;Node10 -->
<g id="edge9" class="edge">
<title>Node7&#45;&gt;Node10</title>
<path fill="none" stroke="#191970" d="M543.097,-169.5C557.417,-169.5 572.0218,-169.5 585.7022,-169.5"/>
<polygon fill="#191970" stroke="#191970" points="542.7376,-166.0001 532.7376,-169.5 542.7375,-173.0001 542.7376,-166.0001"/>
</g>
<!-- Node11 -->
<g id="node11" class="node">
<title>Node11</title>
<g id="a_node11"><a xlink:href="../../d9/d78/classPHG4ParticleGeneratorD0.html#a0d5fb0589e341d72f767844ead51039a" target="_top" xlink:title="PHG4ParticleGeneratorD0\l::process_event">
<polygon fill="none" stroke="#000000" points="579,-102.5 579,-134.5 726,-134.5 726,-102.5 579,-102.5"/>
<text text-anchor="start" x="587" y="-121.5" font-family="FreeSans" font-size="10.00" fill="#000000">PHG4ParticleGeneratorD0</text>
<text text-anchor="middle" x="652.5" y="-109.5" font-family="FreeSans" font-size="10.00" fill="#000000">::process_event</text>
</a>
</g>
</g>
<!-- Node7&#45;&gt;Node11 -->
<g id="edge10" class="edge">
<title>Node7&#45;&gt;Node11</title>
<path fill="none" stroke="#191970" d="M526.2977,-150.9248C547.1537,-145.5663 569.7277,-139.7664 589.9392,-134.5736"/>
<polygon fill="#191970" stroke="#191970" points="525.3486,-147.5549 516.5342,-153.4333 527.0906,-154.3347 525.3486,-147.5549"/>
</g>
<!-- Node12 -->
<g id="node12" class="node">
<title>Node12</title>
<g id="a_node12"><a xlink:href="../../d5/df3/classPHG4SimpleEventGenerator.html#a4a7065a5083bd5b21c3743f8e224065b" target="_top" xlink:title="PHG4SimpleEventGenerator\l::process_event">
<polygon fill="none" stroke="#000000" points="572.5,-51.5 572.5,-83.5 732.5,-83.5 732.5,-51.5 572.5,-51.5"/>
<text text-anchor="start" x="580.5" y="-70.5" font-family="FreeSans" font-size="10.00" fill="#000000">PHG4SimpleEventGenerator</text>
<text text-anchor="middle" x="652.5" y="-58.5" font-family="FreeSans" font-size="10.00" fill="#000000">::process_event</text>
</a>
</g>
</g>
<!-- Node7&#45;&gt;Node12 -->
<g id="edge11" class="edge">
<title>Node7&#45;&gt;Node12</title>
<path fill="none" stroke="#191970" d="M482.9397,-147.2998C505.6408,-130.706 538.5552,-108.4056 570,-93.5 577.7349,-89.8335 586.1153,-86.5107 594.4704,-83.5605"/>
<polygon fill="#191970" stroke="#191970" points="480.7183,-144.5896 474.7637,-153.3528 484.8834,-150.2156 480.7183,-144.5896"/>
</g>
<!-- Node13 -->
<g id="node13" class="node">
<title>Node13</title>
<g id="a_node13"><a xlink:href="../../d7/dc3/classPHG4ParticleGeneratorVectorMeson.html#a31f17c8146593b2d946cc4c2762d25ed" target="_top" xlink:title="PHG4ParticleGeneratorVector\lMeson::process_event">
<polygon fill="none" stroke="#000000" points="570,-.5 570,-32.5 735,-32.5 735,-.5 570,-.5"/>
<text text-anchor="start" x="578" y="-19.5" font-family="FreeSans" font-size="10.00" fill="#000000">PHG4ParticleGeneratorVector</text>
<text text-anchor="middle" x="652.5" y="-7.5" font-family="FreeSans" font-size="10.00" fill="#000000">Meson::process_event</text>
</a>
</g>
</g>
<!-- Node7&#45;&gt;Node13 -->
<g id="edge12" class="edge">
<title>Node7&#45;&gt;Node13</title>
<path fill="none" stroke="#191970" d="M470.178,-145.1095C490.3259,-116.5576 527.3392,-69.722 570,-42.5 575.95,-38.7033 582.496,-35.4243 589.2187,-32.6009"/>
<polygon fill="#191970" stroke="#191970" points="467.2934,-143.1273 464.4791,-153.3415 473.0489,-147.1117 467.2934,-143.1273"/>
</g>
</g>
</svg>
