<?xml version="1.0" encoding="UTF-8" standalone="no"?>
<!DOCTYPE svg PUBLIC "-//W3C//DTD SVG 1.1//EN"
 "http://www.w3.org/Graphics/SVG/1.1/DTD/svg11.dtd">
<!-- Generated by graphviz version 2.40.1 (20161225.0304)
 -->
<!-- Title: MgridInterpolation::fillOutputCubeArray Pages: 1 -->
<svg width="2992pt" height="421pt"
 viewBox="0.00 0.00 2992.00 421.00" xmlns="http://www.w3.org/2000/svg" xmlns:xlink="http://www.w3.org/1999/xlink">
<g id="graph0" class="graph" transform="scale(1 1) rotate(0) translate(4 417)">
<title>MgridInterpolation::fillOutputCubeArray</title>
<!-- Node1 -->
<g id="node1" class="node">
<title>Node1</title>
<polygon fill="#bfbfbf" stroke="#000000" points="0,-303.5 0,-335.5 123,-335.5 123,-303.5 0,-303.5"/>
<text text-anchor="start" x="8" y="-322.5" font-family="FreeSans" font-size="10.00" fill="#000000">MgridInterpolation</text>
<text text-anchor="middle" x="61.5" y="-310.5" font-family="FreeSans" font-size="10.00" fill="#000000">::fillOutputCubeArray</text>
</g>
<!-- Node2 -->
<g id="node2" class="node">
<title>Node2</title>
<g id="a_node2"><a xlink:href="../../d7/dd2/classMgridInterpolation.html#a77fca220cbad05c6a46f743978b594e1" target="_top" xlink:title="MgridInterpolation\l::checkNeighbouringCubicArea">
<polygon fill="none" stroke="#000000" points="159,-303.5 159,-335.5 331,-335.5 331,-303.5 159,-303.5"/>
<text text-anchor="start" x="167" y="-322.5" font-family="FreeSans" font-size="10.00" fill="#000000">MgridInterpolation</text>
<text text-anchor="middle" x="245" y="-310.5" font-family="FreeSans" font-size="10.00" fill="#000000">::checkNeighbouringCubicArea</text>
</a>
</g>
</g>
<!-- Node1&#45;&gt;Node2 -->
<g id="edge1" class="edge">
<title>Node1&#45;&gt;Node2</title>
<path fill="none" stroke="#191970" d="M133.2018,-319.5C141.5845,-319.5 150.2019,-319.5 158.7553,-319.5"/>
<polygon fill="#191970" stroke="#191970" points="133.1134,-316.0001 123.1133,-319.5 133.1133,-323.0001 133.1134,-316.0001"/>
</g>
<!-- Node3 -->
<g id="node3" class="node">
<title>Node3</title>
<g id="a_node3"><a xlink:href="../../d0/d70/classMgrid.html#a8b4cf069b1d54eca62697f84ccdc234c" target="_top" xlink:title="Mgrid::directFieldValue">
<polygon fill="none" stroke="#000000" points="367,-309.5 367,-329.5 499,-329.5 499,-309.5 367,-309.5"/>
<text text-anchor="middle" x="433" y="-316.5" font-family="FreeSans" font-size="10.00" fill="#000000">Mgrid::directFieldValue</text>
</a>
</g>
</g>
<!-- Node2&#45;&gt;Node3 -->
<g id="edge2" class="edge">
<title>Node2&#45;&gt;Node3</title>
<path fill="none" stroke="#191970" d="M341.1617,-319.5C349.8045,-319.5 358.4229,-319.5 366.7244,-319.5"/>
<polygon fill="#191970" stroke="#191970" points="341.0222,-316.0001 331.0222,-319.5 341.0222,-323.0001 341.0222,-316.0001"/>
</g>
<!-- Node4 -->
<g id="node4" class="node">
<title>Node4</title>
<g id="a_node4"><a xlink:href="../../d0/d70/classMgrid.html#a1828a602eff466ced7f0c7630948d820" target="_top" xlink:title="Mgrid::getFieldValue">
<polygon fill="none" stroke="#000000" points="535,-309.5 535,-329.5 654,-329.5 654,-309.5 535,-309.5"/>
<text text-anchor="middle" x="594.5" y="-316.5" font-family="FreeSans" font-size="10.00" fill="#000000">Mgrid::getFieldValue</text>
</a>
</g>
</g>
<!-- Node3&#45;&gt;Node4 -->
<g id="edge3" class="edge">
<title>Node3&#45;&gt;Node4</title>
<path fill="none" stroke="#191970" d="M509.2293,-319.5C517.859,-319.5 526.5577,-319.5 534.9297,-319.5"/>
<polygon fill="#191970" stroke="#191970" points="509.1542,-316.0001 499.1542,-319.5 509.1542,-323.0001 509.1542,-316.0001"/>
</g>
<!-- Node4&#45;&gt;Node4 -->
<g id="edge4" class="edge">
<title>Node4&#45;&gt;Node4</title>
<path fill="none" stroke="#191970" d="M564.6786,-338.6639C566.1025,-343.9546 576.043,-348 594.5,-348 622.625,-348 630.9746,-338.6067 619.5488,-329.7271"/>
<polygon fill="#191970" stroke="#191970" points="567.8277,-340.1968 569.4512,-329.7271 561.653,-336.8992 567.8277,-340.1968"/>
</g>
<!-- Node5 -->
<g id="node5" class="node">
<title>Node5</title>
<g id="a_node5"><a xlink:href="../../d0/d70/classMgrid.html#a3bbd50eb926dab58886f507f7cb9167c" target="_top" xlink:title="Mgrid::getFixedTypeField\lValue">
<polygon fill="none" stroke="#000000" points="690,-303.5 690,-335.5 831,-335.5 831,-303.5 690,-303.5"/>
<text text-anchor="start" x="698" y="-322.5" font-family="FreeSans" font-size="10.00" fill="#000000">Mgrid::getFixedTypeField</text>
<text text-anchor="middle" x="760.5" y="-310.5" font-family="FreeSans" font-size="10.00" fill="#000000">Value</text>
</a>
</g>
</g>
<!-- Node4&#45;&gt;Node5 -->
<g id="edge5" class="edge">
<title>Node4&#45;&gt;Node5</title>
<path fill="none" stroke="#191970" d="M664.5536,-319.5C672.9464,-319.5 681.5203,-319.5 689.9205,-319.5"/>
<polygon fill="#191970" stroke="#191970" points="664.4298,-316.0001 654.4298,-319.5 664.4298,-323.0001 664.4298,-316.0001"/>
</g>
<!-- Node6 -->
<g id="node6" class="node">
<title>Node6</title>
<g id="a_node6"><a xlink:href="../../d0/d70/classMgrid.html#a63f5d3e859a481ac9144bfefa00f1a34" target="_top" xlink:title="Mgrid::getCartesianField\lValue">
<polygon fill="none" stroke="#000000" points="869.5,-329.5 869.5,-361.5 1008.5,-361.5 1008.5,-329.5 869.5,-329.5"/>
<text text-anchor="start" x="877.5" y="-348.5" font-family="FreeSans" font-size="10.00" fill="#000000">Mgrid::getCartesianField</text>
<text text-anchor="middle" x="939" y="-336.5" font-family="FreeSans" font-size="10.00" fill="#000000">Value</text>
</a>
</g>
</g>
<!-- Node5&#45;&gt;Node6 -->
<g id="edge6" class="edge">
<title>Node5&#45;&gt;Node6</title>
<path fill="none" stroke="#191970" d="M841.1552,-331.2481C850.5343,-332.6142 860.0412,-333.999 869.2563,-335.3413"/>
<polygon fill="#191970" stroke="#191970" points="841.448,-327.7539 831.0479,-329.7759 840.439,-334.6808 841.448,-327.7539"/>
</g>
<!-- Node42 -->
<g id="node42" class="node">
<title>Node42</title>
<g id="a_node42"><a xlink:href="../../d0/d70/classMgrid.html#a2eae4888540a2e28671a08190a68aa2f" target="_top" xlink:title="Mgrid::getCylindricalField\lValue">
<polygon fill="none" stroke="#000000" points="867,-278.5 867,-310.5 1011,-310.5 1011,-278.5 867,-278.5"/>
<text text-anchor="start" x="875" y="-297.5" font-family="FreeSans" font-size="10.00" fill="#000000">Mgrid::getCylindricalField</text>
<text text-anchor="middle" x="939" y="-285.5" font-family="FreeSans" font-size="10.00" fill="#000000">Value</text>
</a>
</g>
</g>
<!-- Node5&#45;&gt;Node42 -->
<g id="edge57" class="edge">
<title>Node5&#45;&gt;Node42</title>
<path fill="none" stroke="#191970" d="M841.0856,-308.2135C849.6953,-307.0077 858.4135,-305.7866 866.9158,-304.5958"/>
<polygon fill="#191970" stroke="#191970" points="840.4658,-304.7661 831.0479,-309.6193 841.4368,-311.6984 840.4658,-304.7661"/>
</g>
<!-- Node7 -->
<g id="node7" class="node">
<title>Node7</title>
<g id="a_node7"><a xlink:href="../../d6/dbc/classEicBeamLineElementMap.html#a8367714c13d17c2fc94fe98825a0875a" target="_top" xlink:title="EicBeamLineElementMap\l::GetFieldValue">
<polygon fill="none" stroke="#000000" points="1055,-380.5 1055,-412.5 1200,-412.5 1200,-380.5 1055,-380.5"/>
<text text-anchor="start" x="1063" y="-399.5" font-family="FreeSans" font-size="10.00" fill="#000000">EicBeamLineElementMap</text>
<text text-anchor="middle" x="1127.5" y="-387.5" font-family="FreeSans" font-size="10.00" fill="#000000">::GetFieldValue</text>
</a>
</g>
</g>
<!-- Node6&#45;&gt;Node7 -->
<g id="edge7" class="edge">
<title>Node6&#45;&gt;Node7</title>
<path fill="none" stroke="#191970" d="M1008.1936,-364.2208C1027.8486,-369.5386 1049.0713,-375.2806 1068.0909,-380.4264"/>
<polygon fill="#191970" stroke="#191970" points="1008.9509,-360.7999 998.3838,-361.5667 1007.1227,-367.557 1008.9509,-360.7999"/>
</g>
<!-- Node8 -->
<g id="node8" class="node">
<title>Node8</title>
<g id="a_node8"><a xlink:href="../../d1/d0e/classTrKalmanNode.html#ad109c98d9b096b8e413135681abdb4be" target="_top" xlink:title="TrKalmanNode::GetMagnetic\lField">
<polygon fill="none" stroke="#000000" points="1047,-329.5 1047,-361.5 1208,-361.5 1208,-329.5 1047,-329.5"/>
<text text-anchor="start" x="1055" y="-348.5" font-family="FreeSans" font-size="10.00" fill="#000000">TrKalmanNode::GetMagnetic</text>
<text text-anchor="middle" x="1127.5" y="-336.5" font-family="FreeSans" font-size="10.00" fill="#000000">Field</text>
</a>
</g>
</g>
<!-- Node6&#45;&gt;Node8 -->
<g id="edge8" class="edge">
<title>Node6&#45;&gt;Node8</title>
<path fill="none" stroke="#191970" d="M1018.713,-345.5C1028.0697,-345.5 1037.6223,-345.5 1046.9898,-345.5"/>
<polygon fill="#191970" stroke="#191970" points="1018.6549,-342.0001 1008.6549,-345.5 1018.6548,-349.0001 1018.6549,-342.0001"/>
</g>
<!-- Node9 -->
<g id="node9" class="node">
<title>Node9</title>
<g id="a_node9"><a xlink:href="../../d2/d22/classRungeKuttaRequest.html#aef9352fbc63d3854ad82f6c6e81146a6" target="_top" xlink:title="RungeKuttaRequest::kk">
<polygon fill="none" stroke="#000000" points="1060,-290.5 1060,-310.5 1195,-310.5 1195,-290.5 1060,-290.5"/>
<text text-anchor="middle" x="1127.5" y="-297.5" font-family="FreeSans" font-size="10.00" fill="#000000">RungeKuttaRequest::kk</text>
</a>
</g>
</g>
<!-- Node6&#45;&gt;Node9 -->
<g id="edge9" class="edge">
<title>Node6&#45;&gt;Node9</title>
<path fill="none" stroke="#191970" d="M1016.2936,-327.0479C1039.9717,-321.3954 1065.1262,-315.3903 1085.5112,-310.5239"/>
<polygon fill="#191970" stroke="#191970" points="1015.1684,-323.7181 1006.2545,-329.4445 1016.7939,-330.5268 1015.1684,-323.7181"/>
</g>
<!-- Node10 -->
<g id="node10" class="node">
<title>Node10</title>
<g id="a_node10"><a xlink:href="../../d2/d22/classRungeKuttaRequest.html#acd0229ed666355d83c7ccfe1ccde8dd9" target="_top" xlink:title="RungeKuttaRequest::\lserveRequest">
<polygon fill="none" stroke="#000000" points="1244,-349.5 1244,-381.5 1366,-381.5 1366,-349.5 1244,-349.5"/>
<text text-anchor="start" x="1252" y="-368.5" font-family="FreeSans" font-size="10.00" fill="#000000">RungeKuttaRequest::</text>
<text text-anchor="middle" x="1305" y="-356.5" font-family="FreeSans" font-size="10.00" fill="#000000">serveRequest</text>
</a>
</g>
</g>
<!-- Node9&#45;&gt;Node10 -->
<g id="edge10" class="edge">
<title>Node9&#45;&gt;Node10</title>
<path fill="none" stroke="#191970" d="M1184.1322,-313.1185C1192.2167,-315.339 1200.3722,-317.8108 1208,-320.5 1230.7605,-328.5241 1255.4186,-340.0031 1274.1777,-349.3588"/>
<polygon fill="#191970" stroke="#191970" points="1184.9082,-309.7036 1174.3462,-310.537 1183.1227,-316.4721 1184.9082,-309.7036"/>
</g>
<!-- Node12 -->
<g id="node12" class="node">
<title>Node12</title>
<g id="a_node12"><a xlink:href="../../d3/dd5/jewel-2_82_80_8f.html#a15e2df3184692bfe4ca2261638190094" target="_top" xlink:title="jewel">
<polygon fill="none" stroke="#000000" points="2424.5,-271.5 2424.5,-291.5 2467.5,-291.5 2467.5,-271.5 2424.5,-271.5"/>
<text text-anchor="middle" x="2446" y="-278.5" font-family="FreeSans" font-size="10.00" fill="#000000">jewel</text>
</a>
</g>
</g>
<!-- Node9&#45;&gt;Node12 -->
<g id="edge12" class="edge">
<title>Node9&#45;&gt;Node12</title>
<path fill="none" stroke="#191970" d="M1205.2494,-307.3338C1277.9171,-313.1266 1389.4703,-320.5 1486.5,-320.5 1486.5,-320.5 1486.5,-320.5 2170.5,-320.5 2265.9058,-320.5 2378.0778,-297.2877 2424.3618,-286.6789"/>
<polygon fill="#191970" stroke="#191970" points="1205.5084,-303.8434 1195.2593,-306.5278 1204.9454,-310.8207 1205.5084,-303.8434"/>
</g>
<!-- Node13 -->
<g id="node13" class="node">
<title>Node13</title>
<g id="a_node13"><a xlink:href="../../d6/dcf/pythia6425mod_8f.html#ab37c75f11d388ab995e98e3eca29e81b" target="_top" xlink:title="pytbhg">
<polygon fill="none" stroke="#000000" points="1279.5,-271.5 1279.5,-291.5 1330.5,-291.5 1330.5,-271.5 1279.5,-271.5"/>
<text text-anchor="middle" x="1305" y="-278.5" font-family="FreeSans" font-size="10.00" fill="#000000">pytbhg</text>
</a>
</g>
</g>
<!-- Node9&#45;&gt;Node13 -->
<g id="edge13" class="edge">
<title>Node9&#45;&gt;Node13</title>
<path fill="none" stroke="#191970" d="M1205.2062,-292.1822C1231.7693,-289.3388 1259.673,-286.3519 1279.1989,-284.2618"/>
<polygon fill="#191970" stroke="#191970" points="1204.6821,-288.7182 1195.1115,-293.2627 1205.4272,-295.6784 1204.6821,-288.7182"/>
</g>
<!-- Node41 -->
<g id="node41" class="node">
<title>Node41</title>
<g id="a_node41"><a xlink:href="../../d6/dcf/pythia6425mod_8f.html#a8d44a8d8b3450950fbf946b1c29fb42d" target="_top" xlink:title="pytbhq">
<polygon fill="none" stroke="#000000" points="1279.5,-232.5 1279.5,-252.5 1330.5,-252.5 1330.5,-232.5 1279.5,-232.5"/>
<text text-anchor="middle" x="1305" y="-239.5" font-family="FreeSans" font-size="10.00" fill="#000000">pytbhq</text>
</a>
</g>
</g>
<!-- Node9&#45;&gt;Node41 -->
<g id="edge55" class="edge">
<title>Node9&#45;&gt;Node41</title>
<path fill="none" stroke="#191970" d="M1168.1165,-287.2281C1202.3212,-276.0514 1250.2019,-260.4059 1279.3263,-250.8892"/>
<polygon fill="#191970" stroke="#191970" points="1166.8364,-283.9642 1158.4181,-290.3972 1169.0107,-290.618 1166.8364,-283.9642"/>
</g>
<!-- Node11 -->
<g id="node11" class="node">
<title>Node11</title>
<g id="a_node11"><a xlink:href="../../d1/d0e/classTrKalmanNode.html#a57b9335f58000cd1d2ab55b7ce4dabea" target="_top" xlink:title="TrKalmanNode::PerformRunge\lKuttaStep">
<polygon fill="none" stroke="#000000" points="1402,-349.5 1402,-381.5 1571,-381.5 1571,-349.5 1402,-349.5"/>
<text text-anchor="start" x="1410" y="-368.5" font-family="FreeSans" font-size="10.00" fill="#000000">TrKalmanNode::PerformRunge</text>
<text text-anchor="middle" x="1486.5" y="-356.5" font-family="FreeSans" font-size="10.00" fill="#000000">KuttaStep</text>
</a>
</g>
</g>
<!-- Node10&#45;&gt;Node11 -->
<g id="edge11" class="edge">
<title>Node10&#45;&gt;Node11</title>
<path fill="none" stroke="#191970" d="M1376.2563,-365.5C1384.6158,-365.5 1393.2071,-365.5 1401.7277,-365.5"/>
<polygon fill="#191970" stroke="#191970" points="1376.1946,-362.0001 1366.1946,-365.5 1376.1946,-369.0001 1376.1946,-362.0001"/>
</g>
<!-- Node14 -->
<g id="node14" class="node">
<title>Node14</title>
<g id="a_node14"><a xlink:href="../../d6/dcf/pythia6425mod_8f.html#a8e204cdd8fb7ba8d843c00f6da2ec7e9" target="_top" xlink:title="pystbh">
<polygon fill="none" stroke="#000000" points="1461.5,-232.5 1461.5,-252.5 1511.5,-252.5 1511.5,-232.5 1461.5,-232.5"/>
<text text-anchor="middle" x="1486.5" y="-239.5" font-family="FreeSans" font-size="10.00" fill="#000000">pystbh</text>
</a>
</g>
</g>
<!-- Node13&#45;&gt;Node14 -->
<g id="edge14" class="edge">
<title>Node13&#45;&gt;Node14</title>
<path fill="none" stroke="#191970" d="M1340.5801,-273.8547C1376.1455,-266.2125 1429.9298,-254.6556 1461.3027,-247.9143"/>
<polygon fill="#191970" stroke="#191970" points="1339.6611,-270.4722 1330.6196,-275.995 1341.1317,-277.316 1339.6611,-270.4722"/>
</g>
<!-- Node15 -->
<g id="node15" class="node">
<title>Node15</title>
<g id="a_node15"><a xlink:href="../../d6/dcf/pythia6425mod_8f.html#a57a12a8bdfcf423e5b0ed01349b0ff46" target="_top" xlink:title="pysghg">
<polygon fill="none" stroke="#000000" points="1607,-213.5 1607,-233.5 1660,-233.5 1660,-213.5 1607,-213.5"/>
<text text-anchor="middle" x="1633.5" y="-220.5" font-family="FreeSans" font-size="10.00" fill="#000000">pysghg</text>
</a>
</g>
</g>
<!-- Node14&#45;&gt;Node15 -->
<g id="edge15" class="edge">
<title>Node14&#45;&gt;Node15</title>
<path fill="none" stroke="#191970" d="M1522.0097,-237.9103C1548.1251,-234.5349 1583.0652,-230.0188 1606.8228,-226.9481"/>
<polygon fill="#191970" stroke="#191970" points="1521.239,-234.4807 1511.7702,-239.2338 1522.1364,-241.423 1521.239,-234.4807"/>
</g>
<!-- Node16 -->
<g id="node16" class="node">
<title>Node16</title>
<g id="a_node16"><a xlink:href="../../d6/dcf/pythia6425mod_8f.html#a3ccdee32be69df9daf5605283165a012" target="_top" xlink:title="pysigh">
<polygon fill="none" stroke="#000000" points="1696,-175.5 1696,-195.5 1745,-195.5 1745,-175.5 1696,-175.5"/>
<text text-anchor="middle" x="1720.5" y="-182.5" font-family="FreeSans" font-size="10.00" fill="#000000">pysigh</text>
</a>
</g>
</g>
<!-- Node15&#45;&gt;Node16 -->
<g id="edge16" class="edge">
<title>Node15&#45;&gt;Node16</title>
<path fill="none" stroke="#191970" d="M1666.0641,-209.2766C1676.4922,-204.7218 1687.817,-199.7753 1697.4229,-195.5796"/>
<polygon fill="#191970" stroke="#191970" points="1664.5774,-206.1066 1656.8144,-213.3167 1667.3794,-212.5214 1664.5774,-206.1066"/>
</g>
<!-- Node17 -->
<g id="node17" class="node">
<title>Node17</title>
<g id="a_node17"><a xlink:href="../../d6/dcf/pythia6425mod_8f.html#aa9cb6f1467302508501201a0e38959d1" target="_top" xlink:title="pymaxi">
<polygon fill="none" stroke="#000000" points="1781,-234.5 1781,-254.5 1834,-254.5 1834,-234.5 1781,-234.5"/>
<text text-anchor="middle" x="1807.5" y="-241.5" font-family="FreeSans" font-size="10.00" fill="#000000">pymaxi</text>
</a>
</g>
</g>
<!-- Node16&#45;&gt;Node17 -->
<g id="edge17" class="edge">
<title>Node16&#45;&gt;Node17</title>
<path fill="none" stroke="#191970" d="M1743.8078,-201.3064C1759.3345,-211.836 1779.2721,-225.3569 1792.6692,-234.4424"/>
<polygon fill="#191970" stroke="#191970" points="1745.4992,-198.2246 1735.2584,-195.5085 1741.5703,-204.018 1745.4992,-198.2246"/>
</g>
<!-- Node21 -->
<g id="node21" class="node">
<title>Node21</title>
<g id="a_node21"><a xlink:href="../../d6/dcf/pythia6425mod_8f.html#a5c7e2372fde451d6f2253ef044e01364" target="_top" xlink:title="pymign">
<polygon fill="none" stroke="#000000" points="1870,-156.5 1870,-176.5 1924,-176.5 1924,-156.5 1870,-156.5"/>
<text text-anchor="middle" x="1897" y="-163.5" font-family="FreeSans" font-size="10.00" fill="#000000">pymign</text>
</a>
</g>
</g>
<!-- Node16&#45;&gt;Node21 -->
<g id="edge22" class="edge">
<title>Node16&#45;&gt;Node21</title>
<path fill="none" stroke="#191970" d="M1755.3158,-181.7521C1788.8919,-178.1377 1839.018,-172.7417 1869.7725,-169.431"/>
<polygon fill="#191970" stroke="#191970" points="1754.6095,-178.3078 1745.0416,-182.8581 1755.3588,-185.2676 1754.6095,-178.3078"/>
</g>
<!-- Node34 -->
<g id="node34" class="node">
<title>Node34</title>
<g id="a_node34"><a xlink:href="../../d6/dcf/pythia6425mod_8f.html#a2d74d5dd64881524212b3720af2696de" target="_top" xlink:title="pyrand">
<polygon fill="none" stroke="#000000" points="1960,-136.5 1960,-156.5 2011,-156.5 2011,-136.5 1960,-136.5"/>
<text text-anchor="middle" x="1985.5" y="-143.5" font-family="FreeSans" font-size="10.00" fill="#000000">pyrand</text>
</a>
</g>
</g>
<!-- Node16&#45;&gt;Node34 -->
<g id="edge54" class="edge">
<title>Node16&#45;&gt;Node34</title>
<path fill="none" stroke="#191970" d="M1754.814,-173.8733C1784.8017,-164.3613 1829.7229,-151.6671 1870,-146.5 1900.6292,-142.5706 1936.2045,-143.3688 1959.6911,-144.6286"/>
<polygon fill="#191970" stroke="#191970" points="1753.6866,-170.5593 1745.245,-176.9617 1755.8367,-177.221 1753.6866,-170.5593"/>
</g>
<!-- Node37 -->
<g id="node37" class="node">
<title>Node37</title>
<g id="a_node37"><a xlink:href="../../d6/dcf/pythia6425mod_8f.html#a4ae1a9148440832c122abdaedf3555a7" target="_top" xlink:title="pymult">
<polygon fill="none" stroke="#000000" points="1871,-195.5 1871,-215.5 1923,-215.5 1923,-195.5 1871,-195.5"/>
<text text-anchor="middle" x="1897" y="-202.5" font-family="FreeSans" font-size="10.00" fill="#000000">pymult</text>
</a>
</g>
</g>
<!-- Node16&#45;&gt;Node37 -->
<g id="edge45" class="edge">
<title>Node16&#45;&gt;Node37</title>
<path fill="none" stroke="#191970" d="M1755.0012,-189.4095C1789.007,-193.2628 1840.2105,-199.0649 1870.945,-202.5476"/>
<polygon fill="#191970" stroke="#191970" points="1755.3721,-185.9292 1745.0416,-188.2809 1754.5839,-192.8847 1755.3721,-185.9292"/>
</g>
<!-- Node38 -->
<g id="node38" class="node">
<title>Node38</title>
<g id="a_node38"><a xlink:href="../../d6/dcf/pythia6425mod_8f.html#af1b5061d1d80462745ef6b9ab52500f2" target="_top" xlink:title="pyptmi">
<polygon fill="none" stroke="#000000" points="1782,-39.5 1782,-59.5 1833,-59.5 1833,-39.5 1782,-39.5"/>
<text text-anchor="middle" x="1807.5" y="-46.5" font-family="FreeSans" font-size="10.00" fill="#000000">pyptmi</text>
</a>
</g>
</g>
<!-- Node16&#45;&gt;Node38 -->
<g id="edge49" class="edge">
<title>Node16&#45;&gt;Node38</title>
<path fill="none" stroke="#191970" d="M1732.4421,-166.8319C1751.0302,-137.7746 1786.2648,-82.6952 1800.885,-59.8407"/>
<polygon fill="#191970" stroke="#191970" points="1729.4796,-164.968 1727.0391,-175.2779 1735.3763,-168.7401 1729.4796,-164.968"/>
</g>
<!-- Node18 -->
<g id="node18" class="node">
<title>Node18</title>
<g id="a_node18"><a xlink:href="../../d6/dcf/pythia6425mod_8f.html#aac00ac3ccd923c2c3dc37e2b89a9f025" target="_top" xlink:title="pyinit">
<polygon fill="none" stroke="#000000" points="1963,-234.5 1963,-254.5 2008,-254.5 2008,-234.5 1963,-234.5"/>
<text text-anchor="middle" x="1985.5" y="-241.5" font-family="FreeSans" font-size="10.00" fill="#000000">pyinit</text>
</a>
</g>
</g>
<!-- Node17&#45;&gt;Node18 -->
<g id="edge18" class="edge">
<title>Node17&#45;&gt;Node18</title>
<path fill="none" stroke="#191970" d="M1844.1725,-244.5C1879.8734,-244.5 1932.9946,-244.5 1962.9075,-244.5"/>
<polygon fill="#191970" stroke="#191970" points="1844.1484,-241.0001 1834.1484,-244.5 1844.1484,-248.0001 1844.1484,-241.0001"/>
</g>
<!-- Node19 -->
<g id="node19" class="node">
<title>Node19</title>
<g id="a_node19"><a xlink:href="../../d3/dd5/jewel-2_82_80_8f.html#a2cba90a4cdaaf1d5de1cf1bfe9afaa2e" target="_top" xlink:title="initpythia">
<polygon fill="none" stroke="#000000" points="2139,-271.5 2139,-291.5 2202,-291.5 2202,-271.5 2139,-271.5"/>
<text text-anchor="middle" x="2170.5" y="-278.5" font-family="FreeSans" font-size="10.00" fill="#000000">initpythia</text>
</a>
</g>
</g>
<!-- Node18&#45;&gt;Node19 -->
<g id="edge19" class="edge">
<title>Node18&#45;&gt;Node19</title>
<path fill="none" stroke="#191970" d="M2018.294,-251.5359C2027.5684,-253.4975 2037.6751,-255.6085 2047,-257.5 2078.1459,-263.8177 2113.7822,-270.7068 2138.7434,-275.4768"/>
<polygon fill="#191970" stroke="#191970" points="2018.7717,-248.0594 2008.2626,-249.4044 2017.3167,-254.9065 2018.7717,-248.0594"/>
</g>
<!-- Node20 -->
<g id="node20" class="node">
<title>Node20</title>
<g id="a_node20"><a xlink:href="../../d6/dcf/pythia6425mod_8f.html#a4cc0e611278607d6b413b5cecdfe16c3" target="_top" xlink:title="pytest">
<polygon fill="none" stroke="#000000" points="2246.5,-206.5 2246.5,-226.5 2294.5,-226.5 2294.5,-206.5 2246.5,-206.5"/>
<text text-anchor="middle" x="2270.5" y="-213.5" font-family="FreeSans" font-size="10.00" fill="#000000">pytest</text>
</a>
</g>
</g>
<!-- Node18&#45;&gt;Node20 -->
<g id="edge21" class="edge">
<title>Node18&#45;&gt;Node20</title>
<path fill="none" stroke="#191970" d="M2018.4224,-241.2655C2076.3748,-235.5719 2195.2951,-223.8886 2246.3461,-218.873"/>
<polygon fill="#191970" stroke="#191970" points="2017.9508,-237.7949 2008.341,-242.256 2018.6353,-244.7614 2017.9508,-237.7949"/>
</g>
<!-- Node19&#45;&gt;Node12 -->
<g id="edge20" class="edge">
<title>Node19&#45;&gt;Node12</title>
<path fill="none" stroke="#191970" d="M2212.269,-281.5C2271.6794,-281.5 2378.4478,-281.5 2424.2094,-281.5"/>
<polygon fill="#191970" stroke="#191970" points="2212.1034,-278.0001 2202.1034,-281.5 2212.1033,-285.0001 2212.1034,-278.0001"/>
</g>
<!-- Node21&#45;&gt;Node18 -->
<g id="edge39" class="edge">
<title>Node21&#45;&gt;Node18</title>
<path fill="none" stroke="#191970" d="M1920.4002,-182.6305C1921.6314,-183.5834 1922.8386,-184.5435 1924,-185.5 1943.4164,-201.4901 1964.1656,-222.2611 1975.9152,-234.4121"/>
<polygon fill="#191970" stroke="#191970" points="1922.2819,-179.6697 1912.1536,-176.5605 1918.1323,-185.3072 1922.2819,-179.6697"/>
</g>
<!-- Node22 -->
<g id="node22" class="node">
<title>Node22</title>
<g id="a_node22"><a xlink:href="../../d6/dcf/pythia6425mod_8f.html#ac81fa418f8cd77b0873b2de2a4140933" target="_top" xlink:title="pyevnt">
<polygon fill="none" stroke="#000000" points="2144.5,-125.5 2144.5,-145.5 2196.5,-145.5 2196.5,-125.5 2144.5,-125.5"/>
<text text-anchor="middle" x="2170.5" y="-132.5" font-family="FreeSans" font-size="10.00" fill="#000000">pyevnt</text>
</a>
</g>
</g>
<!-- Node21&#45;&gt;Node22 -->
<g id="edge23" class="edge">
<title>Node21&#45;&gt;Node22</title>
<path fill="none" stroke="#191970" d="M1915.2131,-149.4146C1941.7561,-125.8145 1993.7336,-84.3581 2047,-68.5 2070.8542,-61.3983 2079.988,-59.0182 2103,-68.5 2131.0902,-80.0742 2153.6713,-109.6228 2164.1513,-125.3283"/>
<polygon fill="#191970" stroke="#191970" points="1912.5741,-147.0831 1907.5196,-156.3945 1917.2776,-152.2675 1912.5741,-147.0831"/>
</g>
<!-- Node21&#45;&gt;Node34 -->
<g id="edge40" class="edge">
<title>Node21&#45;&gt;Node34</title>
<path fill="none" stroke="#191970" d="M1933.9852,-158.1418C1942.6841,-156.1759 1951.7682,-154.123 1959.8427,-152.2983"/>
<polygon fill="#191970" stroke="#191970" points="1933.0163,-154.7724 1924.0338,-160.3907 1934.5594,-161.6002 1933.0163,-154.7724"/>
</g>
<!-- Node22&#45;&gt;Node20 -->
<g id="edge38" class="edge">
<title>Node22&#45;&gt;Node20</title>
<path fill="none" stroke="#191970" d="M2191.1142,-152.1975C2211.2227,-168.4854 2241.1603,-192.7349 2257.9378,-206.3246"/>
<polygon fill="#191970" stroke="#191970" points="2193.1387,-149.3332 2183.1651,-145.7587 2188.7327,-154.7727 2193.1387,-149.3332"/>
</g>
<!-- Node23 -->
<g id="node23" class="node">
<title>Node23</title>
<g id="a_node23"><a xlink:href="../../d3/dd5/jewel-2_82_80_8f.html#aeb24fa7919aa21c652e9c8f2ec45cb91" target="_top" xlink:title="genevent">
<polygon fill="none" stroke="#000000" points="2238,-140.5 2238,-160.5 2303,-160.5 2303,-140.5 2238,-140.5"/>
<text text-anchor="middle" x="2270.5" y="-147.5" font-family="FreeSans" font-size="10.00" fill="#000000">genevent</text>
</a>
</g>
</g>
<!-- Node22&#45;&gt;Node23 -->
<g id="edge24" class="edge">
<title>Node22&#45;&gt;Node23</title>
<path fill="none" stroke="#191970" d="M2206.4039,-140.8856C2216.6532,-142.423 2227.763,-144.0894 2237.8092,-145.5964"/>
<polygon fill="#191970" stroke="#191970" points="2206.9214,-137.4241 2196.5128,-139.4019 2205.8829,-144.3467 2206.9214,-137.4241"/>
</g>
<!-- Node23&#45;&gt;Node12 -->
<g id="edge33" class="edge">
<title>Node23&#45;&gt;Node12</title>
<path fill="none" stroke="#191970" d="M2283.8645,-168.8821C2289.8365,-177.2311 2296.8908,-187.2821 2303,-196.5 2319.7609,-221.7896 2314.5069,-236.5952 2339,-254.5 2364.3654,-273.0425 2401.1443,-278.9082 2424.3031,-280.7295"/>
<polygon fill="#191970" stroke="#191970" points="2286.5904,-166.6781 2277.905,-160.6106 2280.9109,-170.77 2286.5904,-166.6781"/>
</g>
<!-- Node24 -->
<g id="node24" class="node">
<title>Node24</title>
<g id="a_node24"><a xlink:href="../../dd/d2a/classPHHepMCGenHelper.html#ab0c755f6e53c0bf57ccd314a0017d227" target="_top" xlink:title="send HepMC::GenEvent to DST tree. This function takes ownership of evt">
<polygon fill="none" stroke="#000000" points="2368,-134.5 2368,-166.5 2524,-166.5 2524,-134.5 2368,-134.5"/>
<text text-anchor="start" x="2376" y="-153.5" font-family="FreeSans" font-size="10.00" fill="#000000">PHHepMCGenHelper::insert</text>
<text text-anchor="middle" x="2446" y="-141.5" font-family="FreeSans" font-size="10.00" fill="#000000">_event</text>
</a>
</g>
</g>
<!-- Node23&#45;&gt;Node24 -->
<g id="edge25" class="edge">
<title>Node23&#45;&gt;Node24</title>
<path fill="none" stroke="#191970" d="M2313.413,-150.5C2329.7869,-150.5 2349.0089,-150.5 2367.6575,-150.5"/>
<polygon fill="#191970" stroke="#191970" points="2313.0989,-147.0001 2303.0989,-150.5 2313.0989,-154.0001 2313.0989,-147.0001"/>
</g>
<!-- Node29 -->
<g id="node29" class="node">
<title>Node29</title>
<g id="a_node29"><a xlink:href="../../d9/d3a/classPHPythia8.html#a5cc4124cc6be2fb2467714e3d3bc5a6a" target="_top" xlink:title="PHPythia8::process\l_event">
<polygon fill="none" stroke="#000000" points="2624,-85.5 2624,-117.5 2737,-117.5 2737,-85.5 2624,-85.5"/>
<text text-anchor="start" x="2632" y="-104.5" font-family="FreeSans" font-size="10.00" fill="#000000">PHPythia8::process</text>
<text text-anchor="middle" x="2680.5" y="-92.5" font-family="FreeSans" font-size="10.00" fill="#000000">_event</text>
</a>
</g>
</g>
<!-- Node23&#45;&gt;Node29 -->
<g id="edge36" class="edge">
<title>Node23&#45;&gt;Node29</title>
<path fill="none" stroke="#191970" d="M2301.1635,-136.6457C2312.7842,-131.9897 2326.2814,-127.2775 2339,-124.5 2437.5472,-102.9791 2555.5556,-99.8859 2623.8868,-100.2445"/>
<polygon fill="#191970" stroke="#191970" points="2299.7897,-133.4264 2291.9019,-140.4998 2302.4791,-139.8891 2299.7897,-133.4264"/>
</g>
<!-- Node30 -->
<g id="node30" class="node">
<title>Node30</title>
<g id="a_node30"><a xlink:href="../../da/df0/classPHSartre.html#aafe9fd92317ab1f7eee67a9354696c4e" target="_top" xlink:title="PHSartre::process_event">
<polygon fill="none" stroke="#000000" points="2610.5,-46.5 2610.5,-66.5 2750.5,-66.5 2750.5,-46.5 2610.5,-46.5"/>
<text text-anchor="middle" x="2680.5" y="-53.5" font-family="FreeSans" font-size="10.00" fill="#000000">PHSartre::process_event</text>
</a>
</g>
</g>
<!-- Node23&#45;&gt;Node30 -->
<g id="edge35" class="edge">
<title>Node23&#45;&gt;Node30</title>
<path fill="none" stroke="#191970" d="M2287.2806,-133.2599C2300.2119,-121.1142 2319.1826,-105.6229 2339,-97.5 2427.6805,-61.1511 2539.3975,-54.2645 2610.4077,-54.1848"/>
<polygon fill="#191970" stroke="#191970" points="2284.7792,-130.8103 2280.056,-140.2941 2289.6625,-135.8257 2284.7792,-130.8103"/>
</g>
<!-- Node32 -->
<g id="node32" class="node">
<title>Node32</title>
<g id="a_node32"><a xlink:href="../../d7/df5/pepsiMaineRHIC__noradcorr_8f.html#ac2ed0c0080f3e6d946824efb82e28ab5" target="_top" xlink:title="pepsimainerhic">
<polygon fill="none" stroke="#000000" points="2399,-224.5 2399,-244.5 2493,-244.5 2493,-224.5 2399,-224.5"/>
<text text-anchor="middle" x="2446" y="-231.5" font-family="FreeSans" font-size="10.00" fill="#000000">pepsimainerhic</text>
</a>
</g>
</g>
<!-- Node23&#45;&gt;Node32 -->
<g id="edge34" class="edge">
<title>Node23&#45;&gt;Node32</title>
<path fill="none" stroke="#191970" d="M2284.6828,-168.5276C2297.3168,-183.2797 2317.1453,-203.4503 2339,-214.5 2357.3829,-223.7944 2379.5096,-228.7998 2398.8594,-231.4836"/>
<polygon fill="#191970" stroke="#191970" points="2287.1822,-166.0576 2278.1145,-160.5778 2281.7858,-170.5162 2287.1822,-166.0576"/>
</g>
<!-- Node33 -->
<g id="node33" class="node">
<title>Node33</title>
<g id="a_node33"><a xlink:href="../../de/d99/classFun4AllHepMCPileupInputManager.html#a81bf2b69c3c4d3aae0aadebafe1c2c2e" target="_top" xlink:title="Fun4AllHepMCPileupInputManager::run">
<polygon fill="none" stroke="#000000" points="2339,-185.5 2339,-205.5 2553,-205.5 2553,-185.5 2339,-185.5"/>
<text text-anchor="middle" x="2446" y="-192.5" font-family="FreeSans" font-size="10.00" fill="#000000">Fun4AllHepMCPileupInputManager::run</text>
</a>
</g>
</g>
<!-- Node23&#45;&gt;Node33 -->
<g id="edge37" class="edge">
<title>Node23&#45;&gt;Node33</title>
<path fill="none" stroke="#191970" d="M2304.495,-164.1635C2315.3936,-168.2035 2327.5952,-172.376 2339,-175.5 2353.0345,-179.3444 2368.3066,-182.6855 2382.8022,-185.4783"/>
<polygon fill="#191970" stroke="#191970" points="2305.5037,-160.8027 2294.9125,-160.5244 2303.0185,-167.3467 2305.5037,-160.8027"/>
</g>
<!-- Node25 -->
<g id="node25" class="node">
<title>Node25</title>
<g id="a_node25"><a xlink:href="../../d6/d6f/classFun4AllHepMCInputManager.html#ab6c80a8ee0701bfff5eee3ec3623015c" target="_top" xlink:title="Fun4AllHepMCInputManager::run">
<polygon fill="none" stroke="#000000" points="2589,-289.5 2589,-309.5 2772,-309.5 2772,-289.5 2589,-289.5"/>
<text text-anchor="middle" x="2680.5" y="-296.5" font-family="FreeSans" font-size="10.00" fill="#000000">Fun4AllHepMCInputManager::run</text>
</a>
</g>
</g>
<!-- Node24&#45;&gt;Node25 -->
<g id="edge26" class="edge">
<title>Node24&#45;&gt;Node25</title>
<path fill="none" stroke="#191970" d="M2533.2987,-162.6504C2540.4664,-166.0215 2547.1791,-170.238 2553,-175.5 2589.5965,-208.5828 2551.9963,-247.8733 2589,-280.5 2593.0159,-284.0409 2597.5169,-286.9846 2602.3112,-289.4263"/>
<polygon fill="#191970" stroke="#191970" points="2534.5882,-159.3963 2524.0092,-158.8174 2531.9182,-165.8671 2534.5882,-159.3963"/>
</g>
<!-- Node26 -->
<g id="node26" class="node">
<title>Node26</title>
<g id="a_node26"><a xlink:href="../../db/d1f/classFun4AllOscarInputManager.html#a1537e89c4e652f70747fbbef18ceadc4" target="_top" xlink:title="Fun4AllOscarInputManager\l::ConvertFromOscar">
<polygon fill="none" stroke="#000000" points="2603.5,-238.5 2603.5,-270.5 2757.5,-270.5 2757.5,-238.5 2603.5,-238.5"/>
<text text-anchor="start" x="2611.5" y="-257.5" font-family="FreeSans" font-size="10.00" fill="#000000">Fun4AllOscarInputManager</text>
<text text-anchor="middle" x="2680.5" y="-245.5" font-family="FreeSans" font-size="10.00" fill="#000000">::ConvertFromOscar</text>
</a>
</g>
</g>
<!-- Node24&#45;&gt;Node26 -->
<g id="edge27" class="edge">
<title>Node24&#45;&gt;Node26</title>
<path fill="none" stroke="#191970" d="M2533.5432,-165.0471C2540.4115,-167.9311 2547,-171.379 2553,-175.5 2576.4725,-191.6216 2565.9155,-211.8275 2589,-228.5 2594.3551,-232.3676 2600.2706,-235.6614 2606.4406,-238.4662"/>
<polygon fill="#191970" stroke="#191970" points="2534.6247,-161.7143 2524.0331,-161.4538 2532.1505,-168.2625 2534.6247,-161.7143"/>
</g>
<!-- Node28 -->
<g id="node28" class="node">
<title>Node28</title>
<g id="a_node28"><a xlink:href="../../dd/da8/classPHPythia6.html#a7a70bdd1c198a83ed143d3e2c4516d0d" target="_top" xlink:title="PHPythia6::process\l_event">
<polygon fill="none" stroke="#000000" points="2624,-187.5 2624,-219.5 2737,-219.5 2737,-187.5 2624,-187.5"/>
<text text-anchor="start" x="2632" y="-206.5" font-family="FreeSans" font-size="10.00" fill="#000000">PHPythia6::process</text>
<text text-anchor="middle" x="2680.5" y="-194.5" font-family="FreeSans" font-size="10.00" fill="#000000">_event</text>
</a>
</g>
</g>
<!-- Node24&#45;&gt;Node28 -->
<g id="edge29" class="edge">
<title>Node24&#45;&gt;Node28</title>
<path fill="none" stroke="#191970" d="M2526.7773,-168.7567C2558.7558,-175.9842 2594.7542,-184.1203 2623.8719,-190.7013"/>
<polygon fill="#191970" stroke="#191970" points="2527.5197,-165.3363 2516.9941,-166.5456 2525.9765,-172.1641 2527.5197,-165.3363"/>
</g>
<!-- Node24&#45;&gt;Node29 -->
<g id="edge30" class="edge">
<title>Node24&#45;&gt;Node29</title>
<path fill="none" stroke="#191970" d="M2532.9326,-132.335C2563.2233,-126.0056 2596.4126,-119.0705 2623.6312,-113.383"/>
<polygon fill="#191970" stroke="#191970" points="2531.8568,-128.9841 2522.7841,-134.4556 2533.2886,-135.8361 2531.8568,-128.9841"/>
</g>
<!-- Node24&#45;&gt;Node30 -->
<g id="edge31" class="edge">
<title>Node24&#45;&gt;Node30</title>
<path fill="none" stroke="#191970" d="M2480.0316,-129.1811C2508.2566,-112.365 2549.9434,-89.4869 2589,-75.5 2598.9283,-71.9445 2609.7138,-68.9696 2620.2811,-66.5097"/>
<polygon fill="#191970" stroke="#191970" points="2478.1176,-126.2481 2471.361,-134.4089 2481.7321,-132.2427 2478.1176,-126.2481"/>
</g>
<!-- Node31 -->
<g id="node31" class="node">
<title>Node31</title>
<g id="a_node31"><a xlink:href="../../d3/d49/classReadEICFiles.html#a49106bf9561329777334154092890af2" target="_top" xlink:title="ReadEICFiles::process\l_event">
<polygon fill="none" stroke="#000000" points="2617.5,-136.5 2617.5,-168.5 2743.5,-168.5 2743.5,-136.5 2617.5,-136.5"/>
<text text-anchor="start" x="2625.5" y="-155.5" font-family="FreeSans" font-size="10.00" fill="#000000">ReadEICFiles::process</text>
<text text-anchor="middle" x="2680.5" y="-143.5" font-family="FreeSans" font-size="10.00" fill="#000000">_event</text>
</a>
</g>
</g>
<!-- Node24&#45;&gt;Node31 -->
<g id="edge32" class="edge">
<title>Node24&#45;&gt;Node31</title>
<path fill="none" stroke="#191970" d="M2534.1376,-151.2517C2561.7388,-151.4871 2591.6376,-151.7421 2617.1737,-151.9599"/>
<polygon fill="#191970" stroke="#191970" points="2534.1146,-147.7515 2524.0851,-151.166 2534.0549,-154.7512 2534.1146,-147.7515"/>
</g>
<!-- Node27 -->
<g id="node27" class="node">
<title>Node27</title>
<g id="a_node27"><a xlink:href="../../db/d1f/classFun4AllOscarInputManager.html#a4be602bd8c9fe73f9dcc81c8871784a6" target="_top" xlink:title="Fun4AllOscarInputManager::run">
<polygon fill="none" stroke="#000000" points="2808,-244.5 2808,-264.5 2984,-264.5 2984,-244.5 2808,-244.5"/>
<text text-anchor="middle" x="2896" y="-251.5" font-family="FreeSans" font-size="10.00" fill="#000000">Fun4AllOscarInputManager::run</text>
</a>
</g>
</g>
<!-- Node26&#45;&gt;Node27 -->
<g id="edge28" class="edge">
<title>Node26&#45;&gt;Node27</title>
<path fill="none" stroke="#191970" d="M2767.7391,-254.5C2781.0061,-254.5 2794.7039,-254.5 2807.9873,-254.5"/>
<polygon fill="#191970" stroke="#191970" points="2767.6918,-251.0001 2757.6918,-254.5 2767.6917,-258.0001 2767.6918,-251.0001"/>
</g>
<!-- Node34&#45;&gt;Node22 -->
<g id="edge41" class="edge">
<title>Node34&#45;&gt;Node22</title>
<path fill="none" stroke="#191970" d="M2021.3236,-144.37C2057.4129,-142.2241 2112.2315,-138.9646 2144.3986,-137.052"/>
<polygon fill="#191970" stroke="#191970" points="2020.9981,-140.883 2011.2235,-144.9705 2021.4136,-147.8707 2020.9981,-140.883"/>
</g>
<!-- Node35 -->
<g id="node35" class="node">
<title>Node35</title>
<g id="a_node35"><a xlink:href="../../d6/dcf/pythia6425mod_8f.html#a83ae6561ab82fd7af8b1b3e511f477ac" target="_top" xlink:title="pyevnw">
<polygon fill="none" stroke="#000000" points="2047,-78.5 2047,-98.5 2103,-98.5 2103,-78.5 2047,-78.5"/>
<text text-anchor="middle" x="2075" y="-85.5" font-family="FreeSans" font-size="10.00" fill="#000000">pyevnw</text>
</a>
</g>
</g>
<!-- Node34&#45;&gt;Node35 -->
<g id="edge42" class="edge">
<title>Node34&#45;&gt;Node35</title>
<path fill="none" stroke="#191970" d="M2009.7855,-130.7619C2025.5381,-120.5535 2045.6024,-107.551 2059.2886,-98.6817"/>
<polygon fill="#191970" stroke="#191970" points="2007.5782,-128.0216 2001.0897,-136.3972 2011.3851,-133.896 2007.5782,-128.0216"/>
</g>
<!-- Node36 -->
<g id="node36" class="node">
<title>Node36</title>
<g id="a_node36"><a xlink:href="../../d6/dcf/pythia6425mod_8f.html#ae7cb37215e5a38b3fb0529c9996646e6" target="_top" xlink:title="pyupev">
<polygon fill="none" stroke="#000000" points="2048,-156.5 2048,-176.5 2102,-176.5 2102,-156.5 2048,-156.5"/>
<text text-anchor="middle" x="2075" y="-163.5" font-family="FreeSans" font-size="10.00" fill="#000000">pyupev</text>
</a>
</g>
</g>
<!-- Node34&#45;&gt;Node36 -->
<g id="edge44" class="edge">
<title>Node34&#45;&gt;Node36</title>
<path fill="none" stroke="#191970" d="M2021.1621,-154.4692C2030.0799,-156.462 2039.5004,-158.5671 2047.9251,-160.4497"/>
<polygon fill="#191970" stroke="#191970" points="2021.9097,-151.05 2011.3871,-152.2848 2020.3831,-157.8815 2021.9097,-151.05"/>
</g>
<!-- Node35&#45;&gt;Node22 -->
<g id="edge43" class="edge">
<title>Node35&#45;&gt;Node22</title>
<path fill="none" stroke="#191970" d="M2104.9387,-103.2342C2119.6497,-110.4742 2136.9937,-119.01 2150.1464,-125.4831"/>
<polygon fill="#191970" stroke="#191970" points="2106.2399,-99.9737 2095.7221,-98.6983 2103.1489,-106.2543 2106.2399,-99.9737"/>
</g>
<!-- Node37&#45;&gt;Node18 -->
<g id="edge47" class="edge">
<title>Node37&#45;&gt;Node18</title>
<path fill="none" stroke="#191970" d="M1929.2121,-219.6952C1940.3444,-224.6009 1952.5767,-229.9914 1962.7863,-234.4906"/>
<polygon fill="#191970" stroke="#191970" points="1930.3532,-216.3733 1919.7909,-215.5435 1927.5304,-222.7789 1930.3532,-216.3733"/>
</g>
<!-- Node37&#45;&gt;Node22 -->
<g id="edge46" class="edge">
<title>Node37&#45;&gt;Node22</title>
<path fill="none" stroke="#191970" d="M1933.135,-207.711C1975.3428,-209.0164 2046.5764,-207.2009 2103,-185.5 2126.1397,-176.6003 2148.313,-157.4716 2160.5994,-145.6238"/>
<polygon fill="#191970" stroke="#191970" points="1933.1839,-204.2104 1923.0563,-207.3221 1932.9139,-211.2052 1933.1839,-204.2104"/>
</g>
<!-- Node37&#45;&gt;Node34 -->
<g id="edge48" class="edge">
<title>Node37&#45;&gt;Node34</title>
<path fill="none" stroke="#191970" d="M1920.7096,-189.6936C1936.5041,-179.164 1956.7854,-165.6431 1970.4135,-156.5576"/>
<polygon fill="#191970" stroke="#191970" points="1918.3919,-187.0322 1912.0128,-195.4915 1922.2748,-192.8566 1918.3919,-187.0322"/>
</g>
<!-- Node39 -->
<g id="node39" class="node">
<title>Node39</title>
<g id="a_node39"><a xlink:href="../../d6/dcf/pythia6425mod_8f.html#a15448b25c4eb515f33e35f86f376af68" target="_top" xlink:title="pyevol">
<polygon fill="none" stroke="#000000" points="1960.5,-.5 1960.5,-20.5 2010.5,-20.5 2010.5,-.5 1960.5,-.5"/>
<text text-anchor="middle" x="1985.5" y="-7.5" font-family="FreeSans" font-size="10.00" fill="#000000">pyevol</text>
</a>
</g>
</g>
<!-- Node38&#45;&gt;Node39 -->
<g id="edge50" class="edge">
<title>Node38&#45;&gt;Node39</title>
<path fill="none" stroke="#191970" d="M1843.2211,-44.5943C1866.4004,-41.1102 1897.1732,-35.9181 1924,-29.5 1936.0638,-26.6138 1949.2283,-22.6584 1960.2708,-19.1037"/>
<polygon fill="#191970" stroke="#191970" points="1842.5325,-41.1578 1833.1469,-46.0732 1843.5493,-48.0835 1842.5325,-41.1578"/>
</g>
<!-- Node40 -->
<g id="node40" class="node">
<title>Node40</title>
<g id="a_node40"><a xlink:href="../../d6/dcf/pythia6425mod_8f.html#ac00de061be805868aa61d626239f5fa9" target="_top" xlink:title="pyptis">
<polygon fill="none" stroke="#000000" points="1873.5,-.5 1873.5,-20.5 1920.5,-20.5 1920.5,-.5 1873.5,-.5"/>
<text text-anchor="middle" x="1897" y="-7.5" font-family="FreeSans" font-size="10.00" fill="#000000">pyptis</text>
</a>
</g>
</g>
<!-- Node38&#45;&gt;Node40 -->
<g id="edge52" class="edge">
<title>Node38&#45;&gt;Node40</title>
<path fill="none" stroke="#191970" d="M1839.7353,-35.4533C1851.084,-30.5081 1863.6004,-25.054 1874.0296,-20.5094"/>
<polygon fill="#191970" stroke="#191970" points="1838.3177,-32.2531 1830.5485,-39.4565 1841.1141,-38.6703 1838.3177,-32.2531"/>
</g>
<!-- Node39&#45;&gt;Node35 -->
<g id="edge51" class="edge">
<title>Node39&#45;&gt;Node35</title>
<path fill="none" stroke="#191970" d="M2004.7408,-27.2685C2022.539,-42.7798 2048.4206,-65.3359 2063.2966,-78.3004"/>
<polygon fill="#191970" stroke="#191970" points="2007.0389,-24.6287 1997.2006,-20.6971 2002.4398,-29.9059 2007.0389,-24.6287"/>
</g>
<!-- Node40&#45;&gt;Node39 -->
<g id="edge53" class="edge">
<title>Node40&#45;&gt;Node39</title>
<path fill="none" stroke="#191970" d="M1930.9848,-10.5C1940.7962,-10.5 1951.3202,-10.5 1960.4796,-10.5"/>
<polygon fill="#191970" stroke="#191970" points="1930.7164,-7.0001 1920.7164,-10.5 1930.7163,-14.0001 1930.7164,-7.0001"/>
</g>
<!-- Node41&#45;&gt;Node14 -->
<g id="edge56" class="edge">
<title>Node41&#45;&gt;Node14</title>
<path fill="none" stroke="#191970" d="M1341.0391,-242.5C1376.6067,-242.5 1430.0644,-242.5 1461.3027,-242.5"/>
<polygon fill="#191970" stroke="#191970" points="1340.6196,-239.0001 1330.6196,-242.5 1340.6195,-246.0001 1340.6196,-239.0001"/>
</g>
</g>
</svg>
