<?xml version="1.0" encoding="UTF-8" standalone="no"?>
<!DOCTYPE svg PUBLIC "-//W3C//DTD SVG 1.1//EN"
 "http://www.w3.org/Graphics/SVG/1.1/DTD/svg11.dtd">
<!-- Generated by graphviz version 2.40.1 (20161225.0304)
 -->
<!-- Title: fun4all_coresoftware/blob/master/simulation/g4simulation/g4eval/SvtxClusterEval.h Pages: 1 -->
<svg width="1883pt" height="680pt"
 viewBox="0.00 0.00 1882.50 680.00" xmlns="http://www.w3.org/2000/svg" xmlns:xlink="http://www.w3.org/1999/xlink">
<g id="graph0" class="graph" transform="scale(1 1) rotate(0) translate(4 676)">
<title>fun4all_coresoftware/blob/master/simulation/g4simulation/g4eval/SvtxClusterEval.h</title>
<!-- Node1 -->
<g id="node1" class="node">
<title>Node1</title>
<polygon fill="#bfbfbf" stroke="#000000" points="1538.5,-615.5 1538.5,-671.5 1724.5,-671.5 1724.5,-615.5 1538.5,-615.5"/>
<text text-anchor="start" x="1546.5" y="-658.5" font-family="FreeSans" font-size="10.00" fill="#000000">fun4all_coresoftware</text>
<text text-anchor="start" x="1546.5" y="-646.5" font-family="FreeSans" font-size="10.00" fill="#000000">/blob/master/simulation</text>
<text text-anchor="start" x="1546.5" y="-634.5" font-family="FreeSans" font-size="10.00" fill="#000000">/g4simulation/g4eval/SvtxCluster</text>
<text text-anchor="middle" x="1631.5" y="-622.5" font-family="FreeSans" font-size="10.00" fill="#000000">Eval.h</text>
</g>
<!-- Node2 -->
<g id="node2" class="node">
<title>Node2</title>
<g id="a_node2"><a xlink:href="../../df/d8a/SvtxTrackEval_8h.html" target="_top" xlink:title="fun4all_coresoftware\l/blob/master/simulation\l/g4simulation/g4eval/SvtxTrack\lEval.h">
<polygon fill="none" stroke="#000000" points="1183,-522.5 1183,-578.5 1360,-578.5 1360,-522.5 1183,-522.5"/>
<text text-anchor="start" x="1191" y="-565.5" font-family="FreeSans" font-size="10.00" fill="#000000">fun4all_coresoftware</text>
<text text-anchor="start" x="1191" y="-553.5" font-family="FreeSans" font-size="10.00" fill="#000000">/blob/master/simulation</text>
<text text-anchor="start" x="1191" y="-541.5" font-family="FreeSans" font-size="10.00" fill="#000000">/g4simulation/g4eval/SvtxTrack</text>
<text text-anchor="middle" x="1271.5" y="-529.5" font-family="FreeSans" font-size="10.00" fill="#000000">Eval.h</text>
</a>
</g>
</g>
<!-- Node1&#45;&gt;Node2 -->
<g id="edge1" class="edge">
<title>Node1&#45;&gt;Node2</title>
<path fill="none" stroke="#191970" d="M1528.5332,-616.9002C1475.3851,-603.1703 1411.1934,-586.5875 1360.2555,-573.4285"/>
<polygon fill="#191970" stroke="#191970" points="1527.7653,-620.3167 1538.3229,-619.4292 1529.5162,-613.5392 1527.7653,-620.3167"/>
</g>
<!-- Node20 -->
<g id="node20" class="node">
<title>Node20</title>
<g id="a_node20"><a xlink:href="../../d7/dd1/SvtxEvaluator_8cc.html" target="_top" xlink:title="fun4all_coresoftware\l/blob/master/simulation\l/g4simulation/g4eval/SvtxEvaluator.cc">
<polygon fill="none" stroke="#000000" points="1323,-249.5 1323,-293.5 1534,-293.5 1534,-249.5 1323,-249.5"/>
<text text-anchor="start" x="1331" y="-280.5" font-family="FreeSans" font-size="10.00" fill="#000000">fun4all_coresoftware</text>
<text text-anchor="start" x="1331" y="-268.5" font-family="FreeSans" font-size="10.00" fill="#000000">/blob/master/simulation</text>
<text text-anchor="middle" x="1428.5" y="-256.5" font-family="FreeSans" font-size="10.00" fill="#000000">/g4simulation/g4eval/SvtxEvaluator.cc</text>
</a>
</g>
</g>
<!-- Node1&#45;&gt;Node20 -->
<g id="edge37" class="edge">
<title>Node1&#45;&gt;Node20</title>
<path fill="none" stroke="#191970" d="M1643.9638,-605.6709C1656.3904,-560.8982 1669.9013,-485.3234 1641.5,-429 1608.3684,-363.2957 1533.4481,-318.1984 1481.9171,-293.615"/>
<polygon fill="#191970" stroke="#191970" points="1640.6011,-604.7003 1641.1815,-615.2792 1647.3249,-606.6473 1640.6011,-604.7003"/>
</g>
<!-- Node22 -->
<g id="node22" class="node">
<title>Node22</title>
<g id="a_node22"><a xlink:href="../../d5/d71/SvtxTrackEval_8cc.html" target="_top" xlink:title="fun4all_coresoftware\l/blob/master/simulation\l/g4simulation/g4eval/SvtxTrack\lEval.cc">
<polygon fill="none" stroke="#000000" points="1456,-429.5 1456,-485.5 1633,-485.5 1633,-429.5 1456,-429.5"/>
<text text-anchor="start" x="1464" y="-472.5" font-family="FreeSans" font-size="10.00" fill="#000000">fun4all_coresoftware</text>
<text text-anchor="start" x="1464" y="-460.5" font-family="FreeSans" font-size="10.00" fill="#000000">/blob/master/simulation</text>
<text text-anchor="start" x="1464" y="-448.5" font-family="FreeSans" font-size="10.00" fill="#000000">/g4simulation/g4eval/SvtxTrack</text>
<text text-anchor="middle" x="1544.5" y="-436.5" font-family="FreeSans" font-size="10.00" fill="#000000">Eval.cc</text>
</a>
</g>
</g>
<!-- Node1&#45;&gt;Node22 -->
<g id="edge38" class="edge">
<title>Node1&#45;&gt;Node22</title>
<path fill="none" stroke="#191970" d="M1614.0332,-606.1571C1597.4026,-570.6022 1572.7414,-517.8782 1557.695,-485.7099"/>
<polygon fill="#191970" stroke="#191970" points="1610.8793,-607.6754 1618.2866,-615.2506 1617.22,-604.7096 1610.8793,-607.6754"/>
</g>
<!-- Node23 -->
<g id="node23" class="node">
<title>Node23</title>
<g id="a_node23"><a xlink:href="../../d7/dbf/SvtxClusterEval_8cc.html" target="_top" xlink:title="fun4all_coresoftware\l/blob/master/simulation\l/g4simulation/g4eval/SvtxCluster\lEval.cc">
<polygon fill="none" stroke="#000000" points="1688.5,-522.5 1688.5,-578.5 1874.5,-578.5 1874.5,-522.5 1688.5,-522.5"/>
<text text-anchor="start" x="1696.5" y="-565.5" font-family="FreeSans" font-size="10.00" fill="#000000">fun4all_coresoftware</text>
<text text-anchor="start" x="1696.5" y="-553.5" font-family="FreeSans" font-size="10.00" fill="#000000">/blob/master/simulation</text>
<text text-anchor="start" x="1696.5" y="-541.5" font-family="FreeSans" font-size="10.00" fill="#000000">/g4simulation/g4eval/SvtxCluster</text>
<text text-anchor="middle" x="1781.5" y="-529.5" font-family="FreeSans" font-size="10.00" fill="#000000">Eval.cc</text>
</a>
</g>
</g>
<!-- Node1&#45;&gt;Node23 -->
<g id="edge36" class="edge">
<title>Node1&#45;&gt;Node23</title>
<path fill="none" stroke="#191970" d="M1685.4587,-610.0456C1702.1017,-599.727 1720.2487,-588.4758 1736.2423,-578.5597"/>
<polygon fill="#191970" stroke="#191970" points="1683.5667,-607.1004 1676.912,-615.3446 1687.2554,-613.0498 1683.5667,-607.1004"/>
</g>
<!-- Node3 -->
<g id="node3" class="node">
<title>Node3</title>
<g id="a_node3"><a xlink:href="../../d4/d11/QAG4SimulationCalorimeterSum_8cc.html" target="_top" xlink:title="fun4all_coresoftware\l/blob/master/offline\l/QA/modules/QAG4SimulationCalorimeter\lSum.cc">
<polygon fill="none" stroke="#000000" points="0,-243.5 0,-299.5 229,-299.5 229,-243.5 0,-243.5"/>
<text text-anchor="start" x="8" y="-286.5" font-family="FreeSans" font-size="10.00" fill="#000000">fun4all_coresoftware</text>
<text text-anchor="start" x="8" y="-274.5" font-family="FreeSans" font-size="10.00" fill="#000000">/blob/master/offline</text>
<text text-anchor="start" x="8" y="-262.5" font-family="FreeSans" font-size="10.00" fill="#000000">/QA/modules/QAG4SimulationCalorimeter</text>
<text text-anchor="middle" x="114.5" y="-250.5" font-family="FreeSans" font-size="10.00" fill="#000000">Sum.cc</text>
</a>
</g>
</g>
<!-- Node2&#45;&gt;Node3 -->
<g id="edge2" class="edge">
<title>Node2&#45;&gt;Node3</title>
<path fill="none" stroke="#191970" d="M1172.6966,-549.4802C930.5632,-546.2524 321.6074,-533.4598 243.5,-486 173.4965,-443.4644 136.643,-347.2717 122.0754,-299.5023"/>
<polygon fill="#191970" stroke="#191970" points="1172.8557,-552.9825 1182.9006,-549.6135 1172.9471,-545.9831 1172.8557,-552.9825"/>
</g>
<!-- Node4 -->
<g id="node4" class="node">
<title>Node4</title>
<g id="a_node4"><a xlink:href="../../d8/d04/QAG4SimulationTracking_8cc.html" target="_top" xlink:title="fun4all_coresoftware\l/blob/master/offline\l/QA/modules/QAG4SimulationTracking.cc">
<polygon fill="none" stroke="#000000" points="220,-162.5 220,-206.5 445,-206.5 445,-162.5 220,-162.5"/>
<text text-anchor="start" x="228" y="-193.5" font-family="FreeSans" font-size="10.00" fill="#000000">fun4all_coresoftware</text>
<text text-anchor="start" x="228" y="-181.5" font-family="FreeSans" font-size="10.00" fill="#000000">/blob/master/offline</text>
<text text-anchor="middle" x="332.5" y="-169.5" font-family="FreeSans" font-size="10.00" fill="#000000">/QA/modules/QAG4SimulationTracking.cc</text>
</a>
</g>
</g>
<!-- Node2&#45;&gt;Node4 -->
<g id="edge3" class="edge">
<title>Node2&#45;&gt;Node4</title>
<path fill="none" stroke="#191970" d="M1172.9502,-537.9363C1093.6632,-526.9346 979.6778,-509.1 881.5,-486 607.6681,-421.5709 443.6528,-526.263 276.5,-300 261.4471,-279.6239 267.0614,-266.5094 276.5,-243 282.1049,-229.0394 292.8076,-216.5292 303.3674,-206.6958"/>
<polygon fill="#191970" stroke="#191970" points="1172.5452,-541.4135 1182.9292,-539.3103 1173.5001,-534.4789 1172.5452,-541.4135"/>
</g>
<!-- Node5 -->
<g id="node5" class="node">
<title>Node5</title>
<g id="a_node5"><a xlink:href="../../dc/dcd/QAG4SimulationUpsilon_8cc.html" target="_top" xlink:title="fun4all_coresoftware\l/blob/master/offline\l/QA/modules/QAG4SimulationUpsilon.cc">
<polygon fill="none" stroke="#000000" points="285.5,-249.5 285.5,-293.5 505.5,-293.5 505.5,-249.5 285.5,-249.5"/>
<text text-anchor="start" x="293.5" y="-280.5" font-family="FreeSans" font-size="10.00" fill="#000000">fun4all_coresoftware</text>
<text text-anchor="start" x="293.5" y="-268.5" font-family="FreeSans" font-size="10.00" fill="#000000">/blob/master/offline</text>
<text text-anchor="middle" x="395.5" y="-256.5" font-family="FreeSans" font-size="10.00" fill="#000000">/QA/modules/QAG4SimulationUpsilon.cc</text>
</a>
</g>
</g>
<!-- Node2&#45;&gt;Node5 -->
<g id="edge4" class="edge">
<title>Node2&#45;&gt;Node5</title>
<path fill="none" stroke="#191970" d="M1172.9059,-522.1251C1135.1672,-511.0903 1091.7657,-498.1892 1052.5,-486 835.0595,-418.4999 579.0059,-333.2185 461.0406,-293.5993"/>
<polygon fill="#191970" stroke="#191970" points="1172.3003,-525.5943 1182.8805,-525.0368 1174.2619,-518.8747 1172.3003,-525.5943"/>
</g>
<!-- Node6 -->
<g id="node6" class="node">
<title>Node6</title>
<g id="a_node6"><a xlink:href="../../d5/d9c/SvtxVertexEval_8h.html" target="_top" xlink:title="fun4all_coresoftware\l/blob/master/simulation\l/g4simulation/g4eval/SvtxVertex\lEval.h">
<polygon fill="none" stroke="#000000" points="1061.5,-429.5 1061.5,-485.5 1243.5,-485.5 1243.5,-429.5 1061.5,-429.5"/>
<text text-anchor="start" x="1069.5" y="-472.5" font-family="FreeSans" font-size="10.00" fill="#000000">fun4all_coresoftware</text>
<text text-anchor="start" x="1069.5" y="-460.5" font-family="FreeSans" font-size="10.00" fill="#000000">/blob/master/simulation</text>
<text text-anchor="start" x="1069.5" y="-448.5" font-family="FreeSans" font-size="10.00" fill="#000000">/g4simulation/g4eval/SvtxVertex</text>
<text text-anchor="middle" x="1152.5" y="-436.5" font-family="FreeSans" font-size="10.00" fill="#000000">Eval.h</text>
</a>
</g>
</g>
<!-- Node2&#45;&gt;Node6 -->
<g id="edge5" class="edge">
<title>Node2&#45;&gt;Node6</title>
<path fill="none" stroke="#191970" d="M1227.2345,-515.9059C1214.435,-505.903 1200.6271,-495.1119 1188.4044,-485.5597"/>
<polygon fill="#191970" stroke="#191970" points="1225.4387,-518.9445 1235.4731,-522.3446 1229.7491,-513.4291 1225.4387,-518.9445"/>
</g>
<!-- Node17 -->
<g id="node17" class="node">
<title>Node17</title>
<g id="a_node17"><a xlink:href="../../d2/da2/JetRecoEval_8cc.html" target="_top" xlink:title="fun4all_coresoftware\l/blob/master/simulation\l/g4simulation/g4eval/JetRecoEval.cc">
<polygon fill="none" stroke="#000000" points="796,-81.5 796,-125.5 997,-125.5 997,-81.5 796,-81.5"/>
<text text-anchor="start" x="804" y="-112.5" font-family="FreeSans" font-size="10.00" fill="#000000">fun4all_coresoftware</text>
<text text-anchor="start" x="804" y="-100.5" font-family="FreeSans" font-size="10.00" fill="#000000">/blob/master/simulation</text>
<text text-anchor="middle" x="896.5" y="-88.5" font-family="FreeSans" font-size="10.00" fill="#000000">/g4simulation/g4eval/JetRecoEval.cc</text>
</a>
</g>
</g>
<!-- Node2&#45;&gt;Node17 -->
<g id="edge32" class="edge">
<title>Node2&#45;&gt;Node17</title>
<path fill="none" stroke="#191970" d="M1330.0274,-517.1543C1395.8901,-475.8612 1499.3128,-398.7316 1542.5,-300 1552.6525,-276.79 1558.4109,-262.7135 1542.5,-243 1475.1216,-159.5186 1161.4832,-123.5632 997.3073,-110.2458"/>
<polygon fill="#191970" stroke="#191970" points="1328.0537,-514.2596 1321.3921,-522.4982 1331.7374,-520.212 1328.0537,-514.2596"/>
</g>
<!-- Node2&#45;&gt;Node20 -->
<g id="edge33" class="edge">
<title>Node2&#45;&gt;Node20</title>
<path fill="none" stroke="#191970" d="M1296.5551,-513.9847C1317.6548,-482.5664 1348.058,-435.6892 1371.5,-393 1390.0046,-359.302 1408.3346,-318.5693 1419.0279,-293.8688"/>
<polygon fill="#191970" stroke="#191970" points="1293.5555,-512.1727 1290.8641,-522.42 1299.3584,-516.0877 1293.5555,-512.1727"/>
</g>
<!-- Node21 -->
<g id="node21" class="node">
<title>Node21</title>
<g id="a_node21"><a xlink:href="../../d3/de1/SvtxVertexEval_8cc.html" target="_top" xlink:title="fun4all_coresoftware\l/blob/master/simulation\l/g4simulation/g4eval/SvtxVertex\lEval.cc">
<polygon fill="none" stroke="#000000" points="1180.5,-336.5 1180.5,-392.5 1362.5,-392.5 1362.5,-336.5 1180.5,-336.5"/>
<text text-anchor="start" x="1188.5" y="-379.5" font-family="FreeSans" font-size="10.00" fill="#000000">fun4all_coresoftware</text>
<text text-anchor="start" x="1188.5" y="-367.5" font-family="FreeSans" font-size="10.00" fill="#000000">/blob/master/simulation</text>
<text text-anchor="start" x="1188.5" y="-355.5" font-family="FreeSans" font-size="10.00" fill="#000000">/g4simulation/g4eval/SvtxVertex</text>
<text text-anchor="middle" x="1271.5" y="-343.5" font-family="FreeSans" font-size="10.00" fill="#000000">Eval.cc</text>
</a>
</g>
</g>
<!-- Node2&#45;&gt;Node21 -->
<g id="edge35" class="edge">
<title>Node2&#45;&gt;Node21</title>
<path fill="none" stroke="#191970" d="M1271.5,-512.2456C1271.5,-476.7063 1271.5,-424.6045 1271.5,-392.7099"/>
<polygon fill="#191970" stroke="#191970" points="1268.0001,-512.2506 1271.5,-522.2506 1275.0001,-512.2506 1268.0001,-512.2506"/>
</g>
<!-- Node2&#45;&gt;Node22 -->
<g id="edge34" class="edge">
<title>Node2&#45;&gt;Node22</title>
<path fill="none" stroke="#191970" d="M1363.5394,-519.1459C1395.3928,-508.2948 1430.8724,-496.2083 1461.9182,-485.6323"/>
<polygon fill="#191970" stroke="#191970" points="1362.1164,-515.9331 1353.7792,-522.4708 1364.3737,-522.5592 1362.1164,-515.9331"/>
</g>
<!-- Node7 -->
<g id="node7" class="node">
<title>Node7</title>
<g id="a_node7"><a xlink:href="../../d3/d59/SvtxEvalStack_8h.html" target="_top" xlink:title="fun4all_coresoftware\l/blob/master/simulation\l/g4simulation/g4eval/SvtxEvalStack.h">
<polygon fill="none" stroke="#000000" points="855.5,-342.5 855.5,-386.5 1063.5,-386.5 1063.5,-342.5 855.5,-342.5"/>
<text text-anchor="start" x="863.5" y="-373.5" font-family="FreeSans" font-size="10.00" fill="#000000">fun4all_coresoftware</text>
<text text-anchor="start" x="863.5" y="-361.5" font-family="FreeSans" font-size="10.00" fill="#000000">/blob/master/simulation</text>
<text text-anchor="middle" x="959.5" y="-349.5" font-family="FreeSans" font-size="10.00" fill="#000000">/g4simulation/g4eval/SvtxEvalStack.h</text>
</a>
</g>
</g>
<!-- Node6&#45;&gt;Node7 -->
<g id="edge6" class="edge">
<title>Node6&#45;&gt;Node7</title>
<path fill="none" stroke="#191970" d="M1085.1432,-425.0431C1058.7449,-412.3227 1029.1358,-398.0551 1005.2942,-386.5666"/>
<polygon fill="#191970" stroke="#191970" points="1083.8039,-428.2828 1094.3319,-429.4708 1086.8426,-421.9768 1083.8039,-428.2828"/>
</g>
<!-- Node6&#45;&gt;Node20 -->
<g id="edge30" class="edge">
<title>Node6&#45;&gt;Node20</title>
<path fill="none" stroke="#191970" d="M1148.2659,-419.3228C1147.509,-392.7369 1151.2288,-358.2002 1171.5,-336 1172.2476,-335.1813 1265.399,-311.9322 1339.329,-293.5804"/>
<polygon fill="#191970" stroke="#191970" points="1144.7769,-419.6311 1148.7756,-429.4423 1151.768,-419.2789 1144.7769,-419.6311"/>
</g>
<!-- Node6&#45;&gt;Node21 -->
<g id="edge31" class="edge">
<title>Node6&#45;&gt;Node21</title>
<path fill="none" stroke="#191970" d="M1196.7655,-422.9059C1209.565,-412.903 1223.3729,-402.1119 1235.5956,-392.5597"/>
<polygon fill="#191970" stroke="#191970" points="1194.2509,-420.4291 1188.5269,-429.3446 1198.5613,-425.9445 1194.2509,-420.4291"/>
</g>
<!-- Node7&#45;&gt;Node3 -->
<g id="edge7" class="edge">
<title>Node7&#45;&gt;Node3</title>
<path fill="none" stroke="#191970" d="M845.3383,-356.5247C709.4566,-346.3844 475.8572,-326.9055 276.5,-300 261.2178,-297.9375 245.1747,-295.477 229.3716,-292.8782"/>
<polygon fill="#191970" stroke="#191970" points="845.1223,-360.0182 855.354,-357.2684 845.6407,-353.0375 845.1223,-360.0182"/>
</g>
<!-- Node7&#45;&gt;Node4 -->
<g id="edge10" class="edge">
<title>Node7&#45;&gt;Node4</title>
<path fill="none" stroke="#191970" d="M845.2299,-356.6225C742.1864,-347.703 599.7882,-330.309 552.5,-300 526.8664,-283.5704 538.7953,-261.3507 514.5,-243 493.1806,-226.8971 467.2728,-215.1368 441.7704,-206.5804"/>
<polygon fill="#191970" stroke="#191970" points="845.1275,-360.1263 855.388,-357.4855 845.7202,-353.1514 845.1275,-360.1263"/>
</g>
<!-- Node7&#45;&gt;Node5 -->
<g id="edge11" class="edge">
<title>Node7&#45;&gt;Node5</title>
<path fill="none" stroke="#191970" d="M844.9676,-350.2764C755.9207,-338.5992 629.4578,-320.6611 519.5,-300 509.1881,-298.0624 498.4339,-295.8626 487.7565,-293.5647"/>
<polygon fill="#191970" stroke="#191970" points="844.7242,-353.7743 855.0932,-351.5984 845.6305,-346.8332 844.7242,-353.7743"/>
</g>
<!-- Node8 -->
<g id="node8" class="node">
<title>Node8</title>
<g id="a_node8"><a xlink:href="../../d4/d03/QAG4SimulationTracking_8h.html" target="_top" xlink:title="fun4all_coresoftware\l/blob/master/offline\l/QA/modules/QAG4SimulationTracking.h">
<polygon fill="none" stroke="#000000" points="561.5,-249.5 561.5,-293.5 781.5,-293.5 781.5,-249.5 561.5,-249.5"/>
<text text-anchor="start" x="569.5" y="-280.5" font-family="FreeSans" font-size="10.00" fill="#000000">fun4all_coresoftware</text>
<text text-anchor="start" x="569.5" y="-268.5" font-family="FreeSans" font-size="10.00" fill="#000000">/blob/master/offline</text>
<text text-anchor="middle" x="671.5" y="-256.5" font-family="FreeSans" font-size="10.00" fill="#000000">/QA/modules/QAG4SimulationTracking.h</text>
</a>
</g>
</g>
<!-- Node7&#45;&gt;Node8 -->
<g id="edge8" class="edge">
<title>Node7&#45;&gt;Node8</title>
<path fill="none" stroke="#191970" d="M881.6763,-339.3694C837.3684,-325.0617 782.3784,-307.3045 739.7605,-293.5425"/>
<polygon fill="#191970" stroke="#191970" points="880.6563,-342.718 891.248,-342.4603 882.8074,-336.0567 880.6563,-342.718"/>
</g>
<!-- Node9 -->
<g id="node9" class="node">
<title>Node9</title>
<g id="a_node9"><a xlink:href="../../de/d49/JetTruthEval_8h.html" target="_top" xlink:title="fun4all_coresoftware\l/blob/master/simulation\l/g4simulation/g4eval/JetTruthEval.h">
<polygon fill="none" stroke="#000000" points="800,-249.5 800,-293.5 997,-293.5 997,-249.5 800,-249.5"/>
<text text-anchor="start" x="808" y="-280.5" font-family="FreeSans" font-size="10.00" fill="#000000">fun4all_coresoftware</text>
<text text-anchor="start" x="808" y="-268.5" font-family="FreeSans" font-size="10.00" fill="#000000">/blob/master/simulation</text>
<text text-anchor="middle" x="898.5" y="-256.5" font-family="FreeSans" font-size="10.00" fill="#000000">/g4simulation/g4eval/JetTruthEval.h</text>
</a>
</g>
</g>
<!-- Node7&#45;&gt;Node9 -->
<g id="edge12" class="edge">
<title>Node7&#45;&gt;Node9</title>
<path fill="none" stroke="#191970" d="M939.337,-333.7597C930.7509,-320.6694 920.9252,-305.6892 913.0638,-293.7038"/>
<polygon fill="#191970" stroke="#191970" points="936.6326,-336.0181 945.0439,-342.4603 942.4858,-332.1789 936.6326,-336.0181"/>
</g>
<!-- Node15 -->
<g id="node15" class="node">
<title>Node15</title>
<g id="a_node15"><a xlink:href="../../d0/d67/AnaTutorial_8cc.html" target="_top" xlink:title="fun4all_tutorials/blob\l/master/AnaTutorial/src\l/AnaTutorial.cc">
<polygon fill="none" stroke="#000000" points="958.5,-.5 958.5,-44.5 1092.5,-44.5 1092.5,-.5 958.5,-.5"/>
<text text-anchor="start" x="966.5" y="-31.5" font-family="FreeSans" font-size="10.00" fill="#000000">fun4all_tutorials/blob</text>
<text text-anchor="start" x="966.5" y="-19.5" font-family="FreeSans" font-size="10.00" fill="#000000">/master/AnaTutorial/src</text>
<text text-anchor="middle" x="1025.5" y="-7.5" font-family="FreeSans" font-size="10.00" fill="#000000">/AnaTutorial.cc</text>
</a>
</g>
</g>
<!-- Node7&#45;&gt;Node15 -->
<g id="edge29" class="edge">
<title>Node7&#45;&gt;Node15</title>
<path fill="none" stroke="#191970" d="M986.2454,-334.2339C993.792,-324.0276 1001.1303,-312.1313 1005.5,-300 1037.9922,-209.7938 1032.1207,-92.6362 1027.8439,-44.5576"/>
<polygon fill="#191970" stroke="#191970" points="983.2894,-332.3338 979.9178,-342.3778 988.8171,-336.6286 983.2894,-332.3338"/>
</g>
<!-- Node7&#45;&gt;Node17 -->
<g id="edge26" class="edge">
<title>Node7&#45;&gt;Node17</title>
<path fill="none" stroke="#191970" d="M986.8842,-334.1328C994.3854,-323.9909 1001.5368,-312.1572 1005.5,-300 1024.5104,-241.6855 1038.0876,-214.5756 1006.5,-162 996.9201,-146.0548 981.3627,-134.2208 964.9252,-125.5353"/>
<polygon fill="#191970" stroke="#191970" points="983.9614,-332.189 980.5633,-342.2241 989.4777,-336.4984 983.9614,-332.189"/>
</g>
<!-- Node19 -->
<g id="node19" class="node">
<title>Node19</title>
<g id="a_node19"><a xlink:href="../../d7/ded/SvtxEvalStack_8cc.html" target="_top" xlink:title="fun4all_coresoftware\l/blob/master/simulation\l/g4simulation/g4eval/SvtxEvalStack.cc">
<polygon fill="none" stroke="#000000" points="1092,-249.5 1092,-293.5 1305,-293.5 1305,-249.5 1092,-249.5"/>
<text text-anchor="start" x="1100" y="-280.5" font-family="FreeSans" font-size="10.00" fill="#000000">fun4all_coresoftware</text>
<text text-anchor="start" x="1100" y="-268.5" font-family="FreeSans" font-size="10.00" fill="#000000">/blob/master/simulation</text>
<text text-anchor="middle" x="1198.5" y="-256.5" font-family="FreeSans" font-size="10.00" fill="#000000">/g4simulation/g4eval/SvtxEvalStack.cc</text>
</a>
</g>
</g>
<!-- Node7&#45;&gt;Node19 -->
<g id="edge27" class="edge">
<title>Node7&#45;&gt;Node19</title>
<path fill="none" stroke="#191970" d="M1025.7073,-338.7373C1062.1894,-324.5414 1107.0053,-307.1025 1141.8532,-293.5425"/>
<polygon fill="#191970" stroke="#191970" points="1024.1897,-335.5721 1016.1397,-342.4603 1026.7282,-342.0957 1024.1897,-335.5721"/>
</g>
<!-- Node7&#45;&gt;Node20 -->
<g id="edge28" class="edge">
<title>Node7&#45;&gt;Node20</title>
<path fill="none" stroke="#191970" d="M1073.7234,-345.5598C1143.2521,-333.5666 1233.7467,-317.1305 1313.5,-300 1322.7509,-298.013 1332.3903,-295.8198 1341.9799,-293.5588"/>
<polygon fill="#191970" stroke="#191970" points="1072.8833,-342.1528 1063.621,-347.2966 1074.0694,-349.0515 1072.8833,-342.1528"/>
</g>
<!-- Node8&#45;&gt;Node4 -->
<g id="edge9" class="edge">
<title>Node8&#45;&gt;Node4</title>
<path fill="none" stroke="#191970" d="M575.7661,-246.9311C526.2802,-234.2312 466.3725,-218.8567 418.3906,-206.5427"/>
<polygon fill="#191970" stroke="#191970" points="574.9616,-250.338 585.5177,-249.4338 576.7017,-243.5577 574.9616,-250.338"/>
</g>
<!-- Node10 -->
<g id="node10" class="node">
<title>Node10</title>
<g id="a_node10"><a xlink:href="../../d3/d23/QAG4SimulationJet_8cc.html" target="_top" xlink:title="fun4all_coresoftware\l/blob/master/offline\l/QA/modules/QAG4SimulationJet.cc">
<polygon fill="none" stroke="#000000" points="154.5,-.5 154.5,-44.5 350.5,-44.5 350.5,-.5 154.5,-.5"/>
<text text-anchor="start" x="162.5" y="-31.5" font-family="FreeSans" font-size="10.00" fill="#000000">fun4all_coresoftware</text>
<text text-anchor="start" x="162.5" y="-19.5" font-family="FreeSans" font-size="10.00" fill="#000000">/blob/master/offline</text>
<text text-anchor="middle" x="252.5" y="-7.5" font-family="FreeSans" font-size="10.00" fill="#000000">/QA/modules/QAG4SimulationJet.cc</text>
</a>
</g>
</g>
<!-- Node9&#45;&gt;Node10 -->
<g id="edge13" class="edge">
<title>Node9&#45;&gt;Node10</title>
<path fill="none" stroke="#191970" d="M809.3979,-247.1062C803.0222,-245.6319 796.6752,-244.2444 790.5,-243 677.867,-220.302 642.0508,-247.4253 534.5,-207 507.2887,-196.772 352.3549,-91.2187 284.4193,-44.5199"/>
<polygon fill="#191970" stroke="#191970" points="808.882,-250.5809 819.4201,-249.4861 810.4994,-243.7703 808.882,-250.5809"/>
</g>
<!-- Node11 -->
<g id="node11" class="node">
<title>Node11</title>
<g id="a_node11"><a xlink:href="../../da/d50/JetRecoEval_8h.html" target="_top" xlink:title="fun4all_coresoftware\l/blob/master/simulation\l/g4simulation/g4eval/JetRecoEval.h">
<polygon fill="none" stroke="#000000" points="543.5,-162.5 543.5,-206.5 739.5,-206.5 739.5,-162.5 543.5,-162.5"/>
<text text-anchor="start" x="551.5" y="-193.5" font-family="FreeSans" font-size="10.00" fill="#000000">fun4all_coresoftware</text>
<text text-anchor="start" x="551.5" y="-181.5" font-family="FreeSans" font-size="10.00" fill="#000000">/blob/master/simulation</text>
<text text-anchor="middle" x="641.5" y="-169.5" font-family="FreeSans" font-size="10.00" fill="#000000">/g4simulation/g4eval/JetRecoEval.h</text>
</a>
</g>
</g>
<!-- Node9&#45;&gt;Node11 -->
<g id="edge14" class="edge">
<title>Node9&#45;&gt;Node11</title>
<path fill="none" stroke="#191970" d="M823.5681,-246.134C786.5186,-233.5919 742.2326,-218.6001 706.6147,-206.5427"/>
<polygon fill="#191970" stroke="#191970" points="822.7215,-249.5424 833.3158,-249.4338 824.9661,-242.912 822.7215,-249.5424"/>
</g>
<!-- Node9&#45;&gt;Node17 -->
<g id="edge24" class="edge">
<title>Node9&#45;&gt;Node17</title>
<path fill="none" stroke="#191970" d="M826.0389,-244.4909C810.3005,-235.0975 795.6435,-222.8171 786.5,-207 776.4905,-189.685 776.2,-179.1438 786.5,-162 796.0799,-146.0548 811.6373,-134.2208 828.0748,-125.5353"/>
<polygon fill="#191970" stroke="#191970" points="824.4276,-247.5998 834.8655,-249.4166 827.8388,-241.4872 824.4276,-247.5998"/>
</g>
<!-- Node18 -->
<g id="node18" class="node">
<title>Node18</title>
<g id="a_node18"><a xlink:href="../../da/dbb/JetTruthEval_8cc.html" target="_top" xlink:title="fun4all_coresoftware\l/blob/master/simulation\l/g4simulation/g4eval/JetTruthEval.cc">
<polygon fill="none" stroke="#000000" points="795.5,-162.5 795.5,-206.5 997.5,-206.5 997.5,-162.5 795.5,-162.5"/>
<text text-anchor="start" x="803.5" y="-193.5" font-family="FreeSans" font-size="10.00" fill="#000000">fun4all_coresoftware</text>
<text text-anchor="start" x="803.5" y="-181.5" font-family="FreeSans" font-size="10.00" fill="#000000">/blob/master/simulation</text>
<text text-anchor="middle" x="896.5" y="-169.5" font-family="FreeSans" font-size="10.00" fill="#000000">/g4simulation/g4eval/JetTruthEval.cc</text>
</a>
</g>
</g>
<!-- Node9&#45;&gt;Node18 -->
<g id="edge25" class="edge">
<title>Node9&#45;&gt;Node18</title>
<path fill="none" stroke="#191970" d="M897.7549,-239.0893C897.5054,-228.2369 897.2333,-216.3979 897.0064,-206.5276"/>
<polygon fill="#191970" stroke="#191970" points="894.256,-239.1785 897.985,-249.0953 901.2541,-239.0175 894.256,-239.1785"/>
</g>
<!-- Node11&#45;&gt;Node10 -->
<g id="edge15" class="edge">
<title>Node11&#45;&gt;Node10</title>
<path fill="none" stroke="#191970" d="M582.3909,-157.8389C564.9687,-148.8144 546.342,-137.9578 530.5,-126 508.4209,-109.3343 511.4228,-94.8901 487.5,-81 475.1151,-73.8091 409.346,-57.7015 350.526,-44.2056"/>
<polygon fill="#191970" stroke="#191970" points="580.8682,-160.9909 591.3707,-162.3872 584.0312,-154.7463 580.8682,-160.9909"/>
</g>
<!-- Node12 -->
<g id="node12" class="node">
<title>Node12</title>
<g id="a_node12"><a xlink:href="../../db/de2/JetEvalStack_8h.html" target="_top" xlink:title="fun4all_coresoftware\l/blob/master/simulation\l/g4simulation/g4eval/JetEvalStack.h">
<polygon fill="none" stroke="#000000" points="540,-81.5 540,-125.5 739,-125.5 739,-81.5 540,-81.5"/>
<text text-anchor="start" x="548" y="-112.5" font-family="FreeSans" font-size="10.00" fill="#000000">fun4all_coresoftware</text>
<text text-anchor="start" x="548" y="-100.5" font-family="FreeSans" font-size="10.00" fill="#000000">/blob/master/simulation</text>
<text text-anchor="middle" x="639.5" y="-88.5" font-family="FreeSans" font-size="10.00" fill="#000000">/g4simulation/g4eval/JetEvalStack.h</text>
</a>
</g>
</g>
<!-- Node11&#45;&gt;Node12 -->
<g id="edge16" class="edge">
<title>Node11&#45;&gt;Node12</title>
<path fill="none" stroke="#191970" d="M640.7036,-152.2457C640.483,-143.3118 640.2486,-133.8188 640.0458,-125.6068"/>
<polygon fill="#191970" stroke="#191970" points="637.2076,-152.4559 640.9535,-162.3664 644.2055,-152.283 637.2076,-152.4559"/>
</g>
<!-- Node14 -->
<g id="node14" class="node">
<title>Node14</title>
<g id="a_node14"><a xlink:href="../../dd/db5/JetEvaluator_8cc.html" target="_top" xlink:title="fun4all_coresoftware\l/blob/master/simulation\l/g4simulation/g4eval/JetEvaluator.cc">
<polygon fill="none" stroke="#000000" points="738.5,-.5 738.5,-44.5 940.5,-44.5 940.5,-.5 738.5,-.5"/>
<text text-anchor="start" x="746.5" y="-31.5" font-family="FreeSans" font-size="10.00" fill="#000000">fun4all_coresoftware</text>
<text text-anchor="start" x="746.5" y="-19.5" font-family="FreeSans" font-size="10.00" fill="#000000">/blob/master/simulation</text>
<text text-anchor="middle" x="839.5" y="-7.5" font-family="FreeSans" font-size="10.00" fill="#000000">/g4simulation/g4eval/JetEvaluator.cc</text>
</a>
</g>
</g>
<!-- Node11&#45;&gt;Node14 -->
<g id="edge22" class="edge">
<title>Node11&#45;&gt;Node14</title>
<path fill="none" stroke="#191970" d="M698.7064,-157.7051C715.2207,-148.7336 732.7503,-137.9396 747.5,-126 768.0709,-109.3482 768.9475,-100.808 786.5,-81 797.225,-68.8968 809.3235,-55.5221 819.2506,-44.6196"/>
<polygon fill="#191970" stroke="#191970" points="696.8584,-154.7232 689.6603,-162.4974 700.1353,-160.9088 696.8584,-154.7232"/>
</g>
<!-- Node11&#45;&gt;Node17 -->
<g id="edge23" class="edge">
<title>Node11&#45;&gt;Node17</title>
<path fill="none" stroke="#191970" d="M720.7626,-159.3225C754.8297,-148.5012 794.286,-135.968 827.1708,-125.5222"/>
<polygon fill="#191970" stroke="#191970" points="719.3142,-156.1102 710.843,-162.4734 721.4334,-162.7817 719.3142,-156.1102"/>
</g>
<!-- Node12&#45;&gt;Node10 -->
<g id="edge17" class="edge">
<title>Node12&#45;&gt;Node10</title>
<path fill="none" stroke="#191970" d="M529.8567,-80.6267C478.1732,-69.8359 415.6639,-56.7722 359.5,-45 356.6203,-44.3964 353.697,-43.7834 350.746,-43.1644"/>
<polygon fill="#191970" stroke="#191970" points="529.2058,-84.0662 539.7101,-82.6838 530.6364,-77.2139 529.2058,-84.0662"/>
</g>
<!-- Node13 -->
<g id="node13" class="node">
<title>Node13</title>
<g id="a_node13"><a xlink:href="../../d5/dab/JetEvalStack_8cc.html" target="_top" xlink:title="fun4all_coresoftware\l/blob/master/simulation\l/g4simulation/g4eval/JetEvalStack.cc">
<polygon fill="none" stroke="#000000" points="368.5,-.5 368.5,-44.5 572.5,-44.5 572.5,-.5 368.5,-.5"/>
<text text-anchor="start" x="376.5" y="-31.5" font-family="FreeSans" font-size="10.00" fill="#000000">fun4all_coresoftware</text>
<text text-anchor="start" x="376.5" y="-19.5" font-family="FreeSans" font-size="10.00" fill="#000000">/blob/master/simulation</text>
<text text-anchor="middle" x="470.5" y="-7.5" font-family="FreeSans" font-size="10.00" fill="#000000">/g4simulation/g4eval/JetEvalStack.cc</text>
</a>
</g>
</g>
<!-- Node12&#45;&gt;Node13 -->
<g id="edge18" class="edge">
<title>Node12&#45;&gt;Node13</title>
<path fill="none" stroke="#191970" d="M584.1558,-76.9741C562.3018,-66.4997 537.4825,-54.604 516.6242,-44.6068"/>
<polygon fill="#191970" stroke="#191970" points="582.7895,-80.2004 593.32,-81.3664 585.815,-73.888 582.7895,-80.2004"/>
</g>
<!-- Node12&#45;&gt;Node14 -->
<g id="edge19" class="edge">
<title>Node12&#45;&gt;Node14</title>
<path fill="none" stroke="#191970" d="M703.3926,-77.6235C729.7118,-66.9642 759.8856,-54.7438 785.1241,-44.5222"/>
<polygon fill="#191970" stroke="#191970" points="701.8415,-74.4755 693.8867,-81.4734 704.4693,-80.9635 701.8415,-74.4755"/>
</g>
<!-- Node12&#45;&gt;Node15 -->
<g id="edge20" class="edge">
<title>Node12&#45;&gt;Node15</title>
<path fill="none" stroke="#191970" d="M749.3475,-85.5652C808.8903,-75.1431 883.5745,-60.9357 949.5,-45 952.4426,-44.2887 955.4407,-43.5335 958.463,-42.7472"/>
<polygon fill="#191970" stroke="#191970" points="748.4225,-82.1735 739.1703,-87.3356 749.6222,-89.0699 748.4225,-82.1735"/>
</g>
<!-- Node16 -->
<g id="node16" class="node">
<title>Node16</title>
<g id="a_node16"><a xlink:href="../../da/dc2/MyJetAnalysis_8cc.html" target="_top" xlink:title="fun4all_tutorials/blob\l/master/myjetanalysis\l/src/MyJetAnalysis.cc">
<polygon fill="none" stroke="#000000" points="591,-.5 591,-44.5 720,-44.5 720,-.5 591,-.5"/>
<text text-anchor="start" x="599" y="-31.5" font-family="FreeSans" font-size="10.00" fill="#000000">fun4all_tutorials/blob</text>
<text text-anchor="start" x="599" y="-19.5" font-family="FreeSans" font-size="10.00" fill="#000000">/master/myjetanalysis</text>
<text text-anchor="middle" x="655.5" y="-7.5" font-family="FreeSans" font-size="10.00" fill="#000000">/src/MyJetAnalysis.cc</text>
</a>
</g>
</g>
<!-- Node12&#45;&gt;Node16 -->
<g id="edge21" class="edge">
<title>Node12&#45;&gt;Node16</title>
<path fill="none" stroke="#191970" d="M645.8137,-71.5369C647.5952,-62.5183 649.4935,-52.9081 651.1332,-44.6068"/>
<polygon fill="#191970" stroke="#191970" points="642.3764,-70.8777 643.8721,-81.3664 649.2437,-72.2342 642.3764,-70.8777"/>
</g>
</g>
</svg>
