<?xml version="1.0" encoding="UTF-8" standalone="no"?>
<!DOCTYPE svg PUBLIC "-//W3C//DTD SVG 1.1//EN"
 "http://www.w3.org/Graphics/SVG/1.1/DTD/svg11.dtd">
<!-- Generated by graphviz version 2.40.1 (20161225.0304)
 -->
<!-- Title: fun4all_macros/blob/master/macros/g4simulations/G4_HcalIn_ref.C Pages: 1 -->
<svg width="2178pt" height="419pt"
 viewBox="0.00 0.00 2177.59 419.00" xmlns="http://www.w3.org/2000/svg" xmlns:xlink="http://www.w3.org/1999/xlink">
<g id="graph0" class="graph" transform="scale(1 1) rotate(0) translate(4 415)">
<title>fun4all_macros/blob/master/macros/g4simulations/G4_HcalIn_ref.C</title>
<!-- Node1 -->
<g id="node1" class="node">
<title>Node1</title>
<polygon fill="#bfbfbf" stroke="#000000" points="845.0877,-366.5 845.0877,-410.5 1016.0877,-410.5 1016.0877,-366.5 845.0877,-366.5"/>
<text text-anchor="start" x="853.0877" y="-397.5" font-family="FreeSans" font-size="10.00" fill="#000000">fun4all_macros/blob</text>
<text text-anchor="start" x="853.0877" y="-385.5" font-family="FreeSans" font-size="10.00" fill="#000000">/master/macros/g4simulations</text>
<text text-anchor="middle" x="930.5877" y="-373.5" font-family="FreeSans" font-size="10.00" fill="#000000">/G4_HcalIn_ref.C</text>
</g>
<!-- Node2 -->
<g id="node2" class="node">
<title>Node2</title>
<g id="a_node2"><a xlink:href="../../df/d4b/fun4all__macros_2blob_2master_2macros_2g4simulations_2GlobalVariables_8C.html" target="_top" xlink:title="GlobalVariables.C">
<polygon fill="none" stroke="#000000" points="592.0877,-303.5 592.0877,-323.5 697.0877,-323.5 697.0877,-303.5 592.0877,-303.5"/>
<text text-anchor="middle" x="644.5877" y="-310.5" font-family="FreeSans" font-size="10.00" fill="#000000">GlobalVariables.C</text>
</a>
</g>
</g>
<!-- Node1&#45;&gt;Node2 -->
<g id="edge1" class="edge">
<title>Node1&#45;&gt;Node2</title>
<path fill="none" stroke="#191970" d="M846.3251,-366.4032C796.2913,-353.2824 734.6459,-337.1167 692.761,-326.1329"/>
<polygon fill="#191970" stroke="#191970" points="693.6454,-322.7465 683.0846,-323.5954 691.8697,-329.5176 693.6454,-322.7465"/>
</g>
<!-- Node3 -->
<g id="node3" class="node">
<title>Node3</title>
<g id="a_node3"><a xlink:href="../../d5/df9/HcalRawTowerBuilder_8h.html" target="_top" xlink:title="g4calo/HcalRawTowerBuilder.h">
<polygon fill="none" stroke="#000000" points="178.5877,-177.5 178.5877,-197.5 348.5877,-197.5 348.5877,-177.5 178.5877,-177.5"/>
<text text-anchor="middle" x="263.5877" y="-184.5" font-family="FreeSans" font-size="10.00" fill="#000000">g4calo/HcalRawTowerBuilder.h</text>
</a>
</g>
</g>
<!-- Node1&#45;&gt;Node3 -->
<g id="edge2" class="edge">
<title>Node1&#45;&gt;Node3</title>
<path fill="none" stroke="#191970" d="M886.2661,-366.4831C867.7193,-356.4209 846.3842,-343.6942 828.5877,-330 784.004,-295.6935 790.4252,-264.0871 739.5877,-240 662.5341,-203.4915 442.0899,-215.3797 357.5877,-204 347.6121,-202.6566 337.0775,-201.0216 326.8111,-199.3091"/>
<polygon fill="#191970" stroke="#191970" points="327.1107,-195.8097 316.6646,-197.5787 325.9338,-202.7101 327.1107,-195.8097"/>
</g>
<!-- Node9 -->
<g id="node9" class="node">
<title>Node9</title>
<g id="a_node9"><a xlink:href="../../d7/d2f/RawTowerDigitizer_8h.html" target="_top" xlink:title="g4calo/RawTowerDigitizer.h">
<polygon fill="none" stroke="#000000" points="531.5877,-177.5 531.5877,-197.5 685.5877,-197.5 685.5877,-177.5 531.5877,-177.5"/>
<text text-anchor="middle" x="608.5877" y="-184.5" font-family="FreeSans" font-size="10.00" fill="#000000">g4calo/RawTowerDigitizer.h</text>
</a>
</g>
</g>
<!-- Node1&#45;&gt;Node9 -->
<g id="edge10" class="edge">
<title>Node1&#45;&gt;Node9</title>
<path fill="none" stroke="#191970" d="M912.5767,-366.4006C903.7607,-355.5029 893.0367,-342.1264 883.5877,-330 852.7733,-290.4543 857.3551,-267.7284 815.5877,-240 780.2864,-216.5643 735.2487,-203.5902 696.2036,-196.4076"/>
<polygon fill="#191970" stroke="#191970" points="696.3422,-192.8794 685.891,-194.6175 695.145,-199.7763 696.3422,-192.8794"/>
</g>
<!-- Node11 -->
<g id="node11" class="node">
<title>Node11</title>
<g id="a_node11"><a xlink:href="../../dc/dc6/PHG4CylinderSubsystem_8h.html" target="_top" xlink:title="g4detectors/PHG4Cylinder\lSubsystem.h">
<polygon fill="none" stroke="#000000" points="1080.0877,-297.5 1080.0877,-329.5 1231.0877,-329.5 1231.0877,-297.5 1080.0877,-297.5"/>
<text text-anchor="start" x="1088.0877" y="-316.5" font-family="FreeSans" font-size="10.00" fill="#000000">g4detectors/PHG4Cylinder</text>
<text text-anchor="middle" x="1155.5877" y="-304.5" font-family="FreeSans" font-size="10.00" fill="#000000">Subsystem.h</text>
</a>
</g>
</g>
<!-- Node1&#45;&gt;Node11 -->
<g id="edge14" class="edge">
<title>Node1&#45;&gt;Node11</title>
<path fill="none" stroke="#191970" d="M996.8782,-366.4032C1028.8106,-355.759 1066.755,-343.1109 1097.5343,-332.8511"/>
<polygon fill="#191970" stroke="#191970" points="1098.8791,-336.0923 1107.2591,-329.6095 1096.6654,-329.4515 1098.8791,-336.0923"/>
</g>
<!-- Node18 -->
<g id="node18" class="node">
<title>Node18</title>
<g id="a_node18"><a xlink:href="../../da/d2c/PHG4HcalCellReco_8h.html" target="_top" xlink:title="g4detectors/PHG4HcalCell\lReco.h">
<polygon fill="none" stroke="#000000" points="11.0877,-171.5 11.0877,-203.5 160.0877,-203.5 160.0877,-171.5 11.0877,-171.5"/>
<text text-anchor="start" x="19.0877" y="-190.5" font-family="FreeSans" font-size="10.00" fill="#000000">g4detectors/PHG4HcalCell</text>
<text text-anchor="middle" x="85.5877" y="-178.5" font-family="FreeSans" font-size="10.00" fill="#000000">Reco.h</text>
</a>
</g>
</g>
<!-- Node1&#45;&gt;Node18 -->
<g id="edge25" class="edge">
<title>Node1&#45;&gt;Node18</title>
<path fill="none" stroke="#191970" d="M879.6886,-366.3139C824.3617,-342.4657 739.3357,-306.6685 705.5877,-297 476.3346,-231.3208 409.1682,-247.5061 170.2609,-204.0904"/>
<polygon fill="#191970" stroke="#191970" points="170.6936,-200.6114 160.2263,-202.2503 169.431,-207.4966 170.6936,-200.6114"/>
</g>
<!-- Node19 -->
<g id="node19" class="node">
<title>Node19</title>
<g id="a_node19"><a xlink:href="../../d8/d7f/PHG4InnerHcalSubsystem_8h.html" target="_top" xlink:title="g4detectors/PHG4InnerHcal\lSubsystem.h">
<polygon fill="none" stroke="#000000" points="905.5877,-297.5 905.5877,-329.5 1061.5877,-329.5 1061.5877,-297.5 905.5877,-297.5"/>
<text text-anchor="start" x="913.5877" y="-316.5" font-family="FreeSans" font-size="10.00" fill="#000000">g4detectors/PHG4InnerHcal</text>
<text text-anchor="middle" x="983.5877" y="-304.5" font-family="FreeSans" font-size="10.00" fill="#000000">Subsystem.h</text>
</a>
</g>
</g>
<!-- Node1&#45;&gt;Node19 -->
<g id="edge29" class="edge">
<title>Node1&#45;&gt;Node19</title>
<path fill="none" stroke="#191970" d="M946.2028,-366.4032C952.4967,-357.4967 959.7821,-347.1871 966.2407,-338.0477"/>
<polygon fill="#191970" stroke="#191970" points="969.2073,-339.9143 972.1201,-329.7277 963.4906,-335.8745 969.2073,-339.9143"/>
</g>
<!-- Node20 -->
<g id="node20" class="node">
<title>Node20</title>
<g id="a_node20"><a xlink:href="../../d6/dd5/CaloEvaluator_8h.html" target="_top" xlink:title="Compares reconstructed tracks to truth particles.">
<polygon fill="none" stroke="#000000" points="367.0877,-177.5 367.0877,-197.5 500.0877,-197.5 500.0877,-177.5 367.0877,-177.5"/>
<text text-anchor="middle" x="433.5877" y="-184.5" font-family="FreeSans" font-size="10.00" fill="#000000">g4eval/CaloEvaluator.h</text>
</a>
</g>
</g>
<!-- Node1&#45;&gt;Node20 -->
<g id="edge32" class="edge">
<title>Node1&#45;&gt;Node20</title>
<path fill="none" stroke="#191970" d="M901.3385,-366.4237C887.9037,-355.8633 872.011,-342.762 858.5877,-330 819.5865,-292.9202 825.0924,-265.2845 777.5877,-240 676.5507,-186.2228 635.5503,-222.4363 522.5877,-204 513.9109,-202.5839 504.776,-200.9987 495.7976,-199.386"/>
<polygon fill="#191970" stroke="#191970" points="496.2248,-195.9063 485.76,-197.561 494.9726,-202.7934 496.2248,-195.9063"/>
</g>
<!-- Node22 -->
<g id="node22" class="node">
<title>Node22</title>
<g id="a_node22"><a xlink:href="../../d0/d2b/PHG4Reco_8h.html" target="_top" xlink:title="g4main/PHG4Reco.h">
<polygon fill="none" stroke="#000000" points="818.0877,-177.5 818.0877,-197.5 937.0877,-197.5 937.0877,-177.5 818.0877,-177.5"/>
<text text-anchor="middle" x="877.5877" y="-184.5" font-family="FreeSans" font-size="10.00" fill="#000000">g4main/PHG4Reco.h</text>
</a>
</g>
</g>
<!-- Node1&#45;&gt;Node22 -->
<g id="edge36" class="edge">
<title>Node1&#45;&gt;Node22</title>
<path fill="none" stroke="#191970" d="M914.985,-366.4421C908.2641,-355.8856 900.959,-342.7823 896.5877,-330 882.3203,-288.2804 878.6962,-236.2807 877.8202,-208.0563"/>
<polygon fill="#191970" stroke="#191970" points="881.3144,-207.7533 877.594,-197.8332 874.3162,-207.9082 881.3144,-207.7533"/>
</g>
<!-- Node26 -->
<g id="node26" class="node">
<title>Node26</title>
<polygon fill="none" stroke="#bfbfbf" points="1249.5877,-297.5 1249.5877,-329.5 1405.5877,-329.5 1405.5877,-297.5 1249.5877,-297.5"/>
<text text-anchor="start" x="1257.5877" y="-316.5" font-family="FreeSans" font-size="10.00" fill="#000000">caloreco/RawClusterBuilder</text>
<text text-anchor="middle" x="1327.5877" y="-304.5" font-family="FreeSans" font-size="10.00" fill="#000000">Graph.h</text>
</g>
<!-- Node1&#45;&gt;Node26 -->
<g id="edge42" class="edge">
<title>Node1&#45;&gt;Node26</title>
<path fill="none" stroke="#191970" d="M1016.1191,-372.3811C1075.9418,-361.1021 1158.0006,-345.6206 1239.4104,-330.2219"/>
<polygon fill="#191970" stroke="#191970" points="1240.1586,-333.6426 1249.3337,-328.3448 1238.8574,-326.7646 1240.1586,-333.6426"/>
</g>
<!-- Node27 -->
<g id="node27" class="node">
<title>Node27</title>
<polygon fill="none" stroke="#bfbfbf" points="1423.5877,-297.5 1423.5877,-329.5 1579.5877,-329.5 1579.5877,-297.5 1423.5877,-297.5"/>
<text text-anchor="start" x="1431.5877" y="-316.5" font-family="FreeSans" font-size="10.00" fill="#000000">caloreco/RawClusterBuilder</text>
<text text-anchor="middle" x="1501.5877" y="-304.5" font-family="FreeSans" font-size="10.00" fill="#000000">Template.h</text>
</g>
<!-- Node1&#45;&gt;Node27 -->
<g id="edge43" class="edge">
<title>Node1&#45;&gt;Node27</title>
<path fill="none" stroke="#191970" d="M1016.5071,-379.8765C1111.279,-369.9649 1268.4887,-352.3456 1413.4069,-330.1285"/>
<polygon fill="#191970" stroke="#191970" points="1414.0269,-333.5744 1423.3759,-328.5899 1412.959,-326.6563 1414.0269,-333.5744"/>
</g>
<!-- Node28 -->
<g id="node28" class="node">
<title>Node28</title>
<polygon fill="none" stroke="#bfbfbf" points="1598.0877,-303.5 1598.0877,-323.5 1775.0877,-323.5 1775.0877,-303.5 1598.0877,-303.5"/>
<text text-anchor="middle" x="1686.5877" y="-310.5" font-family="FreeSans" font-size="10.00" fill="#000000">caloreco/RawTowerCalibration.h</text>
</g>
<!-- Node1&#45;&gt;Node28 -->
<g id="edge44" class="edge">
<title>Node1&#45;&gt;Node28</title>
<path fill="none" stroke="#191970" d="M1016.2568,-383.0292C1142.046,-374.5106 1383.9757,-356.2798 1588.5877,-330 1599.3313,-328.6201 1610.6993,-326.9247 1621.7394,-325.1515"/>
<polygon fill="#191970" stroke="#191970" points="1622.4572,-328.5806 1631.7587,-323.508 1621.324,-321.6729 1622.4572,-328.5806"/>
</g>
<!-- Node29 -->
<g id="node29" class="node">
<title>Node29</title>
<g id="a_node29"><a xlink:href="../../dc/da2/Fun4AllServer_8h.html" target="_top" xlink:title="fun4all/Fun4AllServer.h">
<polygon fill="none" stroke="#000000" points="1725.0877,-177.5 1725.0877,-197.5 1858.0877,-197.5 1858.0877,-177.5 1725.0877,-177.5"/>
<text text-anchor="middle" x="1791.5877" y="-184.5" font-family="FreeSans" font-size="10.00" fill="#000000">fun4all/Fun4AllServer.h</text>
</a>
</g>
</g>
<!-- Node1&#45;&gt;Node29 -->
<g id="edge45" class="edge">
<title>Node1&#45;&gt;Node29</title>
<path fill="none" stroke="#191970" d="M1016.3615,-385.6698C1227.6305,-378.2937 1757.9537,-357.1534 1784.5877,-330 1816.4098,-297.5574 1806.215,-238.4251 1797.8837,-207.5221"/>
<polygon fill="#191970" stroke="#191970" points="1801.1283,-206.144 1794.9799,-197.5157 1794.4056,-208.095 1801.1283,-206.144"/>
</g>
<!-- Node4 -->
<g id="node4" class="node">
<title>Node4</title>
<g id="a_node4"><a xlink:href="../../d5/dc2/SubsysReco_8h.html" target="_top" xlink:title="fun4all/SubsysReco.h">
<polygon fill="none" stroke="#000000" points="364.5877,-114.5 364.5877,-134.5 488.5877,-134.5 488.5877,-114.5 364.5877,-114.5"/>
<text text-anchor="middle" x="426.5877" y="-121.5" font-family="FreeSans" font-size="10.00" fill="#000000">fun4all/SubsysReco.h</text>
</a>
</g>
</g>
<!-- Node3&#45;&gt;Node4 -->
<g id="edge3" class="edge">
<title>Node3&#45;&gt;Node4</title>
<path fill="none" stroke="#191970" d="M289.7764,-177.378C317.2236,-166.7696 360.5175,-150.0363 391.0393,-138.2396"/>
<polygon fill="#191970" stroke="#191970" points="392.3982,-141.4668 400.4639,-134.5969 389.8745,-134.9375 392.3982,-141.4668"/>
</g>
<!-- Node7 -->
<g id="node7" class="node">
<title>Node7</title>
<polygon fill="none" stroke="#bfbfbf" points="1149.0877,-.5 1149.0877,-20.5 1194.0877,-20.5 1194.0877,-.5 1149.0877,-.5"/>
<text text-anchor="middle" x="1171.5877" y="-7.5" font-family="FreeSans" font-size="10.00" fill="#000000">string</text>
</g>
<!-- Node3&#45;&gt;Node7 -->
<g id="edge9" class="edge">
<title>Node3&#45;&gt;Node7</title>
<path fill="none" stroke="#191970" d="M261.1189,-177.4474C258.0053,-162.2685 254.5099,-133.2333 267.5877,-114 301.693,-63.8418 332.7472,-71.7245 391.5877,-57 536.5485,-20.7244 1009.6674,-12.4472 1138.7806,-10.8442"/>
<polygon fill="#191970" stroke="#191970" points="1138.8816,-14.3434 1148.8391,-10.7244 1138.7981,-7.3439 1138.8816,-14.3434"/>
</g>
<!-- Node8 -->
<g id="node8" class="node">
<title>Node8</title>
<polygon fill="none" stroke="#bfbfbf" points="14.5877,-114.5 14.5877,-134.5 220.5877,-134.5 220.5877,-114.5 14.5877,-114.5"/>
<text text-anchor="middle" x="117.5877" y="-121.5" font-family="FreeSans" font-size="10.00" fill="#000000">phparameter/PHParameterInterface.h</text>
</g>
<!-- Node3&#45;&gt;Node8 -->
<g id="edge8" class="edge">
<title>Node3&#45;&gt;Node8</title>
<path fill="none" stroke="#191970" d="M240.1303,-177.378C215.865,-166.9073 177.772,-150.4699 150.4994,-138.7016"/>
<polygon fill="#191970" stroke="#191970" points="151.5553,-135.3453 140.9869,-134.5969 148.7819,-141.7725 151.5553,-135.3453"/>
</g>
<!-- Node5 -->
<g id="node5" class="node">
<title>Node5</title>
<g id="a_node5"><a xlink:href="../../d2/de7/Fun4AllBase_8h.html" target="_top" xlink:title="Fun4AllBase.h">
<polygon fill="none" stroke="#000000" points="1494.0877,-57.5 1494.0877,-77.5 1581.0877,-77.5 1581.0877,-57.5 1494.0877,-57.5"/>
<text text-anchor="middle" x="1537.5877" y="-64.5" font-family="FreeSans" font-size="10.00" fill="#000000">Fun4AllBase.h</text>
</a>
</g>
</g>
<!-- Node4&#45;&gt;Node5 -->
<g id="edge4" class="edge">
<title>Node4&#45;&gt;Node5</title>
<path fill="none" stroke="#191970" d="M488.8818,-114.92C491.8216,-114.5835 494.7349,-114.274 497.5877,-114 873.9433,-77.8525 1329.6754,-69.7312 1483.7445,-67.9698"/>
<polygon fill="#191970" stroke="#191970" points="1483.9214,-71.4682 1493.8823,-67.8582 1483.8443,-64.4686 1483.9214,-71.4682"/>
</g>
<!-- Node4&#45;&gt;Node7 -->
<g id="edge7" class="edge">
<title>Node4&#45;&gt;Node7</title>
<path fill="none" stroke="#191970" d="M446.8666,-114.4006C478.714,-99.059 542.7958,-70.2672 600.5877,-57 704.2653,-33.199 1033.3361,-16.7078 1138.7564,-11.9278"/>
<polygon fill="#191970" stroke="#191970" points="1138.9752,-15.4216 1148.8083,-11.477 1138.6615,-8.4287 1138.9752,-15.4216"/>
</g>
<!-- Node6 -->
<g id="node6" class="node">
<title>Node6</title>
<polygon fill="none" stroke="#bfbfbf" points="1513.0877,-.5 1513.0877,-20.5 1562.0877,-20.5 1562.0877,-.5 1513.0877,-.5"/>
<text text-anchor="middle" x="1537.5877" y="-7.5" font-family="FreeSans" font-size="10.00" fill="#000000">climits</text>
</g>
<!-- Node5&#45;&gt;Node6 -->
<g id="edge5" class="edge">
<title>Node5&#45;&gt;Node6</title>
<path fill="none" stroke="#191970" d="M1537.5877,-57.3095C1537.5877,-49.9335 1537.5877,-39.72 1537.5877,-30.715"/>
<polygon fill="#191970" stroke="#191970" points="1541.0878,-30.6022 1537.5877,-20.6022 1534.0878,-30.6023 1541.0878,-30.6022"/>
</g>
<!-- Node5&#45;&gt;Node7 -->
<g id="edge6" class="edge">
<title>Node5&#45;&gt;Node7</title>
<path fill="none" stroke="#191970" d="M1493.8031,-60.6811C1419.5719,-49.1205 1270.6547,-25.9285 1204.5272,-15.6299"/>
<polygon fill="#191970" stroke="#191970" points="1204.6997,-12.1147 1194.2802,-14.0341 1203.6224,-19.0313 1204.6997,-12.1147"/>
</g>
<!-- Node9&#45;&gt;Node4 -->
<g id="edge11" class="edge">
<title>Node9&#45;&gt;Node4</title>
<path fill="none" stroke="#191970" d="M579.3462,-177.378C548.4344,-166.6777 499.5209,-149.7461 465.3978,-137.9343"/>
<polygon fill="#191970" stroke="#191970" points="466.3513,-134.5606 455.7566,-134.5969 464.0615,-141.1755 466.3513,-134.5606"/>
</g>
<!-- Node9&#45;&gt;Node7 -->
<g id="edge12" class="edge">
<title>Node9&#45;&gt;Node7</title>
<path fill="none" stroke="#191970" d="M608.9509,-177.4541C610.1017,-161.4676 614.7839,-130.376 633.5877,-114 710.2243,-47.2581 1033.7745,-19.8235 1138.6352,-12.5778"/>
<polygon fill="#191970" stroke="#191970" points="1139.184,-16.0489 1148.9257,-11.8836 1138.7128,-9.0647 1139.184,-16.0489"/>
</g>
<!-- Node10 -->
<g id="node10" class="node">
<title>Node10</title>
<polygon fill="none" stroke="#bfbfbf" points="506.5877,-114.5 506.5877,-134.5 586.5877,-134.5 586.5877,-114.5 506.5877,-114.5"/>
<text text-anchor="middle" x="546.5877" y="-121.5" font-family="FreeSans" font-size="10.00" fill="#000000">gsl/gsl_rng.h</text>
</g>
<!-- Node9&#45;&gt;Node10 -->
<g id="edge13" class="edge">
<title>Node9&#45;&gt;Node10</title>
<path fill="none" stroke="#191970" d="M598.6263,-177.378C589.2814,-167.8823 575.1071,-153.4794 563.9103,-142.102"/>
<polygon fill="#191970" stroke="#191970" points="566.2392,-139.4786 556.7303,-134.8062 561.25,-144.3887 566.2392,-139.4786"/>
</g>
<!-- Node11&#45;&gt;Node7 -->
<g id="edge24" class="edge">
<title>Node11&#45;&gt;Node7</title>
<path fill="none" stroke="#191970" d="M1222.4151,-297.4195C1304.9548,-275.5695 1434.5877,-233.8716 1434.5877,-187.5 1434.5877,-187.5 1434.5877,-187.5 1434.5877,-124.5 1434.5877,-74.9169 1275.2341,-33.4514 1204.6087,-17.5088"/>
<polygon fill="#191970" stroke="#191970" points="1204.988,-14.0078 1194.4671,-15.2577 1203.4711,-20.8415 1204.988,-14.0078"/>
</g>
<!-- Node12 -->
<g id="node12" class="node">
<title>Node12</title>
<g id="a_node12"><a xlink:href="../../d8/d3a/PHG4DetectorSubsystem_8h.html" target="_top" xlink:title="PHG4DetectorSubsystem.h">
<polygon fill="none" stroke="#000000" points="1137.0877,-240.5 1137.0877,-260.5 1290.0877,-260.5 1290.0877,-240.5 1137.0877,-240.5"/>
<text text-anchor="middle" x="1213.5877" y="-247.5" font-family="FreeSans" font-size="10.00" fill="#000000">PHG4DetectorSubsystem.h</text>
</a>
</g>
</g>
<!-- Node11&#45;&gt;Node12 -->
<g id="edge15" class="edge">
<title>Node11&#45;&gt;Node12</title>
<path fill="none" stroke="#191970" d="M1170.5241,-297.2759C1178.7275,-288.3654 1188.9118,-277.3031 1197.3166,-268.1737"/>
<polygon fill="#191970" stroke="#191970" points="1199.9518,-270.4789 1204.15,-260.7513 1194.8019,-265.7377 1199.9518,-270.4789"/>
</g>
<!-- Node17 -->
<g id="node17" class="node">
<title>Node17</title>
<polygon fill="none" stroke="#bfbfbf" points="1463.0877,-240.5 1463.0877,-260.5 1506.0877,-260.5 1506.0877,-240.5 1463.0877,-240.5"/>
<text text-anchor="middle" x="1484.5877" y="-247.5" font-family="FreeSans" font-size="10.00" fill="#000000">array</text>
</g>
<!-- Node11&#45;&gt;Node17 -->
<g id="edge23" class="edge">
<title>Node11&#45;&gt;Node17</title>
<path fill="none" stroke="#191970" d="M1231.1164,-298.7558C1234.3153,-298.1575 1237.4828,-297.57 1240.5877,-297 1332.8645,-280.06 1357.1881,-282.1681 1448.5877,-261 1450.0544,-260.6603 1451.5499,-260.2963 1453.057,-259.9152"/>
<polygon fill="#191970" stroke="#191970" points="1454.2512,-263.218 1462.9895,-257.2269 1452.4224,-256.4611 1454.2512,-263.218"/>
</g>
<!-- Node12&#45;&gt;Node7 -->
<g id="edge22" class="edge">
<title>Node12&#45;&gt;Node7</title>
<path fill="none" stroke="#191970" d="M1249.5958,-240.4713C1267.6766,-233.4127 1287.9516,-221.9422 1298.5877,-204 1306.0667,-191.3835 1301.0506,-185.4584 1298.5877,-171 1289.2969,-116.4599 1286.542,-97.2543 1248.5877,-57 1235.9009,-43.5444 1218.4747,-32.5872 1203.4086,-24.6963"/>
<polygon fill="#191970" stroke="#191970" points="1204.9052,-21.5314 1194.3963,-20.1844 1201.7715,-27.7908 1204.9052,-21.5314"/>
</g>
<!-- Node13 -->
<g id="node13" class="node">
<title>Node13</title>
<g id="a_node13"><a xlink:href="../../df/d1c/PHG4Subsystem_8h.html" target="_top" xlink:title="g4main/PHG4Subsystem.h">
<polygon fill="none" stroke="#000000" points="1138.0877,-177.5 1138.0877,-197.5 1289.0877,-197.5 1289.0877,-177.5 1138.0877,-177.5"/>
<text text-anchor="middle" x="1213.5877" y="-184.5" font-family="FreeSans" font-size="10.00" fill="#000000">g4main/PHG4Subsystem.h</text>
</a>
</g>
</g>
<!-- Node12&#45;&gt;Node13 -->
<g id="edge16" class="edge">
<title>Node12&#45;&gt;Node13</title>
<path fill="none" stroke="#191970" d="M1213.5877,-240.378C1213.5877,-231.7041 1213.5877,-218.9355 1213.5877,-208.1186"/>
<polygon fill="#191970" stroke="#191970" points="1217.0878,-207.8062 1213.5877,-197.8062 1210.0878,-207.8062 1217.0878,-207.8062"/>
</g>
<!-- Node16 -->
<g id="node16" class="node">
<title>Node16</title>
<polygon fill="none" stroke="#bfbfbf" points="1630.0877,-57.5 1630.0877,-77.5 1669.0877,-77.5 1669.0877,-57.5 1630.0877,-57.5"/>
<text text-anchor="middle" x="1649.5877" y="-64.5" font-family="FreeSans" font-size="10.00" fill="#000000">map</text>
</g>
<!-- Node12&#45;&gt;Node16 -->
<g id="edge21" class="edge">
<title>Node12&#45;&gt;Node16</title>
<path fill="none" stroke="#191970" d="M1276.1308,-240.4637C1306.8539,-233.5448 1343.4358,-222.2037 1372.5877,-204 1418.4868,-175.3387 1407.9806,-141.495 1454.5877,-114 1468.7903,-105.6214 1568.8359,-84.1636 1619.8396,-73.5838"/>
<polygon fill="#191970" stroke="#191970" points="1620.8449,-76.9502 1629.9304,-71.5 1619.4291,-70.0948 1620.8449,-76.9502"/>
</g>
<!-- Node13&#45;&gt;Node4 -->
<g id="edge18" class="edge">
<title>Node13&#45;&gt;Node4</title>
<path fill="none" stroke="#191970" d="M1137.9733,-182.6647C983.9639,-172.7026 637.4652,-149.6816 498.8982,-135.0606"/>
<polygon fill="#191970" stroke="#191970" points="499.2104,-131.574 488.8922,-133.979 498.4581,-138.5335 499.2104,-131.574"/>
</g>
<!-- Node13&#45;&gt;Node7 -->
<g id="edge20" class="edge">
<title>Node13&#45;&gt;Node7</title>
<path fill="none" stroke="#191970" d="M1228.6287,-177.4337C1246.6026,-164.0353 1273.1309,-139.1006 1263.5877,-114 1249.6479,-77.3355 1216.1072,-45.3652 1193.6123,-26.9983"/>
<polygon fill="#191970" stroke="#191970" points="1195.6064,-24.1128 1185.5956,-20.6437 1191.258,-29.5984 1195.6064,-24.1128"/>
</g>
<!-- Node14 -->
<g id="node14" class="node">
<title>Node14</title>
<g id="a_node14"><a xlink:href="../../da/dc1/Fun4AllReturnCodes_8h.html" target="_top" xlink:title="fun4all/Fun4AllReturnCodes.h">
<polygon fill="none" stroke="#000000" points="1088.5877,-114.5 1088.5877,-134.5 1254.5877,-134.5 1254.5877,-114.5 1088.5877,-114.5"/>
<text text-anchor="middle" x="1171.5877" y="-121.5" font-family="FreeSans" font-size="10.00" fill="#000000">fun4all/Fun4AllReturnCodes.h</text>
</a>
</g>
</g>
<!-- Node13&#45;&gt;Node14 -->
<g id="edge17" class="edge">
<title>Node13&#45;&gt;Node14</title>
<path fill="none" stroke="#191970" d="M1206.8397,-177.378C1200.7527,-168.2476 1191.6411,-154.5801 1184.2062,-143.4278"/>
<polygon fill="#191970" stroke="#191970" points="1186.9177,-141.1853 1178.4585,-134.8062 1181.0934,-145.0682 1186.9177,-141.1853"/>
</g>
<!-- Node15 -->
<g id="node15" class="node">
<title>Node15</title>
<polygon fill="none" stroke="#bfbfbf" points="1837.5877,-57.5 1837.5877,-77.5 1897.5877,-77.5 1897.5877,-57.5 1837.5877,-57.5"/>
<text text-anchor="middle" x="1867.5877" y="-64.5" font-family="FreeSans" font-size="10.00" fill="#000000">iostream</text>
</g>
<!-- Node13&#45;&gt;Node15 -->
<g id="edge19" class="edge">
<title>Node13&#45;&gt;Node15</title>
<path fill="none" stroke="#191970" d="M1240.6314,-177.4596C1284.7735,-161.4808 1375.3426,-130.3997 1454.5877,-114 1589.4464,-86.0911 1752.7845,-73.9502 1827.1734,-69.5788"/>
<polygon fill="#191970" stroke="#191970" points="1827.7054,-73.0542 1837.4894,-68.9893 1827.306,-66.0656 1827.7054,-73.0542"/>
</g>
<!-- Node18&#45;&gt;Node4 -->
<g id="edge27" class="edge">
<title>Node18&#45;&gt;Node4</title>
<path fill="none" stroke="#191970" d="M160.2315,-172.7777C163.3918,-172.1734 166.5208,-171.5786 169.5877,-171 234.1249,-158.8238 307.9044,-145.5402 359.8078,-136.3003"/>
<polygon fill="#191970" stroke="#191970" points="360.6549,-139.7047 369.8876,-134.5078 359.4292,-132.8128 360.6549,-139.7047"/>
</g>
<!-- Node18&#45;&gt;Node7 -->
<g id="edge28" class="edge">
<title>Node18&#45;&gt;Node7</title>
<path fill="none" stroke="#191970" d="M46.8134,-171.4888C18.3339,-157.4379 -12.4937,-135.8815 5.5877,-114 79.8021,-24.188 956.6485,-12.229 1138.6412,-10.7117"/>
<polygon fill="#191970" stroke="#191970" points="1138.9397,-14.2096 1148.912,-10.6312 1138.8848,-7.2098 1138.9397,-14.2096"/>
</g>
<!-- Node18&#45;&gt;Node8 -->
<g id="edge26" class="edge">
<title>Node18&#45;&gt;Node8</title>
<path fill="none" stroke="#191970" d="M93.8285,-171.2759C98.0802,-162.9054 103.2963,-152.6361 107.7571,-143.854"/>
<polygon fill="#191970" stroke="#191970" points="110.9725,-145.2521 112.3807,-134.7513 104.7314,-142.082 110.9725,-145.2521"/>
</g>
<!-- Node19&#45;&gt;Node7 -->
<g id="edge31" class="edge">
<title>Node19&#45;&gt;Node7</title>
<path fill="none" stroke="#191970" d="M1001.4466,-297.4951C1024.1931,-275.2546 1060.5877,-232.6199 1060.5877,-187.5 1060.5877,-187.5 1060.5877,-187.5 1060.5877,-124.5 1060.5877,-78.1664 1108.2381,-43.6098 1141.0981,-25.2879"/>
<polygon fill="#191970" stroke="#191970" points="1142.7646,-28.3658 1149.9223,-20.5544 1139.4556,-22.1973 1142.7646,-28.3658"/>
</g>
<!-- Node19&#45;&gt;Node12 -->
<g id="edge30" class="edge">
<title>Node19&#45;&gt;Node12</title>
<path fill="none" stroke="#191970" d="M1042.2215,-297.4394C1081.0293,-286.8095 1131.2147,-273.063 1167.2318,-263.1975"/>
<polygon fill="#191970" stroke="#191970" points="1168.2735,-266.5412 1176.9936,-260.5236 1166.4242,-259.7898 1168.2735,-266.5412"/>
</g>
<!-- Node20&#45;&gt;Node4 -->
<g id="edge33" class="edge">
<title>Node20&#45;&gt;Node4</title>
<path fill="none" stroke="#191970" d="M432.463,-177.378C431.4891,-168.6128 430.0506,-155.6662 428.8408,-144.7777"/>
<polygon fill="#191970" stroke="#191970" points="432.3158,-144.3585 427.7328,-134.8062 425.3586,-145.1316 432.3158,-144.3585"/>
</g>
<!-- Node20&#45;&gt;Node7 -->
<g id="edge35" class="edge">
<title>Node20&#45;&gt;Node7</title>
<path fill="none" stroke="#191970" d="M408.102,-177.4424C378.7311,-164.3367 336.7754,-140.0053 355.5877,-114 403.0367,-48.4083 449.1709,-72.705 528.5877,-57 647.4517,-33.4942 1025.2027,-16.4869 1138.9006,-11.7998"/>
<polygon fill="#191970" stroke="#191970" points="1139.2129,-15.29 1149.0617,-11.3848 1138.9272,-8.2959 1139.2129,-15.29"/>
</g>
<!-- Node21 -->
<g id="node21" class="node">
<title>Node21</title>
<polygon fill="none" stroke="#bfbfbf" points="276.5877,-114.5 276.5877,-134.5 308.5877,-134.5 308.5877,-114.5 276.5877,-114.5"/>
<text text-anchor="middle" x="292.5877" y="-121.5" font-family="FreeSans" font-size="10.00" fill="#000000">set</text>
</g>
<!-- Node20&#45;&gt;Node21 -->
<g id="edge34" class="edge">
<title>Node20&#45;&gt;Node21</title>
<path fill="none" stroke="#191970" d="M410.9336,-177.378C385.5313,-166.028 344.4375,-147.6669 317.9716,-135.8418"/>
<polygon fill="#191970" stroke="#191970" points="319.1657,-132.5418 308.6078,-131.6579 316.3101,-138.9329 319.1657,-132.5418"/>
</g>
<!-- Node22&#45;&gt;Node4 -->
<g id="edge38" class="edge">
<title>Node22&#45;&gt;Node4</title>
<path fill="none" stroke="#191970" d="M817.9979,-179.4461C745.2032,-169.5673 618.0133,-152.1779 498.9424,-135.1847"/>
<polygon fill="#191970" stroke="#191970" points="499.3155,-131.7025 488.9209,-133.7526 498.3252,-138.6321 499.3155,-131.7025"/>
</g>
<!-- Node22&#45;&gt;Node7 -->
<g id="edge41" class="edge">
<title>Node22&#45;&gt;Node7</title>
<path fill="none" stroke="#191970" d="M893.0252,-177.45C908.5946,-167.1724 933.1803,-150.5528 953.5877,-135 996.4941,-102.3004 999.9612,-84.1329 1046.5877,-57 1076.092,-39.8308 1113.0706,-27.0149 1139.1293,-19.2325"/>
<polygon fill="#191970" stroke="#191970" points="1140.2581,-22.5494 1148.8864,-16.401 1138.3072,-15.8268 1140.2581,-22.5494"/>
</g>
<!-- Node23 -->
<g id="node23" class="node">
<title>Node23</title>
<g id="a_node23"><a xlink:href="../../d9/d5f/EDecayType_8hh.html" target="_top" xlink:title="g4decayer/EDecayType.hh">
<polygon fill="none" stroke="#000000" points="642.5877,-114.5 642.5877,-134.5 792.5877,-134.5 792.5877,-114.5 642.5877,-114.5"/>
<text text-anchor="middle" x="717.5877" y="-121.5" font-family="FreeSans" font-size="10.00" fill="#000000">g4decayer/EDecayType.hh</text>
</a>
</g>
</g>
<!-- Node22&#45;&gt;Node23 -->
<g id="edge37" class="edge">
<title>Node22&#45;&gt;Node23</title>
<path fill="none" stroke="#191970" d="M851.8809,-177.378C825.0556,-166.8155 782.8095,-150.1811 752.8716,-138.393"/>
<polygon fill="#191970" stroke="#191970" points="753.8177,-135.0041 743.2307,-134.5969 751.253,-141.5173 753.8177,-135.0041"/>
</g>
<!-- Node24 -->
<g id="node24" class="node">
<title>Node24</title>
<polygon fill="none" stroke="#bfbfbf" points="810.5877,-114.5 810.5877,-134.5 944.5877,-134.5 944.5877,-114.5 810.5877,-114.5"/>
<text text-anchor="middle" x="877.5877" y="-121.5" font-family="FreeSans" font-size="10.00" fill="#000000">phfield/PHFieldConfig.h</text>
</g>
<!-- Node22&#45;&gt;Node24 -->
<g id="edge39" class="edge">
<title>Node22&#45;&gt;Node24</title>
<path fill="none" stroke="#191970" d="M877.5877,-177.378C877.5877,-168.7041 877.5877,-155.9355 877.5877,-145.1186"/>
<polygon fill="#191970" stroke="#191970" points="881.0878,-144.8062 877.5877,-134.8062 874.0878,-144.8062 881.0878,-144.8062"/>
</g>
<!-- Node25 -->
<g id="node25" class="node">
<title>Node25</title>
<polygon fill="none" stroke="#bfbfbf" points="1000.5877,-114.5 1000.5877,-134.5 1032.5877,-134.5 1032.5877,-114.5 1000.5877,-114.5"/>
<text text-anchor="middle" x="1016.5877" y="-121.5" font-family="FreeSans" font-size="10.00" fill="#000000">list</text>
</g>
<!-- Node22&#45;&gt;Node25 -->
<g id="edge40" class="edge">
<title>Node22&#45;&gt;Node25</title>
<path fill="none" stroke="#191970" d="M899.9204,-177.378C924.8263,-166.0897 965.0334,-147.8663 991.1371,-136.0351"/>
<polygon fill="#191970" stroke="#191970" points="992.7265,-139.1576 1000.3898,-131.8415 989.8367,-132.7819 992.7265,-139.1576"/>
</g>
<!-- Node29&#45;&gt;Node5 -->
<g id="edge46" class="edge">
<title>Node29&#45;&gt;Node5</title>
<path fill="none" stroke="#191970" d="M1743.1033,-177.489C1708.2661,-169.1117 1660.8881,-155.241 1622.5877,-135 1597.0502,-121.504 1571.621,-99.9703 1555.3258,-84.8626"/>
<polygon fill="#191970" stroke="#191970" points="1557.3517,-81.9607 1547.6848,-77.6246 1552.5377,-87.0426 1557.3517,-81.9607"/>
</g>
<!-- Node29&#45;&gt;Node7 -->
<g id="edge59" class="edge">
<title>Node29&#45;&gt;Node7</title>
<path fill="none" stroke="#191970" d="M1794.5549,-177.2114C1798.2509,-162.2364 1802.81,-134.0406 1791.5877,-114 1767.9013,-71.7013 1744.622,-72.2007 1698.5877,-57 1606.0221,-26.4346 1304.6423,-14.5873 1204.3699,-11.4315"/>
<polygon fill="#191970" stroke="#191970" points="1204.3324,-7.9288 1194.2298,-11.1206 1204.1179,-14.9255 1204.3324,-7.9288"/>
</g>
<!-- Node29&#45;&gt;Node15 -->
<g id="edge57" class="edge">
<title>Node29&#45;&gt;Node15</title>
<path fill="none" stroke="#191970" d="M1804.3176,-177.4823C1815.9582,-167.7328 1832.9383,-151.9441 1843.5877,-135 1852.7789,-120.376 1859.0608,-101.7542 1862.8851,-87.7757"/>
<polygon fill="#191970" stroke="#191970" points="1866.3681,-88.2794 1865.4339,-77.7258 1859.5829,-86.5586 1866.3681,-88.2794"/>
</g>
<!-- Node29&#45;&gt;Node16 -->
<g id="edge58" class="edge">
<title>Node29&#45;&gt;Node16</title>
<path fill="none" stroke="#191970" d="M1791.7626,-177.3586C1791.4817,-161.7982 1788.6929,-131.9543 1772.5877,-114 1748.5274,-87.1773 1707.3798,-75.7534 1679.3611,-70.9363"/>
<polygon fill="#191970" stroke="#191970" points="1679.7439,-67.4542 1669.3284,-69.3953 1678.6811,-74.373 1679.7439,-67.4542"/>
</g>
<!-- Node30 -->
<g id="node30" class="node">
<title>Node30</title>
<g id="a_node30"><a xlink:href="../../d0/d59/Fun4AllHistoManager_8h.html" target="_top" xlink:title="Fun4AllHistoManager.h">
<polygon fill="none" stroke="#000000" points="1631.5877,-114.5 1631.5877,-134.5 1763.5877,-134.5 1763.5877,-114.5 1631.5877,-114.5"/>
<text text-anchor="middle" x="1697.5877" y="-121.5" font-family="FreeSans" font-size="10.00" fill="#000000">Fun4AllHistoManager.h</text>
</a>
</g>
</g>
<!-- Node29&#45;&gt;Node30 -->
<g id="edge47" class="edge">
<title>Node29&#45;&gt;Node30</title>
<path fill="none" stroke="#191970" d="M1776.485,-177.378C1761.5473,-167.3666 1738.4707,-151.9003 1721.1267,-140.2762"/>
<polygon fill="#191970" stroke="#191970" points="1722.9084,-137.2569 1712.6529,-134.5969 1719.0112,-143.0718 1722.9084,-137.2569"/>
</g>
<!-- Node31 -->
<g id="node31" class="node">
<title>Node31</title>
<g id="a_node31"><a xlink:href="../../dc/d26/PHTimer_8h.html" target="_top" xlink:title="high precision timer">
<polygon fill="none" stroke="#000000" points="1924.0877,-114.5 1924.0877,-134.5 2023.0877,-134.5 2023.0877,-114.5 1924.0877,-114.5"/>
<text text-anchor="middle" x="1973.5877" y="-121.5" font-family="FreeSans" font-size="10.00" fill="#000000">phool/PHTimer.h</text>
</a>
</g>
</g>
<!-- Node29&#45;&gt;Node31 -->
<g id="edge51" class="edge">
<title>Node29&#45;&gt;Node31</title>
<path fill="none" stroke="#191970" d="M1820.8291,-177.378C1851.7409,-166.6777 1900.6545,-149.7461 1934.7776,-137.9343"/>
<polygon fill="#191970" stroke="#191970" points="1936.1138,-141.1755 1944.4188,-134.5969 1933.824,-134.5606 1936.1138,-141.1755"/>
</g>
<!-- Node35 -->
<g id="node35" class="node">
<title>Node35</title>
<polygon fill="none" stroke="#bfbfbf" points="1463.0877,-114.5 1463.0877,-134.5 1508.0877,-134.5 1508.0877,-114.5 1463.0877,-114.5"/>
<text text-anchor="middle" x="1485.5877" y="-121.5" font-family="FreeSans" font-size="10.00" fill="#000000">utility</text>
</g>
<!-- Node29&#45;&gt;Node35 -->
<g id="edge60" class="edge">
<title>Node29&#45;&gt;Node35</title>
<path fill="none" stroke="#191970" d="M1726.8502,-177.4948C1673.2895,-168.6709 1595.1239,-154.5384 1518.0841,-134.872"/>
<polygon fill="#191970" stroke="#191970" points="1518.7652,-131.4331 1508.2074,-132.3183 1517.0128,-138.2102 1518.7652,-131.4331"/>
</g>
<!-- Node36 -->
<g id="node36" class="node">
<title>Node36</title>
<polygon fill="none" stroke="#bfbfbf" points="1526.0877,-114.5 1526.0877,-134.5 1575.0877,-134.5 1575.0877,-114.5 1526.0877,-114.5"/>
<text text-anchor="middle" x="1550.5877" y="-121.5" font-family="FreeSans" font-size="10.00" fill="#000000">vector</text>
</g>
<!-- Node29&#45;&gt;Node36 -->
<g id="edge61" class="edge">
<title>Node29&#45;&gt;Node36</title>
<path fill="none" stroke="#191970" d="M1752.4593,-177.4382C1711.7467,-166.9439 1646.1601,-149.9668 1589.5877,-135 1588.1472,-134.6189 1586.6771,-134.2287 1585.1923,-133.8336"/>
<polygon fill="#191970" stroke="#191970" points="1585.9013,-130.4003 1575.3366,-131.198 1584.0929,-137.1627 1585.9013,-130.4003"/>
</g>
<!-- Node30&#45;&gt;Node5 -->
<g id="edge48" class="edge">
<title>Node30&#45;&gt;Node5</title>
<path fill="none" stroke="#191970" d="M1669.3512,-114.4408C1643.2697,-105.1492 1604.3245,-91.275 1575.5332,-81.0181"/>
<polygon fill="#191970" stroke="#191970" points="1576.4052,-77.6133 1565.8105,-77.5544 1574.056,-84.2074 1576.4052,-77.6133"/>
</g>
<!-- Node30&#45;&gt;Node7 -->
<g id="edge50" class="edge">
<title>Node30&#45;&gt;Node7</title>
<path fill="none" stroke="#191970" d="M1698.0124,-114.3926C1698.038,-99.3092 1695.6205,-71.1709 1678.5877,-57 1642.1694,-26.7008 1311.1776,-14.5382 1204.5344,-11.3848"/>
<polygon fill="#191970" stroke="#191970" points="1204.4586,-7.8812 1194.3618,-11.0914 1204.2567,-14.8783 1204.4586,-7.8812"/>
</g>
<!-- Node30&#45;&gt;Node16 -->
<g id="edge49" class="edge">
<title>Node30&#45;&gt;Node16</title>
<path fill="none" stroke="#191970" d="M1689.0062,-114.3095C1682.2488,-106.2851 1672.6633,-94.9022 1664.6368,-85.3708"/>
<polygon fill="#191970" stroke="#191970" points="1667.2134,-82.9969 1658.0948,-77.6022 1661.859,-87.5059 1667.2134,-82.9969"/>
</g>
<!-- Node31&#45;&gt;Node7 -->
<g id="edge55" class="edge">
<title>Node31&#45;&gt;Node7</title>
<path fill="none" stroke="#191970" d="M1979.3594,-114.2759C1986.8132,-99.5576 1997.1982,-72.4722 1982.5877,-57 1968.9939,-42.6044 1354.844,-17.6701 1204.527,-11.7752"/>
<polygon fill="#191970" stroke="#191970" points="1204.2591,-8.2622 1194.13,-11.3689 1203.9857,-15.2568 1204.2591,-8.2622"/>
</g>
<!-- Node31&#45;&gt;Node15 -->
<g id="edge54" class="edge">
<title>Node31&#45;&gt;Node15</title>
<path fill="none" stroke="#191970" d="M1954.637,-114.3095C1938.1315,-105.434 1913.9858,-92.4499 1895.3091,-82.4068"/>
<polygon fill="#191970" stroke="#191970" points="1896.8393,-79.2557 1886.3743,-77.6022 1893.524,-85.4209 1896.8393,-79.2557"/>
</g>
<!-- Node32 -->
<g id="node32" class="node">
<title>Node32</title>
<polygon fill="none" stroke="#bfbfbf" points="1916.0877,-57.5 1916.0877,-77.5 1973.0877,-77.5 1973.0877,-57.5 1916.0877,-57.5"/>
<text text-anchor="middle" x="1944.5877" y="-64.5" font-family="FreeSans" font-size="10.00" fill="#000000">unistd.h</text>
</g>
<!-- Node31&#45;&gt;Node32 -->
<g id="edge52" class="edge">
<title>Node31&#45;&gt;Node32</title>
<path fill="none" stroke="#191970" d="M1968.4031,-114.3095C1964.4854,-106.6093 1958.9944,-95.8166 1954.2721,-86.5349"/>
<polygon fill="#191970" stroke="#191970" points="1957.3815,-84.9279 1949.7274,-77.6022 1951.1426,-88.1021 1957.3815,-84.9279"/>
</g>
<!-- Node33 -->
<g id="node33" class="node">
<title>Node33</title>
<polygon fill="none" stroke="#bfbfbf" points="2030.0877,-57.5 2030.0877,-77.5 2095.0877,-77.5 2095.0877,-57.5 2030.0877,-57.5"/>
<text text-anchor="middle" x="2062.5877" y="-64.5" font-family="FreeSans" font-size="10.00" fill="#000000">exception</text>
</g>
<!-- Node31&#45;&gt;Node33 -->
<g id="edge53" class="edge">
<title>Node31&#45;&gt;Node33</title>
<path fill="none" stroke="#191970" d="M1989.4991,-114.3095C2003.041,-105.6366 2022.7084,-93.0407 2038.2311,-83.0992"/>
<polygon fill="#191970" stroke="#191970" points="2040.2806,-85.9429 2046.814,-77.6022 2036.5054,-80.0481 2040.2806,-85.9429"/>
</g>
<!-- Node34 -->
<g id="node34" class="node">
<title>Node34</title>
<polygon fill="none" stroke="#bfbfbf" points="2113.5877,-57.5 2113.5877,-77.5 2169.5877,-77.5 2169.5877,-57.5 2113.5877,-57.5"/>
<text text-anchor="middle" x="2141.5877" y="-64.5" font-family="FreeSans" font-size="10.00" fill="#000000">sstream</text>
</g>
<!-- Node31&#45;&gt;Node34 -->
<g id="edge56" class="edge">
<title>Node31&#45;&gt;Node34</title>
<path fill="none" stroke="#191970" d="M2003.236,-114.4408C2031.1643,-104.9651 2073.1402,-90.7233 2103.5296,-80.4126"/>
<polygon fill="#191970" stroke="#191970" points="2105.0091,-83.6066 2113.3543,-77.0792 2102.76,-76.9778 2105.0091,-83.6066"/>
</g>
</g>
</svg>
