<?xml version="1.0" encoding="UTF-8" standalone="no"?>
<!DOCTYPE svg PUBLIC "-//W3C//DTD SVG 1.1//EN"
 "http://www.w3.org/Graphics/SVG/1.1/DTD/svg11.dtd">
<!-- Generated by graphviz version 2.40.1 (20161225.0304)
 -->
<!-- Title: SvtxTrack_v1::begin_states Pages: 1 -->
<svg width="519pt" height="182pt"
 viewBox="0.00 0.00 519.00 182.00" xmlns="http://www.w3.org/2000/svg" xmlns:xlink="http://www.w3.org/1999/xlink">
<g id="graph0" class="graph" transform="scale(1 1) rotate(0) translate(4 178)">
<title>SvtxTrack_v1::begin_states</title>
<!-- Node1 -->
<g id="node1" class="node">
<title>Node1</title>
<polygon fill="#bfbfbf" stroke="#000000" points="0,-64.5 0,-96.5 117,-96.5 117,-64.5 0,-64.5"/>
<text text-anchor="start" x="8" y="-83.5" font-family="FreeSans" font-size="10.00" fill="#000000">SvtxTrack_v1::begin</text>
<text text-anchor="middle" x="58.5" y="-71.5" font-family="FreeSans" font-size="10.00" fill="#000000">_states</text>
</g>
<!-- Node2 -->
<g id="node2" class="node">
<title>Node2</title>
<g id="a_node2"><a xlink:href="../../d0/d71/classPHG4TrackFastSimEval.html#a52a746bdc6e84dc7886b5bae0b608e68" target="_top" xlink:title="PHG4TrackFastSimEval\l::fill_track_tree">
<polygon fill="none" stroke="#000000" points="170.5,-141.5 170.5,-173.5 301.5,-173.5 301.5,-141.5 170.5,-141.5"/>
<text text-anchor="start" x="178.5" y="-160.5" font-family="FreeSans" font-size="10.00" fill="#000000">PHG4TrackFastSimEval</text>
<text text-anchor="middle" x="236" y="-148.5" font-family="FreeSans" font-size="10.00" fill="#000000">::fill_track_tree</text>
</a>
</g>
</g>
<!-- Node1&#45;&gt;Node2 -->
<g id="edge1" class="edge">
<title>Node1&#45;&gt;Node2</title>
<path fill="none" stroke="#191970" d="M92.9777,-101.7644C110.5116,-111.9806 132.4183,-123.8514 153,-132.5 160.6307,-135.7065 168.8137,-138.6891 176.9595,-141.3961"/>
<polygon fill="#191970" stroke="#191970" points="94.6271,-98.6736 84.2374,-96.5986 91.0654,-104.6998 94.6271,-98.6736"/>
</g>
<!-- Node4 -->
<g id="node4" class="node">
<title>Node4</title>
<g id="a_node4"><a xlink:href="../../d8/d97/classTrackFastSimEval.html#a028f8bc89f4762789e280d64e7fcfe62" target="_top" xlink:title="TrackFastSimEval::fill\l_track_tree">
<polygon fill="none" stroke="#000000" points="174.5,-90.5 174.5,-122.5 297.5,-122.5 297.5,-90.5 174.5,-90.5"/>
<text text-anchor="start" x="182.5" y="-109.5" font-family="FreeSans" font-size="10.00" fill="#000000">TrackFastSimEval::fill</text>
<text text-anchor="middle" x="236" y="-97.5" font-family="FreeSans" font-size="10.00" fill="#000000">_track_tree</text>
</a>
</g>
</g>
<!-- Node1&#45;&gt;Node4 -->
<g id="edge3" class="edge">
<title>Node1&#45;&gt;Node4</title>
<path fill="none" stroke="#191970" d="M127.1871,-90.5612C142.7416,-92.8396 159.1637,-95.2451 174.4037,-97.4774"/>
<polygon fill="#191970" stroke="#191970" points="127.5138,-87.0718 117.1121,-89.0854 126.4992,-93.9979 127.5138,-87.0718"/>
</g>
<!-- Node6 -->
<g id="node6" class="node">
<title>Node6</title>
<g id="a_node6"><a xlink:href="../../d9/d91/classPHG4TrackFastSim.html#ab1ae4586bc276e05c9cbbfc88d7a4aff" target="_top" xlink:title="PHG4TrackFastSim::MakeSvtx\lTrack">
<polygon fill="none" stroke="#000000" points="153,-39.5 153,-71.5 319,-71.5 319,-39.5 153,-39.5"/>
<text text-anchor="start" x="161" y="-58.5" font-family="FreeSans" font-size="10.00" fill="#000000">PHG4TrackFastSim::MakeSvtx</text>
<text text-anchor="middle" x="236" y="-46.5" font-family="FreeSans" font-size="10.00" fill="#000000">Track</text>
</a>
</g>
</g>
<!-- Node1&#45;&gt;Node6 -->
<g id="edge5" class="edge">
<title>Node1&#45;&gt;Node6</title>
<path fill="none" stroke="#191970" d="M127.1749,-70.8275C135.5445,-69.6487 144.1654,-68.4345 152.7183,-67.2298"/>
<polygon fill="#191970" stroke="#191970" points="126.5262,-67.3842 117.1121,-72.2448 127.5025,-74.3158 126.5262,-67.3842"/>
</g>
<!-- Node8 -->
<g id="node8" class="node">
<title>Node8</title>
<g id="a_node8"><a xlink:href="../../db/de4/classSvtxTrack__v1.html#adf646da41b9bae3f630d616f7ede88f0" target="_top" xlink:title="SvtxTrack_v1::operator=">
<polygon fill="none" stroke="#000000" points="166,-.5 166,-20.5 306,-20.5 306,-.5 166,-.5"/>
<text text-anchor="middle" x="236" y="-7.5" font-family="FreeSans" font-size="10.00" fill="#000000">SvtxTrack_v1::operator=</text>
</a>
</g>
</g>
<!-- Node1&#45;&gt;Node8 -->
<g id="edge7" class="edge">
<title>Node1&#45;&gt;Node8</title>
<path fill="none" stroke="#191970" d="M93.2542,-59.4222C110.7007,-49.5458 132.4501,-38.2716 153,-30.5 163.2593,-26.6201 174.5226,-23.3122 185.3524,-20.5697"/>
<polygon fill="#191970" stroke="#191970" points="91.4714,-56.41 84.5523,-64.4335 94.9647,-62.476 91.4714,-56.41"/>
</g>
<!-- Node3 -->
<g id="node3" class="node">
<title>Node3</title>
<g id="a_node3"><a xlink:href="../../d0/d71/classPHG4TrackFastSimEval.html#ab0136bd1d81150679effd3e148c3cfc4" target="_top" xlink:title="PHG4TrackFastSimEval\l::process_event">
<polygon fill="none" stroke="#000000" points="367.5,-141.5 367.5,-173.5 498.5,-173.5 498.5,-141.5 367.5,-141.5"/>
<text text-anchor="start" x="375.5" y="-160.5" font-family="FreeSans" font-size="10.00" fill="#000000">PHG4TrackFastSimEval</text>
<text text-anchor="middle" x="433" y="-148.5" font-family="FreeSans" font-size="10.00" fill="#000000">::process_event</text>
</a>
</g>
</g>
<!-- Node2&#45;&gt;Node3 -->
<g id="edge2" class="edge">
<title>Node2&#45;&gt;Node3</title>
<path fill="none" stroke="#191970" d="M311.6644,-157.5C330.0225,-157.5 349.5006,-157.5 367.3527,-157.5"/>
<polygon fill="#191970" stroke="#191970" points="311.5982,-154.0001 301.5981,-157.5 311.5981,-161.0001 311.5982,-154.0001"/>
</g>
<!-- Node5 -->
<g id="node5" class="node">
<title>Node5</title>
<g id="a_node5"><a xlink:href="../../d8/d97/classTrackFastSimEval.html#a1c1810697243f85b6963d11342852ee8" target="_top" xlink:title="TrackFastSimEval::process\l_event">
<polygon fill="none" stroke="#000000" points="358,-90.5 358,-122.5 508,-122.5 508,-90.5 358,-90.5"/>
<text text-anchor="start" x="366" y="-109.5" font-family="FreeSans" font-size="10.00" fill="#000000">TrackFastSimEval::process</text>
<text text-anchor="middle" x="433" y="-97.5" font-family="FreeSans" font-size="10.00" fill="#000000">_event</text>
</a>
</g>
</g>
<!-- Node4&#45;&gt;Node5 -->
<g id="edge4" class="edge">
<title>Node4&#45;&gt;Node5</title>
<path fill="none" stroke="#191970" d="M307.5335,-106.5C323.864,-106.5 341.266,-106.5 357.7471,-106.5"/>
<polygon fill="#191970" stroke="#191970" points="307.5217,-103.0001 297.5217,-106.5 307.5217,-110.0001 307.5217,-103.0001"/>
</g>
<!-- Node7 -->
<g id="node7" class="node">
<title>Node7</title>
<g id="a_node7"><a xlink:href="../../d9/d91/classPHG4TrackFastSim.html#a8bb22ab279c5f433069774bd2ab0a7ae" target="_top" xlink:title="Process Event, called for each event.">
<polygon fill="none" stroke="#000000" points="355,-39.5 355,-71.5 511,-71.5 511,-39.5 355,-39.5"/>
<text text-anchor="start" x="363" y="-58.5" font-family="FreeSans" font-size="10.00" fill="#000000">PHG4TrackFastSim::process</text>
<text text-anchor="middle" x="433" y="-46.5" font-family="FreeSans" font-size="10.00" fill="#000000">_event</text>
</a>
</g>
</g>
<!-- Node6&#45;&gt;Node7 -->
<g id="edge6" class="edge">
<title>Node6&#45;&gt;Node7</title>
<path fill="none" stroke="#191970" d="M329.5172,-55.5C337.9596,-55.5 346.451,-55.5 354.7424,-55.5"/>
<polygon fill="#191970" stroke="#191970" points="329.2602,-52.0001 319.2602,-55.5 329.2602,-59.0001 329.2602,-52.0001"/>
</g>
</g>
</svg>
