<?xml version="1.0" encoding="UTF-8" standalone="no"?>
<!DOCTYPE svg PUBLIC "-//W3C//DTD SVG 1.1//EN"
 "http://www.w3.org/Graphics/SVG/1.1/DTD/svg11.dtd">
<!-- Generated by graphviz version 2.40.1 (20161225.0304)
 -->
<!-- Title: CopyAndSubtractJets::SetFlowModulation Pages: 1 -->
<svg width="406pt" height="146pt"
 viewBox="0.00 0.00 406.00 146.00" xmlns="http://www.w3.org/2000/svg" xmlns:xlink="http://www.w3.org/1999/xlink">
<g id="graph0" class="graph" transform="scale(1 1) rotate(0) translate(4 142)">
<title>CopyAndSubtractJets::SetFlowModulation</title>
<!-- Node1 -->
<g id="node1" class="node">
<title>Node1</title>
<polygon fill="#bfbfbf" stroke="#000000" points="0,-52.5 0,-84.5 123,-84.5 123,-52.5 0,-52.5"/>
<text text-anchor="start" x="8" y="-71.5" font-family="FreeSans" font-size="10.00" fill="#000000">CopyAndSubtractJets</text>
<text text-anchor="middle" x="61.5" y="-59.5" font-family="FreeSans" font-size="10.00" fill="#000000">::SetFlowModulation</text>
</g>
<!-- Node2 -->
<g id="node2" class="node">
<title>Node2</title>
<g id="a_node2"><a xlink:href="../../d4/d40/G4__HIJetReco_8C.html#a9cf9382ceffe61f139e2b7ebb82609bc" target="_top" xlink:title="HIJetReco">
<polygon fill="none" stroke="#000000" points="159,-58.5 159,-78.5 223,-78.5 223,-58.5 159,-58.5"/>
<text text-anchor="middle" x="191" y="-65.5" font-family="FreeSans" font-size="10.00" fill="#000000">HIJetReco</text>
</a>
</g>
</g>
<!-- Node1&#45;&gt;Node2 -->
<g id="edge1" class="edge">
<title>Node1&#45;&gt;Node2</title>
<path fill="none" stroke="#191970" d="M133.3654,-68.5C142.3187,-68.5 151.0884,-68.5 158.9784,-68.5"/>
<polygon fill="#191970" stroke="#191970" points="133.2159,-65.0001 123.2158,-68.5 133.2158,-72.0001 133.2159,-65.0001"/>
</g>
<!-- Node3 -->
<g id="node3" class="node">
<title>Node3</title>
<g id="a_node3"><a xlink:href="../../db/dc0/Fun4All__AnaTutorial_8C.html#a8c484ea6d7477278e981ef056b17eac9" target="_top" xlink:title="Fun4All_AnaTutorial">
<polygon fill="none" stroke="#000000" points="271,-117.5 271,-137.5 386,-137.5 386,-117.5 271,-117.5"/>
<text text-anchor="middle" x="328.5" y="-124.5" font-family="FreeSans" font-size="10.00" fill="#000000">Fun4All_AnaTutorial</text>
</a>
</g>
</g>
<!-- Node2&#45;&gt;Node3 -->
<g id="edge2" class="edge">
<title>Node2&#45;&gt;Node3</title>
<path fill="none" stroke="#191970" d="M214.1367,-84.1862C226.9299,-92.3183 243.3621,-101.9014 259,-108.5 267.1826,-111.9527 276.1723,-114.9517 284.892,-117.4831"/>
<polygon fill="#191970" stroke="#191970" points="215.8185,-81.1049 205.5277,-78.5847 212.0008,-86.9722 215.8185,-81.1049"/>
</g>
<!-- Node4 -->
<g id="node4" class="node">
<title>Node4</title>
<g id="a_node4"><a xlink:href="../../dd/d28/Fun4All__AnaTutorial__Jets_8C.html#a55eaaeb770a3177f917012de87877d28" target="_top" xlink:title="Fun4All_AnaTutorial_Jets">
<polygon fill="none" stroke="#000000" points="259,-78.5 259,-98.5 398,-98.5 398,-78.5 259,-78.5"/>
<text text-anchor="middle" x="328.5" y="-85.5" font-family="FreeSans" font-size="10.00" fill="#000000">Fun4All_AnaTutorial_Jets</text>
</a>
</g>
</g>
<!-- Node2&#45;&gt;Node4 -->
<g id="edge3" class="edge">
<title>Node2&#45;&gt;Node4</title>
<path fill="none" stroke="#191970" d="M233.4088,-74.6685C241.7306,-75.879 250.659,-77.1777 259.5911,-78.4769"/>
<polygon fill="#191970" stroke="#191970" points="233.6373,-71.165 223.2376,-73.1891 232.6297,-78.0921 233.6373,-71.165"/>
</g>
<!-- Node5 -->
<g id="node5" class="node">
<title>Node5</title>
<g id="a_node5"><a xlink:href="../../da/d02/Fun4All__G4__EICDetector_8C.html#afbe82cefa1d1fd031d9a8586b7bb68c6" target="_top" xlink:title="Fun4All_G4_EICDetector">
<polygon fill="none" stroke="#000000" points="259,-39.5 259,-59.5 398,-59.5 398,-39.5 259,-39.5"/>
<text text-anchor="middle" x="328.5" y="-46.5" font-family="FreeSans" font-size="10.00" fill="#000000">Fun4All_G4_EICDetector</text>
</a>
</g>
</g>
<!-- Node2&#45;&gt;Node5 -->
<g id="edge4" class="edge">
<title>Node2&#45;&gt;Node5</title>
<path fill="none" stroke="#191970" d="M233.1798,-62.6715C241.3097,-61.5481 250.0255,-60.3437 258.7626,-59.1364"/>
<polygon fill="#191970" stroke="#191970" points="232.6644,-59.2094 223.2376,-64.0453 233.6226,-66.1435 232.6644,-59.2094"/>
</g>
<!-- Node6 -->
<g id="node6" class="node">
<title>Node6</title>
<g id="a_node6"><a xlink:href="../../d0/d13/Fun4All__G4__sPHENIX_8C.html#a536fa7366e3aeaf273cca94ced704c46" target="_top" xlink:title="Fun4All_G4_sPHENIX">
<polygon fill="none" stroke="#000000" points="268,-.5 268,-20.5 389,-20.5 389,-.5 268,-.5"/>
<text text-anchor="middle" x="328.5" y="-7.5" font-family="FreeSans" font-size="10.00" fill="#000000">Fun4All_G4_sPHENIX</text>
</a>
</g>
</g>
<!-- Node2&#45;&gt;Node6 -->
<g id="edge5" class="edge">
<title>Node2&#45;&gt;Node6</title>
<path fill="none" stroke="#191970" d="M215.2785,-53.1393C227.9567,-45.5857 243.9326,-36.7799 259,-30.5 268.0397,-26.7324 278.0228,-23.4039 287.5352,-20.5969"/>
<polygon fill="#191970" stroke="#191970" points="213.4141,-50.1767 206.6899,-58.3642 217.0523,-56.157 213.4141,-50.1767"/>
</g>
</g>
</svg>
