<?xml version="1.0" encoding="UTF-8" standalone="no"?>
<!DOCTYPE svg PUBLIC "-//W3C//DTD SVG 1.1//EN"
 "http://www.w3.org/Graphics/SVG/1.1/DTD/svg11.dtd">
<!-- Generated by graphviz version 2.40.1 (20161225.0304)
 -->
<!-- Title: fun4all_coresoftware/blob/master/offline/packages/CaloBase/RawTowerGeomv1.cc Pages: 1 -->
<svg width="453pt" height="281pt"
 viewBox="0.00 0.00 452.50 281.00" xmlns="http://www.w3.org/2000/svg" xmlns:xlink="http://www.w3.org/1999/xlink">
<g id="graph0" class="graph" transform="scale(1 1) rotate(0) translate(4 277)">
<title>fun4all_coresoftware/blob/master/offline/packages/CaloBase/RawTowerGeomv1.cc</title>
<!-- Node1 -->
<g id="node1" class="node">
<title>Node1</title>
<polygon fill="#bfbfbf" stroke="#000000" points="0,-228.5 0,-272.5 229,-272.5 229,-228.5 0,-228.5"/>
<text text-anchor="start" x="8" y="-259.5" font-family="FreeSans" font-size="10.00" fill="#000000">fun4all_coresoftware</text>
<text text-anchor="start" x="8" y="-247.5" font-family="FreeSans" font-size="10.00" fill="#000000">/blob/master/offline</text>
<text text-anchor="middle" x="114.5" y="-235.5" font-family="FreeSans" font-size="10.00" fill="#000000">/packages/CaloBase/RawTowerGeomv1.cc</text>
</g>
<!-- Node2 -->
<g id="node2" class="node">
<title>Node2</title>
<g id="a_node2"><a xlink:href="../../d3/d7b/RawTowerGeomv1_8h.html" target="_top" xlink:title="RawTowerGeomv1.h">
<polygon fill="none" stroke="#000000" points="55.5,-171.5 55.5,-191.5 173.5,-191.5 173.5,-171.5 55.5,-171.5"/>
<text text-anchor="middle" x="114.5" y="-178.5" font-family="FreeSans" font-size="10.00" fill="#000000">RawTowerGeomv1.h</text>
</a>
</g>
</g>
<!-- Node1&#45;&gt;Node2 -->
<g id="edge1" class="edge">
<title>Node1&#45;&gt;Node2</title>
<path fill="none" stroke="#191970" d="M114.5,-228.2882C114.5,-219.8377 114.5,-210.2557 114.5,-201.9736"/>
<polygon fill="#191970" stroke="#191970" points="118.0001,-201.7136 114.5,-191.7137 111.0001,-201.7137 118.0001,-201.7136"/>
</g>
<!-- Node5 -->
<g id="node5" class="node">
<title>Node5</title>
<polygon fill="none" stroke="#bfbfbf" points="79.5,-.5 79.5,-20.5 139.5,-20.5 139.5,-.5 79.5,-.5"/>
<text text-anchor="middle" x="109.5" y="-7.5" font-family="FreeSans" font-size="10.00" fill="#000000">iostream</text>
</g>
<!-- Node1&#45;&gt;Node5 -->
<g id="edge16" class="edge">
<title>Node1&#45;&gt;Node5</title>
<path fill="none" stroke="#191970" d="M77.8339,-228.412C65.5037,-218.8963 53.1893,-206.5789 46.5,-192 19.9406,-134.1158 68.0462,-61.6105 94.2139,-28.4949"/>
<polygon fill="#191970" stroke="#191970" points="97.0408,-30.566 100.6345,-20.5992 91.6098,-26.1495 97.0408,-30.566"/>
</g>
<!-- Node11 -->
<g id="node11" class="node">
<title>Node11</title>
<polygon fill="none" stroke="#bfbfbf" points="191.5,-171.5 191.5,-191.5 239.5,-191.5 239.5,-171.5 191.5,-171.5"/>
<text text-anchor="middle" x="215.5" y="-178.5" font-family="FreeSans" font-size="10.00" fill="#000000">cmath</text>
</g>
<!-- Node1&#45;&gt;Node11 -->
<g id="edge15" class="edge">
<title>Node1&#45;&gt;Node11</title>
<path fill="none" stroke="#191970" d="M146.7347,-228.4783C161.605,-218.3194 178.9173,-206.4922 192.4509,-197.2464"/>
<polygon fill="#191970" stroke="#191970" points="194.4524,-200.1179 200.7352,-191.5869 190.5037,-194.3379 194.4524,-200.1179"/>
</g>
<!-- Node3 -->
<g id="node3" class="node">
<title>Node3</title>
<g id="a_node3"><a xlink:href="../../d1/dc2/RawTowerGeom_8h.html" target="_top" xlink:title="RawTowerGeom.h">
<polygon fill="none" stroke="#000000" points="91.5,-114.5 91.5,-134.5 197.5,-134.5 197.5,-114.5 91.5,-114.5"/>
<text text-anchor="middle" x="144.5" y="-121.5" font-family="FreeSans" font-size="10.00" fill="#000000">RawTowerGeom.h</text>
</a>
</g>
</g>
<!-- Node2&#45;&gt;Node3 -->
<g id="edge2" class="edge">
<title>Node2&#45;&gt;Node3</title>
<path fill="none" stroke="#191970" d="M119.8634,-171.3095C123.9162,-163.6093 129.5965,-152.8166 134.4817,-143.5349"/>
<polygon fill="#191970" stroke="#191970" points="137.6227,-145.0816 139.183,-134.6022 131.4283,-141.8213 137.6227,-145.0816"/>
</g>
<!-- Node4 -->
<g id="node4" class="node">
<title>Node4</title>
<g id="a_node4"><a xlink:href="../../d2/dd1/RawTowerDefs_8h.html" target="_top" xlink:title="RawTowerDefs.h">
<polygon fill="none" stroke="#000000" points="327.5,-57.5 327.5,-77.5 425.5,-77.5 425.5,-57.5 327.5,-57.5"/>
<text text-anchor="middle" x="376.5" y="-64.5" font-family="FreeSans" font-size="10.00" fill="#000000">RawTowerDefs.h</text>
</a>
</g>
</g>
<!-- Node2&#45;&gt;Node4 -->
<g id="edge13" class="edge">
<title>Node2&#45;&gt;Node4</title>
<path fill="none" stroke="#191970" d="M137.7508,-171.3833C184.5565,-151.0174 290.2445,-105.031 343.9118,-81.6796"/>
<polygon fill="#191970" stroke="#191970" points="345.5282,-84.7933 353.3014,-77.5941 342.7353,-78.3746 345.5282,-84.7933"/>
</g>
<!-- Node2&#45;&gt;Node5 -->
<g id="edge14" class="edge">
<title>Node2&#45;&gt;Node5</title>
<path fill="none" stroke="#191970" d="M104.8286,-171.4051C97.0997,-162.5891 86.8633,-149.0372 82.5,-135 78.436,-121.9259 78.9446,-81.2012 85.5,-57 88.0949,-47.4201 92.846,-37.5481 97.4403,-29.3781"/>
<polygon fill="#191970" stroke="#191970" points="100.5066,-31.0697 102.623,-20.6884 94.4946,-27.484 100.5066,-31.0697"/>
</g>
<!-- Node3&#45;&gt;Node4 -->
<g id="edge3" class="edge">
<title>Node3&#45;&gt;Node4</title>
<path fill="none" stroke="#191970" d="M185.4429,-114.4408C224.5822,-104.8246 283.6999,-90.3 325.799,-79.9567"/>
<polygon fill="#191970" stroke="#191970" points="326.7008,-83.3393 335.5769,-77.5544 325.0306,-76.5415 326.7008,-83.3393"/>
</g>
<!-- Node3&#45;&gt;Node5 -->
<g id="edge12" class="edge">
<title>Node3&#45;&gt;Node5</title>
<path fill="none" stroke="#191970" d="M126.9259,-114.3885C114.7529,-106.2886 99.5217,-93.6986 92.5,-78 85.5914,-62.5542 91.3253,-43.8122 97.939,-30.0001"/>
<polygon fill="#191970" stroke="#191970" points="101.1545,-31.4069 102.7422,-20.9317 94.9686,-28.1305 101.1545,-31.4069"/>
</g>
<!-- Node8 -->
<g id="node8" class="node">
<title>Node8</title>
<g id="a_node8"><a xlink:href="../../df/d32/PHObject_8h.html" target="_top" xlink:title="phool/PHObject.h">
<polygon fill="none" stroke="#000000" points="205.5,-57.5 205.5,-77.5 309.5,-77.5 309.5,-57.5 205.5,-57.5"/>
<text text-anchor="middle" x="257.5" y="-64.5" font-family="FreeSans" font-size="10.00" fill="#000000">phool/PHObject.h</text>
</a>
</g>
</g>
<!-- Node3&#45;&gt;Node8 -->
<g id="edge7" class="edge">
<title>Node3&#45;&gt;Node8</title>
<path fill="none" stroke="#191970" d="M164.442,-114.4408C182.1639,-105.5014 208.2951,-92.3202 228.3588,-82.1996"/>
<polygon fill="#191970" stroke="#191970" points="230.0251,-85.2791 237.3772,-77.6504 226.8725,-79.0292 230.0251,-85.2791"/>
</g>
<!-- Node10 -->
<g id="node10" class="node">
<title>Node10</title>
<g id="a_node10"><a xlink:href="../../d5/d6f/phool_8h.html" target="_top" xlink:title="phool/phool.h">
<polygon fill="none" stroke="#000000" points="102,-57.5 102,-77.5 187,-77.5 187,-57.5 102,-57.5"/>
<text text-anchor="middle" x="144.5" y="-64.5" font-family="FreeSans" font-size="10.00" fill="#000000">phool/phool.h</text>
</a>
</g>
</g>
<!-- Node3&#45;&gt;Node10 -->
<g id="edge10" class="edge">
<title>Node3&#45;&gt;Node10</title>
<path fill="none" stroke="#191970" d="M144.5,-114.3095C144.5,-106.9335 144.5,-96.72 144.5,-87.715"/>
<polygon fill="#191970" stroke="#191970" points="148.0001,-87.6022 144.5,-77.6022 141.0001,-87.6023 148.0001,-87.6022"/>
</g>
<!-- Node4&#45;&gt;Node5 -->
<g id="edge4" class="edge">
<title>Node4&#45;&gt;Node5</title>
<path fill="none" stroke="#191970" d="M329.3804,-57.4408C278.3329,-46.543 197.7557,-29.3411 149.6219,-19.0654"/>
<polygon fill="#191970" stroke="#191970" points="150.0853,-15.5855 139.5749,-16.9205 148.6238,-22.4312 150.0853,-15.5855"/>
</g>
<!-- Node6 -->
<g id="node6" class="node">
<title>Node6</title>
<polygon fill="none" stroke="#bfbfbf" points="331,-.5 331,-20.5 376,-20.5 376,-.5 331,-.5"/>
<text text-anchor="middle" x="353.5" y="-7.5" font-family="FreeSans" font-size="10.00" fill="#000000">string</text>
</g>
<!-- Node4&#45;&gt;Node6 -->
<g id="edge5" class="edge">
<title>Node4&#45;&gt;Node6</title>
<path fill="none" stroke="#191970" d="M372.3881,-57.3095C369.3463,-49.7714 365.1088,-39.2696 361.4181,-30.123"/>
<polygon fill="#191970" stroke="#191970" points="364.5641,-28.566 357.5763,-20.6022 358.0726,-31.1854 364.5641,-28.566"/>
</g>
<!-- Node7 -->
<g id="node7" class="node">
<title>Node7</title>
<polygon fill="none" stroke="#bfbfbf" points="394.5,-.5 394.5,-20.5 444.5,-20.5 444.5,-.5 394.5,-.5"/>
<text text-anchor="middle" x="419.5" y="-7.5" font-family="FreeSans" font-size="10.00" fill="#000000">cstdlib</text>
</g>
<!-- Node4&#45;&gt;Node7 -->
<g id="edge6" class="edge">
<title>Node4&#45;&gt;Node7</title>
<path fill="none" stroke="#191970" d="M384.1875,-57.3095C390.18,-49.3661 398.6549,-38.1319 405.8002,-28.6602"/>
<polygon fill="#191970" stroke="#191970" points="408.6507,-30.6933 411.879,-20.6022 403.0625,-26.4776 408.6507,-30.6933"/>
</g>
<!-- Node8&#45;&gt;Node5 -->
<g id="edge9" class="edge">
<title>Node8&#45;&gt;Node5</title>
<path fill="none" stroke="#191970" d="M231.3813,-57.4408C207.4352,-48.2183 171.7663,-34.4809 145.1948,-24.2473"/>
<polygon fill="#191970" stroke="#191970" points="146.4452,-20.9784 135.8555,-20.6504 143.9294,-27.5106 146.4452,-20.9784"/>
</g>
<!-- Node9 -->
<g id="node9" class="node">
<title>Node9</title>
<polygon fill="none" stroke="#bfbfbf" points="225,-.5 225,-20.5 290,-20.5 290,-.5 225,-.5"/>
<text text-anchor="middle" x="257.5" y="-7.5" font-family="FreeSans" font-size="10.00" fill="#000000">TObject.h</text>
</g>
<!-- Node8&#45;&gt;Node9 -->
<g id="edge8" class="edge">
<title>Node8&#45;&gt;Node9</title>
<path fill="none" stroke="#191970" d="M257.5,-57.3095C257.5,-49.9335 257.5,-39.72 257.5,-30.715"/>
<polygon fill="#191970" stroke="#191970" points="261.0001,-30.6022 257.5,-20.6022 254.0001,-30.6023 261.0001,-30.6022"/>
</g>
<!-- Node10&#45;&gt;Node5 -->
<g id="edge11" class="edge">
<title>Node10&#45;&gt;Node5</title>
<path fill="none" stroke="#191970" d="M138.2427,-57.3095C133.4647,-49.5282 126.7477,-38.589 121.0084,-29.2423"/>
<polygon fill="#191970" stroke="#191970" points="123.9184,-27.2925 115.7031,-20.6022 117.9532,-30.9554 123.9184,-27.2925"/>
</g>
</g>
</svg>
