<?xml version="1.0" encoding="UTF-8" standalone="no"?>
<!DOCTYPE svg PUBLIC "-//W3C//DTD SVG 1.1//EN"
 "http://www.w3.org/Graphics/SVG/1.1/DTD/svg11.dtd">
<!-- Generated by graphviz version 2.40.1 (20161225.0304)
 -->
<!-- Title: fun4all_coresoftware/blob/master/offline/packages/trackbase_historic/SvtxVertexMap.h Pages: 1 -->
<svg width="4396pt" height="251pt"
 viewBox="0.00 0.00 4396.00 251.00" xmlns="http://www.w3.org/2000/svg" xmlns:xlink="http://www.w3.org/1999/xlink">
<g id="graph0" class="graph" transform="scale(1 1) rotate(0) translate(4 247)">
<title>fun4all_coresoftware/blob/master/offline/packages/trackbase_historic/SvtxVertexMap.h</title>
<!-- Node1 -->
<g id="node1" class="node">
<title>Node1</title>
<polygon fill="#bfbfbf" stroke="#000000" points="1820.5,-186.5 1820.5,-242.5 1984.5,-242.5 1984.5,-186.5 1820.5,-186.5"/>
<text text-anchor="start" x="1828.5" y="-229.5" font-family="FreeSans" font-size="10.00" fill="#000000">fun4all_coresoftware</text>
<text text-anchor="start" x="1828.5" y="-217.5" font-family="FreeSans" font-size="10.00" fill="#000000">/blob/master/offline</text>
<text text-anchor="start" x="1828.5" y="-205.5" font-family="FreeSans" font-size="10.00" fill="#000000">/packages/trackbase_historic</text>
<text text-anchor="middle" x="1902.5" y="-193.5" font-family="FreeSans" font-size="10.00" fill="#000000">/SvtxVertexMap.h</text>
</g>
<!-- Node2 -->
<g id="node2" class="node">
<title>Node2</title>
<g id="a_node2"><a xlink:href="../../de/db9/DumpSvtxVertexMap_8cc.html" target="_top" xlink:title="fun4all_coresoftware\l/blob/master/offline\l/packages/NodeDump/DumpSvtxVertex\lMap.cc">
<polygon fill="none" stroke="#000000" points="183,-93.5 183,-149.5 400,-149.5 400,-93.5 183,-93.5"/>
<text text-anchor="start" x="191" y="-136.5" font-family="FreeSans" font-size="10.00" fill="#000000">fun4all_coresoftware</text>
<text text-anchor="start" x="191" y="-124.5" font-family="FreeSans" font-size="10.00" fill="#000000">/blob/master/offline</text>
<text text-anchor="start" x="191" y="-112.5" font-family="FreeSans" font-size="10.00" fill="#000000">/packages/NodeDump/DumpSvtxVertex</text>
<text text-anchor="middle" x="291.5" y="-100.5" font-family="FreeSans" font-size="10.00" fill="#000000">Map.cc</text>
</a>
</g>
</g>
<!-- Node1&#45;&gt;Node2 -->
<g id="edge1" class="edge">
<title>Node1&#45;&gt;Node2</title>
<path fill="none" stroke="#191970" d="M1810.3186,-212.7307C1529.3335,-206.9857 686.2426,-187.0494 414.5,-150 409.8304,-149.3633 405.0776,-148.6326 400.2885,-147.8281"/>
<polygon fill="#191970" stroke="#191970" points="1810.407,-216.2331 1820.4761,-212.9372 1810.5493,-209.2346 1810.407,-216.2331"/>
</g>
<!-- Node3 -->
<g id="node3" class="node">
<title>Node3</title>
<g id="a_node3"><a xlink:href="../../d3/daf/SvtxVertexMap__v1_8h.html" target="_top" xlink:title="fun4all_coresoftware\l/blob/master/offline\l/packages/trackbase_historic\l/SvtxVertexMap_v1.h">
<polygon fill="none" stroke="#000000" points="494.5,-93.5 494.5,-149.5 658.5,-149.5 658.5,-93.5 494.5,-93.5"/>
<text text-anchor="start" x="502.5" y="-136.5" font-family="FreeSans" font-size="10.00" fill="#000000">fun4all_coresoftware</text>
<text text-anchor="start" x="502.5" y="-124.5" font-family="FreeSans" font-size="10.00" fill="#000000">/blob/master/offline</text>
<text text-anchor="start" x="502.5" y="-112.5" font-family="FreeSans" font-size="10.00" fill="#000000">/packages/trackbase_historic</text>
<text text-anchor="middle" x="576.5" y="-100.5" font-family="FreeSans" font-size="10.00" fill="#000000">/SvtxVertexMap_v1.h</text>
</a>
</g>
</g>
<!-- Node1&#45;&gt;Node3 -->
<g id="edge2" class="edge">
<title>Node1&#45;&gt;Node3</title>
<path fill="none" stroke="#191970" d="M1810.3226,-212.485C1563.4282,-206.6377 891.1361,-187.6405 672.5,-150 667.9596,-149.2183 663.3305,-148.2931 658.6798,-147.2624"/>
<polygon fill="#191970" stroke="#191970" points="1810.2624,-215.9844 1820.3419,-212.7205 1810.427,-208.9863 1810.2624,-215.9844"/>
</g>
<!-- Node5 -->
<g id="node5" class="node">
<title>Node5</title>
<g id="a_node5"><a xlink:href="../../d0/d52/PHGenFitTrkFitter_8cc.html" target="_top" xlink:title="fun4all_coresoftware\l/blob/master/offline\l/packages/trackreco/PHGenFit\lTrkFitter.cc">
<polygon fill="none" stroke="#000000" points="0,-.5 0,-56.5 169,-56.5 169,-.5 0,-.5"/>
<text text-anchor="start" x="8" y="-43.5" font-family="FreeSans" font-size="10.00" fill="#000000">fun4all_coresoftware</text>
<text text-anchor="start" x="8" y="-31.5" font-family="FreeSans" font-size="10.00" fill="#000000">/blob/master/offline</text>
<text text-anchor="start" x="8" y="-19.5" font-family="FreeSans" font-size="10.00" fill="#000000">/packages/trackreco/PHGenFit</text>
<text text-anchor="middle" x="84.5" y="-7.5" font-family="FreeSans" font-size="10.00" fill="#000000">TrkFitter.cc</text>
</a>
</g>
</g>
<!-- Node1&#45;&gt;Node5 -->
<g id="edge11" class="edge">
<title>Node1&#45;&gt;Node5</title>
<path fill="none" stroke="#191970" d="M1810.143,-212.8247C1498.4131,-206.8578 501.2528,-185.1029 442.5,-150 417.1775,-134.8707 432.9487,-109.504 408.5,-93 322.3795,-34.8648 278.7641,-80.2816 177.5,-57 174.7022,-56.3568 171.8659,-55.6733 169.0085,-54.9577"/>
<polygon fill="#191970" stroke="#191970" points="1810.4324,-216.3308 1820.4973,-213.0219 1810.5658,-209.3321 1810.4324,-216.3308"/>
</g>
<!-- Node6 -->
<g id="node6" class="node">
<title>Node6</title>
<g id="a_node6"><a xlink:href="../../d8/d2a/PHInitVertexing_8cc.html" target="_top" xlink:title="fun4all_coresoftware\l/blob/master/offline\l/packages/trackreco/PHInitVertexing.cc">
<polygon fill="none" stroke="#000000" points="186.5,-6.5 186.5,-50.5 400.5,-50.5 400.5,-6.5 186.5,-6.5"/>
<text text-anchor="start" x="194.5" y="-37.5" font-family="FreeSans" font-size="10.00" fill="#000000">fun4all_coresoftware</text>
<text text-anchor="start" x="194.5" y="-25.5" font-family="FreeSans" font-size="10.00" fill="#000000">/blob/master/offline</text>
<text text-anchor="middle" x="293.5" y="-13.5" font-family="FreeSans" font-size="10.00" fill="#000000">/packages/trackreco/PHInitVertexing.cc</text>
</a>
</g>
</g>
<!-- Node1&#45;&gt;Node6 -->
<g id="edge14" class="edge">
<title>Node1&#45;&gt;Node6</title>
<path fill="none" stroke="#191970" d="M1810.1174,-212.4526C1504.7819,-205.4045 544.083,-180.8715 485.5,-150 457.4261,-135.2059 467.4419,-112.6192 442.5,-93 419.4587,-74.8759 390.5477,-60.8326 364.3387,-50.5456"/>
<polygon fill="#191970" stroke="#191970" points="1810.1876,-215.9551 1820.2655,-212.686 1810.3486,-208.9569 1810.1876,-215.9551"/>
</g>
<!-- Node7 -->
<g id="node7" class="node">
<title>Node7</title>
<g id="a_node7"><a xlink:href="../../d4/d68/PHPatternReco_8cc.html" target="_top" xlink:title="fun4all_coresoftware\l/blob/master/offline\l/packages/trackreco/PHPattern\lReco.cc">
<polygon fill="none" stroke="#000000" points="600.5,-.5 600.5,-56.5 772.5,-56.5 772.5,-.5 600.5,-.5"/>
<text text-anchor="start" x="608.5" y="-43.5" font-family="FreeSans" font-size="10.00" fill="#000000">fun4all_coresoftware</text>
<text text-anchor="start" x="608.5" y="-31.5" font-family="FreeSans" font-size="10.00" fill="#000000">/blob/master/offline</text>
<text text-anchor="start" x="608.5" y="-19.5" font-family="FreeSans" font-size="10.00" fill="#000000">/packages/trackreco/PHPattern</text>
<text text-anchor="middle" x="686.5" y="-7.5" font-family="FreeSans" font-size="10.00" fill="#000000">Reco.cc</text>
</a>
</g>
</g>
<!-- Node1&#45;&gt;Node7 -->
<g id="edge16" class="edge">
<title>Node1&#45;&gt;Node7</title>
<path fill="none" stroke="#191970" d="M1810.4498,-211.8478C1544.7742,-203.8645 792.7483,-178.8255 748.5,-150 716.157,-128.9302 699.8653,-85.434 692.2968,-56.612"/>
<polygon fill="#191970" stroke="#191970" points="1810.3543,-215.3464 1820.4546,-212.1472 1810.5638,-208.3495 1810.3543,-215.3464"/>
</g>
<!-- Node8 -->
<g id="node8" class="node">
<title>Node8</title>
<g id="a_node8"><a xlink:href="../../d0/d76/PHRaveVertexing_8cc.html" target="_top" xlink:title="fun4all_coresoftware\l/blob/master/offline\l/packages/trackreco/PHRaveVertexing.cc">
<polygon fill="none" stroke="#000000" points="790.5,-6.5 790.5,-50.5 1014.5,-50.5 1014.5,-6.5 790.5,-6.5"/>
<text text-anchor="start" x="798.5" y="-37.5" font-family="FreeSans" font-size="10.00" fill="#000000">fun4all_coresoftware</text>
<text text-anchor="start" x="798.5" y="-25.5" font-family="FreeSans" font-size="10.00" fill="#000000">/blob/master/offline</text>
<text text-anchor="middle" x="902.5" y="-13.5" font-family="FreeSans" font-size="10.00" fill="#000000">/packages/trackreco/PHRaveVertexing.cc</text>
</a>
</g>
</g>
<!-- Node1&#45;&gt;Node8 -->
<g id="edge17" class="edge">
<title>Node1&#45;&gt;Node8</title>
<path fill="none" stroke="#191970" d="M1810.1244,-212.6834C1545.3278,-207.029 800.23,-187.8124 764.5,-150 747.1008,-131.5868 750.8979,-114.372 764.5,-93 776.7826,-73.7012 796.5203,-60.0802 817.2728,-50.5034"/>
<polygon fill="#191970" stroke="#191970" points="1810.4053,-216.1901 1820.4773,-212.9028 1810.5537,-209.1916 1810.4053,-216.1901"/>
</g>
<!-- Node9 -->
<g id="node9" class="node">
<title>Node9</title>
<g id="a_node9"><a xlink:href="../../df/dca/PHG4TrackFastSim_8cc.html" target="_top" xlink:title="Kalman Filter based on smeared truth PHG4Hit.">
<polygon fill="none" stroke="#000000" points="1033,-.5 1033,-56.5 1198,-56.5 1198,-.5 1033,-.5"/>
<text text-anchor="start" x="1041" y="-43.5" font-family="FreeSans" font-size="10.00" fill="#000000">fun4all_coresoftware</text>
<text text-anchor="start" x="1041" y="-31.5" font-family="FreeSans" font-size="10.00" fill="#000000">/blob/master/simulation</text>
<text text-anchor="start" x="1041" y="-19.5" font-family="FreeSans" font-size="10.00" fill="#000000">/g4simulation/g4trackfastsim</text>
<text text-anchor="middle" x="1115.5" y="-7.5" font-family="FreeSans" font-size="10.00" fill="#000000">/PHG4TrackFastSim.cc</text>
</a>
</g>
</g>
<!-- Node1&#45;&gt;Node9 -->
<g id="edge26" class="edge">
<title>Node1&#45;&gt;Node9</title>
<path fill="none" stroke="#191970" d="M1810.1218,-212.6003C1548.0776,-206.7645 816.6201,-187.1989 781.5,-150 764.1087,-131.5793 764.9569,-112.1861 781.5,-93 817.0042,-51.8235 970.4893,-69.0794 1023.5,-57 1026.5976,-56.2942 1029.7422,-55.5361 1032.9097,-54.7375"/>
<polygon fill="#191970" stroke="#191970" points="1810.2952,-216.1049 1820.3701,-212.8269 1810.45,-209.1066 1810.2952,-216.1049"/>
</g>
<!-- Node10 -->
<g id="node10" class="node">
<title>Node10</title>
<g id="a_node10"><a xlink:href="../../df/d56/PH3DVertexing_8cc.html" target="_top" xlink:title="fun4all_coresoftware\l/blob/master/offline\l/packages/trackreco/PH3DVertexing.cc">
<polygon fill="none" stroke="#000000" points="790.5,-99.5 790.5,-143.5 1002.5,-143.5 1002.5,-99.5 790.5,-99.5"/>
<text text-anchor="start" x="798.5" y="-130.5" font-family="FreeSans" font-size="10.00" fill="#000000">fun4all_coresoftware</text>
<text text-anchor="start" x="798.5" y="-118.5" font-family="FreeSans" font-size="10.00" fill="#000000">/blob/master/offline</text>
<text text-anchor="middle" x="896.5" y="-106.5" font-family="FreeSans" font-size="10.00" fill="#000000">/packages/trackreco/PH3DVertexing.cc</text>
</a>
</g>
</g>
<!-- Node1&#45;&gt;Node10 -->
<g id="edge9" class="edge">
<title>Node1&#45;&gt;Node10</title>
<path fill="none" stroke="#191970" d="M1809.8326,-212.9884C1647.2398,-209.1821 1300.3927,-195.9096 1011.5,-150 1000.6318,-148.2729 989.2836,-146.0229 978.1307,-143.5441"/>
<polygon fill="#191970" stroke="#191970" points="1810.1963,-216.4975 1820.2732,-213.2257 1810.3554,-209.4993 1810.1963,-216.4975"/>
</g>
<!-- Node11 -->
<g id="node11" class="node">
<title>Node11</title>
<g id="a_node11"><a xlink:href="../../d8/df7/PHCASeeding_8cc.html" target="_top" xlink:title="fun4all_coresoftware\l/blob/master/offline\l/packages/trackreco/PHCASeeding.cc">
<polygon fill="none" stroke="#000000" points="1020,-99.5 1020,-143.5 1225,-143.5 1225,-99.5 1020,-99.5"/>
<text text-anchor="start" x="1028" y="-130.5" font-family="FreeSans" font-size="10.00" fill="#000000">fun4all_coresoftware</text>
<text text-anchor="start" x="1028" y="-118.5" font-family="FreeSans" font-size="10.00" fill="#000000">/blob/master/offline</text>
<text text-anchor="middle" x="1122.5" y="-106.5" font-family="FreeSans" font-size="10.00" fill="#000000">/packages/trackreco/PHCASeeding.cc</text>
</a>
</g>
</g>
<!-- Node1&#45;&gt;Node11 -->
<g id="edge10" class="edge">
<title>Node1&#45;&gt;Node11</title>
<path fill="none" stroke="#191970" d="M1810.2023,-210.0589C1680.7646,-202.8183 1438.3071,-185.5553 1234.5,-150 1224.2219,-148.2069 1213.4982,-145.9664 1202.934,-143.5341"/>
<polygon fill="#191970" stroke="#191970" points="1810.289,-213.5689 1820.4667,-210.6253 1810.6747,-206.5796 1810.289,-213.5689"/>
</g>
<!-- Node12 -->
<g id="node12" class="node">
<title>Node12</title>
<g id="a_node12"><a xlink:href="../../da/d80/PHGenFitTrkProp_8cc.html" target="_top" xlink:title="fun4all_coresoftware\l/blob/master/offline\l/packages/trackreco/PHGenFit\lTrkProp.cc">
<polygon fill="none" stroke="#000000" points="1243,-93.5 1243,-149.5 1412,-149.5 1412,-93.5 1243,-93.5"/>
<text text-anchor="start" x="1251" y="-136.5" font-family="FreeSans" font-size="10.00" fill="#000000">fun4all_coresoftware</text>
<text text-anchor="start" x="1251" y="-124.5" font-family="FreeSans" font-size="10.00" fill="#000000">/blob/master/offline</text>
<text text-anchor="start" x="1251" y="-112.5" font-family="FreeSans" font-size="10.00" fill="#000000">/packages/trackreco/PHGenFit</text>
<text text-anchor="middle" x="1327.5" y="-100.5" font-family="FreeSans" font-size="10.00" fill="#000000">TrkProp.cc</text>
</a>
</g>
</g>
<!-- Node1&#45;&gt;Node12 -->
<g id="edge12" class="edge">
<title>Node1&#45;&gt;Node12</title>
<path fill="none" stroke="#191970" d="M1809.9862,-206.5583C1712.5709,-197.1585 1555.0955,-179.0118 1421.5,-150 1418.417,-149.3305 1415.2888,-148.6089 1412.1378,-147.8463"/>
<polygon fill="#191970" stroke="#191970" points="1809.8119,-210.0575 1820.0992,-207.5235 1810.477,-203.0892 1809.8119,-210.0575"/>
</g>
<!-- Node13 -->
<g id="node13" class="node">
<title>Node13</title>
<g id="a_node13"><a xlink:href="../../d8/dbe/PHHoughSeeding_8cc.html" target="_top" xlink:title="fun4all_coresoftware\l/blob/master/offline\l/packages/trackreco/PHHoughSeeding.cc">
<polygon fill="none" stroke="#000000" points="1430,-99.5 1430,-143.5 1655,-143.5 1655,-99.5 1430,-99.5"/>
<text text-anchor="start" x="1438" y="-130.5" font-family="FreeSans" font-size="10.00" fill="#000000">fun4all_coresoftware</text>
<text text-anchor="start" x="1438" y="-118.5" font-family="FreeSans" font-size="10.00" fill="#000000">/blob/master/offline</text>
<text text-anchor="middle" x="1542.5" y="-106.5" font-family="FreeSans" font-size="10.00" fill="#000000">/packages/trackreco/PHHoughSeeding.cc</text>
</a>
</g>
</g>
<!-- Node1&#45;&gt;Node13 -->
<g id="edge13" class="edge">
<title>Node1&#45;&gt;Node13</title>
<path fill="none" stroke="#191970" d="M1810.3968,-190.7067C1754.134,-176.1721 1682.6868,-157.7149 1627.729,-143.5175"/>
<polygon fill="#191970" stroke="#191970" points="1809.8024,-194.168 1820.36,-193.2805 1811.5533,-187.3904 1809.8024,-194.168"/>
</g>
<!-- Node14 -->
<g id="node14" class="node">
<title>Node14</title>
<g id="a_node14"><a xlink:href="../../d8/dda/PHInitZVertexing_8cc.html" target="_top" xlink:title="fun4all_coresoftware\l/blob/master/offline\l/packages/trackreco/PHInitZVertexing.cc">
<polygon fill="none" stroke="#000000" points="1673,-99.5 1673,-143.5 1894,-143.5 1894,-99.5 1673,-99.5"/>
<text text-anchor="start" x="1681" y="-130.5" font-family="FreeSans" font-size="10.00" fill="#000000">fun4all_coresoftware</text>
<text text-anchor="start" x="1681" y="-118.5" font-family="FreeSans" font-size="10.00" fill="#000000">/blob/master/offline</text>
<text text-anchor="middle" x="1783.5" y="-106.5" font-family="FreeSans" font-size="10.00" fill="#000000">/packages/trackreco/PHInitZVertexing.cc</text>
</a>
</g>
</g>
<!-- Node1&#45;&gt;Node14 -->
<g id="edge15" class="edge">
<title>Node1&#45;&gt;Node14</title>
<path fill="none" stroke="#191970" d="M1858.486,-180.1025C1842.8991,-167.9211 1825.7883,-154.5488 1811.8523,-143.6577"/>
<polygon fill="#191970" stroke="#191970" points="1856.4387,-182.9445 1866.4731,-186.3446 1860.7491,-177.429 1856.4387,-182.9445"/>
</g>
<!-- Node15 -->
<g id="node15" class="node">
<title>Node15</title>
<g id="a_node15"><a xlink:href="../../d7/d3c/PHRTreeSeeding_8cc.html" target="_top" xlink:title="fun4all_coresoftware\l/blob/master/offline\l/packages/trackreco/PHRTreeSeeding.cc">
<polygon fill="none" stroke="#000000" points="1912,-99.5 1912,-143.5 2131,-143.5 2131,-99.5 1912,-99.5"/>
<text text-anchor="start" x="1920" y="-130.5" font-family="FreeSans" font-size="10.00" fill="#000000">fun4all_coresoftware</text>
<text text-anchor="start" x="1920" y="-118.5" font-family="FreeSans" font-size="10.00" fill="#000000">/blob/master/offline</text>
<text text-anchor="middle" x="2021.5" y="-106.5" font-family="FreeSans" font-size="10.00" fill="#000000">/packages/trackreco/PHRTreeSeeding.cc</text>
</a>
</g>
</g>
<!-- Node1&#45;&gt;Node15 -->
<g id="edge18" class="edge">
<title>Node1&#45;&gt;Node15</title>
<path fill="none" stroke="#191970" d="M1946.514,-180.1025C1962.1009,-167.9211 1979.2117,-154.5488 1993.1477,-143.6577"/>
<polygon fill="#191970" stroke="#191970" points="1944.2509,-177.429 1938.5269,-186.3446 1948.5613,-182.9445 1944.2509,-177.429"/>
</g>
<!-- Node16 -->
<g id="node16" class="node">
<title>Node16</title>
<g id="a_node16"><a xlink:href="../../d5/d4f/PHTrackFitting_8cc.html" target="_top" xlink:title="fun4all_coresoftware\l/blob/master/offline\l/packages/trackreco/PHTrackFitting.cc">
<polygon fill="none" stroke="#000000" points="2149.5,-99.5 2149.5,-143.5 2357.5,-143.5 2357.5,-99.5 2149.5,-99.5"/>
<text text-anchor="start" x="2157.5" y="-130.5" font-family="FreeSans" font-size="10.00" fill="#000000">fun4all_coresoftware</text>
<text text-anchor="start" x="2157.5" y="-118.5" font-family="FreeSans" font-size="10.00" fill="#000000">/blob/master/offline</text>
<text text-anchor="middle" x="2253.5" y="-106.5" font-family="FreeSans" font-size="10.00" fill="#000000">/packages/trackreco/PHTrackFitting.cc</text>
</a>
</g>
</g>
<!-- Node1&#45;&gt;Node16 -->
<g id="edge19" class="edge">
<title>Node1&#45;&gt;Node16</title>
<path fill="none" stroke="#191970" d="M1994.7821,-190.0492C2049.1764,-175.637 2117.449,-157.5477 2170.2006,-143.5708"/>
<polygon fill="#191970" stroke="#191970" points="1993.5639,-186.7511 1984.7939,-192.6956 1995.3568,-193.5176 1993.5639,-186.7511"/>
</g>
<!-- Node17 -->
<g id="node17" class="node">
<title>Node17</title>
<g id="a_node17"><a xlink:href="../../d9/d52/PHTrackPropagating_8cc.html" target="_top" xlink:title="fun4all_coresoftware\l/blob/master/offline\l/packages/trackreco/PHTrackPropagating.cc">
<polygon fill="none" stroke="#000000" points="2376,-99.5 2376,-143.5 2613,-143.5 2613,-99.5 2376,-99.5"/>
<text text-anchor="start" x="2384" y="-130.5" font-family="FreeSans" font-size="10.00" fill="#000000">fun4all_coresoftware</text>
<text text-anchor="start" x="2384" y="-118.5" font-family="FreeSans" font-size="10.00" fill="#000000">/blob/master/offline</text>
<text text-anchor="middle" x="2494.5" y="-106.5" font-family="FreeSans" font-size="10.00" fill="#000000">/packages/trackreco/PHTrackPropagating.cc</text>
</a>
</g>
</g>
<!-- Node1&#45;&gt;Node17 -->
<g id="edge20" class="edge">
<title>Node1&#45;&gt;Node17</title>
<path fill="none" stroke="#191970" d="M1994.5753,-203.9305C2088.4502,-192.6321 2238.1174,-173.1765 2366.5,-150 2377.254,-148.0586 2388.4753,-145.8433 2399.6105,-143.525"/>
<polygon fill="#191970" stroke="#191970" points="1994.0523,-200.468 1984.5396,-205.1328 1994.885,-207.4183 1994.0523,-200.468"/>
</g>
<!-- Node18 -->
<g id="node18" class="node">
<title>Node18</title>
<g id="a_node18"><a xlink:href="../../db/dff/PHTrackSeeding_8cc.html" target="_top" xlink:title="fun4all_coresoftware\l/blob/master/offline\l/packages/trackreco/PHTrackSeeding.cc">
<polygon fill="none" stroke="#000000" points="2631.5,-99.5 2631.5,-143.5 2849.5,-143.5 2849.5,-99.5 2631.5,-99.5"/>
<text text-anchor="start" x="2639.5" y="-130.5" font-family="FreeSans" font-size="10.00" fill="#000000">fun4all_coresoftware</text>
<text text-anchor="start" x="2639.5" y="-118.5" font-family="FreeSans" font-size="10.00" fill="#000000">/blob/master/offline</text>
<text text-anchor="middle" x="2740.5" y="-106.5" font-family="FreeSans" font-size="10.00" fill="#000000">/packages/trackreco/PHTrackSeeding.cc</text>
</a>
</g>
</g>
<!-- Node1&#45;&gt;Node18 -->
<g id="edge21" class="edge">
<title>Node1&#45;&gt;Node18</title>
<path fill="none" stroke="#191970" d="M1994.5918,-210.6063C2132.0503,-203.813 2398.6988,-186.8443 2622.5,-150 2633.3135,-148.2198 2644.6027,-145.9869 2655.7282,-143.5586"/>
<polygon fill="#191970" stroke="#191970" points="1994.3353,-207.1146 1984.5175,-211.0973 1994.6761,-214.1063 1994.3353,-207.1146"/>
</g>
<!-- Node19 -->
<g id="node19" class="node">
<title>Node19</title>
<g id="a_node19"><a xlink:href="../../dc/dbf/PHTrackSetMerging_8cc.html" target="_top" xlink:title="fun4all_coresoftware\l/blob/master/offline\l/packages/trackreco/PHTrackSet\lMerging.cc">
<polygon fill="none" stroke="#000000" points="2867.5,-93.5 2867.5,-149.5 3047.5,-149.5 3047.5,-93.5 2867.5,-93.5"/>
<text text-anchor="start" x="2875.5" y="-136.5" font-family="FreeSans" font-size="10.00" fill="#000000">fun4all_coresoftware</text>
<text text-anchor="start" x="2875.5" y="-124.5" font-family="FreeSans" font-size="10.00" fill="#000000">/blob/master/offline</text>
<text text-anchor="start" x="2875.5" y="-112.5" font-family="FreeSans" font-size="10.00" fill="#000000">/packages/trackreco/PHTrackSet</text>
<text text-anchor="middle" x="2957.5" y="-100.5" font-family="FreeSans" font-size="10.00" fill="#000000">Merging.cc</text>
</a>
</g>
</g>
<!-- Node1&#45;&gt;Node19 -->
<g id="edge22" class="edge">
<title>Node1&#45;&gt;Node19</title>
<path fill="none" stroke="#191970" d="M1995.0654,-210.7695C2201.5164,-202.0404 2694.3565,-178.8245 2858.5,-150 2861.4066,-149.4896 2864.3499,-148.9266 2867.3129,-148.3198"/>
<polygon fill="#191970" stroke="#191970" points="1994.7013,-207.2816 1984.8574,-211.1992 1994.9957,-214.2754 1994.7013,-207.2816"/>
</g>
<!-- Node20 -->
<g id="node20" class="node">
<title>Node20</title>
<g id="a_node20"><a xlink:href="../../d1/d0a/PHTruthVertexing_8cc.html" target="_top" xlink:title="fun4all_coresoftware\l/blob/master/offline\l/packages/trackreco/PHTruthVertexing.cc">
<polygon fill="none" stroke="#000000" points="3065.5,-99.5 3065.5,-143.5 3289.5,-143.5 3289.5,-99.5 3065.5,-99.5"/>
<text text-anchor="start" x="3073.5" y="-130.5" font-family="FreeSans" font-size="10.00" fill="#000000">fun4all_coresoftware</text>
<text text-anchor="start" x="3073.5" y="-118.5" font-family="FreeSans" font-size="10.00" fill="#000000">/blob/master/offline</text>
<text text-anchor="middle" x="3177.5" y="-106.5" font-family="FreeSans" font-size="10.00" fill="#000000">/packages/trackreco/PHTruthVertexing.cc</text>
</a>
</g>
</g>
<!-- Node1&#45;&gt;Node20 -->
<g id="edge23" class="edge">
<title>Node1&#45;&gt;Node20</title>
<path fill="none" stroke="#191970" d="M1995.0176,-211.4274C2231.2161,-203.246 2852.2526,-179.5286 3056.5,-150 3068.141,-148.317 3080.3096,-146.0589 3092.2534,-143.5469"/>
<polygon fill="#191970" stroke="#191970" points="1994.6146,-207.9391 1984.7413,-211.7819 1994.856,-214.935 1994.6146,-207.9391"/>
</g>
<!-- Node21 -->
<g id="node21" class="node">
<title>Node21</title>
<g id="a_node21"><a xlink:href="../../d7/dd1/SvtxEvaluator_8cc.html" target="_top" xlink:title="fun4all_coresoftware\l/blob/master/simulation\l/g4simulation/g4eval/SvtxEvaluator.cc">
<polygon fill="none" stroke="#000000" points="3308,-99.5 3308,-143.5 3519,-143.5 3519,-99.5 3308,-99.5"/>
<text text-anchor="start" x="3316" y="-130.5" font-family="FreeSans" font-size="10.00" fill="#000000">fun4all_coresoftware</text>
<text text-anchor="start" x="3316" y="-118.5" font-family="FreeSans" font-size="10.00" fill="#000000">/blob/master/simulation</text>
<text text-anchor="middle" x="3413.5" y="-106.5" font-family="FreeSans" font-size="10.00" fill="#000000">/g4simulation/g4eval/SvtxEvaluator.cc</text>
</a>
</g>
</g>
<!-- Node1&#45;&gt;Node21 -->
<g id="edge24" class="edge">
<title>Node1&#45;&gt;Node21</title>
<path fill="none" stroke="#191970" d="M1995.0095,-212.6012C2264.4935,-206.6933 3045.7547,-186.7912 3298.5,-150 3309.7969,-148.3556 3321.6006,-146.0846 3333.1604,-143.5361"/>
<polygon fill="#191970" stroke="#191970" points="1994.7914,-209.1051 1984.87,-212.8222 1994.944,-216.1034 1994.7914,-209.1051"/>
</g>
<!-- Node22 -->
<g id="node22" class="node">
<title>Node22</title>
<g id="a_node22"><a xlink:href="../../d3/de1/SvtxVertexEval_8cc.html" target="_top" xlink:title="fun4all_coresoftware\l/blob/master/simulation\l/g4simulation/g4eval/SvtxVertex\lEval.cc">
<polygon fill="none" stroke="#000000" points="3537.5,-93.5 3537.5,-149.5 3719.5,-149.5 3719.5,-93.5 3537.5,-93.5"/>
<text text-anchor="start" x="3545.5" y="-136.5" font-family="FreeSans" font-size="10.00" fill="#000000">fun4all_coresoftware</text>
<text text-anchor="start" x="3545.5" y="-124.5" font-family="FreeSans" font-size="10.00" fill="#000000">/blob/master/simulation</text>
<text text-anchor="start" x="3545.5" y="-112.5" font-family="FreeSans" font-size="10.00" fill="#000000">/g4simulation/g4eval/SvtxVertex</text>
<text text-anchor="middle" x="3628.5" y="-100.5" font-family="FreeSans" font-size="10.00" fill="#000000">Eval.cc</text>
</a>
</g>
</g>
<!-- Node1&#45;&gt;Node22 -->
<g id="edge25" class="edge">
<title>Node1&#45;&gt;Node22</title>
<path fill="none" stroke="#191970" d="M1994.9728,-213.7211C2293.5659,-210.7522 3229.8858,-197.7746 3528.5,-150 3531.4412,-149.5294 3534.4188,-149.0011 3537.4157,-148.4245"/>
<polygon fill="#191970" stroke="#191970" points="1994.5872,-210.2246 1984.622,-213.8226 1994.6558,-217.2243 1994.5872,-210.2246"/>
</g>
<!-- Node23 -->
<g id="node23" class="node">
<title>Node23</title>
<g id="a_node23"><a xlink:href="../../d7/de6/PHG4TrackFastSimEval_8cc.html" target="_top" xlink:title="Evaluation module for PHG4TrackFastSim output.">
<polygon fill="none" stroke="#000000" points="3738,-93.5 3738,-149.5 3903,-149.5 3903,-93.5 3738,-93.5"/>
<text text-anchor="start" x="3746" y="-136.5" font-family="FreeSans" font-size="10.00" fill="#000000">fun4all_coresoftware</text>
<text text-anchor="start" x="3746" y="-124.5" font-family="FreeSans" font-size="10.00" fill="#000000">/blob/master/simulation</text>
<text text-anchor="start" x="3746" y="-112.5" font-family="FreeSans" font-size="10.00" fill="#000000">/g4simulation/g4trackfastsim</text>
<text text-anchor="middle" x="3820.5" y="-100.5" font-family="FreeSans" font-size="10.00" fill="#000000">/PHG4TrackFastSimEval.cc</text>
</a>
</g>
</g>
<!-- Node1&#45;&gt;Node23 -->
<g id="edge27" class="edge">
<title>Node1&#45;&gt;Node23</title>
<path fill="none" stroke="#191970" d="M1994.7498,-212.6744C2341.6961,-205.6119 3557.1978,-179.0276 3728.5,-150 3731.6323,-149.4692 3734.8065,-148.8602 3737.999,-148.1876"/>
<polygon fill="#191970" stroke="#191970" points="1994.6673,-209.1753 1984.7404,-212.8776 1994.8094,-216.1738 1994.6673,-209.1753"/>
</g>
<!-- Node24 -->
<g id="node24" class="node">
<title>Node24</title>
<g id="a_node24"><a xlink:href="../../d5/d60/GlobalVertexReco_8cc.html" target="_top" xlink:title="fun4all_coresoftware\l/blob/master/simulation\l/g4simulation/g4vertex\l/GlobalVertexReco.cc">
<polygon fill="none" stroke="#000000" points="3921,-93.5 3921,-149.5 4058,-149.5 4058,-93.5 3921,-93.5"/>
<text text-anchor="start" x="3929" y="-136.5" font-family="FreeSans" font-size="10.00" fill="#000000">fun4all_coresoftware</text>
<text text-anchor="start" x="3929" y="-124.5" font-family="FreeSans" font-size="10.00" fill="#000000">/blob/master/simulation</text>
<text text-anchor="start" x="3929" y="-112.5" font-family="FreeSans" font-size="10.00" fill="#000000">/g4simulation/g4vertex</text>
<text text-anchor="middle" x="3989.5" y="-100.5" font-family="FreeSans" font-size="10.00" fill="#000000">/GlobalVertexReco.cc</text>
</a>
</g>
</g>
<!-- Node1&#45;&gt;Node24 -->
<g id="edge28" class="edge">
<title>Node1&#45;&gt;Node24</title>
<path fill="none" stroke="#191970" d="M1994.6686,-213.2858C2363.6224,-208.1874 3723.2524,-187.0414 3912.5,-150 3915.2978,-149.4524 3918.1284,-148.8164 3920.9696,-148.1092"/>
<polygon fill="#191970" stroke="#191970" points="1994.517,-209.7874 1984.5661,-213.4248 1994.6134,-216.7868 1994.517,-209.7874"/>
</g>
<!-- Node25 -->
<g id="node25" class="node">
<title>Node25</title>
<g id="a_node25"><a xlink:href="../../d0/d67/AnaTutorial_8cc.html" target="_top" xlink:title="fun4all_tutorials/blob\l/master/AnaTutorial/src\l/AnaTutorial.cc">
<polygon fill="none" stroke="#000000" points="4076.5,-99.5 4076.5,-143.5 4210.5,-143.5 4210.5,-99.5 4076.5,-99.5"/>
<text text-anchor="start" x="4084.5" y="-130.5" font-family="FreeSans" font-size="10.00" fill="#000000">fun4all_tutorials/blob</text>
<text text-anchor="start" x="4084.5" y="-118.5" font-family="FreeSans" font-size="10.00" fill="#000000">/master/AnaTutorial/src</text>
<text text-anchor="middle" x="4143.5" y="-106.5" font-family="FreeSans" font-size="10.00" fill="#000000">/AnaTutorial.cc</text>
</a>
</g>
</g>
<!-- Node1&#45;&gt;Node25 -->
<g id="edge29" class="edge">
<title>Node1&#45;&gt;Node25</title>
<path fill="none" stroke="#191970" d="M1994.625,-213.5373C2381.2795,-209.2547 3862.4694,-190.3416 4067.5,-150 4075.3811,-148.4493 4083.5205,-146.1763 4091.4123,-143.5794"/>
<polygon fill="#191970" stroke="#191970" points="1994.5602,-210.0377 1984.5994,-213.6478 1994.6374,-217.0373 1994.5602,-210.0377"/>
</g>
<!-- Node26 -->
<g id="node26" class="node">
<title>Node26</title>
<g id="a_node26"><a xlink:href="../../de/d26/TrackFastSimEval_8cc.html" target="_top" xlink:title="g4lblvtx/blob/master\l/source/TrackFastSimEval.cc">
<polygon fill="none" stroke="#000000" points="4229,-105.5 4229,-137.5 4388,-137.5 4388,-105.5 4229,-105.5"/>
<text text-anchor="start" x="4237" y="-124.5" font-family="FreeSans" font-size="10.00" fill="#000000">g4lblvtx/blob/master</text>
<text text-anchor="middle" x="4308.5" y="-112.5" font-family="FreeSans" font-size="10.00" fill="#000000">/source/TrackFastSimEval.cc</text>
</a>
</g>
</g>
<!-- Node1&#45;&gt;Node26 -->
<g id="edge30" class="edge">
<title>Node1&#45;&gt;Node26</title>
<path fill="none" stroke="#191970" d="M1994.9419,-213.4653C2398.7942,-208.7364 3997.962,-187.7705 4219.5,-150 4235.1736,-147.3278 4251.8897,-142.5249 4266.5531,-137.6143"/>
<polygon fill="#191970" stroke="#191970" points="1994.7265,-209.9675 1984.7681,-213.584 1994.8082,-216.967 1994.7265,-209.9675"/>
</g>
<!-- Node4 -->
<g id="node4" class="node">
<title>Node4</title>
<g id="a_node4"><a xlink:href="../../d8/d22/SvtxVertexMap__v1_8cc.html" target="_top" xlink:title="fun4all_coresoftware\l/blob/master/offline\l/packages/trackbase_historic\l/SvtxVertexMap_v1.cc">
<polygon fill="none" stroke="#000000" points="418.5,-.5 418.5,-56.5 582.5,-56.5 582.5,-.5 418.5,-.5"/>
<text text-anchor="start" x="426.5" y="-43.5" font-family="FreeSans" font-size="10.00" fill="#000000">fun4all_coresoftware</text>
<text text-anchor="start" x="426.5" y="-31.5" font-family="FreeSans" font-size="10.00" fill="#000000">/blob/master/offline</text>
<text text-anchor="start" x="426.5" y="-19.5" font-family="FreeSans" font-size="10.00" fill="#000000">/packages/trackbase_historic</text>
<text text-anchor="middle" x="500.5" y="-7.5" font-family="FreeSans" font-size="10.00" fill="#000000">/SvtxVertexMap_v1.cc</text>
</a>
</g>
</g>
<!-- Node3&#45;&gt;Node4 -->
<g id="edge3" class="edge">
<title>Node3&#45;&gt;Node4</title>
<path fill="none" stroke="#191970" d="M547.0576,-85.4718C539.2176,-75.8781 530.8649,-65.6571 523.4305,-56.5597"/>
<polygon fill="#191970" stroke="#191970" points="544.4532,-87.816 553.4912,-93.3446 549.8735,-83.3865 544.4532,-87.816"/>
</g>
<!-- Node3&#45;&gt;Node5 -->
<g id="edge4" class="edge">
<title>Node3&#45;&gt;Node5</title>
<path fill="none" stroke="#191970" d="M484.3628,-100.961C470.3704,-98.1154 456.076,-95.3625 442.5,-93 325.4002,-72.6225 293.5927,-82.497 177.5,-57 174.7785,-56.4023 172.0215,-55.7632 169.2449,-55.0906"/>
<polygon fill="#191970" stroke="#191970" points="483.983,-104.4561 494.4835,-103.0451 485.395,-97.6 483.983,-104.4561"/>
</g>
<!-- Node3&#45;&gt;Node6 -->
<g id="edge5" class="edge">
<title>Node3&#45;&gt;Node6</title>
<path fill="none" stroke="#191970" d="M484.6817,-91.3265C444.308,-78.0588 397.7535,-62.76 360.6932,-50.5812"/>
<polygon fill="#191970" stroke="#191970" points="483.6716,-94.6787 494.2645,-94.4756 485.8571,-88.0285 483.6716,-94.6787"/>
</g>
<!-- Node3&#45;&gt;Node7 -->
<g id="edge6" class="edge">
<title>Node3&#45;&gt;Node7</title>
<path fill="none" stroke="#191970" d="M617.756,-86.6199C629.4921,-76.6976 642.1204,-66.021 653.311,-56.5597"/>
<polygon fill="#191970" stroke="#191970" points="615.1789,-84.2154 609.8021,-93.3446 619.6984,-89.561 615.1789,-84.2154"/>
</g>
<!-- Node3&#45;&gt;Node8 -->
<g id="edge7" class="edge">
<title>Node3&#45;&gt;Node8</title>
<path fill="none" stroke="#191970" d="M668.5069,-95.2526C717.9822,-81.1385 778.3028,-63.9305 825.3071,-50.5213"/>
<polygon fill="#191970" stroke="#191970" points="667.4197,-91.9231 658.7636,-98.0322 669.3401,-98.6545 667.4197,-91.9231"/>
</g>
<!-- Node3&#45;&gt;Node9 -->
<g id="edge8" class="edge">
<title>Node3&#45;&gt;Node9</title>
<path fill="none" stroke="#191970" d="M668.7833,-105.6149C694.5567,-101.3402 722.5964,-96.8405 748.5,-93 870.4322,-74.9224 903.0805,-83.333 1023.5,-57 1026.6037,-56.3213 1029.7534,-55.5864 1032.9253,-54.8073"/>
<polygon fill="#191970" stroke="#191970" points="667.9385,-102.2073 658.6497,-107.3033 669.0889,-109.1122 667.9385,-102.2073"/>
</g>
</g>
</svg>
