<?xml version="1.0" encoding="UTF-8" standalone="no"?>
<!DOCTYPE svg PUBLIC "-//W3C//DTD SVG 1.1//EN"
 "http://www.w3.org/Graphics/SVG/1.1/DTD/svg11.dtd">
<!-- Generated by graphviz version 2.40.1 (20161225.0304)
 -->
<!-- Title: mumegas Pages: 1 -->
<svg width="601pt" height="299pt"
 viewBox="0.00 0.00 601.00 299.00" xmlns="http://www.w3.org/2000/svg" xmlns:xlink="http://www.w3.org/1999/xlink">
<g id="graph0" class="graph" transform="scale(1 1) rotate(0) translate(4 295)">
<title>mumegas</title>
<!-- Node1 -->
<g id="node1" class="node">
<title>Node1</title>
<polygon fill="#bfbfbf" stroke="#000000" points="0,-123.5 0,-143.5 67,-143.5 67,-123.5 0,-123.5"/>
<text text-anchor="middle" x="33.5" y="-130.5" font-family="FreeSans" font-size="10.00" fill="#000000">mumegas</text>
</g>
<!-- Node2 -->
<g id="node2" class="node">
<title>Node2</title>
<g id="a_node2"><a xlink:href="../../da/d4a/classMuMegasGeoParData.html#af244f08cb497a68905af0981c27a4a21" target="_top" xlink:title="MuMegasGeoParData::\lAddBarrel">
<polygon fill="none" stroke="#000000" points="141,-258.5 141,-290.5 271,-290.5 271,-258.5 141,-258.5"/>
<text text-anchor="start" x="149" y="-277.5" font-family="FreeSans" font-size="10.00" fill="#000000">MuMegasGeoParData::</text>
<text text-anchor="middle" x="206" y="-265.5" font-family="FreeSans" font-size="10.00" fill="#000000">AddBarrel</text>
</a>
</g>
</g>
<!-- Node1&#45;&gt;Node2 -->
<g id="edge1" class="edge">
<title>Node1&#45;&gt;Node2</title>
<path fill="none" stroke="#191970" d="M36.5938,-143.728C44.0373,-166.5213 65.1867,-221.6647 103,-249.5 111.3664,-255.6587 121.0521,-260.3169 131.0683,-263.8368"/>
<polygon fill="#191970" stroke="#191970" points="130.1511,-267.2173 140.7404,-266.8747 132.2488,-260.5389 130.1511,-267.2173"/>
</g>
<!-- Node3 -->
<g id="node3" class="node">
<title>Node3</title>
<g id="a_node3"><a xlink:href="../../dd/d0b/classEicNamePatternHub.html#abe35bc0e1b9b51fa1f2c0c45bcf78dec" target="_top" xlink:title="EicNamePatternHub::\lAddPatternMatch">
<polygon fill="none" stroke="#000000" points="144.5,-207.5 144.5,-239.5 267.5,-239.5 267.5,-207.5 144.5,-207.5"/>
<text text-anchor="start" x="152.5" y="-226.5" font-family="FreeSans" font-size="10.00" fill="#000000">EicNamePatternHub::</text>
<text text-anchor="middle" x="206" y="-214.5" font-family="FreeSans" font-size="10.00" fill="#000000">AddPatternMatch</text>
</a>
</g>
</g>
<!-- Node1&#45;&gt;Node3 -->
<g id="edge2" class="edge">
<title>Node1&#45;&gt;Node3</title>
<path fill="none" stroke="#191970" d="M41.3204,-143.5496C53.1034,-157.9771 76.8327,-184.373 103,-198.5 112.831,-203.8075 123.7924,-208.0037 134.7951,-211.3171"/>
<polygon fill="#191970" stroke="#191970" points="133.8747,-214.6939 144.4473,-214.0075 135.7542,-207.951 133.8747,-214.6939"/>
</g>
<!-- Node4 -->
<g id="node4" class="node">
<title>Node4</title>
<g id="a_node4"><a xlink:href="../../df/de0/classEicGeoParData.html#aa10ef8f4aec5aebc0c2c043524c9382e" target="_top" xlink:title="EicGeoParData::AttachSourceFile">
<polygon fill="none" stroke="#000000" points="115,-168.5 115,-188.5 297,-188.5 297,-168.5 115,-168.5"/>
<text text-anchor="middle" x="206" y="-175.5" font-family="FreeSans" font-size="10.00" fill="#000000">EicGeoParData::AttachSourceFile</text>
</a>
</g>
</g>
<!-- Node1&#45;&gt;Node4 -->
<g id="edge3" class="edge">
<title>Node1&#45;&gt;Node4</title>
<path fill="none" stroke="#191970" d="M58.6174,-143.5899C71.6958,-148.573 88.0405,-154.3833 103,-158.5 113.5557,-161.4048 124.8321,-164.0481 135.9091,-166.3924"/>
<polygon fill="#191970" stroke="#191970" points="135.5003,-169.8813 145.9994,-168.4603 136.9057,-163.0239 135.5003,-169.8813"/>
</g>
<!-- Node6 -->
<g id="node6" class="node">
<title>Node6</title>
<g id="a_node6"><a xlink:href="../../da/d4a/classMuMegasGeoParData.html#ab43a8005c1db6e37ccddf3cf23bebd3d" target="_top" xlink:title="MuMegasGeoParData::\lConstructGeometry">
<polygon fill="none" stroke="#000000" points="141,-117.5 141,-149.5 271,-149.5 271,-117.5 141,-117.5"/>
<text text-anchor="start" x="149" y="-136.5" font-family="FreeSans" font-size="10.00" fill="#000000">MuMegasGeoParData::</text>
<text text-anchor="middle" x="206" y="-124.5" font-family="FreeSans" font-size="10.00" fill="#000000">ConstructGeometry</text>
</a>
</g>
</g>
<!-- Node1&#45;&gt;Node6 -->
<g id="edge5" class="edge">
<title>Node1&#45;&gt;Node6</title>
<path fill="none" stroke="#191970" d="M67.1692,-133.5C85.3648,-133.5 108.6091,-133.5 130.8517,-133.5"/>
<polygon fill="#191970" stroke="#191970" points="130.9791,-137.0001 140.9791,-133.5 130.9791,-130.0001 130.9791,-137.0001"/>
</g>
<!-- Node11 -->
<g id="node11" class="node">
<title>Node11</title>
<g id="a_node11"><a xlink:href="../../df/de8/cemc_8C.html#adf5c804dfce7a70e36dda02995fad481" target="_top" xlink:title="exit">
<polygon fill="none" stroke="#000000" points="411.5,-39.5 411.5,-59.5 446.5,-59.5 446.5,-39.5 411.5,-39.5"/>
<text text-anchor="middle" x="429" y="-46.5" font-family="FreeSans" font-size="10.00" fill="#000000">exit</text>
</a>
</g>
</g>
<!-- Node1&#45;&gt;Node11 -->
<g id="edge12" class="edge">
<title>Node1&#45;&gt;Node11</title>
<path fill="none" stroke="#191970" d="M57.2695,-123.381C70.5332,-118.0476 87.4674,-111.7491 103,-107.5 159.5804,-92.0219 333.1292,-64.3617 401.1951,-53.7791"/>
<polygon fill="#191970" stroke="#191970" points="401.8335,-57.2221 411.1795,-52.2318 400.7614,-50.3047 401.8335,-57.2221"/>
</g>
<!-- Node13 -->
<g id="node13" class="node">
<title>Node13</title>
<g id="a_node13"><a xlink:href="../../df/de0/classEicGeoParData.html#a98e43e3d66fdb531cabaccd39f09ebc3" target="_top" xlink:title="EicGeoParData::GetColorTable">
<polygon fill="none" stroke="#000000" points="121.5,-39.5 121.5,-59.5 290.5,-59.5 290.5,-39.5 121.5,-39.5"/>
<text text-anchor="middle" x="206" y="-46.5" font-family="FreeSans" font-size="10.00" fill="#000000">EicGeoParData::GetColorTable</text>
</a>
</g>
</g>
<!-- Node1&#45;&gt;Node13 -->
<g id="edge13" class="edge">
<title>Node1&#45;&gt;Node13</title>
<path fill="none" stroke="#191970" d="M42.7702,-123.0642C55.171,-109.7622 78.4588,-86.9967 103,-74.5 112.7924,-69.5136 123.6212,-65.4931 134.47,-62.2593"/>
<polygon fill="#191970" stroke="#191970" points="135.7071,-65.5485 144.4096,-59.5055 133.8381,-58.8026 135.7071,-65.5485"/>
</g>
<!-- Node14 -->
<g id="node14" class="node">
<title>Node14</title>
<g id="a_node14"><a xlink:href="../../df/de0/classEicGeoParData.html#a04f15471e3c546dbf50727aa61098434" target="_top" xlink:title="EicGeoParData::SetTestGeometryFlag">
<polygon fill="none" stroke="#000000" points="103,-.5 103,-20.5 309,-20.5 309,-.5 103,-.5"/>
<text text-anchor="middle" x="206" y="-7.5" font-family="FreeSans" font-size="10.00" fill="#000000">EicGeoParData::SetTestGeometryFlag</text>
</a>
</g>
</g>
<!-- Node1&#45;&gt;Node14 -->
<g id="edge14" class="edge">
<title>Node1&#45;&gt;Node14</title>
<path fill="none" stroke="#191970" d="M37.1786,-123.2217C45.3714,-101.927 67.2636,-53.0182 103,-29.5 105.6487,-27.7569 108.4144,-26.1631 111.2689,-24.7064"/>
<polygon fill="#191970" stroke="#191970" points="112.9559,-27.786 120.653,-20.5054 110.0957,-21.3969 112.9559,-27.786"/>
</g>
<!-- Node5 -->
<g id="node5" class="node">
<title>Node5</title>
<g id="a_node5"><a xlink:href="../../de/d53/classSourceFile.html#ae7fa8d10936a333a8ae1252f3ab00d3d" target="_top" xlink:title="SourceFile::IsOk">
<polygon fill="none" stroke="#000000" points="380.5,-258.5 380.5,-278.5 477.5,-278.5 477.5,-258.5 380.5,-258.5"/>
<text text-anchor="middle" x="429" y="-265.5" font-family="FreeSans" font-size="10.00" fill="#000000">SourceFile::IsOk</text>
</a>
</g>
</g>
<!-- Node4&#45;&gt;Node5 -->
<g id="edge4" class="edge">
<title>Node4&#45;&gt;Node5</title>
<path fill="none" stroke="#191970" d="M288.6493,-188.5446C295.8235,-191.1756 302.7282,-194.4449 309,-198.5 332.2989,-213.5644 321.9347,-234.0802 345,-249.5 352.6677,-254.6261 361.5175,-258.385 370.5346,-261.1379"/>
<polygon fill="#191970" stroke="#191970" points="369.7728,-264.5569 380.3366,-263.7474 371.5736,-257.7925 369.7728,-264.5569"/>
</g>
<!-- Node7 -->
<g id="node7" class="node">
<title>Node7</title>
<g id="a_node7"><a xlink:href="../../df/de8/cemc_8C.html#acad20e7f1c71136263323fb1308a295f" target="_top" xlink:title="AddLogicalVolumeGroup">
<polygon fill="none" stroke="#000000" points="358.5,-219.5 358.5,-239.5 499.5,-239.5 499.5,-219.5 358.5,-219.5"/>
<text text-anchor="middle" x="429" y="-226.5" font-family="FreeSans" font-size="10.00" fill="#000000">AddLogicalVolumeGroup</text>
</a>
</g>
</g>
<!-- Node6&#45;&gt;Node7 -->
<g id="edge6" class="edge">
<title>Node6&#45;&gt;Node7</title>
<path fill="none" stroke="#191970" d="M271.1352,-141.7539C284.4323,-145.4519 297.7745,-150.7925 309,-158.5 332.1727,-174.4106 321.7034,-194.7714 345,-210.5 347.581,-212.2425 350.2981,-213.8273 353.1119,-215.2685"/>
<polygon fill="#191970" stroke="#191970" points="351.8214,-218.5251 362.3801,-219.3995 354.6712,-212.1315 351.8214,-218.5251"/>
</g>
<!-- Node8 -->
<g id="node8" class="node">
<title>Node8</title>
<g id="a_node8"><a xlink:href="../../da/d86/classEicGeoMap.html#a4138a501100028aef473a4b9508d36d3" target="_top" xlink:title="EicGeoMap::AddGeantVolume\lLevel">
<polygon fill="none" stroke="#000000" points="345,-168.5 345,-200.5 513,-200.5 513,-168.5 345,-168.5"/>
<text text-anchor="start" x="353" y="-187.5" font-family="FreeSans" font-size="10.00" fill="#000000">EicGeoMap::AddGeantVolume</text>
<text text-anchor="middle" x="429" y="-175.5" font-family="FreeSans" font-size="10.00" fill="#000000">Level</text>
</a>
</g>
</g>
<!-- Node6&#45;&gt;Node8 -->
<g id="edge7" class="edge">
<title>Node6&#45;&gt;Node8</title>
<path fill="none" stroke="#191970" d="M271.1003,-148.3884C295.3877,-153.9429 323.2499,-160.315 348.7421,-166.1451"/>
<polygon fill="#191970" stroke="#191970" points="348.226,-169.6173 358.7547,-168.4349 349.7867,-162.7935 348.226,-169.6173"/>
</g>
<!-- Node10 -->
<g id="node10" class="node">
<title>Node10</title>
<g id="a_node10"><a xlink:href="../../da/d86/classEicGeoMap.html#a77e724ceee76044c2346a4b35be1f90e" target="_top" xlink:title="EicGeoMap::SetSingleSensor\lContainerVolume">
<polygon fill="none" stroke="#000000" points="347.5,-117.5 347.5,-149.5 510.5,-149.5 510.5,-117.5 347.5,-117.5"/>
<text text-anchor="start" x="355.5" y="-136.5" font-family="FreeSans" font-size="10.00" fill="#000000">EicGeoMap::SetSingleSensor</text>
<text text-anchor="middle" x="429" y="-124.5" font-family="FreeSans" font-size="10.00" fill="#000000">ContainerVolume</text>
</a>
</g>
</g>
<!-- Node6&#45;&gt;Node10 -->
<g id="edge9" class="edge">
<title>Node6&#45;&gt;Node10</title>
<path fill="none" stroke="#191970" d="M271.1003,-133.5C291.7248,-133.5 314.9271,-133.5 337.067,-133.5"/>
<polygon fill="#191970" stroke="#191970" points="337.1515,-137.0001 347.1515,-133.5 337.1515,-130.0001 337.1515,-137.0001"/>
</g>
<!-- Node6&#45;&gt;Node11 -->
<g id="edge10" class="edge">
<title>Node6&#45;&gt;Node11</title>
<path fill="none" stroke="#191970" d="M271.1048,-118.914C284.1237,-114.6327 297.3625,-109.2343 309,-102.5 328.0484,-91.4772 325.578,-78.8505 345,-68.5 362.3184,-59.2706 383.9586,-54.5107 400.9368,-52.0632"/>
<polygon fill="#191970" stroke="#191970" points="401.8394,-55.4778 411.3285,-50.7652 400.9717,-48.5318 401.8394,-55.4778"/>
</g>
<!-- Node12 -->
<g id="node12" class="node">
<title>Node12</title>
<g id="a_node12"><a xlink:href="../../df/de8/cemc_8C.html#a56d18c59c8675b7e09e6b650a8f2296a" target="_top" xlink:title="FinalizeOutput">
<polygon fill="none" stroke="#000000" points="384,-78.5 384,-98.5 474,-98.5 474,-78.5 384,-78.5"/>
<text text-anchor="middle" x="429" y="-85.5" font-family="FreeSans" font-size="10.00" fill="#000000">FinalizeOutput</text>
</a>
</g>
</g>
<!-- Node6&#45;&gt;Node12 -->
<g id="edge11" class="edge">
<title>Node6&#45;&gt;Node12</title>
<path fill="none" stroke="#191970" d="M271.1003,-120.3632C303.8132,-113.7619 343.0116,-105.8519 374.1688,-99.5646"/>
<polygon fill="#191970" stroke="#191970" points="374.8737,-102.993 383.9838,-97.584 373.489,-96.1313 374.8737,-102.993"/>
</g>
<!-- Node9 -->
<g id="node9" class="node">
<title>Node9</title>
<g id="a_node9"><a xlink:href="../../da/d23/msg__buffer_8cc.html#a98631211a4a8aee62f572375d5b637be" target="_top" xlink:title="printf">
<polygon fill="none" stroke="#000000" points="549,-174.5 549,-194.5 593,-194.5 593,-174.5 549,-174.5"/>
<text text-anchor="middle" x="571" y="-181.5" font-family="FreeSans" font-size="10.00" fill="#000000">printf</text>
</a>
</g>
</g>
<!-- Node8&#45;&gt;Node9 -->
<g id="edge8" class="edge">
<title>Node8&#45;&gt;Node9</title>
<path fill="none" stroke="#191970" d="M513.2432,-184.5C522.276,-184.5 531.0123,-184.5 538.839,-184.5"/>
<polygon fill="#191970" stroke="#191970" points="538.8905,-188.0001 548.8905,-184.5 538.8904,-181.0001 538.8905,-188.0001"/>
</g>
</g>
</svg>
