<?xml version="1.0" encoding="UTF-8" standalone="no"?>
<!DOCTYPE svg PUBLIC "-//W3C//DTD SVG 1.1//EN"
 "http://www.w3.org/Graphics/SVG/1.1/DTD/svg11.dtd">
<!-- Generated by graphviz version 2.40.1 (20161225.0304)
 -->
<!-- Title: Acts::SingleTrackParameters::position Pages: 1 -->
<svg width="543pt" height="551pt"
 viewBox="0.00 0.00 543.00 551.00" xmlns="http://www.w3.org/2000/svg" xmlns:xlink="http://www.w3.org/1999/xlink">
<g id="graph0" class="graph" transform="scale(1 1) rotate(0) translate(4 547)">
<title>Acts::SingleTrackParameters::position</title>
<!-- Node1 -->
<g id="node1" class="node">
<title>Node1</title>
<polygon fill="#bfbfbf" stroke="#000000" points="0,-255.5 0,-287.5 161,-287.5 161,-255.5 0,-255.5"/>
<text text-anchor="start" x="8" y="-274.5" font-family="FreeSans" font-size="10.00" fill="#000000">Acts::SingleTrackParameters</text>
<text text-anchor="middle" x="80.5" y="-262.5" font-family="FreeSans" font-size="10.00" fill="#000000">::position</text>
</g>
<!-- Node2 -->
<g id="node2" class="node">
<title>Node2</title>
<g id="a_node2"><a xlink:href="../../dd/d7e/namespaceActs_1_1Test.html#aae55e0577f0f24b58751cae660f0b8eb" target="_top" xlink:title="Acts::Test::BOOST_AUTO\l_TEST_CASE">
<polygon fill="none" stroke="#000000" points="207,-510.5 207,-542.5 348,-542.5 348,-510.5 207,-510.5"/>
<text text-anchor="start" x="215" y="-529.5" font-family="FreeSans" font-size="10.00" fill="#000000">Acts::Test::BOOST_AUTO</text>
<text text-anchor="middle" x="277.5" y="-517.5" font-family="FreeSans" font-size="10.00" fill="#000000">_TEST_CASE</text>
</a>
</g>
</g>
<!-- Node1&#45;&gt;Node2 -->
<g id="edge1" class="edge">
<title>Node1&#45;&gt;Node2</title>
<path fill="none" stroke="#191970" d="M86.4876,-297.3972C98.8109,-344.905 131.5193,-446.1749 197,-501.5 201.0242,-504.9001 205.5085,-507.8383 210.244,-510.3773"/>
<polygon fill="#191970" stroke="#191970" points="89.8554,-296.4373 84.036,-287.5838 83.0641,-298.134 89.8554,-296.4373"/>
</g>
<!-- Node3 -->
<g id="node3" class="node">
<title>Node3</title>
<g id="a_node3"><a xlink:href="../../dd/d7e/namespaceActs_1_1Test.html#a3719f6d182e4ac488ef79f0a2cd070e4" target="_top" xlink:title="Unit test for parameters at a plane.">
<polygon fill="none" stroke="#000000" points="208,-459.5 208,-491.5 347,-491.5 347,-459.5 208,-459.5"/>
<text text-anchor="start" x="216" y="-478.5" font-family="FreeSans" font-size="10.00" fill="#000000">Acts::Test::BOOST_DATA</text>
<text text-anchor="middle" x="277.5" y="-466.5" font-family="FreeSans" font-size="10.00" fill="#000000">_TEST_CASE</text>
</a>
</g>
</g>
<!-- Node1&#45;&gt;Node3 -->
<g id="edge2" class="edge">
<title>Node1&#45;&gt;Node3</title>
<path fill="none" stroke="#191970" d="M90.401,-297.0873C106.7311,-335.9509 142.975,-409.6449 197,-450.5 201.5522,-453.9425 206.5857,-456.9163 211.8482,-459.4844"/>
<polygon fill="#191970" stroke="#191970" points="93.5263,-295.4826 86.5018,-287.5512 87.047,-298.132 93.5263,-295.4826"/>
</g>
<!-- Node4 -->
<g id="node4" class="node">
<title>Node4</title>
<g id="a_node4"><a xlink:href="../../dd/d50/classActs_1_1ZScanVertexFinder.html#aeaa18929b09bd41811369e56fdbce2f5" target="_top" xlink:title="Function that determines single vertex, based on z0 values of input tracks, using a Half Sample Mode ...">
<polygon fill="none" stroke="#000000" points="207,-408.5 207,-440.5 348,-440.5 348,-408.5 207,-408.5"/>
<text text-anchor="start" x="215" y="-427.5" font-family="FreeSans" font-size="10.00" fill="#000000">Acts::ZScanVertexFinder</text>
<text text-anchor="middle" x="277.5" y="-415.5" font-family="FreeSans" font-size="10.00" fill="#000000">::find</text>
</a>
</g>
</g>
<!-- Node1&#45;&gt;Node4 -->
<g id="edge3" class="edge">
<title>Node1&#45;&gt;Node4</title>
<path fill="none" stroke="#191970" d="M96.708,-296.1155C116.904,-324.9242 154.0393,-372.1597 197,-399.5 202.3088,-402.8785 208.1054,-405.8274 214.076,-408.3957"/>
<polygon fill="#191970" stroke="#191970" points="99.5463,-294.0659 90.9964,-287.8088 93.7782,-298.032 99.5463,-294.0659"/>
</g>
<!-- Node5 -->
<g id="node5" class="node">
<title>Node5</title>
<g id="a_node5"><a xlink:href="../../d0/d2e/classActs_1_1HelicalTrackLinearizer.html#add7926f560d0de367f7b25fcad96a120" target="_top" xlink:title="Function that linearizes BoundParameters at given linearization point.">
<polygon fill="none" stroke="#000000" points="199.5,-357.5 199.5,-389.5 355.5,-389.5 355.5,-357.5 199.5,-357.5"/>
<text text-anchor="start" x="207.5" y="-376.5" font-family="FreeSans" font-size="10.00" fill="#000000">Acts::HelicalTrackLinearizer</text>
<text text-anchor="middle" x="277.5" y="-364.5" font-family="FreeSans" font-size="10.00" fill="#000000">::linearizeTrack</text>
</a>
</g>
</g>
<!-- Node1&#45;&gt;Node5 -->
<g id="edge4" class="edge">
<title>Node1&#45;&gt;Node5</title>
<path fill="none" stroke="#191970" d="M109.0982,-293.7368C131.8839,-310.6092 165.1404,-333.4009 197,-348.5 203.8766,-351.759 211.281,-354.7255 218.715,-357.3839"/>
<polygon fill="#191970" stroke="#191970" points="111.0023,-290.7899 100.9027,-287.5885 106.8015,-296.3894 111.0023,-290.7899"/>
</g>
<!-- Node7 -->
<g id="node7" class="node">
<title>Node7</title>
<g id="a_node7"><a xlink:href="../../db/ded/classActs_1_1SingleCurvilinearTrackParameters.html#a2fcbda847f066b99b2c36852b3264d1b" target="_top" xlink:title="copy assignment operator &#45; charged/netural virtual constructor for type creation without casting...">
<polygon fill="none" stroke="#000000" points="198,-306.5 198,-338.5 357,-338.5 357,-306.5 198,-306.5"/>
<text text-anchor="start" x="206" y="-325.5" font-family="FreeSans" font-size="10.00" fill="#000000">Acts::SingleCurvilinearTrack</text>
<text text-anchor="middle" x="277.5" y="-313.5" font-family="FreeSans" font-size="10.00" fill="#000000">Parameters::operator=</text>
</a>
</g>
</g>
<!-- Node1&#45;&gt;Node7 -->
<g id="edge6" class="edge">
<title>Node1&#45;&gt;Node7</title>
<path fill="none" stroke="#191970" d="M152.2513,-290.0752C172.9497,-295.4337 195.3532,-301.2336 215.412,-306.4264"/>
<polygon fill="#191970" stroke="#191970" points="153.1197,-286.6847 142.5616,-287.5667 151.3653,-293.4613 153.1197,-286.6847"/>
</g>
<!-- Node8 -->
<g id="node8" class="node">
<title>Node8</title>
<g id="a_node8"><a xlink:href="../../d6/d71/classActs_1_1SingleTrackParameters.html#a36a0d6bae7d6210a3e70f4214f14758d" target="_top" xlink:title="print information to output stream">
<polygon fill="none" stroke="#000000" points="197,-255.5 197,-287.5 358,-287.5 358,-255.5 197,-255.5"/>
<text text-anchor="start" x="205" y="-274.5" font-family="FreeSans" font-size="10.00" fill="#000000">Acts::SingleTrackParameters</text>
<text text-anchor="middle" x="277.5" y="-262.5" font-family="FreeSans" font-size="10.00" fill="#000000">&lt; ChargedPolicy &gt;::print</text>
</a>
</g>
</g>
<!-- Node1&#45;&gt;Node8 -->
<g id="edge7" class="edge">
<title>Node1&#45;&gt;Node8</title>
<path fill="none" stroke="#191970" d="M171.2155,-271.5C179.7951,-271.5 188.454,-271.5 196.9296,-271.5"/>
<polygon fill="#191970" stroke="#191970" points="171.1959,-268.0001 161.1959,-271.5 171.1958,-275.0001 171.1959,-268.0001"/>
</g>
<!-- Node9 -->
<g id="node9" class="node">
<title>Node9</title>
<g id="a_node9"><a xlink:href="../../d1/d49/classPHActsTrkFitter.html#ae131c42164fb6bd25da8240e5eedda7f" target="_top" xlink:title="Process each event by calling the fitter.">
<polygon fill="none" stroke="#000000" points="209.5,-216.5 209.5,-236.5 345.5,-236.5 345.5,-216.5 209.5,-216.5"/>
<text text-anchor="middle" x="277.5" y="-223.5" font-family="FreeSans" font-size="10.00" fill="#000000">PHActsTrkFitter::Process</text>
</a>
</g>
</g>
<!-- Node1&#45;&gt;Node9 -->
<g id="edge8" class="edge">
<title>Node1&#45;&gt;Node9</title>
<path fill="none" stroke="#191970" d="M160.6166,-253.1993C185.5549,-247.5027 212.1234,-241.4337 233.6178,-236.5239"/>
<polygon fill="#191970" stroke="#191970" points="159.7566,-249.8055 150.7872,-255.4445 161.3155,-256.6297 159.7566,-249.8055"/>
</g>
<!-- Node10 -->
<g id="node10" class="node">
<title>Node10</title>
<g id="a_node10"><a xlink:href="../../db/ded/classActs_1_1SingleCurvilinearTrackParameters.html#a6d6f9f95cb37c72add23e5cbec287998" target="_top" xlink:title="update of the track parameterisation only possible on non&#45;const objects, enable for local parameters...">
<polygon fill="none" stroke="#000000" points="198,-165.5 198,-197.5 357,-197.5 357,-165.5 198,-165.5"/>
<text text-anchor="start" x="206" y="-184.5" font-family="FreeSans" font-size="10.00" fill="#000000">Acts::SingleCurvilinearTrack</text>
<text text-anchor="middle" x="277.5" y="-172.5" font-family="FreeSans" font-size="10.00" fill="#000000">Parameters::set</text>
</a>
</g>
</g>
<!-- Node1&#45;&gt;Node10 -->
<g id="edge9" class="edge">
<title>Node1&#45;&gt;Node10</title>
<path fill="none" stroke="#191970" d="M115.2174,-250.152C137.9336,-236.76 168.5681,-219.7688 197,-207.5 205.2256,-203.9505 214.1019,-200.6163 222.8516,-197.5964"/>
<polygon fill="#191970" stroke="#191970" points="113.4148,-247.1519 106.6134,-255.2754 116.9962,-253.1663 113.4148,-247.1519"/>
</g>
<!-- Node11 -->
<g id="node11" class="node">
<title>Node11</title>
<g id="a_node11"><a xlink:href="../../df/df4/classActs_1_1StraightLineStepper.html#a8818e898d91a6236fdefa095c113709d" target="_top" xlink:title="Acts::StraightLineStepper\l::update">
<polygon fill="none" stroke="#000000" points="204,-114.5 204,-146.5 351,-146.5 351,-114.5 204,-114.5"/>
<text text-anchor="start" x="212" y="-133.5" font-family="FreeSans" font-size="10.00" fill="#000000">Acts::StraightLineStepper</text>
<text text-anchor="middle" x="277.5" y="-121.5" font-family="FreeSans" font-size="10.00" fill="#000000">::update</text>
</a>
</g>
</g>
<!-- Node1&#45;&gt;Node11 -->
<g id="edge10" class="edge">
<title>Node1&#45;&gt;Node11</title>
<path fill="none" stroke="#191970" d="M98.9527,-247.5233C120.0493,-221.6389 156.8854,-180.8556 197,-156.5 203.2769,-152.689 210.1728,-149.3748 217.2063,-146.5088"/>
<polygon fill="#191970" stroke="#191970" points="96.1922,-245.3711 92.672,-255.3641 101.6555,-249.7474 96.1922,-245.3711"/>
</g>
<!-- Node13 -->
<g id="node13" class="node">
<title>Node13</title>
<g id="a_node13"><a xlink:href="../../d3/d5a/classActs_1_1EigenStepper.html#af631f3fbcd43af03701510de3d086b77" target="_top" xlink:title="Acts::EigenStepper\l::update">
<polygon fill="none" stroke="#000000" points="220.5,-63.5 220.5,-95.5 334.5,-95.5 334.5,-63.5 220.5,-63.5"/>
<text text-anchor="start" x="228.5" y="-82.5" font-family="FreeSans" font-size="10.00" fill="#000000">Acts::EigenStepper</text>
<text text-anchor="middle" x="277.5" y="-70.5" font-family="FreeSans" font-size="10.00" fill="#000000">::update</text>
</a>
</g>
</g>
<!-- Node1&#45;&gt;Node13 -->
<g id="edge12" class="edge">
<title>Node1&#45;&gt;Node13</title>
<path fill="none" stroke="#191970" d="M91.9686,-245.7309C109.4702,-209.2823 146.2411,-142.9487 197,-105.5 203.9728,-100.3557 212.0073,-96.2015 220.2439,-92.8544"/>
<polygon fill="#191970" stroke="#191970" points="88.6196,-244.6295 87.5476,-255.17 94.9587,-247.5986 88.6196,-244.6295"/>
</g>
<!-- Node15 -->
<g id="node15" class="node">
<title>Node15</title>
<g id="a_node15"><a xlink:href="../../da/d33/classActs_1_1AtlasStepper.html#af1e002528d20dd9008fc9a6aa2607810" target="_top" xlink:title="Acts::AtlasStepper\l\&lt; ConstantBField \&gt;::\lupdate">
<polygon fill="none" stroke="#000000" points="217,-.5 217,-44.5 338,-44.5 338,-.5 217,-.5"/>
<text text-anchor="start" x="225" y="-31.5" font-family="FreeSans" font-size="10.00" fill="#000000">Acts::AtlasStepper</text>
<text text-anchor="start" x="225" y="-19.5" font-family="FreeSans" font-size="10.00" fill="#000000">&lt; ConstantBField &gt;::</text>
<text text-anchor="middle" x="277.5" y="-7.5" font-family="FreeSans" font-size="10.00" fill="#000000">update</text>
</a>
</g>
</g>
<!-- Node1&#45;&gt;Node15 -->
<g id="edge14" class="edge">
<title>Node1&#45;&gt;Node15</title>
<path fill="none" stroke="#191970" d="M87.8995,-245.6414C101.9801,-200.7939 136.7278,-108.2466 197,-54.5 202.8369,-49.2951 209.6239,-44.8844 216.7343,-41.1599"/>
<polygon fill="#191970" stroke="#191970" points="84.4735,-244.8774 84.909,-255.4633 91.17,-246.9163 84.4735,-244.8774"/>
</g>
<!-- Node6 -->
<g id="node6" class="node">
<title>Node6</title>
<g id="a_node6"><a xlink:href="../../dd/d7e/namespaceActs_1_1Test.html#a222d8ccdd1a7c2a561d6b5fc32bfeaf9" target="_top" xlink:title="Unit test for KalmanVertexTrackUpdater.">
<polygon fill="none" stroke="#000000" points="394,-357.5 394,-389.5 535,-389.5 535,-357.5 394,-357.5"/>
<text text-anchor="start" x="402" y="-376.5" font-family="FreeSans" font-size="10.00" fill="#000000">Acts::Test::BOOST_AUTO</text>
<text text-anchor="middle" x="464.5" y="-364.5" font-family="FreeSans" font-size="10.00" fill="#000000">_TEST_CASE</text>
</a>
</g>
</g>
<!-- Node5&#45;&gt;Node6 -->
<g id="edge5" class="edge">
<title>Node5&#45;&gt;Node6</title>
<path fill="none" stroke="#191970" d="M365.8332,-373.5C375.1935,-373.5 384.623,-373.5 393.745,-373.5"/>
<polygon fill="#191970" stroke="#191970" points="365.7214,-370.0001 355.7213,-373.5 365.7213,-377.0001 365.7214,-370.0001"/>
</g>
<!-- Node12 -->
<g id="node12" class="node">
<title>Node12</title>
<g id="a_node12"><a xlink:href="../../dd/d7e/namespaceActs_1_1Test.html#a43da32fe8747ca8f60bd9e377f781c3a" target="_top" xlink:title="Acts::Test::BOOST_AUTO\l_TEST_CASE">
<polygon fill="none" stroke="#000000" points="394,-114.5 394,-146.5 535,-146.5 535,-114.5 394,-114.5"/>
<text text-anchor="start" x="402" y="-133.5" font-family="FreeSans" font-size="10.00" fill="#000000">Acts::Test::BOOST_AUTO</text>
<text text-anchor="middle" x="464.5" y="-121.5" font-family="FreeSans" font-size="10.00" fill="#000000">_TEST_CASE</text>
</a>
</g>
</g>
<!-- Node11&#45;&gt;Node12 -->
<g id="edge11" class="edge">
<title>Node11&#45;&gt;Node12</title>
<path fill="none" stroke="#191970" d="M361.1427,-130.5C372.1109,-130.5 383.2621,-130.5 393.9834,-130.5"/>
<polygon fill="#191970" stroke="#191970" points="361.139,-127.0001 351.1389,-130.5 361.1389,-134.0001 361.139,-127.0001"/>
</g>
<!-- Node14 -->
<g id="node14" class="node">
<title>Node14</title>
<g id="a_node14"><a xlink:href="../../dd/d7e/namespaceActs_1_1Test.html#a562a9fb4bd42354ee4b7f58b32b2acac" target="_top" xlink:title="Acts::Test::BOOST_AUTO\l_TEST_CASE">
<polygon fill="none" stroke="#000000" points="394,-63.5 394,-95.5 535,-95.5 535,-63.5 394,-63.5"/>
<text text-anchor="start" x="402" y="-82.5" font-family="FreeSans" font-size="10.00" fill="#000000">Acts::Test::BOOST_AUTO</text>
<text text-anchor="middle" x="464.5" y="-70.5" font-family="FreeSans" font-size="10.00" fill="#000000">_TEST_CASE</text>
</a>
</g>
</g>
<!-- Node13&#45;&gt;Node14 -->
<g id="edge13" class="edge">
<title>Node13&#45;&gt;Node14</title>
<path fill="none" stroke="#191970" d="M344.8978,-79.5C360.8074,-79.5 377.8132,-79.5 393.8616,-79.5"/>
<polygon fill="#191970" stroke="#191970" points="344.6223,-76.0001 334.6223,-79.5 344.6222,-83.0001 344.6223,-76.0001"/>
</g>
</g>
</svg>
