<?xml version="1.0" encoding="UTF-8" standalone="no"?>
<!DOCTYPE svg PUBLIC "-//W3C//DTD SVG 1.1//EN"
 "http://www.w3.org/Graphics/SVG/1.1/DTD/svg11.dtd">
<!-- Generated by graphviz version 2.40.1 (20161225.0304)
 -->
<!-- Title: Fun4AllInputManager::setSyncManager Pages: 1 -->
<svg width="725pt" height="1484pt"
 viewBox="0.00 0.00 725.00 1484.00" xmlns="http://www.w3.org/2000/svg" xmlns:xlink="http://www.w3.org/1999/xlink">
<g id="graph0" class="graph" transform="scale(1 1) rotate(0) translate(4 1480)">
<title>Fun4AllInputManager::setSyncManager</title>
<!-- Node1 -->
<g id="node1" class="node">
<title>Node1</title>
<polygon fill="#bfbfbf" stroke="#000000" points="0,-689.5 0,-721.5 125,-721.5 125,-689.5 0,-689.5"/>
<text text-anchor="start" x="8" y="-708.5" font-family="FreeSans" font-size="10.00" fill="#000000">Fun4AllInputManager</text>
<text text-anchor="middle" x="62.5" y="-696.5" font-family="FreeSans" font-size="10.00" fill="#000000">::setSyncManager</text>
</g>
<!-- Node2 -->
<g id="node2" class="node">
<title>Node2</title>
<g id="a_node2"><a xlink:href="../../dd/ded/classFun4AllSyncManager.html#a2a284bc4ed777ec7f39d6e5c7090067c" target="_top" xlink:title="Fun4AllSyncManager\l::registerInputManager">
<polygon fill="none" stroke="#000000" points="176.5,-715.5 176.5,-747.5 309.5,-747.5 309.5,-715.5 176.5,-715.5"/>
<text text-anchor="start" x="184.5" y="-734.5" font-family="FreeSans" font-size="10.00" fill="#000000">Fun4AllSyncManager</text>
<text text-anchor="middle" x="243" y="-722.5" font-family="FreeSans" font-size="10.00" fill="#000000">::registerInputManager</text>
</a>
</g>
</g>
<!-- Node1&#45;&gt;Node2 -->
<g id="edge1" class="edge">
<title>Node1&#45;&gt;Node2</title>
<path fill="none" stroke="#191970" d="M135.3866,-715.9989C148.9747,-717.9562 163.1085,-719.9921 176.4924,-721.92"/>
<polygon fill="#191970" stroke="#191970" points="135.5205,-712.4821 125.1236,-714.5206 134.5224,-719.4106 135.5205,-712.4821"/>
</g>
<!-- Node42 -->
<g id="node42" class="node">
<title>Node42</title>
<g id="a_node42"><a xlink:href="../../df/d43/classFun4AllDummyInputManager.html#a3863cb07576f56e8e514ae272b322679" target="_top" xlink:title="Fun4AllDummyInputManager\l::setSyncManager">
<polygon fill="none" stroke="#000000" points="161,-664.5 161,-696.5 325,-696.5 325,-664.5 161,-664.5"/>
<text text-anchor="start" x="169" y="-683.5" font-family="FreeSans" font-size="10.00" fill="#000000">Fun4AllDummyInputManager</text>
<text text-anchor="middle" x="243" y="-671.5" font-family="FreeSans" font-size="10.00" fill="#000000">::setSyncManager</text>
</a>
</g>
</g>
<!-- Node1&#45;&gt;Node42 -->
<g id="edge41" class="edge">
<title>Node1&#45;&gt;Node42</title>
<path fill="none" stroke="#191970" d="M135.2469,-695.4243C143.6487,-694.2606 152.2609,-693.0677 160.777,-691.8882"/>
<polygon fill="#191970" stroke="#191970" points="134.5488,-691.9874 125.1236,-696.8264 135.5092,-698.9213 134.5488,-691.9874"/>
</g>
<!-- Node3 -->
<g id="node3" class="node">
<title>Node3</title>
<g id="a_node3"><a xlink:href="../../da/d29/classFun4AllServer.html#ab2cb490790d15b865ae79eb3094caabe" target="_top" xlink:title="Fun4AllServer::registerInput\lManager">
<polygon fill="none" stroke="#000000" points="361,-715.5 361,-747.5 520,-747.5 520,-715.5 361,-715.5"/>
<text text-anchor="start" x="369" y="-734.5" font-family="FreeSans" font-size="10.00" fill="#000000">Fun4AllServer::registerInput</text>
<text text-anchor="middle" x="440.5" y="-722.5" font-family="FreeSans" font-size="10.00" fill="#000000">Manager</text>
</a>
</g>
</g>
<!-- Node2&#45;&gt;Node3 -->
<g id="edge2" class="edge">
<title>Node2&#45;&gt;Node3</title>
<path fill="none" stroke="#191970" d="M319.7684,-731.5C333.2499,-731.5 347.3071,-731.5 360.8646,-731.5"/>
<polygon fill="#191970" stroke="#191970" points="319.5892,-728.0001 309.5892,-731.5 319.5891,-735.0001 319.5892,-728.0001"/>
</g>
<!-- Node4 -->
<g id="node4" class="node">
<title>Node4</title>
<g id="a_node4"><a xlink:href="../../d9/d1f/Fun4All__G4__Lmon_8C.html#a4f09ca292c4b3a82ce38b19ac3858d74" target="_top" xlink:title="Fun4All_G4_Lmon">
<polygon fill="none" stroke="#000000" points="583.5,-1455.5 583.5,-1475.5 689.5,-1475.5 689.5,-1455.5 583.5,-1455.5"/>
<text text-anchor="middle" x="636.5" y="-1462.5" font-family="FreeSans" font-size="10.00" fill="#000000">Fun4All_G4_Lmon</text>
</a>
</g>
</g>
<!-- Node3&#45;&gt;Node4 -->
<g id="edge3" class="edge">
<title>Node3&#45;&gt;Node4</title>
<path fill="none" stroke="#191970" d="M440.9728,-757.7312C443.6145,-874.225 460.1413,-1343.517 556,-1446.5 563.24,-1454.2781 573.0207,-1459.147 583.2683,-1462.1388"/>
<polygon fill="#191970" stroke="#191970" points="444.469,-757.5069 440.7583,-747.5831 437.4705,-757.6549 444.469,-757.5069"/>
</g>
<!-- Node5 -->
<g id="node5" class="node">
<title>Node5</title>
<g id="a_node5"><a xlink:href="../../d3/d61/fun4all__coresoftware_2blob_2master_2offline_2packages_2NodeDump_2macro_2run__dump_8C.html#ad821e25f39e2f306bd2e7f4626bc8049" target="_top" xlink:title="run_dump">
<polygon fill="none" stroke="#000000" points="602.5,-1416.5 602.5,-1436.5 670.5,-1436.5 670.5,-1416.5 602.5,-1416.5"/>
<text text-anchor="middle" x="636.5" y="-1423.5" font-family="FreeSans" font-size="10.00" fill="#000000">run_dump</text>
</a>
</g>
</g>
<!-- Node3&#45;&gt;Node5 -->
<g id="edge4" class="edge">
<title>Node3&#45;&gt;Node5</title>
<path fill="none" stroke="#191970" d="M441.2405,-757.7366C444.9565,-870.2751 465.1798,-1310.8128 556,-1407.5 567.7976,-1420.0597 586.2229,-1425.0195 602.4702,-1426.7446"/>
<polygon fill="#191970" stroke="#191970" points="444.7348,-757.4951 440.9222,-747.61 437.7382,-757.7151 444.7348,-757.4951"/>
</g>
<!-- Node6 -->
<g id="node6" class="node">
<title>Node6</title>
<g id="a_node6"><a xlink:href="../../df/d51/Fun4All__ExportGeom_8C.html#a582925c51bad38d562cf19e71211adfd" target="_top" xlink:title="get geometry from DST file and output TGeoManager ROOT files or other formats of geometry files...">
<polygon fill="none" stroke="#000000" points="575.5,-1377.5 575.5,-1397.5 697.5,-1397.5 697.5,-1377.5 575.5,-1377.5"/>
<text text-anchor="middle" x="636.5" y="-1384.5" font-family="FreeSans" font-size="10.00" fill="#000000">Fun4All_ExportGeom</text>
</a>
</g>
</g>
<!-- Node3&#45;&gt;Node6 -->
<g id="edge5" class="edge">
<title>Node3&#45;&gt;Node6</title>
<path fill="none" stroke="#191970" d="M441.5344,-757.6105C446.3577,-865.8749 470.172,-1278.0513 556,-1368.5 561.3375,-1374.1249 568.0051,-1378.2221 575.2041,-1381.186"/>
<polygon fill="#191970" stroke="#191970" points="445.0285,-757.3974 441.1029,-747.5567 438.035,-757.6976 445.0285,-757.3974"/>
</g>
<!-- Node7 -->
<g id="node7" class="node">
<title>Node7</title>
<g id="a_node7"><a xlink:href="../../d9/d0f/Fun4All__ImportGeom_8C.html#a3388968a8dae60e9eb62b1126f747b6a" target="_top" xlink:title="Read in a Geometry file, and output DST and ROOT TGeo files.">
<polygon fill="none" stroke="#000000" points="575.5,-1338.5 575.5,-1358.5 697.5,-1358.5 697.5,-1338.5 575.5,-1338.5"/>
<text text-anchor="middle" x="636.5" y="-1345.5" font-family="FreeSans" font-size="10.00" fill="#000000">Fun4All_ImportGeom</text>
</a>
</g>
</g>
<!-- Node3&#45;&gt;Node7 -->
<g id="edge6" class="edge">
<title>Node3&#45;&gt;Node7</title>
<path fill="none" stroke="#191970" d="M441.8746,-757.6876C447.8764,-861.8666 475.2051,-1245.3237 556,-1329.5 561.3696,-1335.0943 568.0557,-1339.1739 575.2639,-1342.1289"/>
<polygon fill="#191970" stroke="#191970" points="445.3692,-757.491 441.3161,-747.7021 438.3801,-757.8819 445.3692,-757.491"/>
</g>
<!-- Node8 -->
<g id="node8" class="node">
<title>Node8</title>
<g id="a_node8"><a xlink:href="../../d6/deb/PHGeom__DSTInspection_8C.html#a004a4f91a64bef884a2708f11f6094ec" target="_top" xlink:title="PHGeom_DSTInspection">
<polygon fill="none" stroke="#000000" points="568,-1299.5 568,-1319.5 705,-1319.5 705,-1299.5 568,-1299.5"/>
<text text-anchor="middle" x="636.5" y="-1306.5" font-family="FreeSans" font-size="10.00" fill="#000000">PHGeom_DSTInspection</text>
</a>
</g>
</g>
<!-- Node3&#45;&gt;Node8 -->
<g id="edge7" class="edge">
<title>Node3&#45;&gt;Node8</title>
<path fill="none" stroke="#191970" d="M442.2722,-757.896C449.5287,-858.0159 480.2561,-1212.6026 556,-1290.5 559.5037,-1294.1033 563.554,-1297.0765 567.9361,-1299.5245"/>
<polygon fill="#191970" stroke="#191970" points="445.7505,-757.4653 441.5539,-747.7371 438.768,-757.9591 445.7505,-757.4653"/>
</g>
<!-- Node9 -->
<g id="node9" class="node">
<title>Node9</title>
<g id="a_node9"><a xlink:href="../../dd/d8d/Fun4All__G4__Magnet_8C.html#a375961511ba614ba387343e652ab0202" target="_top" xlink:title="Fun4All_G4_Magnet">
<polygon fill="none" stroke="#000000" points="578.5,-1260.5 578.5,-1280.5 694.5,-1280.5 694.5,-1260.5 578.5,-1260.5"/>
<text text-anchor="middle" x="636.5" y="-1267.5" font-family="FreeSans" font-size="10.00" fill="#000000">Fun4All_G4_Magnet</text>
</a>
</g>
</g>
<!-- Node3&#45;&gt;Node9 -->
<g id="edge8" class="edge">
<title>Node3&#45;&gt;Node9</title>
<path fill="none" stroke="#191970" d="M442.7138,-757.8948C451.2635,-853.4966 485.2366,-1179.7952 556,-1251.5 562.1528,-1257.7346 569.944,-1262.0769 578.2435,-1265.0745"/>
<polygon fill="#191970" stroke="#191970" points="446.1761,-757.3107 441.8171,-747.6542 439.2028,-757.9214 446.1761,-757.3107"/>
</g>
<!-- Node10 -->
<g id="node10" class="node">
<title>Node10</title>
<g id="a_node10"><a xlink:href="../../d5/df2/Fun4All__EIC__Generator__Display_8C.html#a276181099936efe81415286b29f36e51" target="_top" xlink:title="Fun4All_EIC_Generator\l_Display">
<polygon fill="none" stroke="#000000" points="570.5,-1209.5 570.5,-1241.5 702.5,-1241.5 702.5,-1209.5 570.5,-1209.5"/>
<text text-anchor="start" x="578.5" y="-1228.5" font-family="FreeSans" font-size="10.00" fill="#000000">Fun4All_EIC_Generator</text>
<text text-anchor="middle" x="636.5" y="-1216.5" font-family="FreeSans" font-size="10.00" fill="#000000">_Display</text>
</a>
</g>
</g>
<!-- Node3&#45;&gt;Node10 -->
<g id="edge9" class="edge">
<title>Node3&#45;&gt;Node10</title>
<path fill="none" stroke="#191970" d="M443.6039,-758.0486C454.5464,-847.317 494.0397,-1134.7289 556,-1200.5 560.1142,-1204.8673 564.9754,-1208.4769 570.2389,-1211.4596"/>
<polygon fill="#191970" stroke="#191970" points="447.0573,-757.4517 442.3841,-747.9432 440.1078,-758.2906 447.0573,-757.4517"/>
</g>
<!-- Node11 -->
<g id="node11" class="node">
<title>Node11</title>
<g id="a_node11"><a xlink:href="../../d0/d87/Fun4All__G4__JLeic_8C.html#a66e8fc0b01ee0a8e805c7b99c4698974" target="_top" xlink:title="Fun4All_G4_JLeic">
<polygon fill="none" stroke="#000000" points="586,-1170.5 586,-1190.5 687,-1190.5 687,-1170.5 586,-1170.5"/>
<text text-anchor="middle" x="636.5" y="-1177.5" font-family="FreeSans" font-size="10.00" fill="#000000">Fun4All_G4_JLeic</text>
</a>
</g>
</g>
<!-- Node3&#45;&gt;Node11 -->
<g id="edge10" class="edge">
<title>Node3&#45;&gt;Node11</title>
<path fill="none" stroke="#191970" d="M443.9932,-757.6393C455.7639,-841.8447 496.5947,-1103.8869 556,-1161.5 564.1434,-1169.3978 574.9269,-1174.2305 585.9454,-1177.1378"/>
<polygon fill="#191970" stroke="#191970" points="447.4455,-757.0525 442.6137,-747.6236 440.5109,-758.0077 447.4455,-757.0525"/>
</g>
<!-- Node12 -->
<g id="node12" class="node">
<title>Node12</title>
<g id="a_node12"><a xlink:href="../../da/d02/Fun4All__G4__EICDetector_8C.html#afbe82cefa1d1fd031d9a8586b7bb68c6" target="_top" xlink:title="Fun4All_G4_EICDetector">
<polygon fill="none" stroke="#000000" points="567,-1131.5 567,-1151.5 706,-1151.5 706,-1131.5 567,-1131.5"/>
<text text-anchor="middle" x="636.5" y="-1138.5" font-family="FreeSans" font-size="10.00" fill="#000000">Fun4All_G4_EICDetector</text>
</a>
</g>
</g>
<!-- Node3&#45;&gt;Node12 -->
<g id="edge11" class="edge">
<title>Node3&#45;&gt;Node12</title>
<path fill="none" stroke="#191970" d="M444.7277,-757.5809C458.0444,-836.5707 501.4896,-1070.9311 556,-1122.5 559.7553,-1126.0527 564.0463,-1128.9819 568.6482,-1131.3927"/>
<polygon fill="#191970" stroke="#191970" points="448.1445,-756.7914 443.0506,-747.5015 441.2394,-757.9404 448.1445,-756.7914"/>
</g>
<!-- Node13 -->
<g id="node13" class="node">
<title>Node13</title>
<g id="a_node13"><a xlink:href="../../d7/d9e/Fun4All__G4__fsPHENIX_8C.html#a72c444217210a14ab1b4e66d9818b1ff" target="_top" xlink:title="Fun4All_G4_fsPHENIX">
<polygon fill="none" stroke="#000000" points="574.5,-1092.5 574.5,-1112.5 698.5,-1112.5 698.5,-1092.5 574.5,-1092.5"/>
<text text-anchor="middle" x="636.5" y="-1099.5" font-family="FreeSans" font-size="10.00" fill="#000000">Fun4All_G4_fsPHENIX</text>
</a>
</g>
</g>
<!-- Node3&#45;&gt;Node13 -->
<g id="edge12" class="edge">
<title>Node3&#45;&gt;Node13</title>
<path fill="none" stroke="#191970" d="M445.5956,-757.4146C460.538,-830.8382 506.3292,-1037.8939 556,-1083.5 561.2887,-1088.3559 567.5823,-1092.0398 574.2866,-1094.8242"/>
<polygon fill="#191970" stroke="#191970" points="449.022,-756.6994 443.6181,-747.5864 442.1595,-758.0803 449.022,-756.6994"/>
</g>
<!-- Node14 -->
<g id="node14" class="node">
<title>Node14</title>
<g id="a_node14"><a xlink:href="../../d0/d13/Fun4All__G4__sPHENIX_8C.html#a536fa7366e3aeaf273cca94ced704c46" target="_top" xlink:title="Fun4All_G4_sPHENIX">
<polygon fill="none" stroke="#000000" points="576,-1053.5 576,-1073.5 697,-1073.5 697,-1053.5 576,-1053.5"/>
<text text-anchor="middle" x="636.5" y="-1060.5" font-family="FreeSans" font-size="10.00" fill="#000000">Fun4All_G4_sPHENIX</text>
</a>
</g>
</g>
<!-- Node3&#45;&gt;Node14 -->
<g id="edge13" class="edge">
<title>Node3&#45;&gt;Node14</title>
<path fill="none" stroke="#191970" d="M442.1318,-757.958C447.3403,-818.4029 468.8257,-967.34 556,-1044.5 561.6989,-1049.5442 568.4885,-1053.3142 575.6729,-1056.1214"/>
<polygon fill="#191970" stroke="#191970" points="445.6019,-757.437 441.3365,-747.7387 438.623,-757.9801 445.6019,-757.437"/>
</g>
<!-- Node15 -->
<g id="node15" class="node">
<title>Node15</title>
<g id="a_node15"><a xlink:href="../../de/da9/ReadClustersRunTracking_8C.html#ae0216e7ee610ee6cb8ebc2392d00431b" target="_top" xlink:title="ReadClustersRunTracking">
<polygon fill="none" stroke="#000000" points="564.5,-1014.5 564.5,-1034.5 708.5,-1034.5 708.5,-1014.5 564.5,-1014.5"/>
<text text-anchor="middle" x="636.5" y="-1021.5" font-family="FreeSans" font-size="10.00" fill="#000000">ReadClustersRunTracking</text>
</a>
</g>
</g>
<!-- Node3&#45;&gt;Node15 -->
<g id="edge14" class="edge">
<title>Node3&#45;&gt;Node15</title>
<path fill="none" stroke="#191970" d="M443.6592,-757.7034C451.7133,-812.5364 478.2017,-939.7284 556,-1005.5 560.2767,-1009.1156 565.1187,-1012.0706 570.2544,-1014.4822"/>
<polygon fill="#191970" stroke="#191970" points="447.1187,-757.1688 442.2845,-747.7412 440.1844,-758.1258 447.1187,-757.1688"/>
</g>
<!-- Node16 -->
<g id="node16" class="node">
<title>Node16</title>
<g id="a_node16"><a xlink:href="../../db/dc0/Fun4All__AnaTutorial_8C.html#a8c484ea6d7477278e981ef056b17eac9" target="_top" xlink:title="Fun4All_AnaTutorial">
<polygon fill="none" stroke="#000000" points="579,-975.5 579,-995.5 694,-995.5 694,-975.5 579,-975.5"/>
<text text-anchor="middle" x="636.5" y="-982.5" font-family="FreeSans" font-size="10.00" fill="#000000">Fun4All_AnaTutorial</text>
</a>
</g>
</g>
<!-- Node3&#45;&gt;Node16 -->
<g id="edge15" class="edge">
<title>Node3&#45;&gt;Node16</title>
<path fill="none" stroke="#191970" d="M445.6016,-757.3706C456.63,-806.1831 487.4399,-911.8607 556,-966.5 562.6255,-971.7802 570.4729,-975.6358 578.6271,-978.443"/>
<polygon fill="#191970" stroke="#191970" points="449.0206,-756.6213 443.4863,-747.5868 442.1786,-758.1006 449.0206,-756.6213"/>
</g>
<!-- Node17 -->
<g id="node17" class="node">
<title>Node17</title>
<g id="a_node17"><a xlink:href="../../dd/d28/Fun4All__AnaTutorial__Jets_8C.html#a55eaaeb770a3177f917012de87877d28" target="_top" xlink:title="Fun4All_AnaTutorial_Jets">
<polygon fill="none" stroke="#000000" points="567,-936.5 567,-956.5 706,-956.5 706,-936.5 567,-936.5"/>
<text text-anchor="middle" x="636.5" y="-943.5" font-family="FreeSans" font-size="10.00" fill="#000000">Fun4All_AnaTutorial_Jets</text>
</a>
</g>
</g>
<!-- Node3&#45;&gt;Node17 -->
<g id="edge16" class="edge">
<title>Node3&#45;&gt;Node17</title>
<path fill="none" stroke="#191970" d="M448.2783,-757.2551C462.4601,-799.6481 496.6632,-883.7772 556,-927.5 560.8553,-931.0777 566.2843,-933.9928 571.9679,-936.3666"/>
<polygon fill="#191970" stroke="#191970" points="451.5842,-756.1031 445.1757,-747.6662 444.9242,-758.258 451.5842,-756.1031"/>
</g>
<!-- Node18 -->
<g id="node18" class="node">
<title>Node18</title>
<g id="a_node18"><a xlink:href="../../de/d55/Fun4All__G4__block_8C.html#a6a063a649a0dd3318a517d5af98430dd" target="_top" xlink:title="Fun4All_G4_block">
<polygon fill="none" stroke="#000000" points="584,-897.5 584,-917.5 689,-917.5 689,-897.5 584,-897.5"/>
<text text-anchor="middle" x="636.5" y="-904.5" font-family="FreeSans" font-size="10.00" fill="#000000">Fun4All_G4_block</text>
</a>
</g>
</g>
<!-- Node3&#45;&gt;Node18 -->
<g id="edge17" class="edge">
<title>Node3&#45;&gt;Node18</title>
<path fill="none" stroke="#191970" d="M452.0691,-756.9483C469.4443,-792.1835 505.6874,-855.237 556,-888.5 564.2652,-893.9643 573.923,-897.8633 583.6223,-900.6439"/>
<polygon fill="#191970" stroke="#191970" points="455.1575,-755.2943 447.6727,-747.7958 448.8477,-758.3253 455.1575,-755.2943"/>
</g>
<!-- Node19 -->
<g id="node19" class="node">
<title>Node19</title>
<g id="a_node19"><a xlink:href="../../d5/d5a/block_2MyHitTTree_8C.html#a9e8ef49a847a7526e0c19d923a0486a7" target="_top" xlink:title="MyHitTTree">
<polygon fill="none" stroke="#000000" points="600.5,-858.5 600.5,-878.5 672.5,-878.5 672.5,-858.5 600.5,-858.5"/>
<text text-anchor="middle" x="636.5" y="-865.5" font-family="FreeSans" font-size="10.00" fill="#000000">MyHitTTree</text>
</a>
</g>
</g>
<!-- Node3&#45;&gt;Node19 -->
<g id="edge18" class="edge">
<title>Node3&#45;&gt;Node19</title>
<path fill="none" stroke="#191970" d="M457.5814,-755.8682C477.8912,-782.9548 514.3282,-825.9743 556,-849.5 569.505,-857.1242 585.9424,-861.6971 600.4344,-864.4362"/>
<polygon fill="#191970" stroke="#191970" points="460.3077,-753.6674 451.5678,-747.6786 454.6654,-757.8105 460.3077,-753.6674"/>
</g>
<!-- Node20 -->
<g id="node20" class="node">
<title>Node20</title>
<g id="a_node20"><a xlink:href="../../df/d77/Fun4All__CaloAna_8C.html#a4f0841e3d8be48f96cc4e95380315ff8" target="_top" xlink:title="Fun4All_CaloAna">
<polygon fill="none" stroke="#000000" points="586.5,-819.5 586.5,-839.5 686.5,-839.5 686.5,-819.5 586.5,-819.5"/>
<text text-anchor="middle" x="636.5" y="-826.5" font-family="FreeSans" font-size="10.00" fill="#000000">Fun4All_CaloAna</text>
</a>
</g>
</g>
<!-- Node3&#45;&gt;Node20 -->
<g id="edge19" class="edge">
<title>Node3&#45;&gt;Node20</title>
<path fill="none" stroke="#191970" d="M467.2262,-754.0329C489.6079,-771.8143 523.0909,-795.9677 556,-810.5 565.4579,-814.6765 575.9634,-818.0067 586.1791,-820.6362"/>
<polygon fill="#191970" stroke="#191970" points="469.1948,-751.1239 459.2161,-747.5634 464.7964,-756.5695 469.1948,-751.1239"/>
</g>
<!-- Node21 -->
<g id="node21" class="node">
<title>Node21</title>
<g id="a_node21"><a xlink:href="../../d8/d91/Fun4All__G4__Clusters_8C.html#ab7d8e64f12f512631d4c0e8c6683ec5b" target="_top" xlink:title="Fun4All_G4_Clusters">
<polygon fill="none" stroke="#000000" points="577,-780.5 577,-800.5 696,-800.5 696,-780.5 577,-780.5"/>
<text text-anchor="middle" x="636.5" y="-787.5" font-family="FreeSans" font-size="10.00" fill="#000000">Fun4All_G4_Clusters</text>
</a>
</g>
</g>
<!-- Node3&#45;&gt;Node21 -->
<g id="edge20" class="edge">
<title>Node3&#45;&gt;Node21</title>
<path fill="none" stroke="#191970" d="M493.1522,-750.9982C512.7435,-757.918 535.2542,-765.4763 556,-771.5 567.0321,-774.7033 579.0305,-777.76 590.3139,-780.4489"/>
<polygon fill="#191970" stroke="#191970" points="494.0897,-747.6167 483.495,-747.5561 491.7394,-754.2104 494.0897,-747.6167"/>
</g>
<!-- Node22 -->
<g id="node22" class="node">
<title>Node22</title>
<g id="a_node22"><a xlink:href="../../d9/da0/G4TTree_8C.html#a7e873c78b05882087e257d133fde3c67" target="_top" xlink:title="G4TTree">
<polygon fill="none" stroke="#000000" points="608,-741.5 608,-761.5 665,-761.5 665,-741.5 608,-741.5"/>
<text text-anchor="middle" x="636.5" y="-748.5" font-family="FreeSans" font-size="10.00" fill="#000000">G4TTree</text>
</a>
</g>
</g>
<!-- Node3&#45;&gt;Node22 -->
<g id="edge21" class="edge">
<title>Node3&#45;&gt;Node22</title>
<path fill="none" stroke="#191970" d="M530.4488,-740.6785C558.3646,-743.527 587.1575,-746.465 607.6848,-748.5597"/>
<polygon fill="#191970" stroke="#191970" points="530.5244,-737.1681 520.2207,-739.6348 529.8137,-744.1319 530.5244,-737.1681"/>
</g>
<!-- Node23 -->
<g id="node23" class="node">
<title>Node23</title>
<g id="a_node23"><a xlink:href="../../d9/dc6/Fun4All__MySimpleReco_8C.html#ad7331daaa361667fbb6d60ce362d4288" target="_top" xlink:title="Fun4All_MySimpleReco">
<polygon fill="none" stroke="#000000" points="570.5,-702.5 570.5,-722.5 702.5,-722.5 702.5,-702.5 570.5,-702.5"/>
<text text-anchor="middle" x="636.5" y="-709.5" font-family="FreeSans" font-size="10.00" fill="#000000">Fun4All_MySimpleReco</text>
</a>
</g>
</g>
<!-- Node3&#45;&gt;Node23 -->
<g id="edge22" class="edge">
<title>Node3&#45;&gt;Node23</title>
<path fill="none" stroke="#191970" d="M530.4337,-722.7819C543.8631,-721.4801 557.4959,-720.1586 570.3141,-718.916"/>
<polygon fill="#191970" stroke="#191970" points="529.8363,-719.3233 520.2207,-723.772 530.5118,-726.2907 529.8363,-719.3233"/>
</g>
<!-- Node24 -->
<g id="node24" class="node">
<title>Node24</title>
<g id="a_node24"><a xlink:href="../../d2/dee/Fun4All__G4__Cylinder_8C.html#a271dc4f10f6f77107705e0efef0c97e5" target="_top" xlink:title="Fun4All_G4_Cylinder">
<polygon fill="none" stroke="#000000" points="576,-663.5 576,-683.5 697,-683.5 697,-663.5 576,-663.5"/>
<text text-anchor="middle" x="636.5" y="-670.5" font-family="FreeSans" font-size="10.00" fill="#000000">Fun4All_G4_Cylinder</text>
</a>
</g>
</g>
<!-- Node3&#45;&gt;Node24 -->
<g id="edge23" class="edge">
<title>Node3&#45;&gt;Node24</title>
<path fill="none" stroke="#191970" d="M496.2537,-712.2291C515.1308,-705.9526 536.3956,-699.1518 556,-693.5 568.0382,-690.0295 581.1914,-686.6079 593.3115,-683.6029"/>
<polygon fill="#191970" stroke="#191970" points="494.9924,-708.9604 486.6213,-715.4547 497.2152,-715.5981 494.9924,-708.9604"/>
</g>
<!-- Node25 -->
<g id="node25" class="node">
<title>Node25</title>
<g id="a_node25"><a xlink:href="../../d4/dfa/Fun4All__Generator__Display_8C.html#af87924a94b22e18901f0d64805565f09" target="_top" xlink:title="Fun4All_Generator_Display">
<polygon fill="none" stroke="#000000" points="560.5,-624.5 560.5,-644.5 712.5,-644.5 712.5,-624.5 560.5,-624.5"/>
<text text-anchor="middle" x="636.5" y="-631.5" font-family="FreeSans" font-size="10.00" fill="#000000">Fun4All_Generator_Display</text>
</a>
</g>
</g>
<!-- Node3&#45;&gt;Node25 -->
<g id="edge24" class="edge">
<title>Node3&#45;&gt;Node25</title>
<path fill="none" stroke="#191970" d="M468.1777,-709.0477C490.6317,-691.8547 523.744,-668.7409 556,-654.5 565.0899,-650.4868 575.1279,-647.1841 584.9425,-644.5003"/>
<polygon fill="#191970" stroke="#191970" points="465.8627,-706.4143 460.1179,-715.3164 470.1602,-711.9398 465.8627,-706.4143"/>
</g>
<!-- Node26 -->
<g id="node26" class="node">
<title>Node26</title>
<g id="a_node26"><a xlink:href="../../df/de1/Fun4All__G4__IonGun_8C.html#ab4966a2ae337cb8f0e45f7ee488e33b7" target="_top" xlink:title="Fun4All_G4_IonGun">
<polygon fill="none" stroke="#000000" points="579.5,-585.5 579.5,-605.5 693.5,-605.5 693.5,-585.5 579.5,-585.5"/>
<text text-anchor="middle" x="636.5" y="-592.5" font-family="FreeSans" font-size="10.00" fill="#000000">Fun4All_G4_IonGun</text>
</a>
</g>
</g>
<!-- Node3&#45;&gt;Node26 -->
<g id="edge25" class="edge">
<title>Node3&#45;&gt;Node26</title>
<path fill="none" stroke="#191970" d="M458.0583,-707.2081C478.5624,-680.6437 514.9477,-638.7623 556,-615.5 563.1415,-611.4533 571.0936,-608.2171 579.1414,-605.6311"/>
<polygon fill="#191970" stroke="#191970" points="455.2152,-705.165 451.9733,-715.2517 460.7978,-709.3882 455.2152,-705.165"/>
</g>
<!-- Node27 -->
<g id="node27" class="node">
<title>Node27</title>
<g id="a_node27"><a xlink:href="../../d9/d8f/Fun4All__G4__Momentum_8C.html#afbd7a4eecd7792e9216ce80b5514123e" target="_top" xlink:title="Fun4All_G4_Momentum">
<polygon fill="none" stroke="#000000" points="569,-546.5 569,-566.5 704,-566.5 704,-546.5 569,-546.5"/>
<text text-anchor="middle" x="636.5" y="-553.5" font-family="FreeSans" font-size="10.00" fill="#000000">Fun4All_G4_Momentum</text>
</a>
</g>
</g>
<!-- Node3&#45;&gt;Node27 -->
<g id="edge26" class="edge">
<title>Node3&#45;&gt;Node27</title>
<path fill="none" stroke="#191970" d="M452.2095,-706.4558C469.7526,-671.7651 506.1949,-609.6283 556,-576.5 562.1151,-572.4325 568.9886,-569.1919 576.0756,-566.6101"/>
<polygon fill="#191970" stroke="#191970" points="449.0503,-704.9488 447.7672,-715.4657 455.3287,-708.0444 449.0503,-704.9488"/>
</g>
<!-- Node28 -->
<g id="node28" class="node">
<title>Node28</title>
<g id="a_node28"><a xlink:href="../../db/d96/Fun4All__JetAna_8C.html#a519de39bdb8606d50d045cc11466e2e6" target="_top" xlink:title="Fun4All_JetAna">
<polygon fill="none" stroke="#000000" points="591,-507.5 591,-527.5 682,-527.5 682,-507.5 591,-507.5"/>
<text text-anchor="middle" x="636.5" y="-514.5" font-family="FreeSans" font-size="10.00" fill="#000000">Fun4All_JetAna</text>
</a>
</g>
</g>
<!-- Node3&#45;&gt;Node28 -->
<g id="edge27" class="edge">
<title>Node3&#45;&gt;Node28</title>
<path fill="none" stroke="#191970" d="M448.519,-705.7685C462.9596,-663.814 497.4148,-580.997 556,-537.5 566.0591,-530.0316 578.5784,-525.3294 590.724,-522.376"/>
<polygon fill="#191970" stroke="#191970" points="445.1945,-704.6742 445.3529,-715.2679 451.8353,-706.8876 445.1945,-704.6742"/>
</g>
<!-- Node29 -->
<g id="node29" class="node">
<title>Node29</title>
<g id="a_node29"><a xlink:href="../../dd/d9c/AnalyzeTree_8C.html#af10d516ac25cd720d54534a63ef7e2f8" target="_top" xlink:title="AnalyzeTree">
<polygon fill="none" stroke="#000000" points="597.5,-468.5 597.5,-488.5 675.5,-488.5 675.5,-468.5 597.5,-468.5"/>
<text text-anchor="middle" x="636.5" y="-475.5" font-family="FreeSans" font-size="10.00" fill="#000000">AnalyzeTree</text>
</a>
</g>
</g>
<!-- Node3&#45;&gt;Node29 -->
<g id="edge28" class="edge">
<title>Node3&#45;&gt;Node29</title>
<path fill="none" stroke="#191970" d="M445.882,-705.2617C457.2553,-656.6955 488.4423,-552.8027 556,-498.5 567.6731,-489.1172 583.1474,-484.0571 597.408,-481.3561"/>
<polygon fill="#191970" stroke="#191970" points="442.4071,-704.7627 443.6343,-715.2862 449.2375,-706.2942 442.4071,-704.7627"/>
</g>
<!-- Node30 -->
<g id="node30" class="node">
<title>Node30</title>
<g id="a_node30"><a xlink:href="../../d6/dc1/MakeTree_8C.html#a53b8088628309d5abb10a7aaf0d33b7a" target="_top" xlink:title="MakeTree">
<polygon fill="none" stroke="#000000" points="604.5,-429.5 604.5,-449.5 668.5,-449.5 668.5,-429.5 604.5,-429.5"/>
<text text-anchor="middle" x="636.5" y="-436.5" font-family="FreeSans" font-size="10.00" fill="#000000">MakeTree</text>
</a>
</g>
</g>
<!-- Node3&#45;&gt;Node30 -->
<g id="edge29" class="edge">
<title>Node3&#45;&gt;Node30</title>
<path fill="none" stroke="#191970" d="M443.8342,-705.2143C452.1832,-650.7245 479.1424,-525.0786 556,-459.5 569.3648,-448.0965 588.2738,-443.0197 604.4074,-440.8294"/>
<polygon fill="#191970" stroke="#191970" points="440.3256,-705.0232 442.3633,-715.4202 447.254,-706.0217 440.3256,-705.0232"/>
</g>
<!-- Node31 -->
<g id="node31" class="node">
<title>Node31</title>
<g id="a_node31"><a xlink:href="../../de/dcb/RunBoth_8C.html#a953c430173a95963886161f24b97640c" target="_top" xlink:title="RunBoth">
<polygon fill="none" stroke="#000000" points="607,-390.5 607,-410.5 666,-410.5 666,-390.5 607,-390.5"/>
<text text-anchor="middle" x="636.5" y="-397.5" font-family="FreeSans" font-size="10.00" fill="#000000">RunBoth</text>
</a>
</g>
</g>
<!-- Node3&#45;&gt;Node31 -->
<g id="edge30" class="edge">
<title>Node3&#45;&gt;Node31</title>
<path fill="none" stroke="#191970" d="M442.2511,-705.2771C447.7104,-645.3571 469.6869,-497.6435 556,-420.5 569.8508,-408.1206 590.1833,-403.1389 606.9481,-401.2428"/>
<polygon fill="#191970" stroke="#191970" points="438.7495,-705.1521 441.4121,-715.4069 445.7256,-705.73 438.7495,-705.1521"/>
</g>
<!-- Node32 -->
<g id="node32" class="node">
<title>Node32</title>
<g id="a_node32"><a xlink:href="../../d1/dc4/Fun4All__G4__Example03_8C.html#a6519821c64f56c74d049579392dfac3f" target="_top" xlink:title="Fun4All_G4_Example03">
<polygon fill="none" stroke="#000000" points="569,-351.5 569,-371.5 704,-371.5 704,-351.5 569,-351.5"/>
<text text-anchor="middle" x="636.5" y="-358.5" font-family="FreeSans" font-size="10.00" fill="#000000">Fun4All_G4_Example03</text>
</a>
</g>
</g>
<!-- Node3&#45;&gt;Node32 -->
<g id="edge31" class="edge">
<title>Node3&#45;&gt;Node32</title>
<path fill="none" stroke="#191970" d="M445.7463,-705.2601C460.9224,-631.8907 506.9242,-427.016 556,-381.5 560.329,-377.485 565.3362,-374.2431 570.6933,-371.6296"/>
<polygon fill="#191970" stroke="#191970" points="442.3094,-704.5977 443.7342,-715.0963 449.1674,-706.0006 442.3094,-704.5977"/>
</g>
<!-- Node33 -->
<g id="node33" class="node">
<title>Node33</title>
<g id="a_node33"><a xlink:href="../../df/ddd/Fun4All__G4__Example02_8C.html#a828c51f9608f078106cef9343df49316" target="_top" xlink:title="Fun4All_G4_Example02">
<polygon fill="none" stroke="#000000" points="569,-312.5 569,-332.5 704,-332.5 704,-312.5 569,-312.5"/>
<text text-anchor="middle" x="636.5" y="-319.5" font-family="FreeSans" font-size="10.00" fill="#000000">Fun4All_G4_Example02</text>
</a>
</g>
</g>
<!-- Node3&#45;&gt;Node33 -->
<g id="edge32" class="edge">
<title>Node3&#45;&gt;Node33</title>
<path fill="none" stroke="#191970" d="M444.8653,-705.0463C458.4211,-626.0216 502.1336,-393.9898 556,-342.5 560.1639,-338.5198 564.9919,-335.2951 570.1749,-332.6871"/>
<polygon fill="#191970" stroke="#191970" points="441.3737,-704.7028 443.1547,-715.1468 448.2754,-705.8717 441.3737,-704.7028"/>
</g>
<!-- Node34 -->
<g id="node34" class="node">
<title>Node34</title>
<g id="a_node34"><a xlink:href="../../d5/d7d/Fun4All__G4__Example01_8C.html#ab61e640155444e40e5ff32fe50125b4d" target="_top" xlink:title="Fun4All_G4_Example01">
<polygon fill="none" stroke="#000000" points="569,-273.5 569,-293.5 704,-293.5 704,-273.5 569,-273.5"/>
<text text-anchor="middle" x="636.5" y="-280.5" font-family="FreeSans" font-size="10.00" fill="#000000">Fun4All_G4_Example01</text>
</a>
</g>
</g>
<!-- Node3&#45;&gt;Node34 -->
<g id="edge33" class="edge">
<title>Node3&#45;&gt;Node34</title>
<path fill="none" stroke="#191970" d="M444.0382,-705.5088C455.9476,-621.7764 497.1562,-361.1748 556,-303.5 560.1138,-299.468 564.9073,-296.2077 570.0677,-293.5764"/>
<polygon fill="#191970" stroke="#191970" points="440.5644,-705.0789 442.642,-715.468 447.4966,-706.0508 440.5644,-705.0789"/>
</g>
<!-- Node35 -->
<g id="node35" class="node">
<title>Node35</title>
<g id="a_node35"><a xlink:href="../../dc/d3f/Fun4All__G4__Geantino_8C.html#a2a4c70246a9a6288b367a2fa7c1d1087" target="_top" xlink:title="Fun4All_G4_Geantino">
<polygon fill="none" stroke="#000000" points="574.5,-234.5 574.5,-254.5 698.5,-254.5 698.5,-234.5 574.5,-234.5"/>
<text text-anchor="middle" x="636.5" y="-241.5" font-family="FreeSans" font-size="10.00" fill="#000000">Fun4All_G4_Geantino</text>
</a>
</g>
</g>
<!-- Node3&#45;&gt;Node35 -->
<g id="edge34" class="edge">
<title>Node3&#45;&gt;Node35</title>
<path fill="none" stroke="#191970" d="M443.4806,-704.9281C454.0266,-615.6013 492.3964,-328.171 556,-264.5 561.1904,-259.3041 567.5077,-255.3846 574.2968,-252.4393"/>
<polygon fill="#191970" stroke="#191970" points="439.9832,-704.7038 442.3064,-715.0408 446.9365,-705.5113 439.9832,-704.7038"/>
</g>
<!-- Node36 -->
<g id="node36" class="node">
<title>Node36</title>
<g id="a_node36"><a xlink:href="../../d1/d9c/Fun4All__G4__Write__Dst_8C.html#a97c6c9ea797219c94a95ae2fe4bc79c3" target="_top" xlink:title="Fun4All_G4_Write_Dst">
<polygon fill="none" stroke="#000000" points="573,-195.5 573,-215.5 700,-215.5 700,-195.5 573,-195.5"/>
<text text-anchor="middle" x="636.5" y="-202.5" font-family="FreeSans" font-size="10.00" fill="#000000">Fun4All_G4_Write_Dst</text>
</a>
</g>
</g>
<!-- Node3&#45;&gt;Node36 -->
<g id="edge35" class="edge">
<title>Node3&#45;&gt;Node36</title>
<path fill="none" stroke="#191970" d="M442.9083,-705.2165C452.0217,-611.4759 487.4086,-295.4142 556,-225.5 560.74,-220.6686 566.4529,-216.9371 572.6217,-214.0645"/>
<polygon fill="#191970" stroke="#191970" points="439.4142,-704.9894 441.9489,-715.2765 446.3826,-705.654 439.4142,-704.9894"/>
</g>
<!-- Node37 -->
<g id="node37" class="node">
<title>Node37</title>
<g id="a_node37"><a xlink:href="../../d1/d29/Fun4All__Read__Dst_8C.html#ae153a0407033e203422cedf7e2ce5b3b" target="_top" xlink:title="Fun4All_Read_Dst">
<polygon fill="none" stroke="#000000" points="583.5,-156.5 583.5,-176.5 689.5,-176.5 689.5,-156.5 583.5,-156.5"/>
<text text-anchor="middle" x="636.5" y="-163.5" font-family="FreeSans" font-size="10.00" fill="#000000">Fun4All_Read_Dst</text>
</a>
</g>
</g>
<!-- Node3&#45;&gt;Node37 -->
<g id="edge36" class="edge">
<title>Node3&#45;&gt;Node37</title>
<path fill="none" stroke="#191970" d="M442.4493,-705.1642C450.2591,-606.7888 482.4831,-262.6117 556,-186.5 563.3034,-178.9388 572.9874,-174.0636 583.1003,-170.9573"/>
<polygon fill="#191970" stroke="#191970" points="438.9382,-705.1728 441.6541,-715.4136 445.9172,-705.7143 438.9382,-705.1728"/>
</g>
<!-- Node38 -->
<g id="node38" class="node">
<title>Node38</title>
<g id="a_node38"><a xlink:href="../../d1/d54/Fun4All__G4__MyDetector_8C.html#a42ff88b75bd8510ae12cc9757b9a693b" target="_top" xlink:title="Fun4All_G4_MyDetector">
<polygon fill="none" stroke="#000000" points="568,-117.5 568,-137.5 705,-137.5 705,-117.5 568,-117.5"/>
<text text-anchor="middle" x="636.5" y="-124.5" font-family="FreeSans" font-size="10.00" fill="#000000">Fun4All_G4_MyDetector</text>
</a>
</g>
</g>
<!-- Node3&#45;&gt;Node38 -->
<g id="edge37" class="edge">
<title>Node3&#45;&gt;Node38</title>
<path fill="none" stroke="#191970" d="M442.0369,-705.3006C448.5836,-602.7108 477.4931,-229.8903 556,-147.5 559.7749,-143.5383 564.2029,-140.3121 569.0069,-137.6903"/>
<polygon fill="#191970" stroke="#191970" points="438.5356,-705.2137 441.409,-715.4114 445.5221,-705.6476 438.5356,-705.2137"/>
</g>
<!-- Node39 -->
<g id="node39" class="node">
<title>Node39</title>
<g id="a_node39"><a xlink:href="../../d2/de6/Fun4All__G4__FAIR_8C.html#a0f795c46d42e46f79023437a1db4dc29" target="_top" xlink:title="Fun4All_G4_FAIR">
<polygon fill="none" stroke="#000000" points="586.5,-78.5 586.5,-98.5 686.5,-98.5 686.5,-78.5 586.5,-78.5"/>
<text text-anchor="middle" x="636.5" y="-85.5" font-family="FreeSans" font-size="10.00" fill="#000000">Fun4All_G4_FAIR</text>
</a>
</g>
</g>
<!-- Node3&#45;&gt;Node39 -->
<g id="edge38" class="edge">
<title>Node3&#45;&gt;Node39</title>
<path fill="none" stroke="#191970" d="M441.7012,-704.9637C447.099,-597.6184 472.6097,-197.0682 556,-108.5 563.996,-100.0075 574.9912,-94.8869 586.287,-91.8546"/>
<polygon fill="#191970" stroke="#191970" points="438.1918,-705.0737 441.202,-715.2319 445.1836,-705.4137 438.1918,-705.0737"/>
</g>
<!-- Node40 -->
<g id="node40" class="node">
<title>Node40</title>
<g id="a_node40"><a xlink:href="../../da/de9/Fun4All__G4__FAIR__barrel__only_8C.html#ad17d6575f5ac06812f55b6cef25e64ba" target="_top" xlink:title="Fun4All_G4_FAIR_barrel_only">
<polygon fill="none" stroke="#000000" points="556,-39.5 556,-59.5 717,-59.5 717,-39.5 556,-39.5"/>
<text text-anchor="middle" x="636.5" y="-46.5" font-family="FreeSans" font-size="10.00" fill="#000000">Fun4All_G4_FAIR_barrel_only</text>
</a>
</g>
</g>
<!-- Node3&#45;&gt;Node40 -->
<g id="edge39" class="edge">
<title>Node3&#45;&gt;Node40</title>
<path fill="none" stroke="#191970" d="M441.3787,-705.1322C445.623,-593.9047 467.5827,-164.4082 556,-69.5 559.7301,-65.4961 564.1265,-62.2401 568.9093,-59.5983"/>
<polygon fill="#191970" stroke="#191970" points="437.8696,-705.3182 441.0021,-715.4393 444.865,-705.5738 437.8696,-705.3182"/>
</g>
<!-- Node41 -->
<g id="node41" class="node">
<title>Node41</title>
<g id="a_node41"><a xlink:href="../../d7/dc5/Fun4All__G4__FastMom_8C.html#ab9349be2377fe9e9a634a8607cff2555" target="_top" xlink:title="Fun4All_G4_FastMom">
<polygon fill="none" stroke="#000000" points="575,-.5 575,-20.5 698,-20.5 698,-.5 575,-.5"/>
<text text-anchor="middle" x="636.5" y="-7.5" font-family="FreeSans" font-size="10.00" fill="#000000">Fun4All_G4_FastMom</text>
</a>
</g>
</g>
<!-- Node3&#45;&gt;Node41 -->
<g id="edge40" class="edge">
<title>Node3&#45;&gt;Node41</title>
<path fill="none" stroke="#191970" d="M441.0905,-705.4323C444.2237,-590.6893 462.5062,-131.8116 556,-30.5 561.1761,-24.8911 567.6594,-20.7474 574.6867,-17.7026"/>
<polygon fill="#191970" stroke="#191970" points="437.5915,-705.3517 440.8326,-715.4386 444.5892,-705.5321 437.5915,-705.3517"/>
</g>
</g>
</svg>
