<?xml version="1.0" encoding="UTF-8" standalone="no"?>
<!DOCTYPE svg PUBLIC "-//W3C//DTD SVG 1.1//EN"
 "http://www.w3.org/Graphics/SVG/1.1/DTD/svg11.dtd">
<!-- Generated by graphviz version 2.40.1 (20161225.0304)
 -->
<!-- Title: PHG4SimpleEventGenerator::set_vertex_distribution_width Pages: 1 -->
<svg width="367pt" height="263pt"
 viewBox="0.00 0.00 367.00 263.00" xmlns="http://www.w3.org/2000/svg" xmlns:xlink="http://www.w3.org/1999/xlink">
<g id="graph0" class="graph" transform="scale(1 1) rotate(0) translate(4 259)">
<title>PHG4SimpleEventGenerator::set_vertex_distribution_width</title>
<!-- Node1 -->
<g id="node1" class="node">
<title>Node1</title>
<polygon fill="#bfbfbf" stroke="#000000" points="0,-111.5 0,-143.5 171,-143.5 171,-111.5 0,-111.5"/>
<text text-anchor="start" x="8" y="-130.5" font-family="FreeSans" font-size="10.00" fill="#000000">PHG4SimpleEventGenerator</text>
<text text-anchor="middle" x="85.5" y="-118.5" font-family="FreeSans" font-size="10.00" fill="#000000">::set_vertex_distribution_width</text>
</g>
<!-- Node2 -->
<g id="node2" class="node">
<title>Node2</title>
<g id="a_node2"><a xlink:href="../../db/dc0/Fun4All__AnaTutorial_8C.html#a8c484ea6d7477278e981ef056b17eac9" target="_top" xlink:title="Fun4All_AnaTutorial">
<polygon fill="none" stroke="#000000" points="225.5,-234.5 225.5,-254.5 340.5,-254.5 340.5,-234.5 225.5,-234.5"/>
<text text-anchor="middle" x="283" y="-241.5" font-family="FreeSans" font-size="10.00" fill="#000000">Fun4All_AnaTutorial</text>
</a>
</g>
</g>
<!-- Node1&#45;&gt;Node2 -->
<g id="edge1" class="edge">
<title>Node1&#45;&gt;Node2</title>
<path fill="none" stroke="#191970" d="M107.9876,-150.7672C130.8871,-173.1351 168.4197,-206.296 207,-225.5 214.1836,-229.0757 222.0928,-232.0125 230.0115,-234.4149"/>
<polygon fill="#191970" stroke="#191970" points="110.364,-148.1945 100.8023,-143.6311 105.4312,-153.1612 110.364,-148.1945"/>
</g>
<!-- Node3 -->
<g id="node3" class="node">
<title>Node3</title>
<g id="a_node3"><a xlink:href="../../dd/d28/Fun4All__AnaTutorial__Jets_8C.html#a55eaaeb770a3177f917012de87877d28" target="_top" xlink:title="Fun4All_AnaTutorial_Jets">
<polygon fill="none" stroke="#000000" points="213.5,-195.5 213.5,-215.5 352.5,-215.5 352.5,-195.5 213.5,-195.5"/>
<text text-anchor="middle" x="283" y="-202.5" font-family="FreeSans" font-size="10.00" fill="#000000">Fun4All_AnaTutorial_Jets</text>
</a>
</g>
</g>
<!-- Node1&#45;&gt;Node3 -->
<g id="edge2" class="edge">
<title>Node1&#45;&gt;Node3</title>
<path fill="none" stroke="#191970" d="M123.174,-148.3074C146.7332,-160.6806 178.0095,-175.9663 207,-186.5 216.3315,-189.8906 226.521,-192.8925 236.3204,-195.4516"/>
<polygon fill="#191970" stroke="#191970" points="124.6965,-145.153 114.2233,-143.5519 121.4121,-151.3347 124.6965,-145.153"/>
</g>
<!-- Node4 -->
<g id="node4" class="node">
<title>Node4</title>
<g id="a_node4"><a xlink:href="../../da/d02/Fun4All__G4__EICDetector_8C.html#afbe82cefa1d1fd031d9a8586b7bb68c6" target="_top" xlink:title="Fun4All_G4_EICDetector">
<polygon fill="none" stroke="#000000" points="213.5,-156.5 213.5,-176.5 352.5,-176.5 352.5,-156.5 213.5,-156.5"/>
<text text-anchor="middle" x="283" y="-163.5" font-family="FreeSans" font-size="10.00" fill="#000000">Fun4All_G4_EICDetector</text>
</a>
</g>
</g>
<!-- Node1&#45;&gt;Node4 -->
<g id="edge3" class="edge">
<title>Node1&#45;&gt;Node4</title>
<path fill="none" stroke="#191970" d="M176.6056,-145.4905C195.6708,-149.2553 215.1183,-153.0955 232.0827,-156.4454"/>
<polygon fill="#191970" stroke="#191970" points="177.1744,-142.0353 166.6858,-143.5316 175.8183,-148.9027 177.1744,-142.0353"/>
</g>
<!-- Node5 -->
<g id="node5" class="node">
<title>Node5</title>
<g id="a_node5"><a xlink:href="../../d7/d9e/Fun4All__G4__fsPHENIX_8C.html#a72c444217210a14ab1b4e66d9818b1ff" target="_top" xlink:title="Fun4All_G4_fsPHENIX">
<polygon fill="none" stroke="#000000" points="221,-117.5 221,-137.5 345,-137.5 345,-117.5 221,-117.5"/>
<text text-anchor="middle" x="283" y="-124.5" font-family="FreeSans" font-size="10.00" fill="#000000">Fun4All_G4_fsPHENIX</text>
</a>
</g>
</g>
<!-- Node1&#45;&gt;Node5 -->
<g id="edge4" class="edge">
<title>Node1&#45;&gt;Node5</title>
<path fill="none" stroke="#191970" d="M181.4604,-127.5C194.8318,-127.5 208.2715,-127.5 220.7978,-127.5"/>
<polygon fill="#191970" stroke="#191970" points="181.2648,-124.0001 171.2647,-127.5 181.2647,-131.0001 181.2648,-124.0001"/>
</g>
<!-- Node6 -->
<g id="node6" class="node">
<title>Node6</title>
<g id="a_node6"><a xlink:href="../../d0/d87/Fun4All__G4__JLeic_8C.html#a66e8fc0b01ee0a8e805c7b99c4698974" target="_top" xlink:title="Fun4All_G4_JLeic">
<polygon fill="none" stroke="#000000" points="232.5,-78.5 232.5,-98.5 333.5,-98.5 333.5,-78.5 232.5,-78.5"/>
<text text-anchor="middle" x="283" y="-85.5" font-family="FreeSans" font-size="10.00" fill="#000000">Fun4All_G4_JLeic</text>
</a>
</g>
</g>
<!-- Node1&#45;&gt;Node6 -->
<g id="edge5" class="edge">
<title>Node1&#45;&gt;Node6</title>
<path fill="none" stroke="#191970" d="M176.6536,-109.5001C195.8111,-105.7171 215.3521,-101.8583 232.3698,-98.4979"/>
<polygon fill="#191970" stroke="#191970" points="175.8183,-106.0973 166.6858,-111.4684 177.1744,-112.9647 175.8183,-106.0973"/>
</g>
<!-- Node7 -->
<g id="node7" class="node">
<title>Node7</title>
<g id="a_node7"><a xlink:href="../../d0/d13/Fun4All__G4__sPHENIX_8C.html#a536fa7366e3aeaf273cca94ced704c46" target="_top" xlink:title="Fun4All_G4_sPHENIX">
<polygon fill="none" stroke="#000000" points="222.5,-39.5 222.5,-59.5 343.5,-59.5 343.5,-39.5 222.5,-39.5"/>
<text text-anchor="middle" x="283" y="-46.5" font-family="FreeSans" font-size="10.00" fill="#000000">Fun4All_G4_sPHENIX</text>
</a>
</g>
</g>
<!-- Node1&#45;&gt;Node7 -->
<g id="edge6" class="edge">
<title>Node1&#45;&gt;Node7</title>
<path fill="none" stroke="#191970" d="M124.2153,-106.7169C147.692,-94.6996 178.52,-79.9396 207,-69.5 217.2481,-65.7434 228.5131,-62.3816 239.1585,-59.5347"/>
<polygon fill="#191970" stroke="#191970" points="122.5509,-103.6373 115.2774,-111.3411 125.7675,-109.8545 122.5509,-103.6373"/>
</g>
<!-- Node8 -->
<g id="node8" class="node">
<title>Node8</title>
<g id="a_node8"><a xlink:href="../../d4/dfa/Fun4All__Generator__Display_8C.html#af87924a94b22e18901f0d64805565f09" target="_top" xlink:title="Fun4All_Generator_Display">
<polygon fill="none" stroke="#000000" points="207,-.5 207,-20.5 359,-20.5 359,-.5 207,-.5"/>
<text text-anchor="middle" x="283" y="-7.5" font-family="FreeSans" font-size="10.00" fill="#000000">Fun4All_Generator_Display</text>
</a>
</g>
</g>
<!-- Node1&#45;&gt;Node8 -->
<g id="edge7" class="edge">
<title>Node1&#45;&gt;Node8</title>
<path fill="none" stroke="#191970" d="M108.4753,-104.2072C131.4824,-82.1577 168.8616,-49.659 207,-30.5 215.0466,-26.4578 223.9956,-23.1705 232.847,-20.5175"/>
<polygon fill="#191970" stroke="#191970" points="105.9657,-101.7657 101.2435,-111.25 110.8495,-106.7806 105.9657,-101.7657"/>
</g>
</g>
</svg>
