<?xml version="1.0" encoding="UTF-8" standalone="no"?>
<!DOCTYPE svg PUBLIC "-//W3C//DTD SVG 1.1//EN"
 "http://www.w3.org/Graphics/SVG/1.1/DTD/svg11.dtd">
<!-- Generated by graphviz version 2.40.1 (20161225.0304)
 -->
<!-- Title: MakeActsGeometry::makeGeometry Pages: 1 -->
<svg width="1178pt" height="839pt"
 viewBox="0.00 0.00 1178.00 839.00" xmlns="http://www.w3.org/2000/svg" xmlns:xlink="http://www.w3.org/1999/xlink">
<g id="graph0" class="graph" transform="scale(1 1) rotate(0) translate(4 835)">
<title>MakeActsGeometry::makeGeometry</title>
<!-- Node1 -->
<g id="node1" class="node">
<title>Node1</title>
<polygon fill="#bfbfbf" stroke="#000000" points="0,-438.5 0,-458.5 199,-458.5 199,-438.5 0,-438.5"/>
<text text-anchor="middle" x="99.5" y="-445.5" font-family="FreeSans" font-size="10.00" fill="#000000">MakeActsGeometry::makeGeometry</text>
</g>
<!-- Node2 -->
<g id="node2" class="node">
<title>Node2</title>
<g id="a_node2"><a xlink:href="../../d6/d55/namespaceFW_1_1Options.html#ac891c6fc87677a259412d298a991c641" target="_top" xlink:title="FW::Options::addBFieldOptions">
<polygon fill="none" stroke="#000000" points="237,-810.5 237,-830.5 410,-830.5 410,-810.5 237,-810.5"/>
<text text-anchor="middle" x="323.5" y="-817.5" font-family="FreeSans" font-size="10.00" fill="#000000">FW::Options::addBFieldOptions</text>
</a>
</g>
</g>
<!-- Node1&#45;&gt;Node2 -->
<g id="edge1" class="edge">
<title>Node1&#45;&gt;Node2</title>
<path fill="none" stroke="#191970" d="M100.0432,-458.5504C103.1527,-505.5565 122.7862,-705.4613 235,-801.5 236.567,-802.8411 238.206,-804.0947 239.9054,-805.2661"/>
<polygon fill="#191970" stroke="#191970" points="238.448,-808.4672 248.8529,-810.4642 241.9643,-802.4145 238.448,-808.4672"/>
</g>
<!-- Node3 -->
<g id="node3" class="node">
<title>Node3</title>
<g id="a_node3"><a xlink:href="../../d6/d55/namespaceFW_1_1Options.html#ae1ce2e4db604849fc520012e78d8a476" target="_top" xlink:title="Add common geometry&#45;related options.">
<polygon fill="none" stroke="#000000" points="246.5,-759.5 246.5,-791.5 400.5,-791.5 400.5,-759.5 246.5,-759.5"/>
<text text-anchor="start" x="254.5" y="-778.5" font-family="FreeSans" font-size="10.00" fill="#000000">FW::Options::addGeometry</text>
<text text-anchor="middle" x="323.5" y="-766.5" font-family="FreeSans" font-size="10.00" fill="#000000">Options</text>
</a>
</g>
</g>
<!-- Node1&#45;&gt;Node3 -->
<g id="edge2" class="edge">
<title>Node1&#45;&gt;Node3</title>
<path fill="none" stroke="#191970" d="M100.9254,-458.6545C107.4516,-501.2471 138.4335,-667.1319 235,-750.5 236.3709,-751.6835 237.7941,-752.8113 239.2622,-753.8858"/>
<polygon fill="#191970" stroke="#191970" points="237.7878,-757.0943 248.1112,-759.4769 241.5268,-751.1765 237.7878,-757.0943"/>
</g>
<!-- Node4 -->
<g id="node4" class="node">
<title>Node4</title>
<g id="a_node4"><a xlink:href="../../d6/d55/namespaceFW_1_1Options.html#a61db487f0d3c98c0ce3d60454bd8996d" target="_top" xlink:title="Add common material&#45;related options.">
<polygon fill="none" stroke="#000000" points="251.5,-708.5 251.5,-740.5 395.5,-740.5 395.5,-708.5 251.5,-708.5"/>
<text text-anchor="start" x="259.5" y="-727.5" font-family="FreeSans" font-size="10.00" fill="#000000">FW::Options::addMaterial</text>
<text text-anchor="middle" x="323.5" y="-715.5" font-family="FreeSans" font-size="10.00" fill="#000000">Options</text>
</a>
</g>
</g>
<!-- Node1&#45;&gt;Node4 -->
<g id="edge3" class="edge">
<title>Node1&#45;&gt;Node4</title>
<path fill="none" stroke="#191970" d="M101.9352,-458.7241C111.5522,-496.8265 150.5626,-631.8381 235,-699.5 237.414,-701.4344 239.9695,-703.2191 242.6312,-704.8659"/>
<polygon fill="#191970" stroke="#191970" points="240.9946,-707.9599 251.4506,-709.6695 244.3428,-701.8126 240.9946,-707.9599"/>
</g>
<!-- Node5 -->
<g id="node5" class="node">
<title>Node5</title>
<g id="a_node5"><a xlink:href="../../d6/d55/namespaceFW_1_1Options.html#af94cc4c2dc19dbd7ebed2a39a131edbe" target="_top" xlink:title="FW::Options::addObjWriter\lOptions">
<polygon fill="none" stroke="#000000" points="247.5,-657.5 247.5,-689.5 399.5,-689.5 399.5,-657.5 247.5,-657.5"/>
<text text-anchor="start" x="255.5" y="-676.5" font-family="FreeSans" font-size="10.00" fill="#000000">FW::Options::addObjWriter</text>
<text text-anchor="middle" x="323.5" y="-664.5" font-family="FreeSans" font-size="10.00" fill="#000000">Options</text>
</a>
</g>
</g>
<!-- Node1&#45;&gt;Node5 -->
<g id="edge4" class="edge">
<title>Node1&#45;&gt;Node5</title>
<path fill="none" stroke="#191970" d="M103.3687,-458.6411C116.4362,-491.5027 162.2304,-595.9622 235,-648.5 236.8932,-649.8668 238.8589,-651.1591 240.8826,-652.3808"/>
<polygon fill="#191970" stroke="#191970" points="239.6138,-655.6711 250.0829,-657.2983 242.9136,-649.4977 239.6138,-655.6711"/>
</g>
<!-- Node6 -->
<g id="node6" class="node">
<title>Node6</title>
<g id="a_node6"><a xlink:href="../../dd/d31/classFW_1_1IBaseDetector.html#a0ad6ade8087a0bd17ed2d796f114be8f" target="_top" xlink:title="FW::IBaseDetector::\laddOptions">
<polygon fill="none" stroke="#000000" points="266,-606.5 266,-638.5 381,-638.5 381,-606.5 266,-606.5"/>
<text text-anchor="start" x="274" y="-625.5" font-family="FreeSans" font-size="10.00" fill="#000000">FW::IBaseDetector::</text>
<text text-anchor="middle" x="323.5" y="-613.5" font-family="FreeSans" font-size="10.00" fill="#000000">addOptions</text>
</a>
</g>
</g>
<!-- Node1&#45;&gt;Node6 -->
<g id="edge5" class="edge">
<title>Node1&#45;&gt;Node6</title>
<path fill="none" stroke="#191970" d="M105.7275,-458.6013C122.845,-485.5023 173.4506,-559.4188 235,-597.5 241.5871,-601.5755 248.856,-605.0042 256.3118,-607.8848"/>
<polygon fill="#191970" stroke="#191970" points="255.2236,-611.2123 265.8184,-611.2479 257.5582,-604.6131 255.2236,-611.2123"/>
</g>
<!-- Node7 -->
<g id="node7" class="node">
<title>Node7</title>
<g id="a_node7"><a xlink:href="../../d6/d55/namespaceFW_1_1Options.html#a4de04c7095cf34079cb7eaa38d7965b2" target="_top" xlink:title="Add common output&#45;related options.">
<polygon fill="none" stroke="#000000" points="235,-567.5 235,-587.5 412,-587.5 412,-567.5 235,-567.5"/>
<text text-anchor="middle" x="323.5" y="-574.5" font-family="FreeSans" font-size="10.00" fill="#000000">FW::Options::addOutputOptions</text>
</a>
</g>
</g>
<!-- Node1&#45;&gt;Node7 -->
<g id="edge6" class="edge">
<title>Node1&#45;&gt;Node7</title>
<path fill="none" stroke="#191970" d="M108.5732,-458.5576C128.9058,-480.4318 180.619,-532.4527 235,-558.5 239.5774,-560.6925 244.4084,-562.6341 249.3561,-564.3534"/>
<polygon fill="#191970" stroke="#191970" points="248.3892,-567.7184 258.979,-567.393 250.4976,-561.0434 248.3892,-567.7184"/>
</g>
<!-- Node8 -->
<g id="node8" class="node">
<title>Node8</title>
<g id="a_node8"><a xlink:href="../../d6/d55/namespaceFW_1_1Options.html#a0ae9979a970816c96e848f3b6747807e" target="_top" xlink:title="Add sequencer options, e.g. number of events.">
<polygon fill="none" stroke="#000000" points="244.5,-516.5 244.5,-548.5 402.5,-548.5 402.5,-516.5 244.5,-516.5"/>
<text text-anchor="start" x="252.5" y="-535.5" font-family="FreeSans" font-size="10.00" fill="#000000">FW::Options::addSequencer</text>
<text text-anchor="middle" x="323.5" y="-523.5" font-family="FreeSans" font-size="10.00" fill="#000000">Options</text>
</a>
</g>
</g>
<!-- Node1&#45;&gt;Node8 -->
<g id="edge7" class="edge">
<title>Node1&#45;&gt;Node8</title>
<path fill="none" stroke="#191970" d="M120.2684,-458.5944C146.559,-471.1267 193.4394,-492.6585 235,-507.5 240.8217,-509.579 246.9069,-511.6009 253.0426,-513.5356"/>
<polygon fill="#191970" stroke="#191970" points="252.1086,-516.91 262.6955,-516.4996 254.1633,-510.2184 252.1086,-516.91"/>
</g>
<!-- Node9 -->
<g id="node9" class="node">
<title>Node9</title>
<g id="a_node9"><a xlink:href="../../d7/d44/namespaceFW_1_1Geometry.html#a7fb5387ea0514bffa5d32093a60b59e3" target="_top" xlink:title="helper method to setup the geometry">
<polygon fill="none" stroke="#000000" points="264,-477.5 264,-497.5 383,-497.5 383,-477.5 264,-477.5"/>
<text text-anchor="middle" x="323.5" y="-484.5" font-family="FreeSans" font-size="10.00" fill="#000000">FW::Geometry::build</text>
</a>
</g>
</g>
<!-- Node1&#45;&gt;Node9 -->
<g id="edge8" class="edge">
<title>Node1&#45;&gt;Node9</title>
<path fill="none" stroke="#191970" d="M157.1856,-458.5435C187.3636,-463.7977 224.4833,-470.2605 255.9927,-475.7465"/>
<polygon fill="#191970" stroke="#191970" points="255.5577,-479.2233 266.0099,-477.4906 256.7585,-472.3271 255.5577,-479.2233"/>
</g>
<!-- Node11 -->
<g id="node11" class="node">
<title>Node11</title>
<g id="a_node11"><a xlink:href="../../da/d7b/namespaceActs.html#a9b4dee934b0b193d57604b19bc8cd527" target="_top" xlink:title="get default debug output logger">
<polygon fill="none" stroke="#000000" points="256.5,-438.5 256.5,-458.5 390.5,-458.5 390.5,-438.5 256.5,-438.5"/>
<text text-anchor="middle" x="323.5" y="-445.5" font-family="FreeSans" font-size="10.00" fill="#000000">Acts::getDefaultLogger</text>
</a>
</g>
</g>
<!-- Node1&#45;&gt;Node11 -->
<g id="edge10" class="edge">
<title>Node1&#45;&gt;Node11</title>
<path fill="none" stroke="#191970" d="M199.0541,-448.5C214.8137,-448.5 230.906,-448.5 246.0622,-448.5"/>
<polygon fill="#191970" stroke="#191970" points="246.3899,-452.0001 256.3898,-448.5 246.3898,-445.0001 246.3899,-452.0001"/>
</g>
<!-- Node13 -->
<g id="node13" class="node">
<title>Node13</title>
<g id="a_node13"><a xlink:href="../../d6/d55/namespaceFW_1_1Options.html#aff334d85da454b0e8ba3582ed31f9359" target="_top" xlink:title="FW::Options::makeDefault\lOptions">
<polygon fill="none" stroke="#000000" points="249,-387.5 249,-419.5 398,-419.5 398,-387.5 249,-387.5"/>
<text text-anchor="start" x="257" y="-406.5" font-family="FreeSans" font-size="10.00" fill="#000000">FW::Options::makeDefault</text>
<text text-anchor="middle" x="323.5" y="-394.5" font-family="FreeSans" font-size="10.00" fill="#000000">Options</text>
</a>
</g>
</g>
<!-- Node1&#45;&gt;Node13 -->
<g id="edge12" class="edge">
<title>Node1&#45;&gt;Node13</title>
<path fill="none" stroke="#191970" d="M149.4912,-438.4571C175.7881,-433.1743 208.7448,-426.5535 238.8832,-420.4989"/>
<polygon fill="#191970" stroke="#191970" points="239.8676,-423.8712 248.9824,-418.4701 238.4889,-417.0083 239.8676,-423.8712"/>
</g>
<!-- Node14 -->
<g id="node14" class="node">
<title>Node14</title>
<g id="a_node14"><a xlink:href="../../da/db1/classMakeActsGeometry.html#a1a27c0b3d2775dc4b48913ab77a8927a" target="_top" xlink:title="MakeActsGeometry::makeIntt\lMapPairs">
<polygon fill="none" stroke="#000000" points="240.5,-285.5 240.5,-317.5 406.5,-317.5 406.5,-285.5 240.5,-285.5"/>
<text text-anchor="start" x="248.5" y="-304.5" font-family="FreeSans" font-size="10.00" fill="#000000">MakeActsGeometry::makeIntt</text>
<text text-anchor="middle" x="323.5" y="-292.5" font-family="FreeSans" font-size="10.00" fill="#000000">MapPairs</text>
</a>
</g>
</g>
<!-- Node1&#45;&gt;Node14 -->
<g id="edge13" class="edge">
<title>Node1&#45;&gt;Node14</title>
<path fill="none" stroke="#191970" d="M107.9032,-438.4095C127.6602,-415.327 179.5922,-358.2994 235,-327.5 238.965,-325.296 243.1362,-323.2613 247.4194,-321.3856"/>
<polygon fill="#191970" stroke="#191970" points="248.9844,-324.528 256.9384,-317.5291 246.3559,-318.0402 248.9844,-324.528"/>
</g>
<!-- Node24 -->
<g id="node24" class="node">
<title>Node24</title>
<g id="a_node24"><a xlink:href="../../da/db1/classMakeActsGeometry.html#ab9b4afbf5dfd3c6f7fa38830a6560377" target="_top" xlink:title="MakeActsGeometry::makeMvtx\lMapPairs">
<polygon fill="none" stroke="#000000" points="237,-234.5 237,-266.5 410,-266.5 410,-234.5 237,-234.5"/>
<text text-anchor="start" x="245" y="-253.5" font-family="FreeSans" font-size="10.00" fill="#000000">MakeActsGeometry::makeMvtx</text>
<text text-anchor="middle" x="323.5" y="-241.5" font-family="FreeSans" font-size="10.00" fill="#000000">MapPairs</text>
</a>
</g>
</g>
<!-- Node1&#45;&gt;Node24 -->
<g id="edge23" class="edge">
<title>Node1&#45;&gt;Node24</title>
<path fill="none" stroke="#191970" d="M104.6474,-438.1673C120.056,-408.3129 168.8732,-321.2218 235,-276.5 237.9411,-274.5109 241.0366,-272.6713 244.2377,-270.9703"/>
<polygon fill="#191970" stroke="#191970" points="245.9916,-274.011 253.4981,-266.5341 242.9674,-267.698 245.9916,-274.011"/>
</g>
<!-- Node33 -->
<g id="node33" class="node">
<title>Node33</title>
<g id="a_node33"><a xlink:href="../../da/db1/classMakeActsGeometry.html#adfd719c4ad9ad3b4f1cb962f1718d4a8" target="_top" xlink:title="MakeActsGeometry::makeTpc\lMapPairs">
<polygon fill="none" stroke="#000000" points="240.5,-336.5 240.5,-368.5 406.5,-368.5 406.5,-336.5 240.5,-336.5"/>
<text text-anchor="start" x="248.5" y="-355.5" font-family="FreeSans" font-size="10.00" fill="#000000">MakeActsGeometry::makeTpc</text>
<text text-anchor="middle" x="323.5" y="-343.5" font-family="FreeSans" font-size="10.00" fill="#000000">MapPairs</text>
</a>
</g>
</g>
<!-- Node1&#45;&gt;Node33 -->
<g id="edge35" class="edge">
<title>Node1&#45;&gt;Node33</title>
<path fill="none" stroke="#191970" d="M116.5395,-438.3441C141.7448,-423.6374 190.7624,-396.2355 235,-378.5 240.8526,-376.1536 246.9986,-373.9139 253.2091,-371.8036"/>
<polygon fill="#191970" stroke="#191970" points="254.5769,-375.0385 262.9888,-368.5972 252.3961,-368.3869 254.5769,-375.0385"/>
</g>
<!-- Node36 -->
<g id="node36" class="node">
<title>Node36</title>
<g id="a_node36"><a xlink:href="../../d6/d55/namespaceFW_1_1Options.html#a03e9eee9ace87849f52983a2ef11dab6" target="_top" xlink:title="FW::Options::parse">
<polygon fill="none" stroke="#000000" points="267.5,-195.5 267.5,-215.5 379.5,-215.5 379.5,-195.5 267.5,-195.5"/>
<text text-anchor="middle" x="323.5" y="-202.5" font-family="FreeSans" font-size="10.00" fill="#000000">FW::Options::parse</text>
</a>
</g>
</g>
<!-- Node1&#45;&gt;Node36 -->
<g id="edge39" class="edge">
<title>Node1&#45;&gt;Node36</title>
<path fill="none" stroke="#191970" d="M102.5722,-438.0531C113.711,-402.1118 155.561,-282.6358 235,-225.5 241.8016,-220.608 249.5971,-216.8855 257.6799,-214.0576"/>
<polygon fill="#191970" stroke="#191970" points="258.7165,-217.4007 267.2581,-211.1325 256.6719,-210.706 258.7165,-217.4007"/>
</g>
<!-- Node37 -->
<g id="node37" class="node">
<title>Node37</title>
<g id="a_node37"><a xlink:href="../../d6/d55/namespaceFW_1_1Options.html#a776cec7f66a21c691727a431a56e8e7a" target="_top" xlink:title="FW::Options::readBField">
<polygon fill="none" stroke="#000000" points="255,-117.5 255,-137.5 392,-137.5 392,-117.5 255,-117.5"/>
<text text-anchor="middle" x="323.5" y="-124.5" font-family="FreeSans" font-size="10.00" fill="#000000">FW::Options::readBField</text>
</a>
</g>
</g>
<!-- Node1&#45;&gt;Node37 -->
<g id="edge40" class="edge">
<title>Node1&#45;&gt;Node37</title>
<path fill="none" stroke="#191970" d="M102.6491,-438.3939C114.6386,-401.1871 160.5497,-269.685 235,-186.5 251.4347,-168.1371 274.7849,-152.8859 293.3742,-142.4923"/>
<polygon fill="#191970" stroke="#191970" points="295.2004,-145.4838 302.3322,-137.6487 291.871,-139.3262 295.2004,-145.4838"/>
</g>
<!-- Node47 -->
<g id="node47" class="node">
<title>Node47</title>
<g id="a_node47"><a xlink:href="../../d6/d55/namespaceFW_1_1Options.html#a3eae7e1ac725beadd756591da42d30cf" target="_top" xlink:title="Read the log level.">
<polygon fill="none" stroke="#000000" points="248,-78.5 248,-98.5 399,-98.5 399,-78.5 248,-78.5"/>
<text text-anchor="middle" x="323.5" y="-85.5" font-family="FreeSans" font-size="10.00" fill="#000000">FW::Options::readLogLevel</text>
</a>
</g>
</g>
<!-- Node1&#45;&gt;Node47 -->
<g id="edge53" class="edge">
<title>Node1&#45;&gt;Node47</title>
<path fill="none" stroke="#191970" d="M100.2491,-438.224C104.2007,-391.9237 126.7716,-200.9448 235,-108.5 237.0437,-106.7544 239.208,-105.1526 241.4679,-103.6833"/>
<polygon fill="#191970" stroke="#191970" points="243.536,-106.5399 250.6051,-98.6483 240.1577,-100.4091 243.536,-106.5399"/>
</g>
<!-- Node48 -->
<g id="node48" class="node">
<title>Node48</title>
<g id="a_node48"><a xlink:href="../../d3/d9b/namespacenlohmann.html#a6ce645a0b8717757e096a5b5773b7a16" target="_top" xlink:title="user&#45;defined to_string function for JSON values">
<polygon fill="none" stroke="#000000" points="264.5,-39.5 264.5,-59.5 382.5,-59.5 382.5,-39.5 264.5,-39.5"/>
<text text-anchor="middle" x="323.5" y="-46.5" font-family="FreeSans" font-size="10.00" fill="#000000">nlohmann::to_string</text>
</a>
</g>
</g>
<!-- Node1&#45;&gt;Node48 -->
<g id="edge54" class="edge">
<title>Node1&#45;&gt;Node48</title>
<path fill="none" stroke="#191970" d="M99.7757,-438.4193C101.6889,-389.4172 116.7787,-174.2062 235,-69.5 240.6749,-64.4739 247.3437,-60.6306 254.4322,-57.7032"/>
<polygon fill="#191970" stroke="#191970" points="256.0187,-60.8565 264.3046,-54.2538 253.7097,-54.2482 256.0187,-60.8565"/>
</g>
<!-- Node10 -->
<g id="node10" class="node">
<title>Node10</title>
<g id="a_node10"><a xlink:href="../../dd/d31/classFW_1_1IBaseDetector.html#a815ce565191da2296e374960962eebaa" target="_top" xlink:title="FW::IBaseDetector::\lfinalize">
<polygon fill="none" stroke="#000000" points="481.5,-504.5 481.5,-536.5 596.5,-536.5 596.5,-504.5 481.5,-504.5"/>
<text text-anchor="start" x="489.5" y="-523.5" font-family="FreeSans" font-size="10.00" fill="#000000">FW::IBaseDetector::</text>
<text text-anchor="middle" x="539" y="-511.5" font-family="FreeSans" font-size="10.00" fill="#000000">finalize</text>
</a>
</g>
</g>
<!-- Node9&#45;&gt;Node10 -->
<g id="edge9" class="edge">
<title>Node9&#45;&gt;Node10</title>
<path fill="none" stroke="#191970" d="M383.2426,-496.6485C410.5335,-500.8276 442.9892,-505.7976 471.1921,-510.1164"/>
<polygon fill="#191970" stroke="#191970" points="470.9582,-513.6213 481.3727,-511.6754 472.0178,-506.702 470.9582,-513.6213"/>
</g>
<!-- Node12 -->
<g id="node12" class="node">
<title>Node12</title>
<g id="a_node12"><a xlink:href="../../d9/d1d/matscan_8C.html#a388f572c62279f839ee138a9afbdeeb5" target="_top" xlink:title="print">
<polygon fill="none" stroke="#000000" points="519,-465.5 519,-485.5 559,-485.5 559,-465.5 519,-465.5"/>
<text text-anchor="middle" x="539" y="-472.5" font-family="FreeSans" font-size="10.00" fill="#000000">print</text>
</a>
</g>
</g>
<!-- Node11&#45;&gt;Node12 -->
<g id="edge11" class="edge">
<title>Node11&#45;&gt;Node12</title>
<path fill="none" stroke="#191970" d="M390.5043,-456.895C430.072,-461.8524 478.2366,-467.887 508.7643,-471.7118"/>
<polygon fill="#191970" stroke="#191970" points="508.4262,-475.1967 518.7838,-472.9671 509.2965,-468.251 508.4262,-475.1967"/>
</g>
<!-- Node15 -->
<g id="node15" class="node">
<title>Node15</title>
<g id="a_node15"><a xlink:href="../../da/db1/classMakeActsGeometry.html#af74b4bf4b1279e8a92921bfe162a16c3" target="_top" xlink:title="MakeActsGeometry::getIntt\lHitSetKeyFromCoords">
<polygon fill="none" stroke="#000000" points="461.5,-285.5 461.5,-317.5 616.5,-317.5 616.5,-285.5 461.5,-285.5"/>
<text text-anchor="start" x="469.5" y="-304.5" font-family="FreeSans" font-size="10.00" fill="#000000">MakeActsGeometry::getIntt</text>
<text text-anchor="middle" x="539" y="-292.5" font-family="FreeSans" font-size="10.00" fill="#000000">HitSetKeyFromCoords</text>
</a>
</g>
</g>
<!-- Node14&#45;&gt;Node15 -->
<g id="edge14" class="edge">
<title>Node14&#45;&gt;Node15</title>
<path fill="none" stroke="#191970" d="M406.5097,-301.5C421.1529,-301.5 436.4406,-301.5 451.2098,-301.5"/>
<polygon fill="#191970" stroke="#191970" points="451.3376,-305.0001 461.3375,-301.5 451.3375,-298.0001 451.3376,-305.0001"/>
</g>
<!-- Node22 -->
<g id="node22" class="node">
<title>Node22</title>
<g id="a_node22"><a xlink:href="../../d6/d9e/namespaceInttDefs.html#a28461d6132ff9373b4529e5c0d20c962" target="_top" xlink:title="Get the sensor id from hitsetkey.">
<polygon fill="none" stroke="#000000" points="469.5,-336.5 469.5,-356.5 608.5,-356.5 608.5,-336.5 469.5,-336.5"/>
<text text-anchor="middle" x="539" y="-343.5" font-family="FreeSans" font-size="10.00" fill="#000000">InttDefs::getLadderPhiId</text>
</a>
</g>
</g>
<!-- Node14&#45;&gt;Node22 -->
<g id="edge21" class="edge">
<title>Node14&#45;&gt;Node22</title>
<path fill="none" stroke="#191970" d="M400.3878,-317.5555C426.9474,-323.1016 456.2393,-329.2182 481.0268,-334.3942"/>
<polygon fill="#191970" stroke="#191970" points="480.4926,-337.8581 490.9969,-336.4761 481.9235,-331.0059 480.4926,-337.8581"/>
</g>
<!-- Node23 -->
<g id="node23" class="node">
<title>Node23</title>
<g id="a_node23"><a xlink:href="../../d6/d9e/namespaceInttDefs.html#aeb0f2c2a834c11791925bdffc211526d" target="_top" xlink:title="Get the ladder id from hitsetkey.">
<polygon fill="none" stroke="#000000" points="474,-375.5 474,-395.5 604,-395.5 604,-375.5 474,-375.5"/>
<text text-anchor="middle" x="539" y="-382.5" font-family="FreeSans" font-size="10.00" fill="#000000">InttDefs::getLadderZId</text>
</a>
</g>
</g>
<!-- Node14&#45;&gt;Node23 -->
<g id="edge22" class="edge">
<title>Node14&#45;&gt;Node23</title>
<path fill="none" stroke="#191970" d="M392.28,-317.6264C399.1729,-320.4314 405.8775,-323.6993 412,-327.5 432.0414,-339.9414 427.4776,-354.8691 448,-366.5 453.0372,-369.3548 458.4498,-371.7826 464.0335,-373.8471"/>
<polygon fill="#191970" stroke="#191970" points="462.9629,-377.1793 473.556,-376.9895 465.1566,-370.5319 462.9629,-377.1793"/>
</g>
<!-- Node16 -->
<g id="node16" class="node">
<title>Node16</title>
<g id="a_node16"><a xlink:href="../../d9/dcb/classCylinderGeomIntt.html#aec8c8c824db64b3c082f3360cfbab53c" target="_top" xlink:title="CylinderGeomIntt::find\l_indices_from_segment\l_center">
<polygon fill="none" stroke="#000000" points="681,-363.5 681,-407.5 817,-407.5 817,-363.5 681,-363.5"/>
<text text-anchor="start" x="689" y="-394.5" font-family="FreeSans" font-size="10.00" fill="#000000">CylinderGeomIntt::find</text>
<text text-anchor="start" x="689" y="-382.5" font-family="FreeSans" font-size="10.00" fill="#000000">_indices_from_segment</text>
<text text-anchor="middle" x="749" y="-370.5" font-family="FreeSans" font-size="10.00" fill="#000000">_center</text>
</a>
</g>
</g>
<!-- Node15&#45;&gt;Node16 -->
<g id="edge15" class="edge">
<title>Node15&#45;&gt;Node16</title>
<path fill="none" stroke="#191970" d="M606.1658,-317.6458C614.3682,-320.4992 622.4947,-323.7731 630,-327.5 647.913,-336.3951 648.4529,-344.9031 666,-354.5 668.9015,-356.0869 671.9011,-357.6259 674.9618,-359.1139"/>
<polygon fill="#191970" stroke="#191970" points="673.7443,-362.4067 684.2904,-363.4215 676.6789,-356.0516 673.7443,-362.4067"/>
</g>
<!-- Node17 -->
<g id="node17" class="node">
<title>Node17</title>
<g id="a_node17"><a xlink:href="../../d9/dcb/classCylinderGeomIntt.html#ab38e7cede1a91d97d6d5bb175791f965" target="_top" xlink:title="CylinderGeomIntt::find\l_segment_center">
<polygon fill="none" stroke="#000000" points="869.5,-391.5 869.5,-423.5 1000.5,-423.5 1000.5,-391.5 869.5,-391.5"/>
<text text-anchor="start" x="877.5" y="-410.5" font-family="FreeSans" font-size="10.00" fill="#000000">CylinderGeomIntt::find</text>
<text text-anchor="middle" x="935" y="-398.5" font-family="FreeSans" font-size="10.00" fill="#000000">_segment_center</text>
</a>
</g>
</g>
<!-- Node15&#45;&gt;Node17 -->
<g id="edge16" class="edge">
<title>Node15&#45;&gt;Node17</title>
<path fill="none" stroke="#191970" d="M615.8181,-317.5596C620.9286,-320.3609 625.7312,-323.6466 630,-327.5 661.9794,-356.3672 630.3258,-393.3474 666,-417.5 730.019,-460.843 823.6295,-443.9928 881.8534,-426.6448"/>
<polygon fill="#191970" stroke="#191970" points="883.0668,-429.9332 891.5905,-423.6405 881.003,-423.2444 883.0668,-429.9332"/>
</g>
<!-- Node19 -->
<g id="node19" class="node">
<title>Node19</title>
<g id="a_node19"><a xlink:href="../../d6/d9e/namespaceInttDefs.html#af41991588b294d4a9a89cfe7cf00439e" target="_top" xlink:title="Generate a hitsetkey for the intt.">
<polygon fill="none" stroke="#000000" points="683.5,-324.5 683.5,-344.5 814.5,-344.5 814.5,-324.5 683.5,-324.5"/>
<text text-anchor="middle" x="749" y="-331.5" font-family="FreeSans" font-size="10.00" fill="#000000">InttDefs::genHitSetKey</text>
</a>
</g>
</g>
<!-- Node15&#45;&gt;Node19 -->
<g id="edge18" class="edge">
<title>Node15&#45;&gt;Node19</title>
<path fill="none" stroke="#191970" d="M616.5996,-313.6942C635.7141,-316.6979 656.1311,-319.9063 675.0667,-322.8819"/>
<polygon fill="#191970" stroke="#191970" points="674.6944,-326.3663 685.1166,-324.4612 675.7811,-319.4511 674.6944,-326.3663"/>
</g>
<!-- Node21 -->
<g id="node21" class="node">
<title>Node21</title>
<g id="a_node21"><a xlink:href="../../d4/de7/classPHG4CylinderGeomContainer.html#a08321019aaff5f57cd416b64d0f536bf" target="_top" xlink:title="PHG4CylinderGeomContainer\l::GetLayerGeom">
<polygon fill="none" stroke="#000000" points="666,-273.5 666,-305.5 832,-305.5 832,-273.5 666,-273.5"/>
<text text-anchor="start" x="674" y="-292.5" font-family="FreeSans" font-size="10.00" fill="#000000">PHG4CylinderGeomContainer</text>
<text text-anchor="middle" x="749" y="-280.5" font-family="FreeSans" font-size="10.00" fill="#000000">::GetLayerGeom</text>
</a>
</g>
</g>
<!-- Node15&#45;&gt;Node21 -->
<g id="edge20" class="edge">
<title>Node15&#45;&gt;Node21</title>
<path fill="none" stroke="#191970" d="M616.5996,-297.0657C629.23,-296.344 642.4291,-295.5898 655.3938,-294.8489"/>
<polygon fill="#191970" stroke="#191970" points="655.9416,-298.3234 665.7256,-294.2585 655.5422,-291.3348 655.9416,-298.3234"/>
</g>
<!-- Node18 -->
<g id="node18" class="node">
<title>Node18</title>
<g id="a_node18"><a xlink:href="../../df/de8/cemc_8C.html#a72d4716092b469b4bc1d816359a90e14" target="_top" xlink:title="cos">
<polygon fill="none" stroke="#000000" points="1087.5,-266.5 1087.5,-286.5 1120.5,-286.5 1120.5,-266.5 1087.5,-266.5"/>
<text text-anchor="middle" x="1104" y="-273.5" font-family="FreeSans" font-size="10.00" fill="#000000">cos</text>
</a>
</g>
</g>
<!-- Node17&#45;&gt;Node18 -->
<g id="edge17" class="edge">
<title>Node17&#45;&gt;Node18</title>
<path fill="none" stroke="#191970" d="M955.7227,-391.4368C988.0868,-366.3499 1050.2926,-318.1312 1082.8918,-292.862"/>
<polygon fill="#191970" stroke="#191970" points="1085.1201,-295.5631 1090.8795,-286.6703 1080.8316,-290.0306 1085.1201,-295.5631"/>
</g>
<!-- Node20 -->
<g id="node20" class="node">
<title>Node20</title>
<g id="a_node20"><a xlink:href="../../d6/d3f/namespaceTrkrDefs.html#a418e306477093b8d17d587be70b908a3" target="_top" xlink:title="generate the common upper 16 bits for hitsetkey">
<polygon fill="none" stroke="#000000" points="868,-324.5 868,-344.5 1002,-344.5 1002,-324.5 868,-324.5"/>
<text text-anchor="middle" x="935" y="-331.5" font-family="FreeSans" font-size="10.00" fill="#000000">TrkrDefs::genHitSetKey</text>
</a>
</g>
</g>
<!-- Node19&#45;&gt;Node20 -->
<g id="edge19" class="edge">
<title>Node19&#45;&gt;Node20</title>
<path fill="none" stroke="#191970" d="M814.5766,-334.5C828.4635,-334.5 843.2463,-334.5 857.5265,-334.5"/>
<polygon fill="#191970" stroke="#191970" points="857.8159,-338.0001 867.8158,-334.5 857.8158,-331.0001 857.8159,-338.0001"/>
</g>
<!-- Node25 -->
<g id="node25" class="node">
<title>Node25</title>
<g id="a_node25"><a xlink:href="../../da/db1/classMakeActsGeometry.html#ad1297a652617e697364fc272f4d5a2e6" target="_top" xlink:title="Get subdetector hitsetkey from the local sensor unit coordinates.">
<polygon fill="none" stroke="#000000" points="458,-234.5 458,-266.5 620,-266.5 620,-234.5 458,-234.5"/>
<text text-anchor="start" x="466" y="-253.5" font-family="FreeSans" font-size="10.00" fill="#000000">MakeActsGeometry::getMvtx</text>
<text text-anchor="middle" x="539" y="-241.5" font-family="FreeSans" font-size="10.00" fill="#000000">HitSetKeyFromCoords</text>
</a>
</g>
</g>
<!-- Node24&#45;&gt;Node25 -->
<g id="edge24" class="edge">
<title>Node24&#45;&gt;Node25</title>
<path fill="none" stroke="#191970" d="M410.2206,-250.5C422.4645,-250.5 435.0853,-250.5 447.417,-250.5"/>
<polygon fill="#191970" stroke="#191970" points="447.6931,-254.0001 457.693,-250.5 447.693,-247.0001 447.6931,-254.0001"/>
</g>
<!-- Node31 -->
<g id="node31" class="node">
<title>Node31</title>
<g id="a_node31"><a xlink:href="../../d8/df1/namespaceMvtxDefs.html#a0d6fee920baed2f17bed6f7990bb88c3" target="_top" xlink:title="Get the stave id from hitsetkey.">
<polygon fill="none" stroke="#000000" points="477,-156.5 477,-176.5 601,-176.5 601,-156.5 477,-156.5"/>
<text text-anchor="middle" x="539" y="-163.5" font-family="FreeSans" font-size="10.00" fill="#000000">MvtxDefs::getStaveId</text>
</a>
</g>
</g>
<!-- Node24&#45;&gt;Node31 -->
<g id="edge33" class="edge">
<title>Node24&#45;&gt;Node31</title>
<path fill="none" stroke="#191970" d="M394.1109,-234.4624C400.3582,-231.8915 406.4206,-228.9234 412,-225.5 432.106,-213.1634 427.539,-198.2385 448,-186.5 453.9389,-183.0928 460.4017,-180.2656 467.0528,-177.9197"/>
<polygon fill="#191970" stroke="#191970" points="468.4093,-181.1619 476.8931,-174.8155 466.3033,-174.4861 468.4093,-181.1619"/>
</g>
<!-- Node32 -->
<g id="node32" class="node">
<title>Node32</title>
<g id="a_node32"><a xlink:href="../../d8/df1/namespaceMvtxDefs.html#abfd7b6c5fe579370c360924854579283" target="_top" xlink:title="Get the chip id from hitsetkey.">
<polygon fill="none" stroke="#000000" points="480,-195.5 480,-215.5 598,-215.5 598,-195.5 480,-195.5"/>
<text text-anchor="middle" x="539" y="-202.5" font-family="FreeSans" font-size="10.00" fill="#000000">MvtxDefs::getChipId</text>
</a>
</g>
</g>
<!-- Node24&#45;&gt;Node32 -->
<g id="edge34" class="edge">
<title>Node24&#45;&gt;Node32</title>
<path fill="none" stroke="#191970" d="M400.3878,-234.4445C426.9474,-228.8984 456.2393,-222.7818 481.0268,-217.6058"/>
<polygon fill="#191970" stroke="#191970" points="481.9235,-220.9941 490.9969,-215.5239 480.4926,-214.1419 481.9235,-220.9941"/>
</g>
<!-- Node25&#45;&gt;Node21 -->
<g id="edge32" class="edge">
<title>Node25&#45;&gt;Node21</title>
<path fill="none" stroke="#191970" d="M620.1915,-265.5784C631.9136,-267.7554 644.0536,-270.01 655.9845,-272.2257"/>
<polygon fill="#191970" stroke="#191970" points="655.4726,-275.6904 665.9435,-274.0752 656.7508,-268.8081 655.4726,-275.6904"/>
</g>
<!-- Node26 -->
<g id="node26" class="node">
<title>Node26</title>
<g id="a_node26"><a xlink:href="../../df/d9b/classCylinderGeom__Mvtx.html#ac3180ef9061113ec41e851ff5f97f3f1" target="_top" xlink:title="CylinderGeom_Mvtx::\lfind_sensor_center">
<polygon fill="none" stroke="#000000" points="687,-120.5 687,-152.5 811,-152.5 811,-120.5 687,-120.5"/>
<text text-anchor="start" x="695" y="-139.5" font-family="FreeSans" font-size="10.00" fill="#000000">CylinderGeom_Mvtx::</text>
<text text-anchor="middle" x="749" y="-127.5" font-family="FreeSans" font-size="10.00" fill="#000000">find_sensor_center</text>
</a>
</g>
</g>
<!-- Node25&#45;&gt;Node26 -->
<g id="edge25" class="edge">
<title>Node25&#45;&gt;Node26</title>
<path fill="none" stroke="#191970" d="M615.6818,-234.4099C620.7617,-231.8636 625.5989,-228.9149 630,-225.5 655.4788,-205.7306 640.8757,-182.718 666,-162.5 669.6046,-159.5993 673.5354,-157.0205 677.6626,-154.7281"/>
<polygon fill="#191970" stroke="#191970" points="679.5335,-157.7084 686.9613,-150.1534 676.4433,-151.4274 679.5335,-157.7084"/>
</g>
<!-- Node28 -->
<g id="node28" class="node">
<title>Node28</title>
<g id="a_node28"><a xlink:href="../../d8/df1/namespaceMvtxDefs.html#a6e4f95c436d9185eb99405c4ec3f4d7b" target="_top" xlink:title="Generate a hitsetkey for the mvtx.">
<polygon fill="none" stroke="#000000" points="679.5,-234.5 679.5,-254.5 818.5,-254.5 818.5,-234.5 679.5,-234.5"/>
<text text-anchor="middle" x="749" y="-241.5" font-family="FreeSans" font-size="10.00" fill="#000000">MvtxDefs::genHitSetKey</text>
</a>
</g>
</g>
<!-- Node25&#45;&gt;Node28 -->
<g id="edge28" class="edge">
<title>Node25&#45;&gt;Node28</title>
<path fill="none" stroke="#191970" d="M620.1915,-248.1802C636.1922,-247.7231 652.9715,-247.2437 668.9348,-246.7876"/>
<polygon fill="#191970" stroke="#191970" points="669.3948,-250.276 679.2907,-246.4917 669.1948,-243.2788 669.3948,-250.276"/>
</g>
<!-- Node29 -->
<g id="node29" class="node">
<title>Node29</title>
<g id="a_node29"><a xlink:href="../../df/d9b/classCylinderGeom__Mvtx.html#af933b52a1b3b2ad3ac1f403a3443f659" target="_top" xlink:title="CylinderGeom_Mvtx::\lget_sensor_indices_from\l_world_coords">
<polygon fill="none" stroke="#000000" points="679,-171.5 679,-215.5 819,-215.5 819,-171.5 679,-171.5"/>
<text text-anchor="start" x="687" y="-202.5" font-family="FreeSans" font-size="10.00" fill="#000000">CylinderGeom_Mvtx::</text>
<text text-anchor="start" x="687" y="-190.5" font-family="FreeSans" font-size="10.00" fill="#000000">get_sensor_indices_from</text>
<text text-anchor="middle" x="749" y="-178.5" font-family="FreeSans" font-size="10.00" fill="#000000">_world_coords</text>
</a>
</g>
</g>
<!-- Node25&#45;&gt;Node29 -->
<g id="edge30" class="edge">
<title>Node25&#45;&gt;Node29</title>
<path fill="none" stroke="#191970" d="M598.0556,-234.4706C620.1266,-228.4799 645.5714,-221.5735 669.2055,-215.1585"/>
<polygon fill="#191970" stroke="#191970" points="670.1236,-218.536 678.8575,-212.5387 668.2898,-211.7805 670.1236,-218.536"/>
</g>
<!-- Node27 -->
<g id="node27" class="node">
<title>Node27</title>
<g id="a_node27"><a xlink:href="../../df/d9b/classCylinderGeom__Mvtx.html#aede358e384b225e6555bed9292f0310c" target="_top" xlink:title="CylinderGeom_Mvtx::\lget_world_from_local\l_coords">
<polygon fill="none" stroke="#000000" points="873,-123.5 873,-167.5 997,-167.5 997,-123.5 873,-123.5"/>
<text text-anchor="start" x="881" y="-154.5" font-family="FreeSans" font-size="10.00" fill="#000000">CylinderGeom_Mvtx::</text>
<text text-anchor="start" x="881" y="-142.5" font-family="FreeSans" font-size="10.00" fill="#000000">get_world_from_local</text>
<text text-anchor="middle" x="935" y="-130.5" font-family="FreeSans" font-size="10.00" fill="#000000">_coords</text>
</a>
</g>
</g>
<!-- Node26&#45;&gt;Node27 -->
<g id="edge26" class="edge">
<title>Node26&#45;&gt;Node27</title>
<path fill="none" stroke="#191970" d="M811.1939,-139.5094C827.6358,-140.305 845.526,-141.1706 862.4634,-141.9902"/>
<polygon fill="#191970" stroke="#191970" points="862.7072,-145.506 872.8647,-142.4935 863.0456,-138.5141 862.7072,-145.506"/>
</g>
<!-- Node27&#45;&gt;Node18 -->
<g id="edge27" class="edge">
<title>Node27&#45;&gt;Node18</title>
<path fill="none" stroke="#191970" d="M985.759,-167.5468C991.3919,-170.6313 996.9215,-173.9654 1002,-177.5 1036.511,-201.5191 1070.2666,-237.4198 1088.985,-258.7466"/>
<polygon fill="#191970" stroke="#191970" points="1086.4219,-261.1335 1095.6109,-266.4073 1091.7163,-256.5542 1086.4219,-261.1335"/>
</g>
<!-- Node28&#45;&gt;Node20 -->
<g id="edge29" class="edge">
<title>Node28&#45;&gt;Node20</title>
<path fill="none" stroke="#191970" d="M803.0709,-254.535C812.9059,-257.1953 822.9189,-260.4807 832,-264.5 863.3443,-278.373 895.369,-301.9098 915.21,-317.8203"/>
<polygon fill="#191970" stroke="#191970" points="913.2172,-320.7117 923.1763,-324.3266 917.6452,-315.2901 913.2172,-320.7117"/>
</g>
<!-- Node30 -->
<g id="node30" class="node">
<title>Node30</title>
<g id="a_node30"><a xlink:href="../../df/dcd/PHTpcSeedFinder_8cc.html#a3eacbae00cdf9e4cc3029aa577949730" target="_top" xlink:title="round">
<polygon fill="none" stroke="#000000" points="912.5,-186.5 912.5,-206.5 957.5,-206.5 957.5,-186.5 912.5,-186.5"/>
<text text-anchor="middle" x="935" y="-193.5" font-family="FreeSans" font-size="10.00" fill="#000000">round</text>
</a>
</g>
</g>
<!-- Node29&#45;&gt;Node30 -->
<g id="edge31" class="edge">
<title>Node29&#45;&gt;Node30</title>
<path fill="none" stroke="#191970" d="M819.0536,-194.6299C847.5016,-195.0887 879.0051,-195.5969 901.9852,-195.9675"/>
<polygon fill="#191970" stroke="#191970" points="902.1608,-199.4707 912.216,-196.1325 902.2738,-192.4716 902.1608,-199.4707"/>
</g>
<!-- Node34 -->
<g id="node34" class="node">
<title>Node34</title>
<g id="a_node34"><a xlink:href="../../da/db1/classMakeActsGeometry.html#aadffa77ea1344700447ca41d68bef29c" target="_top" xlink:title="MakeActsGeometry::getTpc\lHitSetKeyFromCoords">
<polygon fill="none" stroke="#000000" points="461.5,-414.5 461.5,-446.5 616.5,-446.5 616.5,-414.5 461.5,-414.5"/>
<text text-anchor="start" x="469.5" y="-433.5" font-family="FreeSans" font-size="10.00" fill="#000000">MakeActsGeometry::getTpc</text>
<text text-anchor="middle" x="539" y="-421.5" font-family="FreeSans" font-size="10.00" fill="#000000">HitSetKeyFromCoords</text>
</a>
</g>
</g>
<!-- Node33&#45;&gt;Node34 -->
<g id="edge36" class="edge">
<title>Node33&#45;&gt;Node34</title>
<path fill="none" stroke="#191970" d="M388.347,-368.6093C396.4839,-371.4805 404.5555,-374.7687 412,-378.5 429.8798,-387.4617 430.0419,-396.6963 448,-405.5 451.9973,-407.4596 456.1713,-409.2849 460.4393,-410.9823"/>
<polygon fill="#191970" stroke="#191970" points="459.3082,-414.2957 469.9012,-414.4964 461.7454,-407.7337 459.3082,-414.2957"/>
</g>
<!-- Node35 -->
<g id="node35" class="node">
<title>Node35</title>
<g id="a_node35"><a xlink:href="../../d7/db0/namespaceTpcDefs.html#a30fc79495c9e8d14327d1026cd7325c7" target="_top" xlink:title="Generate a hitsetkey for the tpc.">
<polygon fill="none" stroke="#000000" points="682,-465.5 682,-485.5 816,-485.5 816,-465.5 682,-465.5"/>
<text text-anchor="middle" x="749" y="-472.5" font-family="FreeSans" font-size="10.00" fill="#000000">TpcDefs::genHitSetKey</text>
</a>
</g>
</g>
<!-- Node34&#45;&gt;Node35 -->
<g id="edge37" class="edge">
<title>Node34&#45;&gt;Node35</title>
<path fill="none" stroke="#191970" d="M613.9254,-446.5555C639.6922,-452.0769 668.0979,-458.1638 692.1841,-463.3252"/>
<polygon fill="#191970" stroke="#191970" points="691.7106,-466.8031 702.222,-465.4761 693.1774,-459.9585 691.7106,-466.8031"/>
</g>
<!-- Node35&#45;&gt;Node20 -->
<g id="edge38" class="edge">
<title>Node35&#45;&gt;Node20</title>
<path fill="none" stroke="#191970" d="M765.1575,-465.3249C782.3024,-454.2759 809.9117,-435.7532 832,-417.5 849.2019,-403.2848 850.8819,-396.8159 868,-382.5 881.7342,-371.014 898.0487,-359.2891 911.1401,-350.3027"/>
<polygon fill="#191970" stroke="#191970" points="913.3042,-353.0641 919.6172,-344.5554 909.376,-347.2702 913.3042,-353.0641"/>
</g>
<!-- Node38 -->
<g id="node38" class="node">
<title>Node38</title>
<g id="a_node38"><a xlink:href="../../d2/d76/namespaceFW_1_1BField_1_1root.html#a7ccc94f9735056c1d3b408138d8c5af0" target="_top" xlink:title="FW::BField::root::fieldMapperRZ">
<polygon fill="none" stroke="#000000" points="451,-78.5 451,-98.5 627,-98.5 627,-78.5 451,-78.5"/>
<text text-anchor="middle" x="539" y="-85.5" font-family="FreeSans" font-size="10.00" fill="#000000">FW::BField::root::fieldMapperRZ</text>
</a>
</g>
</g>
<!-- Node37&#45;&gt;Node38 -->
<g id="edge41" class="edge">
<title>Node37&#45;&gt;Node38</title>
<path fill="none" stroke="#191970" d="M378.9966,-117.4565C407.9038,-112.2251 443.4316,-105.7954 473.6603,-100.3248"/>
<polygon fill="#191970" stroke="#191970" points="474.4746,-103.7344 483.6915,-98.5094 473.228,-96.8463 474.4746,-103.7344"/>
</g>
<!-- Node43 -->
<g id="node43" class="node">
<title>Node43</title>
<g id="a_node43"><a xlink:href="../../d2/d76/namespaceFW_1_1BField_1_1root.html#aba0ff67f5a12cb4ad9296f85fc631427" target="_top" xlink:title="FW::BField::root::fieldMapperXYZ">
<polygon fill="none" stroke="#000000" points="448,-39.5 448,-59.5 630,-59.5 630,-39.5 448,-39.5"/>
<text text-anchor="middle" x="539" y="-46.5" font-family="FreeSans" font-size="10.00" fill="#000000">FW::BField::root::fieldMapperXYZ</text>
</a>
</g>
</g>
<!-- Node37&#45;&gt;Node43 -->
<g id="edge46" class="edge">
<title>Node37&#45;&gt;Node43</title>
<path fill="none" stroke="#191970" d="M391.7791,-117.351C398.8412,-114.9901 405.7211,-112.082 412,-108.5 432.4895,-96.8113 427.539,-81.2385 448,-69.5 452.2487,-67.0625 456.7654,-64.9219 461.4275,-63.0419"/>
<polygon fill="#191970" stroke="#191970" points="462.9382,-66.218 471.1615,-59.5376 460.5671,-59.6318 462.9382,-66.218"/>
</g>
<!-- Node45 -->
<g id="node45" class="node">
<title>Node45</title>
<g id="a_node45"><a xlink:href="../../dc/dbe/namespaceFW_1_1BField_1_1txt.html#a0c0a6561fcc20c432a0c9f3df0053ac5" target="_top" xlink:title="FW::BField::txt::fieldMapperRZ">
<polygon fill="none" stroke="#000000" points="454,-117.5 454,-137.5 624,-137.5 624,-117.5 454,-117.5"/>
<text text-anchor="middle" x="539" y="-124.5" font-family="FreeSans" font-size="10.00" fill="#000000">FW::BField::txt::fieldMapperRZ</text>
</a>
</g>
</g>
<!-- Node37&#45;&gt;Node45 -->
<g id="edge49" class="edge">
<title>Node37&#45;&gt;Node45</title>
<path fill="none" stroke="#191970" d="M392.278,-127.5C408.6502,-127.5 426.4098,-127.5 443.7331,-127.5"/>
<polygon fill="#191970" stroke="#191970" points="443.8686,-131.0001 453.8686,-127.5 443.8685,-124.0001 443.8686,-131.0001"/>
</g>
<!-- Node46 -->
<g id="node46" class="node">
<title>Node46</title>
<g id="a_node46"><a xlink:href="../../dc/dbe/namespaceFW_1_1BField_1_1txt.html#abdaabf29e920c6c2631627db40d641f1" target="_top" xlink:title="FW::BField::txt::fieldMapperXYZ">
<polygon fill="none" stroke="#000000" points="451,-.5 451,-20.5 627,-20.5 627,-.5 451,-.5"/>
<text text-anchor="middle" x="539" y="-7.5" font-family="FreeSans" font-size="10.00" fill="#000000">FW::BField::txt::fieldMapperXYZ</text>
</a>
</g>
</g>
<!-- Node37&#45;&gt;Node46 -->
<g id="edge51" class="edge">
<title>Node37&#45;&gt;Node46</title>
<path fill="none" stroke="#191970" d="M392.1919,-119.616C399.3372,-116.8501 406.1222,-113.2274 412,-108.5 442.0668,-84.3178 417.8651,-53.5972 448,-29.5 449.7923,-28.0668 451.6661,-26.7343 453.6071,-25.4955"/>
<polygon fill="#191970" stroke="#191970" points="455.3982,-28.5054 462.5013,-20.6443 452.0463,-22.3601 455.3982,-28.5054"/>
</g>
<!-- Node39 -->
<g id="node39" class="node">
<title>Node39</title>
<g id="a_node39"><a xlink:href="../../da/d7b/namespaceActs.html#aa46031ee88f77bb14022872f010d897a" target="_top" xlink:title="Acts::fieldMapperRZ">
<polygon fill="none" stroke="#000000" points="689.5,-78.5 689.5,-98.5 808.5,-98.5 808.5,-78.5 689.5,-78.5"/>
<text text-anchor="middle" x="749" y="-85.5" font-family="FreeSans" font-size="10.00" fill="#000000">Acts::fieldMapperRZ</text>
</a>
</g>
</g>
<!-- Node38&#45;&gt;Node39 -->
<g id="edge42" class="edge">
<title>Node38&#45;&gt;Node39</title>
<path fill="none" stroke="#191970" d="M627.1461,-88.5C644.5281,-88.5 662.5428,-88.5 679.2174,-88.5"/>
<polygon fill="#191970" stroke="#191970" points="679.4088,-92.0001 689.4088,-88.5 679.4088,-85.0001 679.4088,-92.0001"/>
</g>
<!-- Node40 -->
<g id="node40" class="node">
<title>Node40</title>
<g id="a_node40"><a xlink:href="../../df/d28/namespacekdfinder.html#ab72d428625e99a2d7380eb7691c246c7" target="_top" xlink:title="kdfinder::abs">
<polygon fill="none" stroke="#000000" points="893.5,-33.5 893.5,-53.5 976.5,-53.5 976.5,-33.5 893.5,-33.5"/>
<text text-anchor="middle" x="935" y="-40.5" font-family="FreeSans" font-size="10.00" fill="#000000">kdfinder::abs</text>
</a>
</g>
</g>
<!-- Node39&#45;&gt;Node40 -->
<g id="edge43" class="edge">
<title>Node39&#45;&gt;Node40</title>
<path fill="none" stroke="#191970" d="M790.742,-78.4011C818.144,-71.7716 854.1798,-63.0533 883.3795,-55.9888"/>
<polygon fill="#191970" stroke="#191970" points="884.5008,-59.3186 893.3973,-53.5652 882.8546,-52.5149 884.5008,-59.3186"/>
</g>
<!-- Node42 -->
<g id="node42" class="node">
<title>Node42</title>
<g id="a_node42"><a xlink:href="../../df/da1/namespaceActs_1_1VectorHelpers.html#a9d0d7e35444d5f4a0ae7accb0a2c70db" target="_top" xlink:title="Acts::VectorHelpers\l::perp">
<polygon fill="none" stroke="#000000" points="877,-72.5 877,-104.5 993,-104.5 993,-72.5 877,-72.5"/>
<text text-anchor="start" x="885" y="-91.5" font-family="FreeSans" font-size="10.00" fill="#000000">Acts::VectorHelpers</text>
<text text-anchor="middle" x="935" y="-79.5" font-family="FreeSans" font-size="10.00" fill="#000000">::perp</text>
</a>
</g>
</g>
<!-- Node39&#45;&gt;Node42 -->
<g id="edge45" class="edge">
<title>Node39&#45;&gt;Node42</title>
<path fill="none" stroke="#191970" d="M808.619,-88.5C827.1736,-88.5 847.772,-88.5 866.8621,-88.5"/>
<polygon fill="#191970" stroke="#191970" points="866.9881,-92.0001 876.9881,-88.5 866.9881,-85.0001 866.9881,-92.0001"/>
</g>
<!-- Node41 -->
<g id="node41" class="node">
<title>Node41</title>
<g id="a_node41"><a xlink:href="../../d8/dc7/classkdfinder_1_1TVector.html#ac9649c7577f12a7502ed523260f4ee90" target="_top" xlink:title="kdfinder::TVector::mag">
<polygon fill="none" stroke="#000000" points="1038,-33.5 1038,-53.5 1170,-53.5 1170,-33.5 1038,-33.5"/>
<text text-anchor="middle" x="1104" y="-40.5" font-family="FreeSans" font-size="10.00" fill="#000000">kdfinder::TVector::mag</text>
</a>
</g>
</g>
<!-- Node40&#45;&gt;Node41 -->
<g id="edge44" class="edge">
<title>Node40&#45;&gt;Node41</title>
<path fill="none" stroke="#191970" d="M976.7753,-43.5C992.1366,-43.5 1010.0543,-43.5 1027.5118,-43.5"/>
<polygon fill="#191970" stroke="#191970" points="1027.7145,-47.0001 1037.7145,-43.5 1027.7145,-40.0001 1027.7145,-47.0001"/>
</g>
<!-- Node44 -->
<g id="node44" class="node">
<title>Node44</title>
<g id="a_node44"><a xlink:href="../../da/d7b/namespaceActs.html#a4a08a66d4382d4519b6373d6fbd1991d" target="_top" xlink:title="Acts::fieldMapperXYZ">
<polygon fill="none" stroke="#000000" points="686.5,-33.5 686.5,-53.5 811.5,-53.5 811.5,-33.5 686.5,-33.5"/>
<text text-anchor="middle" x="749" y="-40.5" font-family="FreeSans" font-size="10.00" fill="#000000">Acts::fieldMapperXYZ</text>
</a>
</g>
</g>
<!-- Node43&#45;&gt;Node44 -->
<g id="edge47" class="edge">
<title>Node43&#45;&gt;Node44</title>
<path fill="none" stroke="#191970" d="M630.1929,-46.8945C645.5718,-46.4551 661.3529,-46.0042 676.1854,-45.5804"/>
<polygon fill="#191970" stroke="#191970" points="676.3899,-49.0761 686.2859,-45.2918 676.1899,-42.079 676.3899,-49.0761"/>
</g>
<!-- Node44&#45;&gt;Node40 -->
<g id="edge48" class="edge">
<title>Node44&#45;&gt;Node40</title>
<path fill="none" stroke="#191970" d="M811.7118,-43.5C834.9284,-43.5 860.972,-43.5 883.1198,-43.5"/>
<polygon fill="#191970" stroke="#191970" points="883.3227,-47.0001 893.3227,-43.5 883.3226,-40.0001 883.3227,-47.0001"/>
</g>
<!-- Node45&#45;&gt;Node39 -->
<g id="edge50" class="edge">
<title>Node45&#45;&gt;Node39</title>
<path fill="none" stroke="#191970" d="M593.0802,-117.4565C621.1272,-112.2478 655.5697,-105.8513 684.9434,-100.3962"/>
<polygon fill="#191970" stroke="#191970" points="685.9103,-103.7766 695.103,-98.5094 684.6321,-96.8943 685.9103,-103.7766"/>
</g>
<!-- Node46&#45;&gt;Node44 -->
<g id="edge52" class="edge">
<title>Node46&#45;&gt;Node44</title>
<path fill="none" stroke="#191970" d="M602.8622,-20.5355C625.9857,-24.1692 652.2708,-28.2997 676.112,-32.0462"/>
<polygon fill="#191970" stroke="#191970" points="675.7415,-35.5308 686.1637,-33.6257 676.8283,-28.6157 675.7415,-35.5308"/>
</g>
</g>
</svg>
