<?xml version="1.0" encoding="UTF-8" standalone="no"?>
<!DOCTYPE svg PUBLIC "-//W3C//DTD SVG 1.1//EN"
 "http://www.w3.org/Graphics/SVG/1.1/DTD/svg11.dtd">
<!-- Generated by graphviz version 2.40.1 (20161225.0304)
 -->
<!-- Title: BEmcRec::SetVertex Pages: 1 -->
<svg width="647pt" height="185pt"
 viewBox="0.00 0.00 647.00 185.00" xmlns="http://www.w3.org/2000/svg" xmlns:xlink="http://www.w3.org/1999/xlink">
<g id="graph0" class="graph" transform="scale(1 1) rotate(0) translate(4 181)">
<title>BEmcRec::SetVertex</title>
<!-- Node1 -->
<g id="node1" class="node">
<title>Node1</title>
<polygon fill="#bfbfbf" stroke="#000000" points="0,-77.5 0,-97.5 119,-97.5 119,-77.5 0,-77.5"/>
<text text-anchor="middle" x="59.5" y="-84.5" font-family="FreeSans" font-size="10.00" fill="#000000">BEmcRec::SetVertex</text>
</g>
<!-- Node2 -->
<g id="node2" class="node">
<title>Node2</title>
<g id="a_node2"><a xlink:href="../../d8/d5d/classRawClusterBuilderTemplate.html#a8c39fc8fa46da6a92be0a7ff6835a7d6" target="_top" xlink:title="RawClusterBuilderTemplate\l::Detector">
<polygon fill="none" stroke="#000000" points="155,-71.5 155,-103.5 310,-103.5 310,-71.5 155,-71.5"/>
<text text-anchor="start" x="163" y="-90.5" font-family="FreeSans" font-size="10.00" fill="#000000">RawClusterBuilderTemplate</text>
<text text-anchor="middle" x="232.5" y="-78.5" font-family="FreeSans" font-size="10.00" fill="#000000">::Detector</text>
</a>
</g>
</g>
<!-- Node1&#45;&gt;Node2 -->
<g id="edge1" class="edge">
<title>Node1&#45;&gt;Node2</title>
<path fill="none" stroke="#191970" d="M129.1937,-87.5C137.6294,-87.5 146.2868,-87.5 154.8282,-87.5"/>
<polygon fill="#191970" stroke="#191970" points="129.0368,-84.0001 119.0368,-87.5 129.0368,-91.0001 129.0368,-84.0001"/>
</g>
<!-- Node3 -->
<g id="node3" class="node">
<title>Node3</title>
<g id="a_node3"><a xlink:href="../../d8/d4c/G4__CEmc__EIC_8C.html#a494d0a819d301d395ff322741e9543e0" target="_top" xlink:title="CEMC_Clusters">
<polygon fill="none" stroke="#000000" points="359.5,-58.5 359.5,-78.5 450.5,-78.5 450.5,-58.5 359.5,-58.5"/>
<text text-anchor="middle" x="405" y="-65.5" font-family="FreeSans" font-size="10.00" fill="#000000">CEMC_Clusters</text>
</a>
</g>
</g>
<!-- Node2&#45;&gt;Node3 -->
<g id="edge2" class="edge">
<title>Node2&#45;&gt;Node3</title>
<path fill="none" stroke="#191970" d="M320.4488,-77.8129C333.9029,-76.331 347.3019,-74.8552 359.3355,-73.5297"/>
<polygon fill="#191970" stroke="#191970" points="319.728,-74.371 310.1713,-78.9449 320.4944,-81.3289 319.728,-74.371"/>
</g>
<!-- Node9 -->
<g id="node9" class="node">
<title>Node9</title>
<g id="a_node9"><a xlink:href="../../d5/dcb/G4__FEMC_8C.html#ab125a8852e2c16eed18cfad39821bbbf" target="_top" xlink:title="FEMC_Clusters">
<polygon fill="none" stroke="#000000" points="360,-19.5 360,-39.5 450,-39.5 450,-19.5 360,-19.5"/>
<text text-anchor="middle" x="405" y="-26.5" font-family="FreeSans" font-size="10.00" fill="#000000">FEMC_Clusters</text>
</a>
</g>
</g>
<!-- Node2&#45;&gt;Node9 -->
<g id="edge8" class="edge">
<title>Node2&#45;&gt;Node9</title>
<path fill="none" stroke="#191970" d="M289.5892,-68.3048C318.2026,-58.684 351.669,-47.4316 375.1735,-39.5286"/>
<polygon fill="#191970" stroke="#191970" points="288.4561,-64.9932 280.093,-71.4977 290.6871,-71.6281 288.4561,-64.9932"/>
</g>
<!-- Node10 -->
<g id="node10" class="node">
<title>Node10</title>
<g id="a_node10"><a xlink:href="../../dc/dda/G4__HcalIn__ref_8C.html#af9c91eac780c08b08ebf2397019ec066" target="_top" xlink:title="HCALInner_Clusters">
<polygon fill="none" stroke="#000000" points="347,-136.5 347,-156.5 463,-156.5 463,-136.5 347,-136.5"/>
<text text-anchor="middle" x="405" y="-143.5" font-family="FreeSans" font-size="10.00" fill="#000000">HCALInner_Clusters</text>
</a>
</g>
</g>
<!-- Node2&#45;&gt;Node10 -->
<g id="edge14" class="edge">
<title>Node2&#45;&gt;Node10</title>
<path fill="none" stroke="#191970" d="M286.7046,-106.9414C305.4484,-113.5741 326.6121,-120.9632 346,-127.5 354.7695,-130.4567 364.3054,-133.5711 373.1031,-136.4036"/>
<polygon fill="#191970" stroke="#191970" points="287.7403,-103.5952 277.1456,-103.5504 285.4,-110.1924 287.7403,-103.5952"/>
</g>
<!-- Node11 -->
<g id="node11" class="node">
<title>Node11</title>
<g id="a_node11"><a xlink:href="../../d8/d93/G4__HcalOut__ref_8C.html#a844046e9070953c2567bb9569eb81bd8" target="_top" xlink:title="HCALOuter_Clusters">
<polygon fill="none" stroke="#000000" points="346,-97.5 346,-117.5 464,-117.5 464,-97.5 346,-97.5"/>
<text text-anchor="middle" x="405" y="-104.5" font-family="FreeSans" font-size="10.00" fill="#000000">HCALOuter_Clusters</text>
</a>
</g>
</g>
<!-- Node2&#45;&gt;Node11 -->
<g id="edge20" class="edge">
<title>Node2&#45;&gt;Node11</title>
<path fill="none" stroke="#191970" d="M320.3141,-97.6813C328.9638,-98.6842 337.5925,-99.6846 345.8521,-100.6423"/>
<polygon fill="#191970" stroke="#191970" points="320.5079,-94.1805 310.1713,-96.5054 319.7017,-101.1339 320.5079,-94.1805"/>
</g>
<!-- Node4 -->
<g id="node4" class="node">
<title>Node4</title>
<g id="a_node4"><a xlink:href="../../db/dc0/Fun4All__AnaTutorial_8C.html#a8c484ea6d7477278e981ef056b17eac9" target="_top" xlink:title="Fun4All_AnaTutorial">
<polygon fill="none" stroke="#000000" points="512,-117.5 512,-137.5 627,-137.5 627,-117.5 512,-117.5"/>
<text text-anchor="middle" x="569.5" y="-124.5" font-family="FreeSans" font-size="10.00" fill="#000000">Fun4All_AnaTutorial</text>
</a>
</g>
</g>
<!-- Node3&#45;&gt;Node4 -->
<g id="edge3" class="edge">
<title>Node3&#45;&gt;Node4</title>
<path fill="none" stroke="#191970" d="M447.9294,-82.0352C453.3966,-84.0552 458.8701,-86.2278 464,-88.5 480.7352,-95.9126 483.0501,-101.5924 500,-108.5 508.3403,-111.8989 517.4867,-114.8889 526.3261,-117.431"/>
<polygon fill="#191970" stroke="#191970" points="448.7654,-78.6182 438.1707,-78.5754 446.4263,-85.2158 448.7654,-78.6182"/>
</g>
<!-- Node5 -->
<g id="node5" class="node">
<title>Node5</title>
<g id="a_node5"><a xlink:href="../../dd/d28/Fun4All__AnaTutorial__Jets_8C.html#a55eaaeb770a3177f917012de87877d28" target="_top" xlink:title="Fun4All_AnaTutorial_Jets">
<polygon fill="none" stroke="#000000" points="500,-78.5 500,-98.5 639,-98.5 639,-78.5 500,-78.5"/>
<text text-anchor="middle" x="569.5" y="-85.5" font-family="FreeSans" font-size="10.00" fill="#000000">Fun4All_AnaTutorial_Jets</text>
</a>
</g>
</g>
<!-- Node3&#45;&gt;Node5 -->
<g id="edge4" class="edge">
<title>Node3&#45;&gt;Node5</title>
<path fill="none" stroke="#191970" d="M461.0743,-75.3175C473.5654,-76.8362 486.9556,-78.4642 499.916,-80.0399"/>
<polygon fill="#191970" stroke="#191970" points="461.1718,-71.8037 450.8224,-74.0711 460.3269,-78.7525 461.1718,-71.8037"/>
</g>
<!-- Node6 -->
<g id="node6" class="node">
<title>Node6</title>
<g id="a_node6"><a xlink:href="../../da/d02/Fun4All__G4__EICDetector_8C.html#afbe82cefa1d1fd031d9a8586b7bb68c6" target="_top" xlink:title="Fun4All_G4_EICDetector">
<polygon fill="none" stroke="#000000" points="500,-39.5 500,-59.5 639,-59.5 639,-39.5 500,-39.5"/>
<text text-anchor="middle" x="569.5" y="-46.5" font-family="FreeSans" font-size="10.00" fill="#000000">Fun4All_G4_EICDetector</text>
</a>
</g>
</g>
<!-- Node3&#45;&gt;Node6 -->
<g id="edge5" class="edge">
<title>Node3&#45;&gt;Node6</title>
<path fill="none" stroke="#191970" d="M461.0743,-62.0233C473.5654,-60.5806 486.9556,-59.034 499.916,-57.5371"/>
<polygon fill="#191970" stroke="#191970" points="460.3548,-58.5831 450.8224,-63.2074 461.158,-65.5369 460.3548,-58.5831"/>
</g>
<!-- Node7 -->
<g id="node7" class="node">
<title>Node7</title>
<g id="a_node7"><a xlink:href="../../d7/d9e/Fun4All__G4__fsPHENIX_8C.html#a72c444217210a14ab1b4e66d9818b1ff" target="_top" xlink:title="Fun4All_G4_fsPHENIX">
<polygon fill="none" stroke="#000000" points="507.5,-.5 507.5,-20.5 631.5,-20.5 631.5,-.5 507.5,-.5"/>
<text text-anchor="middle" x="569.5" y="-7.5" font-family="FreeSans" font-size="10.00" fill="#000000">Fun4All_G4_fsPHENIX</text>
</a>
</g>
</g>
<!-- Node3&#45;&gt;Node7 -->
<g id="edge6" class="edge">
<title>Node3&#45;&gt;Node7</title>
<path fill="none" stroke="#191970" d="M449.2756,-55.171C454.2887,-53.3881 459.2861,-51.4852 464,-49.5 480.6735,-42.4784 483.2185,-37.2594 500,-30.5 509.3171,-26.7472 519.5981,-23.3867 529.3307,-20.5399"/>
<polygon fill="#191970" stroke="#191970" points="448.0211,-51.9008 439.6863,-58.4416 450.2808,-58.5261 448.0211,-51.9008"/>
</g>
<!-- Node8 -->
<g id="node8" class="node">
<title>Node8</title>
<g id="a_node8"><a xlink:href="../../d0/d13/Fun4All__G4__sPHENIX_8C.html#a536fa7366e3aeaf273cca94ced704c46" target="_top" xlink:title="Fun4All_G4_sPHENIX">
<polygon fill="none" stroke="#000000" points="509,-156.5 509,-176.5 630,-176.5 630,-156.5 509,-156.5"/>
<text text-anchor="middle" x="569.5" y="-163.5" font-family="FreeSans" font-size="10.00" fill="#000000">Fun4All_G4_sPHENIX</text>
</a>
</g>
</g>
<!-- Node3&#45;&gt;Node8 -->
<g id="edge7" class="edge">
<title>Node3&#45;&gt;Node8</title>
<path fill="none" stroke="#191970" d="M456.1056,-83.1553C458.8884,-84.7603 461.5458,-86.5361 464,-88.5 487.9842,-107.6928 475.4512,-129.0348 500,-147.5 504.7983,-151.1092 510.2406,-154.0329 515.9167,-156.4014"/>
<polygon fill="#191970" stroke="#191970" points="457.4007,-79.891 446.8862,-78.589 454.2938,-86.1637 457.4007,-79.891"/>
</g>
<!-- Node9&#45;&gt;Node4 -->
<g id="edge9" class="edge">
<title>Node9&#45;&gt;Node4</title>
<path fill="none" stroke="#191970" d="M456.1056,-44.1553C458.8884,-45.7603 461.5458,-47.5361 464,-49.5 487.9842,-68.6928 475.4512,-90.0348 500,-108.5 504.7983,-112.1092 510.2406,-115.0329 515.9167,-117.4014"/>
<polygon fill="#191970" stroke="#191970" points="457.4007,-40.891 446.8862,-39.589 454.2938,-47.1637 457.4007,-40.891"/>
</g>
<!-- Node9&#45;&gt;Node5 -->
<g id="edge10" class="edge">
<title>Node9&#45;&gt;Node5</title>
<path fill="none" stroke="#191970" d="M447.9294,-43.0352C453.3966,-45.0552 458.8701,-47.2278 464,-49.5 480.7352,-56.9126 483.0501,-62.5924 500,-69.5 508.3403,-72.8989 517.4867,-75.8889 526.3261,-78.431"/>
<polygon fill="#191970" stroke="#191970" points="448.7654,-39.6182 438.1707,-39.5754 446.4263,-46.2158 448.7654,-39.6182"/>
</g>
<!-- Node9&#45;&gt;Node6 -->
<g id="edge11" class="edge">
<title>Node9&#45;&gt;Node6</title>
<path fill="none" stroke="#191970" d="M460.3348,-36.2276C473.0309,-37.7712 486.6886,-39.4317 499.9002,-41.038"/>
<polygon fill="#191970" stroke="#191970" points="460.7352,-32.7506 450.3858,-35.018 459.8903,-39.6995 460.7352,-32.7506"/>
</g>
<!-- Node9&#45;&gt;Node7 -->
<g id="edge12" class="edge">
<title>Node9&#45;&gt;Node7</title>
<path fill="none" stroke="#191970" d="M460.5527,-23.0836C475.5877,-21.347 491.9576,-19.4563 507.3307,-17.6807"/>
<polygon fill="#191970" stroke="#191970" points="459.9181,-19.6335 450.3858,-24.2579 460.7214,-26.5873 459.9181,-19.6335"/>
</g>
<!-- Node9&#45;&gt;Node8 -->
<g id="edge13" class="edge">
<title>Node9&#45;&gt;Node8</title>
<path fill="none" stroke="#191970" d="M458.5142,-44.9304C460.4604,-46.3241 462.3013,-47.8436 464,-49.5 497.2218,-81.8944 465.822,-116.1161 500,-147.5 503.9618,-151.138 508.5536,-154.0899 513.4519,-156.4835"/>
<polygon fill="#191970" stroke="#191970" points="459.8167,-41.6364 449.4214,-39.5898 456.2715,-47.6723 459.8167,-41.6364"/>
</g>
<!-- Node10&#45;&gt;Node4 -->
<g id="edge15" class="edge">
<title>Node10&#45;&gt;Node4</title>
<path fill="none" stroke="#191970" d="M473.5391,-138.5836C486.2576,-137.1146 499.4261,-135.5936 511.7817,-134.1665"/>
<polygon fill="#191970" stroke="#191970" points="472.9921,-135.1235 463.4597,-139.7478 473.7953,-142.0772 472.9921,-135.1235"/>
</g>
<!-- Node10&#45;&gt;Node5 -->
<g id="edge16" class="edge">
<title>Node10&#45;&gt;Node5</title>
<path fill="none" stroke="#191970" d="M449.2756,-133.171C454.2887,-131.3881 459.2861,-129.4852 464,-127.5 480.6735,-120.4784 483.2185,-115.2594 500,-108.5 509.3171,-104.7472 519.5981,-101.3867 529.3307,-98.5399"/>
<polygon fill="#191970" stroke="#191970" points="448.0211,-129.9008 439.6863,-136.4416 450.2808,-136.5261 448.0211,-129.9008"/>
</g>
<!-- Node10&#45;&gt;Node6 -->
<g id="edge17" class="edge">
<title>Node10&#45;&gt;Node6</title>
<path fill="none" stroke="#191970" d="M457.5103,-131.8988C459.782,-130.5573 461.9599,-129.0946 464,-127.5 487.9042,-108.8163 475.8059,-87.8068 500,-69.5 505.4067,-65.409 511.6248,-62.1539 518.0715,-59.5643"/>
<polygon fill="#191970" stroke="#191970" points="455.7358,-128.8735 448.3761,-136.4949 458.8822,-135.1265 455.7358,-128.8735"/>
</g>
<!-- Node10&#45;&gt;Node7 -->
<g id="edge18" class="edge">
<title>Node10&#45;&gt;Node7</title>
<path fill="none" stroke="#191970" d="M459.4394,-131.3136C461.0441,-130.1361 462.5715,-128.8672 464,-127.5 497.2206,-95.7044 466.2851,-61.771 500,-30.5 504.4187,-26.4016 509.6237,-23.137 515.1648,-20.5376"/>
<polygon fill="#191970" stroke="#191970" points="457.6322,-128.3162 450.8709,-136.4732 461.2432,-134.3129 457.6322,-128.3162"/>
</g>
<!-- Node10&#45;&gt;Node8 -->
<g id="edge19" class="edge">
<title>Node10&#45;&gt;Node8</title>
<path fill="none" stroke="#191970" d="M473.5857,-154.8387C485.2467,-156.2564 497.2847,-157.72 508.7264,-159.1111"/>
<polygon fill="#191970" stroke="#191970" points="473.8091,-151.3402 463.4597,-153.6076 472.9642,-158.289 473.8091,-151.3402"/>
</g>
<!-- Node11&#45;&gt;Node4 -->
<g id="edge21" class="edge">
<title>Node11&#45;&gt;Node4</title>
<path fill="none" stroke="#191970" d="M474.6771,-115.9714C487.0652,-117.4775 499.8429,-119.0311 511.8503,-120.4909"/>
<polygon fill="#191970" stroke="#191970" points="474.7376,-112.453 464.3883,-114.7205 473.8927,-119.4019 474.7376,-112.453"/>
</g>
<!-- Node11&#45;&gt;Node5 -->
<g id="edge22" class="edge">
<title>Node11&#45;&gt;Node5</title>
<path fill="none" stroke="#191970" d="M474.5024,-99.4724C482.8876,-98.5039 491.454,-97.5144 499.8415,-96.5457"/>
<polygon fill="#191970" stroke="#191970" points="473.9206,-96.0162 464.3883,-100.6406 474.7238,-102.97 473.9206,-96.0162"/>
</g>
<!-- Node11&#45;&gt;Node6 -->
<g id="edge23" class="edge">
<title>Node11&#45;&gt;Node6</title>
<path fill="none" stroke="#191970" d="M449.2756,-94.171C454.2887,-92.3881 459.2861,-90.4852 464,-88.5 480.6735,-81.4784 483.2185,-76.2594 500,-69.5 509.3171,-65.7472 519.5981,-62.3867 529.3307,-59.5399"/>
<polygon fill="#191970" stroke="#191970" points="448.0211,-90.9008 439.6863,-97.4416 450.2808,-97.5261 448.0211,-90.9008"/>
</g>
<!-- Node11&#45;&gt;Node7 -->
<g id="edge24" class="edge">
<title>Node11&#45;&gt;Node7</title>
<path fill="none" stroke="#191970" d="M457.5103,-92.8988C459.782,-91.5573 461.9599,-90.0946 464,-88.5 487.9042,-69.8163 475.8059,-48.8068 500,-30.5 505.4067,-26.409 511.6248,-23.1539 518.0715,-20.5643"/>
<polygon fill="#191970" stroke="#191970" points="455.7358,-89.8735 448.3761,-97.4949 458.8822,-96.1265 455.7358,-89.8735"/>
</g>
<!-- Node11&#45;&gt;Node8 -->
<g id="edge25" class="edge">
<title>Node11&#45;&gt;Node8</title>
<path fill="none" stroke="#191970" d="M447.9294,-121.0352C453.3966,-123.0552 458.8701,-125.2278 464,-127.5 480.7352,-134.9126 483.0501,-140.5924 500,-147.5 508.3403,-150.8989 517.4867,-153.8889 526.3261,-156.431"/>
<polygon fill="#191970" stroke="#191970" points="448.7654,-117.6182 438.1707,-117.5754 446.4263,-124.2158 448.7654,-117.6182"/>
</g>
</g>
</svg>
