<?xml version="1.0" encoding="UTF-8" standalone="no"?>
<!DOCTYPE svg PUBLIC "-//W3C//DTD SVG 1.1//EN"
 "http://www.w3.org/Graphics/SVG/1.1/DTD/svg11.dtd">
<!-- Generated by graphviz version 2.40.1 (20161225.0304)
 -->
<!-- Title: BEmcRec::GetTowerGeometry Pages: 1 -->
<svg width="777pt" height="197pt"
 viewBox="0.00 0.00 777.00 197.00" xmlns="http://www.w3.org/2000/svg" xmlns:xlink="http://www.w3.org/1999/xlink">
<g id="graph0" class="graph" transform="scale(1 1) rotate(0) translate(4 193)">
<title>BEmcRec::GetTowerGeometry</title>
<!-- Node1 -->
<g id="node1" class="node">
<title>Node1</title>
<polygon fill="#bfbfbf" stroke="#000000" points="0,-97.5 0,-117.5 168,-117.5 168,-97.5 0,-97.5"/>
<text text-anchor="middle" x="84" y="-104.5" font-family="FreeSans" font-size="10.00" fill="#000000">BEmcRec::GetTowerGeometry</text>
</g>
<!-- Node2 -->
<g id="node2" class="node">
<title>Node2</title>
<g id="a_node2"><a xlink:href="../../df/d23/classBEmcRec.html#aaee466f00370a168da949d57baa5f1d3" target="_top" xlink:title="BEmcRec::CompleteTowerGeometry">
<polygon fill="none" stroke="#000000" points="204,-139.5 204,-159.5 402,-159.5 402,-139.5 204,-139.5"/>
<text text-anchor="middle" x="303" y="-146.5" font-family="FreeSans" font-size="10.00" fill="#000000">BEmcRec::CompleteTowerGeometry</text>
</a>
</g>
</g>
<!-- Node1&#45;&gt;Node2 -->
<g id="edge1" class="edge">
<title>Node1&#45;&gt;Node2</title>
<path fill="none" stroke="#191970" d="M146.1911,-119.4271C179.2501,-125.7671 219.4315,-133.4732 250.8429,-139.4973"/>
<polygon fill="#191970" stroke="#191970" points="146.658,-115.9529 136.1777,-117.5067 145.3395,-122.8276 146.658,-115.9529"/>
</g>
<!-- Node4 -->
<g id="node4" class="node">
<title>Node4</title>
<g id="a_node4"><a xlink:href="../../df/d23/classBEmcRec.html#ac115997c94dd0b83b134d54b052d9031" target="_top" xlink:title="BEmcRec::Tower2Global">
<polygon fill="none" stroke="#000000" points="234,-78.5 234,-98.5 372,-98.5 372,-78.5 234,-78.5"/>
<text text-anchor="middle" x="303" y="-85.5" font-family="FreeSans" font-size="10.00" fill="#000000">BEmcRec::Tower2Global</text>
</a>
</g>
</g>
<!-- Node1&#45;&gt;Node4 -->
<g id="edge3" class="edge">
<title>Node1&#45;&gt;Node4</title>
<path fill="none" stroke="#191970" d="M178.0534,-99.3401C196.7506,-97.718 216.0609,-96.0427 233.7446,-94.5085"/>
<polygon fill="#191970" stroke="#191970" points="177.7048,-95.8571 168.0448,-100.2084 178.3099,-102.8309 177.7048,-95.8571"/>
</g>
<!-- Node3 -->
<g id="node3" class="node">
<title>Node3</title>
<g id="a_node3"><a xlink:href="../../d8/d5d/classRawClusterBuilderTemplate.html#a37dfa12fa93c1e11d501fb65a17c2d39" target="_top" xlink:title="RawClusterBuilderTemplate\l::InitRun">
<polygon fill="none" stroke="#000000" points="447.5,-156.5 447.5,-188.5 602.5,-188.5 602.5,-156.5 447.5,-156.5"/>
<text text-anchor="start" x="455.5" y="-175.5" font-family="FreeSans" font-size="10.00" fill="#000000">RawClusterBuilderTemplate</text>
<text text-anchor="middle" x="525" y="-163.5" font-family="FreeSans" font-size="10.00" fill="#000000">::InitRun</text>
</a>
</g>
</g>
<!-- Node2&#45;&gt;Node3 -->
<g id="edge2" class="edge">
<title>Node2&#45;&gt;Node3</title>
<path fill="none" stroke="#191970" d="M409.823,-160.5673C422.4473,-161.8752 435.1436,-163.1906 447.2577,-164.4456"/>
<polygon fill="#191970" stroke="#191970" points="410.0341,-157.0705 399.7266,-159.5212 409.3127,-164.0332 410.0341,-157.0705"/>
</g>
<!-- Node5 -->
<g id="node5" class="node">
<title>Node5</title>
<g id="a_node5"><a xlink:href="../../d9/d04/classEmcCluster.html#a0b58e2ffe50ef779a1a1077b2f440087" target="_top" xlink:title="Returns the EmcCluster position in PHENIX global coord system.">
<polygon fill="none" stroke="#000000" points="451,-117.5 451,-137.5 599,-137.5 599,-117.5 451,-117.5"/>
<text text-anchor="middle" x="525" y="-124.5" font-family="FreeSans" font-size="10.00" fill="#000000">EmcCluster::GetGlobalPos</text>
</a>
</g>
</g>
<!-- Node4&#45;&gt;Node5 -->
<g id="edge4" class="edge">
<title>Node4&#45;&gt;Node5</title>
<path fill="none" stroke="#191970" d="M370.1071,-100.2891C401.3591,-105.7793 438.1444,-112.2416 468.0232,-117.4906"/>
<polygon fill="#191970" stroke="#191970" points="370.6253,-96.8266 360.1705,-98.5435 369.4141,-103.721 370.6253,-96.8266"/>
</g>
<!-- Node7 -->
<g id="node7" class="node">
<title>Node7</title>
<g id="a_node7"><a xlink:href="../../d5/d08/classBEmcRecEEMC.html#a306a1a2ab736c1587d11999451c77b0c" target="_top" xlink:title="BEmcRecEEMC::CorrectPosition">
<polygon fill="none" stroke="#000000" points="438,-78.5 438,-98.5 612,-98.5 612,-78.5 438,-78.5"/>
<text text-anchor="middle" x="525" y="-85.5" font-family="FreeSans" font-size="10.00" fill="#000000">BEmcRecEEMC::CorrectPosition</text>
</a>
</g>
</g>
<!-- Node4&#45;&gt;Node7 -->
<g id="edge6" class="edge">
<title>Node4&#45;&gt;Node7</title>
<path fill="none" stroke="#191970" d="M382.2185,-88.5C400.2963,-88.5 419.6023,-88.5 437.9864,-88.5"/>
<polygon fill="#191970" stroke="#191970" points="382.0253,-85.0001 372.0253,-88.5 382.0252,-92.0001 382.0253,-85.0001"/>
</g>
<!-- Node8 -->
<g id="node8" class="node">
<title>Node8</title>
<g id="a_node8"><a xlink:href="../../d1/d5c/classBEmcRecFEMC.html#afb09757c359623c9f31d66b62e6a76a1" target="_top" xlink:title="BEmcRecFEMC::CorrectECore">
<polygon fill="none" stroke="#000000" points="443,-39.5 443,-59.5 607,-59.5 607,-39.5 443,-39.5"/>
<text text-anchor="middle" x="525" y="-46.5" font-family="FreeSans" font-size="10.00" fill="#000000">BEmcRecFEMC::CorrectECore</text>
</a>
</g>
</g>
<!-- Node4&#45;&gt;Node8 -->
<g id="edge7" class="edge">
<title>Node4&#45;&gt;Node8</title>
<path fill="none" stroke="#191970" d="M370.1071,-76.7109C401.3591,-71.2207 438.1444,-64.7584 468.0232,-59.5094"/>
<polygon fill="#191970" stroke="#191970" points="369.4141,-73.279 360.1705,-78.4565 370.6253,-80.1734 369.4141,-73.279"/>
</g>
<!-- Node9 -->
<g id="node9" class="node">
<title>Node9</title>
<g id="a_node9"><a xlink:href="../../d1/d5c/classBEmcRecFEMC.html#aba40d8068dddfe414a615d2123320e10" target="_top" xlink:title="BEmcRecFEMC::CorrectPosition">
<polygon fill="none" stroke="#000000" points="438.5,-.5 438.5,-20.5 611.5,-20.5 611.5,-.5 438.5,-.5"/>
<text text-anchor="middle" x="525" y="-7.5" font-family="FreeSans" font-size="10.00" fill="#000000">BEmcRecFEMC::CorrectPosition</text>
</a>
</g>
</g>
<!-- Node4&#45;&gt;Node9 -->
<g id="edge8" class="edge">
<title>Node4&#45;&gt;Node9</title>
<path fill="none" stroke="#191970" d="M332.3918,-74.0459C359.3491,-61.2322 400.6407,-42.7096 438,-30.5 449.6378,-26.6966 462.3779,-23.336 474.4317,-20.5071"/>
<polygon fill="#191970" stroke="#191970" points="330.6428,-71.003 323.1426,-78.4861 333.6723,-77.3135 330.6428,-71.003"/>
</g>
<!-- Node6 -->
<g id="node6" class="node">
<title>Node6</title>
<g id="a_node6"><a xlink:href="../../d9/d04/classEmcCluster.html#a73b89990f83b7dff6006bdca5213cf7d" target="_top" xlink:title="EmcCluster::GetProb">
<polygon fill="none" stroke="#000000" points="648,-117.5 648,-137.5 769,-137.5 769,-117.5 648,-117.5"/>
<text text-anchor="middle" x="708.5" y="-124.5" font-family="FreeSans" font-size="10.00" fill="#000000">EmcCluster::GetProb</text>
</a>
</g>
</g>
<!-- Node5&#45;&gt;Node6 -->
<g id="edge5" class="edge">
<title>Node5&#45;&gt;Node6</title>
<path fill="none" stroke="#191970" d="M609.4496,-127.5C622.4225,-127.5 635.5912,-127.5 647.9097,-127.5"/>
<polygon fill="#191970" stroke="#191970" points="609.1076,-124.0001 599.1075,-127.5 609.1075,-131.0001 609.1076,-124.0001"/>
</g>
</g>
</svg>
