<?xml version="1.0" encoding="UTF-8" standalone="no"?>
<!DOCTYPE svg PUBLIC "-//W3C//DTD SVG 1.1//EN"
 "http://www.w3.org/Graphics/SVG/1.1/DTD/svg11.dtd">
<!-- Generated by graphviz version 2.40.1 (20161225.0304)
 -->
<!-- Title: BEmcRec::fTowerDist Pages: 1 -->
<svg width="539pt" height="68pt"
 viewBox="0.00 0.00 539.00 68.00" xmlns="http://www.w3.org/2000/svg" xmlns:xlink="http://www.w3.org/1999/xlink">
<g id="graph0" class="graph" transform="scale(1 1) rotate(0) translate(4 64)">
<title>BEmcRec::fTowerDist</title>
<!-- Node1 -->
<g id="node1" class="node">
<title>Node1</title>
<polygon fill="#bfbfbf" stroke="#000000" points="0,-19.5 0,-39.5 123,-39.5 123,-19.5 0,-19.5"/>
<text text-anchor="middle" x="61.5" y="-26.5" font-family="FreeSans" font-size="10.00" fill="#000000">BEmcRec::fTowerDist</text>
</g>
<!-- Node2 -->
<g id="node2" class="node">
<title>Node2</title>
<g id="a_node2"><a xlink:href="../../d9/d04/classEmcCluster.html#af0d5e9d5210331c6333a68e051ff2dee" target="_top" xlink:title="Returns the cluster energy taking into account towers with E&gt;Ethresh.">
<polygon fill="none" stroke="#000000" points="174.5,-39.5 174.5,-59.5 302.5,-59.5 302.5,-39.5 174.5,-39.5"/>
<text text-anchor="middle" x="238.5" y="-46.5" font-family="FreeSans" font-size="10.00" fill="#000000">EmcCluster::GetECore</text>
</a>
</g>
</g>
<!-- Node1&#45;&gt;Node2 -->
<g id="edge1" class="edge">
<title>Node1&#45;&gt;Node2</title>
<path fill="none" stroke="#191970" d="M133.5752,-37.6441C147.0357,-39.165 161.0214,-40.7454 174.2274,-42.2376"/>
<polygon fill="#191970" stroke="#191970" points="133.7358,-34.14 123.406,-36.495 132.9498,-41.0958 133.7358,-34.14"/>
</g>
<!-- Node4 -->
<g id="node4" class="node">
<title>Node4</title>
<g id="a_node4"><a xlink:href="../../d9/d04/classEmcCluster.html#a756e889280bea6dac4adc74ad4050170" target="_top" xlink:title="Splits the Cluster onto SubClusters; returns list of clusters and list of peak towers corresponding t...">
<polygon fill="none" stroke="#000000" points="159,-.5 159,-20.5 318,-20.5 318,-.5 159,-.5"/>
<text text-anchor="middle" x="238.5" y="-7.5" font-family="FreeSans" font-size="10.00" fill="#000000">EmcCluster::GetSubClusters</text>
</a>
</g>
</g>
<!-- Node1&#45;&gt;Node4 -->
<g id="edge3" class="edge">
<title>Node1&#45;&gt;Node4</title>
<path fill="none" stroke="#191970" d="M133.4913,-21.7721C141.8597,-20.8738 150.4323,-19.9536 158.8952,-19.0451"/>
<polygon fill="#191970" stroke="#191970" points="132.9753,-18.3073 123.406,-22.8547 133.7225,-25.2673 132.9753,-18.3073"/>
</g>
<!-- Node3 -->
<g id="node3" class="node">
<title>Node3</title>
<g id="a_node3"><a xlink:href="../../d9/d04/classEmcCluster.html#a9e9c9b084ae284b857327038f39de7e8" target="_top" xlink:title="Ecore corrected for energy leak sidewise core towers.">
<polygon fill="none" stroke="#000000" points="354,-39.5 354,-59.5 531,-59.5 531,-39.5 354,-39.5"/>
<text text-anchor="middle" x="442.5" y="-46.5" font-family="FreeSans" font-size="10.00" fill="#000000">EmcCluster::GetECoreCorrected</text>
</a>
</g>
</g>
<!-- Node2&#45;&gt;Node3 -->
<g id="edge2" class="edge">
<title>Node2&#45;&gt;Node3</title>
<path fill="none" stroke="#191970" d="M312.8263,-49.5C326.1773,-49.5 340.2126,-49.5 353.919,-49.5"/>
<polygon fill="#191970" stroke="#191970" points="312.7669,-46.0001 302.7669,-49.5 312.7668,-53.0001 312.7669,-46.0001"/>
</g>
</g>
</svg>
