<?xml version="1.0" encoding="UTF-8" standalone="no"?>
<!DOCTYPE svg PUBLIC "-//W3C//DTD SVG 1.1//EN"
 "http://www.w3.org/Graphics/SVG/1.1/DTD/svg11.dtd">
<!-- Generated by graphviz version 2.40.1 (20161225.0304)
 -->
<!-- Title: EicRoot/blob/master/eic/detectors/maps/VstGeoParData.cxx Pages: 1 -->
<svg width="1761pt" height="395pt"
 viewBox="0.00 0.00 1761.00 395.00" xmlns="http://www.w3.org/2000/svg" xmlns:xlink="http://www.w3.org/1999/xlink">
<g id="graph0" class="graph" transform="scale(1 1) rotate(0) translate(4 391)">
<title>EicRoot/blob/master/eic/detectors/maps/VstGeoParData.cxx</title>
<!-- Node1 -->
<g id="node1" class="node">
<title>Node1</title>
<polygon fill="#bfbfbf" stroke="#000000" points="108.5,-342.5 108.5,-386.5 227.5,-386.5 227.5,-342.5 108.5,-342.5"/>
<text text-anchor="start" x="116.5" y="-373.5" font-family="FreeSans" font-size="10.00" fill="#000000">EicRoot/blob/master</text>
<text text-anchor="start" x="116.5" y="-361.5" font-family="FreeSans" font-size="10.00" fill="#000000">/eic/detectors/maps</text>
<text text-anchor="middle" x="168" y="-349.5" font-family="FreeSans" font-size="10.00" fill="#000000">/VstGeoParData.cxx</text>
</g>
<!-- Node2 -->
<g id="node2" class="node">
<title>Node2</title>
<polygon fill="none" stroke="#bfbfbf" points="0,-285.5 0,-305.5 60,-305.5 60,-285.5 0,-285.5"/>
<text text-anchor="middle" x="30" y="-292.5" font-family="FreeSans" font-size="10.00" fill="#000000">iostream</text>
</g>
<!-- Node1&#45;&gt;Node2 -->
<g id="edge1" class="edge">
<title>Node1&#45;&gt;Node2</title>
<path fill="none" stroke="#191970" d="M123.9565,-342.4783C102.7679,-331.884 77.9507,-319.4753 59.1444,-310.0722"/>
<polygon fill="#191970" stroke="#191970" points="60.6833,-306.9286 50.1737,-305.5869 57.5527,-313.1896 60.6833,-306.9286"/>
</g>
<!-- Node3 -->
<g id="node3" class="node">
<title>Node3</title>
<polygon fill="none" stroke="#bfbfbf" points="59,-114.5 59,-134.5 117,-134.5 117,-114.5 59,-114.5"/>
<text text-anchor="middle" x="88" y="-121.5" font-family="FreeSans" font-size="10.00" fill="#000000">TMath.h</text>
</g>
<!-- Node1&#45;&gt;Node3 -->
<g id="edge2" class="edge">
<title>Node1&#45;&gt;Node3</title>
<path fill="none" stroke="#191970" d="M137.078,-342.4468C125.6933,-332.6341 113.9041,-320.1009 107,-306 80.8392,-252.5692 82.8336,-179.8719 85.7548,-144.9179"/>
<polygon fill="#191970" stroke="#191970" points="89.2742,-144.8809 86.7417,-134.5932 82.306,-144.2148 89.2742,-144.8809"/>
</g>
<!-- Node4 -->
<g id="node4" class="node">
<title>Node4</title>
<polygon fill="none" stroke="#bfbfbf" points="237.5,-285.5 237.5,-305.5 312.5,-305.5 312.5,-285.5 237.5,-285.5"/>
<text text-anchor="middle" x="275" y="-292.5" font-family="FreeSans" font-size="10.00" fill="#000000">TGeoTrd1.h</text>
</g>
<!-- Node1&#45;&gt;Node4 -->
<g id="edge3" class="edge">
<title>Node1&#45;&gt;Node4</title>
<path fill="none" stroke="#191970" d="M202.1497,-342.4783C217.9033,-332.3194 236.244,-320.4922 250.5817,-311.2464"/>
<polygon fill="#191970" stroke="#191970" points="252.8508,-313.9478 259.3581,-305.5869 249.0571,-308.0649 252.8508,-313.9478"/>
</g>
<!-- Node5 -->
<g id="node5" class="node">
<title>Node5</title>
<polygon fill="none" stroke="#bfbfbf" points="330.5,-285.5 330.5,-305.5 407.5,-305.5 407.5,-285.5 330.5,-285.5"/>
<text text-anchor="middle" x="369" y="-292.5" font-family="FreeSans" font-size="10.00" fill="#000000">TGeoTube.h</text>
</g>
<!-- Node1&#45;&gt;Node5 -->
<g id="edge4" class="edge">
<title>Node1&#45;&gt;Node5</title>
<path fill="none" stroke="#191970" d="M227.7624,-343.9845C260.7841,-332.6487 300.8691,-318.8882 329.8868,-308.9269"/>
<polygon fill="#191970" stroke="#191970" points="331.3376,-312.1294 339.6594,-305.5721 329.0648,-305.5087 331.3376,-312.1294"/>
</g>
<!-- Node6 -->
<g id="node6" class="node">
<title>Node6</title>
<g id="a_node6"><a xlink:href="../../de/da8/VstGeoParData_8h.html" target="_top" xlink:title="VstGeoParData.h">
<polygon fill="none" stroke="#000000" points="116.5,-285.5 116.5,-305.5 219.5,-305.5 219.5,-285.5 116.5,-285.5"/>
<text text-anchor="middle" x="168" y="-292.5" font-family="FreeSans" font-size="10.00" fill="#000000">VstGeoParData.h</text>
</a>
</g>
</g>
<!-- Node1&#45;&gt;Node6 -->
<g id="edge5" class="edge">
<title>Node1&#45;&gt;Node6</title>
<path fill="none" stroke="#191970" d="M168,-342.2882C168,-333.8377 168,-324.2557 168,-315.9736"/>
<polygon fill="#191970" stroke="#191970" points="171.5001,-315.7136 168,-305.7137 164.5001,-315.7137 171.5001,-315.7136"/>
</g>
<!-- Node7 -->
<g id="node7" class="node">
<title>Node7</title>
<g id="a_node7"><a xlink:href="../../dc/dd3/MapsGeoParData_8h.html" target="_top" xlink:title="MapsGeoParData.h">
<polygon fill="none" stroke="#000000" points="196,-228.5 196,-248.5 308,-248.5 308,-228.5 196,-228.5"/>
<text text-anchor="middle" x="252" y="-235.5" font-family="FreeSans" font-size="10.00" fill="#000000">MapsGeoParData.h</text>
</a>
</g>
</g>
<!-- Node6&#45;&gt;Node7 -->
<g id="edge6" class="edge">
<title>Node6&#45;&gt;Node7</title>
<path fill="none" stroke="#191970" d="M183.0175,-285.3095C195.6792,-276.7177 214.0147,-264.2758 228.6,-254.3786"/>
<polygon fill="#191970" stroke="#191970" points="230.803,-257.1135 237.1125,-248.6022 226.8725,-251.3211 230.803,-257.1135"/>
</g>
<!-- Node28 -->
<g id="node28" class="node">
<title>Node28</title>
<g id="a_node28"><a xlink:href="../../d8/de3/MapsMimosaAssembly_8h.html" target="_top" xlink:title="MapsMimosaAssembly.h">
<polygon fill="none" stroke="#000000" points="116.5,-171.5 116.5,-191.5 255.5,-191.5 255.5,-171.5 116.5,-171.5"/>
<text text-anchor="middle" x="186" y="-178.5" font-family="FreeSans" font-size="10.00" fill="#000000">MapsMimosaAssembly.h</text>
</a>
</g>
</g>
<!-- Node6&#45;&gt;Node28 -->
<g id="edge43" class="edge">
<title>Node6&#45;&gt;Node28</title>
<path fill="none" stroke="#191970" d="M169.5974,-285.3833C172.5521,-266.6703 178.9221,-226.3266 182.7969,-201.7866"/>
<polygon fill="#191970" stroke="#191970" points="186.2778,-202.1815 184.3803,-191.7579 179.3634,-201.0897 186.2778,-202.1815"/>
</g>
<!-- Node8 -->
<g id="node8" class="node">
<title>Node8</title>
<g id="a_node8"><a xlink:href="../../dc/dac/EicGeoParData_8h.html" target="_top" xlink:title="EicGeoParData.h">
<polygon fill="none" stroke="#000000" points="792,-114.5 792,-134.5 892,-134.5 892,-114.5 792,-114.5"/>
<text text-anchor="middle" x="842" y="-121.5" font-family="FreeSans" font-size="10.00" fill="#000000">EicGeoParData.h</text>
</a>
</g>
</g>
<!-- Node7&#45;&gt;Node8 -->
<g id="edge7" class="edge">
<title>Node7&#45;&gt;Node8</title>
<path fill="none" stroke="#191970" d="M303.8415,-228.4832C412.887,-207.4134 665.4758,-158.6081 781.6078,-136.169"/>
<polygon fill="#191970" stroke="#191970" points="782.5878,-139.5445 791.7422,-134.2108 781.2598,-132.6716 782.5878,-139.5445"/>
</g>
<!-- Node7&#45;&gt;Node28 -->
<g id="edge39" class="edge">
<title>Node7&#45;&gt;Node28</title>
<path fill="none" stroke="#191970" d="M240.2005,-228.3095C230.5336,-219.9608 216.6575,-207.9769 205.3657,-198.2249"/>
<polygon fill="#191970" stroke="#191970" points="207.5533,-195.4896 197.6973,-191.6022 202.9779,-200.7874 207.5533,-195.4896"/>
</g>
<!-- Node9 -->
<g id="node9" class="node">
<title>Node9</title>
<polygon fill="none" stroke="#bfbfbf" points="815.5,-57.5 815.5,-77.5 868.5,-77.5 868.5,-57.5 815.5,-57.5"/>
<text text-anchor="middle" x="842" y="-64.5" font-family="FreeSans" font-size="10.00" fill="#000000">stdlib.h</text>
</g>
<!-- Node8&#45;&gt;Node9 -->
<g id="edge8" class="edge">
<title>Node8&#45;&gt;Node9</title>
<path fill="none" stroke="#191970" d="M842,-114.3095C842,-106.9335 842,-96.72 842,-87.715"/>
<polygon fill="#191970" stroke="#191970" points="845.5001,-87.6022 842,-77.6022 838.5001,-87.6023 845.5001,-87.6022"/>
</g>
<!-- Node10 -->
<g id="node10" class="node">
<title>Node10</title>
<polygon fill="none" stroke="#bfbfbf" points="173,-57.5 173,-77.5 229,-77.5 229,-57.5 173,-57.5"/>
<text text-anchor="middle" x="201" y="-64.5" font-family="FreeSans" font-size="10.00" fill="#000000">assert.h</text>
</g>
<!-- Node8&#45;&gt;Node10 -->
<g id="edge9" class="edge">
<title>Node8&#45;&gt;Node10</title>
<path fill="none" stroke="#191970" d="M791.8147,-121.9305C670.2281,-115.503 361.4993,-97.921 239.0254,-77.8152"/>
<polygon fill="#191970" stroke="#191970" points="239.5952,-74.3618 229.1462,-76.1137 238.4071,-81.2603 239.5952,-74.3618"/>
</g>
<!-- Node11 -->
<g id="node11" class="node">
<title>Node11</title>
<polygon fill="none" stroke="#bfbfbf" points="247,-57.5 247,-77.5 279,-77.5 279,-57.5 247,-57.5"/>
<text text-anchor="middle" x="263" y="-64.5" font-family="FreeSans" font-size="10.00" fill="#000000">set</text>
</g>
<!-- Node8&#45;&gt;Node11 -->
<g id="edge10" class="edge">
<title>Node8&#45;&gt;Node11</title>
<path fill="none" stroke="#191970" d="M791.6337,-121.8615C674.6753,-115.4715 387.476,-98.1948 293,-78 291.7251,-77.7275 290.4301,-77.4159 289.1294,-77.0746"/>
<polygon fill="#191970" stroke="#191970" points="289.8786,-73.643 279.2912,-74.0383 287.8142,-80.3317 289.8786,-73.643"/>
</g>
<!-- Node12 -->
<g id="node12" class="node">
<title>Node12</title>
<polygon fill="none" stroke="#bfbfbf" points="662.5,-.5 662.5,-20.5 725.5,-20.5 725.5,-.5 662.5,-.5"/>
<text text-anchor="middle" x="694" y="-7.5" font-family="FreeSans" font-size="10.00" fill="#000000">TString.h</text>
</g>
<!-- Node8&#45;&gt;Node12 -->
<g id="edge11" class="edge">
<title>Node8&#45;&gt;Node12</title>
<path fill="none" stroke="#191970" d="M854.2953,-114.482C869.7047,-100.7151 892.4433,-75.5475 878,-57 860.7069,-34.793 784.5444,-21.5162 735.7904,-15.1408"/>
<polygon fill="#191970" stroke="#191970" points="736.1934,-11.664 725.8339,-13.8844 735.317,-18.6089 736.1934,-11.664"/>
</g>
<!-- Node13 -->
<g id="node13" class="node">
<title>Node13</title>
<polygon fill="none" stroke="#bfbfbf" points="416.5,-.5 416.5,-20.5 481.5,-20.5 481.5,-.5 416.5,-.5"/>
<text text-anchor="middle" x="449" y="-7.5" font-family="FreeSans" font-size="10.00" fill="#000000">TObject.h</text>
</g>
<!-- Node8&#45;&gt;Node13 -->
<g id="edge12" class="edge">
<title>Node8&#45;&gt;Node13</title>
<path fill="none" stroke="#191970" d="M791.6183,-123.7252C668.0918,-121.3049 357.9603,-111.8817 327,-78 299.4472,-47.8474 361.2202,-28.1181 406.5342,-18.1714"/>
<polygon fill="#191970" stroke="#191970" points="407.4196,-21.5619 416.4873,-16.0822 405.9816,-14.7112 407.4196,-21.5619"/>
</g>
<!-- Node14 -->
<g id="node14" class="node">
<title>Node14</title>
<polygon fill="none" stroke="#bfbfbf" points="1037,-57.5 1037,-77.5 1087,-77.5 1087,-57.5 1037,-57.5"/>
<text text-anchor="middle" x="1062" y="-64.5" font-family="FreeSans" font-size="10.00" fill="#000000">TFile.h</text>
</g>
<!-- Node8&#45;&gt;Node14 -->
<g id="edge13" class="edge">
<title>Node8&#45;&gt;Node14</title>
<path fill="none" stroke="#191970" d="M885.023,-114.4485C920.6926,-105.9569 972.9363,-93.1575 1027.0332,-78.1739"/>
<polygon fill="#191970" stroke="#191970" points="1028.1019,-81.5094 1036.7942,-75.4518 1026.2215,-74.7667 1028.1019,-81.5094"/>
</g>
<!-- Node15 -->
<g id="node15" class="node">
<title>Node15</title>
<polygon fill="none" stroke="#bfbfbf" points="1105,-57.5 1105,-77.5 1201,-77.5 1201,-57.5 1105,-57.5"/>
<text text-anchor="middle" x="1153" y="-64.5" font-family="FreeSans" font-size="10.00" fill="#000000">TGeoManager.h</text>
</g>
<!-- Node8&#45;&gt;Node15 -->
<g id="edge14" class="edge">
<title>Node8&#45;&gt;Node15</title>
<path fill="none" stroke="#191970" d="M892.1248,-115.3404C941.1584,-106.3765 1018.2519,-92.2729 1094.5317,-78.2683"/>
<polygon fill="#191970" stroke="#191970" points="1095.5952,-81.6316 1104.7986,-76.3831 1094.3309,-74.7467 1095.5952,-81.6316"/>
</g>
<!-- Node16 -->
<g id="node16" class="node">
<title>Node16</title>
<polygon fill="none" stroke="#bfbfbf" points="1219,-57.5 1219,-77.5 1309,-77.5 1309,-57.5 1219,-57.5"/>
<text text-anchor="middle" x="1264" y="-64.5" font-family="FreeSans" font-size="10.00" fill="#000000">TTimeStamp.h</text>
</g>
<!-- Node8&#45;&gt;Node16 -->
<g id="edge15" class="edge">
<title>Node8&#45;&gt;Node16</title>
<path fill="none" stroke="#191970" d="M892.1493,-119.2306C961.1755,-111.7419 1089.5522,-96.9705 1208.9147,-78.0918"/>
<polygon fill="#191970" stroke="#191970" points="1209.6346,-81.5213 1218.9585,-76.4899 1208.532,-74.6086 1209.6346,-81.5213"/>
</g>
<!-- Node17 -->
<g id="node17" class="node">
<title>Node17</title>
<polygon fill="none" stroke="#bfbfbf" points="1327.5,-57.5 1327.5,-77.5 1398.5,-77.5 1398.5,-57.5 1327.5,-57.5"/>
<text text-anchor="middle" x="1363" y="-64.5" font-family="FreeSans" font-size="10.00" fill="#000000">TVector3.h</text>
</g>
<!-- Node8&#45;&gt;Node17 -->
<g id="edge16" class="edge">
<title>Node8&#45;&gt;Node17</title>
<path fill="none" stroke="#191970" d="M892.3107,-121.7723C977.6776,-116.6672 1156.4493,-103.9163 1317.1545,-77.9451"/>
<polygon fill="#191970" stroke="#191970" points="1317.9209,-81.3663 1327.2239,-76.2964 1316.7897,-74.4583 1317.9209,-81.3663"/>
</g>
<!-- Node18 -->
<g id="node18" class="node">
<title>Node18</title>
<g id="a_node18"><a xlink:href="../../d3/d52/FairGeoLoader_8h.html" target="_top" xlink:title="FairGeoLoader.h">
<polygon fill="none" stroke="#000000" points="1416.5,-57.5 1416.5,-77.5 1513.5,-77.5 1513.5,-57.5 1416.5,-57.5"/>
<text text-anchor="middle" x="1465" y="-64.5" font-family="FreeSans" font-size="10.00" fill="#000000">FairGeoLoader.h</text>
</a>
</g>
</g>
<!-- Node8&#45;&gt;Node18 -->
<g id="edge17" class="edge">
<title>Node8&#45;&gt;Node18</title>
<path fill="none" stroke="#191970" d="M892.1509,-122.071C989.4247,-116.9928 1210.6608,-103.6545 1406.0652,-78.1564"/>
<polygon fill="#191970" stroke="#191970" points="1406.777,-81.593 1416.2335,-76.8154 1405.8617,-74.6531 1406.777,-81.593"/>
</g>
<!-- Node20 -->
<g id="node20" class="node">
<title>Node20</title>
<g id="a_node20"><a xlink:href="../../d6/dd0/FairGeoInterface_8h.html" target="_top" xlink:title="FairGeoInterface.h">
<polygon fill="none" stroke="#000000" points="335.5,-57.5 335.5,-77.5 444.5,-77.5 444.5,-57.5 335.5,-57.5"/>
<text text-anchor="middle" x="390" y="-64.5" font-family="FreeSans" font-size="10.00" fill="#000000">FairGeoInterface.h</text>
</a>
</g>
</g>
<!-- Node8&#45;&gt;Node20 -->
<g id="edge19" class="edge">
<title>Node8&#45;&gt;Node20</title>
<path fill="none" stroke="#191970" d="M791.9917,-119.2077C719.8846,-111.422 582.2884,-95.9881 454.7361,-78.0556"/>
<polygon fill="#191970" stroke="#191970" points="455.1804,-74.5837 444.7888,-76.649 454.2003,-81.5147 455.1804,-74.5837"/>
</g>
<!-- Node21 -->
<g id="node21" class="node">
<title>Node21</title>
<g id="a_node21"><a xlink:href="../../dc/d78/FairGeoMedia_8h.html" target="_top" xlink:title="FairGeoMedia.h">
<polygon fill="none" stroke="#000000" points="925,-57.5 925,-77.5 1019,-77.5 1019,-57.5 925,-57.5"/>
<text text-anchor="middle" x="972" y="-64.5" font-family="FreeSans" font-size="10.00" fill="#000000">FairGeoMedia.h</text>
</a>
</g>
</g>
<!-- Node8&#45;&gt;Node21 -->
<g id="edge22" class="edge">
<title>Node8&#45;&gt;Node21</title>
<path fill="none" stroke="#191970" d="M864.9421,-114.4408C885.6069,-105.3801 916.2105,-91.9615 939.4108,-81.7891"/>
<polygon fill="#191970" stroke="#191970" points="941.0971,-84.8715 948.8499,-77.6504 938.2861,-78.4606 941.0971,-84.8715"/>
</g>
<!-- Node22 -->
<g id="node22" class="node">
<title>Node22</title>
<g id="a_node22"><a xlink:href="../../d4/d9e/FairGeoMedium_8h.html" target="_top" xlink:title="FairGeoMedium.h">
<polygon fill="none" stroke="#000000" points="1649,-57.5 1649,-77.5 1753,-77.5 1753,-57.5 1649,-57.5"/>
<text text-anchor="middle" x="1701" y="-64.5" font-family="FreeSans" font-size="10.00" fill="#000000">FairGeoMedium.h</text>
</a>
</g>
</g>
<!-- Node8&#45;&gt;Node22 -->
<g id="edge25" class="edge">
<title>Node8&#45;&gt;Node22</title>
<path fill="none" stroke="#191970" d="M892.1225,-123.532C1016.692,-120.7077 1350.4545,-110.5785 1638.5821,-78.0464"/>
<polygon fill="#191970" stroke="#191970" points="1639.2731,-81.4904 1648.8121,-76.8796 1638.4798,-74.5354 1639.2731,-81.4904"/>
</g>
<!-- Node24 -->
<g id="node24" class="node">
<title>Node24</title>
<g id="a_node24"><a xlink:href="../../d2/dc5/FairGeoBuilder_8h.html" target="_top" xlink:title="FairGeoBuilder.h">
<polygon fill="none" stroke="#000000" points="1531.5,-57.5 1531.5,-77.5 1630.5,-77.5 1630.5,-57.5 1531.5,-57.5"/>
<text text-anchor="middle" x="1581" y="-64.5" font-family="FreeSans" font-size="10.00" fill="#000000">FairGeoBuilder.h</text>
</a>
</g>
</g>
<!-- Node8&#45;&gt;Node24 -->
<g id="edge28" class="edge">
<title>Node8&#45;&gt;Node24</title>
<path fill="none" stroke="#191970" d="M892.1634,-122.9796C1003.6141,-119.1913 1280.3894,-107.5167 1521.3811,-78.0902"/>
<polygon fill="#191970" stroke="#191970" points="1521.8853,-81.5547 1531.3814,-76.8563 1521.028,-74.6073 1521.8853,-81.5547"/>
</g>
<!-- Node25 -->
<g id="node25" class="node">
<title>Node25</title>
<g id="a_node25"><a xlink:href="../../d8/dfe/EicDetName_8h.html" target="_top" xlink:title="EicDetName.h">
<polygon fill="none" stroke="#000000" points="463,-57.5 463,-77.5 551,-77.5 551,-57.5 463,-57.5"/>
<text text-anchor="middle" x="507" y="-64.5" font-family="FreeSans" font-size="10.00" fill="#000000">EicDetName.h</text>
</a>
</g>
</g>
<!-- Node8&#45;&gt;Node25 -->
<g id="edge30" class="edge">
<title>Node8&#45;&gt;Node25</title>
<path fill="none" stroke="#191970" d="M791.9288,-116.6487C737.7596,-108.0575 648.5901,-93.6341 561.2708,-78.0081"/>
<polygon fill="#191970" stroke="#191970" points="561.6467,-74.5196 551.1854,-76.1963 560.409,-81.4093 561.6467,-74.5196"/>
</g>
<!-- Node26 -->
<g id="node26" class="node">
<title>Node26</title>
<g id="a_node26"><a xlink:href="../../d7/d58/EicNamePatternHub_8h.html" target="_top" xlink:title="EicNamePatternHub.h">
<polygon fill="none" stroke="#000000" points="569.5,-57.5 569.5,-77.5 696.5,-77.5 696.5,-57.5 569.5,-57.5"/>
<text text-anchor="middle" x="633" y="-64.5" font-family="FreeSans" font-size="10.00" fill="#000000">EicNamePatternHub.h</text>
</a>
</g>
</g>
<!-- Node8&#45;&gt;Node26 -->
<g id="edge33" class="edge">
<title>Node8&#45;&gt;Node26</title>
<path fill="none" stroke="#191970" d="M805.1161,-114.4408C770.1545,-104.9058 717.4977,-90.5448 679.638,-80.2195"/>
<polygon fill="#191970" stroke="#191970" points="680.4347,-76.809 669.8661,-77.5544 678.5928,-83.5623 680.4347,-76.809"/>
</g>
<!-- Node27 -->
<g id="node27" class="node">
<title>Node27</title>
<g id="a_node27"><a xlink:href="../../d6/d8d/EicGeoMap_8h.html" target="_top" xlink:title="EicGeoMap.h">
<polygon fill="none" stroke="#000000" points="715,-57.5 715,-77.5 797,-77.5 797,-57.5 715,-57.5"/>
<text text-anchor="middle" x="756" y="-64.5" font-family="FreeSans" font-size="10.00" fill="#000000">EicGeoMap.h</text>
</a>
</g>
</g>
<!-- Node8&#45;&gt;Node27 -->
<g id="edge36" class="edge">
<title>Node8&#45;&gt;Node27</title>
<path fill="none" stroke="#191970" d="M826.6249,-114.3095C813.6617,-105.7177 794.8898,-93.2758 779.9572,-83.3786"/>
<polygon fill="#191970" stroke="#191970" points="781.511,-80.2095 771.242,-77.6022 777.6437,-86.0443 781.511,-80.2095"/>
</g>
<!-- Node19 -->
<g id="node19" class="node">
<title>Node19</title>
<polygon fill="none" stroke="#bfbfbf" points="1488.5,-.5 1488.5,-20.5 1557.5,-20.5 1557.5,-.5 1488.5,-.5"/>
<text text-anchor="middle" x="1523" y="-7.5" font-family="FreeSans" font-size="10.00" fill="#000000">TNamed.h</text>
</g>
<!-- Node18&#45;&gt;Node19 -->
<g id="edge18" class="edge">
<title>Node18&#45;&gt;Node19</title>
<path fill="none" stroke="#191970" d="M1475.3692,-57.3095C1483.6995,-49.1229 1495.5864,-37.441 1505.4011,-27.7955"/>
<polygon fill="#191970" stroke="#191970" points="1508.0415,-30.1079 1512.7205,-20.6022 1503.1349,-25.1153 1508.0415,-30.1079"/>
</g>
<!-- Node20&#45;&gt;Node12 -->
<g id="edge21" class="edge">
<title>Node20&#45;&gt;Node12</title>
<path fill="none" stroke="#191970" d="M443.6493,-57.4408C503.2189,-46.2714 598.1068,-28.48 652.3448,-18.3103"/>
<polygon fill="#191970" stroke="#191970" points="653.121,-21.7259 662.3047,-16.4429 651.8309,-14.8458 653.121,-21.7259"/>
</g>
<!-- Node20&#45;&gt;Node13 -->
<g id="edge20" class="edge">
<title>Node20&#45;&gt;Node13</title>
<path fill="none" stroke="#191970" d="M400.548,-57.3095C409.0219,-49.1229 421.1137,-37.441 431.0977,-27.7955"/>
<polygon fill="#191970" stroke="#191970" points="433.7832,-30.0676 438.5433,-20.6022 428.9195,-25.0332 433.7832,-30.0676"/>
</g>
<!-- Node21&#45;&gt;Node12 -->
<g id="edge24" class="edge">
<title>Node21&#45;&gt;Node12</title>
<path fill="none" stroke="#191970" d="M924.8411,-57.8307C871.7979,-46.955 786.4577,-29.4571 735.7427,-19.0588"/>
<polygon fill="#191970" stroke="#191970" points="736.2751,-15.5952 725.7758,-17.0152 734.869,-22.4525 736.2751,-15.5952"/>
</g>
<!-- Node21&#45;&gt;Node19 -->
<g id="edge23" class="edge">
<title>Node21&#45;&gt;Node19</title>
<path fill="none" stroke="#191970" d="M1019.0023,-58.3636C1022.0424,-57.8728 1025.0613,-57.4126 1028,-57 1193.3034,-33.7884 1391.3381,-19.11 1478.319,-13.3186"/>
<polygon fill="#191970" stroke="#191970" points="1478.618,-16.8065 1488.3662,-12.6564 1478.1576,-9.8217 1478.618,-16.8065"/>
</g>
<!-- Node22&#45;&gt;Node19 -->
<g id="edge26" class="edge">
<title>Node22&#45;&gt;Node19</title>
<path fill="none" stroke="#191970" d="M1669.5869,-57.4408C1640.1912,-48.0275 1596.1071,-33.9107 1563.9614,-23.6169"/>
<polygon fill="#191970" stroke="#191970" points="1564.989,-20.2709 1554.3979,-20.5544 1562.8541,-26.9374 1564.989,-20.2709"/>
</g>
<!-- Node23 -->
<g id="node23" class="node">
<title>Node23</title>
<polygon fill="none" stroke="#bfbfbf" points="1673.5,-.5 1673.5,-20.5 1728.5,-20.5 1728.5,-.5 1673.5,-.5"/>
<text text-anchor="middle" x="1701" y="-7.5" font-family="FreeSans" font-size="10.00" fill="#000000">fstream</text>
</g>
<!-- Node22&#45;&gt;Node23 -->
<g id="edge27" class="edge">
<title>Node22&#45;&gt;Node23</title>
<path fill="none" stroke="#191970" d="M1701,-57.3095C1701,-49.9335 1701,-39.72 1701,-30.715"/>
<polygon fill="#191970" stroke="#191970" points="1704.5001,-30.6022 1701,-20.6022 1697.5001,-30.6023 1704.5001,-30.6022"/>
</g>
<!-- Node24&#45;&gt;Node19 -->
<g id="edge29" class="edge">
<title>Node24&#45;&gt;Node19</title>
<path fill="none" stroke="#191970" d="M1570.6308,-57.3095C1562.3005,-49.1229 1550.4136,-37.441 1540.5989,-27.7955"/>
<polygon fill="#191970" stroke="#191970" points="1542.8651,-25.1153 1533.2795,-20.6022 1537.9585,-30.1079 1542.8651,-25.1153"/>
</g>
<!-- Node25&#45;&gt;Node12 -->
<g id="edge31" class="edge">
<title>Node25&#45;&gt;Node12</title>
<path fill="none" stroke="#191970" d="M540.0014,-57.4408C571.3983,-47.8706 618.745,-33.4387 652.6459,-23.1053"/>
<polygon fill="#191970" stroke="#191970" points="653.719,-26.4372 662.2639,-20.1736 651.6779,-19.7414 653.719,-26.4372"/>
</g>
<!-- Node25&#45;&gt;Node13 -->
<g id="edge32" class="edge">
<title>Node25&#45;&gt;Node13</title>
<path fill="none" stroke="#191970" d="M496.6308,-57.3095C488.3005,-49.1229 476.4136,-37.441 466.5989,-27.7955"/>
<polygon fill="#191970" stroke="#191970" points="468.8651,-25.1153 459.2795,-20.6022 463.9585,-30.1079 468.8651,-25.1153"/>
</g>
<!-- Node26&#45;&gt;Node12 -->
<g id="edge35" class="edge">
<title>Node26&#45;&gt;Node12</title>
<path fill="none" stroke="#191970" d="M643.9056,-57.3095C652.7534,-49.0419 665.4164,-37.2093 675.7968,-27.5096"/>
<polygon fill="#191970" stroke="#191970" points="678.2719,-29.987 683.1888,-20.6022 673.4926,-24.8724 678.2719,-29.987"/>
</g>
<!-- Node26&#45;&gt;Node13 -->
<g id="edge34" class="edge">
<title>Node26&#45;&gt;Node13</title>
<path fill="none" stroke="#191970" d="M600.528,-57.4408C570.1414,-48.0275 524.5714,-33.9107 491.3421,-23.6169"/>
<polygon fill="#191970" stroke="#191970" points="492.0441,-20.1703 481.4563,-20.5544 489.9727,-26.8568 492.0441,-20.1703"/>
</g>
<!-- Node27&#45;&gt;Node12 -->
<g id="edge37" class="edge">
<title>Node27&#45;&gt;Node12</title>
<path fill="none" stroke="#191970" d="M744.9156,-57.3095C735.9228,-49.0419 723.0522,-37.2093 712.5016,-27.5096"/>
<polygon fill="#191970" stroke="#191970" points="714.7189,-24.7937 704.9884,-20.6022 709.9813,-29.9469 714.7189,-24.7937"/>
</g>
<!-- Node27&#45;&gt;Node13 -->
<g id="edge38" class="edge">
<title>Node27&#45;&gt;Node13</title>
<path fill="none" stroke="#191970" d="M714.8178,-58.7564C711.8357,-58.1526 708.8727,-57.5614 706,-57 630.6452,-42.2736 542.5336,-26.6839 491.5114,-17.8162"/>
<polygon fill="#191970" stroke="#191970" points="491.9616,-14.3421 481.5105,-16.0817 490.7653,-21.2392 491.9616,-14.3421"/>
</g>
<!-- Node28&#45;&gt;Node3 -->
<g id="edge40" class="edge">
<title>Node28&#45;&gt;Node3</title>
<path fill="none" stroke="#191970" d="M168.4796,-171.3095C153.4288,-162.5556 131.5067,-149.8049 114.3416,-139.8211"/>
<polygon fill="#191970" stroke="#191970" points="115.7727,-136.6046 105.3688,-134.6022 112.2532,-142.6555 115.7727,-136.6046"/>
</g>
<!-- Node28&#45;&gt;Node8 -->
<g id="edge42" class="edge">
<title>Node28&#45;&gt;Node8</title>
<path fill="none" stroke="#191970" d="M255.5824,-175.454C384.7063,-164.2344 659.3407,-140.3713 781.3769,-129.7676"/>
<polygon fill="#191970" stroke="#191970" points="781.9916,-133.2274 791.6511,-128.8748 781.3856,-126.2537 781.9916,-133.2274"/>
</g>
<!-- Node28&#45;&gt;Node13 -->
<g id="edge41" class="edge">
<title>Node28&#45;&gt;Node13</title>
<path fill="none" stroke="#191970" d="M179.4331,-171.384C165.2843,-148.1943 135.4255,-90.6145 164,-57 179.5058,-38.7592 330.545,-21.8506 406.2271,-14.4416"/>
<polygon fill="#191970" stroke="#191970" points="406.7671,-17.9059 416.384,-13.4601 406.0937,-10.9383 406.7671,-17.9059"/>
</g>
</g>
</svg>
