<?xml version="1.0" encoding="UTF-8" standalone="no"?>
<!DOCTYPE svg PUBLIC "-//W3C//DTD SVG 1.1//EN"
 "http://www.w3.org/Graphics/SVG/1.1/DTD/svg11.dtd">
<!-- Generated by graphviz version 2.40.1 (20161225.0304)
 -->
<!-- Title: MapsGeoParData::UseTriangularAssemblies Pages: 1 -->
<svg width="465pt" height="68pt"
 viewBox="0.00 0.00 465.00 68.00" xmlns="http://www.w3.org/2000/svg" xmlns:xlink="http://www.w3.org/1999/xlink">
<g id="graph0" class="graph" transform="scale(1 1) rotate(0) translate(4 64)">
<title>MapsGeoParData::UseTriangularAssemblies</title>
<!-- Node1 -->
<g id="node1" class="node">
<title>Node1</title>
<polygon fill="#bfbfbf" stroke="#000000" points="0,-13.5 0,-45.5 180,-45.5 180,-13.5 0,-13.5"/>
<text text-anchor="start" x="8" y="-32.5" font-family="FreeSans" font-size="10.00" fill="#000000">MapsGeoParData::UseTriangular</text>
<text text-anchor="middle" x="90" y="-20.5" font-family="FreeSans" font-size="10.00" fill="#000000">Assemblies</text>
</g>
<!-- Node2 -->
<g id="node2" class="node">
<title>Node2</title>
<g id="a_node2"><a xlink:href="../../d7/d5c/geometry_2MAPS_2maps-lib_8C.html#a6af6c5961c4388d2ec3bbf1c2f73331e" target="_top" xlink:title="DefinitionParser">
<polygon fill="none" stroke="#000000" points="216,-19.5 216,-39.5 313,-39.5 313,-19.5 216,-19.5"/>
<text text-anchor="middle" x="264.5" y="-26.5" font-family="FreeSans" font-size="10.00" fill="#000000">DefinitionParser</text>
</a>
</g>
</g>
<!-- Node1&#45;&gt;Node2 -->
<g id="edge1" class="edge">
<title>Node1&#45;&gt;Node2</title>
<path fill="none" stroke="#191970" d="M190.1418,-29.5C199.0196,-29.5 207.7154,-29.5 215.8503,-29.5"/>
<polygon fill="#191970" stroke="#191970" points="190.0614,-26.0001 180.0613,-29.5 190.0613,-33.0001 190.0614,-26.0001"/>
</g>
<!-- Node3 -->
<g id="node3" class="node">
<title>Node3</title>
<g id="a_node3"><a xlink:href="../../da/d04/geometry_2MAPS_2fbst_8C.html#ae3a999f2ba24d7baedd44fc7f3406858" target="_top" xlink:title="fbst">
<polygon fill="none" stroke="#000000" points="349,-39.5 349,-59.5 385,-59.5 385,-39.5 349,-39.5"/>
<text text-anchor="middle" x="367" y="-46.5" font-family="FreeSans" font-size="10.00" fill="#000000">fbst</text>
</a>
</g>
</g>
<!-- Node2&#45;&gt;Node3 -->
<g id="edge2" class="edge">
<title>Node2&#45;&gt;Node3</title>
<path fill="none" stroke="#191970" d="M322.9635,-40.9075C332.415,-42.7517 341.5326,-44.5307 348.9955,-45.9869"/>
<polygon fill="#191970" stroke="#191970" points="323.5337,-37.4528 313.0485,-38.9729 322.1931,-44.3233 323.5337,-37.4528"/>
</g>
<!-- Node5 -->
<g id="node5" class="node">
<title>Node5</title>
<g id="a_node5"><a xlink:href="../../d7/db0/geometry_2MAPS_2sandbox_2vst_8C.html#a16d55d3488693e396250be82137f4a79" target="_top" xlink:title="vst">
<polygon fill="none" stroke="#000000" points="351,-.5 351,-20.5 383,-20.5 383,-.5 351,-.5"/>
<text text-anchor="middle" x="367" y="-7.5" font-family="FreeSans" font-size="10.00" fill="#000000">vst</text>
</a>
</g>
</g>
<!-- Node2&#45;&gt;Node5 -->
<g id="edge4" class="edge">
<title>Node2&#45;&gt;Node5</title>
<path fill="none" stroke="#191970" d="M322.9635,-18.6629C333.2366,-16.7586 343.1151,-14.9274 350.9034,-13.4838"/>
<polygon fill="#191970" stroke="#191970" points="322.243,-15.2367 313.0485,-20.5008 323.5189,-22.1195 322.243,-15.2367"/>
</g>
<!-- Node4 -->
<g id="node4" class="node">
<title>Node4</title>
<g id="a_node4"><a xlink:href="../../d4/d41/pCDR-2018_2geometry_2fbst_8C.html#ae3a999f2ba24d7baedd44fc7f3406858" target="_top" xlink:title="fbst">
<polygon fill="none" stroke="#000000" points="421,-39.5 421,-59.5 457,-59.5 457,-39.5 421,-39.5"/>
<text text-anchor="middle" x="439" y="-46.5" font-family="FreeSans" font-size="10.00" fill="#000000">fbst</text>
</a>
</g>
</g>
<!-- Node3&#45;&gt;Node4 -->
<g id="edge3" class="edge">
<title>Node3&#45;&gt;Node4</title>
<path fill="none" stroke="#191970" d="M395.4274,-49.5C403.8916,-49.5 412.9407,-49.5 420.5867,-49.5"/>
<polygon fill="#191970" stroke="#191970" points="395.1687,-46.0001 385.1686,-49.5 395.1686,-53.0001 395.1687,-46.0001"/>
</g>
<!-- Node6 -->
<g id="node6" class="node">
<title>Node6</title>
<g id="a_node6"><a xlink:href="../../d4/dfd/geometry_2MAPS_2vst_8C.html#a16d55d3488693e396250be82137f4a79" target="_top" xlink:title="vst">
<polygon fill="none" stroke="#000000" points="423,-.5 423,-20.5 455,-20.5 455,-.5 423,-.5"/>
<text text-anchor="middle" x="439" y="-7.5" font-family="FreeSans" font-size="10.00" fill="#000000">vst</text>
</a>
</g>
</g>
<!-- Node5&#45;&gt;Node6 -->
<g id="edge5" class="edge">
<title>Node5&#45;&gt;Node6</title>
<path fill="none" stroke="#191970" d="M393.4336,-10.5C403.2476,-10.5 414.0843,-10.5 422.7267,-10.5"/>
<polygon fill="#191970" stroke="#191970" points="393.3379,-7.0001 383.3379,-10.5 393.3379,-14.0001 393.3379,-7.0001"/>
</g>
</g>
</svg>
