<?xml version="1.0" encoding="UTF-8" standalone="no"?>
<!DOCTYPE svg PUBLIC "-//W3C//DTD SVG 1.1//EN"
 "http://www.w3.org/Graphics/SVG/1.1/DTD/svg11.dtd">
<!-- Generated by graphviz version 2.40.1 (20161225.0304)
 -->
<!-- Title: fun4all_coresoftware/blob/master/simulation/g4simulation/g4detectors/PHG4OuterHcalSubsystem.h Pages: 1 -->
<svg width="1086pt" height="320pt"
 viewBox="0.00 0.00 1086.00 320.00" xmlns="http://www.w3.org/2000/svg" xmlns:xlink="http://www.w3.org/1999/xlink">
<g id="graph0" class="graph" transform="scale(1 1) rotate(0) translate(4 316)">
<title>fun4all_coresoftware/blob/master/simulation/g4simulation/g4detectors/PHG4OuterHcalSubsystem.h</title>
<!-- Node1 -->
<g id="node1" class="node">
<title>Node1</title>
<polygon fill="#bfbfbf" stroke="#000000" points="98,-255.5 98,-311.5 263,-311.5 263,-255.5 98,-255.5"/>
<text text-anchor="start" x="106" y="-298.5" font-family="FreeSans" font-size="10.00" fill="#000000">fun4all_coresoftware</text>
<text text-anchor="start" x="106" y="-286.5" font-family="FreeSans" font-size="10.00" fill="#000000">/blob/master/simulation</text>
<text text-anchor="start" x="106" y="-274.5" font-family="FreeSans" font-size="10.00" fill="#000000">/g4simulation/g4detectors</text>
<text text-anchor="middle" x="180.5" y="-262.5" font-family="FreeSans" font-size="10.00" fill="#000000">/PHG4OuterHcalSubsystem.h</text>
</g>
<!-- Node2 -->
<g id="node2" class="node">
<title>Node2</title>
<g id="a_node2"><a xlink:href="../../d8/d21/PHG4OuterHcalSubsystem_8cc.html" target="_top" xlink:title="fun4all_coresoftware\l/blob/master/simulation\l/g4simulation/g4detectors\l/PHG4OuterHcalSubsystem.cc">
<polygon fill="none" stroke="#000000" points="2,-162.5 2,-218.5 171,-218.5 171,-162.5 2,-162.5"/>
<text text-anchor="start" x="10" y="-205.5" font-family="FreeSans" font-size="10.00" fill="#000000">fun4all_coresoftware</text>
<text text-anchor="start" x="10" y="-193.5" font-family="FreeSans" font-size="10.00" fill="#000000">/blob/master/simulation</text>
<text text-anchor="start" x="10" y="-181.5" font-family="FreeSans" font-size="10.00" fill="#000000">/g4simulation/g4detectors</text>
<text text-anchor="middle" x="86.5" y="-169.5" font-family="FreeSans" font-size="10.00" fill="#000000">/PHG4OuterHcalSubsystem.cc</text>
</a>
</g>
</g>
<!-- Node1&#45;&gt;Node2 -->
<g id="edge1" class="edge">
<title>Node1&#45;&gt;Node2</title>
<path fill="none" stroke="#191970" d="M144.6654,-248.0467C134.8012,-238.2874 124.2405,-227.839 114.8615,-218.5597"/>
<polygon fill="#191970" stroke="#191970" points="142.4714,-250.7995 152.0418,-255.3446 147.3946,-245.8233 142.4714,-250.7995"/>
</g>
<!-- Node3 -->
<g id="node3" class="node">
<title>Node3</title>
<g id="a_node3"><a xlink:href="../../d8/d93/G4__HcalOut__ref_8C.html" target="_top" xlink:title="fun4all_macros/blob\l/master/macros/g4simulations\l/G4_HcalOut_ref.C">
<polygon fill="none" stroke="#000000" points="189,-168.5 189,-212.5 360,-212.5 360,-168.5 189,-168.5"/>
<text text-anchor="start" x="197" y="-199.5" font-family="FreeSans" font-size="10.00" fill="#000000">fun4all_macros/blob</text>
<text text-anchor="start" x="197" y="-187.5" font-family="FreeSans" font-size="10.00" fill="#000000">/master/macros/g4simulations</text>
<text text-anchor="middle" x="274.5" y="-175.5" font-family="FreeSans" font-size="10.00" fill="#000000">/G4_HcalOut_ref.C</text>
</a>
</g>
</g>
<!-- Node1&#45;&gt;Node3 -->
<g id="edge2" class="edge">
<title>Node1&#45;&gt;Node3</title>
<path fill="none" stroke="#191970" d="M216.2867,-248.0941C228.3218,-236.1869 241.3988,-223.2491 252.1041,-212.6577"/>
<polygon fill="#191970" stroke="#191970" points="213.6054,-245.8233 208.9582,-255.3446 218.5286,-250.7995 213.6054,-245.8233"/>
</g>
<!-- Node4 -->
<g id="node4" class="node">
<title>Node4</title>
<g id="a_node4"><a xlink:href="../../d6/d6e/G4Setup__EICDetector_8C.html" target="_top" xlink:title="fun4all_macros/blob\l/master/macros/g4simulations\l/G4Setup_EICDetector.C">
<polygon fill="none" stroke="#000000" points="0,-81.5 0,-125.5 171,-125.5 171,-81.5 0,-81.5"/>
<text text-anchor="start" x="8" y="-112.5" font-family="FreeSans" font-size="10.00" fill="#000000">fun4all_macros/blob</text>
<text text-anchor="start" x="8" y="-100.5" font-family="FreeSans" font-size="10.00" fill="#000000">/master/macros/g4simulations</text>
<text text-anchor="middle" x="85.5" y="-88.5" font-family="FreeSans" font-size="10.00" fill="#000000">/G4Setup_EICDetector.C</text>
</a>
</g>
</g>
<!-- Node3&#45;&gt;Node4 -->
<g id="edge3" class="edge">
<title>Node3&#45;&gt;Node4</title>
<path fill="none" stroke="#191970" d="M217.0905,-164.0734C190.3996,-151.7871 159.0164,-137.3409 133.5937,-125.6384"/>
<polygon fill="#191970" stroke="#191970" points="215.771,-167.319 226.3183,-168.3211 218.698,-160.9603 215.771,-167.319"/>
</g>
<!-- Node6 -->
<g id="node6" class="node">
<title>Node6</title>
<g id="a_node6"><a xlink:href="../../d6/d41/G4Setup__fsPHENIX_8C.html" target="_top" xlink:title="fun4all_macros/blob\l/master/macros/g4simulations\l/G4Setup_fsPHENIX.C">
<polygon fill="none" stroke="#000000" points="189,-81.5 189,-125.5 360,-125.5 360,-81.5 189,-81.5"/>
<text text-anchor="start" x="197" y="-112.5" font-family="FreeSans" font-size="10.00" fill="#000000">fun4all_macros/blob</text>
<text text-anchor="start" x="197" y="-100.5" font-family="FreeSans" font-size="10.00" fill="#000000">/master/macros/g4simulations</text>
<text text-anchor="middle" x="274.5" y="-88.5" font-family="FreeSans" font-size="10.00" fill="#000000">/G4Setup_fsPHENIX.C</text>
</a>
</g>
</g>
<!-- Node3&#45;&gt;Node6 -->
<g id="edge5" class="edge">
<title>Node3&#45;&gt;Node6</title>
<path fill="none" stroke="#191970" d="M274.5,-158.0893C274.5,-147.2369 274.5,-135.3979 274.5,-125.5276"/>
<polygon fill="#191970" stroke="#191970" points="271.0001,-158.0953 274.5,-168.0953 278.0001,-158.0954 271.0001,-158.0953"/>
</g>
<!-- Node8 -->
<g id="node8" class="node">
<title>Node8</title>
<g id="a_node8"><a xlink:href="../../d0/daa/G4Setup__sPHENIX_8C.html" target="_top" xlink:title="fun4all_macros/blob\l/master/macros/g4simulations\l/G4Setup_sPHENIX.C">
<polygon fill="none" stroke="#000000" points="567,-81.5 567,-125.5 738,-125.5 738,-81.5 567,-81.5"/>
<text text-anchor="start" x="575" y="-112.5" font-family="FreeSans" font-size="10.00" fill="#000000">fun4all_macros/blob</text>
<text text-anchor="start" x="575" y="-100.5" font-family="FreeSans" font-size="10.00" fill="#000000">/master/macros/g4simulations</text>
<text text-anchor="middle" x="652.5" y="-88.5" font-family="FreeSans" font-size="10.00" fill="#000000">/G4Setup_sPHENIX.C</text>
</a>
</g>
</g>
<!-- Node3&#45;&gt;Node8 -->
<g id="edge7" class="edge">
<title>Node3&#45;&gt;Node8</title>
<path fill="none" stroke="#191970" d="M370.2143,-168.4705C430.718,-154.5451 508.2451,-136.7015 566.7389,-123.2387"/>
<polygon fill="#191970" stroke="#191970" points="369.2342,-165.1045 360.2741,-170.7584 370.8043,-171.9262 369.2342,-165.1045"/>
</g>
<!-- Node5 -->
<g id="node5" class="node">
<title>Node5</title>
<g id="a_node5"><a xlink:href="../../da/d02/Fun4All__G4__EICDetector_8C.html" target="_top" xlink:title="fun4all_macros/blob\l/master/macros/g4simulations\l/Fun4All_G4_EICDetector.C">
<polygon fill="none" stroke="#000000" points="0,-.5 0,-44.5 171,-44.5 171,-.5 0,-.5"/>
<text text-anchor="start" x="8" y="-31.5" font-family="FreeSans" font-size="10.00" fill="#000000">fun4all_macros/blob</text>
<text text-anchor="start" x="8" y="-19.5" font-family="FreeSans" font-size="10.00" fill="#000000">/master/macros/g4simulations</text>
<text text-anchor="middle" x="85.5" y="-7.5" font-family="FreeSans" font-size="10.00" fill="#000000">/Fun4All_G4_EICDetector.C</text>
</a>
</g>
</g>
<!-- Node4&#45;&gt;Node5 -->
<g id="edge4" class="edge">
<title>Node4&#45;&gt;Node5</title>
<path fill="none" stroke="#191970" d="M85.5,-71.2457C85.5,-62.3118 85.5,-52.8188 85.5,-44.6068"/>
<polygon fill="#191970" stroke="#191970" points="82.0001,-71.3664 85.5,-81.3664 89.0001,-71.3664 82.0001,-71.3664"/>
</g>
<!-- Node7 -->
<g id="node7" class="node">
<title>Node7</title>
<g id="a_node7"><a xlink:href="../../d7/d9e/Fun4All__G4__fsPHENIX_8C.html" target="_top" xlink:title="fun4all_macros/blob\l/master/macros/g4simulations\l/Fun4All_G4_fsPHENIX.C">
<polygon fill="none" stroke="#000000" points="189,-.5 189,-44.5 360,-44.5 360,-.5 189,-.5"/>
<text text-anchor="start" x="197" y="-31.5" font-family="FreeSans" font-size="10.00" fill="#000000">fun4all_macros/blob</text>
<text text-anchor="start" x="197" y="-19.5" font-family="FreeSans" font-size="10.00" fill="#000000">/master/macros/g4simulations</text>
<text text-anchor="middle" x="274.5" y="-7.5" font-family="FreeSans" font-size="10.00" fill="#000000">/Fun4All_G4_fsPHENIX.C</text>
</a>
</g>
</g>
<!-- Node6&#45;&gt;Node7 -->
<g id="edge6" class="edge">
<title>Node6&#45;&gt;Node7</title>
<path fill="none" stroke="#191970" d="M274.5,-71.2457C274.5,-62.3118 274.5,-52.8188 274.5,-44.6068"/>
<polygon fill="#191970" stroke="#191970" points="271.0001,-71.3664 274.5,-81.3664 278.0001,-71.3664 271.0001,-71.3664"/>
</g>
<!-- Node9 -->
<g id="node9" class="node">
<title>Node9</title>
<g id="a_node9"><a xlink:href="../../d0/d13/Fun4All__G4__sPHENIX_8C.html" target="_top" xlink:title="fun4all_macros/blob\l/master/macros/g4simulations\l/Fun4All_G4_sPHENIX.C">
<polygon fill="none" stroke="#000000" points="378,-.5 378,-44.5 549,-44.5 549,-.5 378,-.5"/>
<text text-anchor="start" x="386" y="-31.5" font-family="FreeSans" font-size="10.00" fill="#000000">fun4all_macros/blob</text>
<text text-anchor="start" x="386" y="-19.5" font-family="FreeSans" font-size="10.00" fill="#000000">/master/macros/g4simulations</text>
<text text-anchor="middle" x="463.5" y="-7.5" font-family="FreeSans" font-size="10.00" fill="#000000">/Fun4All_G4_sPHENIX.C</text>
</a>
</g>
</g>
<!-- Node8&#45;&gt;Node9 -->
<g id="edge8" class="edge">
<title>Node8&#45;&gt;Node9</title>
<path fill="none" stroke="#191970" d="M591.5863,-77.3941C566.9102,-66.8187 538.7218,-54.7379 515.0826,-44.6068"/>
<polygon fill="#191970" stroke="#191970" points="590.2847,-80.6442 600.8549,-81.3664 593.0422,-74.2101 590.2847,-80.6442"/>
</g>
<!-- Node10 -->
<g id="node10" class="node">
<title>Node10</title>
<g id="a_node10"><a xlink:href="../../de/da9/ReadClustersRunTracking_8C.html" target="_top" xlink:title="fun4all_macros/blob\l/master/macros/g4simulations\l/ReadClustersRunTracking.C">
<polygon fill="none" stroke="#000000" points="567,-.5 567,-44.5 738,-44.5 738,-.5 567,-.5"/>
<text text-anchor="start" x="575" y="-31.5" font-family="FreeSans" font-size="10.00" fill="#000000">fun4all_macros/blob</text>
<text text-anchor="start" x="575" y="-19.5" font-family="FreeSans" font-size="10.00" fill="#000000">/master/macros/g4simulations</text>
<text text-anchor="middle" x="652.5" y="-7.5" font-family="FreeSans" font-size="10.00" fill="#000000">/ReadClustersRunTracking.C</text>
</a>
</g>
</g>
<!-- Node8&#45;&gt;Node10 -->
<g id="edge9" class="edge">
<title>Node8&#45;&gt;Node10</title>
<path fill="none" stroke="#191970" d="M652.5,-71.2457C652.5,-62.3118 652.5,-52.8188 652.5,-44.6068"/>
<polygon fill="#191970" stroke="#191970" points="649.0001,-71.3664 652.5,-81.3664 656.0001,-71.3664 649.0001,-71.3664"/>
</g>
<!-- Node11 -->
<g id="node11" class="node">
<title>Node11</title>
<g id="a_node11"><a xlink:href="../../db/dc0/Fun4All__AnaTutorial_8C.html" target="_top" xlink:title="fun4all_tutorials/blob\l/master/AnaTutorial/macro\l/Fun4All_AnaTutorial.C">
<polygon fill="none" stroke="#000000" points="756,-.5 756,-44.5 907,-44.5 907,-.5 756,-.5"/>
<text text-anchor="start" x="764" y="-31.5" font-family="FreeSans" font-size="10.00" fill="#000000">fun4all_tutorials/blob</text>
<text text-anchor="start" x="764" y="-19.5" font-family="FreeSans" font-size="10.00" fill="#000000">/master/AnaTutorial/macro</text>
<text text-anchor="middle" x="831.5" y="-7.5" font-family="FreeSans" font-size="10.00" fill="#000000">/Fun4All_AnaTutorial.C</text>
</a>
</g>
</g>
<!-- Node8&#45;&gt;Node11 -->
<g id="edge10" class="edge">
<title>Node8&#45;&gt;Node11</title>
<path fill="none" stroke="#191970" d="M710.8092,-77.1143C734.0313,-66.6059 760.4555,-54.6486 782.6466,-44.6068"/>
<polygon fill="#191970" stroke="#191970" points="709.0802,-74.0549 701.4125,-81.3664 711.9661,-80.4324 709.0802,-74.0549"/>
</g>
<!-- Node12 -->
<g id="node12" class="node">
<title>Node12</title>
<g id="a_node12"><a xlink:href="../../dd/d28/Fun4All__AnaTutorial__Jets_8C.html" target="_top" xlink:title="fun4all_tutorials/blob\l/master/AnaTutorial/macro\l/Fun4All_AnaTutorial_Jets.C">
<polygon fill="none" stroke="#000000" points="925,-.5 925,-44.5 1078,-44.5 1078,-.5 925,-.5"/>
<text text-anchor="start" x="933" y="-31.5" font-family="FreeSans" font-size="10.00" fill="#000000">fun4all_tutorials/blob</text>
<text text-anchor="start" x="933" y="-19.5" font-family="FreeSans" font-size="10.00" fill="#000000">/master/AnaTutorial/macro</text>
<text text-anchor="middle" x="1001.5" y="-7.5" font-family="FreeSans" font-size="10.00" fill="#000000">/Fun4All_AnaTutorial_Jets.C</text>
</a>
</g>
</g>
<!-- Node8&#45;&gt;Node12 -->
<g id="edge11" class="edge">
<title>Node8&#45;&gt;Node12</title>
<path fill="none" stroke="#191970" d="M747.8948,-83.3419C798.1686,-72.471 860.7972,-58.5381 916.5,-45 919.17,-44.3511 921.8848,-43.6822 924.6248,-42.9993"/>
<polygon fill="#191970" stroke="#191970" points="747.0475,-79.9441 738.0105,-85.4742 748.5237,-86.7867 747.0475,-79.9441"/>
</g>
</g>
</svg>
