<?xml version="1.0" encoding="UTF-8" standalone="no"?>
<!DOCTYPE svg PUBLIC "-//W3C//DTD SVG 1.1//EN"
 "http://www.w3.org/Graphics/SVG/1.1/DTD/svg11.dtd">
<!-- Generated by graphviz version 2.40.1 (20161225.0304)
 -->
<!-- Title: PHG4GDMLWrite::UserinfoWrite Pages: 1 -->
<svg width="1249pt" height="236pt"
 viewBox="0.00 0.00 1249.00 236.00" xmlns="http://www.w3.org/2000/svg" xmlns:xlink="http://www.w3.org/1999/xlink">
<g id="graph0" class="graph" transform="scale(1 1) rotate(0) translate(4 232)">
<title>PHG4GDMLWrite::UserinfoWrite</title>
<!-- Node1 -->
<g id="node1" class="node">
<title>Node1</title>
<polygon fill="#bfbfbf" stroke="#000000" points="0,-61.5 0,-81.5 175,-81.5 175,-61.5 0,-61.5"/>
<text text-anchor="middle" x="87.5" y="-68.5" font-family="FreeSans" font-size="10.00" fill="#000000">PHG4GDMLWrite::UserinfoWrite</text>
</g>
<!-- Node2 -->
<g id="node2" class="node">
<title>Node2</title>
<g id="a_node2"><a xlink:href="../../dd/db5/classPHG4GDMLWrite.html#af4241e53bb71408c9bf11117053f9810" target="_top" xlink:title="PHG4GDMLWrite::Write">
<polygon fill="none" stroke="#000000" points="211,-61.5 211,-81.5 344,-81.5 344,-61.5 211,-61.5"/>
<text text-anchor="middle" x="277.5" y="-68.5" font-family="FreeSans" font-size="10.00" fill="#000000">PHG4GDMLWrite::Write</text>
</a>
</g>
</g>
<!-- Node1&#45;&gt;Node2 -->
<g id="edge1" class="edge">
<title>Node1&#45;&gt;Node2</title>
<path fill="none" stroke="#191970" d="M185.3804,-71.5C193.9951,-71.5 202.5782,-71.5 210.846,-71.5"/>
<polygon fill="#191970" stroke="#191970" points="185.2699,-68.0001 175.2699,-71.5 185.2699,-75.0001 185.2699,-68.0001"/>
</g>
<!-- Node3 -->
<g id="node3" class="node">
<title>Node3</title>
<g id="a_node3"><a xlink:href="../../d9/df8/classPHG4GDMLUtility.html#adb03ec38807279cb5abaf38987c5a73f" target="_top" xlink:title="save the current Geant4 geometry to GDML file. Reading PHG4GDMLConfig from topNode">
<polygon fill="none" stroke="#000000" points="380,-84.5 380,-104.5 555,-104.5 555,-84.5 380,-84.5"/>
<text text-anchor="middle" x="467.5" y="-91.5" font-family="FreeSans" font-size="10.00" fill="#000000">PHG4GDMLUtility::Dump_GDML</text>
</a>
</g>
</g>
<!-- Node2&#45;&gt;Node3 -->
<g id="edge2" class="edge">
<title>Node2&#45;&gt;Node3</title>
<path fill="none" stroke="#191970" d="M354.4463,-80.8146C364.3728,-82.0162 374.5724,-83.2509 384.5897,-84.4635"/>
<polygon fill="#191970" stroke="#191970" points="354.5679,-77.3038 344.2197,-79.5766 353.7266,-84.2531 354.5679,-77.3038"/>
</g>
<!-- Node16 -->
<g id="node16" class="node">
<title>Node16</title>
<g id="a_node16"><a xlink:href="../../d2/d72/classPHG4GDMLWriteStructure.html#a957c6f2d283732660e3eb9c41b982048" target="_top" xlink:title="PHG4GDMLWriteStructure\l::TraverseVolumeTree">
<polygon fill="none" stroke="#000000" points="394.5,-33.5 394.5,-65.5 540.5,-65.5 540.5,-33.5 394.5,-33.5"/>
<text text-anchor="start" x="402.5" y="-52.5" font-family="FreeSans" font-size="10.00" fill="#000000">PHG4GDMLWriteStructure</text>
<text text-anchor="middle" x="467.5" y="-40.5" font-family="FreeSans" font-size="10.00" fill="#000000">::TraverseVolumeTree</text>
</a>
</g>
</g>
<!-- Node2&#45;&gt;Node16 -->
<g id="edge15" class="edge">
<title>Node2&#45;&gt;Node16</title>
<path fill="none" stroke="#191970" d="M354.2562,-62.6124C367.5303,-61.0754 381.2981,-59.4813 394.4699,-57.9561"/>
<polygon fill="#191970" stroke="#191970" points="353.7508,-59.1475 344.2197,-63.7746 354.556,-66.101 353.7508,-59.1475"/>
</g>
<!-- Node4 -->
<g id="node4" class="node">
<title>Node4</title>
<g id="a_node4"><a xlink:href="../../d0/d78/classPHG4Reco.html#a490f5037508d384c5b60855ef0f7e227" target="_top" xlink:title="PHG4Reco::Dump_GDML">
<polygon fill="none" stroke="#000000" points="591,-84.5 591,-104.5 732,-104.5 732,-84.5 591,-84.5"/>
<text text-anchor="middle" x="661.5" y="-91.5" font-family="FreeSans" font-size="10.00" fill="#000000">PHG4Reco::Dump_GDML</text>
</a>
</g>
</g>
<!-- Node3&#45;&gt;Node4 -->
<g id="edge3" class="edge">
<title>Node3&#45;&gt;Node4</title>
<path fill="none" stroke="#191970" d="M565.2462,-94.5C573.8703,-94.5 582.4865,-94.5 590.8221,-94.5"/>
<polygon fill="#191970" stroke="#191970" points="565.1351,-91.0001 555.1351,-94.5 565.135,-98.0001 565.1351,-91.0001"/>
</g>
<!-- Node5 -->
<g id="node5" class="node">
<title>Node5</title>
<g id="a_node5"><a xlink:href="../../d0/d78/classPHG4Reco.html#a9d8228ce8682c19cd6be2f6b44ec847b" target="_top" xlink:title="PHG4Reco::InitRun">
<polygon fill="none" stroke="#000000" points="768,-84.5 768,-104.5 878,-104.5 878,-84.5 768,-84.5"/>
<text text-anchor="middle" x="823" y="-91.5" font-family="FreeSans" font-size="10.00" fill="#000000">PHG4Reco::InitRun</text>
</a>
</g>
</g>
<!-- Node4&#45;&gt;Node5 -->
<g id="edge4" class="edge">
<title>Node4&#45;&gt;Node5</title>
<path fill="none" stroke="#191970" d="M742.3931,-94.5C750.9791,-94.5 759.5628,-94.5 767.7562,-94.5"/>
<polygon fill="#191970" stroke="#191970" points="742.3363,-91.0001 732.3363,-94.5 742.3362,-98.0001 742.3363,-91.0001"/>
</g>
<!-- Node6 -->
<g id="node6" class="node">
<title>Node6</title>
<g id="a_node6"><a xlink:href="../../d5/d57/fun4all__eic__tutorials_2blob_2master_2MagneticField_2DisplayOn_8C.html#a36f5cc4ebb7cd23dac7e492d5c38fbc0" target="_top" xlink:title="QTGui">
<polygon fill="none" stroke="#000000" points="966.5,-168.5 966.5,-188.5 1013.5,-188.5 1013.5,-168.5 966.5,-168.5"/>
<text text-anchor="middle" x="990" y="-175.5" font-family="FreeSans" font-size="10.00" fill="#000000">QTGui</text>
</a>
</g>
</g>
<!-- Node5&#45;&gt;Node6 -->
<g id="edge5" class="edge">
<title>Node5&#45;&gt;Node6</title>
<path fill="none" stroke="#191970" d="M841.9584,-111.3133C859.4995,-126.0359 886.8858,-146.9789 914,-159.5 930.6692,-167.1976 950.8925,-172.0604 966.286,-174.9376"/>
<polygon fill="#191970" stroke="#191970" points="844.0532,-108.4991 834.1824,-104.6496 839.4982,-113.8144 844.0532,-108.4991"/>
</g>
<!-- Node7 -->
<g id="node7" class="node">
<title>Node7</title>
<g id="a_node7"><a xlink:href="../../d5/d57/fun4all__eic__tutorials_2blob_2master_2MagneticField_2DisplayOn_8C.html#a8ac4d6fb78f920957b354f88d6195f54" target="_top" xlink:title="DisplayOn">
<polygon fill="none" stroke="#000000" points="956,-129.5 956,-149.5 1024,-149.5 1024,-129.5 956,-129.5"/>
<text text-anchor="middle" x="990" y="-136.5" font-family="FreeSans" font-size="10.00" fill="#000000">DisplayOn</text>
</a>
</g>
</g>
<!-- Node5&#45;&gt;Node7 -->
<g id="edge6" class="edge">
<title>Node5&#45;&gt;Node7</title>
<path fill="none" stroke="#191970" d="M867.0336,-107.4008C881.9193,-111.6767 898.6541,-116.3907 914,-120.5 927.6632,-124.1587 942.768,-127.9804 955.8881,-131.2289"/>
<polygon fill="#191970" stroke="#191970" points="867.6419,-103.9336 857.0635,-104.5235 865.7008,-110.6591 867.6419,-103.9336"/>
</g>
<!-- Node13 -->
<g id="node13" class="node">
<title>Node13</title>
<g id="a_node13"><a xlink:href="../../d5/df2/Fun4All__EIC__Generator__Display_8C.html#a276181099936efe81415286b29f36e51" target="_top" xlink:title="Fun4All_EIC_Generator\l_Display">
<polygon fill="none" stroke="#000000" points="924,-78.5 924,-110.5 1056,-110.5 1056,-78.5 924,-78.5"/>
<text text-anchor="start" x="932" y="-97.5" font-family="FreeSans" font-size="10.00" fill="#000000">Fun4All_EIC_Generator</text>
<text text-anchor="middle" x="990" y="-85.5" font-family="FreeSans" font-size="10.00" fill="#000000">_Display</text>
</a>
</g>
</g>
<!-- Node5&#45;&gt;Node13 -->
<g id="edge12" class="edge">
<title>Node5&#45;&gt;Node13</title>
<path fill="none" stroke="#191970" d="M888.2677,-94.5C899.9618,-94.5 912.1574,-94.5 923.8754,-94.5"/>
<polygon fill="#191970" stroke="#191970" points="888.1449,-91.0001 878.1449,-94.5 888.1448,-98.0001 888.1449,-91.0001"/>
</g>
<!-- Node14 -->
<g id="node14" class="node">
<title>Node14</title>
<g id="a_node14"><a xlink:href="../../d4/dfa/Fun4All__Generator__Display_8C.html#af87924a94b22e18901f0d64805565f09" target="_top" xlink:title="Fun4All_Generator_Display">
<polygon fill="none" stroke="#000000" points="914,-39.5 914,-59.5 1066,-59.5 1066,-39.5 914,-39.5"/>
<text text-anchor="middle" x="990" y="-46.5" font-family="FreeSans" font-size="10.00" fill="#000000">Fun4All_Generator_Display</text>
</a>
</g>
</g>
<!-- Node5&#45;&gt;Node14 -->
<g id="edge13" class="edge">
<title>Node5&#45;&gt;Node14</title>
<path fill="none" stroke="#191970" d="M868.9759,-81.7655C883.382,-77.8032 899.3451,-73.4412 914,-69.5 926.1215,-66.2401 939.3461,-62.7403 951.3154,-59.594"/>
<polygon fill="#191970" stroke="#191970" points="867.9978,-78.4045 859.2864,-84.4348 869.8569,-85.1532 867.9978,-78.4045"/>
</g>
<!-- Node15 -->
<g id="node15" class="node">
<title>Node15</title>
<g id="a_node15"><a xlink:href="../../d9/d1d/matscan_8C.html#a98ccbc6135fead542f3c4d1dd6882d63" target="_top" xlink:title="matscan">
<polygon fill="none" stroke="#000000" points="960.5,-.5 960.5,-20.5 1019.5,-20.5 1019.5,-.5 960.5,-.5"/>
<text text-anchor="middle" x="990" y="-7.5" font-family="FreeSans" font-size="10.00" fill="#000000">matscan</text>
</a>
</g>
</g>
<!-- Node5&#45;&gt;Node15 -->
<g id="edge14" class="edge">
<title>Node5&#45;&gt;Node15</title>
<path fill="none" stroke="#191970" d="M841.9584,-77.6867C859.4995,-62.9641 886.8858,-42.0211 914,-29.5 928.5701,-22.7717 945.8556,-18.2092 960.2576,-15.2455"/>
<polygon fill="#191970" stroke="#191970" points="839.4982,-75.1856 834.1824,-84.3504 844.0532,-80.5009 839.4982,-75.1856"/>
</g>
<!-- Node8 -->
<g id="node8" class="node">
<title>Node8</title>
<g id="a_node8"><a xlink:href="../../db/dc0/Fun4All__AnaTutorial_8C.html#a8c484ea6d7477278e981ef056b17eac9" target="_top" xlink:title="Fun4All_AnaTutorial">
<polygon fill="none" stroke="#000000" points="1114,-207.5 1114,-227.5 1229,-227.5 1229,-207.5 1114,-207.5"/>
<text text-anchor="middle" x="1171.5" y="-214.5" font-family="FreeSans" font-size="10.00" fill="#000000">Fun4All_AnaTutorial</text>
</a>
</g>
</g>
<!-- Node7&#45;&gt;Node8 -->
<g id="edge7" class="edge">
<title>Node7&#45;&gt;Node8</title>
<path fill="none" stroke="#191970" d="M1034.0412,-146.5949C1044.9799,-149.5422 1056.3315,-153.6867 1066,-159.5 1086.2162,-171.6553 1081.842,-186.2484 1102,-198.5 1107.986,-202.1382 1114.6788,-205.0938 1121.4828,-207.4914"/>
<polygon fill="#191970" stroke="#191970" points="1034.7138,-143.1568 1024.1716,-144.2113 1033.0705,-149.9612 1034.7138,-143.1568"/>
</g>
<!-- Node9 -->
<g id="node9" class="node">
<title>Node9</title>
<g id="a_node9"><a xlink:href="../../dd/d28/Fun4All__AnaTutorial__Jets_8C.html#a55eaaeb770a3177f917012de87877d28" target="_top" xlink:title="Fun4All_AnaTutorial_Jets">
<polygon fill="none" stroke="#000000" points="1102,-168.5 1102,-188.5 1241,-188.5 1241,-168.5 1102,-168.5"/>
<text text-anchor="middle" x="1171.5" y="-175.5" font-family="FreeSans" font-size="10.00" fill="#000000">Fun4All_AnaTutorial_Jets</text>
</a>
</g>
</g>
<!-- Node7&#45;&gt;Node9 -->
<g id="edge8" class="edge">
<title>Node7&#45;&gt;Node9</title>
<path fill="none" stroke="#191970" d="M1034.2495,-149.0082C1061.7069,-154.9081 1096.9461,-162.4801 1124.8421,-168.4743"/>
<polygon fill="#191970" stroke="#191970" points="1034.6509,-145.5146 1024.1388,-146.8356 1033.1803,-152.3584 1034.6509,-145.5146"/>
</g>
<!-- Node10 -->
<g id="node10" class="node">
<title>Node10</title>
<g id="a_node10"><a xlink:href="../../d7/d9e/Fun4All__G4__fsPHENIX_8C.html#a72c444217210a14ab1b4e66d9818b1ff" target="_top" xlink:title="Fun4All_G4_fsPHENIX">
<polygon fill="none" stroke="#000000" points="1109.5,-129.5 1109.5,-149.5 1233.5,-149.5 1233.5,-129.5 1109.5,-129.5"/>
<text text-anchor="middle" x="1171.5" y="-136.5" font-family="FreeSans" font-size="10.00" fill="#000000">Fun4All_G4_fsPHENIX</text>
</a>
</g>
</g>
<!-- Node7&#45;&gt;Node10 -->
<g id="edge9" class="edge">
<title>Node7&#45;&gt;Node10</title>
<path fill="none" stroke="#191970" d="M1034.4094,-139.5C1056.9196,-139.5 1084.6288,-139.5 1109.2304,-139.5"/>
<polygon fill="#191970" stroke="#191970" points="1034.1388,-136.0001 1024.1388,-139.5 1034.1387,-143.0001 1034.1388,-136.0001"/>
</g>
<!-- Node11 -->
<g id="node11" class="node">
<title>Node11</title>
<g id="a_node11"><a xlink:href="../../d0/d87/Fun4All__G4__JLeic_8C.html#a66e8fc0b01ee0a8e805c7b99c4698974" target="_top" xlink:title="Fun4All_G4_JLeic">
<polygon fill="none" stroke="#000000" points="1121,-90.5 1121,-110.5 1222,-110.5 1222,-90.5 1121,-90.5"/>
<text text-anchor="middle" x="1171.5" y="-97.5" font-family="FreeSans" font-size="10.00" fill="#000000">Fun4All_G4_JLeic</text>
</a>
</g>
</g>
<!-- Node7&#45;&gt;Node11 -->
<g id="edge10" class="edge">
<title>Node7&#45;&gt;Node11</title>
<path fill="none" stroke="#191970" d="M1034.2495,-129.9918C1061.7069,-124.0919 1096.9461,-116.5199 1124.8421,-110.5257"/>
<polygon fill="#191970" stroke="#191970" points="1033.1803,-126.6416 1024.1388,-132.1644 1034.6509,-133.4854 1033.1803,-126.6416"/>
</g>
<!-- Node12 -->
<g id="node12" class="node">
<title>Node12</title>
<g id="a_node12"><a xlink:href="../../d0/d13/Fun4All__G4__sPHENIX_8C.html#a536fa7366e3aeaf273cca94ced704c46" target="_top" xlink:title="Fun4All_G4_sPHENIX">
<polygon fill="none" stroke="#000000" points="1111,-51.5 1111,-71.5 1232,-71.5 1232,-51.5 1111,-51.5"/>
<text text-anchor="middle" x="1171.5" y="-58.5" font-family="FreeSans" font-size="10.00" fill="#000000">Fun4All_G4_sPHENIX</text>
</a>
</g>
</g>
<!-- Node7&#45;&gt;Node12 -->
<g id="edge11" class="edge">
<title>Node7&#45;&gt;Node12</title>
<path fill="none" stroke="#191970" d="M1034.0343,-133.0523C1044.9731,-130.2479 1056.3265,-126.2354 1066,-120.5 1086.2908,-108.4697 1081.9242,-93.8857 1102,-81.5 1108.6251,-77.4127 1116.1177,-74.132 1123.669,-71.5071"/>
<polygon fill="#191970" stroke="#191970" points="1033.1366,-129.667 1024.1651,-135.3028 1034.693,-136.4918 1033.1366,-129.667"/>
</g>
</g>
</svg>
