<?xml version="1.0" encoding="UTF-8" standalone="no"?>
<!DOCTYPE svg PUBLIC "-//W3C//DTD SVG 1.1//EN"
 "http://www.w3.org/Graphics/SVG/1.1/DTD/svg11.dtd">
<!-- Generated by graphviz version 2.40.1 (20161225.0304)
 -->
<!-- Title: PHParameters::exist_double_param Pages: 1 -->
<svg width="1319pt" height="522pt"
 viewBox="0.00 0.00 1319.00 522.49" xmlns="http://www.w3.org/2000/svg" xmlns:xlink="http://www.w3.org/1999/xlink">
<g id="graph0" class="graph" transform="scale(1 1) rotate(0) translate(4 518.4882)">
<title>PHParameters::exist_double_param</title>
<!-- Node1 -->
<g id="node1" class="node">
<title>Node1</title>
<polygon fill="#bfbfbf" stroke="#000000" points="0,-373.5 0,-405.5 119,-405.5 119,-373.5 0,-373.5"/>
<text text-anchor="start" x="8" y="-392.5" font-family="FreeSans" font-size="10.00" fill="#000000">PHParameters::exist</text>
<text text-anchor="middle" x="59.5" y="-380.5" font-family="FreeSans" font-size="10.00" fill="#000000">_double_param</text>
</g>
<!-- Node2 -->
<g id="node2" class="node">
<title>Node2</title>
<g id="a_node2"><a xlink:href="../../db/d5f/classPHG4CylinderGeom__Spacalv2.html#a1695b189ac570c48a72e3a10339209c0" target="_top" xlink:title="load parameters from PHParameters, which interface to Database/XML/ROOT files">
<polygon fill="none" stroke="#000000" points="740,-463.5 740,-495.5 907,-495.5 907,-463.5 740,-463.5"/>
<text text-anchor="start" x="748" y="-482.5" font-family="FreeSans" font-size="10.00" fill="#000000">PHG4CylinderGeom_Spacalv2</text>
<text text-anchor="middle" x="823.5" y="-470.5" font-family="FreeSans" font-size="10.00" fill="#000000">::ImportParameters</text>
</a>
</g>
</g>
<!-- Node1&#45;&gt;Node2 -->
<g id="edge1" class="edge">
<title>Node1&#45;&gt;Node2</title>
<path fill="none" stroke="#191970" d="M81.3108,-412.7604C99.2423,-430.1737 126.2925,-452.7637 155,-463.5 353.988,-537.9197 610.0899,-514.1185 739.9675,-494.493"/>
<polygon fill="#191970" stroke="#191970" points="83.7546,-410.2545 74.2059,-405.6641 78.8079,-415.2072 83.7546,-410.2545"/>
</g>
<!-- Node3 -->
<g id="node3" class="node">
<title>Node3</title>
<g id="a_node3"><a xlink:href="../../de/d61/classPHG4CylinderGeom__Spacalv3.html#a101400277a0fbe0c0c9c32c02a39fb40" target="_top" xlink:title="load parameters from PHParameters, which interface to Database/XML/ROOT files">
<polygon fill="none" stroke="#000000" points="943,-415.5 943,-447.5 1110,-447.5 1110,-415.5 943,-415.5"/>
<text text-anchor="start" x="951" y="-434.5" font-family="FreeSans" font-size="10.00" fill="#000000">PHG4CylinderGeom_Spacalv3</text>
<text text-anchor="middle" x="1026.5" y="-422.5" font-family="FreeSans" font-size="10.00" fill="#000000">::ImportParameters</text>
</a>
</g>
</g>
<!-- Node1&#45;&gt;Node3 -->
<g id="edge5" class="edge">
<title>Node1&#45;&gt;Node3</title>
<path fill="none" stroke="#191970" d="M129.391,-382.9372C204.5613,-376.4539 327.6316,-367.5 434,-367.5 434,-367.5 434,-367.5 620.5,-367.5 743.4116,-367.5 884.7287,-396.4747 964.0373,-415.4327"/>
<polygon fill="#191970" stroke="#191970" points="128.7666,-379.4783 119.1087,-383.8345 129.3752,-386.4518 128.7666,-379.4783"/>
</g>
<!-- Node6 -->
<g id="node6" class="node">
<title>Node6</title>
<g id="a_node6"><a xlink:href="../../d3/d63/classPHG4CylinderGeomv1.html#accabd2d72bf6949d7e6daefbc93e8ab2" target="_top" xlink:title="load parameters from PHParameters, which interface to Database/XML/ROOT files">
<polygon fill="none" stroke="#000000" points="179,-396.5 179,-428.5 307,-428.5 307,-396.5 179,-396.5"/>
<text text-anchor="start" x="187" y="-415.5" font-family="FreeSans" font-size="10.00" fill="#000000">PHG4CylinderGeomv1</text>
<text text-anchor="middle" x="243" y="-403.5" font-family="FreeSans" font-size="10.00" fill="#000000">::ImportParameters</text>
</a>
</g>
</g>
<!-- Node1&#45;&gt;Node6 -->
<g id="edge6" class="edge">
<title>Node1&#45;&gt;Node6</title>
<path fill="none" stroke="#191970" d="M129.1215,-398.2264C145.4931,-400.2784 162.8644,-402.4558 178.9766,-404.4753"/>
<polygon fill="#191970" stroke="#191970" points="129.4349,-394.7384 119.0772,-396.9674 128.5642,-401.684 129.4349,-394.7384"/>
</g>
<!-- Node8 -->
<g id="node8" class="node">
<title>Node8</title>
<g id="a_node8"><a xlink:href="../../d2/da2/classPHG4CylinderGeom__Spacalv1.html#a1323c080e451eb8df4b6c065f3a01e59" target="_top" xlink:title="load parameters from PHParameters, which interface to Database/XML/ROOT files">
<polygon fill="none" stroke="#000000" points="537,-431.5 537,-463.5 704,-463.5 704,-431.5 537,-431.5"/>
<text text-anchor="start" x="545" y="-450.5" font-family="FreeSans" font-size="10.00" fill="#000000">PHG4CylinderGeom_Spacalv1</text>
<text text-anchor="middle" x="620.5" y="-438.5" font-family="FreeSans" font-size="10.00" fill="#000000">::ImportParameters</text>
</a>
</g>
</g>
<!-- Node1&#45;&gt;Node8 -->
<g id="edge11" class="edge">
<title>Node1&#45;&gt;Node8</title>
<path fill="none" stroke="#191970" d="M92.2114,-410.9982C109.9983,-421.4426 132.8408,-432.9197 155,-438.5 285.1172,-471.2671 442.218,-465.3236 536.5975,-457.0947"/>
<polygon fill="#191970" stroke="#191970" points="93.7689,-407.8498 83.4013,-405.6673 90.145,-413.8388 93.7689,-407.8498"/>
</g>
<!-- Node10 -->
<g id="node10" class="node">
<title>Node10</title>
<g id="a_node10"><a xlink:href="../../da/d11/classPHParameterContainerInterface.html#a304d76924bdc742b6f68fd4bede1bde4" target="_top" xlink:title="PHParameterContainerInterface\l::set_default_double_param">
<polygon fill="none" stroke="#000000" points="155,-306.5 155,-338.5 331,-338.5 331,-306.5 155,-306.5"/>
<text text-anchor="start" x="163" y="-325.5" font-family="FreeSans" font-size="10.00" fill="#000000">PHParameterContainerInterface</text>
<text text-anchor="middle" x="243" y="-313.5" font-family="FreeSans" font-size="10.00" fill="#000000">::set_default_double_param</text>
</a>
</g>
</g>
<!-- Node1&#45;&gt;Node10 -->
<g id="edge12" class="edge">
<title>Node1&#45;&gt;Node10</title>
<path fill="none" stroke="#191970" d="M111.3105,-369.7346C125.4558,-364.4023 140.798,-358.6776 155,-353.5 168.5442,-348.5622 183.3071,-343.3109 196.8042,-338.5609"/>
<polygon fill="#191970" stroke="#191970" points="109.8549,-366.543 101.7376,-373.3518 112.3292,-373.0911 109.8549,-366.543"/>
</g>
<!-- Node15 -->
<g id="node15" class="node">
<title>Node15</title>
<g id="a_node15"><a xlink:href="../../da/d11/classPHParameterContainerInterface.html#a2a28e69d116516f52e2848a9a6a6f50a" target="_top" xlink:title="PHParameterContainerInterface\l::set_double_param">
<polygon fill="none" stroke="#000000" points="155,-128.5 155,-160.5 331,-160.5 331,-128.5 155,-128.5"/>
<text text-anchor="start" x="163" y="-147.5" font-family="FreeSans" font-size="10.00" fill="#000000">PHParameterContainerInterface</text>
<text text-anchor="middle" x="243" y="-135.5" font-family="FreeSans" font-size="10.00" fill="#000000">::set_double_param</text>
</a>
</g>
</g>
<!-- Node1&#45;&gt;Node15 -->
<g id="edge17" class="edge">
<title>Node1&#45;&gt;Node15</title>
<path fill="none" stroke="#191970" d="M77.7414,-365.1449C115.1134,-315.2478 199.5,-202.579 230.9157,-160.6343"/>
<polygon fill="#191970" stroke="#191970" points="74.7334,-363.3227 71.5399,-373.4249 80.3361,-367.5191 74.7334,-363.3227"/>
</g>
<!-- Node2&#45;&gt;Node3 -->
<g id="edge2" class="edge">
<title>Node2&#45;&gt;Node3</title>
<path fill="none" stroke="#191970" d="M901.165,-461.1359C920.1137,-456.6554 940.237,-451.8972 958.6857,-447.5349"/>
<polygon fill="#191970" stroke="#191970" points="900.3045,-457.7427 891.3783,-463.45 901.9153,-464.5549 900.3045,-457.7427"/>
</g>
<!-- Node4 -->
<g id="node4" class="node">
<title>Node4</title>
<g id="a_node4"><a xlink:href="../../d1/d05/classPHG4FullProjSpacalDetector.html#a252fe43177261d752210af377132f152" target="_top" xlink:title="PHG4FullProjSpacalDetector\l::PHG4FullProjSpacalDetector">
<polygon fill="none" stroke="#000000" points="1146,-444.5 1146,-476.5 1311,-476.5 1311,-444.5 1146,-444.5"/>
<text text-anchor="start" x="1154" y="-463.5" font-family="FreeSans" font-size="10.00" fill="#000000">PHG4FullProjSpacalDetector</text>
<text text-anchor="middle" x="1228.5" y="-451.5" font-family="FreeSans" font-size="10.00" fill="#000000">::PHG4FullProjSpacalDetector</text>
</a>
</g>
</g>
<!-- Node3&#45;&gt;Node4 -->
<g id="edge3" class="edge">
<title>Node3&#45;&gt;Node4</title>
<path fill="none" stroke="#191970" d="M1120.1642,-444.9468C1128.7617,-446.1811 1137.4304,-447.4257 1145.9194,-448.6444"/>
<polygon fill="#191970" stroke="#191970" points="1120.5152,-441.4614 1110.1193,-443.5047 1119.5204,-448.3904 1120.5152,-441.4614"/>
</g>
<!-- Node5 -->
<g id="node5" class="node">
<title>Node5</title>
<g id="a_node5"><a xlink:href="../../d3/db1/classPHG4FullProjTiltedSpacalDetector.html#a400c0416a09f3c37958d24da9dbbbf2a" target="_top" xlink:title="PHG4FullProjTiltedSpacal\lDetector::PHG4FullProjTilted\lSpacalDetector">
<polygon fill="none" stroke="#000000" points="1149.5,-381.5 1149.5,-425.5 1307.5,-425.5 1307.5,-381.5 1149.5,-381.5"/>
<text text-anchor="start" x="1157.5" y="-412.5" font-family="FreeSans" font-size="10.00" fill="#000000">PHG4FullProjTiltedSpacal</text>
<text text-anchor="start" x="1157.5" y="-400.5" font-family="FreeSans" font-size="10.00" fill="#000000">Detector::PHG4FullProjTilted</text>
<text text-anchor="middle" x="1228.5" y="-388.5" font-family="FreeSans" font-size="10.00" fill="#000000">SpacalDetector</text>
</a>
</g>
</g>
<!-- Node3&#45;&gt;Node5 -->
<g id="edge4" class="edge">
<title>Node3&#45;&gt;Node5</title>
<path fill="none" stroke="#191970" d="M1120.2568,-418.504C1130.0311,-417.1492 1139.8964,-415.7817 1149.4839,-414.4527"/>
<polygon fill="#191970" stroke="#191970" points="1119.544,-415.0693 1110.1193,-419.9092 1120.5051,-422.003 1119.544,-415.0693"/>
</g>
<!-- Node7 -->
<g id="node7" class="node">
<title>Node7</title>
<g id="a_node7"><a xlink:href="../../d1/df3/classPHG4CylinderGeomv2.html#ae660d920fd9c780b4cc92b92037aeb0e" target="_top" xlink:title="load parameters from PHParameters, which interface to Database/XML/ROOT files">
<polygon fill="none" stroke="#000000" points="370,-396.5 370,-428.5 498,-428.5 498,-396.5 370,-396.5"/>
<text text-anchor="start" x="378" y="-415.5" font-family="FreeSans" font-size="10.00" fill="#000000">PHG4CylinderGeomv2</text>
<text text-anchor="middle" x="434" y="-403.5" font-family="FreeSans" font-size="10.00" fill="#000000">::ImportParameters</text>
</a>
</g>
</g>
<!-- Node6&#45;&gt;Node7 -->
<g id="edge7" class="edge">
<title>Node6&#45;&gt;Node7</title>
<path fill="none" stroke="#191970" d="M317.2038,-412.5C334.5354,-412.5 352.8531,-412.5 369.7126,-412.5"/>
<polygon fill="#191970" stroke="#191970" points="317.1316,-409.0001 307.1316,-412.5 317.1315,-416.0001 317.1316,-409.0001"/>
</g>
<!-- Node7&#45;&gt;Node8 -->
<g id="edge8" class="edge">
<title>Node7&#45;&gt;Node8</title>
<path fill="none" stroke="#191970" d="M508.2336,-426.4312C517.6107,-428.191 527.2556,-430.0011 536.7671,-431.7861"/>
<polygon fill="#191970" stroke="#191970" points="508.6567,-422.9496 498.1827,-424.545 507.3656,-429.8295 508.6567,-422.9496"/>
</g>
<!-- Node8&#45;&gt;Node2 -->
<g id="edge9" class="edge">
<title>Node8&#45;&gt;Node2</title>
<path fill="none" stroke="#191970" d="M714.2558,-462.2792C722.8295,-463.6308 731.4773,-464.994 739.9526,-466.33"/>
<polygon fill="#191970" stroke="#191970" points="714.6629,-458.8003 704.2399,-460.7004 713.5729,-465.7149 714.6629,-458.8003"/>
</g>
<!-- Node9 -->
<g id="node9" class="node">
<title>Node9</title>
<g id="a_node9"><a xlink:href="../../d0/da4/classPHG4SpacalDetector.html#ad8e9e19b20355493d0210934701d4f17" target="_top" xlink:title="PHG4SpacalDetector\l::PHG4SpacalDetector">
<polygon fill="none" stroke="#000000" points="759,-412.5 759,-444.5 888,-444.5 888,-412.5 759,-412.5"/>
<text text-anchor="start" x="767" y="-431.5" font-family="FreeSans" font-size="10.00" fill="#000000">PHG4SpacalDetector</text>
<text text-anchor="middle" x="823.5" y="-419.5" font-family="FreeSans" font-size="10.00" fill="#000000">::PHG4SpacalDetector</text>
</a>
</g>
</g>
<!-- Node8&#45;&gt;Node9 -->
<g id="edge10" class="edge">
<title>Node8&#45;&gt;Node9</title>
<path fill="none" stroke="#191970" d="M714.5665,-438.6957C729.5562,-437.2928 744.7633,-435.8694 758.8707,-434.5491"/>
<polygon fill="#191970" stroke="#191970" points="713.8702,-435.2455 704.2399,-439.6623 714.5226,-442.2151 713.8702,-435.2455"/>
</g>
<!-- Node11 -->
<g id="node11" class="node">
<title>Node11</title>
<g id="a_node11"><a xlink:href="../../df/d5e/classPHG4BlockCellReco.html#ae2234f60490d0fc28a3ca73d4bc531af" target="_top" xlink:title="PHG4BlockCellReco::\lSetDefaultParameters">
<polygon fill="none" stroke="#000000" points="370.5,-255.5 370.5,-287.5 497.5,-287.5 497.5,-255.5 370.5,-255.5"/>
<text text-anchor="start" x="378.5" y="-274.5" font-family="FreeSans" font-size="10.00" fill="#000000">PHG4BlockCellReco::</text>
<text text-anchor="middle" x="434" y="-262.5" font-family="FreeSans" font-size="10.00" fill="#000000">SetDefaultParameters</text>
</a>
</g>
</g>
<!-- Node10&#45;&gt;Node11 -->
<g id="edge13" class="edge">
<title>Node10&#45;&gt;Node11</title>
<path fill="none" stroke="#191970" d="M312.8385,-303.852C332.8305,-298.5138 354.4431,-292.7429 373.803,-287.5736"/>
<polygon fill="#191970" stroke="#191970" points="311.93,-300.4719 303.1714,-306.4333 313.7359,-307.235 311.93,-300.4719"/>
</g>
<!-- Node13 -->
<g id="node13" class="node">
<title>Node13</title>
<g id="a_node13"><a xlink:href="../../d5/dd0/classPHG4CylinderCellReco.html#ad65ddf63cd840e9841ebc831b8b1c392" target="_top" xlink:title="PHG4CylinderCellReco\l::SetDefaultParameters">
<polygon fill="none" stroke="#000000" points="367,-306.5 367,-338.5 501,-338.5 501,-306.5 367,-306.5"/>
<text text-anchor="start" x="375" y="-325.5" font-family="FreeSans" font-size="10.00" fill="#000000">PHG4CylinderCellReco</text>
<text text-anchor="middle" x="434" y="-313.5" font-family="FreeSans" font-size="10.00" fill="#000000">::SetDefaultParameters</text>
</a>
</g>
</g>
<!-- Node10&#45;&gt;Node13 -->
<g id="edge15" class="edge">
<title>Node10&#45;&gt;Node13</title>
<path fill="none" stroke="#191970" d="M341.3955,-322.5C350.0556,-322.5 358.6839,-322.5 366.9952,-322.5"/>
<polygon fill="#191970" stroke="#191970" points="341.2319,-319.0001 331.2318,-322.5 341.2318,-326.0001 341.2319,-319.0001"/>
</g>
<!-- Node12 -->
<g id="node12" class="node">
<title>Node12</title>
<g id="a_node12"><a xlink:href="../../df/d5e/classPHG4BlockCellReco.html#a2f7de5c81029953c507636c26df6f34b" target="_top" xlink:title="PHG4BlockCellReco::\lPHG4BlockCellReco">
<polygon fill="none" stroke="#000000" points="560,-255.5 560,-287.5 681,-287.5 681,-255.5 560,-255.5"/>
<text text-anchor="start" x="568" y="-274.5" font-family="FreeSans" font-size="10.00" fill="#000000">PHG4BlockCellReco::</text>
<text text-anchor="middle" x="620.5" y="-262.5" font-family="FreeSans" font-size="10.00" fill="#000000">PHG4BlockCellReco</text>
</a>
</g>
</g>
<!-- Node11&#45;&gt;Node12 -->
<g id="edge14" class="edge">
<title>Node11&#45;&gt;Node12</title>
<path fill="none" stroke="#191970" d="M507.728,-271.5C525.0429,-271.5 543.2978,-271.5 559.9579,-271.5"/>
<polygon fill="#191970" stroke="#191970" points="507.6611,-268.0001 497.6611,-271.5 507.6611,-275.0001 507.6611,-268.0001"/>
</g>
<!-- Node14 -->
<g id="node14" class="node">
<title>Node14</title>
<g id="a_node14"><a xlink:href="../../d5/dd0/classPHG4CylinderCellReco.html#a1098d61b960b7de6b26f564292a5fa90" target="_top" xlink:title="PHG4CylinderCellReco\l::PHG4CylinderCellReco">
<polygon fill="none" stroke="#000000" points="552.5,-306.5 552.5,-338.5 688.5,-338.5 688.5,-306.5 552.5,-306.5"/>
<text text-anchor="start" x="560.5" y="-325.5" font-family="FreeSans" font-size="10.00" fill="#000000">PHG4CylinderCellReco</text>
<text text-anchor="middle" x="620.5" y="-313.5" font-family="FreeSans" font-size="10.00" fill="#000000">::PHG4CylinderCellReco</text>
</a>
</g>
</g>
<!-- Node13&#45;&gt;Node14 -->
<g id="edge16" class="edge">
<title>Node13&#45;&gt;Node14</title>
<path fill="none" stroke="#191970" d="M511.3801,-322.5C525.0112,-322.5 539.1084,-322.5 552.4601,-322.5"/>
<polygon fill="#191970" stroke="#191970" points="511.0673,-319.0001 501.0673,-322.5 511.0673,-326.0001 511.0673,-319.0001"/>
</g>
<!-- Node16 -->
<g id="node16" class="node">
<title>Node16</title>
<g id="a_node16"><a xlink:href="../../d5/dd0/classPHG4CylinderCellReco.html#a8e774e299dece3ffe63a748793c87cc1" target="_top" xlink:title="PHG4CylinderCellReco\l::cellsize">
<polygon fill="none" stroke="#000000" points="369.5,-153.5 369.5,-185.5 498.5,-185.5 498.5,-153.5 369.5,-153.5"/>
<text text-anchor="start" x="377.5" y="-172.5" font-family="FreeSans" font-size="10.00" fill="#000000">PHG4CylinderCellReco</text>
<text text-anchor="middle" x="434" y="-160.5" font-family="FreeSans" font-size="10.00" fill="#000000">::cellsize</text>
</a>
</g>
</g>
<!-- Node15&#45;&gt;Node16 -->
<g id="edge18" class="edge">
<title>Node15&#45;&gt;Node16</title>
<path fill="none" stroke="#191970" d="M341.1544,-157.3474C350.6791,-158.5941 360.1686,-159.8362 369.2435,-161.024"/>
<polygon fill="#191970" stroke="#191970" points="341.6015,-153.8762 331.2318,-156.0487 340.693,-160.817 341.6015,-153.8762"/>
</g>
<!-- Node23 -->
<g id="node23" class="node">
<title>Node23</title>
<g id="a_node23"><a xlink:href="../../d5/dd0/classPHG4CylinderCellReco.html#abbd15ecbd41cf3e68196cbcab1fd4e2c" target="_top" xlink:title="PHG4CylinderCellReco\l::etaphisize">
<polygon fill="none" stroke="#000000" points="369.5,-102.5 369.5,-134.5 498.5,-134.5 498.5,-102.5 369.5,-102.5"/>
<text text-anchor="start" x="377.5" y="-121.5" font-family="FreeSans" font-size="10.00" fill="#000000">PHG4CylinderCellReco</text>
<text text-anchor="middle" x="434" y="-109.5" font-family="FreeSans" font-size="10.00" fill="#000000">::etaphisize</text>
</a>
</g>
</g>
<!-- Node15&#45;&gt;Node23 -->
<g id="edge25" class="edge">
<title>Node15&#45;&gt;Node23</title>
<path fill="none" stroke="#191970" d="M341.1544,-131.1387C350.6791,-129.8421 360.1686,-128.5503 369.2435,-127.315"/>
<polygon fill="#191970" stroke="#191970" points="340.6683,-127.6725 331.2318,-132.4894 341.6126,-134.6085 340.6683,-127.6725"/>
</g>
<!-- Node25 -->
<g id="node25" class="node">
<title>Node25</title>
<g id="a_node25"><a xlink:href="../../df/d5e/classPHG4BlockCellReco.html#a5d39419017e6f11365c09ccd90c6b40e" target="_top" xlink:title="PHG4BlockCellReco::\letaxsize">
<polygon fill="none" stroke="#000000" points="373.5,-51.5 373.5,-83.5 494.5,-83.5 494.5,-51.5 373.5,-51.5"/>
<text text-anchor="start" x="381.5" y="-70.5" font-family="FreeSans" font-size="10.00" fill="#000000">PHG4BlockCellReco::</text>
<text text-anchor="middle" x="434" y="-58.5" font-family="FreeSans" font-size="10.00" fill="#000000">etaxsize</text>
</a>
</g>
</g>
<!-- Node15&#45;&gt;Node25 -->
<g id="edge27" class="edge">
<title>Node15&#45;&gt;Node25</title>
<path fill="none" stroke="#191970" d="M289.5416,-124.4646C312.7298,-114.6148 341.248,-102.6994 367,-92.5 374.5029,-89.5284 382.5151,-86.4541 390.2943,-83.5208"/>
<polygon fill="#191970" stroke="#191970" points="288.1107,-121.2697 280.2819,-128.4083 290.8537,-127.7099 288.1107,-121.2697"/>
</g>
<!-- Node26 -->
<g id="node26" class="node">
<title>Node26</title>
<g id="a_node26"><a xlink:href="../../df/d5e/classPHG4BlockCellReco.html#a813c41dc4a623c245426661905304e41" target="_top" xlink:title="PHG4BlockCellReco::\lset_timing_window">
<polygon fill="none" stroke="#000000" points="373.5,-.5 373.5,-32.5 494.5,-32.5 494.5,-.5 373.5,-.5"/>
<text text-anchor="start" x="381.5" y="-19.5" font-family="FreeSans" font-size="10.00" fill="#000000">PHG4BlockCellReco::</text>
<text text-anchor="middle" x="434" y="-7.5" font-family="FreeSans" font-size="10.00" fill="#000000">set_timing_window</text>
</a>
</g>
</g>
<!-- Node15&#45;&gt;Node26 -->
<g id="edge28" class="edge">
<title>Node15&#45;&gt;Node26</title>
<path fill="none" stroke="#191970" d="M266.3234,-120.9616C289.9777,-98.1486 328.4927,-63.8115 367,-41.5 372.6935,-38.2012 378.9012,-35.1967 385.1663,-32.5061"/>
<polygon fill="#191970" stroke="#191970" points="263.599,-118.7303 258.8927,-128.2224 268.4912,-123.7369 263.599,-118.7303"/>
</g>
<!-- Node27 -->
<g id="node27" class="node">
<title>Node27</title>
<g id="a_node27"><a xlink:href="../../d5/dd0/classPHG4CylinderCellReco.html#a2ab7baca05738b086177de3cea8928d1" target="_top" xlink:title="PHG4CylinderCellReco\l::set_timing_window">
<polygon fill="none" stroke="#000000" points="369.5,-204.5 369.5,-236.5 498.5,-236.5 498.5,-204.5 369.5,-204.5"/>
<text text-anchor="start" x="377.5" y="-223.5" font-family="FreeSans" font-size="10.00" fill="#000000">PHG4CylinderCellReco</text>
<text text-anchor="middle" x="434" y="-211.5" font-family="FreeSans" font-size="10.00" fill="#000000">::set_timing_window</text>
</a>
</g>
</g>
<!-- Node15&#45;&gt;Node27 -->
<g id="edge29" class="edge">
<title>Node15&#45;&gt;Node27</title>
<path fill="none" stroke="#191970" d="M290.6578,-164.5323C313.6549,-174.0882 341.6853,-185.5744 367,-195.5 374.5131,-198.4458 382.5303,-201.5074 390.3113,-204.4361"/>
<polygon fill="#191970" stroke="#191970" points="291.7097,-161.179 281.1327,-160.5652 289.0184,-167.641 291.7097,-161.179"/>
</g>
<!-- Node17 -->
<g id="node17" class="node">
<title>Node17</title>
<g id="a_node17"><a xlink:href="../../d8/d4c/G4__CEmc__EIC_8C.html#ab555024f512a193bc7b10d42a92453c8" target="_top" xlink:title="CEMC_Cells">
<polygon fill="none" stroke="#000000" points="583.5,-159.5 583.5,-179.5 657.5,-179.5 657.5,-159.5 583.5,-159.5"/>
<text text-anchor="middle" x="620.5" y="-166.5" font-family="FreeSans" font-size="10.00" fill="#000000">CEMC_Cells</text>
</a>
</g>
</g>
<!-- Node16&#45;&gt;Node17 -->
<g id="edge19" class="edge">
<title>Node16&#45;&gt;Node17</title>
<path fill="none" stroke="#191970" d="M508.7954,-169.5C534.4385,-169.5 562.0211,-169.5 583.3617,-169.5"/>
<polygon fill="#191970" stroke="#191970" points="508.7053,-166.0001 498.7052,-169.5 508.7052,-173.0001 508.7053,-166.0001"/>
</g>
<!-- Node18 -->
<g id="node18" class="node">
<title>Node18</title>
<g id="a_node18"><a xlink:href="../../db/dc0/Fun4All__AnaTutorial_8C.html#a8c484ea6d7477278e981ef056b17eac9" target="_top" xlink:title="Fun4All_AnaTutorial">
<polygon fill="none" stroke="#000000" points="766,-120.5 766,-140.5 881,-140.5 881,-120.5 766,-120.5"/>
<text text-anchor="middle" x="823.5" y="-127.5" font-family="FreeSans" font-size="10.00" fill="#000000">Fun4All_AnaTutorial</text>
</a>
</g>
</g>
<!-- Node17&#45;&gt;Node18 -->
<g id="edge20" class="edge">
<title>Node17&#45;&gt;Node18</title>
<path fill="none" stroke="#191970" d="M667.8455,-160.4041C698.8156,-154.4541 739.2976,-146.6768 771.2142,-140.5451"/>
<polygon fill="#191970" stroke="#191970" points="666.8934,-157.0229 657.7333,-162.3468 668.2141,-163.8972 666.8934,-157.0229"/>
</g>
<!-- Node19 -->
<g id="node19" class="node">
<title>Node19</title>
<g id="a_node19"><a xlink:href="../../dd/d28/Fun4All__AnaTutorial__Jets_8C.html#a55eaaeb770a3177f917012de87877d28" target="_top" xlink:title="Fun4All_AnaTutorial_Jets">
<polygon fill="none" stroke="#000000" points="754,-81.5 754,-101.5 893,-101.5 893,-81.5 754,-81.5"/>
<text text-anchor="middle" x="823.5" y="-88.5" font-family="FreeSans" font-size="10.00" fill="#000000">Fun4All_AnaTutorial_Jets</text>
</a>
</g>
</g>
<!-- Node17&#45;&gt;Node19 -->
<g id="edge21" class="edge">
<title>Node17&#45;&gt;Node19</title>
<path fill="none" stroke="#191970" d="M662.3962,-156.0324C676.027,-150.977 690.9877,-144.6889 704,-137.5 721.5061,-127.8285 721.851,-118.9031 740,-110.5 747.8249,-106.877 756.3902,-103.9204 764.9588,-101.5142"/>
<polygon fill="#191970" stroke="#191970" points="660.9841,-152.8205 652.7527,-159.4909 663.3472,-159.4096 660.9841,-152.8205"/>
</g>
<!-- Node20 -->
<g id="node20" class="node">
<title>Node20</title>
<g id="a_node20"><a xlink:href="../../da/d02/Fun4All__G4__EICDetector_8C.html#afbe82cefa1d1fd031d9a8586b7bb68c6" target="_top" xlink:title="Fun4All_G4_EICDetector">
<polygon fill="none" stroke="#000000" points="754,-237.5 754,-257.5 893,-257.5 893,-237.5 754,-237.5"/>
<text text-anchor="middle" x="823.5" y="-244.5" font-family="FreeSans" font-size="10.00" fill="#000000">Fun4All_G4_EICDetector</text>
</a>
</g>
</g>
<!-- Node17&#45;&gt;Node20 -->
<g id="edge22" class="edge">
<title>Node17&#45;&gt;Node20</title>
<path fill="none" stroke="#191970" d="M646.4842,-184.5578C670.1831,-197.7448 706.5073,-216.6081 740,-228.5 749.8071,-231.9821 760.4941,-234.9805 770.8465,-237.4994"/>
<polygon fill="#191970" stroke="#191970" points="648.1804,-181.4962 637.7501,-179.636 644.7438,-187.5946 648.1804,-181.4962"/>
</g>
<!-- Node21 -->
<g id="node21" class="node">
<title>Node21</title>
<g id="a_node21"><a xlink:href="../../d7/d9e/Fun4All__G4__fsPHENIX_8C.html#a72c444217210a14ab1b4e66d9818b1ff" target="_top" xlink:title="Fun4All_G4_fsPHENIX">
<polygon fill="none" stroke="#000000" points="761.5,-198.5 761.5,-218.5 885.5,-218.5 885.5,-198.5 761.5,-198.5"/>
<text text-anchor="middle" x="823.5" y="-205.5" font-family="FreeSans" font-size="10.00" fill="#000000">Fun4All_G4_fsPHENIX</text>
</a>
</g>
</g>
<!-- Node17&#45;&gt;Node21 -->
<g id="edge23" class="edge">
<title>Node17&#45;&gt;Node21</title>
<path fill="none" stroke="#191970" d="M667.8455,-178.5959C698.8156,-184.5459 739.2976,-192.3232 771.2142,-198.4549"/>
<polygon fill="#191970" stroke="#191970" points="668.2141,-175.1028 657.7333,-176.6532 666.8934,-181.9771 668.2141,-175.1028"/>
</g>
<!-- Node22 -->
<g id="node22" class="node">
<title>Node22</title>
<g id="a_node22"><a xlink:href="../../d0/d13/Fun4All__G4__sPHENIX_8C.html#a536fa7366e3aeaf273cca94ced704c46" target="_top" xlink:title="Fun4All_G4_sPHENIX">
<polygon fill="none" stroke="#000000" points="763,-159.5 763,-179.5 884,-179.5 884,-159.5 763,-159.5"/>
<text text-anchor="middle" x="823.5" y="-166.5" font-family="FreeSans" font-size="10.00" fill="#000000">Fun4All_G4_sPHENIX</text>
</a>
</g>
</g>
<!-- Node17&#45;&gt;Node22 -->
<g id="edge24" class="edge">
<title>Node17&#45;&gt;Node22</title>
<path fill="none" stroke="#191970" d="M667.799,-169.5C696.1719,-169.5 732.5408,-169.5 762.9928,-169.5"/>
<polygon fill="#191970" stroke="#191970" points="667.7334,-166.0001 657.7333,-169.5 667.7333,-173.0001 667.7334,-166.0001"/>
</g>
<!-- Node24 -->
<g id="node24" class="node">
<title>Node24</title>
<g id="a_node24"><a xlink:href="../../d8/d91/Fun4All__G4__Clusters_8C.html#ab7d8e64f12f512631d4c0e8c6683ec5b" target="_top" xlink:title="Fun4All_G4_Clusters">
<polygon fill="none" stroke="#000000" points="561,-108.5 561,-128.5 680,-128.5 680,-108.5 561,-108.5"/>
<text text-anchor="middle" x="620.5" y="-115.5" font-family="FreeSans" font-size="10.00" fill="#000000">Fun4All_G4_Clusters</text>
</a>
</g>
</g>
<!-- Node23&#45;&gt;Node24 -->
<g id="edge26" class="edge">
<title>Node23&#45;&gt;Node24</title>
<path fill="none" stroke="#191970" d="M508.7878,-118.5C526.1186,-118.5 544.3357,-118.5 560.9133,-118.5"/>
<polygon fill="#191970" stroke="#191970" points="508.7053,-115.0001 498.7052,-118.5 508.7052,-122.0001 508.7053,-115.0001"/>
</g>
</g>
</svg>
