<?xml version="1.0" encoding="UTF-8" standalone="no"?>
<!DOCTYPE svg PUBLIC "-//W3C//DTD SVG 1.1//EN"
 "http://www.w3.org/Graphics/SVG/1.1/DTD/svg11.dtd">
<!-- Generated by graphviz version 2.40.1 (20161225.0304)
 -->
<!-- Title: PHParameters::SaveToNodeTree Pages: 1 -->
<svg width="747pt" height="350pt"
 viewBox="0.00 0.00 747.00 350.00" xmlns="http://www.w3.org/2000/svg" xmlns:xlink="http://www.w3.org/1999/xlink">
<g id="graph0" class="graph" transform="scale(1 1) rotate(0) translate(4 346)">
<title>PHParameters::SaveToNodeTree</title>
<!-- Node1 -->
<g id="node1" class="node">
<title>Node1</title>
<polygon fill="#bfbfbf" stroke="#000000" points="0,-236.5 0,-256.5 177,-256.5 177,-236.5 0,-236.5"/>
<text text-anchor="middle" x="88.5" y="-243.5" font-family="FreeSans" font-size="10.00" fill="#000000">PHParameters::SaveToNodeTree</text>
</g>
<!-- Node2 -->
<g id="node2" class="node">
<title>Node2</title>
<g id="a_node2"><a xlink:href="../../df/d75/classRawClusterPositionCorrection.html#ab6f19674fd474bf96ff20686a77e3b66" target="_top" xlink:title="RawClusterPositionCorrection\l::CreateNodeTree">
<polygon fill="none" stroke="#000000" points="213,-295.5 213,-327.5 377,-327.5 377,-295.5 213,-295.5"/>
<text text-anchor="start" x="221" y="-314.5" font-family="FreeSans" font-size="10.00" fill="#000000">RawClusterPositionCorrection</text>
<text text-anchor="middle" x="295" y="-302.5" font-family="FreeSans" font-size="10.00" fill="#000000">::CreateNodeTree</text>
</a>
</g>
</g>
<!-- Node1&#45;&gt;Node2 -->
<g id="edge1" class="edge">
<title>Node1&#45;&gt;Node2</title>
<path fill="none" stroke="#191970" d="M130.047,-259.5778C162.8555,-269.9049 208.7914,-284.3641 243.8587,-295.4023"/>
<polygon fill="#191970" stroke="#191970" points="130.9026,-256.1778 120.3131,-256.5138 128.8008,-262.8549 130.9026,-256.1778"/>
</g>
<!-- Node4 -->
<g id="node4" class="node">
<title>Node4</title>
<g id="a_node4"><a xlink:href="../../d5/d29/classPHG4DetectorSubsystem.html#a3c2ac5dc436f84e09140b6e2a1be8ff9" target="_top" xlink:title="PHG4DetectorSubsystem\l::InitRun">
<polygon fill="none" stroke="#000000" points="223,-230.5 223,-262.5 367,-262.5 367,-230.5 223,-230.5"/>
<text text-anchor="start" x="231" y="-249.5" font-family="FreeSans" font-size="10.00" fill="#000000">PHG4DetectorSubsystem</text>
<text text-anchor="middle" x="295" y="-237.5" font-family="FreeSans" font-size="10.00" fill="#000000">::InitRun</text>
</a>
</g>
</g>
<!-- Node1&#45;&gt;Node4 -->
<g id="edge3" class="edge">
<title>Node1&#45;&gt;Node4</title>
<path fill="none" stroke="#191970" d="M187.2916,-246.5C199.2577,-246.5 211.3038,-246.5 222.7854,-246.5"/>
<polygon fill="#191970" stroke="#191970" points="187.273,-243.0001 177.273,-246.5 187.273,-250.0001 187.273,-243.0001"/>
</g>
<!-- Node5 -->
<g id="node5" class="node">
<title>Node5</title>
<g id="a_node5"><a xlink:href="../../d4/d31/classPHParameterInterface.html#ab386d05bc4aa6e4e3fcd2ff4d466aeb1" target="_top" xlink:title="PHParameterInterface\l::SaveToNodeTree">
<polygon fill="none" stroke="#000000" points="231.5,-151.5 231.5,-183.5 358.5,-183.5 358.5,-151.5 231.5,-151.5"/>
<text text-anchor="start" x="239.5" y="-170.5" font-family="FreeSans" font-size="10.00" fill="#000000">PHParameterInterface</text>
<text text-anchor="middle" x="295" y="-158.5" font-family="FreeSans" font-size="10.00" fill="#000000">::SaveToNodeTree</text>
</a>
</g>
</g>
<!-- Node1&#45;&gt;Node5 -->
<g id="edge4" class="edge">
<title>Node1&#45;&gt;Node5</title>
<path fill="none" stroke="#191970" d="M124.2073,-232.8396C160.0024,-219.1456 215.0957,-198.0687 252.9764,-183.5768"/>
<polygon fill="#191970" stroke="#191970" points="122.7426,-229.6525 114.6534,-236.4946 125.2438,-236.1904 122.7426,-229.6525"/>
</g>
<!-- Node3 -->
<g id="node3" class="node">
<title>Node3</title>
<g id="a_node3"><a xlink:href="../../df/d75/classRawClusterPositionCorrection.html#a031b20900d5e6724ac5886f18cb9a495" target="_top" xlink:title="RawClusterPositionCorrection\l::InitRun">
<polygon fill="none" stroke="#000000" points="413,-309.5 413,-341.5 577,-341.5 577,-309.5 413,-309.5"/>
<text text-anchor="start" x="421" y="-328.5" font-family="FreeSans" font-size="10.00" fill="#000000">RawClusterPositionCorrection</text>
<text text-anchor="middle" x="495" y="-316.5" font-family="FreeSans" font-size="10.00" fill="#000000">::InitRun</text>
</a>
</g>
</g>
<!-- Node2&#45;&gt;Node3 -->
<g id="edge2" class="edge">
<title>Node2&#45;&gt;Node3</title>
<path fill="none" stroke="#191970" d="M387.4658,-317.9726C395.9136,-318.564 404.4335,-319.1603 412.7826,-319.7448"/>
<polygon fill="#191970" stroke="#191970" points="387.4335,-314.4619 377.2135,-317.2549 386.9446,-321.4448 387.4335,-314.4619"/>
</g>
<!-- Node6 -->
<g id="node6" class="node">
<title>Node6</title>
<g id="a_node6"><a xlink:href="../../d1/dec/classHcalRawTowerBuilder.html#a7905b60d52f4f69f900e45859a894533" target="_top" xlink:title="HcalRawTowerBuilder\l::InitRun">
<polygon fill="none" stroke="#000000" points="432.5,-258.5 432.5,-290.5 557.5,-290.5 557.5,-258.5 432.5,-258.5"/>
<text text-anchor="start" x="440.5" y="-277.5" font-family="FreeSans" font-size="10.00" fill="#000000">HcalRawTowerBuilder</text>
<text text-anchor="middle" x="495" y="-265.5" font-family="FreeSans" font-size="10.00" fill="#000000">::InitRun</text>
</a>
</g>
</g>
<!-- Node5&#45;&gt;Node6 -->
<g id="edge5" class="edge">
<title>Node5&#45;&gt;Node6</title>
<path fill="none" stroke="#191970" d="M328.9102,-188.9777C343.8408,-198.6519 361.4787,-210.3794 377,-221.5 393.4771,-233.3055 395.0066,-240.1671 413,-249.5 419.4737,-252.8578 426.4733,-255.8461 433.5604,-258.4833"/>
<polygon fill="#191970" stroke="#191970" points="330.7706,-186.0128 320.4686,-183.539 326.9794,-191.8973 330.7706,-186.0128"/>
</g>
<!-- Node7 -->
<g id="node7" class="node">
<title>Node7</title>
<g id="a_node7"><a xlink:href="../../d2/d53/classPHG4HcalCellReco.html#a56ebb0f8bd634e4210adec9ee0377ed5" target="_top" xlink:title="module initialization">
<polygon fill="none" stroke="#000000" points="419,-219.5 419,-239.5 571,-239.5 571,-219.5 419,-219.5"/>
<text text-anchor="middle" x="495" y="-226.5" font-family="FreeSans" font-size="10.00" fill="#000000">PHG4HcalCellReco::InitRun</text>
</a>
</g>
</g>
<!-- Node5&#45;&gt;Node7 -->
<g id="edge6" class="edge">
<title>Node5&#45;&gt;Node7</title>
<path fill="none" stroke="#191970" d="M344.8829,-187.2044C365.7414,-195.0433 390.354,-203.7774 413,-210.5 423.927,-213.7438 435.8079,-216.7747 447.0468,-219.4214"/>
<polygon fill="#191970" stroke="#191970" points="345.8691,-183.8352 335.2779,-183.559 343.3852,-190.3797 345.8691,-183.8352"/>
</g>
<!-- Node8 -->
<g id="node8" class="node">
<title>Node8</title>
<g id="a_node8"><a xlink:href="../../dd/deb/classPHG4InttHitReco.html#a3d92a0f6f083651394ec761d3fca4ae9" target="_top" xlink:title="module initialization">
<polygon fill="none" stroke="#000000" points="424,-180.5 424,-200.5 566,-200.5 566,-180.5 424,-180.5"/>
<text text-anchor="middle" x="495" y="-187.5" font-family="FreeSans" font-size="10.00" fill="#000000">PHG4InttHitReco::InitRun</text>
</a>
</g>
</g>
<!-- Node5&#45;&gt;Node8 -->
<g id="edge7" class="edge">
<title>Node5&#45;&gt;Node8</title>
<path fill="none" stroke="#191970" d="M368.728,-175.9787C386.7739,-178.054 406.0483,-180.2706 423.9651,-182.331"/>
<polygon fill="#191970" stroke="#191970" points="368.8905,-172.4744 358.5561,-174.8089 368.0907,-179.4286 368.8905,-172.4744"/>
</g>
<!-- Node9 -->
<g id="node9" class="node">
<title>Node9</title>
<g id="a_node9"><a xlink:href="../../dc/d20/classPHG4FullProjSpacalCellReco.html#a37f9ab5678a82c0a886af63ebd1d5f85" target="_top" xlink:title="module initialization">
<polygon fill="none" stroke="#000000" points="416,-129.5 416,-161.5 574,-161.5 574,-129.5 416,-129.5"/>
<text text-anchor="start" x="424" y="-148.5" font-family="FreeSans" font-size="10.00" fill="#000000">PHG4FullProjSpacalCellReco</text>
<text text-anchor="middle" x="495" y="-136.5" font-family="FreeSans" font-size="10.00" fill="#000000">::InitRun</text>
</a>
</g>
</g>
<!-- Node5&#45;&gt;Node9 -->
<g id="edge8" class="edge">
<title>Node5&#45;&gt;Node9</title>
<path fill="none" stroke="#191970" d="M368.5233,-159.4124C383.914,-157.7195 400.2065,-155.9273 415.7937,-154.2127"/>
<polygon fill="#191970" stroke="#191970" points="368.1134,-155.9363 358.5561,-160.5088 368.8788,-162.8944 368.1134,-155.9363"/>
</g>
<!-- Node10 -->
<g id="node10" class="node">
<title>Node10</title>
<g id="a_node10"><a xlink:href="../../dd/da0/classPHG4InttDigitizer.html#a225ff3c89e10a089cdd943d94c8458d3" target="_top" xlink:title="run initialization">
<polygon fill="none" stroke="#000000" points="440.5,-78.5 440.5,-110.5 549.5,-110.5 549.5,-78.5 440.5,-78.5"/>
<text text-anchor="start" x="448.5" y="-97.5" font-family="FreeSans" font-size="10.00" fill="#000000">PHG4InttDigitizer::</text>
<text text-anchor="middle" x="495" y="-85.5" font-family="FreeSans" font-size="10.00" fill="#000000">InitRun</text>
</a>
</g>
</g>
<!-- Node5&#45;&gt;Node10 -->
<g id="edge9" class="edge">
<title>Node5&#45;&gt;Node10</title>
<path fill="none" stroke="#191970" d="M342.7558,-147.5718C364.1113,-138.8956 389.679,-128.8295 413,-120.5 422.4232,-117.1344 432.5306,-113.7495 442.3187,-110.586"/>
<polygon fill="#191970" stroke="#191970" points="341.1974,-144.4275 333.2634,-151.4491 343.8444,-150.9078 341.1974,-144.4275"/>
</g>
<!-- Node11 -->
<g id="node11" class="node">
<title>Node11</title>
<g id="a_node11"><a xlink:href="../../d7/ddb/classPHG4TpcElectronDrift.html#a14a3483e3de7a9a5cb6a4434cba1835c" target="_top" xlink:title="PHG4TpcElectronDrift\l::InitRun">
<polygon fill="none" stroke="#000000" points="613,-13.5 613,-45.5 739,-45.5 739,-13.5 613,-13.5"/>
<text text-anchor="start" x="621" y="-32.5" font-family="FreeSans" font-size="10.00" fill="#000000">PHG4TpcElectronDrift</text>
<text text-anchor="middle" x="676" y="-20.5" font-family="FreeSans" font-size="10.00" fill="#000000">::InitRun</text>
</a>
</g>
</g>
<!-- Node5&#45;&gt;Node11 -->
<g id="edge10" class="edge">
<title>Node5&#45;&gt;Node11</title>
<path fill="none" stroke="#191970" d="M315.5403,-143.9361C337.2679,-120.686 373.7788,-86.1394 413,-68.5 476.9881,-39.7218 557.7081,-31.3687 612.7326,-29.3313"/>
<polygon fill="#191970" stroke="#191970" points="312.9267,-141.6077 308.756,-151.3472 318.0899,-146.3344 312.9267,-141.6077"/>
</g>
<!-- Node12 -->
<g id="node12" class="node">
<title>Node12</title>
<g id="a_node12"><a xlink:href="../../da/d18/classPHG4TpcPadPlane.html#a411ca5edd45eb8d086ee41e281abc543" target="_top" xlink:title="PHG4TpcPadPlane::InitRun">
<polygon fill="none" stroke="#000000" points="420,-.5 420,-20.5 570,-20.5 570,-.5 420,-.5"/>
<text text-anchor="middle" x="495" y="-7.5" font-family="FreeSans" font-size="10.00" fill="#000000">PHG4TpcPadPlane::InitRun</text>
</a>
</g>
</g>
<!-- Node5&#45;&gt;Node12 -->
<g id="edge11" class="edge">
<title>Node5&#45;&gt;Node12</title>
<path fill="none" stroke="#191970" d="M310.9614,-142.5417C331.2144,-112.831 368.8705,-63.7006 413,-35.5 423.0328,-29.0886 434.8029,-24.2429 446.2448,-20.6105"/>
<polygon fill="#191970" stroke="#191970" points="307.8925,-140.8349 305.2468,-151.0941 313.7128,-144.7239 307.8925,-140.8349"/>
</g>
<!-- Node12&#45;&gt;Node11 -->
<g id="edge12" class="edge">
<title>Node12&#45;&gt;Node11</title>
<path fill="none" stroke="#191970" d="M580.2251,-19.4463C591.2067,-20.599 602.2923,-21.7627 612.832,-22.8691"/>
<polygon fill="#191970" stroke="#191970" points="580.4986,-15.9558 570.1879,-18.3926 579.7678,-22.9176 580.4986,-15.9558"/>
</g>
</g>
</svg>
