<?xml version="1.0" encoding="UTF-8" standalone="no"?>
<!DOCTYPE svg PUBLIC "-//W3C//DTD SVG 1.1//EN"
 "http://www.w3.org/Graphics/SVG/1.1/DTD/svg11.dtd">
<!-- Generated by graphviz version 2.40.1 (20161225.0304)
 -->
<!-- Title: PHParameters::get_string_param Pages: 1 -->
<svg width="997pt" height="1139pt"
 viewBox="0.00 0.00 997.00 1139.00" xmlns="http://www.w3.org/2000/svg" xmlns:xlink="http://www.w3.org/1999/xlink">
<g id="graph0" class="graph" transform="scale(1 1) rotate(0) translate(4 1135)">
<title>PHParameters::get_string_param</title>
<!-- Node1 -->
<g id="node1" class="node">
<title>Node1</title>
<polygon fill="#bfbfbf" stroke="#000000" points="0,-537.5 0,-569.5 144,-569.5 144,-537.5 0,-537.5"/>
<text text-anchor="start" x="8" y="-556.5" font-family="FreeSans" font-size="10.00" fill="#000000">PHParameters::get_string</text>
<text text-anchor="middle" x="72" y="-544.5" font-family="FreeSans" font-size="10.00" fill="#000000">_param</text>
</g>
<!-- Node2 -->
<g id="node2" class="node">
<title>Node2</title>
<g id="a_node2"><a xlink:href="../../d7/dae/classPHG4BlockDisplayAction.html#a76cdc674ecedf5e04a13c5945c144eb3" target="_top" xlink:title="ApplyDisplayAction method.">
<polygon fill="none" stroke="#000000" points="203,-1098.5 203,-1130.5 343,-1130.5 343,-1098.5 203,-1098.5"/>
<text text-anchor="start" x="211" y="-1117.5" font-family="FreeSans" font-size="10.00" fill="#000000">PHG4BlockDisplayAction</text>
<text text-anchor="middle" x="273" y="-1105.5" font-family="FreeSans" font-size="10.00" fill="#000000">::ApplyDisplayAction</text>
</a>
</g>
</g>
<!-- Node1&#45;&gt;Node2 -->
<g id="edge1" class="edge">
<title>Node1&#45;&gt;Node2</title>
<path fill="none" stroke="#191970" d="M73.6986,-579.6643C80.5154,-676.637 109.0192,-1013.8413 180,-1089.5 186.2916,-1096.2062 194.1724,-1101.1848 202.6692,-1104.8685"/>
<polygon fill="#191970" stroke="#191970" points="77.1811,-579.289 73.0058,-569.5516 70.1975,-579.7674 77.1811,-579.289"/>
</g>
<!-- Node3 -->
<g id="node3" class="node">
<title>Node3</title>
<g id="a_node3"><a xlink:href="../../d0/d7b/classPHG4CylinderDisplayAction.html#aaf61cc4467460a084979ca2cdc255cad" target="_top" xlink:title="ApplyDisplayAction method.">
<polygon fill="none" stroke="#000000" points="195.5,-1047.5 195.5,-1079.5 350.5,-1079.5 350.5,-1047.5 195.5,-1047.5"/>
<text text-anchor="start" x="203.5" y="-1066.5" font-family="FreeSans" font-size="10.00" fill="#000000">PHG4CylinderDisplayAction</text>
<text text-anchor="middle" x="273" y="-1054.5" font-family="FreeSans" font-size="10.00" fill="#000000">::ApplyDisplayAction</text>
</a>
</g>
</g>
<!-- Node1&#45;&gt;Node3 -->
<g id="edge2" class="edge">
<title>Node1&#45;&gt;Node3</title>
<path fill="none" stroke="#191970" d="M74.2853,-579.5182C82.7709,-670.2754 115.3647,-970.9898 180,-1038.5 184.3936,-1043.0891 189.5321,-1046.8666 195.0973,-1049.9724"/>
<polygon fill="#191970" stroke="#191970" points="77.7672,-579.1599 73.3694,-569.5209 70.7964,-579.7985 77.7672,-579.1599"/>
</g>
<!-- Node4 -->
<g id="node4" class="node">
<title>Node4</title>
<g id="a_node4"><a xlink:href="../../d0/dc2/classG4Example03DisplayAction.html#af3e3a30e2edb26682be4e4ee7c812828" target="_top" xlink:title="ApplyDisplayAction method.">
<polygon fill="none" stroke="#000000" points="195,-996.5 195,-1028.5 351,-1028.5 351,-996.5 195,-996.5"/>
<text text-anchor="start" x="203" y="-1015.5" font-family="FreeSans" font-size="10.00" fill="#000000">G4Example03DisplayAction</text>
<text text-anchor="middle" x="273" y="-1003.5" font-family="FreeSans" font-size="10.00" fill="#000000">::ApplyDisplayAction</text>
</a>
</g>
</g>
<!-- Node1&#45;&gt;Node4 -->
<g id="edge3" class="edge">
<title>Node1&#45;&gt;Node4</title>
<path fill="none" stroke="#191970" d="M75.0513,-579.7879C85.3965,-664.4861 121.7744,-928.1744 180,-987.5 184.3331,-991.9149 189.3563,-995.5759 194.7797,-998.6086"/>
<polygon fill="#191970" stroke="#191970" points="78.509,-579.2254 73.8413,-569.7142 71.5589,-580.0603 78.509,-579.2254"/>
</g>
<!-- Node5 -->
<g id="node5" class="node">
<title>Node5</title>
<g id="a_node5"><a xlink:href="../../d5/d80/classPHG4InnerHcalDetector.html#accd2a02e1fd25a7162e3e4a8364a2c73" target="_top" xlink:title="PHG4InnerHcalDetector\l::ConstructInnerHcal">
<polygon fill="none" stroke="#000000" points="204.5,-945.5 204.5,-977.5 341.5,-977.5 341.5,-945.5 204.5,-945.5"/>
<text text-anchor="start" x="212.5" y="-964.5" font-family="FreeSans" font-size="10.00" fill="#000000">PHG4InnerHcalDetector</text>
<text text-anchor="middle" x="273" y="-952.5" font-family="FreeSans" font-size="10.00" fill="#000000">::ConstructInnerHcal</text>
</a>
</g>
</g>
<!-- Node1&#45;&gt;Node5 -->
<g id="edge4" class="edge">
<title>Node1&#45;&gt;Node5</title>
<path fill="none" stroke="#191970" d="M75.9354,-579.486C88.1952,-657.1224 128.0124,-885.1448 180,-936.5 186.7797,-943.1973 195.1509,-948.1515 204.0687,-951.807"/>
<polygon fill="#191970" stroke="#191970" points="79.3872,-578.9056 74.3899,-569.5633 72.4706,-579.9828 79.3872,-578.9056"/>
</g>
<!-- Node7 -->
<g id="node7" class="node">
<title>Node7</title>
<g id="a_node7"><a xlink:href="../../de/ddc/classPHG4BeamlineMagnetDetector.html#a470a5ca8098fe9f8f0bfad6a84e9accb" target="_top" xlink:title="construct">
<polygon fill="none" stroke="#000000" points="186,-894.5 186,-926.5 360,-926.5 360,-894.5 186,-894.5"/>
<text text-anchor="start" x="194" y="-913.5" font-family="FreeSans" font-size="10.00" fill="#000000">PHG4BeamlineMagnetDetector</text>
<text text-anchor="middle" x="273" y="-901.5" font-family="FreeSans" font-size="10.00" fill="#000000">::ConstructMe</text>
</a>
</g>
</g>
<!-- Node1&#45;&gt;Node7 -->
<g id="edge6" class="edge">
<title>Node1&#45;&gt;Node7</title>
<path fill="none" stroke="#191970" d="M77.1805,-579.7331C91.6294,-650.3642 134.3222,-842.1332 180,-885.5 183.5162,-888.8383 187.4292,-891.7411 191.604,-894.2642"/>
<polygon fill="#191970" stroke="#191970" points="80.5946,-578.9577 75.182,-569.8498 73.7335,-580.3451 80.5946,-578.9577"/>
</g>
<!-- Node8 -->
<g id="node8" class="node">
<title>Node8</title>
<g id="a_node8"><a xlink:href="../../df/d95/classBeamLineMagnetDetector.html#a6d778166132eaf0c222cbceba4c2294d" target="_top" xlink:title="construct">
<polygon fill="none" stroke="#000000" points="198.5,-843.5 198.5,-875.5 347.5,-875.5 347.5,-843.5 198.5,-843.5"/>
<text text-anchor="start" x="206.5" y="-862.5" font-family="FreeSans" font-size="10.00" fill="#000000">BeamLineMagnetDetector</text>
<text text-anchor="middle" x="273" y="-850.5" font-family="FreeSans" font-size="10.00" fill="#000000">::ConstructMe</text>
</a>
</g>
</g>
<!-- Node1&#45;&gt;Node8 -->
<g id="edge7" class="edge">
<title>Node1&#45;&gt;Node8</title>
<path fill="none" stroke="#191970" d="M74.2967,-579.7284C80.5963,-635.2681 103.184,-765.3072 180,-834.5 185.3417,-839.3116 191.5127,-843.2121 198.0838,-846.3718"/>
<polygon fill="#191970" stroke="#191970" points="77.7644,-579.2353 73.2428,-569.6538 70.8024,-579.9638 77.7644,-579.2353"/>
</g>
<!-- Node9 -->
<g id="node9" class="node">
<title>Node9</title>
<g id="a_node9"><a xlink:href="../../d3/d95/classPHG4CylinderDetector.html#a41c5cf8440085201958fe2ca403500a0" target="_top" xlink:title="construct">
<polygon fill="none" stroke="#000000" points="208,-792.5 208,-824.5 338,-824.5 338,-792.5 208,-792.5"/>
<text text-anchor="start" x="216" y="-811.5" font-family="FreeSans" font-size="10.00" fill="#000000">PHG4CylinderDetector</text>
<text text-anchor="middle" x="273" y="-799.5" font-family="FreeSans" font-size="10.00" fill="#000000">::ConstructMe</text>
</a>
</g>
</g>
<!-- Node1&#45;&gt;Node9 -->
<g id="edge8" class="edge">
<title>Node1&#45;&gt;Node9</title>
<path fill="none" stroke="#191970" d="M76.7767,-579.6028C86.9263,-627.449 115.2306,-729.2547 180,-783.5 188.075,-790.263 197.8079,-795.2113 207.8936,-798.8286"/>
<polygon fill="#191970" stroke="#191970" points="80.1902,-578.8246 74.7774,-569.7168 73.3291,-580.2121 80.1902,-578.8246"/>
</g>
<!-- Node10 -->
<g id="node10" class="node">
<title>Node10</title>
<g id="a_node10"><a xlink:href="../../db/d20/classG4JLeicBeamLineMagnetDetector.html#ac3b86eef6ac7346fbcdce739a6d7b3ef" target="_top" xlink:title="construct">
<polygon fill="none" stroke="#000000" points="180,-741.5 180,-773.5 366,-773.5 366,-741.5 180,-741.5"/>
<text text-anchor="start" x="188" y="-760.5" font-family="FreeSans" font-size="10.00" fill="#000000">G4JLeicBeamLineMagnetDetector</text>
<text text-anchor="middle" x="273" y="-748.5" font-family="FreeSans" font-size="10.00" fill="#000000">::ConstructMe</text>
</a>
</g>
</g>
<!-- Node1&#45;&gt;Node10 -->
<g id="edge9" class="edge">
<title>Node1&#45;&gt;Node10</title>
<path fill="none" stroke="#191970" d="M80.4679,-579.3286C94.6629,-618.5127 127.0289,-692.6257 180,-732.5 184.5416,-735.9187 189.5172,-738.8703 194.7315,-741.4185"/>
<polygon fill="#191970" stroke="#191970" points="83.7072,-577.9891 77.096,-569.7101 77.1014,-580.305 83.7072,-577.9891"/>
</g>
<!-- Node11 -->
<g id="node11" class="node">
<title>Node11</title>
<g id="a_node11"><a xlink:href="../../dc/d36/classPHG4BlockDetector.html#a2caa8fb9a09ae821083b3033196ac14b" target="_top" xlink:title="construct">
<polygon fill="none" stroke="#000000" points="212.5,-690.5 212.5,-722.5 333.5,-722.5 333.5,-690.5 212.5,-690.5"/>
<text text-anchor="start" x="220.5" y="-709.5" font-family="FreeSans" font-size="10.00" fill="#000000">PHG4BlockDetector::</text>
<text text-anchor="middle" x="273" y="-697.5" font-family="FreeSans" font-size="10.00" fill="#000000">ConstructMe</text>
</a>
</g>
</g>
<!-- Node1&#45;&gt;Node11 -->
<g id="edge10" class="edge">
<title>Node1&#45;&gt;Node11</title>
<path fill="none" stroke="#191970" d="M86.3683,-578.3372C104.4919,-607.4397 138.3752,-655.038 180,-681.5 189.7354,-687.689 200.979,-692.358 212.2105,-695.8766"/>
<polygon fill="#191970" stroke="#191970" points="89.2344,-576.314 81.0479,-569.5885 83.2535,-579.9512 89.2344,-576.314"/>
</g>
<!-- Node12 -->
<g id="node12" class="node">
<title>Node12</title>
<g id="a_node12"><a xlink:href="../../df/d74/classPHG4OuterHcalDetector.html#a7791a8bc9629b00efcd33f59f134e27a" target="_top" xlink:title="PHG4OuterHcalDetector\l::ConstructOuterHcal">
<polygon fill="none" stroke="#000000" points="203.5,-639.5 203.5,-671.5 342.5,-671.5 342.5,-639.5 203.5,-639.5"/>
<text text-anchor="start" x="211.5" y="-658.5" font-family="FreeSans" font-size="10.00" fill="#000000">PHG4OuterHcalDetector</text>
<text text-anchor="middle" x="273" y="-646.5" font-family="FreeSans" font-size="10.00" fill="#000000">::ConstructOuterHcal</text>
</a>
</g>
</g>
<!-- Node1&#45;&gt;Node12 -->
<g id="edge11" class="edge">
<title>Node1&#45;&gt;Node12</title>
<path fill="none" stroke="#191970" d="M97.9884,-576.1023C118.8861,-593.2289 149.6662,-616.1827 180,-630.5 187.4086,-633.9968 195.3882,-637.0709 203.4489,-639.7559"/>
<polygon fill="#191970" stroke="#191970" points="100.1362,-573.3361 90.2129,-569.6238 95.6553,-578.714 100.1362,-573.3361"/>
</g>
<!-- Node14 -->
<g id="node14" class="node">
<title>Node14</title>
<g id="a_node14"><a xlink:href="../../de/d81/classPHG4TpcDetector.html#a159f454525824f6f24275d007b87f3fd" target="_top" xlink:title="PHG4TpcDetector::Construct\lTpcCageVolume">
<polygon fill="none" stroke="#000000" points="192,-588.5 192,-620.5 354,-620.5 354,-588.5 192,-588.5"/>
<text text-anchor="start" x="200" y="-607.5" font-family="FreeSans" font-size="10.00" fill="#000000">PHG4TpcDetector::Construct</text>
<text text-anchor="middle" x="273" y="-595.5" font-family="FreeSans" font-size="10.00" fill="#000000">TpcCageVolume</text>
</a>
</g>
</g>
<!-- Node1&#45;&gt;Node14 -->
<g id="edge13" class="edge">
<title>Node1&#45;&gt;Node14</title>
<path fill="none" stroke="#191970" d="M145.2082,-572.0752C166.3269,-577.4337 189.1852,-583.2336 209.6513,-588.4264"/>
<polygon fill="#191970" stroke="#191970" points="145.8754,-568.6337 135.3218,-569.5667 144.1538,-575.4187 145.8754,-568.6337"/>
</g>
<!-- Node16 -->
<g id="node16" class="node">
<title>Node16</title>
<g id="a_node16"><a xlink:href="../../de/d81/classPHG4TpcDetector.html#af9c9617ea42660ed2318106b1da9cd43" target="_top" xlink:title="PHG4TpcDetector::Construct\lTpcGasVolume">
<polygon fill="none" stroke="#000000" points="192,-537.5 192,-569.5 354,-569.5 354,-537.5 192,-537.5"/>
<text text-anchor="start" x="200" y="-556.5" font-family="FreeSans" font-size="10.00" fill="#000000">PHG4TpcDetector::Construct</text>
<text text-anchor="middle" x="273" y="-544.5" font-family="FreeSans" font-size="10.00" fill="#000000">TpcGasVolume</text>
</a>
</g>
</g>
<!-- Node1&#45;&gt;Node16 -->
<g id="edge15" class="edge">
<title>Node1&#45;&gt;Node16</title>
<path fill="none" stroke="#191970" d="M154.5219,-553.5C166.8371,-553.5 179.5247,-553.5 191.812,-553.5"/>
<polygon fill="#191970" stroke="#191970" points="154.2817,-550.0001 144.2816,-553.5 154.2816,-557.0001 154.2817,-550.0001"/>
</g>
<!-- Node17 -->
<g id="node17" class="node">
<title>Node17</title>
<g id="a_node17"><a xlink:href="../../d4/d31/classPHParameterInterface.html#aabddfb685f8f6e9b690d4f3c6122c6a0" target="_top" xlink:title="PHParameterInterface\l::get_string_param">
<polygon fill="none" stroke="#000000" points="209.5,-486.5 209.5,-518.5 336.5,-518.5 336.5,-486.5 209.5,-486.5"/>
<text text-anchor="start" x="217.5" y="-505.5" font-family="FreeSans" font-size="10.00" fill="#000000">PHParameterInterface</text>
<text text-anchor="middle" x="273" y="-493.5" font-family="FreeSans" font-size="10.00" fill="#000000">::get_string_param</text>
</a>
</g>
</g>
<!-- Node1&#45;&gt;Node17 -->
<g id="edge17" class="edge">
<title>Node1&#45;&gt;Node17</title>
<path fill="none" stroke="#191970" d="M145.2082,-534.9248C166.3269,-529.5663 189.1852,-523.7664 209.6513,-518.5736"/>
<polygon fill="#191970" stroke="#191970" points="144.1538,-531.5813 135.3218,-537.4333 145.8754,-538.3663 144.1538,-531.5813"/>
</g>
<!-- Node18 -->
<g id="node18" class="node">
<title>Node18</title>
<g id="a_node18"><a xlink:href="../../da/d11/classPHParameterContainerInterface.html#a639943304ffbd603fd9b7f0be27cbf23" target="_top" xlink:title="PHParameterContainerInterface\l::get_string_param">
<polygon fill="none" stroke="#000000" points="185,-435.5 185,-467.5 361,-467.5 361,-435.5 185,-435.5"/>
<text text-anchor="start" x="193" y="-454.5" font-family="FreeSans" font-size="10.00" fill="#000000">PHParameterContainerInterface</text>
<text text-anchor="middle" x="273" y="-442.5" font-family="FreeSans" font-size="10.00" fill="#000000">::get_string_param</text>
</a>
</g>
</g>
<!-- Node1&#45;&gt;Node18 -->
<g id="edge18" class="edge">
<title>Node1&#45;&gt;Node18</title>
<path fill="none" stroke="#191970" d="M98.4593,-530.9854C119.397,-514.1695 150.0087,-491.726 180,-477.5 187.8766,-473.7638 196.3905,-470.4727 204.9577,-467.6"/>
<polygon fill="#191970" stroke="#191970" points="96.1919,-528.3181 90.6568,-537.3521 100.6175,-533.7417 96.1919,-528.3181"/>
</g>
<!-- Node19 -->
<g id="node19" class="node">
<title>Node19</title>
<g id="a_node19"><a xlink:href="../../d7/d7f/classPHG4DetectorGroupSubsystem.html#ae58e42ec972236624828bc54a9c73b21" target="_top" xlink:title="PHG4DetectorGroupSubsystem\l::get_string_param">
<polygon fill="none" stroke="#000000" points="185.5,-384.5 185.5,-416.5 360.5,-416.5 360.5,-384.5 185.5,-384.5"/>
<text text-anchor="start" x="193.5" y="-403.5" font-family="FreeSans" font-size="10.00" fill="#000000">PHG4DetectorGroupSubsystem</text>
<text text-anchor="middle" x="273" y="-391.5" font-family="FreeSans" font-size="10.00" fill="#000000">::get_string_param</text>
</a>
</g>
</g>
<!-- Node1&#45;&gt;Node19 -->
<g id="edge19" class="edge">
<title>Node1&#45;&gt;Node19</title>
<path fill="none" stroke="#191970" d="M86.7526,-528.4684C105.0361,-499.6244 138.8658,-452.8275 180,-426.5 185.9306,-422.7042 192.4184,-419.4541 199.121,-416.6727"/>
<polygon fill="#191970" stroke="#191970" points="83.6632,-526.8094 81.3732,-537.1538 89.6143,-530.4953 83.6632,-526.8094"/>
</g>
<!-- Node20 -->
<g id="node20" class="node">
<title>Node20</title>
<g id="a_node20"><a xlink:href="../../d5/d29/classPHG4DetectorSubsystem.html#a11b830e8da778008313a7102cc37c5c2" target="_top" xlink:title="PHG4DetectorSubsystem\l::get_string_param">
<polygon fill="none" stroke="#000000" points="201,-333.5 201,-365.5 345,-365.5 345,-333.5 201,-333.5"/>
<text text-anchor="start" x="209" y="-352.5" font-family="FreeSans" font-size="10.00" fill="#000000">PHG4DetectorSubsystem</text>
<text text-anchor="middle" x="273" y="-340.5" font-family="FreeSans" font-size="10.00" fill="#000000">::get_string_param</text>
</a>
</g>
</g>
<!-- Node1&#45;&gt;Node20 -->
<g id="edge20" class="edge">
<title>Node1&#45;&gt;Node20</title>
<path fill="none" stroke="#191970" d="M80.5581,-527.8791C94.8729,-488.9981 127.3953,-415.4092 180,-375.5 186.2774,-370.7376 193.3846,-366.8475 200.8052,-363.6699"/>
<polygon fill="#191970" stroke="#191970" points="77.2172,-526.8275 77.1554,-537.4222 83.8107,-529.1785 77.2172,-526.8275"/>
</g>
<!-- Node24 -->
<g id="node24" class="node">
<title>Node24</title>
<g id="a_node24"><a xlink:href="../../de/d61/classPHG4CylinderGeom__Spacalv3.html#a101400277a0fbe0c0c9c32c02a39fb40" target="_top" xlink:title="load parameters from PHParameters, which interface to Database/XML/ROOT files">
<polygon fill="none" stroke="#000000" points="621,-243.5 621,-275.5 788,-275.5 788,-243.5 621,-243.5"/>
<text text-anchor="start" x="629" y="-262.5" font-family="FreeSans" font-size="10.00" fill="#000000">PHG4CylinderGeom_Spacalv3</text>
<text text-anchor="middle" x="704.5" y="-250.5" font-family="FreeSans" font-size="10.00" fill="#000000">::ImportParameters</text>
</a>
</g>
</g>
<!-- Node1&#45;&gt;Node24 -->
<g id="edge24" class="edge">
<title>Node1&#45;&gt;Node24</title>
<path fill="none" stroke="#191970" d="M75.8714,-527.1653C84.6148,-478.0773 110.8125,-373.1719 180,-324.5 253.9509,-272.4772 495.6693,-299.469 585,-285.5 602.0962,-282.8266 620.4186,-279.2202 637.4537,-275.5459"/>
<polygon fill="#191970" stroke="#191970" points="72.3745,-526.856 74.176,-537.2966 79.2786,-528.0114 72.3745,-526.856"/>
</g>
<!-- Node27 -->
<g id="node27" class="node">
<title>Node27</title>
<g id="a_node27"><a xlink:href="../../d2/da2/classPHG4CylinderGeom__Spacalv1.html#a1323c080e451eb8df4b6c065f3a01e59" target="_top" xlink:title="load parameters from PHParameters, which interface to Database/XML/ROOT files">
<polygon fill="none" stroke="#000000" points="189.5,-243.5 189.5,-275.5 356.5,-275.5 356.5,-243.5 189.5,-243.5"/>
<text text-anchor="start" x="197.5" y="-262.5" font-family="FreeSans" font-size="10.00" fill="#000000">PHG4CylinderGeom_Spacalv1</text>
<text text-anchor="middle" x="273" y="-250.5" font-family="FreeSans" font-size="10.00" fill="#000000">::ImportParameters</text>
</a>
</g>
</g>
<!-- Node1&#45;&gt;Node27 -->
<g id="edge27" class="edge">
<title>Node1&#45;&gt;Node27</title>
<path fill="none" stroke="#191970" d="M75.4785,-527.1092C83.7876,-474.5587 109.6254,-356.2513 180,-290.5 186.4667,-284.4581 194.1434,-279.5917 202.2719,-275.6725"/>
<polygon fill="#191970" stroke="#191970" points="71.9748,-526.8754 73.9618,-537.2822 78.8983,-527.9077 71.9748,-526.8754"/>
</g>
<!-- Node30 -->
<g id="node30" class="node">
<title>Node30</title>
<g id="a_node30"><a xlink:href="../../df/dec/classPHG4CylinderGeom__Spacalv3_1_1geom__tower.html#aad623c4f9a3a48d5d553cbf01ffe4bb1" target="_top" xlink:title="read via PHParameters">
<polygon fill="none" stroke="#000000" points="402,-141.5 402,-173.5 585,-173.5 585,-141.5 402,-141.5"/>
<text text-anchor="start" x="410" y="-160.5" font-family="FreeSans" font-size="10.00" fill="#000000">PHG4CylinderGeom_Spacalv3</text>
<text text-anchor="middle" x="493.5" y="-148.5" font-family="FreeSans" font-size="10.00" fill="#000000">::geom_tower::ImportParameters</text>
</a>
</g>
</g>
<!-- Node1&#45;&gt;Node30 -->
<g id="edge31" class="edge">
<title>Node1&#45;&gt;Node30</title>
<path fill="none" stroke="#191970" d="M77.4057,-527.2688C92.1236,-458.361 134.8431,-274.7566 180,-234.5 243.1171,-178.2322 284.4348,-216.7921 366,-194.5 382.2688,-190.0537 385.8593,-187.3911 402,-182.5 411.9288,-179.4913 422.5122,-176.4494 432.8267,-173.5728"/>
<polygon fill="#191970" stroke="#191970" points="73.9283,-526.7965 75.2879,-537.3038 80.7774,-528.242 73.9283,-526.7965"/>
</g>
<!-- Node31 -->
<g id="node31" class="node">
<title>Node31</title>
<g id="a_node31"><a xlink:href="../../d7/d58/classPHG4mRICHSubsystem.html#a228a3aef199e3b37118c6e199418468d" target="_top" xlink:title="InitRunSubsystem.">
<polygon fill="none" stroke="#000000" points="206,-153.5 206,-185.5 340,-185.5 340,-153.5 206,-153.5"/>
<text text-anchor="start" x="214" y="-172.5" font-family="FreeSans" font-size="10.00" fill="#000000">PHG4mRICHSubsystem</text>
<text text-anchor="middle" x="273" y="-160.5" font-family="FreeSans" font-size="10.00" fill="#000000">::InitRunSubsystem</text>
</a>
</g>
</g>
<!-- Node1&#45;&gt;Node31 -->
<g id="edge33" class="edge">
<title>Node1&#45;&gt;Node31</title>
<path fill="none" stroke="#191970" d="M76.8131,-527.244C90.7588,-453.7987 133.1878,-248.49 180,-200.5 187.2492,-193.0684 196.3241,-187.4183 205.943,-183.1227"/>
<polygon fill="#191970" stroke="#191970" points="73.3702,-526.6149 74.9651,-537.089 80.25,-527.9064 73.3702,-526.6149"/>
</g>
<!-- Node32 -->
<g id="node32" class="node">
<title>Node32</title>
<g id="a_node32"><a xlink:href="../../d8/d19/classPHG4EICForwardEcalDetector.html#a4179a77f9b9a81633028efb81ce08bd3" target="_top" xlink:title="PHG4EICForwardEcalDetector\l::ParseParametersFromTable">
<polygon fill="none" stroke="#000000" points="190,-102.5 190,-134.5 356,-134.5 356,-102.5 190,-102.5"/>
<text text-anchor="start" x="198" y="-121.5" font-family="FreeSans" font-size="10.00" fill="#000000">PHG4EICForwardEcalDetector</text>
<text text-anchor="middle" x="273" y="-109.5" font-family="FreeSans" font-size="10.00" fill="#000000">::ParseParametersFromTable</text>
</a>
</g>
</g>
<!-- Node1&#45;&gt;Node32 -->
<g id="edge34" class="edge">
<title>Node1&#45;&gt;Node32</title>
<path fill="none" stroke="#191970" d="M75.4472,-527.3176C86.681,-445.8615 124.7234,-199.0562 180,-143.5 183.4198,-140.0629 187.2582,-137.0838 191.3765,-134.5029"/>
<polygon fill="#191970" stroke="#191970" points="71.975,-526.8768 74.097,-537.257 78.9113,-527.8191 71.975,-526.8768"/>
</g>
<!-- Node34 -->
<g id="node34" class="node">
<title>Node34</title>
<g id="a_node34"><a xlink:href="../../d8/d23/classPHG4ForwardEcalDetector.html#ab84c5d9ab126e680904f333b86eea1c3" target="_top" xlink:title="PHG4ForwardEcalDetector\l::ParseParametersFromTable">
<polygon fill="none" stroke="#000000" points="193.5,-51.5 193.5,-83.5 352.5,-83.5 352.5,-51.5 193.5,-51.5"/>
<text text-anchor="start" x="201.5" y="-70.5" font-family="FreeSans" font-size="10.00" fill="#000000">PHG4ForwardEcalDetector</text>
<text text-anchor="middle" x="273" y="-58.5" font-family="FreeSans" font-size="10.00" fill="#000000">::ParseParametersFromTable</text>
</a>
</g>
</g>
<!-- Node1&#45;&gt;Node34 -->
<g id="edge36" class="edge">
<title>Node1&#45;&gt;Node34</title>
<path fill="none" stroke="#191970" d="M74.6269,-527.3287C83.9732,-439.3401 118.3922,-156.1424 180,-92.5 183.9537,-88.4157 188.4977,-84.9753 193.4053,-82.0799"/>
<polygon fill="#191970" stroke="#191970" points="71.1443,-526.9805 73.5881,-537.2896 78.1065,-527.7066 71.1443,-526.9805"/>
</g>
<!-- Node36 -->
<g id="node36" class="node">
<title>Node36</title>
<g id="a_node36"><a xlink:href="../../da/d11/classPHParameterContainerInterface.html#adf27b09f2765bcf9129293f82d517852" target="_top" xlink:title="PHParameterContainerInterface\l::set_default_string_param">
<polygon fill="none" stroke="#000000" points="185,-.5 185,-32.5 361,-32.5 361,-.5 185,-.5"/>
<text text-anchor="start" x="193" y="-19.5" font-family="FreeSans" font-size="10.00" fill="#000000">PHParameterContainerInterface</text>
<text text-anchor="middle" x="273" y="-7.5" font-family="FreeSans" font-size="10.00" fill="#000000">::set_default_string_param</text>
</a>
</g>
</g>
<!-- Node1&#45;&gt;Node36 -->
<g id="edge38" class="edge">
<title>Node1&#45;&gt;Node36</title>
<path fill="none" stroke="#191970" d="M73.9708,-527.2838C81.5752,-433.0498 112.0378,-113.2866 180,-41.5 183.2184,-38.1005 186.8453,-35.1455 190.7529,-32.5786"/>
<polygon fill="#191970" stroke="#191970" points="70.4711,-527.1428 73.1741,-537.387 77.4495,-527.6931 70.4711,-527.1428"/>
</g>
<!-- Node6 -->
<g id="node6" class="node">
<title>Node6</title>
<g id="a_node6"><a xlink:href="../../d5/d80/classPHG4InnerHcalDetector.html#a08f8bf4d11f3f730682dd7e33c733541" target="_top" xlink:title="construct">
<polygon fill="none" stroke="#000000" points="425,-945.5 425,-977.5 562,-977.5 562,-945.5 425,-945.5"/>
<text text-anchor="start" x="433" y="-964.5" font-family="FreeSans" font-size="10.00" fill="#000000">PHG4InnerHcalDetector</text>
<text text-anchor="middle" x="493.5" y="-952.5" font-family="FreeSans" font-size="10.00" fill="#000000">::ConstructMe</text>
</a>
</g>
</g>
<!-- Node5&#45;&gt;Node6 -->
<g id="edge5" class="edge">
<title>Node5&#45;&gt;Node6</title>
<path fill="none" stroke="#191970" d="M351.6772,-961.5C375.6312,-961.5 401.7569,-961.5 424.9835,-961.5"/>
<polygon fill="#191970" stroke="#191970" points="351.5589,-958.0001 341.5589,-961.5 351.5589,-965.0001 351.5589,-958.0001"/>
</g>
<!-- Node13 -->
<g id="node13" class="node">
<title>Node13</title>
<g id="a_node13"><a xlink:href="../../df/d74/classPHG4OuterHcalDetector.html#a597a02ae930dffa640ff037af2a3a23c" target="_top" xlink:title="construct">
<polygon fill="none" stroke="#000000" points="424,-639.5 424,-671.5 563,-671.5 563,-639.5 424,-639.5"/>
<text text-anchor="start" x="432" y="-658.5" font-family="FreeSans" font-size="10.00" fill="#000000">PHG4OuterHcalDetector</text>
<text text-anchor="middle" x="493.5" y="-646.5" font-family="FreeSans" font-size="10.00" fill="#000000">::ConstructMe</text>
</a>
</g>
</g>
<!-- Node12&#45;&gt;Node13 -->
<g id="edge12" class="edge">
<title>Node12&#45;&gt;Node13</title>
<path fill="none" stroke="#191970" d="M352.9274,-655.5C376.1335,-655.5 401.2831,-655.5 423.8081,-655.5"/>
<polygon fill="#191970" stroke="#191970" points="352.7676,-652.0001 342.7676,-655.5 352.7675,-659.0001 352.7676,-652.0001"/>
</g>
<!-- Node15 -->
<g id="node15" class="node">
<title>Node15</title>
<g id="a_node15"><a xlink:href="../../de/d81/classPHG4TpcDetector.html#aa4478ff41fc6e50e412e8408e0ccdee4" target="_top" xlink:title="construct">
<polygon fill="none" stroke="#000000" points="405.5,-568.5 405.5,-588.5 581.5,-588.5 581.5,-568.5 405.5,-568.5"/>
<text text-anchor="middle" x="493.5" y="-575.5" font-family="FreeSans" font-size="10.00" fill="#000000">PHG4TpcDetector::ConstructMe</text>
</a>
</g>
</g>
<!-- Node14&#45;&gt;Node15 -->
<g id="edge14" class="edge">
<title>Node14&#45;&gt;Node15</title>
<path fill="none" stroke="#191970" d="M364.2134,-593.7447C378.8508,-592.0187 393.95,-590.2383 408.4362,-588.5302"/>
<polygon fill="#191970" stroke="#191970" points="363.688,-590.2823 354.1667,-594.9293 364.5078,-597.2341 363.688,-590.2823"/>
</g>
<!-- Node16&#45;&gt;Node15 -->
<g id="edge16" class="edge">
<title>Node16&#45;&gt;Node15</title>
<path fill="none" stroke="#191970" d="M364.448,-563.8683C378.0109,-565.406 391.9651,-566.9881 405.4564,-568.5177"/>
<polygon fill="#191970" stroke="#191970" points="364.4973,-560.3515 354.1667,-562.7026 363.7087,-567.3069 364.4973,-560.3515"/>
</g>
<!-- Node21 -->
<g id="node21" class="node">
<title>Node21</title>
<g id="a_node21"><a xlink:href="../../d8/dce/classPHG4ForwardEcalSubsystem.html#aa5a454f21fe9f9a9ae65af1b610f7e0f" target="_top" xlink:title="PHG4ForwardEcalSubsystem\l::SetTowerMappingFile">
<polygon fill="none" stroke="#000000" points="412.5,-333.5 412.5,-365.5 574.5,-365.5 574.5,-333.5 412.5,-333.5"/>
<text text-anchor="start" x="420.5" y="-352.5" font-family="FreeSans" font-size="10.00" fill="#000000">PHG4ForwardEcalSubsystem</text>
<text text-anchor="middle" x="493.5" y="-340.5" font-family="FreeSans" font-size="10.00" fill="#000000">::SetTowerMappingFile</text>
</a>
</g>
</g>
<!-- Node20&#45;&gt;Node21 -->
<g id="edge21" class="edge">
<title>Node20&#45;&gt;Node21</title>
<path fill="none" stroke="#191970" d="M355.4137,-349.5C374.0348,-349.5 393.7895,-349.5 412.3578,-349.5"/>
<polygon fill="#191970" stroke="#191970" points="355.2,-346.0001 345.1999,-349.5 355.1999,-353.0001 355.2,-346.0001"/>
</g>
<!-- Node22 -->
<g id="node22" class="node">
<title>Node22</title>
<g id="a_node22"><a xlink:href="../../d5/dcb/G4__FEMC_8C.html#a46bf470cecae66db11fccb5925a48429" target="_top" xlink:title="FEMCSetup">
<polygon fill="none" stroke="#000000" points="667.5,-339.5 667.5,-359.5 741.5,-359.5 741.5,-339.5 667.5,-339.5"/>
<text text-anchor="middle" x="704.5" y="-346.5" font-family="FreeSans" font-size="10.00" fill="#000000">FEMCSetup</text>
</a>
</g>
</g>
<!-- Node21&#45;&gt;Node22 -->
<g id="edge22" class="edge">
<title>Node21&#45;&gt;Node22</title>
<path fill="none" stroke="#191970" d="M584.9674,-349.5C613.991,-349.5 644.4571,-349.5 667.3677,-349.5"/>
<polygon fill="#191970" stroke="#191970" points="584.7763,-346.0001 574.7763,-349.5 584.7763,-353.0001 584.7763,-346.0001"/>
</g>
<!-- Node23 -->
<g id="node23" class="node">
<title>Node23</title>
<g id="a_node23"><a xlink:href="../../d6/d6e/G4Setup__EICDetector_8C.html#af15ee6d4dd2044e228fb457a2ec81b4c" target="_top" xlink:title="G4Setup">
<polygon fill="none" stroke="#000000" points="876.5,-339.5 876.5,-359.5 936.5,-359.5 936.5,-339.5 876.5,-339.5"/>
<text text-anchor="middle" x="906.5" y="-346.5" font-family="FreeSans" font-size="10.00" fill="#000000">G4Setup</text>
</a>
</g>
</g>
<!-- Node22&#45;&gt;Node23 -->
<g id="edge23" class="edge">
<title>Node22&#45;&gt;Node23</title>
<path fill="none" stroke="#191970" d="M751.9771,-349.5C790.4156,-349.5 843.3986,-349.5 876.2722,-349.5"/>
<polygon fill="#191970" stroke="#191970" points="751.5499,-346.0001 741.5499,-349.5 751.5499,-353.0001 751.5499,-346.0001"/>
</g>
<!-- Node25 -->
<g id="node25" class="node">
<title>Node25</title>
<g id="a_node25"><a xlink:href="../../d1/d05/classPHG4FullProjSpacalDetector.html#a252fe43177261d752210af377132f152" target="_top" xlink:title="PHG4FullProjSpacalDetector\l::PHG4FullProjSpacalDetector">
<polygon fill="none" stroke="#000000" points="824,-266.5 824,-298.5 989,-298.5 989,-266.5 824,-266.5"/>
<text text-anchor="start" x="832" y="-285.5" font-family="FreeSans" font-size="10.00" fill="#000000">PHG4FullProjSpacalDetector</text>
<text text-anchor="middle" x="906.5" y="-273.5" font-family="FreeSans" font-size="10.00" fill="#000000">::PHG4FullProjSpacalDetector</text>
</a>
</g>
</g>
<!-- Node24&#45;&gt;Node25 -->
<g id="edge25" class="edge">
<title>Node24&#45;&gt;Node25</title>
<path fill="none" stroke="#191970" d="M798.1642,-270.1647C806.7617,-271.1437 815.4304,-272.1307 823.9194,-273.0973"/>
<polygon fill="#191970" stroke="#191970" points="798.4511,-266.6749 788.1193,-269.021 797.6591,-273.6299 798.4511,-266.6749"/>
</g>
<!-- Node26 -->
<g id="node26" class="node">
<title>Node26</title>
<g id="a_node26"><a xlink:href="../../d3/db1/classPHG4FullProjTiltedSpacalDetector.html#a400c0416a09f3c37958d24da9dbbbf2a" target="_top" xlink:title="PHG4FullProjTiltedSpacal\lDetector::PHG4FullProjTilted\lSpacalDetector">
<polygon fill="none" stroke="#000000" points="827.5,-203.5 827.5,-247.5 985.5,-247.5 985.5,-203.5 827.5,-203.5"/>
<text text-anchor="start" x="835.5" y="-234.5" font-family="FreeSans" font-size="10.00" fill="#000000">PHG4FullProjTiltedSpacal</text>
<text text-anchor="start" x="835.5" y="-222.5" font-family="FreeSans" font-size="10.00" fill="#000000">Detector::PHG4FullProjTilted</text>
<text text-anchor="middle" x="906.5" y="-210.5" font-family="FreeSans" font-size="10.00" fill="#000000">SpacalDetector</text>
</a>
</g>
</g>
<!-- Node24&#45;&gt;Node26 -->
<g id="edge26" class="edge">
<title>Node24&#45;&gt;Node26</title>
<path fill="none" stroke="#191970" d="M798.2568,-243.7192C808.0311,-242.074 817.8964,-240.4135 827.4839,-238.7997"/>
<polygon fill="#191970" stroke="#191970" points="797.3996,-240.3141 788.1193,-245.4255 798.5615,-247.217 797.3996,-240.3141"/>
</g>
<!-- Node28 -->
<g id="node28" class="node">
<title>Node28</title>
<g id="a_node28"><a xlink:href="../../db/d5f/classPHG4CylinderGeom__Spacalv2.html#a1695b189ac570c48a72e3a10339209c0" target="_top" xlink:title="load parameters from PHParameters, which interface to Database/XML/ROOT files">
<polygon fill="none" stroke="#000000" points="410,-243.5 410,-275.5 577,-275.5 577,-243.5 410,-243.5"/>
<text text-anchor="start" x="418" y="-262.5" font-family="FreeSans" font-size="10.00" fill="#000000">PHG4CylinderGeom_Spacalv2</text>
<text text-anchor="middle" x="493.5" y="-250.5" font-family="FreeSans" font-size="10.00" fill="#000000">::ImportParameters</text>
</a>
</g>
</g>
<!-- Node27&#45;&gt;Node28 -->
<g id="edge28" class="edge">
<title>Node27&#45;&gt;Node28</title>
<path fill="none" stroke="#191970" d="M366.9779,-259.5C381.2351,-259.5 395.8636,-259.5 409.8811,-259.5"/>
<polygon fill="#191970" stroke="#191970" points="366.676,-256.0001 356.676,-259.5 366.676,-263.0001 366.676,-256.0001"/>
</g>
<!-- Node29 -->
<g id="node29" class="node">
<title>Node29</title>
<g id="a_node29"><a xlink:href="../../d0/da4/classPHG4SpacalDetector.html#ad8e9e19b20355493d0210934701d4f17" target="_top" xlink:title="PHG4SpacalDetector\l::PHG4SpacalDetector">
<polygon fill="none" stroke="#000000" points="429,-192.5 429,-224.5 558,-224.5 558,-192.5 429,-192.5"/>
<text text-anchor="start" x="437" y="-211.5" font-family="FreeSans" font-size="10.00" fill="#000000">PHG4SpacalDetector</text>
<text text-anchor="middle" x="493.5" y="-199.5" font-family="FreeSans" font-size="10.00" fill="#000000">::PHG4SpacalDetector</text>
</a>
</g>
</g>
<!-- Node27&#45;&gt;Node29 -->
<g id="edge30" class="edge">
<title>Node27&#45;&gt;Node29</title>
<path fill="none" stroke="#191970" d="M352.3346,-241.1505C377.462,-235.3387 404.9204,-228.9878 428.8854,-223.4449"/>
<polygon fill="#191970" stroke="#191970" points="351.419,-237.7698 342.4649,-243.4333 352.9965,-244.5897 351.419,-237.7698"/>
</g>
<!-- Node28&#45;&gt;Node24 -->
<g id="edge29" class="edge">
<title>Node28&#45;&gt;Node24</title>
<path fill="none" stroke="#191970" d="M587.387,-259.5C598.5536,-259.5 609.896,-259.5 620.9054,-259.5"/>
<polygon fill="#191970" stroke="#191970" points="587.1959,-256.0001 577.1958,-259.5 587.1958,-263.0001 587.1959,-256.0001"/>
</g>
<!-- Node30&#45;&gt;Node24 -->
<g id="edge32" class="edge">
<title>Node30&#45;&gt;Node24</title>
<path fill="none" stroke="#191970" d="M571.4107,-177.0049C576.0617,-178.7174 580.6245,-180.5483 585,-182.5 621.9654,-198.988 660.6118,-225.9516 683.6147,-243.2022"/>
<polygon fill="#191970" stroke="#191970" points="572.3667,-173.6319 561.7719,-173.6555 570.069,-180.2441 572.3667,-173.6319"/>
</g>
<!-- Node33 -->
<g id="node33" class="node">
<title>Node33</title>
<g id="a_node33"><a xlink:href="../../d8/d19/classPHG4EICForwardEcalDetector.html#a2ca81703a5f558ef422037d6cd4c31ec" target="_top" xlink:title="construct">
<polygon fill="none" stroke="#000000" points="410.5,-90.5 410.5,-122.5 576.5,-122.5 576.5,-90.5 410.5,-90.5"/>
<text text-anchor="start" x="418.5" y="-109.5" font-family="FreeSans" font-size="10.00" fill="#000000">PHG4EICForwardEcalDetector</text>
<text text-anchor="middle" x="493.5" y="-97.5" font-family="FreeSans" font-size="10.00" fill="#000000">::ConstructMe</text>
</a>
</g>
</g>
<!-- Node32&#45;&gt;Node33 -->
<g id="edge35" class="edge">
<title>Node32&#45;&gt;Node33</title>
<path fill="none" stroke="#191970" d="M366.0967,-113.4335C380.7267,-112.6373 395.7697,-111.8187 410.1611,-111.0354"/>
<polygon fill="#191970" stroke="#191970" points="365.8424,-109.9421 356.0474,-113.9804 366.2228,-116.9317 365.8424,-109.9421"/>
</g>
<!-- Node35 -->
<g id="node35" class="node">
<title>Node35</title>
<g id="a_node35"><a xlink:href="../../d8/d23/classPHG4ForwardEcalDetector.html#a3930ced4da0fa3fd0c39d302fe6a84e5" target="_top" xlink:title="construct">
<polygon fill="none" stroke="#000000" points="418.5,-39.5 418.5,-71.5 568.5,-71.5 568.5,-39.5 418.5,-39.5"/>
<text text-anchor="start" x="426.5" y="-58.5" font-family="FreeSans" font-size="10.00" fill="#000000">PHG4ForwardEcalDetector</text>
<text text-anchor="middle" x="493.5" y="-46.5" font-family="FreeSans" font-size="10.00" fill="#000000">::ConstructMe</text>
</a>
</g>
</g>
<!-- Node34&#45;&gt;Node35 -->
<g id="edge37" class="edge">
<title>Node34&#45;&gt;Node35</title>
<path fill="none" stroke="#191970" d="M362.7765,-62.6142C381.2563,-61.6085 400.5314,-60.5595 418.4256,-59.5857"/>
<polygon fill="#191970" stroke="#191970" points="362.4006,-59.1294 352.6056,-63.1677 362.781,-66.119 362.4006,-59.1294"/>
</g>
</g>
</svg>
