<?xml version="1.0" encoding="UTF-8" standalone="no"?>
<!DOCTYPE svg PUBLIC "-//W3C//DTD SVG 1.1//EN"
 "http://www.w3.org/Graphics/SVG/1.1/DTD/svg11.dtd">
<!-- Generated by graphviz version 2.40.1 (20161225.0304)
 -->
<!-- Title: partonx5 Pages: 1 -->
<svg width="1048pt" height="718pt"
 viewBox="0.00 0.00 1048.00 718.00" xmlns="http://www.w3.org/2000/svg" xmlns:xlink="http://www.w3.org/1999/xlink">
<g id="graph0" class="graph" transform="scale(1 1) rotate(0) translate(4 714)">
<title>partonx5</title>
<!-- Node1 -->
<g id="node1" class="node">
<title>Node1</title>
<polygon fill="#bfbfbf" stroke="#000000" points="0,-78.5 0,-98.5 62,-98.5 62,-78.5 0,-78.5"/>
<text text-anchor="middle" x="31" y="-85.5" font-family="FreeSans" font-size="10.00" fill="#000000">partonx5</text>
</g>
<!-- Node2 -->
<g id="node2" class="node">
<title>Node2</title>
<g id="a_node2"><a xlink:href="../../d0/d95/ip_8C.html#a292ff32a75b66b513d1f0ce00f9a4dc4" target="_top" xlink:title="ip">
<polygon fill="none" stroke="#000000" points="134.5,-389.5 134.5,-409.5 163.5,-409.5 163.5,-389.5 134.5,-389.5"/>
<text text-anchor="middle" x="149" y="-396.5" font-family="FreeSans" font-size="10.00" fill="#000000">ip</text>
</a>
</g>
</g>
<!-- Node1&#45;&gt;Node2 -->
<g id="edge1" class="edge">
<title>Node1&#45;&gt;Node2</title>
<path fill="none" stroke="#191970" d="M34.9261,-98.8475C51.8671,-143.4972 118.8693,-320.0877 141.4927,-379.7139"/>
<polygon fill="#191970" stroke="#191970" points="138.3586,-381.3201 145.1785,-389.4281 144.9034,-378.8369 138.3586,-381.3201"/>
</g>
<!-- Node34 -->
<g id="node34" class="node">
<title>Node34</title>
<g id="a_node34"><a xlink:href="../../d4/d3e/classActs_1_1Logger.html#aee9e687247532b5175713e66b2d2121e" target="_top" xlink:title="create output stream object with internal cache">
<polygon fill="none" stroke="#000000" points="98,-117.5 98,-137.5 200,-137.5 200,-117.5 98,-117.5"/>
<text text-anchor="middle" x="149" y="-124.5" font-family="FreeSans" font-size="10.00" fill="#000000">Acts::Logger::log</text>
</a>
</g>
</g>
<!-- Node1&#45;&gt;Node34 -->
<g id="edge42" class="edge">
<title>Node1&#45;&gt;Node34</title>
<path fill="none" stroke="#191970" d="M61.3879,-98.5435C75.8401,-103.32 93.3143,-109.0954 108.8429,-114.2277"/>
<polygon fill="#191970" stroke="#191970" points="108.1218,-117.6756 118.715,-117.4906 110.3186,-111.0292 108.1218,-117.6756"/>
</g>
<!-- Node36 -->
<g id="node36" class="node">
<title>Node36</title>
<g id="a_node36"><a xlink:href="../../d8/d1a/classHiMain1.html#a2a88691655a2a18605874e4338fb4807" target="_top" xlink:title="HiMain1::nt">
<polygon fill="none" stroke="#000000" points="111.5,-78.5 111.5,-98.5 186.5,-98.5 186.5,-78.5 111.5,-78.5"/>
<text text-anchor="middle" x="149" y="-85.5" font-family="FreeSans" font-size="10.00" fill="#000000">HiMain1::nt</text>
</a>
</g>
</g>
<!-- Node1&#45;&gt;Node36 -->
<g id="edge44" class="edge">
<title>Node1&#45;&gt;Node36</title>
<path fill="none" stroke="#191970" d="M62.0031,-88.5C73.9645,-88.5 87.9246,-88.5 101.1155,-88.5"/>
<polygon fill="#191970" stroke="#191970" points="101.4766,-92.0001 111.4766,-88.5 101.4765,-85.0001 101.4766,-92.0001"/>
</g>
<!-- Node39 -->
<g id="node39" class="node">
<title>Node39</title>
<g id="a_node39"><a xlink:href="../../d0/dbc/polint5_8F.html#abb38d3a2814c524ad55e0a1ce8d7a2f1" target="_top" xlink:title="polint5">
<polygon fill="none" stroke="#000000" points="123.5,-39.5 123.5,-59.5 174.5,-59.5 174.5,-39.5 123.5,-39.5"/>
<text text-anchor="middle" x="149" y="-46.5" font-family="FreeSans" font-size="10.00" fill="#000000">polint5</text>
</a>
</g>
</g>
<!-- Node1&#45;&gt;Node39 -->
<g id="edge47" class="edge">
<title>Node1&#45;&gt;Node39</title>
<path fill="none" stroke="#191970" d="M61.3879,-78.4565C77.2218,-73.2233 96.6833,-66.7911 113.2391,-61.3193"/>
<polygon fill="#191970" stroke="#191970" points="114.717,-64.5171 123.1135,-58.0557 112.5203,-57.8707 114.717,-64.5171"/>
</g>
<!-- Node40 -->
<g id="node40" class="node">
<title>Node40</title>
<g id="a_node40"><a xlink:href="../../d9/d1d/matscan_8C.html#a388f572c62279f839ee138a9afbdeeb5" target="_top" xlink:title="print">
<polygon fill="none" stroke="#000000" points="129,-.5 129,-20.5 169,-20.5 169,-.5 129,-.5"/>
<text text-anchor="middle" x="149" y="-7.5" font-family="FreeSans" font-size="10.00" fill="#000000">print</text>
</a>
</g>
</g>
<!-- Node1&#45;&gt;Node40 -->
<g id="edge48" class="edge">
<title>Node1&#45;&gt;Node40</title>
<path fill="none" stroke="#191970" d="M40.0961,-78.4806C52.2232,-65.6288 74.8593,-43.3494 98,-29.5 104.5773,-25.5636 112.1075,-22.214 119.3261,-19.4747"/>
<polygon fill="#191970" stroke="#191970" points="120.5873,-22.7413 128.8579,-16.1196 118.2631,-16.1384 120.5873,-22.7413"/>
</g>
<!-- Node3 -->
<g id="node3" class="node">
<title>Node3</title>
<g id="a_node3"><a xlink:href="../../da/d86/classEicGeoMap.html#a4138a501100028aef473a4b9508d36d3" target="_top" xlink:title="EicGeoMap::AddGeantVolume\lLevel">
<polygon fill="none" stroke="#000000" points="685,-367.5 685,-399.5 853,-399.5 853,-367.5 685,-367.5"/>
<text text-anchor="start" x="693" y="-386.5" font-family="FreeSans" font-size="10.00" fill="#000000">EicGeoMap::AddGeantVolume</text>
<text text-anchor="middle" x="769" y="-374.5" font-family="FreeSans" font-size="10.00" fill="#000000">Level</text>
</a>
</g>
</g>
<!-- Node2&#45;&gt;Node3 -->
<g id="edge2" class="edge">
<title>Node2&#45;&gt;Node3</title>
<path fill="none" stroke="#191970" d="M163.7708,-400.3862C181.0731,-401.3762 210.6049,-402.9165 236,-403.5 313.7573,-405.2866 333.2525,-405.67 411,-403.5 500.591,-400.9994 602.6464,-394.9854 674.8073,-390.2009"/>
<polygon fill="#191970" stroke="#191970" points="675.0422,-393.6931 684.7867,-389.5344 674.5757,-386.7086 675.0422,-393.6931"/>
</g>
<!-- Node5 -->
<g id="node5" class="node">
<title>Node5</title>
<g id="a_node5"><a xlink:href="../../df/de0/classEicGeoParData.html#a131e36442e699277af7e0e05dd70d7c7" target="_top" xlink:title="EicGeoParData::AddLogical\lVolumeGroup">
<polygon fill="none" stroke="#000000" points="692.5,-613.5 692.5,-645.5 845.5,-645.5 845.5,-613.5 692.5,-613.5"/>
<text text-anchor="start" x="700.5" y="-632.5" font-family="FreeSans" font-size="10.00" fill="#000000">EicGeoParData::AddLogical</text>
<text text-anchor="middle" x="769" y="-620.5" font-family="FreeSans" font-size="10.00" fill="#000000">VolumeGroup</text>
</a>
</g>
</g>
<!-- Node2&#45;&gt;Node5 -->
<g id="edge4" class="edge">
<title>Node2&#45;&gt;Node5</title>
<path fill="none" stroke="#191970" d="M155.2559,-409.5873C167.9216,-429.1051 198.5991,-472.003 236,-493.5 305.0869,-533.2093 341.423,-493.6559 411,-532.5 431.0332,-543.6843 426.7738,-558.6685 447,-569.5 520.1913,-608.6955 614.6356,-622.6988 682.2828,-627.4963"/>
<polygon fill="#191970" stroke="#191970" points="682.2749,-631.0032 692.4823,-628.1646 682.7326,-624.0182 682.2749,-631.0032"/>
</g>
<!-- Node8 -->
<g id="node8" class="node">
<title>Node8</title>
<g id="a_node8"><a xlink:href="../../dd/d0b/classEicNamePatternHub.html#abe35bc0e1b9b51fa1f2c0c45bcf78dec" target="_top" xlink:title="EicNamePatternHub::\lAddPatternMatch">
<polygon fill="none" stroke="#000000" points="262,-361.5 262,-393.5 385,-393.5 385,-361.5 262,-361.5"/>
<text text-anchor="start" x="270" y="-380.5" font-family="FreeSans" font-size="10.00" fill="#000000">EicNamePatternHub::</text>
<text text-anchor="middle" x="323.5" y="-368.5" font-family="FreeSans" font-size="10.00" fill="#000000">AddPatternMatch</text>
</a>
</g>
</g>
<!-- Node2&#45;&gt;Node8 -->
<g id="edge8" class="edge">
<title>Node2&#45;&gt;Node8</title>
<path fill="none" stroke="#191970" d="M163.5776,-397.6621C183.0268,-395.2101 218.8299,-390.6962 251.636,-386.5602"/>
<polygon fill="#191970" stroke="#191970" points="252.216,-390.0149 261.6996,-385.2915 251.3403,-383.0699 252.216,-390.0149"/>
</g>
<!-- Node9 -->
<g id="node9" class="node">
<title>Node9</title>
<g id="a_node9"><a xlink:href="../../df/de0/classEicGeoParData.html#a0a19d07a4f67c4a5cb0884a9992f44d7" target="_top" xlink:title="EicGeoParData::CreateNewMap">
<polygon fill="none" stroke="#000000" points="236,-322.5 236,-342.5 411,-342.5 411,-322.5 236,-322.5"/>
<text text-anchor="middle" x="323.5" y="-329.5" font-family="FreeSans" font-size="10.00" fill="#000000">EicGeoParData::CreateNewMap</text>
</a>
</g>
</g>
<!-- Node2&#45;&gt;Node9 -->
<g id="edge9" class="edge">
<title>Node2&#45;&gt;Node9</title>
<path fill="none" stroke="#191970" d="M163.5054,-390.07C180.3207,-379.5235 209.1685,-362.5998 236,-352.5 243.4651,-349.69 251.4431,-347.2042 259.4306,-345.0251"/>
<polygon fill="#191970" stroke="#191970" points="260.3362,-348.4062 269.1443,-342.5182 258.5869,-341.6283 260.3362,-348.4062"/>
</g>
<!-- Node10 -->
<g id="node10" class="node">
<title>Node10</title>
<g id="a_node10"><a xlink:href="../../df/de8/cemc_8C.html#adf5c804dfce7a70e36dda02995fad481" target="_top" xlink:title="exit">
<polygon fill="none" stroke="#000000" points="306,-283.5 306,-303.5 341,-303.5 341,-283.5 306,-283.5"/>
<text text-anchor="middle" x="323.5" y="-290.5" font-family="FreeSans" font-size="10.00" fill="#000000">exit</text>
</a>
</g>
</g>
<!-- Node2&#45;&gt;Node10 -->
<g id="edge10" class="edge">
<title>Node2&#45;&gt;Node10</title>
<path fill="none" stroke="#191970" d="M156.1012,-389.4588C169.5148,-371.2873 200.4432,-333.0248 236,-313.5 254.4108,-303.3903 277.6913,-298.3821 295.6096,-295.9059"/>
<polygon fill="#191970" stroke="#191970" points="296.209,-299.3592 305.7218,-294.6947 295.3765,-292.4089 296.209,-299.3592"/>
</g>
<!-- Node11 -->
<g id="node11" class="node">
<title>Node11</title>
<g id="a_node11"><a xlink:href="../../df/de0/classEicGeoParData.html#a5464c1947d87d36569891ada6aafb22c" target="_top" xlink:title="EicGeoParData::FinalizeOutput">
<polygon fill="none" stroke="#000000" points="238,-205.5 238,-225.5 409,-225.5 409,-205.5 238,-205.5"/>
<text text-anchor="middle" x="323.5" y="-212.5" font-family="FreeSans" font-size="10.00" fill="#000000">EicGeoParData::FinalizeOutput</text>
</a>
</g>
</g>
<!-- Node2&#45;&gt;Node11 -->
<g id="edge11" class="edge">
<title>Node2&#45;&gt;Node11</title>
<path fill="none" stroke="#191970" d="M151.6363,-389.136C159.3929,-360.7871 184.8707,-281.3593 236,-240.5 241.4729,-236.1264 247.6752,-232.5178 254.19,-229.5405"/>
<polygon fill="#191970" stroke="#191970" points="255.9485,-232.605 263.9099,-225.6145 253.3269,-226.1145 255.9485,-232.605"/>
</g>
<!-- Node12 -->
<g id="node12" class="node">
<title>Node12</title>
<g id="a_node12"><a xlink:href="../../df/de0/classEicGeoParData.html#a98e43e3d66fdb531cabaccd39f09ebc3" target="_top" xlink:title="EicGeoParData::GetColorTable">
<polygon fill="none" stroke="#000000" points="454.5,-295.5 454.5,-315.5 623.5,-315.5 623.5,-295.5 454.5,-295.5"/>
<text text-anchor="middle" x="539" y="-302.5" font-family="FreeSans" font-size="10.00" fill="#000000">EicGeoParData::GetColorTable</text>
</a>
</g>
</g>
<!-- Node2&#45;&gt;Node12 -->
<g id="edge22" class="edge">
<title>Node2&#45;&gt;Node12</title>
<path fill="none" stroke="#191970" d="M152.3928,-389.214C161.332,-364.0217 188.1916,-299.4735 236,-274.5 304.9389,-238.4887 334.2265,-262.0414 411,-274.5 427.6477,-277.2016 430.7132,-282.1201 447,-286.5 455.906,-288.895 465.3663,-291.159 474.7015,-293.233"/>
<polygon fill="#191970" stroke="#191970" points="474.2361,-296.7131 484.75,-295.4061 475.7158,-289.8713 474.2361,-296.7131"/>
</g>
<!-- Node14 -->
<g id="node14" class="node">
<title>Node14</title>
<g id="a_node14"><a xlink:href="../../df/de0/classEicGeoParData.html#a75991633a97d0a9b3140ba103f225691" target="_top" xlink:title="EicGeoParData::GetTransparency\lTable">
<polygon fill="none" stroke="#000000" points="447,-103.5 447,-135.5 631,-135.5 631,-103.5 447,-103.5"/>
<text text-anchor="start" x="455" y="-122.5" font-family="FreeSans" font-size="10.00" fill="#000000">EicGeoParData::GetTransparency</text>
<text text-anchor="middle" x="539" y="-110.5" font-family="FreeSans" font-size="10.00" fill="#000000">Table</text>
</a>
</g>
</g>
<!-- Node2&#45;&gt;Node14 -->
<g id="edge27" class="edge">
<title>Node2&#45;&gt;Node14</title>
<path fill="none" stroke="#191970" d="M150.2037,-389.1866C154.6719,-355.7701 173.4224,-249.5756 236,-196.5 297.0802,-144.6944 333.4042,-173.337 411,-153.5 430.0646,-148.6262 450.6877,-143.2113 469.6965,-138.1617"/>
<polygon fill="#191970" stroke="#191970" points="470.7099,-141.5139 479.473,-135.5591 468.9092,-134.7494 470.7099,-141.5139"/>
</g>
<!-- Node22 -->
<g id="node22" class="node">
<title>Node22</title>
<g id="a_node22"><a xlink:href="../../df/de0/classEicGeoParData.html#af50661ee10308b08071f9feb1b57493b" target="_top" xlink:title="EicGeoParData::GetMedium">
<polygon fill="none" stroke="#000000" points="245.5,-670.5 245.5,-690.5 401.5,-690.5 401.5,-670.5 245.5,-670.5"/>
<text text-anchor="middle" x="323.5" y="-677.5" font-family="FreeSans" font-size="10.00" fill="#000000">EicGeoParData::GetMedium</text>
</a>
</g>
</g>
<!-- Node2&#45;&gt;Node22 -->
<g id="edge23" class="edge">
<title>Node2&#45;&gt;Node22</title>
<path fill="none" stroke="#191970" d="M150.9827,-409.6579C159.7358,-453.4849 196.2495,-625.7826 236,-661.5 237.3514,-662.7143 238.7618,-663.8573 240.223,-664.933"/>
<polygon fill="#191970" stroke="#191970" points="238.7381,-668.1287 249.0897,-670.3859 242.405,-662.166 238.7381,-668.1287"/>
</g>
<!-- Node25 -->
<g id="node25" class="node">
<title>Node25</title>
<g id="a_node25"><a xlink:href="../../df/de0/classEicGeoParData.html#a37c307a8b444e89fd125f6d273a1c894" target="_top" xlink:title="EicGeoParData::GetTopVolume">
<polygon fill="none" stroke="#000000" points="238,-631.5 238,-651.5 409,-651.5 409,-631.5 238,-631.5"/>
<text text-anchor="middle" x="323.5" y="-638.5" font-family="FreeSans" font-size="10.00" fill="#000000">EicGeoParData::GetTopVolume</text>
</a>
</g>
</g>
<!-- Node2&#45;&gt;Node25 -->
<g id="edge26" class="edge">
<title>Node2&#45;&gt;Node25</title>
<path fill="none" stroke="#191970" d="M149.7067,-409.8645C152.7235,-445.5368 167.7119,-564.2396 236,-622.5 237.5521,-623.8242 239.1751,-625.0626 240.8576,-626.2205"/>
<polygon fill="#191970" stroke="#191970" points="239.3082,-629.368 249.7134,-631.3634 242.8236,-623.3147 239.3082,-629.368"/>
</g>
<!-- Node26 -->
<g id="node26" class="node">
<title>Node26</title>
<g id="a_node26"><a xlink:href="../../df/de0/classEicGeoParData.html#a304fa90a3bc1944d2c997257ed56b6a7" target="_top" xlink:title="EicGeoParData::SetFileName">
<polygon fill="none" stroke="#000000" points="243,-592.5 243,-612.5 404,-612.5 404,-592.5 243,-592.5"/>
<text text-anchor="middle" x="323.5" y="-599.5" font-family="FreeSans" font-size="10.00" fill="#000000">EicGeoParData::SetFileName</text>
</a>
</g>
</g>
<!-- Node2&#45;&gt;Node26 -->
<g id="edge28" class="edge">
<title>Node2&#45;&gt;Node26</title>
<path fill="none" stroke="#191970" d="M150.6292,-409.8079C156.1759,-441.294 177.3519,-536.895 236,-583.5 237.8293,-584.9537 239.7455,-586.3022 241.732,-587.5528"/>
<polygon fill="#191970" stroke="#191970" points="240.3736,-590.7956 250.8413,-592.4321 243.6789,-584.6251 240.3736,-590.7956"/>
</g>
<!-- Node27 -->
<g id="node27" class="node">
<title>Node27</title>
<g id="a_node27"><a xlink:href="../../df/de0/classEicGeoParData.html#a85796e06ee06c2b0973409350d2c054d" target="_top" xlink:title="EicGeoParData::SetMapping\lTableEntry">
<polygon fill="none" stroke="#000000" points="244.5,-451.5 244.5,-483.5 402.5,-483.5 402.5,-451.5 244.5,-451.5"/>
<text text-anchor="start" x="252.5" y="-470.5" font-family="FreeSans" font-size="10.00" fill="#000000">EicGeoParData::SetMapping</text>
<text text-anchor="middle" x="323.5" y="-458.5" font-family="FreeSans" font-size="10.00" fill="#000000">TableEntry</text>
</a>
</g>
</g>
<!-- Node2&#45;&gt;Node27 -->
<g id="edge29" class="edge">
<title>Node2&#45;&gt;Node27</title>
<path fill="none" stroke="#191970" d="M163.6643,-406.0638C180.8666,-413.6871 210.3046,-426.4952 236,-436.5 245.9013,-440.3552 256.5062,-444.2807 266.7955,-447.9847"/>
<polygon fill="#191970" stroke="#191970" points="265.936,-451.3941 276.5306,-451.4586 268.2886,-444.8013 265.936,-451.3941"/>
</g>
<!-- Node33 -->
<g id="node33" class="node">
<title>Node33</title>
<g id="a_node33"><a xlink:href="../../da/d86/classEicGeoMap.html#a77e724ceee76044c2346a4b35be1f90e" target="_top" xlink:title="EicGeoMap::SetSingleSensor\lContainerVolume">
<polygon fill="none" stroke="#000000" points="242,-541.5 242,-573.5 405,-573.5 405,-541.5 242,-541.5"/>
<text text-anchor="start" x="250" y="-560.5" font-family="FreeSans" font-size="10.00" fill="#000000">EicGeoMap::SetSingleSensor</text>
<text text-anchor="middle" x="323.5" y="-548.5" font-family="FreeSans" font-size="10.00" fill="#000000">ContainerVolume</text>
</a>
</g>
</g>
<!-- Node2&#45;&gt;Node33 -->
<g id="edge41" class="edge">
<title>Node2&#45;&gt;Node33</title>
<path fill="none" stroke="#191970" d="M153.2665,-409.6768C163.7746,-433.5473 193.1972,-493.5993 236,-526.5 241.115,-530.4317 246.7699,-533.8918 252.6708,-536.9317"/>
<polygon fill="#191970" stroke="#191970" points="251.5652,-540.2795 262.1038,-541.3701 254.5455,-533.9456 251.5652,-540.2795"/>
</g>
<!-- Node4 -->
<g id="node4" class="node">
<title>Node4</title>
<g id="a_node4"><a xlink:href="../../da/d23/msg__buffer_8cc.html#a98631211a4a8aee62f572375d5b637be" target="_top" xlink:title="printf">
<polygon fill="none" stroke="#000000" points="951.5,-496.5 951.5,-516.5 995.5,-516.5 995.5,-496.5 951.5,-496.5"/>
<text text-anchor="middle" x="973.5" y="-503.5" font-family="FreeSans" font-size="10.00" fill="#000000">printf</text>
</a>
</g>
</g>
<!-- Node3&#45;&gt;Node4 -->
<g id="edge3" class="edge">
<title>Node3&#45;&gt;Node4</title>
<path fill="none" stroke="#191970" d="M836.841,-399.5618C848.6053,-403.6116 860.4392,-408.5475 871,-414.5 906.152,-434.3132 939.4991,-467.9812 958.1467,-488.6291"/>
<polygon fill="#191970" stroke="#191970" points="955.7343,-491.1843 964.9835,-496.3518 960.9755,-486.5443 955.7343,-491.1843"/>
</g>
<!-- Node5&#45;&gt;Node4 -->
<g id="edge5" class="edge">
<title>Node5&#45;&gt;Node4</title>
<path fill="none" stroke="#191970" d="M845.5445,-618.3349C854.6792,-614.8705 863.4326,-610.3616 871,-604.5 897.7246,-583.7995 882.4274,-560.7143 907,-537.5 916.7658,-528.2741 929.7721,-521.3884 941.6912,-516.4805"/>
<polygon fill="#191970" stroke="#191970" points="943.2443,-519.6347 951.3526,-512.8151 940.7613,-513.0899 943.2443,-519.6347"/>
</g>
<!-- Node6 -->
<g id="node6" class="node">
<title>Node6</title>
<g id="a_node6"><a xlink:href="../../dd/d20/classEicBitMask.html#a23ae6782cbc30f5fe572692893d5e3bf" target="_top" xlink:title="EicBitMask::SetShift">
<polygon fill="none" stroke="#000000" points="915,-607.5 915,-627.5 1032,-627.5 1032,-607.5 915,-607.5"/>
<text text-anchor="middle" x="973.5" y="-614.5" font-family="FreeSans" font-size="10.00" fill="#000000">EicBitMask::SetShift</text>
</a>
</g>
</g>
<!-- Node5&#45;&gt;Node6 -->
<g id="edge6" class="edge">
<title>Node5&#45;&gt;Node6</title>
<path fill="none" stroke="#191970" d="M845.7301,-624.9975C865.1361,-623.8588 885.8523,-622.6431 904.8319,-621.5294"/>
<polygon fill="#191970" stroke="#191970" points="905.1015,-625.0197 914.8793,-620.9398 904.6914,-618.0317 905.1015,-625.0197"/>
</g>
<!-- Node7 -->
<g id="node7" class="node">
<title>Node7</title>
<g id="a_node7"><a xlink:href="../../dd/d20/classEicBitMask.html#a577897e58c312fcaa8722bea72257e26" target="_top" xlink:title="EicBitMask::GetBitNum">
<polygon fill="none" stroke="#000000" points="907,-546.5 907,-566.5 1040,-566.5 1040,-546.5 907,-546.5"/>
<text text-anchor="middle" x="973.5" y="-553.5" font-family="FreeSans" font-size="10.00" fill="#000000">EicBitMask::GetBitNum</text>
</a>
</g>
</g>
<!-- Node5&#45;&gt;Node7 -->
<g id="edge7" class="edge">
<title>Node5&#45;&gt;Node7</title>
<path fill="none" stroke="#191970" d="M841.9568,-613.4861C851.8092,-610.7816 861.7153,-607.7756 871,-604.5 897.075,-595.3009 925.4536,-581.7123 945.7252,-571.339"/>
<polygon fill="#191970" stroke="#191970" points="947.4388,-574.3931 954.7052,-566.6827 944.2165,-568.1788 947.4388,-574.3931"/>
</g>
<!-- Node11&#45;&gt;Node12 -->
<g id="edge12" class="edge">
<title>Node11&#45;&gt;Node12</title>
<path fill="none" stroke="#191970" d="M378.5877,-225.541C389.8991,-229.1276 401.3018,-233.971 411,-240.5 432.5355,-254.9981 424.9385,-272.8155 447,-286.5 450.0015,-288.3618 453.1535,-290.0445 456.4091,-291.5652"/>
<polygon fill="#191970" stroke="#191970" points="455.2397,-294.8687 465.8194,-295.4358 457.9026,-288.3949 455.2397,-294.8687"/>
</g>
<!-- Node13 -->
<g id="node13" class="node">
<title>Node13</title>
<g id="a_node13"><a xlink:href="../../dd/d0b/classEicNamePatternHub.html#a8baac9dd7e44ee789555cb040763f903" target="_top" xlink:title="EicNamePatternHub::\lAnyMatch">
<polygon fill="none" stroke="#000000" points="477.5,-154.5 477.5,-186.5 600.5,-186.5 600.5,-154.5 477.5,-154.5"/>
<text text-anchor="start" x="485.5" y="-173.5" font-family="FreeSans" font-size="10.00" fill="#000000">EicNamePatternHub::</text>
<text text-anchor="middle" x="539" y="-161.5" font-family="FreeSans" font-size="10.00" fill="#000000">AnyMatch</text>
</a>
</g>
</g>
<!-- Node11&#45;&gt;Node13 -->
<g id="edge13" class="edge">
<title>Node11&#45;&gt;Node13</title>
<path fill="none" stroke="#191970" d="M371.5942,-205.4571C399.6897,-199.5903 435.6869,-192.0735 467.0972,-185.5145"/>
<polygon fill="#191970" stroke="#191970" points="468.045,-188.8922 477.1184,-183.4219 466.6141,-182.04 468.045,-188.8922"/>
</g>
<!-- Node11&#45;&gt;Node14 -->
<g id="edge14" class="edge">
<title>Node11&#45;&gt;Node14</title>
<path fill="none" stroke="#191970" d="M375.7376,-205.4863C387.9405,-201.6934 400.4439,-196.5213 411,-189.5 432.0381,-175.5065 425.8685,-159.3521 447,-145.5 450.0972,-143.4697 453.3535,-141.5958 456.7174,-139.8665"/>
<polygon fill="#191970" stroke="#191970" points="458.2512,-143.0132 465.8385,-135.6183 455.2957,-136.6677 458.2512,-143.0132"/>
</g>
<!-- Node15 -->
<g id="node15" class="node">
<title>Node15</title>
<g id="a_node15"><a xlink:href="../../df/de0/classEicGeoParData.html#a24162311dd8c038e330afbee7a132352" target="_top" xlink:title="EicGeoParData::GetGeometry\lFileName">
<polygon fill="none" stroke="#000000" points="456,-244.5 456,-276.5 622,-276.5 622,-244.5 456,-244.5"/>
<text text-anchor="start" x="464" y="-263.5" font-family="FreeSans" font-size="10.00" fill="#000000">EicGeoParData::GetGeometry</text>
<text text-anchor="middle" x="539" y="-251.5" font-family="FreeSans" font-size="10.00" fill="#000000">FileName</text>
</a>
</g>
</g>
<!-- Node11&#45;&gt;Node15 -->
<g id="edge15" class="edge">
<title>Node11&#45;&gt;Node15</title>
<path fill="none" stroke="#191970" d="M371.5942,-225.5429C395.3475,-230.503 424.7488,-236.6424 452.2512,-242.3854"/>
<polygon fill="#191970" stroke="#191970" points="451.7794,-245.8623 462.2837,-244.4804 453.2103,-239.0101 451.7794,-245.8623"/>
</g>
<!-- Node21 -->
<g id="node21" class="node">
<title>Node21</title>
<g id="a_node21"><a xlink:href="../../d0/d2f/classEicDetName.html#aef29cb1ffe2ea071a03f4aa098408595" target="_top" xlink:title="EicDetName::Name">
<polygon fill="none" stroke="#000000" points="481.5,-205.5 481.5,-225.5 596.5,-225.5 596.5,-205.5 481.5,-205.5"/>
<text text-anchor="middle" x="539" y="-212.5" font-family="FreeSans" font-size="10.00" fill="#000000">EicDetName::Name</text>
</a>
</g>
</g>
<!-- Node11&#45;&gt;Node21 -->
<g id="edge21" class="edge">
<title>Node11&#45;&gt;Node21</title>
<path fill="none" stroke="#191970" d="M409.2905,-215.5C429.8807,-215.5 451.5881,-215.5 471.23,-215.5"/>
<polygon fill="#191970" stroke="#191970" points="471.2965,-219.0001 481.2964,-215.5 471.2964,-212.0001 471.2965,-219.0001"/>
</g>
<!-- Node16 -->
<g id="node16" class="node">
<title>Node16</title>
<g id="a_node16"><a xlink:href="../../df/de0/classEicGeoParData.html#a27907f2aba8817ceb2d97e1a29ecaf40" target="_top" xlink:title="EicGeoParData::GetVersion">
<polygon fill="none" stroke="#000000" points="692.5,-172.5 692.5,-192.5 845.5,-192.5 845.5,-172.5 692.5,-172.5"/>
<text text-anchor="middle" x="769" y="-179.5" font-family="FreeSans" font-size="10.00" fill="#000000">EicGeoParData::GetVersion</text>
</a>
</g>
</g>
<!-- Node15&#45;&gt;Node16 -->
<g id="edge16" class="edge">
<title>Node15&#45;&gt;Node16</title>
<path fill="none" stroke="#191970" d="M611.62,-244.3312C618.3446,-241.782 624.9116,-238.855 631,-235.5 650.01,-225.0248 647.6267,-212.287 667,-202.5 672.2108,-199.8676 677.7336,-197.5811 683.4063,-195.5951"/>
<polygon fill="#191970" stroke="#191970" points="684.5936,-198.8904 693.0658,-192.5287 682.4755,-192.2185 684.5936,-198.8904"/>
</g>
<!-- Node17 -->
<g id="node17" class="node">
<title>Node17</title>
<g id="a_node17"><a xlink:href="../../df/de0/classEicGeoParData.html#ae6acf5e5d790c629031c2d7cf12718ef" target="_top" xlink:title="EicGeoParData::GetSubVersion">
<polygon fill="none" stroke="#000000" points="683,-328.5 683,-348.5 855,-348.5 855,-328.5 683,-328.5"/>
<text text-anchor="middle" x="769" y="-335.5" font-family="FreeSans" font-size="10.00" fill="#000000">EicGeoParData::GetSubVersion</text>
</a>
</g>
</g>
<!-- Node15&#45;&gt;Node17 -->
<g id="edge17" class="edge">
<title>Node15&#45;&gt;Node17</title>
<path fill="none" stroke="#191970" d="M609.2121,-276.5957C616.7742,-279.4201 624.1868,-282.7007 631,-286.5 649.9569,-297.071 647.5806,-309.8047 667,-319.5 671.306,-321.6498 675.8243,-323.5578 680.4636,-325.2511"/>
<polygon fill="#191970" stroke="#191970" points="679.5341,-328.6299 690.1272,-328.434 681.724,-321.9813 679.5341,-328.6299"/>
</g>
<!-- Node18 -->
<g id="node18" class="node">
<title>Node18</title>
<g id="a_node18"><a xlink:href="../../df/de0/classEicGeoParData.html#a09fe5b3481f26b4a771cb7c476d64a1f" target="_top" xlink:title="EicGeoParData::IsTestGeometry">
<polygon fill="none" stroke="#000000" points="681,-289.5 681,-309.5 857,-309.5 857,-289.5 681,-289.5"/>
<text text-anchor="middle" x="769" y="-296.5" font-family="FreeSans" font-size="10.00" fill="#000000">EicGeoParData::IsTestGeometry</text>
</a>
</g>
</g>
<!-- Node15&#45;&gt;Node18 -->
<g id="edge18" class="edge">
<title>Node15&#45;&gt;Node18</title>
<path fill="none" stroke="#191970" d="M622.0353,-274.5799C647.594,-278.9138 675.441,-283.6356 699.9539,-287.7922"/>
<polygon fill="#191970" stroke="#191970" points="699.4369,-291.2544 709.8813,-289.4755 700.6072,-284.3529 699.4369,-291.2544"/>
</g>
<!-- Node19 -->
<g id="node19" class="node">
<title>Node19</title>
<g id="a_node19"><a xlink:href="../../d0/d2f/classEicDetName.html#afac87377442f69796e0e335e81b96067" target="_top" xlink:title="EicDetName::name">
<polygon fill="none" stroke="#000000" points="712,-250.5 712,-270.5 826,-270.5 826,-250.5 712,-250.5"/>
<text text-anchor="middle" x="769" y="-257.5" font-family="FreeSans" font-size="10.00" fill="#000000">EicDetName::name</text>
</a>
</g>
</g>
<!-- Node15&#45;&gt;Node19 -->
<g id="edge19" class="edge">
<title>Node15&#45;&gt;Node19</title>
<path fill="none" stroke="#191970" d="M622.0353,-260.5C648.2726,-260.5 676.9212,-260.5 701.8991,-260.5"/>
<polygon fill="#191970" stroke="#191970" points="701.9984,-264.0001 711.9984,-260.5 701.9983,-257.0001 701.9984,-264.0001"/>
</g>
<!-- Node20 -->
<g id="node20" class="node">
<title>Node20</title>
<g id="a_node20"><a xlink:href="../../df/de0/classEicGeoParData.html#a7f5db7c4ddc258264f0258a6d8d946b6" target="_top" xlink:title="EicGeoParData::GetGeometryType">
<polygon fill="none" stroke="#000000" points="674.5,-211.5 674.5,-231.5 863.5,-231.5 863.5,-211.5 674.5,-211.5"/>
<text text-anchor="middle" x="769" y="-218.5" font-family="FreeSans" font-size="10.00" fill="#000000">EicGeoParData::GetGeometryType</text>
</a>
</g>
</g>
<!-- Node15&#45;&gt;Node20 -->
<g id="edge20" class="edge">
<title>Node15&#45;&gt;Node20</title>
<path fill="none" stroke="#191970" d="M622.0353,-246.4201C647.594,-242.0862 675.441,-237.3644 699.9539,-233.2078"/>
<polygon fill="#191970" stroke="#191970" points="700.6072,-236.6471 709.8813,-231.5245 699.4369,-229.7456 700.6072,-236.6471"/>
</g>
<!-- Node23 -->
<g id="node23" class="node">
<title>Node23</title>
<g id="a_node23"><a xlink:href="../../d9/d1e/classFairGeoMedia.html#a0dc27e89d61b8ff40498a48e39b2a2c0" target="_top" xlink:title="FairGeoMedia::getMedium">
<polygon fill="none" stroke="#000000" points="464.5,-689.5 464.5,-709.5 613.5,-709.5 613.5,-689.5 464.5,-689.5"/>
<text text-anchor="middle" x="539" y="-696.5" font-family="FreeSans" font-size="10.00" fill="#000000">FairGeoMedia::getMedium</text>
</a>
</g>
</g>
<!-- Node22&#45;&gt;Node23 -->
<g id="edge24" class="edge">
<title>Node22&#45;&gt;Node23</title>
<path fill="none" stroke="#191970" d="M401.6051,-687.3863C418.7228,-688.8955 436.9228,-690.5002 454.2856,-692.031"/>
<polygon fill="#191970" stroke="#191970" points="454.1286,-695.5306 464.3974,-692.9225 454.7434,-688.5577 454.1286,-695.5306"/>
</g>
<!-- Node24 -->
<g id="node24" class="node">
<title>Node24</title>
<g id="a_node24"><a xlink:href="../../de/d6a/classFairGeoBuilder.html#a852b0d5861a7a6c1033aab59417d1c79" target="_top" xlink:title="FairGeoBuilder::createMedium">
<polygon fill="none" stroke="#000000" points="454.5,-650.5 454.5,-670.5 623.5,-670.5 623.5,-650.5 454.5,-650.5"/>
<text text-anchor="middle" x="539" y="-657.5" font-family="FreeSans" font-size="10.00" fill="#000000">FairGeoBuilder::createMedium</text>
</a>
</g>
</g>
<!-- Node22&#45;&gt;Node24 -->
<g id="edge25" class="edge">
<title>Node22&#45;&gt;Node24</title>
<path fill="none" stroke="#191970" d="M401.6051,-673.2513C415.3689,-671.9739 429.8324,-670.6316 443.9979,-669.3169"/>
<polygon fill="#191970" stroke="#191970" points="444.6118,-672.7751 454.2455,-668.3658 443.9649,-665.805 444.6118,-672.7751"/>
</g>
<!-- Node27&#45;&gt;Node4 -->
<g id="edge30" class="edge">
<title>Node27&#45;&gt;Node4</title>
<path fill="none" stroke="#191970" d="M398.5124,-451.4448C505.4145,-431.5637 706.8258,-405.2712 871,-448.5 901.6923,-456.5816 932.8495,-476.1872 952.6233,-490.3701"/>
<polygon fill="#191970" stroke="#191970" points="950.7385,-493.3289 960.8649,-496.4442 954.8914,-487.6939 950.7385,-493.3289"/>
</g>
<!-- Node28 -->
<g id="node28" class="node">
<title>Node28</title>
<g id="a_node28"><a xlink:href="../../dd/d20/classEicBitMask.html#aba6083955032532d7dfc95069338dd27" target="_top" xlink:title="EicBitMask::GetBitMask">
<polygon fill="none" stroke="#000000" points="471.5,-457.5 471.5,-477.5 606.5,-477.5 606.5,-457.5 471.5,-457.5"/>
<text text-anchor="middle" x="539" y="-464.5" font-family="FreeSans" font-size="10.00" fill="#000000">EicBitMask::GetBitMask</text>
</a>
</g>
</g>
<!-- Node27&#45;&gt;Node28 -->
<g id="edge31" class="edge">
<title>Node27&#45;&gt;Node28</title>
<path fill="none" stroke="#191970" d="M402.5206,-467.5C421.6635,-467.5 442.1115,-467.5 461.1978,-467.5"/>
<polygon fill="#191970" stroke="#191970" points="461.3411,-471.0001 471.3411,-467.5 461.3411,-464.0001 461.3411,-471.0001"/>
</g>
<!-- Node29 -->
<g id="node29" class="node">
<title>Node29</title>
<g id="a_node29"><a xlink:href="../../dd/d20/classEicBitMask.html#a862ce5875cf47f78ff18aaed935966d9" target="_top" xlink:title="EicBitMask::GetShift">
<polygon fill="none" stroke="#000000" points="709.5,-574.5 709.5,-594.5 828.5,-594.5 828.5,-574.5 709.5,-574.5"/>
<text text-anchor="middle" x="769" y="-581.5" font-family="FreeSans" font-size="10.00" fill="#000000">EicBitMask::GetShift</text>
</a>
</g>
</g>
<!-- Node27&#45;&gt;Node29 -->
<g id="edge32" class="edge">
<title>Node27&#45;&gt;Node29</title>
<path fill="none" stroke="#191970" d="M381.9379,-483.6128C392.0578,-487.6653 402.157,-492.5889 411,-498.5 430.8842,-511.7916 425.8961,-527.2451 447,-538.5 489.4079,-561.1166 617.7825,-573.9942 699.0524,-580.0849"/>
<polygon fill="#191970" stroke="#191970" points="698.9821,-583.589 709.2112,-580.8294 699.4938,-576.6078 698.9821,-583.589"/>
</g>
<!-- Node30 -->
<g id="node30" class="node">
<title>Node30</title>
<g id="a_node30"><a xlink:href="../../da/d86/classEicGeoMap.html#a9c17af03744fe42ae8daf66f9bda7f06" target="_top" xlink:title="EicGeoMap::SetMappingTable\lEntry">
<polygon fill="none" stroke="#000000" points="456,-496.5 456,-528.5 622,-528.5 622,-496.5 456,-496.5"/>
<text text-anchor="start" x="464" y="-515.5" font-family="FreeSans" font-size="10.00" fill="#000000">EicGeoMap::SetMappingTable</text>
<text text-anchor="middle" x="539" y="-503.5" font-family="FreeSans" font-size="10.00" fill="#000000">Entry</text>
</a>
</g>
</g>
<!-- Node27&#45;&gt;Node30 -->
<g id="edge33" class="edge">
<title>Node27&#45;&gt;Node30</title>
<path fill="none" stroke="#191970" d="M400.3878,-483.5555C417.1612,-487.058 435.0244,-490.7881 452.1544,-494.3652"/>
<polygon fill="#191970" stroke="#191970" points="451.6376,-497.8327 462.1419,-496.4507 453.0685,-490.9805 451.6376,-497.8327"/>
</g>
<!-- Node30&#45;&gt;Node4 -->
<g id="edge34" class="edge">
<title>Node30&#45;&gt;Node4</title>
<path fill="none" stroke="#191970" d="M622.0052,-511.3538C718.8371,-510.0166 874.1872,-507.8714 941.11,-506.9473"/>
<polygon fill="#191970" stroke="#191970" points="941.4886,-510.4425 951.4393,-506.8046 941.3919,-503.4431 941.4886,-510.4425"/>
</g>
<!-- Node30&#45;&gt;Node29 -->
<g id="edge40" class="edge">
<title>Node30&#45;&gt;Node29</title>
<path fill="none" stroke="#191970" d="M593.3048,-528.5541C605.8936,-532.8884 619.0876,-537.9387 631,-543.5 647.9908,-551.4322 649.4932,-558.783 667,-565.5 677.2364,-569.4275 688.3713,-572.5614 699.3987,-575.0572"/>
<polygon fill="#191970" stroke="#191970" points="698.9607,-578.5415 709.4669,-577.1742 700.4012,-571.6913 698.9607,-578.5415"/>
</g>
<!-- Node31 -->
<g id="node31" class="node">
<title>Node31</title>
<g id="a_node31"><a xlink:href="../../da/d86/classEicGeoMap.html#ad01497111125dccc306dac986d6d10e1" target="_top" xlink:title="EicGeoMap::CalculateBitPattern">
<polygon fill="none" stroke="#000000" points="681,-535.5 681,-555.5 857,-555.5 857,-535.5 681,-535.5"/>
<text text-anchor="middle" x="769" y="-542.5" font-family="FreeSans" font-size="10.00" fill="#000000">EicGeoMap::CalculateBitPattern</text>
</a>
</g>
</g>
<!-- Node30&#45;&gt;Node31 -->
<g id="edge35" class="edge">
<title>Node30&#45;&gt;Node31</title>
<path fill="none" stroke="#191970" d="M622.0353,-524.4138C643.8072,-527.5376 667.2395,-530.8996 688.857,-534.0012"/>
<polygon fill="#191970" stroke="#191970" points="688.5817,-537.4975 698.9774,-535.4533 689.5759,-530.5684 688.5817,-537.4975"/>
</g>
<!-- Node32 -->
<g id="node32" class="node">
<title>Node32</title>
<g id="a_node32"><a xlink:href="../../d1/d24/classGeantVolumeLevel.html#a4aba5288354c7287b6fc03cd9d30b2a2" target="_top" xlink:title="GeantVolumeLevel::GetVolumeName">
<polygon fill="none" stroke="#000000" points="667,-457.5 667,-477.5 871,-477.5 871,-457.5 667,-457.5"/>
<text text-anchor="middle" x="769" y="-464.5" font-family="FreeSans" font-size="10.00" fill="#000000">GeantVolumeLevel::GetVolumeName</text>
</a>
</g>
</g>
<!-- Node30&#45;&gt;Node32 -->
<g id="edge39" class="edge">
<title>Node30&#45;&gt;Node32</title>
<path fill="none" stroke="#191970" d="M621.0612,-496.4445C649.6599,-490.8492 681.2268,-484.673 707.8304,-479.468"/>
<polygon fill="#191970" stroke="#191970" points="708.6251,-482.8789 717.767,-477.5239 707.281,-476.0092 708.6251,-482.8789"/>
</g>
<!-- Node31&#45;&gt;Node4 -->
<g id="edge38" class="edge">
<title>Node31&#45;&gt;Node4</title>
<path fill="none" stroke="#191970" d="M821.6638,-535.4565C859.409,-528.2582 909.0489,-518.7914 941.1169,-512.6757"/>
<polygon fill="#191970" stroke="#191970" points="942.1087,-516.0498 951.276,-510.7383 940.7973,-509.1737 942.1087,-516.0498"/>
</g>
<!-- Node31&#45;&gt;Node6 -->
<g id="edge36" class="edge">
<title>Node31&#45;&gt;Node6</title>
<path fill="none" stroke="#191970" d="M834.4608,-555.5537C846.7618,-558.2222 859.3973,-561.5057 871,-565.5 898.5265,-574.9763 927.9689,-590.5404 948.2032,-602.1757"/>
<polygon fill="#191970" stroke="#191970" points="946.6809,-605.34 957.0798,-607.3683 950.2154,-599.2979 946.6809,-605.34"/>
</g>
<!-- Node31&#45;&gt;Node7 -->
<g id="edge37" class="edge">
<title>Node31&#45;&gt;Node7</title>
<path fill="none" stroke="#191970" d="M857.2102,-550.2448C870.3462,-550.9514 883.7973,-551.6749 896.674,-552.3675"/>
<polygon fill="#191970" stroke="#191970" points="896.6871,-555.8732 906.8607,-552.9155 897.0631,-548.8833 896.6871,-555.8732"/>
</g>
<!-- Node35 -->
<g id="node35" class="node">
<title>Node35</title>
<g id="a_node35"><a xlink:href="../../df/dce/classActs_1_1Logging_1_1OutputPrintPolicy.html#ab113823970013e1e7f310b36509136ac" target="_top" xlink:title="handle output of debug message">
<polygon fill="none" stroke="#000000" points="248,-111.5 248,-143.5 399,-143.5 399,-111.5 248,-111.5"/>
<text text-anchor="start" x="256" y="-130.5" font-family="FreeSans" font-size="10.00" fill="#000000">Acts::Logging::OutputPrint</text>
<text text-anchor="middle" x="323.5" y="-118.5" font-family="FreeSans" font-size="10.00" fill="#000000">Policy::flush</text>
</a>
</g>
</g>
<!-- Node34&#45;&gt;Node35 -->
<g id="edge43" class="edge">
<title>Node34&#45;&gt;Node35</title>
<path fill="none" stroke="#191970" d="M200.4119,-127.5C212.1524,-127.5 224.9407,-127.5 237.688,-127.5"/>
<polygon fill="#191970" stroke="#191970" points="237.8816,-131.0001 247.8816,-127.5 237.8815,-124.0001 237.8816,-131.0001"/>
</g>
<!-- Node37 -->
<g id="node37" class="node">
<title>Node37</title>
<g id="a_node37"><a xlink:href="../../d8/d1a/classHiMain1.html#abdd4d6ac793897447c6d9f7b9e6d20ca" target="_top" xlink:title="HiMain1::init">
<polygon fill="none" stroke="#000000" points="283,-66.5 283,-86.5 364,-86.5 364,-66.5 283,-66.5"/>
<text text-anchor="middle" x="323.5" y="-73.5" font-family="FreeSans" font-size="10.00" fill="#000000">HiMain1::init</text>
</a>
</g>
</g>
<!-- Node36&#45;&gt;Node37 -->
<g id="edge45" class="edge">
<title>Node36&#45;&gt;Node37</title>
<path fill="none" stroke="#191970" d="M186.8639,-85.8962C212.0178,-84.1664 245.3372,-81.8751 272.7756,-79.9882"/>
<polygon fill="#191970" stroke="#191970" points="273.2381,-83.4648 282.9744,-79.2869 272.7578,-76.4813 273.2381,-83.4648"/>
</g>
<!-- Node38 -->
<g id="node38" class="node">
<title>Node38</title>
<g id="a_node38"><a xlink:href="../../d7/dc3/HiMain1_8h.html#af413dd2854a4d96511498e79f1519c57" target="_top" xlink:title="himain1_address_">
<polygon fill="none" stroke="#000000" points="485,-64.5 485,-84.5 593,-84.5 593,-64.5 485,-64.5"/>
<text text-anchor="middle" x="539" y="-71.5" font-family="FreeSans" font-size="10.00" fill="#000000">himain1_address_</text>
</a>
</g>
</g>
<!-- Node37&#45;&gt;Node38 -->
<g id="edge46" class="edge">
<title>Node37&#45;&gt;Node38</title>
<path fill="none" stroke="#191970" d="M364.0339,-76.1238C395.1055,-75.8354 438.5931,-75.4319 474.4389,-75.0992"/>
<polygon fill="#191970" stroke="#191970" points="474.8445,-78.5957 484.8115,-75.0029 474.7794,-71.596 474.8445,-78.5957"/>
</g>
</g>
</svg>
