<?xml version="1.0" encoding="UTF-8" standalone="no"?>
<!DOCTYPE svg PUBLIC "-//W3C//DTD SVG 1.1//EN"
 "http://www.w3.org/Graphics/SVG/1.1/DTD/svg11.dtd">
<!-- Generated by graphviz version 2.40.1 (20161225.0304)
 -->
<!-- Title: BuildNaiveHandBookDetector Pages: 1 -->
<svg width="541pt" height="272pt"
 viewBox="0.00 0.00 541.00 272.00" xmlns="http://www.w3.org/2000/svg" xmlns:xlink="http://www.w3.org/1999/xlink">
<g id="graph0" class="graph" transform="scale(1 1) rotate(0) translate(4 268)">
<title>BuildNaiveHandBookDetector</title>
<!-- Node1 -->
<g id="node1" class="node">
<title>Node1</title>
<polygon fill="#bfbfbf" stroke="#000000" points="0,-121.5 0,-141.5 167,-141.5 167,-121.5 0,-121.5"/>
<text text-anchor="middle" x="83.5" y="-128.5" font-family="FreeSans" font-size="10.00" fill="#000000">BuildNaiveHandBookDetector</text>
</g>
<!-- Node2 -->
<g id="node2" class="node">
<title>Node2</title>
<g id="a_node2"><a xlink:href="../../d2/d7d/classSmear_1_1Detector.html#a24002b3325179692dcf687c9ac6ef4f4" target="_top" xlink:title="Smear::Detector::AddDevice">
<polygon fill="none" stroke="#000000" points="203,-243.5 203,-263.5 363,-263.5 363,-243.5 203,-243.5"/>
<text text-anchor="middle" x="283" y="-250.5" font-family="FreeSans" font-size="10.00" fill="#000000">Smear::Detector::AddDevice</text>
</a>
</g>
</g>
<!-- Node1&#45;&gt;Node2 -->
<g id="edge1" class="edge">
<title>Node1&#45;&gt;Node2</title>
<path fill="none" stroke="#191970" d="M92.2376,-141.7972C110.5418,-162.6758 155.1932,-210.0786 203,-234.5 207.2269,-236.6593 211.7054,-238.5781 216.2988,-240.2827"/>
<polygon fill="#191970" stroke="#191970" points="215.2509,-243.6228 225.8449,-243.4887 217.4796,-236.987 215.2509,-243.6228"/>
</g>
<!-- Node4 -->
<g id="node4" class="node">
<title>Node4</title>
<g id="a_node4"><a xlink:href="../../d2/d55/classSmear_1_1Acceptance.html#a77ce79bbc82ad642fc2da89768b1a064" target="_top" xlink:title="Smear::Acceptance::\lAddZone">
<polygon fill="none" stroke="#000000" points="223,-192.5 223,-224.5 343,-224.5 343,-192.5 223,-192.5"/>
<text text-anchor="start" x="231" y="-211.5" font-family="FreeSans" font-size="10.00" fill="#000000">Smear::Acceptance::</text>
<text text-anchor="middle" x="283" y="-199.5" font-family="FreeSans" font-size="10.00" fill="#000000">AddZone</text>
</a>
</g>
</g>
<!-- Node1&#45;&gt;Node4 -->
<g id="edge3" class="edge">
<title>Node1&#45;&gt;Node4</title>
<path fill="none" stroke="#191970" d="M104.8032,-141.5996C128.4866,-152.6315 168.0171,-170.4656 203,-183.5 208.1985,-185.4369 213.623,-187.3514 219.0908,-189.2072"/>
<polygon fill="#191970" stroke="#191970" points="218.3467,-192.6479 228.9402,-192.4763 220.5519,-186.0043 218.3467,-192.6479"/>
</g>
<!-- Node5 -->
<g id="node5" class="node">
<title>Node5</title>
<g id="a_node5"><a xlink:href="../../d2/d55/classSmear_1_1Acceptance.html#a903b3145e29d584e59d8c558edb0afd3" target="_top" xlink:title="Smear::Acceptance::\lSetCharge">
<polygon fill="none" stroke="#000000" points="223,-141.5 223,-173.5 343,-173.5 343,-141.5 223,-141.5"/>
<text text-anchor="start" x="231" y="-160.5" font-family="FreeSans" font-size="10.00" fill="#000000">Smear::Acceptance::</text>
<text text-anchor="middle" x="283" y="-148.5" font-family="FreeSans" font-size="10.00" fill="#000000">SetCharge</text>
</a>
</g>
</g>
<!-- Node1&#45;&gt;Node5 -->
<g id="edge4" class="edge">
<title>Node1&#45;&gt;Node5</title>
<path fill="none" stroke="#191970" d="M160.3465,-141.5151C177.5266,-143.7541 195.6648,-146.118 212.5699,-148.3211"/>
<polygon fill="#191970" stroke="#191970" points="212.5483,-151.8478 222.9168,-149.6696 213.453,-144.9065 212.5483,-151.8478"/>
</g>
<!-- Node6 -->
<g id="node6" class="node">
<title>Node6</title>
<g id="a_node6"><a xlink:href="../../d2/d7d/classSmear_1_1Detector.html#a5b428e506b13f0d13c8604f3906339da" target="_top" xlink:title="Smear::Detector::SetEvent\lKinematicsCalculator">
<polygon fill="none" stroke="#000000" points="207,-90.5 207,-122.5 359,-122.5 359,-90.5 207,-90.5"/>
<text text-anchor="start" x="215" y="-109.5" font-family="FreeSans" font-size="10.00" fill="#000000">Smear::Detector::SetEvent</text>
<text text-anchor="middle" x="283" y="-97.5" font-family="FreeSans" font-size="10.00" fill="#000000">KinematicsCalculator</text>
</a>
</g>
</g>
<!-- Node1&#45;&gt;Node6 -->
<g id="edge5" class="edge">
<title>Node1&#45;&gt;Node6</title>
<path fill="none" stroke="#191970" d="M163.4948,-121.4756C174.4503,-120.1027 185.737,-118.6884 196.7972,-117.3024"/>
<polygon fill="#191970" stroke="#191970" points="197.3878,-120.7558 206.875,-116.0395 196.5174,-113.8101 197.3878,-120.7558"/>
</g>
<!-- Node7 -->
<g id="node7" class="node">
<title>Node7</title>
<g id="a_node7"><a xlink:href="../../d2/d55/classSmear_1_1Acceptance.html#a411867b7fb1f954336ce788a4fee977d" target="_top" xlink:title="Smear::Acceptance::\lSetGenre">
<polygon fill="none" stroke="#000000" points="223,-39.5 223,-71.5 343,-71.5 343,-39.5 223,-39.5"/>
<text text-anchor="start" x="231" y="-58.5" font-family="FreeSans" font-size="10.00" fill="#000000">Smear::Acceptance::</text>
<text text-anchor="middle" x="283" y="-46.5" font-family="FreeSans" font-size="10.00" fill="#000000">SetGenre</text>
</a>
</g>
</g>
<!-- Node1&#45;&gt;Node7 -->
<g id="edge6" class="edge">
<title>Node1&#45;&gt;Node7</title>
<path fill="none" stroke="#191970" d="M106.1871,-121.3524C130.0614,-110.8288 168.8422,-94.1723 203,-81.5 209.0202,-79.2665 215.3324,-77.0333 221.6587,-74.8661"/>
<polygon fill="#191970" stroke="#191970" points="223.2136,-78.0355 231.5715,-71.5243 220.9774,-71.4023 223.2136,-78.0355"/>
</g>
<!-- Node8 -->
<g id="node8" class="node">
<title>Node8</title>
<g id="a_node8"><a xlink:href="../../de/ddb/smearNaiveHandBook_8cxx.html#ac8fda9b7ace75b22b8e9fe060604014b" target="_top" xlink:title="ThetaFromEta">
<polygon fill="none" stroke="#000000" points="239.5,-.5 239.5,-20.5 326.5,-20.5 326.5,-.5 239.5,-.5"/>
<text text-anchor="middle" x="283" y="-7.5" font-family="FreeSans" font-size="10.00" fill="#000000">ThetaFromEta</text>
</a>
</g>
</g>
<!-- Node1&#45;&gt;Node8 -->
<g id="edge7" class="edge">
<title>Node1&#45;&gt;Node8</title>
<path fill="none" stroke="#191970" d="M92.3067,-121.4561C110.7383,-101.0812 155.6123,-54.7706 203,-30.5 211.2347,-26.2824 220.41,-22.9197 229.5262,-20.249"/>
<polygon fill="#191970" stroke="#191970" points="230.5957,-23.5859 239.3477,-17.6149 228.7824,-16.8249 230.5957,-23.5859"/>
</g>
<!-- Node3 -->
<g id="node3" class="node">
<title>Node3</title>
<g id="a_node3"><a xlink:href="../../d1/d9f/classSmear_1_1Smearer.html#ab7f0eb6bd118335376b94d622c2f74f5" target="_top" xlink:title="Smear::Smearer::Clone">
<polygon fill="none" stroke="#000000" points="399,-243.5 399,-263.5 533,-263.5 533,-243.5 399,-243.5"/>
<text text-anchor="middle" x="466" y="-250.5" font-family="FreeSans" font-size="10.00" fill="#000000">Smear::Smearer::Clone</text>
</a>
</g>
</g>
<!-- Node2&#45;&gt;Node3 -->
<g id="edge2" class="edge">
<title>Node2&#45;&gt;Node3</title>
<path fill="none" stroke="#191970" d="M363.0002,-253.5C371.4788,-253.5 380.0913,-253.5 388.5401,-253.5"/>
<polygon fill="#191970" stroke="#191970" points="388.7447,-257.0001 398.7447,-253.5 388.7446,-250.0001 388.7447,-257.0001"/>
</g>
</g>
</svg>
