<?xml version="1.0" encoding="UTF-8" standalone="no"?>
<!DOCTYPE svg PUBLIC "-//W3C//DTD SVG 1.1//EN"
 "http://www.w3.org/Graphics/SVG/1.1/DTD/svg11.dtd">
<!-- Generated by graphviz version 2.40.1 (20161225.0304)
 -->
<!-- Title: fun4all_coresoftware/blob/master/offline/framework/fun4all/Fun4AllSyncManager.cc Pages: 1 -->
<svg width="1276pt" height="293pt"
 viewBox="0.00 0.00 1275.94 293.00" xmlns="http://www.w3.org/2000/svg" xmlns:xlink="http://www.w3.org/1999/xlink">
<g id="graph0" class="graph" transform="scale(1 1) rotate(0) translate(4 289)">
<title>fun4all_coresoftware/blob/master/offline/framework/fun4all/Fun4AllSyncManager.cc</title>
<!-- Node1 -->
<g id="node1" class="node">
<title>Node1</title>
<polygon fill="#bfbfbf" stroke="#000000" points="437.9353,-228.5 437.9353,-284.5 615.9353,-284.5 615.9353,-228.5 437.9353,-228.5"/>
<text text-anchor="start" x="445.9353" y="-271.5" font-family="FreeSans" font-size="10.00" fill="#000000">fun4all_coresoftware</text>
<text text-anchor="start" x="445.9353" y="-259.5" font-family="FreeSans" font-size="10.00" fill="#000000">/blob/master/offline</text>
<text text-anchor="start" x="445.9353" y="-247.5" font-family="FreeSans" font-size="10.00" fill="#000000">/framework/fun4all/Fun4AllSync</text>
<text text-anchor="middle" x="526.9353" y="-235.5" font-family="FreeSans" font-size="10.00" fill="#000000">Manager.cc</text>
</g>
<!-- Node2 -->
<g id="node2" class="node">
<title>Node2</title>
<g id="a_node2"><a xlink:href="../../d9/ddf/Fun4AllSyncManager_8h.html" target="_top" xlink:title="Fun4AllSyncManager.h">
<polygon fill="none" stroke="#000000" points="17.4353,-171.5 17.4353,-191.5 148.4353,-191.5 148.4353,-171.5 17.4353,-171.5"/>
<text text-anchor="middle" x="82.9353" y="-178.5" font-family="FreeSans" font-size="10.00" fill="#000000">Fun4AllSyncManager.h</text>
</a>
</g>
</g>
<!-- Node1&#45;&gt;Node2 -->
<g id="edge1" class="edge">
<title>Node1&#45;&gt;Node2</title>
<path fill="none" stroke="#191970" d="M437.886,-241.4579C353.8173,-227.2571 229.4773,-206.2537 152.4747,-193.2465"/>
<polygon fill="#191970" stroke="#191970" points="152.8404,-189.7588 142.3971,-191.5442 151.6744,-196.661 152.8404,-189.7588"/>
</g>
<!-- Node5 -->
<g id="node5" class="node">
<title>Node5</title>
<polygon fill="none" stroke="#bfbfbf" points="403.4353,-.5 403.4353,-20.5 448.4353,-20.5 448.4353,-.5 403.4353,-.5"/>
<text text-anchor="middle" x="425.9353" y="-7.5" font-family="FreeSans" font-size="10.00" fill="#000000">string</text>
</g>
<!-- Node1&#45;&gt;Node5 -->
<g id="edge42" class="edge">
<title>Node1&#45;&gt;Node5</title>
<path fill="none" stroke="#191970" d="M437.7286,-251.7502C296.8475,-243.3268 35.8696,-223.6208 7.9353,-192 -17.1662,-163.5858 25.1245,-133.377 48.9353,-114 169.7814,-15.6568 234.7638,-54.4516 386.9353,-21 389.1054,-20.523 391.3358,-20.0031 393.5783,-19.4584"/>
<polygon fill="#191970" stroke="#191970" points="394.5149,-22.8317 403.3382,-16.9666 392.7832,-16.0492 394.5149,-22.8317"/>
</g>
<!-- Node6 -->
<g id="node6" class="node">
<title>Node6</title>
<polygon fill="none" stroke="#bfbfbf" points="76.4353,-114.5 76.4353,-134.5 125.4353,-134.5 125.4353,-114.5 76.4353,-114.5"/>
<text text-anchor="middle" x="100.9353" y="-121.5" font-family="FreeSans" font-size="10.00" fill="#000000">vector</text>
</g>
<!-- Node1&#45;&gt;Node6 -->
<g id="edge44" class="edge">
<title>Node1&#45;&gt;Node6</title>
<path fill="none" stroke="#191970" d="M437.8258,-232.4673C395.5771,-220.7729 344.4926,-206.1985 298.9353,-192 241.0437,-173.9574 174.4422,-150.7369 135.118,-136.7676"/>
<polygon fill="#191970" stroke="#191970" points="136.0871,-133.3974 125.4925,-133.3394 133.7385,-139.9917 136.0871,-133.3974"/>
</g>
<!-- Node7 -->
<g id="node7" class="node">
<title>Node7</title>
<g id="a_node7"><a xlink:href="../../d1/de7/Fun4AllInputManager_8h.html" target="_top" xlink:title="Fun4AllInputManager.h">
<polygon fill="none" stroke="#000000" points="307.9353,-171.5 307.9353,-191.5 439.9353,-191.5 439.9353,-171.5 307.9353,-171.5"/>
<text text-anchor="middle" x="373.9353" y="-178.5" font-family="FreeSans" font-size="10.00" fill="#000000">Fun4AllInputManager.h</text>
</a>
</g>
</g>
<!-- Node1&#45;&gt;Node7 -->
<g id="edge7" class="edge">
<title>Node1&#45;&gt;Node7</title>
<path fill="none" stroke="#191970" d="M469.5284,-228.3594C447.1442,-217.3867 422.4301,-205.272 403.7392,-196.1098"/>
<polygon fill="#191970" stroke="#191970" points="405.0782,-192.8683 394.5584,-191.6094 401.997,-199.1537 405.0782,-192.8683"/>
</g>
<!-- Node9 -->
<g id="node9" class="node">
<title>Node9</title>
<polygon fill="none" stroke="#bfbfbf" points="453.9353,-114.5 453.9353,-134.5 485.9353,-134.5 485.9353,-114.5 453.9353,-114.5"/>
<text text-anchor="middle" x="469.9353" y="-121.5" font-family="FreeSans" font-size="10.00" fill="#000000">list</text>
</g>
<!-- Node1&#45;&gt;Node9 -->
<g id="edge41" class="edge">
<title>Node1&#45;&gt;Node9</title>
<path fill="none" stroke="#191970" d="M514.7074,-228.1827C503.7504,-202.8087 487.9679,-166.2597 478.3631,-144.0169"/>
<polygon fill="#191970" stroke="#191970" points="481.4858,-142.4198 474.3082,-134.6267 475.0594,-145.1949 481.4858,-142.4198"/>
</g>
<!-- Node10 -->
<g id="node10" class="node">
<title>Node10</title>
<polygon fill="none" stroke="#bfbfbf" points="504.4353,-114.5 504.4353,-134.5 549.4353,-134.5 549.4353,-114.5 504.4353,-114.5"/>
<text text-anchor="middle" x="526.9353" y="-121.5" font-family="FreeSans" font-size="10.00" fill="#000000">utility</text>
</g>
<!-- Node1&#45;&gt;Node10 -->
<g id="edge43" class="edge">
<title>Node1&#45;&gt;Node10</title>
<path fill="none" stroke="#191970" d="M526.9353,-228.1827C526.9353,-203.1532 526.9353,-167.2499 526.9353,-144.9306"/>
<polygon fill="#191970" stroke="#191970" points="530.4354,-144.6267 526.9353,-134.6267 523.4354,-144.6267 530.4354,-144.6267"/>
</g>
<!-- Node12 -->
<g id="node12" class="node">
<title>Node12</title>
<g id="a_node12"><a xlink:href="../../dc/da2/Fun4AllServer_8h.html" target="_top" xlink:title="Fun4AllServer.h">
<polygon fill="none" stroke="#000000" points="624.4353,-171.5 624.4353,-191.5 719.4353,-191.5 719.4353,-171.5 624.4353,-171.5"/>
<text text-anchor="middle" x="671.9353" y="-178.5" font-family="FreeSans" font-size="10.00" fill="#000000">Fun4AllServer.h</text>
</a>
</g>
</g>
<!-- Node1&#45;&gt;Node12 -->
<g id="edge15" class="edge">
<title>Node1&#45;&gt;Node12</title>
<path fill="none" stroke="#191970" d="M581.3405,-228.3594C602.3597,-217.4874 625.5466,-205.4942 643.2008,-196.3627"/>
<polygon fill="#191970" stroke="#191970" points="645.1164,-199.3124 652.3905,-191.6094 641.9004,-193.0949 645.1164,-199.3124"/>
</g>
<!-- Node18 -->
<g id="node18" class="node">
<title>Node18</title>
<polygon fill="none" stroke="#bfbfbf" points="1030.9353,-57.5 1030.9353,-77.5 1090.9353,-77.5 1090.9353,-57.5 1030.9353,-57.5"/>
<text text-anchor="middle" x="1060.9353" y="-64.5" font-family="FreeSans" font-size="10.00" fill="#000000">iostream</text>
</g>
<!-- Node1&#45;&gt;Node18 -->
<g id="edge40" class="edge">
<title>Node1&#45;&gt;Node18</title>
<path fill="none" stroke="#191970" d="M616.0138,-246.9642C715.7732,-235.4275 870.6031,-214.7073 924.9353,-192 979.3025,-169.278 1025.8012,-114.8612 1047.6371,-86.0784"/>
<polygon fill="#191970" stroke="#191970" points="1050.6985,-87.8256 1053.8388,-77.7068 1045.0738,-83.6588 1050.6985,-87.8256"/>
</g>
<!-- Node20 -->
<g id="node20" class="node">
<title>Node20</title>
<g id="a_node20"><a xlink:href="../../db/d6c/SyncObject_8h.html" target="_top" xlink:title="ffaobjects/SyncObject.h">
<polygon fill="none" stroke="#000000" points="1063.9353,-171.5 1063.9353,-191.5 1199.9353,-191.5 1199.9353,-171.5 1063.9353,-171.5"/>
<text text-anchor="middle" x="1131.9353" y="-178.5" font-family="FreeSans" font-size="10.00" fill="#000000">ffaobjects/SyncObject.h</text>
</a>
</g>
</g>
<!-- Node1&#45;&gt;Node20 -->
<g id="edge32" class="edge">
<title>Node1&#45;&gt;Node20</title>
<path fill="none" stroke="#191970" d="M616.2532,-245.6128C720.3844,-232.8903 897.6647,-211.1385 1049.9353,-192 1051.2169,-191.8389 1052.5098,-191.6762 1053.8115,-191.5121"/>
<polygon fill="#191970" stroke="#191970" points="1054.4434,-194.9602 1063.9254,-190.2333 1053.5653,-188.0155 1054.4434,-194.9602"/>
</g>
<!-- Node23 -->
<g id="node23" class="node">
<title>Node23</title>
<g id="a_node23"><a xlink:href="../../d5/d6f/phool_8h.html" target="_top" xlink:title="phool/phool.h">
<polygon fill="none" stroke="#000000" points="830.4353,-171.5 830.4353,-191.5 915.4353,-191.5 915.4353,-171.5 830.4353,-171.5"/>
<text text-anchor="middle" x="872.9353" y="-178.5" font-family="FreeSans" font-size="10.00" fill="#000000">phool/phool.h</text>
</a>
</g>
</g>
<!-- Node1&#45;&gt;Node23 -->
<g id="edge37" class="edge">
<title>Node1&#45;&gt;Node23</title>
<path fill="none" stroke="#191970" d="M616.0389,-237.1856C680.7473,-223.1592 766.1179,-204.6541 820.2865,-192.9123"/>
<polygon fill="#191970" stroke="#191970" points="821.3257,-196.2684 830.3572,-190.7294 819.8427,-189.4273 821.3257,-196.2684"/>
</g>
<!-- Node24 -->
<g id="node24" class="node">
<title>Node24</title>
<polygon fill="none" stroke="#bfbfbf" points="1217.9353,-171.5 1217.9353,-191.5 1267.9353,-191.5 1267.9353,-171.5 1217.9353,-171.5"/>
<text text-anchor="middle" x="1242.9353" y="-178.5" font-family="FreeSans" font-size="10.00" fill="#000000">cstdlib</text>
</g>
<!-- Node1&#45;&gt;Node24 -->
<g id="edge39" class="edge">
<title>Node1&#45;&gt;Node24</title>
<path fill="none" stroke="#191970" d="M616.0612,-253.8951C745.1299,-248.8333 991.3986,-234.3305 1207.8728,-191.8601"/>
<polygon fill="#191970" stroke="#191970" points="1208.7058,-195.2631 1217.8323,-189.882 1207.342,-188.3973 1208.7058,-195.2631"/>
</g>
<!-- Node3 -->
<g id="node3" class="node">
<title>Node3</title>
<g id="a_node3"><a xlink:href="../../d2/de7/Fun4AllBase_8h.html" target="_top" xlink:title="Fun4AllBase.h">
<polygon fill="none" stroke="#000000" points="310.4353,-57.5 310.4353,-77.5 397.4353,-77.5 397.4353,-57.5 310.4353,-57.5"/>
<text text-anchor="middle" x="353.9353" y="-64.5" font-family="FreeSans" font-size="10.00" fill="#000000">Fun4AllBase.h</text>
</a>
</g>
</g>
<!-- Node2&#45;&gt;Node3 -->
<g id="edge2" class="edge">
<title>Node2&#45;&gt;Node3</title>
<path fill="none" stroke="#191970" d="M75.515,-171.0663C66.2043,-156.582 53.0418,-130.3258 66.9353,-114 81.8457,-96.4794 221.0794,-80.3301 299.9966,-72.485"/>
<polygon fill="#191970" stroke="#191970" points="300.6345,-75.9393 310.2448,-71.4791 299.9507,-68.9727 300.6345,-75.9393"/>
</g>
<!-- Node2&#45;&gt;Node5 -->
<g id="edge5" class="edge">
<title>Node2&#45;&gt;Node5</title>
<path fill="none" stroke="#191970" d="M73.4041,-171.4806C61.2761,-157.4884 43.4311,-131.8131 56.9353,-114 59.5603,-110.5375 303.7883,-43.7592 393.4234,-19.3432"/>
<polygon fill="#191970" stroke="#191970" points="394.5896,-22.6532 403.3187,-16.6489 392.7505,-15.8991 394.5896,-22.6532"/>
</g>
<!-- Node2&#45;&gt;Node6 -->
<g id="edge6" class="edge">
<title>Node2&#45;&gt;Node6</title>
<path fill="none" stroke="#191970" d="M86.1533,-171.3095C88.5082,-163.8524 91.7789,-153.4951 94.6452,-144.4186"/>
<polygon fill="#191970" stroke="#191970" points="98.0713,-145.192 97.7451,-134.6022 91.3962,-143.0841 98.0713,-145.192"/>
</g>
<!-- Node4 -->
<g id="node4" class="node">
<title>Node4</title>
<polygon fill="none" stroke="#bfbfbf" points="329.4353,-.5 329.4353,-20.5 378.4353,-20.5 378.4353,-.5 329.4353,-.5"/>
<text text-anchor="middle" x="353.9353" y="-7.5" font-family="FreeSans" font-size="10.00" fill="#000000">climits</text>
</g>
<!-- Node3&#45;&gt;Node4 -->
<g id="edge3" class="edge">
<title>Node3&#45;&gt;Node4</title>
<path fill="none" stroke="#191970" d="M353.9353,-57.3095C353.9353,-49.9335 353.9353,-39.72 353.9353,-30.715"/>
<polygon fill="#191970" stroke="#191970" points="357.4354,-30.6022 353.9353,-20.6022 350.4354,-30.6023 357.4354,-30.6022"/>
</g>
<!-- Node3&#45;&gt;Node5 -->
<g id="edge4" class="edge">
<title>Node3&#45;&gt;Node5</title>
<path fill="none" stroke="#191970" d="M366.8075,-57.3095C377.4556,-48.8798 392.7851,-36.7439 405.1671,-26.9415"/>
<polygon fill="#191970" stroke="#191970" points="407.5066,-29.5535 413.1746,-20.6022 403.1616,-24.0651 407.5066,-29.5535"/>
</g>
<!-- Node7&#45;&gt;Node3 -->
<g id="edge8" class="edge">
<title>Node7&#45;&gt;Node3</title>
<path fill="none" stroke="#191970" d="M307.6891,-175.0002C255.7877,-168.3775 189.6532,-156.0271 172.9353,-135 136.432,-89.0878 234.2837,-74.4036 299.9509,-69.7075"/>
<polygon fill="#191970" stroke="#191970" points="300.4387,-73.1831 310.1883,-69.0363 299.9807,-66.1981 300.4387,-73.1831"/>
</g>
<!-- Node7&#45;&gt;Node5 -->
<g id="edge11" class="edge">
<title>Node7&#45;&gt;Node5</title>
<path fill="none" stroke="#191970" d="M383.3598,-171.2654C390.9953,-162.3643 401.3681,-148.7657 406.9353,-135 421.011,-100.1959 424.7524,-56.0717 425.6902,-30.7865"/>
<polygon fill="#191970" stroke="#191970" points="429.194,-30.6821 425.9509,-20.5958 422.1962,-30.503 429.194,-30.6821"/>
</g>
<!-- Node7&#45;&gt;Node6 -->
<g id="edge13" class="edge">
<title>Node7&#45;&gt;Node6</title>
<path fill="none" stroke="#191970" d="M317.9195,-171.4572C270.3735,-162.673 200.4342,-149.1385 139.9353,-135 138.4844,-134.6609 137.0056,-134.3058 135.5136,-133.9396"/>
<polygon fill="#191970" stroke="#191970" points="136.1851,-130.4988 125.63,-131.4155 134.453,-137.2811 136.1851,-130.4988"/>
</g>
<!-- Node8 -->
<g id="node8" class="node">
<title>Node8</title>
<g id="a_node8"><a xlink:href="../../da/dc1/Fun4AllReturnCodes_8h.html" target="_top" xlink:title="Fun4AllReturnCodes.h">
<polygon fill="none" stroke="#000000" points="182.4353,-114.5 182.4353,-134.5 309.4353,-134.5 309.4353,-114.5 182.4353,-114.5"/>
<text text-anchor="middle" x="245.9353" y="-121.5" font-family="FreeSans" font-size="10.00" fill="#000000">Fun4AllReturnCodes.h</text>
</a>
</g>
</g>
<!-- Node7&#45;&gt;Node8 -->
<g id="edge9" class="edge">
<title>Node7&#45;&gt;Node8</title>
<path fill="none" stroke="#191970" d="M351.3461,-171.4408C330.9993,-162.3801 300.8665,-148.9615 278.0231,-138.7891"/>
<polygon fill="#191970" stroke="#191970" points="279.2882,-135.5212 268.7292,-134.6504 276.4406,-141.9158 279.2882,-135.5212"/>
</g>
<!-- Node7&#45;&gt;Node9 -->
<g id="edge10" class="edge">
<title>Node7&#45;&gt;Node9</title>
<path fill="none" stroke="#191970" d="M391.0982,-171.3095C406.1148,-162.3934 428.1142,-149.3313 445.0605,-139.2694"/>
<polygon fill="#191970" stroke="#191970" points="447.0672,-142.1484 453.8789,-134.0335 443.4934,-136.1294 447.0672,-142.1484"/>
</g>
<!-- Node7&#45;&gt;Node10 -->
<g id="edge12" class="edge">
<title>Node7&#45;&gt;Node10</title>
<path fill="none" stroke="#191970" d="M400.9364,-171.4408C427.0668,-161.7059 466.7,-146.9406 494.522,-136.5755"/>
<polygon fill="#191970" stroke="#191970" points="496.0421,-139.7443 504.191,-132.9734 493.5983,-133.1847 496.0421,-139.7443"/>
</g>
<!-- Node11 -->
<g id="node11" class="node">
<title>Node11</title>
<polygon fill="none" stroke="#bfbfbf" points="327.9353,-114.5 327.9353,-134.5 397.9353,-134.5 397.9353,-114.5 327.9353,-114.5"/>
<text text-anchor="middle" x="362.9353" y="-121.5" font-family="FreeSans" font-size="10.00" fill="#000000">type_traits</text>
</g>
<!-- Node7&#45;&gt;Node11 -->
<g id="edge14" class="edge">
<title>Node7&#45;&gt;Node11</title>
<path fill="none" stroke="#191970" d="M371.9687,-171.3095C370.5453,-163.9335 368.5742,-153.72 366.8364,-144.715"/>
<polygon fill="#191970" stroke="#191970" points="370.2164,-143.7578 364.8849,-134.6022 363.3432,-145.0843 370.2164,-143.7578"/>
</g>
<!-- Node12&#45;&gt;Node3 -->
<g id="edge16" class="edge">
<title>Node12&#45;&gt;Node3</title>
<path fill="none" stroke="#191970" d="M655.5924,-171.4416C626.5748,-153.6396 568.1374,-118.0672 557.9353,-114 508.8389,-94.4271 449.6512,-82.0819 407.7037,-75.0713"/>
<polygon fill="#191970" stroke="#191970" points="408.1266,-71.5942 397.6946,-73.445 407.0038,-78.5036 408.1266,-71.5942"/>
</g>
<!-- Node12&#45;&gt;Node5 -->
<g id="edge29" class="edge">
<title>Node12&#45;&gt;Node5</title>
<path fill="none" stroke="#191970" d="M711.8552,-171.3353C730.4976,-164.3697 750.959,-153.0258 761.9353,-135 786.1053,-95.3068 718.2863,-62.9619 706.9353,-57 664.2226,-34.5662 523.3564,-19.315 458.7896,-13.3312"/>
<polygon fill="#191970" stroke="#191970" points="459.0215,-9.8379 448.7458,-12.4183 458.3879,-16.8092 459.0215,-9.8379"/>
</g>
<!-- Node12&#45;&gt;Node6 -->
<g id="edge31" class="edge">
<title>Node12&#45;&gt;Node6</title>
<path fill="none" stroke="#191970" d="M624.3745,-177.8948C535.5307,-170.9767 338.3785,-154.7586 172.9353,-135 160.7117,-133.5402 147.3607,-131.6702 135.5121,-129.9138"/>
<polygon fill="#191970" stroke="#191970" points="135.9624,-126.4423 125.5525,-128.4128 134.9192,-133.3641 135.9624,-126.4423"/>
</g>
<!-- Node12&#45;&gt;Node10 -->
<g id="edge30" class="edge">
<title>Node12&#45;&gt;Node10</title>
<path fill="none" stroke="#191970" d="M646.346,-171.4408C622.1231,-161.9186 585.6566,-147.5835 559.3981,-137.2613"/>
<polygon fill="#191970" stroke="#191970" points="560.4682,-133.9212 549.881,-133.52 557.9072,-140.436 560.4682,-133.9212"/>
</g>
<!-- Node13 -->
<g id="node13" class="node">
<title>Node13</title>
<g id="a_node13"><a xlink:href="../../d0/d59/Fun4AllHistoManager_8h.html" target="_top" xlink:title="Fun4AllHistoManager.h">
<polygon fill="none" stroke="#000000" points="605.9353,-114.5 605.9353,-134.5 737.9353,-134.5 737.9353,-114.5 605.9353,-114.5"/>
<text text-anchor="middle" x="671.9353" y="-121.5" font-family="FreeSans" font-size="10.00" fill="#000000">Fun4AllHistoManager.h</text>
</a>
</g>
</g>
<!-- Node12&#45;&gt;Node13 -->
<g id="edge17" class="edge">
<title>Node12&#45;&gt;Node13</title>
<path fill="none" stroke="#191970" d="M671.9353,-171.3095C671.9353,-163.9335 671.9353,-153.72 671.9353,-144.715"/>
<polygon fill="#191970" stroke="#191970" points="675.4354,-144.6022 671.9353,-134.6022 668.4354,-144.6023 675.4354,-144.6022"/>
</g>
<!-- Node14 -->
<g id="node14" class="node">
<title>Node14</title>
<polygon fill="none" stroke="#bfbfbf" points="658.4353,-57.5 658.4353,-77.5 697.4353,-77.5 697.4353,-57.5 658.4353,-57.5"/>
<text text-anchor="middle" x="677.9353" y="-64.5" font-family="FreeSans" font-size="10.00" fill="#000000">map</text>
</g>
<!-- Node12&#45;&gt;Node14 -->
<g id="edge28" class="edge">
<title>Node12&#45;&gt;Node14</title>
<path fill="none" stroke="#191970" d="M701.517,-171.442C718.0599,-164.1216 737.249,-152.4024 746.9353,-135 759.6705,-112.1198 731.152,-92.0227 706.9961,-79.8356"/>
<polygon fill="#191970" stroke="#191970" points="708.2469,-76.5546 697.7138,-75.4125 705.2356,-82.8739 708.2469,-76.5546"/>
</g>
<!-- Node15 -->
<g id="node15" class="node">
<title>Node15</title>
<g id="a_node15"><a xlink:href="../../dc/d26/PHTimer_8h.html" target="_top" xlink:title="high precision timer">
<polygon fill="none" stroke="#000000" points="832.4353,-114.5 832.4353,-134.5 931.4353,-134.5 931.4353,-114.5 832.4353,-114.5"/>
<text text-anchor="middle" x="881.9353" y="-121.5" font-family="FreeSans" font-size="10.00" fill="#000000">phool/PHTimer.h</text>
</a>
</g>
</g>
<!-- Node12&#45;&gt;Node15 -->
<g id="edge21" class="edge">
<title>Node12&#45;&gt;Node15</title>
<path fill="none" stroke="#191970" d="M708.9957,-171.4408C744.1245,-161.9058 797.0334,-147.5448 835.0741,-137.2195"/>
<polygon fill="#191970" stroke="#191970" points="836.1588,-140.5518 844.8928,-134.5544 834.3251,-133.7962 836.1588,-140.5518"/>
</g>
<!-- Node12&#45;&gt;Node18 -->
<g id="edge27" class="edge">
<title>Node12&#45;&gt;Node18</title>
<path fill="none" stroke="#191970" d="M719.6061,-178.935C774.5815,-174.7012 866.8924,-163.6291 940.9353,-135 957.15,-128.7305 958.9252,-122.7703 973.9353,-114 993.0245,-102.8463 1014.9847,-91.1171 1032.0661,-82.2291"/>
<polygon fill="#191970" stroke="#191970" points="1033.7307,-85.3086 1041.0047,-77.6053 1030.5145,-79.0912 1033.7307,-85.3086"/>
</g>
<!-- Node13&#45;&gt;Node3 -->
<g id="edge18" class="edge">
<title>Node13&#45;&gt;Node3</title>
<path fill="none" stroke="#191970" d="M615.8153,-114.4408C557.1119,-103.9185 465.62,-87.519 407.781,-77.1516"/>
<polygon fill="#191970" stroke="#191970" points="408.2018,-73.6713 397.7412,-75.352 406.9667,-80.5615 408.2018,-73.6713"/>
</g>
<!-- Node13&#45;&gt;Node5 -->
<g id="edge20" class="edge">
<title>Node13&#45;&gt;Node5</title>
<path fill="none" stroke="#191970" d="M650.1044,-114.3833C606.2482,-94.0596 507.3348,-48.2217 456.8476,-24.8252"/>
<polygon fill="#191970" stroke="#191970" points="458.262,-21.6231 447.7172,-20.5941 455.3187,-27.9743 458.262,-21.6231"/>
</g>
<!-- Node13&#45;&gt;Node14 -->
<g id="edge19" class="edge">
<title>Node13&#45;&gt;Node14</title>
<path fill="none" stroke="#191970" d="M673.008,-114.3095C673.7844,-106.9335 674.8595,-96.72 675.8074,-87.715"/>
<polygon fill="#191970" stroke="#191970" points="679.3057,-87.9137 676.8719,-77.6022 672.3442,-87.1809 679.3057,-87.9137"/>
</g>
<!-- Node15&#45;&gt;Node5 -->
<g id="edge25" class="edge">
<title>Node15&#45;&gt;Node5</title>
<path fill="none" stroke="#191970" d="M862.1009,-114.4498C825.838,-96.1042 751.99,-58.8896 745.9353,-57 644.2786,-25.275 517.574,-15.0342 458.7582,-11.8576"/>
<polygon fill="#191970" stroke="#191970" points="458.7515,-8.3529 448.5874,-11.3431 458.3977,-15.344 458.7515,-8.3529"/>
</g>
<!-- Node16 -->
<g id="node16" class="node">
<title>Node16</title>
<polygon fill="none" stroke="#bfbfbf" points="798.4353,-57.5 798.4353,-77.5 855.4353,-77.5 855.4353,-57.5 798.4353,-57.5"/>
<text text-anchor="middle" x="826.9353" y="-64.5" font-family="FreeSans" font-size="10.00" fill="#000000">unistd.h</text>
</g>
<!-- Node15&#45;&gt;Node16 -->
<g id="edge22" class="edge">
<title>Node15&#45;&gt;Node16</title>
<path fill="none" stroke="#191970" d="M872.1024,-114.3095C864.2813,-106.204 853.1538,-94.672 843.9009,-85.0826"/>
<polygon fill="#191970" stroke="#191970" points="846.1455,-82.3681 836.6831,-77.6022 841.1081,-87.2288 846.1455,-82.3681"/>
</g>
<!-- Node17 -->
<g id="node17" class="node">
<title>Node17</title>
<polygon fill="none" stroke="#bfbfbf" points="873.4353,-57.5 873.4353,-77.5 938.4353,-77.5 938.4353,-57.5 873.4353,-57.5"/>
<text text-anchor="middle" x="905.9353" y="-64.5" font-family="FreeSans" font-size="10.00" fill="#000000">exception</text>
</g>
<!-- Node15&#45;&gt;Node17 -->
<g id="edge23" class="edge">
<title>Node15&#45;&gt;Node17</title>
<path fill="none" stroke="#191970" d="M886.226,-114.3095C889.4341,-106.6903 893.917,-96.0435 897.797,-86.8285"/>
<polygon fill="#191970" stroke="#191970" points="901.0268,-88.1768 901.6817,-77.6022 894.5754,-85.4604 901.0268,-88.1768"/>
</g>
<!-- Node15&#45;&gt;Node18 -->
<g id="edge24" class="edge">
<title>Node15&#45;&gt;Node18</title>
<path fill="none" stroke="#191970" d="M913.5249,-114.4408C943.5405,-104.8827 988.7851,-90.4752 1021.2271,-80.1445"/>
<polygon fill="#191970" stroke="#191970" points="1022.3868,-83.4485 1030.8533,-77.0792 1020.2627,-76.7785 1022.3868,-83.4485"/>
</g>
<!-- Node19 -->
<g id="node19" class="node">
<title>Node19</title>
<polygon fill="none" stroke="#bfbfbf" points="956.9353,-57.5 956.9353,-77.5 1012.9353,-77.5 1012.9353,-57.5 956.9353,-57.5"/>
<text text-anchor="middle" x="984.9353" y="-64.5" font-family="FreeSans" font-size="10.00" fill="#000000">sstream</text>
</g>
<!-- Node15&#45;&gt;Node19 -->
<g id="edge26" class="edge">
<title>Node15&#45;&gt;Node19</title>
<path fill="none" stroke="#191970" d="M900.3496,-114.3095C916.3147,-105.4745 939.6362,-92.5684 957.7496,-82.5445"/>
<polygon fill="#191970" stroke="#191970" points="959.6255,-85.5066 966.6804,-77.6022 956.2361,-79.3819 959.6255,-85.5066"/>
</g>
<!-- Node20&#45;&gt;Node18 -->
<g id="edge36" class="edge">
<title>Node20&#45;&gt;Node18</title>
<path fill="none" stroke="#191970" d="M1122.1364,-171.387C1113.7095,-162.3462 1101.5817,-148.4808 1092.9353,-135 1083.1154,-119.6896 1074.4507,-100.8954 1068.6228,-87.0298"/>
<polygon fill="#191970" stroke="#191970" points="1071.7643,-85.4644 1064.7469,-77.5267 1065.2827,-88.108 1071.7643,-85.4644"/>
</g>
<!-- Node21 -->
<g id="node21" class="node">
<title>Node21</title>
<g id="a_node21"><a xlink:href="../../df/d32/PHObject_8h.html" target="_top" xlink:title="phool/PHObject.h">
<polygon fill="none" stroke="#000000" points="1101.9353,-114.5 1101.9353,-134.5 1205.9353,-134.5 1205.9353,-114.5 1101.9353,-114.5"/>
<text text-anchor="middle" x="1153.9353" y="-121.5" font-family="FreeSans" font-size="10.00" fill="#000000">phool/PHObject.h</text>
</a>
</g>
</g>
<!-- Node20&#45;&gt;Node21 -->
<g id="edge33" class="edge">
<title>Node20&#45;&gt;Node21</title>
<path fill="none" stroke="#191970" d="M1135.8685,-171.3095C1138.7779,-163.7714 1142.8312,-153.2696 1146.3615,-144.123"/>
<polygon fill="#191970" stroke="#191970" points="1149.7006,-145.1918 1150.0362,-134.6022 1143.1701,-142.6712 1149.7006,-145.1918"/>
</g>
<!-- Node21&#45;&gt;Node18 -->
<g id="edge35" class="edge">
<title>Node21&#45;&gt;Node18</title>
<path fill="none" stroke="#191970" d="M1137.3088,-114.3095C1123.1582,-105.6366 1102.6069,-93.0407 1086.3866,-83.0992"/>
<polygon fill="#191970" stroke="#191970" points="1087.7729,-79.8438 1077.4179,-77.6022 1084.1149,-85.812 1087.7729,-79.8438"/>
</g>
<!-- Node22 -->
<g id="node22" class="node">
<title>Node22</title>
<polygon fill="none" stroke="#bfbfbf" points="1121.4353,-57.5 1121.4353,-77.5 1186.4353,-77.5 1186.4353,-57.5 1121.4353,-57.5"/>
<text text-anchor="middle" x="1153.9353" y="-64.5" font-family="FreeSans" font-size="10.00" fill="#000000">TObject.h</text>
</g>
<!-- Node21&#45;&gt;Node22 -->
<g id="edge34" class="edge">
<title>Node21&#45;&gt;Node22</title>
<path fill="none" stroke="#191970" d="M1153.9353,-114.3095C1153.9353,-106.9335 1153.9353,-96.72 1153.9353,-87.715"/>
<polygon fill="#191970" stroke="#191970" points="1157.4354,-87.6022 1153.9353,-77.6022 1150.4354,-87.6023 1157.4354,-87.6022"/>
</g>
<!-- Node23&#45;&gt;Node18 -->
<g id="edge38" class="edge">
<title>Node23&#45;&gt;Node18</title>
<path fill="none" stroke="#191970" d="M899.0817,-171.3982C919.9774,-162.8732 949.6793,-149.7269 973.9353,-135 998.932,-119.8233 1025.1191,-98.6832 1042.1489,-84.125"/>
<polygon fill="#191970" stroke="#191970" points="1044.4595,-86.7541 1049.728,-77.562 1039.8772,-81.4623 1044.4595,-86.7541"/>
</g>
</g>
</svg>
