<?xml version="1.0" encoding="UTF-8" standalone="no"?>
<!DOCTYPE svg PUBLIC "-//W3C//DTD SVG 1.1//EN"
 "http://www.w3.org/Graphics/SVG/1.1/DTD/svg11.dtd">
<!-- Generated by graphviz version 2.40.1 (20161225.0304)
 -->
<!-- Title: Mgrid::linearAddrToCoord Pages: 1 -->
<svg width="3149pt" height="421pt"
 viewBox="0.00 0.00 3149.00 421.00" xmlns="http://www.w3.org/2000/svg" xmlns:xlink="http://www.w3.org/1999/xlink">
<g id="graph0" class="graph" transform="scale(1 1) rotate(0) translate(4 417)">
<title>Mgrid::linearAddrToCoord</title>
<!-- Node1 -->
<g id="node1" class="node">
<title>Node1</title>
<polygon fill="#bfbfbf" stroke="#000000" points="0,-286.5 0,-306.5 144,-306.5 144,-286.5 0,-286.5"/>
<text text-anchor="middle" x="72" y="-293.5" font-family="FreeSans" font-size="10.00" fill="#000000">Mgrid::linearAddrToCoord</text>
</g>
<!-- Node2 -->
<g id="node2" class="node">
<title>Node2</title>
<g id="a_node2"><a xlink:href="../../d0/d70/classMgrid.html#abb0760908d5f4f4d262b2ec06f3bea64" target="_top" xlink:title="Mgrid::cellPtrToCoord">
<polygon fill="none" stroke="#000000" points="191,-309.5 191,-329.5 314,-329.5 314,-309.5 191,-309.5"/>
<text text-anchor="middle" x="252.5" y="-316.5" font-family="FreeSans" font-size="10.00" fill="#000000">Mgrid::cellPtrToCoord</text>
</a>
</g>
</g>
<!-- Node1&#45;&gt;Node2 -->
<g id="edge1" class="edge">
<title>Node1&#45;&gt;Node2</title>
<path fill="none" stroke="#191970" d="M154.385,-306.9978C166.6885,-308.5656 179.1885,-310.1584 190.9609,-311.6584"/>
<polygon fill="#191970" stroke="#191970" points="154.4788,-303.4815 144.1166,-305.6894 153.5939,-310.4254 154.4788,-303.4815"/>
</g>
<!-- Node44 -->
<g id="node44" class="node">
<title>Node44</title>
<g id="a_node44"><a xlink:href="../../d9/d6a/classHtcKalmanFilter.html#af18b22f18b11d6b11647a17a97806c2f" target="_top" xlink:title="HtcKalmanFilter::Initialize\lMgridSlice">
<polygon fill="none" stroke="#000000" points="180,-258.5 180,-290.5 325,-290.5 325,-258.5 180,-258.5"/>
<text text-anchor="start" x="188" y="-277.5" font-family="FreeSans" font-size="10.00" fill="#000000">HtcKalmanFilter::Initialize</text>
<text text-anchor="middle" x="252.5" y="-265.5" font-family="FreeSans" font-size="10.00" fill="#000000">MgridSlice</text>
</a>
</g>
</g>
<!-- Node1&#45;&gt;Node44 -->
<g id="edge59" class="edge">
<title>Node1&#45;&gt;Node44</title>
<path fill="none" stroke="#191970" d="M154.1421,-286.4882C162.7371,-285.4406 171.431,-284.381 179.9086,-283.3477"/>
<polygon fill="#191970" stroke="#191970" points="153.6196,-283.0259 144.1166,-287.7102 154.4666,-289.9745 153.6196,-283.0259"/>
</g>
<!-- Node3 -->
<g id="node3" class="node">
<title>Node3</title>
<g id="a_node3"><a xlink:href="../../d7/dd2/classMgridInterpolation.html#ab587d9ad35cd9712f8db4b494ede53ef" target="_top" xlink:title="MgridInterpolation\l::prepairIrregularCase">
<polygon fill="none" stroke="#000000" points="361,-303.5 361,-335.5 488,-335.5 488,-303.5 361,-303.5"/>
<text text-anchor="start" x="369" y="-322.5" font-family="FreeSans" font-size="10.00" fill="#000000">MgridInterpolation</text>
<text text-anchor="middle" x="424.5" y="-310.5" font-family="FreeSans" font-size="10.00" fill="#000000">::prepairIrregularCase</text>
</a>
</g>
</g>
<!-- Node2&#45;&gt;Node3 -->
<g id="edge2" class="edge">
<title>Node2&#45;&gt;Node3</title>
<path fill="none" stroke="#191970" d="M324.1774,-319.5C336.2978,-319.5 348.8087,-319.5 360.7104,-319.5"/>
<polygon fill="#191970" stroke="#191970" points="324.1102,-316.0001 314.1101,-319.5 324.1101,-323.0001 324.1102,-316.0001"/>
</g>
<!-- Node4 -->
<g id="node4" class="node">
<title>Node4</title>
<g id="a_node4"><a xlink:href="../../d0/d70/classMgrid.html#a8b4cf069b1d54eca62697f84ccdc234c" target="_top" xlink:title="Mgrid::directFieldValue">
<polygon fill="none" stroke="#000000" points="524,-309.5 524,-329.5 656,-329.5 656,-309.5 524,-309.5"/>
<text text-anchor="middle" x="590" y="-316.5" font-family="FreeSans" font-size="10.00" fill="#000000">Mgrid::directFieldValue</text>
</a>
</g>
</g>
<!-- Node3&#45;&gt;Node4 -->
<g id="edge3" class="edge">
<title>Node3&#45;&gt;Node4</title>
<path fill="none" stroke="#191970" d="M498.0425,-319.5C506.658,-319.5 515.4084,-319.5 523.9137,-319.5"/>
<polygon fill="#191970" stroke="#191970" points="498.0133,-316.0001 488.0133,-319.5 498.0133,-323.0001 498.0133,-316.0001"/>
</g>
<!-- Node5 -->
<g id="node5" class="node">
<title>Node5</title>
<g id="a_node5"><a xlink:href="../../d0/d70/classMgrid.html#a1828a602eff466ced7f0c7630948d820" target="_top" xlink:title="Mgrid::getFieldValue">
<polygon fill="none" stroke="#000000" points="692,-309.5 692,-329.5 811,-329.5 811,-309.5 692,-309.5"/>
<text text-anchor="middle" x="751.5" y="-316.5" font-family="FreeSans" font-size="10.00" fill="#000000">Mgrid::getFieldValue</text>
</a>
</g>
</g>
<!-- Node4&#45;&gt;Node5 -->
<g id="edge4" class="edge">
<title>Node4&#45;&gt;Node5</title>
<path fill="none" stroke="#191970" d="M666.2293,-319.5C674.859,-319.5 683.5577,-319.5 691.9297,-319.5"/>
<polygon fill="#191970" stroke="#191970" points="666.1542,-316.0001 656.1542,-319.5 666.1542,-323.0001 666.1542,-316.0001"/>
</g>
<!-- Node5&#45;&gt;Node5 -->
<g id="edge5" class="edge">
<title>Node5&#45;&gt;Node5</title>
<path fill="none" stroke="#191970" d="M721.6786,-338.6639C723.1025,-343.9546 733.043,-348 751.5,-348 779.625,-348 787.9746,-338.6067 776.5488,-329.7271"/>
<polygon fill="#191970" stroke="#191970" points="724.8277,-340.1968 726.4512,-329.7271 718.653,-336.8992 724.8277,-340.1968"/>
</g>
<!-- Node6 -->
<g id="node6" class="node">
<title>Node6</title>
<g id="a_node6"><a xlink:href="../../d0/d70/classMgrid.html#a3bbd50eb926dab58886f507f7cb9167c" target="_top" xlink:title="Mgrid::getFixedTypeField\lValue">
<polygon fill="none" stroke="#000000" points="847,-303.5 847,-335.5 988,-335.5 988,-303.5 847,-303.5"/>
<text text-anchor="start" x="855" y="-322.5" font-family="FreeSans" font-size="10.00" fill="#000000">Mgrid::getFixedTypeField</text>
<text text-anchor="middle" x="917.5" y="-310.5" font-family="FreeSans" font-size="10.00" fill="#000000">Value</text>
</a>
</g>
</g>
<!-- Node5&#45;&gt;Node6 -->
<g id="edge6" class="edge">
<title>Node5&#45;&gt;Node6</title>
<path fill="none" stroke="#191970" d="M821.5536,-319.5C829.9464,-319.5 838.5203,-319.5 846.9205,-319.5"/>
<polygon fill="#191970" stroke="#191970" points="821.4298,-316.0001 811.4298,-319.5 821.4298,-323.0001 821.4298,-316.0001"/>
</g>
<!-- Node7 -->
<g id="node7" class="node">
<title>Node7</title>
<g id="a_node7"><a xlink:href="../../d0/d70/classMgrid.html#a63f5d3e859a481ac9144bfefa00f1a34" target="_top" xlink:title="Mgrid::getCartesianField\lValue">
<polygon fill="none" stroke="#000000" points="1026.5,-329.5 1026.5,-361.5 1165.5,-361.5 1165.5,-329.5 1026.5,-329.5"/>
<text text-anchor="start" x="1034.5" y="-348.5" font-family="FreeSans" font-size="10.00" fill="#000000">Mgrid::getCartesianField</text>
<text text-anchor="middle" x="1096" y="-336.5" font-family="FreeSans" font-size="10.00" fill="#000000">Value</text>
</a>
</g>
</g>
<!-- Node6&#45;&gt;Node7 -->
<g id="edge7" class="edge">
<title>Node6&#45;&gt;Node7</title>
<path fill="none" stroke="#191970" d="M998.1552,-331.2481C1007.5343,-332.6142 1017.0412,-333.999 1026.2563,-335.3413"/>
<polygon fill="#191970" stroke="#191970" points="998.448,-327.7539 988.0479,-329.7759 997.439,-334.6808 998.448,-327.7539"/>
</g>
<!-- Node43 -->
<g id="node43" class="node">
<title>Node43</title>
<g id="a_node43"><a xlink:href="../../d0/d70/classMgrid.html#a2eae4888540a2e28671a08190a68aa2f" target="_top" xlink:title="Mgrid::getCylindricalField\lValue">
<polygon fill="none" stroke="#000000" points="1024,-278.5 1024,-310.5 1168,-310.5 1168,-278.5 1024,-278.5"/>
<text text-anchor="start" x="1032" y="-297.5" font-family="FreeSans" font-size="10.00" fill="#000000">Mgrid::getCylindricalField</text>
<text text-anchor="middle" x="1096" y="-285.5" font-family="FreeSans" font-size="10.00" fill="#000000">Value</text>
</a>
</g>
</g>
<!-- Node6&#45;&gt;Node43 -->
<g id="edge58" class="edge">
<title>Node6&#45;&gt;Node43</title>
<path fill="none" stroke="#191970" d="M998.0856,-308.2135C1006.6953,-307.0077 1015.4135,-305.7866 1023.9158,-304.5958"/>
<polygon fill="#191970" stroke="#191970" points="997.4658,-304.7661 988.0479,-309.6193 998.4368,-311.6984 997.4658,-304.7661"/>
</g>
<!-- Node8 -->
<g id="node8" class="node">
<title>Node8</title>
<g id="a_node8"><a xlink:href="../../d6/dbc/classEicBeamLineElementMap.html#a8367714c13d17c2fc94fe98825a0875a" target="_top" xlink:title="EicBeamLineElementMap\l::GetFieldValue">
<polygon fill="none" stroke="#000000" points="1212,-380.5 1212,-412.5 1357,-412.5 1357,-380.5 1212,-380.5"/>
<text text-anchor="start" x="1220" y="-399.5" font-family="FreeSans" font-size="10.00" fill="#000000">EicBeamLineElementMap</text>
<text text-anchor="middle" x="1284.5" y="-387.5" font-family="FreeSans" font-size="10.00" fill="#000000">::GetFieldValue</text>
</a>
</g>
</g>
<!-- Node7&#45;&gt;Node8 -->
<g id="edge8" class="edge">
<title>Node7&#45;&gt;Node8</title>
<path fill="none" stroke="#191970" d="M1165.1936,-364.2208C1184.8486,-369.5386 1206.0713,-375.2806 1225.0909,-380.4264"/>
<polygon fill="#191970" stroke="#191970" points="1165.9509,-360.7999 1155.3838,-361.5667 1164.1227,-367.557 1165.9509,-360.7999"/>
</g>
<!-- Node9 -->
<g id="node9" class="node">
<title>Node9</title>
<g id="a_node9"><a xlink:href="../../d1/d0e/classTrKalmanNode.html#ad109c98d9b096b8e413135681abdb4be" target="_top" xlink:title="TrKalmanNode::GetMagnetic\lField">
<polygon fill="none" stroke="#000000" points="1204,-329.5 1204,-361.5 1365,-361.5 1365,-329.5 1204,-329.5"/>
<text text-anchor="start" x="1212" y="-348.5" font-family="FreeSans" font-size="10.00" fill="#000000">TrKalmanNode::GetMagnetic</text>
<text text-anchor="middle" x="1284.5" y="-336.5" font-family="FreeSans" font-size="10.00" fill="#000000">Field</text>
</a>
</g>
</g>
<!-- Node7&#45;&gt;Node9 -->
<g id="edge9" class="edge">
<title>Node7&#45;&gt;Node9</title>
<path fill="none" stroke="#191970" d="M1175.713,-345.5C1185.0697,-345.5 1194.6223,-345.5 1203.9898,-345.5"/>
<polygon fill="#191970" stroke="#191970" points="1175.6549,-342.0001 1165.6549,-345.5 1175.6548,-349.0001 1175.6549,-342.0001"/>
</g>
<!-- Node10 -->
<g id="node10" class="node">
<title>Node10</title>
<g id="a_node10"><a xlink:href="../../d2/d22/classRungeKuttaRequest.html#aef9352fbc63d3854ad82f6c6e81146a6" target="_top" xlink:title="RungeKuttaRequest::kk">
<polygon fill="none" stroke="#000000" points="1217,-290.5 1217,-310.5 1352,-310.5 1352,-290.5 1217,-290.5"/>
<text text-anchor="middle" x="1284.5" y="-297.5" font-family="FreeSans" font-size="10.00" fill="#000000">RungeKuttaRequest::kk</text>
</a>
</g>
</g>
<!-- Node7&#45;&gt;Node10 -->
<g id="edge10" class="edge">
<title>Node7&#45;&gt;Node10</title>
<path fill="none" stroke="#191970" d="M1173.2936,-327.0479C1196.9717,-321.3954 1222.1262,-315.3903 1242.5112,-310.5239"/>
<polygon fill="#191970" stroke="#191970" points="1172.1684,-323.7181 1163.2545,-329.4445 1173.7939,-330.5268 1172.1684,-323.7181"/>
</g>
<!-- Node11 -->
<g id="node11" class="node">
<title>Node11</title>
<g id="a_node11"><a xlink:href="../../d2/d22/classRungeKuttaRequest.html#acd0229ed666355d83c7ccfe1ccde8dd9" target="_top" xlink:title="RungeKuttaRequest::\lserveRequest">
<polygon fill="none" stroke="#000000" points="1401,-349.5 1401,-381.5 1523,-381.5 1523,-349.5 1401,-349.5"/>
<text text-anchor="start" x="1409" y="-368.5" font-family="FreeSans" font-size="10.00" fill="#000000">RungeKuttaRequest::</text>
<text text-anchor="middle" x="1462" y="-356.5" font-family="FreeSans" font-size="10.00" fill="#000000">serveRequest</text>
</a>
</g>
</g>
<!-- Node10&#45;&gt;Node11 -->
<g id="edge11" class="edge">
<title>Node10&#45;&gt;Node11</title>
<path fill="none" stroke="#191970" d="M1341.1322,-313.1185C1349.2167,-315.339 1357.3722,-317.8108 1365,-320.5 1387.7605,-328.5241 1412.4186,-340.0031 1431.1777,-349.3588"/>
<polygon fill="#191970" stroke="#191970" points="1341.9082,-309.7036 1331.3462,-310.537 1340.1227,-316.4721 1341.9082,-309.7036"/>
</g>
<!-- Node13 -->
<g id="node13" class="node">
<title>Node13</title>
<g id="a_node13"><a xlink:href="../../d3/dd5/jewel-2_82_80_8f.html#a15e2df3184692bfe4ca2261638190094" target="_top" xlink:title="jewel">
<polygon fill="none" stroke="#000000" points="2581.5,-271.5 2581.5,-291.5 2624.5,-291.5 2624.5,-271.5 2581.5,-271.5"/>
<text text-anchor="middle" x="2603" y="-278.5" font-family="FreeSans" font-size="10.00" fill="#000000">jewel</text>
</a>
</g>
</g>
<!-- Node10&#45;&gt;Node13 -->
<g id="edge13" class="edge">
<title>Node10&#45;&gt;Node13</title>
<path fill="none" stroke="#191970" d="M1362.2494,-307.3338C1434.9171,-313.1266 1546.4703,-320.5 1643.5,-320.5 1643.5,-320.5 1643.5,-320.5 2327.5,-320.5 2422.9058,-320.5 2535.0778,-297.2877 2581.3618,-286.6789"/>
<polygon fill="#191970" stroke="#191970" points="1362.5084,-303.8434 1352.2593,-306.5278 1361.9454,-310.8207 1362.5084,-303.8434"/>
</g>
<!-- Node14 -->
<g id="node14" class="node">
<title>Node14</title>
<g id="a_node14"><a xlink:href="../../d6/dcf/pythia6425mod_8f.html#ab37c75f11d388ab995e98e3eca29e81b" target="_top" xlink:title="pytbhg">
<polygon fill="none" stroke="#000000" points="1436.5,-271.5 1436.5,-291.5 1487.5,-291.5 1487.5,-271.5 1436.5,-271.5"/>
<text text-anchor="middle" x="1462" y="-278.5" font-family="FreeSans" font-size="10.00" fill="#000000">pytbhg</text>
</a>
</g>
</g>
<!-- Node10&#45;&gt;Node14 -->
<g id="edge14" class="edge">
<title>Node10&#45;&gt;Node14</title>
<path fill="none" stroke="#191970" d="M1362.2062,-292.1822C1388.7693,-289.3388 1416.673,-286.3519 1436.1989,-284.2618"/>
<polygon fill="#191970" stroke="#191970" points="1361.6821,-288.7182 1352.1115,-293.2627 1362.4272,-295.6784 1361.6821,-288.7182"/>
</g>
<!-- Node42 -->
<g id="node42" class="node">
<title>Node42</title>
<g id="a_node42"><a xlink:href="../../d6/dcf/pythia6425mod_8f.html#a8d44a8d8b3450950fbf946b1c29fb42d" target="_top" xlink:title="pytbhq">
<polygon fill="none" stroke="#000000" points="1436.5,-232.5 1436.5,-252.5 1487.5,-252.5 1487.5,-232.5 1436.5,-232.5"/>
<text text-anchor="middle" x="1462" y="-239.5" font-family="FreeSans" font-size="10.00" fill="#000000">pytbhq</text>
</a>
</g>
</g>
<!-- Node10&#45;&gt;Node42 -->
<g id="edge56" class="edge">
<title>Node10&#45;&gt;Node42</title>
<path fill="none" stroke="#191970" d="M1325.1165,-287.2281C1359.3212,-276.0514 1407.2019,-260.4059 1436.3263,-250.8892"/>
<polygon fill="#191970" stroke="#191970" points="1323.8364,-283.9642 1315.4181,-290.3972 1326.0107,-290.618 1323.8364,-283.9642"/>
</g>
<!-- Node12 -->
<g id="node12" class="node">
<title>Node12</title>
<g id="a_node12"><a xlink:href="../../d1/d0e/classTrKalmanNode.html#a57b9335f58000cd1d2ab55b7ce4dabea" target="_top" xlink:title="TrKalmanNode::PerformRunge\lKuttaStep">
<polygon fill="none" stroke="#000000" points="1559,-349.5 1559,-381.5 1728,-381.5 1728,-349.5 1559,-349.5"/>
<text text-anchor="start" x="1567" y="-368.5" font-family="FreeSans" font-size="10.00" fill="#000000">TrKalmanNode::PerformRunge</text>
<text text-anchor="middle" x="1643.5" y="-356.5" font-family="FreeSans" font-size="10.00" fill="#000000">KuttaStep</text>
</a>
</g>
</g>
<!-- Node11&#45;&gt;Node12 -->
<g id="edge12" class="edge">
<title>Node11&#45;&gt;Node12</title>
<path fill="none" stroke="#191970" d="M1533.2563,-365.5C1541.6158,-365.5 1550.2071,-365.5 1558.7277,-365.5"/>
<polygon fill="#191970" stroke="#191970" points="1533.1946,-362.0001 1523.1946,-365.5 1533.1946,-369.0001 1533.1946,-362.0001"/>
</g>
<!-- Node15 -->
<g id="node15" class="node">
<title>Node15</title>
<g id="a_node15"><a xlink:href="../../d6/dcf/pythia6425mod_8f.html#a8e204cdd8fb7ba8d843c00f6da2ec7e9" target="_top" xlink:title="pystbh">
<polygon fill="none" stroke="#000000" points="1618.5,-232.5 1618.5,-252.5 1668.5,-252.5 1668.5,-232.5 1618.5,-232.5"/>
<text text-anchor="middle" x="1643.5" y="-239.5" font-family="FreeSans" font-size="10.00" fill="#000000">pystbh</text>
</a>
</g>
</g>
<!-- Node14&#45;&gt;Node15 -->
<g id="edge15" class="edge">
<title>Node14&#45;&gt;Node15</title>
<path fill="none" stroke="#191970" d="M1497.5801,-273.8547C1533.1455,-266.2125 1586.9298,-254.6556 1618.3027,-247.9143"/>
<polygon fill="#191970" stroke="#191970" points="1496.6611,-270.4722 1487.6196,-275.995 1498.1317,-277.316 1496.6611,-270.4722"/>
</g>
<!-- Node16 -->
<g id="node16" class="node">
<title>Node16</title>
<g id="a_node16"><a xlink:href="../../d6/dcf/pythia6425mod_8f.html#a57a12a8bdfcf423e5b0ed01349b0ff46" target="_top" xlink:title="pysghg">
<polygon fill="none" stroke="#000000" points="1764,-213.5 1764,-233.5 1817,-233.5 1817,-213.5 1764,-213.5"/>
<text text-anchor="middle" x="1790.5" y="-220.5" font-family="FreeSans" font-size="10.00" fill="#000000">pysghg</text>
</a>
</g>
</g>
<!-- Node15&#45;&gt;Node16 -->
<g id="edge16" class="edge">
<title>Node15&#45;&gt;Node16</title>
<path fill="none" stroke="#191970" d="M1679.0097,-237.9103C1705.1251,-234.5349 1740.0652,-230.0188 1763.8228,-226.9481"/>
<polygon fill="#191970" stroke="#191970" points="1678.239,-234.4807 1668.7702,-239.2338 1679.1364,-241.423 1678.239,-234.4807"/>
</g>
<!-- Node17 -->
<g id="node17" class="node">
<title>Node17</title>
<g id="a_node17"><a xlink:href="../../d6/dcf/pythia6425mod_8f.html#a3ccdee32be69df9daf5605283165a012" target="_top" xlink:title="pysigh">
<polygon fill="none" stroke="#000000" points="1853,-175.5 1853,-195.5 1902,-195.5 1902,-175.5 1853,-175.5"/>
<text text-anchor="middle" x="1877.5" y="-182.5" font-family="FreeSans" font-size="10.00" fill="#000000">pysigh</text>
</a>
</g>
</g>
<!-- Node16&#45;&gt;Node17 -->
<g id="edge17" class="edge">
<title>Node16&#45;&gt;Node17</title>
<path fill="none" stroke="#191970" d="M1823.0641,-209.2766C1833.4922,-204.7218 1844.817,-199.7753 1854.4229,-195.5796"/>
<polygon fill="#191970" stroke="#191970" points="1821.5774,-206.1066 1813.8144,-213.3167 1824.3794,-212.5214 1821.5774,-206.1066"/>
</g>
<!-- Node18 -->
<g id="node18" class="node">
<title>Node18</title>
<g id="a_node18"><a xlink:href="../../d6/dcf/pythia6425mod_8f.html#aa9cb6f1467302508501201a0e38959d1" target="_top" xlink:title="pymaxi">
<polygon fill="none" stroke="#000000" points="1938,-234.5 1938,-254.5 1991,-254.5 1991,-234.5 1938,-234.5"/>
<text text-anchor="middle" x="1964.5" y="-241.5" font-family="FreeSans" font-size="10.00" fill="#000000">pymaxi</text>
</a>
</g>
</g>
<!-- Node17&#45;&gt;Node18 -->
<g id="edge18" class="edge">
<title>Node17&#45;&gt;Node18</title>
<path fill="none" stroke="#191970" d="M1900.8078,-201.3064C1916.3345,-211.836 1936.2721,-225.3569 1949.6692,-234.4424"/>
<polygon fill="#191970" stroke="#191970" points="1902.4992,-198.2246 1892.2584,-195.5085 1898.5703,-204.018 1902.4992,-198.2246"/>
</g>
<!-- Node22 -->
<g id="node22" class="node">
<title>Node22</title>
<g id="a_node22"><a xlink:href="../../d6/dcf/pythia6425mod_8f.html#a5c7e2372fde451d6f2253ef044e01364" target="_top" xlink:title="pymign">
<polygon fill="none" stroke="#000000" points="2027,-156.5 2027,-176.5 2081,-176.5 2081,-156.5 2027,-156.5"/>
<text text-anchor="middle" x="2054" y="-163.5" font-family="FreeSans" font-size="10.00" fill="#000000">pymign</text>
</a>
</g>
</g>
<!-- Node17&#45;&gt;Node22 -->
<g id="edge23" class="edge">
<title>Node17&#45;&gt;Node22</title>
<path fill="none" stroke="#191970" d="M1912.3158,-181.7521C1945.8919,-178.1377 1996.018,-172.7417 2026.7725,-169.431"/>
<polygon fill="#191970" stroke="#191970" points="1911.6095,-178.3078 1902.0416,-182.8581 1912.3588,-185.2676 1911.6095,-178.3078"/>
</g>
<!-- Node35 -->
<g id="node35" class="node">
<title>Node35</title>
<g id="a_node35"><a xlink:href="../../d6/dcf/pythia6425mod_8f.html#a2d74d5dd64881524212b3720af2696de" target="_top" xlink:title="pyrand">
<polygon fill="none" stroke="#000000" points="2117,-136.5 2117,-156.5 2168,-156.5 2168,-136.5 2117,-136.5"/>
<text text-anchor="middle" x="2142.5" y="-143.5" font-family="FreeSans" font-size="10.00" fill="#000000">pyrand</text>
</a>
</g>
</g>
<!-- Node17&#45;&gt;Node35 -->
<g id="edge55" class="edge">
<title>Node17&#45;&gt;Node35</title>
<path fill="none" stroke="#191970" d="M1911.814,-173.8733C1941.8017,-164.3613 1986.7229,-151.6671 2027,-146.5 2057.6292,-142.5706 2093.2045,-143.3688 2116.6911,-144.6286"/>
<polygon fill="#191970" stroke="#191970" points="1910.6866,-170.5593 1902.245,-176.9617 1912.8367,-177.221 1910.6866,-170.5593"/>
</g>
<!-- Node38 -->
<g id="node38" class="node">
<title>Node38</title>
<g id="a_node38"><a xlink:href="../../d6/dcf/pythia6425mod_8f.html#a4ae1a9148440832c122abdaedf3555a7" target="_top" xlink:title="pymult">
<polygon fill="none" stroke="#000000" points="2028,-195.5 2028,-215.5 2080,-215.5 2080,-195.5 2028,-195.5"/>
<text text-anchor="middle" x="2054" y="-202.5" font-family="FreeSans" font-size="10.00" fill="#000000">pymult</text>
</a>
</g>
</g>
<!-- Node17&#45;&gt;Node38 -->
<g id="edge46" class="edge">
<title>Node17&#45;&gt;Node38</title>
<path fill="none" stroke="#191970" d="M1912.0012,-189.4095C1946.007,-193.2628 1997.2105,-199.0649 2027.945,-202.5476"/>
<polygon fill="#191970" stroke="#191970" points="1912.3721,-185.9292 1902.0416,-188.2809 1911.5839,-192.8847 1912.3721,-185.9292"/>
</g>
<!-- Node39 -->
<g id="node39" class="node">
<title>Node39</title>
<g id="a_node39"><a xlink:href="../../d6/dcf/pythia6425mod_8f.html#af1b5061d1d80462745ef6b9ab52500f2" target="_top" xlink:title="pyptmi">
<polygon fill="none" stroke="#000000" points="1939,-39.5 1939,-59.5 1990,-59.5 1990,-39.5 1939,-39.5"/>
<text text-anchor="middle" x="1964.5" y="-46.5" font-family="FreeSans" font-size="10.00" fill="#000000">pyptmi</text>
</a>
</g>
</g>
<!-- Node17&#45;&gt;Node39 -->
<g id="edge50" class="edge">
<title>Node17&#45;&gt;Node39</title>
<path fill="none" stroke="#191970" d="M1889.4421,-166.8319C1908.0302,-137.7746 1943.2648,-82.6952 1957.885,-59.8407"/>
<polygon fill="#191970" stroke="#191970" points="1886.4796,-164.968 1884.0391,-175.2779 1892.3763,-168.7401 1886.4796,-164.968"/>
</g>
<!-- Node19 -->
<g id="node19" class="node">
<title>Node19</title>
<g id="a_node19"><a xlink:href="../../d6/dcf/pythia6425mod_8f.html#aac00ac3ccd923c2c3dc37e2b89a9f025" target="_top" xlink:title="pyinit">
<polygon fill="none" stroke="#000000" points="2120,-234.5 2120,-254.5 2165,-254.5 2165,-234.5 2120,-234.5"/>
<text text-anchor="middle" x="2142.5" y="-241.5" font-family="FreeSans" font-size="10.00" fill="#000000">pyinit</text>
</a>
</g>
</g>
<!-- Node18&#45;&gt;Node19 -->
<g id="edge19" class="edge">
<title>Node18&#45;&gt;Node19</title>
<path fill="none" stroke="#191970" d="M2001.1725,-244.5C2036.8734,-244.5 2089.9946,-244.5 2119.9075,-244.5"/>
<polygon fill="#191970" stroke="#191970" points="2001.1484,-241.0001 1991.1484,-244.5 2001.1484,-248.0001 2001.1484,-241.0001"/>
</g>
<!-- Node20 -->
<g id="node20" class="node">
<title>Node20</title>
<g id="a_node20"><a xlink:href="../../d3/dd5/jewel-2_82_80_8f.html#a2cba90a4cdaaf1d5de1cf1bfe9afaa2e" target="_top" xlink:title="initpythia">
<polygon fill="none" stroke="#000000" points="2296,-271.5 2296,-291.5 2359,-291.5 2359,-271.5 2296,-271.5"/>
<text text-anchor="middle" x="2327.5" y="-278.5" font-family="FreeSans" font-size="10.00" fill="#000000">initpythia</text>
</a>
</g>
</g>
<!-- Node19&#45;&gt;Node20 -->
<g id="edge20" class="edge">
<title>Node19&#45;&gt;Node20</title>
<path fill="none" stroke="#191970" d="M2175.294,-251.5359C2184.5684,-253.4975 2194.6751,-255.6085 2204,-257.5 2235.1459,-263.8177 2270.7822,-270.7068 2295.7434,-275.4768"/>
<polygon fill="#191970" stroke="#191970" points="2175.7717,-248.0594 2165.2626,-249.4044 2174.3167,-254.9065 2175.7717,-248.0594"/>
</g>
<!-- Node21 -->
<g id="node21" class="node">
<title>Node21</title>
<g id="a_node21"><a xlink:href="../../d6/dcf/pythia6425mod_8f.html#a4cc0e611278607d6b413b5cecdfe16c3" target="_top" xlink:title="pytest">
<polygon fill="none" stroke="#000000" points="2403.5,-206.5 2403.5,-226.5 2451.5,-226.5 2451.5,-206.5 2403.5,-206.5"/>
<text text-anchor="middle" x="2427.5" y="-213.5" font-family="FreeSans" font-size="10.00" fill="#000000">pytest</text>
</a>
</g>
</g>
<!-- Node19&#45;&gt;Node21 -->
<g id="edge22" class="edge">
<title>Node19&#45;&gt;Node21</title>
<path fill="none" stroke="#191970" d="M2175.4224,-241.2655C2233.3748,-235.5719 2352.2951,-223.8886 2403.3461,-218.873"/>
<polygon fill="#191970" stroke="#191970" points="2174.9508,-237.7949 2165.341,-242.256 2175.6353,-244.7614 2174.9508,-237.7949"/>
</g>
<!-- Node20&#45;&gt;Node13 -->
<g id="edge21" class="edge">
<title>Node20&#45;&gt;Node13</title>
<path fill="none" stroke="#191970" d="M2369.269,-281.5C2428.6794,-281.5 2535.4478,-281.5 2581.2094,-281.5"/>
<polygon fill="#191970" stroke="#191970" points="2369.1034,-278.0001 2359.1034,-281.5 2369.1033,-285.0001 2369.1034,-278.0001"/>
</g>
<!-- Node22&#45;&gt;Node19 -->
<g id="edge40" class="edge">
<title>Node22&#45;&gt;Node19</title>
<path fill="none" stroke="#191970" d="M2077.4002,-182.6305C2078.6314,-183.5834 2079.8386,-184.5435 2081,-185.5 2100.4164,-201.4901 2121.1656,-222.2611 2132.9152,-234.4121"/>
<polygon fill="#191970" stroke="#191970" points="2079.2819,-179.6697 2069.1536,-176.5605 2075.1323,-185.3072 2079.2819,-179.6697"/>
</g>
<!-- Node23 -->
<g id="node23" class="node">
<title>Node23</title>
<g id="a_node23"><a xlink:href="../../d6/dcf/pythia6425mod_8f.html#ac81fa418f8cd77b0873b2de2a4140933" target="_top" xlink:title="pyevnt">
<polygon fill="none" stroke="#000000" points="2301.5,-125.5 2301.5,-145.5 2353.5,-145.5 2353.5,-125.5 2301.5,-125.5"/>
<text text-anchor="middle" x="2327.5" y="-132.5" font-family="FreeSans" font-size="10.00" fill="#000000">pyevnt</text>
</a>
</g>
</g>
<!-- Node22&#45;&gt;Node23 -->
<g id="edge24" class="edge">
<title>Node22&#45;&gt;Node23</title>
<path fill="none" stroke="#191970" d="M2072.2131,-149.4146C2098.7561,-125.8145 2150.7336,-84.3581 2204,-68.5 2227.8542,-61.3983 2236.988,-59.0182 2260,-68.5 2288.0902,-80.0742 2310.6713,-109.6228 2321.1513,-125.3283"/>
<polygon fill="#191970" stroke="#191970" points="2069.5741,-147.0831 2064.5196,-156.3945 2074.2776,-152.2675 2069.5741,-147.0831"/>
</g>
<!-- Node22&#45;&gt;Node35 -->
<g id="edge41" class="edge">
<title>Node22&#45;&gt;Node35</title>
<path fill="none" stroke="#191970" d="M2090.9852,-158.1418C2099.6841,-156.1759 2108.7682,-154.123 2116.8427,-152.2983"/>
<polygon fill="#191970" stroke="#191970" points="2090.0163,-154.7724 2081.0338,-160.3907 2091.5594,-161.6002 2090.0163,-154.7724"/>
</g>
<!-- Node23&#45;&gt;Node21 -->
<g id="edge39" class="edge">
<title>Node23&#45;&gt;Node21</title>
<path fill="none" stroke="#191970" d="M2348.1142,-152.1975C2368.2227,-168.4854 2398.1603,-192.7349 2414.9378,-206.3246"/>
<polygon fill="#191970" stroke="#191970" points="2350.1387,-149.3332 2340.1651,-145.7587 2345.7327,-154.7727 2350.1387,-149.3332"/>
</g>
<!-- Node24 -->
<g id="node24" class="node">
<title>Node24</title>
<g id="a_node24"><a xlink:href="../../d3/dd5/jewel-2_82_80_8f.html#aeb24fa7919aa21c652e9c8f2ec45cb91" target="_top" xlink:title="genevent">
<polygon fill="none" stroke="#000000" points="2395,-140.5 2395,-160.5 2460,-160.5 2460,-140.5 2395,-140.5"/>
<text text-anchor="middle" x="2427.5" y="-147.5" font-family="FreeSans" font-size="10.00" fill="#000000">genevent</text>
</a>
</g>
</g>
<!-- Node23&#45;&gt;Node24 -->
<g id="edge25" class="edge">
<title>Node23&#45;&gt;Node24</title>
<path fill="none" stroke="#191970" d="M2363.4039,-140.8856C2373.6532,-142.423 2384.763,-144.0894 2394.8092,-145.5964"/>
<polygon fill="#191970" stroke="#191970" points="2363.9214,-137.4241 2353.5128,-139.4019 2362.8829,-144.3467 2363.9214,-137.4241"/>
</g>
<!-- Node24&#45;&gt;Node13 -->
<g id="edge34" class="edge">
<title>Node24&#45;&gt;Node13</title>
<path fill="none" stroke="#191970" d="M2440.8645,-168.8821C2446.8365,-177.2311 2453.8908,-187.2821 2460,-196.5 2476.7609,-221.7896 2471.5069,-236.5952 2496,-254.5 2521.3654,-273.0425 2558.1443,-278.9082 2581.3031,-280.7295"/>
<polygon fill="#191970" stroke="#191970" points="2443.5904,-166.6781 2434.905,-160.6106 2437.9109,-170.77 2443.5904,-166.6781"/>
</g>
<!-- Node25 -->
<g id="node25" class="node">
<title>Node25</title>
<g id="a_node25"><a xlink:href="../../dd/d2a/classPHHepMCGenHelper.html#ab0c755f6e53c0bf57ccd314a0017d227" target="_top" xlink:title="send HepMC::GenEvent to DST tree. This function takes ownership of evt">
<polygon fill="none" stroke="#000000" points="2525,-134.5 2525,-166.5 2681,-166.5 2681,-134.5 2525,-134.5"/>
<text text-anchor="start" x="2533" y="-153.5" font-family="FreeSans" font-size="10.00" fill="#000000">PHHepMCGenHelper::insert</text>
<text text-anchor="middle" x="2603" y="-141.5" font-family="FreeSans" font-size="10.00" fill="#000000">_event</text>
</a>
</g>
</g>
<!-- Node24&#45;&gt;Node25 -->
<g id="edge26" class="edge">
<title>Node24&#45;&gt;Node25</title>
<path fill="none" stroke="#191970" d="M2470.413,-150.5C2486.7869,-150.5 2506.0089,-150.5 2524.6575,-150.5"/>
<polygon fill="#191970" stroke="#191970" points="2470.0989,-147.0001 2460.0989,-150.5 2470.0989,-154.0001 2470.0989,-147.0001"/>
</g>
<!-- Node30 -->
<g id="node30" class="node">
<title>Node30</title>
<g id="a_node30"><a xlink:href="../../d9/d3a/classPHPythia8.html#a5cc4124cc6be2fb2467714e3d3bc5a6a" target="_top" xlink:title="PHPythia8::process\l_event">
<polygon fill="none" stroke="#000000" points="2781,-85.5 2781,-117.5 2894,-117.5 2894,-85.5 2781,-85.5"/>
<text text-anchor="start" x="2789" y="-104.5" font-family="FreeSans" font-size="10.00" fill="#000000">PHPythia8::process</text>
<text text-anchor="middle" x="2837.5" y="-92.5" font-family="FreeSans" font-size="10.00" fill="#000000">_event</text>
</a>
</g>
</g>
<!-- Node24&#45;&gt;Node30 -->
<g id="edge37" class="edge">
<title>Node24&#45;&gt;Node30</title>
<path fill="none" stroke="#191970" d="M2458.1635,-136.6457C2469.7842,-131.9897 2483.2814,-127.2775 2496,-124.5 2594.5472,-102.9791 2712.5556,-99.8859 2780.8868,-100.2445"/>
<polygon fill="#191970" stroke="#191970" points="2456.7897,-133.4264 2448.9019,-140.4998 2459.4791,-139.8891 2456.7897,-133.4264"/>
</g>
<!-- Node31 -->
<g id="node31" class="node">
<title>Node31</title>
<g id="a_node31"><a xlink:href="../../da/df0/classPHSartre.html#aafe9fd92317ab1f7eee67a9354696c4e" target="_top" xlink:title="PHSartre::process_event">
<polygon fill="none" stroke="#000000" points="2767.5,-46.5 2767.5,-66.5 2907.5,-66.5 2907.5,-46.5 2767.5,-46.5"/>
<text text-anchor="middle" x="2837.5" y="-53.5" font-family="FreeSans" font-size="10.00" fill="#000000">PHSartre::process_event</text>
</a>
</g>
</g>
<!-- Node24&#45;&gt;Node31 -->
<g id="edge36" class="edge">
<title>Node24&#45;&gt;Node31</title>
<path fill="none" stroke="#191970" d="M2444.2806,-133.2599C2457.2119,-121.1142 2476.1826,-105.6229 2496,-97.5 2584.6805,-61.1511 2696.3975,-54.2645 2767.4077,-54.1848"/>
<polygon fill="#191970" stroke="#191970" points="2441.7792,-130.8103 2437.056,-140.2941 2446.6625,-135.8257 2441.7792,-130.8103"/>
</g>
<!-- Node33 -->
<g id="node33" class="node">
<title>Node33</title>
<g id="a_node33"><a xlink:href="../../d7/df5/pepsiMaineRHIC__noradcorr_8f.html#ac2ed0c0080f3e6d946824efb82e28ab5" target="_top" xlink:title="pepsimainerhic">
<polygon fill="none" stroke="#000000" points="2556,-224.5 2556,-244.5 2650,-244.5 2650,-224.5 2556,-224.5"/>
<text text-anchor="middle" x="2603" y="-231.5" font-family="FreeSans" font-size="10.00" fill="#000000">pepsimainerhic</text>
</a>
</g>
</g>
<!-- Node24&#45;&gt;Node33 -->
<g id="edge35" class="edge">
<title>Node24&#45;&gt;Node33</title>
<path fill="none" stroke="#191970" d="M2441.6828,-168.5276C2454.3168,-183.2797 2474.1453,-203.4503 2496,-214.5 2514.3829,-223.7944 2536.5096,-228.7998 2555.8594,-231.4836"/>
<polygon fill="#191970" stroke="#191970" points="2444.1822,-166.0576 2435.1145,-160.5778 2438.7858,-170.5162 2444.1822,-166.0576"/>
</g>
<!-- Node34 -->
<g id="node34" class="node">
<title>Node34</title>
<g id="a_node34"><a xlink:href="../../de/d99/classFun4AllHepMCPileupInputManager.html#a81bf2b69c3c4d3aae0aadebafe1c2c2e" target="_top" xlink:title="Fun4AllHepMCPileupInputManager::run">
<polygon fill="none" stroke="#000000" points="2496,-185.5 2496,-205.5 2710,-205.5 2710,-185.5 2496,-185.5"/>
<text text-anchor="middle" x="2603" y="-192.5" font-family="FreeSans" font-size="10.00" fill="#000000">Fun4AllHepMCPileupInputManager::run</text>
</a>
</g>
</g>
<!-- Node24&#45;&gt;Node34 -->
<g id="edge38" class="edge">
<title>Node24&#45;&gt;Node34</title>
<path fill="none" stroke="#191970" d="M2461.495,-164.1635C2472.3936,-168.2035 2484.5952,-172.376 2496,-175.5 2510.0345,-179.3444 2525.3066,-182.6855 2539.8022,-185.4783"/>
<polygon fill="#191970" stroke="#191970" points="2462.5037,-160.8027 2451.9125,-160.5244 2460.0185,-167.3467 2462.5037,-160.8027"/>
</g>
<!-- Node26 -->
<g id="node26" class="node">
<title>Node26</title>
<g id="a_node26"><a xlink:href="../../d6/d6f/classFun4AllHepMCInputManager.html#ab6c80a8ee0701bfff5eee3ec3623015c" target="_top" xlink:title="Fun4AllHepMCInputManager::run">
<polygon fill="none" stroke="#000000" points="2746,-289.5 2746,-309.5 2929,-309.5 2929,-289.5 2746,-289.5"/>
<text text-anchor="middle" x="2837.5" y="-296.5" font-family="FreeSans" font-size="10.00" fill="#000000">Fun4AllHepMCInputManager::run</text>
</a>
</g>
</g>
<!-- Node25&#45;&gt;Node26 -->
<g id="edge27" class="edge">
<title>Node25&#45;&gt;Node26</title>
<path fill="none" stroke="#191970" d="M2690.2987,-162.6504C2697.4664,-166.0215 2704.1791,-170.238 2710,-175.5 2746.5965,-208.5828 2708.9963,-247.8733 2746,-280.5 2750.0159,-284.0409 2754.5169,-286.9846 2759.3112,-289.4263"/>
<polygon fill="#191970" stroke="#191970" points="2691.5882,-159.3963 2681.0092,-158.8174 2688.9182,-165.8671 2691.5882,-159.3963"/>
</g>
<!-- Node27 -->
<g id="node27" class="node">
<title>Node27</title>
<g id="a_node27"><a xlink:href="../../db/d1f/classFun4AllOscarInputManager.html#a1537e89c4e652f70747fbbef18ceadc4" target="_top" xlink:title="Fun4AllOscarInputManager\l::ConvertFromOscar">
<polygon fill="none" stroke="#000000" points="2760.5,-238.5 2760.5,-270.5 2914.5,-270.5 2914.5,-238.5 2760.5,-238.5"/>
<text text-anchor="start" x="2768.5" y="-257.5" font-family="FreeSans" font-size="10.00" fill="#000000">Fun4AllOscarInputManager</text>
<text text-anchor="middle" x="2837.5" y="-245.5" font-family="FreeSans" font-size="10.00" fill="#000000">::ConvertFromOscar</text>
</a>
</g>
</g>
<!-- Node25&#45;&gt;Node27 -->
<g id="edge28" class="edge">
<title>Node25&#45;&gt;Node27</title>
<path fill="none" stroke="#191970" d="M2690.5432,-165.0471C2697.4115,-167.9311 2704,-171.379 2710,-175.5 2733.4725,-191.6216 2722.9155,-211.8275 2746,-228.5 2751.3551,-232.3676 2757.2706,-235.6614 2763.4406,-238.4662"/>
<polygon fill="#191970" stroke="#191970" points="2691.6247,-161.7143 2681.0331,-161.4538 2689.1505,-168.2625 2691.6247,-161.7143"/>
</g>
<!-- Node29 -->
<g id="node29" class="node">
<title>Node29</title>
<g id="a_node29"><a xlink:href="../../dd/da8/classPHPythia6.html#a7a70bdd1c198a83ed143d3e2c4516d0d" target="_top" xlink:title="PHPythia6::process\l_event">
<polygon fill="none" stroke="#000000" points="2781,-187.5 2781,-219.5 2894,-219.5 2894,-187.5 2781,-187.5"/>
<text text-anchor="start" x="2789" y="-206.5" font-family="FreeSans" font-size="10.00" fill="#000000">PHPythia6::process</text>
<text text-anchor="middle" x="2837.5" y="-194.5" font-family="FreeSans" font-size="10.00" fill="#000000">_event</text>
</a>
</g>
</g>
<!-- Node25&#45;&gt;Node29 -->
<g id="edge30" class="edge">
<title>Node25&#45;&gt;Node29</title>
<path fill="none" stroke="#191970" d="M2683.7773,-168.7567C2715.7558,-175.9842 2751.7542,-184.1203 2780.8719,-190.7013"/>
<polygon fill="#191970" stroke="#191970" points="2684.5197,-165.3363 2673.9941,-166.5456 2682.9765,-172.1641 2684.5197,-165.3363"/>
</g>
<!-- Node25&#45;&gt;Node30 -->
<g id="edge31" class="edge">
<title>Node25&#45;&gt;Node30</title>
<path fill="none" stroke="#191970" d="M2689.9326,-132.335C2720.2233,-126.0056 2753.4126,-119.0705 2780.6312,-113.383"/>
<polygon fill="#191970" stroke="#191970" points="2688.8568,-128.9841 2679.7841,-134.4556 2690.2886,-135.8361 2688.8568,-128.9841"/>
</g>
<!-- Node25&#45;&gt;Node31 -->
<g id="edge32" class="edge">
<title>Node25&#45;&gt;Node31</title>
<path fill="none" stroke="#191970" d="M2637.0316,-129.1811C2665.2566,-112.365 2706.9434,-89.4869 2746,-75.5 2755.9283,-71.9445 2766.7138,-68.9696 2777.2811,-66.5097"/>
<polygon fill="#191970" stroke="#191970" points="2635.1176,-126.2481 2628.361,-134.4089 2638.7321,-132.2427 2635.1176,-126.2481"/>
</g>
<!-- Node32 -->
<g id="node32" class="node">
<title>Node32</title>
<g id="a_node32"><a xlink:href="../../d3/d49/classReadEICFiles.html#a49106bf9561329777334154092890af2" target="_top" xlink:title="ReadEICFiles::process\l_event">
<polygon fill="none" stroke="#000000" points="2774.5,-136.5 2774.5,-168.5 2900.5,-168.5 2900.5,-136.5 2774.5,-136.5"/>
<text text-anchor="start" x="2782.5" y="-155.5" font-family="FreeSans" font-size="10.00" fill="#000000">ReadEICFiles::process</text>
<text text-anchor="middle" x="2837.5" y="-143.5" font-family="FreeSans" font-size="10.00" fill="#000000">_event</text>
</a>
</g>
</g>
<!-- Node25&#45;&gt;Node32 -->
<g id="edge33" class="edge">
<title>Node25&#45;&gt;Node32</title>
<path fill="none" stroke="#191970" d="M2691.1376,-151.2517C2718.7388,-151.4871 2748.6376,-151.7421 2774.1737,-151.9599"/>
<polygon fill="#191970" stroke="#191970" points="2691.1146,-147.7515 2681.0851,-151.166 2691.0549,-154.7512 2691.1146,-147.7515"/>
</g>
<!-- Node28 -->
<g id="node28" class="node">
<title>Node28</title>
<g id="a_node28"><a xlink:href="../../db/d1f/classFun4AllOscarInputManager.html#a4be602bd8c9fe73f9dcc81c8871784a6" target="_top" xlink:title="Fun4AllOscarInputManager::run">
<polygon fill="none" stroke="#000000" points="2965,-244.5 2965,-264.5 3141,-264.5 3141,-244.5 2965,-244.5"/>
<text text-anchor="middle" x="3053" y="-251.5" font-family="FreeSans" font-size="10.00" fill="#000000">Fun4AllOscarInputManager::run</text>
</a>
</g>
</g>
<!-- Node27&#45;&gt;Node28 -->
<g id="edge29" class="edge">
<title>Node27&#45;&gt;Node28</title>
<path fill="none" stroke="#191970" d="M2924.7391,-254.5C2938.0061,-254.5 2951.7039,-254.5 2964.9873,-254.5"/>
<polygon fill="#191970" stroke="#191970" points="2924.6918,-251.0001 2914.6918,-254.5 2924.6917,-258.0001 2924.6918,-251.0001"/>
</g>
<!-- Node35&#45;&gt;Node23 -->
<g id="edge42" class="edge">
<title>Node35&#45;&gt;Node23</title>
<path fill="none" stroke="#191970" d="M2178.3236,-144.37C2214.4129,-142.2241 2269.2315,-138.9646 2301.3986,-137.052"/>
<polygon fill="#191970" stroke="#191970" points="2177.9981,-140.883 2168.2235,-144.9705 2178.4136,-147.8707 2177.9981,-140.883"/>
</g>
<!-- Node36 -->
<g id="node36" class="node">
<title>Node36</title>
<g id="a_node36"><a xlink:href="../../d6/dcf/pythia6425mod_8f.html#a83ae6561ab82fd7af8b1b3e511f477ac" target="_top" xlink:title="pyevnw">
<polygon fill="none" stroke="#000000" points="2204,-78.5 2204,-98.5 2260,-98.5 2260,-78.5 2204,-78.5"/>
<text text-anchor="middle" x="2232" y="-85.5" font-family="FreeSans" font-size="10.00" fill="#000000">pyevnw</text>
</a>
</g>
</g>
<!-- Node35&#45;&gt;Node36 -->
<g id="edge43" class="edge">
<title>Node35&#45;&gt;Node36</title>
<path fill="none" stroke="#191970" d="M2166.7855,-130.7619C2182.5381,-120.5535 2202.6024,-107.551 2216.2886,-98.6817"/>
<polygon fill="#191970" stroke="#191970" points="2164.5782,-128.0216 2158.0897,-136.3972 2168.3851,-133.896 2164.5782,-128.0216"/>
</g>
<!-- Node37 -->
<g id="node37" class="node">
<title>Node37</title>
<g id="a_node37"><a xlink:href="../../d6/dcf/pythia6425mod_8f.html#ae7cb37215e5a38b3fb0529c9996646e6" target="_top" xlink:title="pyupev">
<polygon fill="none" stroke="#000000" points="2205,-156.5 2205,-176.5 2259,-176.5 2259,-156.5 2205,-156.5"/>
<text text-anchor="middle" x="2232" y="-163.5" font-family="FreeSans" font-size="10.00" fill="#000000">pyupev</text>
</a>
</g>
</g>
<!-- Node35&#45;&gt;Node37 -->
<g id="edge45" class="edge">
<title>Node35&#45;&gt;Node37</title>
<path fill="none" stroke="#191970" d="M2178.1621,-154.4692C2187.0799,-156.462 2196.5004,-158.5671 2204.9251,-160.4497"/>
<polygon fill="#191970" stroke="#191970" points="2178.9097,-151.05 2168.3871,-152.2848 2177.3831,-157.8815 2178.9097,-151.05"/>
</g>
<!-- Node36&#45;&gt;Node23 -->
<g id="edge44" class="edge">
<title>Node36&#45;&gt;Node23</title>
<path fill="none" stroke="#191970" d="M2261.9387,-103.2342C2276.6497,-110.4742 2293.9937,-119.01 2307.1464,-125.4831"/>
<polygon fill="#191970" stroke="#191970" points="2263.2399,-99.9737 2252.7221,-98.6983 2260.1489,-106.2543 2263.2399,-99.9737"/>
</g>
<!-- Node38&#45;&gt;Node19 -->
<g id="edge48" class="edge">
<title>Node38&#45;&gt;Node19</title>
<path fill="none" stroke="#191970" d="M2086.2121,-219.6952C2097.3444,-224.6009 2109.5767,-229.9914 2119.7863,-234.4906"/>
<polygon fill="#191970" stroke="#191970" points="2087.3532,-216.3733 2076.7909,-215.5435 2084.5304,-222.7789 2087.3532,-216.3733"/>
</g>
<!-- Node38&#45;&gt;Node23 -->
<g id="edge47" class="edge">
<title>Node38&#45;&gt;Node23</title>
<path fill="none" stroke="#191970" d="M2090.135,-207.711C2132.3428,-209.0164 2203.5764,-207.2009 2260,-185.5 2283.1397,-176.6003 2305.313,-157.4716 2317.5994,-145.6238"/>
<polygon fill="#191970" stroke="#191970" points="2090.1839,-204.2104 2080.0563,-207.3221 2089.9139,-211.2052 2090.1839,-204.2104"/>
</g>
<!-- Node38&#45;&gt;Node35 -->
<g id="edge49" class="edge">
<title>Node38&#45;&gt;Node35</title>
<path fill="none" stroke="#191970" d="M2077.7096,-189.6936C2093.5041,-179.164 2113.7854,-165.6431 2127.4135,-156.5576"/>
<polygon fill="#191970" stroke="#191970" points="2075.3919,-187.0322 2069.0128,-195.4915 2079.2748,-192.8566 2075.3919,-187.0322"/>
</g>
<!-- Node40 -->
<g id="node40" class="node">
<title>Node40</title>
<g id="a_node40"><a xlink:href="../../d6/dcf/pythia6425mod_8f.html#a15448b25c4eb515f33e35f86f376af68" target="_top" xlink:title="pyevol">
<polygon fill="none" stroke="#000000" points="2117.5,-.5 2117.5,-20.5 2167.5,-20.5 2167.5,-.5 2117.5,-.5"/>
<text text-anchor="middle" x="2142.5" y="-7.5" font-family="FreeSans" font-size="10.00" fill="#000000">pyevol</text>
</a>
</g>
</g>
<!-- Node39&#45;&gt;Node40 -->
<g id="edge51" class="edge">
<title>Node39&#45;&gt;Node40</title>
<path fill="none" stroke="#191970" d="M2000.2211,-44.5943C2023.4004,-41.1102 2054.1732,-35.9181 2081,-29.5 2093.0638,-26.6138 2106.2283,-22.6584 2117.2708,-19.1037"/>
<polygon fill="#191970" stroke="#191970" points="1999.5325,-41.1578 1990.1469,-46.0732 2000.5493,-48.0835 1999.5325,-41.1578"/>
</g>
<!-- Node41 -->
<g id="node41" class="node">
<title>Node41</title>
<g id="a_node41"><a xlink:href="../../d6/dcf/pythia6425mod_8f.html#ac00de061be805868aa61d626239f5fa9" target="_top" xlink:title="pyptis">
<polygon fill="none" stroke="#000000" points="2030.5,-.5 2030.5,-20.5 2077.5,-20.5 2077.5,-.5 2030.5,-.5"/>
<text text-anchor="middle" x="2054" y="-7.5" font-family="FreeSans" font-size="10.00" fill="#000000">pyptis</text>
</a>
</g>
</g>
<!-- Node39&#45;&gt;Node41 -->
<g id="edge53" class="edge">
<title>Node39&#45;&gt;Node41</title>
<path fill="none" stroke="#191970" d="M1996.7353,-35.4533C2008.084,-30.5081 2020.6004,-25.054 2031.0296,-20.5094"/>
<polygon fill="#191970" stroke="#191970" points="1995.3177,-32.2531 1987.5485,-39.4565 1998.1141,-38.6703 1995.3177,-32.2531"/>
</g>
<!-- Node40&#45;&gt;Node36 -->
<g id="edge52" class="edge">
<title>Node40&#45;&gt;Node36</title>
<path fill="none" stroke="#191970" d="M2161.7408,-27.2685C2179.539,-42.7798 2205.4206,-65.3359 2220.2966,-78.3004"/>
<polygon fill="#191970" stroke="#191970" points="2164.0389,-24.6287 2154.2006,-20.6971 2159.4398,-29.9059 2164.0389,-24.6287"/>
</g>
<!-- Node41&#45;&gt;Node40 -->
<g id="edge54" class="edge">
<title>Node41&#45;&gt;Node40</title>
<path fill="none" stroke="#191970" d="M2087.9848,-10.5C2097.7962,-10.5 2108.3202,-10.5 2117.4796,-10.5"/>
<polygon fill="#191970" stroke="#191970" points="2087.7164,-7.0001 2077.7164,-10.5 2087.7163,-14.0001 2087.7164,-7.0001"/>
</g>
<!-- Node42&#45;&gt;Node15 -->
<g id="edge57" class="edge">
<title>Node42&#45;&gt;Node15</title>
<path fill="none" stroke="#191970" d="M1498.0391,-242.5C1533.6067,-242.5 1587.0644,-242.5 1618.3027,-242.5"/>
<polygon fill="#191970" stroke="#191970" points="1497.6196,-239.0001 1487.6196,-242.5 1497.6195,-246.0001 1497.6196,-239.0001"/>
</g>
</g>
</svg>
