<?xml version="1.0" encoding="UTF-8" standalone="no"?>
<!DOCTYPE svg PUBLIC "-//W3C//DTD SVG 1.1//EN"
 "http://www.w3.org/Graphics/SVG/1.1/DTD/svg11.dtd">
<!-- Generated by graphviz version 2.40.1 (20161225.0304)
 -->
<!-- Title: fun4all_coresoftware/blob/master/offline/packages/CaloBase/RawTowerGeomContainer.h Pages: 1 -->
<svg width="635pt" height="179pt"
 viewBox="0.00 0.00 635.00 179.00" xmlns="http://www.w3.org/2000/svg" xmlns:xlink="http://www.w3.org/1999/xlink">
<g id="graph0" class="graph" transform="scale(1 1) rotate(0) translate(4 175)">
<title>fun4all_coresoftware/blob/master/offline/packages/CaloBase/RawTowerGeomContainer.h</title>
<!-- Node1 -->
<g id="node1" class="node">
<title>Node1</title>
<polygon fill="#bfbfbf" stroke="#000000" points="262,-114.5 262,-170.5 465,-170.5 465,-114.5 262,-114.5"/>
<text text-anchor="start" x="270" y="-157.5" font-family="FreeSans" font-size="10.00" fill="#000000">fun4all_coresoftware</text>
<text text-anchor="start" x="270" y="-145.5" font-family="FreeSans" font-size="10.00" fill="#000000">/blob/master/offline</text>
<text text-anchor="start" x="270" y="-133.5" font-family="FreeSans" font-size="10.00" fill="#000000">/packages/CaloBase/RawTowerGeom</text>
<text text-anchor="middle" x="363.5" y="-121.5" font-family="FreeSans" font-size="10.00" fill="#000000">Container.h</text>
</g>
<!-- Node2 -->
<g id="node2" class="node">
<title>Node2</title>
<g id="a_node2"><a xlink:href="../../d2/dd1/RawTowerDefs_8h.html" target="_top" xlink:title="RawTowerDefs.h">
<polygon fill="none" stroke="#000000" points="6.5,-57.5 6.5,-77.5 104.5,-77.5 104.5,-57.5 6.5,-57.5"/>
<text text-anchor="middle" x="55.5" y="-64.5" font-family="FreeSans" font-size="10.00" fill="#000000">RawTowerDefs.h</text>
</a>
</g>
</g>
<!-- Node1&#45;&gt;Node2 -->
<g id="edge1" class="edge">
<title>Node1&#45;&gt;Node2</title>
<path fill="none" stroke="#191970" d="M261.7957,-117.7343C209.724,-105.0545 148.6006,-90.1706 106.4755,-79.9129"/>
<polygon fill="#191970" stroke="#191970" points="107.2691,-76.5039 96.7249,-77.5385 105.6129,-83.3052 107.2691,-76.5039"/>
</g>
<!-- Node3 -->
<g id="node3" class="node">
<title>Node3</title>
<polygon fill="none" stroke="#bfbfbf" points="152.5,-.5 152.5,-20.5 212.5,-20.5 212.5,-.5 152.5,-.5"/>
<text text-anchor="middle" x="182.5" y="-7.5" font-family="FreeSans" font-size="10.00" fill="#000000">iostream</text>
</g>
<!-- Node1&#45;&gt;Node3 -->
<g id="edge12" class="edge">
<title>Node1&#45;&gt;Node3</title>
<path fill="none" stroke="#191970" d="M261.8271,-123.5503C214.4746,-112.4512 165.5005,-96.8937 151.5,-78 140.2043,-62.7565 152.131,-42.7396 164.3188,-28.4707"/>
<polygon fill="#191970" stroke="#191970" points="167.165,-30.5459 171.3513,-20.8132 162.0093,-25.811 167.165,-30.5459"/>
</g>
<!-- Node6 -->
<g id="node6" class="node">
<title>Node6</title>
<g id="a_node6"><a xlink:href="../../df/d32/PHObject_8h.html" target="_top" xlink:title="phool/PHObject.h">
<polygon fill="none" stroke="#000000" points="264.5,-57.5 264.5,-77.5 368.5,-77.5 368.5,-57.5 264.5,-57.5"/>
<text text-anchor="middle" x="316.5" y="-64.5" font-family="FreeSans" font-size="10.00" fill="#000000">phool/PHObject.h</text>
</a>
</g>
</g>
<!-- Node1&#45;&gt;Node6 -->
<g id="edge5" class="edge">
<title>Node1&#45;&gt;Node6</title>
<path fill="none" stroke="#191970" d="M345.7313,-114.1457C339.9141,-104.8629 333.5978,-94.7837 328.33,-86.3777"/>
<polygon fill="#191970" stroke="#191970" points="331.1865,-84.3446 322.9105,-77.7296 325.2549,-88.0618 331.1865,-84.3446"/>
</g>
<!-- Node8 -->
<g id="node8" class="node">
<title>Node8</title>
<g id="a_node8"><a xlink:href="../../d5/d6f/phool_8h.html" target="_top" xlink:title="phool/phool.h">
<polygon fill="none" stroke="#000000" points="161,-57.5 161,-77.5 246,-77.5 246,-57.5 161,-57.5"/>
<text text-anchor="middle" x="203.5" y="-64.5" font-family="FreeSans" font-size="10.00" fill="#000000">phool/phool.h</text>
</a>
</g>
</g>
<!-- Node1&#45;&gt;Node8 -->
<g id="edge8" class="edge">
<title>Node1&#45;&gt;Node8</title>
<path fill="none" stroke="#191970" d="M303.4667,-114.3594C279.8436,-103.2861 253.7391,-91.0496 234.1311,-81.8583"/>
<polygon fill="#191970" stroke="#191970" points="235.6068,-78.6846 225.0666,-77.6094 232.6357,-85.0229 235.6068,-78.6846"/>
</g>
<!-- Node9 -->
<g id="node9" class="node">
<title>Node9</title>
<polygon fill="none" stroke="#bfbfbf" points="386.5,-57.5 386.5,-77.5 434.5,-77.5 434.5,-57.5 386.5,-57.5"/>
<text text-anchor="middle" x="410.5" y="-64.5" font-family="FreeSans" font-size="10.00" fill="#000000">cmath</text>
</g>
<!-- Node1&#45;&gt;Node9 -->
<g id="edge10" class="edge">
<title>Node1&#45;&gt;Node9</title>
<path fill="none" stroke="#191970" d="M381.2687,-114.1457C387.0859,-104.8629 393.4022,-94.7837 398.67,-86.3777"/>
<polygon fill="#191970" stroke="#191970" points="401.7451,-88.0618 404.0895,-77.7296 395.8135,-84.3446 401.7451,-88.0618"/>
</g>
<!-- Node10 -->
<g id="node10" class="node">
<title>Node10</title>
<polygon fill="none" stroke="#bfbfbf" points="452.5,-57.5 452.5,-77.5 506.5,-77.5 506.5,-57.5 452.5,-57.5"/>
<text text-anchor="middle" x="479.5" y="-64.5" font-family="FreeSans" font-size="10.00" fill="#000000">cstddef</text>
</g>
<!-- Node1&#45;&gt;Node10 -->
<g id="edge11" class="edge">
<title>Node1&#45;&gt;Node10</title>
<path fill="none" stroke="#191970" d="M407.0241,-114.3594C423.3724,-103.7894 441.3598,-92.1596 455.3253,-83.1302"/>
<polygon fill="#191970" stroke="#191970" points="457.3669,-85.9781 463.8642,-77.6094 453.5662,-80.0997 457.3669,-85.9781"/>
</g>
<!-- Node11 -->
<g id="node11" class="node">
<title>Node11</title>
<polygon fill="none" stroke="#bfbfbf" points="525,-57.5 525,-77.5 564,-77.5 564,-57.5 525,-57.5"/>
<text text-anchor="middle" x="544.5" y="-64.5" font-family="FreeSans" font-size="10.00" fill="#000000">map</text>
</g>
<!-- Node1&#45;&gt;Node11 -->
<g id="edge13" class="edge">
<title>Node1&#45;&gt;Node11</title>
<path fill="none" stroke="#191970" d="M431.1551,-114.4661C460.1943,-102.4333 492.5912,-89.0092 515.2875,-79.6046"/>
<polygon fill="#191970" stroke="#191970" points="516.7854,-82.7726 524.6839,-75.7111 514.1057,-76.3058 516.7854,-82.7726"/>
</g>
<!-- Node12 -->
<g id="node12" class="node">
<title>Node12</title>
<polygon fill="none" stroke="#bfbfbf" points="582,-57.5 582,-77.5 627,-77.5 627,-57.5 582,-57.5"/>
<text text-anchor="middle" x="604.5" y="-64.5" font-family="FreeSans" font-size="10.00" fill="#000000">utility</text>
</g>
<!-- Node1&#45;&gt;Node12 -->
<g id="edge14" class="edge">
<title>Node1&#45;&gt;Node12</title>
<path fill="none" stroke="#191970" d="M456.7197,-114.4931C490.6489,-104.1477 529.4878,-92.1309 572.1043,-78.4032"/>
<polygon fill="#191970" stroke="#191970" points="573.3978,-81.6635 581.8379,-75.2592 571.2462,-75.0024 573.3978,-81.6635"/>
</g>
<!-- Node2&#45;&gt;Node3 -->
<g id="edge2" class="edge">
<title>Node2&#45;&gt;Node3</title>
<path fill="none" stroke="#191970" d="M77.9127,-57.4408C98.1006,-48.3801 127.998,-34.9615 150.6628,-24.7891"/>
<polygon fill="#191970" stroke="#191970" points="152.1941,-27.9383 159.8842,-20.6504 149.3278,-21.552 152.1941,-27.9383"/>
</g>
<!-- Node4 -->
<g id="node4" class="node">
<title>Node4</title>
<polygon fill="none" stroke="#bfbfbf" points="0,-.5 0,-20.5 45,-20.5 45,-.5 0,-.5"/>
<text text-anchor="middle" x="22.5" y="-7.5" font-family="FreeSans" font-size="10.00" fill="#000000">string</text>
</g>
<!-- Node2&#45;&gt;Node4 -->
<g id="edge3" class="edge">
<title>Node2&#45;&gt;Node4</title>
<path fill="none" stroke="#191970" d="M49.6003,-57.3095C45.1422,-49.6093 38.8938,-38.8166 33.5202,-29.5349"/>
<polygon fill="#191970" stroke="#191970" points="36.3881,-27.5029 28.3487,-20.6022 30.3301,-31.0102 36.3881,-27.5029"/>
</g>
<!-- Node5 -->
<g id="node5" class="node">
<title>Node5</title>
<polygon fill="none" stroke="#bfbfbf" points="63.5,-.5 63.5,-20.5 113.5,-20.5 113.5,-.5 63.5,-.5"/>
<text text-anchor="middle" x="88.5" y="-7.5" font-family="FreeSans" font-size="10.00" fill="#000000">cstdlib</text>
</g>
<!-- Node2&#45;&gt;Node5 -->
<g id="edge4" class="edge">
<title>Node2&#45;&gt;Node5</title>
<path fill="none" stroke="#191970" d="M61.3997,-57.3095C65.8578,-49.6093 72.1062,-38.8166 77.4798,-29.5349"/>
<polygon fill="#191970" stroke="#191970" points="80.6699,-31.0102 82.6513,-20.6022 74.6119,-27.5029 80.6699,-31.0102"/>
</g>
<!-- Node6&#45;&gt;Node3 -->
<g id="edge7" class="edge">
<title>Node6&#45;&gt;Node3</title>
<path fill="none" stroke="#191970" d="M292.8519,-57.4408C271.4563,-48.3396 239.7242,-34.8416 215.7721,-24.6531"/>
<polygon fill="#191970" stroke="#191970" points="216.9345,-21.3441 206.3624,-20.6504 214.1944,-27.7855 216.9345,-21.3441"/>
</g>
<!-- Node7 -->
<g id="node7" class="node">
<title>Node7</title>
<polygon fill="none" stroke="#bfbfbf" points="284,-.5 284,-20.5 349,-20.5 349,-.5 284,-.5"/>
<text text-anchor="middle" x="316.5" y="-7.5" font-family="FreeSans" font-size="10.00" fill="#000000">TObject.h</text>
</g>
<!-- Node6&#45;&gt;Node7 -->
<g id="edge6" class="edge">
<title>Node6&#45;&gt;Node7</title>
<path fill="none" stroke="#191970" d="M316.5,-57.3095C316.5,-49.9335 316.5,-39.72 316.5,-30.715"/>
<polygon fill="#191970" stroke="#191970" points="320.0001,-30.6022 316.5,-20.6022 313.0001,-30.6023 320.0001,-30.6022"/>
</g>
<!-- Node8&#45;&gt;Node3 -->
<g id="edge9" class="edge">
<title>Node8&#45;&gt;Node3</title>
<path fill="none" stroke="#191970" d="M199.7456,-57.3095C196.9684,-49.7714 193.0993,-39.2696 189.7295,-30.123"/>
<polygon fill="#191970" stroke="#191970" points="192.9632,-28.7757 186.2219,-20.6022 186.3948,-31.1957 192.9632,-28.7757"/>
</g>
</g>
</svg>
