<?xml version="1.0" encoding="UTF-8" standalone="no"?>
<!DOCTYPE svg PUBLIC "-//W3C//DTD SVG 1.1//EN"
 "http://www.w3.org/Graphics/SVG/1.1/DTD/svg11.dtd">
<!-- Generated by graphviz version 2.40.1 (20161225.0304)
 -->
<!-- Title: fun4all_coresoftware/blob/master/simulation/g4simulation/g4eval/SvtxTrackEval.h Pages: 1 -->
<svg width="1597pt" height="587pt"
 viewBox="0.00 0.00 1596.62 587.00" xmlns="http://www.w3.org/2000/svg" xmlns:xlink="http://www.w3.org/1999/xlink">
<g id="graph0" class="graph" transform="scale(1 1) rotate(0) translate(4 583)">
<title>fun4all_coresoftware/blob/master/simulation/g4simulation/g4eval/SvtxTrackEval.h</title>
<!-- Node1 -->
<g id="node1" class="node">
<title>Node1</title>
<polygon fill="#bfbfbf" stroke="#000000" points="303.6175,-522.5 303.6175,-578.5 480.6175,-578.5 480.6175,-522.5 303.6175,-522.5"/>
<text text-anchor="start" x="311.6175" y="-565.5" font-family="FreeSans" font-size="10.00" fill="#000000">fun4all_coresoftware</text>
<text text-anchor="start" x="311.6175" y="-553.5" font-family="FreeSans" font-size="10.00" fill="#000000">/blob/master/simulation</text>
<text text-anchor="start" x="311.6175" y="-541.5" font-family="FreeSans" font-size="10.00" fill="#000000">/g4simulation/g4eval/SvtxTrack</text>
<text text-anchor="middle" x="392.1175" y="-529.5" font-family="FreeSans" font-size="10.00" fill="#000000">Eval.h</text>
</g>
<!-- Node2 -->
<g id="node2" class="node">
<title>Node2</title>
<g id="a_node2"><a xlink:href="../../d4/d11/QAG4SimulationCalorimeterSum_8cc.html" target="_top" xlink:title="fun4all_coresoftware\l/blob/master/offline\l/QA/modules/QAG4SimulationCalorimeter\lSum.cc">
<polygon fill="none" stroke="#000000" points="34.6175,-243.5 34.6175,-299.5 263.6175,-299.5 263.6175,-243.5 34.6175,-243.5"/>
<text text-anchor="start" x="42.6175" y="-286.5" font-family="FreeSans" font-size="10.00" fill="#000000">fun4all_coresoftware</text>
<text text-anchor="start" x="42.6175" y="-274.5" font-family="FreeSans" font-size="10.00" fill="#000000">/blob/master/offline</text>
<text text-anchor="start" x="42.6175" y="-262.5" font-family="FreeSans" font-size="10.00" fill="#000000">/QA/modules/QAG4SimulationCalorimeter</text>
<text text-anchor="middle" x="149.1175" y="-250.5" font-family="FreeSans" font-size="10.00" fill="#000000">Sum.cc</text>
</a>
</g>
</g>
<!-- Node1&#45;&gt;Node2 -->
<g id="edge1" class="edge">
<title>Node1&#45;&gt;Node2</title>
<path fill="none" stroke="#191970" d="M361.1082,-514.8968C312.1592,-458.696 217.9864,-350.5717 173.5136,-299.5104"/>
<polygon fill="#191970" stroke="#191970" points="358.498,-517.2289 367.7051,-522.471 363.7766,-512.6314 358.498,-517.2289"/>
</g>
<!-- Node3 -->
<g id="node3" class="node">
<title>Node3</title>
<g id="a_node3"><a xlink:href="../../d8/d04/QAG4SimulationTracking_8cc.html" target="_top" xlink:title="fun4all_coresoftware\l/blob/master/offline\l/QA/modules/QAG4SimulationTracking.cc">
<polygon fill="none" stroke="#000000" points="455.6175,-162.5 455.6175,-206.5 680.6175,-206.5 680.6175,-162.5 455.6175,-162.5"/>
<text text-anchor="start" x="463.6175" y="-193.5" font-family="FreeSans" font-size="10.00" fill="#000000">fun4all_coresoftware</text>
<text text-anchor="start" x="463.6175" y="-181.5" font-family="FreeSans" font-size="10.00" fill="#000000">/blob/master/offline</text>
<text text-anchor="middle" x="568.1175" y="-169.5" font-family="FreeSans" font-size="10.00" fill="#000000">/QA/modules/QAG4SimulationTracking.cc</text>
</a>
</g>
</g>
<!-- Node1&#45;&gt;Node3 -->
<g id="edge2" class="edge">
<title>Node1&#45;&gt;Node3</title>
<path fill="none" stroke="#191970" d="M364.0766,-513.7843C320.1538,-451.4903 246.4955,-323.9847 311.1175,-243 329.5978,-219.8404 395.1459,-205.142 455.4135,-196.2709"/>
<polygon fill="#191970" stroke="#191970" points="361.3884,-516.0418 370.0594,-522.1299 367.0775,-511.9633 361.3884,-516.0418"/>
</g>
<!-- Node4 -->
<g id="node4" class="node">
<title>Node4</title>
<g id="a_node4"><a xlink:href="../../dc/dcd/QAG4SimulationUpsilon_8cc.html" target="_top" xlink:title="fun4all_coresoftware\l/blob/master/offline\l/QA/modules/QAG4SimulationUpsilon.cc">
<polygon fill="none" stroke="#000000" points="320.1175,-249.5 320.1175,-293.5 540.1175,-293.5 540.1175,-249.5 320.1175,-249.5"/>
<text text-anchor="start" x="328.1175" y="-280.5" font-family="FreeSans" font-size="10.00" fill="#000000">fun4all_coresoftware</text>
<text text-anchor="start" x="328.1175" y="-268.5" font-family="FreeSans" font-size="10.00" fill="#000000">/blob/master/offline</text>
<text text-anchor="middle" x="430.1175" y="-256.5" font-family="FreeSans" font-size="10.00" fill="#000000">/QA/modules/QAG4SimulationUpsilon.cc</text>
</a>
</g>
</g>
<!-- Node1&#45;&gt;Node4 -->
<g id="edge3" class="edge">
<title>Node1&#45;&gt;Node4</title>
<path fill="none" stroke="#191970" d="M377.2963,-512.8028C362.3444,-468.7661 344.564,-394.4911 368.1175,-336 374.7897,-319.4307 387.9788,-304.732 400.4833,-293.5668"/>
<polygon fill="#191970" stroke="#191970" points="374.0013,-513.9834 380.6212,-522.2555 380.6048,-511.6607 374.0013,-513.9834"/>
</g>
<!-- Node5 -->
<g id="node5" class="node">
<title>Node5</title>
<g id="a_node5"><a xlink:href="../../d5/d9c/SvtxVertexEval_8h.html" target="_top" xlink:title="fun4all_coresoftware\l/blob/master/simulation\l/g4simulation/g4eval/SvtxVertex\lEval.h">
<polygon fill="none" stroke="#000000" points="543.1175,-429.5 543.1175,-485.5 725.1175,-485.5 725.1175,-429.5 543.1175,-429.5"/>
<text text-anchor="start" x="551.1175" y="-472.5" font-family="FreeSans" font-size="10.00" fill="#000000">fun4all_coresoftware</text>
<text text-anchor="start" x="551.1175" y="-460.5" font-family="FreeSans" font-size="10.00" fill="#000000">/blob/master/simulation</text>
<text text-anchor="start" x="551.1175" y="-448.5" font-family="FreeSans" font-size="10.00" fill="#000000">/g4simulation/g4eval/SvtxVertex</text>
<text text-anchor="middle" x="634.1175" y="-436.5" font-family="FreeSans" font-size="10.00" fill="#000000">Eval.h</text>
</a>
</g>
</g>
<!-- Node1&#45;&gt;Node5 -->
<g id="edge4" class="edge">
<title>Node1&#45;&gt;Node5</title>
<path fill="none" stroke="#191970" d="M474.4365,-518.865C502.4839,-508.0865 533.6299,-496.1171 560.9131,-485.6323"/>
<polygon fill="#191970" stroke="#191970" points="473.1326,-515.6165 465.0537,-522.4708 475.6437,-522.1506 473.1326,-515.6165"/>
</g>
<!-- Node16 -->
<g id="node16" class="node">
<title>Node16</title>
<g id="a_node16"><a xlink:href="../../d2/da2/JetRecoEval_8cc.html" target="_top" xlink:title="fun4all_coresoftware\l/blob/master/simulation\l/g4simulation/g4eval/JetRecoEval.cc">
<polygon fill="none" stroke="#000000" points="740.6175,-81.5 740.6175,-125.5 941.6175,-125.5 941.6175,-81.5 740.6175,-81.5"/>
<text text-anchor="start" x="748.6175" y="-112.5" font-family="FreeSans" font-size="10.00" fill="#000000">fun4all_coresoftware</text>
<text text-anchor="start" x="748.6175" y="-100.5" font-family="FreeSans" font-size="10.00" fill="#000000">/blob/master/simulation</text>
<text text-anchor="middle" x="841.1175" y="-88.5" font-family="FreeSans" font-size="10.00" fill="#000000">/g4simulation/g4eval/JetRecoEval.cc</text>
</a>
</g>
</g>
<!-- Node1&#45;&gt;Node16 -->
<g id="edge31" class="edge">
<title>Node1&#45;&gt;Node16</title>
<path fill="none" stroke="#191970" d="M293.7176,-523.9333C179.3555,-490.087 6.1175,-428.2885 6.1175,-364.5 6.1175,-364.5 6.1175,-364.5 6.1175,-271.5 6.1175,-184.8896 -85.7381,-252.5054 446.1175,-162 545.8967,-145.0207 660.3415,-128.3809 740.2702,-117.216"/>
<polygon fill="#191970" stroke="#191970" points="292.9804,-527.3645 303.5613,-526.8209 294.9508,-520.6475 292.9804,-527.3645"/>
</g>
<!-- Node19 -->
<g id="node19" class="node">
<title>Node19</title>
<g id="a_node19"><a xlink:href="../../d7/dd1/SvtxEvaluator_8cc.html" target="_top" xlink:title="fun4all_coresoftware\l/blob/master/simulation\l/g4simulation/g4eval/SvtxEvaluator.cc">
<polygon fill="none" stroke="#000000" points="1377.6175,-249.5 1377.6175,-293.5 1588.6175,-293.5 1588.6175,-249.5 1377.6175,-249.5"/>
<text text-anchor="start" x="1385.6175" y="-280.5" font-family="FreeSans" font-size="10.00" fill="#000000">fun4all_coresoftware</text>
<text text-anchor="start" x="1385.6175" y="-268.5" font-family="FreeSans" font-size="10.00" fill="#000000">/blob/master/simulation</text>
<text text-anchor="middle" x="1483.1175" y="-256.5" font-family="FreeSans" font-size="10.00" fill="#000000">/g4simulation/g4eval/SvtxEvaluator.cc</text>
</a>
</g>
</g>
<!-- Node1&#45;&gt;Node19 -->
<g id="edge32" class="edge">
<title>Node1&#45;&gt;Node19</title>
<path fill="none" stroke="#191970" d="M490.791,-536.0196C559.6011,-524.9197 653.2135,-507.8116 734.1175,-486 807.4084,-466.2409 822.6224,-451.504 895.1175,-429 1069.3495,-374.9146 1275.9716,-322.1549 1392.0778,-293.5258"/>
<polygon fill="#191970" stroke="#191970" points="490.145,-532.5783 480.8231,-537.6135 491.2503,-539.4905 490.145,-532.5783"/>
</g>
<!-- Node20 -->
<g id="node20" class="node">
<title>Node20</title>
<g id="a_node20"><a xlink:href="../../d3/de1/SvtxVertexEval_8cc.html" target="_top" xlink:title="fun4all_coresoftware\l/blob/master/simulation\l/g4simulation/g4eval/SvtxVertex\lEval.cc">
<polygon fill="none" stroke="#000000" points="377.1175,-336.5 377.1175,-392.5 559.1175,-392.5 559.1175,-336.5 377.1175,-336.5"/>
<text text-anchor="start" x="385.1175" y="-379.5" font-family="FreeSans" font-size="10.00" fill="#000000">fun4all_coresoftware</text>
<text text-anchor="start" x="385.1175" y="-367.5" font-family="FreeSans" font-size="10.00" fill="#000000">/blob/master/simulation</text>
<text text-anchor="start" x="385.1175" y="-355.5" font-family="FreeSans" font-size="10.00" fill="#000000">/g4simulation/g4eval/SvtxVertex</text>
<text text-anchor="middle" x="468.1175" y="-343.5" font-family="FreeSans" font-size="10.00" fill="#000000">Eval.cc</text>
</a>
</g>
</g>
<!-- Node1&#45;&gt;Node20 -->
<g id="edge34" class="edge">
<title>Node1&#45;&gt;Node20</title>
<path fill="none" stroke="#191970" d="M407.5617,-512.7023C422.0869,-477.1539 443.5028,-424.7413 456.5909,-392.7099"/>
<polygon fill="#191970" stroke="#191970" points="404.2028,-511.6697 403.6603,-522.2506 410.6827,-514.3174 404.2028,-511.6697"/>
</g>
<!-- Node21 -->
<g id="node21" class="node">
<title>Node21</title>
<g id="a_node21"><a xlink:href="../../d5/d71/SvtxTrackEval_8cc.html" target="_top" xlink:title="fun4all_coresoftware\l/blob/master/simulation\l/g4simulation/g4eval/SvtxTrack\lEval.cc">
<polygon fill="none" stroke="#000000" points="903.6175,-429.5 903.6175,-485.5 1080.6175,-485.5 1080.6175,-429.5 903.6175,-429.5"/>
<text text-anchor="start" x="911.6175" y="-472.5" font-family="FreeSans" font-size="10.00" fill="#000000">fun4all_coresoftware</text>
<text text-anchor="start" x="911.6175" y="-460.5" font-family="FreeSans" font-size="10.00" fill="#000000">/blob/master/simulation</text>
<text text-anchor="start" x="911.6175" y="-448.5" font-family="FreeSans" font-size="10.00" fill="#000000">/g4simulation/g4eval/SvtxTrack</text>
<text text-anchor="middle" x="992.1175" y="-436.5" font-family="FreeSans" font-size="10.00" fill="#000000">Eval.cc</text>
</a>
</g>
</g>
<!-- Node1&#45;&gt;Node21 -->
<g id="edge33" class="edge">
<title>Node1&#45;&gt;Node21</title>
<path fill="none" stroke="#191970" d="M491.098,-541.9086C592.0892,-532.1555 753.0096,-513.8834 890.1175,-486 894.5319,-485.1023 899.0355,-484.1153 903.5709,-483.0645"/>
<polygon fill="#191970" stroke="#191970" points="490.5295,-538.4469 480.9082,-542.8833 491.1961,-545.4151 490.5295,-538.4469"/>
</g>
<!-- Node6 -->
<g id="node6" class="node">
<title>Node6</title>
<g id="a_node6"><a xlink:href="../../d3/d59/SvtxEvalStack_8h.html" target="_top" xlink:title="fun4all_coresoftware\l/blob/master/simulation\l/g4simulation/g4eval/SvtxEvalStack.h">
<polygon fill="none" stroke="#000000" points="602.1175,-342.5 602.1175,-386.5 810.1175,-386.5 810.1175,-342.5 602.1175,-342.5"/>
<text text-anchor="start" x="610.1175" y="-373.5" font-family="FreeSans" font-size="10.00" fill="#000000">fun4all_coresoftware</text>
<text text-anchor="start" x="610.1175" y="-361.5" font-family="FreeSans" font-size="10.00" fill="#000000">/blob/master/simulation</text>
<text text-anchor="middle" x="706.1175" y="-349.5" font-family="FreeSans" font-size="10.00" fill="#000000">/g4simulation/g4eval/SvtxEvalStack.h</text>
</a>
</g>
</g>
<!-- Node5&#45;&gt;Node6 -->
<g id="edge5" class="edge">
<title>Node5&#45;&gt;Node6</title>
<path fill="none" stroke="#191970" d="M662.0512,-421.419C671.1243,-409.6995 680.9181,-397.0492 688.9632,-386.6577"/>
<polygon fill="#191970" stroke="#191970" points="659.2695,-419.2947 655.9153,-429.3446 664.8046,-423.5799 659.2695,-419.2947"/>
</g>
<!-- Node5&#45;&gt;Node19 -->
<g id="edge29" class="edge">
<title>Node5&#45;&gt;Node19</title>
<path fill="none" stroke="#191970" d="M735.1152,-434.1546C763.9756,-424.4477 794.3007,-411.0936 819.1175,-393 844.7593,-374.3049 834.2401,-351.1613 862.1175,-336 960.1744,-282.6712 1252.7918,-316.9514 1363.1175,-300 1374.4405,-298.2602 1386.2718,-296.0029 1397.9043,-293.5203"/>
<polygon fill="#191970" stroke="#191970" points="733.8258,-430.8933 725.3939,-437.3083 735.9859,-437.5517 733.8258,-430.8933"/>
</g>
<!-- Node5&#45;&gt;Node20 -->
<g id="edge30" class="edge">
<title>Node5&#45;&gt;Node20</title>
<path fill="none" stroke="#191970" d="M574.9097,-424.3293C556.3537,-413.9335 536.0647,-402.5668 518.2026,-392.5597"/>
<polygon fill="#191970" stroke="#191970" points="573.4267,-427.5103 583.8615,-429.3446 576.8481,-421.4034 573.4267,-427.5103"/>
</g>
<!-- Node6&#45;&gt;Node2 -->
<g id="edge6" class="edge">
<title>Node6&#45;&gt;Node2</title>
<path fill="none" stroke="#191970" d="M593.0997,-340.5444C584.6576,-338.9436 576.2606,-337.4097 568.1175,-336 454.4704,-316.3261 425.0425,-317.9947 311.1175,-300 295.7446,-297.5718 279.5749,-294.8858 263.6445,-292.1618"/>
<polygon fill="#191970" stroke="#191970" points="592.5372,-344.0003 603.0181,-342.4509 593.8586,-337.1261 592.5372,-344.0003"/>
</g>
<!-- Node6&#45;&gt;Node3 -->
<g id="edge9" class="edge">
<title>Node6&#45;&gt;Node3</title>
<path fill="none" stroke="#191970" d="M632.0454,-337.7237C614.9237,-328.2651 598.4313,-315.8956 587.1175,-300 567.4383,-272.3512 565.3488,-231.6242 566.2745,-206.6479"/>
<polygon fill="#191970" stroke="#191970" points="630.5468,-340.8894 641.0323,-342.4078 633.7823,-334.682 630.5468,-340.8894"/>
</g>
<!-- Node6&#45;&gt;Node4 -->
<g id="edge10" class="edge">
<title>Node6&#45;&gt;Node4</title>
<path fill="none" stroke="#191970" d="M631.0018,-339.1893C588.633,-324.9128 536.2047,-307.2468 495.5338,-293.5425"/>
<polygon fill="#191970" stroke="#191970" points="630.1152,-342.5838 640.7094,-342.4603 632.3505,-335.9503 630.1152,-342.5838"/>
</g>
<!-- Node7 -->
<g id="node7" class="node">
<title>Node7</title>
<g id="a_node7"><a xlink:href="../../d4/d03/QAG4SimulationTracking_8h.html" target="_top" xlink:title="fun4all_coresoftware\l/blob/master/offline\l/QA/modules/QAG4SimulationTracking.h">
<polygon fill="none" stroke="#000000" points="596.1175,-249.5 596.1175,-293.5 816.1175,-293.5 816.1175,-249.5 596.1175,-249.5"/>
<text text-anchor="start" x="604.1175" y="-280.5" font-family="FreeSans" font-size="10.00" fill="#000000">fun4all_coresoftware</text>
<text text-anchor="start" x="604.1175" y="-268.5" font-family="FreeSans" font-size="10.00" fill="#000000">/blob/master/offline</text>
<text text-anchor="middle" x="706.1175" y="-256.5" font-family="FreeSans" font-size="10.00" fill="#000000">/QA/modules/QAG4SimulationTracking.h</text>
</a>
</g>
</g>
<!-- Node6&#45;&gt;Node7 -->
<g id="edge7" class="edge">
<title>Node6&#45;&gt;Node7</title>
<path fill="none" stroke="#191970" d="M706.1175,-332.2412C706.1175,-319.5215 706.1175,-305.2283 706.1175,-293.7038"/>
<polygon fill="#191970" stroke="#191970" points="702.6176,-332.4603 706.1175,-342.4603 709.6176,-332.4603 702.6176,-332.4603"/>
</g>
<!-- Node8 -->
<g id="node8" class="node">
<title>Node8</title>
<g id="a_node8"><a xlink:href="../../de/d49/JetTruthEval_8h.html" target="_top" xlink:title="fun4all_coresoftware\l/blob/master/simulation\l/g4simulation/g4eval/JetTruthEval.h">
<polygon fill="none" stroke="#000000" points="1104.6175,-249.5 1104.6175,-293.5 1301.6175,-293.5 1301.6175,-249.5 1104.6175,-249.5"/>
<text text-anchor="start" x="1112.6175" y="-280.5" font-family="FreeSans" font-size="10.00" fill="#000000">fun4all_coresoftware</text>
<text text-anchor="start" x="1112.6175" y="-268.5" font-family="FreeSans" font-size="10.00" fill="#000000">/blob/master/simulation</text>
<text text-anchor="middle" x="1203.1175" y="-256.5" font-family="FreeSans" font-size="10.00" fill="#000000">/g4simulation/g4eval/JetTruthEval.h</text>
</a>
</g>
</g>
<!-- Node6&#45;&gt;Node8 -->
<g id="edge11" class="edge">
<title>Node6&#45;&gt;Node8</title>
<path fill="none" stroke="#191970" d="M802.7392,-340.3172C809.9554,-338.7709 817.1399,-337.3112 824.1175,-336 941.3652,-313.9668 972.9822,-322.6235 1090.1175,-300 1099.9508,-298.1008 1110.2062,-295.8705 1120.3529,-293.5082"/>
<polygon fill="#191970" stroke="#191970" points="801.9151,-336.9146 792.8958,-342.4737 803.4132,-343.7525 801.9151,-336.9146"/>
</g>
<!-- Node14 -->
<g id="node14" class="node">
<title>Node14</title>
<g id="a_node14"><a xlink:href="../../d0/d67/AnaTutorial_8cc.html" target="_top" xlink:title="fun4all_tutorials/blob\l/master/AnaTutorial/src\l/AnaTutorial.cc">
<polygon fill="none" stroke="#000000" points="1445.1175,-.5 1445.1175,-44.5 1579.1175,-44.5 1579.1175,-.5 1445.1175,-.5"/>
<text text-anchor="start" x="1453.1175" y="-31.5" font-family="FreeSans" font-size="10.00" fill="#000000">fun4all_tutorials/blob</text>
<text text-anchor="start" x="1453.1175" y="-19.5" font-family="FreeSans" font-size="10.00" fill="#000000">/master/AnaTutorial/src</text>
<text text-anchor="middle" x="1512.1175" y="-7.5" font-family="FreeSans" font-size="10.00" fill="#000000">/AnaTutorial.cc</text>
</a>
</g>
</g>
<!-- Node6&#45;&gt;Node14 -->
<g id="edge28" class="edge">
<title>Node6&#45;&gt;Node14</title>
<path fill="none" stroke="#191970" d="M792.9432,-340.2803C800.4072,-338.6606 807.8721,-337.1997 815.1175,-336 924.1451,-317.9464 1214.5713,-353.7751 1311.1175,-300 1365.166,-269.8956 1464.0771,-105.5175 1499.2686,-44.9341"/>
<polygon fill="#191970" stroke="#191970" points="792.1331,-336.875 783.15,-342.4923 793.6754,-343.703 792.1331,-336.875"/>
</g>
<!-- Node6&#45;&gt;Node16 -->
<g id="edge25" class="edge">
<title>Node6&#45;&gt;Node16</title>
<path fill="none" stroke="#191970" d="M796.2562,-340.1263C802.6214,-338.6533 808.9553,-337.2601 815.1175,-336 868.3847,-325.1073 1021.6133,-341.1765 1057.1175,-300 1073.6606,-280.8139 1073.4628,-262.3549 1057.1175,-243 995.4543,-169.983 908.1793,-278.8125 845.1175,-207 825.7769,-184.9756 829.4437,-149.0379 834.6603,-125.8335"/>
<polygon fill="#191970" stroke="#191970" points="795.1708,-336.7865 786.248,-342.499 796.7857,-343.5977 795.1708,-336.7865"/>
</g>
<!-- Node18 -->
<g id="node18" class="node">
<title>Node18</title>
<g id="a_node18"><a xlink:href="../../d7/ded/SvtxEvalStack_8cc.html" target="_top" xlink:title="fun4all_coresoftware\l/blob/master/simulation\l/g4simulation/g4eval/SvtxEvalStack.cc">
<polygon fill="none" stroke="#000000" points="834.6175,-249.5 834.6175,-293.5 1047.6175,-293.5 1047.6175,-249.5 834.6175,-249.5"/>
<text text-anchor="start" x="842.6175" y="-280.5" font-family="FreeSans" font-size="10.00" fill="#000000">fun4all_coresoftware</text>
<text text-anchor="start" x="842.6175" y="-268.5" font-family="FreeSans" font-size="10.00" fill="#000000">/blob/master/simulation</text>
<text text-anchor="middle" x="941.1175" y="-256.5" font-family="FreeSans" font-size="10.00" fill="#000000">/g4simulation/g4eval/SvtxEvalStack.cc</text>
</a>
</g>
</g>
<!-- Node6&#45;&gt;Node18 -->
<g id="edge26" class="edge">
<title>Node6&#45;&gt;Node18</title>
<path fill="none" stroke="#191970" d="M771.2167,-338.7373C807.0883,-324.5414 851.1541,-307.1025 885.4188,-293.5425"/>
<polygon fill="#191970" stroke="#191970" points="769.8196,-335.526 761.8092,-342.4603 772.3955,-342.0349 769.8196,-335.526"/>
</g>
<!-- Node6&#45;&gt;Node19 -->
<g id="edge27" class="edge">
<title>Node6&#45;&gt;Node19</title>
<path fill="none" stroke="#191970" d="M799.6156,-340.3834C807.867,-338.7215 816.1197,-337.2238 824.1175,-336 1061.4445,-299.685 1125.7218,-335.8632 1363.1175,-300 1374.5507,-298.2728 1386.4999,-296.0062 1398.2386,-293.5045"/>
<polygon fill="#191970" stroke="#191970" points="798.6403,-337.0115 789.5686,-342.4846 800.0734,-343.8633 798.6403,-337.0115"/>
</g>
<!-- Node7&#45;&gt;Node3 -->
<g id="edge8" class="edge">
<title>Node7&#45;&gt;Node3</title>
<path fill="none" stroke="#191970" d="M662.4029,-243.9408C643.314,-231.9065 621.2287,-217.9832 603.2336,-206.6384"/>
<polygon fill="#191970" stroke="#191970" points="660.6114,-246.9488 670.9372,-249.3211 664.3445,-241.0273 660.6114,-246.9488"/>
</g>
<!-- Node9 -->
<g id="node9" class="node">
<title>Node9</title>
<g id="a_node9"><a xlink:href="../../d3/d23/QAG4SimulationJet_8cc.html" target="_top" xlink:title="fun4all_coresoftware\l/blob/master/offline\l/QA/modules/QAG4SimulationJet.cc">
<polygon fill="none" stroke="#000000" points="1231.1175,-.5 1231.1175,-44.5 1427.1175,-44.5 1427.1175,-.5 1231.1175,-.5"/>
<text text-anchor="start" x="1239.1175" y="-31.5" font-family="FreeSans" font-size="10.00" fill="#000000">fun4all_coresoftware</text>
<text text-anchor="start" x="1239.1175" y="-19.5" font-family="FreeSans" font-size="10.00" fill="#000000">/blob/master/offline</text>
<text text-anchor="middle" x="1329.1175" y="-7.5" font-family="FreeSans" font-size="10.00" fill="#000000">/QA/modules/QAG4SimulationJet.cc</text>
</a>
</g>
</g>
<!-- Node8&#45;&gt;Node9 -->
<g id="edge12" class="edge">
<title>Node8&#45;&gt;Node9</title>
<path fill="none" stroke="#191970" d="M1269.4524,-244.379C1285.1962,-234.8483 1300.2624,-222.5298 1310.1175,-207 1342.2952,-156.294 1337.673,-81.5476 1332.7916,-44.6999"/>
<polygon fill="#191970" stroke="#191970" points="1267.6182,-241.3958 1260.6649,-249.3897 1271.0856,-247.4767 1267.6182,-241.3958"/>
</g>
<!-- Node10 -->
<g id="node10" class="node">
<title>Node10</title>
<g id="a_node10"><a xlink:href="../../da/d50/JetRecoEval_8h.html" target="_top" xlink:title="fun4all_coresoftware\l/blob/master/simulation\l/g4simulation/g4eval/JetRecoEval.h">
<polygon fill="none" stroke="#000000" points="1105.1175,-162.5 1105.1175,-206.5 1301.1175,-206.5 1301.1175,-162.5 1105.1175,-162.5"/>
<text text-anchor="start" x="1113.1175" y="-193.5" font-family="FreeSans" font-size="10.00" fill="#000000">fun4all_coresoftware</text>
<text text-anchor="start" x="1113.1175" y="-181.5" font-family="FreeSans" font-size="10.00" fill="#000000">/blob/master/simulation</text>
<text text-anchor="middle" x="1203.1175" y="-169.5" font-family="FreeSans" font-size="10.00" fill="#000000">/g4simulation/g4eval/JetRecoEval.h</text>
</a>
</g>
</g>
<!-- Node8&#45;&gt;Node10 -->
<g id="edge13" class="edge">
<title>Node8&#45;&gt;Node10</title>
<path fill="none" stroke="#191970" d="M1203.1175,-239.0893C1203.1175,-228.2369 1203.1175,-216.3979 1203.1175,-206.5276"/>
<polygon fill="#191970" stroke="#191970" points="1199.6176,-239.0953 1203.1175,-249.0953 1206.6176,-239.0954 1199.6176,-239.0953"/>
</g>
<!-- Node8&#45;&gt;Node16 -->
<g id="edge23" class="edge">
<title>Node8&#45;&gt;Node16</title>
<path fill="none" stroke="#191970" d="M1108.8163,-247.1159C1102.5009,-245.6683 1096.2249,-244.2817 1090.1175,-243 995.7262,-223.1907 949.5303,-269.5515 876.1175,-207 852.2946,-186.7017 844.6412,-149.5731 842.2103,-125.7419"/>
<polygon fill="#191970" stroke="#191970" points="1108.2206,-250.5708 1118.7544,-249.4345 1109.8112,-243.7539 1108.2206,-250.5708"/>
</g>
<!-- Node17 -->
<g id="node17" class="node">
<title>Node17</title>
<g id="a_node17"><a xlink:href="../../da/dbb/JetTruthEval_8cc.html" target="_top" xlink:title="fun4all_coresoftware\l/blob/master/simulation\l/g4simulation/g4eval/JetTruthEval.cc">
<polygon fill="none" stroke="#000000" points="885.1175,-162.5 885.1175,-206.5 1087.1175,-206.5 1087.1175,-162.5 885.1175,-162.5"/>
<text text-anchor="start" x="893.1175" y="-193.5" font-family="FreeSans" font-size="10.00" fill="#000000">fun4all_coresoftware</text>
<text text-anchor="start" x="893.1175" y="-181.5" font-family="FreeSans" font-size="10.00" fill="#000000">/blob/master/simulation</text>
<text text-anchor="middle" x="986.1175" y="-169.5" font-family="FreeSans" font-size="10.00" fill="#000000">/g4simulation/g4eval/JetTruthEval.cc</text>
</a>
</g>
</g>
<!-- Node8&#45;&gt;Node17 -->
<g id="edge24" class="edge">
<title>Node8&#45;&gt;Node17</title>
<path fill="none" stroke="#191970" d="M1138.6471,-245.6524C1107.6116,-233.2096 1070.7879,-218.4462 1041.0976,-206.5427"/>
<polygon fill="#191970" stroke="#191970" points="1137.4944,-248.9611 1148.0787,-249.4338 1140.0994,-242.4638 1137.4944,-248.9611"/>
</g>
<!-- Node10&#45;&gt;Node9 -->
<g id="edge14" class="edge">
<title>Node10&#45;&gt;Node9</title>
<path fill="none" stroke="#191970" d="M1226.663,-154.2272C1251.4209,-122.3956 1289.7843,-73.0713 1311.8686,-44.6771"/>
<polygon fill="#191970" stroke="#191970" points="1223.7498,-152.2719 1220.3731,-162.3143 1229.2753,-156.5695 1223.7498,-152.2719"/>
</g>
<!-- Node11 -->
<g id="node11" class="node">
<title>Node11</title>
<g id="a_node11"><a xlink:href="../../db/de2/JetEvalStack_8h.html" target="_top" xlink:title="fun4all_coresoftware\l/blob/master/simulation\l/g4simulation/g4eval/JetEvalStack.h">
<polygon fill="none" stroke="#000000" points="1024.6175,-81.5 1024.6175,-125.5 1223.6175,-125.5 1223.6175,-81.5 1024.6175,-81.5"/>
<text text-anchor="start" x="1032.6175" y="-112.5" font-family="FreeSans" font-size="10.00" fill="#000000">fun4all_coresoftware</text>
<text text-anchor="start" x="1032.6175" y="-100.5" font-family="FreeSans" font-size="10.00" fill="#000000">/blob/master/simulation</text>
<text text-anchor="middle" x="1124.1175" y="-88.5" font-family="FreeSans" font-size="10.00" fill="#000000">/g4simulation/g4eval/JetEvalStack.h</text>
</a>
</g>
</g>
<!-- Node10&#45;&gt;Node11 -->
<g id="edge15" class="edge">
<title>Node10&#45;&gt;Node11</title>
<path fill="none" stroke="#191970" d="M1174.4793,-155.1368C1164.9738,-145.3906 1154.5583,-134.7114 1145.6785,-125.6068"/>
<polygon fill="#191970" stroke="#191970" points="1172.0426,-157.6512 1181.5304,-162.3664 1177.0539,-152.7637 1172.0426,-157.6512"/>
</g>
<!-- Node13 -->
<g id="node13" class="node">
<title>Node13</title>
<g id="a_node13"><a xlink:href="../../dd/db5/JetEvaluator_8cc.html" target="_top" xlink:title="fun4all_coresoftware\l/blob/master/simulation\l/g4simulation/g4eval/JetEvaluator.cc">
<polygon fill="none" stroke="#000000" points="641.1175,-.5 641.1175,-44.5 843.1175,-44.5 843.1175,-.5 641.1175,-.5"/>
<text text-anchor="start" x="649.1175" y="-31.5" font-family="FreeSans" font-size="10.00" fill="#000000">fun4all_coresoftware</text>
<text text-anchor="start" x="649.1175" y="-19.5" font-family="FreeSans" font-size="10.00" fill="#000000">/blob/master/simulation</text>
<text text-anchor="middle" x="742.1175" y="-7.5" font-family="FreeSans" font-size="10.00" fill="#000000">/g4simulation/g4eval/JetEvaluator.cc</text>
</a>
</g>
</g>
<!-- Node10&#45;&gt;Node13 -->
<g id="edge21" class="edge">
<title>Node10&#45;&gt;Node13</title>
<path fill="none" stroke="#191970" d="M1103.753,-159.5102C1074.797,-150.6172 1043.5786,-139.4135 1016.1175,-126 984.5461,-110.5789 982.9187,-95.9416 951.1175,-81 917.2705,-65.0972 878.2539,-52.7323 843.1635,-43.5524"/>
<polygon fill="#191970" stroke="#191970" points="1102.893,-162.9064 1113.4775,-162.4374 1104.9107,-156.2035 1102.893,-162.9064"/>
</g>
<!-- Node10&#45;&gt;Node16 -->
<g id="edge22" class="edge">
<title>Node10&#45;&gt;Node16</title>
<path fill="none" stroke="#191970" d="M1094.625,-160.2241C1045.3662,-149.2021 987.5237,-136.2594 939.5378,-125.5222"/>
<polygon fill="#191970" stroke="#191970" points="1094.1546,-163.7053 1104.6776,-162.4734 1095.6832,-156.8742 1094.1546,-163.7053"/>
</g>
<!-- Node11&#45;&gt;Node9 -->
<g id="edge16" class="edge">
<title>Node11&#45;&gt;Node9</title>
<path fill="none" stroke="#191970" d="M1189.2527,-77.7637C1216.3132,-67.0714 1247.3993,-54.7887 1273.3822,-44.5222"/>
<polygon fill="#191970" stroke="#191970" points="1187.878,-74.5434 1179.8639,-81.4734 1190.4504,-81.0537 1187.878,-74.5434"/>
</g>
<!-- Node12 -->
<g id="node12" class="node">
<title>Node12</title>
<g id="a_node12"><a xlink:href="../../d5/dab/JetEvalStack_8cc.html" target="_top" xlink:title="fun4all_coresoftware\l/blob/master/simulation\l/g4simulation/g4eval/JetEvalStack.cc">
<polygon fill="none" stroke="#000000" points="1009.1175,-.5 1009.1175,-44.5 1213.1175,-44.5 1213.1175,-.5 1009.1175,-.5"/>
<text text-anchor="start" x="1017.1175" y="-31.5" font-family="FreeSans" font-size="10.00" fill="#000000">fun4all_coresoftware</text>
<text text-anchor="start" x="1017.1175" y="-19.5" font-family="FreeSans" font-size="10.00" fill="#000000">/blob/master/simulation</text>
<text text-anchor="middle" x="1111.1175" y="-7.5" font-family="FreeSans" font-size="10.00" fill="#000000">/g4simulation/g4eval/JetEvalStack.cc</text>
</a>
</g>
</g>
<!-- Node11&#45;&gt;Node12 -->
<g id="edge17" class="edge">
<title>Node11&#45;&gt;Node12</title>
<path fill="none" stroke="#191970" d="M1118.9409,-71.2457C1117.507,-62.3118 1115.9835,-52.8188 1114.6655,-44.6068"/>
<polygon fill="#191970" stroke="#191970" points="1115.5247,-72.0474 1120.5652,-81.3664 1122.4362,-70.9381 1115.5247,-72.0474"/>
</g>
<!-- Node11&#45;&gt;Node13 -->
<g id="edge18" class="edge">
<title>Node11&#45;&gt;Node13</title>
<path fill="none" stroke="#191970" d="M1014.3244,-80.2193C960.4774,-68.8014 896.0491,-55.1399 843.3936,-43.9748"/>
<polygon fill="#191970" stroke="#191970" points="1013.7419,-83.6735 1024.2505,-82.324 1015.194,-76.8258 1013.7419,-83.6735"/>
</g>
<!-- Node11&#45;&gt;Node14 -->
<g id="edge19" class="edge">
<title>Node11&#45;&gt;Node14</title>
<path fill="none" stroke="#191970" d="M1233.6204,-85.7972C1293.7201,-75.3729 1369.3811,-61.0905 1436.1175,-45 1439.0605,-44.2904 1442.0589,-43.5367 1445.0815,-42.7515"/>
<polygon fill="#191970" stroke="#191970" points="1232.992,-82.3538 1223.7321,-87.5019 1234.1813,-89.252 1232.992,-82.3538"/>
</g>
<!-- Node15 -->
<g id="node15" class="node">
<title>Node15</title>
<g id="a_node15"><a xlink:href="../../da/dc2/MyJetAnalysis_8cc.html" target="_top" xlink:title="fun4all_tutorials/blob\l/master/myjetanalysis\l/src/MyJetAnalysis.cc">
<polygon fill="none" stroke="#000000" points="861.6175,-.5 861.6175,-44.5 990.6175,-44.5 990.6175,-.5 861.6175,-.5"/>
<text text-anchor="start" x="869.6175" y="-31.5" font-family="FreeSans" font-size="10.00" fill="#000000">fun4all_tutorials/blob</text>
<text text-anchor="start" x="869.6175" y="-19.5" font-family="FreeSans" font-size="10.00" fill="#000000">/master/myjetanalysis</text>
<text text-anchor="middle" x="926.1175" y="-7.5" font-family="FreeSans" font-size="10.00" fill="#000000">/src/MyJetAnalysis.cc</text>
</a>
</g>
</g>
<!-- Node11&#45;&gt;Node15 -->
<g id="edge20" class="edge">
<title>Node11&#45;&gt;Node15</title>
<path fill="none" stroke="#191970" d="M1060.8638,-77.6235C1034.8078,-66.9642 1004.9358,-54.7438 979.9496,-44.5222"/>
<polygon fill="#191970" stroke="#191970" points="1059.694,-80.9264 1070.2747,-81.4734 1062.3444,-74.4476 1059.694,-80.9264"/>
</g>
</g>
</svg>
