<?xml version="1.0" encoding="UTF-8" standalone="no"?>
<!DOCTYPE svg PUBLIC "-//W3C//DTD SVG 1.1//EN"
 "http://www.w3.org/Graphics/SVG/1.1/DTD/svg11.dtd">
<!-- Generated by graphviz version 2.40.1 (20161225.0304)
 -->
<!-- Title: RawTowerCalibration::set_calib_const_GeV_ADC Pages: 1 -->
<svg width="482pt" height="224pt"
 viewBox="0.00 0.00 482.00 224.00" xmlns="http://www.w3.org/2000/svg" xmlns:xlink="http://www.w3.org/1999/xlink">
<g id="graph0" class="graph" transform="scale(1 1) rotate(0) translate(4 220)">
<title>RawTowerCalibration::set_calib_const_GeV_ADC</title>
<!-- Node1 -->
<g id="node1" class="node">
<title>Node1</title>
<polygon fill="#bfbfbf" stroke="#000000" points="0,-91.5 0,-123.5 152,-123.5 152,-91.5 0,-91.5"/>
<text text-anchor="start" x="8" y="-110.5" font-family="FreeSans" font-size="10.00" fill="#000000">RawTowerCalibration</text>
<text text-anchor="middle" x="76" y="-98.5" font-family="FreeSans" font-size="10.00" fill="#000000">::set_calib_const_GeV_ADC</text>
</g>
<!-- Node2 -->
<g id="node2" class="node">
<title>Node2</title>
<g id="a_node2"><a xlink:href="../../d8/d4c/G4__CEmc__EIC_8C.html#a46a52c955e8d2078c58d4d7db471cc43" target="_top" xlink:title="CEMC_Towers">
<polygon fill="none" stroke="#000000" points="201,-195.5 201,-215.5 286,-215.5 286,-195.5 201,-195.5"/>
<text text-anchor="middle" x="243.5" y="-202.5" font-family="FreeSans" font-size="10.00" fill="#000000">CEMC_Towers</text>
</a>
</g>
</g>
<!-- Node1&#45;&gt;Node2 -->
<g id="edge1" class="edge">
<title>Node1&#45;&gt;Node2</title>
<path fill="none" stroke="#191970" d="M102.989,-129.8633C124.8459,-147.1293 156.9938,-170.6689 188,-186.5 194.6215,-189.8808 201.9796,-192.8784 209.1158,-195.4365"/>
<polygon fill="#191970" stroke="#191970" points="105.1345,-127.0975 95.1398,-123.5822 100.7609,-132.563 105.1345,-127.0975"/>
</g>
<!-- Node8 -->
<g id="node8" class="node">
<title>Node8</title>
<g id="a_node8"><a xlink:href="../../d1/d38/G4__EEMC_8C.html#a05b9b10b79cc47702702e091692fd060" target="_top" xlink:title="EEMC_Towers">
<polygon fill="none" stroke="#000000" points="201.5,-.5 201.5,-20.5 285.5,-20.5 285.5,-.5 201.5,-.5"/>
<text text-anchor="middle" x="243.5" y="-7.5" font-family="FreeSans" font-size="10.00" fill="#000000">EEMC_Towers</text>
</a>
</g>
</g>
<!-- Node1&#45;&gt;Node8 -->
<g id="edge7" class="edge">
<title>Node1&#45;&gt;Node8</title>
<path fill="none" stroke="#191970" d="M104.2416,-85.0532C126.1547,-68.4047 157.7899,-46.0011 188,-30.5 195.2899,-26.7595 203.4436,-23.4036 211.2092,-20.5574"/>
<polygon fill="#191970" stroke="#191970" points="101.8482,-82.4785 96.0552,-91.3493 106.1158,-88.0273 101.8482,-82.4785"/>
</g>
<!-- Node9 -->
<g id="node9" class="node">
<title>Node9</title>
<g id="a_node9"><a xlink:href="../../d5/dcb/G4__FEMC_8C.html#af68dc9104b4ad645db845e957df9863e" target="_top" xlink:title="FEMC_Towers">
<polygon fill="none" stroke="#000000" points="201.5,-156.5 201.5,-176.5 285.5,-176.5 285.5,-156.5 201.5,-156.5"/>
<text text-anchor="middle" x="243.5" y="-163.5" font-family="FreeSans" font-size="10.00" fill="#000000">FEMC_Towers</text>
</a>
</g>
</g>
<!-- Node1&#45;&gt;Node9 -->
<g id="edge9" class="edge">
<title>Node1&#45;&gt;Node9</title>
<path fill="none" stroke="#191970" d="M130.2763,-127.0468C148.5928,-133.5999 169.1664,-140.9134 188,-147.5 196.3637,-150.425 205.4526,-153.5563 213.8079,-156.4159"/>
<polygon fill="#191970" stroke="#191970" points="131.2371,-123.6732 120.6425,-123.5959 128.8764,-130.2632 131.2371,-123.6732"/>
</g>
<!-- Node10 -->
<g id="node10" class="node">
<title>Node10</title>
<g id="a_node10"><a xlink:href="../../d8/dc2/G4__FHCAL_8C.html#a5d0a471f02bc3f2081650a15db56784e" target="_top" xlink:title="FHCAL_Towers">
<polygon fill="none" stroke="#000000" points="199,-39.5 199,-59.5 288,-59.5 288,-39.5 199,-39.5"/>
<text text-anchor="middle" x="243.5" y="-46.5" font-family="FreeSans" font-size="10.00" fill="#000000">FHCAL_Towers</text>
</a>
</g>
</g>
<!-- Node1&#45;&gt;Node10 -->
<g id="edge15" class="edge">
<title>Node1&#45;&gt;Node10</title>
<path fill="none" stroke="#191970" d="M131.765,-88.1903C159.3744,-78.6301 191.5684,-67.4823 214.2878,-59.6153"/>
<polygon fill="#191970" stroke="#191970" points="130.5178,-84.9182 122.2135,-91.4977 132.8083,-91.5329 130.5178,-84.9182"/>
</g>
<!-- Node11 -->
<g id="node11" class="node">
<title>Node11</title>
<g id="a_node11"><a xlink:href="../../dc/dda/G4__HcalIn__ref_8C.html#a4552e4b1c6ffcc08cba2296b2c45f950" target="_top" xlink:title="HCALInner_Towers">
<polygon fill="none" stroke="#000000" points="189,-117.5 189,-137.5 298,-137.5 298,-117.5 189,-117.5"/>
<text text-anchor="middle" x="243.5" y="-124.5" font-family="FreeSans" font-size="10.00" fill="#000000">HCALInner_Towers</text>
</a>
</g>
</g>
<!-- Node1&#45;&gt;Node11 -->
<g id="edge18" class="edge">
<title>Node1&#45;&gt;Node11</title>
<path fill="none" stroke="#191970" d="M162.4739,-117.8252C171.4022,-118.8913 180.2893,-119.9524 188.7285,-120.9601"/>
<polygon fill="#191970" stroke="#191970" points="162.742,-114.3325 152.3976,-116.6221 161.9121,-121.2831 162.742,-114.3325"/>
</g>
<!-- Node12 -->
<g id="node12" class="node">
<title>Node12</title>
<g id="a_node12"><a xlink:href="../../d8/d93/G4__HcalOut__ref_8C.html#a4fd9d72ad1e04ebc46273f3b9fff91d6" target="_top" xlink:title="HCALOuter_Towers">
<polygon fill="none" stroke="#000000" points="188,-78.5 188,-98.5 299,-98.5 299,-78.5 188,-78.5"/>
<text text-anchor="middle" x="243.5" y="-85.5" font-family="FreeSans" font-size="10.00" fill="#000000">HCALOuter_Towers</text>
</a>
</g>
</g>
<!-- Node1&#45;&gt;Node12 -->
<g id="edge24" class="edge">
<title>Node1&#45;&gt;Node12</title>
<path fill="none" stroke="#191970" d="M162.4698,-97.6915C171.0534,-96.7178 179.5988,-95.7485 187.7449,-94.8245"/>
<polygon fill="#191970" stroke="#191970" points="161.9393,-94.2291 152.3976,-98.834 162.7284,-101.1845 161.9393,-94.2291"/>
</g>
<!-- Node3 -->
<g id="node3" class="node">
<title>Node3</title>
<g id="a_node3"><a xlink:href="../../db/dc0/Fun4All__AnaTutorial_8C.html#a8c484ea6d7477278e981ef056b17eac9" target="_top" xlink:title="Fun4All_AnaTutorial">
<polygon fill="none" stroke="#000000" points="347,-195.5 347,-215.5 462,-215.5 462,-195.5 347,-195.5"/>
<text text-anchor="middle" x="404.5" y="-202.5" font-family="FreeSans" font-size="10.00" fill="#000000">Fun4All_AnaTutorial</text>
</a>
</g>
</g>
<!-- Node2&#45;&gt;Node3 -->
<g id="edge2" class="edge">
<title>Node2&#45;&gt;Node3</title>
<path fill="none" stroke="#191970" d="M296.5188,-205.5C312.5999,-205.5 330.3437,-205.5 346.7209,-205.5"/>
<polygon fill="#191970" stroke="#191970" points="296.2224,-202.0001 286.2224,-205.5 296.2223,-209.0001 296.2224,-202.0001"/>
</g>
<!-- Node4 -->
<g id="node4" class="node">
<title>Node4</title>
<g id="a_node4"><a xlink:href="../../dd/d28/Fun4All__AnaTutorial__Jets_8C.html#a55eaaeb770a3177f917012de87877d28" target="_top" xlink:title="Fun4All_AnaTutorial_Jets">
<polygon fill="none" stroke="#000000" points="335,-156.5 335,-176.5 474,-176.5 474,-156.5 335,-156.5"/>
<text text-anchor="middle" x="404.5" y="-163.5" font-family="FreeSans" font-size="10.00" fill="#000000">Fun4All_AnaTutorial_Jets</text>
</a>
</g>
</g>
<!-- Node2&#45;&gt;Node4 -->
<g id="edge3" class="edge">
<title>Node2&#45;&gt;Node4</title>
<path fill="none" stroke="#191970" d="M294.8346,-193.0649C316.9036,-187.719 342.3544,-181.5539 363.179,-176.5094"/>
<polygon fill="#191970" stroke="#191970" points="293.8564,-189.7006 284.9615,-195.4565 295.5044,-196.5038 293.8564,-189.7006"/>
</g>
<!-- Node5 -->
<g id="node5" class="node">
<title>Node5</title>
<g id="a_node5"><a xlink:href="../../da/d02/Fun4All__G4__EICDetector_8C.html#afbe82cefa1d1fd031d9a8586b7bb68c6" target="_top" xlink:title="Fun4All_G4_EICDetector">
<polygon fill="none" stroke="#000000" points="335,-39.5 335,-59.5 474,-59.5 474,-39.5 335,-39.5"/>
<text text-anchor="middle" x="404.5" y="-46.5" font-family="FreeSans" font-size="10.00" fill="#000000">Fun4All_G4_EICDetector</text>
</a>
</g>
</g>
<!-- Node2&#45;&gt;Node5 -->
<g id="edge4" class="edge">
<title>Node2&#45;&gt;Node5</title>
<path fill="none" stroke="#191970" d="M294.5443,-190.4653C296.1243,-189.2452 297.6179,-187.9261 299,-186.5 336.8633,-147.4312 296.1788,-107.6172 335,-69.5 339.1212,-65.4536 344.0053,-62.2156 349.2451,-59.6261"/>
<polygon fill="#191970" stroke="#191970" points="292.6663,-187.5117 286.0393,-195.7781 296.3749,-193.4485 292.6663,-187.5117"/>
</g>
<!-- Node6 -->
<g id="node6" class="node">
<title>Node6</title>
<g id="a_node6"><a xlink:href="../../d7/d9e/Fun4All__G4__fsPHENIX_8C.html#a72c444217210a14ab1b4e66d9818b1ff" target="_top" xlink:title="Fun4All_G4_fsPHENIX">
<polygon fill="none" stroke="#000000" points="342.5,-78.5 342.5,-98.5 466.5,-98.5 466.5,-78.5 342.5,-78.5"/>
<text text-anchor="middle" x="404.5" y="-85.5" font-family="FreeSans" font-size="10.00" fill="#000000">Fun4All_G4_fsPHENIX</text>
</a>
</g>
</g>
<!-- Node2&#45;&gt;Node6 -->
<g id="edge5" class="edge">
<title>Node2&#45;&gt;Node6</title>
<path fill="none" stroke="#191970" d="M294.2129,-190.2867C295.8933,-189.116 297.4972,-187.856 299,-186.5 327.3464,-160.9216 306.0275,-133.3671 335,-108.5 339.7637,-104.4113 345.3179,-101.1568 351.1719,-98.5666"/>
<polygon fill="#191970" stroke="#191970" points="292.207,-187.403 285.2889,-195.4273 295.7011,-193.4686 292.207,-187.403"/>
</g>
<!-- Node7 -->
<g id="node7" class="node">
<title>Node7</title>
<g id="a_node7"><a xlink:href="../../d0/d13/Fun4All__G4__sPHENIX_8C.html#a536fa7366e3aeaf273cca94ced704c46" target="_top" xlink:title="Fun4All_G4_sPHENIX">
<polygon fill="none" stroke="#000000" points="344,-117.5 344,-137.5 465,-137.5 465,-117.5 344,-117.5"/>
<text text-anchor="middle" x="404.5" y="-124.5" font-family="FreeSans" font-size="10.00" fill="#000000">Fun4All_G4_sPHENIX</text>
</a>
</g>
</g>
<!-- Node2&#45;&gt;Node7 -->
<g id="edge6" class="edge">
<title>Node2&#45;&gt;Node7</title>
<path fill="none" stroke="#191970" d="M290.3441,-191.4037C293.3548,-189.911 296.2697,-188.2795 299,-186.5 318.7623,-173.6199 314.9242,-159.8857 335,-147.5 341.6251,-143.4127 349.1177,-140.132 356.669,-137.5071"/>
<polygon fill="#191970" stroke="#191970" points="288.8508,-188.2369 281.1133,-195.4745 291.6754,-194.6417 288.8508,-188.2369"/>
</g>
<!-- Node8&#45;&gt;Node5 -->
<g id="edge8" class="edge">
<title>Node8&#45;&gt;Node5</title>
<path fill="none" stroke="#191970" d="M294.8346,-22.9351C316.9036,-28.281 342.3544,-34.4461 363.179,-39.4906"/>
<polygon fill="#191970" stroke="#191970" points="295.5044,-19.4962 284.9615,-20.5435 293.8564,-26.2994 295.5044,-19.4962"/>
</g>
<!-- Node9&#45;&gt;Node3 -->
<g id="edge10" class="edge">
<title>Node9&#45;&gt;Node3</title>
<path fill="none" stroke="#191970" d="M294.8346,-178.9351C316.9036,-184.281 342.3544,-190.4461 363.179,-195.4906"/>
<polygon fill="#191970" stroke="#191970" points="295.5044,-175.4962 284.9615,-176.5435 293.8564,-182.2994 295.5044,-175.4962"/>
</g>
<!-- Node9&#45;&gt;Node4 -->
<g id="edge11" class="edge">
<title>Node9&#45;&gt;Node4</title>
<path fill="none" stroke="#191970" d="M295.9445,-166.5C308.3409,-166.5 321.7518,-166.5 334.7792,-166.5"/>
<polygon fill="#191970" stroke="#191970" points="295.8009,-163.0001 285.8009,-166.5 295.8008,-170.0001 295.8009,-163.0001"/>
</g>
<!-- Node9&#45;&gt;Node5 -->
<g id="edge12" class="edge">
<title>Node9&#45;&gt;Node5</title>
<path fill="none" stroke="#191970" d="M294.2129,-151.2867C295.8933,-150.116 297.4972,-148.856 299,-147.5 327.3464,-121.9216 306.0275,-94.3671 335,-69.5 339.7637,-65.4113 345.3179,-62.1568 351.1719,-59.5666"/>
<polygon fill="#191970" stroke="#191970" points="292.207,-148.403 285.2889,-156.4273 295.7011,-154.4686 292.207,-148.403"/>
</g>
<!-- Node9&#45;&gt;Node6 -->
<g id="edge13" class="edge">
<title>Node9&#45;&gt;Node6</title>
<path fill="none" stroke="#191970" d="M290.3441,-152.4037C293.3548,-150.911 296.2697,-149.2795 299,-147.5 318.7623,-134.6199 314.9242,-120.8857 335,-108.5 341.6251,-104.4127 349.1177,-101.132 356.669,-98.5071"/>
<polygon fill="#191970" stroke="#191970" points="288.8508,-149.2369 281.1133,-156.4745 291.6754,-155.6417 288.8508,-149.2369"/>
</g>
<!-- Node9&#45;&gt;Node7 -->
<g id="edge14" class="edge">
<title>Node9&#45;&gt;Node7</title>
<path fill="none" stroke="#191970" d="M294.8346,-154.0649C316.9036,-148.719 342.3544,-142.5539 363.179,-137.5094"/>
<polygon fill="#191970" stroke="#191970" points="293.8564,-150.7006 284.9615,-156.4565 295.5044,-157.5038 293.8564,-150.7006"/>
</g>
<!-- Node10&#45;&gt;Node5 -->
<g id="edge16" class="edge">
<title>Node10&#45;&gt;Node5</title>
<path fill="none" stroke="#191970" d="M298.4156,-49.5C310.142,-49.5 322.6768,-49.5 334.8724,-49.5"/>
<polygon fill="#191970" stroke="#191970" points="298.3475,-46.0001 288.3475,-49.5 298.3474,-53.0001 298.3475,-46.0001"/>
</g>
<!-- Node10&#45;&gt;Node6 -->
<g id="edge17" class="edge">
<title>Node10&#45;&gt;Node6</title>
<path fill="none" stroke="#191970" d="M294.8346,-61.9351C316.9036,-67.281 342.3544,-73.4461 363.179,-78.4906"/>
<polygon fill="#191970" stroke="#191970" points="295.5044,-58.4962 284.9615,-59.5435 293.8564,-65.2994 295.5044,-58.4962"/>
</g>
<!-- Node11&#45;&gt;Node3 -->
<g id="edge19" class="edge">
<title>Node11&#45;&gt;Node3</title>
<path fill="none" stroke="#191970" d="M288.5582,-141.5898C292.2013,-143.3667 295.7326,-145.3329 299,-147.5 318.6583,-160.5382 314.842,-174.2484 335,-186.5 340.986,-190.1382 347.6788,-193.0938 354.4828,-195.4914"/>
<polygon fill="#191970" stroke="#191970" points="289.9222,-138.3663 279.3584,-137.5561 287.1113,-144.7771 289.9222,-138.3663"/>
</g>
<!-- Node11&#45;&gt;Node4 -->
<g id="edge20" class="edge">
<title>Node11&#45;&gt;Node4</title>
<path fill="none" stroke="#191970" d="M294.8346,-139.9351C316.9036,-145.281 342.3544,-151.4461 363.179,-156.4906"/>
<polygon fill="#191970" stroke="#191970" points="295.5044,-136.4962 284.9615,-137.5435 293.8564,-143.2994 295.5044,-136.4962"/>
</g>
<!-- Node11&#45;&gt;Node5 -->
<g id="edge21" class="edge">
<title>Node11&#45;&gt;Node5</title>
<path fill="none" stroke="#191970" d="M290.3441,-113.4037C293.3548,-111.911 296.2697,-110.2795 299,-108.5 318.7623,-95.6199 314.9242,-81.8857 335,-69.5 341.6251,-65.4127 349.1177,-62.132 356.669,-59.5071"/>
<polygon fill="#191970" stroke="#191970" points="288.8508,-110.2369 281.1133,-117.4745 291.6754,-116.6417 288.8508,-110.2369"/>
</g>
<!-- Node11&#45;&gt;Node6 -->
<g id="edge22" class="edge">
<title>Node11&#45;&gt;Node6</title>
<path fill="none" stroke="#191970" d="M294.8346,-115.0649C316.9036,-109.719 342.3544,-103.5539 363.179,-98.5094"/>
<polygon fill="#191970" stroke="#191970" points="293.8564,-111.7006 284.9615,-117.4565 295.5044,-118.5038 293.8564,-111.7006"/>
</g>
<!-- Node11&#45;&gt;Node7 -->
<g id="edge23" class="edge">
<title>Node11&#45;&gt;Node7</title>
<path fill="none" stroke="#191970" d="M308.2268,-127.5C320.0243,-127.5 332.2921,-127.5 343.9625,-127.5"/>
<polygon fill="#191970" stroke="#191970" points="308.0073,-124.0001 298.0073,-127.5 308.0072,-131.0001 308.0073,-124.0001"/>
</g>
<!-- Node12&#45;&gt;Node3 -->
<g id="edge25" class="edge">
<title>Node12&#45;&gt;Node3</title>
<path fill="none" stroke="#191970" d="M292.6949,-103.5971C294.9317,-105.0834 297.0515,-106.7132 299,-108.5 327.1404,-134.3049 305.8623,-161.8267 335,-186.5 339.2957,-190.1375 344.2287,-193.0833 349.4422,-195.4682"/>
<polygon fill="#191970" stroke="#191970" points="294.0444,-100.3431 283.6029,-98.5472 290.6455,-106.4625 294.0444,-100.3431"/>
</g>
<!-- Node12&#45;&gt;Node4 -->
<g id="edge26" class="edge">
<title>Node12&#45;&gt;Node4</title>
<path fill="none" stroke="#191970" d="M288.5582,-102.5898C292.2013,-104.3667 295.7326,-106.3329 299,-108.5 318.6583,-121.5382 314.842,-135.2484 335,-147.5 340.986,-151.1382 347.6788,-154.0938 354.4828,-156.4914"/>
<polygon fill="#191970" stroke="#191970" points="289.9222,-99.3663 279.3584,-98.5561 287.1113,-105.7771 289.9222,-99.3663"/>
</g>
<!-- Node12&#45;&gt;Node5 -->
<g id="edge27" class="edge">
<title>Node12&#45;&gt;Node5</title>
<path fill="none" stroke="#191970" d="M294.8346,-76.0649C316.9036,-70.719 342.3544,-64.5539 363.179,-59.5094"/>
<polygon fill="#191970" stroke="#191970" points="293.8564,-72.7006 284.9615,-78.4565 295.5044,-79.5038 293.8564,-72.7006"/>
</g>
<!-- Node12&#45;&gt;Node6 -->
<g id="edge28" class="edge">
<title>Node12&#45;&gt;Node6</title>
<path fill="none" stroke="#191970" d="M309.6182,-88.5C320.4625,-88.5 331.6667,-88.5 342.4088,-88.5"/>
<polygon fill="#191970" stroke="#191970" points="309.3582,-85.0001 299.3581,-88.5 309.3581,-92.0001 309.3582,-85.0001"/>
</g>
<!-- Node12&#45;&gt;Node7 -->
<g id="edge29" class="edge">
<title>Node12&#45;&gt;Node7</title>
<path fill="none" stroke="#191970" d="M294.8346,-100.9351C316.9036,-106.281 342.3544,-112.4461 363.179,-117.4906"/>
<polygon fill="#191970" stroke="#191970" points="295.5044,-97.4962 284.9615,-98.5435 293.8564,-104.2994 295.5044,-97.4962"/>
</g>
</g>
</svg>
