<?xml version="1.0" encoding="UTF-8" standalone="no"?>
<!DOCTYPE svg PUBLIC "-//W3C//DTD SVG 1.1//EN"
 "http://www.w3.org/Graphics/SVG/1.1/DTD/svg11.dtd">
<!-- Generated by graphviz version 2.40.1 (20161225.0304)
 -->
<!-- Title: eic&#45;smear/blob/master/include/eicsmear/hadronic/Pythia6EventFactory.h Pages: 1 -->
<svg width="2767pt" height="635pt"
 viewBox="0.00 0.00 2766.59 635.00" xmlns="http://www.w3.org/2000/svg" xmlns:xlink="http://www.w3.org/1999/xlink">
<g id="graph0" class="graph" transform="scale(1 1) rotate(0) translate(4 631)">
<title>eic&#45;smear/blob/master/include/eicsmear/hadronic/Pythia6EventFactory.h</title>
<!-- Node1 -->
<g id="node1" class="node">
<title>Node1</title>
<polygon fill="#bfbfbf" stroke="#000000" points="2441,-582.5 2441,-626.5 2595,-626.5 2595,-582.5 2441,-582.5"/>
<text text-anchor="start" x="2449" y="-613.5" font-family="FreeSans" font-size="10.00" fill="#000000">eic&#45;smear/blob/master</text>
<text text-anchor="start" x="2449" y="-601.5" font-family="FreeSans" font-size="10.00" fill="#000000">/include/eicsmear/hadronic</text>
<text text-anchor="middle" x="2518" y="-589.5" font-family="FreeSans" font-size="10.00" fill="#000000">/Pythia6EventFactory.h</text>
</g>
<!-- Node2 -->
<g id="node2" class="node">
<title>Node2</title>
<polygon fill="none" stroke="#bfbfbf" points="1039,-342.5 1039,-362.5 1097,-362.5 1097,-342.5 1039,-342.5"/>
<text text-anchor="middle" x="1068" y="-349.5" font-family="FreeSans" font-size="10.00" fill="#000000">memory</text>
</g>
<!-- Node1&#45;&gt;Node2 -->
<g id="edge1" class="edge">
<title>Node1&#45;&gt;Node2</title>
<path fill="none" stroke="#191970" d="M2440.9712,-602.2913C2288.1161,-597.2609 1935.829,-582.4388 1642,-546 1472.0883,-524.9286 1425.6073,-530.5989 1263,-477 1208.4439,-459.0171 1194.9896,-451.5713 1147,-420 1124.1557,-404.9712 1100.6675,-384.0751 1085.3068,-369.5287"/>
<polygon fill="#191970" stroke="#191970" points="1087.6967,-366.9712 1078.0614,-362.5653 1082.8462,-372.0182 1087.6967,-366.9712"/>
</g>
<!-- Node3 -->
<g id="node3" class="node">
<title>Node3</title>
<polygon fill="none" stroke="#bfbfbf" points="2251.5,-114.5 2251.5,-134.5 2296.5,-134.5 2296.5,-114.5 2251.5,-114.5"/>
<text text-anchor="middle" x="2274" y="-121.5" font-family="FreeSans" font-size="10.00" fill="#000000">string</text>
</g>
<!-- Node1&#45;&gt;Node3 -->
<g id="edge2" class="edge">
<title>Node1&#45;&gt;Node3</title>
<path fill="none" stroke="#191970" d="M2526.3979,-582.118C2548.9258,-521.2986 2609,-353.6608 2609,-295.5 2609,-295.5 2609,-295.5 2609,-238.5 2609,-175.0188 2390.6855,-139.7385 2306.5341,-128.4973"/>
<polygon fill="#191970" stroke="#191970" points="2306.8696,-125.0115 2296.5005,-127.1866 2305.9628,-131.9525 2306.8696,-125.0115"/>
</g>
<!-- Node4 -->
<g id="node4" class="node">
<title>Node4</title>
<polygon fill="none" stroke="#bfbfbf" points="1849,-.5 1849,-20.5 1909,-20.5 1909,-.5 1849,-.5"/>
<text text-anchor="middle" x="1879" y="-7.5" font-family="FreeSans" font-size="10.00" fill="#000000">Rtypes.h</text>
</g>
<!-- Node1&#45;&gt;Node4 -->
<g id="edge3" class="edge">
<title>Node1&#45;&gt;Node4</title>
<path fill="none" stroke="#191970" d="M2595.2182,-592.5618C2650.3082,-582.5033 2718.0315,-566.4802 2738,-546 2763.361,-519.989 2757,-502.8284 2757,-466.5 2757,-466.5 2757,-466.5 2757,-124.5 2757,-38.8702 2091.7585,-15.9375 1919.3906,-11.4327"/>
<polygon fill="#191970" stroke="#191970" points="1919.3087,-7.9296 1909.2227,-11.1736 1919.1303,-14.9273 1919.3087,-7.9296"/>
</g>
<!-- Node5 -->
<g id="node5" class="node">
<title>Node5</title>
<g id="a_node5"><a xlink:href="../../dd/d8f/hadronic_2EventPythia_8h.html" target="_top" xlink:title="eicsmear/hadronic/EventPythia.h">
<polygon fill="none" stroke="#000000" points="2397.5,-342.5 2397.5,-362.5 2580.5,-362.5 2580.5,-342.5 2397.5,-342.5"/>
<text text-anchor="middle" x="2489" y="-349.5" font-family="FreeSans" font-size="10.00" fill="#000000">eicsmear/hadronic/EventPythia.h</text>
</a>
</g>
</g>
<!-- Node1&#45;&gt;Node5 -->
<g id="edge4" class="edge">
<title>Node1&#45;&gt;Node5</title>
<path fill="none" stroke="#191970" d="M2515.4264,-582.1367C2509.8429,-533.618 2496.6894,-419.3179 2491.332,-372.7643"/>
<polygon fill="#191970" stroke="#191970" points="2494.7948,-372.2398 2490.1744,-362.7055 2487.8407,-373.0402 2494.7948,-372.2398"/>
</g>
<!-- Node17 -->
<g id="node17" class="node">
<title>Node17</title>
<g id="a_node17"><a xlink:href="../../de/d56/erhic_2EventFactory_8h.html" target="_top" xlink:title="eicsmear/erhic/EventFactory.h">
<polygon fill="none" stroke="#000000" points="1651,-519.5 1651,-539.5 1819,-539.5 1819,-519.5 1651,-519.5"/>
<text text-anchor="middle" x="1735" y="-526.5" font-family="FreeSans" font-size="10.00" fill="#000000">eicsmear/erhic/EventFactory.h</text>
</a>
</g>
</g>
<!-- Node1&#45;&gt;Node17 -->
<g id="edge22" class="edge">
<title>Node1&#45;&gt;Node17</title>
<path fill="none" stroke="#191970" d="M2440.7801,-597.1035C2296.3751,-583.2716 1985.934,-553.5358 1829.3768,-538.5399"/>
<polygon fill="#191970" stroke="#191970" points="1829.5788,-535.0433 1819.2906,-537.5738 1828.9113,-542.0114 1829.5788,-535.0433"/>
</g>
<!-- Node47 -->
<g id="node47" class="node">
<title>Node47</title>
<g id="a_node47"><a xlink:href="../../db/d9c/EventMCFilterABC_8h.html" target="_top" xlink:title="eicsmear/erhic/EventMCFilter\lABC.h">
<polygon fill="none" stroke="#000000" points="2565,-513.5 2565,-545.5 2729,-545.5 2729,-513.5 2565,-513.5"/>
<text text-anchor="start" x="2573" y="-532.5" font-family="FreeSans" font-size="10.00" fill="#000000">eicsmear/erhic/EventMCFilter</text>
<text text-anchor="middle" x="2647" y="-520.5" font-family="FreeSans" font-size="10.00" fill="#000000">ABC.h</text>
</a>
</g>
</g>
<!-- Node1&#45;&gt;Node47 -->
<g id="edge106" class="edge">
<title>Node1&#45;&gt;Node47</title>
<path fill="none" stroke="#191970" d="M2556.0065,-582.4032C2573.063,-572.4866 2593.1111,-560.8308 2610.0419,-550.9873"/>
<polygon fill="#191970" stroke="#191970" points="2612.2025,-553.7797 2619.0884,-545.7277 2608.6841,-547.7282 2612.2025,-553.7797"/>
</g>
<!-- Node5&#45;&gt;Node4 -->
<g id="edge5" class="edge">
<title>Node5&#45;&gt;Node4</title>
<path fill="none" stroke="#191970" d="M2482.5938,-342.2593C2471.0625,-322.8164 2448,-278.8829 2448,-238.5 2448,-238.5 2448,-238.5 2448,-124.5 2448,-82.8519 2420.5357,-75.0454 2383,-57 2341.6191,-37.106 2031.8572,-18.7009 1919.5298,-12.6143"/>
<polygon fill="#191970" stroke="#191970" points="1919.4648,-9.1058 1909.2913,-12.0641 1919.0891,-16.0957 1919.4648,-9.1058"/>
</g>
<!-- Node6 -->
<g id="node6" class="node">
<title>Node6</title>
<g id="a_node6"><a xlink:href="../../d8/d9f/hadronic_2EventMC_8h.html" target="_top" xlink:title="eicsmear/hadronic/EventMC.h">
<polygon fill="none" stroke="#000000" points="1870.5,-285.5 1870.5,-305.5 2037.5,-305.5 2037.5,-285.5 1870.5,-285.5"/>
<text text-anchor="middle" x="1954" y="-292.5" font-family="FreeSans" font-size="10.00" fill="#000000">eicsmear/hadronic/EventMC.h</text>
</a>
</g>
</g>
<!-- Node5&#45;&gt;Node6 -->
<g id="edge6" class="edge">
<title>Node5&#45;&gt;Node6</title>
<path fill="none" stroke="#191970" d="M2397.3343,-342.7338C2299.8569,-332.3483 2146.4551,-316.0046 2048.0698,-305.5224"/>
<polygon fill="#191970" stroke="#191970" points="2048.1507,-302.0113 2037.8361,-304.4321 2047.409,-308.9719 2048.1507,-302.0113"/>
</g>
<!-- Node7 -->
<g id="node7" class="node">
<title>Node7</title>
<polygon fill="none" stroke="#bfbfbf" points="1538.5,-171.5 1538.5,-191.5 1587.5,-191.5 1587.5,-171.5 1538.5,-171.5"/>
<text text-anchor="middle" x="1563" y="-178.5" font-family="FreeSans" font-size="10.00" fill="#000000">vector</text>
</g>
<!-- Node6&#45;&gt;Node7 -->
<g id="edge7" class="edge">
<title>Node6&#45;&gt;Node7</title>
<path fill="none" stroke="#191970" d="M1953.7231,-285.4096C1952.7208,-270.3485 1948.4631,-242.2389 1931,-228 1905.3976,-207.1246 1684.4157,-189.8398 1597.7076,-183.801"/>
<polygon fill="#191970" stroke="#191970" points="1597.7994,-180.2992 1587.5828,-183.1047 1597.319,-187.2827 1597.7994,-180.2992"/>
</g>
<!-- Node8 -->
<g id="node8" class="node">
<title>Node8</title>
<polygon fill="none" stroke="#bfbfbf" points="1983,-228.5 1983,-248.5 2075,-248.5 2075,-228.5 1983,-228.5"/>
<text text-anchor="middle" x="2029" y="-235.5" font-family="FreeSans" font-size="10.00" fill="#000000">TClonesArray.h</text>
</g>
<!-- Node6&#45;&gt;Node8 -->
<g id="edge8" class="edge">
<title>Node6&#45;&gt;Node8</title>
<path fill="none" stroke="#191970" d="M1967.4085,-285.3095C1978.607,-276.7987 1994.7761,-264.5102 2007.7377,-254.6594"/>
<polygon fill="#191970" stroke="#191970" points="2009.8638,-257.4397 2015.7076,-248.6022 2005.6281,-251.8665 2009.8638,-257.4397"/>
</g>
<!-- Node9 -->
<g id="node9" class="node">
<title>Node9</title>
<g id="a_node9"><a xlink:href="../../db/d5e/hadronic_2ParticleMC_8h.html" target="_top" xlink:title="eicsmear/hadronic/ParticleMC.h">
<polygon fill="none" stroke="#000000" points="1072.5,-171.5 1072.5,-191.5 1247.5,-191.5 1247.5,-171.5 1072.5,-171.5"/>
<text text-anchor="middle" x="1160" y="-178.5" font-family="FreeSans" font-size="10.00" fill="#000000">eicsmear/hadronic/ParticleMC.h</text>
</a>
</g>
</g>
<!-- Node6&#45;&gt;Node9 -->
<g id="edge9" class="edge">
<title>Node6&#45;&gt;Node9</title>
<path fill="none" stroke="#191970" d="M1939.2629,-285.465C1915.5607,-269.9336 1866.9603,-240.5564 1821,-228 1581.8973,-162.6766 1509.1668,-212.1778 1257.9183,-192.0198"/>
<polygon fill="#191970" stroke="#191970" points="1258.0078,-188.5153 1247.752,-191.1742 1257.4275,-195.4912 1258.0078,-188.5153"/>
</g>
<!-- Node15 -->
<g id="node15" class="node">
<title>Node15</title>
<g id="a_node15"><a xlink:href="../../d4/dc7/VirtualEvent_8h.html" target="_top" xlink:title="eicsmear/erhic/VirtualEvent.h">
<polygon fill="none" stroke="#000000" points="1647.5,-228.5 1647.5,-248.5 1812.5,-248.5 1812.5,-228.5 1647.5,-228.5"/>
<text text-anchor="middle" x="1730" y="-235.5" font-family="FreeSans" font-size="10.00" fill="#000000">eicsmear/erhic/VirtualEvent.h</text>
</a>
</g>
</g>
<!-- Node6&#45;&gt;Node15 -->
<g id="edge19" class="edge">
<title>Node6&#45;&gt;Node15</title>
<path fill="none" stroke="#191970" d="M1914.4689,-285.4408C1876.759,-275.8449 1819.8408,-261.3613 1779.2102,-251.0222"/>
<polygon fill="#191970" stroke="#191970" points="1780.0663,-247.6286 1769.512,-248.5544 1778.34,-254.4124 1780.0663,-247.6286"/>
</g>
<!-- Node10 -->
<g id="node10" class="node">
<title>Node10</title>
<polygon fill="none" stroke="#bfbfbf" points="46,-114.5 46,-134.5 106,-134.5 106,-114.5 46,-114.5"/>
<text text-anchor="middle" x="76" y="-121.5" font-family="FreeSans" font-size="10.00" fill="#000000">iostream</text>
</g>
<!-- Node9&#45;&gt;Node10 -->
<g id="edge10" class="edge">
<title>Node9&#45;&gt;Node10</title>
<path fill="none" stroke="#191970" d="M1072.2099,-176.8837C850.4911,-165.2251 274.3914,-134.932 116.5192,-126.6306"/>
<polygon fill="#191970" stroke="#191970" points="116.4787,-123.1237 106.3087,-126.0937 116.1111,-130.1141 116.4787,-123.1237"/>
</g>
<!-- Node11 -->
<g id="node11" class="node">
<title>Node11</title>
<polygon fill="none" stroke="#bfbfbf" points="1205.5,-57.5 1205.5,-77.5 1306.5,-77.5 1306.5,-57.5 1205.5,-57.5"/>
<text text-anchor="middle" x="1256" y="-64.5" font-family="FreeSans" font-size="10.00" fill="#000000">TLorentzVector.h</text>
</g>
<!-- Node9&#45;&gt;Node11 -->
<g id="edge11" class="edge">
<title>Node9&#45;&gt;Node11</title>
<path fill="none" stroke="#191970" d="M1168.5194,-171.3833C1184.7746,-152.0802 1220.4119,-109.7609 1240.8307,-85.5135"/>
<polygon fill="#191970" stroke="#191970" points="1243.5975,-87.6616 1247.3617,-77.7579 1238.2431,-83.1526 1243.5975,-87.6616"/>
</g>
<!-- Node12 -->
<g id="node12" class="node">
<title>Node12</title>
<polygon fill="none" stroke="#bfbfbf" points="1324.5,-57.5 1324.5,-77.5 1395.5,-77.5 1395.5,-57.5 1324.5,-57.5"/>
<text text-anchor="middle" x="1360" y="-64.5" font-family="FreeSans" font-size="10.00" fill="#000000">TVector3.h</text>
</g>
<!-- Node9&#45;&gt;Node12 -->
<g id="edge12" class="edge">
<title>Node9&#45;&gt;Node12</title>
<path fill="none" stroke="#191970" d="M1177.7487,-171.3833C1213.0335,-151.2709 1292.1545,-106.1719 1333.5753,-82.5621"/>
<polygon fill="#191970" stroke="#191970" points="1335.3366,-85.5869 1342.2911,-77.5941 1331.8701,-79.5054 1335.3366,-85.5869"/>
</g>
<!-- Node13 -->
<g id="node13" class="node">
<title>Node13</title>
<g id="a_node13"><a xlink:href="../../d8/da3/Pid_8h.html" target="_top" xlink:title="eicsmear/erhic/Pid.h">
<polygon fill="none" stroke="#000000" points="1069,-57.5 1069,-77.5 1187,-77.5 1187,-57.5 1069,-57.5"/>
<text text-anchor="middle" x="1128" y="-64.5" font-family="FreeSans" font-size="10.00" fill="#000000">eicsmear/erhic/Pid.h</text>
</a>
</g>
</g>
<!-- Node9&#45;&gt;Node13 -->
<g id="edge13" class="edge">
<title>Node9&#45;&gt;Node13</title>
<path fill="none" stroke="#191970" d="M1166.1074,-171.0935C1173.2242,-157.5324 1183.0451,-133.2766 1175,-114 1170.0762,-102.2022 1160.5407,-91.8685 1151.3382,-83.9581"/>
<polygon fill="#191970" stroke="#191970" points="1153.4557,-81.1699 1143.4611,-77.6544 1149.082,-86.6353 1153.4557,-81.1699"/>
</g>
<!-- Node14 -->
<g id="node14" class="node">
<title>Node14</title>
<g id="a_node14"><a xlink:href="../../d3/d44/VirtualParticle_8h.html" target="_top" xlink:title="eicsmear/erhic/VirtualParticle.h">
<polygon fill="none" stroke="#000000" points="992,-114.5 992,-134.5 1166,-134.5 1166,-114.5 992,-114.5"/>
<text text-anchor="middle" x="1079" y="-121.5" font-family="FreeSans" font-size="10.00" fill="#000000">eicsmear/erhic/VirtualParticle.h</text>
</a>
</g>
</g>
<!-- Node9&#45;&gt;Node14 -->
<g id="edge15" class="edge">
<title>Node9&#45;&gt;Node14</title>
<path fill="none" stroke="#191970" d="M1145.5188,-171.3095C1133.3093,-162.7177 1115.6287,-150.2758 1101.5643,-140.3786"/>
<polygon fill="#191970" stroke="#191970" points="1103.5481,-137.4949 1093.3558,-134.6022 1099.5196,-143.2195 1103.5481,-137.4949"/>
</g>
<!-- Node13&#45;&gt;Node4 -->
<g id="edge14" class="edge">
<title>Node13&#45;&gt;Node4</title>
<path fill="none" stroke="#191970" d="M1187.2986,-58.0391C1190.2378,-57.6658 1193.1506,-57.3164 1196,-57 1439.2518,-29.9887 1733.1048,-16.3448 1838.7509,-12.0408"/>
<polygon fill="#191970" stroke="#191970" points="1839.1088,-15.5294 1848.96,-11.6303 1838.8275,-8.535 1839.1088,-15.5294"/>
</g>
<!-- Node14&#45;&gt;Node11 -->
<g id="edge16" class="edge">
<title>Node14&#45;&gt;Node11</title>
<path fill="none" stroke="#191970" d="M1110.2366,-114.4408C1139.3412,-105.0681 1182.926,-91.0323 1214.8547,-80.7502"/>
<polygon fill="#191970" stroke="#191970" points="1216.3327,-83.9513 1224.7785,-77.5544 1214.187,-77.2883 1216.3327,-83.9513"/>
</g>
<!-- Node14&#45;&gt;Node12 -->
<g id="edge17" class="edge">
<title>Node14&#45;&gt;Node12</title>
<path fill="none" stroke="#191970" d="M1133.0047,-114.4113C1178.6642,-105.7563 1246.0587,-92.689 1314.1197,-78.1373"/>
<polygon fill="#191970" stroke="#191970" points="1315.1218,-81.502 1324.1638,-75.9799 1313.6518,-74.658 1315.1218,-81.502"/>
</g>
<!-- Node14&#45;&gt;Node13 -->
<g id="edge18" class="edge">
<title>Node14&#45;&gt;Node13</title>
<path fill="none" stroke="#191970" d="M1087.7602,-114.3095C1094.6585,-106.2851 1104.4437,-94.9022 1112.6374,-85.3708"/>
<polygon fill="#191970" stroke="#191970" points="1115.4508,-87.467 1119.3156,-77.6022 1110.1426,-82.9038 1115.4508,-87.467"/>
</g>
<!-- Node15&#45;&gt;Node7 -->
<g id="edge21" class="edge">
<title>Node15&#45;&gt;Node7</title>
<path fill="none" stroke="#191970" d="M1700.5282,-228.4408C1671.6725,-218.5918 1627.7309,-203.5938 1597.3167,-193.2129"/>
<polygon fill="#191970" stroke="#191970" points="1598.1567,-189.8014 1587.5622,-189.8835 1595.8955,-196.4261 1598.1567,-189.8014"/>
</g>
<!-- Node16 -->
<g id="node16" class="node">
<title>Node16</title>
<polygon fill="none" stroke="#bfbfbf" points="2161.5,-171.5 2161.5,-191.5 2226.5,-191.5 2226.5,-171.5 2161.5,-171.5"/>
<text text-anchor="middle" x="2194" y="-178.5" font-family="FreeSans" font-size="10.00" fill="#000000">TObject.h</text>
</g>
<!-- Node15&#45;&gt;Node16 -->
<g id="edge20" class="edge">
<title>Node15&#45;&gt;Node16</title>
<path fill="none" stroke="#191970" d="M1811.6195,-228.4735C1910.5897,-216.3155 2073.7151,-196.2764 2150.9264,-186.7914"/>
<polygon fill="#191970" stroke="#191970" points="2151.7368,-190.2182 2161.2354,-185.525 2150.8833,-183.2704 2151.7368,-190.2182"/>
</g>
<!-- Node17&#45;&gt;Node2 -->
<g id="edge24" class="edge">
<title>Node17&#45;&gt;Node2</title>
<path fill="none" stroke="#191970" d="M1650.8799,-522.005C1548.9166,-512.3537 1383.3689,-494.7067 1324,-477 1234.2433,-450.2301 1137.079,-394.8629 1092.6669,-367.9116"/>
<polygon fill="#191970" stroke="#191970" points="1094.3682,-364.8493 1084.0122,-362.6123 1090.7129,-370.8191 1094.3682,-364.8493"/>
</g>
<!-- Node17&#45;&gt;Node3 -->
<g id="edge25" class="edge">
<title>Node17&#45;&gt;Node3</title>
<path fill="none" stroke="#191970" d="M1786.4951,-519.4278C1924.6328,-490.9454 2293,-404.7503 2293,-295.5 2293,-295.5 2293,-295.5 2293,-238.5 2293,-205.2209 2285.0246,-167.2115 2279.4081,-144.5705"/>
<polygon fill="#191970" stroke="#191970" points="2282.7696,-143.5891 2276.8857,-134.7784 2275.9909,-145.3354 2282.7696,-143.5891"/>
</g>
<!-- Node17&#45;&gt;Node10 -->
<g id="edge23" class="edge">
<title>Node17&#45;&gt;Node10</title>
<path fill="none" stroke="#191970" d="M1650.8455,-525.1911C1308.426,-507.1132 38,-434.5149 38,-352.5 38,-352.5 38,-352.5 38,-238.5 38,-203.7644 54.0743,-165.9893 65.3138,-143.8219"/>
<polygon fill="#191970" stroke="#191970" points="68.5008,-145.2812 70.0625,-134.8021 62.3068,-142.0201 68.5008,-145.2812"/>
</g>
<!-- Node17&#45;&gt;Node15 -->
<g id="edge83" class="edge">
<title>Node17&#45;&gt;Node15</title>
<path fill="none" stroke="#191970" d="M1733.5582,-519.3622C1731.381,-505.0437 1726.776,-478.1693 1720,-456 1714.7286,-438.7534 1661.5117,-323.6891 1658,-306 1656.1826,-296.8453 1653.5362,-293.1967 1658,-285 1665.6327,-270.9845 1679.5071,-260.551 1693.0537,-253.1581"/>
<polygon fill="#191970" stroke="#191970" points="1694.9308,-256.1322 1702.299,-248.5191 1691.7914,-249.8756 1694.9308,-256.1322"/>
</g>
<!-- Node18 -->
<g id="node18" class="node">
<title>Node18</title>
<polygon fill="none" stroke="#bfbfbf" points="2258,-456.5 2258,-476.5 2326,-476.5 2326,-456.5 2258,-456.5"/>
<text text-anchor="middle" x="2292" y="-463.5" font-family="FreeSans" font-size="10.00" fill="#000000">TBranch.h</text>
</g>
<!-- Node17&#45;&gt;Node18 -->
<g id="edge26" class="edge">
<title>Node17&#45;&gt;Node18</title>
<path fill="none" stroke="#191970" d="M1819.1428,-523.7382C1920.3866,-516.1338 2095.3225,-500.8515 2244,-477 2245.2555,-476.7986 2246.5275,-476.585 2247.8099,-476.3614"/>
<polygon fill="#191970" stroke="#191970" points="2248.5647,-479.7808 2257.7412,-474.4853 2247.2652,-472.9025 2248.5647,-479.7808"/>
</g>
<!-- Node19 -->
<g id="node19" class="node">
<title>Node19</title>
<polygon fill="none" stroke="#bfbfbf" points="1634.5,-456.5 1634.5,-476.5 1687.5,-476.5 1687.5,-456.5 1634.5,-456.5"/>
<text text-anchor="middle" x="1661" y="-463.5" font-family="FreeSans" font-size="10.00" fill="#000000">TTree.h</text>
</g>
<!-- Node17&#45;&gt;Node19 -->
<g id="edge27" class="edge">
<title>Node17&#45;&gt;Node19</title>
<path fill="none" stroke="#191970" d="M1723.1106,-519.378C1711.7425,-509.6997 1694.3865,-494.9236 1680.9084,-483.449"/>
<polygon fill="#191970" stroke="#191970" points="1682.9889,-480.6237 1673.1057,-476.8062 1678.4512,-485.9537 1682.9889,-480.6237"/>
</g>
<!-- Node20 -->
<g id="node20" class="node">
<title>Node20</title>
<g id="a_node20"><a xlink:href="../../d8/d5c/functions_8h.html" target="_top" xlink:title="eicsmear/functions.h">
<polygon fill="none" stroke="#000000" points="1333,-456.5 1333,-476.5 1455,-476.5 1455,-456.5 1333,-456.5"/>
<text text-anchor="middle" x="1394" y="-463.5" font-family="FreeSans" font-size="10.00" fill="#000000">eicsmear/functions.h</text>
</a>
</g>
</g>
<!-- Node17&#45;&gt;Node20 -->
<g id="edge28" class="edge">
<title>Node17&#45;&gt;Node20</title>
<path fill="none" stroke="#191970" d="M1680.5905,-519.4478C1620.0838,-508.2692 1522.4305,-490.2276 1458.2227,-478.3652"/>
<polygon fill="#191970" stroke="#191970" points="1458.6852,-474.8915 1448.2157,-476.5164 1457.4134,-481.775 1458.6852,-474.8915"/>
</g>
<!-- Node43 -->
<g id="node43" class="node">
<title>Node43</title>
<g id="a_node43"><a xlink:href="../../d6/db0/erhic_2EventPythia_8h.html" target="_top" xlink:title="eicsmear/erhic/EventPythia.h">
<polygon fill="none" stroke="#000000" points="2268,-399.5 2268,-419.5 2432,-419.5 2432,-399.5 2268,-399.5"/>
<text text-anchor="middle" x="2350" y="-406.5" font-family="FreeSans" font-size="10.00" fill="#000000">eicsmear/erhic/EventPythia.h</text>
</a>
</g>
</g>
<!-- Node17&#45;&gt;Node43 -->
<g id="edge84" class="edge">
<title>Node17&#45;&gt;Node43</title>
<path fill="none" stroke="#191970" d="M1819.2338,-527.5686C1975.3015,-523.208 2297.0597,-510.2563 2335,-477 2348.221,-465.4112 2351.2242,-444.9906 2351.3735,-429.636"/>
<polygon fill="#191970" stroke="#191970" points="2354.8695,-429.4447 2351.0831,-419.5496 2347.8724,-429.6462 2354.8695,-429.4447"/>
</g>
<!-- Node46 -->
<g id="node46" class="node">
<title>Node46</title>
<g id="a_node46"><a xlink:href="../../d9/d44/smear_2EventSmear_8h.html" target="_top" xlink:title="eicsmear/smear/EventSmear.h">
<polygon fill="none" stroke="#000000" points="1345.5,-399.5 1345.5,-419.5 1516.5,-419.5 1516.5,-399.5 1345.5,-399.5"/>
<text text-anchor="middle" x="1431" y="-406.5" font-family="FreeSans" font-size="10.00" fill="#000000">eicsmear/smear/EventSmear.h</text>
</a>
</g>
</g>
<!-- Node17&#45;&gt;Node46 -->
<g id="edge97" class="edge">
<title>Node17&#45;&gt;Node46</title>
<path fill="none" stroke="#191970" d="M1732.6534,-519.3001C1728.3595,-503.0973 1717.6201,-471.7084 1696,-456 1681.541,-445.4946 1589.6512,-430.93 1518.0838,-420.9149"/>
<polygon fill="#191970" stroke="#191970" points="1518.5167,-417.4415 1508.1303,-419.5328 1517.5539,-424.375 1518.5167,-417.4415"/>
</g>
<!-- Node20&#45;&gt;Node3 -->
<g id="edge29" class="edge">
<title>Node20&#45;&gt;Node3</title>
<path fill="none" stroke="#191970" d="M1455.2169,-461.8474C1634.6166,-447.7885 2150.4908,-404.1796 2214,-363 2243.4513,-343.9037 2255,-330.6006 2255,-295.5 2255,-295.5 2255,-295.5 2255,-238.5 2255,-205.2209 2262.9754,-167.2115 2268.5919,-144.5705"/>
<polygon fill="#191970" stroke="#191970" points="2272.0091,-145.3354 2271.1143,-134.7784 2265.2304,-143.5891 2272.0091,-145.3354"/>
</g>
<!-- Node20&#45;&gt;Node4 -->
<g id="edge30" class="edge">
<title>Node20&#45;&gt;Node4</title>
<path fill="none" stroke="#191970" d="M1332.6062,-464.0414C1088.4381,-453.9422 193.8383,-413.7743 78,-363 36.0113,-344.5955 0,-341.3451 0,-295.5 0,-295.5 0,-295.5 0,-124.5 0,-29.0582 1564.9467,-12.8729 1838.4604,-10.773"/>
<polygon fill="#191970" stroke="#191970" points="1838.7508,-14.271 1848.7243,-10.6962 1838.6984,-7.2712 1838.7508,-14.271"/>
</g>
<!-- Node21 -->
<g id="node21" class="node">
<title>Node21</title>
<polygon fill="none" stroke="#bfbfbf" points="1115.5,-342.5 1115.5,-362.5 1178.5,-362.5 1178.5,-342.5 1115.5,-342.5"/>
<text text-anchor="middle" x="1147" y="-349.5" font-family="FreeSans" font-size="10.00" fill="#000000">TString.h</text>
</g>
<!-- Node20&#45;&gt;Node21 -->
<g id="edge31" class="edge">
<title>Node20&#45;&gt;Node21</title>
<path fill="none" stroke="#191970" d="M1372.0804,-456.3833C1328.0459,-436.0596 1228.7304,-390.2217 1178.038,-366.8252"/>
<polygon fill="#191970" stroke="#191970" points="1179.4168,-363.6068 1168.8705,-362.5941 1176.4834,-369.9626 1179.4168,-363.6068"/>
</g>
<!-- Node22 -->
<g id="node22" class="node">
<title>Node22</title>
<g id="a_node22"><a xlink:href="../../d4/d9c/Smear_8h.html" target="_top" xlink:title="eicsmear/smear/Smear.h">
<polygon fill="none" stroke="#000000" points="590,-399.5 590,-419.5 732,-419.5 732,-399.5 590,-399.5"/>
<text text-anchor="middle" x="661" y="-406.5" font-family="FreeSans" font-size="10.00" fill="#000000">eicsmear/smear/Smear.h</text>
</a>
</g>
</g>
<!-- Node20&#45;&gt;Node22 -->
<g id="edge32" class="edge">
<title>Node20&#45;&gt;Node22</title>
<path fill="none" stroke="#191970" d="M1332.7656,-461.7383C1201.0474,-451.4955 890.7608,-427.3668 742.564,-415.8426"/>
<polygon fill="#191970" stroke="#191970" points="742.42,-412.3209 732.1787,-415.035 741.8772,-419.2999 742.42,-412.3209"/>
</g>
<!-- Node42 -->
<g id="node42" class="node">
<title>Node42</title>
<g id="a_node42"><a xlink:href="../../d4/d43/eic-smear_2blob_2master_2include_2eicsmear_2smear_2Detector_8h.html" target="_top" xlink:title="eicsmear/smear/Detector.h">
<polygon fill="none" stroke="#000000" points="1534.5,-399.5 1534.5,-419.5 1687.5,-419.5 1687.5,-399.5 1534.5,-399.5"/>
<text text-anchor="middle" x="1611" y="-406.5" font-family="FreeSans" font-size="10.00" fill="#000000">eicsmear/smear/Detector.h</text>
</a>
</g>
</g>
<!-- Node20&#45;&gt;Node42 -->
<g id="edge78" class="edge">
<title>Node20&#45;&gt;Node42</title>
<path fill="none" stroke="#191970" d="M1432.2957,-456.4408C1468.6728,-446.8855 1523.5007,-432.4837 1562.8275,-422.1536"/>
<polygon fill="#191970" stroke="#191970" points="1563.9401,-425.4802 1572.7228,-419.5544 1562.1616,-418.7098 1563.9401,-425.4802"/>
</g>
<!-- Node22&#45;&gt;Node2 -->
<g id="edge36" class="edge">
<title>Node22&#45;&gt;Node2</title>
<path fill="none" stroke="#191970" d="M732.3496,-400.5944C834.2479,-387.8455 1010.8079,-365.6306 1025,-363 1026.2751,-362.7637 1027.5689,-362.5128 1028.8734,-362.2505"/>
<polygon fill="#191970" stroke="#191970" points="1029.9218,-365.6045 1038.9514,-360.0623 1028.4364,-358.7639 1029.9218,-365.6045"/>
</g>
<!-- Node22&#45;&gt;Node10 -->
<g id="edge35" class="edge">
<title>Node22&#45;&gt;Node10</title>
<path fill="none" stroke="#191970" d="M589.7942,-407.8624C447.4248,-403.9781 137.9982,-392.2441 100,-363 74.7677,-343.5807 76,-327.3399 76,-295.5 76,-295.5 76,-295.5 76,-238.5 76,-205.6536 76,-167.4837 76,-144.697"/>
<polygon fill="#191970" stroke="#191970" points="79.5001,-144.5648 76,-134.5648 72.5001,-144.5648 79.5001,-144.5648"/>
</g>
<!-- Node22&#45;&gt;Node11 -->
<g id="edge40" class="edge">
<title>Node22&#45;&gt;Node11</title>
<path fill="none" stroke="#191970" d="M589.9828,-408.0517C459.242,-404.646 191.1788,-393.9325 163,-363 156.7146,-356.1004 157.6838,-349.6713 163,-342 327.3836,-104.7944 489.462,-177.4416 771,-114 952.7679,-73.0405 1006.1879,-101.357 1195.3195,-77.9643"/>
<polygon fill="#191970" stroke="#191970" points="1195.8295,-81.4278 1205.3093,-76.6966 1194.9482,-74.4835 1195.8295,-81.4278"/>
</g>
<!-- Node22&#45;&gt;Node14 -->
<g id="edge72" class="edge">
<title>Node22&#45;&gt;Node14</title>
<path fill="none" stroke="#191970" d="M732.0882,-401.8789C786.5555,-394.6675 855.8501,-382.0758 877,-363 923.8615,-320.7339 882.6598,-278.1244 921,-228 953.4148,-185.6222 1008.4483,-155.3043 1044.2561,-138.8346"/>
<polygon fill="#191970" stroke="#191970" points="1046.1134,-141.8379 1053.8111,-134.558 1043.2537,-135.4487 1046.1134,-141.8379"/>
</g>
<!-- Node22&#45;&gt;Node21 -->
<g id="edge44" class="edge">
<title>Node22&#45;&gt;Node21</title>
<path fill="none" stroke="#191970" d="M732.3571,-405.2782C818.5581,-399.4543 968.0445,-387.0417 1105.4457,-362.8643"/>
<polygon fill="#191970" stroke="#191970" points="1106.0869,-366.3052 1115.3166,-361.1031 1104.8573,-359.4141 1106.0869,-366.3052"/>
</g>
<!-- Node23 -->
<g id="node23" class="node">
<title>Node23</title>
<polygon fill="none" stroke="#bfbfbf" points="930,-228.5 930,-248.5 978,-248.5 978,-228.5 930,-228.5"/>
<text text-anchor="middle" x="954" y="-235.5" font-family="FreeSans" font-size="10.00" fill="#000000">cmath</text>
</g>
<!-- Node22&#45;&gt;Node23 -->
<g id="edge33" class="edge">
<title>Node22&#45;&gt;Node23</title>
<path fill="none" stroke="#191970" d="M732.2072,-399.9702C801.2364,-390.1426 897.4742,-374.651 911,-363 941.7601,-336.5035 950.5365,-286.8789 953.0267,-258.9492"/>
<polygon fill="#191970" stroke="#191970" points="956.5332,-258.9773 953.7391,-248.7576 949.5502,-258.4892 956.5332,-258.9773"/>
</g>
<!-- Node24 -->
<g id="node24" class="node">
<title>Node24</title>
<polygon fill="none" stroke="#bfbfbf" points="180.5,-342.5 180.5,-362.5 235.5,-362.5 235.5,-342.5 180.5,-342.5"/>
<text text-anchor="middle" x="208" y="-349.5" font-family="FreeSans" font-size="10.00" fill="#000000">fstream</text>
</g>
<!-- Node22&#45;&gt;Node24 -->
<g id="edge34" class="edge">
<title>Node22&#45;&gt;Node24</title>
<path fill="none" stroke="#191970" d="M589.7946,-405.1337C508.6336,-399.3512 371.9597,-387.1661 245.6135,-362.8363"/>
<polygon fill="#191970" stroke="#191970" points="246.2468,-359.3939 235.761,-360.9099 244.9035,-366.2638 246.2468,-359.3939"/>
</g>
<!-- Node25 -->
<g id="node25" class="node">
<title>Node25</title>
<polygon fill="none" stroke="#bfbfbf" points="254,-342.5 254,-362.5 310,-362.5 310,-342.5 254,-342.5"/>
<text text-anchor="middle" x="282" y="-349.5" font-family="FreeSans" font-size="10.00" fill="#000000">sstream</text>
</g>
<!-- Node22&#45;&gt;Node25 -->
<g id="edge37" class="edge">
<title>Node22&#45;&gt;Node25</title>
<path fill="none" stroke="#191970" d="M589.7607,-402.7808C522.4716,-395.7609 418.6334,-383.1925 320.0129,-362.9849"/>
<polygon fill="#191970" stroke="#191970" points="320.6828,-359.5494 310.1797,-360.9407 319.258,-366.4029 320.6828,-359.5494"/>
</g>
<!-- Node26 -->
<g id="node26" class="node">
<title>Node26</title>
<polygon fill="none" stroke="#bfbfbf" points="328.5,-342.5 328.5,-362.5 373.5,-362.5 373.5,-342.5 328.5,-342.5"/>
<text text-anchor="middle" x="351" y="-349.5" font-family="FreeSans" font-size="10.00" fill="#000000">TF1.h</text>
</g>
<!-- Node22&#45;&gt;Node26 -->
<g id="edge38" class="edge">
<title>Node22&#45;&gt;Node26</title>
<path fill="none" stroke="#191970" d="M589.8307,-400.866C535.4999,-393.5364 458.7164,-381.5917 383.6584,-363.1368"/>
<polygon fill="#191970" stroke="#191970" points="384.1116,-359.6424 373.5611,-360.6115 382.4131,-366.4333 384.1116,-359.6424"/>
</g>
<!-- Node27 -->
<g id="node27" class="node">
<title>Node27</title>
<polygon fill="none" stroke="#bfbfbf" points="391.5,-342.5 391.5,-362.5 436.5,-362.5 436.5,-342.5 391.5,-342.5"/>
<text text-anchor="middle" x="414" y="-349.5" font-family="FreeSans" font-size="10.00" fill="#000000">TF2.h</text>
</g>
<!-- Node22&#45;&gt;Node27 -->
<g id="edge39" class="edge">
<title>Node22&#45;&gt;Node27</title>
<path fill="none" stroke="#191970" d="M607.1709,-399.473C565.6752,-391.3768 506.7205,-379.0822 446.3383,-362.8839"/>
<polygon fill="#191970" stroke="#191970" points="447.2053,-359.4927 436.6376,-360.2507 445.3715,-366.2482 447.2053,-359.4927"/>
</g>
<!-- Node28 -->
<g id="node28" class="node">
<title>Node28</title>
<polygon fill="none" stroke="#bfbfbf" points="455,-342.5 455,-362.5 513,-362.5 513,-342.5 455,-342.5"/>
<text text-anchor="middle" x="484" y="-349.5" font-family="FreeSans" font-size="10.00" fill="#000000">TMath.h</text>
</g>
<!-- Node22&#45;&gt;Node28 -->
<g id="edge41" class="edge">
<title>Node22&#45;&gt;Node28</title>
<path fill="none" stroke="#191970" d="M629.7634,-399.4408C599.9032,-389.8248 554.8012,-375.3004 522.6826,-364.9571"/>
<polygon fill="#191970" stroke="#191970" points="523.7544,-361.6253 513.1629,-361.8914 521.6086,-368.2883 523.7544,-361.6253"/>
</g>
<!-- Node29 -->
<g id="node29" class="node">
<title>Node29</title>
<polygon fill="none" stroke="#bfbfbf" points="531.5,-342.5 531.5,-362.5 612.5,-362.5 612.5,-342.5 531.5,-342.5"/>
<text text-anchor="middle" x="572" y="-349.5" font-family="FreeSans" font-size="10.00" fill="#000000">TRandom3.h</text>
</g>
<!-- Node22&#45;&gt;Node29 -->
<g id="edge42" class="edge">
<title>Node22&#45;&gt;Node29</title>
<path fill="none" stroke="#191970" d="M645.0886,-399.3095C631.5466,-390.6366 611.8793,-378.0407 596.3566,-368.0992"/>
<polygon fill="#191970" stroke="#191970" points="598.0823,-365.0481 587.7737,-362.6022 594.307,-370.9429 598.0823,-365.0481"/>
</g>
<!-- Node30 -->
<g id="node30" class="node">
<title>Node30</title>
<polygon fill="none" stroke="#bfbfbf" points="631,-342.5 631,-362.5 691,-362.5 691,-342.5 631,-342.5"/>
<text text-anchor="middle" x="661" y="-349.5" font-family="FreeSans" font-size="10.00" fill="#000000">TROOT.h</text>
</g>
<!-- Node22&#45;&gt;Node30 -->
<g id="edge43" class="edge">
<title>Node22&#45;&gt;Node30</title>
<path fill="none" stroke="#191970" d="M661,-399.3095C661,-391.9335 661,-381.72 661,-372.715"/>
<polygon fill="#191970" stroke="#191970" points="664.5001,-372.6022 661,-362.6022 657.5001,-372.6023 664.5001,-372.6022"/>
</g>
<!-- Node31 -->
<g id="node31" class="node">
<title>Node31</title>
<polygon fill="none" stroke="#bfbfbf" points="709,-342.5 709,-362.5 779,-362.5 779,-342.5 709,-342.5"/>
<text text-anchor="middle" x="744" y="-349.5" font-family="FreeSans" font-size="10.00" fill="#000000">TSystem.h</text>
</g>
<!-- Node22&#45;&gt;Node31 -->
<g id="edge45" class="edge">
<title>Node22&#45;&gt;Node31</title>
<path fill="none" stroke="#191970" d="M675.8387,-399.3095C688.3497,-390.7177 706.4669,-378.2758 720.8785,-368.3786"/>
<polygon fill="#191970" stroke="#191970" points="723.0278,-371.1485 729.2897,-362.6022 719.065,-365.3782 723.0278,-371.1485"/>
</g>
<!-- Node32 -->
<g id="node32" class="node">
<title>Node32</title>
<polygon fill="none" stroke="#bfbfbf" points="797.5,-342.5 797.5,-362.5 868.5,-362.5 868.5,-342.5 797.5,-342.5"/>
<text text-anchor="middle" x="833" y="-349.5" font-family="FreeSans" font-size="10.00" fill="#000000">TVector2.h</text>
</g>
<!-- Node22&#45;&gt;Node32 -->
<g id="edge46" class="edge">
<title>Node22&#45;&gt;Node32</title>
<path fill="none" stroke="#191970" d="M691.3542,-399.4408C719.6367,-390.0681 761.9903,-376.0323 793.017,-365.7502"/>
<polygon fill="#191970" stroke="#191970" points="794.2691,-369.0225 802.6604,-362.5544 792.0671,-362.3779 794.2691,-369.0225"/>
</g>
<!-- Node33 -->
<g id="node33" class="node">
<title>Node33</title>
<g id="a_node33"><a xlink:href="../../dd/d12/Kinematics_8h.html" target="_top" xlink:title="eicsmear/erhic/Kinematics.h">
<polygon fill="none" stroke="#000000" points="1310.5,-342.5 1310.5,-362.5 1469.5,-362.5 1469.5,-342.5 1310.5,-342.5"/>
<text text-anchor="middle" x="1390" y="-349.5" font-family="FreeSans" font-size="10.00" fill="#000000">eicsmear/erhic/Kinematics.h</text>
</a>
</g>
</g>
<!-- Node22&#45;&gt;Node33 -->
<g id="edge47" class="edge">
<title>Node22&#45;&gt;Node33</title>
<path fill="none" stroke="#191970" d="M732.2269,-403.9308C865.7043,-393.4943 1153.2085,-371.0146 1299.9097,-359.5441"/>
<polygon fill="#191970" stroke="#191970" points="1300.5281,-363.0065 1310.2248,-358.7376 1299.9824,-356.0278 1300.5281,-363.0065"/>
</g>
<!-- Node37 -->
<g id="node37" class="node">
<title>Node37</title>
<g id="a_node37"><a xlink:href="../../df/d17/ParticleIdentifier_8h.html" target="_top" xlink:title="eicsmear/erhic/ParticleIdentifier.h">
<polygon fill="none" stroke="#000000" points="1076.5,-285.5 1076.5,-305.5 1261.5,-305.5 1261.5,-285.5 1076.5,-285.5"/>
<text text-anchor="middle" x="1169" y="-292.5" font-family="FreeSans" font-size="10.00" fill="#000000">eicsmear/erhic/ParticleIdentifier.h</text>
</a>
</g>
</g>
<!-- Node22&#45;&gt;Node37 -->
<g id="edge71" class="edge">
<title>Node22&#45;&gt;Node37</title>
<path fill="none" stroke="#191970" d="M732.0621,-400.1175C803.7959,-390.2715 909.4625,-374.6369 949,-363 971.3382,-356.4253 975.0336,-349.7265 997,-342 1035.776,-328.3609 1080.6401,-316.3524 1114.8241,-307.9565"/>
<polygon fill="#191970" stroke="#191970" points="1115.7275,-311.3389 1124.619,-305.5777 1114.0754,-304.5367 1115.7275,-311.3389"/>
</g>
<!-- Node40 -->
<g id="node40" class="node">
<title>Node40</title>
<g id="a_node40"><a xlink:href="../../db/d8e/Particle_8h.html" target="_top" xlink:title="eicsmear/erhic/Particle.h">
<polygon fill="none" stroke="#000000" points="1172,-228.5 1172,-248.5 1312,-248.5 1312,-228.5 1172,-228.5"/>
<text text-anchor="middle" x="1242" y="-235.5" font-family="FreeSans" font-size="10.00" fill="#000000">eicsmear/erhic/Particle.h</text>
</a>
</g>
</g>
<!-- Node22&#45;&gt;Node40 -->
<g id="edge70" class="edge">
<title>Node22&#45;&gt;Node40</title>
<path fill="none" stroke="#191970" d="M732.2168,-400.5399C820.7581,-389.2136 963.1929,-370.3121 987,-363 1007.3311,-356.7556 1009.6916,-348.3177 1030,-342 1081.4958,-325.9804 1234.8076,-346.8649 1270,-306 1282.3188,-291.6955 1270.8579,-271.2156 1259.0988,-256.5717"/>
<polygon fill="#191970" stroke="#191970" points="1261.5015,-253.9987 1252.3183,-248.7147 1256.202,-258.5721 1261.5015,-253.9987"/>
</g>
<!-- Node41 -->
<g id="node41" class="node">
<title>Node41</title>
<g id="a_node41"><a xlink:href="../../d8/dbc/ParticleMCS_8h.html" target="_top" xlink:title="eicsmear/smear/ParticleMCS.h">
<polygon fill="none" stroke="#000000" points="690.5,-285.5 690.5,-305.5 859.5,-305.5 859.5,-285.5 690.5,-285.5"/>
<text text-anchor="middle" x="775" y="-292.5" font-family="FreeSans" font-size="10.00" fill="#000000">eicsmear/smear/ParticleMCS.h</text>
</a>
</g>
</g>
<!-- Node22&#45;&gt;Node41 -->
<g id="edge73" class="edge">
<title>Node22&#45;&gt;Node41</title>
<path fill="none" stroke="#191970" d="M589.8645,-407.9306C460.7656,-404.3417 198.6172,-393.3621 171,-363 164.7198,-356.0956 164.6587,-348.8483 171,-342 188.0275,-323.6113 514.6272,-306.824 680.3031,-299.4501"/>
<polygon fill="#191970" stroke="#191970" points="680.658,-302.9379 690.4936,-298.9994 680.3486,-295.9448 680.658,-302.9379"/>
</g>
<!-- Node33&#45;&gt;Node4 -->
<g id="edge50" class="edge">
<title>Node33&#45;&gt;Node4</title>
<path fill="none" stroke="#191970" d="M1310.2086,-348.0372C1127.838,-337.7351 695.0636,-312.667 681,-306 643.9191,-288.4215 618,-279.5366 618,-238.5 618,-238.5 618,-238.5 618,-124.5 618,42.6585 821.9706,-76.3959 988,-57 1314.6457,-18.8407 1712.328,-11.9925 1838.5488,-10.7665"/>
<polygon fill="#191970" stroke="#191970" points="1838.917,-14.2634 1848.8849,-10.673 1838.8536,-7.2637 1838.917,-14.2634"/>
</g>
<!-- Node33&#45;&gt;Node7 -->
<g id="edge49" class="edge">
<title>Node33&#45;&gt;Node7</title>
<path fill="none" stroke="#191970" d="M1399.4907,-342.2595C1419.5957,-320.6734 1468.1509,-269.1058 1511,-228 1521.5148,-217.913 1533.6317,-207.0366 1543.5224,-198.3407"/>
<polygon fill="#191970" stroke="#191970" points="1545.9941,-200.829 1551.2229,-191.6143 1541.389,-195.557 1545.9941,-200.829"/>
</g>
<!-- Node33&#45;&gt;Node11 -->
<g id="edge51" class="edge">
<title>Node33&#45;&gt;Node11</title>
<path fill="none" stroke="#191970" d="M1396.7419,-342.1203C1419.099,-306.2723 1486.3198,-185.9387 1431,-114 1423.7319,-104.5485 1363.6199,-89.9688 1315.8484,-79.6583"/>
<polygon fill="#191970" stroke="#191970" points="1316.3757,-76.192 1305.8652,-77.5263 1314.9137,-83.0377 1316.3757,-76.192"/>
</g>
<!-- Node33&#45;&gt;Node14 -->
<g id="edge69" class="edge">
<title>Node33&#45;&gt;Node14</title>
<path fill="none" stroke="#191970" d="M1311.856,-342.4963C1217.5834,-330.2485 1071.0976,-310.5654 1067,-306 1026.3182,-260.6732 1053.7458,-180.6256 1069.748,-143.9008"/>
<polygon fill="#191970" stroke="#191970" points="1072.9523,-145.3093 1073.8924,-134.7562 1066.5765,-142.4197 1072.9523,-145.3093"/>
</g>
<!-- Node34 -->
<g id="node34" class="node">
<title>Node34</title>
<polygon fill="none" stroke="#bfbfbf" points="1465,-285.5 1465,-305.5 1497,-305.5 1497,-285.5 1465,-285.5"/>
<text text-anchor="middle" x="1481" y="-292.5" font-family="FreeSans" font-size="10.00" fill="#000000">list</text>
</g>
<!-- Node33&#45;&gt;Node34 -->
<g id="edge48" class="edge">
<title>Node33&#45;&gt;Node34</title>
<path fill="none" stroke="#191970" d="M1406.269,-342.3095C1420.1152,-333.6366 1440.2245,-321.0407 1456.096,-311.0992"/>
<polygon fill="#191970" stroke="#191970" points="1458.2551,-313.8768 1464.8719,-305.6022 1454.5392,-307.9445 1458.2551,-313.8768"/>
</g>
<!-- Node35 -->
<g id="node35" class="node">
<title>Node35</title>
<g id="a_node35"><a xlink:href="../../db/d19/erhic_2ParticleMC_8h.html" target="_top" xlink:title="eicsmear/erhic/ParticleMC.h">
<polygon fill="none" stroke="#000000" points="1266,-171.5 1266,-191.5 1422,-191.5 1422,-171.5 1266,-171.5"/>
<text text-anchor="middle" x="1344" y="-178.5" font-family="FreeSans" font-size="10.00" fill="#000000">eicsmear/erhic/ParticleMC.h</text>
</a>
</g>
</g>
<!-- Node33&#45;&gt;Node35 -->
<g id="edge52" class="edge">
<title>Node33&#45;&gt;Node35</title>
<path fill="none" stroke="#191970" d="M1387.2602,-342.3153C1379.8633,-314.8178 1359.3803,-238.6748 1349.4875,-201.8993"/>
<polygon fill="#191970" stroke="#191970" points="1352.7612,-200.595 1346.7836,-191.8476 1346.0015,-202.4135 1352.7612,-200.595"/>
</g>
<!-- Node33&#45;&gt;Node37 -->
<g id="edge59" class="edge">
<title>Node33&#45;&gt;Node37</title>
<path fill="none" stroke="#191970" d="M1350.9984,-342.4408C1313.8721,-332.8652 1257.875,-318.4225 1217.8056,-308.0879"/>
<polygon fill="#191970" stroke="#191970" points="1218.5401,-304.6628 1207.9828,-305.5544 1216.7918,-311.441 1218.5401,-304.6628"/>
</g>
<!-- Node35&#45;&gt;Node3 -->
<g id="edge53" class="edge">
<title>Node35&#45;&gt;Node3</title>
<path fill="none" stroke="#191970" d="M1422.0903,-176.7138C1615.1668,-164.8801 2108.8975,-134.6192 2241.0488,-126.5196"/>
<polygon fill="#191970" stroke="#191970" points="2241.555,-129.9952 2251.3221,-125.8899 2241.1267,-123.0083 2241.555,-129.9952"/>
</g>
<!-- Node35&#45;&gt;Node11 -->
<g id="edge54" class="edge">
<title>Node35&#45;&gt;Node11</title>
<path fill="none" stroke="#191970" d="M1336.1906,-171.3833C1321.355,-152.1645 1288.9074,-110.1301 1270.1512,-85.8322"/>
<polygon fill="#191970" stroke="#191970" points="1272.7995,-83.5352 1263.9184,-77.7579 1267.2584,-87.8126 1272.7995,-83.5352"/>
</g>
<!-- Node35&#45;&gt;Node12 -->
<g id="edge56" class="edge">
<title>Node35&#45;&gt;Node12</title>
<path fill="none" stroke="#191970" d="M1381.727,-171.347C1399.9959,-164.322 1420.2581,-152.9213 1431,-135 1443.8707,-113.527 1418.4677,-94.4314 1394.5492,-82.0784"/>
<polygon fill="#191970" stroke="#191970" points="1396.0601,-78.9212 1385.5378,-77.6831 1392.9914,-85.2127 1396.0601,-78.9212"/>
</g>
<!-- Node35&#45;&gt;Node13 -->
<g id="edge57" class="edge">
<title>Node35&#45;&gt;Node13</title>
<path fill="none" stroke="#191970" d="M1324.8314,-171.3833C1286.5637,-151.1864 1200.5542,-105.7925 1155.9769,-82.2656"/>
<polygon fill="#191970" stroke="#191970" points="1157.6031,-79.1664 1147.1256,-77.5941 1154.3358,-85.3571 1157.6031,-79.1664"/>
</g>
<!-- Node35&#45;&gt;Node14 -->
<g id="edge58" class="edge">
<title>Node35&#45;&gt;Node14</title>
<path fill="none" stroke="#191970" d="M1297.2333,-171.4408C1252.1495,-161.7435 1183.8588,-147.0545 1135.6996,-136.6958"/>
<polygon fill="#191970" stroke="#191970" points="1136.2565,-133.2356 1125.7441,-134.5544 1134.7845,-140.0791 1136.2565,-133.2356"/>
</g>
<!-- Node36 -->
<g id="node36" class="node">
<title>Node36</title>
<polygon fill="none" stroke="#bfbfbf" points="1374,-114.5 1374,-134.5 1422,-134.5 1422,-114.5 1374,-114.5"/>
<text text-anchor="middle" x="1398" y="-121.5" font-family="FreeSans" font-size="10.00" fill="#000000">TRef.h</text>
</g>
<!-- Node35&#45;&gt;Node36 -->
<g id="edge55" class="edge">
<title>Node35&#45;&gt;Node36</title>
<path fill="none" stroke="#191970" d="M1353.6541,-171.3095C1361.3331,-163.204 1372.2582,-151.672 1381.3428,-142.0826"/>
<polygon fill="#191970" stroke="#191970" points="1384.0928,-144.2689 1388.4295,-134.6022 1379.0111,-139.4547 1384.0928,-144.2689"/>
</g>
<!-- Node37&#45;&gt;Node7 -->
<g id="edge62" class="edge">
<title>Node37&#45;&gt;Node7</title>
<path fill="none" stroke="#191970" d="M1203.6196,-285.4832C1278.2268,-263.8963 1453.4543,-213.196 1528.2124,-191.5655"/>
<polygon fill="#191970" stroke="#191970" points="1529.4402,-194.8538 1538.0734,-188.7123 1527.4946,-188.1296 1529.4402,-194.8538"/>
</g>
<!-- Node37&#45;&gt;Node15 -->
<g id="edge68" class="edge">
<title>Node37&#45;&gt;Node15</title>
<path fill="none" stroke="#191970" d="M1261.6377,-286.0876C1365.5452,-275.5302 1533.1056,-258.5053 1637.1142,-247.9376"/>
<polygon fill="#191970" stroke="#191970" points="1637.6935,-251.3968 1647.2885,-246.9038 1636.9859,-244.4327 1637.6935,-251.3968"/>
</g>
<!-- Node37&#45;&gt;Node23 -->
<g id="edge60" class="edge">
<title>Node37&#45;&gt;Node23</title>
<path fill="none" stroke="#191970" d="M1131.0572,-285.4408C1090.5548,-274.7029 1026.9666,-257.8446 988.031,-247.5222"/>
<polygon fill="#191970" stroke="#191970" points="988.7807,-244.1001 978.2176,-244.9205 986.9868,-250.8663 988.7807,-244.1001"/>
</g>
<!-- Node38 -->
<g id="node38" class="node">
<title>Node38</title>
<polygon fill="none" stroke="#bfbfbf" points="1110,-228.5 1110,-248.5 1154,-248.5 1154,-228.5 1110,-228.5"/>
<text text-anchor="middle" x="1132" y="-235.5" font-family="FreeSans" font-size="10.00" fill="#000000">limits</text>
</g>
<!-- Node37&#45;&gt;Node38 -->
<g id="edge61" class="edge">
<title>Node37&#45;&gt;Node38</title>
<path fill="none" stroke="#191970" d="M1162.3851,-285.3095C1157.3341,-277.5282 1150.2332,-266.589 1144.166,-257.2423"/>
<polygon fill="#191970" stroke="#191970" points="1146.9381,-255.0844 1138.5576,-248.6022 1141.0666,-258.8957 1146.9381,-255.0844"/>
</g>
<!-- Node39 -->
<g id="node39" class="node">
<title>Node39</title>
<g id="a_node39"><a xlink:href="../../d3/d7d/BeamParticles_8h.html" target="_top" xlink:title="eicsmear/erhic/BeamParticles.h">
<polygon fill="none" stroke="#000000" points="798.5,-114.5 798.5,-134.5 973.5,-134.5 973.5,-114.5 798.5,-114.5"/>
<text text-anchor="middle" x="886" y="-121.5" font-family="FreeSans" font-size="10.00" fill="#000000">eicsmear/erhic/BeamParticles.h</text>
</a>
</g>
</g>
<!-- Node37&#45;&gt;Node39 -->
<g id="edge63" class="edge">
<title>Node37&#45;&gt;Node39</title>
<path fill="none" stroke="#191970" d="M1152.1446,-285.3153C1104.4647,-256.5052 968.4084,-174.2944 911.5056,-139.9115"/>
<polygon fill="#191970" stroke="#191970" points="913.1361,-136.8074 902.7671,-134.6314 909.5159,-142.7986 913.1361,-136.8074"/>
</g>
<!-- Node37&#45;&gt;Node40 -->
<g id="edge66" class="edge">
<title>Node37&#45;&gt;Node40</title>
<path fill="none" stroke="#191970" d="M1182.0509,-285.3095C1192.847,-276.8798 1208.3894,-264.7439 1220.9433,-254.9415"/>
<polygon fill="#191970" stroke="#191970" points="1223.3342,-257.5153 1229.0621,-248.6022 1219.0261,-251.998 1223.3342,-257.5153"/>
</g>
<!-- Node39&#45;&gt;Node4 -->
<g id="edge64" class="edge">
<title>Node39&#45;&gt;Node4</title>
<path fill="none" stroke="#191970" d="M905.7219,-114.4814C937.3362,-98.9725 1001.733,-69.6257 1060,-57 1211.2342,-24.2296 1695.8717,-13.5878 1838.9003,-11.1197"/>
<polygon fill="#191970" stroke="#191970" points="1839.0463,-14.6179 1848.9858,-10.9496 1838.9281,-7.6188 1839.0463,-14.6179"/>
</g>
<!-- Node39&#45;&gt;Node11 -->
<g id="edge65" class="edge">
<title>Node39&#45;&gt;Node11</title>
<path fill="none" stroke="#191970" d="M956.2537,-114.4599C1016.8631,-105.6838 1107.0123,-92.3588 1195.3503,-78.0763"/>
<polygon fill="#191970" stroke="#191970" points="1195.9652,-81.5224 1205.2757,-76.4662 1194.8442,-74.6127 1195.9652,-81.5224"/>
</g>
<!-- Node40&#45;&gt;Node35 -->
<g id="edge67" class="edge">
<title>Node40&#45;&gt;Node35</title>
<path fill="none" stroke="#191970" d="M1260.2356,-228.3095C1276.0456,-219.4745 1299.1407,-206.5684 1317.0782,-196.5445"/>
<polygon fill="#191970" stroke="#191970" points="1318.9003,-199.5358 1325.9223,-191.6022 1315.4855,-193.4252 1318.9003,-199.5358"/>
</g>
<!-- Node41&#45;&gt;Node11 -->
<g id="edge75" class="edge">
<title>Node41&#45;&gt;Node11</title>
<path fill="none" stroke="#191970" d="M771.9236,-285.4802C763.205,-254.848 741.8905,-161.642 789,-114 819.2999,-83.3576 1118.235,-83.7838 1194.9743,-77.7182"/>
<polygon fill="#191970" stroke="#191970" points="1195.7062,-81.1625 1205.3076,-76.6833 1195.0085,-74.1974 1195.7062,-81.1625"/>
</g>
<!-- Node41&#45;&gt;Node13 -->
<g id="edge76" class="edge">
<title>Node41&#45;&gt;Node13</title>
<path fill="none" stroke="#191970" d="M769.3441,-285.2927C753.3537,-254.9186 711.7583,-164.1162 756,-114 775.6507,-91.74 956.3063,-77.5875 1058.4456,-71.2947"/>
<polygon fill="#191970" stroke="#191970" points="1058.9117,-74.7729 1068.6815,-70.6741 1058.488,-67.7858 1058.9117,-74.7729"/>
</g>
<!-- Node41&#45;&gt;Node14 -->
<g id="edge77" class="edge">
<title>Node41&#45;&gt;Node14</title>
<path fill="none" stroke="#191970" d="M785.0762,-285.2725C808.6825,-261.8481 870.2535,-203.8089 932,-171 960.4395,-155.8887 994.6164,-144.7105 1022.8561,-137.1062"/>
<polygon fill="#191970" stroke="#191970" points="1023.7883,-140.4802 1032.578,-134.5649 1022.0179,-133.7077 1023.7883,-140.4802"/>
</g>
<!-- Node41&#45;&gt;Node23 -->
<g id="edge74" class="edge">
<title>Node41&#45;&gt;Node23</title>
<path fill="none" stroke="#191970" d="M806.5896,-285.4408C838.5153,-275.2744 887.6698,-259.6219 920.3226,-249.2241"/>
<polygon fill="#191970" stroke="#191970" points="921.4225,-252.5471 929.889,-246.1778 919.2985,-245.8771 921.4225,-252.5471"/>
</g>
<!-- Node42&#45;&gt;Node7 -->
<g id="edge80" class="edge">
<title>Node42&#45;&gt;Node7</title>
<path fill="none" stroke="#191970" d="M1608.4878,-399.2451C1603.9722,-380.6892 1594.2765,-340.2828 1587,-306 1579.1922,-269.2142 1571.1173,-226.0816 1566.6088,-201.4547"/>
<polygon fill="#191970" stroke="#191970" points="1570.0367,-200.7425 1564.802,-191.5311 1563.1499,-201.9964 1570.0367,-200.7425"/>
</g>
<!-- Node42&#45;&gt;Node16 -->
<g id="edge81" class="edge">
<title>Node42&#45;&gt;Node16</title>
<path fill="none" stroke="#191970" d="M1687.9305,-400.3952C1692.6893,-399.9027 1697.4084,-399.433 1702,-399 1756.4603,-393.8638 2155.6507,-402.9667 2193,-363 2234.318,-318.7866 2214.2079,-238.7687 2201.5807,-201.5462"/>
<polygon fill="#191970" stroke="#191970" points="2204.7793,-200.0954 2198.1263,-191.8499 2198.1853,-202.4446 2204.7793,-200.0954"/>
</g>
<!-- Node42&#45;&gt;Node21 -->
<g id="edge82" class="edge">
<title>Node42&#45;&gt;Node21</title>
<path fill="none" stroke="#191970" d="M1534.3798,-400.0876C1435.5532,-387.9473 1267.1092,-367.2548 1189.031,-357.6633"/>
<polygon fill="#191970" stroke="#191970" points="1188.9824,-354.1311 1178.6302,-356.3856 1188.1288,-361.0789 1188.9824,-354.1311"/>
</g>
<!-- Node42&#45;&gt;Node34 -->
<g id="edge79" class="edge">
<title>Node42&#45;&gt;Node34</title>
<path fill="none" stroke="#191970" d="M1599.4634,-399.3833C1577.1627,-379.8273 1527.9234,-336.6482 1500.4657,-312.57"/>
<polygon fill="#191970" stroke="#191970" points="1502.5239,-309.7197 1492.6977,-305.7579 1497.9086,-314.9827 1502.5239,-309.7197"/>
</g>
<!-- Node43&#45;&gt;Node3 -->
<g id="edge85" class="edge">
<title>Node43&#45;&gt;Node3</title>
<path fill="none" stroke="#191970" d="M2347.1143,-399.2216C2341.7991,-379.3546 2331,-334.2248 2331,-295.5 2331,-295.5 2331,-295.5 2331,-238.5 2331,-201.3539 2306.4898,-163.9043 2289.6144,-142.5221"/>
<polygon fill="#191970" stroke="#191970" points="2292.2031,-140.1591 2283.158,-134.642 2286.7884,-144.5955 2292.2031,-140.1591"/>
</g>
<!-- Node43&#45;&gt;Node4 -->
<g id="edge86" class="edge">
<title>Node43&#45;&gt;Node4</title>
<path fill="none" stroke="#191970" d="M2352.8857,-399.2216C2358.2009,-379.3546 2369,-334.2248 2369,-295.5 2369,-295.5 2369,-295.5 2369,-124.5 2369,-32.4049 2036.487,-14.6801 1919.2899,-11.293"/>
<polygon fill="#191970" stroke="#191970" points="1919.3724,-7.7941 1909.2819,-11.0239 1919.1842,-14.7915 1919.3724,-7.7941"/>
</g>
<!-- Node44 -->
<g id="node44" class="node">
<title>Node44</title>
<g id="a_node44"><a xlink:href="../../dd/db5/erhic_2EventMC_8h.html" target="_top" xlink:title="eicsmear/erhic/EventMC.h">
<polygon fill="none" stroke="#000000" points="1991,-342.5 1991,-362.5 2139,-362.5 2139,-342.5 1991,-342.5"/>
<text text-anchor="middle" x="2065" y="-349.5" font-family="FreeSans" font-size="10.00" fill="#000000">eicsmear/erhic/EventMC.h</text>
</a>
</g>
</g>
<!-- Node43&#45;&gt;Node44 -->
<g id="edge87" class="edge">
<title>Node43&#45;&gt;Node44</title>
<path fill="none" stroke="#191970" d="M2299.7038,-399.4408C2251.0146,-389.7029 2177.1576,-374.9315 2125.3298,-364.566"/>
<polygon fill="#191970" stroke="#191970" points="2125.7642,-361.0836 2115.2719,-362.5544 2124.3913,-367.9477 2125.7642,-361.0836"/>
</g>
<!-- Node44&#45;&gt;Node3 -->
<g id="edge88" class="edge">
<title>Node44&#45;&gt;Node3</title>
<path fill="none" stroke="#191970" d="M2080.4542,-342.4846C2092.1776,-334.0992 2107.7968,-321.0979 2117,-306 2149.2619,-253.0742 2110.6576,-217.182 2152,-171 2174.9241,-145.3924 2213.4923,-133.8064 2241.1304,-128.6158"/>
<polygon fill="#191970" stroke="#191970" points="2241.8563,-132.0428 2251.1324,-126.9236 2240.6886,-125.1408 2241.8563,-132.0428"/>
</g>
<!-- Node44&#45;&gt;Node7 -->
<g id="edge89" class="edge">
<title>Node44&#45;&gt;Node7</title>
<path fill="none" stroke="#191970" d="M1991.7837,-342.4628C1941.905,-334.3999 1881.3662,-321.8236 1861,-306 1830.2351,-282.0971 1852.3041,-251.1922 1821,-228 1786.0839,-202.1317 1659.7096,-188.9825 1597.7432,-183.9704"/>
<polygon fill="#191970" stroke="#191970" points="1597.9082,-180.4727 1587.6655,-183.1814 1597.3618,-187.4514 1597.9082,-180.4727"/>
</g>
<!-- Node44&#45;&gt;Node8 -->
<g id="edge90" class="edge">
<title>Node44&#45;&gt;Node8</title>
<path fill="none" stroke="#191970" d="M2062.4048,-342.3646C2058.9488,-329.0967 2052.5113,-305.1575 2046,-285 2043.1391,-276.1433 2039.657,-266.4597 2036.591,-258.2333"/>
<polygon fill="#191970" stroke="#191970" points="2039.8206,-256.8785 2033.008,-248.7644 2033.2736,-259.3559 2039.8206,-256.8785"/>
</g>
<!-- Node44&#45;&gt;Node11 -->
<g id="edge91" class="edge">
<title>Node44&#45;&gt;Node11</title>
<path fill="none" stroke="#191970" d="M2071.1263,-342.4242C2084.3026,-319.3188 2111.9634,-261.9043 2084,-228 2077.7891,-220.4695 1506.9738,-114.0397 1316.8378,-78.7654"/>
<polygon fill="#191970" stroke="#191970" points="1317.2061,-75.2741 1306.7355,-76.8917 1315.9295,-82.1567 1317.2061,-75.2741"/>
</g>
<!-- Node44&#45;&gt;Node35 -->
<g id="edge96" class="edge">
<title>Node44&#45;&gt;Node35</title>
<path fill="none" stroke="#191970" d="M1990.8012,-349.886C1908.4113,-345.6363 1771.9975,-334.5771 1658,-306 1549.0688,-278.693 1427.4007,-222.5718 1373.0078,-196.0263"/>
<polygon fill="#191970" stroke="#191970" points="1374.4737,-192.8469 1363.9552,-191.5772 1371.3862,-199.1292 1374.4737,-192.8469"/>
</g>
<!-- Node45 -->
<g id="node45" class="node">
<title>Node45</title>
<g id="a_node45"><a xlink:href="../../d4/dc7/EventDis_8h.html" target="_top" xlink:title="eicsmear/erhic/EventDis.h">
<polygon fill="none" stroke="#000000" points="1667,-285.5 1667,-305.5 1815,-305.5 1815,-285.5 1667,-285.5"/>
<text text-anchor="middle" x="1741" y="-292.5" font-family="FreeSans" font-size="10.00" fill="#000000">eicsmear/erhic/EventDis.h</text>
</a>
</g>
</g>
<!-- Node44&#45;&gt;Node45 -->
<g id="edge92" class="edge">
<title>Node44&#45;&gt;Node45</title>
<path fill="none" stroke="#191970" d="M2007.8211,-342.4408C1951.922,-332.6067 1866.8428,-317.639 1807.8456,-307.2599"/>
<polygon fill="#191970" stroke="#191970" points="1808.3343,-303.7922 1797.879,-305.5065 1807.1213,-310.6863 1808.3343,-303.7922"/>
</g>
<!-- Node45&#45;&gt;Node4 -->
<g id="edge94" class="edge">
<title>Node45&#45;&gt;Node4</title>
<path fill="none" stroke="#191970" d="M1771.9699,-285.4759C1812.6569,-270.1336 1879,-236.6597 1879,-181.5 1879,-181.5 1879,-181.5 1879,-124.5 1879,-91.6536 1879,-53.4837 1879,-30.697"/>
<polygon fill="#191970" stroke="#191970" points="1882.5001,-30.5648 1879,-20.5648 1875.5001,-30.5648 1882.5001,-30.5648"/>
</g>
<!-- Node45&#45;&gt;Node15 -->
<g id="edge95" class="edge">
<title>Node45&#45;&gt;Node15</title>
<path fill="none" stroke="#191970" d="M1739.0334,-285.3095C1737.61,-277.9335 1735.6389,-267.72 1733.9011,-258.715"/>
<polygon fill="#191970" stroke="#191970" points="1737.2811,-257.7578 1731.9496,-248.6022 1730.4079,-259.0843 1737.2811,-257.7578"/>
</g>
<!-- Node45&#45;&gt;Node23 -->
<g id="edge93" class="edge">
<title>Node45&#45;&gt;Node23</title>
<path fill="none" stroke="#191970" d="M1666.961,-290.1376C1501.6545,-278.1649 1107.7133,-249.633 988.6614,-241.0104"/>
<polygon fill="#191970" stroke="#191970" points="988.5573,-237.4938 978.3306,-240.2622 988.0516,-244.4755 988.5573,-237.4938"/>
</g>
<!-- Node46&#45;&gt;Node7 -->
<g id="edge100" class="edge">
<title>Node46&#45;&gt;Node7</title>
<path fill="none" stroke="#191970" d="M1450.449,-399.4539C1464.5309,-391.3072 1483.1069,-378.6295 1495,-363 1533.6121,-312.2574 1552.3199,-237.1904 1559.4342,-201.6109"/>
<polygon fill="#191970" stroke="#191970" points="1562.9218,-202.0047 1561.3472,-191.5276 1556.0445,-200.6999 1562.9218,-202.0047"/>
</g>
<!-- Node46&#45;&gt;Node14 -->
<g id="edge105" class="edge">
<title>Node46&#45;&gt;Node14</title>
<path fill="none" stroke="#191970" d="M1399.2982,-399.4425C1372.6981,-390.7002 1333.8872,-377.2326 1301,-363 1282.2106,-354.8685 1279.4214,-348.4784 1260,-342 1170.5866,-312.1742 1117.1824,-373.1136 1051,-306 1008.8699,-263.277 1029.5081,-227.394 1050,-171 1053.5885,-161.1245 1059.4778,-151.1157 1065.015,-142.9265"/>
<polygon fill="#191970" stroke="#191970" points="1068.025,-144.7336 1070.9757,-134.5579 1062.3234,-140.6725 1068.025,-144.7336"/>
</g>
<!-- Node46&#45;&gt;Node16 -->
<g id="edge101" class="edge">
<title>Node46&#45;&gt;Node16</title>
<path fill="none" stroke="#191970" d="M1516.5382,-399.7487C1519.3917,-399.4861 1522.2184,-399.2356 1525,-399 1594.0904,-393.1493 2094.5302,-407.144 2148,-363 2196.3686,-323.0674 2197.9567,-240.2212 2195.8052,-201.8369"/>
<polygon fill="#191970" stroke="#191970" points="2199.296,-201.5823 2195.1002,-191.8537 2192.3134,-202.0755 2199.296,-201.5823"/>
</g>
<!-- Node46&#45;&gt;Node23 -->
<g id="edge98" class="edge">
<title>Node46&#45;&gt;Node23</title>
<path fill="none" stroke="#191970" d="M1389.8466,-399.4958C1356.7744,-391.026 1309.3477,-377.9063 1269,-363 1247.9186,-355.2115 1244.5156,-348.4936 1223,-342 1125.6273,-312.6122 1082.034,-361.806 997,-306 979.6571,-294.6182 967.9178,-273.5544 961.1448,-257.9726"/>
<polygon fill="#191970" stroke="#191970" points="964.3851,-256.6495 957.402,-248.6816 957.8922,-259.2651 964.3851,-256.6495"/>
</g>
<!-- Node46&#45;&gt;Node33 -->
<g id="edge103" class="edge">
<title>Node46&#45;&gt;Node33</title>
<path fill="none" stroke="#191970" d="M1423.67,-399.3095C1418.0146,-391.4472 1410.0402,-380.3608 1403.2716,-370.9507"/>
<polygon fill="#191970" stroke="#191970" points="1405.9472,-368.6765 1397.2665,-362.6022 1400.2645,-372.7641 1405.9472,-368.6765"/>
</g>
<!-- Node46&#45;&gt;Node34 -->
<g id="edge99" class="edge">
<title>Node46&#45;&gt;Node34</title>
<path fill="none" stroke="#191970" d="M1446.2676,-399.2623C1457.2635,-390.9329 1471.2967,-378.1086 1478,-363 1484.6066,-348.1093 1484.9282,-329.5102 1483.8395,-315.6083"/>
<polygon fill="#191970" stroke="#191970" points="1487.3149,-315.1912 1482.7571,-305.6268 1480.3556,-315.9459 1487.3149,-315.1912"/>
</g>
<!-- Node46&#45;&gt;Node41 -->
<g id="edge104" class="edge">
<title>Node46&#45;&gt;Node41</title>
<path fill="none" stroke="#191970" d="M1372.7269,-399.4184C1332.315,-391.5913 1277.5979,-379.3195 1231,-363 1210.5493,-355.8377 1207.8317,-347.9642 1187,-342 1129.4046,-325.5102 972.5195,-310.8048 869.8164,-302.5349"/>
<polygon fill="#191970" stroke="#191970" points="869.9892,-299.0377 859.7423,-301.7304 869.4319,-306.0155 869.9892,-299.0377"/>
</g>
<!-- Node46&#45;&gt;Node45 -->
<g id="edge102" class="edge">
<title>Node46&#45;&gt;Node45</title>
<path fill="none" stroke="#191970" d="M1458.2387,-399.4832C1513.9151,-379.0086 1640.8112,-332.3436 1703.9285,-309.1328"/>
<polygon fill="#191970" stroke="#191970" points="1705.3126,-312.353 1713.4901,-305.6165 1702.8966,-305.7831 1705.3126,-312.353"/>
</g>
<!-- Node47&#45;&gt;Node4 -->
<g id="edge107" class="edge">
<title>Node47&#45;&gt;Node4</title>
<path fill="none" stroke="#191970" d="M2647,-513.1959C2647,-490.1128 2647,-446.5833 2647,-409.5 2647,-409.5 2647,-409.5 2647,-124.5 2647,-50.2166 2077.567,-19.3351 1919.3494,-12.1883"/>
<polygon fill="#191970" stroke="#191970" points="1919.2521,-8.6806 1909.1065,-11.733 1918.9412,-15.6737 1919.2521,-8.6806"/>
</g>
</g>
</svg>
