<?xml version="1.0" encoding="UTF-8" standalone="no"?>
<!DOCTYPE svg PUBLIC "-//W3C//DTD SVG 1.1//EN"
 "http://www.w3.org/Graphics/SVG/1.1/DTD/svg11.dtd">
<!-- Generated by graphviz version 2.40.1 (20161225.0304)
 -->
<!-- Title: RawTower::get_bineta Pages: 1 -->
<svg width="502pt" height="527pt"
 viewBox="0.00 0.00 502.00 527.00" xmlns="http://www.w3.org/2000/svg" xmlns:xlink="http://www.w3.org/1999/xlink">
<g id="graph0" class="graph" transform="scale(1 1) rotate(0) translate(4 523)">
<title>RawTower::get_bineta</title>
<!-- Node1 -->
<g id="node1" class="node">
<title>Node1</title>
<polygon fill="#bfbfbf" stroke="#000000" points="0,-237.5 0,-257.5 126,-257.5 126,-237.5 0,-237.5"/>
<text text-anchor="middle" x="63" y="-244.5" font-family="FreeSans" font-size="10.00" fill="#000000">RawTower::get_bineta</text>
</g>
<!-- Node2 -->
<g id="node2" class="node">
<title>Node2</title>
<g id="a_node2"><a xlink:href="../../dd/d59/classCaloEvaluator.html#a5298ee9646d361a4960fc0e20f83c880" target="_top" xlink:title="dump the evaluator information into ntuple for external analysis">
<polygon fill="none" stroke="#000000" points="173.5,-486.5 173.5,-518.5 314.5,-518.5 314.5,-486.5 173.5,-486.5"/>
<text text-anchor="start" x="181.5" y="-505.5" font-family="FreeSans" font-size="10.00" fill="#000000">CaloEvaluator::fillOutput</text>
<text text-anchor="middle" x="244" y="-493.5" font-family="FreeSans" font-size="10.00" fill="#000000">Ntuples</text>
</a>
</g>
</g>
<!-- Node1&#45;&gt;Node2 -->
<g id="edge1" class="edge">
<title>Node1&#45;&gt;Node2</title>
<path fill="none" stroke="#191970" d="M65.8816,-267.6294C73.3237,-312.1548 97.3404,-419.62 162,-477.5 165.7703,-480.875 169.9856,-483.7945 174.461,-486.3199"/>
<polygon fill="#191970" stroke="#191970" points="69.3017,-266.8461 64.299,-257.5068 62.3858,-267.9274 69.3017,-266.8461"/>
</g>
<!-- Node4 -->
<g id="node4" class="node">
<title>Node4</title>
<g id="a_node4"><a xlink:href="../../d5/d99/classRawClusterDeadAreaMask.html#a1cf054589efaa147cf82fe9f5d18c92a" target="_top" xlink:title="RawClusterDeadAreaMask\l::process_event">
<polygon fill="none" stroke="#000000" points="169.5,-435.5 169.5,-467.5 318.5,-467.5 318.5,-435.5 169.5,-435.5"/>
<text text-anchor="start" x="177.5" y="-454.5" font-family="FreeSans" font-size="10.00" fill="#000000">RawClusterDeadAreaMask</text>
<text text-anchor="middle" x="244" y="-442.5" font-family="FreeSans" font-size="10.00" fill="#000000">::process_event</text>
</a>
</g>
</g>
<!-- Node1&#45;&gt;Node4 -->
<g id="edge3" class="edge">
<title>Node1&#45;&gt;Node4</title>
<path fill="none" stroke="#191970" d="M68.5264,-267.3975C79.8066,-304.3199 109.0025,-383.5762 162,-426.5 166.1636,-429.8722 170.7777,-432.7903 175.6334,-435.3154"/>
<polygon fill="#191970" stroke="#191970" points="71.8775,-266.387 65.7039,-257.7766 65.1606,-268.3575 71.8775,-266.387"/>
</g>
<!-- Node5 -->
<g id="node5" class="node">
<title>Node5</title>
<g id="a_node5"><a xlink:href="../../df/d75/classRawClusterPositionCorrection.html#ad0cf55d8f80f6c102f54b15ab521d389" target="_top" xlink:title="RawClusterPositionCorrection\l::process_event">
<polygon fill="none" stroke="#000000" points="162,-384.5 162,-416.5 326,-416.5 326,-384.5 162,-384.5"/>
<text text-anchor="start" x="170" y="-403.5" font-family="FreeSans" font-size="10.00" fill="#000000">RawClusterPositionCorrection</text>
<text text-anchor="middle" x="244" y="-391.5" font-family="FreeSans" font-size="10.00" fill="#000000">::process_event</text>
</a>
</g>
</g>
<!-- Node1&#45;&gt;Node5 -->
<g id="edge4" class="edge">
<title>Node1&#45;&gt;Node5</title>
<path fill="none" stroke="#191970" d="M72.7891,-266.6778C88.0632,-294.7043 120.2003,-346.6451 162,-375.5 166.8993,-378.882 172.2695,-381.8175 177.8438,-384.3634"/>
<polygon fill="#191970" stroke="#191970" points="75.7124,-264.7193 67.9381,-257.5213 69.5268,-267.9964 75.7124,-264.7193"/>
</g>
<!-- Node6 -->
<g id="node6" class="node">
<title>Node6</title>
<g id="a_node6"><a xlink:href="../../d9/d2f/classG4RawTowerTTree.html#a8a589f57ed10e2f22f043c4f9cb6c1fa" target="_top" xlink:title="event processing method">
<polygon fill="none" stroke="#000000" points="167,-333.5 167,-365.5 321,-365.5 321,-333.5 167,-333.5"/>
<text text-anchor="start" x="175" y="-352.5" font-family="FreeSans" font-size="10.00" fill="#000000">G4RawTowerTTree::process</text>
<text text-anchor="middle" x="244" y="-340.5" font-family="FreeSans" font-size="10.00" fill="#000000">_event</text>
</a>
</g>
</g>
<!-- Node1&#45;&gt;Node6 -->
<g id="edge5" class="edge">
<title>Node1&#45;&gt;Node6</title>
<path fill="none" stroke="#191970" d="M80.8717,-264.7237C99.6879,-282.0152 130.8512,-308.3435 162,-324.5 168.4737,-327.8578 175.4733,-330.8461 182.5604,-333.4833"/>
<polygon fill="#191970" stroke="#191970" points="83.0627,-261.9805 73.3696,-257.7032 78.2797,-267.0916 83.0627,-261.9805"/>
</g>
<!-- Node7 -->
<g id="node7" class="node">
<title>Node7</title>
<g id="a_node7"><a xlink:href="../../d3/df2/classRawTowerCalibration.html#a8793120045407a5c250a4154e8b77bcc" target="_top" xlink:title="RawTowerCalibration\l::process_event">
<polygon fill="none" stroke="#000000" points="183.5,-282.5 183.5,-314.5 304.5,-314.5 304.5,-282.5 183.5,-282.5"/>
<text text-anchor="start" x="191.5" y="-301.5" font-family="FreeSans" font-size="10.00" fill="#000000">RawTowerCalibration</text>
<text text-anchor="middle" x="244" y="-289.5" font-family="FreeSans" font-size="10.00" fill="#000000">::process_event</text>
</a>
</g>
</g>
<!-- Node1&#45;&gt;Node7 -->
<g id="edge6" class="edge">
<title>Node1&#45;&gt;Node7</title>
<path fill="none" stroke="#191970" d="M108.5817,-260.3435C132.3564,-267.0424 161.6718,-275.3026 186.9401,-282.4223"/>
<polygon fill="#191970" stroke="#191970" points="109.3342,-256.9193 98.7598,-257.576 107.4357,-263.6569 109.3342,-256.9193"/>
</g>
<!-- Node8 -->
<g id="node8" class="node">
<title>Node8</title>
<g id="a_node8"><a xlink:href="../../da/dda/classSubtractTowersCS.html#ab15f45c558239c3cf38797472457e361" target="_top" xlink:title="SubtractTowersCS::process\l_event">
<polygon fill="none" stroke="#000000" points="167.5,-231.5 167.5,-263.5 320.5,-263.5 320.5,-231.5 167.5,-231.5"/>
<text text-anchor="start" x="175.5" y="-250.5" font-family="FreeSans" font-size="10.00" fill="#000000">SubtractTowersCS::process</text>
<text text-anchor="middle" x="244" y="-238.5" font-family="FreeSans" font-size="10.00" fill="#000000">_event</text>
</a>
</g>
</g>
<!-- Node1&#45;&gt;Node8 -->
<g id="edge7" class="edge">
<title>Node1&#45;&gt;Node8</title>
<path fill="none" stroke="#191970" d="M136.2195,-247.5C146.512,-247.5 157.1143,-247.5 167.4667,-247.5"/>
<polygon fill="#191970" stroke="#191970" points="136.051,-244.0001 126.0509,-247.5 136.0509,-251.0001 136.051,-244.0001"/>
</g>
<!-- Node9 -->
<g id="node9" class="node">
<title>Node9</title>
<g id="a_node9"><a xlink:href="../../d7/d13/classSubtractTowers.html#aedd08ed4cf426a16877bb266cbcc8189" target="_top" xlink:title="SubtractTowers::process\l_event">
<polygon fill="none" stroke="#000000" points="174.5,-180.5 174.5,-212.5 313.5,-212.5 313.5,-180.5 174.5,-180.5"/>
<text text-anchor="start" x="182.5" y="-199.5" font-family="FreeSans" font-size="10.00" fill="#000000">SubtractTowers::process</text>
<text text-anchor="middle" x="244" y="-187.5" font-family="FreeSans" font-size="10.00" fill="#000000">_event</text>
</a>
</g>
</g>
<!-- Node1&#45;&gt;Node9 -->
<g id="edge8" class="edge">
<title>Node1&#45;&gt;Node9</title>
<path fill="none" stroke="#191970" d="M108.5817,-234.6565C132.3564,-227.9576 161.6718,-219.6974 186.9401,-212.5777"/>
<polygon fill="#191970" stroke="#191970" points="107.4357,-231.3431 98.7598,-237.424 109.3342,-238.0807 107.4357,-231.3431"/>
</g>
<!-- Node10 -->
<g id="node10" class="node">
<title>Node10</title>
<g id="a_node10"><a xlink:href="../../df/d0d/classRawTowerCombiner.html#a5b3d03413a030f6f0082b8e3cafc3b04" target="_top" xlink:title="RawTowerCombiner::process\l_event">
<polygon fill="none" stroke="#000000" points="163.5,-129.5 163.5,-161.5 324.5,-161.5 324.5,-129.5 163.5,-129.5"/>
<text text-anchor="start" x="171.5" y="-148.5" font-family="FreeSans" font-size="10.00" fill="#000000">RawTowerCombiner::process</text>
<text text-anchor="middle" x="244" y="-136.5" font-family="FreeSans" font-size="10.00" fill="#000000">_event</text>
</a>
</g>
</g>
<!-- Node1&#45;&gt;Node10 -->
<g id="edge9" class="edge">
<title>Node1&#45;&gt;Node10</title>
<path fill="none" stroke="#191970" d="M80.9502,-230.5845C99.829,-213.5852 131.0417,-187.652 162,-171.5 169.15,-167.7696 176.9322,-164.4561 184.7617,-161.5496"/>
<polygon fill="#191970" stroke="#191970" points="78.4289,-228.1477 73.4201,-237.4837 83.1577,-233.3089 78.4289,-228.1477"/>
</g>
<!-- Node11 -->
<g id="node11" class="node">
<title>Node11</title>
<g id="a_node11"><a xlink:href="../../d1/d2e/classDumpRawTowerContainer.html#a9629228eaea3c76679c0134b3b635c9d" target="_top" xlink:title="DumpRawTowerContainer\l::process_Node">
<polygon fill="none" stroke="#000000" points="170.5,-78.5 170.5,-110.5 317.5,-110.5 317.5,-78.5 170.5,-78.5"/>
<text text-anchor="start" x="178.5" y="-97.5" font-family="FreeSans" font-size="10.00" fill="#000000">DumpRawTowerContainer</text>
<text text-anchor="middle" x="244" y="-85.5" font-family="FreeSans" font-size="10.00" fill="#000000">::process_Node</text>
</a>
</g>
</g>
<!-- Node1&#45;&gt;Node11 -->
<g id="edge10" class="edge">
<title>Node1&#45;&gt;Node11</title>
<path fill="none" stroke="#191970" d="M73.0977,-228.1218C88.5631,-200.2973 120.7141,-149.2239 162,-120.5 167.5167,-116.6618 173.6277,-113.3696 179.9536,-110.5501"/>
<polygon fill="#191970" stroke="#191970" points="69.8468,-226.7754 68.1688,-237.2365 76.0042,-230.1051 69.8468,-226.7754"/>
</g>
<!-- Node12 -->
<g id="node12" class="node">
<title>Node12</title>
<g id="a_node12"><a xlink:href="../../d9/dae/classtwrs.html#a1cb12217a0c4c14fa69dddcfb190d59a" target="_top" xlink:title="twrs::twrs">
<polygon fill="none" stroke="#000000" points="211,-39.5 211,-59.5 277,-59.5 277,-39.5 211,-39.5"/>
<text text-anchor="middle" x="244" y="-46.5" font-family="FreeSans" font-size="10.00" fill="#000000">twrs::twrs</text>
</a>
</g>
</g>
<!-- Node1&#45;&gt;Node12 -->
<g id="edge11" class="edge">
<title>Node1&#45;&gt;Node12</title>
<path fill="none" stroke="#191970" d="M68.3368,-227.4289C79.3007,-190.2377 107.9899,-110.6633 162,-69.5 175.8688,-58.93 194.5625,-53.8652 210.5987,-51.4714"/>
<polygon fill="#191970" stroke="#191970" points="64.9478,-226.5512 65.6008,-237.1259 71.6848,-228.4521 64.9478,-226.5512"/>
</g>
<!-- Node13 -->
<g id="node13" class="node">
<title>Node13</title>
<g id="a_node13"><a xlink:href="../../da/dc8/classtwrs__fwd.html#aed77e4a18124166541d25afc44784297" target="_top" xlink:title="twrs_fwd::twrs_fwd">
<polygon fill="none" stroke="#000000" points="188.5,-.5 188.5,-20.5 299.5,-20.5 299.5,-.5 188.5,-.5"/>
<text text-anchor="middle" x="244" y="-7.5" font-family="FreeSans" font-size="10.00" fill="#000000">twrs_fwd::twrs_fwd</text>
</a>
</g>
</g>
<!-- Node1&#45;&gt;Node13 -->
<g id="edge12" class="edge">
<title>Node1&#45;&gt;Node13</title>
<path fill="none" stroke="#191970" d="M66.1793,-227.3613C74.0784,-184.2756 98.7284,-82.8275 162,-30.5 169.5656,-24.243 178.7879,-19.8912 188.2814,-16.8759"/>
<polygon fill="#191970" stroke="#191970" points="62.6921,-226.9887 64.4474,-237.4371 69.5909,-228.1746 62.6921,-226.9887"/>
</g>
<!-- Node3 -->
<g id="node3" class="node">
<title>Node3</title>
<g id="a_node3"><a xlink:href="../../dd/d59/classCaloEvaluator.html#a936967e98c89ec58e7851b0661b838c0" target="_top" xlink:title="CaloEvaluator::process\l_event">
<polygon fill="none" stroke="#000000" points="362,-486.5 362,-518.5 494,-518.5 494,-486.5 362,-486.5"/>
<text text-anchor="start" x="370" y="-505.5" font-family="FreeSans" font-size="10.00" fill="#000000">CaloEvaluator::process</text>
<text text-anchor="middle" x="428" y="-493.5" font-family="FreeSans" font-size="10.00" fill="#000000">_event</text>
</a>
</g>
</g>
<!-- Node2&#45;&gt;Node3 -->
<g id="edge2" class="edge">
<title>Node2&#45;&gt;Node3</title>
<path fill="none" stroke="#191970" d="M324.892,-502.5C337.2284,-502.5 349.8351,-502.5 361.8074,-502.5"/>
<polygon fill="#191970" stroke="#191970" points="324.613,-499.0001 314.613,-502.5 324.6129,-506.0001 324.613,-499.0001"/>
</g>
</g>
</svg>
