<?xml version="1.0" encoding="UTF-8" standalone="no"?>
<!DOCTYPE svg PUBLIC "-//W3C//DTD SVG 1.1//EN"
 "http://www.w3.org/Graphics/SVG/1.1/DTD/svg11.dtd">
<!-- Generated by graphviz version 2.40.1 (20161225.0304)
 -->
<!-- Title: Smear::HandleBogusValues Pages: 1 -->
<svg width="315pt" height="398pt"
 viewBox="0.00 0.00 315.00 398.00" xmlns="http://www.w3.org/2000/svg" xmlns:xlink="http://www.w3.org/1999/xlink">
<g id="graph0" class="graph" transform="scale(1 1) rotate(0) translate(4 394)">
<title>Smear::HandleBogusValues</title>
<!-- Node1 -->
<g id="node1" class="node">
<title>Node1</title>
<polygon fill="#bfbfbf" stroke="#000000" points="0,-184.5 0,-204.5 156,-204.5 156,-184.5 0,-184.5"/>
<text text-anchor="middle" x="78" y="-191.5" font-family="FreeSans" font-size="10.00" fill="#000000">Smear::HandleBogusValues</text>
</g>
<!-- Node2 -->
<g id="node2" class="node">
<title>Node2</title>
<g id="a_node2"><a xlink:href="../../df/dba/classSmear_1_1ParticleMCS.html#a66cf73806e3361b3a4ef1c8e57d34db1" target="_top" xlink:title="Smear::ParticleMCS\l::GetE">
<polygon fill="none" stroke="#000000" points="192,-357.5 192,-389.5 307,-389.5 307,-357.5 192,-357.5"/>
<text text-anchor="start" x="200" y="-376.5" font-family="FreeSans" font-size="10.00" fill="#000000">Smear::ParticleMCS</text>
<text text-anchor="middle" x="249.5" y="-364.5" font-family="FreeSans" font-size="10.00" fill="#000000">::GetE</text>
</a>
</g>
</g>
<!-- Node1&#45;&gt;Node2 -->
<g id="edge1" class="edge">
<title>Node1&#45;&gt;Node2</title>
<path fill="none" stroke="#191970" d="M83.0074,-204.5556C96.8331,-231.4042 138.1068,-305.641 192,-348.5 193.5655,-349.745 195.2025,-350.94 196.8927,-352.0859"/>
<polygon fill="#191970" stroke="#191970" points="195.3329,-355.2327 205.7018,-357.4091 198.9532,-349.2416 195.3329,-355.2327"/>
</g>
<!-- Node3 -->
<g id="node3" class="node">
<title>Node3</title>
<g id="a_node3"><a xlink:href="../../df/dba/classSmear_1_1ParticleMCS.html#aff373c10e5f5783d7ea05767e95ee94e" target="_top" xlink:title="Smear::ParticleMCS\l::GetP">
<polygon fill="none" stroke="#000000" points="192,-306.5 192,-338.5 307,-338.5 307,-306.5 192,-306.5"/>
<text text-anchor="start" x="200" y="-325.5" font-family="FreeSans" font-size="10.00" fill="#000000">Smear::ParticleMCS</text>
<text text-anchor="middle" x="249.5" y="-313.5" font-family="FreeSans" font-size="10.00" fill="#000000">::GetP</text>
</a>
</g>
</g>
<!-- Node1&#45;&gt;Node3 -->
<g id="edge2" class="edge">
<title>Node1&#45;&gt;Node3</title>
<path fill="none" stroke="#191970" d="M87.1671,-204.7657C105.4631,-224.772 148.5028,-269.4697 192,-297.5 194.2804,-298.9695 196.6617,-300.3898 199.1027,-301.7566"/>
<polygon fill="#191970" stroke="#191970" points="197.6438,-304.9431 208.129,-306.4637 200.8806,-298.7364 197.6438,-304.9431"/>
</g>
<!-- Node4 -->
<g id="node4" class="node">
<title>Node4</title>
<g id="a_node4"><a xlink:href="../../df/dba/classSmear_1_1ParticleMCS.html#ad564dfa4389e11f2d7512a0c80e716dd" target="_top" xlink:title="Smear::ParticleMCS\l::GetPt">
<polygon fill="none" stroke="#000000" points="192,-255.5 192,-287.5 307,-287.5 307,-255.5 192,-255.5"/>
<text text-anchor="start" x="200" y="-274.5" font-family="FreeSans" font-size="10.00" fill="#000000">Smear::ParticleMCS</text>
<text text-anchor="middle" x="249.5" y="-262.5" font-family="FreeSans" font-size="10.00" fill="#000000">::GetPt</text>
</a>
</g>
</g>
<!-- Node1&#45;&gt;Node4 -->
<g id="edge3" class="edge">
<title>Node1&#45;&gt;Node4</title>
<path fill="none" stroke="#191970" d="M99.8024,-204.5845C122.7078,-215.1465 159.8085,-232.1613 192,-246.5 195.589,-248.0986 199.309,-249.7434 203.0517,-251.3896"/>
<polygon fill="#191970" stroke="#191970" points="201.776,-254.6518 212.3401,-255.4589 204.585,-248.2401 201.776,-254.6518"/>
</g>
<!-- Node5 -->
<g id="node5" class="node">
<title>Node5</title>
<g id="a_node5"><a xlink:href="../../df/dba/classSmear_1_1ParticleMCS.html#a92399b9d06b3bae847589dae6443cc82" target="_top" xlink:title="Smear::ParticleMCS\l::GetPz">
<polygon fill="none" stroke="#000000" points="192,-204.5 192,-236.5 307,-236.5 307,-204.5 192,-204.5"/>
<text text-anchor="start" x="200" y="-223.5" font-family="FreeSans" font-size="10.00" fill="#000000">Smear::ParticleMCS</text>
<text text-anchor="middle" x="249.5" y="-211.5" font-family="FreeSans" font-size="10.00" fill="#000000">::GetPz</text>
</a>
</g>
</g>
<!-- Node1&#45;&gt;Node5 -->
<g id="edge4" class="edge">
<title>Node1&#45;&gt;Node5</title>
<path fill="none" stroke="#191970" d="M144.3064,-204.5523C156.5305,-206.4055 169.311,-208.3431 181.5819,-210.2034"/>
<polygon fill="#191970" stroke="#191970" points="181.3344,-213.7058 191.7461,-211.7443 182.3837,-206.7849 181.3344,-213.7058"/>
</g>
<!-- Node6 -->
<g id="node6" class="node">
<title>Node6</title>
<g id="a_node6"><a xlink:href="../../df/dba/classSmear_1_1ParticleMCS.html#aba73bde6878ba42fa9d20000c46ac719" target="_top" xlink:title="Smear::ParticleMCS\l::SetE">
<polygon fill="none" stroke="#000000" points="192,-153.5 192,-185.5 307,-185.5 307,-153.5 192,-153.5"/>
<text text-anchor="start" x="200" y="-172.5" font-family="FreeSans" font-size="10.00" fill="#000000">Smear::ParticleMCS</text>
<text text-anchor="middle" x="249.5" y="-160.5" font-family="FreeSans" font-size="10.00" fill="#000000">::SetE</text>
</a>
</g>
</g>
<!-- Node1&#45;&gt;Node6 -->
<g id="edge5" class="edge">
<title>Node1&#45;&gt;Node6</title>
<path fill="none" stroke="#191970" d="M146.7674,-184.4756C158.2995,-182.7945 170.2585,-181.0512 181.7643,-179.374"/>
<polygon fill="#191970" stroke="#191970" points="182.3462,-182.8263 191.7368,-177.9203 181.3364,-175.8995 182.3462,-182.8263"/>
</g>
<!-- Node7 -->
<g id="node7" class="node">
<title>Node7</title>
<g id="a_node7"><a xlink:href="../../df/dba/classSmear_1_1ParticleMCS.html#a5a0161995c56fb51136ee4310fe2b51d" target="_top" xlink:title="Smear::ParticleMCS\l::SetP">
<polygon fill="none" stroke="#000000" points="192,-102.5 192,-134.5 307,-134.5 307,-102.5 192,-102.5"/>
<text text-anchor="start" x="200" y="-121.5" font-family="FreeSans" font-size="10.00" fill="#000000">Smear::ParticleMCS</text>
<text text-anchor="middle" x="249.5" y="-109.5" font-family="FreeSans" font-size="10.00" fill="#000000">::SetP</text>
</a>
</g>
</g>
<!-- Node1&#45;&gt;Node7 -->
<g id="edge6" class="edge">
<title>Node1&#45;&gt;Node7</title>
<path fill="none" stroke="#191970" d="M100.7739,-184.4078C126.8967,-172.8315 170.3979,-153.554 203.6241,-138.8299"/>
<polygon fill="#191970" stroke="#191970" points="205.4122,-141.8658 213.1366,-134.6144 202.5761,-135.466 205.4122,-141.8658"/>
</g>
<!-- Node8 -->
<g id="node8" class="node">
<title>Node8</title>
<g id="a_node8"><a xlink:href="../../df/dba/classSmear_1_1ParticleMCS.html#a8e685e867f05c17ea6e260bbfdc43bc3" target="_top" xlink:title="Smear::ParticleMCS\l::SetPt">
<polygon fill="none" stroke="#000000" points="192,-51.5 192,-83.5 307,-83.5 307,-51.5 192,-51.5"/>
<text text-anchor="start" x="200" y="-70.5" font-family="FreeSans" font-size="10.00" fill="#000000">Smear::ParticleMCS</text>
<text text-anchor="middle" x="249.5" y="-58.5" font-family="FreeSans" font-size="10.00" fill="#000000">::SetPt</text>
</a>
</g>
</g>
<!-- Node1&#45;&gt;Node8 -->
<g id="edge7" class="edge">
<title>Node1&#45;&gt;Node8</title>
<path fill="none" stroke="#191970" d="M87.5323,-184.2014C106.1244,-164.5623 149.1689,-121.2464 192,-93.5 194.7585,-91.713 197.6601,-89.9878 200.6334,-88.3344"/>
<polygon fill="#191970" stroke="#191970" points="202.454,-91.3322 209.697,-83.5999 199.2129,-85.1278 202.454,-91.3322"/>
</g>
<!-- Node9 -->
<g id="node9" class="node">
<title>Node9</title>
<g id="a_node9"><a xlink:href="../../df/dba/classSmear_1_1ParticleMCS.html#a6e7820d131b765ba1339058813d5b62a" target="_top" xlink:title="Smear::ParticleMCS\l::SetPz">
<polygon fill="none" stroke="#000000" points="192,-.5 192,-32.5 307,-32.5 307,-.5 192,-.5"/>
<text text-anchor="start" x="200" y="-19.5" font-family="FreeSans" font-size="10.00" fill="#000000">Smear::ParticleMCS</text>
<text text-anchor="middle" x="249.5" y="-7.5" font-family="FreeSans" font-size="10.00" fill="#000000">::SetPz</text>
</a>
</g>
</g>
<!-- Node1&#45;&gt;Node9 -->
<g id="edge8" class="edge">
<title>Node1&#45;&gt;Node9</title>
<path fill="none" stroke="#191970" d="M83.2812,-184.2354C97.476,-157.5306 138.9914,-85.0145 192,-42.5 194.0191,-40.8806 196.1553,-39.3387 198.3697,-37.8737"/>
<polygon fill="#191970" stroke="#191970" points="200.4165,-40.7284 207.2164,-32.6036 196.834,-34.7146 200.4165,-40.7284"/>
</g>
</g>
</svg>
