<?xml version="1.0" encoding="UTF-8" standalone="no"?>
<!DOCTYPE svg PUBLIC "-//W3C//DTD SVG 1.1//EN"
 "http://www.w3.org/Graphics/SVG/1.1/DTD/svg11.dtd">
<!-- Generated by graphviz version 2.40.1 (20161225.0304)
 -->
<!-- Title: fun4all_coresoftware/blob/master/simulation/g4simulation/g4jets/ClusterJetInput.h Pages: 1 -->
<svg width="1086pt" height="239pt"
 viewBox="0.00 0.00 1086.00 239.00" xmlns="http://www.w3.org/2000/svg" xmlns:xlink="http://www.w3.org/1999/xlink">
<g id="graph0" class="graph" transform="scale(1 1) rotate(0) translate(4 235)">
<title>fun4all_coresoftware/blob/master/simulation/g4simulation/g4jets/ClusterJetInput.h</title>
<!-- Node1 -->
<g id="node1" class="node">
<title>Node1</title>
<polygon fill="#bfbfbf" stroke="#000000" points="374.5,-174.5 374.5,-230.5 548.5,-230.5 548.5,-174.5 374.5,-174.5"/>
<text text-anchor="start" x="382.5" y="-217.5" font-family="FreeSans" font-size="10.00" fill="#000000">fun4all_coresoftware</text>
<text text-anchor="start" x="382.5" y="-205.5" font-family="FreeSans" font-size="10.00" fill="#000000">/blob/master/simulation</text>
<text text-anchor="start" x="382.5" y="-193.5" font-family="FreeSans" font-size="10.00" fill="#000000">/g4simulation/g4jets/ClusterJet</text>
<text text-anchor="middle" x="461.5" y="-181.5" font-family="FreeSans" font-size="10.00" fill="#000000">Input.h</text>
</g>
<!-- Node2 -->
<g id="node2" class="node">
<title>Node2</title>
<g id="a_node2"><a xlink:href="../../d3/d8a/ClusterJetInput_8cc.html" target="_top" xlink:title="fun4all_coresoftware\l/blob/master/simulation\l/g4simulation/g4jets/ClusterJet\lInput.cc">
<polygon fill="none" stroke="#000000" points="279.5,-81.5 279.5,-137.5 453.5,-137.5 453.5,-81.5 279.5,-81.5"/>
<text text-anchor="start" x="287.5" y="-124.5" font-family="FreeSans" font-size="10.00" fill="#000000">fun4all_coresoftware</text>
<text text-anchor="start" x="287.5" y="-112.5" font-family="FreeSans" font-size="10.00" fill="#000000">/blob/master/simulation</text>
<text text-anchor="start" x="287.5" y="-100.5" font-family="FreeSans" font-size="10.00" fill="#000000">/g4simulation/g4jets/ClusterJet</text>
<text text-anchor="middle" x="366.5" y="-88.5" font-family="FreeSans" font-size="10.00" fill="#000000">Input.cc</text>
</a>
</g>
</g>
<!-- Node1&#45;&gt;Node2 -->
<g id="edge1" class="edge">
<title>Node1&#45;&gt;Node2</title>
<path fill="none" stroke="#191970" d="M425.5772,-167.3335C415.5244,-157.4923 404.7349,-146.93 395.1632,-137.5597"/>
<polygon fill="#191970" stroke="#191970" points="423.1447,-169.8501 432.7391,-174.3446 428.0416,-164.848 423.1447,-169.8501"/>
</g>
<!-- Node3 -->
<g id="node3" class="node">
<title>Node3</title>
<g id="a_node3"><a xlink:href="../../d5/d1a/G4__Jets_8C.html" target="_top" xlink:title="fun4all_macros/blob\l/master/macros/g4simulations\l/G4_Jets.C">
<polygon fill="none" stroke="#000000" points="472,-87.5 472,-131.5 643,-131.5 643,-87.5 472,-87.5"/>
<text text-anchor="start" x="480" y="-118.5" font-family="FreeSans" font-size="10.00" fill="#000000">fun4all_macros/blob</text>
<text text-anchor="start" x="480" y="-106.5" font-family="FreeSans" font-size="10.00" fill="#000000">/master/macros/g4simulations</text>
<text text-anchor="middle" x="557.5" y="-94.5" font-family="FreeSans" font-size="10.00" fill="#000000">/G4_Jets.C</text>
</a>
</g>
</g>
<!-- Node1&#45;&gt;Node3 -->
<g id="edge2" class="edge">
<title>Node1&#45;&gt;Node3</title>
<path fill="none" stroke="#191970" d="M498.0481,-167.0941C510.3393,-155.1869 523.6945,-142.2491 534.6276,-131.6577"/>
<polygon fill="#191970" stroke="#191970" points="495.3108,-164.8727 490.5637,-174.3446 500.1814,-169.9004 495.3108,-164.8727"/>
</g>
<!-- Node4 -->
<g id="node4" class="node">
<title>Node4</title>
<g id="a_node4"><a xlink:href="../../da/d02/Fun4All__G4__EICDetector_8C.html" target="_top" xlink:title="fun4all_macros/blob\l/master/macros/g4simulations\l/Fun4All_G4_EICDetector.C">
<polygon fill="none" stroke="#000000" points="0,-.5 0,-44.5 171,-44.5 171,-.5 0,-.5"/>
<text text-anchor="start" x="8" y="-31.5" font-family="FreeSans" font-size="10.00" fill="#000000">fun4all_macros/blob</text>
<text text-anchor="start" x="8" y="-19.5" font-family="FreeSans" font-size="10.00" fill="#000000">/master/macros/g4simulations</text>
<text text-anchor="middle" x="85.5" y="-7.5" font-family="FreeSans" font-size="10.00" fill="#000000">/Fun4All_G4_EICDetector.C</text>
</a>
</g>
</g>
<!-- Node3&#45;&gt;Node4 -->
<g id="edge3" class="edge">
<title>Node3&#45;&gt;Node4</title>
<path fill="none" stroke="#191970" d="M478.8978,-84.834C473.3742,-83.4358 467.8692,-82.1388 462.5,-81 338.4676,-54.694 304.2262,-67.7911 179.5,-45 176.7763,-44.5023 174.0133,-43.9753 171.2272,-43.4248"/>
<polygon fill="#191970" stroke="#191970" points="478.2739,-88.2889 488.8353,-87.4477 480.0545,-81.5191 478.2739,-88.2889"/>
</g>
<!-- Node5 -->
<g id="node5" class="node">
<title>Node5</title>
<g id="a_node5"><a xlink:href="../../d7/d9e/Fun4All__G4__fsPHENIX_8C.html" target="_top" xlink:title="fun4all_macros/blob\l/master/macros/g4simulations\l/Fun4All_G4_fsPHENIX.C">
<polygon fill="none" stroke="#000000" points="189,-.5 189,-44.5 360,-44.5 360,-.5 189,-.5"/>
<text text-anchor="start" x="197" y="-31.5" font-family="FreeSans" font-size="10.00" fill="#000000">fun4all_macros/blob</text>
<text text-anchor="start" x="197" y="-19.5" font-family="FreeSans" font-size="10.00" fill="#000000">/master/macros/g4simulations</text>
<text text-anchor="middle" x="274.5" y="-7.5" font-family="FreeSans" font-size="10.00" fill="#000000">/Fun4All_G4_fsPHENIX.C</text>
</a>
</g>
</g>
<!-- Node3&#45;&gt;Node5 -->
<g id="edge4" class="edge">
<title>Node3&#45;&gt;Node5</title>
<path fill="none" stroke="#191970" d="M476.0274,-84.4536C435.0205,-71.8473 385.7572,-56.7027 346.2022,-44.5427"/>
<polygon fill="#191970" stroke="#191970" points="475.1343,-87.8407 485.7213,-87.4338 477.1913,-81.1497 475.1343,-87.8407"/>
</g>
<!-- Node6 -->
<g id="node6" class="node">
<title>Node6</title>
<g id="a_node6"><a xlink:href="../../d0/d13/Fun4All__G4__sPHENIX_8C.html" target="_top" xlink:title="fun4all_macros/blob\l/master/macros/g4simulations\l/Fun4All_G4_sPHENIX.C">
<polygon fill="none" stroke="#000000" points="378,-.5 378,-44.5 549,-44.5 549,-.5 378,-.5"/>
<text text-anchor="start" x="386" y="-31.5" font-family="FreeSans" font-size="10.00" fill="#000000">fun4all_macros/blob</text>
<text text-anchor="start" x="386" y="-19.5" font-family="FreeSans" font-size="10.00" fill="#000000">/master/macros/g4simulations</text>
<text text-anchor="middle" x="463.5" y="-7.5" font-family="FreeSans" font-size="10.00" fill="#000000">/Fun4All_G4_sPHENIX.C</text>
</a>
</g>
</g>
<!-- Node3&#45;&gt;Node6 -->
<g id="edge5" class="edge">
<title>Node3&#45;&gt;Node6</title>
<path fill="none" stroke="#191970" d="M525.7153,-80.0822C513.148,-68.4508 498.9539,-55.3137 487.2999,-44.5276"/>
<polygon fill="#191970" stroke="#191970" points="523.5762,-82.8715 533.2927,-87.0953 528.331,-77.7341 523.5762,-82.8715"/>
</g>
<!-- Node7 -->
<g id="node7" class="node">
<title>Node7</title>
<g id="a_node7"><a xlink:href="../../de/da9/ReadClustersRunTracking_8C.html" target="_top" xlink:title="fun4all_macros/blob\l/master/macros/g4simulations\l/ReadClustersRunTracking.C">
<polygon fill="none" stroke="#000000" points="567,-.5 567,-44.5 738,-44.5 738,-.5 567,-.5"/>
<text text-anchor="start" x="575" y="-31.5" font-family="FreeSans" font-size="10.00" fill="#000000">fun4all_macros/blob</text>
<text text-anchor="start" x="575" y="-19.5" font-family="FreeSans" font-size="10.00" fill="#000000">/master/macros/g4simulations</text>
<text text-anchor="middle" x="652.5" y="-7.5" font-family="FreeSans" font-size="10.00" fill="#000000">/ReadClustersRunTracking.C</text>
</a>
</g>
</g>
<!-- Node3&#45;&gt;Node7 -->
<g id="edge6" class="edge">
<title>Node3&#45;&gt;Node7</title>
<path fill="none" stroke="#191970" d="M589.6229,-80.0822C602.3238,-68.4508 616.669,-55.3137 628.4469,-44.5276"/>
<polygon fill="#191970" stroke="#191970" points="586.9758,-77.7604 581.9649,-87.0953 591.7035,-82.9228 586.9758,-77.7604"/>
</g>
<!-- Node8 -->
<g id="node8" class="node">
<title>Node8</title>
<g id="a_node8"><a xlink:href="../../db/dc0/Fun4All__AnaTutorial_8C.html" target="_top" xlink:title="fun4all_tutorials/blob\l/master/AnaTutorial/macro\l/Fun4All_AnaTutorial.C">
<polygon fill="none" stroke="#000000" points="756,-.5 756,-44.5 907,-44.5 907,-.5 756,-.5"/>
<text text-anchor="start" x="764" y="-31.5" font-family="FreeSans" font-size="10.00" fill="#000000">fun4all_tutorials/blob</text>
<text text-anchor="start" x="764" y="-19.5" font-family="FreeSans" font-size="10.00" fill="#000000">/master/AnaTutorial/macro</text>
<text text-anchor="middle" x="831.5" y="-7.5" font-family="FreeSans" font-size="10.00" fill="#000000">/Fun4All_AnaTutorial.C</text>
</a>
</g>
</g>
<!-- Node3&#45;&gt;Node8 -->
<g id="edge7" class="edge">
<title>Node3&#45;&gt;Node8</title>
<path fill="none" stroke="#191970" d="M636.633,-84.3738C676.2856,-71.7834 723.8618,-56.6771 762.0781,-44.5427"/>
<polygon fill="#191970" stroke="#191970" points="635.4678,-81.0715 626.996,-87.4338 637.5863,-87.7433 635.4678,-81.0715"/>
</g>
<!-- Node9 -->
<g id="node9" class="node">
<title>Node9</title>
<g id="a_node9"><a xlink:href="../../dd/d28/Fun4All__AnaTutorial__Jets_8C.html" target="_top" xlink:title="fun4all_tutorials/blob\l/master/AnaTutorial/macro\l/Fun4All_AnaTutorial_Jets.C">
<polygon fill="none" stroke="#000000" points="925,-.5 925,-44.5 1078,-44.5 1078,-.5 925,-.5"/>
<text text-anchor="start" x="933" y="-31.5" font-family="FreeSans" font-size="10.00" fill="#000000">fun4all_tutorials/blob</text>
<text text-anchor="start" x="933" y="-19.5" font-family="FreeSans" font-size="10.00" fill="#000000">/master/AnaTutorial/macro</text>
<text text-anchor="middle" x="1001.5" y="-7.5" font-family="FreeSans" font-size="10.00" fill="#000000">/Fun4All_AnaTutorial_Jets.C</text>
</a>
</g>
</g>
<!-- Node3&#45;&gt;Node9 -->
<g id="edge8" class="edge">
<title>Node3&#45;&gt;Node9</title>
<path fill="none" stroke="#191970" d="M653.1568,-94.4795C725.7253,-82.5612 827.7853,-64.6772 916.5,-45 919.1825,-44.405 921.9081,-43.7824 924.6573,-43.1391"/>
<polygon fill="#191970" stroke="#191970" points="652.4214,-91.0532 643.1173,-96.1212 653.5511,-97.9615 652.4214,-91.0532"/>
</g>
</g>
</svg>
