<?xml version="1.0" encoding="UTF-8" standalone="no"?>
<!DOCTYPE svg PUBLIC "-//W3C//DTD SVG 1.1//EN"
 "http://www.w3.org/Graphics/SVG/1.1/DTD/svg11.dtd">
<!-- Generated by graphviz version 2.40.1 (20161225.0304)
 -->
<!-- Title: FWE::VertexFitAlgorithm::execute Pages: 1 -->
<svg width="533pt" height="310pt"
 viewBox="0.00 0.00 533.00 310.00" xmlns="http://www.w3.org/2000/svg" xmlns:xlink="http://www.w3.org/1999/xlink">
<g id="graph0" class="graph" transform="scale(1 1) rotate(0) translate(4 306)">
<title>FWE::VertexFitAlgorithm::execute</title>
<!-- Node1 -->
<g id="node1" class="node">
<title>Node1</title>
<polygon fill="#bfbfbf" stroke="#000000" points="0,-78.5 0,-110.5 139,-110.5 139,-78.5 0,-78.5"/>
<text text-anchor="start" x="8" y="-97.5" font-family="FreeSans" font-size="10.00" fill="#000000">FWE::VertexFitAlgorithm</text>
<text text-anchor="middle" x="69.5" y="-85.5" font-family="FreeSans" font-size="10.00" fill="#000000">::execute</text>
</g>
<!-- Node2 -->
<g id="node2" class="node">
<title>Node2</title>
<g id="a_node2"><a xlink:href="../../d7/d91/g3Config_8C.html#aa58262e3cde23ab66e49f3acde7bec14" target="_top" xlink:title="Config">
<polygon fill="none" stroke="#000000" points="229,-203.5 229,-223.5 277,-223.5 277,-203.5 229,-203.5"/>
<text text-anchor="middle" x="253" y="-210.5" font-family="FreeSans" font-size="10.00" fill="#000000">Config</text>
</a>
</g>
</g>
<!-- Node1&#45;&gt;Node2 -->
<g id="edge1" class="edge">
<title>Node1&#45;&gt;Node2</title>
<path fill="none" stroke="#191970" d="M94.2476,-110.5489C129.4502,-133.3778 193.5873,-174.9708 228.5989,-197.6758"/>
<polygon fill="#191970" stroke="#191970" points="226.9512,-200.7788 237.2458,-203.2834 230.76,-194.9057 226.9512,-200.7788"/>
</g>
<!-- Node7 -->
<g id="node7" class="node">
<title>Node7</title>
<g id="a_node7"><a xlink:href="../../db/d77/classFW_1_1WhiteBoard.html#a4d1ec4604d2f3530a5bcafc9b40a045e" target="_top" xlink:title="FW::WhiteBoard::get">
<polygon fill="none" stroke="#000000" points="192.5,-123.5 192.5,-143.5 313.5,-143.5 313.5,-123.5 192.5,-123.5"/>
<text text-anchor="middle" x="253" y="-130.5" font-family="FreeSans" font-size="10.00" fill="#000000">FW::WhiteBoard::get</text>
</a>
</g>
</g>
<!-- Node1&#45;&gt;Node7 -->
<g id="edge6" class="edge">
<title>Node1&#45;&gt;Node7</title>
<path fill="none" stroke="#191970" d="M139.1351,-109.2998C157.8682,-113.2812 177.9092,-117.5406 195.8745,-121.3589"/>
<polygon fill="#191970" stroke="#191970" points="195.3933,-124.8347 205.9025,-123.4902 196.8486,-117.9877 195.3933,-124.8347"/>
</g>
<!-- Node9 -->
<g id="node9" class="node">
<title>Node9</title>
<g id="a_node9"><a xlink:href="../../df/d7d/classActs_1_1Vertex.html#a3d9112fab635eb905a2f09095a140ba9" target="_top" xlink:title="Acts::Vertex::position">
<polygon fill="none" stroke="#000000" points="191,-84.5 191,-104.5 315,-104.5 315,-84.5 191,-84.5"/>
<text text-anchor="middle" x="253" y="-91.5" font-family="FreeSans" font-size="10.00" fill="#000000">Acts::Vertex::position</text>
</a>
</g>
</g>
<!-- Node1&#45;&gt;Node9 -->
<g id="edge8" class="edge">
<title>Node1&#45;&gt;Node9</title>
<path fill="none" stroke="#191970" d="M139.1351,-94.5C152.7085,-94.5 166.9685,-94.5 180.628,-94.5"/>
<polygon fill="#191970" stroke="#191970" points="180.9353,-98.0001 190.9352,-94.5 180.9352,-91.0001 180.9353,-98.0001"/>
</g>
<!-- Node11 -->
<g id="node11" class="node">
<title>Node11</title>
<g id="a_node11"><a xlink:href="../../df/d7d/classActs_1_1Vertex.html#aafb8652e7bdd6ebac29642eff2e73d9f" target="_top" xlink:title="Sets 3x3 covariance.">
<polygon fill="none" stroke="#000000" points="175,-45.5 175,-65.5 331,-65.5 331,-45.5 175,-45.5"/>
<text text-anchor="middle" x="253" y="-52.5" font-family="FreeSans" font-size="10.00" fill="#000000">Acts::Vertex::setCovariance</text>
</a>
</g>
</g>
<!-- Node1&#45;&gt;Node11 -->
<g id="edge10" class="edge">
<title>Node1&#45;&gt;Node11</title>
<path fill="none" stroke="#191970" d="M139.1351,-79.7002C157.8682,-75.7188 177.9092,-71.4594 195.8745,-67.6411"/>
<polygon fill="#191970" stroke="#191970" points="196.8486,-71.0123 205.9025,-65.5098 195.3933,-64.1653 196.8486,-71.0123"/>
</g>
<!-- Node12 -->
<g id="node12" class="node">
<title>Node12</title>
<g id="a_node12"><a xlink:href="../../df/d7d/classActs_1_1Vertex.html#a05834eca957dd17b9c52c99fa2af8618" target="_top" xlink:title="Set position and time.">
<polygon fill="none" stroke="#000000" points="183.5,-6.5 183.5,-26.5 322.5,-26.5 322.5,-6.5 183.5,-6.5"/>
<text text-anchor="middle" x="253" y="-13.5" font-family="FreeSans" font-size="10.00" fill="#000000">Acts::Vertex::setPosition</text>
</a>
</g>
</g>
<!-- Node1&#45;&gt;Node12 -->
<g id="edge11" class="edge">
<title>Node1&#45;&gt;Node12</title>
<path fill="none" stroke="#191970" d="M94.6294,-78.3194C115.4696,-65.4897 146.2364,-47.883 175,-36.5 181.7025,-33.8475 188.8694,-31.4522 196.0417,-29.318"/>
<polygon fill="#191970" stroke="#191970" points="197.1082,-32.6538 205.7822,-26.57 195.2076,-25.9167 197.1082,-32.6538"/>
</g>
<!-- Node3 -->
<g id="node3" class="node">
<title>Node3</title>
<g id="a_node3"><a xlink:href="../../dd/dbc/classFairRunSim.html#a5ec15ff0cc249b3a195299b6d3acb2a8" target="_top" xlink:title="FairRunSim::GetGeoModel">
<polygon fill="none" stroke="#000000" points="372,-281.5 372,-301.5 520,-301.5 520,-281.5 372,-281.5"/>
<text text-anchor="middle" x="446" y="-288.5" font-family="FreeSans" font-size="10.00" fill="#000000">FairRunSim::GetGeoModel</text>
</a>
</g>
</g>
<!-- Node2&#45;&gt;Node3 -->
<g id="edge2" class="edge">
<title>Node2&#45;&gt;Node3</title>
<path fill="none" stroke="#191970" d="M269.4126,-223.6135C291.0583,-236.567 330.666,-258.9562 367,-272.5 373.2166,-274.8173 379.8153,-276.9244 386.446,-278.8203"/>
<polygon fill="#191970" stroke="#191970" points="385.5756,-282.2106 396.1429,-281.4469 387.4058,-275.4541 385.5756,-282.2106"/>
</g>
<!-- Node4 -->
<g id="node4" class="node">
<title>Node4</title>
<g id="a_node4"><a xlink:href="../../dd/dbc/classFairRunSim.html#a733dc616669bd5e542b5c05f6470c744" target="_top" xlink:title="FairRunSim::Instance">
<polygon fill="none" stroke="#000000" points="385,-242.5 385,-262.5 507,-262.5 507,-242.5 385,-242.5"/>
<text text-anchor="middle" x="446" y="-249.5" font-family="FreeSans" font-size="10.00" fill="#000000">FairRunSim::Instance</text>
</a>
</g>
</g>
<!-- Node2&#45;&gt;Node4 -->
<g id="edge3" class="edge">
<title>Node2&#45;&gt;Node4</title>
<path fill="none" stroke="#191970" d="M277.0534,-218.3605C304.2087,-223.8479 349.4011,-232.98 386.2152,-240.4191"/>
<polygon fill="#191970" stroke="#191970" points="385.8594,-243.9179 396.3545,-242.468 387.2459,-237.0566 385.8594,-243.9179"/>
</g>
<!-- Node5 -->
<g id="node5" class="node">
<title>Node5</title>
<g id="a_node5"><a xlink:href="../../d5/dd2/classPndStack.html#af5a638783c0920ca02d1a6ce97772a3a" target="_top" xlink:title="PndStack::SetMinPoints">
<polygon fill="none" stroke="#000000" points="379,-203.5 379,-223.5 513,-223.5 513,-203.5 379,-203.5"/>
<text text-anchor="middle" x="446" y="-210.5" font-family="FreeSans" font-size="10.00" fill="#000000">PndStack::SetMinPoints</text>
</a>
</g>
</g>
<!-- Node2&#45;&gt;Node5 -->
<g id="edge4" class="edge">
<title>Node2&#45;&gt;Node5</title>
<path fill="none" stroke="#191970" d="M277.0534,-213.5C300.0388,-213.5 335.9473,-213.5 368.7591,-213.5"/>
<polygon fill="#191970" stroke="#191970" points="368.825,-217.0001 378.825,-213.5 368.8249,-210.0001 368.825,-217.0001"/>
</g>
<!-- Node6 -->
<g id="node6" class="node">
<title>Node6</title>
<g id="a_node6"><a xlink:href="../../d5/dd2/classPndStack.html#aced4053f774b41193f74566acdc8d462" target="_top" xlink:title="PndStack::StoreSecondaries">
<polygon fill="none" stroke="#000000" points="367,-164.5 367,-184.5 525,-184.5 525,-164.5 367,-164.5"/>
<text text-anchor="middle" x="446" y="-171.5" font-family="FreeSans" font-size="10.00" fill="#000000">PndStack::StoreSecondaries</text>
</a>
</g>
</g>
<!-- Node2&#45;&gt;Node6 -->
<g id="edge5" class="edge">
<title>Node2&#45;&gt;Node6</title>
<path fill="none" stroke="#191970" d="M277.0534,-208.6395C304.2087,-203.1521 349.4011,-194.02 386.2152,-186.5809"/>
<polygon fill="#191970" stroke="#191970" points="387.2459,-189.9434 396.3545,-184.532 385.8594,-183.0821 387.2459,-189.9434"/>
</g>
<!-- Node8 -->
<g id="node8" class="node">
<title>Node8</title>
<g id="a_node8"><a xlink:href="../../d8/d86/structFW_1_1WhiteBoard_1_1IHolder.html#a0f84605eb4db2398e70d2fcbc545ca8a" target="_top" xlink:title="FW::WhiteBoard::IHolder\l::type">
<polygon fill="none" stroke="#000000" points="375.5,-113.5 375.5,-145.5 516.5,-145.5 516.5,-113.5 375.5,-113.5"/>
<text text-anchor="start" x="383.5" y="-132.5" font-family="FreeSans" font-size="10.00" fill="#000000">FW::WhiteBoard::IHolder</text>
<text text-anchor="middle" x="446" y="-120.5" font-family="FreeSans" font-size="10.00" fill="#000000">::type</text>
</a>
</g>
</g>
<!-- Node7&#45;&gt;Node8 -->
<g id="edge7" class="edge">
<title>Node7&#45;&gt;Node8</title>
<path fill="none" stroke="#191970" d="M313.5369,-132.2453C329.8937,-131.9063 347.8591,-131.534 365.1374,-131.1759"/>
<polygon fill="#191970" stroke="#191970" points="365.2885,-134.6736 375.2138,-130.9671 365.1434,-127.6751 365.2885,-134.6736"/>
</g>
<!-- Node10 -->
<g id="node10" class="node">
<title>Node10</title>
<g id="a_node10"><a xlink:href="../../df/da1/namespaceActs_1_1VectorHelpers.html#ac6f67f5c5ed3c1e890b77d8dac5e4a38" target="_top" xlink:title="Access to the position components of input parameter.">
<polygon fill="none" stroke="#000000" points="388,-58.5 388,-90.5 504,-90.5 504,-58.5 388,-58.5"/>
<text text-anchor="start" x="396" y="-77.5" font-family="FreeSans" font-size="10.00" fill="#000000">Acts::VectorHelpers</text>
<text text-anchor="middle" x="446" y="-65.5" font-family="FreeSans" font-size="10.00" fill="#000000">::position</text>
</a>
</g>
</g>
<!-- Node9&#45;&gt;Node10 -->
<g id="edge9" class="edge">
<title>Node9&#45;&gt;Node10</title>
<path fill="none" stroke="#191970" d="M315.1288,-88.0618C335.1137,-85.9908 357.3611,-83.6854 377.7605,-81.5714"/>
<polygon fill="#191970" stroke="#191970" points="378.336,-85.0307 387.9219,-80.5185 377.6144,-78.0679 378.336,-85.0307"/>
</g>
<!-- Node12&#45;&gt;Node10 -->
<g id="edge12" class="edge">
<title>Node12&#45;&gt;Node10</title>
<path fill="none" stroke="#191970" d="M294.4333,-26.565C306.2883,-29.5959 319.1943,-33.0403 331,-36.5 350.417,-42.1902 371.4852,-48.9717 390.2198,-55.2201"/>
<polygon fill="#191970" stroke="#191970" points="389.189,-58.566 399.783,-58.4304 391.4168,-51.9299 389.189,-58.566"/>
</g>
<!-- Node13 -->
<g id="node13" class="node">
<title>Node13</title>
<g id="a_node13"><a xlink:href="../../df/da1/namespaceActs_1_1VectorHelpers.html#ab52a0c8023eda1c81cc9ddfe7f03b535" target="_top" xlink:title="Access to the time component of input parameter.">
<polygon fill="none" stroke="#000000" points="388,-.5 388,-32.5 504,-32.5 504,-.5 388,-.5"/>
<text text-anchor="start" x="396" y="-19.5" font-family="FreeSans" font-size="10.00" fill="#000000">Acts::VectorHelpers</text>
<text text-anchor="middle" x="446" y="-7.5" font-family="FreeSans" font-size="10.00" fill="#000000">::time</text>
</a>
</g>
</g>
<!-- Node12&#45;&gt;Node13 -->
<g id="edge13" class="edge">
<title>Node12&#45;&gt;Node13</title>
<path fill="none" stroke="#191970" d="M322.6774,-16.5C340.5488,-16.5 359.7533,-16.5 377.5615,-16.5"/>
<polygon fill="#191970" stroke="#191970" points="377.8647,-20.0001 387.8646,-16.5 377.8646,-13.0001 377.8647,-20.0001"/>
</g>
</g>
</svg>
