<?xml version="1.0" encoding="UTF-8" standalone="no"?>
<!DOCTYPE svg PUBLIC "-//W3C//DTD SVG 1.1//EN"
 "http://www.w3.org/Graphics/SVG/1.1/DTD/svg11.dtd">
<!-- Generated by graphviz version 2.40.1 (20161225.0304)
 -->
<!-- Title: Acts::ProtoLayer::ProtoLayer Pages: 1 -->
<svg width="1025pt" height="617pt"
 viewBox="0.00 0.00 1025.00 617.00" xmlns="http://www.w3.org/2000/svg" xmlns:xlink="http://www.w3.org/1999/xlink">
<g id="graph0" class="graph" transform="scale(1 1) rotate(0) translate(4 613)">
<title>Acts::ProtoLayer::ProtoLayer</title>
<!-- Node1 -->
<g id="node1" class="node">
<title>Node1</title>
<polygon fill="#bfbfbf" stroke="#000000" points="0,-265.5 0,-285.5 160,-285.5 160,-265.5 0,-265.5"/>
<text text-anchor="middle" x="80" y="-272.5" font-family="FreeSans" font-size="10.00" fill="#000000">Acts::ProtoLayer::ProtoLayer</text>
</g>
<!-- Node2 -->
<g id="node2" class="node">
<title>Node2</title>
<g id="a_node2"><a xlink:href="../../db/d76/structActs_1_1ProtoLayer.html#a7045f95e5153ea3f50b8ce194c05cb2c" target="_top" xlink:title="Acts::ProtoLayer::measure">
<polygon fill="none" stroke="#000000" points="196,-288.5 196,-308.5 346,-308.5 346,-288.5 196,-288.5"/>
<text text-anchor="middle" x="271" y="-295.5" font-family="FreeSans" font-size="10.00" fill="#000000">Acts::ProtoLayer::measure</text>
</a>
</g>
</g>
<!-- Node1&#45;&gt;Node2 -->
<g id="edge1" class="edge">
<title>Node1&#45;&gt;Node2</title>
<path fill="none" stroke="#191970" d="M160.171,-285.1541C168.6826,-286.1791 177.361,-287.2241 185.9262,-288.2555"/>
<polygon fill="#191970" stroke="#191970" points="185.5655,-291.7373 195.9122,-289.458 186.4024,-284.7875 185.5655,-291.7373"/>
</g>
<!-- Node22 -->
<g id="node22" class="node">
<title>Node22</title>
<g id="a_node22"><a xlink:href="../../da/d7b/namespaceActs.html#a337992aec16b459064f9bba326128657" target="_top" xlink:title="Acts::unpack_shared\l_vector">
<polygon fill="none" stroke="#000000" points="210.5,-237.5 210.5,-269.5 331.5,-269.5 331.5,-237.5 210.5,-237.5"/>
<text text-anchor="start" x="218.5" y="-256.5" font-family="FreeSans" font-size="10.00" fill="#000000">Acts::unpack_shared</text>
<text text-anchor="middle" x="271" y="-244.5" font-family="FreeSans" font-size="10.00" fill="#000000">_vector</text>
</a>
</g>
</g>
<!-- Node1&#45;&gt;Node22 -->
<g id="edge21" class="edge">
<title>Node1&#45;&gt;Node22</title>
<path fill="none" stroke="#191970" d="M160.171,-266.2656C173.4624,-264.7347 187.1606,-263.1569 200.1992,-261.6551"/>
<polygon fill="#191970" stroke="#191970" points="200.9604,-265.0906 210.4942,-260.4693 200.1593,-258.1366 200.9604,-265.0906"/>
</g>
<!-- Node3 -->
<g id="node3" class="node">
<title>Node3</title>
<g id="a_node3"><a xlink:href="../../d7/de6/classActs_1_1DetectorElementBase.html#af320e4e3baf51fbd6a67aab984b9d3ad" target="_top" xlink:title="Acts::DetectorElementBase\l::thickness">
<polygon fill="none" stroke="#000000" points="383,-576.5 383,-608.5 538,-608.5 538,-576.5 383,-576.5"/>
<text text-anchor="start" x="391" y="-595.5" font-family="FreeSans" font-size="10.00" fill="#000000">Acts::DetectorElementBase</text>
<text text-anchor="middle" x="460.5" y="-583.5" font-family="FreeSans" font-size="10.00" fill="#000000">::thickness</text>
</a>
</g>
</g>
<!-- Node2&#45;&gt;Node3 -->
<g id="edge2" class="edge">
<title>Node2&#45;&gt;Node3</title>
<path fill="none" stroke="#191970" d="M272.1495,-308.7663C277.1268,-348.3259 300.399,-492.4085 382,-567.5 383.1511,-568.5593 384.3472,-569.5737 385.5823,-570.5452"/>
<polygon fill="#191970" stroke="#191970" points="383.9827,-573.6868 394.2366,-576.3529 387.8833,-567.8743 383.9827,-573.6868"/>
</g>
<!-- Node4 -->
<g id="node4" class="node">
<title>Node4</title>
<g id="a_node4"><a xlink:href="../../de/d7d/classActs_1_1Surface.html#ace4cf8a84a10d848c64dfb5347af57d4" target="_top" xlink:title="Acts::Surface::transform">
<polygon fill="none" stroke="#000000" points="390.5,-537.5 390.5,-557.5 530.5,-557.5 530.5,-537.5 390.5,-537.5"/>
<text text-anchor="middle" x="460.5" y="-544.5" font-family="FreeSans" font-size="10.00" fill="#000000">Acts::Surface::transform</text>
</a>
</g>
</g>
<!-- Node2&#45;&gt;Node4 -->
<g id="edge3" class="edge">
<title>Node2&#45;&gt;Node4</title>
<path fill="none" stroke="#191970" d="M272.7318,-308.6789C279.4372,-344.8229 307.1464,-468.0536 382,-528.5 383.8171,-529.9673 385.73,-531.3241 387.7186,-532.5786"/>
<polygon fill="#191970" stroke="#191970" points="386.3887,-535.8358 396.86,-537.4487 389.68,-529.6578 386.3887,-535.8358"/>
</g>
<!-- Node5 -->
<g id="node5" class="node">
<title>Node5</title>
<g id="a_node5"><a xlink:href="../../d1/d47/classActs_1_1PlanarBounds.html#aa74e714dcbcb1cd5bc966cea1977b1fe" target="_top" xlink:title="Acts::PlanarBounds\l::vertices">
<polygon fill="none" stroke="#000000" points="403,-486.5 403,-518.5 518,-518.5 518,-486.5 403,-486.5"/>
<text text-anchor="start" x="411" y="-505.5" font-family="FreeSans" font-size="10.00" fill="#000000">Acts::PlanarBounds</text>
<text text-anchor="middle" x="460.5" y="-493.5" font-family="FreeSans" font-size="10.00" fill="#000000">::vertices</text>
</a>
</g>
</g>
<!-- Node2&#45;&gt;Node5 -->
<g id="edge4" class="edge">
<title>Node2&#45;&gt;Node5</title>
<path fill="none" stroke="#191970" d="M274.4424,-308.7519C285.1988,-339.2248 321.1435,-430.0719 382,-477.5 385.5872,-480.2956 389.4943,-482.7825 393.5865,-484.9941"/>
<polygon fill="#191970" stroke="#191970" points="392.2585,-488.2389 402.7885,-489.4092 395.2866,-481.9277 392.2585,-488.2389"/>
</g>
<!-- Node6 -->
<g id="node6" class="node">
<title>Node6</title>
<g id="a_node6"><a xlink:href="../../df/da1/namespaceActs_1_1VectorHelpers.html#a9d0d7e35444d5f4a0ae7accb0a2c70db" target="_top" xlink:title="Acts::VectorHelpers\l::perp">
<polygon fill="none" stroke="#000000" points="402.5,-435.5 402.5,-467.5 518.5,-467.5 518.5,-435.5 402.5,-435.5"/>
<text text-anchor="start" x="410.5" y="-454.5" font-family="FreeSans" font-size="10.00" fill="#000000">Acts::VectorHelpers</text>
<text text-anchor="middle" x="460.5" y="-442.5" font-family="FreeSans" font-size="10.00" fill="#000000">::perp</text>
</a>
</g>
</g>
<!-- Node2&#45;&gt;Node6 -->
<g id="edge5" class="edge">
<title>Node2&#45;&gt;Node6</title>
<path fill="none" stroke="#191970" d="M277.1093,-308.8211C291.9546,-333.0182 332.3773,-393.821 382,-426.5 385.494,-428.801 389.2144,-430.9025 393.0638,-432.8201"/>
<polygon fill="#191970" stroke="#191970" points="391.6803,-436.0357 402.2341,-436.9682 394.5653,-429.6579 391.6803,-436.0357"/>
</g>
<!-- Node7 -->
<g id="node7" class="node">
<title>Node7</title>
<g id="a_node7"><a xlink:href="../../db/d76/structActs_1_1ProtoLayer.html#ad40ddfc0c7e4fde900ef4c1ad820c7d7" target="_top" xlink:title="Acts::ProtoLayer::radial\lDistance">
<polygon fill="none" stroke="#000000" points="393.5,-384.5 393.5,-416.5 527.5,-416.5 527.5,-384.5 393.5,-384.5"/>
<text text-anchor="start" x="401.5" y="-403.5" font-family="FreeSans" font-size="10.00" fill="#000000">Acts::ProtoLayer::radial</text>
<text text-anchor="middle" x="460.5" y="-391.5" font-family="FreeSans" font-size="10.00" fill="#000000">Distance</text>
</a>
</g>
</g>
<!-- Node2&#45;&gt;Node7 -->
<g id="edge6" class="edge">
<title>Node2&#45;&gt;Node7</title>
<path fill="none" stroke="#191970" d="M282.8951,-308.5615C302.4389,-324.6596 343.0711,-356.3387 382,-375.5 385.7535,-377.3475 389.6742,-379.0993 393.6746,-380.7529"/>
<polygon fill="#191970" stroke="#191970" points="392.5247,-384.0612 403.1131,-384.4325 395.0674,-377.5393 392.5247,-384.0612"/>
</g>
<!-- Node8 -->
<g id="node8" class="node">
<title>Node8</title>
<g id="a_node8"><a xlink:href="../../d6/dd9/classActs_1_1CylinderSurface.html#aed97f0dabdf0c3b1428e8c582fda6693" target="_top" xlink:title="Acts::CylinderSurface\l::polyhedronRepresentation">
<polygon fill="none" stroke="#000000" points="382,-333.5 382,-365.5 539,-365.5 539,-333.5 382,-333.5"/>
<text text-anchor="start" x="390" y="-352.5" font-family="FreeSans" font-size="10.00" fill="#000000">Acts::CylinderSurface</text>
<text text-anchor="middle" x="460.5" y="-340.5" font-family="FreeSans" font-size="10.00" fill="#000000">::polyhedronRepresentation</text>
</a>
</g>
</g>
<!-- Node2&#45;&gt;Node8 -->
<g id="edge7" class="edge">
<title>Node2&#45;&gt;Node8</title>
<path fill="none" stroke="#191970" d="M308.4391,-308.576C331.982,-314.912 363.0865,-323.2832 391.0271,-330.8028"/>
<polygon fill="#191970" stroke="#191970" points="390.1945,-334.2032 400.7605,-333.4223 392.0137,-327.4437 390.1945,-334.2032"/>
</g>
<!-- Node15 -->
<g id="node15" class="node">
<title>Node15</title>
<g id="a_node15"><a xlink:href="../../d6/dd9/classActs_1_1CylinderSurface.html#ac0686708118f62c6f99967b864800f35" target="_top" xlink:title="This method returns the CylinderBounds by reference.">
<polygon fill="none" stroke="#000000" points="397.5,-282.5 397.5,-314.5 523.5,-314.5 523.5,-282.5 397.5,-282.5"/>
<text text-anchor="start" x="405.5" y="-301.5" font-family="FreeSans" font-size="10.00" fill="#000000">Acts::CylinderSurface</text>
<text text-anchor="middle" x="460.5" y="-289.5" font-family="FreeSans" font-size="10.00" fill="#000000">::bounds</text>
</a>
</g>
</g>
<!-- Node2&#45;&gt;Node15 -->
<g id="edge14" class="edge">
<title>Node2&#45;&gt;Node15</title>
<path fill="none" stroke="#191970" d="M346.1676,-298.5C359.6721,-298.5 373.7316,-298.5 387.1829,-298.5"/>
<polygon fill="#191970" stroke="#191970" points="387.3314,-302.0001 397.3313,-298.5 387.3313,-295.0001 387.3314,-302.0001"/>
</g>
<!-- Node16 -->
<g id="node16" class="node">
<title>Node16</title>
<g id="a_node16"><a xlink:href="../../da/d0a/classActs_1_1CylinderBounds.html#a87f7f0a9088eb074ac6c1e63862db251" target="_top" xlink:title="Acts::CylinderBounds::get">
<polygon fill="none" stroke="#000000" points="386,-243.5 386,-263.5 535,-263.5 535,-243.5 386,-243.5"/>
<text text-anchor="middle" x="460.5" y="-250.5" font-family="FreeSans" font-size="10.00" fill="#000000">Acts::CylinderBounds::get</text>
</a>
</g>
</g>
<!-- Node2&#45;&gt;Node16 -->
<g id="edge15" class="edge">
<title>Node2&#45;&gt;Node16</title>
<path fill="none" stroke="#191970" d="M313.5275,-288.4011C341.567,-281.7427 378.4798,-272.9771 408.2974,-265.8964"/>
<polygon fill="#191970" stroke="#191970" points="409.1937,-269.281 418.1144,-263.5652 407.5763,-262.4704 409.1937,-269.281"/>
</g>
<!-- Node17 -->
<g id="node17" class="node">
<title>Node17</title>
<g id="a_node17"><a xlink:href="../../de/d7d/classActs_1_1Surface.html#ae87d78911446cadd1c13f3172011c221" target="_top" xlink:title="Acts::Surface::center">
<polygon fill="none" stroke="#000000" points="399,-204.5 399,-224.5 522,-224.5 522,-204.5 399,-204.5"/>
<text text-anchor="middle" x="460.5" y="-211.5" font-family="FreeSans" font-size="10.00" fill="#000000">Acts::Surface::center</text>
</a>
</g>
</g>
<!-- Node2&#45;&gt;Node17 -->
<g id="edge16" class="edge">
<title>Node2&#45;&gt;Node17</title>
<path fill="none" stroke="#191970" d="M325.6238,-288.3656C332.7922,-285.7852 339.7936,-282.5514 346,-278.5 367.4473,-264.4996 360.3922,-247.2515 382,-233.5 384.9278,-231.6367 388.0232,-229.9561 391.2265,-228.4403"/>
<polygon fill="#191970" stroke="#191970" points="392.5992,-231.6601 400.4899,-224.5898 389.9124,-225.1963 392.5992,-231.6601"/>
</g>
<!-- Node18 -->
<g id="node18" class="node">
<title>Node18</title>
<g id="a_node18"><a xlink:href="../../dc/db4/classActs_1_1AnnulusBounds.html#abc8ae96c4bfd53afe6d10e74b03d2b98" target="_top" xlink:title="This method returns inner radius.">
<polygon fill="none" stroke="#000000" points="398.5,-153.5 398.5,-185.5 522.5,-185.5 522.5,-153.5 398.5,-153.5"/>
<text text-anchor="start" x="406.5" y="-172.5" font-family="FreeSans" font-size="10.00" fill="#000000">Acts::AnnulusBounds</text>
<text text-anchor="middle" x="460.5" y="-160.5" font-family="FreeSans" font-size="10.00" fill="#000000">::rMin</text>
</a>
</g>
</g>
<!-- Node2&#45;&gt;Node18 -->
<g id="edge17" class="edge">
<title>Node2&#45;&gt;Node18</title>
<path fill="none" stroke="#191970" d="M330.142,-288.393C335.8875,-285.8 341.3122,-282.5559 346,-278.5 376.7164,-251.9241 351.9263,-221.8011 382,-194.5 384.3083,-192.4045 386.7926,-190.4846 389.4062,-188.7256"/>
<polygon fill="#191970" stroke="#191970" points="391.259,-191.6969 398.1362,-183.6374 387.7341,-185.6491 391.259,-191.6969"/>
</g>
<!-- Node19 -->
<g id="node19" class="node">
<title>Node19</title>
<g id="a_node19"><a xlink:href="../../dc/db4/classActs_1_1AnnulusBounds.html#ae125983dd6d6d7eb7c3eb8975e1bb08a" target="_top" xlink:title="This method returns outer radius.">
<polygon fill="none" stroke="#000000" points="398.5,-102.5 398.5,-134.5 522.5,-134.5 522.5,-102.5 398.5,-102.5"/>
<text text-anchor="start" x="406.5" y="-121.5" font-family="FreeSans" font-size="10.00" fill="#000000">Acts::AnnulusBounds</text>
<text text-anchor="middle" x="460.5" y="-109.5" font-family="FreeSans" font-size="10.00" fill="#000000">::rMax</text>
</a>
</g>
</g>
<!-- Node2&#45;&gt;Node19 -->
<g id="edge18" class="edge">
<title>Node2&#45;&gt;Node19</title>
<path fill="none" stroke="#191970" d="M332.2162,-288.3283C337.2902,-285.7294 341.9979,-282.5021 346,-278.5 389.909,-234.591 339.1509,-188.4439 382,-143.5 384.3193,-141.0673 386.8744,-138.8705 389.6022,-136.8869"/>
<polygon fill="#191970" stroke="#191970" points="391.5716,-139.7844 398.2417,-131.5526 387.8941,-133.8282 391.5716,-139.7844"/>
</g>
<!-- Node20 -->
<g id="node20" class="node">
<title>Node20</title>
<g id="a_node20"><a xlink:href="../../dc/db4/classActs_1_1AnnulusBounds.html#aedbb0ff112ed2d2d39e8265805774759" target="_top" xlink:title="Returns the right angular edge of the module.">
<polygon fill="none" stroke="#000000" points="398.5,-51.5 398.5,-83.5 522.5,-83.5 522.5,-51.5 398.5,-51.5"/>
<text text-anchor="start" x="406.5" y="-70.5" font-family="FreeSans" font-size="10.00" fill="#000000">Acts::AnnulusBounds</text>
<text text-anchor="middle" x="460.5" y="-58.5" font-family="FreeSans" font-size="10.00" fill="#000000">::phiMin</text>
</a>
</g>
</g>
<!-- Node2&#45;&gt;Node20 -->
<g id="edge19" class="edge">
<title>Node2&#45;&gt;Node20</title>
<path fill="none" stroke="#191970" d="M332.8699,-288.4235C337.7457,-285.799 342.2311,-282.5401 346,-278.5 403.437,-216.9308 326.0481,-155.4218 382,-92.5 384.3523,-89.8546 386.9836,-87.4871 389.8178,-85.3684"/>
<polygon fill="#191970" stroke="#191970" points="391.6879,-88.327 398.2795,-80.0323 387.954,-82.406 391.6879,-88.327"/>
</g>
<!-- Node21 -->
<g id="node21" class="node">
<title>Node21</title>
<g id="a_node21"><a xlink:href="../../dc/db4/classActs_1_1AnnulusBounds.html#ac1878d86f99ce38d7e483571ba557039" target="_top" xlink:title="Returns the left angular edge of the module.">
<polygon fill="none" stroke="#000000" points="398.5,-.5 398.5,-32.5 522.5,-32.5 522.5,-.5 398.5,-.5"/>
<text text-anchor="start" x="406.5" y="-19.5" font-family="FreeSans" font-size="10.00" fill="#000000">Acts::AnnulusBounds</text>
<text text-anchor="middle" x="460.5" y="-7.5" font-family="FreeSans" font-size="10.00" fill="#000000">::phiMax</text>
</a>
</g>
</g>
<!-- Node2&#45;&gt;Node21 -->
<g id="edge20" class="edge">
<title>Node2&#45;&gt;Node21</title>
<path fill="none" stroke="#191970" d="M333.3978,-288.3874C338.0998,-285.7637 342.4035,-282.5151 346,-278.5 417.0867,-199.1413 312.8266,-122.5318 382,-41.5 384.3463,-38.7515 386.994,-36.3021 389.8609,-34.1194"/>
<polygon fill="#191970" stroke="#191970" points="391.8978,-36.9717 398.4522,-28.6475 388.1374,-31.0675 391.8978,-36.9717"/>
</g>
<!-- Node9 -->
<g id="node9" class="node">
<title>Node9</title>
<g id="a_node9"><a xlink:href="../../dc/dba/namespaceActs_1_1detail_1_1VerticesHelper.html#a3014827c242333f099b58502dbb60e44" target="_top" xlink:title="Acts::detail::VerticesHelper\l::phiSegments">
<polygon fill="none" stroke="#000000" points="575,-384.5 575,-416.5 730,-416.5 730,-384.5 575,-384.5"/>
<text text-anchor="start" x="583" y="-403.5" font-family="FreeSans" font-size="10.00" fill="#000000">Acts::detail::VerticesHelper</text>
<text text-anchor="middle" x="652.5" y="-391.5" font-family="FreeSans" font-size="10.00" fill="#000000">::phiSegments</text>
</a>
</g>
</g>
<!-- Node8&#45;&gt;Node9 -->
<g id="edge8" class="edge">
<title>Node8&#45;&gt;Node9</title>
<path fill="none" stroke="#191970" d="M520.9865,-365.5667C540.4457,-370.7356 562.1712,-376.5064 582.2693,-381.845"/>
<polygon fill="#191970" stroke="#191970" points="581.4244,-385.2418 591.9878,-384.4264 583.2215,-378.4765 581.4244,-385.2418"/>
</g>
<!-- Node10 -->
<g id="node10" class="node">
<title>Node10</title>
<g id="a_node10"><a xlink:href="../../dc/dba/namespaceActs_1_1detail_1_1VerticesHelper.html#a8ebff4d060d1d1fb3e53963c0182c938" target="_top" xlink:title="Acts::detail::VerticesHelper\l::createSegment">
<polygon fill="none" stroke="#000000" points="575,-333.5 575,-365.5 730,-365.5 730,-333.5 575,-333.5"/>
<text text-anchor="start" x="583" y="-352.5" font-family="FreeSans" font-size="10.00" fill="#000000">Acts::detail::VerticesHelper</text>
<text text-anchor="middle" x="652.5" y="-340.5" font-family="FreeSans" font-size="10.00" fill="#000000">::createSegment</text>
</a>
</g>
</g>
<!-- Node8&#45;&gt;Node10 -->
<g id="edge9" class="edge">
<title>Node8&#45;&gt;Node10</title>
<path fill="none" stroke="#191970" d="M539.1477,-349.5C547.6333,-349.5 556.3059,-349.5 564.8885,-349.5"/>
<polygon fill="#191970" stroke="#191970" points="564.9057,-353.0001 574.9057,-349.5 564.9056,-346.0001 564.9057,-353.0001"/>
</g>
<!-- Node14 -->
<g id="node14" class="node">
<title>Node14</title>
<g id="a_node14"><a xlink:href="../../da/d6e/structActs_1_1detail_1_1FacesHelper.html#a1da2d66e5f92b146dd8105bc69bf28c2" target="_top" xlink:title="This method works for all concentric type surface setups It includes :">
<polygon fill="none" stroke="#000000" points="581,-282.5 581,-314.5 724,-314.5 724,-282.5 581,-282.5"/>
<text text-anchor="start" x="589" y="-301.5" font-family="FreeSans" font-size="10.00" fill="#000000">Acts::detail::FacesHelper</text>
<text text-anchor="middle" x="652.5" y="-289.5" font-family="FreeSans" font-size="10.00" fill="#000000">::cylindricalFaceMesh</text>
</a>
</g>
</g>
<!-- Node8&#45;&gt;Node14 -->
<g id="edge13" class="edge">
<title>Node8&#45;&gt;Node14</title>
<path fill="none" stroke="#191970" d="M520.9865,-333.4333C540.4457,-328.2644 562.1712,-322.4936 582.2693,-317.155"/>
<polygon fill="#191970" stroke="#191970" points="583.2215,-320.5235 591.9878,-314.5736 581.4244,-313.7582 583.2215,-320.5235"/>
</g>
<!-- Node11 -->
<g id="node11" class="node">
<title>Node11</title>
<g id="a_node11"><a xlink:href="../../df/d28/namespacekdfinder.html#ab72d428625e99a2d7380eb7691c246c7" target="_top" xlink:title="kdfinder::abs">
<polygon fill="none" stroke="#000000" points="766,-358.5 766,-378.5 849,-378.5 849,-358.5 766,-358.5"/>
<text text-anchor="middle" x="807.5" y="-365.5" font-family="FreeSans" font-size="10.00" fill="#000000">kdfinder::abs</text>
</a>
</g>
</g>
<!-- Node10&#45;&gt;Node11 -->
<g id="edge10" class="edge">
<title>Node10&#45;&gt;Node11</title>
<path fill="none" stroke="#191970" d="M730.4541,-359.0557C739.0411,-360.1083 747.6207,-361.16 755.7712,-362.159"/>
<polygon fill="#191970" stroke="#191970" points="755.4823,-365.6497 765.8338,-363.3925 756.334,-358.7018 755.4823,-365.6497"/>
</g>
<!-- Node13 -->
<g id="node13" class="node">
<title>Node13</title>
<g id="a_node13"><a xlink:href="../../df/de8/cemc_8C.html#a72d4716092b469b4bc1d816359a90e14" target="_top" xlink:title="cos">
<polygon fill="none" stroke="#000000" points="791,-319.5 791,-339.5 824,-339.5 824,-319.5 791,-319.5"/>
<text text-anchor="middle" x="807.5" y="-326.5" font-family="FreeSans" font-size="10.00" fill="#000000">cos</text>
</a>
</g>
</g>
<!-- Node10&#45;&gt;Node13 -->
<g id="edge12" class="edge">
<title>Node10&#45;&gt;Node13</title>
<path fill="none" stroke="#191970" d="M730.4541,-339.4414C748.5964,-337.1005 766.7055,-334.7638 780.8045,-332.9446"/>
<polygon fill="#191970" stroke="#191970" points="781.2686,-336.4138 790.7385,-331.6628 780.3728,-329.4714 781.2686,-336.4138"/>
</g>
<!-- Node12 -->
<g id="node12" class="node">
<title>Node12</title>
<g id="a_node12"><a xlink:href="../../d8/dc7/classkdfinder_1_1TVector.html#ac9649c7577f12a7502ed523260f4ee90" target="_top" xlink:title="kdfinder::TVector::mag">
<polygon fill="none" stroke="#000000" points="885,-358.5 885,-378.5 1017,-378.5 1017,-358.5 885,-358.5"/>
<text text-anchor="middle" x="951" y="-365.5" font-family="FreeSans" font-size="10.00" fill="#000000">kdfinder::TVector::mag</text>
</a>
</g>
</g>
<!-- Node11&#45;&gt;Node12 -->
<g id="edge11" class="edge">
<title>Node11&#45;&gt;Node12</title>
<path fill="none" stroke="#191970" d="M849.0061,-368.5C857.1854,-368.5 866.0065,-368.5 874.917,-368.5"/>
<polygon fill="#191970" stroke="#191970" points="874.9858,-372.0001 884.9858,-368.5 874.9857,-365.0001 874.9858,-372.0001"/>
</g>
</g>
</svg>
