<?xml version="1.0" encoding="UTF-8" standalone="no"?>
<!DOCTYPE svg PUBLIC "-//W3C//DTD SVG 1.1//EN"
 "http://www.w3.org/Graphics/SVG/1.1/DTD/svg11.dtd">
<!-- Generated by graphviz version 2.40.1 (20161225.0304)
 -->
<!-- Title: PHG4ConeSubsystem::Init Pages: 1 -->
<svg width="1369pt" height="593pt"
 viewBox="0.00 0.00 1369.00 593.00" xmlns="http://www.w3.org/2000/svg" xmlns:xlink="http://www.w3.org/1999/xlink">
<g id="graph0" class="graph" transform="scale(1 1) rotate(0) translate(4 589)">
<title>PHG4ConeSubsystem::Init</title>
<!-- Node1 -->
<g id="node1" class="node">
<title>Node1</title>
<polygon fill="#bfbfbf" stroke="#000000" points="0,-253.5 0,-273.5 149,-273.5 149,-253.5 0,-253.5"/>
<text text-anchor="middle" x="74.5" y="-260.5" font-family="FreeSans" font-size="10.00" fill="#000000">PHG4ConeSubsystem::Init</text>
</g>
<!-- Node2 -->
<g id="node2" class="node">
<title>Node2</title>
<g id="a_node2"><a xlink:href="../../d5/dca/classPHCompositeNode.html#a15a0c4804399a9de4267647f05bd1ba4" target="_top" xlink:title="PHCompositeNode::addNode">
<polygon fill="none" stroke="#000000" points="201,-525.5 201,-545.5 363,-545.5 363,-525.5 201,-525.5"/>
<text text-anchor="middle" x="282" y="-532.5" font-family="FreeSans" font-size="10.00" fill="#000000">PHCompositeNode::addNode</text>
</a>
</g>
</g>
<!-- Node1&#45;&gt;Node2 -->
<g id="edge1" class="edge">
<title>Node1&#45;&gt;Node2</title>
<path fill="none" stroke="#191970" d="M75.627,-273.7104C80.468,-312.3583 103.1312,-450.8065 185,-516.5 187.108,-518.1915 189.3238,-519.7468 191.6261,-521.1762"/>
<polygon fill="#191970" stroke="#191970" points="190.4158,-524.496 200.8904,-526.0876 193.6945,-518.3113 190.4158,-524.496"/>
</g>
<!-- Node6 -->
<g id="node6" class="node">
<title>Node6</title>
<g id="a_node6"><a xlink:href="../../db/df7/classPHG4Subsystem.html#adfea108acc118cb51eaf7c3427bc4c73" target="_top" xlink:title="PHG4Subsystem::CheckOverlap">
<polygon fill="none" stroke="#000000" points="193,-429.5 193,-449.5 371,-449.5 371,-429.5 193,-429.5"/>
<text text-anchor="middle" x="282" y="-436.5" font-family="FreeSans" font-size="10.00" fill="#000000">PHG4Subsystem::CheckOverlap</text>
</a>
</g>
</g>
<!-- Node1&#45;&gt;Node6 -->
<g id="edge5" class="edge">
<title>Node1&#45;&gt;Node6</title>
<path fill="none" stroke="#191970" d="M78.3965,-273.599C89.8904,-301.9356 126.5578,-382.5879 185,-420.5 187.6498,-422.219 190.4201,-423.789 193.2797,-425.2226"/>
<polygon fill="#191970" stroke="#191970" points="192.1153,-428.5339 202.6785,-429.3521 194.9311,-422.1252 192.1153,-428.5339"/>
</g>
<!-- Node7 -->
<g id="node7" class="node">
<title>Node7</title>
<g id="a_node7"><a xlink:href="../../d5/d07/classPHNodeIterator.html#aea98bf8619af59b1212a94fb32106baa" target="_top" xlink:title="PHNodeIterator::findFirst">
<polygon fill="none" stroke="#000000" points="211.5,-468.5 211.5,-488.5 352.5,-488.5 352.5,-468.5 211.5,-468.5"/>
<text text-anchor="middle" x="282" y="-475.5" font-family="FreeSans" font-size="10.00" fill="#000000">PHNodeIterator::findFirst</text>
</a>
</g>
</g>
<!-- Node1&#45;&gt;Node7 -->
<g id="edge6" class="edge">
<title>Node1&#45;&gt;Node7</title>
<path fill="none" stroke="#191970" d="M76.9744,-273.6439C85.5461,-306.4783 117.2289,-410.5596 185,-459.5 190.1583,-463.225 195.8572,-466.2696 201.8319,-468.7527"/>
<polygon fill="#191970" stroke="#191970" points="200.8154,-472.1067 211.4097,-472.2096 203.1919,-465.5225 200.8154,-472.1067"/>
</g>
<!-- Node9 -->
<g id="node9" class="node">
<title>Node9</title>
<g id="a_node9"><a xlink:href="../../d5/dec/classFun4AllBase.html#a41f9ac377743d046f590617fd6f4f0ed" target="_top" xlink:title="Returns the name of this module.">
<polygon fill="none" stroke="#000000" points="224.5,-390.5 224.5,-410.5 339.5,-410.5 339.5,-390.5 224.5,-390.5"/>
<text text-anchor="middle" x="282" y="-397.5" font-family="FreeSans" font-size="10.00" fill="#000000">Fun4AllBase::Name</text>
</a>
</g>
</g>
<!-- Node1&#45;&gt;Node9 -->
<g id="edge10" class="edge">
<title>Node1&#45;&gt;Node9</title>
<path fill="none" stroke="#191970" d="M80.7762,-273.7146C95.6755,-297.0117 135.6512,-354.1666 185,-381.5 194.0438,-386.5092 204.2031,-390.213 214.452,-392.9484"/>
<polygon fill="#191970" stroke="#191970" points="213.7336,-396.3751 224.2722,-395.2852 215.3541,-389.5652 213.7336,-396.3751"/>
</g>
<!-- Node10 -->
<g id="node10" class="node">
<title>Node10</title>
<g id="a_node10"><a xlink:href="../../d3/de7/classPHG4Detector.html#a1a914e84447dd5ab89745cb9fcd1942e" target="_top" xlink:title="PHG4Detector::OverlapCheck">
<polygon fill="none" stroke="#000000" points="199,-351.5 199,-371.5 365,-371.5 365,-351.5 199,-351.5"/>
<text text-anchor="middle" x="282" y="-358.5" font-family="FreeSans" font-size="10.00" fill="#000000">PHG4Detector::OverlapCheck</text>
</a>
</g>
</g>
<!-- Node1&#45;&gt;Node10 -->
<g id="edge11" class="edge">
<title>Node1&#45;&gt;Node10</title>
<path fill="none" stroke="#191970" d="M85.13,-273.5454C103.778,-290.57 144.2874,-324.9475 185,-342.5 190.4009,-344.8285 196.0942,-346.874 201.9049,-348.6707"/>
<polygon fill="#191970" stroke="#191970" points="201.1883,-352.1054 211.7638,-351.4654 203.0974,-345.3708 201.1883,-352.1054"/>
</g>
<!-- Node11 -->
<g id="node11" class="node">
<title>Node11</title>
<g id="a_node11"><a xlink:href="../../d6/d41/classPHG4ConeDetector.html#a4921b6bab7fee1b71070ceea911d7ad7" target="_top" xlink:title="PHG4ConeDetector::SetActive">
<polygon fill="none" stroke="#000000" points="198,-312.5 198,-332.5 366,-332.5 366,-312.5 198,-312.5"/>
<text text-anchor="middle" x="282" y="-319.5" font-family="FreeSans" font-size="10.00" fill="#000000">PHG4ConeDetector::SetActive</text>
</a>
</g>
</g>
<!-- Node1&#45;&gt;Node11 -->
<g id="edge12" class="edge">
<title>Node1&#45;&gt;Node11</title>
<path fill="none" stroke="#191970" d="M99.1605,-273.6662C121.324,-282.5033 154.9186,-295.1627 185,-303.5 194.0824,-306.0173 203.7323,-308.3289 213.2882,-310.4074"/>
<polygon fill="#191970" stroke="#191970" points="212.6786,-313.8556 223.1848,-312.4877 214.1187,-307.0054 212.6786,-313.8556"/>
</g>
<!-- Node12 -->
<g id="node12" class="node">
<title>Node12</title>
<g id="a_node12"><a xlink:href="../../d6/d41/classPHG4ConeDetector.html#a86694ab8743ccd368b954ab7205a157d" target="_top" xlink:title="PHG4ConeDetector::SetMaterial">
<polygon fill="none" stroke="#000000" points="193.5,-273.5 193.5,-293.5 370.5,-293.5 370.5,-273.5 193.5,-273.5"/>
<text text-anchor="middle" x="282" y="-280.5" font-family="FreeSans" font-size="10.00" fill="#000000">PHG4ConeDetector::SetMaterial</text>
</a>
</g>
</g>
<!-- Node1&#45;&gt;Node12 -->
<g id="edge13" class="edge">
<title>Node1&#45;&gt;Node12</title>
<path fill="none" stroke="#191970" d="M149.1191,-270.6922C160.1724,-271.7576 171.7057,-272.8692 183.1591,-273.9732"/>
<polygon fill="#191970" stroke="#191970" points="182.8998,-277.4643 193.1895,-274.94 183.5715,-270.4966 182.8998,-277.4643"/>
</g>
<!-- Node13 -->
<g id="node13" class="node">
<title>Node13</title>
<g id="a_node13"><a xlink:href="../../d6/d41/classPHG4ConeDetector.html#ab3b3d194be272c348cd8364daa73caa3" target="_top" xlink:title="set phi offset and extention">
<polygon fill="none" stroke="#000000" points="206,-234.5 206,-254.5 358,-254.5 358,-234.5 206,-234.5"/>
<text text-anchor="middle" x="282" y="-241.5" font-family="FreeSans" font-size="10.00" fill="#000000">PHG4ConeDetector::SetPhi</text>
</a>
</g>
</g>
<!-- Node1&#45;&gt;Node13 -->
<g id="edge14" class="edge">
<title>Node1&#45;&gt;Node13</title>
<path fill="none" stroke="#191970" d="M149.1191,-256.6674C164.2735,-255.2798 180.3301,-253.8095 195.846,-252.3888"/>
<polygon fill="#191970" stroke="#191970" points="196.3099,-255.8611 205.9491,-251.4637 195.6716,-248.8902 196.3099,-255.8611"/>
</g>
<!-- Node45 -->
<g id="node45" class="node">
<title>Node45</title>
<g id="a_node45"><a xlink:href="../../d6/d41/classPHG4ConeDetector.html#afb27b7738bfd0df59440b14575942524" target="_top" xlink:title="PHG4ConeDetector::SetPlace">
<polygon fill="none" stroke="#000000" points="200,-195.5 200,-215.5 364,-215.5 364,-195.5 200,-195.5"/>
<text text-anchor="middle" x="282" y="-202.5" font-family="FreeSans" font-size="10.00" fill="#000000">PHG4ConeDetector::SetPlace</text>
</a>
</g>
</g>
<!-- Node1&#45;&gt;Node45 -->
<g id="edge54" class="edge">
<title>Node1&#45;&gt;Node45</title>
<path fill="none" stroke="#191970" d="M99.6226,-253.4501C121.8058,-244.8624 155.1679,-232.6395 185,-224.5 194.1538,-222.0024 203.8786,-219.6974 213.5005,-217.6182"/>
<polygon fill="#191970" stroke="#191970" points="214.3906,-221.0079 223.4622,-215.5347 212.9575,-214.1562 214.3906,-221.0079"/>
</g>
<!-- Node46 -->
<g id="node46" class="node">
<title>Node46</title>
<g id="a_node46"><a xlink:href="../../d6/d41/classPHG4ConeDetector.html#affa8d05a668908d36f782f7069d02ffc" target="_top" xlink:title="set inner and outter radius1">
<polygon fill="none" stroke="#000000" points="207,-156.5 207,-176.5 357,-176.5 357,-156.5 207,-156.5"/>
<text text-anchor="middle" x="282" y="-163.5" font-family="FreeSans" font-size="10.00" fill="#000000">PHG4ConeDetector::SetR1</text>
</a>
</g>
</g>
<!-- Node1&#45;&gt;Node46 -->
<g id="edge55" class="edge">
<title>Node1&#45;&gt;Node46</title>
<path fill="none" stroke="#191970" d="M85.4557,-253.3176C104.274,-236.4256 144.6245,-202.7633 185,-185.5 190.4584,-183.1662 196.2128,-181.1161 202.0837,-179.3158"/>
<polygon fill="#191970" stroke="#191970" points="203.3628,-182.592 212.042,-176.5157 201.4679,-175.8533 203.3628,-182.592"/>
</g>
<!-- Node47 -->
<g id="node47" class="node">
<title>Node47</title>
<g id="a_node47"><a xlink:href="../../d6/d41/classPHG4ConeDetector.html#a5c3c4795395fb22c3f95620ceaba81ba" target="_top" xlink:title="set inner and outter radius2">
<polygon fill="none" stroke="#000000" points="207,-117.5 207,-137.5 357,-137.5 357,-117.5 207,-117.5"/>
<text text-anchor="middle" x="282" y="-124.5" font-family="FreeSans" font-size="10.00" fill="#000000">PHG4ConeDetector::SetR2</text>
</a>
</g>
</g>
<!-- Node1&#45;&gt;Node47 -->
<g id="edge56" class="edge">
<title>Node1&#45;&gt;Node47</title>
<path fill="none" stroke="#191970" d="M80.799,-253.3726C95.7462,-230.2741 135.8159,-173.6058 185,-146.5 188.9534,-144.3213 193.1184,-142.3897 197.4099,-140.6774"/>
<polygon fill="#191970" stroke="#191970" points="198.7293,-143.9229 206.9737,-137.2686 196.3791,-137.3292 198.7293,-143.9229"/>
</g>
<!-- Node48 -->
<g id="node48" class="node">
<title>Node48</title>
<g id="a_node48"><a xlink:href="../../d6/d41/classPHG4ConeDetector.html#a0d99dc46af9599fdcd154ba2bacb86ae" target="_top" xlink:title="set length in Z">
<polygon fill="none" stroke="#000000" points="194,-78.5 194,-98.5 370,-98.5 370,-78.5 194,-78.5"/>
<text text-anchor="middle" x="282" y="-85.5" font-family="FreeSans" font-size="10.00" fill="#000000">PHG4ConeDetector::SetZlength</text>
</a>
</g>
</g>
<!-- Node1&#45;&gt;Node48 -->
<g id="edge57" class="edge">
<title>Node1&#45;&gt;Node48</title>
<path fill="none" stroke="#191970" d="M78.4159,-253.4645C89.9609,-225.3064 126.7497,-145.1632 185,-107.5 187.6524,-105.785 190.4249,-104.2184 193.2864,-102.7877"/>
<polygon fill="#191970" stroke="#191970" points="194.9365,-105.886 202.6902,-98.6658 192.1262,-99.4748 194.9365,-105.886"/>
</g>
<!-- Node49 -->
<g id="node49" class="node">
<title>Node49</title>
<g id="a_node49"><a xlink:href="../../d6/d41/classPHG4ConeDetector.html#af891cc640e960c824790bd9920278856" target="_top" xlink:title="PHG4ConeDetector::SetZRot">
<polygon fill="none" stroke="#000000" points="201.5,-39.5 201.5,-59.5 362.5,-59.5 362.5,-39.5 201.5,-39.5"/>
<text text-anchor="middle" x="282" y="-46.5" font-family="FreeSans" font-size="10.00" fill="#000000">PHG4ConeDetector::SetZRot</text>
</a>
</g>
</g>
<!-- Node1&#45;&gt;Node49 -->
<g id="edge58" class="edge">
<title>Node1&#45;&gt;Node49</title>
<path fill="none" stroke="#191970" d="M76.9913,-253.4067C85.6147,-220.7365 117.4377,-117.1771 185,-68.5 187.2712,-66.8637 189.6468,-65.3587 192.1043,-63.975"/>
<polygon fill="#191970" stroke="#191970" points="193.8683,-67.0088 201.3202,-59.4775 190.7983,-60.7179 193.8683,-67.0088"/>
</g>
<!-- Node50 -->
<g id="node50" class="node">
<title>Node50</title>
<g id="a_node50"><a xlink:href="../../d6/d41/classPHG4ConeDetector.html#a8e69b63cdab85fd81fd0d3262871580a" target="_top" xlink:title="PHG4ConeDetector::SuperDetector">
<polygon fill="none" stroke="#000000" points="185,-.5 185,-20.5 379,-20.5 379,-.5 185,-.5"/>
<text text-anchor="middle" x="282" y="-7.5" font-family="FreeSans" font-size="10.00" fill="#000000">PHG4ConeDetector::SuperDetector</text>
</a>
</g>
</g>
<!-- Node1&#45;&gt;Node50 -->
<g id="edge59" class="edge">
<title>Node1&#45;&gt;Node50</title>
<path fill="none" stroke="#191970" d="M76.0143,-253.2876C82.0458,-216.4651 107.8966,-89.5286 185,-29.5 186.8153,-28.0867 188.7064,-26.7694 190.6606,-25.5418"/>
<polygon fill="#191970" stroke="#191970" points="192.4584,-28.5486 199.5918,-20.715 189.1302,-22.3904 192.4584,-28.5486"/>
</g>
<!-- Node3 -->
<g id="node3" class="node">
<title>Node3</title>
<g id="a_node3"><a xlink:href="../../d6/d86/classPHPointerList.html#ac2176735e9d046a034f1686fd2c477eb" target="_top" xlink:title="PHPointerList::append">
<polygon fill="none" stroke="#000000" points="415,-525.5 415,-545.5 543,-545.5 543,-525.5 415,-525.5"/>
<text text-anchor="middle" x="479" y="-532.5" font-family="FreeSans" font-size="10.00" fill="#000000">PHPointerList::append</text>
</a>
</g>
</g>
<!-- Node2&#45;&gt;Node3 -->
<g id="edge2" class="edge">
<title>Node2&#45;&gt;Node3</title>
<path fill="none" stroke="#191970" d="M363.2648,-535.5C376.9472,-535.5 391.0875,-535.5 404.5851,-535.5"/>
<polygon fill="#191970" stroke="#191970" points="404.7632,-539.0001 414.7632,-535.5 404.7631,-532.0001 404.7632,-539.0001"/>
</g>
<!-- Node4 -->
<g id="node4" class="node">
<title>Node4</title>
<g id="a_node4"><a xlink:href="../../dc/d82/classPHNode.html#aca3576f926a4401eddc3d88bf0ce0de3" target="_top" xlink:title="PHNode::getName">
<polygon fill="none" stroke="#000000" points="424.5,-486.5 424.5,-506.5 533.5,-506.5 533.5,-486.5 424.5,-486.5"/>
<text text-anchor="middle" x="479" y="-493.5" font-family="FreeSans" font-size="10.00" fill="#000000">PHNode::getName</text>
</a>
</g>
</g>
<!-- Node2&#45;&gt;Node4 -->
<g id="edge3" class="edge">
<title>Node2&#45;&gt;Node4</title>
<path fill="none" stroke="#191970" d="M333.3552,-525.4802C348.0952,-522.5936 364.1863,-519.4322 379,-516.5 392.0097,-513.9249 405.9677,-511.1444 419.2052,-508.4993"/>
<polygon fill="#191970" stroke="#191970" points="420.0404,-511.9016 429.1599,-506.5085 418.6676,-505.0375 420.0404,-511.9016"/>
</g>
<!-- Node5 -->
<g id="node5" class="node">
<title>Node5</title>
<g id="a_node5"><a xlink:href="../../dc/d82/classPHNode.html#adda2bd6cef2d5067bbe3016a990b7198" target="_top" xlink:title="PHNode::setParent">
<polygon fill="none" stroke="#000000" points="423.5,-564.5 423.5,-584.5 534.5,-584.5 534.5,-564.5 423.5,-564.5"/>
<text text-anchor="middle" x="479" y="-571.5" font-family="FreeSans" font-size="10.00" fill="#000000">PHNode::setParent</text>
</a>
</g>
</g>
<!-- Node2&#45;&gt;Node5 -->
<g id="edge4" class="edge">
<title>Node2&#45;&gt;Node5</title>
<path fill="none" stroke="#191970" d="M332.7324,-545.5435C358.9282,-550.7294 391.0714,-557.0928 418.5476,-562.5323"/>
<polygon fill="#191970" stroke="#191970" points="417.9502,-565.9818 428.4395,-564.4906 419.3096,-559.1151 417.9502,-565.9818"/>
</g>
<!-- Node7&#45;&gt;Node4 -->
<g id="edge8" class="edge">
<title>Node7&#45;&gt;Node4</title>
<path fill="none" stroke="#191970" d="M352.5651,-484.9476C372.6846,-486.7859 394.4992,-488.7791 414.2534,-490.5841"/>
<polygon fill="#191970" stroke="#191970" points="414.0989,-494.0844 424.3759,-491.509 414.7359,-487.1135 414.0989,-494.0844"/>
</g>
<!-- Node7&#45;&gt;Node7 -->
<g id="edge9" class="edge">
<title>Node7&#45;&gt;Node7</title>
<path fill="none" stroke="#191970" d="M251.3152,-488.7271C237.3186,-497.6067 247.5469,-507 282,-507 305.6865,-507 317.923,-502.5602 318.7095,-496.8999"/>
<polygon fill="#191970" stroke="#191970" points="321.4358,-494.6996 312.6848,-488.7271 315.8012,-498.8532 321.4358,-494.6996"/>
</g>
<!-- Node8 -->
<g id="node8" class="node">
<title>Node8</title>
<g id="a_node8"><a xlink:href="../../dc/d82/classPHNode.html#a4ab1f90aed955a652813bfe377087bda" target="_top" xlink:title="PHNode::getType">
<polygon fill="none" stroke="#000000" points="427.5,-447.5 427.5,-467.5 530.5,-467.5 530.5,-447.5 427.5,-447.5"/>
<text text-anchor="middle" x="479" y="-454.5" font-family="FreeSans" font-size="10.00" fill="#000000">PHNode::getType</text>
</a>
</g>
</g>
<!-- Node7&#45;&gt;Node8 -->
<g id="edge7" class="edge">
<title>Node7&#45;&gt;Node8</title>
<path fill="none" stroke="#191970" d="M352.5651,-470.9778C373.7213,-468.7226 396.7519,-466.2676 417.2903,-464.0782"/>
<polygon fill="#191970" stroke="#191970" points="417.8931,-467.5339 427.4657,-462.9935 417.1511,-460.5733 417.8931,-467.5339"/>
</g>
<!-- Node14 -->
<g id="node14" class="node">
<title>Node14</title>
<g id="a_node14"><a xlink:href="../../df/de1/g_8f.html#ab66fda597951401eedd2aa690ea3efb3" target="_top" xlink:title="g">
<polygon fill="none" stroke="#000000" points="464.5,-234.5 464.5,-254.5 493.5,-254.5 493.5,-234.5 464.5,-234.5"/>
<text text-anchor="middle" x="479" y="-241.5" font-family="FreeSans" font-size="10.00" fill="#000000">g</text>
</a>
</g>
</g>
<!-- Node13&#45;&gt;Node14 -->
<g id="edge15" class="edge">
<title>Node13&#45;&gt;Node14</title>
<path fill="none" stroke="#191970" d="M358.1653,-244.5C392.3424,-244.5 430.3063,-244.5 454.3974,-244.5"/>
<polygon fill="#191970" stroke="#191970" points="454.4266,-248.0001 464.4266,-244.5 454.4266,-241.0001 454.4266,-248.0001"/>
</g>
<!-- Node15 -->
<g id="node15" class="node">
<title>Node15</title>
<g id="a_node15"><a xlink:href="../../db/da1/classHiParnt.html#ac653b598baeeca89d06693fdf4688f38" target="_top" xlink:title="HiParnt::hint1">
<polygon fill="none" stroke="#000000" points="678,-449.5 678,-469.5 763,-469.5 763,-449.5 678,-449.5"/>
<text text-anchor="middle" x="720.5" y="-456.5" font-family="FreeSans" font-size="10.00" fill="#000000">HiParnt::hint1</text>
</a>
</g>
</g>
<!-- Node14&#45;&gt;Node15 -->
<g id="edge16" class="edge">
<title>Node14&#45;&gt;Node15</title>
<path fill="none" stroke="#191970" d="M482.3823,-254.676C492.4053,-283.3049 524.6879,-365.328 579,-409.5 604.4949,-430.235 639.216,-442.6753 667.8831,-449.9611"/>
<polygon fill="#191970" stroke="#191970" points="667.2047,-453.3976 677.7455,-452.3283 668.8386,-446.5909 667.2047,-453.3976"/>
</g>
<!-- Node19 -->
<g id="node19" class="node">
<title>Node19</title>
<g id="a_node19"><a xlink:href="../../db/da1/classHiParnt.html#a28a5a24ec376a6790e610d7fcc0f5b8e" target="_top" xlink:title="HiParnt::hipr1">
<polygon fill="none" stroke="#000000" points="678,-410.5 678,-430.5 763,-430.5 763,-410.5 678,-410.5"/>
<text text-anchor="middle" x="720.5" y="-417.5" font-family="FreeSans" font-size="10.00" fill="#000000">HiParnt::hipr1</text>
</a>
</g>
</g>
<!-- Node14&#45;&gt;Node19 -->
<g id="edge20" class="edge">
<title>Node14&#45;&gt;Node19</title>
<path fill="none" stroke="#191970" d="M483.3073,-254.8396C494.737,-280.9525 528.4576,-349.934 579,-384.5 605.0888,-402.3422 639.3317,-411.3441 667.5967,-415.8846"/>
<polygon fill="#191970" stroke="#191970" points="667.3123,-419.3802 677.7134,-417.3637 668.3249,-412.4538 667.3123,-419.3802"/>
</g>
<!-- Node21 -->
<g id="node21" class="node">
<title>Node21</title>
<g id="a_node21"><a xlink:href="../../db/da1/classHiParnt.html#a0d759f134daae3226a7744c9920bd769" target="_top" xlink:title="HiParnt::ihnt2">
<polygon fill="none" stroke="#000000" points="678,-371.5 678,-391.5 763,-391.5 763,-371.5 678,-371.5"/>
<text text-anchor="middle" x="720.5" y="-378.5" font-family="FreeSans" font-size="10.00" fill="#000000">HiParnt::ihnt2</text>
</a>
</g>
</g>
<!-- Node14&#45;&gt;Node21 -->
<g id="edge23" class="edge">
<title>Node14&#45;&gt;Node21</title>
<path fill="none" stroke="#191970" d="M484.1192,-254.5608C496.6624,-278.0471 531.4134,-336.4645 579,-362.5 605.8012,-377.1634 639.5952,-382.1114 667.436,-383.3001"/>
<polygon fill="#191970" stroke="#191970" points="667.6955,-386.8085 677.7877,-383.584 667.8875,-379.8111 667.6955,-386.8085"/>
</g>
<!-- Node23 -->
<g id="node23" class="node">
<title>Node23</title>
<g id="a_node23"><a xlink:href="../../db/da1/classHiParnt.html#a1c6a5924524a08fe9641adc64095c0b9" target="_top" xlink:title="HiParnt::ihpr2">
<polygon fill="none" stroke="#000000" points="678,-293.5 678,-313.5 763,-313.5 763,-293.5 678,-293.5"/>
<text text-anchor="middle" x="720.5" y="-300.5" font-family="FreeSans" font-size="10.00" fill="#000000">HiParnt::ihpr2</text>
</a>
</g>
</g>
<!-- Node14&#45;&gt;Node23 -->
<g id="edge26" class="edge">
<title>Node14&#45;&gt;Node23</title>
<path fill="none" stroke="#191970" d="M493.5217,-251.6375C512.644,-260.7233 547.5331,-276.2304 579,-284.5 607.9093,-292.0974 640.9817,-296.7533 667.8799,-299.5529"/>
<polygon fill="#191970" stroke="#191970" points="667.5699,-303.0393 677.8651,-300.5373 668.2567,-296.073 667.5699,-303.0393"/>
</g>
<!-- Node25 -->
<g id="node25" class="node">
<title>Node25</title>
<g id="a_node25"><a xlink:href="../../db/d20/parton_8f.html#aa0edf2e3bc4c9634a0c0e2ee25615ad2" target="_top" xlink:title="parton">
<polygon fill="none" stroke="#000000" points="582.5,-332.5 582.5,-352.5 631.5,-352.5 631.5,-332.5 582.5,-332.5"/>
<text text-anchor="middle" x="607" y="-339.5" font-family="FreeSans" font-size="10.00" fill="#000000">parton</text>
</a>
</g>
</g>
<!-- Node14&#45;&gt;Node25 -->
<g id="edge29" class="edge">
<title>Node14&#45;&gt;Node25</title>
<path fill="none" stroke="#191970" d="M492.2161,-254.6186C514.3487,-271.5638 559.0956,-305.8232 585.7113,-326.2008"/>
<polygon fill="#191970" stroke="#191970" points="583.5962,-328.9895 593.664,-332.2896 587.8516,-323.4314 583.5962,-328.9895"/>
</g>
<!-- Node38 -->
<g id="node38" class="node">
<title>Node38</title>
<g id="a_node38"><a xlink:href="../../df/dbd/subcrs1_8f.html#a80ed92a4b950b1bc7a4645a50f2fe238" target="_top" xlink:title="subcrs1">
<polygon fill="none" stroke="#000000" points="579.5,-254.5 579.5,-274.5 634.5,-274.5 634.5,-254.5 579.5,-254.5"/>
<text text-anchor="middle" x="607" y="-261.5" font-family="FreeSans" font-size="10.00" fill="#000000">subcrs1</text>
</a>
</g>
</g>
<!-- Node14&#45;&gt;Node38 -->
<g id="edge47" class="edge">
<title>Node14&#45;&gt;Node38</title>
<path fill="none" stroke="#191970" d="M493.6832,-246.7943C511.9212,-249.6439 543.7165,-254.6119 568.9942,-258.5616"/>
<polygon fill="#191970" stroke="#191970" points="568.5982,-262.0421 579.0186,-260.1279 569.6789,-255.126 568.5982,-262.0421"/>
</g>
<!-- Node39 -->
<g id="node39" class="node">
<title>Node39</title>
<g id="a_node39"><a xlink:href="../../d9/d3c/subcrs2_8f.html#a8675bc8ab9d784589f12a921083febd0" target="_top" xlink:title="subcrs2">
<polygon fill="none" stroke="#000000" points="579.5,-215.5 579.5,-235.5 634.5,-235.5 634.5,-215.5 579.5,-215.5"/>
<text text-anchor="middle" x="607" y="-222.5" font-family="FreeSans" font-size="10.00" fill="#000000">subcrs2</text>
</a>
</g>
</g>
<!-- Node14&#45;&gt;Node39 -->
<g id="edge48" class="edge">
<title>Node14&#45;&gt;Node39</title>
<path fill="none" stroke="#191970" d="M493.6832,-242.3205C511.9212,-239.6133 543.7165,-234.8936 568.9942,-231.1415"/>
<polygon fill="#191970" stroke="#191970" points="569.6409,-234.5839 579.0186,-229.6535 568.6131,-227.6598 569.6409,-234.5839"/>
</g>
<!-- Node40 -->
<g id="node40" class="node">
<title>Node40</title>
<g id="a_node40"><a xlink:href="../../da/d28/subcrs3_8f.html#ad007962b7dec45c1f9f82b40049e322a" target="_top" xlink:title="subcrs3">
<polygon fill="none" stroke="#000000" points="579.5,-176.5 579.5,-196.5 634.5,-196.5 634.5,-176.5 579.5,-176.5"/>
<text text-anchor="middle" x="607" y="-183.5" font-family="FreeSans" font-size="10.00" fill="#000000">subcrs3</text>
</a>
</g>
</g>
<!-- Node14&#45;&gt;Node40 -->
<g id="edge49" class="edge">
<title>Node14&#45;&gt;Node40</title>
<path fill="none" stroke="#191970" d="M493.6832,-237.8467C513.568,-228.8364 549.5689,-212.5235 575.6674,-200.6976"/>
<polygon fill="#191970" stroke="#191970" points="577.1224,-203.8809 584.7863,-196.5656 574.2332,-197.5049 577.1224,-203.8809"/>
</g>
<!-- Node41 -->
<g id="node41" class="node">
<title>Node41</title>
<g id="a_node41"><a xlink:href="../../db/d57/subcrs4_8f.html#a5469d7fcc2d0d225eb5498e6e0f22593" target="_top" xlink:title="subcrs4">
<polygon fill="none" stroke="#000000" points="579,-137.5 579,-157.5 635,-157.5 635,-137.5 579,-137.5"/>
<text text-anchor="middle" x="607" y="-144.5" font-family="FreeSans" font-size="10.00" fill="#000000">subcrs4</text>
</a>
</g>
</g>
<!-- Node14&#45;&gt;Node41 -->
<g id="edge50" class="edge">
<title>Node14&#45;&gt;Node41</title>
<path fill="none" stroke="#191970" d="M491.4242,-234.3782C510.133,-219.2358 546.7821,-189.9566 579,-166.5 580.404,-165.4778 581.8571,-164.4383 583.3293,-163.3992"/>
<polygon fill="#191970" stroke="#191970" points="585.5224,-166.1381 591.76,-157.574 581.5432,-160.3791 585.5224,-166.1381"/>
</g>
<!-- Node42 -->
<g id="node42" class="node">
<title>Node42</title>
<g id="a_node42"><a xlink:href="../../dc/d30/subcrs5_8f.html#aa74d858d6a64c2fb995cb5de6b200077" target="_top" xlink:title="subcrs5">
<polygon fill="none" stroke="#000000" points="579.5,-98.5 579.5,-118.5 634.5,-118.5 634.5,-98.5 579.5,-98.5"/>
<text text-anchor="middle" x="607" y="-105.5" font-family="FreeSans" font-size="10.00" fill="#000000">subcrs5</text>
</a>
</g>
</g>
<!-- Node14&#45;&gt;Node42 -->
<g id="edge51" class="edge">
<title>Node14&#45;&gt;Node42</title>
<path fill="none" stroke="#191970" d="M486.2352,-234.3139C501.6996,-212.9637 539.77,-162.5998 579,-127.5 580.0945,-126.5207 581.2423,-125.5515 582.4225,-124.5997"/>
<polygon fill="#191970" stroke="#191970" points="584.5053,-127.4126 590.4605,-118.6498 580.3406,-121.7863 584.5053,-127.4126"/>
</g>
<!-- Node43 -->
<g id="node43" class="node">
<title>Node43</title>
<g id="a_node43"><a xlink:href="../../d8/db8/subcrs6_8f.html#a613c668506b47494c9b8e2dc5c8d2b37" target="_top" xlink:title="subcrs6">
<polygon fill="none" stroke="#000000" points="579,-59.5 579,-79.5 635,-79.5 635,-59.5 579,-59.5"/>
<text text-anchor="middle" x="607" y="-66.5" font-family="FreeSans" font-size="10.00" fill="#000000">subcrs6</text>
</a>
</g>
</g>
<!-- Node14&#45;&gt;Node43 -->
<g id="edge52" class="edge">
<title>Node14&#45;&gt;Node43</title>
<path fill="none" stroke="#191970" d="M483.6618,-234.4042C496.184,-208.0561 532.7566,-135.9691 579,-88.5 579.8993,-87.5769 580.8501,-86.6724 581.8369,-85.7903"/>
<polygon fill="#191970" stroke="#191970" points="584.1302,-88.44 589.8516,-79.5228 579.8182,-82.9258 584.1302,-88.44"/>
</g>
<!-- Node44 -->
<g id="node44" class="node">
<title>Node44</title>
<g id="a_node44"><a xlink:href="../../d5/d6a/subcrs7_8f.html#a19bfa2f005cd1007a31c5279f9d80fc0" target="_top" xlink:title="subcrs7">
<polygon fill="none" stroke="#000000" points="579.5,-20.5 579.5,-40.5 634.5,-40.5 634.5,-20.5 579.5,-20.5"/>
<text text-anchor="middle" x="607" y="-27.5" font-family="FreeSans" font-size="10.00" fill="#000000">subcrs7</text>
</a>
</g>
</g>
<!-- Node14&#45;&gt;Node44 -->
<g id="edge53" class="edge">
<title>Node14&#45;&gt;Node44</title>
<path fill="none" stroke="#191970" d="M482.253,-234.1161C492.3674,-203.1097 525.8118,-109.6289 579,-49.5 579.7395,-48.664 580.5235,-47.8474 581.3413,-47.0519"/>
<polygon fill="#191970" stroke="#191970" points="583.8081,-49.5556 589.3254,-40.5107 579.3719,-44.1408 583.8081,-49.5556"/>
</g>
<!-- Node16 -->
<g id="node16" class="node">
<title>Node16</title>
<g id="a_node16"><a xlink:href="../../db/da1/classHiParnt.html#aec7bbf54e836c6b58a40be4e79292972" target="_top" xlink:title="HiParnt::init">
<polygon fill="none" stroke="#000000" points="849.5,-371.5 849.5,-391.5 925.5,-391.5 925.5,-371.5 849.5,-371.5"/>
<text text-anchor="middle" x="887.5" y="-378.5" font-family="FreeSans" font-size="10.00" fill="#000000">HiParnt::init</text>
</a>
</g>
</g>
<!-- Node15&#45;&gt;Node16 -->
<g id="edge17" class="edge">
<title>Node15&#45;&gt;Node16</title>
<path fill="none" stroke="#191970" d="M752.9962,-449.4938C758.8986,-447.0008 764.8195,-444.0133 770,-440.5 789.5229,-427.2598 785.6832,-413.4863 806,-401.5 816.0934,-395.5452 827.8902,-391.358 839.3234,-388.4154"/>
<polygon fill="#191970" stroke="#191970" points="840.2649,-391.7904 849.2253,-386.1368 838.6951,-384.9686 840.2649,-391.7904"/>
</g>
<!-- Node18 -->
<g id="node18" class="node">
<title>Node18</title>
<g id="a_node18"><a xlink:href="../../db/da1/classHiParnt.html#a1074072a5774a085cecf879899a44ab3" target="_top" xlink:title="HiParnt::lenHint1">
<polygon fill="none" stroke="#000000" points="836.5,-449.5 836.5,-469.5 938.5,-469.5 938.5,-449.5 836.5,-449.5"/>
<text text-anchor="middle" x="887.5" y="-456.5" font-family="FreeSans" font-size="10.00" fill="#000000">HiParnt::lenHint1</text>
</a>
</g>
</g>
<!-- Node15&#45;&gt;Node18 -->
<g id="edge19" class="edge">
<title>Node15&#45;&gt;Node18</title>
<path fill="none" stroke="#191970" d="M763.0733,-459.5C782.2571,-459.5 805.2701,-459.5 826.2589,-459.5"/>
<polygon fill="#191970" stroke="#191970" points="826.3743,-463.0001 836.3742,-459.5 826.3742,-456.0001 826.3743,-463.0001"/>
</g>
<!-- Node17 -->
<g id="node17" class="node">
<title>Node17</title>
<g id="a_node17"><a xlink:href="../../d4/d0f/HiParnt_8h.html#ae387711cf1ed2f3d5908e93a113f27e7" target="_top" xlink:title="hiparnt_address_">
<polygon fill="none" stroke="#000000" points="1028.5,-371.5 1028.5,-391.5 1131.5,-391.5 1131.5,-371.5 1028.5,-371.5"/>
<text text-anchor="middle" x="1080" y="-378.5" font-family="FreeSans" font-size="10.00" fill="#000000">hiparnt_address_</text>
</a>
</g>
</g>
<!-- Node16&#45;&gt;Node17 -->
<g id="edge18" class="edge">
<title>Node16&#45;&gt;Node17</title>
<path fill="none" stroke="#191970" d="M925.5318,-381.5C951.9145,-381.5 987.645,-381.5 1018.0964,-381.5"/>
<polygon fill="#191970" stroke="#191970" points="1018.1999,-385.0001 1028.1999,-381.5 1018.1999,-378.0001 1018.1999,-385.0001"/>
</g>
<!-- Node19&#45;&gt;Node16 -->
<g id="edge21" class="edge">
<title>Node19&#45;&gt;Node16</title>
<path fill="none" stroke="#191970" d="M763.0733,-410.5577C786.3264,-405.1274 815.2054,-398.3832 839.2863,-392.7595"/>
<polygon fill="#191970" stroke="#191970" points="840.3405,-396.1075 849.2825,-390.425 838.7486,-389.291 840.3405,-396.1075"/>
</g>
<!-- Node20 -->
<g id="node20" class="node">
<title>Node20</title>
<g id="a_node20"><a xlink:href="../../db/da1/classHiParnt.html#a976a341872dd6ef684a319c5e262be46" target="_top" xlink:title="HiParnt::lenHipr1">
<polygon fill="none" stroke="#000000" points="836.5,-410.5 836.5,-430.5 938.5,-430.5 938.5,-410.5 836.5,-410.5"/>
<text text-anchor="middle" x="887.5" y="-417.5" font-family="FreeSans" font-size="10.00" fill="#000000">HiParnt::lenHipr1</text>
</a>
</g>
</g>
<!-- Node19&#45;&gt;Node20 -->
<g id="edge22" class="edge">
<title>Node19&#45;&gt;Node20</title>
<path fill="none" stroke="#191970" d="M763.0733,-420.5C782.2571,-420.5 805.2701,-420.5 826.2589,-420.5"/>
<polygon fill="#191970" stroke="#191970" points="826.3743,-424.0001 836.3742,-420.5 826.3742,-417.0001 826.3743,-424.0001"/>
</g>
<!-- Node21&#45;&gt;Node16 -->
<g id="edge24" class="edge">
<title>Node21&#45;&gt;Node16</title>
<path fill="none" stroke="#191970" d="M763.0733,-381.5C786.2226,-381.5 814.9477,-381.5 838.9635,-381.5"/>
<polygon fill="#191970" stroke="#191970" points="839.2826,-385.0001 849.2825,-381.5 839.2825,-378.0001 839.2826,-385.0001"/>
</g>
<!-- Node22 -->
<g id="node22" class="node">
<title>Node22</title>
<g id="a_node22"><a xlink:href="../../db/da1/classHiParnt.html#a2583f210ac7e15c429d879a65e9626b2" target="_top" xlink:title="HiParnt::lenIhnt2">
<polygon fill="none" stroke="#000000" points="837,-332.5 837,-352.5 938,-352.5 938,-332.5 837,-332.5"/>
<text text-anchor="middle" x="887.5" y="-339.5" font-family="FreeSans" font-size="10.00" fill="#000000">HiParnt::lenIhnt2</text>
</a>
</g>
</g>
<!-- Node21&#45;&gt;Node22 -->
<g id="edge25" class="edge">
<title>Node21&#45;&gt;Node22</title>
<path fill="none" stroke="#191970" d="M763.0733,-371.5577C784.7916,-366.4858 811.4175,-360.2678 834.4581,-354.887"/>
<polygon fill="#191970" stroke="#191970" points="835.4818,-358.2422 844.4238,-352.5597 833.8899,-351.4256 835.4818,-358.2422"/>
</g>
<!-- Node23&#45;&gt;Node16 -->
<g id="edge27" class="edge">
<title>Node23&#45;&gt;Node16</title>
<path fill="none" stroke="#191970" d="M751.427,-313.5403C757.8408,-316.2846 764.3573,-319.6008 770,-323.5 789.4063,-336.9104 785.614,-350.6318 806,-362.5 816.0997,-368.3798 827.8988,-372.4404 839.3323,-375.2446"/>
<polygon fill="#191970" stroke="#191970" points="838.7183,-378.6928 849.2339,-377.3996 840.207,-371.8529 838.7183,-378.6928"/>
</g>
<!-- Node24 -->
<g id="node24" class="node">
<title>Node24</title>
<g id="a_node24"><a xlink:href="../../db/da1/classHiParnt.html#aa2f216c88e3e9ec0634df4755e281c85" target="_top" xlink:title="HiParnt::lenIhpr2">
<polygon fill="none" stroke="#000000" points="837,-293.5 837,-313.5 938,-313.5 938,-293.5 837,-293.5"/>
<text text-anchor="middle" x="887.5" y="-300.5" font-family="FreeSans" font-size="10.00" fill="#000000">HiParnt::lenIhpr2</text>
</a>
</g>
</g>
<!-- Node23&#45;&gt;Node24 -->
<g id="edge28" class="edge">
<title>Node23&#45;&gt;Node24</title>
<path fill="none" stroke="#191970" d="M763.0733,-303.5C782.4232,-303.5 805.6688,-303.5 826.8036,-303.5"/>
<polygon fill="#191970" stroke="#191970" points="826.983,-307.0001 836.9829,-303.5 826.9829,-300.0001 826.983,-307.0001"/>
</g>
<!-- Node25&#45;&gt;Node15 -->
<g id="edge42" class="edge">
<title>Node25&#45;&gt;Node15</title>
<path fill="none" stroke="#191970" d="M611.0468,-352.6017C619.3909,-372.2229 640.3312,-415.7305 671,-440.5 672.8037,-441.9568 674.7317,-443.3108 676.742,-444.5682"/>
<polygon fill="#191970" stroke="#191970" points="675.4826,-447.8632 685.9532,-449.4814 678.7771,-441.6869 675.4826,-447.8632"/>
</g>
<!-- Node25&#45;&gt;Node19 -->
<g id="edge43" class="edge">
<title>Node25&#45;&gt;Node19</title>
<path fill="none" stroke="#191970" d="M615.6165,-352.513C627.1224,-365.3579 648.6605,-387.6298 671,-401.5 673.7762,-403.2237 676.7343,-404.8347 679.7705,-406.3311"/>
<polygon fill="#191970" stroke="#191970" points="678.4529,-409.576 689.0095,-410.4748 681.3175,-403.189 678.4529,-409.576"/>
</g>
<!-- Node25&#45;&gt;Node21 -->
<g id="edge44" class="edge">
<title>Node25&#45;&gt;Node21</title>
<path fill="none" stroke="#191970" d="M631.6278,-350.9624C646.0976,-355.9344 664.7218,-362.3339 681.1799,-367.9891"/>
<polygon fill="#191970" stroke="#191970" points="680.4963,-371.4551 691.091,-371.3947 682.7711,-364.835 680.4963,-371.4551"/>
</g>
<!-- Node25&#45;&gt;Node23 -->
<g id="edge45" class="edge">
<title>Node25&#45;&gt;Node23</title>
<path fill="none" stroke="#191970" d="M631.6278,-334.0376C646.0976,-329.0656 664.7218,-322.6661 681.1799,-317.0109"/>
<polygon fill="#191970" stroke="#191970" points="682.7711,-320.165 691.091,-313.6053 680.4963,-313.5449 682.7711,-320.165"/>
</g>
<!-- Node26 -->
<g id="node26" class="node">
<title>Node26</title>
<g id="a_node26"><a xlink:href="../../de/dd7/exceptiondfe_1_1Variable.html#ad546b80a148ce91384638a73e6293e3f" target="_top" xlink:title="dfe::Variable::as">
<polygon fill="none" stroke="#000000" points="671,-332.5 671,-352.5 770,-352.5 770,-332.5 671,-332.5"/>
<text text-anchor="middle" x="720.5" y="-339.5" font-family="FreeSans" font-size="10.00" fill="#000000">dfe::Variable::as</text>
</a>
</g>
</g>
<!-- Node25&#45;&gt;Node26 -->
<g id="edge30" class="edge">
<title>Node25&#45;&gt;Node26</title>
<path fill="none" stroke="#191970" d="M631.6278,-342.5C640.2339,-342.5 650.3096,-342.5 660.5251,-342.5"/>
<polygon fill="#191970" stroke="#191970" points="660.7379,-346.0001 670.7379,-342.5 660.7379,-339.0001 660.7379,-346.0001"/>
</g>
<!-- Node27 -->
<g id="node27" class="node">
<title>Node27</title>
<g id="a_node27"><a xlink:href="../../dc/dc6/gmre_8f.html#aa6e860c7d81623b3000169df288e5688" target="_top" xlink:title="gmre">
<polygon fill="none" stroke="#000000" points="699.5,-254.5 699.5,-274.5 741.5,-274.5 741.5,-254.5 699.5,-254.5"/>
<text text-anchor="middle" x="720.5" y="-261.5" font-family="FreeSans" font-size="10.00" fill="#000000">gmre</text>
</a>
</g>
</g>
<!-- Node25&#45;&gt;Node27 -->
<g id="edge31" class="edge">
<title>Node25&#45;&gt;Node27</title>
<path fill="none" stroke="#191970" d="M616.0923,-332.2901C627.7701,-319.6745 649.1497,-298.2027 671,-284.5 676.9089,-280.7944 683.621,-277.5392 690.1536,-274.7898"/>
<polygon fill="#191970" stroke="#191970" points="691.4508,-278.0407 699.4816,-271.13 688.8941,-271.5243 691.4508,-278.0407"/>
</g>
<!-- Node28 -->
<g id="node28" class="node">
<title>Node28</title>
<g id="a_node28"><a xlink:href="../../d3/df2/classgenfit_1_1GFRavePropagator.html#a0534e516b69488120356d8bfa53f6f5b" target="_top" xlink:title="genfit::GFRavePropagator::to">
<polygon fill="none" stroke="#000000" points="806,-235.5 806,-255.5 969,-255.5 969,-235.5 806,-235.5"/>
<text text-anchor="middle" x="887.5" y="-242.5" font-family="FreeSans" font-size="10.00" fill="#000000">genfit::GFRavePropagator::to</text>
</a>
</g>
</g>
<!-- Node25&#45;&gt;Node28 -->
<g id="edge46" class="edge">
<title>Node25&#45;&gt;Node28</title>
<path fill="none" stroke="#191970" d="M612.106,-332.2195C623.8287,-309.0914 653.0401,-254.2216 671,-244.5 724.1647,-215.7221 795.9827,-223.4993 842.0304,-233.258"/>
<polygon fill="#191970" stroke="#191970" points="841.494,-236.7245 852.0168,-235.4913 843.0217,-229.8932 841.494,-236.7245"/>
</g>
<!-- Node27&#45;&gt;Node28 -->
<g id="edge32" class="edge">
<title>Node27&#45;&gt;Node28</title>
<path fill="none" stroke="#191970" d="M741.6507,-262.0936C755.7553,-260.4889 775.3744,-258.2568 795.6566,-255.9492"/>
<polygon fill="#191970" stroke="#191970" points="796.1052,-259.4209 805.6454,-254.8128 795.3138,-252.4658 796.1052,-259.4209"/>
</g>
<!-- Node29 -->
<g id="node29" class="node">
<title>Node29</title>
<g id="a_node29"><a xlink:href="../../dc/d22/namespacegenfit.html#aec5c8cb927a354edfb23af80108b69d4" target="_top" xlink:title="genfit::PlaneToGFDetPlane">
<polygon fill="none" stroke="#000000" points="1005,-184.5 1005,-204.5 1155,-204.5 1155,-184.5 1005,-184.5"/>
<text text-anchor="middle" x="1080" y="-191.5" font-family="FreeSans" font-size="10.00" fill="#000000">genfit::PlaneToGFDetPlane</text>
</a>
</g>
</g>
<!-- Node28&#45;&gt;Node29 -->
<g id="edge33" class="edge">
<title>Node28&#45;&gt;Node29</title>
<path fill="none" stroke="#191970" d="M925.5318,-235.424C956.1158,-227.3213 999.262,-215.8903 1032.1836,-207.1682"/>
<polygon fill="#191970" stroke="#191970" points="1033.2771,-210.4994 1042.0472,-204.555 1031.4843,-203.7328 1033.2771,-210.4994"/>
</g>
<!-- Node32 -->
<g id="node32" class="node">
<title>Node32</title>
<g id="a_node32"><a xlink:href="../../dc/d22/namespacegenfit.html#a16248965fc33843bb4f2d9bd8b0a7ce7" target="_top" xlink:title="genfit::GFTrackToTrack">
<polygon fill="none" stroke="#ff0000" points="1015,-293.5 1015,-313.5 1145,-313.5 1145,-293.5 1015,-293.5"/>
<text text-anchor="middle" x="1080" y="-300.5" font-family="FreeSans" font-size="10.00" fill="#000000">genfit::GFTrackToTrack</text>
</a>
</g>
</g>
<!-- Node28&#45;&gt;Node32 -->
<g id="edge36" class="edge">
<title>Node28&#45;&gt;Node32</title>
<path fill="none" stroke="#191970" d="M921.0309,-255.6028C953.0906,-265.2624 1001.5938,-279.8763 1036.5907,-290.4208"/>
<polygon fill="#191970" stroke="#191970" points="1035.9463,-293.882 1046.5309,-293.4158 1037.9658,-287.1797 1035.9463,-293.882"/>
</g>
<!-- Node30 -->
<g id="node30" class="node">
<title>Node30</title>
<g id="a_node30"><a xlink:href="../../dc/d22/namespacegenfit.html#ad8550f9eaa6237f8ddf48aefd57dfe58" target="_top" xlink:title="genfit::Point3DToTVector3">
<polygon fill="none" stroke="#000000" points="1202.5,-145.5 1202.5,-165.5 1349.5,-165.5 1349.5,-145.5 1202.5,-145.5"/>
<text text-anchor="middle" x="1276" y="-152.5" font-family="FreeSans" font-size="10.00" fill="#000000">genfit::Point3DToTVector3</text>
</a>
</g>
</g>
<!-- Node29&#45;&gt;Node30 -->
<g id="edge34" class="edge">
<title>Node29&#45;&gt;Node30</title>
<path fill="none" stroke="#191970" d="M1130.4749,-184.4565C1156.5377,-179.2706 1188.5178,-172.9072 1215.8544,-167.4677"/>
<polygon fill="#191970" stroke="#191970" points="1216.5715,-170.8938 1225.6962,-165.5094 1215.2054,-164.0283 1216.5715,-170.8938"/>
</g>
<!-- Node31 -->
<g id="node31" class="node">
<title>Node31</title>
<g id="a_node31"><a xlink:href="../../dc/d22/namespacegenfit.html#ad3ecb92a152c9ea7f5290e3653910473" target="_top" xlink:title="genfit::Vector3DToTVector3">
<polygon fill="none" stroke="#000000" points="1199,-184.5 1199,-204.5 1353,-204.5 1353,-184.5 1199,-184.5"/>
<text text-anchor="middle" x="1276" y="-191.5" font-family="FreeSans" font-size="10.00" fill="#000000">genfit::Vector3DToTVector3</text>
</a>
</g>
</g>
<!-- Node29&#45;&gt;Node31 -->
<g id="edge35" class="edge">
<title>Node29&#45;&gt;Node31</title>
<path fill="none" stroke="#191970" d="M1155.2182,-194.5C1166.1284,-194.5 1177.4374,-194.5 1188.5627,-194.5"/>
<polygon fill="#191970" stroke="#191970" points="1188.7115,-198.0001 1198.7115,-194.5 1188.7114,-191.0001 1188.7115,-198.0001"/>
</g>
<!-- Node33 -->
<g id="node33" class="node">
<title>Node33</title>
<g id="a_node33"><a xlink:href="../../d6/d8a/classgenfit_1_1Track.html#ad06e7a012624bdb03960826b5c9fcd93" target="_top" xlink:title="Get FitStatus for a AbsTrackRep. Per default, return FitStatus for cardinalRep.">
<polygon fill="none" stroke="#ff0000" points="1203,-223.5 1203,-243.5 1349,-243.5 1349,-223.5 1203,-223.5"/>
<text text-anchor="middle" x="1276" y="-230.5" font-family="FreeSans" font-size="10.00" fill="#000000">genfit::Track::getFitStatus</text>
</a>
</g>
</g>
<!-- Node32&#45;&gt;Node33 -->
<g id="edge37" class="edge">
<title>Node32&#45;&gt;Node33</title>
<path fill="none" stroke="#191970" d="M1098.7513,-293.3979C1120.4296,-282.0734 1157.4408,-263.819 1191,-252.5 1198.0734,-250.1143 1205.5796,-247.9421 1213.0887,-245.9898"/>
<polygon fill="#191970" stroke="#191970" points="1214.0621,-249.3546 1222.9257,-243.5506 1212.3773,-242.5603 1214.0621,-249.3546"/>
</g>
<!-- Node34 -->
<g id="node34" class="node">
<title>Node34</title>
<g id="a_node34"><a xlink:href="../../d0/d8d/classgenfit_1_1FitStatus.html#a56371ce504bee72fcf2f9324ddcb91a8" target="_top" xlink:title="Did the fit converge (in all Points or only partially)?">
<polygon fill="none" stroke="#000000" points="1225,-415.5 1225,-447.5 1327,-447.5 1327,-415.5 1225,-415.5"/>
<text text-anchor="start" x="1233" y="-434.5" font-family="FreeSans" font-size="10.00" fill="#000000">genfit::FitStatus::</text>
<text text-anchor="middle" x="1276" y="-422.5" font-family="FreeSans" font-size="10.00" fill="#000000">isFitConverged</text>
</a>
</g>
</g>
<!-- Node32&#45;&gt;Node34 -->
<g id="edge38" class="edge">
<title>Node32&#45;&gt;Node34</title>
<path fill="none" stroke="#191970" d="M1094.5821,-313.5109C1110.2797,-324.6108 1135.6048,-343.4731 1155,-362.5 1173.0369,-380.1944 1169.9424,-392.5358 1191,-406.5 1198.3581,-411.3795 1206.6898,-415.3277 1215.1884,-418.5169"/>
<polygon fill="#191970" stroke="#191970" points="1214.2171,-421.8836 1224.8117,-421.8043 1216.4801,-415.2595 1214.2171,-421.8836"/>
</g>
<!-- Node35 -->
<g id="node35" class="node">
<title>Node35</title>
<g id="a_node35"><a xlink:href="../../d6/d8a/classgenfit_1_1Track.html#abf156957d701a9a10a02fef8ac54e4d9" target="_top" xlink:title="Shortcut to get FittedStates.">
<polygon fill="none" stroke="#ff0000" points="1211,-364.5 1211,-396.5 1341,-396.5 1341,-364.5 1211,-364.5"/>
<text text-anchor="start" x="1219" y="-383.5" font-family="FreeSans" font-size="10.00" fill="#000000">genfit::Track::getFitted</text>
<text text-anchor="middle" x="1276" y="-371.5" font-family="FreeSans" font-size="10.00" fill="#000000">State</text>
</a>
</g>
</g>
<!-- Node32&#45;&gt;Node35 -->
<g id="edge39" class="edge">
<title>Node32&#45;&gt;Node35</title>
<path fill="none" stroke="#191970" d="M1099.2621,-313.6223C1121.0997,-324.8372 1157.9646,-342.9869 1191,-355.5 1196.2144,-357.4751 1201.6565,-359.3921 1207.1571,-361.2279"/>
<polygon fill="#191970" stroke="#191970" points="1206.4931,-364.6917 1217.0849,-364.4396 1208.6477,-358.0315 1206.4931,-364.6917"/>
</g>
<!-- Node36 -->
<g id="node36" class="node">
<title>Node36</title>
<g id="a_node36"><a xlink:href="../../d2/d74/classgenfit_1_1MeasuredStateOnPlane.html#a3aab44a6c7155b8258fa34469bc45bc0" target="_top" xlink:title="genfit::MeasuredStateOnPlane\l::getPosMomCov">
<polygon fill="none" stroke="#ff0000" points="1191,-313.5 1191,-345.5 1361,-345.5 1361,-313.5 1191,-313.5"/>
<text text-anchor="start" x="1199" y="-332.5" font-family="FreeSans" font-size="10.00" fill="#000000">genfit::MeasuredStateOnPlane</text>
<text text-anchor="middle" x="1276" y="-320.5" font-family="FreeSans" font-size="10.00" fill="#000000">::getPosMomCov</text>
</a>
</g>
</g>
<!-- Node32&#45;&gt;Node36 -->
<g id="edge40" class="edge">
<title>Node32&#45;&gt;Node36</title>
<path fill="none" stroke="#191970" d="M1145.2652,-312.1576C1156.6622,-313.6695 1168.7266,-315.2699 1180.7361,-316.863"/>
<polygon fill="#191970" stroke="#191970" points="1180.4219,-320.3519 1190.7954,-318.1973 1181.3425,-313.4126 1180.4219,-320.3519"/>
</g>
<!-- Node37 -->
<g id="node37" class="node">
<title>Node37</title>
<g id="a_node37"><a xlink:href="../../d0/d8d/classgenfit_1_1FitStatus.html#a7e8ed1d97eec3e3164dc2dd782f5cb85" target="_top" xlink:title="Get the fitted charge.">
<polygon fill="none" stroke="#000000" points="1225,-262.5 1225,-294.5 1327,-294.5 1327,-262.5 1225,-262.5"/>
<text text-anchor="start" x="1233" y="-281.5" font-family="FreeSans" font-size="10.00" fill="#000000">genfit::FitStatus::</text>
<text text-anchor="middle" x="1276" y="-269.5" font-family="FreeSans" font-size="10.00" fill="#000000">getCharge</text>
</a>
</g>
</g>
<!-- Node32&#45;&gt;Node37 -->
<g id="edge41" class="edge">
<title>Node32&#45;&gt;Node37</title>
<path fill="none" stroke="#191970" d="M1145.2652,-295.1754C1167.766,-292.3054 1192.8681,-289.1036 1215.0139,-286.2788"/>
<polygon fill="#191970" stroke="#191970" points="1215.4843,-289.7473 1224.9611,-285.0101 1214.5986,-282.8035 1215.4843,-289.7473"/>
</g>
</g>
</svg>
