<?xml version="1.0" encoding="UTF-8" standalone="no"?>
<!DOCTYPE svg PUBLIC "-//W3C//DTD SVG 1.1//EN"
 "http://www.w3.org/Graphics/SVG/1.1/DTD/svg11.dtd">
<!-- Generated by graphviz version 2.40.1 (20161225.0304)
 -->
<!-- Title: fun4all_coresoftware/blob/master/offline/QA/modules/QAG4SimulationJet.h Pages: 1 -->
<svg width="569pt" height="224pt"
 viewBox="0.00 0.00 569.00 224.00" xmlns="http://www.w3.org/2000/svg" xmlns:xlink="http://www.w3.org/1999/xlink">
<g id="graph0" class="graph" transform="scale(1 1) rotate(0) translate(4 220)">
<title>fun4all_coresoftware/blob/master/offline/QA/modules/QAG4SimulationJet.h</title>
<!-- Node1 -->
<g id="node1" class="node">
<title>Node1</title>
<polygon fill="#bfbfbf" stroke="#000000" points="220,-171.5 220,-215.5 411,-215.5 411,-171.5 220,-171.5"/>
<text text-anchor="start" x="228" y="-202.5" font-family="FreeSans" font-size="10.00" fill="#000000">fun4all_coresoftware</text>
<text text-anchor="start" x="228" y="-190.5" font-family="FreeSans" font-size="10.00" fill="#000000">/blob/master/offline</text>
<text text-anchor="middle" x="315.5" y="-178.5" font-family="FreeSans" font-size="10.00" fill="#000000">/QA/modules/QAG4SimulationJet.h</text>
</g>
<!-- Node2 -->
<g id="node2" class="node">
<title>Node2</title>
<g id="a_node2"><a xlink:href="../../d5/dc2/SubsysReco_8h.html" target="_top" xlink:title="fun4all/SubsysReco.h">
<polygon fill="none" stroke="#000000" points="1.5,-114.5 1.5,-134.5 125.5,-134.5 125.5,-114.5 1.5,-114.5"/>
<text text-anchor="middle" x="63.5" y="-121.5" font-family="FreeSans" font-size="10.00" fill="#000000">fun4all/SubsysReco.h</text>
</a>
</g>
</g>
<!-- Node1&#45;&gt;Node2 -->
<g id="edge1" class="edge">
<title>Node1&#45;&gt;Node2</title>
<path fill="none" stroke="#191970" d="M235.0728,-171.4783C193.9071,-160.2067 145.2409,-146.8814 110.2733,-137.307"/>
<polygon fill="#191970" stroke="#191970" points="110.9083,-133.8521 100.339,-134.5869 109.0596,-140.6036 110.9083,-133.8521"/>
</g>
<!-- Node5 -->
<g id="node5" class="node">
<title>Node5</title>
<polygon fill="none" stroke="#bfbfbf" points="93,-.5 93,-20.5 138,-20.5 138,-.5 93,-.5"/>
<text text-anchor="middle" x="115.5" y="-7.5" font-family="FreeSans" font-size="10.00" fill="#000000">string</text>
</g>
<!-- Node1&#45;&gt;Node5 -->
<g id="edge10" class="edge">
<title>Node1&#45;&gt;Node5</title>
<path fill="none" stroke="#191970" d="M233.1077,-171.4815C211.7902,-162.7813 190.1725,-150.9357 173.5,-135 143.0481,-105.8939 127.0045,-57.6708 119.985,-30.5758"/>
<polygon fill="#191970" stroke="#191970" points="123.3442,-29.5767 117.5834,-20.685 116.5418,-31.2285 123.3442,-29.5767"/>
</g>
<!-- Node6 -->
<g id="node6" class="node">
<title>Node6</title>
<polygon fill="none" stroke="#bfbfbf" points="182,-114.5 182,-134.5 245,-134.5 245,-114.5 182,-114.5"/>
<text text-anchor="middle" x="213.5" y="-121.5" font-family="FreeSans" font-size="10.00" fill="#000000">TString.h</text>
</g>
<!-- Node1&#45;&gt;Node6 -->
<g id="edge6" class="edge">
<title>Node1&#45;&gt;Node6</title>
<path fill="none" stroke="#191970" d="M282.9461,-171.4783C267.9286,-161.3194 250.4449,-149.4922 236.7773,-140.2464"/>
<polygon fill="#191970" stroke="#191970" points="238.655,-137.291 228.411,-134.5869 234.7328,-143.089 238.655,-137.291"/>
</g>
<!-- Node7 -->
<g id="node7" class="node">
<title>Node7</title>
<polygon fill="none" stroke="#bfbfbf" points="263,-114.5 263,-134.5 302,-134.5 302,-114.5 263,-114.5"/>
<text text-anchor="middle" x="282.5" y="-121.5" font-family="FreeSans" font-size="10.00" fill="#000000">map</text>
</g>
<!-- Node1&#45;&gt;Node7 -->
<g id="edge7" class="edge">
<title>Node1&#45;&gt;Node7</title>
<path fill="none" stroke="#191970" d="M304.8769,-171.2882C300.6517,-162.4535 295.835,-152.3823 291.7555,-143.8525"/>
<polygon fill="#191970" stroke="#191970" points="294.8569,-142.2249 287.3848,-134.7137 288.5419,-145.2451 294.8569,-142.2249"/>
</g>
<!-- Node8 -->
<g id="node8" class="node">
<title>Node8</title>
<polygon fill="none" stroke="#bfbfbf" points="320.5,-114.5 320.5,-134.5 378.5,-134.5 378.5,-114.5 320.5,-114.5"/>
<text text-anchor="middle" x="349.5" y="-121.5" font-family="FreeSans" font-size="10.00" fill="#000000">memory</text>
</g>
<!-- Node1&#45;&gt;Node8 -->
<g id="edge8" class="edge">
<title>Node1&#45;&gt;Node8</title>
<path fill="none" stroke="#191970" d="M326.445,-171.2882C330.7983,-162.4535 335.7609,-152.3823 339.964,-143.8525"/>
<polygon fill="#191970" stroke="#191970" points="343.1866,-145.2308 344.4672,-134.7137 336.9075,-142.1368 343.1866,-145.2308"/>
</g>
<!-- Node9 -->
<g id="node9" class="node">
<title>Node9</title>
<polygon fill="none" stroke="#bfbfbf" points="396.5,-114.5 396.5,-134.5 428.5,-134.5 428.5,-114.5 396.5,-114.5"/>
<text text-anchor="middle" x="412.5" y="-121.5" font-family="FreeSans" font-size="10.00" fill="#000000">set</text>
</g>
<!-- Node1&#45;&gt;Node9 -->
<g id="edge9" class="edge">
<title>Node1&#45;&gt;Node9</title>
<path fill="none" stroke="#191970" d="M346.4581,-171.4783C360.6034,-161.4161 377.0496,-149.7173 389.9914,-140.5113"/>
<polygon fill="#191970" stroke="#191970" points="392.2,-143.2354 398.3199,-134.5869 388.1424,-137.5313 392.2,-143.2354"/>
</g>
<!-- Node10 -->
<g id="node10" class="node">
<title>Node10</title>
<polygon fill="none" stroke="#bfbfbf" points="447,-114.5 447,-134.5 492,-134.5 492,-114.5 447,-114.5"/>
<text text-anchor="middle" x="469.5" y="-121.5" font-family="FreeSans" font-size="10.00" fill="#000000">utility</text>
</g>
<!-- Node1&#45;&gt;Node10 -->
<g id="edge11" class="edge">
<title>Node1&#45;&gt;Node10</title>
<path fill="none" stroke="#191970" d="M364.65,-171.4783C388.6191,-160.7388 416.7493,-148.135 437.8352,-138.6875"/>
<polygon fill="#191970" stroke="#191970" points="439.2926,-141.8698 446.9873,-134.5869 436.4303,-135.4817 439.2926,-141.8698"/>
</g>
<!-- Node11 -->
<g id="node11" class="node">
<title>Node11</title>
<polygon fill="none" stroke="#bfbfbf" points="510,-114.5 510,-134.5 561,-134.5 561,-114.5 510,-114.5"/>
<text text-anchor="middle" x="535.5" y="-121.5" font-family="FreeSans" font-size="10.00" fill="#000000">cstdint</text>
</g>
<!-- Node1&#45;&gt;Node11 -->
<g id="edge12" class="edge">
<title>Node1&#45;&gt;Node11</title>
<path fill="none" stroke="#191970" d="M385.7142,-171.4783C423.7883,-159.5368 469.2119,-145.2903 499.9782,-135.6409"/>
<polygon fill="#191970" stroke="#191970" points="501.324,-138.887 509.8183,-132.5547 499.2291,-132.2078 501.324,-138.887"/>
</g>
<!-- Node3 -->
<g id="node3" class="node">
<title>Node3</title>
<g id="a_node3"><a xlink:href="../../d2/de7/Fun4AllBase_8h.html" target="_top" xlink:title="Fun4AllBase.h">
<polygon fill="none" stroke="#000000" points="0,-57.5 0,-77.5 87,-77.5 87,-57.5 0,-57.5"/>
<text text-anchor="middle" x="43.5" y="-64.5" font-family="FreeSans" font-size="10.00" fill="#000000">Fun4AllBase.h</text>
</a>
</g>
</g>
<!-- Node2&#45;&gt;Node3 -->
<g id="edge2" class="edge">
<title>Node2&#45;&gt;Node3</title>
<path fill="none" stroke="#191970" d="M59.9244,-114.3095C57.2794,-106.7714 53.5946,-96.2696 50.3853,-87.123"/>
<polygon fill="#191970" stroke="#191970" points="53.6582,-85.8794 47.0446,-77.6022 47.053,-88.1971 53.6582,-85.8794"/>
</g>
<!-- Node2&#45;&gt;Node5 -->
<g id="edge5" class="edge">
<title>Node2&#45;&gt;Node5</title>
<path fill="none" stroke="#191970" d="M71.8754,-114.368C79.0047,-105.3151 89.0827,-91.4425 95.5,-78 102.7295,-62.8563 107.9571,-44.5409 111.2507,-30.8116"/>
<polygon fill="#191970" stroke="#191970" points="114.6928,-31.4576 113.4787,-20.9326 107.8643,-29.9175 114.6928,-31.4576"/>
</g>
<!-- Node4 -->
<g id="node4" class="node">
<title>Node4</title>
<polygon fill="none" stroke="#bfbfbf" points="19,-.5 19,-20.5 68,-20.5 68,-.5 19,-.5"/>
<text text-anchor="middle" x="43.5" y="-7.5" font-family="FreeSans" font-size="10.00" fill="#000000">climits</text>
</g>
<!-- Node3&#45;&gt;Node4 -->
<g id="edge3" class="edge">
<title>Node3&#45;&gt;Node4</title>
<path fill="none" stroke="#191970" d="M43.5,-57.3095C43.5,-49.9335 43.5,-39.72 43.5,-30.715"/>
<polygon fill="#191970" stroke="#191970" points="47.0001,-30.6022 43.5,-20.6022 40.0001,-30.6023 47.0001,-30.6022"/>
</g>
<!-- Node3&#45;&gt;Node5 -->
<g id="edge4" class="edge">
<title>Node3&#45;&gt;Node5</title>
<path fill="none" stroke="#191970" d="M56.3722,-57.3095C67.0203,-48.8798 82.3498,-36.7439 94.7318,-26.9415"/>
<polygon fill="#191970" stroke="#191970" points="97.0713,-29.5535 102.7393,-20.6022 92.7263,-24.0651 97.0713,-29.5535"/>
</g>
</g>
</svg>
