<?xml version="1.0" encoding="UTF-8" standalone="no"?>
<!DOCTYPE svg PUBLIC "-//W3C//DTD SVG 1.1//EN"
 "http://www.w3.org/Graphics/SVG/1.1/DTD/svg11.dtd">
<!-- Generated by graphviz version 2.40.1 (20161225.0304)
 -->
<!-- Title: FW::Generic::ProtoLayerCreatorT&lt; detector_element_t &gt; Pages: 1 -->
<svg width="1376pt" height="853pt"
 viewBox="0.00 0.00 1376.00 852.50" xmlns="http://www.w3.org/2000/svg" xmlns:xlink="http://www.w3.org/1999/xlink">
<g id="graph0" class="graph" transform="scale(1 1) rotate(0) translate(4 848.5)">
<title>FW::Generic::ProtoLayerCreatorT&lt; detector_element_t &gt;</title>
<!-- Node1 -->
<g id="node1" class="node">
<title>Node1</title>
<polygon fill="#bfbfbf" stroke="#000000" points="1192,-166.5 1192,-198.5 1368,-198.5 1368,-166.5 1192,-166.5"/>
<text text-anchor="start" x="1200" y="-185.5" font-family="FreeSans" font-size="10.00" fill="#000000">FW::Generic::ProtoLayerCreator</text>
<text text-anchor="middle" x="1280" y="-173.5" font-family="FreeSans" font-size="10.00" fill="#000000">T&lt; detector_element_t &gt;</text>
</g>
<!-- Node2 -->
<g id="node2" class="node">
<title>Node2</title>
<g id="a_node2"><a xlink:href="../../db/db4/structFW_1_1Generic_1_1ProtoLayerCreatorT_1_1Config.html" target="_top" xlink:title="FW::Generic::ProtoLayerCreator\lT\&lt; detector_element_t \&gt;::Config">
<polygon fill="none" stroke="#000000" points="921,-309.5 921,-341.5 1104,-341.5 1104,-309.5 921,-309.5"/>
<text text-anchor="start" x="929" y="-328.5" font-family="FreeSans" font-size="10.00" fill="#000000">FW::Generic::ProtoLayerCreator</text>
<text text-anchor="middle" x="1012.5" y="-316.5" font-family="FreeSans" font-size="10.00" fill="#000000">T&lt; detector_element_t &gt;::Config</text>
</a>
</g>
</g>
<!-- Node2&#45;&gt;Node1 -->
<g id="edge1" class="edge">
<title>Node2&#45;&gt;Node1</title>
<path fill="none" stroke="#9a32cd" stroke-dasharray="5,2" d="M1051.5735,-304.6121C1105.4307,-275.8212 1201.3209,-224.5602 1249.9446,-198.567"/>
<polygon fill="#9a32cd" stroke="#9a32cd" points="1049.8346,-301.5729 1042.6657,-309.3741 1053.1347,-307.7462 1049.8346,-301.5729"/>
<text text-anchor="middle" x="1148" y="-269.5" font-family="FreeSans" font-size="10.00" fill="#000000"> m_cfg</text>
</g>
<!-- Node3 -->
<g id="node3" class="node">
<title>Node3</title>
<polygon fill="none" stroke="#bfbfbf" points="560.5,-714.5 560.5,-746.5 697.5,-746.5 697.5,-714.5 560.5,-714.5"/>
<text text-anchor="start" x="568.5" y="-733.5" font-family="FreeSans" font-size="10.00" fill="#000000">std::vector&lt; std::vector</text>
<text text-anchor="middle" x="629" y="-721.5" font-family="FreeSans" font-size="10.00" fill="#000000">&lt; int &gt; &gt;</text>
</g>
<!-- Node3&#45;&gt;Node2 -->
<g id="edge2" class="edge">
<title>Node3&#45;&gt;Node2</title>
<path fill="none" stroke="#9a32cd" stroke-dasharray="5,2" d="M707.9417,-742.5012C768.1929,-747.0509 849.6636,-742.625 903,-697.5 959.7929,-649.4506 1000.1347,-407.1268 1010.1041,-341.7645"/>
<polygon fill="#9a32cd" stroke="#9a32cd" points="707.9689,-738.9909 697.7075,-741.6276 707.3735,-745.9655 707.9689,-738.9909"/>
<text text-anchor="middle" x="825.5" y="-746.5" font-family="FreeSans" font-size="10.00" fill="#000000"> posnegModuleReadoutSide</text>
</g>
<!-- Node4 -->
<g id="node4" class="node">
<title>Node4</title>
<polygon fill="none" stroke="#bfbfbf" points="261,-753.5 261,-773.5 367,-773.5 367,-753.5 261,-753.5"/>
<text text-anchor="middle" x="314" y="-760.5" font-family="FreeSans" font-size="10.00" fill="#000000">std::vector&lt; int &gt;</text>
</g>
<!-- Node4&#45;&gt;Node2 -->
<g id="edge11" class="edge">
<title>Node4&#45;&gt;Node2</title>
<path fill="none" stroke="#9a32cd" stroke-dasharray="5,2" d="M350.6151,-777.0006C451.3398,-811.5588 736.1275,-891.5583 903,-759.5 971.248,-705.4904 1003.8979,-413.7164 1010.994,-341.6167"/>
<polygon fill="#9a32cd" stroke="#9a32cd" points="351.4958,-773.601 340.9009,-773.6113 349.1897,-780.2103 351.4958,-773.601"/>
<text text-anchor="middle" x="629" y="-835.5" font-family="FreeSans" font-size="10.00" fill="#000000"> centralModuleReadoutSide</text>
</g>
<!-- Node4&#45;&gt;Node3 -->
<g id="edge3" class="edge">
<title>Node4&#45;&gt;Node3</title>
<path fill="none" stroke="#9a32cd" stroke-dasharray="5,2" d="M377.0349,-756.8963C430.0457,-751.3428 505.6996,-743.4172 560.2574,-737.7016"/>
<polygon fill="#9a32cd" stroke="#9a32cd" points="376.6601,-753.4164 367.0793,-757.9393 377.3895,-760.3783 376.6601,-753.4164"/>
<text text-anchor="middle" x="474" y="-752.5" font-family="FreeSans" font-size="10.00" fill="#000000"> elements</text>
</g>
<!-- Node5 -->
<g id="node5" class="node">
<title>Node5</title>
<polygon fill="none" stroke="#bfbfbf" points="546.5,-602.5 546.5,-646.5 711.5,-646.5 711.5,-602.5 546.5,-602.5"/>
<text text-anchor="start" x="554.5" y="-633.5" font-family="FreeSans" font-size="10.00" fill="#000000">std::vector&lt; std::vector</text>
<text text-anchor="start" x="554.5" y="-621.5" font-family="FreeSans" font-size="10.00" fill="#000000">&lt; std::shared_ptr&lt; const</text>
<text text-anchor="middle" x="629" y="-609.5" font-family="FreeSans" font-size="10.00" fill="#000000"> Acts::ISurfaceMaterial &gt; &gt; &gt;</text>
</g>
<!-- Node5&#45;&gt;Node2 -->
<g id="edge4" class="edge">
<title>Node5&#45;&gt;Node2</title>
<path fill="none" stroke="#9a32cd" stroke-dasharray="5,2" d="M704.7232,-598.7489C763.9854,-575.6967 845.6877,-537.2155 903,-483.5 949.7535,-439.6807 987.9705,-372.7153 1004.1569,-341.9714"/>
<polygon fill="#9a32cd" stroke="#9a32cd" points="703.13,-595.6111 695.0425,-602.4554 705.6329,-602.1484 703.13,-595.6111"/>
<text text-anchor="middle" x="825.5" y="-582.5" font-family="FreeSans" font-size="10.00" fill="#000000"> posnegModuleMaterial</text>
</g>
<!-- Node6 -->
<g id="node6" class="node">
<title>Node6</title>
<polygon fill="none" stroke="#bfbfbf" points="208,-645.5 208,-677.5 420,-677.5 420,-645.5 208,-645.5"/>
<text text-anchor="start" x="216" y="-664.5" font-family="FreeSans" font-size="10.00" fill="#000000">std::vector&lt; std::shared</text>
<text text-anchor="middle" x="314" y="-652.5" font-family="FreeSans" font-size="10.00" fill="#000000">_ptr&lt; const Acts::ISurfaceMaterial &gt; &gt;</text>
</g>
<!-- Node6&#45;&gt;Node2 -->
<g id="edge17" class="edge">
<title>Node6&#45;&gt;Node2</title>
<path fill="none" stroke="#9a32cd" stroke-dasharray="5,2" d="M430.39,-661.9355C456.5792,-661.9122 484.2422,-661.7927 510,-661.5 687.1012,-659.4877 774.8972,-717.8052 903,-595.5 979.6477,-522.3211 1004.1782,-388.0932 1010.5607,-341.7452"/>
<polygon fill="#9a32cd" stroke="#9a32cd" points="430.045,-658.4356 420.0465,-661.9399 430.048,-665.4356 430.045,-658.4356"/>
<text text-anchor="middle" x="629" y="-676.5" font-family="FreeSans" font-size="10.00" fill="#000000"> centralModuleMaterial</text>
</g>
<!-- Node6&#45;&gt;Node5 -->
<g id="edge5" class="edge">
<title>Node6&#45;&gt;Node5</title>
<path fill="none" stroke="#9a32cd" stroke-dasharray="5,2" d="M430.4358,-647.8234C468.9378,-643.301 510.9595,-638.3651 546.3906,-634.2033"/>
<polygon fill="#9a32cd" stroke="#9a32cd" points="429.7289,-644.3823 420.2055,-649.0251 430.5455,-651.3345 429.7289,-644.3823"/>
<text text-anchor="middle" x="474" y="-648.5" font-family="FreeSans" font-size="10.00" fill="#000000"> elements</text>
</g>
<!-- Node7 -->
<g id="node7" class="node">
<title>Node7</title>
<polygon fill="none" stroke="#bfbfbf" points="560.5,-382.5 560.5,-414.5 697.5,-414.5 697.5,-382.5 560.5,-382.5"/>
<text text-anchor="start" x="568.5" y="-401.5" font-family="FreeSans" font-size="10.00" fill="#000000">std::vector&lt; std::vector</text>
<text text-anchor="middle" x="629" y="-389.5" font-family="FreeSans" font-size="10.00" fill="#000000">&lt; double &gt; &gt;</text>
</g>
<!-- Node7&#45;&gt;Node2 -->
<g id="edge6" class="edge">
<title>Node7&#45;&gt;Node2</title>
<path fill="none" stroke="#9a32cd" stroke-dasharray="5,2" d="M695.2094,-379.4306C706.884,-375.713 718.8604,-371.6677 730,-367.5 738.1995,-364.4323 739.5698,-361.8607 748,-359.5 764.5793,-354.8573 851.1933,-344.1307 920.8565,-335.9579"/>
<polygon fill="#9a32cd" stroke="#9a32cd" points="693.9957,-376.143 685.4988,-382.4717 696.0878,-382.823 693.9957,-376.143"/>
<text text-anchor="middle" x="825.5" y="-446.5" font-family="FreeSans" font-size="10.00" fill="#000000"> posnegModuleLorentzAngle</text>
<text text-anchor="middle" x="825.5" y="-434.5" font-family="FreeSans" font-size="10.00" fill="#000000">posnegModuleBacksideGap</text>
<text text-anchor="middle" x="825.5" y="-422.5" font-family="FreeSans" font-size="10.00" fill="#000000">posnegModuleThickness</text>
<text text-anchor="middle" x="825.5" y="-410.5" font-family="FreeSans" font-size="10.00" fill="#000000">posnegModuleHalfY</text>
<text text-anchor="middle" x="825.5" y="-398.5" font-family="FreeSans" font-size="10.00" fill="#000000">posnegModuleBacksideStereo</text>
<text text-anchor="middle" x="825.5" y="-386.5" font-family="FreeSans" font-size="10.00" fill="#000000">posnegModuleFrontsideStereo</text>
<text text-anchor="middle" x="825.5" y="-374.5" font-family="FreeSans" font-size="10.00" fill="#000000">posnegModuleMinHalfX</text>
<text text-anchor="middle" x="825.5" y="-362.5" font-family="FreeSans" font-size="10.00" fill="#000000">posnegModuleMaxHalfX</text>
</g>
<!-- Node8 -->
<g id="node8" class="node">
<title>Node8</title>
<polygon fill="none" stroke="#bfbfbf" points="250,-421.5 250,-441.5 378,-441.5 378,-421.5 250,-421.5"/>
<text text-anchor="middle" x="314" y="-428.5" font-family="FreeSans" font-size="10.00" fill="#000000">std::vector&lt; double &gt;</text>
</g>
<!-- Node8&#45;&gt;Node2 -->
<g id="edge18" class="edge">
<title>Node8&#45;&gt;Node2</title>
<path fill="none" stroke="#9a32cd" stroke-dasharray="5,2" d="M388.4278,-436.3438C541.6729,-446.0684 880.0817,-466.1608 903,-455.5 954.1037,-431.7284 989.9049,-371.0632 1004.7906,-341.7892"/>
<polygon fill="#9a32cd" stroke="#9a32cd" points="388.366,-432.8329 378.1638,-435.6904 387.9212,-439.8188 388.366,-432.8329"/>
<text text-anchor="middle" x="629" y="-577.5" font-family="FreeSans" font-size="10.00" fill="#000000"> centralModuleHalfY</text>
<text text-anchor="middle" x="629" y="-565.5" font-family="FreeSans" font-size="10.00" fill="#000000">centralModuleTiltPhi</text>
<text text-anchor="middle" x="629" y="-553.5" font-family="FreeSans" font-size="10.00" fill="#000000">centralModuleThickness</text>
<text text-anchor="middle" x="629" y="-541.5" font-family="FreeSans" font-size="10.00" fill="#000000">centralModuleBacksideGap</text>
<text text-anchor="middle" x="629" y="-529.5" font-family="FreeSans" font-size="10.00" fill="#000000">centralModuleFrontsideStereo</text>
<text text-anchor="middle" x="629" y="-517.5" font-family="FreeSans" font-size="10.00" fill="#000000">posnegLayerPositionsZ</text>
<text text-anchor="middle" x="629" y="-505.5" font-family="FreeSans" font-size="10.00" fill="#000000">centralModuleLorentzAngle</text>
<text text-anchor="middle" x="629" y="-493.5" font-family="FreeSans" font-size="10.00" fill="#000000">posnegLayerEnvelopeR</text>
<text text-anchor="middle" x="629" y="-481.5" font-family="FreeSans" font-size="10.00" fill="#000000">centralModuleBacksideStereo</text>
<text text-anchor="middle" x="629" y="-469.5" font-family="FreeSans" font-size="10.00" fill="#000000">centralLayerRadii</text>
<text text-anchor="middle" x="629" y="-457.5" font-family="FreeSans" font-size="10.00" fill="#000000">...</text>
</g>
<!-- Node8&#45;&gt;Node7 -->
<g id="edge7" class="edge">
<title>Node8&#45;&gt;Node7</title>
<path fill="none" stroke="#9a32cd" stroke-dasharray="5,2" d="M388.3057,-423.7156C440.3988,-418.2582 509.5227,-411.0167 560.3261,-405.6944"/>
<polygon fill="#9a32cd" stroke="#9a32cd" points="387.7055,-420.2592 378.1246,-424.7822 388.4349,-427.2211 387.7055,-420.2592"/>
<text text-anchor="middle" x="474" y="-420.5" font-family="FreeSans" font-size="10.00" fill="#000000"> elements</text>
</g>
<!-- Node9 -->
<g id="node9" class="node">
<title>Node9</title>
<polygon fill="none" stroke="#bfbfbf" points="245.5,-315.5 245.5,-347.5 382.5,-347.5 382.5,-315.5 245.5,-315.5"/>
<text text-anchor="start" x="253.5" y="-334.5" font-family="FreeSans" font-size="10.00" fill="#000000">std::vector&lt; std::vector</text>
<text text-anchor="middle" x="314" y="-322.5" font-family="FreeSans" font-size="10.00" fill="#000000">&lt; Acts::Vector3D &gt; &gt;</text>
</g>
<!-- Node9&#45;&gt;Node2 -->
<g id="edge8" class="edge">
<title>Node9&#45;&gt;Node2</title>
<path fill="none" stroke="#9a32cd" stroke-dasharray="5,2" d="M392.8176,-332.9622C407.8198,-333.1864 423.3933,-333.3822 438,-333.5 608.5657,-334.8754 807.598,-330.8439 920.9639,-328.0151"/>
<polygon fill="#9a32cd" stroke="#9a32cd" points="392.5948,-329.4584 382.5418,-332.803 392.4863,-336.4576 392.5948,-329.4584"/>
<text text-anchor="middle" x="629" y="-336.5" font-family="FreeSans" font-size="10.00" fill="#000000"> centralModulePositions</text>
</g>
<!-- Node13 -->
<g id="node13" class="node">
<title>Node13</title>
<polygon fill="none" stroke="#bfbfbf" points="528,-282.5 528,-314.5 730,-314.5 730,-282.5 528,-282.5"/>
<text text-anchor="start" x="536" y="-301.5" font-family="FreeSans" font-size="10.00" fill="#000000">std::vector&lt; std::vector</text>
<text text-anchor="middle" x="629" y="-289.5" font-family="FreeSans" font-size="10.00" fill="#000000">&lt; std::vector&lt; Acts::Vector3D &gt; &gt; &gt;</text>
</g>
<!-- Node9&#45;&gt;Node13 -->
<g id="edge14" class="edge">
<title>Node9&#45;&gt;Node13</title>
<path fill="none" stroke="#9a32cd" stroke-dasharray="5,2" d="M392.9123,-323.233C433.7704,-318.9526 484.1156,-313.6784 527.8046,-309.1014"/>
<polygon fill="#9a32cd" stroke="#9a32cd" points="392.3197,-319.7758 382.7388,-324.2988 393.0491,-326.7377 392.3197,-319.7758"/>
<text text-anchor="middle" x="474" y="-320.5" font-family="FreeSans" font-size="10.00" fill="#000000"> elements</text>
</g>
<!-- Node10 -->
<g id="node10" class="node">
<title>Node10</title>
<polygon fill="none" stroke="#bfbfbf" points="567,-231.5 567,-263.5 691,-263.5 691,-231.5 567,-231.5"/>
<text text-anchor="start" x="575" y="-250.5" font-family="FreeSans" font-size="10.00" fill="#000000">std::vector&lt; std::pair</text>
<text text-anchor="middle" x="629" y="-238.5" font-family="FreeSans" font-size="10.00" fill="#000000">&lt; int, int &gt; &gt;</text>
</g>
<!-- Node10&#45;&gt;Node2 -->
<g id="edge9" class="edge">
<title>Node10&#45;&gt;Node2</title>
<path fill="none" stroke="#9a32cd" stroke-dasharray="5,2" d="M701.3931,-248.9679C757.2993,-251.5775 836.1455,-258.4928 903,-276.5 931.3555,-284.1375 961.6936,-298.2265 983.2283,-309.3433"/>
<polygon fill="#9a32cd" stroke="#9a32cd" points="701.3709,-245.4637 691.2292,-248.529 701.0689,-252.4572 701.3709,-245.4637"/>
<text text-anchor="middle" x="825.5" y="-279.5" font-family="FreeSans" font-size="10.00" fill="#000000"> centralModuleBinningSchema</text>
</g>
<!-- Node11 -->
<g id="node11" class="node">
<title>Node11</title>
<polygon fill="none" stroke="#bfbfbf" points="566,-180.5 566,-212.5 692,-212.5 692,-180.5 566,-180.5"/>
<text text-anchor="start" x="574" y="-199.5" font-family="FreeSans" font-size="10.00" fill="#000000">std::vector&lt; std::pair</text>
<text text-anchor="middle" x="629" y="-187.5" font-family="FreeSans" font-size="10.00" fill="#000000">&lt; double, double &gt; &gt;</text>
</g>
<!-- Node11&#45;&gt;Node2 -->
<g id="edge10" class="edge">
<title>Node11&#45;&gt;Node2</title>
<path fill="none" stroke="#9a32cd" stroke-dasharray="5,2" d="M702.0228,-196.2706C758.9781,-198.5561 838.9045,-207.2851 903,-235.5 942.4137,-252.8499 979.1109,-288.5363 998.3875,-309.3821"/>
<polygon fill="#9a32cd" stroke="#9a32cd" points="702.1353,-192.7725 692.0206,-195.9258 701.8941,-199.7684 702.1353,-192.7725"/>
<text text-anchor="middle" x="825.5" y="-238.5" font-family="FreeSans" font-size="10.00" fill="#000000"> centralLayerEnvelopes</text>
</g>
<!-- Node12 -->
<g id="node12" class="node">
<title>Node12</title>
<polygon fill="none" stroke="#bfbfbf" points="253.5,-109.5 253.5,-129.5 374.5,-129.5 374.5,-109.5 253.5,-109.5"/>
<text text-anchor="middle" x="314" y="-116.5" font-family="FreeSans" font-size="10.00" fill="#000000">std::vector&lt; size_t &gt;</text>
</g>
<!-- Node12&#45;&gt;Node2 -->
<g id="edge12" class="edge">
<title>Node12&#45;&gt;Node2</title>
<path fill="none" stroke="#9a32cd" stroke-dasharray="5,2" d="M384.6703,-115.9293C468.0082,-113.1611 610.3384,-112.9652 730,-135.5 809.9761,-150.5612 835.9391,-149.3931 903,-195.5 948.4712,-226.7631 985.9393,-281.7188 1002.8337,-309.0721"/>
<polygon fill="#9a32cd" stroke="#9a32cd" points="384.4261,-112.4357 374.5563,-116.2877 384.674,-119.4313 384.4261,-112.4357"/>
<text text-anchor="start" x="557.5" y="-162.5" font-family="FreeSans" font-size="10.00" fill="#000000"> centralModuleReadoutBins</text>
<text text-anchor="middle" x="629" y="-150.5" font-family="FreeSans" font-size="10.00" fill="#000000">X</text>
<text text-anchor="middle" x="629" y="-138.5" font-family="FreeSans" font-size="10.00" fill="#000000">centralModuleReadoutBinsY</text>
</g>
<!-- Node14 -->
<g id="node14" class="node">
<title>Node14</title>
<polygon fill="none" stroke="#bfbfbf" points="560.5,-56.5 560.5,-88.5 697.5,-88.5 697.5,-56.5 560.5,-56.5"/>
<text text-anchor="start" x="568.5" y="-75.5" font-family="FreeSans" font-size="10.00" fill="#000000">std::vector&lt; std::vector</text>
<text text-anchor="middle" x="629" y="-63.5" font-family="FreeSans" font-size="10.00" fill="#000000">&lt; size_t &gt; &gt;</text>
</g>
<!-- Node12&#45;&gt;Node14 -->
<g id="edge16" class="edge">
<title>Node12&#45;&gt;Node14</title>
<path fill="none" stroke="#9a32cd" stroke-dasharray="5,2" d="M384.6194,-107.8656C402.0579,-105.06 420.6976,-102.118 438,-99.5 478.5628,-93.3624 524.0404,-86.9163 560.4412,-81.8623"/>
<polygon fill="#9a32cd" stroke="#9a32cd" points="383.824,-104.4487 374.51,-109.4983 384.9401,-111.3591 383.824,-104.4487"/>
<text text-anchor="middle" x="474" y="-102.5" font-family="FreeSans" font-size="10.00" fill="#000000"> elements</text>
</g>
<!-- Node13&#45;&gt;Node2 -->
<g id="edge13" class="edge">
<title>Node13&#45;&gt;Node2</title>
<path fill="none" stroke="#9a32cd" stroke-dasharray="5,2" d="M740.3599,-293.1378C790.2626,-292.2167 849.7484,-293.166 903,-299.5 920.365,-301.5655 938.9718,-305.3646 955.8298,-309.4328"/>
<polygon fill="#9a32cd" stroke="#9a32cd" points="740.1111,-289.6422 730.1877,-293.3537 740.2597,-296.6406 740.1111,-289.6422"/>
<text text-anchor="middle" x="825.5" y="-302.5" font-family="FreeSans" font-size="10.00" fill="#000000"> posnegModulePositions</text>
</g>
<!-- Node14&#45;&gt;Node2 -->
<g id="edge15" class="edge">
<title>Node14&#45;&gt;Node2</title>
<path fill="none" stroke="#9a32cd" stroke-dasharray="5,2" d="M707.7977,-62.5711C778.2682,-55.5701 874.6763,-51.2386 903,-75.5 939.9574,-107.1567 903.4586,-138.1095 921,-183.5 940.2407,-233.2876 978.3706,-284.0548 998.8067,-309.2445"/>
<polygon fill="#9a32cd" stroke="#9a32cd" points="707.189,-59.1151 697.5998,-63.6203 707.9055,-66.0784 707.189,-59.1151"/>
<text text-anchor="middle" x="825.5" y="-102.5" font-family="FreeSans" font-size="10.00" fill="#000000"> posnegModulePhiBins</text>
<text text-anchor="middle" x="825.5" y="-90.5" font-family="FreeSans" font-size="10.00" fill="#000000">posnegModuleReadoutBinsX</text>
<text text-anchor="middle" x="825.5" y="-78.5" font-family="FreeSans" font-size="10.00" fill="#000000">posnegModuleReadoutBinsY</text>
</g>
<!-- Node15 -->
<g id="node15" class="node">
<title>Node15</title>
<polygon fill="none" stroke="#bfbfbf" points="946.5,-141.5 946.5,-173.5 1078.5,-173.5 1078.5,-141.5 946.5,-141.5"/>
<text text-anchor="start" x="954.5" y="-160.5" font-family="FreeSans" font-size="10.00" fill="#000000">std::unique_ptr&lt; const</text>
<text text-anchor="middle" x="1012.5" y="-148.5" font-family="FreeSans" font-size="10.00" fill="#000000"> Acts::Logger &gt;</text>
</g>
<!-- Node15&#45;&gt;Node1 -->
<g id="edge19" class="edge">
<title>Node15&#45;&gt;Node1</title>
<path fill="none" stroke="#9a32cd" stroke-dasharray="5,2" d="M1088.6929,-163.1229C1115.6575,-165.2479 1146.1945,-167.8077 1174,-170.5 1179.8067,-171.0622 1185.7894,-171.6678 1191.8167,-172.2975"/>
<polygon fill="#9a32cd" stroke="#9a32cd" points="1088.7887,-159.6198 1078.5465,-162.3304 1088.2435,-166.5985 1088.7887,-159.6198"/>
<text text-anchor="middle" x="1148" y="-173.5" font-family="FreeSans" font-size="10.00" fill="#000000"> m_logger</text>
</g>
<!-- Node16 -->
<g id="node16" class="node">
<title>Node16</title>
<g id="a_node16"><a xlink:href="../../d4/d3e/classActs_1_1Logger.html" target="_top" xlink:title="class for printing debug output">
<polygon fill="none" stroke="#000000" points="588.5,-17.5 588.5,-37.5 669.5,-37.5 669.5,-17.5 588.5,-17.5"/>
<text text-anchor="middle" x="629" y="-24.5" font-family="FreeSans" font-size="10.00" fill="#000000">Acts::Logger</text>
</a>
</g>
</g>
<!-- Node16&#45;&gt;Node15 -->
<g id="edge20" class="edge">
<title>Node16&#45;&gt;Node15</title>
<path fill="none" stroke="#9a32cd" stroke-dasharray="5,2" d="M680.0216,-18.6239C737.1712,-11.1313 831.1937,-6.2848 903,-39.5 950.4335,-61.4412 986.9971,-114.2906 1003.2613,-141.1858"/>
<polygon fill="#9a32cd" stroke="#9a32cd" points="679.2164,-15.2021 669.7932,-20.0452 680.1798,-22.1355 679.2164,-15.2021"/>
<text text-anchor="middle" x="825.5" y="-42.5" font-family="FreeSans" font-size="10.00" fill="#000000"> ptr</text>
</g>
<!-- Node17 -->
<g id="node17" class="node">
<title>Node17</title>
<polygon fill="none" stroke="#bfbfbf" points="242,-51.5 242,-83.5 386,-83.5 386,-51.5 242,-51.5"/>
<text text-anchor="start" x="250" y="-70.5" font-family="FreeSans" font-size="10.00" fill="#000000">std::unique_ptr&lt; Logging</text>
<text text-anchor="middle" x="314" y="-58.5" font-family="FreeSans" font-size="10.00" fill="#000000">::OutputFilterPolicy &gt;</text>
</g>
<!-- Node17&#45;&gt;Node16 -->
<g id="edge21" class="edge">
<title>Node17&#45;&gt;Node16</title>
<path fill="none" stroke="#9a32cd" stroke-dasharray="5,2" d="M396.3868,-57.0382C458.1546,-49.1946 540.0483,-38.7954 588.3749,-32.6587"/>
<polygon fill="#9a32cd" stroke="#9a32cd" points="395.7468,-53.5913 386.2674,-58.3232 396.6286,-60.5355 395.7468,-53.5913"/>
<text text-anchor="middle" x="474" y="-53.5" font-family="FreeSans" font-size="10.00" fill="#000000"> m_filterPolicy</text>
</g>
<!-- Node18 -->
<g id="node18" class="node">
<title>Node18</title>
<g id="a_node18"><a xlink:href="../../d5/d5e/classActs_1_1Logging_1_1OutputFilterPolicy.html" target="_top" xlink:title="abstract base class for filtering debug output">
<polygon fill="none" stroke="#000000" points="0,-51.5 0,-83.5 153,-83.5 153,-51.5 0,-51.5"/>
<text text-anchor="start" x="8" y="-70.5" font-family="FreeSans" font-size="10.00" fill="#000000">Acts::Logging::OutputFilter</text>
<text text-anchor="middle" x="76.5" y="-58.5" font-family="FreeSans" font-size="10.00" fill="#000000">Policy</text>
</a>
</g>
</g>
<!-- Node18&#45;&gt;Node17 -->
<g id="edge22" class="edge">
<title>Node18&#45;&gt;Node17</title>
<path fill="none" stroke="#9a32cd" stroke-dasharray="5,2" d="M163.4265,-67.5C189.2206,-67.5 217.1775,-67.5 241.9199,-67.5"/>
<polygon fill="#9a32cd" stroke="#9a32cd" points="163.2815,-64.0001 153.2815,-67.5 163.2814,-71.0001 163.2815,-64.0001"/>
<text text-anchor="middle" x="180.5" y="-70.5" font-family="FreeSans" font-size="10.00" fill="#000000"> ptr</text>
</g>
<!-- Node19 -->
<g id="node19" class="node">
<title>Node19</title>
<polygon fill="none" stroke="#bfbfbf" points="242,-.5 242,-32.5 386,-32.5 386,-.5 242,-.5"/>
<text text-anchor="start" x="250" y="-19.5" font-family="FreeSans" font-size="10.00" fill="#000000">std::unique_ptr&lt; Logging</text>
<text text-anchor="middle" x="314" y="-7.5" font-family="FreeSans" font-size="10.00" fill="#000000">::OutputPrintPolicy &gt;</text>
</g>
<!-- Node19&#45;&gt;Node16 -->
<g id="edge23" class="edge">
<title>Node19&#45;&gt;Node16</title>
<path fill="none" stroke="#9a32cd" stroke-dasharray="5,2" d="M396.3868,-19.377C458.1546,-21.534 540.0483,-24.3938 588.3749,-26.0813"/>
<polygon fill="#9a32cd" stroke="#9a32cd" points="396.3835,-15.8748 386.2674,-19.0236 396.1391,-22.8706 396.3835,-15.8748"/>
<text text-anchor="middle" x="474" y="-26.5" font-family="FreeSans" font-size="10.00" fill="#000000"> m_printPolicy</text>
</g>
<!-- Node20 -->
<g id="node20" class="node">
<title>Node20</title>
<g id="a_node20"><a xlink:href="../../df/dce/classActs_1_1Logging_1_1OutputPrintPolicy.html" target="_top" xlink:title="abstract base class for printing debug output">
<polygon fill="none" stroke="#000000" points="1,-.5 1,-32.5 152,-32.5 152,-.5 1,-.5"/>
<text text-anchor="start" x="9" y="-19.5" font-family="FreeSans" font-size="10.00" fill="#000000">Acts::Logging::OutputPrint</text>
<text text-anchor="middle" x="76.5" y="-7.5" font-family="FreeSans" font-size="10.00" fill="#000000">Policy</text>
</a>
</g>
</g>
<!-- Node20&#45;&gt;Node19 -->
<g id="edge24" class="edge">
<title>Node20&#45;&gt;Node19</title>
<path fill="none" stroke="#9a32cd" stroke-dasharray="5,2" d="M162.5155,-16.5C188.5026,-16.5 216.7585,-16.5 241.7509,-16.5"/>
<polygon fill="#9a32cd" stroke="#9a32cd" points="162.2995,-13.0001 152.2995,-16.5 162.2994,-20.0001 162.2995,-13.0001"/>
<text text-anchor="middle" x="180.5" y="-19.5" font-family="FreeSans" font-size="10.00" fill="#000000"> ptr</text>
</g>
</g>
</svg>
