<?xml version="1.0" encoding="UTF-8" standalone="no"?>
<!DOCTYPE svg PUBLIC "-//W3C//DTD SVG 1.1//EN"
 "http://www.w3.org/Graphics/SVG/1.1/DTD/svg11.dtd">
<!-- Generated by graphviz version 2.40.1 (20161225.0304)
 -->
<!-- Title: erhic::Forester::Plant Pages: 1 -->
<svg width="756pt" height="773pt"
 viewBox="0.00 0.00 756.00 773.08" xmlns="http://www.w3.org/2000/svg" xmlns:xlink="http://www.w3.org/1999/xlink">
<g id="graph0" class="graph" transform="scale(1 1) rotate(0) translate(4 769.0815)">
<title>erhic::Forester::Plant</title>
<!-- Node1 -->
<g id="node1" class="node">
<title>Node1</title>
<polygon fill="#bfbfbf" stroke="#000000" points="0,-502.5 0,-522.5 122,-522.5 122,-502.5 0,-502.5"/>
<text text-anchor="middle" x="61" y="-509.5" font-family="FreeSans" font-size="10.00" fill="#000000">erhic::Forester::Plant</text>
</g>
<!-- Node2 -->
<g id="node2" class="node">
<title>Node2</title>
<g id="a_node2"><a xlink:href="../../da/d40/classerhic_1_1Forester.html#aee3214eba39b45a6d201308deca262f6" target="_top" xlink:title="erhic::Forester::BeVerbose">
<polygon fill="none" stroke="#000000" points="385,-737.5 385,-757.5 534,-757.5 534,-737.5 385,-737.5"/>
<text text-anchor="middle" x="459.5" y="-744.5" font-family="FreeSans" font-size="10.00" fill="#000000">erhic::Forester::BeVerbose</text>
</a>
</g>
</g>
<!-- Node1&#45;&gt;Node2 -->
<g id="edge1" class="edge">
<title>Node1&#45;&gt;Node2</title>
<path fill="none" stroke="#191970" d="M62.1584,-522.6369C66.7318,-557.4598 86.9199,-672.7776 158,-722.5 229.1861,-772.2966 334.245,-768.1822 399.6902,-759.0332"/>
<polygon fill="#191970" stroke="#191970" points="400.4633,-762.457 409.8423,-757.5291 399.4373,-755.5326 400.4633,-762.457"/>
</g>
<!-- Node3 -->
<g id="node3" class="node">
<title>Node3</title>
<g id="a_node3"><a xlink:href="../../da/d91/classerhic_1_1VirtualEventFactory.html#a3e4644f24f6d516ad6fac1743ac49582" target="_top" xlink:title="erhic::VirtualEventFactory\l::Create">
<polygon fill="none" stroke="#000000" points="172.5,-680.5 172.5,-712.5 319.5,-712.5 319.5,-680.5 172.5,-680.5"/>
<text text-anchor="start" x="180.5" y="-699.5" font-family="FreeSans" font-size="10.00" fill="#000000">erhic::VirtualEventFactory</text>
<text text-anchor="middle" x="246" y="-687.5" font-family="FreeSans" font-size="10.00" fill="#000000">::Create</text>
</a>
</g>
</g>
<!-- Node1&#45;&gt;Node3 -->
<g id="edge2" class="edge">
<title>Node1&#45;&gt;Node3</title>
<path fill="none" stroke="#191970" d="M64.3041,-522.8809C73.8848,-551.2733 104.4532,-630.8016 158,-671.5 159.7979,-672.8665 161.6676,-674.1583 163.5955,-675.3796"/>
<polygon fill="#191970" stroke="#191970" points="161.9437,-678.4659 172.3795,-680.2946 165.3618,-672.3572 161.9437,-678.4659"/>
</g>
<!-- Node4 -->
<g id="node4" class="node">
<title>Node4</title>
<g id="a_node4"><a xlink:href="../../da/d40/classerhic_1_1Forester.html#abc3860327435821ebd22b07ce70c3092" target="_top" xlink:title="erhic::Forester::Finish">
<polygon fill="none" stroke="#000000" points="184,-641.5 184,-661.5 308,-661.5 308,-641.5 184,-641.5"/>
<text text-anchor="middle" x="246" y="-648.5" font-family="FreeSans" font-size="10.00" fill="#000000">erhic::Forester::Finish</text>
</a>
</g>
</g>
<!-- Node1&#45;&gt;Node4 -->
<g id="edge3" class="edge">
<title>Node1&#45;&gt;Node4</title>
<path fill="none" stroke="#191970" d="M66.8153,-522.7794C80.0148,-545.1619 114.4986,-598.5374 158,-626.5 165.3774,-631.2421 173.6664,-635.1017 182.1306,-638.2388"/>
<polygon fill="#191970" stroke="#191970" points="181.1279,-641.5943 191.7222,-641.4822 183.3703,-634.9632 181.1279,-641.5943"/>
</g>
<!-- Node6 -->
<g id="node6" class="node">
<title>Node6</title>
<g id="a_node6"><a xlink:href="../../da/d40/classerhic_1_1Forester.html#a263336ad44c94707f63b8be22b737547" target="_top" xlink:title="erhic::Forester::GetInput\lFileName">
<polygon fill="none" stroke="#000000" points="389.5,-506.5 389.5,-538.5 529.5,-538.5 529.5,-506.5 389.5,-506.5"/>
<text text-anchor="start" x="397.5" y="-525.5" font-family="FreeSans" font-size="10.00" fill="#000000">erhic::Forester::GetInput</text>
<text text-anchor="middle" x="459.5" y="-513.5" font-family="FreeSans" font-size="10.00" fill="#000000">FileName</text>
</a>
</g>
</g>
<!-- Node1&#45;&gt;Node6 -->
<g id="edge11" class="edge">
<title>Node1&#45;&gt;Node6</title>
<path fill="none" stroke="#191970" d="M77.7846,-522.551C96.5643,-533.1613 128.2648,-549.2046 158,-555.5 234.526,-571.7017 256.4233,-565.5289 334,-555.5 346.077,-553.9387 370.334,-547.8113 394.3305,-541.2526"/>
<polygon fill="#191970" stroke="#191970" points="395.4934,-544.5626 404.2016,-538.5279 393.6308,-537.8149 395.4934,-544.5626"/>
</g>
<!-- Node8 -->
<g id="node8" class="node">
<title>Node8</title>
<g id="a_node8"><a xlink:href="../../da/d40/classerhic_1_1Forester.html#ac3270ff843db1a86af6fef7d4a078bac" target="_top" xlink:title="erhic::Forester::SetMustQuit">
<polygon fill="none" stroke="#000000" points="380.5,-557.5 380.5,-577.5 538.5,-577.5 538.5,-557.5 380.5,-557.5"/>
<text text-anchor="middle" x="459.5" y="-564.5" font-family="FreeSans" font-size="10.00" fill="#000000">erhic::Forester::SetMustQuit</text>
</a>
</g>
</g>
<!-- Node1&#45;&gt;Node8 -->
<g id="edge28" class="edge">
<title>Node1&#45;&gt;Node8</title>
<path fill="none" stroke="#191970" d="M72.1898,-522.5709C89.2381,-537.1621 123.402,-563.5254 158,-573.5 238.7709,-596.7861 336.8254,-588.5022 398.7102,-579.0892"/>
<polygon fill="#191970" stroke="#191970" points="399.3683,-582.5287 408.7001,-577.5119 398.2765,-575.6144 399.3683,-582.5287"/>
</g>
<!-- Node11 -->
<g id="node11" class="node">
<title>Node11</title>
<g id="a_node11"><a xlink:href="../../da/d40/classerhic_1_1Forester.html#a862c8d908fce0b023af29dfa8fa14d41" target="_top" xlink:title="erhic::Forester::GetMaxNEvents">
<polygon fill="none" stroke="#000000" points="158,-525.5 158,-545.5 334,-545.5 334,-525.5 158,-525.5"/>
<text text-anchor="middle" x="246" y="-532.5" font-family="FreeSans" font-size="10.00" fill="#000000">erhic::Forester::GetMaxNEvents</text>
</a>
</g>
</g>
<!-- Node1&#45;&gt;Node11 -->
<g id="edge12" class="edge">
<title>Node1&#45;&gt;Node11</title>
<path fill="none" stroke="#191970" d="M122.0886,-520.0948C132.8337,-521.4307 144.2204,-522.8463 155.5657,-524.2568"/>
<polygon fill="#191970" stroke="#191970" points="155.1525,-527.7323 165.5079,-525.4929 156.0162,-520.7858 155.1525,-527.7323"/>
</g>
<!-- Node12 -->
<g id="node12" class="node">
<title>Node12</title>
<g id="a_node12"><a xlink:href="../../da/d46/classerhic_1_1VirtualEvent.html#a7e4321dcd1f62fc84de0ddb27bb08230" target="_top" xlink:title="erhic::VirtualEvent\l::GetNTracks">
<polygon fill="none" stroke="#000000" points="191,-474.5 191,-506.5 301,-506.5 301,-474.5 191,-474.5"/>
<text text-anchor="start" x="199" y="-493.5" font-family="FreeSans" font-size="10.00" fill="#000000">erhic::VirtualEvent</text>
<text text-anchor="middle" x="246" y="-481.5" font-family="FreeSans" font-size="10.00" fill="#000000">::GetNTracks</text>
</a>
</g>
</g>
<!-- Node1&#45;&gt;Node12 -->
<g id="edge13" class="edge">
<title>Node1&#45;&gt;Node12</title>
<path fill="none" stroke="#191970" d="M122.0886,-505.2354C140.9126,-502.9969 161.706,-500.5242 180.7957,-498.254"/>
<polygon fill="#191970" stroke="#191970" points="181.3852,-501.7087 190.9019,-497.0522 180.5586,-494.7576 181.3852,-501.7087"/>
</g>
<!-- Node13 -->
<g id="node13" class="node">
<title>Node13</title>
<g id="a_node13"><a xlink:href="../../dd/d96/classerhic_1_1Forester_1_1Status.html#a1bad654246fb702b756868eae662833c" target="_top" xlink:title="erhic::Forester::Status\l::ModifyEventCount">
<polygon fill="none" stroke="#000000" points="182,-423.5 182,-455.5 310,-455.5 310,-423.5 182,-423.5"/>
<text text-anchor="start" x="190" y="-442.5" font-family="FreeSans" font-size="10.00" fill="#000000">erhic::Forester::Status</text>
<text text-anchor="middle" x="246" y="-430.5" font-family="FreeSans" font-size="10.00" fill="#000000">::ModifyEventCount</text>
</a>
</g>
</g>
<!-- Node1&#45;&gt;Node13 -->
<g id="edge14" class="edge">
<title>Node1&#45;&gt;Node13</title>
<path fill="none" stroke="#191970" d="M78.79,-502.4624C97.9141,-491.9682 129.4256,-475.5224 158,-464.5 163.1863,-462.4994 168.5994,-460.5785 174.0803,-458.753"/>
<polygon fill="#191970" stroke="#191970" points="175.5333,-461.9626 183.9849,-455.5734 173.3936,-455.2976 175.5333,-461.9626"/>
</g>
<!-- Node14 -->
<g id="node14" class="node">
<title>Node14</title>
<g id="a_node14"><a xlink:href="../../dd/d96/classerhic_1_1Forester_1_1Status.html#a6e0fbb4a1f36bba1a61feb800448250e" target="_top" xlink:title="erhic::Forester::Status\l::ModifyParticleCount">
<polygon fill="none" stroke="#000000" points="182,-372.5 182,-404.5 310,-404.5 310,-372.5 182,-372.5"/>
<text text-anchor="start" x="190" y="-391.5" font-family="FreeSans" font-size="10.00" fill="#000000">erhic::Forester::Status</text>
<text text-anchor="middle" x="246" y="-379.5" font-family="FreeSans" font-size="10.00" fill="#000000">::ModifyParticleCount</text>
</a>
</g>
</g>
<!-- Node1&#45;&gt;Node14 -->
<g id="edge15" class="edge">
<title>Node1&#45;&gt;Node14</title>
<path fill="none" stroke="#191970" d="M68.027,-502.3988C82.4961,-482.3651 117.6633,-437.4711 158,-413.5 162.4928,-410.83 167.2846,-408.4334 172.2242,-406.2839"/>
<polygon fill="#191970" stroke="#191970" points="173.8681,-409.3968 181.8661,-402.4482 171.2806,-402.8926 173.8681,-409.3968"/>
</g>
<!-- Node15 -->
<g id="node15" class="node">
<title>Node15</title>
<g id="a_node15"><a xlink:href="../../da/d40/classerhic_1_1Forester.html#aaacdeaa70a6e06b61b027354564702d5" target="_top" xlink:title="erhic::Forester::MustQuit">
<polygon fill="none" stroke="#000000" points="175.5,-333.5 175.5,-353.5 316.5,-353.5 316.5,-333.5 175.5,-333.5"/>
<text text-anchor="middle" x="246" y="-340.5" font-family="FreeSans" font-size="10.00" fill="#000000">erhic::Forester::MustQuit</text>
</a>
</g>
</g>
<!-- Node1&#45;&gt;Node15 -->
<g id="edge16" class="edge">
<title>Node1&#45;&gt;Node15</title>
<path fill="none" stroke="#191970" d="M64.4963,-502.1287C74.3621,-474.5449 105.1884,-398.9965 158,-362.5 160.5536,-360.7353 163.2405,-359.1301 166.0248,-357.6702"/>
<polygon fill="#191970" stroke="#191970" points="167.5571,-360.8183 175.2039,-353.485 164.653,-354.4491 167.5571,-360.8183"/>
</g>
<!-- Node16 -->
<g id="node16" class="node">
<title>Node16</title>
<g id="a_node16"><a xlink:href="../../da/d40/classerhic_1_1Forester.html#a968a154a17b9fcc6f385c8ea0fc0394b" target="_top" xlink:title="erhic::Forester::OpenInput">
<polygon fill="none" stroke="#000000" points="171.5,-294.5 171.5,-314.5 320.5,-314.5 320.5,-294.5 171.5,-294.5"/>
<text text-anchor="middle" x="246" y="-301.5" font-family="FreeSans" font-size="10.00" fill="#000000">erhic::Forester::OpenInput</text>
</a>
</g>
</g>
<!-- Node1&#45;&gt;Node16 -->
<g id="edge17" class="edge">
<title>Node1&#45;&gt;Node16</title>
<path fill="none" stroke="#191970" d="M63.0162,-502.3428C69.9144,-470.4085 95.6823,-371.3314 158,-323.5 160.0613,-321.9179 162.226,-320.4611 164.4719,-319.1201"/>
<polygon fill="#191970" stroke="#191970" points="166.1857,-322.1748 173.491,-314.5012 162.9949,-315.9443 166.1857,-322.1748"/>
</g>
<!-- Node26 -->
<g id="node26" class="node">
<title>Node26</title>
<g id="a_node26"><a xlink:href="../../da/d40/classerhic_1_1Forester.html#acb9d5da7354570cd4b9f69c6f2dd7d13" target="_top" xlink:title="erhic::Forester::SetupOutput">
<polygon fill="none" stroke="#000000" points="165.5,-164.5 165.5,-184.5 326.5,-184.5 326.5,-164.5 165.5,-164.5"/>
<text text-anchor="middle" x="246" y="-171.5" font-family="FreeSans" font-size="10.00" fill="#000000">erhic::Forester::SetupOutput</text>
</a>
</g>
</g>
<!-- Node1&#45;&gt;Node26 -->
<g id="edge29" class="edge">
<title>Node1&#45;&gt;Node26</title>
<path fill="none" stroke="#191970" d="M64.1638,-502.4843C74.7264,-469.7556 110.79,-363.5283 158,-284.5 179.0377,-249.2835 210.2857,-212.9922 229.3327,-192.1531"/>
<polygon fill="#191970" stroke="#191970" points="231.9974,-194.4267 236.2204,-184.7099 226.8596,-189.6724 231.9974,-194.4267"/>
</g>
<!-- Node4&#45;&gt;Node2 -->
<g id="edge4" class="edge">
<title>Node4&#45;&gt;Node2</title>
<path fill="none" stroke="#191970" d="M308.2664,-659.1749C317.413,-662.0908 326.3246,-666.0727 334,-671.5 358.4647,-688.7991 345.4123,-711.3762 370,-728.5 372.3829,-730.1596 374.8819,-731.679 377.4683,-733.0699"/>
<polygon fill="#191970" stroke="#191970" points="376.0155,-736.2542 386.5566,-737.3201 378.9809,-729.9134 376.0155,-736.2542"/>
</g>
<!-- Node5 -->
<g id="node5" class="node">
<title>Node5</title>
<g id="a_node5"><a xlink:href="../../da/d40/classerhic_1_1Forester.html#aec0e2bf9601fef347696540bea2704f5" target="_top" xlink:title="erhic::Forester::GetGetStatus">
<polygon fill="none" stroke="#000000" points="377.5,-596.5 377.5,-616.5 541.5,-616.5 541.5,-596.5 377.5,-596.5"/>
<text text-anchor="middle" x="459.5" y="-603.5" font-family="FreeSans" font-size="10.00" fill="#000000">erhic::Forester::GetGetStatus</text>
</a>
</g>
</g>
<!-- Node4&#45;&gt;Node5 -->
<g id="edge5" class="edge">
<title>Node4&#45;&gt;Node5</title>
<path fill="none" stroke="#191970" d="M293.6478,-641.4571C325.6126,-634.7198 367.9012,-625.8065 401.7758,-618.6667"/>
<polygon fill="#191970" stroke="#191970" points="402.9347,-621.9994 411.9978,-616.5122 401.4909,-615.1499 402.9347,-621.9994"/>
</g>
<!-- Node4&#45;&gt;Node6 -->
<g id="edge6" class="edge">
<title>Node4&#45;&gt;Node6</title>
<path fill="none" stroke="#191970" d="M262.3613,-641.3246C280.6513,-629.6089 310.7506,-609.2918 334,-588.5 351.8283,-572.5563 349.7402,-561.2118 370,-548.5 373.2038,-546.4898 376.5687,-544.63 380.0386,-542.9097"/>
<polygon fill="#191970" stroke="#191970" points="381.7528,-545.9762 389.4302,-538.675 378.8754,-539.5949 381.7528,-545.9762"/>
</g>
<!-- Node7 -->
<g id="node7" class="node">
<title>Node7</title>
<g id="a_node7"><a xlink:href="../../dd/d96/classerhic_1_1Forester_1_1Status.html#a3c6e370d68374d08e55ff7b944dd4c9d" target="_top" xlink:title="erhic::Forester::Status\l::Print">
<polygon fill="none" stroke="#000000" points="395.5,-686.5 395.5,-718.5 523.5,-718.5 523.5,-686.5 395.5,-686.5"/>
<text text-anchor="start" x="403.5" y="-705.5" font-family="FreeSans" font-size="10.00" fill="#000000">erhic::Forester::Status</text>
<text text-anchor="middle" x="459.5" y="-693.5" font-family="FreeSans" font-size="10.00" fill="#000000">::Print</text>
</a>
</g>
</g>
<!-- Node4&#45;&gt;Node7 -->
<g id="edge7" class="edge">
<title>Node4&#45;&gt;Node7</title>
<path fill="none" stroke="#191970" d="M290.8053,-661.513C304.6651,-664.656 319.9749,-668.1744 334,-671.5 350.7944,-675.4823 368.8245,-679.8696 385.8322,-684.0593"/>
<polygon fill="#191970" stroke="#191970" points="385.1634,-687.4992 395.7108,-686.4986 386.8415,-680.7033 385.1634,-687.4992"/>
</g>
<!-- Node4&#45;&gt;Node8 -->
<g id="edge8" class="edge">
<title>Node4&#45;&gt;Node8</title>
<path fill="none" stroke="#191970" d="M299.1623,-641.4564C311.1536,-637.8414 323.4458,-632.9866 334,-626.5 354.0968,-614.1484 349.5597,-599.2744 370,-587.5 374.1777,-585.0935 378.6192,-582.9765 383.2039,-581.1141"/>
<polygon fill="#191970" stroke="#191970" points="384.5718,-584.3411 392.7766,-577.6379 382.1825,-577.7615 384.5718,-584.3411"/>
</g>
<!-- Node9 -->
<g id="node9" class="node">
<title>Node9</title>
<g id="a_node9"><a xlink:href="../../dd/d96/classerhic_1_1Forester_1_1Status.html#a9e0acb9f20c777867607b8ecae33b318" target="_top" xlink:title="erhic::Forester::Status\l::StopTimer">
<polygon fill="none" stroke="#000000" points="395.5,-635.5 395.5,-667.5 523.5,-667.5 523.5,-635.5 395.5,-635.5"/>
<text text-anchor="start" x="403.5" y="-654.5" font-family="FreeSans" font-size="10.00" fill="#000000">erhic::Forester::Status</text>
<text text-anchor="middle" x="459.5" y="-642.5" font-family="FreeSans" font-size="10.00" fill="#000000">::StopTimer</text>
</a>
</g>
</g>
<!-- Node4&#45;&gt;Node9 -->
<g id="edge9" class="edge">
<title>Node4&#45;&gt;Node9</title>
<path fill="none" stroke="#191970" d="M308.0398,-651.5C332.1705,-651.5 360.0214,-651.5 385.2082,-651.5"/>
<polygon fill="#191970" stroke="#191970" points="385.4503,-655.0001 395.4503,-651.5 385.4503,-648.0001 385.4503,-655.0001"/>
</g>
<!-- Node10 -->
<g id="node10" class="node">
<title>Node10</title>
<g id="a_node10"><a xlink:href="../../df/da1/namespaceActs_1_1VectorHelpers.html#ab52a0c8023eda1c81cc9ddfe7f03b535" target="_top" xlink:title="Access to the time component of input parameter.">
<polygon fill="none" stroke="#000000" points="608.5,-481.5 608.5,-513.5 724.5,-513.5 724.5,-481.5 608.5,-481.5"/>
<text text-anchor="start" x="616.5" y="-500.5" font-family="FreeSans" font-size="10.00" fill="#000000">Acts::VectorHelpers</text>
<text text-anchor="middle" x="666.5" y="-488.5" font-family="FreeSans" font-size="10.00" fill="#000000">::time</text>
</a>
</g>
</g>
<!-- Node9&#45;&gt;Node10 -->
<g id="edge10" class="edge">
<title>Node9&#45;&gt;Node10</title>
<path fill="none" stroke="#191970" d="M523.9416,-638.2431C532.699,-635.1012 541.3083,-631.2392 549,-626.5 592.9417,-599.4258 630.4384,-551.2513 650.6059,-522.054"/>
<polygon fill="#191970" stroke="#191970" points="653.5897,-523.8897 656.2964,-513.6465 647.7927,-519.9661 653.5897,-523.8897"/>
</g>
<!-- Node16&#45;&gt;Node6 -->
<g id="edge20" class="edge">
<title>Node16&#45;&gt;Node6</title>
<path fill="none" stroke="#191970" d="M320.7068,-314.0463C325.5529,-316.592 330.0603,-319.7047 334,-323.5 380.5792,-368.3719 332.2686,-411.9695 370,-464.5 380.9258,-479.7111 397.1898,-491.9565 412.8681,-501.2053"/>
<polygon fill="#191970" stroke="#191970" points="411.5504,-504.4785 421.9868,-506.3043 414.9669,-498.3688 411.5504,-504.4785"/>
</g>
<!-- Node17 -->
<g id="node17" class="node">
<title>Node17</title>
<g id="a_node17"><a xlink:href="../../d0/d81/classerhic_1_1FileType.html#a439e29f1c55c9043d6bac7df8a37a2a7" target="_top" xlink:title="erhic::FileType::CreateEvent\lFactory">
<polygon fill="none" stroke="#000000" points="380.5,-423.5 380.5,-455.5 538.5,-455.5 538.5,-423.5 380.5,-423.5"/>
<text text-anchor="start" x="388.5" y="-442.5" font-family="FreeSans" font-size="10.00" fill="#000000">erhic::FileType::CreateEvent</text>
<text text-anchor="middle" x="459.5" y="-430.5" font-family="FreeSans" font-size="10.00" fill="#000000">Factory</text>
</a>
</g>
</g>
<!-- Node16&#45;&gt;Node17 -->
<g id="edge18" class="edge">
<title>Node16&#45;&gt;Node17</title>
<path fill="none" stroke="#191970" d="M320.1722,-314.6388C325.1401,-317.0496 329.8212,-319.9697 334,-323.5 366.9096,-351.3021 338.0845,-384.5621 370,-413.5 371.7044,-415.0454 373.4955,-416.4993 375.3586,-417.8671"/>
<polygon fill="#191970" stroke="#191970" points="373.6258,-420.913 383.9413,-423.3299 377.3845,-415.0077 373.6258,-420.913"/>
</g>
<!-- Node18 -->
<g id="node18" class="node">
<title>Node18</title>
<g id="a_node18"><a xlink:href="../../d4/da9/classerhic_1_1FileFactory.html#ae083c8a4be0d80b045886e566069bf6a" target="_top" xlink:title="erhic::FileFactory\l::GetFile">
<polygon fill="none" stroke="#000000" points="408.5,-372.5 408.5,-404.5 510.5,-404.5 510.5,-372.5 408.5,-372.5"/>
<text text-anchor="start" x="416.5" y="-391.5" font-family="FreeSans" font-size="10.00" fill="#000000">erhic::FileFactory</text>
<text text-anchor="middle" x="459.5" y="-379.5" font-family="FreeSans" font-size="10.00" fill="#000000">::GetFile</text>
</a>
</g>
</g>
<!-- Node16&#45;&gt;Node18 -->
<g id="edge19" class="edge">
<title>Node16&#45;&gt;Node18</title>
<path fill="none" stroke="#191970" d="M313.4362,-314.5279C320.6187,-316.91 327.6214,-319.8562 334,-323.5 354.4826,-335.2007 349.9398,-350.089 370,-362.5 378.7591,-367.9192 388.696,-372.2509 398.6833,-375.7009"/>
<polygon fill="#191970" stroke="#191970" points="397.6469,-379.044 408.2375,-378.7452 399.7721,-372.3744 397.6469,-379.044"/>
</g>
<!-- Node19 -->
<g id="node19" class="node">
<title>Node19</title>
<g id="a_node19"><a xlink:href="../../d4/da9/classerhic_1_1FileFactory.html#aabc884d6aa29388f65eda4bf1304c321" target="_top" xlink:title="erhic::FileFactory\l::GetInstance">
<polygon fill="none" stroke="#000000" points="408.5,-321.5 408.5,-353.5 510.5,-353.5 510.5,-321.5 408.5,-321.5"/>
<text text-anchor="start" x="416.5" y="-340.5" font-family="FreeSans" font-size="10.00" fill="#000000">erhic::FileFactory</text>
<text text-anchor="middle" x="459.5" y="-328.5" font-family="FreeSans" font-size="10.00" fill="#000000">::GetInstance</text>
</a>
</g>
</g>
<!-- Node16&#45;&gt;Node19 -->
<g id="edge21" class="edge">
<title>Node16&#45;&gt;Node19</title>
<path fill="none" stroke="#191970" d="M310.9266,-314.5355C338.6665,-318.8232 370.882,-323.8026 398.2097,-328.0266"/>
<polygon fill="#191970" stroke="#191970" points="398.0072,-331.5367 408.4245,-329.6054 399.0765,-324.6189 398.0072,-331.5367"/>
</g>
<!-- Node20 -->
<g id="node20" class="node">
<title>Node20</title>
<g id="a_node20"><a xlink:href="../../df/d1f/namespacemake__release.html#ac4ce10921bce3e9b69ab9d13fb74f148" target="_top" xlink:title="make_release.message">
<polygon fill="none" stroke="#000000" points="392.5,-231.5 392.5,-251.5 526.5,-251.5 526.5,-231.5 392.5,-231.5"/>
<text text-anchor="middle" x="459.5" y="-238.5" font-family="FreeSans" font-size="10.00" fill="#000000">make_release.message</text>
</a>
</g>
</g>
<!-- Node16&#45;&gt;Node20 -->
<g id="edge22" class="edge">
<title>Node16&#45;&gt;Node20</title>
<path fill="none" stroke="#191970" d="M271.3315,-294.4027C296.172,-284.7663 335.2652,-270.3035 370,-260.5 378.6445,-258.0602 387.8368,-255.7712 396.9132,-253.6855"/>
<polygon fill="#191970" stroke="#191970" points="397.6878,-257.0988 406.6852,-251.5044 396.1629,-250.2669 397.6878,-257.0988"/>
</g>
<!-- Node21 -->
<g id="node21" class="node">
<title>Node21</title>
<g id="a_node21"><a xlink:href="../../df/d1f/namespacemake__release.html#ac223dbf131aeff704432dfc0df5b196f" target="_top" xlink:title="make_release.split\l_version">
<polygon fill="none" stroke="#000000" points="611,-270.5 611,-302.5 722,-302.5 722,-270.5 611,-270.5"/>
<text text-anchor="start" x="619" y="-289.5" font-family="FreeSans" font-size="10.00" fill="#000000">make_release.split</text>
<text text-anchor="middle" x="666.5" y="-277.5" font-family="FreeSans" font-size="10.00" fill="#000000">_version</text>
</a>
</g>
</g>
<!-- Node20&#45;&gt;Node21 -->
<g id="edge23" class="edge">
<title>Node20&#45;&gt;Node21</title>
<path fill="none" stroke="#191970" d="M507.3579,-251.5805C520.8314,-254.44 535.4942,-257.5722 549,-260.5 565.8979,-264.1631 584.1499,-268.175 601.1146,-271.9273"/>
<polygon fill="#191970" stroke="#191970" points="600.4142,-275.357 610.9344,-274.1021 601.9278,-268.5225 600.4142,-275.357"/>
</g>
<!-- Node22 -->
<g id="node22" class="node">
<title>Node22</title>
<g id="a_node22"><a xlink:href="../../d9/d1d/matscan_8C.html#a388f572c62279f839ee138a9afbdeeb5" target="_top" xlink:title="print">
<polygon fill="none" stroke="#000000" points="646.5,-231.5 646.5,-251.5 686.5,-251.5 686.5,-231.5 646.5,-231.5"/>
<text text-anchor="middle" x="666.5" y="-238.5" font-family="FreeSans" font-size="10.00" fill="#000000">print</text>
</a>
</g>
</g>
<!-- Node20&#45;&gt;Node22 -->
<g id="edge24" class="edge">
<title>Node20&#45;&gt;Node22</title>
<path fill="none" stroke="#191970" d="M526.707,-241.5C563.554,-241.5 607.4278,-241.5 636.0673,-241.5"/>
<polygon fill="#191970" stroke="#191970" points="636.2515,-245.0001 646.2514,-241.5 636.2514,-238.0001 636.2515,-245.0001"/>
</g>
<!-- Node23 -->
<g id="node23" class="node">
<title>Node23</title>
<g id="a_node23"><a xlink:href="../../df/d1f/namespacemake__release.html#aa224e1211df20809f86838554380b725" target="_top" xlink:title="make_release.find_milestone">
<polygon fill="none" stroke="#000000" points="585,-192.5 585,-212.5 748,-212.5 748,-192.5 585,-192.5"/>
<text text-anchor="middle" x="666.5" y="-199.5" font-family="FreeSans" font-size="10.00" fill="#000000">make_release.find_milestone</text>
</a>
</g>
</g>
<!-- Node20&#45;&gt;Node23 -->
<g id="edge25" class="edge">
<title>Node20&#45;&gt;Node23</title>
<path fill="none" stroke="#191970" d="M512.8076,-231.4565C540.4539,-226.2478 574.4044,-219.8513 603.3585,-214.3962"/>
<polygon fill="#191970" stroke="#191970" points="604.1939,-217.8005 613.373,-212.5094 602.8978,-210.9215 604.1939,-217.8005"/>
</g>
<!-- Node24 -->
<g id="node24" class="node">
<title>Node24</title>
<g id="a_node24"><a xlink:href="../../df/d1f/namespacemake__release.html#aad28fb597180feb2be0df4486f1a5d13" target="_top" xlink:title="make_release.format\l_version">
<polygon fill="none" stroke="#000000" points="605,-141.5 605,-173.5 728,-173.5 728,-141.5 605,-141.5"/>
<text text-anchor="start" x="613" y="-160.5" font-family="FreeSans" font-size="10.00" fill="#000000">make_release.format</text>
<text text-anchor="middle" x="666.5" y="-148.5" font-family="FreeSans" font-size="10.00" fill="#000000">_version</text>
</a>
</g>
</g>
<!-- Node20&#45;&gt;Node24 -->
<g id="edge26" class="edge">
<title>Node20&#45;&gt;Node24</title>
<path fill="none" stroke="#191970" d="M526.2234,-231.3621C534.1792,-228.785 541.9639,-225.553 549,-221.5 569.4403,-209.7256 565.0329,-195.0603 585,-182.5 588.357,-180.3883 591.9042,-178.4447 595.565,-176.6573"/>
<polygon fill="#191970" stroke="#191970" points="597.1381,-179.7883 604.855,-172.5288 594.2954,-173.3915 597.1381,-179.7883"/>
</g>
<!-- Node25 -->
<g id="node25" class="node">
<title>Node25</title>
<g id="a_node25"><a xlink:href="../../d6/d72/namespaceutil.html#ac8015eb2508544e525f64f4bd01fd5d8" target="_top" xlink:title="util.Spinner">
<polygon fill="none" stroke="#000000" points="629,-321.5 629,-341.5 704,-341.5 704,-321.5 629,-321.5"/>
<text text-anchor="middle" x="666.5" y="-328.5" font-family="FreeSans" font-size="10.00" fill="#000000">util.Spinner</text>
</a>
</g>
</g>
<!-- Node20&#45;&gt;Node25 -->
<g id="edge27" class="edge">
<title>Node20&#45;&gt;Node25</title>
<path fill="none" stroke="#191970" d="M526.746,-249.9629C534.6143,-252.6068 542.2356,-256.0424 549,-260.5 572.167,-275.7665 562.076,-295.871 585,-311.5 595.0627,-318.3605 607.2438,-322.8731 619.0869,-325.8397"/>
<polygon fill="#191970" stroke="#191970" points="618.3848,-329.2688 628.9017,-327.9856 619.88,-322.4303 618.3848,-329.2688"/>
</g>
<!-- Node26&#45;&gt;Node20 -->
<g id="edge31" class="edge">
<title>Node26&#45;&gt;Node20</title>
<path fill="none" stroke="#191970" d="M269.4269,-184.5276C294.1068,-194.8185 334.2727,-210.7966 370,-221.5 379.1689,-224.2469 388.9671,-226.8066 398.5934,-229.1155"/>
<polygon fill="#191970" stroke="#191970" points="397.996,-232.5699 408.5292,-231.4282 399.583,-225.7522 397.996,-232.5699"/>
</g>
<!-- Node27 -->
<g id="node27" class="node">
<title>Node27</title>
<g id="a_node27"><a xlink:href="../../da/d40/classerhic_1_1Forester.html#a8a2775a97826fbfb0bf55f80586cd000" target="_top" xlink:title="erhic::Forester::GetOutput\lFileName">
<polygon fill="none" stroke="#000000" points="385,-180.5 385,-212.5 534,-212.5 534,-180.5 385,-180.5"/>
<text text-anchor="start" x="393" y="-199.5" font-family="FreeSans" font-size="10.00" fill="#000000">erhic::Forester::GetOutput</text>
<text text-anchor="middle" x="459.5" y="-187.5" font-family="FreeSans" font-size="10.00" fill="#000000">FileName</text>
</a>
</g>
</g>
<!-- Node26&#45;&gt;Node27 -->
<g id="edge30" class="edge">
<title>Node26&#45;&gt;Node27</title>
<path fill="none" stroke="#191970" d="M326.7152,-182.8173C342.3107,-184.4243 358.6957,-186.1127 374.4253,-187.7335"/>
<polygon fill="#191970" stroke="#191970" points="374.3462,-191.2438 384.6523,-188.7874 375.0638,-184.2807 374.3462,-191.2438"/>
</g>
<!-- Node28 -->
<g id="node28" class="node">
<title>Node28</title>
<g id="a_node28"><a xlink:href="../../da/d40/classerhic_1_1Forester.html#a1c8b39fd323c11d0084af29f23c13b52" target="_top" xlink:title="erhic::Forester::GetTreeName">
<polygon fill="none" stroke="#000000" points="377.5,-141.5 377.5,-161.5 541.5,-161.5 541.5,-141.5 377.5,-141.5"/>
<text text-anchor="middle" x="459.5" y="-148.5" font-family="FreeSans" font-size="10.00" fill="#000000">erhic::Forester::GetTreeName</text>
</a>
</g>
</g>
<!-- Node26&#45;&gt;Node28 -->
<g id="edge32" class="edge">
<title>Node26&#45;&gt;Node28</title>
<path fill="none" stroke="#191970" d="M326.7152,-165.8047C339.889,-164.3855 353.6263,-162.9056 367.0559,-161.4589"/>
<polygon fill="#191970" stroke="#191970" points="367.6836,-164.9116 377.2512,-160.3605 366.9338,-157.9518 367.6836,-164.9116"/>
</g>
<!-- Node29 -->
<g id="node29" class="node">
<title>Node29</title>
<g id="a_node29"><a xlink:href="../../da/d40/classerhic_1_1Forester.html#a3c5697a352329712bcddbf1406eadcab" target="_top" xlink:title="erhic::Forester::Allocate\lEvent">
<polygon fill="none" stroke="#000000" points="391.5,-90.5 391.5,-122.5 527.5,-122.5 527.5,-90.5 391.5,-90.5"/>
<text text-anchor="start" x="399.5" y="-109.5" font-family="FreeSans" font-size="10.00" fill="#000000">erhic::Forester::Allocate</text>
<text text-anchor="middle" x="459.5" y="-97.5" font-family="FreeSans" font-size="10.00" fill="#000000">Event</text>
</a>
</g>
</g>
<!-- Node26&#45;&gt;Node29 -->
<g id="edge33" class="edge">
<title>Node26&#45;&gt;Node29</title>
<path fill="none" stroke="#191970" d="M273.4193,-164.4487C298.4398,-155.4066 336.5099,-141.9733 370,-131.5 376.5175,-129.4618 383.3266,-127.4141 390.1526,-125.4158"/>
<polygon fill="#191970" stroke="#191970" points="391.4991,-128.67 400.1337,-122.5303 389.555,-121.9453 391.4991,-128.67"/>
</g>
<!-- Node31 -->
<g id="node31" class="node">
<title>Node31</title>
<g id="a_node31"><a xlink:href="../../da/d40/classerhic_1_1Forester.html#ab1786d8e1b7bb05d963e3c2515c91ac7" target="_top" xlink:title="erhic::Forester::GetBranchName">
<polygon fill="none" stroke="#000000" points="370,-51.5 370,-71.5 549,-71.5 549,-51.5 370,-51.5"/>
<text text-anchor="middle" x="459.5" y="-58.5" font-family="FreeSans" font-size="10.00" fill="#000000">erhic::Forester::GetBranchName</text>
</a>
</g>
</g>
<!-- Node26&#45;&gt;Node31 -->
<g id="edge35" class="edge">
<title>Node26&#45;&gt;Node31</title>
<path fill="none" stroke="#191970" d="M255.9101,-164.4652C275.7038,-145.0395 322.3395,-102.2955 370,-80.5 374.9657,-78.2292 380.2115,-76.2256 385.5728,-74.4584"/>
<polygon fill="#191970" stroke="#191970" points="386.7456,-77.7606 395.312,-71.5263 384.7276,-71.0578 386.7456,-77.7606"/>
</g>
<!-- Node32 -->
<g id="node32" class="node">
<title>Node32</title>
<g id="a_node32"><a xlink:href="../../da/d40/classerhic_1_1Forester.html#a198ab19ee5d6cf67000888c3cca70417" target="_top" xlink:title="erhic::Forester::FindFirst\lEvent">
<polygon fill="none" stroke="#000000" points="390.5,-.5 390.5,-32.5 528.5,-32.5 528.5,-.5 390.5,-.5"/>
<text text-anchor="start" x="398.5" y="-19.5" font-family="FreeSans" font-size="10.00" fill="#000000">erhic::Forester::FindFirst</text>
<text text-anchor="middle" x="459.5" y="-7.5" font-family="FreeSans" font-size="10.00" fill="#000000">Event</text>
</a>
</g>
</g>
<!-- Node26&#45;&gt;Node32 -->
<g id="edge36" class="edge">
<title>Node26&#45;&gt;Node32</title>
<path fill="none" stroke="#191970" d="M252.4593,-164.4087C268.9052,-139.5508 314.9757,-74.9634 370,-41.5 373.5666,-39.3309 377.3266,-37.3449 381.2044,-35.5272"/>
<polygon fill="#191970" stroke="#191970" points="382.6109,-38.7324 390.4309,-31.584 379.86,-32.2956 382.6109,-38.7324"/>
</g>
<!-- Node33 -->
<g id="node33" class="node">
<title>Node33</title>
<g id="a_node33"><a xlink:href="../../dd/d96/classerhic_1_1Forester_1_1Status.html#aa3f851dcff012af7dadcd23c239d7a04" target="_top" xlink:title="erhic::Forester::Status\l::StartTimer">
<polygon fill="none" stroke="#000000" points="395.5,-270.5 395.5,-302.5 523.5,-302.5 523.5,-270.5 395.5,-270.5"/>
<text text-anchor="start" x="403.5" y="-289.5" font-family="FreeSans" font-size="10.00" fill="#000000">erhic::Forester::Status</text>
<text text-anchor="middle" x="459.5" y="-277.5" font-family="FreeSans" font-size="10.00" fill="#000000">::StartTimer</text>
</a>
</g>
</g>
<!-- Node26&#45;&gt;Node33 -->
<g id="edge37" class="edge">
<title>Node26&#45;&gt;Node33</title>
<path fill="none" stroke="#191970" d="M257.849,-184.713C279.0136,-202.4787 325.2974,-239.2057 370,-260.5 375.0215,-262.892 380.3081,-265.1104 385.6982,-267.1587"/>
<polygon fill="#191970" stroke="#191970" points="384.8825,-270.5843 395.4771,-270.6627 387.2438,-263.9945 384.8825,-270.5843"/>
</g>
<!-- Node30 -->
<g id="node30" class="node">
<title>Node30</title>
<g id="a_node30"><a xlink:href="../../d0/d81/classerhic_1_1FileType.html#a4d1bb0a6452420c2d3ea80431e8ffa5e" target="_top" xlink:title="erhic::FileType::Allocate\lEvent">
<polygon fill="none" stroke="#000000" points="599,-90.5 599,-122.5 734,-122.5 734,-90.5 599,-90.5"/>
<text text-anchor="start" x="607" y="-109.5" font-family="FreeSans" font-size="10.00" fill="#000000">erhic::FileType::Allocate</text>
<text text-anchor="middle" x="666.5" y="-97.5" font-family="FreeSans" font-size="10.00" fill="#000000">Event</text>
</a>
</g>
</g>
<!-- Node29&#45;&gt;Node30 -->
<g id="edge34" class="edge">
<title>Node29&#45;&gt;Node30</title>
<path fill="none" stroke="#191970" d="M527.5662,-106.5C547.1226,-106.5 568.5984,-106.5 588.6945,-106.5"/>
<polygon fill="#191970" stroke="#191970" points="588.7462,-110.0001 598.7462,-106.5 588.7462,-103.0001 588.7462,-110.0001"/>
</g>
<!-- Node33&#45;&gt;Node10 -->
<g id="edge38" class="edge">
<title>Node33&#45;&gt;Node10</title>
<path fill="none" stroke="#191970" d="M523.8291,-298.2049C532.7951,-301.5741 541.494,-305.9128 549,-311.5 578.391,-333.3775 629.7221,-426.9292 653.601,-472.4385"/>
<polygon fill="#191970" stroke="#191970" points="650.535,-474.1287 658.262,-481.3774 656.7419,-470.8922 650.535,-474.1287"/>
</g>
</g>
</svg>
