<?xml version="1.0" encoding="UTF-8" standalone="no"?>
<!DOCTYPE svg PUBLIC "-//W3C//DTD SVG 1.1//EN"
 "http://www.w3.org/Graphics/SVG/1.1/DTD/svg11.dtd">
<!-- Generated by graphviz version 2.40.1 (20161225.0304)
 -->
<!-- Title: ThreeDeePolynomial::convertLinearToCff Pages: 1 -->
<svg width="2966pt" height="393pt"
 viewBox="0.00 0.00 2966.00 393.00" xmlns="http://www.w3.org/2000/svg" xmlns:xlink="http://www.w3.org/1999/xlink">
<g id="graph0" class="graph" transform="scale(1 1) rotate(0) translate(4 389)">
<title>ThreeDeePolynomial::convertLinearToCff</title>
<!-- Node1 -->
<g id="node1" class="node">
<title>Node1</title>
<polygon fill="#bfbfbf" stroke="#000000" points="0,-275.5 0,-307.5 121,-307.5 121,-275.5 0,-275.5"/>
<text text-anchor="start" x="8" y="-294.5" font-family="FreeSans" font-size="10.00" fill="#000000">ThreeDeePolynomial</text>
<text text-anchor="middle" x="60.5" y="-282.5" font-family="FreeSans" font-size="10.00" fill="#000000">::convertLinearToCff</text>
</g>
<!-- Node2 -->
<g id="node2" class="node">
<title>Node2</title>
<g id="a_node2"><a xlink:href="../../d0/d93/classThreeDeePolySpace.html#a20f9cfdc0b9d9d829928bd621509f2e0" target="_top" xlink:title="ThreeDeePolySpace::\lcalculateFittingPolynomial">
<polygon fill="none" stroke="#000000" points="157,-275.5 157,-307.5 305,-307.5 305,-275.5 157,-275.5"/>
<text text-anchor="start" x="165" y="-294.5" font-family="FreeSans" font-size="10.00" fill="#000000">ThreeDeePolySpace::</text>
<text text-anchor="middle" x="231" y="-282.5" font-family="FreeSans" font-size="10.00" fill="#000000">calculateFittingPolynomial</text>
</a>
</g>
</g>
<!-- Node1&#45;&gt;Node2 -->
<g id="edge1" class="edge">
<title>Node1&#45;&gt;Node2</title>
<path fill="none" stroke="#191970" d="M131.2788,-291.5C139.7286,-291.5 148.3737,-291.5 156.8691,-291.5"/>
<polygon fill="#191970" stroke="#191970" points="131.092,-288.0001 121.092,-291.5 131.092,-295.0001 131.092,-288.0001"/>
</g>
<!-- Node3 -->
<g id="node3" class="node">
<title>Node3</title>
<g id="a_node3"><a xlink:href="../../d0/d70/classMgrid.html#a8b4cf069b1d54eca62697f84ccdc234c" target="_top" xlink:title="Mgrid::directFieldValue">
<polygon fill="none" stroke="#000000" points="341,-281.5 341,-301.5 473,-301.5 473,-281.5 341,-281.5"/>
<text text-anchor="middle" x="407" y="-288.5" font-family="FreeSans" font-size="10.00" fill="#000000">Mgrid::directFieldValue</text>
</a>
</g>
</g>
<!-- Node2&#45;&gt;Node3 -->
<g id="edge2" class="edge">
<title>Node2&#45;&gt;Node3</title>
<path fill="none" stroke="#191970" d="M315.179,-291.5C323.7753,-291.5 332.4204,-291.5 340.7852,-291.5"/>
<polygon fill="#191970" stroke="#191970" points="315.1298,-288.0001 305.1297,-291.5 315.1297,-295.0001 315.1298,-288.0001"/>
</g>
<!-- Node4 -->
<g id="node4" class="node">
<title>Node4</title>
<g id="a_node4"><a xlink:href="../../d0/d70/classMgrid.html#a1828a602eff466ced7f0c7630948d820" target="_top" xlink:title="Mgrid::getFieldValue">
<polygon fill="none" stroke="#000000" points="509,-281.5 509,-301.5 628,-301.5 628,-281.5 509,-281.5"/>
<text text-anchor="middle" x="568.5" y="-288.5" font-family="FreeSans" font-size="10.00" fill="#000000">Mgrid::getFieldValue</text>
</a>
</g>
</g>
<!-- Node3&#45;&gt;Node4 -->
<g id="edge3" class="edge">
<title>Node3&#45;&gt;Node4</title>
<path fill="none" stroke="#191970" d="M483.2293,-291.5C491.859,-291.5 500.5577,-291.5 508.9297,-291.5"/>
<polygon fill="#191970" stroke="#191970" points="483.1542,-288.0001 473.1542,-291.5 483.1542,-295.0001 483.1542,-288.0001"/>
</g>
<!-- Node4&#45;&gt;Node4 -->
<g id="edge4" class="edge">
<title>Node4&#45;&gt;Node4</title>
<path fill="none" stroke="#191970" d="M538.6786,-310.6639C540.1025,-315.9546 550.043,-320 568.5,-320 596.625,-320 604.9746,-310.6067 593.5488,-301.7271"/>
<polygon fill="#191970" stroke="#191970" points="541.8277,-312.1968 543.4512,-301.7271 535.653,-308.8992 541.8277,-312.1968"/>
</g>
<!-- Node5 -->
<g id="node5" class="node">
<title>Node5</title>
<g id="a_node5"><a xlink:href="../../d0/d70/classMgrid.html#a3bbd50eb926dab58886f507f7cb9167c" target="_top" xlink:title="Mgrid::getFixedTypeField\lValue">
<polygon fill="none" stroke="#000000" points="664,-275.5 664,-307.5 805,-307.5 805,-275.5 664,-275.5"/>
<text text-anchor="start" x="672" y="-294.5" font-family="FreeSans" font-size="10.00" fill="#000000">Mgrid::getFixedTypeField</text>
<text text-anchor="middle" x="734.5" y="-282.5" font-family="FreeSans" font-size="10.00" fill="#000000">Value</text>
</a>
</g>
</g>
<!-- Node4&#45;&gt;Node5 -->
<g id="edge5" class="edge">
<title>Node4&#45;&gt;Node5</title>
<path fill="none" stroke="#191970" d="M638.5536,-291.5C646.9464,-291.5 655.5203,-291.5 663.9205,-291.5"/>
<polygon fill="#191970" stroke="#191970" points="638.4298,-288.0001 628.4298,-291.5 638.4298,-295.0001 638.4298,-288.0001"/>
</g>
<!-- Node6 -->
<g id="node6" class="node">
<title>Node6</title>
<g id="a_node6"><a xlink:href="../../d0/d70/classMgrid.html#a63f5d3e859a481ac9144bfefa00f1a34" target="_top" xlink:title="Mgrid::getCartesianField\lValue">
<polygon fill="none" stroke="#000000" points="843.5,-301.5 843.5,-333.5 982.5,-333.5 982.5,-301.5 843.5,-301.5"/>
<text text-anchor="start" x="851.5" y="-320.5" font-family="FreeSans" font-size="10.00" fill="#000000">Mgrid::getCartesianField</text>
<text text-anchor="middle" x="913" y="-308.5" font-family="FreeSans" font-size="10.00" fill="#000000">Value</text>
</a>
</g>
</g>
<!-- Node5&#45;&gt;Node6 -->
<g id="edge6" class="edge">
<title>Node5&#45;&gt;Node6</title>
<path fill="none" stroke="#191970" d="M815.1552,-303.2481C824.5343,-304.6142 834.0412,-305.999 843.2563,-307.3413"/>
<polygon fill="#191970" stroke="#191970" points="815.448,-299.7539 805.0479,-301.7759 814.439,-306.6808 815.448,-299.7539"/>
</g>
<!-- Node42 -->
<g id="node42" class="node">
<title>Node42</title>
<g id="a_node42"><a xlink:href="../../d0/d70/classMgrid.html#a2eae4888540a2e28671a08190a68aa2f" target="_top" xlink:title="Mgrid::getCylindricalField\lValue">
<polygon fill="none" stroke="#000000" points="841,-250.5 841,-282.5 985,-282.5 985,-250.5 841,-250.5"/>
<text text-anchor="start" x="849" y="-269.5" font-family="FreeSans" font-size="10.00" fill="#000000">Mgrid::getCylindricalField</text>
<text text-anchor="middle" x="913" y="-257.5" font-family="FreeSans" font-size="10.00" fill="#000000">Value</text>
</a>
</g>
</g>
<!-- Node5&#45;&gt;Node42 -->
<g id="edge57" class="edge">
<title>Node5&#45;&gt;Node42</title>
<path fill="none" stroke="#191970" d="M815.0856,-280.2135C823.6953,-279.0077 832.4135,-277.7866 840.9158,-276.5958"/>
<polygon fill="#191970" stroke="#191970" points="814.4658,-276.7661 805.0479,-281.6193 815.4368,-283.6984 814.4658,-276.7661"/>
</g>
<!-- Node7 -->
<g id="node7" class="node">
<title>Node7</title>
<g id="a_node7"><a xlink:href="../../d6/dbc/classEicBeamLineElementMap.html#a8367714c13d17c2fc94fe98825a0875a" target="_top" xlink:title="EicBeamLineElementMap\l::GetFieldValue">
<polygon fill="none" stroke="#000000" points="1029,-352.5 1029,-384.5 1174,-384.5 1174,-352.5 1029,-352.5"/>
<text text-anchor="start" x="1037" y="-371.5" font-family="FreeSans" font-size="10.00" fill="#000000">EicBeamLineElementMap</text>
<text text-anchor="middle" x="1101.5" y="-359.5" font-family="FreeSans" font-size="10.00" fill="#000000">::GetFieldValue</text>
</a>
</g>
</g>
<!-- Node6&#45;&gt;Node7 -->
<g id="edge7" class="edge">
<title>Node6&#45;&gt;Node7</title>
<path fill="none" stroke="#191970" d="M982.1936,-336.2208C1001.8486,-341.5386 1023.0713,-347.2806 1042.0909,-352.4264"/>
<polygon fill="#191970" stroke="#191970" points="982.9509,-332.7999 972.3838,-333.5667 981.1227,-339.557 982.9509,-332.7999"/>
</g>
<!-- Node8 -->
<g id="node8" class="node">
<title>Node8</title>
<g id="a_node8"><a xlink:href="../../d1/d0e/classTrKalmanNode.html#ad109c98d9b096b8e413135681abdb4be" target="_top" xlink:title="TrKalmanNode::GetMagnetic\lField">
<polygon fill="none" stroke="#000000" points="1021,-301.5 1021,-333.5 1182,-333.5 1182,-301.5 1021,-301.5"/>
<text text-anchor="start" x="1029" y="-320.5" font-family="FreeSans" font-size="10.00" fill="#000000">TrKalmanNode::GetMagnetic</text>
<text text-anchor="middle" x="1101.5" y="-308.5" font-family="FreeSans" font-size="10.00" fill="#000000">Field</text>
</a>
</g>
</g>
<!-- Node6&#45;&gt;Node8 -->
<g id="edge8" class="edge">
<title>Node6&#45;&gt;Node8</title>
<path fill="none" stroke="#191970" d="M992.713,-317.5C1002.0697,-317.5 1011.6223,-317.5 1020.9898,-317.5"/>
<polygon fill="#191970" stroke="#191970" points="992.6549,-314.0001 982.6549,-317.5 992.6548,-321.0001 992.6549,-314.0001"/>
</g>
<!-- Node9 -->
<g id="node9" class="node">
<title>Node9</title>
<g id="a_node9"><a xlink:href="../../d2/d22/classRungeKuttaRequest.html#aef9352fbc63d3854ad82f6c6e81146a6" target="_top" xlink:title="RungeKuttaRequest::kk">
<polygon fill="none" stroke="#000000" points="1034,-262.5 1034,-282.5 1169,-282.5 1169,-262.5 1034,-262.5"/>
<text text-anchor="middle" x="1101.5" y="-269.5" font-family="FreeSans" font-size="10.00" fill="#000000">RungeKuttaRequest::kk</text>
</a>
</g>
</g>
<!-- Node6&#45;&gt;Node9 -->
<g id="edge9" class="edge">
<title>Node6&#45;&gt;Node9</title>
<path fill="none" stroke="#191970" d="M990.2936,-299.0479C1013.9717,-293.3954 1039.1262,-287.3903 1059.5112,-282.5239"/>
<polygon fill="#191970" stroke="#191970" points="989.1684,-295.7181 980.2545,-301.4445 990.7939,-302.5268 989.1684,-295.7181"/>
</g>
<!-- Node10 -->
<g id="node10" class="node">
<title>Node10</title>
<g id="a_node10"><a xlink:href="../../d3/dd5/jewel-2_82_80_8f.html#a15e2df3184692bfe4ca2261638190094" target="_top" xlink:title="jewel">
<polygon fill="none" stroke="#000000" points="2398.5,-292.5 2398.5,-312.5 2441.5,-312.5 2441.5,-292.5 2398.5,-292.5"/>
<text text-anchor="middle" x="2420" y="-299.5" font-family="FreeSans" font-size="10.00" fill="#000000">jewel</text>
</a>
</g>
</g>
<!-- Node9&#45;&gt;Node10 -->
<g id="edge10" class="edge">
<title>Node9&#45;&gt;Node10</title>
<path fill="none" stroke="#191970" d="M1160.5969,-285.2717C1167.8973,-287.4065 1175.1837,-289.8145 1182,-292.5 1199.0293,-299.2092 1200.5863,-306.8631 1218,-312.5 1321.2699,-345.929 1351.9543,-341.5 1460.5,-341.5 1460.5,-341.5 1460.5,-341.5 2144.5,-341.5 2239.9058,-341.5 2352.0778,-318.2877 2398.3618,-307.6789"/>
<polygon fill="#191970" stroke="#191970" points="1161.2471,-281.8203 1150.676,-282.5297 1159.3822,-288.5673 1161.2471,-281.8203"/>
</g>
<!-- Node11 -->
<g id="node11" class="node">
<title>Node11</title>
<g id="a_node11"><a xlink:href="../../d6/dcf/pythia6425mod_8f.html#ab37c75f11d388ab995e98e3eca29e81b" target="_top" xlink:title="pytbhg">
<polygon fill="none" stroke="#000000" points="1253.5,-282.5 1253.5,-302.5 1304.5,-302.5 1304.5,-282.5 1253.5,-282.5"/>
<text text-anchor="middle" x="1279" y="-289.5" font-family="FreeSans" font-size="10.00" fill="#000000">pytbhg</text>
</a>
</g>
</g>
<!-- Node9&#45;&gt;Node11 -->
<g id="edge11" class="edge">
<title>Node9&#45;&gt;Node11</title>
<path fill="none" stroke="#191970" d="M1179.2062,-281.2556C1205.7693,-284.2487 1233.673,-287.3927 1253.1989,-289.5928"/>
<polygon fill="#191970" stroke="#191970" points="1179.4405,-277.76 1169.1115,-280.1182 1178.6567,-284.716 1179.4405,-277.76"/>
</g>
<!-- Node39 -->
<g id="node39" class="node">
<title>Node39</title>
<g id="a_node39"><a xlink:href="../../d6/dcf/pythia6425mod_8f.html#a8d44a8d8b3450950fbf946b1c29fb42d" target="_top" xlink:title="pytbhq">
<polygon fill="none" stroke="#000000" points="1253.5,-243.5 1253.5,-263.5 1304.5,-263.5 1304.5,-243.5 1253.5,-243.5"/>
<text text-anchor="middle" x="1279" y="-250.5" font-family="FreeSans" font-size="10.00" fill="#000000">pytbhq</text>
</a>
</g>
</g>
<!-- Node9&#45;&gt;Node39 -->
<g id="edge53" class="edge">
<title>Node9&#45;&gt;Node39</title>
<path fill="none" stroke="#191970" d="M1179.2062,-264.1822C1205.7693,-261.3388 1233.673,-258.3519 1253.1989,-256.2618"/>
<polygon fill="#191970" stroke="#191970" points="1178.6821,-260.7182 1169.1115,-265.2627 1179.4272,-267.6784 1178.6821,-260.7182"/>
</g>
<!-- Node40 -->
<g id="node40" class="node">
<title>Node40</title>
<g id="a_node40"><a xlink:href="../../d2/d22/classRungeKuttaRequest.html#acd0229ed666355d83c7ccfe1ccde8dd9" target="_top" xlink:title="RungeKuttaRequest::\lserveRequest">
<polygon fill="none" stroke="#000000" points="1218,-192.5 1218,-224.5 1340,-224.5 1340,-192.5 1218,-192.5"/>
<text text-anchor="start" x="1226" y="-211.5" font-family="FreeSans" font-size="10.00" fill="#000000">RungeKuttaRequest::</text>
<text text-anchor="middle" x="1279" y="-199.5" font-family="FreeSans" font-size="10.00" fill="#000000">serveRequest</text>
</a>
</g>
</g>
<!-- Node9&#45;&gt;Node40 -->
<g id="edge55" class="edge">
<title>Node9&#45;&gt;Node40</title>
<path fill="none" stroke="#191970" d="M1139.3881,-258.8389C1167.2177,-248.8046 1205.1196,-235.1386 1234.4097,-224.5776"/>
<polygon fill="#191970" stroke="#191970" points="1137.8454,-255.6745 1129.6254,-262.359 1140.2198,-262.2596 1137.8454,-255.6745"/>
</g>
<!-- Node12 -->
<g id="node12" class="node">
<title>Node12</title>
<g id="a_node12"><a xlink:href="../../d6/dcf/pythia6425mod_8f.html#a8e204cdd8fb7ba8d843c00f6da2ec7e9" target="_top" xlink:title="pystbh">
<polygon fill="none" stroke="#000000" points="1435.5,-243.5 1435.5,-263.5 1485.5,-263.5 1485.5,-243.5 1435.5,-243.5"/>
<text text-anchor="middle" x="1460.5" y="-250.5" font-family="FreeSans" font-size="10.00" fill="#000000">pystbh</text>
</a>
</g>
</g>
<!-- Node11&#45;&gt;Node12 -->
<g id="edge12" class="edge">
<title>Node11&#45;&gt;Node12</title>
<path fill="none" stroke="#191970" d="M1314.5801,-284.8547C1350.1455,-277.2125 1403.9298,-265.6556 1435.3027,-258.9143"/>
<polygon fill="#191970" stroke="#191970" points="1313.6611,-281.4722 1304.6196,-286.995 1315.1317,-288.316 1313.6611,-281.4722"/>
</g>
<!-- Node13 -->
<g id="node13" class="node">
<title>Node13</title>
<g id="a_node13"><a xlink:href="../../d6/dcf/pythia6425mod_8f.html#a57a12a8bdfcf423e5b0ed01349b0ff46" target="_top" xlink:title="pysghg">
<polygon fill="none" stroke="#000000" points="1581,-234.5 1581,-254.5 1634,-254.5 1634,-234.5 1581,-234.5"/>
<text text-anchor="middle" x="1607.5" y="-241.5" font-family="FreeSans" font-size="10.00" fill="#000000">pysghg</text>
</a>
</g>
</g>
<!-- Node12&#45;&gt;Node13 -->
<g id="edge13" class="edge">
<title>Node12&#45;&gt;Node13</title>
<path fill="none" stroke="#191970" d="M1496.0097,-251.3259C1522.1251,-249.727 1557.0652,-247.5878 1580.8228,-246.1333"/>
<polygon fill="#191970" stroke="#191970" points="1495.5376,-247.8482 1485.7702,-251.9528 1495.9654,-254.8351 1495.5376,-247.8482"/>
</g>
<!-- Node14 -->
<g id="node14" class="node">
<title>Node14</title>
<g id="a_node14"><a xlink:href="../../d6/dcf/pythia6425mod_8f.html#a3ccdee32be69df9daf5605283165a012" target="_top" xlink:title="pysigh">
<polygon fill="none" stroke="#000000" points="1670,-196.5 1670,-216.5 1719,-216.5 1719,-196.5 1670,-196.5"/>
<text text-anchor="middle" x="1694.5" y="-203.5" font-family="FreeSans" font-size="10.00" fill="#000000">pysigh</text>
</a>
</g>
</g>
<!-- Node13&#45;&gt;Node14 -->
<g id="edge14" class="edge">
<title>Node13&#45;&gt;Node14</title>
<path fill="none" stroke="#191970" d="M1640.0641,-230.2766C1650.4922,-225.7218 1661.817,-220.7753 1671.4229,-216.5796"/>
<polygon fill="#191970" stroke="#191970" points="1638.5774,-227.1066 1630.8144,-234.3167 1641.3794,-233.5214 1638.5774,-227.1066"/>
</g>
<!-- Node15 -->
<g id="node15" class="node">
<title>Node15</title>
<g id="a_node15"><a xlink:href="../../d6/dcf/pythia6425mod_8f.html#aa9cb6f1467302508501201a0e38959d1" target="_top" xlink:title="pymaxi">
<polygon fill="none" stroke="#000000" points="1755,-255.5 1755,-275.5 1808,-275.5 1808,-255.5 1755,-255.5"/>
<text text-anchor="middle" x="1781.5" y="-262.5" font-family="FreeSans" font-size="10.00" fill="#000000">pymaxi</text>
</a>
</g>
</g>
<!-- Node14&#45;&gt;Node15 -->
<g id="edge15" class="edge">
<title>Node14&#45;&gt;Node15</title>
<path fill="none" stroke="#191970" d="M1717.8078,-222.3064C1733.3345,-232.836 1753.2721,-246.3569 1766.6692,-255.4424"/>
<polygon fill="#191970" stroke="#191970" points="1719.4992,-219.2246 1709.2584,-216.5085 1715.5703,-225.018 1719.4992,-219.2246"/>
</g>
<!-- Node19 -->
<g id="node19" class="node">
<title>Node19</title>
<g id="a_node19"><a xlink:href="../../d6/dcf/pythia6425mod_8f.html#a5c7e2372fde451d6f2253ef044e01364" target="_top" xlink:title="pymign">
<polygon fill="none" stroke="#000000" points="1844,-177.5 1844,-197.5 1898,-197.5 1898,-177.5 1844,-177.5"/>
<text text-anchor="middle" x="1871" y="-184.5" font-family="FreeSans" font-size="10.00" fill="#000000">pymign</text>
</a>
</g>
</g>
<!-- Node14&#45;&gt;Node19 -->
<g id="edge20" class="edge">
<title>Node14&#45;&gt;Node19</title>
<path fill="none" stroke="#191970" d="M1729.3158,-202.7521C1762.8919,-199.1377 1813.018,-193.7417 1843.7725,-190.431"/>
<polygon fill="#191970" stroke="#191970" points="1728.6095,-199.3078 1719.0416,-203.8581 1729.3588,-206.2676 1728.6095,-199.3078"/>
</g>
<!-- Node32 -->
<g id="node32" class="node">
<title>Node32</title>
<g id="a_node32"><a xlink:href="../../d6/dcf/pythia6425mod_8f.html#a2d74d5dd64881524212b3720af2696de" target="_top" xlink:title="pyrand">
<polygon fill="none" stroke="#000000" points="1934,-157.5 1934,-177.5 1985,-177.5 1985,-157.5 1934,-157.5"/>
<text text-anchor="middle" x="1959.5" y="-164.5" font-family="FreeSans" font-size="10.00" fill="#000000">pyrand</text>
</a>
</g>
</g>
<!-- Node14&#45;&gt;Node32 -->
<g id="edge52" class="edge">
<title>Node14&#45;&gt;Node32</title>
<path fill="none" stroke="#191970" d="M1728.814,-194.8733C1758.8017,-185.3613 1803.7229,-172.6671 1844,-167.5 1874.6292,-163.5706 1910.2045,-164.3688 1933.6911,-165.6286"/>
<polygon fill="#191970" stroke="#191970" points="1727.6866,-191.5593 1719.245,-197.9617 1729.8367,-198.221 1727.6866,-191.5593"/>
</g>
<!-- Node35 -->
<g id="node35" class="node">
<title>Node35</title>
<g id="a_node35"><a xlink:href="../../d6/dcf/pythia6425mod_8f.html#a4ae1a9148440832c122abdaedf3555a7" target="_top" xlink:title="pymult">
<polygon fill="none" stroke="#000000" points="1845,-216.5 1845,-236.5 1897,-236.5 1897,-216.5 1845,-216.5"/>
<text text-anchor="middle" x="1871" y="-223.5" font-family="FreeSans" font-size="10.00" fill="#000000">pymult</text>
</a>
</g>
</g>
<!-- Node14&#45;&gt;Node35 -->
<g id="edge43" class="edge">
<title>Node14&#45;&gt;Node35</title>
<path fill="none" stroke="#191970" d="M1729.0012,-210.4095C1763.007,-214.2628 1814.2105,-220.0649 1844.945,-223.5476"/>
<polygon fill="#191970" stroke="#191970" points="1729.3721,-206.9292 1719.0416,-209.2809 1728.5839,-213.8847 1729.3721,-206.9292"/>
</g>
<!-- Node36 -->
<g id="node36" class="node">
<title>Node36</title>
<g id="a_node36"><a xlink:href="../../d6/dcf/pythia6425mod_8f.html#af1b5061d1d80462745ef6b9ab52500f2" target="_top" xlink:title="pyptmi">
<polygon fill="none" stroke="#000000" points="1756,-60.5 1756,-80.5 1807,-80.5 1807,-60.5 1756,-60.5"/>
<text text-anchor="middle" x="1781.5" y="-67.5" font-family="FreeSans" font-size="10.00" fill="#000000">pyptmi</text>
</a>
</g>
</g>
<!-- Node14&#45;&gt;Node36 -->
<g id="edge47" class="edge">
<title>Node14&#45;&gt;Node36</title>
<path fill="none" stroke="#191970" d="M1706.4421,-187.8319C1725.0302,-158.7746 1760.2648,-103.6952 1774.885,-80.8407"/>
<polygon fill="#191970" stroke="#191970" points="1703.4796,-185.968 1701.0391,-196.2779 1709.3763,-189.7401 1703.4796,-185.968"/>
</g>
<!-- Node16 -->
<g id="node16" class="node">
<title>Node16</title>
<g id="a_node16"><a xlink:href="../../d6/dcf/pythia6425mod_8f.html#aac00ac3ccd923c2c3dc37e2b89a9f025" target="_top" xlink:title="pyinit">
<polygon fill="none" stroke="#000000" points="1937,-255.5 1937,-275.5 1982,-275.5 1982,-255.5 1937,-255.5"/>
<text text-anchor="middle" x="1959.5" y="-262.5" font-family="FreeSans" font-size="10.00" fill="#000000">pyinit</text>
</a>
</g>
</g>
<!-- Node15&#45;&gt;Node16 -->
<g id="edge16" class="edge">
<title>Node15&#45;&gt;Node16</title>
<path fill="none" stroke="#191970" d="M1818.1725,-265.5C1853.8734,-265.5 1906.9946,-265.5 1936.9075,-265.5"/>
<polygon fill="#191970" stroke="#191970" points="1818.1484,-262.0001 1808.1484,-265.5 1818.1484,-269.0001 1818.1484,-262.0001"/>
</g>
<!-- Node17 -->
<g id="node17" class="node">
<title>Node17</title>
<g id="a_node17"><a xlink:href="../../d3/dd5/jewel-2_82_80_8f.html#a2cba90a4cdaaf1d5de1cf1bfe9afaa2e" target="_top" xlink:title="initpythia">
<polygon fill="none" stroke="#000000" points="2113,-292.5 2113,-312.5 2176,-312.5 2176,-292.5 2113,-292.5"/>
<text text-anchor="middle" x="2144.5" y="-299.5" font-family="FreeSans" font-size="10.00" fill="#000000">initpythia</text>
</a>
</g>
</g>
<!-- Node16&#45;&gt;Node17 -->
<g id="edge17" class="edge">
<title>Node16&#45;&gt;Node17</title>
<path fill="none" stroke="#191970" d="M1992.294,-272.5359C2001.5684,-274.4975 2011.6751,-276.6085 2021,-278.5 2052.1459,-284.8177 2087.7822,-291.7068 2112.7434,-296.4768"/>
<polygon fill="#191970" stroke="#191970" points="1992.7717,-269.0594 1982.2626,-270.4044 1991.3167,-275.9065 1992.7717,-269.0594"/>
</g>
<!-- Node18 -->
<g id="node18" class="node">
<title>Node18</title>
<g id="a_node18"><a xlink:href="../../d6/dcf/pythia6425mod_8f.html#a4cc0e611278607d6b413b5cecdfe16c3" target="_top" xlink:title="pytest">
<polygon fill="none" stroke="#000000" points="2220.5,-229.5 2220.5,-249.5 2268.5,-249.5 2268.5,-229.5 2220.5,-229.5"/>
<text text-anchor="middle" x="2244.5" y="-236.5" font-family="FreeSans" font-size="10.00" fill="#000000">pytest</text>
</a>
</g>
</g>
<!-- Node16&#45;&gt;Node18 -->
<g id="edge19" class="edge">
<title>Node16&#45;&gt;Node18</title>
<path fill="none" stroke="#191970" d="M1992.4224,-262.4966C2050.3748,-257.2097 2169.2951,-246.3608 2220.3461,-241.7035"/>
<polygon fill="#191970" stroke="#191970" points="1991.9816,-259.0221 1982.341,-263.4163 1992.6176,-265.9932 1991.9816,-259.0221"/>
</g>
<!-- Node17&#45;&gt;Node10 -->
<g id="edge18" class="edge">
<title>Node17&#45;&gt;Node10</title>
<path fill="none" stroke="#191970" d="M2186.269,-302.5C2245.6794,-302.5 2352.4478,-302.5 2398.2094,-302.5"/>
<polygon fill="#191970" stroke="#191970" points="2186.1034,-299.0001 2176.1034,-302.5 2186.1033,-306.0001 2186.1034,-299.0001"/>
</g>
<!-- Node19&#45;&gt;Node16 -->
<g id="edge37" class="edge">
<title>Node19&#45;&gt;Node16</title>
<path fill="none" stroke="#191970" d="M1894.4002,-203.6305C1895.6314,-204.5834 1896.8386,-205.5435 1898,-206.5 1917.4164,-222.4901 1938.1656,-243.2611 1949.9152,-255.4121"/>
<polygon fill="#191970" stroke="#191970" points="1896.2819,-200.6697 1886.1536,-197.5605 1892.1323,-206.3072 1896.2819,-200.6697"/>
</g>
<!-- Node20 -->
<g id="node20" class="node">
<title>Node20</title>
<g id="a_node20"><a xlink:href="../../d6/dcf/pythia6425mod_8f.html#ac81fa418f8cd77b0873b2de2a4140933" target="_top" xlink:title="pyevnt">
<polygon fill="none" stroke="#000000" points="2118.5,-148.5 2118.5,-168.5 2170.5,-168.5 2170.5,-148.5 2118.5,-148.5"/>
<text text-anchor="middle" x="2144.5" y="-155.5" font-family="FreeSans" font-size="10.00" fill="#000000">pyevnt</text>
</a>
</g>
</g>
<!-- Node19&#45;&gt;Node20 -->
<g id="edge21" class="edge">
<title>Node19&#45;&gt;Node20</title>
<path fill="none" stroke="#191970" d="M1889.2131,-170.4146C1915.7561,-146.8145 1967.7336,-105.3581 2021,-89.5 2044.8542,-82.3983 2054.0583,-79.8492 2077,-89.5 2105.5767,-101.5212 2128.1018,-132.202 2138.3981,-148.2956"/>
<polygon fill="#191970" stroke="#191970" points="1886.5741,-168.0831 1881.5196,-177.3945 1891.2776,-173.2675 1886.5741,-168.0831"/>
</g>
<!-- Node19&#45;&gt;Node32 -->
<g id="edge38" class="edge">
<title>Node19&#45;&gt;Node32</title>
<path fill="none" stroke="#191970" d="M1907.9852,-179.1418C1916.6841,-177.1759 1925.7682,-175.123 1933.8427,-173.2983"/>
<polygon fill="#191970" stroke="#191970" points="1907.0163,-175.7724 1898.0338,-181.3907 1908.5594,-182.6002 1907.0163,-175.7724"/>
</g>
<!-- Node20&#45;&gt;Node18 -->
<g id="edge36" class="edge">
<title>Node20&#45;&gt;Node18</title>
<path fill="none" stroke="#191970" d="M2165.1142,-175.1975C2185.2227,-191.4854 2215.1603,-215.7349 2231.9378,-229.3246"/>
<polygon fill="#191970" stroke="#191970" points="2167.1387,-172.3332 2157.1651,-168.7587 2162.7327,-177.7727 2167.1387,-172.3332"/>
</g>
<!-- Node21 -->
<g id="node21" class="node">
<title>Node21</title>
<g id="a_node21"><a xlink:href="../../d3/dd5/jewel-2_82_80_8f.html#aeb24fa7919aa21c652e9c8f2ec45cb91" target="_top" xlink:title="genevent">
<polygon fill="none" stroke="#000000" points="2212,-166.5 2212,-186.5 2277,-186.5 2277,-166.5 2212,-166.5"/>
<text text-anchor="middle" x="2244.5" y="-173.5" font-family="FreeSans" font-size="10.00" fill="#000000">genevent</text>
</a>
</g>
</g>
<!-- Node20&#45;&gt;Node21 -->
<g id="edge22" class="edge">
<title>Node20&#45;&gt;Node21</title>
<path fill="none" stroke="#191970" d="M2180.4039,-164.9627C2190.6532,-166.8076 2201.763,-168.8073 2211.8092,-170.6157"/>
<polygon fill="#191970" stroke="#191970" points="2180.9747,-161.5093 2170.5128,-163.1823 2179.7345,-168.3986 2180.9747,-161.5093"/>
</g>
<!-- Node21&#45;&gt;Node10 -->
<g id="edge31" class="edge">
<title>Node21&#45;&gt;Node10</title>
<path fill="none" stroke="#191970" d="M2258.7246,-194.7514C2264.5123,-202.3228 2271.1925,-211.2504 2277,-219.5 2293.8175,-243.3894 2289.2834,-257.4397 2313,-274.5 2338.5641,-292.8893 2375.2871,-299.2085 2398.38,-301.3755"/>
<polygon fill="#191970" stroke="#191970" points="2261.3237,-192.3904 2252.4459,-186.6081 2255.7802,-196.6646 2261.3237,-192.3904"/>
</g>
<!-- Node22 -->
<g id="node22" class="node">
<title>Node22</title>
<g id="a_node22"><a xlink:href="../../dd/d2a/classPHHepMCGenHelper.html#ab0c755f6e53c0bf57ccd314a0017d227" target="_top" xlink:title="send HepMC::GenEvent to DST tree. This function takes ownership of evt">
<polygon fill="none" stroke="#000000" points="2342,-115.5 2342,-147.5 2498,-147.5 2498,-115.5 2342,-115.5"/>
<text text-anchor="start" x="2350" y="-134.5" font-family="FreeSans" font-size="10.00" fill="#000000">PHHepMCGenHelper::insert</text>
<text text-anchor="middle" x="2420" y="-122.5" font-family="FreeSans" font-size="10.00" fill="#000000">_event</text>
</a>
</g>
</g>
<!-- Node21&#45;&gt;Node22 -->
<g id="edge23" class="edge">
<title>Node21&#45;&gt;Node22</title>
<path fill="none" stroke="#191970" d="M2287.0423,-165.5917C2308.1488,-160.1798 2334.0558,-153.537 2357.377,-147.5572"/>
<polygon fill="#191970" stroke="#191970" points="2285.9162,-162.2672 2277.0989,-168.1413 2287.6549,-169.0478 2285.9162,-162.2672"/>
</g>
<!-- Node26 -->
<g id="node26" class="node">
<title>Node26</title>
<g id="a_node26"><a xlink:href="../../da/df0/classPHSartre.html#aafe9fd92317ab1f7eee67a9354696c4e" target="_top" xlink:title="PHSartre::process_event">
<polygon fill="none" stroke="#000000" points="2584.5,-243.5 2584.5,-263.5 2724.5,-263.5 2724.5,-243.5 2584.5,-243.5"/>
<text text-anchor="middle" x="2654.5" y="-250.5" font-family="FreeSans" font-size="10.00" fill="#000000">PHSartre::process_event</text>
</a>
</g>
</g>
<!-- Node21&#45;&gt;Node26 -->
<g id="edge33" class="edge">
<title>Node21&#45;&gt;Node26</title>
<path fill="none" stroke="#191970" d="M2287.5069,-170.0675C2345.0546,-163.4755 2448.9083,-158.7563 2527,-195.5 2548.0507,-205.4048 2542.7395,-222.0656 2563,-233.5 2570.2221,-237.5759 2578.1981,-240.8216 2586.3409,-243.406"/>
<polygon fill="#191970" stroke="#191970" points="2286.8195,-166.6253 2277.317,-171.3106 2287.6672,-173.5738 2286.8195,-166.6253"/>
</g>
<!-- Node28 -->
<g id="node28" class="node">
<title>Node28</title>
<g id="a_node28"><a xlink:href="../../d9/d3a/classPHPythia8.html#a5cc4124cc6be2fb2467714e3d3bc5a6a" target="_top" xlink:title="PHPythia8::process\l_event">
<polygon fill="none" stroke="#000000" points="2598,-.5 2598,-32.5 2711,-32.5 2711,-.5 2598,-.5"/>
<text text-anchor="start" x="2606" y="-19.5" font-family="FreeSans" font-size="10.00" fill="#000000">PHPythia8::process</text>
<text text-anchor="middle" x="2654.5" y="-7.5" font-family="FreeSans" font-size="10.00" fill="#000000">_event</text>
</a>
</g>
</g>
<!-- Node21&#45;&gt;Node28 -->
<g id="edge34" class="edge">
<title>Node21&#45;&gt;Node28</title>
<path fill="none" stroke="#191970" d="M2257.5152,-158.137C2269.9602,-141.9248 2290.17,-118.8498 2313,-105.5 2403.9705,-52.305 2526.858,-30.4148 2597.7084,-21.7766"/>
<polygon fill="#191970" stroke="#191970" points="2254.5821,-156.2164 2251.4329,-166.3323 2260.2031,-160.3882 2254.5821,-156.2164"/>
</g>
<!-- Node30 -->
<g id="node30" class="node">
<title>Node30</title>
<g id="a_node30"><a xlink:href="../../d7/df5/pepsiMaineRHIC__noradcorr_8f.html#ac2ed0c0080f3e6d946824efb82e28ab5" target="_top" xlink:title="pepsimainerhic">
<polygon fill="none" stroke="#000000" points="2373,-244.5 2373,-264.5 2467,-264.5 2467,-244.5 2373,-244.5"/>
<text text-anchor="middle" x="2420" y="-251.5" font-family="FreeSans" font-size="10.00" fill="#000000">pepsimainerhic</text>
</a>
</g>
</g>
<!-- Node21&#45;&gt;Node30 -->
<g id="edge32" class="edge">
<title>Node21&#45;&gt;Node30</title>
<path fill="none" stroke="#191970" d="M2260.2578,-194.0817C2273.1279,-207.3022 2292.4872,-224.7505 2313,-234.5 2331.5191,-243.3019 2353.5608,-248.2355 2372.8126,-250.9986"/>
<polygon fill="#191970" stroke="#191970" points="2262.531,-191.39 2253.1306,-186.503 2257.4317,-196.1855 2262.531,-191.39"/>
</g>
<!-- Node31 -->
<g id="node31" class="node">
<title>Node31</title>
<g id="a_node31"><a xlink:href="../../de/d99/classFun4AllHepMCPileupInputManager.html#a81bf2b69c3c4d3aae0aadebafe1c2c2e" target="_top" xlink:title="Fun4AllHepMCPileupInputManager::run">
<polygon fill="none" stroke="#000000" points="2313,-205.5 2313,-225.5 2527,-225.5 2527,-205.5 2313,-205.5"/>
<text text-anchor="middle" x="2420" y="-212.5" font-family="FreeSans" font-size="10.00" fill="#000000">Fun4AllHepMCPileupInputManager::run</text>
</a>
</g>
</g>
<!-- Node21&#45;&gt;Node31 -->
<g id="edge35" class="edge">
<title>Node21&#45;&gt;Node31</title>
<path fill="none" stroke="#191970" d="M2286.8661,-185.9147C2313.4074,-191.8128 2347.5916,-199.4093 2374.6752,-205.4278"/>
<polygon fill="#191970" stroke="#191970" points="2287.6201,-182.4969 2277.0989,-183.7442 2286.1015,-189.3302 2287.6201,-182.4969"/>
</g>
<!-- Node23 -->
<g id="node23" class="node">
<title>Node23</title>
<g id="a_node23"><a xlink:href="../../db/d1f/classFun4AllOscarInputManager.html#a1537e89c4e652f70747fbbef18ceadc4" target="_top" xlink:title="Fun4AllOscarInputManager\l::ConvertFromOscar">
<polygon fill="none" stroke="#000000" points="2577.5,-192.5 2577.5,-224.5 2731.5,-224.5 2731.5,-192.5 2577.5,-192.5"/>
<text text-anchor="start" x="2585.5" y="-211.5" font-family="FreeSans" font-size="10.00" fill="#000000">Fun4AllOscarInputManager</text>
<text text-anchor="middle" x="2654.5" y="-199.5" font-family="FreeSans" font-size="10.00" fill="#000000">::ConvertFromOscar</text>
</a>
</g>
</g>
<!-- Node22&#45;&gt;Node23 -->
<g id="edge24" class="edge">
<title>Node22&#45;&gt;Node23</title>
<path fill="none" stroke="#191970" d="M2493.9804,-150.5667C2505.1882,-154.1325 2516.505,-158.1301 2527,-162.5 2543.8971,-169.5357 2546.0849,-175.5078 2563,-182.5 2571.8518,-186.1591 2581.3894,-189.4947 2590.8477,-192.4657"/>
<polygon fill="#191970" stroke="#191970" points="2494.77,-147.1476 2484.1826,-147.5458 2492.7075,-153.8369 2494.77,-147.1476"/>
</g>
<!-- Node25 -->
<g id="node25" class="node">
<title>Node25</title>
<g id="a_node25"><a xlink:href="../../dd/da8/classPHPythia6.html#a7a70bdd1c198a83ed143d3e2c4516d0d" target="_top" xlink:title="PHPythia6::process\l_event">
<polygon fill="none" stroke="#000000" points="2598,-141.5 2598,-173.5 2711,-173.5 2711,-141.5 2598,-141.5"/>
<text text-anchor="start" x="2606" y="-160.5" font-family="FreeSans" font-size="10.00" fill="#000000">PHPythia6::process</text>
<text text-anchor="middle" x="2654.5" y="-148.5" font-family="FreeSans" font-size="10.00" fill="#000000">_event</text>
</a>
</g>
</g>
<!-- Node22&#45;&gt;Node25 -->
<g id="edge26" class="edge">
<title>Node22&#45;&gt;Node25</title>
<path fill="none" stroke="#191970" d="M2508.16,-141.2747C2538.2125,-144.6067 2570.9865,-148.2405 2597.8859,-151.223"/>
<polygon fill="#191970" stroke="#191970" points="2508.4099,-137.781 2498.0851,-140.1576 2507.6385,-144.7384 2508.4099,-137.781"/>
</g>
<!-- Node22&#45;&gt;Node26 -->
<g id="edge27" class="edge">
<title>Node22&#45;&gt;Node26</title>
<path fill="none" stroke="#191970" d="M2507.2137,-149.906C2514.3078,-153.3994 2521.0306,-157.5555 2527,-162.5 2554.247,-185.0689 2535.0145,-211.8536 2563,-233.5 2569.3024,-238.3748 2576.5443,-242.1162 2584.1353,-244.9794"/>
<polygon fill="#191970" stroke="#191970" points="2508.6169,-146.6995 2498.0582,-145.826 2505.7676,-153.0934 2508.6169,-146.6995"/>
</g>
<!-- Node27 -->
<g id="node27" class="node">
<title>Node27</title>
<g id="a_node27"><a xlink:href="../../d3/d49/classReadEICFiles.html#a49106bf9561329777334154092890af2" target="_top" xlink:title="ReadEICFiles::process\l_event">
<polygon fill="none" stroke="#000000" points="2591.5,-90.5 2591.5,-122.5 2717.5,-122.5 2717.5,-90.5 2591.5,-90.5"/>
<text text-anchor="start" x="2599.5" y="-109.5" font-family="FreeSans" font-size="10.00" fill="#000000">ReadEICFiles::process</text>
<text text-anchor="middle" x="2654.5" y="-97.5" font-family="FreeSans" font-size="10.00" fill="#000000">_event</text>
</a>
</g>
</g>
<!-- Node22&#45;&gt;Node27 -->
<g id="edge28" class="edge">
<title>Node22&#45;&gt;Node27</title>
<path fill="none" stroke="#191970" d="M2508.1376,-122.1037C2535.7388,-119.1611 2565.6376,-115.9736 2591.1737,-113.2512"/>
<polygon fill="#191970" stroke="#191970" points="2507.6577,-118.6349 2498.0851,-123.1754 2508.3998,-125.5955 2507.6577,-118.6349"/>
</g>
<!-- Node22&#45;&gt;Node28 -->
<g id="edge29" class="edge">
<title>Node22&#45;&gt;Node28</title>
<path fill="none" stroke="#191970" d="M2469.5108,-111.2585C2488.326,-102.49 2509.4397,-91.29 2527,-78.5 2545.546,-64.992 2543.2377,-53.1563 2563,-41.5 2573.6381,-35.2253 2585.8965,-30.4815 2597.9127,-26.91"/>
<polygon fill="#191970" stroke="#191970" points="2467.855,-108.1665 2460.1993,-115.4905 2470.7514,-114.5391 2467.855,-108.1665"/>
</g>
<!-- Node29 -->
<g id="node29" class="node">
<title>Node29</title>
<g id="a_node29"><a xlink:href="../../d6/d6f/classFun4AllHepMCInputManager.html#ab6c80a8ee0701bfff5eee3ec3623015c" target="_top" xlink:title="Fun4AllHepMCInputManager::run">
<polygon fill="none" stroke="#000000" points="2563,-51.5 2563,-71.5 2746,-71.5 2746,-51.5 2563,-51.5"/>
<text text-anchor="middle" x="2654.5" y="-58.5" font-family="FreeSans" font-size="10.00" fill="#000000">Fun4AllHepMCInputManager::run</text>
</a>
</g>
</g>
<!-- Node22&#45;&gt;Node29 -->
<g id="edge30" class="edge">
<title>Node22&#45;&gt;Node29</title>
<path fill="none" stroke="#191970" d="M2469.8855,-111.7999C2497.1115,-101.5346 2531.5838,-89.3186 2563,-80.5 2574.8716,-77.1676 2587.7588,-74.1393 2600.0122,-71.5281"/>
<polygon fill="#191970" stroke="#191970" points="2468.304,-108.6568 2460.2019,-115.4837 2470.7929,-115.1994 2468.304,-108.6568"/>
</g>
<!-- Node24 -->
<g id="node24" class="node">
<title>Node24</title>
<g id="a_node24"><a xlink:href="../../db/d1f/classFun4AllOscarInputManager.html#a4be602bd8c9fe73f9dcc81c8871784a6" target="_top" xlink:title="Fun4AllOscarInputManager::run">
<polygon fill="none" stroke="#000000" points="2782,-198.5 2782,-218.5 2958,-218.5 2958,-198.5 2782,-198.5"/>
<text text-anchor="middle" x="2870" y="-205.5" font-family="FreeSans" font-size="10.00" fill="#000000">Fun4AllOscarInputManager::run</text>
</a>
</g>
</g>
<!-- Node23&#45;&gt;Node24 -->
<g id="edge25" class="edge">
<title>Node23&#45;&gt;Node24</title>
<path fill="none" stroke="#191970" d="M2741.7391,-208.5C2755.0061,-208.5 2768.7039,-208.5 2781.9873,-208.5"/>
<polygon fill="#191970" stroke="#191970" points="2741.6918,-205.0001 2731.6918,-208.5 2741.6917,-212.0001 2741.6918,-205.0001"/>
</g>
<!-- Node32&#45;&gt;Node20 -->
<g id="edge39" class="edge">
<title>Node32&#45;&gt;Node20</title>
<path fill="none" stroke="#191970" d="M1995.3236,-165.7572C2031.4129,-164.0015 2086.2315,-161.3347 2118.3986,-159.7698"/>
<polygon fill="#191970" stroke="#191970" points="1995.0415,-162.2667 1985.2235,-166.2486 1995.3817,-169.2584 1995.0415,-162.2667"/>
</g>
<!-- Node33 -->
<g id="node33" class="node">
<title>Node33</title>
<g id="a_node33"><a xlink:href="../../d6/dcf/pythia6425mod_8f.html#a83ae6561ab82fd7af8b1b3e511f477ac" target="_top" xlink:title="pyevnw">
<polygon fill="none" stroke="#000000" points="2021,-99.5 2021,-119.5 2077,-119.5 2077,-99.5 2021,-99.5"/>
<text text-anchor="middle" x="2049" y="-106.5" font-family="FreeSans" font-size="10.00" fill="#000000">pyevnw</text>
</a>
</g>
</g>
<!-- Node32&#45;&gt;Node33 -->
<g id="edge40" class="edge">
<title>Node32&#45;&gt;Node33</title>
<path fill="none" stroke="#191970" d="M1983.7855,-151.7619C1999.5381,-141.5535 2019.6024,-128.551 2033.2886,-119.6817"/>
<polygon fill="#191970" stroke="#191970" points="1981.5782,-149.0216 1975.0897,-157.3972 1985.3851,-154.896 1981.5782,-149.0216"/>
</g>
<!-- Node34 -->
<g id="node34" class="node">
<title>Node34</title>
<g id="a_node34"><a xlink:href="../../d6/dcf/pythia6425mod_8f.html#ae7cb37215e5a38b3fb0529c9996646e6" target="_top" xlink:title="pyupev">
<polygon fill="none" stroke="#000000" points="2022,-177.5 2022,-197.5 2076,-197.5 2076,-177.5 2022,-177.5"/>
<text text-anchor="middle" x="2049" y="-184.5" font-family="FreeSans" font-size="10.00" fill="#000000">pyupev</text>
</a>
</g>
</g>
<!-- Node32&#45;&gt;Node34 -->
<g id="edge42" class="edge">
<title>Node32&#45;&gt;Node34</title>
<path fill="none" stroke="#191970" d="M1995.1621,-175.4692C2004.0799,-177.462 2013.5004,-179.5671 2021.9251,-181.4497"/>
<polygon fill="#191970" stroke="#191970" points="1995.9097,-172.05 1985.3871,-173.2848 1994.3831,-178.8815 1995.9097,-172.05"/>
</g>
<!-- Node33&#45;&gt;Node20 -->
<g id="edge41" class="edge">
<title>Node33&#45;&gt;Node20</title>
<path fill="none" stroke="#191970" d="M2077.7713,-124.2623C2092.9441,-132.0472 2111.1704,-141.3989 2124.7377,-148.3602"/>
<polygon fill="#191970" stroke="#191970" points="2079.2827,-121.1039 2068.7877,-119.6528 2076.0871,-127.332 2079.2827,-121.1039"/>
</g>
<!-- Node35&#45;&gt;Node16 -->
<g id="edge45" class="edge">
<title>Node35&#45;&gt;Node16</title>
<path fill="none" stroke="#191970" d="M1903.2121,-240.6952C1914.3444,-245.6009 1926.5767,-250.9914 1936.7863,-255.4906"/>
<polygon fill="#191970" stroke="#191970" points="1904.3532,-237.3733 1893.7909,-236.5435 1901.5304,-243.7789 1904.3532,-237.3733"/>
</g>
<!-- Node35&#45;&gt;Node20 -->
<g id="edge44" class="edge">
<title>Node35&#45;&gt;Node20</title>
<path fill="none" stroke="#191970" d="M1907.0617,-228.5177C1949.2003,-229.6404 2020.3685,-227.6524 2077,-206.5 2099.6307,-198.0472 2121.6284,-180.0168 2134.0777,-168.6198"/>
<polygon fill="#191970" stroke="#191970" points="1907.1139,-225.0175 1897.0005,-228.175 1906.8756,-232.0135 1907.1139,-225.0175"/>
</g>
<!-- Node35&#45;&gt;Node32 -->
<g id="edge46" class="edge">
<title>Node35&#45;&gt;Node32</title>
<path fill="none" stroke="#191970" d="M1894.7096,-210.6936C1910.5041,-200.164 1930.7854,-186.6431 1944.4135,-177.5576"/>
<polygon fill="#191970" stroke="#191970" points="1892.3919,-208.0322 1886.0128,-216.4915 1896.2748,-213.8566 1892.3919,-208.0322"/>
</g>
<!-- Node37 -->
<g id="node37" class="node">
<title>Node37</title>
<g id="a_node37"><a xlink:href="../../d6/dcf/pythia6425mod_8f.html#a15448b25c4eb515f33e35f86f376af68" target="_top" xlink:title="pyevol">
<polygon fill="none" stroke="#000000" points="1934.5,-21.5 1934.5,-41.5 1984.5,-41.5 1984.5,-21.5 1934.5,-21.5"/>
<text text-anchor="middle" x="1959.5" y="-28.5" font-family="FreeSans" font-size="10.00" fill="#000000">pyevol</text>
</a>
</g>
</g>
<!-- Node36&#45;&gt;Node37 -->
<g id="edge48" class="edge">
<title>Node36&#45;&gt;Node37</title>
<path fill="none" stroke="#191970" d="M1817.2211,-65.5943C1840.4004,-62.1102 1871.1732,-56.9181 1898,-50.5 1910.0638,-47.6138 1923.2283,-43.6584 1934.2708,-40.1037"/>
<polygon fill="#191970" stroke="#191970" points="1816.5325,-62.1578 1807.1469,-67.0732 1817.5493,-69.0835 1816.5325,-62.1578"/>
</g>
<!-- Node38 -->
<g id="node38" class="node">
<title>Node38</title>
<g id="a_node38"><a xlink:href="../../d6/dcf/pythia6425mod_8f.html#ac00de061be805868aa61d626239f5fa9" target="_top" xlink:title="pyptis">
<polygon fill="none" stroke="#000000" points="1847.5,-21.5 1847.5,-41.5 1894.5,-41.5 1894.5,-21.5 1847.5,-21.5"/>
<text text-anchor="middle" x="1871" y="-28.5" font-family="FreeSans" font-size="10.00" fill="#000000">pyptis</text>
</a>
</g>
</g>
<!-- Node36&#45;&gt;Node38 -->
<g id="edge50" class="edge">
<title>Node36&#45;&gt;Node38</title>
<path fill="none" stroke="#191970" d="M1813.7353,-56.4533C1825.084,-51.5081 1837.6004,-46.054 1848.0296,-41.5094"/>
<polygon fill="#191970" stroke="#191970" points="1812.3177,-53.2531 1804.5485,-60.4565 1815.1141,-59.6703 1812.3177,-53.2531"/>
</g>
<!-- Node37&#45;&gt;Node33 -->
<g id="edge49" class="edge">
<title>Node37&#45;&gt;Node33</title>
<path fill="none" stroke="#191970" d="M1978.7408,-48.2685C1996.539,-63.7798 2022.4206,-86.3359 2037.2966,-99.3004"/>
<polygon fill="#191970" stroke="#191970" points="1981.0389,-45.6287 1971.2006,-41.6971 1976.4398,-50.9059 1981.0389,-45.6287"/>
</g>
<!-- Node38&#45;&gt;Node37 -->
<g id="edge51" class="edge">
<title>Node38&#45;&gt;Node37</title>
<path fill="none" stroke="#191970" d="M1904.9848,-31.5C1914.7962,-31.5 1925.3202,-31.5 1934.4796,-31.5"/>
<polygon fill="#191970" stroke="#191970" points="1904.7164,-28.0001 1894.7164,-31.5 1904.7163,-35.0001 1904.7164,-28.0001"/>
</g>
<!-- Node39&#45;&gt;Node12 -->
<g id="edge54" class="edge">
<title>Node39&#45;&gt;Node12</title>
<path fill="none" stroke="#191970" d="M1315.0391,-253.5C1350.6067,-253.5 1404.0644,-253.5 1435.3027,-253.5"/>
<polygon fill="#191970" stroke="#191970" points="1314.6196,-250.0001 1304.6196,-253.5 1314.6195,-257.0001 1314.6196,-250.0001"/>
</g>
<!-- Node41 -->
<g id="node41" class="node">
<title>Node41</title>
<g id="a_node41"><a xlink:href="../../d1/d0e/classTrKalmanNode.html#a57b9335f58000cd1d2ab55b7ce4dabea" target="_top" xlink:title="TrKalmanNode::PerformRunge\lKuttaStep">
<polygon fill="none" stroke="#000000" points="1376,-192.5 1376,-224.5 1545,-224.5 1545,-192.5 1376,-192.5"/>
<text text-anchor="start" x="1384" y="-211.5" font-family="FreeSans" font-size="10.00" fill="#000000">TrKalmanNode::PerformRunge</text>
<text text-anchor="middle" x="1460.5" y="-199.5" font-family="FreeSans" font-size="10.00" fill="#000000">KuttaStep</text>
</a>
</g>
</g>
<!-- Node40&#45;&gt;Node41 -->
<g id="edge56" class="edge">
<title>Node40&#45;&gt;Node41</title>
<path fill="none" stroke="#191970" d="M1350.2563,-208.5C1358.6158,-208.5 1367.2071,-208.5 1375.7277,-208.5"/>
<polygon fill="#191970" stroke="#191970" points="1350.1946,-205.0001 1340.1946,-208.5 1350.1946,-212.0001 1350.1946,-205.0001"/>
</g>
</g>
</svg>
