<?xml version="1.0" encoding="UTF-8" standalone="no"?>
<!DOCTYPE svg PUBLIC "-//W3C//DTD SVG 1.1//EN"
 "http://www.w3.org/Graphics/SVG/1.1/DTD/svg11.dtd">
<!-- Generated by graphviz version 2.40.1 (20161225.0304)
 -->
<!-- Title: fun4all_coresoftware/blob/master/offline/packages/trackbase_historic/SvtxTrack_v1.h Pages: 1 -->
<svg width="2065pt" height="251pt"
 viewBox="0.00 0.00 2064.50 251.00" xmlns="http://www.w3.org/2000/svg" xmlns:xlink="http://www.w3.org/1999/xlink">
<g id="graph0" class="graph" transform="scale(1 1) rotate(0) translate(4 247)">
<title>fun4all_coresoftware/blob/master/offline/packages/trackbase_historic/SvtxTrack_v1.h</title>
<!-- Node1 -->
<g id="node1" class="node">
<title>Node1</title>
<polygon fill="#bfbfbf" stroke="#000000" points="980,-186.5 980,-242.5 1144,-242.5 1144,-186.5 980,-186.5"/>
<text text-anchor="start" x="988" y="-229.5" font-family="FreeSans" font-size="10.00" fill="#000000">fun4all_coresoftware</text>
<text text-anchor="start" x="988" y="-217.5" font-family="FreeSans" font-size="10.00" fill="#000000">/blob/master/offline</text>
<text text-anchor="start" x="988" y="-205.5" font-family="FreeSans" font-size="10.00" fill="#000000">/packages/trackbase_historic</text>
<text text-anchor="middle" x="1062" y="-193.5" font-family="FreeSans" font-size="10.00" fill="#000000">/SvtxTrack_v1.h</text>
</g>
<!-- Node2 -->
<g id="node2" class="node">
<title>Node2</title>
<g id="a_node2"><a xlink:href="../../d2/d22/PHTpcTracker_8cc.html" target="_top" xlink:title="fun4all_coresoftware\l/blob/master/offline\l/packages/PHTpcTracker\l/PHTpcTracker.cc">
<polygon fill="none" stroke="#000000" points="230.5,-93.5 230.5,-149.5 371.5,-149.5 371.5,-93.5 230.5,-93.5"/>
<text text-anchor="start" x="238.5" y="-136.5" font-family="FreeSans" font-size="10.00" fill="#000000">fun4all_coresoftware</text>
<text text-anchor="start" x="238.5" y="-124.5" font-family="FreeSans" font-size="10.00" fill="#000000">/blob/master/offline</text>
<text text-anchor="start" x="238.5" y="-112.5" font-family="FreeSans" font-size="10.00" fill="#000000">/packages/PHTpcTracker</text>
<text text-anchor="middle" x="301" y="-100.5" font-family="FreeSans" font-size="10.00" fill="#000000">/PHTpcTracker.cc</text>
</a>
</g>
</g>
<!-- Node1&#45;&gt;Node2 -->
<g id="edge1" class="edge">
<title>Node1&#45;&gt;Node2</title>
<path fill="none" stroke="#191970" d="M969.549,-208.5909C810.2788,-197.9353 490.6901,-174.3368 381,-150 377.9773,-149.3294 374.9121,-148.577 371.8319,-147.7607"/>
<polygon fill="#191970" stroke="#191970" points="969.5935,-212.1015 979.804,-209.2739 970.0588,-205.117 969.5935,-212.1015"/>
</g>
<!-- Node3 -->
<g id="node3" class="node">
<title>Node3</title>
<g id="a_node3"><a xlink:href="../../d0/d56/SvtxTrack__FastSim_8h.html" target="_top" xlink:title="fun4all_coresoftware\l/blob/master/offline\l/packages/trackbase_historic\l/SvtxTrack_FastSim.h">
<polygon fill="none" stroke="#000000" points="390,-93.5 390,-149.5 554,-149.5 554,-93.5 390,-93.5"/>
<text text-anchor="start" x="398" y="-136.5" font-family="FreeSans" font-size="10.00" fill="#000000">fun4all_coresoftware</text>
<text text-anchor="start" x="398" y="-124.5" font-family="FreeSans" font-size="10.00" fill="#000000">/blob/master/offline</text>
<text text-anchor="start" x="398" y="-112.5" font-family="FreeSans" font-size="10.00" fill="#000000">/packages/trackbase_historic</text>
<text text-anchor="middle" x="472" y="-100.5" font-family="FreeSans" font-size="10.00" fill="#000000">/SvtxTrack_FastSim.h</text>
</a>
</g>
</g>
<!-- Node1&#45;&gt;Node3 -->
<g id="edge2" class="edge">
<title>Node1&#45;&gt;Node3</title>
<path fill="none" stroke="#191970" d="M969.4077,-207.4129C868.593,-198.5667 703.0256,-180.729 563,-150 560.0893,-149.3612 557.138,-148.6714 554.1663,-147.9408"/>
<polygon fill="#191970" stroke="#191970" points="969.2971,-210.9163 979.5619,-208.2926 969.9014,-203.9424 969.2971,-210.9163"/>
</g>
<!-- Node9 -->
<g id="node9" class="node">
<title>Node9</title>
<g id="a_node9"><a xlink:href="../../d4/d05/SvtxTrack__v1_8cc.html" target="_top" xlink:title="fun4all_coresoftware\l/blob/master/offline\l/packages/trackbase_historic\l/SvtxTrack_v1.cc">
<polygon fill="none" stroke="#000000" points="572,-93.5 572,-149.5 736,-149.5 736,-93.5 572,-93.5"/>
<text text-anchor="start" x="580" y="-136.5" font-family="FreeSans" font-size="10.00" fill="#000000">fun4all_coresoftware</text>
<text text-anchor="start" x="580" y="-124.5" font-family="FreeSans" font-size="10.00" fill="#000000">/blob/master/offline</text>
<text text-anchor="start" x="580" y="-112.5" font-family="FreeSans" font-size="10.00" fill="#000000">/packages/trackbase_historic</text>
<text text-anchor="middle" x="654" y="-100.5" font-family="FreeSans" font-size="10.00" fill="#000000">/SvtxTrack_v1.cc</text>
</a>
</g>
</g>
<!-- Node1&#45;&gt;Node9 -->
<g id="edge8" class="edge">
<title>Node1&#45;&gt;Node9</title>
<path fill="none" stroke="#191970" d="M970.0133,-198.2159C906.6717,-186.3953 820.7821,-169.1649 746,-150 742.7605,-149.1698 739.4656,-148.2953 736.1438,-147.3886"/>
<polygon fill="#191970" stroke="#191970" points="969.5096,-201.6821 979.9805,-200.0661 970.7872,-194.7997 969.5096,-201.6821"/>
</g>
<!-- Node10 -->
<g id="node10" class="node">
<title>Node10</title>
<g id="a_node10"><a xlink:href="../../d8/df7/PHCASeeding_8cc.html" target="_top" xlink:title="fun4all_coresoftware\l/blob/master/offline\l/packages/trackreco/PHCASeeding.cc">
<polygon fill="none" stroke="#000000" points="754.5,-99.5 754.5,-143.5 959.5,-143.5 959.5,-99.5 754.5,-99.5"/>
<text text-anchor="start" x="762.5" y="-130.5" font-family="FreeSans" font-size="10.00" fill="#000000">fun4all_coresoftware</text>
<text text-anchor="start" x="762.5" y="-118.5" font-family="FreeSans" font-size="10.00" fill="#000000">/blob/master/offline</text>
<text text-anchor="middle" x="857" y="-106.5" font-family="FreeSans" font-size="10.00" fill="#000000">/packages/trackreco/PHCASeeding.cc</text>
</a>
</g>
</g>
<!-- Node1&#45;&gt;Node10 -->
<g id="edge9" class="edge">
<title>Node1&#45;&gt;Node10</title>
<path fill="none" stroke="#191970" d="M990.8223,-182.2096C962.6904,-169.4473 931.076,-155.1052 905.6415,-143.5666"/>
<polygon fill="#191970" stroke="#191970" points="989.6625,-185.5268 1000.2152,-186.4708 992.5545,-179.1521 989.6625,-185.5268"/>
</g>
<!-- Node11 -->
<g id="node11" class="node">
<title>Node11</title>
<g id="a_node11"><a xlink:href="../../d0/d52/PHGenFitTrkFitter_8cc.html" target="_top" xlink:title="fun4all_coresoftware\l/blob/master/offline\l/packages/trackreco/PHGenFit\lTrkFitter.cc">
<polygon fill="none" stroke="#000000" points="977.5,-93.5 977.5,-149.5 1146.5,-149.5 1146.5,-93.5 977.5,-93.5"/>
<text text-anchor="start" x="985.5" y="-136.5" font-family="FreeSans" font-size="10.00" fill="#000000">fun4all_coresoftware</text>
<text text-anchor="start" x="985.5" y="-124.5" font-family="FreeSans" font-size="10.00" fill="#000000">/blob/master/offline</text>
<text text-anchor="start" x="985.5" y="-112.5" font-family="FreeSans" font-size="10.00" fill="#000000">/packages/trackreco/PHGenFit</text>
<text text-anchor="middle" x="1062" y="-100.5" font-family="FreeSans" font-size="10.00" fill="#000000">TrkFitter.cc</text>
</a>
</g>
</g>
<!-- Node1&#45;&gt;Node11 -->
<g id="edge10" class="edge">
<title>Node1&#45;&gt;Node11</title>
<path fill="none" stroke="#191970" d="M1062,-176.1582C1062,-167.2499 1062,-157.9293 1062,-149.5597"/>
<polygon fill="#191970" stroke="#191970" points="1058.5001,-176.3445 1062,-186.3446 1065.5001,-176.3446 1058.5001,-176.3445"/>
</g>
<!-- Node12 -->
<g id="node12" class="node">
<title>Node12</title>
<g id="a_node12"><a xlink:href="../../d8/dbe/PHHoughSeeding_8cc.html" target="_top" xlink:title="fun4all_coresoftware\l/blob/master/offline\l/packages/trackreco/PHHoughSeeding.cc">
<polygon fill="none" stroke="#000000" points="1164.5,-99.5 1164.5,-143.5 1389.5,-143.5 1389.5,-99.5 1164.5,-99.5"/>
<text text-anchor="start" x="1172.5" y="-130.5" font-family="FreeSans" font-size="10.00" fill="#000000">fun4all_coresoftware</text>
<text text-anchor="start" x="1172.5" y="-118.5" font-family="FreeSans" font-size="10.00" fill="#000000">/blob/master/offline</text>
<text text-anchor="middle" x="1277" y="-106.5" font-family="FreeSans" font-size="10.00" fill="#000000">/packages/trackreco/PHHoughSeeding.cc</text>
</a>
</g>
</g>
<!-- Node1&#45;&gt;Node12 -->
<g id="edge11" class="edge">
<title>Node1&#45;&gt;Node12</title>
<path fill="none" stroke="#191970" d="M1136.2651,-182.376C1165.8655,-169.5721 1199.1945,-155.1554 1225.9857,-143.5666"/>
<polygon fill="#191970" stroke="#191970" points="1134.5873,-179.2883 1126.7987,-186.4708 1137.3664,-185.713 1134.5873,-179.2883"/>
</g>
<!-- Node13 -->
<g id="node13" class="node">
<title>Node13</title>
<g id="a_node13"><a xlink:href="../../d8/dda/PHInitZVertexing_8cc.html" target="_top" xlink:title="fun4all_coresoftware\l/blob/master/offline\l/packages/trackreco/PHInitZVertexing.cc">
<polygon fill="none" stroke="#000000" points="1407.5,-99.5 1407.5,-143.5 1628.5,-143.5 1628.5,-99.5 1407.5,-99.5"/>
<text text-anchor="start" x="1415.5" y="-130.5" font-family="FreeSans" font-size="10.00" fill="#000000">fun4all_coresoftware</text>
<text text-anchor="start" x="1415.5" y="-118.5" font-family="FreeSans" font-size="10.00" fill="#000000">/blob/master/offline</text>
<text text-anchor="middle" x="1518" y="-106.5" font-family="FreeSans" font-size="10.00" fill="#000000">/packages/trackreco/PHInitZVertexing.cc</text>
</a>
</g>
</g>
<!-- Node1&#45;&gt;Node13 -->
<g id="edge12" class="edge">
<title>Node1&#45;&gt;Node13</title>
<path fill="none" stroke="#191970" d="M1154.5082,-197.978C1222.3483,-185.5742 1316.6063,-167.7415 1399,-150 1408.3456,-147.9877 1418.0826,-145.8021 1427.7847,-143.5665"/>
<polygon fill="#191970" stroke="#191970" points="1153.4843,-194.607 1144.2746,-199.8446 1154.7404,-201.4934 1153.4843,-194.607"/>
</g>
<!-- Node14 -->
<g id="node14" class="node">
<title>Node14</title>
<g id="a_node14"><a xlink:href="../../d4/d68/PHPatternReco_8cc.html" target="_top" xlink:title="fun4all_coresoftware\l/blob/master/offline\l/packages/trackreco/PHPattern\lReco.cc">
<polygon fill="none" stroke="#000000" points="1647,-93.5 1647,-149.5 1819,-149.5 1819,-93.5 1647,-93.5"/>
<text text-anchor="start" x="1655" y="-136.5" font-family="FreeSans" font-size="10.00" fill="#000000">fun4all_coresoftware</text>
<text text-anchor="start" x="1655" y="-124.5" font-family="FreeSans" font-size="10.00" fill="#000000">/blob/master/offline</text>
<text text-anchor="start" x="1655" y="-112.5" font-family="FreeSans" font-size="10.00" fill="#000000">/packages/trackreco/PHPattern</text>
<text text-anchor="middle" x="1733" y="-100.5" font-family="FreeSans" font-size="10.00" fill="#000000">Reco.cc</text>
</a>
</g>
</g>
<!-- Node1&#45;&gt;Node14 -->
<g id="edge13" class="edge">
<title>Node1&#45;&gt;Node14</title>
<path fill="none" stroke="#191970" d="M1154.403,-209.2901C1268.8436,-201.6633 1469.3269,-184.4527 1638,-150 1640.9524,-149.3969 1643.9451,-148.7432 1646.9588,-148.0484"/>
<polygon fill="#191970" stroke="#191970" points="1154.0288,-205.8071 1144.2796,-209.9547 1154.4874,-212.7921 1154.0288,-205.8071"/>
</g>
<!-- Node15 -->
<g id="node15" class="node">
<title>Node15</title>
<g id="a_node15"><a xlink:href="../../d7/d3c/PHRTreeSeeding_8cc.html" target="_top" xlink:title="fun4all_coresoftware\l/blob/master/offline\l/packages/trackreco/PHRTreeSeeding.cc">
<polygon fill="none" stroke="#000000" points="1837.5,-99.5 1837.5,-143.5 2056.5,-143.5 2056.5,-99.5 1837.5,-99.5"/>
<text text-anchor="start" x="1845.5" y="-130.5" font-family="FreeSans" font-size="10.00" fill="#000000">fun4all_coresoftware</text>
<text text-anchor="start" x="1845.5" y="-118.5" font-family="FreeSans" font-size="10.00" fill="#000000">/blob/master/offline</text>
<text text-anchor="middle" x="1947" y="-106.5" font-family="FreeSans" font-size="10.00" fill="#000000">/packages/trackreco/PHRTreeSeeding.cc</text>
</a>
</g>
</g>
<!-- Node1&#45;&gt;Node15 -->
<g id="edge14" class="edge">
<title>Node1&#45;&gt;Node15</title>
<path fill="none" stroke="#191970" d="M1154.2668,-211.2319C1298.7248,-205.1053 1586.7366,-188.8203 1828,-150 1839.0114,-148.2282 1850.5113,-145.9845 1861.836,-143.537"/>
<polygon fill="#191970" stroke="#191970" points="1153.9618,-207.7415 1144.1165,-211.6557 1154.2538,-214.7354 1153.9618,-207.7415"/>
</g>
<!-- Node4 -->
<g id="node4" class="node">
<title>Node4</title>
<g id="a_node4"><a xlink:href="../../d0/de5/SvtxTrack__FastSim_8cc.html" target="_top" xlink:title="fun4all_coresoftware\l/blob/master/offline\l/packages/trackbase_historic\l/SvtxTrack_FastSim.cc">
<polygon fill="none" stroke="#000000" points="0,-.5 0,-56.5 164,-56.5 164,-.5 0,-.5"/>
<text text-anchor="start" x="8" y="-43.5" font-family="FreeSans" font-size="10.00" fill="#000000">fun4all_coresoftware</text>
<text text-anchor="start" x="8" y="-31.5" font-family="FreeSans" font-size="10.00" fill="#000000">/blob/master/offline</text>
<text text-anchor="start" x="8" y="-19.5" font-family="FreeSans" font-size="10.00" fill="#000000">/packages/trackbase_historic</text>
<text text-anchor="middle" x="82" y="-7.5" font-family="FreeSans" font-size="10.00" fill="#000000">/SvtxTrack_FastSim.cc</text>
</a>
</g>
</g>
<!-- Node3&#45;&gt;Node4 -->
<g id="edge3" class="edge">
<title>Node3&#45;&gt;Node4</title>
<path fill="none" stroke="#191970" d="M380.305,-93.0735C380.2033,-93.049 380.1016,-93.0245 380,-93 289.214,-71.1389 263.752,-79.0019 173,-57 170.1039,-56.2979 167.1653,-55.5536 164.2042,-54.7765"/>
<polygon fill="#191970" stroke="#191970" points="379.3338,-96.4381 389.8862,-95.4907 381.0462,-89.6508 379.3338,-96.4381"/>
</g>
<!-- Node5 -->
<g id="node5" class="node">
<title>Node5</title>
<g id="a_node5"><a xlink:href="../../d4/d0c/PHTruthTrackSeeding_8cc.html" target="_top" xlink:title="fun4all_coresoftware\l/blob/master/offline\l/packages/trackreco/PHTruthTrack\lSeeding.cc">
<polygon fill="none" stroke="#000000" points="182.5,-.5 182.5,-56.5 371.5,-56.5 371.5,-.5 182.5,-.5"/>
<text text-anchor="start" x="190.5" y="-43.5" font-family="FreeSans" font-size="10.00" fill="#000000">fun4all_coresoftware</text>
<text text-anchor="start" x="190.5" y="-31.5" font-family="FreeSans" font-size="10.00" fill="#000000">/blob/master/offline</text>
<text text-anchor="start" x="190.5" y="-19.5" font-family="FreeSans" font-size="10.00" fill="#000000">/packages/trackreco/PHTruthTrack</text>
<text text-anchor="middle" x="277" y="-7.5" font-family="FreeSans" font-size="10.00" fill="#000000">Seeding.cc</text>
</a>
</g>
</g>
<!-- Node3&#45;&gt;Node5 -->
<g id="edge4" class="edge">
<title>Node3&#45;&gt;Node5</title>
<path fill="none" stroke="#191970" d="M404.1912,-89.1604C381.9787,-78.5668 357.4935,-66.8892 335.987,-56.6323"/>
<polygon fill="#191970" stroke="#191970" points="402.6964,-92.3252 413.2291,-93.4708 405.7098,-86.0069 402.6964,-92.3252"/>
</g>
<!-- Node6 -->
<g id="node6" class="node">
<title>Node6</title>
<g id="a_node6"><a xlink:href="../../df/dca/PHG4TrackFastSim_8cc.html" target="_top" xlink:title="Kalman Filter based on smeared truth PHG4Hit.">
<polygon fill="none" stroke="#000000" points="389.5,-.5 389.5,-56.5 554.5,-56.5 554.5,-.5 389.5,-.5"/>
<text text-anchor="start" x="397.5" y="-43.5" font-family="FreeSans" font-size="10.00" fill="#000000">fun4all_coresoftware</text>
<text text-anchor="start" x="397.5" y="-31.5" font-family="FreeSans" font-size="10.00" fill="#000000">/blob/master/simulation</text>
<text text-anchor="start" x="397.5" y="-19.5" font-family="FreeSans" font-size="10.00" fill="#000000">/g4simulation/g4trackfastsim</text>
<text text-anchor="middle" x="472" y="-7.5" font-family="FreeSans" font-size="10.00" fill="#000000">/PHG4TrackFastSim.cc</text>
</a>
</g>
</g>
<!-- Node3&#45;&gt;Node6 -->
<g id="edge5" class="edge">
<title>Node3&#45;&gt;Node6</title>
<path fill="none" stroke="#191970" d="M472,-83.1582C472,-74.2499 472,-64.9293 472,-56.5597"/>
<polygon fill="#191970" stroke="#191970" points="468.5001,-83.3445 472,-93.3446 475.5001,-83.3446 468.5001,-83.3445"/>
</g>
<!-- Node7 -->
<g id="node7" class="node">
<title>Node7</title>
<g id="a_node7"><a xlink:href="../../d7/de6/PHG4TrackFastSimEval_8cc.html" target="_top" xlink:title="Evaluation module for PHG4TrackFastSim output.">
<polygon fill="none" stroke="#000000" points="572.5,-.5 572.5,-56.5 737.5,-56.5 737.5,-.5 572.5,-.5"/>
<text text-anchor="start" x="580.5" y="-43.5" font-family="FreeSans" font-size="10.00" fill="#000000">fun4all_coresoftware</text>
<text text-anchor="start" x="580.5" y="-31.5" font-family="FreeSans" font-size="10.00" fill="#000000">/blob/master/simulation</text>
<text text-anchor="start" x="580.5" y="-19.5" font-family="FreeSans" font-size="10.00" fill="#000000">/g4simulation/g4trackfastsim</text>
<text text-anchor="middle" x="655" y="-7.5" font-family="FreeSans" font-size="10.00" fill="#000000">/PHG4TrackFastSimEval.cc</text>
</a>
</g>
</g>
<!-- Node3&#45;&gt;Node7 -->
<g id="edge6" class="edge">
<title>Node3&#45;&gt;Node7</title>
<path fill="none" stroke="#191970" d="M536.4355,-88.7541C557.1171,-78.2438 579.8259,-66.7033 599.7857,-56.5597"/>
<polygon fill="#191970" stroke="#191970" points="534.7318,-85.6938 527.4027,-93.3446 537.9032,-91.9342 534.7318,-85.6938"/>
</g>
<!-- Node8 -->
<g id="node8" class="node">
<title>Node8</title>
<g id="a_node8"><a xlink:href="../../de/d26/TrackFastSimEval_8cc.html" target="_top" xlink:title="g4lblvtx/blob/master\l/source/TrackFastSimEval.cc">
<polygon fill="none" stroke="#000000" points="755.5,-12.5 755.5,-44.5 914.5,-44.5 914.5,-12.5 755.5,-12.5"/>
<text text-anchor="start" x="763.5" y="-31.5" font-family="FreeSans" font-size="10.00" fill="#000000">g4lblvtx/blob/master</text>
<text text-anchor="middle" x="835" y="-19.5" font-family="FreeSans" font-size="10.00" fill="#000000">/source/TrackFastSimEval.cc</text>
</a>
</g>
</g>
<!-- Node3&#45;&gt;Node8 -->
<g id="edge7" class="edge">
<title>Node3&#45;&gt;Node8</title>
<path fill="none" stroke="#191970" d="M564.4185,-92.7577C645.6225,-72.8952 669.4799,-77.0592 747,-57 760.6813,-53.4598 775.3552,-48.9858 788.7226,-44.6383"/>
<polygon fill="#191970" stroke="#191970" points="563.0785,-89.4847 554.2238,-95.3023 564.7738,-96.2763 563.0785,-89.4847"/>
</g>
</g>
</svg>
