<?xml version="1.0" encoding="UTF-8" standalone="no"?>
<!DOCTYPE svg PUBLIC "-//W3C//DTD SVG 1.1//EN"
 "http://www.w3.org/Graphics/SVG/1.1/DTD/svg11.dtd">
<!-- Generated by graphviz version 2.40.1 (20161225.0304)
 -->
<!-- Title: fun4all_coresoftware/blob/master/simulation/g4simulation/g4detectors/PHG4ConeDetector.cc Pages: 1 -->
<svg width="2323pt" height="293pt"
 viewBox="0.00 0.00 2322.50 293.00" xmlns="http://www.w3.org/2000/svg" xmlns:xlink="http://www.w3.org/1999/xlink">
<g id="graph0" class="graph" transform="scale(1 1) rotate(0) translate(4 289)">
<title>fun4all_coresoftware/blob/master/simulation/g4simulation/g4detectors/PHG4ConeDetector.cc</title>
<!-- Node1 -->
<g id="node1" class="node">
<title>Node1</title>
<polygon fill="#bfbfbf" stroke="#000000" points="1145,-228.5 1145,-284.5 1296,-284.5 1296,-228.5 1145,-228.5"/>
<text text-anchor="start" x="1153" y="-271.5" font-family="FreeSans" font-size="10.00" fill="#000000">fun4all_coresoftware</text>
<text text-anchor="start" x="1153" y="-259.5" font-family="FreeSans" font-size="10.00" fill="#000000">/blob/master/simulation</text>
<text text-anchor="start" x="1153" y="-247.5" font-family="FreeSans" font-size="10.00" fill="#000000">/g4simulation/g4detectors</text>
<text text-anchor="middle" x="1220.5" y="-235.5" font-family="FreeSans" font-size="10.00" fill="#000000">/PHG4ConeDetector.cc</text>
</g>
<!-- Node2 -->
<g id="node2" class="node">
<title>Node2</title>
<g id="a_node2"><a xlink:href="../../d6/dfd/PHG4ConeDetector_8h.html" target="_top" xlink:title="PHG4ConeDetector.h">
<polygon fill="none" stroke="#000000" points="358.5,-171.5 358.5,-191.5 480.5,-191.5 480.5,-171.5 358.5,-171.5"/>
<text text-anchor="middle" x="419.5" y="-178.5" font-family="FreeSans" font-size="10.00" fill="#000000">PHG4ConeDetector.h</text>
</a>
</g>
</g>
<!-- Node1&#45;&gt;Node2 -->
<g id="edge1" class="edge">
<title>Node1&#45;&gt;Node2</title>
<path fill="none" stroke="#191970" d="M1144.7832,-249.4104C990.3878,-234.9539 641.1079,-202.2498 490.6469,-188.1617"/>
<polygon fill="#191970" stroke="#191970" points="490.8779,-184.6681 480.5951,-187.2205 490.2253,-191.6376 490.8779,-184.6681"/>
</g>
<!-- Node3 -->
<g id="node3" class="node">
<title>Node3</title>
<g id="a_node3"><a xlink:href="../../dd/dcc/PHG4Detector_8h.html" target="_top" xlink:title="g4main/PHG4Detector.h">
<polygon fill="none" stroke="#000000" points="665.5,-114.5 665.5,-134.5 803.5,-134.5 803.5,-114.5 665.5,-114.5"/>
<text text-anchor="middle" x="734.5" y="-121.5" font-family="FreeSans" font-size="10.00" fill="#000000">g4main/PHG4Detector.h</text>
</a>
</g>
</g>
<!-- Node1&#45;&gt;Node3 -->
<g id="edge11" class="edge">
<title>Node1&#45;&gt;Node3</title>
<path fill="none" stroke="#191970" d="M1144.9817,-249.1363C1044.996,-238.5816 874.6577,-217.5756 817.5,-192 791.2247,-180.2429 766.3429,-157.9815 750.7977,-142.2437"/>
<polygon fill="#191970" stroke="#191970" points="753.0095,-139.4935 743.5617,-134.6987 747.9574,-144.3387 753.0095,-139.4935"/>
</g>
<!-- Node4 -->
<g id="node4" class="node">
<title>Node4</title>
<polygon fill="none" stroke="#bfbfbf" points="564,-57.5 564,-77.5 725,-77.5 725,-57.5 564,-57.5"/>
<text text-anchor="middle" x="644.5" y="-64.5" font-family="FreeSans" font-size="10.00" fill="#000000">Geant4/G4RotationMatrix.hh</text>
</g>
<!-- Node1&#45;&gt;Node4 -->
<g id="edge28" class="edge">
<title>Node1&#45;&gt;Node4</title>
<path fill="none" stroke="#191970" d="M1144.7472,-251.9746C1055.9346,-245.1724 905.04,-228.9221 780.5,-192 722.347,-174.7595 693.5893,-182.9937 656.5,-135 646.1764,-121.6412 643.6089,-102.3634 643.3719,-87.827"/>
<polygon fill="#191970" stroke="#191970" points="646.8716,-87.874 643.5551,-77.8116 639.8727,-87.7459 646.8716,-87.874"/>
</g>
<!-- Node5 -->
<g id="node5" class="node">
<title>Node5</title>
<polygon fill="none" stroke="#bfbfbf" points="801.5,-57.5 801.5,-77.5 861.5,-77.5 861.5,-57.5 801.5,-57.5"/>
<text text-anchor="middle" x="831.5" y="-64.5" font-family="FreeSans" font-size="10.00" fill="#000000">iostream</text>
</g>
<!-- Node1&#45;&gt;Node5 -->
<g id="edge35" class="edge">
<title>Node1&#45;&gt;Node5</title>
<path fill="none" stroke="#191970" d="M1144.6425,-253.3581C1048.7703,-247.7347 891.4026,-232.4558 851.5,-192 824.2072,-164.3288 825.151,-115.1589 828.2933,-87.6181"/>
<polygon fill="#191970" stroke="#191970" points="831.7791,-87.9577 829.6492,-77.5792 824.8421,-87.0207 831.7791,-87.9577"/>
</g>
<!-- Node8 -->
<g id="node8" class="node">
<title>Node8</title>
<polygon fill="none" stroke="#bfbfbf" points="0,-114.5 0,-134.5 117,-134.5 117,-114.5 0,-114.5"/>
<text text-anchor="middle" x="58.5" y="-121.5" font-family="FreeSans" font-size="10.00" fill="#000000">Geant4/G4String.hh</text>
</g>
<!-- Node1&#45;&gt;Node8 -->
<g id="edge29" class="edge">
<title>Node1&#45;&gt;Node8</title>
<path fill="none" stroke="#191970" d="M1144.9153,-254.8147C993.2712,-250.5733 641.4414,-236.3983 349.5,-192 261.4693,-178.6123 160.6265,-152.8207 103.753,-137.2848"/>
<polygon fill="#191970" stroke="#191970" points="104.5666,-133.8787 93.9965,-134.6022 102.7107,-140.6282 104.5666,-133.8787"/>
</g>
<!-- Node9 -->
<g id="node9" class="node">
<title>Node9</title>
<polygon fill="none" stroke="#bfbfbf" points="447.5,-114.5 447.5,-134.5 609.5,-134.5 609.5,-114.5 447.5,-114.5"/>
<text text-anchor="middle" x="528.5" y="-121.5" font-family="FreeSans" font-size="10.00" fill="#000000">Geant4/G4SystemOfUnits.hh</text>
</g>
<!-- Node1&#45;&gt;Node9 -->
<g id="edge30" class="edge">
<title>Node1&#45;&gt;Node9</title>
<path fill="none" stroke="#191970" d="M1144.7628,-253.0794C1006.0967,-246.0348 717.0685,-227.507 623.5,-192 593.4809,-180.6085 564.173,-157.4013 546.2304,-141.4052"/>
<polygon fill="#191970" stroke="#191970" points="548.5657,-138.7979 538.8245,-134.6314 543.8412,-143.9632 548.5657,-138.7979"/>
</g>
<!-- Node11 -->
<g id="node11" class="node">
<title>Node11</title>
<g id="a_node11"><a xlink:href="../../df/d1c/PHG4Subsystem_8h.html" target="_top" xlink:title="g4main/PHG4Subsystem.h">
<polygon fill="none" stroke="#000000" points="860,-171.5 860,-191.5 1011,-191.5 1011,-171.5 860,-171.5"/>
<text text-anchor="middle" x="935.5" y="-178.5" font-family="FreeSans" font-size="10.00" fill="#000000">g4main/PHG4Subsystem.h</text>
</a>
</g>
</g>
<!-- Node1&#45;&gt;Node11 -->
<g id="edge12" class="edge">
<title>Node1&#45;&gt;Node11</title>
<path fill="none" stroke="#191970" d="M1144.8735,-236.5983C1093.7747,-223.1512 1027.839,-205.7997 983.741,-194.195"/>
<polygon fill="#191970" stroke="#191970" points="984.4123,-190.7526 973.8508,-191.5923 982.6308,-197.5221 984.4123,-190.7526"/>
</g>
<!-- Node16 -->
<g id="node16" class="node">
<title>Node16</title>
<g id="a_node16"><a xlink:href="../../d6/d5e/PHG4Utils_8h.html" target="_top" xlink:title="g4main/PHG4Utils.h">
<polygon fill="none" stroke="#000000" points="1029,-171.5 1029,-191.5 1146,-191.5 1146,-171.5 1029,-171.5"/>
<text text-anchor="middle" x="1087.5" y="-178.5" font-family="FreeSans" font-size="10.00" fill="#000000">g4main/PHG4Utils.h</text>
</a>
</g>
</g>
<!-- Node1&#45;&gt;Node16 -->
<g id="edge21" class="edge">
<title>Node1&#45;&gt;Node16</title>
<path fill="none" stroke="#191970" d="M1170.5973,-228.3594C1151.4962,-217.5881 1130.4433,-205.7162 1114.3076,-196.6171"/>
<polygon fill="#191970" stroke="#191970" points="1115.857,-193.4727 1105.4273,-191.6094 1112.4186,-199.57 1115.857,-193.4727"/>
</g>
<!-- Node18 -->
<g id="node18" class="node">
<title>Node18</title>
<polygon fill="none" stroke="#bfbfbf" points="1164.5,-171.5 1164.5,-191.5 1276.5,-191.5 1276.5,-171.5 1164.5,-171.5"/>
<text text-anchor="middle" x="1220.5" y="-178.5" font-family="FreeSans" font-size="10.00" fill="#000000">Geant4/G4Cons.hh</text>
</g>
<!-- Node1&#45;&gt;Node18 -->
<g id="edge24" class="edge">
<title>Node1&#45;&gt;Node18</title>
<path fill="none" stroke="#191970" d="M1220.5,-228.1457C1220.5,-219.3619 1220.5,-209.8652 1220.5,-201.7476"/>
<polygon fill="#191970" stroke="#191970" points="1224.0001,-201.7295 1220.5,-191.7296 1217.0001,-201.7296 1224.0001,-201.7295"/>
</g>
<!-- Node19 -->
<g id="node19" class="node">
<title>Node19</title>
<polygon fill="none" stroke="#bfbfbf" points="1294.5,-171.5 1294.5,-191.5 1454.5,-191.5 1454.5,-171.5 1294.5,-171.5"/>
<text text-anchor="middle" x="1374.5" y="-178.5" font-family="FreeSans" font-size="10.00" fill="#000000">Geant4/G4LogicalVolume.hh</text>
</g>
<!-- Node1&#45;&gt;Node19 -->
<g id="edge25" class="edge">
<title>Node1&#45;&gt;Node19</title>
<path fill="none" stroke="#191970" d="M1278.2821,-228.3594C1300.8126,-217.3867 1325.6882,-205.272 1344.5013,-196.1098"/>
<polygon fill="#191970" stroke="#191970" points="1346.2841,-199.1346 1353.7421,-191.6094 1343.2191,-192.8412 1346.2841,-199.1346"/>
</g>
<!-- Node20 -->
<g id="node20" class="node">
<title>Node20</title>
<polygon fill="none" stroke="#bfbfbf" points="1472.5,-171.5 1472.5,-191.5 1600.5,-191.5 1600.5,-171.5 1472.5,-171.5"/>
<text text-anchor="middle" x="1536.5" y="-178.5" font-family="FreeSans" font-size="10.00" fill="#000000">Geant4/G4Material.hh</text>
</g>
<!-- Node1&#45;&gt;Node20 -->
<g id="edge26" class="edge">
<title>Node1&#45;&gt;Node20</title>
<path fill="none" stroke="#191970" d="M1296.1899,-238.5356C1354.2191,-224.7629 1432.7998,-206.1124 1484.0594,-193.9463"/>
<polygon fill="#191970" stroke="#191970" points="1485.0114,-197.3177 1493.9328,-191.603 1483.3949,-190.5069 1485.0114,-197.3177"/>
</g>
<!-- Node21 -->
<g id="node21" class="node">
<title>Node21</title>
<polygon fill="none" stroke="#bfbfbf" points="1619,-171.5 1619,-191.5 1772,-191.5 1772,-171.5 1619,-171.5"/>
<text text-anchor="middle" x="1695.5" y="-178.5" font-family="FreeSans" font-size="10.00" fill="#000000">Geant4/G4PVPlacement.hh</text>
</g>
<!-- Node1&#45;&gt;Node21 -->
<g id="edge27" class="edge">
<title>Node1&#45;&gt;Node21</title>
<path fill="none" stroke="#191970" d="M1296.0276,-244.5746C1385.5043,-230.4467 1533.5628,-207.069 1622.099,-193.0896"/>
<polygon fill="#191970" stroke="#191970" points="1622.7317,-196.5332 1632.0634,-191.5163 1621.6399,-189.6188 1622.7317,-196.5332"/>
</g>
<!-- Node22 -->
<g id="node22" class="node">
<title>Node22</title>
<polygon fill="none" stroke="#bfbfbf" points="1790,-171.5 1790,-191.5 1937,-191.5 1937,-171.5 1790,-171.5"/>
<text text-anchor="middle" x="1863.5" y="-178.5" font-family="FreeSans" font-size="10.00" fill="#000000">Geant4/G4ThreeVector.hh</text>
</g>
<!-- Node1&#45;&gt;Node22 -->
<g id="edge31" class="edge">
<title>Node1&#45;&gt;Node22</title>
<path fill="none" stroke="#191970" d="M1296.3039,-248.0982C1402.1429,-236.2973 1600.4913,-213.9279 1779.6108,-192.2198"/>
<polygon fill="#191970" stroke="#191970" points="1780.243,-195.6688 1789.7484,-190.9893 1779.3995,-188.7198 1780.243,-195.6688"/>
</g>
<!-- Node23 -->
<g id="node23" class="node">
<title>Node23</title>
<polygon fill="none" stroke="#bfbfbf" points="1955,-171.5 1955,-191.5 2106,-191.5 2106,-171.5 1955,-171.5"/>
<text text-anchor="middle" x="2030.5" y="-178.5" font-family="FreeSans" font-size="10.00" fill="#000000">Geant4/G4VisAttributes.hh</text>
</g>
<!-- Node1&#45;&gt;Node23 -->
<g id="edge32" class="edge">
<title>Node1&#45;&gt;Node23</title>
<path fill="none" stroke="#191970" d="M1296.0997,-250.6788C1426.3736,-240.4504 1701.8199,-217.9598 1944.8707,-192.1473"/>
<polygon fill="#191970" stroke="#191970" points="1945.3859,-195.6123 1954.9586,-191.072 1944.6439,-188.6517 1945.3859,-195.6123"/>
</g>
<!-- Node24 -->
<g id="node24" class="node">
<title>Node24</title>
<polygon fill="none" stroke="#bfbfbf" points="2124.5,-171.5 2124.5,-191.5 2172.5,-191.5 2172.5,-171.5 2124.5,-171.5"/>
<text text-anchor="middle" x="2148.5" y="-178.5" font-family="FreeSans" font-size="10.00" fill="#000000">cmath</text>
</g>
<!-- Node1&#45;&gt;Node24 -->
<g id="edge33" class="edge">
<title>Node1&#45;&gt;Node24</title>
<path fill="none" stroke="#191970" d="M1296.2805,-253.3419C1478.969,-245.3651 1940.7589,-222.9452 2114.144,-191.8219"/>
<polygon fill="#191970" stroke="#191970" points="2114.9705,-195.2282 2124.1579,-189.9516 2113.6853,-188.3471 2114.9705,-195.2282"/>
</g>
<!-- Node25 -->
<g id="node25" class="node">
<title>Node25</title>
<polygon fill="none" stroke="#bfbfbf" points="2190.5,-171.5 2190.5,-191.5 2240.5,-191.5 2240.5,-171.5 2190.5,-171.5"/>
<text text-anchor="middle" x="2215.5" y="-178.5" font-family="FreeSans" font-size="10.00" fill="#000000">cstdlib</text>
</g>
<!-- Node1&#45;&gt;Node25 -->
<g id="edge34" class="edge">
<title>Node1&#45;&gt;Node25</title>
<path fill="none" stroke="#191970" d="M1296.0641,-253.6997C1488.283,-246.2192 1993.2591,-224.2411 2180.4089,-191.7639"/>
<polygon fill="#191970" stroke="#191970" points="2181.1917,-195.1793 2190.4122,-189.9607 2179.9498,-188.2904 2181.1917,-195.1793"/>
</g>
<!-- Node26 -->
<g id="node26" class="node">
<title>Node26</title>
<polygon fill="none" stroke="#bfbfbf" points="2258.5,-171.5 2258.5,-191.5 2314.5,-191.5 2314.5,-171.5 2258.5,-171.5"/>
<text text-anchor="middle" x="2286.5" y="-178.5" font-family="FreeSans" font-size="10.00" fill="#000000">sstream</text>
</g>
<!-- Node1&#45;&gt;Node26 -->
<g id="edge36" class="edge">
<title>Node1&#45;&gt;Node26</title>
<path fill="none" stroke="#191970" d="M1296.1093,-253.8607C1497.9837,-246.4845 2047.3651,-224.1708 2248.4769,-191.8039"/>
<polygon fill="#191970" stroke="#191970" points="2249.0729,-195.2529 2258.3612,-190.1561 2247.9218,-188.3482 2249.0729,-195.2529"/>
</g>
<!-- Node2&#45;&gt;Node3 -->
<g id="edge2" class="edge">
<title>Node2&#45;&gt;Node3</title>
<path fill="none" stroke="#191970" d="M475.0906,-171.4408C529.3246,-161.627 611.8111,-146.7008 669.1553,-136.3243"/>
<polygon fill="#191970" stroke="#191970" points="669.984,-139.7313 679.2009,-134.5065 668.7375,-132.8431 669.984,-139.7313"/>
</g>
<!-- Node6 -->
<g id="node6" class="node">
<title>Node6</title>
<polygon fill="none" stroke="#bfbfbf" points="986,-.5 986,-20.5 1031,-20.5 1031,-.5 986,-.5"/>
<text text-anchor="middle" x="1008.5" y="-7.5" font-family="FreeSans" font-size="10.00" fill="#000000">string</text>
</g>
<!-- Node2&#45;&gt;Node6 -->
<g id="edge10" class="edge">
<title>Node2&#45;&gt;Node6</title>
<path fill="none" stroke="#191970" d="M419.8476,-171.1513C420.8486,-156.768 424.6076,-130.6309 438.5,-114 475.5825,-69.6078 499.8752,-72.8636 555.5,-57 634.7678,-34.3936 885.4591,-17.7631 975.7168,-12.3722"/>
<polygon fill="#191970" stroke="#191970" points="976.1299,-15.854 985.9063,-11.7708 975.7174,-8.8661 976.1299,-15.854"/>
</g>
<!-- Node7 -->
<g id="node7" class="node">
<title>Node7</title>
<polygon fill="none" stroke="#bfbfbf" points="135.5,-114.5 135.5,-134.5 257.5,-134.5 257.5,-114.5 135.5,-114.5"/>
<text text-anchor="middle" x="196.5" y="-121.5" font-family="FreeSans" font-size="10.00" fill="#000000">Geant4/G4Region.hh</text>
</g>
<!-- Node2&#45;&gt;Node7 -->
<g id="edge6" class="edge">
<title>Node2&#45;&gt;Node7</title>
<path fill="none" stroke="#191970" d="M380.1454,-171.4408C342.6832,-161.8652 286.1793,-147.4225 245.7473,-137.0879"/>
<polygon fill="#191970" stroke="#191970" points="246.3909,-133.6399 235.8356,-134.5544 244.6573,-140.4219 246.3909,-133.6399"/>
</g>
<!-- Node2&#45;&gt;Node8 -->
<g id="edge7" class="edge">
<title>Node2&#45;&gt;Node8</title>
<path fill="none" stroke="#191970" d="M358.2613,-171.8307C294.1625,-161.7099 193.7444,-145.8544 127.0401,-135.3221"/>
<polygon fill="#191970" stroke="#191970" points="127.4669,-131.8462 117.0434,-133.7437 126.3751,-138.7606 127.4669,-131.8462"/>
</g>
<!-- Node2&#45;&gt;Node9 -->
<g id="edge8" class="edge">
<title>Node2&#45;&gt;Node9</title>
<path fill="none" stroke="#191970" d="M438.7361,-171.4408C455.7533,-162.5419 480.8089,-149.4394 500.1272,-139.3371"/>
<polygon fill="#191970" stroke="#191970" points="501.85,-142.386 509.0896,-134.6504 498.6061,-136.1829 501.85,-142.386"/>
</g>
<!-- Node10 -->
<g id="node10" class="node">
<title>Node10</title>
<polygon fill="none" stroke="#bfbfbf" points="276,-114.5 276,-134.5 391,-134.5 391,-114.5 276,-114.5"/>
<text text-anchor="middle" x="333.5" y="-121.5" font-family="FreeSans" font-size="10.00" fill="#000000">Geant4/G4Types.hh</text>
</g>
<!-- Node2&#45;&gt;Node10 -->
<g id="edge9" class="edge">
<title>Node2&#45;&gt;Node10</title>
<path fill="none" stroke="#191970" d="M404.1249,-171.3095C391.1617,-162.7177 372.3898,-150.2758 357.4572,-140.3786"/>
<polygon fill="#191970" stroke="#191970" points="359.011,-137.2095 348.742,-134.6022 355.1437,-143.0443 359.011,-137.2095"/>
</g>
<!-- Node3&#45;&gt;Node4 -->
<g id="edge3" class="edge">
<title>Node3&#45;&gt;Node4</title>
<path fill="none" stroke="#191970" d="M718.4098,-114.3095C704.7157,-105.6366 684.8274,-93.0407 669.1303,-83.0992"/>
<polygon fill="#191970" stroke="#191970" points="670.7718,-79.9959 660.4509,-77.6022 667.0264,-85.9097 670.7718,-79.9959"/>
</g>
<!-- Node3&#45;&gt;Node5 -->
<g id="edge4" class="edge">
<title>Node3&#45;&gt;Node5</title>
<path fill="none" stroke="#191970" d="M751.8417,-114.3095C766.7388,-105.5556 788.4373,-92.8049 805.4272,-82.8211"/>
<polygon fill="#191970" stroke="#191970" points="807.4601,-85.6862 814.3085,-77.6022 803.9136,-79.651 807.4601,-85.6862"/>
</g>
<!-- Node3&#45;&gt;Node6 -->
<g id="edge5" class="edge">
<title>Node3&#45;&gt;Node6</title>
<path fill="none" stroke="#191970" d="M740.1786,-114.4433C749.212,-99.4261 768.3306,-71.373 792.5,-57 823.1135,-38.7949 922.9768,-22.5327 975.5108,-14.9747"/>
<polygon fill="#191970" stroke="#191970" points="976.2457,-18.4056 985.6565,-13.5387 975.2646,-11.4747 976.2457,-18.4056"/>
</g>
<!-- Node11&#45;&gt;Node5 -->
<g id="edge19" class="edge">
<title>Node11&#45;&gt;Node5</title>
<path fill="none" stroke="#191970" d="M926.2707,-171.3833C908.584,-151.9959 869.7162,-109.3909 847.6445,-85.1969"/>
<polygon fill="#191970" stroke="#191970" points="850.1835,-82.7867 840.8581,-77.7579 845.0121,-87.5045 850.1835,-82.7867"/>
</g>
<!-- Node11&#45;&gt;Node6 -->
<g id="edge20" class="edge">
<title>Node11&#45;&gt;Node6</title>
<path fill="none" stroke="#191970" d="M931.2396,-171.1399C926.3251,-157.6291 919.7368,-133.4275 926.5,-114 938.8095,-78.6407 968.7873,-46.2726 988.8797,-27.4706"/>
<polygon fill="#191970" stroke="#191970" points="991.2526,-30.0435 996.294,-20.725 986.5419,-24.8658 991.2526,-30.0435"/>
</g>
<!-- Node12 -->
<g id="node12" class="node">
<title>Node12</title>
<g id="a_node12"><a xlink:href="../../da/dc1/Fun4AllReturnCodes_8h.html" target="_top" xlink:title="fun4all/Fun4AllReturnCodes.h">
<polygon fill="none" stroke="#000000" points="935.5,-114.5 935.5,-134.5 1101.5,-134.5 1101.5,-114.5 935.5,-114.5"/>
<text text-anchor="middle" x="1018.5" y="-121.5" font-family="FreeSans" font-size="10.00" fill="#000000">fun4all/Fun4AllReturnCodes.h</text>
</a>
</g>
</g>
<!-- Node11&#45;&gt;Node12 -->
<g id="edge13" class="edge">
<title>Node11&#45;&gt;Node12</title>
<path fill="none" stroke="#191970" d="M950.3387,-171.3095C962.8497,-162.7177 980.9669,-150.2758 995.3785,-140.3786"/>
<polygon fill="#191970" stroke="#191970" points="997.5278,-143.1485 1003.7897,-134.6022 993.565,-137.3782 997.5278,-143.1485"/>
</g>
<!-- Node13 -->
<g id="node13" class="node">
<title>Node13</title>
<g id="a_node13"><a xlink:href="../../d5/dc2/SubsysReco_8h.html" target="_top" xlink:title="fun4all/SubsysReco.h">
<polygon fill="none" stroke="#000000" points="1119.5,-114.5 1119.5,-134.5 1243.5,-134.5 1243.5,-114.5 1119.5,-114.5"/>
<text text-anchor="middle" x="1181.5" y="-121.5" font-family="FreeSans" font-size="10.00" fill="#000000">fun4all/SubsysReco.h</text>
</a>
</g>
</g>
<!-- Node11&#45;&gt;Node13 -->
<g id="edge14" class="edge">
<title>Node11&#45;&gt;Node13</title>
<path fill="none" stroke="#191970" d="M978.9136,-171.4408C1020.5898,-161.7841 1083.6293,-147.1774 1128.3035,-136.826"/>
<polygon fill="#191970" stroke="#191970" points="1129.1555,-140.2214 1138.1074,-134.5544 1127.5754,-133.4021 1129.1555,-140.2214"/>
</g>
<!-- Node13&#45;&gt;Node6 -->
<g id="edge18" class="edge">
<title>Node13&#45;&gt;Node6</title>
<path fill="none" stroke="#191970" d="M1157.7241,-114.4992C1138.4109,-105.9376 1110.8142,-92.6915 1088.5,-78 1065.4936,-62.8528 1041.6847,-41.9785 1026.0893,-27.4695"/>
<polygon fill="#191970" stroke="#191970" points="1028.4059,-24.8433 1018.7303,-20.5265 1023.6021,-29.9349 1028.4059,-24.8433"/>
</g>
<!-- Node14 -->
<g id="node14" class="node">
<title>Node14</title>
<g id="a_node14"><a xlink:href="../../d2/de7/Fun4AllBase_8h.html" target="_top" xlink:title="Fun4AllBase.h">
<polygon fill="none" stroke="#000000" points="1097,-57.5 1097,-77.5 1184,-77.5 1184,-57.5 1097,-57.5"/>
<text text-anchor="middle" x="1140.5" y="-64.5" font-family="FreeSans" font-size="10.00" fill="#000000">Fun4AllBase.h</text>
</a>
</g>
</g>
<!-- Node13&#45;&gt;Node14 -->
<g id="edge15" class="edge">
<title>Node13&#45;&gt;Node14</title>
<path fill="none" stroke="#191970" d="M1174.17,-114.3095C1168.5146,-106.4472 1160.5402,-95.3608 1153.7716,-85.9507"/>
<polygon fill="#191970" stroke="#191970" points="1156.4472,-83.6765 1147.7665,-77.6022 1150.7645,-87.7641 1156.4472,-83.6765"/>
</g>
<!-- Node14&#45;&gt;Node6 -->
<g id="edge17" class="edge">
<title>Node14&#45;&gt;Node6</title>
<path fill="none" stroke="#191970" d="M1117.2049,-57.4408C1095.8684,-48.2273 1064.0968,-34.5077 1040.4052,-24.2772"/>
<polygon fill="#191970" stroke="#191970" points="1041.6894,-21.0195 1031.1213,-20.2683 1038.9143,-27.4459 1041.6894,-21.0195"/>
</g>
<!-- Node15 -->
<g id="node15" class="node">
<title>Node15</title>
<polygon fill="none" stroke="#bfbfbf" points="1116,-.5 1116,-20.5 1165,-20.5 1165,-.5 1116,-.5"/>
<text text-anchor="middle" x="1140.5" y="-7.5" font-family="FreeSans" font-size="10.00" fill="#000000">climits</text>
</g>
<!-- Node14&#45;&gt;Node15 -->
<g id="edge16" class="edge">
<title>Node14&#45;&gt;Node15</title>
<path fill="none" stroke="#191970" d="M1140.5,-57.3095C1140.5,-49.9335 1140.5,-39.72 1140.5,-30.715"/>
<polygon fill="#191970" stroke="#191970" points="1144.0001,-30.6022 1140.5,-20.6022 1137.0001,-30.6023 1144.0001,-30.6022"/>
</g>
<!-- Node16&#45;&gt;Node6 -->
<g id="edge22" class="edge">
<title>Node16&#45;&gt;Node6</title>
<path fill="none" stroke="#191970" d="M1146.315,-172.5571C1188.2705,-164.8359 1239.4753,-152.2027 1252.5,-135 1258.1339,-127.5589 1256.1459,-122.5918 1252.5,-114 1238.2573,-80.4362 1225.3705,-74.7103 1193.5,-57 1144.681,-29.8716 1079.8974,-18.306 1041.3694,-13.5717"/>
<polygon fill="#191970" stroke="#191970" points="1041.5673,-10.0716 1031.2338,-12.4103 1040.7703,-17.026 1041.5673,-10.0716"/>
</g>
<!-- Node17 -->
<g id="node17" class="node">
<title>Node17</title>
<polygon fill="none" stroke="#bfbfbf" points="1300,-114.5 1300,-134.5 1345,-134.5 1345,-114.5 1300,-114.5"/>
<text text-anchor="middle" x="1322.5" y="-121.5" font-family="FreeSans" font-size="10.00" fill="#000000">utility</text>
</g>
<!-- Node16&#45;&gt;Node17 -->
<g id="edge23" class="edge">
<title>Node16&#45;&gt;Node17</title>
<path fill="none" stroke="#191970" d="M1132.8624,-171.4684C1173.0886,-162.4248 1233.3741,-148.5095 1285.5,-135 1286.9543,-134.6231 1288.4388,-134.2313 1289.937,-133.8302"/>
<polygon fill="#191970" stroke="#191970" points="1291.1319,-137.1316 1299.8466,-131.1062 1289.2765,-130.382 1291.1319,-137.1316"/>
</g>
</g>
</svg>
