<?xml version="1.0" encoding="UTF-8" standalone="no"?>
<!DOCTYPE svg PUBLIC "-//W3C//DTD SVG 1.1//EN"
 "http://www.w3.org/Graphics/SVG/1.1/DTD/svg11.dtd">
<!-- Generated by graphviz version 2.40.1 (20161225.0304)
 -->
<!-- Title: Fun4AllServer::run Pages: 1 -->
<svg width="315pt" height="1535pt"
 viewBox="0.00 0.00 315.00 1535.00" xmlns="http://www.w3.org/2000/svg" xmlns:xlink="http://www.w3.org/1999/xlink">
<g id="graph0" class="graph" transform="scale(1 1) rotate(0) translate(4 1531)">
<title>Fun4AllServer::run</title>
<!-- Node1 -->
<g id="node1" class="node">
<title>Node1</title>
<polygon fill="#bfbfbf" stroke="#000000" points="0,-753.5 0,-773.5 110,-773.5 110,-753.5 0,-753.5"/>
<text text-anchor="middle" x="55" y="-760.5" font-family="FreeSans" font-size="10.00" fill="#000000">Fun4AllServer::run</text>
</g>
<!-- Node2 -->
<g id="node2" class="node">
<title>Node2</title>
<g id="a_node2"><a xlink:href="../../dd/d9c/AnalyzeTree_8C.html#af10d516ac25cd720d54534a63ef7e2f8" target="_top" xlink:title="AnalyzeTree">
<polygon fill="none" stroke="#000000" points="187.5,-1506.5 187.5,-1526.5 265.5,-1526.5 265.5,-1506.5 187.5,-1506.5"/>
<text text-anchor="middle" x="226.5" y="-1513.5" font-family="FreeSans" font-size="10.00" fill="#000000">AnalyzeTree</text>
</a>
</g>
</g>
<!-- Node1&#45;&gt;Node2 -->
<g id="edge1" class="edge">
<title>Node1&#45;&gt;Node2</title>
<path fill="none" stroke="#191970" d="M56.1521,-783.8777C62.7148,-896.8022 96.8301,-1442.6869 146,-1497.5 156.3558,-1509.0443 172.3011,-1514.2297 187.2768,-1516.3669"/>
<polygon fill="#191970" stroke="#191970" points="59.627,-783.3393 55.5594,-773.5564 52.6385,-783.7406 59.627,-783.3393"/>
</g>
<!-- Node3 -->
<g id="node3" class="node">
<title>Node3</title>
<g id="a_node3"><a xlink:href="../../db/dc0/Fun4All__AnaTutorial_8C.html#a8c484ea6d7477278e981ef056b17eac9" target="_top" xlink:title="Fun4All_AnaTutorial">
<polygon fill="none" stroke="#000000" points="169,-1467.5 169,-1487.5 284,-1487.5 284,-1467.5 169,-1467.5"/>
<text text-anchor="middle" x="226.5" y="-1474.5" font-family="FreeSans" font-size="10.00" fill="#000000">Fun4All_AnaTutorial</text>
</a>
</g>
</g>
<!-- Node1&#45;&gt;Node3 -->
<g id="edge2" class="edge">
<title>Node1&#45;&gt;Node3</title>
<path fill="none" stroke="#191970" d="M56.2958,-783.8097C63.4371,-892.9586 99.3702,-1406.8751 146,-1458.5 152.1601,-1465.32 160.2715,-1469.9175 168.9734,-1472.9775"/>
<polygon fill="#191970" stroke="#191970" points="59.7693,-783.2857 55.6307,-773.5326 52.7839,-783.7378 59.7693,-783.2857"/>
</g>
<!-- Node4 -->
<g id="node4" class="node">
<title>Node4</title>
<g id="a_node4"><a xlink:href="../../dd/d28/Fun4All__AnaTutorial__Jets_8C.html#a55eaaeb770a3177f917012de87877d28" target="_top" xlink:title="Fun4All_AnaTutorial_Jets">
<polygon fill="none" stroke="#000000" points="157,-1428.5 157,-1448.5 296,-1448.5 296,-1428.5 157,-1428.5"/>
<text text-anchor="middle" x="226.5" y="-1435.5" font-family="FreeSans" font-size="10.00" fill="#000000">Fun4All_AnaTutorial_Jets</text>
</a>
</g>
</g>
<!-- Node1&#45;&gt;Node4 -->
<g id="edge3" class="edge">
<title>Node1&#45;&gt;Node4</title>
<path fill="none" stroke="#191970" d="M56.4748,-783.9988C64.2656,-889.8058 101.942,-1371.0957 146,-1419.5 149.1897,-1423.0044 152.8948,-1425.921 156.9293,-1428.3432"/>
<polygon fill="#191970" stroke="#191970" points="59.9614,-783.6865 55.7434,-773.9675 52.98,-784.1956 59.9614,-783.6865"/>
</g>
<!-- Node5 -->
<g id="node5" class="node">
<title>Node5</title>
<g id="a_node5"><a xlink:href="../../df/d77/Fun4All__CaloAna_8C.html#a4f0841e3d8be48f96cc4e95380315ff8" target="_top" xlink:title="Fun4All_CaloAna">
<polygon fill="none" stroke="#000000" points="176.5,-1389.5 176.5,-1409.5 276.5,-1409.5 276.5,-1389.5 176.5,-1389.5"/>
<text text-anchor="middle" x="226.5" y="-1396.5" font-family="FreeSans" font-size="10.00" fill="#000000">Fun4All_CaloAna</text>
</a>
</g>
</g>
<!-- Node1&#45;&gt;Node5 -->
<g id="edge4" class="edge">
<title>Node1&#45;&gt;Node5</title>
<path fill="none" stroke="#191970" d="M56.6656,-784.0386C65.1174,-886.0647 104.4874,-1335.2839 146,-1380.5 153.8662,-1389.068 164.8137,-1394.1162 176.1051,-1397.0142"/>
<polygon fill="#191970" stroke="#191970" points="60.1342,-783.5126 55.8278,-773.8325 53.1577,-784.0854 60.1342,-783.5126"/>
</g>
<!-- Node6 -->
<g id="node6" class="node">
<title>Node6</title>
<g id="a_node6"><a xlink:href="../../d5/df2/Fun4All__EIC__Generator__Display_8C.html#a276181099936efe81415286b29f36e51" target="_top" xlink:title="Fun4All_EIC_Generator\l_Display">
<polygon fill="none" stroke="#000000" points="160.5,-1338.5 160.5,-1370.5 292.5,-1370.5 292.5,-1338.5 160.5,-1338.5"/>
<text text-anchor="start" x="168.5" y="-1357.5" font-family="FreeSans" font-size="10.00" fill="#000000">Fun4All_EIC_Generator</text>
<text text-anchor="middle" x="226.5" y="-1345.5" font-family="FreeSans" font-size="10.00" fill="#000000">_Display</text>
</a>
</g>
</g>
<!-- Node1&#45;&gt;Node6 -->
<g id="edge5" class="edge">
<title>Node1&#45;&gt;Node6</title>
<path fill="none" stroke="#191970" d="M55.4889,-783.9677C58.0777,-875.3606 72.9823,-1245.3265 146,-1329.5 150.0275,-1334.1429 154.9003,-1337.9352 160.2326,-1341.0312"/>
<polygon fill="#191970" stroke="#191970" points="58.9837,-783.7181 55.2208,-773.814 51.9861,-783.903 58.9837,-783.7181"/>
</g>
<!-- Node7 -->
<g id="node7" class="node">
<title>Node7</title>
<g id="a_node7"><a xlink:href="../../df/d51/Fun4All__ExportGeom_8C.html#a582925c51bad38d562cf19e71211adfd" target="_top" xlink:title="get geometry from DST file and output TGeoManager ROOT files or other formats of geometry files...">
<polygon fill="none" stroke="#000000" points="165.5,-1299.5 165.5,-1319.5 287.5,-1319.5 287.5,-1299.5 165.5,-1299.5"/>
<text text-anchor="middle" x="226.5" y="-1306.5" font-family="FreeSans" font-size="10.00" fill="#000000">Fun4All_ExportGeom</text>
</a>
</g>
</g>
<!-- Node1&#45;&gt;Node7 -->
<g id="edge6" class="edge">
<title>Node1&#45;&gt;Node7</title>
<path fill="none" stroke="#191970" d="M55.6104,-783.7689C58.6602,-871.2088 75.0595,-1215.1101 146,-1290.5 151.3139,-1296.1472 157.9678,-1300.2574 165.16,-1303.2277"/>
<polygon fill="#191970" stroke="#191970" points="59.1026,-783.4696 55.2766,-773.5897 52.1063,-783.6991 59.1026,-783.4696"/>
</g>
<!-- Node8 -->
<g id="node8" class="node">
<title>Node8</title>
<g id="a_node8"><a xlink:href="../../de/d55/Fun4All__G4__block_8C.html#a6a063a649a0dd3318a517d5af98430dd" target="_top" xlink:title="Fun4All_G4_block">
<polygon fill="none" stroke="#000000" points="174,-1260.5 174,-1280.5 279,-1280.5 279,-1260.5 174,-1260.5"/>
<text text-anchor="middle" x="226.5" y="-1267.5" font-family="FreeSans" font-size="10.00" fill="#000000">Fun4All_G4_block</text>
</a>
</g>
</g>
<!-- Node1&#45;&gt;Node8 -->
<g id="edge7" class="edge">
<title>Node1&#45;&gt;Node8</title>
<path fill="none" stroke="#191970" d="M55.9192,-783.8482C60.1059,-867.3289 80.1045,-1182.4029 146,-1251.5 153.4327,-1259.2938 163.4196,-1264.1517 173.8263,-1267.125"/>
<polygon fill="#191970" stroke="#191970" points="59.4055,-783.4762 55.4303,-773.6554 52.4135,-783.8117 59.4055,-783.4762"/>
</g>
<!-- Node9 -->
<g id="node9" class="node">
<title>Node9</title>
<g id="a_node9"><a xlink:href="../../d8/d91/Fun4All__G4__Clusters_8C.html#ab7d8e64f12f512631d4c0e8c6683ec5b" target="_top" xlink:title="Fun4All_G4_Clusters">
<polygon fill="none" stroke="#000000" points="167,-1221.5 167,-1241.5 286,-1241.5 286,-1221.5 167,-1221.5"/>
<text text-anchor="middle" x="226.5" y="-1228.5" font-family="FreeSans" font-size="10.00" fill="#000000">Fun4All_G4_Clusters</text>
</a>
</g>
</g>
<!-- Node1&#45;&gt;Node9 -->
<g id="edge8" class="edge">
<title>Node1&#45;&gt;Node9</title>
<path fill="none" stroke="#191970" d="M56.2686,-783.7266C61.6371,-862.7804 85.0798,-1149.6099 146,-1212.5 151.7948,-1218.4822 159.0959,-1222.729 166.9234,-1225.7196"/>
<polygon fill="#191970" stroke="#191970" points="59.7529,-783.3711 55.6054,-773.6219 52.7679,-783.8297 59.7529,-783.3711"/>
</g>
<!-- Node10 -->
<g id="node10" class="node">
<title>Node10</title>
<g id="a_node10"><a xlink:href="../../d2/dee/Fun4All__G4__Cylinder_8C.html#a271dc4f10f6f77107705e0efef0c97e5" target="_top" xlink:title="Fun4All_G4_Cylinder">
<polygon fill="none" stroke="#000000" points="166,-1182.5 166,-1202.5 287,-1202.5 287,-1182.5 166,-1182.5"/>
<text text-anchor="middle" x="226.5" y="-1189.5" font-family="FreeSans" font-size="10.00" fill="#000000">Fun4All_G4_Cylinder</text>
</a>
</g>
</g>
<!-- Node1&#45;&gt;Node10 -->
<g id="edge9" class="edge">
<title>Node1&#45;&gt;Node10</title>
<path fill="none" stroke="#191970" d="M56.7031,-783.8768C63.3669,-858.6953 90.1045,-1116.852 146,-1173.5 151.5471,-1179.1218 158.4265,-1183.205 165.8095,-1186.1512"/>
<polygon fill="#191970" stroke="#191970" points="60.1851,-783.5163 55.8344,-773.856 53.2113,-784.1209 60.1851,-783.5163"/>
</g>
<!-- Node11 -->
<g id="node11" class="node">
<title>Node11</title>
<g id="a_node11"><a xlink:href="../../da/d02/Fun4All__G4__EICDetector_8C.html#afbe82cefa1d1fd031d9a8586b7bb68c6" target="_top" xlink:title="Fun4All_G4_EICDetector">
<polygon fill="none" stroke="#000000" points="157,-1143.5 157,-1163.5 296,-1163.5 296,-1143.5 157,-1143.5"/>
<text text-anchor="middle" x="226.5" y="-1150.5" font-family="FreeSans" font-size="10.00" fill="#000000">Fun4All_G4_EICDetector</text>
</a>
</g>
</g>
<!-- Node1&#45;&gt;Node11 -->
<g id="edge10" class="edge">
<title>Node1&#45;&gt;Node11</title>
<path fill="none" stroke="#191970" d="M57.1949,-783.7106C65.1956,-853.6651 95.0267,-1083.9708 146,-1134.5 149.5694,-1138.0383 153.6674,-1140.9642 158.0829,-1143.379"/>
<polygon fill="#191970" stroke="#191970" points="60.6515,-783.1261 56.0618,-773.577 53.6948,-783.9041 60.6515,-783.1261"/>
</g>
<!-- Node12 -->
<g id="node12" class="node">
<title>Node12</title>
<g id="a_node12"><a xlink:href="../../d5/d7d/Fun4All__G4__Example01_8C.html#ab61e640155444e40e5ff32fe50125b4d" target="_top" xlink:title="Fun4All_G4_Example01">
<polygon fill="none" stroke="#000000" points="159,-1104.5 159,-1124.5 294,-1124.5 294,-1104.5 159,-1104.5"/>
<text text-anchor="middle" x="226.5" y="-1111.5" font-family="FreeSans" font-size="10.00" fill="#000000">Fun4All_G4_Example01</text>
</a>
</g>
</g>
<!-- Node1&#45;&gt;Node12 -->
<g id="edge11" class="edge">
<title>Node1&#45;&gt;Node12</title>
<path fill="none" stroke="#191970" d="M57.8095,-783.6611C67.2664,-848.662 99.9501,-1051.0674 146,-1095.5 149.8235,-1099.1892 154.2233,-1102.2089 158.953,-1104.6755"/>
<polygon fill="#191970" stroke="#191970" points="61.2376,-782.9078 56.3595,-773.5028 54.3078,-783.8971 61.2376,-782.9078"/>
</g>
<!-- Node13 -->
<g id="node13" class="node">
<title>Node13</title>
<g id="a_node13"><a xlink:href="../../df/ddd/Fun4All__G4__Example02_8C.html#a828c51f9608f078106cef9343df49316" target="_top" xlink:title="Fun4All_G4_Example02">
<polygon fill="none" stroke="#000000" points="159,-1065.5 159,-1085.5 294,-1085.5 294,-1065.5 159,-1065.5"/>
<text text-anchor="middle" x="226.5" y="-1072.5" font-family="FreeSans" font-size="10.00" fill="#000000">Fun4All_G4_Example02</text>
</a>
</g>
</g>
<!-- Node1&#45;&gt;Node13 -->
<g id="edge12" class="edge">
<title>Node1&#45;&gt;Node13</title>
<path fill="none" stroke="#191970" d="M58.5788,-783.6032C69.6093,-843.3548 104.8374,-1018.0975 146,-1056.5 149.7799,-1060.0265 154.0886,-1062.9368 158.7027,-1065.3347"/>
<polygon fill="#191970" stroke="#191970" points="61.9837,-782.7639 56.7525,-773.5506 55.0964,-784.0152 61.9837,-782.7639"/>
</g>
<!-- Node14 -->
<g id="node14" class="node">
<title>Node14</title>
<g id="a_node14"><a xlink:href="../../d1/dc4/Fun4All__G4__Example03_8C.html#a6519821c64f56c74d049579392dfac3f" target="_top" xlink:title="Fun4All_G4_Example03">
<polygon fill="none" stroke="#000000" points="159,-1026.5 159,-1046.5 294,-1046.5 294,-1026.5 159,-1026.5"/>
<text text-anchor="middle" x="226.5" y="-1033.5" font-family="FreeSans" font-size="10.00" fill="#000000">Fun4All_G4_Example03</text>
</a>
</g>
</g>
<!-- Node1&#45;&gt;Node14 -->
<g id="edge13" class="edge">
<title>Node1&#45;&gt;Node14</title>
<path fill="none" stroke="#191970" d="M55.9821,-783.6862C59.46,-831.8562 75.1851,-954.2184 146,-1017.5 149.9617,-1021.0403 154.4599,-1023.9541 159.2566,-1026.3486"/>
<polygon fill="#191970" stroke="#191970" points="59.4691,-783.3657 55.3597,-773.6003 52.4824,-783.7969 59.4691,-783.3657"/>
</g>
<!-- Node15 -->
<g id="node15" class="node">
<title>Node15</title>
<g id="a_node15"><a xlink:href="../../d2/de6/Fun4All__G4__FAIR_8C.html#a0f795c46d42e46f79023437a1db4dc29" target="_top" xlink:title="Fun4All_G4_FAIR">
<polygon fill="none" stroke="#000000" points="176.5,-987.5 176.5,-1007.5 276.5,-1007.5 276.5,-987.5 176.5,-987.5"/>
<text text-anchor="middle" x="226.5" y="-994.5" font-family="FreeSans" font-size="10.00" fill="#000000">Fun4All_G4_FAIR</text>
</a>
</g>
</g>
<!-- Node1&#45;&gt;Node15 -->
<g id="edge14" class="edge">
<title>Node1&#45;&gt;Node15</title>
<path fill="none" stroke="#191970" d="M57.5146,-784.0503C63.9103,-827.0731 84.8724,-926.8986 146,-978.5 154.5588,-985.725 165.3752,-990.3111 176.279,-993.1956"/>
<polygon fill="#191970" stroke="#191970" points="60.9561,-783.3844 56.1307,-773.9523 54.021,-784.3349 60.9561,-783.3844"/>
</g>
<!-- Node16 -->
<g id="node16" class="node">
<title>Node16</title>
<g id="a_node16"><a xlink:href="../../da/de9/Fun4All__G4__FAIR__barrel__only_8C.html#ad17d6575f5ac06812f55b6cef25e64ba" target="_top" xlink:title="Fun4All_G4_FAIR_barrel_only">
<polygon fill="none" stroke="#000000" points="146,-948.5 146,-968.5 307,-968.5 307,-948.5 146,-948.5"/>
<text text-anchor="middle" x="226.5" y="-955.5" font-family="FreeSans" font-size="10.00" fill="#000000">Fun4All_G4_FAIR_barrel_only</text>
</a>
</g>
</g>
<!-- Node1&#45;&gt;Node16 -->
<g id="edge15" class="edge">
<title>Node1&#45;&gt;Node16</title>
<path fill="none" stroke="#191970" d="M59.5711,-783.8325C68.9849,-820.823 94.1464,-899.0319 146,-939.5 150.6413,-943.1222 155.8608,-946.0716 161.3542,-948.4706"/>
<polygon fill="#191970" stroke="#191970" points="62.8898,-782.6643 57.143,-773.7635 56.0848,-784.3053 62.8898,-782.6643"/>
</g>
<!-- Node17 -->
<g id="node17" class="node">
<title>Node17</title>
<g id="a_node17"><a xlink:href="../../d7/dc5/Fun4All__G4__FastMom_8C.html#ab9349be2377fe9e9a634a8607cff2555" target="_top" xlink:title="Fun4All_G4_FastMom">
<polygon fill="none" stroke="#000000" points="165,-909.5 165,-929.5 288,-929.5 288,-909.5 165,-909.5"/>
<text text-anchor="middle" x="226.5" y="-916.5" font-family="FreeSans" font-size="10.00" fill="#000000">Fun4All_G4_FastMom</text>
</a>
</g>
</g>
<!-- Node1&#45;&gt;Node17 -->
<g id="edge16" class="edge">
<title>Node1&#45;&gt;Node17</title>
<path fill="none" stroke="#191970" d="M62.4396,-783.097C74.9248,-813.2298 103.0262,-870.5842 146,-900.5 151.6569,-904.438 158.0226,-907.5672 164.6323,-910.0525"/>
<polygon fill="#191970" stroke="#191970" points="65.6325,-781.6546 58.6759,-773.6635 59.1308,-784.2486 65.6325,-781.6546"/>
</g>
<!-- Node18 -->
<g id="node18" class="node">
<title>Node18</title>
<g id="a_node18"><a xlink:href="../../d7/d9e/Fun4All__G4__fsPHENIX_8C.html#a72c444217210a14ab1b4e66d9818b1ff" target="_top" xlink:title="Fun4All_G4_fsPHENIX">
<polygon fill="none" stroke="#000000" points="164.5,-870.5 164.5,-890.5 288.5,-890.5 288.5,-870.5 164.5,-870.5"/>
<text text-anchor="middle" x="226.5" y="-877.5" font-family="FreeSans" font-size="10.00" fill="#000000">Fun4All_G4_fsPHENIX</text>
</a>
</g>
</g>
<!-- Node1&#45;&gt;Node18 -->
<g id="edge17" class="edge">
<title>Node1&#45;&gt;Node18</title>
<path fill="none" stroke="#191970" d="M66.9809,-781.9806C82.4795,-804.3443 111.6087,-841.4833 146,-861.5 152.2053,-865.1117 159.0575,-868.0373 166.0672,-870.4072"/>
<polygon fill="#191970" stroke="#191970" points="69.8649,-779.9972 61.373,-773.6617 64.0606,-783.91 69.8649,-779.9972"/>
</g>
<!-- Node19 -->
<g id="node19" class="node">
<title>Node19</title>
<g id="a_node19"><a xlink:href="../../dc/d3f/Fun4All__G4__Geantino_8C.html#a2a4c70246a9a6288b367a2fa7c1d1087" target="_top" xlink:title="Fun4All_G4_Geantino">
<polygon fill="none" stroke="#000000" points="164.5,-831.5 164.5,-851.5 288.5,-851.5 288.5,-831.5 164.5,-831.5"/>
<text text-anchor="middle" x="226.5" y="-838.5" font-family="FreeSans" font-size="10.00" fill="#000000">Fun4All_G4_Geantino</text>
</a>
</g>
</g>
<!-- Node1&#45;&gt;Node19 -->
<g id="edge18" class="edge">
<title>Node1&#45;&gt;Node19</title>
<path fill="none" stroke="#191970" d="M75.8724,-780.026C93.5959,-793.2993 120.1943,-811.4829 146,-822.5 154.3201,-826.0521 163.4204,-829.0065 172.413,-831.4424"/>
<polygon fill="#191970" stroke="#191970" points="77.534,-776.8907 67.4643,-773.5966 73.2819,-782.4513 77.534,-776.8907"/>
</g>
<!-- Node20 -->
<g id="node20" class="node">
<title>Node20</title>
<g id="a_node20"><a xlink:href="../../df/de1/Fun4All__G4__IonGun_8C.html#ab4966a2ae337cb8f0e45f7ee488e33b7" target="_top" xlink:title="Fun4All_G4_IonGun">
<polygon fill="none" stroke="#000000" points="169.5,-792.5 169.5,-812.5 283.5,-812.5 283.5,-792.5 169.5,-792.5"/>
<text text-anchor="middle" x="226.5" y="-799.5" font-family="FreeSans" font-size="10.00" fill="#000000">Fun4All_G4_IonGun</text>
</a>
</g>
</g>
<!-- Node1&#45;&gt;Node20 -->
<g id="edge19" class="edge">
<title>Node1&#45;&gt;Node20</title>
<path fill="none" stroke="#191970" d="M109.048,-775.7908C132.702,-781.1698 160.1016,-787.4006 182.4842,-792.4906"/>
<polygon fill="#191970" stroke="#191970" points="109.6927,-772.3481 99.1655,-773.5435 108.1404,-779.1739 109.6927,-772.3481"/>
</g>
<!-- Node21 -->
<g id="node21" class="node">
<title>Node21</title>
<g id="a_node21"><a xlink:href="../../d0/d87/Fun4All__G4__JLeic_8C.html#a66e8fc0b01ee0a8e805c7b99c4698974" target="_top" xlink:title="Fun4All_G4_JLeic">
<polygon fill="none" stroke="#000000" points="176,-753.5 176,-773.5 277,-773.5 277,-753.5 176,-753.5"/>
<text text-anchor="middle" x="226.5" y="-760.5" font-family="FreeSans" font-size="10.00" fill="#000000">Fun4All_G4_JLeic</text>
</a>
</g>
</g>
<!-- Node1&#45;&gt;Node21 -->
<g id="edge20" class="edge">
<title>Node1&#45;&gt;Node21</title>
<path fill="none" stroke="#191970" d="M120.2599,-763.5C138.6427,-763.5 158.3601,-763.5 175.7567,-763.5"/>
<polygon fill="#191970" stroke="#191970" points="120.2077,-760.0001 110.2077,-763.5 120.2077,-767.0001 120.2077,-760.0001"/>
</g>
<!-- Node22 -->
<g id="node22" class="node">
<title>Node22</title>
<g id="a_node22"><a xlink:href="../../d9/d1f/Fun4All__G4__Lmon_8C.html#a4f09ca292c4b3a82ce38b19ac3858d74" target="_top" xlink:title="Fun4All_G4_Lmon">
<polygon fill="none" stroke="#000000" points="173.5,-714.5 173.5,-734.5 279.5,-734.5 279.5,-714.5 173.5,-714.5"/>
<text text-anchor="middle" x="226.5" y="-721.5" font-family="FreeSans" font-size="10.00" fill="#000000">Fun4All_G4_Lmon</text>
</a>
</g>
</g>
<!-- Node1&#45;&gt;Node22 -->
<g id="edge21" class="edge">
<title>Node1&#45;&gt;Node22</title>
<path fill="none" stroke="#191970" d="M109.048,-751.2092C132.702,-745.8302 160.1016,-739.5994 182.4842,-734.5094"/>
<polygon fill="#191970" stroke="#191970" points="108.1404,-747.8261 99.1655,-753.4565 109.6927,-754.6519 108.1404,-747.8261"/>
</g>
<!-- Node23 -->
<g id="node23" class="node">
<title>Node23</title>
<g id="a_node23"><a xlink:href="../../dd/d8d/Fun4All__G4__Magnet_8C.html#a375961511ba614ba387343e652ab0202" target="_top" xlink:title="Fun4All_G4_Magnet">
<polygon fill="none" stroke="#000000" points="168.5,-675.5 168.5,-695.5 284.5,-695.5 284.5,-675.5 168.5,-675.5"/>
<text text-anchor="middle" x="226.5" y="-682.5" font-family="FreeSans" font-size="10.00" fill="#000000">Fun4All_G4_Magnet</text>
</a>
</g>
</g>
<!-- Node1&#45;&gt;Node23 -->
<g id="edge22" class="edge">
<title>Node1&#45;&gt;Node23</title>
<path fill="none" stroke="#191970" d="M76.2567,-747.1265C94.0258,-734.1547 120.4913,-716.45 146,-705.5 155.263,-701.5237 165.4792,-698.2266 175.4346,-695.5345"/>
<polygon fill="#191970" stroke="#191970" points="73.7384,-744.6379 67.8084,-753.4177 77.9193,-750.2523 73.7384,-744.6379"/>
</g>
<!-- Node24 -->
<g id="node24" class="node">
<title>Node24</title>
<g id="a_node24"><a xlink:href="../../d9/d8f/Fun4All__G4__Momentum_8C.html#afbd7a4eecd7792e9216ce80b5514123e" target="_top" xlink:title="Fun4All_G4_Momentum">
<polygon fill="none" stroke="#000000" points="159,-636.5 159,-656.5 294,-656.5 294,-636.5 159,-636.5"/>
<text text-anchor="middle" x="226.5" y="-643.5" font-family="FreeSans" font-size="10.00" fill="#000000">Fun4All_G4_Momentum</text>
</a>
</g>
</g>
<!-- Node1&#45;&gt;Node24 -->
<g id="edge23" class="edge">
<title>Node1&#45;&gt;Node24</title>
<path fill="none" stroke="#191970" d="M67.2728,-744.9811C82.9072,-722.8841 112.0145,-686.4314 146,-666.5 152.9563,-662.4204 160.7212,-659.1685 168.6082,-656.5776"/>
<polygon fill="#191970" stroke="#191970" points="64.2083,-743.2603 61.4222,-753.4823 69.9747,-747.2288 64.2083,-743.2603"/>
</g>
<!-- Node25 -->
<g id="node25" class="node">
<title>Node25</title>
<g id="a_node25"><a xlink:href="../../d1/d54/Fun4All__G4__MyDetector_8C.html#a42ff88b75bd8510ae12cc9757b9a693b" target="_top" xlink:title="Fun4All_G4_MyDetector">
<polygon fill="none" stroke="#000000" points="158,-597.5 158,-617.5 295,-617.5 295,-597.5 158,-597.5"/>
<text text-anchor="middle" x="226.5" y="-604.5" font-family="FreeSans" font-size="10.00" fill="#000000">Fun4All_G4_MyDetector</text>
</a>
</g>
</g>
<!-- Node1&#45;&gt;Node25 -->
<g id="edge24" class="edge">
<title>Node1&#45;&gt;Node25</title>
<path fill="none" stroke="#191970" d="M62.5222,-744.1053C75.1189,-714.2724 103.3683,-657.4428 146,-627.5 151.7743,-623.4444 158.2874,-620.2085 165.0448,-617.6273"/>
<polygon fill="#191970" stroke="#191970" points="59.2496,-742.8616 58.7215,-753.4433 65.7332,-745.5006 59.2496,-742.8616"/>
</g>
<!-- Node26 -->
<g id="node26" class="node">
<title>Node26</title>
<g id="a_node26"><a xlink:href="../../d0/d13/Fun4All__G4__sPHENIX_8C.html#a536fa7366e3aeaf273cca94ced704c46" target="_top" xlink:title="Fun4All_G4_sPHENIX">
<polygon fill="none" stroke="#000000" points="166,-558.5 166,-578.5 287,-578.5 287,-558.5 166,-558.5"/>
<text text-anchor="middle" x="226.5" y="-565.5" font-family="FreeSans" font-size="10.00" fill="#000000">Fun4All_G4_sPHENIX</text>
</a>
</g>
</g>
<!-- Node1&#45;&gt;Node26 -->
<g id="edge25" class="edge">
<title>Node1&#45;&gt;Node26</title>
<path fill="none" stroke="#191970" d="M59.6522,-743.3389C69.1987,-706.65 94.5688,-629.0291 146,-588.5 151.8816,-583.8652 158.6952,-580.288 165.8195,-577.5302"/>
<polygon fill="#191970" stroke="#191970" points="56.1859,-742.7771 57.1862,-753.3246 62.9817,-744.4554 56.1859,-742.7771"/>
</g>
<!-- Node27 -->
<g id="node27" class="node">
<title>Node27</title>
<g id="a_node27"><a xlink:href="../../d1/d9c/Fun4All__G4__Write__Dst_8C.html#a97c6c9ea797219c94a95ae2fe4bc79c3" target="_top" xlink:title="Fun4All_G4_Write_Dst">
<polygon fill="none" stroke="#000000" points="163,-519.5 163,-539.5 290,-539.5 290,-519.5 163,-519.5"/>
<text text-anchor="middle" x="226.5" y="-526.5" font-family="FreeSans" font-size="10.00" fill="#000000">Fun4All_G4_Write_Dst</text>
</a>
</g>
</g>
<!-- Node1&#45;&gt;Node27 -->
<g id="edge26" class="edge">
<title>Node1&#45;&gt;Node27</title>
<path fill="none" stroke="#191970" d="M57.5933,-743.0991C64.1395,-700.3793 85.3727,-601.2035 146,-549.5 150.9307,-545.295 156.6154,-541.9504 162.6365,-539.2936"/>
<polygon fill="#191970" stroke="#191970" points="54.1104,-742.7329 56.1726,-753.125 61.0411,-743.715 54.1104,-742.7329"/>
</g>
<!-- Node28 -->
<g id="node28" class="node">
<title>Node28</title>
<g id="a_node28"><a xlink:href="../../d4/dfa/Fun4All__Generator__Display_8C.html#af87924a94b22e18901f0d64805565f09" target="_top" xlink:title="Fun4All_Generator_Display">
<polygon fill="none" stroke="#000000" points="150.5,-480.5 150.5,-500.5 302.5,-500.5 302.5,-480.5 150.5,-480.5"/>
<text text-anchor="middle" x="226.5" y="-487.5" font-family="FreeSans" font-size="10.00" fill="#000000">Fun4All_Generator_Display</text>
</a>
</g>
</g>
<!-- Node1&#45;&gt;Node28 -->
<g id="edge27" class="edge">
<title>Node1&#45;&gt;Node28</title>
<path fill="none" stroke="#191970" d="M56.0572,-743.4448C59.7007,-695.5782 75.7635,-573.9298 146,-510.5 150.4887,-506.4463 155.6714,-503.1844 161.1994,-500.5636"/>
<polygon fill="#191970" stroke="#191970" points="52.562,-743.2585 55.3988,-753.4664 59.5469,-743.7174 52.562,-743.2585"/>
</g>
<!-- Node29 -->
<g id="node29" class="node">
<title>Node29</title>
<g id="a_node29"><a xlink:href="../../d9/d0f/Fun4All__ImportGeom_8C.html#a3388968a8dae60e9eb62b1126f747b6a" target="_top" xlink:title="Read in a Geometry file, and output DST and ROOT TGeo files.">
<polygon fill="none" stroke="#000000" points="165.5,-441.5 165.5,-461.5 287.5,-461.5 287.5,-441.5 165.5,-441.5"/>
<text text-anchor="middle" x="226.5" y="-448.5" font-family="FreeSans" font-size="10.00" fill="#000000">Fun4All_ImportGeom</text>
</a>
</g>
</g>
<!-- Node1&#45;&gt;Node29 -->
<g id="edge28" class="edge">
<title>Node1&#45;&gt;Node29</title>
<path fill="none" stroke="#191970" d="M58.6093,-743.4865C69.726,-683.9986 105.1721,-510.0033 146,-471.5 151.5526,-466.2635 158.2565,-462.3381 165.3969,-459.4052"/>
<polygon fill="#191970" stroke="#191970" points="55.1353,-743.0263 56.7682,-753.4946 62.0198,-744.2929 55.1353,-743.0263"/>
</g>
<!-- Node30 -->
<g id="node30" class="node">
<title>Node30</title>
<g id="a_node30"><a xlink:href="../../db/d96/Fun4All__JetAna_8C.html#a519de39bdb8606d50d045cc11466e2e6" target="_top" xlink:title="Fun4All_JetAna">
<polygon fill="none" stroke="#000000" points="181,-402.5 181,-422.5 272,-422.5 272,-402.5 181,-402.5"/>
<text text-anchor="middle" x="226.5" y="-409.5" font-family="FreeSans" font-size="10.00" fill="#000000">Fun4All_JetAna</text>
</a>
</g>
</g>
<!-- Node1&#45;&gt;Node30 -->
<g id="edge29" class="edge">
<title>Node1&#45;&gt;Node30</title>
<path fill="none" stroke="#191970" d="M57.9029,-742.9907C67.5334,-677.7922 100.4233,-476.9611 146,-432.5 155.3804,-423.3492 168.2637,-418.1769 180.9743,-415.3109"/>
<polygon fill="#191970" stroke="#191970" points="54.3932,-742.8058 56.422,-753.2045 61.3207,-743.8102 54.3932,-742.8058"/>
</g>
<!-- Node31 -->
<g id="node31" class="node">
<title>Node31</title>
<g id="a_node31"><a xlink:href="../../d9/dc6/Fun4All__MySimpleReco_8C.html#ad7331daaa361667fbb6d60ce362d4288" target="_top" xlink:title="Fun4All_MySimpleReco">
<polygon fill="none" stroke="#000000" points="160.5,-363.5 160.5,-383.5 292.5,-383.5 292.5,-363.5 160.5,-363.5"/>
<text text-anchor="middle" x="226.5" y="-370.5" font-family="FreeSans" font-size="10.00" fill="#000000">Fun4All_MySimpleReco</text>
</a>
</g>
</g>
<!-- Node1&#45;&gt;Node31 -->
<g id="edge30" class="edge">
<title>Node1&#45;&gt;Node31</title>
<path fill="none" stroke="#191970" d="M57.2243,-743.3646C65.3224,-673.6673 95.437,-444.1823 146,-393.5 150.17,-389.3202 155.0691,-385.9662 160.3569,-383.2807"/>
<polygon fill="#191970" stroke="#191970" points="53.7286,-743.1294 56.0768,-753.4607 60.6838,-743.92 53.7286,-743.1294"/>
</g>
<!-- Node32 -->
<g id="node32" class="node">
<title>Node32</title>
<g id="a_node32"><a xlink:href="../../d1/d29/Fun4All__Read__Dst_8C.html#ae153a0407033e203422cedf7e2ce5b3b" target="_top" xlink:title="Fun4All_Read_Dst">
<polygon fill="none" stroke="#000000" points="173.5,-324.5 173.5,-344.5 279.5,-344.5 279.5,-324.5 173.5,-324.5"/>
<text text-anchor="middle" x="226.5" y="-331.5" font-family="FreeSans" font-size="10.00" fill="#000000">Fun4All_Read_Dst</text>
</a>
</g>
</g>
<!-- Node1&#45;&gt;Node32 -->
<g id="edge31" class="edge">
<title>Node1&#45;&gt;Node32</title>
<path fill="none" stroke="#191970" d="M56.7323,-743.1936C63.4988,-668.6306 90.5523,-411.3282 146,-354.5 153.3415,-346.9758 163.0418,-342.1164 173.1587,-339.014"/>
<polygon fill="#191970" stroke="#191970" points="53.2437,-742.9107 55.8495,-753.18 60.2165,-743.5271 53.2437,-742.9107"/>
</g>
<!-- Node33 -->
<g id="node33" class="node">
<title>Node33</title>
<g id="a_node33"><a xlink:href="../../d9/da0/G4TTree_8C.html#a7e873c78b05882087e257d133fde3c67" target="_top" xlink:title="G4TTree">
<polygon fill="none" stroke="#000000" points="198,-285.5 198,-305.5 255,-305.5 255,-285.5 198,-285.5"/>
<text text-anchor="middle" x="226.5" y="-292.5" font-family="FreeSans" font-size="10.00" fill="#000000">G4TTree</text>
</a>
</g>
</g>
<!-- Node1&#45;&gt;Node33 -->
<g id="edge32" class="edge">
<title>Node1&#45;&gt;Node33</title>
<path fill="none" stroke="#191970" d="M56.2972,-743.3389C61.7731,-664.5381 85.5656,-378.598 146,-315.5 159.2479,-301.6682 180.4584,-296.8102 197.7821,-295.3351"/>
<polygon fill="#191970" stroke="#191970" points="52.7988,-743.1988 55.62,-753.4111 59.783,-743.6685 52.7988,-743.1988"/>
</g>
<!-- Node34 -->
<g id="node34" class="node">
<title>Node34</title>
<g id="a_node34"><a xlink:href="../../d6/dc1/MakeTree_8C.html#a53b8088628309d5abb10a7aaf0d33b7a" target="_top" xlink:title="MakeTree">
<polygon fill="none" stroke="#000000" points="194.5,-246.5 194.5,-266.5 258.5,-266.5 258.5,-246.5 194.5,-246.5"/>
<text text-anchor="middle" x="226.5" y="-253.5" font-family="FreeSans" font-size="10.00" fill="#000000">MakeTree</text>
</a>
</g>
</g>
<!-- Node1&#45;&gt;Node34 -->
<g id="edge33" class="edge">
<title>Node1&#45;&gt;Node34</title>
<path fill="none" stroke="#191970" d="M55.9476,-743.214C60.2466,-659.9853 80.6279,-345.8328 146,-276.5 158.25,-263.5078 177.5197,-258.4094 194.1346,-256.6059"/>
<polygon fill="#191970" stroke="#191970" points="52.4433,-743.215 55.4447,-753.3758 59.4348,-743.5611 52.4433,-743.215"/>
</g>
<!-- Node35 -->
<g id="node35" class="node">
<title>Node35</title>
<g id="a_node35"><a xlink:href="../../d5/d5a/block_2MyHitTTree_8C.html#a9e8ef49a847a7526e0c19d923a0486a7" target="_top" xlink:title="MyHitTTree">
<polygon fill="none" stroke="#000000" points="190.5,-207.5 190.5,-227.5 262.5,-227.5 262.5,-207.5 190.5,-207.5"/>
<text text-anchor="middle" x="226.5" y="-214.5" font-family="FreeSans" font-size="10.00" fill="#000000">MyHitTTree</text>
</a>
</g>
</g>
<!-- Node1&#45;&gt;Node35 -->
<g id="edge34" class="edge">
<title>Node1&#45;&gt;Node35</title>
<path fill="none" stroke="#191970" d="M55.6384,-743.2899C58.805,-656.1006 75.6208,-313.1539 146,-237.5 157.2798,-225.3748 174.6701,-220.1074 190.4048,-217.9833"/>
<polygon fill="#191970" stroke="#191970" points="52.1352,-743.3258 55.2908,-753.4397 59.1311,-743.5654 52.1352,-743.3258"/>
</g>
<!-- Node36 -->
<g id="node36" class="node">
<title>Node36</title>
<g id="a_node36"><a xlink:href="../../d6/deb/PHGeom__DSTInspection_8C.html#a004a4f91a64bef884a2708f11f6094ec" target="_top" xlink:title="PHGeom_DSTInspection">
<polygon fill="none" stroke="#000000" points="158,-168.5 158,-188.5 295,-188.5 295,-168.5 158,-168.5"/>
<text text-anchor="middle" x="226.5" y="-175.5" font-family="FreeSans" font-size="10.00" fill="#000000">PHGeom_DSTInspection</text>
</a>
</g>
</g>
<!-- Node1&#45;&gt;Node36 -->
<g id="edge35" class="edge">
<title>Node1&#45;&gt;Node36</title>
<path fill="none" stroke="#191970" d="M55.3818,-742.9677C57.5076,-651.3006 70.7073,-280.3843 146,-198.5 149.7039,-194.4718 154.0819,-191.1988 158.8523,-188.5456"/>
<polygon fill="#191970" stroke="#191970" points="51.8787,-743.0805 55.1658,-753.1525 58.8771,-743.229 51.8787,-743.0805"/>
</g>
<!-- Node37 -->
<g id="node37" class="node">
<title>Node37</title>
<g id="a_node37"><a xlink:href="../../de/da9/ReadClustersRunTracking_8C.html#ae0216e7ee610ee6cb8ebc2392d00431b" target="_top" xlink:title="ReadClustersRunTracking">
<polygon fill="none" stroke="#000000" points="154.5,-129.5 154.5,-149.5 298.5,-149.5 298.5,-129.5 154.5,-129.5"/>
<text text-anchor="middle" x="226.5" y="-136.5" font-family="FreeSans" font-size="10.00" fill="#000000">ReadClustersRunTracking</text>
</a>
</g>
</g>
<!-- Node1&#45;&gt;Node37 -->
<g id="edge36" class="edge">
<title>Node1&#45;&gt;Node37</title>
<path fill="none" stroke="#191970" d="M56.7065,-743.4018C65.3566,-643.5624 105.5346,-203.9589 146,-159.5 149.6834,-155.4531 154.047,-152.1669 158.8077,-149.5048"/>
<polygon fill="#191970" stroke="#191970" points="53.2174,-743.1262 55.8487,-753.3891 60.1917,-743.7253 53.2174,-743.1262"/>
</g>
<!-- Node38 -->
<g id="node38" class="node">
<title>Node38</title>
<g id="a_node38"><a xlink:href="../../d3/d61/fun4all__coresoftware_2blob_2master_2offline_2packages_2NodeDump_2macro_2run__dump_8C.html#ad821e25f39e2f306bd2e7f4626bc8049" target="_top" xlink:title="run_dump">
<polygon fill="none" stroke="#000000" points="192.5,-90.5 192.5,-110.5 260.5,-110.5 260.5,-90.5 192.5,-90.5"/>
<text text-anchor="middle" x="226.5" y="-97.5" font-family="FreeSans" font-size="10.00" fill="#000000">run_dump</text>
</a>
</g>
</g>
<!-- Node1&#45;&gt;Node38 -->
<g id="edge37" class="edge">
<title>Node1&#45;&gt;Node38</title>
<path fill="none" stroke="#191970" d="M56.5384,-743.0993C64.5801,-638.7898 103.0556,-168.1087 146,-120.5 157.5745,-107.6683 175.9859,-102.4718 192.2814,-100.572"/>
<polygon fill="#191970" stroke="#191970" points="53.0354,-743.0064 55.7637,-753.244 60.015,-743.5395 53.0354,-743.0064"/>
</g>
<!-- Node39 -->
<g id="node39" class="node">
<title>Node39</title>
<g id="a_node39"><a xlink:href="../../de/dcb/RunBoth_8C.html#a953c430173a95963886161f24b97640c" target="_top" xlink:title="RunBoth">
<polygon fill="none" stroke="#000000" points="197,-51.5 197,-71.5 256,-71.5 256,-51.5 197,-51.5"/>
<text text-anchor="middle" x="226.5" y="-58.5" font-family="FreeSans" font-size="10.00" fill="#000000">RunBoth</text>
</a>
</g>
</g>
<!-- Node1&#45;&gt;Node39 -->
<g id="edge38" class="edge">
<title>Node1&#45;&gt;Node39</title>
<path fill="none" stroke="#191970" d="M56.3565,-743.2379C63.7482,-635.4486 100.5112,-132.3338 146,-81.5 158.5798,-67.442 179.3644,-62.5344 196.6626,-61.0934"/>
<polygon fill="#191970" stroke="#191970" points="52.8517,-743.1908 55.6665,-753.4049 59.8357,-743.6649 52.8517,-743.1908"/>
</g>
<!-- Node40 -->
<g id="node40" class="node">
<title>Node40</title>
<g id="a_node40"><a xlink:href="../../dc/def/classFun4AllMessenger.html#a1e488e9b2a3f69a69b6c7174918b8c67" target="_top" xlink:title="Fun4AllMessenger::SetNew\lValue">
<polygon fill="none" stroke="#000000" points="149.5,-.5 149.5,-32.5 303.5,-32.5 303.5,-.5 149.5,-.5"/>
<text text-anchor="start" x="157.5" y="-19.5" font-family="FreeSans" font-size="10.00" fill="#000000">Fun4AllMessenger::SetNew</text>
<text text-anchor="middle" x="226.5" y="-7.5" font-family="FreeSans" font-size="10.00" fill="#000000">Value</text>
</a>
</g>
</g>
<!-- Node1&#45;&gt;Node40 -->
<g id="edge39" class="edge">
<title>Node1&#45;&gt;Node40</title>
<path fill="none" stroke="#191970" d="M56.2721,-743.1931C63.4167,-631.8219 99.8846,-98.1509 146,-42.5 149.1861,-38.6551 152.9458,-35.3729 157.0706,-32.5717"/>
<polygon fill="#191970" stroke="#191970" points="52.7654,-743.1889 55.6246,-753.3906 59.7513,-743.6325 52.7654,-743.1889"/>
</g>
</g>
</svg>
