<?xml version="1.0" encoding="UTF-8" standalone="no"?>
<!DOCTYPE svg PUBLIC "-//W3C//DTD SVG 1.1//EN"
 "http://www.w3.org/Graphics/SVG/1.1/DTD/svg11.dtd">
<!-- Generated by graphviz version 2.40.1 (20161225.0304)
 -->
<!-- Title: Fun4AllServer::registerHisto Pages: 1 -->
<svg width="582pt" height="194pt"
 viewBox="0.00 0.00 582.00 194.00" xmlns="http://www.w3.org/2000/svg" xmlns:xlink="http://www.w3.org/1999/xlink">
<g id="graph0" class="graph" transform="scale(1 1) rotate(0) translate(4 190)">
<title>Fun4AllServer::registerHisto</title>
<!-- Node1 -->
<g id="node1" class="node">
<title>Node1</title>
<polygon fill="#bfbfbf" stroke="#000000" points="0,-91.5 0,-111.5 158,-111.5 158,-91.5 0,-91.5"/>
<text text-anchor="middle" x="79" y="-98.5" font-family="FreeSans" font-size="10.00" fill="#000000">Fun4AllServer::registerHisto</text>
</g>
<!-- Node2 -->
<g id="node2" class="node">
<title>Node2</title>
<g id="a_node2"><a xlink:href="../../d3/d77/classPHG4OuterHcalSteppingAction.html#a03f0a2b7a371616bee75f13243d9a4a3" target="_top" xlink:title="PHG4OuterHcalSteppingAction\l::FieldChecker">
<polygon fill="none" stroke="#000000" points="194,-153.5 194,-185.5 366,-185.5 366,-153.5 194,-153.5"/>
<text text-anchor="start" x="202" y="-172.5" font-family="FreeSans" font-size="10.00" fill="#000000">PHG4OuterHcalSteppingAction</text>
<text text-anchor="middle" x="280" y="-160.5" font-family="FreeSans" font-size="10.00" fill="#000000">::FieldChecker</text>
</a>
</g>
</g>
<!-- Node1&#45;&gt;Node2 -->
<g id="edge1" class="edge">
<title>Node1&#45;&gt;Node2</title>
<path fill="none" stroke="#191970" d="M113.9142,-115.3319C136.5859,-124.1205 166.8606,-135.4955 194,-144.5 203.1497,-147.5358 212.9118,-150.5674 222.453,-153.419"/>
<polygon fill="#191970" stroke="#191970" points="114.9717,-111.9877 104.3834,-111.6162 112.429,-118.5096 114.9717,-111.9877"/>
</g>
<!-- Node4 -->
<g id="node4" class="node">
<title>Node4</title>
<g id="a_node4"><a xlink:href="../../da/d29/classFun4AllServer.html#aa1939c3e2c3113cce0a6415103b4f5a5" target="_top" xlink:title="Fun4AllServer::InitAll">
<polygon fill="none" stroke="#000000" points="219,-114.5 219,-134.5 341,-134.5 341,-114.5 219,-114.5"/>
<text text-anchor="middle" x="280" y="-121.5" font-family="FreeSans" font-size="10.00" fill="#000000">Fun4AllServer::InitAll</text>
</a>
</g>
</g>
<!-- Node1&#45;&gt;Node4 -->
<g id="edge3" class="edge">
<title>Node1&#45;&gt;Node4</title>
<path fill="none" stroke="#191970" d="M168.1832,-111.705C185.3338,-113.6676 202.9297,-115.681 218.9388,-117.5129"/>
<polygon fill="#191970" stroke="#191970" points="168.4851,-108.2168 158.152,-110.5572 167.6892,-115.1714 168.4851,-108.2168"/>
</g>
<!-- Node6 -->
<g id="node6" class="node">
<title>Node6</title>
<g id="a_node6"><a xlink:href="../../d7/ddb/classPHG4TpcElectronDrift.html#a14a3483e3de7a9a5cb6a4434cba1835c" target="_top" xlink:title="PHG4TpcElectronDrift\l::InitRun">
<polygon fill="none" stroke="#000000" points="217,-63.5 217,-95.5 343,-95.5 343,-63.5 217,-63.5"/>
<text text-anchor="start" x="225" y="-82.5" font-family="FreeSans" font-size="10.00" fill="#000000">PHG4TpcElectronDrift</text>
<text text-anchor="middle" x="280" y="-70.5" font-family="FreeSans" font-size="10.00" fill="#000000">::InitRun</text>
</a>
</g>
</g>
<!-- Node1&#45;&gt;Node6 -->
<g id="edge5" class="edge">
<title>Node1&#45;&gt;Node6</title>
<path fill="none" stroke="#191970" d="M168.2616,-91.7301C184.6069,-89.941 201.3537,-88.1081 216.7434,-86.4236"/>
<polygon fill="#191970" stroke="#191970" points="167.7118,-88.2693 158.152,-92.8366 168.4735,-95.2277 167.7118,-88.2693"/>
</g>
<!-- Node7 -->
<g id="node7" class="node">
<title>Node7</title>
<g id="a_node7"><a xlink:href="../../d3/dd2/classPHG4FullProjSpacalCellReco_1_1LightCollectionModel.html#af405c4841d2e8157e8ce22569360fdef" target="_top" xlink:title="PHG4FullProjSpacalCellReco\l::LightCollectionModel::\lLightCollectionModel">
<polygon fill="none" stroke="#000000" points="201,-.5 201,-44.5 359,-44.5 359,-.5 201,-.5"/>
<text text-anchor="start" x="209" y="-31.5" font-family="FreeSans" font-size="10.00" fill="#000000">PHG4FullProjSpacalCellReco</text>
<text text-anchor="start" x="209" y="-19.5" font-family="FreeSans" font-size="10.00" fill="#000000">::LightCollectionModel::</text>
<text text-anchor="middle" x="280" y="-7.5" font-family="FreeSans" font-size="10.00" fill="#000000">LightCollectionModel</text>
</a>
</g>
</g>
<!-- Node1&#45;&gt;Node7 -->
<g id="edge6" class="edge">
<title>Node1&#45;&gt;Node7</title>
<path fill="none" stroke="#191970" d="M112.4142,-87.5164C135.3041,-78.0177 166.3982,-65.2725 194,-54.5 202.3107,-51.2565 211.1006,-47.9008 219.7625,-44.6372"/>
<polygon fill="#191970" stroke="#191970" points="111.0298,-84.3014 103.1406,-91.3732 113.7179,-90.7647 111.0298,-84.3014"/>
</g>
<!-- Node3 -->
<g id="node3" class="node">
<title>Node3</title>
<g id="a_node3"><a xlink:href="../../d3/d77/classPHG4OuterHcalSteppingAction.html#ad7ba45f4ea4cc63a592c2ed49895307c" target="_top" xlink:title="stepping action">
<polygon fill="none" stroke="#000000" points="402,-153.5 402,-185.5 574,-185.5 574,-153.5 402,-153.5"/>
<text text-anchor="start" x="410" y="-172.5" font-family="FreeSans" font-size="10.00" fill="#000000">PHG4OuterHcalSteppingAction</text>
<text text-anchor="middle" x="488" y="-160.5" font-family="FreeSans" font-size="10.00" fill="#000000">::UserSteppingAction</text>
</a>
</g>
</g>
<!-- Node2&#45;&gt;Node3 -->
<g id="edge2" class="edge">
<title>Node2&#45;&gt;Node3</title>
<path fill="none" stroke="#191970" d="M376.1603,-169.5C384.7679,-169.5 393.4476,-169.5 401.9616,-169.5"/>
<polygon fill="#191970" stroke="#191970" points="376.103,-166.0001 366.103,-169.5 376.103,-173.0001 376.103,-166.0001"/>
</g>
<!-- Node5 -->
<g id="node5" class="node">
<title>Node5</title>
<g id="a_node5"><a xlink:href="../../da/d29/classFun4AllServer.html#a90e27f05f0b2e8b6fe462387b14bfb92" target="_top" xlink:title="Fun4AllServer::Fun4AllServer">
<polygon fill="none" stroke="#000000" points="406,-114.5 406,-134.5 570,-134.5 570,-114.5 406,-114.5"/>
<text text-anchor="middle" x="488" y="-121.5" font-family="FreeSans" font-size="10.00" fill="#000000">Fun4AllServer::Fun4AllServer</text>
</a>
</g>
</g>
<!-- Node4&#45;&gt;Node5 -->
<g id="edge4" class="edge">
<title>Node4&#45;&gt;Node5</title>
<path fill="none" stroke="#191970" d="M351.1683,-124.5C368.7389,-124.5 387.7027,-124.5 405.7515,-124.5"/>
<polygon fill="#191970" stroke="#191970" points="351.0015,-121.0001 341.0014,-124.5 351.0014,-128.0001 351.0015,-121.0001"/>
</g>
</g>
</svg>
