<?xml version="1.0" encoding="UTF-8" standalone="no"?>
<!DOCTYPE svg PUBLIC "-//W3C//DTD SVG 1.1//EN"
 "http://www.w3.org/Graphics/SVG/1.1/DTD/svg11.dtd">
<!-- Generated by graphviz version 2.40.1 (20161225.0304)
 -->
<!-- Title: fun4all_tutorials/blob/master/AnaTutorial/macro/Fun4All_AnaTutorial_Jets.C Pages: 1 -->
<svg width="3632pt" height="362pt"
 viewBox="0.00 0.00 3632.00 362.00" xmlns="http://www.w3.org/2000/svg" xmlns:xlink="http://www.w3.org/1999/xlink">
<g id="graph0" class="graph" transform="scale(1 1) rotate(0) translate(4 358)">
<title>fun4all_tutorials/blob/master/AnaTutorial/macro/Fun4All_AnaTutorial_Jets.C</title>
<!-- Node1 -->
<g id="node1" class="node">
<title>Node1</title>
<polygon fill="#bfbfbf" stroke="#000000" points="1788,-309.5 1788,-353.5 1941,-353.5 1941,-309.5 1788,-309.5"/>
<text text-anchor="start" x="1796" y="-340.5" font-family="FreeSans" font-size="10.00" fill="#000000">fun4all_tutorials/blob</text>
<text text-anchor="start" x="1796" y="-328.5" font-family="FreeSans" font-size="10.00" fill="#000000">/master/AnaTutorial/macro</text>
<text text-anchor="middle" x="1864.5" y="-316.5" font-family="FreeSans" font-size="10.00" fill="#000000">/Fun4All_AnaTutorial_Jets.C</text>
</g>
<!-- Node2 -->
<g id="node2" class="node">
<title>Node2</title>
<polygon fill="none" stroke="#bfbfbf" points="0,-246.5 0,-266.5 141,-266.5 141,-246.5 0,-246.5"/>
<text text-anchor="middle" x="70.5" y="-253.5" font-family="FreeSans" font-size="10.00" fill="#000000">anatutorial/AnaTutorial.h</text>
</g>
<!-- Node1&#45;&gt;Node2 -->
<g id="edge1" class="edge">
<title>Node1&#45;&gt;Node2</title>
<path fill="none" stroke="#191970" d="M1787.6767,-330.6345C1498.2023,-327.1003 473.3723,-312.052 149.5,-273 140.606,-271.9276 131.2268,-270.3616 122.1595,-268.6155"/>
<polygon fill="#191970" stroke="#191970" points="122.5922,-265.1323 112.0973,-266.5843 121.207,-271.9939 122.5922,-265.1323"/>
</g>
<!-- Node3 -->
<g id="node3" class="node">
<title>Node3</title>
<g id="a_node3"><a xlink:href="../../dd/de7/Fun4AllDstInputManager_8h.html" target="_top" xlink:title="fun4all/Fun4AllDstInputManager.h">
<polygon fill="none" stroke="#000000" points="1461.5,-177.5 1461.5,-197.5 1649.5,-197.5 1649.5,-177.5 1461.5,-177.5"/>
<text text-anchor="middle" x="1555.5" y="-184.5" font-family="FreeSans" font-size="10.00" fill="#000000">fun4all/Fun4AllDstInputManager.h</text>
</a>
</g>
</g>
<!-- Node1&#45;&gt;Node3 -->
<g id="edge2" class="edge">
<title>Node1&#45;&gt;Node3</title>
<path fill="none" stroke="#191970" d="M1787.7895,-328.2755C1703.9404,-322.9513 1577.4843,-309.024 1547.5,-273 1532.2906,-254.727 1539.1341,-226.0424 1546.4577,-207.008"/>
<polygon fill="#191970" stroke="#191970" points="1549.7836,-208.1282 1550.4388,-197.5536 1543.3322,-205.4116 1549.7836,-208.1282"/>
</g>
<!-- Node4 -->
<g id="node4" class="node">
<title>Node4</title>
<g id="a_node4"><a xlink:href="../../d1/de7/Fun4AllInputManager_8h.html" target="_top" xlink:title="Fun4AllInputManager.h">
<polygon fill="none" stroke="#000000" points="1203.5,-114.5 1203.5,-134.5 1335.5,-134.5 1335.5,-114.5 1203.5,-114.5"/>
<text text-anchor="middle" x="1269.5" y="-121.5" font-family="FreeSans" font-size="10.00" fill="#000000">Fun4AllInputManager.h</text>
</a>
</g>
</g>
<!-- Node1&#45;&gt;Node4 -->
<g id="edge26" class="edge">
<title>Node1&#45;&gt;Node4</title>
<path fill="none" stroke="#191970" d="M1787.7723,-328.4815C1652.6734,-322.3786 1378.154,-306.2304 1288.5,-273 1238.2108,-254.3603 1214.3165,-251.5456 1189.5,-204 1182.7135,-190.9979 1182.1852,-183.7124 1189.5,-171 1197.8469,-156.4939 1212.649,-146.0935 1227.2701,-138.8595"/>
<polygon fill="#191970" stroke="#191970" points="1229.1169,-141.8654 1236.7824,-134.5517 1226.2291,-135.4888 1229.1169,-141.8654"/>
</g>
<!-- Node13 -->
<g id="node13" class="node">
<title>Node13</title>
<g id="a_node13"><a xlink:href="../../db/d22/Fun4AllDstOutputManager_8h.html" target="_top" xlink:title="fun4all/Fun4AllDstOutput\lManager.h">
<polygon fill="none" stroke="#000000" points="1667.5,-171.5 1667.5,-203.5 1811.5,-203.5 1811.5,-171.5 1667.5,-171.5"/>
<text text-anchor="start" x="1675.5" y="-190.5" font-family="FreeSans" font-size="10.00" fill="#000000">fun4all/Fun4AllDstOutput</text>
<text text-anchor="middle" x="1739.5" y="-178.5" font-family="FreeSans" font-size="10.00" fill="#000000">Manager.h</text>
</a>
</g>
</g>
<!-- Node1&#45;&gt;Node13 -->
<g id="edge14" class="edge">
<title>Node1&#45;&gt;Node13</title>
<path fill="none" stroke="#191970" d="M1787.8728,-327.6942C1706.9178,-321.8796 1587.0654,-307.5438 1558.5,-273 1549.1534,-261.6973 1549.6913,-251.7268 1558.5,-240 1565.0792,-231.2413 1614.3096,-217.2787 1659.7658,-205.954"/>
<polygon fill="#191970" stroke="#191970" points="1660.821,-209.2988 1669.6926,-203.5069 1659.1455,-202.5022 1660.821,-209.2988"/>
</g>
<!-- Node14 -->
<g id="node14" class="node">
<title>Node14</title>
<g id="a_node14"><a xlink:href="../../de/df8/Fun4AllOutputManager_8h.html" target="_top" xlink:title="Fun4AllOutputManager.h">
<polygon fill="none" stroke="#000000" points="1708,-114.5 1708,-134.5 1849,-134.5 1849,-114.5 1708,-114.5"/>
<text text-anchor="middle" x="1778.5" y="-121.5" font-family="FreeSans" font-size="10.00" fill="#000000">Fun4AllOutputManager.h</text>
</a>
</g>
</g>
<!-- Node1&#45;&gt;Node14 -->
<g id="edge31" class="edge">
<title>Node1&#45;&gt;Node14</title>
<path fill="none" stroke="#191970" d="M1787.7301,-325.6441C1715.7968,-318.3726 1615.8023,-303.0617 1591.5,-273 1582.2794,-261.5942 1581.9683,-251.1471 1591.5,-240 1658.4562,-161.6956 1753.5438,-282.3044 1820.5,-204 1836.6869,-185.0696 1816.3789,-158.8524 1798.7813,-141.7863"/>
<polygon fill="#191970" stroke="#191970" points="1800.7552,-138.8461 1791.0276,-134.6481 1796.0141,-143.9961 1800.7552,-138.8461"/>
</g>
<!-- Node17 -->
<g id="node17" class="node">
<title>Node17</title>
<g id="a_node17"><a xlink:href="../../d8/d8f/Fun4AllDummyInputManager_8h.html" target="_top" xlink:title="fun4all/Fun4AllDummyInput\lManager.h">
<polygon fill="none" stroke="#000000" points="1209.5,-171.5 1209.5,-203.5 1367.5,-203.5 1367.5,-171.5 1209.5,-171.5"/>
<text text-anchor="start" x="1217.5" y="-190.5" font-family="FreeSans" font-size="10.00" fill="#000000">fun4all/Fun4AllDummyInput</text>
<text text-anchor="middle" x="1288.5" y="-178.5" font-family="FreeSans" font-size="10.00" fill="#000000">Manager.h</text>
</a>
</g>
</g>
<!-- Node1&#45;&gt;Node17 -->
<g id="edge22" class="edge">
<title>Node1&#45;&gt;Node17</title>
<path fill="none" stroke="#191970" d="M1787.9513,-328.1073C1644.877,-321.0872 1348.0923,-303.0618 1312.5,-273 1295.4066,-258.5626 1289.9806,-233.0171 1288.487,-213.5975"/>
<polygon fill="#191970" stroke="#191970" points="1291.9804,-213.3723 1288.0126,-203.5485 1284.9882,-213.7024 1291.9804,-213.3723"/>
</g>
<!-- Node18 -->
<g id="node18" class="node">
<title>Node18</title>
<g id="a_node18"><a xlink:href="../../d2/dab/Fun4AllNoSyncDstInputManager_8h.html" target="_top" xlink:title="fun4all/Fun4AllNoSyncDst\lInputManager.h">
<polygon fill="none" stroke="#000000" points="1321,-240.5 1321,-272.5 1468,-272.5 1468,-240.5 1321,-240.5"/>
<text text-anchor="start" x="1329" y="-259.5" font-family="FreeSans" font-size="10.00" fill="#000000">fun4all/Fun4AllNoSyncDst</text>
<text text-anchor="middle" x="1394.5" y="-247.5" font-family="FreeSans" font-size="10.00" fill="#000000">InputManager.h</text>
</a>
</g>
</g>
<!-- Node1&#45;&gt;Node18 -->
<g id="edge27" class="edge">
<title>Node1&#45;&gt;Node18</title>
<path fill="none" stroke="#191970" d="M1787.9156,-320.5393C1710.704,-309.3085 1588.1597,-290.9909 1482.5,-273 1481.2071,-272.7799 1479.9038,-272.5563 1478.5922,-272.3298"/>
<polygon fill="#191970" stroke="#191970" points="1478.864,-268.8241 1468.4095,-270.5432 1477.6542,-275.7188 1478.864,-268.8241"/>
</g>
<!-- Node19 -->
<g id="node19" class="node">
<title>Node19</title>
<g id="a_node19"><a xlink:href="../../dc/da2/Fun4AllServer_8h.html" target="_top" xlink:title="fun4all/Fun4AllServer.h">
<polygon fill="none" stroke="#000000" points="2601,-177.5 2601,-197.5 2734,-197.5 2734,-177.5 2601,-177.5"/>
<text text-anchor="middle" x="2667.5" y="-184.5" font-family="FreeSans" font-size="10.00" fill="#000000">fun4all/Fun4AllServer.h</text>
</a>
</g>
</g>
<!-- Node1&#45;&gt;Node19 -->
<g id="edge32" class="edge">
<title>Node1&#45;&gt;Node19</title>
<path fill="none" stroke="#191970" d="M1941.2082,-329.9948C2247.4318,-323.8077 3367.0796,-299.4123 3392.5,-273 3402.6706,-262.4326 3402.4894,-250.7389 3392.5,-240 3370.6593,-216.5206 2926.3583,-197.226 2744.2944,-190.2751"/>
<polygon fill="#191970" stroke="#191970" points="2744.3798,-186.7759 2734.2542,-189.8941 2744.1143,-193.7709 2744.3798,-186.7759"/>
</g>
<!-- Node23 -->
<g id="node23" class="node">
<title>Node23</title>
<g id="a_node23"><a xlink:href="../../d5/dc2/SubsysReco_8h.html" target="_top" xlink:title="fun4all/SubsysReco.h">
<polygon fill="none" stroke="#000000" points="2057.5,-114.5 2057.5,-134.5 2181.5,-134.5 2181.5,-114.5 2057.5,-114.5"/>
<text text-anchor="middle" x="2119.5" y="-121.5" font-family="FreeSans" font-size="10.00" fill="#000000">fun4all/SubsysReco.h</text>
</a>
</g>
</g>
<!-- Node1&#45;&gt;Node23 -->
<g id="edge46" class="edge">
<title>Node1&#45;&gt;Node23</title>
<path fill="none" stroke="#191970" d="M1892.9348,-309.4278C1906.5865,-298.6505 1923.0743,-285.3683 1937.5,-273 1953.9778,-258.8723 1953.6997,-248.8916 1973.5,-240 2045.028,-207.8792 2271.9608,-262.2034 2324.5,-204 2334.3276,-193.1129 2333.6522,-182.4607 2324.5,-171 2315.947,-160.2897 2246.8353,-146.1363 2191.1863,-136.2692"/>
<polygon fill="#191970" stroke="#191970" points="2191.7785,-132.8197 2181.3242,-134.5399 2190.5694,-139.7145 2191.7785,-132.8197"/>
</g>
<!-- Node24 -->
<g id="node24" class="node">
<title>Node24</title>
<g id="a_node24"><a xlink:href="../../d8/d3a/PHG4DetectorSubsystem_8h.html" target="_top" xlink:title="g4detectors/PHG4Detector\lSubsystem.h">
<polygon fill="none" stroke="#000000" points="1736.5,-240.5 1736.5,-272.5 1888.5,-272.5 1888.5,-240.5 1736.5,-240.5"/>
<text text-anchor="start" x="1744.5" y="-259.5" font-family="FreeSans" font-size="10.00" fill="#000000">g4detectors/PHG4Detector</text>
<text text-anchor="middle" x="1812.5" y="-247.5" font-family="FreeSans" font-size="10.00" fill="#000000">Subsystem.h</text>
</a>
</g>
</g>
<!-- Node1&#45;&gt;Node24 -->
<g id="edge49" class="edge">
<title>Node1&#45;&gt;Node24</title>
<path fill="none" stroke="#191970" d="M1849.1795,-309.4032C1843.0044,-300.4967 1835.8564,-290.1871 1829.5197,-281.0477"/>
<polygon fill="#191970" stroke="#191970" points="1832.3253,-278.9514 1823.7512,-272.7277 1826.5727,-282.9399 1832.3253,-278.9514"/>
</g>
<!-- Node26 -->
<g id="node26" class="node">
<title>Node26</title>
<g id="a_node26"><a xlink:href="../../dd/de1/HepMCNodeReader_8h.html" target="_top" xlink:title="g4main/HepMCNodeReader.h">
<polygon fill="none" stroke="#000000" points="1981.5,-177.5 1981.5,-197.5 2145.5,-197.5 2145.5,-177.5 1981.5,-177.5"/>
<text text-anchor="middle" x="2063.5" y="-184.5" font-family="FreeSans" font-size="10.00" fill="#000000">g4main/HepMCNodeReader.h</text>
</a>
</g>
</g>
<!-- Node1&#45;&gt;Node26 -->
<g id="edge57" class="edge">
<title>Node1&#45;&gt;Node26</title>
<path fill="none" stroke="#191970" d="M1878.4067,-309.3354C1892.0996,-289.0185 1914.6713,-259.2525 1940.5,-240 1964.0006,-222.4828 1994.2346,-209.4753 2018.8461,-200.7895"/>
<polygon fill="#191970" stroke="#191970" points="2019.9858,-204.0988 2028.321,-197.5586 2017.7265,-197.4734 2019.9858,-204.0988"/>
</g>
<!-- Node28 -->
<g id="node28" class="node">
<title>Node28</title>
<g id="a_node28"><a xlink:href="../../d4/d8b/PHG4ParticleGenerator_8h.html" target="_top" xlink:title="g4main/PHG4ParticleGenerator.h">
<polygon fill="none" stroke="#000000" points="159,-246.5 159,-266.5 342,-266.5 342,-246.5 159,-246.5"/>
<text text-anchor="middle" x="250.5" y="-253.5" font-family="FreeSans" font-size="10.00" fill="#000000">g4main/PHG4ParticleGenerator.h</text>
</a>
</g>
</g>
<!-- Node1&#45;&gt;Node28 -->
<g id="edge61" class="edge">
<title>Node1&#45;&gt;Node28</title>
<path fill="none" stroke="#191970" d="M1787.7227,-329.8036C1520.7556,-323.7062 633.7912,-301.7311 350.5,-273 338.533,-271.7863 325.8266,-270.0443 313.629,-268.1426"/>
<polygon fill="#191970" stroke="#191970" points="313.9595,-264.6508 303.5301,-266.5158 312.8462,-271.5617 313.9595,-264.6508"/>
</g>
<!-- Node29 -->
<g id="node29" class="node">
<title>Node29</title>
<g id="a_node29"><a xlink:href="../../d8/d9f/PHG4ParticleGeneratorBase_8h.html" target="_top" xlink:title="PHG4ParticleGeneratorBase.h">
<polygon fill="none" stroke="#000000" points="458,-177.5 458,-197.5 625,-197.5 625,-177.5 458,-177.5"/>
<text text-anchor="middle" x="541.5" y="-184.5" font-family="FreeSans" font-size="10.00" fill="#000000">PHG4ParticleGeneratorBase.h</text>
</a>
</g>
</g>
<!-- Node1&#45;&gt;Node29 -->
<g id="edge68" class="edge">
<title>Node1&#45;&gt;Node29</title>
<path fill="none" stroke="#191970" d="M1787.6236,-330.6109C1514.9224,-327.1275 607.6562,-312.5967 560.5,-273 541.8203,-257.3148 539.0901,-227.7165 539.6556,-207.7995"/>
<polygon fill="#191970" stroke="#191970" points="543.1608,-207.8124 540.251,-197.625 536.1727,-207.4034 543.1608,-207.8124"/>
</g>
<!-- Node30 -->
<g id="node30" class="node">
<title>Node30</title>
<g id="a_node30"><a xlink:href="../../d8/dc1/PHG4ParticleGeneratorVectorMeson_8h.html" target="_top" xlink:title="g4main/PHG4ParticleGenerator\lVectorMeson.h">
<polygon fill="none" stroke="#000000" points="570,-240.5 570,-272.5 745,-272.5 745,-240.5 570,-240.5"/>
<text text-anchor="start" x="578" y="-259.5" font-family="FreeSans" font-size="10.00" fill="#000000">g4main/PHG4ParticleGenerator</text>
<text text-anchor="middle" x="657.5" y="-247.5" font-family="FreeSans" font-size="10.00" fill="#000000">VectorMeson.h</text>
</a>
</g>
</g>
<!-- Node1&#45;&gt;Node30 -->
<g id="edge69" class="edge">
<title>Node1&#45;&gt;Node30</title>
<path fill="none" stroke="#191970" d="M1787.8061,-330.5635C1608.6179,-327.7056 1148.475,-316.4911 755.2263,-273.1173"/>
<polygon fill="#191970" stroke="#191970" points="755.3993,-269.615 745.0737,-271.9886 754.6258,-276.5722 755.3993,-269.615"/>
</g>
<!-- Node31 -->
<g id="node31" class="node">
<title>Node31</title>
<g id="a_node31"><a xlink:href="../../de/d65/PHG4ParticleGun_8h.html" target="_top" xlink:title="g4main/PHG4ParticleGun.h">
<polygon fill="none" stroke="#000000" points="360,-246.5 360,-266.5 513,-266.5 513,-246.5 360,-246.5"/>
<text text-anchor="middle" x="436.5" y="-253.5" font-family="FreeSans" font-size="10.00" fill="#000000">g4main/PHG4ParticleGun.h</text>
</a>
</g>
</g>
<!-- Node1&#45;&gt;Node31 -->
<g id="edge73" class="edge">
<title>Node1&#45;&gt;Node31</title>
<path fill="none" stroke="#191970" d="M1787.8655,-329.516C1541.9531,-322.9338 774.4145,-300.6577 527.5,-273 516.98,-271.8216 505.8429,-270.1558 495.1044,-268.3318"/>
<polygon fill="#191970" stroke="#191970" points="495.4196,-264.8335 484.964,-266.5453 494.205,-271.7273 495.4196,-264.8335"/>
</g>
<!-- Node32 -->
<g id="node32" class="node">
<title>Node32</title>
<g id="a_node32"><a xlink:href="../../da/d45/PHG4SimpleEventGenerator_8h.html" target="_top" xlink:title="g4main/PHG4SimpleEventGenerator.h">
<polygon fill="none" stroke="#000000" points="763,-246.5 763,-266.5 972,-266.5 972,-246.5 763,-246.5"/>
<text text-anchor="middle" x="867.5" y="-253.5" font-family="FreeSans" font-size="10.00" fill="#000000">g4main/PHG4SimpleEventGenerator.h</text>
</a>
</g>
</g>
<!-- Node1&#45;&gt;Node32 -->
<g id="edge76" class="edge">
<title>Node1&#45;&gt;Node32</title>
<path fill="none" stroke="#191970" d="M1787.762,-328.4623C1634.1764,-321.9323 1278.1831,-304.5336 980.5,-273 967.3813,-271.6103 953.4482,-269.8284 940.0103,-267.9519"/>
<polygon fill="#191970" stroke="#191970" points="940.2464,-264.4503 929.8525,-266.5035 939.2582,-271.3802 940.2464,-264.4503"/>
</g>
<!-- Node33 -->
<g id="node33" class="node">
<title>Node33</title>
<g id="a_node33"><a xlink:href="../../d1/d72/Fun4AllHepMCInputManager_8h.html" target="_top" xlink:title="phhepmc/Fun4AllHepMCInput\lManager.h">
<polygon fill="none" stroke="#ff0000" points="949,-171.5 949,-203.5 1116,-203.5 1116,-171.5 949,-171.5"/>
<text text-anchor="start" x="957" y="-190.5" font-family="FreeSans" font-size="10.00" fill="#000000">phhepmc/Fun4AllHepMCInput</text>
<text text-anchor="middle" x="1032.5" y="-178.5" font-family="FreeSans" font-size="10.00" fill="#000000">Manager.h</text>
</a>
</g>
</g>
<!-- Node1&#45;&gt;Node33 -->
<g id="edge81" class="edge">
<title>Node1&#45;&gt;Node33</title>
<path fill="none" stroke="#191970" d="M1787.9252,-329.9477C1639.0941,-326.0627 1316.3698,-313.1476 1213.5,-273 1191.0582,-264.2415 1191.5359,-251.7404 1170.5,-240 1146.7876,-226.7658 1119.0685,-215.4944 1094.7195,-206.8275"/>
<polygon fill="#191970" stroke="#191970" points="1095.8133,-203.5022 1085.2184,-203.5152 1093.5089,-210.1121 1095.8133,-203.5022"/>
</g>
<!-- Node36 -->
<g id="node36" class="node">
<title>Node36</title>
<g id="a_node36"><a xlink:href="../../d5/db1/Fun4AllHepMCPileupInputManager_8h.html" target="_top" xlink:title="phhepmc/Fun4AllHepMCPileup\lInputManager.h">
<polygon fill="none" stroke="#000000" points="990,-240.5 990,-272.5 1161,-272.5 1161,-240.5 990,-240.5"/>
<text text-anchor="start" x="998" y="-259.5" font-family="FreeSans" font-size="10.00" fill="#000000">phhepmc/Fun4AllHepMCPileup</text>
<text text-anchor="middle" x="1075.5" y="-247.5" font-family="FreeSans" font-size="10.00" fill="#000000">InputManager.h</text>
</a>
</g>
</g>
<!-- Node1&#45;&gt;Node36 -->
<g id="edge89" class="edge">
<title>Node1&#45;&gt;Node36</title>
<path fill="none" stroke="#191970" d="M1787.8264,-326.9705C1660.3908,-318.9987 1397.0725,-300.6425 1175.5,-273 1174.0268,-272.8162 1172.542,-272.6266 1171.0481,-272.4318"/>
<polygon fill="#191970" stroke="#191970" points="1171.461,-268.9558 1161.0805,-271.0762 1170.5176,-275.8919 1171.461,-268.9558"/>
</g>
<!-- Node37 -->
<g id="node37" class="node">
<title>Node37</title>
<g id="a_node37"><a xlink:href="../../de/dea/PHRandomSeed_8h.html" target="_top" xlink:title="phool/PHRandomSeed.h">
<polygon fill="none" stroke="#000000" points="1982.5,-246.5 1982.5,-266.5 2120.5,-266.5 2120.5,-246.5 1982.5,-246.5"/>
<text text-anchor="middle" x="2051.5" y="-253.5" font-family="FreeSans" font-size="10.00" fill="#000000">phool/PHRandomSeed.h</text>
</a>
</g>
</g>
<!-- Node1&#45;&gt;Node37 -->
<g id="edge93" class="edge">
<title>Node1&#45;&gt;Node37</title>
<path fill="none" stroke="#191970" d="M1919.5947,-309.4032C1951.0669,-296.7807 1989.5655,-281.34 2016.8273,-270.4062"/>
<polygon fill="#191970" stroke="#191970" points="2018.3504,-273.5664 2026.3289,-266.5954 2015.7447,-267.0694 2018.3504,-273.5664"/>
</g>
<!-- Node38 -->
<g id="node38" class="node">
<title>Node38</title>
<g id="a_node38"><a xlink:href="../../d2/dcb/recoConsts_8h.html" target="_top" xlink:title="phool/recoConsts.h">
<polygon fill="none" stroke="#ff0000" points="2139,-246.5 2139,-266.5 2252,-266.5 2252,-246.5 2139,-246.5"/>
<text text-anchor="middle" x="2195.5" y="-253.5" font-family="FreeSans" font-size="10.00" fill="#000000">phool/recoConsts.h</text>
</a>
</g>
</g>
<!-- Node1&#45;&gt;Node38 -->
<g id="edge94" class="edge">
<title>Node1&#45;&gt;Node38</title>
<path fill="none" stroke="#191970" d="M1941.1643,-315.164C1994.1492,-303.7297 2066.2107,-287.8939 2129.5,-273 2134.8892,-271.7318 2140.5176,-270.3748 2146.117,-269.004"/>
<polygon fill="#191970" stroke="#191970" points="2147.2368,-272.3327 2156.1065,-266.5381 2145.5591,-265.5367 2147.2368,-272.3327"/>
</g>
<!-- Node39 -->
<g id="node39" class="node">
<title>Node39</title>
<polygon fill="none" stroke="#bfbfbf" points="2270.5,-246.5 2270.5,-266.5 2402.5,-266.5 2402.5,-246.5 2270.5,-246.5"/>
<text text-anchor="middle" x="2336.5" y="-253.5" font-family="FreeSans" font-size="10.00" fill="#000000">phpythia6/PHPythia6.h</text>
</g>
<!-- Node1&#45;&gt;Node39 -->
<g id="edge95" class="edge">
<title>Node1&#45;&gt;Node39</title>
<path fill="none" stroke="#191970" d="M1941.2404,-321.8184C2021.3976,-311.3256 2150.6617,-293.3326 2261.5,-273 2268.6222,-271.6935 2276.0982,-270.1986 2283.4572,-268.6542"/>
<polygon fill="#191970" stroke="#191970" points="2284.3301,-272.0467 2293.3756,-266.5305 2282.8644,-265.2019 2284.3301,-272.0467"/>
</g>
<!-- Node40 -->
<g id="node40" class="node">
<title>Node40</title>
<polygon fill="none" stroke="#bfbfbf" points="2420.5,-246.5 2420.5,-266.5 2552.5,-266.5 2552.5,-246.5 2420.5,-246.5"/>
<text text-anchor="middle" x="2486.5" y="-253.5" font-family="FreeSans" font-size="10.00" fill="#000000">phpythia8/PHPythia8.h</text>
</g>
<!-- Node1&#45;&gt;Node40 -->
<g id="edge96" class="edge">
<title>Node1&#45;&gt;Node40</title>
<path fill="none" stroke="#191970" d="M1941.4065,-325.9584C2047.5936,-317.6974 2244.8896,-300.1519 2411.5,-273 2419.0025,-271.7773 2426.8833,-270.2809 2434.6018,-268.6932"/>
<polygon fill="#191970" stroke="#191970" points="2435.5544,-272.069 2444.6096,-266.5688 2434.1008,-265.2216 2435.5544,-272.069"/>
</g>
<!-- Node41 -->
<g id="node41" class="node">
<title>Node41</title>
<polygon fill="none" stroke="#bfbfbf" points="2571,-246.5 2571,-266.5 2730,-266.5 2730,-246.5 2571,-246.5"/>
<text text-anchor="middle" x="2650.5" y="-253.5" font-family="FreeSans" font-size="10.00" fill="#000000">phpythia8/PHPy8JetTrigger.h</text>
</g>
<!-- Node1&#45;&gt;Node41 -->
<g id="edge97" class="edge">
<title>Node1&#45;&gt;Node41</title>
<path fill="none" stroke="#191970" d="M1941.0918,-327.5725C2069.7053,-320.4182 2337.0444,-303.1495 2561.5,-273 2571.0943,-271.7113 2581.2247,-270.0873 2591.0775,-268.3642"/>
<polygon fill="#191970" stroke="#191970" points="2591.9878,-271.7567 2601.2106,-266.5424 2590.7491,-264.8672 2591.9878,-271.7567"/>
</g>
<!-- Node42 -->
<g id="node42" class="node">
<title>Node42</title>
<polygon fill="none" stroke="#bfbfbf" points="2748.5,-246.5 2748.5,-266.5 2826.5,-266.5 2826.5,-246.5 2748.5,-246.5"/>
<text text-anchor="middle" x="2787.5" y="-253.5" font-family="FreeSans" font-size="10.00" fill="#000000">DisplayOn.C</text>
</g>
<!-- Node1&#45;&gt;Node42 -->
<g id="edge98" class="edge">
<title>Node1&#45;&gt;Node42</title>
<path fill="none" stroke="#191970" d="M1941.324,-328.9668C2125.4392,-322.4761 2587.8284,-303.576 2739.5,-273 2743.8947,-272.1141 2748.4383,-270.9286 2752.8982,-269.5977"/>
<polygon fill="#191970" stroke="#191970" points="2754.0004,-272.9198 2762.4374,-266.5114 2751.8455,-266.2597 2754.0004,-272.9198"/>
</g>
<!-- Node43 -->
<g id="node43" class="node">
<title>Node43</title>
<g id="a_node43"><a xlink:href="../../d0/daa/G4Setup__sPHENIX_8C.html" target="_top" xlink:title="G4Setup_sPHENIX.C">
<polygon fill="none" stroke="#ff0000" points="1600.5,-246.5 1600.5,-266.5 1718.5,-266.5 1718.5,-246.5 1600.5,-246.5"/>
<text text-anchor="middle" x="1659.5" y="-253.5" font-family="FreeSans" font-size="10.00" fill="#000000">G4Setup_sPHENIX.C</text>
</a>
</g>
</g>
<!-- Node1&#45;&gt;Node43 -->
<g id="edge99" class="edge">
<title>Node1&#45;&gt;Node43</title>
<path fill="none" stroke="#191970" d="M1804.102,-309.4032C1769.2978,-296.6699 1726.6551,-281.0689 1696.7265,-270.1195"/>
<polygon fill="#191970" stroke="#191970" points="1697.6878,-266.7443 1687.094,-266.5954 1695.2827,-273.3182 1697.6878,-266.7443"/>
</g>
<!-- Node44 -->
<g id="node44" class="node">
<title>Node44</title>
<g id="a_node44"><a xlink:href="../../dd/de1/G4__Bbc_8C.html" target="_top" xlink:title="G4_Bbc.C">
<polygon fill="none" stroke="#ff0000" points="3440,-246.5 3440,-266.5 3505,-266.5 3505,-246.5 3440,-246.5"/>
<text text-anchor="middle" x="3472.5" y="-253.5" font-family="FreeSans" font-size="10.00" fill="#000000">G4_Bbc.C</text>
</a>
</g>
</g>
<!-- Node1&#45;&gt;Node44 -->
<g id="edge104" class="edge">
<title>Node1&#45;&gt;Node44</title>
<path fill="none" stroke="#191970" d="M1941.2306,-329.9739C2235.0151,-323.946 3279.2067,-300.7621 3425.5,-273 3429.7057,-272.2019 3434.0422,-271.0955 3438.3016,-269.8299"/>
<polygon fill="#191970" stroke="#191970" points="3439.5857,-273.0925 3448.0029,-266.6581 3437.4103,-266.4391 3439.5857,-273.0925"/>
</g>
<!-- Node45 -->
<g id="node45" class="node">
<title>Node45</title>
<g id="a_node45"><a xlink:href="../../d6/d0d/G4__CaloTrigger_8C.html" target="_top" xlink:title="G4_CaloTrigger.C">
<polygon fill="none" stroke="#ff0000" points="3051.5,-246.5 3051.5,-266.5 3153.5,-266.5 3153.5,-246.5 3051.5,-246.5"/>
<text text-anchor="middle" x="3102.5" y="-253.5" font-family="FreeSans" font-size="10.00" fill="#000000">G4_CaloTrigger.C</text>
</a>
</g>
</g>
<!-- Node1&#45;&gt;Node45 -->
<g id="edge106" class="edge">
<title>Node1&#45;&gt;Node45</title>
<path fill="none" stroke="#191970" d="M1941.2,-329.9283C2167.5352,-324.9365 2830.0899,-307.6888 3043.5,-273 3049.4184,-272.038 3055.5914,-270.6995 3061.6197,-269.197"/>
<polygon fill="#191970" stroke="#191970" points="3062.7951,-272.5061 3071.5581,-266.5512 3060.9942,-265.7417 3062.7951,-272.5061"/>
</g>
<!-- Node46 -->
<g id="node46" class="node">
<title>Node46</title>
<g id="a_node46"><a xlink:href="../../d1/d05/G4__DSTReader_8C.html" target="_top" xlink:title="Convert DST to human command readable TTree for quick poke around the outputs.">
<polygon fill="none" stroke="#ff0000" points="3523,-246.5 3523,-266.5 3624,-266.5 3624,-246.5 3523,-246.5"/>
<text text-anchor="middle" x="3573.5" y="-253.5" font-family="FreeSans" font-size="10.00" fill="#000000">G4_DSTReader.C</text>
</a>
</g>
</g>
<!-- Node1&#45;&gt;Node46 -->
<g id="edge108" class="edge">
<title>Node1&#45;&gt;Node46</title>
<path fill="none" stroke="#191970" d="M1941.3918,-331.1903C2224.0852,-329.6756 3205.4109,-321.0008 3514.5,-273 3520.4924,-272.0694 3526.7421,-270.7349 3532.8374,-269.2225"/>
<polygon fill="#191970" stroke="#191970" points="3534.1139,-272.5046 3542.8766,-266.5493 3532.3127,-265.7403 3534.1139,-272.5046"/>
</g>
<!-- Node47 -->
<g id="node47" class="node">
<title>Node47</title>
<g id="a_node47"><a xlink:href="../../d0/d09/G4__Global_8C.html" target="_top" xlink:title="G4_Global.C">
<polygon fill="none" stroke="#ff0000" points="2844.5,-246.5 2844.5,-266.5 2922.5,-266.5 2922.5,-246.5 2844.5,-246.5"/>
<text text-anchor="middle" x="2883.5" y="-253.5" font-family="FreeSans" font-size="10.00" fill="#000000">G4_Global.C</text>
</a>
</g>
</g>
<!-- Node1&#45;&gt;Node47 -->
<g id="edge111" class="edge">
<title>Node1&#45;&gt;Node47</title>
<path fill="none" stroke="#191970" d="M1941.2651,-329.5565C2139.4667,-324.1095 2664.7661,-306.8343 2835.5,-273 2839.8976,-272.1285 2844.443,-270.9518 2848.9038,-269.6255"/>
<polygon fill="#191970" stroke="#191970" points="2850.0039,-272.9483 2858.4439,-266.5438 2847.8521,-266.2872 2850.0039,-272.9483"/>
</g>
<!-- Node48 -->
<g id="node48" class="node">
<title>Node48</title>
<g id="a_node48"><a xlink:href="../../d4/d40/G4__HIJetReco_8C.html" target="_top" xlink:title="G4_HIJetReco.C">
<polygon fill="none" stroke="#ff0000" points="2941,-246.5 2941,-266.5 3034,-266.5 3034,-246.5 2941,-246.5"/>
<text text-anchor="middle" x="2987.5" y="-253.5" font-family="FreeSans" font-size="10.00" fill="#000000">G4_HIJetReco.C</text>
</a>
</g>
</g>
<!-- Node1&#45;&gt;Node48 -->
<g id="edge113" class="edge">
<title>Node1&#45;&gt;Node48</title>
<path fill="none" stroke="#191970" d="M1941.0055,-329.6078C2152.2885,-324.0155 2740.7892,-305.8651 2931.5,-273 2936.9935,-272.0533 2942.7114,-270.7518 2948.3036,-269.2916"/>
<polygon fill="#191970" stroke="#191970" points="2949.4713,-272.5994 2958.1584,-266.5343 2947.5851,-265.8583 2949.4713,-272.5994"/>
</g>
<!-- Node49 -->
<g id="node49" class="node">
<title>Node49</title>
<g id="a_node49"><a xlink:href="../../d5/d1a/G4__Jets_8C.html" target="_top" xlink:title="G4_Jets.C">
<polygon fill="none" stroke="#ff0000" points="3171.5,-246.5 3171.5,-266.5 3235.5,-266.5 3235.5,-246.5 3171.5,-246.5"/>
<text text-anchor="middle" x="3203.5" y="-253.5" font-family="FreeSans" font-size="10.00" fill="#000000">G4_Jets.C</text>
</a>
</g>
</g>
<!-- Node1&#45;&gt;Node49 -->
<g id="edge115" class="edge">
<title>Node1&#45;&gt;Node49</title>
<path fill="none" stroke="#191970" d="M1941.3994,-329.5429C2202.211,-322.6968 3043.5319,-298.833 3162.5,-273 3165.9023,-272.2612 3169.3865,-271.266 3172.8168,-270.1284"/>
<polygon fill="#191970" stroke="#191970" points="3174.0681,-273.3973 3182.2284,-266.6402 3171.6354,-266.8336 3174.0681,-273.3973"/>
</g>
<!-- Node50 -->
<g id="node50" class="node">
<title>Node50</title>
<g id="a_node50"><a xlink:href="../../d2/daf/G4__TopoClusterReco_8C.html" target="_top" xlink:title="G4_TopoClusterReco.C">
<polygon fill="none" stroke="#ff0000" points="3254,-246.5 3254,-266.5 3383,-266.5 3383,-246.5 3254,-246.5"/>
<text text-anchor="middle" x="3318.5" y="-253.5" font-family="FreeSans" font-size="10.00" fill="#000000">G4_TopoClusterReco.C</text>
</a>
</g>
</g>
<!-- Node1&#45;&gt;Node50 -->
<g id="edge117" class="edge">
<title>Node1&#45;&gt;Node50</title>
<path fill="none" stroke="#191970" d="M1941.4364,-330.0324C2192.9855,-324.9523 2989.5155,-306.563 3244.5,-273 3252.6645,-271.9253 3261.258,-270.3905 3269.5832,-268.6846"/>
<polygon fill="#191970" stroke="#191970" points="3270.5182,-272.0636 3279.5582,-266.5383 3269.0457,-265.2202 3270.5182,-272.0636"/>
</g>
<!-- Node3&#45;&gt;Node4 -->
<g id="edge3" class="edge">
<title>Node3&#45;&gt;Node4</title>
<path fill="none" stroke="#191970" d="M1509.8662,-177.4478C1459.6408,-166.3842 1378.8978,-148.5981 1325.0351,-136.7333"/>
<polygon fill="#191970" stroke="#191970" points="1325.4901,-133.2496 1314.9712,-134.5164 1323.9842,-140.0857 1325.4901,-133.2496"/>
</g>
<!-- Node6 -->
<g id="node6" class="node">
<title>Node6</title>
<polygon fill="none" stroke="#bfbfbf" points="1556,-.5 1556,-20.5 1601,-20.5 1601,-.5 1556,-.5"/>
<text text-anchor="middle" x="1578.5" y="-7.5" font-family="FreeSans" font-size="10.00" fill="#000000">string</text>
</g>
<!-- Node3&#45;&gt;Node6 -->
<g id="edge13" class="edge">
<title>Node3&#45;&gt;Node6</title>
<path fill="none" stroke="#191970" d="M1549.2633,-177.158C1541.5115,-163.0445 1529.8371,-136.8868 1534.5,-114 1540.8311,-82.9254 1556.8403,-49.6191 1567.6983,-29.4217"/>
<polygon fill="#191970" stroke="#191970" points="1570.7843,-31.0736 1572.5499,-20.6269 1564.655,-27.6925 1570.7843,-31.0736"/>
</g>
<!-- Node12 -->
<g id="node12" class="node">
<title>Node12</title>
<polygon fill="none" stroke="#bfbfbf" points="1944,-57.5 1944,-77.5 1983,-77.5 1983,-57.5 1944,-57.5"/>
<text text-anchor="middle" x="1963.5" y="-64.5" font-family="FreeSans" font-size="10.00" fill="#000000">map</text>
</g>
<!-- Node3&#45;&gt;Node12 -->
<g id="edge12" class="edge">
<title>Node3&#45;&gt;Node12</title>
<path fill="none" stroke="#191970" d="M1571.2231,-177.4803C1596.9865,-161.5305 1650.2614,-130.4893 1699.5,-114 1781.7267,-86.4634 1884.1129,-74.3778 1933.7524,-69.8391"/>
<polygon fill="#191970" stroke="#191970" points="1934.1423,-73.3184 1943.7986,-68.9588 1933.5312,-66.3451 1934.1423,-73.3184"/>
</g>
<!-- Node5 -->
<g id="node5" class="node">
<title>Node5</title>
<g id="a_node5"><a xlink:href="../../d2/de7/Fun4AllBase_8h.html" target="_top" xlink:title="Fun4AllBase.h">
<polygon fill="none" stroke="#ff0000" points="2058,-57.5 2058,-77.5 2145,-77.5 2145,-57.5 2058,-57.5"/>
<text text-anchor="middle" x="2101.5" y="-64.5" font-family="FreeSans" font-size="10.00" fill="#000000">Fun4AllBase.h</text>
</a>
</g>
</g>
<!-- Node4&#45;&gt;Node5 -->
<g id="edge4" class="edge">
<title>Node4&#45;&gt;Node5</title>
<path fill="none" stroke="#191970" d="M1335.8391,-120.9409C1463.2134,-113.9504 1750.8366,-97.4061 1992.5,-78 2010.4797,-76.5562 2030.1044,-74.7403 2047.6849,-73.0265"/>
<polygon fill="#191970" stroke="#191970" points="2048.1633,-76.4964 2057.772,-72.0328 2047.477,-69.5301 2048.1633,-76.4964"/>
</g>
<!-- Node4&#45;&gt;Node6 -->
<g id="edge8" class="edge">
<title>Node4&#45;&gt;Node6</title>
<path fill="none" stroke="#191970" d="M1266.9411,-114.2682C1263.93,-99.5403 1261.0095,-72.443 1275.5,-57 1293.8525,-37.4411 1471.183,-19.8521 1545.7387,-13.2585"/>
<polygon fill="#191970" stroke="#191970" points="1546.304,-16.7225 1555.9619,-12.3665 1545.6955,-9.749 1546.304,-16.7225"/>
</g>
<!-- Node7 -->
<g id="node7" class="node">
<title>Node7</title>
<g id="a_node7"><a xlink:href="../../da/dc1/Fun4AllReturnCodes_8h.html" target="_top" xlink:title="Fun4AllReturnCodes.h">
<polygon fill="none" stroke="#000000" points="1284,-57.5 1284,-77.5 1411,-77.5 1411,-57.5 1284,-57.5"/>
<text text-anchor="middle" x="1347.5" y="-64.5" font-family="FreeSans" font-size="10.00" fill="#000000">Fun4AllReturnCodes.h</text>
</a>
</g>
</g>
<!-- Node4&#45;&gt;Node7 -->
<g id="edge6" class="edge">
<title>Node4&#45;&gt;Node7</title>
<path fill="none" stroke="#191970" d="M1283.4448,-114.3095C1295.0912,-105.7987 1311.9071,-93.5102 1325.3872,-83.6594"/>
<polygon fill="#191970" stroke="#191970" points="1327.667,-86.3283 1333.6759,-77.6022 1323.5369,-80.6766 1327.667,-86.3283"/>
</g>
<!-- Node8 -->
<g id="node8" class="node">
<title>Node8</title>
<polygon fill="none" stroke="#bfbfbf" points="1107.5,-57.5 1107.5,-77.5 1139.5,-77.5 1139.5,-57.5 1107.5,-57.5"/>
<text text-anchor="middle" x="1123.5" y="-64.5" font-family="FreeSans" font-size="10.00" fill="#000000">list</text>
</g>
<!-- Node4&#45;&gt;Node8 -->
<g id="edge7" class="edge">
<title>Node4&#45;&gt;Node8</title>
<path fill="none" stroke="#191970" d="M1242.4945,-114.3936C1219.8319,-105.853 1186.3997,-93.1167 1149.1549,-78.1914"/>
<polygon fill="#191970" stroke="#191970" points="1150.1917,-74.836 1139.608,-74.3509 1147.5792,-81.3302 1150.1917,-74.836"/>
</g>
<!-- Node9 -->
<g id="node9" class="node">
<title>Node9</title>
<polygon fill="none" stroke="#bfbfbf" points="977,-57.5 977,-77.5 1022,-77.5 1022,-57.5 977,-57.5"/>
<text text-anchor="middle" x="999.5" y="-64.5" font-family="FreeSans" font-size="10.00" fill="#000000">utility</text>
</g>
<!-- Node4&#45;&gt;Node9 -->
<g id="edge9" class="edge">
<title>Node4&#45;&gt;Node9</title>
<path fill="none" stroke="#191970" d="M1205.5677,-114.4658C1159.4925,-106.6838 1095.7238,-94.7894 1031.906,-78.1409"/>
<polygon fill="#191970" stroke="#191970" points="1032.6425,-74.7154 1022.0798,-75.5393 1030.8509,-81.4823 1032.6425,-74.7154"/>
</g>
<!-- Node10 -->
<g id="node10" class="node">
<title>Node10</title>
<polygon fill="none" stroke="#bfbfbf" points="1040,-57.5 1040,-77.5 1089,-77.5 1089,-57.5 1040,-57.5"/>
<text text-anchor="middle" x="1064.5" y="-64.5" font-family="FreeSans" font-size="10.00" fill="#000000">vector</text>
</g>
<!-- Node4&#45;&gt;Node10 -->
<g id="edge10" class="edge">
<title>Node4&#45;&gt;Node10</title>
<path fill="none" stroke="#191970" d="M1231.0237,-114.4375C1198.4002,-105.8164 1150.1387,-92.8541 1099.2264,-78.1467"/>
<polygon fill="#191970" stroke="#191970" points="1099.9323,-74.7073 1089.3531,-75.282 1097.9817,-81.43 1099.9323,-74.7073"/>
</g>
<!-- Node11 -->
<g id="node11" class="node">
<title>Node11</title>
<polygon fill="none" stroke="#bfbfbf" points="1157.5,-57.5 1157.5,-77.5 1227.5,-77.5 1227.5,-57.5 1157.5,-57.5"/>
<text text-anchor="middle" x="1192.5" y="-64.5" font-family="FreeSans" font-size="10.00" fill="#000000">type_traits</text>
</g>
<!-- Node4&#45;&gt;Node11 -->
<g id="edge11" class="edge">
<title>Node4&#45;&gt;Node11</title>
<path fill="none" stroke="#191970" d="M1255.7339,-114.3095C1244.2369,-105.7987 1227.6366,-93.5102 1214.3293,-83.6594"/>
<polygon fill="#191970" stroke="#191970" points="1216.2668,-80.7389 1206.1469,-77.6022 1212.1019,-86.3652 1216.2668,-80.7389"/>
</g>
<!-- Node5&#45;&gt;Node6 -->
<g id="edge5" class="edge">
<title>Node5&#45;&gt;Node6</title>
<path fill="none" stroke="#191970" d="M2057.8556,-59.2154C2053.0206,-58.412 2048.1616,-57.654 2043.5,-57 1882.3016,-34.3852 1688.1603,-18.6566 1611.7236,-12.9109"/>
<polygon fill="#191970" stroke="#191970" points="1611.5503,-9.3884 1601.318,-12.136 1611.0304,-16.3691 1611.5503,-9.3884"/>
</g>
<!-- Node13&#45;&gt;Node6 -->
<g id="edge21" class="edge">
<title>Node13&#45;&gt;Node6</title>
<path fill="none" stroke="#191970" d="M1724.9284,-171.4803C1694.8309,-138.3918 1625.9971,-62.7173 1594.6202,-28.2222"/>
<polygon fill="#191970" stroke="#191970" points="1597.1533,-25.8055 1587.8354,-20.7631 1591.9751,-30.5157 1597.1533,-25.8055"/>
</g>
<!-- Node13&#45;&gt;Node14 -->
<g id="edge15" class="edge">
<title>Node13&#45;&gt;Node14</title>
<path fill="none" stroke="#191970" d="M1749.5435,-171.2759C1754.8366,-162.7254 1761.3564,-152.1935 1766.8684,-143.2895"/>
<polygon fill="#191970" stroke="#191970" points="1769.8663,-145.0962 1772.154,-134.7513 1763.9144,-141.4117 1769.8663,-145.0962"/>
</g>
<!-- Node16 -->
<g id="node16" class="node">
<title>Node16</title>
<polygon fill="none" stroke="#bfbfbf" points="1543.5,-114.5 1543.5,-134.5 1575.5,-134.5 1575.5,-114.5 1543.5,-114.5"/>
<text text-anchor="middle" x="1559.5" y="-121.5" font-family="FreeSans" font-size="10.00" fill="#000000">set</text>
</g>
<!-- Node13&#45;&gt;Node16 -->
<g id="edge20" class="edge">
<title>Node13&#45;&gt;Node16</title>
<path fill="none" stroke="#191970" d="M1693.6127,-171.4394C1659.289,-159.4261 1613.5928,-143.4325 1585.3815,-133.5585"/>
<polygon fill="#191970" stroke="#191970" points="1586.4272,-130.2164 1575.8324,-130.2163 1584.1147,-136.8234 1586.4272,-130.2164"/>
</g>
<!-- Node14&#45;&gt;Node5 -->
<g id="edge16" class="edge">
<title>Node14&#45;&gt;Node5</title>
<path fill="none" stroke="#191970" d="M1835.5024,-114.4408C1895.4705,-103.8582 1989.1254,-87.3308 2047.8143,-76.974"/>
<polygon fill="#191970" stroke="#191970" points="2048.753,-80.3625 2057.9925,-75.1778 2047.5364,-73.469 2048.753,-80.3625"/>
</g>
<!-- Node14&#45;&gt;Node6 -->
<g id="edge18" class="edge">
<title>Node14&#45;&gt;Node6</title>
<path fill="none" stroke="#191970" d="M1760.7513,-114.3833C1725.4665,-94.2709 1646.3455,-49.1719 1604.9247,-25.5621"/>
<polygon fill="#191970" stroke="#191970" points="1606.6299,-22.5054 1596.2089,-20.5941 1603.1634,-28.5869 1606.6299,-22.5054"/>
</g>
<!-- Node14&#45;&gt;Node10 -->
<g id="edge19" class="edge">
<title>Node14&#45;&gt;Node10</title>
<path fill="none" stroke="#191970" d="M1707.8786,-119.8858C1548.5423,-109.4488 1170.0637,-84.5001 1099.5547,-77.1731"/>
<polygon fill="#191970" stroke="#191970" points="1099.5782,-73.6479 1089.2164,-75.8575 1098.6946,-80.5919 1099.5782,-73.6479"/>
</g>
<!-- Node15 -->
<g id="node15" class="node">
<title>Node15</title>
<polygon fill="none" stroke="#bfbfbf" points="1751.5,-57.5 1751.5,-77.5 1805.5,-77.5 1805.5,-57.5 1751.5,-57.5"/>
<text text-anchor="middle" x="1778.5" y="-64.5" font-family="FreeSans" font-size="10.00" fill="#000000">cstddef</text>
</g>
<!-- Node14&#45;&gt;Node15 -->
<g id="edge17" class="edge">
<title>Node14&#45;&gt;Node15</title>
<path fill="none" stroke="#191970" d="M1778.5,-114.3095C1778.5,-106.9335 1778.5,-96.72 1778.5,-87.715"/>
<polygon fill="#191970" stroke="#191970" points="1782.0001,-87.6022 1778.5,-77.6022 1775.0001,-87.6023 1782.0001,-87.6022"/>
</g>
<!-- Node17&#45;&gt;Node4 -->
<g id="edge23" class="edge">
<title>Node17&#45;&gt;Node4</title>
<path fill="none" stroke="#191970" d="M1283.607,-171.2759C1281.1369,-163.0854 1278.1184,-153.0769 1275.5084,-144.4226"/>
<polygon fill="#191970" stroke="#191970" points="1278.8301,-143.3147 1272.5917,-134.7513 1272.1282,-145.336 1278.8301,-143.3147"/>
</g>
<!-- Node17&#45;&gt;Node6 -->
<g id="edge25" class="edge">
<title>Node17&#45;&gt;Node6</title>
<path fill="none" stroke="#191970" d="M1310.9545,-171.2866C1325.1968,-160.9635 1343.9855,-147.2724 1360.5,-135 1406.5898,-100.7493 1413.5592,-85.3425 1463.5,-57 1490.0492,-41.9327 1522.4558,-29.2946 1546.0932,-21.015"/>
<polygon fill="#191970" stroke="#191970" points="1547.3206,-24.2943 1555.6441,-17.7391 1545.0494,-17.673 1547.3206,-24.2943"/>
</g>
<!-- Node17&#45;&gt;Node7 -->
<g id="edge24" class="edge">
<title>Node17&#45;&gt;Node7</title>
<path fill="none" stroke="#191970" d="M1313.1739,-171.3212C1324.8837,-162.1802 1337.7628,-149.6503 1344.5,-135 1351.3063,-120.1995 1351.6109,-101.5927 1350.4649,-87.6649"/>
<polygon fill="#191970" stroke="#191970" points="1353.935,-87.2026 1349.3313,-77.6603 1346.9795,-87.9908 1353.935,-87.2026"/>
</g>
<!-- Node18&#45;&gt;Node3 -->
<g id="edge28" class="edge">
<title>Node18&#45;&gt;Node3</title>
<path fill="none" stroke="#191970" d="M1431.8413,-240.4966C1459.188,-228.7766 1495.9691,-213.0133 1522.2944,-201.731"/>
<polygon fill="#191970" stroke="#191970" points="1524.0177,-204.8004 1531.8304,-197.6441 1521.2602,-198.3664 1524.0177,-204.8004"/>
</g>
<!-- Node18&#45;&gt;Node6 -->
<g id="edge30" class="edge">
<title>Node18&#45;&gt;Node6</title>
<path fill="none" stroke="#191970" d="M1405.0873,-240.2042C1416.4805,-222.834 1435.2879,-194.6337 1452.5,-171 1490.3414,-119.0406 1501.7105,-107.4832 1541.5,-57 1548.8761,-47.6416 1557.128,-37.2623 1563.9639,-28.6883"/>
<polygon fill="#191970" stroke="#191970" points="1566.7407,-30.82 1570.2431,-20.8207 1561.2695,-26.4534 1566.7407,-30.82"/>
</g>
<!-- Node18&#45;&gt;Node7 -->
<g id="edge29" class="edge">
<title>Node18&#45;&gt;Node7</title>
<path fill="none" stroke="#191970" d="M1391.4296,-240.3552C1388.0736,-223.111 1382.3856,-195.015 1376.5,-171 1369.3131,-141.6753 1359.6267,-108.0753 1353.4711,-87.3178"/>
<polygon fill="#191970" stroke="#191970" points="1356.8213,-86.3044 1350.6059,-77.7242 1350.114,-88.3077 1356.8213,-86.3044"/>
</g>
<!-- Node19&#45;&gt;Node5 -->
<g id="edge33" class="edge">
<title>Node19&#45;&gt;Node5</title>
<path fill="none" stroke="#191970" d="M2600.8396,-185.3487C2520.1278,-181.2557 2380.7998,-169.3878 2266.5,-135 2246.1334,-128.8726 2243.0123,-122.4627 2223.5,-114 2195.9016,-102.0303 2164.1299,-89.974 2139.9291,-81.1378"/>
<polygon fill="#191970" stroke="#191970" points="2140.9822,-77.7967 2130.388,-77.6776 2138.5956,-84.3773 2140.9822,-77.7967"/>
</g>
<!-- Node19&#45;&gt;Node6 -->
<g id="edge43" class="edge">
<title>Node19&#45;&gt;Node6</title>
<path fill="none" stroke="#191970" d="M2666.9276,-177.1466C2665.6564,-162.091 2661.5747,-133.7957 2648.5,-114 2625.6205,-79.3592 2613.4762,-71.2937 2574.5,-57 2482.4544,-23.2441 1773.3319,-12.8171 1611.3674,-10.8645"/>
<polygon fill="#191970" stroke="#191970" points="1611.1244,-7.3615 1601.0838,-10.7431 1611.0417,-14.361 1611.1244,-7.3615"/>
</g>
<!-- Node19&#45;&gt;Node9 -->
<g id="edge44" class="edge">
<title>Node19&#45;&gt;Node9</title>
<path fill="none" stroke="#191970" d="M2600.797,-183.9705C2531.6903,-180.3891 2420.5564,-174.8402 2324.5,-171 2073.462,-160.9637 1441.5641,-180.6083 1194.5,-135 1134.833,-123.9854 1068.7654,-98.0007 1030.882,-81.6749"/>
<polygon fill="#191970" stroke="#191970" points="1031.991,-78.3401 1021.4259,-77.5471 1029.1906,-84.7555 1031.991,-78.3401"/>
</g>
<!-- Node19&#45;&gt;Node10 -->
<g id="edge45" class="edge">
<title>Node19&#45;&gt;Node10</title>
<path fill="none" stroke="#191970" d="M2600.7533,-184.1124C2389.0915,-173.3395 1744.1588,-140.2672 1699.5,-135 1647.9013,-128.9143 1636.036,-120.5951 1584.5,-114 1372.9122,-86.923 1313.1283,-117.2645 1099.194,-77.7144"/>
<polygon fill="#191970" stroke="#191970" points="1099.6938,-74.2472 1089.2195,-75.8408 1098.4015,-81.1268 1099.6938,-74.2472"/>
</g>
<!-- Node19&#45;&gt;Node12 -->
<g id="edge42" class="edge">
<title>Node19&#45;&gt;Node12</title>
<path fill="none" stroke="#191970" d="M2600.8876,-183.2746C2494.5256,-175.9168 2291.4097,-159.1914 2223.5,-135 2207.1235,-129.1662 2206.6159,-120.5191 2190.5,-114 2154.9133,-99.6048 2046.2228,-80.8289 1993.2071,-72.2049"/>
<polygon fill="#191970" stroke="#191970" points="1993.5145,-68.7093 1983.0846,-70.5717 1992.3995,-75.6199 1993.5145,-68.7093"/>
</g>
<!-- Node20 -->
<g id="node20" class="node">
<title>Node20</title>
<g id="a_node20"><a xlink:href="../../d0/d59/Fun4AllHistoManager_8h.html" target="_top" xlink:title="Fun4AllHistoManager.h">
<polygon fill="none" stroke="#000000" points="2275.5,-114.5 2275.5,-134.5 2407.5,-134.5 2407.5,-114.5 2275.5,-114.5"/>
<text text-anchor="middle" x="2341.5" y="-121.5" font-family="FreeSans" font-size="10.00" fill="#000000">Fun4AllHistoManager.h</text>
</a>
</g>
</g>
<!-- Node19&#45;&gt;Node20 -->
<g id="edge34" class="edge">
<title>Node19&#45;&gt;Node20</title>
<path fill="none" stroke="#191970" d="M2615.4839,-177.4478C2557.7578,-166.2922 2464.6651,-148.3018 2403.277,-136.4385"/>
<polygon fill="#191970" stroke="#191970" points="2403.8133,-132.9775 2393.3309,-134.5164 2402.4851,-139.8503 2403.8133,-132.9775"/>
</g>
<!-- Node21 -->
<g id="node21" class="node">
<title>Node21</title>
<g id="a_node21"><a xlink:href="../../dc/d26/PHTimer_8h.html" target="_top" xlink:title="high precision timer">
<polygon fill="none" stroke="#ff0000" points="2540,-114.5 2540,-134.5 2639,-134.5 2639,-114.5 2540,-114.5"/>
<text text-anchor="middle" x="2589.5" y="-121.5" font-family="FreeSans" font-size="10.00" fill="#000000">phool/PHTimer.h</text>
</a>
</g>
</g>
<!-- Node19&#45;&gt;Node21 -->
<g id="edge38" class="edge">
<title>Node19&#45;&gt;Node21</title>
<path fill="none" stroke="#191970" d="M2654.968,-177.378C2642.8003,-167.5503 2624.1246,-152.4661 2609.8293,-140.9198"/>
<polygon fill="#191970" stroke="#191970" points="2611.9796,-138.1575 2602.0009,-134.5969 2607.5812,-143.6031 2611.9796,-138.1575"/>
</g>
<!-- Node22 -->
<g id="node22" class="node">
<title>Node22</title>
<polygon fill="none" stroke="#bfbfbf" points="2481.5,-57.5 2481.5,-77.5 2541.5,-77.5 2541.5,-57.5 2481.5,-57.5"/>
<text text-anchor="middle" x="2511.5" y="-64.5" font-family="FreeSans" font-size="10.00" fill="#000000">iostream</text>
</g>
<!-- Node19&#45;&gt;Node22 -->
<g id="edge41" class="edge">
<title>Node19&#45;&gt;Node22</title>
<path fill="none" stroke="#191970" d="M2609.5456,-177.4093C2582.4882,-169.9268 2551.8383,-157.0419 2531.5,-135 2519.6113,-122.1155 2514.7664,-102.4786 2512.8042,-87.7009"/>
<polygon fill="#191970" stroke="#191970" points="2516.2665,-87.1458 2511.7968,-77.5399 2509.3006,-87.8365 2516.2665,-87.1458"/>
</g>
<!-- Node20&#45;&gt;Node5 -->
<g id="edge35" class="edge">
<title>Node20&#45;&gt;Node5</title>
<path fill="none" stroke="#191970" d="M2299.1453,-114.4408C2258.5709,-104.8043 2197.242,-90.2387 2153.6739,-79.8913"/>
<polygon fill="#191970" stroke="#191970" points="2154.3724,-76.4599 2143.8343,-77.5544 2152.7549,-83.2705 2154.3724,-76.4599"/>
</g>
<!-- Node20&#45;&gt;Node6 -->
<g id="edge37" class="edge">
<title>Node20&#45;&gt;Node6</title>
<path fill="none" stroke="#191970" d="M2321.8534,-114.4989C2290.6799,-99.1527 2227.5624,-70.1908 2170.5,-57 2062.7074,-32.0822 1719.5406,-16.2612 1611.4402,-11.7984"/>
<polygon fill="#191970" stroke="#191970" points="1611.2877,-8.2894 1601.1534,-11.3789 1611.0024,-15.2836 1611.2877,-8.2894"/>
</g>
<!-- Node20&#45;&gt;Node12 -->
<g id="edge36" class="edge">
<title>Node20&#45;&gt;Node12</title>
<path fill="none" stroke="#191970" d="M2275.2249,-114.5061C2192.3315,-102.0063 2053.9487,-81.1391 1993.4003,-72.0088"/>
<polygon fill="#191970" stroke="#191970" points="1993.7748,-68.5258 1983.3647,-70.4955 1992.731,-75.4475 1993.7748,-68.5258"/>
</g>
<!-- Node21&#45;&gt;Node6 -->
<g id="edge40" class="edge">
<title>Node21&#45;&gt;Node6</title>
<path fill="none" stroke="#191970" d="M2586.9541,-114.3085C2582.4907,-98.8436 2571.6493,-69.8894 2550.5,-57 2509.5627,-32.0507 1776.8704,-14.7839 1611.4839,-11.1938"/>
<polygon fill="#191970" stroke="#191970" points="1611.4971,-7.6934 1601.424,-10.9772 1611.3463,-14.6917 1611.4971,-7.6934"/>
</g>
<!-- Node21&#45;&gt;Node22 -->
<g id="edge39" class="edge">
<title>Node21&#45;&gt;Node22</title>
<path fill="none" stroke="#191970" d="M2575.5552,-114.3095C2563.9088,-105.7987 2547.0929,-93.5102 2533.6128,-83.6594"/>
<polygon fill="#191970" stroke="#191970" points="2535.4631,-80.6766 2525.3241,-77.6022 2531.333,-86.3283 2535.4631,-80.6766"/>
</g>
<!-- Node23&#45;&gt;Node5 -->
<g id="edge47" class="edge">
<title>Node23&#45;&gt;Node5</title>
<path fill="none" stroke="#191970" d="M2116.282,-114.3095C2113.9271,-106.8524 2110.6564,-96.4951 2107.7901,-87.4186"/>
<polygon fill="#191970" stroke="#191970" points="2111.0391,-86.0841 2104.6902,-77.6022 2104.364,-88.192 2111.0391,-86.0841"/>
</g>
<!-- Node23&#45;&gt;Node6 -->
<g id="edge48" class="edge">
<title>Node23&#45;&gt;Node6</title>
<path fill="none" stroke="#191970" d="M2131.7048,-114.3294C2147.2876,-100.1576 2170.4322,-74.2703 2154.5,-57 2135.9487,-36.8907 1730.6906,-17.2849 1611.3089,-11.9291"/>
<polygon fill="#191970" stroke="#191970" points="1611.4452,-8.4318 1601.2994,-11.4835 1611.1338,-15.4248 1611.4452,-8.4318"/>
</g>
<!-- Node24&#45;&gt;Node6 -->
<g id="edge56" class="edge">
<title>Node24&#45;&gt;Node6</title>
<path fill="none" stroke="#191970" d="M1821.1849,-240.1996C1832.7226,-217.4288 1852.3634,-174.4477 1858.5,-135 1864.6181,-95.671 1848.3492,-77.9387 1814.5,-57 1780.8857,-36.2066 1667.9414,-20.7389 1611.3685,-14.0904"/>
<polygon fill="#191970" stroke="#191970" points="1611.5039,-10.5829 1601.1691,-12.9157 1610.7029,-17.5369 1611.5039,-10.5829"/>
</g>
<!-- Node24&#45;&gt;Node12 -->
<g id="edge55" class="edge">
<title>Node24&#45;&gt;Node12</title>
<path fill="none" stroke="#191970" d="M1874.8887,-240.4372C1894.8663,-232.4704 1915.4302,-220.8213 1929.5,-204 1957.5802,-170.4285 1963.0077,-116.9668 1963.7373,-87.9149"/>
<polygon fill="#191970" stroke="#191970" points="1967.2386,-87.7682 1963.8215,-77.7396 1960.2388,-87.7102 1967.2386,-87.7682"/>
</g>
<!-- Node25 -->
<g id="node25" class="node">
<title>Node25</title>
<g id="a_node25"><a xlink:href="../../df/d1c/PHG4Subsystem_8h.html" target="_top" xlink:title="g4main/PHG4Subsystem.h">
<polygon fill="none" stroke="#000000" points="2164,-177.5 2164,-197.5 2315,-197.5 2315,-177.5 2164,-177.5"/>
<text text-anchor="middle" x="2239.5" y="-184.5" font-family="FreeSans" font-size="10.00" fill="#000000">g4main/PHG4Subsystem.h</text>
</a>
</g>
</g>
<!-- Node24&#45;&gt;Node25 -->
<g id="edge50" class="edge">
<title>Node24&#45;&gt;Node25</title>
<path fill="none" stroke="#191970" d="M1888.7074,-245.6798C1958.1082,-235.6175 2063.3568,-219.8355 2154.5,-204 2162.6967,-202.5759 2171.322,-200.9963 2179.8074,-199.3952"/>
<polygon fill="#191970" stroke="#191970" points="2180.5034,-202.8256 2189.6704,-197.5136 2179.1916,-195.9496 2180.5034,-202.8256"/>
</g>
<!-- Node25&#45;&gt;Node6 -->
<g id="edge54" class="edge">
<title>Node25&#45;&gt;Node6</title>
<path fill="none" stroke="#191970" d="M2188.1359,-177.4243C2139.6126,-167.1939 2071.0079,-150.6705 2048.5,-135 2013.4764,-110.6159 2029.3214,-78.5737 1992.5,-57 1959.8223,-37.8541 1703.4713,-18.9094 1611.3375,-12.6536"/>
<polygon fill="#191970" stroke="#191970" points="1611.4024,-9.1502 1601.19,-11.971 1610.9325,-16.1344 1611.4024,-9.1502"/>
</g>
<!-- Node25&#45;&gt;Node7 -->
<g id="edge51" class="edge">
<title>Node25&#45;&gt;Node7</title>
<path fill="none" stroke="#191970" d="M2187.8101,-177.4533C2176.8153,-175.3199 2165.2741,-173.0831 2154.5,-171 2022.9634,-145.5684 1991.1525,-132.7604 1858.5,-114 1703.6684,-92.1029 1520.9107,-78.372 1421.3227,-71.9038"/>
<polygon fill="#191970" stroke="#191970" points="1421.2711,-68.3933 1411.067,-71.2443 1420.8218,-75.3789 1421.2711,-68.3933"/>
</g>
<!-- Node25&#45;&gt;Node22 -->
<g id="edge53" class="edge">
<title>Node25&#45;&gt;Node22</title>
<path fill="none" stroke="#191970" d="M2315.4738,-179.3557C2357.2911,-172.2953 2408.7993,-159.1991 2449.5,-135 2470.0798,-122.7641 2487.8865,-101.5926 2499.0703,-86.2168"/>
<polygon fill="#191970" stroke="#191970" points="2501.9933,-88.1443 2504.8607,-77.9448 2496.2587,-84.13 2501.9933,-88.1443"/>
</g>
<!-- Node25&#45;&gt;Node23 -->
<g id="edge52" class="edge">
<title>Node25&#45;&gt;Node23</title>
<path fill="none" stroke="#191970" d="M2220.2199,-177.378C2200.6258,-167.091 2170.0616,-151.0448 2147.7386,-139.3253"/>
<polygon fill="#191970" stroke="#191970" points="2149.2132,-136.1464 2138.7322,-134.5969 2145.9593,-142.3442 2149.2132,-136.1464"/>
</g>
<!-- Node26&#45;&gt;Node6 -->
<g id="edge60" class="edge">
<title>Node26&#45;&gt;Node6</title>
<path fill="none" stroke="#191970" d="M2117.4371,-177.4505C2129.9192,-175.2293 2143.1594,-172.9569 2155.5,-171 2213.3266,-161.8303 2378.0318,-179.1384 2416.5,-135 2422.6322,-127.9639 2422.118,-121.4531 2416.5,-114 2361.1217,-40.5327 2308.083,-73.0908 2217.5,-57 2099.0726,-35.963 1724.6788,-17.283 1611.3325,-11.992"/>
<polygon fill="#191970" stroke="#191970" points="1611.3471,-8.489 1601.1958,-11.5221 1611.0229,-15.4815 1611.3471,-8.489"/>
</g>
<!-- Node26&#45;&gt;Node23 -->
<g id="edge58" class="edge">
<title>Node26&#45;&gt;Node23</title>
<path fill="none" stroke="#191970" d="M2072.4974,-177.378C2080.8568,-167.9736 2093.4947,-153.7559 2103.5613,-142.431"/>
<polygon fill="#191970" stroke="#191970" points="2106.3112,-144.6056 2110.3389,-134.8062 2101.0793,-139.955 2106.3112,-144.6056"/>
</g>
<!-- Node27 -->
<g id="node27" class="node">
<title>Node27</title>
<polygon fill="none" stroke="#bfbfbf" points="619.5,-57.5 619.5,-77.5 699.5,-77.5 699.5,-57.5 619.5,-57.5"/>
<text text-anchor="middle" x="659.5" y="-64.5" font-family="FreeSans" font-size="10.00" fill="#000000">gsl/gsl_rng.h</text>
</g>
<!-- Node26&#45;&gt;Node27 -->
<g id="edge59" class="edge">
<title>Node26&#45;&gt;Node27</title>
<path fill="none" stroke="#191970" d="M1981.4112,-181.5941C1934.3291,-178.2899 1874.1058,-174.2041 1820.5,-171 1510.8619,-152.4924 1430.1538,-181.709 1123.5,-135 1086.3084,-129.335 1078.4723,-120.9542 1041.5,-114 923.6933,-91.8414 783.3718,-77.9015 709.9668,-71.5447"/>
<polygon fill="#191970" stroke="#191970" points="709.8944,-68.0258 699.6327,-70.6617 709.2984,-75.0004 709.8944,-68.0258"/>
</g>
<!-- Node28&#45;&gt;Node6 -->
<g id="edge67" class="edge">
<title>Node28&#45;&gt;Node6</title>
<path fill="none" stroke="#191970" d="M256.6294,-246.0458C277.6902,-211.2777 351.0817,-99.3426 446.5,-57 498.0073,-34.1432 1364.6248,-14.9417 1545.556,-11.171"/>
<polygon fill="#191970" stroke="#191970" points="1545.8478,-14.6658 1555.7732,-10.9593 1545.7028,-7.6673 1545.8478,-14.6658"/>
</g>
<!-- Node28&#45;&gt;Node29 -->
<g id="edge62" class="edge">
<title>Node28&#45;&gt;Node29</title>
<path fill="none" stroke="#191970" d="M292.8139,-246.4668C344.8605,-234.1259 433.1995,-213.1795 489.3785,-199.8587"/>
<polygon fill="#191970" stroke="#191970" points="490.2124,-203.2581 499.135,-197.5453 488.5973,-196.447 490.2124,-203.2581"/>
</g>
<!-- Node29&#45;&gt;Node6 -->
<g id="edge65" class="edge">
<title>Node29&#45;&gt;Node6</title>
<path fill="none" stroke="#191970" d="M535.3775,-177.3489C521.5277,-152.9478 491.4016,-90.5443 523.5,-57 559.6985,-19.1709 1371.5544,-11.8273 1545.77,-10.6852"/>
<polygon fill="#191970" stroke="#191970" points="1545.8836,-14.1847 1555.8612,-10.6214 1545.8392,-7.1848 1545.8836,-14.1847"/>
</g>
<!-- Node29&#45;&gt;Node10 -->
<g id="edge66" class="edge">
<title>Node29&#45;&gt;Node10</title>
<path fill="none" stroke="#191970" d="M592.8727,-177.431C680.5804,-159.9279 864.8906,-121.7875 1029.8476,-78.0282"/>
<polygon fill="#191970" stroke="#191970" points="1030.9207,-81.3644 1039.6816,-75.4065 1029.1174,-74.6006 1030.9207,-81.3644"/>
</g>
<!-- Node29&#45;&gt;Node23 -->
<g id="edge63" class="edge">
<title>Node29&#45;&gt;Node23</title>
<path fill="none" stroke="#191970" d="M625.3548,-183.968C705.8982,-180.5887 831.0123,-175.3737 939.5,-171 1347.9259,-154.5343 1450.0641,-151.2155 1858.5,-135 1922.222,-132.4701 1994.6933,-129.5513 2047.0736,-127.4342"/>
<polygon fill="#191970" stroke="#191970" points="2047.4228,-130.9231 2057.2732,-127.0218 2047.14,-123.9288 2047.4228,-130.9231"/>
</g>
<!-- Node29&#45;&gt;Node27 -->
<g id="edge64" class="edge">
<title>Node29&#45;&gt;Node27</title>
<path fill="none" stroke="#191970" d="M548.3061,-177.3588C558.4878,-162.5675 578.7205,-134.5983 599.5,-114 610.6875,-102.91 624.5085,-92.0387 636.0647,-83.5996"/>
<polygon fill="#191970" stroke="#191970" points="638.2788,-86.3192 644.3792,-77.6569 634.2084,-80.6243 638.2788,-86.3192"/>
</g>
<!-- Node30&#45;&gt;Node6 -->
<g id="edge72" class="edge">
<title>Node30&#45;&gt;Node6</title>
<path fill="none" stroke="#191970" d="M569.9983,-245.421C519.8239,-237.0728 463.8285,-223.6552 448.5,-204 410.3527,-155.0851 446.4113,-96.3494 508.5,-57 553.3522,-28.5745 1370.3628,-13.85 1545.5871,-11.0115"/>
<polygon fill="#191970" stroke="#191970" points="1545.7936,-14.5088 1555.7362,-10.8489 1545.6814,-7.5097 1545.7936,-14.5088"/>
</g>
<!-- Node30&#45;&gt;Node12 -->
<g id="edge71" class="edge">
<title>Node30&#45;&gt;Node12</title>
<path fill="none" stroke="#191970" d="M745.0664,-240.9426C747.9074,-240.6 750.7242,-240.284 753.5,-240 871.5068,-227.925 1711.1459,-249.9684 1820.5,-204 1879.8535,-179.05 1929.0078,-117.3686 1951.0391,-86.186"/>
<polygon fill="#191970" stroke="#191970" points="1954.1905,-87.7814 1956.9869,-77.5623 1948.4281,-83.8071 1954.1905,-87.7814"/>
</g>
<!-- Node30&#45;&gt;Node29 -->
<g id="edge70" class="edge">
<title>Node30&#45;&gt;Node29</title>
<path fill="none" stroke="#191970" d="M630.5957,-240.4966C611.5001,-229.138 586.0198,-213.9816 567.2003,-202.7872"/>
<polygon fill="#191970" stroke="#191970" points="568.9377,-199.7483 558.5539,-197.6441 565.3591,-205.7645 568.9377,-199.7483"/>
</g>
<!-- Node31&#45;&gt;Node6 -->
<g id="edge75" class="edge">
<title>Node31&#45;&gt;Node6</title>
<path fill="none" stroke="#191970" d="M435.009,-246.4646C433.5233,-235.9201 431.3451,-218.8377 430.5,-204 426.5918,-135.3831 417.4697,-88.6047 478.5,-57 527.0493,-31.8586 1367.6705,-14.5105 1545.5883,-11.1108"/>
<polygon fill="#191970" stroke="#191970" points="1545.7182,-14.609 1555.65,-10.9199 1545.5854,-7.6103 1545.7182,-14.609"/>
</g>
<!-- Node31&#45;&gt;Node29 -->
<g id="edge74" class="edge">
<title>Node31&#45;&gt;Node29</title>
<path fill="none" stroke="#191970" d="M451.9931,-246.3188C469.2085,-235.0058 497.2256,-216.5946 517.3301,-203.3831"/>
<polygon fill="#191970" stroke="#191970" points="519.5084,-206.1398 525.9433,-197.723 515.6641,-200.2898 519.5084,-206.1398"/>
</g>
<!-- Node32&#45;&gt;Node6 -->
<g id="edge78" class="edge">
<title>Node32&#45;&gt;Node6</title>
<path fill="none" stroke="#191970" d="M814.9161,-246.4386C757.3279,-232.3639 667.4579,-200.7425 624.5,-135 605.2342,-105.5157 586.2001,-82.4952 610.5,-57 643.4757,-22.4022 1380.7597,-12.5863 1545.886,-10.8184"/>
<polygon fill="#191970" stroke="#191970" points="1545.9588,-14.318 1555.9216,-10.7134 1545.8855,-7.3183 1545.9588,-14.318"/>
</g>
<!-- Node32&#45;&gt;Node9 -->
<g id="edge79" class="edge">
<title>Node32&#45;&gt;Node9</title>
<path fill="none" stroke="#191970" d="M870.43,-246.1804C877.9064,-221.2336 899.6714,-156.5774 935.5,-114 945.8179,-101.7386 960.0255,-90.9945 972.4337,-82.9317"/>
<polygon fill="#191970" stroke="#191970" points="974.4328,-85.81 981.0694,-77.5513 970.7311,-79.8688 974.4328,-85.81"/>
</g>
<!-- Node32&#45;&gt;Node10 -->
<g id="edge80" class="edge">
<title>Node32&#45;&gt;Node10</title>
<path fill="none" stroke="#191970" d="M875.641,-246.1685C883.8479,-235.672 896.7972,-218.8856 907.5,-204 935.709,-164.7665 931.9524,-145.6115 968.5,-114 986.593,-98.3506 1010.8697,-86.6548 1030.4829,-78.9073"/>
<polygon fill="#191970" stroke="#191970" points="1031.8569,-82.1296 1039.9722,-75.3185 1029.3807,-75.5822 1031.8569,-82.1296"/>
</g>
<!-- Node32&#45;&gt;Node29 -->
<g id="edge77" class="edge">
<title>Node32&#45;&gt;Node29</title>
<path fill="none" stroke="#191970" d="M820.0968,-246.4668C761.5488,-234.0748 662.0061,-213.0059 599.1105,-199.6936"/>
<polygon fill="#191970" stroke="#191970" points="599.4684,-196.1919 588.9604,-197.5453 598.0189,-203.0402 599.4684,-196.1919"/>
</g>
<!-- Node33&#45;&gt;Node4 -->
<g id="edge84" class="edge">
<title>Node33&#45;&gt;Node4</title>
<path fill="none" stroke="#191970" d="M1092.9183,-171.4394C1132.9073,-160.8095 1184.6201,-147.063 1221.7333,-137.1975"/>
<polygon fill="#191970" stroke="#191970" points="1223.0269,-140.4752 1231.7922,-134.5236 1221.2286,-133.7102 1223.0269,-140.4752"/>
</g>
<!-- Node33&#45;&gt;Node6 -->
<g id="edge87" class="edge">
<title>Node33&#45;&gt;Node6</title>
<path fill="none" stroke="#191970" d="M1003.1968,-171.4875C990.0611,-162.6118 975.8864,-150.2649 968.5,-135 953.3991,-103.792 943.9335,-82.4282 967.5,-57 987.3281,-35.6055 1421.7802,-16.7344 1545.7471,-11.7704"/>
<polygon fill="#191970" stroke="#191970" points="1545.924,-15.2662 1555.7772,-11.3721 1545.6462,-8.2717 1545.924,-15.2662"/>
</g>
<!-- Node33&#45;&gt;Node7 -->
<g id="edge85" class="edge">
<title>Node33&#45;&gt;Node7</title>
<path fill="none" stroke="#191970" d="M1064.5541,-171.449C1096.8629,-155.6315 1148.4057,-131.3758 1194.5,-114 1229.159,-100.9349 1269.2485,-88.8579 1299.6945,-80.2878"/>
<polygon fill="#191970" stroke="#191970" points="1300.9348,-83.5756 1309.6281,-77.5195 1299.0556,-76.8326 1300.9348,-83.5756"/>
</g>
<!-- Node33&#45;&gt;Node9 -->
<g id="edge88" class="edge">
<title>Node33&#45;&gt;Node9</title>
<path fill="none" stroke="#191970" d="M1038.7486,-171.477C1043.7207,-156.2138 1048.7478,-132.8373 1041.5,-114 1037.178,-102.7668 1028.7467,-92.5577 1020.5655,-84.5857"/>
<polygon fill="#191970" stroke="#191970" points="1022.6983,-81.795 1012.9405,-77.6676 1017.9947,-86.9792 1022.6983,-81.795"/>
</g>
<!-- Node34 -->
<g id="node34" class="node">
<title>Node34</title>
<g id="a_node34"><a xlink:href="../../de/d81/PHHepMCGenHelper_8h.html" target="_top" xlink:title="PHHepMCGenHelper.h">
<polygon fill="none" stroke="#000000" points="641.5,-114.5 641.5,-134.5 769.5,-134.5 769.5,-114.5 641.5,-114.5"/>
<text text-anchor="middle" x="705.5" y="-121.5" font-family="FreeSans" font-size="10.00" fill="#000000">PHHepMCGenHelper.h</text>
</a>
</g>
</g>
<!-- Node33&#45;&gt;Node34 -->
<g id="edge82" class="edge">
<title>Node33&#45;&gt;Node34</title>
<path fill="none" stroke="#191970" d="M949.138,-171.4394C892.5486,-160.5369 818.9432,-146.356 767.5073,-136.4464"/>
<polygon fill="#191970" stroke="#191970" points="768.0089,-132.9787 757.5273,-134.5236 766.6845,-139.8523 768.0089,-132.9787"/>
</g>
<!-- Node35 -->
<g id="node35" class="node">
<title>Node35</title>
<polygon fill="none" stroke="#bfbfbf" points="978,-114.5 978,-134.5 1033,-134.5 1033,-114.5 978,-114.5"/>
<text text-anchor="middle" x="1005.5" y="-121.5" font-family="FreeSans" font-size="10.00" fill="#000000">fstream</text>
</g>
<!-- Node33&#45;&gt;Node35 -->
<g id="edge86" class="edge">
<title>Node33&#45;&gt;Node35</title>
<path fill="none" stroke="#191970" d="M1025.5468,-171.2759C1021.998,-162.9954 1017.6529,-152.8567 1013.9162,-144.1378"/>
<polygon fill="#191970" stroke="#191970" points="1017.0497,-142.564 1009.8934,-134.7513 1010.6156,-145.3215 1017.0497,-142.564"/>
</g>
<!-- Node34&#45;&gt;Node27 -->
<g id="edge83" class="edge">
<title>Node34&#45;&gt;Node27</title>
<path fill="none" stroke="#191970" d="M697.2761,-114.3095C690.8656,-106.3661 681.7994,-95.1319 674.1556,-85.6602"/>
<polygon fill="#191970" stroke="#191970" points="676.6566,-83.1862 667.6527,-77.6022 671.2092,-87.5823 676.6566,-83.1862"/>
</g>
<!-- Node36&#45;&gt;Node6 -->
<g id="edge91" class="edge">
<title>Node36&#45;&gt;Node6</title>
<path fill="none" stroke="#191970" d="M1015.1143,-240.4971C983.1948,-230.6879 948.7336,-217.4622 939.5,-204 918.1272,-172.8394 894.794,-111.983 951.5,-57 973.0347,-36.1196 1419.9759,-16.8094 1545.7984,-11.7712"/>
<polygon fill="#191970" stroke="#191970" points="1546.11,-15.2617 1555.9631,-11.3674 1545.832,-8.2672 1546.11,-15.2617"/>
</g>
<!-- Node36&#45;&gt;Node27 -->
<g id="edge92" class="edge">
<title>Node36&#45;&gt;Node27</title>
<path fill="none" stroke="#191970" d="M997.2836,-240.4546C876.1283,-214.8156 654.6378,-164.5021 632.5,-135 621.3548,-120.1472 631.9378,-100.072 642.9555,-85.6828"/>
<polygon fill="#191970" stroke="#191970" points="645.6701,-87.8921 649.3318,-77.9501 640.2694,-83.4387 645.6701,-87.8921"/>
</g>
<!-- Node36&#45;&gt;Node33 -->
<g id="edge90" class="edge">
<title>Node36&#45;&gt;Node33</title>
<path fill="none" stroke="#191970" d="M1065.5269,-240.4966C1060.3377,-232.1698 1053.8767,-221.8022 1048.0489,-212.4506"/>
<polygon fill="#191970" stroke="#191970" points="1050.977,-210.5315 1042.7177,-203.8958 1045.0362,-214.2338 1050.977,-210.5315"/>
</g>
<!-- Node43&#45;&gt;Node4 -->
<g id="edge101" class="edge">
<title>Node43&#45;&gt;Node4</title>
<path fill="none" stroke="#191970" d="M1600.0468,-250.7315C1477.3866,-238.6928 1207.0993,-211.3972 1200.5,-204 1190.7361,-193.0557 1193.6118,-183.9485 1200.5,-171 1207.8314,-157.2185 1221.268,-146.7863 1234.3494,-139.3315"/>
<polygon fill="#191970" stroke="#191970" points="1236.0471,-142.3932 1243.2695,-134.6415 1232.7895,-136.1973 1236.0471,-142.3932"/>
</g>
<!-- Node43&#45;&gt;Node13 -->
<g id="edge102" class="edge">
<title>Node43&#45;&gt;Node13</title>
<path fill="none" stroke="#191970" d="M1671.3043,-246.3188C1682.2041,-236.9177 1698.7872,-222.6148 1712.8712,-210.4673"/>
<polygon fill="#191970" stroke="#191970" points="1715.5264,-212.7992 1720.813,-203.6175 1710.9545,-207.4985 1715.5264,-212.7992"/>
</g>
<!-- Node43&#45;&gt;Node19 -->
<g id="edge100" class="edge">
<title>Node43&#45;&gt;Node19</title>
<path fill="none" stroke="#191970" d="M1695.6082,-246.4445C1705.8425,-243.9484 1717.045,-241.5472 1727.5,-240 1769.9016,-233.7252 2374.109,-202.476 2590.8328,-191.4001"/>
<polygon fill="#191970" stroke="#191970" points="2591.0479,-194.8938 2600.8563,-190.8882 2590.6908,-187.9029 2591.0479,-194.8938"/>
</g>
<!-- Node43&#45;&gt;Node26 -->
<g id="edge103" class="edge">
<title>Node43&#45;&gt;Node26</title>
<path fill="none" stroke="#191970" d="M1698.5713,-246.4315C1708.0089,-244.1626 1718.0877,-241.8739 1727.5,-240 1811.906,-223.1955 1909.1277,-208.5065 1977.2045,-198.9723"/>
<polygon fill="#191970" stroke="#191970" points="1978.0308,-202.3911 1987.4525,-197.5451 1977.0653,-195.458 1978.0308,-202.3911"/>
</g>
<!-- Node44&#45;&gt;Node19 -->
<g id="edge105" class="edge">
<title>Node44&#45;&gt;Node19</title>
<path fill="none" stroke="#191970" d="M3447.9726,-246.4947C3440.8362,-243.9672 3432.9533,-241.5372 3425.5,-240 3296.8996,-213.4777 2909.9067,-196.4563 2744.1783,-190.1985"/>
<polygon fill="#191970" stroke="#191970" points="2744.1881,-186.6965 2734.064,-189.8196 2743.926,-193.6916 2744.1881,-186.6965"/>
</g>
<!-- Node45&#45;&gt;Node19 -->
<g id="edge107" class="edge">
<title>Node45&#45;&gt;Node19</title>
<path fill="none" stroke="#191970" d="M3069.6149,-246.4632C3061.1593,-244.1146 3052.0377,-241.7815 3043.5,-240 2940.8424,-218.579 2820.5511,-203.5053 2744.1991,-195.1635"/>
<polygon fill="#191970" stroke="#191970" points="2744.5046,-191.6762 2734.1862,-194.0807 2743.7519,-198.6357 2744.5046,-191.6762"/>
</g>
<!-- Node46&#45;&gt;Node6 -->
<g id="edge110" class="edge">
<title>Node46&#45;&gt;Node6</title>
<path fill="none" stroke="#191970" d="M3539.2927,-246.4765C3531.194,-244.2305 3522.566,-241.9406 3514.5,-240 3115.5221,-144.0081 3016.7981,-107.0605 2609.5,-57 2409.3468,-32.3994 1764.0636,-15.1095 1611.193,-11.2937"/>
<polygon fill="#191970" stroke="#191970" points="1611.1338,-7.7913 1601.0501,-11.0424 1610.9603,-14.7891 1611.1338,-7.7913"/>
</g>
<!-- Node46&#45;&gt;Node19 -->
<g id="edge109" class="edge">
<title>Node46&#45;&gt;Node19</title>
<path fill="none" stroke="#191970" d="M3542.2401,-246.4363C3533.3609,-243.9401 3523.6242,-241.5409 3514.5,-240 3367.5393,-215.1816 2923.8276,-196.8003 2744.2154,-190.1831"/>
<polygon fill="#191970" stroke="#191970" points="2744.1793,-186.6795 2734.0579,-189.8111 2743.923,-193.6749 2744.1793,-186.6795"/>
</g>
<!-- Node47&#45;&gt;Node19 -->
<g id="edge112" class="edge">
<title>Node47&#45;&gt;Node19</title>
<path fill="none" stroke="#191970" d="M2854.6084,-246.421C2848.3206,-244.2688 2841.696,-242.0326 2835.5,-240 2793.0854,-226.0858 2744.3734,-210.9565 2710.3618,-200.5294"/>
<polygon fill="#191970" stroke="#191970" points="2711.3261,-197.1644 2700.7396,-197.5848 2709.2776,-203.858 2711.3261,-197.1644"/>
</g>
<!-- Node48&#45;&gt;Node19 -->
<g id="edge114" class="edge">
<title>Node48&#45;&gt;Node19</title>
<path fill="none" stroke="#191970" d="M2955.3573,-246.4895C2947.584,-244.2184 2939.2748,-241.9143 2931.5,-240 2865.5328,-223.7575 2789.3497,-209.0316 2735.8283,-199.3381"/>
<polygon fill="#191970" stroke="#191970" points="2736.2332,-195.8548 2725.7713,-197.5275 2734.9929,-202.744 2736.2332,-195.8548"/>
</g>
<!-- Node49&#45;&gt;Node19 -->
<g id="edge116" class="edge">
<title>Node49&#45;&gt;Node19</title>
<path fill="none" stroke="#191970" d="M3181.743,-246.4453C3175.631,-243.9805 3168.903,-241.595 3162.5,-240 3085.2958,-220.768 2863.0646,-202.0412 2744.3754,-193.0424"/>
<polygon fill="#191970" stroke="#191970" points="2744.5024,-189.5422 2734.2676,-192.2806 2743.9762,-196.5224 2744.5024,-189.5422"/>
</g>
<!-- Node50&#45;&gt;Node19 -->
<g id="edge118" class="edge">
<title>Node50&#45;&gt;Node19</title>
<path fill="none" stroke="#191970" d="M3277.9672,-246.4762C3267.1464,-244.0711 3255.424,-241.7076 3244.5,-240 3066.4528,-212.1684 2855.0175,-197.579 2744.1276,-191.3282"/>
<polygon fill="#191970" stroke="#191970" points="2744.2192,-187.8279 2734.0401,-190.767 2743.8303,-194.8171 2744.2192,-187.8279"/>
</g>
</g>
</svg>
