<?xml version="1.0" encoding="UTF-8" standalone="no"?>
<!DOCTYPE svg PUBLIC "-//W3C//DTD SVG 1.1//EN"
 "http://www.w3.org/Graphics/SVG/1.1/DTD/svg11.dtd">
<!-- Generated by graphviz version 2.40.1 (20161225.0304)
 -->
<!-- Title: CEMC_Cells Pages: 1 -->
<svg width="706pt" height="531pt"
 viewBox="0.00 0.00 706.00 531.00" xmlns="http://www.w3.org/2000/svg" xmlns:xlink="http://www.w3.org/1999/xlink">
<g id="graph0" class="graph" transform="scale(1 1) rotate(0) translate(4 527)">
<title>CEMC_Cells</title>
<!-- Node1 -->
<g id="node1" class="node">
<title>Node1</title>
<polygon fill="#bfbfbf" stroke="#000000" points="0,-238.5 0,-258.5 74,-258.5 74,-238.5 0,-238.5"/>
<text text-anchor="middle" x="37" y="-245.5" font-family="FreeSans" font-size="10.00" fill="#000000">CEMC_Cells</text>
</g>
<!-- Node2 -->
<g id="node2" class="node">
<title>Node2</title>
<g id="a_node2"><a xlink:href="../../d5/dd0/classPHG4CylinderCellReco.html#a8e774e299dece3ffe63a748793c87cc1" target="_top" xlink:title="PHG4CylinderCellReco\l::cellsize">
<polygon fill="none" stroke="#000000" points="139.5,-417.5 139.5,-449.5 268.5,-449.5 268.5,-417.5 139.5,-417.5"/>
<text text-anchor="start" x="147.5" y="-436.5" font-family="FreeSans" font-size="10.00" fill="#000000">PHG4CylinderCellReco</text>
<text text-anchor="middle" x="204" y="-424.5" font-family="FreeSans" font-size="10.00" fill="#000000">::cellsize</text>
</a>
</g>
</g>
<!-- Node1&#45;&gt;Node2 -->
<g id="edge1" class="edge">
<title>Node1&#45;&gt;Node2</title>
<path fill="none" stroke="#191970" d="M38.5486,-258.5353C43.4433,-286.738 61.2489,-367.325 110,-408.5 115.7651,-413.3692 122.3819,-417.3003 129.3772,-420.4723"/>
<polygon fill="#191970" stroke="#191970" points="128.521,-423.8985 139.1065,-424.3442 131.1094,-417.3946 128.521,-423.8985"/>
</g>
<!-- Node8 -->
<g id="node8" class="node">
<title>Node8</title>
<g id="a_node8"><a xlink:href="../../d5/dd0/classPHG4CylinderCellReco.html#ad32fbd4bece7778ffed95cb84b0fe180" target="_top" xlink:title="PHG4CylinderCellReco\l::Detector">
<polygon fill="none" stroke="#000000" points="139.5,-366.5 139.5,-398.5 268.5,-398.5 268.5,-366.5 139.5,-366.5"/>
<text text-anchor="start" x="147.5" y="-385.5" font-family="FreeSans" font-size="10.00" fill="#000000">PHG4CylinderCellReco</text>
<text text-anchor="middle" x="204" y="-373.5" font-family="FreeSans" font-size="10.00" fill="#000000">::Detector</text>
</a>
</g>
</g>
<!-- Node1&#45;&gt;Node8 -->
<g id="edge7" class="edge">
<title>Node1&#45;&gt;Node8</title>
<path fill="none" stroke="#191970" d="M40.8929,-258.7132C49.704,-280.4176 73.3059,-331.2866 110,-357.5 115.9514,-361.7516 122.5798,-365.2801 129.4857,-368.2086"/>
<polygon fill="#191970" stroke="#191970" points="128.4462,-371.5578 139.0372,-371.8416 130.9348,-365.0151 128.4462,-371.5578"/>
</g>
<!-- Node10 -->
<g id="node10" class="node">
<title>Node10</title>
<g id="a_node10"><a xlink:href="../../dc/d20/classPHG4FullProjSpacalCellReco.html#ab3a26a5e45e02d5d2c4b050ca445b9fc" target="_top" xlink:title="PHG4FullProjSpacalCellReco\l::Detector">
<polygon fill="none" stroke="#000000" points="125,-315.5 125,-347.5 283,-347.5 283,-315.5 125,-315.5"/>
<text text-anchor="start" x="133" y="-334.5" font-family="FreeSans" font-size="10.00" fill="#000000">PHG4FullProjSpacalCellReco</text>
<text text-anchor="middle" x="204" y="-322.5" font-family="FreeSans" font-size="10.00" fill="#000000">::Detector</text>
</a>
</g>
</g>
<!-- Node1&#45;&gt;Node10 -->
<g id="edge9" class="edge">
<title>Node1&#45;&gt;Node10</title>
<path fill="none" stroke="#191970" d="M48.6803,-258.5227C62.5281,-269.9861 86.6786,-288.6901 110,-300.5 118.4197,-304.7637 127.5533,-308.6249 136.7068,-312.0598"/>
<polygon fill="#191970" stroke="#191970" points="135.6295,-315.3918 146.2239,-315.4842 137.9995,-308.8052 135.6295,-315.3918"/>
</g>
<!-- Node11 -->
<g id="node11" class="node">
<title>Node11</title>
<g id="a_node11"><a xlink:href="../../df/de8/cemc_8C.html#adf5c804dfce7a70e36dda02995fad481" target="_top" xlink:title="exit">
<polygon fill="none" stroke="#000000" points="404.5,-297.5 404.5,-317.5 439.5,-317.5 439.5,-297.5 404.5,-297.5"/>
<text text-anchor="middle" x="422" y="-304.5" font-family="FreeSans" font-size="10.00" fill="#000000">exit</text>
</a>
</g>
</g>
<!-- Node1&#45;&gt;Node11 -->
<g id="edge10" class="edge">
<title>Node1&#45;&gt;Node11</title>
<path fill="none" stroke="#191970" d="M66.1796,-258.5694C79.4177,-262.8057 95.3569,-267.4497 110,-270.5 213.6292,-292.0873 339.4355,-302.2078 394.2455,-305.8414"/>
<polygon fill="#191970" stroke="#191970" points="394.0294,-309.3346 404.2332,-306.4831 394.4782,-302.349 394.0294,-309.3346"/>
</g>
<!-- Node12 -->
<g id="node12" class="node">
<title>Node12</title>
<g id="a_node12"><a xlink:href="../../dc/d20/classPHG4FullProjSpacalCellReco.html#a4b85f5fc4b697dbf3e97ef9e183c9156" target="_top" xlink:title="PHG4FullProjSpacalCellReco\l::get_light_collection_model">
<polygon fill="none" stroke="#000000" points="125,-148.5 125,-180.5 283,-180.5 283,-148.5 125,-148.5"/>
<text text-anchor="start" x="133" y="-167.5" font-family="FreeSans" font-size="10.00" fill="#000000">PHG4FullProjSpacalCellReco</text>
<text text-anchor="middle" x="204" y="-155.5" font-family="FreeSans" font-size="10.00" fill="#000000">::get_light_collection_model</text>
</a>
</g>
</g>
<!-- Node1&#45;&gt;Node12 -->
<g id="edge11" class="edge">
<title>Node1&#45;&gt;Node12</title>
<path fill="none" stroke="#191970" d="M46.9445,-238.3908C60.1941,-225.4761 84.8968,-203.2712 110,-190.5 114.5062,-188.2075 119.2401,-186.096 124.0871,-184.1546"/>
<polygon fill="#191970" stroke="#191970" points="125.3774,-187.4089 133.5178,-180.6278 122.9254,-180.8524 125.3774,-187.4089"/>
</g>
<!-- Node13 -->
<g id="node13" class="node">
<title>Node13</title>
<g id="a_node13"><a xlink:href="../../da/d29/classFun4AllServer.html#a3e55156f91b2c94bb6c4ef33ffce587a" target="_top" xlink:title="Fun4AllServer::instance">
<polygon fill="none" stroke="#000000" points="354,-258.5 354,-278.5 490,-278.5 490,-258.5 354,-258.5"/>
<text text-anchor="middle" x="422" y="-265.5" font-family="FreeSans" font-size="10.00" fill="#000000">Fun4AllServer::instance</text>
</a>
</g>
</g>
<!-- Node1&#45;&gt;Node13 -->
<g id="edge12" class="edge">
<title>Node1&#45;&gt;Node13</title>
<path fill="none" stroke="#191970" d="M74.2652,-250.4359C136.2204,-253.6543 261.6988,-260.1727 343.7611,-264.4356"/>
<polygon fill="#191970" stroke="#191970" points="343.6269,-267.9333 353.795,-264.9569 343.9901,-260.9427 343.6269,-267.9333"/>
</g>
<!-- Node14 -->
<g id="node14" class="node">
<title>Node14</title>
<g id="a_node14"><a xlink:href="../../d3/dd2/classPHG4FullProjSpacalCellReco_1_1LightCollectionModel.html#a636bd9ec09362dbd849498bcaaade5c7" target="_top" xlink:title="input data file">
<polygon fill="none" stroke="#000000" points="125,-85.5 125,-129.5 283,-129.5 283,-85.5 125,-85.5"/>
<text text-anchor="start" x="133" y="-116.5" font-family="FreeSans" font-size="10.00" fill="#000000">PHG4FullProjSpacalCellReco</text>
<text text-anchor="start" x="133" y="-104.5" font-family="FreeSans" font-size="10.00" fill="#000000">::LightCollectionModel::</text>
<text text-anchor="middle" x="204" y="-92.5" font-family="FreeSans" font-size="10.00" fill="#000000">load_data_file</text>
</a>
</g>
</g>
<!-- Node1&#45;&gt;Node14 -->
<g id="edge13" class="edge">
<title>Node1&#45;&gt;Node14</title>
<path fill="none" stroke="#191970" d="M41.0337,-238.4771C50.1185,-217.1422 74.2206,-166.9489 110,-139.5 112.0944,-137.8932 114.2746,-136.3642 116.5228,-134.9093"/>
<polygon fill="#191970" stroke="#191970" points="118.6318,-137.7304 125.4938,-129.658 115.0955,-131.6893 118.6318,-137.7304"/>
</g>
<!-- Node15 -->
<g id="node15" class="node">
<title>Node15</title>
<g id="a_node15"><a xlink:href="../../da/d29/classFun4AllServer.html#a0a9947db0ede1e55622001eb7515f8c0" target="_top" xlink:title="Fun4AllServer::registerSubsystem">
<polygon fill="none" stroke="#000000" points="110,-199.5 110,-219.5 298,-219.5 298,-199.5 110,-199.5"/>
<text text-anchor="middle" x="204" y="-206.5" font-family="FreeSans" font-size="10.00" fill="#000000">Fun4AllServer::registerSubsystem</text>
</a>
</g>
</g>
<!-- Node1&#45;&gt;Node15 -->
<g id="edge14" class="edge">
<title>Node1&#45;&gt;Node15</title>
<path fill="none" stroke="#191970" d="M74.0627,-239.8446C96.7977,-234.5353 126.2671,-227.6532 151.3924,-221.7856"/>
<polygon fill="#191970" stroke="#191970" points="152.2005,-225.1912 161.1425,-219.5086 150.6085,-218.3746 152.2005,-225.1912"/>
</g>
<!-- Node24 -->
<g id="node24" class="node">
<title>Node24</title>
<g id="a_node24"><a xlink:href="../../d5/dec/classFun4AllBase.html#a05da2261577843028cf78e99171343b9" target="_top" xlink:title="Sets the verbosity of this module (0 by default=quiet).">
<polygon fill="none" stroke="#000000" points="138,-46.5 138,-66.5 270,-66.5 270,-46.5 138,-46.5"/>
<text text-anchor="middle" x="204" y="-53.5" font-family="FreeSans" font-size="10.00" fill="#000000">Fun4AllBase::Verbosity</text>
</a>
</g>
</g>
<!-- Node1&#45;&gt;Node24 -->
<g id="edge29" class="edge">
<title>Node1&#45;&gt;Node24</title>
<path fill="none" stroke="#191970" d="M38.0786,-238.4609C41.8425,-208.6544 57.1901,-120.0441 110,-76.5 115.3624,-72.0784 121.4686,-68.5663 127.9345,-65.7846"/>
<polygon fill="#191970" stroke="#191970" points="129.4502,-68.9561 137.6205,-62.2111 127.0271,-62.3888 129.4502,-68.9561"/>
</g>
<!-- Node3 -->
<g id="node3" class="node">
<title>Node3</title>
<g id="a_node3"><a xlink:href="../../da/d11/classPHParameterContainerInterface.html#a2a28e69d116516f52e2848a9a6a6f50a" target="_top" xlink:title="PHParameterContainerInterface\l::set_double_param">
<polygon fill="none" stroke="#000000" points="334,-417.5 334,-449.5 510,-449.5 510,-417.5 334,-417.5"/>
<text text-anchor="start" x="342" y="-436.5" font-family="FreeSans" font-size="10.00" fill="#000000">PHParameterContainerInterface</text>
<text text-anchor="middle" x="422" y="-424.5" font-family="FreeSans" font-size="10.00" fill="#000000">::set_double_param</text>
</a>
</g>
</g>
<!-- Node2&#45;&gt;Node3 -->
<g id="edge2" class="edge">
<title>Node2&#45;&gt;Node3</title>
<path fill="none" stroke="#191970" d="M268.5224,-433.5C285.8697,-433.5 305.0312,-433.5 323.7645,-433.5"/>
<polygon fill="#191970" stroke="#191970" points="323.8104,-437.0001 333.8104,-433.5 323.8103,-430.0001 323.8104,-437.0001"/>
</g>
<!-- Node4 -->
<g id="node4" class="node">
<title>Node4</title>
<g id="a_node4"><a xlink:href="../../dd/dae/classPHParameters.html#a5dc8e713d09897d2654015b008364d18" target="_top" xlink:title="PHParameters::exist\l_double_param">
<polygon fill="none" stroke="#000000" points="562.5,-439.5 562.5,-471.5 681.5,-471.5 681.5,-439.5 562.5,-439.5"/>
<text text-anchor="start" x="570.5" y="-458.5" font-family="FreeSans" font-size="10.00" fill="#000000">PHParameters::exist</text>
<text text-anchor="middle" x="622" y="-446.5" font-family="FreeSans" font-size="10.00" fill="#000000">_double_param</text>
</a>
</g>
</g>
<!-- Node3&#45;&gt;Node4 -->
<g id="edge3" class="edge">
<title>Node3&#45;&gt;Node4</title>
<path fill="none" stroke="#191970" d="M510.014,-443.1815C524.1276,-444.734 538.5643,-446.3221 552.1778,-447.8196"/>
<polygon fill="#191970" stroke="#191970" points="552.0859,-451.3305 562.4086,-448.9449 552.8513,-444.3724 552.0859,-451.3305"/>
</g>
<!-- Node5 -->
<g id="node5" class="node">
<title>Node5</title>
<g id="a_node5"><a xlink:href="../../dd/dae/classPHParameters.html#ad6889e0142f288e487b9918d3beb4571" target="_top" xlink:title="PHParameters::printdouble">
<polygon fill="none" stroke="#000000" points="546,-400.5 546,-420.5 698,-420.5 698,-400.5 546,-400.5"/>
<text text-anchor="middle" x="622" y="-407.5" font-family="FreeSans" font-size="10.00" fill="#000000">PHParameters::printdouble</text>
</a>
</g>
</g>
<!-- Node3&#45;&gt;Node5 -->
<g id="edge4" class="edge">
<title>Node3&#45;&gt;Node5</title>
<path fill="none" stroke="#191970" d="M510.014,-423.3784C518.601,-422.3909 527.3077,-421.3896 535.8758,-420.4043"/>
<polygon fill="#191970" stroke="#191970" points="536.3202,-423.8763 545.8548,-419.2567 535.5204,-416.9222 536.3202,-423.8763"/>
</g>
<!-- Node6 -->
<g id="node6" class="node">
<title>Node6</title>
<g id="a_node6"><a xlink:href="../../d7/d6b/classPHParametersContainer.html#a5f90d78420cb8573142c8a4d1c029799" target="_top" xlink:title="PHParametersContainer\l::Name">
<polygon fill="none" stroke="#000000" points="553.5,-349.5 553.5,-381.5 690.5,-381.5 690.5,-349.5 553.5,-349.5"/>
<text text-anchor="start" x="561.5" y="-368.5" font-family="FreeSans" font-size="10.00" fill="#000000">PHParametersContainer</text>
<text text-anchor="middle" x="622" y="-356.5" font-family="FreeSans" font-size="10.00" fill="#000000">::Name</text>
</a>
</g>
</g>
<!-- Node3&#45;&gt;Node6 -->
<g id="edge5" class="edge">
<title>Node3&#45;&gt;Node6</title>
<path fill="none" stroke="#191970" d="M483.4898,-417.4319C492.4601,-414.6841 501.5242,-411.6805 510,-408.5 526.5663,-402.2835 529.6037,-398.1518 546,-391.5 551.3809,-389.317 557.0221,-387.1563 562.6966,-385.0683"/>
<polygon fill="#191970" stroke="#191970" points="564.0152,-388.3136 572.2376,-381.6321 561.6432,-381.7277 564.0152,-388.3136"/>
</g>
<!-- Node7 -->
<g id="node7" class="node">
<title>Node7</title>
<g id="a_node7"><a xlink:href="../../dd/dae/classPHParameters.html#a75005aa44390e1eb574603b0b230152b" target="_top" xlink:title="PHParameters::set_double\l_param">
<polygon fill="none" stroke="#000000" points="547.5,-490.5 547.5,-522.5 696.5,-522.5 696.5,-490.5 547.5,-490.5"/>
<text text-anchor="start" x="555.5" y="-509.5" font-family="FreeSans" font-size="10.00" fill="#000000">PHParameters::set_double</text>
<text text-anchor="middle" x="622" y="-497.5" font-family="FreeSans" font-size="10.00" fill="#000000">_param</text>
</a>
</g>
</g>
<!-- Node3&#45;&gt;Node7 -->
<g id="edge6" class="edge">
<title>Node3&#45;&gt;Node7</title>
<path fill="none" stroke="#191970" d="M462.0121,-449.5911C486.2092,-459.1713 517.7441,-471.3913 546,-481.5 551.2313,-483.3715 556.6833,-485.2685 562.1593,-487.1374"/>
<polygon fill="#191970" stroke="#191970" points="561.4053,-490.5769 571.9995,-490.4593 563.6443,-483.9446 561.4053,-490.5769"/>
</g>
<!-- Node9 -->
<g id="node9" class="node">
<title>Node9</title>
<g id="a_node9"><a xlink:href="../../d5/dd0/classPHG4CylinderCellReco.html#ae6e7e25400b5b497a1ba7b4311b3522c" target="_top" xlink:title="PHG4CylinderCellReco\l::OutputDetector">
<polygon fill="none" stroke="#000000" points="357.5,-366.5 357.5,-398.5 486.5,-398.5 486.5,-366.5 357.5,-366.5"/>
<text text-anchor="start" x="365.5" y="-385.5" font-family="FreeSans" font-size="10.00" fill="#000000">PHG4CylinderCellReco</text>
<text text-anchor="middle" x="422" y="-373.5" font-family="FreeSans" font-size="10.00" fill="#000000">::OutputDetector</text>
</a>
</g>
</g>
<!-- Node8&#45;&gt;Node9 -->
<g id="edge8" class="edge">
<title>Node8&#45;&gt;Node9</title>
<path fill="none" stroke="#191970" d="M268.5224,-382.5C293.2395,-382.5 321.6398,-382.5 347.2365,-382.5"/>
<polygon fill="#191970" stroke="#191970" points="347.2665,-386.0001 357.2665,-382.5 347.2665,-379.0001 347.2665,-386.0001"/>
</g>
<!-- Node15&#45;&gt;Node11 -->
<g id="edge16" class="edge">
<title>Node15&#45;&gt;Node11</title>
<path fill="none" stroke="#191970" d="M217.2432,-219.6377C239.9042,-236.488 288.1244,-270.2112 334,-288.5 353.3574,-296.217 376.4213,-301.0495 394.0803,-303.9088"/>
<polygon fill="#191970" stroke="#191970" points="393.8868,-307.4189 404.2956,-305.4423 394.926,-300.4964 393.8868,-307.4189"/>
</g>
<!-- Node15&#45;&gt;Node13 -->
<g id="edge15" class="edge">
<title>Node15&#45;&gt;Node13</title>
<path fill="none" stroke="#191970" d="M246.4762,-219.5019C262.7388,-223.6681 281.3705,-228.8529 298,-234.5 314.4128,-240.0735 317.46,-244.3161 334,-249.5 341.7404,-251.9259 349.9591,-254.1492 358.144,-256.1521"/>
<polygon fill="#191970" stroke="#191970" points="357.5413,-259.6057 368.0766,-258.4849 359.1418,-252.7911 357.5413,-259.6057"/>
</g>
<!-- Node16 -->
<g id="node16" class="node">
<title>Node16</title>
<g id="a_node16"><a xlink:href="../../d5/dec/classFun4AllBase.html#a41f9ac377743d046f590617fd6f4f0ed" target="_top" xlink:title="Returns the name of this module.">
<polygon fill="none" stroke="#000000" points="364.5,-219.5 364.5,-239.5 479.5,-239.5 479.5,-219.5 364.5,-219.5"/>
<text text-anchor="middle" x="422" y="-226.5" font-family="FreeSans" font-size="10.00" fill="#000000">Fun4AllBase::Name</text>
</a>
</g>
</g>
<!-- Node15&#45;&gt;Node16 -->
<g id="edge17" class="edge">
<title>Node15&#45;&gt;Node16</title>
<path fill="none" stroke="#191970" d="M298.0334,-218.1269C316.9143,-219.8591 336.4059,-221.6473 354.1839,-223.2783"/>
<polygon fill="#191970" stroke="#191970" points="354.1577,-226.7905 364.4357,-224.2189 354.7973,-219.8198 354.1577,-226.7905"/>
</g>
<!-- Node17 -->
<g id="node17" class="node">
<title>Node17</title>
<g id="a_node17"><a xlink:href="../../da/d29/classFun4AllServer.html#abcaf6825367e5db292ff795237bdcf62" target="_top" xlink:title="Fun4AllServer::topNode">
<polygon fill="none" stroke="#000000" points="354,-180.5 354,-200.5 490,-200.5 490,-180.5 354,-180.5"/>
<text text-anchor="middle" x="422" y="-187.5" font-family="FreeSans" font-size="10.00" fill="#000000">Fun4AllServer::topNode</text>
</a>
</g>
</g>
<!-- Node15&#45;&gt;Node17 -->
<g id="edge18" class="edge">
<title>Node15&#45;&gt;Node17</title>
<path fill="none" stroke="#191970" d="M298.0334,-201.3044C313.2951,-199.9743 328.9559,-198.6094 343.7881,-197.3166"/>
<polygon fill="#191970" stroke="#191970" points="344.2508,-200.7897 353.9091,-196.4345 343.6429,-193.8161 344.2508,-200.7897"/>
</g>
<!-- Node18 -->
<g id="node18" class="node">
<title>Node18</title>
<g id="a_node18"><a xlink:href="../../d7/d96/classFun4AllMemoryTracker.html#a3841cc0bc6c4047da2b4868ba39dbb8c" target="_top" xlink:title="Fun4AllMemoryTracker\l::Start">
<polygon fill="none" stroke="#000000" points="356,-129.5 356,-161.5 488,-161.5 488,-129.5 356,-129.5"/>
<text text-anchor="start" x="364" y="-148.5" font-family="FreeSans" font-size="10.00" fill="#000000">Fun4AllMemoryTracker</text>
<text text-anchor="middle" x="422" y="-136.5" font-family="FreeSans" font-size="10.00" fill="#000000">::Start</text>
</a>
</g>
</g>
<!-- Node15&#45;&gt;Node18 -->
<g id="edge19" class="edge">
<title>Node15&#45;&gt;Node18</title>
<path fill="none" stroke="#191970" d="M266.6263,-199.4506C277.2402,-197.0094 288.0418,-194.051 298,-190.5 315.0407,-184.4235 317.2425,-178.3188 334,-171.5 339.8101,-169.1358 345.9147,-166.8838 352.0858,-164.7654"/>
<polygon fill="#191970" stroke="#191970" points="353.4109,-168.0136 361.8053,-161.5495 351.212,-161.3679 353.4109,-168.0136"/>
</g>
<!-- Node21 -->
<g id="node21" class="node">
<title>Node21</title>
<g id="a_node21"><a xlink:href="../../d5/dec/classFun4AllBase.html#a8a5c77a92bdac6bc043476e132379a40" target="_top" xlink:title="Gets the verbosity of this module.">
<polygon fill="none" stroke="#000000" points="556,-39.5 556,-59.5 688,-59.5 688,-39.5 556,-39.5"/>
<text text-anchor="middle" x="622" y="-46.5" font-family="FreeSans" font-size="10.00" fill="#000000">Fun4AllBase::Verbosity</text>
</a>
</g>
</g>
<!-- Node15&#45;&gt;Node21 -->
<g id="edge28" class="edge">
<title>Node15&#45;&gt;Node21</title>
<path fill="none" stroke="#191970" d="M285.3791,-199.3481C289.9318,-196.9072 294.1943,-193.9865 298,-190.5 339.6854,-152.3113 289.8591,-103.8218 334,-68.5 365.5283,-43.2709 471.5087,-42.2779 545.6994,-45.0042"/>
<polygon fill="#191970" stroke="#191970" points="545.8149,-48.5114 555.946,-45.4114 546.0929,-41.5169 545.8149,-48.5114"/>
</g>
<!-- Node22 -->
<g id="node22" class="node">
<title>Node22</title>
<g id="a_node22"><a xlink:href="../../d0/d32/classSubsysReco.html#a6670c0a093dd2c2bdd44f8fc6f9ba8e8" target="_top" xlink:title="SubsysReco::Init">
<polygon fill="none" stroke="#000000" points="372,-.5 372,-20.5 472,-20.5 472,-.5 372,-.5"/>
<text text-anchor="middle" x="422" y="-7.5" font-family="FreeSans" font-size="10.00" fill="#000000">SubsysReco::Init</text>
</a>
</g>
</g>
<!-- Node15&#45;&gt;Node22 -->
<g id="edge23" class="edge">
<title>Node15&#45;&gt;Node22</title>
<path fill="none" stroke="#191970" d="M286.0541,-199.3598C290.3841,-196.9066 294.4177,-193.9807 298,-190.5 348.7226,-141.2162 285.2211,-86.7084 334,-35.5 341.6321,-27.4877 351.6281,-21.9849 362.1358,-18.2191"/>
<polygon fill="#191970" stroke="#191970" points="363.3452,-21.5091 371.8766,-15.2268 361.2897,-14.8177 363.3452,-21.5091"/>
</g>
<!-- Node23 -->
<g id="node23" class="node">
<title>Node23</title>
<g id="a_node23"><a xlink:href="../../d7/d96/classFun4AllMemoryTracker.html#a766ac66dd36ffa4e3fbe6e622923565f" target="_top" xlink:title="Fun4AllMemoryTracker\l::Stop">
<polygon fill="none" stroke="#000000" points="356,-78.5 356,-110.5 488,-110.5 488,-78.5 356,-78.5"/>
<text text-anchor="start" x="364" y="-97.5" font-family="FreeSans" font-size="10.00" fill="#000000">Fun4AllMemoryTracker</text>
<text text-anchor="middle" x="422" y="-85.5" font-family="FreeSans" font-size="10.00" fill="#000000">::Stop</text>
</a>
</g>
</g>
<!-- Node15&#45;&gt;Node23 -->
<g id="edge24" class="edge">
<title>Node15&#45;&gt;Node23</title>
<path fill="none" stroke="#191970" d="M282.8187,-199.3282C288.2189,-196.9249 293.3526,-194.0155 298,-190.5 325.9009,-169.3945 307.0527,-142.8102 334,-120.5 337.7886,-117.3633 341.9434,-114.6051 346.321,-112.1796"/>
<polygon fill="#191970" stroke="#191970" points="348.1284,-115.1918 355.5733,-107.6536 345.0524,-108.9038 348.1284,-115.1918"/>
</g>
<!-- Node19 -->
<g id="node19" class="node">
<title>Node19</title>
<g id="a_node19"><a xlink:href="../../d7/d96/classFun4AllMemoryTracker.html#aa8eb9ed150f51165b9abfd456c18a432" target="_top" xlink:title="Fun4AllMemoryTracker\l::CreateFullTrackerName">
<polygon fill="none" stroke="#000000" points="552,-129.5 552,-161.5 692,-161.5 692,-129.5 552,-129.5"/>
<text text-anchor="start" x="560" y="-148.5" font-family="FreeSans" font-size="10.00" fill="#000000">Fun4AllMemoryTracker</text>
<text text-anchor="middle" x="622" y="-136.5" font-family="FreeSans" font-size="10.00" fill="#000000">::CreateFullTrackerName</text>
</a>
</g>
</g>
<!-- Node18&#45;&gt;Node19 -->
<g id="edge20" class="edge">
<title>Node18&#45;&gt;Node19</title>
<path fill="none" stroke="#191970" d="M488.0418,-145.5C505.1622,-145.5 523.7894,-145.5 541.5592,-145.5"/>
<polygon fill="#191970" stroke="#191970" points="541.9049,-149.0001 551.9048,-145.5 541.9048,-142.0001 541.9049,-149.0001"/>
</g>
<!-- Node20 -->
<g id="node20" class="node">
<title>Node20</title>
<g id="a_node20"><a xlink:href="../../d7/d96/classFun4AllMemoryTracker.html#a4059a8c86c92e1708e5bbdc585af99ed" target="_top" xlink:title="Fun4AllMemoryTracker\l::GetRSSMemory">
<polygon fill="none" stroke="#000000" points="556,-78.5 556,-110.5 688,-110.5 688,-78.5 556,-78.5"/>
<text text-anchor="start" x="564" y="-97.5" font-family="FreeSans" font-size="10.00" fill="#000000">Fun4AllMemoryTracker</text>
<text text-anchor="middle" x="622" y="-85.5" font-family="FreeSans" font-size="10.00" fill="#000000">::GetRSSMemory</text>
</a>
</g>
</g>
<!-- Node18&#45;&gt;Node20 -->
<g id="edge21" class="edge">
<title>Node18&#45;&gt;Node20</title>
<path fill="none" stroke="#191970" d="M485.0067,-129.4333C505.3689,-124.2409 528.1132,-118.4411 549.1284,-113.0823"/>
<polygon fill="#191970" stroke="#191970" points="550.1414,-116.436 558.9665,-110.5736 548.4117,-109.6531 550.1414,-116.436"/>
</g>
<!-- Node18&#45;&gt;Node21 -->
<g id="edge22" class="edge">
<title>Node18&#45;&gt;Node21</title>
<path fill="none" stroke="#191970" d="M488.241,-132.1482C495.957,-129.0406 503.4124,-125.2131 510,-120.5 532.8607,-104.1442 522.882,-84.4901 546,-68.5 548.5465,-66.7387 551.241,-65.1404 554.0373,-63.69"/>
<polygon fill="#191970" stroke="#191970" points="555.5726,-66.8372 563.2566,-59.5429 552.7009,-60.4534 555.5726,-66.8372"/>
</g>
<!-- Node23&#45;&gt;Node19 -->
<g id="edge25" class="edge">
<title>Node23&#45;&gt;Node19</title>
<path fill="none" stroke="#191970" d="M485.0067,-110.5667C505.3689,-115.7591 528.1132,-121.5589 549.1284,-126.9177"/>
<polygon fill="#191970" stroke="#191970" points="548.4117,-130.3469 558.9665,-129.4264 550.1414,-123.564 548.4117,-130.3469"/>
</g>
<!-- Node23&#45;&gt;Node20 -->
<g id="edge26" class="edge">
<title>Node23&#45;&gt;Node20</title>
<path fill="none" stroke="#191970" d="M488.0418,-94.5C506.4631,-94.5 526.629,-94.5 545.5941,-94.5"/>
<polygon fill="#191970" stroke="#191970" points="545.6862,-98.0001 555.6861,-94.5 545.6861,-91.0001 545.6862,-98.0001"/>
</g>
<!-- Node23&#45;&gt;Node21 -->
<g id="edge27" class="edge">
<title>Node23&#45;&gt;Node21</title>
<path fill="none" stroke="#191970" d="M488.0418,-79.6406C513.8424,-73.8355 543.0652,-67.2603 567.6182,-61.7359"/>
<polygon fill="#191970" stroke="#191970" points="568.4918,-65.1269 577.4796,-59.5171 566.9552,-58.2976 568.4918,-65.1269"/>
</g>
</g>
</svg>
