<?xml version="1.0" encoding="UTF-8" standalone="no"?>
<!DOCTYPE svg PUBLIC "-//W3C//DTD SVG 1.1//EN"
 "http://www.w3.org/Graphics/SVG/1.1/DTD/svg11.dtd">
<!-- Generated by graphviz version 2.40.1 (20161225.0304)
 -->
<!-- Title: PHHepMCParticleSelectorDecayProductChain::process_event Pages: 1 -->
<svg width="1236pt" height="698pt"
 viewBox="0.00 0.00 1236.00 698.00" xmlns="http://www.w3.org/2000/svg" xmlns:xlink="http://www.w3.org/1999/xlink">
<g id="graph0" class="graph" transform="scale(1 1) rotate(0) translate(4 694)">
<title>PHHepMCParticleSelectorDecayProductChain::process_event</title>
<!-- Node1 -->
<g id="node1" class="node">
<title>Node1</title>
<polygon fill="#bfbfbf" stroke="#000000" points="0,-372.5 0,-404.5 176,-404.5 176,-372.5 0,-372.5"/>
<text text-anchor="start" x="8" y="-391.5" font-family="FreeSans" font-size="10.00" fill="#000000">PHHepMCParticleSelectorDecay</text>
<text text-anchor="middle" x="88" y="-379.5" font-family="FreeSans" font-size="10.00" fill="#000000">ProductChain::process_event</text>
</g>
<!-- Node2 -->
<g id="node2" class="node">
<title>Node2</title>
<g id="a_node2"><a xlink:href="../../df/d28/namespacekdfinder.html#ab72d428625e99a2d7380eb7691c246c7" target="_top" xlink:title="kdfinder::abs">
<polygon fill="none" stroke="#000000" points="470,-669.5 470,-689.5 553,-689.5 553,-669.5 470,-669.5"/>
<text text-anchor="middle" x="511.5" y="-676.5" font-family="FreeSans" font-size="10.00" fill="#000000">kdfinder::abs</text>
</a>
</g>
</g>
<!-- Node1&#45;&gt;Node2 -->
<g id="edge1" class="edge">
<title>Node1&#45;&gt;Node2</title>
<path fill="none" stroke="#191970" d="M176.2726,-382.5826C253.6114,-379.4484 358.1942,-380.8589 388,-408.5 470.9557,-485.4308 346.9282,-577.6753 424,-660.5 433.2825,-670.4753 446.4669,-675.847 459.7929,-678.5982"/>
<polygon fill="#191970" stroke="#191970" points="459.5211,-682.0992 469.9487,-680.2241 460.6277,-675.1872 459.5211,-682.0992"/>
</g>
<!-- Node4 -->
<g id="node4" class="node">
<title>Node4</title>
<g id="a_node4"><a xlink:href="../../df/da1/namespaceActs_1_1VectorHelpers.html#afc1703c2fa7adfd6517e5e16df2e5df4" target="_top" xlink:title="Acts::VectorHelpers::eta">
<polygon fill="none" stroke="#000000" points="230.5,-495.5 230.5,-515.5 369.5,-515.5 369.5,-495.5 230.5,-495.5"/>
<text text-anchor="middle" x="300" y="-502.5" font-family="FreeSans" font-size="10.00" fill="#000000">Acts::VectorHelpers::eta</text>
</a>
</g>
</g>
<!-- Node1&#45;&gt;Node4 -->
<g id="edge3" class="edge">
<title>Node1&#45;&gt;Node4</title>
<path fill="none" stroke="#191970" d="M103.5881,-404.8185C125.6118,-426.8644 168.0734,-465.7811 212,-486.5 216.6517,-488.6941 221.5615,-490.638 226.5863,-492.3599"/>
<polygon fill="#191970" stroke="#191970" points="225.7646,-495.7698 236.3532,-495.4048 227.8481,-489.0871 225.7646,-495.7698"/>
</g>
<!-- Node5 -->
<g id="node5" class="node">
<title>Node5</title>
<g id="a_node5"><a xlink:href="../../d5/d41/classPHHepMCGenEventMap.html#aeee51cbc5dbbd18af41e66c03e955319" target="_top" xlink:title="fetch event">
<polygon fill="none" stroke="#000000" points="219.5,-456.5 219.5,-476.5 380.5,-476.5 380.5,-456.5 219.5,-456.5"/>
<text text-anchor="middle" x="300" y="-463.5" font-family="FreeSans" font-size="10.00" fill="#000000">PHHepMCGenEventMap::get</text>
</a>
</g>
</g>
<!-- Node1&#45;&gt;Node5 -->
<g id="edge4" class="edge">
<title>Node1&#45;&gt;Node5</title>
<path fill="none" stroke="#191970" d="M116.7626,-404.5375C141.3961,-417.6932 178.1502,-435.967 212,-447.5 219.098,-449.9184 226.6262,-452.0976 234.1742,-454.0424"/>
<polygon fill="#191970" stroke="#191970" points="233.5283,-457.4875 244.0737,-456.4644 235.192,-450.6881 233.5283,-457.4875"/>
</g>
<!-- Node6 -->
<g id="node6" class="node">
<title>Node6</title>
<g id="a_node6"><a xlink:href="../../d7/d7b/classPHHepMCGenEvent.html#a086a77104ec225e191885f9db7538521" target="_top" xlink:title="PHHepMCGenEvent::getEvent">
<polygon fill="none" stroke="#000000" points="216,-417.5 216,-437.5 384,-437.5 384,-417.5 216,-417.5"/>
<text text-anchor="middle" x="300" y="-424.5" font-family="FreeSans" font-size="10.00" fill="#000000">PHHepMCGenEvent::getEvent</text>
</a>
</g>
</g>
<!-- Node1&#45;&gt;Node6 -->
<g id="edge5" class="edge">
<title>Node1&#45;&gt;Node6</title>
<path fill="none" stroke="#191970" d="M175.1463,-404.5316C195.2819,-408.2358 216.3553,-412.1125 235.333,-415.6037"/>
<polygon fill="#191970" stroke="#191970" points="234.8762,-419.0783 245.3445,-417.4454 236.1428,-412.1939 234.8762,-419.0783"/>
</g>
<!-- Node7 -->
<g id="node7" class="node">
<title>Node7</title>
<g id="a_node7"><a xlink:href="../../d5/d18/classPHHepMCParticleSelectorDecayProductChain.html#ae3f510b7168d4ba797d0954bc5de7d99" target="_top" xlink:title="find out if a particle comes from one of _theAncestors">
<polygon fill="none" stroke="#000000" points="212,-598.5 212,-630.5 388,-630.5 388,-598.5 212,-598.5"/>
<text text-anchor="start" x="220" y="-617.5" font-family="FreeSans" font-size="10.00" fill="#000000">PHHepMCParticleSelectorDecay</text>
<text text-anchor="middle" x="300" y="-605.5" font-family="FreeSans" font-size="10.00" fill="#000000">ProductChain::GetParent</text>
</a>
</g>
</g>
<!-- Node1&#45;&gt;Node7 -->
<g id="edge6" class="edge">
<title>Node1&#45;&gt;Node7</title>
<path fill="none" stroke="#191970" d="M102.2818,-404.7395C125.1226,-430.6058 171.4332,-482.6205 212,-525.5 233.4292,-548.1509 258.485,-573.373 276.3683,-591.1665"/>
<polygon fill="#191970" stroke="#191970" points="273.9994,-593.7466 283.5619,-598.3083 278.9312,-588.779 273.9994,-593.7466"/>
</g>
<!-- Node8 -->
<g id="node8" class="node">
<title>Node8</title>
<g id="a_node8"><a xlink:href="../../d0/d95/ip_8C.html#a292ff32a75b66b513d1f0ce00f9a4dc4" target="_top" xlink:title="ip">
<polygon fill="none" stroke="#000000" points="285.5,-339.5 285.5,-359.5 314.5,-359.5 314.5,-339.5 285.5,-339.5"/>
<text text-anchor="middle" x="300" y="-346.5" font-family="FreeSans" font-size="10.00" fill="#000000">ip</text>
</a>
</g>
</g>
<!-- Node1&#45;&gt;Node8 -->
<g id="edge8" class="edge">
<title>Node1&#45;&gt;Node8</title>
<path fill="none" stroke="#191970" d="M175.1463,-372.4684C211.3579,-365.8068 250.6027,-358.5872 275.2358,-354.0557"/>
<polygon fill="#191970" stroke="#191970" points="275.9528,-357.4826 285.1545,-352.231 274.6862,-350.5981 275.9528,-357.4826"/>
</g>
<!-- Node40 -->
<g id="node40" class="node">
<title>Node40</title>
<g id="a_node40"><a xlink:href="../../d2/d18/medium-simple_8f.html#a58e0410e81664819969cd2981fd7cd27" target="_top" xlink:title="npart">
<polygon fill="none" stroke="#000000" points="278,-300.5 278,-320.5 322,-320.5 322,-300.5 278,-300.5"/>
<text text-anchor="middle" x="300" y="-307.5" font-family="FreeSans" font-size="10.00" fill="#000000">npart</text>
</a>
</g>
</g>
<!-- Node1&#45;&gt;Node40 -->
<g id="edge49" class="edge">
<title>Node1&#45;&gt;Node40</title>
<path fill="none" stroke="#191970" d="M117.8226,-372.3361C142.4836,-359.5161 178.7294,-341.9144 212,-330.5 230.1631,-324.2687 251.1053,-319.4197 268.0023,-316.0578"/>
<polygon fill="#191970" stroke="#191970" points="268.7747,-319.4736 277.9393,-314.1577 267.4599,-312.5982 268.7747,-319.4736"/>
</g>
<!-- Node46 -->
<g id="node46" class="node">
<title>Node46</title>
<g id="a_node46"><a xlink:href="../../df/da1/namespaceActs_1_1VectorHelpers.html#a9d0d7e35444d5f4a0ae7accb0a2c70db" target="_top" xlink:title="Acts::VectorHelpers\l::perp">
<polygon fill="none" stroke="#000000" points="242,-249.5 242,-281.5 358,-281.5 358,-249.5 242,-249.5"/>
<text text-anchor="start" x="250" y="-268.5" font-family="FreeSans" font-size="10.00" fill="#000000">Acts::VectorHelpers</text>
<text text-anchor="middle" x="300" y="-256.5" font-family="FreeSans" font-size="10.00" fill="#000000">::perp</text>
</a>
</g>
</g>
<!-- Node1&#45;&gt;Node46 -->
<g id="edge56" class="edge">
<title>Node1&#45;&gt;Node46</title>
<path fill="none" stroke="#191970" d="M104.2305,-372.4547C126.6615,-351.1125 169.2333,-313.5237 212,-291.5 218.4264,-288.1905 225.3394,-285.2374 232.3645,-282.6183"/>
<polygon fill="#191970" stroke="#191970" points="233.6972,-285.8601 241.9785,-279.2518 231.3837,-279.2535 233.6972,-285.8601"/>
</g>
<!-- Node47 -->
<g id="node47" class="node">
<title>Node47</title>
<g id="a_node47"><a xlink:href="../../d5/dec/classFun4AllBase.html#a8a5c77a92bdac6bc043476e132379a40" target="_top" xlink:title="Gets the verbosity of this module.">
<polygon fill="none" stroke="#000000" points="234,-210.5 234,-230.5 366,-230.5 366,-210.5 234,-210.5"/>
<text text-anchor="middle" x="300" y="-217.5" font-family="FreeSans" font-size="10.00" fill="#000000">Fun4AllBase::Verbosity</text>
</a>
</g>
</g>
<!-- Node1&#45;&gt;Node47 -->
<g id="edge57" class="edge">
<title>Node1&#45;&gt;Node47</title>
<path fill="none" stroke="#191970" d="M96.8026,-372.1502C114.3494,-341.2206 156.793,-274.2294 212,-240.5 215.8646,-238.1388 219.9785,-236.0559 224.2361,-234.2185"/>
<polygon fill="#191970" stroke="#191970" points="225.6591,-237.4214 233.7451,-230.5755 223.1548,-230.8847 225.6591,-237.4214"/>
</g>
<!-- Node3 -->
<g id="node3" class="node">
<title>Node3</title>
<g id="a_node3"><a xlink:href="../../d8/dc7/classkdfinder_1_1TVector.html#ac9649c7577f12a7502ed523260f4ee90" target="_top" xlink:title="kdfinder::TVector::mag">
<polygon fill="none" stroke="#000000" points="661,-669.5 661,-689.5 793,-689.5 793,-669.5 661,-669.5"/>
<text text-anchor="middle" x="727" y="-676.5" font-family="FreeSans" font-size="10.00" fill="#000000">kdfinder::TVector::mag</text>
</a>
</g>
</g>
<!-- Node2&#45;&gt;Node3 -->
<g id="edge2" class="edge">
<title>Node2&#45;&gt;Node3</title>
<path fill="none" stroke="#191970" d="M553.0506,-679.5C580.761,-679.5 618.0086,-679.5 650.9268,-679.5"/>
<polygon fill="#191970" stroke="#191970" points="650.9885,-683.0001 660.9885,-679.5 650.9885,-676.0001 650.9885,-683.0001"/>
</g>
<!-- Node7&#45;&gt;Node2 -->
<g id="edge7" class="edge">
<title>Node7&#45;&gt;Node2</title>
<path fill="none" stroke="#191970" d="M338.8949,-630.543C363.0937,-640.1186 395.0198,-652.0244 424,-660.5 435.5397,-663.8749 448.0934,-666.9449 459.9952,-669.586"/>
<polygon fill="#191970" stroke="#191970" points="459.2896,-673.0143 469.8027,-671.701 460.7653,-666.1716 459.2896,-673.0143"/>
</g>
<!-- Node9 -->
<g id="node9" class="node">
<title>Node9</title>
<g id="a_node9"><a xlink:href="../../da/d86/classEicGeoMap.html#a4138a501100028aef473a4b9508d36d3" target="_top" xlink:title="EicGeoMap::AddGeantVolume\lLevel">
<polygon fill="none" stroke="#000000" points="873,-595.5 873,-627.5 1041,-627.5 1041,-595.5 873,-595.5"/>
<text text-anchor="start" x="881" y="-614.5" font-family="FreeSans" font-size="10.00" fill="#000000">EicGeoMap::AddGeantVolume</text>
<text text-anchor="middle" x="957" y="-602.5" font-family="FreeSans" font-size="10.00" fill="#000000">Level</text>
</a>
</g>
</g>
<!-- Node8&#45;&gt;Node9 -->
<g id="edge9" class="edge">
<title>Node8&#45;&gt;Node9</title>
<path fill="none" stroke="#191970" d="M314.5785,-349.6059C334.288,-350.5859 369.1333,-355.4254 388,-376.5 445.3266,-440.5354 361.8442,-507.1408 424,-566.5 484.8913,-624.6516 726.9544,-622.9991 862.9715,-617.0888"/>
<polygon fill="#191970" stroke="#191970" points="863.1469,-620.5846 872.9792,-616.638 862.8318,-613.5916 863.1469,-620.5846"/>
</g>
<!-- Node11 -->
<g id="node11" class="node">
<title>Node11</title>
<g id="a_node11"><a xlink:href="../../df/de0/classEicGeoParData.html#a131e36442e699277af7e0e05dd70d7c7" target="_top" xlink:title="EicGeoParData::AddLogical\lVolumeGroup">
<polygon fill="none" stroke="#000000" points="880.5,-347.5 880.5,-379.5 1033.5,-379.5 1033.5,-347.5 880.5,-347.5"/>
<text text-anchor="start" x="888.5" y="-366.5" font-family="FreeSans" font-size="10.00" fill="#000000">EicGeoParData::AddLogical</text>
<text text-anchor="middle" x="957" y="-354.5" font-family="FreeSans" font-size="10.00" fill="#000000">VolumeGroup</text>
</a>
</g>
</g>
<!-- Node8&#45;&gt;Node11 -->
<g id="edge11" class="edge">
<title>Node8&#45;&gt;Node11</title>
<path fill="none" stroke="#191970" d="M314.515,-351.3135C332.9296,-354.1751 365.0486,-361.0867 388,-376.5 408.9759,-390.5866 401.167,-409.6799 424,-420.5 502.605,-457.7493 750.6219,-410.2039 878.7188,-381.8398"/>
<polygon fill="#191970" stroke="#191970" points="879.8576,-385.1719 888.8563,-379.5796 878.3343,-378.3396 879.8576,-385.1719"/>
</g>
<!-- Node14 -->
<g id="node14" class="node">
<title>Node14</title>
<g id="a_node14"><a xlink:href="../../dd/d0b/classEicNamePatternHub.html#abe35bc0e1b9b51fa1f2c0c45bcf78dec" target="_top" xlink:title="EicNamePatternHub::\lAddPatternMatch">
<polygon fill="none" stroke="#000000" points="450,-378.5 450,-410.5 573,-410.5 573,-378.5 450,-378.5"/>
<text text-anchor="start" x="458" y="-397.5" font-family="FreeSans" font-size="10.00" fill="#000000">EicNamePatternHub::</text>
<text text-anchor="middle" x="511.5" y="-385.5" font-family="FreeSans" font-size="10.00" fill="#000000">AddPatternMatch</text>
</a>
</g>
</g>
<!-- Node8&#45;&gt;Node14 -->
<g id="edge15" class="edge">
<title>Node8&#45;&gt;Node14</title>
<path fill="none" stroke="#191970" d="M314.5373,-352.593C340.1,-358.0319 394.6807,-369.6448 439.9165,-379.2695"/>
<polygon fill="#191970" stroke="#191970" points="439.1985,-382.695 449.708,-381.3528 440.6553,-375.8482 439.1985,-382.695"/>
</g>
<!-- Node15 -->
<g id="node15" class="node">
<title>Node15</title>
<g id="a_node15"><a xlink:href="../../df/de0/classEicGeoParData.html#a0a19d07a4f67c4a5cb0884a9992f44d7" target="_top" xlink:title="EicGeoParData::CreateNewMap">
<polygon fill="none" stroke="#000000" points="424,-339.5 424,-359.5 599,-359.5 599,-339.5 424,-339.5"/>
<text text-anchor="middle" x="511.5" y="-346.5" font-family="FreeSans" font-size="10.00" fill="#000000">EicGeoParData::CreateNewMap</text>
</a>
</g>
</g>
<!-- Node8&#45;&gt;Node15 -->
<g id="edge16" class="edge">
<title>Node8&#45;&gt;Node15</title>
<path fill="none" stroke="#191970" d="M314.5373,-349.5C335.2699,-349.5 375.0907,-349.5 413.5325,-349.5"/>
<polygon fill="#191970" stroke="#191970" points="413.7905,-353.0001 423.7905,-349.5 413.7905,-346.0001 413.7905,-353.0001"/>
</g>
<!-- Node16 -->
<g id="node16" class="node">
<title>Node16</title>
<g id="a_node16"><a xlink:href="../../df/de8/cemc_8C.html#adf5c804dfce7a70e36dda02995fad481" target="_top" xlink:title="exit">
<polygon fill="none" stroke="#000000" points="494,-300.5 494,-320.5 529,-320.5 529,-300.5 494,-300.5"/>
<text text-anchor="middle" x="511.5" y="-307.5" font-family="FreeSans" font-size="10.00" fill="#000000">exit</text>
</a>
</g>
</g>
<!-- Node8&#45;&gt;Node16 -->
<g id="edge17" class="edge">
<title>Node8&#45;&gt;Node16</title>
<path fill="none" stroke="#191970" d="M314.5373,-346.8194C349.4433,-340.3828 438.4567,-323.969 483.8999,-315.5894"/>
<polygon fill="#191970" stroke="#191970" points="484.7393,-318.9937 493.9388,-313.7382 483.4699,-312.1097 484.7393,-318.9937"/>
</g>
<!-- Node17 -->
<g id="node17" class="node">
<title>Node17</title>
<g id="a_node17"><a xlink:href="../../df/de0/classEicGeoParData.html#a5464c1947d87d36569891ada6aafb22c" target="_top" xlink:title="EicGeoParData::FinalizeOutput">
<polygon fill="none" stroke="#000000" points="426,-222.5 426,-242.5 597,-242.5 597,-222.5 426,-222.5"/>
<text text-anchor="middle" x="511.5" y="-229.5" font-family="FreeSans" font-size="10.00" fill="#000000">EicGeoParData::FinalizeOutput</text>
</a>
</g>
</g>
<!-- Node8&#45;&gt;Node17 -->
<g id="edge18" class="edge">
<title>Node8&#45;&gt;Node17</title>
<path fill="none" stroke="#191970" d="M314.703,-350.0504C333.6109,-349.9958 366.5596,-347.231 388,-330.5 416.5193,-308.2449 396.2265,-280.6791 424,-257.5 429.2157,-253.1471 435.148,-249.5511 441.4089,-246.5807"/>
<polygon fill="#191970" stroke="#191970" points="442.8992,-249.7511 450.7718,-242.6608 440.1959,-243.2942 442.8992,-249.7511"/>
</g>
<!-- Node19 -->
<g id="node19" class="node">
<title>Node19</title>
<g id="a_node19"><a xlink:href="../../df/de0/classEicGeoParData.html#a98e43e3d66fdb531cabaccd39f09ebc3" target="_top" xlink:title="EicGeoParData::GetColorTable">
<polygon fill="none" stroke="#000000" points="642.5,-360.5 642.5,-380.5 811.5,-380.5 811.5,-360.5 642.5,-360.5"/>
<text text-anchor="middle" x="727" y="-367.5" font-family="FreeSans" font-size="10.00" fill="#000000">EicGeoParData::GetColorTable</text>
</a>
</g>
</g>
<!-- Node8&#45;&gt;Node19 -->
<g id="edge29" class="edge">
<title>Node8&#45;&gt;Node19</title>
<path fill="none" stroke="#191970" d="M314.6664,-349.0126C332.9565,-347.8278 364.657,-343.8347 388,-330.5 408.4826,-318.7993 402.3913,-300.961 424,-291.5 495.248,-260.3054 531.3178,-253.179 599,-291.5 626.0618,-306.8221 609.6359,-333.5063 635,-351.5 637.3694,-353.1809 639.8545,-354.7199 642.4277,-356.1285"/>
<polygon fill="#191970" stroke="#191970" points="640.9421,-359.2976 651.476,-360.4327 643.9491,-352.9764 640.9421,-359.2976"/>
</g>
<!-- Node26 -->
<g id="node26" class="node">
<title>Node26</title>
<g id="a_node26"><a xlink:href="../../df/de0/classEicGeoParData.html#a75991633a97d0a9b3140ba103f225691" target="_top" xlink:title="EicGeoParData::GetTransparency\lTable">
<polygon fill="none" stroke="#000000" points="635,-168.5 635,-200.5 819,-200.5 819,-168.5 635,-168.5"/>
<text text-anchor="start" x="643" y="-187.5" font-family="FreeSans" font-size="10.00" fill="#000000">EicGeoParData::GetTransparency</text>
<text text-anchor="middle" x="727" y="-175.5" font-family="FreeSans" font-size="10.00" fill="#000000">Table</text>
</a>
</g>
</g>
<!-- Node8&#45;&gt;Node26 -->
<g id="edge34" class="edge">
<title>Node8&#45;&gt;Node26</title>
<path fill="none" stroke="#191970" d="M314.802,-350.5515C334.1244,-351.0814 367.8469,-348.9931 388,-330.5 428.0863,-293.7156 381.8278,-247.873 424,-213.5 454.0384,-189.0168 549.1108,-183.0684 624.8404,-182.4533"/>
<polygon fill="#191970" stroke="#191970" points="624.9343,-185.9529 634.9161,-182.4015 624.8982,-178.953 624.9343,-185.9529"/>
</g>
<!-- Node28 -->
<g id="node28" class="node">
<title>Node28</title>
<g id="a_node28"><a xlink:href="../../df/de0/classEicGeoParData.html#af50661ee10308b08071f9feb1b57493b" target="_top" xlink:title="EicGeoParData::GetMedium">
<polygon fill="none" stroke="#000000" points="433.5,-144.5 433.5,-164.5 589.5,-164.5 589.5,-144.5 433.5,-144.5"/>
<text text-anchor="middle" x="511.5" y="-151.5" font-family="FreeSans" font-size="10.00" fill="#000000">EicGeoParData::GetMedium</text>
</a>
</g>
</g>
<!-- Node8&#45;&gt;Node28 -->
<g id="edge30" class="edge">
<title>Node8&#45;&gt;Node28</title>
<path fill="none" stroke="#191970" d="M314.6509,-350.7306C334.1197,-351.5069 368.3416,-349.7422 388,-330.5 437.3039,-282.24 376.3067,-229.3523 424,-179.5 427.8908,-175.4331 432.3932,-172.0139 437.2616,-169.141"/>
<polygon fill="#191970" stroke="#191970" points="439.0218,-172.1731 446.3671,-164.5378 435.8636,-165.926 439.0218,-172.1731"/>
</g>
<!-- Node31 -->
<g id="node31" class="node">
<title>Node31</title>
<g id="a_node31"><a xlink:href="../../df/de0/classEicGeoParData.html#a37c307a8b444e89fd125f6d273a1c894" target="_top" xlink:title="EicGeoParData::GetTopVolume">
<polygon fill="none" stroke="#000000" points="426,-105.5 426,-125.5 597,-125.5 597,-105.5 426,-105.5"/>
<text text-anchor="middle" x="511.5" y="-112.5" font-family="FreeSans" font-size="10.00" fill="#000000">EicGeoParData::GetTopVolume</text>
</a>
</g>
</g>
<!-- Node8&#45;&gt;Node31 -->
<g id="edge33" class="edge">
<title>Node8&#45;&gt;Node31</title>
<path fill="none" stroke="#191970" d="M314.7979,-350.877C334.4333,-351.8191 368.8434,-350.2418 388,-330.5 449.3737,-267.2515 363.009,-199.1176 424,-135.5 425.4154,-134.0236 426.9157,-132.6461 428.4884,-131.3611"/>
<polygon fill="#191970" stroke="#191970" points="430.5719,-134.1774 436.8981,-125.6786 426.6527,-128.3774 430.5719,-134.1774"/>
</g>
<!-- Node32 -->
<g id="node32" class="node">
<title>Node32</title>
<g id="a_node32"><a xlink:href="../../df/de0/classEicGeoParData.html#a304fa90a3bc1944d2c997257ed56b6a7" target="_top" xlink:title="EicGeoParData::SetFileName">
<polygon fill="none" stroke="#000000" points="431,-630.5 431,-650.5 592,-650.5 592,-630.5 431,-630.5"/>
<text text-anchor="middle" x="511.5" y="-637.5" font-family="FreeSans" font-size="10.00" fill="#000000">EicGeoParData::SetFileName</text>
</a>
</g>
</g>
<!-- Node8&#45;&gt;Node32 -->
<g id="edge35" class="edge">
<title>Node8&#45;&gt;Node32</title>
<path fill="none" stroke="#191970" d="M314.666,-349.141C334.4769,-349.518 369.4395,-353.3866 388,-374.5 459.5038,-455.8388 352.5573,-534.1076 424,-615.5 427.4295,-619.4072 431.4231,-622.7229 435.7791,-625.5348"/>
<polygon fill="#191970" stroke="#191970" points="434.0985,-628.6049 444.5496,-630.3441 437.4641,-622.4671 434.0985,-628.6049"/>
</g>
<!-- Node33 -->
<g id="node33" class="node">
<title>Node33</title>
<g id="a_node33"><a xlink:href="../../df/de0/classEicGeoParData.html#a85796e06ee06c2b0973409350d2c054d" target="_top" xlink:title="EicGeoParData::SetMapping\lTableEntry">
<polygon fill="none" stroke="#000000" points="432.5,-473.5 432.5,-505.5 590.5,-505.5 590.5,-473.5 432.5,-473.5"/>
<text text-anchor="start" x="440.5" y="-492.5" font-family="FreeSans" font-size="10.00" fill="#000000">EicGeoParData::SetMapping</text>
<text text-anchor="middle" x="511.5" y="-480.5" font-family="FreeSans" font-size="10.00" fill="#000000">TableEntry</text>
</a>
</g>
</g>
<!-- Node8&#45;&gt;Node33 -->
<g id="edge36" class="edge">
<title>Node8&#45;&gt;Node33</title>
<path fill="none" stroke="#191970" d="M314.5243,-349.9833C333.5392,-351.3527 366.9222,-356.3827 388,-374.5 417.2611,-399.6511 396.2129,-426.7294 424,-453.5 430.2743,-459.5448 437.7047,-464.6301 445.5428,-468.8941"/>
<polygon fill="#191970" stroke="#191970" points="444.0138,-472.0426 454.5256,-473.3666 447.1338,-465.7763 444.0138,-472.0426"/>
</g>
<!-- Node39 -->
<g id="node39" class="node">
<title>Node39</title>
<g id="a_node39"><a xlink:href="../../da/d86/classEicGeoMap.html#a77e724ceee76044c2346a4b35be1f90e" target="_top" xlink:title="EicGeoMap::SetSingleSensor\lContainerVolume">
<polygon fill="none" stroke="#000000" points="430,-524.5 430,-556.5 593,-556.5 593,-524.5 430,-524.5"/>
<text text-anchor="start" x="438" y="-543.5" font-family="FreeSans" font-size="10.00" fill="#000000">EicGeoMap::SetSingleSensor</text>
<text text-anchor="middle" x="511.5" y="-531.5" font-family="FreeSans" font-size="10.00" fill="#000000">ContainerVolume</text>
</a>
</g>
</g>
<!-- Node8&#45;&gt;Node39 -->
<g id="edge48" class="edge">
<title>Node8&#45;&gt;Node39</title>
<path fill="none" stroke="#191970" d="M314.6976,-349.4305C334.2195,-350.1655 368.5011,-354.471 388,-374.5 433.1162,-420.8427 378.9186,-469.1235 424,-515.5 424.9292,-516.4558 425.8921,-517.3758 426.8856,-518.2613"/>
<polygon fill="#191970" stroke="#191970" points="424.9506,-521.1853 435.0474,-524.3956 429.1563,-515.5896 424.9506,-521.1853"/>
</g>
<!-- Node10 -->
<g id="node10" class="node">
<title>Node10</title>
<g id="a_node10"><a xlink:href="../../da/d23/msg__buffer_8cc.html#a98631211a4a8aee62f572375d5b637be" target="_top" xlink:title="printf">
<polygon fill="none" stroke="#000000" points="1139.5,-437.5 1139.5,-457.5 1183.5,-457.5 1183.5,-437.5 1139.5,-437.5"/>
<text text-anchor="middle" x="1161.5" y="-444.5" font-family="FreeSans" font-size="10.00" fill="#000000">printf</text>
</a>
</g>
</g>
<!-- Node9&#45;&gt;Node10 -->
<g id="edge10" class="edge">
<title>Node9&#45;&gt;Node10</title>
<path fill="none" stroke="#191970" d="M1036.1951,-595.4656C1044.2408,-592.1883 1052.0113,-588.2447 1059,-583.5 1103.8331,-553.0625 1137.0092,-496.498 1152.2395,-466.8188"/>
<polygon fill="#191970" stroke="#191970" points="1155.376,-468.3718 1156.7074,-457.861 1149.112,-465.2474 1155.376,-468.3718"/>
</g>
<!-- Node11&#45;&gt;Node10 -->
<g id="edge13" class="edge">
<title>Node11&#45;&gt;Node10</title>
<path fill="none" stroke="#191970" d="M1033.6885,-378.2244C1042.5037,-381.3084 1051.1385,-385.025 1059,-389.5 1078.6646,-400.6938 1075.7386,-413.6258 1095,-425.5 1105.5683,-432.0151 1118.2837,-436.8327 1129.7528,-440.2705"/>
<polygon fill="#191970" stroke="#191970" points="1128.8546,-443.6534 1139.4256,-442.9444 1130.7197,-436.9064 1128.8546,-443.6534"/>
</g>
<!-- Node12 -->
<g id="node12" class="node">
<title>Node12</title>
<g id="a_node12"><a xlink:href="../../dd/d20/classEicBitMask.html#a577897e58c312fcaa8722bea72257e26" target="_top" xlink:title="EicBitMask::GetBitNum">
<polygon fill="none" stroke="#000000" points="1095,-354.5 1095,-374.5 1228,-374.5 1228,-354.5 1095,-354.5"/>
<text text-anchor="middle" x="1161.5" y="-361.5" font-family="FreeSans" font-size="10.00" fill="#000000">EicBitMask::GetBitNum</text>
</a>
</g>
</g>
<!-- Node11&#45;&gt;Node12 -->
<g id="edge12" class="edge">
<title>Node11&#45;&gt;Node12</title>
<path fill="none" stroke="#191970" d="M1033.7301,-363.8752C1050.3426,-363.9564 1067.9152,-364.0424 1084.5366,-364.1237"/>
<polygon fill="#191970" stroke="#191970" points="1084.7287,-367.6245 1094.7458,-364.1736 1084.763,-360.6246 1084.7287,-367.6245"/>
</g>
<!-- Node13 -->
<g id="node13" class="node">
<title>Node13</title>
<g id="a_node13"><a xlink:href="../../dd/d20/classEicBitMask.html#a23ae6782cbc30f5fe572692893d5e3bf" target="_top" xlink:title="EicBitMask::SetShift">
<polygon fill="none" stroke="#000000" points="1103,-395.5 1103,-415.5 1220,-415.5 1220,-395.5 1103,-395.5"/>
<text text-anchor="middle" x="1161.5" y="-402.5" font-family="FreeSans" font-size="10.00" fill="#000000">EicBitMask::SetShift</text>
</a>
</g>
</g>
<!-- Node11&#45;&gt;Node13 -->
<g id="edge14" class="edge">
<title>Node11&#45;&gt;Node13</title>
<path fill="none" stroke="#191970" d="M1033.7301,-379.2587C1056.5269,-383.9407 1081.1317,-388.994 1102.6054,-393.4043"/>
<polygon fill="#191970" stroke="#191970" points="1102.053,-396.8638 1112.5527,-395.4473 1103.4613,-390.0069 1102.053,-396.8638"/>
</g>
<!-- Node18 -->
<g id="node18" class="node">
<title>Node18</title>
<g id="a_node18"><a xlink:href="../../dd/d0b/classEicNamePatternHub.html#a8baac9dd7e44ee789555cb040763f903" target="_top" xlink:title="EicNamePatternHub::\lAnyMatch">
<polygon fill="none" stroke="#000000" points="665.5,-309.5 665.5,-341.5 788.5,-341.5 788.5,-309.5 665.5,-309.5"/>
<text text-anchor="start" x="673.5" y="-328.5" font-family="FreeSans" font-size="10.00" fill="#000000">EicNamePatternHub::</text>
<text text-anchor="middle" x="727" y="-316.5" font-family="FreeSans" font-size="10.00" fill="#000000">AnyMatch</text>
</a>
</g>
</g>
<!-- Node17&#45;&gt;Node18 -->
<g id="edge19" class="edge">
<title>Node17&#45;&gt;Node18</title>
<path fill="none" stroke="#191970" d="M565.9676,-242.6406C577.4383,-246.2275 589.063,-251.0457 599,-257.5 619.9024,-271.0765 614.01,-287.0593 635,-300.5 641.3247,-304.5499 648.2976,-307.9496 655.4902,-310.8023"/>
<polygon fill="#191970" stroke="#191970" points="654.7999,-314.2734 665.3944,-314.363 657.1682,-307.6861 654.7999,-314.2734"/>
</g>
<!-- Node17&#45;&gt;Node19 -->
<g id="edge20" class="edge">
<title>Node17&#45;&gt;Node19</title>
<path fill="none" stroke="#191970" d="M574.0944,-242.5861C583.2065,-246.1626 591.894,-250.9898 599,-257.5 631.9862,-287.7208 600.9092,-322.5311 635,-351.5 636.538,-352.8069 638.1423,-354.0319 639.8028,-355.1798"/>
<polygon fill="#191970" stroke="#191970" points="638.1321,-358.2574 648.5284,-360.2993 641.6746,-352.2199 638.1321,-358.2574"/>
</g>
<!-- Node20 -->
<g id="node20" class="node">
<title>Node20</title>
<g id="a_node20"><a xlink:href="../../df/de0/classEicGeoParData.html#a24162311dd8c038e330afbee7a132352" target="_top" xlink:title="EicGeoParData::GetGeometry\lFileName">
<polygon fill="none" stroke="#000000" points="644,-258.5 644,-290.5 810,-290.5 810,-258.5 644,-258.5"/>
<text text-anchor="start" x="652" y="-277.5" font-family="FreeSans" font-size="10.00" fill="#000000">EicGeoParData::GetGeometry</text>
<text text-anchor="middle" x="727" y="-265.5" font-family="FreeSans" font-size="10.00" fill="#000000">FileName</text>
</a>
</g>
</g>
<!-- Node17&#45;&gt;Node20 -->
<g id="edge21" class="edge">
<title>Node17&#45;&gt;Node20</title>
<path fill="none" stroke="#191970" d="M562.8438,-242.5067C584.3991,-246.7077 610.1486,-251.7262 634.7905,-256.5288"/>
<polygon fill="#191970" stroke="#191970" points="634.414,-260.0212 644.8989,-258.4989 635.7532,-253.1505 634.414,-260.0212"/>
</g>
<!-- Node17&#45;&gt;Node26 -->
<g id="edge27" class="edge">
<title>Node17&#45;&gt;Node26</title>
<path fill="none" stroke="#191970" d="M556.4135,-222.4961C582.0142,-216.7938 614.8892,-209.4713 644.9348,-202.779"/>
<polygon fill="#191970" stroke="#191970" points="646.0013,-206.1273 655.0011,-200.5369 644.4794,-199.2948 646.0013,-206.1273"/>
</g>
<!-- Node27 -->
<g id="node27" class="node">
<title>Node27</title>
<g id="a_node27"><a xlink:href="../../d0/d2f/classEicDetName.html#aef29cb1ffe2ea071a03f4aa098408595" target="_top" xlink:title="EicDetName::Name">
<polygon fill="none" stroke="#000000" points="669.5,-219.5 669.5,-239.5 784.5,-239.5 784.5,-219.5 669.5,-219.5"/>
<text text-anchor="middle" x="727" y="-226.5" font-family="FreeSans" font-size="10.00" fill="#000000">EicDetName::Name</text>
</a>
</g>
</g>
<!-- Node17&#45;&gt;Node27 -->
<g id="edge28" class="edge">
<title>Node17&#45;&gt;Node27</title>
<path fill="none" stroke="#191970" d="M597.2905,-231.3057C617.8807,-231.0191 639.5881,-230.7169 659.23,-230.4434"/>
<polygon fill="#191970" stroke="#191970" points="659.3461,-233.9423 669.2964,-230.3033 659.2486,-226.9429 659.3461,-233.9423"/>
</g>
<!-- Node21 -->
<g id="node21" class="node">
<title>Node21</title>
<g id="a_node21"><a xlink:href="../../df/de0/classEicGeoParData.html#a7f5db7c4ddc258264f0258a6d8d946b6" target="_top" xlink:title="EicGeoParData::GetGeometryType">
<polygon fill="none" stroke="#000000" points="862.5,-191.5 862.5,-211.5 1051.5,-211.5 1051.5,-191.5 862.5,-191.5"/>
<text text-anchor="middle" x="957" y="-198.5" font-family="FreeSans" font-size="10.00" fill="#000000">EicGeoParData::GetGeometryType</text>
</a>
</g>
</g>
<!-- Node20&#45;&gt;Node21 -->
<g id="edge22" class="edge">
<title>Node20&#45;&gt;Node21</title>
<path fill="none" stroke="#191970" d="M797.4056,-258.4988C804.8545,-255.8883 812.1886,-252.9018 819,-249.5 837.134,-240.4434 836.553,-229.9007 855,-221.5 861.0687,-218.7363 867.5108,-216.3538 874.0918,-214.2999"/>
<polygon fill="#191970" stroke="#191970" points="875.1551,-217.6362 883.8061,-211.5199 873.2291,-210.9064 875.1551,-217.6362"/>
</g>
<!-- Node22 -->
<g id="node22" class="node">
<title>Node22</title>
<g id="a_node22"><a xlink:href="../../df/de0/classEicGeoParData.html#ae6acf5e5d790c629031c2d7cf12718ef" target="_top" xlink:title="EicGeoParData::GetSubVersion">
<polygon fill="none" stroke="#000000" points="871,-152.5 871,-172.5 1043,-172.5 1043,-152.5 871,-152.5"/>
<text text-anchor="middle" x="957" y="-159.5" font-family="FreeSans" font-size="10.00" fill="#000000">EicGeoParData::GetSubVersion</text>
</a>
</g>
</g>
<!-- Node20&#45;&gt;Node22 -->
<g id="edge23" class="edge">
<title>Node20&#45;&gt;Node22</title>
<path fill="none" stroke="#191970" d="M805.074,-258.3753C810.0217,-255.8361 814.724,-252.8984 819,-249.5 845.464,-228.4674 827.799,-202.5704 855,-182.5 857.7226,-180.4911 860.5936,-178.6692 863.5766,-177.0176"/>
<polygon fill="#191970" stroke="#191970" points="865.3382,-180.0539 872.8252,-172.5575 862.2976,-173.7487 865.3382,-180.0539"/>
</g>
<!-- Node23 -->
<g id="node23" class="node">
<title>Node23</title>
<g id="a_node23"><a xlink:href="../../df/de0/classEicGeoParData.html#a27907f2aba8817ceb2d97e1a29ecaf40" target="_top" xlink:title="EicGeoParData::GetVersion">
<polygon fill="none" stroke="#000000" points="880.5,-308.5 880.5,-328.5 1033.5,-328.5 1033.5,-308.5 880.5,-308.5"/>
<text text-anchor="middle" x="957" y="-315.5" font-family="FreeSans" font-size="10.00" fill="#000000">EicGeoParData::GetVersion</text>
</a>
</g>
</g>
<!-- Node20&#45;&gt;Node23 -->
<g id="edge24" class="edge">
<title>Node20&#45;&gt;Node23</title>
<path fill="none" stroke="#191970" d="M808.5774,-290.5435C823.9926,-293.5439 839.9874,-296.6357 855,-299.5 867.2163,-301.8307 880.2624,-304.2863 892.8021,-306.6298"/>
<polygon fill="#191970" stroke="#191970" points="892.2523,-310.0876 902.7246,-308.4807 893.536,-303.2063 892.2523,-310.0876"/>
</g>
<!-- Node24 -->
<g id="node24" class="node">
<title>Node24</title>
<g id="a_node24"><a xlink:href="../../df/de0/classEicGeoParData.html#a09fe5b3481f26b4a771cb7c476d64a1f" target="_top" xlink:title="EicGeoParData::IsTestGeometry">
<polygon fill="none" stroke="#000000" points="869,-269.5 869,-289.5 1045,-289.5 1045,-269.5 869,-269.5"/>
<text text-anchor="middle" x="957" y="-276.5" font-family="FreeSans" font-size="10.00" fill="#000000">EicGeoParData::IsTestGeometry</text>
</a>
</g>
</g>
<!-- Node20&#45;&gt;Node24 -->
<g id="edge25" class="edge">
<title>Node20&#45;&gt;Node24</title>
<path fill="none" stroke="#191970" d="M810.0353,-276.3051C825.8058,-276.648 842.4475,-277.0097 858.6396,-277.3617"/>
<polygon fill="#191970" stroke="#191970" points="858.5779,-280.8611 868.6516,-277.5794 858.7301,-273.8628 858.5779,-280.8611"/>
</g>
<!-- Node25 -->
<g id="node25" class="node">
<title>Node25</title>
<g id="a_node25"><a xlink:href="../../d0/d2f/classEicDetName.html#afac87377442f69796e0e335e81b96067" target="_top" xlink:title="EicDetName::name">
<polygon fill="none" stroke="#000000" points="900,-230.5 900,-250.5 1014,-250.5 1014,-230.5 900,-230.5"/>
<text text-anchor="middle" x="957" y="-237.5" font-family="FreeSans" font-size="10.00" fill="#000000">EicDetName::name</text>
</a>
</g>
</g>
<!-- Node20&#45;&gt;Node25 -->
<g id="edge26" class="edge">
<title>Node20&#45;&gt;Node25</title>
<path fill="none" stroke="#191970" d="M810.0353,-262.2252C836.2726,-258.3467 864.9212,-254.1116 889.8991,-250.4193"/>
<polygon fill="#191970" stroke="#191970" points="890.6177,-253.8512 899.9984,-248.9263 889.594,-246.9264 890.6177,-253.8512"/>
</g>
<!-- Node29 -->
<g id="node29" class="node">
<title>Node29</title>
<g id="a_node29"><a xlink:href="../../de/d6a/classFairGeoBuilder.html#a852b0d5861a7a6c1033aab59417d1c79" target="_top" xlink:title="FairGeoBuilder::createMedium">
<polygon fill="none" stroke="#000000" points="642.5,-129.5 642.5,-149.5 811.5,-149.5 811.5,-129.5 642.5,-129.5"/>
<text text-anchor="middle" x="727" y="-136.5" font-family="FreeSans" font-size="10.00" fill="#000000">FairGeoBuilder::createMedium</text>
</a>
</g>
</g>
<!-- Node28&#45;&gt;Node29 -->
<g id="edge31" class="edge">
<title>Node28&#45;&gt;Node29</title>
<path fill="none" stroke="#191970" d="M589.6051,-149.0634C603.3689,-148.1054 617.8324,-147.0987 631.9979,-146.1127"/>
<polygon fill="#191970" stroke="#191970" points="632.5127,-149.5854 642.2455,-145.3994 632.0266,-142.6023 632.5127,-149.5854"/>
</g>
<!-- Node30 -->
<g id="node30" class="node">
<title>Node30</title>
<g id="a_node30"><a xlink:href="../../d9/d1e/classFairGeoMedia.html#a0dc27e89d61b8ff40498a48e39b2a2c0" target="_top" xlink:title="FairGeoMedia::getMedium">
<polygon fill="none" stroke="#000000" points="652.5,-90.5 652.5,-110.5 801.5,-110.5 801.5,-90.5 652.5,-90.5"/>
<text text-anchor="middle" x="727" y="-97.5" font-family="FreeSans" font-size="10.00" fill="#000000">FairGeoMedia::getMedium</text>
</a>
</g>
</g>
<!-- Node28&#45;&gt;Node30 -->
<g id="edge32" class="edge">
<title>Node28&#45;&gt;Node30</title>
<path fill="none" stroke="#191970" d="M565.1158,-144.4663C576.4066,-141.9062 588.1735,-138.9002 599,-135.5 615.5369,-130.3064 618.4637,-125.6956 635,-120.5 644.0273,-117.6637 653.6764,-115.0874 663.2045,-112.7986"/>
<polygon fill="#191970" stroke="#191970" points="664.1052,-116.1828 673.0589,-110.5187 662.5273,-109.3629 664.1052,-116.1828"/>
</g>
<!-- Node33&#45;&gt;Node10 -->
<g id="edge39" class="edge">
<title>Node33&#45;&gt;Node10</title>
<path fill="none" stroke="#191970" d="M590.6581,-473.7279C605.3482,-471.2771 620.6003,-469.0485 635,-467.5 821.2653,-447.469 1046.4747,-446.6877 1129.101,-447.1764"/>
<polygon fill="#191970" stroke="#191970" points="1129.3272,-450.6779 1139.3516,-447.2482 1129.3764,-443.6781 1129.3272,-450.6779"/>
</g>
<!-- Node34 -->
<g id="node34" class="node">
<title>Node34</title>
<g id="a_node34"><a xlink:href="../../dd/d20/classEicBitMask.html#aba6083955032532d7dfc95069338dd27" target="_top" xlink:title="EicBitMask::GetBitMask">
<polygon fill="none" stroke="#000000" points="659.5,-566.5 659.5,-586.5 794.5,-586.5 794.5,-566.5 659.5,-566.5"/>
<text text-anchor="middle" x="727" y="-573.5" font-family="FreeSans" font-size="10.00" fill="#000000">EicBitMask::GetBitMask</text>
</a>
</g>
</g>
<!-- Node33&#45;&gt;Node34 -->
<g id="edge37" class="edge">
<title>Node33&#45;&gt;Node34</title>
<path fill="none" stroke="#191970" d="M578.4388,-505.5724C585.6015,-508.401 592.6005,-511.689 599,-515.5 618.4412,-527.0775 615.4241,-540.1517 635,-551.5 643.2895,-556.3055 652.5346,-560.2161 661.8791,-563.3907"/>
<polygon fill="#191970" stroke="#191970" points="661.0282,-566.7917 671.6172,-566.4392 663.1195,-560.1114 661.0282,-566.7917"/>
</g>
<!-- Node35 -->
<g id="node35" class="node">
<title>Node35</title>
<g id="a_node35"><a xlink:href="../../dd/d20/classEicBitMask.html#a862ce5875cf47f78ff18aaed935966d9" target="_top" xlink:title="EicBitMask::GetShift">
<polygon fill="none" stroke="#000000" points="897.5,-553.5 897.5,-573.5 1016.5,-573.5 1016.5,-553.5 897.5,-553.5"/>
<text text-anchor="middle" x="957" y="-560.5" font-family="FreeSans" font-size="10.00" fill="#000000">EicBitMask::GetShift</text>
</a>
</g>
</g>
<!-- Node33&#45;&gt;Node35 -->
<g id="edge38" class="edge">
<title>Node33&#45;&gt;Node35</title>
<path fill="none" stroke="#191970" d="M574.7262,-505.5237C593.999,-510.0897 615.2991,-514.8184 635,-518.5 721.3753,-534.6415 821.7705,-547.7919 887.1951,-555.6202"/>
<polygon fill="#191970" stroke="#191970" points="887.0446,-559.1268 897.3876,-556.8305 887.8701,-552.1757 887.0446,-559.1268"/>
</g>
<!-- Node36 -->
<g id="node36" class="node">
<title>Node36</title>
<g id="a_node36"><a xlink:href="../../da/d86/classEicGeoMap.html#a9c17af03744fe42ae8daf66f9bda7f06" target="_top" xlink:title="EicGeoMap::SetMappingTable\lEntry">
<polygon fill="none" stroke="#000000" points="644,-476.5 644,-508.5 810,-508.5 810,-476.5 644,-476.5"/>
<text text-anchor="start" x="652" y="-495.5" font-family="FreeSans" font-size="10.00" fill="#000000">EicGeoMap::SetMappingTable</text>
<text text-anchor="middle" x="727" y="-483.5" font-family="FreeSans" font-size="10.00" fill="#000000">Entry</text>
</a>
</g>
</g>
<!-- Node33&#45;&gt;Node36 -->
<g id="edge40" class="edge">
<title>Node33&#45;&gt;Node36</title>
<path fill="none" stroke="#191970" d="M590.5206,-490.6001C604.44,-490.7938 619.0494,-490.9972 633.3236,-491.1959"/>
<polygon fill="#191970" stroke="#191970" points="633.5957,-494.7 643.6435,-491.3396 633.6932,-487.7006 633.5957,-494.7"/>
</g>
<!-- Node36&#45;&gt;Node10 -->
<g id="edge47" class="edge">
<title>Node36&#45;&gt;Node10</title>
<path fill="none" stroke="#191970" d="M810.3312,-485.7101C877.5384,-479.9953 974.4588,-471.216 1059,-461.5 1082.5513,-458.7933 1109.0651,-455.156 1129.2257,-452.2673"/>
<polygon fill="#191970" stroke="#191970" points="1129.7437,-455.7289 1139.1399,-450.8338 1128.742,-448.8009 1129.7437,-455.7289"/>
</g>
<!-- Node36&#45;&gt;Node35 -->
<g id="edge45" class="edge">
<title>Node36&#45;&gt;Node35</title>
<path fill="none" stroke="#191970" d="M780.7391,-508.5653C793.4762,-512.9302 806.8779,-517.9912 819,-523.5 835.8636,-531.1635 837.6389,-538.0421 855,-544.5 865.2114,-548.2984 876.2915,-551.3626 887.2596,-553.8274"/>
<polygon fill="#191970" stroke="#191970" points="886.7675,-557.3003 897.2729,-555.9264 888.2037,-550.4492 886.7675,-557.3003"/>
</g>
<!-- Node37 -->
<g id="node37" class="node">
<title>Node37</title>
<g id="a_node37"><a xlink:href="../../da/d86/classEicGeoMap.html#ad01497111125dccc306dac986d6d10e1" target="_top" xlink:title="EicGeoMap::CalculateBitPattern">
<polygon fill="none" stroke="#000000" points="869,-398.5 869,-418.5 1045,-418.5 1045,-398.5 869,-398.5"/>
<text text-anchor="middle" x="957" y="-405.5" font-family="FreeSans" font-size="10.00" fill="#000000">EicGeoMap::CalculateBitPattern</text>
</a>
</g>
</g>
<!-- Node36&#45;&gt;Node37 -->
<g id="edge41" class="edge">
<title>Node36&#45;&gt;Node37</title>
<path fill="none" stroke="#191970" d="M771.0742,-476.4033C814.2141,-460.6479 879.2006,-436.9137 919.8091,-422.0828"/>
<polygon fill="#191970" stroke="#191970" points="921.1383,-425.3235 929.3308,-418.6053 918.7369,-418.7483 921.1383,-425.3235"/>
</g>
<!-- Node38 -->
<g id="node38" class="node">
<title>Node38</title>
<g id="a_node38"><a xlink:href="../../d1/d24/classGeantVolumeLevel.html#a4aba5288354c7287b6fc03cd9d30b2a2" target="_top" xlink:title="GeantVolumeLevel::GetVolumeName">
<polygon fill="none" stroke="#000000" points="855,-514.5 855,-534.5 1059,-534.5 1059,-514.5 855,-514.5"/>
<text text-anchor="middle" x="957" y="-521.5" font-family="FreeSans" font-size="10.00" fill="#000000">GeantVolumeLevel::GetVolumeName</text>
</a>
</g>
</g>
<!-- Node36&#45;&gt;Node38 -->
<g id="edge46" class="edge">
<title>Node36&#45;&gt;Node38</title>
<path fill="none" stroke="#191970" d="M810.0353,-504.0527C831.2518,-507.0046 854.0451,-510.1758 875.1991,-513.119"/>
<polygon fill="#191970" stroke="#191970" points="874.7267,-516.5869 885.1136,-514.4984 875.6913,-509.6537 874.7267,-516.5869"/>
</g>
<!-- Node37&#45;&gt;Node10 -->
<g id="edge43" class="edge">
<title>Node37&#45;&gt;Node10</title>
<path fill="none" stroke="#191970" d="M1009.6638,-418.5435C1047.409,-425.7418 1097.0489,-435.2086 1129.1169,-441.3243"/>
<polygon fill="#191970" stroke="#191970" points="1128.7973,-444.8263 1139.276,-443.2617 1130.1087,-437.9502 1128.7973,-444.8263"/>
</g>
<!-- Node37&#45;&gt;Node12 -->
<g id="edge42" class="edge">
<title>Node37&#45;&gt;Node12</title>
<path fill="none" stroke="#191970" d="M1014.0276,-398.4507C1028.7133,-395.7057 1044.4711,-392.6225 1059,-389.5 1076.6644,-385.7036 1095.9341,-381.1211 1112.9493,-376.922"/>
<polygon fill="#191970" stroke="#191970" points="1113.8181,-380.3126 1122.6779,-374.5027 1112.1288,-373.5195 1113.8181,-380.3126"/>
</g>
<!-- Node37&#45;&gt;Node13 -->
<g id="edge44" class="edge">
<title>Node37&#45;&gt;Node13</title>
<path fill="none" stroke="#191970" d="M1045.2102,-407.206C1061.02,-406.974 1077.2862,-406.7354 1092.4582,-406.5128"/>
<polygon fill="#191970" stroke="#191970" points="1092.8204,-410.008 1102.768,-406.3616 1092.7177,-403.0088 1092.8204,-410.008"/>
</g>
<!-- Node41 -->
<g id="node41" class="node">
<title>Node41</title>
<g id="a_node41"><a xlink:href="../../d8/d1a/classHiMain1.html#afa91501b2c79bdaf9274e067b9d97e31" target="_top" xlink:title="HiMain1::n0">
<polygon fill="none" stroke="#000000" points="688.5,-51.5 688.5,-71.5 765.5,-71.5 765.5,-51.5 688.5,-51.5"/>
<text text-anchor="middle" x="727" y="-58.5" font-family="FreeSans" font-size="10.00" fill="#000000">HiMain1::n0</text>
</a>
</g>
</g>
<!-- Node40&#45;&gt;Node41 -->
<g id="edge50" class="edge">
<title>Node40&#45;&gt;Node41</title>
<path fill="none" stroke="#191970" d="M322.0237,-312.0812C342.0631,-312.2321 371.0282,-309.0062 388,-291.5 449.6492,-227.9097 359.2225,-155.9005 424,-95.5 459.7745,-62.1428 601.8048,-59.2281 678.034,-60.1867"/>
<polygon fill="#191970" stroke="#191970" points="678.2831,-63.6908 688.3357,-60.3449 678.3906,-56.6916 678.2831,-63.6908"/>
</g>
<!-- Node44 -->
<g id="node44" class="node">
<title>Node44</title>
<g id="a_node44"><a xlink:href="../../d2/d18/medium-simple_8f.html#a1fdcab7823056a622e99f159e74b0a1e" target="_top" xlink:title="nthick">
<polygon fill="none" stroke="#000000" points="487.5,-27.5 487.5,-47.5 535.5,-47.5 535.5,-27.5 487.5,-27.5"/>
<text text-anchor="middle" x="511.5" y="-34.5" font-family="FreeSans" font-size="10.00" fill="#000000">nthick</text>
</a>
</g>
</g>
<!-- Node40&#45;&gt;Node44 -->
<g id="edge53" class="edge">
<title>Node40&#45;&gt;Node44</title>
<path fill="none" stroke="#191970" d="M322.1274,-312.1804C342.24,-312.4015 371.2547,-309.223 388,-291.5 458.7567,-216.612 355.7394,-139.67 424,-62.5 437.2745,-47.493 458.8695,-41.2192 477.284,-38.709"/>
<polygon fill="#191970" stroke="#191970" points="477.8117,-42.1729 487.3921,-37.649 477.0815,-35.2111 477.8117,-42.1729"/>
</g>
<!-- Node42 -->
<g id="node42" class="node">
<title>Node42</title>
<g id="a_node42"><a xlink:href="../../d8/d1a/classHiMain1.html#abdd4d6ac793897447c6d9f7b9e6d20ca" target="_top" xlink:title="HiMain1::init">
<polygon fill="none" stroke="#000000" points="916.5,-51.5 916.5,-71.5 997.5,-71.5 997.5,-51.5 916.5,-51.5"/>
<text text-anchor="middle" x="957" y="-58.5" font-family="FreeSans" font-size="10.00" fill="#000000">HiMain1::init</text>
</a>
</g>
</g>
<!-- Node41&#45;&gt;Node42 -->
<g id="edge51" class="edge">
<title>Node41&#45;&gt;Node42</title>
<path fill="none" stroke="#191970" d="M765.7563,-61.5C804.313,-61.5 863.6807,-61.5 906.0359,-61.5"/>
<polygon fill="#191970" stroke="#191970" points="906.1446,-65.0001 916.1446,-61.5 906.1446,-58.0001 906.1446,-65.0001"/>
</g>
<!-- Node43 -->
<g id="node43" class="node">
<title>Node43</title>
<g id="a_node43"><a xlink:href="../../d7/dc3/HiMain1_8h.html#af413dd2854a4d96511498e79f1519c57" target="_top" xlink:title="himain1_address_">
<polygon fill="none" stroke="#000000" points="1107.5,-51.5 1107.5,-71.5 1215.5,-71.5 1215.5,-51.5 1107.5,-51.5"/>
<text text-anchor="middle" x="1161.5" y="-58.5" font-family="FreeSans" font-size="10.00" fill="#000000">himain1_address_</text>
</a>
</g>
</g>
<!-- Node42&#45;&gt;Node43 -->
<g id="edge52" class="edge">
<title>Node42&#45;&gt;Node43</title>
<path fill="none" stroke="#191970" d="M997.8921,-61.5C1026.2898,-61.5 1064.7072,-61.5 1097.1786,-61.5"/>
<polygon fill="#191970" stroke="#191970" points="1097.4921,-65.0001 1107.4921,-61.5 1097.492,-58.0001 1097.4921,-65.0001"/>
</g>
<!-- Node44&#45;&gt;Node41 -->
<g id="edge55" class="edge">
<title>Node44&#45;&gt;Node41</title>
<path fill="none" stroke="#191970" d="M535.8017,-40.2065C570.2165,-44.0392 633.895,-51.131 678.2657,-56.0725"/>
<polygon fill="#191970" stroke="#191970" points="677.9341,-59.5571 688.26,-57.1856 678.7089,-52.6001 677.9341,-59.5571"/>
</g>
<!-- Node45 -->
<g id="node45" class="node">
<title>Node45</title>
<g id="a_node45"><a xlink:href="../../dc/db0/classActs_1_1IVisualization.html#a9e155efef029673b4b9830ef5dfc1af3" target="_top" xlink:title="Acts::IVisualization\l::line">
<polygon fill="none" stroke="#000000" points="671,-.5 671,-32.5 783,-32.5 783,-.5 671,-.5"/>
<text text-anchor="start" x="679" y="-19.5" font-family="FreeSans" font-size="10.00" fill="#000000">Acts::IVisualization</text>
<text text-anchor="middle" x="727" y="-7.5" font-family="FreeSans" font-size="10.00" fill="#000000">::line</text>
</a>
</g>
</g>
<!-- Node44&#45;&gt;Node45 -->
<g id="edge54" class="edge">
<title>Node44&#45;&gt;Node45</title>
<path fill="none" stroke="#191970" d="M535.8017,-35.1319C565.8639,-32.2024 618.256,-27.0969 660.6025,-22.9703"/>
<polygon fill="#191970" stroke="#191970" points="660.9634,-26.4518 670.5768,-21.9983 660.2844,-19.4848 660.9634,-26.4518"/>
</g>
</g>
</svg>
