<?xml version="1.0" encoding="UTF-8" standalone="no"?>
<!DOCTYPE svg PUBLIC "-//W3C//DTD SVG 1.1//EN"
 "http://www.w3.org/Graphics/SVG/1.1/DTD/svg11.dtd">
<!-- Generated by graphviz version 2.40.1 (20161225.0304)
 -->
<!-- Title: FHCAL_Clusters Pages: 1 -->
<svg width="675pt" height="326pt"
 viewBox="0.00 0.00 675.00 326.00" xmlns="http://www.w3.org/2000/svg" xmlns:xlink="http://www.w3.org/1999/xlink">
<g id="graph0" class="graph" transform="scale(1 1) rotate(0) translate(4 322)">
<title>FHCAL_Clusters</title>
<!-- Node1 -->
<g id="node1" class="node">
<title>Node1</title>
<polygon fill="#bfbfbf" stroke="#000000" points="0,-168.5 0,-188.5 95,-188.5 95,-168.5 0,-168.5"/>
<text text-anchor="middle" x="47.5" y="-175.5" font-family="FreeSans" font-size="10.00" fill="#000000">FHCAL_Clusters</text>
</g>
<!-- Node2 -->
<g id="node2" class="node">
<title>Node2</title>
<g id="a_node2"><a xlink:href="../../dd/d9c/classRawClusterBuilderFwd.html#ad3d76f2ee4cf47c960de747add349940" target="_top" xlink:title="RawClusterBuilderFwd\l::Detector">
<polygon fill="none" stroke="#000000" points="160.5,-246.5 160.5,-278.5 289.5,-278.5 289.5,-246.5 160.5,-246.5"/>
<text text-anchor="start" x="168.5" y="-265.5" font-family="FreeSans" font-size="10.00" fill="#000000">RawClusterBuilderFwd</text>
<text text-anchor="middle" x="225" y="-253.5" font-family="FreeSans" font-size="10.00" fill="#000000">::Detector</text>
</a>
</g>
</g>
<!-- Node1&#45;&gt;Node2 -->
<g id="edge1" class="edge">
<title>Node1&#45;&gt;Node2</title>
<path fill="none" stroke="#191970" d="M61.0741,-188.6079C77.1144,-200.1908 104.927,-219.1596 131,-231.5 139.8533,-235.6903 149.4243,-239.5514 158.9544,-243.0223"/>
<polygon fill="#191970" stroke="#191970" points="157.8479,-246.3432 168.4428,-246.3607 160.1713,-239.74 157.8479,-246.3432"/>
</g>
<!-- Node3 -->
<g id="node3" class="node">
<title>Node3</title>
<g id="a_node3"><a xlink:href="../../da/d29/classFun4AllServer.html#a3e55156f91b2c94bb6c4ef33ffce587a" target="_top" xlink:title="Fun4AllServer::instance">
<polygon fill="none" stroke="#000000" points="355,-297.5 355,-317.5 491,-317.5 491,-297.5 355,-297.5"/>
<text text-anchor="middle" x="423" y="-304.5" font-family="FreeSans" font-size="10.00" fill="#000000">Fun4AllServer::instance</text>
</a>
</g>
</g>
<!-- Node1&#45;&gt;Node3 -->
<g id="edge2" class="edge">
<title>Node1&#45;&gt;Node3</title>
<path fill="none" stroke="#191970" d="M91.2433,-188.5757C104.0482,-191.492 118.0777,-194.6552 131,-197.5 214.4282,-215.8662 243.0624,-198.3712 319,-237.5 338.2943,-247.4419 337.3364,-257.8863 355,-270.5 366.5647,-278.7584 380.1765,-286.5068 392.1715,-292.7577"/>
<polygon fill="#191970" stroke="#191970" points="390.8737,-296.024 401.3747,-297.4308 394.043,-289.7825 390.8737,-296.024"/>
</g>
<!-- Node4 -->
<g id="node4" class="node">
<title>Node4</title>
<g id="a_node4"><a xlink:href="../../da/d29/classFun4AllServer.html#a0a9947db0ede1e55622001eb7515f8c0" target="_top" xlink:title="Fun4AllServer::registerSubsystem">
<polygon fill="none" stroke="#000000" points="131,-168.5 131,-188.5 319,-188.5 319,-168.5 131,-168.5"/>
<text text-anchor="middle" x="225" y="-175.5" font-family="FreeSans" font-size="10.00" fill="#000000">Fun4AllServer::registerSubsystem</text>
</a>
</g>
</g>
<!-- Node1&#45;&gt;Node4 -->
<g id="edge3" class="edge">
<title>Node1&#45;&gt;Node4</title>
<path fill="none" stroke="#191970" d="M95.0667,-178.5C103.1248,-178.5 111.7648,-178.5 120.6191,-178.5"/>
<polygon fill="#191970" stroke="#191970" points="120.6874,-182.0001 130.6874,-178.5 120.6874,-175.0001 120.6874,-182.0001"/>
</g>
<!-- Node14 -->
<g id="node14" class="node">
<title>Node14</title>
<g id="a_node14"><a xlink:href="../../dd/d9c/classRawClusterBuilderFwd.html#a9ab15d59a2f80d8b21f8f39bd25e8fe8" target="_top" xlink:title="RawClusterBuilderFwd\l::set_threshold_energy">
<polygon fill="none" stroke="#000000" points="159.5,-117.5 159.5,-149.5 290.5,-149.5 290.5,-117.5 159.5,-117.5"/>
<text text-anchor="start" x="167.5" y="-136.5" font-family="FreeSans" font-size="10.00" fill="#000000">RawClusterBuilderFwd</text>
<text text-anchor="middle" x="225" y="-124.5" font-family="FreeSans" font-size="10.00" fill="#000000">::set_threshold_energy</text>
</a>
</g>
</g>
<!-- Node1&#45;&gt;Node14 -->
<g id="edge18" class="edge">
<title>Node1&#45;&gt;Node14</title>
<path fill="none" stroke="#191970" d="M87.3345,-168.4011C106.3883,-163.5706 129.8167,-157.631 151.9084,-152.0303"/>
<polygon fill="#191970" stroke="#191970" points="152.7763,-155.421 161.6095,-149.5708 151.0561,-148.6357 152.7763,-155.421"/>
</g>
<!-- Node15 -->
<g id="node15" class="node">
<title>Node15</title>
<g id="a_node15"><a xlink:href="../../d5/dec/classFun4AllBase.html#a05da2261577843028cf78e99171343b9" target="_top" xlink:title="Sets the verbosity of this module (0 by default=quiet).">
<polygon fill="none" stroke="#000000" points="159,-78.5 159,-98.5 291,-98.5 291,-78.5 159,-78.5"/>
<text text-anchor="middle" x="225" y="-85.5" font-family="FreeSans" font-size="10.00" fill="#000000">Fun4AllBase::Verbosity</text>
</a>
</g>
</g>
<!-- Node1&#45;&gt;Node15 -->
<g id="edge19" class="edge">
<title>Node1&#45;&gt;Node15</title>
<path fill="none" stroke="#191970" d="M56.1256,-168.4398C70.1474,-152.7816 99.5043,-122.794 131,-107.5 136.7006,-104.7318 142.7841,-102.3668 149.0105,-100.3462"/>
<polygon fill="#191970" stroke="#191970" points="150.2709,-103.6239 158.8782,-97.4461 148.297,-96.9079 150.2709,-103.6239"/>
</g>
<!-- Node4&#45;&gt;Node3 -->
<g id="edge4" class="edge">
<title>Node4&#45;&gt;Node3</title>
<path fill="none" stroke="#191970" d="M292.3201,-188.5239C301.9859,-192.1132 311.2609,-196.9605 319,-203.5 348.4721,-228.4036 326.7091,-256.2623 355,-282.5 359.5997,-286.7659 364.9882,-290.3185 370.6835,-293.2738"/>
<polygon fill="#191970" stroke="#191970" points="369.2661,-296.4741 379.8166,-297.4429 372.173,-290.1062 369.2661,-296.4741"/>
</g>
<!-- Node5 -->
<g id="node5" class="node">
<title>Node5</title>
<g id="a_node5"><a xlink:href="../../df/de8/cemc_8C.html#adf5c804dfce7a70e36dda02995fad481" target="_top" xlink:title="exit">
<polygon fill="none" stroke="#000000" points="405.5,-129.5 405.5,-149.5 440.5,-149.5 440.5,-129.5 405.5,-129.5"/>
<text text-anchor="middle" x="423" y="-136.5" font-family="FreeSans" font-size="10.00" fill="#000000">exit</text>
</a>
</g>
</g>
<!-- Node4&#45;&gt;Node5 -->
<g id="edge5" class="edge">
<title>Node4&#45;&gt;Node5</title>
<path fill="none" stroke="#191970" d="M275.9899,-168.4565C313.9139,-160.9867 364.2398,-151.074 395.0857,-144.9983"/>
<polygon fill="#191970" stroke="#191970" points="395.9966,-148.3862 405.1316,-143.0195 394.6437,-141.5182 395.9966,-148.3862"/>
</g>
<!-- Node6 -->
<g id="node6" class="node">
<title>Node6</title>
<g id="a_node6"><a xlink:href="../../d5/dec/classFun4AllBase.html#a41f9ac377743d046f590617fd6f4f0ed" target="_top" xlink:title="Returns the name of this module.">
<polygon fill="none" stroke="#000000" points="365.5,-90.5 365.5,-110.5 480.5,-110.5 480.5,-90.5 365.5,-90.5"/>
<text text-anchor="middle" x="423" y="-97.5" font-family="FreeSans" font-size="10.00" fill="#000000">Fun4AllBase::Name</text>
</a>
</g>
</g>
<!-- Node4&#45;&gt;Node6 -->
<g id="edge6" class="edge">
<title>Node4&#45;&gt;Node6</title>
<path fill="none" stroke="#191970" d="M296.0507,-168.351C304.0661,-165.7735 311.895,-162.5446 319,-158.5 339.5002,-146.8301 334.8764,-131.808 355,-119.5 358.0194,-117.6533 361.2228,-115.9814 364.5303,-114.4684"/>
<polygon fill="#191970" stroke="#191970" points="366.1035,-117.6076 374.0606,-110.6122 363.4778,-111.1187 366.1035,-117.6076"/>
</g>
<!-- Node7 -->
<g id="node7" class="node">
<title>Node7</title>
<g id="a_node7"><a xlink:href="../../da/d29/classFun4AllServer.html#abcaf6825367e5db292ff795237bdcf62" target="_top" xlink:title="Fun4AllServer::topNode">
<polygon fill="none" stroke="#000000" points="355,-51.5 355,-71.5 491,-71.5 491,-51.5 355,-51.5"/>
<text text-anchor="middle" x="423" y="-58.5" font-family="FreeSans" font-size="10.00" fill="#000000">Fun4AllServer::topNode</text>
</a>
</g>
</g>
<!-- Node4&#45;&gt;Node7 -->
<g id="edge7" class="edge">
<title>Node4&#45;&gt;Node7</title>
<path fill="none" stroke="#191970" d="M302.6246,-168.2998C308.492,-165.6801 314.0463,-162.4571 319,-158.5 348.8316,-134.6703 325.9316,-105.2549 355,-80.5 356.5748,-79.1589 358.2375,-77.912 359.9696,-76.7528"/>
<polygon fill="#191970" stroke="#191970" points="362.0887,-79.5789 369.1234,-71.6566 358.6836,-73.4629 362.0887,-79.5789"/>
</g>
<!-- Node8 -->
<g id="node8" class="node">
<title>Node8</title>
<g id="a_node8"><a xlink:href="../../d7/d96/classFun4AllMemoryTracker.html#a3841cc0bc6c4047da2b4868ba39dbb8c" target="_top" xlink:title="Fun4AllMemoryTracker\l::Start">
<polygon fill="none" stroke="#000000" points="357,-.5 357,-32.5 489,-32.5 489,-.5 357,-.5"/>
<text text-anchor="start" x="365" y="-19.5" font-family="FreeSans" font-size="10.00" fill="#000000">Fun4AllMemoryTracker</text>
<text text-anchor="middle" x="423" y="-7.5" font-family="FreeSans" font-size="10.00" fill="#000000">::Start</text>
</a>
</g>
</g>
<!-- Node4&#45;&gt;Node8 -->
<g id="edge8" class="edge">
<title>Node4&#45;&gt;Node8</title>
<path fill="none" stroke="#191970" d="M304.5763,-168.3322C309.8039,-165.6796 314.6914,-162.4418 319,-158.5 359.1415,-121.7759 317.5781,-80.9918 355,-41.5 355.9003,-40.5499 356.8398,-39.6357 357.8137,-38.7561"/>
<polygon fill="#191970" stroke="#191970" points="360.0065,-41.4862 365.8787,-32.6676 355.7888,-35.8994 360.0065,-41.4862"/>
</g>
<!-- Node11 -->
<g id="node11" class="node">
<title>Node11</title>
<g id="a_node11"><a xlink:href="../../d5/dec/classFun4AllBase.html#a8a5c77a92bdac6bc043476e132379a40" target="_top" xlink:title="Gets the verbosity of this module.">
<polygon fill="none" stroke="#000000" points="531,-213.5 531,-233.5 663,-233.5 663,-213.5 531,-213.5"/>
<text text-anchor="middle" x="597" y="-220.5" font-family="FreeSans" font-size="10.00" fill="#000000">Fun4AllBase::Verbosity</text>
</a>
</g>
</g>
<!-- Node4&#45;&gt;Node11 -->
<g id="edge17" class="edge">
<title>Node4&#45;&gt;Node11</title>
<path fill="none" stroke="#191970" d="M286.1346,-188.6032C297.6355,-192.1694 309.1341,-196.9889 319,-203.5 340.6677,-217.7998 331.6617,-238.129 355,-249.5 423.9779,-283.1077 516.858,-255.9575 565.0277,-237.3331"/>
<polygon fill="#191970" stroke="#191970" points="566.6119,-240.4695 574.6033,-233.5133 564.0182,-233.9677 566.6119,-240.4695"/>
</g>
<!-- Node12 -->
<g id="node12" class="node">
<title>Node12</title>
<g id="a_node12"><a xlink:href="../../d0/d32/classSubsysReco.html#a6670c0a093dd2c2bdd44f8fc6f9ba8e8" target="_top" xlink:title="SubsysReco::Init">
<polygon fill="none" stroke="#000000" points="373,-168.5 373,-188.5 473,-188.5 473,-168.5 373,-168.5"/>
<text text-anchor="middle" x="423" y="-175.5" font-family="FreeSans" font-size="10.00" fill="#000000">SubsysReco::Init</text>
</a>
</g>
</g>
<!-- Node4&#45;&gt;Node12 -->
<g id="edge12" class="edge">
<title>Node4&#45;&gt;Node12</title>
<path fill="none" stroke="#191970" d="M319.0711,-178.5C333.8604,-178.5 348.7966,-178.5 362.5554,-178.5"/>
<polygon fill="#191970" stroke="#191970" points="362.8253,-182.0001 372.8253,-178.5 362.8253,-175.0001 362.8253,-182.0001"/>
</g>
<!-- Node13 -->
<g id="node13" class="node">
<title>Node13</title>
<g id="a_node13"><a xlink:href="../../d7/d96/classFun4AllMemoryTracker.html#a766ac66dd36ffa4e3fbe6e622923565f" target="_top" xlink:title="Fun4AllMemoryTracker\l::Stop">
<polygon fill="none" stroke="#000000" points="357,-207.5 357,-239.5 489,-239.5 489,-207.5 357,-207.5"/>
<text text-anchor="start" x="365" y="-226.5" font-family="FreeSans" font-size="10.00" fill="#000000">Fun4AllMemoryTracker</text>
<text text-anchor="middle" x="423" y="-214.5" font-family="FreeSans" font-size="10.00" fill="#000000">::Stop</text>
</a>
</g>
</g>
<!-- Node4&#45;&gt;Node13 -->
<g id="edge13" class="edge">
<title>Node4&#45;&gt;Node13</title>
<path fill="none" stroke="#191970" d="M269.4351,-188.5989C292.284,-193.7918 320.7723,-200.2664 346.9849,-206.2239"/>
<polygon fill="#191970" stroke="#191970" points="346.3763,-209.6747 356.9033,-208.478 347.9277,-202.8488 346.3763,-209.6747"/>
</g>
<!-- Node9 -->
<g id="node9" class="node">
<title>Node9</title>
<g id="a_node9"><a xlink:href="../../d7/d96/classFun4AllMemoryTracker.html#aa8eb9ed150f51165b9abfd456c18a432" target="_top" xlink:title="Fun4AllMemoryTracker\l::CreateFullTrackerName">
<polygon fill="none" stroke="#000000" points="527,-134.5 527,-166.5 667,-166.5 667,-134.5 527,-134.5"/>
<text text-anchor="start" x="535" y="-153.5" font-family="FreeSans" font-size="10.00" fill="#000000">Fun4AllMemoryTracker</text>
<text text-anchor="middle" x="597" y="-141.5" font-family="FreeSans" font-size="10.00" fill="#000000">::CreateFullTrackerName</text>
</a>
</g>
</g>
<!-- Node8&#45;&gt;Node9 -->
<g id="edge9" class="edge">
<title>Node8&#45;&gt;Node9</title>
<path fill="none" stroke="#191970" d="M474.3403,-32.52C480.1488,-35.1567 485.8306,-38.1439 491,-41.5 526.6483,-64.6438 559.387,-101.7946 578.7737,-126.1768"/>
<polygon fill="#191970" stroke="#191970" points="576.1442,-128.4964 585.057,-134.2247 581.6618,-124.1886 576.1442,-128.4964"/>
</g>
<!-- Node10 -->
<g id="node10" class="node">
<title>Node10</title>
<g id="a_node10"><a xlink:href="../../d7/d96/classFun4AllMemoryTracker.html#a4059a8c86c92e1708e5bbdc585af99ed" target="_top" xlink:title="Fun4AllMemoryTracker\l::GetRSSMemory">
<polygon fill="none" stroke="#000000" points="531,-28.5 531,-60.5 663,-60.5 663,-28.5 531,-28.5"/>
<text text-anchor="start" x="539" y="-47.5" font-family="FreeSans" font-size="10.00" fill="#000000">Fun4AllMemoryTracker</text>
<text text-anchor="middle" x="597" y="-35.5" font-family="FreeSans" font-size="10.00" fill="#000000">::GetRSSMemory</text>
</a>
</g>
</g>
<!-- Node8&#45;&gt;Node10 -->
<g id="edge10" class="edge">
<title>Node8&#45;&gt;Node10</title>
<path fill="none" stroke="#191970" d="M489.2783,-27.1655C499.6131,-28.8285 510.3621,-30.5583 520.8946,-32.2532"/>
<polygon fill="#191970" stroke="#191970" points="520.4769,-35.7309 530.906,-33.8642 521.5891,-28.8198 520.4769,-35.7309"/>
</g>
<!-- Node8&#45;&gt;Node11 -->
<g id="edge11" class="edge">
<title>Node8&#45;&gt;Node11</title>
<path fill="none" stroke="#191970" d="M480.256,-32.5422C484.2077,-35.1002 487.8603,-38.0647 491,-41.5 532.6031,-87.0197 491.3656,-125.1706 527,-175.5 536.7549,-189.2776 551.7975,-200.3367 565.4417,-208.3512"/>
<polygon fill="#191970" stroke="#191970" points="564.1377,-211.6298 574.582,-213.4093 567.5271,-205.505 564.1377,-211.6298"/>
</g>
<!-- Node13&#45;&gt;Node9 -->
<g id="edge14" class="edge">
<title>Node13&#45;&gt;Node9</title>
<path fill="none" stroke="#191970" d="M465.9379,-207.4722C474.2821,-204.2477 482.9381,-200.8259 491,-197.5 511.3771,-189.0935 533.7157,-179.2795 552.6096,-170.8002"/>
<polygon fill="#191970" stroke="#191970" points="554.1855,-173.929 561.8649,-166.6299 551.3098,-167.547 554.1855,-173.929"/>
</g>
<!-- Node13&#45;&gt;Node10 -->
<g id="edge15" class="edge">
<title>Node13&#45;&gt;Node10</title>
<path fill="none" stroke="#191970" d="M476.867,-207.4344C481.9684,-204.6178 486.7958,-201.3305 491,-197.5 517.7405,-173.1363 506.9189,-154.5897 527,-124.5 540.6093,-104.1077 558.9438,-83.3371 573.4348,-68.072"/>
<polygon fill="#191970" stroke="#191970" points="576.196,-70.2507 580.617,-60.6223 571.1566,-65.3923 576.196,-70.2507"/>
</g>
<!-- Node13&#45;&gt;Node11 -->
<g id="edge16" class="edge">
<title>Node13&#45;&gt;Node11</title>
<path fill="none" stroke="#191970" d="M489.2783,-223.5C499.6131,-223.5 510.3621,-223.5 520.8946,-223.5"/>
<polygon fill="#191970" stroke="#191970" points="520.906,-227.0001 530.906,-223.5 520.9059,-220.0001 520.906,-227.0001"/>
</g>
</g>
</svg>
