<?xml version="1.0" encoding="UTF-8" standalone="no"?>
<!DOCTYPE svg PUBLIC "-//W3C//DTD SVG 1.1//EN"
 "http://www.w3.org/Graphics/SVG/1.1/DTD/svg11.dtd">
<!-- Generated by graphviz version 2.40.1 (20161225.0304)
 -->
<!-- Title: PHG4VtxPoint::get_x Pages: 1 -->
<svg width="537pt" height="872pt"
 viewBox="0.00 0.00 537.00 872.00" xmlns="http://www.w3.org/2000/svg" xmlns:xlink="http://www.w3.org/1999/xlink">
<g id="graph0" class="graph" transform="scale(1 1) rotate(0) translate(4 868)">
<title>PHG4VtxPoint::get_x</title>
<!-- Node1 -->
<g id="node1" class="node">
<title>Node1</title>
<polygon fill="#bfbfbf" stroke="#000000" points="0,-538.5 0,-558.5 121,-558.5 121,-538.5 0,-538.5"/>
<text text-anchor="middle" x="60.5" y="-545.5" font-family="FreeSans" font-size="10.00" fill="#000000">PHG4VtxPoint::get_x</text>
</g>
<!-- Node2 -->
<g id="node2" class="node">
<title>Node2</title>
<g id="a_node2"><a xlink:href="../../d0/d71/classPHG4TrackFastSimEval.html#a52a746bdc6e84dc7886b5bae0b608e68" target="_top" xlink:title="PHG4TrackFastSimEval\l::fill_track_tree">
<polygon fill="none" stroke="#000000" points="177,-831.5 177,-863.5 308,-863.5 308,-831.5 177,-831.5"/>
<text text-anchor="start" x="185" y="-850.5" font-family="FreeSans" font-size="10.00" fill="#000000">PHG4TrackFastSimEval</text>
<text text-anchor="middle" x="242.5" y="-838.5" font-family="FreeSans" font-size="10.00" fill="#000000">::fill_track_tree</text>
</a>
</g>
</g>
<!-- Node1&#45;&gt;Node2 -->
<g id="edge1" class="edge">
<title>Node1&#45;&gt;Node2</title>
<path fill="none" stroke="#191970" d="M61.5761,-568.9893C65.3606,-619.6322 82.2697,-751.711 157,-822.5 162.7261,-827.9241 169.5641,-832.1793 176.8436,-835.5159"/>
<polygon fill="#191970" stroke="#191970" points="65.049,-568.4573 60.9095,-558.7047 58.0637,-568.9101 65.049,-568.4573"/>
</g>
<!-- Node4 -->
<g id="node4" class="node">
<title>Node4</title>
<g id="a_node4"><a xlink:href="../../d8/d97/classTrackFastSimEval.html#a028f8bc89f4762789e280d64e7fcfe62" target="_top" xlink:title="TrackFastSimEval::fill\l_track_tree">
<polygon fill="none" stroke="#000000" points="181,-780.5 181,-812.5 304,-812.5 304,-780.5 181,-780.5"/>
<text text-anchor="start" x="189" y="-799.5" font-family="FreeSans" font-size="10.00" fill="#000000">TrackFastSimEval::fill</text>
<text text-anchor="middle" x="242.5" y="-787.5" font-family="FreeSans" font-size="10.00" fill="#000000">_track_tree</text>
</a>
</g>
</g>
<!-- Node1&#45;&gt;Node4 -->
<g id="edge3" class="edge">
<title>Node1&#45;&gt;Node4</title>
<path fill="none" stroke="#191970" d="M63.3964,-568.6735C70.7385,-612.3133 94.1718,-716.013 157,-771.5 163.8392,-777.5401 172.0673,-782.1239 180.681,-785.602"/>
<polygon fill="#191970" stroke="#191970" points="66.8411,-568.0484 61.8294,-558.7139 59.9262,-569.1364 66.8411,-568.0484"/>
</g>
<!-- Node6 -->
<g id="node6" class="node">
<title>Node6</title>
<g id="a_node6"><a xlink:href="../../d6/d11/classSvtxEvaluator.html#ace95fef2b7b4ad8b797f6695e053dd6e" target="_top" xlink:title="dump the evaluator information into ntuple for external analysis">
<polygon fill="none" stroke="#000000" points="172,-729.5 172,-761.5 313,-761.5 313,-729.5 172,-729.5"/>
<text text-anchor="start" x="180" y="-748.5" font-family="FreeSans" font-size="10.00" fill="#000000">SvtxEvaluator::fillOutput</text>
<text text-anchor="middle" x="242.5" y="-736.5" font-family="FreeSans" font-size="10.00" fill="#000000">Ntuples</text>
</a>
</g>
</g>
<!-- Node1&#45;&gt;Node6 -->
<g id="edge5" class="edge">
<title>Node1&#45;&gt;Node6</title>
<path fill="none" stroke="#191970" d="M66.2275,-568.649C77.4988,-604.6251 106.0047,-679.9334 157,-720.5 161.4781,-724.0623 166.4477,-727.1171 171.6733,-729.7367"/>
<polygon fill="#191970" stroke="#191970" points="69.5065,-567.3987 63.277,-558.8287 62.8025,-569.4129 69.5065,-567.3987"/>
</g>
<!-- Node8 -->
<g id="node8" class="node">
<title>Node8</title>
<g id="a_node8"><a xlink:href="../../dd/d59/classCaloEvaluator.html#a5298ee9646d361a4960fc0e20f83c880" target="_top" xlink:title="dump the evaluator information into ntuple for external analysis">
<polygon fill="none" stroke="#000000" points="172,-510.5 172,-542.5 313,-542.5 313,-510.5 172,-510.5"/>
<text text-anchor="start" x="180" y="-529.5" font-family="FreeSans" font-size="10.00" fill="#000000">CaloEvaluator::fillOutput</text>
<text text-anchor="middle" x="242.5" y="-517.5" font-family="FreeSans" font-size="10.00" fill="#000000">Ntuples</text>
</a>
</g>
</g>
<!-- Node1&#45;&gt;Node8 -->
<g id="edge7" class="edge">
<title>Node1&#45;&gt;Node8</title>
<path fill="none" stroke="#191970" d="M131.1566,-539.9591C144.4862,-538.3478 158.4295,-536.6624 171.7616,-535.0508"/>
<polygon fill="#191970" stroke="#191970" points="130.611,-536.4995 121.1034,-541.1743 131.4511,-543.4489 130.611,-536.4995"/>
</g>
<!-- Node10 -->
<g id="node10" class="node">
<title>Node10</title>
<g id="a_node10"><a xlink:href="../../de/d25/classPHGenFitTrkFitter.html#a99d09d612858e8b8d146c26bb764e62a" target="_top" xlink:title="Make SvtxTrack from PHGenFit::Track and SvtxTrack.">
<polygon fill="none" stroke="#000000" points="188,-639.5 188,-671.5 297,-671.5 297,-639.5 188,-639.5"/>
<text text-anchor="start" x="196" y="-658.5" font-family="FreeSans" font-size="10.00" fill="#000000">PHGenFitTrkFitter::</text>
<text text-anchor="middle" x="242.5" y="-646.5" font-family="FreeSans" font-size="10.00" fill="#000000">MakeSvtxTrack</text>
</a>
</g>
</g>
<!-- Node1&#45;&gt;Node10 -->
<g id="edge9" class="edge">
<title>Node1&#45;&gt;Node10</title>
<path fill="none" stroke="#191970" d="M76.7114,-566.1099C94.6724,-584.6327 125.3074,-613.4158 157,-630.5 166.5293,-635.6369 177.24,-639.8337 187.7734,-643.2206"/>
<polygon fill="#191970" stroke="#191970" points="79.0328,-563.4717 69.6079,-558.632 73.9575,-568.2928 79.0328,-563.4717"/>
</g>
<!-- Node12 -->
<g id="node12" class="node">
<title>Node12</title>
<g id="a_node12"><a xlink:href="../../d6/d81/classPHG4VtxPoint.html#a77a792f28bd75c230a9539e0377e6dc5" target="_top" xlink:title="comparison of vertex value only, not on the id, per algorithm requirement in PHG4TruthInfoContainer::...">
<polygon fill="none" stroke="#000000" points="166.5,-600.5 166.5,-620.5 318.5,-620.5 318.5,-600.5 166.5,-600.5"/>
<text text-anchor="middle" x="242.5" y="-607.5" font-family="FreeSans" font-size="10.00" fill="#000000">PHG4VtxPoint::operator==</text>
</a>
</g>
</g>
<!-- Node1&#45;&gt;Node12 -->
<g id="edge11" class="edge">
<title>Node1&#45;&gt;Node12</title>
<path fill="none" stroke="#191970" d="M89.2282,-563.1271C108.1092,-572.2803 133.5666,-583.7623 157,-591.5 167.3961,-594.9328 178.7076,-597.9376 189.5972,-600.4835"/>
<polygon fill="#191970" stroke="#191970" points="90.5175,-559.8608 79.9997,-558.5851 87.4263,-566.1413 90.5175,-559.8608"/>
</g>
<!-- Node13 -->
<g id="node13" class="node">
<title>Node13</title>
<g id="a_node13"><a xlink:href="../../dd/d59/classCaloEvaluator.html#ab7e09466d57c5b93274f09f61c0f321e" target="_top" xlink:title="print out the ancestry information for detailed diagnosis">
<polygon fill="none" stroke="#000000" points="157,-561.5 157,-581.5 328,-581.5 328,-561.5 157,-561.5"/>
<text text-anchor="middle" x="242.5" y="-568.5" font-family="FreeSans" font-size="10.00" fill="#000000">CaloEvaluator::printOutputInfo</text>
</a>
</g>
</g>
<!-- Node1&#45;&gt;Node13 -->
<g id="edge12" class="edge">
<title>Node1&#45;&gt;Node13</title>
<path fill="none" stroke="#191970" d="M131.0268,-557.4127C141.5198,-558.7388 152.3959,-560.1132 163.0569,-561.4605"/>
<polygon fill="#191970" stroke="#191970" points="131.4633,-553.9401 121.1034,-556.1587 130.5856,-560.8849 131.4633,-553.9401"/>
</g>
<!-- Node14 -->
<g id="node14" class="node">
<title>Node14</title>
<g id="a_node14"><a xlink:href="../../d6/d11/classSvtxEvaluator.html#aef548ddeafdf0ebc949f29e88a741db8" target="_top" xlink:title="print out the ancestry information for detailed diagnosis">
<polygon fill="none" stroke="#000000" points="157,-690.5 157,-710.5 328,-710.5 328,-690.5 157,-690.5"/>
<text text-anchor="middle" x="242.5" y="-697.5" font-family="FreeSans" font-size="10.00" fill="#000000">SvtxEvaluator::printOutputInfo</text>
</a>
</g>
</g>
<!-- Node1&#45;&gt;Node14 -->
<g id="edge14" class="edge">
<title>Node1&#45;&gt;Node14</title>
<path fill="none" stroke="#191970" d="M69.0367,-568.037C82.9706,-597.5112 113.4802,-652.9316 157,-681.5 162.466,-685.0881 168.508,-688.007 174.7784,-690.3801"/>
<polygon fill="#191970" stroke="#191970" points="72.1459,-566.4199 64.8052,-558.7802 65.7795,-569.3302 72.1459,-566.4199"/>
</g>
<!-- Node15 -->
<g id="node15" class="node">
<title>Node15</title>
<g id="a_node15"><a xlink:href="../../d8/dc7/classMomentumEvaluator.html#a19c5f2c6d74578feea3513322e9f1fe3" target="_top" xlink:title="MomentumEvaluator::\lprocess_event">
<polygon fill="none" stroke="#000000" points="178.5,-459.5 178.5,-491.5 306.5,-491.5 306.5,-459.5 178.5,-459.5"/>
<text text-anchor="start" x="186.5" y="-478.5" font-family="FreeSans" font-size="10.00" fill="#000000">MomentumEvaluator::</text>
<text text-anchor="middle" x="242.5" y="-466.5" font-family="FreeSans" font-size="10.00" fill="#000000">process_event</text>
</a>
</g>
</g>
<!-- Node1&#45;&gt;Node15 -->
<g id="edge16" class="edge">
<title>Node1&#45;&gt;Node15</title>
<path fill="none" stroke="#191970" d="M87.962,-533.6819C106.994,-523.7732 133.1103,-510.8821 157,-501.5 165.9535,-497.9837 175.5852,-494.6456 185.0413,-491.6056"/>
<polygon fill="#191970" stroke="#191970" points="86.1853,-530.6618 78.9672,-538.4174 89.4463,-536.8559 86.1853,-530.6618"/>
</g>
<!-- Node16 -->
<g id="node16" class="node">
<title>Node16</title>
<g id="a_node16"><a xlink:href="../../da/d12/classGlobalVertexFastSimReco.html#aa847bedea594b6493608177209e39ddf" target="_top" xlink:title="GlobalVertexFastSimReco\l::process_event">
<polygon fill="none" stroke="#000000" points="170,-408.5 170,-440.5 315,-440.5 315,-408.5 170,-408.5"/>
<text text-anchor="start" x="178" y="-427.5" font-family="FreeSans" font-size="10.00" fill="#000000">GlobalVertexFastSimReco</text>
<text text-anchor="middle" x="242.5" y="-415.5" font-family="FreeSans" font-size="10.00" fill="#000000">::process_event</text>
</a>
</g>
</g>
<!-- Node1&#45;&gt;Node16 -->
<g id="edge17" class="edge">
<title>Node1&#45;&gt;Node16</title>
<path fill="none" stroke="#191970" d="M73.9441,-530.0634C90.9257,-508.0523 122.167,-471.5774 157,-450.5 163.2388,-446.7249 170.0687,-443.4597 177.0623,-440.6442"/>
<polygon fill="#191970" stroke="#191970" points="70.9902,-528.1676 67.765,-538.2596 76.5797,-532.3815 70.9902,-528.1676"/>
</g>
<!-- Node17 -->
<g id="node17" class="node">
<title>Node17</title>
<g id="a_node17"><a xlink:href="../../d4/dc9/classPHG4DSTReader.html#aa32c5027cd9c3e4d667a0e84d7243412" target="_top" xlink:title="event processing method">
<polygon fill="none" stroke="#000000" points="169.5,-357.5 169.5,-389.5 315.5,-389.5 315.5,-357.5 169.5,-357.5"/>
<text text-anchor="start" x="177.5" y="-376.5" font-family="FreeSans" font-size="10.00" fill="#000000">PHG4DSTReader::process</text>
<text text-anchor="middle" x="242.5" y="-364.5" font-family="FreeSans" font-size="10.00" fill="#000000">_event</text>
</a>
</g>
</g>
<!-- Node1&#45;&gt;Node17 -->
<g id="edge18" class="edge">
<title>Node1&#45;&gt;Node17</title>
<path fill="none" stroke="#191970" d="M67.9346,-528.8959C81.027,-497.0033 111.2202,-433.9882 157,-399.5 162.0807,-395.6725 167.7271,-392.404 173.6276,-389.6138"/>
<polygon fill="#191970" stroke="#191970" points="64.5857,-527.8463 64.1524,-538.4323 71.0926,-530.4271 64.5857,-527.8463"/>
</g>
<!-- Node18 -->
<g id="node18" class="node">
<title>Node18</title>
<g id="a_node18"><a xlink:href="../../d9/d91/classPHG4TrackFastSim.html#a8bb22ab279c5f433069774bd2ab0a7ae" target="_top" xlink:title="Process Event, called for each event.">
<polygon fill="none" stroke="#000000" points="164.5,-306.5 164.5,-338.5 320.5,-338.5 320.5,-306.5 164.5,-306.5"/>
<text text-anchor="start" x="172.5" y="-325.5" font-family="FreeSans" font-size="10.00" fill="#000000">PHG4TrackFastSim::process</text>
<text text-anchor="middle" x="242.5" y="-313.5" font-family="FreeSans" font-size="10.00" fill="#000000">_event</text>
</a>
</g>
</g>
<!-- Node1&#45;&gt;Node18 -->
<g id="edge19" class="edge">
<title>Node1&#45;&gt;Node18</title>
<path fill="none" stroke="#191970" d="M64.5145,-528.5512C73.6352,-488.4138 99.7228,-397.5551 157,-348.5 161.4779,-344.6649 166.5102,-341.3955 171.8338,-338.6084"/>
<polygon fill="#191970" stroke="#191970" points="61.0666,-527.937 62.3801,-538.4501 67.9093,-529.4125 61.0666,-527.937"/>
</g>
<!-- Node19 -->
<g id="node19" class="node">
<title>Node19</title>
<g id="a_node19"><a xlink:href="../../d9/d7b/classQAG4SimulationCalorimeter.html#a5b70cca03633b9708a6aea0b57e21272" target="_top" xlink:title="QAG4SimulationCalorimeter\l::process_event_G4Hit">
<polygon fill="none" stroke="#000000" points="163,-255.5 163,-287.5 322,-287.5 322,-255.5 163,-255.5"/>
<text text-anchor="start" x="171" y="-274.5" font-family="FreeSans" font-size="10.00" fill="#000000">QAG4SimulationCalorimeter</text>
<text text-anchor="middle" x="242.5" y="-262.5" font-family="FreeSans" font-size="10.00" fill="#000000">::process_event_G4Hit</text>
</a>
</g>
</g>
<!-- Node1&#45;&gt;Node19 -->
<g id="edge20" class="edge">
<title>Node1&#45;&gt;Node19</title>
<path fill="none" stroke="#191970" d="M62.3662,-528.1818C67.8215,-480.7123 88.0134,-361.701 157,-297.5 161.0887,-293.6949 165.7183,-290.4459 170.6557,-287.6717"/>
<polygon fill="#191970" stroke="#191970" points="58.8575,-528.084 61.2983,-538.3938 65.8195,-528.8121 58.8575,-528.084"/>
</g>
<!-- Node21 -->
<g id="node21" class="node">
<title>Node21</title>
<g id="a_node21"><a xlink:href="../../d8/d78/classPHG4ParticleGeneratorBase.html#a1c8fb7b3cb97ad9c0eb85468be4f0f1b" target="_top" xlink:title="PHG4ParticleGeneratorBase\l::ReuseExistingVertex">
<polygon fill="none" stroke="#000000" points="164,-153.5 164,-185.5 321,-185.5 321,-153.5 164,-153.5"/>
<text text-anchor="start" x="172" y="-172.5" font-family="FreeSans" font-size="10.00" fill="#000000">PHG4ParticleGeneratorBase</text>
<text text-anchor="middle" x="242.5" y="-160.5" font-family="FreeSans" font-size="10.00" fill="#000000">::ReuseExistingVertex</text>
</a>
</g>
</g>
<!-- Node1&#45;&gt;Node21 -->
<g id="edge22" class="edge">
<title>Node1&#45;&gt;Node21</title>
<path fill="none" stroke="#191970" d="M63.2268,-528.2547C70.8419,-477.299 95.9205,-341.0685 157,-246.5 173.1486,-221.4973 199.4633,-199.5148 218.6395,-185.5066"/>
<polygon fill="#191970" stroke="#191970" points="59.7415,-527.9031 61.7906,-538.2979 66.671,-528.8941 59.7415,-527.9031"/>
</g>
<!-- Node3 -->
<g id="node3" class="node">
<title>Node3</title>
<g id="a_node3"><a xlink:href="../../d0/d71/classPHG4TrackFastSimEval.html#ab0136bd1d81150679effd3e148c3cfc4" target="_top" xlink:title="PHG4TrackFastSimEval\l::process_event">
<polygon fill="none" stroke="#000000" points="381,-831.5 381,-863.5 512,-863.5 512,-831.5 381,-831.5"/>
<text text-anchor="start" x="389" y="-850.5" font-family="FreeSans" font-size="10.00" fill="#000000">PHG4TrackFastSimEval</text>
<text text-anchor="middle" x="446.5" y="-838.5" font-family="FreeSans" font-size="10.00" fill="#000000">::process_event</text>
</a>
</g>
</g>
<!-- Node2&#45;&gt;Node3 -->
<g id="edge2" class="edge">
<title>Node2&#45;&gt;Node3</title>
<path fill="none" stroke="#191970" d="M318.4351,-847.5C338.9784,-847.5 361.0337,-847.5 380.9533,-847.5"/>
<polygon fill="#191970" stroke="#191970" points="318.1698,-844.0001 308.1698,-847.5 318.1698,-851.0001 318.1698,-844.0001"/>
</g>
<!-- Node5 -->
<g id="node5" class="node">
<title>Node5</title>
<g id="a_node5"><a xlink:href="../../d8/d97/classTrackFastSimEval.html#a1c1810697243f85b6963d11342852ee8" target="_top" xlink:title="TrackFastSimEval::process\l_event">
<polygon fill="none" stroke="#000000" points="371.5,-780.5 371.5,-812.5 521.5,-812.5 521.5,-780.5 371.5,-780.5"/>
<text text-anchor="start" x="379.5" y="-799.5" font-family="FreeSans" font-size="10.00" fill="#000000">TrackFastSimEval::process</text>
<text text-anchor="middle" x="446.5" y="-787.5" font-family="FreeSans" font-size="10.00" fill="#000000">_event</text>
</a>
</g>
</g>
<!-- Node4&#45;&gt;Node5 -->
<g id="edge4" class="edge">
<title>Node4&#45;&gt;Node5</title>
<path fill="none" stroke="#191970" d="M314.3383,-796.5C332.7773,-796.5 352.6614,-796.5 371.2668,-796.5"/>
<polygon fill="#191970" stroke="#191970" points="314.2604,-793.0001 304.2603,-796.5 314.2603,-800.0001 314.2604,-793.0001"/>
</g>
<!-- Node7 -->
<g id="node7" class="node">
<title>Node7</title>
<g id="a_node7"><a xlink:href="../../d6/d11/classSvtxEvaluator.html#ac66ea4145deb621d9e4fb38cf852dc33" target="_top" xlink:title="SvtxEvaluator::process\l_event">
<polygon fill="none" stroke="#000000" points="380.5,-710.5 380.5,-742.5 512.5,-742.5 512.5,-710.5 380.5,-710.5"/>
<text text-anchor="start" x="388.5" y="-729.5" font-family="FreeSans" font-size="10.00" fill="#000000">SvtxEvaluator::process</text>
<text text-anchor="middle" x="446.5" y="-717.5" font-family="FreeSans" font-size="10.00" fill="#000000">_event</text>
</a>
</g>
</g>
<!-- Node6&#45;&gt;Node7 -->
<g id="edge6" class="edge">
<title>Node6&#45;&gt;Node7</title>
<path fill="none" stroke="#191970" d="M323.3471,-737.9701C342.2361,-736.2109 362.1374,-734.3573 380.3034,-732.6654"/>
<polygon fill="#191970" stroke="#191970" points="322.9091,-734.4957 313.2768,-738.908 323.5583,-741.4655 322.9091,-734.4957"/>
</g>
<!-- Node9 -->
<g id="node9" class="node">
<title>Node9</title>
<g id="a_node9"><a xlink:href="../../dd/d59/classCaloEvaluator.html#a936967e98c89ec58e7851b0661b838c0" target="_top" xlink:title="CaloEvaluator::process\l_event">
<polygon fill="none" stroke="#000000" points="380.5,-532.5 380.5,-564.5 512.5,-564.5 512.5,-532.5 380.5,-532.5"/>
<text text-anchor="start" x="388.5" y="-551.5" font-family="FreeSans" font-size="10.00" fill="#000000">CaloEvaluator::process</text>
<text text-anchor="middle" x="446.5" y="-539.5" font-family="FreeSans" font-size="10.00" fill="#000000">_event</text>
</a>
</g>
</g>
<!-- Node8&#45;&gt;Node9 -->
<g id="edge8" class="edge">
<title>Node8&#45;&gt;Node9</title>
<path fill="none" stroke="#191970" d="M323.3471,-535.2188C342.2361,-537.2559 362.1374,-539.4021 380.3034,-541.3611"/>
<polygon fill="#191970" stroke="#191970" points="323.5944,-531.7253 313.2768,-534.1328 322.8438,-538.6849 323.5944,-531.7253"/>
</g>
<!-- Node11 -->
<g id="node11" class="node">
<title>Node11</title>
<g id="a_node11"><a xlink:href="../../de/d25/classPHGenFitTrkFitter.html#a2e088a68ab24c5b89b902205f877f9d6" target="_top" xlink:title="Process Event, called for each event.">
<polygon fill="none" stroke="#000000" points="392,-639.5 392,-671.5 501,-671.5 501,-639.5 392,-639.5"/>
<text text-anchor="start" x="400" y="-658.5" font-family="FreeSans" font-size="10.00" fill="#000000">PHGenFitTrkFitter::</text>
<text text-anchor="middle" x="446.5" y="-646.5" font-family="FreeSans" font-size="10.00" fill="#000000">process_event</text>
</a>
</g>
</g>
<!-- Node10&#45;&gt;Node11 -->
<g id="edge10" class="edge">
<title>Node10&#45;&gt;Node11</title>
<path fill="none" stroke="#191970" d="M307.3531,-655.5C334.4974,-655.5 365.7067,-655.5 391.6808,-655.5"/>
<polygon fill="#191970" stroke="#191970" points="307.1683,-652.0001 297.1683,-655.5 307.1682,-659.0001 307.1683,-652.0001"/>
</g>
<!-- Node13&#45;&gt;Node9 -->
<g id="edge13" class="edge">
<title>Node13&#45;&gt;Node9</title>
<path fill="none" stroke="#191970" d="M338.4092,-560.6867C352.589,-559.088 366.9264,-557.4715 380.3199,-555.9615"/>
<polygon fill="#191970" stroke="#191970" points="337.6726,-557.2475 328.1277,-561.8459 338.4569,-564.2034 337.6726,-557.2475"/>
</g>
<!-- Node14&#45;&gt;Node7 -->
<g id="edge15" class="edge">
<title>Node14&#45;&gt;Node7</title>
<path fill="none" stroke="#191970" d="M331.2418,-711.8102C347.6845,-713.9059 364.5947,-716.0611 380.2241,-718.0531"/>
<polygon fill="#191970" stroke="#191970" points="331.4422,-708.3075 321.0799,-710.5151 330.5572,-715.2514 331.4422,-708.3075"/>
</g>
<!-- Node20 -->
<g id="node20" class="node">
<title>Node20</title>
<g id="a_node20"><a xlink:href="../../d9/d7b/classQAG4SimulationCalorimeter.html#aa3467829c4182ba4e09f74fd8198cb28" target="_top" xlink:title="QAG4SimulationCalorimeter\l::process_event">
<polygon fill="none" stroke="#000000" points="367,-306.5 367,-338.5 526,-338.5 526,-306.5 367,-306.5"/>
<text text-anchor="start" x="375" y="-325.5" font-family="FreeSans" font-size="10.00" fill="#000000">QAG4SimulationCalorimeter</text>
<text text-anchor="middle" x="446.5" y="-313.5" font-family="FreeSans" font-size="10.00" fill="#000000">::process_event</text>
</a>
</g>
</g>
<!-- Node19&#45;&gt;Node20 -->
<g id="edge21" class="edge">
<title>Node19&#45;&gt;Node20</title>
<path fill="none" stroke="#191970" d="M316.51,-290.0025C338.0247,-295.3812 361.3402,-301.2101 382.2058,-306.4264"/>
<polygon fill="#191970" stroke="#191970" points="317.3172,-286.5966 306.7669,-287.5667 315.6194,-293.3876 317.3172,-286.5966"/>
</g>
<!-- Node22 -->
<g id="node22" class="node">
<title>Node22</title>
<g id="a_node22"><a xlink:href="../../dd/d13/classPHG4ParticleGun.html#a6a76fa0b061c94d8ce36da48fd41d274" target="_top" xlink:title="PHG4ParticleGun::process\l_event">
<polygon fill="none" stroke="#000000" points="372.5,-255.5 372.5,-287.5 520.5,-287.5 520.5,-255.5 372.5,-255.5"/>
<text text-anchor="start" x="380.5" y="-274.5" font-family="FreeSans" font-size="10.00" fill="#000000">PHG4ParticleGun::process</text>
<text text-anchor="middle" x="446.5" y="-262.5" font-family="FreeSans" font-size="10.00" fill="#000000">_event</text>
</a>
</g>
</g>
<!-- Node21&#45;&gt;Node22 -->
<g id="edge23" class="edge">
<title>Node21&#45;&gt;Node22</title>
<path fill="none" stroke="#191970" d="M272.1288,-191.5002C295.9647,-208.3865 330.8375,-231.3091 364,-246.5 371.0754,-249.7411 378.6803,-252.6969 386.3077,-255.3497"/>
<polygon fill="#191970" stroke="#191970" points="274.0362,-188.5611 263.8701,-185.5775 269.9567,-194.2496 274.0362,-188.5611"/>
</g>
<!-- Node23 -->
<g id="node23" class="node">
<title>Node23</title>
<g id="a_node23"><a xlink:href="../../da/ddc/classPHG4IonGun.html#a5a16c52574396043551b429962256e43" target="_top" xlink:title="PHG4IonGun::process\l_event">
<polygon fill="none" stroke="#000000" points="383.5,-204.5 383.5,-236.5 509.5,-236.5 509.5,-204.5 383.5,-204.5"/>
<text text-anchor="start" x="391.5" y="-223.5" font-family="FreeSans" font-size="10.00" fill="#000000">PHG4IonGun::process</text>
<text text-anchor="middle" x="446.5" y="-211.5" font-family="FreeSans" font-size="10.00" fill="#000000">_event</text>
</a>
</g>
</g>
<!-- Node21&#45;&gt;Node23 -->
<g id="edge24" class="edge">
<title>Node21&#45;&gt;Node23</title>
<path fill="none" stroke="#191970" d="M316.654,-188.0385C338.4902,-193.4975 362.1702,-199.4176 383.2549,-204.6887"/>
<polygon fill="#191970" stroke="#191970" points="317.3172,-184.5966 306.7669,-185.5667 315.6194,-191.3876 317.3172,-184.5966"/>
</g>
<!-- Node24 -->
<g id="node24" class="node">
<title>Node24</title>
<g id="a_node24"><a xlink:href="../../dd/d68/classPHG4ParticleGenerator.html#a1292dcb1c73496ea30769a4b8c355780" target="_top" xlink:title="PHG4ParticleGenerator\l::process_event">
<polygon fill="none" stroke="#000000" points="380,-153.5 380,-185.5 513,-185.5 513,-153.5 380,-153.5"/>
<text text-anchor="start" x="388" y="-172.5" font-family="FreeSans" font-size="10.00" fill="#000000">PHG4ParticleGenerator</text>
<text text-anchor="middle" x="446.5" y="-160.5" font-family="FreeSans" font-size="10.00" fill="#000000">::process_event</text>
</a>
</g>
</g>
<!-- Node21&#45;&gt;Node24 -->
<g id="edge25" class="edge">
<title>Node21&#45;&gt;Node24</title>
<path fill="none" stroke="#191970" d="M331.1829,-169.5C347.53,-169.5 364.3414,-169.5 379.8985,-169.5"/>
<polygon fill="#191970" stroke="#191970" points="331.08,-166.0001 321.0799,-169.5 331.0799,-173.0001 331.08,-166.0001"/>
</g>
<!-- Node25 -->
<g id="node25" class="node">
<title>Node25</title>
<g id="a_node25"><a xlink:href="../../d9/d78/classPHG4ParticleGeneratorD0.html#a0d5fb0589e341d72f767844ead51039a" target="_top" xlink:title="PHG4ParticleGeneratorD0\l::process_event">
<polygon fill="none" stroke="#000000" points="373,-102.5 373,-134.5 520,-134.5 520,-102.5 373,-102.5"/>
<text text-anchor="start" x="381" y="-121.5" font-family="FreeSans" font-size="10.00" fill="#000000">PHG4ParticleGeneratorD0</text>
<text text-anchor="middle" x="446.5" y="-109.5" font-family="FreeSans" font-size="10.00" fill="#000000">::process_event</text>
</a>
</g>
</g>
<!-- Node21&#45;&gt;Node25 -->
<g id="edge26" class="edge">
<title>Node21&#45;&gt;Node25</title>
<path fill="none" stroke="#191970" d="M316.51,-150.9975C338.0247,-145.6188 361.3402,-139.7899 382.2058,-134.5736"/>
<polygon fill="#191970" stroke="#191970" points="315.6194,-147.6124 306.7669,-153.4333 317.3172,-154.4034 315.6194,-147.6124"/>
</g>
<!-- Node26 -->
<g id="node26" class="node">
<title>Node26</title>
<g id="a_node26"><a xlink:href="../../d5/df3/classPHG4SimpleEventGenerator.html#a4a7065a5083bd5b21c3743f8e224065b" target="_top" xlink:title="PHG4SimpleEventGenerator\l::process_event">
<polygon fill="none" stroke="#000000" points="366.5,-51.5 366.5,-83.5 526.5,-83.5 526.5,-51.5 366.5,-51.5"/>
<text text-anchor="start" x="374.5" y="-70.5" font-family="FreeSans" font-size="10.00" fill="#000000">PHG4SimpleEventGenerator</text>
<text text-anchor="middle" x="446.5" y="-58.5" font-family="FreeSans" font-size="10.00" fill="#000000">::process_event</text>
</a>
</g>
</g>
<!-- Node21&#45;&gt;Node26 -->
<g id="edge27" class="edge">
<title>Node21&#45;&gt;Node26</title>
<path fill="none" stroke="#191970" d="M272.6566,-147.6065C296.5294,-131.0377 331.2008,-108.6272 364,-93.5 371.9094,-89.8521 380.4696,-86.5226 388.9798,-83.5544"/>
<polygon fill="#191970" stroke="#191970" points="270.5465,-144.8114 264.3734,-153.4222 274.5688,-150.5404 270.5465,-144.8114"/>
</g>
<!-- Node27 -->
<g id="node27" class="node">
<title>Node27</title>
<g id="a_node27"><a xlink:href="../../d7/dc3/classPHG4ParticleGeneratorVectorMeson.html#a31f17c8146593b2d946cc4c2762d25ed" target="_top" xlink:title="PHG4ParticleGeneratorVector\lMeson::process_event">
<polygon fill="none" stroke="#000000" points="364,-.5 364,-32.5 529,-32.5 529,-.5 364,-.5"/>
<text text-anchor="start" x="372" y="-19.5" font-family="FreeSans" font-size="10.00" fill="#000000">PHG4ParticleGeneratorVector</text>
<text text-anchor="middle" x="446.5" y="-7.5" font-family="FreeSans" font-size="10.00" fill="#000000">Meson::process_event</text>
</a>
</g>
</g>
<!-- Node21&#45;&gt;Node27 -->
<g id="edge28" class="edge">
<title>Node21&#45;&gt;Node27</title>
<path fill="none" stroke="#191970" d="M259.7099,-145.14C281.0705,-116.6178 320.0891,-69.811 364,-42.5 370.121,-38.693 376.847,-35.3995 383.736,-32.5609"/>
<polygon fill="#191970" stroke="#191970" points="256.7674,-143.2334 253.6618,-153.3629 262.4064,-147.381 256.7674,-143.2334"/>
</g>
</g>
</svg>
