<?xml version="1.0" encoding="UTF-8" standalone="no"?>
<!DOCTYPE svg PUBLIC "-//W3C//DTD SVG 1.1//EN"
 "http://www.w3.org/Graphics/SVG/1.1/DTD/svg11.dtd">
<!-- Generated by graphviz version 2.40.1 (20161225.0304)
 -->
<!-- Title: PHG4SteppingAction::Verbosity Pages: 1 -->
<svg width="296pt" height="92pt"
 viewBox="0.00 0.00 296.00 92.00" xmlns="http://www.w3.org/2000/svg" xmlns:xlink="http://www.w3.org/1999/xlink">
<g id="graph0" class="graph" transform="scale(1 1) rotate(0) translate(4 88)">
<title>PHG4SteppingAction::Verbosity</title>
<!-- Node1 -->
<g id="node1" class="node">
<title>Node1</title>
<polygon fill="#bfbfbf" stroke="#000000" points="0,-25.5 0,-57.5 121,-57.5 121,-25.5 0,-25.5"/>
<text text-anchor="start" x="8" y="-44.5" font-family="FreeSans" font-size="10.00" fill="#000000">PHG4SteppingAction</text>
<text text-anchor="middle" x="60.5" y="-32.5" font-family="FreeSans" font-size="10.00" fill="#000000">::Verbosity</text>
</g>
<!-- Node2 -->
<g id="node2" class="node">
<title>Node2</title>
<g id="a_node2"><a xlink:href="../../d9/dbf/classPHG4MvtxSubsystem.html#a189efac53cac8a58715d177c664d74c9" target="_top" xlink:title="InitRunSubsystem.">
<polygon fill="none" stroke="#000000" points="157,-51.5 157,-83.5 288,-83.5 288,-51.5 157,-51.5"/>
<text text-anchor="start" x="165" y="-70.5" font-family="FreeSans" font-size="10.00" fill="#000000">PHG4MvtxSubsystem::</text>
<text text-anchor="middle" x="222.5" y="-58.5" font-family="FreeSans" font-size="10.00" fill="#000000">InitRunSubsystem</text>
</a>
</g>
</g>
<!-- Node1&#45;&gt;Node2 -->
<g id="edge1" class="edge">
<title>Node1&#45;&gt;Node2</title>
<path fill="none" stroke="#191970" d="M131.1727,-52.8425C139.6766,-54.2074 148.3349,-55.597 156.7644,-56.9498"/>
<polygon fill="#191970" stroke="#191970" points="131.712,-49.3844 121.2837,-51.2554 130.6027,-56.2959 131.712,-49.3844"/>
</g>
<!-- Node3 -->
<g id="node3" class="node">
<title>Node3</title>
<g id="a_node3"><a xlink:href="../../d6/d09/classPHG4InttSubsystem.html#a1d0b24d27f8bf30d0141354a567b6996" target="_top" xlink:title="init">
<polygon fill="none" stroke="#000000" points="161,-.5 161,-32.5 284,-32.5 284,-.5 161,-.5"/>
<text text-anchor="start" x="169" y="-19.5" font-family="FreeSans" font-size="10.00" fill="#000000">PHG4InttSubsystem::</text>
<text text-anchor="middle" x="222.5" y="-7.5" font-family="FreeSans" font-size="10.00" fill="#000000">InitRunSubsystem</text>
</a>
</g>
</g>
<!-- Node1&#45;&gt;Node3 -->
<g id="edge2" class="edge">
<title>Node1&#45;&gt;Node3</title>
<path fill="none" stroke="#191970" d="M131.4049,-30.5579C141.2104,-29.0447 151.2164,-27.5006 160.836,-26.0161"/>
<polygon fill="#191970" stroke="#191970" points="130.6329,-27.1355 121.2837,-32.1198 131.7006,-34.0536 130.6329,-27.1355"/>
</g>
</g>
</svg>
