<?xml version="1.0" encoding="UTF-8" standalone="no"?>
<!DOCTYPE svg PUBLIC "-//W3C//DTD SVG 1.1//EN"
 "http://www.w3.org/Graphics/SVG/1.1/DTD/svg11.dtd">
<!-- Generated by graphviz version 2.40.1 (20161225.0304)
 -->
<!-- Title: fun4all_g4jleic/blob/master/macros/G4_EndCap_Electron.C Pages: 1 -->
<svg width="166pt" height="215pt"
 viewBox="0.00 0.00 166.00 215.00" xmlns="http://www.w3.org/2000/svg" xmlns:xlink="http://www.w3.org/1999/xlink">
<g id="graph0" class="graph" transform="scale(1 1) rotate(0) translate(4 211)">
<title>fun4all_g4jleic/blob/master/macros/G4_EndCap_Electron.C</title>
<!-- Node1 -->
<g id="node1" class="node">
<title>Node1</title>
<polygon fill="#bfbfbf" stroke="#000000" points="0,-162.5 0,-206.5 158,-206.5 158,-162.5 0,-162.5"/>
<text text-anchor="start" x="8" y="-193.5" font-family="FreeSans" font-size="10.00" fill="#000000">fun4all_g4jleic/blob</text>
<text text-anchor="start" x="8" y="-181.5" font-family="FreeSans" font-size="10.00" fill="#000000">/master/macros/G4_EndCap</text>
<text text-anchor="middle" x="79" y="-169.5" font-family="FreeSans" font-size="10.00" fill="#000000">_Electron.C</text>
</g>
<!-- Node2 -->
<g id="node2" class="node">
<title>Node2</title>
<g id="a_node2"><a xlink:href="../../d0/dd0/G4Setup__JLeic_8C.html" target="_top" xlink:title="fun4all_g4jleic/blob\l/master/macros/G4Setup\l_JLeic.C">
<polygon fill="none" stroke="#000000" points="7,-81.5 7,-125.5 151,-125.5 151,-81.5 7,-81.5"/>
<text text-anchor="start" x="15" y="-112.5" font-family="FreeSans" font-size="10.00" fill="#000000">fun4all_g4jleic/blob</text>
<text text-anchor="start" x="15" y="-100.5" font-family="FreeSans" font-size="10.00" fill="#000000">/master/macros/G4Setup</text>
<text text-anchor="middle" x="79" y="-88.5" font-family="FreeSans" font-size="10.00" fill="#000000">_JLeic.C</text>
</a>
</g>
</g>
<!-- Node1&#45;&gt;Node2 -->
<g id="edge1" class="edge">
<title>Node1&#45;&gt;Node2</title>
<path fill="none" stroke="#191970" d="M79,-152.2457C79,-143.3118 79,-133.8188 79,-125.6068"/>
<polygon fill="#191970" stroke="#191970" points="75.5001,-152.3664 79,-162.3664 82.5001,-152.3664 75.5001,-152.3664"/>
</g>
<!-- Node3 -->
<g id="node3" class="node">
<title>Node3</title>
<g id="a_node3"><a xlink:href="../../d0/d87/Fun4All__G4__JLeic_8C.html" target="_top" xlink:title="fun4all_g4jleic/blob\l/master/macros/Fun4All\l_G4_JLeic.C">
<polygon fill="none" stroke="#000000" points="10.5,-.5 10.5,-44.5 147.5,-44.5 147.5,-.5 10.5,-.5"/>
<text text-anchor="start" x="18.5" y="-31.5" font-family="FreeSans" font-size="10.00" fill="#000000">fun4all_g4jleic/blob</text>
<text text-anchor="start" x="18.5" y="-19.5" font-family="FreeSans" font-size="10.00" fill="#000000">/master/macros/Fun4All</text>
<text text-anchor="middle" x="79" y="-7.5" font-family="FreeSans" font-size="10.00" fill="#000000">_G4_JLeic.C</text>
</a>
</g>
</g>
<!-- Node2&#45;&gt;Node3 -->
<g id="edge2" class="edge">
<title>Node2&#45;&gt;Node3</title>
<path fill="none" stroke="#191970" d="M79,-71.2457C79,-62.3118 79,-52.8188 79,-44.6068"/>
<polygon fill="#191970" stroke="#191970" points="75.5001,-71.3664 79,-81.3664 82.5001,-71.3664 75.5001,-71.3664"/>
</g>
</g>
</svg>
