<?xml version="1.0" encoding="UTF-8" standalone="no"?>
<!DOCTYPE svg PUBLIC "-//W3C//DTD SVG 1.1//EN"
 "http://www.w3.org/Graphics/SVG/1.1/DTD/svg11.dtd">
<!-- Generated by graphviz version 2.40.1 (20161225.0304)
 -->
<!-- Title: FWE::VertexFindingAlgorithm::execute Pages: 1 -->
<svg width="523pt" height="197pt"
 viewBox="0.00 0.00 523.00 197.00" xmlns="http://www.w3.org/2000/svg" xmlns:xlink="http://www.w3.org/1999/xlink">
<g id="graph0" class="graph" transform="scale(1 1) rotate(0) translate(4 193)">
<title>FWE::VertexFindingAlgorithm::execute</title>
<!-- Node1 -->
<g id="node1" class="node">
<title>Node1</title>
<polygon fill="#bfbfbf" stroke="#000000" points="0,-42.5 0,-74.5 164,-74.5 164,-42.5 0,-42.5"/>
<text text-anchor="start" x="8" y="-61.5" font-family="FreeSans" font-size="10.00" fill="#000000">FWE::VertexFindingAlgorithm</text>
<text text-anchor="middle" x="82" y="-49.5" font-family="FreeSans" font-size="10.00" fill="#000000">::execute</text>
</g>
<!-- Node2 -->
<g id="node2" class="node">
<title>Node2</title>
<g id="a_node2"><a xlink:href="../../d7/d91/g3Config_8C.html#aa58262e3cde23ab66e49f3acde7bec14" target="_top" xlink:title="Config">
<polygon fill="none" stroke="#000000" points="236.5,-90.5 236.5,-110.5 284.5,-110.5 284.5,-90.5 236.5,-90.5"/>
<text text-anchor="middle" x="260.5" y="-97.5" font-family="FreeSans" font-size="10.00" fill="#000000">Config</text>
</a>
</g>
</g>
<!-- Node1&#45;&gt;Node2 -->
<g id="edge1" class="edge">
<title>Node1&#45;&gt;Node2</title>
<path fill="none" stroke="#191970" d="M150.2473,-74.5582C176.2979,-80.6877 204.8795,-87.4128 226.4131,-92.4795"/>
<polygon fill="#191970" stroke="#191970" points="225.8401,-95.9402 236.376,-94.8238 227.4434,-89.1263 225.8401,-95.9402"/>
</g>
<!-- Node7 -->
<g id="node7" class="node">
<title>Node7</title>
<g id="a_node7"><a xlink:href="../../db/d77/classFW_1_1WhiteBoard.html#a4d1ec4604d2f3530a5bcafc9b40a045e" target="_top" xlink:title="FW::WhiteBoard::get">
<polygon fill="none" stroke="#000000" points="200,-29.5 200,-49.5 321,-49.5 321,-29.5 200,-29.5"/>
<text text-anchor="middle" x="260.5" y="-36.5" font-family="FreeSans" font-size="10.00" fill="#000000">FW::WhiteBoard::get</text>
</a>
</g>
</g>
<!-- Node1&#45;&gt;Node7 -->
<g id="edge6" class="edge">
<title>Node1&#45;&gt;Node7</title>
<path fill="none" stroke="#191970" d="M164.1967,-49.7508C172.7183,-48.8437 181.3262,-47.9275 189.707,-47.0354"/>
<polygon fill="#191970" stroke="#191970" points="190.2228,-50.5004 199.7961,-45.9615 189.4818,-43.5397 190.2228,-50.5004"/>
</g>
<!-- Node3 -->
<g id="node3" class="node">
<title>Node3</title>
<g id="a_node3"><a xlink:href="../../dd/dbc/classFairRunSim.html#a5ec15ff0cc249b3a195299b6d3acb2a8" target="_top" xlink:title="FairRunSim::GetGeoModel">
<polygon fill="none" stroke="#000000" points="362,-168.5 362,-188.5 510,-188.5 510,-168.5 362,-168.5"/>
<text text-anchor="middle" x="436" y="-175.5" font-family="FreeSans" font-size="10.00" fill="#000000">FairRunSim::GetGeoModel</text>
</a>
</g>
</g>
<!-- Node2&#45;&gt;Node3 -->
<g id="edge2" class="edge">
<title>Node2&#45;&gt;Node3</title>
<path fill="none" stroke="#191970" d="M273.8327,-110.5355C291.8122,-123.6136 325.2476,-146.3592 357,-159.5 362.4275,-161.7462 368.1796,-163.7644 374.0069,-165.5693"/>
<polygon fill="#191970" stroke="#191970" points="373.2627,-168.9973 383.8411,-168.408 375.2041,-162.2719 373.2627,-168.9973"/>
</g>
<!-- Node4 -->
<g id="node4" class="node">
<title>Node4</title>
<g id="a_node4"><a xlink:href="../../dd/dbc/classFairRunSim.html#a733dc616669bd5e542b5c05f6470c744" target="_top" xlink:title="FairRunSim::Instance">
<polygon fill="none" stroke="#000000" points="375,-129.5 375,-149.5 497,-149.5 497,-129.5 375,-129.5"/>
<text text-anchor="middle" x="436" y="-136.5" font-family="FreeSans" font-size="10.00" fill="#000000">FairRunSim::Instance</text>
</a>
</g>
</g>
<!-- Node2&#45;&gt;Node4 -->
<g id="edge3" class="edge">
<title>Node2&#45;&gt;Node4</title>
<path fill="none" stroke="#191970" d="M284.5345,-105.841C309.2917,-111.3426 348.7294,-120.1065 381.1564,-127.3125"/>
<polygon fill="#191970" stroke="#191970" points="380.4497,-130.7408 390.9709,-129.4935 381.9683,-123.9075 380.4497,-130.7408"/>
</g>
<!-- Node5 -->
<g id="node5" class="node">
<title>Node5</title>
<g id="a_node5"><a xlink:href="../../d5/dd2/classPndStack.html#af5a638783c0920ca02d1a6ce97772a3a" target="_top" xlink:title="PndStack::SetMinPoints">
<polygon fill="none" stroke="#000000" points="369,-90.5 369,-110.5 503,-110.5 503,-90.5 369,-90.5"/>
<text text-anchor="middle" x="436" y="-97.5" font-family="FreeSans" font-size="10.00" fill="#000000">PndStack::SetMinPoints</text>
</a>
</g>
</g>
<!-- Node2&#45;&gt;Node5 -->
<g id="edge4" class="edge">
<title>Node2&#45;&gt;Node5</title>
<path fill="none" stroke="#191970" d="M284.5345,-100.5C303.7636,-100.5 331.849,-100.5 358.627,-100.5"/>
<polygon fill="#191970" stroke="#191970" points="358.8048,-104.0001 368.8048,-100.5 358.8047,-97.0001 358.8048,-104.0001"/>
</g>
<!-- Node6 -->
<g id="node6" class="node">
<title>Node6</title>
<g id="a_node6"><a xlink:href="../../d5/dd2/classPndStack.html#aced4053f774b41193f74566acdc8d462" target="_top" xlink:title="PndStack::StoreSecondaries">
<polygon fill="none" stroke="#000000" points="357,-51.5 357,-71.5 515,-71.5 515,-51.5 357,-51.5"/>
<text text-anchor="middle" x="436" y="-58.5" font-family="FreeSans" font-size="10.00" fill="#000000">PndStack::StoreSecondaries</text>
</a>
</g>
</g>
<!-- Node2&#45;&gt;Node6 -->
<g id="edge5" class="edge">
<title>Node2&#45;&gt;Node6</title>
<path fill="none" stroke="#191970" d="M284.5345,-95.159C309.2917,-89.6574 348.7294,-80.8935 381.1564,-73.6875"/>
<polygon fill="#191970" stroke="#191970" points="381.9683,-77.0925 390.9709,-71.5065 380.4497,-70.2592 381.9683,-77.0925"/>
</g>
<!-- Node8 -->
<g id="node8" class="node">
<title>Node8</title>
<g id="a_node8"><a xlink:href="../../d8/d86/structFW_1_1WhiteBoard_1_1IHolder.html#a0f84605eb4db2398e70d2fcbc545ca8a" target="_top" xlink:title="FW::WhiteBoard::IHolder\l::type">
<polygon fill="none" stroke="#000000" points="365.5,-.5 365.5,-32.5 506.5,-32.5 506.5,-.5 365.5,-.5"/>
<text text-anchor="start" x="373.5" y="-19.5" font-family="FreeSans" font-size="10.00" fill="#000000">FW::WhiteBoard::IHolder</text>
<text text-anchor="middle" x="436" y="-7.5" font-family="FreeSans" font-size="10.00" fill="#000000">::type</text>
</a>
</g>
</g>
<!-- Node7&#45;&gt;Node8 -->
<g id="edge7" class="edge">
<title>Node7&#45;&gt;Node8</title>
<path fill="none" stroke="#191970" d="M321.3888,-31.5203C332.3385,-30.0853 343.9058,-28.5693 355.3128,-27.0744"/>
<polygon fill="#191970" stroke="#191970" points="355.816,-30.5385 365.2763,-25.7686 354.9063,-23.5978 355.816,-30.5385"/>
</g>
</g>
</svg>
