<?xml version="1.0" encoding="UTF-8" standalone="no"?>
<!DOCTYPE svg PUBLIC "-//W3C//DTD SVG 1.1//EN"
 "http://www.w3.org/Graphics/SVG/1.1/DTD/svg11.dtd">
<!-- Generated by graphviz version 2.40.1 (20161225.0304)
 -->
<!-- Title: fun4all_coresoftware/blob/master/simulation/g4simulation/g4histos/G4CellNtuple.cc Pages: 1 -->
<svg width="2067pt" height="419pt"
 viewBox="0.00 0.00 2066.82 419.00" xmlns="http://www.w3.org/2000/svg" xmlns:xlink="http://www.w3.org/1999/xlink">
<g id="graph0" class="graph" transform="scale(1 1) rotate(0) translate(4 415)">
<title>fun4all_coresoftware/blob/master/simulation/g4simulation/g4histos/G4CellNtuple.cc</title>
<!-- Node1 -->
<g id="node1" class="node">
<title>Node1</title>
<polygon fill="#bfbfbf" stroke="#000000" points="902.82,-354.5 902.82,-410.5 1039.82,-410.5 1039.82,-354.5 902.82,-354.5"/>
<text text-anchor="start" x="910.82" y="-397.5" font-family="FreeSans" font-size="10.00" fill="#000000">fun4all_coresoftware</text>
<text text-anchor="start" x="910.82" y="-385.5" font-family="FreeSans" font-size="10.00" fill="#000000">/blob/master/simulation</text>
<text text-anchor="start" x="910.82" y="-373.5" font-family="FreeSans" font-size="10.00" fill="#000000">/g4simulation/g4histos</text>
<text text-anchor="middle" x="971.32" y="-361.5" font-family="FreeSans" font-size="10.00" fill="#000000">/G4CellNtuple.cc</text>
</g>
<!-- Node2 -->
<g id="node2" class="node">
<title>Node2</title>
<g id="a_node2"><a xlink:href="../../d4/d22/G4CellNtuple_8h.html" target="_top" xlink:title="G4CellNtuple.h">
<polygon fill="none" stroke="#000000" points="814.32,-240.5 814.32,-260.5 906.32,-260.5 906.32,-240.5 814.32,-240.5"/>
<text text-anchor="middle" x="860.32" y="-247.5" font-family="FreeSans" font-size="10.00" fill="#000000">G4CellNtuple.h</text>
</a>
</g>
</g>
<!-- Node1&#45;&gt;Node2 -->
<g id="edge1" class="edge">
<title>Node1&#45;&gt;Node2</title>
<path fill="none" stroke="#191970" d="M947.5078,-354.1827C925.6878,-328.2346 894.0407,-290.6002 875.4812,-268.5295"/>
<polygon fill="#191970" stroke="#191970" points="877.9505,-266.0277 868.8357,-260.6267 872.5929,-270.533 877.9505,-266.0277"/>
</g>
<!-- Node3 -->
<g id="node3" class="node">
<title>Node3</title>
<g id="a_node3"><a xlink:href="../../d5/dc2/SubsysReco_8h.html" target="_top" xlink:title="fun4all/SubsysReco.h">
<polygon fill="none" stroke="#000000" points="1250.32,-177.5 1250.32,-197.5 1374.32,-197.5 1374.32,-177.5 1250.32,-177.5"/>
<text text-anchor="middle" x="1312.32" y="-184.5" font-family="FreeSans" font-size="10.00" fill="#000000">fun4all/SubsysReco.h</text>
</a>
</g>
</g>
<!-- Node1&#45;&gt;Node3 -->
<g id="edge45" class="edge">
<title>Node1&#45;&gt;Node3</title>
<path fill="none" stroke="#191970" d="M1020.5402,-354.3536C1093.7453,-312.4914 1228.7951,-235.2635 1285.8132,-202.6579"/>
<polygon fill="#191970" stroke="#191970" points="1287.6427,-205.6436 1294.5861,-197.6411 1284.1678,-199.567 1287.6427,-205.6436"/>
</g>
<!-- Node10 -->
<g id="node10" class="node">
<title>Node10</title>
<g id="a_node10"><a xlink:href="../../df/dff/PHG4Cell_8h.html" target="_top" xlink:title="g4detectors/PHG4Cell.h">
<polygon fill="none" stroke="#000000" points="134.32,-177.5 134.32,-197.5 270.32,-197.5 270.32,-177.5 134.32,-177.5"/>
<text text-anchor="middle" x="202.32" y="-184.5" font-family="FreeSans" font-size="10.00" fill="#000000">g4detectors/PHG4Cell.h</text>
</a>
</g>
</g>
<!-- Node1&#45;&gt;Node10 -->
<g id="edge11" class="edge">
<title>Node1&#45;&gt;Node10</title>
<path fill="none" stroke="#191970" d="M902.7387,-379.4909C739.2289,-371.8327 336.1918,-349.9243 284.32,-318 242.7146,-292.394 218.7457,-236.9336 208.4192,-207.2273"/>
<polygon fill="#191970" stroke="#191970" points="211.6833,-205.9497 205.2246,-197.5511 205.0362,-208.1443 211.6833,-205.9497"/>
</g>
<!-- Node16 -->
<g id="node16" class="node">
<title>Node16</title>
<polygon fill="none" stroke="#bfbfbf" points="698.32,-.5 698.32,-20.5 758.32,-20.5 758.32,-.5 698.32,-.5"/>
<text text-anchor="middle" x="728.32" y="-7.5" font-family="FreeSans" font-size="10.00" fill="#000000">iostream</text>
</g>
<!-- Node1&#45;&gt;Node16 -->
<g id="edge83" class="edge">
<title>Node1&#45;&gt;Node16</title>
<path fill="none" stroke="#191970" d="M902.6144,-379.7957C740.5777,-372.9184 338.4296,-352.798 208.32,-318 140.0376,-299.7377 64.32,-321.1824 64.32,-250.5 64.32,-250.5 64.32,-250.5 64.32,-124.5 64.32,-103.8906 -155.8145,-150.1542 220.32,-57 308.9378,-35.0528 584.3015,-18.2966 688.1434,-12.6049"/>
<polygon fill="#191970" stroke="#191970" points="688.4252,-16.0949 698.2208,-12.0579 688.0458,-9.1052 688.4252,-16.0949"/>
</g>
<!-- Node17 -->
<g id="node17" class="node">
<title>Node17</title>
<polygon fill="none" stroke="#bfbfbf" points="92.32,-114.5 92.32,-134.5 140.32,-134.5 140.32,-114.5 92.32,-114.5"/>
<text text-anchor="middle" x="116.32" y="-121.5" font-family="FreeSans" font-size="10.00" fill="#000000">cmath</text>
</g>
<!-- Node1&#45;&gt;Node17 -->
<g id="edge82" class="edge">
<title>Node1&#45;&gt;Node17</title>
<path fill="none" stroke="#191970" d="M902.7381,-381.656C747.0725,-378.8871 371.614,-367.1597 256.32,-318 185.3233,-287.728 161.2139,-272.327 125.32,-204 115.7151,-185.7163 114.2314,-161.8527 114.6753,-145.0588"/>
<polygon fill="#191970" stroke="#191970" points="118.189,-144.8859 115.2144,-134.7172 111.1985,-144.5214 118.189,-144.8859"/>
</g>
<!-- Node18 -->
<g id="node18" class="node">
<title>Node18</title>
<polygon fill="none" stroke="#bfbfbf" points="574.82,-114.5 574.82,-134.5 619.82,-134.5 619.82,-114.5 574.82,-114.5"/>
<text text-anchor="middle" x="597.32" y="-121.5" font-family="FreeSans" font-size="10.00" fill="#000000">utility</text>
</g>
<!-- Node1&#45;&gt;Node18 -->
<g id="edge85" class="edge">
<title>Node1&#45;&gt;Node18</title>
<path fill="none" stroke="#191970" d="M902.6782,-374.2711C749.5491,-354.3545 387.8527,-298.1359 316.32,-204 218.3833,-75.1167 179.5585,-197.8445 541.32,-135 548.8912,-133.6847 557.0244,-132.2008 564.6811,-130.7717"/>
<polygon fill="#191970" stroke="#191970" points="565.5507,-134.1695 574.7294,-128.8778 564.2541,-127.2906 565.5507,-134.1695"/>
</g>
<!-- Node19 -->
<g id="node19" class="node">
<title>Node19</title>
<g id="a_node19"><a xlink:href="../../dd/d32/PHG4CellContainer_8h.html" target="_top" xlink:title="g4detectors/PHG4CellContainer.h">
<polygon fill="none" stroke="#000000" points="325.82,-177.5 325.82,-197.5 510.82,-197.5 510.82,-177.5 325.82,-177.5"/>
<text text-anchor="middle" x="418.32" y="-184.5" font-family="FreeSans" font-size="10.00" fill="#000000">g4detectors/PHG4CellContainer.h</text>
</a>
</g>
</g>
<!-- Node1&#45;&gt;Node19 -->
<g id="edge25" class="edge">
<title>Node1&#45;&gt;Node19</title>
<path fill="none" stroke="#191970" d="M902.6788,-358.2956C785.0438,-316.8149 548.6957,-233.4734 456.4396,-200.9418"/>
<polygon fill="#191970" stroke="#191970" points="457.5364,-197.6174 446.9416,-197.5926 455.2084,-204.219 457.5364,-197.6174"/>
</g>
<!-- Node20 -->
<g id="node20" class="node">
<title>Node20</title>
<g id="a_node20"><a xlink:href="../../d4/da1/PHG4CylinderCellGeom_8h.html" target="_top" xlink:title="g4detectors/PHG4Cylinder\lCellGeom.h">
<polygon fill="none" stroke="#000000" points="854.82,-171.5 854.82,-203.5 1005.82,-203.5 1005.82,-171.5 854.82,-171.5"/>
<text text-anchor="start" x="862.82" y="-190.5" font-family="FreeSans" font-size="10.00" fill="#000000">g4detectors/PHG4Cylinder</text>
<text text-anchor="middle" x="930.32" y="-178.5" font-family="FreeSans" font-size="10.00" fill="#000000">CellGeom.h</text>
</a>
</g>
</g>
<!-- Node1&#45;&gt;Node20 -->
<g id="edge31" class="edge">
<title>Node1&#45;&gt;Node20</title>
<path fill="none" stroke="#191970" d="M965.3583,-354.1453C957.4344,-316.4584 943.5398,-250.3746 935.8435,-213.7702"/>
<polygon fill="#191970" stroke="#191970" points="939.24,-212.9135 933.7572,-203.8476 932.3898,-214.3538 939.24,-212.9135"/>
</g>
<!-- Node21 -->
<g id="node21" class="node">
<title>Node21</title>
<g id="a_node21"><a xlink:href="../../d4/d90/PHG4CylinderCellGeomContainer_8h.html" target="_top" xlink:title="g4detectors/PHG4Cylinder\lCellGeomContainer.h">
<polygon fill="none" stroke="#000000" points="528.82,-171.5 528.82,-203.5 679.82,-203.5 679.82,-171.5 528.82,-171.5"/>
<text text-anchor="start" x="536.82" y="-190.5" font-family="FreeSans" font-size="10.00" fill="#000000">g4detectors/PHG4Cylinder</text>
<text text-anchor="middle" x="604.32" y="-178.5" font-family="FreeSans" font-size="10.00" fill="#000000">CellGeomContainer.h</text>
</a>
</g>
</g>
<!-- Node1&#45;&gt;Node21 -->
<g id="edge36" class="edge">
<title>Node1&#45;&gt;Node21</title>
<path fill="none" stroke="#191970" d="M918.347,-354.3536C843.8398,-314.7652 709.8067,-243.5488 643.5667,-208.3531"/>
<polygon fill="#191970" stroke="#191970" points="645.1563,-205.2344 634.6831,-203.633 641.8717,-211.416 645.1563,-205.2344"/>
</g>
<!-- Node22 -->
<g id="node22" class="node">
<title>Node22</title>
<g id="a_node22"><a xlink:href="../../d0/d59/Fun4AllHistoManager_8h.html" target="_top" xlink:title="fun4all/Fun4AllHistoManager.h">
<polygon fill="none" stroke="#000000" points="1024.32,-177.5 1024.32,-197.5 1194.32,-197.5 1194.32,-177.5 1024.32,-177.5"/>
<text text-anchor="middle" x="1109.32" y="-184.5" font-family="FreeSans" font-size="10.00" fill="#000000">fun4all/Fun4AllHistoManager.h</text>
</a>
</g>
</g>
<!-- Node1&#45;&gt;Node22 -->
<g id="edge41" class="edge">
<title>Node1&#45;&gt;Node22</title>
<path fill="none" stroke="#191970" d="M991.3864,-354.1453C1020.0703,-313.6138 1071.9986,-240.2369 1096.2205,-206.0102"/>
<polygon fill="#191970" stroke="#191970" points="1099.0941,-208.0084 1102.0139,-197.8239 1093.3802,-203.9647 1099.0941,-208.0084"/>
</g>
<!-- Node23 -->
<g id="node23" class="node">
<title>Node23</title>
<g id="a_node23"><a xlink:href="../../dd/dd4/getClass_8h.html" target="_top" xlink:title="phool/getClass.h">
<polygon fill="none" stroke="#000000" points="1329.32,-297.5 1329.32,-317.5 1429.32,-317.5 1429.32,-297.5 1329.32,-297.5"/>
<text text-anchor="middle" x="1379.32" y="-304.5" font-family="FreeSans" font-size="10.00" fill="#000000">phool/getClass.h</text>
</a>
</g>
</g>
<!-- Node1&#45;&gt;Node23 -->
<g id="edge46" class="edge">
<title>Node1&#45;&gt;Node23</title>
<path fill="none" stroke="#191970" d="M1040.0703,-369.8621C1118.2632,-355.4884 1244.7061,-332.2452 1319.1451,-318.5616"/>
<polygon fill="#191970" stroke="#191970" points="1320.0908,-321.9465 1329.2932,-316.6961 1318.8252,-315.0618 1320.0908,-321.9465"/>
</g>
<!-- Node36 -->
<g id="node36" class="node">
<title>Node36</title>
<polygon fill="none" stroke="#bfbfbf" points="1447.32,-297.5 1447.32,-317.5 1497.32,-317.5 1497.32,-297.5 1447.32,-297.5"/>
<text text-anchor="middle" x="1472.32" y="-304.5" font-family="FreeSans" font-size="10.00" fill="#000000">TFile.h</text>
</g>
<!-- Node1&#45;&gt;Node36 -->
<g id="edge78" class="edge">
<title>Node1&#45;&gt;Node36</title>
<path fill="none" stroke="#191970" d="M1039.9966,-376.5345C1129.5479,-367.975 1291.0327,-349.8691 1437.1448,-317.9787"/>
<polygon fill="#191970" stroke="#191970" points="1438.1819,-321.3341 1447.1911,-315.7586 1436.6714,-314.499 1438.1819,-321.3341"/>
</g>
<!-- Node37 -->
<g id="node37" class="node">
<title>Node37</title>
<polygon fill="none" stroke="#bfbfbf" points="1515.82,-297.5 1515.82,-317.5 1562.82,-317.5 1562.82,-297.5 1515.82,-297.5"/>
<text text-anchor="middle" x="1539.32" y="-304.5" font-family="FreeSans" font-size="10.00" fill="#000000">TH1.h</text>
</g>
<!-- Node1&#45;&gt;Node37 -->
<g id="edge79" class="edge">
<title>Node1&#45;&gt;Node37</title>
<path fill="none" stroke="#191970" d="M1039.9897,-378.3667C1140.5198,-371.4032 1333.5489,-354.5718 1505.6719,-317.7769"/>
<polygon fill="#191970" stroke="#191970" points="1506.6389,-321.1487 1515.6715,-315.6114 1505.1572,-314.3073 1506.6389,-321.1487"/>
</g>
<!-- Node38 -->
<g id="node38" class="node">
<title>Node38</title>
<polygon fill="none" stroke="#bfbfbf" points="1581.32,-297.5 1581.32,-317.5 1647.32,-317.5 1647.32,-297.5 1581.32,-297.5"/>
<text text-anchor="middle" x="1614.32" y="-304.5" font-family="FreeSans" font-size="10.00" fill="#000000">TNtuple.h</text>
</g>
<!-- Node1&#45;&gt;Node38 -->
<g id="edge80" class="edge">
<title>Node1&#45;&gt;Node38</title>
<path fill="none" stroke="#191970" d="M1040.2562,-378.2096C1150.5728,-370.6606 1373.6164,-352.5947 1570.9668,-318.0507"/>
<polygon fill="#191970" stroke="#191970" points="1571.7014,-321.4751 1580.939,-316.287 1570.4823,-314.5821 1571.7014,-321.4751"/>
</g>
<!-- Node39 -->
<g id="node39" class="node">
<title>Node39</title>
<polygon fill="none" stroke="#bfbfbf" points="1665.82,-297.5 1665.82,-317.5 1718.82,-317.5 1718.82,-297.5 1665.82,-297.5"/>
<text text-anchor="middle" x="1692.32" y="-304.5" font-family="FreeSans" font-size="10.00" fill="#000000">cassert</text>
</g>
<!-- Node1&#45;&gt;Node39 -->
<g id="edge81" class="edge">
<title>Node1&#45;&gt;Node39</title>
<path fill="none" stroke="#191970" d="M1039.9832,-380.3444C1162.2933,-375.5654 1425.8014,-361.0233 1655.8304,-317.7517"/>
<polygon fill="#191970" stroke="#191970" points="1656.552,-321.1772 1665.7212,-315.8692 1655.2432,-314.3007 1656.552,-321.1772"/>
</g>
<!-- Node40 -->
<g id="node40" class="node">
<title>Node40</title>
<polygon fill="none" stroke="#bfbfbf" points="1737.32,-297.5 1737.32,-317.5 1793.32,-317.5 1793.32,-297.5 1737.32,-297.5"/>
<text text-anchor="middle" x="1765.32" y="-304.5" font-family="FreeSans" font-size="10.00" fill="#000000">sstream</text>
</g>
<!-- Node1&#45;&gt;Node40 -->
<g id="edge84" class="edge">
<title>Node1&#45;&gt;Node40</title>
<path fill="none" stroke="#191970" d="M1040.015,-381.0409C1171.9329,-377.2852 1469.7284,-364.1917 1727.2556,-317.892"/>
<polygon fill="#191970" stroke="#191970" points="1727.9569,-321.3219 1737.1694,-316.0894 1726.7046,-314.4349 1727.9569,-321.3219"/>
</g>
<!-- Node2&#45;&gt;Node3 -->
<g id="edge2" class="edge">
<title>Node2&#45;&gt;Node3</title>
<path fill="none" stroke="#191970" d="M906.5327,-246.1489C977.6637,-239.1446 1118.141,-224.0936 1236.32,-204 1243.8167,-202.7254 1251.6933,-201.213 1259.4197,-199.6291"/>
<polygon fill="#191970" stroke="#191970" points="1260.3807,-203.0036 1269.4459,-197.5198 1258.9395,-196.1536 1260.3807,-203.0036"/>
</g>
<!-- Node6 -->
<g id="node6" class="node">
<title>Node6</title>
<polygon fill="none" stroke="#bfbfbf" points="1306.82,-57.5 1306.82,-77.5 1351.82,-77.5 1351.82,-57.5 1306.82,-57.5"/>
<text text-anchor="middle" x="1329.32" y="-64.5" font-family="FreeSans" font-size="10.00" fill="#000000">string</text>
</g>
<!-- Node2&#45;&gt;Node6 -->
<g id="edge9" class="edge">
<title>Node2&#45;&gt;Node6</title>
<path fill="none" stroke="#191970" d="M906.5417,-248.098C987.8392,-243.2426 1152.6177,-230.4002 1203.32,-204 1217.3556,-196.6918 1283.9293,-120.3586 1314.2334,-85.1338"/>
<polygon fill="#191970" stroke="#191970" points="1316.9188,-87.3789 1320.7766,-77.5113 1311.6074,-82.8194 1316.9188,-87.3789"/>
</g>
<!-- Node7 -->
<g id="node7" class="node">
<title>Node7</title>
<polygon fill="none" stroke="#bfbfbf" points="798.82,-114.5 798.82,-134.5 837.82,-134.5 837.82,-114.5 798.82,-114.5"/>
<text text-anchor="middle" x="818.32" y="-121.5" font-family="FreeSans" font-size="10.00" fill="#000000">map</text>
</g>
<!-- Node2&#45;&gt;Node7 -->
<g id="edge7" class="edge">
<title>Node2&#45;&gt;Node7</title>
<path fill="none" stroke="#191970" d="M814.5254,-240.4496C780.323,-231.9069 737.7611,-218.7113 727.32,-204 718.8313,-192.0395 719.664,-183.5098 727.32,-171 734.4016,-159.4288 765.4971,-145.0883 789.3884,-135.4164"/>
<polygon fill="#191970" stroke="#191970" points="790.7605,-138.6376 798.7715,-131.704 788.1852,-132.1285 790.7605,-138.6376"/>
</g>
<!-- Node8 -->
<g id="node8" class="node">
<title>Node8</title>
<polygon fill="none" stroke="#bfbfbf" points="804.32,-177.5 804.32,-197.5 836.32,-197.5 836.32,-177.5 804.32,-177.5"/>
<text text-anchor="middle" x="820.32" y="-184.5" font-family="FreeSans" font-size="10.00" fill="#000000">set</text>
</g>
<!-- Node2&#45;&gt;Node8 -->
<g id="edge8" class="edge">
<title>Node2&#45;&gt;Node8</title>
<path fill="none" stroke="#191970" d="M853.8933,-240.378C848.0963,-231.2476 839.4185,-217.5801 832.3377,-206.4278"/>
<polygon fill="#191970" stroke="#191970" points="835.1785,-204.3723 826.8637,-197.8062 829.269,-208.1244 835.1785,-204.3723"/>
</g>
<!-- Node9 -->
<g id="node9" class="node">
<title>Node9</title>
<polygon fill="none" stroke="#bfbfbf" points="736.82,-177.5 736.82,-197.5 785.82,-197.5 785.82,-177.5 736.82,-177.5"/>
<text text-anchor="middle" x="761.32" y="-184.5" font-family="FreeSans" font-size="10.00" fill="#000000">vector</text>
</g>
<!-- Node2&#45;&gt;Node9 -->
<g id="edge10" class="edge">
<title>Node2&#45;&gt;Node9</title>
<path fill="none" stroke="#191970" d="M844.414,-240.378C828.6096,-230.3207 804.1545,-214.7583 785.8601,-203.1164"/>
<polygon fill="#191970" stroke="#191970" points="787.5023,-200.0129 777.1866,-197.5969 783.7442,-205.9185 787.5023,-200.0129"/>
</g>
<!-- Node4 -->
<g id="node4" class="node">
<title>Node4</title>
<g id="a_node4"><a xlink:href="../../d2/de7/Fun4AllBase_8h.html" target="_top" xlink:title="Fun4AllBase.h">
<polygon fill="none" stroke="#000000" points="1066.82,-114.5 1066.82,-134.5 1153.82,-134.5 1153.82,-114.5 1066.82,-114.5"/>
<text text-anchor="middle" x="1110.32" y="-121.5" font-family="FreeSans" font-size="10.00" fill="#000000">Fun4AllBase.h</text>
</a>
</g>
</g>
<!-- Node3&#45;&gt;Node4 -->
<g id="edge3" class="edge">
<title>Node3&#45;&gt;Node4</title>
<path fill="none" stroke="#191970" d="M1279.8652,-177.378C1245.262,-166.5859 1190.3344,-149.455 1152.4234,-137.6312"/>
<polygon fill="#191970" stroke="#191970" points="1153.2829,-134.2331 1142.6943,-134.5969 1151.1987,-140.9156 1153.2829,-134.2331"/>
</g>
<!-- Node3&#45;&gt;Node6 -->
<g id="edge6" class="edge">
<title>Node3&#45;&gt;Node6</title>
<path fill="none" stroke="#191970" d="M1313.7694,-177.2689C1316.5672,-157.52 1322.759,-113.8129 1326.4296,-87.9032"/>
<polygon fill="#191970" stroke="#191970" points="1329.937,-88.0973 1327.8743,-77.7052 1323.0062,-87.1154 1329.937,-88.0973"/>
</g>
<!-- Node5 -->
<g id="node5" class="node">
<title>Node5</title>
<polygon fill="none" stroke="#bfbfbf" points="397.82,-57.5 397.82,-77.5 446.82,-77.5 446.82,-57.5 397.82,-57.5"/>
<text text-anchor="middle" x="422.32" y="-64.5" font-family="FreeSans" font-size="10.00" fill="#000000">climits</text>
</g>
<!-- Node4&#45;&gt;Node5 -->
<g id="edge4" class="edge">
<title>Node4&#45;&gt;Node5</title>
<path fill="none" stroke="#191970" d="M1066.7606,-120.8912C939.8671,-110.3782 572.2319,-79.92 457.1709,-70.3874"/>
<polygon fill="#191970" stroke="#191970" points="457.4031,-66.8947 447.1483,-69.557 456.8251,-73.8708 457.4031,-66.8947"/>
</g>
<!-- Node4&#45;&gt;Node6 -->
<g id="edge5" class="edge">
<title>Node4&#45;&gt;Node6</title>
<path fill="none" stroke="#191970" d="M1148.9687,-114.4408C1191.0137,-103.4975 1257.4821,-86.1975 1296.9035,-75.9372"/>
<polygon fill="#191970" stroke="#191970" points="1297.9912,-79.2708 1306.7872,-73.3647 1296.228,-72.4965 1297.9912,-79.2708"/>
</g>
<!-- Node10&#45;&gt;Node5 -->
<g id="edge20" class="edge">
<title>Node10&#45;&gt;Node5</title>
<path fill="none" stroke="#191970" d="M202.4816,-177.3065C203.3095,-161.3997 207.3134,-130.7635 225.32,-114 248.6122,-92.3158 337.553,-78.0391 387.5924,-71.5423"/>
<polygon fill="#191970" stroke="#191970" points="388.159,-74.9987 397.6421,-70.2742 387.2826,-68.0537 388.159,-74.9987"/>
</g>
<!-- Node10&#45;&gt;Node6 -->
<g id="edge23" class="edge">
<title>Node10&#45;&gt;Node6</title>
<path fill="none" stroke="#191970" d="M251.2788,-177.4425C262.1474,-175.2673 273.6172,-173.0163 284.32,-171 375.2263,-153.8746 399.079,-155.342 489.32,-135 523.5058,-127.2939 530.7535,-119.7625 565.32,-114 709.3998,-89.9807 1169.4457,-72.9227 1296.5253,-68.5834"/>
<polygon fill="#191970" stroke="#191970" points="1296.8964,-72.0729 1306.7722,-68.2365 1296.6595,-65.0769 1296.8964,-72.0729"/>
</g>
<!-- Node10&#45;&gt;Node7 -->
<g id="edge22" class="edge">
<title>Node10&#45;&gt;Node7</title>
<path fill="none" stroke="#191970" d="M266.134,-177.4857C282.4666,-175.1367 300.0206,-172.7977 316.32,-171 522.6051,-148.2478 581.3672,-178.3267 788.5797,-134.5951"/>
<polygon fill="#191970" stroke="#191970" points="789.5157,-137.9741 798.5603,-132.4563 788.0489,-131.1294 789.5157,-137.9741"/>
</g>
<!-- Node11 -->
<g id="node11" class="node">
<title>Node11</title>
<g id="a_node11"><a xlink:href="../../d5/d61/PHG4CellDefs_8h.html" target="_top" xlink:title="PHG4CellDefs.h">
<polygon fill="none" stroke="#000000" points="234.82,-114.5 234.82,-134.5 329.82,-134.5 329.82,-114.5 234.82,-114.5"/>
<text text-anchor="middle" x="282.32" y="-121.5" font-family="FreeSans" font-size="10.00" fill="#000000">PHG4CellDefs.h</text>
</a>
</g>
</g>
<!-- Node10&#45;&gt;Node11 -->
<g id="edge12" class="edge">
<title>Node10&#45;&gt;Node11</title>
<path fill="none" stroke="#191970" d="M215.1734,-177.378C227.653,-167.5503 246.8076,-152.4661 261.4694,-140.9198"/>
<polygon fill="#191970" stroke="#191970" points="263.8076,-143.5336 269.4986,-134.5969 259.4767,-138.0341 263.8076,-143.5336"/>
</g>
<!-- Node13 -->
<g id="node13" class="node">
<title>Node13</title>
<g id="a_node13"><a xlink:href="../../d2/d92/PHG4HitDefs_8h.html" target="_top" xlink:title="g4main/PHG4HitDefs.h">
<polygon fill="none" stroke="#000000" points="348.32,-114.5 348.32,-134.5 480.32,-134.5 480.32,-114.5 348.32,-114.5"/>
<text text-anchor="middle" x="414.32" y="-121.5" font-family="FreeSans" font-size="10.00" fill="#000000">g4main/PHG4HitDefs.h</text>
</a>
</g>
</g>
<!-- Node10&#45;&gt;Node13 -->
<g id="edge14" class="edge">
<title>Node10&#45;&gt;Node13</title>
<path fill="none" stroke="#191970" d="M236.3815,-177.378C272.8523,-166.54 330.8355,-149.3091 370.6393,-137.4806"/>
<polygon fill="#191970" stroke="#191970" points="371.7544,-140.8006 380.3431,-134.5969 369.7604,-134.0906 371.7544,-140.8006"/>
</g>
<!-- Node14 -->
<g id="node14" class="node">
<title>Node14</title>
<g id="a_node14"><a xlink:href="../../df/d32/PHObject_8h.html" target="_top" xlink:title="phool/PHObject.h">
<polygon fill="none" stroke="#000000" points="676.32,-114.5 676.32,-134.5 780.32,-134.5 780.32,-114.5 676.32,-114.5"/>
<text text-anchor="middle" x="728.32" y="-121.5" font-family="FreeSans" font-size="10.00" fill="#000000">phool/PHObject.h</text>
</a>
</g>
</g>
<!-- Node10&#45;&gt;Node14 -->
<g id="edge16" class="edge">
<title>Node10&#45;&gt;Node14</title>
<path fill="none" stroke="#191970" d="M269.1836,-177.4647C284.6492,-175.2429 301.0478,-172.9666 316.32,-171 382.3418,-162.4985 568.0189,-142.0094 665.9927,-131.2919"/>
<polygon fill="#191970" stroke="#191970" points="666.4953,-134.7579 676.0556,-130.1917 665.7345,-127.7994 666.4953,-134.7579"/>
</g>
<!-- Node10&#45;&gt;Node16 -->
<g id="edge21" class="edge">
<title>Node10&#45;&gt;Node16</title>
<path fill="none" stroke="#191970" d="M201.5305,-177.1699C200.7783,-162.6229 200.704,-135.4788 208.32,-114 218.5784,-85.0692 220.891,-72.6119 247.32,-57 284.895,-34.8041 579.1426,-17.9706 688.0045,-12.4454"/>
<polygon fill="#191970" stroke="#191970" points="688.4347,-15.9283 698.2466,-11.9313 688.0837,-8.9371 688.4347,-15.9283"/>
</g>
<!-- Node10&#45;&gt;Node17 -->
<g id="edge19" class="edge">
<title>Node10&#45;&gt;Node17</title>
<path fill="none" stroke="#191970" d="M188.5027,-177.378C174.9617,-167.4584 154.1104,-152.1837 138.2938,-140.597"/>
<polygon fill="#191970" stroke="#191970" points="140.2385,-137.6831 130.1031,-134.5969 136.1018,-143.33 140.2385,-137.6831"/>
</g>
<!-- Node10&#45;&gt;Node18 -->
<g id="edge24" class="edge">
<title>Node10&#45;&gt;Node18</title>
<path fill="none" stroke="#191970" d="M249.9388,-177.4902C261.1916,-175.2436 273.1624,-172.9501 284.32,-171 337.8715,-161.6406 495.6945,-138.9607 564.5592,-129.1502"/>
<polygon fill="#191970" stroke="#191970" points="565.4111,-132.5643 574.8182,-127.6902 564.4248,-125.6342 565.4111,-132.5643"/>
</g>
<!-- Node12 -->
<g id="node12" class="node">
<title>Node12</title>
<polygon fill="none" stroke="#bfbfbf" points="256.82,-57.5 256.82,-77.5 307.82,-77.5 307.82,-57.5 256.82,-57.5"/>
<text text-anchor="middle" x="282.32" y="-64.5" font-family="FreeSans" font-size="10.00" fill="#000000">cstdint</text>
</g>
<!-- Node11&#45;&gt;Node12 -->
<g id="edge13" class="edge">
<title>Node11&#45;&gt;Node12</title>
<path fill="none" stroke="#191970" d="M282.32,-114.3095C282.32,-106.9335 282.32,-96.72 282.32,-87.715"/>
<polygon fill="#191970" stroke="#191970" points="285.8201,-87.6022 282.32,-77.6022 278.8201,-87.6023 285.8201,-87.6022"/>
</g>
<!-- Node13&#45;&gt;Node6 -->
<g id="edge15" class="edge">
<title>Node13&#45;&gt;Node6</title>
<path fill="none" stroke="#191970" d="M480.6312,-115.408C485.2595,-114.8931 489.8569,-114.4166 494.32,-114 805.6038,-84.9456 1183.9905,-71.8695 1296.3616,-68.448"/>
<polygon fill="#191970" stroke="#191970" points="1296.7997,-71.9366 1306.6902,-68.1381 1296.5896,-64.9397 1296.7997,-71.9366"/>
</g>
<!-- Node15 -->
<g id="node15" class="node">
<title>Node15</title>
<polygon fill="none" stroke="#bfbfbf" points="1993.82,-57.5 1993.82,-77.5 2058.82,-77.5 2058.82,-57.5 1993.82,-57.5"/>
<text text-anchor="middle" x="2026.32" y="-64.5" font-family="FreeSans" font-size="10.00" fill="#000000">TObject.h</text>
</g>
<!-- Node14&#45;&gt;Node15 -->
<g id="edge17" class="edge">
<title>Node14&#45;&gt;Node15</title>
<path fill="none" stroke="#191970" d="M780.4976,-115.0243C783.4768,-114.6374 786.4332,-114.291 789.32,-114 1311.8047,-61.3302 1448.2419,-134.5575 1970.32,-78 1974.5794,-77.5386 1979.0005,-76.9327 1983.4067,-76.2445"/>
<polygon fill="#191970" stroke="#191970" points="1984.3042,-79.6423 1993.5776,-74.5185 1983.1329,-72.741 1984.3042,-79.6423"/>
</g>
<!-- Node14&#45;&gt;Node16 -->
<g id="edge18" class="edge">
<title>Node14&#45;&gt;Node16</title>
<path fill="none" stroke="#191970" d="M728.32,-114.3833C728.32,-95.6703 728.32,-55.3266 728.32,-30.7866"/>
<polygon fill="#191970" stroke="#191970" points="731.8201,-30.7579 728.32,-20.7579 724.8201,-30.758 731.8201,-30.7579"/>
</g>
<!-- Node19&#45;&gt;Node7 -->
<g id="edge29" class="edge">
<title>Node19&#45;&gt;Node7</title>
<path fill="none" stroke="#191970" d="M477.8229,-177.4808C491.4467,-175.2698 505.8752,-172.9941 519.32,-171 635.9145,-153.707 669.9445,-163.2372 788.6881,-134.7057"/>
<polygon fill="#191970" stroke="#191970" points="789.6413,-138.0758 798.525,-132.3027 787.9801,-131.2758 789.6413,-138.0758"/>
</g>
<!-- Node19&#45;&gt;Node11 -->
<g id="edge26" class="edge">
<title>Node19&#45;&gt;Node11</title>
<path fill="none" stroke="#191970" d="M396.4693,-177.378C373.9652,-166.9533 338.6931,-150.614 313.3124,-138.8568"/>
<polygon fill="#191970" stroke="#191970" points="314.6615,-135.6244 304.1166,-134.5969 311.7191,-141.9761 314.6615,-135.6244"/>
</g>
<!-- Node19&#45;&gt;Node14 -->
<g id="edge27" class="edge">
<title>Node19&#45;&gt;Node14</title>
<path fill="none" stroke="#191970" d="M467.7832,-177.4478C522.5629,-166.3152 610.835,-148.376 669.2136,-136.512"/>
<polygon fill="#191970" stroke="#191970" points="669.9304,-139.9379 679.033,-134.5164 668.5363,-133.0781 669.9304,-139.9379"/>
</g>
<!-- Node19&#45;&gt;Node16 -->
<g id="edge28" class="edge">
<title>Node19&#45;&gt;Node16</title>
<path fill="none" stroke="#191970" d="M435.8752,-177.4766C487.6525,-147.9134 639.9741,-60.9427 701.794,-25.6455"/>
<polygon fill="#191970" stroke="#191970" points="703.6245,-28.6308 710.5732,-20.6329 700.1536,-22.5518 703.6245,-28.6308"/>
</g>
<!-- Node19&#45;&gt;Node18 -->
<g id="edge30" class="edge">
<title>Node19&#45;&gt;Node18</title>
<path fill="none" stroke="#191970" d="M447.0795,-177.378C479.2321,-166.0617 531.1869,-147.7759 564.7953,-135.9473"/>
<polygon fill="#191970" stroke="#191970" points="566.3234,-139.12 574.5942,-132.4985 563.9994,-132.517 566.3234,-139.12"/>
</g>
<!-- Node20&#45;&gt;Node6 -->
<g id="edge34" class="edge">
<title>Node20&#45;&gt;Node6</title>
<path fill="none" stroke="#191970" d="M952.5148,-171.3497C976.9603,-154.3759 1018.0311,-128.2073 1057.32,-114 1140.1792,-84.0373 1244.3718,-73.1262 1296.4776,-69.3573"/>
<polygon fill="#191970" stroke="#191970" points="1297.0398,-72.8272 1306.7795,-68.6571 1296.5651,-65.8433 1297.0398,-72.8272"/>
</g>
<!-- Node20&#45;&gt;Node14 -->
<g id="edge32" class="edge">
<title>Node20&#45;&gt;Node14</title>
<path fill="none" stroke="#191970" d="M878.8242,-171.4394C845.1778,-160.9457 801.7935,-147.415 770.2553,-137.5788"/>
<polygon fill="#191970" stroke="#191970" points="771.0478,-134.1598 760.4592,-134.5236 768.9636,-140.8423 771.0478,-134.1598"/>
</g>
<!-- Node20&#45;&gt;Node16 -->
<g id="edge33" class="edge">
<title>Node20&#45;&gt;Node16</title>
<path fill="none" stroke="#191970" d="M912.0376,-171.4803C873.957,-138.1125 786.4516,-61.4371 747.5589,-27.3578"/>
<polygon fill="#191970" stroke="#191970" points="749.8605,-24.721 740.0327,-20.7631 745.2473,-29.9859 749.8605,-24.721"/>
</g>
<!-- Node20&#45;&gt;Node18 -->
<g id="edge35" class="edge">
<title>Node20&#45;&gt;Node18</title>
<path fill="none" stroke="#191970" d="M854.7811,-172.8106C851.585,-172.1973 848.4209,-171.5917 845.32,-171 768.1122,-156.2682 677.3022,-139.3439 629.8863,-130.5377"/>
<polygon fill="#191970" stroke="#191970" points="630.3682,-127.0674 619.8974,-128.6834 629.0906,-133.9498 630.3682,-127.0674"/>
</g>
<!-- Node21&#45;&gt;Node7 -->
<g id="edge39" class="edge">
<title>Node21&#45;&gt;Node7</title>
<path fill="none" stroke="#191970" d="M665.0518,-171.4317C698.9761,-162.1855 742.1752,-149.9672 789.0015,-134.9497"/>
<polygon fill="#191970" stroke="#191970" points="790.2902,-138.2115 798.7294,-131.806 788.1377,-131.5507 790.2902,-138.2115"/>
</g>
<!-- Node21&#45;&gt;Node14 -->
<g id="edge37" class="edge">
<title>Node21&#45;&gt;Node14</title>
<path fill="none" stroke="#191970" d="M635.9313,-171.4394C655.4512,-161.5221 680.3103,-148.892 699.3242,-139.2317"/>
<polygon fill="#191970" stroke="#191970" points="701.077,-142.2671 708.407,-134.6171 697.9063,-136.0264 701.077,-142.2671"/>
</g>
<!-- Node21&#45;&gt;Node16 -->
<g id="edge38" class="edge">
<title>Node21&#45;&gt;Node16</title>
<path fill="none" stroke="#191970" d="M615.5429,-171.4803C638.5279,-138.671 690.8458,-63.9915 715.2865,-29.1043"/>
<polygon fill="#191970" stroke="#191970" points="718.2589,-30.9615 721.1301,-20.7631 712.5257,-26.945 718.2589,-30.9615"/>
</g>
<!-- Node21&#45;&gt;Node18 -->
<g id="edge40" class="edge">
<title>Node21&#45;&gt;Node18</title>
<path fill="none" stroke="#191970" d="M602.5174,-171.2759C601.6173,-163.1754 600.5197,-153.2966 599.5654,-144.7084"/>
<polygon fill="#191970" stroke="#191970" points="603.0421,-144.3036 598.4591,-134.7513 596.0849,-145.0767 603.0421,-144.3036"/>
</g>
<!-- Node22&#45;&gt;Node4 -->
<g id="edge42" class="edge">
<title>Node22&#45;&gt;Node4</title>
<path fill="none" stroke="#191970" d="M1109.4807,-177.378C1109.6184,-168.7041 1109.8211,-155.9355 1109.9928,-145.1186"/>
<polygon fill="#191970" stroke="#191970" points="1113.4972,-144.8605 1110.1564,-134.8062 1106.4981,-144.7494 1113.4972,-144.8605"/>
</g>
<!-- Node22&#45;&gt;Node6 -->
<g id="edge44" class="edge">
<title>Node22&#45;&gt;Node6</title>
<path fill="none" stroke="#191970" d="M1120.7966,-177.332C1138.5458,-162.0023 1174.1814,-132.7728 1208.32,-114 1236.9177,-98.2742 1271.9444,-85.4432 1296.9392,-77.2738"/>
<polygon fill="#191970" stroke="#191970" points="1298.1969,-80.5463 1306.656,-74.1671 1296.0651,-73.8787 1298.1969,-80.5463"/>
</g>
<!-- Node22&#45;&gt;Node7 -->
<g id="edge43" class="edge">
<title>Node22&#45;&gt;Node7</title>
<path fill="none" stroke="#191970" d="M1062.8884,-177.4478C1002.516,-164.3775 898.8072,-141.9251 848.0532,-130.9371"/>
<polygon fill="#191970" stroke="#191970" points="848.5754,-127.4691 838.0612,-128.7739 847.0942,-134.3106 848.5754,-127.4691"/>
</g>
<!-- Node23&#45;&gt;Node6 -->
<g id="edge77" class="edge">
<title>Node23&#45;&gt;Node6</title>
<path fill="none" stroke="#191970" d="M1381.4314,-297.3734C1385.8186,-274.4608 1394.6114,-217.0521 1383.32,-171 1382.2137,-166.4879 1354.9839,-115.3321 1339.624,-86.6719"/>
<polygon fill="#191970" stroke="#191970" points="1342.5608,-84.7425 1334.7483,-77.5859 1336.3927,-88.0524 1342.5608,-84.7425"/>
</g>
<!-- Node23&#45;&gt;Node15 -->
<g id="edge76" class="edge">
<title>Node23&#45;&gt;Node15</title>
<path fill="none" stroke="#191970" d="M1429.4808,-298.2281C1432.4671,-297.7834 1435.4304,-297.3693 1438.32,-297 1641.7351,-271.0034 1702.4249,-321.6517 1898.32,-261 1946.8204,-245.9837 1962.8143,-241.2442 1997.32,-204 2026.2748,-172.7473 2032.1474,-156.5649 2030.32,-114 2029.9521,-105.4291 2029.2043,-95.9941 2028.4538,-87.8757"/>
<polygon fill="#191970" stroke="#191970" points="2031.9274,-87.4349 2027.4641,-77.8261 2024.9611,-88.121 2031.9274,-87.4349"/>
</g>
<!-- Node24 -->
<g id="node24" class="node">
<title>Node24</title>
<g id="a_node24"><a xlink:href="../../dd/d9b/PHDataNode_8h.html" target="_top" xlink:title="PHDataNode.h">
<polygon fill="none" stroke="#000000" points="1720.82,-177.5 1720.82,-197.5 1809.82,-197.5 1809.82,-177.5 1720.82,-177.5"/>
<text text-anchor="middle" x="1765.32" y="-184.5" font-family="FreeSans" font-size="10.00" fill="#000000">PHDataNode.h</text>
</a>
</g>
</g>
<!-- Node23&#45;&gt;Node24 -->
<g id="edge47" class="edge">
<title>Node23&#45;&gt;Node24</title>
<path fill="none" stroke="#191970" d="M1429.5077,-298.4183C1432.4873,-297.9258 1435.4418,-297.4492 1438.32,-297 1557.0634,-278.4672 1601.6662,-320.0849 1706.32,-261 1728.4749,-248.4919 1745.4822,-224.0645 1755.422,-206.8104"/>
<polygon fill="#191970" stroke="#191970" points="1758.7178,-208.0782 1760.4433,-197.6248 1752.5756,-204.7206 1758.7178,-208.0782"/>
</g>
<!-- Node25 -->
<g id="node25" class="node">
<title>Node25</title>
<g id="a_node25"><a xlink:href="../../d3/d62/PHNode_8h.html" target="_top" xlink:title="PHNode.h">
<polygon fill="none" stroke="#000000" points="1734.82,-114.5 1734.82,-134.5 1799.82,-134.5 1799.82,-114.5 1734.82,-114.5"/>
<text text-anchor="middle" x="1767.32" y="-121.5" font-family="FreeSans" font-size="10.00" fill="#000000">PHNode.h</text>
</a>
</g>
</g>
<!-- Node23&#45;&gt;Node25 -->
<g id="edge74" class="edge">
<title>Node23&#45;&gt;Node25</title>
<path fill="none" stroke="#191970" d="M1429.5278,-298.5396C1432.5023,-298.0166 1435.4502,-297.5002 1438.32,-297 1532.0402,-280.6656 1568.9479,-311.8979 1649.32,-261 1690.5704,-234.8771 1679.403,-207.062 1712.32,-171 1722.2974,-160.0694 1734.8057,-149.3063 1745.3718,-140.8923"/>
<polygon fill="#191970" stroke="#191970" points="1747.6004,-143.593 1753.3437,-134.6898 1743.3019,-138.0682 1747.6004,-143.593"/>
</g>
<!-- Node27 -->
<g id="node27" class="node">
<title>Node27</title>
<g id="a_node27"><a xlink:href="../../d3/d79/PHIODataNode_8h.html" target="_top" xlink:title="PHIODataNode.h">
<polygon fill="none" stroke="#000000" points="1540.32,-240.5 1540.32,-260.5 1640.32,-260.5 1640.32,-240.5 1540.32,-240.5"/>
<text text-anchor="middle" x="1590.32" y="-247.5" font-family="FreeSans" font-size="10.00" fill="#000000">PHIODataNode.h</text>
</a>
</g>
</g>
<!-- Node23&#45;&gt;Node27 -->
<g id="edge52" class="edge">
<title>Node23&#45;&gt;Node27</title>
<path fill="none" stroke="#191970" d="M1416.5569,-297.4408C1451.853,-287.9058 1505.0138,-273.5448 1543.2357,-263.2195"/>
<polygon fill="#191970" stroke="#191970" points="1544.36,-266.5413 1553.1012,-260.5544 1542.5344,-259.7835 1544.36,-266.5413"/>
</g>
<!-- Node33 -->
<g id="node33" class="node">
<title>Node33</title>
<g id="a_node33"><a xlink:href="../../d8/dfd/PHNodeIterator_8h.html" target="_top" xlink:title="PHNodeIterator.h">
<polygon fill="none" stroke="#000000" points="1894.32,-114.5 1894.32,-134.5 1996.32,-134.5 1996.32,-114.5 1894.32,-114.5"/>
<text text-anchor="middle" x="1945.32" y="-121.5" font-family="FreeSans" font-size="10.00" fill="#000000">PHNodeIterator.h</text>
</a>
</g>
</g>
<!-- Node23&#45;&gt;Node33 -->
<g id="edge75" class="edge">
<title>Node23&#45;&gt;Node33</title>
<path fill="none" stroke="#191970" d="M1429.5018,-298.3797C1432.4829,-297.8969 1435.4393,-297.433 1438.32,-297 1556.7855,-279.1941 1895.1291,-298.0575 1969.32,-204 1983.3864,-186.1671 1971.0514,-160.1757 1959.4822,-142.8204"/>
<polygon fill="#191970" stroke="#191970" points="1962.2963,-140.7383 1953.646,-134.6209 1956.5934,-144.7975 1962.2963,-140.7383"/>
</g>
<!-- Node24&#45;&gt;Node16 -->
<g id="edge51" class="edge">
<title>Node24&#45;&gt;Node16</title>
<path fill="none" stroke="#191970" d="M1777.7283,-177.3352C1788.41,-167.7141 1803.0613,-152.2116 1809.32,-135 1815.9979,-116.6359 1815.033,-67.2485 1804.32,-57 1766.2171,-20.5489 959.578,-12.2306 768.5996,-10.7693"/>
<polygon fill="#191970" stroke="#191970" points="768.4633,-7.2682 758.4375,-10.6936 768.4111,-14.2681 768.4633,-7.2682"/>
</g>
<!-- Node24&#45;&gt;Node25 -->
<g id="edge48" class="edge">
<title>Node24&#45;&gt;Node25</title>
<path fill="none" stroke="#191970" d="M1765.6414,-177.378C1765.9167,-168.7041 1766.3221,-155.9355 1766.6655,-145.1186"/>
<polygon fill="#191970" stroke="#191970" points="1770.1737,-144.9123 1766.9929,-134.8062 1763.1772,-144.6901 1770.1737,-144.9123"/>
</g>
<!-- Node25&#45;&gt;Node6 -->
<g id="edge50" class="edge">
<title>Node25&#45;&gt;Node6</title>
<path fill="none" stroke="#191970" d="M1734.626,-120.1989C1720.1341,-118.2949 1702.877,-116.0313 1687.32,-114 1567.4727,-98.3516 1425.0376,-79.8923 1362.0532,-71.7368"/>
<polygon fill="#191970" stroke="#191970" points="1362.3061,-68.2404 1351.9395,-70.4273 1361.4073,-75.1824 1362.3061,-68.2404"/>
</g>
<!-- Node26 -->
<g id="node26" class="node">
<title>Node26</title>
<polygon fill="none" stroke="#bfbfbf" points="1747.32,-57.5 1747.32,-77.5 1795.32,-77.5 1795.32,-57.5 1747.32,-57.5"/>
<text text-anchor="middle" x="1771.32" y="-64.5" font-family="FreeSans" font-size="10.00" fill="#000000">iosfwd</text>
</g>
<!-- Node25&#45;&gt;Node26 -->
<g id="edge49" class="edge">
<title>Node25&#45;&gt;Node26</title>
<path fill="none" stroke="#191970" d="M1768.0352,-114.3095C1768.5528,-106.9335 1769.2695,-96.72 1769.9014,-87.715"/>
<polygon fill="#191970" stroke="#191970" points="1773.4024,-87.8227 1770.6111,-77.6022 1766.4196,-87.3327 1773.4024,-87.8227"/>
</g>
<!-- Node27&#45;&gt;Node6 -->
<g id="edge73" class="edge">
<title>Node27&#45;&gt;Node6</title>
<path fill="none" stroke="#191970" d="M1553.0187,-240.4802C1528.1083,-232.7807 1495.2801,-220.633 1469.32,-204 1416.7367,-170.3092 1367.4294,-114.5485 1343.8451,-85.8369"/>
<polygon fill="#191970" stroke="#191970" points="1346.3898,-83.4178 1337.3765,-77.8491 1340.9499,-87.8232 1346.3898,-83.4178"/>
</g>
<!-- Node27&#45;&gt;Node15 -->
<g id="edge72" class="edge">
<title>Node27&#45;&gt;Node15</title>
<path fill="none" stroke="#191970" d="M1640.4693,-246.9453C1737.2875,-239.7078 1942.7913,-222.3837 1969.32,-204 2008.047,-177.1632 2020.5412,-118.6834 2024.5123,-87.7001"/>
<polygon fill="#191970" stroke="#191970" points="2028.0045,-87.9624 2025.6225,-77.6388 2021.0467,-87.1945 2028.0045,-87.9624"/>
</g>
<!-- Node27&#45;&gt;Node24 -->
<g id="edge53" class="edge">
<title>Node27&#45;&gt;Node24</title>
<path fill="none" stroke="#191970" d="M1618.4368,-240.378C1648.0321,-229.7236 1694.7885,-212.8913 1727.5794,-201.0866"/>
<polygon fill="#191970" stroke="#191970" points="1729.0497,-204.2773 1737.273,-197.5969 1726.6786,-197.6911 1729.0497,-204.2773"/>
</g>
<!-- Node28 -->
<g id="node28" class="node">
<title>Node28</title>
<g id="a_node28"><a xlink:href="../../d9/d53/PHIOManager_8h.html" target="_top" xlink:title="PHIOManager.h">
<polygon fill="none" stroke="#000000" points="1584.82,-114.5 1584.82,-134.5 1677.82,-134.5 1677.82,-114.5 1584.82,-114.5"/>
<text text-anchor="middle" x="1631.32" y="-121.5" font-family="FreeSans" font-size="10.00" fill="#000000">PHIOManager.h</text>
</a>
</g>
</g>
<!-- Node27&#45;&gt;Node28 -->
<g id="edge54" class="edge">
<title>Node27&#45;&gt;Node28</title>
<path fill="none" stroke="#191970" d="M1605.1389,-240.1977C1615.7722,-231.8344 1629.252,-218.9961 1635.32,-204 1642.9854,-185.0565 1640.4605,-161.4716 1636.9603,-144.9282"/>
<polygon fill="#191970" stroke="#191970" points="1640.2494,-143.6391 1634.4944,-134.7436 1633.4459,-145.2864 1640.2494,-143.6391"/>
</g>
<!-- Node30 -->
<g id="node30" class="node">
<title>Node30</title>
<g id="a_node30"><a xlink:href="../../dd/de7/PHNodeIOManager_8h.html" target="_top" xlink:title="PHNodeIOManager.h">
<polygon fill="none" stroke="#000000" points="1506.32,-177.5 1506.32,-197.5 1626.32,-197.5 1626.32,-177.5 1506.32,-177.5"/>
<text text-anchor="middle" x="1566.32" y="-184.5" font-family="FreeSans" font-size="10.00" fill="#000000">PHNodeIOManager.h</text>
</a>
</g>
</g>
<!-- Node27&#45;&gt;Node30 -->
<g id="edge57" class="edge">
<title>Node27&#45;&gt;Node30</title>
<path fill="none" stroke="#191970" d="M1586.464,-240.378C1583.0901,-231.5215 1578.09,-218.396 1573.9155,-207.4381"/>
<polygon fill="#191970" stroke="#191970" points="1577.0769,-205.9051 1570.2462,-197.8062 1570.5355,-208.3971 1577.0769,-205.9051"/>
</g>
<!-- Node32 -->
<g id="node32" class="node">
<title>Node32</title>
<g id="a_node32"><a xlink:href="../../db/d17/PHTypedNodeIterator_8h.html" target="_top" xlink:title="PHTypedNodeIterator.h">
<polygon fill="none" stroke="#000000" points="1828.32,-177.5 1828.32,-197.5 1960.32,-197.5 1960.32,-177.5 1828.32,-177.5"/>
<text text-anchor="middle" x="1894.32" y="-184.5" font-family="FreeSans" font-size="10.00" fill="#000000">PHTypedNodeIterator.h</text>
</a>
</g>
</g>
<!-- Node27&#45;&gt;Node32 -->
<g id="edge64" class="edge">
<title>Node27&#45;&gt;Node32</title>
<path fill="none" stroke="#191970" d="M1640.4013,-240.5736C1686.8274,-231.3141 1757.8003,-217.0123 1819.32,-204 1825.8052,-202.6283 1832.6002,-201.1671 1839.3402,-199.7028"/>
<polygon fill="#191970" stroke="#191970" points="1840.1095,-203.1173 1849.1331,-197.5653 1838.6168,-196.2783 1840.1095,-203.1173"/>
</g>
<!-- Node35 -->
<g id="node35" class="node">
<title>Node35</title>
<g id="a_node35"><a xlink:href="../../de/da7/phooldefs_8h.html" target="_top" xlink:title="phooldefs.h">
<polygon fill="none" stroke="#000000" points="1414.82,-114.5 1414.82,-134.5 1489.82,-134.5 1489.82,-114.5 1414.82,-114.5"/>
<text text-anchor="middle" x="1452.32" y="-121.5" font-family="FreeSans" font-size="10.00" fill="#000000">phooldefs.h</text>
</a>
</g>
</g>
<!-- Node27&#45;&gt;Node35 -->
<g id="edge70" class="edge">
<title>Node27&#45;&gt;Node35</title>
<path fill="none" stroke="#191970" d="M1559.4728,-240.4036C1539.8855,-232.7966 1514.9893,-220.7832 1497.32,-204 1479.6077,-187.1759 1466.9188,-161.8165 1459.6205,-144.2836"/>
<polygon fill="#191970" stroke="#191970" points="1462.6978,-142.5459 1455.7762,-134.5246 1456.1849,-145.1115 1462.6978,-142.5459"/>
</g>
<!-- Node28&#45;&gt;Node6 -->
<g id="edge56" class="edge">
<title>Node28&#45;&gt;Node6</title>
<path fill="none" stroke="#191970" d="M1584.7944,-115.7187C1523.0586,-104.0666 1415.6239,-83.7891 1361.8846,-73.6463"/>
<polygon fill="#191970" stroke="#191970" points="1362.3578,-70.1739 1351.8821,-71.7584 1361.0595,-77.0524 1362.3578,-70.1739"/>
</g>
<!-- Node29 -->
<g id="node29" class="node">
<title>Node29</title>
<polygon fill="none" stroke="#bfbfbf" points="1675.32,-57.5 1675.32,-77.5 1729.32,-77.5 1729.32,-57.5 1675.32,-57.5"/>
<text text-anchor="middle" x="1702.32" y="-64.5" font-family="FreeSans" font-size="10.00" fill="#000000">cstddef</text>
</g>
<!-- Node28&#45;&gt;Node29 -->
<g id="edge55" class="edge">
<title>Node28&#45;&gt;Node29</title>
<path fill="none" stroke="#191970" d="M1644.0134,-114.3095C1654.5137,-105.8798 1669.6303,-93.7439 1681.8403,-83.9415"/>
<polygon fill="#191970" stroke="#191970" points="1684.1297,-86.5919 1689.7366,-77.6022 1679.7474,-81.1333 1684.1297,-86.5919"/>
</g>
<!-- Node30&#45;&gt;Node6 -->
<g id="edge63" class="edge">
<title>Node30&#45;&gt;Node6</title>
<path fill="none" stroke="#191970" d="M1559.8318,-177.2647C1549.174,-161.3006 1526.4164,-130.5873 1499.32,-114 1456.2102,-87.6099 1397.9497,-75.9158 1362.0422,-70.9401"/>
<polygon fill="#191970" stroke="#191970" points="1362.4643,-67.4656 1352.0982,-69.6554 1361.5673,-74.4079 1362.4643,-67.4656"/>
</g>
<!-- Node30&#45;&gt;Node7 -->
<g id="edge62" class="edge">
<title>Node30&#45;&gt;Node7</title>
<path fill="none" stroke="#191970" d="M1506.1626,-181.9569C1470.4659,-178.6974 1424.3185,-174.5353 1383.32,-171 1178.5301,-153.3407 931.8494,-133.5471 847.9221,-126.8544"/>
<polygon fill="#191970" stroke="#191970" points="848.0876,-123.3565 837.8411,-126.0511 847.5315,-130.3344 848.0876,-123.3565"/>
</g>
<!-- Node30&#45;&gt;Node28 -->
<g id="edge58" class="edge">
<title>Node30&#45;&gt;Node28</title>
<path fill="none" stroke="#191970" d="M1576.7634,-177.378C1586.6547,-167.791 1601.7069,-153.202 1613.497,-141.7747"/>
<polygon fill="#191970" stroke="#191970" points="1615.9419,-144.2792 1620.6866,-134.8062 1611.07,-139.2527 1615.9419,-144.2792"/>
</g>
<!-- Node30&#45;&gt;Node29 -->
<g id="edge61" class="edge">
<title>Node30&#45;&gt;Node29</title>
<path fill="none" stroke="#191970" d="M1615.238,-177.4864C1640.2909,-169.9004 1669.2446,-156.8986 1687.32,-135 1698.1595,-121.8679 1701.5922,-102.5656 1702.4982,-87.9622"/>
<polygon fill="#191970" stroke="#191970" points="1705.9988,-87.9847 1702.7794,-77.8908 1699.0016,-87.7892 1705.9988,-87.9847"/>
</g>
<!-- Node31 -->
<g id="node31" class="node">
<title>Node31</title>
<g id="a_node31"><a xlink:href="../../d5/d6f/phool_8h.html" target="_top" xlink:title="phool.h">
<polygon fill="none" stroke="#000000" points="1459.32,-57.5 1459.32,-77.5 1513.32,-77.5 1513.32,-57.5 1459.32,-57.5"/>
<text text-anchor="middle" x="1486.32" y="-64.5" font-family="FreeSans" font-size="10.00" fill="#000000">phool.h</text>
</a>
</g>
</g>
<!-- Node30&#45;&gt;Node31 -->
<g id="edge59" class="edge">
<title>Node30&#45;&gt;Node31</title>
<path fill="none" stroke="#191970" d="M1562.9243,-177.41C1557.6956,-162.6824 1546.7478,-134.7917 1532.32,-114 1524.8852,-103.2857 1514.8635,-92.8263 1506.0723,-84.5494"/>
<polygon fill="#191970" stroke="#191970" points="1508.2058,-81.7587 1498.4541,-77.6171 1503.4946,-86.9361 1508.2058,-81.7587"/>
</g>
<!-- Node31&#45;&gt;Node16 -->
<g id="edge60" class="edge">
<title>Node31&#45;&gt;Node16</title>
<path fill="none" stroke="#191970" d="M1459.0162,-65.1236C1433.6972,-62.9397 1394.9715,-59.6493 1361.32,-57 1137.4547,-39.3756 868.8776,-20.3443 768.6356,-13.3144"/>
<polygon fill="#191970" stroke="#191970" points="768.8552,-9.8213 758.635,-12.6137 768.3659,-16.8042 768.8552,-9.8213"/>
</g>
<!-- Node32&#45;&gt;Node29 -->
<g id="edge69" class="edge">
<title>Node32&#45;&gt;Node29</title>
<path fill="none" stroke="#191970" d="M1884.653,-177.365C1869.6574,-162.0783 1839.3752,-132.9044 1809.32,-114 1787.1666,-100.0657 1760.1177,-88.3516 1738.7587,-80.1662"/>
<polygon fill="#191970" stroke="#191970" points="1739.9759,-76.8847 1729.3835,-76.6583 1737.5228,-83.4408 1739.9759,-76.8847"/>
</g>
<!-- Node32&#45;&gt;Node33 -->
<g id="edge65" class="edge">
<title>Node32&#45;&gt;Node33</title>
<path fill="none" stroke="#191970" d="M1902.5141,-177.378C1910.0532,-168.0649 1921.4135,-154.0316 1930.5368,-142.7617"/>
<polygon fill="#191970" stroke="#191970" points="1933.4053,-144.7809 1936.9769,-134.8062 1927.9645,-140.3765 1933.4053,-144.7809"/>
</g>
<!-- Node33&#45;&gt;Node6 -->
<g id="edge68" class="edge">
<title>Node33&#45;&gt;Node6</title>
<path fill="none" stroke="#191970" d="M1894.1232,-119.7626C1771.4188,-108.4085 1463.2382,-79.8918 1362.0632,-70.5298"/>
<polygon fill="#191970" stroke="#191970" points="1362.1271,-67.0209 1351.8471,-69.5845 1361.4821,-73.9911 1362.1271,-67.0209"/>
</g>
<!-- Node34 -->
<g id="node34" class="node">
<title>Node34</title>
<g id="a_node34"><a xlink:href="../../db/dd5/PHPointerList_8h.html" target="_top" xlink:title="PHPointerList.h">
<polygon fill="none" stroke="#000000" points="1869.32,-57.5 1869.32,-77.5 1961.32,-77.5 1961.32,-57.5 1869.32,-57.5"/>
<text text-anchor="middle" x="1915.32" y="-64.5" font-family="FreeSans" font-size="10.00" fill="#000000">PHPointerList.h</text>
</a>
</g>
</g>
<!-- Node33&#45;&gt;Node34 -->
<g id="edge66" class="edge">
<title>Node33&#45;&gt;Node34</title>
<path fill="none" stroke="#191970" d="M1939.9566,-114.3095C1935.9039,-106.6093 1930.2235,-95.8166 1925.3384,-86.5349"/>
<polygon fill="#191970" stroke="#191970" points="1928.3917,-84.8213 1920.637,-77.6022 1922.1973,-88.0816 1928.3917,-84.8213"/>
</g>
<!-- Node34&#45;&gt;Node16 -->
<g id="edge67" class="edge">
<title>Node34&#45;&gt;Node16</title>
<path fill="none" stroke="#191970" d="M1869.0625,-60.1271C1860.2043,-58.9193 1850.9897,-57.8024 1842.32,-57 1423.9272,-18.278 914.1295,-11.7903 768.7474,-10.7126"/>
<polygon fill="#191970" stroke="#191970" points="768.5488,-7.2112 758.5246,-10.6414 768.5,-14.211 768.5488,-7.2112"/>
</g>
<!-- Node35&#45;&gt;Node6 -->
<g id="edge71" class="edge">
<title>Node35&#45;&gt;Node6</title>
<path fill="none" stroke="#191970" d="M1430.6132,-114.4408C1411.1485,-105.4205 1382.3638,-92.0813 1360.4489,-81.9255"/>
<polygon fill="#191970" stroke="#191970" points="1361.7683,-78.6795 1351.2236,-77.6504 1358.825,-85.0307 1361.7683,-78.6795"/>
</g>
</g>
</svg>
